<?xml version="1.0" standalone="no"?>
<!DOCTYPE svg PUBLIC "-//W3C//DTD SVG 1.1//EN" "http://www.w3.org/Graphics/SVG/1.1/DTD/svg11.dtd" >
<svg xmlns="http://www.w3.org/2000/svg" xmlns:xlink="http://www.w3.org/1999/xlink" version="1.1" viewBox="0 -144 1024 1024">
  <g transform="matrix(1 0 0 -1 0 880)">
   <path fill="currentColor"
d="M808 73l-74 16l-69 21l-63 26l-57 31l-37 26l-66 -36l-72 -33l-77 -27l-81 -21l-86 -16l-90 -10l-2 9l88 21l82 23l77 28l72 31l67 35l47 29l-20 18l-39 45l-33 51l-18 40l-33 -33l-34 -30l-36 -27l-39 -26l-41 -23l-43 -21l-46 -18l-4 9l78 54l36 28l33 29l31 29l29 31
l27 32l24 33l22 34l19 35l3 6l54 -38l8 -17h-20l-13 -20l-18 -23h280l7 8l2 -2l24 21l59 -49l-27 -16l-20 -8l-35 -42l-53 -53l-58 -47l-22 -15l18 -10l55 -24l59 -20l65 -16l70 -11l133 -11l-64 -67zM658 402h-282l-10 -12l28 -38l38 -42l41 -37l30 -22l36 28l52 47l47 50z
M171 980l64 -33h503l32 27l59 -48l-27 -22v-282l-64 -33v65h-85v-106h-64v106h-173l-69 -107l-24 15l23 -16l-20 -23l-22 -22l-23 -20l-52 -36l-28 -16l-30 -14l-33 -13l-34 -11l-35 -9l-4 9l61 37l53 36l24 18l22 19l38 40l16 21l60 92h-104v-65l-64 -32v423zM675 470h258
l14 10l10 14l-10 15l-14 9l11 70h-11l-23 -70h-235v-48zM653 548v-7v-5v-4v-2l1 -2l1 -2l3 -2l3 -2l6 -2l8 -2v-48h-14l-12 2l-12 3l-12 5l-11 8l-9 10l-7 11l-5 13l-3 12l-1 14h64zM738 794h-503v-119h503v119zM738 926h-503v-110h503v110z" />
  </g>

</svg>
