<?xml version="1.0" standalone="no"?>
<!DOCTYPE svg PUBLIC "-//W3C//DTD SVG 1.1//EN" "http://www.w3.org/Graphics/SVG/1.1/DTD/svg11.dtd" >
<svg xmlns="http://www.w3.org/2000/svg" xmlns:xlink="http://www.w3.org/1999/xlink" version="1.1" viewBox="0 -36 256 256">
  <g transform="matrix(1 0 0 -1 0 220)">
   <path fill="currentColor"
d="M29 211h40q0 7 -3 15.5t-9 15.5l2 2q21 -10 23.5 -18t-7.5 -15h41l6 9l13 -15q-5 -2 -10.5 -5t-15.5 -15l-3 2l9 17h-85q0 -14 -6.5 -18.5t-11.5 -0.5t3 11t10 26h4v-11zM27 147l14 -8h63l6 7l12 -10l-7 -6v-37h3l9 10l12 -17h-104q-10 0 -19 -2l-9 9h21q0 32 -1 54z
M40 93h14v39h-14v-39zM66 93h13v39h-13v-39zM90 93h14v39h-14v-39zM65 32q4 1 4 6v50h13v-53q0 -17 -20 -23q1 11 -22 17v5q21 -3 25 -2zM50 167q-10 0 -19 -2l-9 9h81l10 10l14 -17h-46l-11 -30h-12l10 30h-18zM141 219l11 -6h11q7 24 8 33l18 -8l-7 -5q-5 -10 -11 -20h40
l6 9l14 -11l-7 -6q0 -36 1 -52l-14 -6v7h-56v-19h70l11 11l12 -18h-93v-19h74l7 9l12 -12l-6 -7q-2 -45 -4 -58t-8.5 -21t-16.5 -12q-1 12 -25 16v6q19 -2 26 -2t9.5 8t3.5 25.5t2 40.5h-74v-5l-14 -5q1 20 1 34v66q0 13 -1 27zM211 206h-56v-20h56v20zM211 179h-56v-18h56
v18zM197.5 67.5q2.5 -8.5 -1 -13.5t-7 -5t-4 7.5t-3.5 16.5t-7 17l2 2q18 -16 20.5 -24.5zM217.5 76q4.5 -8 2 -15t-7 -7.5t-4.5 6.5t-4 17.5t-7 15.5l3 2q13 -11 17.5 -19zM172 66q4 -9 1 -15.5t-7.5 -6.5t-4.5 9.5t-2 17.5t-4 15l2 2q11 -13 15 -22zM145 53
q-2 -9 -8.5 -12.5t-10 1t3 12.5t8.5 15t3 17h4q2 -24 0 -33z" />
  </g>

</svg>
