<?xml version="1.0" standalone="no"?>
<!DOCTYPE svg PUBLIC "-//W3C//DTD SVG 1.1//EN" "http://www.w3.org/Graphics/SVG/1.1/DTD/svg11.dtd" >
<svg xmlns="http://www.w3.org/2000/svg" xmlns:xlink="http://www.w3.org/1999/xlink" version="1.1" viewBox="0 -36 256 256">
  <g transform="matrix(1 0 0 -1 0 220)">
   <path fill="currentColor"
d="M72 221q19 -10 29.5 -17t8 -19t-11.5 2t-29 29q-21 -41 -59 -74l-2 2q21 25 39.5 58.5t17.5 42.5l17 -12q-5 -2 -10 -12zM105 116q0 -22 1 -37l-14 -6v7h-48v-48q19 9 39 19q-4 9 -12 24l1 2q22 -18 28.5 -28t0 -19t-9.5 0t-7 17q-43 -29 -46 -37l-11 15q4 6 4 13v77
q0 25 -1 44l14 -10h49l7 8l12 -13l-7 -6v-22zM44 118h48v24h-48v-24zM44 87h48v24h-48v-24zM132 210h91l9 10l15 -16q-9 -2 -13.5 -6t-13.5 -14l-3 1l8 18h-93q1 -16 -6 -20.5t-13 -0.5t3 10.5t12 25.5h4v-8zM157 97h-18q-10 0 -19 -2l-9 9h59v25h-18q-10 -1 -19 -3l-9 10
h46v20q-21 -2 -49 -2v4q24 2 49 7q0 15 -1 30l20 -9l-6 -6v-13q27 4 38 10l13 -16q-25 -1 -51 -4v-21h22l11 10l14 -17h-47v-25h39l12 11l14 -18h-91zM186.5 226q-0.5 -8 -6.5 -12.5t-7.5 8t-8.5 23.5l2 2q21 -13 20.5 -21zM225 16l-14 -6v12h-70v-9l-14 -5q1 13 1 34.5
t-1 42.5l14 -8h69l9 9l13 -13l-8 -5q0 -38 1 -52zM141 29h70v41h-70v-41zM75 176l12 11l13 -18h-43q-11 0 -13 -2l-4 9h35z" />
  </g>

</svg>
