<?xml version="1.0" standalone="no"?>
<!DOCTYPE svg PUBLIC "-//W3C//DTD SVG 1.1//EN" "http://www.w3.org/Graphics/SVG/1.1/DTD/svg11.dtd" >
<svg xmlns="http://www.w3.org/2000/svg" xmlns:xlink="http://www.w3.org/1999/xlink" version="1.1" viewBox="0 -52 256 256">
  <g transform="matrix(1 0 0 -1 0 204)">
   <path fill="currentColor"
d="M12 12l-2 3q33 20 44 54q5 15 3 16q0 2 -3 5l1 2l19 -7q3 -3 0 -4q-3 0 -5 -3q0 -2 -2 -5q-1 -4 -2 -6q20 -24 59 -32v73h-56v-1q0 -6 -13 -8q2 9 2 17v35q0 7 -5 10l3 3l11 -8h117l9 9l13 -12q2 -2 1 -2q0 -1 -3 -2l-4 -3v-30l1 -7q1 -7 -12 -9v8h-53v-32h75l9 10
l16 -12q3 -1 2 -2q0 -1 -4 -1h-98v-37q7 -1 16 -1h75h22v-4q-21 0 -19 -8h-44q-19 0 -36 1q-58 2 -86 38q-15 -33 -51 -48zM68 113h120v38h-120v-38zM135 229l-8 8h78l11 11l11 -13q2 -2 1 -2q0 -1 -2 -2l-5 -2v-40l1 -13q0 -9 -13 -11l1 18l1 6v43h-66q-6 0 -10 -3zM28 229
l-8 8h77l11 11l11 -13q2 -2 1 -3q0 -1 -2 -1l-5 -3v-37l1 -13q0 -8 -13 -11l1 16l1 8v41h-65q-6 0 -10 -3zM97 191l-33 -11q-2 -1 -6 -2q-9 -3 -12 -6q-3 -2 -10 -8l-11 13l70 18zM205 195l-32 -11q-2 -1 -6 -2q-9 -3 -12 -6q-4 -2 -10 -8l-12 13l71 18zM148 222l1 3
q25 -8 29 -15q6 -10 -3 -13q-4 0 -6 5q-2 6 -6 9q-3 5 -15 11zM38 221l1 3q25 -8 29 -15q6 -10 -3 -13q-4 0 -6 5q-2 6 -6 9q-4 5 -15 11z" />
  </g>

</svg>
