<?xml version="1.0" standalone="no"?>
<!DOCTYPE svg PUBLIC "-//W3C//DTD SVG 1.1//EN" "http://www.w3.org/Graphics/SVG/1.1/DTD/svg11.dtd" >
<svg xmlns="http://www.w3.org/2000/svg" xmlns:xlink="http://www.w3.org/1999/xlink" version="1.1" viewBox="0 -205 1024 1024">
  <g transform="matrix(1 0 0 -1 0 819)">
   <path fill="currentColor"
d="M832 482l58 -56q8 -6 8 -12q0 -7 -14 -10q-25 -8 -40 -22q-16 -13 -148 -196q60 -39 84 -75q23 -33 14 -60q-9 -25 -30 -24q-22 1 -32 28q-9 30 -38 66q-30 34 -66 65q-37 27 -106 76l8 14q86 -36 148 -78l118 210h-232q-16 0 -52 -8l-18 34h296l42 48v0v0zM618 666l10 8
q60 -45 78 -72q18 -28 22 -50t-10 -38q-12 -17 -32 -12q-21 6 -20 36q0 30 -12 60q-9 29 -36 68v0v0zM732 934l4 -8q-1 -6 -10 -8q-9 -3 -18 -12q24 -63 58 -114q33 -51 76 -96q41 -42 76 -62q32 -18 86 -32v-18q-46 1 -64 -4q-19 -7 -34 -22q-52 39 -92 90q-39 48 -68 102
q-28 53 -58 140q-48 -108 -108 -198q-57 -90 -144 -170l-14 12q78 92 132 194q54 101 100 238l78 -32v0v0zM142 902h232l42 46l58 -56q2 -3 2 -8q0 -9 -8 -8h-170v-122h68l32 38l56 -48q3 -3 4 -8q0 -7 -8 -8h-152v-112h64l32 42l52 -52q2 -3 2 -8q0 -7 -8 -8h-142v-122h100
l26 36l60 -42q13 -13 -6 -22l-20 -12q-7 -121 -16 -206q-10 -84 -20 -115q-9 -30 -26 -48q-18 -17 -60 -38q-7 30 -28 44q-21 15 -98 36l4 20q48 -8 78 -14q29 -6 52 -4q20 0 32 26q9 23 18 105q8 82 14 206h-270v-10q1 -15 -16 -26q-20 -13 -40 -14l4 142v418l56 -48v0v0z
M138 468h110v122h-110v-122v0v0zM138 616h110v112h-110v-112v0v0zM248 754v122h-110v-122h110v0v0zM86 362h18q9 -115 -2 -154q-9 -37 -26 -50q-15 -13 -30 -14q-15 0 -24 16q-9 15 6 30q14 15 32 36q14 21 26 136v0v0zM138 352l12 8q48 -59 60 -88q9 -30 6 -48
q-4 -19 -16 -28q-9 -8 -24 0q-12 5 -12 26q0 18 -2 48q0 27 -24 82v0v0zM216 372l12 8q51 -59 64 -88t12 -46q-3 -15 -14 -24q-10 -7 -22 -2q-9 3 -12 24q-3 18 -8 46q-6 27 -32 82v0v0zM284 398l10 10q53 -42 74 -68q19 -27 18 -48q-3 -21 -14 -30q-12 -8 -24 0
q-9 8 -12 26q0 17 -12 44q-10 24 -40 66v0v0z" />
  </g>

</svg>
