<?xml version="1.0" standalone="no"?>
<!DOCTYPE svg PUBLIC "-//W3C//DTD SVG 1.1//EN" "http://www.w3.org/Graphics/SVG/1.1/DTD/svg11.dtd" >
<svg xmlns="http://www.w3.org/2000/svg" xmlns:xlink="http://www.w3.org/1999/xlink" version="1.1" viewBox="0 -36 256 256">
  <g transform="matrix(1 0 0 -1 0 220)">
   <path fill="currentColor"
d="M73.5 35.5q8.5 -0.5 8.5 12.5v58h-40q-1 -27 -6.5 -51t-24.5 -47l-3 2q13 26 17.5 55t4 92.5t-2.5 76.5l15 -8h38l7 10l15 -12l-7 -6v-171q0 -16 -5.5 -22.5t-17.5 -11.5q0 14 -22 21v4q15 -2 23.5 -2.5zM42 169h40v50h-40v-50zM42 113h40v49h-40v-49zM237 53h4
q-2 -31 3 -45q-28 4 -55 31q-22 -16 -62 -25v4q34 12 56 31q-11 21 -15 46h-30q-3 -35 -17.5 -55.5t-35.5 -31.5l-1 3q18 15 28 34t13 50q-7 0 -18 -3l-9 10h27q0 15 -1 26l22 -8l-8 -7v-11h29q-1 37 -1.5 58t-1.5 86l20 -10l-8 -8q1 -86 2 -99t1 -27h44l11 11l13 -18h-67
q4 -22 13 -38q16 18 24 33l15 -13q-12 -6 -33 -30q14 -15 33 -21zM218 119.5q5 -5.5 0 -13.5t-8.5 3t-10.5 19l2 3q12 -6 17 -11.5zM146 148q-7 10 -10 17l2 2q15 -11 20.5 -20t-0.5 -16t-7 -0.5t-4 12.5q-25 -6 -35 -15l-9 15q8 4 15.5 15.5t17.5 27.5q-21 -3 -28 -9l-7 14
q10 5 17 20.5t11 30.5l17 -10q-8 -6 -16 -19t-15 -22q12 0 23 1q7 14 8 21l15 -10q-8 -8 -21.5 -27.5l-22.5 -32.5q16 3 29 5zM132 74q23 -9 28.5 -16t1 -15.5t-9 1t-22.5 27.5zM189 128l-7 16q8 6 16.5 19.5t12.5 22.5q-8 -1 -15.5 -4t-9.5 -7l-6 16q6 2 13 17t11 33
l16 -10q-7 -5 -15 -18.5t-14 -21.5q11 0 22 1q8 11 11 26l15 -12q-8 -7 -21.5 -28.5t-23.5 -33.5q5 1 30 4q-3 10 -10 19l4 3q16 -14 20 -22t-1 -15.5t-7 -1t-4 12.5q-29 -8 -37 -16z" />
  </g>

</svg>
