<?xml version="1.0" standalone="no"?>
<!DOCTYPE svg PUBLIC "-//W3C//DTD SVG 1.1//EN" "http://www.w3.org/Graphics/SVG/1.1/DTD/svg11.dtd" >
<svg xmlns="http://www.w3.org/2000/svg" xmlns:xlink="http://www.w3.org/1999/xlink" version="1.1" viewBox="0 -52 256 256">
  <g transform="matrix(1 0 0 -1 0 204)">
   <path fill="currentColor"
d="M68 254l21 -9q3 -1 2 -3q-5 -2 -8 -5v-101l1 -14q0 -5 -3 -8q-3 -1 -10 -3q2 9 2 33v30l-18 -11l-9 -6q-9 -6 -13 -9t-9 -9l-11 9l60 33v59q0 3 -7 11zM24 229l2 3q16 -10 22 -16t8 -12q3 -7 1 -11q-3 -5 -7 -5q-5 0 -5 7q0 8 -4 15q-3 7 -17 19zM105 171v4q24 5 41 11
t32 17q17 10 27 25h-65q-5 -5 -11 -10q4 -2 12 -3q1 -1 2 -1q7 -3 10 -8v-1q2 -3 1 -7q0 -3 -4 -4q-4 0 -6 5q-1 6 -6 9q-4 3 -12 6q-14 -11 -29 -19l-2 3q22 17 39 37q8 8 6 11q0 4 -3 5l2 2l19 -8l2 -1q0 -1 -2 -2q-6 -1 -8 -3q-3 -3 -5 -6h60l8 8l14 -12q2 -3 -1 -3
q-1 -1 -4 -1q-3 -1 -4 -1q-3 -1 -9 -9q-6 -7 -23 -18q-16 -12 -36 -18q-19 -6 -45 -8zM88 167h109v19q0 5 -5 8l2 3l19 -7q2 -1 3 -2l-1 -1q-5 -1 -8 -4v-16h17l8 10l17 -12q2 -1 2 -2q-1 -1 -3 -1h-41v-32q0 -9 -4 -12q-3 -5 -17 -8q0 8 -7 9q-2 0 -6 2q-8 2 -13 3l1 3
l7 -1q16 -3 22 -1q7 2 7 12v25h-89q-7 0 -11 -3zM122 154l1 3q12 -3 19 -7q8 -4 11 -9q3 -4 3 -9q-2 -5 -5 -5q-5 -1 -5 5q-1 6 -7 11t-17 11zM220 96v-23q0 -20 -4 -32q-3 -7 -11 -14q-7 -8 -29 -12q-1 11 -10 14q-1 0 -6 1q-9 3 -17 5l1 4q6 -1 15 -2q14 -3 18 -3
q2 -1 6 0h5q7 2 13 7q7 7 7 27v31h-81q-10 -74 -115 -90l-2 4q94 19 105 86h-64q-7 0 -10 -4l-9 9h172l9 10l12 -10q2 -1 2 -3q0 -1 -2 -2z" />
  </g>

</svg>
