<?xml version="1.0" standalone="no"?>
<!DOCTYPE svg PUBLIC "-//W3C//DTD SVG 1.1//EN" "http://www.w3.org/Graphics/SVG/1.1/DTD/svg11.dtd" >
<svg xmlns="http://www.w3.org/2000/svg" xmlns:xlink="http://www.w3.org/1999/xlink" version="1.1" viewBox="0 -143 1024 1024">
  <g transform="matrix(1 0 0 -1 0 881)">
   <path fill="currentColor"
d="M98 950l57 -29h45l22 30l45 -32q10 -4 10 -13q0 -4 -23 -23v-288h61v353l53 -31h61l24 30l44 -34q10 -4 10 -13q0 -4 -28 -25v-280h23l24 32l45 -43q3 -1 3 -5q0 -10 -12 -10h-83v-414q3 -42 -14.5 -63t-59.5 -29q-2 28 -14.5 36t-59.5 24l6 14q35 -6 51.5 -7t31 2
t12.5 25v412h-70q3 -146 -6 -235t-41 -162t-92 -139l-12 10q52 76 74 146t28 152t2 228h-61v-360q0 -47 -20 -69.5t-49 -28.5q-2 24 -15 33t-41 21l4 14q30 -4 42 -7t23 6t9 35v356h-64q2 -102 -3.5 -197.5t-30 -175t-82.5 -149.5l-10 8q40 70 59 156.5t21 166t1 191.5h-40
l-19 -8l-17 34h76v355zM145 595h62v300h-62v-300zM362 595h70v296h-70v-296zM587 898l50 -34h37q14 37 42 115l64 -28q18 -8 8 -18q-18 -3 -28 -7t-24 -19.5t-36 -42.5h157l27 30l51 -44q7 -10 -3 -16l-27 -20v-150l4 -62q-3 -17 -18 -28t-33 -12v42h-224v-81h274l28 36
l50 -48q6 -14 -8 -14h-344v-78h282l24 30l53 -42q12 -6 2 -18l-28 -18v-112q-3 -83 -15 -127.5t-31 -65.5t-57 -39q-12 38 -46 51t-88 27l4 18q64 -12 94 -16t45 -1t28.5 30t18.5 125v130l-286 1v-9q-1 -12 -13.5 -20t-37.5 -13l4 102v446zM634 632h224v84h-224v-84z
M634 745h224v91h-224v-91zM788 351l10 10q60 -40 79 -69t18 -50t-13 -29t-24 -2t-16 25t-12 43t-42 72zM706 331l12 8q62 -54 75 -81t11 -46t-13 -27t-24 -4t-16 28t-8 45t-37 77zM577 307h20q1 -92 -7 -129t-24 -52t-35 -14t-21 21t15 34t30.5 35t21.5 105zM630 309l14 8
q49 -62 58 -91t5.5 -48t-16.5 -27t-25 -1t-11.5 26.5t-1 49t-23.5 83.5z" />
  </g>

</svg>
