<?xml version="1.0" standalone="no"?>
<!DOCTYPE svg PUBLIC "-//W3C//DTD SVG 1.1//EN" "http://www.w3.org/Graphics/SVG/1.1/DTD/svg11.dtd" >
<svg xmlns="http://www.w3.org/2000/svg" xmlns:xlink="http://www.w3.org/1999/xlink" version="1.1" viewBox="0 -36 256 256">
  <g transform="matrix(1 0 0 -1 0 220)">
   <path fill="currentColor"
d="M91 90q48 -25 39.5 -43t-13.5 -1t-28 40zM91 101q-3 -59 -60 -91l-2 4q23 17 35 40t13 47h-29q-3 -47 -37 -88l-3 3q11 19 18.5 44.5t7.5 50.5v47q0 28 -1 68l12 -8q42 8 70 25l16 -20h-15l-68 -11v-9h69l7 9l15 -12l-8 -7v-41l-14 -6v8h-69v-46h30q0 21 -1 42l19 -8
l-5 -6v-28h19q0 12 -12 28l3 2q15 -5 20 -11.5t-6 -18.5h4l10 9l11 -16h-49zM48 161h69v35h-69v-35zM162 171q10 -54 23 -83q14 37 19 92h-39zM187 236l-8 -4q-5 -25 -11 -45h51l9 13l16 -20h-25q-6 -59 -27 -107q28 -35 55 -45v-4q-13 0 -17 -12q-27 22 -45 51
q-27 -38 -84 -54v5q59 26 77 62q-15 43 -19 81q-6 -20 -22 -45l-3 2q22 56 32 133z" />
  </g>

</svg>
