<?xml version="1.0" standalone="no"?>
<!DOCTYPE svg PUBLIC "-//W3C//DTD SVG 1.1//EN" "http://www.w3.org/Graphics/SVG/1.1/DTD/svg11.dtd" >
<svg xmlns="http://www.w3.org/2000/svg" xmlns:xlink="http://www.w3.org/1999/xlink" version="1.1" viewBox="0 -36 256 256">
  <g transform="matrix(1 0 0 -1 0 220)">
   <path fill="currentColor"
d="M40 36h29v38h-29v-38zM70 159l13 11l14 -18h-67h-3l-8 -2l-9 9h60zM71 135l9 8l11 -15h-49h-4l-8 -2l-10 9h51zM70 108l10 10l11 -17h-39q-11 0 -21 -2l-10 9h49zM27 60v28l14 -7h28l6 8l12 -10l-5 -6v-24q0 -16 1 -26l-14 -8v14h-29v-8l-13 -7v46zM59 186.5
q6 -4.5 6 -9.5t-5.5 -10t-8.5 5.5t-13 22.5l1 2q14 -6 20 -10.5zM131 168q-1 5 -4.5 10t-12.5 13l2 2q18 -5 23.5 -10.5t-6.5 -14.5h17l10 9l11 -16h-49q-8 1 -19 -2l-10 9h38zM104 154q17 -8 22.5 -15t-1.5 -14.5t-10 4.5t-15 23zM189 119h28l10 9l14 -16h-119q-8 1 -19 -2
l-10 9h43q12 30 12 38l19 -10l-8 -2q-8 -13 -18 -26h35q-1 23 -2 75l22 -8l-8 -6q-1 -22 1 -61zM176 119h13q0 -32 6 -50q13 22 16 37l18 -12l-7 -3q-13 -24 -21 -35q10 -17 28 -28l8 30l4 -1q-2 -13 -1.5 -26t2.5 -24q-35 14 -51 38q-22 -24 -52 -37l-2 4q29 19 48 45
q-8 23 -9 62zM160 29l-14 -5v9h-32v-8l-13 -5v45.5v38.5l12 -6h31l7 8l14 -11l-6 -5q0 -29 1 -61zM114 70h32v21h-32v-21zM114 40h32v23h-32v-23zM225.5 159q7.5 -7 0.5 -16t-10.5 2t-19.5 26l3 3q19 -8 26.5 -15zM125 206h-36q0 -7 1 -17l-16 -4q1 10 1 21h-24
q-12 0 -22 -2l-10 9h56q0 23 -1 34l22 -9l-7 -5v-20h9l14 11zM130 215h32q0 20 -1 31l23 -9l-8 -6v-16h36l12 10l15 -17h-63q0 -5 1 -16l-16 -6q1 17 1 22h-11q-6 1 -14 -3z" />
  </g>

</svg>
