<?xml version="1.0" standalone="no"?>
<!DOCTYPE svg PUBLIC "-//W3C//DTD SVG 1.1//EN" "http://www.w3.org/Graphics/SVG/1.1/DTD/svg11.dtd" >
<svg xmlns="http://www.w3.org/2000/svg" xmlns:xlink="http://www.w3.org/1999/xlink" version="1.1" viewBox="0 -36 256 256">
  <g transform="matrix(1 0 0 -1 0 220)">
   <path fill="currentColor"
d="M96 122q0 -10 10 -11h10v45h-20v-34zM69 163h15v30h-15v-30zM36 92q21 26 21 64h-21v-64zM36 87v-50h80v63h-17q-17 1 -15 26v30h-15q0 -45 -33 -69zM61 226.5q7 -8.5 -1.5 -18.5t-11 4.5t-14.5 30.5l4 2q16 -10 23 -18.5zM89 200h30l14 11l15 -18h-52v-30h19l8 12
l14 -14l-8 -7v-86q0 -28 1 -47l-14 -8v17h-80v-16l-14 -6q1 23 1 87.5t-1 77.5l14 -10h21v30h-21q-10 -1 -20 -3l-9 10h76q16 31 19 48l20 -12l-10 -6q-5 -8 -23 -30zM156 21v44v111q0 29 -1 56l15 -12h49l10 12l15 -17l-11 -6q-13 -23 -32 -61q48 -35 42.5 -63.5
t-37.5 -35.5q-5 16 -29 21v5q44 -15 50.5 9.5t-35.5 61.5q17 36 25 67h-47v-147q0 -26 1 -52l-16 -7zM80 73h38v-7h-84v7h46z" />
  </g>

</svg>
