<?xml version="1.0" standalone="no"?>
<!DOCTYPE svg PUBLIC "-//W3C//DTD SVG 1.1//EN" "http://www.w3.org/Graphics/SVG/1.1/DTD/svg11.dtd" >
<svg xmlns="http://www.w3.org/2000/svg" xmlns:xlink="http://www.w3.org/1999/xlink" version="1.1" viewBox="0 -205 1024 1024">
  <g transform="matrix(1 0 0 -1 0 819)">
   <path fill="currentColor"
d="M480 756q59 99 110 222l72 -38q19 -12 -4 -18q-28 -7 -40 -22l-30 -46h166l42 46q55 -52 56 -52q10 -7 8 -16q-1 -6 -22 -8q-22 1 -76 -70l-48 -64h168l38 52l62 -58q2 -7 2 -10q0 -9 -6 -8h-462l2 -160q-3 -102 -18 -182q-12 -79 -54 -154q-41 -74 -136 -153l-12 12
q81 88 112 153q30 63 42 126q9 63 18 198v176q-41 -50 -76 -88l-14 12q39 51 100 150v0v0zM492 712l26 -22h168l78 142h-192q-42 -69 -80 -120v0v0v0zM588 580l62 -42h174l28 34l50 -40q9 -7 10 -16q1 -2 -10 -10q-24 -13 -24 -20v-120q-1 -51 -22 -84q-21 -31 -72 -52
q-7 33 -34 48q-24 15 -62 30l4 18q48 -16 82 -20q32 -4 44 16q9 19 12 50v142h-192v-364q-1 -32 14 -45q13 -9 44 -10h168q37 0 50 18q11 16 16 33q4 18 8 138h20q1 -85 8 -112q6 -28 30 -49q-12 -27 -30 -46q-18 -18 -66 -22h-226q-35 1 -52 10q-16 9 -26 32q-7 21 -8 55
v428v0v0zM258 938q5 -3 8 -6q0 -10 -18 -16t-26 -54q-6 -47 -20 -136h104l30 42l52 -36q13 -8 12 -16q-1 -6 -28 -24q-21 -164 -38 -238q-18 -72 -62 -162q51 -33 72 -56q18 -25 24 -46q3 -21 -6 -36t-24 -12q-15 1 -26 26q-10 24 -26 48q-15 24 -36 42q-45 -79 -96 -123
q-49 -45 -112 -94l-8 14q53 55 104 113q50 60 80 114q-36 29 -122 76q24 144 54 342h-60q-21 0 -48 -6l-16 32h128q15 122 28 244l76 -32v0v0zM236 312q33 72 52 162q18 89 30 226h-122q-28 -175 -58 -334q43 -24 98 -54v0v0z" />
  </g>

</svg>
