<?xml version="1.0" standalone="no"?>
<!DOCTYPE svg PUBLIC "-//W3C//DTD SVG 1.1//EN" "http://www.w3.org/Graphics/SVG/1.1/DTD/svg11.dtd" >
<svg xmlns="http://www.w3.org/2000/svg" xmlns:xlink="http://www.w3.org/1999/xlink" version="1.1" viewBox="0 -36 256 256">
  <g transform="matrix(1 0 0 -1 0 220)">
   <path fill="currentColor"
d="M145 247l22 -10l-7 -7v-13h37l8 10l15 -13l-8 -6v-17h8l13 12l14 -19h-35q0 -12 1 -24l-15 -5v6h-38v-18h42l12 11l15 -18h-69v-18h49l14 12l16 -19h-138q-11 -1 -20 -3l-9 10h74v18h-29q-10 0 -19 -2l-10 9h58v18h-27q-10 0 -19 -2l-10 9h56v16h-42q-11 0 -20 -2l-9 9
h71v18h-26q-10 -1 -19 -3l-10 10h55q0 15 -1 31zM160 168h38v16h-38v-16zM160 191h38v19h-38v-19zM112 88v-64h87v64h-87zM99 63q0 22 -1 39l15 -7h85l8 9l16 -13l-9 -5v-62h10l12 13l14 -20h-160q-5 0 -14 -3l-9 10h33v39zM149 84l19 -10l-6 -3l-4 -7q25 -12 29.5 -17.5
t1.5 -15.5t-10.5 2.5t-22.5 24.5q-12 -19 -38 -30l-2 3q25 17 33 53zM32.5 138.5q-3.5 -11.5 -12 -14t-10.5 2.5t7 16t14 43h4q1 -36 -2.5 -47.5zM45 245l22 -13l-8 -9v-170q0 -22 1 -36l-15 -10q1 36 1 58v126q0 29 -1 54zM81 177.5q6 -8.5 4 -15.5t-8 -7.5t-7.5 11.5
t-9.5 31l3 2q12 -13 18 -21.5z" />
  </g>

</svg>
