<?xml version="1.0" standalone="no"?>
<!DOCTYPE svg PUBLIC "-//W3C//DTD SVG 1.1//EN" "http://www.w3.org/Graphics/SVG/1.1/DTD/svg11.dtd" >
<svg xmlns="http://www.w3.org/2000/svg" xmlns:xlink="http://www.w3.org/1999/xlink" version="1.1" viewBox="0 -36 256 256">
  <g transform="matrix(1 0 0 -1 0 220)">
   <path fill="currentColor"
d="M88 158l-13 -8v12h-11v-48h10l11 10l13 -17h-34v-57l29 8l1 -4q-31 -14 -65 -29l-9 -8l-11 16l14 4q0 78 -1 100l19 -14l-6 -7v-75l17 6v115h-18v-7l-13 -7q1 14 1 43.5t-1 47.5l14 -9h38l9 10l11 -15l-6 -6q0 -40 1 -61zM34 169h41v54h-41v-54zM118 92q0 29 -1 40l15 -6
h75l7 8l15 -12l-7 -4q0 -51 1 -65l-14 -4v6h-19v-22q0 -10 8 -9h26q7 1 8 11t1 21h4q1 -11 2 -18.5t9 -12.5q-6 -11 -23 -11h-32q-14 0 -15 16v25h-16q-11 -45 -78 -47v3q54 7 64 44h-17v-4l-14 -4q1 16 1 45zM209 119h-78v-15h78v15zM209 97h-78v-14h78v14zM209 76h-78v-14
h78v14zM181 147h9v24h-9v-24zM240 138l-10 -4v6h-49v-3l-10 -4v53l10 -8h46l8 9l11 -12l-6 -3v-34zM194 230.5q-3 -4.5 -6 -8.5h30l10 10l14 -17h-57q-8 -9 -16 -16l-3 1q18 33 19 48l16 -10q-4 -3 -7 -7.5zM149 194h-38v-20h38v20zM129 167h-18v-21h18v21zM129 222h-18v-21
h18v21zM161 168l-12 -4v3h-10v-21h5l9 8l13 -15h-54l-7 -7l-11 11l6 6q0 70 -1 88l13 -8h32l10 11l13 -18h-28v-21h9l5 8l12 -8l-5 -7q0 -20 1 -26zM200 147h9v24h-9v-24zM219 147h11v24h-11v-24zM172 200h44l10 8l14 -15h-53l-8 -2z" />
  </g>

</svg>
