<?xml version="1.0" standalone="no"?>
<!DOCTYPE svg PUBLIC "-//W3C//DTD SVG 1.1//EN" "http://www.w3.org/Graphics/SVG/1.1/DTD/svg11.dtd" >
<svg xmlns="http://www.w3.org/2000/svg" xmlns:xlink="http://www.w3.org/1999/xlink" version="1.1" viewBox="0 -205 1024 1024">
  <g transform="matrix(1 0 0 -1 0 819)">
   <path fill="currentColor"
d="M692 968q6 -3 6 -6q3 -10 -24 -16q-13 -7 -46 -70h200l30 38l60 -46q6 -6 6 -8q0 -6 -32 -32v-268l4 -80q0 -15 -18 -26q-18 -9 -38 -12v32h-310v-10q0 -9 -20 -20q-21 -10 -36 -10l4 120v354l54 -32h70q17 62 26 116l64 -24v0v0zM530 502h310v98h-310v-98v0v0zM530 628
h310v94h-310v-94v0v0zM530 750h310v98h-310v-98v0v0zM404 328h218q9 52 16 116q75 -24 82 -30q3 -3 4 -8q-1 -5 -22 -16q-19 -9 -26 -62h218l38 48l58 -58q3 -4 4 -10q1 -7 -16 -8h-270q44 -76 92 -118q47 -42 98 -63q51 -20 102 -26v-18q-31 0 -52 -6q-19 -5 -40 -28
q-48 27 -84 60q-36 31 -66 71t-72 128h-18q-33 -100 -84 -148q-48 -47 -102 -75q-54 -27 -162 -54l-4 18q112 37 158 70q45 29 84 73q36 41 58 116h-124q-21 0 -68 -8l-20 36v0v0zM742 442l8 12q63 -24 84 -38q21 -16 24 -34t-6 -30q-10 -13 -22 -10q-13 2 -20 22
q-6 18 -18 36q-13 18 -50 42v0v0zM114 946l56 -40h154l28 38l48 -38q12 -6 12 -14q0 -6 -30 -26v-124l4 -86q1 -21 -16 -32q-18 -10 -38 -10v36h-54v-196h62l34 46l48 -52q16 -18 0 -20h-144v-226l160 24l2 -18q-295 -68 -328 -83t-48 -36l-40 67l70 14v356l72 -32
q3 -3 4 -8q0 -1 -2 -4l-26 -16v-288l88 16v456h-64v-22q0 -13 -20 -22q-18 -10 -36 -10l4 130v220v0v0zM166 676h166v204h-166v-204v0v0z" />
  </g>

</svg>
