<?xml version="1.0" standalone="no"?>
<!DOCTYPE svg PUBLIC "-//W3C//DTD SVG 1.1//EN" "http://www.w3.org/Graphics/SVG/1.1/DTD/svg11.dtd" >
<svg xmlns="http://www.w3.org/2000/svg" xmlns:xlink="http://www.w3.org/1999/xlink" version="1.1" viewBox="0 -205 1024 1024">
  <g transform="matrix(1 0 0 -1 0 819)">
   <path fill="currentColor"
d="M338 852h270v118l76 -28q8 -3 8 -8v-8l-34 -14v-60h182l28 48l68 -56q3 -4 4 -10q1 -7 -16 -8h-266v-92h138l32 46l58 -52q3 -4 4 -10q1 -7 -16 -8h-386q-22 1 -70 -10l-18 34h208v92h-182q-21 0 -68 -8l-20 34v0v0zM354 686h20v-40h518l26 34q57 -48 60 -54t-2 -8
q-4 -3 -22 -8q-18 -3 -36 -18q-19 -15 -62 -62l-16 10q27 39 52 82h-518q-1 -43 -14 -68q-12 -23 -30 -34q-18 -9 -32 -6q-16 3 -16 22q0 16 24 32q21 15 34 48q10 32 14 70v0v0zM404 534h344l30 40l54 -44q3 -9 4 -14q1 -7 -16 -8h-328q-21 0 -68 -8l-20 34v0v0zM414 466
l54 -30h312l24 34l52 -34q9 -6 10 -14q0 -6 -30 -24v-64l4 -62q1 -10 -16 -20q-18 -10 -36 -10v34h-326v-8q0 -12 -20 -24q-19 -9 -32 -8l4 92v138v0v0zM462 300h326v112h-326v-112v0v0zM760 166q-15 -18 -48 -75h172l38 46l58 -52q3 -5 6 -8q0 -12 -12 -12h-610
q-33 4 -68 -8l-16 34h404q23 59 50 149q63 -31 70 -38q4 -5 2 -10q-4 -3 -16 -6q-12 -1 -30 -20v0v0zM464 224l8 12q45 -24 70 -44q22 -19 26 -40q4 -18 -6 -31q-9 -13 -26 -12q-15 3 -18 24q-4 20 -16 45q-13 21 -38 46v0v0zM110 952l6 14q57 -18 90 -32q32 -13 46 -28
t16 -36q3 -22 -8 -34q-12 -14 -26 -12q-13 3 -20 18t-16 34q-9 17 -24 32q-13 13 -64 44v0v0zM28 688l6 14q48 -16 82 -32q33 -14 48 -28q15 -15 18 -36q3 -20 -6 -34q-9 -15 -26 -14q-16 0 -22 16q-6 12 -12 28q-6 14 -24 38q-19 21 -64 48v0v0zM168 408q-18 -57 -48 -60
h-80l-2 -20q39 -2 66 -10q24 -6 34 -18q8 -12 10 -42q0 -30 -8 -84q-9 -53 -6 -81q0 -27 18 -36t34 0q15 9 18 36q3 25 -6 83q-7 57 -8 94q-2 37 6 62t14 56l112 402l-24 12l-130 -394v0v0z" />
  </g>

</svg>
