<?xml version="1.0" standalone="no"?>
<!DOCTYPE svg PUBLIC "-//W3C//DTD SVG 1.1//EN" "http://www.w3.org/Graphics/SVG/1.1/DTD/svg11.dtd" >
<svg xmlns="http://www.w3.org/2000/svg" xmlns:xlink="http://www.w3.org/1999/xlink" version="1.1" viewBox="0 -205 1024 1024">
  <g transform="matrix(1 0 0 -1 0 819)">
   <path fill="currentColor"
d="M866 798l38 48l68 -54q3 -3 4 -12q1 -7 -16 -8h-446q-21 0 -68 -8l-16 34h436v0v0zM574 622q-27 -33 -66 -80q-40 -47 -100 -112l-14 12q58 81 98 144q39 63 72 132q72 -36 76 -42q3 -5 -2 -10q-6 -3 -20 -6q-15 -3 -44 -38v0v0zM750 712q99 -59 148 -94q45 -36 58 -62
q12 -24 6 -48q-7 -21 -26 -24q-18 -2 -30 30q-13 29 -44 68q-30 38 -120 116l8 14v0v0zM588 986l10 10q71 -43 98 -70q26 -24 32 -48q4 -21 -6 -38q-9 -19 -30 -16q-21 0 -26 30q-6 28 -20 56q-13 26 -58 76v0v0zM860 516q2 -5 2 -10q0 -3 -8 -8q-26 -5 -34 -22
q-6 -16 -36 -88q-30 -73 -80 -140q17 -24 74 -66q56 -41 106 -61q48 -21 124 -30v-18q-40 2 -62 -6q-18 -5 -36 -32q-73 39 -128 84q-54 41 -104 101q-55 -60 -136 -111q-79 -48 -194 -84l-4 14q87 37 172 94q82 56 134 121q-42 63 -68 126q-24 64 -42 140l18 4
q32 -82 58 -136q27 -54 60 -102q39 54 66 126q26 71 44 146l74 -42v0v0zM62 870h310l38 50l60 -58q12 -15 -8 -18h-182q-36 -142 -86 -268h126l32 36l54 -46q6 -6 6 -8q0 -6 -32 -26v-332l4 -44q2 -14 -16 -27q-18 -14 -36 -16v77h-140v-73q0 -18 -20 -28q-21 -12 -32 -12
l4 101v282q-33 -79 -98 -154l-10 8q57 105 102 228q46 122 86 302h-74q-22 0 -70 -8l-18 34v0v0zM192 216h140v334h-140v-334v0v0z" />
  </g>

</svg>
