<?xml version="1.0" standalone="no"?>
<!DOCTYPE svg PUBLIC "-//W3C//DTD SVG 1.1//EN" "http://www.w3.org/Graphics/SVG/1.1/DTD/svg11.dtd" >
<svg xmlns="http://www.w3.org/2000/svg" xmlns:xlink="http://www.w3.org/1999/xlink" version="1.1" viewBox="0 -205 1024 1024">
  <g transform="matrix(1 0 0 -1 0 819)">
   <path fill="currentColor"
d="M52 376h98l-20 522l48 -28q14 7 68 68l44 -48q3 -10 -12 -10q-37 -7 -98 -34l4 -126h34l20 30l36 -42q6 -10 -6 -14h-84l4 -142h20l22 34l34 -40q9 -9 0 -18h-74l4 -152h84v264l54 -22q16 -8 6 -16l-16 -10v-216h64v282h-32l-20 -22l-50 40l24 20v280l64 -28
q18 -9 10 -18l-26 -14v-70h38l24 32l40 -40q10 -13 -4 -16h-100v-138h26l24 26l46 -36q9 -10 -2 -16l-16 -14v-268h76l6 150h-20q-16 -2 -28 -10l-20 34h68l8 142h-20q-24 -4 -32 -10l-22 36h74l6 144h-20q-29 0 -40 -6l-32 32h82l30 32l52 -36q8 -9 2 -18l-26 -18l-22 -472
h32l32 42q48 -46 52 -56q4 -9 -12 -12h-510q-39 1 -74 -10l-22 36v0v0zM66 77q123 119 202 241l62 -42q9 -7 0 -16q-24 -3 -32 -6q-10 -2 -52 -46t-168 -147l-12 16v0v0zM388 294l8 12q99 -46 136 -76q35 -27 44 -54q7 -24 -4 -37q-12 -12 -30 -10q-18 1 -26 27
q-7 26 -32 56q-24 27 -96 82v0v0zM796 936q6 -3 6 -6q3 -6 -8 -12q-26 -3 -34 -30q-29 -73 -58 -140h180l24 34l64 -42q13 -10 14 -16q0 -7 -12 -10t-24 -8q-10 -6 -34 -36q-24 -27 -54 -84l-18 10l44 126h-196q-48 -103 -86 -160l-18 6q42 98 76 200q35 101 58 200l76 -32
v0v0zM800 648q6 -3 6 -6q0 -4 -6 -8l-22 -8q15 -168 42 -258q27 -88 70 -164q42 -74 124 -97v-16q-42 0 -60 -4q-16 -2 -34 -20q-48 60 -80 125q-30 66 -48 144q-16 75 -26 178q-10 -165 -32 -234t-70 -128q-45 -59 -168 -129l-8 16q84 62 132 121t72 136q23 77 32 374
l76 -22v0v0z" />
  </g>

</svg>
