<?xml version="1.0" standalone="no"?>
<!DOCTYPE svg PUBLIC "-//W3C//DTD SVG 1.1//EN" "http://www.w3.org/Graphics/SVG/1.1/DTD/svg11.dtd" >
<svg xmlns="http://www.w3.org/2000/svg" xmlns:xlink="http://www.w3.org/1999/xlink" version="1.1" viewBox="0 -36 256 256">
  <g transform="matrix(1 0 0 -1 0 220)">
   <path fill="currentColor"
d="M59 226l7 10l13 -11l-7 -6v-57l-12 -5v9h-27l-5 -46h26l6 10l14 -12l-8 -7q-2 -33 -4 -54t-7 -32.5t-20 -15.5q1 13 -21 19l1 4q18 -4 24.5 -3t9.5 28.5t4 55.5h-26l-8 -8l-10 13l6 3q4 29 6 61l12 -9h27v46h-21q-10 0 -19 -2l-9 9h48zM153 33l-12 -5v6h-45l-7 -9l-11 11
l6 6v42l18 -8l-6 -6v-29h16v55h-4q-15 0 -27 -4l-11 11h42v32h-14q-8 -13 -20 -26l-4 2q14 22 20 48l15 -8q-6 -4 -8 -9h35l8 10l14 -17h-34v-32h20l10 10l12 -17h-42v-55h17v45l20 -9l-8 -6v-38zM209 167q11 17 15 28l16 -16h-9q-28 -40 -48 -62l39 4q-5 10 -11 19l3 2
q15 -12 21 -21t-0.5 -16.5t-7.5 -3t-4 14.5q-42 -9 -49 -15l-9 16q7 -3 17.5 10.5t23.5 33.5q-25 -5 -30 -10l-10 15q6 -1 19 19t19 36l15 -10l-6 -3q-14 -21 -31 -43zM194 80l-4 -3q-13 -31 -32 -50l-3 2q8 12 15.5 29.5t8.5 31.5zM210 35q1 -19 -14 -27q-2 10 -21 13v4h19
q5 4 4 17v67l16 -9l-4 -6v-59zM219 86q21 -17 25.5 -27t-1.5 -16.5t-9 6.5t-18 35zM226 226q-6 -2 -19 -5t-34 -6l-1 5q25 6 37 12t19 10l11 -15q-7 1 -13 -1zM174 212l-8 -4q-23 -44 -96 -58l-1 4q66 20 83 57h-40l-5 -5q24 -8 19.5 -18.5t-8.5 -1t-13 16.5q-2 -1 -7.5 -6
t-20.5 -13l-2 3q33 31 46 59l16 -12l-6 -2l-13 -14h35l9 6zM83 185q14 -3 34 -3v-4q-27 -4 -33 -6z" />
  </g>

</svg>
