<?xml version="1.0" standalone="no"?>
<!DOCTYPE svg PUBLIC "-//W3C//DTD SVG 1.1//EN" "http://www.w3.org/Graphics/SVG/1.1/DTD/svg11.dtd" >
<svg xmlns="http://www.w3.org/2000/svg" xmlns:xlink="http://www.w3.org/1999/xlink" version="1.1" viewBox="0 -205 1024 1024">
  <g transform="matrix(1 0 0 -1 0 819)">
   <path fill="currentColor"
d="M322 626l54 -38h142l32 32l52 -34q8 -3 8 -12q0 -7 -30 -28v-429q0 -27 -12 -48q-13 -18 -58 -34q-7 40 -34 52q-25 10 -70 22l4 18q51 -9 72 -10t36 0q14 2 14 28v147h-162v-118l4 -99q0 -14 -18 -26q-19 -12 -38 -12l4 133v456v0v0zM370 318h162v106h-162v-106v0v0z
M370 450h162v112h-162v-112v0v0zM438 980q62 -24 70 -30q7 -5 2 -10q-6 -4 -20 -10q-13 -6 -46 -56q-33 -49 -102 -142l206 6q-33 63 -74 108l10 10q66 -46 100 -82q32 -37 34 -64q3 -27 -8 -38q-9 -13 -26 -10q-15 0 -20 22q-5 21 -10 36q-82 -9 -136 -18q-54 -6 -96 -36
l-44 66q44 14 56 38q50 75 104 210v0v0zM656 524l82 -30q9 -10 -2 -14l-30 -14v-154q99 68 154 128q57 -45 54 -54q-1 -9 -4 -8t-20 0q-15 -2 -36 -10q-19 -9 -148 -84v-135q0 -33 12 -36q12 -2 28 -2h116q23 3 34 6q9 3 16 30q6 22 10 131h20q3 -87 10 -108q5 -21 26 -33
q-6 -21 -24 -40q-15 -18 -30 -22t-42 -8h-136q-27 -1 -48 4q-21 3 -32 20q-10 16 -10 58v375v0v0zM660 992l92 -34q8 -10 -4 -16l-38 -14v-174q72 53 144 130q58 -44 56 -52q0 -9 -6 -8h-16q-13 -1 -34 -10q-18 -10 -144 -86v-100q0 -33 12 -36t28 -2h76q26 3 44 6
q15 2 22 28q5 26 8 122h20q1 -76 8 -98q8 -19 28 -32q-10 -31 -28 -46q-15 -15 -30 -18q-14 -3 -40 -6h-108q-27 -1 -48 4q-21 2 -32 20q-10 15 -10 58v364v0v0zM350 948q12 -8 -2 -16q-27 -2 -42 -34q-51 -96 -108 -200l50 -22q12 -6 -2 -18l-18 -8v-490l4 -93
q1 -17 -22 -32q-21 -13 -36 -12l4 131v504q-75 -123 -134 -180l-12 8q56 81 140 252q83 171 104 250l74 -40v0v0z" />
  </g>

</svg>
