<?xml version="1.0" standalone="no"?>
<!DOCTYPE svg PUBLIC "-//W3C//DTD SVG 1.1//EN" "http://www.w3.org/Graphics/SVG/1.1/DTD/svg11.dtd" >
<svg xmlns="http://www.w3.org/2000/svg" xmlns:xlink="http://www.w3.org/1999/xlink" version="1.1" viewBox="0 -205 1024 1024">
  <g transform="matrix(1 0 0 -1 0 819)">
   <path fill="currentColor"
d="M402 580l54 -36h346l24 38l64 -40q8 -4 8 -8q1 -6 -28 -26v-250l4 -56q0 -13 -20 -26q-18 -14 -36 -16v38h-364v-12q0 -12 -18 -24q-19 -13 -38 -14l4 106v326v0v0zM454 224h364v86h-364v-86v0v0zM454 336h364v78h-364v-78v0v0zM454 440h364v78h-364v-78v0v0zM340 856
h270v130l86 -30q6 -6 6 -8q0 -3 -6 -8l-34 -14v-70h194l40 48l56 -54q2 -3 2 -8q1 -12 -10 -12h-282v-82h136l36 42l52 -50q2 -2 8 -10q0 -9 -8 -8h-224v-84h216l40 52l62 -60q3 -6 4 -6q0 -12 -12 -12h-572q-22 0 -70 -8l-14 34h294v84h-144q-22 0 -70 -8l-14 34h228v82
h-186q-18 0 -66 -8l-18 34v0v0zM274 21q114 54 270 159l62 -36q9 -6 -2 -15q-33 1 -48 -8q-13 -6 -82 -40q-70 -32 -190 -76l-10 16v0v0zM692 152l6 16q111 -22 168 -41q55 -18 74 -40q19 -20 14 -40q-3 -18 -24 -22q-21 -3 -36 18q-16 19 -58 46q-39 28 -144 63v0v0z
M122 924l8 16q48 -22 82 -40q30 -18 48 -38q15 -20 18 -40q1 -18 -10 -32q-10 -13 -26 -10q-14 3 -22 18q-6 14 -14 32q-9 17 -26 40q-16 21 -58 54v0v0zM42 706l8 14q51 -16 84 -34q30 -17 48 -34q16 -15 20 -36q3 -21 -8 -36q-9 -14 -24 -12q-16 -1 -22 14q-6 14 -14 32
q-9 15 -26 40q-15 21 -66 52v0v0zM184 404q-17 -60 -46 -60q-30 -2 -92 0l-2 -22q39 -1 70 -8q32 -6 40 -18q9 -12 10 -42q3 -30 -8 -84q-10 -52 -8 -83q2 -27 20 -36q18 -6 36 2q15 8 18 34q3 27 -6 85q-8 57 -10 94q0 36 6 64q7 27 14 60l112 404l-20 8l-134 -398v0v0z
" />
  </g>

</svg>
