<?xml version="1.0" standalone="no"?>
<!DOCTYPE svg PUBLIC "-//W3C//DTD SVG 1.1//EN" "http://www.w3.org/Graphics/SVG/1.1/DTD/svg11.dtd" >
<svg xmlns="http://www.w3.org/2000/svg" xmlns:xlink="http://www.w3.org/1999/xlink" version="1.1" viewBox="0 -205 1048 1024">
  <g transform="matrix(1 0 0 -1 0 819)">
   <path fill="currentColor"
d="M108 896l50 -2h138l40 40l49 -38q14 -6 8 -14q-5 -6 -19 -6h-201l-51 -2zM69 768l49 -1h231l41 41l52 -39q14 -8 9 -15q-5 -5 -21 -5h-297l-51 -2zM109 636l51 -1h138l38 40l51 -38q13 -7 8 -14q-5 -6 -20 -6h-201l-51 -2zM114 508l49 -2h138l38 41l51 -38q14 -7 8 -14
q-5 -7 -19 -7h-201l-52 -2zM160 333v-193h169v193h-169zM111 325l-5 58l51 -34h159l30 30l42 -33q26 -19 14 -26q-6 -5 -23 -5v-195q0 -23 -2 -29q-6 -8 -25 -14q-18 -4 -22 3q-3 5 -1 26l1 18h-170v-22q0 -21 -3 -27q-5 -7 -24 -10q-17 -4 -21 2q-3 4 -3 19l2 8v231z
M699 948q31 -8 31 -18q-1 -10 -40 -13v-1q48 -112 127.5 -197t181.5 -119l-2 -15q-29 2 -44.5 -8t-26.5 -27q-71 53 -136.5 140.5t-109.5 205.5q-36 -112 -110.5 -206.5t-166.5 -159.5l-8 11q83 74 148 176t106 248zM776 565l36 46l54 -37q14 -8 12 -16q-2 -9 -17 -9h-146
q18 -7 14 -15q-4 -7 -30 -11v-158h132l39 47l64 -47q7 -6 6 -11q-3 -6 -18 -7h-223v-242q1 -15 -1 -20q-4 -7 -23 -16q-20 -8 -22 -6q-3 2 -2 21l2 37v226h-140l-66 -2l-15 21l88 -1h133v184h-85l-66 -2l-16 21l93 -3h197z" />
  </g>

</svg>
