<?xml version="1.0" standalone="no"?>
<!DOCTYPE svg PUBLIC "-//W3C//DTD SVG 1.1//EN" "http://www.w3.org/Graphics/SVG/1.1/DTD/svg11.dtd" >
<svg xmlns="http://www.w3.org/2000/svg" xmlns:xlink="http://www.w3.org/1999/xlink" version="1.1" viewBox="0 -36 256 256">
  <g transform="matrix(1 0 0 -1 0 220)">
   <path fill="currentColor"
d="M36 130.5q-6 -13.5 -14.5 -15.5t-11 5t10 20.5t16.5 44.5h4q1 -41 -5 -54.5zM52 242l23 -13l-8 -7v-167q0 -22 1 -36l-16 -9q1 35 1 56v124q0 29 -1 52zM97 173.5q6 -9.5 4 -17.5t-8 -8.5t-8 13t-11 33.5l3 2q14 -13 20 -22.5zM163 183h36l14 12l16 -19h-66
q-1 -26 -3 -45h50l16 13l17 -20h-73q7 -28 27 -55t51 -39v-5q-19 1 -24 -10q-26 19 -40 46t-19 63h-6q-8 -42 -29 -70t-53 -44l-2 4q26 18 42.5 42t27.5 68h-32q-10 0 -19 -2l-9 9h61q2 17 3 45h-22q-10 0 -19 -2l-9 9h50q0 34 -1 62l24 -11l-8 -8q-1 -25 -1 -43z" />
  </g>

</svg>
