<?xml version="1.0" standalone="no"?>
<!DOCTYPE svg PUBLIC "-//W3C//DTD SVG 1.1//EN" "http://www.w3.org/Graphics/SVG/1.1/DTD/svg11.dtd" >
<svg xmlns="http://www.w3.org/2000/svg" xmlns:xlink="http://www.w3.org/1999/xlink" version="1.1" viewBox="0 -200 1000 1000">
  <g transform="matrix(1 0 0 -1 0 800)">
   <path fill="currentColor"
d="M546 171q-79 -18 -110 -28q-30 -11 -42 -35l-40 53l86 16v632q3 20 -19 42l10 13l36 -33h132l16 25l44 -27q7 -6 6 -10q-1 -5 -10 -7l-18 -14v-587l44 8v-2q3 4 8 13l3 6q62 114 66 417h-35q-21 1 -38 -12l-32 32h106v246q-8 27 -23 39l8 10l81 -30q7 -4 6 -7t-9 -5
q-12 -6 -24 -18v-235h93l34 37l50 -46q6 -6 4 -10q-1 -5 -10 -7l-23 -13l-5 -334q-3 -113 -11 -154q-8 -39 -34 -65q-24 -25 -87 -35q2 17 -21 35q-36 18 -77 31v14q62 -16 98 -22q71 -1 81 58q5 21 11 154l4 337h-107q-4 -315 -78 -438q-84 -140 -213 -200l-6 11
q108 78 171 176zM182 528l7 10l35 -15l84 117h-188q-15 -1 -30 -12l-29 30h242l25 26l46 -49q3 -9 -9 -8q-21 -3 -46 -26l-81 -86l25 -10q15 -9 6 -13q-1 0 -3 -1q-17 -6 -23 -13v-77h74l31 39l64 -49q7 -6 6 -8q-1 -3 -12 -2h-163v-258q-3 -28 -16 -47q-14 -17 -68 -30
q-3 26 -23 35q-18 10 -75 24l3 15l36 -8q58 -12 80 -6q23 4 24 45v230h-105q-24 1 -42 -13l-32 33h179v87q-1 21 -22 40zM476 615h124v196h-124v-196zM600 389h-124v-206l124 21v185zM600 597h-124v-190h124v190zM83 853h15q0 -6 -1 -18q0 -11 -1 -17h243l37 37l50 -62
q2 -6 -1 -8q-2 -1 -9 1q-16 1 -27 -5q-9 -7 -19 -18q-3 -4 -17 -23q-18 -27 -32 -46l-13 6l41 98h-253v-16q-2 -38 -10 -56q-12 -22 -32 -34q-22 -11 -30 6q-11 18 7 31q17 16 30 38q16 23 22 86zM154 966l5 8q55 -22 81 -56q23 -35 18 -61q-5 -27 -23 -26q-21 2 -19 24
q2 20 -13 57q-16 33 -49 54z" />
  </g>

</svg>
