<?xml version="1.0" standalone="no"?>
<!DOCTYPE svg PUBLIC "-//W3C//DTD SVG 1.1//EN" "http://www.w3.org/Graphics/SVG/1.1/DTD/svg11.dtd" >
<svg xmlns="http://www.w3.org/2000/svg" xmlns:xlink="http://www.w3.org/1999/xlink" version="1.1" viewBox="0 -36 256 256">
  <g transform="matrix(1 0 0 -1 0 220)">
   <path fill="currentColor"
d="M128 212l21 -6l-6 -7v-6h47l6 10l15 -10l-6 -7v-12h9l12 10l15 -17h-36q0 -12 1 -23l-15 -4v5h-41q18 -14 40 -23t49 -12v-4q-18 0 -21 -11q-48 18 -73 50h-8q-12 -18 -38.5 -29.5t-55.5 -15.5l-1 4q25 6 46.5 16.5t33.5 24.5h-18q-14 0 -25 -2l-9 9h55q3 5 4 15h-22
q-28 1 -39 -2l-10 9h71v12h-20q-14 0 -27 -2l-9 9h56q0 9 -1 19zM143 174h48v12h-48v-12zM139 152h52v15h-48q-1 -10 -4 -15zM36.5 135.5q8.5 18.5 9.5 33t1 27.5t-1 31l15 -8h145l12 10l17 -17h-174v-31q-2 -52 -49 -86l-2 4q18 18 26.5 36.5zM109 246q27 -5 32 -10
t0 -12.5t-10.5 1.5t-22.5 18zM96.5 95q10.5 -5 7 -14t-12 -0.5t-28.5 19.5l2 3q21 -3 31.5 -8zM138 34q0 -7 1 -21l-16 -6q1 17 1 30v30h-66q-16 0 -26 -1l-8 8h100v11q0 19 -1 34l21 -10l-6 -6v-29h24q14 20 20 35l17 -13l-9 -3l-21 -19h44l13 12l18 -19h-106v-33z
M207 21.5q-15 13.5 -55 31.5l1 4q40 -9 55.5 -16t14.5 -20t-16 0.5zM108 48l-11 -3q-27 -21 -66 -32l-2 3q40 18 64 47z" />
  </g>

</svg>
