<?xml version="1.0" standalone="no"?>
<!DOCTYPE svg PUBLIC "-//W3C//DTD SVG 1.1//EN" "http://www.w3.org/Graphics/SVG/1.1/DTD/svg11.dtd" >
<svg xmlns="http://www.w3.org/2000/svg" xmlns:xlink="http://www.w3.org/1999/xlink" version="1.1" viewBox="0 -36 256 256">
  <g transform="matrix(1 0 0 -1 0 220)">
   <path fill="currentColor"
d="M112 186q0 -11 1 -19l-14 -5v7h-65l-6 -6l-12 14l7 4v29q0 9 -1 18l20 -10l-6 -7v-35h24v51q0 8 -1 16l20 -9l-6 -8v-50h26v32q0 9 -1 19l22 -11l-8 -6v-24zM33 117q-8 0 -15 -2l-9 9h91l11 10l14 -17h-92zM38 94h21v25h13v-25h24l6 8l16 -11l-9 -6v-37q1 -17 -17 -21
q1 8 -18 14v4q18 -3 20 -1.5t2 5.5v38h-24v-54q0 -10 1 -20l-15 -4q1 10 1 21v57h-22v-56l-14 -5q1 10 1 23v27q0 11 -1 22zM41 141q-6 0 -13 -3l-10 10h72l10 10l16 -17h-75zM142 209h36q-1 20 -16 32l3 3q20 -9 25.5 -16.5t-9.5 -18.5h42l6 11l17 -12q-11 -5 -27 -27l-3 3
l7 18h-80q-2 -17 -6 -21.5t-8.5 -5t-7 3.5t5.5 13.5t9 31.5h5zM185 181q0 -40 -15.5 -56t-45.5 -24l-1 4q27 14 36 26.5t11 28.5t1 35l22 -9zM201 98l6 10l17 -15l-9 -5q-14 -23 -30 -39q24 -17 62 -20v-6q-15 1 -15 -11q-31 7 -57 29q-36 -27 -75 -32v5q38 13 66 36
q-14 17 -25 42l-7 -3l-7 9h74zM175 57q21 25 24 34h-52q13 -20 28 -34zM144.5 140.5q-8.5 -7.5 -14 -1t1.5 11t11.5 12t5.5 15.5h4q0 -30 -8.5 -37.5zM180 153q29 16 36 27l15 -14l-8 -3q-19 -7 -44 -15zM226.5 124q7.5 -6 7.5 -13t-4 -8.5t-8.5 4.5t-11 12t-34.5 22l2 4
q41 -15 48.5 -21z" />
  </g>

</svg>
