<?xml version="1.0" standalone="no"?>
<!DOCTYPE svg PUBLIC "-//W3C//DTD SVG 1.1//EN" "http://www.w3.org/Graphics/SVG/1.1/DTD/svg11.dtd" >
<svg xmlns="http://www.w3.org/2000/svg" xmlns:xlink="http://www.w3.org/1999/xlink" version="1.1" viewBox="0 -36 256 256">
  <g transform="matrix(1 0 0 -1 0 220)">
   <path fill="currentColor"
d="M78 29.5q7 2.5 8.5 15.5t0.5 22q-30 -23 -78 -36l-1 4q51 21 75 47q-1 7 -5 13q-26 -19 -61 -29l-1 4q35 16 56 35q-4 7 -7 10q-24 -10 -50 -17l-1 6q26 9 38 16q-3 12 -15 22q-9 -5 -18 -8l-3 5q21 11 36.5 24t23.5 23l16 -15h-8l-18 -11q27 -3 19 -20q8 5 16 14l12 -14
l-8 -2q-12 -8 -33 -20q15 -13 22 -29.5t6.5 -34t-7 -29t-23.5 -16.5q1 12 -22 15v5q23 -2 30 0.5zM41 145q11 -4 17.5 -9t-0.5 -13q13 6 25 14q-9 13 -21 20q-11 -6 -21 -12zM188.5 165.5q2.5 -6.5 -2.5 -13t-10 3.5t-19 20l1 3q28 -7 30.5 -13.5zM157 138h-10q0 -19 -6 -48
t-19.5 -49.5t-31.5 -32.5l-2 3q15 15 25.5 36t15.5 48t5 43q-6 0 -16 -2l-9 9h25q0 23 -1 46l20 -9l-6 -7v-30h12l11 10l14 -17h-15h-12zM161 101v-23v-7v-22v-13q0 -12 9 -11h51q10 -1 10.5 9t0.5 21h4q1 -10 2 -18t10 -11q-7 -12 -19 -12h-63q-19 0 -18 26v91l19 -8l-6 -6
v-9v-7zM238 177l-8 -3q-15 -19 -28 -31.5t-27 -20.5l-2 3q19 17 32 36.5t17 29.5zM241 132l-8 -2q-20 -23 -33 -34t-26 -18l-2 2q18 17 31.5 33.5t22.5 32.5zM245 83l-10 -5q-14 -15 -29.5 -27t-31.5 -19l-2 3q10 7 23 19.5t21.5 23t12.5 20.5zM124 206h-37q0 -7 1 -17
l-16 -4q1 10 1 21h-27q-10 0 -19 -2l-10 9h56q0 23 -1 34l22 -9l-7 -5v-20h11l12 11zM133 215h34q0 20 -1 31l23 -9l-8 -6v-16h31l14 10l15 -17h-60q0 -5 1 -16l-16 -6q1 17 1 22h-12q-6 1 -14 -3z" />
  </g>

</svg>
