<?xml version="1.0" standalone="no"?>
<!DOCTYPE svg PUBLIC "-//W3C//DTD SVG 1.1//EN" "http://www.w3.org/Graphics/SVG/1.1/DTD/svg11.dtd" >
<svg xmlns="http://www.w3.org/2000/svg" xmlns:xlink="http://www.w3.org/1999/xlink" version="1.1" viewBox="0 -205 1024 1024">
  <g transform="matrix(1 0 0 -1 0 819)">
   <path fill="currentColor"
d="M544 612q48 66 66 118h-80q-34 0 -70 -8l-16 34h224v114q-121 -10 -200 -16l-4 20q168 25 258 44q88 18 134 40l50 -46q6 -6 6 -12q-4 -6 -8 -6q-40 4 -82 -4q-39 -6 -104 -14v-120h162l38 42l56 -54q3 -4 4 -4q0 -10 -12 -10h-204q26 -60 56 -92q29 -30 74 -56
q44 -24 118 -36v-18q-34 0 -52 -6t-32 -26q-60 30 -92 66q-33 35 -54 64q-19 29 -46 104h-16v-98l4 -64q-1 -15 -16 -26q-15 -12 -42 -14l4 90v112q-33 -69 -86 -132q-51 -61 -132 -118l-12 16q56 49 106 116v0v0zM706 496q6 -2 4 -10q-3 -6 -18 -8q-15 -3 -30 -26
q-15 -25 -30 -52h250l40 46l60 -60q3 -12 -8 -12h-144q-33 -100 -92 -172q78 -33 120 -54q40 -19 62 -41q22 -21 18 -46q-4 -21 -22 -24q-17 0 -40 20q-21 24 -56 48q-36 25 -108 67q-61 -55 -148 -91q-87 -35 -180 -52l-4 18q86 21 176 68q87 46 112 79q-98 41 -160 68
q39 66 60 112h-76q-21 0 -48 -8l-24 34h160q39 78 54 124l72 -28v0v0zM558 268q58 -22 134 -46q46 44 86 152h-160l-60 -106v0v0zM148 668h166l36 42l50 -52q7 -12 -4 -18h-124v-146h74l38 40l46 -48q12 -13 -2 -20h-156v-286l178 38l8 -18q-133 -37 -196 -56
q-64 -16 -110 -35q-44 -17 -64 -38l-44 68l182 33v294h-94q-19 0 -52 -8l-18 36h164v146h-36l-20 -6l-22 34v0v0zM74 396l10 10q54 -42 78 -66q23 -23 28 -52q6 -27 -8 -42q-13 -13 -28 -8q-14 4 -16 26q0 20 -14 52q-15 29 -50 80v0v0zM282 230q55 105 80 178l64 -38
q6 -9 -2 -12q-9 -4 -20 -4q-9 -1 -30 -26q-21 -24 -78 -108l-14 10v0v0zM24 568q56 84 110 174q53 90 110 220l70 -30q3 -6 -2 -12q-4 -3 -14 -6t-26 -26q67 -31 104 -56q35 -24 46 -44q11 -22 2 -40q-10 -19 -26 -16q-15 2 -30 26q-12 24 -36 52q-21 28 -72 62
q-39 -73 -102 -166q-64 -94 -122 -148l-12 10v0v0z" />
  </g>

</svg>
