<?xml version="1.0" standalone="no"?>
<!DOCTYPE svg PUBLIC "-//W3C//DTD SVG 1.1//EN" "http://www.w3.org/Graphics/SVG/1.1/DTD/svg11.dtd" >
<svg xmlns="http://www.w3.org/2000/svg" xmlns:xlink="http://www.w3.org/1999/xlink" version="1.1" viewBox="0 -205 1024 1024">
  <g transform="matrix(1 0 0 -1 0 819)">
   <path fill="currentColor"
d="M62 660h152v302l82 -36q8 -4 8 -8q3 -1 -2 -10l-38 -16v-232h70l34 42l48 -48q4 -3 8 -14q2 -7 -10 -8h-150v-322l144 70l8 -18q-167 -99 -226 -138q-57 -36 -86 -78l-52 60l162 84v342h-68q-21 0 -68 -8l-16 36v0v0zM628 846h218l30 34l56 -40q6 -4 6 -8q0 -6 -30 -32
v-244l4 -84q0 -12 -18 -24q-15 -10 -36 -14v56h-198q-46 -76 -98 -116q-49 -37 -100 -58l-4 14q48 32 84 68q36 35 70 92h-114v-18q1 -12 -16 -24q-18 -9 -38 -8l4 114v332l52 -40h100q29 83 46 140q70 -24 74 -30t2 -8q-1 -4 -20 -10q-18 -6 -32 -24q-15 -18 -42 -68v0v0z
M498 516h124q17 30 28 138h-152v-138v0v0zM698 654q-12 -108 -26 -138h186v138h-160v0v0zM498 680h152v140h-152v-140v0v0zM698 820v-140h160v140h-160v0v0zM370 290h302v164l82 -28q3 -8 4 -10l-6 -6l-30 -14v-106h166l36 48l58 -58q3 -2 4 -4q3 -12 -8 -12h-256v-114
l4 -97q0 -10 -20 -26q-19 -14 -38 -14l4 124v127h-236q-21 0 -50 -8l-16 34v0v0z" />
  </g>

</svg>
