<?xml version="1.0" standalone="no"?>
<!DOCTYPE svg PUBLIC "-//W3C//DTD SVG 1.1//EN" "http://www.w3.org/Graphics/SVG/1.1/DTD/svg11.dtd" >
<svg xmlns="http://www.w3.org/2000/svg" xmlns:xlink="http://www.w3.org/1999/xlink" version="1.1" viewBox="0 -205 1024 1024">
  <g transform="matrix(1 0 0 -1 0 819)">
   <path fill="currentColor"
d="M662 1006l80 -28q1 -1 2 -4q1 -4 -4 -8l-30 -16v-122h54q45 72 76 142l62 -40q6 -9 4 -12q-3 -3 -12 -2q-7 -1 -16 -4t-20 -14q-12 -13 -66 -70h134l28 28l54 -50q6 -5 6 -10q-1 -6 -16 -8q-27 -9 -60 -38l-40 -46l-14 8l44 90h-464q-3 -56 -20 -76q-18 -20 -38 -22
q-22 -1 -28 16q-6 18 10 30q15 12 34 40q15 27 22 90h20v-52h198v178v0v0zM514 758l44 -22h238l24 24l38 -28q12 -6 12 -12q1 -7 -22 -22v-56l4 -34q-3 -7 -18 -14q-12 -4 -30 -4v26h-246v-10q-1 -10 -16 -16q-15 -4 -32 -4l4 74v98v0v0zM558 638h246v74h-246v-74v0v0z
M444 600l52 -40h380l22 30l50 -38q7 -6 8 -8q0 -6 -32 -24v-100l4 -42q0 -15 -14 -24q-15 -8 -32 -10v26h-172v-62h170l32 28l44 -34q3 -3 4 -6q0 -12 -14 -12h-236v-66h212l30 34l52 -42q3 -3 4 -8q1 -9 -10 -8h-560q2 0 -46 -8l-14 32h284v66h-170q-18 0 -66 -8l-18 32
h254v62h-172v-10q0 -6 -8 -12q-12 -15 -42 -14l4 106v160v0v0zM490 396h172v140h-172v-140v0v0zM710 534v-140h172v140h-172v0v0zM458 178h20q-6 -41 -20 -73q-13 -30 -28 -48q-15 -14 -36 -20q-18 -3 -30 6t-8 24q2 12 22 24q18 9 42 26q22 18 38 61v0v0zM720 168l12 8
q51 -35 66 -55q16 -21 20 -42q2 -21 -10 -34q-11 -12 -28 -10q-18 3 -20 26q-1 25 -4 44q-3 18 -36 63v0v0zM864 170l8 12q70 -32 98 -57q28 -24 32 -48q3 -21 -8 -34q-12 -13 -26 -8q-15 6 -24 30q-6 23 -24 46q-15 25 -56 59v0v0zM558 168l12 8q34 -39 50 -61
q15 -21 18 -46q0 -20 -12 -32q-11 -12 -28 -6q-16 4 -16 26q0 19 -2 44q-4 24 -22 67v0v0zM518 514l8 10q48 -21 70 -38q20 -18 22 -38q3 -19 -8 -28q-9 -10 -24 -8q-13 3 -16 16q-1 13 -14 38q-10 24 -38 48v0v0zM742 414q27 47 60 106l50 -30q6 -5 4 -10q-3 -4 -8 -4
q-6 -1 -14 -4q-9 -1 -26 -16q-18 -15 -50 -50l-16 8v0v0zM462 964l10 10q60 -24 90 -44q30 -22 30 -46q1 -22 -12 -32q-12 -10 -26 -4q-12 3 -18 18q-3 12 -14 34q-9 21 -60 64v0v0zM286 940q13 -7 8 -14q0 -6 -12 -8q-14 -3 -28 -14q-12 -12 -68 -122h98l28 38l58 -44
q6 -6 6 -8q0 -7 -32 -34v-478l4 -82q0 -13 -18 -27t-36 -16v75h-150v-79q0 -15 -20 -30q-19 -14 -34 -14l4 123v618l58 -42h4q38 98 58 188l72 -30v0v0zM144 234h150v256h-150v-256v0v0zM144 518h150v236h-150v-236v0v0z" />
  </g>

</svg>
