<?xml version="1.0" standalone="no"?>
<!DOCTYPE svg PUBLIC "-//W3C//DTD SVG 1.1//EN" "http://www.w3.org/Graphics/SVG/1.1/DTD/svg11.dtd" >
<svg xmlns="http://www.w3.org/2000/svg" xmlns:xlink="http://www.w3.org/1999/xlink" version="1.1" viewBox="0 -205 1024 1024">
  <g transform="matrix(1 0 0 -1 0 819)">
   <path fill="currentColor"
d="M422 906q6 5 16 -4q125 -101 122 -158q0 -20 -19 -47q-16 -21 -26 -20q-10 2 -10 21q-9 95 -84 195q-5 7 1 13zM845 911q8 3 75 -33q14 -8 11 -12q-1 -6 -8 -6q-31 -1 -50 -46q-26 -56 -84 -137q-8 -14 -20 -7q-11 7 -1 23q52 93 73 210q1 7 4 8zM636 637v263
q-1 39 -4 70q-1 16 9 13q53 -17 71 -26q14 -9 -2 -16q-15 -8 -19 -18q-7 -13 -7 -23v-263h177q12 0 19 7l25 26q5 7 14 1q31 -23 53 -42q7 -8 -2 -9q-17 -3 -26 -12q-8 -9 -8 -19v-328q1 -68 8 -167q0 -13 -10 -19q-45 -26 -49 -25q-4 2 -3 18q3 34 4 82h-463q-42 -1 -73 -7
q-9 -3 -10 6q-5 18 -20 31q-8 7 -4 11q4 3 11 -1q38 -9 84 -9h476q0 24 1 51v150h-401q-42 -1 -73 -7q-9 -3 -10 6q-5 18 -20 31q-8 7 -4 11q4 3 11 -1q38 -9 84 -9h413v193h-401q-42 -1 -73 -7q-9 -3 -10 6q-5 18 -20 31q-8 7 -4 11q4 3 11 -1q38 -9 84 -9h161zM293 983
q2 17 18 7q38 -24 53 -34q11 -8 11 -14q-1 -5 -13 -6q-11 -2 -17 -6q-12 -12 -42 -76q-28 -59 -62 -123q26 -10 47 -22q13 -7 0 -13q-30 -15 -33 -22q-4 -9 -4 -70v-319q0 -125 4 -210q0 -9 -7 -10l-44 -18q-9 -2 -8 14q6 133 7 224v319q-1 33 -2 57q-4 -5 -5 -9
q-50 -81 -126 -175q-10 -10 -17 -4q-8 7 1 17q90 113 163 276q72 162 76 217z" />
  </g>

</svg>
