<?xml version="1.0" standalone="no"?>
<!DOCTYPE svg PUBLIC "-//W3C//DTD SVG 1.1//EN" "http://www.w3.org/Graphics/SVG/1.1/DTD/svg11.dtd" >
<svg xmlns="http://www.w3.org/2000/svg" xmlns:xlink="http://www.w3.org/1999/xlink" version="1.1" viewBox="0 -205 1024 1024">
  <g transform="matrix(1 0 0 -1 0 819)">
   <path fill="currentColor"
d="M448 914h402l36 44l52 -52l2 -4q0 -12 -12 -12h-222v-98h198l28 34q64 -45 62 -54q-1 -7 -16 -10q-13 -3 -34 -14q-18 -12 -56 -48l-12 6l30 62h-200v-144l4 -90q0 -16 -20 -28t-40 -12l4 138v136h-194q0 -36 -14 -62q-12 -24 -36 -32q-22 -10 -34 8q-12 17 12 38
q24 18 36 42q9 20 18 74h16l4 -44h192v98h-122q-19 0 -68 -8l-16 32v0v0zM462 680h146v-26h-146v26v0v0zM462 582h150v-26h-150v26v0v0zM748 680h142v-26h-142v26v0v0zM748 582h142v-26h-142v26v0v0zM442 456h380l40 44l54 -50q3 -3 4 -8q0 -12 -12 -12h-382q-21 0 -68 -8
l-16 34v0v0zM366 336h544l30 44l58 -52q-1 -4 2 -8q-1 -10 -10 -10h-320q-78 -87 -176 -177l366 21q-34 44 -86 92l12 12q72 -45 108 -74q33 -30 48 -57q12 -29 0 -50q-12 -22 -30 -20q-18 3 -24 24q-3 21 -18 54q-228 -23 -300 -34q-72 -12 -116 -36l-42 64q27 6 46 13
q17 6 56 52q38 44 86 116h-150q-21 0 -68 -8l-16 34v0v0zM30 754h174v228l80 -34q17 -9 2 -18l-34 -12v-164h54l30 38l42 -46q13 -15 -4 -20h-122v-118q48 -31 78 -56q31 -24 44 -50q11 -28 2 -46q-10 -20 -28 -18q-15 -1 -24 32q-6 30 -26 58q-19 26 -46 58v-436l2 -89
q0 -14 -18 -28t-36 -14l4 131v392q-36 -87 -84 -170q-46 -84 -88 -134l-10 8q33 60 72 142q36 81 66 168q27 86 42 170h-104q-18 0 -48 -8l-20 36v0v0z" />
  </g>

</svg>
