<?xml version="1.0" standalone="no"?>
<!DOCTYPE svg PUBLIC "-//W3C//DTD SVG 1.1//EN" "http://www.w3.org/Graphics/SVG/1.1/DTD/svg11.dtd" >
<svg xmlns="http://www.w3.org/2000/svg" xmlns:xlink="http://www.w3.org/1999/xlink" version="1.1" viewBox="0 -205 1024 1024">
  <g transform="matrix(1 0 0 -1 0 819)">
   <path fill="currentColor"
d="M458 762h186v206l86 -28q6 -4 6 -10q0 -3 -38 -24v-144h114l36 48q67 -58 68 -62q3 -12 -8 -12h-210q-3 -151 -12 -230h184l34 52l62 -56q3 -3 4 -8q6 -13 -8 -14h-250q24 -102 70 -182q42 -79 94 -124q48 -42 126 -61v-18q-21 1 -54 -4q-32 -2 -46 -26q-51 43 -90 93
q-37 50 -70 122t-50 196h-8q-14 -102 -58 -186t-124 -151q-79 -67 -184 -120l-6 16q81 50 154 121q72 69 112 148q39 76 54 176h-114q-21 0 -68 -8l-16 34h200q8 92 10 230h-106q-19 0 -52 -12l-28 38v0v0zM100 938l56 -42h188l28 38l58 -40q5 -6 2 -14l-28 -20v-178l4 -50
q-1 -17 -16 -28q-16 -9 -40 -8v34h-60v-182h72l34 44l56 -54q9 -10 -2 -16h-160v-210l138 40l6 -16q-264 -99 -306 -117q-42 -17 -68 -44l-46 62l74 19v372l82 -32q9 -7 0 -14l-32 -16v-298l102 30v432h-92v-10q1 -13 -16 -22q-16 -7 -38 -10l4 86v264v0v0zM150 656h202v214
h-202v-214v0v0z" />
  </g>

</svg>
