<?xml version="1.0" standalone="no"?>
<!DOCTYPE svg PUBLIC "-//W3C//DTD SVG 1.1//EN" "http://www.w3.org/Graphics/SVG/1.1/DTD/svg11.dtd" >
<svg xmlns="http://www.w3.org/2000/svg" xmlns:xlink="http://www.w3.org/1999/xlink" version="1.1" viewBox="0 -205 1024 1024">
  <g transform="matrix(1 0 0 -1 0 819)">
   <path fill="currentColor"
d="M480 736l60 -38h138v252l90 -32q9 -3 6 -12q0 -3 -6 -6l-38 -14v-188h134l44 44l56 -52q3 -4 4 -8q1 -6 -34 -32v-476l4 -87q0 -15 -18 -28q-18 -11 -36 -14v82h-352v-62q-1 -14 -22 -28q-22 -13 -34 -12l4 129v582v0v0zM532 154h146v242h-146v-242v0v0zM730 396v-242
h154v242h-154v0v0zM532 424h146v246h-146v-246v0v0zM730 670v-246h154v246h-154v0v0zM86 868q75 -78 94 -108q16 -30 14 -54q-1 -24 -14 -32q-13 -10 -26 -4q-13 4 -16 32q-1 27 -14 64q-13 33 -50 94l12 8v0v0zM278 624h86l32 46l52 -54q3 -3 4 -8q0 -10 -12 -10h-162v-76
q51 -24 96 -60q44 -33 52 -56q6 -23 -2 -40q-6 -16 -24 -14t-24 20q-7 17 -32 56q-24 39 -66 72v-346l4 -91q0 -14 -18 -26q-18 -14 -36 -14l4 129v348q-48 -114 -96 -186t-104 -138l-12 10q50 75 86 138q33 64 66 146q32 80 44 128h-100q-21 0 -56 -8l-16 34h188v360
l74 -36q3 -1 4 -2q9 -6 0 -12l-32 -18v-292v0v0zM308 668q66 134 88 212q74 -36 76 -42q1 -7 -10 -10q-10 -4 -28 -16q-19 -12 -112 -152l-14 8v0v0z" />
  </g>

</svg>
