<?xml version="1.0" standalone="no"?>
<!DOCTYPE svg PUBLIC "-//W3C//DTD SVG 1.1//EN" "http://www.w3.org/Graphics/SVG/1.1/DTD/svg11.dtd" >
<svg xmlns="http://www.w3.org/2000/svg" xmlns:xlink="http://www.w3.org/1999/xlink" version="1.1" viewBox="0 -205 1024 1024">
  <g transform="matrix(1 0 0 -1 0 819)">
   <path fill="currentColor"
d="M490 832v-122h52l28 36l50 -44q1 -7 2 -10q-1 -7 -4 -8h-128v-132h166v424l78 -34q9 -2 6 -10q0 -3 -6 -6l-30 -12v-362h170v130h-66q-25 1 -50 -10l-22 36h138v128h-82q-21 -1 -36 -8l-26 34h134l30 38l52 -44q7 -4 8 -10q0 -6 -32 -24v-232l4 -76q0 -16 -20 -28
q-21 -12 -32 -12v50h-170v-112h120l30 32q65 -48 68 -54q4 -7 -4 -10q-9 -1 -26 -10q-19 -7 -64 -68q-45 -60 -110 -114q27 -28 88 -51q61 -24 104 -36q42 -12 96 -18v-18q-31 0 -52 -10q-20 -5 -34 -26q-46 18 -88 38q-40 18 -80 42q-39 24 -72 53q-54 -34 -138 -71
q-80 -35 -238 -68l-4 18q138 40 214 76q74 33 134 75q-92 87 -136 192h-34q-22 0 -40 -6l-32 34h250v112h-166v-20q0 -12 -18 -24q-15 -8 -36 -10l4 104v308l48 -30q60 33 88 58q38 -36 44 -42q3 -4 0 -10q-2 -6 -16 -2q-15 3 -114 -24v0v0zM542 384q54 -93 138 -170
q66 50 142 170h-280v0v0zM130 670h170l36 46l56 -56q7 -12 -4 -18h-136v-140h70l34 44l54 -52q12 -12 -2 -20h-156v-284l188 44l10 -20q-142 -43 -206 -64q-64 -17 -94 -33q-30 -14 -54 -38l-48 67l158 34v294h-74q-18 0 -54 -8l-18 36h146v140h-34l-20 -6l-22 34v0v0z
M60 394l10 10q57 -42 78 -66q21 -23 28 -52q6 -27 -6 -42q-13 -13 -28 -8q-16 4 -16 26q-1 20 -16 52q-13 29 -50 80v0v0zM260 248q51 86 82 172l64 -38q3 -9 -2 -12q-6 -4 -18 -4q-11 -1 -40 -40q-27 -37 -72 -88l-14 10v0v0zM18 570q66 92 114 182q47 89 104 224l70 -34
q4 -6 0 -12q-5 -3 -16 -6q-9 -3 -26 -26q68 -30 100 -54q30 -21 40 -42t2 -38q-9 -19 -26 -16q-16 0 -28 24q-13 23 -32 50q-18 27 -68 60q-36 -73 -96 -166t-126 -156l-12 10v0v0z" />
  </g>

</svg>
