<?xml version="1.0" standalone="no"?>
<!DOCTYPE svg PUBLIC "-//W3C//DTD SVG 1.1//EN" "http://www.w3.org/Graphics/SVG/1.1/DTD/svg11.dtd" >
<svg xmlns="http://www.w3.org/2000/svg" xmlns:xlink="http://www.w3.org/1999/xlink" version="1.1" viewBox="0 -200 1000 1000">
  <g transform="matrix(1 0 0 -1 0 800)">
   <path fill="currentColor"
d="M388 259h269v134l73 -33l-18 -55v-46h116l54 46l74 -69h-244v-189q-2 -4 -15.5 -13.5t-38.5 -10.5v213h-269q-9 -68 -30 -109.5t-54 -65.5t-78 -35.5t-103 -19.5l-6 3q72 24 112 46.5t60.5 48.5t27.5 57.5t13 74.5h-177l-58 -14l-19 37h254v137l73 -30l-16 -57v-50z
M616 745v98h-207v-75q-9 -11 -27.5 -20.5t-28.5 -9.5v105h-186l-74 -13l-21 35h281v135l75 -33l-19 -60v-41h207v129l80 -33l-20 -56v-40h161l46 43l69 -66h-276v-68q-9 -7 -25.5 -17t-34.5 -13zM357 583h387l36 36l58 -40l-27 -32v-121h-500v-30q-12 -6 -23 -14t-32 -8
l-1 134q-12 -6 -34 -18t-49.5 -26.5t-59 -28t-62.5 -22.5l-3 5q50 24 101.5 60t96.5 75t78.5 76.5t47.5 64.5h-171l-74 -11l-25 35h695l62 43l75 -67h-537l63 -38l-43 -15zM311 546v-95h443v109h-414z" />
  </g>

</svg>
