<?xml version="1.0" standalone="no"?>
<!DOCTYPE svg PUBLIC "-//W3C//DTD SVG 1.1//EN" "http://www.w3.org/Graphics/SVG/1.1/DTD/svg11.dtd" >
<svg xmlns="http://www.w3.org/2000/svg" xmlns:xlink="http://www.w3.org/1999/xlink" version="1.1" viewBox="0 -205 1024 1024">
  <g transform="matrix(1 0 0 -1 0 819)">
   <path fill="currentColor"
d="M898 832l30 42l60 -46q6 -4 6 -8q0 -6 -30 -30v-72l4 -88q1 -16 -16 -28q-16 -9 -38 -12v44h-364q1 -237 -34 -372q-36 -135 -110 -229l-12 8q57 116 84 245q24 129 22 378v210l58 -42h340v0v0zM550 662h364v142h-364v-142v0v0zM624 974l8 12q57 -19 88 -38
q29 -18 38 -42q7 -23 -4 -40q-9 -19 -30 -16q-18 2 -24 26q-3 21 -18 46q-16 24 -58 52v0v0zM632 278h274v100h-274v-100v0v0zM632 404h274v98h-274v-98v0v0zM580 568l52 -40h264l30 38l52 -40q8 -3 8 -12q1 -7 -28 -26v-381q0 -32 -14 -50q-15 -18 -60 -34q-7 34 -32 46
t-86 32l4 16q66 -15 88 -18q21 -1 36 0q13 2 12 28v125h-274v-102l4 -83q0 -11 -20 -26q-19 -15 -40 -16l4 116v427v0v0zM318 970q6 -3 6 -6q2 -9 -10 -12q-13 0 -22 -12q-9 -8 -42 -100h84l26 36l52 -38q6 -3 6 -12q0 -4 -24 -26v-650q0 -31 -14 -53q-12 -21 -60 -36
q-9 33 -30 44q-22 10 -76 26l2 16q78 -13 90 -14q10 0 26 2q15 1 16 15v376h-172q0 -213 -30 -320q-31 -106 -104 -181l-12 8q48 79 76 173q27 95 22 320h-24q-25 0 -52 -6l-20 32h96v330l48 -42h48q21 108 24 154l70 -24v0v0zM176 552h172v262h-172v-262v0v0zM230 766
q45 -42 60 -72q12 -30 12 -54t-12 -32q-12 -10 -24 -2q-14 6 -12 30q1 23 -4 46q-6 21 -30 78l10 6v0v0zM226 474q45 -42 60 -72q12 -30 12 -54t-12 -32q-12 -10 -24 -2q-14 6 -12 30q1 23 -4 46q-6 21 -30 78l10 6v0v0z" />
  </g>

</svg>
