<?xml version="1.0" standalone="no"?>
<!DOCTYPE svg PUBLIC "-//W3C//DTD SVG 1.1//EN" "http://www.w3.org/Graphics/SVG/1.1/DTD/svg11.dtd" >
<svg xmlns="http://www.w3.org/2000/svg" xmlns:xlink="http://www.w3.org/1999/xlink" version="1.1" viewBox="0 -205 1024 1024">
  <g transform="matrix(1 0 0 -1 0 819)">
   <path fill="currentColor"
d="M504 400l58 -12h236l28 32l46 -38q11 -7 14 -14q0 -6 -24 -24v-184l4 -93q1 -15 -16 -24q-16 -9 -40 -12v70h-254v-34q0 -12 -20 -24q-18 -12 -38 -12l4 133v236h2v0v0zM556 125h254v239h-254v-239v0v0zM566 808l-8 -14q60 -99 126 -180q36 42 64 90q26 47 50 104h-232v0
v0zM654 936q6 -3 4 -8q1 0 -4 -6q-23 -3 -34 -18q-12 -13 -42 -74h216l32 40l64 -42q7 -6 6 -8q1 -7 -16 -14q-15 -6 -24 -18l-28 -48t-44 -72q-24 -36 -66 -86q26 -25 62 -50q36 -24 82 -48q45 -24 136 -44v-14q-39 -3 -60 -8q-19 -6 -38 -32q-54 32 -108 76
q-54 45 -102 90q-48 -46 -114 -94q-66 -49 -186 -106l-8 14q95 62 158 110q60 45 118 108q-66 90 -114 180q-72 -129 -126 -182l-12 8q48 78 96 184q45 105 76 202l76 -40v0v0zM70 770l50 -34h86v234l76 -28q12 -6 4 -18l-26 -16v-172h66l26 36l56 -38q12 -9 4 -14l-24 -22
v-222l4 -56q3 -15 -14 -26q-15 -12 -42 -14v46h-76v-254l98 22q-20 45 -52 90l12 12q71 -64 92 -92q18 -27 24 -48q4 -20 -4 -35q-7 -14 -22 -16q-16 -3 -22 6q-7 7 -8 20q0 12 -12 43q-157 -45 -212 -67t-86 -44l-38 58l176 41v264h-84v-52q0 -13 -18 -16q-19 -3 -38 -12
l4 76v348v0v0zM122 450h84v262h-84v-262v0v0zM260 712v-262h76v262h-76v0v0z" />
  </g>

</svg>
