<?xml version="1.0" standalone="no"?>
<!DOCTYPE svg PUBLIC "-//W3C//DTD SVG 1.1//EN" "http://www.w3.org/Graphics/SVG/1.1/DTD/svg11.dtd" >
<svg xmlns="http://www.w3.org/2000/svg" xmlns:xlink="http://www.w3.org/1999/xlink" version="1.1" viewBox="0 -205 1024 1024">
  <g transform="matrix(1 0 0 -1 0 819)">
   <path fill="currentColor"
d="M450 900q6 -4 0 -10q1 -6 -10 -8q-21 2 -48 -16q-28 -19 -130 -88t-212 -120l-6 16q81 51 184 130q101 76 160 140l62 -44v0v0zM648 962q6 -1 6 -4t-6 -8l-14 -14q42 -55 90 -94q47 -36 110 -66q60 -28 154 -34l2 -18q-48 -5 -60 -16q-13 -9 -28 -30q-68 33 -118 66
q-51 33 -110 96q-61 63 -88 132l62 -10v0v0zM680 780l58 -36q6 -3 6 -12q1 -3 -22 -20l-6 -44q-10 -72 -16 -96q-6 -25 -26 -46q-21 -18 -68 -36q-7 27 -28 42q-21 12 -90 34l6 16q72 -15 102 -18q29 -4 40 4q8 6 14 18q5 12 14 78l6 60h-214q-39 -81 -98 -138
q-61 -57 -124 -90q-64 -30 -170 -60l-6 16q92 36 146 66q53 29 110 86q55 57 80 120h-68q-28 0 -52 -8l-22 32h402l26 32v0v0zM236 406h226v112l80 -28q5 -4 8 -10q0 -3 -2 -6l-30 -18v-50h226l28 38l64 -44q3 -4 4 -8q0 -4 -30 -26v-88l4 -50q0 -13 -18 -22q-16 -7 -40 -10
v32h-238v-129l284 18q-42 29 -84 59l10 14q54 -18 106 -48q50 -25 70 -49q20 -23 22 -44q3 -18 -8 -28q-10 -9 -22 -10t-24 10q-9 10 -18 28q-7 18 -28 44q-639 -53 -668 -62q-27 -9 -54 -24l-40 70l398 18v133h-234v-32q0 -9 -18 -18q-16 -9 -38 -12l4 80v190l60 -30v0v0z
M228 254h234v126h-234v-126v0v0zM518 380v-126h238v126h-238v0v0z" />
  </g>

</svg>
