<?xml version="1.0" standalone="no"?>
<!DOCTYPE svg PUBLIC "-//W3C//DTD SVG 1.1//EN" "http://www.w3.org/Graphics/SVG/1.1/DTD/svg11.dtd" >
<svg xmlns="http://www.w3.org/2000/svg" xmlns:xlink="http://www.w3.org/1999/xlink" version="1.1" viewBox="0 -205 1024 1024">
  <g transform="matrix(1 0 0 -1 0 819)">
   <path fill="currentColor"
d="M562 646q7 -7 2 -16l-18 -8q-18 -12 -54 -48h270l38 38l48 -36q13 -6 14 -14q0 -6 -32 -30v-114l4 -90q0 -12 -20 -24q-18 -12 -36 -12v28h-224q-30 -78 -66 -126q-36 -44 -114 -91t-188 -80l-4 16q93 40 160 82q63 38 102 89q39 47 60 110h-156v-22q0 -9 -18 -18
q-19 -10 -38 -10l4 146v190l58 -32h112q18 45 34 94l62 -22v0v0zM348 346h162q9 29 18 88h-180v-88v0v0zM578 434q-9 -52 -18 -88h218v88h-200v0v0zM348 460h182q2 54 4 88h-186v-88v0v0zM586 548q-3 -47 -6 -88h198v88h-192v0v0zM570 300l68 -20q7 -3 8 -6q3 -6 -6 -12
l-22 -6v-151q-1 -23 14 -26q12 -3 24 -4h206q23 3 34 8q9 3 16 30q6 27 10 131h20q3 -89 10 -109q8 -22 26 -32q-16 -39 -38 -54q-22 -14 -56 -14h-230q-28 0 -50 6q-19 6 -28 20q-6 15 -6 50v189v0v0zM644 152l30 10q53 75 68 120l60 -28q3 -9 -2 -14q-18 -1 -30 -8
q-9 -6 -20 -18q-10 -12 -52 -62l128 20q-16 23 -28 38l10 10q36 -21 58 -38q20 -19 22 -39q3 -21 -8 -30q-9 -9 -24 -6q-12 2 -14 16q0 15 -8 31q-54 -10 -90 -23q-36 -12 -60 -28l-40 49v0v0zM846 708l38 44l60 -54l2 -6q0 -9 -8 -8h-728v-96q-1 -178 -28 -310
q-25 -128 -128 -239l-12 12q75 104 96 229q24 125 22 284v182l62 -38h624v0v0zM462 824l8 10q46 -18 68 -30q21 -12 30 -30q10 -19 2 -34q-10 -16 -28 -16q-19 0 -22 18t-14 36q-12 15 -44 46v0v0zM334 982l84 -28q6 -3 6 -8q-1 -3 -40 -26v-40h252v100l82 -34q3 -5 4 -10
q1 -2 -34 -22v-34h190l40 48l60 -62q3 -1 4 -8q-1 -6 -16 -6h-278v-50q0 -12 -12 -20q-9 -6 -18 -8q-10 -3 -22 -2v80h-252v-54q0 -12 -8 -18l-18 -10q-9 -3 -24 -2v84h-198q-22 -1 -70 -10l-18 38h286v102v0v0z" />
  </g>

</svg>
