<?xml version="1.0" standalone="no"?>
<!DOCTYPE svg PUBLIC "-//W3C//DTD SVG 1.1//EN" "http://www.w3.org/Graphics/SVG/1.1/DTD/svg11.dtd" >
<svg xmlns="http://www.w3.org/2000/svg" xmlns:xlink="http://www.w3.org/1999/xlink" version="1.1" viewBox="0 -36 256 256">
  <g transform="matrix(1 0 0 -1 0 220)">
   <path fill="currentColor"
d="M162 196l12 8l16 -15h-55v-16h40l13 9l16 -16h-69v-20h74l15 9l18 -16h-192q-10 0 -19 -2l-9 9h98v20h-35q-10 0 -19 -2l-9 9h63v16h-28q-10 0 -19 -2l-9 9h98zM121.5 89.5q-2.5 -8.5 -8.5 -1.5t-15 15t-24 17q-11 -14 -26.5 -24t-29.5 -14l-1 3q16 10 28.5 21t17.5 19
h-12l-7 -3l-10 10h32l5 6l13 -8l-7 -5q33 -14 40 -20.5t4.5 -15zM129 84q23 18 37 40h-10l-8 -4l-9 11h29l7 8l14 -8l-5 -4q22 -22 52 -29v-3q-10 -2 -15 -10q-25 14 -41 37q-18 -26 -49 -41zM232 16h-72q-11 0 -21 -2l-10 9h43v26h-1q-11 0 -20 -3l-11 10h32v25h-1
q-9 0 -16 -2l-10 9h46l10 8l14 -15h-29v-25h9l11 8l14 -15h-34v-26h19l12 8zM123 17h-70q-11 0 -20 -2l-11 9h43v26h-1q-11 0 -22 -2l-10 9h33v25h-1q-9 0 -18 -3l-8 10h46l10 8l14 -15h-29v-25h9l10 8l15 -15h-34v-26h17l12 10zM106 234q-13 0 -22 -1l-10 8h47l7 7l14 -10
l-6 -4q19 -13 48.5 -22t59.5 -9v-3q-15 -2 -19 -11q-29 5 -52.5 16t-40.5 26q-23 -20 -54.5 -30.5t-65.5 -13.5v4q30 5 58.5 16.5t45.5 26.5h-10z" />
  </g>

</svg>
