<?xml version="1.0" standalone="no"?>
<!DOCTYPE svg PUBLIC "-//W3C//DTD SVG 1.1//EN" "http://www.w3.org/Graphics/SVG/1.1/DTD/svg11.dtd" >
<svg xmlns="http://www.w3.org/2000/svg" xmlns:xlink="http://www.w3.org/1999/xlink" version="1.1" viewBox="0 -205 1024 1024">
  <g transform="matrix(1 0 0 -1 0 819)">
   <path fill="currentColor"
d="M34 736q135 102 240 228l60 -38q7 -9 -4 -14q-24 -3 -38 -12q-13 -6 -64 -50q-52 -45 -184 -128l-10 14v0v0zM358 774q9 -6 4 -6q4 -3 -6 -8q-23 -1 -46 -26q-21 -23 -78 -88v-216l4 -80q3 -15 -18 -26q-19 -13 -34 -10l4 110v180q-64 -66 -148 -126l-12 14
q99 90 160 166q60 72 114 154l56 -38v0v0zM340 648q85 129 164 306l62 -30q12 -8 0 -16q-18 -2 -32 -16q-12 -14 -38 -58q51 -16 76 -32q24 -15 36 -36q10 -18 2 -36q-6 -18 -24 -18q-18 -1 -26 22q-6 21 -18 40q-12 18 -56 46q-54 -94 -134 -182l-12 10v0v0zM674 672
q8 -4 8 -8q3 -3 -2 -8l-24 -14v-42h174l32 42q52 -49 56 -58q3 -6 -14 -8h-248v-176q54 -9 114 -8q60 -1 144 2l84 6v-20q-45 -4 -62 -16q-18 -10 -36 -34q-111 6 -206 18q-97 12 -154 48q-56 36 -100 108q-28 -57 -62 -96q-33 -36 -102 -78l-8 12q65 57 104 126
q38 69 50 186l74 -26q13 -9 -4 -18l-20 -8l-22 -70q42 -54 72 -80q30 -27 84 -44v280l68 -16v0v0zM630 708q43 71 122 250l62 -30q12 -8 0 -16q-18 -2 -30 -16q-13 -15 -40 -62q71 -28 112 -56q39 -27 48 -48q10 -21 2 -38q-6 -16 -24 -16q-16 0 -26 24q-8 23 -34 52
q-24 30 -90 66q-36 -66 -90 -120l-12 10v0v0zM220 274q-3 -90 -18 -126q-16 -34 -34 -55q-18 -19 -36 -26q-18 -9 -30 -6q-9 3 -18 14q-7 10 -2 22q2 12 32 30q29 17 50 41q21 21 36 106h20v0v0zM792 284q63 -34 106 -62q42 -27 58 -54q15 -24 16 -41q-1 -17 -10 -28
q-9 -12 -24 -10q-13 1 -26 34q-12 28 -42 65q-28 33 -86 84l8 12v0v0zM360 248v-113q-1 -45 8 -48q10 -6 32 -4h248q31 -1 44 10q12 9 16 26q3 16 6 27q0 9 4 94h20l6 -82q10 -43 38 -53q-7 -27 -32 -48q-24 -16 -68 -20h-300q-27 1 -48 10q-21 12 -24 54v209l82 -32
q7 -5 2 -10q-2 -4 -34 -20v0v0zM470 348q84 -48 112 -80q25 -30 20 -56q-7 -24 -28 -26q-21 -4 -30 20q-7 24 -16 48t-66 82l8 12v0v0z" />
  </g>

</svg>
