<?xml version="1.0" standalone="no"?>
<!DOCTYPE svg PUBLIC "-//W3C//DTD SVG 1.1//EN" "http://www.w3.org/Graphics/SVG/1.1/DTD/svg11.dtd" >
<svg xmlns="http://www.w3.org/2000/svg" xmlns:xlink="http://www.w3.org/1999/xlink" version="1.1" viewBox="0 -36 256 256">
  <g transform="matrix(1 0 0 -1 0 220)">
   <path fill="currentColor"
d="M195 225l16 11l16 -18h-115q-11 0 -20 -2l-10 9h113zM178 192l2 3q38 -25 41.5 -35t-2.5 -18.5t-10 1t-9 18.5q-86 -8 -96 -17l-9 18q11 2 26.5 20.5t21.5 37.5l18 -13q-4 -1 -19 -17.5t-27 -26.5q43 1 82 4q-7 11 -19 25zM145 110q0 34 -1 44l22 -9l-7 -6v-29h30l12 12
l16 -19h-58v-44h51l13 13l17 -20h-138q-10 0 -20 -2l-9 9h72v44h-21q-11 0 -20 -2l-9 9h50zM34 238q26 -16 30 -26.5t-3.5 -20.5t-10.5 6.5t-19 37.5zM48 153l8 10l15 -13l-8 -7v-83q15 -16 32 -22.5t62.5 -7.5t90.5 5v-5q-18 -4 -19 -16q-81 0 -107 4.5t-39.5 14t-20.5 17
t-18.5 -4t-19.5 -24.5l-15 13q13 11 40 26v86h-10q-9 0 -20 -3l-10 10h39z" />
  </g>

</svg>
