<?xml version="1.0" standalone="no"?>
<!DOCTYPE svg PUBLIC "-//W3C//DTD SVG 1.1//EN" "http://www.w3.org/Graphics/SVG/1.1/DTD/svg11.dtd" >
<svg xmlns="http://www.w3.org/2000/svg" xmlns:xlink="http://www.w3.org/1999/xlink" version="1.1" viewBox="0 -36 256 256">
  <g transform="matrix(1 0 0 -1 0 220)">
   <path fill="currentColor"
d="M40 237l17 -8h156l13 12l19 -19h-189v-89q0 -29 -8.5 -59.5t-35.5 -62.5l-3 2q17 27 24.5 58.5t7.5 59.5v74q0 14 -1 32zM159 136h-74q-10 0 -20 -2l-9 9h28v32q-5 0 -15 -2l-9 9h24q0 22 -1 37l23 -8l-8 -6v-23h18q0 22 -1 37l21 -9l-6 -5v-23h2l9 9l15 -16h-26v-32h3
l10 10zM192 80q13 27 17 77h-34q6 -48 17 -77zM98 143h18v32h-18v-32zM89 119h37l6 8l15 -9l-6 -7v-76q0 -14 -19 -19q-2 11 -20 15v3q13 -1 19 -1t6 7v21h-38v-41l-15 -7q1 27 1 58t-1 55zM89 94h38v18h-38v-18zM89 68h38v19h-38v-19zM166.5 169q6.5 24 10.5 51l22 -9
l-7 -5q-8 -20 -16 -42h41l13 10l16 -17h-22q-5 -58 -25 -91q10 -14 22.5 -23.5t25.5 -13.5v-3q-16 -1 -21 -11q-22 19 -35 41q-9 -11 -23 -22t-35 -22l-2 3q19 14 31.5 26.5t21.5 26.5q-11 36 -14 84q-9 -23 -17 -33l-4 1q11 25 17.5 49z" />
  </g>

</svg>
