<?xml version="1.0" standalone="no"?>
<!DOCTYPE svg PUBLIC "-//W3C//DTD SVG 1.1//EN" "http://www.w3.org/Graphics/SVG/1.1/DTD/svg11.dtd" >
<svg xmlns="http://www.w3.org/2000/svg" xmlns:xlink="http://www.w3.org/1999/xlink" version="1.1" viewBox="0 -36 256 256">
  <g transform="matrix(1 0 0 -1 0 220)">
   <path fill="currentColor"
d="M61 179l19 -9l-5 -7v-8l8 2l6 10l7 -5l9 17h-68q0 -31 -2 -83.5t-23 -86.5h-4q13 35 15 90t1 95l12 -8h30q0 45 -1 60l19 -8l-6 -7v-16h19l12 9l13 -16h-44v-22h26l10 9l12 -15q-9 -2 -28 -20l5 -5l-28 -7v-13q0 -8 6 -8h16q5 0 8.5 2.5t12.5 -2.5q-3 -9 -18 -10h-23
q-15 0 -15 17v12q-11 -2 -15 -7l-8 9l23 5q0 14 -1 26zM122 70l3 -2q-14 -21 -27 -45l-11 9q3 4 3 14v42v7l-1 9l20 -11l-7 -6v-40zM151 246l21 -4l-5 -7q7 -28 10 -34l44 6l9 10l16 -14l-68 -9q5 -15 14 -28q15 11 23 26l12 -15l-7 -3q-7 -6 -20 -17q7 -9 16.5 -14.5
t11.5 -2t7 32.5h5q-3 -32 3.5 -41t-3 -9.5t-24 5t-28.5 21.5q-32 -20 -68 -27l-1 3q35 12 62 34q-9 14 -15 34l-30 -7l-5 -4l-8 9l41 8q-3 8 -13 47zM209.5 229q7.5 -5 3 -14.5t-10 0t-19.5 21.5l2 3q17 -5 24.5 -10zM200 128l-8 -8v-39h22l12 11l15 -18h-49v-50h27l13 11
l15 -18h-115q-8 0 -18 -2l-10 9h38v43q0 20 -1 41l20 -9l-6 -9v-66h25v78q0 19 -1 38zM70 92q0 -34 -10 -52t-31 -28l-1 3q19 15 24.5 37.5t3.5 56.5l20 -9z" />
  </g>

</svg>
