<?xml version="1.0" standalone="no"?>
<!DOCTYPE svg PUBLIC "-//W3C//DTD SVG 1.1//EN" "http://www.w3.org/Graphics/SVG/1.1/DTD/svg11.dtd" >
<svg xmlns="http://www.w3.org/2000/svg" xmlns:xlink="http://www.w3.org/1999/xlink" version="1.1" viewBox="0 -205 1024 1024">
  <g transform="matrix(1 0 0 -1 0 819)">
   <path fill="currentColor"
d="M660 482l72 -26q9 -3 6 -14q0 -1 -30 -14v-140q74 72 118 124q57 -40 54 -46q-1 -7 -4 -8q-4 -1 -22 -2q-18 0 -132 -80q81 -22 130 -46q48 -24 64 -44q16 -22 12 -41q-4 -18 -22 -22q-19 -3 -32 18q-12 19 -48 53q-35 32 -118 68v-149q0 -43 -18 -62q-19 -17 -56 -26
q-4 29 -32 46q-27 14 -66 28l6 16q50 -12 68 -16q17 -3 34 0q18 2 16 34v139q-112 -67 -148 -94q-36 -25 -60 -55l-44 53l252 122v184v0v0zM480 384l6 12q68 -23 92 -40q21 -18 22 -38q0 -22 -12 -28q-12 -7 -24 -2q-11 5 -16 20q-4 12 -16 30q-13 18 -52 46v0v0zM714 644
q9 -6 10 -8q0 -6 -26 -18q39 -43 82 -82q42 -36 96 -72q53 -33 134 -36v-16q-41 -4 -58 -10q-15 -7 -24 -28q-51 21 -98 64q-45 40 -80 80q-36 39 -66 90q-51 -72 -132 -144q-82 -72 -160 -116l-10 12q75 57 150 138q72 78 126 172l56 -26v0v0zM400 872h256v110l76 -24
q8 -2 8 -4q3 -6 -2 -12l-32 -14v-56h174l32 42l60 -54q9 -12 -6 -14h-260v-58q88 -22 152 -46q63 -24 90 -48q24 -25 22 -46q-1 -18 -16 -24q-16 -6 -34 12q-19 17 -44 38q-23 18 -64 46q-41 27 -106 48v-36q1 -12 -4 -20q-16 -18 -46 -18v128q-42 -66 -114 -128
q-70 -61 -140 -100l-8 14q71 57 128 118q54 60 90 120h-144q-20 0 -52 -8l-16 34v0v0zM310 792l34 42l54 -48q3 -3 4 -8q0 -12 -12 -12h-310q-18 1 -42 -10l-24 36h296v0v0zM62 652h206l32 42l54 -48q2 -3 2 -8q0 -12 -12 -12h-192q-37 0 -68 -8l-22 34v0v0zM74 432l60 -44
h138l28 34l58 -38q6 -6 6 -8q0 -6 -32 -30v-152l4 -81q1 -12 -16 -24q-15 -12 -36 -16v81h-160v-61q0 -18 -18 -30q-18 -13 -36 -14l4 119v264v0v0zM124 180h160v182h-160v-182v0v0zM106 972l10 10q85 -49 104 -76t18 -48q0 -22 -12 -32q-13 -11 -28 -6q-16 3 -20 22
q-2 19 -10 44q-6 25 -62 86v0v0zM62 520h206l30 42l56 -48q2 -3 2 -8q0 -12 -12 -12h-206q-34 0 -58 -8l-18 34v0v0z" />
  </g>

</svg>
