<?xml version="1.0" standalone="no"?>
<!DOCTYPE svg PUBLIC "-//W3C//DTD SVG 1.1//EN" "http://www.w3.org/Graphics/SVG/1.1/DTD/svg11.dtd" >
<svg xmlns="http://www.w3.org/2000/svg" xmlns:xlink="http://www.w3.org/1999/xlink" version="1.1" viewBox="0 -205 1024 1024">
  <g transform="matrix(1 0 0 -1 0 819)">
   <path fill="currentColor"
d="M380 920h448l38 48l58 -56q3 -3 4 -8q0 -10 -12 -10h-278q-49 -69 -88 -116h244l30 32l46 -38q9 -6 10 -12q-1 -4 -28 -22v-100l4 -46q-1 -16 -20 -28q-16 -12 -32 -12v42h-260v-22q-1 -13 -16 -26q-15 -10 -38 -10l4 92v96q-72 -67 -138 -110l-10 12q78 72 136 138
q57 66 96 130h-120q-33 0 -56 -8l-22 34v0v0zM544 620h260v132h-260v-132v0v0zM304 484h228l38 48l58 -56q3 -3 4 -8q0 -10 -12 -10h-140q-43 -84 -74 -132h132l30 32l44 -38q9 -6 10 -12q-1 -4 -28 -22v-139l4 -62q0 -15 -18 -28q-16 -10 -32 -12v58h-132v-38
q-1 -12 -16 -24q-12 -12 -36 -12l4 108v143q-54 -72 -96 -102l-10 10q54 75 96 142q41 65 70 128h-64q-11 0 -40 -8l-20 34v0v0zM416 129h132v171h-132v-171v0v0zM644 484h256l38 48l58 -56q3 -3 4 -8q0 -10 -12 -10h-162q-46 -81 -76 -132h140l30 32l44 -38q9 -6 10 -12
q-1 -4 -28 -22v-143l4 -62q0 -16 -18 -26q-16 -13 -32 -14v58h-140v-38q-1 -12 -16 -24q-12 -12 -36 -12l4 108v147q-63 -78 -96 -102l-10 10q50 69 92 138q41 69 70 132h-64q-11 0 -40 -8l-20 34v0v0zM760 125h140v175h-140v-175v0v0zM32 760h154v232l84 -32q9 -5 4 -10
q-4 -5 -40 -22v-168h60l34 40l54 -52q8 -14 -10 -16h-138v-194l116 56l10 -16l-126 -78v-377q3 -32 -14 -56q-18 -21 -62 -36q-4 35 -34 48q-29 15 -82 30l4 18q96 -24 118 -18q21 5 22 28v325q-48 -29 -68 -46q-21 -15 -32 -38l-52 52l152 82v220h-78q-34 -1 -52 -10
l-24 38v0v0z" />
  </g>

</svg>
