<?xml version="1.0" standalone="no"?>
<!DOCTYPE svg PUBLIC "-//W3C//DTD SVG 1.1//EN" "http://www.w3.org/Graphics/SVG/1.1/DTD/svg11.dtd" >
<svg xmlns="http://www.w3.org/2000/svg" xmlns:xlink="http://www.w3.org/1999/xlink" version="1.1" viewBox="0 -36 256 256">
  <g transform="matrix(1 0 0 -1 0 220)">
   <path fill="currentColor"
d="M66 14l-15 -7q1 19 1 36v79q-20 -24 -40 -40l-3 4q19 22 41 55t26 47l18 -17l-8 -2q-6 -8 -20 -30v-125zM86 232l-9 -3q-36 -49 -61 -65l-3 4q19 21 34.5 44.5t19.5 34.5zM155 226.5q-4 6.5 -17 17.5l1 3q24 -6 30.5 -13t0 -15.5t-8.5 -3.5t-6 11.5zM217 211l8 11l17 -17
q-8 1 -27 -21l-5 2l9 18h-109q0 -11 -7.5 -17t-12.5 0.5t1 10t10 10.5t5 14h5v-11h106zM166 172h36l10 11l15 -18h-62l-3 -7q29 -4 43.5 -10t10 -19.5t-13 -1t-41.5 26.5q-6 -11 -21 -20t-41 -14l-1 5q22 8 34 17.5t17 22.5h-17q-10 0 -19 -2l-9 9h47q3 16 2 30l24 -10
l-9 -5zM113 57h44v30h-44v-30zM196 29.5q6 0.5 6 11.5v70h-91q-10 0 -19 -2l-9 9h139l11 12l15 -19h-32v-75q0 -20 -20 -28q-1 14 -29 16v6q23 -1 29 -0.5zM99 101l16 -7h42l8 8l14 -11l-8 -7v-36l-14 -8v10h-44v-6l-14 -4v61z" />
  </g>

</svg>
