<?xml version="1.0" standalone="no"?>
<!DOCTYPE svg PUBLIC "-//W3C//DTD SVG 1.1//EN" "http://www.w3.org/Graphics/SVG/1.1/DTD/svg11.dtd" >
<svg xmlns="http://www.w3.org/2000/svg" xmlns:xlink="http://www.w3.org/1999/xlink" version="1.1" viewBox="0 -36 256 256">
  <g transform="matrix(1 0 0 -1 0 220)">
   <path fill="currentColor"
d="M87 76q0 -23 1 -37l-14 -6v15h-39v-17l-14 -6q1 20 1 30v139q0 19 -1 35l15 -7h37l8 9l13 -13l-7 -8v-134zM35 166h39v49h-39v-49zM35 111h39v48h-39v-48zM35 55h39v49h-39v-49zM106 126q0 21 -1 37l13 -8h22l7 9l12 -12l-6 -6v-31q0 -6 1 -19l-13 -6v9h-23v-7l-13 -5
q1 18 1 39zM118 106h23v42h-23v-42zM166 76l1 -4q-61 -23 -67 -30l-8 17q10 0 74 17zM168 248l20 -11l-6 -8v-39h36l14 13l16 -20h-66q0 -47 7 -88q8 12 15.5 34t9.5 35l20 -16l-9 -6q-18 -45 -29 -65q10 -25 35 -43l13 43l4 -2q-7 -49 -3 -67q-17 5 -32.5 20t-26.5 36
q-31 -39 -71 -56l-2 3q44 30 66 67q-10 43 -10 105h-50q-10 0 -19 -2l-9 9h78v28q0 16 -1 30zM196 238q20 -8 27 -14t2 -17t-10 0.5t-21 27.5z" />
  </g>

</svg>
