<?xml version="1.0" standalone="no"?>
<!DOCTYPE svg PUBLIC "-//W3C//DTD SVG 1.1//EN" "http://www.w3.org/Graphics/SVG/1.1/DTD/svg11.dtd" >
<svg xmlns="http://www.w3.org/2000/svg" xmlns:xlink="http://www.w3.org/1999/xlink" version="1.1" viewBox="0 -36 256 256">
  <g transform="matrix(1 0 0 -1 0 220)">
   <path fill="currentColor"
d="M174 234l-6 -4q10 -14 30.5 -29t49.5 -19v-4q-15 -2 -21 -11q-24 14 -38.5 28t-25.5 32q-16 -21 -35.5 -36t-44.5 -25l-2 4q21 11 40 29.5t33 46.5zM146 199q23 -6 28 -13t-0.5 -14.5t-10 2.5t-19.5 22zM151 104l23 -8l-8 -8v-18h31l11 11l18 -18h-60v-35h46l13 12
l18 -19h-139q-11 0 -20 -2l-9 9h77v35h-28q-11 0 -20 -2l-9 9h57q0 23 -1 34zM204 114q-8 11 -25 26l2 3q26 -14 35 -22t10.5 -14t-3.5 -12t-8 0t-8 14q-41 -3 -64.5 -6t-31.5 -8l-9 18q10 3 24.5 17t20.5 26h-28q-10 0 -19 -2l-10 9h113l11 11l18 -18h-79l13 -10
q-5 -2 -19 -13t-29 -21q43 0 86 2zM22 9q1 42 1 119t-1 107l16 -9h38l7 9l15 -13l-6 -5q-13 -23 -28 -52q16 -13 23 -26t5.5 -25.5t-8.5 -19.5t-22 -11q-1 13 -21 18v4q12 -2 23 -2.5t13 8t-0.5 21.5t-19.5 33l20 54h-40v-202z" />
  </g>

</svg>
