<?xml version="1.0" standalone="no"?>
<!DOCTYPE svg PUBLIC "-//W3C//DTD SVG 1.1//EN" "http://www.w3.org/Graphics/SVG/1.1/DTD/svg11.dtd" >
<svg xmlns="http://www.w3.org/2000/svg" xmlns:xlink="http://www.w3.org/1999/xlink" version="1.1" viewBox="0 -205 1024 1024">
  <g transform="matrix(1 0 0 -1 0 819)">
   <path fill="currentColor"
d="M802 848l36 46l70 -54q3 -3 4 -6q7 -12 -10 -12h-684q-21 0 -68 -8l-16 34h668v0v0zM672 812l58 -34q6 -3 10 -8q3 -4 -2 -10q-31 -7 -52 -28q-19 -22 -70 -86h282l38 46l62 -52q3 -4 4 -8q0 -12 -12 -12h-448v-110h274l38 44q72 -55 72 -62q-1 -6 -2 -8q-1 -1 -20 -2
h-362v-44l2 -56q0 -16 -20 -28q-19 -12 -38 -14l4 82v60h-308q-24 0 -44 -6l-22 34h374v110h-362q-33 3 -68 -8l-16 34h542q43 72 86 166v0v0v0zM298 800l10 12q71 -35 98 -64q26 -30 26 -48q1 -18 -10 -30t-28 -8q-17 3 -22 24q-3 20 -18 50q-15 27 -56 64v0v0zM416 986
l6 12q53 -19 86 -40q30 -19 36 -40q7 -18 -4 -36q-9 -16 -30 -14t-26 26q-3 23 -20 44q-15 21 -48 48v0v0zM214 366l56 -40h482l28 38l58 -36q12 -6 12 -14q-1 -3 -34 -30v-145l4 -72q0 -12 -14 -24q-16 -11 -40 -16v52h-502v-26q0 -13 -20 -26q-19 -12 -34 -10l4 100v249v0
v0zM264 109h502v187h-502v-187v0v0z" />
  </g>

</svg>
