<?xml version="1.0" standalone="no"?>
<!DOCTYPE svg PUBLIC "-//W3C//DTD SVG 1.1//EN" "http://www.w3.org/Graphics/SVG/1.1/DTD/svg11.dtd" >
<svg xmlns="http://www.w3.org/2000/svg" xmlns:xlink="http://www.w3.org/1999/xlink" version="1.1" viewBox="0 -205 1024 1024">
  <g transform="matrix(1 0 0 -1 0 819)">
   <path fill="currentColor"
d="M865 481q6 0 12 7l36 41q7 7 14 0q26 -26 44 -48q11 -14 4 -24q-5 -6 -18 -7h-280q42 -125 78 -180q36 -56 88 -96q45 -44 114 -63q8 -2 18 -6q6 -1 5 -8q0 -6 -6 -7q-17 -3 -35 -13q-20 -13 -30 -23q-4 -4 -13 0q-78 57 -117 102q-39 44 -64 98q-35 73 -57 194l-1 2h-7
q-21 -105 -67 -178q-51 -76 -111 -127q-61 -51 -164 -100q-17 -6 -20 4q-3 12 10 18q104 57 164 117q53 53 93 129q30 58 46 137h-190q-27 0 -61 -7q-5 -1 -6 2q-13 19 -23 35q-6 10 7 7q61 -5 68 -6h45v245q0 55 -7 101q-1 12 3 13q5 2 12 -7q11 -14 39 -36h135v51
q-1 80 -5 128q-1 18 9 14q56 -18 77 -30q11 -8 1 -12q-31 -17 -32 -21q-3 -12 -2 -79v-51h95q6 1 10 5l23 26q6 8 13 2q33 -24 61 -49q7 -5 1 -9q-29 -19 -30 -22q-3 -6 -3 -22v-247h24zM655 481h138v285h-122v-43q0 -142 -16 -242zM623 723v43h-134v-285h117q2 8 3 15
q14 100 14 227zM146 946q5 6 17 -1q138 -72 148 -126q4 -20 -9 -50q-10 -24 -22 -25q-10 0 -13 19q-28 91 -119 170q-6 7 -2 13zM380 301q14 9 18 0q6 -11 -7 -18q-93 -81 -165 -190q-8 -11 -14 1q-13 24 -35 42q-9 7 -2 13q30 26 30 48v437h-53q-42 -1 -73 -7q-9 -3 -10 6
q-5 18 -20 31q-8 7 -4 11q4 3 11 -1q38 -9 84 -9h38q6 1 10 5l23 26q6 8 13 2q33 -24 61 -49q9 -8 -1 -11q-17 -3 -24 -13t-7 -29v-392q64 57 127 97z" />
  </g>

</svg>
