<?xml version="1.0" standalone="no"?>
<!DOCTYPE svg PUBLIC "-//W3C//DTD SVG 1.1//EN" "http://www.w3.org/Graphics/SVG/1.1/DTD/svg11.dtd" >
<svg xmlns="http://www.w3.org/2000/svg" xmlns:xlink="http://www.w3.org/1999/xlink" version="1.1" viewBox="0 -36 256 256">
  <g transform="matrix(1 0 0 -1 0 220)">
   <path fill="currentColor"
d="M208 204h-161q2 -17 -3 -24t-16 -6t-5 8t11 15t8 25h4l1 -11h79q0 16 -16 34l2 2q26 -10 29.5 -18.5t-6.5 -17.5h72l9 12l20 -18q-18 -2 -34 -24l-3 2zM67 146h30v19h-30v-19zM111 146h32v19h-32v-19zM156 146h28v19h-28v-19zM67 117h30v22h-30v-22zM111 117h32v22h-32
v-22zM156 117h28v22h-28v-22zM68 172h29q0 12 -1 27l22 -9l-7 -5v-13h32q0 9 -1 26l23 -8l-9 -5v-13h27l9 11l14 -13l-8 -5v-32q0 -8 1 -25l-15 -6v8h-117v-4l-14 -4q1 20 1 40.5t-1 36.5zM99 76v-50l42 18l2 -4q-46 -26 -54 -35l-11 13q8 5 7 16v32q-33 -26 -73 -39l-2 4
q33 17 50 30t27 24h-42q-10 0 -20 -2l-9 9h193l14 13l18 -20h-105q8 -14 24 -27q26 13 37 26l15 -16h-8q-19 -7 -39 -15q16 -9 36.5 -14t37.5 -5v-5q-20 -2 -21 -13q-22 6 -48 21.5t-41 47.5h-19q-5 -4 -11 -9z" />
  </g>

</svg>
