<?xml version="1.0" standalone="no"?>
<!DOCTYPE svg PUBLIC "-//W3C//DTD SVG 1.1//EN" "http://www.w3.org/Graphics/SVG/1.1/DTD/svg11.dtd" >
<svg xmlns="http://www.w3.org/2000/svg" xmlns:xlink="http://www.w3.org/1999/xlink" version="1.1" viewBox="0 -36 256 256">
  <g transform="matrix(1 0 0 -1 0 220)">
   <path fill="currentColor"
d="M167 165v28l12 -4q27 7 41 16l14 -15l-11 1q-21 -4 -43 -7v-22l24 6l1 -3q-24 -12 -31 -20l-11 12q4 4 4 8zM75.5 157.5q6.5 0.5 5.5 8.5v22h-23q-2 -12 -10.5 -27t-32.5 -27l-3 3q18 15 24 28.5t7 22.5q-7 0 -16 -2l-10 9h64l5 7l15 -9l-6 -5v-25q1 -16 -19 -21
q-2 7 -7 9t-12 3v5q12 -2 18.5 -1.5zM46 36.5q-15 -18.5 -35 -28.5l-3 4q16 12 24 24t12 24.5t4 29.5v52l23 -8l-8 -5v-42q-2 -32 -17 -50.5zM196 144l21 -10l-7 -8v-112l-14 -6v136zM210 219l15 13l18 -20h-189q-13 0 -22 -3l-10 10h188zM137 147l-16 -4q1 13 1 24t-1 22
l11 -4q16 13 25 27l18 -14h-10q-14 -8 -29 -16l8 -4l-7 -2v-29zM234 147q-29 17 -37 43l4 1q5 -7 17.5 -17t29.5 -11v-4q-10 -2 -14 -12zM97 209q20 -5 24.5 -10t-1 -12t-9.5 1.5t-15 17.5zM103 248q21 -5 29.5 -9.5t3 -13.5t-9.5 -0.5t-25 20.5zM155 136l12 10l16 -17h-80
q-9 0 -20 -3l-8 10h80zM107 110q-4 1 -15 -2l-10 9h73l10 8l14 -15h-72zM162 99l13 9l17 -16h-93q-21 1 -24 -3l-9 10h96zM111.5 41.5q-1.5 7.5 -11.5 18.5l3 2q14 -5 18.5 -10.5t-2 -11.5t-8 1.5zM166 80l15 -11l-8 -3q-32 -39 -102 -51l-4 4q57 13 87 45h-48
q-17 -11 -39 -21l-3 4q31 19 50 45l19 -9l-10 -1l-11 -11h46z" />
  </g>

</svg>
