<?xml version="1.0" standalone="no"?>
<!DOCTYPE svg PUBLIC "-//W3C//DTD SVG 1.1//EN" "http://www.w3.org/Graphics/SVG/1.1/DTD/svg11.dtd" >
<svg xmlns="http://www.w3.org/2000/svg" xmlns:xlink="http://www.w3.org/1999/xlink" version="1.1" viewBox="0 0 2048 2048">
  <g transform="matrix(1 0 0 -1 0 2048)">
   <path fill="currentColor"
d="M1681 551h76l99 101l120 -107q10 -10 14 -15q5 -6 2 -18q-3 -11 -12 -15q-8 -4 -14 -4h-980q-31 0 -64 -3q-34 -2 -46 -3t-14 -1l-25 -4l-39 86l54 -8q28 -3 39 -4t45 -3q33 -2 50 -2h71v934q-58 -2 -86 -4l-26 -2q-26 -2 -27 -2l-24 -4l-39 86q26 -4 53 -7q26 -4 46 -6
t39 -2l64 -2v189q0 71 -2.5 105t-2.5 41l-2 14l109 -24q50 -12 67 -21q16 -9 18 -23q1 -14 -13 -27q-14 -12 -36 -17l-42 -11v-226h432v193q0 57 -3 99q-3 41 -3 47l-2 14l109 -24q49 -11 66 -21q18 -9 20 -23q1 -14 -13 -26t-37 -18l-41 -11v-230h38l99 102l120 -107
q8 -8 14 -15q5 -8 2 -19q-3 -10 -11 -14t-15 -4h-247v-934zM1585 551v293h-432v-293h432zM1153 1483v-261h432v261h-432zM1153 898h432v268h-432v-268zM1542 405l48 -24l60 -31q36 -18 68 -38q33 -21 79 -54q46 -34 75 -61t38 -48q10 -21 8 -45q-1 -24 -18 -40t-38 -15
q-16 0 -26 7q-9 7 -19 22l-50 72q-22 29 -46 57t-51 53q-28 26 -60 50q-33 25 -58 42l-30 19zM1165 451l114 -62q12 -8 21 -15q10 -7 12 -18q1 -11 -6 -20q-7 -8 -35 -9l-49 -3q-15 -13 -21 -19l-58 -54q-30 -28 -55 -48q-26 -20 -66 -44t-74 -41q-34 -18 -70 -34
q-37 -16 -66 -26l-34 -12l-15 36l43 24q26 13 48 26t62 42q39 28 62 48t60 58t54 58q16 20 36 49t24 38zM472 728l72 -58q37 -29 76 -66q39 -36 76 -84q37 -47 58 -92q22 -46 21.5 -78.5t-17.5 -49.5q-16 -18 -36 -17q-25 0 -38 19q-14 20 -25 64t-42 106q-31 61 -59 100
t-57 70l-39 41l-38 -107q-22 -60 -66 -140q-44 -79 -109 -158q-65 -78 -122 -129l-38 -35l-24 27l57 67q33 40 86 120t99 183t75 239q30 135 35 206l6 77h-176q-34 0 -65 -3l-45 -3q-13 -1 -15 -1l-24 -4l-39 86q26 -5 47 -8q20 -3 40 -5q19 -2 50 -3q32 -2 51 -2h176v429
h-135q-11 -27 -22 -49t-62 -101q-50 -79 -70 -102l-56 -65l-26 24l54 94q29 49 56 106q27 56 62 154t51 162l26 134l12 60l110 -38q35 -13 51 -28q15 -14 14 -26q-2 -12 -16 -22q-15 -11 -37 -11h-43l-30 -101q-14 -47 -23 -70l-26 -64h286l93 95l108 -84q12 -10 22 -23
q11 -13 10 -23q-2 -13 -12 -17q-9 -5 -15 -5h-287v-429h131l92 95l109 -84q19 -16 26 -24t5 -22q-3 -13 -11 -17q-9 -5 -16 -5h-336q-4 -49 -6 -72l-12 -92q-8 -69 -12 -83z" />
  </g>

</svg>
