<?xml version="1.0" standalone="no"?>
<!DOCTYPE svg PUBLIC "-//W3C//DTD SVG 1.1//EN" "http://www.w3.org/Graphics/SVG/1.1/DTD/svg11.dtd" >
<svg xmlns="http://www.w3.org/2000/svg" xmlns:xlink="http://www.w3.org/1999/xlink" version="1.1" viewBox="0 -205 1024 1024">
  <g transform="matrix(1 0 0 -1 0 819)">
   <path fill="currentColor"
d="M381 354q13 6 16 -4q4 -10 -11 -17q-122 -64 -219 -104q-40 -16 -52 -35q-6 -9 -10 -10q-4 0 -8 7q-14 25 -36 41q-13 10 -12 13q2 4 12 5q61 15 131 37v355h-37q-42 -1 -73 -7q-8 -3 -11 6q-4 18 -19 30q-7 7 -4 11q4 3 11 -1q38 -8 84 -8h49v227q-1 39 -4 70
q-1 16 9 13q53 -17 71 -26q14 -9 -2 -16q-15 -8 -19 -18q-7 -13 -7 -23v-227h40q6 0 12 7l36 41q7 7 14 0q26 -26 44 -48q11 -14 4 -24q-5 -6 -18 -7h-132v-337q91 33 141 49zM803 952l25 26q5 7 14 1q31 -23 53 -42q7 -8 -2 -9q-17 -3 -26 -12q-8 -9 -8 -19v-312
q1 -68 8 -167q0 -13 -10 -19q-45 -26 -49 -25q-4 2 -3 18q5 58 6 164v358h-316v-323q-1 -107 0 -182q-1 -15 -38 -40q-8 -4 -12 -4q-6 1 -5 20q4 100 7 206v296q-1 32 -7 78q-2 10 1 11q1 0 40 -31h303q12 0 19 7zM655 362q7 45 8 91q0 5 -4 5q-5 1 -6 -3q-4 -34 -8 -65
q-1 0 0 -1q-1 -2 -2 -9q-28 -89 -83 -153q-75 -86 -274 -177q-19 -9 -23 1q-5 11 7 17q155 77 234 156q67 69 92 166q28 107 27 306q-1 79 -5 127q-2 16 10 13q54 -17 72 -27q14 -8 1 -14q-19 -11 -23 -20q-7 -18 -7 -79q-1 -115 -8 -194q50 -16 68 -25q14 -9 -2 -16
q-15 -8 -19 -18q-7 -13 -7 -23v-285q1 -12 2 -16q2 -4 17 -4h140q17 2 24 6q32 18 47 156q1 14 14 13q13 -2 12 -17q-19 -124 14 -148q6 -4 2 -10q-23 -39 -92 -42h-166q-43 0 -52 12q-10 12 -10 37v240z" />
  </g>

</svg>
