<?xml version="1.0" standalone="no"?>
<!DOCTYPE svg PUBLIC "-//W3C//DTD SVG 1.1//EN" "http://www.w3.org/Graphics/SVG/1.1/DTD/svg11.dtd" >
<svg xmlns="http://www.w3.org/2000/svg" xmlns:xlink="http://www.w3.org/1999/xlink" version="1.1" viewBox="0 -36 256 256">
  <g transform="matrix(1 0 0 -1 0 220)">
   <path fill="currentColor"
d="M25 7q1 28 1 122t-1 117l14 -9h33l8 9l13 -14l-6 -5q-13 -24 -25 -55q15 -14 21 -28t5 -26.5t-8 -20t-20 -11.5q-1 13 -18 18v4q10 -1 19.5 -1.5t12 8.5t-0.5 22.5t-18 34.5l17 58h-33v-215zM133 177v19h-4q-8 -30 -42 -48l-1 3q26 22 32 45h-8l-6 -7l-12 10l6 4
q0 15 -1 23l17 -7l-5 -6v-10h10q3 12 4 29h-4q-10 -1 -19 -3l-9 10h48l8 8l13 -15h-25q-3 -23 -5 -29h11l7 7l13 -15h-17v-21l23 8l1 -3q-23 -13 -30 -24l-9 12q4 3 4 10zM166 227l18 -7l-6 -6v-11h14q3 10 3 29h-3q-10 -1 -19 -3l-9 10h48l9 8l13 -15h-26q-1 -17 -4 -29h17
l8 8l13 -15h-28v-19q0 -6 5 -8h6q5 2 6 6.5t2 13.5h3q1 -10 3 -13.5t7 -5.5q-4 -10 -16 -10h-16q-11 0 -11 11v24q-10 -30 -50 -44l-1 3q31 19 39 42h-13l-5 -5l-11 8l5 5q0 13 -1 23zM135 80q12 -4 17 -9t0.5 -13t-7.5 1.5t-11 17.5zM131 108h69v18h-69v-18zM133 133h66
l6 8l13 -11l-6 -6q0 -20 1 -28l-13 -3v8h-69v-6l-13 -4q1 11 1 25t-1 24zM159 47h-10q-10 0 -19 -2l-9 9h49q9 19 10 26l15 -7q-6 -2 -8.5 -4.5t-12.5 -14.5h17l10 10l12 -17h-42q0 -22 1 -31l-14 -3q1 15 1 34zM98 53q0 24 -1 41l14 -6h108l6 9l14 -10l-7 -8v-53
q0 -13 -16 -18q-1 11 -21 17v4q11 -2 17.5 -2.5t6.5 3.5v51h-108v-68l-14 -5q1 21 1 45zM213 150l9 10l14 -17h-112q-10 0 -19 -2l-9 9h117z" />
  </g>

</svg>
