<?xml version="1.0" standalone="no"?>
<!DOCTYPE svg PUBLIC "-//W3C//DTD SVG 1.1//EN" "http://www.w3.org/Graphics/SVG/1.1/DTD/svg11.dtd" >
<svg xmlns="http://www.w3.org/2000/svg" xmlns:xlink="http://www.w3.org/1999/xlink" version="1.1" viewBox="0 -36 256 256">
  <g transform="matrix(1 0 0 -1 0 220)">
   <path fill="currentColor"
d="M199 150l-15 -4v6h-53v-21h82l13 11l17 -18h-198q-11 0 -20 -2l-10 9h102v21h-37q-11 0 -20 -2l-10 9h67v21h-62q-10 0 -20 -2l-9 9h91v20h-36q-11 0 -20 -2l-10 9h66q0 21 -1 30l22 -8l-7 -7v-15h53l6 10l15 -10l-7 -7v-20h11l12 11l16 -18h-39q0 -14 1 -30zM184 207
h-53v-20h53v20zM184 180h-53v-21h53v21zM49.5 86q-6.5 -6 -13 -6t-7.5 5t10 11.5t20 26.5l4 -1q-7 -30 -13.5 -36zM110.5 102.5q6.5 -8.5 -0.5 -17.5t-10 5.5t-13 27.5l2 2q15 -9 21.5 -17.5zM219.5 105.5q8.5 -8.5 2.5 -18.5t-11.5 4.5t-20.5 28.5l2 3q19 -9 27.5 -17.5z
M164.5 101.5q5.5 -7.5 -0.5 -16t-10 5t-14 27.5l2 2q17 -11 22.5 -18.5zM119 95l23 -9l-8 -7v-12h57l12 11l17 -18h-86v-35h79l15 12l17 -19h-203q-11 0 -20 -2l-10 9h108v35h-57q-11 0 -20 -2l-10 9h87q0 9 -1 28z" />
  </g>

</svg>
