<?xml version="1.0" standalone="no"?>
<!DOCTYPE svg PUBLIC "-//W3C//DTD SVG 1.1//EN" "http://www.w3.org/Graphics/SVG/1.1/DTD/svg11.dtd" >
<svg xmlns="http://www.w3.org/2000/svg" xmlns:xlink="http://www.w3.org/1999/xlink" version="1.1" viewBox="0 -205 1024 1024">
  <g transform="matrix(1 0 0 -1 0 819)">
   <path fill="currentColor"
d="M742 576h74v208h-74v-208v0v0zM742 330h74v220h-74v-220v0v0zM618 576h76v208h-76v-208v0v0zM618 330h76v220h-76v-220v0v0zM498 576h72v208h-72v-208v0v0zM498 330h72v220h-72v-220v0v0zM446 248h18q0 -90 -14 -127q-15 -36 -30 -54q-16 -17 -32 -22q-15 -4 -30 0
q-14 3 -16 18q-1 15 10 26q9 10 24 22q15 13 36 35q18 21 34 102v0v0zM530 240l12 8q45 -37 70 -74q24 -34 24 -63q-1 -26 -16 -38t-30 -6q-16 7 -16 34q1 28 -6 59q-9 32 -38 80v0v0zM838 242l10 12q80 -54 110 -90q29 -35 32 -61q4 -26 -10 -38q-15 -12 -30 -6
q-15 3 -20 30q-6 27 -24 63q-16 36 -68 90v0v0zM530 878q-19 -28 -40 -68h392l38 42l56 -50q1 -4 2 -10q0 -7 -8 -8h-102v-208h38l36 38l52 -48q5 -13 -10 -16h-116v-220h46l34 46l56 -50q3 -4 4 -10q0 -12 -12 -12h-586q-13 0 -58 -8l-16 34h114v218h-24q-24 -1 -44 -10
l-26 36h94v176q-48 -66 -90 -108l-10 10q60 92 90 158q30 63 70 156l70 -42q3 -7 -2 -10q-4 -3 -16 -6q-12 0 -32 -30v0v0zM704 236l12 8q45 -37 70 -74q24 -34 24 -63q-1 -26 -16 -38t-30 -6q-16 7 -16 34q1 28 -6 59q-9 32 -38 80v0v0zM84 924l58 -44h110l28 40l62 -42
q9 -10 -2 -22l-22 -18v-560l4 -130q0 -11 -18 -25q-15 -15 -36 -18v75h-136v-71q0 -12 -20 -28q-19 -13 -32 -14l4 189v668v0v0zM132 206h136v198h-136v-198v0v0zM132 430h136v208h-136v-208v0v0zM132 664h136v190h-136v-190v0v0z" />
  </g>

</svg>
