<?xml version="1.0" standalone="no"?>
<!DOCTYPE svg PUBLIC "-//W3C//DTD SVG 1.1//EN" "http://www.w3.org/Graphics/SVG/1.1/DTD/svg11.dtd" >
<svg xmlns="http://www.w3.org/2000/svg" xmlns:xlink="http://www.w3.org/1999/xlink" version="1.1" viewBox="0 -205 1024 1024">
  <g transform="matrix(1 0 0 -1 0 819)">
   <path fill="currentColor"
d="M509 377h134v151h-134v-151zM461 694h-110v-409q-1 -54 -1 -102h111v511zM509 183h134v163h-134v-163zM691 183h106v511h-106v-511zM643 694h-134v-135h134v135zM296 745q-2 10 1 11q4 2 14 -8q13 -12 32 -27v4h427q12 0 19 7l25 26q5 7 14 1q31 -23 53 -42q7 -7 1 -10
q-29 -21 -32 -24q-5 -3 -5 -6v-402q-2 -72 4 -178q1 -8 -6 -9q-20 -10 -39 -17q-7 -3 -7 12v69h-447q0 -33 1 -63q-1 -10 -8 -13q-37 -17 -44 -17q-4 1 -3 20q4 100 7 206v382q-1 32 -7 78zM220 741q0 -323 -24 -450q-31 -139 -124 -239q-13 -11 -20 -1q-7 11 2 18
q32 45 53 87q65 141 65 540v133q-1 38 -10 78q-1 8 3 11q5 1 12 -6q14 -14 36 -27h350q-18 67 -48 101q-7 8 -3 15q6 9 19 -1q78 -50 78 -74q-3 -22 -21 -41h259q13 0 23 12l35 41q9 8 16 1q26 -28 45 -53q11 -15 8 -24q-3 -7 -18 -8h-736v-113z" />
  </g>

</svg>
