<?xml version="1.0" standalone="no"?>
<!DOCTYPE svg PUBLIC "-//W3C//DTD SVG 1.1//EN" "http://www.w3.org/Graphics/SVG/1.1/DTD/svg11.dtd" >
<svg xmlns="http://www.w3.org/2000/svg" xmlns:xlink="http://www.w3.org/1999/xlink" version="1.1" viewBox="0 -205 1024 1024">
  <g transform="matrix(1 0 0 -1 0 819)">
   <path fill="currentColor"
d="M42 632h152v322l84 -40q3 -3 4 -6q3 -1 -2 -10l-36 -14v-252h42l34 42l48 -48q4 -3 8 -14q2 -7 -10 -8h-122v-302l134 54l8 -18q-157 -83 -208 -112q-48 -29 -78 -70l-52 66l146 60v322h-68q-21 0 -68 -8l-16 36v0v0zM378 304h236v146l78 -32q8 -3 8 -12q0 -1 -6 -4
l-30 -16v-82h152l40 48l62 -58q3 -4 4 -10q1 -7 -16 -8h-242v-181h206l44 53l70 -65q3 -3 4 -10t-16 -6h-588q-22 1 -70 -10l-18 38h318v181h-148q-21 0 -68 -8l-20 36v0v0zM354 880h500l44 52l64 -62q3 -4 4 -8t-10 -8h-208v-132h92l34 38l60 -46q6 -4 6 -8q0 -6 -32 -30
v-146l4 -76q-1 -11 -16 -22q-16 -9 -40 -14v44h-400q2 -31 -10 -40q-12 -8 -42 -10l4 114v230l54 -34h86v132h-116q-21 0 -62 -8l-16 34v0v0zM458 490h90v204h-90v-204v0v0zM598 490h100v204h-100v-204v0v0zM748 490h108v204h-108v-204v0v0zM698 722v132h-100v-132h100v0v0z
" />
  </g>

</svg>
