<?xml version="1.0" standalone="no"?>
<!DOCTYPE svg PUBLIC "-//W3C//DTD SVG 1.1//EN" "http://www.w3.org/Graphics/SVG/1.1/DTD/svg11.dtd" >
<svg xmlns="http://www.w3.org/2000/svg" xmlns:xlink="http://www.w3.org/1999/xlink" version="1.1" viewBox="0 -205 1024 1024">
  <g transform="matrix(1 0 0 -1 0 819)">
   <path fill="currentColor"
d="M402 708h456l30 40l54 -46q3 -3 4 -8q-9 -12 -20 -12h-446q-20 0 -58 -8l-20 34v0v0zM490 644l58 -32h248l30 30l52 -42q6 -4 6 -8q-1 -6 -28 -26v-74l4 -54q-1 -5 -16 -16q-15 -12 -38 -14v40h-266v-8q1 -19 -16 -28q-16 -7 -38 -8l4 94v146v0v0zM540 474h266v112h-266
v-112v0v0zM438 400l54 -32h358l30 40l60 -44q3 -3 4 -6q0 -6 -30 -30v-199l4 -52q-1 -9 -16 -22q-13 -11 -38 -14v42h-376v-22q-1 -8 -16 -20q-15 -13 -38 -14l4 108v265v0v0zM488 107h170v113h-170v-113v0v0zM708 107h156v113h-156v-113v0v0zM488 246h170v96h-170v-96v0v0z
M708 342v-96h156v96h-156v0v0zM60 612h248l26 34l60 -40q16 -11 -6 -22q-24 -6 -42 -36q-42 -60 -80 -114v-20l8 -6q93 -33 112 -60q16 -25 8 -44q-7 -18 -22 -18q-13 -2 -22 12q-7 11 -14 26q-6 14 -24 32q-16 18 -46 34v-267l4 -50q0 -14 -18 -28q-18 -12 -36 -18l4 84
v277q-66 -70 -168 -130l-10 10q96 80 138 130q40 50 62 80q22 27 68 108h-178q-24 0 -48 -8l-24 34v0v0zM166 782l8 10q74 -36 94 -60t22 -42q0 -16 -8 -28q-10 -14 -28 -12q-17 2 -22 28q-6 26 -20 52q-16 26 -46 52v0v0zM330 978l76 -28q7 -4 2 -10q1 0 -28 -20v-52h264
v106l76 -28q3 -3 4 -8q-4 -6 -28 -18v-52h178l40 48l60 -62q3 -1 4 -8q-1 -6 -16 -6h-266v-54q0 -12 -12 -20q-9 -6 -18 -8q-10 -3 -22 -2v84h-264v-54q0 -12 -8 -18l-18 -10q-9 -3 -24 -2v84h-198q-22 -1 -70 -10l-18 38h286v110v0v0z" />
  </g>

</svg>
