<?xml version="1.0" standalone="no"?>
<!DOCTYPE svg PUBLIC "-//W3C//DTD SVG 1.1//EN" "http://www.w3.org/Graphics/SVG/1.1/DTD/svg11.dtd" >
<svg xmlns="http://www.w3.org/2000/svg" xmlns:xlink="http://www.w3.org/1999/xlink" version="1.1" viewBox="0 -36 256 256">
  <g transform="matrix(1 0 0 -1 0 220)">
   <path fill="currentColor"
d="M135 84v113q0 23 -1 44l21 -12l-7 -7v-57h10l9 10l14 -18h-33v-84l25 24l3 -3q-22 -30 -36 -52l-11 15q6 1 6 27zM182 201q0 22 -1 44l21 -12l-7 -6v-65q20 15 32 31l13 -16q-22 -9 -45 -21v-84q-1 -13 8 -12h18q8 1 8 10.5v37.5h5q-1 -38 14 -43q-5 -15 -21 -18h-26
q-19 -1 -19 19v135zM70 198q0 29 -1 48l23 -11l-8 -5v-32h14l9 10l15 -17h-38v-40h23l10 12l16 -19h-54l17 -8l-7 -6v-28h11l10 11l15 -18h-36v-49q24 -15 65.5 -17t93.5 4v-4q-15 -4 -18 -16q-25 -1 -64 0.5t-69 15.5t-50 37q-7 -30 -36 -58l-4 2q20 27 27 56.5t6 57.5
l21 -9l-6 -7q-2 -17 -5 -36q11 -11 25 -19v91h-32q-10 0 -19 -2l-9 9h55v40h-13q-10 0 -19 -2l-9 9h41z" />
  </g>

</svg>
