<?xml version="1.0" standalone="no"?>
<!DOCTYPE svg PUBLIC "-//W3C//DTD SVG 1.1//EN" "http://www.w3.org/Graphics/SVG/1.1/DTD/svg11.dtd" >
<svg xmlns="http://www.w3.org/2000/svg" xmlns:xlink="http://www.w3.org/1999/xlink" version="1.1" viewBox="0 -36 256 256">
  <g transform="matrix(1 0 0 -1 0 220)">
   <path fill="currentColor"
d="M21 170q0 31 -1 64l14 -8h48l11 10l13 -17h-37v-27h10l10 10l12 -17h-32v-27h9l10 9l12 -16h-31v-28l20 1l7 8l12 -13l-6 -5q-4 -62 -6.5 -74t-8.5 -19t-15 -10q-1 13 -24 18v4q21 -3 26.5 -2.5t8.5 14.5t6 72l-55 -2v-5l-14 -3q1 32 1 63zM34 192h22v27h-22v-27zM34 158
h22v27h-22v-27zM34 122l22 1v28h-22v-29zM17 91h4q4 -20 2 -28.5t-6 -12t-7.5 -0.5t2 12t5.5 29zM30 94q9 -10 12.5 -17.5t2 -13t-6.5 -7.5t-4.5 9.5t-5.5 27.5zM45 100q19 -16 21 -22.5t0 -10.5t-6.5 -4.5t-5 8t-10.5 26.5zM65 105q12 -10 15 -17t2.5 -11.5t-5 -7t-6 6.5
t-10.5 27zM136 33h38v21h-38v-21zM121 205h47v21h-13q-12 0 -23 -3l-9 10h82l11 10l15 -17h-50v-21h48l7 8l13 -16q-9 0 -21 -18l-3 1l5 18h-49v-39l-13 -5v44h-47q0 -14 -5.5 -19t-12.5 -0.5t2.5 10.5t11.5 26h4v-10zM155 182v-7h-31v7h31zM223 182v-7h-31v7h31zM223 158
v-7h-31v7h31zM148 137q-7 -10 -11 -17h41q-1 8 -3.5 15.5t-8.5 13.5l2 3q13 -7 20.5 -14.5t-4.5 -17.5h30l12 11l15 -18h-54v-23h22l11 11l14 -18h-47v-22h21l11 10l14 -17h-46v-21h29l12 11l15 -18h-107v-13l-14 -6q1 19 1 35v53q-8 -11 -22 -23l-2 3q12 17 23 38t16 38
h-14v7h30v-7h-15l15 -9zM136 90h38v23h-38v-23zM136 61h38v22h-38v-22z" />
  </g>

</svg>
