<?xml version="1.0" standalone="no"?>
<!DOCTYPE svg PUBLIC "-//W3C//DTD SVG 1.1//EN" "http://www.w3.org/Graphics/SVG/1.1/DTD/svg11.dtd" >
<svg xmlns="http://www.w3.org/2000/svg" xmlns:xlink="http://www.w3.org/1999/xlink" version="1.1" viewBox="0 -200 999 1000">
  <g transform="matrix(1 0 0 -1 0 800)">
   <path fill="currentColor"
d="M100 775l71 -47h32v160h-67l-64 -12l-16 34h333l49 45l61 -67h-145v-160h43l31 45l55 -46l-31 -41v-657q-15 -19 -28.5 -24t-20.5 -5v100h-256v-71q-8 -9 -21 -18.5t-26 -9.5v774zM540 776l71 -47h33v160h-67l-58 -12l-23 34h342l45 41l60 -63h-148v-160h42l35 45l52 -46
l-32 -41v-657q-15 -19 -28 -24t-21 -5v100h-255v-71q-8 -9 -21.5 -18.5t-26.5 -9.5v774zM306 453v251l-52 1q-1 -71 -5 -133.5t-14.5 -115.5t-31 -95t-54.5 -72v-15h254v141q-7 -2 -16.5 -3t-17.5 -1q-22 0 -40 9t-23 33zM694 705q-1 -69 -4.5 -136t-14 -124t-30 -101
t-51.5 -68h249v140q-7 -2 -17 -2.5t-18 -0.5q-19 0 -30 5.5t-17.5 14.5t-9 20t-4.5 23v229h-53zM588 123h255v131h-255v-131zM147 122h256v130h-256v-130zM147 689v-383q16 21 27 54.5t17.5 75.5t9.5 90t3 98q0 20 -0.5 40.5t-1.5 39.5h-47zM588 689v-405q15 21 26 58.5
t17.5 83.5t10 97.5t3.5 101.5q0 20 -0.5 40.5t-1.5 39.5h-47zM354 704v-219q-1 -1 -1 -12q0 -15 13 -15q5 0 6 1h31v245h-49zM794 705v-219q-1 -1 -1 -5q0 -8 5 -15t13 -7h4q2 0 9 0.5t19 0.5v245h-49zM304 888h-51v-160h51v160zM746 889h-53v-160h53v160z" />
  </g>

</svg>
