<?xml version="1.0" standalone="no"?>
<!DOCTYPE svg PUBLIC "-//W3C//DTD SVG 1.1//EN" "http://www.w3.org/Graphics/SVG/1.1/DTD/svg11.dtd" >
<svg xmlns="http://www.w3.org/2000/svg" xmlns:xlink="http://www.w3.org/1999/xlink" version="1.1" viewBox="0 -205 1048 1024">
  <g transform="matrix(1 0 0 -1 0 819)">
   <path fill="currentColor"
d="M649 919v-97h251v97h-251zM649 806v-106h251v106h-251zM602 903l-4 68l48 -34h240l28 28l41 -28q30 -21 22 -30q-4 -4 -26 -6l-6 -1v-743q-1 -43 -26 -66q-22 -21 -75 -32l-1 1q-2 26 -14 35q-17 15 -25 36l63 -1q17 2 25 9q8 8 8 19v526h-251l-1 -17q-5 -7 -24 -12
q-18 -5 -22 3q-2 5 -1 24l1 5v216zM157 805v-106h239v106h-239zM157 919v-98h239v98h-239zM112 898l-7 76l54 -37h228l31 28l38 -27q32 -20 16 -27q-11 -4 -31 -3v-218q2 -12 0 -18q-4 -10 -21 -15q-19 -3 -24 2l-1 18l1 6h-239v-553l-1 -48q-6 -9 -24 -14q-18 -4 -21 1
q-3 2 -2 17l3 18v794zM428 341l-6 48l64 -22l-16 -16v-217q2 -14 0 -20q-5 -8 -26 -12q-14 -4 -16 0q-2 2 -1 15l1 16v208zM512 578q48 8 119.5 26.5t114.5 45.5l35 -22q18 -16 15 -21q-5 -6 -44 -6q-45 -12 -118.5 -23t-124.5 -16q-25 -63 -49.5 -109t-61.5 -87l-8 1
q34 65 49.5 110t22.5 129zM578 549q59 -37 74 -60q21 -28 18 -63q-5 -16 -16 -21q-10 -4 -17 15q-19 49 -30 70q-6 16 -37 53zM726 564q58 -34 72 -46q28 -30 26 -60q-3 -26 -19 -29q-17 -3 -19 22q-2 22 -27 60q-15 23 -43 46zM416 520l-94 -249q-14 -31 -18 -53t0 -33
q13 -28 14 -47q0 -24 -24 -32q-23 -6 -30 17q-7 17 -1 46q3 18 1 36q-3 20 -16 31q-5 5 -21 10l-39 11l2 7l21 -2q35 -4 46 -2q16 2 25 17l57 113q35 69 63 134zM189 498l9 -1q42 -10 57 -17q27 -12 34 -35q11 -30 -2 -40q-15 -9 -30 17q-8 16 -27 33q-19 21 -45 36z
M243 629q36 -10 60 -22q30 -16 37 -35q9 -25 -2 -38q-11 -11 -29 13l-34 40q-18 19 -38 31zM560 357v-217l-1 -10q-1 -18 2 -23q5 -7 26 -1q15 5 19 14q2 5 2 19v14h128l-1 -12q-1 -15 2 -19q4 -8 22 -5q18 8 22 15q3 5 2 18v13v181q22 0 28 5q11 8 -16 29l-43 28l-31 -26
h-111l-53 30zM607 363h129v-86h-129v86zM607 261h129v-91h-129v91z" />
  </g>

</svg>
