<?xml version="1.0" standalone="no"?>
<!DOCTYPE svg PUBLIC "-//W3C//DTD SVG 1.1//EN" "http://www.w3.org/Graphics/SVG/1.1/DTD/svg11.dtd" >
<svg xmlns="http://www.w3.org/2000/svg" xmlns:xlink="http://www.w3.org/1999/xlink" version="1.1" viewBox="0 -36 256 256">
  <g transform="matrix(1 0 0 -1 0 220)">
   <path fill="currentColor"
d="M115.5 50q8.5 -8 3.5 -20t-10.5 1t-24.5 35l2 3q21 -11 29.5 -19zM60 246l19 -8l-6 -7v-18h24l10 11l15 -18h-49v-25h35l6 7l15 -13q-9 -3 -26 -22l-3 2l9 19h-46l12 -10q-8 -3 -16.5 -12t-18.5 -18l39 1q10 9 15 17l13 -13q-10 -4 -25.5 -15.5t-43.5 -30.5l64 2
q-7 12 -14 21l3 3q17 -13 24.5 -21.5t2.5 -19.5t-8 -3l-6 16l-30 -3v-57q1 -16 -17 -24q-1 14 -22 18v4q15 -1 21 -2t6 7v51q-28 -1 -38 -7l-6 18q15 0 30.5 12t26.5 22q-35 -3 -44 -9l-10 17q10 -2 22.5 11.5t16.5 24.5h-35q2 -13 -2 -18t-11 -5.5t-1 11t8 29.5h3l2 -10h37
v25h-15q-10 0 -19 -2l-9 9h43q0 19 -1 33zM54 60l-8 -3q-21 -23 -40 -33l-2 3q10 7 19.5 19.5t14.5 25.5zM192.5 222.5q-0.5 -9.5 -6 -13t-7.5 5.5t-16 27l3 2q27 -12 26.5 -21.5zM180 177.5q-7 -9.5 -14 -18.5l24 2q6 11 9 21l16 -10q-10 -7 -21 -22.5t-27 -34.5l35 2
q-3 8 -10 20l2 3q23 -21 24.5 -27t-3.5 -11.5t-6.5 -0.5t-4.5 11q-18 -3 -28 -5.5t-17 -6.5l-8 16q7 0 16 11t21 29l-16.5 -6t-9.5 -5l-9 15q6 1 14 12.5t13 26.5h-28q-9 0 -18 -2l-9 9h97l10 13l16 -20h-66l13 -7q-8 -5 -15 -14.5zM152.5 167q1.5 -7 -3 -13t-8 4.5
t-14.5 22.5l2 3q22 -10 23.5 -17zM129 105l-12 12q16 8 37 25l3 -3q-16 -18 -28 -34zM232 186l12 -15q-9 -2 -17.5 -9t-16.5 -11l-2 3q16 17 24 32zM239.5 124.5q6.5 -6.5 3 -17.5t-9 1.5t-21.5 27.5l2 3q19 -8 25.5 -14.5zM176 103l19 -11l-5 -6v-10h33l11 12l14 -19h-58
v-29q0 -14 1 -24l-15 -8q1 20 1 61h-26q-10 0 -19 -2l-9 9h54q0 17 -1 27z" />
  </g>

</svg>
