<?xml version="1.0" standalone="no"?>
<!DOCTYPE svg PUBLIC "-//W3C//DTD SVG 1.1//EN" "http://www.w3.org/Graphics/SVG/1.1/DTD/svg11.dtd" >
<svg xmlns="http://www.w3.org/2000/svg" xmlns:xlink="http://www.w3.org/1999/xlink" version="1.1" viewBox="0 -205 1024 1024">
  <g transform="matrix(1 0 0 -1 0 819)">
   <path fill="currentColor"
d="M354 832h180q42 72 70 144q83 -31 86 -40q3 -7 -2 -10t-22 -8q-15 -4 -32 -22q-17 -19 -40 -64h272l38 50l62 -58q3 -4 4 -10q0 -7 -12 -8h-380q-28 -48 -52 -84h276l34 44l50 -44q6 -1 12 -16q-3 -10 -8 -10h-180v-104h158l36 46l60 -52q3 -3 4 -8q0 -12 -12 -12h-434
q-21 0 -62 -8l-22 34h222v104h-152q-33 -48 -86 -108q-51 -60 -98 -102l-10 12q69 90 126 174q54 83 82 134h-84q-16 0 -64 -8l-20 34v0v0zM476 530l56 -42h290l34 40l60 -40q8 -3 8 -12q0 -7 -32 -28v-359q3 -33 -14 -52q-14 -17 -64 -32q-7 35 -32 48q-24 14 -84 34l4 18
q66 -15 84 -18l36 -2q15 0 16 26v115h-308v-84l4 -85q-3 -21 -26 -30q-21 -9 -36 -10l4 125v388v0v0zM530 252h308v98h-308v-98v0v0zM530 376h308v86h-308v-86v0v0zM44 664h150v316l80 -36q9 -4 10 -8q3 -1 -2 -10l-36 -16v-246h52l34 42l48 -48q4 -3 8 -14q2 -7 -10 -8
h-132v-354l158 60l8 -18q-187 -90 -244 -116q-57 -27 -80 -62l-50 62l156 58v370h-70q-16 0 -64 -8l-16 36v0v0z" />
  </g>

</svg>
