<?xml version="1.0" standalone="no"?>
<!DOCTYPE svg PUBLIC "-//W3C//DTD SVG 1.1//EN" "http://www.w3.org/Graphics/SVG/1.1/DTD/svg11.dtd" >
<svg xmlns="http://www.w3.org/2000/svg" xmlns:xlink="http://www.w3.org/1999/xlink" version="1.1" viewBox="0 -144 1024 1024">
  <g transform="matrix(1 0 0 -1 0 880)">
   <path fill="currentColor"
d="M610 479l-3 -64l-5 -59l-8 -56l-10 -52l-13 -48l-16 -43l-17 -39l-21 -35l-24 -29l-26 -25l-7 7l16 29l16 32l13 35l12 38l10 42l7 45l6 50l4 54l2 57l-1 61h65zM468 115l-1 -13l-2 -12l-3 -13l-6 -11l-7 -10l-10 -9l-11 -7l-12 -5l-12 -2l-13 -1v30l-67 13l-24 -12v152
h-54v-125l-54 -27v152h-54v-145l-59 -30v373l59 -30h271l29 27l57 -48l-27 -19v-228zM870 77l-43 32l-37 37l-34 42l-5 7l-26 -33l-42 -42l-45 -35l-48 -29l-51 -22l-4 9l44 30l41 34l38 38l35 43l32 47l-25 50l-22 56l-17 59l-13 64l-8 63h-30v-48h-65v355l65 -33h93v183
l65 -11l16 -10l-16 -10v-152h120l32 27l59 -48l-27 -16l-15 -7l-19 -30l-20 -30l-24 -34l-14 -17l-13 -19l-9 5l9 21l18 60l6 17l9 32l4 15v3h-116v-231h72l32 27l59 -49l-27 -16l-7 -3l-15 -52l-25 -70l-28 -64l-31 -59l-14 -21l15 -20l33 -34l36 -30l37 -24l71 -35
l-61 -50zM192 362h-54v-125h54v125zM300 362h-54v-125h54v125zM409 362h-55v-125h55v125zM836 527h-184l17 -58l22 -60l23 -54l26 -49l13 -21l27 59l23 62l20 67zM450 438l-25 21l-25 23l-23 25l-22 28l-21 29l-20 31l-18 34l-13 30l-21 -36l-24 -38l-26 -35l-27 -32
l-29 -30l-30 -27l-31 -24l-33 -21l-35 -18l-5 8l54 53l26 27l24 30l23 31l22 32l21 35l20 37l18 39l20 47l56 -32l11 -17l-20 -3l-2 -3l51 -64l23 -26l24 -25l23 -21l24 -20l48 -33l24 -13l24 -14l-60 -47zM346 524l53 -48v-21h-251v21h154zM703 780h-93v-231h93v231z
M132 743v-65l-64 -32v275l64 -11l16 -11l-16 -9v-126h109v217l65 -11l16 -11l-16 -9v-186h108v157l65 -11l16 -11l-16 -9v-180l-65 -32v65h-282zM409 115v100h-55v-124h42l4 1l2 1l1 1h1l1 1l1 3l1 4l1 6z" />
  </g>

</svg>
