<?xml version="1.0" standalone="no"?>
<!DOCTYPE svg PUBLIC "-//W3C//DTD SVG 1.1//EN" "http://www.w3.org/Graphics/SVG/1.1/DTD/svg11.dtd" >
<svg xmlns="http://www.w3.org/2000/svg" xmlns:xlink="http://www.w3.org/1999/xlink" version="1.1" viewBox="0 -36 256 256">
  <g transform="matrix(1 0 0 -1 0 220)">
   <path fill="currentColor"
d="M31 208v-123h25v123h-25zM18 80v97q0 25 -1 47l14 -9h24l10 8l11 -14l-7 -6v-110q0 -17 1 -35l-14 -8v28h-25v-23l-14 -7q1 15 1 32zM119 58q0 -18 1 -37l-15 -7q1 23 1 32v89q-15 -37 -37 -63l-3 3q12 21 22 48t15 57h-3q-10 1 -21 -2l-9 9h36q0 42 -1 55l20 -9l-6 -8
v-38h7l11 9l15 -16h-33v-28q19 -8 25 -15.5t1 -16.5t-10.5 3.5t-15.5 21.5v-87zM169 190q10 -20 24 -35q11 17 21 44h-41zM174 36h39v57h-39v-57zM144 154l-2 2q8 13 15.5 33.5t12.5 55.5l18 -11l-6 -5q-4 -13 -7 -23h40l7 8l13 -12l-8 -8q-13 -29 -26 -49q9 -9 20.5 -16.5
t26.5 -13.5v-3q-14 0 -17 -8q-10 7 -19 14.5t-18 17.5q-15 -19 -30 -31l9 -5h40l9 8l11 -13l-7 -5v-45q0 -13 1 -25l-14 -8v17h-39v-12l-14 -7q1 21 1 35v29q0 14 -1 27q-15 -10 -31 -17l-1 3q18 13 32 26.5t26 32.5q-13 21 -20 38q-7 -15 -22 -30z" />
  </g>

</svg>
