<?xml version="1.0" standalone="no"?>
<!DOCTYPE svg PUBLIC "-//W3C//DTD SVG 1.1//EN" "http://www.w3.org/Graphics/SVG/1.1/DTD/svg11.dtd" >
<svg xmlns="http://www.w3.org/2000/svg" xmlns:xlink="http://www.w3.org/1999/xlink" version="1.1" viewBox="0 -200 1000 1000">
  <g transform="matrix(1 0 0 -1 0 800)">
   <path fill="currentColor"
d="M111 839q14 0 28 -7t31 -20h82l27 35q14 -5 27.5 -15t18.5 -21l-24 -24v-440q-20 -20 -40 -20v36h-110v-16q-20 -20 -40 -20v512zM324 625q23 0 57 -25q11 35 15 110q17 -4 33.5 -11.5t22.5 -15.5l-22 -15q-5 -23 -15.5 -40.5t-22.5 -28.5h50l27 34q14 -5 27.5 -14.5
t18.5 -20.5l-24 -25v-128q-20 -20 -40 -20v36h-87v-104h95l27 34q14 -5 27.5 -14.5t19.5 -20.5l-25 -24v-152q-20 -20 -40 -20v36h-104v-16q-20 -20 -40 -20v465zM572 568q14 0 27.5 -7t30.5 -19h51v109h-112l-17 -4l-12 16h251l26 34q22 -9 35.5 -23t18.5 -23h-150v-109h55
l27 34q14 -5 27.5 -15t18.5 -21l-24 -24v-248q0 -15 -12 -27.5t-26 -12.5q0 8 -12 22t-35 27l5 5q14 -7 23 -7q10 0 13.5 5t3.5 8v242h-64v-385q-20 -20 -40 -20v405h-52l-17 -11v-276q-20 -20 -40 -20v345zM151 375h110v426h-93l-17 -12v-414zM468 346h-104v-138h104v138z
M713 906q17 -4 33 -11.5t23 -15.5l-22 -15q-2 -6 -4.5 -12t-5.5 -11h73l25 34q21 -9 34.5 -23t18.5 -22h-156l-4 -6q30 -10 50 -19t31 -17t15.5 -15.5t4.5 -14.5q0 -16 -9.5 -25.5t-14.5 -9.5q-3 0 -7.5 8t-13.5 21t-23.5 30t-36.5 35q-23 -36 -56 -63t-68 -42l-2 2
q36 25 68 74t47 118zM442 906q17 -4 33.5 -11.5t22.5 -15.5l-22 -15q-2 -6 -4.5 -12t-5.5 -11h73l25 34q21 -9 34.5 -23t18.5 -22h-156l-4 -6q60 -20 81 -36t21 -30q0 -15 -9.5 -25t-14.5 -10q-10 0 -13 16q-4 15 -23.5 36t-44.5 43q-23 -37 -55.5 -64t-68.5 -42l-3 2
q37 25 68.5 74t46.5 118zM451 588h-69l-18 -12v-103h87v115z" />
  </g>

</svg>
