<?xml version="1.0" standalone="no"?>
<!DOCTYPE svg PUBLIC "-//W3C//DTD SVG 1.1//EN" "http://www.w3.org/Graphics/SVG/1.1/DTD/svg11.dtd" >
<svg xmlns="http://www.w3.org/2000/svg" xmlns:xlink="http://www.w3.org/1999/xlink" version="1.1" viewBox="0 -36 256 256">
  <g transform="matrix(1 0 0 -1 0 220)">
   <path fill="currentColor"
d="M98 93l1 -5q-67 -29 -77 -39l-13 19q14 0 38 8v81h-5q-10 0 -20 -2l-9 9h34v42q0 13 -1 30l21 -10l-7 -6v-56h11l10 9l15 -16h-36v-77q19 6 38 13zM149 35h63v29h-63v-29zM92.5 52q8.5 24 11 62.5t2 67.5t-1.5 43l15 -8q43 8 67 14.5t29 10.5l15 -16q-12 -1 -34.5 -4
t-76.5 -11v-32h53q2 21 1 35l23 -10l-7 -6l-3 -19h31l13 11l16 -18h-61l-4 -31h30l6 11l16 -12l-7 -7v-79q0 -22 1 -35l-15 -6v15h-63v-11l-14 -5q0 7 1 16v86q0 17 -1 35l14 -8h19l3 31h-27q-9 0 -17 -2l-8 8q1 -56 -6.5 -97t-36.5 -71l-3 2q11 16 19.5 40zM149 105h63v29
h-63v-29zM149 71h63v27h-63v-27z" />
  </g>

</svg>
