<?xml version="1.0" standalone="no"?>
<!DOCTYPE svg PUBLIC "-//W3C//DTD SVG 1.1//EN" "http://www.w3.org/Graphics/SVG/1.1/DTD/svg11.dtd" >
<svg xmlns="http://www.w3.org/2000/svg" xmlns:xlink="http://www.w3.org/1999/xlink" version="1.1" viewBox="0 -36 256 256">
  <g transform="matrix(1 0 0 -1 0 220)">
   <path fill="currentColor"
d="M212 207h-168q2 -17 -3 -24t-16 -6t-5 8t11 15t8 25h4l1 -11h82q-3 13 -22 31l2 2q29 -10 33.5 -17t-4.5 -16h78l10 11l18 -18q-20 -4 -37 -25l-4 1zM210 137l14 14l19 -21h-103q-19 -9 -37 -19q23 -10 34 -19q39 22 49 35l17 -16q-10 0 -19.5 -4.5t-25.5 -10.5
q42 -45 86 -46v-4q-18 -3 -19 -13q-38 14 -72 60l-11 -5q11 -15 13.5 -26.5t0.5 -24.5t-7.5 -19.5t-24.5 -12.5q1 12 -29 19v4q30 -3 38.5 -1t9 18.5t-6.5 27.5q-45 -32 -122 -45l-1 4q66 14 117 52q-5 7 -12 11q-35 -29 -94 -37l-1 4q54 12 84 40l-9 5q-30 -12 -77 -21
l-1 4q53 10 96 40h-60q-11 0 -20 -1l-10 8h146q0 7 2 17h-85q-10 0 -20 -2l-9 9h114q1 11 1 17h-92q-10 0 -20 -2l-9 9h122l10 8l13 -13l-9 -6q-2 -19 -4 -37h24z" />
  </g>

</svg>
