<?xml version="1.0" standalone="no"?>
<!DOCTYPE svg PUBLIC "-//W3C//DTD SVG 1.1//EN" "http://www.w3.org/Graphics/SVG/1.1/DTD/svg11.dtd" >
<svg xmlns="http://www.w3.org/2000/svg" xmlns:xlink="http://www.w3.org/1999/xlink" version="1.1" viewBox="0 -205 1024 1024">
  <g transform="matrix(1 0 0 -1 0 819)">
   <path fill="currentColor"
d="M259 928q22 -12 22 -21q0 -13 -36 -13q-22 -57 -77 -127t-106 -105l-10 9q51 44 99.5 126t65.5 156zM599 197q-2 -20 -24 -27q-17 -4 -68 -4h-48q-51 0 -69.5 19.5t-18.5 81.5v184h-77q-7 -199 -79.5 -275.5t-146.5 -98.5l-3 11q77 31 130 110.5t56 252.5h-61
q0 -28 -1 -31t-22 -7q-10 -3 -14 -3q-6 0 -7 5q-1 4 0 21q1 23 1 39v221l-5 38l51 -28h268l13 21q7 11 8 11q4 0 17 -11l32 -29q17 -14 17 -22q0 -9 -33 -11v-191q0 -46 1 -43q-2 -7 -22 -11q-13 -4 -17 -4q-6 0 -6 8q0 -7 0 27h-56v-179q0 -46 9.5 -58.5t40.5 -12.5h31
q15 0 25.5 8t17.5 30l27 95l12 -5l-10 -90q-2 -20 17 -26q10 -5 14 -16zM471 472v214h-281v-214h281zM594 716q-8 -30 -21 -26q-6 2 -14 18q-51 107 -178 223l9 12q144 -121 177 -160q32 -36 27 -67zM958 105l-7 -9q-23 10 -41 -1q-10 -16 -13 -16q-4 0 -31 41
q-82 126 -123 365q-26 -304 -238 -422l-10 8q226 151 220 634h-61q-34 -66 -81 -125l-11 10q91 131 116 366l43 -16q28 -11 28 -20q0 -7 -31 -20q-30 -116 -55 -175h208l14 22q10 16 13 16q4 0 23 -19l27 -29q7 -10 7 -17t-11.5 -9.5t-23.5 -4.5l-58 -118l-15 4l30 135h-116
q-2 -78 -10 -174q24 -153 79.5 -264.5t127.5 -161.5z" />
  </g>

</svg>
