<?xml version="1.0" standalone="no"?>
<!DOCTYPE svg PUBLIC "-//W3C//DTD SVG 1.1//EN" "http://www.w3.org/Graphics/SVG/1.1/DTD/svg11.dtd" >
<svg xmlns="http://www.w3.org/2000/svg" xmlns:xlink="http://www.w3.org/1999/xlink" version="1.1" viewBox="0 -144 1024 1024">
  <g transform="matrix(1 0 0 -1 0 880)">
   <path fill="currentColor"
d="M788 684l5 12l56 -34l10 -16l-23 -2l-14 -20l-20 -26l-24 -25l-25 -25h92l54 54l64 -54v-22h-229v-210l-2 -19h114v179l64 -10l16 -11l-16 -10v-201l-64 -33v65h-116l-7 -45l-13 -37l-17 -34l-21 -30l-25 -26l-29 -22l-33 -16l-35 -13l-39 -7l-2 10l33 17l30 18l25 20
l21 22l17 24l14 26l10 28l7 32l3 33h-111v-65l-65 -32v297l65 -10l16 -11l-16 -10v-148h111v229h-229v22h297l4 8l26 63l5 15l14 42zM120 326h191l33 27l59 -49l-27 -21v-199l-65 -32v43h-191v-16l-64 -33v312zM120 304v-188h191v188h-191zM377 464v-22h-323v22h205l54 53z
M586 601l-4 10l-12 20l-22 34l-11 9l5 8l13 -8l14 -5l13 -7l24 -15l11 -8l10 -9l18 -21l8 -11v-25l-18 -18h-24l-17 18l-5 18zM377 607v-22h-323v22h205l54 53zM954 932l-27 -21v-197l-65 -33v65h-91v-16l-53 -27v278l53 -27h91l33 27zM535 954h91l27 27l53 -49l-26 -16
v-181l-54 -27v38h-91l-65 -32v272zM428 761v-22h-397v22h279l54 54zM771 932v-165h91v165h-91zM535 932v-165h91v165h-91zM377 904v-21h-323v21h205l54 54z" />
  </g>

</svg>
