<?xml version="1.0" standalone="no"?>
<!DOCTYPE svg PUBLIC "-//W3C//DTD SVG 1.1//EN" "http://www.w3.org/Graphics/SVG/1.1/DTD/svg11.dtd" >
<svg xmlns="http://www.w3.org/2000/svg" xmlns:xlink="http://www.w3.org/1999/xlink" version="1.1" viewBox="0 -144 1024 1024">
  <g transform="matrix(1 0 0 -1 0 880)">
   <path fill="currentColor"
d="M79 87l26 -59h-25l-17 16v25zM105 28l-7 16l-3 7l-1 1l-1 3l-6 14v1l-1 2l-2 5l-1 2l-2 5l-2 3l15 6l14 7l14 8l12 11l11 12l10 14l9 17l9 19l7 21l5 25l10 -1l1 -25v-25l-2 -23l-5 -23l-8 -21l-10 -19l-13 -18l-15 -17l-18 -14zM872 70l-6 14l-7 15l-9 15l-12 16l-13 18
l-52 54l-22 19l6 8l51 -26l22 -13l21 -14l19 -15l17 -16l15 -16l13 -16l12 -18l9 -18l-2 -25l-18 -16l-24 2l-17 18zM613 84l-1 11l-3 14l-5 13l-6 14l-9 15l-10 16l-26 33l-17 16l6 8l40 -23l18 -13l16 -13l15 -14l13 -14l11 -16l10 -16l7 -17l6 -19l-7 -23l-22 -12l-24 7
l-12 21v12zM364 79l65 -7l-13 -21l-23 -7l-22 12zM337 223l15 -13l16 -12l13 -13l13 -13l10 -15l9 -16l7 -16l4 -17l4 -18l1 -18l-65 7l3 12l2 11l1 13l-1 12l-2 14l-4 14l-5 14l-7 16l-9 16l-12 15zM244 271l-64 -32v254l64 -32h491l32 26l59 -48l-27 -21v-147l-64 -32v32
h-491zM457 356h-213v-63h213v63zM735 356h-213v-63h213v63zM457 439h-213v-61h213v61zM735 439h-213v-61h213v61zM916 573l43 -37v-22h-924v22h848zM199 592l-65 -32v278l65 -32h601l32 27l60 -48l-27 -22v-171l-65 -32v32h-601zM467 690h-268v-76h268v76zM800 690h-268v-76
h268v76zM467 785h-268v-73h268v73zM800 785h-268v-73h268v73zM615 985l65 -11l16 -10l-16 -10v-38h166l54 54l65 -54v-21h-285v-45l-65 -32v77h-236v-45l-65 -32v77h-285v21h285v69l65 -11l16 -10l-16 -10v-38h236v69z" />
  </g>

</svg>
