<?xml version="1.0" standalone="no"?>
<!DOCTYPE svg PUBLIC "-//W3C//DTD SVG 1.1//EN" "http://www.w3.org/Graphics/SVG/1.1/DTD/svg11.dtd" >
<svg xmlns="http://www.w3.org/2000/svg" xmlns:xlink="http://www.w3.org/1999/xlink" version="1.1" viewBox="0 -200 1000 1000">
  <g transform="matrix(1 0 0 -1 0 800)">
   <path fill="currentColor"
d="M865 366h-191v1q-9 -60 -32.5 -119t-56 -109.5t-72 -87.5t-80.5 -53l-3 5q31 30 62 70t57 88.5t45.5 106t27.5 123.5q10 63 11.5 123.5t1.5 129.5v47.5t1 50.5l70 -33h150l31 49l56 -52l-29 -41v-557q-4 -24 -8.5 -39t-13.5 -25t-24.5 -17t-40.5 -15q-5 36 -26.5 59
t-70.5 34l-1 11q37 -8 59.5 -11.5t36.5 -3.5q24 0 30.5 9t9.5 25v231zM218 596h69v40l-11 78l71 -20l-14 -58v-40h77l38 37l59 -50l-36 -35v-233h-265v-208l162 58q-2 6 -14.5 22.5t-27 34t-26 32t-11.5 16.5h1q3 0 14 -8q33 -23 63 -45.5t52.5 -44.5t35.5 -44t13 -45
q0 -19 -11.5 -31.5t-21.5 -12.5q-13 0 -16.5 7.5t-6.5 21.5t-10 34.5t-26 46.5q-45 -20 -88 -42t-80 -42.5t-65 -38t-43 -27.5l-51 67l103 28v537zM274 997l86 -36l-36 -23q-12 -13 -19.5 -26t-21.5 -32h144l51 50l73 -75h-254q36 -24 53.5 -36.5t25 -21t8.5 -17.5t4 -26
q-5 -18 -13 -24.5t-17 -6.5q-17 0 -21.5 10t-9 28t-15.5 42.5t-41 53.5h-4q-23 -27 -43 -51t-41.5 -45t-48 -40t-62.5 -37l-8 4q39 33 73.5 73t62 81.5t46.5 81.5t28 73zM664 1001l81 -39l-32 -17q-16 -17 -29 -31.5t-27 -29.5h170l52 49l72 -75h-276q38 -18 59 -30
t30.5 -21.5t12.5 -18t5 -18.5q0 -16 -8.5 -25t-19.5 -10h-2q-9 0 -18 12.5t-20.5 31t-27 40.5t-37.5 41q-15 -14 -32.5 -33t-39.5 -37.5t-48.5 -35.5t-60.5 -28l-4 3q27 22 60 58.5t62.5 76t51 76.5t26.5 61zM864 529h-174q-1 -36 -3 -70t-9 -69h186v139zM420 339v106h-214
v-106h214zM206 467h214v105h-214v-105zM716 684l-15 -12q-3 -26 -4 -57t-4 -62h171v131h-148z" />
  </g>

</svg>
