<?xml version="1.0" standalone="no"?>
<!DOCTYPE svg PUBLIC "-//W3C//DTD SVG 1.1//EN" "http://www.w3.org/Graphics/SVG/1.1/DTD/svg11.dtd" >
<svg xmlns="http://www.w3.org/2000/svg" xmlns:xlink="http://www.w3.org/1999/xlink" version="1.1" viewBox="0 -36 256 256">
  <g transform="matrix(1 0 0 -1 0 220)">
   <path fill="currentColor"
d="M100 227q6 8 9 20l21 -8l-5 -2q-4 -3 -9 -10h91l15 12l17 -19h-82q21 -17 45 -26.5t42 -11.5v-5q-8 2 -16 -9q-25 11 -47 25t-31 27h-37q-19 -21 -45.5 -33.5t-56.5 -21.5l-1 5q30 11 53.5 26t31.5 24h-49q-10 0 -19 -2l-9 9h82zM118 134l-12 -6v5h-45v-1l-12 -5
q1 22 1 35t-1 25l13 -6h41l8 8l13 -12l-7 -5q0 -25 1 -38zM61 167h45v7h-45v-7zM61 153h45v7h-45v-7zM61 140h45v6h-45v-6zM119 140q11 -4 16.5 -9.5t1.5 -10.5t-6 -4.5t-4 8t-10 13.5zM61 102h61v7h-61v-7zM61 85h61v10h-61v-10zM61 70h61v8h-61v-8zM24 81l-2 3
q13 13 22 25.5t14 24.5l15 -9q-5 -3 -11 -9h121l12 9l15 -16h-75v-8h40l10 7l13 -14h-63v-9h41l10 7l13 -14h-64v-8h59l12 9l15 -16h-160v-3l-13 -4q1 12 1 45q-10 -10 -25 -20zM127 33q25 8 43 15h-84q19 -8 41 -15zM173 55l8 5l11 -15l-10 -2q-23 -11 -38 -14
q22 -4 46 -4.5t39 1.5v-5q-13 -1 -17 -11q-23 1 -47.5 5t-36.5 7q-27 -8 -54.5 -11t-51.5 -1l-1 3q29 3 50 6.5t43 9.5q-17 7 -37 19h-6q-5 0 -14 -2l-9 9h125zM201 136l-12 -6v5h-40v-2l-12 -6q1 26 1 37t-1 26l12 -6h38l7 8l14 -11l-8 -5q0 -29 1 -40zM149 170h40v7h-40
v-7zM149 156h40v7h-40v-7zM149 142h40v7h-40v-7z" />
  </g>

</svg>
