<?xml version="1.0" standalone="no"?>
<!DOCTYPE svg PUBLIC "-//W3C//DTD SVG 1.1//EN" "http://www.w3.org/Graphics/SVG/1.1/DTD/svg11.dtd" >
<svg xmlns="http://www.w3.org/2000/svg" xmlns:xlink="http://www.w3.org/1999/xlink" version="1.1" viewBox="0 -200 1000 1000">
  <g transform="matrix(1 0 0 -1 0 800)">
   <path fill="currentColor"
d="M282 74l-7 10q208 183 267 406h-95q-24 0 -42 -12l-32 31h175q5 19 9 40q9 41 8 48q-3 9 -12 30l7 5l79 -33q17 -9 8 -13q-21 -5 -38 -18q-1 -4 -4 -12q-2 -8 -4 -12q-4 -18 -10 -35h242l31 39l64 -48q8 -6 6 -9q-2 -2 -12 -1h-337q-17 -54 -38 -102h207l27 36l53 -56
q4 -5 4 -7q-1 -3 -7 -4t-17 -5q-3 -1 -5 -2q-11 -5 -32 -38q-15 -30 -53 -79q-17 -21 -34 -38q117 -106 270 -109v-16q-31 0 -53 -6q-18 -3 -28 -27q-137 47 -214 136q-9 -7 -17 -15q-37 -29 -93 -61q-49 -28 -186 -68l-5 13q4 2 13 5q91 36 122 53q36 18 91 55q14 12 50 42
q-4 4 -12 13q5 -6 -2 3q-57 61 -95 142q-79 -157 -249 -281zM162 975l87 -35q14 -5 6 -11q-21 -8 -29 -20v-751l2 -96q0 -20 -15 -30q-15 -9 -37 -14q4 37 7 186v715q1 15 -30 45zM848 564l-11 8l48 83h-461q-1 -3 -1 -9q-6 -41 -18 -69q-12 -26 -30 -34q-22 -8 -26 10
q-7 16 8 31q19 16 31 39q13 29 20 93h17q2 -20 0 -41h458l28 32l55 -55q2 -5 -1 -7q-2 -1 -9 1q-19 0 -36 -11q-8 -6 -20 -16l-6 -6q-10 -10 -46 -49zM640 243q5 -8 19 -20q3 -2 4 -3q6 8 14 15q45 54 80 133h-204q39 -82 87 -125zM838 974l54 -49q10 -9 10 -14q1 -4 -8 -5
q-28 9 -82 0q-127 -24 -209 -28q-92 -5 -209 -5l-1 16q126 6 214 17q95 10 132 20q48 10 66 17q17 6 22 30zM100 722h16q8 -77 2 -128q-6 -52 -34 -74q-29 -25 -44 -9q-15 15 8 41q23 25 36 61q13 37 16 109zM841 881l64 -45q8 -11 -1 -14q-16 3 -33 -4q-61 -76 -105 -128
l-16 8l42 67q29 44 46 73q4 10 -5 36zM239 761l4 14q41 -20 67 -41q25 -24 34 -48q7 -24 2 -43q-6 -20 -22 -20q-15 -2 -18 30q-3 29 -18 55q-15 28 -49 53zM588 857l7 12q45 -25 71 -53q21 -25 24 -57q1 -32 -19 -38q-23 -6 -23 25q-2 30 -14 54q-5 15 -46 57zM431 842
l6 10q53 -31 72 -57q21 -28 20 -57q-3 -29 -20 -32q-18 -4 -22 27q-3 30 -15 57q-13 24 -41 52z" />
  </g>

</svg>
