<?xml version="1.0" standalone="no"?>
<!DOCTYPE svg PUBLIC "-//W3C//DTD SVG 1.1//EN" "http://www.w3.org/Graphics/SVG/1.1/DTD/svg11.dtd" >
<svg xmlns="http://www.w3.org/2000/svg" xmlns:xlink="http://www.w3.org/1999/xlink" version="1.1" viewBox="0 -36 256 256">
  <g transform="matrix(1 0 0 -1 0 220)">
   <path fill="currentColor"
d="M187 113h31v22h-31v-22zM148 224q-7 -8 -15 -16q25 -13 24.5 -22t-5 -10.5t-7.5 7t-19 24.5q12 17 19 37l15 -10q-5 -2 -12 -10zM190.5 186.5q-0.5 -8.5 -5 -11t-8 8t-17.5 25.5q12 16 21 35l16 -10q-9 -3 -15.5 -10t-14.5 -15q24 -14 23.5 -22.5zM231.5 186.5
q-0.5 -8.5 -4.5 -10t-9 8t-21 22.5q14 19 22 37l15 -10q-8 -4 -14.5 -11t-16.5 -16q29 -12 28.5 -20.5zM132 142.5q0 20.5 -1 33.5l14 -8h71l9 8l13 -13l-8 -5v-22q0 -20 1 -29l-13 -7v6h-31v-19h31l12 10l14 -17h-51q10 -17 25.5 -30.5t29.5 -17.5v-4q-10 1 -16 -8
q-31 22 -45 59v-34q0 -14 1 -33l-14 -5q1 31 1 69q-12 -18 -27.5 -32t-43.5 -25l-2 3q37 21 60 58h-18q-10 0 -19 -2l-9 9h59v19h-31v-4l-13 -6q1 26 1 46.5zM144 142h31v19h-31v-19zM187 142h31v19h-31v-19zM144 113h31v22h-31v-22zM102.5 41.5q4.5 -6.5 1.5 -15.5
t-10.5 1.5t-22.5 20.5q-26 -27 -61 -41l-2 4q33 20 53 44l-27 17l3 4l31 -13q10 14 18 33h-36q-16 -21 -39 -37l-2 3q34 37 40 60l17 -10l-5 -2l-7 -7h33l7 8l14 -13l-7 -4q-15 -28 -23 -36q20 -10 24.5 -16.5zM76 119l-13 -6v96h-25q-10 -1 -19 -3l-10 10h54q0 13 -1 31
l20 -9l-6 -6v-16h25l10 9l13 -16h-48v-90zM100 205l17 -8l-6 -2l-7 -14q13 -4 19 -8t2.5 -13t-8 0t-16.5 17q-5 -10 -19 -22l-4 1q17 24 22 49zM65 150q-20 -23 -59 -43l-1 4q40 27 60 61v-22zM117.5 136.5q9.5 -6.5 6 -17.5t-12 2.5t-38.5 28.5l1 6q34 -13 43.5 -19.5z
M31 203l17 -7l-6 -4l-6 -14q16 -4 20 -8t0 -10t-7.5 0.5t-13.5 13.5q-6 -14 -21 -28l-4 1q18 29 21 56z" />
  </g>

</svg>
