<?xml version="1.0" standalone="no"?>
<!DOCTYPE svg PUBLIC "-//W3C//DTD SVG 1.1//EN" "http://www.w3.org/Graphics/SVG/1.1/DTD/svg11.dtd" >
<svg xmlns="http://www.w3.org/2000/svg" xmlns:xlink="http://www.w3.org/1999/xlink" version="1.1" viewBox="0 -36 256 256">
  <g transform="matrix(1 0 0 -1 0 220)">
   <path fill="currentColor"
d="M100 115l13 11l16 -18h-70q-13 0 -22 -3l-10 10h73zM101 63l3 3q21 -14 30.5 -24.5t4 -22t-8.5 -5.5l-8 16q-54 -5 -73.5 -8.5t-18.5 -6.5l-9 19q9 2 25 18.5t21 26.5h-29q-10 0 -19 -3l-10 10h112l15 12l17 -19h-79l12 -9q-8 -3 -14 -7.5t-35 -29.5q43 1 82 4
q-8 13 -18 26zM132 195h-47v-25.5t1 -40.5l-15 -5q1 16 1 71h-43q0 -6 -1 -12.5t-7 -8t-9.5 2t3 9.5t10.5 27h3l1 -11h43v24h-17q-10 0 -20 -2l-9 9h86l12 11l16 -18h-55v-24h46l9 11l14 -16q-10 -1 -25 -21l-3 1zM29 182l1 3q21 -5 28.5 -9t5 -13.5t-8 -1.5t-26.5 21z
M31 124l-11 13q26 8 44 20l2 -4q-19 -15 -24 -19t-11 -10zM92 152l1 3q33 -6 36.5 -11t2 -14t-12 3t-27.5 19zM92 158l-2 1q11 14 20 34l14 -11l-7 -1q-19 -20 -25 -23zM160 66v115q0 30 -1 56l16 -10h46l11 9l13 -16l-9 -5q-12 -25 -32 -63q46 -42 40.5 -72t-35.5 -37
q-5 16 -28 22v5q41 -16 48 11t-34 69q18 38 26 70h-47v-153q0 -27 1 -53l-16 -7q1 29 1 59z" />
  </g>

</svg>
