<?xml version="1.0" standalone="no"?>
<!DOCTYPE svg PUBLIC "-//W3C//DTD SVG 1.1//EN" "http://www.w3.org/Graphics/SVG/1.1/DTD/svg11.dtd" >
<svg xmlns="http://www.w3.org/2000/svg" xmlns:xlink="http://www.w3.org/1999/xlink" version="1.1" viewBox="0 -200 1000 1000">
  <g transform="matrix(1 0 0 -1 0 800)">
   <path fill="currentColor"
d="M916 826v-655q2 -70 -7 -92q-10 -22 -71 -35q0 32 -56 53l-58 16l2 16q102 -23 125 -21q21 1 21 49v683h-164q-25 2 -40 -12l-30 32h220l28 39l49 -42q8 -5 8 -10q0 -4 -8 -8zM420 809l84 -36q6 -2 7 -5q2 -2 -2 -5q-20 -8 -27 -21v-569l1 -95q2 -35 -51 -45q6 51 7 162
v557q2 14 -28 45zM468 933l4 13q90 -40 122 -97q29 -59 -11 -73q-18 1 -23 32q-8 31 -29 61q-17 28 -63 64zM181 974l89 -35q12 -6 5 -10q-20 -9 -29 -21v-171h47l28 41l64 -48q11 -8 8 -11t-18 -2h-129v-76q39 -24 73 -56q34 -33 42 -66q9 -35 5 -49q-4 -18 -19 -18
q-17 0 -26 35q-6 28 -27 69q-15 27 -48 63v-456l2 -95q0 -20 -15 -30q-13 -9 -39 -14q4 37 7 184v434q-15 -68 -31 -113q-31 -83 -58 -133q-31 -64 -78 -123l-13 10q45 80 75 158q5 14 15 41q24 66 33 96q15 55 30 139h-56q-26 0 -44 -13l-33 33h160v181q1 15 -29 45z" />
  </g>

</svg>
