<?xml version="1.0" standalone="no"?>
<!DOCTYPE svg PUBLIC "-//W3C//DTD SVG 1.1//EN" "http://www.w3.org/Graphics/SVG/1.1/DTD/svg11.dtd" >
<svg xmlns="http://www.w3.org/2000/svg" xmlns:xlink="http://www.w3.org/1999/xlink" version="1.1" viewBox="0 -36 256 256">
  <g transform="matrix(1 0 0 -1 0 220)">
   <path fill="currentColor"
d="M66.5 85.5q-19.5 -3.5 -40.5 -10.5l-11 16q30 2 56 5v17h-23q-11 0 -20 -2l-10 9h53v14h-25v-2l-15 -4q1 12 1 31.5t-1 32.5l16 -7h24v15h-28q-11 0 -21 -2l-10 9h59v15l-43 -2v5q21 2 47.5 7t39.5 10l14 -14q-8 0 -45 -4v-17h33l12 10l16 -17h-61v-15h25l7 8l14 -11
l-6 -5q0 -26 1 -42l-15 -5v4h-26v-14h23l13 10l15 -17h-51v-16l53 7l1 -4q-52 -11 -71.5 -14.5zM46 163h25v15h-25v-15zM84 163h26v15h-26v-15zM46 141h25v15h-25v-15zM84 141h26v15h-26v-15zM200.5 102q10.5 -1 14 8t6.5 79h-33q-7 -64 -54 -104l-3 3q38 45 43 101h-1
q-13 1 -25 -2l-9 9h36q2 32 1 47l25 -11l-8 -5q-2 -14 -4 -31h30l7 10l16 -12l-7 -7q-3 -57 -6 -77.5t-27 -26.5q-3 13 -22 18v4q10 -2 20.5 -3zM210 60q0 4 -1 13l23 -8l-7 -7v-12q0 -15 1 -31l-16 -5v8h-161l-7 -5l-14 10l6 4v20q0 5 -1 24l24 -8l-8 -5v-33h72v28
q0 12 -1 31l25 -8l-9 -6v-45h74v35z" />
  </g>

</svg>
