<?xml version="1.0" standalone="no"?>
<!DOCTYPE svg PUBLIC "-//W3C//DTD SVG 1.1//EN" "http://www.w3.org/Graphics/SVG/1.1/DTD/svg11.dtd" >
<svg xmlns="http://www.w3.org/2000/svg" xmlns:xlink="http://www.w3.org/1999/xlink" version="1.1" viewBox="0 -205 1024 1024">
  <g transform="matrix(1 0 0 -1 0 819)">
   <path fill="currentColor"
d="M620 926h158l34 40l60 -44q6 -6 6 -12q0 -5 -38 -28v-696q0 -42 6 -49q7 -6 38 -6h26q24 5 30 19q6 15 10 52q3 33 6 112h20q0 -90 4 -116q5 -27 32 -42q-12 -29 -24 -43q-12 -12 -26 -18q-12 -5 -36 -10h-58q-34 0 -56 14q-22 12 -22 61v740h-182v-218q69 -36 96 -60
q25 -24 38 -50q12 -27 4 -50q-9 -22 -30 -20q-22 0 -26 30q-3 30 -18 60q-14 28 -64 68q-1 -180 -22 -290q-20 -109 -64 -182q-42 -71 -114 -135l-12 12q57 66 94 141q35 76 52 182q18 105 16 360v226l62 -48v0v0zM158 944h236l42 46l58 -56q2 -3 2 -8q0 -9 -8 -8h-178v-122
h76l32 38l56 -48q3 -3 4 -8q0 -7 -8 -8h-160v-112h72l32 42l52 -52q2 -3 2 -8q0 -7 -8 -8h-150v-122h104l26 36l60 -42q13 -13 -6 -22l-20 -12q-7 -120 -16 -198q-10 -78 -20 -108q-9 -28 -26 -47q-18 -18 -60 -40q-7 31 -28 46q-21 16 -98 35l4 20q48 -9 78 -14
q29 -7 52 -4q20 -1 32 26q9 23 18 98q8 75 14 198h-270v-10q1 -15 -16 -26q-20 -13 -40 -14l4 142v418l56 -48v0v0zM154 510h106v122h-106v-122v0v0zM154 658h106v112h-106v-112v0v0zM260 796v122h-106v-122h106v0v0zM110 404h18q9 -115 -2 -154q-9 -37 -26 -50
q-15 -13 -30 -14q-15 0 -24 16q-9 15 6 30q14 15 32 36q14 21 26 136v0v0zM162 394l12 8q48 -59 60 -88q9 -30 6 -48q-4 -19 -16 -28q-9 -8 -24 0q-13 5 -10 26q0 18 -2 48q-3 27 -26 82v0v0zM228 414l12 8q55 -59 68 -88t12 -46q-3 -15 -14 -24q-10 -7 -22 -2q-9 3 -12 24
q-3 18 -8 46q-6 27 -36 82v0v0zM300 440l10 10q53 -42 74 -68q19 -27 18 -48q-3 -21 -14 -30q-12 -8 -24 0q-9 8 -12 26q0 17 -12 44q-10 24 -40 66v0v0z" />
  </g>

</svg>
