<?xml version="1.0" standalone="no"?>
<!DOCTYPE svg PUBLIC "-//W3C//DTD SVG 1.1//EN" "http://www.w3.org/Graphics/SVG/1.1/DTD/svg11.dtd" >
<svg xmlns="http://www.w3.org/2000/svg" xmlns:xlink="http://www.w3.org/1999/xlink" version="1.1" viewBox="0 -36 256 256">
  <g transform="matrix(1 0 0 -1 0 220)">
   <path fill="currentColor"
d="M83.5 226.5q-6.5 -2.5 -20.5 -6.5v-55l13 2l10 14l15 -15l-38 -8v-49l21 6l8 11l15 -13l-44 -10v-61q0 -15 14 -15h143q9 0 11 11.5t2 20.5h5q0 -10 1.5 -19t8.5 -10q-6 -10 -11 -13t-13 -3h-152q-22 0 -22 24v63l-23 -4l-10 -6l-9 8l42 8v49l-20 -3l-10 -7l-8 9l38 7v55
q-21 -5 -34 -7v6q18 4 40 12.5t30 18.5l13 -17q-9 -1 -15.5 -3.5zM153 218l20 -8l-6 -7v-13h22q0 16 -1 27l20 -8l-6 -6v-13h4l10 11l18 -18h-32v-27h9l10 11l18 -18h-83q-13 0 -22 -3l-10 10h30v27h-4l-11 -3l-10 10h25q0 14 -1 28zM167 156h22v27h-22v-27zM140 96.5
q0 26.5 -1 40.5l14 -8h52l6 9l15 -11l-7 -7q0 -55 1 -65l-14 -4v11h-53v-9l-14 -4q1 21 1 47.5zM153 100h53v22h-53v-22zM153 69h53v24h-53v-24zM125 229h89l10 11l18 -18h-118q1 -69 -4 -105.5t-28 -71.5l-3 2q17 38 20.5 76t1.5 114z" />
  </g>

</svg>
