<?xml version="1.0" standalone="no"?>
<!DOCTYPE svg PUBLIC "-//W3C//DTD SVG 1.1//EN" "http://www.w3.org/Graphics/SVG/1.1/DTD/svg11.dtd" >
<svg xmlns="http://www.w3.org/2000/svg" xmlns:xlink="http://www.w3.org/1999/xlink" version="1.1" viewBox="0 -339 2048 2048">
  <g transform="matrix(1 0 0 -1 0 1709)">
   <path fill="currentColor"
d="M1363 1726q-9 9 -13 14q-5 7 -9 25q-11 46 -22 69q-15 31 -39 63q-12 16 -39 46l20 24q77 -52 104 -74q72 -58 72 -113q0 -24 -14 -41q-5 -6 -17 -13h278l103 120l154 -124q14 -11 14 -25q0 -8 -9 -18t-18 -10h-326v-555q0 -15 3 -53q3 -39 4 -51q3 -31 3 -45
q0 -19 -9 -28q-21 -20 -57 -20q-21 0 -30 8q-8 7 -8 17l-2 727h-189q-7 -160 -23 -264q-14 -85 -33 -144q-53 -157 -177 -257q-47 -39 -94 -64q-44 -25 -113 -57l-18 42q91 52 131 85q90 74 142 181q54 113 72 315q6 69 8 163h-153q-116 0 -192 -8l-39 88q30 -7 52 -11
q73 -12 179 -12h304zM1656 1469l28 23q48 -41 70 -64q53 -54 95 -103q36 -43 71 -103q18 -32 25 -50q8 -22 8 -41q0 -25 -16 -44q-18 -23 -45 -23q-19 0 -33 15q-10 12 -20 65q-9 47 -45 118q-31 63 -82 133q-18 25 -56 74zM950 1524l108 -40q33 -12 43 -22q9 -9 9 -17
q0 -11 -11 -21q-11 -9 -29 -13l-44 -10q-54 -106 -115 -180q-44 -55 -106 -111q-19 -18 -47 -38l-23 24q50 60 74 97q40 59 81 151q28 60 44 119q6 20 16 61zM306 1945q106 -70 163 -126q36 -35 53 -73q13 -30 13 -58t-15 -48q-15 -19 -43 -19q-15 0 -24 6q-12 9 -19 27
q-7 17 -13 40q-17 60 -32 89q-21 40 -57 82q-17 20 -49 50zM420 958q-108 -117 -189 -191q-66 -60 -142 -115l-22 30q82 80 108 109q56 61 138 165q72 91 122 172q73 118 111 210q22 55 54 155h-249q-116 0 -192 -8l-35 87q46 -10 69 -13q60 -9 158 -9h249l59 71l84 -58
q27 -18 33 -28q6 -9 6 -18q0 -17 -15 -28q-12 -8 -32 -15q-10 -4 -31 -12q-61 -146 -105 -228q-25 -47 -84 -139v-39q109 -52 154 -82q40 -27 61 -57q21 -31 21 -59q0 -30 -22 -47q-13 -11 -29 -11t-29 11q-9 8 -24 41q-18 41 -51 77q-20 22 -42 40q-13 11 -39 30v-651
q0 -18 2 -64q2 -41 3 -75q1 -46 2 -59q2 -36 2 -48q0 -34 -19 -47q-16 -11 -40 -11q-25 0 -36 11q-5 5 -6 10q-3 9 -3 29v864zM1344 699h405l98 101l121 -107q13 -12 14 -16q2 -4 2 -9q0 -12 -7 -19q-4 -3 -7 -4q-4 -1 -20 -1h-615q-27 -83 -56 -138q-49 -95 -130 -173
q-62 -60 -137 -107q-67 -41 -126 -69q-79 -37 -225 -83l-15 36q83 34 127 55q136 67 224 141q108 91 169 193q32 53 49 102q6 15 14 43h-264q-119 0 -191 -8l-35 88q46 -9 70 -13q71 -12 156 -12h276q4 29 5 41t3 48q4 73 4 96q0 13 -2 45l137 -26q39 -8 53 -17
q14 -10 14 -22q0 -26 -54 -41l-42 -12q-5 -60 -15 -112zM1425 543q228 -122 343 -212q37 -29 79 -70q45 -43 68 -77q21 -30 21 -65q0 -23 -10 -38q-16 -24 -46 -24q-16 0 -27 7q-16 10 -29 29l-34 51q-80 121 -186 213q-37 32 -128 102q-29 22 -73 54z" />
  </g>

</svg>
