<?xml version="1.0" standalone="no"?>
<!DOCTYPE svg PUBLIC "-//W3C//DTD SVG 1.1//EN" "http://www.w3.org/Graphics/SVG/1.1/DTD/svg11.dtd" >
<svg xmlns="http://www.w3.org/2000/svg" xmlns:xlink="http://www.w3.org/1999/xlink" version="1.1" viewBox="0 -200 999 1000">
  <g transform="matrix(1 0 0 -1 0 800)">
   <path fill="currentColor"
d="M953 75q-14 -4 -29.5 -19.5t-27.5 -26.5q-20 30 -35.5 70.5t-27.5 94.5t-21.5 122t-16.5 153h-7q-3 -59 -14 -127.5t-32.5 -133.5t-56 -120t-85.5 -88l-11 5q75 94 111.5 215.5t42.5 248.5h-77l-40 -12l-12 34h131q3 55 5.5 109.5t5.5 111.5h-71q-5 -15 -10.5 -34.5
t-12 -39t-13.5 -38t-14 -31.5l-17 3q18 88 31.5 176t18.5 163h6l53 -50l-16 -24l-21 -101h66q0 34 0.5 74.5t0.5 88.5v49.5t-1 51.5l63 -39l-12 -66q-1 -26 -2 -46t-1.5 -38t-0.5 -35.5v-39.5h38l41 38l56 -62h-137q-2 -63 -5 -118t-5 -103h69l40 46l57 -68h-144
q17 -83 28.5 -141.5t26 -102t35 -76.5t55.5 -66zM297 218q42 72 78 181t59 265h-52l-38 -15l-13 39h116v199q-26 -8 -56 -19t-56 -11h-7l-4 11q30 11 64.5 28.5t67 36t60 36.5t43.5 30l45 -66l-33 -4q-22 -5 -43.5 -13.5t-31.5 -13.5v-214h18l37 42l46 -66h-101v-26
q45 -38 69 -78t27 -75q-4 -27 -11.5 -44t-15.5 -17q-6 0 -14 14q-11 61 -26 110t-29 69v-592q-11 -17 -22 -20t-27 -5v521q-8 -42 -24 -88.5t-35.5 -89t-40.5 -78t-39 -56.5zM97 944q57 -13 90 -41.5t35 -55.5v-8q0 -19 -5.5 -32t-16.5 -13q-6 0 -13 4.5t-15 15.5
q-12 38 -30 67.5t-50 51.5zM52 719q22 -9 42.5 -23.5t35.5 -31t24 -34.5t9 -34q0 -33 -13 -48.5t-23 -15.5q-11 0 -15.5 16t-10.5 42t-18 57.5t-38 63.5zM86 280q23 1 36.5 7t21.5 17q9 7 16.5 27t16.5 54.5t21 85t30 119.5l89 400l14 2l-120 -703q-1 -13 -4 -32.5t-6 -48
t-5 -67.5t-2 -90v-35q-10 -11 -19 -14t-17 -3q-17 0 -23.5 7.5t-6.5 17.5q0 12 1.5 30t3.5 37t3.5 35t1.5 25q0 15 -2.5 27.5t-8.5 25t-17 26.5t-28 33z" />
  </g>

</svg>
