<?xml version="1.0" standalone="no"?>
<!DOCTYPE svg PUBLIC "-//W3C//DTD SVG 1.1//EN" "http://www.w3.org/Graphics/SVG/1.1/DTD/svg11.dtd" >
<svg xmlns="http://www.w3.org/2000/svg" xmlns:xlink="http://www.w3.org/1999/xlink" version="1.1" viewBox="0 -205 1024 1024">
  <g transform="matrix(1 0 0 -1 0 819)">
   <path fill="currentColor"
d="M636 944q7 -4 8 -8q3 -7 -6 -10q-21 -6 -32 -20q-25 -32 -50 -88h330l32 42l62 -50q9 -6 6 -12q0 -6 -36 -26v-434q3 -105 -6 -176q-9 -67 -42 -95q-34 -23 -76 -38q-9 36 -38 50q-30 13 -90 28l4 16q100 -18 128 -16q28 1 44 16q15 15 24 63q6 45 4 132v474h-360
q-58 -100 -122 -164l-14 10q56 81 100 184q41 100 56 152l74 -30v0v0zM648 734q6 -3 6 -6q0 -9 -8 -12q-22 -7 -34 -22t-32 -42h156l36 40l56 -44l6 -8q1 -12 -6 -12h-150v-134h108l26 42l60 -48q3 -4 4 -8q3 -5 -6 -10h-192v-218h86v168l68 -28q3 -3 4 -6t-4 -8l-24 -12
v-90l4 -54q0 -15 -20 -24q-19 -10 -28 -8v36h-214l-30 -28l-46 48l26 18v166l68 -24q6 -4 6 -10q0 -3 -30 -20v-124h86v218h-104q-20 0 -64 -8l-20 32h188v134h-66q-42 -54 -96 -108l-12 10q50 69 82 126q30 54 46 102l64 -24v0v0zM130 892h222l38 44l62 -56q2 0 2 -6
q0 -10 -8 -10h-168v-116h48l36 40l54 -50q3 -4 4 -8q0 -9 -8 -8h-134v-108h46l34 40l50 -50q2 -4 2 -8q0 -9 -8 -8h-124v-124h86l20 28l54 -36q12 -10 -6 -22l-14 -10q1 -120 -6 -206q-9 -84 -18 -111q-10 -26 -28 -44q-18 -17 -56 -34q-6 27 -26 42q-20 13 -94 34l4 20
q44 -9 74 -16q30 -4 48 -2q18 4 30 33q12 30 18 102q6 71 4 194h-236v-12q1 -9 -16 -18q-20 -15 -40 -14l4 136v404l50 -40v0v0zM132 464h96v124h-96v-124v0v0zM132 614h96v108h-96v-108v0v0zM228 748v116h-96v-116h96v0v0zM82 368h18q7 -102 2 -140q-4 -39 -20 -56
q-14 -15 -34 -18q-21 -4 -26 14q-7 17 10 34q17 18 28 42t22 124v0v0zM186 380l12 8q55 -60 68 -90q11 -28 8 -44q-3 -15 -14 -24q-12 -10 -24 -4t-12 24t-6 48q-4 27 -32 82v0v0zM262 398l10 10q42 -44 60 -76q17 -31 14 -52q-3 -20 -14 -28q-12 -10 -24 -4q-12 5 -12 28
q1 21 -4 46q-6 24 -30 76v0v0zM122 360l14 6q38 -57 50 -90q9 -33 6 -50q-3 -19 -18 -28t-26 -2q-13 6 -10 30q1 21 2 48q0 25 -18 86v0v0z" />
  </g>

</svg>
