<?xml version="1.0" standalone="no"?>
<!DOCTYPE svg PUBLIC "-//W3C//DTD SVG 1.1//EN" "http://www.w3.org/Graphics/SVG/1.1/DTD/svg11.dtd" >
<svg xmlns="http://www.w3.org/2000/svg" xmlns:xlink="http://www.w3.org/1999/xlink" version="1.1" viewBox="0 -205 1024 1024">
  <g transform="matrix(1 0 0 -1 0 819)">
   <path fill="currentColor"
d="M226 762l60 -44h168q17 53 34 116l64 -20q9 -7 0 -16q-22 -7 -34 -22q-10 -13 -38 -58h238l30 34l60 -38q6 -6 6 -8q0 -7 -30 -28v-134l4 -64q0 -18 -14 -26q-15 -9 -42 -12v34h-452v-74h578l38 46l58 -56q6 -13 -8 -14h-666v-68h558l30 34l60 -48q3 -7 -2 -16l-24 -16
q-3 0 -8 -50q-4 -50 -14 -97q-10 -49 -34 -68q-21 -17 -66 -32q-9 36 -42 50q-33 15 -84 32l6 18q67 -17 98 -22q31 -3 50 2q18 4 24 38q6 32 12 75q3 41 6 74h-570q3 -22 -18 -32q-22 -9 -40 -6l4 88v428v0v0zM280 502h452v84h-452v-84v0v0zM280 612h452v80h-452v-80v0v0z
M350 982l76 -28q6 -2 4 -10q1 -4 -28 -22v-54h230v110l82 -30q6 -2 4 -10q1 -4 -34 -22v-48h186l40 48l60 -58q3 -3 4 -8q0 -7 -14 -8h-276v-30l2 -26q1 -16 -18 -28q-19 -10 -40 -10l4 60v34h-230v-36l4 -36q-1 -13 -20 -22q-19 -10 -40 -10l4 68v36h-212q-21 0 -68 -8
l-18 34h298v114v0v0zM172 294h22q-3 -105 -8 -132q-6 -24 -20 -45q-15 -20 -38 -26q-24 -3 -36 8q-11 10 -6 26q2 15 20 23q15 10 36 38q21 27 30 108v0v0zM298 264l14 10q45 -36 64 -62q18 -25 18 -44q1 -19 -10 -33q-13 -13 -28 -8q-16 4 -20 29q-3 23 -6 44q-3 20 -32 64
v0v0zM634 264l10 12q56 -27 80 -50q21 -21 22 -42q0 -18 -8 -30q-10 -12 -28 -8q-16 3 -20 22q-3 18 -12 40q-10 20 -44 56v0v0zM470 268l12 10q48 -36 66 -62q19 -28 20 -46q-1 -18 -10 -30q-10 -10 -28 -7q-18 2 -20 25q-3 24 -6 46q-4 20 -34 64v0v0z" />
  </g>

</svg>
