<?xml version="1.0" standalone="no"?>
<!DOCTYPE svg PUBLIC "-//W3C//DTD SVG 1.1//EN" "http://www.w3.org/Graphics/SVG/1.1/DTD/svg11.dtd" >
<svg xmlns="http://www.w3.org/2000/svg" xmlns:xlink="http://www.w3.org/1999/xlink" version="1.1" viewBox="0 -205 1024 1024">
  <g transform="matrix(1 0 0 -1 0 819)">
   <path fill="currentColor"
d="M894 836l32 42l68 -56q3 -12 -6 -12h-560v-170q4 -216 -22 -356q-24 -141 -150 -261l-12 14q102 116 120 251q18 132 16 328v262l58 -42h456v0v0zM602 974l8 12q60 -21 84 -38q24 -16 34 -34q9 -19 0 -40q-6 -20 -30 -18q-21 3 -26 24q-4 22 -16 44q-12 20 -54 50v0v0z
M434 160q118 113 206 254l64 -32q7 -7 2 -14q-23 -3 -34 -8q-10 -6 -58 -60q-48 -53 -168 -154l-12 14v0v0zM510 111l52 6q110 98 206 255l64 -38q9 -7 0 -14q-15 0 -26 -6q-11 -3 -52 -48q-39 -46 -162 -159l296 12q-25 43 -80 101l8 12q57 -36 94 -66q36 -28 52 -57
q14 -27 8 -52q-6 -23 -24 -26q-19 -3 -26 14q-6 16 -18 50q-166 -13 -232 -20q-67 -5 -122 -32l-38 68v0v0zM454 684h110v110l72 -22q9 -10 -6 -16l-20 -10v-62h22l28 32l40 -40q10 -11 -4 -16h-86v-38q39 -13 60 -26q18 -13 28 -28q7 -13 0 -28q-7 -16 -22 -14
q-15 0 -20 16q-7 14 -16 28t-30 32v-116l4 -42q0 -13 -20 -26q-19 -12 -34 -12l4 84v84q-57 -91 -110 -140l-10 10q42 63 70 118q25 56 38 98h-46q-18 0 -36 -8l-16 32v0v0zM712 684h86v110l68 -22q9 -10 -6 -16l-16 -10v-62h54l30 36l50 -44q13 -11 -4 -16h-118
q24 -59 52 -94q27 -36 48 -48q18 -13 58 -26v-12q-34 1 -40 -4q-7 -3 -28 -18q-25 18 -58 72q-31 51 -44 100v-144l4 -42q0 -13 -20 -26q-19 -12 -34 -12l4 84v74q-66 -91 -134 -136l-10 10q51 57 84 108t54 114h-44l-20 -6l-16 30v0v0zM174 980l80 -30q12 -7 0 -16l-32 -12
v-142q55 -24 86 -42q30 -18 40 -38q7 -22 2 -40q-6 -19 -26 -22q-18 -1 -26 20q-6 20 -20 46q-15 24 -56 54v-590l4 -111q1 -11 -16 -26q-17 -14 -40 -16l4 161v804v0v0zM98 726h18q1 -81 0 -120q0 -39 -18 -66q-16 -26 -38 -24q-22 3 -28 18q-6 14 6 28l22 28t20 44
q9 28 18 92v0v0z" />
  </g>

</svg>
