<?xml version="1.0" standalone="no"?>
<!DOCTYPE svg PUBLIC "-//W3C//DTD SVG 1.1//EN" "http://www.w3.org/Graphics/SVG/1.1/DTD/svg11.dtd" >
<svg xmlns="http://www.w3.org/2000/svg" xmlns:xlink="http://www.w3.org/1999/xlink" version="1.1" viewBox="0 -205 1024 1024">
  <g transform="matrix(1 0 0 -1 0 819)">
   <path fill="currentColor"
d="M112 984l60 -48h200l30 38l60 -42q6 -6 6 -8q0 -7 -30 -32v-132l4 -66q0 -18 -14 -26q-15 -7 -42 -10v24h-220v-518l4 -99q3 -15 -18 -30q-19 -17 -44 -20l4 145v824v0v0zM166 708h220v82h-220v-82v0v0zM166 816h220v94h-220v-94v0v0zM584 978l60 -44h204l34 40l60 -40
q6 -6 6 -8q0 -7 -30 -32v-777q3 -47 -14 -70q-15 -19 -60 -38q-9 35 -36 48q-24 12 -90 30l4 20q49 -9 80 -12q33 -3 48 2q18 4 16 65v520h-228v-6q0 -6 -12 -14q-11 -7 -46 -10l4 70v256v0v0zM638 708h228v80h-228v-80v0v0zM638 814h228v94h-228v-94v0v0zM326 616l56 -32
h44q24 44 40 98l62 -24q6 -7 4 -10q-1 -1 -10 -4q-7 -1 -28 -16q-19 -13 -40 -44h230l28 34l60 -36q6 -6 6 -8q0 -6 -32 -26v-84l4 -64q-1 -10 -16 -20t-38 -8v28h-322v-8q0 -9 -18 -20q-16 -9 -34 -8l4 86v166v0v0zM376 424h320v58h-320v-58v0v0zM376 506h320v54h-320v-54
v0v0zM512 390l74 -20q7 -6 2 -12q-5 -4 -28 -10v-50l62 -20q96 56 136 94l48 -38q12 -7 4 -16q-22 0 -34 -2q-13 -1 -46 -16q-33 -13 -86 -32q68 -15 106 -32q38 -18 52 -36q13 -18 8 -36q-6 -19 -24 -20q-18 0 -38 24q-22 21 -70 52q-49 30 -118 54v-118q1 -34 -16 -53
q-18 -19 -54 -32q-6 36 -36 48q-28 13 -64 21l6 18q84 -20 102 -14q16 5 14 38v208v0v0zM236 318h162l24 30l62 -40q4 -13 -6 -16q-22 -4 -32 -22q-36 -51 -92 -98q-56 -44 -136 -77l-8 14q63 35 120 91q55 54 74 94h-108q-24 0 -38 -8l-22 32v0v0z" />
  </g>

</svg>
