<?xml version="1.0" standalone="no"?>
<!DOCTYPE svg PUBLIC "-//W3C//DTD SVG 1.1//EN" "http://www.w3.org/Graphics/SVG/1.1/DTD/svg11.dtd" >
<svg xmlns="http://www.w3.org/2000/svg" xmlns:xlink="http://www.w3.org/1999/xlink" version="1.1" viewBox="0 -36 256 256">
  <g transform="matrix(1 0 0 -1 0 220)">
   <path fill="currentColor"
d="M22 9q1 22 1 113.5t-1 113.5l14 -9h35l6 9l16 -11l-7 -7q-14 -24 -26 -52q14 -15 21 -28.5t5.5 -26t-8.5 -20t-20 -11.5q-1 14 -20 19v4q12 -2 21.5 -2.5t11.5 8t-0.5 22t-17.5 34.5l18 55h-35v-202zM186 58q15 -5 23 -11.5t2 -16t-10 1t-17 23.5zM194 108l10 10l14 -17
h-48v-33h23l11 11l15 -18h-49v-36h50l12 12l16 -19h-132q-11 0 -20 -2l-9 9h70v36h-16q-10 0 -19 -2l-9 9h44v33h-20q-10 0 -19 -2l-10 9h86zM225 131h-119q0 -15 -6.5 -20t-11.5 -1t3 11.5t12 25.5h4v-9h117l6 9l16 -14q-7 -3 -12.5 -8t-14.5 -17l-3 1zM188.5 204
q3.5 -7 -1.5 -13t-8 5.5t-8 16.5l2 3q12 -5 15.5 -12zM236.5 173.5q8.5 -11.5 2 -20t-11 4t-30.5 39.5l3 3q28 -15 36.5 -26.5zM215 237q-3 -4 -4 -9.5t-4 -31.5q-2 -16 -9.5 -29.5t-23.5 -23.5l-2 3q13 14 18 28.5t6 30.5t0 40zM211 189q16 26 18 37l14 -13
q-5 -2 -13.5 -10.5t-14.5 -15.5zM114.5 203q3.5 -7 -1.5 -13t-8 5.5t-8 16.5l2 3q12 -5 15.5 -12zM163.5 173.5q8.5 -11.5 2 -20t-11 4t-30.5 39.5l3 3q28 -15 36.5 -26.5zM142 237q-3 -4 -4 -9.5t-4 -31.5q-2 -16 -9.5 -29.5t-23.5 -23.5l-2 3q13 14 18 28.5t6 30.5t0 40z
M137 190q16 25 18 36l14 -13q-5 -2 -13.5 -10.5l-14.5 -14.5z" />
  </g>

</svg>
