<?xml version="1.0" standalone="no"?>
<!DOCTYPE svg PUBLIC "-//W3C//DTD SVG 1.1//EN" "http://www.w3.org/Graphics/SVG/1.1/DTD/svg11.dtd" >
<svg xmlns="http://www.w3.org/2000/svg" xmlns:xlink="http://www.w3.org/1999/xlink" version="1.1" viewBox="0 -36 256 256">
  <g transform="matrix(1 0 0 -1 0 220)">
   <path fill="currentColor"
d="M27 234q23 -10 28 -17t0.5 -15.5t-9 3.5t-20.5 26zM10 180q29 -11 30.5 -20.5t-4 -15t-9 5.5t-18.5 27zM34.5 87.5q6.5 3.5 29.5 104.5l5 -1q-18 -86 -21 -97.5t-3.5 -23t1 -35t-9 -18t-7.5 21.5t3 27t-21 16v4q17 -2 23.5 1.5zM101 211q-16 0 -26 -2l-9 9h82
q-1 6 -3 11.5t-9 13.5l2 2q18 -8 22 -13.5t-3 -13.5h51l12 11l19 -18h-136h-2zM121 200l-6 -2q-22 -29 -31 -35l26 1q6 9 11 21l15 -12l-7 -3q-23 -30 -40 -43l26 2l4 18l17 -9l-7 -6q-16 -49 -67 -65l-1 4q38 18 53 54q-27 -6 -35 -12l-10 14q10 1 20.5 11.5t17.5 19.5
q-22 -4 -29 -10l-9 15q9 1 19.5 16.5t15.5 31.5zM199.5 196q2.5 -6 -3 -10t-8 4.5t-9.5 16.5l2 2q16 -7 18.5 -13zM144 128.5v43.5q-7 -6 -15 -12l-2 3q13 13 19.5 26.5t9.5 21.5l17 -9q-6 -3 -17 -19h61l11 8l14 -15h-46v-18h15l9 7l15 -14h-39v-20h15l9 8l15 -16h-39v-19
h22l11 9l15 -16h-87v-9l-14 -5q1 21 1 45.5zM157 158h26v18h-26v-18zM157 131h26v20h-26v-20zM157 104h26v19h-26v-19zM141 85l24 -11l-9 -8v-9h41l12 12l16 -19h-69v-27h60l13 11l18 -18h-160q-10 0 -20 -2l-9 9h84v27h-33q-11 0 -20 -2l-10 9h63q0 8 -1 28z" />
  </g>

</svg>
