<?xml version="1.0" standalone="no"?>
<!DOCTYPE svg PUBLIC "-//W3C//DTD SVG 1.1//EN" "http://www.w3.org/Graphics/SVG/1.1/DTD/svg11.dtd" >
<svg xmlns="http://www.w3.org/2000/svg" xmlns:xlink="http://www.w3.org/1999/xlink" version="1.1" viewBox="0 -36 256 256">
  <g transform="matrix(1 0 0 -1 0 220)">
   <path fill="currentColor"
d="M32 106h21v74h-21v-74zM66 106h21v74h-21v-74zM52 243l22 -11l-8 -6v-39h20l7 10l14 -12l-7 -7q0 -66 1 -83l-14 -6v10h-21v-46q0 -22 1 -36l-15 -8q1 17 1 41v49h-21v-10l-14 -5q1 31 1 58.5t-1 52.5l14 -8h21q0 14 -1 56zM119 194q0 22 -1 45l20 -10l-6 -6v-127h-13v98
zM150 193q0 14 -1 33l20 -10l-6 -6v-114h-13v97zM196 197q0 24 -1 44l21 -10l-7 -7v-128h-13v101zM216 96l13 12l17 -19h-111q-16 0 -24 -3l-8 10h113zM162 70l-8 -3q-36 -38 -63 -52l-3 3q23 17 36.5 36t19.5 30zM187 84q24 -17 38.5 -29.5t17.5 -22.5t-2 -17t-14 11
t-43 55zM214 197l12 10l16 -17h-51q-10 0 -17 -3l-7 10h47zM215 148l12 10l16 -17h-50q-11 0 -18 -2l-8 9h48z" />
  </g>

</svg>
