<?xml version="1.0" standalone="no"?>
<!DOCTYPE svg PUBLIC "-//W3C//DTD SVG 1.1//EN" "http://www.w3.org/Graphics/SVG/1.1/DTD/svg11.dtd" >
<svg xmlns="http://www.w3.org/2000/svg" xmlns:xlink="http://www.w3.org/1999/xlink" version="1.1" viewBox="0 -205 1024 1024">
  <g transform="matrix(1 0 0 -1 0 819)">
   <path fill="currentColor"
d="M62 842h312v134l84 -30q18 -7 0 -16l-32 -14v-74h176v130l82 -30q19 -7 2 -16l-32 -14v-70h202l42 54l70 -64q3 -3 4 -6q1 -10 -12 -10h-306v-22l4 -38q1 -15 -18 -26q-21 -12 -42 -12l4 64v34h-176v-30l4 -44q0 -15 -20 -26q-22 -12 -40 -12l4 84v28h-228q-24 0 -60 -8
l-24 34v0v0zM452 608l42 52l66 -64q3 -4 4 -4q0 -12 -12 -12h-288v-122h136l28 36l60 -44q6 -3 6 -8q-2 -9 -34 -24l-8 -202q-7 -84 -32 -117q-24 -33 -72 -46q-10 31 -28 44q-18 12 -90 38l8 15l86 -17q45 -3 60 13q12 16 18 80l10 206h-148q-7 -154 -52 -244
q-45 -89 -152 -159l-10 14q87 77 120 151q29 74 38 154q9 78 6 232h-58q-33 3 -68 -8l-16 36h380v0v0zM222 752l8 12q68 -24 94 -44q23 -19 32 -38q6 -18 -2 -36q-10 -18 -22 -18q-12 -1 -18 2q-6 2 -14 28q-7 24 -26 48q-17 24 -52 46v0v0zM742 726q9 -6 10 -8
q3 -7 -26 -20q29 -72 56 -122q24 -52 78 -100q54 -47 124 -58v-18q-43 0 -58 -8q-16 -6 -40 -24q-49 41 -74 80q-25 36 -50 84q-25 45 -58 148q-43 -102 -92 -186q-48 -84 -114 -144l-14 10q60 84 102 166q41 80 92 230l64 -30v0v0zM612 424l8 10q65 -23 98 -52
q32 -29 34 -52q3 -24 -8 -38t-28 -12q-15 3 -20 24q-6 20 -14 44q-10 24 -70 76v0v0zM540 220l4 16q107 -19 176 -46q65 -27 98 -55q30 -27 28 -52q-1 -25 -20 -32q-17 -7 -40 18q-22 24 -70 62q-49 37 -176 89v0v0z" />
  </g>

</svg>
