<?xml version="1.0" standalone="no"?>
<!DOCTYPE svg PUBLIC "-//W3C//DTD SVG 1.1//EN" "http://www.w3.org/Graphics/SVG/1.1/DTD/svg11.dtd" >
<svg xmlns="http://www.w3.org/2000/svg" xmlns:xlink="http://www.w3.org/1999/xlink" version="1.1" viewBox="0 -205 1024 1024">
  <g transform="matrix(1 0 0 -1 0 819)">
   <path fill="currentColor"
d="M402 940l54 -38h410l30 34l54 -40q15 -12 -2 -24l-18 -12v-82l4 -60q0 -12 -14 -18q-14 -7 -40 -10v36h-426v-26q-4 -10 -22 -16q-19 -6 -34 -6l4 92v170v0v0zM452 750h112v128h-112v-128v0v0zM612 750h106v128h-106v-128v0v0zM770 750h110v128h-110v-128v0v0zM752 688
q14 -6 2 -18q-18 -3 -32 -26q-13 -22 -38 -74h200l34 42l50 -50q3 -3 4 -8q0 -9 -8 -8h-126v-108h52l28 38l48 -48q3 -3 4 -8q-1 -7 -10 -8h-122v-100h44l34 40l48 -50q3 -3 4 -8q-1 -7 -10 -8h-120v-122h64l32 42l54 -50q3 -4 4 -10q-1 -6 -10 -7h-296v-68q3 -21 -14 -30
q-18 -14 -36 -14l4 145v330q-21 -33 -54 -78l-16 8q38 76 68 140q29 63 52 144l62 -28v0v0zM686 164h104v122h-104v-122v0v0zM686 312h104v100h-104v-100v0v0zM790 438v108h-104v-108h104v0v0zM762 706l8 8q65 -36 80 -54q14 -18 16 -36q0 -15 -8 -26q-10 -10 -26 -8
q-15 2 -18 20q-1 17 -10 34q-6 17 -42 62v0v0zM346 534l26 10q54 81 102 168l56 -34q9 -9 -2 -14q-25 0 -52 -36q-27 -34 -80 -94l100 4q22 29 56 80l54 -40q5 -12 -10 -14q-12 0 -26 -12q-13 -12 -62 -66t-110 -116l142 14q-12 18 -38 52l10 10q44 -30 68 -54
q24 -21 30 -44q6 -21 -2 -36q-6 -15 -24 -14q-16 0 -20 16q-3 14 -14 50q-72 -12 -114 -24q-42 -11 -68 -28l-34 58q26 6 44 18q28 30 104 126q-49 -10 -64 -16t-38 -14l-34 50v0v0zM378 286h22q3 -66 0 -102q-4 -37 -16 -61t-30 -30t-30 2q-14 9 -12 26t22 37q21 20 30 52
q10 32 14 76v0v0zM504 300l14 6q48 -35 70 -64q21 -29 22 -46q1 -18 -10 -32q-12 -13 -30 -8q-18 4 -18 26q0 21 -8 48q-7 24 -40 70v0v0zM436 280l14 8q38 -47 50 -70q9 -24 10 -44q1 -19 -10 -34q-12 -11 -30 -9q-19 3 -16 29q2 23 2 50q-1 24 -20 70v0v0zM52 746h146v226
l82 -34q13 -5 2 -16l-36 -18v-158h46l38 40l50 -48q3 -3 4 -8q4 -12 -10 -12h-128v-108q39 -22 64 -40q24 -19 30 -40q5 -21 -4 -36q-10 -15 -26 -12q-15 2 -20 26q-4 24 -14 46q-9 21 -30 36v-432l2 -89q0 -14 -18 -28t-36 -14l4 131v404q-37 -102 -70 -168t-78 -126l-16 8
q35 66 58 118q21 50 48 128t54 196h-70q-22 0 -52 -8l-20 36v0v0z" />
  </g>

</svg>
