<?xml version="1.0" standalone="no"?>
<!DOCTYPE svg PUBLIC "-//W3C//DTD SVG 1.1//EN" "http://www.w3.org/Graphics/SVG/1.1/DTD/svg11.dtd" >
<svg xmlns="http://www.w3.org/2000/svg" xmlns:xlink="http://www.w3.org/1999/xlink" version="1.1" viewBox="0 -205 1024 1024">
  <g transform="matrix(1 0 0 -1 0 819)">
   <path fill="currentColor"
d="M594 490q57 -18 60 -24q3 -4 0 -8q-4 -4 -16 -8q-12 -2 -36 -22h288l32 44l56 -50q3 1 4 -4q1 -10 -12 -14h-226q47 -42 86 -66q36 -21 72 -36q32 -12 92 -20v-14q-27 -4 -48 -14q-19 -10 -28 -26q-39 21 -72 46q-33 24 -68 60q-36 35 -60 70h-140q-67 -56 -136 -100
q-70 -43 -158 -82l-8 14q80 49 134 86q53 36 106 82h-126q-19 -1 -68 -10l-16 34h232q26 22 56 62v0v0zM398 724l60 -22q10 -7 2 -10q1 -1 -16 -10v-28h174v88l66 -20q8 -3 8 -6q3 -7 -2 -10l-22 -16v-36h170v66l66 -20q2 -3 2 -6q0 -4 -20 -16v-30l4 -16q-3 -9 -20 -20
q-18 -10 -32 -10v28h-170v-104h184v62l64 -20q3 -2 4 -10q1 -3 -22 -18v-32l4 -16q-3 -12 -18 -20q-16 -10 -32 -10v40h-416l-24 -30l-54 36l26 24v74l60 -24q10 -3 8 -12q0 -5 -24 -16v-28h190v104h-170l-22 -22l-48 34q19 18 20 18v64v0v0zM408 976l58 -22h362l24 24
l52 -38q6 -6 6 -8q-1 -6 -28 -26v-94l4 -50q-1 -12 -16 -20q-16 -8 -40 -6v22h-372v-8q0 -1 -18 -8q-18 -4 -36 -4l4 68v170v0v0zM460 782h370v56h-370v-56v0v0zM460 862h370v68h-370v-68v0v0zM618 358l80 -26q5 -4 2 -10q-1 -4 -34 -20v-66q60 36 90 66q51 -33 52 -38
q-1 -6 -4 -8q-4 -1 -22 -4q-19 -2 -44 -10q-24 -9 -72 -30q90 -21 132 -38q42 -19 70 -35q25 -18 24 -42q0 -21 -18 -28q-18 -4 -32 10q-13 15 -28 32q-15 16 -48 33q-32 18 -100 46v-101q1 -27 -16 -42q-18 -12 -50 -28q-7 34 -34 46q-27 9 -74 24l4 18q72 -11 96 -14
q25 -3 26 26v239v0v0zM464 300q54 -12 72 -24q18 -13 24 -28q4 -15 -4 -26q-9 -10 -24 -10t-24 24q-7 24 -50 52l6 12v0v0zM594 214l8 -18q-178 -82 -194 -117l-42 50l228 85v0v0zM260 966l56 -42q9 -5 4 -16q1 0 -16 -2q-17 0 -88 -66q-72 -65 -176 -148l-14 12
q168 161 234 262v0v0v0zM336 694q9 -6 6 -12q1 -3 -10 -8q-26 -3 -58 -42q-30 -39 -54 -80v-398l4 -93q0 -14 -20 -28q-21 -12 -36 -12l4 133v338q-70 -91 -142 -160l-10 12q81 108 150 214q68 105 100 180l66 -44v0v0z" />
  </g>

</svg>
