<?xml version="1.0" standalone="no"?>
<!DOCTYPE svg PUBLIC "-//W3C//DTD SVG 1.1//EN" "http://www.w3.org/Graphics/SVG/1.1/DTD/svg11.dtd" >
<svg xmlns="http://www.w3.org/2000/svg" xmlns:xlink="http://www.w3.org/1999/xlink" version="1.1" viewBox="0 -36 256 256">
  <g transform="matrix(1 0 0 -1 0 220)">
   <path fill="currentColor"
d="M215 203h-174q2 -17 -3.5 -24t-17 -6t-4.5 8t11.5 15t8.5 25h4l1 -11h85q0 16 -17 34l2 2q29 -10 31 -18.5t-7 -17.5h79l10 13l22 -19q-22 -3 -39 -26l-5 2zM52 182l22 -9l-8 -7v-28h56v36q0 11 -1 22l23 -10l-8 -7v-41h55q0 31 -1 44l23 -10l-8 -6v-16q0 -12 1 -23
l-15 -6v10h-124l-8 -7l-15 12l9 6q0 29 -1 40zM113 131l25 -11l-8 -6l-3 -9h74l7 12l17 -12l-8 -8q-5 -40 -9 -56.5t-12 -24t-20 -9.5q-2 13 -29 19l-1 5q29 -4 36.5 -3.5t12 20t6.5 50.5h-76q-7 -23 -16.5 -39t-30.5 -28t-62 -21l-1 4q50 17 68 35.5t26 48.5h-54
q-11 0 -20 -2l-10 9h86q2 15 2 26z" />
  </g>

</svg>
