<?xml version="1.0" standalone="no"?>
<!DOCTYPE svg PUBLIC "-//W3C//DTD SVG 1.1//EN" "http://www.w3.org/Graphics/SVG/1.1/DTD/svg11.dtd" >
<svg xmlns="http://www.w3.org/2000/svg" xmlns:xlink="http://www.w3.org/1999/xlink" version="1.1" viewBox="0 -205 1024 1024">
  <g transform="matrix(1 0 0 -1 0 819)">
   <path fill="currentColor"
d="M358 930h520l38 48l54 -52q3 -2 10 -10q0 -13 -12 -10h-208v-116h112l24 34l56 -38q6 -3 6 -6q0 -7 -24 -28v-118l4 -64q0 -15 -12 -24q-13 -7 -40 -14v36h-452v-20q0 -15 -20 -26q-17 -12 -34 -12l4 102v212l48 -34h118v116h-108q-21 0 -68 -8l-16 32v0v0zM434 594h116
v172h-116v-172v0v0zM598 594h114v172h-114v-172v0v0zM760 594h126v172h-126v-172v0v0zM712 790v116h-114v-116h114v0v0zM416 480h408l30 38l48 -48q3 -3 4 -6q0 -9 -12 -8h-394q-21 0 -68 -8l-16 32v0v0zM324 364h572l36 48l56 -56q6 -4 6 -10q-1 -8 -14 -6h-294v-231
q1 -48 -22 -66q-21 -19 -54 -26q-7 33 -40 48t-78 24l6 18q105 -25 120 -20q18 5 16 40v213h-226q-21 0 -68 -8l-16 32v0v0zM542 256q6 -3 6 -6q2 -7 -10 -14q-31 -3 -88 -54q-55 -51 -158 -123l-10 12q105 95 202 221l58 -36v0v0zM758 282q84 -39 132 -72q47 -33 62 -56
q14 -21 14 -37q0 -15 -6 -24q-3 -9 -14 -12q-12 -3 -24 2q-12 6 -20 26q-7 21 -38 59q-30 36 -114 100l8 14v0v0zM324 942q20 -16 -4 -22q-31 0 -100 -72q-70 -69 -172 -156l-10 14q114 120 232 276l54 -40v0v0zM276 758l64 -38q8 -6 8 -12q1 -5 -16 -10q-21 -3 -48 -44
q-24 -40 -54 -88v-408l4 -91q2 -16 -22 -30q-24 -12 -36 -12l4 127v356q-43 -69 -140 -162l-10 12q81 106 150 218t96 182v0v0v0z" />
  </g>

</svg>
