<?xml version="1.0" standalone="no"?>
<!DOCTYPE svg PUBLIC "-//W3C//DTD SVG 1.1//EN" "http://www.w3.org/Graphics/SVG/1.1/DTD/svg11.dtd" >
<svg xmlns="http://www.w3.org/2000/svg" xmlns:xlink="http://www.w3.org/1999/xlink" version="1.1" viewBox="0 -205 1024 1024">
  <g transform="matrix(1 0 0 -1 0 819)">
   <path fill="currentColor"
d="M748 940q3 -3 4 -6q0 -6 -18 -12q-15 -4 -30 -22q-13 -17 -40 -70h214l32 42l58 -48q9 -6 10 -14q1 -7 -12 -10q-15 -3 -30 -20q-15 -18 -36 -54q-18 -37 -62 -98q-42 -60 -92 -110q-51 -51 -104 -90h236l30 40l62 -42q6 -7 6 -10q0 -7 -32 -28v-216l4 -93q3 -12 -12 -22
q-15 -9 -42 -12v66h-284v-34q2 -17 -16 -28q-19 -12 -38 -12l4 119v212q-91 -60 -196 -104l-6 16q84 46 202 128v50l42 -20q54 45 108 100q53 54 98 126q45 70 76 140h-238q-27 -51 -54 -92q57 -36 82 -54q24 -18 30 -38q6 -21 -2 -38q-9 -18 -26 -18q-19 -1 -22 20
q-4 21 -16 48t-56 64q-63 -97 -128 -158l-10 12q74 101 134 218q59 116 98 212l72 -40v0v0zM610 137h284v265h-284v-265v0v0zM86 878q75 -78 94 -108q16 -30 14 -54q-1 -24 -14 -32q-13 -10 -26 -4q-13 4 -16 32q-1 27 -14 64q-13 33 -50 94l12 8v0v0zM278 634h86l32 46
l52 -54q3 -3 4 -8q0 -10 -12 -10h-162v-76q51 -24 96 -60q44 -33 52 -56q6 -23 -2 -40q-6 -16 -24 -14t-24 20q-7 17 -32 56q-24 39 -66 72v-346l4 -91q0 -14 -18 -26q-18 -14 -36 -14l4 129v348q-48 -114 -96 -186t-104 -138l-12 10q50 75 86 138q33 64 66 146
q32 80 44 128h-100q-21 0 -56 -8l-16 34h188v360l74 -36q3 -1 4 -2q9 -6 0 -12l-32 -18v-292v0v0zM308 678q66 134 88 212q74 -36 76 -42q1 -7 -10 -10q-10 -4 -28 -16q-19 -12 -112 -152l-14 8v0v0z" />
  </g>

</svg>
