<?xml version="1.0" standalone="no"?>
<!DOCTYPE svg PUBLIC "-//W3C//DTD SVG 1.1//EN" "http://www.w3.org/Graphics/SVG/1.1/DTD/svg11.dtd" >
<svg xmlns="http://www.w3.org/2000/svg" xmlns:xlink="http://www.w3.org/1999/xlink" version="1.1" viewBox="0 -144 1024 1024">
  <g transform="matrix(1 0 0 -1 0 880)">
   <path fill="currentColor"
d="M820 608h-119v21h156l54 54l64 -54v-21h-91v-479l-1 -13l-2 -14l-4 -12l-7 -13l-9 -11l-11 -8l-12 -7l-13 -4l-14 -3l-13 -1v33l-107 16v16h107h7l4 1l5 2l2 2l2 5l1 5l1 6v479zM239 804l57 -33l10 -16l-20 -2l-32 -61l-47 -77l-23 -33l25 -4l17 -11l-17 -10v-477
l-64 -32v482l-48 -57l-32 -32l-33 -31l-7 6l73 112l45 75l41 76l36 79zM285 197l-1 3l169 49l2 1v547h-166v22h342l44 48l54 -48v-22h-209v-529l138 36l117 26l3 -9l-214 -84l-239 -90l-5 -20l-15 12zM284 200l21 -61l-32 58zM226 976l52 -39l7 -18l-20 1l-43 -53l-42 -45
l-45 -44l-51 -41l-28 -20l-6 7l113 152l32 48l26 43h-1zM895 920l54 -49v-21h-226v21h128z" />
  </g>

</svg>
