<?xml version="1.0" standalone="no"?>
<!DOCTYPE svg PUBLIC "-//W3C//DTD SVG 1.1//EN" "http://www.w3.org/Graphics/SVG/1.1/DTD/svg11.dtd" >
<svg xmlns="http://www.w3.org/2000/svg" xmlns:xlink="http://www.w3.org/1999/xlink" version="1.1" viewBox="0 -154 1024 1024">
  <g transform="matrix(1 0 0 -1 0 870)">
   <path fill="currentColor"
d="M913 883v-719q3 -73 -7 -95q-11 -22 -75 -34q0 31 -60 52l-62 17l2 16q110 -23 134 -21t24 51v748h-393q-27 0 -43 -13l-32 33h452l30 41l51 -43q18 -13 0 -19zM98 879l90 -36q14 -6 6 -11q-21 -9 -31 -21v-645l4 -98q0 -21 -14 -31q-14 -9 -41 -15q4 39 7 191v608
q2 15 -30 46zM168 983l5 14q63 -19 108 -58q42 -39 47 -76q3 -36 -18 -45q-22 -9 -30 28q-8 36 -35 76q-28 35 -77 61zM488 869l60 -25q13 -8 6 -11q-21 -2 -34 -14q-25 -28 -45 -51h181l22 32l44 -38q11 -9 -4 -13l-13 -7v-208l3 -58q-1 -31 -45 -33v21h-274v-1
q-3 -29 -46 -34q3 30 5 119v212q-4 17 -14 33l11 8l29 -33h84l11 23q23 42 24 51q-1 10 -11 23zM480 455l74 -21q5 -4 -2 -7q-14 -5 -25 -11q-4 -36 -12 -66h200l21 31l55 -39q12 -10 -5 -10h-231q33 -59 63 -85q63 -46 106 -58q21 -7 37 -10q18 -4 56 -8v-12q-30 -4 -42 -7
q-11 -2 -24 -22q-48 20 -86 40q-38 19 -72 62q-36 39 -55 100h-28q-10 -30 -23 -55q-59 -112 -239 -154l-7 14q72 20 131 60q60 39 89 106q6 14 11 29h-157q-21 0 -33 -9l-27 27h222q13 38 10 71q1 14 -14 26zM389 670h274v82h-274v-82zM663 653h-274v-78h274v78zM663 558
h-274v-78h274v78zM575 437l5 11q76 -20 91 -49q14 -36 -14 -39q-11 2 -14 15q-3 12 -17 29q-14 14 -51 33z" />
  </g>

</svg>
