<?xml version="1.0" standalone="no"?>
<!DOCTYPE svg PUBLIC "-//W3C//DTD SVG 1.1//EN" "http://www.w3.org/Graphics/SVG/1.1/DTD/svg11.dtd" >
<svg xmlns="http://www.w3.org/2000/svg" xmlns:xlink="http://www.w3.org/1999/xlink" version="1.1" viewBox="0 -36 256 256">
  <g transform="matrix(1 0 0 -1 0 220)">
   <path fill="currentColor"
d="M100 159l2 -3l-38 -26v-91q0 -10 -4.5 -15t-13.5 -9q-3 13 -25 21v4q19 -3 24.5 -3t5.5 7v78q-28 -17 -31 -23l-12 17q9 1 43 18q0 29 -1 49l10 -6l19 37h-38q-10 0 -19 -2l-9 9h65l7 9l15 -14q-5 -3 -13 -12t-23 -30l8 -5l-8 -5v-24zM171 142h37v19h-37v-19zM122.5 100
q-14.5 -2 -24.5 -6l-7 17q14 0 67 3v21h-37v-1l-13 -6v23v31v19l13 -7h37v15h-32q-10 0 -19 -2l-9 9h60q0 8 -1 30l22 -9l-8 -8v-13h44l13 13l16 -20h-73v-15h36l6 8l13 -10l-5 -5v-33q0 -7 1 -16l-14 -6v3h-37v-21q7 1 44 3q-3 4 -17 14l1 3q31 -12 37.5 -20.5t2 -15.5
t-9.5 0.5t-10 13.5q-82 -10 -96.5 -12zM121 168h37v19h-37v-19zM171 168h37v19h-37v-19zM121 142h37v19h-37v-19zM198 36q1 -22 -21 -28q-5 9 -12.5 12t-22.5 7v4q29 -3 36 -2.5t7 12.5v33h-81q-10 0 -19 -2l-9 9h109q0 16 -1 24l20 -10l-6 -5v-9h22l11 12l17 -19h-50v-38z
M134 55.5q4 -6.5 -1.5 -15.5t-10 2.5t-20.5 27.5l2 2q26 -10 30 -16.5z" />
  </g>

</svg>
