<?xml version="1.0" standalone="no"?>
<!DOCTYPE svg PUBLIC "-//W3C//DTD SVG 1.1//EN" "http://www.w3.org/Graphics/SVG/1.1/DTD/svg11.dtd" >
<svg xmlns="http://www.w3.org/2000/svg" xmlns:xlink="http://www.w3.org/1999/xlink" version="1.1" viewBox="0 -205 1048 1024">
  <g transform="matrix(1 0 0 -1 0 819)">
   <path fill="currentColor"
d="M696 387q-23 2 -30 -14.5t-12 -16.5q-7 0 -34 10q-144 55 -228 121q-82 -70 -173 -116l8 -13h303l17 20q7 10 9 10t12 -12l20 -20q16 -17 16 -24t-24 -10v-231q-2 -9 -23 -12q-14 -4 -17 -4q-4 0 -5 3v14q1 14 1 22h-317q0 -39 1 -37q-2 -6 -24 -9q-11 -3 -15 -3
q-5 0 -7 5q-1 3 0 13q1 19 1 27v241q-51 -27 -108 -45l-8 12q38 13 132 63q108 62 175 127q-70 71 -105 160q-39 -56 -70.5 -90.5t-98.5 -79.5l-7 8q52 44 104.5 120.5t78.5 167.5l37 -18q24 -11 24 -18t-29 -12q-5 -14 -20 -42h206l16 21q10 14 12 14q4 0 17 -15l27 -27
q17 -20 17 -28q0 -11 -44 -11q-47 -87 -108 -150q51 -36 132 -68.5t146 -41.5zM536 136v200h-317v-200h317zM940 181q0 -73 -39 -90l-35 -17q-16 -7 -23 -7q-6 0 -6 18.5t-16 25.5l-96 30l3 10l105 -18q13 -2 23 -2q22 0 30 14t8 51v784l42 -9q33 -6 33 -18q0 -11 -29 -21
v-751zM686 847q15 -21 15 -29q0 -10 -20 -10q-11 0 -29 2l-78 -80l-9 8l52 102h-451q-7 -90 -42 -129q-18 -19 -32 -19q-15 0 -15 25q0 12 4 28q8 18 26.5 37.5t25.5 36.5q12 29 15 87l17 -1q1 -14 1 -44h192v77l-4 42l48 -12q33 -8 33 -17q0 -7 -33 -20v-70h207l22 26
q10 12 12 12q5 0 19 -19zM782 312q0 -15 1 -29.5t1 -17.5q0 -18 -27 -25q-11 -4 -15 -4t-5 5.5t-1 25.5q1 28 1 44v575l41 -9q35 -8 35 -16.5t-31 -19.5v-529zM271 682q15 -35 49 -79.5t69 -71.5q69 79 99 151h-217z" />
  </g>

</svg>
