<?xml version="1.0" standalone="no"?>
<!DOCTYPE svg PUBLIC "-//W3C//DTD SVG 1.1//EN" "http://www.w3.org/Graphics/SVG/1.1/DTD/svg11.dtd" >
<svg xmlns="http://www.w3.org/2000/svg" xmlns:xlink="http://www.w3.org/1999/xlink" version="1.1" viewBox="0 -36 256 256">
  <g transform="matrix(1 0 0 -1 0 220)">
   <path fill="currentColor"
d="M108 212l-6 -6l-2 -25h2l10 9l14 -16h-88q-10 0 -19 -2l-9 9h32l4 26h-4q-9 0 -15 -2l-9 9h29l4 32l17 -11l-6 -5l-3 -16h30l6 9zM90 207h-32l-4 -26h34zM76 15l-15 -8q1 18 1 49h-30l-5 -6l-12 12q5 3 8 10l4 15l15 -10l-6 -3l-4 -11h30v26h-21q-10 0 -19 -2l-9 9h49v23
h-22v-1l-13 -7q1 13 1 26t-1 28l15 -9h49l8 10l13 -14l-7 -4q0 -22 1 -28l-13 -6v5h-18v-23h22l10 11l15 -18h-47v-26h26l9 10l14 -17h-49q0 -26 1 -41zM40 149v-23h53v23h-53zM174.5 224q-3.5 -6 -10.5 -22h49l8 10l14 -13l-8 -6q-16 -32 -37 -61q27 -32 57 -42v-3
q-12 -2 -17 -11q-29 20 -48 47q-6 -7 -20.5 -19t-41.5 -25l-1 4q38 23 57 50q-13 20 -24 48l3 6q16 -31 28 -45q19 29 30 53h-51q-19 -39 -43 -59l-2 3q31 41 47 106l18 -10q-4 -5 -7.5 -11zM136 72q2 -36 -4.5 -44.5t-14.5 -6.5t-2.5 8t9.5 14t9 30zM155 74
q13 -16 17 -28.5t-3 -20t-8.5 8.5t-8.5 38zM187 76q20 -23 22 -33t-4.5 -17t-8.5 8t-12 40zM214 79q25 -24 28 -35.5t-3 -18.5t-10 9.5t-18 42.5z" />
  </g>

</svg>
