<?xml version="1.0" standalone="no"?>
<!DOCTYPE svg PUBLIC "-//W3C//DTD SVG 1.1//EN" "http://www.w3.org/Graphics/SVG/1.1/DTD/svg11.dtd" >
<svg xmlns="http://www.w3.org/2000/svg" xmlns:xlink="http://www.w3.org/1999/xlink" version="1.1" viewBox="0 -339 2048 2048">
  <g transform="matrix(1 0 0 -1 0 1709)">
   <path fill="currentColor"
d="M1442 586q40 65 67 115q22 41 60 119h-512q-154 0 -190 -8l-32 80q26 -6 44 -8q67 -10 178 -10h520l62 76l103 -68q23 -15 33 -31q6 -7 6 -18q0 -9 -5 -14q-15 -15 -45 -20l-26 -5q-26 -7 -32 -8q-15 -20 -54 -66q-79 -91 -116 -134h172l68 77l84 -55q27 -17 34 -29
q6 -9 6 -19q0 -16 -11 -26q-13 -11 -31 -19q-12 -6 -28 -13v-262l51 -42q6 -5 6 -17q0 -10 -6 -18q-4 -7 -11 -7h-864v-44q0 -23 -17 -32q-16 -9 -41 -9q-26 0 -37 9q-7 5 -10 13t-3 24l12 204v327l120 -62h445zM973 212h726v321h-726v-321zM540 1581l68 80l83 -54
q27 -17 34 -29q6 -10 6 -20q0 -15 -12 -26q-11 -11 -30 -19l-25 -12l-12 -5v-865l39 -33q16 -13 16 -26q0 -8 -6 -17q-4 -7 -11 -7h-420v-102q0 -26 -36 -26q-33 0 -50 17q-6 5 -10 15q-4 13 -4 24v30l5 75q3 52 3 183v771q-2 70 -9 107q-2 12 -7 31l122 -92h256zM270 606
h289v921h-289v-921zM1260 1585l123 -48q31 -13 39 -18q7 -6 11 -15q1 -5 1 -6q0 -7 -6 -14q-9 -10 -38 -15l-38 -8q48 -58 140 -126q149 -111 303 -170q53 -21 121 -39q28 -8 58 -14l-1 -32q-31 -1 -46 -6q-38 -14 -60 -67q-87 34 -144 66q-105 57 -217 156q-63 55 -112 112
q-33 37 -81 102q-65 -86 -108 -133q-76 -83 -160 -144q-61 -43 -143 -85q-51 -27 -108 -49l-67 -26l-16 35q119 58 216 129q58 42 124 107q43 43 91 107q39 53 77 120q24 40 41 81zM970 1104q30 -8 52 -12q74 -12 177 -12h242l88 88l120 -94q10 -8 14 -20q1 -3 1 -6
q0 -7 -6 -17q-5 -9 -17 -9h-442q-91 0 -169 -4q-8 0 -20 -2zM1588 1936l92 -20q46 -9 65 -19q15 -7 17 -18q2 -13 -8 -25q-9 -10 -23 -14l-53 -14l-17 -122l70 -1l90 95l121 -91q7 -5 12 -14q5 -10 5 -19q0 -13 -8 -21q-6 -6 -17 -6h-281l-19 -162q-1 -15 -13 -23
q-14 -10 -41 -10q-21 0 -31 8q-5 4 -6 12q-1 12 -1 18l17 157l-82 -1q-34 0 -74 -4q-8 -1 -15 -2l-40 88q19 -7 39 -11q62 -13 93 -13l86 -1l14 125q1 13 8 108zM718 1721q41 -8 78 -12q67 -6 109 -6l61 1l-9 89l-8 84q-2 15 -9 59l112 -13q45 -5 59 -14t14 -22q0 -7 -3 -12
q-10 -16 -32 -24l-48 -18l12 -130h53l78 79l116 -85q14 -10 14 -25q0 -8 -5 -15q-6 -10 -19 -10h-233l14 -159q2 -12 -4 -21q-6 -8 -24 -13q-18 -6 -37 -6q-12 0 -19 5q-12 7 -13 29l-5 165h-65q-82 0 -103 -2q-39 -4 -49 -5z" />
  </g>

</svg>
