<?xml version="1.0" standalone="no"?>
<!DOCTYPE svg PUBLIC "-//W3C//DTD SVG 1.1//EN" "http://www.w3.org/Graphics/SVG/1.1/DTD/svg11.dtd" >
<svg xmlns="http://www.w3.org/2000/svg" xmlns:xlink="http://www.w3.org/1999/xlink" version="1.1" viewBox="0 -36 256 256">
  <g transform="matrix(1 0 0 -1 0 220)">
   <path fill="currentColor"
d="M61 216l15 -10h66q-1 7 -4.5 16t-12.5 21l2 2q19 -11 25.5 -20.5t-3.5 -18.5h60l13 12l18 -19h-164q0 -45 -1 -76t-13 -59.5t-44 -54.5l-2 3q40 38 46 108q-28 -20 -37 -34l-13 15q17 5 50 24q0 67 -1 91zM44.5 167.5q5.5 -8.5 -2 -17t-10 6.5t-11.5 29l2 3
q16 -13 21.5 -21.5zM108 141q0 17 -1 35l14 -7q71 9 90 21l15 -19q-18 0 -43.5 -2.5t-61.5 -5.5v-21h79l14 11l16 -18h-42v-39h30l12 11l15 -18h-141q-13 1 -24 -2l-9 9h37v45zM121 96h54v39h-54v-39zM92 75l21 -10l-7 -7v-30h43v33q0 15 -1 27l21 -10l-7 -7v-43h45
q0 29 -1 46l21 -8l-7 -6q0 -27 1 -42l-14 -6v9h-100l-7 -7l-13 13l6 6q0 29 -1 42z" />
  </g>

</svg>
