<?xml version="1.0" standalone="no"?>
<!DOCTYPE svg PUBLIC "-//W3C//DTD SVG 1.1//EN" "http://www.w3.org/Graphics/SVG/1.1/DTD/svg11.dtd" >
<svg xmlns="http://www.w3.org/2000/svg" xmlns:xlink="http://www.w3.org/1999/xlink" version="1.1" viewBox="0 -205 1048 1024">
  <g transform="matrix(1 0 0 -1 0 819)">
   <path fill="currentColor"
d="M986 417q-30 9 -45 -10q-12 -17 -17 -17q-8 0 -43 34q-83 81 -139 193h-194q-52 -86 -110.5 -134.5t-146.5 -84.5l-6 13q85 38 141 94q42 43 81 112h-172v21h182q24 50 39 111h-118v21h124q12 47 17 76t17 131l50 -9q37 -6 37 -18q0 -13 -39 -25l-12 -68q-5 -29 -24 -87
h151l23 34q13 19 20 19q6 0 23 -19l41 -41l-4 -14h-143q22 -72 44 -111h107l27 36q15 23 22 23q6 0 26 -23l39 -41l-6 -16h-204q84 -129 219 -185zM380 921l-177 -584q-7 -25 -7 -51q0 -33 18 -79q19 -51 22 -71q8 -58 -27 -58q-31 0 -37 46l-4 107q-8 70 -55 98l-40 11
l2 13l40 -5q42 -2 56 45l195 531zM735 638q-26 58 -37 111h-97q-14 -52 -42 -111h176zM184 633q3 -10 3 -18q0 -25 -15 -25q-5 0 -51 54q-50 58 -62 66l9 8q99 -46 116 -85zM274 857q4 -11 4 -20q0 -22 -15 -22q-12 0 -23 19q-29 53 -95 100l7 9q63 -30 77 -38
q37 -22 45 -48zM709 502l21 28q10 8 11 8q3 0 17 -8l34 -34l-11 -14h-299v20h227zM816 415q11 16 14 16q7 0 20 -14l33 -40l-10 -13h-215v-205q0 -43 -4 -52q-7 -12 -43 -28q-17 -7 -25 -7q-7 0 -9.5 19t-21.5 25l-71 23l4 12l81 -13q17 -3 26 -3q16 0 19 10q1 3 1 28v191
h-215v20h394zM727 308q86 -48 104 -62q34 -24 46 -55q4 -12 4 -23q0 -20 -15 -20t-27 22q-31 55 -119 127zM520 301q18 -13 18 -21q0 -9 -31 -11q-56 -79 -159 -141l-7 12q87 66 145 183zM498 925l-48 21q-19 -88 -56 -168q-28 -64 -75 -135l6 -7q56 54 97 119q36 58 70 139
q26 1 31 10q5 8 -25 21zM738 925l-2 -8q40 -29 88 -78q45 -46 59 -68q11 -31 27 -42q15 -12 26 -4q11 9 9 30q-1 24 -18 50q-27 31 -79 66q-60 40 -110 54z" />
  </g>

</svg>
