<?xml version="1.0" standalone="no"?>
<!DOCTYPE svg PUBLIC "-//W3C//DTD SVG 1.1//EN" "http://www.w3.org/Graphics/SVG/1.1/DTD/svg11.dtd" >
<svg xmlns="http://www.w3.org/2000/svg" xmlns:xlink="http://www.w3.org/1999/xlink" version="1.1" viewBox="0 -36 256 256">
  <g transform="matrix(1 0 0 -1 0 220)">
   <path fill="currentColor"
d="M32 235q21 -10 26 -17t0.5 -15.5t-9.5 3.5t-19 26zM14 181q27 -11 29 -20t-2.5 -14.5t-9 5.5t-18.5 26zM38 89.5q5 3.5 28 103.5l5 -1q-17 -85 -20 -96.5t-3.5 -22.5t1 -34.5t-8.5 -18t-7 21.5t3 26.5t-21 15.5v4q18 -2 23 1.5zM88 67h42l4 51h-40zM117 235q-3 -2 -6 -7
t-9 -16h33l11 12l14 -19h-61q-8 -11 -15 -20t-15 -16l-2 2q10 15 18.5 33t14.5 42zM117 32q6 -1 8 4.5t4 22.5h-41l-7 -8l-13 12l7 6l6 49q-1 0 -10 -2l-9 9h20l5 63l14 -8h35l5 9l16 -11l-7 -7l-3 -46h1l8 9l11 -16h-20l-4 -51h3l7 9l13 -17h-24q-2 -20 -4 -28t-6.5 -12.5
t-14.5 -7.5q-1 11 -18 20l1 4q11 -2 17 -3zM122.5 149q4.5 -8 -2.5 -16t-8 4t-6 27l3 1q9 -8 13.5 -16zM121 90.5q3 -7.5 -4 -14.5t-8 5.5t-7 28.5l3 1q13 -13 16 -20.5zM95 125h39l3 48h-37zM177 93l16 -10l-7 -6q-12 -28 -33 -49l-2 3q22 35 26 62zM232.5 101
q-2.5 11 -4.5 18q-11 -2 -19 -4v-84q-2 -17 -18 -21q0 14 -24 19l1 5q32 -6 29 2v76q-20 -5 -29 -10l-9 15q12 0 45 49q-25 -4 -38 -10l-8 15q10 2 22 24t20 47l19 -11l-9 -5q-19 -35 -36 -54q14 0 33 1q7 10 15 29l18 -14l-8 -3q-25 -35 -54 -67q19 3 47 7q-3 10 -8 18l3 2
q29 -28 22 -41.5t-9.5 -2.5zM240.5 35.5q-6.5 -6.5 -9 10.5t-17.5 42l2 2q25 -22 28 -35t-3.5 -19.5z" />
  </g>

</svg>
