<?xml version="1.0" standalone="no"?>
<!DOCTYPE svg PUBLIC "-//W3C//DTD SVG 1.1//EN" "http://www.w3.org/Graphics/SVG/1.1/DTD/svg11.dtd" >
<svg xmlns="http://www.w3.org/2000/svg" xmlns:xlink="http://www.w3.org/1999/xlink" version="1.1" viewBox="0 -205 1024 1024">
  <g transform="matrix(1 0 0 -1 0 819)">
   <path fill="currentColor"
d="M650 764h192l38 46l60 -48q6 -4 6 -8q0 -6 -30 -30v-566l4 -93q0 -12 -20 -22q-18 -12 -38 -12v108h-314v-80q0 -14 -20 -26q-18 -12 -36 -10l4 129v652l54 -40h72q39 156 46 204q80 -30 82 -38q1 -7 -10 -10q-9 -3 -24 -18q-16 -12 -28 -42q-13 -30 -38 -96v0v0z
M548 164h314v286h-314v-286v0v0zM548 476h314v262h-314v-262v0v0zM80 860q81 -72 96 -102q15 -31 12 -56q-1 -24 -14 -32q-12 -10 -24 -4q-13 6 -16 34q-1 27 -14 64q-11 33 -52 88l12 8v0v0zM280 622h94l32 46l60 -54q3 -3 4 -8q0 -10 -12 -10h-178v-90q66 -27 106 -56
q39 -27 48 -54q6 -25 -2 -40q-9 -16 -26 -14q-18 2 -24 20q-7 17 -32 56q-25 36 -70 66v-332l4 -91q0 -12 -20 -24q-21 -12 -38 -12l4 125v348q-49 -106 -98 -178q-48 -71 -96 -124l-12 10q39 62 76 128q36 64 70 140q33 74 48 122h-106q-27 0 -62 -8l-16 34h196v354l80 -36
l2 -2q6 -6 -6 -12l-26 -18v-286v0v0zM312 660q65 141 86 216q75 -34 76 -40q1 -7 -10 -10q-11 -4 -28 -16q-15 -11 -110 -160l-14 10v0v0z" />
  </g>

</svg>
