<?xml version="1.0" standalone="no"?>
<!DOCTYPE svg PUBLIC "-//W3C//DTD SVG 1.1//EN" "http://www.w3.org/Graphics/SVG/1.1/DTD/svg11.dtd" >
<svg xmlns="http://www.w3.org/2000/svg" xmlns:xlink="http://www.w3.org/1999/xlink" version="1.1" viewBox="0 -246 2048 2048">
  <g transform="matrix(1 0 0 -1 0 1802)">
   <path fill="currentColor"
d="M1084 1453v-358q0 -407 -86 -639q-72 -195 -242 -369l-41 31q250 320 250 944v514q86 -41 133 -72h240q-6 158 -6 434q190 -10 190 -53q0 -18 -76 -49q1 -67 1 -199q0 -92 1 -127h295l80 90q49 -36 107 -102l-23 -39h-456q6 -201 28 -362q26 -174 76 -324
q121 232 186 483q154 -73 154 -120q0 -29 -80 -29q-82 -238 -217 -463q60 -164 123 -258q41 -63 57 -63q40 0 86 370l51 -29q-28 -282 -28 -352q0 -101 49 -123q-25 -67 -84 -67q-63 0 -158 113q-96 114 -172 292q-175 -250 -477 -418l-33 41q263 186 467 494
q-108 322 -137 809h-258zM447 1153v298h-291l-20 51h403q66 168 133 424q168 -55 168 -90q0 -24 -82 -39q-77 -164 -163 -295h127l75 115q55 -60 103 -125l-27 -41h-309v-298h143l84 115q65 -65 105 -129l-21 -37h-311v-289q167 46 303 92l10 -55q-131 -59 -315 -125
q-8 -235 -116 -399q-88 -135 -255 -240l-39 39q266 223 291 559q-135 -45 -201 -63q-15 -80 -37 -80q-36 0 -94 172q160 28 336 71v318h-258l-17 51h275zM1729 1596q-59 0 -65 76q-10 97 -91 178l27 32q197 -95 197 -210q0 -76 -68 -76zM354 1530q-41 0 -51 84
q-15 147 -108 273l35 28q194 -148 194 -301q0 -84 -70 -84z" />
  </g>

</svg>
