<?xml version="1.0" standalone="no"?>
<!DOCTYPE svg PUBLIC "-//W3C//DTD SVG 1.1//EN" "http://www.w3.org/Graphics/SVG/1.1/DTD/svg11.dtd" >
<svg xmlns="http://www.w3.org/2000/svg" xmlns:xlink="http://www.w3.org/1999/xlink" version="1.1" viewBox="0 -52 256 256">
  <g transform="matrix(1 0 0 -1 0 204)">
   <path fill="currentColor"
d="M50 252l24 -9q3 -1 1 -3q-4 -1 -9 -4v-29v-20h34l9 10l12 -12q2 -1 2 -3q-1 -1 -3 -2l-6 -2v-38q-1 -58 -10 -92q-6 -13 -18 -21q-9 -6 -25 -8q-1 10 -25 18l1 3q15 -3 28 -5q21 -2 28 22q8 27 10 89v36h-38q2 -131 -61 -168l-1 4q51 40 51 164h-21q-6 0 -10 -3l-8 8h39
q0 5 1 9v44q-3 6 -7 9zM145 211h64l9 10l12 -12q3 -3 -1 -5l-5 -2v-63l1 -15q2 -10 -12 -11v9h-44q8 -26 18 -43q1 -3 4 -6q6 4 18 11l9 6q12 8 13 10q2 2 0 6l2 2l15 -13q5 -3 2 -4q-6 1 -13 -1l-12 -6l-32 -16q22 -35 60 -41v-4q-15 2 -22 -8q-27 18 -48 54q-11 21 -20 53
h-16v-93l35 14l3 -3l-11 -5q-4 -2 -10 -6q-12 -7 -14 -9q-6 -3 -13 -11l-10 14q6 1 9 5v181q0 1 -1 3q-1 5 -3 9l3 2zM213 165h-66v-38h66v38zM147 169h66v36h-66v-36zM152 250l1 3q30 -9 35 -22q4 -13 -7 -14q-4 1 -5 8t-8 14q-6 6 -16 11z" />
  </g>

</svg>
