<?xml version="1.0" standalone="no"?>
<!DOCTYPE svg PUBLIC "-//W3C//DTD SVG 1.1//EN" "http://www.w3.org/Graphics/SVG/1.1/DTD/svg11.dtd" >
<svg xmlns="http://www.w3.org/2000/svg" xmlns:xlink="http://www.w3.org/1999/xlink" version="1.1" viewBox="0 -36 256 256">
  <g transform="matrix(1 0 0 -1 0 220)">
   <path fill="currentColor"
d="M182 245l20 -11l-6 -7v-60h17l12 11l14 -18h-43v-54h12l12 11l14 -18h-38v-71h23l13 12l14 -19h-86q-10 0 -19 -2l-9 9h51v71h-4q-13 1 -24 -2l-9 9h37v54h-25q-10 -24 -26 -40l-2 2q18 31 25 93l17 -9q-5 -8 -6 -13.5t-7 -25.5h24q0 49 -1 78zM122 171h-90
q1 -10 -4.5 -18t-14.5 -4.5t1 12t14 27.5h4v-10h90l7 8l16 -13q-10 -4 -16 -9.5t-16 -15.5l-3 2zM89 151l12 10l13 -17h-48q-11 1 -22 -3l-6 10h51zM64 107q12 -10 21 -24q22 20 28 30l12 -13q-9 -2 -38 -20q9 -23 4 -46.5t-24 -28.5q-2 9 -7 11.5t-15 5.5v4q21 -3 26 -2
t7.5 14t-0.5 31q-24 -28 -63 -45l-1 4q17 11 31.5 23t27.5 30q-1 4 -4 7q-22 -22 -55 -35l-1 4q15 9 28.5 20t21.5 22l-3 5q-17 -15 -45 -24l-1 3q14 7 28.5 18t19.5 19h-23q-6 0 -15 -2l-9 9h91l9 11l15 -18h-51q-8 -7 -15 -13zM125 66q11 -8 8 -21t-8.5 -4t-14 18.5
t-21.5 18.5l-1 4q26 -8 37 -16zM99 206q-6 0 -15 -2l-9 9h24v11q0 8 -1 22l19 -8l-6 -6v-18h9l9 9l12 -16h-30v-17l-12 -4v20v0zM55 207v-15l-12 -5v20q-13 0 -22 -2l-9 9h31v15q0 9 -1 17l20 -8l-7 -6v-18h6l8 7l12 -14h-26z" />
  </g>

</svg>
