<?xml version="1.0" standalone="no"?>
<!DOCTYPE svg PUBLIC "-//W3C//DTD SVG 1.1//EN" "http://www.w3.org/Graphics/SVG/1.1/DTD/svg11.dtd" >
<svg xmlns="http://www.w3.org/2000/svg" xmlns:xlink="http://www.w3.org/1999/xlink" version="1.1" viewBox="0 -200 1000 1000">
  <g transform="matrix(1 0 0 -1 0 800)">
   <path fill="currentColor"
d="M658 100q-48 -10 -62 -17q-13 -8 -30 -24l-41 58l198 28v270h-93v-24q2 -35 -46 -45q5 38 7 163v205q-4 24 -18 41l15 12l33 -45h102v197q1 16 -26 41l7 11l84 -33q14 -5 6 -11q-18 -4 -28 -18v-187h81l31 40l50 -48q7 -6 5 -10q-1 -5 -10 -7l-18 -9v-179l4 -86
q5 -38 -45 -43v35h-98v-265l131 19l-3 6q-2 6 -3 8q-25 44 -89 115l9 11q137 -104 151 -186q8 -42 -3 -56q-9 -15 -27 -11q-15 2 -16 43q0 24 -10 48l-1 3zM34 235l-13 10q39 74 72 158q40 104 52 149q17 67 28 147h-71q-26 0 -44 -12l-33 32h155v206q0 22 -27 49l6 7
l87 -35q14 -6 6 -10q-20 -9 -29 -21v-196h28l24 39l55 -45q10 -8 7 -12q-3 -3 -18 -2h-96v-119q44 -21 68 -37q26 -20 37 -43q12 -23 5 -41q-8 -19 -20 -19t-19 28q-8 26 -23 49q-11 14 -48 44v-400l2 -96q0 -20 -16 -30q-15 -9 -36 -14q4 37 7 186v319q-9 -27 -18 -50
q-32 -82 -60 -134q-26 -48 -68 -107zM319 593l-11 9q55 55 108 138q-40 87 -96 161l9 12q61 -67 106 -143q30 51 54 108q6 23 5 33q0 11 -6 21l5 9l66 -30q9 -6 10 -10q2 -4 -5 -5q-19 -3 -26 -14q-46 -92 -84 -146q57 -108 69 -218q9 -82 7 -195q-3 -105 -30 -173
q-29 -85 -103 -105q-2 41 -85 59l3 17q34 -8 68 -12q30 -5 48 13q18 15 33 60q17 49 21 113q3 65 1 129q0 7 -1 20q-1 24 -2 43q-58 -130 -172 -224l-11 10q104 113 173 297q-13 64 -42 135q-41 -52 -112 -112zM766 702v-267h98v267h-98zM630 702v-267h93v267h-93z" />
  </g>

</svg>
