<?xml version="1.0" standalone="no"?>
<!DOCTYPE svg PUBLIC "-//W3C//DTD SVG 1.1//EN" "http://www.w3.org/Graphics/SVG/1.1/DTD/svg11.dtd" >
<svg xmlns="http://www.w3.org/2000/svg" xmlns:xlink="http://www.w3.org/1999/xlink" version="1.1" viewBox="0 -205 1024 1024">
  <g transform="matrix(1 0 0 -1 0 819)">
   <path fill="currentColor"
d="M434 968q63 -30 66 -36q0 -4 -2 -8q-1 -3 -14 -6q-10 -1 -38 -28q-27 -27 -66 -72h90l32 36l58 -48q3 -13 -8 -14h-208q-5 -21 -22 -66h106l34 34l58 -48q3 -12 -8 -12h-200q-13 -30 -28 -60h200l30 34l60 -44q6 -13 -8 -14h-294q-36 -61 -108 -122h264l24 24l50 -38
q3 -6 0 -8l-20 -16v-118l4 -34q0 -13 -14 -26q-12 -9 -38 -18v32h-234v-171l132 69l8 -18q-61 -37 -100 -65q-40 -25 -76 -60l-46 52l34 24v361q-45 -36 -126 -78l-8 12q72 54 120 100q47 46 82 98h-114q-21 -1 -44 -10l-18 34h186q20 33 32 60h-88q-24 0 -48 -8l-22 34h166
q17 42 22 66h-162q-19 0 -40 -6l-24 32h286q45 72 82 150v0v0zM200 404h234v64h-234v-64v0v0zM200 316h234v62h-234v-62v0v0zM156 956l8 12q60 -30 84 -48q23 -15 32 -36q6 -17 -2 -34q-9 -16 -26 -14q-17 0 -22 18q-3 15 -18 40q-12 26 -56 62v0v0zM384 604q75 -22 132 -50
q54 -28 70 -52q16 -21 14 -42q-4 -20 -22 -22q-19 -4 -32 20q-13 23 -50 58t-118 74l6 14v0v0zM270 588l6 10q41 -13 62 -26q21 -11 28 -28q6 -16 -2 -28q-7 -12 -20 -12q-12 0 -18 12q-3 12 -12 30q-7 15 -44 42v0v0zM306 250q72 -27 108 -44q71 42 110 72l36 -30
q15 -6 12 -12q0 -6 -12 -6q-9 0 -26 -2q-18 -3 -98 -36q39 -21 58 -42q18 -20 16 -45q-4 -21 -22 -24q-19 -2 -32 22q-11 25 -46 59q-33 35 -110 74l6 14v0v0zM914 764l54 -44q8 -3 8 -12q1 -3 -34 -24v-344q1 -105 -10 -158q-11 -52 -34 -83q-24 -30 -84 -54q-10 46 -46 62
q-36 14 -90 34l6 19q68 -20 118 -27q48 -7 70 35q21 41 22 158v374h-140q-4 -173 -22 -286q-18 -111 -74 -210q-54 -98 -186 -183l-10 12q131 117 170 211q39 93 54 192q15 96 16 264h-56q-31 1 -50 -10l-26 38h132v254l78 -30q15 -3 12 -12q0 -3 -38 -20v-192h130l30 36v0
v0z" />
  </g>

</svg>
