<?xml version="1.0" standalone="no"?>
<!DOCTYPE svg PUBLIC "-//W3C//DTD SVG 1.1//EN" "http://www.w3.org/Graphics/SVG/1.1/DTD/svg11.dtd" >
<svg xmlns="http://www.w3.org/2000/svg" xmlns:xlink="http://www.w3.org/1999/xlink" version="1.1" viewBox="0 -36 256 256">
  <g transform="matrix(1 0 0 -1 0 220)">
   <path fill="currentColor"
d="M57 179h16l7 9l11 -12l-6 -5v-65l1 -13l-12 -6v8h-43v-7l-12 -6q1 21 1 89q-3 -6 -10 -17l-3 2q14 32 22 55.5t8 32.5l18 -11q-5 -1 -12 -19h22l6 9l12 -13q-7 0 -26 -31zM27 183l5 -4h20l13 28h-25q-6 -10 -13 -24zM31 139h16v33h-16v-33zM58 139h16v33h-16v-33zM31 102
h16v30h-16v-30zM58 102h16v30h-16v-30zM26.5 43q-0.5 -8 -3.5 -11.5t-9.5 -3.5t0.5 12t10 33h3q0 -22 -0.5 -30zM38 78q13 -19 14 -28.5t-5 -15t-6.5 8.5t-5.5 33zM55 80q17 -17 18.5 -25t-3.5 -13.5t-6.5 4t-10.5 32.5zM72 86q17 -12 20.5 -19t-1 -16t-7 2t-14.5 31z
M126 219q17 -8 24.5 -15t4.5 -19.5t-8 0t-23 29.5q-10 -28 -34 -62l-3 3q14 28 22 50t9 38l18 -11q-5 -1 -10 -13zM136.5 169.5q2.5 -5.5 -4 -14.5t-7.5 3t-9 27l2 2q16 -12 18.5 -17.5zM150 125q0 -28 1 -40l-13 -9v7h-31v-44l30 16q-2 8 -10 23l3 2q18 -18 22 -27
t-1.5 -18t-7 0t-4.5 15q-36 -26 -36 -31l-10 14q3 4 3 11v72q0 24 -1 42l13 -9h30l6 9l11 -13l-5 -5v-15zM107 119h31v23h-31v-23zM107 90h31v22h-31v-22zM192 246l20 -9l-7 -6v-17h12l8 7l11 -14h-31v-25h21l8 8l13 -15h-65q-10 0 -19 -2l-9 9h39v25h-9l-10 -2l-10 9h29
q0 15 -1 32zM232 163l-6 -6v-13h3l7 7l9 -14h-19v-31h5l6 7l10 -14h-27q-10 0 -19 -2l-9 9h22v31h-4l-5 -3l-8 10h17q0 10 -1 28zM160 92l-8 14q9 1 19 4v26h-4l-5 -3l-7 10h16q0 12 -1 27l18 -9l-6 -6v-12h3l6 6l9 -12h-18v-24l17 5l2 -3q-38 -17 -41 -23zM204 33v46h-14
q0 -30 -10 -46.5t-40 -24.5l-1 3q26 14 32.5 28.5t6.5 39.5q-5 1 -14 -3l-8 10h65l10 10l14 -17h-29v-42q0 -13 5 -13h8q5 0 6 7.5t1 23.5h4q1 -12 2 -20t6 -10q-4 -8 -7.5 -9.5t-8.5 -1.5h-13q-15 -2 -15 19z" />
  </g>

</svg>
