<?xml version="1.0" standalone="no"?>
<!DOCTYPE svg PUBLIC "-//W3C//DTD SVG 1.1//EN" "http://www.w3.org/Graphics/SVG/1.1/DTD/svg11.dtd" >
<svg xmlns="http://www.w3.org/2000/svg" xmlns:xlink="http://www.w3.org/1999/xlink" version="1.1" viewBox="0 -205 1024 1024">
  <g transform="matrix(1 0 0 -1 0 819)">
   <path fill="currentColor"
d="M802 870q3 -303 18 -398q16 -93 44 -168t62 -122q34 -45 68 -57v-16q-31 1 -46 -2q-12 0 -36 -18q-42 69 -78 163q-33 93 -48 204t-12 408l-112 -30v-646l70 50q-18 45 -44 82l12 8q56 -54 82 -96q25 -42 20 -72q-3 -29 -18 -35q-15 -7 -24 0q-10 8 -10 31q1 24 -10 60
q-42 -25 -66 -56q-21 -29 -44 -65l-50 51q20 9 34 36v642l-102 -16v-216q-9 -201 -26 -278q-17 -78 -58 -138q-39 -59 -146 -129l-10 10q90 69 124 135t50 148q14 81 20 252v284l62 -42q212 47 338 122q60 -52 58 -58q-2 -7 -10 -8h-18t-26 -2q-13 0 -68 -18v0v0zM56 892
h240l26 36l56 -38q7 -6 8 -12q-1 -7 -34 -28v-112l4 -96q-3 -12 -20 -24q-18 -10 -32 -10v50h-156l-24 -182h144l36 36l46 -42q8 -9 8 -14q1 -6 -34 -24q-9 -187 -20 -238q-9 -50 -36 -79q-28 -30 -76 -48q-16 34 -40 46q-24 13 -74 29l6 18q98 -28 128 -20q29 9 44 52
q12 41 22 260h-146l-36 -32l-50 44l36 36l30 226l44 -44h148v184h-178q-22 1 -46 -10l-24 36v0v0z" />
  </g>

</svg>
