<?xml version="1.0" standalone="no"?>
<!DOCTYPE svg PUBLIC "-//W3C//DTD SVG 1.1//EN" "http://www.w3.org/Graphics/SVG/1.1/DTD/svg11.dtd" >
<svg xmlns="http://www.w3.org/2000/svg" xmlns:xlink="http://www.w3.org/1999/xlink" version="1.1" viewBox="0 -52 256 256">
  <g transform="matrix(1 0 0 -1 0 204)">
   <path fill="currentColor"
d="M26 249l11 -12h172l9 10l13 -12q2 -2 1 -3q0 -1 -3 -1l-4 -3v-178l1 -24q2 -10 -13 -11v21h-175v-11q1 -9 -13 -12q1 4 1 22q1 12 1 20v180q-1 6 -5 11zM106 72h27v76q0 3 -4 9l1 2l18 -7q3 -2 1 -2l-2 -1q-3 -2 -4 -3v-74h21v133q0 1 -5 6l-2 2l1 2l23 -7q2 0 1 -2
q-1 0 -3 -1q-4 -1 -5 -2v-56h15l5 8l11 -9q2 -2 1 -2q0 -1 -2 -1h-30v-71h23l5 8l11 -10v162h-175v-192h175v28h-1h-94q-4 1 -7 -2zM52 57l-13 10l16 5v78q2 3 -6 9l2 2l20 -7h1q4 -1 1 -2q-6 -1 -7 -4v-72l19 7v119q1 3 -8 9l2 2l21 -7q4 -1 2 -2q-3 -1 -6 -4v-52h9l7 10
l13 -11q2 -2 1 -2q0 -1 -3 -1h-27v-58l24 8v-4l-13 -5q-43 -18 -48 -21q-4 -2 -7 -7z" />
  </g>

</svg>
