<?xml version="1.0" standalone="no"?>
<!DOCTYPE svg PUBLIC "-//W3C//DTD SVG 1.1//EN" "http://www.w3.org/Graphics/SVG/1.1/DTD/svg11.dtd" >
<svg xmlns="http://www.w3.org/2000/svg" xmlns:xlink="http://www.w3.org/1999/xlink" version="1.1" viewBox="0 -36 256 256">
  <g transform="matrix(1 0 0 -1 0 220)">
   <path fill="currentColor"
d="M78 142h105v16h-105v-16zM199 133l-16 -6v8h-67l14 -10l-8 -2l-10 -12h96l15 13l17 -20h-80q18 -17 42 -25.5t46 -9.5v-4q-18 -1 -22 -13q-23 8 -41 20.5t-34 31.5h-44q-18 -20 -42 -33.5t-56 -19.5l-1 3q26 9 47 22.5t34 27.5h-41q-11 0 -20 -2l-9 9h74q13 14 17 24h-32
v-4l-16 -6q1 19 1 37t-1 35l17 -8h104l8 10l15 -13l-8 -7q0 -26 1 -46zM78 165h105v17h-105v-17zM124 213h-38q0 -6 1 -14l-16 -5q1 11 1 19h-25q-11 1 -20 -1l-9 8h54q0 17 -1 27l22 -7l-7 -7v-13h12l13 10zM156 215q-10 0 -19 -1l-10 8h35q0 12 -1 24l22 -8l-7 -6v-10h29
l13 9l15 -16h-57q-1 -2 1 -17l-16 -4q1 18 1 21h-6zM140 89q-8 -4 -9.5 -13t-5.5 -20l17 -5q28 15 33 26l16 -15q-11 -1 -16.5 -3.5t-25.5 -9.5q40 -11 48.5 -17.5t7.5 -17.5t-18.5 4.5t-62.5 33.5q-7 -15 -29 -27.5t-67 -16.5v4q40 9 59 20.5t25 29.5t6 35zM90 79
q-1 -18 -4.5 -29t-11.5 -13t-12 2.5t6.5 11t17.5 28.5h4z" />
  </g>

</svg>
