<?xml version="1.0" standalone="no"?>
<!DOCTYPE svg PUBLIC "-//W3C//DTD SVG 1.1//EN" "http://www.w3.org/Graphics/SVG/1.1/DTD/svg11.dtd" >
<svg xmlns="http://www.w3.org/2000/svg" xmlns:xlink="http://www.w3.org/1999/xlink" version="1.1" viewBox="0 -205 1024 1024">
  <g transform="matrix(1 0 0 -1 0 819)">
   <path fill="currentColor"
d="M388 712q86 -30 92 -32l6 -8q-4 -7 -10 -10l-34 -18v-474l4 -93q-1 -14 -22 -26q-18 -11 -42 -20l6 125v80h-258q-24 0 -48 -8l-26 36h332v156h-210q-22 0 -46 -8l-24 34h280v132h-212q-25 0 -50 -8l-22 34h284v108v0v0zM594 720l88 -30q7 -3 6 -8q0 -3 -6 -8l-36 -18
v-52h192l38 46l60 -58q2 -4 2 -8q-4 -6 -10 -6h-282v-136h150l36 50l60 -62q3 0 4 -6q0 -9 -6 -8h-244v-152h222l38 48l60 -58q3 -3 4 -8q0 -9 -8 -8h-316v-90l6 -81q-1 -13 -22 -26q-20 -14 -40 -20l4 119v580v0v0zM364 984l80 -32q10 -6 6 -12q-1 -3 -34 -18v-78h200v140
l84 -26q12 -6 10 -12q-4 -6 -40 -20v-82h174l42 50l68 -62q3 -1 4 -8q0 -6 -14 -6h-274v-20l4 -28q-8 -18 -28 -24q-21 -7 -36 -8l6 54v26h-200v-24l6 -32q-7 -18 -38 -30l-24 -6l4 60v32h-204q-20 -1 -64 -10l-22 36h290v140v0v0z" />
  </g>

</svg>
