<?xml version="1.0" standalone="no"?>
<!DOCTYPE svg PUBLIC "-//W3C//DTD SVG 1.1//EN" "http://www.w3.org/Graphics/SVG/1.1/DTD/svg11.dtd" >
<svg xmlns="http://www.w3.org/2000/svg" xmlns:xlink="http://www.w3.org/1999/xlink" version="1.1" viewBox="0 -205 1024 1024">
  <g transform="matrix(1 0 0 -1 0 819)">
   <path fill="currentColor"
d="M484 904l54 -38h252l32 40l52 -38q12 -5 12 -16q-1 -4 -34 -26v-721h46l34 49l58 -59l4 -4q0 -12 -12 -12h-550q-21 1 -68 -8l-16 34h136v799v0v0zM536 105h264v261h-264v-261v0v0zM536 392h264v214h-264v-214v0v0zM536 632h264v206h-264v-206v0v0zM402 900q6 -3 6 -12
q1 -3 -16 -6q-21 -3 -48 -26q-33 -39 -84 -86q48 -85 64 -176q15 -91 18 -154q4 -63 2 -146q-1 -81 -16 -126q-16 -42 -40 -67q-24 -23 -72 -40q-12 33 -36 44q-22 11 -86 28l4 15q96 -16 124 -13q26 3 44 21q15 17 22 50q5 32 8 88q2 53 2 128q0 71 -12 152
q-94 -147 -232 -264l-12 12q114 108 232 312q-12 53 -42 110q-72 -70 -162 -130l-8 12q81 71 150 146q-40 60 -122 126l10 14q99 -66 136 -114q64 72 104 144l62 -42v0v0z" />
  </g>

</svg>
