<?xml version="1.0" standalone="no"?>
<!DOCTYPE svg PUBLIC "-//W3C//DTD SVG 1.1//EN" "http://www.w3.org/Graphics/SVG/1.1/DTD/svg11.dtd" >
<svg xmlns="http://www.w3.org/2000/svg" xmlns:xlink="http://www.w3.org/1999/xlink" version="1.1" viewBox="0 -150 1000 1000">
  <g transform="matrix(1 0 0 -1 0 850)">
   <path fill="currentColor"
d="M459 694q-2 16 -22 36l6 9l81 -35q8 -2 10 -5t-3 -7q-17 -4 -31 -17v-520h174v772q1 16 -27 41l8 10l86 -33q14 -5 6 -11q-18 -4 -28 -17v-762h178v530q2 16 -29 45l9 12l85 -35q14 -5 6 -11q-19 -7 -30 -20v-499l4 -95q1 -30 -45 -45v98h-384l-30 -43l-53 41
q25 23 29 43v518zM201 285l14 6q37 -50 51.5 -87.5t8.5 -63.5q-5 -28 -25.5 -27.5t-19.5 32.5q2 29 -2 62q-6 32 -27 78zM313 313l10 10q51 -38 71.5 -75.5t18.5 -61.5q-2 -27 -22 -30q-22 -2 -24 21.5t-10.5 56.5t-43.5 79zM107 257h17q6 -53 1.5 -97.5t-19 -71t-38 -34
t-33.5 9t18 40.5q25 23 40 49q11 27 14 104zM133 397l222 18q-11 29 -47 71l9 10q55 -35 78 -67q21 -33 21 -59.5t-21 -29.5q-23 -3 -26 20q0 2 -1 7q-4 20 -7 30q-90 -13 -135 -23q-50 -11 -78.5 -18t-53.5 -28l-39 64q7 2 21 5q20 5 29 8q80 87 149 181q12 15 21 29
q-11 -2 -32 -4q-13 -2 -44 -6q-36 -4 -73 -13q-30 -9 -44 -31l-41 63q26 11 35 20q28 26 92 127q42 67 73 142q-3 20 -12 32l8 8l79 -51q5 -5 5 -7.5t-5 -4.5q-23 1 -38 -8q-90 -148 -176 -253l187 8q36 50 40 73q-1 18 -12 27l10 10l80 -56q5 -2 5 -4.5t-5 -7.5
q-24 3 -43 -9q-58 -94 -231 -273z" />
  </g>

</svg>
