<?xml version="1.0" standalone="no"?>
<!DOCTYPE svg PUBLIC "-//W3C//DTD SVG 1.1//EN" "http://www.w3.org/Graphics/SVG/1.1/DTD/svg11.dtd" >
<svg xmlns="http://www.w3.org/2000/svg" xmlns:xlink="http://www.w3.org/1999/xlink" version="1.1" viewBox="0 -36 256 256">
  <g transform="matrix(1 0 0 -1 0 220)">
   <path fill="currentColor"
d="M17 66l-9 17q14 2 47 7v30h-12q-10 -1 -20 -3l-9 10h41v27h-26v-8l-13 -4q1 26 1 54t-1 43l13 -9h63l9 10l12 -14l-7 -5v-47q0 -11 1 -23l-13 -5v8h-27v-27h22l12 11l12 -18h-46v-27l47 9l1 -6q-88 -21 -98 -30zM51 190.5q2 -6.5 -4 -13t-6.5 6t-5.5 24.5l2 2
q12 -13 14 -19.5zM67 181q10 19 12 32l13 -11q-8 -5 -25 -27v-14h27v62h-27v-42zM29 161h26v62h-26v-62zM28 20.5q-8 -4.5 -13 -4t2.5 11.5t11.5 32h5q2 -35 -6 -39.5zM67 41q2 -8 -4.5 -15.5t-7.5 6.5t-9 31l3 2q16 -16 18 -24zM92 51.5q6 -8.5 -1 -17.5t-9 5.5t-11 30.5
l3 3q12 -13 18 -21.5zM116.5 62q4.5 -7 -1 -17.5t-9.5 5t-16 30.5l3 2q19 -13 23.5 -20zM108 133l-3 2q13 30 20 53t12 58l19 -11l-7 -7q-8 -27 -18 -54l12 -5l-7 -5v-129q0 -9 1 -17l-14 -7q1 24 1 49v99q-9 -17 -16 -26zM211 226l8 10l13 -14l-9 -5v-33h4l10 10l12 -17
h-76q-10 -1 -20 -3l-9 10h67v35h-26q-10 0 -19 -2l-10 9h55zM169 146h47l12 12l14 -19h-44q-1 -22 -2 -37h27l11 12l15 -19h-46q7 -25 19.5 -45.5t25.5 -26.5v-4q-10 1 -16 -6q-11 12 -21 34.5t-13 47.5h-3q-6 -39 -22 -58t-37 -30l-1 4q19 14 32 34t16 50h-15
q-11 -1 -20 -3l-9 10h45q1 19 1 37h-19q-10 -19 -21 -32l-3 2q8 15 14 33t8 33l17 -10q-7 -4 -12 -19z" />
  </g>

</svg>
