<?xml version="1.0" standalone="no"?>
<!DOCTYPE svg PUBLIC "-//W3C//DTD SVG 1.1//EN" "http://www.w3.org/Graphics/SVG/1.1/DTD/svg11.dtd" >
<svg xmlns="http://www.w3.org/2000/svg" xmlns:xlink="http://www.w3.org/1999/xlink" version="1.1" viewBox="0 -36 256 256">
  <g transform="matrix(1 0 0 -1 0 220)">
   <path fill="currentColor"
d="M34 112h21v70h-21v-70zM68 112h21v70h-21v-70zM79 89l3 4q26 -26 28 -33t-4.5 -15.5t-8 -0.5t-4.5 16q-26 -8 -48 -16t-27 -13l-8 19q9 0 45 8v47h-21v-7l-14 -6q1 21 1 51.5t-1 53.5l14 -8h21q0 40 -1 57l22 -12l-8 -9v-36h21l8 8l11 -14l-7 -6v-45q0 -11 1 -29l-13 -7
v9h-21v-44l24 4q-4 9 -13 24zM162 192h58l10 11l14 -15l-10 -6q-29 -135 -139 -174l-2 4q100 48 127 173h-60q-19 -47 -53 -80l-3 4q41 49 58 137l21 -13l-8 -6q-8 -23 -13 -35zM182.5 131.5q6.5 -8.5 2 -21t-11 1t-25.5 34.5l2 3q26 -9 32.5 -17.5z" />
  </g>

</svg>
