<?xml version="1.0" standalone="no"?>
<!DOCTYPE svg PUBLIC "-//W3C//DTD SVG 1.1//EN" "http://www.w3.org/Graphics/SVG/1.1/DTD/svg11.dtd" >
<svg xmlns="http://www.w3.org/2000/svg" xmlns:xlink="http://www.w3.org/1999/xlink" version="1.1" viewBox="0 -52 256 256">
  <g transform="matrix(1 0 0 -1 0 204)">
   <path fill="currentColor"
d="M25 157h53l7 9l15 -12q4 -2 -2 -2h-33v-44h23l7 9l15 -12q4 -2 -2 -2h-43v-63q9 6 29 18q13 8 20 12l3 -3q-14 -11 -33 -24q-3 -2 -4 -3q-4 -2 -9 -5q-3 -3 -6 -5q-3 -4 -7 -11l-13 12q3 1 7 6l2 2v64h-18q-6 0 -11 -3l-9 8h38v44h-9q-6 0 -11 -3zM69 242q2 -2 -2 -2
q-5 0 -8 -6q-1 -4 -4 -10q-1 -6 -7 -20h39l6 9l15 -11l2 -2q0 -1 -3 -1h-61l-3 -6q-1 -3 -5 -10q-12 -22 -31 -45l-2 3q16 25 25 43q8 18 13 37q6 18 5 21t-4 6l2 2zM225 104q-1 -33 -3 -46q-1 -13 -6 -23q-7 -19 -32 -23q0 5 -7 8q-11 5 -25 8v3q9 -2 24 -3q3 -1 5 -1
q25 -1 29 28q3 17 3 53h-66l-11 -8l-10 13l9 6l13 45h-31q-7 0 -12 -3l-8 8h125l9 10l18 -12q3 -1 2 -2q0 -1 -5 -1h-85l-16 -51h64l8 10l15 -13q1 -3 -2 -3zM116 228h85l8 10l18 -12q2 -1 2 -2q-1 -1 -5 -1h-88q-7 0 -12 -3z" />
  </g>

</svg>
