<?xml version="1.0" standalone="no"?>
<!DOCTYPE svg PUBLIC "-//W3C//DTD SVG 1.1//EN" "http://www.w3.org/Graphics/SVG/1.1/DTD/svg11.dtd" >
<svg xmlns="http://www.w3.org/2000/svg" xmlns:xlink="http://www.w3.org/1999/xlink" version="1.1" viewBox="0 -144 1024 1024">
  <g transform="matrix(1 0 0 -1 0 880)">
   <path fill="currentColor"
d="M871 99l-28 24l-26 27l-25 28l-24 29l-23 31l-39 68l-13 29v-282l-65 -32v274l-25 -40l-27 -36l-27 -33l-31 -30l-31 -29l-34 -25l-36 -22l-37 -18l-6 8l32 27l57 56l26 30l24 32l23 33l21 36l19 37l18 39l7 18h-208v21h235v137l65 -11l16 -11l-16 -9v-106h116l53 54
l65 -54v-21h-234v-4l64 -80l48 -54l52 -47l27 -21l76 -51l-59 -45zM343 776l65 -54v-21h-170v-636l-54 -27v663h-148v21h253zM74 611l59 -11l16 -10l-16 -10v-159l-2 -46l-3 -43l-6 -40l-6 -36l-9 -33l-10 -29l-11 -26l-14 -21l-16 -18l-17 -13l-7 6l9 18l8 19l7 21l5 25
l5 28l5 31l2 34l2 38v41l-1 44v190zM296 611l60 -11l15 -10l-15 -10v-357l-60 -29v417zM488 552v-65l-64 -32v350l64 -33h72v125h-163v21h407l54 54l65 -54v-21h-163v-125h72l32 27l59 -48l-27 -22v-209l-64 -33v65h-344zM560 751h-72v-178h72v178zM696 751h-72v-178h72v178
zM832 751h-72v-178h72v178zM696 897h-72v-125h72v125zM296 978l64 -54v-22h-282v22h164z" />
  </g>

</svg>
