<?xml version="1.0" standalone="no"?>
<!DOCTYPE svg PUBLIC "-//W3C//DTD SVG 1.1//EN" "http://www.w3.org/Graphics/SVG/1.1/DTD/svg11.dtd" >
<svg xmlns="http://www.w3.org/2000/svg" xmlns:xlink="http://www.w3.org/1999/xlink" version="1.1" viewBox="0 -36 256 256">
  <g transform="matrix(1 0 0 -1 0 220)">
   <path fill="currentColor"
d="M128 206h-38q0 -6 2 -18l-17 -5q2 13 2 23h-30q-11 0 -20 -2l-10 9h60q0 23 -2 33l23 -8l-8 -6v-19h12l13 10zM140 205l-9 9h32q0 20 -1 32l24 -7l-9 -6v-19h34l13 12l16 -19h-63q0 -1 1 -18l-16 -6q1 18 1 24h-10q-1 1 -13 -2zM63 159v-12h37v12h-37zM46 85h30v19h-30
v-19zM46 57h30v21h-30v-21zM88 78v-21h31v21h-31zM119 85v19h-31v-19h31zM45 159q-13 0 -21 -3l-9 10h34q0 12 -1 25l21 -7l-6 -4v-14h37q0 11 -1 24l23 -5l-8 -7v-12h6l10 9l11 -16h-27v-20l-14 -3v4h-37v-3l-14 -3v25h-4zM63 49l16 -15h-9q-26 -17 -60 -27v5q35 16 53 37z
M99 46q38 -11 43.5 -19t0.5 -15.5t-13 5t-33 26.5zM214 176q-15 -5 -29 -10v-42l18 3l10 12l19 -15l-47 -6v-36l32 5l6 8l19 -12l-57 -8v-38q0 -11 10 -11h19q8 0 11 1.5t3.5 8.5t0.5 22h5q1 -21 4.5 -25t7.5 -6q-6 -12 -21 -12h-35q-19 0 -19 17v41l-26 -3l-4 -3l-7 8l37 5
v37l-16 -2l-5 -3l-9 7l30 4v39q-12 -3 -30 -7l-1 5q44 14 70 31l16 -16zM117 111l6 8l15 -11l-6 -5q0 -27 1 -52l-14 -5v4h-73v-4l-14 -3q1 38 0 75l17 -7h68zM35 122q-11 1 -18 -3l-8 10h115l9 8l15 -15h-113z" />
  </g>

</svg>
