<?xml version="1.0" standalone="no"?>
<!DOCTYPE svg PUBLIC "-//W3C//DTD SVG 1.1//EN" "http://www.w3.org/Graphics/SVG/1.1/DTD/svg11.dtd" >
<svg xmlns="http://www.w3.org/2000/svg" xmlns:xlink="http://www.w3.org/1999/xlink" version="1.1" viewBox="0 -205 1024 1024">
  <g transform="matrix(1 0 0 -1 0 819)">
   <path fill="currentColor"
d="M672 946q6 -6 6 -8q0 -5 -24 -10q33 -52 88 -106q53 -55 104 -88q51 -31 138 -56v-16q-24 0 -42 -2q-17 -3 -40 -26q-49 29 -92 68q-42 38 -90 94q-48 57 -86 126q-73 -81 -158 -156t-166 -132l-10 14q68 57 140 130q72 71 166 200l66 -32v0v0zM446 732h238l30 38l54 -48
q3 -3 4 -8q1 -7 -16 -8h-246q-21 0 -44 -8l-20 34v0v0zM332 644l36 -12h64l24 28q48 -27 48 -36q3 -2 -18 -22v-86l4 -50q0 -12 -14 -24q-13 -9 -34 -12v28h-68v-6q1 -13 -16 -20q-15 -8 -30 -6l4 68v150v0v0zM374 482h68v126h-68v-126v0v0zM530 660l48 -28h56l24 28
q45 -34 46 -40q0 -3 -20 -18v-86l4 -50q0 -12 -14 -24q-13 -12 -34 -14v30h-68v-8q1 -12 -16 -20q-15 -6 -30 -6l4 68v168v0v0zM572 480h68v130h-68v-130v0v0zM728 654l48 -26h54l22 26q45 -32 46 -40q3 -2 -20 -16v-86l4 -50q0 -12 -14 -20q-12 -8 -32 -10v22h-66v-6
q1 -13 -16 -20q-15 -8 -30 -6l4 68v164v0v0zM770 478h66v126h-66v-126v0v0zM350 418l42 -30h418l26 32l50 -30q8 -2 8 -10q0 -6 -26 -24v-267q2 -20 -10 -40q-12 -15 -56 -28q-4 27 -16 38q-9 8 -66 28l4 14q42 -11 64 -14q24 -4 30 4q6 9 4 36v113h-108v-36l4 -65
q2 -18 -16 -30t-36 -12l4 101v42h-112v-56l4 -63q0 -15 -18 -24q-17 -9 -34 -10l4 99v54h-116v-115l2 -68q0 -12 -18 -24q-15 -12 -36 -12l4 110v287v0v0zM398 264h116v100h-116v-100v0v0zM558 364v-100h112v100h-112v0v0zM714 364v-100h108v100h-108v0v0zM110 914l6 14
q48 -13 82 -28q33 -12 52 -30q16 -15 20 -36q4 -19 -6 -34q-11 -14 -28 -12q-15 0 -20 16q-6 14 -14 34q-9 17 -26 32q-18 14 -66 44v0v0zM40 694l6 18q41 -14 74 -28t52 -34q18 -18 18 -38q1 -18 -10 -30q-9 -13 -24 -10q-13 0 -20 16q-6 14 -14 32q-7 15 -28 34
q-21 18 -54 40v0v0zM180 408q-19 -58 -46 -62q-28 -4 -74 -4l-2 -20q46 -2 68 -10q23 -6 32 -18q8 -11 10 -40q0 -30 -8 -84q-9 -53 -6 -81q0 -27 16 -36q15 -9 30 0t18 36q3 25 -6 83q-7 57 -8 94q-1 36 4 66q3 29 10 56l120 404l-20 8l-138 -392v0v0z" />
  </g>

</svg>
