<?xml version="1.0" standalone="no"?>
<!DOCTYPE svg PUBLIC "-//W3C//DTD SVG 1.1//EN" "http://www.w3.org/Graphics/SVG/1.1/DTD/svg11.dtd" >
<svg xmlns="http://www.w3.org/2000/svg" xmlns:xlink="http://www.w3.org/1999/xlink" version="1.1" viewBox="0 -36 256 256">
  <g transform="matrix(1 0 0 -1 0 220)">
   <path fill="currentColor"
d="M141 235l-7 -5q19 -19 49 -31t61 -17v-3q-18 -1 -22 -13q-27 9 -50.5 24t-41.5 37q-45 -47 -115 -65l-1 4q31 10 64 33t45 46zM117 185q-13 0 -22 -3l-10 10h56l12 10l16 -17h-52zM70 103h116v14h-116v-14zM201 92l-15 -5v9h-116v-6l-15 -4q1 20 1 45t-1 44l17 -8h112
l10 9l14 -13l-8 -5v-27q0 -23 1 -39zM70 145h116v15h-116v-15zM70 124h116v14h-116v-14zM71 69v-39h116v39h-116zM186 76l7 7l16 -10l-8 -6v-25q0 -12 1 -24l-15 -4v9h-116v-7l-15 -5q1 7 1 17v34q0 10 -1 19l16 -5h114z" />
  </g>

</svg>
