<?xml version="1.0" standalone="no"?>
<!DOCTYPE svg PUBLIC "-//W3C//DTD SVG 1.1//EN" "http://www.w3.org/Graphics/SVG/1.1/DTD/svg11.dtd" >
<svg xmlns="http://www.w3.org/2000/svg" xmlns:xlink="http://www.w3.org/1999/xlink" version="1.1" viewBox="0 -36 256 256">
  <g transform="matrix(1 0 0 -1 0 220)">
   <path fill="currentColor"
d="M97 175l1 -26l-14 -6v6h-57v-4l-13 -5q1 45 0 88l12 -6q14 13 18 21l12 -13q-6 0 -29 -13v-26h8l9 7l10 -14h-27v-28h57v28h-7l-9 -2l-9 9h25v27h-8l-9 -2l-9 9h24l8 10l13 -14l-6 -4v-42zM12 137l19 -8l-7 -4v-86l21 16l1 -3q-19 -22 -26 -35l-10 14q3 5 3 14
q0 71 -1 92zM98 129l-6 -5q0 -15 1 -34t6 -37l10 18l1 -3q-6 -23 -10 -45q-13 15 -16.5 44t-3.5 72zM47 139l18 -9l-6 -6v-82l17 15l2 -3q-17 -21 -23 -34l-9 12q2 5 2 14q0 69 -1 93zM111 221l11 -8h23l5 8l12 -11l-6 -6v-117q0 -9 1 -26l-13 -8v15h-20v-23l-13 -7
q1 24 1 36v114q0 9 -1 33zM124 146h20v60h-20v-60zM124 75h20v64h-20v-64zM192 247l18 -10l-5 -7v-30h16l9 9l12 -16h-37v-36h11l12 10l12 -17h-43q-10 0 -19 -2l-9 9h24v36h-9q-9 -1 -15 -4l-8 11h32v19q0 12 -1 28zM207 151l20 -8l-8 -6v-20h9l9 11l11 -18h-29v-71
q2 -22 -17 -31q-2 14 -25 16v5q12 -1 21 -1t9 9v73h-18q-10 0 -19 -2l-9 9h46v34zM171 102q15 -13 20.5 -22.5t-1 -19.5t-8.5 3.5t-13 36.5zM31 103l5 5l8 -12h-19h-5v7h11zM33 79l5 5l7 -12h-19h-7v7h14zM66 103l6 6l9 -13h-17h-8v7h10zM68 79l5 5l9 -12h-17h-9v7h12z" />
  </g>

</svg>
