<?xml version="1.0" standalone="no"?>
<!DOCTYPE svg PUBLIC "-//W3C//DTD SVG 1.1//EN" "http://www.w3.org/Graphics/SVG/1.1/DTD/svg11.dtd" >
<svg xmlns="http://www.w3.org/2000/svg" xmlns:xlink="http://www.w3.org/1999/xlink" version="1.1" viewBox="0 -205 1048 1024">
  <g transform="matrix(1 0 0 -1 0 819)">
   <path fill="currentColor"
d="M936 924q11 -14 11 -19q0 -4 -28 -15v-241q0 -16 1 -37v-27q0 -23 -7.5 -30.5t-33.5 -20.5l-22 -9q-11 -6 -17 -6t-6 9v6q1 5 1 8q0 16 -13 22l-68 14l3 14l68 -9q10 -1 15 -1q18 0 25.5 14t7.5 52v90q-68 -74 -177 -121l-5 11q48 24 100 73q55 51 82 101v83
q-77 -93 -186 -142l-4 11q108 58 147 158h-136v22h178l10 10q13 16 17 16t16 -13zM667 919q10 -12 10 -18q0 -5 -28 -16v-231q0 -68 -4 -79.5t-35 -25.5l-16 -8q-10 -3 -16 -3q-8 0 -8.5 12.5t-13.5 17.5l-64 15l4 13l73 -7q27 -4 34 14q2 7 2 40v106q-93 -94 -179 -122
l-5 13q95 37 184 176v69q-107 -121 -198 -151l-7 9q103 53 164 165h-165v22h206l9 10q13 13 17 13t15 -11zM976 410l-7 -16h-567v20h257v100l-3 47l37 -9q41 -11 41 -20q0 -6 -29 -22v-96h173l20 28q16 21 20 21q3 0 16 -11zM978 106l-5 -11h-602v20h209q-13 13 -17 48
q-7 58 -13 80q-14 62 -51 125l10 9q105 -131 105 -199q0 -32 -18 -63h131l81 264l48 -16q22 -6 22 -14q0 -13 -36 -19l-99 -215h137l23 33q10 14 15 14q4 0 18 -15zM427 689l-10 -13h-348v20h143v181l-4 43l45 -9q36 -10 36 -18t-33 -21v-176h72l22 32q10 14 15 14
q4 0 20 -14zM415 259l-291 -126q0 -37 -11 -37t-26 34l-17 37l174 53q55 249 64 424l36 -10q41 -17 41 -28q0 -9 -33 -14q-44 -228 -91 -367l151 48zM202 329q-1 -51 -25 -51q-20 0 -22 44q-7 136 -41 255l13 5q67 -144 75 -253z" />
  </g>

</svg>
