<?xml version="1.0" standalone="no"?>
<!DOCTYPE svg PUBLIC "-//W3C//DTD SVG 1.1//EN" "http://www.w3.org/Graphics/SVG/1.1/DTD/svg11.dtd" >
<svg xmlns="http://www.w3.org/2000/svg" xmlns:xlink="http://www.w3.org/1999/xlink" version="1.1" viewBox="0 -52 256 256">
  <g transform="matrix(1 0 0 -1 0 204)">
   <path fill="currentColor"
d="M172 250l19 -8q3 -1 2 -3q-4 -1 -7 -5v-66h34l8 10l11 -10q2 -1 2 -3q0 -1 -2 -2l-5 -3v-120q0 -14 -3 -20t-16 -9q0 8 -9 10q-7 3 -21 6v4q27 -6 33 -5q6 0 5 12v44h-83v-38v-23q1 -9 -12 -11v9q1 21 1 36v112q0 3 -3 8q-1 0 -1 1l4 3l9 -11h38v69q0 4 -6 10zM223 123
h-83v-37h83v37zM140 127h83v36h-83v-36zM221 235l17 -10q4 -1 2 -4q-6 0 -10 -3q-13 -21 -29 -41l-4 2l11 19q13 25 13 28q1 3 -2 7zM122 229l2 3q25 -14 33 -33q5 -17 -4 -18q-4 0 -6 8q-1 9 -7 18q-4 9 -18 22zM58 248l20 -9q3 -1 1 -3q-4 0 -7 -4v-25h25l7 8l16 -11
q4 -2 -2 -2h-46v-27h17l7 9l15 -10l2 -2q0 -1 -3 -1h-38v-28h28l7 8l16 -11q4 -2 -2 -2h-94q-7 0 -11 -4l-9 9h55v28h-21q-6 0 -11 -3l-9 7h41v27h-29q-7 0 -11 -4l-9 9h49v27q0 5 -6 11zM111 105q-3 0 -5 -1q0 -1 -3 -6q3 5 -2 -3q-1 -3 -5 -9q-4 -7 -6 -11q-2 -2 -5 -7
q-1 -2 -2 -3q10 -8 13 -14q7 -14 -2 -15q-4 0 -8 6q-1 8 -9 15q-1 -2 -4 -5q-17 -22 -62 -44l-2 3q23 15 32 24q11 6 18 15q5 6 11 14q-10 9 -30 20l2 3q21 -8 33 -16l1 1q9 13 18 34h-47q-5 -9 -11 -16q-12 -15 -22 -23l-4 3q20 23 33 47q6 11 5 13q0 2 -3 5l2 2l20 -8
q1 -3 -3 -3q-1 0 -2 -1q-3 -1 -4 -2q-1 -2 -4 -6q-2 -4 -4 -6h41l7 8l14 -11q2 -1 -1 -3z" />
  </g>

</svg>
