<?xml version="1.0" standalone="no"?>
<!DOCTYPE svg PUBLIC "-//W3C//DTD SVG 1.1//EN" "http://www.w3.org/Graphics/SVG/1.1/DTD/svg11.dtd" >
<svg xmlns="http://www.w3.org/2000/svg" xmlns:xlink="http://www.w3.org/1999/xlink" version="1.1" viewBox="0 -36 256 256">
  <g transform="matrix(1 0 0 -1 0 220)">
   <path fill="currentColor"
d="M124 210l21 -10l-7 -9v-42h31v64q-1 26 -1 32l22 -10l-8 -7v-30h25l11 10l17 -17h-53v-42h35l14 12l16 -19h-120q-10 0 -19 -2l-9 9h26v36q0 12 -1 25zM143 107q-28 -35 -42 -46l-3 4q23 27 33 59l19 -12zM181 65l-15 -7q1 24 1 43t-1 39l20 -11l-5 -7v-36v-21zM233 84
q-48 -38 -73.5 -51.5t-77.5 -22.5l-1 5q45 9 82 32t59 58l19 -19zM39 96q13 -5 27 -11q11 29 16 84q-14 -2 -27 -4q-3 -15 -16 -69zM66 223q-3 -13 -9 -47q13 0 25 2q1 11 0 22l17 -8q-2 -3 -4 -13h12l1 -5q-9 -2 -13 -3q-4 -33 -7 -50.5t-11 -41.5q15 -10 20.5 -17.5t2 -17
t-10 0.5t-18.5 22q-21 -39 -61 -57v3q36 27 51 61q-14 10 -36 17q11 35 17 72q-16 -3 -25 -6l-6 16q20 0 33 2q8 45 9 66l19 -10z" />
  </g>

</svg>
