<?xml version="1.0" standalone="no"?>
<!DOCTYPE svg PUBLIC "-//W3C//DTD SVG 1.1//EN" "http://www.w3.org/Graphics/SVG/1.1/DTD/svg11.dtd" >
<svg xmlns="http://www.w3.org/2000/svg" xmlns:xlink="http://www.w3.org/1999/xlink" version="1.1" viewBox="0 -205 1024 1024">
  <g transform="matrix(1 0 0 -1 0 819)">
   <path fill="currentColor"
d="M346 694l34 48l64 -62q10 -12 -10 -14h-244q-11 0 -46 -8l-18 36h220v0v0zM210 888q-11 -21 -28 -54h204l40 48l58 -56q13 -12 -4 -18h-312q-30 -54 -60 -102q-31 -48 -64 -90l-12 6q26 55 50 104t48 110q25 59 50 134q78 -34 78 -38v-8t-18 -10q-15 -6 -30 -26v0v0z
M712 946q7 -3 8 -6q3 -6 -8 -12q-28 -12 -40 -36q-33 -69 -56 -128h252l34 42l56 -50q18 -12 18 -20q1 -7 -16 -10q-30 -8 -54 -34q-24 -27 -84 -116l-14 8l68 156h-270q-60 -135 -120 -216l-16 8q66 133 106 254q39 121 58 194l78 -34v0v0zM750 642q6 0 6 -8q0 -4 -6 -8
l-22 -16q24 -170 48 -250q24 -78 58 -132q33 -54 64 -79q27 -23 76 -38v-16q-40 0 -58 -4q-19 -3 -40 -18q-48 55 -80 119q-33 66 -50 136q-15 67 -38 242q-16 -159 -40 -246q-25 -88 -98 -170q-72 -80 -192 -135l-8 14q87 50 150 121q63 72 94 162q30 87 54 358l82 -32v0v0
zM332 572l32 36l56 -38q6 -4 4 -8q0 -9 -32 -30v-130q-1 -57 2 -114q0 -56 10 -82q7 -28 14 -16q6 9 18 36q11 25 40 92l18 -4q-45 -134 -48 -154q-4 -19 2 -35q6 -15 0 -18q-6 -4 -20 -2q-12 1 -30 20q-19 18 -34 53t-18 92q-3 55 -2 128v148h-184q-29 0 -52 -8l-30 34h254
v0v0z" />
  </g>

</svg>
