<?xml version="1.0" standalone="no"?>
<!DOCTYPE svg PUBLIC "-//W3C//DTD SVG 1.1//EN" "http://www.w3.org/Graphics/SVG/1.1/DTD/svg11.dtd" >
<svg xmlns="http://www.w3.org/2000/svg" xmlns:xlink="http://www.w3.org/1999/xlink" version="1.1" viewBox="0 -205 1024 1024">
  <g transform="matrix(1 0 0 -1 0 819)">
   <path fill="currentColor"
d="M214 584l62 -48h488l28 32l54 -34q9 -4 10 -10q0 -7 -30 -28v-126h60l32 44l62 -52q3 -3 4 -8q3 -9 -12 -8h-852q-20 0 -58 -8l-26 32h178v214v0v0zM264 370h130v142h-130v-142v0v0zM440 370h144v142h-144v-142v0v0zM630 370h146v142h-146v-142v0v0zM122 258h694l30 44
l62 -50q3 -4 4 -10q-1 -10 -16 -10h-354v-105q0 -42 -14 -70q-15 -25 -54 -38q-12 30 -32 42q-21 11 -90 34l8 20q63 -15 88 -18q24 -1 36 4q10 3 6 49v82h-284q-21 0 -68 -8l-16 34v0v0zM384 732v-52q4 -24 20 -26q17 -2 40 -4h164q33 0 48 6q15 4 18 26q3 24 10 84h20
q2 -51 4 -72q3 -20 28 -34q-10 -30 -34 -42q-23 -10 -70 -10h-234q-30 3 -44 18q-14 13 -16 56v108l72 -30q9 -5 4 -10q-6 -6 -30 -18v0v0zM432 976l8 12q54 -18 82 -32q26 -14 38 -34q11 -18 2 -36q-10 -18 -32 -18q-20 1 -28 26q-6 23 -20 40q-15 18 -50 42v0v0zM154 900
h22v-46h726l34 32q67 -60 68 -66q0 -7 -2 -10q-4 -3 -22 -2q-16 0 -40 -12q-24 -10 -72 -56l-16 10l52 80h-728q-6 -54 -24 -84q-15 -30 -36 -38q-21 -9 -36 -6q-14 0 -22 18q-9 15 10 30q17 15 34 28q17 12 32 42q14 26 20 80v0v0zM464 804l8 12q54 -18 82 -32
q24 -14 36 -34q11 -20 2 -40q-9 -18 -30 -18q-20 1 -28 26q-6 25 -20 44q-15 18 -50 42v0v0zM750 770q74 -26 116 -52q39 -27 48 -50q9 -22 -2 -40q-12 -16 -30 -14q-18 3 -26 28q-9 23 -30 46q-21 21 -86 72l10 10v0v0zM258 774q-1 -47 -16 -82q-13 -33 -28 -50
q-15 -15 -32 -24q-18 -8 -36 -6q-19 -1 -26 20q-6 17 22 32q28 13 56 38q27 24 40 72h20v0v0z" />
  </g>

</svg>
