<?xml version="1.0" standalone="no"?>
<!DOCTYPE svg PUBLIC "-//W3C//DTD SVG 1.1//EN" "http://www.w3.org/Graphics/SVG/1.1/DTD/svg11.dtd" >
<svg xmlns="http://www.w3.org/2000/svg" xmlns:xlink="http://www.w3.org/1999/xlink" version="1.1" viewBox="0 -36 256 256">
  <g transform="matrix(1 0 0 -1 0 220)">
   <path fill="currentColor"
d="M162 41h55v69h-55v-69zM224 160q-11 24 -22 39l3 2q23 -24 32.5 -39t2 -24.5t-9 -1t-4.5 17.5q-66 -7 -75 -17l-9 22q11 2 22.5 34t14.5 52l21 -12l-7 -3q-22 -50 -38 -72zM149 68q0 29 -1 58l15 -9h53l8 10l14 -14l-7 -6v-65q0 -10 1 -20l-15 -7v19h-55v-15l-14 -9
q1 29 1 58zM126.5 217q8.5 -9 2 -20t-10 4.5t-16.5 30.5l2 2q14 -8 22.5 -17zM114.5 151.5q6.5 -8.5 -0.5 -18t-9.5 4t-15.5 32.5l2 2q17 -12 23.5 -20.5zM101.5 71q6.5 0 9 6t27.5 92l4 -1q-25 -100 -26 -108t1.5 -28.5t-8.5 -16t-6.5 23.5t-2 23t-16.5 6l1 4
q10 -1 16.5 -1zM98 84l1 -6q-79 -36 -79 -44l-13 20q26 7 38 12v71h-4q-12 1 -20 -2l-8 9h32v66h-10q-10 -1 -17 -4l-9 11h62l13 12l16 -19h-41v-66h10l12 14l14 -21h-36v-68z" />
  </g>

</svg>
