<?xml version="1.0" standalone="no"?>
<!DOCTYPE svg PUBLIC "-//W3C//DTD SVG 1.1//EN" "http://www.w3.org/Graphics/SVG/1.1/DTD/svg11.dtd" >
<svg xmlns="http://www.w3.org/2000/svg" xmlns:xlink="http://www.w3.org/1999/xlink" version="1.1" viewBox="0 -36 256 256">
  <g transform="matrix(1 0 0 -1 0 220)">
   <path fill="currentColor"
d="M8 70q12 1 77 18l2 -4q-64 -23 -67 -31l-12 17v0zM108 108q-8 -66 -14 -77t-11.5 -15t-14.5 -8q-6 15 -29 22l1 4q22 -4 30.5 -4t12.5 11.5t12 70.5h-57l-8 -8l-15 12l10 7l8 77l20 -11l-8 -7l-7 -63h33l11 96h-39q-13 -1 -22 -3l-9 10h69l7 10l17 -13l-9 -8l-11 -92h10
l6 11l16 -13zM211 189l15 13l17 -20h-101q-10 -1 -20 -3l-9 10h98zM131 157q31 -53 33 -68t-5.5 -24.5t-9 6t-6 34t-15.5 50.5zM203 166l28 -13l-12 -9q-15 -55 -36 -111h29l16 15l19 -22h-112q-11 0 -20 -2l-10 9h70q24 86 28 133zM178.5 227q10.5 -10 3.5 -23t-11.5 2
t-22.5 39l3 2q17 -10 27.5 -20z" />
  </g>

</svg>
