<?xml version="1.0" standalone="no"?>
<!DOCTYPE svg PUBLIC "-//W3C//DTD SVG 1.1//EN" "http://www.w3.org/Graphics/SVG/1.1/DTD/svg11.dtd" >
<svg xmlns="http://www.w3.org/2000/svg" xmlns:xlink="http://www.w3.org/1999/xlink" version="1.1" viewBox="0 -205 1024 1024">
  <g transform="matrix(1 0 0 -1 0 819)">
   <path fill="currentColor"
d="M652 712v-62h210v62h-210v0v0zM652 626v-62h210v62h-210v0v0zM186 712v-64h220v64h-220v0v0zM186 624v-60h220v60h-220v0v0zM224 480h274v94l74 -24q13 -6 2 -12l-28 -12v-46h188l32 36l54 -44q3 -3 4 -8q0 -7 -14 -8h-264v-60h152l26 30l46 -30q13 -6 14 -14
q-1 -3 -28 -20v-72l4 -56q0 -15 -14 -24q-15 -6 -36 -8v40h-164v-30q71 -18 112 -32q41 -13 58 -32q15 -17 10 -37q-4 -19 -22 -20q-15 -1 -30 18q-12 19 -42 39q-28 20 -86 44v-69l4 -68q0 -12 -20 -24q-18 -9 -36 -10l4 108v95q-48 -52 -110 -89q-60 -37 -144 -68l-8 14
q81 45 130 79q47 36 92 82h-122v-16q0 -11 -20 -22q-18 -10 -32 -8l4 80v148l50 -28h160v60h-214q-22 0 -46 -8l-14 32v0v0zM336 264h162v110h-162v-110v0v0zM546 374v-110h164v110h-164v0v0zM364 356l4 10q35 -12 56 -26q20 -13 26 -28q6 -16 -2 -28q-8 -10 -22 -10
q-12 0 -18 12q-4 11 -10 26q-5 14 -34 44v0v0zM578 278l52 84l50 -26q6 -9 -2 -12q-21 -3 -36 -12q-14 -9 -52 -44l-12 10v0v0zM136 766l50 -28h210l30 28l48 -40q6 -6 -2 -14l-20 -16v-104l4 -66q-12 -13 -20 -16q-9 -4 -30 -8v36h-222v-399l4 -88q1 -15 -22 -30
q-23 -12 -34 -12l4 126v631v0v0zM884 770l48 -40q7 -4 8 -10q0 -6 -14 -14l-14 -10v-591q3 -39 -14 -60t-58 -34q-6 29 -26 40q-18 10 -80 32l4 16q62 -11 82 -14q18 -3 30 2q9 2 10 22v429h-208v-16q-6 -9 -18 -14q-13 -6 -34 -6l4 94v172l48 -30h200l32 32v0v0zM282 964
q10 -10 0 -16q-21 -4 -30 -10l-14 -14l-20 -30h204l40 44l62 -54q9 -16 -8 -16h-188q44 -27 56 -42q11 -12 14 -26q4 -15 -4 -26q-9 -12 -26 -12q-16 0 -22 22q-4 21 -10 36t-36 48h-98q-61 -87 -124 -146l-14 12q49 61 86 128q36 65 60 134l72 -32v0v0zM696 962
q10 -9 0 -18q-23 -5 -28 -10q-5 -4 -10 -10q-3 -6 -24 -30h254l40 46l62 -56q9 -16 -8 -16h-254q32 -19 50 -34t24 -30t-6 -30t-30 -12q-16 3 -20 28q-4 23 -14 40q-10 14 -32 38h-78q-57 -87 -108 -144l-16 10q47 74 74 134q26 59 44 124l80 -30v0v0z" />
  </g>

</svg>
