<?xml version="1.0" standalone="no"?>
<!DOCTYPE svg PUBLIC "-//W3C//DTD SVG 1.1//EN" "http://www.w3.org/Graphics/SVG/1.1/DTD/svg11.dtd" >
<svg xmlns="http://www.w3.org/2000/svg" xmlns:xlink="http://www.w3.org/1999/xlink" version="1.1" viewBox="0 -36 256 256">
  <g transform="matrix(1 0 0 -1 0 220)">
   <path fill="currentColor"
d="M176 14l-15 -7q1 17 1 82q-13 -22 -33.5 -41t-44.5 -29l-2 3q20 13 38.5 32.5t27.5 37.5h-30q-10 -1 -20 -3l-9 10h73q0 7 -1 28l21 -10l-7 -8v-10h45l13 12l16 -19h-69q10 -15 29.5 -33t38.5 -21v-4q-9 -1 -17 -12q-36 26 -55 70h-1q0 -64 1 -78zM142 133h58v28h-58v-28
zM128 176l14 -8h57l9 9l13 -13l-8 -6q0 -25 1 -34l-14 -6v8h-58v-4l-14 -5q2 31 0 59zM121 240q18 -11 25 -19.5t-0.5 -18t-10.5 4.5t-16 30zM228 189h-111q-1 -12 -5 -19.5t-12.5 -4.5t0.5 12t14 32h3v-13h47q0 38 -1 53l21 -11l-7 -8v-34h12q18 29 22 43l16 -13
q-10 -5 -31 -30h30l10 10l14 -16q-9 -2 -28 -23l-3 2zM92 157l-14 -6v9h-12v-44h12l9 11l14 -18h-35v-57l31 10l1 -4q-33 -13 -68 -30l-10 -8l-12 16l15 4q0 75 -1 96l21 -13l-7 -7v-72l17 5v111h-21v-7l-15 -7q2 14 2 42.5t-2 46.5l16 -10h43l9 10l13 -14l-7 -6
q0 -37 1 -58zM32 167h46v51h-46v-51z" />
  </g>

</svg>
