<?xml version="1.0" standalone="no"?>
<!DOCTYPE svg PUBLIC "-//W3C//DTD SVG 1.1//EN" "http://www.w3.org/Graphics/SVG/1.1/DTD/svg11.dtd" >
<svg xmlns="http://www.w3.org/2000/svg" xmlns:xlink="http://www.w3.org/1999/xlink" version="1.1" viewBox="0 -205 1024 1024">
  <g transform="matrix(1 0 0 -1 0 819)">
   <path fill="currentColor"
d="M914 682l54 -50q16 -12 2 -20q-30 -6 -62 -38q-34 -31 -94 -106l32 -12q10 -10 -10 -16l-18 -4v-44v-4h76l36 44l56 -48q3 -2 4 -10q0 -12 -12 -12h-160v-239q4 -53 -18 -76q-22 -21 -64 -30q-3 29 -44 46q-40 18 -70 26l4 18q65 -15 92 -16q24 -1 40 4q15 4 10 38v229
h-90q-21 1 -50 -10l-24 36h164v98l26 -10l92 144h-180q-15 0 -36 -8l-28 34h238l34 36v0v0zM448 818h180q19 74 32 160l82 -32q9 -3 4 -14q-24 -3 -30 -12q-5 -7 -16 -44q-12 -34 -20 -58h228l40 48l58 -58q6 -16 -8 -16h-324q-30 -96 -86 -206v-428l4 -103q3 -15 -18 -30
q-19 -15 -40 -16l4 143v368q-37 -58 -76 -100l-12 10q54 86 102 184q47 98 68 178h-88q-21 0 -68 -8l-16 34v0v0zM72 870h324l38 44l54 -54q16 -15 -10 -18h-218l50 -24q7 -1 8 -8q3 -7 -8 -10q-43 -12 -64 -50q-63 -82 -98 -142l244 20q-16 45 -68 114l12 12
q75 -58 102 -98q26 -36 28 -66q3 -29 -12 -40q-16 -10 -28 -4q-13 5 -16 20q0 14 -12 44l-196 -30q-48 -16 -90 -38l-38 66q33 3 54 18q53 84 112 216h-100q-21 0 -44 -8l-24 36v0v0zM322 540q21 -10 4 -22l-30 -14v-90h74l36 40l52 -48q3 -3 4 -8q0 -12 -12 -12h-154v-182
l160 42l4 -18l-264 -91q-42 -20 -74 -56l-44 65l166 48v192h-92q-21 0 -48 -12l-20 40h160v152l78 -26v0v0z" />
  </g>

</svg>
