<?xml version="1.0" standalone="no"?>
<!DOCTYPE svg PUBLIC "-//W3C//DTD SVG 1.1//EN" "http://www.w3.org/Graphics/SVG/1.1/DTD/svg11.dtd" >
<svg xmlns="http://www.w3.org/2000/svg" xmlns:xlink="http://www.w3.org/1999/xlink" version="1.1" viewBox="0 -36 256 256">
  <g transform="matrix(1 0 0 -1 0 220)">
   <path fill="currentColor"
d="M96 82q4 38 4.5 79.5t-0.5 78.5l14 -9h103l14 12l15 -19h-132q0 -66 -2 -99.5t-8 -62t-29 -56.5l-4 3q21 35 25 73zM155 202v-24h4l8 7l12 -14h-24v-8q14 -8 18.5 -13t0 -12.5t-7.5 2.5t-11 18q0 -41 1 -55l-13 -4q1 26 1 51q-11 -26 -31 -46l-2 2q18 28 29 66v-1
q-5 0 -15 -2l-9 9h28v21q-11 -3 -26 -5v5q27 7 45 19l10 -13q-5 0 -18 -3zM213 105l-13 -5q1 24 1 51q-9 -21 -29 -41l-2 2q21 34 28 61h-4l-7 -1l-7 8h21v24q-10 -2 -21 -3v3q28 8 42 18l10 -13q-6 0 -20 -3v-26h8l10 8l11 -15h-26q15 -36 33 -46v-3q-9 1 -14 -7
q-12 15 -22 46q0 -47 1 -58zM215 106l14 -17h-52v-26h20l13 11l15 -18h-48v-32h24q0 12 -14 27l2 3q5 -2 17 -10.5t0 -19.5h13l13 12l14 -19h-117q-11 0 -20 -2l-9 9h65v32h-16q-10 0 -19 -2l-10 9h45v26h-22q-10 0 -20 -2l-9 9h88zM93 77l1 -4q-74 -39 -74 -47l-13 18
q26 9 39 16v71h-7q-10 0 -19 -2l-9 9h35v66h-10q-10 0 -19 -2l-9 9h60l13 12l15 -19h-37v-66h9l13 12l13 -19h-35v-67z" />
  </g>

</svg>
