<?xml version="1.0" standalone="no"?>
<!DOCTYPE svg PUBLIC "-//W3C//DTD SVG 1.1//EN" "http://www.w3.org/Graphics/SVG/1.1/DTD/svg11.dtd" >
<svg xmlns="http://www.w3.org/2000/svg" xmlns:xlink="http://www.w3.org/1999/xlink" version="1.1" viewBox="0 -36 256 256">
  <g transform="matrix(1 0 0 -1 0 220)">
   <path fill="currentColor"
d="M157 165l1 -17l-14 -7v8h-34v-5l-14 -6q1 15 1 48.5t-1 49.5l14 -7h33l8 9l13 -12l-7 -6v-55zM173 237l14 -7h34l8 9l13 -13l-8 -6v-42q0 -11 1 -29l-14 -6v7h-34v-5l-14 -5q2 49 0 97zM110 204h34v18h-34v-18zM110 180h34v17h-34v-17zM110 156h34v17h-34v-17zM187 205
h34v18h-34v-18zM187 181h34v17h-34v-17zM187 157h34v17h-34v-17zM248 25q-11 1 -19 -11q-43 36 -50 113l-20 -4v-90l17 6q-3 9 -12 22l2 3q36 -28 29.5 -43t-10 -6t-7.5 20q-21 -14 -27 -24l-11 11q6 7 6 12v86l-21 -3q1 -58 -9.5 -77.5t-40.5 -32.5l-2 3q24 15 32.5 37.5
t5.5 84.5l13 -8q54 9 78 24l14 -16q-19 -2 -31 -5q16 -78 63 -98v-4zM39 245q18 -12 24.5 -22t-6.5 -22h13l13 10l14 -17h-56q-13 0 -22 -3l-10 10h44q-4 21 -17 42zM35 45h35v43h-35v-43zM61 165l11 10l16 -17h-42q-10 1 -19 -2l-7 9h41zM61 128l11 11l16 -18h-40
q-11 1 -19 -2l-7 9h39zM83 57q0 -11 1 -26l-14 -6v13h-35v-13l-14 -7q1 21 1 43t-1 43l15 -9h33l7 9l13 -12l-6 -6v-29z" />
  </g>

</svg>
