<?xml version="1.0" standalone="no"?>
<!DOCTYPE svg PUBLIC "-//W3C//DTD SVG 1.1//EN" "http://www.w3.org/Graphics/SVG/1.1/DTD/svg11.dtd" >
<svg xmlns="http://www.w3.org/2000/svg" xmlns:xlink="http://www.w3.org/1999/xlink" version="1.1" viewBox="0 -205 1024 1024">
  <g transform="matrix(1 0 0 -1 0 819)">
   <path fill="currentColor"
d="M600 644q7 -3 8 -6q3 -7 -18 -10l-22 -16q-16 -19 -34 -46h250l38 48l70 -56q1 -4 2 -10q0 -7 -8 -8h-188q-3 -94 -14 -158h172l48 54l64 -62q3 -3 4 -6q1 -12 -16 -12h-226q37 -85 86 -136q38 -49 100 -87q36 -15 84 -22l2 -20q-33 1 -54 -2q-21 -2 -42 -26
q-57 38 -114 115q-54 75 -90 178h-24q-28 -132 -136 -219q-99 -74 -216 -104l-2 16q92 35 184 115q92 81 116 192h-162q-21 0 -68 -8l-16 34h252q9 62 16 158h-132q-57 -84 -120 -132l-8 10q87 123 150 258l64 -32v0v0zM640 992l70 -44q7 -5 2 -10q0 -1 -6 -4q-15 0 -36 -14
q-90 -116 -164 -184l350 26q-48 60 -104 102l8 12q108 -52 144 -88q35 -36 44 -68q3 -21 -2 -38q-16 -21 -34 -18q-9 -1 -24 20q-6 33 -24 54q-222 -24 -320 -36l-24 -4l-48 -18l-32 66q26 3 44 12q21 15 42 46q60 85 114 188v0v0v0zM202 990l68 -30q20 -6 20 -12
q1 -6 -40 -30v-294q64 74 104 166q72 -39 70 -48q-3 -7 -8 -8q-6 1 -24 -4q-16 -5 -52 -46q-34 -39 -92 -90q0 -114 -8 -198q54 -28 102 -70q47 -43 58 -70q10 -25 8 -46q-3 -19 -12 -28t-26 -6q-16 2 -26 44q-10 39 -34 78q-22 36 -74 78q-12 -102 -60 -186
q-44 -82 -148 -161l-10 10q80 83 116 151q33 68 48 140q16 72 20 252v408v0v0zM110 746h16q12 -93 4 -156q-9 -61 -30 -82q-20 -22 -40 -20q-21 3 -26 18q-5 16 12 32q17 15 38 58q20 42 26 150v0v0v0z" />
  </g>

</svg>
