<?xml version="1.0" standalone="no"?>
<!DOCTYPE svg PUBLIC "-//W3C//DTD SVG 1.1//EN" "http://www.w3.org/Graphics/SVG/1.1/DTD/svg11.dtd" >
<svg xmlns="http://www.w3.org/2000/svg" xmlns:xlink="http://www.w3.org/1999/xlink" version="1.1" viewBox="0 -205 1024 1024">
  <g transform="matrix(1 0 0 -1 0 819)">
   <path fill="currentColor"
d="M884 644l26 34l58 -50q12 -8 12 -16q0 -6 -12 -8q-31 -6 -52 -20q-18 -16 -78 -76l-14 8l62 102h-412q-3 -63 -18 -90q-14 -24 -34 -32q-18 -7 -32 4q-15 9 -12 22q3 12 22 30q19 17 32 46q11 27 22 88h18v-42h412v0v0zM556 966l78 -30q6 -1 6 -8q0 -3 -32 -18v-92h132
v150l76 -28q6 -1 6 -8q0 -2 -30 -22v-92h92l42 50l62 -62q3 -1 4 -8q0 -6 -14 -6h-186v-34l2 -58q0 -15 -24 -24q-21 -6 -32 -6l2 88v34h-132v-38l2 -52q0 -13 -18 -22q-15 -9 -38 -8l2 84v36h-70q-21 -1 -68 -10l-18 36h156v148v0v0zM676 554q6 -3 6 -6q-1 -6 -34 -20
l-12 -112h170l38 42l56 -50q6 -4 6 -10q1 -4 -34 -20q-14 -145 -22 -188q-7 -44 -26 -81q-19 -38 -92 -64q-8 33 -40 50q-31 15 -82 30l6 19q86 -19 118 -19q33 1 46 17q11 18 20 58q6 36 22 190h-188q-18 -91 -56 -154q-36 -64 -116 -123q-78 -60 -188 -94l-4 12
q101 56 166 109t98 112q33 60 48 138h-96q-32 0 -52 -8l-22 34h174l12 166l78 -28v0v0zM112 864l62 -40h94l36 44l58 -54q6 -5 6 -10t-32 -28v-358l4 -100q1 -12 -16 -26q-19 -14 -40 -16v86h-120v-106q0 -16 -18 -28q-16 -13 -38 -10l4 146v500v0v0zM164 388h120v410h-120
v-410v0v0z" />
  </g>

</svg>
