<?xml version="1.0" standalone="no"?>
<!DOCTYPE svg PUBLIC "-//W3C//DTD SVG 1.1//EN" "http://www.w3.org/Graphics/SVG/1.1/DTD/svg11.dtd" >
<svg xmlns="http://www.w3.org/2000/svg" xmlns:xlink="http://www.w3.org/1999/xlink" version="1.1" viewBox="0 -52 256 256">
  <g transform="matrix(1 0 0 -1 0 204)">
   <path fill="currentColor"
d="M116 252l19 -4q2 -2 1 -2q0 -1 -2 -1q-1 0 -3 -1q-3 0 -4 -1q56 -42 118 -39v-4q-15 0 -17 -7q-29 2 -56 14l9 -6q2 -1 2 -3q-1 -1 -4 -1l-1 -3v-19l1 -16q1 -8 -10 -7v4h-95v-32l63 14l2 -4l-53 -15q-11 -4 -19 -10l-1 -1l-10 13q5 3 8 7v71v3q-25 -11 -56 -16l-1 4
q68 19 110 58l-3 2zM195 111l22 -9q4 0 1 -2q-1 0 -2 -1q-4 -3 -5 -5v-1l1 -15q2 -10 -12 -11v11h-38v-19h62l9 11l17 -12q2 -1 2 -2q-1 -1 -4 -1h-221q-6 0 -11 -3l-8 7h80v19h-36l-6 -8l-13 8q5 3 6 8v12q0 5 -8 12l2 3l22 -9q3 -1 2 -3q-5 -2 -8 -5v-14h39v20q1 5 -8 12
l3 3l21 -9q4 -1 2 -3q-5 -2 -8 -5v-41h53v43q0 5 -7 12l2 3l22 -9q3 -1 1 -3q-5 -2 -7 -5v-18h38v15q1 4 -7 11zM74 181h95v18h-95v-18zM169 178h-95v-18h95v18zM166 203l5 5q-25 11 -48 32q-9 -8 -17 -14q20 -5 22 -12q4 -9 -4 -10q-3 0 -5 4q-4 10 -17 16q-18 -11 -34 -20
l3 -1h95zM193 171l17 -14q2 -1 2 -2t-2 -1q-8 2 -26 -7q-3 -2 -5 -3q-1 0 -4 -1q-4 -2 -7 -3q17 -5 24 -7q29 -13 21 -21q-3 -4 -17 6q-9 8 -47 19q-26 8 -50 11v4q27 -3 48 -7q8 -1 14 -3q3 2 8 4q8 5 12 7q14 8 12 11q0 1 -1 4q1 -1 -1 1zM90 54l17 -12q2 -1 2 -2h-2
q-8 1 -14 -3q-26 -15 -67 -27l-2 4q55 22 65 34q2 2 -1 4zM154 47l1 3q18 -3 37 -10q21 -6 26 -15q6 -8 1 -13q-5 -4 -11 5t-18 16t-36 14z" />
  </g>

</svg>
