<?xml version="1.0" standalone="no"?>
<!DOCTYPE svg PUBLIC "-//W3C//DTD SVG 1.1//EN" "http://www.w3.org/Graphics/SVG/1.1/DTD/svg11.dtd" >
<svg xmlns="http://www.w3.org/2000/svg" xmlns:xlink="http://www.w3.org/1999/xlink" version="1.1" viewBox="0 -36 256 256">
  <g transform="matrix(1 0 0 -1 0 220)">
   <path fill="currentColor"
d="M155 118h58v35h-58v-35zM143 171.5q0 42.5 -1 68.5l13 -10h58l7 10l13 -14l-7 -5v-84q0 -14 1 -30l-14 -5v9h-11v-71q0 -11 12 -11h10q8 0 8.5 10.5t1.5 32.5h4q0 -21 1.5 -30t8.5 -10q-3 -14 -21 -14h-17q-20 -1 -20 19v74h-13q-2 -45 -16.5 -67.5t-43.5 -35.5l-2 3
q21 14 34.5 35t15.5 65h-10v-6l-13 -6q1 30 1 72.5zM155 196h58v27h-58v-27zM155 160h58v29h-58v-29zM54 106q21 -15 26.5 -24.5t0 -19t-7 -3t-5.5 16t-15 25.5q-6 -28 -16 -47.5t-27 -33.5l-2 2q11 15 18.5 32.5t12 36.5t5.5 38h-8q-10 0 -19 -2l-9 9h37q1 43 1 58h-11
q-12 -25 -24 -39l-2 3q11 19 17.5 41.5t10.5 49.5l17 -10q-5 -6 -7 -13t-9 -25h23l11 10l13 -17h-27q0 -26 -1 -58h8l11 11l12 -18h-31q-1 -11 -3 -23zM132 97q0 -14 1 -45l-13 -7v19h-19v-17l-13 -7q1 32 1 94t-1 87l12 -8h20l6 9l13 -12l-7 -6v-107zM101 71h19v135h-19
v-135z" />
  </g>

</svg>
