<?xml version="1.0" standalone="no"?>
<!DOCTYPE svg PUBLIC "-//W3C//DTD SVG 1.1//EN" "http://www.w3.org/Graphics/SVG/1.1/DTD/svg11.dtd" >
<svg xmlns="http://www.w3.org/2000/svg" xmlns:xlink="http://www.w3.org/1999/xlink" version="1.1" viewBox="0 -205 1024 1024">
  <g transform="matrix(1 0 0 -1 0 819)">
   <path fill="currentColor"
d="M406 824h212v150l80 -30q8 -4 8 -8q2 -6 -4 -8l-32 -14v-90h132l36 44l60 -54q3 -3 4 -6q3 -7 -12 -10h-220v-114h202l38 50l58 -56q3 -4 4 -10q0 -10 -14 -10h-514q-21 0 -62 -8l-22 34h258v114h-136q-21 1 -56 -10l-20 36v0v0zM596 652q54 -15 66 -24t6 -14
q-6 -4 -18 -4q-10 -1 -52 -28q-40 -27 -134 -98l356 4q-42 52 -110 98l8 12q86 -34 134 -70q47 -35 52 -64q5 -28 -4 -40q-9 -14 -24 -12q-14 3 -22 18q-8 16 -22 38q-260 -17 -316 -22q-54 -6 -104 -26l-34 62q23 2 62 16q99 75 156 154v0v0zM396 408l62 -40h368l28 34
l50 -38q12 -8 12 -16q0 -6 -36 -30v-229h32l34 42l50 -50q3 -3 4 -10q4 -7 -10 -8h-616q-21 1 -60 -8l-24 34h106v319v0v0zM446 89h96v253h-96v-253v0v0zM588 89h98v253h-98v-253v0v0zM732 89h98v253h-98v-253v0v0zM32 750h154v232l84 -32q9 -5 4 -10q-4 -5 -40 -22v-168h60
l34 40l54 -52q8 -14 -10 -16h-138v-210l120 68l10 -16l-130 -90v-349q3 -36 -14 -60q-18 -21 -62 -36q-4 33 -34 48q-29 15 -82 30l4 18q96 -24 118 -18q21 6 22 32v301q-51 -33 -72 -54q-21 -18 -32 -42l-52 52l156 94v232h-78q-34 -1 -52 -10l-24 38v0v0z" />
  </g>

</svg>
