<?xml version="1.0" standalone="no"?>
<!DOCTYPE svg PUBLIC "-//W3C//DTD SVG 1.1//EN" "http://www.w3.org/Graphics/SVG/1.1/DTD/svg11.dtd" >
<svg xmlns="http://www.w3.org/2000/svg" xmlns:xlink="http://www.w3.org/1999/xlink" version="1.1" viewBox="0 -36 256 256">
  <g transform="matrix(1 0 0 -1 0 220)">
   <path fill="currentColor"
d="M106 69q6 31 6 75.5t-2 70.5l14 -10h97l10 11l15 -18h-122v-51h27q0 26 -1 42l20 -9l-6 -6v-27h31q0 25 -1 43l21 -10l-7 -7v-26h14l12 11l14 -18h-40q0 -34 1 -53l-14 -5v12h-31v-10l-14 -6q1 23 1 62h-27q0 -40 -6.5 -72t-34.5 -60l-4 2q21 28 27 59zM185.5 231
q5.5 -8 -1.5 -16.5t-9.5 2.5t-15.5 28l2 3q19 -9 24.5 -17zM164 101h31v39h-31v-39zM242.5 38.5q2.5 -10.5 -5 -18t-9 6.5t-16.5 42l3 2q25 -22 27.5 -32.5zM133 24.5q-8 -10.5 -16.5 -6t3 14t16.5 33.5h4q1 -31 -7 -41.5zM210 39q2 -9 -5.5 -16t-8 4t-11.5 39l3 3
q20 -21 22 -30zM174.5 40.5q3.5 -10.5 -5 -18.5t-8.5 5t-7 39l3 1q14 -16 17.5 -26.5zM28 75q4 -34 1.5 -42.5t-9 -11.5t-11 0.5t3 12.5t11.5 41h4zM44 77l3 2q19 -24 19.5 -34.5t-7 -13.5t-8 7.5t-7.5 38.5zM70 87q26 -19 28.5 -27t-4 -15t-9 4.5t-17.5 34.5zM64 227
q-21 -35 -38 -57l40 1q7 12 13 25l19 -14l-11 -4q-39 -51 -63 -72l54 5q-5 13 -14 27l2 3q31 -26 31 -35.5t-6 -13.5t-7.5 1.5t-4.5 12.5q-24 -5 -38 -9t-24 -9l-8 19q8 -1 22.5 16t30.5 42q-33 -6 -42 -13l-9 19q8 -2 21 22t21 50l21 -11z" />
  </g>

</svg>
