<?xml version="1.0" standalone="no"?>
<!DOCTYPE svg PUBLIC "-//W3C//DTD SVG 1.1//EN" "http://www.w3.org/Graphics/SVG/1.1/DTD/svg11.dtd" >
<svg xmlns="http://www.w3.org/2000/svg" xmlns:xlink="http://www.w3.org/1999/xlink" version="1.1" viewBox="0 -36 256 256">
  <g transform="matrix(1 0 0 -1 0 220)">
   <path fill="currentColor"
d="M126 204h-37q0 -7 1 -19l-16 -7q1 15 1 26h-23q-14 0 -25 -3l-9 10h57q0 24 -1 35l22 -9l-7 -8v-18h12l12 12zM129 212h33q0 19 -1 33l22 -10l-7 -7v-16h35l12 11l14 -18h-61q0 -7 1 -20l-16 -6q1 20 1 26h-11q-7 1 -14 -4zM178 126q-9 10 -21 19l2 3q30 -13 41 -22
t5 -19.5t-10.5 -3t-13.5 18.5q-20 -2 -63.5 -5.5t-52.5 -8.5l-10 19q13 -1 36 16t32 32l16 -17q-9 -2 -27.5 -13t-35.5 -20zM136 15l-16 -7q1 28 1 74h-76q-13 0 -24 -3l-9 10h109q0 9 -1 27l25 -11l-10 -6v-10h76l15 13l20 -20h-111q0 -49 1 -67zM205 175l14 13l17 -20
h-177q-22 0 -28 -3l-9 10h183zM105 57h-9q-39 -28 -70 -41l-2 4q45 26 67 55zM217.5 44q9.5 -8 8 -20.5t-16 3t-56.5 39.5l1 4q54 -18 63.5 -26z" />
  </g>

</svg>
