<?xml version="1.0" standalone="no"?>
<!DOCTYPE svg PUBLIC "-//W3C//DTD SVG 1.1//EN" "http://www.w3.org/Graphics/SVG/1.1/DTD/svg11.dtd" >
<svg xmlns="http://www.w3.org/2000/svg" xmlns:xlink="http://www.w3.org/1999/xlink" version="1.1" viewBox="0 -205 1024 1024">
  <g transform="matrix(1 0 0 -1 0 819)">
   <path fill="currentColor"
d="M400 832h350q36 65 66 146q72 -36 70 -42q-3 -7 -6 -8q-3 0 -18 -6q-12 -4 -30 -22t-56 -68h128l32 50l60 -58q3 -4 4 -10q0 -7 -14 -8h-204v-86h90l30 42l56 -44q3 -3 4 -6q1 -7 -28 -26v-232l4 -74q1 -13 -16 -22q-18 -9 -36 -12v20h-364v-16q-1 -13 -16 -22
q-15 -8 -36 -10l4 94v348l58 -40h84v86h-144q-21 0 -54 -8l-18 34v0v0zM522 470v-78h364v78h-364v0v0zM522 508v-12h364v64h-54q-30 0 -50 4q-18 3 -30 18q-10 12 -10 34v78h-84q3 -42 -24 -90q-28 -45 -112 -96v0v0v0zM886 694h-104v-66q-1 -19 8 -26q9 -6 36 -6h60v98v0v0
zM658 720h84v86h-84v-86v0v0zM616 694h-94v-162q45 33 72 78q24 42 22 84v0v0zM546 962l10 10q48 -23 72 -40q24 -18 30 -36q7 -19 2 -32q-6 -13 -18 -16q-10 -4 -20 2q-9 3 -12 18q-2 14 -16 38q-15 23 -48 56v0v0zM528 228l8 12q57 -18 78 -30q18 -12 28 -32q9 -21 0 -36
q-9 -14 -20 -15q-9 -1 -18 4q-8 5 -10 13q0 8 -14 32t-52 52v0v0zM398 286h402v64l64 -22q10 -1 8 -8q0 4 -26 -16v-18h74l28 42l54 -48q3 -4 4 -10q0 -10 -12 -10h-148v-165q-1 -33 -26 -52q-22 -22 -50 -26q-10 32 -26 40q-15 9 -86 30l4 16q94 -19 116 -14q21 4 22 22
v149h-342q-22 0 -46 -8l-14 34v0v0zM212 954l78 -40q9 -6 -2 -14l-28 -16v-606l74 12v464l80 -32q10 -7 0 -14l-32 -12v-394l4 -90q-1 -12 -16 -24q-15 -9 -36 -12v94q-124 -31 -172 -46q-48 -16 -74 -38l-38 50q21 9 34 22v498l72 -34q6 -7 -2 -14l-24 -12v-442l82 12v688
v0v0z" />
  </g>

</svg>
