<?xml version="1.0" standalone="no"?>
<!DOCTYPE svg PUBLIC "-//W3C//DTD SVG 1.1//EN" "http://www.w3.org/Graphics/SVG/1.1/DTD/svg11.dtd" >
<svg xmlns="http://www.w3.org/2000/svg" xmlns:xlink="http://www.w3.org/1999/xlink" version="1.1" viewBox="0 -205 1024 1024">
  <g transform="matrix(1 0 0 -1 0 819)">
   <path fill="currentColor"
d="M412 766h256v200l88 -32q8 -3 8 -8q3 -3 0 -8l-44 -16v-136h148l44 52l68 -62q3 -4 4 -10q1 -7 -16 -8h-248v-176h118l36 42l68 -50q3 -4 4 -10q1 -7 -16 -8h-388q-22 1 -70 -10l-18 36h214v176h-168q-21 0 -68 -8l-20 36v0v0zM504 452l58 -42h274l34 36l52 -38
q12 -6 12 -14q0 -6 -32 -24v-212l4 -81q3 -15 -18 -28q-19 -12 -38 -12v86h-294v-56q0 -14 -20 -26q-21 -14 -36 -14l4 117v308v0v0zM556 150h294v232h-294v-232v0v0zM58 856h306l38 50l60 -58q12 -15 -8 -18h-162q-36 -142 -86 -268h130l32 36l54 -46q6 -6 6 -8
q0 -6 -32 -30v-312l4 -44q2 -15 -16 -27q-18 -14 -36 -16v77h-144v-73q0 -18 -20 -28q-21 -12 -32 -12l4 101v266q-33 -79 -98 -154l-10 8q57 105 102 228q46 122 86 302h-90q-22 0 -70 -8l-18 34v0v0zM204 218h144v318h-144v-318v0v0z" />
  </g>

</svg>
