<?xml version="1.0" standalone="no"?>
<!DOCTYPE svg PUBLIC "-//W3C//DTD SVG 1.1//EN" "http://www.w3.org/Graphics/SVG/1.1/DTD/svg11.dtd" >
<svg xmlns="http://www.w3.org/2000/svg" xmlns:xlink="http://www.w3.org/1999/xlink" version="1.1" viewBox="0 -144 1024 1024">
  <g transform="matrix(1 0 0 -1 0 880)">
   <path fill="currentColor"
d="M842 610l61 -24l13 -15l-22 -7l-16 -40l-23 -51l-9 -18l-10 -18l-3 -6h54l33 37l43 -37v-22h-143v-128h25l44 48l54 -48v-22h-123v-183l-64 -32v215h-123v22h123v128h-144v22h208l2 11l2 20l2 19l2 19l7 53l3 32l1 10zM490 749l57 -31l12 -16l-25 -4l-17 -25l-29 -35
l-22 -22h80l32 27l59 -48l-27 -22v-133l-64 -32v32h-104v-103h114l32 27l59 -49l-27 -21v-185l-64 -33v65h-114v-65l-65 -32v604l65 -32h9l3 6l9 30l9 28l7 26l4 12l2 12l1 6l-1 1zM162 433l-76 -45l-2 -21l-17 10l-21 42l-1 1l-1 2l-4 7l-1 2l-1 3l123 57l1 1v260h-118v22
h118v209l65 -10l16 -11l-16 -10v-178h23l45 48l53 -48v-22h-121v-230l87 39l32 13l4 -8l-25 -22l-55 -41l-43 -28v-336l-1 -13l-2 -14l-5 -12l-7 -13l-8 -11l-11 -8l-12 -7l-13 -4l-14 -3l-13 -1v33l-75 16v16h75h6l5 1l5 2l2 2l2 5l1 5v6v294zM556 315h-114v-153h114v153z
M38 434l29 -57l-39 52zM704 489v15l-4 42l-1 13l-2 14l-2 13l-4 13l8 4l8 -11l10 -11l8 -12l15 -26l7 -14l12 -29l9 -32l-6 -24l-22 -12l-23 6l-13 22v29zM546 595h-104v-133h104v133zM639 615v21h117v110l64 -11l16 -11l-16 -9v-79h19l44 48l53 -48v-21h-297zM732 990
l64 -11l16 -11l-16 -9v-80h52l54 53l65 -53v-22h-171v-85l-64 -33v118h-129v-85l-64 -33v118h-171v22h171v111l64 -11l16 -11l-16 -9v-80h129v111z" />
  </g>

</svg>
