<?xml version="1.0" standalone="no"?>
<!DOCTYPE svg PUBLIC "-//W3C//DTD SVG 1.1//EN" "http://www.w3.org/Graphics/SVG/1.1/DTD/svg11.dtd" >
<svg xmlns="http://www.w3.org/2000/svg" xmlns:xlink="http://www.w3.org/1999/xlink" version="1.1" viewBox="0 -200 999 1000">
  <g transform="matrix(1 0 0 -1 0 800)">
   <path fill="currentColor"
d="M230 820h12q25 -14 53 -31.5t54 -37.5q22 19 39 38t30 39h-206l-45 -17l-26 38h173v50l-11 103l75 -42l-14 -66v-45h73l42 48l67 -69h-128l54 -41l-26 -11q-8 -5 -27 -18t-43 -30q36 -31 37 -50q-1 -1 -1 -11q0 -1 -0.5 -4t-1.5 -8h77l45 49l68 -71h-248l56 -34l-13 -71
v-87h58l37 47l56 -69h-151v-142h42l38 44l61 -66h-141v-161h79l41 47l58 -70h-318l-41 -13l-24 36h158v161h-43l-43 -14l-25 36h111v142h-66q-5 -20 -12.5 -41t-16 -41t-16 -37t-12.5 -27l-5 -2q16 81 26 153t10 123l65 -39l-21 -31l-12 -36h60v192h-222l-39 -17l-28 39h188
q17 17 35 34t37 34q-22 23 -45.5 48.5t-43.5 48.5zM50 5q21 36 35 80.5t22.5 92t12.5 94.5t6 89v3q0 66 -2 134t-3 132l73 -33l-18 -55v-116v-32v-23.5t-2 -22.5q-4 -50 -10.5 -101t-19.5 -97.5t-33 -85.5t-51 -64zM337 700q-20 -13 -36.5 -25l-27.5 -20h100q-11 18 -36 45z
M713 665v-657q11 0 22 9t26 26v514l20 73zM566 546q20 24 48 79t60 140h158q5 -5 5 -12q0 -8 -4 -18.5t-10 -21.5t-12 -22.5t-10 -21.5v-1q1 0 1.5 0.5t1.5 0.5q3 0 8 -8q25 44 49 59.5t43.5 19t32 4.5t14.5 16v2q0 14 -24.5 34t-67.5 40l-31 -47h-147l45 128l24 32l-77 48
h2q-6 -53 -17 -110.5t-26.5 -115.5t-35 -114t-42.5 -107z" />
  </g>

</svg>
