<?xml version="1.0" standalone="no"?>
<!DOCTYPE svg PUBLIC "-//W3C//DTD SVG 1.1//EN" "http://www.w3.org/Graphics/SVG/1.1/DTD/svg11.dtd" >
<svg xmlns="http://www.w3.org/2000/svg" xmlns:xlink="http://www.w3.org/1999/xlink" version="1.1" viewBox="0 -36 256 256">
  <g transform="matrix(1 0 0 -1 0 220)">
   <path fill="currentColor"
d="M100 76l1 -5q-78 -37 -78 -45l-11 19q23 8 35 13v74h-7q-9 0 -17 -2l-8 9h32v67h-10q-9 0 -17 -2l-8 9h60l13 14l16 -21h-41v-67h15l13 12l14 -19h-42v-70zM71 118q20 -18 21.5 -26.5t-4 -13.5t-8.5 7.5t-12 29.5zM158.5 228q6.5 -8 -2.5 -18h23q14 25 15 36l17 -11
q-9 -3 -27 -25h27l12 12l15 -19h-64v-20h28l11 10l16 -17h-55v-19h39l12 11l16 -18h-116q-10 0 -19 -2l-8 9h64v19h-18q-10 0 -18 -2l-9 9h45v20h-31q-9 0 -18 -2l-9 9h45q-1 6 -4 13.5t-14 17.5l3 3q18 -8 24.5 -16zM143 68v-38q0 -18 -18 -24q-1 13 -20 18v4
q17 -4 20.5 -2.5t5.5 9.5v27q-20 -11 -27 -18l-12 13q15 4 39 15v24h-10q-10 0 -19 -2l-8 9h37v24q-6 -2 -26 -5v4q38 9 49 22l11 -13q-8 -1 -22 -5v-27h32q-1 33 -1 43l19 -8l-7 -6q0 -10 1 -29h29l10 10l16 -17h-55q1 -20 8 -36q15 15 21 27l13 -11q-8 -4 -29 -24
q12 -17 30 -26l4 25h4q0 -32 3 -44q-30 9 -49 36q-19 -14 -46 -21l-2 3q23 9 42 27q-8 18 -10 44h-33v-21l24 11l2 -5zM220.5 128.5q4.5 -5.5 -0.5 -14t-9 3.5t-14 23l2 3q17 -10 21.5 -15.5z" />
  </g>

</svg>
