<?xml version="1.0" standalone="no"?>
<!DOCTYPE svg PUBLIC "-//W3C//DTD SVG 1.1//EN" "http://www.w3.org/Graphics/SVG/1.1/DTD/svg11.dtd" >
<svg xmlns="http://www.w3.org/2000/svg" xmlns:xlink="http://www.w3.org/1999/xlink" version="1.1" viewBox="0 -36 256 256">
  <g transform="matrix(1 0 0 -1 0 220)">
   <path fill="currentColor"
d="M43 245l15 -9h132l7 10l15 -12l-7 -6v-25l-13 -6v6h-57q1 -5 4 -17h67l14 12l18 -19h-96q22 -22 73 -26l7 25h5q-1 -11 0.5 -21t6 -15t-12 -3.5t-35.5 5t-35.5 14t-23.5 21.5h-69v-21l54 11l1 -4q-16 -4 -38.5 -12t-25.5 -14l-11 13q7 5 6 10v60q0 6 -1 23zM58 210h134
v19h-134v-19zM58 186h67q-3 11 -4 17h-63v-17zM48 102q0 15 -1 38l14 -6h136l6 7l13 -10l-5 -5q0 -33 1 -50l-14 -6v8h-137v-3l-14 -5q1 17 1 32zM61 109h60v17h-60v-17zM136 109h62v17h-62v-17zM61 85h60v17h-60v-17zM136 85h62v17h-62v-17zM47 63q-1 -23 -6 -30.5
t-12 -10.5t-14.5 1t6.5 11t22 29h4zM101 76q24 -7 32 -14t6.5 -14t-6.5 -7.5t-10 9.5t-23 23zM200 65q26 -11 35.5 -18t10 -13.5t-5 -10t-13.5 8.5t-29 29zM70 70l26 -10l-10 -7v-16q-2 -13 15 -12h59q17 -1 19 10.5t2 25.5h5q1 -17 4 -23.5t10 -10.5q-8 -14 -31 -14h-72
q-26 -1 -26 17q0 24 -1 40z" />
  </g>

</svg>
