<?xml version="1.0" standalone="no"?>
<!DOCTYPE svg PUBLIC "-//W3C//DTD SVG 1.1//EN" "http://www.w3.org/Graphics/SVG/1.1/DTD/svg11.dtd" >
<svg xmlns="http://www.w3.org/2000/svg" xmlns:xlink="http://www.w3.org/1999/xlink" version="1.1" viewBox="0 -205 1048 1024">
  <g transform="matrix(1 0 0 -1 0 819)">
   <path fill="currentColor"
d="M204 894v-165h206v165h-206zM204 359h207v165h-207v-165zM157 866l-3 71l47 -28h201l32 33l37 -33q25 -17 16 -26q-6 -6 -27 -7v-522q2 -26 -2 -33q-4 -12 -21 -16q-20 -5 -25 1q-4 5 -2 24v12h-204v-21l-2 -17q-3 -6 -17 -11q-23 -7 -28 2q-5 4 -3 22l1 9v540zM272 270
q34 -26 26 -33q-6 -6 -34 1q-38 -54 -95 -102q-51 -40 -113 -73l-7 12q63 47 102 89q53 52 93 129zM319 293q95 -36 149 -82q50 -44 59 -91q4 -29 -9 -39q-14 -11 -31 16q-22 43 -50 78q-45 52 -123 107zM411 709h-207v-169h207v169zM816 867l42 37l40 -37q27 -25 20 -33
t-50 -4q-29 -48 -53 -83q-31 -41 -60 -72q50 -59 119 -90q59 -31 143 -44l-6 -11q-36 0 -52 -8q-16 -9 -16 -29q-69 37 -106 72q-59 44 -99 96q-36 -51 -102 -96t-148 -75l-5 8q83 43 139 89.5t93 97.5q-25 37 -43 72q-19 38 -29 83q-37 -64 -63 -98q-32 -48 -94 -92l-6 5
q56 55 99 134q43 77 78 176l39 -19q26 -14 21 -22q-2 -6 -31 -6l-16 -22l-13 -29h159zM823 852h-167q11 -44 29 -83t44 -71q28 37 51 75q25 40 43 79zM525 408l70 -1h97l7 64l7 69l42 -9q33 -8 33 -17t-31 -14l-14 -93h112l40 33l37 -36q24 -24 21 -33q-2 -7 -28 -7
q-21 -159 -61 -228q-43 -73 -127 -74q-7 25 -33 40q-21 12 -67 27l2 10q82 -16 111 -16q34 0 62 17q26 23 42 85q18 67 24 167h-138q-18 -105 -77.5 -192t-175.5 -129l-3 11q97 54 145.5 121t66.5 189h-81l-72 -2z" />
  </g>

</svg>
