<?xml version="1.0" standalone="no"?>
<!DOCTYPE svg PUBLIC "-//W3C//DTD SVG 1.1//EN" "http://www.w3.org/Graphics/SVG/1.1/DTD/svg11.dtd" >
<svg xmlns="http://www.w3.org/2000/svg" xmlns:xlink="http://www.w3.org/1999/xlink" version="1.1" viewBox="0 -205 1024 1024">
  <g transform="matrix(1 0 0 -1 0 819)">
   <path fill="currentColor"
d="M182 958q83 -33 80 -42q-2 -9 -10 -12q-7 -1 -16 -10q-9 -7 -24 -26q-12 -19 -48 -94h206l36 50l58 -60q2 -6 2 -8q0 -9 -8 -8h-158l-10 -230h88l38 44l52 -50q3 -4 4 -10q1 -7 -10 -8h-172q-2 -42 -10 -84q85 -55 122 -92q35 -36 44 -66q6 -30 -2 -50q-10 -20 -32 -18
q-20 0 -28 40q-7 38 -28 76q-22 36 -82 90q-24 -118 -86 -208q-63 -88 -146 -151l-8 16q53 49 106 129q50 80 74 164q21 84 24 154h-114q-22 0 -70 -8l-14 32h200l6 230h-94q-53 -100 -100 -164l-14 10q42 88 82 188q37 98 62 176v0v0zM522 900l58 -46h38q17 48 44 130
l70 -32q10 -8 0 -16q-30 -3 -48 -30q-17 -25 -40 -52h170l30 38l58 -44q6 -4 6 -8q0 -7 -36 -28v-170l4 -62q-3 -16 -18 -28q-15 -9 -38 -12v42h-248v-80h320l46 52l52 -64q6 -15 -8 -14h-410v-78h316l28 32l58 -44q12 -7 -2 -16l-28 -20q-1 -82 -8 -136q-6 -53 -12 -91
q-6 -39 -30 -66q-24 -24 -66 -42q-12 45 -48 60q-36 12 -92 30l6 18q72 -15 102 -18q30 -2 52 4q20 6 26 31q3 25 10 68q4 42 8 162h-320q0 -25 -14 -34q-13 -9 -40 -14l4 108v470v0v0zM572 610h248v92h-248v-92v0v0zM572 732h248v94h-248v-94v0v0zM658 334l12 8
q65 -55 80 -82q12 -26 10 -46q-3 -18 -14 -26q-12 -10 -26 -4q-15 3 -18 28q0 23 -6 44t-38 78v0v0zM744 342l10 10q66 -40 90 -70q24 -28 22 -50q-3 -20 -18 -28q-13 -9 -26 -2q-11 6 -16 24q-3 19 -12 44q-7 24 -50 72v0v0zM508 296h22q6 -105 -6 -138q-9 -30 -26 -45
q-15 -14 -36 -14q-22 1 -28 22q-7 19 14 31q18 13 34 38q14 23 26 106v0v0zM562 316l14 8q59 -63 68 -92q9 -27 4 -48q-3 -18 -18 -26q-13 -9 -26 -2t-14 26v50q-1 30 -28 84v0v0z" />
  </g>

</svg>
