<?xml version="1.0" standalone="no"?>
<!DOCTYPE svg PUBLIC "-//W3C//DTD SVG 1.1//EN" "http://www.w3.org/Graphics/SVG/1.1/DTD/svg11.dtd" >
<svg xmlns="http://www.w3.org/2000/svg" xmlns:xlink="http://www.w3.org/1999/xlink" version="1.1" viewBox="0 -200 1000 1000">
  <g transform="matrix(1 0 0 -1 0 800)">
   <path fill="currentColor"
d="M269 665l29 39l57 -46q10 -8 8 -11t-16 -2h-116v-196h50l28 39l61 -45q7 -6 7 -9h80q11 86 13 201h-19q-20 0 -39 -13l-31 33h89v202h-26q-24 0 -34 -13l-34 33h217l31 38l44 -37q9 -6 9 -11t-9 -8l-19 -12v-592q10 -178 -132 -192q-1 33 -80 60l3 18q31 -14 87 -23
q85 -5 83 163v133h-116q-38 -237 -200 -364l-8 12q141 155 168 352h-13q-22 0 -39 -13l-28 28q-4 -1 -12 0h-131v-292q-2 -32 -14 -53q-18 -23 -73 -34q-3 29 -22 39q-18 8 -74 26l4 16l36 -8q110 -34 103 44v262h-83q-21 1 -37 -12l-30 32h150v196h-72q-22 2 -39 -12
l-30 32h141v190q-63 -16 -136 -23l-3 16q132 26 197 60q3 2 10 5q31 16 37 21q4 7 4 23l9 2l49 -47q7 -7 8 -12q-1 -5 -8 -6q-26 5 -33 4q-51 -19 -94 -32v-201h38zM936 829l-23 -55q-31 -79 -83 -185q149 -122 143 -231q-8 -143 -125 -159v1q0 32 -71 49l1 16
q46 -15 72 -15q72 7 82 106q0 50 -18 88q-2 4 -5 12q-12 38 -103 131q63 166 95 271h-140v-692l4 -95q2 -36 -51 -45q0 3 1 10q7 84 7 175v658q-4 21 -21 35l15 15l35 -41h146l29 27l38 -44q9 -7 9 -11q0 -3 -17 -11q-15 -6 -20 -10zM510 635q0 -87 -12 -201h112v201h-100z
M510 655h100v202h-100v-202z" />
  </g>

</svg>
