<?xml version="1.0" standalone="no"?>
<!DOCTYPE svg PUBLIC "-//W3C//DTD SVG 1.1//EN" "http://www.w3.org/Graphics/SVG/1.1/DTD/svg11.dtd" >
<svg xmlns="http://www.w3.org/2000/svg" xmlns:xlink="http://www.w3.org/1999/xlink" version="1.1" viewBox="0 -52 256 256">
  <g transform="matrix(1 0 0 -1 0 204)">
   <path fill="currentColor"
d="M154 154h-17q-7 0 -12 -4l-8 8h100v20h-72q-8 0 -11 -4l-8 8h91v19h-80q-6 0 -9 -4l-6 5q-12 -14 -25 -23l-2 3q24 23 39 52q6 12 6 14l-1 2t-2 3l2 2l19 -7q2 -1 2 -2t-2 -1q-4 0 -8 -3q-3 -7 -8 -13h52l10 9l14 -14q1 -2 -2 -1q-5 1 -8 -2q-1 0 -2 -1q-9 -3 -19 -15h27
l8 8l12 -11q2 -2 1 -3q0 -1 -2 -1l-6 -1v-26l2 -14q0 -4 -4 -5q-3 -1 -8 -3v5h-56q10 -4 15 -8q6 -6 6 -12t-4 -7q-4 0 -6 5q0 5 -4 10q-3 5 -14 12zM17 13l-1 4q63 20 96 53h-73q-7 0 -12 -3l-8 8h107v16q1 3 -8 12l3 3l21 -10q4 -1 2 -2q-5 -3 -8 -6v-13h85l7 11l18 -13
q1 -1 1 -2q-1 -1 -3 -1h-99q39 -39 99 -39v-4q-10 0 -15 -2q-5 -1 -7 -7q-54 11 -82 52h-4v-38l1 -11q0 -5 -3 -8q-3 -2 -10 -3q1 4 1 16q1 11 1 16v28q-39 -41 -109 -57zM55 137l1 4q12 -3 18 -1q11 3 12 14q2 15 -19 35q3 6 7 19q6 17 9 23h-36v-104l1 -24q0 -6 -3 -8
q-4 -3 -10 -4q0 3 1 8q1 16 1 33v102q-1 1 -2 4q-3 5 -4 5l4 3l9 -10h37l5 8l12 -11q1 -1 1 -2t-2 -1t-5 -3l-1 -1q-12 -22 -19 -36q28 -21 22 -44q-5 -15 -22 -21q2 9 -17 12zM144 133v-12q2 -11 5 -11q4 -2 9 -2q6 -1 29 -1q1 0 13 1q7 1 8 10q0 8 2 15h3l1 -8
q-1 -15 5 -17q-3 -4 -6 -6q-1 -1 -5 -1q-3 -1 -5 -1h-7q-11 -1 -18 -1q-14 0 -23 1q-19 0 -21 17v18q-1 5 -7 9l2 2l24 -8q2 -1 0 -2q-4 0 -9 -3zM140 224q-9 -10 -16 -19h56l16 19h-56zM211 143l1 3q17 -6 26 -13q8 -7 9 -15q1 -9 -5 -9q-4 -1 -6 5q-1 7 -6 14q-6 8 -19 15
zM111 141h3q1 -14 -2 -23q-2 -9 -10 -14q-8 -4 -11 0t2 7q6 3 11 10t7 20z" />
  </g>

</svg>
