<?xml version="1.0" standalone="no"?>
<!DOCTYPE svg PUBLIC "-//W3C//DTD SVG 1.1//EN" "http://www.w3.org/Graphics/SVG/1.1/DTD/svg11.dtd" >
<svg xmlns="http://www.w3.org/2000/svg" xmlns:xlink="http://www.w3.org/1999/xlink" version="1.1" viewBox="0 -205 1024 1024">
  <g transform="matrix(1 0 0 -1 0 819)">
   <path fill="currentColor"
d="M178 656h182v96l82 -26q6 -3 4 -8l-2 -6l-34 -16v-40h212v94l78 -24q9 -3 4 -12q0 -1 -6 -4l-26 -12v-42h96l36 42q57 -49 60 -56q3 -6 0 -8q-1 -4 -14 -4h-178v-80h212l40 44l58 -50q3 -3 4 -12q0 -7 -12 -8h-432v-78h204l32 38l58 -38q3 -4 4 -8q0 -6 -26 -26v-124
l4 -74q0 -12 -18 -24q-19 -13 -34 -14v28h-490v-14q0 -10 -18 -20q-19 -12 -34 -12l4 124v202l56 -38h210v78h-386q-21 0 -56 -8l-16 34h324v80h-122q-9 0 -44 -8l-16 34v0v0zM410 550h212v80h-212v-80v0v0zM276 230h218v86h-218v-86v0v0zM542 316v-86h224v86h-224v0v0z
M276 342h218v78h-218v-78v0v0zM542 420v-78h224v78h-224v0v0zM406 188q59 -46 62 -51q1 -5 -4 -8q-3 -1 -24 0q-18 4 -114 -38q-94 -39 -250 -78l-4 16q120 40 196 80q75 38 138 79v0v0zM600 158l2 18q120 -15 192 -32q69 -14 96 -33q26 -18 26 -42q0 -23 -18 -26
q-17 -3 -40 18q-24 21 -74 44q-52 25 -184 53v0v0zM812 946q14 -9 14 -12q4 -6 -10 -12q-30 0 -62 -36q-31 -35 -82 -100h226l40 42l52 -52q9 -9 10 -18q0 -3 -14 -6q-24 -1 -48 -16t-68 -56l-12 10l46 68h-722q-9 -48 -24 -74q-15 -25 -38 -38q-24 -13 -42 -8q-16 6 -16 24
q0 15 24 30q21 12 46 40q25 27 32 108h18v-54h460q45 73 120 194l50 -34v0v0zM228 964q74 -41 104 -76q27 -35 22 -58q-6 -21 -18 -26q-10 -6 -22 0q-10 3 -14 28q-2 21 -16 46q-12 23 -66 74l10 12v0v0zM458 986q72 -49 96 -86q21 -37 16 -58q-3 -22 -18 -28q-14 -7 -28 -2
q-12 6 -12 30q1 21 -6 48q-7 24 -58 84l10 12v0v0z" />
  </g>

</svg>
