<?xml version="1.0" standalone="no"?>
<!DOCTYPE svg PUBLIC "-//W3C//DTD SVG 1.1//EN" "http://www.w3.org/Graphics/SVG/1.1/DTD/svg11.dtd" >
<svg xmlns="http://www.w3.org/2000/svg" xmlns:xlink="http://www.w3.org/1999/xlink" version="1.1" viewBox="0 -52 256 256">
  <g transform="matrix(1 0 0 -1 0 204)">
   <path fill="currentColor"
d="M60 140v-97l31 23l3 -3q-2 -2 -7 -6q-22 -19 -25 -23q-6 -8 -10 -15l-11 12q8 3 9 9v104h-28q-5 -2 -7 -4l-9 9h43l7 9l10 -10q2 -2 1 -2q0 -1 -2 -2zM29 240l1 4q29 -13 37 -27q7 -14 -2 -17q-4 -1 -6 7q-3 8 -10 17q-8 8 -20 16zM192 253l19 -11q3 -3 0 -4q-6 0 -9 -3
q-12 -13 -21 -25h34l9 11l19 -13q3 -1 2 -2q0 -1 -5 -1h-55v-24h23l9 9l12 -11q3 -3 -1 -5l-5 -2v-59l2 -15q1 -7 -12 -9v12h-11v-24h23l8 10l17 -12q2 -2 2 -3q-1 -1 -5 0h-45v-41q2 -16 -20 -21q-1 7 -6 9q-1 0 -2 1q-3 1 -20 6v4l13 -2q28 -9 25 10v34h-95q-7 0 -12 -4
l-9 9h116v24h-77v-6q1 -9 -12 -11v9q1 8 1 13v73q2 5 -6 12l5 2l10 -12h29q1 6 1 24h-40q-7 0 -12 -3l-8 8h91q2 4 6 10q4 7 6 10q6 12 6 14q0 3 -2 6zM151 176q0 -6 -1 -12q-4 -20 -35 -31v-5h98v17h-6h-18q-5 0 -8 2q-5 1 -5 16v13h-25zM213 124h-98v-18h98v18zM115 176
v-38q21 11 25 24q1 2 1 7q1 4 1 7h-27zM198 153h15v23h-28v-8q0 -15 4 -15h9zM176 205h-24q2 -13 0 -24h24v24zM114 249l2 3q29 -12 31 -27q1 -11 -6 -11q-2 1 -5 7q-5 18 -22 28zM112 59l2 4q25 -5 31 -16t-3 -13q-4 0 -6 6q-1 5 -6 10q-9 6 -18 9z" />
  </g>

</svg>
