<?xml version="1.0" standalone="no"?>
<!DOCTYPE svg PUBLIC "-//W3C//DTD SVG 1.1//EN" "http://www.w3.org/Graphics/SVG/1.1/DTD/svg11.dtd" >
<svg xmlns="http://www.w3.org/2000/svg" xmlns:xlink="http://www.w3.org/1999/xlink" version="1.1" viewBox="0 -36 256 256">
  <g transform="matrix(1 0 0 -1 0 220)">
   <path fill="currentColor"
d="M86 235l-8 -6v-28h17l10 10l16 -17h-43v-30h23l11 10l16 -17h-90q-10 0 -20 -2l-9 9h22q0 46 -1 61l21 -9l-7 -6v-46h21q0 60 -1 81zM59 149q-5 -4 -8 -12q13 -8 14.5 -13.5t-3 -9.5t-6 2.5t-6.5 18.5q-5 -13 -18 -24l-2 1q11 20 15 43zM109 103v-7h-85v7h85zM15 142
l20 -8l-7 -8v-85l77 7v96l18 -9l-6 -7v-75q0 -9 1 -21l-13 -6v17q-74 -10 -84 -18l-10 13q4 4 4 11v93zM97 149q-5 -4 -9 -13q13 -10 13 -15.5t-4.5 -7t-5.5 4.5t-5 15q-6 -12 -19 -24l-2 2q13 22 18 44zM62 86q-5 -4 -9 -11q12 -8 13 -13.5t-3.5 -8.5t-5.5 3t-5 16
q-8 -13 -20 -24l-2 1q13 23 18 43zM98 85q-5 -3 -9 -11q11 -6 13 -12t-3 -9.5t-6 3t-5 16.5q-7 -12 -21 -25l-2 2q14 21 19 42zM142 188l78 2q-13 18 -24 27l2 3q22 -12 34.5 -22.5t8 -22.5t-9 -4t-8.5 13q-27 -2 -54.5 -5t-30.5 -9l-10 20q9 1 24 18.5t24 38.5l20 -15
l-11 -4q-20 -20 -43 -40zM119 117l-2 3q29 26 45 52l15 -15l-11 -3q-32 -29 -47 -37zM199 170q23 -10 35 -17t13 -15t-1.5 -14.5t-8.5 2.5t-14.5 18.5t-24.5 21.5zM193 54q9 -9 23.5 -17t31.5 -10v-4q-15 -2 -17 -12q-12 5 -24 14t-23 21q-15 -13 -35.5 -23t-40.5 -15l-1 5
q25 9 42 20t27 22q-14 20 -21 45q-16 -24 -31 -37l-2 4q12 15 24 38t17 42l18 -14l-9 -5l-7 -11h45l9 11l17 -16l-10 -6q-14 -27 -33 -52zM159 106q11 -27 26 -42q15 20 27 46h-50z" />
  </g>

</svg>
