<?xml version="1.0" standalone="no"?>
<!DOCTYPE svg PUBLIC "-//W3C//DTD SVG 1.1//EN" "http://www.w3.org/Graphics/SVG/1.1/DTD/svg11.dtd" >
<svg xmlns="http://www.w3.org/2000/svg" xmlns:xlink="http://www.w3.org/1999/xlink" version="1.1" viewBox="0 -36 256 256">
  <g transform="matrix(1 0 0 -1 0 220)">
   <path fill="currentColor"
d="M54 243l23 -11l-9 -5q-4 -20 -7 -44h24l8 10l16 -13l-8 -6q-4 -63 -20 -93q16 -11 23 -19t2.5 -18t-12 3.5t-19.5 23.5q-21 -30 -61 -54l-3 3q36 27 55 58q-8 7 -35 22q11 36 15 76h-1q-13 1 -25 -2l-9 9h36q5 33 7 60zM60 176q-6 -39 -16 -76q15 -7 26 -13q13 27 16 89
h-26zM161 213l-9 -7q-2 -99 -20 -137t-47 -58l-2 3q23 21 36.5 53t16.5 84.5t1 72.5zM195 228l-8 -6q3 -76 11.5 -112t20.5 -55t28 -30l-1 -3q-13 3 -23 -6q-17 26 -27 58t-13 72t-6 89z" />
  </g>

</svg>
