<?xml version="1.0" standalone="no"?>
<!DOCTYPE svg PUBLIC "-//W3C//DTD SVG 1.1//EN" "http://www.w3.org/Graphics/SVG/1.1/DTD/svg11.dtd" >
<svg xmlns="http://www.w3.org/2000/svg" xmlns:xlink="http://www.w3.org/1999/xlink" version="1.1" viewBox="0 -36 256 256">
  <g transform="matrix(1 0 0 -1 0 220)">
   <path fill="currentColor"
d="M150 153h67v30h-67v-30zM150 116h67v30h-67v-30zM150 79h67v30h-67v-30zM170 222h-18q-10 0 -19 -2l-10 9h95l16 13l14 -20h-60q-6 -8 -22 -32h50l8 9l15 -14l-9 -7v-64q0 -29 1 -47l-14 -6v11h-67v-9l-14 -5q1 21 1 72t-1 66l14 -6h10q8 22 10 32zM175 50l-9 -2
q-35 -29 -53 -40l-2 4q31 27 47 54zM231 37.5q11 -10.5 5 -23t-12.5 4.5t-29.5 42l3 3q23 -16 34 -26.5zM72.5 232q23.5 6 33.5 14l13 -19q-17 0 -45.5 -3.5t-60.5 -6.5l-1 4q37 5 60.5 11zM18 208q24 -22 25 -30t-5.5 -14.5t-8.5 6.5t-14 36zM54 213q15 -15 20.5 -25.5
t-3.5 -18t-10 6t-10 35.5zM121 207q-8 -2 -17 -16t-20 -32l-4 2q14 29 22 59zM85 100h-33q-1 -58 -40 -90l-2 3q28 33 29 87q-11 0 -22 -2l-9 9h31q0 40 -1 51l21 -8l-7 -8v-35h33q0 38 -1 51l21 -8l-7 -7v-36h7l11 10l14 -17h-32q0 -65 1 -83l-15 -7q1 23 1 90z" />
  </g>

</svg>
