<?xml version="1.0" standalone="no"?>
<!DOCTYPE svg PUBLIC "-//W3C//DTD SVG 1.1//EN" "http://www.w3.org/Graphics/SVG/1.1/DTD/svg11.dtd" >
<svg xmlns="http://www.w3.org/2000/svg" xmlns:xlink="http://www.w3.org/1999/xlink" version="1.1" viewBox="0 -36 256 256">
  <g transform="matrix(1 0 0 -1 0 220)">
   <path fill="currentColor"
d="M47 213.5q1 -9.5 -4 -15t-7.5 6t-16.5 32.5l3 3q24 -17 25 -26.5zM60 192q14 39 15 53l19 -11q-6 -5 -13.5 -16.5t-14.5 -25.5h18l10 11l11 -18h-42v-38h17l9 11l13 -18h-39v-40h21l10 14l14 -21h-45q-2 -23 -13 -44.5t-37 -41.5l-2 4q19 18 28 37.5t11 44.5h-14
q-9 0 -18 -2l-9 9h41v40h-8q-9 0 -18 -2l-9 9h35v38h-13q-9 0 -18 -2l-9 9h50zM112 172q0 12 -1 29l15 -6h93l6 8l14 -11l-6 -5q0 -23 1 -33l-13 -5v4h-97v-4l-13 -4q1 15 1 27zM222 216l11 11l15 -18h-125q-9 0 -17 -2l-8 9h124zM149 188h-25v-28h25v28zM183 188h-23v-28
h23v28zM221 188h-26v-28h26v28zM115 82l-10 16q13 2 53 15l1 -4q-36 -18 -44 -27zM178 106l-14 -6q1 20 1 27.5t-1 20.5l18 -9l-5 -5q0 -16 1 -28zM189 122l-1 3q30 11 39 21l10 -16q-12 0 -48 -8zM112 140q25 -2 34.5 -6t9 -14.5t-10 -1.5t-33.5 18v4zM231 108
q13 -5 10.5 -17t-11 -2t-45.5 24l1 4q32 -4 45 -9zM154 247q15 -5 22 -12t0 -15.5t-10 1.5t-14 25zM194 58q15 12 25 26l14 -16l-8 1q-21 -11 -28 -16q23 -20 49 -24v-4q-17 0 -21 -9q-8 4 -26.5 21t-30.5 45q-8 -10 -21 -20v-38l37 13l1 -3q-37 -20 -45 -28l-9 14q3 3 3 12
v19q-23 -17 -50 -28l-2 4q33 19 55 40.5t27 34.5l16 -13q-6 -2 -8 -3q7 -15 22 -28z" />
  </g>

</svg>
