<?xml version="1.0" standalone="no"?>
<!DOCTYPE svg PUBLIC "-//W3C//DTD SVG 1.1//EN" "http://www.w3.org/Graphics/SVG/1.1/DTD/svg11.dtd" >
<svg xmlns="http://www.w3.org/2000/svg" xmlns:xlink="http://www.w3.org/1999/xlink" version="1.1" viewBox="0 -36 256 256">
  <g transform="matrix(1 0 0 -1 0 220)">
   <path fill="currentColor"
d="M66.5 33.5q7.5 -0.5 7.5 12.5v62h-35q-1 -29 -6 -52.5t-22 -47.5l-3 2q11 25 15.5 54.5t4 94.5t-1.5 79l13 -8h33l7 10l13 -11l-6 -7v-177q1 -17 -4.5 -23.5t-14.5 -10.5q-2 14 -26 22v4q18 -3 25.5 -3.5zM39 171h35v52h-35v-52zM39 115h35v49h-35v-49zM140 104h21v36
h-21v-36zM148 243l19 -7l-7 -6v-19h5l10 10l13 -17h-28q0 -15 1 -34l-12 -4v8h-9v-27h20l7 9l12 -11l-6 -6q0 -27 1 -46l-13 -5v9h-21v-27h14l12 11l13 -18h-39v-26q0 -9 1 -24l-13 -6q1 22 1 33v23h-12q-10 0 -19 -2l-9 9h40v27h-20v-8l-13 -4q1 19 1 36t-1 33l14 -7h19v27
h-10v-6l-12 -4q1 20 1 40l-12 -3l-7 10h19q0 18 -1 32l19 -9l-7 -6v-17h30q0 17 -1 32zM194 246l21 -8l-8 -6v-49h20l5 8l14 -10l-7 -6q-2 -125 -4 -138t-8.5 -18.5t-13.5 -7.5q0 12 -22 18v4q21 -2 25 -0.5t6.5 8.5t4.5 135h-20q-1 -39 -4.5 -71t-16 -57t-28.5 -39l-3 3
q13 16 22 38t13 52.5t5 73.5q-10 0 -17 -3l-9 10h26v33q0 14 -1 30zM119 181h30v23h-30v-23zM109 104h20v36h-20v-36z" />
  </g>

</svg>
