<?xml version="1.0" standalone="no"?>
<!DOCTYPE svg PUBLIC "-//W3C//DTD SVG 1.1//EN" "http://www.w3.org/Graphics/SVG/1.1/DTD/svg11.dtd" >
<svg xmlns="http://www.w3.org/2000/svg" xmlns:xlink="http://www.w3.org/1999/xlink" version="1.1" viewBox="0 -205 1024 1024">
  <g transform="matrix(1 0 0 -1 0 819)">
   <path fill="currentColor"
d="M932 828l60 -56q3 -3 4 -8q0 -7 -8 -8h-220q-1 -114 2 -192q3 -79 22 -196q29 58 52 146q21 87 30 150l68 -32q23 -12 2 -20q-22 -5 -26 -16q-4 -9 -14 -44q-9 -33 -30 -98q-21 -66 -66 -146q18 -43 36 -82q18 -37 42 -70q24 -29 34 -27q7 3 14 37q6 36 24 114l24 -4
q-19 -123 -16 -147q1 -24 8 -46q5 -21 10 -30q5 -8 2 -16q-3 -5 -14 -8q-12 0 -36 14q-25 15 -52 44q-27 27 -50 60q-22 31 -56 113q-60 -72 -120 -115q-58 -45 -146 -90l-8 12q95 68 146 115q50 45 110 126q-27 106 -36 218q-7 110 -8 230h-272v-148q1 -263 -30 -370
q-33 -104 -150 -191l-10 10q96 97 120 203q23 105 20 330v230l62 -38h260v208l76 -30q15 -9 -2 -20l-22 -10v-148h132l32 46v0v0zM822 942l6 12q51 -15 70 -26q17 -10 28 -28q12 -17 4 -34q-7 -18 -22 -18q-16 -1 -22 14q-4 14 -14 34q-10 18 -50 46v0v0zM486 526l52 -38h72
l28 32l44 -30q12 -6 12 -14q-1 -1 -28 -22v-104l4 -68q0 -19 -14 -32q-16 -12 -34 -14v50h-90v-28q-1 -22 -16 -34q-16 -10 -34 -10l4 96v216v0v0zM532 310h90v156h-90v-156v0v0zM456 632h160l30 38l48 -48q3 -4 4 -10q0 -4 -14 -4h-166q-21 0 -44 -8l-18 32v0v0zM392 896
q6 -4 6 -10q3 -4 -14 -8q-17 0 -46 -20q-48 -40 -102 -88q53 -95 68 -184q14 -87 16 -150q0 -63 -2 -132q-4 -67 -16 -118q-13 -50 -44 -77q-30 -24 -80 -42q-3 33 -36 48q-31 12 -82 26l4 19q92 -22 134 -13q42 7 54 55t16 96q2 45 2 120q0 71 -6 122q-90 -135 -228 -258
l-12 12q107 113 230 314q-15 69 -48 138q-66 -66 -168 -132l-10 14q97 77 158 148q-33 57 -120 132l10 14q102 -75 136 -120q74 70 118 140l62 -46v0v0z" />
  </g>

</svg>
