<?xml version="1.0" standalone="no"?>
<!DOCTYPE svg PUBLIC "-//W3C//DTD SVG 1.1//EN" "http://www.w3.org/Graphics/SVG/1.1/DTD/svg11.dtd" >
<svg xmlns="http://www.w3.org/2000/svg" xmlns:xlink="http://www.w3.org/1999/xlink" version="1.1" viewBox="0 -36 256 256">
  <g transform="matrix(1 0 0 -1 0 220)">
   <path fill="currentColor"
d="M101 83q0 -16 1 -30l-14 -7v14h-50v-26l-14 -9q1 39 1 95.5t-1 77.5l14 -8h11q9 21 13 48l18 -10q-5 -3 -25 -38h32l6 9l14 -11l-6 -7v-98zM38 128h50v55h-50v-55zM38 67h50v54h-50v-54zM158 147h-15q8 86 7 94l23 -9l-7 -6l-3 -33h38l15 13l16 -20h-70zM216 148l13 13
l17 -20h-89l-6 -39h54l11 9l16 -13l-11 -6q-5 -44 -13.5 -61.5t-40.5 -22.5q0 12 -34 22l1 6q36 -9 47 -7t16 18.5t10 47.5h-64l-7 -6l-11 11l10 5q4 15 7 36h-22l-12 -2l-8 9h116z" />
  </g>

</svg>
