<?xml version="1.0" standalone="no"?>
<!DOCTYPE svg PUBLIC "-//W3C//DTD SVG 1.1//EN" "http://www.w3.org/Graphics/SVG/1.1/DTD/svg11.dtd" >
<svg xmlns="http://www.w3.org/2000/svg" xmlns:xlink="http://www.w3.org/1999/xlink" version="1.1" viewBox="0 -205 1024 1024">
  <g transform="matrix(1 0 0 -1 0 819)">
   <path fill="currentColor"
d="M500 776l86 -34q3 -3 4 -6q3 -3 -2 -6l-32 -18v-400q54 62 102 140q48 77 96 176q45 95 100 272q81 -42 82 -44q1 -3 0 -8q0 -6 -12 -8q-9 0 -20 -6q-10 -6 -38 -72q-28 -67 -68 -154q-40 -85 -76 -142q-37 -58 -76 -112t-90 -104v-82q1 -37 14 -39q14 -3 26 -4h184
q37 3 44 31t8 62q0 32 6 110h18q4 -77 8 -124q6 -44 36 -52q-12 -37 -36 -53q-24 -15 -72 -22h-202q-30 0 -48 6t-30 26q-10 18 -10 49v46q-46 -45 -106 -81q-61 -37 -106 -62l-6 16q51 35 100 73q49 40 116 110v516v0v0zM832 576l10 10q65 -54 112 -108q45 -53 48 -88
q1 -36 -12 -50q-15 -16 -32 -10q-16 6 -20 36q-2 29 -22 80q-21 48 -84 130v0v0zM418 556h22v-144q0 -51 -20 -84q-20 -31 -46 -38q-27 -7 -36 10q-10 18 4 34q15 15 30 34q14 16 26 56q11 39 20 132v0v0zM546 964l10 10q78 -48 120 -86q43 -37 50 -70q5 -31 -10 -46
q-15 -16 -32 -10q-15 6 -24 36t-30 66t-84 100v0v0zM134 374h124v432h-124v-432v0v0zM82 876l58 -40h100l32 40l60 -38q12 -6 12 -14q-1 -3 -34 -30v-398l4 -96q1 -12 -16 -24q-16 -13 -40 -16v84h-124v-96q0 -12 -20 -24q-21 -12 -36 -12l4 138v526v0v0z" />
  </g>

</svg>
