<?xml version="1.0" standalone="no"?>
<!DOCTYPE svg PUBLIC "-//W3C//DTD SVG 1.1//EN" "http://www.w3.org/Graphics/SVG/1.1/DTD/svg11.dtd" >
<svg xmlns="http://www.w3.org/2000/svg" xmlns:xlink="http://www.w3.org/1999/xlink" version="1.1" viewBox="0 -36 256 256">
  <g transform="matrix(1 0 0 -1 0 220)">
   <path fill="currentColor"
d="M122 124h13v28h-13v-28zM163 124h11v28h-11v-28zM204 124h12v28h-12v-28zM122 65h24v27h-24v-27zM157 65h23v27h-23v-27zM191 65h24v27h-24v-27zM111 164q-6 -5 -16 -10l-2 3q23 17 42 41t30 50l18 -12l-9 -6q15 -19 32.5 -33t42.5 -22v-3q-11 -2 -15 -11q-17 10 -34 27
t-29 39q-22 -32 -37 -45h50l9 9l14 -16h-57l-10 -2l-7 8q-9 -9 -20 -16l10 -6h11l7 7l9 -10l-5 -3q0 -18 1 -37l-11 -5v6h-13v-4l-11 -4q2 28 0 55zM162 159h11l7 7l9 -10l-5 -4q0 -18 1 -36l-11 -5v6h-11v-5l-11 -4q2 30 0 57zM204 159h12l6 6l10 -10l-6 -3q0 -18 1 -36
l-11 -4v5h-12v-3l-11 -4q2 28 0 55zM110 61.5q0 32.5 -1 43.5l15 -6h89l9 9l13 -12l-7 -6v-61q0 -16 -18 -21q-4 13 -19 17v4q15 -3 19.5 -3.5t4.5 5.5v27h-24v-25l-11 -5v30h-23v-30l-11 -7v37h-24v-44l-13 -7q1 22 1 54.5zM93 87l-14 -7v12h-46v-10l-14 -6q1 25 1 80.5
t-1 77.5l16 -8h43l8 8l14 -14l-8 -5v-86q0 -13 1 -42zM79 175h-46v-32h46v32zM79 136h-46v-37h46v37zM46 59q-17 -27 -34 -47l-2 3q20 32 28 65l16 -12zM86.5 61.5q8.5 -9.5 3.5 -22.5t-10 3.5t-16 32.5l2 3q12 -7 20.5 -16.5zM79 219h-46v-37h46v37z" />
  </g>

</svg>
