<?xml version="1.0" standalone="no"?>
<!DOCTYPE svg PUBLIC "-//W3C//DTD SVG 1.1//EN" "http://www.w3.org/Graphics/SVG/1.1/DTD/svg11.dtd" >
<svg xmlns="http://www.w3.org/2000/svg" xmlns:xlink="http://www.w3.org/1999/xlink" version="1.1" viewBox="0 -36 256 256">
  <g transform="matrix(1 0 0 -1 0 220)">
   <path fill="currentColor"
d="M30 75q4 -33 1 -42t-9.5 -12t-11 0t3 12t12.5 42h4zM43 76l3 2q22 -28 22 -36t-7.5 -14.5t-8 5.5t-9.5 43zM68 84q27 -19 29.5 -28t-3.5 -17.5t-9.5 4.5t-19.5 39zM54.5 208.5q-12.5 -20.5 -27.5 -40.5l39 2q8 9 13 22l15 -16q-4 0 -25.5 -26t-41.5 -45l53 5
q-5 13 -13 28l3 2q29 -24 29 -34t-5.5 -15.5t-6.5 0.5t-5 14q-30 -6 -42 -10t-17 -9l-11 20q4 0 19 16.5t33 40.5q-17 -3 -25.5 -5t-17.5 -8l-9 18q7 2 20 25t21 50l19 -13q-5 -1 -17.5 -21.5zM154 237l-9 -3q-4 -4 -15 -17h89l7 9l16 -10l-8 -6q0 -71 -3.5 -90t-25.5 -24
q1 11 -25 13l2 6q12 -1 21 -1t12.5 5t4.5 31.5t1 59.5h-97q-14 -15 -33 -26l-2 2q18 19 30 36t17 28zM181 153l21 -6l-7 -4v-24l-12 -3v3h-59l-7 -6l-11 11l5 3v9q0 6 -1 17l19 -5l-5 -5v-17h22v34h-25q-10 -1 -19 -3l-9 10h53v19h-20l-8 -3l-10 10h74l10 8l14 -15h-47v-19
h30l11 9l14 -16h-55v-34h23q0 19 -1 27zM139 95l-7 -7q1 -30 -9.5 -49.5t-36.5 -31.5l-2 3q18 13 26 29.5t8.5 29.5t-0.5 34zM168 19l-15 -6q1 24 1 47.5t-1 40.5l22 -8l-8 -7q0 -48 1 -67zM190 99l22 -10l-8 -6v-48q1 -10 5.5 -10h12t8.5 7.5t2 24.5h3q2 -30 12 -31
q-6 -13 -20 -12h-20q-17 0 -16 19q0 55 -1 66z" />
  </g>

</svg>
