<?xml version="1.0" standalone="no"?>
<!DOCTYPE svg PUBLIC "-//W3C//DTD SVG 1.1//EN" "http://www.w3.org/Graphics/SVG/1.1/DTD/svg11.dtd" >
<svg xmlns="http://www.w3.org/2000/svg" xmlns:xlink="http://www.w3.org/1999/xlink" version="1.1" viewBox="0 -36 256 256">
  <g transform="matrix(1 0 0 -1 0 220)">
   <path fill="currentColor"
d="M88 244l21 -12l-10 -3q-11 -22 -21 -35h16l11 10l14 -17h-48v-39h18l15 9l14 -16h-47v-37l43 5l2 -4q-98 -18 -96 -23l-9 17q24 2 47 4v38h-4q-18 1 -29 -2l-9 9h42v39h-17q-10 0 -19 -2l-9 9h59q14 35 16 50zM51.5 218.5q6.5 -9.5 -1 -19t-10.5 5t-17 32.5l3 3
q19 -12 25.5 -21.5zM24 67q6 -23 3 -34.5t-13 -12t-3.5 11t10.5 35.5h3zM39 73q15 -14 19 -23t-3.5 -17t-9 5.5t-8.5 32.5zM62 78q16 -10 22 -19t-1.5 -18.5t-10 5t-13.5 30.5zM85 87q18 -9 24 -17t-1.5 -18t-10 3t-15.5 31zM131 243q24 -12 29 -19.5t-1 -16.5t-10.5 4
t-19.5 29zM180 202q14 24 19 45l23 -13l-11 -3l-24 -29h28l11 10l16 -17h-60v-29h28l11 10l16 -17h-55v-29h36l11 12l17 -19h-105q-11 0 -20 -2l-10 9h58v29h-16q-10 0 -20 -2l-9 9h45v29h-24q-11 0 -20 -2l-9 9h64zM191 111l-9 -6l-1 -18q2 -11 9 -22q18 12 33 29l16 -17
l-12 -1q-11 -7 -35 -17q21 -29 56 -37v-4q-20 0 -22 -9q-40 21 -48 68q-12 -54 -77 -69l-1 4q40 14 55 41t13 66zM141 98l5 -1q-1 -29 -8.5 -36.5t-15.5 -4t3 12t16 29.5z" />
  </g>

</svg>
