<?xml version="1.0" standalone="no"?>
<!DOCTYPE svg PUBLIC "-//W3C//DTD SVG 1.1//EN" "http://www.w3.org/Graphics/SVG/1.1/DTD/svg11.dtd" >
<svg xmlns="http://www.w3.org/2000/svg" xmlns:xlink="http://www.w3.org/1999/xlink" version="1.1" viewBox="0 -36 256 256">
  <g transform="matrix(1 0 0 -1 0 220)">
   <path fill="currentColor"
d="M98 52q-6 13 -13 24l3 2q28 -26 28 -37t-5.5 -15.5t-7 4t-4.5 18.5q-65 -14 -75 -21l-8 18q7 1 15 11t22 46h-16q-11 0 -20 -2l-9 9h27q0 102 -1 124l15 -10h40l13 10l15 -17h-69v-31h36l13 11l15 -18h-64v-31h36l13 12l15 -19h-64v-31h49l12 11l15 -18h-65l14 -8l-9 -5
q-19 -30 -33 -44zM201 94q5 -11 18.5 -24t28.5 -17v-4q-13 -3 -18 -12q-32 31 -45 77v-80q0 -19 -20 -27q-2 16 -29 23v4q29 -4 32.5 -2.5t3.5 7.5v111h-29q-10 0 -19 -2l-9 9h89v29h-42q-11 0 -20 -2l-9 9h71v27h-50q-10 0 -19 -2l-9 9h76l8 9l14 -13l-7 -6v-60h5l11 12
l15 -19h-63v-25q9 -21 13 -24q20 22 26 36l14 -19q-10 -1 -37 -24zM126 129q19 -11 25 -17.5t1.5 -16.5t-9.5 2t-19 28zM174 95v-7q-45 -37 -48 -46l-15 16q17 5 63 37z" />
  </g>

</svg>
