<?xml version="1.0" standalone="no"?>
<!DOCTYPE svg PUBLIC "-//W3C//DTD SVG 1.1//EN" "http://www.w3.org/Graphics/SVG/1.1/DTD/svg11.dtd" >
<svg xmlns="http://www.w3.org/2000/svg" xmlns:xlink="http://www.w3.org/1999/xlink" version="1.1" viewBox="0 -36 256 256">
  <g transform="matrix(1 0 0 -1 0 220)">
   <path fill="currentColor"
d="M112 245l15 -13l-9 -6q-10 -17 -23 -35q18 -10 24.5 -16.5t4.5 -16.5t-9.5 0.5t-28.5 24.5q-22 -21 -55 -32l-1 4q31 14 47 35q-14 12 -37 23l1 4q20 -7 44 -19q12 16 19 29h-39q-13 0 -22 -3l-10 10h71zM35 51q-9 -26 -23 -42l-3 2q11 20 16.5 50t3.5 89l16 -6h65l10 11
l18 -18h-94q0 -60 -9 -86zM72 84q1 -9 -4.5 -14.5t-7 5.5t-12.5 35l2 2q21 -19 22 -28zM32 13q28 17 40.5 35.5t13 40.5t-0.5 47l21 -11l-8 -7q0 -10 -1 -27q19 13 30 26l12 -15q-9 0 -42 -16q0 -4 -2 -18q26 -10 33.5 -17t4.5 -18t-8 -3t-10.5 15.5t-21.5 16.5
q-17 -38 -61 -52v3zM136 122l-4 1q23 51 33 124l21 -10l-7 -6q-3 -10 -10 -36h47l12 12l18 -20h-23q-8 -73 -28 -109q22 -35 51 -48v-4q-8 -2 -17 -11q-22 21 -41 51q-31 -40 -68 -55l-1 3q36 25 62 64q-18 41 -23 90q-5 -18 -22 -46zM162 175q10 -53 26 -86q17 36 21 99
h-43z" />
  </g>

</svg>
