<?xml version="1.0" standalone="no"?>
<!DOCTYPE svg PUBLIC "-//W3C//DTD SVG 1.1//EN" "http://www.w3.org/Graphics/SVG/1.1/DTD/svg11.dtd" >
<svg xmlns="http://www.w3.org/2000/svg" xmlns:xlink="http://www.w3.org/1999/xlink" version="1.1" viewBox="0 -144 1024 1024">
  <g transform="matrix(1 0 0 -1 0 880)">
   <path fill="currentColor"
d="M412 432l-30 -46l-26 -36l-28 -35l-8 5l75 163l36 84l33 88l32 98l59 -29l11 -16l-20 -3l-29 -72l-41 -86l-21 -42l-4 -7l26 -4l16 -11l-16 -10v-425l-65 -33v417zM130 59l64 -6l-12 -21l-23 -8l-22 12zM745 715l-15 -9l1 -88l7 -98l5 -33l83 10l48 59l70 -46l2 -21
l-201 -23l5 -34l15 -78l21 -69l24 -58l28 -48l32 -39l34 -28l27 115h11l-11 -130l12 -6l17 -18v-24l-17 -18h-25l-50 27l-45 37l-38 47l-33 57l-27 65l-22 74l-17 83l-5 38l-180 -20l-3 22l180 19l-4 34l-7 101l-2 111v13l64 -13zM325 527l8 -5l-133 -274l-21 -50l-6 -17
l-2 -8l1 -1l11 -25l7 -29l4 -32v-33l-64 6l3 27l1 25l-3 22l-4 20l-7 18l-10 17l-12 16l-17 15l-20 14l-24 12l3 10l27 -5l27 -8l23 -12l10 -7l97 156zM138 443l-4 8l-7 8l-9 9l-10 9l-13 9l-29 19l-18 10l-19 7l2 9l21 -3l21 -2l19 -4l18 -4l17 -5l15 -6l15 -7l13 -7l13 -9
l11 -11l5 -24l-13 -21l-24 -5l-21 13zM840 599l-8 22l-5 12l-13 22l-7 11l-29 36l-13 10l5 8l15 -7l16 -6l14 -7l15 -8l13 -9l13 -10l11 -10l21 -23l10 -12l1 -25l-16 -19l-25 -1zM212 633l-6 8l-7 9l-8 9l-35 27l-31 19l-18 8l2 9l20 -4l19 -2l18 -3l18 -5l16 -5l15 -6
l14 -6l14 -8l12 -9l11 -10l7 -23l-12 -22l-24 -6l-22 12zM615 985l65 -11l16 -11l-16 -10v-70h166l54 54l65 -54v-21h-285v-76l-65 -32v108h-236v-76l-65 -32v108h-285v21h285v102l65 -11l16 -11l-16 -10v-70h236v102z" />
  </g>

</svg>
