<?xml version="1.0" standalone="no"?>
<!DOCTYPE svg PUBLIC "-//W3C//DTD SVG 1.1//EN" "http://www.w3.org/Graphics/SVG/1.1/DTD/svg11.dtd" >
<svg xmlns="http://www.w3.org/2000/svg" xmlns:xlink="http://www.w3.org/1999/xlink" version="1.1" viewBox="0 -36 256 256">
  <g transform="matrix(1 0 0 -1 0 220)">
   <path fill="currentColor"
d="M34 209v-121h26v121h-26zM20 83v96q0 24 -1 46l16 -9h23l10 11l16 -16l-10 -7v-108q0 -17 1 -34l-15 -8v27h-26v-22l-15 -7q1 15 1 31zM169 190h42q0 20 -1 37l23 -10l-7 -6q0 -17 1 -31l-16 -5v8h-98l-8 -7l-14 11l7 6q0 20 -1 37l21 -8l-6 -8v-24h42q0 32 -1 55l23 -9
l-7 -7v-39zM174 173l-7 -6q17 -21 40 -35t40 -16v-4q-15 -2 -19 -12q-22 11 -39.5 30t-25.5 34q-18 -25 -40.5 -41.5t-46.5 -24.5l-1 3q29 17 50 38.5t29 44.5zM191 89l9 8l15 -16q-12 -5 -23.5 -14t-31.5 -25q19 -9 22 -16t-1 -15t-14 6.5t-45 35.5l1 5l31 -14q23 25 34 38
h-54q-10 0 -25 -2l-9 9h91zM172 119l11 10l17 -17h-50q-16 1 -24 -4l-7 11h53z" />
  </g>

</svg>
