<?xml version="1.0" standalone="no"?>
<!DOCTYPE svg PUBLIC "-//W3C//DTD SVG 1.1//EN" "http://www.w3.org/Graphics/SVG/1.1/DTD/svg11.dtd" >
<svg xmlns="http://www.w3.org/2000/svg" xmlns:xlink="http://www.w3.org/1999/xlink" version="1.1" viewBox="0 -200 1000 1000">
  <g transform="matrix(1 0 0 -1 0 800)">
   <path fill="currentColor"
d="M779 255l8 12q69 -46 102 -77q34 -32 49 -62q33 -70 -11 -83q-21 -2 -33 37q-8 33 -36 79q-26 40 -79 94zM532 255l10 12q123 -95 139 -152q16 -65 -27 -67q-18 2 -23 37t-26 77q-27 46 -73 93zM188 265q-5 -143 -46 -187q-47 -55 -74 -19q-11 18 20 42q28 19 51 53
q18 32 32 111h17zM318 255l10 10q51 -54 67 -89q15 -34 19 -62q7 -64 -35 -65q-19 3 -17 34t-3 74q-4 42 -41 98zM612 530l8 15q67 -37 118 -75q47 -39 61 -67q20 -28 20 -58q-1 -28 -21 -32q-19 -5 -34 41q-8 22 -21 46q-76 -5 -224 -15q-78 -5 -118 -8q-105 -3 -146 -12
q-30 -6 -62 -24l-27 60q25 3 46 14q88 78 190 227h-275q-28 0 -44 -12l-33 35h795l31 39l67 -51q7 -5 6 -8t-11 -3h-477q-124 -150 -216 -235q152 2 482 18q-3 4 -11 11l-5 5q-37 43 -99 89zM198 881h494l31 38l66 -49q8 -5 6 -9q-2 -3 -12 -3h-508q-30 0 -45 -12z" />
  </g>

</svg>
