<?xml version="1.0" standalone="no"?>
<!DOCTYPE svg PUBLIC "-//W3C//DTD SVG 1.1//EN" "http://www.w3.org/Graphics/SVG/1.1/DTD/svg11.dtd" >
<svg xmlns="http://www.w3.org/2000/svg" xmlns:xlink="http://www.w3.org/1999/xlink" version="1.1" viewBox="0 -36 256 256">
  <g transform="matrix(1 0 0 -1 0 220)">
   <path fill="currentColor"
d="M66 219.5q7 -8.5 1.5 -16.5t-11 3t-25.5 27l1 3q27 -8 34 -16.5zM12 182q33 -12 35 -22t-4 -15t-9.5 5.5t-22.5 27.5zM40 87.5q7 3.5 39 114.5l6 -1q-25 -96 -29 -107.5t-5 -23t0.5 -36t-9.5 -19t-8 22.5t3 27t-24 17v4q20 -2 27 1.5zM240 67l4 -2q-5 -21 -4.5 -34
t1.5 -19.5t-10 -0.5t-23 17.5t-21 31.5q-26 -28 -72 -42l-2 4q44 22 69 52q-7 26 -9 72h-65q-13 0 -22 -3l-10 10h45v24h-12l-11 -3l-10 10h33v20h-16l-11 -3l-10 10h37q0 22 -1 33l23 -9l-8 -7v-17h8l10 11l18 -18h-36v-20h8l10 11l18 -18h-36v-24h38q-1 45 -2 91l23 -11
l-8 -7q0 -18 1 -73h27l10 11l18 -18h-55q1 -31 6 -60q12 16 17 26t9 22l17 -12q-6 -5 -15.5 -20.5t-22.5 -31.5q4 -11 13 -22.5t17 -15.5zM230 199.5q6 -8.5 -0.5 -20t-11 5.5t-20.5 39l3 3q23 -19 29 -27.5z" />
  </g>

</svg>
