<?xml version="1.0" standalone="no"?>
<!DOCTYPE svg PUBLIC "-//W3C//DTD SVG 1.1//EN" "http://www.w3.org/Graphics/SVG/1.1/DTD/svg11.dtd" >
<svg xmlns="http://www.w3.org/2000/svg" xmlns:xlink="http://www.w3.org/1999/xlink" version="1.1" viewBox="0 -36 256 256">
  <g transform="matrix(1 0 0 -1 0 220)">
   <path fill="currentColor"
d="M127 206h-36q0 -7 1 -19l-15 -5q1 13 1 24h-30q-10 0 -19 -2l-10 9h59q0 23 -1 34l22 -9l-8 -5v-20h12l11 12zM130 214h32q0 20 -1 31l21 -9l-7 -6v-16h43l12 10l14 -17h-69q0 -5 1 -19l-15 -6q1 20 1 25h-11q-6 1 -12 -2zM213 170l12 9l13 -16h-38q-10 0 -20 -2l-9 9h42
zM187 28q11 0 11 7v82q-9 0 -19 -2l-9 9h52l10 11l15 -18h-35v-84q2 -16 -16 -25q-3 13 -29 17v4q9 -1 20 -1zM18 133l-2 5q32 28 46 51l18 -15l-10 -1q-27 -25 -52 -40zM57 12l-14 -5v91q-15 -17 -33 -30l-2 5q17 18 31.5 37t23.5 36l18 -15h-8q-10 -11 -20 -23l13 -6
l-9 -5v-85zM167 167l-6 -5l-3 -18h6l9 9l13 -16h-88q-3 1 -15 -2l-9 9h28l4 19q-7 0 -17 -2l-9 9h27l4 26l18 -8l-6 -3l-3 -15h28l7 8zM149 163h-30l-5 -19h32zM134 12l-14 -6q1 31 1 39h-26l-9 -5l-9 10l6 4l5 17l15 -9l-5 -2l-3 -8h26v18h-21q-3 1 -15 -2l-9 9h45v15h-18
v-1l-13 -5v21.5v21.5l13 -5h46l4 6l14 -9l-5 -4q0 -18 1 -24l-14 -5v4h-16v-15h22l9 7l11 -14h-42v-18h25l9 8l12 -15h-46q0 -17 1 -33zM103 117v-18h46v18h-46z" />
  </g>

</svg>
