<?xml version="1.0" standalone="no"?>
<!DOCTYPE svg PUBLIC "-//W3C//DTD SVG 1.1//EN" "http://www.w3.org/Graphics/SVG/1.1/DTD/svg11.dtd" >
<svg xmlns="http://www.w3.org/2000/svg" xmlns:xlink="http://www.w3.org/1999/xlink" version="1.1" viewBox="0 -205 1024 1024">
  <g transform="matrix(1 0 0 -1 0 819)">
   <path fill="currentColor"
d="M516 690h210l30 40l50 -48l4 -6q0 -10 -8 -10h-198q-21 0 -68 -8l-20 32v0v0zM428 594l46 -34h124l24 36l54 -34q9 -3 12 -12q-1 -6 -28 -24v-413q1 -39 -16 -64q-16 -22 -52 -32q-4 25 -16 34q-11 10 -64 22l4 16q57 -9 78 -10q22 0 20 54v131h-140v-108l4 -97
q0 -12 -20 -24q-19 -12 -34 -12l4 137v434v0v0zM474 288h140v112h-140v-112v0v0zM474 424h140v110h-140v-110v0v0zM736 558l72 -30q6 -4 6 -8q4 -9 -34 -20v-182l4 -96q-3 -15 -18 -26q-16 -10 -34 -8l4 118v252v0v0zM870 602l70 -30q3 -3 4 -6q6 -9 -30 -20v-433
q2 -44 -16 -64q-16 -20 -58 -34q-12 28 -30 40q-18 13 -78 28l4 18q90 -18 112 -16q21 4 22 22v495v0v0zM714 946q5 -2 8 -4q9 -10 -8 -16q-12 -1 -26 -10q54 -67 102 -112q45 -43 100 -74q53 -31 116 -44v-16q-28 1 -46 -4q-18 -6 -36 -30q-64 42 -110 84q-45 42 -78 88
q-31 46 -62 98q-77 -112 -154 -190t-130 -116l-10 12q66 66 138 160q74 92 134 202l62 -28v0v0zM260 930q5 -3 8 -6q1 -10 -16 -16q-18 -7 -26 -50q-7 -43 -22 -136h102l30 42l56 -36q13 -9 12 -12q0 -7 -32 -28q-24 -180 -48 -272q-22 -93 -52 -152q66 -38 88 -64
q21 -25 24 -46q3 -20 -6 -31q-10 -9 -26 -10q-15 1 -24 22q-7 19 -22 41q-15 18 -56 54q-42 -64 -96 -117q-55 -51 -124 -96l-10 14q59 49 112 111q54 60 84 112q-33 27 -120 76q25 150 56 366h-58q-21 0 -48 -6l-16 32h126q14 111 26 240l78 -32v0v0zM234 286q26 63 50 160
q21 96 34 250h-118q-33 -190 -62 -358q42 -22 96 -52v0v0z" />
  </g>

</svg>
