<?xml version="1.0" standalone="no"?>
<!DOCTYPE svg PUBLIC "-//W3C//DTD SVG 1.1//EN" "http://www.w3.org/Graphics/SVG/1.1/DTD/svg11.dtd" >
<svg xmlns="http://www.w3.org/2000/svg" xmlns:xlink="http://www.w3.org/1999/xlink" version="1.1" viewBox="0 -205 1024 1024">
  <g transform="matrix(1 0 0 -1 0 819)">
   <path fill="currentColor"
d="M910 938l52 -56q7 -5 8 -10q0 -7 -8 -8h-458v-310h386l38 46l58 -58q3 -3 4 -8q0 -7 -8 -8h-264q18 -106 52 -178q79 68 140 128q54 -48 54 -54q0 -3 -2 -6q-1 -4 -20 -4q-18 1 -50 -16q-33 -16 -114 -64q33 -58 64 -94q28 -36 68 -66q38 -29 98 -43v-14q-45 3 -62 -6
q-16 -9 -34 -24q-67 62 -106 115q-37 54 -68 130q-31 75 -46 196h-80v-387l120 79l10 -14q-79 -65 -106 -95q-27 -27 -48 -60l-56 36q30 31 30 46v395h-56q-6 -145 -26 -226q-19 -81 -62 -146q-42 -62 -108 -123l-10 14q54 64 88 129q34 63 50 144q15 80 18 286v320l54 -34
h362l38 48v0v0zM548 708h264l40 48l56 -54q3 0 4 -6q0 -12 -12 -12h-268q-21 0 -68 -8l-16 32v0v0zM58 814l56 -38h80v204l76 -30q5 0 8 -6q0 -6 -6 -8l-28 -16v-144h76l32 40l52 -36q12 -8 12 -16q0 -4 -32 -28v-398q0 -30 -8 -54q-10 -22 -52 -40q-5 18 -16 30
q-10 11 -52 26l4 18q46 -3 62 0q15 3 12 36v398h-90v-582l4 -111q-1 -12 -16 -24t-42 -16l4 151v582h-88v-368l4 -94q0 -15 -20 -26q-18 -12 -36 -12l4 128v434v0v0z" />
  </g>

</svg>
