<?xml version="1.0" standalone="no"?>
<!DOCTYPE svg PUBLIC "-//W3C//DTD SVG 1.1//EN" "http://www.w3.org/Graphics/SVG/1.1/DTD/svg11.dtd" >
<svg xmlns="http://www.w3.org/2000/svg" xmlns:xlink="http://www.w3.org/1999/xlink" version="1.1" viewBox="0 -200 1000 1000">
  <g transform="matrix(1 0 0 -1 0 800)">
   <path fill="currentColor"
d="M551 866q17 0 34.5 -9.5t40.5 -26.5l-30 -19v-297h31l31 39q16 -6 31 -17t21 -23l-27 -28q0 -72 6 -120.5t22.5 -84t45.5 -62t74 -54.5l48 62l7 -6q-5 -14 -6.5 -24t-1.5 -19q0 -11 1.5 -20.5t1.5 -17.5q0 -14 -8 -19.5t-17 -5.5q-11 0 -23 1.5t-27 11.5q-51 33 -84 64.5
t-52 72.5t-26 97.5t-7 140.5h-41v-369q-22 -22 -45 -22v391h-70v-28q0 -80 -6 -134.5t-22.5 -94t-44.5 -69.5t-73 -62l-3 2q31 34 51 67t32 76t16.5 101t4.5 142h-64l-17 -5l-12 17h93v151q-17 -8 -35.5 -13t-37.5 -9l-2 3q43 17 80.5 52.5t55.5 83.5q15 -3 29.5 -9
t24.5 -13v106zM113 809q16 0 31.5 -8t35.5 -22h73l30 39q17 -6 32 -17t21 -23l-28 -28v-393q-23 -23 -45 -23v41h-105v-18q-23 -23 -45 -23v475zM158 387h105v380h-84l-21 -14v-366zM796 886q20 -5 38 -13t26 -18l-25 -16q-11 -18 -31.5 -32.5t-45.5 -24.5q37 0 59 -4.5
t33.5 -11.5t15 -16t3.5 -19q0 -14 -6 -21t-11 -7q-9 0 -18 12q-11 14 -42 28.5t-69 26.5l-4 2l-10 3q4 -32 12 -54.5t22.5 -40.5t36 -34t51.5 -33l43 45l6 -6q-5 -13 -5 -26q0 -12 3 -21t3 -17q0 -14 -8 -19t-17 -5q-11 0 -22.5 1.5t-27.5 10.5q-44 26 -72.5 50.5t-45 57
t-22.5 76.5t-6 110h-224l-18 -4l-12 16h244l31 40q16 -6 31 -17t21 -24l-27 -27q0 -42 3 -73q15 0 28.5 9t24.5 23.5t20 33.5t14 39zM467 680q10 -5 21 -12.5t22 -15.5l-29 -20v-118h70v232l-16 -11q-20 -30 -68 -55zM691 384q5 0 9.5 -0.5t9.5 -0.5q27 18 51 52t35 82
q20 -4 38 -12.5t26 -17.5l-25 -17q-16 -30 -46.5 -52.5t-67.5 -35.5q48 -2 77 -7.5t44.5 -13t21 -17t5.5 -18.5q0 -16 -5.5 -24t-11.5 -8q-10 0 -21 14q-14 18 -54 36.5t-88 34.5z" />
  </g>

</svg>
