<?xml version="1.0" standalone="no"?>
<!DOCTYPE svg PUBLIC "-//W3C//DTD SVG 1.1//EN" "http://www.w3.org/Graphics/SVG/1.1/DTD/svg11.dtd" >
<svg xmlns="http://www.w3.org/2000/svg" xmlns:xlink="http://www.w3.org/1999/xlink" version="1.1" viewBox="0 -246 2048 2048">
  <g transform="matrix(1 0 0 -1 0 1802)">
   <path fill="currentColor"
d="M299 1074q256 342 392 620q153 -71 153 -109q0 -25 -82 -28q-142 -223 -389 -479q192 10 346 26q-35 92 -78 156l37 26q201 -183 201 -331q0 -84 -68 -84q-46 0 -55 76q-7 61 -20 106l-195 -41v-919h-115v901q-134 -20 -219 -29q-19 -65 -41 -65q-39 0 -70 167zM1540 783
h-303q-12 -266 -111 -434q-95 -161 -291 -277l-35 41q157 125 234 295q71 158 84 375h-258l-23 51h281q2 16 2 49v486h-240l-20 51h260v485q203 -3 203 -49q0 -24 -84 -55v-381h295v487q199 -6 199 -51q0 -25 -78 -53v-383h92l86 129q71 -74 115 -141l-19 -39h-274v-535h106
l93 137q76 -79 122 -149l-22 -39h-293v-690h-121v690zM1534 834v535h-295v-535h295zM297 1571q77 143 156 385q165 -58 165 -100q0 -26 -75 -29q-92 -147 -205 -289q102 -84 102 -167q0 -72 -63 -72q-42 0 -64 65q-39 130 -186 252l25 37q84 -40 145 -82zM127 232l-41 22
q83 231 104 566q179 -43 179 -74q0 -20 -64 -41q-52 -274 -178 -473zM751 392q-50 0 -53 86q-3 154 -92 354l39 20q180 -198 180 -366q0 -94 -74 -94z" />
  </g>

</svg>
