<?xml version="1.0" standalone="no"?>
<!DOCTYPE svg PUBLIC "-//W3C//DTD SVG 1.1//EN" "http://www.w3.org/Graphics/SVG/1.1/DTD/svg11.dtd" >
<svg xmlns="http://www.w3.org/2000/svg" xmlns:xlink="http://www.w3.org/1999/xlink" version="1.1" viewBox="0 -36 256 256">
  <g transform="matrix(1 0 0 -1 0 220)">
   <path fill="currentColor"
d="M37 247q17 -12 24.5 -23t-2.5 -24h17l12 12l16 -19h-68q-10 -1 -19 -3l-9 10h45q-4 21 -18 45zM34 37h36v45h-36v-45zM61 162l12 12l16 -19h-43q-11 1 -20 -2l-7 9h42zM61 124l11 12l17 -19h-41q-12 1 -20 -2l-7 9h40zM83 48q0 -12 1 -27l-14 -7v16h-36v-13l-14 -8
q1 22 1 45t-1 45l15 -10h34l7 10l13 -13l-6 -6v-32zM190 172h37v52h-37v-52zM190 115h37v50h-37v-50zM218.5 30q8.5 0 8.5 15v63h-37q-1 -27 -7.5 -50t-27.5 -50l-3 2q19 35 22.5 65.5t3 89t-1.5 75.5l14 -9h35l8 10l14 -15l-7 -5v-177q-1 -18 -6 -25t-17 -11q1 12 -23 20v4
q16 -2 24.5 -2zM141 165h6l11 10l14 -17h-31v-42h8l12 10l13 -17h-33q-5 -66 -59 -101l-1 4q43 42 46 97h-4q-11 1 -19 -2l-8 9h33v42h-5q-10 1 -18 -2l-8 9h31v46q-14 -4 -28 -7l-1 2q35 14 59 36l14 -18q-10 -1 -32 -10v-49z" />
  </g>

</svg>
