<?xml version="1.0" standalone="no"?>
<!DOCTYPE svg PUBLIC "-//W3C//DTD SVG 1.1//EN" "http://www.w3.org/Graphics/SVG/1.1/DTD/svg11.dtd" >
<svg xmlns="http://www.w3.org/2000/svg" xmlns:xlink="http://www.w3.org/1999/xlink" version="1.1" viewBox="0 -205 1048 1024">
  <g transform="matrix(1 0 0 -1 0 819)">
   <path fill="currentColor"
d="M571 540v-83h266v83h-266zM571 249h267v88h-267v-88zM523 513l-5 71l50 -27h256l35 34l44 -36q27 -21 18 -29q-8 -6 -34 -7v-288q1 -20 0 -26q-4 -9 -21 -15q-22 -5 -27 3q-3 5 -2 24l1 12h-267v-14q0 -17 -3 -22q-4 -8 -21 -13q-20 -7 -24 1q-2 4 -1 22l1 11v299z
M435 74q44 19 88 50q39 26 98 81l41 -34q24 -20 19 -24q-6 -5 -50 10q-40 -31 -94 -58q-45 -20 -96 -36zM763 202q81 -31 122 -55q39 -22 45 -40q11 -34 -1 -45q-10 -11 -35 19q-17 21 -53 51l-88 65zM838 441h-267v-87h267v87zM55 555q63 67 116 178q51 106 80 221l57 -18
q22 -10 19 -14q-2 -6 -33 -9l-8 -16q56 -28 81 -47q41 -32 42 -68q0 -25 -11 -33q-13 -7 -29 19l-39 62q-23 30 -50 53q-25 -62 -51 -112q-29 -60 -63 -109h170l41 41l48 -37q10 -8 8 -14q-3 -6 -20 -6h-126q4 -9 1 -14q-5 -6 -13 -6v-121h51l36 36l55 -34q9 -8 4 -14
q-4 -5 -21 -5h-125v-297l132 35l5 -11l-285 -119q0 -30 -7 -34q-9 -3 -21 27l-18 50q36 7 85 20l64 19v310h-87l-68 -4l-6 24l73 -3h88v141h-79l-38 -48q-24 -27 -50 -49zM96 418q46 -47 69 -89q20 -39 18 -72q-4 -39 -17 -46q-15 -6 -25 30l-6 29q-6 41 -13 65
q-13 39 -35 70zM286 250l78 174l49 -36q17 -12 12 -20q-5 -9 -40 -1l-90 -124zM449 907l231 -2h161l30 25l53 -29q20 -9 18 -23q-2 -7 -47 -7q-34 -55 -71 -92.5t-85 -72.5q54 -34 122 -59.5t138 -39.5l-3 -9q-32 -4 -52 -9q-22 -7 -29 -19q-58 28 -102 56.5t-97 63.5
q-57 -34 -142 -70q-76 -30 -150 -45l-5 9q69 20 135 51q83 39 140 78q-30 27 -63 66t-61 103l-105 -1zM851 884h-150l-114 -1q30 -58 58 -89.5t67 -63.5q42 31 77 67.5t62 86.5z" />
  </g>

</svg>
