<?xml version="1.0" standalone="no"?>
<!DOCTYPE svg PUBLIC "-//W3C//DTD SVG 1.1//EN" "http://www.w3.org/Graphics/SVG/1.1/DTD/svg11.dtd" >
<svg xmlns="http://www.w3.org/2000/svg" xmlns:xlink="http://www.w3.org/1999/xlink" version="1.1" viewBox="0 -36 256 256">
  <g transform="matrix(1 0 0 -1 0 220)">
   <path fill="currentColor"
d="M69 178h20l8 9l13 -14l-7 -5v-62l1 -12l-14 -6v7h-55v-8l-14 -5q1 21 1 87q-3 -5 -13 -15l-2 3q19 30 28.5 53.5t9.5 33.5l21 -12q-6 -1 -16 -19h28l9 9l14 -13q-9 0 -32 -31zM31 182l7 -4h24l16 28h-31q-7 -10 -16 -24zM35 139h22v32h-22v-32zM69 139h21v32h-21v-32z
M35 102h22v30h-22v-30zM69 102h21v30h-21v-30zM30 44q-1 -8 -5 -11.5t-12 -3.5t1 12t13 33h4q0 -22 -1 -30zM45 77q16 -18 16.5 -27.5t-6 -15t-7 8.5t-6.5 33zM65 80q23 -16 23.5 -25t-5 -13.5t-7.5 5.5t-13 31zM87 86q20 -11 25 -18t0 -16t-8.5 2t-19.5 30zM169 167
q-22 -23 -61 -37l-1 3q46 27 62 55v8h-34v-33l-14 -6q1 15 1 26.5t-1 25.5l14 -6h34v16h-36q-11 0 -20 -2l-9 9h65q0 9 -1 21l21 -8l-7 -6v-7h39l12 10l15 -17h-66v-16h35l8 8l15 -10l-7 -4v-19q0 -9 -4.5 -12.5t-12.5 -5.5q-1 4 -5 6.5t-17 6.5v4q8 -1 16 -1t10 2v18h-38
v-15q29 -28 66 -35v-4q-12 0 -17 -10q-31 17 -49 40v-20q0 -8 1 -16l-15 -6q1 16 1 37zM122 70v41q0 12 -1 25l15 -7h78l7 8l13 -12l-7 -6v-42q0 -14 1 -30l-14 -6v7h-79v-4l-14 -5q1 16 1 31zM135 122v-17h79v17h-79zM214 98h-79v-17h79v17zM135 74v-19h79v19h-79z
M232.5 14q-10.5 11 -46.5 28l1 3q56 -10 56 -26t-10.5 -5zM155 48l15 -15h-10q-28 -15 -61 -25l-1 3q38 18 57 37z" />
  </g>

</svg>
