<?xml version="1.0" standalone="no"?>
<!DOCTYPE svg PUBLIC "-//W3C//DTD SVG 1.1//EN" "http://www.w3.org/Graphics/SVG/1.1/DTD/svg11.dtd" >
<svg xmlns="http://www.w3.org/2000/svg" xmlns:xlink="http://www.w3.org/1999/xlink" version="1.1" viewBox="0 -205 1024 1024">
  <g transform="matrix(1 0 0 -1 0 819)">
   <path fill="currentColor"
d="M324 820l70 -22q6 -6 0 -12l-24 -16v-52h126v100l68 -20q14 -9 2 -14l-24 -16v-50h38l32 34l46 -46q4 -12 -6 -14h-110v-46l4 -54q-3 -16 -18 -22t-32 -6v32h-44v-62h80l20 24l46 -28q10 -6 6 -12q-2 -3 -22 -18v-60l4 -46q0 -12 -20 -24q-19 -10 -28 -10v36h-86v-76h70
l30 30l48 -38q9 -15 -8 -18h-142q-3 -24 -12 -66h104l30 34l50 -42q9 -10 -2 -16h-186l-8 -22q63 -19 106 -40q42 -16 54 -41q10 -21 2 -36q-9 -15 -24 -16q-15 1 -26 22q-10 22 -38 46q-27 23 -84 49q-39 -56 -92 -93q-55 -36 -124 -66l-8 16q51 29 84 52q33 24 64 56
q29 31 46 73h-102q-27 -3 -42 -12l-22 36h174q9 45 12 66h-84q-22 0 -50 -8l-18 34h152v76h-84v-16q1 -11 -16 -22q-18 -10 -32 -10l4 86v130l48 -30h80v62h-38v-10q3 -9 -12 -18q-15 -10 -36 -10l4 80v54h-38q-25 0 -40 -8l-18 34h96v102v0v0zM322 422h84v86h-84v-86v0v0z
M452 422h86v86h-86v-86v0v0zM370 620h126v72h-126v-72v0v0zM768 752q12 -7 -2 -14q-21 -6 -36 -24q-11 -19 -46 -76h212l34 36l56 -48q3 -3 4 -6q0 -7 -8 -8h-136v-140h56l30 38l52 -50q2 0 2 -6q0 -7 -8 -8h-132v-120h48l32 38l46 -48q3 0 4 -6q-1 -7 -10 -8h-120v-156h64
l32 42l52 -51q2 -4 2 -8q0 -8 -8 -8h-294v-68q0 -13 -18 -24q-15 -12 -30 -10l4 110v461q-21 -25 -44 -50l-14 8q38 62 68 122q29 58 46 116l62 -34v0v0zM802 326v120h-108v-120h108v0v0zM802 472v140h-108v-140h108v0v0zM778 814q57 -36 78 -62q19 -25 20 -44
q1 -18 -10 -30q-10 -13 -26 -10q-14 3 -16 24q0 18 -14 48q-12 30 -42 64l10 10v0v0zM802 146v154h-108v-154h108v0v0zM876 852l40 52l60 -60q3 -6 4 -6q-1 -10 -10 -10h-750v-256q-2 -240 -34 -348q-33 -109 -140 -203l-12 12q78 85 108 181q27 95 30 278
q-86 -70 -100 -106l-42 46l142 88v52v320l52 -40h652v0v0zM504 980l8 12q47 -19 74 -38q25 -19 32 -38q7 -18 0 -36q-8 -19 -28 -16q-21 -1 -24 20q-3 20 -14 44q-9 21 -48 52v0v0zM48 742l12 10q35 -31 56 -62q19 -31 26 -58q5 -27 -4 -42t-20 -18q-12 -2 -20 6q-9 8 -8 38
q1 28 -10 62q-10 32 -32 64v0v0z" />
  </g>

</svg>
