<?xml version="1.0" standalone="no"?>
<!DOCTYPE svg PUBLIC "-//W3C//DTD SVG 1.1//EN" "http://www.w3.org/Graphics/SVG/1.1/DTD/svg11.dtd" >
<svg xmlns="http://www.w3.org/2000/svg" xmlns:xlink="http://www.w3.org/1999/xlink" version="1.1" viewBox="0 -36 256 256">
  <g transform="matrix(1 0 0 -1 0 220)">
   <path fill="currentColor"
d="M31 82l-3 3q18 21 29 37t16 27l20 -14l-10 -3l-15 -15h54q0 13 -1 35l24 -10l-9 -7v-18h57l14 13l18 -20h-89v-36h77l16 13l18 -20h-111q0 -45 1 -53l-17 -6q2 15 2 59h-84q-11 0 -20 -2l-10 9h114v36h-59q-13 -15 -32 -28zM43 247l23 -10l-9 -6v-26h41l13 12l14 -19h-68
v-39l68 13l1 -4q-67 -20 -76 -32l-13 17q6 4 6 13v81zM138 203q0 22 -2 44l26 -9l-10 -7v-38q30 13 54 35l15 -17q-13 -2 -23.5 -6.5t-45.5 -17.5v-15q1 -13 17 -13h41q10 -1 12 9.5t4 28.5h4q0 -16 1 -25.5t11 -10.5q-9 -14 -24 -14h-61q-18 1 -19 18v38z" />
  </g>

</svg>
