<?xml version="1.0" standalone="no"?>
<!DOCTYPE svg PUBLIC "-//W3C//DTD SVG 1.1//EN" "http://www.w3.org/Graphics/SVG/1.1/DTD/svg11.dtd" >
<svg xmlns="http://www.w3.org/2000/svg" xmlns:xlink="http://www.w3.org/1999/xlink" version="1.1" viewBox="0 -246 2048 2048">
  <g transform="matrix(1 0 0 -1 0 1802)">
   <path fill="currentColor"
d="M1204 822v-95h-115v1152q76 -34 135 -70h467l74 96q121 -96 121 -124q0 -12 -14 -21l-49 -35v-996h-116v93h-99v-521q0 -44 20 -53q16 -8 73 -8q94 0 109 55q22 71 37 287l53 -23v-49q0 -156 15 -198q16 -48 69 -45q-3 -90 -65 -111q-56 -20 -199 -20q-153 0 -195 29
q-32 26 -32 116v541h-89q-8 -314 -129 -482q-120 -166 -414 -256l-30 47q323 133 409 389q43 120 48 302h-84zM1204 873h503v283h-503v-283zM1204 1207h503v260h-503v-260zM1204 1518h503v240h-503v-240zM273 844q-80 -138 -156 -209l-37 27q177 276 248 625
q173 -34 173 -74q0 -23 -75 -41q-23 -70 -59 -146l6 -2h223q32 103 47 242q170 -34 170 -67q0 -21 -67 -33q-26 -54 -88 -142h182l82 107q55 -49 104 -119l-20 -39h-311v-168h129l77 100q58 -55 97 -112l-23 -39h-280v-178h131l75 96q62 -58 95 -108l-21 -39h-280v-183h186
l78 107q65 -62 100 -115l-24 -43h-651v-125h-111v678zM388 973l-4 -2v-166h201v168h-197zM384 754v-178h201v178h-201zM384 525v-183h201v183h-201zM347 1348v227h-184l-16 51h200v285q188 -3 188 -43q0 -26 -77 -54v-188h197v285q185 -7 185 -47q0 -26 -74 -54v-184h77
l80 115q60 -63 99 -127l-23 -39h-233v-227h81l89 117q70 -68 114 -129l-20 -39h-912l-18 51h247zM458 1348h197v227h-197v-227z" />
  </g>

</svg>
