<?xml version="1.0" standalone="no"?>
<!DOCTYPE svg PUBLIC "-//W3C//DTD SVG 1.1//EN" "http://www.w3.org/Graphics/SVG/1.1/DTD/svg11.dtd" >
<svg xmlns="http://www.w3.org/2000/svg" xmlns:xlink="http://www.w3.org/1999/xlink" version="1.1" viewBox="0 -205 1024 1024">
  <g transform="matrix(1 0 0 -1 0 819)">
   <path fill="currentColor"
d="M880 840l36 44l58 -50q12 -7 10 -14q0 -6 -14 -6h-492q-19 0 -68 -8l-16 34h486v0v0zM482 772l46 -32h290l34 36l44 -38q12 -6 12 -14q0 -6 -32 -30v-70l4 -50q0 -16 -18 -28q-18 -13 -36 -10v40h-294v-8q1 -11 -16 -22q-15 -10 -38 -10l4 92v144v0v0zM532 604h294v108
h-294v-108v0v0zM566 976l8 12q68 -24 98 -42q27 -18 36 -38q6 -19 -2 -34q-9 -16 -30 -14q-19 0 -28 24q-10 24 -22 42q-12 17 -60 50v0v0zM420 364h412l32 30l56 -38q3 -3 4 -8q0 -10 -12 -10h-210v-211q3 -45 -18 -66t-60 -30q-5 33 -34 48q-28 13 -82 28l4 18
q96 -24 118 -22q24 3 22 32v203h-154q-21 0 -56 -8l-22 34v0v0zM424 540h20v-44h482l26 32q59 -46 62 -52t-2 -8q-3 -3 -20 -6q-16 -3 -34 -20q-19 -16 -50 -52l-14 8l32 74h-482q0 -29 -8 -58q-10 -27 -28 -36q-18 -7 -30 -2q-13 6 -14 24q-1 15 20 34q21 15 30 40
q8 21 10 66v0v0zM96 914l60 -44h118l30 40l62 -42q9 -10 -2 -22l-22 -18v-544l4 -130q0 -10 -18 -25t-38 -18v75h-144v-71q0 -12 -20 -28q-22 -13 -34 -14l4 189v652v0v0zM146 212h144v198h-144v-198v0v0zM146 436h144v200h-144v-200v0v0zM146 662h144v182h-144v-182v0v0z
" />
  </g>

</svg>
