<?xml version="1.0" standalone="no"?>
<!DOCTYPE svg PUBLIC "-//W3C//DTD SVG 1.1//EN" "http://www.w3.org/Graphics/SVG/1.1/DTD/svg11.dtd" >
<svg xmlns="http://www.w3.org/2000/svg" xmlns:xlink="http://www.w3.org/1999/xlink" version="1.1" viewBox="0 -36 256 256">
  <g transform="matrix(1 0 0 -1 0 220)">
   <path fill="currentColor"
d="M38 72l36 10v35h-36v-45zM102 89v-4l-15 -7v-60l-14 -10q1 28 1 66q-50 -16 -57 -27l-8 17q8 2 16 5v149q-2 0 -11 -3l-7 10h68l15 13l16 -20h-19v-133zM38 175h36v43h-36v-43zM38 168v-44h36v44h-36zM109 195q0 20 -1 41l15 -9h33l8 9l14 -13l-8 -6q0 -38 1 -58l-14 -7
v9h-35v-4l-14 -6q1 24 1 44zM122 169h35v51h-35v-51zM150.5 34.5q4.5 2.5 6.5 19t4 59.5h-21q-4 -72 -52 -102l-2 3q37 39 41 100q-12 0 -23 -3l-9 9h33q1 19 0 35l19 -11l-5 -7l-2 -17h19l8 9l14 -11l-7 -6q-2 -30 -4 -53t-6.5 -30.5t-17.5 -14.5q-3 13 -17 19l1 4
q16 -5 20.5 -2.5zM203 73l-15 -7q1 30 1 73.5t-1 62.5l21 -11l-7 -7q0 -93 1 -111zM219.5 32q2.5 1 2.5 9v163q0 20 -1 40l23 -11l-9 -7v-192q0 -9 -4.5 -14.5t-16.5 -9.5q-5 15 -25 21v4q28 -4 30.5 -3z" />
  </g>

</svg>
