<?xml version="1.0" standalone="no"?>
<!DOCTYPE svg PUBLIC "-//W3C//DTD SVG 1.1//EN" "http://www.w3.org/Graphics/SVG/1.1/DTD/svg11.dtd" >
<svg xmlns="http://www.w3.org/2000/svg" xmlns:xlink="http://www.w3.org/1999/xlink" version="1.1" viewBox="0 -205 1024 1024">
  <g transform="matrix(1 0 0 -1 0 819)">
   <path fill="currentColor"
d="M40 670h140v300l86 -34q10 -7 -6 -16l-32 -18v-232h58l38 48l58 -56q2 -3 4 -8q4 -10 -6 -10h-152v-326l178 68l6 -14q-252 -123 -278 -140q-28 -17 -58 -46l-40 60l144 54v344h-80q-21 0 -44 -8l-16 34v0v0zM340 818h214q31 75 56 156l80 -34q6 -9 0 -14q-4 -3 -20 -8
q-13 -4 -26 -28q-12 -21 -38 -72h238l44 54l64 -62l6 -6q3 -12 -14 -12h-218q24 -60 72 -108q44 -49 92 -76q44 -28 116 -38v-18q-40 0 -58 -8q-16 -9 -34 -24q-46 29 -76 58q-30 27 -68 78q-39 48 -68 136h-108q-24 -55 -54 -100q-28 -45 -82 -102q-52 -57 -140 -120
l-12 12q59 54 106 108q45 54 76 102q30 48 54 100h-118q-20 0 -58 -8l-26 34v0v0zM482 590h210l32 48l56 -52q3 -3 4 -8q0 -12 -12 -12h-206q-22 0 -70 -8l-14 32v0v0zM360 464h468l38 46l64 -58q3 -3 4 -6q1 -6 -10 -6h-334l-48 -108h232l36 38l54 -46q9 -6 10 -12
q-1 -9 -40 -30q-18 -76 -32 -124q-12 -43 -30 -71q-16 -23 -38 -38q-22 -12 -56 -24q-12 37 -38 50q-27 12 -86 30l6 20q61 -18 92 -22q30 -4 52 0q21 5 34 28q11 19 20 55l30 120h-242l-32 -32l-60 42l42 24l38 100h-108q-40 0 -52 -8l-14 32v0v0z" />
  </g>

</svg>
