<?xml version="1.0" standalone="no"?>
<!DOCTYPE svg PUBLIC "-//W3C//DTD SVG 1.1//EN" "http://www.w3.org/Graphics/SVG/1.1/DTD/svg11.dtd" >
<svg xmlns="http://www.w3.org/2000/svg" xmlns:xlink="http://www.w3.org/1999/xlink" version="1.1" viewBox="0 -205 1024 1024">
  <g transform="matrix(1 0 0 -1 0 819)">
   <path fill="currentColor"
d="M818 472l58 -52q9 -9 10 -14q-1 -6 -16 -8q-18 -9 -36 -20q-15 -10 -156 -196q66 -43 84 -75q18 -30 12 -54q-7 -24 -26 -24q-18 1 -30 22q-11 21 -34 50q-24 29 -62 63q-36 33 -144 106l8 12q107 -46 172 -88l126 214h-282q-16 0 -52 -8l-20 34h352l36 38v0v0zM720 938
l4 -8q0 -7 -38 -22q29 -74 68 -130q35 -54 104 -110q65 -55 146 -70v-18q-45 0 -60 -8q-16 -6 -34 -24q-61 48 -100 90q-36 42 -72 100q-35 54 -70 156q-48 -111 -128 -228q-79 -117 -154 -186l-12 12q70 90 140 210q69 117 126 276l80 -40v0v0zM580 656l10 10
q80 -43 106 -76q27 -33 24 -56q0 -22 -12 -34q-12 -10 -26 -8q-16 3 -22 30q-5 24 -16 52q-10 24 -64 82v0v0zM270 942q5 -3 8 -6q0 -10 -18 -16q-18 -7 -26 -50q-7 -43 -22 -136h106l30 42l56 -36q13 -9 12 -12q0 -7 -32 -28q-21 -180 -38 -258q-18 -76 -62 -166
q66 -44 94 -70q24 -27 30 -48q3 -20 -6 -35t-24 -12q-14 1 -28 28q-15 22 -30 47q-16 20 -58 56q-46 -67 -98 -113q-51 -48 -126 -96l-8 14q65 54 118 111q53 60 82 108q-36 29 -122 76q24 150 54 366h-60q-21 0 -48 -6l-16 32h128q15 123 28 240l76 -32v0v0zM248 296
q33 72 52 166q18 93 30 246h-122q-28 -190 -58 -358q43 -24 98 -54v0v0z" />
  </g>

</svg>
