<?xml version="1.0" standalone="no"?>
<!DOCTYPE svg PUBLIC "-//W3C//DTD SVG 1.1//EN" "http://www.w3.org/Graphics/SVG/1.1/DTD/svg11.dtd" >
<svg xmlns="http://www.w3.org/2000/svg" xmlns:xlink="http://www.w3.org/1999/xlink" version="1.1" viewBox="0 -154 1024 1024">
  <g transform="matrix(1 0 0 -1 0 870)">
   <path fill="currentColor"
d="M422 826q54 -14 86 -33t39 -45q6 -26 -13 -31q-21 -5 -25 15q-5 19 -26 41q-21 21 -64 42zM575 644q73 -24 117 -49q42 -27 59 -53q15 -26 -1 -38q-17 -14 -32 9q-15 22 -45 51q-30 31 -100 69zM178 972l6 10q58 -22 98 -59q40 -38 43 -72q3 -35 -17 -42q-20 -8 -28 30
q-8 37 -34 72t-68 61zM413 659l56 -39q12 -11 5 -15q-27 4 -40 -3q-85 -70 -191 -113l-5 11q85 52 127 89t43 47q2 9 -4 18zM818 685q3 -10 -8 -7q-28 -3 -35 -8q-8 -8 -22 -20q-14 -13 -41 -47l-13 5l41 77h-429v-10q-3 -32 -10 -57q-8 -25 -26 -37q-19 -12 -34 1
q-14 11 7 32q21 17 32 47q11 28 15 74h13q2 -17 3 -34h421l28 33zM112 833l87 -36q14 -5 6 -11q-21 -8 -30 -21v-608l3 -98q0 -38 -52 -45q5 38 7 189v572q2 16 -30 46zM339 521h270l25 33l56 -41q13 -8 -5 -8h-105v-159h75l29 32l49 -38q16 -13 -4 -11h-149v-184
q0 -29 -15 -44q-12 -15 -68 -29q-3 26 -21 35q-20 9 -71 22l4 13l33 -7q55 -10 77 -5q23 8 24 43v156h-2q-26 -45 -59 -84q-89 -102 -223 -178l-3 15q112 79 191 173q29 35 52 74h-133l-25 -32l-38 32q18 16 22 27l28 92q-5 16 -14 22l3 8l64 -26q14 -7 6 -10
q-15 -2 -25 -12l-28 -84h184v159h-140q-22 0 -37 -11zM912 867v-716q2 -73 -8 -92q-10 -20 -70 -32q-2 31 -62 48l-62 17l2 16q110 -23 134 -21t24 50v744h-400q-27 1 -43 -12l-32 32h459l30 41l48 -43q18 -12 0 -19z" />
  </g>

</svg>
