<?xml version="1.0" standalone="no"?>
<!DOCTYPE svg PUBLIC "-//W3C//DTD SVG 1.1//EN" "http://www.w3.org/Graphics/SVG/1.1/DTD/svg11.dtd" >
<svg xmlns="http://www.w3.org/2000/svg" xmlns:xlink="http://www.w3.org/1999/xlink" version="1.1" viewBox="0 -36 256 256">
  <g transform="matrix(1 0 0 -1 0 220)">
   <path fill="currentColor"
d="M242 82l4 -1q-3 -23 -2 -37.5t4.5 -25t-5 -4.5t-17.5 15.5t-21 31.5q-20 -28 -56 -48l-2 3q32 26 52 59q-12 36 -14 111h-57v-71q1 -62 -39 -108l-3 3q30 49 29 106q0 66 -1 88l14 -11h57q-1 47 -3 54l21 -9l-6 -6l1 -39h28l11 14l14 -21h-53q0 -58 9 -94q13 28 19 75
l18 -14l-7 -7q-10 -45 -24 -72q9 -20 22 -33zM235.5 227q4.5 -7 0 -15t-9.5 2.5t-20 24.5l2 3q23 -8 27.5 -15zM54 218q0 14 -1 28l20 -7l-7 -8v-23h17l11 11l14 -18h-42v-23h20l6 11l14 -12l-6 -6v-30q0 -20 1 -39l-13 -5v6h-22v-28h24l9 12l12 -19h-45v-14q0 -18 1 -40
l-14 -7q1 23 1 43v18h-18q-10 0 -19 -2l-9 9h46v28h-21v-5l-13 -6q1 16 1 31v32q0 16 -1 32l14 -9h20v23h-8q-11 0 -20 -2l-9 9h37v10zM33 171v-27h21v27h-21zM66 171v-27h22v27h-22zM66 137v-27h22v27h-22zM33 137v-27h21v27h-21zM180.5 154.5q6.5 -5.5 4.5 -17.5t-7 -1.5
t-20 27.5q-5 -11 -12.5 -22.5t-16.5 -18.5l-3 2q9 10 17 30t8 31l15 -7q-4 -1 -6 -8q14 -10 20.5 -15.5zM163 130l8 10l12 -17h-28q-7 0 -9 -2l-6 9h23zM137 81q0 14 -1 32l13 -5h21l6 7l11 -10l-4 -5q0 -25 1 -42l-13 -3v5h-22v-4l-13 -5q1 16 1 30zM149 67h22v34h-22v-34z
" />
  </g>

</svg>
