<?xml version="1.0" standalone="no"?>
<!DOCTYPE svg PUBLIC "-//W3C//DTD SVG 1.1//EN" "http://www.w3.org/Graphics/SVG/1.1/DTD/svg11.dtd" >
<svg xmlns="http://www.w3.org/2000/svg" xmlns:xlink="http://www.w3.org/1999/xlink" version="1.1" viewBox="0 -36 256 256">
  <g transform="matrix(1 0 0 -1 0 220)">
   <path fill="currentColor"
d="M87 223h-44q-10 0 -19 -2l-9 9h72l9 10l16 -17q-15 -5 -39 -43l9 -6l-8 -7v-30q12 7 37 22l2 -4q-16 -12 -39 -29v-87q1 -21 -21 -30q-3 14 -28 23v4q20 -3 27.5 -3.5t7.5 8.5v78q-20 -13 -26 -16.5t-12 -9.5l-12 16q11 3 50 23q0 41 -1 56l9 -5zM133 74h77v32h-77v-32z
M133 35h77v32h-77v-32zM225 21l-15 -7v14h-77v-11l-15 -7q1 25 1 56.5t-1 55.5l14 -9h77l7 10l15 -13l-7 -7q0 -69 1 -82zM217 141l13 11l16 -18h-118q-11 0 -21 -2l-7 9h117zM213 232l13 11l16 -18h-101q-16 -1 -21 -3l-8 10h101zM210 196l3 2q14 -15 18 -24t-1.5 -16
t-7.5 -2t-3 12q-7 -2 -17.5 -5.5t-17.5 -8.5l-8 15q6 2 12 19t8 35l17 -10q-6 -6 -10.5 -15.5t-13.5 -26.5l29 2q-4 16 -8 23zM171 174q4 -10 -1.5 -18.5t-7 -1t-2.5 13.5q-9 -2 -20.5 -5.5t-16.5 -8.5l-7 16q7 2 14 20.5t9 32.5l16 -12q-6 -5 -11 -13.5t-16 -26.5l31 2
q-3 15 -8 23l3 2q13 -14 17 -24z" />
  </g>

</svg>
