<?xml version="1.0" standalone="no"?>
<!DOCTYPE svg PUBLIC "-//W3C//DTD SVG 1.1//EN" "http://www.w3.org/Graphics/SVG/1.1/DTD/svg11.dtd" >
<svg xmlns="http://www.w3.org/2000/svg" xmlns:xlink="http://www.w3.org/1999/xlink" version="1.1" viewBox="0 -205 1024 1024">
  <g transform="matrix(1 0 0 -1 0 819)">
   <path fill="currentColor"
d="M154 544h328v66l68 -20q12 -9 -2 -18l-18 -8v-20h252l34 38q54 -51 54 -56q0 -9 -14 -8h-326v-54h202l16 30l56 -34q9 -4 10 -10q0 -6 -26 -24v-232h104l32 42q54 -48 58 -54q1 -6 -4 -14h-4h-842q-22 0 -58 -8l-14 34h178v300l56 -30h188v54h-256q-21 0 -56 -8l-16 34v0
v0zM288 194h450v44h-450v-44v0v0zM288 262h450v46h-450v-46v0v0zM288 332h450v42h-450v-42v0v0zM288 398h450v42h-450v-42v0v0zM84 21q132 62 264 133l56 -41q4 -10 -10 -14q-27 7 -92 -20q-66 -26 -212 -76l-6 18v0v0zM616 135l4 15q111 -19 160 -35t68 -38q18 -21 10 -42
q-6 -19 -24 -20q-19 -1 -34 18q-14 18 -52 42q-36 24 -132 60v0v0zM498 992l52 -54l2 -6q-1 -6 -4 -6h-342v-56h198l30 32l46 -46q3 -3 4 -6q0 -4 -6 -4h-272v-54h204l28 30l46 -42q2 -3 2 -6q1 -4 -4 -4h-276v-48h278l34 32l52 -40q2 -4 2 -8q0 -9 -12 -8h-274
q-42 -26 -110 -76l220 14q-17 18 -52 42l6 12q57 -18 78 -32q21 -12 34 -24q12 -13 6 -32q-7 -18 -22 -18q-13 -2 -22 6q-7 9 -14 28q-96 -14 -162 -22q-66 -9 -102 -32l-44 60q24 4 48 14l58 60h-126q-16 0 -40 -8l-18 32h132v264l44 -34h262l36 40v0v0zM538 818
q198 77 312 164q57 -46 58 -50q0 -3 -2 -6q-3 -4 -20 -2q-18 3 -96 -36q-77 -40 -244 -88l-8 18v0v0zM586 716q153 59 282 136q60 -37 60 -40t-2 -6q-3 -3 -26 -6q-24 -3 -90 -30q-66 -28 -216 -70l-8 16v0v0zM572 606q231 60 342 142q51 -52 52 -56q0 -3 -2 -6
q-3 -4 -20 -2q-18 3 -102 -32q-85 -34 -266 -64l-4 18v0v0z" />
  </g>

</svg>
