<?xml version="1.0" standalone="no"?>
<!DOCTYPE svg PUBLIC "-//W3C//DTD SVG 1.1//EN" "http://www.w3.org/Graphics/SVG/1.1/DTD/svg11.dtd" >
<svg xmlns="http://www.w3.org/2000/svg" xmlns:xlink="http://www.w3.org/1999/xlink" version="1.1" viewBox="0 -205 1024 1024">
  <g transform="matrix(1 0 0 -1 0 819)">
   <path fill="currentColor"
d="M558 818l60 -52q3 -4 4 -8q0 -9 -8 -8h-228q-1 -114 10 -210q8 -94 26 -158q33 93 46 154q12 59 30 124l70 -38q10 -2 8 -10q0 -2 -12 -10q-21 -3 -30 -30q-9 -25 -32 -100q-22 -75 -62 -146q17 -46 32 -70q13 -24 26 -42q11 -18 26 -32q15 -15 24 -12q7 0 14 36
q6 32 24 116l22 -4q-12 -81 -14 -126q0 -45 6 -61q5 -17 10 -26q3 -5 0 -14q-3 -8 -14 -10q-13 -1 -34 10q-22 11 -50 34q-28 22 -56 65q-26 41 -46 88q-48 -67 -102 -118q-51 -49 -120 -101l-10 14q57 54 112 119q55 62 98 134q-33 119 -42 218q-8 96 -10 204h-196v-164h86
l32 36l50 -42q8 -6 8 -14q0 -3 -14 -12l-18 -8q0 -142 -2 -196q-1 -52 -20 -76q-15 -24 -48 -36q-6 24 -24 36q-16 11 -50 22l4 16q42 -4 58 -4q12 -1 24 8t10 52v192h-98q4 -202 -28 -320q-31 -117 -76 -181l-12 10q36 94 54 207q17 111 14 294v260l64 -50h180v210l80 -40
q15 -8 6 -16l-36 -18v-136h144l30 40v0v0zM458 956q48 -19 76 -34q25 -16 32 -34t2 -32q-4 -14 -16 -22q-9 -7 -24 -2q-13 6 -16 24t-18 40q-13 18 -44 46l8 14v0v0zM920 946l60 -52q9 -6 10 -14q1 -4 -10 -10q-26 -6 -52 -48q-46 -85 -100 -206q71 -59 110 -106
q38 -47 50 -94q13 -48 2 -84q-9 -36 -32 -60q-22 -25 -88 -56q-13 32 -32 46q-18 14 -78 32l6 20q64 -13 86 -16q21 -1 48 4q23 5 38 38q12 30 4 72q-10 41 -40 86q-29 41 -106 116l102 260h-174v-718l4 -89q1 -15 -22 -28q-21 -15 -36 -16l4 127v796l70 -44h142l34 44v0v0z
" />
  </g>

</svg>
