<?xml version="1.0" standalone="no"?>
<!DOCTYPE svg PUBLIC "-//W3C//DTD SVG 1.1//EN" "http://www.w3.org/Graphics/SVG/1.1/DTD/svg11.dtd" >
<svg xmlns="http://www.w3.org/2000/svg" xmlns:xlink="http://www.w3.org/1999/xlink" version="1.1" viewBox="0 -36 256 256">
  <g transform="matrix(1 0 0 -1 0 220)">
   <path fill="currentColor"
d="M92 241l14 -8h104l7 9l14 -10l-6 -6v-12l1 -12l-14 -6v4h-46l10 -4l-6 -5q0 -18 1 -28l-14 -6q1 14 1 21t-1 22h-51q1 -25 -2.5 -72.5t-32.5 -81.5l-3 2q23 44 24.5 93t-0.5 100zM106 207h106v19h-106v-19zM115 194l1 3q30 -5 26 -16.5t-9.5 -2.5t-17.5 16zM228 187
q-13 -1 -49 -13l-1 4q26 12 40 22zM182 174q45 -6 43 -17.5t-10.5 -3t-33.5 16.5zM149 175l3 -3q-24 -13 -35 -21l-11 11q22 6 43 13zM169 154l-5 -3l-2 -5h29l8 8l12 -12l-6 -3l-2 -13h13l12 9l15 -16h-109q-12 0 -21 -2l-10 9h40l4 13h-1q-11 0 -21 -1l-9 8h32l4 16z
M160 139l-5 -13h35l2 13h-32zM127 91v11l-1 13l13 -4h61l6 7l13 -10l-6 -4v-7l1 -9l-13 -4v4h-24v-10h27l10 8l14 -15h-51v-13h34l13 9l14 -16h-61v-17l-13 -5v22h-45l-6 -5l-10 11l6 4q3 5 4 9l-7 -2l-7 10h65v10h-25v-3l-13 -3zM139 95h62v9h-62v-9zM119 71l7 -5l-6 -8h44
v13h-45zM36 241q24 -14 29 -23t-1.5 -19.5t-11 6.5t-18.5 33zM39 54q11 25 22 52h-18l-8 -9l-13 12l9 6l22 44h-17l-11 -3l-10 10h39l9 11l13 -16l-10 -5q-6 -10 -22 -43h18l8 8l12 -14l-8 -6q-10 -20 -20 -46q26 -22 84.5 -24t109.5 6v-4q-18 -5 -22 -17q-92 -2 -121.5 4.5
t-58.5 29.5q-19 -21 -26 -37l-12 12q16 17 31 29z" />
  </g>

</svg>
