<?xml version="1.0" standalone="no"?>
<!DOCTYPE svg PUBLIC "-//W3C//DTD SVG 1.1//EN" "http://www.w3.org/Graphics/SVG/1.1/DTD/svg11.dtd" >
<svg xmlns="http://www.w3.org/2000/svg" xmlns:xlink="http://www.w3.org/1999/xlink" version="1.1" viewBox="0 -36 256 256">
  <g transform="matrix(1 0 0 -1 0 220)">
   <path fill="currentColor"
d="M195 245q18 -5 23 -10.5t0.5 -12.5t-9.5 2.5t-15 17.5zM158 57q5 -9 -2.5 -17.5t-9.5 5.5t-12 27l2 2q17 -8 22 -17zM133 156h34v23h-34v-23zM180 156h35v23h-35v-23zM133 126h34v23h-34v-23zM180 126h35v23h-35v-23zM166 247l22 -9l-8 -8v-16h37l12 11l16 -18h-65v-21
h33l9 9l15 -13l-8 -5v-66l1 -13l-15 -4v25h-35v-19l-13 -6v25h-34v-24l-14 -4q1 20 1 51t-1 52l14 -8h34v21h-34q-10 0 -19 -2l-9 9h62q0 19 -1 33zM199 104l21 -10l-7 -7v-3h9l11 11l15 -18h-35v-43q1 -9 -2 -15.5t-16 -11.5q-3 15 -28 19v4q28 -3 30.5 -1.5t2.5 6.5v42
h-68q-10 0 -19 -2l-9 9h96q0 5 -1 20zM96 228q-9 0 -34 -17q13 -8 17.5 -16t-1.5 -14.5t-8 3t-13 24.5q-8 -5 -17 -11q15 -14 16.5 -21.5t-4.5 -13.5t-7 4.5t-9 28.5q-17 -7 -27 -9v3q19 11 38.5 25t32.5 31zM114 181q-4 1 -16.5 -6.5t-24.5 -16.5q15 -19 22 -36t9 -43.5
t-8 -45t-31 -25.5q3 13 -23 23l2 4q26 -9 33.5 -3.5t11 21.5t0.5 42q-32 -35 -75 -53l-1 4q47 28 73 65q-3 11 -6 19q-27 -28 -66 -44l-1 4q36 20 61 52q-4 6 -6 13q-27 -17 -56 -24l-1 3q33 14 58 34.5t32 31.5z" />
  </g>

</svg>
