<?xml version="1.0" standalone="no"?>
<!DOCTYPE svg PUBLIC "-//W3C//DTD SVG 1.1//EN" "http://www.w3.org/Graphics/SVG/1.1/DTD/svg11.dtd" >
<svg xmlns="http://www.w3.org/2000/svg" xmlns:xlink="http://www.w3.org/1999/xlink" version="1.1" viewBox="0 -205 1024 1024">
  <g transform="matrix(1 0 0 -1 0 819)">
   <path fill="currentColor"
d="M420 828h234v126l78 -30q6 -3 6 -6q1 -6 -6 -8l-30 -16v-66h146l40 50l62 -56q3 -4 4 -8q0 -12 -14 -12h-238v-120h134l30 40l56 -44q6 -6 6 -8q0 -6 -32 -30v-154l4 -82q-1 -15 -16 -24t-36 -6v36h-120q32 -74 74 -124q41 -51 88 -86q47 -37 112 -46v-17q-42 1 -60 -8
q-16 -5 -34 -26q-45 32 -84 79q-37 47 -70 106q-32 60 -46 118h-6v-262l2 -91q0 -12 -20 -24q-19 -12 -34 -12l4 131v246q-58 -99 -118 -182q-60 -80 -164 -163l-12 16q90 90 148 175q54 85 96 170h-90v-12q2 -12 -16 -24q-15 -10 -36 -10l4 112v244l44 -38h144v120h-146
q-18 0 -66 -8l-22 34v0v0zM514 436h140v222h-140v-222v0v0zM702 658v-222h146v222h-146v0v0zM530 602l12 10q38 -30 62 -56t24 -46q0 -21 -12 -30t-26 -6t-16 24q-3 21 -12 48q-10 26 -32 56v0v0zM720 468q27 91 46 152q60 -28 60 -34q0 -3 -2 -6q0 -3 -14 -8
q-15 -6 -26 -30q-12 -21 -48 -78l-16 4v0v0zM288 934q6 -6 4 -12q0 -4 -18 -8q-12 -6 -26 -24q-15 -16 -38 -58h98l26 28l56 -44q7 -7 2 -10q0 -6 -24 -14q-22 -13 -44 -40q-21 -28 -50 -76h70l26 34l54 -38q6 -4 6 -8q0 -6 -26 -24v-242l4 -64q0 -13 -18 -26
q-16 -10 -32 -10v28h-214v-16q0 -9 -18 -20q-16 -10 -32 -10l4 96v276q-22 -40 -64 -82l-12 12q51 76 106 182q54 105 90 202l70 -32v0v0zM144 352h84v140h-84v-140v0v0zM276 352h82v140h-82v-140v0v0zM144 518h84v132h-84v-132v0v0zM276 650v-132h82v132h-82v0v0zM144 676
h104l62 130h-114q-36 -61 -66 -110l14 -20v0v0zM96 254h20q0 -60 -2 -102q-4 -38 -22 -63q-16 -23 -34 -26q-19 -3 -28 6q-11 9 -6 24q3 15 18 30q14 14 32 37q15 21 22 94v0v0zM162 260l14 8q33 -51 42 -80q9 -27 10 -49q1 -21 -10 -34q-12 -13 -30 -6q-19 6 -14 30
q4 23 2 51q0 28 -14 80v0v0zM244 276l10 10q47 -39 64 -68q15 -30 18 -50q3 -22 -8 -33q-13 -13 -28 -8q-15 3 -14 33q0 30 -6 52q-6 20 -36 64v0v0zM326 288l10 10q55 -42 74 -60q18 -19 22 -40q3 -19 -8 -32q-10 -12 -26 -8q-15 4 -18 26q-3 20 -14 44q-13 24 -40 60v0v0z
" />
  </g>

</svg>
