<?xml version="1.0" standalone="no"?>
<!DOCTYPE svg PUBLIC "-//W3C//DTD SVG 1.1//EN" "http://www.w3.org/Graphics/SVG/1.1/DTD/svg11.dtd" >
<svg xmlns="http://www.w3.org/2000/svg" xmlns:xlink="http://www.w3.org/1999/xlink" version="1.1" viewBox="0 -205 1024 1024">
  <g transform="matrix(1 0 0 -1 0 819)">
   <path fill="currentColor"
d="M22 670h160v310l84 -36q8 -1 8 -8q0 -3 -6 -8l-36 -20v-238h72l34 38l54 -50l4 -8q0 -9 -12 -8h-152v-314l100 40l10 -16l-160 -94q-87 -45 -108 -86l-50 68l158 66v336h-76q-18 0 -66 -8l-18 36v0v0zM602 982l72 -36q9 -3 10 -14q0 -3 -14 -6q-24 -8 -54 -34
q-60 -78 -138 -162l370 14q-57 80 -120 130l10 14q85 -44 146 -100q40 -42 44 -68q4 -24 -4 -36q-13 -19 -28 -14q-15 0 -26 18q-6 15 -14 34q-396 -26 -414 -58l-44 70q39 1 70 32q71 90 134 216v0v0v0zM496 668l62 -32q7 -3 8 -6q7 -4 -4 -10l-22 -6q-28 -28 -46 -52h322
l38 46l60 -52q9 -5 4 -16q0 -4 -6 -4h-248q-6 -112 -18 -158h220l34 52l72 -56q3 -4 4 -10q0 -12 -18 -12h-256q26 -93 88 -150q46 -45 110 -75q45 -17 102 -26v-24q-30 3 -54 -6q-24 -3 -36 -28q-90 49 -152 123q-63 72 -86 186h-32q-42 -161 -162 -241q-87 -60 -216 -96
l-4 18q104 39 176 96q107 71 152 223h-156q-22 0 -70 -6l-14 32h246q12 44 18 158h-132q-72 -105 -120 -138l-10 12q80 111 146 258v0v0v0z" />
  </g>

</svg>
