<?xml version="1.0" standalone="no"?>
<!DOCTYPE svg PUBLIC "-//W3C//DTD SVG 1.1//EN" "http://www.w3.org/Graphics/SVG/1.1/DTD/svg11.dtd" >
<svg xmlns="http://www.w3.org/2000/svg" xmlns:xlink="http://www.w3.org/1999/xlink" version="1.1" viewBox="0 -246 2048 2048">
  <g transform="matrix(1 0 0 -1 0 1802)">
   <path fill="currentColor"
d="M270 1334q-57 -80 -149 -176l-39 34q224 286 338 738q183 -34 183 -70q0 -22 -87 -35q162 -89 250 -196q66 -78 66 -134q0 -61 -57 -61q-36 0 -64 61q-64 145 -211 283q-82 -224 -193 -393h257l75 106q62 -55 107 -116l-25 -41h-188v-281h109l83 115q64 -61 109 -125
l-25 -41h-276v-627q199 49 281 72l12 -53q-292 -110 -586 -189q-10 -80 -37 -80q-46 0 -86 170q107 17 303 58v649h-275l-16 51h291v281h-150zM1053 1330v-185h637l76 86q121 -93 121 -119q0 -12 -17 -22l-49 -33v-354h-117v86h-279v-246h304l102 123q74 -62 133 -131
l-24 -43h-515v-399h-119v399h-509l-21 51h530v246h-253v-94h-119v1038q81 -32 133 -61h165q30 134 43 262q201 -37 201 -78q0 -25 -84 -41q-29 -57 -90 -143h303l72 88q126 -91 126 -123q0 -12 -17 -22l-47 -31v-322h-115v68h-571zM1053 1381h571v240h-571v-240zM1704 840
v254h-651v-254h651zM627 473l-41 21q59 195 100 434q154 -40 154 -84q0 -26 -64 -35q-49 -145 -149 -336zM235 496l3 72q0 109 -68 303l41 22q139 -201 139 -356q0 -96 -61 -96q-54 0 -54 55z" />
  </g>

</svg>
