<?xml version="1.0" standalone="no"?>
<!DOCTYPE svg PUBLIC "-//W3C//DTD SVG 1.1//EN" "http://www.w3.org/Graphics/SVG/1.1/DTD/svg11.dtd" >
<svg xmlns="http://www.w3.org/2000/svg" xmlns:xlink="http://www.w3.org/1999/xlink" version="1.1" viewBox="0 -205 1024 1024">
  <g transform="matrix(1 0 0 -1 0 819)">
   <path fill="currentColor"
d="M916 960l54 -60q12 -11 12 -16q0 -6 -18 -8q-33 -7 -68 -38q-36 -31 -146 -140q20 -12 20 -14q1 -1 -4 -4q-3 -3 -26 -14v-128v-4h164l38 44l62 -52q3 -3 4 -8q0 -12 -12 -12h-256v-354q2 -51 -16 -81q-17 -24 -64 -40q-6 33 -50 50q-45 17 -102 34l6 16q94 -18 116 -22
q20 -4 40 4q21 6 18 36v357h-162q-20 0 -70 -8l-16 36h248v198l44 -20l142 176h-328q-24 0 -48 -8l-24 36h396l46 44v0v0zM220 984l78 -34q17 -6 -4 -18l-26 -14v-632l104 18v464l78 -30q3 -2 4 -10q0 -4 -36 -20v-400l4 -76q0 -12 -14 -24q-15 -13 -36 -14v88
q-160 -39 -214 -60q-55 -22 -76 -44l-50 60q30 9 36 28v510l74 -32q7 -3 8 -8q-3 -5 -36 -22v-460l106 22v708v0v0z" />
  </g>

</svg>
