<?xml version="1.0" standalone="no"?>
<!DOCTYPE svg PUBLIC "-//W3C//DTD SVG 1.1//EN" "http://www.w3.org/Graphics/SVG/1.1/DTD/svg11.dtd" >
<svg xmlns="http://www.w3.org/2000/svg" xmlns:xlink="http://www.w3.org/1999/xlink" version="1.1" viewBox="0 -205 1024 1024">
  <g transform="matrix(1 0 0 -1 0 819)">
   <path fill="currentColor"
d="M612 906q3 -4 4 -8q0 -4 -12 -8q-21 -5 -30 -10q-7 -6 -62 -74q-54 -66 -156 -164l-12 12q120 141 198 288l70 -36v0v0zM760 958q9 0 10 -6q6 -6 -12 -14q-16 -12 -16 -18q6 -27 34 -66q25 -40 80 -80q56 -39 146 -54v-18q-42 0 -56 -8q-12 -7 -32 -28q-57 36 -96 76
q-39 38 -72 92q-33 51 -56 142l70 -18v0v0zM676 778q12 -11 -12 -16q-24 -3 -42 -24q-19 -18 -40 -42q-21 -22 -78 -76l264 10q-21 45 -62 84l10 12q57 -36 84 -62q24 -24 34 -48q6 -25 -2 -40q-10 -15 -26 -14q-15 0 -18 12q-4 12 -10 34q-141 -8 -198 -16q-54 -9 -110 -36
l-32 68q41 0 68 36q51 59 108 154l62 -36v0v0zM328 498h214l36 36l46 -38q12 -6 12 -12q0 -1 -32 -28v-347q3 -24 -12 -46q-15 -20 -60 -34q-9 36 -32 48q-21 10 -74 22l4 20q37 -10 74 -14q36 -3 46 2q9 7 6 33v156q-114 -76 -152 -106q-36 -28 -50 -50l-46 48l248 130v156
h-162q-22 -1 -44 -10l-22 34v0v0zM360 424l10 10q63 -34 84 -58t18 -44q-3 -18 -14 -24q-12 -7 -24 -2q-12 6 -14 18q-3 11 -12 38q-9 25 -48 62v0v0zM178 980l82 -30q12 -7 0 -16l-32 -12v-138q43 -24 68 -44q24 -19 34 -40q7 -22 2 -40q-6 -19 -26 -20q-18 0 -24 24
q-4 21 -16 46q-10 24 -38 52v-594l4 -111q0 -11 -18 -26q-17 -14 -40 -16l4 161v804v0v0zM102 730h18q1 -81 0 -120q0 -39 -18 -66q-16 -25 -38 -26q-22 0 -28 16q-6 14 6 28l22 30t20 46q9 28 18 92v0v0zM640 498h214l36 36l46 -38q12 -6 12 -12q0 -1 -32 -28v-347
q3 -24 -12 -46q-15 -20 -60 -34q-9 37 -32 46q-24 9 -74 24l4 20q37 -10 74 -14q36 -3 46 2q9 7 6 33v156q-102 -70 -138 -100q-36 -27 -48 -48l-50 46l236 124v156h-162q-22 -1 -44 -10l-22 34v0v0zM672 424l10 10q63 -34 84 -58t18 -44q-2 -21 -16 -26q-12 -5 -24 0
q-9 6 -12 18q-3 11 -12 38q-9 25 -48 62v0v0z" />
  </g>

</svg>
