<?xml version="1.0" standalone="no"?>
<!DOCTYPE svg PUBLIC "-//W3C//DTD SVG 1.1//EN" "http://www.w3.org/Graphics/SVG/1.1/DTD/svg11.dtd" >
<svg xmlns="http://www.w3.org/2000/svg" xmlns:xlink="http://www.w3.org/1999/xlink" version="1.1" viewBox="0 -205 1024 1024">
  <g transform="matrix(1 0 0 -1 0 819)">
   <path fill="currentColor"
d="M514 724q-2 10 2 13q5 2 17 -8q15 -12 31 -24h58q10 1 20 8l30 36q7 8 14 1q23 -24 39 -46q10 -15 7 -22t-16 -8h-66v-117q7 -2 10 1l17 21q7 11 16 2q19 -17 37 -36q6 -7 6 -8q0 -3 -4 -4q-19 -11 -20 -14q-1 -5 0 -9v-96q-1 -12 3 -34q1 -9 -3 -10q-33 -19 -40 -19
q-6 0 -5 10v29h-17v-121q10 1 20 8l30 36q7 8 14 1q23 -24 39 -46q10 -15 7 -22t-16 -8h-164q-22 -19 -32 -34q-6 -10 -13 0q-16 20 -32 33q-8 6 1 12q13 6 14 10q3 4 3 14v367q0 50 -7 84zM566 269h37v121h-37v-121zM566 526v-105h101v105h-101zM566 557h37v117h-37v-117z
M854 969q4 8 16 1q30 -11 48 -24q13 -8 14 -15q1 -21 -9 -33q-12 -14 -18 -14q-6 1 -13 17q-7 17 -14 30q-10 15 -20 25q-8 6 -4 13zM249 920l25 26q5 7 14 1q31 -23 53 -42q7 -8 -2 -9q-17 -3 -26 -12q-8 -9 -8 -19v-344q1 -68 8 -167q0 -13 -10 -19q-45 -26 -49 -25
q-4 2 -3 18q5 58 6 164v390h-144v-359q-1 -107 0 -182q-1 -15 -38 -40q-8 -4 -12 -4q-6 1 -5 20q4 100 7 206v332q-1 32 -7 78q-2 10 1 11q1 0 40 -31h131q12 0 19 7zM68 58q-14 -11 -20 -4q-7 10 2 17q55 104 88 236q40 230 18 488q-1 16 9 12q52 -16 68 -25q14 -7 1 -14
q-4 -1 -7 -4q-21 -11 -21 -96q-1 -258 -26 -363q82 -50 119 -96q37 -36 38 -58q1 -24 -12 -39q-14 -15 -20 -15q-6 1 -15 20q-50 117 -115 166q-35 -117 -107 -225zM818 348q19 49 35 104q25 120 26 193q0 10 1 11q3 2 9 1q27 -10 66 -23q8 -3 8 -7q-2 -6 -6 -7
q-29 -13 -32 -19q-2 -5 -12 -51q-27 -167 -75 -255q-2 -2 -3 -5q23 -66 52 -121q13 -16 20 -15q11 1 15 14q14 36 33 126q3 12 13 9t9 -13q-19 -88 -15 -145q3 -42 15 -75q3 -10 -1 -16q-7 -5 -29 5q-47 22 -87 71q-32 48 -57 111q-58 -82 -158 -184q-18 -15 -25 -8
q-9 10 1 20q105 110 151 186q9 14 16 29q-25 82 -34 176q-12 122 -9 300v42h-252v-272q0 -145 -25 -257q-24 -106 -97 -215q-10 -14 -22 -5q-9 7 1 22q50 80 69 171q20 96 24 220h-31v-28q0 -44 -9 -81q-9 -39 -27 -69q-20 -31 -48 -49q-18 -11 -22 2q-5 11 10 23
q19 21 28 43q12 27 18 64q4 33 5 67v24q-11 0 -21 -3q-5 -1 -6 2q-13 19 -23 35q-6 10 7 7q61 -5 68 -6h52q1 17 1 33v96h-42q-14 -15 -24 -31q-4 -6 -7 -6q-3 1 -9 8q-18 24 -39 40q-5 4 -5 8t6 7q15 10 18 17q4 9 4 21v90q-1 53 -5 78q-1 4 2 7q4 3 11 0q26 -14 45 -24
q9 -6 9 -9q-1 -5 -8 -12q-9 -9 -9 -40v-123h53v74q0 48 -6 124q-2 10 2 13q5 2 12 -5q15 -15 39 -30h253q-1 100 -2 146q0 11 7 10q29 -8 66 -23q10 -4 10 -8q-1 -5 -8 -9q-20 -9 -24 -37q-4 -21 -4 -79h46q13 0 23 7l18 19q9 10 18 3q23 -12 54 -37q12 -7 11 -14
q-3 -8 -16 -9h-155q0 -34 1 -77q1 -250 25 -364q2 -6 3 -13z" />
  </g>

</svg>
