<?xml version="1.0" standalone="no"?>
<!DOCTYPE svg PUBLIC "-//W3C//DTD SVG 1.1//EN" "http://www.w3.org/Graphics/SVG/1.1/DTD/svg11.dtd" >
<svg xmlns="http://www.w3.org/2000/svg" xmlns:xlink="http://www.w3.org/1999/xlink" version="1.1" viewBox="0 -205 1024 1024">
  <g transform="matrix(1 0 0 -1 0 819)">
   <path fill="currentColor"
d="M678 296q9 -3 6 -12q0 -1 -6 -4l-16 -10v-34h154l32 40l56 -48q3 0 4 -6q0 -12 -12 -12h-234v-97h222l36 45l58 -51q3 -4 4 -8q0 -12 -14 -12h-584q-18 1 -66 -8l-18 34h310v97h-154q-18 0 -66 -8l-18 34h238v82l68 -22v0v0zM676 562q11 -3 8 -12q0 -1 -8 -8l-16 -10v-50
h146l30 38l58 -46q3 0 4 -6q0 -12 -12 -12h-226v-96h196l32 36l52 -42q3 -4 4 -8q0 -12 -6 -12h-510q-18 0 -66 -8l-18 34h264v96h-138q-18 0 -66 -8l-18 34h222v104l68 -24v0v0zM362 520l18 -10q-174 -283 -182 -304q-10 -21 -8 -44q0 -19 4 -35q3 -12 6 -40q2 -26 -10 -40
q-12 -15 -30 -12q-17 0 -22 18q-7 13 2 46q5 33 8 51q0 19 -6 32q-7 12 -26 18q-19 5 -82 20l6 20q87 -10 102 -4q16 4 32 20q14 15 188 264v0v0zM94 552l8 12q57 -12 88 -24q30 -12 46 -32q15 -19 6 -38q-7 -19 -26 -22q-17 -1 -28 20q-12 21 -30 40q-17 17 -64 44v0v0z
M34 440l8 12q68 -19 94 -34q26 -13 38 -32t6 -38q-7 -19 -26 -22q-19 -1 -28 20q-9 22 -30 44q-19 20 -62 50v0v0zM158 954h620l30 38l66 -44q3 -3 4 -8q-1 -12 -16 -12h-340v-100h346l34 36l54 -48q12 -9 12 -14q-3 -6 -18 -8q-25 -9 -44 -24q-18 -15 -66 -72l-16 8l52 96
h-354v-124l4 -70q0 -15 -18 -30t-42 -14l4 108v130h-336q-6 -65 -20 -88q-15 -23 -32 -34q-18 -10 -32 -4q-13 5 -16 20q-4 14 16 34q18 17 36 44q16 26 26 88h18l2 -34h338v100h-228q-21 0 -68 -8l-16 34v0v0zM188 726h210v-26h-210v26v0v0zM186 632h212v-26h-212v26v0v0z
M594 726h202v-26h-202v26v0v0zM598 634h198v-26h-198v26v0v0z" />
  </g>

</svg>
