<?xml version="1.0" standalone="no"?>
<!DOCTYPE svg PUBLIC "-//W3C//DTD SVG 1.1//EN" "http://www.w3.org/Graphics/SVG/1.1/DTD/svg11.dtd" >
<svg xmlns="http://www.w3.org/2000/svg" xmlns:xlink="http://www.w3.org/1999/xlink" version="1.1" viewBox="0 -150 1000 1000">
  <g transform="matrix(1 0 0 -1 0 850)">
   <path fill="currentColor"
d="M507 642l7 9q67 -27 76.5 -60.5t-18.5 -35.5q-13 -1 -16 16q-9 40 -49 71zM701 223h140v100h-140v-100zM663 323h-136v-100h136v100zM841 208h-140v-108h140v108zM663 208h-136v-108h136v108zM817 668l51 -32q16 -11 6 -14q-20 0 -34 -18q-28 -36 -52 -61h76l28 35
l54 -40q10 -8 8 -11t-17 -2h-195q17 -26 37 -42q5 -4 16 -12q69 -70 195 -78l-1 -13q-53 -3 -57 -32q-77 29 -114 59q-40 30 -66 65q-24 32 -32 53h-16v-79l2 -51q1 -30 -49 -40q5 39 5 113v57h-10q-23 -49 -49 -74q-33 -35 -92 -70q-66 -36 -110 -49l-3 14q79 43 107 64
q35 26 64 55q27 30 37 60h-102q-25 2 -41 -12l-31 30h230v127q-56 -8 -190 -16v16q98 12 203 30q60 11 86 17q46 11 49 38l7 1l51 -47q8 -8 8 -12.5t-8 -5.5q-29 8 -65 2q-60 -12 -99 -17v-133h60l17 26q4 7 11 21q24 42 24 47q3 12 -7 25zM486 362l25 -20h320l19 24l51 -33
q6 -5 4.5 -8.5t-9.5 -5.5l-17 -9v-154l3 -98q-8 -16 -41 -18v42h-314v-22q3 -32 -45 -40q5 35 6 124v178q-1 19 -15 29zM165 755l6 10q65 -27 87 -53q19 -26 17 -49.5t-19 -26.5q-18 -5 -21 19.5t-16 48.5q-15 24 -54 51zM309 975l87 -36q14 -5 6 -10q-20 -9 -30 -21v-59
h249v69q2 15 -29 45l9 12l87 -36q14 -5 6 -10q-20 -9 -30 -21v-59h200l32 40l67 -50q7 -5 6 -7.5t-12 -2.5h-293v-1l3 -54q0 -20 -14 -29q-12 -9 -39 -14q4 36 7 78v20h-249v-1l2 -61q0 -20 -14 -29q-16 -10 -38 -14q4 37 7 84v21h-221q-26 0 -44 -13l-33 33h298v69
q2 15 -29 45zM383 419l-4 -9q-5 -150 -17 -217.5t-39.5 -105t-98.5 -47.5q-4 17 -16 31q-18 18 -51 27l2 14q38 -13 82 -19q35 0 54 30q18 32 29 100.5t11 198.5h-115q-11 -108 -40 -188q-39 -106 -144 -206l-8 12q72 87 114 195q40 109 40 291v64h-43q-28 0 -45 -13l-33 33
h288l30 41l57 -48q5 -8 3.5 -10.5t-11.5 -2.5h-203v-87q-1 -33 -4 -63h94l30 38l50 -36q8 -5 8 -10t-8 -8z" />
  </g>

</svg>
