<?xml version="1.0" standalone="no"?>
<!DOCTYPE svg PUBLIC "-//W3C//DTD SVG 1.1//EN" "http://www.w3.org/Graphics/SVG/1.1/DTD/svg11.dtd" >
<svg xmlns="http://www.w3.org/2000/svg" xmlns:xlink="http://www.w3.org/1999/xlink" version="1.1" viewBox="0 -36 256 256">
  <g transform="matrix(1 0 0 -1 0 220)">
   <path fill="currentColor"
d="M57 212q-3 13 -13 28l2 3q17 -12 22 -19.5t-1.5 -16t-9.5 4.5zM75 199l13 -13l-7 -6q-9 -17 -20 -37v-12l4 -2q13 18 18 33l13 -12q-9 -6 -27 -23q17 -8 20.5 -15t-0.5 -14.5t-9 3t-19 26.5v-114l-13 -6v115q-18 -24 -38 -39l-2 3q38 47 59 97h-25q-11 0 -20 -3l-9 10h55
zM160 171l10 -11q6 24 10.5 43.5t7.5 42.5l18 -9q-4 -5 -9.5 -21.5t-10.5 -32.5h34l9 10l15 -18h-18q-5 -63 -22 -106q19 -32 44 -43v-4q-17 -1 -21 -9q-20 21 -30 44q-18 -30 -44 -50l-3 3q24 24 41 60q-12 55 -11 96q-8 -22 -15 -32l-3 2l6 18h-48q-11 0 -21 -2l-10 9h23
v39h-4l-7 -2l-9 9h20q0 19 -1 38l20 -7l-7 -6v-25h16q0 28 -1 39l19 -7l-6 -6v-26l8 9l13 -16h-21v-38zM197 85q12 42 15 91h-27q2 -51 12 -91zM124 161h16v39h-16v-39zM162 37q0 -11 -5 -16t-10 -7q-2 11 -22 16v4q14 -1 19.5 -1t5.5 7v29h-40v-56l-13 -6q1 25 1 74.5
t-1 60.5l14 -7h38l6 9l14 -10l-7 -7v-90zM110 105h40v23h-40v-23zM110 76h40v22h-40v-22z" />
  </g>

</svg>
