<?xml version="1.0" standalone="no"?>
<!DOCTYPE svg PUBLIC "-//W3C//DTD SVG 1.1//EN" "http://www.w3.org/Graphics/SVG/1.1/DTD/svg11.dtd" >
<svg xmlns="http://www.w3.org/2000/svg" xmlns:xlink="http://www.w3.org/1999/xlink" version="1.1" viewBox="0 -205 1024 1024">
  <g transform="matrix(1 0 0 -1 0 819)">
   <path fill="currentColor"
d="M963 883l-8 -18h-242l-74 -74h198l17 23q10 12 12 12t17 -15l22 -25q20 -21 20 -29q0 -7 -31 -10v-256q0 -38 1 -35q-2 -5 -23 -9q-13 -4 -17 -4q-5 0 -6 7q1 -22 1 23h-319v-37q-2 -5 -23 -9q-10 -4 -14 -4q-7 0 -8 12q1 -31 1 44v289l-4 49l51 -26h87l31 74h-229v20
h433l30 40q14 16 16 16t20 -18zM969 123l-2 -12q-26 0 -27 -14q-1 -7 -1 -22q-2 -4 -9 -4q-6 0 -26 3q-136 40 -223 98q-136 -83 -326 -124l-6 14q108 27 177.5 61.5t126.5 75.5q-68 63 -113 143q-55 -73 -144 -127l-8 11q52 37 99.5 100.5t70.5 139.5l39 -17q26 -11 26 -18
q0 -10 -36 -13q-3 -8 -18 -32h238l19 21q9 9 10 9q2 0 15 -17l21 -28q17 -21 17 -29t-19 -8q-9 0 -26 2q-76 -93 -127 -144q40 -26 111.5 -48.5t140.5 -20.5zM850 695v76h-319v-76h319zM850 597v78h-319v-78h319zM850 493v83h-319v-83h319zM805 365h-249l-6 -10
q55 -86 133 -137q73 65 122 147zM413 740q1 -8 1 -16q0 -33 -16 -33q-13 0 -24 35q-29 65 -105 129q-35 -78 -90 -158.5t-104 -121.5l-7 10q55 64 109.5 170t68.5 194l40 -19q40 -20 40 -31q0 -13 -44 -15q-1 -5 -7 -14q77 -50 102.5 -75.5t35.5 -54.5zM433 488l-8 -17h-143
v-236l89 164l31 -20q23 -15 23 -24q0 -12 -36 -9l-107 -138v-33l127 22l4 -15l-278 -83q-4 -40 -16 -40q-11 0 -25 33l-16 39l161 34v306h-153v20h153v128h-84v21h160l14 18q11 16 16 16q4 0 20 -15l23 -21l-9 -19h-97v-128h77l14 19q10 14 15 14q3 0 21 -14zM204 264
q0 -23 -7.5 -40t-16.5 -17q-12 0 -18 41q-9 64 -47 124l9 10q77 -78 80 -118z" />
  </g>

</svg>
