<?xml version="1.0" standalone="no"?>
<!DOCTYPE svg PUBLIC "-//W3C//DTD SVG 1.1//EN" "http://www.w3.org/Graphics/SVG/1.1/DTD/svg11.dtd" >
<svg xmlns="http://www.w3.org/2000/svg" xmlns:xlink="http://www.w3.org/1999/xlink" version="1.1" viewBox="0 -205 1024 1024">
  <g transform="matrix(1 0 0 -1 0 819)">
   <path fill="currentColor"
d="M738 810h120l38 42l52 -50q3 0 4 -6q0 -12 -12 -12h-194v-108h90l28 34l52 -38q7 -6 8 -12q0 -4 -32 -26v-92h20l34 46l54 -54q3 0 6 -6q0 -12 -14 -12h-100v-70l4 -70q0 -13 -18 -22q-16 -10 -34 -10v32h-64q41 -83 74 -124q32 -39 70 -62q38 -22 88 -34v-16
q-31 0 -50 -1q-18 0 -38 -28q-39 31 -62 57q-21 26 -48 70q-25 45 -58 138h-10v-241l4 -80q0 -11 -20 -26q-18 -12 -36 -12l4 114v245h-86v-245l4 -78q-1 -11 -22 -26q-19 -13 -32 -14l4 108v187q-53 -78 -112 -140q-60 -59 -134 -115l-10 14q69 69 118 125q48 57 124 184
h-56q-24 0 -50 -8l-22 34h142v114h-66q-21 0 -62 -8l-22 34h150v108h-70q-21 1 -42 -10l-28 36h140v108h-66q-21 0 -68 -8l-16 34h292q53 96 86 162q64 -34 68 -40q4 -5 2 -10q-3 -3 -20 -6q-18 -1 -36 -22q-17 -18 -70 -84v0v0zM698 676v108h-86v-108h86v0v0zM612 650v-108
h86v108h-86v0v0zM746 650v-108h98v108h-98v0v0zM612 516v-114h86v114h-86v0v0zM746 516v-114h98v114h-98v0v0zM500 954l8 12q68 -27 98 -50q27 -21 34 -42q3 -21 -8 -36q-12 -16 -26 -14q-16 2 -22 26q-7 21 -22 46q-15 24 -62 58v0v0zM122 666h160l34 46l56 -56
q6 -12 -2 -18h-128v-138h80l38 38l44 -46q15 -12 0 -20h-162v-282l162 34l6 -16q-240 -69 -282 -87q-41 -18 -64 -42l-42 67l172 34v292h-88q-21 0 -56 -8l-16 36h160v138h-34l-18 -6l-20 34v0v0zM20 574q51 77 102 170q47 90 104 228l68 -34q4 -6 0 -12q-5 -3 -16 -6
q-9 -3 -26 -26q69 -36 102 -62q34 -24 44 -48q10 -21 0 -38q-12 -18 -26 -14q-15 2 -26 26q-12 23 -32 50q-21 27 -72 72q-40 -82 -88 -160t-122 -156l-12 10v0v0zM56 404l12 8q51 -46 66 -76q14 -30 16 -56q1 -27 -16 -38q-15 -10 -30 -4q-13 6 -14 28v54q-1 30 -34 84v0v0
zM260 250q45 87 88 168l54 -38q3 -9 -2 -12q-7 -3 -20 -6q-12 -4 -30 -28q-19 -23 -76 -94l-14 10v0v0z" />
  </g>

</svg>
