<?xml version="1.0" standalone="no"?>
<!DOCTYPE svg PUBLIC "-//W3C//DTD SVG 1.1//EN" "http://www.w3.org/Graphics/SVG/1.1/DTD/svg11.dtd" >
<svg xmlns="http://www.w3.org/2000/svg" xmlns:xlink="http://www.w3.org/1999/xlink" version="1.1" viewBox="0 -205 1024 1024">
  <g transform="matrix(1 0 0 -1 0 819)">
   <path fill="currentColor"
d="M748 802l58 -36h92l30 38l50 -34q12 -6 12 -14q1 -5 -28 -28v-566l4 -61q1 -14 -18 -26q-19 -9 -34 -10v107h-116v-89q0 -12 -18 -24t-36 -12l4 107v648v0v0zM798 198h116v542h-116v-542v0v0zM656 786l60 -38q8 -3 8 -12q1 -3 -34 -30v-344q-6 -144 -12 -182t-26 -67
q-19 -27 -68 -46q-7 31 -32 46q-24 17 -78 31l6 18q80 -19 106 -16q27 2 36 26q9 23 18 188v362h-88q4 -124 -16 -274q-17 -151 -64 -250q-45 -98 -174 -187l-8 14q102 89 144 187q40 96 56 244q15 146 12 266h-52q-7 0 -28 -8l-20 34h100v232l78 -32q10 -6 8 -14
q0 -1 -36 -16v-170h72l32 38v0v0zM74 826h162v156l80 -32q9 -4 0 -16l-32 -14v-94h60l34 42l56 -50q3 -3 4 -6q0 -12 -12 -12h-142v-120h54l34 40l48 -46q3 -3 6 -8q0 -12 -12 -12h-130v-120h74l38 44l54 -52q3 -3 6 -8q0 -10 -12 -10h-160v-72q54 -21 90 -48q35 -24 50 -48
q12 -21 4 -42q-6 -19 -24 -20q-15 0 -24 18q-7 18 -26 48q-17 27 -70 70v-274l4 -79q0 -12 -18 -24q-16 -12 -38 -12l4 115v272q-30 -66 -74 -144q-42 -79 -120 -155l-10 10q69 100 118 209q48 107 66 176h-90q-21 0 -44 -8l-16 34h170v120h-66q-21 0 -56 -8l-16 34h138v120
h-90q-21 0 -56 -8l-16 34v0v0z" />
  </g>

</svg>
