<?xml version="1.0" standalone="no"?>
<!DOCTYPE svg PUBLIC "-//W3C//DTD SVG 1.1//EN" "http://www.w3.org/Graphics/SVG/1.1/DTD/svg11.dtd" >
<svg xmlns="http://www.w3.org/2000/svg" xmlns:xlink="http://www.w3.org/1999/xlink" version="1.1" viewBox="0 -36 256 256">
  <g transform="matrix(1 0 0 -1 0 220)">
   <path fill="currentColor"
d="M113 84l-15 -10v16h-61v-11l-15 -7q1 27 1 86t-1 83l17 -9h57l9 10l15 -16l-8 -8v-89q0 -14 1 -45zM98 179h-61v-35h61v35zM98 137h-61v-40h61v40zM56 57q-23 -31 -45 -51l-1 3q25 33 40 70l17 -14zM107 54q12 -11 6.5 -24t-12.5 3.5t-23 37.5l2 3q15 -9 27 -20zM98 225
h-61v-39h61v39zM125 180q25 -20 32.5 -28.5t7 -16.5t-7 -14.5t-10 9t-25.5 47.5zM175 119q-7 -33 -21 -60.5t-44 -50.5l-3 2q23 26 35.5 53.5t19 63t6.5 96.5h-13q-13 0 -22 -3l-10 10h100l9 10l14 -13l-7 -8q-1 -141 -7 -169.5t-32 -40.5q-1 17 -33 24v6q21 -3 35.5 -3
t17.5 31.5t5 155.5h-42q-1 -71 -8 -104z" />
  </g>

</svg>
