<?xml version="1.0" standalone="no"?>
<!DOCTYPE svg PUBLIC "-//W3C//DTD SVG 1.1//EN" "http://www.w3.org/Graphics/SVG/1.1/DTD/svg11.dtd" >
<svg xmlns="http://www.w3.org/2000/svg" xmlns:xlink="http://www.w3.org/1999/xlink" version="1.1" viewBox="0 -205 1024 1024">
  <g transform="matrix(1 0 0 -1 0 819)">
   <path fill="currentColor"
d="M704 812l58 -40h96l30 40l52 -40q12 -6 12 -14q0 -6 -26 -24v-514l4 -95q1 -14 -18 -26q-19 -9 -34 -10v117h-124v-95q0 -12 -18 -24q-18 -11 -36 -14l4 113v626v0v0zM754 232h124v514h-124v-514v0v0zM602 796l58 -38q8 -3 8 -12q1 -3 -34 -30l-6 -330q-6 -143 -12 -184
q-6 -42 -24 -69q-19 -27 -76 -52q-12 31 -36 46t-86 37l6 18q87 -24 120 -20q30 4 42 32q9 26 16 190l6 348h-106q0 -115 -14 -248q-15 -132 -80 -246t-220 -213l-8 14q128 105 190 219q60 114 72 238q12 122 10 236h-88q-7 0 -28 -8l-20 34h136v218l72 -24q10 -3 8 -14
q0 -1 -30 -14v-166h92l32 38v0v0zM42 846h234l34 46l56 -54q3 -3 4 -8q0 -12 -12 -12h-136v-230h54l40 46l56 -58q3 -2 4 -4q0 -12 -8 -12h-146v-242l128 44l8 -18q-171 -76 -216 -98q-42 -21 -72 -48l-44 54l148 50v258h-48q-21 0 -68 -8l-16 36h132v230h-60q-21 0 -56 -8
l-16 36v0v0z" />
  </g>

</svg>
