<?xml version="1.0" standalone="no"?>
<!DOCTYPE svg PUBLIC "-//W3C//DTD SVG 1.1//EN" "http://www.w3.org/Graphics/SVG/1.1/DTD/svg11.dtd" >
<svg xmlns="http://www.w3.org/2000/svg" xmlns:xlink="http://www.w3.org/1999/xlink" version="1.1" viewBox="0 -205 1024 1024">
  <g transform="matrix(1 0 0 -1 0 819)">
   <path fill="currentColor"
d="M830 476q11 -10 -4 -16q-28 -4 -64 -52l-32 -42h98l36 40l54 -50q3 -3 4 -6q0 -10 -12 -10h-222v-96h202l40 42q62 -54 62 -62q0 -9 -18 -8h-286v-107l4 -52q0 -14 -20 -28q-21 -13 -38 -14l4 94v107h-228q-24 0 -44 -8l-22 36h294v96h-152q-33 1 -68 -10l-20 36h304
q37 72 62 130l66 -20v0v0zM412 640h224v90l68 -24q8 -4 8 -8q0 -7 -6 -10l-20 -8v-40h132l34 40l54 -48q3 -4 4 -10t-16 -6h-208v-88h188l38 46l58 -56q3 -4 4 -10t-16 -6h-528q-21 -1 -62 -10l-18 36h286v88h-140q-28 -1 -64 -10l-20 34v0v0zM504 482l8 12q47 -21 74 -36
q26 -16 34 -34q6 -19 -2 -34q-6 -15 -24 -14q-16 0 -22 16q-5 15 -16 34q-11 17 -52 56v0v0zM396 970l56 -40h418l30 36l60 -40q6 -4 6 -8q-1 -6 -34 -32v-84l4 -66q3 -15 -14 -26q-16 -9 -40 -12v40h-436v-16q1 -13 -16 -22q-15 -7 -38 -8l4 64v214v0v0zM446 764h110v140
h-110v-140v0v0zM606 764h116v140h-116v-140v0v0zM772 764h110v140h-110v-140v0v0zM178 986l90 -34q4 -5 2 -10q0 -6 -42 -24v-280q56 72 92 138q63 -45 60 -54q-4 -7 -10 -8q-6 0 -18 -2q-12 -1 -42 -26q-27 -23 -84 -76q1 -113 -10 -208q39 -31 70 -68q27 -35 40 -70t8 -52
q-3 -15 -12 -24t-26 -6q-15 3 -20 36q-4 32 -16 76q-12 45 -48 90q-11 -96 -52 -186q-42 -88 -128 -167l-10 10q62 78 94 155q29 78 44 148q12 72 18 252v390v0v0zM126 726q6 -93 0 -144q-7 -49 -28 -70q-21 -22 -42 -20q-18 3 -24 18q-4 16 14 32q18 15 34 46q15 30 28 138
h18v0v0z" />
  </g>

</svg>
