<?xml version="1.0" standalone="no"?>
<!DOCTYPE svg PUBLIC "-//W3C//DTD SVG 1.1//EN" "http://www.w3.org/Graphics/SVG/1.1/DTD/svg11.dtd" >
<svg xmlns="http://www.w3.org/2000/svg" xmlns:xlink="http://www.w3.org/1999/xlink" version="1.1" viewBox="0 -205 1048 1024">
  <g transform="matrix(1 0 0 -1 0 819)">
   <path fill="currentColor"
d="M963 718q6 -20 2 -38q-4 -16 -14 -20q-11 -4 -22 6q-13 14 -20 43q-6 23 -35 61q-27 38 -67 78l10 6q46 -24 86 -60q42 -40 60 -76zM885 964q34 -29 20 -34q-7 -5 -49 11l-19 -6q-71 -21 -111 -35q-66 -19 -120 -30q2 -4 -8 -8q-9 -2 -32 -4q-5 -55 -38 -122
q-31 -65 -77 -125l-13 4q39 75 59 149q24 78 27 142l57 -20l4 -2q65 20 124 46q57 24 140 68zM757 715q4 -23 -2 -39t-17 -16q-12 -2 -21 10q-10 12 -10 35q-5 25 -19 57q-15 34 -40 68l12 6q36 -24 62 -57q29 -34 35 -64zM957 502q14 -11 10 -17q-6 -4 -22 -4h-142v-302
q0 -61 -26 -89q-26 -31 -85 -34q-6 23 -25 38q-17 11 -62 28v15q93 -19 123 -6q29 8 29 48v302h-235l-80 -2l-4 23l72 -3h247v101l-2 60l48 -17q27 -9 27 -17q0 -7 -27 -11v-119h56l46 52zM656 309q7 -23 2 -42q-2 -18 -14 -24q-11 -6 -21 1q-13 12 -17 36q-6 35 -25 71
q-20 43 -55 79l6 9q45 -25 76 -60q32 -34 48 -70zM254 599h70l41 39l49 -35q10 -6 8 -14q-4 -7 -19 -7h-149v-313q25 9 65 21q27 8 95 26l4 -6l-152 -70q-55 -24 -80 -34q-41 -19 -66 -33q-8 -28 -18 -33q-10 -4 -17 16l-18 62l137 39v325h-78l-45 -3l-4 20h49h78v291h-90
l-55 -4l-4 23l57 -4h221l38 39l49 -35q10 -10 6 -16q-4 -3 -18 -3h-154v-258v-33z" />
  </g>

</svg>
