<?xml version="1.0" standalone="no"?>
<!DOCTYPE svg PUBLIC "-//W3C//DTD SVG 1.1//EN" "http://www.w3.org/Graphics/SVG/1.1/DTD/svg11.dtd" >
<svg xmlns="http://www.w3.org/2000/svg" xmlns:xlink="http://www.w3.org/1999/xlink" version="1.1" viewBox="0 -36 256 256">
  <g transform="matrix(1 0 0 -1 0 220)">
   <path fill="currentColor"
d="M89 100l1 -4q-1 -1 -23 -12v-51q-1 -23 -19 -26q-1 12 -22 18v4q14 -2 18.5 -2.5t7 1t2.5 7.5v44q-28 -15 -30 -22l-13 17q13 2 43 13v40h-10q-10 -1 -19 -3l-9 10h38q0 26 -1 33l22 -9l-8 -7v-17h8l8 9l15 -16h-31v-34q7 2 22 7zM103 146q78 10 103 21l15 -18l-12 3
q-79 -9 -106 -9v3zM151 141l5 2q24 -12 16.5 -24.5t-11 1.5t-10.5 21zM115 137l1 3q34 -13 25.5 -23.5t-12 -1t-14.5 21.5zM94 97.5q11 9.5 12 19.5h4v-10h67q8 7 14 18t12 21l18 -12q-8 -2 -14.5 -8.5t-21.5 -18.5h36l7 7l16 -14q-10 -1 -29 -18l-3 1l8 17h-110
q-5 -17 -16 -14.5t0 12zM135 76q10 -17 25 -30q12 11 26 30h-51zM196 91l17 -13l-12 -4q-16 -24 -31 -35q24 -15 75 -17v-3q-17 -3 -18 -11q-40 8 -67 23q-27 -17 -79 -24l-3 3q48 11 73 28q-19 23 -23 38h-4l-8 -1l-9 8h78zM220 208h-181q0 -16 -8.5 -20.5t-14 0t5 11.5
t12.5 28h5v-12h86q-1 9 -5.5 15.5t-13.5 14.5l2 3q23 -8 29.5 -15t-4.5 -18h85l8 9l17 -16q-13 -2 -31 -19l-3 2zM91 213h14q5 -41 -83 -48v4q73 12 69 44zM166 213v-21q0 -12 18 -11h4q25 -1 30.5 2.5t12 -1.5t3.5 -8.5t-29 -3.5h-28q-24 -2 -24 22v21h13z" />
  </g>

</svg>
