<?xml version="1.0" standalone="no"?>
<!DOCTYPE svg PUBLIC "-//W3C//DTD SVG 1.1//EN" "http://www.w3.org/Graphics/SVG/1.1/DTD/svg11.dtd" >
<svg xmlns="http://www.w3.org/2000/svg" xmlns:xlink="http://www.w3.org/1999/xlink" version="1.1" viewBox="0 -205 1024 1024">
  <g transform="matrix(1 0 0 -1 0 819)">
   <path fill="currentColor"
d="M56 826h262l32 48l60 -56q3 -3 4 -8q0 -12 -12 -12h-142v-244h62l32 42l56 -52q3 -3 4 -6q0 -12 -12 -12h-142v-230l130 26l4 -18q-237 -79 -264 -92q-25 -10 -58 -34l-36 68l174 38v242h-60q-21 0 -68 -8l-16 36h144v244h-76q-21 0 -62 -8l-16 36v0v0zM452 818l66 -48
h148v208l76 -30q7 -3 8 -6q12 -3 0 -14l-32 -16v-142h172l26 32l56 -50q15 -9 16 -18q0 -3 -14 -6q-31 -6 -52 -32q-36 -37 -68 -74l-14 8l58 110h-180v-216h78l28 38l66 -42q7 -3 8 -12q-1 -3 -22 -12q-13 -10 -20 -22q-37 -95 -64 -148q-27 -51 -74 -104q39 -41 94 -70
q61 -32 170 -55v-20q-42 2 -60 0q-15 -3 -36 -34q-61 34 -110 70q-48 33 -90 75q-47 -45 -136 -93q-88 -47 -190 -74l-4 18q120 54 184 92q63 34 120 91q-36 42 -62 102q-25 57 -44 172h-50q-21 -222 -98 -324q-78 -101 -158 -151l-8 12q93 90 148 191q54 99 64 298v296v0v0
zM580 496q21 -87 42 -138t66 -104q81 107 114 242h-222v0v0zM504 524h162v216h-162v-216v0v0z" />
  </g>

</svg>
