<?xml version="1.0" standalone="no"?>
<!DOCTYPE svg PUBLIC "-//W3C//DTD SVG 1.1//EN" "http://www.w3.org/Graphics/SVG/1.1/DTD/svg11.dtd" >
<svg xmlns="http://www.w3.org/2000/svg" xmlns:xlink="http://www.w3.org/1999/xlink" version="1.1" viewBox="0 -154 1024 1024">
  <g transform="matrix(1 0 0 -1 0 870)">
   <path fill="currentColor"
d="M583 993l44 -42q17 -18 0 -20q-31 8 -78 -14l-18 -6v-233h35l29 40l60 -50q16 -11 -5 -9h-119v-58q2 -98 -9 -179h58l27 40l61 -50q15 -11 -5 -9h-144q-15 -256 -186 -373l-4 12q121 129 152 361h-69q-24 0 -40 -14l-30 33h141q10 82 12 187v50h-62q-23 0 -40 -14l-29 33
h131v222q-61 -17 -127 -28l-3 11l66 24q88 34 115 47q26 13 28 18t4 19zM643 938h224l28 40l61 -50q15 -12 -5 -10h-139v-156h57l28 40l61 -50q15 -11 -5 -10h-141v-169h68l28 39l61 -50q14 -12 -6 -10h-151v-178h91l28 40l61 -50q14 -12 -6 -10h-174v-180l1 -97
q1 -39 -44 -46q3 39 5 189v134h-102q-24 1 -40 -13l-30 33h172v178h-62q-24 1 -40 -13l-31 34h133v169h-50q-24 2 -40 -13l-30 33h120v156h-61q-24 2 -40 -13zM293 685h-148v-118h148v118zM293 551h-148v-122h148v122zM145 701h148v131h-148v-131zM331 818v-663
q2 -62 -10 -88q-13 -26 -61 -38q-12 48 -107 67l2 16q94 -23 115 -21q23 2 23 50v268h-23q-14 -66 -41 -125q-58 -127 -204 -190l-9 14q122 73 172 183q26 55 42 118h-142q-25 1 -42 -13l-32 33h91v399q4 21 -17 45l11 14l37 -35h30l9 20q32 76 31 87q-2 11 -11 26l9 7
l61 -32q17 -11 6 -15q-22 1 -40 -21q-19 -39 -44 -72h91l39 41l33 -43q18 -12 0 -19z" />
  </g>

</svg>
