<?xml version="1.0" standalone="no"?>
<!DOCTYPE svg PUBLIC "-//W3C//DTD SVG 1.1//EN" "http://www.w3.org/Graphics/SVG/1.1/DTD/svg11.dtd" >
<svg xmlns="http://www.w3.org/2000/svg" xmlns:xlink="http://www.w3.org/1999/xlink" version="1.1" viewBox="0 -205 1024 1024">
  <g transform="matrix(1 0 0 -1 0 819)">
   <path fill="currentColor"
d="M418 884h164l38 42l50 -56q2 -3 2 -6q1 -9 -4 -8h-136v-122h90l28 42l44 -50q3 -3 4 -6q0 -12 -8 -12h-158v-74h64l36 42l54 -54q2 -3 2 -6q1 -9 -4 -8h-152v-92l148 28l4 -20q-272 -67 -310 -80q-37 -12 -70 -38l-36 62l82 16v170l70 -24q11 -3 2 -18l-26 -14v-106
l88 16v200h-122q-21 0 -62 -8l-14 34h198v122h-82q-35 -44 -76 -88l-16 10q39 59 58 100q18 42 42 96q58 -26 62 -34q3 -7 -2 -10q-5 -4 -16 -8q-12 -3 -36 -38v0v0zM280 932q15 -9 4 -18q0 -1 -20 -4q-18 -1 -72 -46q-51 -42 -132 -102l-10 12q79 72 182 192l48 -34v0v0z
M726 920l48 -28h106l30 38l58 -44q3 -1 4 -8q1 -6 -28 -24v-262q0 -39 -12 -60q-12 -19 -56 -28q-1 26 -22 40q-21 12 -56 24l6 18q32 -9 50 -12q18 -4 30 2q12 3 10 34v256h-120v-348l4 -74q1 -14 -22 -28q-20 -13 -34 -14l4 102v416v0v0zM282 780q7 -6 2 -14q-1 -1 -16 -8
q-7 -4 -22 -16q-12 -12 -30 -36v-188l4 -76q-1 -15 -22 -26q-22 -12 -34 -8l4 120v128q-58 -55 -122 -104l-10 12q67 74 116 136q48 63 78 108l52 -28v0v0zM182 374h598l36 40l56 -50l2 -4q0 -10 -12 -10h-600q-20 0 -64 -8l-16 32v0v0zM50 260h814l46 50l64 -60q3 -4 4 -8
q0 -7 -12 -8h-422v-125q0 -40 -20 -62q-19 -21 -62 -30q-3 30 -36 44q-33 15 -78 30l4 18q56 -12 86 -18q27 -3 42 6q15 10 12 53v84h-358q-21 0 -68 -8l-16 34v0v0zM230 93q-66 -35 -176 -80l-6 16q90 49 148 88q57 36 108 87q66 -37 64 -46q-1 -10 -8 -10q-6 -1 -18 -2
t-30 -9q-16 -7 -82 -44v0v0zM638 206q110 -24 170 -48q57 -22 82 -45q24 -20 22 -44q-3 -23 -24 -28q-22 -4 -40 22q-19 27 -62 54t-154 73l6 16v0v0z" />
  </g>

</svg>
