<?xml version="1.0" standalone="no"?>
<!DOCTYPE svg PUBLIC "-//W3C//DTD SVG 1.1//EN" "http://www.w3.org/Graphics/SVG/1.1/DTD/svg11.dtd" >
<svg xmlns="http://www.w3.org/2000/svg" xmlns:xlink="http://www.w3.org/1999/xlink" version="1.1" viewBox="0 -205 1024 1024">
  <g transform="matrix(1 0 0 -1 0 819)">
   <path fill="currentColor"
d="M872 776l42 48l70 -56q3 -3 4 -8q0 -12 -12 -12h-216v-607q1 -45 -16 -64q-15 -17 -60 -28q-6 24 -20 36q-15 12 -86 36l4 16q59 -15 80 -18q18 -3 34 2q16 4 14 39v588h-132v-160q2 -244 -76 -370q-78 -122 -180 -183l-8 14q74 60 146 177q70 116 66 362v160h-136
q-21 -1 -48 -10l-26 38h556v0v0zM392 440q-34 -82 -92 -172l-16 8q54 111 106 316q80 -30 80 -38t-6 -10q-6 0 -14 -6q-10 -4 -16 -10q-6 -5 -42 -88v0v0zM816 598q105 -105 132 -168q25 -62 20 -88q-6 -27 -18 -36q-13 -9 -26 0q-12 7 -18 38q-6 29 -20 82q-13 54 -80 162
l10 10v0v0zM520 966l10 10q76 -34 110 -64q32 -28 38 -52q7 -22 -4 -38q-10 -15 -28 -12q-19 0 -26 22q-7 20 -20 50q-13 27 -80 84v0v0zM354 944q12 -8 -2 -16q-27 -2 -42 -34q-52 -99 -106 -204l50 -20q15 -9 -2 -18l-18 -10v-482l4 -93q0 -17 -24 -32q-21 -13 -36 -12
l4 131v496q-75 -127 -146 -196l-12 8q66 96 150 270q81 174 102 252l78 -40v0v0z" />
  </g>

</svg>
