<?xml version="1.0" standalone="no"?>
<!DOCTYPE svg PUBLIC "-//W3C//DTD SVG 1.1//EN" "http://www.w3.org/Graphics/SVG/1.1/DTD/svg11.dtd" >
<svg xmlns="http://www.w3.org/2000/svg" xmlns:xlink="http://www.w3.org/1999/xlink" version="1.1" viewBox="0 -36 256 256">
  <g transform="matrix(1 0 0 -1 0 220)">
   <path fill="currentColor"
d="M118.5 199q4.5 -10 -3 -12.5t-9.5 6.5t-13 22l2 3q19 -9 23.5 -19zM163.5 172.5q5.5 -6.5 -0.5 -14.5t-8.5 2.5t-14.5 25.5l2 2q16 -9 21.5 -15.5zM140 199q-7 -34 -32 -53l-3 2q21 30 23 51t1 43l21 -7l-7 -7l-3 -24q15 13 20 22l12 -12l-9 -1zM106 142h119l9 10l14 -14
q-17 -9 -27 -23l-3 1l9 19h-121q0 -8 -4.5 -18t-12.5 -6.5t-3.5 8.5t8.5 11t8 23h4v-11zM230.5 172q4.5 -7 -0.5 -14.5t-8 2.5t-15 26l2 2q17 -9 21.5 -16zM207 198q-6 -38 -38 -54l-2 3q25 23 27 49t1 46l21 -8l-8 -6q-1 -19 -1 -25q15 13 20 22l11 -13l-7 -1
q-17 -10 -24 -13zM187.5 198q3.5 -8 -4.5 -11.5t-9 6.5t-9 22l2 3q17 -12 20.5 -20zM94 76l1 -4q-73 -40 -73 -48l-12 19q25 8 37 14v74h-6q-13 1 -20 -3l-8 10h34v67h-10q-12 1 -19 -2l-7 9h58l13 13l14 -20h-36v-67h10l12 12l13 -19h-35v-70zM213 37l-17 17l2 3
q31 -16 35.5 -26t-1.5 -15t-8.5 0.5t-8.5 15.5q-40 -4 -69 -9.5t-44 -9.5l-7 17q27 0 62 3v29h-32v-2l-15 -5q1 15 1 30.5t-1 30.5l15 -4h32q0 15 -1 25l20 -7l-6 -6v-12h31l8 8l14 -12l-6 -3v-44l-14 -3v4h-33v-28zM125 69h32v36h-32v-36zM170 69h33v36h-33v-36z" />
  </g>

</svg>
