<?xml version="1.0" standalone="no"?>
<!DOCTYPE svg PUBLIC "-//W3C//DTD SVG 1.1//EN" "http://www.w3.org/Graphics/SVG/1.1/DTD/svg11.dtd" >
<svg xmlns="http://www.w3.org/2000/svg" xmlns:xlink="http://www.w3.org/1999/xlink" version="1.1" viewBox="0 -205 1024 1024">
  <g transform="matrix(1 0 0 -1 0 819)">
   <path fill="currentColor"
d="M148 732l50 -30h202l26 28l50 -32q9 -3 10 -12q-1 -7 -28 -26v-180q0 -30 -14 -48q-12 -19 -44 -34q-10 29 -34 40q-25 12 -64 24l4 16q42 -9 60 -12q18 -1 30 2q14 0 14 30v26h-212v-16l2 -60q0 -13 -20 -26q-18 -13 -36 -14l4 96v228v0v0zM198 546h212v54h-212v-54v0v0
zM198 622h212v56h-212v-56v0v0zM898 738q-1 -12 -20 -18l-34 -6v16h-222v-50h202l22 24l44 -30q10 -13 -4 -16h-264v-46h190l26 28l42 -34q9 -11 -2 -16h-256v-50h202l24 30l40 -36q6 -10 -6 -16h-260v-18q0 -19 10 -26q9 -7 46 -8h178q31 -1 44 2q13 0 20 12q5 9 8 30
q0 20 4 68h18q2 -46 8 -68q4 -21 26 -36q-13 -33 -32 -42q-19 -7 -52 -8h-238q-38 2 -64 16q-25 13 -26 56v282l44 -24h230v54h-214l-28 -30l-54 42l26 20v148l70 -26q12 -10 4 -16l-24 -10v-26h240l34 46l60 -52q6 -19 -18 -16h-316v-56h212l24 34l54 -40q9 -11 -2 -16
l-20 -12v-22l4 -38v0v0zM60 380h782l24 32l52 -38q3 -3 4 -6q0 -12 -14 -12h-152v-227l122 8l32 43l56 -45q10 -6 8 -12q-1 -4 -16 -8l-202 -10v-34l4 -24q0 -18 -20 -30t-40 -12l4 56v42l-608 -18q-18 -3 -32 -12l-22 36l228 4v243h-126q-18 0 -66 -8l-18 32v0v0zM318 117
l386 12v47h-386v-59v0v0zM318 200h386v70h-386v-70v0v0zM318 294h386v62h-386v-62v0v0zM436 884l32 38l50 -50q6 -12 -8 -12h-344q-25 0 -52 -8l-18 32h340v0v0zM428 836q7 -9 0 -14q-16 -3 -28 -12q-12 -10 -30 -32h88l36 40l52 -50q8 -13 -10 -14h-388q-30 3 -66 -8
l-18 32h278q9 21 30 78l56 -20v0v0zM234 982l8 12q50 -18 70 -30q19 -12 26 -26q6 -13 -2 -28q-9 -16 -26 -14q-15 2 -20 20q-5 15 -16 30t-40 36v0v0zM194 848l6 8q35 -10 50 -22q15 -10 18 -22q4 -12 -4 -20q-6 -10 -20 -10q-11 1 -16 14q-4 12 -10 24q-3 11 -24 28v0v0z
" />
  </g>

</svg>
