<?xml version="1.0" standalone="no"?>
<!DOCTYPE svg PUBLIC "-//W3C//DTD SVG 1.1//EN" "http://www.w3.org/Graphics/SVG/1.1/DTD/svg11.dtd" >
<svg xmlns="http://www.w3.org/2000/svg" xmlns:xlink="http://www.w3.org/1999/xlink" version="1.1" viewBox="0 -150 1000 1000">
  <g transform="matrix(1 0 0 -1 0 850)">
   <path fill="currentColor"
d="M455 974l87 -32q12 -5 6 -10q-17 -4 -30 -18v-98h246l33 41l70 -51q7 -6 5.5 -8.5t-11.5 -0.5h-343v-136h336l35 42l72 -52q7 -5 6 -7.5t-11 -2.5h-825q-26 0 -42 -11l-32 31h418v262q1 15 -28 41zM275 393h470v117h-470v-117zM236 560l26 -30h474l26 28l51 -37
q7 -5 5 -9.5t-11 -6.5l-17 -9v-82l3 -39q5 -32 -48 -37v35h-213v-114h253l31 39l66 -47q8 -6 6.5 -9t-12.5 -3h-344v-127q3 -1 12.5 -1.5t12.5 -0.5q99 -6 175 -6h265v-14q-56 -1 -64 -5q-14 -4 -26 -25q-311 -2 -372 7q-67 10 -115.5 25.5t-100.5 60.5q-45 38 -63 67
q-38 -50 -78 -87q-54 -52 -139 -100l-9 13q65 51 102 89t70 84.5t37 56.5q4 12 -4 32l6 6l75 -42q4 -3 3.5 -6t-5.5 -4q-14 -2 -32 -8q-3 -3 -8 -10q-3 -5 -4 -7q37 -41 96 -77q42 -25 121 -41v254h-212v-5q2 -35 -51 -44q6 57 7 105v93q-5 20 -10 26z" />
  </g>

</svg>
