<?xml version="1.0" standalone="no"?>
<!DOCTYPE svg PUBLIC "-//W3C//DTD SVG 1.1//EN" "http://www.w3.org/Graphics/SVG/1.1/DTD/svg11.dtd" >
<svg xmlns="http://www.w3.org/2000/svg" xmlns:xlink="http://www.w3.org/1999/xlink" version="1.1" viewBox="0 -36 256 256">
  <g transform="matrix(1 0 0 -1 0 220)">
   <path fill="currentColor"
d="M73 180h20l6 10l17 -13l-8 -6q0 -66 1 -78l-14 -7v8h-56v-8l-14 -6q1 22 1 94q-4 -8 -14 -19l-2 3q19 32 29.5 56t10.5 33l20 -11q-7 -1 -17 -19h30l9 10l14 -15q-10 0 -33 -32zM35 184l7 -4h24l17 30h-32q-7 -11 -16 -26zM39 139h22v34h-22v-34zM73 139h22v34h-22v-34z
M39 101h22v31h-22v-31zM73 101h22v31h-22v-31zM33.5 40.5q-1.5 -8.5 -5.5 -12t-12 -3.5t1 12.5t13 34.5h4q1 -23 -0.5 -31.5zM49 75q16 -19 16.5 -29t-6 -15.5t-7 9t-6.5 34.5zM69 78q24 -17 24.5 -26.5t-5 -14t-7.5 6t-14 32.5zM92 84q20 -11 25.5 -18.5t0 -17.5t-9 2
t-19.5 32zM166 156l14 -18q-13 0 -21.5 -3.5t-22.5 -7.5v-38h15l10 13l14 -20h-39v-46h85v46h-4q-13 1 -24 -2l-9 9h37v39h-11q-10 0 -19 -2l-9 9h36l10 12l16 -16l-9 -6v-67q0 -23 1 -38l-15 -10v19h-85v-12l-14 -7q1 36 1 78t-1 56l14 -12q19 11 30 24zM177.5 227.5
q31.5 5.5 46.5 15.5l15 -19l-12 1q-18 -3 -52.5 -6t-58.5 -3v4q30 2 61.5 7.5zM143 182q8 -9 2 -21.5t-10 3t-19 35.5l2 2q17 -10 25 -19zM242 200l-8 -3q-16 -24 -36 -45l-3 2q22 31 28 61zM183.5 186.5q6.5 -9.5 -1 -21t-10 3.5t-16.5 37l2 3q19 -13 25.5 -22.5z" />
  </g>

</svg>
