<?xml version="1.0" standalone="no"?>
<!DOCTYPE svg PUBLIC "-//W3C//DTD SVG 1.1//EN" "http://www.w3.org/Graphics/SVG/1.1/DTD/svg11.dtd" >
<svg xmlns="http://www.w3.org/2000/svg" xmlns:xlink="http://www.w3.org/1999/xlink" version="1.1" viewBox="0 -36 256 256">
  <g transform="matrix(1 0 0 -1 0 220)">
   <path fill="currentColor"
d="M34 214v-127h28v127h-28zM20 82v100q0 25 -1 48l15 -9h28l7 9l14 -14l-8 -7v-114q0 -18 1 -36l-14 -8v29h-28v-24l-15 -7q1 15 1 33zM95 65v129q0 24 -1 45l14 -9h111l9 10l15 -14l-9 -7v-176q2 -29 -20 -34q-2 16 -30 20v4q21 -1 28.5 -1t7.5 9v182h-112v-207l-14 -7
q1 37 1 56zM149.5 198q6.5 -7 4.5 -14t-7 -10.5t-7 8.5t-11 29l3 2q11 -8 17.5 -15zM171 168q5 11 8.5 22.5t6.5 27.5l18 -13l-7 -4q-13 -24 -21 -33h15l10 9l14 -16h-68q-16 0 -25 -2l-9 9h58zM169.5 151q5.5 -5 6 -11t-5 -11.5t-8 6t-13.5 25.5l2 2q13 -6 18.5 -11z
M189 124l12 12l16 -19h-67v-38.5t5.5 -5.5h16.5q21 0 26 2t9.5 -6.5t-20.5 -8.5h-35q-15 -1 -15 18v39q-8 0 -17 -3l-9 10h78z" />
  </g>

</svg>
