<?xml version="1.0" standalone="no"?>
<!DOCTYPE svg PUBLIC "-//W3C//DTD SVG 1.1//EN" "http://www.w3.org/Graphics/SVG/1.1/DTD/svg11.dtd" >
<svg xmlns="http://www.w3.org/2000/svg" xmlns:xlink="http://www.w3.org/1999/xlink" version="1.1" viewBox="0 -205 1024 1024">
  <g transform="matrix(1 0 0 -1 0 819)">
   <path fill="currentColor"
d="M132 934q71 -37 104 -62q32 -24 46 -44q12 -21 12 -42q-1 -22 -14 -34q-11 -13 -28 -8q-17 3 -22 34q-4 29 -28 62q-24 30 -80 82l10 12v0v0zM32 608h148l34 44l54 -42q12 -7 12 -14q0 -3 -36 -32v-296q39 -65 94 -100q51 -35 114 -43l94 -2h292q95 6 164 12v-20
q-33 -6 -56 -12q-24 -5 -36 -34h-350q-90 3 -138 18q-49 12 -92 42q-42 26 -66 67q-25 39 -40 40q-16 1 -46 -40q-29 -42 -70 -125l-62 46q60 56 150 153v312h-86q-28 1 -52 -10l-26 36v0v0z" />
  </g>

</svg>
