<?xml version="1.0" standalone="no"?>
<!DOCTYPE svg PUBLIC "-//W3C//DTD SVG 1.1//EN" "http://www.w3.org/Graphics/SVG/1.1/DTD/svg11.dtd" >
<svg xmlns="http://www.w3.org/2000/svg" xmlns:xlink="http://www.w3.org/1999/xlink" version="1.1" viewBox="0 -200 999 1000">
  <g transform="matrix(1 0 0 -1 0 800)">
   <path fill="currentColor"
d="M945 66q-23 -5 -43.5 -14.5t-38.5 -20.5q-31 39 -58 81.5t-48 93t-34.5 111.5t-17.5 137l-8 -5q-14 -81 -28 -152t-36.5 -129.5t-57.5 -102.5t-90 -70l-6 11q37 33 64 77.5t46 100t31.5 123t21.5 147.5h-85l-44 -11l-20 35h155q5 66 5.5 122.5t2.5 104.5h-81l-43 -14
l-24 36h148v270l65 -38l-12 -63v-169h74l44 42l55 -65h-177q0 -38 -1 -94.5t-7 -131.5h111l41 42l58 -66l-190 -2q18 -76 38.5 -134.5t47.5 -103.5t62 -78t82 -58zM114 879h-8l-2 11q40 11 81.5 22t79.5 23.5t71 27.5t56 34l42 -65l-41 -6q-9 -2 -22 -4t-26.5 -4.5l-27 -5
t-23.5 -5.5l17 -22l-17 -49v-59h91l43 43l63 -66h-197v-104h85l38 39l55 -57l-36 -35v-264q-10 -12 -23 -18t-27 -11v47h-92v-110h79l42 44l60 -65h-181v-104l156 32l3 -16q-14 -5 -40 -14t-58.5 -20.5t-69 -24.5t-70 -25.5t-62 -23.5t-45.5 -19l-41 63q31 5 75 13t105 23
v116h-104l-60 -9l-17 30h181v110h-88v-33q-16 -22 -51 -28v402l60 -42h79v104h-128l-49 -9l-19 32h196v120q-45 -6 -77 -12t-56 -6zM294 625v-115h92v115h-92zM294 488v-113h92v113h-92zM168 625l-9 -28v-87h88v115h-79zM159 488v-113h88v113h-88z" />
  </g>

</svg>
