<?xml version="1.0" standalone="no"?>
<!DOCTYPE svg PUBLIC "-//W3C//DTD SVG 1.1//EN" "http://www.w3.org/Graphics/SVG/1.1/DTD/svg11.dtd" >
<svg xmlns="http://www.w3.org/2000/svg" xmlns:xlink="http://www.w3.org/1999/xlink" version="1.1" viewBox="0 -36 256 256">
  <g transform="matrix(1 0 0 -1 0 220)">
   <path fill="currentColor"
d="M29 163h19v50h-19v-50zM29 220h20l7 10l9 -11l-5 -6v-61l-12 -6v10h-19v-7l-13 -6q1 14 1 42.5t-1 44.5zM86 220h20l6 10l10 -10l-5 -7v-31q0 -19 1 -28l-13 -6v7h-18v-5l-13 -6q1 21 1 47.5t-1 37.5zM87 162h18v51h-18v-51zM91 131l13 11l14 -18h-43v-48h20l11 11
l16 -18h-47v-53l-13 -7v60h-31l-6 -7l-12 11l6 4q9 30 10 41l18 -9l-6 -5l-9 -28h30v48h-16q-11 0 -20 -2l-9 9h74zM135 220l12 -6h11q6 24 6 33l22 -8l-10 -5l-11 -20h38l8 10l15 -12l-7 -6q0 -36 1 -52l-14 -6v8h-57v-19h75l8 11l14 -18h-97v-19h78l8 9l11 -11l-6 -6
q-2 -46 -4.5 -60.5t-8.5 -22.5t-16 -11q0 11 -26 15v5q17 -1 25 -1t10 6.5t4 24.5t3 45h-78v-5l-14 -5q1 20 1 34v65q0 13 -1 27zM206 207h-57v-20h57v20zM206 180h-57v-17h57v17zM191.5 68.5q2.5 -8.5 -0.5 -13.5t-6.5 -5t-4 7.5t-3.5 16t-7 16.5l2 2q17 -15 19.5 -23.5z
M212 76.5q5 -7.5 2 -14.5t-7.5 -7.5t-4.5 6.5t-4 17t-7 15l3 2q13 -11 18 -18.5zM167 67q4 -9 1 -15.5t-7.5 -6.5t-4.5 9.5t-2 17t-4 14.5l2 2q11 -12 15 -21zM140 54q-2 -9 -9 -12.5t-10.5 1t3.5 12.5t9 15t3 16h4q2 -23 0 -32z" />
  </g>

</svg>
