<?xml version="1.0" standalone="no"?>
<!DOCTYPE svg PUBLIC "-//W3C//DTD SVG 1.1//EN" "http://www.w3.org/Graphics/SVG/1.1/DTD/svg11.dtd" >
<svg xmlns="http://www.w3.org/2000/svg" xmlns:xlink="http://www.w3.org/1999/xlink" version="1.1" viewBox="0 -36 256 256">
  <g transform="matrix(1 0 0 -1 0 220)">
   <path fill="currentColor"
d="M51 213.5q1 -9.5 -5 -15t-9 6.5t-17 32l3 3q27 -17 28 -26.5zM65 192q16 39 17 53l20 -11q-7 -5 -15 -16.5t-16 -25.5h20l11 11l14 -18h-48v-39h19l10 12l16 -19h-45v-40h23l11 13l17 -20h-51q-3 -24 -14 -43t-44 -43l-2 3q21 20 32 38.5t15 44.5h-19q-10 0 -18 -2l-10 9
h47v40h-12q-10 0 -19 -2l-8 9h39v39h-18q-10 0 -18 -2l-10 9h56zM149 199q-3 10 -5 21t-4 23l22 -7l-7 -6q0 -10 6 -30l54 7l8 11l18 -13l-78 -10q6 -17 15 -27q23 13 36 28l13 -15q-7 -2 -13.5 -4.5t-28.5 -16.5q22 -18 46 -19q4 18 6 26h4q-2 -13 -0.5 -21.5t6 -14.5
t-21.5 -2.5t-52 26.5q-26 -14 -56 -17l-1 4q29 7 50 21q-8 10 -15 31l-23 -3l-6 -4l-9 8zM236 53h4q-1 -16 1 -26t6 -14.5t-24 -0.5t-51 25q-33 -22 -76 -26v4q43 10 68 30q-11 17 -18 43l-26 -3l-6 -5l-9 9l40 4q-3 13 -6 43l21 -7l-6 -6q1 -14 4 -27l57 7l9 12l18 -14
l-83 -11q6 -25 17 -37q24 20 32 33l14 -15q-6 -2 -18 -10.5t-21 -16.5q21 -18 46 -21q2 9 7 30zM200 230q8 -6 3 -15.5t-10 0.5t-23 23l2 3q20 -5 28 -11zM194 128q11 -5 8 -16.5t-9 -3t-28 26.5l2 3q16 -5 27 -10z" />
  </g>

</svg>
