<?xml version="1.0" standalone="no"?>
<!DOCTYPE svg PUBLIC "-//W3C//DTD SVG 1.1//EN" "http://www.w3.org/Graphics/SVG/1.1/DTD/svg11.dtd" >
<svg xmlns="http://www.w3.org/2000/svg" xmlns:xlink="http://www.w3.org/1999/xlink" version="1.1" viewBox="0 -143 1024 1024">
  <g transform="matrix(1 0 0 -1 0 881)">
   <path fill="currentColor"
d="M284 949q15 -11 -3.5 -19t-24.5 -14t-11 -29t-27 -144h101l29 38l52 -39q14 -12 4 -20l-24 -17q-22 -149 -44 -236.5t-66 -167.5q59 -42 79.5 -62t26.5 -43t-4 -39t-25 -14t-27 26t-32 50t-40 46q-40 -66 -81 -112t-127 -110l-8 16q74 68 114 124t70 108q-66 58 -114 92
q24 124 63 332h-54q-23 0 -44 -12l-21 40h125q19 119 34 234zM234 325q40 76 59 163t36 227h-116q-43 -176 -77 -324q48 -34 98 -66zM874 576l27 30l62 -34q5 -5 5 -8q0 -7 -32 -30v-299l4 -148q1 -12 -16.5 -24t-36.5 -13v72h-385v-42q0 -13 -17.5 -24.5t-35.5 -13.5l4 207
v357l57 -30h364zM502 150h385v398h-385v-398zM423 784q54 80 104 188q64 -32 68 -38t1 -10t-19 -5t-43 -34t-79 -99q58 -44 82 -69t27 -49t-9 -37t-29 -10t-19 31t-16 52t-68 80zM605 796q44 74 94 178q64 -30 68 -36t1 -10t-19 -5t-43 -33t-69 -92q60 -44 87 -70t30 -50
t-9 -37t-29 -11t-21 31t-20 53t-70 82zM789 790q54 78 102 182q60 -36 64 -42t1 -10t-19 -5t-40 -30t-76 -93q64 -36 91 -61t32 -47t-6 -37t-26 -13t-24 30t-27 53t-72 73zM707 390q50 68 86 128l54 -40q8 -12 -6 -14q-20 -2 -45 -31t-55 -63q46 -32 71 -59t28 -49t-6 -33
t-22 -9t-27 28t-29 46t-43 46q-56 -64 -166 -144l-10 12q88 84 146 154q-58 52 -132 100l8 12q84 -34 148 -84z" />
  </g>

</svg>
