<?xml version="1.0" standalone="no"?>
<!DOCTYPE svg PUBLIC "-//W3C//DTD SVG 1.1//EN" "http://www.w3.org/Graphics/SVG/1.1/DTD/svg11.dtd" >
<svg xmlns="http://www.w3.org/2000/svg" xmlns:xlink="http://www.w3.org/1999/xlink" version="1.1" viewBox="0 -205 1024 1024">
  <g transform="matrix(1 0 0 -1 0 819)">
   <path fill="currentColor"
d="M364 558q6 -6 4 -8q3 -3 -6 -8q-27 -2 -44 -22q-16 -21 -70 -102v-270l4 -95q0 -12 -20 -28q-21 -16 -36 -14l4 131v224q-45 -61 -126 -122l-10 10q77 84 140 180q62 96 94 162l66 -38v0v0zM668 562q6 -6 0 -12q-3 -5 -36 -16l-8 -128h210l38 48l56 -56q6 -15 -8 -18
h-256q20 -73 52 -128q32 -54 98 -108q66 -52 138 -65v-18q-25 0 -52 -4q-27 -5 -44 -28q-84 67 -120 117q-35 47 -58 98q-24 50 -36 136h-20q-9 -100 -48 -166q-37 -66 -94 -113q-55 -46 -178 -90l-6 18q108 48 162 104q53 52 80 115q26 63 34 132h-164q-32 0 -64 -8l-20 34
h250l6 186l88 -30v0v0zM702 540l6 12q72 -28 90 -46q18 -19 18 -34q0 -16 -8 -28q-6 -10 -24 -10q-15 0 -20 22q-6 21 -14 36q-6 15 -48 48v0v0zM60 928h772l36 50l66 -58q3 -3 4 -8q0 -12 -12 -12h-276v-100h152l32 42l64 -44q6 -6 6 -8q0 -6 -30 -32v-74l4 -72
q0 -9 -20 -24q-19 -12 -34 -12v36h-634v-10q-1 -12 -22 -24q-19 -10 -34 -10l4 94v170l46 -32h184v100h-224q-21 0 -56 -8l-28 36v0v0zM190 640h178v132h-178v-132v0v0zM420 640h178v132h-178v-132v0v0zM650 640h174v132h-174v-132v0v0zM598 800v100h-178v-100h178v0v0z" />
  </g>

</svg>
