<?xml version="1.0" standalone="no"?>
<!DOCTYPE svg PUBLIC "-//W3C//DTD SVG 1.1//EN" "http://www.w3.org/Graphics/SVG/1.1/DTD/svg11.dtd" >
<svg xmlns="http://www.w3.org/2000/svg" xmlns:xlink="http://www.w3.org/1999/xlink" version="1.1" viewBox="0 -36 256 256">
  <g transform="matrix(1 0 0 -1 0 220)">
   <path fill="currentColor"
d="M26 235q33 -20 34.5 -31.5t-4.5 -18t-11 10t-22 36.5zM34.5 97q8.5 1 39.5 103l5 -2q-29 -103 -30 -111t0 -25t2 -29.5t-6 -12t-12 5.5t-2.5 12.5t4.5 23t-3.5 21.5t-21.5 10l1 5q15 -2 23.5 -1zM138 231l-6 -4q-27 -42 -53 -62l-2 3q31 38 43 75zM69 100l-4 3
q23 23 36 46.5t18 39.5l17 -13l-7 -6q-5 -9 -20 -31l10 -6l-6 -6v-71q0 -20 1 -39l-15 -8q1 22 1 44v77q-6 -9 -31 -30zM195.5 214q5.5 -10 -2.5 -19t-11 6t-21 40l3 3q26 -20 31.5 -30zM212 185l13 12l18 -19h-50v-65h17l11 12l17 -19h-45v-77h24l12 12l19 -19h-92
q-11 0 -20 -2l-9 9h52v77h-15q-10 0 -19 -2l-9 9h43v65h-15q-10 -1 -19 -3l-9 10h76z" />
  </g>

</svg>
