<?xml version="1.0" standalone="no"?>
<!DOCTYPE svg PUBLIC "-//W3C//DTD SVG 1.1//EN" "http://www.w3.org/Graphics/SVG/1.1/DTD/svg11.dtd" >
<svg xmlns="http://www.w3.org/2000/svg" xmlns:xlink="http://www.w3.org/1999/xlink" version="1.1" viewBox="0 -36 256 256">
  <g transform="matrix(1 0 0 -1 0 220)">
   <path fill="currentColor"
d="M56 121q-5 -11 -5 -27.5t-1 -21.5t-11 2t-3.5 21t2 21t-21.5 13v4q20 -4 24.5 -3.5t11 6.5t33.5 63l4 -2q-28 -65 -33 -76zM53.5 169.5q1.5 -9.5 -4.5 -15.5t-10 8.5t-20 31.5l3 3q30 -18 31.5 -27.5zM71 214q3 -8 -3.5 -15.5t-10 5.5t-20.5 31l2 3q29 -16 32 -24z
M112 197h40q1 33 0 48l25 -10l-10 -5q0 -18 -1 -33h47l8 12l18 -18q-14 -2 -28 -27l-4 2l8 24h-50q-6 -48 -25.5 -73.5t-59.5 -43.5l-2 4q32 17 50.5 45t22.5 68h-39q0 -17 -7 -23.5t-13.5 -3.5t3.5 15t11 33h5zM160 159l23 -10l-8 -6v-41q0 -15 9 -14h31q7 -1 8 13.5
t1 26.5h6q0 -37 13 -40q-9 -13 -24 -12h-44q-15 2 -14 18q0 47 -1 65zM44 23q-5 -9 -10.5 -11t-14.5 -0.5t5 13t21 38.5h4q0 -31 -5 -40zM112 33.5q3 -11.5 -5.5 -19.5t-9.5 7.5t-11 43.5l4 1q19 -21 22 -32.5zM171 38.5q6 -11.5 -3 -21t-11 8t-15 39.5l3 2q20 -17 26 -28.5
zM234.5 41q9.5 -11 2 -23.5t-13 5.5t-24.5 42l3 2q23 -15 32.5 -26z" />
  </g>

</svg>
