<?xml version="1.0" standalone="no"?>
<!DOCTYPE svg PUBLIC "-//W3C//DTD SVG 1.1//EN" "http://www.w3.org/Graphics/SVG/1.1/DTD/svg11.dtd" >
<svg xmlns="http://www.w3.org/2000/svg" xmlns:xlink="http://www.w3.org/1999/xlink" version="1.1" viewBox="0 -36 256 256">
  <g transform="matrix(1 0 0 -1 0 220)">
   <path fill="currentColor"
d="M165 244l24 -13l-8 -3q-49 -90 -84 -115l-2 4q49 57 70 127zM191 92l3 3q42 -36 47.5 -51t-2 -23.5t-9.5 -2.5t-11 25q-41 -4 -68 -9.5t-37 -12.5l-14 22q9 3 23 19.5t36.5 52.5t33.5 73l23 -15l-9 -6q-62 -100 -88 -123q24 0 97 6q-6 17 -25 42zM109 73l1 -4
q-86 -39 -86 -47l-12 19q27 8 40 13v77h-7q-10 0 -20 -3l-9 10h36v71h-10q-10 -1 -20 -3l-9 10h68l13 14l18 -21h-46v-71h13l12 13l16 -20h-41v-73z" />
  </g>

</svg>
