<?xml version="1.0" standalone="no"?>
<!DOCTYPE svg PUBLIC "-//W3C//DTD SVG 1.1//EN" "http://www.w3.org/Graphics/SVG/1.1/DTD/svg11.dtd" >
<svg xmlns="http://www.w3.org/2000/svg" xmlns:xlink="http://www.w3.org/1999/xlink" version="1.1" viewBox="0 -36 256 256">
  <g transform="matrix(1 0 0 -1 0 220)">
   <path fill="currentColor"
d="M116 140l-14 -5v11h-61q-10 -1 -20 -3l-9 10h90v26h-51q-10 -1 -19 -3l-10 10h80v25h-60q-10 -1 -20 -3l-9 10h88l6 10l15 -12l-7 -8q0 -55 1 -68zM116 38l-14 -5v11h-61q-10 -1 -20 -3l-9 10h90v26h-51q-10 -1 -19 -3l-10 10h80v25h-60q-10 -1 -20 -3l-9 10h88l6 10
l15 -12l-7 -8q0 -55 1 -68zM175 176q2 -7 -2.5 -13t-9.5 6t-12 19q-13 -12 -23 -18l-1 3q17 18 27 37.5t14 33.5l18 -11l-7 -5l-10 -16h48l8 9l13 -14l-8 -5q-19 -30 -44.5 -49t-62.5 -29l-1 4q41 17 62.5 38.5t30.5 38.5h-49q-8 -8 -12 -13q19 -9 21 -16zM159 93
q17 -14 19.5 -22t-3.5 -14.5t-8.5 6.5t-10.5 27q-13 -12 -31 -21l-2 3q20 16 34.5 36.5t21.5 39.5l18 -14l-8 -4l-11 -14h46l8 9l14 -14l-9 -8q-23 -49 -56 -69t-71 -27l-1 4q37 10 66 32t48 66h-49q-6 -7 -15 -16z" />
  </g>

</svg>
