<?xml version="1.0" standalone="no"?>
<!DOCTYPE svg PUBLIC "-//W3C//DTD SVG 1.1//EN" "http://www.w3.org/Graphics/SVG/1.1/DTD/svg11.dtd" >
<svg xmlns="http://www.w3.org/2000/svg" xmlns:xlink="http://www.w3.org/1999/xlink" version="1.1" viewBox="0 -205 1024 1024">
  <g transform="matrix(1 0 0 -1 0 819)">
   <path fill="currentColor"
d="M548 736l54 -34h104v110h-134q-34 -3 -52 -12l-28 38h214v140l80 -26q6 -2 4 -10q0 -3 -6 -6l-28 -14v-84h110l36 38l56 -48q6 -13 -8 -16h-194v-110h96l28 32l62 -42l4 -8q0 -6 -30 -26v-212l4 -34q-1 -13 -16 -22q-15 -8 -36 -10v32h-112v-116h140l34 42l58 -46
q15 -16 0 -22h-232v-84l4 -44q-1 -14 -22 -27t-36 -14l4 81v88h-144q-24 -4 -54 -10l-24 36h222v116h-108v-2q1 -12 -16 -24q-16 -9 -38 -12l4 68v294v0v0zM598 438h108v112h-108v-112v0v0zM756 550v-112h112v112h-112v0v0zM598 576h108v100h-108v-100v0v0zM756 676v-100
h112v100h-112v0v0zM360 906q46 -33 68 -56q21 -21 34 -48q12 -24 10 -44q0 -18 -12 -30q-11 -10 -28 -8q-18 3 -20 36q-1 31 -10 56q-7 27 -52 84l10 10v0v0zM300 540h106l22 32l50 -34q12 -9 12 -14q0 -3 -32 -26v-336q50 -47 92 -63q41 -14 104 -22q126 0 174 2
q45 4 178 16v-20q-43 -3 -62 -16q-18 -11 -26 -34h-204q-78 7 -110 16q-34 10 -64 22q-31 12 -62 42q-30 30 -44 32q-16 2 -46 -30q-30 -29 -60 -80l-50 44q51 40 132 93v348h-38q-24 1 -48 -10l-24 38v0v0zM80 880l54 -40h96l28 38l50 -36q12 -6 12 -14q0 -4 -30 -26v-402
l4 -100q0 -12 -14 -24q-15 -13 -38 -16v88h-114v-84q0 -12 -18 -24q-19 -12 -34 -12l4 126v526v0v0zM128 378h114v432h-114v-432v0v0z" />
  </g>

</svg>
