<?xml version="1.0" standalone="no"?>
<!DOCTYPE svg PUBLIC "-//W3C//DTD SVG 1.1//EN" "http://www.w3.org/Graphics/SVG/1.1/DTD/svg11.dtd" >
<svg xmlns="http://www.w3.org/2000/svg" xmlns:xlink="http://www.w3.org/1999/xlink" version="1.1" viewBox="0 -339 2048 2048">
  <g transform="matrix(1 0 0 -1 0 1709)">
   <path fill="currentColor"
d="M1116 1521q53 96 86 192q36 105 58 230l145 -54q20 -7 26 -21q3 -5 3 -9q0 -6 -6 -14q-10 -14 -32 -18l-50 -10q-27 -63 -51 -107q-46 -87 -83 -139q-14 -21 -39 -50h362l62 76l83 -55q27 -17 34 -28q6 -10 6 -20q0 -16 -11 -26q-13 -11 -31 -20q-15 -7 -35 -16v-1171
q0 -36 15 -46q12 -9 30 -9h50h45q29 0 50 34q16 27 34 121q2 12 27 156l15 91l38 -4q-6 -63 -8 -94q-7 -124 -7 -130q-8 -67 -8 -96q0 -31 15 -52q7 -9 23 -23q12 -10 19 -19q6 -8 6 -19q0 -15 -15 -27q-31 -23 -117 -26q-101 -3 -147 -3q-61 0 -90 7q-70 16 -70 73v1272
h-483v-274q99 -64 160 -106q97 -68 145 -117q60 -63 78 -114q7 -19 7 -32q0 -17 -9 -33q-6 -10 -17 -16q-11 -7 -23 -7q-17 0 -33 12q-18 13 -50 72q-27 48 -71 106q-47 62 -108 120q-26 24 -79 70v-152l-4 -66q-13 -195 -15 -215q-19 -162 -96 -306q-69 -126 -165 -213
q-38 -34 -81 -65q-20 -15 -56 -39l-24 26q92 84 137 138q138 166 179 391q15 82 24 243q6 106 6 163v353q0 5 -8 107q-2 27 -4 80l122 -72h36zM407 1471v311q0 115 -8 159l109 -24q60 -13 73 -23t13 -23q0 -25 -50 -41l-41 -13v-346h116l100 102l120 -107q10 -8 12 -10t3 -6
q3 -6 3 -9q0 -10 -6 -17q-8 -10 -22 -10h-326v-190q105 -68 173 -133q56 -54 79 -105q13 -30 13 -57q0 -40 -27 -58q-14 -9 -27 -9q-16 0 -29 12q-11 9 -16 20q-6 14 -13 39q-20 68 -56 124q-21 32 -49 64q-21 23 -48 51v-793q0 -35 5 -117q5 -75 8 -102q3 -33 3 -50
q0 -22 -11 -33q-13 -13 -44 -13q-28 0 -41 11q-16 12 -16 31v1076q-58 -127 -78 -168q-62 -131 -151 -260q-31 -46 -60 -82q-14 -16 -39 -45l-24 22q85 146 129 235q93 188 147 372q14 45 41 158h-123q-38 0 -98 -5q-18 -2 -51 -6l-39 86q75 -11 87 -12q16 -2 51 -4
q34 -2 50 -2h158z" />
  </g>

</svg>
