<?xml version="1.0" standalone="no"?>
<!DOCTYPE svg PUBLIC "-//W3C//DTD SVG 1.1//EN" "http://www.w3.org/Graphics/SVG/1.1/DTD/svg11.dtd" >
<svg xmlns="http://www.w3.org/2000/svg" xmlns:xlink="http://www.w3.org/1999/xlink" version="1.1" viewBox="0 -36 256 256">
  <g transform="matrix(1 0 0 -1 0 220)">
   <path fill="currentColor"
d="M74 121l-12 -6v91h-18q-10 0 -19 -2l-9 9h46q0 13 -1 31l19 -9l-6 -6v-16h22l10 9l12 -16h-44v-85zM95 203l15 -10l-9 -4l-4 -9q14 -6 18 -11.5t0.5 -12.5t-6.5 1.5t-13 19.5q-5 -10 -15 -20l-3 2q10 18 17 44zM64 151q-24 -27 -55 -43l-1 3q34 27 56 60v-20zM92 37
q3 -7 -0.5 -14t-9 3t-11.5 19q-28 -25 -62 -35l-1 3q37 18 55 40q-12 14 -26 25l2 3q21 -11 31 -19q8 12 17 35h-36q-14 -18 -39 -36l-2 3q33 33 39 59l17 -10l-5 -2l-6 -7h31l8 8l13 -12l-7 -5q-12 -29 -21 -41q10 -10 13 -17zM106 140.5q9 -7.5 6 -19t-10.5 3t-29.5 29.5
v3q25 -9 34 -16.5zM34 201l15 -11l-6 -4l-6 -7q10 -6 13 -10.5t-0.5 -10t-5.5 2.5t-8 15q-7 -14 -18 -25l-3 2q13 20 19 48zM188 88q-21 -19 -53 -33l-2 3q29 17 50 41l-6 10q-18 -15 -37 -22l-1 3q26 17 37 33h-40q-1 -21 -3.5 -38t-10 -36t-26.5 -39l-3 2q18 28 24.5 57
t6.5 65.5t-1 76.5l14 -8h33q0 37 -1 44l20 -9l-6 -5v-9h30l9 11l15 -18h-54v-14h45l7 7l12 -13q-6 -3 -11 -7t-11 -12l-3 1l7 17h-56l17 -7l-7 -5v-9l18 1l8 10l13 -16l-39 -2v-9q0 -7 9 -7h25q7 -1 8 6t1 15h3q1 -7 2 -12t6 -8q-4 -7 -8.5 -9t-9.5 -2h-34q-14 0 -14 12v13
l-17 -1l-8 -4l-8 10l33 2q0 19 -1 22h-34v-66h85l11 13l16 -20h-57l-10 -10q8 -9 13 -19q20 11 29 24l13 -14q-13 -2 -28 -11q8 -17 16 -30t22 -20v-3q-13 -1 -16 -7q-9 7 -16 25t-11 33l-7 -3q10 -21 11 -39t-3.5 -27t-22.5 -14q1 10 -22 17v4q24 -2 29 -1t6.5 11t-1.5 23
q-12 -12 -26.5 -19.5t-33.5 -14.5l-1 3q34 17 59 46q-1 5 -3 11z" />
  </g>

</svg>
