<?xml version="1.0" standalone="no"?>
<!DOCTYPE svg PUBLIC "-//W3C//DTD SVG 1.1//EN" "http://www.w3.org/Graphics/SVG/1.1/DTD/svg11.dtd" >
<svg xmlns="http://www.w3.org/2000/svg" xmlns:xlink="http://www.w3.org/1999/xlink" version="1.1" viewBox="0 -36 256 256">
  <g transform="matrix(1 0 0 -1 0 220)">
   <path fill="currentColor"
d="M75.5 38q6.5 0 6.5 12v61h-42q-1 -36 -7.5 -56.5t-22.5 -42.5l-3 2q9 21 13.5 42.5t5 43t0.5 66.5t-1 68l16 -8h39l9 11l15 -14l-8 -7v-169q2 -24 -21 -31q-1 13 -28 20v4q22 -2 28.5 -2zM40 174h42v45h-42v-45zM40 118h42v49h-42v-49zM228 193h-109q1 -9 -1 -14.5
t-9.5 -6.5t-9 2.5t4.5 9.5t9 26h4l1 -10h45q0 19 -1 46l21 -9l-8 -7v-30h51l8 8l13 -13q-7 0 -25 -22l-4 2zM141 158h55v18h-55v-18zM209 151l-13 -7v7h-55v-3l-13 -4q1 14 1 22.5t-1 21.5l13 -5h54l6 6l12 -10l-5 -5q0 -12 1 -23zM116 113.5q0 19.5 -1 32.5l13 -8h83l6 7
l14 -10l-7 -6q0 -19 1 -39l-13 -3v3h-38v-12h33l10 8l12 -15h-55v-13h43l13 10l15 -17h-119q-10 0 -19 -2l-9 9h64v13h-24q-10 0 -19 -2l-9 9h52v12h-35v-2l-13 -4q2 10 2 29.5zM128 97h34v34h-34v-34zM174 97h38v34h-38v-34zM153.5 117q3.5 -6 2 -10.5t-6 -5t-6 8
t-8.5 17.5l2 2q13 -6 16.5 -12zM208 119q-12 -4 -27 -18l-3 2q10 16 14 27zM115.5 24.5q-1.5 -9.5 -7 -12.5t-12.5 -1t3 11.5t13 23.5h4q1 -12 -0.5 -21.5zM160.5 26.5q2.5 -6.5 0 -10.5t-7.5 -6t-6.5 8.5t-11.5 26.5l3 2q20 -14 22.5 -20.5zM198.5 31q5.5 -6 5 -12t-6 -9
t-9.5 9t-15 26l2 2q18 -10 23.5 -16zM239.5 32.5q6.5 -6.5 5.5 -12.5t-5.5 -9.5t-8 8t-16.5 26.5l2 2q16 -8 22.5 -14.5zM146.5 223.5q5.5 -6.5 4 -12t-6 -7t-9 8t-18.5 22.5l2 3q22 -8 27.5 -14.5zM208.5 217q-7.5 -6 -16.5 -13l-4 2q16 19 23 36l17 -13q-12 -6 -19.5 -12z
" />
  </g>

</svg>
