<?xml version="1.0" standalone="no"?>
<!DOCTYPE svg PUBLIC "-//W3C//DTD SVG 1.1//EN" "http://www.w3.org/Graphics/SVG/1.1/DTD/svg11.dtd" >
<svg xmlns="http://www.w3.org/2000/svg" xmlns:xlink="http://www.w3.org/1999/xlink" version="1.1" viewBox="0 -205 1024 1024">
  <g transform="matrix(1 0 0 -1 0 819)">
   <path fill="currentColor"
d="M552 972l60 -42h226l30 40l60 -48q6 -6 6 -8q0 -7 -32 -28v-216l4 -62q0 -16 -14 -26q-13 -9 -40 -8v38h-248v-10q-1 -15 -16 -26q-16 -9 -40 -12l4 84v324v0v0zM604 640h248v118h-248v-118v0v0zM604 784h248v118h-248v-118v0v0zM454 518h460l34 38l60 -46q2 -3 2 -8
q1 -12 -10 -12h-248v-148h102l34 42l60 -54q2 -4 2 -8q0 -9 -6 -8h-192v-179q65 -12 184 -12h68v-20q-36 0 -56 -6q-18 -6 -26 -34q-32 0 -94 8q-63 6 -108 24q-46 16 -82 46q-34 28 -76 119q-21 -93 -66 -149q-45 -54 -90 -84l-8 12q60 57 96 139q35 80 46 254l80 -26
q7 -11 -4 -16q-28 -9 -32 -36q-4 -25 -14 -70q35 -54 62 -86q27 -30 70 -48v340h-178q-21 1 -44 -10l-26 38v0v0zM260 948q6 -4 6 -10q0 -4 -8 -8q-18 -6 -30 -24q-9 -15 -26 -48h112l28 34l56 -40q6 -3 6 -8q-1 -9 -16 -12q-12 -3 -30 -18t-96 -120h104l34 34l50 -38
q7 -4 8 -10q0 -6 -30 -24v-519q0 -39 -14 -58q-15 -19 -50 -26q-10 33 -26 42q-15 9 -48 24l4 14q51 -14 64 -16q11 0 20 6q7 6 6 26v197h-100v-80l4 -70q1 -15 -16 -26q-15 -11 -38 -16l4 102v90h-98q-7 -112 -40 -190q-33 -76 -78 -127l-12 8q50 79 70 177q22 99 20 240
v230q-26 -45 -76 -92l-10 8q30 36 90 154q59 117 92 222l64 -28v0v0zM144 372h94v136h-92q0 -70 -2 -136v0v0v0zM284 372h98v136h-98v-136v0v0zM146 534h92v134h-92v-134v0v0zM284 668v-134h98v134h-98v0v0zM140 694h98l78 140h-126q-39 -72 -68 -122l18 -18v0v0z" />
  </g>

</svg>
