<?xml version="1.0" standalone="no"?>
<!DOCTYPE svg PUBLIC "-//W3C//DTD SVG 1.1//EN" "http://www.w3.org/Graphics/SVG/1.1/DTD/svg11.dtd" >
<svg xmlns="http://www.w3.org/2000/svg" xmlns:xlink="http://www.w3.org/1999/xlink" version="1.1" viewBox="0 -36 256 256">
  <g transform="matrix(1 0 0 -1 0 220)">
   <path fill="currentColor"
d="M201 179v-7h-53v7h53zM118 208h-80q0 -8 -4.5 -13t-10 -5.5t-8 2t6 9.5t12.5 21h4v-7h80v14h-49q-12 -1 -21 -3l-10 10h148l15 9l19 -16h-87v-14h87l6 8l16 -12q-11 -2 -28 -20l-4 1l10 16h-87q0 -21 1 -30l-17 -4q1 9 1 34zM102 198v-7h-50v7h50zM199 198v-7h-51v7h51z
M102 179v-7h-52v7h52zM161 37q21 14 26 21h-55q10 -12 29 -21zM109 178q18 -4 22.5 -8.5t-1.5 -12.5h81l11 10l16 -17h-192q-11 0 -21 -2l-10 9h105q-2 9 -13 18zM64 124h39v12h-39v-12zM148 124h41v12h-41v-12zM83 117h-19v-2l-14 -4q1 9 1 17.5t-1 20.5l14 -6h38l6 7
l13 -9l-6 -7v-16l-12 -6v5h-17l16 -4l-6 -5v-5h61v14h-9v-3l-12 -3q1 9 1 17.5t-1 20.5l12 -6h40l6 7l13 -9l-5 -6q0 -9 1 -17l-14 -6v5h-29l17 -6l-8 -3v-5h33l11 9l16 -16h-60v-11h18l12 8l15 -15h-45v-13h42l12 9l16 -16h-47l12 -10l-7 -1q-14 -5 -31 -13q26 -9 73 -10
v-3q-14 -3 -18 -13q-37 6 -59 17t-39 33h-8q-11 -6 -20 -13v-23l45 12l1 -3q-21 -8 -35 -15t-20 -11l-8 12q4 3 4 11v12q-7 -5 -22 -10t-44 -11l-1 4q28 8 46.5 17t30.5 18h-44q-11 0 -21 -2l-10 9h66v13h-10q-12 0 -21 -3l-9 10h40v11h-26q-10 -1 -20 -3l-10 10h56v14z
M96 85h61v11h-61v-11zM96 65h61v13h-61v-13z" />
  </g>

</svg>
