<?xml version="1.0" standalone="no"?>
<!DOCTYPE svg PUBLIC "-//W3C//DTD SVG 1.1//EN" "http://www.w3.org/Graphics/SVG/1.1/DTD/svg11.dtd" >
<svg xmlns="http://www.w3.org/2000/svg" xmlns:xlink="http://www.w3.org/1999/xlink" version="1.1" viewBox="0 -205 1024 1024">
  <g transform="matrix(1 0 0 -1 0 819)">
   <path fill="currentColor"
d="M464 528h178v90h-178v-90v0v0zM692 618v-90h176v90h-176v0v0zM464 644h178v90h-178v-90v0v0zM692 734v-90h176v90h-176v0v0zM848 760l38 36l52 -38q8 -3 8 -12q0 -7 -26 -22v-234l4 -58q-3 -13 -20 -26q-18 -10 -36 -14v110h-176v-58q-1 -12 -16 -20q-19 -7 -34 -8v86
h-178v-78q0 -13 -20 -26q-18 -13 -36 -14l4 136v278l56 -38h380v0v0zM840 968q53 -54 56 -60q3 -3 -2 -6q-4 -3 -22 -6q-19 -3 -40 -14q-18 -10 -132 -76q9 -16 0 -28t-24 -12q-16 2 -28 20q-13 18 -34 36q-18 19 -66 44l6 12q45 -12 82 -26q36 -12 54 -30q48 36 102 84
h-326q-16 1 -46 -10l-22 36h400l42 36v0v0zM568 304h-132q-21 0 -54 -6l-20 32h212q10 36 14 88l80 -26q7 -9 2 -12q-6 -3 -30 -12l-14 -38h246l24 36q57 -40 60 -46t0 -8q-3 -4 -30 -22q-4 -69 -14 -122q-10 -52 -32 -83q-22 -30 -76 -48q-4 30 -32 44q-27 15 -90 36l6 18
q54 -15 90 -22q35 -6 56 6q18 11 30 61q11 50 14 124h-258q-27 -102 -96 -171q-67 -70 -232 -108l-4 16q152 52 206 117q53 65 74 146v0v0zM94 878l56 -40h110l32 40l54 -38q12 -6 12 -14q-1 -3 -34 -30v-410l4 -100q0 -12 -14 -24q-16 -13 -40 -16v88h-130v-108
q0 -12 -20 -24q-19 -12 -34 -12l4 150v538v0v0zM144 364h130v444h-130v-444v0v0z" />
  </g>

</svg>
