<?xml version="1.0" standalone="no"?>
<!DOCTYPE svg PUBLIC "-//W3C//DTD SVG 1.1//EN" "http://www.w3.org/Graphics/SVG/1.1/DTD/svg11.dtd" >
<svg xmlns="http://www.w3.org/2000/svg" xmlns:xlink="http://www.w3.org/1999/xlink" version="1.1" viewBox="0 -205 1024 1024">
  <g transform="matrix(1 0 0 -1 0 819)">
   <path fill="currentColor"
d="M356 914l8 10q51 -24 82 -50q30 -24 34 -48q3 -21 -8 -36q-9 -14 -26 -12t-22 28q-3 24 -18 48q-13 24 -50 60v0v0zM558 878l20 -6q-91 -229 -100 -256q-10 -25 -8 -64q2 -37 4 -50t2 -32q1 -17 -10 -28q-9 -9 -24 -6q-15 2 -20 20q-7 15 2 42q5 26 8 52q1 25 -4 38
q-6 12 -26 24q-19 10 -58 20l4 16q60 -10 78 -8q15 2 28 26q13 23 104 212v0v0zM726 922q-15 -1 -60 -94h226l30 30q57 -60 58 -68q0 -6 -14 -6q-12 0 -48 -26q-33 -27 -74 -96l-18 10l64 130h-238q-42 -81 -110 -174l-18 10q59 99 94 186q35 86 56 152q69 -34 72 -40t0 -8
q-1 -3 -20 -6v0v0zM702 776q77 -25 80 -32t-2 -10t-16 -6q-9 -3 -26 -32q40 -97 86 -146q44 -47 80 -64q33 -18 90 -30v-18q-37 1 -52 -4q-13 -6 -32 -26q-43 32 -80 70q-36 36 -60 78q-24 40 -42 98q-35 -111 -100 -168q-64 -57 -220 -116l-10 16q129 60 184 108
q51 48 82 118q28 68 38 164v0v0zM464 388l56 -14h308l32 36l50 -38q12 -6 12 -14q0 -6 -30 -24v-162l2 -89q2 -16 -16 -26q-15 -13 -36 -14v66h-328v-26q0 -13 -20 -26q-19 -9 -34 -10l4 121v220v0v0zM514 137h328v209h-328v-209v0v0zM44 748h156v232l82 -32q12 -4 0 -14
l-34 -18v-168h60l26 48l60 -56q3 -3 4 -8q0 -12 -14 -12h-136v-94q62 -31 86 -46q21 -13 34 -34q12 -22 4 -40q-9 -19 -26 -20q-18 -1 -26 26q-6 24 -24 46q-15 21 -48 48v-420l4 -107q0 -14 -20 -26q-18 -12 -36 -12l4 147v396q-24 -78 -60 -152q-34 -73 -100 -160l-14 10
q48 92 78 158q27 66 48 138q20 69 38 142h-78q-6 0 -48 -8l-20 36v0v0z" />
  </g>

</svg>
