<?xml version="1.0" standalone="no"?>
<!DOCTYPE svg PUBLIC "-//W3C//DTD SVG 1.1//EN" "http://www.w3.org/Graphics/SVG/1.1/DTD/svg11.dtd" >
<svg xmlns="http://www.w3.org/2000/svg" xmlns:xlink="http://www.w3.org/1999/xlink" version="1.1" viewBox="0 -36 256 256">
  <g transform="matrix(1 0 0 -1 0 220)">
   <path fill="currentColor"
d="M37 213h85v15h-48q-17 0 -24 -2l-10 9h156l13 9l17 -16h-90v-15h88l7 7l16 -10q-6 -2 -12.5 -6.5t-17.5 -14.5l-3 1l10 16h-88q0 -26 1 -40l-16 -4q1 16 1 44h-85q0 -15 -8 -19.5t-14 -1.5t-1 7.5t10 10t8 17.5h5v-7zM52 199v3q29 -4 39.5 -7t8.5 -10.5t-13.5 0
t-34.5 14.5zM46 158l-11 10q37 6 71 13l3 -2q-58 -17 -63 -21zM148 180l2 3q46 -5 56.5 -10.5t6 -11t-15 2t-49.5 16.5zM155 184l-1 3q29 8 45 19l11 -12h-6q-32 -7 -49 -10zM16 101l-1 4q18 9 34 23q-9 9 -26 20l3 3q20 -8 32 -16q12 10 27 27l18 -15h-10q-14 -10 -28 -21
q27 -30 23 -67t-34 -49q-2 12 -22 17v4q22 -4 29.5 1.5t10 20t-1.5 37.5q-21 -25 -54 -42l-2 3q36 30 49 54q-2 6 -9 15q-14 -10 -38 -19zM194 96l13 -13l-9 -5v-14q15 9 21 17l11 -11q-9 0 -26 -8q11 -4 16 -6t2.5 -10t-8 -1t-16.5 16q0 -10 6.5 -21.5t19.5 -14.5l6 20
l5 -1q-3 -11 -3 -19.5t2 -15.5q-25 3 -38.5 19t-10.5 53h-61v7h62zM210 124q15 0 20.5 -2t4.5 -8.5t-7.5 -2t-18.5 9.5l-4 -1q2 -15 14 -23l5 14l3 -1q0 -8 0.5 -13t3.5 -9.5t0.5 -7t-15.5 4t-20 20.5t-7 37h-65v7h65l8 10l14 -12l-8 -6l1 -16q18 18 21 25l13 -10
q-8 -1 -28 -16zM127 149v-68q-1 -42 -39 -73l-3 3q28 32 28 70v40q0 21 -1 36l17 -8h-2z" />
  </g>

</svg>
