<?xml version="1.0" standalone="no"?>
<!DOCTYPE svg PUBLIC "-//W3C//DTD SVG 1.1//EN" "http://www.w3.org/Graphics/SVG/1.1/DTD/svg11.dtd" >
<svg xmlns="http://www.w3.org/2000/svg" xmlns:xlink="http://www.w3.org/1999/xlink" version="1.1" viewBox="0 -36 256 256">
  <g transform="matrix(1 0 0 -1 0 220)">
   <path fill="currentColor"
d="M175 163h30v34h-30v-34zM162 207l10 -3h12v25h-32v-106h32v33h-9v-4l-13 -4v59zM151 236h58l11 8l14 -15h-37v-25h9l5 8l14 -12l-7 -6v-40l-13 -4v6h-8v-33h14l12 10l16 -17h-86l-10 -5l-11 12l6 3v93q0 10 -1 19zM117 114l-14 -5v7h-49q-11 0 -20 -2l-9 9h31v30h-11
l-13 -3v50l13 -2h10v29h-3q-11 -1 -20 -3l-9 10h79l7 9l16 -11l-8 -7v-111zM78 191h-32v-31h32v31zM91 152l-13 -4v5h-9v-30h34v104h-35v-29h11l5 6l13 -9l-6 -5v-38zM174 15l-15 -6v63h-68q-2 -42 -67 -64l-1 4q52 25 53 60h-37q-10 0 -19 -2l-10 9h67v33l22 -9l-7 -8v-16
h67v33l23 -9l-8 -7v-17h41l14 12l19 -19h-74v-57z" />
  </g>

</svg>
