<?xml version="1.0" standalone="no"?>
<!DOCTYPE svg PUBLIC "-//W3C//DTD SVG 1.1//EN" "http://www.w3.org/Graphics/SVG/1.1/DTD/svg11.dtd" >
<svg xmlns="http://www.w3.org/2000/svg" xmlns:xlink="http://www.w3.org/1999/xlink" version="1.1" viewBox="0 -36 256 256">
  <g transform="matrix(1 0 0 -1 0 220)">
   <path fill="currentColor"
d="M50 64v98q-21 -27 -38 -42l-2 3q13 16 22.5 31t24.5 43t22 48l18 -15q-5 -2 -14.5 -16t-22.5 -37l12 -8l-8 -7v-146l-15 -7q1 27 1 55zM171 45q0 -16 1 -30l-16 -6q1 24 1 44v111h-43v-103l-15 -9q1 18 1 62.5t-1 65.5l15 -9h43v42h-39q-10 0 -20 -2l-9 9h124l14 13
l19 -20h-75v-42h43l8 12l15 -13l-7 -7v-88q1 -19 -20 -27q-2 14 -23 19v4q17 -1 23.5 -1t5.5 10v84h-45v-119z" />
  </g>

</svg>
