<?xml version="1.0" standalone="no"?>
<!DOCTYPE svg PUBLIC "-//W3C//DTD SVG 1.1//EN" "http://www.w3.org/Graphics/SVG/1.1/DTD/svg11.dtd" >
<svg xmlns="http://www.w3.org/2000/svg" xmlns:xlink="http://www.w3.org/1999/xlink" version="1.1" viewBox="0 -205 1024 1024">
  <g transform="matrix(1 0 0 -1 0 819)">
   <path fill="currentColor"
d="M922 810l32 38l50 -46q15 -9 16 -18q-1 -5 -16 -10q-30 -3 -60 -36q-27 -30 -72 -78l-16 10l68 114h-384q5 -55 -10 -88q-16 -31 -40 -38q-22 -7 -34 2q-13 9 -10 24q1 15 20 30t32 48q12 33 18 90h22l2 -42h382v0v0zM636 970l10 10q60 -25 90 -50q30 -23 36 -46
q5 -22 -4 -40q-10 -19 -32 -16q-21 2 -26 26q-4 21 -16 48q-10 26 -58 68v0v0zM466 566h438l42 50l56 -56q3 -4 4 -10q0 -10 -12 -10h-238v-403q3 -39 -20 -66q-21 -23 -60 -32q-4 27 -38 48q-34 18 -98 36l4 18q74 -17 104 -20q29 -4 44 4q13 7 12 51v364h-178
q-22 0 -46 -8l-14 34v0v0zM230 938q6 -4 6 -8q0 -6 -8 -8q-24 -12 -38 -36q-12 -24 -38 -78h196l36 42l54 -52q6 -4 4 -8q-2 -9 -10 -8h-160v-196h90l32 38q51 -49 52 -52q3 -10 -6 -14h-168v-348l98 14v266l68 -26q15 -9 -2 -18l-20 -10v-168l6 -92q1 -13 -16 -22
q-15 -10 -36 -13v63q-186 -41 -222 -55q-36 -15 -60 -42l-46 61q35 9 38 30v288l70 -26q15 -4 10 -10q0 -4 -30 -20v-240l92 14v354h-110q-20 -1 -52 -10l-28 38h190v196h-80q-48 -90 -96 -152l-16 10q32 61 70 158q38 96 58 172l72 -32v0v0z" />
  </g>

</svg>
