<?xml version="1.0" standalone="no"?>
<!DOCTYPE svg PUBLIC "-//W3C//DTD SVG 1.1//EN" "http://www.w3.org/Graphics/SVG/1.1/DTD/svg11.dtd" >
<svg xmlns="http://www.w3.org/2000/svg" xmlns:xlink="http://www.w3.org/1999/xlink" version="1.1" viewBox="0 -205 1024 1024">
  <g transform="matrix(1 0 0 -1 0 819)">
   <path fill="currentColor"
d="M318 974l78 -30q10 -3 8 -12q-4 -6 -10 -8l-26 -12v-198h152v186l72 -30q6 -3 6 -8q6 -8 -30 -22v-96l4 -62q-1 -14 -16 -28q-15 -12 -36 -12v46h-346l-32 -30l-52 40q28 21 26 40v174l78 -28q3 -4 4 -8q0 -4 -32 -20v-142h152v260v0v0zM60 590h478l34 44l58 -50
q8 -4 8 -10q3 -10 -8 -10h-274l-74 -122h252l32 36l48 -38q8 -6 8 -12q1 -5 -28 -22v-287q1 -38 -16 -62q-16 -22 -58 -32q-9 30 -32 38q-23 10 -70 28l4 16q56 -15 92 -16q34 0 30 26v297h-108v-158l4 -88q1 -16 -18 -28q-21 -10 -38 -11l4 115v172h-104v-194l4 -80
q0 -14 -20 -27q-18 -12 -36 -18l4 121v198h-98v-272l4 -71q0 -12 -20 -28q-19 -16 -38 -14l4 108v339l48 -36h124l38 122h-154q-21 0 -68 -8l-16 34v0v0zM688 824l86 -34q12 -9 0 -18l-36 -12v-366l4 -98q-2 -16 -22 -28q-21 -12 -36 -12l4 134v434v0v0zM864 952l88 -38
q9 -10 -2 -16l-38 -14v-742q3 -67 -20 -95q-24 -27 -62 -36q-16 32 -40 46q-22 16 -110 40l4 20q93 -18 120 -24q27 -5 42 4q18 9 18 36v819v0v0z" />
  </g>

</svg>
