<?xml version="1.0" standalone="no"?>
<!DOCTYPE svg PUBLIC "-//W3C//DTD SVG 1.1//EN" "http://www.w3.org/Graphics/SVG/1.1/DTD/svg11.dtd" >
<svg xmlns="http://www.w3.org/2000/svg" xmlns:xlink="http://www.w3.org/1999/xlink" version="1.1" viewBox="0 -36 256 256">
  <g transform="matrix(1 0 0 -1 0 220)">
   <path fill="currentColor"
d="M32 134q3 35 0 89l16 -8h161l12 13l17 -20h-190q0 -72 -6.5 -96.5t-28.5 -44.5l-4 1q20 31 23 66zM137 157l-13 -3v3h-44v-1l-13 -3v25v24l13 -5h43l6 5l13 -8l-6 -4q0 -23 1 -33zM80 181h44v9h-44v-9zM80 164h44v10h-44v-10zM75 125h51v14h-51v-14zM75 77l-14 -4
q1 23 1 42.5t-1 35.5l14 -5h50l7 7l15 -10l-7 -6v-43q1 -14 -15 -19q0 9 -18 12v3q10 -1 14.5 -0.5t4.5 5.5v7h-51v-25zM75 109h51v9h-51v-9zM175 180q0 9 -2 23l21 -7l-6 -4v-34h21l9 8l14 -15h-38q13 -52 46 -65v-4q-16 0 -22 -7q-25 32 -28 76l-2 1q-3 -50 -51 -81l-2 2
q36 36 40 78h-3q-10 0 -20 -2l-9 9h32v22zM200 200q15 -7 23 -12t2.5 -15t-9 -1t-19.5 25zM121 245q22 -8 25.5 -12.5t-1 -12.5t-9 1.5t-17.5 21.5zM46 69q0 -22 -3.5 -31.5t-10 -13t-14.5 -0.5t5.5 12.5t18.5 32.5h4zM107 75q22 -9 29.5 -14.5t7 -12.5t-5 -10t-9.5 7.5
t-24 26.5zM198 71q24 -10 33 -17t8.5 -14.5t-4 -12t-11 8.5t-28.5 32zM72 71l24 -9l-10 -8v-16q0 -12 17 -13h53q19 0 21 11.5t2 23.5h5q2 -15 5 -21.5t10 -10.5q-8 -14 -31 -14h-69q-25 1 -26 17q0 25 -1 40z" />
  </g>

</svg>
