<?xml version="1.0" standalone="no"?>
<!DOCTYPE svg PUBLIC "-//W3C//DTD SVG 1.1//EN" "http://www.w3.org/Graphics/SVG/1.1/DTD/svg11.dtd" >
<svg xmlns="http://www.w3.org/2000/svg" xmlns:xlink="http://www.w3.org/1999/xlink" version="1.1" viewBox="0 -36 256 256">
  <g transform="matrix(1 0 0 -1 0 220)">
   <path fill="currentColor"
d="M200 229l15 12l17 -19h-97v-35h53l14 12l16 -19h-83v-43h-14v43h-52q-4 0 -13 -2l-9 9h74v35h-67q-10 0 -19 -2l-9 9h174zM191.5 27q-6.5 -8 -13.5 -11.5t-22 -7.5q-2 15 -31 27l1 4q36 -11 47.5 -6.5t18.5 58.5h-110l-8 -7l-14 13q7 5 11.5 14t8.5 22h-36q-10 0 -19 -2
l-9 9h192l15 13l17 -20h-142l-14 -35h108l10 11l15 -15l-10 -7q-9 -52 -15.5 -60z" />
  </g>

</svg>
