<?xml version="1.0" standalone="no"?>
<!DOCTYPE svg PUBLIC "-//W3C//DTD SVG 1.1//EN" "http://www.w3.org/Graphics/SVG/1.1/DTD/svg11.dtd" >
<svg xmlns="http://www.w3.org/2000/svg" xmlns:xlink="http://www.w3.org/1999/xlink" version="1.1" viewBox="0 -36 256 256">
  <g transform="matrix(1 0 0 -1 0 220)">
   <path fill="currentColor"
d="M31.5 87q3.5 40 3.5 73t-2 66l17 -9h87q-3 16 -16 27l3 3q19 -8 23.5 -15t-4.5 -15h68l14 12l16 -19h-193q1 -79 -4 -123t-33 -77l-3 3q20 34 23.5 74zM195 135l-14 -6q1 12 1 51h-10q-10 0 -19 -2l-9 9h38q0 9 -1 21l21 -9l-8 -6v-6h14l12 10l14 -17h-40q0 -35 1 -45z
M156 141l-5 -2q44 -28 97 -31v-4q-12 0 -18 -9q-47 10 -84 42l-11 -10l-34 -22l4 -1h76l6 6l12 -10l-5 -5v-10q0 -14 1 -27l-14 -5v3h-76v-30q13 2 42 7l2 -4q-39 -10 -54 -21l-8 12q5 6 5 15v67q-21 -10 -44 -16l-1 3q68 29 95 62zM105 97v-12h76v12h-76zM105 78v-15h76v15
h-76zM207 62l13 -13q-13 -1 -41 -10q23 -6 35 -12t9.5 -13.5t-21 3.5t-81.5 30l1 3q30 -4 53 -10q28 16 32 22zM147 119l9 9l10 -16h-33q-9 0 -10 -1l-3 8h27zM87 168l-5 -6q-2 -25 -25 -37l-2 2q18 18 16 46zM129 169l-5 -5v-15q1 -3 6 -1t6.5 -4t-15.5 -5q-7 0 -8 11v24z
M104 172q0 -24 1 -37l-14 -5q1 16 1 40v10q-15 0 -24 -2l-9 9h33q0 11 -1 20l22 -8l-9 -7v-5h16l11 9l13 -16h-40v-4v-4zM177 170l-5 -5q0 -19 -23 -31l-2 2q18 18 14 39zM221 170l-6 -6v-16q2 -6 8.5 -3t8.5 -4t-18 -6q-9 0 -10 11v28z" />
  </g>

</svg>
