<?xml version="1.0" standalone="no"?>
<!DOCTYPE svg PUBLIC "-//W3C//DTD SVG 1.1//EN" "http://www.w3.org/Graphics/SVG/1.1/DTD/svg11.dtd" >
<svg xmlns="http://www.w3.org/2000/svg" xmlns:xlink="http://www.w3.org/1999/xlink" version="1.1" viewBox="0 -36 256 256">
  <g transform="matrix(1 0 0 -1 0 220)">
   <path fill="currentColor"
d="M82 234l-7 -6v-28h16l8 8l15 -15h-39v-31h20l11 10l15 -17h-81q-13 0 -22 -3l-10 10h21v32q0 15 -1 30l19 -10l-6 -5v-47h22v65q0 9 -1 17zM56 147q-5 -4 -7 -13q13 -8 14.5 -13.5t-3.5 -10t-6.5 2.5t-5.5 18q-5 -12 -17 -24l-3 2q11 19 15 44zM113 99v-7h-99v7h99z
M14 140l19 -10l-7 -7v-87l75 7v99l19 -11l-7 -6v-76q0 -10 1 -21l-13 -4v14q-72 -9 -80 -17l-11 12q4 4 4 11v96zM93 147q-5 -4 -9 -14q13 -10 13 -15.5t-4.5 -7t-5.5 4.5t-5 14q-5 -11 -17 -24l-2 3q12 21 16 45zM59 83q-5 -4 -9 -12q13 -8 14 -13t-4 -9t-6 3t-6 15
q-4 -11 -17 -25l-3 2q11 19 16 45zM94 82q-5 -3 -9 -11q11 -8 13 -13t-3 -9.5t-5.5 2.5t-5.5 17q-6 -14 -18 -26l-3 2q11 21 15 44zM172 234l-8 -4q-15 -23 -39 -41l-3 3q23 27 32 53zM236 215q5 -8 -1 -16.5t-10 1t-12 19.5t-21 21l3 3q36 -20 41 -28zM155.5 194
q13.5 17 15.5 28l19 -11l-9 -4q-22 -23 -34 -33l65 5l-15 20l3 2q26 -19 29 -25.5t-1 -13.5t-6.5 -2.5l-7.5 13.5q-31 -3 -47 -6.5t-24 -8.5l-10 16q9 3 22.5 20zM175 102q1 10 1 20v30q0 3 -1 13l23 -9l-9 -6v-28l1 -12zM167 140l-10 -5q-22 -22 -37 -32l-2 3q21 22 32 46z
M235.5 133.5q8.5 -6.5 8.5 -13t-3 -9.5t-10.5 7t-27.5 27l2 3q22 -8 30.5 -14.5zM181 53q19 20 29 41h-58q11 -24 29 -41zM190 45q26 -22 58 -22v-4q-12 -1 -18 -11q-27 6 -49 28q-32 -20 -73 -28l-2 4q38 12 65 33q-17 23 -26 49l-8 -2l-9 9h81l9 10l14 -14l-9 -5
q-13 -28 -33 -47z" />
  </g>

</svg>
