<?xml version="1.0" standalone="no"?>
<!DOCTYPE svg PUBLIC "-//W3C//DTD SVG 1.1//EN" "http://www.w3.org/Graphics/SVG/1.1/DTD/svg11.dtd" >
<svg xmlns="http://www.w3.org/2000/svg" xmlns:xlink="http://www.w3.org/1999/xlink" version="1.1" viewBox="0 0 2048 2048">
  <g transform="matrix(1 0 0 -1 0 2048)">
   <path fill="currentColor"
d="M979 1486q13 -4 27 -7t92 -8q79 -5 95 -5l423 -1l99 102l120 -107q8 -8 13 -16q6 -7 3 -18q-3 -10 -12 -14t-14 -4h-634l-160 -5q-15 -1 -18 -1l-13 -2l-21 53l-1 -263l1 -44q21 -5 33 -7l34 -5q22 -4 48 -6q26 -1 100 -1l505 -1l98 102l121 -107q10 -10 14 -15
q5 -6 1 -19q-4 -11 -11 -15q-8 -3 -15 -3h-702v-822q31 8 57 16q27 8 94 33q66 26 90 38l39 19l20 -34l-41 -33q-21 -17 -89 -58t-89 -51l-70 -36l-4 -30q-3 -19 -8 -27q-4 -8 -16 -10q-13 -1 -22 10q-9 10 -19 32l-52 109l12 2v841q-51 -4 -71 -4q-21 -1 -23 -1l-13 -2
l-23 52q0 -15 -1 -35q0 -19 -4 -97l-8 -137q-5 -78 -12 -149t-19 -139q-12 -67 -29 -124q-18 -57 -40 -104q-22 -46 -60 -112q-39 -67 -51 -82l-61 -81l-32 28l44 70q21 34 42 80q22 46 42 105q21 60 30 99q10 39 18 87q9 49 15 94q6 44 11 101q4 57 7 112t5 102t4 129
q2 83 3 165l1 318v176l-7 141l110 -71h713l98 101l121 -107q10 -10 14 -15q4 -6 1 -18q-4 -11 -12 -16q-7 -4 -14 -3l-928 1zM1576 680l24 21l33 31q23 21 67 75t69 91l40 60l113 -72q22 -15 34 -31q11 -16 4 -29t-26 -14q-20 -1 -43 3l-33 5l-56 -46q-27 -22 -70 -52
q-42 -31 -72 -50l-38 -22l-28 -16q10 -27 18 -46q9 -19 36 -66q26 -48 55 -89t66 -81q37 -39 68 -62t59 -38t55 -24l31 -12v-34q-31 -2 -53 -6q-22 -3 -38 -14q-16 -10 -23 -21l-20 -29q-23 17 -49 40q-26 22 -61 64q-34 41 -67 89t-62 101t-53 113q-23 60 -42 126t-34 137
q-15 70 -21 106l-13 71l45 8l23 -87l21 -78q9 -31 33 -99zM552 1065l-54 -77q-31 -41 -82 -98q-51 -56 -82 -84q-30 -28 -104 -86q-75 -57 -100 -70l-51 -29l-21 30l61 49q27 21 75 66q49 45 86 86q38 41 101 124t83 119l60 104q-11 44 -20 75t-31 86q-22 54 -36 79l-30 52
l-65 -49q-33 -24 -88 -60q-54 -35 -99 -59l-75 -41l-20 33q50 31 71 46t91.5 69t81.5 66l62 64l-66 100q-30 44 -90 123l-33 43l32 22q22 -26 83 -92q60 -66 62 -68l60 -80l56 64q22 27 66 88q43 61 61 99l28 57l95 -54q26 -16 40 -29t10 -25q-4 -11 -19 -15l-31 -3l-37 -4
l-74 -84l-74 -84q-25 -28 -41 -44l-34 -34l46 -72q20 -34 52 -104q31 -71 52 -138.5t32 -136.5t16.5 -145.5t7.5 -145.5q1 -69 0 -178q0 -110 -4 -168q-5 -57 -16 -122q-11 -66 -27 -109t-44 -77q-28 -35 -68 -57t-74 -28l-46 -10q-8 25 -14 37t-17 25q-10 13 -28 23
q-17 11 -57 27t-52 20l-49 15l11 42q30 -11 49 -16l52 -15q32 -9 66 -17q35 -8 50 -9q38 -5 64 7q27 13 46 42q20 28 32 84q13 56 20 140q6 83 6 157q1 74 0 174q-2 80 -4 117q-1 38 -6 110z" />
  </g>

</svg>
