<?xml version="1.0" standalone="no"?>
<!DOCTYPE svg PUBLIC "-//W3C//DTD SVG 1.1//EN" "http://www.w3.org/Graphics/SVG/1.1/DTD/svg11.dtd" >
<svg xmlns="http://www.w3.org/2000/svg" xmlns:xlink="http://www.w3.org/1999/xlink" version="1.1" viewBox="0 -36 256 256">
  <g transform="matrix(1 0 0 -1 0 220)">
   <path fill="currentColor"
d="M50 170l-5 -5v-28h21q0 28 -1 48l20 -7l-6 -6v-35h19q0 29 -1 39l19 -8l-4 -5q0 -23 1 -33l-15 -5v5h-53l-7 -7l-11 10l5 6q0 30 -1 38zM175 183l21 -7l-7 -7v-34h21q0 28 -1 41l19 -7l-5 -6q0 -20 1 -36l-14 -5v6h-52l-8 -7l-12 11l5 5q0 27 -1 38l21 -6l-6 -5v-29h19
q0 37 -1 48zM152 55q6 0 6 6v18h-73v-40q0 -11 11 -11h94q11 0 13 7t3 24h5q0 -11 2 -19t10 -11q-5 -7 -11.5 -9.5t-14.5 -2.5h-108q-19 0 -19 19v52q-23 -9 -61 -17v5q40 11 70.5 28t42.5 32l16 -11l-7 -3q21 -13 53 -21.5t62 -7.5v-4q-17 -3 -21 -14q-25 3 -51 14.5
t-48 29.5q-18 -14 -52 -29l12 -4h71l7 8l16 -11l-8 -7v-18q0 -9 -5 -14t-14 -7q-5 13 -28 17v4q21 -3 27 -3zM77 229l-6 -6v-26h52q0 27 -1 47l22 -8l-7 -5v-34h49q0 25 -1 37l22 -7l-6 -7q0 -20 1 -31l-16 -5v6h-115l-6 -7l-14 10l6 6q0 20 -1 36z" />
  </g>

</svg>
