<?xml version="1.0" standalone="no"?>
<!DOCTYPE svg PUBLIC "-//W3C//DTD SVG 1.1//EN" "http://www.w3.org/Graphics/SVG/1.1/DTD/svg11.dtd" >
<svg xmlns="http://www.w3.org/2000/svg" xmlns:xlink="http://www.w3.org/1999/xlink" version="1.1" viewBox="0 -36 256 256">
  <g transform="matrix(1 0 0 -1 0 220)">
   <path fill="currentColor"
d="M82 120h31v47h-28q-1 -26 -3 -47zM47 120h22q2 23 3 47h-25v-47zM89 205h-37q-8 -11 -16 -23l12 -8h27q8 17 14 31zM34 133v47q-12 -16 -22 -22l-2 2q30 38 43 85l19 -11l-8 -4q-4 -8 -10 -18h35l8 9l15 -16q-8 -3 -14.5 -9.5t-16.5 -21.5h31l6 8l13 -11l-6 -5v-28
q0 -16 1 -29l-13 -6v10h-32q-6 -35 -24 -60t-49 -43l-2 3q21 16 38 39.5t24 60.5h-21v-6l-14 -5q1 19 1 31zM89 114h12v-72q-1 -15 19 -13h97q10 1 10.5 15t1.5 27h4q0 -12 2.5 -23t11.5 -15q-9 -14 -27 -15h-110q-22 -1 -21 21v75zM175 223q0 9 -1 18l20 -6l-7 -7v-22h14
l12 10l15 -17h-41v-21h11l11 8l13 -15h-35v-29h19l12 10l15 -17h-70q-10 0 -19 -2l-9 9h40v29q-11 1 -24 -3l-7 10h31v21h-25q-7 -10 -16 -20l-4 3q15 23 21 50l18 -10l-7 -2l-8 -14h21v17zM183 75q9 9 16 28h-29q-7 -13 -13 -22zM153 103q-10 0 -19 -2l-9 9h34q6 12 7 22
l18 -9q-6 -4 -11 -13h41l10 10l15 -17h-25q-10 -20 -19 -32q12 -3 19.5 -10t6.5 -15.5t-10.5 1t-23.5 14.5q-23 -19 -62 -27l-1 5q36 12 53 28q-13 6 -34 11q7 13 14 25h-4z" />
  </g>

</svg>
