<?xml version="1.0" standalone="no"?>
<!DOCTYPE svg PUBLIC "-//W3C//DTD SVG 1.1//EN" "http://www.w3.org/Graphics/SVG/1.1/DTD/svg11.dtd" >
<svg xmlns="http://www.w3.org/2000/svg" xmlns:xlink="http://www.w3.org/1999/xlink" version="1.1" viewBox="0 -36 256 256">
  <g transform="matrix(1 0 0 -1 0 220)">
   <path fill="currentColor"
d="M137 214h26l9 12l13 -19h-37q11 -6 16 -12.5t-1 -14t-8 1.5t-13 25h-5q-12 -24 -25 -45l-3 3q10 24 15.5 44.5t7.5 35.5l18 -9q-7 -4 -13 -22zM226 193q6 -7 0 -15t-9 2t-14 26h-7q-10 -20 -23 -31l-3 2q8 12 14.5 32t8.5 35l17 -10q-5 -3 -12 -21h26l11 12l13 -19h-39
q11 -6 17 -13zM168 175l20 -8l-7 -8v-7h32l12 13l13 -20h-57v-25h26l12 12l15 -19h-83q-10 0 -19 -2l-9 9h46v25h-28q-10 0 -19 -2l-9 9h56q0 8 -1 23zM197 113l21 -7l-7 -7v-10h10l13 10l13 -17h-36v-47q0 -18 -16 -27q-3 15 -22 19v5q11 -2 18 -2.5t7 11.5v41h-61
q-10 0 -19 -2l-9 9h89q0 10 -1 24zM159 63q7 -8 5 -14.5t-6 -9t-8 10.5t-17 28l2 3q17 -10 24 -18zM33 60.5q-4 15.5 -16 36.5l2 3q16 -13 24.5 -23t1 -21t-11.5 4.5zM91 167l16 -18h-37v-29h14l13 10l14 -17h-41v-53q10 13 25 47l15 -15l-9 -6q-13 -14 -31 -33v-8l41 9v-4
q-59 -21 -86 -32l-10 17q17 2 42 8v70h-13q-12 0 -21 -2l-9 9h43v29h-8q-4 0 -10 -2l-6 5q-11 -14 -22 -24l-3 2q34 54 53 117l18 -11l-6 -5q-4 -8 -6 -13q23 -8 33 -14t6 -18.5t-12 0t-28 28.5q-17 -36 -30 -58h43z" />
  </g>

</svg>
