<?xml version="1.0" standalone="no"?>
<!DOCTYPE svg PUBLIC "-//W3C//DTD SVG 1.1//EN" "http://www.w3.org/Graphics/SVG/1.1/DTD/svg11.dtd" >
<svg xmlns="http://www.w3.org/2000/svg" xmlns:xlink="http://www.w3.org/1999/xlink" version="1.1" viewBox="0 -52 256 256">
  <g transform="matrix(1 0 0 -1 0 204)">
   <path fill="currentColor"
d="M161 192q2 -1 -1 -1q-4 -1 -7 -4l-3 -9q-2 -8 -8 -20h58l8 11l16 -13l2 -2q0 -1 -3 -1h-45v-55h42l7 10l16 -13q5 -2 -1 -2h-64v-51v-22q0 -9 -13 -12q2 10 2 46v39h-43q-6 0 -10 -3l-8 8h61v55h-28q-12 -23 -26 -38l-3 2q21 31 30 64q5 10 3 13q0 1 -1 3q1 -2 -2 2l2 1z
M105 151q-3 0 -8 -6q-2 -3 -3 -4q-1 -2 -5 -6q-10 -15 -17 -22v-4q6 -2 15 -6q3 -1 5 -2q23 -12 10 -23q-4 0 -6 6q-2 10 -24 21v-64l1 -21q0 -10 -13 -11q2 9 2 35v58q-20 -20 -44 -36l-2 3q25 22 46 46v5q-1 5 -5 9l5 3l7 -8q11 14 20 29h-55q-5 0 -8 -3l-9 7h71l7 7
l11 -10q2 -2 1 -2q0 -1 -2 -1zM243 210q1 -3 -2 -2q-7 -1 -16 -11l-13 -13l-3 2l15 24h-186q0 -1 -1 -4q0 -3 -1 -4q-8 -30 -23 -19q-1 4 3 7q5 4 10 13q6 9 8 27h4v-15h185l8 7zM101 249l1 2q26 -7 34 -20q4 -13 -5 -14q-4 0 -6 6q-1 7 -7 14q-4 6 -17 12zM46 203l1 2
q27 -11 32 -23q3 -13 -6 -13q-4 0 -5 6v1q-2 8 -5 11t-14 13q9 -7 -3 3z" />
  </g>

</svg>
