<?xml version="1.0" standalone="no"?>
<!DOCTYPE svg PUBLIC "-//W3C//DTD SVG 1.1//EN" "http://www.w3.org/Graphics/SVG/1.1/DTD/svg11.dtd" >
<svg xmlns="http://www.w3.org/2000/svg" xmlns:xlink="http://www.w3.org/1999/xlink" version="1.1" viewBox="0 -36 256 256">
  <g transform="matrix(1 0 0 -1 0 220)">
   <path fill="currentColor"
d="M20 168q0 32 -1 65l15 -8h39l11 11l13 -18h-32v-27h6l10 9l12 -16h-28v-28h6l11 9l12 -16h-29v-29l16 1l7 7l11 -12l-6 -5q-3 -63 -6.5 -73t-8.5 -16.5t-13 -8.5q0 10 -21 16l1 4q18 -3 22 -2t8 13t6 70l-48 -2v-6l-14 -4q1 34 1 66zM33 191h20v27h-20v-27zM33 156h20v28
h-20v-28zM33 119l20 1v29h-20v-30zM21 88q3 -20 1.5 -29t-5 -12.5t-7 -0.5t1.5 12.5t5 29.5h4zM28 91q8 -10 12 -17.5t2 -13t-6.5 -8t-4 9.5t-5.5 28zM43 96q16 -15 18 -21.5t0 -10.5t-5.5 -4.5t-4 8t-10.5 26.5zM60 102q11 -10 14 -17t2.5 -11.5t-4.5 -7t-5.5 6.5t-8.5 27z
M164.5 219q-3.5 15 -15.5 26l2 2q21 -10 26.5 -19t-2 -16.5t-11 7.5zM211 207l15 12l16 -19h-113q-16 1 -27 -3l-7 10h116zM144 184l10 9l12 -16h-25v-15h10l9 8l12 -15h-45q-10 0 -19 -2l-9 9h30v15h-6q-6 1 -14 -2l-5 9h40zM175 48l3 -4q-36 -23 -43 -37l-10 16q5 5 5 12
v25q-23 -18 -40 -24l-1 4q18 10 36.5 29.5t34.5 45.5l16 -12q-6 -1 -11 -7q8 -19 21 -32q19 19 28 37l14 -16l-8 -2q-9 -7 -30 -23q12 -12 27 -20.5t31 -8.5v-4q-13 -4 -16 -12q-7 1 -31.5 19t-39.5 57q-11 -14 -19 -22v-38zM211 184l11 9l13 -16h-26v-15h11l9 8l12 -15h-42
q-10 0 -19 -2l-9 9h26v15h-5q-6 1 -14 -2l-5 9h38zM144 139l9 8l13 -15h-25v-17h10l10 8l11 -15h-45q-10 0 -19 -2l-9 9h30v17h-6q-6 0 -13 -3l-6 10h40zM213 140l10 8l13 -15h-26v-18h11l9 9l13 -16h-42q-10 0 -20 -2l-9 9h26v18h-5q-6 1 -14 -3l-6 10h40z" />
  </g>

</svg>
