<?xml version="1.0" standalone="no"?>
<!DOCTYPE svg PUBLIC "-//W3C//DTD SVG 1.1//EN" "http://www.w3.org/Graphics/SVG/1.1/DTD/svg11.dtd" >
<svg xmlns="http://www.w3.org/2000/svg" xmlns:xlink="http://www.w3.org/1999/xlink" version="1.1" viewBox="0 -36 256 256">
  <g transform="matrix(1 0 0 -1 0 220)">
   <path fill="currentColor"
d="M216 222h-170q1 -14 -5 -22t-16.5 -6t0.5 14t16 34h5v-13h169l10 10l18 -19q-17 -1 -38 -29l-4 2zM84 171l14 -14q-11 -12 -22.5 -25.5t-31.5 -32.5l42 3q-4 9 -8 17l3 2q17 -15 20.5 -24t-2 -16.5t-7 -1.5t-4.5 17q-38 -8 -56 -16l-8 15q17 10 26 21t16 21
q-24 -4 -37 -10l-9 15q9 3 21 24.5t18 38.5l17 -12q-6 -5 -18.5 -21t-22.5 -28l35 1q8 12 14 26zM80 76q17 -19 20 -30t-3 -18t-7.5 5.5t-11.5 40.5zM56 73q14 -19 16.5 -30.5t-5 -17.5t-7.5 5t-7 42zM41 72q1 -33 -5.5 -44.5t-15.5 -7.5t2 16.5t15 35.5h4zM206 11
q0 10 -6.5 14.5t-26.5 7.5v4q26 -2 32.5 -1t8.5 10v112h-37q0 -18 -6 -37q30 -18 35.5 -26.5t-0.5 -17t-12 6t-24 32.5q-13 -29 -41 -52l-4 1q23 28 30 48.5t8 44.5h-38v-137l-15 -9q1 15 1 28v107q0 9 -1 24l17 -6h36q1 32 -1 50l25 -10l-8 -6q0 -17 -2 -34h35l6 11l15 -11
l-6 -9v-116q1 -21 -21 -29z" />
  </g>

</svg>
