<?xml version="1.0" standalone="no"?>
<!DOCTYPE svg PUBLIC "-//W3C//DTD SVG 1.1//EN" "http://www.w3.org/Graphics/SVG/1.1/DTD/svg11.dtd" >
<svg xmlns="http://www.w3.org/2000/svg" xmlns:xlink="http://www.w3.org/1999/xlink" version="1.1" viewBox="0 -144 1024 1024">
  <g transform="matrix(1 0 0 -1 0 880)">
   <path fill="currentColor"
d="M254 796l65 -54v-21h-129v-667l-43 -21v688h-119v21h172zM601 205h-250v21h250v80h-195v21h195v77l-25 -2l-34 1l-36 2l-38 2v10l134 27l53 12l23 6l38 12l10 4h1l4 2l3 -8l49 -42l2 -17l-22 10l-12 -4l-40 -7l-46 -6v-79h76l54 54l64 -54v-21h-194v-80h132l53 54l65 -54
v-21h-250v-82l-1 -14l-2 -13l-4 -13l-7 -12l-9 -11l-11 -9l-12 -7l-13 -4l-13 -2l-14 -1v33l-86 16v16h93l5 1l3 1l1 1l2 1l1 1l1 5l1 4l1 7v82zM55 635l54 -11l13 -11l-13 -9v-168l-2 -48l-3 -45l-5 -41l-5 -38l-7 -34l-8 -31l-9 -27l-12 -23l-13 -19l-14 -14l-6 5l6 17
l5 20l5 23l5 26l4 29l2 33l3 37l1 39v44l-1 47v199zM227 635l54 -11l13 -11l-13 -9v-381l-54 -26v438zM897 333l-35 35l-32 41l-15 22l-14 24l-14 25l-12 28l-10 25h-215l-43 -62l-43 -53l-46 -48l-25 -22l-26 -20l-27 -19l-28 -17l-6 8l81 98l38 51l34 54l17 28v2h-160v21
h53l-8 375l52 -24l42 32l21 18l18 17l5 5l-1 1l4 3l39 -52l1 -20l-22 10l-5 -2l-27 -11l-15 -5l-14 -4l-16 -4l-15 -3h-2l2 -93h36l34 38l43 -38v-21h-113l2 -100h34l34 37l43 -37v-22h-110l2 -100h127l4 167l64 -12l16 -11l-16 -6l-4 -138h35l4 222h-39v-1l-65 -31l5 240
l64 -12l16 -11l-16 -6l-1 -57h32l34 38l43 -38v-21h-109l-2 -80h38l32 27l52 -43v16h94l2 100h-88v21h89l32 27l59 -48l-27 -17l-6 -2l-5 -323l24 31l32 -32v-21h-173l70 -75l35 -33l18 -14l35 -25l17 -10l19 -13l-59 -46zM840 776h-85l-27 -17l-6 -2l2 -203h109l3 100h-89
v22h90zM227 957l54 -48v-22h-215v22h117z" />
  </g>

</svg>
