<?xml version="1.0" standalone="no"?>
<!DOCTYPE svg PUBLIC "-//W3C//DTD SVG 1.1//EN" "http://www.w3.org/Graphics/SVG/1.1/DTD/svg11.dtd" >
<svg xmlns="http://www.w3.org/2000/svg" xmlns:xlink="http://www.w3.org/1999/xlink" version="1.1" viewBox="0 -143 1024 1024">
  <g transform="matrix(1 0 0 -1 0 881)">
   <path fill="currentColor"
d="M69 922h350l25 32l55 -36q8 -6 8 -12t-31 -26v-181l4 -75q0 -14 -21 -27t-34 -11v52h-280q-25 0 -53 -8l-19 34h352v102h-261q-24 0 -50 -8l-21 34h332v104h-297q-20 0 -38 -6zM345 596q3 -6 3 -9l-5 -5l-31 -17v-72h149l28 36l58 -41q4 -4 4 -9q0 -12 -15 -12h-224v-103
h97l24 33l51 -32q12 -7 12 -13.5t-30 -27.5v-138l4 -60q2 -15 -17.5 -28.5t-37.5 -13.5v65h-263v-52q0 -14 -15.5 -25t-39.5 -13l4 94v242l56 -31h104v103h-161q-21 0 -45 -8l-21 34h227v124zM152 177h263v160h-263v-160zM623 841q25 -149 50 -257t73 -212q30 64 56 159
t60 310h-239zM854 870l32 40q66 -46 66 -50t-3 -7t-16 -13t-16 -17t-21 -104t-46 -203t-74 -192q50 -88 89 -131t70 -63t67 -28v-16q-44 0 -62 -8t-32 -24q-40 40 -81 97t-81 129q-56 -80 -128 -143t-162 -115l-8 16q84 64 147 127t125 159q-38 68 -72 193t-54 325h-14
q-24 2 -40 -8l-30 36h344z" />
  </g>

</svg>
