<?xml version="1.0" standalone="no"?>
<!DOCTYPE svg PUBLIC "-//W3C//DTD SVG 1.1//EN" "http://www.w3.org/Graphics/SVG/1.1/DTD/svg11.dtd" >
<svg xmlns="http://www.w3.org/2000/svg" xmlns:xlink="http://www.w3.org/1999/xlink" version="1.1" viewBox="0 -205 1024 1024">
  <g transform="matrix(1 0 0 -1 0 819)">
   <path fill="currentColor"
d="M848 950l52 -62q12 -10 12 -16q4 -7 -16 -10q-21 -3 -42 -8q-19 -6 -82 -44q-61 -37 -190 -124q12 -6 12 -12q0 -4 -42 -20v-476q3 -53 -14 -79t-82 -50q-7 30 -34 50q-25 21 -116 43l4 20q111 -23 138 -25q26 0 38 9t10 46v542l62 -34q107 80 224 182h-612q-15 0 -36 -8
l-24 36h686l52 40v0v0z" />
  </g>

</svg>
