<?xml version="1.0" standalone="no"?>
<!DOCTYPE svg PUBLIC "-//W3C//DTD SVG 1.1//EN" "http://www.w3.org/Graphics/SVG/1.1/DTD/svg11.dtd" >
<svg xmlns="http://www.w3.org/2000/svg" xmlns:xlink="http://www.w3.org/1999/xlink" version="1.1" viewBox="0 -144 1024 1024">
  <g transform="matrix(1 0 0 -1 0 880)">
   <path fill="currentColor"
d="M445 404l65 -32h116l27 27l54 -49l-27 -16v-267l-54 -27v38h-116v-16l-65 -33v375zM293 128l57 -30l-7 -12l-7 -10l-9 -11l-10 -8l-11 -8l-12 -6l-11 -5l-13 -3l-14 -1l-13 -1v32l-86 16v16h86l7 1l7 1l11 3l5 3l9 6l8 10zM914 399l59 -49l-26 -21v-262l-65 -32v43h-117
v-16l-54 -27v364l54 -27h117zM347 99l3 -1l11 24l10 26l7 29l7 32l5 35l3 37l3 40l1 43v46v21l26 16l-59 48l-32 -27h-61v124h124v21l-54 49l-44 -49h-26v124h124v21l-54 49l-44 -49h-26v129h128v22l-64 54l-54 -54h-153l-64 32v-527l64 33h204v-43h1v-39l-1 -41l-3 -38
l-3 -35l-5 -31l-6 -28l-6 -25l-8 -22l-8 -17l23 -12l2 -1l24 -13zM882 350h-117v-251h117v251zM626 350h-116v-251h116v251zM34 158l48 -43l-22 -11l-24 8l-10 23zM34 158l7 6l7 10l7 14l7 17l6 21l5 24l4 27l8 63l2 37h10l6 -36l5 -34l3 -31l1 -29v-27l-2 -25l-4 -23
l-6 -21l-8 -19l-10 -17l-20 17l-14 13zM180 158l-24 -7l-21 13l-6 24l4 13l2 14l3 15l1 16l1 17v17v19l-1 19l-2 20l-4 21l9 4l9 -20l10 -19l8 -19l7 -19l5 -18l5 -18l3 -19l2 -17l2 -18v-18zM203 244v13l-1 28l-4 29l-3 15l-4 15l-5 16l-6 15l8 5l10 -13l12 -12l11 -14
l18 -28l7 -15l7 -16l5 -16l4 -16l4 -17l-9 -22l-22 -11l-23 8l-11 22zM261 306l-1 11l-2 11l-2 12l-3 11l-5 11l-5 11l-12 24l-9 10l6 8l12 -8l13 -8l11 -8l12 -9l10 -10l10 -11l8 -12l8 -13l7 -14l6 -14l-5 -24l-20 -14l-24 5l-14 19zM533 792l65 -33h206l32 27l59 -48
l-27 -22v-248l-64 -32v54h-206v-38l-65 -32v372zM207 592v-124h-79v124h79zM804 738h-206v-227h206v227zM207 737v-124h-79v124h79zM519 993l62 -21l14 -13l-20 -8l-9 -29l-10 -25l-12 -24h286l54 54l65 -54v-21h-415l-20 -33l-17 -27l-20 -26l-22 -26l-24 -26l-8 5l43 91
l12 28l20 52l7 25l6 23l3 22zM207 887v-129h-79v129h79z" />
  </g>

</svg>
