<?xml version="1.0" standalone="no"?>
<!DOCTYPE svg PUBLIC "-//W3C//DTD SVG 1.1//EN" "http://www.w3.org/Graphics/SVG/1.1/DTD/svg11.dtd" >
<svg xmlns="http://www.w3.org/2000/svg" xmlns:xlink="http://www.w3.org/1999/xlink" version="1.1" viewBox="0 -36 256 256">
  <g transform="matrix(1 0 0 -1 0 220)">
   <path fill="currentColor"
d="M81 216l12 10l16 -17h-59q-11 1 -20 -2l-8 9h59zM89 162l12 10l14 -17h-26v-104q0 -19 25 -19h97q12 0 14 12.5t3 33.5h4q0 -15 2 -25.5t11 -14.5q-9 -18 -35 -17h-104q-29 0 -30 24v110h-18q0 -42 -6 -75t-37 -69l-3 2q23 38 28.5 70t4.5 72q-14 0 -22 -3l-9 10h75z
M162 142h20v56h-20v-56zM139 172.5q6 -7.5 0 -17.5t-9 2.5t-14 28.5l2 2q15 -8 21 -15.5zM203 148l-3 2q13 23 17 41l16 -13l-7 -3q-13 -17 -23 -27zM136 244q17 -9 23 -15.5t-1 -17t-10 3t-14 26.5zM186 205h24l11 11l15 -18h-42v-56h20l12 11l16 -18h-112q-10 0 -19 -2
l-9 9h48v56h-11q-10 0 -19 -2l-9 9h69q13 25 17 40l17 -13l-7 -4q-5 -3 -21 -23zM143 91h58v22h-58v-22zM143 62h58v22h-58v-22zM131 81.5q0 28.5 -1 45.5l13 -7h57l7 8l13 -12l-7 -5q0 -50 1 -61l-13 -6v11h-58v-10l-13 -6q1 14 1 42.5z" />
  </g>

</svg>
