<?xml version="1.0" standalone="no"?>
<!DOCTYPE svg PUBLIC "-//W3C//DTD SVG 1.1//EN" "http://www.w3.org/Graphics/SVG/1.1/DTD/svg11.dtd" >
<svg xmlns="http://www.w3.org/2000/svg" xmlns:xlink="http://www.w3.org/1999/xlink" version="1.1" viewBox="0 -154 1024 1024">
  <g transform="matrix(1 0 0 -1 0 870)">
   <path fill="currentColor"
d="M660 954l86 -31q14 -5 6 -9q-20 -9 -28 -19v-140l2 -61q0 -20 -12 -27q-12 -10 -37 -13q4 33 7 137v113q1 13 -32 40zM841 959q0 20 -22 38l6 10l78 -32q16 -8 6 -12q-16 -5 -27 -14q0 -286 -1 -313q-2 -33 -17 -47q-15 -13 -67 -25q-2 23 -23 32q-20 10 -64 23l2 14
l27 -5q57 -11 79 -4q21 5 23 43v292zM279 299h276l29 29q44 50 45 59q0 9 -7 22l8 6l68 -31q16 -10 7 -13q-22 1 -39 -6q-46 -35 -84 -66h94l31 35l67 -40q15 -11 -6 -12h-227v-82h170l31 34l67 -39q15 -13 -6 -15h-262v-77l2 -32q0 -18 -14 -26q-12 -8 -32 -12q4 31 7 93
v54h-187q-26 3 -44 -5l-33 25h264v82h-147q-27 0 -45 -12zM589 810v-20q1 -13 1 -30q0 -22 -14 -37q-15 -17 -67 -26q-2 18 -19 26q-20 7 -59 18l4 12q61 -8 79 -8q19 0 26 6q6 3 5 46v23h-142v-110q54 -8 95 -21q53 -14 87 -29q33 -19 40 -35q7 -19 -9 -24q-15 -8 -43 18
q-27 25 -81 48q-41 18 -89 31l3 -70q0 -18 -14 -26q-15 -9 -39 -13q3 29 6 132q-103 -106 -266 -157l-9 9q91 45 153 92q62 48 123 120v35h-134v-18l4 -84q0 -18 -13 -26q-13 -10 -41 -13q4 33 7 123v27q-9 20 -20 26l11 13l39 -31h147v56h-190q-25 0 -42 -11l-33 29h265v46
q1 13 -29 39l9 11l86 -31q13 -5 6 -10q-20 -8 -29 -18v-37h117l37 39l66 -45q21 -14 -10 -12h-210v-56h127l29 37l49 -36q14 -9 0 -17zM497 623l79 -26q12 -5 5 -9q-18 -6 -28 -16l-6 -38h329l31 36l67 -43q15 -13 -6 -17h-425l-12 -73h291l31 34l48 -35q17 -11 0 -17
l-20 -11v-284q1 -53 -11 -77q-13 -23 -68 -33q-2 29 -33 38q-33 9 -88 21l2 14q107 -20 131 -18t24 43v304h-478q35 -11 63 -26q30 -17 41 -32q9 -17 5 -32q-5 -16 -20 -16q-16 0 -24 21q-7 21 -24 39q-18 17 -49 38l3 8h-131v-280l4 -83q0 -19 -15 -27q-14 -8 -39 -13
q4 33 7 163v256q-6 19 -21 31l16 13l40 -39h272l11 73h-361q-27 0 -46 -12l-33 36h443l8 47q2 13 -21 33z" />
  </g>

</svg>
