<?xml version="1.0" standalone="no"?>
<!DOCTYPE svg PUBLIC "-//W3C//DTD SVG 1.1//EN" "http://www.w3.org/Graphics/SVG/1.1/DTD/svg11.dtd" >
<svg xmlns="http://www.w3.org/2000/svg" xmlns:xlink="http://www.w3.org/1999/xlink" version="1.1" viewBox="0 -36 256 256">
  <g transform="matrix(1 0 0 -1 0 220)">
   <path fill="currentColor"
d="M68 181l-13 -5v7h-23v-20q0 -8 9 -8h19q4 1 5 5.5t1 16.5h3q0 -8 1.5 -13t6.5 -7q-4 -12 -16 -12h-28q-14 1 -13 16v48q0 13 -1 25l13 -8h22l7 9l13 -10l-7 -7q0 -23 1 -37zM131 181l-13 -5v7h-25v-16q-1 -14 9 -12h19q7 1 7.5 8t1.5 15h2q0 -7 1.5 -14t6.5 -8
q-4 -11 -14 -11h-30q-15 0 -15 16v46q0 13 -1 27l13 -8h24l7 9l12 -10l-6 -7q0 -25 1 -37zM32 190h23v29h-23v-29zM93 190h25v29h-25v-29zM42 115q0 17 -1 28l21 -9l-7 -6v-13h32q0 10 -1 28l20 -9l-6 -6v-13h10l11 10l14 -17h-35v-31h19l12 11l16 -18h-112q-10 0 -19 -2
l-9 9h35v31h-5q-10 0 -19 -2l-9 9h33zM55 77h32v31h-32v-31zM68 50l-9 -4q-29 -30 -49 -37l-1 3q26 20 44 52zM126 45q9 -7 9 -14t-3 -11.5t-9.5 5.5t-35.5 36l2 3q28 -12 37 -19zM207 232l-8 -9v-65q-1 -14 -16 -18q-1 14 -19 17v5q22 -6 22 3v44q0 10 -1 33zM161 214
l16 -11q-7 -5 -12.5 -15.5t-26.5 -27.5l-2 3q17 20 25 51zM213 213q22 -17 27.5 -27t0 -21t-10.5 6t-20 39zM230 14q-11 11 -21.5 32.5t-15.5 53.5h-1q-4 -30 -19.5 -54t-43.5 -38l-3 2q21 16 34.5 38.5t18.5 52.5h-19q-9 -1 -15 -3l-8 10h43q2 16 2 31l18 -7q-3 -3 -6 -24
h28l12 11l14 -18h-50q7 -29 21 -48.5t29 -26.5v-4q-13 1 -18 -8z" />
  </g>

</svg>
