<?xml version="1.0" standalone="no"?>
<!DOCTYPE svg PUBLIC "-//W3C//DTD SVG 1.1//EN" "http://www.w3.org/Graphics/SVG/1.1/DTD/svg11.dtd" >
<svg xmlns="http://www.w3.org/2000/svg" xmlns:xlink="http://www.w3.org/1999/xlink" version="1.1" viewBox="0 -154 1024 1024">
  <g transform="matrix(1 0 0 -1 0 870)">
   <path fill="currentColor"
d="M462 828h236l27 18l49 -26q16 -9 -6 -8h-237q-29 0 -48 -8zM831 740h-124v-68h124v68zM554 745h-120v-73h120v73zM530 615q14 -12 -2 -14q-22 1 -36 -9q-5 -5 -8 -9q21 -5 44 -12q40 -12 51 -28q13 -15 8 -31q-4 -13 -17 -13q-19 1 -27 21q-9 16 -32 31q-15 9 -40 20
q-22 -20 -59 -42q-55 -34 -126 -52l-4 12q53 19 96 48q41 29 61 52q18 20 17 24q1 5 -8 17l10 8zM799 613q11 -9 0 -13q-22 1 -36 -6q-5 -7 -10 -13q45 -11 82 -23q49 -18 64 -34q16 -19 10 -33q-6 -12 -20 -13q-16 4 -28 24q-13 17 -48 38q-30 15 -72 28q-19 -21 -49 -41
q-51 -37 -118 -55l-5 9q50 23 87 53q38 31 54 55q16 21 16 26q1 5 -5 13l6 8zM546 279q9 -9 -5 -8q-21 -2 -31 -15q-9 -11 -19 -20q89 -20 135 -35q54 -19 86 -40t35 -42t-11 -26t-41 25t-80 56q-49 23 -137 49q-33 -33 -73 -60q-60 -41 -147 -71l-6 12q80 40 126 76
q45 36 72 64q26 29 29 38t-4 24l6 6zM676 780l27 -26h116l24 21l36 -24q16 -8 -1 -12l-11 -6v-48l2 -27q-1 -12 -9 -17q-9 -6 -29 -8v25h-124v-5q-1 -8 -11 -15q-8 -5 -29 -9q3 20 4 50v70q3 11 -10 24zM405 781l23 -22h115l19 21l42 -25q9 -5 -6 -9l-8 -6v-49l2 -29
q-2 -13 -12 -17q-10 -6 -26 -8v21h-120v-6q0 -6 -10 -13q-7 -5 -29 -9q2 17 3 52v68q0 16 -8 23zM590 989l77 -27q13 -8 -2 -12q-16 -1 -29 -4q16 -10 37 -23q35 -24 84 -43q46 -20 85 -30q36 -10 63 -13q28 -4 90 -5v-14q-60 -5 -80 -31q-80 21 -141 50q-53 25 -101 57
q-32 21 -58 40q-111 -109 -323 -161l-3 12q100 34 160 69q59 32 102 71q43 38 37 46t-7 10zM254 986l66 -33q16 -12 7 -15q-23 0 -35 -15q-46 -72 -92 -126l43 -19q14 -6 6 -11q-21 -9 -30 -21v-155l4 -67q2 -21 -9 -30q-13 -9 -35 -13q2 16 2 36q1 20 2 73v167q1 8 -1 19
q-67 -74 -135 -111l-8 11q99 89 158 176q58 87 58 99t-7 27zM178 431l31 -42h264q21 31 26 46q4 13 -5 33l6 6l75 -37q9 -9 -5 -8q-22 -1 -42 -25q-4 -8 -10 -15h294l30 41l42 -43q18 -13 0 -19l-20 -13v-247q1 -50 -8 -72q-10 -21 -64 -32q-4 24 -28 33t-74 24l2 16
q86 -23 111 -21t25 38v277h-323q-4 -6 -8 -11q108 -22 156 -38q52 -16 82 -40q29 -23 30 -41q0 -20 -13 -22q-16 -3 -42 25q-27 27 -74 48q-45 18 -151 56q-27 -28 -63 -52q-69 -46 -172 -76l-6 12q92 39 147 79q44 31 68 60h-244v-247l4 -73q0 -21 -12 -31q-11 -9 -35 -15
q4 39 7 130v250q0 21 -16 35z" />
  </g>

</svg>
