<?xml version="1.0" standalone="no"?>
<!DOCTYPE svg PUBLIC "-//W3C//DTD SVG 1.1//EN" "http://www.w3.org/Graphics/SVG/1.1/DTD/svg11.dtd" >
<svg xmlns="http://www.w3.org/2000/svg" xmlns:xlink="http://www.w3.org/1999/xlink" version="1.1" viewBox="0 -205 1048 1024">
  <g transform="matrix(1 0 0 -1 0 819)">
   <path fill="currentColor"
d="M616 729q10 -8 7 -12q-6 -6 -25 -6h-247q26 -18 19 -24q-4 -5 -23 -5h-1q-47 -53 -158 -145q233 25 286 37q-13 21 -38 58q-23 26 -40 46l8 10q72 -48 104 -81q43 -47 47 -83q4 -34 -17 -43q-21 -10 -34 21q-5 14 -12 30q-6 11 -12 27q-41 -14 -343 -71q-1 -26 -9 -36
q-11 -13 -27 25l-22 46l94 13q88 112 123 175h-128l-80 -5l-9 28l73 -3h148v104h-109l-69 -4l-11 27l69 -5h120v77l-5 51l65 -14q30 -9 22 -22q-6 -11 -31 -17v-75h124l39 39l58 -40q12 -7 7 -12q-5 -6 -24 -5h-204v-104h163l40 43zM923 950l27 -32q26 -20 23 -29
q-3 -7 -24 -7q1 -231 -23 -301q-28 -78 -98 -85q-4 27 -20 43q-23 14 -57 33v12q66 -22 86 -23q25 -1 41 23q13 29 19 82q6 56 9 237h-119q11 -8 6 -13q-6 -4 -22 -7q-22 -119 -77.5 -209t-159.5 -167l-9 10q80 71 128.5 166t72.5 220l-140 -4l-3 23l174 -3h140zM482 473
l74 -18q28 -7 15 -16q-6 -5 -28 -13l-6 -2v-85h236l39 38l48 -34q12 -10 7 -15q-4 -6 -20 -6h-310v-107h312l36 41l59 -39q13 -8 8 -14q-4 -5 -19 -5h-396v-96v-18q2 -15 -2 -20q-6 -7 -26 -12q-15 -3 -19 1q-3 2 -2 16l1 14v115h-338l-68 -4l-13 23l65 -2h354v107h-266
q-27 -34 -45 -51q-22 -24 -51 -45l-7 6q45 55 70 96q30 49 65 130l41 -23q23 -13 21 -19q-3 -6 -34 -8q-12 -16 -22 -33q-12 -18 -25 -36h253v84z" />
  </g>

</svg>
