<?xml version="1.0" standalone="no"?>
<!DOCTYPE svg PUBLIC "-//W3C//DTD SVG 1.1//EN" "http://www.w3.org/Graphics/SVG/1.1/DTD/svg11.dtd" >
<svg xmlns="http://www.w3.org/2000/svg" xmlns:xlink="http://www.w3.org/1999/xlink" version="1.1" viewBox="0 -36 256 256">
  <g transform="matrix(1 0 0 -1 0 220)">
   <path fill="currentColor"
d="M93 85q0 -21 1 -37l-14 -6v13h-44v-15l-14 -6q1 47 1 95t-1 93l14 -8h43l8 8l13 -13l-7 -4v-120zM36 162h44v45h-44v-45zM36 113h44v42h-44v-42zM36 62h44v44h-44v-44zM162 197q-29 -39 -67 -61l-2 5q42 36 57 66h-19q-10 0 -21 -2l-10 9h62q0 17 -1 32l24 -10l-9 -6v-16
h38l14 13l16 -20h-62q32 -43 64 -48v-4q-14 -3 -20 -11q-32 21 -49 63h-1q0 -45 1 -62l-16 -6q1 16 1 58zM196 134l15 13l16 -20h-68q-20 1 -32 -3l-11 10h80zM155.5 26.5q7.5 -0.5 7.5 7.5v59h-35q-10 0 -21 -2l-10 9h118l15 13l18 -20h-71v-63q0 -20 -20 -23q-3 13 -26 18
v4q17 -2 24.5 -2.5zM139 63q-31 -31 -58 -44l-3 3q41 34 52 59l21 -16zM239.5 48q8.5 -10 3 -21.5t-10 -2t-14 22t-27.5 27.5l3 4q37 -20 45.5 -30z" />
  </g>

</svg>
