<?xml version="1.0" standalone="no"?>
<!DOCTYPE svg PUBLIC "-//W3C//DTD SVG 1.1//EN" "http://www.w3.org/Graphics/SVG/1.1/DTD/svg11.dtd" >
<svg xmlns="http://www.w3.org/2000/svg" xmlns:xlink="http://www.w3.org/1999/xlink" version="1.1" viewBox="0 -36 256 256">
  <g transform="matrix(1 0 0 -1 0 220)">
   <path fill="currentColor"
d="M162 101q22 45 34 117h-68q9 -75 34 -117zM196 225l8 10l15 -13l-8 -7q-14 -80 -41 -126q33 -46 74 -57v-4q-19 -4 -24 -14q-35 25 -60 63q-36 -42 -89 -67l-3 4q57 35 85 75q-26 52 -32 129l-9 -2l-9 9h93zM22 9q1 42 1 119t-1 107l16 -9h38l7 9l15 -13l-6 -5
q-13 -23 -28 -52q16 -13 23 -26t5.5 -25.5t-8.5 -19.5t-22 -11q-1 13 -21 18v4q12 -2 23 -2.5t13 8t-0.5 21.5t-19.5 33l20 54h-40v-202z" />
  </g>

</svg>
