<?xml version="1.0" standalone="no"?>
<!DOCTYPE svg PUBLIC "-//W3C//DTD SVG 1.1//EN" "http://www.w3.org/Graphics/SVG/1.1/DTD/svg11.dtd" >
<svg xmlns="http://www.w3.org/2000/svg" xmlns:xlink="http://www.w3.org/1999/xlink" version="1.1" viewBox="0 -36 256 256">
  <g transform="matrix(1 0 0 -1 0 220)">
   <path fill="currentColor"
d="M33 240q25 -17 29 -26t-3 -20t-10.5 5.5t-17.5 36.5zM45 154l9 11l15 -14l-9 -7v-85q15 -15 31.5 -21t64.5 -7t92 3v-4q-16 -4 -19 -15q-79 0 -108.5 3.5t-42 13t-19.5 16.5t-18.5 -4t-18.5 -24l-14 13q12 11 38 26v88h-9q-11 -1 -20 -3l-9 10h37zM240 60h-131l-9 -8
l-14 15l9 6v114q0 5 -1 24l22 -11l-7 -9v-124h97l17 14zM186 227l-7 -6q-4 -29 -11 -51q48 -43 51.5 -52t-1 -22t-12 6.5t-39.5 61.5q-14 -46 -52 -83l-3 2q48 65 52 156z" />
  </g>

</svg>
