<?xml version="1.0" standalone="no"?>
<!DOCTYPE svg PUBLIC "-//W3C//DTD SVG 1.1//EN" "http://www.w3.org/Graphics/SVG/1.1/DTD/svg11.dtd" >
<svg xmlns="http://www.w3.org/2000/svg" xmlns:xlink="http://www.w3.org/1999/xlink" version="1.1" viewBox="0 -205 1024 1024">
  <g transform="matrix(1 0 0 -1 0 819)">
   <path fill="currentColor"
d="M582 894q-45 -15 -116 -42v-162h94l34 44l52 -56q2 -3 2 -6q1 -9 -4 -8h-178v-184h380v186h-98q-25 0 -52 -6l-20 34h170v156h-104q-21 0 -48 -6l-20 34h158l36 42l56 -46q6 -6 6 -12q0 -7 -32 -26v-310l4 -88q0 -15 -20 -24q-21 -9 -36 -8v46h-90v-321q0 -24 12 -30
t42 -6h90q23 3 32 18q9 16 12 45t6 128h20q3 -58 6 -86q2 -28 8 -46q4 -17 26 -29q-9 -30 -18 -42t-24 -22q-13 -8 -50 -14h-130q-43 0 -56 8q-9 7 -18 22q-8 12 -10 42v333h-100q-3 -123 -26 -194q-21 -70 -86 -129q-66 -59 -206 -116l-6 16q120 67 174 119q53 55 74 116
q21 59 24 188h-86v-22q1 -15 -18 -26q-19 -12 -38 -12l4 120v392l48 -28q60 24 154 96q51 -45 52 -50q-1 -6 -4 -8q-3 0 -20 -2q-18 0 -62 -18v0v0zM90 872l56 -40h114l32 40l54 -38q12 -6 12 -14q-1 -3 -34 -30v-362l4 -92q0 -12 -14 -24q-16 -13 -40 -16v80h-134v-92
q0 -12 -20 -24q-19 -12 -34 -12l4 134v490v0v0zM140 406h134v396h-134v-396v0v0z" />
  </g>

</svg>
