<?xml version="1.0" standalone="no"?>
<!DOCTYPE svg PUBLIC "-//W3C//DTD SVG 1.1//EN" "http://www.w3.org/Graphics/SVG/1.1/DTD/svg11.dtd" >
<svg xmlns="http://www.w3.org/2000/svg" xmlns:xlink="http://www.w3.org/1999/xlink" version="1.1" viewBox="0 -36 256 256">
  <g transform="matrix(1 0 0 -1 0 220)">
   <path fill="currentColor"
d="M55 106h10v54h-10v-54zM75 160v-54h11v54h-11zM44 82q1 15 1 26v44q0 11 -1 23l11 -8h10v29q-11 -2 -25 -5v3q39 14 52 24l11 -13v18h-67q1 -85 -3 -131t-23 -76l-2 4q14 36 16 95t0 126l13 -10h66l6 7l12 -14l-7 -6v-75q0 -72 31 -94t88 -22q2 11 3 22h4q2 -18 7 -26.5
t-10 -10.5t-51.5 5.5t-60.5 36t-22 106.5l-7 -3v-61l-11 -5v7h-10v-36q10 2 20 5q-3 6 -7 13l3 2q13 -13 18.5 -24.5t0.5 -20.5t-7.5 3.5t-5.5 21.5q-36 -14 -59 -24l-8 14q18 2 35 8v38h-10v-9zM75 198v-31h10l6 7l12 -12v44q-8 -1 -13 -2.5t-15 -5.5zM147 124
q12 -5 15.5 -8.5t0.5 -9.5t-6 1t-11 14zM137 61l-8 10q2 2 2 12v31q0 6 -1 15l16 -9l-4 -5v-41l23 9l1 -3q-28 -16 -29 -19zM224.5 86q2.5 -11 8.5 -17l8 17l3 -3q-3 -7 -4 -13.5t4 -14.5l-2 -2q-10 1 -18.5 11t-10.5 25.5t-2 39.5l17 -9l-5 -6q-1 -17 1.5 -28zM226 132
l-13 -3v3h-69v-1l-12 -3q1 13 1 29.5t-1 31.5l11 -7h72l5 8l11 -12l-6 -6q0 -25 1 -40zM144 139h69v36h-69v-36zM200 164q-3 -2 -9 -5q9 -4 12.5 -7t0.5 -8.5t-6.5 -1t-15.5 11.5q-14 -9 -35 -15l-1 3q16 7 28 16q-7 4 -22 9l1 3q16 -3 28 -7q9 5 15 12l12 -8q-5 -1 -8 -3z
M148.5 203.5q3.5 -4.5 -1 -11.5t-8 3t-15.5 20q8 6 14 14.5t10 15.5l12 -10q-7 -1 -13.5 -7.5t-13.5 -12.5q12 -7 15.5 -11.5zM173.5 227q6.5 8 10.5 19l13 -10q-6 -3 -12 -8t-16 -15q19 -7 21.5 -11.5t-1.5 -10t-7.5 1t-20.5 20.5q6 6 12.5 14zM220 225.5
q-7 -5.5 -14 -12.5q15 -5 19.5 -9.5t0 -11.5t-8.5 1.5t-19 19.5q8 8 14 15.5t10 15.5l12 -11q-7 -2 -14 -7.5zM171 132l16 -9l-4 -7v-47l22 10l2 -3q-27 -16 -30 -23l-9 11q4 4 4 9v36q0 13 -1 23zM159.5 95q4.5 -3 0.5 -9t-6 -0.5t-10 16.5l2 1q9 -5 13.5 -8zM202.5 114
q4.5 -3 1 -8.5t-6.5 0t-10 15.5l1 2q10 -6 14.5 -9zM202.5 92.5q4.5 -2.5 0.5 -8.5t-7 0.5t-11 14.5l2 1q11 -5 15.5 -7.5z" />
  </g>

</svg>
