<?xml version="1.0" standalone="no"?>
<!DOCTYPE svg PUBLIC "-//W3C//DTD SVG 1.1//EN" "http://www.w3.org/Graphics/SVG/1.1/DTD/svg11.dtd" >
<svg xmlns="http://www.w3.org/2000/svg" xmlns:xlink="http://www.w3.org/1999/xlink" version="1.1" viewBox="0 -36 256 256">
  <g transform="matrix(1 0 0 -1 0 220)">
   <path fill="currentColor"
d="M72 232l-11 -20h44l10 11l18 -18h-58q17 -6 22 -14t-1 -14.5t-10.5 5t-18.5 23.5h-10q-11 -17 -35 -35l-3 2q14 17 24.5 35t17.5 40l21 -13zM174 231l-13 -18h50l11 10l15 -17h-60q22 -6 27.5 -11t5 -9.5t-4.5 -7.5t-10 5.5t-26 22.5h-13q-12 -13 -26 -25l-3 3
q14 19 22.5 33t14.5 29l20 -13zM130.5 177q6.5 -5 5 -10t-6 -9t-9 6.5t-16.5 21.5l3 3q17 -7 23.5 -12zM187 157l14 12l20 -19h-153q-14 1 -26 -2l-10 9h155zM104 134.5q5 -6.5 2.5 -11.5t-7.5 -8t-8 9t-13 24l3 2q18 -9 23 -15.5zM142 112q12 26 13 39l21 -11
q-11 -3 -28 -28h67l13 13l19 -20h-198q-14 2 -26 -1l-10 8h129zM173 25q7 0 7 13v74h14v-81q0 -18 -23 -24q-2 12 -29 16v4q24 -2 31 -2zM49 63q0 17 -1 32l16 -7h58l8 8l16 -11l-8 -5q0 -31 1 -40l-15 -8v11h-60v-7l-16 -5q1 15 1 32zM64 50h60v31h-60v-31z" />
  </g>

</svg>
