<?xml version="1.0" standalone="no"?>
<!DOCTYPE svg PUBLIC "-//W3C//DTD SVG 1.1//EN" "http://www.w3.org/Graphics/SVG/1.1/DTD/svg11.dtd" >
<svg xmlns="http://www.w3.org/2000/svg" xmlns:xlink="http://www.w3.org/1999/xlink" version="1.1" viewBox="0 -205 1024 1024">
  <g transform="matrix(1 0 0 -1 0 819)">
   <path fill="currentColor"
d="M245 670h-107v-133h98q8 66 9 133zM285 537h125v133h-117q-2 -69 -8 -133zM246 838h-108v-137h108v137zM294 701h116v137h-116v-137zM439 437q21 -6 43 -13q7 -2 7 -5q0 -5 -4 -9q-19 -28 -40 -71q-13 -29 -35 -84q39 8 76 12v1q-11 27 -27 45q-5 7 -1 14q6 7 16 -3
q41 -31 60 -58q14 -18 13 -28q-4 -21 -17 -31q-14 -10 -20 -9q-5 0 -9 19q-3 16 -7 29q-69 -28 -84 -35q-12 -7 -18 -14q-7 -8 -10 1q-11 21 -29 39q-7 10 0 11q15 4 22 11q7 6 17 34q24 62 40 138q1 7 7 6zM856 768l25 26q5 7 14 1q31 -23 53 -42q7 -8 -2 -9
q-17 -3 -26 -12q-8 -9 -8 -19v-148q1 -68 8 -167q0 -13 -10 -19q-45 -26 -49 -25q-4 2 -3 18q5 58 6 164v194h-244v-159q-1 -107 0 -182q-1 -15 -38 -40q-8 -4 -12 -4q-6 1 -5 20q4 100 7 206v132q-1 32 -7 78q-2 10 1 11q1 0 40 -31h88q0 1 1 1q17 79 18 136h-98
q-42 -1 -73 -7q-8 -3 -11 6q-4 18 -19 30q-7 7 -4 11q4 3 11 -1q38 -8 84 -8h249q6 0 12 7l36 41q7 7 14 0q26 -26 44 -48q11 -14 4 -24q-5 -6 -18 -7h-176q-16 -58 -50 -137h119q12 0 19 7zM692 267q-30 -50 -133 -116q-17 -10 -23 0q-5 11 7 17q68 55 99 100
q101 126 71 371q-2 16 10 13q54 -17 72 -27q14 -8 1 -14q-4 -1 -7 -4q-23 -13 -23 -55q0 -93 -24 -180q81 -51 136 -100q32 -37 33 -59q4 -24 -9 -40q-13 -15 -19 -16q-6 0 -16 19q-59 115 -132 176q-18 -41 -43 -85zM342 66q-20 0 -36 16q-16 15 -16 58v366h-9
q-5 -39 -12 -76q-27 -128 -78 -222q-56 -103 -137 -161q-17 -12 -23 1t10 26q76 72 115 151q48 98 70 230q3 26 7 51h-95v-43q0 -8 -6 -9q-20 -8 -39 -17q-9 -3 -8 12q4 63 5 210v152q-1 36 -5 82q-2 12 2 13q3 1 10 -6q12 -13 36 -31h65q8 22 17 52q11 40 12 71q1 5 2 6
q3 2 12 -1q34 -13 58 -25q7 -4 6 -8q-2 -4 -12 -8q-15 -6 -33 -36q-17 -23 -30 -51h160q6 0 9 4l18 28q7 8 14 1q29 -19 57 -41q9 -8 8 -12q-2 -5 -9 -9q-26 -12 -27 -19q-2 -6 -2 -13v-232q0 -36 6 -97q1 -11 -5 -12q-43 -15 -47 -14q-2 1 -2 11v42h-72v-355q1 -21 8 -28
q8 -9 21 -9h514q17 1 26 5q8 5 15 23q16 35 32 114q1 12 11 11q10 -2 9 -12q-4 -68 3 -99q5 -19 15 -23q5 -3 2 -7q-10 -30 -28 -43q-22 -17 -56 -17h-568z" />
  </g>

</svg>
