<?xml version="1.0" standalone="no"?>
<!DOCTYPE svg PUBLIC "-//W3C//DTD SVG 1.1//EN" "http://www.w3.org/Graphics/SVG/1.1/DTD/svg11.dtd" >
<svg xmlns="http://www.w3.org/2000/svg" xmlns:xlink="http://www.w3.org/1999/xlink" version="1.1" viewBox="0 -36 256 256">
  <g transform="matrix(1 0 0 -1 0 220)">
   <path fill="currentColor"
d="M60 181h147l13 13l18 -20h-178v-40q1 -41 -13.5 -69.5t-33.5 -46.5l-4 3q18 23 27 47t10 59t0 62zM96 104h104v23h-104v-23zM214 98l-14 -6v5h-104q-1 -31 -14 -52.5t-45 -37.5l-2 4q27 22 35.5 38.5t10 29t1.5 25v36.5l15 -6h103l6 9l17 -13l-9 -5v-27zM139 59v-20
q-2 -15 13 -13h46q17 -1 18.5 6.5t1.5 16.5h6q-1 -21 11 -23q-7 -13 -30 -12h-57q-24 -1 -24 18v44q0 1 -1 16l24 -8l-8 -7v-11h58l11 13l17 -20h-86zM126 209h-38q0 -7 1 -18l-16 -6q1 14 1 24h-25q-12 0 -21 -2l-9 9h55q0 20 -1 31l22 -8l-7 -7v-16h12l13 11zM159 211
q-10 0 -19 -2l-10 9h35q0 15 -1 28l22 -9l-7 -7v-12h29l14 11l15 -18h-58q-1 -3 1 -21l-16 -5q1 22 1 26h-6zM67 135l-2 4q25 8 33.5 18t9.5 19h16q-8 -20 -20 -28t-37 -13zM155 176h14v-14q0 -8 13 -7q19 0 24 2t12.5 -5.5t-5.5 -7.5h-12q-34 -1 -40 2t-6 19v11z" />
  </g>

</svg>
