<?xml version="1.0" standalone="no"?>
<!DOCTYPE svg PUBLIC "-//W3C//DTD SVG 1.1//EN" "http://www.w3.org/Graphics/SVG/1.1/DTD/svg11.dtd" >
<svg xmlns="http://www.w3.org/2000/svg" xmlns:xlink="http://www.w3.org/1999/xlink" version="1.1" viewBox="0 -205 1024 1024">
  <g transform="matrix(1 0 0 -1 0 819)">
   <path fill="currentColor"
d="M742 772l46 -30h110l24 30l42 -34q9 -3 10 -12q0 -3 -24 -18v-64l4 -50q0 -9 -14 -20q-13 -10 -38 -10v32h-112v-4q2 -9 -16 -18q-15 -9 -36 -8l4 66v140v0v0zM790 620h112v98h-112v-98v0v0zM394 862h180v108l78 -24q3 -1 4 -8q0 -4 -30 -16v-60h142v112l74 -26
q6 -1 6 -8q0 -4 -30 -16v-62h86l44 48l54 -56q3 -4 4 -4q7 -12 0 -12h-188v-32q-1 -13 -16 -22q-13 -7 -34 -8v62h-142v-36q-3 -12 -24 -18q-22 -6 -28 -6v60h-96q-21 0 -68 -8l-16 32v0v0zM452 772l52 -30h108l24 28l40 -30q9 -6 10 -14q-1 -3 -22 -20v-52l4 -52
q-3 -14 -18 -22q-16 -7 -34 -8v20h-118v-8q1 -12 -10 -20q-12 -9 -42 -8l6 78v138v0v0zM498 616h118v102h-118v-102v0v0zM996 77h-472v-16q1 -17 -16 -28q-18 -11 -36 -14l4 98v269q-51 -57 -104 -102l-10 12q69 84 108 144q39 59 84 134l62 -34q9 -10 -2 -16
q-22 -1 -34 -14t-36 -46h338l36 38l56 -48q3 0 4 -6q0 -7 -8 -8h-222v-94h108l40 36l56 -46q2 -1 2 -8q0 -6 -6 -6h-200v-92h124l34 40l50 -48q13 -11 -4 -16h-204v-105h150l42 39l54 -47q10 -8 2 -16v0v0zM524 101h174v105h-174v-105v0v0zM698 230v92h-174v-92h174v0v0z
M698 346v94h-174v-94h174v0v0zM662 564l6 12q51 -15 76 -30q22 -16 26 -32q3 -16 -6 -28q-9 -13 -26 -10q-15 0 -20 16q-5 14 -16 32q-10 18 -40 40v0v0zM318 790l34 42l54 -48q3 -3 4 -8q0 -12 -12 -12h-294q-18 1 -42 -10l-24 36h280v0v0zM86 658h190l32 42l54 -48
q2 -3 2 -8q0 -12 -12 -12h-176q-37 0 -68 -8l-22 34v0v0zM94 438l60 -44h130l28 34l58 -38q6 -6 6 -8q0 -6 -32 -30v-152l4 -81q1 -12 -16 -24q-15 -12 -36 -16v81h-152v-61q0 -18 -18 -30q-18 -14 -36 -14l4 119v264v0v0zM144 186h152v182h-152v-182v0v0zM122 966l10 10
q85 -49 104 -76t18 -48q0 -22 -12 -32q-13 -11 -28 -6q-16 3 -20 22q-2 19 -10 44q-6 25 -62 86v0v0zM86 526h190l30 42l56 -48q2 -3 2 -8q0 -12 -12 -12h-190q-34 0 -58 -8l-18 34v0v0z" />
  </g>

</svg>
