<?xml version="1.0" standalone="no"?>
<!DOCTYPE svg PUBLIC "-//W3C//DTD SVG 1.1//EN" "http://www.w3.org/Graphics/SVG/1.1/DTD/svg11.dtd" >
<svg xmlns="http://www.w3.org/2000/svg" xmlns:xlink="http://www.w3.org/1999/xlink" version="1.1" viewBox="0 -205 1024 1024">
  <g transform="matrix(1 0 0 -1 0 819)">
   <path fill="currentColor"
d="M462 398l44 -34h308l28 34l58 -40l4 -8q0 -7 -26 -26v-193l4 -68q1 -12 -16 -24q-16 -13 -40 -14v66h-312v-40q0 -7 -20 -20q-21 -13 -36 -14l4 131v250v0v0zM514 117h312v95h-312v-95v0v0zM514 238h312v98h-312v-98v0v0zM624 956q9 -13 -8 -16q-24 -7 -36 -20
q-9 -10 -24 -28h172l34 30l54 -50q11 -7 2 -16q-36 1 -102 -48l-28 -24h174l30 36l60 -44q5 -8 -4 -16l-24 -16v-158l2 -56q0 -12 -20 -18q-19 -8 -32 -6v28h-410q-6 -9 -20 -12q-15 -4 -30 -4l6 74v138q-35 -42 -76 -72l-10 10q51 57 118 156q65 99 98 166l74 -34v0v0z
M468 560h178v82h-178v-82v0v0zM698 642v-82h176v82h-176v0v0zM468 666h178v92h-178v-92v0v0zM698 758v-92h176v92h-176v0v0zM468 784h184l72 84h-188l-68 -84v0v0zM422 500h20q-2 -60 -10 -86q-7 -27 -22 -44q-14 -16 -34 -20q-21 -4 -30 4q-10 9 -8 24q3 12 22 24
q18 11 36 32q17 18 26 66v0v0zM522 518l12 8q45 -39 64 -62q18 -21 18 -42q1 -18 -10 -32q-10 -13 -28 -8q-18 3 -20 28q-3 24 -6 42t-30 66v0v0zM672 516l12 8q51 -33 72 -54q20 -21 26 -38q3 -19 -6 -34q-9 -16 -30 -10q-18 2 -20 26q-3 21 -12 40t-42 62v0v0zM856 488
l8 12q74 -33 104 -60q26 -24 32 -48q3 -21 -8 -36q-13 -12 -28 -6q-14 6 -22 30q-9 23 -24 46q-16 23 -62 62v0v0zM114 926l6 16q57 -18 90 -32q33 -12 48 -30t18 -38q3 -22 -8 -34q-12 -14 -26 -12q-13 3 -20 18q-7 16 -16 32t-26 32q-15 15 -66 48v0v0zM42 694l6 16
q56 -15 92 -26q32 -13 50 -28q17 -16 20 -38q3 -20 -6 -34q-9 -15 -26 -14q-16 0 -22 16q-6 12 -14 30q-7 17 -28 34q-18 17 -72 44v0v0zM192 404q-18 -57 -48 -60h-92l-2 -20q39 -2 72 -10q30 -6 40 -18q8 -12 10 -42q0 -30 -8 -84q-10 -53 -8 -81q1 -27 20 -36q18 -9 34 0
t20 36q3 25 -6 83q-10 57 -10 94q-2 37 6 62t14 56l112 410l-20 8l-134 -398v0v0z" />
  </g>

</svg>
