<?xml version="1.0" standalone="no"?>
<!DOCTYPE svg PUBLIC "-//W3C//DTD SVG 1.1//EN" "http://www.w3.org/Graphics/SVG/1.1/DTD/svg11.dtd" >
<svg xmlns="http://www.w3.org/2000/svg" xmlns:xlink="http://www.w3.org/1999/xlink" version="1.1" viewBox="0 -154 1024 1024">
  <g transform="matrix(1 0 0 -1 0 870)">
   <path fill="currentColor"
d="M328 663q5 -11 -5 -12q-14 -1 -25 -17q-14 -36 -29 -70h164l29 36l57 -49q8 -11 -3 -12t-17 -7q-5 -5 -13 -34q-81 -361 -412 -482l-4 12q318 172 378 516h-189q-28 -59 -62 -110q55 -15 92 -38q39 -24 46 -60t-14 -44t-29 23t-31 57q-22 24 -73 49q-58 -84 -144 -153
l-8 10q149 172 198 312q26 68 21 79q-1 1 -1 2q-62 -30 -167 -62l-2 14q259 125 268 168q8 19 0 28l11 9l71 -56q14 -11 0 -14q-28 6 -60 -15q-31 -22 -97 -59zM872 534v-276q0 -26 -12 -48q-12 -21 -75 -30q-4 29 -46 44q-42 16 -81 24l2 14q113 -17 132 -17q20 0 27 6
q8 6 7 72v222h-207v-390l4 -97q-2 -39 -57 -46q5 39 7 189v361q-4 28 -20 41l15 11l45 -49h197l30 43l52 -42q18 -12 0 -19zM967 844q4 -11 -10 -7q-48 -3 -67 -26q-14 -12 -70 -68l-13 10l62 94h-714q-1 -53 -23 -99q-33 -55 -65 -28q-13 16 6 35t38 46t31 99h15
q0 -17 -1 -33h703l45 45zM580 777l3 15q106 -19 155 -38q50 -18 78 -39q55 -52 16 -76q-16 -6 -45 29q-28 35 -67 58q-39 22 -140 51zM398 993l4 13q76 -18 101 -33q26 -14 37 -31q22 -42 -15 -54q-17 -2 -23 17q-6 20 -25 40q-18 21 -79 48z" />
  </g>

</svg>
