<?xml version="1.0" standalone="no"?>
<!DOCTYPE svg PUBLIC "-//W3C//DTD SVG 1.1//EN" "http://www.w3.org/Graphics/SVG/1.1/DTD/svg11.dtd" >
<svg xmlns="http://www.w3.org/2000/svg" xmlns:xlink="http://www.w3.org/1999/xlink" version="1.1" viewBox="0 -205 1024 1024">
  <g transform="matrix(1 0 0 -1 0 819)">
   <path fill="currentColor"
d="M116 964l52 -42h216l26 40l62 -44q6 -6 -2 -14l-20 -16v-170l4 -72q1 -16 -16 -26q-18 -9 -38 -12v36h-234v-474l4 -105q1 -16 -22 -30q-24 -12 -36 -12l4 143v798v0v0zM882 958l64 -42q7 -4 8 -10q0 -6 -14 -14l-16 -12v-751q2 -48 -16 -76q-18 -23 -60 -38
q-9 30 -30 44q-22 16 -98 38l4 16l100 -16q21 -2 34 4q12 6 12 32v511h-234v-16q-7 -9 -22 -14q-15 -6 -32 -6l4 110v236l46 -34h218l32 38v0v0zM636 894v-100h236v100h-236v0v0zM636 768v-96h236v96h-236v0v0zM168 896v-102h232v102h-232v0v0zM168 768v-98h232v98h-232v0v0
zM296 450l54 -34h138l28 32l48 -32q12 -6 12 -14q-1 -4 -28 -26v-84l4 -40q3 -13 -14 -26q-18 -12 -38 -12v46h-156v-36q1 -15 -16 -24q-18 -10 -36 -10l4 72v188v0v0zM344 284h156v108h-156v-108v0v0zM218 520h510l30 40l52 -46q3 -7 4 -10q0 -10 -12 -10h-118v-308
q3 -45 -18 -69q-20 -24 -58 -36q-6 30 -30 44q-24 15 -86 29l4 20q60 -13 84 -20q24 -6 40 4q16 9 14 58v278h-352q-22 0 -46 -8l-18 34v0v0z" />
  </g>

</svg>
