<?xml version="1.0" standalone="no"?>
<!DOCTYPE svg PUBLIC "-//W3C//DTD SVG 1.1//EN" "http://www.w3.org/Graphics/SVG/1.1/DTD/svg11.dtd" >
<svg xmlns="http://www.w3.org/2000/svg" xmlns:xlink="http://www.w3.org/1999/xlink" version="1.1" viewBox="0 0 2048 2048">
  <g transform="matrix(1 0 0 -1 0 2048)">
   <path fill="currentColor"
d="M748 1818l61 72l72 -50q16 -12 27 -24q12 -11 14 -22q2 -10 -7 -22l-31 -19l-26 -15l1 -342v-49q0 -5 4 -50l4 -53q1 -16 0 -23q-4 -16 -17 -25q-12 -10 -36 -12q-23 -3 -38 5q-14 8 -14 21v28h-436v-17q0 -12 -4 -20q-5 -8 -18 -15q-13 -6 -35 -6q-24 -1 -35 8
q-12 8 -14 18q-3 11 -1 27l4 41l6 59q2 25 2 49v385l-4 60l-4 65l119 -74h406zM762 1762h-436v-211h436v211zM326 1294h436v204h-436v-204zM124 964l-38 88q13 -4 28 -8q16 -3 62 -9q47 -6 140 -6h507l81 80l113 -86q10 -8 15 -14q4 -6 1 -19q-4 -12 -11 -15t-15 -3h-404
v-275h134l81 80l114 -86q8 -7 13 -14t2 -19q-4 -14 -9 -15q-4 -1 -20 -1h-315v-293q31 -15 67.5 -30t113.5 -37q78 -21 150 -35q73 -14 140 -21q66 -8 152 -12q85 -5 200 -9t206 -3q91 0 170 4q79 3 124 7l36 3l5 -45q-26 -5 -46 -11q-20 -5 -39 -20q-19 -16 -21 -43l-1 -8
q-40 -1 -102 -1q-62 1 -152 3q-91 2 -180 7q-88 4 -180 10q-93 7 -164 14q-72 8 -160 26q-87 18 -192 52q-106 35 -189.5 87.5t-131.5 94.5t-79 84l-38 49l-22 -90q-11 -40 -23 -70t-33 -73t-42 -78q-20 -34 -44 -67l-30 -42l-35 26l33 59q17 29 36 72q18 44 34 98
q15 54 26 104q10 51 16 100q7 50 11 101l6 93q3 55 3 68l-2 36l119 -23q18 -4 35 -11q18 -7 20 -22q3 -14 -7 -23.5t-39 -15.5l-34 -8q-6 -61 -6 -70l-10 -100q23 -33 43 -56t61 -57q42 -33 60 -42l42 -25v573h-194q-117 0 -179 -7zM1514 1138v-547q0 -36 4 -113
q5 -76 9 -110t3 -49q-2 -11 -6 -20t-14 -15q-9 -7 -29 -7q-22 -1 -34 3q-12 5 -20 14q-8 10 -8 25v819h-166l-161 -5q-15 -1 -18 -1l-13 -2l-38 88q13 -4 27 -7t68 -9q53 -6 135 -6h166v524q0 57 -3 98q-3 42 -3 48l-2 14l109 -25q54 -13 68 -21q15 -8 16 -22q2 -15 -11 -26
q-13 -10 -38 -18l-41 -13v-559h206l99 101l121 -107q10 -10 14 -16q4 -5 1 -17q-4 -11 -11 -15q-8 -4 -15 -4h-415zM1771 1728l115 -48q35 -15 34 -31q-2 -16 -14 -23q-13 -8 -28 -11l-33 -8l-38 -71q-18 -33 -39 -66q-20 -34 -54 -80q-34 -47 -59 -74l-33 -36l-28 26l30 47
q16 25 30 49q13 23 29 58t29 67q12 32 23 69q11 36 24 85zM1628 1036l42 -50q20 -25 52 -68l66 -93q34 -49 56 -89t38 -80q16 -39 24 -70t8 -60q1 -29 -10 -50q-12 -20 -32 -23q-21 -3 -35 7q-13 8 -21 26q-8 17 -16 55t-18 78q-9 40 -22 79q-14 39 -40 92q-25 52 -48 94
l-43 73l-31 55zM1220 1042l128 -52q25 -11 32 -18t6 -19q-2 -21 -23 -27l-22 -2l-48 -7q-16 -43 -25 -65q-10 -23 -43 -90q-33 -66 -53 -102q-20 -35 -56 -82q-35 -46 -61 -74l-43 -46l-28 22l40 62q20 32 40 68q21 36 38 75q18 39 38 93q21 53 36 100q14 48 28 101z
M1092 1699l49 -50l51 -55q25 -29 54 -71q30 -42 44 -71t20 -55t6 -49q1 -22 -10 -43q-12 -21 -41 -20q-15 0 -24 8t-15 19q-5 12 -9 35l-8 46q-5 25 -14 55q-9 29 -31 74q-23 45 -37 67l-29 41l-31 45z" />
  </g>

</svg>
