<?xml version="1.0" standalone="no"?>
<!DOCTYPE svg PUBLIC "-//W3C//DTD SVG 1.1//EN" "http://www.w3.org/Graphics/SVG/1.1/DTD/svg11.dtd" >
<svg xmlns="http://www.w3.org/2000/svg" xmlns:xlink="http://www.w3.org/1999/xlink" version="1.1" viewBox="0 -205 1024 1024">
  <g transform="matrix(1 0 0 -1 0 819)">
   <path fill="currentColor"
d="M372 972l78 -30q6 -1 4 -10q0 -3 -30 -20v-54h214v120l80 -30q6 -1 4 -10q0 -3 -32 -20v-60h174l36 50l64 -62q3 -1 4 -8q-1 -6 -16 -6h-262v-36l4 -26q3 -18 -18 -30q-18 -13 -42 -10l4 60v42h-214v-36l4 -26q-2 -15 -22 -26q-18 -9 -38 -8l4 60v36h-236q-22 -1 -70 -10
l-18 36h324v114v0v0zM708 634q54 86 84 152l62 -38q9 -8 -2 -16q-25 1 -46 -22q-21 -25 -68 -76h134l40 44q64 -56 62 -64q0 -7 -12 -8h-224v-90h94l26 38l58 -44q6 -6 6 -8q0 -7 -30 -28v-353l4 -52q0 -15 -20 -28q-21 -13 -36 -12v78h-378v-48q0 -17 -20 -26
q-19 -9 -34 -10l4 82v439l50 -28h100v90h-140q-13 0 -50 -6l-16 34h352v0v0zM462 131h378v91h-378v-91v0v0zM462 248h378v84h-96q-29 1 -40 14q-12 13 -14 50v94h-80q1 -99 -34 -144q-36 -45 -114 -72v-26v0v0zM690 516v90h-80v-90h80v0v0zM462 300q54 25 78 68t22 122h-100
v-190v0v0zM492 764l8 12q54 -21 84 -36q27 -15 40 -38q10 -22 0 -40q-12 -16 -30 -14q-19 0 -26 22q-6 19 -18 38q-13 19 -58 56v0v0zM738 410q-1 -22 4 -32q3 -10 18 -10h80v122h-102v-80v0v0zM240 632q48 45 100 112q53 -38 56 -46q3 -6 -2 -8q-6 -2 -18 -4q-13 0 -38 -24
q-25 -21 -76 -66q35 -63 56 -134q18 -72 22 -150q3 -78 -6 -132q-7 -53 -38 -89q-31 -33 -86 -52q-7 31 -26 44q-18 12 -96 36l6 18q81 -14 108 -14q27 -1 46 10q18 8 30 35q11 27 14 70q3 41 0 82q0 42 -12 108q-76 -111 -220 -222l-12 10q129 132 216 270q-16 59 -34 86
q-67 -66 -160 -114l-10 12q82 63 152 138q-45 66 -96 126l12 10q60 -49 112 -112v0v0z" />
  </g>

</svg>
