<?xml version="1.0" standalone="no"?>
<!DOCTYPE svg PUBLIC "-//W3C//DTD SVG 1.1//EN" "http://www.w3.org/Graphics/SVG/1.1/DTD/svg11.dtd" >
<svg xmlns="http://www.w3.org/2000/svg" xmlns:xlink="http://www.w3.org/1999/xlink" version="1.1" viewBox="0 -205 1024 1024">
  <g transform="matrix(1 0 0 -1 0 819)">
   <path fill="currentColor"
d="M856 812q-25 -4 -46 -32t-98 -124l138 16q32 52 58 98l56 -38q13 -8 -6 -16q-24 -4 -42 -28q-16 -24 -74 -98q-57 -73 -114 -130l182 16q-20 42 -52 78l8 10q66 -46 94 -82q24 -37 28 -58q3 -21 -8 -36q-10 -13 -26 -8q-15 5 -20 26q-4 18 -14 48l-70 -8v-323
q2 -39 -10 -60q-9 -22 -54 -32q-2 32 -28 42q-25 10 -76 28l6 16q60 -15 90 -18q27 0 28 20v315q-45 -7 -66 -16q-18 -9 -42 -24l-40 74q42 3 58 18q54 59 124 164q-74 -19 -100 -28q-27 -10 -60 -28l-40 66q30 2 58 20q60 83 102 178l60 -28q16 -9 -4 -18v0v0zM932 910
q-23 -3 -94 -18q-72 -15 -188 -36l-6 18q88 20 170 46q80 26 130 52q51 -48 54 -54t-2 -8q-4 -3 -22 0t-42 0v0v0zM622 133q62 96 98 201l56 -28q8 -6 2 -14q-15 -6 -24 -12q-7 -6 -34 -44q-24 -40 -84 -113l-14 10v0v0zM876 324l8 10q57 -43 84 -80q28 -37 32 -64
q3 -25 -8 -38q-12 -11 -26 -9q-15 3 -18 29q-3 23 -18 62t-54 90v0v0zM528 952q6 -6 4 -12q-3 -4 -18 -10q-13 -6 -22 -20q-9 -12 -36 -66h80l26 30l54 -42q6 -6 4 -12q0 -6 -24 -14q-18 -13 -36 -40q-19 -27 -40 -66h54l26 26l46 -36q3 -4 4 -8q1 -6 -28 -24v-234l4 -68
q-1 -13 -16 -26q-15 -10 -32 -10v32h-172v2q1 -12 -16 -26q-15 -13 -32 -14l4 88v270q-39 -60 -66 -90l-10 10q38 63 80 150q40 87 98 240l64 -30v0v0zM406 378h62v138h-62v-138v0v0zM512 378h66v138h-66v-138v0v0zM406 542h62v132h-62v-132v0v0zM512 674v-132h66v132h-66v0
v0zM408 700h86l48 118h-98q-36 -69 -56 -102l20 -16v0v0zM338 278h20v-98q-1 -40 -16 -63q-12 -20 -30 -26q-17 -3 -28 6q-9 9 -6 24q3 16 22 29q15 14 24 32q8 15 14 96v0v0zM394 290l14 8q34 -51 44 -80q8 -27 10 -50q0 -21 -12 -33q-11 -13 -28 -6q-15 9 -12 31
q3 24 4 52q-1 27 -20 78v0v0zM472 304l10 8q33 -33 52 -62q16 -27 20 -48q2 -22 -10 -34q-12 -13 -26 -8q-13 3 -14 34q0 29 -6 50q-7 21 -26 60v0v0zM550 306l10 10q50 -42 64 -62q11 -18 14 -36q3 -17 -8 -28q-12 -12 -24 -6q-12 3 -18 24q-4 21 -10 42q-5 20 -28 56v0v0z
M288 938l64 -40q9 -12 -2 -18q-27 -12 -42 -44q-40 -96 -86 -210q37 -45 62 -80q24 -37 36 -82t10 -78q-1 -31 -20 -62q-16 -30 -64 -54q-9 29 -26 40q-19 9 -58 22l2 16q33 -6 54 -8q18 -1 36 4q17 5 26 34q9 27 -2 70q-8 42 -22 78q-15 32 -56 98l68 248h-114v-714l2 -99
q0 -14 -18 -26q-18 -13 -36 -14l4 143v784l56 -46h100l26 38v0v0z" />
  </g>

</svg>
