<?xml version="1.0" standalone="no"?>
<!DOCTYPE svg PUBLIC "-//W3C//DTD SVG 1.1//EN" "http://www.w3.org/Graphics/SVG/1.1/DTD/svg11.dtd" >
<svg xmlns="http://www.w3.org/2000/svg" xmlns:xlink="http://www.w3.org/1999/xlink" version="1.1" viewBox="0 -36 256 256">
  <g transform="matrix(1 0 0 -1 0 220)">
   <path fill="currentColor"
d="M184 226.5q7 -8.5 0.5 -19.5t-11 3.5t-18.5 31.5l1 3q21 -10 28 -18.5zM216 200l14 12l15 -19h-100q-18 1 -26 -3l-8 10h105zM168 170l-8 -3q-23 -25 -45 -40l-2 3q27 25 40 56zM227.5 163q10.5 -9 6 -20.5t-8 -5t-10 16.5t-26.5 26l1 3q27 -11 37.5 -20zM183 67
q34 -38 65 -43v-4q-12 -2 -16 -12q-34 19 -57 47q-27 -34 -67 -48l-1 2q42 27 60 57q-14 31 -21 72l4 1q10 -35 24 -61q19 32 25 72l18 -13l-7 -6q-12 -39 -27 -64zM75 233q-5 -4 -8 -9.5t-9 -15.5h28l7 10l16 -17q-7 0 -13 -5.5t-18 -23.5h21l8 10l15 -13l-9 -6v-134
q0 -13 -17 -20q0 12 -22 18v4q16 -2 21.5 -2t5.5 4v53h-23q0 -17 1 -34l-14 -8q1 18 1 42h-23q-1 -44 -33 -79l-2 3q13 20 17 38t5 34t1 83q-7 -8 -22 -19l-1 3q18 20 33 51.5t16 44.5zM43 93h23v33h-23v-33zM43 133h23v32h-23v-32zM78 133h23v32h-23v-32zM78 93h23v33h-23
v-33zM40 176l5 -4h27l14 29h-30q-7 -11 -16 -25z" />
  </g>

</svg>
