<?xml version="1.0" standalone="no"?>
<!DOCTYPE svg PUBLIC "-//W3C//DTD SVG 1.1//EN" "http://www.w3.org/Graphics/SVG/1.1/DTD/svg11.dtd" >
<svg xmlns="http://www.w3.org/2000/svg" xmlns:xlink="http://www.w3.org/1999/xlink" version="1.1" viewBox="0 -144 1024 1024">
  <g transform="matrix(1 0 0 -1 0 880)">
   <path fill="currentColor"
d="M152 70v-16l-65 -32v306l-10 -15l-19 -24l-21 -22l-8 5l43 108l15 42v25l8 -2l12 42l14 63l61 -25l12 -14l-19 -6l-13 -36l-14 -33h4l16 -11l-9 -5h93l1 1l1 12l2 22l1 10l1 11l5 32l1 5h-1l4 10l-26 -12v262h-138l1 -13l1 -22v-21v-19l-2 -18l-3 -16l-5 -15l-6 -14
l-52 37l5 5l5 7l6 10l5 13l6 16l5 19l9 43l5 25l2 28h10l3 -28l2 -16h141v83h-141v21h237l54 54l64 -54v-21h-150v-83h142l32 27l59 -48l-27 -16l-13 -6l-18 -31l-20 -32l-8 -9l-5 -11l-10 4l4 11v12v12l1 13l1 11l3 37v5h-141v-230l-36 -19l56 -30l11 -16l-25 -4l-18 -24
l-14 -17l-8 -9l-5 -4h111l44 48l53 -48v-22h-172v-80h48l44 48l54 -48v-22h-146v-97h48l44 49l54 -49v-21h-146v-86h86l54 53l65 -53v-22h-355zM740 104l16 2l8 1l8 2l8 3l8 3l7 4l8 4l7 5l37 -53l-21 -13l-12 -5l-11 -5l-12 -4l-12 -3l-12 -3l-12 -1l-12 -1l-13 -1v32
l-107 16v17h117zM826 106l-3 3l-2 3l-2 3l-2 4l-3 4l-4 5l6 6l9 14l9 22l9 31l8 38l6 45l6 53l5 60l3 66l2 62h-226l-16 -69l-70 -18l83 363h-128v21h322l54 54l64 -54v-21h-246l-58 -254h221l33 26l59 -48l-27 -16l-1 -1l-1 -47l-4 -69l-4 -61l-7 -55l-7 -48l-9 -42
l-10 -36l-12 -30l-16 -26l-20 -19l-4 6l-2 2l-3 4l-3 5l-8 12zM238 178h-86v-86h86v86zM238 296h-86v-97h86v97zM238 398h-86v-80h86v80zM407 624l43 -37v-22h-136v22h59zM188 624l43 -37v-22h-136v22h60zM37 672l52 -37l-21 -13l-24 5l-12 21zM399 718l32 -32v-22h-117v22
h61zM188 723l43 -37v-22h-123v22h47zM827 990l53 -37l9 -17l-23 -1l-17 -22l-35 -39l-25 -25l-14 -13l-12 -13l-8 6l9 16l6 17l42 93l9 24v1zM608 863l-3 11l-8 22l-5 11l-15 23l-19 23l-12 10l5 8l44 -20l14 -8l24 -20l11 -11l10 -12l9 -13l8 -14l-2 -25l-18 -16l-25 2
l-17 18z" />
  </g>

</svg>
