<?xml version="1.0" standalone="no"?>
<!DOCTYPE svg PUBLIC "-//W3C//DTD SVG 1.1//EN" "http://www.w3.org/Graphics/SVG/1.1/DTD/svg11.dtd" >
<svg xmlns="http://www.w3.org/2000/svg" xmlns:xlink="http://www.w3.org/1999/xlink" version="1.1" viewBox="0 -205 1024 1024">
  <g transform="matrix(1 0 0 -1 0 819)">
   <path fill="currentColor"
d="M104 964l52 -42h216l26 40l62 -44q6 -6 -2 -14l-20 -16v-170l4 -72q1 -16 -16 -26q-18 -9 -38 -12v36h-234v-474l4 -105q1 -16 -22 -30q-24 -12 -36 -12l4 143v798v0v0zM878 958l64 -42q7 -4 8 -10q0 -6 -14 -14l-16 -12v-751q2 -48 -16 -76q-18 -23 -60 -38
q-9 30 -30 44q-22 16 -98 38l4 16l100 -16q21 -2 34 4q12 6 12 32v511h-234v-14q-4 -10 -20 -16t-34 -6l4 110v236l46 -34h218l32 38v0v0zM632 894v-100h236v100h-236v0v0zM632 768v-96h236v96h-236v0v0zM156 896v-102h232v102h-232v0v0zM156 768v-98h232v98h-232v0v0z
M262 550h422l34 40l52 -48q3 -3 4 -8q0 -10 -12 -10h-222v-128h116l38 44q53 -46 58 -56q3 -9 -8 -14h-204v-180h178l38 42l54 -50q6 -18 -6 -18h-502q-21 0 -68 -8l-16 34h272v180h-122q-21 0 -56 -8l-16 34h194v128h-156q-21 1 -54 -10l-18 36v0v0zM604 340l10 10
q50 -27 74 -44q20 -18 26 -38q3 -18 -6 -32q-9 -15 -26 -12q-19 3 -22 24q-3 19 -12 38q-9 18 -44 54v0v0z" />
  </g>

</svg>
