<?xml version="1.0" standalone="no"?>
<!DOCTYPE svg PUBLIC "-//W3C//DTD SVG 1.1//EN" "http://www.w3.org/Graphics/SVG/1.1/DTD/svg11.dtd" >
<svg xmlns="http://www.w3.org/2000/svg" xmlns:xlink="http://www.w3.org/1999/xlink" version="1.1" viewBox="0 -36 256 256">
  <g transform="matrix(1 0 0 -1 0 220)">
   <path fill="currentColor"
d="M191 226l-1 10l22 -8l-7 -6q0 -8 1 -20l-15 -4v5h-56v-28h65q0 9 -1 19l22 -5l-7 -5v-17l-14 -4v5h-143l-6 -5l-13 10l6 3q0 12 -1 22l22 -7l-6 -4v-12h61v28h-51l-9 -7l-12 12l5 4q0 13 -1 23l22 -7l-7 -6v-12h53q0 18 -1 36l23 -8l-7 -6v-22h56v16zM136 12l-16 -5
q1 18 1 38h-83q-7 1 -19 -2l-9 9h111v15h-52v-2l-15 -5q1 11 1 31t-1 35l15 -5h116l9 10l15 -13l-9 -7v-22q0 -9 1 -23l-15 -4v5h-50v-15h81l13 11l17 -18h-111v-33zM69 97h117v17h-117v-17zM69 74h117v16h-117v-16zM129 141h-42q0 -6 1 -15l-16 -6q1 12 1 21h-19
q-15 0 -28 -2l-10 9h57q0 11 -1 20l22 -7l-7 -6v-7h14l12 8zM129 149h38q0 9 -1 20l22 -8l-7 -6v-6h32l13 10l16 -17h-61q0 -4 1 -14l-16 -5q1 15 1 19h-14q-8 1 -15 -3z" />
  </g>

</svg>
