<?xml version="1.0" standalone="no"?>
<!DOCTYPE svg PUBLIC "-//W3C//DTD SVG 1.1//EN" "http://www.w3.org/Graphics/SVG/1.1/DTD/svg11.dtd" >
<svg xmlns="http://www.w3.org/2000/svg" xmlns:xlink="http://www.w3.org/1999/xlink" version="1.1" viewBox="0 -36 256 256">
  <g transform="matrix(1 0 0 -1 0 220)">
   <path fill="currentColor"
d="M149 153l-9 -4q48 -31 108 -32v-5q-14 -1 -21 -12q-51 13 -92 46l-14 -10q21 -11 21 -16.5t-4 -9.5h34l7 8l16 -12l-8 -6v-10q0 -14 1 -30l-15 -5v6h-88v-35q15 3 47 10l2 -4q-44 -13 -59 -24l-9 13q5 5 5 17v72q-23 -12 -62 -23l-1 4q90 35 125 78zM85 103v-13h88v13
h-88zM85 83v-15h88v15h-88zM202 66l13 -14q-13 -1 -44 -12q29 -6 42 -11t14.5 -15.5t-22 3t-100.5 32.5l2 4q32 -5 59 -11q32 17 36 24zM87 110h43q-3 15 -13 24q-24 -15 -37 -20zM129 205q24 -8 48 -18q15 6 34 24l16 -13l-12 -2q-16 -6 -33 -12q41 -18 40 -34.5t-18.5 2
t-76.5 50.5zM90 188v-26q25 11 47 22l3 -3q-39 -25 -56 -42l-11 12q3 7 3 13v18q-20 -9 -62 -19l-1 4q34 11 55 22.5t44 27.5h-59q-10 0 -19 -2l-10 9h103q-6 10 -23 21l3 2q48 -9 28 -23h69l15 10l16 -17h-100q-7 -4 -21 -14t-24 -15z" />
  </g>

</svg>
