<?xml version="1.0" standalone="no"?>
<!DOCTYPE svg PUBLIC "-//W3C//DTD SVG 1.1//EN" "http://www.w3.org/Graphics/SVG/1.1/DTD/svg11.dtd" >
<svg xmlns="http://www.w3.org/2000/svg" xmlns:xlink="http://www.w3.org/1999/xlink" version="1.1" viewBox="0 -52 256 256">
  <g transform="matrix(1 0 0 -1 0 204)">
   <path fill="currentColor"
d="M23 121l7 -8h69l7 8l11 -10q3 -2 -1 -5l-5 -2v-64l1 -11q2 -10 -11 -11v19h-68v-13q1 -8 -11 -11v9q1 11 1 17v72q0 3 -4 8zM103 247l15 -11q2 -2 1 -2q0 -1 -2 -2q-6 1 -16 -2q-4 -1 -10 -2q-10 -2 -14 -3q0 -3 1 -10q1 -19 3 -27h24l8 10l16 -12q2 -1 2 -2q-1 -1 -3 -1
h-45q7 -33 28 -46q10 -4 12 12l7 23l3 -1q-1 -7 -2 -18q-1 -9 -2 -12q-1 -9 1 -12q3 -3 3 -6q-2 -4 -15 -1q-33 9 -46 61h-42v-40q1 1 4 2q10 6 37 20l2 -4q-3 -2 -11 -7q-13 -8 -20 -13q-16 -10 -17 -16l-13 12q4 3 8 7v77q-1 5 -6 11l2 2l11 -9q48 8 66 13q6 2 7 6
q1 1 1 2zM101 108h-68v-68h68v68zM141 199l10 -11h16l12 43h-35q-7 0 -12 -3l-8 8h100l8 10l17 -12q2 -1 2 -2q-1 -1 -3 -1h-55l-20 -43h40l11 11l12 -13q2 -2 1 -2q0 -1 -3 -2l-4 -2v-70l1 -34q-1 -4 -4 -7q-4 -3 -10 -4q2 19 2 45v73h-66v-84l1 -25q0 -5 -3 -8q-1 0 -3 -1
q-4 -2 -7 -2v9q1 21 1 38v76q0 7 -5 11zM177 161l20 -7q2 0 2 -1t-1 -2q-3 0 -7 -5v-32q0 -50 -24 -74q-22 -22 -51 -31l-1 4q27 13 45 33q21 25 20 68v37q-1 1 -2 4l-3 3zM69 202q-2 11 -2 22q-8 -1 -25 -2q-8 -1 -12 -1v-33h41v2q-2 5 -2 12zM192 60l1 4q1 0 3 -1
q20 -9 30 -16q11 -7 16 -15q6 -8 6 -14q-1 -6 -5 -7q-4 0 -9 10q-5 12 -13 19t-29 20z" />
  </g>

</svg>
