<?xml version="1.0" standalone="no"?>
<!DOCTYPE svg PUBLIC "-//W3C//DTD SVG 1.1//EN" "http://www.w3.org/Graphics/SVG/1.1/DTD/svg11.dtd" >
<svg xmlns="http://www.w3.org/2000/svg" xmlns:xlink="http://www.w3.org/1999/xlink" version="1.1" viewBox="0 -204 1024 1024">
  <g transform="matrix(1 0 0 -1 0 820)">
   <path fill="currentColor"
d="M263 881l60 -44h370l34 38l42 -27q20 -13 20 -24q-1 -7 -6.5 -13t-32.5 -18v-426q0 -6 1 -39t1.5 -50.5t1.5 -25t0 -10.5q-1 -6 -7.5 -14t-28.5 -5q-17 2 -17 17v18h-382v-16q0 -19 -23.5 -19.5t-26.5 11.5t-1 31q0 8 0.5 27.5t1.5 48t1 38.5v434q-2 20 -3 34t-1 17
l-4 17v0zM319 288h167v246h-167v-246zM534 288h167v246h-167v-246zM319 563h167v245h-167v-245zM534 808v-245h167v245h-167zM101 738l55 -10q41 -8 42.5 -22.5t-24.5 -21.5l-21 -5v-564h720v544q0 35 -1 52.5t-2 26.5l56 -10q41 -7 42.5 -21.5t-24.5 -22.5l-23 -7v-612
q0 -6 -5 -13.5t-20 -7.5q-11 -1 -17 3.5t-6 9.5v28h-719q-28 -6 -36 -4q-12 1 -15 7.5t-3 15.5l1 16l1 22l1 23q1 8 1.5 24.5t0.5 26.5v443q0 35 -1.5 52.5t-2.5 26.5z" />
  </g>

</svg>
