<?xml version="1.0" standalone="no"?>
<!DOCTYPE svg PUBLIC "-//W3C//DTD SVG 1.1//EN" "http://www.w3.org/Graphics/SVG/1.1/DTD/svg11.dtd" >
<svg xmlns="http://www.w3.org/2000/svg" xmlns:xlink="http://www.w3.org/1999/xlink" version="1.1" viewBox="0 -205 1024 1024">
  <g transform="matrix(1 0 0 -1 0 819)">
   <path fill="currentColor"
d="M138 286h152v266h-152v-266v0v0zM138 578h152v240h-152v-240v0v0zM846 738l54 -42q9 -6 10 -12q0 -5 -36 -28v-170h40l30 38l50 -48q3 -4 4 -10q-1 -7 -16 -8h-108v-220h28l34 42l58 -58q3 -4 0 -8q0 -4 -6 -4h-116q-6 -59 -12 -85q-6 -30 -30 -54q-22 -23 -64 -38
q-9 25 -30 40q-21 14 -90 34l6 20q83 -18 106 -22q21 0 40 14q18 14 24 91h-308l-28 -30l-66 42l36 32l28 204h-42q-20 0 -64 -8l-22 34h132l34 254l50 -38h242l32 38v0v0zM826 674h-264l-26 -190h290v190v0v0v0zM826 458h-294l-32 -222h326v222v0v0v0zM616 640l10 10
q49 -24 74 -48q24 -22 24 -40q0 -19 -8 -32q-10 -13 -26 -10q-14 2 -16 22q-3 18 -12 42q-8 22 -46 56v0v0zM92 888l52 -44h134l34 42l44 -42q12 -6 12 -12q0 -3 -32 -30v-510l4 -80q-1 -13 -16 -26q-16 -12 -34 -12v86h-152v-84q1 -23 -16 -34q-16 -11 -34 -15l4 113v648v0
v0zM638 930q6 -3 6 -6q3 -9 -8 -12q-16 0 -34 -14q-19 -15 -52 -66h308l42 48l64 -58l4 -8q0 -7 -8 -8h-430q-78 -120 -140 -174l-10 10q54 75 106 166q51 89 84 158l68 -36v0v0zM612 408l10 10q49 -33 68 -56q19 -22 20 -40q0 -19 -8 -32q-10 -14 -26 -12q-15 2 -18 26
q-3 21 -8 42q-4 20 -38 62v0v0z" />
  </g>

</svg>
