<?xml version="1.0" standalone="no"?>
<!DOCTYPE svg PUBLIC "-//W3C//DTD SVG 1.1//EN" "http://www.w3.org/Graphics/SVG/1.1/DTD/svg11.dtd" >
<svg xmlns="http://www.w3.org/2000/svg" xmlns:xlink="http://www.w3.org/1999/xlink" version="1.1" viewBox="0 -205 1024 1024">
  <g transform="matrix(1 0 0 -1 0 819)">
   <path fill="currentColor"
d="M548 946l62 -42h238l30 38l62 -48q3 -4 4 -8q1 -6 -28 -24v-256l4 -78q1 -12 -16 -24q-16 -13 -40 -16v60h-52v-384q-1 -41 14 -49q11 -7 32 -8h28q20 4 32 16q10 10 14 27q5 15 8 150h22q2 -93 8 -120t30 -45q-18 -48 -44 -60q-24 -12 -42 -12h-66q-48 1 -68 22
q-18 22 -18 64v399h-70q4 -99 -18 -222q-21 -121 -78 -183q-57 -64 -168 -110l-6 16q81 50 132 109q51 57 72 154q18 94 16 236h-40v-36q0 -13 -14 -22q-12 -10 -44 -10l4 124v342v0v0zM602 576h262v298h-262v-298v0v0zM116 946l62 -42h234l30 38l62 -48q3 -4 4 -8
q1 -6 -28 -24v-256l4 -78q1 -12 -16 -24q-16 -13 -40 -16v60h-52v-386l132 82l10 -16q-91 -71 -124 -103q-30 -32 -54 -68l-58 60l44 32v399h-66q4 -99 -10 -212q-15 -114 -60 -180q-46 -66 -136 -125l-8 14q66 62 106 125q38 63 50 150q11 87 8 228h-40v-36q0 -13 -14 -22
q-12 -10 -44 -10l4 124v342v0v0zM170 576h258v298h-258v-298v0v0z" />
  </g>

</svg>
