<?xml version="1.0" standalone="no"?>
<!DOCTYPE svg PUBLIC "-//W3C//DTD SVG 1.1//EN" "http://www.w3.org/Graphics/SVG/1.1/DTD/svg11.dtd" >
<svg xmlns="http://www.w3.org/2000/svg" xmlns:xlink="http://www.w3.org/1999/xlink" version="1.1" viewBox="0 -140 1000 1000">
  <g transform="matrix(1 0 0 -1 0 860)">
   <path fill="currentColor"
d="M206 915l56 -33h430q18 21 23 25t12 4q16 0 22 -9l24 -24h-1q14 -12 14 -19q0 -8 -28 -18l6 1v-181q1 -3 1 -17q0 -35 -49 -35q-10 0 -12 5.5t-2 32.5h-430q1 -5 1 -15q0 -13 -16.5 -22.5t-29.5 -9.5q-18 0 -18 15q0 14 1 19v230zM147 524v22h309v42l-1 44l56 -10
q37 -10 37 -21q0 -9 -36 -22l7 1v-34h203l26 35q10 15 23 15q15 0 29 -14l42 -41l-6 -17h-317v-94h300l26 41l5 5h-1q6 9 18 9q16 0 28 -14h-1l40 -45l-7 -19h-859v23h388v94h-309zM747 347v-58h51l23 34l4 5h-1l5 5h-1q9 10 19 10q14 0 29 -18h-1l40 -44l-9 -14h-159v-123
q0 -32 -5 -43t-27 -29h1q-16 -19 -45 -19q-13 0 -21 15q-8 16 -12 17l-85 27l7 14l102 -14q22 0 22 36v119h-569v22h569v53l-1 54l60 -15q24 -6 24 -14q0 -10 -25 -21zM272 859v-83h430v83h-430zM272 753v-84h430v84h-430zM287 244l8 11q114 -40 140 -65q32 -30 32 -59
q0 -26 -24 -26q-19 0 -38 28q-37 54 -118 111zM845 471l-2 -1h1z" />
  </g>

</svg>
