<?xml version="1.0" standalone="no"?>
<!DOCTYPE svg PUBLIC "-//W3C//DTD SVG 1.1//EN" "http://www.w3.org/Graphics/SVG/1.1/DTD/svg11.dtd" >
<svg xmlns="http://www.w3.org/2000/svg" xmlns:xlink="http://www.w3.org/1999/xlink" version="1.1" viewBox="0 -150 1000 1000">
  <g transform="matrix(1 0 0 -1 0 850)">
   <path fill="currentColor"
d="M590 961l3 13q84 -22 106 -37q26 -13 37 -34q24 -47 -11 -54q-17 -1 -24 20q-8 25 -26 43q-19 21 -85 49zM587 558v-95h117v95h-117zM742 558v-95h119v95h-119zM587 449v-97h117v97h-117zM742 449v-97h119v97h-119zM318 869h-176v-214h176v214zM434 859l39 -28h413l30 38
l65 -47q8 -5 6.5 -7.5t-11.5 -2.5h-491v-227q11 -398 -161 -561l-10 12q78 111 104 227q29 115 28 320v225q-3 22 -23 39zM382 271l9 -16l-191 -80q-63 -27 -101 -47q-13 -6 -30 -30l-49 52l68 22v306q2 14 -26 41l8 10l77 -33q14 -6 6 -11q-18 -6 -30 -17v-284l93 31v420
h-74v-20q1 -21 -11 -30q-11 -11 -35 -15q4 38 7 141v177q-6 23 -18 41l15 11l39 -51h162l32 41l47 -48q8 -7 6.5 -11.5t-12.5 -6.5l-17 -9v-164l4 -58q2 -15 -9 -23q-8 -8 -34 -11v36h-63v-183h52l29 36l52 -45q8 -6 6.5 -8.5t-13.5 -2.5h-126v-204zM683 800l84 -35
q11 -4 6 -11q-22 -8 -31 -20v-52h104l31 39l65 -47q8 -5 6.5 -7.5t-12.5 -2.5h-194v-90h101l38 37l40 -46q7 -3 5.5 -6.5t-11.5 -5.5l-18 -9v-83l3 -120q1 -32 -39 -32v27h-119v-102h139l30 41l65 -49q8 -5 6.5 -7.5t-11.5 -2.5h-229v-94l4 -55q3 -36 -50 -43q7 56 8 156v36
h-151q-24 1 -43 -13l-32 31h226v102h-117q-1 -18 -11.5 -26.5t-32.5 -13.5q5 36 7 129v136q1 15 -17 36l10 15l35 -38h126v90h-111q-27 1 -44 -15l-32 33h187v61q0 16 -30 45z" />
  </g>

</svg>
