<?xml version="1.0" standalone="no"?>
<!DOCTYPE svg PUBLIC "-//W3C//DTD SVG 1.1//EN" "http://www.w3.org/Graphics/SVG/1.1/DTD/svg11.dtd" >
<svg xmlns="http://www.w3.org/2000/svg" xmlns:xlink="http://www.w3.org/1999/xlink" version="1.1" viewBox="0 -36 256 256">
  <g transform="matrix(1 0 0 -1 0 220)">
   <path fill="currentColor"
d="M93 51q-4 13 -11 24l4 2q22 -24 24 -35t-4 -16.5t-8 3.5t-4 16q-61 -13 -68 -19l-9 17q6 2 13 12t21 47h-13q-10 0 -19 -2l-9 9h25q0 102 -1 125l15 -11h37l11 11l13 -18h-62v-31h33l11 11l14 -18h-58v-31h33l11 12l14 -19h-58v-31h44l11 11l15 -18h-60l12 -9l-8 -5
q-18 -30 -31 -44zM146 29h54v54h-54v-54zM225 203h-100q0 -13 -1.5 -17.5t-6.5 -6.5t-9.5 0t3 11.5t10.5 28.5h4v-9h48q-4 19 -17 34l2 3q19 -10 25 -19t-4 -18h45l6 8l16 -14q-9 -1 -28 -25l-3 2zM164 176q-7 -3 -21 -15t-30 -22l-2 4q6 4 17.5 17.5t20.5 28.5zM219 166.5
q8 -6.5 7.5 -12t-3 -9t-7.5 2.5t-13.5 15t-20.5 18l2 3q27 -11 35 -17.5zM178 152q16 -22 35 -35t35 -18v-4q-13 -2 -18 -11q-16 11 -29 25t-26 37q-19 -30 -39 -49l11 -7h53l8 9l14 -13l-8 -6v-53l1 -12l-15 -6v13h-54v-10l-14 -5q1 20 1 46v41q-15 -11 -29 -17l-2 3
q20 14 37.5 37t29.5 53l17 -13q-4 -2 -8 -5z" />
  </g>

</svg>
