<?xml version="1.0" standalone="no"?>
<!DOCTYPE svg PUBLIC "-//W3C//DTD SVG 1.1//EN" "http://www.w3.org/Graphics/SVG/1.1/DTD/svg11.dtd" >
<svg xmlns="http://www.w3.org/2000/svg" xmlns:xlink="http://www.w3.org/1999/xlink" version="1.1" viewBox="0 -36 256 256">
  <g transform="matrix(1 0 0 -1 0 220)">
   <path fill="currentColor"
d="M64 14l-15 -7q1 46 1 118q-11 -36 -38 -68l-3 3q30 50 39 115h-8q-10 0 -19 -2l-9 9h38q0 29 -1 64l23 -10l-9 -7v-47h10l11 12l16 -19h-37v-27q22 -12 30.5 -19.5t3 -20.5t-12.5 3.5t-21 30.5q0 -108 1 -128zM182 169l14 14l21 -21h-75q-11 0 -19 -3l-9 10h68zM145 234
l-9 -5q-6 -15 -9 -26h76l14 14l19 -21h-111q-13 -29 -34 -50l-3 2q16 24 24.5 50.5t11.5 46.5zM182 136l7 10l16 -12l-8 -7q-1 -38 6.5 -62t22.5 -31q4 13 10 42l4 -1q-2 -13 -2 -31.5t6 -26.5t-9.5 -4t-28.5 18.5t-17.5 37.5t-4.5 60h-60q-10 0 -19 -2l-9 9h86z" />
  </g>

</svg>
