<?xml version="1.0" standalone="no"?>
<!DOCTYPE svg PUBLIC "-//W3C//DTD SVG 1.1//EN" "http://www.w3.org/Graphics/SVG/1.1/DTD/svg11.dtd" >
<svg xmlns="http://www.w3.org/2000/svg" xmlns:xlink="http://www.w3.org/1999/xlink" version="1.1" viewBox="0 -205 1024 1024">
  <g transform="matrix(1 0 0 -1 0 819)">
   <path fill="currentColor"
d="M562 694l52 -38h110l32 34l54 -44q10 -7 0 -16l-24 -14v-204l4 -78q1 -13 -18 -26q-18 -12 -36 -14v62h-122v-50q0 -13 -18 -26q-18 -12 -38 -14l4 120v308v0v0zM614 384h122v246h-122v-246v0v0zM504 868h420l34 44q51 -49 54 -58q4 -7 2 -10q-4 -4 -16 -4h-78v-733
q0 -29 -24 -50q-22 -20 -58 -32q-6 29 -32 46q-24 16 -108 40l6 20q120 -25 144 -18q24 9 22 27v700h-282q-21 0 -68 -8l-16 36v0v0zM56 910h366l38 46l54 -54q2 -4 2 -8q1 -10 -10 -10h-154v-154h64l28 38l56 -44q6 -6 6 -8q0 -7 -32 -26v-510l4 -77q0 -13 -18 -26
q-15 -12 -36 -12v70h-292v-48q0 -13 -18 -26q-18 -12 -36 -10l4 99v624l56 -44h68v154h-66q-29 0 -64 -8l-20 34v0v0zM132 162h292v140h-292v-140v0v0zM132 328h292v114q-85 -4 -100 14q-13 18 -14 42v206h-64v-58q-4 -96 -32 -158q-26 -61 -82 -112v-48v0v0zM352 704v-196
q0 -44 72 -30v226h-72v0v0zM310 730v154h-64v-154h64v0v0zM132 402q32 47 52 104q18 56 22 146v52h-74v-302v0v0z" />
  </g>

</svg>
