<?xml version="1.0" standalone="no"?>
<!DOCTYPE svg PUBLIC "-//W3C//DTD SVG 1.1//EN" "http://www.w3.org/Graphics/SVG/1.1/DTD/svg11.dtd" >
<svg xmlns="http://www.w3.org/2000/svg" xmlns:xlink="http://www.w3.org/1999/xlink" version="1.1" viewBox="0 -205 1024 1024">
  <g transform="matrix(1 0 0 -1 0 819)">
   <path fill="currentColor"
d="M192 982l78 -40q9 -6 -2 -14l-28 -16v-626l66 12v472l80 -32q10 -7 0 -14l-32 -12v-402l4 -90q-1 -12 -16 -24q-15 -9 -36 -12v94q-115 -31 -160 -46q-44 -16 -70 -38l-38 50q21 9 34 22v510l72 -34q6 -7 -2 -14l-24 -12v-454l74 12v708v0v0zM426 476l56 -42h364l28 32
l50 -36q9 -6 10 -12q0 -7 -24 -26v-267q0 -50 -18 -74q-17 -24 -58 -34q-8 33 -34 48q-23 13 -82 32l6 18q59 -15 92 -18q31 -4 38 6q7 12 6 36v269h-384v-260l4 -81q0 -15 -24 -30q-22 -15 -34 -16l4 123v332v0v0zM560 370l48 -34h112l26 30l46 -30q9 -7 10 -14
q0 -7 -24 -22v-64l4 -42q1 -15 -16 -26q-17 -12 -34 -12v32h-126v-18q-1 -12 -16 -18q-16 -9 -34 -8l4 66v160v0v0zM606 212h126v98h-126v-98v0v0zM576 526h188v88h-188v-88v0v0zM838 956l50 -50q10 -9 0 -14q-19 1 -34 2q-15 0 -48 -2q-33 0 -120 -12q-21 -61 -54 -116h230
l40 46l54 -54q12 -15 -8 -18h-198q22 -42 56 -80q33 -39 84 -62q51 -25 120 -34v-18q-31 0 -46 -8q-13 -9 -26 -26q-63 29 -128 88v-52l4 -36q2 -12 -16 -24q-17 -10 -34 -8v24h-188v-8q0 -9 -18 -18q-16 -8 -34 -6l4 62v84q-48 -57 -152 -116l-10 10q88 68 134 128
q44 59 68 100h-100q-20 0 -52 -8l-16 34h180q33 62 48 110q-73 -6 -208 -14l-2 18q267 33 420 78v0v0zM576 640h182l12 8q-30 41 -44 86h-110q-22 -36 -58 -86l18 -8v0v0z" />
  </g>

</svg>
