<?xml version="1.0" standalone="no"?>
<!DOCTYPE svg PUBLIC "-//W3C//DTD SVG 1.1//EN" "http://www.w3.org/Graphics/SVG/1.1/DTD/svg11.dtd" >
<svg xmlns="http://www.w3.org/2000/svg" xmlns:xlink="http://www.w3.org/1999/xlink" version="1.1" viewBox="0 -36 256 256">
  <g transform="matrix(1 0 0 -1 0 220)">
   <path fill="currentColor"
d="M83.5 219.5q-5.5 -1.5 -19.5 -5.5v-53l12 2l10 13l16 -14l-38 -8v-46l23 5l9 12l15 -13l-47 -11v-59q0 -15 13 -15h141q10 0 12 11t2 20h5q-1 -4 0.5 -15.5t10.5 -11.5q-6 -12 -11.5 -14t-16.5 -2h-148q-22 0 -22 23v61l-22 -5l-10 -5l-9 7l41 10v46l-18 -3l-11 -5l-8 7
l37 8v52q-19 -5 -33 -7v6q19 4 40 13t29 17l14 -17q-11 -2 -16.5 -3.5zM210 174l-14 -8v7h-64v-19h75l12 11l17 -18h-104v-17h81l6 10l14 -12l-7 -8q-4 -40 -9.5 -58.5t-23.5 -24.5q-1 12 -24 21l1 4q13 -3 22.5 -4t13.5 13.5t7 51.5h-81v-4l-13 -3q1 24 1 56.5t-1 52.5
l13 -9h13q9 21 10 29l17 -10q-7 -3 -22 -19h45l6 11l15 -12l-7 -6q0 -26 1 -35zM196 209h-64v-29h64v29zM146 84q1 -8 -5 -13t-6.5 5t-5.5 30l2 1q14 -15 15 -23zM109 69q-7 -7 -12.5 -2t3 13t12.5 27h3q1 -31 -6 -38zM171.5 88.5q0.5 -7.5 -5 -12t-7 5.5t-7.5 27l2 1
q17 -14 17.5 -21.5zM199 96q3 -7 -3 -14t-8 4.5t-11 25.5l2 2q17 -11 20 -18z" />
  </g>

</svg>
