<?xml version="1.0" standalone="no"?>
<!DOCTYPE svg PUBLIC "-//W3C//DTD SVG 1.1//EN" "http://www.w3.org/Graphics/SVG/1.1/DTD/svg11.dtd" >
<svg xmlns="http://www.w3.org/2000/svg" xmlns:xlink="http://www.w3.org/1999/xlink" version="1.1" viewBox="0 0 2048 2048">
  <g transform="matrix(1 0 0 -1 0 2048)">
   <path fill="currentColor"
d="M1521 1444v-1282h236l99 102l120 -108q10 -10 14 -15t2 -18q-2 -9 -6 -13q-5 -3 -19 -3h-1046q-30 0 -71 -3l-27 -2q-24 -2 -26 -2l-25 -3l-39 86q27 -5 48 -8t41 -5t49 -4q29 -1 50 -1l213 -3v1282h-165q-24 0 -57 -2q-32 -3 -41 -4q-9 0 -26 -2l-24 -3l-40 86
q27 -5 48 -8t39 -5q19 -1 51 -3t50 -2h706l98 101l121 -107q10 -10 14 -16q5 -6 2 -17q-3 -10 -12 -14t-14 -4h-363zM1427 1444h-202v-1282h202v1282zM952 1894l49 -35q24 -17 58.5 -49.5t66.5 -70.5q31 -38 44 -70t11 -63q-3 -27 -17 -44t-38 -18q-24 0 -40 24
q-9 11 -12 30l-7 46q-6 26 -21 56q-16 30 -40 66q-24 37 -42 60l-34 42zM1633 1916l98 -40q32 -14 53 -28q22 -14 20 -30q-2 -11 -14 -20q-12 -10 -35 -10h-44q-18 -36 -37 -69q-20 -33 -66 -85q-46 -51 -69 -68l-53 -40l-28 23l45 61q23 31 45 72q23 42 46 100t28 81z
M843 1225q35 -64 51 -98q17 -34 45 -105q28 -72 49 -132q21 -59 36 -118q15 -60 26 -113q12 -53 14 -77q3 -25 4 -60q0 -35 -4 -48q-6 -20 -22 -32q-15 -13 -36 -10q-22 2 -31 14q-9 13 -11 26q-3 14 -4 53q0 39 -4 81q-3 42 -14 108q-10 65 -23.5 130t-32.5 134
q-19 68 -39 130l-34 104zM1722 1230l116 -42q41 -16 54 -26q14 -9 14 -23q1 -14 -13 -25q-14 -12 -32 -14l-47 -7l-30 -141q-14 -69 -37 -159t-53 -171q-31 -82 -53 -122l-35 -64l-34 15q18 53 29 89t35 136q23 101 33 158q10 56 28 172q18 117 20 147zM541 1036l-60 -78
q-27 -33 -73 -82q-46 -48 -112 -106t-113 -87l-82 -53l-19 29q61 51 90 79q30 28 88 92q59 63 106 123q48 60 87 132l57 103q-9 41 -13.5 55.5t-38.5 97.5q-35 83 -39 90l-28 45l-41 -34q-23 -20 -62 -48q-38 -29 -108 -69l-79 -46l-19 35l64 48q30 23 88 72q59 49 86 77
l34 34q-10 12 -14 19l-61 91q-43 63 -82 110l-30 36l28 29l42 -40q15 -15 81 -92l86 -103q31 36 54 65q22 28 64 88t59 93l31 58l88 -50q43 -25 54 -37q12 -11 7 -24q-5 -10 -25 -14q-19 -5 -43 -5h-31l-66 -83q-33 -42 -47 -58l-60 -63l-36 -39l46 -76q21 -35 53 -108
q32 -74 49 -131t29 -135q11 -78 16 -149q6 -71 8 -158q1 -87 -1 -171q-2 -83 -9 -172q-6 -90 -17 -144q-11 -53 -27 -92q-17 -38 -40 -64q-24 -27 -61 -49t-73 -31l-52 -15q-4 22 -9 33q-5 12 -20 27t-33 27q-18 11 -46 23l-61 22l-41 15l3 38q28 -7 43 -10l63 -16
q39 -10 71 -16t55 -7q32 -2 54 7t43 38q20 30 32 90q11 61 18 150q6 88 8 157q1 69 0 176q-2 131 -6 175z" />
  </g>

</svg>
