<?xml version="1.0" standalone="no"?>
<!DOCTYPE svg PUBLIC "-//W3C//DTD SVG 1.1//EN" "http://www.w3.org/Graphics/SVG/1.1/DTD/svg11.dtd" >
<svg xmlns="http://www.w3.org/2000/svg" xmlns:xlink="http://www.w3.org/1999/xlink" version="1.1" viewBox="0 -205 1024 1024">
  <g transform="matrix(1 0 0 -1 0 819)">
   <path fill="currentColor"
d="M944 524l52 -48q2 -3 2 -8q3 -6 -6 -6h-236q4 -82 14 -124q9 -42 24 -86q36 45 82 174l60 -34q3 -9 -2 -12q-6 -1 -18 -8q-12 -5 -38 -58q-28 -51 -64 -98q22 -39 44 -60q20 -21 44 -39q21 -18 30 -10q6 6 10 37q3 29 12 104h18q-1 -132 2 -153q2 -21 14 -34
q9 -12 10 -18q0 -4 -6 -8q-6 -3 -32 2q-28 6 -64 30q-36 21 -60 48q-23 24 -52 65q-87 -95 -186 -147l-10 12q104 73 178 167q-27 57 -38 112q-12 54 -18 138h-156v-22q32 -4 68 -10t60 -24q25 -16 20 -34q-3 -18 -18 -20q-15 -4 -32 16t-46 34q-29 11 -52 20v-54
q3 -15 -14 -24q-18 -8 -32 -6v110q-52 -54 -100 -86q-49 -33 -92 -54l-10 12q42 30 84 66q42 33 76 76h-54q-24 0 -42 -8l-20 34h158v58q-78 -6 -144 -8v16l128 20q63 10 126 32l42 -42q2 -12 -10 -12q-22 3 -40 4q-19 0 -56 -6v-62h156v124l70 -26q10 -5 -4 -16l-20 -6v-76
h160l28 36v0v0zM358 318h242l24 32l48 -44q9 -14 -14 -12h-154l-32 -62h106l22 24l48 -40q3 -6 -2 -14l-26 -12q-18 -65 -36 -91q-15 -26 -36 -44q-21 -13 -50 -20q-6 30 -36 42q-28 12 -58 24l6 16q32 -12 64 -18q30 -6 46 0q15 6 28 24q12 17 30 85h-104l-28 -22l-44 40
l28 18l28 50h-48q-16 0 -32 -8l-20 32v0v0zM792 598l6 14q45 -18 66 -30q21 -11 30 -28q6 -15 0 -30q-5 -13 -22 -14q-15 -1 -20 14q-5 14 -16 34q-12 18 -44 40v0v0zM822 944q9 -6 -2 -12q-13 -6 -22 -8q-10 -1 -38 -26q-27 -23 -44 -46h138l36 40l58 -46q3 -3 4 -8
q0 -10 -14 -10h-260v-80h144l34 40l54 -48q2 -2 2 -4q1 -12 -10 -12h-224v-76h206l34 42l54 -48l6 -6q4 -12 -10 -12h-550q-22 0 -70 -8l-14 32h296v76h-130q-20 0 -70 -8l-14 32h214v80h-182q-22 0 -70 -8l-14 32h322q29 45 80 126l56 -34v0v0zM476 966l8 10q57 -23 82 -40
q24 -16 30 -34q6 -17 -2 -28q-9 -12 -26 -12q-15 0 -24 18q-6 18 -24 40q-16 21 -44 46v0v0zM174 966l86 -32q10 -7 -6 -16l-34 -14v-250q45 54 96 132q54 -39 54 -48q1 -7 -4 -8q-3 -1 -18 -2q-12 -1 -42 -28q-28 -27 -88 -78q2 -187 -10 -292q48 -35 78 -64t42 -58
q11 -30 8 -48t-12 -27t-24 -6t-24 45q-6 39 -18 66q-9 24 -54 66q-19 -88 -62 -152q-42 -65 -114 -129l-10 10q56 68 92 137q35 69 50 144q16 75 14 262v390v0v0zM114 704q11 -97 8 -142t-24 -68q-20 -22 -40 -20q-18 3 -24 18q-4 14 14 34t30 50q11 31 20 128h16v0v0z" />
  </g>

</svg>
