<?xml version="1.0" standalone="no"?>
<!DOCTYPE svg PUBLIC "-//W3C//DTD SVG 1.1//EN" "http://www.w3.org/Graphics/SVG/1.1/DTD/svg11.dtd" >
<svg xmlns="http://www.w3.org/2000/svg" xmlns:xlink="http://www.w3.org/1999/xlink" version="1.1" viewBox="0 -205 1024 1024">
  <g transform="matrix(1 0 0 -1 0 819)">
   <path fill="currentColor"
d="M136 912l54 -38h172l24 34l54 -36q8 -6 8 -12q1 -6 -28 -30v-340h20l30 44l44 -50q3 -3 4 -8q0 -12 -8 -12h-90v-308q4 -58 -22 -83q-25 -23 -58 -32q-9 33 -30 44q-22 12 -76 32l6 18q60 -15 96 -18q34 1 30 41v306h-180q-4 -186 -50 -288q-45 -100 -84 -143l-12 12
q36 72 66 165q28 91 26 254h-24q-19 0 -58 -8l-22 34h106l2 422v0v0zM186 490h180v358h-180v-358v0v0zM226 768q53 -49 76 -88q24 -39 16 -66q-6 -27 -30 -32q-26 3 -28 28q0 26 -6 58q-7 29 -38 92l10 8v0v0zM538 900l58 -46h38q17 45 44 130l66 -32q10 -8 0 -16
q-25 -4 -44 -32q-19 -27 -40 -50h170l30 38l58 -44q6 -4 6 -8q0 -7 -36 -28v-170l4 -62q-3 -16 -18 -28q-15 -9 -38 -12v42h-248v-80h312l38 48l60 -60q6 -15 -8 -14h-402v-78h312l28 32l58 -44q12 -7 -2 -16l-28 -20q-1 -82 -8 -136q-6 -53 -12 -91q-6 -39 -30 -66
q-24 -24 -62 -42q-12 45 -48 60q-36 12 -92 30l6 18q72 -15 102 -18q29 -2 50 4q18 6 24 31q3 25 10 68q4 42 8 162h-316q0 -25 -14 -34q-13 -9 -40 -14l4 108v470v0v0zM588 610h248v92h-248v-92v0v0zM588 732h248v94h-248v-94v0v0zM528 296h22q6 -105 -6 -138
q-9 -30 -26 -45q-15 -14 -36 -14q-22 1 -28 22q-7 18 14 35q18 15 34 36q14 20 26 104v0v0zM582 312l14 8q59 -63 68 -92q9 -27 4 -48q-3 -18 -18 -26q-13 -9 -26 -2t-14 26v50q-1 30 -28 84v0v0zM670 334l12 8q65 -55 80 -82q12 -26 10 -46q-3 -18 -14 -26q-12 -10 -26 -4
q-15 3 -18 28q0 23 -6 44t-38 78v0v0zM756 350l10 10q66 -40 88 -70q22 -28 20 -50q-4 -20 -16 -28q-12 -9 -24 -2q-11 6 -16 24q-3 19 -12 44q-7 24 -50 72v0v0z" />
  </g>

</svg>
