<?xml version="1.0" standalone="no"?>
<!DOCTYPE svg PUBLIC "-//W3C//DTD SVG 1.1//EN" "http://www.w3.org/Graphics/SVG/1.1/DTD/svg11.dtd" >
<svg xmlns="http://www.w3.org/2000/svg" xmlns:xlink="http://www.w3.org/1999/xlink" version="1.1" viewBox="0 -36 256 256">
  <g transform="matrix(1 0 0 -1 0 220)">
   <path fill="currentColor"
d="M152 180l1 12v12h-53v-10l1 -9l-16 -8l1 13v14h-45q-13 0 -22 -3l-10 10h77v16q0 9 -1 20l24 -11l-9 -8v-17h53v16q0 6 -1 20l22 -10l-7 -7v-19h49l16 13l15 -20h-80v-8l1 -8zM53 50v53h-5q-11 0 -21 -2l-10 9h36v47h-7q-11 0 -21 -2l-10 9h65l10 12l16 -19h-38v-47h7
l11 12l14 -19h-32v-51l28 6l1 -5q-68 -21 -75 -27l-13 17q10 1 44 7zM132 166q-2 -31 -13.5 -36.5t-17 -0.5t6.5 11t20 27zM159 134q46 -10 59 -16.5t11.5 -18.5t-13 -1.5t-59.5 32.5zM117 52.5q-13 -7.5 -18 -0.5t8 12.5t21 26.5l3 -1q-1 -30 -14 -37.5zM127.5 39
q16.5 16 21.5 34t5 41l21 -8l-6 -7v-5q1 -13 14 -33q26 18 34 30l15 -16l-9 -1q-17 -9 -37 -18q10 -13 25.5 -22.5t36.5 -10.5v-4q-13 0 -21 -11q-20 7 -37.5 25t-24.5 47q-4 -25 -23.5 -44t-59.5 -29l-2 4q31 12 47.5 28zM163 143q36 18 49 32l13 -17h-9q-26 -12 -53 -19v4
zM163.5 132q-5.5 -12 -22.5 -25t-45 -22l-2 4q25 12 39.5 26t19 28.5t3.5 39.5l21 -7l-6 -7q-1 -11 -1.5 -18t-6 -19z" />
  </g>

</svg>
