<?xml version="1.0" standalone="no"?>
<!DOCTYPE svg PUBLIC "-//W3C//DTD SVG 1.1//EN" "http://www.w3.org/Graphics/SVG/1.1/DTD/svg11.dtd" >
<svg xmlns="http://www.w3.org/2000/svg" xmlns:xlink="http://www.w3.org/1999/xlink" version="1.1" viewBox="0 -154 1024 1024">
  <g transform="matrix(1 0 0 -1 0 870)">
   <path fill="currentColor"
d="M559 122l329 28q-9 16 -19 32q-41 59 -104 106l8 13q87 -51 135 -102q51 -53 58 -99q6 -45 -19 -54q-27 -9 -33 34q-5 24 -17 52l-195 -27q-123 -17 -135 -26q-20 -10 -34 -28l-48 68q38 8 63 38q136 188 204 369q3 15 -12 33l10 10l82 -47q14 -9 3 -13q-21 1 -37 -8
q-107 -207 -239 -379zM415 736h188q16 91 23 197q-4 25 -25 41l10 12l95 -34q14 -7 1 -13q-17 -4 -31 -19q-9 -99 -25 -184h234l37 47l69 -53q17 -13 -11 -14h-333q-36 -195 -122 -349q-86 -153 -245 -295l-10 14q140 146 219 297q78 150 110 333h-102q-27 0 -46 -13z
M253 291q-113 -47 -140 -60q-27 -16 -38 -49l-53 71l182 55v476h-102q-25 2 -43 -13l-32 33h300l35 46l65 -52q21 -15 -11 -14h-164v-460l194 61v-18z" />
  </g>

</svg>
