<?xml version="1.0" standalone="no"?>
<!DOCTYPE svg PUBLIC "-//W3C//DTD SVG 1.1//EN" "http://www.w3.org/Graphics/SVG/1.1/DTD/svg11.dtd" >
<svg xmlns="http://www.w3.org/2000/svg" xmlns:xlink="http://www.w3.org/1999/xlink" version="1.1" viewBox="0 -36 256 256">
  <g transform="matrix(1 0 0 -1 0 220)">
   <path fill="currentColor"
d="M65 245l22 -6l-9 -6v-11h20l9 9l16 -16h-45v-8h23l5 5l13 -8l-6 -4v-13q1 -15 -12 -16q1 5 -14 9l1 3q14 -3 14 1v16h-24v-27q18 -6 28.5 -10.5t11.5 -8.5t-1 -11t-9.5 2.5t-29.5 23.5q0 -21 1 -30l-14 -4q1 10 1 32q-11 -17 -52 -34l-1 4q37 20 53 48v15h-22v-26l-13 -3
q1 8 1 19t-1 21l13 -4h22v9h-17q-14 0 -23 -2l-10 9h50q0 17 -1 22zM169 244l22 -6l-9 -6v-10h33l10 8l15 -15h-58v-9h22l5 5l14 -8l-6 -4v-14q0 -15 -13 -16q1 5 -13 9v3q14 -3 14 0v18h-23v-27q18 -7 27.5 -11t12.5 -9t1 -11.5t-8 0.5t-33 26q1 -26 1 -30l-14 -4
q1 16 1 33q-12 -17 -53 -34l-1 4q37 20 54 48v15h-23v-26l-13 -3q1 11 1 20.5t-1 19.5l13 -4h23v9h-18q-11 0 -21 -2l-9 9h48q0 17 -1 22zM66 134l22 -6l-9 -6v-15h20l10 9l15 -16h-45v-9h23l5 5l14 -8l-7 -4v-13q1 -16 -12 -17q1 6 -14 10l1 3q14 -3 14 0v17h-24v-28
q19 -6 27 -9.5t10.5 -8t0 -11.5t-10 2.5t-27.5 22.5q0 -27 1 -40l-14 -5q1 21 1 42q-13 -18 -52 -33l-1 4q38 20 53 49v15h-22v-24l-13 -7q1 13 1 22.5t-1 19.5l13 -4h22v10h-19q-11 0 -21 -3l-9 10h49q0 21 -1 26zM170 132l21 -6l-8 -6v-13h30l10 8l15 -15h-55v-10h22l5 5
l15 -8l-7 -4v-13q1 -16 -13 -18q0 7 -14 11l1 3q14 -3 14 0v17h-23v-19q17 -17 33 -24t32 -8v-3q-11 -1 -19 -11q-11 5 -24.5 16t-21.5 24q1 -36 1 -48l-14 -3q1 22 1 44q-16 -19 -57 -36l-1 4q37 20 58 51v13h-23v-23l-13 -4q1 9 1 18.5t-1 19.5l13 -4h23v10h-18
q-11 -1 -20 -3l-10 10h48q0 20 -1 25z" />
  </g>

</svg>
