<?xml version="1.0" standalone="no"?>
<!DOCTYPE svg PUBLIC "-//W3C//DTD SVG 1.1//EN" "http://www.w3.org/Graphics/SVG/1.1/DTD/svg11.dtd" >
<svg xmlns="http://www.w3.org/2000/svg" xmlns:xlink="http://www.w3.org/1999/xlink" version="1.1" viewBox="0 -36 256 256">
  <g transform="matrix(1 0 0 -1 0 220)">
   <path fill="currentColor"
d="M85 153l-13 -8v12h-11v-45h11l9 11l13 -18h-33v-55l29 10l1 -6q-31 -14 -64 -32l-9 -8l-10 17l12 4q0 76 -1 97l20 -13l-6 -7v-73l15 5v113h-18v-7l-13 -7v43v47l14 -9h39l9 10l11 -16l-6 -5q0 -39 1 -60zM30 164h42v53h-42v-53zM169 164q-16 -16 -36 -25l-1 3
q26 21 40 46h-10q-10 -1 -19 -3l-9 10h50q19 40 22 52l19 -13q-14 -7 -37 -39h31l11 11l16 -18h-56q-10 -11 -18 -20q9 -10 15.5 -18.5t9.5 -14.5q21 20 27 35l14 -16q-11 -3 -39 -24l2 -7q22 -15 30.5 -26.5t2.5 -22.5t-10.5 7t-21.5 37q5 -22 4.5 -40.5t-6 -28.5
t-21.5 -15q-3 10 -23 20l1 3q21 -5 27.5 -3.5t8 17t-0.5 35.5q-25 -30 -58 -49l-2 3q34 27 56 62l-6 17q-23 -28 -48 -42l-2 3q28 24 44 52zM147 245q16 -12 22 -20.5t-0.5 -18t-9.5 5t-14 30.5zM127 207q6 -8 -1 -16t-10 4t-15 31l2 2q18 -13 24 -21zM109 53v98
q-8 0 -15 -2l-7 9h22l6 9l14 -13l-8 -6v-99q13 -10 28.5 -15t47 -4.5t51.5 3.5v-4q-14 -4 -16 -15h-38.5t-41 7t-28.5 18.5t-19 0.5t-14 -20l-12 11q14 10 30 22z" />
  </g>

</svg>
