<?xml version="1.0" standalone="no"?>
<!DOCTYPE svg PUBLIC "-//W3C//DTD SVG 1.1//EN" "http://www.w3.org/Graphics/SVG/1.1/DTD/svg11.dtd" >
<svg xmlns="http://www.w3.org/2000/svg" xmlns:xlink="http://www.w3.org/1999/xlink" version="1.1" viewBox="0 -36 256 256">
  <g transform="matrix(1 0 0 -1 0 220)">
   <path fill="currentColor"
d="M128 82h33v15h-33v-15zM174 82h36v15h-36v-15zM128 61h33v14h-33v-14zM174 61h36v14h-36v-14zM223 54l-13 -5v5h-36v-13h46l13 11l15 -18h-74q0 -7 1 -21l-15 -6q1 22 1 27h-43q-10 0 -19 -2l-9 9h71v13h-33v-1l-13 -5q1 12 1 31t-1 33l13 -8h33v11h-25q-11 0 -19 -1
l-7 8h51q0 10 -1 20l20 -8l-6 -6v-6h29l10 10l15 -17h-54v-11h35l7 9l12 -11l-6 -6q0 -39 1 -42zM142 189q17 -6 21 -10t1 -12t-8 1t-15 18q-5 -12 -13 -20t-13 -11l-3 2q6 6 12 17t7 20q-10 1 -22 -3l-7 10h29q1 10 1 15h-6q-6 0 -11 -3l-8 10h25q0 12 -1 24l18 -8l-5 -5
v-11h7l8 7l12 -14h-27q0 -5 -1 -15h8l8 8l12 -15h-28q-1 -3 -1 -5zM212 240l-6 -7v-10h7l8 7l12 -14h-27q0 -4 -1 -15h13l10 8l11 -15h-32q14 -20 34 -27v-3q-9 0 -14 -8q-16 14 -24 36q-11 -32 -38 -40l-2 2q12 9 18 18t11 22h-3q-8 0 -12 -2l-7 9h23q1 9 1 15h-2
q-8 0 -13 -3l-7 10h22q0 13 -1 24zM227 143h-113q0 -12 -4.5 -18t-10.5 -5t-4.5 4.5t6.5 9.5t9 24h4v-8h112l9 9l13 -15q-10 -1 -25 -17l-3 2zM30 62.5q-1 16.5 -9 38.5l2 2q28 -30 18 -43.5t-11 3zM83 165l12 -17h-33v-27h13l11 9l14 -16h-38v-51q13 19 22 42l15 -13l-6 -2
q-16 -19 -31 -34v-10l38 9l1 -4q-58 -20 -79 -31l-10 17q19 2 38 8v69q-19 1 -29 -3l-9 10h38v27h-3q-8 0 -17 -2l-6 9h47zM10 141l-3 2q30 53 46 104l16 -12l-6 -4l-5 -13q25 -11 31.5 -16.5t2.5 -16.5t-10.5 0.5t-25.5 29.5q-10 -23 -23 -44t-23 -30z" />
  </g>

</svg>
