<?xml version="1.0" standalone="no"?>
<!DOCTYPE svg PUBLIC "-//W3C//DTD SVG 1.1//EN" "http://www.w3.org/Graphics/SVG/1.1/DTD/svg11.dtd" >
<svg xmlns="http://www.w3.org/2000/svg" xmlns:xlink="http://www.w3.org/1999/xlink" version="1.1" viewBox="0 -205 1024 1024">
  <g transform="matrix(1 0 0 -1 0 819)">
   <path fill="currentColor"
d="M64 852h234v128l74 -28q8 -3 10 -12l-6 -6l-28 -16v-66h132l34 46l54 -54q2 -1 8 -8q3 -10 -14 -10h-214v-86h116l30 42l46 -48q3 -3 4 -6q0 -12 -8 -12h-188v-92h152l28 40l54 -44q3 -3 4 -8q0 -12 -12 -12h-434q-21 0 -68 -8l-16 32h242v92h-112q-22 0 -70 -8l-14 32
h196v86h-158q-19 0 -58 -6l-18 32v0v0zM138 552l54 -38h252l28 38l50 -36q9 -6 10 -14q0 -6 -24 -24v-371q0 -30 -14 -48q-13 -16 -50 -30q-6 33 -36 44q-31 10 -58 16l4 18q31 -6 56 -10q24 -4 36 0q13 3 14 32v123h-274v-102l4 -83q0 -14 -18 -26t-38 -12l4 113v410v0v0z
M186 276h274v96h-274v-96v0v0zM186 396h274v94h-274v-94v0v0zM914 944l60 -46q9 -6 10 -14q1 -4 -10 -10q-27 -6 -50 -50q-54 -108 -102 -218q68 -54 106 -104q36 -52 48 -94q13 -43 2 -82q-10 -40 -40 -70q-30 -29 -78 -46q-9 32 -36 46q-24 14 -90 34l4 18q69 -15 100 -18
q28 -1 50 4q20 4 34 32q12 27 6 70q-6 39 -36 90q-31 51 -100 114l100 274h-192v-698l4 -111q1 -14 -22 -28q-21 -15 -36 -16l4 155v770l64 -44h170l30 42v0v0z" />
  </g>

</svg>
