<?xml version="1.0" standalone="no"?>
<!DOCTYPE svg PUBLIC "-//W3C//DTD SVG 1.1//EN" "http://www.w3.org/Graphics/SVG/1.1/DTD/svg11.dtd" >
<svg xmlns="http://www.w3.org/2000/svg" xmlns:xlink="http://www.w3.org/1999/xlink" version="1.1" viewBox="0 -205 1024 1024">
  <g transform="matrix(1 0 0 -1 0 819)">
   <path fill="currentColor"
d="M372 282h502v106h-502v-106v0v0zM372 412h502v92h-502v-92v0v0zM372 528h502v100h-502v-100v0v0zM210 39q133 72 296 191l46 -48q9 -7 -2 -16q-16 3 -34 -2q-16 -6 -92 -45t-208 -96l-6 16v0v0zM688 206l8 14q109 -29 176 -58q66 -28 88 -57t14 -50q-8 -20 -28 -20
q-21 0 -38 30q-18 28 -68 62q-48 32 -152 79v0v0zM322 682l52 -30h490l26 28l60 -36q6 -4 6 -8q-12 -14 -32 -28v-296l4 -46q0 -14 -18 -28q-18 -12 -36 -12v32h-502v-10q1 -24 -16 -36q-18 -12 -38 -12l4 122v360v0v0zM868 974l64 -48q7 -4 8 -10q0 -4 -36 -34v-84l4 -42
q3 -15 -18 -26q-19 -12 -38 -14v50h-614q-1 -208 -10 -320t-56 -226q-45 -110 -108 -185l-12 12q41 75 80 185q39 108 48 220q7 111 6 304v216l66 -38h586l30 40v0v0zM238 908v-116h614v116h-614v0v0z" />
  </g>

</svg>
