<?xml version="1.0" standalone="no"?>
<!DOCTYPE svg PUBLIC "-//W3C//DTD SVG 1.1//EN" "http://www.w3.org/Graphics/SVG/1.1/DTD/svg11.dtd" >
<svg xmlns="http://www.w3.org/2000/svg" xmlns:xlink="http://www.w3.org/1999/xlink" version="1.1" viewBox="0 -36 256 256">
  <g transform="matrix(1 0 0 -1 0 220)">
   <path fill="currentColor"
d="M36 145h53v26h-53v-26zM36 111h53v27h-53v-27zM24 146.5q0 23.5 -1 39.5l13 -8h21v29h-17q-11 -1 -20 -3l-11 10h48q0 22 -1 33l22 -10l-8 -7v-16h24l11 10l15 -17h-50v-29h18l8 10l15 -12l-8 -6v-37t1 -32l-15 -6v9h-19v-31h22l11 11l15 -18h-48v-37.5t1 -16.5l-15 -6
q1 16 1 60h-20q-10 0 -19 -3l-11 10h50v31h-21v-9l-13 -6q1 34 1 57.5zM188 236l-8 -6q12 -19 31 -33.5t41 -19.5v-5q-12 1 -16 -10q-26 14 -39.5 31t-19.5 33q-25 -43 -66 -67l-3 3q22 17 38 39t22 45zM190 174l10 9l17 -16h-53q-12 0 -19 -2l-7 9h52zM146.5 27
q7.5 0 7.5 8v46q-28 -29 -33 -39l-15 13q11 3 48 34v48h-9q-13 0 -22 -3l-10 10h39l7 9l15 -12l-7 -6v-99q1 -22 -19 -29q-3 11 -26 16v6q17 -2 24.5 -2zM138.5 106q3.5 -4 3 -9t-6 -10.5t-8 8.5t-8.5 26l3 1q13 -12 16.5 -16zM211.5 27.5q6.5 0.5 6.5 10.5v49
q-31 -32 -35 -40l-14 13q9 3 49 35v42h-10q-13 0 -22 -3l-10 10h41l7 9l15 -12l-8 -8v-99q-1 -20 -20 -27q-2 12 -23 15v6q17 -1 23.5 -0.5zM198.5 108q3.5 -5 2.5 -10.5t-4.5 -12.5t-7 8t-11.5 29l3 2q14 -11 17.5 -16z" />
  </g>

</svg>
