<?xml version="1.0" standalone="no"?>
<!DOCTYPE svg PUBLIC "-//W3C//DTD SVG 1.1//EN" "http://www.w3.org/Graphics/SVG/1.1/DTD/svg11.dtd" >
<svg xmlns="http://www.w3.org/2000/svg" xmlns:xlink="http://www.w3.org/1999/xlink" version="1.1" viewBox="0 -205 1024 1024">
  <g transform="matrix(1 0 0 -1 0 819)">
   <path fill="currentColor"
d="M530 994q66 -30 102 -60q33 -30 36 -54q4 -24 -10 -36q-12 -12 -30 -8q-16 3 -22 24q-4 20 -20 50q-15 30 -66 72l10 12v0v0zM648 736q7 -6 -4 -14l-20 -2q-23 -11 -64 -46q-39 -33 -122 -110l380 14q-26 39 -76 90l10 12q71 -46 106 -82t44 -62q9 -25 0 -44
q-8 -19 -28 -16q-18 -1 -24 26q-6 25 -24 56q-39 -5 -158 -16q-117 -9 -174 -20q-54 -10 -90 -34l-48 78q54 8 72 28q90 99 142 180l78 -38v0v0zM314 816h544l42 48l66 -58q3 -4 4 -8q0 -10 -14 -10h-550q-22 0 -70 -8l-22 36v0v0zM698 484l78 -28q8 -3 8 -6t-8 -12l-26 -10
v-297q1 -35 14 -38q12 -2 24 -2h84q37 -1 44 28q7 26 8 55q0 27 4 88h18l4 -62q2 -72 32 -87q-6 -25 -26 -44q-22 -18 -52 -22h-120q-30 0 -50 8q-19 4 -28 22q-7 15 -8 50v357v0v0zM552 464q5 -2 8 -4q3 -4 0 -10l-36 -16l-2 -62q-6 -117 -36 -174q-28 -54 -94 -99
q-65 -45 -166 -76l-6 14q82 37 134 76q51 36 82 87q29 50 38 188v102l78 -26v0v0zM318 748l20 -8q-114 -308 -122 -340q-9 -30 -14 -54q-7 -25 -4 -56q3 -30 12 -90q10 -59 8 -83q-3 -23 -18 -34q-12 -9 -30 -4q-18 7 -24 28q-6 22 6 91q10 68 8 92q0 24 -6 36q-3 9 -20 16
q-16 6 -82 12l2 18q66 -1 78 2q11 4 26 20q15 15 160 354v0v0zM82 930l10 12q82 -49 110 -76q26 -25 32 -52q4 -27 -6 -44q-12 -18 -30 -14q-19 2 -26 34q-5 33 -22 60q-15 28 -68 80v0v0z" />
  </g>

</svg>
