<?xml version="1.0" standalone="no"?>
<!DOCTYPE svg PUBLIC "-//W3C//DTD SVG 1.1//EN" "http://www.w3.org/Graphics/SVG/1.1/DTD/svg11.dtd" >
<svg xmlns="http://www.w3.org/2000/svg" xmlns:xlink="http://www.w3.org/1999/xlink" version="1.1" viewBox="0 -205 1024 1024">
  <g transform="matrix(1 0 0 -1 0 819)">
   <path fill="currentColor"
d="M332 936l70 -40q7 -4 8 -8q0 -7 -12 -10q-26 -6 -46 -36t-46 -66h476l32 40l64 -50q8 -6 8 -12q1 -6 -46 -32v-260q-4 -162 -34 -200q-30 -37 -74 -50q-7 36 -34 54q-27 15 -90 36l4 16q44 -6 74 -12q30 -7 54 -4q23 0 32 36q10 36 14 138v272h-494q-42 -66 -108 -152
q-64 -85 -130 -146l-12 14q66 80 150 208q80 129 140 264v0v0v0zM544 644l60 -40q6 -6 6 -8q0 -6 -26 -24v-132l4 -70q0 -12 -20 -24q-19 -13 -38 -14v52h-250v-218q-1 -37 22 -45q21 -6 70 -6h466q31 3 44 12t20 21q5 11 8 38q3 24 10 138h18l8 -106q4 -30 38 -54
q-18 -52 -48 -73q-28 -19 -80 -26h-480q-72 -2 -110 10q-35 13 -40 81v486l56 -38h234l28 40v0v0zM278 410h252v168h-252v-168v0v0z" />
  </g>

</svg>
