<?xml version="1.0" standalone="no"?>
<!DOCTYPE svg PUBLIC "-//W3C//DTD SVG 1.1//EN" "http://www.w3.org/Graphics/SVG/1.1/DTD/svg11.dtd" >
<svg xmlns="http://www.w3.org/2000/svg" xmlns:xlink="http://www.w3.org/1999/xlink" version="1.1" viewBox="0 -205 1024 1024">
  <g transform="matrix(1 0 0 -1 0 819)">
   <path fill="currentColor"
d="M348 618q-9 -4 -18 -10q-9 -5 -24 -28q-15 -24 -30 -44h508l32 36l58 -42q12 -6 12 -12t-38 -30q3 -193 -8 -268q-12 -74 -36 -113q-21 -36 -54 -54q-30 -18 -84 -30q-13 39 -34 54q-22 13 -82 38l6 18q55 -17 86 -26q31 -8 50 -8q18 1 48 22q29 21 44 93q13 71 12 296
h-282q-17 -117 -70 -212q-50 -94 -136 -159q-85 -63 -202 -106l-8 16q95 45 170 105q75 59 126 154q51 93 66 202h-200q-84 -123 -176 -188l-10 12q83 86 136 178q51 92 78 158l76 -34q4 -9 0 -12q-5 -3 -16 -6v0v0zM310 942q10 -9 0 -18q-24 -6 -32 -12q-7 -6 -16 -18
q-9 -11 -36 -58h200l42 52l60 -62q9 -16 -8 -16h-212q42 -28 60 -50q19 -21 26 -42q6 -21 -8 -36q-12 -16 -30 -10q-19 5 -22 32q-3 24 -14 48q-10 21 -40 58h-68q-75 -112 -150 -184l-14 12q66 89 114 178t72 164l76 -38v0v0zM704 950q10 -9 0 -18q-24 -6 -30 -14
q-7 -6 -16 -18q-7 -11 -34 -64h232l42 52l60 -62q9 -16 -8 -16h-234q42 -32 60 -52q19 -20 26 -46q6 -27 -6 -44q-12 -19 -32 -14q-21 6 -24 36q-3 29 -12 56q-10 27 -40 64h-76q-58 -88 -118 -164l-18 10q56 95 92 176q35 78 56 148l80 -30v0v0z" />
  </g>

</svg>
