<?xml version="1.0" standalone="no"?>
<!DOCTYPE svg PUBLIC "-//W3C//DTD SVG 1.1//EN" "http://www.w3.org/Graphics/SVG/1.1/DTD/svg11.dtd" >
<svg xmlns="http://www.w3.org/2000/svg" xmlns:xlink="http://www.w3.org/1999/xlink" version="1.1" viewBox="0 -205 1024 1024">
  <g transform="matrix(1 0 0 -1 0 819)">
   <path fill="currentColor"
d="M432 600h246l36 46l56 -52q3 -3 4 -8q0 -12 -12 -12h-258q-21 -1 -56 -10l-16 36v0v0zM612 398q-112 -171 -190 -259l380 9q-54 87 -114 148l10 10q78 -51 130 -102q51 -52 60 -83q9 -33 -2 -54q-11 -18 -28 -18q-18 1 -24 22q-6 22 -18 52q-255 -18 -330 -30
q-75 -9 -98 -24l-40 79l46 8q84 103 154 242h-174q-27 -3 -50 -12l-26 38h508l44 52q63 -60 66 -66q3 -4 0 -8t-20 -4h-284v0v0zM666 938q16 -12 2 -20q-12 -3 -24 -12q41 -79 80 -130q39 -50 108 -112q68 -62 160 -82v-20q-45 1 -60 -6q-15 -6 -42 -26q-60 51 -114 114
q-52 61 -82 110q-31 49 -70 140q-42 -75 -120 -182q-76 -106 -196 -212l-12 12q98 108 170 216q71 107 128 242l72 -32v0v0zM122 908l6 16q68 -18 100 -30q30 -12 48 -30q17 -19 20 -40q3 -22 -6 -34q-9 -13 -26 -14q-16 0 -22 16q-6 15 -18 34q-9 18 -26 34q-16 15 -76 48
v0v0zM58 696l8 16q59 -21 86 -32q25 -13 44 -34q18 -21 18 -42q0 -20 -8 -34q-9 -15 -26 -14q-15 0 -20 16q-6 14 -14 38q-9 20 -26 38q-15 15 -62 48v0v0zM198 402q-18 -54 -44 -60q-25 -7 -94 -2l-2 -20q46 -7 74 -16q27 -9 34 -20q8 -9 10 -38q0 -30 -8 -84
q-10 -53 -8 -81q1 -27 20 -36q18 -6 34 2q15 10 18 34q3 25 -6 83q-7 57 -8 94q-1 36 8 66q6 27 12 58l134 442l-20 8l-154 -430v0v0z" />
  </g>

</svg>
