<?xml version="1.0" standalone="no"?>
<!DOCTYPE svg PUBLIC "-//W3C//DTD SVG 1.1//EN" "http://www.w3.org/Graphics/SVG/1.1/DTD/svg11.dtd" >
<svg xmlns="http://www.w3.org/2000/svg" xmlns:xlink="http://www.w3.org/1999/xlink" version="1.1" viewBox="0 -205 1024 1024">
  <g transform="matrix(1 0 0 -1 0 819)">
   <path fill="currentColor"
d="M548 320q35 36 86 96v78l42 -18q33 39 72 102h-104q-21 0 -60 -8l-20 34h132v146h-44q1 0 -46 -8l-16 34h106v198l72 -32q7 -3 8 -8q0 -3 -6 -6l-26 -14v-138h22l28 34q44 -42 46 -48t2 -8q0 -4 -12 -4h-86v-146h20q65 105 92 160q26 51 52 120l68 -42q12 -9 0 -18
q-34 -4 -46 -22q-12 -19 -36 -64q-23 -45 -82 -134h96l36 46l52 -54q3 -3 4 -6q3 -12 -8 -12h-196q-49 -72 -82 -116h138l34 36l50 -40q6 -6 6 -8q0 -6 -26 -26v-262l4 -81q1 -15 -16 -28q-18 -12 -38 -16v66h-182v-40q0 -12 -18 -24q-15 -12 -36 -12l4 125v216
q-47 -44 -76 -58l-10 10v0v0zM684 129h182v141h-182v-141v0v0zM684 296h182v140h-174l-8 -12v-128v0v0zM500 788l28 38l48 -44q3 -3 4 -8q0 -12 -12 -12h-242q-18 0 -42 -8l-18 34h234v0v0zM286 650h194l32 40l52 -46q2 -3 2 -8q0 -12 -12 -12h-204q-22 0 -46 -8l-18 34v0v0
zM316 416l54 -32h100l26 34l56 -42q6 -4 6 -8q0 -6 -32 -26v-158l4 -73q0 -12 -18 -22q-18 -9 -32 -12v65h-116v-55q0 -8 -18 -20q-16 -12 -34 -12l4 103v258v0v0zM364 168h116v190h-116v-190v0v0zM344 966l10 10q72 -51 90 -78q18 -24 16 -48q0 -21 -12 -30q-10 -9 -26 -6
q-15 3 -18 24q-2 20 -10 46q-9 24 -50 82v0v0zM282 514h204l28 42l56 -48q2 -3 2 -8q0 -12 -12 -12h-214q-22 0 -46 -8l-18 34v0v0zM318 938q12 -8 -2 -16q-27 -9 -42 -48q-44 -99 -82 -188l38 -18q13 -4 14 -10q9 -8 -30 -22v-474l4 -99q1 -11 -22 -26q-20 -13 -34 -12
l4 131v476q-67 -139 -134 -206l-10 10q87 141 148 300q59 159 80 240l68 -38v0v0z" />
  </g>

</svg>
