<?xml version="1.0" standalone="no"?>
<!DOCTYPE svg PUBLIC "-//W3C//DTD SVG 1.1//EN" "http://www.w3.org/Graphics/SVG/1.1/DTD/svg11.dtd" >
<svg xmlns="http://www.w3.org/2000/svg" xmlns:xlink="http://www.w3.org/1999/xlink" version="1.1" viewBox="0 -36 256 256">
  <g transform="matrix(1 0 0 -1 0 220)">
   <path fill="currentColor"
d="M103 230q-46 -41 -84 -56l-2 4q29 17 49.5 34.5t31.5 33.5l15 -12zM155 239q9 -16 31 -28.5t57 -16.5v-4q-16 -1 -19 -11q-33 12 -51 29t-25 30h-10h-6l-6 -2l-6 7h26l5 4l7 -5zM189 181q-10 -40 -17.5 -47.5t-23.5 -10.5q0 12 -28 19v4q25 -4 35.5 -3.5t18.5 41.5h-59
q-8 -32 -30.5 -47.5t-58.5 -22.5l-1 3q36 13 53 28t22 39h-13q-11 0 -21 -2l-9 9h116l6 6l17 -11zM40 91q-11 0 -20 -2l-10 10h111q0 12 -1 29l24 -10l-9 -5v-14h75l16 14l20 -22h-111q0 -55 1 -80l-15 -4v84h-81zM155 68l2 5q53 -15 66.5 -23.5t12.5 -21.5t-15 1.5
t-66 38.5zM106 64l-13 -1q-39 -31 -79 -48l-2 4q49 31 74 62z" />
  </g>

</svg>
