<?xml version="1.0" standalone="no"?>
<!DOCTYPE svg PUBLIC "-//W3C//DTD SVG 1.1//EN" "http://www.w3.org/Graphics/SVG/1.1/DTD/svg11.dtd" >
<svg xmlns="http://www.w3.org/2000/svg" xmlns:xlink="http://www.w3.org/1999/xlink" version="1.1" viewBox="0 -205 1024 1024">
  <g transform="matrix(1 0 0 -1 0 819)">
   <path fill="currentColor"
d="M864 938l58 -42q9 -3 10 -12q0 -3 -32 -26v-116l4 -62q0 -7 -14 -16q-12 -9 -42 -12v44h-378v-98v-32h416l28 36l56 -40q8 -6 8 -14q1 -3 -34 -30v-250q0 -110 -14 -145q-12 -39 -42 -66q-27 -25 -60 -38q-12 29 -42 42q-30 14 -102 34l4 20q69 -13 100 -14q30 0 52 2
q22 3 38 36q14 28 14 97v304h-422q-4 -147 -22 -236q-19 -90 -64 -158q-43 -68 -134 -129l-10 14q95 90 128 165t42 186q10 107 8 224v340l60 -46h354l32 38v0v0zM470 874v-152h378v152h-378v0v0zM518 466l54 -40h132l36 36l46 -36q12 -6 12 -14q0 -6 -30 -26v-120l4 -52
q0 -16 -20 -26q-19 -12 -34 -12v44h-150v-32q-1 -15 -16 -26q-16 -10 -38 -10l4 102v212v0v0zM568 244h150v158h-150v-158v0v0zM182 954l84 -30q16 -6 0 -18l-32 -12v-272q63 73 94 146q65 -36 62 -44q-3 -9 -8 -8q-7 -1 -16 -4q-10 -4 -44 -38q-33 -34 -90 -86
q1 -115 -10 -190q51 -33 82 -66q29 -32 40 -58q12 -27 10 -48q-3 -21 -14 -30q-10 -10 -26 -4q-15 5 -24 44q-6 38 -18 68q-12 29 -54 76q-13 -93 -58 -180q-42 -83 -134 -167l-12 12q78 95 108 163q29 69 44 142q14 75 16 216v388v0v0zM118 732q3 -70 -2 -124
q-7 -52 -28 -74q-20 -21 -40 -18q-21 0 -26 18q-4 14 14 32q18 15 36 48t30 118h16v0v0z" />
  </g>

</svg>
