<?xml version="1.0" standalone="no"?>
<!DOCTYPE svg PUBLIC "-//W3C//DTD SVG 1.1//EN" "http://www.w3.org/Graphics/SVG/1.1/DTD/svg11.dtd" >
<svg xmlns="http://www.w3.org/2000/svg" xmlns:xlink="http://www.w3.org/1999/xlink" version="1.1" viewBox="0 -36 256 256">
  <g transform="matrix(1 0 0 -1 0 220)">
   <path fill="currentColor"
d="M102 79l1 -5q-72 -31 -81 -43l-12 18q12 3 38 12v92h-8q-10 0 -19 -2l-9 9h36v43q0 14 -1 34l23 -11l-8 -7v-59h7l13 11l12 -18h-32v-88zM185 170l14 13l18 -20h-75q-10 1 -19 -3l-9 10h71zM152 234l-8 -5q-7 -14 -12 -25h74l14 12l18 -19h-108q-18 -32 -39 -53l-3 2
q19 27 29.5 53.5t14.5 46.5zM212 25q11 2 12.5 21t1.5 28h4q1 -17 4 -30.5t11 -16.5q-6 -13 -32 -14h-64q-22 -1 -32.5 14.5t10.5 40.5t64 63h-66q-10 0 -19 -2l-9 9h97l10 9l14 -17l-11 -5q-46 -39 -64 -58.5t-15 -30t20 -11.5h64z" />
  </g>

</svg>
