<?xml version="1.0" standalone="no"?>
<!DOCTYPE svg PUBLIC "-//W3C//DTD SVG 1.1//EN" "http://www.w3.org/Graphics/SVG/1.1/DTD/svg11.dtd" >
<svg xmlns="http://www.w3.org/2000/svg" xmlns:xlink="http://www.w3.org/1999/xlink" version="1.1" viewBox="0 -36 256 256">
  <g transform="matrix(1 0 0 -1 0 220)">
   <path fill="currentColor"
d="M46 52v125h-11v-127zM69 56v121h-12v-123zM92 61v116h-12v-119zM23 48q0 132 -1 143l13 -7h10q9 29 10 56l21 -11q-5 -1 -12.5 -15.5t-12.5 -29.5h41l7 10l12 -16l-8 -5v-110l14 3l1 -5q-76 -22 -87 -25.5t-15 -8.5l-9 19q9 1 16 2zM169 246l21 -8l-8 -7v-11h35l7 8
l14 -12l-7 -4q0 -13 1 -26l-13 -7v5h-37v-19h39l12 12l15 -19h-114q-10 -1 -19 -3l-9 10h64v19h-37v-1l-13 -6q1 13 1 24.5t-1 25.5l13 -7h37q0 13 -1 26zM133 191h37v22h-37v-22zM182 191h37v22h-37v-22zM137 65h79v20h-79v-20zM124 98q0 27 -1 53l14 -8h77l6 9l15 -12
l-6 -6q0 -58 1 -75l-14 -8v7h-79v-5l-14 -6q1 24 1 51zM137 117h79v19h-79v-19zM137 92h79v18h-79v-18zM142.5 27.5q-15.5 -11.5 -37.5 -21.5l-2 3q33 22 44 44l18 -15q-7 1 -22.5 -10.5zM229 34.5q9 -7.5 4.5 -19.5t-13 2.5t-28.5 33.5l3 2q25 -11 34 -18.5z" />
  </g>

</svg>
