<?xml version="1.0" standalone="no"?>
<!DOCTYPE svg PUBLIC "-//W3C//DTD SVG 1.1//EN" "http://www.w3.org/Graphics/SVG/1.1/DTD/svg11.dtd" >
<svg xmlns="http://www.w3.org/2000/svg" xmlns:xlink="http://www.w3.org/1999/xlink" version="1.1" viewBox="0 -205 1024 1024">
  <g transform="matrix(1 0 0 -1 0 819)">
   <path fill="currentColor"
d="M562 990q63 -30 94 -54q29 -24 32 -48q3 -23 -8 -34q-13 -10 -28 -8q-16 2 -22 22q-3 20 -18 44q-12 24 -60 66l10 12v0v0zM662 754q8 -9 -4 -14l-18 -6q-24 -11 -60 -52q-36 -42 -120 -122l366 20q-21 33 -72 82l10 12q73 -41 110 -76q36 -36 42 -60t-2 -42
q-9 -19 -30 -16q-21 0 -26 24q-4 25 -20 56q-42 -5 -144 -16q-99 -9 -168 -18q-66 -6 -102 -30l-38 62q48 9 66 30q90 104 138 194l72 -28v0v0zM354 828h504l40 50l62 -60q3 -4 4 -8q0 -10 -14 -10h-504q-22 0 -70 -8l-22 36v0v0zM586 468q5 -2 8 -4q3 -4 0 -10l-34 -18
l-2 -56q-12 -117 -42 -174q-28 -54 -92 -99q-61 -44 -154 -76l-6 14q70 34 122 74q50 38 80 89q29 50 44 188v102l76 -30v0v0zM718 492l76 -28q8 -3 8 -6t-8 -12l-26 -10v-289q1 -35 14 -38q12 -2 24 -2h70q37 -1 44 22q7 20 8 49q0 26 4 80h18l4 -54q2 -72 32 -81
q-6 -24 -26 -40q-21 -16 -68 -20h-88q-30 0 -50 6q-19 6 -28 24q-7 15 -8 50v349v0v0zM190 434q-18 -49 -38 -52t-106 -2l-2 -20q66 -6 90 -14q25 -7 32 -22q8 -13 8 -44t-8 -88q-10 -57 -8 -85q1 -28 20 -38q18 -9 36 0q16 9 20 36q3 24 -8 87q-9 62 -12 104q-1 42 4 64
q6 21 16 54l132 366l-22 6l-154 -352v0v0zM142 956l6 14q48 -17 84 -34q33 -18 52 -38q17 -19 20 -40q3 -19 -8 -34q-9 -13 -26 -14q-18 0 -24 16q-6 14 -14 34q-9 20 -24 38q-15 17 -66 58v0v0zM44 708l6 14q42 -15 78 -32q35 -15 52 -36q15 -18 18 -38q1 -20 -10 -34
q-12 -15 -26 -14q-15 0 -20 16q-6 15 -14 34q-10 18 -28 40q-18 20 -56 50v0v0z" />
  </g>

</svg>
