<?xml version="1.0" standalone="no"?>
<!DOCTYPE svg PUBLIC "-//W3C//DTD SVG 1.1//EN" "http://www.w3.org/Graphics/SVG/1.1/DTD/svg11.dtd" >
<svg xmlns="http://www.w3.org/2000/svg" xmlns:xlink="http://www.w3.org/1999/xlink" version="1.1" viewBox="0 -36 256 256">
  <g transform="matrix(1 0 0 -1 0 220)">
   <path fill="currentColor"
d="M134 155h28l11 7l15 -14h-54v-17q-1 -13 -19 -18q-2 12 -25 15v4q16 -2 22.5 -1.5t7.5 5.5v12h-26q-13 1 -22 -3l-9 10h57v10h-15q-8 1 -17 -3l-6 10h38v11h-8q-9 0 -17 -2l-8 9h33v11.5t-1 20.5l12 -6l32 16h-89q-10 0 -19 -2l-9 9h124l12 6l12 -15l-9 -1l-49 -16l4 -3
l-6 -4v-16h6l8 6l13 -13h-27v-11h14l10 8l13 -15h-37v-10v0zM81 202l9 10l13 -15l-9 -5q-27 -52 -83 -71l-1 4q46 26 70 70h-29q-11 0 -20 -2l-9 9h59zM64 53h58v23h-58v-23zM135 53h56v23h-56v-23zM144 101h-55q-11 -10 -23 -18h61zM103 112l-6 -4h50l10 9l14 -15
q-9 0 -37 -19h56l8 9l14 -10l-7 -7v-16l1 -14l-15 -5v6h-127v-12q0 -13 18 -13h115q18 -1 20 5.5t2 23.5h4q0 -17 3 -21.5t7 -6.5q-5 -12 -24 -12h-127q-31 1 -32 21v42q-15 -9 -32 -15l-2 3q54 33 78 66l16 -13zM186 175q8 -8 24 -17.5t36 -13.5l-1 -4q-12 1 -22 -12
q-19 11 -39 32t-31 47l3 2q9 -15 25 -30q22 17 35 32l13 -17l-10 -1q-17 -11 -33 -18z" />
  </g>

</svg>
