<?xml version="1.0" standalone="no"?>
<!DOCTYPE svg PUBLIC "-//W3C//DTD SVG 1.1//EN" "http://www.w3.org/Graphics/SVG/1.1/DTD/svg11.dtd" >
<svg xmlns="http://www.w3.org/2000/svg" xmlns:xlink="http://www.w3.org/1999/xlink" version="1.1" viewBox="0 -205 1024 1024">
  <g transform="matrix(1 0 0 -1 0 819)">
   <path fill="currentColor"
d="M293 869l12 11q12 12 14 12q3 0 15 -10l24 -23q16 -11 16 -20q0 -10 -28 -15v-627q0 -32 -2 -38.5t-20 -16.5q-7 -2 -20 -3q0 9 -2 38h-147q0 -34 -2 -37q-3 -6 -22 -13q-16 -7 -20 -2q-2 16 0 74v654l-2 41l47 -25h137zM155 849v-202h147v202h-147zM155 626v-201h147
v201h-147zM155 404v-207h147v207h-147zM905 415q8 -9 8 -13t-8 -7q-17 -6 -20 -8v-229v-34q-2 -6 -24 -16q-8 -2 -12 -2q-6 0 -7 9q-1 5 0 34h-330q0 -35 -1 -37q-3 -8 -25 -16q-9 -3 -12 -3q-6 0 -7 11q1 -19 1 40v269l-3 41l51 -30h314l17 19q12 10 14 10q3 0 17 -12z
M842 170v233h-330v-233h330zM780 936q23 -8 23 -16q0 -9 -22 -13q-23 -84 -30 -98h168l16 20q7 8 8 8t15 -12l26 -26l-4 -11h-58q-23 -126 -84 -210q51 -67 153 -88l-3 -16q-18 4 -24.5 -10t-11.5 -14t-15 5q-77 42 -125 98q-75 -69 -183 -115l-4 10q110 62 168 133
q-37 65 -63 176q-24 -74 -59 -127l-11 9q51 100 86 309zM745 788q15 -95 70 -181q52 81 63 181h-133zM455 888q29 0 86.5 18t89.5 40l27 -29q10 -11 4 -18q-7 -7 -25 2q-60 -17 -186 -29v-84h160l6 7q11 14 16 14q3 0 17 -13l17 -14q11 -12 11 -18q0 -4 -23 -12v-139v-29
q-3 -7 -20 -16q-10 -5 -14 -5q-8 0 -9 13v29h-167q-10 -107 -71 -193l-15 11q54 92 54 274q0 88 -3 170l-3 46zM451 769q0 -93 -4 -144h165v144h-161z" />
  </g>

</svg>
