<?xml version="1.0" standalone="no"?>
<!DOCTYPE svg PUBLIC "-//W3C//DTD SVG 1.1//EN" "http://www.w3.org/Graphics/SVG/1.1/DTD/svg11.dtd" >
<svg xmlns="http://www.w3.org/2000/svg" xmlns:xlink="http://www.w3.org/1999/xlink" version="1.1" viewBox="0 -205 1024 1024">
  <g transform="matrix(1 0 0 -1 0 819)">
   <path fill="currentColor"
d="M380 356q20 90 22 228v218l60 -46h164v220l76 -28q8 -3 8 -6q3 -5 -2 -10l-30 -14v-56h172l32 48l64 -56q3 -4 4 -8q-1 -9 -10 -8h-262v-82h220l22 28l52 -36q15 -9 12 -18q0 -3 -12 -6q-20 -6 -40 -20q-31 -27 -64 -66l-14 6l46 86h-448v-134q-6 -175 -36 -274
q-28 -99 -94 -180q-67 -78 -124 -123l-10 14q65 64 118 147t74 176v0v0zM592 458l80 -30q15 -6 4 -18l-36 -14v-291h92v349l78 -28q11 -7 2 -16l-32 -18v-178q44 50 110 170l64 -40q7 -10 -4 -16q-15 -1 -30 -8q-87 -84 -140 -140v-75h108l36 37l58 -47q3 -3 4 -10t-10 -8
h-528q-20 0 -70 -6l-14 34h228v353v0v0zM50 672h150v290l72 -34q30 -10 6 -22l-30 -14v-220h52l30 44l50 -48q3 -4 6 -10q0 -12 -12 -12h-126v-266l114 44l8 -16q-210 -104 -236 -130q-27 -24 -44 -44l-52 62l162 66v284h-66q-19 0 -68 -6l-16 32v0v0zM456 380
q65 -54 80 -92q13 -36 8 -56q-6 -21 -18 -26q-12 -6 -24 0t-12 28q0 21 -8 54q-7 33 -38 84l12 8v0v0zM702 704q7 -3 8 -6q0 -4 -6 -10l-28 -10v-64l70 4l38 48l56 -48q12 -9 -2 -14l-162 -12v-50q0 -24 12 -26q12 -3 42 -2h114q24 -1 36 10q9 9 12 24q3 14 10 86h18
q-1 -28 4 -58q2 -28 32 -46q-10 -22 -32 -38q-21 -16 -54 -16h-198q-30 5 -36 22q-7 17 -8 44v46l-104 -6q-15 0 -26 -8l-22 30l152 8v114l74 -22v0v0z" />
  </g>

</svg>
