<?xml version="1.0" standalone="no"?>
<!DOCTYPE svg PUBLIC "-//W3C//DTD SVG 1.1//EN" "http://www.w3.org/Graphics/SVG/1.1/DTD/svg11.dtd" >
<svg xmlns="http://www.w3.org/2000/svg" xmlns:xlink="http://www.w3.org/1999/xlink" version="1.1" viewBox="0 -36 256 256">
  <g transform="matrix(1 0 0 -1 0 220)">
   <path fill="currentColor"
d="M52 201q29 -12 31 -18t-3 -12t-9 2.5t-20 24.5zM35 171q30 -11 31 -18t-3 -11.5t-8.5 4t-21.5 23.5zM52 116q9 5 35 45l4 -2q-30 -47 -31 -60t-1 -20t-9 -5t-5.5 12.5t1.5 14.5t-22 9v3q19 -2 28 3zM222 139q-16 5 -35.5 18t-28.5 26q-15 -14 -30.5 -24t-41.5 -21l-2 3
q24 14 41.5 29t26.5 28l18 -8l-8 -4q11 -12 32 -21.5t47 -12.5v-3q-15 -2 -19 -10zM173 149l11 8l15 -15h-37v-17h35l12 9l16 -16h-63v-25q0 -15 -16 -20q-4 11 -27 16v4q13 -2 21 -2.5t9 3.5v24h-31q-11 0 -20 -2l-9 9h60v17h-7q-10 0 -19 -2l-9 9h59zM103 90.5
q-16 -9.5 -30 -14.5l-2 3q30 18 44 36l14 -10q-10 -5 -26 -14.5zM179 112q19 -5 32 -10t15.5 -10.5t-1.5 -11t-10 1t-16 14.5t-23 13zM123 81l21 -9l-6 -6v-9h49l12 11l18 -18h-79v-25h75l16 11l18 -18h-204q-10 0 -19 -2l-9 9h109v25h-50q-10 0 -19 -2l-9 9h78q0 12 -1 24z
M126 211h-36q0 -8 1 -18l-16 -6q1 13 1 24h-21q-14 1 -25 -2l-8 9h54q0 20 -1 29l21 -7l-6 -7v-15h11l12 10zM128 219h33q0 16 -1 27l22 -8l-8 -7v-12h31l11 9l16 -16h-58q0 -5 1 -16l-15 -5q1 17 1 21h-11q-7 0 -13 -2z" />
  </g>

</svg>
