<?xml version="1.0" standalone="no"?>
<!DOCTYPE svg PUBLIC "-//W3C//DTD SVG 1.1//EN" "http://www.w3.org/Graphics/SVG/1.1/DTD/svg11.dtd" >
<svg xmlns="http://www.w3.org/2000/svg" xmlns:xlink="http://www.w3.org/1999/xlink" version="1.1" viewBox="0 -36 256 256">
  <g transform="matrix(1 0 0 -1 0 220)">
   <path fill="currentColor"
d="M91 226h-53v-34h53v34zM91 185h-53v-29h53v29zM91 149h-53v-34h53v34zM94 28h125q9 0 11 9t2 21h4q0 -6 2 -16t10 -15q-5 -13 -24 -12h-139q-15 0 -15 16v77h-11q-1 -22 -3.5 -37.5t-11 -31t-37.5 -32.5l-1 3q21 18 28 31.5t9.5 29t2.5 37.5h-8v-7l-13 -8q1 21 1 77
t-1 70l12 -7h54l6 9l14 -13l-8 -6v-80q0 -22 1 -40l-13 -8v13h-9v-69q0 -11 12 -11zM139 213q0 17 -1 34l20 -10l-6 -7v-23h6l8 8l12 -15h-26v-40h11l10 9l13 -16h-42l16 -8l-5 -6v-68q1 -21 -17 -29q-3 9 -8 11.5t-12 4.5v5q14 -1 19 -1t5 12v79h-7q-10 -1 -19 -3l-9 10h32
v53zM160 133q11 -10 18.5 -19.5t6 -16t-5.5 -9.5t-6 7.5t-15 34.5zM132 118q-6 -12 -28 -39l-3 2q20 35 22 53l15 -12zM221 218l7 9l14 -14l-8 -5q-7 -65 -21 -106q5 -11 14 -20.5t16 -11.5v-3q-12 -1 -17 -9q-11 13 -21 32q-18 -28 -47 -45l-2 2q29 25 44 59
q-15 39 -18 105l-5 -2l-8 9h52zM206 118q13 49 16 93h-36q8 -63 20 -93z" />
  </g>

</svg>
