<?xml version="1.0" standalone="no"?>
<!DOCTYPE svg PUBLIC "-//W3C//DTD SVG 1.1//EN" "http://www.w3.org/Graphics/SVG/1.1/DTD/svg11.dtd" >
<svg xmlns="http://www.w3.org/2000/svg" xmlns:xlink="http://www.w3.org/1999/xlink" version="1.1" viewBox="0 -36 256 256">
  <g transform="matrix(1 0 0 -1 0 220)">
   <path fill="currentColor"
d="M38 229l25 -8l-10 -7v-30h71v38q0 11 -1 22l22 -8l-7 -8v-44h69q0 33 -2 45l24 -9l-8 -6v-17q0 -13 1 -24l-15 -6v10h-152l-7 -6l-16 12l7 5q0 31 -1 41zM80 70q32 -12 39 -22.5t2.5 -19.5t-12 4t-31.5 33q-16 -38 -61 -57l-2 3q20 12 35 32t20 45h-23q-12 0 -22 -2
l-10 9h56v40h-19q-11 -21 -31 -36l-3 2q14 18 21 34.5t12 37.5l22 -11l-10 -4q-3 -8 -7 -16h43l11 10l16 -17h-40v-40h18l14 11l17 -18h-50q-2 -8 -5 -18zM215 138h-65q-10 -26 -23 -38l-3 2q15 21 23 74l23 -9l-10 -5q-1 -6 -7 -17h63l7 10l17 -15q-14 -3 -32 -32l-4 1z
M191.5 49.5q-10.5 20.5 -14.5 52.5q-3 -44 -22.5 -64t-47.5 -29l-2 2q36 20 48 46t12 70l23 -8l-6 -5q4 -37 19 -58.5t38 -32.5v-4q-16 2 -23 -7q-14 17 -24.5 37.5z" />
  </g>

</svg>
