<?xml version="1.0" standalone="no"?>
<!DOCTYPE svg PUBLIC "-//W3C//DTD SVG 1.1//EN" "http://www.w3.org/Graphics/SVG/1.1/DTD/svg11.dtd" >
<svg xmlns="http://www.w3.org/2000/svg" xmlns:xlink="http://www.w3.org/1999/xlink" version="1.1" viewBox="0 -36 256 256">
  <g transform="matrix(1 0 0 -1 0 220)">
   <path fill="currentColor"
d="M16 72q15 -24 17 -33.5t-2 -15t-9 -4.5t-3.5 11t-6.5 40zM234 171l13 -16h-25q0 -10 1 -24l-13 -6v5h-29v-16h33l7 9l15 -14l-7 -5v-72q-1 -20 -17 -26q-2 9 -7 11t-14 5v4q13 -1 19 -0.5t6 14.5v16h-35v-32l-12 -7v39h-31v-38l-13 -8q1 15 1 54t-1 58l14 -8h30v16h-15
q-10 0 -19 -2l-9 9h43v17h-29q-6 0 -15 -2l-9 9h53v16h-16q-10 0 -19 -2l-9 9h44v20h-52v-71q1 -38 -7 -68.5t-27 -55.5l-5 1q14 25 19.5 49.5t6 43.5t0.5 48.5t-1 68.5l14 -9h53q0 7 -3 15t-11 17l1 3q17 -6 24.5 -15t-3.5 -20h42l12 13l17 -20h-75l17 -6l-10 -6v-8h29l7 8
l12 -11l-7 -6l2 -15zM181 161h29v16h-29v-16zM181 137h29v17h-29v-17zM138 88h31v19h-31v-19zM181 88h35v19h-35v-19zM138 63h31v18h-31v-18zM181 63h35v18h-35v-18zM40 74l1 3q22 -22 24 -32t-4.5 -13.5t-8.5 6t-12 36.5zM66 86q24 -19 26 -27t-4 -15t-8 4.5t-16 34.5z
M63 227q-19 -36 -36 -58l37 1q6 12 12 25l19 -14l-11 -4q-36 -52 -59 -72l50 5q-5 13 -13 27l2 3q28 -26 28 -35.5t-5.5 -13.5t-6.5 1.5t-4 12.5q-22 -5 -35 -9t-22 -9l-9 19q8 -1 21 15.5t29 42.5q-30 -6 -40 -12l-8 18q9 -2 21.5 23.5t18.5 49.5l22 -12z" />
  </g>

</svg>
