<?xml version="1.0" standalone="no"?>
<!DOCTYPE svg PUBLIC "-//W3C//DTD SVG 1.1//EN" "http://www.w3.org/Graphics/SVG/1.1/DTD/svg11.dtd" >
<svg xmlns="http://www.w3.org/2000/svg" xmlns:xlink="http://www.w3.org/1999/xlink" version="1.1" viewBox="0 -205 1024 1024">
  <g transform="matrix(1 0 0 -1 0 819)">
   <path fill="currentColor"
d="M24 684h84v232l76 -32q10 -5 8 -10q-2 -6 -34 -24v-166h84v292l78 -30q13 -6 12 -12q0 -6 -8 -8l-32 -18v-224h98v298l86 -34q13 -6 2 -18l-38 -18v-228h30l22 38l46 -42q2 -3 4 -12q0 -9 -12 -12h-90v-238l4 -88q0 -13 -20 -26q-22 -14 -34 -12v70h-98v-50
q0 -13 -20 -28q-19 -13 -34 -16l4 120v268h-84v-494h242l42 54l54 -64q3 -3 4 -9q-1 -7 -10 -8h-318l-36 -42l-64 52q30 17 36 33v478h-26q-19 0 -38 -8l-20 36v0v0zM390 390v266h-98v-266h98v0v0zM774 642q6 0 6 -8q0 -4 -6 -8l-22 -16q24 -170 48 -250q24 -78 58 -132
q33 -54 64 -79q27 -23 76 -38v-16q-40 0 -58 -4q-19 -3 -40 -18q-48 55 -80 119q-33 66 -50 136q-15 67 -38 242q-16 -159 -40 -246q-24 -88 -92 -166q-66 -76 -198 -139l-8 14q86 54 152 123q63 71 94 160q30 87 52 358l82 -32v0v0zM736 946q7 -3 8 -6q3 -6 -8 -12
q-28 -12 -40 -36q-33 -69 -56 -128h252l34 42l56 -50q18 -12 18 -20q1 -7 -16 -10q-30 -8 -54 -34q-24 -27 -84 -116l-14 8l68 156h-270q-60 -135 -120 -216l-16 8q66 133 106 254q39 121 58 194l78 -34v0v0z" />
  </g>

</svg>
