<?xml version="1.0" standalone="no"?>
<!DOCTYPE svg PUBLIC "-//W3C//DTD SVG 1.1//EN" "http://www.w3.org/Graphics/SVG/1.1/DTD/svg11.dtd" >
<svg xmlns="http://www.w3.org/2000/svg" xmlns:xlink="http://www.w3.org/1999/xlink" version="1.1" viewBox="0 -36 256 256">
  <g transform="matrix(1 0 0 -1 0 220)">
   <path fill="currentColor"
d="M42.5 196.5q6.5 -12.5 -1 -22.5t-11 7.5t-13.5 38.5l3 2q16 -13 22.5 -25.5zM54 246l23 -9l-9 -9v-71h12l10 11l15 -18h-37v-20q20 -12 28.5 -20.5t3.5 -22t-11.5 3.5t-20.5 33v-77q0 -13 1 -31l-15 -7q1 42 1 108q-16 -34 -43 -63l-3 2q32 46 43 94h-10q-13 0 -22 -3
l-10 10h45q0 58 -1 89zM102 206q-13 -24 -28 -40l-3 2q12 21 20 55l19 -13zM171 83h29v73h-29v-73zM117 224l22 -11l-8 -6v-44h26q0 62 -1 81l23 -11l-8 -6v-64h29q0 60 -1 80l22 -11l-8 -6v-63h9l12 12l15 -19h-36v-61v-27l-13 -8v16h-29v-13l-15 -6q1 23 1 39v60h-26v-123
h88l14 13l15 -20h-115l-9 -7l-14 13l8 5v119h-3l-9 -3l-8 10h20q0 49 -1 61z" />
  </g>

</svg>
