<?xml version="1.0" standalone="no"?>
<!DOCTYPE svg PUBLIC "-//W3C//DTD SVG 1.1//EN" "http://www.w3.org/Graphics/SVG/1.1/DTD/svg11.dtd" >
<svg xmlns="http://www.w3.org/2000/svg" xmlns:xlink="http://www.w3.org/1999/xlink" version="1.1" viewBox="0 -205 1024 1024">
  <g transform="matrix(1 0 0 -1 0 819)">
   <path fill="currentColor"
d="M578 370h256v236h-256v-236v0v0zM578 632h256v222h-256v-222v0v0zM144 956l60 -48h126l32 42l56 -46q8 -3 8 -12q1 -7 -28 -28v-702q1 -38 -12 -67q-13 -27 -62 -42q-4 28 -22 44q-19 16 -86 38l4 15q75 -14 90 -17q16 -1 26 4q10 4 8 25v276h-148q-4 -156 -46 -252
q-42 -94 -98 -143l-10 8q63 98 84 199q21 102 18 286v420v0v0zM196 464h148v200h-148v-200v0v0v0zM196 690h148v192h-148v-192v0v0zM522 922l60 -42h238l30 44l68 -50q6 -7 6 -10q-9 -12 -36 -30v-418l6 -92q0 -16 -20 -26q-19 -9 -40 -12v58h-256v-48q-1 -12 -22 -24
q-22 -12 -38 -12l4 124v538v0v0zM426 146h452l40 54l68 -61q3 -2 4 -8q0 -12 -12 -12h-468q-21 1 -68 -8l-16 35v0v0z" />
  </g>

</svg>
