<?xml version="1.0" standalone="no"?>
<!DOCTYPE svg PUBLIC "-//W3C//DTD SVG 1.1//EN" "http://www.w3.org/Graphics/SVG/1.1/DTD/svg11.dtd" >
<svg xmlns="http://www.w3.org/2000/svg" xmlns:xlink="http://www.w3.org/1999/xlink" version="1.1" viewBox="0 -52 256 256">
  <g transform="matrix(1 0 0 -1 0 204)">
   <path fill="currentColor"
d="M20 20l-10 13q8 5 22 10q2 1 3 1q5 3 11 4v92h-25q-4 0 -9 -3l-8 8h38l9 10l13 -12q2 -2 1 -3q0 -1 -2 -1l-5 -2v-89q5 -1 9 -4q6 6 15 14q14 18 18 34q2 6 3 15h-21q-7 0 -11 -3l-7 7h39q1 5 1 16q1 10 1 16h-16q-7 -15 -18 -27l-3 2q11 18 15 32q6 13 5 16q0 3 -2 6
l1 2l15 -6q3 -2 2 -3q-1 0 -2 -1q-3 -1 -5 -2q-3 -8 -6 -14h35l5 7l15 -10q4 -2 -1 -2h-32q0 -17 -1 -32h18l5 8l15 -10q4 -2 -1 -2h-37q0 -2 -1 -5q0 -4 -1 -6v-1q-1 -2 -1 -3q9 -5 15 -11q14 -15 11 -24q-1 -5 -4 -5t-4 6t-6 14q-2 4 -10 13q-2 3 -3 4q-4 -17 -16 -29
q-9 -11 -21 -19q7 -4 16 -7q11 -3 33 -4l41 -1q50 0 92 3v-5q-8 0 -13 -3q-6 -2 -7 -8h-65q-61 0 -77 6t-23 12q-1 0 -2 2q-2 1 -3 2q-2 -2 -5 -3l-1 3q2 0 3 2h-5q-5 3 -14 -2q-9 -6 -21 -18zM245 167q1 -2 -2 -2q-8 2 -22 -23l-3 2l9 22h-29v-47h17l7 9l16 -12q3 -2 -2 -2
h-38v-58q20 -8 50 -7v-5q-15 1 -17 -4q-14 0 -22 3q-9 2 -18 7q-8 5 -17 15q-6 6 -11 13q-1 -3 -1 -6q-9 -26 -31 -39l-2 2q16 15 24 38q6 20 9 56q0 4 -5 7l2 3l18 -7q2 0 3 -1q0 -1 -1 -2q-5 0 -7 -3q-3 -21 -7 -42q6 -7 14 -15q5 -5 10 -8v105h-30q-3 2 -8 -3l-8 8h81
l7 7zM125 238l14 -12q2 -1 2 -2t-2 -1h-8q-1 0 -9 -3q-4 -1 -7 -2q-10 -3 -21 -6v-9q0 -13 2 -16q1 -3 8 -3h11h3q12 -1 13 4q2 2 2 17q1 5 1 8h3l1 -19q0 -6 5 -8q-2 -11 -26 -10h-15q-10 2 -14 3q-3 3 -3 15v45q-2 6 -6 9l2 2l20 -7q1 -2 -1 -2q-3 0 -6 -4v-19q4 1 11 4
q6 2 8 3q10 5 10 6q1 3 1 5zM166 200l1 4q9 -3 20 -7q1 -1 2 -1l2 -1l24 35h-49q-4 0 -8 -4l-8 8h62l7 8l14 -12q2 -3 -3 -3q-1 0 -2 -1q-4 0 -5 -2q-2 -1 -8 -9q-2 -2 -6 -8q-8 -9 -13 -15l3 -3l1 -1q10 -11 1 -14q-3 -1 -7 5q-4 10 -28 21zM26 239l1 3q20 -6 26 -10
q7 -6 10 -12q3 -5 2 -11q-1 -4 -6 -6q-4 0 -6 6q-1 7 -6 14q-6 9 -21 16z" />
  </g>

</svg>
