<?xml version="1.0" standalone="no"?>
<!DOCTYPE svg PUBLIC "-//W3C//DTD SVG 1.1//EN" "http://www.w3.org/Graphics/SVG/1.1/DTD/svg11.dtd" >
<svg xmlns="http://www.w3.org/2000/svg" xmlns:xlink="http://www.w3.org/1999/xlink" version="1.1" viewBox="0 -36 256 256">
  <g transform="matrix(1 0 0 -1 0 220)">
   <path fill="currentColor"
d="M238 66q0 -26 1 -50l-15 -8v22h-97v-16l-14 -7q1 20 1 40v146q0 19 -1 43l14 -11h95l8 11l15 -13l-7 -7v-150zM127 37h97v181h-97v-181zM182 145q34 -50 37 -63t-3 -23.5t-10 11.5t-25 68q-4 -27 -17 -50.5t-36 -40.5l-2 2q21 25 32 53t12 75v12l-1 21l19 -9l-5 -8
q0 -25 -1 -48zM31 62.5q-4 15.5 -16 36.5l2 2q16 -12 24 -22t1 -21t-11 4.5zM89 168l15 -17h-38v-29h17l11 10l14 -17h-42v-51q10 14 24 45l15 -14l-9 -6q-12 -13 -30 -32v-11l43 11l1 -4q-60 -21 -86 -34l-11 17q16 2 40 8v71h-12q-11 0 -20 -3l-9 10h41v29h-23
q-10 -13 -20 -21l-2 2q33 57 49 115l18 -12l-7 -4l-4 -10q21 -7 32.5 -13t8.5 -18.5t-12 0t-31 26.5q-14 -36 -28 -58h43z" />
  </g>

</svg>
