<?xml version="1.0" standalone="no"?>
<!DOCTYPE svg PUBLIC "-//W3C//DTD SVG 1.1//EN" "http://www.w3.org/Graphics/SVG/1.1/DTD/svg11.dtd" >
<svg xmlns="http://www.w3.org/2000/svg" xmlns:xlink="http://www.w3.org/1999/xlink" version="1.1" viewBox="0 -36 256 256">
  <g transform="matrix(1 0 0 -1 0 220)">
   <path fill="currentColor"
d="M185 216l12 8l15 -15h-66q-8 1 -15 -2l-8 9h62zM116 197h94l12 9l13 -16h-93v-37l29 10l1 -4q-30 -16 -39 -23l-7 11q3 2 4 9v34h-14q-1 -14 -7.5 -26t-23.5 -26l-4 2q12 14 17 24.5t5.5 23.5t-0.5 53l13 -5h88l10 9l14 -16h-112v-32zM129 105l9 8l11 -16h-57v8h37z
M92 84h47l8 8l10 -15h-40q10 -11 18 -21q9 9 15 19l9 -12q-7 -2 -12 -5.5t-9 -5.5q10 -14 11.5 -20t-4 -11.5t-7 0t-7.5 20.5t-18 36h-6v-44l18 11l1 -3q-20 -19 -23 -27l-9 10q3 7 3 13v40h-5q0 -19 -5.5 -34.5t-20.5 -31.5l-3 3q10 14 14 29t4.5 30.5t-0.5 57.5l11 -6h40
l10 8l11 -15h-61v-34zM211 106l10 9l13 -17h-58v8h35zM176 85h50l10 8l12 -15h-53v-46l16 6l2 -3q-21 -13 -26 -20l-6 12q3 6 3 11v40h-8q0 -17 -3.5 -35.5t-20.5 -34.5l-2 2q10 19 12.5 34.5t3 31.5t-1.5 59l13 -7h43l10 9l12 -16h-66v-36zM46 245l23 -10l-9 -8v-44h11
l9 12l13 -19h-33v-47l23 10l2 -4l-25 -16v-83q1 -22 -22 -29q3 10 -19 19v5q12 -2 20 -2.5t8 11.5v70q-27 -18 -26 -20l-13 17q12 3 39 16v53h-9q-10 0 -19 -2l-9 9h37q0 35 -1 62zM205 81q4 -12 13 -25q13 12 15 18l12 -13l-12 -2l-11 -6q10 -15 26 -21l-1 -4
q-10 -2 -16 -8q-28 29 -32 62zM155 185q19 -9 37 -16q9 10 11 19l14 -9q-8 -4 -18 -12q20 -10 24.5 -14.5t3 -12.5t-11.5 1t-21 16t-42 26z" />
  </g>

</svg>
