<?xml version="1.0" standalone="no"?>
<!DOCTYPE svg PUBLIC "-//W3C//DTD SVG 1.1//EN" "http://www.w3.org/Graphics/SVG/1.1/DTD/svg11.dtd" >
<svg xmlns="http://www.w3.org/2000/svg" xmlns:xlink="http://www.w3.org/1999/xlink" version="1.1" viewBox="0 -36 256 256">
  <g transform="matrix(1 0 0 -1 0 220)">
   <path fill="currentColor"
d="M94 232h42l10 12l15 -19h-31v-42h10l6 11l14 -12l-6 -7q0 -41 1 -49l-14 -6v8h-11v-48h12l11 14l14 -21h-73l-6 -7l-14 14l7 7q0 131 -1 156zM179 165h36v59h-36v-59zM229 152l-14 -9v15h-36v-54q0 -18 10 -17h32q5 2 6 44h4q1 -13 2 -25.5t10 -17.5q-8 -15 -20 -14h-41
q-15 0 -15 24v111q0 14 -1 30l12 -8h35l7 10l14 -12l-6 -6q0 -54 1 -71zM94 135h47v40h-47v-40zM118 183v42h-24v-42h24zM94 80h24v48h-24v-48zM207 59q20 -12 29 -21.5t2 -21.5t-11.5 3.5t-21.5 37.5zM41 58q-1 -30 -6.5 -40t-16.5 -8t0 12t19 37zM108.5 31q3.5 -9 -5 -18
t-9.5 6.5t-10 37.5l3 2q18 -19 21.5 -28zM169 31.5q5 -8.5 -3.5 -18t-11 8t-14.5 35.5l3 2q21 -19 26 -27.5zM43.5 196.5q6.5 -9.5 2 -20.5t-9 3t-19.5 37l2 2q18 -12 24.5 -21.5zM53 145q-20 -18 -31 -40l-13 17q23 11 44 31v57q0 17 -1 34l19 -11l-6 -6v-126q0 -12 1 -24
l-14 -10q1 24 1 78z" />
  </g>

</svg>
