<?xml version="1.0" standalone="no"?>
<!DOCTYPE svg PUBLIC "-//W3C//DTD SVG 1.1//EN" "http://www.w3.org/Graphics/SVG/1.1/DTD/svg11.dtd" >
<svg xmlns="http://www.w3.org/2000/svg" xmlns:xlink="http://www.w3.org/1999/xlink" version="1.1" viewBox="0 -36 256 256">
  <g transform="matrix(1 0 0 -1 0 220)">
   <path fill="currentColor"
d="M36 197q0 29 -1 41l15 -8h49l7 9l13 -11l-7 -7v-23q0 -25 1 -47l-14 -5v8h-50v-4l-14 -7q1 25 1 54zM127.5 30.5q32.5 -1.5 61.5 -0.5t59 6v-4q-16 -5 -16 -16q-53 -2 -90 -1t-61 12t-43 40q-9 -36 -28 -57l-3 2q11 23 16.5 48.5t6.5 54.5l19 -9q-6 -4 -9 -30
q13 -18 28 -28v78h-25q-10 -1 -19 -3l-10 10h90l12 12l16 -19h-51v-37h20l11 12l15 -19h-46v-41q14 -9 46.5 -10.5zM49 195h50v28h-50v-28zM49 161h50v27h-50v-27zM188 140h26v38h-26v-38zM137 189q0 35 -1 50l14 -9h64l7 9l13 -12l-7 -6v-45q0 -22 1 -42l-14 -9v8h-26v-30
h25l10 11l15 -18h-50v-40h31l12 11l15 -18h-100q-10 -1 -19 -3l-9 10h57v40h-17q-11 -1 -20 -3l-9 10h46v30h-25v-5l-14 -5q1 31 1 66zM150 185h25v38h-25v-38zM188 185h26v38h-26v-38zM150 140h25v38h-25v-38z" />
  </g>

</svg>
