<?xml version="1.0" standalone="no"?>
<!DOCTYPE svg PUBLIC "-//W3C//DTD SVG 1.1//EN" "http://www.w3.org/Graphics/SVG/1.1/DTD/svg11.dtd" >
<svg xmlns="http://www.w3.org/2000/svg" xmlns:xlink="http://www.w3.org/1999/xlink" version="1.1" viewBox="0 -246 2048 2048">
  <g transform="matrix(1 0 0 -1 0 1802)">
   <path fill="currentColor"
d="M1237 1356h399l80 92q130 -95 130 -127q0 -17 -21 -28l-51 -31v-1159h-121v1202h-416v-324h78l102 121q135 -120 148 -133l-25 -39h-1034l-22 51h262v324h-354v-1202h-121v1314q84 -32 139 -61h336v346h-566l-20 51h1509l111 145q90 -84 149 -157l-18 -39h-674v-346z
M1120 1356v346h-257v-346h257zM1120 1305h-257v-324h257v324zM506 213l-23 51h832l102 121q96 -82 148 -133l-25 -39h-1034zM506 584l-23 51h832l102 121q97 -83 148 -133l-25 -39h-1034z" />
  </g>

</svg>
