<?xml version="1.0" standalone="no"?>
<!DOCTYPE svg PUBLIC "-//W3C//DTD SVG 1.1//EN" "http://www.w3.org/Graphics/SVG/1.1/DTD/svg11.dtd" >
<svg xmlns="http://www.w3.org/2000/svg" xmlns:xlink="http://www.w3.org/1999/xlink" version="1.1" viewBox="0 -200 1000 1000">
  <g transform="matrix(1 0 0 -1 0 800)">
   <path fill="currentColor"
d="M34 286l-14 10q68 128 121 289q16 52 32 127h-70q-26 0 -44 -13l-33 33h163v188q0 22 -27 49l6 8l89 -36q14 -5 6 -10q-20 -9 -29 -21v-178h56l26 35l60 -41q11 -8 8 -12q-3 -3 -19 -2h-131v-124q26 -12 49 -25q32 -21 47 -47q16 -27 10 -49q-5 -22 -22 -22q-18 0 -22 27
q-6 27 -23 54q-13 17 -39 38v-408l2 -95q0 -21 -17 -31q-16 -9 -37 -14q4 29 7 186v378q-55 -166 -155 -294zM902 583q-14 21 -47 51l6 7q59 -26 78 -56q23 -31 21 -57q0 -24 -15 -29t-19 22l-3 12q-3 16 -6 24l-144 -16q-85 -12 -122 -21q-24 -5 -34 -26l-37 50l166 17h9
v116h-102q-2 -10 -8 -16q-8 -8 -29 -14q4 36 7 78v91q-3 18 -17 33l14 11l28 -33h107v97q1 14 -28 33l8 10l72 -25q14 -5 6 -11q-18 -5 -27 -17v-87h92l25 26l39 -32q7 -4 5 -8q-1 -3 -11 -5l-14 -10v-72l2 -42q-2 -17 -8 -23q-8 -6 -23 -7v23h-107v-114l121 11zM341 424
h525l29 43l60 -49q11 -8 8 -12q-2 -3 -18 -2h-294v-90q99 -26 167 -60q57 -29 75 -65q13 -29 -4 -44q-24 -12 -40 19q-22 34 -56 60q-35 29 -142 70v-177l3 -55q0 -20 -16 -30q-17 -10 -39 -14q4 38 7 146v240h-188q-26 0 -44 -13zM474 471q-3 37 -89 51l1 14q89 -14 122 1
q39 19 44 107q1 56 -8 85q-15 -21 -34 -39q-68 -74 -167 -113l-5 10q93 56 149 129q21 25 40 56q-8 16 -33 55q1 -2 -3 5q-49 -40 -120 -77l-6 11q66 47 104 85q-9 8 -18 17q-30 28 -78 56l6 12q54 -24 106 -67l1 -1q2 2 5 4l4 4q49 49 51 61q-1 10 -8 19l9 8l56 -44
q7 -6 7 -10q0 -3 -7 -5q-32 4 -62 -27l-6 -6q-16 -17 -25 -24q29 -36 38 -51q56 -97 33 -216q-14 -74 -107 -110zM786 811v-118h107v118h-107zM654 811v-118h101v118h-101z" />
  </g>

</svg>
