<?xml version="1.0" standalone="no"?>
<!DOCTYPE svg PUBLIC "-//W3C//DTD SVG 1.1//EN" "http://www.w3.org/Graphics/SVG/1.1/DTD/svg11.dtd" >
<svg xmlns="http://www.w3.org/2000/svg" xmlns:xlink="http://www.w3.org/1999/xlink" version="1.1" viewBox="0 -200 999 1000">
  <g transform="matrix(1 0 0 -1 0 800)">
   <path fill="currentColor"
d="M913 834v-750h-361l-70 -12l-25 35h402v359h-306l-63 -14l-23 37h392v365h-306l-59 -12l-22 35h376l38 51l56 -58zM133 942q42 -6 75.5 -17.5t56.5 -25.5t36 -29t14 -28v-6q0 -18 -8.5 -31t-23.5 -13q-19 0 -38 21q-20 37 -46 66t-71 52zM66 717q32 -9 59.5 -24t48 -32
t32 -35.5t11.5 -34.5q0 -33 -13 -46.5t-29 -13.5q-14 0 -20.5 16t-16 41.5t-27 57t-54.5 63.5zM139 281q59 2 83 24q13 7 23.5 26.5t21.5 54t26 84.5t37 118l124 402h19l-176 -700q-2 -13 -5.5 -32.5t-7 -48.5t-6 -67.5t-2.5 -89.5v-34q-12 -12 -16.5 -15.5t-18.5 -3.5
q-23 0 -34 8.5t-11 18.5q0 12 2.5 30t5.5 36.5t5.5 35t2.5 24.5q0 10 1 19t1 17q0 9 -2.5 18t-10.5 18.5t-23 19t-40 20.5z" />
  </g>

</svg>
