<?xml version="1.0" standalone="no"?>
<!DOCTYPE svg PUBLIC "-//W3C//DTD SVG 1.1//EN" "http://www.w3.org/Graphics/SVG/1.1/DTD/svg11.dtd" >
<svg xmlns="http://www.w3.org/2000/svg" xmlns:xlink="http://www.w3.org/1999/xlink" version="1.1" viewBox="0 -205 1024 1024">
  <g transform="matrix(1 0 0 -1 0 819)">
   <path fill="currentColor"
d="M902 926l72 -44q7 -4 8 -14q-1 -6 -40 -30l-14 -484q-9 -120 -20 -162q-12 -41 -36 -75q-24 -33 -96 -60q-9 45 -36 60q-24 15 -114 49l8 18q144 -45 174 -32q27 11 42 44q14 32 26 152l14 506h-242q-1 -288 -26 -416q-24 -129 -90 -218t-212 -169l-10 14q126 86 180 169
q54 81 78 192q25 107 24 428h-132q-20 0 -40 -8l-20 36h474l28 44v0v0zM482 716h22q1 -101 -10 -154q-12 -51 -36 -80q-25 -31 -52 -28q-24 2 -30 22t24 46q27 24 48 52q20 27 34 142v0v0zM196 994l78 -28q14 -5 2 -16l-30 -14v-144q65 -27 98 -48q29 -21 38 -44t0 -40
q-9 -19 -26 -16q-18 -1 -26 20q-6 20 -18 44q-12 22 -66 62v-600l4 -107q0 -10 -20 -24q-21 -12 -38 -10l4 135v830v0v0zM114 768h18q4 -97 2 -142q-3 -45 -24 -74q-18 -28 -42 -28q-22 0 -28 16q-7 14 4 28q11 15 26 30q12 15 24 48q10 32 20 122v0v0z" />
  </g>

</svg>
