<?xml version="1.0" standalone="no"?>
<!DOCTYPE svg PUBLIC "-//W3C//DTD SVG 1.1//EN" "http://www.w3.org/Graphics/SVG/1.1/DTD/svg11.dtd" >
<svg xmlns="http://www.w3.org/2000/svg" xmlns:xlink="http://www.w3.org/1999/xlink" version="1.1" viewBox="0 -36 256 256">
  <g transform="matrix(1 0 0 -1 0 220)">
   <path fill="currentColor"
d="M201.5 31q14.5 0 13.5 11v139h-168v-166l-15 -7q2 36 1 59v92q0 18 -1 37l15 -8h167l9 10l15 -14l-8 -6v-140q2 -22 -26 -29q-1 15 -35 20v5q18 -3 32.5 -3zM139.5 223.5q-6.5 -4.5 -23 -18t-29.5 -23.5h-5q20 22 30 33.5t21 30.5l19 -18q-6 0 -12.5 -4.5zM100 185h14
q0 -42 -14 -67t-52 -39l-1 5q32 17 43 45t10 56zM166 185v-71q0 -9 11 -8h12q3 0 8 3t10.5 -2.5t4 -10.5t-16.5 -5h-24q-20 0 -20 14v80h15z" />
  </g>

</svg>
