<?xml version="1.0" standalone="no"?>
<!DOCTYPE svg PUBLIC "-//W3C//DTD SVG 1.1//EN" "http://www.w3.org/Graphics/SVG/1.1/DTD/svg11.dtd" >
<svg xmlns="http://www.w3.org/2000/svg" xmlns:xlink="http://www.w3.org/1999/xlink" version="1.1" viewBox="0 -205 1024 1024">
  <g transform="matrix(1 0 0 -1 0 819)">
   <path fill="currentColor"
d="M836 876q-45 13 -96 6q-47 -9 -202 -32v-174h216l44 56l64 -62q6 -3 6 -8q0 -13 -12 -14h-318v-182h340l40 54l66 -60q6 -4 6 -10q0 -12 -18 -12h-852q-22 -1 -64 -10l-20 38h446v182h-240q-19 1 -62 -10l-22 38h324v168q-183 -15 -374 -18v22q228 18 414 48
q185 30 266 66l56 -68q6 -7 6 -10q-6 -9 -14 -8v0v0zM524 388q6 -6 4 -8q1 -7 -10 -10q-13 3 -28 -6t-62 -60q-45 -50 -180 -160l502 24q-52 66 -134 148l10 14q92 -61 152 -112q59 -52 74 -87t6 -62q-9 -24 -30 -24q-22 -1 -34 30q-9 34 -30 71q-367 -26 -448 -39
q-81 -12 -110 -36l-44 85q45 2 72 14q69 59 130 136q59 77 82 128l78 -46v0v0z" />
  </g>

</svg>
