<?xml version="1.0" standalone="no"?>
<!DOCTYPE svg PUBLIC "-//W3C//DTD SVG 1.1//EN" "http://www.w3.org/Graphics/SVG/1.1/DTD/svg11.dtd" >
<svg xmlns="http://www.w3.org/2000/svg" xmlns:xlink="http://www.w3.org/1999/xlink" version="1.1" viewBox="0 -52 256 256">
  <g transform="matrix(1 0 0 -1 0 204)">
   <path fill="currentColor"
d="M149 253l21 -12l2 -1q0 -1 -2 -2q-5 0 -7 -1t-18 -29h73l9 13l21 -14q2 -2 1 -3q0 -1 -5 -1h-34q-10 -33 -33 -54q44 -15 59 -33q4 -6 -1 -10q-3 -3 -12 6q-19 19 -52 31q-35 -27 -88 -36l-1 4q48 11 79 36q-24 9 -53 16q8 14 23 40h-22q-7 0 -12 -4l-8 9h45q11 19 16 34
q0 4 -3 8zM117 166q27 -6 50 -13q23 20 32 50h-57zM93 91q2 -1 0 -2q-4 0 -9 -3v-39q1 -10 4 -12q5 -3 12 -3q12 -1 42 -1q25 1 34 2q12 2 13 7t2 18q1 7 1 10h4v-17q0 -11 8 -13q-5 -8 -8 -10q-3 -3 -11 -4q-6 -1 -36 -2q-37 0 -52 1q-26 0 -24 19v46q-1 4 -8 10l2 2z
M93 226l3 -2l-22 -42q-17 -27 -20 -34t0 -26q3 -18 -6 -19q-9 0 -7 16q2 18 -1 21q-2 5 -20 5v4q21 0 23 3q5 3 15 18q4 6 17 26q11 19 18 30zM199 83l1 3q34 -16 43 -36q4 -12 -5 -15q-6 0 -7 6q-1 9 -9 19q-6 11 -23 23zM42 82q4 -36 -14 -48q-9 -6 -13 0q-3 6 4 9
q9 4 13 14q5 9 6 25h4zM115 107l1 3q1 0 3 -1q21 -7 25 -11l1 -1q7 -4 10 -10q6 -12 -3 -15q-4 -1 -7 7t-9 14t-21 14zM40 253q35 -7 38 -22q0 -7 -4 -10q-6 -1 -7 3q-2 5 -8 12q-6 8 -21 14zM16 211q32 -4 35 -19q1 -7 -4 -9q-5 -3 -7 3q-1 5 -6 11q-6 6 -20 11z" />
  </g>

</svg>
