<?xml version="1.0" standalone="no"?>
<!DOCTYPE svg PUBLIC "-//W3C//DTD SVG 1.1//EN" "http://www.w3.org/Graphics/SVG/1.1/DTD/svg11.dtd" >
<svg xmlns="http://www.w3.org/2000/svg" xmlns:xlink="http://www.w3.org/1999/xlink" version="1.1" viewBox="0 -36 256 256">
  <g transform="matrix(1 0 0 -1 0 220)">
   <path fill="currentColor"
d="M179.5 115.5q2.5 -7.5 -1.5 -16t-4.5 -2t-1.5 14.5q-13 -6 -19 -14l-5 14q4 6 8 15.5t9 30.5q-10 -4 -15 -9l-2 13q5 6 8.5 21.5t3.5 36.5l12 -10l-3 -8q-5 -20 -12 -41h9q2 12 2 23l12 -9q-4 -7 -9 -24.5t-13 -36.5l13 3l-4 19l1 3q9 -16 11.5 -23.5zM225 110
q0 -9 -4 -13.5t-4.5 1.5t-0.5 15q-12 -4 -17 -13l-6 14q5 5 9.5 18.5t7.5 26.5q-9 -3 -13 -8l-3 13q5 5 8.5 22t4.5 33l12 -10l-3 -5q-5 -20 -14 -41l9 1q3 12 4 23l10 -10q-4 -7 -7 -19t-14 -41l11 2q-1 9 -3 18l2 2q11 -20 11 -29zM226 172q0 14 -1 31l18 -10l-5 -7v-86
q0 -16 1 -31l-13 -7v17h-79l-6 -6l-10 12l5 5v78q0 19 -1 37l16 -10l-4 -7v-102h34v117q0 13 -1 39l19 -10l-7 -7v-139h34v86zM59 104h10v55h-10v-55zM80 159v-55h10v55h-10zM101 155v-30q0 -16 1 -30l-12 -5v7h-10v-37l21 4l-8 15l3 2q13 -14 20 -25t1.5 -20.5t-8.5 3
t-7 20.5q-38 -12 -58 -22l-11 13q20 4 36 8v39h-10v-10l-11 -6v93l11 -8h10v24h-6l-10 -1l-4 -2l-10 10h47l12 9l11 -16h-29v-24h10l6 8l13 -13zM111 223h-73q1 -85 -2.5 -129t-24.5 -81l-3 2q16 49 17 103.5t0 121.5l15 -10h71l8 9l11 -14l-7 -6v-76q-3 -69 31 -94t77 -23
l4 29h3q0 -26 7.5 -33t-13 -9t-53.5 8t-51.5 38.5t-16.5 101.5v62z" />
  </g>

</svg>
