<?xml version="1.0" standalone="no"?>
<!DOCTYPE svg PUBLIC "-//W3C//DTD SVG 1.1//EN" "http://www.w3.org/Graphics/SVG/1.1/DTD/svg11.dtd" >
<svg xmlns="http://www.w3.org/2000/svg" xmlns:xlink="http://www.w3.org/1999/xlink" version="1.1" viewBox="0 -36 256 256">
  <g transform="matrix(1 0 0 -1 0 220)">
   <path fill="currentColor"
d="M109 167h23v17h-23v-17zM145 152q-1 -10 15 -9h22v17h-37v-8zM63 160v-34q13 7 21.5 16t10.5 18h-32zM111 113q-17 0 -24 -3l-9 10h65l11 9l16 -16h-59zM63 100h119v32h-28q-21 0 -22 17v11h-24q-2 -13 -15.5 -24t-29.5 -16v-20zM96 184h-4q-12 0 -18 -3l-9 10h86l12 11
l17 -18h-35v-17h36l6 9l16 -12l-7 -7v-39q0 -15 1 -29l-15 -5v9h-119v-7l-16 -6q1 24 1 46.5t-1 45.5l14 -5h35v17zM170 35q0 -11 1 -21l-17 -6q1 15 1 20v29h-65q-2 -14 -17 -27t-57 -23l-2 4q27 9 43 21.5t18 24.5h-31q-13 0 -22 -2l-11 9h65q0 19 -1 26l24 -6l-8 -5v-15
h64v26l22 -7l-7 -6v-13h40l13 11l18 -18h-71v-22zM93 241l17 -15l-8 -3q-39 -39 -88 -57l-2 4q52 27 81 71zM154 228h-16l-7 -3l-8 10h28l6 8l13 -10l-8 -6q24 -37 85 -47v-4q-15 -3 -20 -12q-53 21 -73 64z" />
  </g>

</svg>
