<?xml version="1.0" standalone="no"?>
<!DOCTYPE svg PUBLIC "-//W3C//DTD SVG 1.1//EN" "http://www.w3.org/Graphics/SVG/1.1/DTD/svg11.dtd" >
<svg xmlns="http://www.w3.org/2000/svg" xmlns:xlink="http://www.w3.org/1999/xlink" version="1.1" viewBox="0 -36 256 256">
  <g transform="matrix(1 0 0 -1 0 220)">
   <path fill="currentColor"
d="M61 241q21 -11 26 -20t-7 -20h34l13 13l16 -20h-106q-10 0 -19 -2l-9 9h64q-1 19 -15 38zM60 83l-10 -6q-16 -31 -39 -51l-3 3q24 33 33 66zM94 93q39 -28 40 -38t-4 -18.5t-9 5.5t-30 48zM46 122h61v42h-61v-42zM65 10q-3 14 -28 21v5q22 -3 27 -2.5t6 6.5v75h-24v-5
l-14 -5q1 24 1 39t-1 35l13 -8h60l8 10l17 -14l-10 -6q0 -34 1 -50l-14 -5v9h-24v-80q1 -18 -18 -25zM171 110q6 -11 -2 -21.5t-12.5 5.5t-21.5 42l3 3q27 -18 33 -29zM197 240l24 -12l-9 -7v-52h6l12 13l15 -20h-33v-120q2 -23 -20 -32q-3 15 -33 20v5q14 -1 25.5 -1
t13.5 10v118h-39q-10 0 -19 -2l-9 9h67v44q0 7 -1 27z" />
  </g>

</svg>
