<?xml version="1.0" standalone="no"?>
<!DOCTYPE svg PUBLIC "-//W3C//DTD SVG 1.1//EN" "http://www.w3.org/Graphics/SVG/1.1/DTD/svg11.dtd" >
<svg xmlns="http://www.w3.org/2000/svg" xmlns:xlink="http://www.w3.org/1999/xlink" version="1.1" viewBox="0 -200 1000 1000">
  <g transform="matrix(1 0 0 -1 0 800)">
   <path fill="currentColor"
d="M130 865q-18 2 -37 -13l-34 29h287l36 36l42 -40q7 -8 6 -12t-10 -4l-20 -7v-142h8l23 29l55 -39q8 -5 7 -8q-2 -2 -13 -2h-80v-100l4 -77q1 -31 -43 -31v55h-168q-3 -21 -8 -40q-13 -48 -34 -94l12 -12h203l25 28l45 -34q6 -6 5 -9q-2 -3 -11 -4l-16 -11v-176l5 -60
q2 -31 -40 -35v63h-208v-61q5 -37 -42 -43q5 36 7 142v180q-40 -75 -103 -139l-6 12q59 81 93 170l-1 1l2 1q15 40 26 79q5 20 9 42h-23q-26 1 -44 -13l-33 29h103q12 60 19 137h-82q-24 1 -44 -12l-33 32h161q6 71 9 153h-59zM520 445l37 -30h252l37 38l48 -46q7 -6 5 -10
q-1 -5 -10 -7l-18 -9v-204l5 -76q3 -26 -48 -35v78h-257v-51q3 -35 -50 -43q5 37 7 133v212q-2 21 -19 39zM571 395v-232h257v232h-257zM489 708h155q19 76 25 165h-83q-24 1 -44 -12l-33 32h287l31 39l61 -49q8 -5 7 -8q-2 -2 -13 -2h-167q-9 -96 -26 -165h151l31 38
l61 -49q8 -5 7 -7t-13 -2h-180q27 -66 68 -122q46 -61 96 -90q25 -14 80 -26l-1 -13q-55 7 -77 -21q-73 44 -129 135q-39 66 -60 137h-40q-21 -77 -62 -137q-65 -94 -179 -146l-10 10q121 83 170 184q21 40 35 89h-71q-26 1 -44 -13zM171 171h208v206h-208v-206zM217 692
q-8 -74 -20 -137h164v137h-144zM228 865q-1 -81 -9 -153h142v153h-133z" />
  </g>

</svg>
