<?xml version="1.0" standalone="no"?>
<!DOCTYPE svg PUBLIC "-//W3C//DTD SVG 1.1//EN" "http://www.w3.org/Graphics/SVG/1.1/DTD/svg11.dtd" >
<svg xmlns="http://www.w3.org/2000/svg" xmlns:xlink="http://www.w3.org/1999/xlink" version="1.1" viewBox="0 -144 1024 1024">
  <g transform="matrix(1 0 0 -1 0 880)">
   <path fill="currentColor"
d="M910 786l64 -53v-22h-274v-639l-65 -32v671h-202v22h423zM52 124l-1 4l-1 2l145 29l20 5v320h-154v22h154v150h-72v22h161l44 48l54 -48v-22h-122v-150h31l53 53l65 -53v-22h-149v-305l100 23l38 7l3 -9l-34 -17l-71 -32l-71 -27l-145 -47l-14 -4l-8 -19l-14 13zM50 130
l14 -63l-25 61zM118 250v16l-2 17l-3 16l-4 16l-12 32l-7 17l-9 16l-11 17l7 7l15 -14l16 -12l15 -14l12 -15l11 -16l10 -18l9 -17l7 -19l6 -19l5 -20l-8 -24l-22 -11l-23 8l-12 21v16zM354 423l58 -30l11 -16l-21 -4l-26 -44l-21 -32l-24 -31l-25 -31l-8 5l7 18l17 55
l11 35l17 63h-1zM856 428l-10 21l-24 37l-13 17l-14 16l-32 30l-17 14l-19 13l4 9l23 -6l22 -8l22 -10l21 -12l20 -14l19 -16l35 -38l16 -22l15 -23l1 -24l-15 -19l-25 -2l-19 16zM365 771l-7 13l-8 14l-10 13l-23 28l-30 29l-18 15l-12 9l-32 -71l-22 -43l-23 -41l-26 -40
l-27 -39l-29 -37l-31 -36l-34 -34l-8 6l72 121l42 81l37 83l16 43l14 44l13 44l3 8l59 -28l12 -15l-19 -4l-12 -31l15 -6l22 -9l21 -9l19 -11l18 -11l17 -12l15 -14l14 -13l13 -14l11 -16l2 -24l-15 -20l-25 -2l-19 16zM677 792l-2 12l-4 12l-6 13l-7 13l-9 14l-10 15
l-25 31l-16 14l5 8l20 -11l19 -10l33 -22l15 -12l13 -13l12 -14l10 -14l9 -15l7 -16l-4 -24l-20 -15l-24 4l-15 19z" />
  </g>

</svg>
