<?xml version="1.0" standalone="no"?>
<!DOCTYPE svg PUBLIC "-//W3C//DTD SVG 1.1//EN" "http://www.w3.org/Graphics/SVG/1.1/DTD/svg11.dtd" >
<svg xmlns="http://www.w3.org/2000/svg" xmlns:xlink="http://www.w3.org/1999/xlink" version="1.1" viewBox="0 -36 256 256">
  <g transform="matrix(1 0 0 -1 0 220)">
   <path fill="currentColor"
d="M56.5 196.5q6.5 -5.5 5 -11.5t-6.5 -9t-8 6t-15 26l2 2q16 -8 22.5 -13.5zM45 74h29v28h-29v-28zM86 74h30v28h-30v-28zM45 36h29v31h-29v-31zM86 36h30v31h-30v-31zM175 49h44v94h-44v-94zM232 17l-13 -7v32h-44v-25l-14 -8q1 20 1 129q-13 -24 -26 -36l-3 3
q35 57 46 115h-13q-9 0 -17 -2l-8 9h77l13 12l15 -19h-52q-10 -36 -23 -66l2 -4h46l8 11l13 -15l-8 -4v-125zM32 118l15 -9h67l9 9l15 -13l-9 -5v-49q0 -15 1 -32l-14 -8v18h-71v-14l-14 -6q2 25 1 108v1zM9 103l-2 4q35 26 55 58h-22q-12 0 -22 -2l-11 9h67v47
q-17 -4 -51 -5v5q81 15 95 24l13 -19l-10 2l-34 -6v-48h8q14 23 19 42l18 -11q-9 -6 -16.5 -15t-14.5 -16h23l13 11l12 -18h-62v-8q29 -6 37.5 -10.5t11 -10t-1.5 -12t-14.5 5.5t-32.5 22q0 -23 2 -34l-16 -5q1 19 1 44q-32 -37 -65 -54z" />
  </g>

</svg>
