<?xml version="1.0" standalone="no"?>
<!DOCTYPE svg PUBLIC "-//W3C//DTD SVG 1.1//EN" "http://www.w3.org/Graphics/SVG/1.1/DTD/svg11.dtd" >
<svg xmlns="http://www.w3.org/2000/svg" xmlns:xlink="http://www.w3.org/1999/xlink" version="1.1" viewBox="0 -36 256 256">
  <g transform="matrix(1 0 0 -1 0 220)">
   <path fill="currentColor"
d="M58 179h44l6 10l13 -11l-6 -8v-87q0 -15 1 -58l-13 -8v13h-69v-11l-14 -7q1 44 1 93.5t-1 83.5l14 -10h19q8 27 9 36h-22q-10 0 -20 -3l-9 10h91l10 11l17 -18h-49q-4 -3 -22 -36zM34 37h14v135h-14v-135zM88 37h15v135h-15v-135zM60 134h16v38h-16v-38zM60 87h16v40h-16
v-40zM60 37h16v43h-16v-43zM150 120h57v33h-57v-33zM150 30h67v40h-67v-40zM138 45v90q0 14 -1 34l14 -9h56l6 8l13 -11l-7 -6q0 -23 1 -42l-13 -5v9h-57v-36h66l6 9l13 -11l-6 -7v-26q0 -8 1 -25l-13 -6v12h-67v-10l-13 -5q1 20 1 37zM226 203h-85q1 -13 -2 -19.5t-8 -7.5
t-8 1.5t4.5 11.5t9.5 31h4v-10h38q0 17 -11 34l1 3q18 -10 22 -18.5t-3 -18.5h38l8 10l14 -14q-9 -5 -14.5 -11.5t-14.5 -19.5l-3 2z" />
  </g>

</svg>
