<?xml version="1.0" standalone="no"?>
<!DOCTYPE svg PUBLIC "-//W3C//DTD SVG 1.1//EN" "http://www.w3.org/Graphics/SVG/1.1/DTD/svg11.dtd" >
<svg xmlns="http://www.w3.org/2000/svg" xmlns:xlink="http://www.w3.org/1999/xlink" version="1.1" viewBox="0 -36 256 256">
  <g transform="matrix(1 0 0 -1 0 220)">
   <path fill="currentColor"
d="M110 150l-13 -7v6h-68v-2l-13 -6v84l13 -5q15 12 20 20l13 -14q-5 0 -33 -11v-25h9l10 10l14 -17h-33v-27h68v27h-4q-11 1 -20 -2l-8 9h32v26h-2q-11 0 -21 -2l-9 9h31l8 10l12 -14l-7 -4q0 -43 1 -65zM14 139l20 -8l-6 -6v-86l22 15l2 -3q-22 -23 -28 -33l-14 13
q5 3 5 12q0 76 -1 96zM111 131l-7 -5q0 -19 1.5 -45t5.5 -31l15 19l5 -3q-9 -12 -12 -22t-5 -23q-15 11 -18.5 42.5t-3.5 76.5zM54 140l18 -8l-5 -6v-85l22 13l2 -3q-22 -19 -29 -31l-10 11q3 4 3 13q0 75 -1 96zM49 109q5 -6 -0.5 -12.5t-8 3t-10.5 20.5l2 2q12 -7 17 -13z
M49.5 76q4.5 -6 -1.5 -12.5t-8 2.5t-11 21l2 2q14 -7 18.5 -13zM88.5 108.5q4.5 -6.5 -1 -13.5t-8.5 4.5t-10 20.5l1 2q14 -7 18.5 -13.5zM87 74q5 -6 -0.5 -13t-8 2.5t-10.5 19.5l2 2q12 -5 17 -11zM173 229q-22 -18 -34 -25v-103l22 13v55q0 15 -1 31l23 -10l-9 -7v-72
q-1 -73 -60 -104l-3 3q47 35 50 96q-21 -16 -27 -31l-12 17q5 8 4 20v65q0 13 -1 41l12 -8q21 20 28 35l17 -15zM203 17l-13 -8q1 44 1 106.5t-1 104.5l12 -9h24l8 9l14 -12l-9 -7v-121q2 -19 -15 -27q-1 12 -20 19v4q11 -1 17 -2t5 7v123h-23v-187z" />
  </g>

</svg>
