<?xml version="1.0" standalone="no"?>
<!DOCTYPE svg PUBLIC "-//W3C//DTD SVG 1.1//EN" "http://www.w3.org/Graphics/SVG/1.1/DTD/svg11.dtd" >
<svg xmlns="http://www.w3.org/2000/svg" xmlns:xlink="http://www.w3.org/1999/xlink" version="1.1" viewBox="0 -205 1024 1024">
  <g transform="matrix(1 0 0 -1 0 819)">
   <path fill="currentColor"
d="M750 800l30 34l60 -42q6 -6 6 -12t-32 -24v-188q-1 -36 2 -42q2 -7 14 -10h74q24 1 30 26q5 26 8 116h18q5 -85 10 -104q4 -16 32 -28q-6 -15 -20 -32q-15 -19 -48 -22h-106q-30 -1 -48 14q-19 12 -20 60v226h-170q-8 -108 -64 -194q-55 -87 -226 -156l-8 16
q144 75 190 156q45 81 54 178h-124q-24 0 -48 -12l-22 38h194q6 123 4 184l88 -28q6 -9 0 -12t-30 -18l-6 -124h158v0v0zM296 370h304v178l80 -28q7 -1 8 -4q6 -6 0 -12l-36 -16v-118h226l36 44l60 -50q3 -4 4 -10q0 -12 -12 -12h-314v-196l4 -77q1 -12 -22 -28
q-21 -15 -38 -16l4 121v196h-232q-18 0 -54 -8l-18 36v0v0zM378 934q12 -8 -2 -16q-27 -2 -42 -34q-52 -99 -106 -204l50 -20q15 -9 -2 -18l-18 -10v-476l4 -93q0 -17 -24 -32q-21 -13 -36 -12l4 131v490q-76 -127 -154 -208l-12 8q76 108 158 282q81 174 102 252l78 -40v0
v0z" />
  </g>

</svg>
