<?xml version="1.0" standalone="no"?>
<!DOCTYPE svg PUBLIC "-//W3C//DTD SVG 1.1//EN" "http://www.w3.org/Graphics/SVG/1.1/DTD/svg11.dtd" >
<svg xmlns="http://www.w3.org/2000/svg" xmlns:xlink="http://www.w3.org/1999/xlink" version="1.1" viewBox="0 -144 1024 1024">
  <g transform="matrix(1 0 0 -1 0 880)">
   <path fill="currentColor"
d="M754 53l-89 28l-81 32l-72 35l-13 8l-79 -37l-84 -31l-90 -25l-97 -19l-102 -12l-1 9l100 23l92 27l86 30l79 35l51 28l-60 45l-46 46l-37 50l-26 52l-10 36l-33 -24l-54 -34l-18 -10l-4 -21l-16 11l-2 3l-7 17l-13 32l-1 2v1l-2 4l59 19l96 36l19 6l19 8l5 -8l-37 -33
l19 -35l32 -44l39 -41l46 -38l54 -35l28 -15l37 24l58 48l53 52l45 57l40 61l2 5l53 -38l8 -18h-20l-34 -47l-52 -59l-59 -54l-66 -47l-14 -8l52 -22l78 -26l86 -24l143 -30l-63 -60zM125 394l25 -59l-35 55zM357 498l-10 18l-7 10l-8 10l-9 10l-24 21l-14 12l-15 9l1 2
l-44 -22v189l64 -32h404l32 27l59 -48l-27 -22v-82l-64 -32l9 -10l3 -19l-22 6l-51 -33l-44 -26l-3 -1h229l53 53l65 -53v-22h-882v22h315l-7 5zM656 600h-365l-11 -5l11 -4l18 -5l17 -5l15 -6l15 -7l14 -7l12 -9l12 -9l11 -9l10 -11l4 -24l-10 -14h152l5 5l20 27zM695 600
h-28l28 -31v31zM695 704h-404v-82h404v82zM809 927v-19l-22 9l-2 -1l-75 -33l-19 -7l-14 -6l61 -32l15 -7l100 72l23 18l5 4v1l1 -1l3 4l13 -21l29 -30v-18l-20 9l-82 -32l-44 -15l-4 -1l55 -20l53 -16l103 -26l-63 -57l-59 19l-56 21l-51 23l-40 21v-17h-452v8l-23 -11
l-52 -20l-53 -18l-58 -16l-60 -13l-3 10l111 46l50 23l47 25l10 6l-13 4l-8 9l-9 9l-21 18l-25 17l-44 27l-17 8l3 9l18 -3l19 -2l17 -3l18 -3l16 -5l16 -4l31 -13l14 -7l13 -7l11 -22l-2 -11l36 25l37 28l34 28l29 29h-276v22h294l9 10l2 -2l23 18l59 -48l-27 -16l-24 -10
l-17 -16l-35 -31l-39 -28l-41 -26l-42 -22h326l33 36l-22 17l-34 31l-29 33l-23 34l-17 37l8 5l27 -28l28 -27l32 -24l34 -24l4 -2l71 64l34 33l-1 1l4 2z" />
  </g>

</svg>
