<?xml version="1.0" standalone="no"?>
<!DOCTYPE svg PUBLIC "-//W3C//DTD SVG 1.1//EN" "http://www.w3.org/Graphics/SVG/1.1/DTD/svg11.dtd" >
<svg xmlns="http://www.w3.org/2000/svg" xmlns:xlink="http://www.w3.org/1999/xlink" version="1.1" viewBox="0 -205 1024 1024">
  <g transform="matrix(1 0 0 -1 0 819)">
   <path fill="currentColor"
d="M162 962l82 -30q12 -3 10 -14q0 -3 -38 -18v-92h154l40 44l54 -50q7 -6 8 -12q0 -9 -8 -8h-248v-150l252 62l6 -20q-176 -45 -232 -78q-53 -30 -82 -60l-46 70l48 18v338v0v0zM556 980l84 -32q12 -10 0 -16l-30 -14v-142q153 75 222 138q59 -51 56 -60q-4 -9 -8 -8
q-4 0 -22 4q-19 1 -94 -34q-74 -34 -154 -64v-94q0 -31 12 -34t24 -2h192l18 2q27 5 36 20q8 13 14 134h16q6 -75 10 -102q3 -25 34 -40q-13 -30 -28 -42q-13 -10 -40 -16l-32 -4h-224q-30 0 -50 6q-19 6 -28 24q-7 15 -8 52v324v0v0zM46 356h438v210l78 -28q6 -3 6 -6
q3 -3 -2 -8l-32 -16v-152h332l42 52l62 -60q3 -3 4 -8q-1 -10 -16 -10h-360q51 -66 126 -116q74 -49 128 -64q52 -14 146 -25v-18q-25 1 -52 -8q-25 -7 -46 -38q-47 21 -118 62q-70 40 -118 91q-49 47 -92 116h-38v-188l4 -95q0 -13 -20 -26q-19 -14 -38 -14l4 132v189h-20
q-108 -125 -186 -184q-78 -56 -234 -123l-8 16q129 71 204 127t162 166h-274q-21 0 -66 -8l-16 34v0v0zM228 504l6 14q76 -27 104 -44q27 -18 42 -36q13 -18 8 -36q-4 -18 -22 -24q-18 -4 -30 16q-12 18 -30 46q-18 26 -78 64v0v0zM732 526q68 -36 68 -42t-2 -8q0 -1 -18 -4
q-16 -1 -40 -20q-23 -18 -106 -90l-12 10q76 92 110 154v0v0z" />
  </g>

</svg>
