<?xml version="1.0" standalone="no"?>
<!DOCTYPE svg PUBLIC "-//W3C//DTD SVG 1.1//EN" "http://www.w3.org/Graphics/SVG/1.1/DTD/svg11.dtd" >
<svg xmlns="http://www.w3.org/2000/svg" xmlns:xlink="http://www.w3.org/1999/xlink" version="1.1" viewBox="0 -205 1024 1024">
  <g transform="matrix(1 0 0 -1 0 819)">
   <path fill="currentColor"
d="M658 570q9 -6 4 -14q-3 0 -24 -8q-21 -6 -60 -96h298l36 44l60 -50q12 -15 -2 -20h-140q-42 -121 -110 -208q76 -28 122 -52q45 -23 60 -45q16 -21 12 -40q-3 -18 -20 -24q-18 -3 -38 20q-21 25 -56 52q-36 24 -110 63q-69 -65 -170 -107q-99 -40 -218 -54l-2 16
q123 26 210 70q87 41 138 93q-114 45 -198 66q30 69 66 150h-80q-21 0 -68 -8l-16 34h174q39 92 60 148l72 -30v0v0zM498 288q75 -22 174 -52q50 51 104 190h-212l-66 -138v0v0zM860 902q-19 -1 -142 -26q-121 -25 -328 -50l-4 18q185 36 314 70q126 34 166 56l56 -50
q11 -12 -4 -18q-40 3 -58 0v0v0zM414 802q99 -85 118 -128q15 -42 4 -66q-13 -21 -32 -18q-18 2 -24 32q-5 28 -16 62q-12 33 -60 106l10 12v0v0zM596 814q81 -78 96 -116q15 -36 4 -60q-9 -25 -30 -22q-21 0 -24 30q-4 27 -10 58q-6 27 -48 102l12 8v0v0zM842 838
q80 -27 82 -36q1 -10 -4 -10q-3 -1 -14 -4q-11 -1 -22 -14q-12 -11 -32 -52q-21 -42 -80 -140l-16 10q70 180 86 246v0v0zM26 742h164v238l82 -32q12 -6 4 -14l-34 -16v-176h84l40 44l50 -54q12 -15 -8 -18h-166v-180l138 82l10 -16l-148 -110v-363q2 -36 -16 -64
q-19 -24 -64 -40q-6 36 -36 50q-28 15 -76 32l4 16q94 -26 116 -20q20 6 20 32v327q-69 -53 -84 -70q-12 -16 -30 -38l-54 56l168 100v206h-92q-21 -1 -50 -10l-22 38v0v0z" />
  </g>

</svg>
