<?xml version="1.0" standalone="no"?>
<!DOCTYPE svg PUBLIC "-//W3C//DTD SVG 1.1//EN" "http://www.w3.org/Graphics/SVG/1.1/DTD/svg11.dtd" >
<svg xmlns="http://www.w3.org/2000/svg" xmlns:xlink="http://www.w3.org/1999/xlink" version="1.1" viewBox="0 -339 2048 2048">
  <g transform="matrix(1 0 0 -1 0 1709)">
   <path fill="currentColor"
d="M811 937l70 78l84 -54q27 -17 34 -29q6 -9 6 -20q0 -12 -8 -22q-11 -13 -44 -27q-21 -9 -34 -15l1 -542l42 9l62 13l21 4l5 -38q-79 -26 -139 -44q-33 -10 -169 -43l-139 -34l-135 -27q-147 -30 -182 -35q-29 -5 -70 -10q-4 -10 -5 -15q-12 -40 -15 -44q-7 -10 -16 -10
q-8 0 -15 6t-16 27l-28 72q-15 41 -24 61q51 1 124 6l34 2v681q-2 71 -9 107q-2 13 -7 31l118 -88h454zM347 214q178 16 481 72v133h-481v-205zM347 475h481v176h-481v-176zM347 705h481v176h-481v-176zM98 1107l-38 88q30 -7 52 -11q73 -12 178 -12h1459l98 102l121 -107
q13 -12 15 -16q2 -5 2 -10q0 -9 -6 -16q-9 -10 -21 -10h-1668q-115 0 -192 -8zM1613 1367h-1139v-21q0 -17 -4 -23q-5 -7 -18 -10q-13 -4 -28 -4q-33 0 -47 18q-6 8 -9 20q-3 10 -2 18l4 61l4 79l4 76v180q0 9 -6 109q-2 32 -7 67l118 -90h1110l68 76l83 -54q28 -18 34 -29
q6 -10 6 -20q0 -16 -12 -26q-12 -11 -30 -19q-15 -7 -35 -16v-170q0 -5 8 -164q4 -66 4 -72q0 -12 -5 -19q-5 -6 -11 -11q-24 -16 -54 -16q-20 0 -29 9q-7 7 -7 17v34zM1613 1790h-1139v-162h1139v162zM1613 1423v149h-1139v-149h1139zM1711 834l55 68l84 -53q19 -12 29 -22
q10 -12 10 -29q0 -16 -10 -25q-11 -10 -31 -19q-10 -6 -29 -16q-5 -124 -21 -313q-13 -145 -34 -206q-27 -78 -73 -107q-23 -14 -79 -30q-22 -6 -61 -13q1 9 1 19q0 39 -38 66q-16 12 -61 29l-38 13q-18 6 -38 13l8 37q96 -21 140 -30q55 -12 83 -12t41 13q16 15 24 48
q8 30 17 114q11 92 17 159q3 30 9 165q2 34 6 74h-280q-8 -103 -20 -167q-43 -225 -175 -369q-63 -70 -150 -124q-21 -13 -64 -37l-24 35q45 34 68.5 54.5t49.5 49.5q78 85 124 178q53 107 78 263q7 42 15 118h-77q-71 0 -149 -10l-39 86q73 -10 87 -11q107 -9 109 -9l69 -2
l-1 104l-1 68q0 16 -4 62l96 -20q54 -11 63 -15q16 -8 22 -20q2 -5 2 -8q0 -5 -5 -13q-8 -13 -28 -21l-46 -18v-117h269z" />
  </g>

</svg>
