<?xml version="1.0" standalone="no"?>
<!DOCTYPE svg PUBLIC "-//W3C//DTD SVG 1.1//EN" "http://www.w3.org/Graphics/SVG/1.1/DTD/svg11.dtd" >
<svg xmlns="http://www.w3.org/2000/svg" xmlns:xlink="http://www.w3.org/1999/xlink" version="1.1" viewBox="0 -205 1024 1024">
  <g transform="matrix(1 0 0 -1 0 819)">
   <path fill="currentColor"
d="M694 982q68 -30 76 -36q7 -5 2 -10q-6 -3 -24 -6q-17 -3 -76 -78q-60 -73 -116 -128l340 18q-33 54 -74 100l12 10q66 -48 96 -78q29 -30 44 -60q15 -31 4 -50q-11 -20 -28 -18q-17 3 -22 18q-5 16 -22 56q-276 -24 -306 -32q-29 -9 -70 -30l-42 72q50 8 58 22
q84 101 148 230v0v0zM466 434h128v216l78 -22q13 -4 8 -14l-36 -18v-162h166v214l84 -24q3 -3 4 -6q0 -4 -2 -8l-36 -14v-162h58l32 38l50 -44q10 -9 8 -14q0 -6 -8 -6h-140v-254l4 -77q3 -15 -14 -28q-18 -14 -44 -16l4 127v248h-166q-3 -141 -66 -234q-60 -92 -168 -141
l-6 12q90 64 136 147q48 81 54 216h-68q-19 0 -40 -8l-20 34v0v0zM122 916h240l42 46l58 -56q2 -3 2 -8q0 -9 -8 -8h-182v-122h80l32 38l56 -48q3 -3 4 -8q0 -7 -8 -8h-164v-112h76l32 42l52 -52q2 -3 2 -8q0 -7 -8 -8h-154v-122h116l26 36l60 -42q13 -13 -6 -22l-20 -12
q-7 -120 -16 -198q-10 -79 -20 -107q-9 -30 -26 -48q-18 -19 -60 -38q-7 28 -28 44q-21 15 -98 36l4 19q48 -7 78 -13q29 -6 52 -4q20 0 32 25q9 23 18 98q8 75 14 198h-282v-10q1 -15 -16 -26q-20 -13 -40 -14l4 142v418l56 -48v0v0zM118 482h106v122h-106v-122v0v0z
M118 630h106v112h-106v-112v0v0zM224 768v122h-106v-122h106v0v0zM80 376h18q9 -115 -2 -154q-9 -37 -26 -50q-15 -13 -30 -14q-15 0 -24 16q-9 15 6 30q14 15 32 36q14 21 26 136v0v0zM122 366l12 8q48 -59 60 -88q12 -30 6 -48q-4 -19 -16 -28q-9 -8 -24 0q-13 5 -10 26
q1 18 0 48q-2 27 -28 82v0v0zM196 386l12 8q51 -59 64 -88t12 -46q-3 -15 -14 -24q-10 -7 -22 -2q-9 3 -12 24q-3 18 -8 46q-6 27 -32 82v0v0zM264 412l10 10q53 -42 74 -68q19 -27 18 -48q-3 -21 -14 -30q-12 -8 -24 0q-9 8 -12 26q0 17 -12 44q-10 24 -40 66v0v0z" />
  </g>

</svg>
