<?xml version="1.0" standalone="no"?>
<!DOCTYPE svg PUBLIC "-//W3C//DTD SVG 1.1//EN" "http://www.w3.org/Graphics/SVG/1.1/DTD/svg11.dtd" >
<svg xmlns="http://www.w3.org/2000/svg" xmlns:xlink="http://www.w3.org/1999/xlink" version="1.1" viewBox="0 -205 1024 1024">
  <g transform="matrix(1 0 0 -1 0 819)">
   <path fill="currentColor"
d="M484 972l56 -56q7 -5 8 -10q0 -7 -8 -8h-388v-300h258l30 38l62 -50q3 -3 4 -8q1 -7 -4 -8h-238v-68q66 -48 118 -96q44 60 76 118l58 -30q10 -10 -4 -16q-18 -1 -44 -20l-70 -68q64 -63 86 -92q21 -30 24 -54q3 -23 -6 -40q-10 -16 -28 -14q-19 2 -32 46q-12 45 -66 114
q-53 70 -112 128v-314l118 80l14 -16q-84 -69 -108 -91q-25 -23 -46 -64l-62 54q27 13 36 29v414h-66q-1 -132 -16 -216q-13 -81 -34 -150q-22 -69 -58 -135l-16 8q27 74 42 143q14 68 26 152q9 84 10 276v316l54 -40h288l38 48v0v0zM178 764h214l40 48l56 -54q3 0 4 -6
q0 -12 -12 -12h-218q-21 0 -68 -8l-16 32v0v0zM832 984l54 -40q6 -6 6 -12q0 -1 -30 -28v-188q0 -22 18 -28h12q46 0 50 6q6 3 10 4q8 -1 14 -14q24 -19 24 -26q-1 -13 -62 -16h-52q-30 0 -44 6q-19 14 -20 50v218h-150v-66q1 -75 -24 -138q-24 -64 -104 -118l-10 14
q63 62 76 124q15 62 12 128v118l48 -34h140l32 40v0v0zM876 578l66 -46q7 -4 8 -10q-3 -4 -14 -10q-22 -13 -32 -28q-28 -67 -70 -136q-43 -69 -76 -102q48 -49 88 -76q40 -26 80 -37q39 -12 78 -18v-20q-28 0 -52 -6q-24 -4 -44 -32q-43 21 -92 68q-49 45 -88 93
q-75 -68 -152 -107q-76 -38 -172 -68l-8 16q84 36 160 78q74 41 148 115q-30 36 -54 94q-23 54 -58 166q-24 0 -48 -8l-24 38h332l24 36v0v0zM618 512q33 -90 64 -146q27 -57 48 -84q27 29 66 100t60 130h-238v0v0v0z" />
  </g>

</svg>
