<?xml version="1.0" standalone="no"?>
<!DOCTYPE svg PUBLIC "-//W3C//DTD SVG 1.1//EN" "http://www.w3.org/Graphics/SVG/1.1/DTD/svg11.dtd" >
<svg xmlns="http://www.w3.org/2000/svg" xmlns:xlink="http://www.w3.org/1999/xlink" version="1.1" viewBox="0 -36 256 256">
  <g transform="matrix(1 0 0 -1 0 220)">
   <path fill="currentColor"
d="M49 64v98q-21 -28 -35 -40l-2 3q10 14 19 28t23 41.5t19 50.5l19 -16q-4 0 -11 -12t-22 -40l12 -8l-8 -6v-147l-15 -7q1 27 1 55zM196 191q-5 -35 -38 -54l-2 2q25 26 28 51.5t1 49.5l20 -8l-5 -7q-1 -11 -3 -29q18 17 25 29l12 -15l-8 -1q-9 -5 -30 -18zM98 189
q-5 -10 -12 -5t0.5 12.5t15.5 25.5h3q-2 -23 -7 -33zM151 167.5q7 -7.5 2 -17t-10 2.5t-19 27l2 3q18 -8 25 -15.5zM112 188q5 24 3 53l21 -7l-7 -7q0 -12 -2 -28q17 17 23 30l13 -14q-9 -4 -13 -7t-23 -15q-8 -33 -40 -55l-2 3q22 23 27 47zM169 183.5q-7 -7.5 -11.5 -1
t2.5 11t16 24.5l2 -1q-2 -26 -9 -33.5zM226.5 163q8.5 -6 5 -17t-11 1.5t-25.5 25.5l1 4q22 -8 30.5 -14zM114 125q-19 0 -28 -2l-9 9h108l8 10l14 -12l-7 -6q1 -36 5.5 -56t15 -29.5t12.5 -7t8 39.5h3q-2 -43 2 -53.5t-15.5 -4.5t-31.5 29.5t-12 82.5h-59l19 -7l-6 -6v-28
h23l10 9l15 -16h-48v-29q0 -17 1 -32l-15 -8q1 18 1 36v33h-27q-10 0 -19 -2l-9 9h55v41h-14z" />
  </g>

</svg>
