<?xml version="1.0" standalone="no"?>
<!DOCTYPE svg PUBLIC "-//W3C//DTD SVG 1.1//EN" "http://www.w3.org/Graphics/SVG/1.1/DTD/svg11.dtd" >
<svg xmlns="http://www.w3.org/2000/svg" xmlns:xlink="http://www.w3.org/1999/xlink" version="1.1" viewBox="0 -36 256 256">
  <g transform="matrix(1 0 0 -1 0 220)">
   <path fill="currentColor"
d="M93 211q-11 -2 -26.5 -16.5t-50.5 -29.5l-2 4q23 14 36.5 28t23.5 30zM137 175l-15 -6v33t-1 43l26 -12l-10 -6v-52zM170 224q46 -19 57.5 -27t8 -21.5t-13 -1t-54.5 45.5zM52 113v20v20l-1 21l15 -7h129l8 9l14 -13l-7 -6v-28l1 -28l-16 -7v8h-73q-15 -14 -33.5 -22.5
t-41.5 -12.5l-2 3q19 6 35 14.5t24 17.5h-38v-4l-15 -5zM66 137h55q3 11 3 23h-58v-23zM135 137h60v23h-55q-2 -10 -5 -23zM66 109h43q7 12 10 21h-53v-21zM125 109h70v21h-61q-3 -9 -9 -21zM123 34v26h-81q-10 0 -20 -2l-9 9h110q0 16 -1 32l22 -9l-7 -7v-16h74l15 13
l18 -20h-107v-22l1 -22l-16 -7z" />
  </g>

</svg>
