<?xml version="1.0" standalone="no"?>
<!DOCTYPE svg PUBLIC "-//W3C//DTD SVG 1.1//EN" "http://www.w3.org/Graphics/SVG/1.1/DTD/svg11.dtd" >
<svg xmlns="http://www.w3.org/2000/svg" xmlns:xlink="http://www.w3.org/1999/xlink" version="1.1" viewBox="0 -205 1024 1024">
  <g transform="matrix(1 0 0 -1 0 819)">
   <path fill="currentColor"
d="M522 816l72 -30q15 -6 -2 -12l-26 -14v-166h66v162l70 -30q3 -3 4 -6q0 -3 -6 -8l-22 -12v-102l4 -22q0 -13 -20 -22q-18 -8 -30 -10v26h-174l-26 -28l-48 38q20 15 20 28v148l68 -26q7 -4 8 -10q0 -4 -30 -20v-106h72v222v0v0zM394 502h206l26 30l40 -30q18 -15 6 -24
h-202q-22 1 -58 -10l-18 34v0v0zM368 414h270l32 36l46 -46q3 -3 4 -6q1 -9 -10 -8h-148v-92h60l30 38l46 -48q3 -2 4 -4q0 -10 -12 -10h-128v-102h54l36 40l48 -48q3 0 4 -6q0 -10 -12 -10h-252q-21 0 -56 -8l-16 32h146v102h-58q-21 0 -56 -8l-16 32h130v92h-74
q-21 0 -56 -8l-16 32v0v0zM220 584q51 77 120 208l54 -40q7 -9 -4 -14q-24 -4 -36 -16q-10 -12 -38 -50q-27 -38 -84 -100l-12 12v0v0zM404 546q9 -6 4 -6q4 -4 -6 -8q-18 -1 -30 -10q-9 -10 -54 -70v-313l4 -70q3 -15 -18 -30q-22 -16 -34 -14l4 108v265q-18 -34 -62 -80
l-14 10q33 48 76 126q43 75 74 136l56 -44v0v0zM868 854l42 48l66 -56l2 -10q0 -10 -8 -10h-756v-236q-4 -246 -46 -366q-42 -121 -132 -197l-12 10q74 96 104 195q27 100 36 254q-85 -69 -98 -108l-48 46l148 90v392l74 -52h628v0v0zM482 972l10 12q54 -18 84 -32
q30 -16 42 -34q13 -19 2 -38q-9 -20 -30 -18q-22 0 -28 22q-7 20 -22 38q-13 17 -58 50v0v0zM58 748l16 8q35 -45 50 -74q15 -30 18 -56q4 -25 -6 -44q-9 -18 -24 -18q-13 -1 -22 8q-9 10 -6 38q4 26 0 58q-3 29 -26 80v0v0zM734 612q27 66 66 190l70 -36q3 -3 0 -12
q-33 -7 -42 -32q-31 -60 -50 -108h136l30 40l48 -50q16 -15 -4 -14h-80q-12 -130 -30 -212q-19 -78 -50 -138q19 -45 44 -72q24 -26 54 -45q26 -20 74 -32v-18q-27 0 -48 -4q-20 -3 -40 -22q-36 37 -60 70q-24 30 -50 81q-39 -51 -102 -101q-64 -50 -146 -82l-8 14
q66 40 126 88q57 45 108 123q-21 68 -30 140q-9 69 -14 156q-20 -40 -46 -80l-14 10q30 77 58 146v0v0zM764 588q9 -192 40 -296q37 67 56 296h-96v0v0z" />
  </g>

</svg>
