<?xml version="1.0" standalone="no"?>
<!DOCTYPE svg PUBLIC "-//W3C//DTD SVG 1.1//EN" "http://www.w3.org/Graphics/SVG/1.1/DTD/svg11.dtd" >
<svg xmlns="http://www.w3.org/2000/svg" xmlns:xlink="http://www.w3.org/1999/xlink" version="1.1" viewBox="0 -205 1024 1024">
  <g transform="matrix(1 0 0 -1 0 819)">
   <path fill="currentColor"
d="M528 938q6 -2 6 -10q-1 -3 -10 -8q-18 -3 -30 -14q-10 -12 -40 -66h102l22 28l50 -40q8 -6 8 -12q-1 -5 -16 -10q-15 -4 -38 -34q-22 -27 -68 -84h68l26 36l52 -36q8 -5 8 -10q1 -6 -28 -30v-535q3 -38 -12 -58q-13 -16 -34 -24q-12 25 -24 34q-13 8 -46 22l4 16
q36 -9 46 -10q9 0 16 8q6 6 4 12v243h-76v-166l4 -73q0 -15 -20 -28q-19 -14 -34 -14l4 117v164h-82q-9 -141 -48 -212q-36 -67 -98 -125l-12 10q66 84 90 173q22 90 26 246v232q-33 -49 -62 -82l-14 10q50 80 104 184q53 102 86 180l66 -34v0v0zM392 382h80v130h-76
q1 -55 -4 -130v0v0v0zM518 382h76v130h-76v-130v0v0zM394 538h78v124h-78v-124v0v0zM518 662v-124h76v124h-76v0v0zM398 688h90l70 128h-120q-35 -57 -64 -104l24 -24v0v0zM780 566q7 -3 8 -8q4 -2 -4 -10q-19 0 -28 -18q-7 -16 -26 -58h76v150l64 -28q6 0 10 -6
q3 -5 -2 -10l-24 -14v-92h40l32 44l58 -52q2 -3 2 -8q1 -7 -4 -8h-128v-128h62l32 46l54 -52l4 -6q0 -12 -12 -12h-140v-140l4 -89q0 -12 -20 -24q-21 -13 -36 -12l4 121v144h-90q-21 1 -50 -6l-16 30h156v128h-84q-25 -44 -52 -88l-18 6q42 94 70 224l58 -24v0v0zM754 860
h-38q-15 0 -36 -6l-20 32h230l26 36q58 -42 62 -48q3 -6 0 -8q-4 -4 -34 -22q-1 -73 -10 -116q-10 -42 -28 -62q-17 -22 -52 -34q-11 33 -28 42q-18 10 -54 26l6 14q38 -12 56 -14q16 -3 32 0q15 3 24 42q5 38 8 118h-96q-3 -71 -30 -136q-25 -63 -112 -128l-12 14
q52 45 80 112q28 66 26 138v0v0zM264 920q8 -9 -4 -14q-19 -8 -28 -16q-9 -6 -50 -68q-41 -61 -94 -154l114 2q35 80 56 134l66 -44q2 -10 -10 -10q-12 -7 -24 -16q-9 -6 -56 -90q-47 -80 -130 -196l154 6q-5 42 -40 102l12 8q51 -51 66 -78q16 -27 20 -48q2 -20 -4 -34
q-5 -15 -16 -18q-12 -4 -18 2q-7 5 -10 16q0 11 -6 28q-84 -14 -126 -22q-39 -6 -66 -30l-40 68q23 3 50 18q48 65 112 182q-70 -8 -88 -16q-19 -6 -46 -24l-30 66q23 3 38 12q11 8 56 104q45 95 72 172l70 -42v0v0zM72 344h22q6 -74 10 -124q3 -49 -12 -76q-15 -25 -32 -29
q-15 -3 -26 2q-12 7 -12 22q0 13 16 35q16 21 20 34q3 13 10 44q3 31 4 92v0v0zM142 354l16 6q38 -57 50 -98q10 -40 6 -70q-5 -30 -22 -38q-18 -7 -30 4q-13 12 -4 48q9 35 6 68q-4 32 -22 80v0v0zM230 374l14 8q36 -46 54 -82q18 -34 16 -62q-3 -27 -18 -36q-16 -7 -28 2
q-13 6 -10 36q2 29 -4 64q-6 33 -24 70v0v0z" />
  </g>

</svg>
