<?xml version="1.0" standalone="no"?>
<!DOCTYPE svg PUBLIC "-//W3C//DTD SVG 1.1//EN" "http://www.w3.org/Graphics/SVG/1.1/DTD/svg11.dtd" >
<svg xmlns="http://www.w3.org/2000/svg" xmlns:xlink="http://www.w3.org/1999/xlink" version="1.1" viewBox="0 -36 256 256">
  <g transform="matrix(1 0 0 -1 0 220)">
   <path fill="currentColor"
d="M29 231q34 -20 35.5 -31.5t-4.5 -16t-11.5 10t-22.5 34.5zM37.5 98q8.5 1 37.5 97l6 -2q-28 -97 -29 -105t0 -25t2 -30.5t-6.5 -13t-12 6t-2 13.5t4 23.5t-3.5 21.5t-24 10l2 5q17 -2 25.5 -1zM132 235l7 9l14 -12l-7 -5v-71l-13 -8v23v57h-24q-11 0 -20 -2l-9 9h52z
M210 193v35h-25q-10 0 -20 -2l-9 9h53l6 8l14 -11l-6 -6v-73l-13 -5v38q-18 -12 -37 -33l-14 14q18 6 51 26zM94 219q23 -8 26.5 -14.5t-1 -14t-10 4t-16.5 21.5zM133 185v-7q-30 -21 -39 -31l-13 14q11 3 52 24zM166 220q22 -7 28 -12.5t1.5 -14t-10.5 2t-20 21.5zM168 149
l-5 -4q15 -15 36.5 -25.5t48.5 -12.5v-4q-13 -3 -17 -14q-16 5 -36.5 18.5t-35.5 33.5q-24 -22 -47.5 -34t-43.5 -16v4q26 11 48 27t37 39zM177 108l-8 -3q-16 -11 -33 -18.5t-37 -11.5l-1 4q22 8 37.5 19t26.5 24zM199 77l-10 -2q-23 -13 -43.5 -19.5t-46.5 -10.5v5
q21 4 46 15.5t41 26.5zM226 48l-10 -2q-30 -16 -58.5 -24.5t-71.5 -13.5l-1 5q47 9 79 22.5t47 28.5z" />
  </g>

</svg>
