<?xml version="1.0" standalone="no"?>
<!DOCTYPE svg PUBLIC "-//W3C//DTD SVG 1.1//EN" "http://www.w3.org/Graphics/SVG/1.1/DTD/svg11.dtd" >
<svg xmlns="http://www.w3.org/2000/svg" xmlns:xlink="http://www.w3.org/1999/xlink" version="1.1" viewBox="0 -36 256 256">
  <g transform="matrix(1 0 0 -1 0 220)">
   <path fill="currentColor"
d="M101 111l3 2q15 -9 18.5 -13.5t2 -8.5t-5 -6.5t-5 1.5t-3.5 9q-23 -4 -32.5 -6t-17.5 -5l-7 15q8 1 16 6t25 18q-17 -4 -21 -5t-11 -4l-7 13q7 2 17.5 12.5t15.5 20.5l16 -9q-5 -3 -16.5 -11.5t-18.5 -12.5l31 1q10 9 15 16l13 -11q-10 -5 -28.5 -17t-28.5 -17l36 1
q-3 6 -7 11zM96 87l21 -6l-6 -5v-9h42q0 7 -1 18l20 -6l-6 -6v-6h22l10 9l17 -16h-49v-19q0 -10 1 -21l-15 -5q1 21 1 45h-43q-3 -19 -16.5 -29.5t-46.5 -17.5l-1 4q27 10 37.5 19t12.5 24h-23q-11 0 -20 -2l-10 9h54q0 9 -1 20zM181 111l2 3q14 -9 18.5 -15t2 -10t-6 -6
t-5 1.5t-3.5 9.5q-23 -3 -32 -5t-17 -5l-8 16q7 1 15 6t19 13q-11 -1 -17 -2.5t-10 -4.5l-8 13q7 2 16 12t15 20l15 -9q-5 -2 -11.5 -7.5t-21.5 -15.5h28q11 10 15 16l14 -11q-6 -3 -23 -14t-31 -19l41 2q-3 7 -7 12zM141 240l15 -8h62l8 11l15 -11l-8 -9v-190
q0 -20 -22 -26q-3 15 -29 20v4q24 -2 30.5 -1.5t6.5 10.5v125h-64v-4l-14 -4v83zM155 202h64v23h-64v-23zM155 195v-23h64v23h-64zM38 232h61l7 11l16 -13l-7 -8v-26q0 -15 1 -33l-15 -6v8h-64v-150l-15 -8q1 20 1 43v145q0 23 -1 45zM37 195v-23h64v23h-64zM37 225v-23h64
v23h-64z" />
  </g>

</svg>
