<?xml version="1.0" standalone="no"?>
<!DOCTYPE svg PUBLIC "-//W3C//DTD SVG 1.1//EN" "http://www.w3.org/Graphics/SVG/1.1/DTD/svg11.dtd" >
<svg xmlns="http://www.w3.org/2000/svg" xmlns:xlink="http://www.w3.org/1999/xlink" version="1.1" viewBox="0 -205 1024 1024">
  <g transform="matrix(1 0 0 -1 0 819)">
   <path fill="currentColor"
d="M422 882l-6 -17h-131v-154h39l15 23q7 8 9 8t14 -8l28 -28q10 -10 10 -17q0 -8 -27 -20v-493v-60q-3 -12 -26 -25q-4 -3 -7 -3q-5 0 -6 17v35h-215v-52q-2 -13 -20 -19q-6 -2 -10 -2q-9 0 -9 18q0 -8 0 60v592l54 -26h38q2 72 0 154h-104v20h263l19 30q9 15 14 15
q4 0 17 -12zM250 711v154h-43q0 -114 -2 -154h45zM334 521v170h-49v-131q0 -30 10 -36q5 -4 39 -3zM334 334v151q-55 -3 -69.5 10t-14.5 71v125h-45q-3 -151 -64 -266l-11 4q42 86 42 262h-53v-357h215zM334 160v153h-215v-153h215zM953 839q12 -16 12 -23q0 -10 -30 -13
v-458q0 -62 -10.5 -89t-34.5 -39l-28 -14q-10 -5 -15 -5q-8 0 -8 12q0 2 1 7v7q0 19 -15 24l-33 21l5 12l39 -11q8 -1 14 -1q42 -5 42 82v483h-111v-719q0 -48 1 -45q-2 -6 -22 -10q-15 -5 -18 -5q-4 0 -5 6q-1 4 0 22q1 23 1 42v766l57 -36h87l20 25q9 13 10 13q4 0 18 -20
zM710 773q12 -16 12 -23q0 -9 -29 -15q-59 -268 -157.5 -435.5t-182.5 -245.5l-9 7q78 91 171.5 271.5t128.5 424.5h-104q-36 -130 -70 -207q59 -39 69.5 -59t12.5 -39q-5 -30 -22 -30q-13 0 -23 25q-7 49 -43 88q-38 -72 -71 -123l-11 12q38 65 81 208t59 314l60 -19
q18 -12 18 -21q0 -11 -31 -11q-13 -81 -22 -117h84l20 22q16 18 19 18t13 -11z" />
  </g>

</svg>
