<?xml version="1.0" standalone="no"?>
<!DOCTYPE svg PUBLIC "-//W3C//DTD SVG 1.1//EN" "http://www.w3.org/Graphics/SVG/1.1/DTD/svg11.dtd" >
<svg xmlns="http://www.w3.org/2000/svg" xmlns:xlink="http://www.w3.org/1999/xlink" version="1.1" viewBox="0 -246 2048 2048">
  <g transform="matrix(1 0 0 -1 0 1802)">
   <path fill="currentColor"
d="M1018 1061q-335 -331 -898 -487l-20 45q540 181 864 561q168 -21 168 -57q0 -21 -78 -27q349 -257 875 -367q-47 -50 -78 -114q-507 157 -833 446zM530 553h932l70 74q110 -83 110 -105q0 -12 -20 -24l-39 -25v-352h-109v70h-964v-74h-109v479q77 -22 129 -43zM510 502
v-260h964v260h-964zM675 717l-20 51h475l88 80q81 -52 129 -94l-22 -37h-650zM1670 1766h-608l-21 51h609l73 92q128 -96 128 -121q0 -15 -19 -24l-49 -29v-610h-113v641zM823 1153v613h-653l-21 51h658l67 88q121 -90 121 -119q0 -9 -14 -18l-47 -29v-586h-111zM184 1354
l-23 45q259 135 435 330q129 -71 129 -105q0 -22 -49 -22q-19 0 -41 4q-170 -142 -451 -252zM1026 1387l-21 43q266 125 430 299q131 -61 131 -99q0 -22 -51 -22q-22 0 -37 2q-168 -129 -452 -223zM182 1049l-21 47q300 136 519 383q127 -71 127 -106q0 -23 -47 -23
q-23 0 -39 2q-204 -179 -539 -303zM1114 1151l-21 43q247 105 441 301q120 -77 120 -106q0 -23 -47 -23q-22 0 -37 2q-182 -136 -456 -217z" />
  </g>

</svg>
