<?xml version="1.0" standalone="no"?>
<!DOCTYPE svg PUBLIC "-//W3C//DTD SVG 1.1//EN" "http://www.w3.org/Graphics/SVG/1.1/DTD/svg11.dtd" >
<svg xmlns="http://www.w3.org/2000/svg" xmlns:xlink="http://www.w3.org/1999/xlink" version="1.1" viewBox="0 -205 1024 1024">
  <g transform="matrix(1 0 0 -1 0 819)">
   <path fill="currentColor"
d="M568 978l6 12q57 -18 94 -42q33 -24 42 -44q6 -21 -2 -38q-9 -16 -32 -16q-22 0 -28 28t-24 50t-56 50v0v0zM426 878h22v-48h460l30 42q65 -55 68 -62q3 -6 -2 -8q-4 -3 -22 -8q-18 -3 -38 -20q-21 -15 -62 -66l-16 10q26 48 46 88h-464q3 -48 -14 -84q-17 -33 -40 -38
q-21 -3 -32 12q-10 15 4 34q14 15 26 30q12 14 22 40q9 24 12 78v0v0zM568 658q2 -3 2 -8q0 -4 -2 -8q-15 -5 -30 -16q-13 -12 -50 -80h156v208l80 -32q8 -3 8 -6q0 -8 -8 -10l-26 -14v-146h120l42 46l62 -56q3 -4 4 -8q0 -9 -8 -8h-220v-186h196l38 44l70 -50q3 -3 4 -8
q0 -12 -12 -12h-296v-154l4 -91q0 -14 -20 -26q-18 -13 -42 -14l4 133v152h-220q-21 0 -68 -8l-16 34h304v186h-168q-55 -91 -110 -148l-14 10q58 90 86 156q28 65 56 152l74 -32v0v0zM90 876l58 -40h100l32 40l60 -38q12 -6 12 -14q-1 -3 -34 -30v-350l4 -112
q1 -12 -16 -24q-16 -13 -40 -16v56h-124v-88q0 -12 -20 -24q-21 -12 -36 -12l4 126v526v0v0zM142 378h124v428h-124v-428v0v0z" />
  </g>

</svg>
