<?xml version="1.0" standalone="no"?>
<!DOCTYPE svg PUBLIC "-//W3C//DTD SVG 1.1//EN" "http://www.w3.org/Graphics/SVG/1.1/DTD/svg11.dtd" >
<svg xmlns="http://www.w3.org/2000/svg" xmlns:xlink="http://www.w3.org/1999/xlink" version="1.1" viewBox="0 -36 256 256">
  <g transform="matrix(1 0 0 -1 0 220)">
   <path fill="currentColor"
d="M106 212l-7 -6l-2 -26h2l10 10l13 -17h-84q-10 0 -19 -2l-9 9h30l4 27h-3q-9 0 -15 -2l-8 9h27l4 31l17 -11l-6 -5l-3 -15h29l6 9zM87 207h-31l-4 -27h33zM74 15l-14 -7q1 37 1 47h-30l-5 -5l-11 11q5 3 7 11l4 15l15 -10l-6 -3l-4 -12h30v27h-20q-10 0 -19 -2l-9 9h48
v22h-22v-1l-13 -6q1 12 1 25.5t-1 27.5l15 -8h47l6 9l14 -11l-6 -6q0 -23 1 -29l-13 -6v5h-17v-22h21l10 11l14 -18h-45v-27h25l9 11l13 -18h-47q0 -21 1 -40zM39 149v-24h51v24h-51zM136 210h42q-2 16 -14 31l1 3q18 -8 24 -16t-3 -18h40l8 8l14 -17q-14 1 -26 -20l-3 1
l7 21h-89q2 -11 -1.5 -17t-12 -5.5t-1 12t9.5 28.5h3zM202 168l12 11l17 -18h-76q-10 0 -17 -2l-9 9h73zM226 56l-14 -6v10h-67v-8l-13 -6q1 29 1 53.5t-1 48.5l13 -9h66l6 9l14 -11l-6 -8q0 -51 1 -73zM145 104h67v28h-67v-28zM145 67h67v30h-67v-30zM212 27l14 13l19 -20
h-106q-10 0 -18 -2l-9 9h100z" />
  </g>

</svg>
