<?xml version="1.0" standalone="no"?>
<!DOCTYPE svg PUBLIC "-//W3C//DTD SVG 1.1//EN" "http://www.w3.org/Graphics/SVG/1.1/DTD/svg11.dtd" >
<svg xmlns="http://www.w3.org/2000/svg" xmlns:xlink="http://www.w3.org/1999/xlink" version="1.1" viewBox="0 -36 256 256">
  <g transform="matrix(1 0 0 -1 0 220)">
   <path fill="currentColor"
d="M106 177h23v46h-23v-46zM23 201q0 25 -1 38l16 -9h89l8 10l13 -13l-6 -5v-28q0 -11 1 -23l-14 -8v7h-93v-3l-14 -5q1 14 1 39zM36 177h22v46h-22v-46zM71 177h23v46h-23v-46zM118 154l15 -18h-48v-31h31l13 10l15 -17h-59v-24h21l14 11l15 -18h-50v-27l56 10v-4
q-98 -24 -113 -34l-9 14q6 5 5 10v23v14l-1 14l21 -10l-6 -6v-39q14 3 33 6v60h-29q-10 0 -20 -3l-10 10h59v31h-26q-8 -12 -29 -28l-3 3q25 28 33 59l18 -10l-6 -4l-9 -13h56zM157 66v115q0 30 -1 56l16 -10h49l10 10l14 -15l-10 -7q-14 -23 -33 -63q47 -43 41.5 -72.5
t-36.5 -36.5q-5 16 -29 22v5q44 -16 51 9.5t-36 69.5q17 39 26 71h-48v-153q0 -27 1 -52l-16 -7q1 28 1 58z" />
  </g>

</svg>
