<?xml version="1.0" standalone="no"?>
<!DOCTYPE svg PUBLIC "-//W3C//DTD SVG 1.1//EN" "http://www.w3.org/Graphics/SVG/1.1/DTD/svg11.dtd" >
<svg xmlns="http://www.w3.org/2000/svg" xmlns:xlink="http://www.w3.org/1999/xlink" version="1.1" viewBox="0 -36 256 256">
  <g transform="matrix(1 0 0 -1 0 220)">
   <path fill="currentColor"
d="M140 150l-14 -6v9h-34v-45q27 9 38 14q-5 10 -13 19l2 3q23 -13 26 -20.5t-1.5 -15t-7.5 -1.5t-4 10q-39 -18 -48 -29l-11 14q6 5 6 12v82q0 14 -1 25l14 -6h6q6 19 7 31l15 -8q-7 -8 -17 -23h23l6 9l13 -11l-6 -6v-34q0 -7 1 -23zM92 187h34v21h-34v-21zM92 160h34v20
h-34v-20zM162 171h18q2 24 3 48h-7q-10 0 -19 -2l-10 9h59l10 9l14 -16h-34q-1 -23 -3 -48h20l11 10l15 -17h-47l16 -8l-7 -6v-42q-1 -10 6 -10h10q5 3 6 12t1 19h4q0 -3 1 -15t10 -17q-7 -9 -18 -10h-22q-11 1 -11 18v43q-7 -22 -22 -37.5t-31 -23.5l-3 3q13 9 27 28t20 46
h-18l-5 -7l-12 11l6 6q3 19 6 46h13q-4 -29 -7 -49zM42 235q18 -9 21.5 -13t3 -9.5t-4 -9t-7.5 6.5t-15 23zM27 197q13 -6 19.5 -11.5t4.5 -13t-5.5 -10t-7 8t-13.5 23.5zM75 165l3 -3q-9 -15 -21.5 -36t-20.5 -35l-14 14q21 14 53 60zM120 93l22 -12l-7 -6v-13h49l13 12
l17 -19h-79v-32h75l16 13l18 -21h-204q-10 0 -19 -2l-10 10h110v32h-50q-10 0 -20 -2l-9 9h79q0 12 -1 31z" />
  </g>

</svg>
