<?xml version="1.0" standalone="no"?>
<!DOCTYPE svg PUBLIC "-//W3C//DTD SVG 1.1//EN" "http://www.w3.org/Graphics/SVG/1.1/DTD/svg11.dtd" >
<svg xmlns="http://www.w3.org/2000/svg" xmlns:xlink="http://www.w3.org/1999/xlink" version="1.1" viewBox="0 -205 1024 1024">
  <g transform="matrix(1 0 0 -1 0 819)">
   <path fill="currentColor"
d="M78 866l52 -40h230l32 38l42 -40q12 -7 12 -16q0 -7 -26 -22v-488l4 -108q0 -15 -18 -26q-19 -12 -34 -12v90h-246v-82q0 -13 -14 -27q-15 -15 -38 -16l4 151v598v0v0zM126 266h100v258h-100v-258v0v0zM272 266h100v258h-100v-258v0v0zM126 548h100v252h-100v-252v0v0z
M272 800v-252h100v252h-100v0v0zM506 900l58 -46h42q17 48 44 130l70 -32q10 -8 0 -16q-30 -3 -48 -30q-17 -25 -40 -52h166l30 38l58 -44q6 -4 6 -8q0 -7 -36 -28v-170l4 -62q-3 -16 -18 -28q-15 -9 -38 -12v42h-248v-80h328l38 52l60 -64q6 -15 -8 -14h-418v-78h320l24 32
l62 -44q12 -7 -2 -16l-28 -20q-1 -82 -8 -136q-6 -53 -12 -91q-6 -39 -30 -66q-24 -24 -66 -42q-12 45 -48 60q-36 12 -92 30l6 18q72 -15 102 -18q30 -2 52 4q20 6 26 31q3 25 10 68q4 42 8 162h-324q0 -25 -14 -34q-13 -9 -40 -14l4 108v470v0v0zM556 610h248v92h-248v-92
v0v0zM556 732h248v94h-248v-94v0v0zM638 334l12 8q65 -55 80 -82q12 -26 10 -46q-3 -18 -14 -26q-12 -10 -26 -4q-15 3 -18 28q0 23 -6 44t-38 78v0v0zM724 342l10 10q66 -40 88 -70q22 -28 20 -50q-4 -20 -16 -28q-12 -9 -24 -2q-11 6 -16 24q-3 19 -12 44q-7 24 -50 72v0
v0zM496 296h22q6 -105 -6 -138q-9 -30 -26 -45q-15 -14 -36 -14q-22 1 -28 22q-7 18 14 35q18 15 34 36q14 20 26 104v0v0zM550 316l14 8q59 -63 68 -92q9 -27 4 -48q-3 -18 -18 -26q-13 -9 -26 -2t-14 26v50q-1 30 -28 84v0v0z" />
  </g>

</svg>
