<?xml version="1.0" standalone="no"?>
<!DOCTYPE svg PUBLIC "-//W3C//DTD SVG 1.1//EN" "http://www.w3.org/Graphics/SVG/1.1/DTD/svg11.dtd" >
<svg xmlns="http://www.w3.org/2000/svg" xmlns:xlink="http://www.w3.org/1999/xlink" version="1.1" viewBox="0 -205 1024 1024">
  <g transform="matrix(1 0 0 -1 0 819)">
   <path fill="currentColor"
d="M318 828h288v156l80 -30q8 -3 8 -6q0 -4 -6 -10l-30 -18v-92h222l36 48l60 -50q3 -4 4 -10q0 -12 -12 -12h-310v-88h158l34 38l56 -42q9 -6 10 -14q1 -6 -34 -26v-184l6 -70q-1 -16 -22 -28q-21 -10 -36 -10v52h-172v-50q-1 -15 -16 -24q-15 -7 -36 -8v82h-170v-38
q0 -12 -12 -24q-13 -12 -44 -14l6 112v288l58 -40h162v88h-204q-21 0 -68 -8l-16 32v0v0zM436 458h170v104h-170v-104v0v0zM658 562v-104h172v104h-172v0v0zM436 588h170v102h-170v-102v0v0zM658 690v-102h172v102h-172v0v0zM722 948l4 14q56 -13 86 -28q30 -12 40 -30
q9 -18 4 -36q-6 -18 -24 -18q-15 0 -26 22q-12 21 -26 36q-13 14 -58 40v0v0zM270 300h502v94l72 -30q8 -1 8 -8q-1 -7 -28 -22v-34h66l34 48l62 -54q3 -4 4 -10q0 -10 -12 -10h-154v-173q1 -34 -24 -56q-24 -24 -62 -30q-3 30 -32 44q-30 16 -92 32l4 18q75 -12 102 -18
q27 -4 42 4q12 7 10 53v126h-418q-21 0 -68 -8l-16 34v0v0zM460 254l10 10q75 -39 96 -68q21 -27 16 -50q-4 -19 -16 -29q-13 -9 -26 -4q-13 3 -16 24q-1 18 -10 45t-54 72v0v0zM348 936l6 -4q3 -6 -6 -12q-33 -10 -48 -46q-39 -87 -78 -162l50 -24q9 -5 4 -10
q-2 -4 -28 -20v-502l4 -81q0 -15 -20 -30q-19 -14 -40 -16l4 131v502q-72 -142 -150 -226l-10 10q93 156 156 306q64 147 80 222l76 -38v0v0z" />
  </g>

</svg>
