<?xml version="1.0" standalone="no"?>
<!DOCTYPE svg PUBLIC "-//W3C//DTD SVG 1.1//EN" "http://www.w3.org/Graphics/SVG/1.1/DTD/svg11.dtd" >
<svg xmlns="http://www.w3.org/2000/svg" xmlns:xlink="http://www.w3.org/1999/xlink" version="1.1" viewBox="0 -36 256 256">
  <g transform="matrix(1 0 0 -1 0 220)">
   <path fill="currentColor"
d="M208 198h-162q2 -18 -3 -25t-16 -6t-5 8t11 15.5t8 25.5h4l1 -11h79q0 16 -17 35l2 3q28 -12 30 -20.5t-6 -17.5h73l9 12l21 -18q-21 -3 -39 -29l-3 2zM36 61l-4 4q23 28 36.5 63t16.5 57l25 -12l-11 -6l-8 -21h86l9 11l17 -15l-10 -9l-22 -106h37l18 16l22 -23h-208
q-11 0 -20 -2l-9 9h145l23 112h-90q-24 -54 -53 -78zM142.5 105q8.5 -6 5.5 -18.5t-13 1.5t-39 30l2 4q36 -11 44.5 -17zM120 69q14 -8 10.5 -21t-12.5 0.5t-43 33.5l2 4q29 -9 43 -17z" />
  </g>

</svg>
