<?xml version="1.0" standalone="no"?>
<!DOCTYPE svg PUBLIC "-//W3C//DTD SVG 1.1//EN" "http://www.w3.org/Graphics/SVG/1.1/DTD/svg11.dtd" >
<svg xmlns="http://www.w3.org/2000/svg" xmlns:xlink="http://www.w3.org/1999/xlink" version="1.1" viewBox="0 -205 1024 1024">
  <g transform="matrix(1 0 0 -1 0 819)">
   <path fill="currentColor"
d="M666 594q18 -86 54 -178q32 -90 74 -152q39 -60 88 -102q49 -37 104 -53v-18q-45 0 -60 -6t-42 -22q-76 77 -124 157q-45 79 -78 188q-33 107 -42 182l-158 -12v-471l164 65q-18 38 -66 98l12 10q72 -52 102 -88q29 -37 34 -69q3 -32 -14 -46q-16 -12 -34 -6
q-16 6 -16 30q-1 26 -10 49q-58 -31 -118 -67q-60 -33 -80 -66l-64 54q19 12 38 42v461l-168 -6v-54q-1 -128 -16 -226q-15 -99 -66 -159q-48 -62 -134 -112l-6 16q68 54 110 121q40 66 50 160q8 92 8 200v114l56 -38q351 33 522 78q50 -49 56 -56q3 -6 -2 -12q-5 -5 -22 0
q-15 4 -30 2q-15 -3 -122 -8v0v0zM122 968l56 -40h632l32 40l66 -38q12 -7 -6 -20l-22 -16v-136l4 -62q0 -12 -14 -18q-15 -8 -42 -6v38h-652v-20q0 -16 -20 -28q-19 -13 -38 -14l4 106v214v0v0zM174 736h184v166h-184v-166v0v0zM408 736h186v166h-186v-166v0v0zM644 736
h184v166h-184v-166v0v0z" />
  </g>

</svg>
