<?xml version="1.0" standalone="no"?>
<!DOCTYPE svg PUBLIC "-//W3C//DTD SVG 1.1//EN" "http://www.w3.org/Graphics/SVG/1.1/DTD/svg11.dtd" >
<svg xmlns="http://www.w3.org/2000/svg" xmlns:xlink="http://www.w3.org/1999/xlink" version="1.1" viewBox="0 -36 256 256">
  <g transform="matrix(1 0 0 -1 0 220)">
   <path fill="currentColor"
d="M147 83h32v61h-32v-61zM171 233l-9 -6l-13 -31h70l9 10l16 -14l-9 -5q1 -141 -1.5 -157t-21.5 -24q-2 15 -35 18v6q31 -3 36.5 -1t7 10t1.5 150h-75q-14 -28 -37 -54l-4 3q21 30 31 59.5t14 48.5zM194 67l-15 -6v15h-32v-15l-14 -6q1 32 1 58t-1 46l15 -8h30l7 8l15 -12
l-8 -6q0 -58 2 -74zM77 244l24 -10l-10 -7v-61h6l10 11l13 -18h-74v-43h37l10 9l15 -15l-10 -6q0 -57 1 -85l-15 -7v97h-38q-1 -62 -34 -102l-3 3q16 32 20 64t3.5 85.5t-2.5 74.5l24 -11l-8 -6v-51h32q0 57 -1 78z" />
  </g>

</svg>
