<?xml version="1.0" standalone="no"?>
<!DOCTYPE svg PUBLIC "-//W3C//DTD SVG 1.1//EN" "http://www.w3.org/Graphics/SVG/1.1/DTD/svg11.dtd" >
<svg xmlns="http://www.w3.org/2000/svg" xmlns:xlink="http://www.w3.org/1999/xlink" version="1.1" viewBox="0 -36 256 256">
  <g transform="matrix(1 0 0 -1 0 220)">
   <path fill="currentColor"
d="M98 228h-57q-11 0 -21 -2l-10 9h213l11 10l14 -17h-86v-13h40l6 7l15 -9l-6 -6v-24l-14 -5v6h-41v-12l-14 -4v60h-35v-51l-15 -6v13h-43l-7 -7l-14 11l6 3v29l13 -5h45v13zM98 208h-44v-17h44v17zM203 208h-41v-17h41v17zM60 160q26 4 46 13l13 -13q-15 0 -58 -5v-17h33
l10 9l14 -16h-57v-15h131v15h-27q-11 0 -20 -2l-10 9h57v17h-32q-11 0 -21 -2l-10 9h61l8 9l15 -10l-7 -6v-31l1 -16l-15 -6v7h-131v-3l-16 -4q1 17 1 32.5t-1 30.5zM50 11l-10 14q3 5 4 11q0 49 -1 64l22 -9l-6 -6v-55l40 11l1 -4q-37 -16 -50 -26zM115 37q0 45 -1 64
l21 -9l-6 -4v-59l36 12l2 -5q-30 -13 -46 -26l-11 15q5 5 5 12zM244 59l3 -1q-6 -25 -2 -50q-27 9 -36.5 17.5t-16 18.5t-9.5 24t-3 34l21 -7l-7 -6q1 -24 11 -39t28 -21zM94.5 56.5q1.5 -7.5 -3.5 -12t-10 6t-15 17.5l1 3q26 -7 27.5 -14.5zM94.5 85.5q5.5 -5.5 0 -13
t-9.5 2.5t-18 19l3 2q19 -5 24.5 -10.5zM165 55q0 -8 -4 -11.5t-8 6.5t-15 18l2 3q25 -8 25 -16zM165.5 84.5q3.5 -5.5 -0.5 -12t-9.5 3t-17.5 17.5l2 2q22 -5 25.5 -10.5z" />
  </g>

</svg>
