<?xml version="1.0" standalone="no"?>
<!DOCTYPE svg PUBLIC "-//W3C//DTD SVG 1.1//EN" "http://www.w3.org/Graphics/SVG/1.1/DTD/svg11.dtd" >
<svg xmlns="http://www.w3.org/2000/svg" xmlns:xlink="http://www.w3.org/1999/xlink" version="1.1" viewBox="0 -205 1024 1024">
  <g transform="matrix(1 0 0 -1 0 819)">
   <path fill="currentColor"
d="M302 878h542l38 52l62 -56q6 -4 6 -10q3 -12 -12 -12h-200v-210h118l34 38l48 -42q15 -9 6 -20l-28 -18v-204l4 -58q1 -17 -16 -28q-17 -12 -40 -14v38h-116v-249h144l40 52l60 -58q15 -16 -6 -20h-638q-36 0 -60 -12l-26 38h244v251h-116l-30 -38l-52 42l26 28v318
l56 -44h116v210h-124q-20 0 -64 -8l-16 34v0v0zM556 852v-192l4 -50q-12 -16 -24 -22t-30 -8v36h-122v-254h116l28 34l56 -40q6 -9 -2 -18l-26 -20v-233h142v315l60 -40h108v256h-122l-22 -32l-64 42l30 28v198h-132v0v0zM336 934q12 -8 -2 -16q-27 -2 -42 -34
q-45 -87 -102 -204l52 -20q15 -9 -2 -18l-18 -10v-478l4 -93q0 -17 -24 -32q-21 -13 -36 -12l4 131v492q-75 -127 -146 -196l-12 8q65 96 146 270q80 174 100 252l78 -40v0v0z" />
  </g>

</svg>
