<?xml version="1.0" standalone="no"?>
<!DOCTYPE svg PUBLIC "-//W3C//DTD SVG 1.1//EN" "http://www.w3.org/Graphics/SVG/1.1/DTD/svg11.dtd" >
<svg xmlns="http://www.w3.org/2000/svg" xmlns:xlink="http://www.w3.org/1999/xlink" version="1.1" viewBox="0 -144 1024 1024">
  <g transform="matrix(1 0 0 -1 0 880)">
   <path fill="currentColor"
d="M245 991l59 -28l12 -15l-19 -4l-37 -99l-24 -57l-51 -111l-6 -11l30 -5l16 -11l-16 -10v-565l-65 -32v557l-44 -78l-32 -48l-33 -46l-9 4l72 156l46 108l42 112l39 116l16 54zM263 68v22h132v314l64 -32h296l33 27l51 -42l31 76l4 13l3 7h-524l1 -12l-1 -22l-1 -21
l-4 -19l-5 -18l-7 -17l-10 -15l-12 -14l-5 7l-5 7l-6 7l-5 8l-11 14l-2 3l-4 6l6 3l8 5l7 9l7 11l7 14l7 16l6 19l5 22l5 24l3 27h9l3 -27l2 -16h530l3 3v1l29 23l59 -48l-27 -16l-20 -9l-16 -19l-33 -34l-25 -24l-13 -15l-5 3l-13 -10v-239h13l54 54l65 -54v-22h-689z
M755 165h-296v-75h296v75zM755 258h-296v-71h296v71zM755 351h-296v-72h296v72zM276 367l38 -52l-24 -6l-21 13l-5 23zM423 552l-64 -33v298l64 -32h88v82h-206v21h206v103l64 -10l16 -11l-16 -10v-72h91v103l65 -10l16 -11l-16 -10v-72h87l54 54l64 -54v-21h-205v-82h87
l33 27l59 -48l-27 -22v-190l-65 -33v33h-395zM511 658h-88v-85h88v85zM666 658h-91v-85h91v85zM818 658h-87v-85h87v85zM511 764h-88v-85h88v85zM666 764h-91v-85h91v85zM818 764h-87v-85h87v85zM666 867h-91v-82h91v82z" />
  </g>

</svg>
