<?xml version="1.0" standalone="no"?>
<!DOCTYPE svg PUBLIC "-//W3C//DTD SVG 1.1//EN" "http://www.w3.org/Graphics/SVG/1.1/DTD/svg11.dtd" >
<svg xmlns="http://www.w3.org/2000/svg" xmlns:xlink="http://www.w3.org/1999/xlink" version="1.1" viewBox="0 -205 1024 1024">
  <g transform="matrix(1 0 0 -1 0 819)">
   <path fill="currentColor"
d="M444 524h328l34 38l56 -46q6 -3 6 -12q1 -2 -34 -22q-16 -237 -22 -296q-4 -59 -26 -97q-21 -36 -84 -52q-10 42 -34 54q-21 12 -84 36l8 15q42 -11 66 -15t46 -8q20 -2 38 10q15 12 22 61q5 50 20 308h-168q-9 -153 -44 -242q-37 -90 -106 -145q-69 -57 -162 -96l-8 16
q98 56 158 115q59 60 82 150q23 87 28 202h-62q-19 0 -40 -8l-18 34v0v0zM766 946q10 -5 8 -10q0 -2 -12 -10l-22 -16q11 -96 52 -164q41 -66 88 -108t122 -66v-18q-30 0 -50 -2q-21 -3 -48 -26q-34 33 -74 84t-76 126t-56 234l68 -24v0v0zM580 944q71 -34 74 -40q3 -4 0 -8
q-2 -4 -16 -8t-34 -52q-21 -45 -66 -144q-45 -98 -116 -184l-14 10q54 96 100 216q45 117 72 210v0v0zM296 938q9 -10 -6 -16q-19 -4 -28 -10q-10 -7 -58 -74q-47 -67 -118 -154h176q63 92 90 146l70 -52q3 -9 -14 -12q-15 -6 -30 -14q-13 -8 -82 -100q-69 -91 -174 -206
l236 24q-30 57 -68 102l10 12q70 -45 98 -78q27 -31 30 -58q4 -28 -6 -40q-11 -12 -22 -12q-12 -1 -18 8q-7 8 -10 20q-1 10 -8 20q-117 -11 -180 -28q-63 -15 -102 -36l-36 68q27 5 58 20q56 62 148 196q-97 -13 -128 -22q-30 -6 -60 -24l-42 64q24 3 46 24q20 21 76 118
q54 93 82 160l70 -46v0v0zM106 338h24q8 -85 2 -146q-6 -59 -26 -85q-21 -24 -38 -28q-16 -4 -28 4q-13 9 -14 24t20 37q20 22 32 44t18 50q6 27 10 100v0v0zM194 352l16 6q47 -76 62 -118q13 -43 8 -74q-5 -29 -22 -35q-18 -7 -32 4q-16 8 -8 45q6 35 0 80q-6 44 -24 92v0
v0zM304 368l16 6q60 -66 78 -108q19 -42 14 -72q-6 -30 -24 -38q-18 -7 -32 2q-13 8 -8 46q4 38 -10 82q-13 44 -34 82v0v0z" />
  </g>

</svg>
