<?xml version="1.0" standalone="no"?>
<!DOCTYPE svg PUBLIC "-//W3C//DTD SVG 1.1//EN" "http://www.w3.org/Graphics/SVG/1.1/DTD/svg11.dtd" >
<svg xmlns="http://www.w3.org/2000/svg" xmlns:xlink="http://www.w3.org/1999/xlink" version="1.1" viewBox="0 -205 1024 1024">
  <g transform="matrix(1 0 0 -1 0 819)">
   <path fill="currentColor"
d="M446 640l48 -28h150v122l72 -26q6 -1 12 -4q3 -9 -2 -12l-32 -20v-60h134l30 34l42 -32q12 -6 12 -12q6 -3 -24 -26v-70l4 -52q1 -15 -16 -24q-16 -10 -34 -10v38h-148v-90h170l28 32l44 -36q12 -6 12 -14q0 -1 -26 -22v-72l6 -54q-1 -13 -22 -22q-19 -10 -32 -10v44
h-180v-87l4 -60q1 -14 -22 -26q-22 -9 -34 -10l2 102v81h-182v-16q0 -13 -18 -22q-18 -10 -36 -10l6 78v152l50 -28h180v90h-152v-14q0 -9 -14 -18q-15 -10 -36 -10l4 74v150v0v0zM492 484h152v102h-152v-102v0v0zM694 586v-102h148v102h-148v0v0zM462 240h182v102h-182
v-102v0v0zM694 342v-102h180v102h-180v0v0zM728 790q99 -25 144 -46q42 -21 60 -42q16 -19 12 -40q-5 -19 -22 -22q-15 -2 -36 24q-19 26 -52 52q-34 27 -112 60l6 14v0v0zM882 866l26 32l52 -36q16 -12 14 -20q0 -6 -12 -8q-32 -3 -58 -30l-42 -42l-14 8l40 72h-422
q-1 -39 -4 -56t-18 -34q-12 -18 -30 -20q-19 -3 -28 12q-7 15 8 34q15 16 28 38q9 20 18 88h20l2 -38h420v0v0zM584 978l6 14q66 -21 88 -36q20 -12 28 -30q6 -15 0 -30q-6 -12 -18 -18q-12 -7 -24 2q-9 8 -14 26q-4 16 -16 32q-12 14 -50 40v0v0zM556 798q62 -34 64 -40
q0 -6 -6 -8q-7 -1 -22 -4q-14 -1 -58 -38q-42 -35 -150 -106l-8 14q108 94 180 182v0v0zM138 646h146l32 42l40 -38q19 -15 14 -24q-3 -6 -8 -6h-118v-154h70l36 46l52 -52q9 -12 -6 -20h-152v-244l136 100l12 -14q-105 -94 -132 -124q-25 -27 -46 -69l-54 44q18 11 36 37
v270h-78q-31 0 -58 -8l-18 34h154v154h-16l-24 -6l-18 32v0v0zM262 952q7 -3 8 -6q3 -9 -8 -14q-24 -7 -36 -28q-18 -46 -36 -94h100l34 40l52 -52q2 -3 2 -6q0 -9 -6 -8h-192q-28 -75 -58 -138q-27 -63 -72 -134l-16 6q42 93 78 196q36 101 82 274l68 -36v0v0z" />
  </g>

</svg>
