<?xml version="1.0" standalone="no"?>
<!DOCTYPE svg PUBLIC "-//W3C//DTD SVG 1.1//EN" "http://www.w3.org/Graphics/SVG/1.1/DTD/svg11.dtd" >
<svg xmlns="http://www.w3.org/2000/svg" xmlns:xlink="http://www.w3.org/1999/xlink" version="1.1" viewBox="0 -52 256 256">
  <g transform="matrix(1 0 0 -1 0 204)">
   <path fill="currentColor"
d="M243 131v-96q0 -6 -3 -11q-3 -6 -18 -7q0 7 -11 10q-2 0 -5 1q-5 2 -14 4v4q27 -4 32 -4q4 0 7 1q1 2 1 16v84h-48q-1 -10 -3 -19q14 -6 23 -14q19 -16 17 -30q-1 -6 -5 -6t-6 8q-2 9 -11 21q-8 10 -19 17v-1q-11 -32 -43 -54l-1 3q30 31 35 59v3q2 6 2 13h-41v-94l1 -12
q0 -10 -13 -11v10q1 14 1 22v23l-20 -25l-3 -3q-3 -3 -5 -7l-3 -6q-1 -3 -2 -4l-16 11q5 4 8 8v72q-1 6 -6 11l1 2l20 -8q4 0 3 -3q-5 -1 -8 -4v-67l28 27l3 -4v66q-1 6 -5 9l4 4l10 -12h44v7q0 12 -1 14q0 2 -3 5l2 2l21 -6q2 -2 -1 -3q-1 0 -5 -2l-2 -2q0 -7 -1 -15h44
l8 11l12 -10q2 -1 2 -3q0 -1 -2 -2zM134 245l9 -9h68l9 10l12 -12q2 -2 1 -3q0 -1 -2 -1l-5 -3v-44l2 -13q0 -7 -12 -9v15h-70v-7q1 -9 -12 -11q1 4 1 16q1 9 1 15v43q-1 6 -5 10zM29 194q0 6 -6 11l2 3l21 -9q4 -2 2 -3q-4 -2 -9 -5l-7 -44h29q2 34 3 82h-34q-5 1 -11 -3
l-8 8h80l8 11l15 -12q3 -2 2 -3q0 -1 -4 -1h-37q-1 -48 -4 -82h17l8 11l16 -12q2 -2 2 -3t-4 -1h-39q-6 -95 -64 -133l-3 3q51 45 56 130h-27l-7 -8l-13 11q8 5 9 11zM146 181h70v50h-70v-50z" />
  </g>

</svg>
