<?xml version="1.0" standalone="no"?>
<!DOCTYPE svg PUBLIC "-//W3C//DTD SVG 1.1//EN" "http://www.w3.org/Graphics/SVG/1.1/DTD/svg11.dtd" >
<svg xmlns="http://www.w3.org/2000/svg" xmlns:xlink="http://www.w3.org/1999/xlink" version="1.1" viewBox="0 -36 256 256">
  <g transform="matrix(1 0 0 -1 0 220)">
   <path fill="currentColor"
d="M74 221l9 11l13 -18h-36q-7 -36 -15 -60h26l8 9l13 -11l-7 -8q0 -81 1 -100l-13 -8v19h-29v-26l-13 -7q1 38 1 97q-7 -22 -26 -46l-2 2q30 60 42 139q-13 0 -23 -2l-10 9h61zM44 62h29v85h-29v-85zM185 220h33l9 9l14 -16h-58q-8 -12 -16 -22l-3 2q8 15 15 50l16 -8
q-6 -3 -10 -15zM214 150h9v26h-9v-26zM235 140l-12 -4v7h-45v-5l-12 -4q1 14 1 25.5t-1 28.5l12 -5h45l7 7l11 -11l-7 -6q0 -24 1 -33zM178 150h10v26h-10v-26zM197 150h8v26h-8v-26zM217 58l-13 -5v8h-18v-24q-1 -11 10 -11h23q6 0 8.5 7.5t3.5 27.5h5q-2 -29 10 -31
q-8 -15 -22 -14h-32q-18 0 -18 17v28h-18q-6 -27 -26.5 -38t-48.5 -13l-1 4q33 5 46.5 17t16.5 30h-16v-6l-13 -5q1 30 1 49.5t-1 36.5l13 -6h76l8 8l12 -12l-7 -5v-35q0 -21 1 -28zM204 123h-77v-13h77v13zM204 103h-77v-13h77v13zM204 83h-77v-15h77v15zM158 170l-12 -5v5
h-9v-22h6l8 8l12 -15h-53l-6 -5l-11 11l7 4q0 66 -1 87l11 -7h35l9 9l11 -16h-28v-19h10l8 7l10 -12l-8 -4q0 -12 1 -26zM209 202.5q5 -4.5 0 -12t-7.5 1t-11.5 17.5l2 3q12 -5 17 -9.5zM111 177h35v21h-35v-21zM111 148h15v22h-15v-22zM111 205h15v19h-15v-19z" />
  </g>

</svg>
