<?xml version="1.0" standalone="no"?>
<!DOCTYPE svg PUBLIC "-//W3C//DTD SVG 1.1//EN" "http://www.w3.org/Graphics/SVG/1.1/DTD/svg11.dtd" >
<svg xmlns="http://www.w3.org/2000/svg" xmlns:xlink="http://www.w3.org/1999/xlink" version="1.1" viewBox="0 -144 1024 1024">
  <g transform="matrix(1 0 0 -1 0 880)">
   <path fill="currentColor"
d="M37 902l64 -33h132l32 27l59 -48l-26 -22v-707l-65 -32v64h-132v-64l-64 -33v848zM884 594l-62 -40l-43 -25l-44 -23l-19 -8v-310h-64v429l-16 -10l-4 -2l-9 -65l-16 -84l-20 -76l-24 -69l-28 -61l-33 -54l-36 -46l-40 -38l-45 -28l-47 -19l-4 9l41 27l36 33l32 39l29 44
l26 52l22 59l5 17h-1l-25 2l-15 19l-3 16l-9 32l-5 16l-13 30l-14 30l-4 7l-15 -33l-21 -40l-24 -36l-25 -31l-9 6l17 35l15 38l15 41l13 45l12 47l11 52l10 54l8 59l7 63l4 52h-111v21h474l53 54l65 -54v-21h-215v-324l94 84l47 43h-1l5 4l40 -50l2 -19zM738 102l-14 1
l-13 2l-13 4l-12 7l-11 9l-9 11l-7 12l-4 13l-2 13l-1 14h64l1 -7v-5l2 -3l1 -1l1 -1v-2h2l4 -1l4 -1l7 -1h148l31 135h11l-11 -135l19 -13l13 -19l-13 -19l-19 -13h-179zM233 848h-132v-675h132v675zM570 623h-97l-18 -66l-16 -42l14 -10l14 -12l13 -13l12 -14l12 -14
l10 -16l10 -16l9 -17l3 -6l15 71l12 80zM652 849h-137l-8 -60l-10 -64l-13 -59l-5 -21h92l32 27l49 -40v217z" />
  </g>

</svg>
