<?xml version="1.0" standalone="no"?>
<!DOCTYPE svg PUBLIC "-//W3C//DTD SVG 1.1//EN" "http://www.w3.org/Graphics/SVG/1.1/DTD/svg11.dtd" >
<svg xmlns="http://www.w3.org/2000/svg" xmlns:xlink="http://www.w3.org/1999/xlink" version="1.1" viewBox="0 -205 1024 1024">
  <g transform="matrix(1 0 0 -1 0 819)">
   <path fill="currentColor"
d="M636 988l72 -26q9 -3 4 -8q-3 -6 -30 -14v-58h80v102l64 -26q15 -4 4 -14l-24 -10v-50v-2h66l34 32l44 -40l4 -8q0 -6 -26 -24v-168l4 -58q0 -12 -18 -20t-32 -6v24h-322v-6q0 -9 -18 -18q-16 -10 -34 -8l4 76v258l50 -34h74v106v0v0zM560 640h76v92h-76v-92v0v0z
M682 732v-92h80v92h-80v0v0zM806 732v-92h76v92h-76v0v0zM560 760h76v94h-76v-94v0v0zM682 854v-94h80v94h-80v0v0zM806 760h76v94h-76v-94v0v0zM922 574l44 -44q3 -4 4 -8q-1 -9 -8 -8h-420v-170h352l30 34l46 -44l4 -8q0 -9 -8 -8h-238q21 -46 66 -112q75 69 100 96
q47 -34 50 -40t0 -8q-4 -3 -20 -2q-15 0 -30 -8q-14 -8 -88 -52q31 -41 62 -61q30 -20 60 -28q29 -6 80 -12v-18q-22 0 -46 -6q-23 -5 -40 -32q-51 23 -90 64q-40 41 -74 95q-33 55 -50 122h-58v-215l110 51l8 -15q-52 -32 -82 -52q-28 -18 -64 -72l-54 52l34 20v233h-62
q-3 -118 -32 -179q-27 -62 -102 -124l-10 8q59 72 80 141q22 72 20 204v204l54 -32h344l28 34v0v0zM580 440h264l26 32q51 -42 52 -50q0 -9 -8 -8h-274q-21 0 -44 -8l-16 34v0v0zM292 964q3 -3 4 -6q4 -6 -12 -12q-22 -5 -58 -52h126l22 36l52 -30q9 -6 10 -14q0 -3 -30 -26
v-146l4 -76q0 -13 -14 -22q-15 -9 -38 -12v26h-206q-1 -15 -20 -26q-19 -9 -32 -6l4 120v204l48 -28h48q23 59 34 92l58 -22v0v0zM152 654h206v56h-206v-56v0v0zM152 734h206v52h-206v-52v0v0zM152 810h206v60h-206v-60v0v0zM70 594l42 -22h274l18 20l50 -26q6 -5 6 -10
q0 -3 -24 -24v-112l4 -54q1 -12 -16 -24q-17 -10 -34 -10v30h-272v-4q0 -12 -18 -24q-16 -10 -34 -10l4 110v160v0v0zM118 386h116v66h-116v-66v0v0zM280 386h110v66h-110v-66v0v0zM118 476h116v72h-116v-72v0v0zM280 548v-72h110v72h-110v0v0zM18 288h394l26 36l42 -44
q3 0 4 -6q0 -12 -8 -12h-120v-129l4 -72q0 -12 -18 -24q-18 -13 -38 -14l4 112v127h-104q-12 -108 -50 -161q-37 -53 -118 -98l-4 16q57 48 88 98q27 46 36 145h-78q-18 0 -36 -8l-24 34v0v0z" />
  </g>

</svg>
