<?xml version="1.0" standalone="no"?>
<!DOCTYPE svg PUBLIC "-//W3C//DTD SVG 1.1//EN" "http://www.w3.org/Graphics/SVG/1.1/DTD/svg11.dtd" >
<svg xmlns="http://www.w3.org/2000/svg" xmlns:xlink="http://www.w3.org/1999/xlink" version="1.1" viewBox="0 -36 256 256">
  <g transform="matrix(1 0 0 -1 0 220)">
   <path fill="currentColor"
d="M154.5 58q7.5 0 6.5 12v105q0 13 -1 23l13 -7l29 31h-65q-10 0 -19 -2l-9 9h96l9 10l18 -21q-13 -2 -25 -9t-30 -23q0 -16 4 -28.5t7 -19.5q28 21 37 38l15 -18q-15 -2 -50 -26q11 -21 26.5 -38t29.5 -20v-4q-15 -1 -22 -12q-36 39 -49 94v-92q1 -16 -20 -26
q-1 15 -29 21v5q21 -2 28.5 -2zM134 160l5 11l18 -14l-9 -7q-15 -42 -26.5 -58t-33.5 -34l-2 4q36 41 47 91h-9q-10 0 -19 -2l-9 9h38zM212 28l14 14l17 -21h-129q-11 1 -19 -2l-8 9h125zM32 120h42l9 11l14 -14l-8 -6q-3 -32 -6.5 -52.5t-11 -31t-23.5 -15.5q1 6 -3.5 11.5
t-19.5 11.5l1 4q21 -6 27.5 -5t11.5 15.5t9 63.5h-43l-8 -6l-12 12l7 4q5 34 6 59l13 -7h37v45h-34q-10 0 -19 -2l-9 9h62l6 12l16 -12l-8 -7v-41q0 -10 1 -17l-15 -7v13h-36z" />
  </g>

</svg>
