<?xml version="1.0" standalone="no"?>
<!DOCTYPE svg PUBLIC "-//W3C//DTD SVG 1.1//EN" "http://www.w3.org/Graphics/SVG/1.1/DTD/svg11.dtd" >
<svg xmlns="http://www.w3.org/2000/svg" xmlns:xlink="http://www.w3.org/1999/xlink" version="1.1" viewBox="0 -52 256 256">
  <g transform="matrix(1 0 0 -1 0 204)">
   <path fill="currentColor"
d="M93 245l14 -9h109l9 10l13 -12q2 -2 1 -3q0 -1 -3 -2l-4 -2v-15l1 -17q2 -10 -13 -11v7h-111q-5 -129 -52 -181l-4 4q43 60 45 178v40q-1 5 -7 11zM213 176l14 -12q2 -2 2 -4q0 -1 -2 -1h-12q-47 -11 -74 -13v-36h77l8 10l17 -12q2 -1 2 -2q-1 -1 -3 -1h-40v-75v-9
q0 -5 -3 -7q-4 -3 -10 -4q1 4 1 16q1 10 1 15v64h-50v-7q2 -57 -43 -88l-4 4q39 29 36 93v39q-1 6 -7 12l3 3l13 -11q3 1 10 2q36 8 51 13l4 2q5 1 5 2q2 2 2 6zM109 231v-35h111v35h-111zM84 211l5 -1l-24 -69q-7 -19 -17 -44l-5 -15q-5 -9 1 -36q5 -25 -6 -26q-10 0 -7 24
q3 26 -2 30q-3 3 -17 5v5q13 0 17 1t7 10q2 4 9 21q3 5 4 8q6 13 30 74q3 8 5 13zM34 244l1 3q19 -4 25 -10q6 -4 9 -9q5 -12 -4 -16q-3 0 -5 5q-2 7 -7 13q-5 7 -19 14zM8 182l1 4q19 -6 25 -10t9 -9q6 -12 -4 -16q-3 -1 -5 5q-1 3 -5 10q-1 2 -2 3q-5 7 -19 13z" />
  </g>

</svg>
