<?xml version="1.0" standalone="no"?>
<!DOCTYPE svg PUBLIC "-//W3C//DTD SVG 1.1//EN" "http://www.w3.org/Graphics/SVG/1.1/DTD/svg11.dtd" >
<svg xmlns="http://www.w3.org/2000/svg" xmlns:xlink="http://www.w3.org/1999/xlink" version="1.1" viewBox="0 0 2048 2048">
  <g transform="matrix(1 0 0 -1 0 2048)">
   <path fill="currentColor"
d="M290 1724q-2 81 -4 110q-1 30 -2 37l-2 13l109 -24q50 -12 67 -21t18 -23q0 -14 -13 -24q-13 -11 -37 -19l-41 -14l-2 -790q1 -52 1 -97q-1 -46 -6 -128t-17 -162t-33 -151t-52 -139q-32 -67 -69 -124q-37 -56 -66 -87l-34 -37l-24 21l37 59q21 32 46 82q24 49 46 116
q23 67 38 138q14 71 22 147q9 76 13 149t5 106v107v755zM1605 86v1686q0 64 -2 102t-3 45l-2 13l119 -25q35 -8 54 -19q19 -10 20 -24t-13 -26q-13 -11 -35 -17l-41 -11v-1499q0 -2 4 -74t8 -99q3 -27 1 -40q-4 -18 -12 -27t-25 -15q-16 -7 -36 -8q-19 0 -28 10q-9 11 -9 28
zM576 1700q7 -8 18 -19l27 -29l43 -50q26 -30 46 -58t39 -66t27 -74q9 -37 5 -67t-21 -45q-18 -15 -35 -13q-14 1 -25 13q-12 11 -16 51t-12 73q-9 33 -24 70q-15 38 -30 66q-14 29 -31 58l-39 65zM1346 1709l127 -47q12 -5 23 -16q12 -10 12 -22q1 -13 -11 -20t-39 -11
l-38 -6l-18 -43q-9 -21 -32 -63q-24 -42 -59 -97t-59 -84l-36 -44l-36 22l30 56q18 33 40 85q21 52 38 97t27 78q10 32 18 62zM1191 940l59 -60q27 -27 71 -79t81 -107q36 -54 57 -104q21 -51 28 -88t0 -63q-7 -25 -23 -37q-15 -13 -37 -14q-22 0 -36 18q-8 9 -13 38
q-4 30 -10 60q-6 31 -19 77t-37 96q-23 50 -54 99q-30 50 -58 91l-36 51zM1029 1088v-683q0 -35 5 -111q4 -77 8 -112q4 -34 3 -49q-2 -11 -5 -19q-4 -9 -14 -16q-11 -6 -30 -7q-24 -2 -37 3t-21 16q-8 10 -8 23v955h-303q-30 0 -71 -3l-27 -2q-24 -2 -26 -2l-24 -3l-39 86
q26 -5 46 -8q21 -3 40 -4q20 -2 52 -4q31 -2 49 -2h303v589q0 48 -3 94.5t-3 52.5l-2 13l113 -24q49 -11 66 -21q17 -9 18 -23t-11 -24t-38 -19l-41 -14v-624h283l98 101l121 -107q10 -10 14 -16q4 -5 1 -17q-4 -11 -12 -15q-7 -4 -13 -4h-492zM667 960l96 -31
q43 -15 55 -24q11 -9 11 -23q-1 -17 -13 -24q-13 -6 -39 -9l-32 -4l-55 -147q-28 -72 -62 -136q-35 -65 -82 -134l-49 -71l-30 19l42 84q20 42 53 129t57 167t34 132z" />
  </g>

</svg>
