<?xml version="1.0" standalone="no"?>
<!DOCTYPE svg PUBLIC "-//W3C//DTD SVG 1.1//EN" "http://www.w3.org/Graphics/SVG/1.1/DTD/svg11.dtd" >
<svg xmlns="http://www.w3.org/2000/svg" xmlns:xlink="http://www.w3.org/1999/xlink" version="1.1" viewBox="0 -205 1024 1024">
  <g transform="matrix(1 0 0 -1 0 819)">
   <path fill="currentColor"
d="M40 784h292q45 96 84 186l62 -36q9 -10 -2 -16q-18 -3 -26 -8q-7 -6 -28 -32q-21 -28 -62 -94h114l32 44l58 -54q3 -3 4 -8q0 -7 -14 -8h-174v-116h58l26 36l58 -42q3 -3 4 -6q-1 -7 -28 -26v-404l4 -60q0 -13 -14 -25q-15 -10 -38 -14v30h-304v-62q1 -13 -16 -24
q-15 -11 -36 -14l4 102v549l50 -40h74v116h-94q-22 0 -70 -8l-18 34v0v0zM146 274v-118h304v118h-304v0v0zM146 340v-40h304v112h-38q-13 0 -34 4q-18 3 -30 18q-10 12 -10 34v150h-74q3 -73 -20 -146q-21 -69 -98 -132v0v0v0zM450 618h-70v-138q0 -18 10 -24q8 -6 16 -6h44
v168v0v0zM264 642h74v116h-74v-116v0v0zM222 618h-76v-256q44 54 62 114q16 60 14 142v0v0zM134 940l8 12q45 -19 82 -44q33 -23 40 -46q6 -24 -2 -38q-9 -16 -26 -14q-16 -1 -22 20q-6 18 -20 46q-15 27 -60 64v0v0zM678 792q3 64 0 176l86 -32q6 -4 4 -10q0 -4 -36 -20
v-116q0 -52 -6 -130h144l38 54l54 -60q3 -3 4 -8q0 -12 -12 -12h-196q30 -216 60 -300t72 -150q42 -65 106 -89v-16q-24 1 -48 -2q-23 0 -46 -18q-39 54 -68 109q-27 53 -56 152q-30 96 -44 310h-10q-9 -175 -32 -266q-24 -91 -80 -178q-57 -86 -180 -163l-8 16
q102 85 150 163q45 75 70 168q21 93 30 264h-56q-33 0 -68 -8l-16 34h140q3 69 4 132v0v0zM776 884l6 12q45 -15 82 -38q35 -23 44 -46q9 -22 0 -40q-6 -19 -24 -20q-18 0 -24 16q-5 16 -16 44q-12 27 -68 72v0v0z" />
  </g>

</svg>
