<?xml version="1.0" standalone="no"?>
<!DOCTYPE svg PUBLIC "-//W3C//DTD SVG 1.1//EN" "http://www.w3.org/Graphics/SVG/1.1/DTD/svg11.dtd" >
<svg xmlns="http://www.w3.org/2000/svg" xmlns:xlink="http://www.w3.org/1999/xlink" version="1.1" viewBox="0 -205 1024 1024">
  <g transform="matrix(1 0 0 -1 0 819)">
   <path fill="currentColor"
d="M470 780h416l38 52l60 -60q3 -3 4 -8q1 -10 -10 -10h-424q-21 0 -68 -8l-16 34v0v0zM636 616h136l30 40l54 -42q6 -5 6 -10q0 -7 -32 -28v-400q0 -44 6 -49q6 -7 34 -8h34q21 6 30 21q5 14 8 56q2 41 4 94h18q2 -67 8 -100q3 -34 28 -51q-11 -29 -28 -44q-18 -12 -56 -16
h-58q-36 0 -56 12q-19 12 -20 67v432h-156v-110q1 -100 -10 -184q-11 -85 -52 -148q-42 -61 -128 -131l-8 16q69 64 102 129t42 148q9 81 6 178v168l58 -40v0v0zM616 964l10 10q54 -28 88 -58q33 -30 36 -54q4 -25 -4 -40q-10 -16 -28 -14q-18 1 -24 32q-6 29 -20 56
q-16 25 -58 68v0v0zM346 958q6 -3 6 -6q2 -9 -16 -14q-24 -18 -62 -104h104l32 36l48 -38q9 -3 10 -12q0 -5 -32 -28v-644q0 -32 -12 -55q-12 -20 -60 -34q-9 35 -30 46q-22 11 -88 34l4 15q89 -19 100 -21q9 0 24 2q15 0 16 17v350h-184q-1 -189 -38 -290
q-36 -102 -120 -183l-8 8q56 83 88 171q30 87 30 294h-54q-24 0 -48 -8l-24 32h126v350l54 -42h38q28 102 32 148l64 -24v0v0zM206 526h184v282h-184v-282v0v0zM262 754q56 -55 68 -82q10 -27 6 -42q-5 -15 -16 -24q-9 -7 -20 -2q-10 6 -10 24q-1 18 -8 46q-6 26 -30 74
l10 6v0v0zM264 466q52 -60 62 -84q9 -24 6 -44q-1 -20 -14 -28q-13 -6 -22 0q-10 7 -10 26q0 18 -6 48q-6 29 -26 76l10 6v0v0z" />
  </g>

</svg>
