<?xml version="1.0" standalone="no"?>
<!DOCTYPE svg PUBLIC "-//W3C//DTD SVG 1.1//EN" "http://www.w3.org/Graphics/SVG/1.1/DTD/svg11.dtd" >
<svg xmlns="http://www.w3.org/2000/svg" xmlns:xlink="http://www.w3.org/1999/xlink" version="1.1" viewBox="0 -205 1024 1024">
  <g transform="matrix(1 0 0 -1 0 819)">
   <path fill="currentColor"
d="M138 850q72 54 148 120l62 -30q3 -9 -6 -12q-13 -2 -28 -4q-12 -2 -48 -22q-35 -18 -94 -50q87 -23 124 -40q38 -14 44 -34q6 -18 -2 -30q-6 -12 -24 -14q-16 -1 -28 20t-48 42q-34 18 -100 54v0v0zM400 852q105 80 150 128l62 -36q3 -9 -6 -12q-13 0 -26 -2
q-12 -3 -50 -24q-36 -19 -90 -52q59 -16 100 -28q39 -12 52 -32q10 -19 2 -34q-6 -15 -24 -18q-15 0 -26 18q-9 18 -32 36q-23 17 -112 56v0v0zM656 858q78 60 144 120l58 -36q3 -9 -6 -12l-24 -4q-9 -2 -42 -16q-30 -14 -86 -46q91 -19 128 -38q36 -16 42 -34q6 -15 -2 -30
q-9 -12 -24 -14q-15 -1 -26 20q-11 18 -46 40q-36 20 -116 50v0v0zM176 744l56 -30h538l26 28l52 -34q12 -3 12 -12q0 -4 -24 -22v-134l4 -62q0 -12 -12 -20q-12 -9 -42 -8v28h-560v-20l-4 -4q1 0 -16 -6q-16 -6 -34 -6l4 94v208v0v0zM226 502h560v186h-560v-186v0v0z
M528 618q56 23 118 56l60 -30q4 -6 -4 -12q-20 0 -34 -2q-12 -4 -36 -10q-21 -6 -56 -20q54 -10 78 -22t28 -26q6 -12 -2 -24q-6 -12 -20 -12q-15 0 -26 12q-12 9 -32 22q-19 9 -74 30q-117 -39 -248 -66l-4 14q119 38 202 68q-30 15 -170 48l4 16q141 -18 216 -42v0v0z
M172 418l66 -20q6 -1 6 -8q1 -6 -22 -18v-291l202 59l6 -15q-153 -63 -186 -78q-30 -12 -50 -42l-48 50q11 2 26 22v341v0v0zM738 444l66 -26q12 -6 10 -12q-1 -4 -26 -16v-76q13 -114 44 -158q29 -40 50 -53q20 -9 28 -12q7 0 14 6q6 6 12 30q6 20 24 109l18 -2
q-8 -90 -10 -113q-1 -24 2 -40q0 -14 10 -28q9 -10 4 -18q-6 -6 -18 -6l-36 4q-27 4 -66 22t-78 80q-39 58 -48 191v118v0v0zM470 442l66 -28q7 -1 8 -8q0 -6 -26 -18v-301l214 63l6 -17q-165 -63 -194 -78q-28 -12 -56 -48l-50 52q25 15 32 32v351v0v0zM266 268l4 14
q56 -10 88 -22t46 -32q13 -18 8 -36q-6 -19 -24 -22q-18 -4 -26 14q-7 17 -28 40q-19 20 -68 44v0v0zM274 402l4 12q50 -9 82 -24q32 -12 44 -30q12 -15 6 -36q-6 -19 -24 -22q-18 -4 -24 16q-6 19 -24 38q-16 18 -64 46v0v0zM550 266l4 14q54 -12 90 -24q33 -10 48 -28
q13 -16 8 -34q-6 -16 -24 -20q-18 -3 -26 16q-10 17 -28 34q-18 15 -72 42v0v0zM566 386l6 14q48 -9 82 -20q32 -12 46 -30q12 -16 6 -34t-24 -20q-18 0 -26 18q-9 18 -26 36q-17 15 -64 36v0v0z" />
  </g>

</svg>
