<?xml version="1.0" standalone="no"?>
<!DOCTYPE svg PUBLIC "-//W3C//DTD SVG 1.1//EN" "http://www.w3.org/Graphics/SVG/1.1/DTD/svg11.dtd" >
<svg xmlns="http://www.w3.org/2000/svg" xmlns:xlink="http://www.w3.org/1999/xlink" version="1.1" viewBox="0 -154 1024 1024">
  <g transform="matrix(1 0 0 -1 0 870)">
   <path fill="currentColor"
d="M90 960l35 -50h172l35 41l42 -49q14 -12 -6 -17l-18 -9v-430l4 -72q9 -36 -40 -40v34h-185v-23q5 -15 -43 -30q5 39 7 120v469q-3 24 -19 44zM774 764l77 -33q12 -4 5 -10q-19 -7 -27 -19v-9h71l24 29l51 -36q21 -14 -10 -11h-136v-8q14 -48 -39 -52q3 22 3 35v25h-134
v-10q12 -48 -38 -50q2 21 2 42v18h-67q-24 1 -41 -12l-26 24q3 -287 -23 -420q-30 -154 -184 -254l-6 8q106 94 142 206q36 113 30 541q-2 7 -5 11q-31 -25 -62 -43l-8 9q91 81 140 145q50 65 57 80q8 16 -3 30l6 5l63 -34q17 -9 7 -13q-31 2 -54 -31l-14 -17h159l33 35
l53 -58q4 -11 -10 -7q-31 -4 -58 -37l-56 -56h195l26 36l64 -46q17 -10 -6 -10h-487q1 -39 1 -74h134v17q2 15 -28 42l9 11l77 -33q12 -4 6 -10q-19 -7 -28 -19v-8h134v18q2 15 -27 42zM555 224l27 -29h275l21 31l48 -39q14 -8 -6 -13l-18 -9v-45l4 -45q-5 -39 -38 -35v42
h-277v-11q4 -38 -41 -44q5 37 7 90v66q-3 19 -11 33zM577 621l27 -29h225l21 31l48 -39q14 -8 -6 -13l-18 -9v-12l4 -51q-5 -39 -38 -35v29h-149q55 -20 61 -39q11 -31 -15 -32q-13 -1 -15 15q-8 30 -38 51l3 5h-74v-4q4 -28 -41 -36q5 37 7 90v37q-3 19 -11 33zM314 552
h-185v-164h185v164zM129 736h185v154h-185v-154zM314 720h-185v-152h185v152zM591 100h277v77h-277v-77zM558 890q-49 -55 -96 -95l14 -8h195l71 103h-184zM613 511h227v63h-227v-63zM492 419h384l22 30l64 -42q17 -6 -6 -6h-387q-27 1 -45 -13zM152 298l59 -36
q14 -10 -2 -13q-10 1 -27 -11q-62 -113 -154 -187l-8 10q73 94 110 162q33 54 13 67zM534 345h284l22 30l68 -38q17 -10 -6 -10h-291q-27 1 -45 -17zM544 271h272l22 30l68 -38q17 -10 -6 -10h-279q-27 1 -45 -13zM248 284l6 14q74 -49 96 -89q29 -53 -6 -69q-18 -3 -24 30
q-6 31 -24 57q-18 25 -48 57z" />
  </g>

</svg>
