<?xml version="1.0" standalone="no"?>
<!DOCTYPE svg PUBLIC "-//W3C//DTD SVG 1.1//EN" "http://www.w3.org/Graphics/SVG/1.1/DTD/svg11.dtd" >
<svg xmlns="http://www.w3.org/2000/svg" xmlns:xlink="http://www.w3.org/1999/xlink" version="1.1" viewBox="0 0 2048 2048">
  <g transform="matrix(1 0 0 -1 0 2048)">
   <path fill="currentColor"
d="M1491 382v-136v-55q0 -14 4 -40l4 -30q1 -15 0 -23q-4 -16 -16 -26q-12 -11 -37 -12q-18 -1 -27 4q-9 4 -16 14t-7 32v272h-263q-7 -42 -17 -82q-9 -40 -46 -114t-62 -99l-46 -49l-27 26q19 30 37 62q17 32 35 93t25 121q8 59 10 129q3 70 3 118v217q0 24 -3 72l-4 63
l109 -74h249v144h-122q-26 0 -57 -3q-31 -2 -38 -2q-7 -1 -28 -3l-25 -3l-38 86q26 -5 46 -8q21 -3 41 -5t49 -3q29 -2 50 -2l122 -2v154h-199q-26 0 -57 -2q-31 -3 -38 -4q-7 0 -28 -2l-25 -3l-38 86q26 -5 43 -7q18 -2 43 -4l51 -4q36 -3 49 -3h200l-1 145h-145
q-24 0 -57 -2q-32 -3 -41 -4q-9 0 -26 -2l-24 -3l-39 86q26 -4 52 -7q27 -4 34 -4l51 -4q38 -4 50 -3l145 1v32q0 49 -2 72l-4 34l-2 13l108 -24q50 -12 66 -21q17 -9 18 -22q2 -14 -12 -26t-36 -18l-41 -11v-29h216l60 72l72 -50q20 -15 29 -24q10 -10 12 -21t-7 -23
q-5 -7 -30 -20l-27 -14v-126h7l75 75l76 -75q18 -19 21 -25t-3 -19q-3 -5 -7 -8q-4 -2 -11 -2h-158v-137l27 -19q10 -8 18 -17t6 -23q-2 -13 -25 -13h-351v-144h267l61 72l67 -49q18 -14 29 -25t13 -21q2 -11 -8 -23l-30 -19l-25 -15v-583q0 -34 -11 -58q-10 -24 -37 -48
q-27 -23 -54 -28l-37 -9q-5 24 -12 45q-6 22 -26 40q-21 17 -53 24l-54 12l7 42q31 -9 47 -11l41 -5q46 -9 60 -8q13 2 25 16t12 45l-1 123h-281zM1491 440h281v159h-281v-159zM1396 440v159h-256v-76l-4 -84zM1491 1420v-145h227l1 145h-228zM1491 1218v-154h228v154h-228z
M1140 653h256v156h-256v-156zM1491 809v-156h281v156h-281zM1279 1921l63 -31q26 -13 60 -36q35 -22 56 -44t26 -41q8 -38 -11 -54l-19 -19h295l95 96l122 -96q11 -9 19 -20t8 -18q-1 -9 -9 -14q-7 -6 -18 -6h-1003v-602q0 -51 -3 -134q-4 -84 -10 -173t-20 -179
q-13 -89 -40 -177q-28 -88 -69 -168t-76 -115l-42 -44l-26 22q23 36 43 72t46.5 106.5t44.5 148.5t31 176q12 98 16 169t6 189q3 118 4 194l1 456q0 1 -5 110l-4 79l109 -72l450 1q-10 6 -15 11q-6 5 -10 12q-4 6 -18 32t-38 56q-24 31 -43 48l-38 34zM478 1127v-785
q0 -43 6 -129q5 -86 6 -105q2 -19 2 -39q-1 -12 -4 -20q-2 -8 -12 -14t-28 -7q-22 -2 -34 3q-13 5 -20 15q-7 9 -7 23v1058h-77q-109 0 -164 -7l-12 -1l-35 88q12 -4 26 -7q14 -4 55 -10q40 -5 130 -5h77v581q0 64 -2 102t-3 45l-2 13l103 -24q46 -11 61 -20q16 -10 18 -24
q1 -14 -12 -25q-12 -11 -34 -18l-38 -13v-617h105l90 101l111 -107q9 -9 13 -15t1 -18q-3 -11 -10.5 -15t-12.5 -4h-297zM550 991q6 -9 10 -12l32 -37l38 -50q23 -31 42 -60q19 -30 36 -68q18 -37 26 -76q8 -38 4 -67q-3 -29 -20 -45q-17 -17 -32 -14q-12 1 -22 13t-14 47
q-3 36 -14 80q-10 43 -22 76q-11 34 -24 62l-30 60l-36 66zM126 1743q6 -9 10 -12l32 -36l37 -48q22 -29 43 -61q21 -31 37 -64q16 -34 25 -74q8 -41 5 -69t-21 -44q-17 -16 -32 -13q-12 1 -22 12q-11 12 -14 49t-12 73q-9 37 -22 74t-28 68q-14 31 -27 55l-36 65zM652 1770
l115 -47q36 -15 35 -39q0 -23 -41 -28l-44 -6l-19 -54q-10 -25 -26 -63t-38 -76t-39 -61t-44 -53l-15 -17l-26 15q12 23 22 45l24 54q15 34 24 58q8 25 22 69t24 81q10 38 17 73zM207 1006l106 -33q28 -9 41 -17q13 -9 13 -23q-1 -14 -11 -21q-9 -6 -31 -11l-41 -10
q-8 -46 -14 -79q-7 -34 -20 -87t-32 -111t-48 -120q-28 -61 -59 -102l-21 -28l-25 21l25 59q18 42 32 88q14 45 28 107q15 62 26 124q12 62 18 114t10 95z" />
  </g>

</svg>
