<?xml version="1.0" standalone="no"?>
<!DOCTYPE svg PUBLIC "-//W3C//DTD SVG 1.1//EN" "http://www.w3.org/Graphics/SVG/1.1/DTD/svg11.dtd" >
<svg xmlns="http://www.w3.org/2000/svg" xmlns:xlink="http://www.w3.org/1999/xlink" version="1.1" viewBox="0 -36 256 256">
  <g transform="matrix(1 0 0 -1 0 220)">
   <path fill="currentColor"
d="M67 16l-15 -7q1 46 1 117q-12 -35 -40 -67l-3 3q31 49 41 114h-10q-10 0 -19 -2l-9 9h40q0 29 -1 63l24 -10l-10 -7v-46h12l11 12l17 -19h-40v-27q20 -11 26 -17.5t0.5 -18.5t-12 3t-14.5 27q0 -107 1 -127zM159 195q-14 -38 -29 -58.5t-41 -36.5l-2 3q23 23 34.5 41
t22.5 51h-25q-10 -1 -19 -3l-9 10h55q5 24 4 42l26 -10l-10 -7l-5 -25h51l13 15l16 -22h-67q23 -48 73 -64v-4q-10 1 -16 -13q-45 29 -63 81h-9zM156 152l24 -14l-9 -7v-29h28l15 15l19 -22h-62v-70h42l14 13l18 -20h-139q-10 0 -19 -3l-9 10h79v70h-26q-10 0 -19 -2l-9 9
h54q0 34 -1 50z" />
  </g>

</svg>
