<?xml version="1.0" standalone="no"?>
<!DOCTYPE svg PUBLIC "-//W3C//DTD SVG 1.1//EN" "http://www.w3.org/Graphics/SVG/1.1/DTD/svg11.dtd" >
<svg xmlns="http://www.w3.org/2000/svg" xmlns:xlink="http://www.w3.org/1999/xlink" version="1.1" viewBox="0 -36 256 256">
  <g transform="matrix(1 0 0 -1 0 220)">
   <path fill="currentColor"
d="M33 205v-123h23v123h-23zM19 77v97q0 25 -1 47l15 -9h22l8 8l13 -13l-7 -7v-104q0 -17 1 -35l-14 -8v22h-23v-23l-15 -7q1 15 1 32zM185 172q6 -57 16 -88q9 33 13 93h-27zM163 138l-3 3q7 12 12.5 27.5t10.5 36t8 40.5l19 -11l-6 -6q-7 -23 -14 -44h31l11 10l15 -17h-19
q-8 -79 -20 -109q6 -12 18 -26t21 -18v-3q-14 0 -19 -8q-16 22 -27 43q-11 -17 -23.5 -29t-26.5 -19l-2 3q13 11 25 26t20 34q-12 39 -14 92q-9 -16 -17 -25zM115 199q-14 0 -28 -3l-9 10h67l11 10l17 -17h-53h-5zM129 189q-4 -1 -6.5 -4t-23.5 -28l47 1q-3 8 -11 18l3 2
q19 -14 22.5 -21.5t-2 -13.5t-7.5 -1.5t-3 11.5q-50 -7 -57 -12l-7 15q6 2 14 13.5t15 30.5zM90 75.5q0 35.5 -1 58.5l16 -7h36l6 9l14 -10l-6 -8v-85q0 -8 -4.5 -13.5t-11.5 -8.5q-6 14 -21 17v4q19 -3 21.5 -2t2.5 5v29h-39v-47l-14 -6q1 29 1 64.5zM103 99h39v21h-39v-21
zM103 71h39v21h-39v-21zM106 242q13 -6 19.5 -10.5t6.5 -10.5t-5 -10.5t-8 5t-15 23.5z" />
  </g>

</svg>
