<?xml version="1.0" standalone="no"?>
<!DOCTYPE svg PUBLIC "-//W3C//DTD SVG 1.1//EN" "http://www.w3.org/Graphics/SVG/1.1/DTD/svg11.dtd" >
<svg xmlns="http://www.w3.org/2000/svg" xmlns:xlink="http://www.w3.org/1999/xlink" version="1.1" viewBox="0 -36 256 256">
  <g transform="matrix(1 0 0 -1 0 220)">
   <path fill="currentColor"
d="M204 178v-7h-54v7h54zM120 207h-83q0 -10 -4.5 -15t-10 -6t-9 2t6.5 10.5t13 22.5h4v-7h83v14h-51q-11 0 -21 -3l-10 10h159l9 9l16 -16h-89v-14h89l10 9l15 -14q-15 -4 -31 -19l-3 2l9 15h-89q0 -30 2 -38l-16 -4q1 9 1 42zM104 197v-7h-53v7h53zM202 197v-7h-52v7h52z
M104 178v-7h-55v7h55zM45 126h23v26h-23v-26zM32 139q0 12 -1 25l14 -5h23l6 8l12 -8l-5 -8q0 -27 1 -34l-14 -3v5h-23v-3l-14 -4q1 15 1 27zM115 126h23v26h-23v-26zM101 163l14 -4h23l5 8l14 -9l-6 -7q0 -25 1 -33l-14 -3v4h-23v-4l-14 -3q1 17 1 25.5t-1 25.5zM186 126
h24v26h-24v-26zM173 140q0 11 -1 24l14 -5h23l6 8l16 -9l-8 -7q0 -23 2 -33l-15 -3v4h-24v-2l-14 -2q1 14 1 25zM39 67.5q0 29.5 -1 41.5l16 -3h145l7 8l14 -11l-6 -7v-54q0 -14 1 -27l-15 -4v4h-147l-15 -5q1 28 1 57.5zM53 22h147v77h-147v-77zM133 45q0 -13 2 -17l-16 -4
q1 13 1 17v17q-9 -7 -23.5 -14t-36.5 -13l-1 4q21 9 32 16t18 13h-13q-12 -1 -21 -3l-10 10h55v14q-28 -1 -43 -1l-1 4q18 1 48 5t42 7l11 -12q-10 0 -44 -3v-14h31l10 8l15 -15h-56q33 -7 43.5 -12t8 -14.5t-12.5 0t-39 21.5v-14z" />
  </g>

</svg>
