<?xml version="1.0" standalone="no"?>
<!DOCTYPE svg PUBLIC "-//W3C//DTD SVG 1.1//EN" "http://www.w3.org/Graphics/SVG/1.1/DTD/svg11.dtd" >
<svg xmlns="http://www.w3.org/2000/svg" xmlns:xlink="http://www.w3.org/1999/xlink" version="1.1" viewBox="0 -36 256 256">
  <g transform="matrix(1 0 0 -1 0 220)">
   <path fill="currentColor"
d="M25 169.5q0 31.5 -1 64.5l13 -8h57l12 10l13 -17h-43v-28h12l11 10l13 -17h-36v-28h11l11 11l13 -18h-35v-27l22 1l8 8l14 -13l-7 -5q-4 -62 -8.5 -72.5t-10 -17t-17.5 -9.5q0 11 -25 17l1 4q23 -3 28 -2t10.5 12.5t8.5 71.5l-62 -3v-7l-14 -3q1 34 1 65.5zM38 191h25v28
h-25v-28zM38 156h25v28h-25v-28zM38 121l25 1v27h-25v-28zM23 90q4 -20 2 -29t-6 -12.5t-8.5 -0.5t2 12.5t6.5 29.5h4zM36 93q8 -10 11 -18t1.5 -14.5t-6.5 -7.5t-4 11t-6 28zM51 98q19 -15 22 -21.5t0 -10.5t-7 -4.5t-5 8t-12 26.5zM72 103q13 -9 17.5 -16t3 -11.5t-6 -7
t-6.5 6.5t-11 26zM140 214l14 -9h7q15 30 17 42l18 -12q-10 -6 -17 -16t-10 -14h39l9 9l13 -14l-8 -6v-67h4l9 10l13 -17h-26v-79q-1 -25 -19 -30q-2 17 -25 21v5q21 -4 26 -3t5 10v76h-55q0 -83 -45 -113l-3 3q35 35 35 110h-4q-5 0 -10 -3l-8 10h22v52q0 16 -1 35z
M154 127h55v71h-55v-71zM190.5 164q5.5 -9 -0.5 -17.5t-9.5 5t-13.5 31.5l2 2q16 -12 21.5 -21zM191.5 83q5.5 -9 -1 -18t-10 5t-13.5 31l2 2q17 -11 22.5 -20z" />
  </g>

</svg>
