<?xml version="1.0" standalone="no"?>
<!DOCTYPE svg PUBLIC "-//W3C//DTD SVG 1.1//EN" "http://www.w3.org/Graphics/SVG/1.1/DTD/svg11.dtd" >
<svg xmlns="http://www.w3.org/2000/svg" xmlns:xlink="http://www.w3.org/1999/xlink" version="1.1" viewBox="0 -36 256 256">
  <g transform="matrix(1 0 0 -1 0 220)">
   <path fill="currentColor"
d="M36 245l19 -7l-6 -7v-20h33q0 20 -1 33l20 -6l-7 -7v-20h4l9 9l15 -16h-28q0 -15 1 -32l-13 -5v7h-10v-27h24l7 10l12 -14l-7 -6q0 -20 1 -37l-13 -7v8h-24v-29h23l10 11l15 -18h-48q0 -39 1 -51l-14 -7q1 26 1 58h-23q-10 -1 -19 -3l-9 10h51v29h-25v-8l-13 -4
q1 17 1 33.5t-1 32.5l14 -8h24v27h-11v-3l-13 -5q1 21 1 37q-9 0 -17 -2l-8 10h25q0 18 -1 34zM49 181h33v23h-33v-23zM35 108h25v32h-25v-32zM72 108h24v32h-24v-32zM123 110l15 -9h74l6 10l14 -10l-7 -10v-65l10 10l13 -17h-120q-11 0 -20 -3l-9 10h25v50q0 17 -1 34z
M137 26h20v68h-20v-68zM168 26h17v68h-17v-68zM196 26h17v68h-17v-68zM166 246l21 -7l-7 -7v-22h22l10 10l16 -17h-48v-29h37l11 12l17 -19h-66q-22 -24 -39 -35l71 3q-6 11 -17 24l2 3q26 -19 32 -29t1.5 -17.5t-8 -0.5l-7.5 15q-75 -10 -82 -15l-9 18q10 2 20 12t18 22
h-23q-10 0 -20 -2l-9 9h58v29h-15q-10 -1 -19 -3l-10 10h44q0 24 -1 36z" />
  </g>

</svg>
