<?xml version="1.0" standalone="no"?>
<!DOCTYPE svg PUBLIC "-//W3C//DTD SVG 1.1//EN" "http://www.w3.org/Graphics/SVG/1.1/DTD/svg11.dtd" >
<svg xmlns="http://www.w3.org/2000/svg" xmlns:xlink="http://www.w3.org/1999/xlink" version="1.1" viewBox="0 -36 256 256">
  <g transform="matrix(1 0 0 -1 0 220)">
   <path fill="currentColor"
d="M197 146h22v30h-22v-30zM233 137l-14 -5v7h-89v-3l-14 -4q1 16 1 32.5t-1 25.5l14 -7h88l8 10l13 -11l-7 -6q0 -28 1 -39zM130 146h21v30h-21v-30zM163 146h22v30h-22v-30zM119 115q1 -15 -4 -19.5t-11 -2.5t1 11t10 27h4v-9h110l7 8l13 -14q-11 -5 -27 -22l-2 2l9 19
h-110zM151 93h53l9 8l11 -14l-7 -3q-13 -20 -24.5 -32t-34 -24.5t-54.5 -18.5l-1 4q33 12 52 24t30 24.5t17 24.5h-55q-7 -6 -17 -14.5t-25 -15.5l-1 3q17 14 29.5 29.5t17.5 30.5l15 -12l-6 -4zM156.5 67q6.5 -6 1 -16.5t-8 0.5t-13.5 26l2 3q12 -7 18.5 -13zM157 212v-10
l1 -9l-15 -6q1 15 1 24h-15q-11 0 -20 -2l-9 9h44q0 20 -1 29l20 -8l-6 -7v-20zM191 199v12q0 24 -1 36l20 -8l-6 -6v-16h16l12 11l14 -18h-42q0 -7 1 -18l-15 -5zM31 62.5q-1 16.5 -9 38.5l2 2q28 -30 18 -43.5t-11 3zM84 165l12 -17h-33v-27h13l11 9l14 -16h-38v-51
q13 19 22 42l15 -13l-6 -2q-16 -19 -31 -34v-10l38 9l1 -4q-58 -20 -79 -31l-10 17q19 2 38 8v69q-19 1 -29 -3l-9 10h38v27h-3q-8 0 -17 -2l-6 9h47zM12 140l-2 2q31 53 46 104l17 -12l-6 -4l-6 -13q25 -11 31.5 -16.5t2.5 -16.5t-10.5 0.5t-24.5 29.5q-10 -23 -23.5 -44.5
t-24.5 -29.5z" />
  </g>

</svg>
