<?xml version="1.0" standalone="no"?>
<!DOCTYPE svg PUBLIC "-//W3C//DTD SVG 1.1//EN" "http://www.w3.org/Graphics/SVG/1.1/DTD/svg11.dtd" >
<svg xmlns="http://www.w3.org/2000/svg" xmlns:xlink="http://www.w3.org/1999/xlink" version="1.1" viewBox="0 -36 256 256">
  <g transform="matrix(1 0 0 -1 0 220)">
   <path fill="currentColor"
d="M56 226l-7 -5v-35h72q0 38 -1 60l23 -8l-8 -6v-46h74q0 24 -1 46l23 -9l-8 -5v-41l-14 -6v8h-161l-4 -6l-15 10l6 4q0 30 -1 47zM201.5 29q9.5 -1 9.5 16v104h-56q-10 0 -21 -2l-10 9h85l8 11l17 -12l-8 -8v-106q2 -25 -29 -34q-1 13 -29 21v4q24 -2 33.5 -3zM142 140
q22 -14 29.5 -19.5t8 -13.5t-5 -14t-10.5 8.5t-25 35.5zM215 99v-7q-34 -22 -53 -35t-23 -22l-17 20q30 8 93 44zM89 31q8 0 8 9v109h-51q-11 0 -20 -2l-10 9h81l7 10l17 -12l-9 -8v-109q1 -23 -24 -29q-1 14 -29 20v5q22 -2 30 -2zM34 137q19 -11 26.5 -17t8.5 -14t-5 -15
t-10 6.5t-22 36.5zM101 100v-7q-69 -47 -75 -59l-15 18q24 8 90 48z" />
  </g>

</svg>
