<?xml version="1.0" standalone="no"?>
<!DOCTYPE svg PUBLIC "-//W3C//DTD SVG 1.1//EN" "http://www.w3.org/Graphics/SVG/1.1/DTD/svg11.dtd" >
<svg xmlns="http://www.w3.org/2000/svg" xmlns:xlink="http://www.w3.org/1999/xlink" version="1.1" viewBox="0 -36 256 256">
  <g transform="matrix(1 0 0 -1 0 220)">
   <path fill="currentColor"
d="M159 246l24 -9l-9 -7v-12h38l14 10l15 -17h-67v-17h30l14 9l14 -16h-89q-11 0 -20 -2l-9 9h46v17h-35q-10 0 -20 -2l-9 9h64q0 16 -1 28zM116 156q0 12 -1 22l14 -6h76l9 8l14 -10l-7 -5q0 -15 1 -26l-16 -6v5h-77v-1l-14 -5q1 12 1 24zM129 145h77v20h-77v-20zM154 123
q2 -5 -3 -12h30q8 19 9 27l18 -7q-10 -3 -22 -20h34l12 10l15 -17h-131q-11 0 -20 -2l-9 9h55q-1 12 -13 24l2 2q21 -9 23 -14zM140.5 29.5q4.5 -0.5 7 7.5t5.5 37h-22q-4 -26 -19 -39.5t-41 -22.5l-2 4q24 12 34 25t14 33q-5 0 -15 -2l-9 9h25q0 6 -1 21l24 -7l-8 -4
q1 2 -1 -10h20l7 9l15 -11l-7 -6q-4 -36 -8 -47t-18 -14q1 9 -18 17v3q13 -2 17.5 -2.5zM193 34h26v41h-26v-41zM233 23l-14 -6v10h-26v-7l-14 -5q1 14 1 36t-1 39l15 -8h24l5 9l17 -10l-8 -7v-29q0 -8 1 -22zM99 82l1 -4q-74 -38 -74 -46l-14 18q27 8 39 14v72h-7
q-10 0 -19 -2l-9 9h35v64h-10q-10 0 -19 -2l-9 9h60l13 12l16 -19h-38v-64h11l11 12l14 -19h-36v-68z" />
  </g>

</svg>
