<?xml version="1.0" standalone="no"?>
<!DOCTYPE svg PUBLIC "-//W3C//DTD SVG 1.1//EN" "http://www.w3.org/Graphics/SVG/1.1/DTD/svg11.dtd" >
<svg xmlns="http://www.w3.org/2000/svg" xmlns:xlink="http://www.w3.org/1999/xlink" version="1.1" viewBox="0 -36 256 256">
  <g transform="matrix(1 0 0 -1 0 220)">
   <path fill="currentColor"
d="M216 233l17 -18h-182q-11 0 -20 -2l-10 9h99q-2 16 -21 23l2 2q24 -4 32 -10.5t-5 -14.5h71zM84 178q4 -5 -3 -11t-10.5 2t-16.5 20l3 1q23 -7 27 -12zM132.5 177.5q4.5 -5.5 -4 -11t-9.5 4t-11 20.5l3 2q17 -10 21.5 -15.5zM160 163l-5 1q16 15 30 36l17 -12l-8 -2z
M140 203.5q50 6.5 56 12.5l15 -15q-28 -1 -67.5 -5.5t-104.5 -6.5v4q51 4 101 10.5zM190 170l12 -15l-12 -1q-20 -5 -46 -16q7 -8 3 -14.5t-13.5 3.5t-40.5 20l1 3q22 -2 44 -8q15 7 32 15h-87q-10 0 -20 -2l-9 9h124zM137 40l2 -3q-49 -20 -58 -30l-11 13q5 3 4 9v19
q-29 -14 -64 -22l-1 3q27 9 58 26.5t44 38.5l17 -11q-4 -1 -8 -5q12 -16 32 -29q25 19 38 34l17 -16h-11q-12 -5 -38 -20q12 -7 35 -13t54 -7v-4q-18 -2 -21 -12q-24 3 -56 17t-54 49q-15 -12 -29 -22v-30zM127 121q-43 -39 -114 -53l-1 4q56 17 95 49h20zM138 113
q71 -12 83.5 -19.5t11.5 -17t-25.5 5t-70.5 27.5zM132 114q0 -24 1 -26l-15 -3q1 6 1 29h-71q-11 0 -20 -2l-10 9h101v11l19 -7l-6 -4h68l16 11l17 -18h-101z" />
  </g>

</svg>
