<?xml version="1.0" standalone="no"?>
<!DOCTYPE svg PUBLIC "-//W3C//DTD SVG 1.1//EN" "http://www.w3.org/Graphics/SVG/1.1/DTD/svg11.dtd" >
<svg xmlns="http://www.w3.org/2000/svg" xmlns:xlink="http://www.w3.org/1999/xlink" version="1.1" viewBox="0 -205 1024 1024">
  <g transform="matrix(1 0 0 -1 0 819)">
   <path fill="currentColor"
d="M506 938l52 -40h340l32 40l60 -38q6 -7 6 -10q0 -7 -30 -28v-682l4 -99q1 -12 -16 -24q-16 -12 -38 -12v92h-360v-68q0 -13 -18 -24q-18 -12 -36 -12l4 127v778v0v0zM556 162h360v710h-360v-710v0v0zM782 824q8 -4 8 -10q2 0 -4 -6l-28 -14v-104h52l32 40l48 -44
q3 -4 4 -10q-1 -12 -16 -12h-120v-148h26l28 30l46 -28q12 -6 12 -14q0 -5 -24 -22v-130l4 -70q3 -12 -14 -24q-16 -10 -38 -10v50h-130v-44q-1 -12 -16 -24t-36 -14l4 106v228l48 -34h42v148h-74q-21 0 -44 -8l-16 34h134v158l72 -24v0v0zM668 324h130v166h-130v-166v0v0z
M390 698l50 -34q16 -7 2 -22l-22 -20v-186l4 -88q0 -13 -18 -26q-16 -12 -34 -14v36h-178v-213l178 85q-31 39 -70 72l8 12q59 -30 94 -56q35 -28 46 -52q12 -25 4 -45q-9 -19 -24 -20t-24 18q-6 19 -12 29q-3 9 -12 24q-146 -82 -166 -101q-19 -18 -52 -54l-56 58
q33 20 40 34v537q-45 -63 -90 -104l-10 10q65 93 122 204q56 107 92 206l66 -34q12 -5 4 -16q-28 0 -40 -24q62 -25 104 -50q42 -24 54 -48q13 -24 8 -42q-6 -19 -24 -20q-18 -2 -30 24q-10 24 -40 58q-27 33 -84 60q-21 -42 -54 -96q-31 -54 -64 -104l38 -32h160l30 34v0v0
zM194 636v-120h178v120h-178v0v0zM194 490v-120h178v120h-178v0v0zM244 810l8 10q53 -30 70 -54q15 -21 12 -44q-4 -21 -16 -26q-13 -3 -22 0q-9 4 -12 26t-12 44q-8 20 -28 44v0v0z" />
  </g>

</svg>
