<?xml version="1.0" standalone="no"?>
<!DOCTYPE svg PUBLIC "-//W3C//DTD SVG 1.1//EN" "http://www.w3.org/Graphics/SVG/1.1/DTD/svg11.dtd" >
<svg xmlns="http://www.w3.org/2000/svg" xmlns:xlink="http://www.w3.org/1999/xlink" version="1.1" viewBox="0 -205 1024 1024">
  <g transform="matrix(1 0 0 -1 0 819)">
   <path fill="currentColor"
d="M984 93h-486v-30q0 -9 -18 -22q-18 -12 -36 -12l4 118v271q-42 -61 -116 -130l-10 12q64 86 110 158q45 71 72 128l58 -34q6 -4 6 -8q3 -4 -8 -8l-24 -6q-13 -16 -38 -50h362l34 48q60 -60 60 -66q0 -7 -8 -8h-222v-88h110l32 44l56 -54q2 -4 2 -10q-3 -6 -8 -6h-192v-94
h106l36 44l56 -52q8 -15 -4 -18h-194v-101h162l40 51l60 -59q9 -9 -2 -18v0v0zM498 119h178v101h-178v-101v0v0zM676 246v94h-178v-94h178v0v0zM676 366v88h-178v-88h178v0v0zM464 922h368l40 48l56 -56l2 -4q0 -12 -12 -12h-214v-82h216l22 30q57 -42 60 -50q4 -9 -10 -12
q-13 -3 -32 -14q-19 -9 -52 -48l-14 6l30 64h-220v-54l4 -90q0 -16 -20 -28q-18 -12 -38 -12l4 132v52h-194q-2 -51 -16 -78q-12 -24 -32 -30q-21 -5 -32 12q-11 14 12 38q23 21 32 48q6 24 12 78h20l2 -44h196v82h-128q-15 0 -44 -8l-18 32v0v0zM474 722h138v-26h-138v26v0
v0zM474 634h142v-26h-142v26v0v0zM756 722h138v-26h-138v26v0v0zM756 636h138v-26h-138v26v0v0zM628 586l10 10q45 -18 66 -32q21 -13 28 -32q4 -18 -6 -30q-9 -13 -24 -10q-16 0 -22 22q-4 18 -16 34q-12 14 -36 38v0v0zM178 966l88 -34q4 -5 2 -10q0 -6 -42 -24v-260
q53 68 88 134q57 -36 54 -44q-4 -7 -10 -8q-5 0 -16 -6q-12 -6 -38 -30q-27 -25 -80 -74q1 -129 -10 -224q39 -31 70 -68q27 -35 40 -70t8 -52q-3 -15 -12 -24t-24 -6q-12 3 -18 36q-3 33 -18 78q-15 44 -50 88q-7 -94 -46 -172q-39 -77 -122 -147l-10 8q62 72 92 143
q28 70 38 134q11 66 16 246v386v0v0zM120 710q6 -93 0 -144q-6 -49 -26 -70q-18 -20 -36 -18q-17 3 -22 18q-6 15 12 30q15 15 30 46q15 30 24 138h18v0v0z" />
  </g>

</svg>
