<?xml version="1.0" standalone="no"?>
<!DOCTYPE svg PUBLIC "-//W3C//DTD SVG 1.1//EN" "http://www.w3.org/Graphics/SVG/1.1/DTD/svg11.dtd" >
<svg xmlns="http://www.w3.org/2000/svg" xmlns:xlink="http://www.w3.org/1999/xlink" version="1.1" viewBox="0 -36 256 256">
  <g transform="matrix(1 0 0 -1 0 220)">
   <path fill="currentColor"
d="M128 207h-37q0 -7 1 -19l-15 -5q1 12 1 24h-30q-10 0 -19 -2l-10 9h59q0 22 -1 32l22 -9l-8 -5v-18h12l12 12zM131 215h33q0 19 -1 30l22 -9l-8 -6v-15h38l11 11l14 -18h-63q0 -5 1 -18l-15 -6q1 19 1 24h-12q-6 0 -12 -2zM41 111h29v50h-29v-50zM41 49h29v55h-29v-55z
M83 53q0 -10 1 -19l-14 -7v15h-29v-16l-15 -7q2 25 2 73.5t-1 83.5l14 -8h29l9 10l13 -14l-9 -7v-104zM119.5 144.5q6.5 -5.5 2.5 -14.5t-10 1.5t-19 17.5l2 3q18 -2 24.5 -7.5zM177 109l10 9l13 -16h-34q-1 -12 -3 -28h43l12 12l16 -19h-72q-14 -42 -80 -59l-1 4
q55 23 66 55h-28q-11 0 -20 -2l-9 9h59q2 14 2 28h-5q-11 0 -20 -2l-10 9h61zM86 80l-2 4q40 30 58 79h-15q-11 0 -20 -3l-9 10h45l9 10l13 -14l-9 -5q-21 -55 -70 -81zM197 129q23 -22 50 -24v-5q-17 0 -20 -12q-37 23 -49 49.5t-12 43.5l4 1q3 -12 9 -26q21 22 26 33
l14 -16l-8 -1q-16 -13 -29 -21q4 -9 11 -17q24 19 27 29l15 -16h-9q-8 -6 -29 -18zM168 62q36 -14 49.5 -24t9 -22.5t-13 2t-47.5 40.5z" />
  </g>

</svg>
