<?xml version="1.0" standalone="no"?>
<!DOCTYPE svg PUBLIC "-//W3C//DTD SVG 1.1//EN" "http://www.w3.org/Graphics/SVG/1.1/DTD/svg11.dtd" >
<svg xmlns="http://www.w3.org/2000/svg" xmlns:xlink="http://www.w3.org/1999/xlink" version="1.1" viewBox="0 -205 1024 1024">
  <g transform="matrix(1 0 0 -1 0 819)">
   <path fill="currentColor"
d="M304 936h350l36 36l46 -40q6 -6 6 -12q1 -10 -10 -10h-90v-242l66 18l6 -18l-72 -24v-88q0 -15 -14 -24q-21 -12 -36 -12v112q-169 -51 -196 -60q-24 -10 -54 -40l-42 62l92 22v294h-24q-21 0 -48 -8l-16 34v0v0zM440 624l152 36v50h-152v-86v0v0zM440 736h152v76h-152
v-76v0v0zM440 838h152v72h-152v-72v0v0zM904 852h-154q-21 0 -42 -8l-22 34h220l24 26q62 -36 62 -42q1 -7 -4 -8t-22 -10q-15 -6 -26 -42q-11 -34 -46 -94q56 -37 76 -62q17 -24 20 -42q2 -18 -10 -30t-26 -8q-13 3 -20 18q-5 12 -22 40q-15 28 -42 50q-37 -39 -82 -74
t-98 -64l-6 14q44 36 80 70q35 32 74 82q-54 38 -126 88l6 12q62 -25 140 -70q21 42 46 120v0v0zM622 470q-99 -10 -270 -22l-4 18q218 28 338 50q119 20 194 40q45 -54 48 -60v-8q1 -4 -10 -4q-12 0 -26 4q-16 3 -82 0q-66 -1 -116 -10q35 -85 62 -140q68 54 142 112
q51 -48 52 -54q0 -6 -6 -6h-16q-12 1 -44 -10q-30 -11 -120 -58q46 -67 86 -100q40 -31 74 -46q33 -13 72 -20v-15q-42 -3 -60 -12q-15 -7 -32 -26q-42 32 -84 79q-41 48 -76 106q-33 57 -72 186v-308l4 -77q0 -14 -20 -28q-21 -14 -38 -14l4 119v304v0v0zM290 268
q122 81 196 156q57 -39 58 -44q1 -6 -4 -8q-3 -1 -20 -4q-16 0 -64 -30q-49 -27 -158 -86l-8 16v0v0zM268 103q129 83 252 207q54 -41 54 -46q1 -6 -4 -8q-3 -1 -18 -2q-13 -1 -92 -56q-77 -52 -184 -111l-8 16v0v0zM166 410q-19 -49 -40 -52q-22 -3 -88 -2l-2 -20
q45 -6 70 -14q25 -7 32 -22q8 -13 10 -44q1 -31 -6 -88q-9 -56 -6 -85q0 -27 16 -36q15 -9 30 0q15 8 18 34q3 25 -6 87q-10 62 -10 104t4 64q4 21 14 54l120 390l-22 6l-134 -376v0v0zM98 976l6 14q48 -18 82 -36q33 -15 52 -36q17 -19 20 -40q3 -19 -8 -32
q-12 -13 -26 -14q-16 1 -22 14q-6 14 -14 34q-6 20 -24 38q-15 18 -66 58v0v0zM36 716l6 14q42 -16 78 -34q35 -16 50 -34q15 -15 18 -36q1 -18 -10 -30q-9 -12 -24 -12t-20 12q-6 13 -14 32q-10 17 -28 40q-18 21 -56 48v0v0z" />
  </g>

</svg>
