<?xml version="1.0" standalone="no"?>
<!DOCTYPE svg PUBLIC "-//W3C//DTD SVG 1.1//EN" "http://www.w3.org/Graphics/SVG/1.1/DTD/svg11.dtd" >
<svg xmlns="http://www.w3.org/2000/svg" xmlns:xlink="http://www.w3.org/1999/xlink" version="1.1" viewBox="0 -36 256 256">
  <g transform="matrix(1 0 0 -1 0 220)">
   <path fill="currentColor"
d="M65 159q17 -5 22.5 -9.5t0 -10.5t-9.5 1.5t-17 15.5q-17 -8 -36 -13l-1 3q35 16 54 37h-19q-12 0 -21 -2l-11 9h111l11 8l16 -15h-69q-8 -7 -14 -12h54l7 7l14 -14l-10 -3q-46 -41 -128 -51l-2 5q74 12 113 49h-57q-2 -2 -8 -5zM175 185q0 27 -1 41l23 -7l-9 -7
q0 -56 2 -62l-16 -5q1 13 1 40zM212 225q0 9 -1 21l25 -7l-10 -8v-97q-1 -15 -19 -23q-4 14 -29 18v4q26 -3 30.5 -1t3.5 9v84zM150 238q-10 -3 -30 -19q17 -6 22 -12t-1 -12t-9.5 2t-21.5 22q23 19 25 27zM110 237q-11 -4 -28 -18q18 -10 21 -15t-2 -10.5t-10 3.5t-19 20
q19 20 23 28zM76 238q-10 -2 -32 -19q19 -9 24 -14t-1 -11.5t-10 1t-22 24.5q18 19 23 28zM62 94h76l20 11h-71q-17 -8 -25 -11zM63 75h62v12h-62v-12zM140 75h65v12h-65v-12zM63 53h62v15h-62v-15zM140 53h65v15h-65v-15zM113 119l-8 -3l-9 -4h67l11 7l14 -13
q-9 -1 -40 -12h56l9 9l15 -11l-8 -6q0 -29 1 -39l-16 -4v3h-142v-2l-16 -4q1 12 1 47q-14 -5 -33 -10l-2 4q27 9 47.5 21.5t35.5 26.5zM209 43q21 -7 31.5 -13t5 -16.5t-12 0.5t-28.5 27zM42 45q0 -23 -5 -30t-18 -7t-1.5 8.5t21.5 28.5h3zM106 26q4 -5 -3 -14t-10.5 3.5
t-11.5 27.5l2 1q19 -13 23 -18zM176 28q5 -5 -2.5 -14.5t-11.5 2.5t-18 27l3 1q24 -11 29 -16z" />
  </g>

</svg>
