<?xml version="1.0" standalone="no"?>
<!DOCTYPE svg PUBLIC "-//W3C//DTD SVG 1.1//EN" "http://www.w3.org/Graphics/SVG/1.1/DTD/svg11.dtd" >
<svg xmlns="http://www.w3.org/2000/svg" xmlns:xlink="http://www.w3.org/1999/xlink" version="1.1" viewBox="0 -205 1024 1024">
  <g transform="matrix(1 0 0 -1 0 819)">
   <path fill="currentColor"
d="M412 572q108 92 180 194l60 -38q9 -7 -2 -16q-18 0 -30 -6q-12 -5 -54 -40q-39 -36 -144 -108l-10 14v0v0zM780 748l6 14q78 -36 120 -62q39 -25 54 -52q15 -25 6 -44q-9 -18 -26 -18q-18 0 -30 28q-13 26 -40 58q-27 30 -90 76v0v0zM502 600h322l28 34l50 -34
q7 -4 8 -10q0 -6 -26 -26v-96l4 -40q1 -13 -16 -22q-15 -7 -36 -8v34h-264l-34 -114h338l30 36l54 -42q8 -3 8 -12q1 -7 -34 -20q-12 -88 -32 -131q-19 -44 -58 -74q-39 -27 -90 -36q-7 36 -44 54q-35 14 -82 34l8 16q75 -24 120 -30q42 -6 66 14q23 18 38 51q13 30 26 114
h-348l-30 -26l-52 50q17 6 40 24l44 158l40 -40h256v116h-274q-21 1 -32 -10l-28 36v0v0zM922 834l28 32l62 -46q10 -15 -12 -18q-33 -11 -48 -22q-15 -12 -48 -50l-12 10l36 70h-422q4 -46 -6 -70q-9 -21 -24 -30q-15 -10 -30 -4q-15 5 -18 20q-1 15 14 28q16 11 26 38
q10 26 14 80h20l2 -38h418v0v0zM618 976l8 12q57 -24 90 -48q32 -23 34 -46q3 -22 -8 -34q-12 -13 -30 -10q-18 2 -24 26q-3 24 -20 48q-15 24 -50 52v0v0zM346 792l34 46l58 -52q3 -3 4 -8q0 -12 -12 -12h-346q-18 1 -42 -10l-24 36h328v0v0zM70 636h226l32 44l58 -50
q2 -3 2 -8q0 -12 -12 -12h-216q-37 0 -68 -8l-22 34v0v0zM86 416l62 -44h150l28 34l60 -44q6 -6 6 -8q0 -6 -32 -30v-146l4 -81q1 -12 -16 -24q-16 -12 -38 -16v82h-172v-62q0 -16 -20 -30q-18 -13 -36 -14l4 119v264v0v0zM138 164h172v182h-172v-182v0v0zM136 974l10 10
q84 -55 102 -82q19 -27 18 -48q0 -22 -12 -32q-13 -11 -28 -6q-16 3 -20 22q-2 19 -10 44q-6 25 -60 92v0v0zM70 504h226l30 46l60 -52q2 -3 2 -8q0 -12 -12 -12h-230q-34 0 -58 -8l-18 34v0v0z" />
  </g>

</svg>
