<?xml version="1.0" standalone="no"?>
<!DOCTYPE svg PUBLIC "-//W3C//DTD SVG 1.1//EN" "http://www.w3.org/Graphics/SVG/1.1/DTD/svg11.dtd" >
<svg xmlns="http://www.w3.org/2000/svg" xmlns:xlink="http://www.w3.org/1999/xlink" version="1.1" viewBox="0 -205 1024 1024">
  <g transform="matrix(1 0 0 -1 0 819)">
   <path fill="currentColor"
d="M92 860h186v116l62 -22q12 -3 10 -12q0 -3 -8 -6l-16 -10v-66h102l24 38l60 -46q8 -7 8 -14q0 -5 -30 -22v-76h28l24 36l40 -44q3 -3 4 -8q0 -12 -12 -12h-84v-24l4 -94q0 -12 -20 -26q-20 -13 -34 -14v28h-114v-418l4 -97q0 -12 -18 -28q-18 -15 -38 -16l4 133v426h-114
q-24 0 -48 -6l-22 34h184v102h-146q-22 0 -70 -8l-22 36h238v92h-128q-18 1 -36 -4l-22 32v0v0zM326 832v-92h114v92h-114v0v0zM326 712v-102h114v102h-114v0v0zM450 518l72 -26q6 -3 6 -8q4 -4 -30 -22v-318l4 -59q-3 -15 -20 -28q-15 -12 -36 -12l4 101v372v0v0zM176 492
q5 -2 8 -4q3 -4 0 -10l-26 -18v-36q0 -111 -8 -162q-8 -50 -34 -112q-24 -60 -72 -129l-14 12q33 76 52 131q15 54 22 100q7 42 6 172v86l66 -30v0v0zM152 172q32 111 52 276l56 -16q9 -6 -2 -18q-12 -6 -14 -18q-1 -9 -20 -78q-19 -67 -56 -152l-16 6v0v0zM342 428l12 8
q46 -69 62 -110q16 -39 14 -68q-1 -27 -14 -38q-11 -9 -28 -6q-16 4 -14 38q2 33 -4 72q-7 38 -28 104v0v0zM538 280h238l36 48l54 -54q3 -4 4 -8q0 -12 -12 -12h-236q-22 0 -70 -8l-14 34v0v0zM784 946l2 -6q0 -4 -20 -8q-17 -4 -70 -88h160l30 42l54 -42q9 -6 10 -14
q0 -4 -12 -14l-24 -20q-6 -129 -8 -186q-1 -54 -28 -80q-24 -25 -66 -40q-9 18 -26 34q-19 13 -82 32l4 18q75 -16 96 -14q18 3 36 16q18 14 18 52q1 37 8 188h-208v-380h238l34 44l62 -42q9 -6 6 -12q0 -7 -32 -26q-10 -172 -14 -224q-4 -50 -22 -89q-15 -38 -84 -68
q-16 26 -34 42q-15 16 -90 34l4 18q95 -19 122 -14q26 3 38 24q9 19 16 63q4 41 14 224h-250l-24 -36l-66 44l30 28v436l48 -38h24q20 87 32 136l74 -34v0v0zM692 764q69 -29 94 -52q23 -21 26 -42q1 -21 -10 -32q-9 -10 -24 -8q-15 3 -18 24q-4 19 -20 44q-15 24 -54 54
l6 12v0v0z" />
  </g>

</svg>
