<?xml version="1.0" standalone="no"?>
<!DOCTYPE svg PUBLIC "-//W3C//DTD SVG 1.1//EN" "http://www.w3.org/Graphics/SVG/1.1/DTD/svg11.dtd" >
<svg xmlns="http://www.w3.org/2000/svg" xmlns:xlink="http://www.w3.org/1999/xlink" version="1.1" viewBox="0 -36 256 256">
  <g transform="matrix(1 0 0 -1 0 220)">
   <path fill="currentColor"
d="M44 163q-13 0 -22 -3l-10 10h109v15h-56q-13 0 -22 -3l-10 10h88v16h-71q-13 0 -22 -3l-10 10h66q-1 12 -20 28l3 3q17 -7 27 -13.5t-4 -17.5h66q11 17 16 34l20 -12l-11 -3l-19 -19h49l11 10l15 -17h-102v-16h67l11 10l15 -17h-93v-15h82l15 11l17 -18h-114v-66
q0 -16 1 -32l-16 -10q1 39 1 54v54h-77zM45 160l3 2q19 -4 24 -9t-3 -10h23l10 8l14 -15h-77q-10 0 -20 -3l-10 10h50q-4 9 -14 17zM51 118q-13 0 -22 -3l-10 10h68l8 7l14 -14h-58zM86 108l8 6l14 -13h-54h-13l-11 -3l-10 10h66zM37 90h50l6 7l15 -11l-7 -6v-22l-12 -4
l-1 5h-54v-3l-14 -4q2 20 0 42zM34 66h55v17h-55v-17zM175 159l3 3q14 -2 20.5 -7.5t-1.5 -10.5h23l9 8l15 -15h-70q-13 0 -22 -3l-10 10h46q-2 8 -13 15zM180 119q-13 0 -22 -3l-10 10h67l9 7l14 -14h-58zM214 107l9 7l15 -14h-57q-13 0 -22 -3l-10 10h65zM170 88h46l7 7
l16 -10l-8 -5q0 -11 1 -28l-14 -4v9h-49v-5l-15 -4q2 21 0 45zM169 64h49v17h-49v-17zM200 50q21 -9 30 -18t1.5 -18.5t-12.5 4t-21 29.5zM51 50q-3 -25 -11.5 -33.5t-18.5 -4.5t3.5 12t21.5 27zM108 28.5q4 -8.5 -3 -16t-9.5 6t-13.5 29.5l3 2q19 -13 23 -21.5zM166 28
q4 -8 -2.5 -16t-10.5 6t-17 28l3 3q23 -13 27 -21z" />
  </g>

</svg>
