<?xml version="1.0" standalone="no"?>
<!DOCTYPE svg PUBLIC "-//W3C//DTD SVG 1.1//EN" "http://www.w3.org/Graphics/SVG/1.1/DTD/svg11.dtd" >
<svg xmlns="http://www.w3.org/2000/svg" xmlns:xlink="http://www.w3.org/1999/xlink" version="1.1" viewBox="0 -205 1024 1024">
  <g transform="matrix(1 0 0 -1 0 819)">
   <path fill="currentColor"
d="M822 942l64 -52q12 -10 12 -16q-1 -9 -20 -12t-44 -12q-23 -9 -238 -174q7 -5 2 -10q-5 -3 -28 -12v-114l362 106l8 -24l-370 -120v-336q3 -55 -24 -83q-24 -26 -66 -38q-11 34 -34 50q-24 15 -90 36l4 19q75 -15 102 -19q24 -3 42 2q17 3 14 41v308q-264 -93 -296 -110
q-34 -15 -64 -48l-58 78l418 124v190l56 -26l208 188h-544q-33 -1 -54 -10l-30 36h626l42 38v0v0z" />
  </g>

</svg>
