<?xml version="1.0" standalone="no"?>
<!DOCTYPE svg PUBLIC "-//W3C//DTD SVG 1.1//EN" "http://www.w3.org/Graphics/SVG/1.1/DTD/svg11.dtd" >
<svg xmlns="http://www.w3.org/2000/svg" xmlns:xlink="http://www.w3.org/1999/xlink" version="1.1" viewBox="0 -36 256 256">
  <g transform="matrix(1 0 0 -1 0 220)">
   <path fill="currentColor"
d="M49 64v98q-21 -27 -38 -42l-2 3q13 16 22.5 31t24.5 42t22 49l19 -15q-4 -1 -13 -14.5t-25 -38.5l12 -8l-8 -7v-146l-15 -7q1 27 1 55zM225 160l-15 -5v9h-99l-6 -8l-13 11l5 6q0 27 -1 47l22 -8l-7 -7v-34h42q0 52 -1 71l22 -9l-7 -7v-55h43q0 32 -1 50l22 -9l-7 -5v-28
q0 -5 1 -19zM144 149q-3 -5 -11 -17h60l8 10l16 -15l-10 -7q-19 -39 -39 -62q31 -25 78 -31v-4q-17 -1 -22 -13q-33 12 -66 39q-36 -29 -85 -40l-1 5q46 16 77 44q-17 19 -31 49q-14 -18 -28 -29l-2 3q16 22 27 44t16 39l19 -10zM121 112q16 -28 37 -45q20 22 34 58h-62z
" />
  </g>

</svg>
