<?xml version="1.0" standalone="no"?>
<!DOCTYPE svg PUBLIC "-//W3C//DTD SVG 1.1//EN" "http://www.w3.org/Graphics/SVG/1.1/DTD/svg11.dtd" >
<svg xmlns="http://www.w3.org/2000/svg" xmlns:xlink="http://www.w3.org/1999/xlink" version="1.1" viewBox="0 -205 1024 1024">
  <g transform="matrix(1 0 0 -1 0 819)">
   <path fill="currentColor"
d="M656 388h-450q-27 -7 -50 -14l-26 42h546l56 40q75 -49 78 -58q1 -7 -4 -10q-6 -1 -20 -4q-16 -3 -40 -12t-114 -48q-91 -36 -172 -60t-212 -78q44 -31 86 -53q39 -24 162 -34q119 -6 374 2l100 12l4 -22q-36 -6 -62 -18q-25 -13 -38 -36h-68q-150 4 -272 10
q-121 9 -170 30q-48 22 -72 44q-23 20 -40 31t-34 14q-15 3 -44 -18q-30 -17 -84 -87l-60 50q45 24 90 47q42 23 108 50q140 62 230 92t198 88v0v0zM446 544l10 10q51 -24 72 -42q20 -19 20 -38q1 -18 -10 -30q-12 -10 -24 -8t-18 16q-3 15 -8 36q-6 20 -42 56v0v0zM156 536
q147 27 264 54q118 23 230 62l60 -50q6 -9 -6 -14q-24 -1 -50 2q-24 0 -174 -24q-149 -25 -322 -46l-2 16v0v0zM870 828l30 40l56 -50q12 -10 10 -16q0 -4 -14 -8q-24 -1 -54 -22q-27 -21 -62 -60l-16 12l50 76h-718q-5 -45 -16 -68q-9 -22 -30 -38q-21 -13 -38 -8
q-17 6 -22 22q-4 15 20 30q24 14 40 34q14 21 26 100h20v-44h718v0v0zM290 658q-72 -36 -200 -84l-8 16q114 56 190 104q74 45 110 84q62 -46 62 -52q0 -7 -6 -8l-24 -4q-17 -1 -34 -10q-18 -10 -90 -46v0v0zM570 762q86 -18 146 -36q59 -18 86 -42q27 -23 22 -46
q-5 -24 -22 -26q-15 -4 -38 22q-22 26 -64 52q-41 24 -136 60l6 16v0v0zM400 974l6 14q62 -19 94 -38q32 -18 40 -38q9 -21 0 -38q-9 -19 -30 -16q-22 0 -28 22t-20 44q-15 20 -62 50v0v0z" />
  </g>

</svg>
