<?xml version="1.0" standalone="no"?>
<!DOCTYPE svg PUBLIC "-//W3C//DTD SVG 1.1//EN" "http://www.w3.org/Graphics/SVG/1.1/DTD/svg11.dtd" >
<svg xmlns="http://www.w3.org/2000/svg" xmlns:xlink="http://www.w3.org/1999/xlink" version="1.1" viewBox="0 -205 1024 1024">
  <g transform="matrix(1 0 0 -1 0 819)">
   <path fill="currentColor"
d="M508 968q13 -7 2 -16q-31 -12 -44 -30q-13 -16 -46 -76h110l30 40l54 -40q9 -4 10 -10q0 -6 -32 -30v-677q0 -33 -20 -60q-22 -23 -64 -38q-12 33 -38 48q-24 15 -80 32l6 16q62 -12 92 -16t42 4q12 9 12 32v247h-14q-45 -90 -126 -176q-81 -83 -204 -157l-8 12
q105 83 178 167q73 85 104 152h-182q-28 -1 -50 -8l-24 36h98v468l54 -42h28q21 71 40 146l72 -24v0v0zM364 420h178v120h-178v-120v0v0zM364 566h178v110h-178v-110v0v0zM364 702h178v118h-178v-118v0v0zM618 712h186v258l76 -30q9 -4 6 -10q1 -4 -34 -22v-196h46l36 42
l58 -48q2 -3 2 -8q0 -12 -14 -12h-128v-569q0 -33 -18 -54q-19 -18 -58 -34q-6 33 -32 48q-27 13 -80 28l4 16l62 -12q53 -6 64 0q9 6 10 30v547h-118q-22 0 -52 -8l-16 34v0v0zM646 566q78 -81 94 -114q13 -33 8 -54q-7 -21 -16 -26q-9 -7 -24 -2q-14 5 -16 26q0 18 -8 54
q-7 33 -50 106l12 10v0v0zM270 744l20 -8q-121 -320 -130 -352q-9 -30 -14 -54q-4 -25 -2 -56q2 -30 10 -72q9 -43 6 -65q-3 -23 -18 -34q-13 -9 -26 -4q-13 7 -20 28q-6 22 6 73q10 50 8 74q0 24 -6 36q-4 9 -22 16q-19 8 -58 14l2 18q44 -6 58 -2q11 3 26 18
q12 15 160 370v0v0zM36 918l10 12q83 -45 110 -72q24 -25 30 -52q4 -27 -6 -44q-11 -18 -28 -14q-18 2 -24 34q-5 33 -22 60q-16 27 -70 76v0v0z" />
  </g>

</svg>
