<?xml version="1.0" standalone="no"?>
<!DOCTYPE svg PUBLIC "-//W3C//DTD SVG 1.1//EN" "http://www.w3.org/Graphics/SVG/1.1/DTD/svg11.dtd" >
<svg xmlns="http://www.w3.org/2000/svg" xmlns:xlink="http://www.w3.org/1999/xlink" version="1.1" viewBox="0 -36 256 256">
  <g transform="matrix(1 0 0 -1 0 220)">
   <path fill="currentColor"
d="M229 18l-16 -7v20h-172v-16l-16 -7q1 32 1 122t-1 111l17 -10h170l8 10l16 -13l-8 -8v-97q0 -85 1 -105zM41 38h172v186h-172v-186zM175 61h-90l-8 -9l-12 13l7 7v56q0 27 -1 39l23 -10l-8 -6v-83h36v125q0 10 -1 23l22 -8l-7 -8v-132h39v70q0 14 -1 28l22 -9l-7 -8v-73
q0 -9 1 -23l-15 -6v14z" />
  </g>

</svg>
