<?xml version="1.0" standalone="no"?>
<!DOCTYPE svg PUBLIC "-//W3C//DTD SVG 1.1//EN" "http://www.w3.org/Graphics/SVG/1.1/DTD/svg11.dtd" >
<svg xmlns="http://www.w3.org/2000/svg" xmlns:xlink="http://www.w3.org/1999/xlink" version="1.1" viewBox="0 -154 1024 1024">
  <g transform="matrix(1 0 0 -1 0 870)">
   <path fill="currentColor"
d="M488 722l34 -39h70q40 83 76 195h-158q-27 1 -45 -14l-34 33h468l32 40l68 -49q17 -10 -6 -10h-278q-49 -113 -93 -195h260l30 39l49 -41q17 -11 0 -18l-21 -14v-468q2 -61 -11 -89q-13 -26 -69 -39q-2 34 -34 44q-31 12 -90 25l6 16q106 -22 131 -20q25 1 25 49v497
h-100v-419l2 -37q-2 -38 -47 -44q5 38 7 128v372h-94v-451l2 -37q3 -37 -47 -44q5 39 7 127v405h-93v-455l4 -96q0 -40 -53 -46q5 38 7 188v417q-4 21 -21 36zM349 401h-183v-112h183v112zM488 654q4 -11 -10 -7q-26 -1 -77 -78l-11 8l26 68h-333v-2q3 -63 -30 -86
q-18 -12 -31 3t4 30t26 35q9 19 17 84h15q-1 -23 -1 -44h37v247q3 21 -12 49l11 10l30 -32h198l23 26l37 -28q18 -12 0 -17l-16 -9v-246h23l27 31zM125 575l27 -27h193l20 29l36 -27q14 -11 8 -15l-18 -15v-354q2 -62 -10 -88t-58 -36q-2 28 -20 36q-18 6 -76 21l2 16
q88 -15 104 -13t16 50v121h-183v-135l4 -57q0 -39 -53 -46q5 39 7 58v435q3 13 -13 36zM160 665h77v132h-77v-132zM166 417h183v111h-183v-111zM271 665h80v254h-191v-106h73l23 24l27 -28q18 -12 8 -17l-20 -9v-118z" />
  </g>

</svg>
