<?xml version="1.0" standalone="no"?>
<!DOCTYPE svg PUBLIC "-//W3C//DTD SVG 1.1//EN" "http://www.w3.org/Graphics/SVG/1.1/DTD/svg11.dtd" >
<svg xmlns="http://www.w3.org/2000/svg" xmlns:xlink="http://www.w3.org/1999/xlink" version="1.1" viewBox="0 -36 256 256">
  <g transform="matrix(1 0 0 -1 0 220)">
   <path fill="currentColor"
d="M67.5 208q-4.5 15 -20.5 33l2 2q24 -12 30 -20t-0.5 -19t-11 4zM81 195l13 -14l-8 -5q-9 -21 -20 -41v-17l5 -2q12 15 18 32l13 -12q-10 -3 -28 -22q10 -2 16 -8.5t2.5 -16.5t-9.5 1.5t-17 23.5v-101l-14 -7v111q-17 -27 -41 -44l-2 3q13 14 31 40.5t32 62.5h-27
q-10 1 -21 -2l-8 9h56zM140 236l-7 -4q-5 -9 -9 -17h29l10 10l11 -17h-40q15 -6 17.5 -13t-3 -12t-8.5 5t-10 20h-9q-11 -17 -23 -29l-3 2q10 16 16 32t9 33zM210 235q-7 -4 -14 -17h29l11 9l13 -16h-39q12 -6 17.5 -13.5t-1 -14.5t-9.5 3t-12 25h-13q-15 -22 -24 -30l-3 2
q11 17 17 33t10 31zM199 135h23l12 9l14 -16h-49q1 -36 9 -68q7 17 11.5 31.5t4.5 26.5l16 -11q-4 -2 -9 -18.5t-17 -41.5q10 -12 16 -16t8 2l6 18l3 -1q-3 -16 -3 -23.5t1.5 -14t-12 1t-27.5 25.5q-23 -23 -49 -33l-1 2q26 17 43 41q-9 28 -12 79h-74q-3 1 -12 -1l-8 8h40
v18h-2q-13 1 -24 -2l-9 9h35q0 22 -1 26l19 -7l-6 -6v-13h15l10 10l13 -17h-38v-18h42q-1 40 -2 56l20 -9l-6 -6q-1 -21 0 -41zM236 161.5q4 -6.5 -0.5 -12.5t-9.5 3t-19 22l2 2q23 -8 27 -14.5zM147 38v92h11v-23h7l9 9l13 -16h-29v-15h6l10 7l12 -14h-28v-14h8l9 7l12 -14
h-29v-17l27 5l1 -5q-31 -8 -52.5 -14t-30.5 -11l-7 16q15 1 28 4v22v-1q-7 0 -18 -3l-9 11h27v16v-1q-6 0 -17 -3l-9 10h26v15v-1q-8 0 -19 -3l-9 10h28v23h11v-94z" />
  </g>

</svg>
