<?xml version="1.0" standalone="no"?>
<!DOCTYPE svg PUBLIC "-//W3C//DTD SVG 1.1//EN" "http://www.w3.org/Graphics/SVG/1.1/DTD/svg11.dtd" >
<svg xmlns="http://www.w3.org/2000/svg" xmlns:xlink="http://www.w3.org/1999/xlink" version="1.1" viewBox="0 -52 256 256">
  <g transform="matrix(1 0 0 -1 0 204)">
   <path fill="currentColor"
d="M21 106l9 -10h38l10 10l11 -12q2 -2 1 -2q0 -1 -2 -2l-5 -2v-42l1 -13q0 -9 -11 -8v15h-40v-11q1 -9 -12 -11v9q1 11 1 17v49q1 3 -4 9zM33 45h40v46h-40v-46zM4 207h76l7 8l15 -11q4 -2 -1 -2h-77q-6 0 -11 -4zM18 172h50l5 7l14 -9q2 -1 2 -2q-1 -1 -4 -1h-47
q-7 0 -12 -3zM18 135h50l5 7l14 -9q2 -1 2 -2q-1 -1 -4 -1h-47q-7 0 -12 -3zM30 250l1 3q30 -12 30 -32q0 -8 -5 -8q-6 0 -6 7q0 9 -5 16q-6 9 -15 14zM106 209h63v27q1 5 -8 12l3 3l23 -9v-1q2 -1 0 -2q-1 -1 -3 -2q-4 -2 -5 -3v-25h42l9 10l17 -13q4 -2 -2 -2h-56
q20 -44 66 -55v-4q-10 2 -17 -6q-37 16 -54 65h-5v-45l1 -15q0 -5 -3 -7q-3 -3 -10 -4q2 13 2 38v33h-2q-26 -56 -74 -73l-1 3q45 28 62 70h-28q-7 0 -12 -4zM194 133q0 6 -7 11l2 3l22 -9q5 -3 2 -4q-5 -1 -8 -4v-21h20l8 10l17 -13q5 -2 -1 -2h-44v-72q0 -9 -4 -13
q-4 -5 -20 -9q-1 8 -7 10q-1 0 -7 2q-9 2 -14 4l1 5l10 -3q32 -9 30 12v64h-80q-7 0 -11 -4l-9 9h100v24zM123 89l1 4q27 -11 34 -26q4 -14 -4 -16q-4 0 -6 8q-1 7 -7 14q-4 6 -18 16z" />
  </g>

</svg>
