<?xml version="1.0" standalone="no"?>
<!DOCTYPE svg PUBLIC "-//W3C//DTD SVG 1.1//EN" "http://www.w3.org/Graphics/SVG/1.1/DTD/svg11.dtd" >
<svg xmlns="http://www.w3.org/2000/svg" xmlns:xlink="http://www.w3.org/1999/xlink" version="1.1" viewBox="0 -36 256 256">
  <g transform="matrix(1 0 0 -1 0 220)">
   <path fill="currentColor"
d="M102 213l-6 -7l-2 -26h2l9 10l13 -17h-80q-10 0 -19 -2l-9 9h29l4 27h-3q-9 0 -14 -2l-8 9h26l4 33l18 -8l-7 -5l-3 -20h27l6 9zM84 207h-29l-4 -27h31zM72 15l-14 -8q1 38 1 48h-30l-6 -6l-10 12q5 2 8 11l4 15l16 -9l-7 -4l-4 -12h29v26h-18q-10 0 -19 -2l-9 9h46v23
h-21l-13 -6q1 12 1 25.5t-1 26.5l15 -8h45l7 9l13 -11l-6 -5q0 -23 1 -29l-13 -6v4h-16v-23h17l10 10l14 -17h-41v-26h20l11 11l14 -18h-45q0 -21 1 -40zM38 149v-24h49v24h-49zM155 239l-4 -6v-13h7l7 8l10 -15h-24v-18h4l6 9l12 -16h-22v-19h9l8 9l10 -16h-27q0 -5 1 -12
l-13 -5q1 9 1 17h-5q-9 0 -15 -2l-8 9h28v19q-7 0 -13 -3l-8 10h21v18h-3q-9 0 -14 -2l-9 9h26q0 13 -1 27zM216 239l-4 -6v-13h10l7 9l13 -16h-30v-18h5l8 9l11 -16h-24v-19h13l8 10l12 -17h-33q0 -5 1 -11l-13 -5q1 9 1 16q-9 0 -15 -2l-8 9h23v19q-7 0 -13 -4l-8 11h21
v18h-2q-10 0 -15 -2l-9 9h26q0 14 -1 27zM221 81l-13 -3v5h-54q-10 0 -19 -2l-9 9h82v26v16h-44q-19 0 -28 -2l-9 9h79l7 10l12 -12l-5 -6v-26q0 -11 1 -24zM139 78l18 -8l-6 -6v-28q0 -9 8 -9h33q6 1 7.5 9t1.5 25h4q1 -18 3 -23.5t7 -9.5q-5 -12 -20 -12h-39
q-17 -2 -16 19q0 30 -1 43zM162 83q16 -10 21 -17.5t0 -16.5t-8.5 3t-14.5 29zM217 67q18 -10 24 -18t1 -17.5t-9.5 3.5t-16.5 29zM126 66q-2 -22 -6 -30t-10 -9.5t-9 2t6 11t16 27.5zM226 115l10 9l12 -16h-114q-14 0 -17 -3l-8 10h117z" />
  </g>

</svg>
