<?xml version="1.0" standalone="no"?>
<!DOCTYPE svg PUBLIC "-//W3C//DTD SVG 1.1//EN" "http://www.w3.org/Graphics/SVG/1.1/DTD/svg11.dtd" >
<svg xmlns="http://www.w3.org/2000/svg" xmlns:xlink="http://www.w3.org/1999/xlink" version="1.1" viewBox="0 -204 1024 1024">
  <g transform="matrix(1 0 0 -1 0 820)">
   <path fill="currentColor"
d="M965 453h-805q-38 0 -96 -4l-19 44q44 -11 115 -11h692l48 55l68 -52q12 -10 12 -19q0 -13 -15 -13zM255 348l62 -13h428l34 38l42 -27q11 -8 15 -13t4.5 -12t-5.5 -13q-4 -4 -33 -17v-187l18 -15q14 -11 10 -18.5t-10 -7.5h-516v-16q0 -12 -10.5 -17.5t-23.5 -3.5
q-21 3 -21 25q0 2 1 10.5t3 33.5l2 39v214zM304 93h446v212h-446v-212zM203 934l59 -30h497l34 38l42 -27q9 -7 14 -12.5t5.5 -12.5t-5.5 -13q-5 -5 -34 -17l1 -172q0 -6 2 -45.5t4 -53.5t1 -21q-2 -19 -24 -21q-11 -1 -21 3t-10 13v17h-519v-12q0 -6 -7 -15t-26 -7
q-21 1 -21 24q0 6 1.5 20t4 49t2.5 46v249zM533 875v-119h234v119h-234zM533 728v-119h234v119h-234zM249 756h236v119h-236v-119zM249 609h236v119h-236v-119zM55 199l-8 19q74 39 128.5 72t114 87.5t77.5 76t44.5 57.5t31.5 45l18 33l55 -29q25 -14 22.5 -23t-18.5 -10
l-29 -2q-11 -13 -34 -39l-48 -54q-75 -82 -154.5 -133t-199.5 -100z" />
  </g>

</svg>
