<?xml version="1.0" standalone="no"?>
<!DOCTYPE svg PUBLIC "-//W3C//DTD SVG 1.1//EN" "http://www.w3.org/Graphics/SVG/1.1/DTD/svg11.dtd" >
<svg xmlns="http://www.w3.org/2000/svg" xmlns:xlink="http://www.w3.org/1999/xlink" version="1.1" viewBox="0 -205 1024 1024">
  <g transform="matrix(1 0 0 -1 0 819)">
   <path fill="currentColor"
d="M186 864q104 -67 130 -94q24 -27 34 -50q9 -21 6 -44q-4 -21 -22 -26q-19 -6 -28 12q-10 15 -32 66q-21 50 -98 124l10 12v0v0zM776 886l72 -52q9 -5 6 -10q1 -1 -16 -8q-31 -4 -58 -32q-88 -106 -154 -166l-12 12q93 116 162 256v0v0v0zM126 594h352v384l88 -40
q9 -7 10 -10q4 -4 -4 -10l-38 -18v-306h236l42 54l70 -62q3 -3 4 -8q0 -12 -14 -12h-338v-172h322l44 56l70 -62q6 -4 6 -10q0 -12 -18 -12h-424v-174l4 -115q1 -15 -22 -30q-21 -15 -44 -16l6 161v174h-344q-18 1 -66 -10l-18 38h428v172h-268q-18 0 -66 -8l-18 36v0v0z
" />
  </g>

</svg>
