<?xml version="1.0" standalone="no"?>
<!DOCTYPE svg PUBLIC "-//W3C//DTD SVG 1.1//EN" "http://www.w3.org/Graphics/SVG/1.1/DTD/svg11.dtd" >
<svg xmlns="http://www.w3.org/2000/svg" xmlns:xlink="http://www.w3.org/1999/xlink" version="1.1" viewBox="0 -205 1024 1024">
  <g transform="matrix(1 0 0 -1 0 819)">
   <path fill="currentColor"
d="M886 832l38 48l66 -54q12 -7 10 -14q0 -6 -14 -6h-550q-19 0 -68 -8l-16 34h534v0v0zM568 984l8 12q69 -31 96 -50t34 -38q6 -18 -2 -36q-6 -16 -30 -16q-22 -1 -28 26q-6 23 -18 44q-12 18 -60 58v0v0zM588 738l6 -6q7 -10 -10 -14q-14 0 -34 -20q-37 -60 -64 -110
l28 -18q9 -7 -2 -14l-22 -8v-382l4 -97q0 -12 -18 -24q-18 -13 -36 -14l4 119v370q-46 -69 -106 -134l-12 10q46 70 92 152q44 81 104 222l66 -32v0v0zM702 582l10 10q62 -54 76 -84q13 -30 8 -48t-16 -24q-12 -6 -24 0q-12 5 -14 32q-1 24 -10 54q-6 27 -30 60v0v0z
M712 660h150l30 36q62 -42 62 -50q1 -10 -4 -10q-4 -1 -16 -8q-13 -6 -26 -60q-12 -54 -42 -140q-30 -84 -86 -168q54 -60 94 -90q39 -28 70 -39q29 -11 68 -20v-16q-36 1 -54 -4q-17 -6 -40 -28q-41 32 -76 64q-33 31 -90 99q-39 -48 -86 -87q-48 -40 -156 -98l-8 16
q108 74 148 113q39 39 78 88q-35 68 -52 122q-16 51 -28 138q-61 -121 -106 -164l-14 8q45 70 96 206t70 212q72 -27 76 -30q3 -3 4 -8t-10 -10q-10 -4 -22 -16t-30 -56v0v0zM664 544q26 -103 46 -154q18 -49 46 -94q48 78 76 166q26 87 40 174h-168l-40 -92v0v0zM98 896
l54 -34h100l30 36l46 -36q12 -6 12 -14q0 -4 -30 -28v-410l4 -88q0 -12 -14 -24q-13 -13 -38 -16v72h-116v-84q0 -12 -18 -24q-19 -12 -34 -12l4 130v532v0v0zM146 384h116v448h-116v-448v0v0z" />
  </g>

</svg>
