<?xml version="1.0" standalone="no"?>
<!DOCTYPE svg PUBLIC "-//W3C//DTD SVG 1.1//EN" "http://www.w3.org/Graphics/SVG/1.1/DTD/svg11.dtd" >
<svg xmlns="http://www.w3.org/2000/svg" xmlns:xlink="http://www.w3.org/1999/xlink" version="1.1" viewBox="0 -205 1024 1024">
  <g transform="matrix(1 0 0 -1 0 819)">
   <path fill="currentColor"
d="M498 664h160v104h-160v-104v0v0zM710 768v-104h166v104h-166v0v0zM498 796h160v102h-160v-102v0v0zM710 898v-102h166v102h-166v0v0zM864 926l30 34l54 -44q6 -7 6 -10q0 -6 -30 -26v-174l6 -66q0 -13 -18 -22q-15 -7 -36 -10v30h-166v-124h90v106l70 -30q12 -7 4 -16
l-26 -14v-46h58l36 42l54 -50q8 -12 -4 -18h-144v-124h46l28 40l50 -50q8 -11 -10 -16h-252v-100h200l36 46l58 -56q3 0 4 -6q1 -12 -10 -12h-288v-97l4 -52q1 -11 -22 -28q-22 -18 -40 -16l6 104v89h-206q-21 0 -56 -8l-16 36h278v100h-184q-21 0 -48 -8l-26 34h110v124
h-48q-28 -1 -46 -10l-28 36h122v110l70 -22q12 -6 4 -14l-26 -18v-56h100v124h-160v-4q0 -9 -18 -18q-18 -7 -36 -8l4 86v262l50 -30h366v0v0zM558 364h100v124h-100v-124v0v0zM710 488v-124h90v124h-90v0v0zM138 980q92 -51 116 -78q22 -28 20 -52q-3 -22 -14 -32
q-12 -10 -26 -4q-15 3 -20 30q-6 27 -20 52q-14 24 -64 72l8 12v0v0zM38 768h236l32 38l54 -50q9 -7 10 -14q1 -6 -16 -8q-21 -3 -42 -36q-39 -54 -84 -126v-104l26 -8l80 130l60 -38q6 -10 0 -14q-6 -3 -20 -2q-15 1 -102 -82q55 -24 74 -44q18 -21 24 -36q4 -15 -4 -30
q-7 -15 -22 -18t-24 12q-9 14 -18 32q-6 18 -24 36t-50 40v-288l4 -83q1 -12 -18 -30q-20 -18 -40 -18l4 119v362q-54 -80 -152 -160l-12 12q86 101 122 154q35 51 62 94q27 41 78 134h-168q-24 0 -50 -8l-20 34v0v0z" />
  </g>

</svg>
