<?xml version="1.0" standalone="no"?>
<!DOCTYPE svg PUBLIC "-//W3C//DTD SVG 1.1//EN" "http://www.w3.org/Graphics/SVG/1.1/DTD/svg11.dtd" >
<svg xmlns="http://www.w3.org/2000/svg" xmlns:xlink="http://www.w3.org/1999/xlink" version="1.1" viewBox="0 -200 999 1000">
  <g transform="matrix(1 0 0 -1 0 800)">
   <path fill="currentColor"
d="M926 642q-13 -7 -22.5 -18t-17.5 -19q-14 10 -32 38q-2 3 -5 7q-10 -1 -28.5 -1h-41.5v-105h35l33 33l53 -53h-121v-92h42l28 41l44 -40l-22 -37v-181h-180v-45q-2 -9 -16 -12.5t-27 -8.5v314l54 -31h35v92h-61l-42 -9l-17 29h120v105h-37l-34 -6l-11 20q-19 -34 -39 -63
l-17 3q32 66 58 139t42 134q9 35 12.5 61t4.5 40l64 -26l-12 -31q21 -63 39.5 -106.5t36.5 -73.5t37.5 -49.5t42.5 -35.5zM899 202q0 -6 -0.5 -11.5t-0.5 -10.5q0 -36 5.5 -53t12.5 -24.5t14.5 -10t11.5 -9.5l1 -3q0 -7 -9.5 -12.5t-23 -9t-27.5 -5.5t-23 -2h-316
q-51 9 -51 72v389h-114l59 -40l-14 -46q-3 -8 -4 -37t-4.5 -70t-11.5 -88.5t-25 -92.5t-45 -82.5t-71 -57.5l-7 9q44 44 67.5 98t34.5 116.5t13 133.5t2 149l4 8h-34l-34 -8l-15 32h140v205h-66q-11 -37 -22 -75.5t-30 -65.5l-13 5q21 72 31 153.5t12 150.5l55 -37l-18 -46
l-9 -63h60v236l58 -35l-14 -60v-141h37l31 42l52 -64h-120v-205h40l36 42l57 -66h-111l52 -31l-13 -65v-264q2 -26 5 -38.5t20 -18.5h280q15 1 23.5 12t13 27t6 34t2.5 33zM86 286q37 1 54 24q8 7 15.5 26.5t16 53.5t19.5 83.5t26 117.5l81 396l14 2l-112 -694
q-1 -13 -3.5 -32.5t-4.5 -48t-4 -67t-2 -88.5v-34q-8 -11 -17 -15t-17 -4q-15 0 -21.5 8.5t-6.5 18.5q0 12 1.5 29.5t3.5 36t3.5 35t1.5 24.5q0 15 -2 27t-8 24.5t-16 26.5t-26 33zM691 401v-163h134v173h-123zM819 711q-18 40 -34.5 88.5t-27.5 99.5q-10 -25 -24 -61.5
t-31.5 -77t-39.5 -82.5q-2 -5 -4 -9l131 2l29 25l18 -22q-8 17 -17 37zM54 719q20 -9 38.5 -23.5t33 -31t23 -34t8.5 -33.5q0 -33 -12 -48t-22 -15t-14 16t-10 41.5t-17 57t-35 62.5zM96 942q27 -6 47.5 -17t35.5 -24t23 -27.5t9 -27.5v-8q0 -18 -5.5 -31t-15.5 -13t-24 20
q-12 37 -28.5 66t-45.5 51z" />
  </g>

</svg>
