<?xml version="1.0" standalone="no"?>
<!DOCTYPE svg PUBLIC "-//W3C//DTD SVG 1.1//EN" "http://www.w3.org/Graphics/SVG/1.1/DTD/svg11.dtd" >
<svg xmlns="http://www.w3.org/2000/svg" xmlns:xlink="http://www.w3.org/1999/xlink" version="1.1" viewBox="0 -205 1024 1024">
  <g transform="matrix(1 0 0 -1 0 819)">
   <path fill="currentColor"
d="M470 834h220v152l84 -34q12 -9 -6 -18l-28 -12v-88h142l36 38l56 -44q3 -3 4 -6q0 -13 -12 -14h-226v-102h112l32 38l56 -42l4 -8q1 -6 -28 -26v-178l4 -92q0 -10 -18 -22q-18 -10 -36 -10v42h-98q28 -67 56 -112q27 -45 66 -84q39 -37 114 -62v-13q-23 1 -46 -2
q-24 -2 -42 -26q-48 45 -74 85q-25 38 -50 88q-25 51 -46 126h-6v-279l4 -66q0 -9 -20 -24q-21 -15 -38 -12l4 106v233q-55 -93 -124 -168q-66 -72 -150 -129l-10 12q75 65 138 145q62 80 116 182h-90v-14q0 -15 -18 -24q-18 -7 -36 -8l4 102v280l50 -38h120v102h-148
q-21 0 -56 -8l-16 34v0v0zM570 434h120v108h-120v-108v0v0zM740 542v-108h126v108h-126v0v0zM570 568h120v112h-120v-112v0v0zM740 680v-112h126v112h-126v0v0zM298 908v-102h102l30 32l48 -44q3 -4 4 -4q0 -12 -12 -12h-172v-30q110 -31 140 -46q28 -15 38 -36q9 -21 4 -36
t-22 -18q-18 -1 -32 22q-12 23 -48 50q-33 25 -80 44v-52l4 -22q1 -15 -18 -30q-20 -12 -40 -12l4 94v62q-52 -75 -106 -126q-53 -49 -112 -82l-8 12q69 63 108 106q36 41 70 100h-70q-21 0 -68 -6l-16 34h202v98q-114 -12 -180 -18v18q96 12 196 36q99 23 148 40
q46 -51 44 -60q0 -7 -12 -4q-11 0 -28 4q-17 3 -118 -12v0v0zM248 602q60 -18 60 -24q0 -3 -2 -6q0 -4 -12 -4q-10 -1 -28 -20q104 -22 146 -44q42 -19 52 -40q10 -19 2 -34q-9 -14 -26 -12q-15 0 -32 22q-15 21 -54 48q-39 24 -102 46q-48 -43 -90 -82q-43 -36 -134 -90
l-8 14q74 56 122 104q45 47 106 122v0v0zM244 476l70 -26q6 -3 4 -12q-1 -1 -28 -20v-110q39 34 108 92l48 -34q6 -7 6 -10t-12 -6q-21 1 -44 -10q-22 -10 -106 -58v-6q68 -22 98 -34q27 -12 46 -32q16 -18 14 -42q-3 -20 -24 -23q-19 -3 -32 21q-11 26 -40 50
q-27 24 -62 40v-143q0 -37 -18 -56q-18 -17 -44 -26q-10 32 -32 42q-19 8 -74 22l6 18q54 -9 76 -12q20 -1 32 4q10 6 8 44v99q-101 -55 -118 -70q-18 -13 -36 -35l-44 47l198 84v202v0v0zM126 398q44 -24 64 -38q18 -12 24 -30t-2 -32q-6 -13 -24 -16q-18 -2 -20 18
q-3 20 -12 40q-10 18 -40 46l10 12v0v0z" />
  </g>

</svg>
