<?xml version="1.0" standalone="no"?>
<!DOCTYPE svg PUBLIC "-//W3C//DTD SVG 1.1//EN" "http://www.w3.org/Graphics/SVG/1.1/DTD/svg11.dtd" >
<svg xmlns="http://www.w3.org/2000/svg" xmlns:xlink="http://www.w3.org/1999/xlink" version="1.1" viewBox="0 -120 1000 1000">
  <g transform="matrix(1 0 0 -1 0 880)">
   <path fill="currentColor"
d="M208 401q-8 -119 -38 -186q-40 -84 -116 -158l-14 14q62 84 87 160q24 73 24 182v296l65 -37h170l20 37l71 -45q14 -10 14 -16q0 -9 -14 -13l-19 -6v-256l-65 -14v42h-71l1 -3q70 -168 199 -221q63 -26 160 -33q70 -5 191 -5q25 0 75 1v-19q-27 -7 -36 -12
q-12 -9 -20 -35q-203 0 -300 20q-110 25 -168 76q-34 29 -70 88q-27 43 -58 138l-1 5h-87zM208 426h185v219h-185v-208v-7v-4zM239 844h170l41 50l65 -58v-20h-205q22 -14 34 -23q36 -28 36 -63q0 -17 -11 -27q-9 -8 -20 -8q-7 0 -13 5q-5 6 -19 47q-11 34 -46 69h-50
q-65 -92 -141 -153l-12 13q63 71 103 156q37 77 47 120l73 -24q19 -6 19 -15t-19 -13l-20 -4q-16 -28 -32 -52zM611 847h214l39 49l75 -58v-19h-248q79 -35 79 -80q0 -14 -10 -24q-7 -8 -19 -8q-17 0 -28 29q-13 35 -57 83h-62q-57 -88 -104 -128l-14 9q66 106 108 254
l75 -26q18 -6 18 -15q0 -10 -18 -15l-23 -6q-21 -38 -25 -45zM749 650h-188l-12 26h193l27 40l57 -40q16 -11 16 -18q0 -9 -19 -13l-45 -10q6 -62 34 -150q52 -143 134 -214l-7 -9q-53 0 -70 -35q-102 143 -120 423zM449 237q89 153 99 394l80 -25q13 -4 13 -13
q0 -8 -13 -13l-18 -6q-26 -148 -69 -233q-32 -63 -78 -116z" />
  </g>

</svg>
