<?xml version="1.0" standalone="no"?>
<!DOCTYPE svg PUBLIC "-//W3C//DTD SVG 1.1//EN" "http://www.w3.org/Graphics/SVG/1.1/DTD/svg11.dtd" >
<svg xmlns="http://www.w3.org/2000/svg" xmlns:xlink="http://www.w3.org/1999/xlink" version="1.1" viewBox="0 -205 1024 1024">
  <g transform="matrix(1 0 0 -1 0 819)">
   <path fill="currentColor"
d="M600 864l52 -38q12 -6 12 -12q-1 -4 -34 -26v-212l4 -94q3 -21 -12 -36q-14 -12 -40 -14v44h-134v-252l132 84q-15 26 -50 76l12 10q83 -70 106 -112q21 -40 18 -62t-12 -32q-10 -11 -26 -6q-15 3 -20 36q-3 33 -18 66q-76 -51 -116 -84t-64 -67l-50 47q32 26 38 44v640
l54 -36h122l26 36v0v0zM448 802v-130h134v130h-134v0v0zM448 646v-144h134v144h-134v0v0zM908 916l60 -52q4 -6 2 -12q0 -3 -18 -8q-16 -4 -28 -28q-32 -79 -88 -226q55 -45 92 -92q35 -49 44 -100q8 -51 -4 -84q-10 -33 -32 -56q-22 -24 -64 -38q-14 29 -28 40t-70 26l4 18
q38 -6 68 -8q29 -4 44 2q14 5 26 32t4 76q-9 48 -32 88q-24 38 -80 92l76 262h-120v-682l4 -99q0 -16 -20 -26q-18 -12 -38 -16l4 139v752l44 -42h116l34 42v0v0zM440 976l8 10q71 -37 94 -64q24 -27 18 -48q-4 -18 -14 -26q-10 -10 -26 -4q-15 2 -18 26q-4 21 -14 42
q-9 21 -48 64v0v0zM114 878l60 -40h80l34 44l58 -48q6 -5 6 -10t-32 -28v-358l4 -100q1 -12 -16 -26q-16 -14 -38 -16v86h-106v-124q1 -16 -16 -28q-16 -13 -38 -10l4 140v518v0v0zM164 408h106v404h-106v-404v0v0z" />
  </g>

</svg>
