<?xml version="1.0" standalone="no"?>
<!DOCTYPE svg PUBLIC "-//W3C//DTD SVG 1.1//EN" "http://www.w3.org/Graphics/SVG/1.1/DTD/svg11.dtd" >
<svg xmlns="http://www.w3.org/2000/svg" xmlns:xlink="http://www.w3.org/1999/xlink" version="1.1" viewBox="0 -36 256 256">
  <g transform="matrix(1 0 0 -1 0 220)">
   <path fill="currentColor"
d="M97 169q0 35 -1 53l14 -7h5q6 22 6 30l16 -8q-6 -5 -15 -22h21l7 8l14 -12l-8 -5q0 -68 1 -86l-14 -5v12h-33v-9l-14 -6q1 22 1 57zM110 174h33v34h-33v-34zM110 134h33v33h-33v-33zM78 134q-5 14 -8 19l2 2q16 -13 20 -23t-2 -16t-8 -2t-3 15q-44 -10 -50 -15l-8 16
q7 0 20.5 17.5t19.5 29.5q-24 -6 -35 -11l-8 15q10 1 21 23.5t14 37.5l20 -12l-6 -3l-31 -45l27 1q7 10 12 27l18 -13q-8 -5 -25 -29t-30 -37zM183 31h37q7 1 8.5 11t2.5 30h6q0 -19 2 -28t9 -12q-8 -13 -25 -13h-45q-20 0 -20 20v53h-69q-1 -26 -8 -41.5t-25 -25.5t-44 -16
l-1 4q39 17 47.5 27.5t12 24t2.5 41.5l18 -7h67l7 10l15 -11l-7 -8v-50q0 -9 10 -9zM155 111q19 19 33 44q-12 29 -14 64l-5 -3l-7 10h47l7 9l15 -11l-7 -6q-9 -32 -23 -62q16 -24 42 -35v-3q-12 0 -19 -8q-17 16 -29 34q-13 -19 -38 -36zM180 219q4 -33 14 -50q9 21 15 50
h-29z" />
  </g>

</svg>
