<?xml version="1.0" standalone="no"?>
<!DOCTYPE svg PUBLIC "-//W3C//DTD SVG 1.1//EN" "http://www.w3.org/Graphics/SVG/1.1/DTD/svg11.dtd" >
<svg xmlns="http://www.w3.org/2000/svg" xmlns:xlink="http://www.w3.org/1999/xlink" version="1.1" viewBox="0 -205 1024 1024">
  <g transform="matrix(1 0 0 -1 0 819)">
   <path fill="currentColor"
d="M882 796l38 52l66 -58q3 -3 4 -8q1 -12 -16 -12h-472q-12 0 -60 -8l-16 34h456v0v0zM584 620q-21 -30 -60 -78q-40 -49 -106 -116l-12 10q63 88 102 152q38 63 68 132q76 -36 74 -44q-1 -10 -10 -10q-7 0 -20 -8q-12 -7 -36 -38v0v0zM772 706q101 -55 140 -88
q36 -33 48 -60q9 -24 4 -48q-6 -23 -24 -28q-18 -4 -30 22q-10 23 -34 68q-23 42 -112 120l8 14v0v0zM618 964l10 12q65 -37 92 -62q24 -24 28 -48q3 -21 -8 -38q-10 -19 -28 -16q-18 0 -24 30q-7 29 -20 56q-12 27 -50 66v0v0zM880 488q4 -6 2 -8q0 -5 -8 -10
q-22 -5 -34 -22q-9 -17 -42 -76q-34 -59 -82 -118q30 -33 82 -66q51 -33 94 -49q40 -16 116 -32v-18q-39 2 -60 -6q-22 -7 -40 -32q-55 36 -106 72q-48 32 -114 103q-60 -66 -150 -117q-88 -51 -184 -84l-8 14q74 34 166 94q90 58 150 125q-39 60 -66 120q-24 60 -42 136
l18 4q32 -81 58 -132q26 -52 58 -94q36 44 66 104q29 59 56 134l70 -42v0v0zM206 978l78 -30q8 -6 8 -8q1 -3 -4 -8l-34 -16v-652l84 18v498l76 -34q10 -6 2 -12q0 -3 -30 -18v-408l4 -92q1 -15 -16 -26q-18 -9 -36 -8v78q-174 -45 -200 -62q-27 -18 -50 -38l-46 62
q16 11 32 28v532l70 -32q12 -6 12 -12q-1 -3 -34 -20v-480l84 16v724v0v0z" />
  </g>

</svg>
