<?xml version="1.0" standalone="no"?>
<!DOCTYPE svg PUBLIC "-//W3C//DTD SVG 1.1//EN" "http://www.w3.org/Graphics/SVG/1.1/DTD/svg11.dtd" >
<svg xmlns="http://www.w3.org/2000/svg" xmlns:xlink="http://www.w3.org/1999/xlink" version="1.1" viewBox="0 -200 1000 1000">
  <g transform="matrix(1 0 0 -1 0 800)">
   <path fill="currentColor"
d="M190 720l-37 -9l-33 33h131q0 78 -3 157l70 -26l-24 -23v-108h44l33 37l61 -61h-138v-141h77l34 37l61 -60h-266q-45 0 -74 -10l-33 33h158v141h-61zM469 143q3 87 3 168v406q0 94 -3 145l54 -28h302l34 34l50 -50l-30 -17v-564q0 -42 -16 -65q-17 -24 -55 -32
q-3 46 -94 67v13q30 -5 52 -6q28 -2 35 -2q16 0 26 8q8 8 8 31v564h-319v-525q0 -76 3 -124zM542 693h182l40 37l54 -56h-165q-39 0 -80 -11zM764 540q0 -88 1 -119l3 -70l-44 -24v44h-94v-46l-44 -24l3 56q1 23 1 86q0 65 -1 91l-3 66l44 -27h81l30 30l50 -47zM93 126
q73 51 114 122t44 145q1 13 1 38v39v41q0 27 -1 41l71 -33l-21 -23l-7 -98q71 47 104 98l44 -61q-26 0 -148 -57q-3 -13 -9 -57l63 -34q26 -16 38 -27q14 -12 20 -23q5 -12 5 -24q0 -18 -6 -33q-6 -16 -12 -16q-4 0 -10 8q-4 4 -14 20l-15 23q-1 2 -11 18l-23 29l-39 39
q-57 -141 -185 -189zM630 552v-160h94v160h-94zM167 466h14q0 -56 -3 -88q-3 -31 -9 -48q-8 -17 -17 -21t-23 -4q-25 0 -25 13q0 9 14 26q28 34 49 122z" />
  </g>

</svg>
