<?xml version="1.0" standalone="no"?>
<!DOCTYPE svg PUBLIC "-//W3C//DTD SVG 1.1//EN" "http://www.w3.org/Graphics/SVG/1.1/DTD/svg11.dtd" >
<svg xmlns="http://www.w3.org/2000/svg" xmlns:xlink="http://www.w3.org/1999/xlink" version="1.1" viewBox="0 -205 1024 1024">
  <g transform="matrix(1 0 0 -1 0 819)">
   <path fill="currentColor"
d="M506 558v-354l58 32q-12 36 -32 72l10 8q56 -57 68 -78q10 -21 8 -38q-3 -15 -14 -24q-10 -10 -22 -4q-9 5 -12 20v26q-45 -34 -60 -50q-16 -15 -34 -41l-44 41q17 11 32 28v352l-44 -10v-82q0 -140 -12 -196q-10 -55 -44 -111q-34 -57 -86 -108l-10 12q45 61 72 119
q24 59 30 128t6 156v130l46 -24q117 43 156 68q45 -39 42 -48q0 -9 -18 -8q-16 1 -34 0q-16 -2 -62 -16v0v0zM532 504l12 8q51 -67 66 -98q14 -30 20 -54q3 -24 -8 -42q-11 -19 -28 -16q-19 3 -16 30q1 28 -10 68q-9 40 -36 104v0v0zM834 610q11 -132 28 -212
q18 -78 36 -134q19 -54 44 -92q24 -34 66 -59v-14q-33 2 -50 0q-15 -2 -30 -14q-46 81 -68 153q-20 72 -34 156q-12 84 -18 210l-32 -6v-448l46 40q-10 33 -32 78l10 6q54 -61 70 -100q15 -36 12 -57q-2 -17 -16 -26q-13 -8 -22 -2q-10 6 -8 24q0 16 -8 57q-39 -42 -48 -57
q-9 -12 -24 -42l-52 36q18 13 30 32v447l-38 -8v-74q1 -136 -4 -208q-7 -70 -40 -142q-33 -68 -98 -127l-12 10q48 64 76 129q26 66 32 148q3 80 0 188v132l50 -34q110 39 152 64q53 -30 50 -38q-1 -6 -14 -6q-10 0 -26 -2q-14 -3 -28 -8v0v0zM592 756v-10q-3 -6 -24 -6
q-19 -1 -74 -34t-158 -80l-8 14q84 53 126 88q41 33 80 70l58 -42v0v0zM688 796q86 -19 130 -34q42 -15 60 -32q16 -15 14 -36q-3 -19 -20 -22q-16 -4 -28 8q-13 12 -26 28q-12 12 -44 30q-30 17 -90 44l4 14v0v0zM886 860l32 32l46 -38q12 -12 12 -18q0 -4 -12 -8
q-22 -3 -46 -24q-20 -23 -46 -52l-14 8l30 76h-488q-7 -63 -28 -90q-21 -25 -42 -28q-19 -3 -28 10q-7 12 -2 24t26 24q17 13 32 38q14 24 22 82h18v-36h488v0v0zM554 972l6 10q45 -15 72 -30q25 -16 32 -34q5 -18 -4 -30q-9 -13 -26 -14q-19 0 -22 12l-6 24q-3 11 -14 26
q-10 15 -38 36v0v0zM338 910q6 -4 6 -10q3 -4 -14 -8q-15 0 -36 -18q-34 -49 -74 -100q47 -96 62 -186q11 -87 14 -150q1 -63 -4 -140q-6 -75 -20 -122q-15 -45 -42 -75q-25 -26 -76 -44q-4 33 -34 48q-28 12 -80 26l4 19q87 -22 130 -13q42 9 54 53q12 45 16 102
q2 53 2 134q0 80 -6 128q-66 -141 -204 -266l-12 12q111 116 204 328q-12 51 -36 108q-57 -81 -150 -158l-10 14q74 87 140 186q-39 69 -120 144l10 14q96 -75 130 -126q42 57 82 144l64 -44v0v0z" />
  </g>

</svg>
