<?xml version="1.0" standalone="no"?>
<!DOCTYPE svg PUBLIC "-//W3C//DTD SVG 1.1//EN" "http://www.w3.org/Graphics/SVG/1.1/DTD/svg11.dtd" >
<svg xmlns="http://www.w3.org/2000/svg" xmlns:xlink="http://www.w3.org/1999/xlink" version="1.1" viewBox="0 -205 1024 1024">
  <g transform="matrix(1 0 0 -1 0 819)">
   <path fill="currentColor"
d="M670 626l-152 -36v-192l302 46l32 66l88 -56q6 -3 6 -8q0 -9 -20 -12l-408 -64v-231q0 -33 12 -40q12 -8 24 -8q12 -1 282 -2q33 4 42 22q9 19 12 39q3 21 10 138h20q4 -73 8 -110q3 -38 36 -53q-18 -42 -38 -60q-21 -17 -68 -20h-324q-39 3 -54 26q-13 22 -14 52v241
l-356 -58q-22 -6 -40 -18l-28 36l424 68v188q-196 -31 -298 -40l-2 18q360 62 546 146l56 -58q5 -9 -4 -14q-9 -1 -24 2q-14 3 -70 -8v0v0zM436 964l8 14q57 -24 90 -44q33 -21 42 -44q9 -22 0 -40q-9 -19 -30 -16q-22 0 -28 28q-7 27 -22 48t-60 54v0v0zM198 866h22v-50
h646l32 36q65 -55 68 -62q3 -6 -2 -8q-4 -3 -22 -8q-19 -6 -46 -26q-24 -22 -66 -70l-16 10l56 102h-652q-4 -60 -22 -90t-44 -42q-25 -9 -40 6q-13 14 -2 32q10 16 32 32q22 15 38 46q15 29 18 92v0v0z" />
  </g>

</svg>
