<?xml version="1.0" standalone="no"?>
<!DOCTYPE svg PUBLIC "-//W3C//DTD SVG 1.1//EN" "http://www.w3.org/Graphics/SVG/1.1/DTD/svg11.dtd" >
<svg xmlns="http://www.w3.org/2000/svg" xmlns:xlink="http://www.w3.org/1999/xlink" version="1.1" viewBox="0 -200 999 1000">
  <g transform="matrix(1 0 0 -1 0 800)">
   <path fill="currentColor"
d="M401 12q70 39 130 82t108.5 98t83.5 125.5t55 165.5h-213q-10 -21 -23 -39t-25 -36q70 -36 100.5 -63.5t35.5 -39.5q4 -7 4 -19q0 -17 -9 -31t-22 -14q-8 0 -16 7.5t-16 25.5q-8 20 -26 53t-62 71q-20 -25 -54 -56.5t-88 -60.5l-12 10q45 38 80.5 77t67.5 96
q25 57 41.5 103.5t20.5 94.5h-118l-73 -14l-26 35h460l46 43l66 -64h-292q-9 -54 -23.5 -90.5t-25.5 -65.5h197l41 44l64 -49l-43 -35q-13 -51 -32.5 -97t-45.5 -94q-31 -50 -66.5 -90.5t-78 -74t-92.5 -61t-110 -51.5zM549 913l-16 89l92 -34l-19 -65v-40h219l52 49l77 -73
h-724l75 -36l-17 -72q2 -20 2 -38v-35v-44v-103q0 -133 -12 -219t-37 -142.5t-63.5 -90.5t-92.5 -63l-8 12q36 35 64 68t47.5 78t31.5 109t16 161l-148 -158l-45 66q12 5 32.5 16t46 25.5t53.5 32t57 36.5l1 -15v412h-19l-69 -18l-19 42h423v50zM176 504q-8 -8 -15 -14
t-14 -6q-12 0 -18 12t-14.5 35t-23.5 55.5t-45 73.5l5 8q57 -34 92.5 -64.5t38.5 -65.5l1 -5v-5q0 -14 -7 -24z" />
  </g>

</svg>
