<?xml version="1.0" standalone="no"?>
<!DOCTYPE svg PUBLIC "-//W3C//DTD SVG 1.1//EN" "http://www.w3.org/Graphics/SVG/1.1/DTD/svg11.dtd" >
<svg xmlns="http://www.w3.org/2000/svg" xmlns:xlink="http://www.w3.org/1999/xlink" version="1.1" viewBox="0 -205 1024 1024">
  <g transform="matrix(1 0 0 -1 0 819)">
   <path fill="currentColor"
d="M914 880q-147 -45 -216 -66v-178h176l36 42l56 -48q6 -7 4 -14q0 -3 -32 -18q-25 -113 -50 -190q-24 -75 -56 -138q28 -48 56 -84q26 -34 50 -53q24 -18 66 -34v-18q-35 4 -52 -2q-15 -3 -38 -18q-41 49 -64 87l-42 78q-36 -65 -96 -121q-57 -56 -114 -86l-6 14
q56 46 104 100q45 52 90 137l-22 68q-34 134 -46 272h-20q-4 -84 -10 -188q-6 -102 -44 -210q-37 -107 -130 -193l-8 12q68 86 104 193q34 105 38 316v326l56 -28q78 30 204 108l52 -52q2 -7 2 -8q-1 -6 -10 -6h-38v0v0zM746 610q20 -162 62 -296q22 50 44 128q21 78 36 168
h-142v0v0zM386 908l68 -32q15 -6 16 -12q0 -3 -36 -24v-152h70v286l74 -30q7 -4 8 -8q0 -7 -6 -8l-30 -16v-224h12l24 36l46 -46q1 -3 2 -8q0 -7 -6 -8h-194v-142v-44h62l28 36l56 -38q6 -4 6 -8q0 -3 -32 -30v-158l4 -100q1 -13 -16 -22q-16 -8 -38 -10l4 134v170h-74
q-6 -158 -36 -256q-31 -95 -118 -183l-10 10q79 105 98 219q19 113 18 280v388v0v0zM48 782l50 -36h62v222l76 -30q7 -3 8 -6q4 -3 -4 -8l-30 -24v-154h56l24 34l52 -38q6 -3 6 -12q-1 -3 -22 -18v-200l4 -82q-4 -15 -16 -24q-9 -7 -36 -10v50h-68v-226l64 22q-18 33 -42 66
l12 12q44 -34 68 -58q20 -24 26 -44q5 -21 -4 -38q-9 -18 -24 -20t-20 6q-4 6 -4 22q-1 15 -4 36q-156 -69 -174 -84q-18 -10 -36 -35l-48 55l136 46v240h-64v-44q0 -16 -18 -28q-17 -12 -34 -12l4 122v298v0v0zM96 472h64v248h-64v-248v0v0zM210 720v-248h68v248h-68v0v0z
" />
  </g>

</svg>
