<?xml version="1.0" standalone="no"?>
<!DOCTYPE svg PUBLIC "-//W3C//DTD SVG 1.1//EN" "http://www.w3.org/Graphics/SVG/1.1/DTD/svg11.dtd" >
<svg xmlns="http://www.w3.org/2000/svg" xmlns:xlink="http://www.w3.org/1999/xlink" version="1.1" viewBox="0 -205 1024 1024">
  <g transform="matrix(1 0 0 -1 0 819)">
   <path fill="currentColor"
d="M326 818h184q18 93 28 166q83 -34 86 -40q2 -7 -4 -10q-7 -1 -22 -8q-13 -7 -20 -34q-7 -25 -16 -74h292l44 56l68 -62q3 -4 4 -10q1 -10 -16 -10h-398q-27 -117 -60 -216q-33 -96 -74 -180q-39 -81 -122 -170l-14 10q62 88 100 176q39 87 66 180q27 89 52 200h-94
q-19 0 -68 -8l-16 34v0v0zM736 712q6 0 6 -6q1 -7 -10 -10q-7 -6 -26 -20q2 -81 14 -140q9 -57 24 -140q62 86 128 214q63 -43 66 -50q3 -6 -2 -8q-6 -1 -18 -4q-13 -3 -62 -60q-49 -55 -104 -122q24 -60 52 -108q26 -48 70 -96q44 -45 112 -63v-18q-29 1 -52 -2
q-21 0 -44 -24q-60 57 -102 133q-40 76 -58 140q-19 62 -34 200q-12 -150 -42 -228q-30 -79 -102 -154q-71 -72 -202 -137l-6 14q143 99 200 173q56 74 74 146q17 72 26 144q5 69 14 262l78 -36v0v0zM540 500q8 35 14 82h18q3 -102 -2 -140q-6 -37 -24 -58q-19 -21 -40 -18
t-24 18q-1 14 10 28q10 14 26 34q14 21 22 54v0v0zM196 988l78 -32q6 -3 6 -6q3 -6 -2 -12l-34 -14v-148q64 -27 92 -54q27 -25 36 -46q6 -19 0 -38q-7 -18 -26 -18q-18 -2 -24 18t-18 52q-12 30 -60 64v-608l4 -81q0 -15 -18 -28q-18 -12 -38 -16l4 135v832v0v0zM114 732
h18q4 -91 2 -134q-4 -43 -22 -68t-38 -26q-22 0 -28 16q-8 14 6 28q12 15 22 30t20 46q10 27 20 108v0v0z" />
  </g>

</svg>
