<?xml version="1.0" standalone="no"?>
<!DOCTYPE svg PUBLIC "-//W3C//DTD SVG 1.1//EN" "http://www.w3.org/Graphics/SVG/1.1/DTD/svg11.dtd" >
<svg xmlns="http://www.w3.org/2000/svg" xmlns:xlink="http://www.w3.org/1999/xlink" version="1.1" viewBox="0 -205 1024 1024">
  <g transform="matrix(1 0 0 -1 0 819)">
   <path fill="currentColor"
d="M358 802l56 -40h430l28 36l56 -40q6 -6 6 -8q1 -6 -28 -26v-82l4 -62q0 -13 -18 -22q-15 -9 -38 -12v32h-446v-4q-1 -15 -16 -24q-16 -6 -38 -8l4 104v156v0v0zM408 604h118v130h-118v-130v0v0zM572 604h122v130h-122v-130v0v0zM738 604h116v130h-116v-130v0v0zM918 476
l54 -46q3 -3 4 -8q1 -6 -6 -6h-306q12 -65 24 -100q12 -33 36 -80q47 42 128 156q48 -34 54 -40q6 -5 4 -10q-3 -4 -18 -4q-12 0 -50 -42q-36 -42 -96 -96q30 -42 72 -69q42 -29 72 -40q27 -12 36 -6q6 4 12 40q6 32 12 95h16v-87q-1 -26 4 -50q5 -20 16 -32q12 -9 12 -16
q0 -4 -6 -8q-6 -3 -30 -4q-22 1 -56 10q-33 10 -90 40q-56 33 -106 99q-100 -78 -280 -137l-6 16q155 67 262 153q-28 54 -44 100q-14 44 -28 112h-210v-84q77 -27 106 -50q27 -24 30 -44q3 -18 -6 -30q-9 -13 -24 -10q-15 2 -26 28q-13 23 -28 44t-54 42q0 -54 -20 -122
q-20 -67 -58 -109q-36 -39 -84 -64l-6 12q37 33 62 68q25 34 44 103q17 70 14 152v124l52 -36h204l-8 126l80 -24q12 -7 0 -16l-28 -8l6 -78h226l32 36v0v0zM726 548l4 10q63 -18 84 -32q20 -13 26 -28q6 -16 -2 -28q-9 -13 -24 -10t-24 18q-7 15 -16 30q-9 12 -48 40v0v0z
M298 884h200v108l80 -28q9 -7 0 -14l-30 -12v-54h158v98l72 -22q8 -3 10 -8q1 -5 -4 -10l-28 -10v-48h134l34 42l56 -52q5 -10 -4 -14h-220v-52q0 -13 -18 -22q-15 -6 -32 -6v80h-158v-54q0 -12 -18 -20q-15 -9 -32 -6v80h-128q-19 0 -56 -8l-16 32v0v0zM330 944
q12 -8 -2 -16q-27 -2 -42 -34q-51 -96 -108 -198l50 -24q12 -6 -2 -18l-18 -8v-490l4 -93q1 -17 -22 -32q-21 -13 -36 -12l4 131v506q-75 -126 -134 -182l-12 8q56 81 140 252q83 171 104 250l74 -40v0v0z" />
  </g>

</svg>
