<?xml version="1.0" standalone="no"?>
<!DOCTYPE svg PUBLIC "-//W3C//DTD SVG 1.1//EN" "http://www.w3.org/Graphics/SVG/1.1/DTD/svg11.dtd" >
<svg xmlns="http://www.w3.org/2000/svg" xmlns:xlink="http://www.w3.org/1999/xlink" version="1.1" viewBox="0 -154 1024 1024">
  <g transform="matrix(1 0 0 -1 0 870)">
   <path fill="currentColor"
d="M489 246l6 -14l-62 -19v-127q9 -33 -10 -58q-14 -8 -39 -13q2 17 4 73q1 55 2 113l-91 -27q-94 -25 -175 -50q-20 -12 -26 -30l-46 55l96 21v372h-26q-27 0 -45 -13l-34 33h374l28 34l64 -45q14 -9 -6 -9h-70v-308zM851 539q8 -9 -9 -14l-19 -13v-386q1 -36 38 -38
q37 -4 61 4q16 12 19 49l11 109h11l3 -90q2 -48 26 -56q-16 -33 -42 -45q-40 -15 -117 -6q-54 5 -52 71v405h-160q2 -262 -36 -362t-134 -157l-13 14q82 62 111 161q29 100 27 329q-5 27 -26 58l10 9l40 -32h167l27 31zM981 821q4 -11 -10 -7q-29 -1 -53 -28
q-17 -17 -58 -54l-13 10l50 82h-367v-116q15 -74 -54 -76q5 36 7 110v82h-357q0 -11 -1 -24q-7 -83 -49 -101q-19 -11 -30 6q-10 16 9 35q20 17 33 44q14 25 22 93h17v-33h356v82h-247q-27 0 -45 -14l-34 34h603l32 41l68 -51q17 -10 -6 -10h-324v-82h355l37 42zM391 424
h-201v-107h201v107zM190 542v-101h201v101h-201zM391 300h-201v-120l201 44v76zM192 657h206v-16h-206v16zM192 752h206v-16h-206v16zM613 752h206v-16h-206v16zM613 657h206v-16h-206v16z" />
  </g>

</svg>
