<?xml version="1.0" standalone="no"?>
<!DOCTYPE svg PUBLIC "-//W3C//DTD SVG 1.1//EN" "http://www.w3.org/Graphics/SVG/1.1/DTD/svg11.dtd" >
<svg xmlns="http://www.w3.org/2000/svg" xmlns:xlink="http://www.w3.org/1999/xlink" version="1.1" viewBox="0 -36 256 256">
  <g transform="matrix(1 0 0 -1 0 220)">
   <path fill="currentColor"
d="M70 180h19l8 9l14 -13l-8 -6q0 -65 1 -77l-13 -6v7h-55v-7l-13 -6q1 21 1 90q-5 -8 -13 -16l-2 3q18 31 27.5 54t11.5 35l19 -11q-6 -1 -16 -20h28l7 10l15 -14q-9 0 -31 -32zM32 184l7 -4h24l16 29h-31q-8 -13 -16 -25zM36 140h22v33h-22v-33zM70 140h21v33h-21v-33z
M36 101h22v32h-22v-32zM70 101h21v32h-21v-32zM31 41.5q-1 -8.5 -5 -12t-11.5 -3.5t1 12.5t12.5 33.5h4q0 -22 -1 -30.5zM47 75q15 -18 15.5 -28t-5.5 -15.5t-6.5 9t-6.5 33.5zM66 79q23 -17 23.5 -26.5t-5 -14t-7.5 6t-13 32.5zM88 85q19 -12 24 -19t0 -16.5t-8.5 2
t-18.5 31.5zM168 246l21 -10l-7 -6v-42h10q17 33 20 48l19 -14l-8 -3q-7 -7 -25 -31h29l7 9l14 -15q-6 -2 -11.5 -7.5t-13.5 -15.5l-3 1l8 21h-101q1 -4 0 -11.5t-6 -11t-10.5 -1t1 10.5t10.5 30h4l1 -10h42q0 39 -1 58zM156.5 214.5q2.5 -5.5 1.5 -11t-5 -9.5t-8 8t-18 29
l2 3q25 -14 27.5 -19.5zM215 120l-14 -5v7h-51v-5l-13 -4q1 17 1 28t-1 26l13 -9h50l6 8l15 -12l-7 -5q0 -15 1 -29zM150 129h51v22h-51v-22zM121 60.5q0 29.5 -1 49.5l14 -9h84l9 11l15 -14l-8 -6v-55l1 -21l-15 -6v14h-86v-11l-14 -6q1 24 1 53.5zM134 66h35v28h-35v-28z
M182 66h38v28h-38v-28zM134 31h35v28h-35v-28zM182 31h38v28h-38v-28z" />
  </g>

</svg>
