<?xml version="1.0" standalone="no"?>
<!DOCTYPE svg PUBLIC "-//W3C//DTD SVG 1.1//EN" "http://www.w3.org/Graphics/SVG/1.1/DTD/svg11.dtd" >
<svg xmlns="http://www.w3.org/2000/svg" xmlns:xlink="http://www.w3.org/1999/xlink" version="1.1" viewBox="0 -36 256 256">
  <g transform="matrix(1 0 0 -1 0 220)">
   <path fill="currentColor"
d="M104 76l1 -5q-73 -36 -83 -47l-12 18q13 3 38 13v94h-8q-10 0 -19 -3l-10 10h37v48q0 15 -1 35l24 -11l-9 -7v-65h11l11 11l16 -18h-38v-90zM135 200h76l13 12l18 -19h-110q-11 -18 -35 -40l-3 3q19 21 29.5 46t14.5 44l21 -11l-8 -5q-7 -14 -16 -30zM175 56l-13 -7v76
l-31 -8v-75q0 -14 16 -14h68q8 0 10 11.5t2 31.5h4q1 -19 3 -28.5t11 -13.5q-5 -8 -11 -10.5t-19 -2.5h-74q-24 0 -24 25v71l-10 -3l-6 -4l-10 10l26 6q0 35 -1 46l21 -11l-6 -7v-25l31 9q0 42 -1 53l21 -10l-7 -7v-32l33 8l7 11l15 -11l-6 -7q0 -36 -1 -48t-5 -17.5
t-14 -9.5q-3 11 -23 18v3q16 -2 21.5 -1.5t6.5 6.5t1 49l-35 -9v-73z" />
  </g>

</svg>
