<?xml version="1.0" standalone="no"?>
<!DOCTYPE svg PUBLIC "-//W3C//DTD SVG 1.1//EN" "http://www.w3.org/Graphics/SVG/1.1/DTD/svg11.dtd" >
<svg xmlns="http://www.w3.org/2000/svg" xmlns:xlink="http://www.w3.org/1999/xlink" version="1.1" viewBox="0 -144 1024 1024">
  <g transform="matrix(1 0 0 -1 0 880)">
   <path fill="currentColor"
d="M59 72l-7 25l59 14l60 16l13 4v334h-120v21h120v157h-53v21l-35 -57l-26 -37l-29 -36l-8 6l74 164l31 86l15 43l24 89l10 41h-1l4 14l60 -25l13 -14l-19 -6l-8 -26l-4 -11l29 -14l18 -10l32 -23l27 -27l12 -14l11 -15l10 -16v-25l-18 -17h-24l-18 17l-4 13l-5 14l-13 28
l-9 14l-21 28l-25 30l-6 5l-25 -68l-38 -87l-21 -41l-13 -22h115l44 48l54 -48v-22h-95v-157h19l44 49l54 -49v-21h-117v-315l75 22l33 8l3 -9l-56 -35l-29 -15l-58 -28l-58 -25l-59 -23l-9 -3l-6 -20l-15 13l-1 3v1l-2 6l-8 25v2zM397 436l65 -32h148l29 26l57 -48l-27 -19
v-293l-59 -29v40h-148v-16l-65 -32v403zM52 97l18 -62l-28 58zM876 957l64 -10l17 -11l-17 -10v-802l-1 -13l-2 -14l-4 -13l-7 -12l-9 -11l-10 -9l-13 -7l-13 -4l-13 -2l-14 -1v32l-107 16v16h107l7 1l5 1l5 2l2 2l1 5l1 5l1 6v833zM610 382h-148v-280h148v280zM105 240
l-3 34l-3 17l-4 16l-5 17l-11 34l-9 16l8 6l26 -28l13 -14l21 -33l8 -18l8 -18l6 -19l5 -20l4 -19l-8 -24l-22 -11l-23 8l-11 22v34zM299 399l59 -27l13 -14l-22 -6l-22 -46l-18 -34l-21 -32l-22 -33l-9 4l6 18l3 20l9 37l4 18l4 18l4 17l8 47zM733 882l60 -11l14 -11
l-14 -9v-551l-60 -29v611zM632 926l5 -11l43 -39l1 -17l-21 8l-96 -33v-205h16l54 54l65 -54v-21h-135v-204h-64v204h-135v21h135v184l-60 -18l-31 -7l-31 -7l-4 9l55 32l198 101h1z" />
  </g>

</svg>
