<?xml version="1.0" standalone="no"?>
<!DOCTYPE svg PUBLIC "-//W3C//DTD SVG 1.1//EN" "http://www.w3.org/Graphics/SVG/1.1/DTD/svg11.dtd" >
<svg xmlns="http://www.w3.org/2000/svg" xmlns:xlink="http://www.w3.org/1999/xlink" version="1.1" viewBox="0 -205 1024 1024">
  <g transform="matrix(1 0 0 -1 0 819)">
   <path fill="currentColor"
d="M60 770h232l28 32l50 -40q12 -9 12 -14q1 -6 -16 -12q-24 -12 -42 -48q-34 -65 -76 -130v-118q51 57 100 126l42 -36q10 -9 6 -14q0 -4 -18 -4q-20 -3 -94 -72q39 -15 66 -36q28 -21 32 -42q2 -22 -4 -34q-7 -12 -20 -12q-12 -1 -18 20q-5 17 -22 44q-15 24 -48 48
l-22 -18v-240l4 -97q0 -14 -18 -28q-19 -15 -34 -12l4 129v328q-84 -108 -156 -176l-12 12q92 116 152 212q57 96 108 208h-164q-25 1 -52 -4l-20 28v0v0zM852 944l56 -46q6 -3 6 -6q0 -6 -32 -24v-208l4 -94q0 -12 -18 -24q-16 -12 -32 -12v34h-182v-280l104 74l10 -14
q-112 -90 -136 -144l-50 40q26 23 26 44v668l58 -46h160l26 38v0v0zM654 588h182v130h-182v-130v0v0zM654 742h182v140h-182v-140v0v0zM944 502q10 -9 8 -14q-3 -7 -14 -4q-15 0 -32 -8q-51 -30 -98 -60q32 -22 68 -52q34 -31 44 -58q10 -25 2 -46q-6 -20 -24 -18
q-17 0 -28 28q-9 27 -48 78q-39 47 -140 128l8 8q44 -18 100 -54q61 50 116 110l38 -38v0v0zM400 920q76 -51 98 -86q21 -33 16 -56q-6 -24 -18 -30t-24 -2q-12 2 -14 28q-1 27 -16 54q-13 30 -52 84l10 8v0v0zM348 602h98l32 32l44 -36q12 -6 12 -14q0 -3 -32 -24v-320
q6 -33 42 -66q36 -32 82 -37q44 -7 146 -6q65 -3 218 9v-17q-31 -5 -52 -16q-21 -12 -26 -30q-248 0 -298 18q-48 16 -80 51q-30 34 -42 50q-10 14 -22 14q-13 0 -32 -18q-18 -18 -78 -93l-48 41q89 64 146 98v340h-36q-27 0 -50 -8l-24 32v0v0zM164 970q80 -42 104 -74
q22 -33 14 -56q-6 -24 -18 -30q-9 -6 -20 -2q-12 2 -14 28q-3 26 -20 56q-15 29 -54 68l8 10v0v0z" />
  </g>

</svg>
