<?xml version="1.0" standalone="no"?>
<!DOCTYPE svg PUBLIC "-//W3C//DTD SVG 1.1//EN" "http://www.w3.org/Graphics/SVG/1.1/DTD/svg11.dtd" >
<svg xmlns="http://www.w3.org/2000/svg" xmlns:xlink="http://www.w3.org/1999/xlink" version="1.1" viewBox="0 -205 1024 1024">
  <g transform="matrix(1 0 0 -1 0 819)">
   <path fill="currentColor"
d="M452 696l60 -44h150v324q81 -28 84 -34t0 -8q-4 -4 -32 -16v-266h132l28 38l52 -42q8 -3 8 -12q1 -7 -28 -28v-495q1 -32 -16 -56q-16 -21 -64 -34q-6 29 -36 46q-30 16 -86 34l6 16q59 -15 88 -18q27 -3 42 2q15 3 16 30v165h-352v-128l4 -93q0 -12 -20 -28
q-17 -14 -40 -16l4 143v520v0v0zM504 324h352v136h-352v-136v0v0zM504 486h352v140h-352v-140v0v0zM438 886l8 10q71 -34 106 -64q35 -31 40 -56q6 -25 -6 -40q-12 -13 -30 -10q-16 3 -22 34q-6 27 -30 58q-21 29 -66 68v0v0zM888 902q54 -40 60 -46q5 -5 2 -10
q-3 -3 -18 -6q-15 0 -42 -24t-116 -116l-14 10q74 99 128 192v0v0zM42 736h174v238l78 -32q8 -3 8 -6q1 -9 -4 -12l-34 -16v-172h64l34 44l56 -52q3 -3 4 -8q0 -12 -14 -12h-144v-108q65 -24 98 -48q30 -24 40 -48q7 -24 -4 -42q-13 -19 -28 -16q-14 -1 -22 26q-9 23 -24 50
q-15 24 -60 58v-422l4 -83q0 -15 -18 -28q-18 -9 -38 -10l4 115v392q-26 -58 -70 -136q-45 -78 -114 -162l-14 10q54 84 90 156q33 70 60 140q26 69 44 156h-86q-22 0 -64 -8l-20 36v0v0z" />
  </g>

</svg>
