<?xml version="1.0" standalone="no"?>
<!DOCTYPE svg PUBLIC "-//W3C//DTD SVG 1.1//EN" "http://www.w3.org/Graphics/SVG/1.1/DTD/svg11.dtd" >
<svg xmlns="http://www.w3.org/2000/svg" xmlns:xlink="http://www.w3.org/1999/xlink" version="1.1" viewBox="0 -36 256 256">
  <g transform="matrix(1 0 0 -1 0 220)">
   <path fill="currentColor"
d="M60 16l-15 -7q1 46 1 117q-9 -35 -35 -67l-3 3q29 49 36 114h-5q-10 0 -19 -2l-9 9h35q0 29 -1 63l24 -10l-10 -7v-46h4l10 12l14 -19h-28v-27q19 -11 26 -19.5t1 -19.5t-11 3.5t-16 29.5q0 -107 1 -127zM135.5 215.5q3.5 -9.5 -3.5 -19t-11 9t-18 36.5l3 2
q26 -19 29.5 -28.5zM142 187l12 12l18 -19h-62q-10 0 -18 -2l-8 9h58zM121 106q1 -14 -6 -20.5t-7.5 3.5t-2 26t-11.5 50l4 1q22 -46 23 -60zM96 34l-14 18q13 1 47 13q12 44 15 107l22 -11l-7 -7q-8 -35 -23 -87l35 13l1 -5q-52 -22 -69 -33zM177 6q1 32 1 112.5t-1 112.5
l13 -9h35l8 11l14 -15l-8 -6q-11 -29 -26 -62q16 -18 23 -32t6 -26t-7 -19.5t-22 -11.5q-1 14 -19 20v5q11 -2 21 -2.5t12 8t-2 22.5t-18 36l19 65h-35v-201z" />
  </g>

</svg>
