<?xml version="1.0" standalone="no"?>
<!DOCTYPE svg PUBLIC "-//W3C//DTD SVG 1.1//EN" "http://www.w3.org/Graphics/SVG/1.1/DTD/svg11.dtd" >
<svg xmlns="http://www.w3.org/2000/svg" xmlns:xlink="http://www.w3.org/1999/xlink" version="1.1" viewBox="0 -246 2048 2048">
  <g transform="matrix(1 0 0 -1 0 1802)">
   <path fill="currentColor"
d="M1274 648q-210 -297 -555 -473l-37 43q337 215 539 551h-373q-3 -59 -63 -59q-42 0 -64 55q-58 155 -188 276v-948h-117v876q-122 -302 -303 -538l-41 33q240 389 336 833h-297l-19 51h324v334q-173 -34 -297 -51l-18 47q366 71 598 225q129 -80 129 -121q0 -32 -98 -10
q-64 -26 -197 -62v-362h121l88 129q76 -71 129 -141l-27 -39h-311v-192q274 -148 309 -285h432v219q189 -9 189 -47q0 -24 -78 -55v-117h307l94 121q73 -64 127 -131l-24 -41h-481q207 -301 550 -436q-70 -50 -98 -105q-304 166 -475 484v-617h-111v553zM1248 1735
q-12 -538 -428 -756l-33 39q331 234 340 717h-238l-22 51h614l72 88q115 -90 115 -121q0 -12 -23 -28l-43 -27q-9 -60 -37 -168h170l68 82q119 -82 119 -119q0 -12 -15 -20l-47 -27q-15 -296 -106 -381q-58 -51 -160 -51q-3 70 -250 113v55q175 -27 264 -27q77 0 105 72
q33 92 43 252h-207q-6 -18 -29 -84l-111 25q64 167 86 315h-247z" />
  </g>

</svg>
