<?xml version="1.0" standalone="no"?>
<!DOCTYPE svg PUBLIC "-//W3C//DTD SVG 1.1//EN" "http://www.w3.org/Graphics/SVG/1.1/DTD/svg11.dtd" >
<svg xmlns="http://www.w3.org/2000/svg" xmlns:xlink="http://www.w3.org/1999/xlink" version="1.1" viewBox="0 -36 256 256">
  <g transform="matrix(1 0 0 -1 0 220)">
   <path fill="currentColor"
d="M82 79q0 -24 1 -37l-14 -6v14h-38v-16l-14 -6q1 20 1 29v137q0 19 -1 35l14 -7h37l7 8l14 -12l-7 -6v-133zM31 167h38v48h-38v-48zM31 113h38v47h-38v-47zM31 57h38v49h-38v-49zM104 150q-4 -13 -11 -15t-9 4t6 16.5t12 33.5h3q3 -26 -1 -39zM109 245l21 -11l-7 -8v-168
q0 -22 1 -44l-15 -9q1 42 1 67v120q0 29 -1 53zM143.5 176q4.5 -10 2 -17.5t-7.5 -7.5t-6 13t-8 35l3 2q12 -15 16.5 -25zM162 174v-36h50v36h-50zM225 158q0 -13 1 -31l-14 -5v8h-28q2 -24 11 -46q18 14 30 36l13 -17q-8 -2 -15 -7t-25 -18q12 -24 25 -36t24 -15v-4
q-17 2 -18 -12q-24 21 -37 54t-14 65h-16v-95l30 16l2 -4q-33 -27 -36 -37l-11 14q2 7 2 12v174q0 11 -1 25l14 -8h49l8 9l14 -13l-8 -7v-58zM162 181h50v39h-50v-39z" />
  </g>

</svg>
