<?xml version="1.0" standalone="no"?>
<!DOCTYPE svg PUBLIC "-//W3C//DTD SVG 1.1//EN" "http://www.w3.org/Graphics/SVG/1.1/DTD/svg11.dtd" >
<svg xmlns="http://www.w3.org/2000/svg" xmlns:xlink="http://www.w3.org/1999/xlink" version="1.1" viewBox="0 0 2048 2048">
  <g transform="matrix(1 0 0 -1 0 2048)">
   <path fill="currentColor"
d="M615 518q-9 -4 -13 -5l-128 -51q-81 -32 -145 -51l-108 -32l-43 -15l-13 -44q-5 -15 -11 -22t-13 -6q-7 0 -17 10q-9 9 -16 26l-60 125q62 8 90 12q27 4 68 12l17 3v1197h-12q-39 0 -69 -3q-30 -4 -31 -4l-13 -1l-38 88q13 -4 28 -7q16 -4 62 -10q47 -6 140 -6h338
l98 102l121 -107l15 -15q4 -6 1 -18q-3 -11 -11 -15q-9 -4 -15 -4h-126v-1336q0 -32 5 -113q4 -82 7 -114q3 -31 3 -46q-1 -11 -4.5 -19.5t-13.5 -14.5q-11 -7 -31 -8q-21 -2 -33 3q-13 5 -21 15q-8 11 -8 24v450zM615 1357v320h-295v-320h295zM615 1299h-295v-358h295v358z
M615 883h-295v-382l42 9l112 28q83 22 117 32l24 7v306zM1725 995l98 100l121 -106q8 -8 13 -15t2 -19q-4 -11 -11 -15q-8 -4 -15 -4h-510l44 -72l40 -69q27 -45 77 -109q51 -63 93 -108t81 -78q39 -32 74 -56q35 -23 72 -44q36 -20 51 -25l31 -12l-4 -37q-22 0 -44 -1
t-48 -12q-27 -11 -49 -35l-13 -14l-72 68q-38 36 -78 78q-40 43 -72 84q-31 42 -60 88q-28 45 -43 74q-15 28 -50 101l-37 76v-503q0 -28 4 -104q3 -77 7 -111t3 -48q-2 -11 -6 -19q-3 -9 -14 -16q-10 -6 -30 -7q-21 -2 -34 3t-21 16q-8 10 -8 23v736l-43 -74
q-19 -31 -57 -87t-71 -97q-32 -41 -68 -79q-36 -39 -76 -76t-86 -75q-45 -38 -75 -57l-69 -46l-25 33l65 56l69 65q42 40 69 71t63 81q36 49 68 98q32 48 63 100q31 53 55 100q24 46 38 79l17 41h-205q-60 0 -118 -3t-61 -3l-13 -1l-38 88q13 -4 29 -7q16 -4 59 -10
q43 -5 142 -5h268v59q0 64 -2 102t-3 45l-2 13l109 -24q56 -13 72 -22q16 -8 17 -22q0 -14 -14 -26q-13 -11 -35 -17l-43 -12v-96h309zM1700 1777l-105 -36q-51 -17 -118 -36t-155 -37q-87 -19 -166 -31t-154 -20l-94 -11l-7 38l99 20q46 10 104 24q58 13 140 37t136 44
t100 41q46 20 92 44q45 25 65 41l30 23l114 -105q17 -17 15 -27q-3 -10 -13 -14q-10 -5 -31 -2zM1224 1591l41 -35q19 -16 53 -47t56 -57q23 -26 42 -63t19 -72q-1 -24 -13 -45q-13 -21 -32 -22q-18 0 -31 13q-12 11 -17 36l-6 35q-4 16 -15 44q-11 27 -23 50t-32 51l-38 52
l-28 35zM1755 1638l116 -57q19 -10 35 -21q17 -12 17 -24q-1 -14 -17 -21t-31 -8l-46 -3l-26 -44q-14 -23 -29 -44l-63 -81q-47 -60 -56 -67l-62 -55l-25 28q29 39 48 67q18 29 47 86q29 58 47 103q17 45 28 82zM874 1494l46 -28q22 -13 56 -36q33 -24 62 -50q30 -27 54 -59
t28 -63q4 -30 -6 -52t-28 -26q-19 -3 -33 9q-13 9 -21 32l-12 34q-9 20 -23 45q-14 24 -29 46q-16 21 -40 47l-38 40l-36 34z" />
  </g>

</svg>
