<?xml version="1.0" standalone="no"?>
<!DOCTYPE svg PUBLIC "-//W3C//DTD SVG 1.1//EN" "http://www.w3.org/Graphics/SVG/1.1/DTD/svg11.dtd" >
<svg xmlns="http://www.w3.org/2000/svg" xmlns:xlink="http://www.w3.org/1999/xlink" version="1.1" viewBox="0 -36 256 256">
  <g transform="matrix(1 0 0 -1 0 220)">
   <path fill="currentColor"
d="M175 182q30 -17 69 -18v-4q-14 -1 -21 -13q-38 13 -59 27q-34 -19 -79 -27v4q42 12 69 31q-23 23 -32 42l-9 -2l-8 9h93l8 8l16 -13l-10 -6q-20 -26 -37 -38zM164 189q18 15 33 35h-68q13 -19 35 -35zM183 141l6 9l15 -10l-7 -8l-1 -29q-1 -11 8 -11h19q8 0 8 27h5
q0 -24 11 -27q-6 -11 -21 -11h-27q-18 0 -18 16l2 36l-34 -1q-7 -43 -64 -59l-1 4q43 17 51 55l-13 -1q-6 0 -12 -3l-9 10l35 1l1 25l20 -7l-6 -7l-1 -10zM155 90l21 -9l-6 -7v-9h30l12 10l17 -17h-59v-32h45l13 11l18 -18h-136q-11 -1 -20 -3l-10 10h76v32h-28
q-10 -1 -20 -3l-10 10h58q0 5 -1 25zM22 9q1 42 1 119t-1 107l16 -9h38l7 9l15 -13l-6 -5q-13 -23 -28 -52q16 -13 23 -26t5.5 -25.5t-8.5 -19.5t-22 -11q-1 13 -21 18v4q12 -2 23 -2.5t13 8t-0.5 21.5t-19.5 33l20 54h-40v-202z" />
  </g>

</svg>
