<?xml version="1.0" standalone="no"?>
<!DOCTYPE svg PUBLIC "-//W3C//DTD SVG 1.1//EN" "http://www.w3.org/Graphics/SVG/1.1/DTD/svg11.dtd" >
<svg xmlns="http://www.w3.org/2000/svg" xmlns:xlink="http://www.w3.org/1999/xlink" version="1.1" viewBox="0 -205 1024 1024">
  <g transform="matrix(1 0 0 -1 0 819)">
   <path fill="currentColor"
d="M480 604l56 -36h272l32 34l54 -38q6 -4 6 -8q-1 -6 -28 -30v-148l4 -70q0 -13 -14 -26q-16 -12 -40 -14v56h-50v-177q0 -43 12 -50q12 -5 42 -8h70q23 4 34 16q11 10 14 28q3 15 10 131h16q5 -78 8 -104q2 -26 32 -45q-23 -44 -46 -56q-21 -9 -54 -12h-120q-34 0 -52 18
q-16 16 -16 64v195h-86q-9 -135 -84 -199q-73 -65 -214 -100l-4 16q128 45 188 108q57 58 64 175h-56v-28q0 -13 -18 -22q-18 -8 -36 -6l4 112v224v0v0zM530 350h292v192h-292v-192v0v0zM830 862l40 44l56 -48q3 -3 4 -6q7 -13 -10 -14h-404q-21 0 -68 -8l-16 32h398v0v0z
M856 786l6 -4q3 -6 -8 -12q-24 -4 -44 -28q-19 -22 -58 -76h146l38 42l58 -48q3 -4 4 -8q0 -12 -12 -12h-508q-33 3 -68 -6l-16 32h330q25 41 74 152l58 -32v0v0zM506 810l10 10q56 -31 80 -52q22 -19 26 -38q3 -19 -6 -34q-10 -14 -28 -12q-19 2 -22 26q-4 21 -16 46
q-13 21 -44 54v0v0zM568 992l8 12q80 -25 104 -44q22 -18 26 -36q3 -19 -8 -32q-11 -14 -28 -12q-16 3 -22 24q-7 20 -22 40q-16 18 -58 48v0v0zM262 944q5 -3 8 -6q1 -10 -16 -16q-18 -7 -26 -50q-9 -43 -24 -136h106l30 42l46 -36q13 -9 12 -12q0 -7 -24 -28
q-24 -180 -48 -254q-22 -75 -50 -134q41 -22 70 -50q26 -27 32 -50q5 -24 -4 -38q-10 -15 -26 -12q-16 2 -26 26q-8 21 -22 42q-14 18 -46 48q-38 -70 -100 -137q-63 -68 -126 -106l-8 12q54 45 114 121q59 77 86 134q-33 27 -120 76q24 114 52 330h-58q-21 0 -48 -6l-16 32
h126q15 111 28 240l78 -32v0v0zM238 336q24 60 46 142q21 78 36 232h-120q-28 -190 -58 -322q42 -20 96 -52v0v0z" />
  </g>

</svg>
