<?xml version="1.0" standalone="no"?>
<!DOCTYPE svg PUBLIC "-//W3C//DTD SVG 1.1//EN" "http://www.w3.org/Graphics/SVG/1.1/DTD/svg11.dtd" >
<svg xmlns="http://www.w3.org/2000/svg" xmlns:xlink="http://www.w3.org/1999/xlink" version="1.1" viewBox="0 -246 2048 2048">
  <g transform="matrix(1 0 0 -1 0 1802)">
   <path fill="currentColor"
d="M565 1666q197 -118 197 -223q0 -78 -74 -78q-47 0 -65 74q-31 127 -133 227h-60q-119 -236 -317 -391l-35 32q241 282 317 652q195 -28 195 -72q0 -26 -86 -47q-22 -65 -49 -123h364l97 121q67 -71 108 -135l-24 -37h-435zM1372 1666q172 -97 172 -196q0 -76 -72 -76
q-53 0 -65 69q-21 98 -119 203h-65q-121 -198 -303 -332l-35 33q227 233 315 583q183 -40 183 -77q0 -25 -82 -43q-20 -55 -49 -113h468l97 123q72 -67 127 -137l-23 -37h-549zM973 312q134 286 195 512h-396l-20 51h964l97 127q74 -68 129 -139l-23 -39h-600
q-100 -253 -262 -506q411 33 610 59q-92 127 -219 234l39 39q251 -150 377 -313q51 -66 51 -133q0 -74 -72 -74q-47 0 -73 68q-18 46 -64 124q-455 -93 -827 -137q-16 -74 -39 -74q-41 0 -90 191q49 1 223 10zM144 1080l20 34q285 -76 285 -206q0 -74 -70 -74q-36 0 -55 47
q-43 104 -180 199zM316 1350l24 35q283 -77 283 -207q0 -72 -66 -72q-35 0 -57 47q-55 117 -184 197zM195 541v54q46 -9 78 -9q77 0 157 92q185 216 379 541l45 -37l-346 -589q-27 -45 -27 -107q0 -27 10 -72q27 -98 27 -196q0 -117 -86 -117q-73 0 -73 72q0 11 18 106
q8 39 8 86q0 97 -59 138q-37 22 -131 38zM950 1221l-20 51h682l86 121q70 -64 121 -131l-25 -41h-844z" />
  </g>

</svg>
