<?xml version="1.0" standalone="no"?>
<!DOCTYPE svg PUBLIC "-//W3C//DTD SVG 1.1//EN" "http://www.w3.org/Graphics/SVG/1.1/DTD/svg11.dtd" >
<svg xmlns="http://www.w3.org/2000/svg" xmlns:xlink="http://www.w3.org/1999/xlink" version="1.1" viewBox="0 -339 2048 2048">
  <g transform="matrix(1 0 0 -1 0 1709)">
   <path fill="currentColor"
d="M163 1875q54 -15 94 -32q59 -26 106 -54q31 -18 49.5 -34t32.5 -37q16 -23 16 -52q0 -30 -17 -46q-14 -12 -32 -12t-31 11q-17 14 -34 41q-32 51 -61 80q-53 51 -147 101zM67 1388q130 -50 224 -107q37 -23 64 -54q21 -23 27 -53q2 -8 2 -18q0 -28 -18 -44
q-15 -13 -35 -13t-40 18q-5 5 -8.5 9.5t-17.5 27.5l-21 31q-25 41 -75 81q-43 34 -124 87zM446 912l34 -19q-51 -147 -81 -227q-56 -147 -122 -295q-23 -51 -63 -135q2 -33 4 -49q1 -17 1 -25q0 -18 -8 -26q-6 -6 -14 -6q-22 0 -44 31l-81 114q39 49 58.5 76t45.5 68
q84 131 168 293q38 72 102 200zM1499 1901l133 -30q33 -7 42 -25q5 -7 5 -14q0 -11 -9 -21q-11 -11 -33 -14l-43 -6q-37 -94 -55 -135q-27 -60 -55 -106q-10 -18 -33 -52h319l61 72l72 -50q43 -29 43 -50q0 -11 -8 -19q-11 -9 -32 -19l-27 -15v-1074q0 -69 7 -140
q3 -38 3 -57q0 -27 -15 -39q-18 -14 -44 -14q-25 0 -38 9q-3 2 -4 5q-3 6 -3 23v99h-372v-71q0 -22 -17 -31q-16 -9 -41 -9t-36 9q-8 6 -11 13q-3 8 -3 24q0 17 4 62q7 80 7 146v1190l82 -56q27 66 42 114q27 87 43 182q7 36 16 99zM1413 283h372v579h-372v-579zM1413 916
h372v528h-372v-528zM617 1795l142 -37q25 -7 34 -21q4 -7 4 -15q0 -10 -8 -18q-5 -7 -12 -9q-8 -4 -29 -10l-42 -11q-23 -102 -47 -199h179v279q0 42 -4 121q-1 21 -4 38l121 -25q74 -15 74 -45q0 -10 -9 -21q-12 -13 -40 -20l-40 -12v-315h61l93 92l113 -92q16 -14 20 -19
t4 -13q0 -12 -8 -19q-7 -6 -16 -6h-267v-389h95l99 98l106 -98q21 -19 21 -33q0 -12 -8 -19q-4 -3 -6 -3h-18h-510q-106 -3 -192 -8l-42 89q31 -9 64 -13q39 -5 90 -9t80 -4h123v389h-195q-28 -85 -51 -138q-22 -50 -71 -136l-33 20q21 53 31 83t20 68q18 67 37 171
q20 106 29 192q2 20 12 117zM587 792l127 -70h315l61 70l72 -48q42 -28 42 -50q0 -11 -9 -18q-9 -9 -29 -20q-10 -4 -27 -14v-397l27 -20l22 -16q8 -6 8 -16q0 -8 -5 -15q-7 -9 -20 -9h-481v-35q0 -19 -11 -30q-21 -20 -54 -20q-38 0 -38 44q0 13 4 52q4 30 4 53v37v362
q0 37 -8 160zM690 225h354v440h-354v-440z" />
  </g>

</svg>
