<?xml version="1.0" standalone="no"?>
<!DOCTYPE svg PUBLIC "-//W3C//DTD SVG 1.1//EN" "http://www.w3.org/Graphics/SVG/1.1/DTD/svg11.dtd" >
<svg xmlns="http://www.w3.org/2000/svg" xmlns:xlink="http://www.w3.org/1999/xlink" version="1.1" viewBox="0 -36 256 256">
  <g transform="matrix(1 0 0 -1 0 220)">
   <path fill="currentColor"
d="M51 126h28v49h-28v-49zM38 160q-10 -12 -29 -25l-2 3q18 18 30 43.5t13 36.5h-6q-11 0 -21 -2l-9 9h68l13 10l14 -17h-44q-3 -12 -14 -36h27l9 8l11 -14l-7 -5q0 -39 1 -58l-13 -6v12h-28v-11l-14 -7q1 26 1 59zM108.5 156.5q-3.5 -1.5 -9.5 -6.5l-8 15q6 0 33 10v29h-1
q-11 0 -20 -2l-10 9h31q0 21 -1 36l21 -10l-7 -7v-19h4l12 10l13 -17h-29v-25l23 8l1 -3l-24 -13v-44q0 -12 -16 -18q-1 11 -20 17v4q17 -3 20 -3t3 7v30q-12 -6 -15.5 -7.5zM200 180h-20q0 -17 -7.5 -36.5t-27.5 -33.5l-3 2q14 16 19.5 33.5t5.5 42.5t-2 43l14 -8
q12 2 25 8t19 12l15 -17h-10q-19 -4 -48 -11v-28h36l13 11l13 -18h-29v-70l-13 -5v75zM136 88v-28h56v27h-55h-1v1zM67 60h54v27h-54v-27zM121 53h-54v-6l-15 -5v59l15 -7h54v23l23 -8l-8 -6v-9h56l6 8l15 -11l-6 -5v-31l-15 -5v3h-56v-24q43 1 64 2q-13 9 -27 16l2 3
q56 -15 61 -23.5t2 -15.5t-11 1t-19 14q-170 -12 -181 -19l-10 18q32 0 104 3v25z" />
  </g>

</svg>
