<?xml version="1.0" standalone="no"?>
<!DOCTYPE svg PUBLIC "-//W3C//DTD SVG 1.1//EN" "http://www.w3.org/Graphics/SVG/1.1/DTD/svg11.dtd" >
<svg xmlns="http://www.w3.org/2000/svg" xmlns:xlink="http://www.w3.org/1999/xlink" version="1.1" viewBox="0 -36 256 256">
  <g transform="matrix(1 0 0 -1 0 220)">
   <path fill="currentColor"
d="M163 184q5 -6 6 -11.5t-3.5 -10t-10 5t-17.5 19.5q-28 -25 -49 -35l-2 3q24 19 44 42q-24 19 -30 24l2 3q12 -6 35 -19q17 19 21 34l18 -16l-9 -3q-10 -11 -21 -22q11 -8 16 -14zM129 99q-15 -33 -49 -71l-3 3q33 44 43 86h-8q-10 0 -19 -2l-9 9h45q0 24 -1 43l20 -9
l-7 -7v-27h15l9 10l14 -17h-38v-10q19 -13 28 -21.5t8.5 -17t-5.5 -11t-9.5 11.5t-21.5 33q0 -66 1 -87l-14 -8q1 31 1 92zM244 236l-9 -8v-186q2 -23 -22 -31q-2 14 -29 21v4q18 -2 28 -2t9 12v160q0 22 -1 40zM185 144q0 44 -1 69l20 -9l-7 -7v-94q0 -17 1 -30l-14 -5
q1 32 1 76zM62 196q19 21 26 44l18 -12l-9 -5q-18 -26 -30 -37q18 -32 17.5 -84.5t-9 -68.5t-26.5 -21q-2 14 -28 23l1 4q22 -5 32.5 -2.5t13 24t1.5 73.5q-21 -43 -61 -67l-1 4q32 28 58 83q-2 15 -6 23q-18 -18 -49 -35l-1 4q24 18 46 41q-11 18 -35 36l1 3q27 -12 41 -30
z" />
  </g>

</svg>
