<?xml version="1.0" standalone="no"?>
<!DOCTYPE svg PUBLIC "-//W3C//DTD SVG 1.1//EN" "http://www.w3.org/Graphics/SVG/1.1/DTD/svg11.dtd" >
<svg xmlns="http://www.w3.org/2000/svg" xmlns:xlink="http://www.w3.org/1999/xlink" version="1.1" viewBox="0 -36 256 256">
  <g transform="matrix(1 0 0 -1 0 220)">
   <path fill="currentColor"
d="M65 217q-13 -9 -27 -15l68 1q-4 8 -14 17l3 3q13 -6 21 -11.5t8 -13t-5.5 -11.5t-10.5 11q-46 -4 -59 -6.5t-17 -4.5l-9 16q9 0 24.5 12t24.5 28l17 -12q-11 -5 -24 -14zM90.5 111.5q8.5 -0.5 8.5 6.5v11h-50v-28l-14 -4q1 20 1 44.5t-1 41.5l16 -7h46l8 8l15 -12l-8 -4
v-55q0 -14 -21 -17q-1 10 -22 15l1 4q12 -3 20.5 -3.5zM49 157h50v12h-50v-12zM49 136h50v14h-50v-14zM140 240l22 -10l-8 -6v-18q16 3 31 8.5t25 14.5l12 -16q-14 -2 -29 -5t-39 -7v-9q-2 -12 14 -11h38q12 0 14 6.5t3 20.5h4q0 -11 2 -17t8 -7q-7 -14 -23 -13h-52
q-22 -2 -21 16q0 41 -1 53zM140 170l23 -9l-9 -6v-19q17 5 30.5 10.5t24.5 14.5l15 -15q-10 -1 -28 -5.5t-42 -9.5v-8q-2 -13 15 -12h37q11 1 13 7.5t3 19.5h4q0 -9 1 -15.5t10 -9.5q-8 -13 -28 -13h-50q-20 -1 -18 18q0 35 -1 52zM56 60h142v22h-142v-22zM56 30h142v23
h-142v-23zM42 49.5q0 24.5 -1 45.5l15 -6h141l8 9l15 -12l-8 -6v-32t1 -33l-15 -4v12h-142v-10l-15 -5q1 17 1 41.5z" />
  </g>

</svg>
