<?xml version="1.0" standalone="no"?>
<!DOCTYPE svg PUBLIC "-//W3C//DTD SVG 1.1//EN" "http://www.w3.org/Graphics/SVG/1.1/DTD/svg11.dtd" >
<svg xmlns="http://www.w3.org/2000/svg" xmlns:xlink="http://www.w3.org/1999/xlink" version="1.1" viewBox="0 -36 256 256">
  <g transform="matrix(1 0 0 -1 0 220)">
   <path fill="currentColor"
d="M67 179h21l6 10l15 -12l-7 -7q0 -64 1 -77l-13 -6v8h-55v-8l-14 -6q1 22 1 91q-4 -7 -13 -17l-2 3q19 31 29 54.5t10 32.5l19 -10q-7 -1 -16 -20h29l8 9l14 -13q-9 0 -33 -32zM31 183l7 -4h23l17 29h-31q-7 -10 -16 -25zM35 139h21v33h-21v-33zM68 139h22v33h-22v-33z
M35 102h21v30h-21v-30zM68 102h22v30h-22v-30zM30 42q-1 -8 -5.5 -11.5t-12 -3.5t1 12t13.5 34h4q0 -23 -1 -31zM45 76q15 -18 15.5 -28t-5.5 -15.5t-6.5 9t-6.5 33.5zM64 79q24 -16 24.5 -25.5t-5 -14t-8 6t-13.5 31.5zM82 87q16 -8 21 -15t0 -17t-7 0.5t-17 29.5zM172 216
q-2 8 -6 15t-10 13l2 3q24 -9 25.5 -16.5t-7.5 -14.5h42l9 12l15 -19h-100q-10 0 -20 -2l-9 9h59zM164 189.5q4 -8.5 -2.5 -15t-8.5 3.5t-11 26l1 3q17 -9 21 -17.5zM219 199q-7 -3 -13 -10.5t-14 -19.5l-5 1q14 31 15 41zM122.5 74q-6.5 -35 -30.5 -67l-3 2q19 37 23 69
t4 58.5t-1 43.5l14 -8h87l10 10l14 -17h-43v-19h15l6 8l13 -11l-7 -6v-18h4l8 9l12 -16h-24q0 -21 1 -27l-12 -4v7h-12q24 -49 47 -54v-4q-11 -1 -16 -8q-19 14 -35 61q0 -59 1 -69l-12 -6v80h-19q0 -59 1 -75l-13 -6q1 19 1 60q-16 -31 -45 -51l-2 3q30 31 45 69l-7 -1
l-4 -2l-8 10h21v17h-13l-8 -2l-8 9h29v20h-8q-3 -1 -8 -2l-7 9h23v19h-28q1 -56 -5.5 -91zM167 146h19v19h-19v-19zM197 95h16v17h-16v-17zM197 119h16v20h-16v-20zM167 119h19v20h-19v-20zM167 95h19v17h-19v-17z" />
  </g>

</svg>
