<?xml version="1.0" standalone="no"?>
<!DOCTYPE svg PUBLIC "-//W3C//DTD SVG 1.1//EN" "http://www.w3.org/Graphics/SVG/1.1/DTD/svg11.dtd" >
<svg xmlns="http://www.w3.org/2000/svg" xmlns:xlink="http://www.w3.org/1999/xlink" version="1.1" viewBox="0 -36 256 256">
  <g transform="matrix(1 0 0 -1 0 220)">
   <path fill="currentColor"
d="M55 226q-10 0 -19 -2l-9 9h48l7 7l14 -12q-14 -1 -28 -11l7 -2l-7 -3v-6l28 6l1 -4l-29 -8v-23q0 -13 -19 -17q1 12 -18 15v4q26 -6 25 2v16q-24 -8 -31 -13l-7 13l38 7v16l8 -2l9 8h-18zM192 227q-10 0 -19 -2l-9 9h50l9 8l12 -15q-9 2 -33 -10l9 -4l-7 -2v-9h14l11 9
l12 -16h-37v-21q-2 -11 -17 -14q2 12 -22 15v4q27 -5 27 1v15h-5q-15 0 -21 -2l-10 9h36v18l6 -2l13 9h-19zM125 226q-10 0 -19 -2l-9 9h46l7 7l13 -13q-13 0 -27 -10l7 -3l-7 -3v-6l27 5l1 -3l-28 -8v-25q0 -13 -19 -17q1 11 -18 13v4q26 -4 25 2v20q-26 -7 -32 -11l-6 12
l38 6v17l8 -3l9 9h-16zM49 121.5q0 20.5 -1 39.5l15 -7h123l7 8l17 -9l-9 -6q0 -44 1 -53l-15 -6v8h-124v-3l-15 -5q1 13 1 33.5zM63 103h124v18h-124v-18zM63 128h124v19h-124v-19zM54 77q-10 0 -19 -2l-9 9h48l7 7l14 -12q-14 -1 -28 -11l7 -2l-7 -3v-6l28 7l1 -4l-29 -8
v-27q0 -13 -19 -17q1 12 -18 15v4q26 -6 25 2v19q-25 -7 -31 -13l-7 13l38 7v16l8 -2l9 8h-18zM191 78q-10 0 -19 -2l-9 9h50l9 8l12 -15q-9 2 -33 -10l9 -4l-7 -2v-9h15l9 10l13 -17h-37v-24q-2 -11 -17 -14q2 12 -22 15v4q27 -5 27 1v18h-5q-15 0 -21 -2l-10 9h36v18l6 -2
l13 9h-19zM124 77q-10 0 -19 -2l-9 9h46l7 7l13 -13q-13 0 -27 -10l7 -3l-7 -3v-6l27 7l1 -3l-28 -10v-25q0 -13 -19 -17q1 11 -18 13v4q26 -4 25 2v20q-26 -7 -32 -11l-6 12l38 6v17l8 -3l9 9h-16z" />
  </g>

</svg>
