<?xml version="1.0" standalone="no"?>
<!DOCTYPE svg PUBLIC "-//W3C//DTD SVG 1.1//EN" "http://www.w3.org/Graphics/SVG/1.1/DTD/svg11.dtd" >
<svg xmlns="http://www.w3.org/2000/svg" xmlns:xlink="http://www.w3.org/1999/xlink" version="1.1" viewBox="0 -205 1024 1024">
  <g transform="matrix(1 0 0 -1 0 819)">
   <path fill="currentColor"
d="M546 438l82 -28q6 -2 4 -10q1 -3 -4 -6l-32 -18v-52q-8 -148 -64 -209q-55 -60 -152 -102l-8 14q95 54 134 115q38 63 40 192v104v0v0zM758 444l86 -34q6 -6 -6 -14l-30 -14v-234l4 -85q-1 -11 -22 -26q-21 -12 -36 -10l4 123v294v0v0zM140 926l54 -46h128l32 40l52 -44
q8 -3 8 -12q0 -6 -32 -24v-680q1 -40 -10 -67q-12 -25 -66 -44q-3 27 -24 42q-18 16 -90 40l4 15q75 -17 96 -21q20 -3 32 2q12 7 10 31v254h-148q-9 -91 -18 -142q-9 -49 -38 -118q-30 -68 -86 -121l-12 8q47 79 68 135q21 58 30 134q9 74 10 212v406v0v0zM186 436h148v202
h-148v-202v0v0v0zM186 662h148v192h-148v-192v0v0zM408 824h466l40 50q59 -60 62 -62v-8q-1 -3 -10 -6h-120q-48 -109 -140 -212q45 -31 90 -50q41 -19 92 -32q48 -12 106 -18v-18q-30 0 -56 -6q-25 -6 -40 -36q-27 14 -62 32q-33 15 -74 40q-42 24 -84 60q-42 -30 -110 -72
q-67 -40 -164 -70l-6 16q108 52 160 86q50 32 88 68q-73 83 -122 212h-64q-17 -1 -28 -8l-24 34v0v0zM550 798q50 -114 124 -186q33 36 64 84q30 48 54 102h-242v0v0zM572 974l8 10q84 -37 108 -62q21 -24 24 -44q1 -21 -10 -32q-11 -12 -28 -8q-15 3 -18 24q-3 20 -18 46
q-12 24 -66 66v0v0z" />
  </g>

</svg>
