<?xml version="1.0" standalone="no"?>
<!DOCTYPE svg PUBLIC "-//W3C//DTD SVG 1.1//EN" "http://www.w3.org/Graphics/SVG/1.1/DTD/svg11.dtd" >
<svg xmlns="http://www.w3.org/2000/svg" xmlns:xlink="http://www.w3.org/1999/xlink" version="1.1" viewBox="0 -36 256 256">
  <g transform="matrix(1 0 0 -1 0 220)">
   <path fill="currentColor"
d="M149 121l23 -9l-8 -7v-15h25l13 10l17 -17h-55v-30h44l14 12l18 -19h-132q-11 0 -20 -2l-10 9h72v30h-21q-11 -1 -21 -3l-10 10h52q0 20 -1 31zM205 147q-13 0 -22 -3l-10 10h38v24h-9q-10 0 -19 -2l-9 9h37v23h-13q-10 0 -19 -2l-9 9h40l7 10l14 -12l-7 -7v-32
q0 -16 1 -29l-14 -6v8h-6zM129 163l13 -16h-40v-6l-14 -7q1 22 1 47t-1 42l13 -7q19 9 27 16l11 -13q-10 -1 -37 -8v-26h13l9 9l14 -16h-36v-24h16zM35 239q22 -10 31 -18.5t3 -19t-13 4.5t-23 30zM44 52v68h-10l-11 -3l-10 10h31l9 8l14 -13l-9 -5v-65q26 -21 84.5 -23
t105.5 6v-4q-18 -5 -22 -16q-88 -2 -117.5 4t-58.5 26q-19 -18 -26 -31l-14 11q18 15 34 27zM170 143q22 -30 78 -42v-4q-15 0 -20 -9q-47 23 -62 52zM150 132v98l-1 15l20 -7l-6 -8v-94zM147 133l-8 -4q-10 -10 -26.5 -23.5t-35.5 -22.5l-2 3q19 14 35 30.5t20 28.5z
M25 192q23 -10 31 -18.5t2.5 -19t-12.5 5t-23 29.5z" />
  </g>

</svg>
