<?xml version="1.0" standalone="no"?>
<!DOCTYPE svg PUBLIC "-//W3C//DTD SVG 1.1//EN" "http://www.w3.org/Graphics/SVG/1.1/DTD/svg11.dtd" >
<svg xmlns="http://www.w3.org/2000/svg" xmlns:xlink="http://www.w3.org/1999/xlink" version="1.1" viewBox="0 -36 256 256">
  <g transform="matrix(1 0 0 -1 0 220)">
   <path fill="currentColor"
d="M135 12l-16 -5q1 18 1 60h-65v-43l-15 -4q1 13 1 30.5t-1 29.5l18 -6h62q0 8 -1 16l21 -8l-5 -5v-3h66l8 9l14 -13l-8 -6v-24q2 -19 -20 -25q-5 11 -32 15v3q26 -2 32 -1t6 8v27h-67q0 -39 1 -55zM58.5 175q4.5 -5 1 -9.5t-6.5 -6t-6 7t-16 19.5l3 3q20 -9 24.5 -14z
M113 87q-6 8 -18 10v5q13 -1 15.5 0t2.5 5v39h-29q0 -41 1 -50l-14 -4v54h-28v-58l-14 -5q1 24 1 40t-1 35l14 -5h28v39l21 -7l-8 -5v-27h29l4 9l16 -13l-8 -5v-43q1 -7 -12 -14zM133 180l-9 -1q-15 -12 -27 -22l-3 5q4 5 10.5 12.5t11.5 16.5zM73 133l-7 -4
q-15 -20 -22 -24l-2 2q12 21 14 33zM109 126q4 -6 -1 -12t-9 4t-14 17l4 2q16 -5 20 -11zM177 183l-6 -3q-6 -8 -10 -16h48l13 10l14 -18h-22q-11 -23 -27 -39q19 -15 49 -20v-3q-12 0 -20 -10q-22 12 -37 25q-27 -17 -60 -24v4q34 13 51 29q-10 15 -17 34q-9 -13 -23 -23
l-1 3q14 21 21 37.5t10 23.5zM178 126q12 12 20 31h-41q9 -20 21 -31zM156 184l1 11v12h-57v-9l1 -8l-17 -7l1 12v12h-45q-12 0 -22 -2l-10 9h77v13q0 9 -1 19l24 -8l-8 -7v-17h57v13q0 6 -1 18l24 -11l-8 -7v-13h50l10 9l16 -16h-76v-9l1 -8z" />
  </g>

</svg>
