<?xml version="1.0" standalone="no"?>
<!DOCTYPE svg PUBLIC "-//W3C//DTD SVG 1.1//EN" "http://www.w3.org/Graphics/SVG/1.1/DTD/svg11.dtd" >
<svg xmlns="http://www.w3.org/2000/svg" xmlns:xlink="http://www.w3.org/1999/xlink" version="1.1" viewBox="0 -36 256 256">
  <g transform="matrix(1 0 0 -1 0 220)">
   <path fill="currentColor"
d="M228 229l18 -18h-202q-11 0 -20 -2l-10 9h111q-2 16 -13 25l2 3q14 -3 22.5 -10.5t-3.5 -17.5h78zM70 190l11 9l12 -16h-42l-9 -2l-7 9h35zM149 202l-5 -2l-6 -6h58l8 7l14 -15q-13 -1 -29 -16l-3 1l9 16h-63q-14 -13 -34 -22l-2 3q15 12 24.5 23.5t11.5 20.5zM155 166
q44 -13 53 -18t7 -15.5t-14 0.5t-49 28q-22 -27 -62 -32l-2 2q24 8 39.5 22t20.5 35l18 -9l-6 -5zM78 130h108l8 6l13 -12l-7 -4l-2 -9h18l15 10l16 -17h-50l-5 -23l-15 -4l1 5h-109l-6 -6l-12 11l6 5l3 12h-19q-11 0 -21 -2l-9 9h50q3 13 4 26zM74 111h49l2 12h-48zM70 89
h48l4 15h-49zM137 111h47l2 12h-47zM132 89h47l4 15h-48zM136 43l2 -3q-44 -23 -55 -33l-11 12q5 4 4 9v18q-27 -13 -67 -21l-1 3q33 11 63 26.5t48 34.5l17 -11q-5 0 -11 -4q10 -14 30 -27q24 18 36 32l15 -13l-10 -2q-11 -6 -35 -20q11 -6 33.5 -12t52.5 -6v-4
q-19 -3 -22 -12q-22 2 -53.5 16.5t-50.5 44.5q-16 -11 -31 -19v-27zM81 154l12 9l13 -16h-69l-9 -2l-7 9h60z" />
  </g>

</svg>
