<?xml version="1.0" standalone="no"?>
<!DOCTYPE svg PUBLIC "-//W3C//DTD SVG 1.1//EN" "http://www.w3.org/Graphics/SVG/1.1/DTD/svg11.dtd" >
<svg xmlns="http://www.w3.org/2000/svg" xmlns:xlink="http://www.w3.org/1999/xlink" version="1.1" viewBox="0 -205 1024 1024">
  <g transform="matrix(1 0 0 -1 0 819)">
   <path fill="currentColor"
d="M358 932l50 -46q8 -4 8 -14q1 -9 -34 -30v-272q-2 -101 0 -154q-1 -52 8 -130q8 -79 20 -112q11 -34 20 -2q8 30 28 106l18 -4q-6 -63 -12 -86q-5 -25 -10 -53q-6 -29 -2 -46q3 -15 -6 -18q-6 -3 -24 6q-15 9 -42 48q-25 38 -34 117q-9 76 -12 140q-3 63 -2 186v296h-134
v-278h38l30 38q45 -42 46 -54q1 -10 -10 -10h-104v-402l6 -69q-3 -12 -20 -28q-16 -12 -40 -18l4 133v384h-54q-17 -3 -46 -8l-20 34h120v278h-54q-22 0 -44 -8l-24 36h294l38 40v0v0zM578 844h38q24 67 42 134l72 -28q15 -8 4 -16q-15 -6 -32 -14q-29 -31 -58 -76h180
l30 42l64 -46q9 -8 4 -16l-32 -22v-156l4 -70q-9 -18 -24 -24q-12 -6 -30 -6v40h-270v-86h320l34 44l56 -54q2 -4 2 -8q0 -9 -8 -8h-404v-78h328l28 38l54 -46q9 -5 10 -10q0 -6 -36 -32q0 -181 -8 -221q-10 -42 -34 -70q-24 -27 -54 -36q-7 27 -32 44q-23 16 -94 34l6 18
q89 -21 122 -18q29 3 38 36q7 32 6 237h-336q6 -16 -14 -26q-19 -10 -38 -10l4 92v460l58 -42v0v0zM570 612h270v88h-270v-88v0v0zM570 728h270v88h-270v-88v0v0zM518 300h20q6 -54 12 -96q6 -40 -2 -65q-9 -27 -30 -30q-21 -4 -32 6q-10 12 -4 25t16 26q9 13 12 38l8 96v0
v0zM572 308l12 8q58 -55 74 -82q14 -27 14 -48q0 -18 -12 -30q-11 -13 -28 -8q-15 3 -18 30q-3 26 -8 50q-4 23 -34 80v0v0zM670 324l12 8q57 -45 76 -68q15 -21 18 -42q1 -18 -10 -30q-11 -13 -28 -8q-15 3 -18 34q-1 29 -14 50q-12 20 -36 56v0v0zM756 346l8 12
q75 -42 94 -66q19 -22 20 -44q1 -21 -10 -30q-10 -10 -26 -4q-15 3 -18 24q0 21 -18 48q-15 24 -50 60v0v0z" />
  </g>

</svg>
