<?xml version="1.0" standalone="no"?>
<!DOCTYPE svg PUBLIC "-//W3C//DTD SVG 1.1//EN" "http://www.w3.org/Graphics/SVG/1.1/DTD/svg11.dtd" >
<svg xmlns="http://www.w3.org/2000/svg" xmlns:xlink="http://www.w3.org/1999/xlink" version="1.1" viewBox="0 -36 256 256">
  <g transform="matrix(1 0 0 -1 0 220)">
   <path fill="currentColor"
d="M160 191q16 -3 20.5 -9t-1 -12.5t-8.5 1t-12 17.5zM122.5 142.5q-4.5 -8.5 -12 -5t-0.5 10.5t12 25h4v-7h97l9 8l13 -14q-7 -2 -12.5 -5t-14.5 -15l-4 2l9 17h-97q1 -8 -3.5 -16.5zM187 136l13 11l16 -18h-65q-9 0 -13 -3l-7 10h56zM161.5 53.5q3.5 0.5 3.5 6.5v45h-27
q-10 0 -19 -2l-9 9h101l12 9l16 -16h-61v-48q-1 -20 -18 -23q1 11 -21 18v4q19 -3 22.5 -2.5zM197 94q26 -16 34.5 -24.5t3 -19.5t-11.5 2t-28 40zM123.5 63.5q-18.5 -14.5 -30.5 -19.5l-1 3q34 29 44 49l16 -15q-10 -3 -28.5 -17.5zM212 229l21 -7l-7 -6q0 -17 1 -28
l-14 -5v8h-78l-6 -7l-12 11l6 6q0 22 -1 31l20 -8l-6 -5v-21h32q0 35 -1 48l21 -8l-7 -5v-35h32q0 23 -1 31zM59 198q0 29 -1 48l20 -10l-6 -8v-30h11l11 10l13 -17h-35v-40h11l11 10l13 -17h-41l17 -8l-7 -6v-28h11l10 11l13 -18h-34v-49q20 -14 57 -18t114 4v-4
q-14 -3 -16 -15q-56 -1 -89.5 0.5t-59 15.5t-43.5 37q-7 -30 -30 -58l-3 3q15 26 21 55.5t5 57.5l19 -9l-5 -7q-1 -17 -4 -36q9 -11 21 -19v58v18v15h-28q-9 0 -16 -2l-8 9h48v40h-11q-9 0 -18 -2l-7 9h36z" />
  </g>

</svg>
