<?xml version="1.0" standalone="no"?>
<!DOCTYPE svg PUBLIC "-//W3C//DTD SVG 1.1//EN" "http://www.w3.org/Graphics/SVG/1.1/DTD/svg11.dtd" >
<svg xmlns="http://www.w3.org/2000/svg" xmlns:xlink="http://www.w3.org/1999/xlink" version="1.1" viewBox="0 -36 256 256">
  <g transform="matrix(1 0 0 -1 0 220)">
   <path fill="currentColor"
d="M112 111h32v26h-32v-26zM112 80h32v24h-32v-24zM136.5 25.5q5.5 0.5 7.5 7.5v40h-32q0 -15 -6 -31t-26 -34l-4 1q13 16 18 32t5.5 30.5t0.5 33t-2 47.5l16 -8h27l9 9l14 -11l-7 -7v-105q0 -17 -17 -22q-2 10 -26 13v5q17 -1 22.5 -0.5zM111 246q19 -7 26.5 -14t-4.5 -15
h79l14 11l18 -18h-174v-17h118l15 11l18 -18h-151v-18h133l14 11l17 -18h-163l-7 -4l-13 9l6 5v39h-11q-13 1 -24 -2l-9 9h114q-5 16 -18 26zM89 147l-9 -3q-8 -13 -18 -24h14l10 10l13 -17h-38v-19h12l9 9l12 -16h-33v-23h14l9 9l11 -16h-34q-7 -35 -55 -51l-1 3
q39 23 44 50q-20 0 -29 -3l-8 9h37v22h-18l-8 -4l-8 11h34v19h-15l-11 -3l-10 10h23q0 12 -15 30l2 4q21 -12 24 -18.5t-8 -15.5h18q9 19 14 39zM236 147l-9 -3q-7 -14 -18 -25h15l10 8l13 -15h-44v-20h16l9 9l11 -16h-36v-23h22l9 11l13 -18h-44v-43l-12 -6v49
q-17 0 -21 -3l-10 10h31v23h-12l-7 -4l-11 11h30v19h-8l-12 -3l-12 11h24q-2 12 -16 33l2 3q22 -14 24 -21t-8 -15h19q9 19 14 39z" />
  </g>

</svg>
