<?xml version="1.0" standalone="no"?>
<!DOCTYPE svg PUBLIC "-//W3C//DTD SVG 1.1//EN" "http://www.w3.org/Graphics/SVG/1.1/DTD/svg11.dtd" >
<svg xmlns="http://www.w3.org/2000/svg" xmlns:xlink="http://www.w3.org/1999/xlink" version="1.1" viewBox="0 -36 256 256">
  <g transform="matrix(1 0 0 -1 0 220)">
   <path fill="currentColor"
d="M33 215v-129h24v129h-24zM32 222h25l9 10l13 -16l-9 -6v-116q0 -17 1 -35l-14 -10v30h-24v-25l-14 -7q1 17 1 34v101q0 27 -1 49zM111.5 220.5q4.5 -7.5 -1.5 -16t-9 3.5t-16 30l2 3q20 -13 24.5 -20.5zM95 55v103q-7 0 -14 -3l-8 9h22l8 8l13 -14l-8 -5v-103
q18 -14 30.5 -17t43 -2.5t64.5 5.5v-4q-14 -4 -18 -14q-27 -1 -49.5 -1t-41.5 6.5t-27.5 17.5t-18 0.5t-13.5 -19.5l-12 14q14 10 29 19zM202 190h19v39h-19v-39zM233 204q0 -14 1 -24l-13 -5v8h-79v-6l-13 -4q1 15 1 33t-1 37l14 -7h77l6 7l13 -9l-6 -6v-24zM142 190h19v39
h-19v-39zM172 190h19v39h-19v-39zM171 141q13 -11 19 -24q12 9 16.5 15t11.5 16l13 -15q-7 -3 -14.5 -7t-23.5 -14q2 -5 4 -14q17 -6 28 -12.5t13.5 -12.5t-1 -13.5t-10 4t-29.5 29.5q5 -22 0.5 -37.5t-21.5 -21.5q-1 11 -21 18l1 4q20 -4 24.5 -2t5.5 13t0 22
q-21 -25 -67 -41v4q46 25 63 52q-1 6 -4 12q-23 -27 -57 -39l-1 3q36 24 51 48q-3 5 -7 8q-19 -16 -43 -25l-1 3q33 20 48 44h-18q-10 0 -19 -3l-9 10h91l11 9l15 -16h-55q-7 -8 -14 -17z" />
  </g>

</svg>
