<?xml version="1.0" standalone="no"?>
<!DOCTYPE svg PUBLIC "-//W3C//DTD SVG 1.1//EN" "http://www.w3.org/Graphics/SVG/1.1/DTD/svg11.dtd" >
<svg xmlns="http://www.w3.org/2000/svg" xmlns:xlink="http://www.w3.org/1999/xlink" version="1.1" viewBox="0 -36 256 256">
  <g transform="matrix(1 0 0 -1 0 220)">
   <path fill="currentColor"
d="M79 144h17l14 12l15 -19h-75q-12 0 -25 -3l-9 10h49q0 28 -1 40l22 -10l-7 -7v-23zM34 123q22 -27 25.5 -40t-6.5 -19t-10 9t-12 49zM89 131l20 -11l-7 -7l-24 -64l48 12l1 -5q-67 -21 -109 -37l-9 19q30 3 62 11q11 38 18 82zM192.5 30.5q3.5 -0.5 10 0t9 9.5t2.5 51v45
h-68q-7 -12 -18.5 -26t-18.5 -19l-3 3q14 19 26 43t18 52l21 -13l-9 -7q-8 -17 -14 -26h65l9 12l16 -15l-9 -8v-49q0 -37 -4 -53.5t-28 -22.5q0 14 -34 22v5q26 -3 29.5 -3.5zM183.5 77q-0.5 -10 -7 -16t-10 6.5t-9 22.5t-14.5 20l3 4q38 -27 37.5 -37zM128 206h-36
q0 -7 2 -21l-17 -4q1 15 1 25h-28q-10 0 -20 -2l-9 9h57q0 21 -1 33l23 -9l-8 -6v-18h9l15 8zM159 207q-12 0 -21 -2l-10 9h35q0 21 -1 32l22 -9l-7 -6v-17h33l14 9l15 -16h-62q0 -6 1 -19l-16 -7q1 21 1 26h-4z" />
  </g>

</svg>
