<?xml version="1.0" standalone="no"?>
<!DOCTYPE svg PUBLIC "-//W3C//DTD SVG 1.1//EN" "http://www.w3.org/Graphics/SVG/1.1/DTD/svg11.dtd" >
<svg xmlns="http://www.w3.org/2000/svg" xmlns:xlink="http://www.w3.org/1999/xlink" version="1.1" viewBox="0 -36 256 256">
  <g transform="matrix(1 0 0 -1 0 220)">
   <path fill="currentColor"
d="M31 204h91l7 11l17 -16q-11 -1 -31 -23l-3 2l11 19h-91q0 -11 -3 -17t-9 -6.5t-8.5 3t4 11.5t10.5 28h4zM67 195l21 -10l-7 -6v-14h24l12 11l16 -18h-52v-21h20l11 11l16 -18h-47v-22h34l12 12l15 -19h-61q0 -7 1 -13l-15 -8q1 10 1 21h-26q-10 0 -19 -2l-9 9h54v22h-14
q-10 0 -19 -2l-9 9h42v21h-23q-10 0 -19 -2l-9 9h51q0 20 -1 30zM86 224q1 -9 -4.5 -15.5t-9 4t-16.5 27.5l2 3q27 -10 28 -19zM28 54q0 20 -1 31l15 -8h62l7 9l16 -13l-8 -5v-26q0 -15 1 -25l-14 -8v14h-65v-8l-14 -7q1 26 1 46zM41 30h65v40h-65v-40zM194 122q0 -15 1 -31
l-16 -7q1 17 1 34v89q0 14 -1 34l24 -11l-9 -8v-100zM165 174q-13 -37 -32 -55l-3 2q10 16 16.5 37t6.5 34l19 -12zM242 158.5q8 -10.5 2 -23.5t-12 5.5t-28 46.5l3 2q27 -20 35 -30.5zM246 104l-10 -3q-39 -53 -70 -71t-43 -19l-1 3q31 14 59 42t47 65z" />
  </g>

</svg>
