<?xml version="1.0" standalone="no"?>
<!DOCTYPE svg PUBLIC "-//W3C//DTD SVG 1.1//EN" "http://www.w3.org/Graphics/SVG/1.1/DTD/svg11.dtd" >
<svg xmlns="http://www.w3.org/2000/svg" xmlns:xlink="http://www.w3.org/1999/xlink" version="1.1" viewBox="0 -205 1024 1024">
  <g transform="matrix(1 0 0 -1 0 819)">
   <path fill="currentColor"
d="M624 850q66 -27 72 -32q3 -6 4 -12q-1 -7 -20 -8q-17 0 -52 -48q-34 -45 -118 -156l358 16q-43 67 -112 134l12 12q70 -49 104 -76q35 -27 58 -60q24 -30 30 -56q7 -28 -6 -46t-34 -14q-19 5 -22 28q-1 24 -16 54q-228 -18 -294 -26q-66 -9 -110 -36l-52 68q48 8 72 38
q75 108 126 220v0v0zM422 884h446l36 54l68 -62q3 -4 4 -10q-1 -7 -16 -8h-458q-16 0 -64 -8l-16 34v0v0zM456 356h200v174l78 -28q9 -3 10 -12q0 -3 -8 -6l-30 -18v-110h138l32 46l62 -56q3 -4 4 -10q1 -7 -16 -8h-220v-231h182l38 53l64 -65q6 -3 6 -10q-1 -6 -16 -6h-512
q-22 1 -70 -10l-18 38h276v231h-112q-21 0 -68 -8l-20 36v0v0zM328 902q9 -3 -2 -12q-22 -3 -34 -12q-9 -9 -66 -80q-57 -70 -122 -160l172 -2q51 78 76 126l68 -44q5 -14 -10 -16q-18 -4 -32 -14q-12 -6 -78 -90q-64 -81 -164 -192l224 14q-15 47 -48 86l12 12
q51 -38 76 -70q23 -31 28 -58q3 -27 -8 -38q-10 -12 -22 -14q-9 -1 -18 8q-6 8 -8 20q-3 11 -8 32q-109 -15 -172 -26q-64 -13 -100 -34l-44 66q30 2 60 16q61 66 158 198q-99 -9 -132 -20q-34 -9 -64 -26l-38 64q30 0 54 24q21 21 84 120t90 166l68 -44v0v0zM122 312h20
q6 -90 -2 -138q-6 -47 -26 -73q-18 -27 -32 -30q-14 -2 -28 4q-12 7 -12 22t18 36q19 20 32 45q13 24 20 54q5 26 10 80v0v0zM202 314l16 6q35 -52 50 -92q12 -38 16 -64q1 -26 -12 -37q-15 -12 -30 -4q-16 9 -14 45q3 36 -2 66q-3 29 -24 80v0v0zM320 344l16 6
q53 -50 74 -88q22 -37 20 -64q0 -27 -14 -38q-15 -13 -30 -4q-16 9 -14 46q1 36 -10 66q-9 27 -42 76v0v0z" />
  </g>

</svg>
