<?xml version="1.0" standalone="no"?>
<!DOCTYPE svg PUBLIC "-//W3C//DTD SVG 1.1//EN" "http://www.w3.org/Graphics/SVG/1.1/DTD/svg11.dtd" >
<svg xmlns="http://www.w3.org/2000/svg" xmlns:xlink="http://www.w3.org/1999/xlink" version="1.1" viewBox="0 -246 2048 2048">
  <g transform="matrix(1 0 0 -1 0 1802)">
   <path fill="currentColor"
d="M954 223v318h-645l-21 51h666v266q201 -9 201 -51q0 -24 -84 -55v-160h444l109 123q76 -65 137 -135l-22 -39h-668v-318h594l117 129q86 -73 145 -141l-25 -39h-1757l-22 51h831zM180 738l-33 39q143 125 197 272q45 125 45 313v543q197 -9 197 -53q0 -25 -78 -53v-426
q0 -246 -82 -397q-78 -142 -246 -238zM768 818v1100q203 -16 203 -58q0 -25 -84 -53v-989h-119zM981 1778q109 30 149 30q31 0 31 -18q0 -28 -41 -53q28 -92 58 -211q94 260 333 260q169 0 275 -101q104 -99 104 -266q0 -415 -548 -546l-13 41q226 83 327 206q99 120 99 299
q0 165 -103 241q-73 54 -181 54q-113 0 -191 -115q-67 -100 -67 -231q0 -47 4 -72l-105 -16q-33 234 -131 498z" />
  </g>

</svg>
