<?xml version="1.0" standalone="no"?>
<!DOCTYPE svg PUBLIC "-//W3C//DTD SVG 1.1//EN" "http://www.w3.org/Graphics/SVG/1.1/DTD/svg11.dtd" >
<svg xmlns="http://www.w3.org/2000/svg" xmlns:xlink="http://www.w3.org/1999/xlink" version="1.1" viewBox="0 -205 1024 1024">
  <g transform="matrix(1 0 0 -1 0 819)">
   <path fill="currentColor"
d="M836 576l38 48l60 -54q12 -10 10 -16q0 -6 -14 -6h-768q-43 0 -68 -8l-16 36h758v0v0zM422 728l6 12q74 -35 100 -58q27 -24 30 -42q4 -19 -6 -34q-12 -14 -30 -12t-24 26q-6 21 -18 42q-10 21 -58 66v0v0zM328 346q-3 -160 -98 -227q-97 -66 -172 -88l2 -14
q90 11 204 82q115 68 116 237v78h262v-315q1 -32 20 -44q18 -12 58 -10h156q28 -1 50 4q20 4 38 22q18 15 30 42q-20 12 -28 33q-6 22 -8 128h-20q-7 -134 -16 -151q-9 -18 -20 -24q-9 -5 -44 -10h-130q-20 0 -28 6q-6 3 -6 24v275q33 21 34 24q1 5 -4 10l-58 48l-36 -38
h-242l-60 40v-132v0v0zM314 952q10 -9 0 -18q-24 -6 -32 -12l-16 -16t-36 -56h200l42 52l60 -62q9 -16 -8 -16h-212q41 -32 58 -52q18 -19 24 -40q7 -22 -4 -40q-12 -19 -32 -14q-18 6 -20 36q-3 29 -14 52q-10 21 -40 58h-68q-75 -112 -150 -184l-14 12q66 89 114 176
t72 162l76 -38v0v0zM702 962q10 -9 0 -18q-24 -6 -30 -14q-7 -6 -16 -18q-7 -12 -40 -62h244l42 52l60 -62q9 -16 -8 -16h-234q42 -32 60 -52q19 -21 26 -42q7 -22 -4 -40q-12 -19 -32 -14q-19 6 -22 36q-3 29 -14 52q-12 24 -42 60h-88q-39 -60 -84 -116l-18 10
q42 74 72 140q27 65 48 134l80 -30v0v0z" />
  </g>

</svg>
