<?xml version="1.0" standalone="no"?>
<!DOCTYPE svg PUBLIC "-//W3C//DTD SVG 1.1//EN" "http://www.w3.org/Graphics/SVG/1.1/DTD/svg11.dtd" >
<svg xmlns="http://www.w3.org/2000/svg" xmlns:xlink="http://www.w3.org/1999/xlink" version="1.1" viewBox="0 -36 256 256">
  <g transform="matrix(1 0 0 -1 0 220)">
   <path fill="currentColor"
d="M50 195l-6 -4l-19 -25q20 -18 19 -27.5t-6.5 -12t-7 9t-12.5 30.5q12 24 15 39zM92 220l11 10l16 -17h-74q-16 0 -23 -3l-9 10h79zM41 38q-13 0 -22 -3l-10 10h50v61h-19l-11 -3l-10 10h68l11 10l16 -17h-41v-61h22l13 11l15 -18h-82zM111 197l-8 -5l-19 -26
q19 -16 19.5 -24t-5.5 -13t-8 8t-13 29q14 27 16 41zM79 195l-5 -4l-20 -25q20 -17 20 -24.5t-6 -12.5t-8 8t-13 29q14 26 16 39zM142 127l-15 -5q1 12 1 25v44q-12 -16 -27 -29l-3 2q22 29 30.5 47.5t12.5 34.5l20 -13l-8 -2q-7 -14 -18 -30l12 -5l-6 -5v-43q0 -10 1 -21z
M222 222q-13 -3 -26 -5v-34h17l11 10l16 -17h-44v-37h10l10 11l18 -18h-50q-13 0 -22 -3l-10 10h31v37h-16l-11 -3l-10 10h37v32q-10 -2 -29 -3l-1 5q15 2 37.5 9t29.5 12l11 -15zM138 118l15 -8h32l6 10l16 -12l-8 -7v-52q-1 -17 10 -16h11q5 0 7.5 3t2.5 31h5
q-1 -30 11 -35q-7 -11 -18 -11h-23q-20 0 -19 23v59h-34q0 -34 -8 -56t-45 -39l-2 4q29 20 35.5 41t5.5 65z" />
  </g>

</svg>
