<?xml version="1.0" standalone="no"?>
<!DOCTYPE svg PUBLIC "-//W3C//DTD SVG 1.1//EN" "http://www.w3.org/Graphics/SVG/1.1/DTD/svg11.dtd" >
<svg xmlns="http://www.w3.org/2000/svg" xmlns:xlink="http://www.w3.org/1999/xlink" version="1.1" viewBox="0 -36 256 256">
  <g transform="matrix(1 0 0 -1 0 220)">
   <path fill="currentColor"
d="M66 245l20 -8l-6 -7l-2 -110q-2 -45 -19.5 -70.5t-40.5 -41.5l-2 3q24 24 35 47.5t14 50.5q-26 -15 -40 -27l-10 14q3 4 6 17q1 72 0 96l21 -6l-6 -7l-1 -93l30 12q2 110 1 130zM153.5 56.5q-1.5 -11.5 -6 -15t-6 3.5t-3.5 18q-31 -10 -49 -20l-9 18q6 2 14 13.5t30 60.5
q-26 -5 -36 -10l-7 16q9 1 19 27.5t19 67.5l19 -13l-8 -5q-9 -30 -33 -78h28q10 23 20 58l18 -12l-8 -5q-24 -61 -57 -119l39 7q-5 15 -9 24l3 3q24 -28 22.5 -39.5zM202 83q24 -38 46 -53l-1 -4q-14 0 -18 -8q-19 25 -33 54q-25 -35 -64 -59l-2 4q39 30 59 67
q-18 54 -23 130l-8 -2l-8 9h69l7 11l14 -13l-7 -6q-11 -81 -31 -130zM195 97q16 46 24 117h-45q5 -68 21 -117z" />
  </g>

</svg>
