<?xml version="1.0" standalone="no"?>
<!DOCTYPE svg PUBLIC "-//W3C//DTD SVG 1.1//EN" "http://www.w3.org/Graphics/SVG/1.1/DTD/svg11.dtd" >
<svg xmlns="http://www.w3.org/2000/svg" xmlns:xlink="http://www.w3.org/1999/xlink" version="1.1" viewBox="0 -205 1024 1024">
  <g transform="matrix(1 0 0 -1 0 819)">
   <path fill="currentColor"
d="M352 942l50 -36h140l30 32l54 -38q6 -4 6 -8q1 -6 -28 -24v-156l4 -84q0 -13 -18 -22t-32 -12v28h-160v-8q1 -6 -16 -18q-16 -12 -34 -12l4 96v262v0v0zM398 648h160v102h-160v-102v0v0zM480 460q57 -27 60 -32q3 -3 -2 -8q-4 -4 -16 -4t-30 -54q33 -23 48 -34
q14 -10 28 -28q13 -18 8 -36q-5 -19 -22 -20q-17 0 -22 18l-14 42q-9 21 -36 42q-28 -53 -76 -124l-12 8q23 52 44 104q21 51 42 126v0v0zM398 776h160v104h-160v-104v0v0zM342 408q56 -15 62 -20q6 -3 6 -8q0 -4 -26 -16v-150h114l26 26q42 -30 46 -36q4 -7 2 -10
q-3 -4 -20 -4h-156l-30 -30l-46 42l22 14v192v0v0zM424 518h160l30 32q63 -36 64 -42q-1 -3 -4 -6q-1 -1 -26 -20l-6 -210q-3 -114 -36 -157q-31 -45 -82 -66q-7 28 -34 44q-28 14 -76 28l4 18q60 -15 94 -18q32 -3 56 19q21 24 28 126l4 226h-196q-48 -60 -126 -132l-12 12
q63 71 102 134q35 60 56 102l62 -32q3 -7 -2 -10l-12 -4q-9 -1 -18 -10q-9 -7 -30 -34v0v0zM798 930q6 -3 6 -6q3 -6 -8 -12q-21 -3 -30 -20q-18 -61 -48 -148h178l24 30l52 -38q13 -10 14 -16q0 -7 -12 -10q-13 0 -22 -6q-10 -6 -34 -38q-22 -30 -50 -78l-16 8l48 122h-190
q-36 -87 -72 -152l-16 6q34 92 62 202q26 110 44 188l70 -32v0v0zM828 618q6 -3 6 -8q0 -3 -6 -6l-18 -8q11 -168 28 -254q15 -87 60 -162q43 -74 110 -99v-14h-48q-12 0 -38 -18q-43 61 -70 123q-28 62 -40 136t-26 226q-6 -161 -30 -256q-22 -96 -68 -153
q-45 -60 -144 -114l-10 14q69 46 114 106q44 58 68 163q23 104 32 350l80 -26v0v0zM42 778l42 -32h60v220l68 -30q8 -3 8 -6q3 -7 -6 -10l-26 -12v-162h54l22 30l48 -32q3 -3 4 -12q0 -3 -24 -18v-194l4 -82q3 -12 -14 -24q-16 -13 -34 -14v30h-60v-230l70 20q-16 44 -40 80
l10 10q58 -52 74 -86q16 -33 14 -54q0 -21 -12 -30q-10 -5 -22 -1q-9 1 -12 19q-1 15 -8 42q-115 -44 -152 -61q-36 -17 -54 -40l-42 55l130 36v240h-58v-22q-1 -12 -16 -24q-13 -12 -32 -12l4 126v280v0v0zM86 458h58v260h-58v-260v0v0zM188 718v-260h60v260h-60v0v0z" />
  </g>

</svg>
