<?xml version="1.0" standalone="no"?>
<!DOCTYPE svg PUBLIC "-//W3C//DTD SVG 1.1//EN" "http://www.w3.org/Graphics/SVG/1.1/DTD/svg11.dtd" >
<svg xmlns="http://www.w3.org/2000/svg" xmlns:xlink="http://www.w3.org/1999/xlink" version="1.1" viewBox="0 -36 256 256">
  <g transform="matrix(1 0 0 -1 0 220)">
   <path fill="currentColor"
d="M95 82l-14 -7v13h-50v-11l-14 -6q1 26 1 82t-1 78l16 -8h47l9 9l12 -13l-7 -6v-88q0 -13 1 -43zM81 172h-50v-33h50v33zM81 132h-50v-37h50v37zM45 55q-17 -28 -35 -49l-2 3q20 33 28 66l17 -12zM90 51q8 -12 2.5 -23.5t-10 5t-17.5 37.5l2 3q15 -10 23 -22zM81 216h-50
v-37h50v37zM152 58q-15 -27 -42 -48l-2 4q14 14 25 31.5t18 38.5h-5l-8 -3l-8 10h22v22q-10 0 -19 -2l-10 9h29v22h-6l-7 -2l-8 9h21v24h-28q0 -51 -2 -78t-10 -49.5t-22 -38.5l-3 2q16 25 20.5 57t4.5 88t-1 73l14 -8h49q-4 14 -15 26l1 3q18 -6 23.5 -12.5t-3.5 -16.5h34
l11 11l16 -18h-37l13 -9q-6 -3 -23 -23h20l10 10l15 -17h-44v-24h17l8 8l12 -12l-7 -6v-19h1l9 10l12 -17h-22q0 -21 1 -31l-13 -6v8h-12q7 -18 18.5 -33t27.5 -22v-3q-11 -2 -16 -9q-14 13 -22.5 30.5t-12.5 36.5h-1v-46q0 -14 1 -22l-13 -8v76h-19v-70l-13 -8q1 25 1 52z
M144 211q16 -6 19.5 -10.5t2 -10.5t-5 -8.5t-6 6.5t-12.5 21zM124 180h64q9 15 13 32h-77v-32zM164 149h19v24h-19v-24zM195 120h18v22h-18v-22zM164 91h19v22h-19v-22zM164 120h19v22h-19v-22zM195 91h18v22h-18v-22z" />
  </g>

</svg>
