<?xml version="1.0" standalone="no"?>
<!DOCTYPE svg PUBLIC "-//W3C//DTD SVG 1.1//EN" "http://www.w3.org/Graphics/SVG/1.1/DTD/svg11.dtd" >
<svg xmlns="http://www.w3.org/2000/svg" xmlns:xlink="http://www.w3.org/1999/xlink" version="1.1" viewBox="0 -36 256 256">
  <g transform="matrix(1 0 0 -1 0 220)">
   <path fill="currentColor"
d="M57 222l15 -10h71q-1 7 -4.5 16t-8.5 15l2 2q15 -9 21.5 -16.5t-3.5 -16.5h61l13 12l18 -19h-170q0 -45 -1 -76t-13 -61t-40 -54l-4 4q38 38 44 108q-28 -20 -37 -34l-13 15q17 5 50 24q0 67 -1 91zM40.5 173.5q5.5 -8.5 -2 -17t-10 6.5t-11.5 29l2 3q16 -13 21.5 -21.5z
M108 184h4q5 9 7 19l15 -7q-7 -3 -17 -12h22l7 8l13 -12l-8 -7v-75q0 -11 -18 -18q-1 11 -19 14v4q13 -2 19 -2.5t6 5.5v37h-31q-2 -41 -41 -62l-1 3q29 26 29 59h-7l-7 -2l-6 9h20q0 28 -1 44zM108 145h31v32h-31v-32zM130.5 161q3.5 -5 -0.5 -9t-6.5 -4.5t-4.5 8t-9 15.5
l2 3q15 -8 18.5 -13zM130 123.5q4 -5.5 -2 -13t-8.5 3.5t-8.5 20l1 2q14 -7 18 -12.5zM183 187h20l8 8l12 -12l-6 -4v-15q0 -4 3 -4.5t8 1.5t8.5 -3.5t2.5 -7t-15 -1.5t-17 3.5t-3 7.5v20h-21q-1 -25 -27 -40l-2 2q18 19 15 51zM192 113q10 11 17 21h-39l-5 -2l-10 9h54l8 7
l11 -13l-7 -6q-9 -11 -19 -20q22 -12 24.5 -18.5t-1.5 -11.5t-8.5 1.5t-20.5 19.5q-23 -17 -51 -20l1 4q22 8 40 22q-13 8 -25 13l1 3q15 -4 30 -9zM142 85l21 -6l-6 -6v-4h57l13 10l15 -17h-77q36 -31 79 -34v-4q-18 1 -20 -10q-40 11 -65 48h-2q0 -22 1 -49l-16 -4
q1 24 1 48q-30 -31 -85 -47v4q43 17 71 48h-31q-10 0 -19 -2l-9 9h73q0 14 -1 16z" />
  </g>

</svg>
