<?xml version="1.0" standalone="no"?>
<!DOCTYPE svg PUBLIC "-//W3C//DTD SVG 1.1//EN" "http://www.w3.org/Graphics/SVG/1.1/DTD/svg11.dtd" >
<svg xmlns="http://www.w3.org/2000/svg" xmlns:xlink="http://www.w3.org/1999/xlink" version="1.1" viewBox="0 -52 256 256">
  <g transform="matrix(1 0 0 -1 0 204)">
   <path fill="currentColor"
d="M23 248l22 -9q4 -1 2 -3q-5 -2 -8 -5v-186l1 -23q0 -10 -14 -11q2 9 2 45v177q1 5 -8 12zM214 250l23 -9q3 -1 2 -3q-5 -2 -8 -5v-185l1 -22q0 -9 -14 -12q1 4 1 24q1 13 1 22v175q0 5 -8 12zM157 161l17 -9q5 -2 2 -3q-4 0 -9 -3q-7 -10 -18 -25q-2 -3 -3 -4h28l9 11
l17 -13q2 -1 2 -2q-1 -1 -5 -1h-63v-41h56l9 11l16 -13q3 -1 2 -2q0 -1 -4 -1h-79v-31v-14q0 -9 -14 -11q2 10 2 35v21h-58q-6 0 -11 -3l-8 8h77v41h-45q-6 0 -11 -3l-8 8h82q1 1 2 3q6 10 10 20q6 11 5 13q0 1 -1 5q1 -2 -1 2zM117 248l22 -8q3 -1 2 -3q-4 0 -7 -4v-22h25
l9 11l16 -13q3 -2 2 -3q0 -1 -4 0h-48v-37h47l9 11l17 -12q3 -2 2 -3q0 -1 -4 -1h-134q-6 0 -11 -3l-8 8h70v37h-32q-6 0 -11 -4l-8 9h51v24q0 4 -7 11zM79 154l1 3q24 -8 29 -20q5 -13 -5 -15q-5 0 -5 7q-1 6 -6 11q-2 4 -12 12q9 -6 -2 2z" />
  </g>

</svg>
