<?xml version="1.0" standalone="no"?>
<!DOCTYPE svg PUBLIC "-//W3C//DTD SVG 1.1//EN" "http://www.w3.org/Graphics/SVG/1.1/DTD/svg11.dtd" >
<svg xmlns="http://www.w3.org/2000/svg" xmlns:xlink="http://www.w3.org/1999/xlink" version="1.1" viewBox="0 -246 2048 2048">
  <g transform="matrix(1 0 0 -1 0 1802)">
   <path fill="currentColor"
d="M355 1031q-100 -295 -248 -530l-43 28q209 396 287 897h-267l-16 51h287v453q211 -10 211 -58q0 -29 -96 -57v-338h71l86 125q75 -72 119 -133l-22 -43h-254v-223q258 -181 258 -346q0 -72 -68 -72q-40 0 -55 61q-29 121 -135 291v-1044h-115v938zM902 281h811l98 113
q50 -36 139 -121l-22 -43h-1026v-137h-119v1745q87 -36 145 -68h746l100 133q76 -67 137 -141l-20 -43h-989v-1438zM1230 1014v633q174 -6 174 -43q0 -26 -70 -47v-598q0 -274 -118 -420q-95 -115 -246 -186l-31 41q123 75 199 190q88 143 92 365q-85 -85 -191 -170
q0 -56 -22 -56q-36 0 -82 121q138 61 295 170zM1569 1176q102 129 166 248q127 -81 127 -105q0 -16 -43 -16q-21 0 -35 2q-89 -99 -215 -199v-78q162 -58 235 -110q76 -57 76 -99q0 -57 -51 -57q-42 0 -76 49q-71 99 -184 168v-438q0 -31 20 -41q29 -8 84 -8q117 0 133 43
q17 63 25 168l43 -14q0 -122 12 -156q11 -25 45 -25q0 -70 -45 -86q-59 -18 -196 -18q-155 0 -197 23q-30 21 -30 85v1135q174 -3 174 -43q0 -23 -68 -47v-381zM1125 1067q-52 0 -56 62q-9 130 -79 237l38 23q154 -127 154 -254q0 -68 -57 -68z" />
  </g>

</svg>
