<?xml version="1.0" standalone="no"?>
<!DOCTYPE svg PUBLIC "-//W3C//DTD SVG 1.1//EN" "http://www.w3.org/Graphics/SVG/1.1/DTD/svg11.dtd" >
<svg xmlns="http://www.w3.org/2000/svg" xmlns:xlink="http://www.w3.org/1999/xlink" version="1.1" viewBox="0 -154 1024 1024">
  <g transform="matrix(1 0 0 -1 0 870)">
   <path fill="currentColor"
d="M809 499l71 -27q15 -5 8 -9q-16 -5 -25 -15v-28h42l23 31l61 -40q12 -10 -8 -10h-118v-101h22l26 29l50 -37q13 -10 -7 -10h-221v-90h167l22 31l59 -38q13 -10 -7 -11h-241v-52l5 -74q-3 -29 -54 -33q6 27 8 145v14h-174q-24 0 -37 -11l-29 29h240v90h-156q-22 0 -38 -11
l-27 29h92v101h-48q-23 1 -38 -10l-28 29h114v38q1 9 -13 24q-1 -3 -3 -5q-9 -12 -35 -17q5 44 7 88v196q-3 26 -19 44l16 13l33 -40h302l33 36l50 -48q15 -10 -7 -13l-18 -10v-118l4 -89q-5 -32 -43 -32v25h-137v-92h91v36q0 13 -22 34zM168 976l6 9l90 -38q19 -9 7 -14
q-18 -6 -31 -16v-182h23l31 42l58 -48q22 -17 -11 -14h-101v-185l111 59l7 -14l-118 -75v-381q-1 -39 -21 -57q-19 -18 -69 -32q-4 35 -34 47q-29 13 -68 25l2 16l47 -8q51 -10 73 -4q23 7 24 51v313q-89 -57 -99 -66q-12 -12 -28 -45l-41 60l168 87v209h-107q-27 0 -45 -13
l-34 33h186v193q-2 22 -26 48zM366 886l54 -40h465l37 44l74 -54q15 -13 -6 -10h-559v-218q2 -237 -36 -369q-40 -132 -141 -219l-8 8q78 102 109 226q31 123 30 360v211q-7 24 -28 51zM733 645h137v98h-137v-98zM870 627h-137v-97h137v97zM692 743h-134v-98h134v98z
M692 627h-134v-97h134v97zM824 401h-91v-101h91v101zM692 401h-90v-101h90v101zM556 512q-1 -7 -1 -13l64 -26q12 -3 6 -9q-14 -3 -23 -14v-30h90v92h-136zM560 985l8 13q51 -12 83 -27q33 -15 48 -39t10 -44q-6 -20 -21 -20q-16 -2 -25 19q-9 22 -28 46q-18 24 -75 52z" />
  </g>

</svg>
