<?xml version="1.0" standalone="no"?>
<!DOCTYPE svg PUBLIC "-//W3C//DTD SVG 1.1//EN" "http://www.w3.org/Graphics/SVG/1.1/DTD/svg11.dtd" >
<svg xmlns="http://www.w3.org/2000/svg" xmlns:xlink="http://www.w3.org/1999/xlink" version="1.1" viewBox="0 -36 256 256">
  <g transform="matrix(1 0 0 -1 0 220)">
   <path fill="currentColor"
d="M36 131h38v57h-38v-57zM36 61h38v63h-38v-63zM24 118.5q0 51.5 -1 84.5l13 -8h7q8 34 9 45l16 -10q-6 -5 -8 -8t-13 -27h26l8 9l12 -13l-7 -7v-115q0 -7 1 -26l-13 -5v16h-38v-21l-13 -4q1 38 1 89.5zM185 225.5q3 -6.5 -3.5 -14t-9.5 4t-15 25.5l2 3q23 -12 26 -18.5z
M112.5 97.5q-2.5 -23.5 -10 -45t-25.5 -40.5l-3 2q15 21 20.5 45t7 55t0.5 97l13 -9h104l11 11l15 -18h-130q0 -74 -2.5 -97.5zM202 39v106h-4q-7 0 -13 -2l-6 8h23q0 22 -1 41l17 -9l-5 -6v-26h14l8 8l11 -14h-33v-107v-18l-12 -5q1 9 1 24zM198 129l-4 -6q0 -50 -6 -72
t-16 -34l-2 2q11 29 13 58.5t1 60.5zM244.5 29q-1.5 -2 -6.5 -3h-7q-10 3 -9 15q0 76 -1 98l14 -9l-3 -6v-79q0 -8 3 -8q5 0 8 -0.5t3 -3t-1.5 -4.5zM142 39v106h-4q-7 0 -13 -2l-6 8h23q0 22 -1 41l17 -9l-5 -6v-26h7l8 8l11 -14h-26v-107v-18l-12 -5q1 9 1 24zM138 124
l-5 -6q0 -45 -6 -67t-16 -34l-2 2q11 29 13 58.5t1 55.5zM184 52.5q0 -3.5 -5 -4.5h-7q-9 0 -9 15q0 51 -1 73l13 -9l-3 -6v-54q0 -8 2 -8q5 1 7.5 -1t2.5 -5.5z" />
  </g>

</svg>
