<?xml version="1.0" standalone="no"?>
<!DOCTYPE svg PUBLIC "-//W3C//DTD SVG 1.1//EN" "http://www.w3.org/Graphics/SVG/1.1/DTD/svg11.dtd" >
<svg xmlns="http://www.w3.org/2000/svg" xmlns:xlink="http://www.w3.org/1999/xlink" version="1.1" viewBox="0 -52 256 256">
  <g transform="matrix(1 0 0 -1 0 204)">
   <path fill="currentColor"
d="M91 231l9 -11h26l9 10l11 -12q2 -1 1 -2q0 -1 -2 -2l-5 -2v-65q21 32 31 74q6 20 4 22q-1 3 -3 6l2 2l20 -10q1 -2 -2 -2q-4 0 -7 -3q-3 -19 -11 -36h52l6 8l13 -10q2 -1 2 -2t-3 -2l-5 -4v-87q1 -34 -2 -51q-2 -14 -13 -26q-10 -11 -28 -13q0 3 -6 9q-7 3 -24 9l1 4
q17 -6 31 -7q22 0 28 27q3 15 2 52v88h-56q-1 -4 -4 -12q-1 -3 -2 -4q-13 -25 -26 -37v-81l2 -23q-2 -9 -11 -8v15h-30v-8q1 -9 -11 -11q2 9 2 35v158q-1 6 -5 10zM161 163l7 -8h26l7 7l13 -9q1 -1 1 -2t-3 -2l-4 -2v-49l1 -21q1 -8 -10 -10v19h-29v-13q1 -9 -10 -11v10
q1 16 1 27v54q0 6 -3 8zM16 157h45l6 10l15 -12q1 -1 1 -2l-3 -1h-29v-40h13l6 9l15 -12q1 0 1 -1t-3 -1h-32v-65q14 13 31 31l3 -2q-9 -12 -20 -26q-16 -18 -16 -28l-16 11q6 4 9 10v69h-18q-6 0 -10 -3l-9 8h37v40h-7q-6 0 -11 -3zM170 90h29v61h-29v-61zM131 106h-30v-56
h30v56zM131 163h-30v-53h30v53zM101 167h30v49h-30v-49zM5 145l-2 2q6 10 14 29q3 6 4 9q17 45 18 54q0 4 -4 7l1 3l22 -7q1 -1 1 -2l-2 -1q-6 -2 -8 -5q-3 -9 -9 -25q-1 -3 -1 -4h24l6 9l14 -11l1 -2q0 -1 -2 -1h-45q-13 -30 -32 -55z" />
  </g>

</svg>
