<?xml version="1.0" standalone="no"?>
<!DOCTYPE svg PUBLIC "-//W3C//DTD SVG 1.1//EN" "http://www.w3.org/Graphics/SVG/1.1/DTD/svg11.dtd" >
<svg xmlns="http://www.w3.org/2000/svg" xmlns:xlink="http://www.w3.org/1999/xlink" version="1.1" viewBox="0 -36 256 256">
  <g transform="matrix(1 0 0 -1 0 220)">
   <path fill="currentColor"
d="M108 157q30 -9 29.5 -15.5t-4.5 -11.5t-9 5t-18 19zM84 118q-14 0 -23 -3l-10 10h124l12 10l17 -17h-70v-31h29l11 9l18 -16h-58v-39h42l13 12l20 -19h-129q-13 0 -22 -3l-11 10h72v39h-22q-14 0 -23 -3l-10 10h55v31h-35zM141 240l15 -8h62l8 11l15 -11l-8 -9v-190
q0 -20 -22 -26q-3 15 -29 20v4q24 -2 30.5 -1.5t6.5 10.5v125h-64v-4l-14 -4v83zM155 202h64v23h-64v-23zM155 195v-23h64v23h-64zM38 232h61l7 11l16 -13l-7 -8v-26q0 -15 1 -33l-15 -6v8h-64v-150l-15 -8q1 20 1 43v145q0 23 -1 45zM37 195v-23h64v23h-64zM37 225v-23h64
v23h-64z" />
  </g>

</svg>
