<?xml version="1.0" standalone="no"?>
<!DOCTYPE svg PUBLIC "-//W3C//DTD SVG 1.1//EN" "http://www.w3.org/Graphics/SVG/1.1/DTD/svg11.dtd" >
<svg xmlns="http://www.w3.org/2000/svg" xmlns:xlink="http://www.w3.org/1999/xlink" version="1.1" viewBox="0 -205 1024 1024">
  <g transform="matrix(1 0 0 -1 0 819)">
   <path fill="currentColor"
d="M120 858l50 -34h124l26 36l52 -36q12 -6 12 -14q0 -6 -30 -32v-372l4 -74q1 -15 -16 -26q-18 -9 -36 -12v74h-138v-108q0 -18 -18 -30q-16 -10 -34 -10l4 104v534v0v0zM168 396h138v402h-138v-402v0v0zM372 712h168l6 68l4 194l84 -34q6 -4 6 -10q-1 -3 -40 -24l-4 -126
l-4 -68h284l40 54l58 -62q3 -3 4 -8q0 -12 -12 -12h-260v-316q77 84 146 228q65 -40 68 -46q1 -7 -4 -10q-4 -4 -16 -4q-12 -1 -36 -32q-22 -31 -56 -80q-34 -48 -100 -116v-166q-1 -38 28 -39h126q26 0 38 18q11 15 14 35q2 18 8 136h18q3 -102 10 -126q3 -24 28 -35
q-8 -24 -22 -42q-14 -17 -58 -28h-168q-40 0 -56 14q-14 14 -16 58v129q-97 -84 -202 -151l-12 14q101 78 214 189v370h-68q-15 -161 -42 -268q-26 -107 -94 -202q-67 -96 -236 -189l-10 12q128 91 194 175q62 82 92 188q27 104 46 284h-84q-18 0 -66 -8l-18 36v0v0z
M694 918l8 12q56 -19 92 -40q33 -18 48 -42q12 -21 10 -42q-4 -19 -16 -26q-12 -6 -26 -2q-12 3 -18 30q-6 24 -24 48q-16 23 -74 62v0v0z" />
  </g>

</svg>
