<?xml version="1.0" standalone="no"?>
<!DOCTYPE svg PUBLIC "-//W3C//DTD SVG 1.1//EN" "http://www.w3.org/Graphics/SVG/1.1/DTD/svg11.dtd" >
<svg xmlns="http://www.w3.org/2000/svg" xmlns:xlink="http://www.w3.org/1999/xlink" version="1.1" viewBox="0 -246 2048 2048">
  <g transform="matrix(1 0 0 -1 0 1802)">
   <path fill="currentColor"
d="M380 1162h180l65 88q102 -87 102 -112q0 -14 -12 -23l-39 -31v-854h-106v151h-208v-217h-106v752q-61 -134 -139 -250l-41 29q226 428 294 1014h-235l-18 51h453l96 133q77 -77 127 -147l-25 -37h-276q-44 -297 -132 -535zM362 1111v-679h208v679h-208zM953 1242v-967
h756l92 94q79 -57 131 -106l-29 -39h-950v-127h-115v1259q38 -17 129 -63h688l95 96q58 -38 125 -108l-21 -39h-901zM908 1633h354v307q195 -3 195 -43q0 -24 -78 -55v-209h350l80 100q133 -127 133 -153q0 -16 -26 -25l-60 -18q-61 -77 -174 -162l-39 25q62 81 100 182
h-833q0 -90 -45 -174q-27 -51 -78 -51q-72 0 -72 66q0 37 31 63q56 48 76 84q27 50 28 129l50 -9q4 -20 8 -57zM1350 787v240h-281l-18 51h525l96 96q78 -54 123 -106l-21 -41h-309v-240h111l86 90q73 -54 116 -102l-20 -39h-293v-250h141l99 96q51 -37 129 -108l-23 -39
h-766l-23 51h328v250h-229l-25 51h254z" />
  </g>

</svg>
