<?xml version="1.0" standalone="no"?>
<!DOCTYPE svg PUBLIC "-//W3C//DTD SVG 1.1//EN" "http://www.w3.org/Graphics/SVG/1.1/DTD/svg11.dtd" >
<svg xmlns="http://www.w3.org/2000/svg" xmlns:xlink="http://www.w3.org/1999/xlink" version="1.1" viewBox="0 -205 1024 1024">
  <g transform="matrix(1 0 0 -1 0 819)">
   <path fill="currentColor"
d="M130 528l50 -42h42v320l54 -40h214v220l84 -30q3 -6 -2 -12l-32 -14v-42h336l34 42l62 -52q9 -11 -2 -16h-430v-96h206l30 34l60 -44q10 -6 0 -18l-30 -18v-234h32l32 34l50 -42q9 -3 10 -12q0 -6 -30 -24v-315q1 -48 -16 -72q-18 -22 -56 -38q-6 29 -30 40
q-21 10 -96 34l4 18q62 -15 94 -16q30 0 42 8q10 9 8 51v308h-670v-339l4 -58q0 -13 -24 -30q-22 -15 -34 -16l4 100v411v0v0zM272 740v-102h230l24 34l60 -40q8 -9 -4 -18l-22 -18v-110h196v254h-484v0v0zM272 486h240v128h-240v-128v0v0zM310 410l50 -36h294l30 32l48 -34
q9 -6 10 -14q0 -5 -26 -22v-90l4 -70q0 -11 -18 -22q-17 -9 -34 -12v50h-310v-44q0 -5 -18 -13q-16 -12 -34 -10l4 91v194v0v0zM358 218h310v130h-310v-130v0v0z" />
  </g>

</svg>
