<?xml version="1.0" standalone="no"?>
<!DOCTYPE svg PUBLIC "-//W3C//DTD SVG 1.1//EN" "http://www.w3.org/Graphics/SVG/1.1/DTD/svg11.dtd" >
<svg xmlns="http://www.w3.org/2000/svg" xmlns:xlink="http://www.w3.org/1999/xlink" version="1.1" viewBox="0 -36 256 256">
  <g transform="matrix(1 0 0 -1 0 220)">
   <path fill="currentColor"
d="M29 202v-112h22v112h-22zM17 85v89q0 22 -1 43l13 -8h21l8 9l14 -14l-9 -7v-100q0 -16 1 -32l-13 -7v25h-22v-20l-13 -7q1 14 1 29zM136 161l6 11l14 -13l-31 -7v-10q0 -8 6 -8h9q5 -1 7 2t4.5 3t9.5 -6q-6 -10 -16 -9h-20q-12 0 -12 12v14l-13 -3l-3 -3l-8 7l24 5
q0 19 -1 30l19 -10l-6 -6v-12zM133 51v55q0 9 -1 17l16 -10l-5 -7v-28h15v34l15 -8l-5 -6v-29l-10 -3v7h-15v-21l24 6l1 -4q-29 -9 -50.5 -18t-24.5 -13l-9 17q10 1 29 7v24h-11l-3 -8l-12 8l4 4v38l16 -9l-6 -5v-22h12v48l16 -12l-6 -6v-59zM154 186h-65q0 -37 -1 -63.5
t-7 -55t-27 -53.5l-3 2q12 19 18.5 43t7.5 62.5t0 80.5l12 -9h25q0 32 -1 52l19 -10l-6 -6v-12h15l9 9l13 -16h-37v-17h29l6 8l11 -12q-7 -3 -10.5 -6t-11.5 -12l-2 1zM204 236l-6 -6q-3 -15 -9 -38h32l9 10l14 -16q-8 -1 -28 -27l-3 1l9 25h-36q-11 -32 -24 -46l-2 2
q15 38 19.5 63t3.5 41zM211 149l-7 -6q1 -38 8 -59t16 -37t20 -24v-3q-13 0 -17 -7q-17 25 -23.5 52.5t-8.5 55.5q-3 -47 -16.5 -72.5t-37.5 -40.5l-2 2q27 26 36 61t10 88z" />
  </g>

</svg>
