<?xml version="1.0" standalone="no"?>
<!DOCTYPE svg PUBLIC "-//W3C//DTD SVG 1.1//EN" "http://www.w3.org/Graphics/SVG/1.1/DTD/svg11.dtd" >
<svg xmlns="http://www.w3.org/2000/svg" xmlns:xlink="http://www.w3.org/1999/xlink" version="1.1" viewBox="0 -205 1024 1024">
  <g transform="matrix(1 0 0 -1 0 819)">
   <path fill="currentColor"
d="M456 950l58 -44h272l28 42l64 -46q13 -8 -28 -34v-164l4 -80q0 -15 -20 -26q-18 -10 -36 -10v44h-290v-20q0 -6 -18 -18t-38 -12l4 120v248v0v0zM508 658h290v94h-290v-94v0v0zM508 778h290v100h-290v-100v0v0zM34 694h154v274l84 -32l4 -8q0 -3 -8 -8l-30 -18v-208h82
l38 46l50 -52q3 -3 4 -8q1 -12 -10 -12h-164v-320l136 50l6 -16q-226 -109 -250 -124q-22 -13 -46 -40l-50 56l154 58v336h-72q-19 0 -64 -8l-18 34v0v0zM492 430h368l30 34l56 -44q6 -7 4 -14q0 -6 -36 -26q-12 -119 -26 -196q-12 -73 -44 -103q-32 -29 -70 -38
q-6 30 -30 44q-22 15 -86 36l6 16q80 -19 110 -20q27 0 42 14q14 13 26 79q8 63 26 192h-98q-34 -135 -112 -224q-79 -86 -280 -147l-6 16q174 72 244 149q66 76 102 206h-98q-25 -73 -100 -154q-75 -82 -224 -149l-10 16q125 73 188 145q60 69 94 142h-94
q-81 -113 -194 -202l-12 12q84 90 136 162q48 72 78 142h-86q-21 -4 -42 -10l-24 36h554l44 46q64 -60 62 -66q0 -6 -6 -6h-442q-22 -47 -50 -88v0v0z" />
  </g>

</svg>
