<?xml version="1.0" standalone="no"?>
<!DOCTYPE svg PUBLIC "-//W3C//DTD SVG 1.1//EN" "http://www.w3.org/Graphics/SVG/1.1/DTD/svg11.dtd" >
<svg xmlns="http://www.w3.org/2000/svg" xmlns:xlink="http://www.w3.org/1999/xlink" version="1.1" viewBox="0 -36 256 256">
  <g transform="matrix(1 0 0 -1 0 220)">
   <path fill="currentColor"
d="M41 245l16 -6h58l11 7l14 -14h-84v-11h53l9 7l14 -14h-76v-7h52l9 6l14 -13h-75v-9h68l12 7l14 -14h-80l10 -7q-7 -1 -16 -6t-20 -10l70 3q-7 5 -19 12l2 4q28 -8 33.5 -13.5t1.5 -12.5t-8 -1.5t-6 7.5q-23 -3 -51.5 -7t-33.5 -7l-10 15q11 2 22 9.5t15 13.5h-22
q-11 0 -20 -2l-10 9h34q0 36 -1 54zM231 235q-7 0 -31.5 -9.5t-58.5 -14.5v3q25 6 48.5 17.5t28.5 15.5zM240 205q-6 0 -34 -9t-56 -13l-1 3q28 8 48.5 17t30.5 16zM247 176q-10 -1 -37 -9.5t-70 -14.5v5q38 8 63.5 17.5t29.5 15.5zM182 62q16 22 23 49h-43q8 -29 20 -49z
M162 118h54l10 11l17 -18h-23q-10 -34 -30 -59q26 -24 58 -28v-4q-12 -1 -16 -12q-31 13 -50 35q-27 -25 -65 -35l-2 4q38 16 60 42q-14 26 -17 55q-9 -13 -20 -23l-3 2q18 26 26 65l17 -10l-6 -7zM77 102h-8q-11 0 -21 -2l-10 9h39v15h-18q-11 -1 -21 -3l-10 10h49
q0 10 -1 21l21 -7l-7 -5v-9h25l11 9l15 -16h-51v-15h17l9 9l15 -16h-41h-13zM72 100q22 -4 16 -15h29l10 7l15 -14h-61q-2 -8 -4 -14h38l6 8l14 -10l-7 -7q-4 -21 -9.5 -30.5t-20.5 -14.5q-2 12 -24 18l2 4q19 -3 26 -2.5t13 27.5h-41q-13 -30 -59 -49l-2 3q47 28 54 67h-14
q-11 0 -21 -2l-10 9h58q-1 6 -10 12z" />
  </g>

</svg>
