<?xml version="1.0" standalone="no"?>
<!DOCTYPE svg PUBLIC "-//W3C//DTD SVG 1.1//EN" "http://www.w3.org/Graphics/SVG/1.1/DTD/svg11.dtd" >
<svg xmlns="http://www.w3.org/2000/svg" xmlns:xlink="http://www.w3.org/1999/xlink" version="1.1" viewBox="0 -205 1024 1024">
  <g transform="matrix(1 0 0 -1 0 819)">
   <path fill="currentColor"
d="M428 618h306l36 46l58 -52q3 -3 4 -8q0 -12 -12 -12h-160v-142h164l36 50l64 -58q3 -4 4 -10q0 -10 -12 -10h-256v-297q0 -47 -20 -70q-19 -22 -56 -32q-9 32 -42 48q-31 15 -80 30l4 18q78 -17 100 -20q21 -1 34 4q9 4 10 41v278h-174q-20 1 -52 -10l-26 38h252v142h-98
q-21 0 -68 -8l-16 34v0v0zM538 314q13 -12 -6 -18q-15 -2 -26 -10q-9 -6 -50 -68q-40 -60 -122 -143l-10 14q75 98 148 265l66 -40v0v0zM734 342q69 -44 120 -94q51 -49 60 -82q6 -30 -2 -49q-9 -19 -30 -18q-19 2 -28 34q-10 29 -34 75q-24 48 -96 120l10 14v0v0zM684 936
q12 -8 -2 -16q-18 -1 -32 -10q30 -55 90 -112q57 -55 118 -86q57 -30 142 -48v-18q-36 1 -54 -10q-17 -9 -34 -30q-66 38 -120 86q-55 48 -98 102q-40 55 -62 104q-61 -95 -140 -184q-78 -90 -162 -150l-10 14q92 90 166 192q75 101 126 206l72 -40v0v0zM404 884q9 -6 6 -12
q-4 -3 -22 -6q-18 -1 -50 -34q-38 -40 -82 -88q45 -103 58 -194q11 -91 14 -154q4 -60 2 -120q0 -59 -20 -130q-19 -71 -112 -99q-15 40 -38 52q-21 11 -80 34l4 15q102 -22 138 -19q33 4 46 49q9 45 12 100q1 51 0 126q-1 71 -8 140q-96 -142 -228 -256l-12 12
q135 153 226 312q-10 50 -34 106q-93 -87 -176 -134l-8 12q77 60 164 154q-46 70 -122 140l10 14q93 -64 138 -124q66 78 112 148l62 -44v0v0z" />
  </g>

</svg>
