<?xml version="1.0" standalone="no"?>
<!DOCTYPE svg PUBLIC "-//W3C//DTD SVG 1.1//EN" "http://www.w3.org/Graphics/SVG/1.1/DTD/svg11.dtd" >
<svg xmlns="http://www.w3.org/2000/svg" xmlns:xlink="http://www.w3.org/1999/xlink" version="1.1" viewBox="0 -205 1024 1024">
  <g transform="matrix(1 0 0 -1 0 819)">
   <path fill="currentColor"
d="M880 890q60 -48 60 -54q-1 -6 -4 -8q-4 -2 -16 -4q-12 -1 -26 -10q-12 -8 -62 -58l-10 8l30 60h-182v-114h90l32 30q58 -51 56 -56q0 -6 -6 -8q-4 -2 -14 -4q-10 -3 -46 -48q-36 -44 -86 -82q56 -26 104 -34q45 -9 82 -12q36 -3 106 -2v-16q-52 -9 -70 -20
q-15 -12 -24 -26q-38 6 -76 18q-36 9 -78 28q-40 17 -76 40q-52 -31 -118 -52t-180 -32l-2 16q86 12 146 34q57 21 118 58q-30 18 -54 46q-21 27 -66 96h-46q-13 -82 -34 -124q-21 -40 -62 -80q-42 -39 -104 -68l-8 12q53 37 88 80q35 42 52 78q15 37 24 164v148l54 -44h146
v138l74 -32q7 -6 8 -8q0 -4 -6 -8l-24 -14v-76h176l34 40v0v0zM534 684q57 -81 126 -120q57 42 106 120h-232v0v0zM464 710h154v114h-154v-114v0v0v0zM332 836l14 -8q-126 -231 -138 -258t-12 -60t4 -48q3 -15 4 -32q0 -19 -12 -28q-10 -10 -26 -4q-16 2 -20 20q-4 15 4 54
q9 36 10 46q0 9 -2 24q-4 15 -26 24q-21 9 -66 18l4 16q72 -15 90 -8q17 6 32 24q14 17 140 220v0v0zM164 950l8 12q50 -25 74 -40q23 -15 34 -36q12 -20 4 -40q-9 -18 -26 -18q-18 0 -24 24q-3 23 -18 46q-14 23 -52 52v0v0zM60 826l8 12q66 -34 90 -52q23 -18 32 -36
q7 -18 0 -36q-9 -18 -26 -20q-18 0 -24 24q-3 23 -18 44t-62 64v0v0zM512 406q3 -6 -2 -12q-3 -1 -20 -4q-15 -4 -54 -58h428l36 48l60 -52q6 -3 10 -8q1 -15 -12 -14h-234q-34 -66 -116 -144q97 -15 164 -39q66 -21 88 -42q22 -20 20 -40q-1 -18 -16 -22q-15 -3 -44 18
q-30 19 -98 46q-66 27 -152 48q-86 -56 -196 -82q-108 -22 -300 -38l-2 16q191 30 284 54q92 26 164 67q-69 17 -216 46q24 36 66 112h-248q-18 0 -66 -8l-18 34h344q38 60 62 106l68 -32v0v0zM360 208q126 -21 196 -32q65 59 112 130h-248l-60 -98v0v0z" />
  </g>

</svg>
