<?xml version="1.0" standalone="no"?>
<!DOCTYPE svg PUBLIC "-//W3C//DTD SVG 1.1//EN" "http://www.w3.org/Graphics/SVG/1.1/DTD/svg11.dtd" >
<svg xmlns="http://www.w3.org/2000/svg" xmlns:xlink="http://www.w3.org/1999/xlink" version="1.1" viewBox="0 -36 256 256">
  <g transform="matrix(1 0 0 -1 0 220)">
   <path fill="currentColor"
d="M104 77l1 -5q-74 -32 -83 -44l-13 18q13 3 39 13v91h-9q-10 0 -19 -2l-10 9h38v48q0 14 -1 35l24 -12l-8 -7v-64h11l11 12l17 -19h-39v-87zM233 59q0 -20 1 -40l-15 -5v14h-96v-12l-14 -7q1 37 1 97t-1 83l17 -9h37q0 45 -1 65l24 -11l-8 -8v-46h39l10 10l14 -14l-8 -6
v-111zM123 112h40v61h-40v-61zM178 112h41v61h-41v-61zM123 35h40v70h-40v-70zM178 35h41v70h-41v-70z" />
  </g>

</svg>
