<?xml version="1.0" standalone="no"?>
<!DOCTYPE svg PUBLIC "-//W3C//DTD SVG 1.1//EN" "http://www.w3.org/Graphics/SVG/1.1/DTD/svg11.dtd" >
<svg xmlns="http://www.w3.org/2000/svg" xmlns:xlink="http://www.w3.org/1999/xlink" version="1.1" viewBox="0 -205 1024 1024">
  <g transform="matrix(1 0 0 -1 0 819)">
   <path fill="currentColor"
d="M488 190h150v90h-150v-90v0v0zM688 190h154v90h-154v-90v0v0zM488 306h150v86h-150v-86v0v0zM688 392v-86h154v86h-154v0v0zM688 608h146v82h-146v-82v0v0zM496 716h142v80h-142v-80v0v0zM688 796v-80h146v80h-146v0v0zM898 958l56 -54q2 -3 2 -6q-3 -9 -14 -8h-484
q-7 -1 -56 -10l-20 36h480l36 42v0v0zM62 770l52 -28h70v236l76 -34q10 -6 2 -18l-26 -16v-168h54l26 34l54 -40q12 -9 4 -14l-22 -22v-232l4 -58q3 -15 -12 -26q-15 -12 -42 -14v46h-66v-220l86 22l-46 92l10 10q60 -60 82 -86q20 -24 28 -44q6 -18 0 -36q-5 -17 -22 -21
q-18 -3 -26 6q-7 6 -8 23q-1 14 -8 32q-204 -66 -224 -75q-21 -10 -50 -32l-38 60l164 39v230h-72v-36q0 -12 -18 -24t-36 -12l4 72v354v0v0zM112 442h72v274h-72v-274v0v0zM236 716v-274h66v274h-66v0v0zM438 454l58 -36h332l26 38l64 -42q6 -4 6 -8q0 -6 -30 -30v-142
l4 -76q0 -11 -18 -23q-16 -11 -38 -14v43h-354v-21q1 -13 -16 -26q-16 -12 -38 -12l4 107v242v0v0zM448 858l56 -36h320l26 32l58 -38q6 -4 6 -8q0 -7 -30 -28v-128l4 -72q0 -13 -18 -26q-15 -9 -36 -12v40h-338v-10q1 -13 -16 -26q-15 -12 -36 -12l4 96v228v0v0zM496 608
h142v82h-142v-82v0v0zM926 554l56 -54q2 -3 2 -6q1 -9 -10 -8h-520q-7 -1 -56 -10l-20 36h512l36 42v0v0zM926 119l56 -54q2 -3 2 -6q1 -7 -10 -8h-544q-7 1 -56 -10l-20 36h536l36 42v0v0z" />
  </g>

</svg>
