<?xml version="1.0" standalone="no"?>
<!DOCTYPE svg PUBLIC "-//W3C//DTD SVG 1.1//EN" "http://www.w3.org/Graphics/SVG/1.1/DTD/svg11.dtd" >
<svg xmlns="http://www.w3.org/2000/svg" xmlns:xlink="http://www.w3.org/1999/xlink" version="1.1" viewBox="0 -36 256 256">
  <g transform="matrix(1 0 0 -1 0 220)">
   <path fill="currentColor"
d="M69 16l-16 -7q1 46 1 117q-12 -35 -42 -67l-3 3q35 50 43 114h-10q-9 0 -18 -2l-10 9h40q0 29 -1 63l25 -10l-10 -7v-46h8l11 12l12 -19h-31v-27q16 -10 24 -18t2.5 -20t-10.5 2t-16 30q0 -107 1 -127zM173 113h-44q-8 -5 -16 -11l5 -2h42zM163 69h46v24h-44q0 -6 -2 -24
zM118 69h32q3 12 3 24h-35v-24zM135 120h39l9 9l14 -13q-9 -1 -15.5 -5.5t-14.5 -10.5h42l7 8l14 -12l-8 -4q0 -23 1 -30l-14 -6v6h-28v-27q0 -9 11 -9h25q10 0 11.5 8t1.5 28h4q1 -15 3 -23t8 -11q-5 -13 -25 -13h-31q-20 0 -20 16v31h-7q-6 -20 -27 -34.5t-52 -18.5l-1 3
q31 9 47 23.5t20 26.5h-31v-5l-14 -4q1 18 1 43q-14 -10 -27 -15l-2 3q16 10 30.5 24t24.5 28l16 -10q-7 0 -12 -6zM175 224h-41q-7 -5 -15 -10l5 -2h39zM166 182h43v23h-41q0 -6 -2 -23zM124 182h30q2 12 2 23h-32v-23zM140 231h36l8 8l15 -13q-8 0 -15.5 -4.5t-14.5 -9.5
h40l6 7l14 -12l-8 -4q0 -21 1 -27l-13 -6v5h-25v-24q0 -9 11 -9h22q7 0 9 7.5t2 26.5h4q2 -15 4 -22.5t9 -8.5q-6 -13 -26 -13h-29q-18 0 -18 14v29h-7q-5 -18 -24.5 -32t-39.5 -16v3q22 9 34.5 21t17.5 24h-29v-4l-13 -4q1 17 1 41q-10 -6 -21 -11l-2 3q14 9 26 21t19 26
l17 -10q-7 -2 -11 -6z" />
  </g>

</svg>
