<?xml version="1.0" standalone="no"?>
<!DOCTYPE svg PUBLIC "-//W3C//DTD SVG 1.1//EN" "http://www.w3.org/Graphics/SVG/1.1/DTD/svg11.dtd" >
<svg xmlns="http://www.w3.org/2000/svg" xmlns:xlink="http://www.w3.org/1999/xlink" version="1.1" viewBox="0 -154 1024 1024">
  <g transform="matrix(1 0 0 -1 0 870)">
   <path fill="currentColor"
d="M21 760h167v179q-1 22 -26 48l6 9l88 -38q19 -8 7 -14q-18 -5 -31 -16v-168h63l32 40l68 -50q12 -8 -6 -10h-157v-195l125 69l7 -14l-132 -87v-389q6 -68 -88 -88q-14 57 -101 70l2 14l47 -8q50 -8 72 -2q23 6 24 50v324q-77 -52 -86 -62q-12 -13 -28 -43l-48 51l162 90
v220h-88q-27 1 -45 -13zM881 971l8 11l85 -38q19 -9 7 -14q-18 -6 -31 -16v-800q-1 -32 -16 -53t-69 -37q-3 33 -26 42t-77 22l4 18l32 -8q66 -14 87 -6t22 53v780q-2 22 -26 46zM752 856l83 -36q14 -6 6 -11q-21 -9 -30 -21v-431l3 -57q0 -21 -13 -30q-14 -9 -35 -14
q4 36 7 149v393q2 15 -30 46zM635 980l71 -36q16 -12 7 -15q-24 -2 -34 -14q-81 -137 -128 -201h51l32 40l69 -50q15 -13 -6 -10h-160q3 -131 -8 -227h107l33 40l68 -50q15 -13 -6 -10h-204q-2 -19 -5 -33q87 -64 122 -117q38 -59 51 -101q13 -43 7 -70q-6 -28 -28 -26
q-23 2 -24 50q-2 47 -32 110q-28 55 -99 133q-14 -81 -37 -131q-62 -130 -214 -220l-8 14q132 103 186 219q27 58 39 172h-103q-27 0 -45 -13l-34 33h184q9 95 8 227h-70q-27 0 -46 -13l-34 33h186q43 81 75 149q32 70 30 82q-3 12 -10 27zM348 960l8 12q57 -36 87 -72
q30 -38 39 -68q10 -31 1 -52q-8 -22 -26 -19q-18 1 -20 43q-2 41 -26 80q-25 40 -63 76z" />
  </g>

</svg>
