<?xml version="1.0" standalone="no"?>
<!DOCTYPE svg PUBLIC "-//W3C//DTD SVG 1.1//EN" "http://www.w3.org/Graphics/SVG/1.1/DTD/svg11.dtd" >
<svg xmlns="http://www.w3.org/2000/svg" xmlns:xlink="http://www.w3.org/1999/xlink" version="1.1" viewBox="0 -36 256 256">
  <g transform="matrix(1 0 0 -1 0 220)">
   <path fill="currentColor"
d="M51 169q-13 0 -22 -3l-10 10h93q3 5 8 21l21 -12l-9 -2l-4 -7h83l12 10l16 -17h-92q22 -16 36 -24q20 11 34 24l19 -14l-14 -1l-33 -11q27 -16 61 -19v-4q-16 -1 -18 -12q-61 23 -91 61h-16q-32 -39 -117 -55l-1 4q35 10 61.5 23.5t38.5 27.5h-56zM199 77l-14 -4v5h-115
v-4l-15 -5v65l13 -5h113l8 7l17 -10l-7 -3v-46zM69 107h116v15h-116v-15zM69 85h116v15h-116v-15zM35 167q26 -9 30.5 -14t-1 -11.5t-11.5 2t-20 21.5zM68 59.5q9 -5.5 10 -12.5t-4.5 -11t-11 8.5t-20.5 20.5l1 4q16 -4 25 -9.5zM214 50l-9 2q-21 -9 -43 -18l-8 2
q40 23 44 31zM143 69l-9 -4l-5 -10q19 -16 49 -25t69 -6v-4q-16 -2 -18 -12q-62 0 -102 43q-15 -20 -40 -30t-72 -13l-1 3q42 7 62.5 15.5t31.5 22t13 30.5zM66 233l-10 -13h53l10 11l16 -18h-55q19 -9 20 -16t-5 -12.5t-9 6t-15 22.5h-19q-18 -20 -39 -35l-4 2
q16 16 27 31.5t19 35.5l21 -11zM170 234l-11 -14h57l11 10l15 -17h-61q14 -6 18.5 -11t3 -11t-6 -7t-8 8.5t-16.5 20.5h-17q-13 -13 -30 -27l-3 2q19 24 26.5 37t10.5 22l22 -11z" />
  </g>

</svg>
