<?xml version="1.0" standalone="no"?>
<!DOCTYPE svg PUBLIC "-//W3C//DTD SVG 1.1//EN" "http://www.w3.org/Graphics/SVG/1.1/DTD/svg11.dtd" >
<svg xmlns="http://www.w3.org/2000/svg" xmlns:xlink="http://www.w3.org/1999/xlink" version="1.1" viewBox="0 -36 256 256">
  <g transform="matrix(1 0 0 -1 0 220)">
   <path fill="currentColor"
d="M170 106h-14v72q-30 -43 -82 -69l-2 4q45 29 75 78h-33q-10 0 -19 -2l-9 9h70q0 19 -1 46l24 -9l-9 -8v-29h44l14 12l17 -19h-75v-85zM176 179q46 -17 58 -27t9 -23.5t-14.5 4t-53.5 42.5zM107 53q0 12 -1 62l17 -7h83l7 11l16 -12l-7 -7v-39.5t1 -38.5l-15 -7v19h-87
v-14l-15 -7q1 28 1 40zM121 41h87v60h-87v-60zM52 64v98q-21 -27 -38 -42l-2 3q13 16 22.5 31t24.5 43t22 48l18 -15q-4 -2 -14 -16t-23 -37l12 -8l-8 -7v-146l-15 -7q1 27 1 55z" />
  </g>

</svg>
