<?xml version="1.0" standalone="no"?>
<!DOCTYPE svg PUBLIC "-//W3C//DTD SVG 1.1//EN" "http://www.w3.org/Graphics/SVG/1.1/DTD/svg11.dtd" >
<svg xmlns="http://www.w3.org/2000/svg" xmlns:xlink="http://www.w3.org/1999/xlink" version="1.1" viewBox="0 -205 1024 1024">
  <g transform="matrix(1 0 0 -1 0 819)">
   <path fill="currentColor"
d="M364 444h424v130l80 -30q8 -4 8 -10t-36 -18v-72h58l38 46l70 -54q3 -4 4 -10q0 -10 -12 -10h-158v-289q0 -33 -20 -60q-19 -23 -64 -32q-3 29 -32 46q-27 16 -102 38l4 18q81 -17 108 -22q28 -3 44 2q15 7 10 51v248h-356q-21 0 -44 -8l-24 36v0v0zM486 372l8 10
q63 -31 102 -62q35 -31 44 -62q6 -30 -6 -42q-13 -13 -32 -10q-18 3 -24 36q-6 32 -30 62q-21 29 -62 68v0v0zM416 932h414l32 42l62 -42q8 -6 8 -12t-36 -30v-174l4 -90q0 -19 -32 -34q-19 -6 -22 -6v38h-364q-23 0 -52 -6l-20 32h436v114h-312q-25 0 -52 -6l-20 32h384
v116h-370q-21 -3 -36 -6l-24 32v0v0zM112 886l56 -40h104l32 40l58 -38q12 -6 12 -14q-1 -3 -34 -30v-406l4 -100q0 -12 -14 -24q-16 -13 -40 -16v88h-128v-100q0 -12 -20 -24q-19 -12 -34 -12l4 142v534v0v0zM162 376h128v440h-128v-440v0v0z" />
  </g>

</svg>
