<?xml version="1.0" standalone="no"?>
<!DOCTYPE svg PUBLIC "-//W3C//DTD SVG 1.1//EN" "http://www.w3.org/Graphics/SVG/1.1/DTD/svg11.dtd" >
<svg xmlns="http://www.w3.org/2000/svg" xmlns:xlink="http://www.w3.org/1999/xlink" version="1.1" viewBox="0 -205 1024 1024">
  <g transform="matrix(1 0 0 -1 0 819)">
   <path fill="currentColor"
d="M640 820h224l30 30q60 -52 64 -58q4 -7 -4 -10t-28 -8t-64 -46q-44 -42 -100 -104l-16 10l120 160h-244q-81 -123 -156 -192l-14 10q65 84 116 178q50 94 92 182q75 -36 76 -44q0 -7 -6 -8t-20 -8q-12 -6 -26 -26q-15 -18 -44 -66v0v0zM546 516v-170h64l34 42l52 -50
q3 -5 4 -10q0 -7 -8 -8h-146v-176h360v176h-86q-22 0 -50 -8l-22 34h158v158h-98q-27 -1 -56 -8l-22 34h162l40 34l50 -38q6 -6 6 -12q0 -3 -32 -26v-326l4 -87q3 -18 -18 -28q-21 -12 -36 -12v82h-360v-48q0 -15 -18 -24q-18 -12 -36 -12l4 119v420l50 -34q48 17 138 80
q58 -43 56 -50q-3 -6 -8 -6q-7 -2 -22 0q-15 0 -60 -12q-42 -11 -104 -34v0v0zM390 792l38 42l56 -48q3 -3 4 -8q0 -12 -12 -12h-356q-18 -1 -66 -10l-18 36h354v0v0zM94 668h262l32 44l58 -50q2 -3 2 -8q0 -12 -12 -12h-254q-22 0 -70 -8l-18 34v0v0zM132 434l58 -38h144
l28 36l58 -44q6 -6 6 -8q0 -7 -30 -26v-184l4 -73q0 -12 -20 -24q-19 -12 -34 -12v70h-162v-54q0 -18 -20 -30q-18 -13 -36 -14l4 111v290v0v0zM184 156h162v214h-162v-214v0v0zM92 536h262l30 46l60 -52q2 -3 2 -8q0 -12 -12 -12h-254q-22 0 -70 -8l-18 34v0v0zM176 968
l10 10q79 -46 98 -74q19 -27 18 -48q0 -22 -12 -32q-13 -11 -28 -6q-16 3 -20 22q-2 19 -10 44q-6 24 -56 84v0v0z" />
  </g>

</svg>
