<?xml version="1.0" standalone="no"?>
<!DOCTYPE svg PUBLIC "-//W3C//DTD SVG 1.1//EN" "http://www.w3.org/Graphics/SVG/1.1/DTD/svg11.dtd" >
<svg xmlns="http://www.w3.org/2000/svg" xmlns:xlink="http://www.w3.org/1999/xlink" version="1.1" viewBox="0 -36 256 256">
  <g transform="matrix(1 0 0 -1 0 220)">
   <path fill="currentColor"
d="M206 222l14 13l18 -20h-108q-11 0 -19 -2l-9 9h104zM131 182h68l7 11l17 -11l-7 -9v-32q0 -22 1 -38l-16 -7v13h-70v-7l-16 -5q1 21 1 44.5t-1 49.5zM131 116h70v59h-70v-59zM147.5 70q6.5 -9 0 -19t-9 0t-8.5 21t-12 19l3 2q20 -14 26.5 -23zM174 33q9 22 14.5 38.5
t6.5 26.5l21 -11l-8 -5q-19 -36 -27 -49h36l12 12l18 -19h-135q-10 0 -19 -2l-9 9h90zM22 9q1 42 1 119t-1 107l16 -9h38l7 9l15 -13l-6 -5q-13 -23 -28 -52q16 -13 23 -26t5.5 -25.5t-8.5 -19.5t-22 -11q-1 13 -21 18v4q12 -2 23 -2.5t13 8t-0.5 21.5t-19.5 33l20 54h-40
v-202z" />
  </g>

</svg>
