<?xml version="1.0" standalone="no"?>
<!DOCTYPE svg PUBLIC "-//W3C//DTD SVG 1.1//EN" "http://www.w3.org/Graphics/SVG/1.1/DTD/svg11.dtd" >
<svg xmlns="http://www.w3.org/2000/svg" xmlns:xlink="http://www.w3.org/1999/xlink" version="1.1" viewBox="0 -36 256 256">
  <g transform="matrix(1 0 0 -1 0 220)">
   <path fill="currentColor"
d="M36 197h64v16h-64v-16zM36 172h64v18h-64v-18zM36 148h64v17h-64v-17zM56 246l16 -10q-10 -4 -21 -16h47l8 9l13 -13l-6 -5v-43q0 -15 1 -28l-14 -7v8h-64v-2l-14 -5q1 32 1 54t-1 39l14 -7h9q7 12 11 26zM45 119.5q5 -4.5 4.5 -10.5t-4.5 -9.5t-8 5.5t-19 27l2 2
q20 -10 25 -14.5zM61 143h12v-84h32l13 11l14 -18h-59q0 -20 1 -37l-14 -7q1 24 1 44h-25q-10 0 -20 -2l-9 9h54v84zM79 105q9 7 17 14t15 19l12 -15q-10 -3 -19.5 -8.5t-21.5 -12.5zM106 90q6 -4 6.5 -10t-3.5 -10.5t-10 7t-20 22.5l2 2q19 -7 25 -11zM29.5 84
q11.5 4 26.5 13l1 -4q-13 -9 -21 -16t-14 -14l-11 14q7 3 18.5 7zM186.5 213.5q-2.5 8.5 -16.5 25.5l2 3q14 -5 22.5 -11.5t1.5 -16t-9.5 -1zM181 199q-6 -11 -17 -28v-47q7 4 33 18l2 -3q-24 -16 -39 -37l-13 12q6 6 6 20v25q-14 -15 -34 -24l-1 2q36 31 47 62h-14
q-9 1 -20 -4l-8 11h93l12 10l15 -17h-53q4 -16 14 -34q12 14 19 28l13 -14l-9 -3q-9 -7 -20 -16q14 -28 41 -35v-3q-14 2 -21 -8q-31 25 -42 85h-4zM179 61q19 22 30 55l17 -12l-7 -5q-13 -25 -30 -47q15 -12 29.5 -18t29.5 -7v-5q-13 -2 -17 -11q-14 4 -27.5 13t-25.5 18
q-30 -26 -74 -34l-1 3q45 16 67 40q-18 25 -27 54l3 2q13 -26 33 -46z" />
  </g>

</svg>
