<?xml version="1.0" standalone="no"?>
<!DOCTYPE svg PUBLIC "-//W3C//DTD SVG 1.1//EN" "http://www.w3.org/Graphics/SVG/1.1/DTD/svg11.dtd" >
<svg xmlns="http://www.w3.org/2000/svg" xmlns:xlink="http://www.w3.org/1999/xlink" version="1.1" viewBox="0 -205 1024 1024">
  <g transform="matrix(1 0 0 -1 0 819)">
   <path fill="currentColor"
d="M532 940q6 -3 4 -6q1 -9 -6 -12q-42 6 -108 -30q-67 -34 -164 -80l494 22q-42 27 -146 84l8 16q117 -42 166 -66q48 -22 70 -50q22 -27 14 -48q-6 -20 -30 -22q-22 0 -34 24q-11 24 -28 40q-367 -26 -448 -34q-82 -7 -112 -28l-32 66q21 -1 52 10q114 60 240 160l60 -46
v0v0zM240 516q-91 -57 -206 -108l-8 16q86 52 154 98q68 44 160 130h-198q-21 1 -50 -10l-28 36h298q36 40 70 92l64 -28q15 -10 -2 -16q-18 -1 -30 -10l-38 -38h442l34 46l62 -56q8 -11 -4 -16h-280q48 -51 100 -80q50 -30 100 -44q48 -13 124 -20v-18q-31 -4 -52 -10
q-18 -7 -36 -34q-60 30 -122 70v-224l4 -84q0 -18 -18 -30t-38 -14v38h-450v-20q0 -3 -18 -14q-18 -13 -38 -14l4 100v262v0v0zM292 228h450v84h-450v-84v0v0zM292 338h450v86h-450v-86v0v0zM292 450h450v84h-450v-84v0v0zM72 33q172 62 326 151l56 -38q9 -12 -8 -15
q-35 2 -106 -30q-71 -29 -262 -86l-6 18v0v0zM586 146l4 18q150 -22 216 -37q63 -15 90 -36q25 -21 20 -42q-3 -18 -18 -22q-15 -3 -42 14q-25 18 -70 42t-200 63v0v0zM300 560h432q-41 38 -82 92h-242q-60 -51 -108 -92v0v0z" />
  </g>

</svg>
