<?xml version="1.0" standalone="no"?>
<!DOCTYPE svg PUBLIC "-//W3C//DTD SVG 1.1//EN" "http://www.w3.org/Graphics/SVG/1.1/DTD/svg11.dtd" >
<svg xmlns="http://www.w3.org/2000/svg" xmlns:xlink="http://www.w3.org/1999/xlink" version="1.1" viewBox="0 -246 2048 2048">
  <g transform="matrix(1 0 0 -1 0 1802)">
   <path fill="currentColor"
d="M1597 385q-144 -172 -391 -291l-27 46q223 122 361 331q-111 191 -168 455h-90l-21 51h461l70 86q116 -107 116 -137q0 -10 -12 -16l-57 -31q-74 -249 -178 -408q119 -144 307 -245q-51 -43 -88 -111q-172 119 -283 270zM1429 926q63 -219 164 -367q84 152 137 367h-301z
M886 662h-229l-21 51h277v152q-120 -17 -225 -23l-19 47q290 47 457 139q100 -78 100 -111q0 -18 -31 -18q-14 0 -55 11q-69 -19 -127 -29v-168h102l70 96q71 -60 105 -106l-21 -41h-256v-76q137 -44 203 -108q47 -45 47 -86q0 -62 -55 -62q-30 0 -54 37q-65 113 -141 168
v-440h-100v422q-115 -166 -313 -293l-31 39q211 181 317 399zM1194 1133q9 -8 25 -28l-25 -39h-459l-20 51h319l76 100q16 -14 45 -43q13 44 18 96h-436q-3 -80 -30 -135q-32 -59 -74 -59q-60 0 -60 57q0 28 31 62q72 74 82 204l43 -4q6 -37 6 -74h430l62 70
q96 -91 108 -119q29 121 29 295v295q62 -23 112 -57h126l69 86q110 -101 110 -119q0 -7 -12 -16l-49 -33v-406q0 -45 51 -45q43 0 56 51q17 66 26 216l49 -21q0 -160 15 -197q15 -35 51 -35q-3 -71 -51 -91q-46 -17 -136 -17q-107 0 -136 21q-29 22 -29 100v455h-148v-187
q0 -331 -174 -519l-37 28q45 76 68 158q-4 -2 -16 -6l-39 -9q-26 -35 -76 -86zM319 1477v453q197 -9 197 -58q0 -26 -88 -53v-342h45l74 106q54 -54 102 -122l-20 -35h-201v-217q201 -169 201 -307q0 -70 -57 -70q-53 0 -62 68q-20 143 -82 248v-1055h-109v969
q-72 -287 -219 -561l-45 28q172 416 252 897h-205l-21 51h238zM901 1491v185h-240l-20 51h260v197q178 0 178 -43q0 -24 -72 -52v-102h109l77 106q53 -50 109 -116l-18 -41h-277v-185h80l80 103q63 -61 102 -113l-18 -41h-538l-21 51h209z" />
  </g>

</svg>
