<?xml version="1.0" standalone="no"?>
<!DOCTYPE svg PUBLIC "-//W3C//DTD SVG 1.1//EN" "http://www.w3.org/Graphics/SVG/1.1/DTD/svg11.dtd" >
<svg xmlns="http://www.w3.org/2000/svg" xmlns:xlink="http://www.w3.org/1999/xlink" version="1.1" viewBox="0 -36 256 256">
  <g transform="matrix(1 0 0 -1 0 220)">
   <path fill="currentColor"
d="M54 245q23 -12 27.5 -20.5t-3 -17.5t-11 5.5t-16.5 29.5zM62 122q-21 -26 -50 -45l-2 3q26 24 44.5 51t30.5 52h-40q-10 0 -19 -2l-9 9h69l8 12l18 -17l-10 -4l-26 -40q28 -11 33 -19t0 -18t-11.5 4t-21.5 27q0 -99 1 -118l-16 -6q1 41 1 111zM150 125v-81q-1 -16 16 -14
h48q6 1 7.5 14.5t2.5 36.5h5q0 -22 2 -34t13 -15q-7 -16 -29 -15h-57q-23 0 -22 23v161q0 21 -1 41l27 -10l-12 -9v-90q32 24 45.5 38t20.5 26l17 -19l-12 -2q-30 -26 -71 -51z" />
  </g>

</svg>
