<?xml version="1.0" standalone="no"?>
<!DOCTYPE svg PUBLIC "-//W3C//DTD SVG 1.1//EN" "http://www.w3.org/Graphics/SVG/1.1/DTD/svg11.dtd" >
<svg xmlns="http://www.w3.org/2000/svg" xmlns:xlink="http://www.w3.org/1999/xlink" version="1.1" viewBox="0 -36 256 256">
  <g transform="matrix(1 0 0 -1 0 220)">
   <path fill="currentColor"
d="M98 113l-7 -11h35l7 10l13 -14l-8 -5q-15 -29 -27 -45q14 -15 49.5 -21t87.5 -2v-4q-15 -1 -20 -12q-47 0 -76.5 6t-50.5 23q-29 -24 -64 -30l-1 3q39 16 56 38q-6 11 -13 32q-12 -16 -28 -28l-2 2q28 37 38 73l17 -11zM82 87q7 -16 19 -31q17 21 24 39h-37zM76 184
l23 -9l-8 -7v-10l12 2l9 11l7 -4l11 16h-84q1 -31 -2 -84t-33 -91l-4 1q22 44 24 96.5t1 92.5l16 -8h33q0 43 -1 57l22 -8l-8 -6v-15h29l11 10l14 -17h-54v-21h35l10 8l13 -14q-12 -1 -30 -19l6 -7l-37 -6v-9q0 -8 9 -8h19q7 0 14 2.5t11 -1.5t0 -7t-10.5 -3.5t-15.5 -0.5
h-24q-16 0 -16 17v8l-15 -3l-6 -4l-8 8l29 5q1 16 -2 28zM170 169h41v50h-41v-50zM170 113h41v49h-41v-49zM170 48h41v58h-41v-58zM156 234l14 -8h40l8 9l13 -13l-7 -6v-168l11 10l13 -17h-84q-11 0 -20 -2l-9 9h22v144q0 16 -1 42z" />
  </g>

</svg>
