<?xml version="1.0" standalone="no"?>
<!DOCTYPE svg PUBLIC "-//W3C//DTD SVG 1.1//EN" "http://www.w3.org/Graphics/SVG/1.1/DTD/svg11.dtd" >
<svg xmlns="http://www.w3.org/2000/svg" xmlns:xlink="http://www.w3.org/1999/xlink" version="1.1" viewBox="0 -36 256 256">
  <g transform="matrix(1 0 0 -1 0 220)">
   <path fill="currentColor"
d="M209 99h18v42h-18v-42zM233 194q0 -13 1 -21l-14 -7v9h-37v-8l-13 -4q1 19 1 37t-1 36l14 -10h35l7 10l13 -13l-6 -6v-23zM183 182h37v37h-37v-37zM239 112q0 -11 1 -26l-13 -6v12h-48v-43q-1 -24 7 -24h38q7 1 8 14.5t1 26.5h5q0 -33 10 -37q-6 -15 -20 -15h-44
q-18 -1 -17 32v73q0 20 -1 37l12 -8h49l6 10l13 -12l-7 -7v-27zM179 99h18v42h-18v-42zM113 180h34v28h-34v-28zM113 148h34v25h-34v-25zM101 178.5q0 24.5 -1 43.5l13 -7h6q8 23 9 32l16 -10l-7 -5q-8 -10 -13 -17h22l7 10l13 -12l-7 -7v-40q0 -13 1 -28l-13 -5v8h-34v-6
l-13 -4q1 23 1 47.5zM111 13l-10 16l3 8v55q0 22 -1 30l20 -8l-6 -7v-24h21l13 12l12 -19h-46v-41l43 18l1 -5q-41 -22 -50 -35zM59 99h20v42h-20v-42zM86 173l-13 -7v9h-38v-6l-14 -4q1 17 1 35t-1 36l14 -10h37l8 10l11 -12l-6 -6q0 -37 1 -45zM35 182h38v37h-38v-37z
M92 85l-13 -6v13h-52v-43q-1 -24 9 -24h39q5 2 6 15t1 26h4q0 -4 1 -18t9 -18q-7 -17 -17 -16h-44q-22 -1 -21 32v73q0 20 -1 40l14 -11h52l7 10l12 -13l-7 -6q0 -38 1 -54zM27 99h20v42h-20v-42z" />
  </g>

</svg>
