<?xml version="1.0" standalone="no"?>
<!DOCTYPE svg PUBLIC "-//W3C//DTD SVG 1.1//EN" "http://www.w3.org/Graphics/SVG/1.1/DTD/svg11.dtd" >
<svg xmlns="http://www.w3.org/2000/svg" xmlns:xlink="http://www.w3.org/1999/xlink" version="1.1" viewBox="0 -36 256 256">
  <g transform="matrix(1 0 0 -1 0 220)">
   <path fill="currentColor"
d="M31 102h17v72h-17v-72zM60 102h16v72h-16v-72zM48 48v47h-17v-6l-13 -7q1 21 1 52.5t-1 54.5l12 -8h18q0 44 -1 60l20 -10l-7 -8v-42h16l6 7l13 -12l-7 -5v-53q0 -19 1 -24l-13 -7v8h-16v-45l18 5q-1 10 -8 31l3 2q21 -24 21 -33t-5 -15t-7 -3t-3 13q-21 -8 -37.5 -15
t-22.5 -13l-10 17q11 0 39 9zM101.5 66q4.5 27 6 71t-0.5 95l14 -8h99l13 11l14 -18h-126q1 -104 -5.5 -144t-33.5 -66l-3 2q18 30 22.5 57zM138 182q0 16 -1 28l13 -6h59l7 8l14 -11l-6 -5q0 -26 1 -39l-14 -4v6h-23v-17h19l10 9l13 -16h-42v-13h33l12 10l13 -17h-93
q-10 0 -19 -2l-10 9h52v13h-13q-10 0 -19 -2l-9 9h41v17h-26v-4l-13 -3q1 14 1 30zM176 166v31h-26v-31h26zM188 197v-31h23v31h-23zM139 75q-7 -4 -13 -2.5t2.5 10.5t15.5 23l2 -1q0 -26 -7 -30zM175.5 92q4.5 -6 -1.5 -14t-8 2.5t-8 24.5l2 2q11 -9 15.5 -15zM207 86.5
q-2 -7.5 -5.5 -11t-5.5 6.5t-11 24l2 2q22 -14 20 -21.5zM233 94.5q6 -7.5 0.5 -16t-8.5 3.5t-12 25l3 2q11 -7 17 -14.5zM175 81l20 -9l-7 -7v-8h24l11 11l14 -18h-49v-26h33l12 11l14 -18h-107q-10 0 -20 -2l-9 9h65v26h-18q-10 0 -19 -2l-9 9h46q0 12 -1 24zM214 178h-67
v7h67v-7z" />
  </g>

</svg>
