<?xml version="1.0" standalone="no"?>
<!DOCTYPE svg PUBLIC "-//W3C//DTD SVG 1.1//EN" "http://www.w3.org/Graphics/SVG/1.1/DTD/svg11.dtd" >
<svg xmlns="http://www.w3.org/2000/svg" xmlns:xlink="http://www.w3.org/1999/xlink" version="1.1" viewBox="0 -36 256 256">
  <g transform="matrix(1 0 0 -1 0 220)">
   <path fill="currentColor"
d="M59.5 203q-16.5 -22 -30.5 -38h48q8 13 15 33l19 -16q-7 -2 -26.5 -27.5t-47.5 -54.5l60 6q-8 20 -15 30l3 4q29 -26 31 -36.5t-4 -18t-8 -1t-5 15.5q-35 -6 -48 -10.5t-25 -12.5l-11 21q8 1 22.5 15.5t36.5 45.5q-21 -2 -31 -4t-22 -9l-10 19q10 2 27 26t28 53l18 -15
q-8 -4 -24.5 -26zM31 73q10 -30 10 -39t-6.5 -15t-13 -4t-1 13t5.5 44zM62 74q23 -24 23 -35.5t-7.5 -17.5t-8 8t-10.5 43zM100 81q22 -19 25.5 -29t-4.5 -19t-10.5 6.5t-13.5 39.5zM143 247l24 -11q-9 -4 -26 -41h76l10 13l19 -15l-11 -8q-1 -138 -10.5 -155t-29.5 -22
q-3 18 -40 24v5q44 -6 51.5 -1t9.5 39.5t3 112.5h-82q-24 -39 -33 -45l-3 2q35 55 42 102z" />
  </g>

</svg>
