<?xml version="1.0" standalone="no"?>
<!DOCTYPE svg PUBLIC "-//W3C//DTD SVG 1.1//EN" "http://www.w3.org/Graphics/SVG/1.1/DTD/svg11.dtd" >
<svg xmlns="http://www.w3.org/2000/svg" xmlns:xlink="http://www.w3.org/1999/xlink" version="1.1" viewBox="0 -205 1024 1024">
  <g transform="matrix(1 0 0 -1 0 819)">
   <path fill="currentColor"
d="M374 828h258v152l86 -34q12 -9 -6 -18l-28 -12v-88h174l40 50l60 -56q3 -3 4 -6q0 -13 -12 -14h-266v-102h124l34 38l56 -42l4 -8q1 -6 -28 -26v-178l4 -92q0 -10 -18 -22q-18 -10 -38 -10v42h-110q30 -67 64 -112q33 -45 84 -86q48 -42 130 -56v-17q-29 0 -52 -6
q-22 -5 -40 -26q-49 33 -88 81q-39 45 -68 96t-52 126h-6v-279l4 -66q1 -10 -22 -24q-21 -15 -38 -12l4 106v227q-49 -83 -122 -166q-72 -79 -150 -133l-10 10q66 63 132 149t120 188h-106v-14q3 -10 -18 -22q-21 -10 -38 -10l4 102v280l52 -38h136v102h-186q-21 0 -56 -8
l-16 34v0v0zM496 428h136v108h-136v-108v0v0zM684 536v-108h138v108h-138v0v0zM496 562h136v112h-136v-112v0v0zM684 674v-112h138v112h-138v0v0zM110 952l62 -46h114l32 38l52 -42q9 -6 10 -12q-1 -6 -34 -24v-722q3 -41 -8 -67q-9 -26 -60 -44q-4 25 -26 40q-22 16 -86 34
l6 18q66 -15 84 -18q18 -1 30 6q12 6 10 31v294h-136q-3 -112 -18 -170q-12 -57 -42 -128q-30 -67 -80 -125l-12 10q45 79 64 141q17 61 28 164q12 102 10 216v406v0v0zM296 464v190h-134v-190h134v0v0zM162 680h134v200h-134v-200v0v0z" />
  </g>

</svg>
