<?xml version="1.0" standalone="no"?>
<!DOCTYPE svg PUBLIC "-//W3C//DTD SVG 1.1//EN" "http://www.w3.org/Graphics/SVG/1.1/DTD/svg11.dtd" >
<svg xmlns="http://www.w3.org/2000/svg" xmlns:xlink="http://www.w3.org/1999/xlink" version="1.1" viewBox="0 -205 1024 1024">
  <g transform="matrix(1 0 0 -1 0 819)">
   <path fill="currentColor"
d="M514 816q-27 -7 -86 -28v-152h62l34 42l52 -54q2 0 2 -6q0 -7 -8 -8h-142v-168h164q18 141 16 282v266q93 -33 94 -38q0 -3 -2 -8q0 -5 -42 -22v-214q0 -147 -18 -266h190v168h-86q-21 0 -48 -8l-24 34h158v164h-74q-18 0 -42 -8l-24 36h132l28 38l56 -42q7 -6 8 -12
q-1 -7 -34 -28v-296l4 -92q-1 -15 -22 -26q-19 -12 -32 -12v58h-156q36 -102 84 -170q45 -68 102 -97t132 -40v-18q-49 -3 -70 -10q-18 -6 -36 -28q-60 36 -96 78q-37 38 -68 91q-30 51 -72 190h-16q-35 -156 -130 -240q-94 -82 -244 -139l-6 16q132 66 216 145
q81 78 118 222h-160v-18q-1 -15 -20 -26q-19 -10 -34 -10l4 120v368l54 -36q68 39 98 72q48 -43 52 -50q2 -7 -4 -10q-5 -1 -22 -2q-15 0 -42 -8v0v0zM190 438q-18 -49 -38 -52t-106 -2l-2 -20q66 -6 90 -14q25 -7 32 -22q8 -13 8 -44t-8 -88q-10 -57 -8 -85q1 -28 20 -38
q18 -9 36 0q16 9 20 36q3 24 -8 87q-9 62 -12 104q-1 42 4 64q6 21 16 54l124 394l-22 6l-146 -380v0v0zM146 960l6 14q48 -17 84 -34q33 -18 52 -38q17 -19 20 -40q3 -19 -8 -34q-9 -13 -26 -14q-18 0 -24 16q-6 14 -14 34q-9 20 -24 38q-15 17 -66 58v0v0zM48 712l6 14
q42 -15 78 -32q35 -15 52 -36q15 -18 18 -38q1 -20 -10 -34q-12 -15 -26 -14q-15 0 -20 16q-6 15 -14 34q-10 18 -28 40q-18 20 -56 50v0v0z" />
  </g>

</svg>
