<?xml version="1.0" standalone="no"?>
<!DOCTYPE svg PUBLIC "-//W3C//DTD SVG 1.1//EN" "http://www.w3.org/Graphics/SVG/1.1/DTD/svg11.dtd" >
<svg xmlns="http://www.w3.org/2000/svg" xmlns:xlink="http://www.w3.org/1999/xlink" version="1.1" viewBox="0 -36 256 256">
  <g transform="matrix(1 0 0 -1 0 220)">
   <path fill="currentColor"
d="M172 247l20 -11l-7 -5l-2 -14h28l12 11l13 -18h-54l-2 -19h21l7 9l15 -12l-7 -8v-84h4l10 10l14 -17h-101q-10 0 -20 -2l-9 9h21q0 86 -1 102l14 -7h21l1 19h-23q-10 0 -19 -2l-10 9h53q1 15 1 30zM165 70q-10 -3 -21.5 -12.5t-32.5 -22.5l-2 4q30 25 44 48zM226.5 64
q7.5 -8 4 -19.5t-13.5 4.5t-26 30l1 3q27 -10 34.5 -18zM148 167h54v17h-54v-17zM148 144h54v16h-54v-16zM148 96h54v16h-54v-16zM148 119h54v18h-54v-18zM61 198q0 29 -1 48l20 -10l-6 -8v-30h14l10 10l13 -17h-37v-40h21l11 12l14 -19h-51l17 -8l-7 -6v-28h13l11 11
l13 -18h-37v-49q20 -14 58 -18t111 4v-4q-15 -3 -17 -15q-51 -1 -85 0.5t-60.5 15.5t-44.5 37q-7 -30 -31 -58l-3 3q16 26 22 55.5t5 57.5l19 -9l-5 -7q-1 -17 -4 -36q9 -11 22 -19v58v18l-1 15h-28q-9 0 -17 -2l-8 9h49v40h-11q-9 0 -18 -2l-7 9h36z" />
  </g>

</svg>
