<?xml version="1.0" standalone="no"?>
<!DOCTYPE svg PUBLIC "-//W3C//DTD SVG 1.1//EN" "http://www.w3.org/Graphics/SVG/1.1/DTD/svg11.dtd" >
<svg xmlns="http://www.w3.org/2000/svg" xmlns:xlink="http://www.w3.org/1999/xlink" version="1.1" viewBox="0 -36 256 256">
  <g transform="matrix(1 0 0 -1 0 220)">
   <path fill="currentColor"
d="M87.5 232.5q4.5 -6.5 -1.5 -15t-9.5 3t-15.5 23.5l2 3q20 -8 24.5 -14.5zM57 161l27 1q7 10 13 22l16 -12l-8 -4q-26 -34 -41 -47q17 1 38 3q-5 11 -8 17l3 2q16 -16 19.5 -23.5t-3 -15t-7.5 -1t-3 13.5q-44 -8 -49 -13l-8 17q5 0 15.5 10t20.5 26q-27 -6 -28 -10l-9 16
q7 1 16 13t15 28h-30q-10 0 -20 -2l-9 9h100l11 12l17 -19h-66l15 -8l-8 -5q-12 -14 -29 -30zM21 197q22 -10 26 -16.5t-2 -14t-9 2.5t-17 25zM52 142l3 -3q-16 -16 -22.5 -24t-7.5 -12l-11 13q9 5 38 26zM113 157l-2 2q16 19 24 38l15 -16l-8 -1q-11 -11 -29 -23z
M145 129.5q7 -6.5 2 -17t-10 1t-23 29.5l2 2q22 -9 29 -15.5zM88 18l-15 -8q1 19 1 66h-35q-11 -1 -20 -3l-9 10h64q0 13 -1 26l22 -8l-8 -7v-11h35l12 12l18 -19h-65q0 -38 1 -58zM224 222l8 9l13 -12l-6 -7q-7 -147 -13.5 -169.5t-26.5 -30.5q-1 13 -28 23l1 5
q14 -3 25 -4.5t16 17t12 162.5h-39q-3 -84 -20 -130t-55 -77l-3 3q33 36 47 78t17 126h-4q-9 0 -17 -3l-9 10h82z" />
  </g>

</svg>
