<?xml version="1.0" standalone="no"?>
<!DOCTYPE svg PUBLIC "-//W3C//DTD SVG 1.1//EN" "http://www.w3.org/Graphics/SVG/1.1/DTD/svg11.dtd" >
<svg xmlns="http://www.w3.org/2000/svg" xmlns:xlink="http://www.w3.org/1999/xlink" version="1.1" viewBox="0 -205 1024 1024">
  <g transform="matrix(1 0 0 -1 0 819)">
   <path fill="currentColor"
d="M50 816h126v156l74 -28q10 -7 0 -16l-28 -12v-100h184v154l72 -28q19 -6 8 -18l-34 -14v-94h64l34 42l52 -48q3 -3 4 -8q0 -12 -12 -12h-142v-370h40l34 44l58 -52q3 -4 4 -10q0 -7 -12 -8h-412v-259h318l30 39l64 -49q3 -2 4 -8q0 -7 -8 -8h-404l-30 -32l-54 46l32 21
v250h-28q-22 0 -46 -8l-16 34h150v370h-54q-20 0 -52 -8l-20 34v0v0zM222 420h184v114h-184v-114v0v0zM222 560h184v106h-184v-106v0v0zM222 692h184v98h-184v-98v0v0zM290 358q62 -23 64 -34q0 -10 -6 -10q-7 0 -20 -6q-13 -5 -38 -34q-23 -27 -100 -116l-14 10
q63 90 114 190v0v0zM380 348l8 14q81 -52 102 -82q18 -30 18 -50q0 -18 -12 -30q-9 -12 -24 -8q-15 3 -18 24q-1 21 -16 54q-13 33 -58 78v0v0zM932 482l70 -44q6 -3 6 -8q0 -6 -18 -12l-150 -36v-232l4 -93q0 -12 -18 -24q-19 -12 -38 -16l4 131v224l-204 -46
q-26 -10 -40 -22l-32 34l276 62v590l82 -36q3 -7 4 -10q0 -3 -6 -6l-32 -16v-512l68 16l24 56v0v0zM566 640l10 10q68 -36 92 -60q24 -23 28 -46q3 -24 -2 -38q-7 -16 -26 -16q-17 0 -22 24q-5 21 -16 46q-11 23 -64 80v0v0zM604 866l10 10q62 -37 86 -64q24 -25 28 -44
q3 -19 -2 -34q-7 -16 -26 -16q-17 0 -22 24q-5 21 -16 46q-11 24 -58 78v0v0z" />
  </g>

</svg>
