<?xml version="1.0" standalone="no"?>
<!DOCTYPE svg PUBLIC "-//W3C//DTD SVG 1.1//EN" "http://www.w3.org/Graphics/SVG/1.1/DTD/svg11.dtd" >
<svg xmlns="http://www.w3.org/2000/svg" xmlns:xlink="http://www.w3.org/1999/xlink" version="1.1" viewBox="0 -205 1024 1024">
  <g transform="matrix(1 0 0 -1 0 819)">
   <path fill="currentColor"
d="M450 742h158q9 106 6 218l78 -28q16 -6 6 -18l-30 -12q0 -64 -8 -160h226l34 42l56 -52q3 -4 4 -10q1 -7 -16 -8h-308q-9 -97 -20 -160h174l24 34l60 -44q10 -9 0 -18l-32 -16q-12 -75 -42 -158q-30 -84 -56 -126q44 -48 80 -74q35 -22 80 -41q41 -17 74 -22v-18
q-39 3 -60 -4q-21 -6 -38 -24q-48 30 -90 68t-74 77q-49 -60 -116 -103q-67 -42 -172 -72l-8 16q93 37 162 88q69 49 108 107q-18 38 -42 92q-23 53 -46 158q-16 -127 -82 -244q-66 -114 -174 -199l-12 12q92 98 142 191q48 92 72 196q21 104 40 284h-64q-39 0 -74 -8
l-20 36v0v0zM636 526q24 -96 48 -156q23 -59 50 -106q22 36 44 108q21 72 36 154h-178v0v0zM738 910l6 14q72 -29 100 -52q28 -24 32 -44q4 -19 -4 -34q-9 -16 -26 -14q-18 2 -26 28q-7 27 -22 48t-60 54v0v0zM306 914q6 -1 4 -10q-1 -4 -16 -8q-18 -3 -30 -20
q-12 -16 -32 -58h112l30 34l56 -50q6 -6 4 -12q-1 -6 -26 -12q-18 -6 -38 -26q-18 -21 -66 -102h100l28 34l60 -38q3 -4 4 -8q0 -6 -24 -24v-234l4 -88q0 -12 -18 -24q-17 -12 -34 -12v44h-260v-26q1 -12 -18 -26q-17 -13 -34 -14l4 130v278q-39 -54 -86 -98l-12 12
q81 113 138 218t78 180l72 -40v0v0zM164 326h104v136h-104v-136v0v0zM316 326h108v136h-108v-136v0v0zM164 488h104v136h-104v-136v0v0zM316 624v-136h108v136h-108v0v0zM162 650h114l68 142h-128q-29 -46 -76 -118l22 -24v0v0zM448 192l2 -18q-235 -51 -290 -63
q-54 -11 -74 -38l-38 69l400 50v0v0z" />
  </g>

</svg>
