<?xml version="1.0" standalone="no"?>
<!DOCTYPE svg PUBLIC "-//W3C//DTD SVG 1.1//EN" "http://www.w3.org/Graphics/SVG/1.1/DTD/svg11.dtd" >
<svg xmlns="http://www.w3.org/2000/svg" xmlns:xlink="http://www.w3.org/1999/xlink" version="1.1" viewBox="0 -205 1024 1024">
  <g transform="matrix(1 0 0 -1 0 819)">
   <path fill="currentColor"
d="M388 494h498l32 40l60 -50q9 -11 -6 -16h-524q-21 0 -44 -8l-16 34v0v0zM466 430l58 -34h290l24 34l62 -40q3 -7 4 -10q0 -5 -30 -22v-64l4 -32q1 -13 -16 -26q-16 -10 -38 -10v26h-308v-18q0 -6 -18 -14q-18 -9 -36 -8l4 62v156v0v0zM516 276h308v94h-308v-94v0v0z
M574 984l72 -28l8 -4q6 -3 4 -8q0 -4 -36 -20v-68h100v128l72 -30q8 -1 10 -10q0 -1 -6 -8l-28 -12v-66v-2h84l28 34l52 -40q6 -7 6 -10q-1 -6 -28 -24v-186l4 -60q0 -9 -18 -18q-16 -9 -34 -8v28h-386v-6q0 -15 -18 -26q-18 -10 -36 -8l4 84v278l52 -38h94v128v0v0z
M478 598h96v110h-96v-110v0v0zM622 708v-110h100v110h-100v0v0zM770 708v-110h94v110h-94v0v0zM478 736h96v92h-96v-92v0v0zM622 828v-92h100v92h-100v0v0zM770 828v-92h94v92h-94v0v0zM712 97q29 52 62 133q68 -35 68 -40q0 -6 -6 -8q-7 -1 -16 -4q-9 -4 -30 -22
q-19 -16 -50 -59h156l38 46l54 -54q3 -3 4 -10q0 -7 -12 -8h-544q-21 1 -44 -8l-16 34h336v0v0zM522 222l8 10q45 -22 70 -40q22 -18 26 -36q3 -17 -2 -33q-7 -13 -26 -14q-18 0 -24 26q-6 22 -18 43q-13 20 -34 44v0v0zM298 900q9 -10 -6 -16q-19 -10 -28 -16t-50 -72
q-40 -66 -112 -162h142q35 66 62 126l68 -44q3 -9 -14 -12q-12 -6 -24 -18q-9 -8 -62 -88q-52 -77 -148 -196l194 22q-13 45 -46 102l14 10q64 -70 80 -100q14 -30 16 -54q3 -21 -6 -32q-9 -12 -20 -12q-11 -2 -22 6q-9 8 -12 58q-60 -9 -138 -30q-78 -19 -108 -40l-28 70
q24 2 52 14q51 51 132 198q-63 -7 -96 -16q-31 -7 -68 -22l-34 64q23 2 38 10q14 6 68 102t84 186l72 -38v0v0zM106 286h22q9 -97 10 -149q1 -51 -16 -76q-16 -24 -34 -28q-17 -3 -28 6q-10 7 -10 22t16 32q15 15 24 36q9 20 12 43q3 21 4 114v0v0zM178 296l16 6
q45 -64 60 -106t10 -71t-22 -34t-28 4q-12 9 -8 38q3 28 -2 67q-3 39 -26 96v0v0zM280 308l12 10q68 -76 80 -106q10 -31 8 -56q-1 -21 -14 -33q-12 -9 -30 -4q-16 7 -14 33q1 27 -4 60q-6 33 -38 96v0v0z" />
  </g>

</svg>
