<?xml version="1.0" standalone="no"?>
<!DOCTYPE svg PUBLIC "-//W3C//DTD SVG 1.1//EN" "http://www.w3.org/Graphics/SVG/1.1/DTD/svg11.dtd" >
<svg xmlns="http://www.w3.org/2000/svg" xmlns:xlink="http://www.w3.org/1999/xlink" version="1.1" viewBox="0 -36 256 256">
  <g transform="matrix(1 0 0 -1 0 220)">
   <path fill="currentColor"
d="M139 189l-5 -5v-6l30 4l12 11l16 -14l-58 -7q0 -3 0.5 -8.5t11.5 -4.5h46q10 0 14 2.5t9 -3t1.5 -7.5t-20.5 -2h-56q-20 0 -20 15v7l-33 -4q-7 -1 -13 -4l-9 8l55 6q0 10 -1 19zM59 195q0 -32 -1 -71t-13 -67.5t-34 -48.5l-3 2q17 20 26 47.5t10 75.5t0 79l16 -10h57
q0 30 -1 45l23 -10l-8 -7v-9h50l12 11l16 -18h-78v-12h86l8 8l12 -14q-12 -2 -30 -19l-2 2l10 16h-89h-67zM122 115v12h-25v-12h25zM84 102q1 14 1 25h-7q-8 1 -13 -1l-6 8h26q0 8 -1 18l18 -8l-5 -4v-6h25q0 8 -1 18l17 -8l-4 -4v-6h4l10 8l11 -15h-25q0 -10 1 -20l-13 -6
v7h-16l12 -5l-4 -4v-5h21l6 7l10 -10l-5 -5q0 -10 1 -20l-12 -4v4h-21v-16h21l11 9l11 -16h-43q0 -14 1 -30l-13 -7q1 19 1 37h-22q-11 1 -19 -2l-6 9h47v16h-20v-3l-12 -4q2 21 0 41l12 -6h20q0 7 -1 14h-5v-3zM83 73h20v14h-20v-14zM114 73h21v14h-21v-14zM222 141l13 -12
l-6 -6v-81q1 -25 -13 -30q-9 13 -30 17v4q15 -3 22.5 -3t7.5 6v29h-38q-4 -38 -43 -57l-2 2q22 20 28.5 38t3.5 92l14 -7h36zM179 104h37v22h-37v-22zM178 72h38v25h-37q0 -12 -1 -25z" />
  </g>

</svg>
