<?xml version="1.0" standalone="no"?>
<!DOCTYPE svg PUBLIC "-//W3C//DTD SVG 1.1//EN" "http://www.w3.org/Graphics/SVG/1.1/DTD/svg11.dtd" >
<svg xmlns="http://www.w3.org/2000/svg" xmlns:xlink="http://www.w3.org/1999/xlink" version="1.1" viewBox="0 -36 256 256">
  <g transform="matrix(1 0 0 -1 0 220)">
   <path fill="currentColor"
d="M58 218h44q7 11 12 27l20 -9q-10 -5 -25 -18h86l7 11l19 -13l-8 -6v-42q0 -17 1 -27l-16 -6v9h-139v-5l-16 -4q1 29 1 47t-1 44zM59 184h139v27h-139v-27zM59 151h139v26h-139v-26zM62 107q2 -42 -9 -64t-43 -37l-2 5q26 16 33 34.5t7 41t-1 37.5l14 -9q40 2 82 7t60 12
l15 -18q-14 0 -39 -2q7 -33 27 -59.5t42 -33.5v-4q-16 1 -23 -9q-25 21 -36 47t-16 59q-26 -3 -47 -4v-81l34 11q-5 10 -17 24l3 2q22 -15 29 -22.5t6 -13.5t-6.5 -9t-7.5 2.5t-5 13.5q-35 -18 -48 -30l-10 20q9 0 8 11v72q-22 -1 -50 -3z" />
  </g>

</svg>
