<?xml version="1.0" standalone="no"?>
<!DOCTYPE svg PUBLIC "-//W3C//DTD SVG 1.1//EN" "http://www.w3.org/Graphics/SVG/1.1/DTD/svg11.dtd" >
<svg xmlns="http://www.w3.org/2000/svg" xmlns:xlink="http://www.w3.org/1999/xlink" version="1.1" viewBox="0 -205 1024 1024">
  <g transform="matrix(1 0 0 -1 0 819)">
   <path fill="currentColor"
d="M326 812h130v180l80 -32q3 -4 4 -8l-6 -6l-28 -14v-120h248v172l78 -30q6 -4 6 -8l-6 -6l-28 -16v-112h52l36 46l56 -56q3 -3 4 -8q0 -10 -14 -10h-134v-440h68l36 40q63 -46 64 -56t-10 -10h-578q-34 1 -58 -10l-22 36h152v440h-66q-21 0 -44 -6l-20 34v0v0zM506 480
v-136h248v136h-248v0v0zM506 634v-130h248v130h-248v0v0zM506 784v-124h248v124h-248v0v0zM478 162q-47 -40 -178 -133l-8 14q68 61 130 125q62 65 94 110l64 -46q3 -16 -12 -16q-13 1 -28 -6q-15 -6 -62 -48v0v0zM722 268q75 -39 124 -72q45 -34 66 -59q21 -26 18 -52
q-3 -27 -24 -28q-22 -4 -34 22q-13 24 -40 66q-28 40 -118 109l8 14v0v0zM186 986l84 -30q12 -7 0 -16l-32 -12v-138q55 -24 86 -44q30 -19 40 -40q7 -22 2 -40q-6 -19 -26 -20q-18 0 -26 22q-6 20 -20 46q-15 24 -56 54v-594l4 -111q0 -11 -18 -26q-18 -14 -42 -16l4 161
v804v0v0zM110 736h18q1 -81 0 -120q0 -39 -18 -66q-16 -25 -38 -26q-22 0 -28 16q-6 14 6 28l22 30t20 46q9 28 18 92v0v0z" />
  </g>

</svg>
