<?xml version="1.0" standalone="no"?>
<!DOCTYPE svg PUBLIC "-//W3C//DTD SVG 1.1//EN" "http://www.w3.org/Graphics/SVG/1.1/DTD/svg11.dtd" >
<svg xmlns="http://www.w3.org/2000/svg" xmlns:xlink="http://www.w3.org/1999/xlink" version="1.1" viewBox="0 -205 1024 1024">
  <g transform="matrix(1 0 0 -1 0 819)">
   <path fill="currentColor"
d="M534 826v-138h42l26 32l46 -40l2 -8q-1 -7 -4 -8h-112v-120h136v432l72 -30q6 -3 6 -6q6 -3 -2 -8l-28 -18v-370h144v126h-46q-24 0 -54 -8l-18 32h118v130h-66q-21 0 -36 -6l-26 32h124l24 36l48 -42q7 -4 8 -10q-1 -6 -28 -24v-228l4 -90q3 -12 -14 -24q-16 -9 -38 -12
v62h-144v-124h80l28 34q65 -41 68 -46q0 -6 -2 -8q-4 -4 -22 -10q-18 -7 -54 -62q-34 -55 -94 -118q45 -31 90 -47q43 -15 86 -24q42 -7 106 -8v-20q-32 0 -58 -12q-27 -9 -36 -30q-28 7 -64 22q-33 15 -72 36t-84 55q-57 -46 -132 -77q-75 -29 -198 -56l-4 18
q118 37 182 70q63 31 120 75q-75 73 -108 182h-28q-22 0 -44 -8l-26 34h218v124h-136v-22q0 -12 -18 -24q-15 -9 -36 -12l4 124v304l50 -38q51 20 84 50q38 -35 44 -40q3 -5 0 -10q-2 -4 -16 -2q-13 2 -112 -22v0v0zM578 368q38 -90 110 -152q60 58 108 152h-218v0v0z
M364 682l50 -38q18 -6 4 -20l-20 -16v-200l4 -76q0 -12 -18 -24q-17 -9 -34 -12v44h-172v-205l158 75q-25 38 -56 68l10 14q57 -30 90 -60q34 -30 44 -56q8 -27 2 -45q-7 -20 -26 -20q-18 -1 -24 16q-5 17 -10 29q-4 11 -16 34q-132 -77 -152 -93q-19 -16 -56 -56l-56 56
q36 21 42 36v511q-55 -84 -98 -126l-14 12q75 113 126 218q50 103 94 236l68 -30q12 -8 4 -16q-22 -3 -34 -20q86 -45 118 -68q30 -25 40 -46q8 -21 2 -42q-6 -18 -24 -20q-17 -1 -28 20q-11 18 -28 52q-18 31 -90 86q-30 -60 -54 -110q-23 -48 -64 -114l28 -26h166l24 32v0
v0zM178 622v-114h172v114h-172v0v0zM178 482v-116h172v116h-172v0v0zM224 800l10 10q48 -31 66 -58q15 -28 10 -50q-7 -20 -20 -22q-12 -3 -20 4q-7 5 -10 22q-1 17 -8 40q-5 24 -28 54v0v0z" />
  </g>

</svg>
