<?xml version="1.0" standalone="no"?>
<!DOCTYPE svg PUBLIC "-//W3C//DTD SVG 1.1//EN" "http://www.w3.org/Graphics/SVG/1.1/DTD/svg11.dtd" >
<svg xmlns="http://www.w3.org/2000/svg" xmlns:xlink="http://www.w3.org/1999/xlink" version="1.1" viewBox="0 -52 256 256">
  <g transform="matrix(1 0 0 -1 0 204)">
   <path fill="currentColor"
d="M15 225l8 -9h33l9 9l11 -11q2 -1 2 -3q-1 -1 -3 -2l-5 -2v-89l2 -30q0 -7 -12 -7v17h-34v-20q1 -9 -12 -11q1 4 1 20q1 12 1 19v106q-1 6 -5 10zM26 103h34v108h-34v-108zM146 254l14 -8q4 -3 2 -4q-6 0 -9 -3q-10 -10 -21 -18h61l9 10l12 -10l2 -2q0 -1 -2 -3l-5 -2v-6
q0 -25 -3 -36q-3 -9 -9 -16q-7 -6 -25 -9q0 6 -7 9q-10 5 -21 8v4q22 -6 32 -6q12 2 17 9q6 9 5 31v14h-91v-78h121l8 9l14 -13q1 -3 -1 -3l-6 -2q0 -3 -1 -10q0 -22 -3 -33q-4 -18 -31 -23q-1 5 -5 8q-5 3 -20 8v3q16 -5 31 -5q16 4 16 25q2 13 2 31h-122l-8 -11l-13 11
q4 3 7 9v79q-1 6 -4 10l2 3l12 -13h19l10 12q10 12 10 14t-1 6zM115 195v3q18 1 35 -2t21 -8q4 -7 0 -10q-3 -3 -7 0q-9 9 -23 13q-1 0 -5 1t-21 3zM138 127l23 -7q2 -1 2 -2l-1 -1q-5 -2 -7 -5v-12h35l7 10l16 -12q3 -1 2 -2q0 -1 -5 -1h-43q29 -54 81 -59l-1 -4
q-18 2 -21 -8q-45 18 -66 71h-5v-65v-10q1 -9 -13 -12q2 10 2 32v55h-5q-24 -55 -89 -74l-2 4q55 24 79 70h-26q-7 0 -12 -3l-8 8h63v14q0 4 -8 10z" />
  </g>

</svg>
