<?xml version="1.0" standalone="no"?>
<!DOCTYPE svg PUBLIC "-//W3C//DTD SVG 1.1//EN" "http://www.w3.org/Graphics/SVG/1.1/DTD/svg11.dtd" >
<svg xmlns="http://www.w3.org/2000/svg" xmlns:xlink="http://www.w3.org/1999/xlink" version="1.1" viewBox="0 -36 256 256">
  <g transform="matrix(1 0 0 -1 0 220)">
   <path fill="currentColor"
d="M23 224l17 -9h174l10 11l15 -15l-8 -6v-170q1 -20 -21 -27q-4 16 -32 21v5q10 -2 23.5 -3t14.5 7v170h-177v-193l-16 -8q1 21 1 35v149q0 14 -1 33zM122 208l-12 24h-26l-7 -2l-9 9h41l8 7l11 -9l-7 -4q-1 -5 9 -21t36.5 -26t48.5 -9v-4q-17 -4 -17 -13q-43 12 -68 37
q-26 -16 -51 -26.5t-37 -11.5l-2 4q36 9 82 45zM160 162h-65v-19h65v19zM167 174l12 -11l-5 -2v-11q0 -5 1 -14l-15 -4v4h-65v-3l-15 -4q1 15 1 24.5t-1 18.5l17 -3h62zM85 46h79v13h-79v-13zM135 128q2 -5 -4 -10.5t-9 2t-14 14.5l2 3q23 -4 25 -9zM187 115l11 9l18 -16
h-147q-10 0 -20 -2l-9 9h147zM158 99l12 7l18 -14h-96q-10 1 -19 -3l-8 10h93zM157 82l11 7l19 -14h-94q-11 1 -20 -2l-8 9h92zM179 36l-15 -4v7h-79v-7l-15 -3q1 8 1 19.5t-1 21.5l16 -4h76l11 6l13 -10l-8 -4q0 -10 1 -22z" />
  </g>

</svg>
