<?xml version="1.0" standalone="no"?>
<!DOCTYPE svg PUBLIC "-//W3C//DTD SVG 1.1//EN" "http://www.w3.org/Graphics/SVG/1.1/DTD/svg11.dtd" >
<svg xmlns="http://www.w3.org/2000/svg" xmlns:xlink="http://www.w3.org/1999/xlink" version="1.1" viewBox="0 -246 2048 2048">
  <g transform="matrix(1 0 0 -1 0 1802)">
   <path fill="currentColor"
d="M1108 1160q-154 -267 -436 -459l-35 43q228 188 359 416h-301l-25 51h352q60 119 101 254h-324l-23 51h361q48 189 57 418q195 -25 195 -68q0 -24 -78 -47q-19 -163 -55 -303h393l86 111q70 -64 119 -125l-23 -37h-442q48 -92 69 -125q40 -63 97 -129h155l99 123
q79 -67 131 -131l-21 -43h-319q146 -158 377 -277q-68 -53 -95 -102q-253 163 -401 379h-373zM1137 1211h311q-61 100 -119 254h-90q-37 -124 -102 -254zM373 1053q-100 -302 -254 -552l-45 28q211 407 293 897h-264l-15 51h285v453q207 -13 207 -58q0 -29 -96 -57v-338h80
l86 129q71 -74 115 -141l-19 -39h-262v-201q236 -179 236 -331q0 -72 -66 -72q-36 0 -51 70q-30 116 -119 258v-1057h-111v960zM1229 635h-461l-21 51h859l92 113q77 -64 131 -125l-22 -39h-463v-377q0 -162 -181 -159q-3 60 -67 88q-50 20 -152 35v55q150 -21 219 -21
q66 0 66 56v323zM1839 181q-40 0 -73 55q-93 155 -310 283l25 43q203 -70 324 -162q102 -77 102 -143q0 -76 -68 -76zM1020 869l-20 51h401l82 102q70 -57 119 -112l-25 -41h-557zM1444 1547l-41 28q92 144 150 314q161 -70 161 -105q0 -10 -25 -20q-25 -11 -59 -11
q-59 -90 -186 -206zM971 1573q-52 0 -61 64q-28 115 -119 207l37 34q108 -52 166 -117q49 -57 49 -110q0 -36 -23 -59q-20 -19 -49 -19zM586 138l-31 41q209 146 344 393q156 -77 156 -115q0 -24 -88 -24q-134 -174 -381 -295z" />
  </g>

</svg>
