<?xml version="1.0" standalone="no"?>
<!DOCTYPE svg PUBLIC "-//W3C//DTD SVG 1.1//EN" "http://www.w3.org/Graphics/SVG/1.1/DTD/svg11.dtd" >
<svg xmlns="http://www.w3.org/2000/svg" xmlns:xlink="http://www.w3.org/1999/xlink" version="1.1" viewBox="0 -144 1024 1024">
  <g transform="matrix(1 0 0 -1 0 880)">
   <path fill="currentColor"
d="M900 497l-10 -8l-21 -13l-11 -6l-12 -5l-11 -3l-13 -3l-12 -2l-13 -1l-12 -1v32l-54 17v16h62l16 2l15 4l15 7l14 8l3 3l1 3l2 8l1 10l1 14l1 15l2 18v20v12h-204v-179l-61 -31l61 -10l16 -11l-16 -9v-43h158l54 54l64 -54v-21h-274l70 -67l54 -46l28 -22l59 -39l31 -18
l57 -30l-60 -48l-64 44l-58 49l-27 27l-25 28l-24 29l-22 30l-19 32l-2 4v-262l-64 -32v258l-38 -49l-30 -31l-31 -29l-33 -27l-36 -26l-37 -22l-39 -20l-41 -16l-5 9l69 51l32 27l30 27l28 29l26 30l25 32l22 33l21 35l5 10h-244v21h276v230l-30 -27l-56 -42l-32 -18
l-33 -17l-36 -15l-37 -14l-40 -11l-3 9l67 41l32 21l55 41l47 44l20 23l13 18h-133l-2 -8l-71 -15l47 181l45 -38h147v80h-251v21h184l-13 14l1 4l-1 4l-1 7l-3 7l-10 15l-8 10l-18 18l-12 8l4 8l13 -5l14 -4l14 -3l23 -10l10 -5l10 -7l9 -7l8 -8l7 -9l-1 -25l-12 -12h121
l-1 2l10 11l7 12l54 77l4 6l-1 1l5 5l45 -46l3 -20l-23 6l-13 -9l-35 -22l-25 -14l-13 -6l-4 -3h127l33 27l59 -48l-27 -22v-80l-65 -32v32h-164v-77h204l32 27l59 -48l-26 -16l-1 -18l-2 -37l-2 -16l-2 -13l-3 -13l-3 -11l-6 -12zM195 133l59 -27l-6 -12l-8 -11l-8 -11
l-9 -9l-11 -7l-11 -7l-13 -5l-13 -3l-13 -2l-13 -1v32l-76 16v16h76l7 1l7 1l5 2l5 1l4 3l4 3l4 3l3 5l4 5zM230 117l3 -2l4 -1l8 -4l7 -3l2 -1l14 48l10 64l5 78v90l-8 99l-14 90l3 8l-4 1l-28 107l-20 51l38 60l24 46l23 47l14 32l20 4l-11 16l-58 30l-5 -13h1l-17 -45
l-39 -92l-14 -27l-49 84l-73 78l-7 -6l55 -87l45 -92l6 -20l-30 -51l-25 -35l-25 -34l-53 -63l6 -7l35 23l33 27l32 31l29 35l16 20l9 -24l17 -80l-7 2l-11 -39l-12 -39l-14 -37l-15 -37l-35 -70l-40 -67l-44 -66l8 -7l31 26l28 29l27 31l25 32l23 34l21 36l20 37l11 22v-7
l4 -94l-2 -86l-8 -74l-11 -57l-13 -35l34 -15zM596 742h-140l-21 -77h161v77zM824 844h-164v-80h164v80zM900 497l-4 4z" />
  </g>

</svg>
