<?xml version="1.0" standalone="no"?>
<!DOCTYPE svg PUBLIC "-//W3C//DTD SVG 1.1//EN" "http://www.w3.org/Graphics/SVG/1.1/DTD/svg11.dtd" >
<svg xmlns="http://www.w3.org/2000/svg" xmlns:xlink="http://www.w3.org/1999/xlink" version="1.1" viewBox="0 -205 1024 1024">
  <g transform="matrix(1 0 0 -1 0 819)">
   <path fill="currentColor"
d="M688 942q6 -3 6 -6q5 -9 -22 -14q-19 -10 -62 -76h200l30 42l64 -42q6 -6 6 -8q-1 -6 -28 -26v-272l4 -80q0 -15 -18 -26q-18 -9 -38 -12v32h-312v-22q0 -9 -20 -20q-21 -10 -36 -10l4 84v392l54 -32h62q24 75 42 126l64 -30v0v0zM518 482h312v94h-312v-94v0v0zM518 604
h312v90h-312v-90v0v0zM518 722h312v96h-312v-96v0v0zM364 312h254q10 64 14 128q68 -24 74 -30q3 -3 4 -8q0 -5 -30 -16l-12 -74h220l38 48l58 -58q3 -4 4 -10q1 -7 -16 -8h-262q38 -69 80 -110q40 -38 98 -61q57 -20 108 -26v-18q-31 0 -52 -6q-19 -6 -40 -30
q-48 28 -86 58q-37 30 -70 73q-31 42 -64 120h-22q-33 -100 -86 -147q-54 -48 -114 -76q-60 -26 -128 -50l-4 18q76 33 128 66q50 30 92 73q40 41 62 116h-160q-21 0 -68 -8l-20 36v0v0zM750 412l6 12q58 -18 80 -32q21 -13 24 -32q3 -17 -6 -28q-9 -13 -24 -10
q-12 2 -18 22q-6 17 -18 32q-13 15 -44 36v0v0zM46 854h294l36 48l62 -56q3 -3 4 -6q0 -12 -12 -12h-176q-24 -109 -48 -184h112l26 40l56 -46q10 -6 8 -12q0 -7 -32 -22q-42 -204 -84 -294q-42 -88 -104 -166q-61 -73 -142 -125l-8 12q83 78 140 159q53 81 86 162
q30 78 64 268h-130q-18 -60 -38 -102q42 -18 66 -38q22 -19 26 -40t0 -32q-5 -12 -16 -18q-9 -4 -18 4q-9 6 -14 28q-6 21 -18 42q-11 19 -34 38q-36 -93 -102 -170l-10 8q55 108 92 210q36 100 70 278h-72q-21 0 -68 -8l-16 34v0v0z" />
  </g>

</svg>
