<?xml version="1.0" standalone="no"?>
<!DOCTYPE svg PUBLIC "-//W3C//DTD SVG 1.1//EN" "http://www.w3.org/Graphics/SVG/1.1/DTD/svg11.dtd" >
<svg xmlns="http://www.w3.org/2000/svg" xmlns:xlink="http://www.w3.org/1999/xlink" version="1.1" viewBox="0 -143 1024 1024">
  <g transform="matrix(1 0 0 -1 0 881)">
   <path fill="currentColor"
d="M255 943q10 1 8 -12q0 -5 -20 -8q-15 -7 -31 -34.5t-35 -65.5h125l24 34l64 -49q7 -7 3 -11q-1 -6 -25 -12q-18 -7 -38.5 -30t-67.5 -94h86l26 30l57 -36q5 -5 5 -8q0 -7 -27 -28v-262l3 -61q-2 -11 -18.5 -20t-34.5 -12v41h-223v-21q0 -15 -20.5 -25.5t-33.5 -9.5l4 99
v318q-11 -31 -54 -79l-12 11q54 95 98 200t65 179zM136 331h86v142h-86v-142zM271 331h88v142h-88v-142zM136 499h86v136h-86v-136zM271 635v-136h88v136h-88zM132 661h106l64 136h-137q-29 -54 -63 -111zM412 229l4 -18q-262 -84 -293 -102t-49 -38l-42 70zM399 879h498
l28 40l48 -48q3 -5 3 -6q4 -12 -7 -12h-267v-567l62 15l4 -17l-66 -24v-125l4 -72q2 -17 -16 -27.5t-41 -12.5l4 91v133q-121 -39 -139 -49t-36 -35l-43 64l61 14v613h-47q-10 -2 -29 -9zM545 252l108 25v172h-108v-197zM545 475h108v168h-108v-168zM545 669h108v184h-108
v-184zM782 792l86 -37q4 -5 4 -7q0 -4 -4 -7l-37 -15v-566q2 -33 11.5 -35.5t20.5 -2.5h44q27 0 30.5 21t6.5 48t7 91h19q0 -70 4.5 -102.5t27.5 -37.5q-8 -29 -22 -44.5t-43 -19.5h-82q-29 0 -42.5 7t-23.5 28q-7 22 -7 49v630z" />
  </g>

</svg>
