<?xml version="1.0" standalone="no"?>
<!DOCTYPE svg PUBLIC "-//W3C//DTD SVG 1.1//EN" "http://www.w3.org/Graphics/SVG/1.1/DTD/svg11.dtd" >
<svg xmlns="http://www.w3.org/2000/svg" xmlns:xlink="http://www.w3.org/1999/xlink" version="1.1" viewBox="0 -36 256 256">
  <g transform="matrix(1 0 0 -1 0 220)">
   <path fill="currentColor"
d="M31 236q25 -11 30 -18t0.5 -15t-10 3.5t-21.5 26.5zM13 181q30 -11 32 -20t-4 -15t-10 5.5t-19 26.5zM36.5 84.5q6.5 3.5 32.5 108.5l5 -1q-19 -87 -22.5 -100t-4 -23.5t1 -35t-9.5 -19t-8 22.5t3 27t-22 15v4q18 -2 24.5 1.5zM138 247q17 -7 23 -13.5t-4 -16.5h55l10 11
l18 -18h-132q-13 0 -22 -3l-10 10h74q-3 16 -14 27zM108 92h42q0 12 -1 27l23 -8l-8 -7v-12h37l10 11l18 -18h-65v-25h56l10 11l18 -18h-84q0 -21 1 -41l-16 -5q1 28 1 46h-57q-13 0 -22 -3l-10 10h89v25h-46q-15 -14 -27 -22l-3 3q14 14 22.5 28.5t9.5 22.5l18 -10
q-5 -3 -16 -15zM179 130q-3 5 -11 14l2 2q16 -8 24.5 -16.5t2.5 -17t-9.5 -1t-6.5 13.5q-56 -4 -68 -11l-10 16q9 1 19 7.5t20 12.5h-53q0 -10 -3 -16.5t-9.5 -8t-9 2.5t6 12.5t11.5 23.5h4v-7h62q10 8 19 17q-47 -2 -56 -9l-10 14q11 3 21 12t16 19l15 -12q-9 -2 -35 -20
l52 1q10 10 16 19l15 -14q-7 -3 -14.5 -9l-22.5 -18h50l9 8l16 -15q-12 0 -33 -24l-4 2l12 22h-58q-18 -12 -35 -22z" />
  </g>

</svg>
