<?xml version="1.0" standalone="no"?>
<!DOCTYPE svg PUBLIC "-//W3C//DTD SVG 1.1//EN" "http://www.w3.org/Graphics/SVG/1.1/DTD/svg11.dtd" >
<svg xmlns="http://www.w3.org/2000/svg" xmlns:xlink="http://www.w3.org/1999/xlink" version="1.1" viewBox="0 -36 256 256">
  <g transform="matrix(1 0 0 -1 0 220)">
   <path fill="currentColor"
d="M129 206h-38q0 -7 1 -21l-16 -4q1 13 1 25h-19h-6q-8 1 -20 -3l-12 10h57q0 21 -1 34l22 -10l-7 -5v-19h12l12 10zM142 204l-11 10h31q0 22 -1 31l22 -10l-7 -6v-15h37l12 12l13 -19h-62v-18l-14 -4v22h-4q-3 1 -16 -3zM40 46.5q-5 11.5 -20 26.5l3 2q34 -15 28 -27.5
t-11 -1zM96 131l16 -17h-39v-21h16l12 12l17 -19h-45v-39q14 14 24 35l15 -13l-7 -2q-15 -14 -32 -27v-6l44 9l1 -5q-60 -16 -98 -28l-10 16q28 2 50 7v53h-11q-10 0 -19 -2l-10 9h40v21h-24q-10 -10 -25 -21l-2 4q39 46 56 92l18 -14l-7 -2l-4 -6q22 -6 33 -12t8.5 -18
t-13 1t-30.5 25q-14 -25 -29 -42h44zM157 171l-14 19l3 4l24 -22q19 -20 37.5 -33t39.5 -15v-4q-15 -1 -20 -12q-20 10 -34.5 23.5t-25.5 26.5q-15 -31 -59 -55l-3 3q47 41 52 65zM194 108l12 10l15 -17h-44v-34h19l12 11l14 -18h-45v-38h40l14 10l16 -17h-122q-11 1 -18 -2
l-9 9h65v38h-13q-11 0 -20 -2l-10 9h43v34h-16q-8 0 -14 -5l-11 12h72z" />
  </g>

</svg>
