<?xml version="1.0" standalone="no"?>
<!DOCTYPE svg PUBLIC "-//W3C//DTD SVG 1.1//EN" "http://www.w3.org/Graphics/SVG/1.1/DTD/svg11.dtd" >
<svg xmlns="http://www.w3.org/2000/svg" xmlns:xlink="http://www.w3.org/1999/xlink" version="1.1" viewBox="0 -144 1024 1024">
  <g transform="matrix(1 0 0 -1 0 880)">
   <path fill="currentColor"
d="M677 339h-239v22h419l54 53l65 -53v-22h-234v-210l-1 -13l-3 -14l-4 -12l-7 -13l-8 -11l-11 -8l-13 -7l-12 -4l-14 -3l-13 -1v33l-108 16v16h108h6l5 1l5 2l2 2l2 5l1 5v6v210zM555 291l54 -36l9 -18h-21l-20 -29l-18 -21l-38 -39l-21 -18l-22 -16l-22 -14l-24 -13
l-25 -10l-5 8l54 56l31 38l15 20l27 42l12 22l9 18zM41 130l-5 18v1l-1 3v1v1l-1 2l31 7l54 13l9 37l28 113l13 53l5 27l1 6h-133v22h59v476l65 -32h133l54 53l65 -53v-22h-252v-122h115l44 48l54 -48v-22h-213v-118h115l44 49l54 -49v-21h-213v-139h157l54 53l65 -53v-22
h-201l-17 -49l-20 -53l-23 -53l-26 -55l-12 -21l159 39l38 8l21 4l-12 30l-30 63l-13 22l8 5l36 -34l31 -37l14 -18l25 -39l10 -19l19 -41l-3 -24l-19 -16l-25 3l-15 19l-9 37l-6 19l-6 17l-54 -27l-68 -29l-131 -48l-31 -11l-10 -3l-7 -20l-14 13l-1 3l-1 3v2l-1 2v1v1
l-1 2l-2 5v2l-1 3l-2 8v1l-1 2v1zM901 105l-13 32l-8 17l-10 16l-25 33l-47 53l-19 17l5 8l47 -23l21 -13l20 -14l35 -31l15 -16l14 -17l13 -18l11 -19v-24l-17 -18h-24zM34 156l17 -62l-27 59zM844 533l54 -49v-21h-382v21h284zM550 586v-16l-59 -29v274l59 -30h70v108
h-167v21h404l54 54l65 -54v-21h-186v-108h64l30 27l56 -48l-27 -19v-169l-59 -30v40h-304zM620 764h-70v-156h70v156zM736 764h-63v-156h63v156zM854 764h-64v-156h64v156zM736 893h-63v-108h63v108z" />
  </g>

</svg>
