<?xml version="1.0" standalone="no"?>
<!DOCTYPE svg PUBLIC "-//W3C//DTD SVG 1.1//EN" "http://www.w3.org/Graphics/SVG/1.1/DTD/svg11.dtd" >
<svg xmlns="http://www.w3.org/2000/svg" xmlns:xlink="http://www.w3.org/1999/xlink" version="1.1" viewBox="0 -144 1024 1024">
  <g transform="matrix(1 0 0 -1 0 880)">
   <path fill="currentColor"
d="M395 448h11l-11 -69l14 -10v117h-78v-78l-1 -6v-6l1 -3v-3l1 -2l1 -2l3 -2l3 -2l6 -2l7 -1h19zM386 253v-22h-105v-150l-65 -33v183h-105v22h157l54 54zM900 115l-6 33l-11 34l-21 55l-9 17l7 6l30 -29l13 -16l13 -16l11 -17l10 -17l17 -35l7 -18l5 -18l-6 -25l-20 -12
l-24 5l-13 21l-1 16zM492 61l-8 24l10 22l7 4l7 6l7 9l7 12l7 15l7 17l6 19l6 22l6 24l4 26h9l2 -27l3 -25v-24v-22l-3 -20l-3 -20l-4 -18l-6 -16l-8 -16l-11 -14l-23 -8zM768 125l-1 15l-1 15l-2 15l-3 16l-8 31l-5 17l-8 16l9 5l24 -27l10 -14l11 -15l8 -15l8 -16l7 -17
l6 -16l5 -18l3 -17l-8 -24l-22 -10l-23 8l-11 22l1 14v15zM668 66l-22 10l-8 24l4 29l2 14v15v15v15l-4 31l-2 16l-5 15l9 4l19 -28l17 -29l6 -16l5 -16l5 -17l3 -17l3 -17l2 -18l-11 -22zM94 486v-186l8 6l13 13l11 15l10 17l8 18l8 21l6 25l5 26l4 30l1 15h-74zM542 307
v395l-29 -33l-31 -31l-8 6l62 108l34 67l15 34l14 33l11 32l10 33l9 32l2 8l59 -26l13 -15l-20 -6l-19 -47l-9 -17h126l32 27l59 -49l-27 -16l-14 -6l-39 -57l-24 -32l-28 -32l-5 -6h103l32 27l59 -49l-27 -21v-327l-64 -32v32h-232zM606 516v-156h84v156h-84zM754 516v-156
h84v156h-84zM606 687v-150h84v150h-84zM754 687v-150h84v150h-84zM154 802h195l32 27l59 -49l-26 -21v-164l-65 -32v43h-195v-16l-65 -32v276zM154 780v-153h195v153h-195zM644 858l-34 -60l-45 -66l-2 -2l43 -21h114l6 14l15 39l21 54l12 34l2 8h-132zM479 919v-22h-450v22
h332l54 54zM471 98l-5 -12l-6 -13l-9 -11l-11 -8l-12 -7l-13 -4l-13 -3l-14 -1v33l-54 16v16h54h7l5 1l4 2l2 1v1l1 2l1 3l1 5v221l-14 -10h-56l-13 2l-11 3l-12 5l-11 8l-9 10l-7 11l-5 13l-3 13l-2 13v78h-34l-5 -25l-8 -33l-10 -30l-12 -26l-14 -24l-16 -20l-17 -17
l-19 -13l-21 -8l-16 -4v-209l-65 -32v495l65 -32h315l33 26l59 -48l-27 -21v-340l-1 -13z" />
  </g>

</svg>
