<?xml version="1.0" standalone="no"?>
<!DOCTYPE svg PUBLIC "-//W3C//DTD SVG 1.1//EN" "http://www.w3.org/Graphics/SVG/1.1/DTD/svg11.dtd" >
<svg xmlns="http://www.w3.org/2000/svg" xmlns:xlink="http://www.w3.org/1999/xlink" version="1.1" viewBox="0 -52 256 256">
  <g transform="matrix(1 0 0 -1 0 204)">
   <path fill="currentColor"
d="M30 209l11 -7h74v40q2 5 -6 11l2 3l21 -9q3 -1 1 -3q-4 0 -7 -4v-10h58l8 10l17 -12q2 -1 2 -2q-1 -1 -4 -1h-81v-23h95l7 8l14 -14q0 -2 -3 -1q-7 -1 -18 -11l-12 -12l-3 2l16 23h-177v-62q0 -48 -7 -72q-5 -23 -30 -54l-3 4q19 30 25 58q5 28 4 70v55q-1 6 -6 10z
M246 26v-5q-4 0 -10 -1h-5q-3 -2 -7 -8q-40 12 -63 40q-11 13 -17 37q-4 -30 -15 -43q-13 -15 -36 -24q-22 -10 -59 -13v4q69 14 89 44q9 16 11 49q-1 3 -6 6l2 3l21 -4q2 -1 3 -2l-1 -1q-3 0 -8 -5v-4q8 -19 16 -31q3 2 9 5q9 6 13 8q15 9 14 12q0 2 -2 4l2 2l16 -12
q3 -4 0 -5q-6 2 -11 -1q-2 -1 -9 -4q-6 -2 -9 -4q-2 -1 -9 -4q-7 -4 -11 -6l2 -2q9 -11 19 -19q22 -14 58 -16h3zM136 182q2 -2 -1 -2t-7 -4v-15l46 3l7 9l15 -10q3 -1 2 -2q0 -1 -5 -1l-65 -4v-12q0 -9 3 -11q3 -3 19 -3h31q16 0 25 1t12 10q2 14 2 25h3l1 -10q0 -17 7 -20
q-7 -12 -18 -13q-3 0 -7 -1h-6h-31q-24 0 -36 1q-17 0 -16 20v12l-45 -3q-8 0 -11 -4l-11 8l67 4v20q-1 5 -5 8l2 2zM97 98q-1 -17 -4 -23q-3 -7 -8 -13q-4 -6 -12 -7q-7 -3 -9 3q-3 6 5 8t15 11q6 8 9 21h4z" />
  </g>

</svg>
