<?xml version="1.0" standalone="no"?>
<!DOCTYPE svg PUBLIC "-//W3C//DTD SVG 1.1//EN" "http://www.w3.org/Graphics/SVG/1.1/DTD/svg11.dtd" >
<svg xmlns="http://www.w3.org/2000/svg" xmlns:xlink="http://www.w3.org/1999/xlink" version="1.1" viewBox="0 -36 256 256">
  <g transform="matrix(1 0 0 -1 0 220)">
   <path fill="currentColor"
d="M67 220q6 -8 1 -17t-12 4.5t-24 26.5l1 3q28 -9 34 -17zM13 182q33 -12 35 -22t-4 -14.5t-9.5 6t-22.5 27.5zM41 87q7 4 38 107l6 -1q-23 -88 -27.5 -100t-5.5 -23t0.5 -35.5t-9.5 -19t-8 22.5t3 27.5t-24 15.5v4q20 -2 27 2zM151 157v50q0 20 -1 40l26 -8l-10 -8v-28h40
l14 11l19 -18h-73v-39h-15zM227 169l19 -18q-16 -1 -41 -25l-3 2l15 24h-51v-51h34l11 12l20 -19h-65v-56q33 -11 81 -8v-4q-18 -3 -21 -16q-81 3 -117 59q-18 -42 -57 -61l-2 3q55 43 51 122l23 -8l-7 -7q-2 -20 -6 -41q13 -18 40 -33v108h-40q-10 -1 -21 -3l-10 10h138z
" />
  </g>

</svg>
