<?xml version="1.0" standalone="no"?>
<!DOCTYPE svg PUBLIC "-//W3C//DTD SVG 1.1//EN" "http://www.w3.org/Graphics/SVG/1.1/DTD/svg11.dtd" >
<svg xmlns="http://www.w3.org/2000/svg" xmlns:xlink="http://www.w3.org/1999/xlink" version="1.1" viewBox="0 -339 2048 2048">
  <g transform="matrix(1 0 0 -1 0 1709)">
   <path fill="currentColor"
d="M1027 423q-45 -27 -97 -51q-58 -28 -140 -57l-14 34q68 38 117 70q120 79 192 146q47 44 112 122h-183q-71 0 -148 -10l-40 86q118 -19 188 -19h129v158h-53q-38 0 -98 -5q-18 -2 -51 -6l-39 86q126 -18 188 -18h53v157h-109q-37 0 -98 -5q-17 -1 -50 -6l-39 86
q76 -10 87 -11t51 -4q36 -2 49 -2h109v61q0 10 -4 122q-1 21 -4 38l109 -24q58 -13 72 -24q13 -10 13 -22q0 -11 -9 -21q-13 -13 -40 -21l-41 -11v-98h238v56q0 10 -4 122q-1 22 -5 38l110 -24q58 -13 72 -23q13 -10 13 -22t-10 -21q-13 -14 -39 -21l-41 -12v-93h175l72 68
l100 -78q15 -11 15 -27q0 -7 -5 -13q-7 -8 -16 -8h-341v-157h137l68 67l95 -67q15 -11 20 -20q4 -6 4 -16q0 -21 -19 -21h-305v-158h199l80 76l93 -72q19 -14 23 -25q2 -6 2 -10q0 -8 -5 -17t-13 -9h-618q-64 -72 -98 -105q-47 -47 -114 -96v-277q75 17 134 37q50 17 161 58
l15 -31q-50 -35 -91 -59q-92 -51 -142 -76q-25 -13 -77 -32v-34q0 -17 -12 -24q-6 -3 -11 -3q-23 0 -46 46l-46 91l20 9v232zM1239 744h238v158h-238v-158zM1239 959h238v157h-238v-157zM1540 405q56 42 97 79q50 44 92 92q19 22 50 62l71 -56q25 -19 39 -35q9 -11 10 -24
q0 -8 -6 -14q-7 -7 -26 -8q-5 0 -9 1l-49 7q-26 -17 -39 -25q-16 -10 -64 -38q-78 -45 -131 -77q72 -68 169 -113q78 -36 164 -52q21 -4 56 -8v-37q-36 -5 -51.5 -9t-29.5 -12q-25 -14 -38 -54q-52 21 -81 35t-58 33q-109 69 -188 166q-84 102 -147 266l32 17
q20 -30 71 -111q19 -30 66 -85zM1815 1429h-846v-24q0 -9 -7 -16q-6 -6 -19 -11q-12 -4 -25 -4q-18 0 -34 9q-17 9 -17 28q0 3 4 41l1 31l3 49l-2 354l122 -64h808l61 72l72 -50q42 -28 42 -50q0 -5 -4 -12q-5 -10 -28 -22l-18 -9q-8 -4 -16 -9v-192q0 -9 2 -40q1 -25 2 -33
q4 -37 4 -43q0 -13 -6 -21t-22 -14.5t-32 -6.5q-25 0 -35 11q-7 8 -9 18zM969 1485h217v279h-217v-279zM1282 1485h218v279h-218v-279zM1596 1485h219v279h-219v-279zM385 314v614h-92q-38 0 -98 -5q-18 -1 -51 -6l-39 86q123 -18 188 -18h92v280h-13q-37 0 -98 -5
q-17 -1 -50 -6l-40 86q123 -18 188 -18h143l86 90l124 -95q16 -13 16 -26q0 -9 -6 -16q-8 -10 -21 -10h-233v-280h107l85 90l124 -95q17 -13 17 -26q0 -9 -6 -16q-8 -10 -21 -10h-306v-592q159 41 260 74l14 -39q-58 -30 -103 -49q-65 -28 -129 -52q-25 -9 -264 -88l-36 -12
l-11 -41l-5 -22q-1 -4 -7 -8q-5 -3 -11 -3q-9 0 -14.5 5t-15.5 26l-70 131q100 16 129 21q47 8 167 35zM483 1828q97 -66 206 -162q31 -28 49 -46.5t35 -41.5q23 -31 31 -56q5 -16 5 -34q0 -28 -13 -45q-14 -19 -37 -19q-27 0 -48 25q-11 13 -34 64q-29 62 -73 120
q-33 43 -91 106q-19 21 -48 48q-37 -90 -58 -132q-45 -92 -95 -161q-63 -87 -161 -172q-35 -30 -93 -75l-24 27q79 75 124 131q77 96 138 218q45 91 79 200q14 46 21 78q2 14 7 42l121 -32q52 -14 52 -35q0 -9 -9 -17q-10 -9 -30 -12l-49 -8zM649 793l136 -47q31 -10 31 -27
q0 -7 -6 -14q-7 -9 -20 -12l-58 -13q-30 -49 -73 -116q-38 -58 -57 -82q-16 -21 -51 -62l-32 18q29 59 48 107q25 64 56 158q14 42 26 90zM127 768q92 -90 147 -167q37 -51 49 -105q5 -22 5 -41q0 -45 -33 -66q-15 -10 -30 -10q-7 0 -16 5q-18 9 -25 32q-4 12 -6 44
q-6 85 -41 160q-13 31 -28 53q-7 12 -35 53q-5 7 -15 22z" />
  </g>

</svg>
