<?xml version="1.0" standalone="no"?>
<!DOCTYPE svg PUBLIC "-//W3C//DTD SVG 1.1//EN" "http://www.w3.org/Graphics/SVG/1.1/DTD/svg11.dtd" >
<svg xmlns="http://www.w3.org/2000/svg" xmlns:xlink="http://www.w3.org/1999/xlink" version="1.1" viewBox="0 -36 256 256">
  <g transform="matrix(1 0 0 -1 0 220)">
   <path fill="currentColor"
d="M41.5 194q6.5 -12 -1 -22t-11 7t-13.5 38l3 2q16 -13 22.5 -25zM54 245l23 -9l-9 -10v-69h18l11 9l15 -16h-44v-19q20 -12 28.5 -20.5t4 -22.5t-11.5 3.5t-21 33.5v-77q0 -13 1 -31l-15 -7q1 42 1 108q-16 -35 -43 -63l-3 2q32 46 43 93h-10q-13 0 -22 -3l-10 10h45
q0 57 -1 88zM102 204q-13 -23 -28 -39l-2 2q12 21 20 54l18 -13zM139 151h69v34h-69v-34zM123 78h41v34h-41v-34zM177 78h42v34h-42v-34zM123 35h41v36h-41v-36zM177 35h42v36h-42v-36zM216 222l12 10l15 -17h-105q-13 0 -22 -3l-10 10h110zM140 192h68l8 10l13 -16l-8 -5
q0 -17 1 -38l-14 -7v8h-69v-4l-14 -6q1 12 1 34.5t-1 33.5zM123 119h95l10 9l14 -14l-9 -6q0 -50 1 -89l-15 -6v15h-96v-10l-14 -5q1 15 1 59.5t-1 55.5z" />
  </g>

</svg>
