<?xml version="1.0" standalone="no"?>
<!DOCTYPE svg PUBLIC "-//W3C//DTD SVG 1.1//EN" "http://www.w3.org/Graphics/SVG/1.1/DTD/svg11.dtd" >
<svg xmlns="http://www.w3.org/2000/svg" xmlns:xlink="http://www.w3.org/1999/xlink" version="1.1" viewBox="0 -200 999 1000">
  <g transform="matrix(1 0 0 -1 0 800)">
   <path fill="currentColor"
d="M427 1001l60 -30l-16 -68v-218h22l37 38l49 -61h-108v-272h16l34 36l49 -48l-31 -33v-270h-137v-51q-21 -24 -45 -25v432l55 -41h15v272h-21l-54 -15l-16 38h91v316zM411 369l-9 -21v-253h92v274h-83zM42 276q43 106 81.5 220t54.5 238h-58l-56 -15l-15 37h131v245
l65 -32l-19 -67v-146h37l40 47l59 -69h-136v-115q18 -14 35.5 -30.5t32.5 -33t27 -31t17 -23.5q9 -19 9 -36q0 -20 -8 -34.5t-24 -14.5q-13 0 -22 36q-6 16 -11.5 30t-12.5 30t-17.5 35.5t-25.5 46.5v-566q-8 -12 -16.5 -17t-30.5 -12l1 529q-25 -63 -54 -128.5t-74 -128.5z
M776 772h-37v121h37v-121zM699 615h-49v96l12 38h37v-134zM776 615h-37v134h37v-134zM860 749v-134h-44v134h44zM776 475h-37v119h37v-119zM606 531l44 29v34h49v-119h-129l23 -35l43 13h317l-45 56l-37 -34h-55v119h44v-58l43 33v166l21 34l-46 49l-23 -46h-39v121h127
l-54 63l-43 -42h-271l21 -33l53 12h50v-121h-36l-57 34v-275zM720 417q14 -6 31 -13.5t31.5 -19.5t24.5 -28.5t10 -38.5v-5q0 -20 -10 -33.5t-15 -13.5q-6 -1 -12 17q-17 53 -33 84.5t-27 39.5v11zM890 306q9 -15 21.5 -36.5t24 -44.5t19 -45.5t7.5 -40.5v-13
q-2 -21 -8.5 -37.5t-15 -22.5t-16.5 2t-11 37q-1 28 -1.5 47t-2.5 38t-6.5 43t-13.5 62zM827 274q6 -34 11 -64t10.5 -54t11.5 -39.5t13 -20.5q5 -9 5 -17q0 -12 -8 -28.5t-25 -18.5q-4 1 -7 1h-7h-129q-10 8 -15.5 31t-5.5 59v256l55 -26l-11 -53v-141q2 -23 5.5 -41.5
t14.5 -38.5h75q12 11 15 21.5t3 26.5v12q0 1 -0.5 4.5t-0.5 10.5q-2 20 -6 50.5t-8 65.5zM626 305q16 -116 7.5 -171t-31.5 -57q-3 1 -8 2t-9.5 2.5t-8 5t-3.5 9.5q0 11 2 23t7 21q14 38 21.5 75.5t12.5 91.5z" />
  </g>

</svg>
