<?xml version="1.0" standalone="no"?>
<!DOCTYPE svg PUBLIC "-//W3C//DTD SVG 1.1//EN" "http://www.w3.org/Graphics/SVG/1.1/DTD/svg11.dtd" >
<svg xmlns="http://www.w3.org/2000/svg" xmlns:xlink="http://www.w3.org/1999/xlink" version="1.1" viewBox="0 -205 1024 1024">
  <g transform="matrix(1 0 0 -1 0 819)">
   <path fill="currentColor"
d="M868 886q-82 -9 -172 -26v-338h180l40 50l60 -58q3 -3 6 -8q0 -12 -14 -12h-272v-363h140l40 55l68 -61q3 -3 4 -10q0 -12 -12 -12h-430q-22 1 -70 -8l-22 36h232v363h-178q-18 0 -66 -8l-14 36h258v328q-106 -12 -220 -24l-2 18q285 52 426 110l52 -52q13 -15 -4 -20
l-30 4v0v0zM302 924q10 -10 -4 -16q-21 -4 -30 -10q-9 -7 -54 -76q-45 -67 -120 -160h180q37 59 80 152l70 -48q0 -9 -14 -12q-15 -10 -26 -16q-10 -7 -68 -94q-58 -85 -152 -212l186 12q-19 47 -58 104l14 10q54 -48 84 -84q27 -36 30 -62q3 -24 -6 -36q-8 -12 -22 -14
q-13 -1 -22 8q-8 8 -10 20q0 11 -6 32q-76 -6 -140 -24q-62 -15 -100 -36l-38 70q29 1 64 14q51 63 126 196q-80 -7 -124 -16q-45 -6 -74 -24l-38 68q23 2 44 16q21 12 76 108q55 95 86 176l66 -46v0v0zM198 340l16 6q51 -76 64 -118q12 -43 6 -74q-4 -28 -22 -35
q-19 -7 -34 4q-15 9 -6 45q7 35 2 80q-6 44 -26 92v0v0zM112 318h22q6 -75 4 -128q-3 -51 -20 -81q-16 -30 -32 -34q-15 -4 -30 4q-12 9 -14 24q0 14 18 34q17 19 26 41t16 50q6 27 10 90v0v0zM314 360l12 8q60 -60 84 -96t22 -66q-3 -30 -20 -38q-19 -7 -34 2q-15 8 -12 38
q1 30 -12 66q-13 34 -40 86v0v0z" />
  </g>

</svg>
