<?xml version="1.0" standalone="no"?>
<!DOCTYPE svg PUBLIC "-//W3C//DTD SVG 1.1//EN" "http://www.w3.org/Graphics/SVG/1.1/DTD/svg11.dtd" >
<svg xmlns="http://www.w3.org/2000/svg" xmlns:xlink="http://www.w3.org/1999/xlink" version="1.1" viewBox="0 -205 1024 1024">
  <g transform="matrix(1 0 0 -1 0 819)">
   <path fill="currentColor"
d="M60 856h300v128l84 -30q18 -7 0 -16l-32 -14v-68h210v124l82 -30q19 -7 2 -16l-32 -14v-64h198l42 54l70 -64q3 -3 4 -6q1 -10 -12 -10h-302v-44l4 -38q1 -15 -18 -26q-21 -12 -42 -12l4 64v56h-210v-48l4 -44q0 -15 -20 -26q-22 -12 -40 -12l4 84v46h-216q-24 0 -60 -8
l-24 34v0v0zM192 716h22v-42h666l30 34q68 -58 70 -64q3 -5 -2 -10q-6 -3 -26 -6q-22 -4 -46 -22q-25 -19 -68 -64l-16 10q29 45 62 96h-672q-6 -47 -26 -82q-22 -35 -52 -46q-31 -10 -44 8q-12 17 4 32q14 14 40 32t40 46q15 27 18 78v0v0zM494 620q81 -28 88 -34
q4 -5 0 -10q-5 -3 -28 -12v-12q47 -111 88 -162q45 38 60 56q15 14 84 86q60 -42 64 -50q3 -7 -2 -10q-6 -1 -18 -2q-12 0 -42 -8q-64 -44 -134 -88q42 -62 106 -106q60 -45 108 -60q45 -15 126 -26v-20q-61 0 -82 -12t-32 -27q-58 27 -118 75q-60 45 -114 112
q-51 66 -102 190v-387q0 -39 -24 -58q-25 -18 -64 -28q-6 36 -32 50q-24 15 -90 36l4 20q114 -31 136 -26q24 6 18 39v474v0v0zM92 480h248l26 34l62 -40q8 -6 8 -14q-4 -4 -16 -10q-16 -5 -28 -22q-52 -136 -136 -218q-81 -81 -204 -135l-6 14q107 66 182 145
q72 78 118 220h-182q-24 1 -50 -6l-22 32v0v0z" />
  </g>

</svg>
