<?xml version="1.0" standalone="no"?>
<!DOCTYPE svg PUBLIC "-//W3C//DTD SVG 1.1//EN" "http://www.w3.org/Graphics/SVG/1.1/DTD/svg11.dtd" >
<svg xmlns="http://www.w3.org/2000/svg" xmlns:xlink="http://www.w3.org/1999/xlink" version="1.1" viewBox="0 -205 1024 1024">
  <g transform="matrix(1 0 0 -1 0 819)">
   <path fill="currentColor"
d="M440 792l52 -36h370l36 34l44 -34q11 -7 14 -14q-1 -6 -34 -24v-70l4 -54q0 -12 -18 -20q-16 -8 -34 -10v30h-384v-16q-12 -7 -24 -10t-30 -6l4 100v130v0v0zM488 618h94v114h-94v-114v0v0zM630 618h94v114h-94v-114v0v0zM772 618h102v114h-102v-114v0v0zM380 854h520
l38 44l56 -54l2 -4q0 -12 -12 -12h-540q-22 0 -46 -8l-18 34v0v0zM582 968l6 12q82 -27 104 -44q22 -19 20 -40q0 -21 -12 -26q-12 -4 -26 -2q-12 0 -18 18t-18 36q-13 17 -56 46v0v0zM650 576l64 -12q10 -8 0 -16l-18 -8v-58l4 -38q0 -13 -14 -22q-13 -9 -40 -12l4 72v94v0
v0zM436 534l4 14q59 -10 92 -20q33 -9 42 -26q9 -16 4 -32q-5 -15 -22 -18q-15 0 -26 18q-12 18 -32 34q-21 12 -62 30v0v0zM712 468q99 53 156 92l52 -40q3 -9 -2 -12q-6 -3 -20 0q-16 1 -52 -12q-37 -12 -128 -42l-6 14v0v0zM398 374q99 29 220 70l4 -18
q-125 -57 -142 -72q-17 -12 -40 -32l-42 52v0v0zM728 430l2 16q116 -15 158 -26q41 -9 62 -30q18 -18 16 -38q-3 -18 -20 -20q-15 -4 -30 14q-15 15 -56 40q-42 25 -132 44v0v0zM696 374q12 -10 -6 -14l-20 -8q26 -60 64 -104q75 53 120 110q57 -43 60 -46v-6q-1 -4 -20 -4
q-18 -1 -44 -16q-27 -15 -102 -56q50 -57 82 -78q30 -19 70 -31q39 -10 102 -14v-18q-36 0 -56 -10q-21 -9 -38 -34q-67 36 -110 72q-42 33 -78 87q-37 53 -70 136q-23 -28 -82 -86v-151l136 51l8 -17q-69 -33 -108 -58q-36 -23 -66 -56l-50 52l34 18v123q-69 -66 -206 -131
l-6 14q72 44 138 101q66 55 106 98q38 41 82 104l60 -28v0v0zM36 808h158v180l74 -30q10 -6 2 -14l-28 -14v-122h64l34 42l50 -50q3 -3 4 -6q0 -12 -12 -12h-140v-122h56l34 42l48 -46q3 -3 4 -12q1 -7 -10 -8h-132v-120h58l38 42l48 -50q3 -3 6 -8q0 -10 -12 -10h-138v-46
q51 -15 84 -30q32 -15 44 -38q12 -22 6 -40q-5 -18 -22 -20q-16 -1 -28 20q-10 20 -28 44t-56 46v-282l4 -83q0 -11 -18 -26t-38 -16l4 123v232q-37 -75 -70 -126q-31 -52 -92 -113l-12 7q59 89 104 184q42 95 64 164h-78q-21 0 -68 -8l-16 34h168v120h-60q-21 0 -56 -8
l-16 32h132v122h-74q-21 0 -68 -8l-16 34v0v0z" />
  </g>

</svg>
