<?xml version="1.0" standalone="no"?>
<!DOCTYPE svg PUBLIC "-//W3C//DTD SVG 1.1//EN" "http://www.w3.org/Graphics/SVG/1.1/DTD/svg11.dtd" >
<svg xmlns="http://www.w3.org/2000/svg" xmlns:xlink="http://www.w3.org/1999/xlink" version="1.1" viewBox="0 -144 1024 1024">
  <g transform="matrix(1 0 0 -1 0 880)">
   <path fill="currentColor"
d="M623 371l-6 -41l-12 -47l-16 -44l-21 -40l-25 -36l-29 -31l-34 -28l-37 -23l-41 -18l-45 -13l-4 9l40 23l35 24l30 26l26 27l22 31l18 33l15 36l10 39l7 42l2 31h-138v22h215v226l65 -11l16 -11l-16 -10v-194h139l54 54l65 -54v-22h-188v-220h-65v220h-82zM791 65l-14 1
l-13 2l-13 4l-13 7l-10 9l-9 11l-7 12l-4 13l-2 13l-1 14h65v-7l1 -4l1 -5l2 -2l5 -2l5 -1l7 -1h109l31 135h11l-11 -135l19 -13l13 -19l-13 -19l-19 -13h-140zM51 125l-2 6v1l-1 1v2l-2 2v3l-2 4l-2 7l94 31l58 22v243h-68v-65l-65 -32v446l65 -32h68v215l64 -11l16 -11
l-16 -9v-184h68l32 27l59 -49l-26 -21v-274l-65 -33v33h-68v-218l77 29l-1 4l-14 42l-19 44l-12 22l8 6l36 -36l16 -20l14 -21l12 -21l10 -22l9 -23l8 -25l6 -24l4 -25l-8 -24l-22 -10l-23 8l-11 21v22l-2 22l-3 21l-4 21l-1 3l-38 -28l-55 -36l-88 -47l-62 -28l-11 -5
l-5 -20l-15 11l-3 7l-2 7l-1 2l-2 5l-2 5l-1 2v1l-2 5v1zM42 151l22 -61l-33 58zM812 577l52 -39l7 -18l-22 1l-57 -66l-27 -29l-15 -15l-14 -16l-8 6l9 19l8 19l16 36l33 67l8 15l5 10l-1 1zM539 447l-2 13l-3 13l-4 12l-4 13l-12 24l-17 26l-11 10l6 8l14 -8l14 -7l14 -9
l13 -10l12 -11l11 -13l10 -13l9 -15l7 -15l7 -17l-4 -24l-20 -15l-24 5l-14 20zM194 742h-68v-274h68v274zM326 742h-68v-274h68v274zM457 949l65 -32h313l32 27l59 -49l-27 -21v-241l-64 -33v33h-313l-65 -33v349zM835 768h-313v-114h313v114zM835 895h-313v-105h313v105z
" />
  </g>

</svg>
