<?xml version="1.0" standalone="no"?>
<!DOCTYPE svg PUBLIC "-//W3C//DTD SVG 1.1//EN" "http://www.w3.org/Graphics/SVG/1.1/DTD/svg11.dtd" >
<svg xmlns="http://www.w3.org/2000/svg" xmlns:xlink="http://www.w3.org/1999/xlink" version="1.1" viewBox="0 -36 256 256">
  <g transform="matrix(1 0 0 -1 0 220)">
   <path fill="currentColor"
d="M137.5 233q6.5 -7 -4.5 -17h74l14 11l17 -18h-163v-32h111l13 12l19 -19h-142l-8 -8l-13 12l6 6v29h-15q-10 0 -19 -2l-9 9h108q0 6 -3.5 12.5t-11.5 14.5l2 3q18 -6 24.5 -13zM23 138v5q61 9 84 23l14 -15q-8 -1 -37 -6v-29h17l13 11l14 -18h-44v-15q30 -11 37 -19.5
t2 -18t-13 5.5t-26 27v-37q0 -18 1 -36l-16 -8q1 19 1 38v44q-21 -35 -58 -57l-2 3q36 33 54 73h-20q-10 0 -19 -2l-9 9h54v26q-25 -2 -47 -4zM145 157l20 -10l-7 -5l-8 -15h22q1 16 0 40l24 -8l-9 -7q0 -11 -1 -25h20l12 11l16 -18h-48q-1 -15 -3 -30h33l13 11l17 -18h-57
q21 -49 58 -58v-4q-12 -1 -18 -11q-33 23 -45 73h-3q-14 -57 -72 -75l-2 4q47 22 60 71h-27q-10 0 -19 -2l-9 9h57q2 16 3 30h-25q-7 -11 -18 -24l-3 2q15 30 19 59z" />
  </g>

</svg>
