<?xml version="1.0" standalone="no"?>
<!DOCTYPE svg PUBLIC "-//W3C//DTD SVG 1.1//EN" "http://www.w3.org/Graphics/SVG/1.1/DTD/svg11.dtd" >
<svg xmlns="http://www.w3.org/2000/svg" xmlns:xlink="http://www.w3.org/1999/xlink" version="1.1" viewBox="0 -205 1024 1024">
  <g transform="matrix(1 0 0 -1 0 819)">
   <path fill="currentColor"
d="M344 982l84 -32q6 -2 4 -10q0 -3 -36 -20v-52h200v116l80 -32q6 -2 6 -10q0 -3 -36 -20v-54h208l40 50l64 -60q3 -3 4 -8q-1 -7 -16 -8h-300v-50q-1 -14 -20 -22q-21 -6 -30 -6v78h-200v-56q-3 -14 -24 -22q-7 -6 -28 -6v84h-210q-21 0 -68 -8l-20 34h298v114v0v0z
M304 588q6 -3 4 -6q3 -3 -6 -8q-33 -10 -42 -26q-10 -15 -40 -66v-320l4 -95q0 -12 -20 -28q-21 -16 -36 -14l4 131v266q-49 -77 -134 -148l-10 10q69 82 120 164q50 81 92 174l64 -34v0v0zM26 536q108 111 198 246l58 -42q9 -9 -2 -14q-30 -6 -42 -14q-11 -9 -52 -50
q-39 -41 -146 -136l-14 10v0v0zM440 788l76 -28q15 -7 -2 -16l-30 -14v-168h74v152l72 -30q3 -6 4 -6q0 -3 -6 -8l-26 -14v-48l4 -62q0 -12 -18 -20q-15 -7 -30 -10v22h-186l-20 -28l-52 40q21 14 22 28v142l66 -28q6 -3 6 -8q1 -6 -28 -20v-102h74v226v0v0zM280 464h260
l32 38l48 -40q19 -15 2 -24h-268q-18 0 -54 -8l-20 34v0v0zM350 402l50 -36h88l24 34l54 -32q7 -6 8 -12q0 -6 -30 -26v-114l104 72l10 -14q-120 -100 -138 -149l-54 47q33 17 34 44v126h-106v-66q-6 -94 -38 -143q-33 -48 -98 -90l-8 10q45 45 70 91q24 45 28 94
q1 47 2 164v0v0zM678 552q33 99 64 226l72 -26q3 -3 4 -12q-33 -12 -42 -38q-27 -70 -44 -116h152l36 48l62 -56q1 -3 2 -8q-3 -7 -12 -8h-92q-16 -132 -34 -198q-18 -64 -48 -116q24 -43 78 -88q51 -41 132 -61v-14q-27 1 -50 -4q-24 -2 -44 -26q-41 34 -70 64
q-27 29 -72 89q-51 -59 -120 -105q-66 -47 -156 -76l-4 16q69 34 132 80q62 42 128 123q-28 60 -40 118q-13 57 -22 138q-31 -87 -74 -138l-12 8q38 78 74 180v0v0zM710 530q26 -162 64 -242q40 92 62 272h-116l-10 -30v0v0z" />
  </g>

</svg>
