<?xml version="1.0" standalone="no"?>
<!DOCTYPE svg PUBLIC "-//W3C//DTD SVG 1.1//EN" "http://www.w3.org/Graphics/SVG/1.1/DTD/svg11.dtd" >
<svg xmlns="http://www.w3.org/2000/svg" xmlns:xlink="http://www.w3.org/1999/xlink" version="1.1" viewBox="0 -36 256 256">
  <g transform="matrix(1 0 0 -1 0 220)">
   <path fill="currentColor"
d="M180 231q6 -7 -0.5 -16.5t-10.5 3t-16 25.5l2 3q19 -8 25 -15zM213 210l12 12l19 -19h-108q-9 0 -18 -2l-8 9h103zM135 163.5q0 18.5 -1 28.5l13 -8h57l8 9l14 -12l-8 -5q0 -30 1 -34l-14 -5v7h-58v-5l-13 -5q1 11 1 29.5zM147 151h58v26h-58v-26zM123 122h102l6 11
l17 -14q-12 -5 -26 -27l-3 1l6 22h-101q2 -14 -2 -20.5t-11.5 -5.5t-0.5 12t8 30h4zM186 104l21 -9l-7 -8v-53q0 -10 8 -10h15q5 2 6 7.5t1 32.5h4q2 -22 4 -28.5t10 -9.5q-7 -13 -22 -13h-24q-15 2 -15 18v52zM158 91q0 -40 -16 -57.5t-44 -25.5l-1 3q26 13 38 32.5t9 61.5
l19 -8zM71 181h21l8 9l13 -13l-7 -6v-64l1 -13l-13 -5v7h-57v-7l-13 -6q1 21 1 92q-5 -8 -15 -19l-2 3q20 31 30 54.5t11 32.5l20 -10q-6 -1 -16 -20h29l9 11l14 -15q-10 0 -34 -31zM33 185l7 -4h25l17 28h-32q-7 -10 -17 -24zM37 141h23v33h-23v-33zM72 141h22v33h-22v-33z
M37 103h23v31h-23v-31zM72 103h22v31h-22v-31zM31.5 44q-1.5 -8 -5.5 -11.5t-12 -3.5t1 12t13 34h4q1 -23 -0.5 -31zM48 78q16 -19 16.5 -28.5t-6 -15t-7 8.5t-6.5 34zM68 81q24 -16 24.5 -25.5t-5 -14t-7.5 5.5t-14 32zM90 88q20 -11 25 -18t-0.5 -16.5t-8.5 2t-19 30.5z
" />
  </g>

</svg>
