<?xml version="1.0" standalone="no"?>
<!DOCTYPE svg PUBLIC "-//W3C//DTD SVG 1.1//EN" "http://www.w3.org/Graphics/SVG/1.1/DTD/svg11.dtd" >
<svg xmlns="http://www.w3.org/2000/svg" xmlns:xlink="http://www.w3.org/1999/xlink" version="1.1" viewBox="0 -36 256 256">
  <g transform="matrix(1 0 0 -1 0 220)">
   <path fill="currentColor"
d="M29 238q25 -10 30 -18t0.5 -16.5t-10.5 3.5t-21 28zM11 183q29 -12 31 -21t-3.5 -14.5t-9 5.5t-19.5 27zM36 89q6 4 33 106l5 -1q-19 -86 -23.5 -99.5t-3 -47.5t-9.5 -28t-8 22.5t3.5 26.5t-21.5 15v4q18 -2 24 2zM80 213q0 19 -1 32l20 -9l-6 -7v-22q23 16 33 31l13 -15
q-13 -2 -46 -21v-12q0 -9 9 -9h20q11 0 11 7.5t1 16.5h4q1 -10 2 -14.5t8 -8.5q-8 -12 -20 -12h-32q-17 0 -16 16v27zM214 233l8 8l15 -16q-10 -3 -19 -10t-21 -20q6 -5 4.5 -9t-5.5 -7.5t-7 5.5t-17 24l1 3q15 -8 20 -12l20 27h-30q-13 0 -22 -3l-10 10h63zM90 140h27
l10 11l18 -18h-31v-36h8l10 11l18 -18h-37q0 -5 -2 -12q20 -15 24.5 -23t-1 -16.5t-8.5 5t-16 30.5q-5 -19 -15.5 -33.5t-30.5 -29.5l-3 3q20 19 29 40.5t10 35.5h-15l-11 -3l-10 10h37v36h-14q-11 -15 -23 -28l-4 2q9 14 16.5 30.5t10.5 30.5l20 -10l-8 -5q-2 -3 -9 -13z
M168 74q10 -14 20 -23v115h-19l-11 -3l-10 10h73l8 11l16 -16q-7 -3 -13 -6.5t-17 -20.5l-4 2q3 8 10 23h-20v-50h11l10 11l18 -18h-39v-67q7 -6 20 -10t25 -4v-4q-12 -4 -15 -14q-23 10 -38.5 22.5t-26.5 33.5q-5 -18 -16 -34t-21 -25l-3 2q11 16 18 31t10 34t2 62l21 -9
l-7 -7q-1 -29 -2 -46z" />
  </g>

</svg>
