<?xml version="1.0" standalone="no"?>
<!DOCTYPE svg PUBLIC "-//W3C//DTD SVG 1.1//EN" "http://www.w3.org/Graphics/SVG/1.1/DTD/svg11.dtd" >
<svg xmlns="http://www.w3.org/2000/svg" xmlns:xlink="http://www.w3.org/1999/xlink" version="1.1" viewBox="0 -205 1024 1024">
  <g transform="matrix(1 0 0 -1 0 819)">
   <path fill="currentColor"
d="M406 808l36 48l56 -54q3 -3 4 -8q0 -12 -12 -12h-372q-21 0 -68 -8l-16 34h372v0v0zM72 670h290l36 50l58 -56q3 -3 4 -8q0 -12 -12 -12h-288q-21 0 -68 -8l-20 34v0v0zM112 432l60 -38h168l28 38l58 -46q6 -4 6 -8q1 -6 -28 -26v-158l4 -87q-1 -12 -22 -24
q-18 -9 -36 -12v81h-186v-83q0 -15 -20 -28q-18 -15 -36 -10l4 137v264v0v0zM164 178h186v190h-186v-190v0v0zM74 536h286l34 50l62 -56q3 -3 4 -8q0 -12 -12 -12h-292q-21 0 -62 -8l-20 34v0v0zM894 506q-1 -13 -20 -26q-19 -12 -38 -14v76h-244v-388q-1 -34 14 -41
q15 -6 58 -10h180q30 0 46 8q13 7 20 22q5 12 8 39q2 24 8 124h22q3 -62 6 -100q4 -39 38 -61q-15 -38 -36 -56t-68 -24h-256q-48 4 -68 20q-18 15 -24 69v474l62 -48h236v266h-230q-38 1 -70 -10l-22 38h304l38 42q72 -54 70 -60q-4 -5 -10 -10q-4 -4 -28 -22v-202l4 -106
v0v0zM178 972l8 12q60 -24 90 -48q30 -23 36 -46q5 -22 -4 -40q-9 -19 -30 -16q-21 2 -26 26q-3 22 -18 50q-12 26 -56 62v0v0z" />
  </g>

</svg>
