<?xml version="1.0" standalone="no"?>
<!DOCTYPE svg PUBLIC "-//W3C//DTD SVG 1.1//EN" "http://www.w3.org/Graphics/SVG/1.1/DTD/svg11.dtd" >
<svg xmlns="http://www.w3.org/2000/svg" xmlns:xlink="http://www.w3.org/1999/xlink" version="1.1" viewBox="0 -205 1024 1024">
  <g transform="matrix(1 0 0 -1 0 819)">
   <path fill="currentColor"
d="M590 988l90 -34q8 -3 8 -6q3 -6 -2 -12l-44 -16v-192h232l40 50l64 -62q3 -3 4 -8q-1 -7 -10 -8h-330v-230h136l32 42l62 -44q3 -4 4 -8q0 -7 -30 -34v-262l4 -79q0 -12 -18 -24q-15 -12 -38 -16v94h-344v-56q-1 -12 -22 -28q-19 -16 -34 -14l4 125v344l58 -40h134v518v0
v0zM450 166h344v276h-344v-276v0v0zM430 876l18 -10l-200 -488q-13 -25 -22 -82q-1 -48 8 -102q8 -54 8 -89q-1 -35 -20 -44t-32 -4q-11 7 -16 22q-6 16 0 58q6 40 12 73q3 32 -2 74q-12 20 -56 32l-68 12v20h86q42 3 60 46l224 482v0v0zM152 928l6 14q51 -16 90 -34
q36 -18 54 -36q17 -18 20 -38q3 -19 -8 -34q-9 -14 -24 -12q-13 2 -20 16q-6 11 -14 32q-9 20 -26 38q-18 18 -78 54v0v0zM52 700l6 14q56 -15 94 -30q36 -16 54 -34q15 -18 18 -38q3 -19 -6 -34q-9 -14 -24 -12q-13 2 -20 16q-5 11 -16 32q-9 21 -26 36q-15 14 -80 50v0v0z
" />
  </g>

</svg>
