<?xml version="1.0" standalone="no"?>
<!DOCTYPE svg PUBLIC "-//W3C//DTD SVG 1.1//EN" "http://www.w3.org/Graphics/SVG/1.1/DTD/svg11.dtd" >
<svg xmlns="http://www.w3.org/2000/svg" xmlns:xlink="http://www.w3.org/1999/xlink" version="1.1" viewBox="0 -36 256 256">
  <g transform="matrix(1 0 0 -1 0 220)">
   <path fill="currentColor"
d="M62 207.5q-4 14.5 -17 32.5l1 2q21 -12 26.5 -19.5t-0.5 -18.5t-10 3.5zM83 195l12 -14l-7 -5q-8 -21 -20 -41v-17l5 -2q10 12 19 34l13 -12q-10 -3 -28 -24q13 -5 19 -12t2 -17.5t-10 3t-20 26.5v-100l-12 -6v109q-19 -25 -47 -45l-2 3q18 18 36.5 43t31.5 61h-28
q-11 0 -20 -2l-9 9h56zM134 102h72v19h-72v-19zM134 73h72v22h-72v-22zM120 72.5q0 36.5 -1 63.5l15 -8h70l6 10l17 -11l-7 -7v-86q1 -17 -22 -24q-1 13 -27 19v4q23 -5 29.5 -3.5t5.5 11.5v25h-72v-48l-15 -9q1 27 1 63.5zM161 246l23 -10l-8 -7v-13h35l15 12l15 -19h-65
v-24h28l15 11l14 -18h-57v-25h44l14 13l16 -20h-128q-10 0 -19 -2l-9 9h68v25h-19q-10 0 -20 -2l-9 9h48v24h-33q-11 0 -20 -2l-9 9h62q0 10 -1 30z" />
  </g>

</svg>
