<?xml version="1.0" standalone="no"?>
<!DOCTYPE svg PUBLIC "-//W3C//DTD SVG 1.1//EN" "http://www.w3.org/Graphics/SVG/1.1/DTD/svg11.dtd" >
<svg xmlns="http://www.w3.org/2000/svg" xmlns:xlink="http://www.w3.org/1999/xlink" version="1.1" viewBox="0 -205 1024 1024">
  <g transform="matrix(1 0 0 -1 0 819)">
   <path fill="currentColor"
d="M420 642h358l36 44l66 -50l4 -8q0 -12 -12 -12h-368q-21 0 -68 -8l-16 34v0v0zM326 468h542l40 50l66 -56q3 -4 4 -8q0 -12 -12 -12h-290v-315q3 -43 -20 -68q-24 -22 -62 -32q-6 34 -36 50q-28 15 -98 32l6 20q105 -22 132 -20q28 1 26 39v294h-226q-21 0 -56 -8l-16 34
v0v0zM484 386q71 -35 74 -40q0 -3 -2 -8q-1 -6 -20 -6q-18 0 -60 -54q-42 -55 -188 -191l-14 12q135 145 210 287v0v0zM740 368l10 12q105 -63 150 -116q46 -51 50 -84q2 -34 -10 -45q-12 -13 -30 -6q-18 6 -30 45q-12 38 -36 80q-25 39 -104 114v0v0zM542 972l8 10
q63 -18 100 -42q35 -24 44 -44q9 -21 -2 -42q-9 -20 -32 -18q-22 3 -28 30q-7 28 -26 50q-17 22 -64 56v0v0zM434 864h20v-50h428l30 40q69 -49 72 -56q3 -6 -2 -8q-4 -3 -22 -8q-19 -6 -34 -18q-16 -12 -64 -68l-16 10q30 57 42 82h-434q1 -54 -22 -84q-21 -27 -44 -30
q-24 -4 -32 14q-7 18 10 34q16 14 38 38q21 23 30 104v0v0zM178 980l84 -30q12 -7 0 -16l-32 -12v-170q54 -27 78 -44q24 -18 34 -38q7 -22 2 -40q-6 -19 -26 -20q-18 0 -26 22q-6 21 -14 42q-9 22 -48 56v-562l4 -111q0 -11 -18 -26q-18 -14 -42 -16l4 161v804v0v0z
M102 740h18q1 -81 0 -120q0 -39 -18 -66q-16 -25 -38 -26q-22 0 -28 16q-6 14 6 28l22 30t20 46q9 28 18 92v0v0z" />
  </g>

</svg>
