<?xml version="1.0" standalone="no"?>
<!DOCTYPE svg PUBLIC "-//W3C//DTD SVG 1.1//EN" "http://www.w3.org/Graphics/SVG/1.1/DTD/svg11.dtd" >
<svg xmlns="http://www.w3.org/2000/svg" xmlns:xlink="http://www.w3.org/1999/xlink" version="1.1" viewBox="0 -36 256 256">
  <g transform="matrix(1 0 0 -1 0 220)">
   <path fill="currentColor"
d="M24.5 107q-1.5 -12 -6.5 -14.5t-8.5 1.5t1.5 13.5t10 47.5h4q1 -36 -0.5 -48zM38 208l20 -11l-7 -7v-102q13 31 19.5 57.5t11.5 64.5l19 -15l-8 -5q-7 -35 -17.5 -67.5t-24.5 -52.5v-19q-1 -12 7 -11h21q7 0 9 14.5t3 36.5h3q1 -30 2.5 -37.5t9.5 -11.5q-8 -10 -11.5 -12
t-14.5 -2h-27q-14 0 -14 15v13q-18 -19 -31 -29l-1 4q15 16 32 41q0 109 -1 136zM72 221q3 -8 -0.5 -18.5t-9 5t-18.5 30.5l1 3q24 -12 27 -20zM107.5 112.5q4.5 -12.5 -2.5 -21.5t-7.5 1t-3.5 22t-9 29l2 2q16 -20 20.5 -32.5zM189 232q4 -8 -4 -17h41l7 8l14 -16
q-12 -1 -25 -19l-3 2l8 18h-94q1 -13 -4.5 -19t-12.5 -3.5t0.5 11t11.5 30.5h4l1 -12h46q-1 15 -14 30l2 2q18 -7 22 -15zM107 116q14 8 26 16l-1 11l12 -6q15 8 28 16v28h-11q-11 0 -20 -2l-9 9h64l12 9l15 -16h-38v-24q25 15 31 23l13 -15l-9 -1q-12 -6 -24.5 -13
t-33.5 -16h50l8 8l13 -13l-7 -6v-42q0 -17 1 -27l-14 -7v9h-68v-5l-13 -6q1 17 1 76q-11 -5 -25 -9zM135.5 155q-9.5 -7 -24.5 -15l-2 3q21 16 31 33l14 -13q-9 -1 -18.5 -8zM145 128v-17h68v17h-68zM145 104v-17h68v17h-68zM145 80v-16h68v16h-68zM107 7l-2 3q34 20 47 41
l15 -16l-7 -1q-26 -17 -53 -27zM236.5 31q7.5 -8 4 -18.5t-12 3t-32.5 32.5l2 3q31 -12 38.5 -20z" />
  </g>

</svg>
