<?xml version="1.0" standalone="no"?>
<!DOCTYPE svg PUBLIC "-//W3C//DTD SVG 1.1//EN" "http://www.w3.org/Graphics/SVG/1.1/DTD/svg11.dtd" >
<svg xmlns="http://www.w3.org/2000/svg" xmlns:xlink="http://www.w3.org/1999/xlink" version="1.1" viewBox="0 -120 1000 1000">
  <g transform="matrix(1 0 0 -1 0 880)">
   <path fill="currentColor"
d="M664 523l-16 -77h200l42 55l70 -62v-20h-317q-9 -40 -19 -78h198l26 33l57 -43q14 -10 14 -16q0 -7 -17 -14l-18 -9q-42 -59 -97 -115q65 -43 177 -74v-12l-15 -5q-17 -7 -23 -18q-4 -7 -7 -24q-91 35 -175 100q-18 -14 -72 -40q-87 -45 -237 -65l-4 16q73 16 130 38
q73 29 148 86q-47 52 -87 135h-10q-28 -79 -76 -145q-41 -54 -95 -90q-24 -15 -57 -35l-13 13q36 24 79 70q97 99 131 292h-124l-12 27h142q10 69 18 137l71 -21q18 -5 18 -16q0 -9 -16 -16zM649 314q14 -25 38 -54q27 -30 54 -51q21 22 45 55t30 50h-167zM437 544
q126 51 226 159q-40 42 -62 75q-24 33 -52 90h-65l-13 27h336l24 30l55 -40q12 -9 12 -18q0 -8 -12 -11l-27 -7q-71 -93 -122 -146q106 -66 232 -106l-2 -14q-46 -12 -72 -48q-102 55 -196 134q-43 -35 -108 -75q-54 -33 -147 -66zM575 868q41 -72 118 -135q59 62 100 135
h-218zM129 257q12 -46 12 -87q0 -71 -32 -98q-14 -12 -29 -12q-13 0 -22 11q-6 9 -6 19q0 12 14 28q33 41 42 95q2 11 7 44h14zM192 271q56 -84 56 -149q0 -24 -14 -37q-10 -9 -22 -9q-25 0 -25 35l1 82q0 16 -12 73zM265 279q23 -22 36 -38q47 -56 47 -111q0 -20 -12 -30
q-7 -6 -15 -6q-24 0 -27 30q-7 54 -24 102q-11 33 -17 48zM343 282q48 -19 80 -55q29 -32 29 -60q0 -18 -12 -30q-9 -8 -20 -8q-15 0 -22 23q-14 52 -35 83q-7 12 -26 39zM45 552q90 151 148 397l88 -32q14 -5 14 -15q0 -9 -14 -13l-32 -8q-10 -25 -21 -52h94l22 39l73 -48
q11 -7 11 -16q0 -8 -14 -12l-30 -7l-77 -108h62l18 33l57 -42q14 -10 14 -17q0 -5 -8 -9l-21 -11v-317l-60 -13v28h-193v-36l-58 -12v341q-26 -44 -57 -83zM165 693l26 -16h81q5 13 10 24q27 72 37 101h-102q-29 -63 -52 -109zM176 492v-140h67v140h-67zM176 652v-133h67
v133h-67zM298 492v-140h71v140h-71zM298 652v-133h71v133h-71z" />
  </g>

</svg>
