<?xml version="1.0" standalone="no"?>
<!DOCTYPE svg PUBLIC "-//W3C//DTD SVG 1.1//EN" "http://www.w3.org/Graphics/SVG/1.1/DTD/svg11.dtd" >
<svg xmlns="http://www.w3.org/2000/svg" xmlns:xlink="http://www.w3.org/1999/xlink" version="1.1" viewBox="0 -36 256 256">
  <g transform="matrix(1 0 0 -1 0 220)">
   <path fill="currentColor"
d="M25 229q36 -22 36 -33t-5 -16.5t-10.5 10.5t-23.5 36zM35 97q9 1 42 103l5 -2q-31 -103 -32 -111t0 -25t2 -29.5t-6.5 -12t-12.5 5.5t-2 12.5t5 23.5t-4 21.5t-21 9.5l1 5q14 -2 23 -1zM228 100l19 -21h-153q-10 -1 -19 -3l-10 10h23v86q0 10 -1 33l17 -7h21q0 31 -1 45
l23 -9l-9 -8v-28h26q0 35 -1 45l23 -8l-8 -8v-29h21l8 11l16 -13l-8 -7v-102zM103 145h22v46h-22v-46zM138 145h26v46h-26v-46zM178 145h22v46h-22v-46zM103 86h22v52h-22v-52zM138 86h26v52h-26v-52zM178 86h22v52h-22v-52zM142 65q-12 -6 -27 -22t-46 -35l-3 4
q22 17 37 36t18 29zM213 46.5q15 -12.5 8.5 -26t-12 -2t-16 26.5t-24.5 27l3 3q26 -16 41 -28.5z" />
  </g>

</svg>
