<?xml version="1.0" standalone="no"?>
<!DOCTYPE svg PUBLIC "-//W3C//DTD SVG 1.1//EN" "http://www.w3.org/Graphics/SVG/1.1/DTD/svg11.dtd" >
<svg xmlns="http://www.w3.org/2000/svg" xmlns:xlink="http://www.w3.org/1999/xlink" version="1.1" viewBox="0 -144 1024 1024">
  <g transform="matrix(1 0 0 -1 0 880)">
   <path fill="currentColor"
d="M77 457l-42 30l-3 2l-7 5l5 6l6 9l6 13l6 16l6 20l5 22l5 26l9 60l4 34l9 1l7 -59h18v318l59 -30h188l32 27l59 -48l-27 -22v-245h13l33 27l59 -48l-27 -16l-12 -6l-14 -29l-25 -47l-10 -16l-4 -7l3 -2l-9 -7l-10 -20l-8 2v-347h-64v104h-163v-162l-65 -33v516l65 -32
h163l32 27l39 -32l6 37l5 33l3 16l2 14v7h-339l1 -17l1 -27v-25l-1 -23l-3 -21l-3 -18l-6 -18zM332 104l4 1l4 1l1 1l1 1l1 1l2 5l1 5l1 7h64l-1 -14l-2 -14l-4 -13l-7 -12l-9 -11l-11 -8l-12 -7l-13 -4l-13 -3h-14v32l-54 16v16h61zM901 498l-23 16l-22 19l-43 45l-42 56
l-20 31l-20 35v1v-214l-59 -29l19 -10l12 -15l-19 -5l-14 -40h168l54 54l64 -54v-22h-135l-6 -45l-13 -51l-21 -47l-14 -22l35 -18l29 -18l27 -20l25 -22l24 -24l7 -24l-11 -22l-24 -7l-22 11l-18 23l-20 22l-21 20l-23 19l-25 18l-11 7l-19 -19l-41 -31l-46 -24l-52 -19
l-59 -14l-63 -7l-2 10l61 17l53 21l46 23l39 27l32 29l8 11l-31 15l-51 22l-14 -40l-71 -9l65 188h-160v22h168l31 91l33 -17v205l-26 -36l-25 -30l-26 -28l-27 -26l-28 -24l-30 -22l-32 -18l-33 -17l-5 8l51 50l48 52l43 55l20 31l18 31l17 33l4 9h-186v21h217v110l-47 -7
l-41 -4l-43 -4l-44 -1l-2 9l123 35l72 22l65 22l29 12l46 21h1l4 2l5 -11l43 -38l1 -17l-21 8l-30 -10l-30 -10l-32 -8l-34 -8v-123h105l54 54l64 -54v-21h-223v-1l71 -76l47 -45l22 -18l22 -16l21 -13l20 -10l51 -21l-61 -51zM756 366h-94l-43 -125l19 -2l36 -6l34 -10
l10 -3l15 28l14 39l8 43zM347 364h-163v-112h163v112zM347 498h-163v-113h163v113zM25 494l52 -37l-21 -13l-24 5l-12 21zM358 909h-188v-267h61v194l59 -29h68v102zM358 785h-68v-143h68v143z" />
  </g>

</svg>
