<?xml version="1.0" standalone="no"?>
<!DOCTYPE svg PUBLIC "-//W3C//DTD SVG 1.1//EN" "http://www.w3.org/Graphics/SVG/1.1/DTD/svg11.dtd" >
<svg xmlns="http://www.w3.org/2000/svg" xmlns:xlink="http://www.w3.org/1999/xlink" version="1.1" viewBox="0 -144 1024 1024">
  <g transform="matrix(1 0 0 -1 0 880)">
   <path fill="currentColor"
d="M808 376l8 -15l36 -35l1 -18l-20 9l-13 -6l-40 -16l-66 -23l-48 -15l-19 -5l21 -16l43 -28l46 -24l49 -20l51 -18l100 -26l-63 -57l-58 19l-55 23l-52 27l-47 30l-45 34l-40 37l-37 41l-32 45l-27 45l-47 -28l-49 -26l-50 -24l-11 -5v-147l44 13l185 62l4 -9l-74 -44
l-98 -51l-76 -36l-19 -8l-6 -21l-15 12l-7 24l-2 3l-1 3l-8 29l-1 3l10 2v139l-27 -11l-52 -16l-51 -14l-53 -12l-53 -7l-2 9l99 37l96 42l48 23l47 24l47 27l46 29l90 63l31 -44l7 -8l1 -19l-18 7l-15 -9l32 -38l36 -38l38 -34l3 -2l174 109zM270 114l19 -62l-29 59z
M898 484l-1 -14l-2 -13l-4 -13l-7 -13l-9 -10l-11 -9l-12 -7l-13 -4l-13 -2l-14 -1v32l-107 16v16h107l7 1l4 1l5 1l2 3l2 4l1 5l1 7h64zM92 714l64 -33h678l32 27l59 -48l-27 -22v-154h-64v176h-678v-227l-64 -32v313zM297 650l65 -33h266l32 27l59 -48l-27 -22v-74
l-64 -32v32h-266l-65 -32v182zM628 596h-266v-75h266v75zM244 871l65 -33h372l32 27l59 -48l-26 -22v-67l-65 -33v33h-372l-65 -33v176zM681 817h-372v-68h372v68zM33 881v21h430v83l64 -11l16 -10l-16 -10v-52h332l45 49l53 -49v-21h-924z" />
  </g>

</svg>
