<?xml version="1.0" standalone="no"?>
<!DOCTYPE svg PUBLIC "-//W3C//DTD SVG 1.1//EN" "http://www.w3.org/Graphics/SVG/1.1/DTD/svg11.dtd" >
<svg xmlns="http://www.w3.org/2000/svg" xmlns:xlink="http://www.w3.org/1999/xlink" version="1.1" viewBox="0 -205 1024 1024">
  <g transform="matrix(1 0 0 -1 0 819)">
   <path fill="currentColor"
d="M68 384h206v108h-44q-18 0 -38 -8l-16 36h196l32 38l54 -48q2 0 2 -6q0 -12 -8 -12h-128v-108h86l38 46l60 -58q2 -3 2 -8q0 -9 -8 -8h-178v-217q1 -60 -22 -82q-24 -24 -60 -30q-12 36 -42 50q-30 15 -72 26l4 18q88 -18 116 -16q26 2 26 34v217h-128q-30 3 -62 -8
l-16 36v0v0zM284 768q68 -31 70 -38q1 -7 -4 -10l-16 -4q-12 -1 -32 -22q99 -36 150 -66q52 -30 62 -54q9 -24 0 -38q-7 -13 -26 -14q-17 -1 -34 28q-15 29 -66 68q-49 38 -98 58q-49 -63 -104 -122q-55 -57 -136 -126l-10 12q87 98 136 160q45 60 108 168v0v0zM216 284
q6 -3 6 -6q3 -10 -6 -14q-18 0 -36 -18q-66 -89 -144 -163l-10 12q72 95 136 223l54 -34v0v0zM358 294l10 12q66 -42 100 -72q33 -28 40 -52q7 -25 -4 -39q-10 -13 -28 -12q-17 1 -22 23q-5 24 -28 58q-21 32 -68 82v0v0zM914 410l70 -46q6 -3 6 -8q0 -7 -20 -10l-142 -32
v-156l4 -91q0 -11 -18 -26q-15 -11 -42 -14l4 122v155l-206 -42q-16 -9 -40 -20l-26 32l272 60v418q84 -25 88 -32q3 -7 -2 -10q-7 -3 -34 -18v-350l66 16l20 52v0v0zM604 698q69 -30 102 -60q31 -27 30 -50q0 -24 -14 -32q-12 -7 -26 -4q-15 4 -20 26q-6 21 -24 48
q-16 23 -56 62l8 10v0v0zM566 522q83 -42 110 -68q24 -24 22 -48q-4 -22 -14 -28t-26 -2q-15 4 -18 26q-4 20 -22 46q-15 24 -60 64l8 10v0v0zM322 986l84 -28q6 -3 6 -8q-1 -3 -40 -26v-40h260v98l80 -30q3 -5 4 -10q0 -3 -32 -20v-38h182l40 48l60 -62q3 -1 4 -8
q-1 -6 -16 -6h-270v-58q0 -12 -12 -20q-9 -6 -18 -8q-10 -3 -22 -2v88h-260v-50q0 -12 -8 -18l-18 -10q-9 -3 -24 -2v80h-186q-22 -1 -70 -10l-18 38h274v102v0v0z" />
  </g>

</svg>
