<?xml version="1.0" standalone="no"?>
<!DOCTYPE svg PUBLIC "-//W3C//DTD SVG 1.1//EN" "http://www.w3.org/Graphics/SVG/1.1/DTD/svg11.dtd" >
<svg xmlns="http://www.w3.org/2000/svg" xmlns:xlink="http://www.w3.org/1999/xlink" version="1.1" viewBox="0 -36 256 256">
  <g transform="matrix(1 0 0 -1 0 220)">
   <path fill="currentColor"
d="M115 126.5q-2 -20.5 -4 -27.5t-8.5 -11.5t-22.5 -7.5q-1 8 -4 11t-18 7v4l25.5 -4.5t11.5 3t6 22.5q-24 -6 -44 -12.5t-27 -13.5l-11 18q13 1 35.5 4.5t46.5 8.5q3 23 3 34h-55l-4 -3l-15 9q8 4 10.5 14.5t4.5 26.5l15 -8h43v23h-41q-10 0 -20 -2l-10 9h68l9 9l16 -14
l-9 -4v-9q0 -12 1 -19l-14 -5v5h-45q-2 -4 -8 -25h50l9 9l16 -13l-7 -4q-1 -14 -3 -34.5zM227 116q-1 -11 -3.5 -18t-10.5 -11.5t-18 -6.5q0 6 -6.5 9.5t-22.5 9.5v3q24 -4 32.5 -4t11.5 7t4 26.5t2 30.5h-65l-3 -5l-17 11q8 2 9.5 11t4.5 31l14 -9h47v23h-43q-11 0 -20 -2
l-10 9h72l9 10l14 -12l-9 -5q0 -24 1 -30l-14 -4v4h-48q-3 -12 -7 -25h64l6 10l16 -10l-7 -8q-2 -34 -3 -45zM43 156q15 -5 22.5 -8.5t8 -8.5t-3 -8.5t-4.5 -3t-3 4.5t-8.5 10.5t-12.5 9.5zM142 155q14 -5 18 -7t11 -7t2.5 -13t-8 -3t-7 10.5t-18.5 16.5zM171.5 121
q23.5 7 36.5 11l1 -3q-37 -17 -54 -24t-22 -13l-12 17q27 5 50.5 12zM119 93l24 -11l-8 -6v-14h46l16 13l19 -20h-81v-30h77l15 13l20 -20h-207q-11 0 -20 -2l-10 9h110v30h-52q-11 0 -21 -2l-9 9h82q0 18 -1 31z" />
  </g>

</svg>
