<?xml version="1.0" standalone="no"?>
<!DOCTYPE svg PUBLIC "-//W3C//DTD SVG 1.1//EN" "http://www.w3.org/Graphics/SVG/1.1/DTD/svg11.dtd" >
<svg xmlns="http://www.w3.org/2000/svg" xmlns:xlink="http://www.w3.org/1999/xlink" version="1.1" viewBox="0 -36 256 256">
  <g transform="matrix(1 0 0 -1 0 220)">
   <path fill="currentColor"
d="M116 141l-3 3q10 17 20 46t14 53l21 -11l-9 -6q-5 -12 -11 -28h69l11 11l17 -18h-48v-43h16l10 10l17 -17h-43v-44h17l10 11l17 -18h-44v-49h22l11 11l18 -18h-99v-18l-14 -7q1 34 1 162q-10 -19 -20 -30zM149 191v-43h35v43h-35zM149 97h35v44h-35v-44zM149 41h35v49
h-35v-49zM179 243q16 -9 23 -17t0 -18t-10 3t-15 30zM27.5 71.5q0.5 31.5 -0.5 71.5l13 -8h55l5 10l14 -10l-6 -8v-91q0 -13 -5 -18t-12 -9q-2 9 -7.5 12.5t-14.5 6.5l1 4q14 -2 20 -2t6 7v91h-56v-52t-5.5 -32.5t-20.5 -34.5l-4 3q17 28 17.5 59.5zM48 115l1 3
q24 -5 33 -10t5 -14.5t-11 1t-28 20.5zM48 49l-7 16q19 3 52 13l1 -2q-32 -17 -46 -27zM37 201q-10 0 -19 -2l-10 9h93l11 10l16 -17h-91zM83 238q-5 -2 -23.5 -34t-26.5 -40l66 2q-9 15 -20 27l3 2q21 -14 29 -24t3 -19t-8 -2.5t-5 10.5q-45 -5 -56 -7t-20 -6l-9 17
q11 2 28 35.5t22 48.5z" />
  </g>

</svg>
