<?xml version="1.0" standalone="no"?>
<!DOCTYPE svg PUBLIC "-//W3C//DTD SVG 1.1//EN" "http://www.w3.org/Graphics/SVG/1.1/DTD/svg11.dtd" >
<svg xmlns="http://www.w3.org/2000/svg" xmlns:xlink="http://www.w3.org/1999/xlink" version="1.1" viewBox="0 -205 1024 1024">
  <g transform="matrix(1 0 0 -1 0 819)">
   <path fill="currentColor"
d="M778 576q7 -4 6 -10q0 -1 -6 -4l-20 -10v-24h114l36 38l50 -46q3 -4 4 -4q5 -12 -4 -12h-200v-74h80l30 34l50 -44q2 -1 4 -8q3 -6 -8 -6h-156v-70h140l34 36l54 -44q3 -3 4 -8q-1 -9 -10 -8h-326q34 -64 80 -112q81 51 132 94q44 -39 46 -44q3 -4 0 -8q-4 -3 -16 -2
q-12 0 -36 -6q-23 -6 -112 -48q39 -37 78 -59q39 -21 90 -34q47 -9 86 -12v-18q-28 0 -52 -6q-24 -5 -42 -32q-79 37 -124 74q-43 35 -76 75q-34 42 -82 138h-26l-70 -70v-141l136 61l10 -14q-112 -66 -136 -87q-24 -20 -42 -44l-48 52l34 20v119q-100 -83 -226 -145l-8 14
q102 66 174 127q70 60 110 108h-170q-20 -1 -46 -10l-18 34h212v70h-86q-20 -1 -46 -10l-18 34h150v74h-106q-34 -1 -58 -10l-18 34h182v74l68 -24q9 -2 6 -10q0 -1 -6 -4l-22 -10v-26h152v66l68 -18v0v0zM558 336h152v70h-152v-70v0v0zM558 430h152v74h-152v-74v0v0z
M868 846l38 46l62 -54q3 -2 4 -4q1 -12 -10 -12h-556q-21 0 -56 -8l-16 32h534v0v0zM400 790l44 -30h106l26 30l46 -32q6 -5 6 -10q1 -4 -22 -16v-54l4 -46q2 -13 -16 -22q-18 -10 -32 -8v22h-118v-14q1 -7 -16 -16q-18 -7 -32 -8l4 92v112v0v0zM444 646h118v92h-118v-92v0
v0zM682 790l44 -30h114l20 30l46 -32q7 -5 8 -10q0 -4 -24 -16v-50l4 -46q2 -12 -16 -24q-18 -10 -32 -8v22h-120v-10q0 -3 -12 -12t-36 -8l4 86v108v0v0zM726 648h120v90h-120v-90v0v0zM556 972l8 10q74 -27 94 -48t20 -38q0 -19 -12 -28q-11 -9 -28 -6q-15 2 -20 26
q-4 21 -16 40q-11 17 -46 44v0v0zM162 970l86 -32q12 -7 -6 -16l-32 -14v-250q44 53 92 134q55 -42 56 -50q1 -7 -4 -8q-3 -1 -18 -2q-12 -1 -42 -28q-28 -27 -86 -78q3 -163 -6 -242q43 -31 74 -62q30 -31 42 -58q9 -28 6 -46q-2 -19 -10 -28q-9 -9 -24 -6t-24 46
q-6 39 -18 66q-12 24 -48 66q-12 -99 -54 -180q-39 -78 -122 -155l-10 10q53 68 86 137t48 144q16 75 14 298v354v0v0zM106 708q9 -97 6 -142t-24 -68q-18 -22 -38 -20q-18 3 -24 18q-4 14 14 34t30 50q11 31 20 128h16v0v0z" />
  </g>

</svg>
