<?xml version="1.0" standalone="no"?>
<!DOCTYPE svg PUBLIC "-//W3C//DTD SVG 1.1//EN" "http://www.w3.org/Graphics/SVG/1.1/DTD/svg11.dtd" >
<svg xmlns="http://www.w3.org/2000/svg" xmlns:xlink="http://www.w3.org/1999/xlink" version="1.1" viewBox="0 -36 256 256">
  <g transform="matrix(1 0 0 -1 0 220)">
   <path fill="currentColor"
d="M205 118q-18 0 -70 -4v-27h77l15 13l18 -20h-99q25 -23 53.5 -35.5t48.5 -13.5v-4q-17 -2 -20 -14q-59 24 -88 67h-5q0 -30 1 -66l-16 -7q1 34 1 72q-38 -46 -109 -69l-1 3q61 28 93 67h-63q-10 0 -19 -2l-9 9h108v24q-41 -2 -79 -3v5q37 2 80 7.5t67 16.5zM59 227
q-10 0 -20 -2l-9 9h94l14 10l16 -17h-60q-11 -18 -17 -25h46l10 9l15 -15l-8 -3q-45 -56 -116 -74l-1 4q65 25 100 72h-50q-22 -20 -47 -31l-3 3q37 24 54 60h-18zM177 157l-15 -7q1 18 1 39t-1 35l24 -9l-9 -7v-51zM197.5 144.5q10.5 -0.5 10.5 9.5v60q0 11 -1 33l25 -9
l-10 -7v-78q2 -22 -18 -29q-2 9 -9 12t-19 6v4q11 -1 21.5 -1.5zM82 170.5q4 -6.5 -1 -13.5t-10.5 3t-16.5 19l3 3q21 -5 25 -11.5z" />
  </g>

</svg>
