<?xml version="1.0" standalone="no"?>
<!DOCTYPE svg PUBLIC "-//W3C//DTD SVG 1.1//EN" "http://www.w3.org/Graphics/SVG/1.1/DTD/svg11.dtd" >
<svg xmlns="http://www.w3.org/2000/svg" xmlns:xlink="http://www.w3.org/1999/xlink" version="1.1" viewBox="0 -36 256 256">
  <g transform="matrix(1 0 0 -1 0 220)">
   <path fill="currentColor"
d="M73.5 34.5q8.5 -0.5 8.5 12.5v59h-40q-1 -27 -6.5 -51t-23.5 -47l-4 1q13 26 17.5 55.5t4 94t-2.5 77.5l15 -8h38l7 10l15 -12l-7 -6v-174q0 -16 -5.5 -22.5t-17.5 -11.5q0 14 -27 22v4q20 -3 28.5 -3.5zM42 170h40v51h-40v-51zM42 113h40v50h-40v-50zM112 236l13 -9h89
l10 11l15 -18h-114v-191h94l13 12l15 -19h-121l-7 -7l-12 12l6 6q0 181 -1 203zM148 175q0 13 -1 30l13 -8h47l6 9l13 -12l-6 -5q0 -24 1 -40l-13 -5v10h-48v-8l-13 -3q1 19 1 32zM160 161h48v29h-48v-29zM178 58l-13 -5v12h-20v-9l-12 -6q1 20 1 41t-1 41l12 -8h19l7 9
l11 -11l-5 -5q0 -44 1 -59zM145 72h20v45h-20v-45zM192 95q0 21 -1 38l13 -8h17l7 10l12 -12l-6 -6v-38q0 -2 1 -24l-13 -4v15h-18v-12l-13 -5q1 25 1 46zM204 73h18v45h-18v-45z" />
  </g>

</svg>
