<?xml version="1.0" standalone="no"?>
<!DOCTYPE svg PUBLIC "-//W3C//DTD SVG 1.1//EN" "http://www.w3.org/Graphics/SVG/1.1/DTD/svg11.dtd" >
<svg xmlns="http://www.w3.org/2000/svg" xmlns:xlink="http://www.w3.org/1999/xlink" version="1.1" viewBox="0 -36 256 256">
  <g transform="matrix(1 0 0 -1 0 220)">
   <path fill="currentColor"
d="M130 234l16 -12l-8 -9q1 -144 -7 -165t-25 -28q-3 15 -33 22v5q26 -5 34 -3t11.5 12.5t5 48.5t0.5 110h-41q-1 -81 -13 -122t-58 -79l-2 4q38 39 48 83.5t10 113.5h-13q-10 -1 -19 -3l-9 10h96zM211 94l4 2q21 -37 26.5 -53t-3.5 -25t-10.5 0.5t-2.5 19.5
q-70 -11 -78 -20l-11 20q10 4 16 22t17.5 81.5t12.5 100.5l25 -9l-9 -8q-14 -82 -24 -123t-19 -63q18 2 69 6q-4 21 -13 49z" />
  </g>

</svg>
