<?xml version="1.0" standalone="no"?>
<!DOCTYPE svg PUBLIC "-//W3C//DTD SVG 1.1//EN" "http://www.w3.org/Graphics/SVG/1.1/DTD/svg11.dtd" >
<svg xmlns="http://www.w3.org/2000/svg" xmlns:xlink="http://www.w3.org/1999/xlink" version="1.1" viewBox="0 -36 256 256">
  <g transform="matrix(1 0 0 -1 0 220)">
   <path fill="currentColor"
d="M17 209l-1 4q19 4 40 12.5t31 18.5l13 -19q-8 0 -31 -7v-48h13l11 12l15 -19h-39v-23q21 -9 25.5 -17.5t0 -18t-9.5 4.5t-16 25q0 -92 1 -117l-15 -9q1 51 1 122q-18 -39 -46 -70l-2 3q33 53 46 100h-15q-10 0 -19 -2l-9 9h45v45q-10 -2 -39 -6zM162.5 160
q6.5 -5 1.5 -13.5t-9.5 2t-18.5 19.5l1 3q19 -6 25.5 -11zM242 164q-5 0 -13.5 -4.5t-30.5 -14.5l-2 3q24 18 33 30zM126 196h100v29h-100v-29zM175 108l21 -9l-7 -5v-20h33l11 9l15 -16h-59v-24q0 -16 1 -31l-15 -7q1 17 1 34v28h-23q-11 0 -20 -2l-10 9h53v13q0 9 -1 21z
M176 141q0 31 -1 48l22 -9l-8 -7q0 -28 1 -61l-14 -7v30q-36 -18 -40 -26l-10 14q0 -36 -10 -64t-35 -52l-3 3q17 22 25 45.5t10 50t1.5 69t-1.5 64.5l16 -7h93l8 9l15 -11l-7 -7q0 -22 1 -33l-13 -6v5h-100v-63q26 7 50 15zM233 127q10 -6 5 -16.5t-12.5 1.5t-25.5 24l1 3
q22 -6 32 -12z" />
  </g>

</svg>
