<?xml version="1.0" standalone="no"?>
<!DOCTYPE svg PUBLIC "-//W3C//DTD SVG 1.1//EN" "http://www.w3.org/Graphics/SVG/1.1/DTD/svg11.dtd" >
<svg xmlns="http://www.w3.org/2000/svg" xmlns:xlink="http://www.w3.org/1999/xlink" version="1.1" viewBox="0 -36 256 256">
  <g transform="matrix(1 0 0 -1 0 220)">
   <path fill="currentColor"
d="M105 161l-15 -9v12h-19v-45h14l11 11l15 -18h-40v-58l37 10l1 -4q-36 -13 -77 -32l-11 -9l-12 18l15 4q0 77 -1 99l22 -14l-7 -7v-73l20 5v113h-19v-6l-15 -8q1 15 1 44.5t-1 46.5l17 -9h46l11 10l13 -15l-7 -6q0 -39 1 -60zM39 171h51v54h-51v-54zM186 42q0 -14 1 -29
l-16 -6q1 28 1 45v57h-38v-13l-14 -6q1 24 1 75.5t-1 71.5l14 -8h87l11 10l12 -14l-7 -7v-85q0 -13 1 -31l-15 -8v15h-37v-67zM134 171h38v51h-38v-51zM186 171h37v51h-37v-51zM134 116h38v48h-38v-48zM186 116h37v48h-37v-48z" />
  </g>

</svg>
