<?xml version="1.0" standalone="no"?>
<!DOCTYPE svg PUBLIC "-//W3C//DTD SVG 1.1//EN" "http://www.w3.org/Graphics/SVG/1.1/DTD/svg11.dtd" >
<svg xmlns="http://www.w3.org/2000/svg" xmlns:xlink="http://www.w3.org/1999/xlink" version="1.1" viewBox="0 -205 1024 1024">
  <g transform="matrix(1 0 0 -1 0 819)">
   <path fill="currentColor"
d="M128 878l60 -42h140l32 44l62 -42q6 -4 6 -8q0 -6 -36 -36v-390l4 -84q0 -12 -18 -24q-15 -10 -36 -14v98h-164v-104q0 -13 -18 -26q-18 -12 -36 -12l4 126v514v0v0zM178 404h164v408h-164v-408v0v0zM436 644h238v330l86 -36q9 -3 10 -6q1 -6 -6 -12l-38 -14v-262h160
l42 54l66 -60q3 -3 4 -8q0 -12 -12 -12h-260v-424l4 -107q-1 -15 -22 -30q-22 -16 -38 -14l4 145v430h-154q-21 0 -68 -8l-16 34v0v0z" />
  </g>

</svg>
