<?xml version="1.0" standalone="no"?>
<!DOCTYPE svg PUBLIC "-//W3C//DTD SVG 1.1//EN" "http://www.w3.org/Graphics/SVG/1.1/DTD/svg11.dtd" >
<svg xmlns="http://www.w3.org/2000/svg" xmlns:xlink="http://www.w3.org/1999/xlink" version="1.1" viewBox="0 -144 1024 1024">
  <g transform="matrix(1 0 0 -1 0 880)">
   <path fill="currentColor"
d="M71 225l-2 12v3v4l-1 6v2l-1 8l-1 11l-2 7v2l46 3l93 10l47 5l22 3v70l42 -7l56 80l15 23h-255v22h265l3 2l3 6l2 -2l24 21l59 -49l4 12l3 15l3 15l3 14l3 14l2 13l3 24l1 2h-413l1 -4l1 -20v-18v-17l-1 -15l-2 -14l-3 -14l-6 -13l-14 10v1l-3 1l-1 1l-3 2l-30 21h-1v1
l3 3l6 6l5 9l5 10l5 14l10 34l9 41l2 24h10l2 -24l3 -18h6l-13 349l55 -25l5 3l34 24l18 15l13 14l2 3l-1 1l5 3l39 -51l2 -19l-24 10l-11 -5l-26 -7l-29 -5l-15 -3h-1l3 -75h23l25 32l32 -32v-22h-79l3 -94h19l25 32l32 -32v-22h-75l3 -94h282l3 94h-59v22h60l4 94h-64v22
h64l3 94h-73v15l-4 -1l-15 -31l-11 -20l16 -21l9 -14l1 -25l-17 -18h-24l-18 16l-3 11l-11 -11l-16 -16l-18 -15l-18 -12l-20 -11l-5 9l13 15l23 35l11 18l20 40h-1l-6 12l-14 22l-7 11l-10 9l5 8l12 -6l14 -6l13 -7l9 -6l9 28l5 20l4 13l59 -28l9 -13h60l32 27l59 -48
l-27 -16l-6 -3l-6 -306l32 26l59 -48l-27 -16l-15 -6l-5 -9l-14 -23l-17 -25l-20 -24l-9 -13l-8 4l1 3l-26 -16l-24 -10l-17 -16l-42 -36l-41 -29l17 -11l-17 -10v-29l166 22l53 6l2 -9l-102 -32l-99 -26l-20 -4v-133v-13l-3 -14l-4 -13l-7 -12l-8 -11l-11 -9l-12 -7l-13 -4
l-14 -2l-14 -1v32l-86 16v16h86l7 1l5 1l5 2l1 1l1 1l1 1l1 4l1 5v124l-108 -21l-70 -12l-9 -18l-13 15l-1 7v2zM874 801l3 3h1l28 23l59 -48l-26 -16l-17 -7l-68 -96l-51 -66l-8 5l72 176l1 4h-118l-4 -111l-11 -106l16 -81l14 -57l18 -52l21 -49l24 -45l27 -41l30 -38
l34 -34l50 -41l-58 -44l-40 37l-35 42l-30 45l-27 48l-21 51l-17 55l-13 58l-7 51l-23 -94l-27 -79l-33 -69l-40 -59l-45 -49l-51 -37l-56 -26l-4 10l48 33l42 41l37 49l32 57l27 66l22 76l17 85l11 95l7 105l1 108h-40l-17 -28l-21 -33l-22 -30l-25 -29l-27 -28l-8 6l36 67
l31 65l14 33l12 34l11 34l9 34l8 35l6 35l2 10l61 -23l14 -14l-19 -6l-5 -17l-11 -36l-14 -36l-16 -35l-8 -16h217zM64 280l8 -64l-18 63zM33 498l52 -37l-20 -13l-24 5l-13 21zM316 660l-2 5l-25 -22l-20 -12l-41 -20l-5 9l16 14l28 33l23 33l5 7l-20 32l-8 13l-10 10l6 8
l13 -8l14 -7l14 -8l8 -7l14 35l7 21l3 7l57 -31l11 -16l-21 -3l-14 -24l-14 -20l-4 -5l13 -16l11 -14l9 -16l1 -24l-16 -18l-25 -1l-18 16z" />
  </g>

</svg>
