<?xml version="1.0" standalone="no"?>
<!DOCTYPE svg PUBLIC "-//W3C//DTD SVG 1.1//EN" "http://www.w3.org/Graphics/SVG/1.1/DTD/svg11.dtd" >
<svg xmlns="http://www.w3.org/2000/svg" xmlns:xlink="http://www.w3.org/1999/xlink" version="1.1" viewBox="0 -205 1024 1024">
  <g transform="matrix(1 0 0 -1 0 819)">
   <path fill="currentColor"
d="M678 742q6 -2 6 -4q1 -4 -4 -10l-18 -6v-28l100 2l26 38l48 -40q12 -10 0 -16l-174 -8v-18q2 -20 14 -22q11 -3 40 -2h78q32 -1 50 2q15 0 22 16q6 15 10 42h16q0 -22 4 -38q3 -15 18 -24q-7 -20 -26 -28q-18 -6 -60 -6h-166q-30 5 -38 22q-6 15 -6 36v16l-120 -6
q-12 -3 -24 -8l-30 32l174 6v72l60 -20v0v0zM490 584l44 -34h276l18 26l48 -28q12 -3 12 -12q0 -7 -26 -22v-128l4 -38q0 -19 -18 -28t-30 -8v38h-282q-1 -12 -10 -18q-16 -10 -40 -10l4 96v166v0v0zM536 374h122v64h-122v-64v0v0zM702 374h116v64h-116v-64v0v0zM536 462
h122v64h-122v-64v0v0zM702 526v-64h116v64h-116v0v0zM624 986l68 -28q9 -2 10 -10q0 -1 -6 -4l-24 -12v-58h192l34 44l50 -54q2 -3 2 -6q1 -7 -4 -8h-274v-60h224l28 22l46 -40q12 -6 10 -12q0 -7 -12 -10q-24 -2 -44 -16q-18 -13 -54 -44l-14 8l40 68h-464v-284
q-9 -189 -60 -290q-50 -101 -112 -159l-12 8q60 86 96 187q35 100 38 254v352l62 -44h180v196v0v0zM468 310l46 -30h320l20 26l46 -34q11 -6 14 -14q0 -5 -30 -22v-145h22l32 38l44 -46q3 -2 4 -8q4 -7 -10 -8h-550q-21 1 -54 -8l-14 32h110v219v0v0zM512 91h82v165h-82
v-165v0v0zM636 91h86v165h-86v-165v0v0zM764 91h76v165h-76v-165v0v0zM34 900h270l36 48l52 -56q6 -3 6 -6q0 -12 -14 -12h-166q-19 -101 -46 -184h104l28 32l46 -38q12 -6 0 -18l-18 -12q-27 -178 -72 -284q-42 -104 -98 -178q-56 -73 -124 -125l-10 12q72 78 120 153
q44 75 80 174q32 97 56 260h-118q-9 -42 -30 -96q30 -21 54 -48q23 -26 28 -46q3 -20 -2 -34q-4 -13 -16 -16q-10 -4 -20 2q-9 6 -12 30q-2 20 -10 44q-9 24 -30 48q-37 -92 -88 -166l-16 8q41 83 80 212q39 126 64 270h-82q12 0 -36 -8l-16 34v0v0z" />
  </g>

</svg>
