<?xml version="1.0" standalone="no"?>
<!DOCTYPE svg PUBLIC "-//W3C//DTD SVG 1.1//EN" "http://www.w3.org/Graphics/SVG/1.1/DTD/svg11.dtd" >
<svg xmlns="http://www.w3.org/2000/svg" xmlns:xlink="http://www.w3.org/1999/xlink" version="1.1" viewBox="0 -205 1024 1024">
  <g transform="matrix(1 0 0 -1 0 819)">
   <path fill="currentColor"
d="M646 988l72 -28q13 -5 8 -16l-30 -12v-60h144l34 46l60 -58q2 -2 2 -4q1 -9 -4 -8h-236v-72h212l24 26q61 -52 60 -58q0 -7 -12 -10q-26 0 -52 -18l-34 -32l-12 10l32 58h-440v-170q-12 -248 -54 -364q-39 -116 -126 -199l-10 12q77 103 104 211q27 107 36 340v228
l54 -34h168v212v0v0zM650 744q65 -16 68 -22q7 -6 -4 -12l-18 -10v-30l114 6l26 34q48 -40 52 -46q0 -6 -2 -6q-4 0 -16 -2l-174 -10v-30q0 -33 12 -36q14 -3 26 -2h90h16q16 5 20 32l4 38h16q4 -33 8 -44q2 -10 20 -22q-7 -15 -22 -26q-13 -12 -40 -14h-28h-86
q-30 -1 -50 4q-18 6 -26 24q-6 16 -6 50v20l-100 -4l-42 -14l-20 36l162 6v80v0v0zM882 496l36 42q54 -49 58 -56q-3 -12 -14 -12h-222q-33 -18 -66 -44q60 -66 70 -98q78 48 150 120l58 -34q10 -11 -4 -16q-16 3 -28 -2q-11 -4 -34 -16q-21 -11 -62 -34q27 -72 52 -108
q21 -37 48 -62q24 -24 78 -36v-17q-37 1 -52 -4q-16 -5 -28 -20q-37 35 -58 73q-18 36 -30 70q-11 33 -28 96l-52 -28q24 -58 28 -94q3 -37 -2 -74q-3 -34 -26 -65q-24 -29 -78 -56q-12 33 -36 42q-25 9 -76 26l6 16q62 -13 94 -14q32 0 50 14q15 16 22 63q7 45 -4 94
q-73 -66 -142 -108q-70 -39 -166 -81l-6 16q84 48 150 89q64 42 152 124q-3 22 -20 50q-54 -43 -96 -70t-120 -62l-8 14q65 39 104 66q36 26 96 88l-18 28q-102 -64 -174 -88l-8 14q108 58 186 128h-100q-21 1 -50 -10l-22 36h392v0v0zM96 940l52 -42h148l26 32l44 -34
q12 -3 12 -12q-1 -7 -28 -22v-166l4 -52q0 -9 -14 -20q-15 -10 -36 -8v24h-46v-186h46l32 40l50 -52q2 -3 2 -6q1 -9 -4 -8h-126v-224l100 30l6 -20q-225 -74 -254 -95q-28 -18 -50 -40l-44 63l72 20v370l70 -34q3 -3 4 -6l-2 -6l-26 -14v-302l78 20v450h-68v-4
q0 -15 -18 -26q-16 -12 -34 -12l4 118v224v0v0zM144 666h160v206h-160v-206v0v0z" />
  </g>

</svg>
