<?xml version="1.0" standalone="no"?>
<!DOCTYPE svg PUBLIC "-//W3C//DTD SVG 1.1//EN" "http://www.w3.org/Graphics/SVG/1.1/DTD/svg11.dtd" >
<svg xmlns="http://www.w3.org/2000/svg" xmlns:xlink="http://www.w3.org/1999/xlink" version="1.1" viewBox="0 -36 256 256">
  <g transform="matrix(1 0 0 -1 0 220)">
   <path fill="currentColor"
d="M48 244l23 -9l-8 -8v-42h8l10 12l14 -19h-32v-46l28 13l2 -4l-30 -21v-81q2 -23 -20 -30q1 10 -23 18v5q13 -1 21 -1t8 12v68q-27 -16 -26 -18l-13 16q11 3 39 16v53h-20l-8 -3l-9 10h37q0 35 -1 59zM94 182l-3 4q8 12 15.5 29.5t11.5 33.5l18 -11l-7 -4l-7 -15h28l7 12
l14 -19h-40q10 -4 14 -8.5t2.5 -10.5t-6 -9.5t-7 8.5t-8.5 20h-7q-12 -18 -25 -30zM224 174l-8 -5v-57l-13 -8v9h-40q-4 -8 -10 -16h63l13 11l15 -18h-67q12 -12 29.5 -21t39.5 -11v-4q-16 -1 -19 -13q-12 5 -29 18.5t-27 30.5h-22q-28 -31 -74 -47l-2 4q36 18 60 43h-26
q-12 1 -19 -3l-9 10h59q6 7 9 16h-26v-4l-13 -5v82l14 -8h81l7 8zM191 209h-7q-7 -13 -24 -27l-2 2q10 16 16.5 32t8.5 31l20 -11l-7 -1l-9 -19h30l11 13l13 -20h-41q14 -4 16 -11t-3.5 -12t-8 3t-13.5 20zM121 158h82v13h-82v-13zM121 137h82v14h-82v-14zM121 120h82v10
h-82v-10zM128 45.5q15 17.5 23 35.5l19 -14l-10 -2q-15 -20 -35 -35l64 5q-9 9 -19 17l2 4q25 -12 37 -20.5t7 -20.5t-10 -1.5t-12 15.5q-39 -5 -82 -15l-9 18q10 -4 25 13.5z" />
  </g>

</svg>
