<?xml version="1.0" standalone="no"?>
<!DOCTYPE svg PUBLIC "-//W3C//DTD SVG 1.1//EN" "http://www.w3.org/Graphics/SVG/1.1/DTD/svg11.dtd" >
<svg xmlns="http://www.w3.org/2000/svg" xmlns:xlink="http://www.w3.org/1999/xlink" version="1.1" viewBox="0 -36 256 256">
  <g transform="matrix(1 0 0 -1 0 220)">
   <path fill="currentColor"
d="M128 174q0 46 -1 67l15 -8h67l11 11l16 -18h-49v-30h20l11 11l15 -18h-46v-30h18l11 10l15 -17h-44v-31l38 1l9 9l13 -14l-8 -6q-6 -67 -11 -78t-11 -16t-19 -10q-6 15 -30 23v4q31 -7 39 -4t12.5 33t5.5 52l-84 -2v-4l-14 -4q1 23 1 69zM131 90q-2 -27 -5.5 -36.5
t-10.5 -11t-9 3t6.5 12t15.5 32.5h3zM189 102q14 -11 22 -20t1.5 -19t-10 5t-15.5 32zM141 196h33v30h-33v-30zM141 159h33v30h-33v-30zM141 120l33 1v31h-33v-32zM166 95q13 -12 18.5 -20.5t-1.5 -17t-9 6t-10 29.5zM145 90q13 -18 15 -26t-5 -15t-7.5 8t-4.5 31z
M108.5 219q5.5 -7 -1.5 -15.5t-10 4.5t-12 24l2 3q16 -9 21.5 -16zM47 141q6 -10 -2 -19t-9.5 6t-11.5 33l3 2q14 -12 20 -22zM62 244l20 -9l-6 -9v-40h23l11 11l14 -18h-48v-57q20 32 23 45l14 -15q-9 -4 -37 -36v-12q25 -9 33.5 -17.5t3.5 -20.5t-10.5 2t-26.5 32v-65
q-2 -18 -19 -23q-4 16 -25 22v4q26 -4 28.5 -2.5t2.5 9.5v52q-34 -29 -41 -43l-13 14q16 8 54 36v75h-22q-10 -1 -19 -3l-9 10h50q0 43 -1 58z" />
  </g>

</svg>
