<?xml version="1.0" standalone="no"?>
<!DOCTYPE svg PUBLIC "-//W3C//DTD SVG 1.1//EN" "http://www.w3.org/Graphics/SVG/1.1/DTD/svg11.dtd" >
<svg xmlns="http://www.w3.org/2000/svg" xmlns:xlink="http://www.w3.org/1999/xlink" version="1.1" viewBox="0 -339 2048 2048">
  <g transform="matrix(1 0 0 -1 0 1709)">
   <path fill="currentColor"
d="M998 1740v51q0 11 -4 64q-2 26 -4 76l99 -19q55 -10 72 -24q13 -10 13 -22q0 -18 -37 -30l-45 -14v-247q0 -19 -16 -31t-37 -12q-15 0 -28 8t-13 32v112h-151q-96 0 -105 -1q-53 -5 -62 -6l-38 88q28 -8 52 -12q78 -13 153 -13h151zM1505 1740h226l78 79l116 -85
q14 -11 14 -25q0 -8 -5 -15q-7 -10 -19 -10h-410v-116q0 -15 -11 -27q-12 -15 -40 -15q-19 0 -31 8q-12 7 -12 30v223q0 11 -4 64q-2 26 -4 76l98 -19q56 -10 73 -24q13 -10 13 -22q0 -18 -38 -30l-44 -14v-78zM838 1293h429q-10 70 -28 117q-15 41 -36 74q-10 17 -32 45
l24 29q50 -36 69 -53q31 -25 47 -44q26 -29 39 -60q10 -25 10 -49q0 -28 -15 -45q-6 -7 -20 -14h322l98 102l121 -107q13 -11 15 -16t2 -10q0 -9 -6 -16q-9 -10 -21 -10h-531v-169h265l88 96l120 -96q20 -16 20 -35q0 -9 -9 -16q-6 -5 -15 -5h-469v-181h293l88 90l96 -82
q27 -24 27 -41q0 -11 -10 -19q-7 -6 -17 -6h-477v-184h362l88 96l120 -96q20 -16 20 -35q0 -9 -8 -16q-7 -5 -16 -5h-1029v-48q0 -8 -7 -15t-20 -11t-25 -4q-21 0 -37 10q-19 11 -17 34l4 49q6 102 6 104v520q-70 -97 -88 -120q-37 -44 -116 -121l-33 27q54 71 80 112
q31 51 75 132q32 60 58 124q32 78 50 132q9 28 24 79l143 -58q35 -14 35 -36q0 -10 -7 -18q-7 -9 -18 -10l-72 -7q-41 -80 -59 -114zM1229 1067v169h-367v-169h367zM1229 830v181h-367v-181h367zM862 588h367v184h-367v-184zM1576 451q77 -51 109 -76q67 -54 121 -116
t54 -119q0 -27 -15 -49q-7 -10 -19 -16q-12 -7 -26 -7q-19 0 -32 11q-14 13 -20 31q-6 15 -16 45q-18 57 -49 108q-29 47 -80 104q-24 27 -53 50zM1320 440q61 -83 87 -122q66 -104 66 -184q0 -36 -16 -59q-5 -7 -13 -12q-12 -8 -27 -8q-25 0 -38 18q-5 7 -7 15q-5 19 -6 49
q-4 75 -26 153q-12 44 -29 78q-7 16 -25 48zM1058 446q86 -186 86 -285q0 -42 -16 -63q-13 -18 -32 -25q-9 -3 -18 -3q-11 0 -23 7q-12 6 -19 20q-5 11 -5 23q0 17 4 42q6 35 6 80q0 63 -7 118q-3 25 -12 75zM791 424l43 -10q-12 -78 -24 -127q-35 -132 -103 -195
q-32 -28 -64 -28q-22 0 -39 12q-11 8 -16 21q-3 8 -3 16q0 15 12 31q9 12 45 36q68 46 104 111q17 32 28 70q8 27 17 63zM397 1403l83 -32q17 -6 22 -19q2 -5 2 -10q0 -8 -5 -16t-13 -11l-52 -21l1 -1004v-64l3 -57q0 -14 4 -45q1 -8 1 -16q0 -21 -6 -32q-4 -8 -12 -12
q-19 -9 -42 -9q-33 0 -41 17q-6 13 -6 29v66v1114q-26 -48 -39 -73q-45 -79 -108 -167q-25 -35 -45 -59q-11 -13 -32 -35l-30 34q72 109 118 194q72 137 133 294q38 99 66 194q38 131 51 195q7 36 16 91l145 -52q43 -15 43 -38q0 -10 -6 -17q-9 -11 -38 -15l-61 -7
q-72 -256 -152 -417z" />
  </g>

</svg>
