<?xml version="1.0" standalone="no"?>
<!DOCTYPE svg PUBLIC "-//W3C//DTD SVG 1.1//EN" "http://www.w3.org/Graphics/SVG/1.1/DTD/svg11.dtd" >
<svg xmlns="http://www.w3.org/2000/svg" xmlns:xlink="http://www.w3.org/1999/xlink" version="1.1" viewBox="0 -246 2048 2048">
  <g transform="matrix(1 0 0 -1 0 1802)">
   <path fill="currentColor"
d="M1165 537v-92h-115v1086q69 -31 133 -70h140q18 86 43 258h-425l-18 51h797l100 131q81 -74 139 -145l-20 -37h-412q-75 -147 -147 -258h297l78 98q125 -97 125 -127q0 -12 -17 -22l-51 -35v-922h-117v84h-530zM1165 588h530v260h-530v-260zM1165 899h530v242h-530v-242z
M1165 1192h530v218h-530v-218zM764 652q-62 186 -172 323l37 33q137 -118 239 -281q68 -110 68 -180q0 -88 -74 -88q-47 0 -59 53q-4 16 -11 43q-7 25 -10 35q-244 -61 -557 -113q-15 -73 -41 -73q-42 0 -88 188q25 1 74 5q41 2 61 3q61 164 103 318q36 140 69 309h-289
l-20 51h657l99 129q70 -67 125 -141l-23 -39h-395q-65 -202 -115 -326q-58 -144 -145 -297q272 22 467 48zM213 1635l-25 51h477l91 119q72 -64 126 -131l-22 -39h-647zM1875 121q-31 0 -55 33q-119 160 -331 260l22 41q203 -53 328 -129q106 -67 106 -127q0 -78 -70 -78z
M827 95l-28 41q261 116 423 325q152 -77 152 -115q0 -22 -49 -22q-8 0 -45 4q-175 -144 -453 -233z" />
  </g>

</svg>
