<?xml version="1.0" standalone="no"?>
<!DOCTYPE svg PUBLIC "-//W3C//DTD SVG 1.1//EN" "http://www.w3.org/Graphics/SVG/1.1/DTD/svg11.dtd" >
<svg xmlns="http://www.w3.org/2000/svg" xmlns:xlink="http://www.w3.org/1999/xlink" version="1.1" viewBox="0 -36 256 256">
  <g transform="matrix(1 0 0 -1 0 220)">
   <path fill="currentColor"
d="M21 49.5q3 17.5 3.5 34t0.5 80.5q-4 -6 -14 -16l-2 3q12 18 23.5 49t12.5 46l17 -11q-5 -5 -8 -11t-7 -16h23l7 6l10 -13q-6 -3 -10.5 -8t-13.5 -21h16l6 9l12 -12l-7 -6v-136q0 -13 -14 -18q-1 11 -21 17v4q16 -2 20 -2t4 3v56h-43q0 -51 -25 -80l-3 2q10 23 13 40.5z
M36 94h16v33h-16v-33zM36 134h16v31h-16v-31zM63 134h16v31h-16v-31zM63 94h16v33h-16v-33zM32 177l4 -5h22l11 29h-24q-5 -10 -13 -24zM134 81q5 3 3.5 25.5t-17.5 51.5l18 54h-25v-199l-12 -6q1 21 1 43v140q0 16 -1 38l12 -9h26l6 7l12 -12l-7 -6q-11 -22 -24 -50
q19 -26 22.5 -44.5t-0.5 -32t-17 -19.5q-3 8 -6.5 11t-10.5 6v4q15 -5 20 -2zM170 236q17 -19 21 -27.5t-2 -18t-8 5t-13 38.5zM248 64v-3q-10 -3 -12 -11q-20 20 -30 68q7 -44 4.5 -74t-20.5 -36q-1 9 -5 12.5t-14 5.5v5q14 -3 19 -2.5t7 12t1 38.5q-27 -34 -57 -47l-1 3
q35 25 57 67q-1 10 -3 17q-19 -26 -47 -42l-2 3q31 27 45 55q-3 10 -5 15q-13 -17 -36 -28l-1 3q22 18 39 47h-1q-22 0 -33 -2l-9 9h56q13 37 17 63l17 -11q-7 -7 -12 -18.5t-17 -33.5h14l12 10l14 -17h-44q-4 -6 -12 -17q9 -13 16 -32q15 16 26 33l11 -13q-13 -7 -32 -23
q17 -47 38 -56z" />
  </g>

</svg>
