<?xml version="1.0" standalone="no"?>
<!DOCTYPE svg PUBLIC "-//W3C//DTD SVG 1.1//EN" "http://www.w3.org/Graphics/SVG/1.1/DTD/svg11.dtd" >
<svg xmlns="http://www.w3.org/2000/svg" xmlns:xlink="http://www.w3.org/1999/xlink" version="1.1" viewBox="0 -205 1024 1024">
  <g transform="matrix(1 0 0 -1 0 819)">
   <path fill="currentColor"
d="M338 682l48 -36q18 -7 4 -22l-20 -16v-198l4 -68q0 -13 -18 -26q-17 -12 -34 -14v48h-132v-213l138 67q-27 45 -60 78l10 14q57 -37 84 -64q27 -24 36 -48q8 -21 2 -42q-6 -17 -24 -19q-17 0 -22 14q-6 10 -8 23q-4 9 -10 24q-105 -65 -126 -79q-19 -12 -58 -58l-54 58
q36 20 42 34v495q-52 -90 -100 -140l-12 10q74 130 124 248q48 116 78 236l72 -30q12 -7 4 -16q-27 -6 -36 -24q69 -31 102 -50q32 -18 44 -42t6 -42q-6 -19 -24 -20q-18 -2 -30 24q-12 23 -32 50q-22 24 -76 64q-18 -46 -42 -106q-25 -60 -58 -120l34 -26h118l26 32v0v0z
M190 622v-104h132v104h-132v0v0zM190 492v-116h132v116h-132v0v0zM222 792l10 10q54 -33 70 -56q16 -21 12 -42q-6 -21 -18 -26q-12 -4 -20 2q-6 3 -12 24q-3 21 -12 42t-30 46v0v0zM932 442l60 -54q2 -3 2 -8q3 -6 -6 -6h-258q6 -30 16 -66q9 -33 30 -74q50 70 80 122
l64 -26q8 -9 2 -14q-6 -3 -20 -6q-13 -3 -26 -18q-13 -16 -80 -94q22 -27 38 -44q14 -14 46 -37q30 -23 40 -20q8 2 14 34q6 31 18 113h20q-4 -80 -4 -109t4 -52q3 -24 12 -36q8 -12 8 -18q1 -3 -4 -10q-6 -4 -32 0q-25 7 -64 28q-37 24 -68 54q-31 28 -62 67
q-47 -50 -106 -87q-59 -36 -142 -70l-8 16q89 50 134 84q45 33 102 91q-18 32 -36 80q-16 46 -22 92h-148l-6 -72q74 -30 98 -54q21 -24 22 -42t-10 -30q-9 -9 -26 -6q-15 4 -18 26q-3 21 -20 42q-18 21 -50 46q-9 -84 -48 -140q-37 -53 -134 -109l-8 12q76 64 104 111
q28 45 38 102q9 54 12 114h-42q-29 0 -46 -6l-18 32h106v102l78 -28q9 -7 -2 -14l-28 -16v-44h136q-11 78 -16 172q-4 93 -4 214v190l74 -30q22 -9 8 -20l-34 -10v-142q0 -114 4 -204q3 -90 18 -170h168l40 42v0v0zM400 718l28 16q51 99 76 192l60 -28q10 -9 8 -12
q-3 -3 -12 -6q-9 -1 -18 -8q-10 -7 -28 -40q-19 -33 -64 -108h84q29 45 50 94l52 -30q9 -9 6 -12t-18 -6q-13 -4 -32 -32q-18 -27 -62 -90q-41 -60 -70 -104l124 4q-9 30 -36 70l12 10q46 -43 62 -64q15 -18 18 -42q4 -22 -4 -34q-9 -14 -24 -12q-13 0 -16 12q-3 9 -8 42
q-77 -12 -106 -20q-28 -7 -50 -20l-36 54l36 8q32 44 94 152q-42 -9 -60 -14q-19 -6 -40 -18l-26 46v0v0zM712 736l40 14q51 99 78 186l60 -28q10 -9 8 -12q-3 -3 -12 -6q-9 -1 -18 -8q-10 -7 -28 -38q-19 -29 -64 -106l84 2q30 45 48 90l54 -36q9 -9 6 -12t-18 -6
q-13 -4 -32 -28q-19 -21 -58 -72q-36 -50 -66 -94l124 4q-9 30 -36 70l12 10q46 -43 62 -64q15 -18 18 -42q4 -24 -4 -36q-9 -14 -24 -12q-13 0 -16 12q-3 10 -8 44q-77 -12 -106 -20q-28 -7 -50 -20l-36 54l36 8q32 44 86 130q-42 -6 -66 -14q-22 -7 -44 -20l-30 50v0v0z
M772 506l6 8q48 -18 66 -32q17 -16 20 -34q1 -18 -10 -26q-10 -7 -22 -4q-11 2 -16 14q-3 12 -8 28q-3 17 -36 46v0v0z" />
  </g>

</svg>
