<?xml version="1.0" standalone="no"?>
<!DOCTYPE svg PUBLIC "-//W3C//DTD SVG 1.1//EN" "http://www.w3.org/Graphics/SVG/1.1/DTD/svg11.dtd" >
<svg xmlns="http://www.w3.org/2000/svg" xmlns:xlink="http://www.w3.org/1999/xlink" version="1.1" viewBox="0 -205 1024 1024">
  <g transform="matrix(1 0 0 -1 0 819)">
   <path fill="currentColor"
d="M256 736q74 -24 76 -30q2 -5 -4 -10q-6 -3 -18 -12q-12 -10 -18 -34q-7 -24 -22 -86h112l26 34l46 -34q12 -10 12 -16q0 -7 -14 -10l-18 -12q-15 -91 -36 -164q-21 -72 -56 -132q60 -36 84 -60q24 -25 30 -41q3 -17 -2 -32q-6 -12 -20 -18q-15 -3 -30 20q-16 25 -34 47
q-18 23 -54 50q-42 -50 -102 -91q-57 -42 -138 -72l-6 14q84 45 132 84q46 36 86 87q-30 21 -126 76q21 78 60 244h-104q-25 0 -40 -8l-20 34h168q9 51 30 172v0v0zM306 246q33 60 54 144q20 84 26 148h-122q-47 -174 -70 -234q51 -25 112 -58v0v0zM476 562h208v172l76 -30
q5 -1 8 -10l-6 -6l-28 -16v-110h130l32 46l58 -54q3 -3 4 -8q0 -10 -12 -10h-212v-172h88l34 38l48 -44q12 -6 12 -14q0 -6 -30 -20v-176l6 -81q-4 -15 -22 -22q-19 -9 -34 -10v58h-258v-32q0 -12 -12 -24q-10 -9 -44 -16l6 121v258l52 -36h104v172h-128q-30 0 -54 -8
l-26 34v0v0zM578 119h258v219h-258v-219v0v0zM368 978l88 -36q5 -3 2 -8q0 -3 -38 -20v-72h200v132l84 -34q6 -2 6 -10q0 -5 -38 -22v-66h184l42 48l60 -60q3 -3 4 -8q-1 -7 -16 -8h-274v-26l4 -34q-3 -12 -18 -24q-15 -10 -42 -14l4 68v30h-200v-26l4 -42q-1 -11 -16 -22
q-16 -8 -44 -10l4 64v36h-206q-22 0 -70 -8l-18 36h294v136v0v0z" />
  </g>

</svg>
