<?xml version="1.0" standalone="no"?>
<!DOCTYPE svg PUBLIC "-//W3C//DTD SVG 1.1//EN" "http://www.w3.org/Graphics/SVG/1.1/DTD/svg11.dtd" >
<svg xmlns="http://www.w3.org/2000/svg" xmlns:xlink="http://www.w3.org/1999/xlink" version="1.1" viewBox="0 -36 256 256">
  <g transform="matrix(1 0 0 -1 0 220)">
   <path fill="currentColor"
d="M109 213h-73q0 -12 -6.5 -23.5t-11.5 -4.5t1.5 15t12.5 32h4v-12h72l9 9l13 -17q-12 -1 -30 -25l-3 2zM39 144q0 18 -1 29l14 -10h28l8 10l14 -14l-8 -7v-90q19 25 29 38l3 -3q-22 -37 -38 -68l-11 13q4 12 4 24v90h-29v-56q-3 -49 -42 -84l-2 3q31 38 31 89v36zM170 224
h-21q-10 0 -19 -2l-9 9h97l14 13l15 -20h-72l13 -6q-8 -5 -17 -28h46l8 11l15 -14l-8 -7v-79q0 -20 1 -31l-15 -7v10h-68v-3l-14 -8q1 24 1 62.5t-1 74.5l14 -9h16q4 27 4 34zM150 154h68v29h-68v-29zM150 117h68v30h-68v-30zM150 80h68v30h-68v-30zM156.5 38.5
q-13.5 -13.5 -41.5 -30.5l-2 3q21 17 32.5 32.5t14.5 24.5l16 -16q-6 0 -19.5 -13.5zM199 64q32 -23 38 -31t0 -18.5t-11.5 4.5t-29.5 43z" />
  </g>

</svg>
