<?xml version="1.0" standalone="no"?>
<!DOCTYPE svg PUBLIC "-//W3C//DTD SVG 1.1//EN" "http://www.w3.org/Graphics/SVG/1.1/DTD/svg11.dtd" >
<svg xmlns="http://www.w3.org/2000/svg" xmlns:xlink="http://www.w3.org/1999/xlink" version="1.1" viewBox="0 -144 1024 1024">
  <g transform="matrix(1 0 0 -1 0 880)">
   <path fill="currentColor"
d="M329 128l55 -33l-7 -11l-9 -11l-9 -9l-10 -8l-11 -7l-11 -6l-12 -5l-13 -3l-13 -1l-14 -1v32l-86 16v16h86l8 1l6 1l7 1l5 2l6 3l4 3l5 4l4 4l4 5zM915 77l-52 40l-24 22l-44 48l-20 26l-36 57l-7 16v-218l-65 -32v216l-17 -25l-25 -29l-25 -27l-27 -26l-29 -22l-30 -20
l-33 -17l-34 -15l-4 9l53 46l25 24l45 51l20 27l19 29l33 63l4 9h-182v22h207v111l65 -11l16 -11l-16 -10v-79h89l53 54l65 -54v-22h-207v-3l55 -61l44 -43l47 -38l24 -16l73 -44zM384 95l-12 7l-1 1l-1 1l-8 4l-6 4l-7 4l-12 7l-2 1l-6 4l9 18l8 22l8 24l6 28l6 32l4 34
l3 38l1 41v39h-1v43h-239l-64 -33v527l64 -32h193l54 54l64 -54v-22h-149v-129h26l54 54l64 -54v-21h-144v-124h26l54 54l64 -54v-21h-144v-124h77l32 27l59 -48l-26 -16v-21v-46l-1 -43l-3 -41l-4 -37l-6 -35l-8 -32l-8 -30l-11 -27zM35 158l45 -45l-23 -9l-22 9l-10 23z
M35 158l45 -45l13 17l9 19l7 22l5 23l2 25l1 27l-1 30l-2 31l-5 34l-7 36h-10l-2 -37l-3 -33l-4 -30l-5 -27l-5 -24l-7 -20l-7 -18l-8 -13l-8 -10zM143 188l64 -10l-13 -21l-24 -6l-21 14zM153 363l-9 -4l5 -21l2 -20l2 -19l1 -19v-18l-1 -17l-1 -15l-2 -15l-3 -14l-4 -13
l64 -10v17l-1 19l-3 17l-3 19l-5 19l-6 18l-15 38l-11 18zM227 257l-1 13l-2 14l-2 15l-3 14l-4 15l-10 32l-8 15l7 6l25 -26l11 -13l20 -29l8 -15l7 -15l6 -16l5 -17l3 -16l-8 -23l-22 -11l-23 8l-11 22zM293 305l-1 11l-3 11l-3 11l-5 12l-11 23l-15 24l-10 10l5 8l14 -8
l14 -7l12 -8l12 -9l12 -10l10 -11l9 -12l9 -13l8 -14l7 -14l-5 -24l-19 -15l-24 4l-15 19zM472 708l65 -32h89l27 27l54 -48l-27 -17v-141l-54 -27v27h-89v-38l-65 -32v281zM894 703l59 -48l-27 -22v-158l-64 -32v54h-90l-54 -27v233l54 -27h90zM231 592h-97v-124h97v124z
M862 655h-90v-137h90v137zM626 655h-89v-137h89v137zM231 737h-97v-124h97v124zM558 977l64 -32h152l32 27l59 -49l-27 -21v-155l-64 -33v43h-152v-16l-64 -32v268zM231 887h-97v-129h97v129zM774 923h-152v-144h152v144z" />
  </g>

</svg>
