<?xml version="1.0" standalone="no"?>
<!DOCTYPE svg PUBLIC "-//W3C//DTD SVG 1.1//EN" "http://www.w3.org/Graphics/SVG/1.1/DTD/svg11.dtd" >
<svg xmlns="http://www.w3.org/2000/svg" xmlns:xlink="http://www.w3.org/1999/xlink" version="1.1" viewBox="0 -36 256 256">
  <g transform="matrix(1 0 0 -1 0 220)">
   <path fill="currentColor"
d="M8 72q10 1 72 18l2 -5q-61 -23 -64 -30l-10 17v0zM102 109q-9 -67 -13 -75.5t-9.5 -13.5t-15.5 -10q-6 15 -28 22l1 4q21 -4 29.5 -4t12 11.5t9.5 69.5h-52l-7 -8l-15 12l9 7l8 77l19 -12l-7 -6l-7 -63h31l10 94h-37q-13 0 -21 -2l-8 9h65l7 11l16 -13l-9 -9l-10 -90h8
l8 9l13 -12l-6 -8h-1zM185 227.5q4 -8.5 -2.5 -16t-9 5t-14.5 28.5l2 2q20 -11 24 -19.5zM223 199h-92q2 -15 -2 -22.5t-13 -7t-2 10t11 35.5h4l1 -9h92l8 9l16 -15q-10 0 -29 -28l-3 2zM143 151h18l8 11l13 -14l-7 -5q-6 -45 -24 -79t-58 -58l-2 3q61 50 70 135h-20
l-12 -26q15 -9 19 -14t-0.5 -14.5t-7.5 0t-13 24.5q-11 -19 -24 -33l-3 3q15 22 24.5 52.5t11.5 46.5l19 -9l-5 -4q-4 -9 -7 -19zM185 179l22 -11l-8 -9v-57q23 26 32 46l16 -17q-6 -3 -48 -37v-54q0 -11 7 -11h16q4 0 6.5 9.5t2.5 31.5h5q0 -16 2.5 -27t7.5 -12
q-2 -15 -25 -15h-18q-16 0 -17 20v106q0 19 -1 37z" />
  </g>

</svg>
