<?xml version="1.0" standalone="no"?>
<!DOCTYPE svg PUBLIC "-//W3C//DTD SVG 1.1//EN" "http://www.w3.org/Graphics/SVG/1.1/DTD/svg11.dtd" >
<svg xmlns="http://www.w3.org/2000/svg" xmlns:xlink="http://www.w3.org/1999/xlink" version="1.1" viewBox="0 -36 256 256">
  <g transform="matrix(1 0 0 -1 0 220)">
   <path fill="currentColor"
d="M106 210l-7 -7l-2 -24h3l10 11l12 -18h-84q-10 0 -19 -2l-9 9h30l4 26h-3q-9 0 -15 -2l-8 9h27l4 31l17 -11l-6 -5l-3 -15h29l8 9zM87 205h-31l-4 -26h33zM74 16l-14 -7q1 37 1 47h-30l-5 -5l-11 11q5 3 7 10l4 15l15 -10l-6 -3l-4 -11h30v26h-20q-10 0 -19 -2l-9 9h48
v22h-22v-1l-13 -6q1 12 1 25t-1 27l15 -8h47l8 9l13 -13l-7 -4q0 -22 1 -28l-13 -6v5h-17v-22h21l10 11l14 -18h-45v-26h25l9 10l13 -17h-47q0 -21 1 -40zM39 148v-23h51v23h-51zM143 133h63v23h-63v-23zM143 163h62l6 8l13 -11l-6 -5q0 -21 1 -29l-13 -6v6h-63v-2l-13 -5
q1 17 1 26.5t-1 24.5zM135 77h33v28h-33v-28zM180 77h34v28h-34v-28zM122 119l14 -7h79l5 7l11 -10l-5 -5q0 -28 1 -37l-13 -4v7h-79v-31q0 -10 12 -10h74q6 0 7.5 9t2.5 26h4q1 -15 2.5 -23t7.5 -10q-6 -13 -20 -13h-86q-16 0 -16 18v53q0 13 -1 30zM153 229q-8 -7 -24 -27
q19 -12 20 -19t-3.5 -11.5t-7.5 5t-14 25.5q12 22 15 37zM163 204q20 -13 19.5 -21t-5 -11t-6.5 6.5t-13 25.5q13 22 15 35l15 -11q-9 -6 -25 -24zM224 228q-8 -4 -24 -24q19 -12 20.5 -18.5t-3 -11.5t-8 4.5t-15.5 25.5q11 21 15 35z" />
  </g>

</svg>
