<?xml version="1.0" standalone="no"?>
<!DOCTYPE svg PUBLIC "-//W3C//DTD SVG 1.1//EN" "http://www.w3.org/Graphics/SVG/1.1/DTD/svg11.dtd" >
<svg xmlns="http://www.w3.org/2000/svg" xmlns:xlink="http://www.w3.org/1999/xlink" version="1.1" viewBox="0 -36 256 256">
  <g transform="matrix(1 0 0 -1 0 220)">
   <path fill="currentColor"
d="M159 246l24 -11l-7 -7v-72h29l14 14l16 -21h-59v-115h38l15 14l17 -22h-126q-10 0 -19 -2l-9 10h69v115h-19q-10 0 -19 -3l-9 10h47v56q0 15 -2 34zM115 75l1 -5q-90 -38 -90 -46l-13 19q28 7 42 13v75h-7q-11 0 -21 -2l-10 9h38v70h-13q-11 0 -21 -3l-10 10h74l14 14
l19 -21h-48v-70h13l13 13l16 -20h-42v-71z" />
  </g>

</svg>
