<?xml version="1.0" standalone="no"?>
<!DOCTYPE svg PUBLIC "-//W3C//DTD SVG 1.1//EN" "http://www.w3.org/Graphics/SVG/1.1/DTD/svg11.dtd" >
<svg xmlns="http://www.w3.org/2000/svg" xmlns:xlink="http://www.w3.org/1999/xlink" version="1.1" viewBox="0 -36 256 256">
  <g transform="matrix(1 0 0 -1 0 220)">
   <path fill="currentColor"
d="M200 159l12 13l14 -20h-85q-12 0 -22 -3l-8 10h89zM212 116l15 12l16 -19h-53v-65q0 -16 10 -15h20q6 0 7.5 8.5t1.5 35.5h5q1 -27 3.5 -34t8.5 -11q-7 -12 -22 -12h-28q-21 0 -20 23v70h-24q-5 -52 -22.5 -70.5t-48.5 -28.5l-1 3q28 14 41.5 35t15.5 61h-17
q-10 1 -18 -3l-8 10h118zM169 202h-28q0 -17 1 -29l-15 -6q1 17 1 34h-5q-13 0 -20 -2l-7 9h32q0 23 -1 36l19 -9l-5 -7v-19h7l9 7zM240 202h-35q0 -16 1 -28l-15 -6q1 17 1 34h-5q-10 0 -15 -2l-5 9h25q0 23 -1 35l20 -8l-6 -7v-20h12l10 10zM37 95q13 -4 29 -10
q12 28 21 91h-31q-5 -22 -19 -81zM66 225q-2 -12 -9 -42h29l8 10l13 -13l-7 -6q-10 -63 -22 -93q18 -11 21.5 -16.5t1.5 -13.5t-8.5 -0.5t-20.5 18.5q-22 -36 -60 -56l-2 3q34 27 51 60q-21 13 -26 14q-3 -6 -5.5 -7t-5.5 0.5t0 11.5q9 34 19 81h-7q-8 1 -17 -3l-7 10h32
q8 41 10 60l20 -12z" />
  </g>

</svg>
