<?xml version="1.0" standalone="no"?>
<!DOCTYPE svg PUBLIC "-//W3C//DTD SVG 1.1//EN" "http://www.w3.org/Graphics/SVG/1.1/DTD/svg11.dtd" >
<svg xmlns="http://www.w3.org/2000/svg" xmlns:xlink="http://www.w3.org/1999/xlink" version="1.1" viewBox="0 -36 256 256">
  <g transform="matrix(1 0 0 -1 0 220)">
   <path fill="currentColor"
d="M28 208v-121h25v121h-25zM29 215h24l7 7l12 -13l-8 -6v-107q0 -17 1 -34l-12 -8v26h-25v-21l-12 -7q1 15 1 31v96q0 24 -1 44zM150 63q0 -19 1 -33l-12 -7v19h-50v-14l-12 -5q1 14 1 67.5t-1 67.5l12 -8h10v21h-1q-10 0 -19 -2l-9 9h72l10 9l13 -16h-37v-21h10l6 8
l12 -11l-6 -4v-80zM109 150h9v21h-9v-21zM118 116v27h-9q0 -11 -4.5 -26t-15.5 -28v-8h50v16h-9q-12 0 -12 19zM89 96q4 8 7 21t3 26h-10v-47zM128 120q-1 -10 6 -12h4v35h-10v-23zM89 49h50v25h-50v-25zM179 129h21v22h-21v-22zM179 101h21v21h-21v-21zM179 70h21v24h-21
v-24zM168 79v57q-7 -11 -17 -18l-3 1q11 13 21.5 37.5t12.5 37.5l15 -11q-5 -2 -7 -6.5t-9 -18.5h41l9 9l13 -16h-33v-22h11l7 8l11 -15h-29v-21h11l8 7l10 -14h-29v-24h13l9 9l13 -16h-67v-6l-12 -4q1 14 1 26zM201 196q12 -13 14.5 -19t-3 -11.5t-6.5 3t-7 25.5zM172 48
q1 -17 -0.5 -25t-7 -9t-8.5 1.5t3 9t9 23.5h4zM199.5 31q2.5 -7 -3.5 -13t-6.5 4.5t-7.5 26.5l2 1q13 -12 15.5 -19zM222 31.5q1 -6.5 -4 -12t-5.5 4.5t-8.5 26l2 3q15 -15 16 -21.5zM226 57q15 -12 17.5 -19t-2 -13t-6.5 3.5t-11 26.5zM177 192v20h-44v-19l-12 -5v24h-21
q-10 0 -19 -2l-9 9h49v11q0 8 -1 16l18 -7l-5 -7v-13h44v15q0 4 -1 12l20 -8l-7 -6v-13h26l11 11l15 -18h-52v-14z" />
  </g>

</svg>
