<?xml version="1.0" standalone="no"?>
<!DOCTYPE svg PUBLIC "-//W3C//DTD SVG 1.1//EN" "http://www.w3.org/Graphics/SVG/1.1/DTD/svg11.dtd" >
<svg xmlns="http://www.w3.org/2000/svg" xmlns:xlink="http://www.w3.org/1999/xlink" version="1.1" viewBox="0 -36 256 256">
  <g transform="matrix(1 0 0 -1 0 220)">
   <path fill="currentColor"
d="M161 227h-28q-10 -2 -19 -4l-9 11h108l12 10l17 -17h-65q-6 -6 -18 -22h54l9 8l15 -14l-8 -4v-44q0 -11 -4.5 -14.5t-12.5 -7.5q0 11 -18 16v3q12 -1 17 -1t5 8v43h-23v-50l-13 -8v58h-20v-54l-12 -7v61h-21v-64l-14 -6q1 21 1 46t-1 37l16 -6h25q4 10 7 22zM158 119h-32
q-10 -1 -19 -3l-9 10h120l13 11l17 -18h-74q-7 -7 -18 -23h61l8 8l14 -15l-8 -4v-52q0 -9 -2 -14.5t-16 -11.5q1 11 -18 16v4q14 -2 18.5 -1.5t4.5 9.5v54h-25v-56l-13 -7v63h-20v-62l-12 -7v69h-24v-73l-14 -9q1 29 1 54.5t-1 41.5l16 -7h25q5 15 7 23zM41 247
q17 -12 25.5 -22.5t-2.5 -22.5h19l12 11l16 -18h-74q-10 -1 -19 -3l-9 10h48q-5 20 -19 43zM36 45h40v43h-40v-43zM69 166l12 9l16 -16h-48q-11 0 -20 -3l-8 10h48zM68 129l12 9l16 -16h-45q-11 0 -20 -3l-8 10h45zM89 50q0 -11 1 -22l-14 -6v16h-40v-14l-14 -7q1 21 1 43
t-1 44l16 -9h37l8 9l13 -13l-7 -6v-35z" />
  </g>

</svg>
