<?xml version="1.0" standalone="no"?>
<!DOCTYPE svg PUBLIC "-//W3C//DTD SVG 1.1//EN" "http://www.w3.org/Graphics/SVG/1.1/DTD/svg11.dtd" >
<svg xmlns="http://www.w3.org/2000/svg" xmlns:xlink="http://www.w3.org/1999/xlink" version="1.1" viewBox="0 -205 1024 1024">
  <g transform="matrix(1 0 0 -1 0 819)">
   <path fill="currentColor"
d="M36 886h238v98l68 -26q8 -3 8 -8q0 -4 -8 -10l-22 -10v-44h126l28 34l46 -40q3 -1 6 -8q0 -10 -12 -10h-194v-46h108l30 30q46 -35 50 -40q4 -13 -12 -14h-344q-21 0 -56 -6l-18 30h196v46h-156q-42 0 -60 -8l-22 32v0v0zM118 780l54 -30h238l24 30l42 -30q8 -4 8 -10
q1 -4 -16 -16v-36l4 -34q0 -10 -14 -16q-13 -7 -38 -10v26h-254v-8q1 -9 -16 -18q-15 -6 -36 -6l4 62v96v0v0zM166 678h254v46h-254v-46v0v0zM28 536l296 32q12 41 24 76l50 -16q9 -6 0 -12q-20 -2 -52 -46l186 24l4 -16q-291 -45 -366 -60q-74 -14 -112 -34l-30 52v0v0z
M520 516q53 18 98 40q42 21 88 52q-56 46 -94 128h-20l-20 -6l-16 30h154v78h-108q-19 0 -40 -12l-22 38h170v116q77 -24 80 -30q0 -4 -2 -8q-3 -1 -30 -16v-64h108l30 40q54 -48 54 -54q1 -6 -4 -8q-3 -1 -20 -2h-170v-78h76l20 24q54 -36 54 -42q3 -4 -2 -8q-6 -3 -20 -8
q-13 -4 -40 -40q-27 -33 -78 -78q23 -12 56 -26q33 -13 72 -22t100 -8v-20q-42 1 -54 -10q-10 -9 -20 -24q-62 22 -100 38q-35 17 -88 50q-43 -28 -94 -50q-50 -19 -112 -34l-6 14v0v0zM636 736q42 -75 96 -108q44 36 94 108h-190v0v0zM182 504l74 -24q10 -8 -4 -16l-24 -12
v-64h180v116l66 -18q15 -9 -2 -20l-18 -8v-36l4 -66q-6 -16 -18 -22t-32 -8v36h-180v-64h598v58h-172l-26 -26l-54 36l26 24v106l74 -18q12 -10 0 -16l-28 -12v-68h180v108l74 -28q10 -6 0 -14l-28 -14v-301l4 -78q-5 -18 -22 -30q-18 -9 -32 -10l4 114v55h-186v-87l4 -44
q-6 -15 -18 -24q-12 -8 -36 -14l4 80v147l54 -32h178v60h-598q0 -27 -6 -60h170l28 32l48 -34q15 -9 4 -18l-26 -14v-71l4 -38q1 -14 -16 -28q-15 -12 -38 -18l4 78v85h-182q-15 -60 -56 -103q-42 -41 -120 -80l-8 14q66 46 108 106q42 58 40 179v204v0v0zM180 636l6 8
q36 -12 52 -24q14 -12 14 -26q0 -13 -8 -20q-6 -8 -18 -6q-13 2 -16 14q-1 11 -4 20q-3 6 -26 34v0v0z" />
  </g>

</svg>
