<?xml version="1.0" standalone="no"?>
<!DOCTYPE svg PUBLIC "-//W3C//DTD SVG 1.1//EN" "http://www.w3.org/Graphics/SVG/1.1/DTD/svg11.dtd" >
<svg xmlns="http://www.w3.org/2000/svg" xmlns:xlink="http://www.w3.org/1999/xlink" version="1.1" viewBox="0 -120 1000 1000">
  <g transform="matrix(1 0 0 -1 0 880)">
   <path fill="currentColor"
d="M171 805q37 -75 37 -116q0 -23 -15 -32q-8 -5 -17 -5q-16 0 -16 22q0 1 2 30q1 15 1 27q0 27 -7 70zM277 583v-105h73l39 46l57 -49v-24h-169v-109h71l44 52l75 -60v-19h-418l-11 27h180v109h-147l-12 27h159v105h-79v-55l-57 -10v408l59 -35h213l18 31l53 -39
q16 -11 16 -18q0 -9 -16 -13l-13 -4v-298l-56 -11v44h-79zM277 610h79v142l-54 -106l-15 3l28 161l41 -17v71h-79v-254zM139 864v-254h79v254h-79zM119 250q10 -60 10 -103q0 -46 -22 -70q-17 -19 -37 -19q-12 0 -20 8q-9 9 -9 20q0 10 26 48q25 40 36 116h16zM173 259
q68 -84 68 -138q0 -20 -14 -32q-11 -10 -25 -10q-25 0 -25 38q0 65 -17 136zM422 636l51 53q72 89 97 143l56 -32q10 -6 10 -14t-13 -10l-18 -2l-30 -34v-250h75v325l68 -8q12 -2 12 -11q0 -8 -7 -11l-14 -6v-289h49l20 37l64 -43q9 -7 9 -11q0 -6 -9 -9l-23 -8l3 -90
q36 41 73 98l51 -33q9 -6 9 -12q0 -8 -9 -8h-21l-98 -66q110 -20 110 -71q0 -23 -21 -23q-12 0 -27 17q-36 40 -46 46q-7 5 -18 11q15 -133 67 -179l50 99l15 -6l-18 -66q-4 -16 -4 -30q0 -24 25 -56q-20 -19 -39 -19q-60 0 -108 95q-31 61 -41 137q-7 48 -9 164h-54
l-3 -406l-59 -10l3 416h-75v-62q0 -123 -34 -204q-32 -74 -93 -135l-16 12q45 64 63 120q24 82 24 201v68h-55l-11 26h66v194q-45 -35 -87 -60zM519 866l-11 26h247l21 32l56 -39q8 -6 8 -14q0 -10 -8 -11l-18 -3l2 -75q16 18 35 48q21 35 32 62l59 -32q7 -4 7 -11t-7 -8
l-19 -3l-91 -76q40 -11 62 -26q38 -26 38 -54q0 -24 -25 -24q-12 0 -19 8l-49 59q-3 4 -23 17q6 -77 27 -123q17 -33 49 -64l50 94l15 -5l-15 -59q-5 -20 -5 -38q0 -20 20 -37q-17 -21 -41 -21q-48 0 -97 65q-56 74 -56 226v86h-244zM252 268q89 -75 89 -135q0 -14 -10 -24
q-10 -9 -23 -9q-14 0 -21 10q-4 6 -13 49q-8 34 -36 101zM330 283q58 -29 84 -54q31 -31 31 -66q0 -19 -12 -29q-9 -8 -20 -8q-17 0 -25 23q-18 60 -66 124z" />
  </g>

</svg>
