<?xml version="1.0" standalone="no"?>
<!DOCTYPE svg PUBLIC "-//W3C//DTD SVG 1.1//EN" "http://www.w3.org/Graphics/SVG/1.1/DTD/svg11.dtd" >
<svg xmlns="http://www.w3.org/2000/svg" xmlns:xlink="http://www.w3.org/1999/xlink" version="1.1" viewBox="0 -36 256 256">
  <g transform="matrix(1 0 0 -1 0 220)">
   <path fill="currentColor"
d="M42 244l16 -6h57l11 7l14 -14h-84v-8h53l9 6l14 -13h-76v-7h52l9 6l14 -13h-75v-8h68l12 8l14 -15h-80l10 -5q-7 -1 -16 -5.5t-20 -9.5l71 2q-9 6 -20 12l2 3q28 -7 33.5 -12t1.5 -11t-7.5 -2t-6.5 7q-23 -3 -50 -6t-35 -6l-8 14q9 0 20 7.5t15 11.5h-22q-11 0 -20 -2
l-10 9h35q0 34 -1 50zM231 235q-7 0 -31.5 -8.5t-58.5 -13.5v3q25 6 48.5 16t28.5 14zM240 208q-6 0 -34 -8.5t-56 -12.5l-1 3q28 8 49.5 16.5t29.5 14.5zM248 183q-10 -1 -37 -9t-70 -12v3q38 8 63.5 16.5t29.5 13.5zM22 62q24 -4 29 2t30 57l3 -2q-25 -65 -26 -71.5
t0.5 -22t-9 -13t-7.5 13t3.5 18.5t-24.5 14zM22 123q20 -10 23.5 -17t-2.5 -14t-9.5 5.5t-13.5 23.5zM48 152q20 -11 24 -18t-1.5 -15t-10 5.5t-14.5 24.5zM170.5 153q5.5 -5 -4.5 -9h50l6 6l14 -11q-12 -2 -26 -15l-3 2l7 11h-109q0 -9 -6 -12t-12.5 -1t2 7.5t12.5 18.5h4
v-6h54q-1 8 -15 17l3 2q18 -5 23.5 -10zM70 77q26 6 36 9v6l13 -3q16 4 32 9v20h-13q-11 0 -21 -2l-10 9h77l9 7l13 -14h-42v-17q32 10 43 17l12 -12l-11 -1q-13 -3 -27 -7t-39 -10h57l8 7l13 -9l-6 -6q0 -34 2 -43l-16 -5v4h-80v-1l-15 -4q1 10 1 49q-18 -4 -35 -7z
M125 102q-21 -10 -39 -15l-1 2q26 12 35 24l12 -10zM120 81v-7h80v7h-80zM120 67v-9h80v9h-80zM120 51v-8h80v8h-80zM79 7v3q41 14 57 27l14 -13l-9 -1q-30 -10 -62 -16zM215.5 24.5q8.5 -4.5 6.5 -13t-12.5 0.5t-37.5 20l1 3q34 -6 42.5 -10.5z" />
  </g>

</svg>
