<?xml version="1.0" standalone="no"?>
<!DOCTYPE svg PUBLIC "-//W3C//DTD SVG 1.1//EN" "http://www.w3.org/Graphics/SVG/1.1/DTD/svg11.dtd" >
<svg xmlns="http://www.w3.org/2000/svg" xmlns:xlink="http://www.w3.org/1999/xlink" version="1.1" viewBox="0 -144 1024 1024">
  <g transform="matrix(1 0 0 -1 0 880)">
   <path fill="currentColor"
d="M413 748l64 -54v-22h-205v-607l-64 -32v639h-180v22h331zM599 368l50 -41l7 -18l-20 2l-34 -41l-27 -29l-58 -58l-66 -60l-36 -30l-38 -29l-41 -29l-6 7l126 140l78 94l43 60zM908 106l-8 22l-11 22l-13 23l-33 50l-67 84l-26 30l6 8l34 -23l30 -24l53 -48l23 -24l21 -24
l34 -47l12 -25l12 -23l-2 -25l-19 -16l-24 2l-17 18zM79 586l64 -10l16 -11l-16 -10v-151l-3 -45l-4 -41l-6 -39l-8 -35l-10 -32l-12 -28l-14 -25l-16 -22l-19 -16l-20 -12l-6 9l12 17l9 19l8 21l8 23l6 27l5 29l3 32l3 36v40v42v182zM347 586l64 -10l16 -11l-16 -10v-340
l-64 -32v403zM496 936l64 -33h290l32 27l59 -48l-26 -22v-430l-65 -32v65h-290v-65l-64 -32v570zM850 882h-290v-398h290v398zM356 941l65 -54v-21h-341v21h222z" />
  </g>

</svg>
