<?xml version="1.0" standalone="no"?>
<!DOCTYPE svg PUBLIC "-//W3C//DTD SVG 1.1//EN" "http://www.w3.org/Graphics/SVG/1.1/DTD/svg11.dtd" >
<svg xmlns="http://www.w3.org/2000/svg" xmlns:xlink="http://www.w3.org/1999/xlink" version="1.1" viewBox="0 -36 256 256">
  <g transform="matrix(1 0 0 -1 0 220)">
   <path fill="currentColor"
d="M42 75l38 9v34h-38v-43zM93 81v-60l-14 -9q1 28 1 65q-54 -17 -60 -28l-10 17q11 3 19 6v146v-1q-3 0 -12 -3l-8 10h83l10 12l15 -19h-24v-136zM42 175h38v42h-38v-42zM42 168v-43h38v43h-38zM226 118l-14 -5v9h-32v-38h30l13 13l16 -20h-59v-43h38l13 13l17 -20h-123
q-10 0 -19 -2l-9 9h69v43h-26q-10 0 -19 -2l-9 9h54v38h-32v-7l-14 -6q1 30 1 69t-1 59l14 -9h77l7 9l15 -12l-8 -7v-63q0 -17 1 -37zM134 179h32v42h-32v-42zM180 179h32v42h-32v-42zM134 129h32v43h-32v-43zM180 129h32v43h-32v-43z" />
  </g>

</svg>
