<?xml version="1.0" standalone="no"?>
<!DOCTYPE svg PUBLIC "-//W3C//DTD SVG 1.1//EN" "http://www.w3.org/Graphics/SVG/1.1/DTD/svg11.dtd" >
<svg xmlns="http://www.w3.org/2000/svg" xmlns:xlink="http://www.w3.org/1999/xlink" version="1.1" viewBox="0 -205 1024 1024">
  <g transform="matrix(1 0 0 -1 0 819)">
   <path fill="currentColor"
d="M76 918h302l30 38l50 -44q3 -3 4 -8q0 -12 -12 -12h-156v-222l166 28l6 -18q-271 -60 -304 -74q-33 -13 -62 -34l-40 62l184 28v230h-106q-20 -1 -40 -10l-22 36v0v0zM572 950h178l28 32l50 -38q7 -6 8 -8q3 -9 -24 -24v-266q0 -33 6 -38q8 -4 28 -4h48q17 0 28 6
q10 6 14 24q3 18 6 118h20q1 -63 8 -90q6 -27 30 -36q-11 -36 -28 -48t-34 -14q-16 -3 -40 -2h-58q-42 0 -60 12q-15 12 -18 48v302h-198v-142q-9 -102 -60 -164q-51 -63 -156 -96l-4 16q94 45 128 100q33 54 42 144v206l58 -38v0v0zM582 822l10 10q68 -31 92 -58
q24 -25 24 -46q-1 -19 -14 -28q-12 -7 -24 -4t-18 22q-3 19 -18 44q-13 24 -52 60v0v0zM54 498h806l44 38l60 -48q3 0 4 -6q0 -12 -12 -12h-532q-54 -93 -102 -138h416l38 34l54 -44q6 -6 6 -8q1 -7 -28 -26v-122l4 -71q-1 -12 -22 -22q-19 -9 -34 -10v54h-434v-22
q1 -18 -16 -30q-14 -12 -40 -16l4 88v143q-100 -97 -232 -161l-8 14q118 80 200 163q81 81 132 174h-232q-20 -1 -52 -10l-24 38v0v0zM322 145h434v159h-434v-159v0v0z" />
  </g>

</svg>
