<?xml version="1.0" standalone="no"?>
<!DOCTYPE svg PUBLIC "-//W3C//DTD SVG 1.1//EN" "http://www.w3.org/Graphics/SVG/1.1/DTD/svg11.dtd" >
<svg xmlns="http://www.w3.org/2000/svg" xmlns:xlink="http://www.w3.org/1999/xlink" version="1.1" viewBox="0 -36 256 256">
  <g transform="matrix(1 0 0 -1 0 220)">
   <path fill="currentColor"
d="M209.5 67.5q4.5 -0.5 4.5 6.5v32h-25v-23q0 -21 1 -31l-14 -4q1 17 1 35v23h-25v-57l-13 -7q1 28 1 39v76q0 8 -1 28l13 -7h25v19h-20q-10 0 -19 -2l-9 9h48v12q0 13 -1 30l19 -8l-6 -7v-27h29l8 11l14 -18h-51v-19h24l5 9l14 -9l-6 -9v-102q0 -12 -14 -20q-3 13 -17 18
v4q10 -1 14.5 -1.5zM189 146h25v25h-25v-25zM152 146h25v25h-25v-25zM152 113h25v26h-25v-26zM189 113h25v26h-25v-26zM198 240q17 -6 22.5 -12t1 -14t-9 2.5t-15.5 20.5zM119 107q-3 -4 -8 -14.5t-10 -18.5l21 3q-4 8 -6 13l2 2q12 -9 15.5 -14t0 -11t-5 -3.5t-4.5 9.5
q-23 -8 -25 -12l-8 13q6 0 10.5 15t5.5 24zM40 170h25v28h-25v-28zM77 170h26v28h-26v-28zM40 130h25v33h-25v-33zM77 130h26v33h-26v-33zM90 126v-19v-62q0 -18 12 -18h115q9 0 12 6t4 33h4q0 -10 2 -22t9 -14q-5 -14 -28 -14h-123q-19 0 -19 26v84h12zM9 8l-2 2
q42 46 49 113h-16v-5l-13 -5q1 17 1 51t-1 45l13 -4h14q12 24 14 42l17 -10l-6 -4q-10 -17 -19 -28h42l7 7l12 -11l-6 -6q0 -55 1 -75l-13 -5v8h-34q-10 -78 -60 -115z" />
  </g>

</svg>
