<?xml version="1.0" standalone="no"?>
<!DOCTYPE svg PUBLIC "-//W3C//DTD SVG 1.1//EN" "http://www.w3.org/Graphics/SVG/1.1/DTD/svg11.dtd" >
<svg xmlns="http://www.w3.org/2000/svg" xmlns:xlink="http://www.w3.org/1999/xlink" version="1.1" viewBox="0 -36 256 256">
  <g transform="matrix(1 0 0 -1 0 220)">
   <path fill="currentColor"
d="M41 247q18 -12 26 -23t-3 -24h20l12 12l17 -19h-76q-10 0 -19 -2l-10 9h50q-5 21 -20 45zM37 39h39v44h-39v-44zM69 163l14 10l15 -17h-48q-12 1 -21 -2l-8 9h48zM67 125l13 11l16 -18h-44q-12 1 -21 -2l-8 9h44zM91 46q0 -11 1 -26l-16 -6v18h-39v-17l-15 -7
q1 25 1 47.5t-1 45.5l16 -11h37l9 11l14 -14l-7 -6v-35zM218 147q15 -13 30 -14v-4q-12 -1 -17 -11q-9 4 -31 27t-35 72l-36 -6v-73l40 13l1 -3q-38 -19 -47 -30l-11 16q4 6 4 17v44q0 11 -1 32l13 -9q32 5 53.5 14t30.5 14l13 -18q-8 0 -17 -1.5t-35 -7.5q3 -16 16.5 -37.5
t28.5 -34.5zM133 71h76v30h-76v-30zM133 32h76v32h-76v-32zM120 62q0 27 -1 54l14 -8h74l10 9l13 -13l-7 -7v-45q0 -16 1 -34l-15 -9v16h-76v-12l-14 -6q1 28 1 55z" />
  </g>

</svg>
