<?xml version="1.0" standalone="no"?>
<!DOCTYPE svg PUBLIC "-//W3C//DTD SVG 1.1//EN" "http://www.w3.org/Graphics/SVG/1.1/DTD/svg11.dtd" >
<svg xmlns="http://www.w3.org/2000/svg" xmlns:xlink="http://www.w3.org/1999/xlink" version="1.1" viewBox="0 -36 256 256">
  <g transform="matrix(1 0 0 -1 0 220)">
   <path fill="currentColor"
d="M219 44l-14 -6v17h-95v-10l-14 -5q1 25 1 38.5v47.5v41.5t-1 23.5l14 -6h25q5 20 8 34h-37q-10 -1 -20 -3l-9 10h130l15 12l16 -19h-76q-10 -11 -22 -34h64l8 10l14 -13l-8 -8v-103q0 -9 1 -27zM110 62h22v116h-22v-116zM182 62h23v116h-23v-116zM144 147h25v31h-25v-31z
M144 107h25v33h-25v-33zM144 62h25v38h-25v-38zM36 243q24 -14 29 -23t-1.5 -19.5t-11 6.5t-18.5 33zM39 54q11 25 22 52h-18l-8 -9l-13 12l9 6l22 44h-17l-11 -3l-10 10h39l9 11l13 -16l-10 -5q-6 -10 -22 -43h18l8 8l12 -14l-8 -6q-10 -20 -20 -46q26 -22 84.5 -24
t109.5 6v-4q-18 -5 -22 -17q-92 -2 -121.5 4.5t-58.5 29.5q-19 -21 -26 -37l-12 12q16 17 31 29z" />
  </g>

</svg>
