<?xml version="1.0" standalone="no"?>
<!DOCTYPE svg PUBLIC "-//W3C//DTD SVG 1.1//EN" "http://www.w3.org/Graphics/SVG/1.1/DTD/svg11.dtd" >
<svg xmlns="http://www.w3.org/2000/svg" xmlns:xlink="http://www.w3.org/1999/xlink" version="1.1" viewBox="0 -36 256 256">
  <g transform="matrix(1 0 0 -1 0 220)">
   <path fill="currentColor"
d="M73 227l-8 -4q-25 -29 -43 -43l-3 3q12 14 22 29.5t14 26.5zM87 236q21 -12 28.5 -19t5.5 -14.5t-6 -9t-8.5 10t-22.5 29.5zM16 133l-2 3q22 19 38 39.5t22 36.5l17 -10l-5 -4l-5 -6q27 -13 35.5 -19t9 -12t-3 -11t-13.5 9.5t-31 28.5q-30 -37 -62 -55zM112 88l-14 -6v10
h-44v-7l-14 -6q1 22 1 37.5t-1 35.5l15 -7h42l6 9l14 -11l-6 -7q0 -36 1 -48zM54 99h44v39h-44v-39zM189.5 231q4.5 -5 -1 -12t-9.5 2.5t-15 20.5l2 2q19 -8 23.5 -13zM223 207h-82q0 -15 -4.5 -19t-11.5 -2t1.5 11.5t10.5 25.5h4v-9h82l6 9l15 -13q-7 -3 -12.5 -8.5
t-12.5 -13.5l-3 1zM198 188l9 8l14 -15h-32v-23h22l9 9l15 -16h-76q-10 0 -20 -3l-9 10h45v23h-3q-10 -1 -19 -3l-10 10h55zM206 129h-49v-34h49v34zM211 144l14 -10l-5 -6v-21v-22l-14 -4v7h-49v-4l-14 -5q1 18 1 32.5t-1 30.5l14 -6h48zM121 84l22 -9l-7 -6v-10h50l13 11
l17 -18h-80v-28h75l15 12l20 -19h-205q-10 -1 -19 -3l-9 10h109v28h-51q-10 -1 -19 -3l-10 10h80q0 13 -1 25z" />
  </g>

</svg>
