<?xml version="1.0" standalone="no"?>
<!DOCTYPE svg PUBLIC "-//W3C//DTD SVG 1.1//EN" "http://www.w3.org/Graphics/SVG/1.1/DTD/svg11.dtd" >
<svg xmlns="http://www.w3.org/2000/svg" xmlns:xlink="http://www.w3.org/1999/xlink" version="1.1" viewBox="0 -205 1024 1024">
  <g transform="matrix(1 0 0 -1 0 819)">
   <path fill="currentColor"
d="M112 986l52 -42h212l26 40l62 -44q6 -6 -2 -14l-20 -16v-142l4 -72q1 -16 -16 -26q-18 -9 -38 -12v36h-230v-526l4 -105q1 -15 -22 -30q-24 -12 -36 -12l4 143v822v0v0zM878 980l64 -42q7 -4 8 -10q0 -6 -14 -14l-16 -12v-771q2 -49 -16 -74q-18 -26 -60 -40
q-9 30 -30 42q-21 15 -96 36l4 18q76 -14 98 -16q21 0 34 6q12 6 12 32v559h-222v-16q-7 -9 -22 -14q-15 -6 -32 -6l4 110v208l46 -34h206l32 38v0v0zM644 916v-84h224v84h-224v0v0zM644 806v-84h224v84h-224v0v0zM164 918v-86h228v86h-228v0v0zM164 806v-86h228v86h-228v0
v0zM286 572h204v120l72 -26q9 -3 6 -8q2 -3 -4 -6l-28 -14v-66h106l32 34l56 -42q3 -4 4 -10q1 -7 -16 -8h-182v-78h184l32 36l56 -44q6 -4 4 -10q-1 -6 -16 -6h-498q-21 1 -54 -10l-22 34h268v78h-140q-21 0 -44 -8l-20 34v0v0zM254 364h348v70l70 -24q15 -7 0 -16l-24 -10
v-20h66l30 32l52 -42q9 -16 -8 -14h-140v-162q0 -32 -14 -53q-15 -23 -60 -32q-4 30 -34 44q-31 12 -82 23l4 18q63 -13 84 -16t40 0q18 3 16 36v142h-276q-20 0 -52 -8l-20 32v0v0zM348 304l6 12q51 -16 78 -28q24 -13 34 -32q9 -17 0 -34q-9 -19 -26 -16q-15 2 -24 26
q-6 22 -24 38q-16 15 -44 34v0v0z" />
  </g>

</svg>
