<?xml version="1.0" standalone="no"?>
<!DOCTYPE svg PUBLIC "-//W3C//DTD SVG 1.1//EN" "http://www.w3.org/Graphics/SVG/1.1/DTD/svg11.dtd" >
<svg xmlns="http://www.w3.org/2000/svg" xmlns:xlink="http://www.w3.org/1999/xlink" version="1.1" viewBox="0 -205 1024 1024">
  <g transform="matrix(1 0 0 -1 0 819)">
   <path fill="currentColor"
d="M370 414h474l40 50l60 -56q3 -3 4 -8q0 -12 -12 -12h-264v-128h138l36 52l62 -60q3 -3 4 -8q0 -10 -12 -10h-228v-131h210l42 51l68 -61l6 -6q0 -9 -12 -10h-586q-21 1 -68 -8l-16 34h302v131h-154q-21 0 -68 -8l-16 34h238v128h-164q-21 0 -68 -8l-16 34v0v0zM356 478
l18 -10q-147 -265 -158 -286q-10 -21 -10 -38q-1 -16 4 -37q5 -20 8 -44q1 -22 -10 -36q-9 -15 -26 -12q-17 1 -22 22q-4 18 2 38q3 21 4 44q0 20 -6 31q-7 9 -22 16q-15 6 -68 16l2 18q69 -6 82 -2q15 3 36 28q23 21 166 252v0v0zM146 528l8 12q54 -23 82 -40
q28 -16 38 -34q8 -19 2 -38q-7 -18 -28 -20q-21 -1 -26 20q-4 21 -22 46q-18 21 -54 54v0v0zM74 414l8 12q56 -23 80 -40q24 -18 34 -36q9 -19 0 -38q-7 -18 -28 -20q-18 -1 -24 22q-6 21 -20 46q-13 21 -50 54v0v0zM532 526l6 12q66 -12 96 -24q30 -11 42 -28q9 -18 4 -36
q-7 -18 -28 -20q-19 -2 -26 18t-28 38q-21 15 -66 40v0v0zM158 928h632l42 54l70 -60q3 -3 4 -8q-1 -12 -16 -12h-352v-92h346l34 36l54 -48q12 -9 12 -14q-3 -6 -18 -8q-25 -9 -44 -24q-18 -15 -66 -72l-16 8l52 96h-354v-124l4 -70q0 -15 -18 -30t-42 -14l4 108v130h-336
q-6 -65 -20 -88q-15 -23 -32 -34q-18 -10 -32 -4q-13 5 -16 20q-4 14 16 34q18 17 36 44q16 26 26 100h18l2 -46h338v92h-244q-21 0 -68 -8l-16 34v0v0zM204 700h210v-26h-210v26v0v0zM202 602h212v-26h-212v26v0v0zM610 700h202v-26h-202v26v0v0zM614 600h198v-26h-198v26
v0v0z" />
  </g>

</svg>
