<?xml version="1.0" standalone="no"?>
<!DOCTYPE svg PUBLIC "-//W3C//DTD SVG 1.1//EN" "http://www.w3.org/Graphics/SVG/1.1/DTD/svg11.dtd" >
<svg xmlns="http://www.w3.org/2000/svg" xmlns:xlink="http://www.w3.org/1999/xlink" version="1.1" viewBox="0 -205 1024 1024">
  <g transform="matrix(1 0 0 -1 0 819)">
   <path fill="currentColor"
d="M542 752v-140h194l36 44l66 -54q3 -3 4 -6q0 -10 -12 -10h-288v-56q113 -45 182 -92q68 -46 82 -70q12 -25 6 -44t-24 -20q-19 -1 -38 26q-18 26 -72 80q-53 53 -136 98v-192l4 -96q-1 -12 -22 -26q-21 -12 -38 -14l4 134v198q-53 -77 -130 -154q-75 -75 -164 -126l-8 14
q66 48 142 132q74 81 146 208h-210q-20 0 -52 -8l-20 34h296v136q-114 -6 -218 -14l-2 20q141 16 252 38q111 20 174 44q51 -60 46 -66q-3 -8 -14 -6t-28 4q-18 2 -158 -16v0v0zM106 972l58 -40h692l32 40l60 -38q12 -6 12 -14q-1 -3 -34 -30v-658l4 -155q1 -12 -16 -24
q-16 -11 -40 -16v84h-716v-68q0 -10 -20 -24q-21 -12 -36 -10l4 203v750v0v0zM158 150h716v752h-716v-752v0v0z" />
  </g>

</svg>
