<?xml version="1.0" standalone="no"?>
<!DOCTYPE svg PUBLIC "-//W3C//DTD SVG 1.1//EN" "http://www.w3.org/Graphics/SVG/1.1/DTD/svg11.dtd" >
<svg xmlns="http://www.w3.org/2000/svg" xmlns:xlink="http://www.w3.org/1999/xlink" version="1.1" viewBox="0 -36 256 256">
  <g transform="matrix(1 0 0 -1 0 220)">
   <path fill="currentColor"
d="M219 221h-122q-1 -13 -7 -20t-14 -3t2 13.5t15 29.5h4v-13h121l8 11l20 -16q-16 -3 -33 -30l-4 3zM111 157v28q0 11 -1 28l22 -7l-8 -8v-41h7l10 11l15 -18h-32v-16q28 -20 29 -29t-3.5 -15.5t-8.5 5.5t-17 33v-77v-35l-14 -9q1 40 1 57v45q-16 -38 -46 -68l-2 3
q37 52 47 106h-4q-11 0 -19 -2l-9 9h33zM180 56v60q-17 -44 -44 -74l-3 3q34 53 42 106q-6 0 -15 -2l-9 9h29v28q0 11 -1 26l21 -7l-7 -8v-39h20l9 11l15 -18h-38q7 -31 20.5 -57t24.5 -36l-1 -3q-12 1 -17 -7q-12 19 -21 48t-12 51v-94q0 -25 1 -38l-15 -8q1 20 1 49z
M61 221q7 -7 1 -17.5t-11 2.5t-22 31l1 3q24 -12 31 -19zM11 179q31 -11 33 -20.5t-3.5 -15t-9.5 5.5t-21 27zM38 84.5q6 3.5 33 107.5l4 -2q-19 -86 -23.5 -109.5t-3.5 -47.5t-10 -15.5t-7 22t4 24t-22 15.5v4q19 -2 25 1.5z" />
  </g>

</svg>
