<?xml version="1.0" standalone="no"?>
<!DOCTYPE svg PUBLIC "-//W3C//DTD SVG 1.1//EN" "http://www.w3.org/Graphics/SVG/1.1/DTD/svg11.dtd" >
<svg xmlns="http://www.w3.org/2000/svg" xmlns:xlink="http://www.w3.org/1999/xlink" version="1.1" viewBox="0 -154 1024 1024">
  <g transform="matrix(1 0 0 -1 0 870)">
   <path fill="currentColor"
d="M746 299h153v150h-153v-150zM710 449h-153v-150h153v150zM710 283h-153v-165h153v165zM899 283h-153v-165h153v165zM671 991l55 -37q5 -5 5 -9t-7 -8q-8 2 -16 2q-17 -10 -177 -63v-250q47 37 128 103q-8 28 -49 68l6 10q101 -69 92 -124v-3q-1 -32 -21 -34q-19 7 -21 62
q-49 -48 -93 -87q-26 -28 -36 -43q-9 -15 -15 -35l-53 45q13 8 25 25v264q-3 19 -23 45l8 8l44 -36q57 23 98 45q41 21 43 30v3q0 7 -4 15zM970 886l-1 -119q0 -125 -25 -169q-26 -43 -83 -55q-6 25 -39 36q-34 11 -57 14v14q69 -10 96 -10q42 4 56 38q13 33 13 114l2 148
h-111v-10q6 -254 -161 -372l-9 12q67 64 99 146q32 83 33 224h-5q-22 0 -33 -14l-33 34h205l28 39l43 -38q9 -6 9 -11t-9 -8zM296 309q138 -103 152 -206q3 -47 -17 -54t-25 37q-2 24 -11 52q-70 -11 -177 -25q-88 -13 -111 -22q-27 -10 -49 -34l-35 71q25 2 46 15
q71 109 130 258q1 12 -5 31h-102q-20 1 -36 -13l-31 33l194 1v200h-98q-21 1 -35 -13l-36 34h170v194h-5q-58 -9 -157 -13l-1 15l80 12q132 28 168 40q37 10 45 18q9 11 14 29l9 3l48 -60q15 -20 0 -21q-27 8 -61 4q-55 -13 -102 -20v-201h105l24 34l54 -43q13 -12 -5 -12
h-178v-200l139 -1l26 36l54 -46q13 -10 -6 -10h-258l53 -31q9 -8 -1 -11q-15 4 -25 -6q-64 -121 -148 -254q169 18 295 28q-3 10 -9 24q-24 52 -88 116zM512 506l36 -37h333l31 35l47 -43q6 -5 6 -9q0 -6 -12 -8l-17 -9v-282l5 -90q2 -32 -42 -36v71h-342v-33q1 -38 -44 -44
q4 37 6 112v322q-3 24 -19 40z" />
  </g>

</svg>
