<?xml version="1.0" standalone="no"?>
<!DOCTYPE svg PUBLIC "-//W3C//DTD SVG 1.1//EN" "http://www.w3.org/Graphics/SVG/1.1/DTD/svg11.dtd" >
<svg xmlns="http://www.w3.org/2000/svg" xmlns:xlink="http://www.w3.org/1999/xlink" version="1.1" viewBox="0 -205 1024 1024">
  <g transform="matrix(1 0 0 -1 0 819)">
   <path fill="currentColor"
d="M474 918q15 -5 0 -16q-7 0 -22 -14l-16 -40h60v136l70 -24q13 -7 0 -16l-26 -8v-88h28l26 30l38 -34q9 -12 -2 -20h-90v-104h52l26 28l38 -34q3 -6 4 -12q0 -7 -12 -8h-60v-90l80 38l12 -12q-93 -60 -110 -102l-50 40l24 20v106h-62q-4 -57 -28 -108t-102 -102l-8 12
q59 57 74 102q16 45 20 96h-50q-17 0 -34 -6l-14 32h156v104h-70q-16 -33 -46 -86l-14 4q36 122 52 200l56 -24v0v0zM730 928q21 -10 -2 -16q-9 -3 -20 -26l-14 -38h82v136l70 -26q11 -5 -4 -16l-22 -8v-86h48l28 40l46 -44q9 -12 -2 -20h-120v-106h94l28 34l46 -44
q3 -3 4 -8q0 -7 -12 -8h-116v-78q-1 -25 2 -34q4 -10 26 -10h20q21 3 28 28q3 23 6 74h18q0 -48 6 -66t24 -26q-10 -19 -22 -32q-13 -12 -50 -14h-38q-21 0 -42 6q-22 15 -22 48v104h-56q-4 -63 -34 -108q-31 -45 -106 -74l-8 14q59 39 80 78q21 36 24 90h-26l-12 -6l-16 32
h110v106h-88q-11 -33 -34 -80l-18 4q29 119 38 202l56 -22v0v0zM448 534l56 -36h320l32 30l52 -40q6 -4 6 -8q0 -6 -24 -20v-184l4 -86q0 -15 -18 -26q-17 -12 -34 -14v38h-346v-6q1 -12 -16 -24q-18 -13 -36 -14l4 100v290v0v0zM496 212h346v76h-346v-76v0v0zM496 312h346
v68h-346v-68v0v0zM496 404h346v70h-346v-70v0v0zM310 31q131 54 280 151l52 -36q6 -12 -8 -15q-28 1 -98 -32t-220 -84l-6 16v0v0zM702 154l4 14q93 -19 156 -39q62 -20 86 -40t22 -40q-3 -18 -20 -24q-18 -4 -44 22q-25 23 -70 48t-134 59v0v0zM274 798l34 42l54 -48
q3 -3 4 -8q0 -12 -12 -12h-282q-18 1 -42 -10l-24 36h268v0v0zM54 666h178l32 42l54 -48q2 -3 2 -8q0 -12 -12 -12h-164q-37 0 -68 -8l-22 34v0v0zM62 446l60 -44h122l28 34l58 -38q6 -6 6 -8q0 -6 -32 -30v-152l4 -81q1 -12 -16 -24q-15 -12 -36 -16v81h-144v-61
q0 -18 -18 -30q-18 -14 -36 -14l4 119v264v0v0zM112 194h144v182h-144v-182v0v0zM78 974l10 10q85 -49 104 -76t18 -48q0 -22 -12 -32q-13 -11 -28 -6q-16 3 -20 22q-2 19 -10 44q-6 25 -62 86v0v0zM54 534h178l30 42l56 -48q2 -3 2 -8q0 -12 -12 -12h-178q-34 0 -58 -8
l-18 34v0v0z" />
  </g>

</svg>
