<?xml version="1.0" standalone="no"?>
<!DOCTYPE svg PUBLIC "-//W3C//DTD SVG 1.1//EN" "http://www.w3.org/Graphics/SVG/1.1/DTD/svg11.dtd" >
<svg xmlns="http://www.w3.org/2000/svg" xmlns:xlink="http://www.w3.org/1999/xlink" version="1.1" viewBox="0 -36 256 256">
  <g transform="matrix(1 0 0 -1 0 220)">
   <path fill="currentColor"
d="M116 167q0 -9 1 -17l-14 -7v6h-68v-2l-13 -6q1 43 0 86l10 -4q16 11 23 20l14 -15l-7 1l-27 -11v-27h9l10 10l14 -17h-33v-28h68v28h-3q-11 1 -19 -3l-9 10h31v27h-3q-10 0 -19 -2l-9 9h31l7 8l13 -12l-7 -6v-48zM19 135l20 -8l-7 -6v-83l23 17l1 -3q-21 -24 -28 -35
l-12 13q4 5 4 14q0 71 -1 91zM119 127l-7 -5q-1 -9 0.5 -34.5t6.5 -33.5l14 21l2 -3q-6 -11 -8.5 -21t-6.5 -25q-16 19 -18.5 44t-2.5 66zM59 141l18 -8l-5 -6v-87l22 17l2 -3q-21 -22 -28 -34l-11 11q3 5 3 14q0 75 -1 96zM54 109q5 -6 -0.5 -12t-8 3t-10.5 20l2 2
q12 -7 17 -13zM54.5 77q4.5 -6 -1.5 -12.5t-8 2.5t-11 21l2 2q14 -7 18.5 -13zM94.5 108.5q4.5 -6.5 -1 -13t-8.5 4.5t-10 20l1 2q14 -7 18.5 -13.5zM93 75q5 -6 -0.5 -13t-8 2.5t-10.5 19.5l2 2q12 -5 17 -11zM205 220l12 11l13 -18h-68q-10 0 -16 -2l-9 9h68zM231 42.5
q1 11.5 2 29.5h5q0 -7 1 -23.5t9 -19.5q-6 -10 -19 -10h-21q-19 -1 -18 21v111h-21q1 -54 -11.5 -88t-46.5 -55l-3 3q34 30 41.5 65.5t6.5 74.5h-5q-10 0 -19 -2l-9 9h96l11 13l16 -20h-43v-109q0 -11 10 -11h10q7 0 8 11.5z" />
  </g>

</svg>
