<?xml version="1.0" standalone="no"?>
<!DOCTYPE svg PUBLIC "-//W3C//DTD SVG 1.1//EN" "http://www.w3.org/Graphics/SVG/1.1/DTD/svg11.dtd" >
<svg xmlns="http://www.w3.org/2000/svg" xmlns:xlink="http://www.w3.org/1999/xlink" version="1.1" viewBox="0 -205 1048 1024">
  <g transform="matrix(1 0 0 -1 0 819)">
   <path fill="currentColor"
d="M985 588q-8 1 -14 1q-19 0 -30 -15t-13 -15q-6 0 -42 38q-71 75 -112 144q-31 48 -75 139q-74 -208 -233 -320l-2 2l-8 8q148 133 209 385l53 -25q18 -8 18 -14q0 -5 -20 -18q94 -220 271 -299zM494 646l-9 -13h-422v22h75v177l-4 55l51 -15q27 -9 27 -17q0 -4 -29 -23
v-177h77l-2 321l49 -11q30 -8 30 -16t-33 -23v-108h43l22 28q15 16 16 16l19 -16l42 -38l-4 -11h-138v-142h84l22 26q19 20 20 20t24 -21zM906 403q9 -12 9 -19q0 -10 -39 -10l-160 -155q49 -38 54 -71q2 -47 -15 -47q-14 0 -29 30.5t-53.5 76t-106.5 96.5l7 9
q74 -44 120 -79l136 161h-339v21h352l16 20q10 11 9 11q3 0 14 -12zM748 545q4 -13 4 -24q0 -29 -18 -29q-12 0 -24 18q-30 62 -105 116l8 9q113 -51 135 -90zM261 443h-117l-67 1l15 -18l63 4h173q15 0 18 4q3 5 -7 12l-43 32zM240 359h-84l-53 27l5 -47v-145v-11
q-3 -15 1 -19q5 -5 25 0q13 5 17 16q3 5 1 16v11v38h97v-32v-6q0 -13 3 -15q5 -5 22 4q15 8 19 17q2 5 1 18q-1 6 -1 9q-1 6 0 11v76q19 1 22 8q2 8 -16 22l-33 27zM153 345h96v-85h-96v85zM368 534h-213l-95 3l19 -20l98 2h204v-318q0 -45 -26 -55q-26 -12 -112 0v-10
q43 -13 62 -25q18 -11 29 -32q44 3 65 30q24 31 24 91v292q33 3 36 9q3 8 -24 33l-37 32z" />
  </g>

</svg>
