<?xml version="1.0" standalone="no"?>
<!DOCTYPE svg PUBLIC "-//W3C//DTD SVG 1.1//EN" "http://www.w3.org/Graphics/SVG/1.1/DTD/svg11.dtd" >
<svg xmlns="http://www.w3.org/2000/svg" xmlns:xlink="http://www.w3.org/1999/xlink" version="1.1" viewBox="0 -36 256 256">
  <g transform="matrix(1 0 0 -1 0 220)">
   <path fill="currentColor"
d="M81 233l6 12q32 -8 42 -15.5t25 -20.5t37 -25.5t54 -14.5v-4q-16 -3 -22 -15q-24 10 -47.5 28t-43.5 38q-25 -31 -54.5 -48.5t-64.5 -25.5l-1 3q31 11 59 30t49 49q-15 9 -39 9zM42 139v5q34 3 76 10t62 17l17 -22q-24 0 -63 -4v-29h47l14 12l18 -19h-79v-26h75l15 13
l18 -20h-108v-34q2 -22 -23 -32q0 16 -32 24v5q27 -2 34.5 -1.5t6.5 11.5v27h-83q-10 0 -19 -2l-9 9h111v26h-55q-10 0 -19 -2l-9 9h83v28q-39 -3 -78 -5z" />
  </g>

</svg>
