<?xml version="1.0" standalone="no"?>
<!DOCTYPE svg PUBLIC "-//W3C//DTD SVG 1.1//EN" "http://www.w3.org/Graphics/SVG/1.1/DTD/svg11.dtd" >
<svg xmlns="http://www.w3.org/2000/svg" xmlns:xlink="http://www.w3.org/1999/xlink" version="1.1" viewBox="0 -205 1024 1024">
  <g transform="matrix(1 0 0 -1 0 819)">
   <path fill="currentColor"
d="M58 556h200v192l78 -30q9 -6 10 -12q0 -4 -38 -22v-128h56l34 44l56 -52q3 -3 4 -8q0 -10 -12 -10h-138v-142l148 50l10 -16l-158 -70v-229q3 -35 -14 -62q-16 -26 -58 -34q-3 30 -36 42q-31 13 -76 26l4 18q88 -19 110 -12t20 34v199q-105 -40 -128 -56q-23 -12 -40 -36
l-44 64l212 68v156h-116q-21 1 -60 -10l-24 36v0v0zM492 570l54 -32h134v228q81 -24 84 -30q3 -7 -2 -10q-3 -3 -32 -14v-174h128l22 32l56 -34q8 -6 8 -12q3 -6 -26 -24v-405q1 -31 -16 -50q-16 -17 -62 -32q-6 36 -30 48q-23 13 -82 34l6 18q63 -15 84 -22q21 -4 36 -2
q14 3 14 30v135h-326v-100l4 -95q0 -12 -18 -28q-19 -13 -40 -14l4 135v418v0v0zM542 280h326v104h-326v-104v0v0zM542 410h326v102h-326v-102v0v0zM496 704l10 10q54 -32 82 -52q28 -18 38 -42q10 -25 0 -40q-12 -16 -30 -14q-18 3 -24 28q-5 25 -22 50q-18 24 -54 60v0v0z
M854 722q57 -33 60 -42q4 -6 0 -8q-3 -2 -14 -4q-12 -1 -32 -22q-21 -22 -74 -92l-16 8q39 72 76 160v0v0zM294 968q10 -9 0 -18q-21 -4 -30 -10l-14 -14l-20 -30h198l40 42l58 -52q9 -16 -8 -16h-202q45 -28 58 -44q12 -15 16 -30q1 -14 -6 -28q-9 -12 -26 -12
q-16 1 -22 26q-6 24 -12 40q-6 15 -36 48h-74q-60 -87 -122 -150l-14 12q45 66 82 132t62 138l72 -34v0v0zM682 962q10 -7 0 -16q-23 -5 -28 -10q-5 -3 -10 -8q-3 -6 -24 -32h268l40 46l62 -56q9 -16 -8 -16h-246q32 -18 50 -36q18 -16 24 -34q7 -16 -4 -32q-12 -16 -30 -10
q-19 3 -22 28q-4 25 -14 44q-10 17 -32 40h-104q-45 -62 -92 -112l-16 10q42 66 66 114q23 47 46 110l74 -30v0v0z" />
  </g>

</svg>
