<?xml version="1.0" standalone="no"?>
<!DOCTYPE svg PUBLIC "-//W3C//DTD SVG 1.1//EN" "http://www.w3.org/Graphics/SVG/1.1/DTD/svg11.dtd" >
<svg xmlns="http://www.w3.org/2000/svg" xmlns:xlink="http://www.w3.org/1999/xlink" version="1.1" viewBox="0 -200 1000 1000">
  <g transform="matrix(1 0 0 -1 0 800)">
   <path fill="currentColor"
d="M854 558l38 -33q22 -29 20 -37t-28 -10v-244v-9q2 -11 -1 -14q-5 -8 -23 -18q-18 -8 -22 -4q-3 2 0 17l2 10h-254v-10q1 -8 -2 -11q-3 -4 -19 -11q-22 -7 -27 -3q-4 3 -1 19l3 16v264q-11 -7 -39 -19q-29 -13 -60 -25l-3 11q47 22 95 49q30 17 97 56l32 19v144h-51
l-88 -3l-2 31l73 -6l171 3l36 37l47 -34q10 -10 6 -23q-2 -4 -18 -4h-117q18 -8 14 -14q-4 -4 -29 -7v-98q38 28 70 55q33 28 58 57l31 -25q28 -23 22 -29q-7 -5 -43 5q-40 -35 -97 -72q-58 -38 -96 -61h178zM725 940q30 -10 29 -18q-1 -7 -29 -12v-61h153l32 26l29 -31
q30 -31 23 -39q-7 -7 -39 2l-69 -59l-11 6q10 12 41 70h-366q0 -20 -6 -47q-5 -23 -15 -47q-11 -18 -23 -23q-13 -6 -22 0q-10 5 -9 20q0 16 14 35q21 20 32 54q11 31 12 70l8 2q2 -8 4 -14q3 -12 5 -25h165v61l-4 43zM588 666q28 -15 22 -21t-39 -1q-27 -36 -74 -84
q-41 -42 -74 -69l-5 11q23 23 61 75q34 49 71 109zM586 408v-71h252v71h-252zM585 433h252v69h-252v-69zM838 242v69h-252v-69h252zM667 173q37 -21 33 -27q-5 -7 -54 2q-63 -29 -112 -45q-54 -16 -127 -29l-1 11q65 19 123 45q64 30 109 63zM738 203q74 -17 111 -32
q30 -13 60 -37q16 -14 23 -32q5 -15 2 -25q-4 -11 -16 -8q-13 2 -29 19q-36 35 -67 56q-43 32 -84 47v12zM96 722l51 -29h79v99h-100l-65 -4l-9 32l65 -3h109v95l-6 46l62 -15q31 -8 19 -17q-7 -6 -29 -12l-2 -1v-96h79l37 39l49 -36q13 -20 8 -24q-4 -4 -19 -4h-154v-99h72
l28 25l43 -27q18 -16 10 -35q-6 -7 -22 -7v-234v-13q1 -15 -2 -20q-4 -7 -21 -13q-17 -4 -21 2q-2 4 -1 20l1 14h-89v-129h87l36 39l54 -38q13 -19 7 -24q-5 -6 -20 -6h-164v-98v-26q1 -21 -1 -27q-4 -7 -20 -14q-18 -7 -22 0q-3 4 -1 23l1 19v123h-100l-65 -2l-11 32l64 -3
h112v131h-81v-15q1 -13 -2 -18q-4 -7 -18 -13q-20 -6 -26 1q-3 5 -2 21l1 10v281zM143 569h83v98h-83v-98zM357 667h-87v-98h87v98zM357 542h-89v-111h89v111zM143 431h83v111h-83v-111z" />
  </g>

</svg>
