<?xml version="1.0" standalone="no"?>
<!DOCTYPE svg PUBLIC "-//W3C//DTD SVG 1.1//EN" "http://www.w3.org/Graphics/SVG/1.1/DTD/svg11.dtd" >
<svg xmlns="http://www.w3.org/2000/svg" xmlns:xlink="http://www.w3.org/1999/xlink" version="1.1" viewBox="0 -36 256 256">
  <g transform="matrix(1 0 0 -1 0 220)">
   <path fill="currentColor"
d="M94 157l-14 -8v11h-12v-44h10l11 11l14 -18h-35v-55l31 9l1 -4q-33 -14 -69 -31l-10 -8l-12 16l14 4q0 75 -1 96l22 -13l-8 -7v-72l19 6v110h-22v-6l-14 -7q1 14 1 42.5t-1 46.5l15 -10h44l9 11l12 -16l-6 -5q0 -39 1 -59zM33 167h47v52h-47v-52zM135 195.5
q19 24.5 28 50.5l19 -12l-8 -7q12 -17 33 -33t41 -20v-4q-13 -1 -17 -10q-18 11 -34.5 27.5t-26.5 35.5q-13 -23 -31 -40.5t-46 -32.5l-2 3q25 18 44 42.5zM185 172l13 10l17 -17h-60q-12 1 -21 -2l-8 9h59zM162 86l-14 -5v9h-24v-6l-13 -5q1 20 1 35.5t-1 31.5l13 -8h23
l9 9l12 -12l-7 -5q0 -29 1 -44zM148 131h-24v-34h24v34zM133 56q21 -14 26 -21t2.5 -14t-5.5 -7.5t-8 11t-17 25.5q-8 -11 -17.5 -21t-26.5 -21l-2 4q18 16 28.5 33.5t15.5 38.5l18 -12l-6 -3q-4 -5 -8 -13zM203 53q23 -12 29.5 -19t4 -13.5t-5.5 -8.5t-5.5 4t-8.5 14
t-16 18q-15 -24 -37 -40l-2 4q17 17 26 38t10 33l21 -11l-8 -4q-5 -6 -8 -15zM179 111.5q0 17.5 -1 35.5l13 -8h24l8 9l12 -13l-7 -4q0 -30 1 -46l-13 -4v8h-25v-5l-13 -5q1 15 1 32.5zM216 132h-25v-36h25v36z" />
  </g>

</svg>
