<?xml version="1.0" standalone="no"?>
<!DOCTYPE svg PUBLIC "-//W3C//DTD SVG 1.1//EN" "http://www.w3.org/Graphics/SVG/1.1/DTD/svg11.dtd" >
<svg xmlns="http://www.w3.org/2000/svg" xmlns:xlink="http://www.w3.org/1999/xlink" version="1.1" viewBox="0 -144 1024 1024">
  <g transform="matrix(1 0 0 -1 0 880)">
   <path fill="currentColor"
d="M145 860l65 -33h284v162l65 -11l16 -11l-16 -9v-131h290l54 54l65 -54v-21h-758v-296l-4 -62l-6 -59l-9 -56l-13 -53l-15 -49l-19 -46l-22 -42l-26 -39l-28 -35l-33 -30l-7 7l24 36l20 37l18 39l16 42l13 45l10 46l9 51l4 53l3 56v409zM548 331h-321v21h321v153h-276v21
h276v138l-44 -6l-52 -6l-54 -5l-56 -3l-58 -1v10l163 34l99 22l93 25l43 13l42 14l40 15l3 -9l48 -41l2 -17l-22 10l-11 -4l-86 -23l-47 -10l-38 -8v-148h141l54 54l64 -54v-21h-259v-153h186l54 54l64 -54v-21h-304v-192l-1 -14l-2 -13l-5 -14l-6 -11l-9 -11l-11 -9l-12 -7
l-13 -4l-14 -3h-13v32l-108 16v16h108l6 1h5l3 1l2 2l1 1h1l1 2l1 4l1 4v7v192z" />
  </g>

</svg>
