<?xml version="1.0" standalone="no"?>
<!DOCTYPE svg PUBLIC "-//W3C//DTD SVG 1.1//EN" "http://www.w3.org/Graphics/SVG/1.1/DTD/svg11.dtd" >
<svg xmlns="http://www.w3.org/2000/svg" xmlns:xlink="http://www.w3.org/1999/xlink" version="1.1" viewBox="0 -36 256 256">
  <g transform="matrix(1 0 0 -1 0 220)">
   <path fill="currentColor"
d="M113 230l12 -12l-7 -6v-36q0 -17 1 -34l-14 -5v10h-61v-7l-14 -5q1 17 1 30v37q0 14 -1 27l14 -7h61zM44 215v-27h24v27h-24zM81 188h24v27h-24v-27zM81 154h24v27h-24v-27zM44 181v-27h24v27h-24zM186 239l-8 -6v-13h34l12 9l14 -16h-60v-19h-13v38q0 7 -1 16zM147 197
h58l8 9l14 -14l-8 -6v-24q0 -13 1 -26l-14 -6v6h-59v-5l-14 -4q1 25 1 43.5t-1 34.5zM147 190v-20h59v20h-59zM147 143h59v20h-59v-20zM75 118h129l7 7l14 -13l-8 -6q-1 -40 -2 -58.5t-7 -28.5t-19 -12q-3 5 -8 9t-24 8v4q24 -3 31.5 -3t9.5 7t3 23.5t2 55.5h-133
q-25 -22 -50 -31l-1 3q24 17 38.5 34t19.5 29l16 -12q-7 -3 -18 -16zM75 44h70v18h-70v-18zM158 56q0 -14 1 -23l-14 -5v9h-70v-6l-14 -6q1 14 1 37t-1 38l14 -7h70l7 8l13 -13l-7 -6v-26zM75 69h70v17h-70v-17z" />
  </g>

</svg>
