<?xml version="1.0" standalone="no"?>
<!DOCTYPE svg PUBLIC "-//W3C//DTD SVG 1.1//EN" "http://www.w3.org/Graphics/SVG/1.1/DTD/svg11.dtd" >
<svg xmlns="http://www.w3.org/2000/svg" xmlns:xlink="http://www.w3.org/1999/xlink" version="1.1" viewBox="0 -205 1048 1024">
  <g transform="matrix(1 0 0 -1 0 819)">
   <path fill="currentColor"
d="M467 927l51 -28h365l30 27l37 -27q24 -19 22 -27q-1 -9 -33 -11v-672q0 -38 -19 -59q-25 -26 -81 -36q-4 27 -22 41t-73 27l-3 11l117 -8q19 1 26 7t8 20v683h-373v-733v-14q2 -17 -2 -24q-6 -11 -29 -15q-14 -2 -18 3q-2 3 -1 19l1 16v736zM600 736l45 -29h97l29 29
l41 -30q27 -19 14 -29q-8 -5 -27 -5v-244l1 -13q2 -23 -1 -31q-3 -10 -22 -15q-17 -5 -21 2q-3 4 -2 20l1 10h-107v-24q0 -18 -2 -23q-3 -8 -16 -14q-20 -7 -25 0q-3 6 -2 23l1 11v292zM648 426h106v256h-106v-256zM396 889q19 -11 14 -20q-4 -7 -25 -16v-490l2 -31
q2 -15 -1 -20q-3 -7 -17 -15q-21 -7 -25 -3q-3 4 -2 24l1 26h-178v-37l1 -24q2 -15 -1 -20q-3 -8 -19 -15q-19 -9 -24 -2q-3 5 -3 33l1 17v573l-1 51l53 -34h162l21 32zM342 859h-177v-233h177v233zM342 600h-177v-231h177v231z" />
  </g>

</svg>
