<?xml version="1.0" standalone="no"?>
<!DOCTYPE svg PUBLIC "-//W3C//DTD SVG 1.1//EN" "http://www.w3.org/Graphics/SVG/1.1/DTD/svg11.dtd" >
<svg xmlns="http://www.w3.org/2000/svg" xmlns:xlink="http://www.w3.org/1999/xlink" version="1.1" viewBox="0 -36 256 256">
  <g transform="matrix(1 0 0 -1 0 220)">
   <path fill="currentColor"
d="M19 204l-1 4q19 4 40 12t31 17l13 -18q-8 0 -31 -6v-45h13l11 11l15 -18h-39v-22q21 -8 25.5 -16t0 -17t-9.5 4t-16 24q0 -92 1 -116l-15 -8q1 48 1 120q-18 -37 -46 -66l-2 3q33 50 46 94h-15q-10 0 -19 -2l-9 9h45v42q-10 -2 -39 -6zM192 235l-8 -7v-59l-14 -6
q1 22 1 41q0 25 -1 40zM198 223q29 -13 38 -20.5t6.5 -19t-10.5 1.5t-35 35zM107 172q27 29 36 52l19 -13l-10 -2q-22 -24 -43 -40zM132 121h37v30h-37v-30zM182 121h42v30h-42v-30zM182 114v-34h42v34h-42zM131 80h38v34h-37zM169 73h-39q-5 -40 -43 -65l-3 2
q21 19 29 43.5t6 111.5l14 -7h89l9 9l14 -13l-8 -6v-117q-3 -19 -20 -24q1 10 -22 18l1 3q28 -6 28 4v41h-42v-55l-13 -7v62z" />
  </g>

</svg>
