<?xml version="1.0" standalone="no"?>
<!DOCTYPE svg PUBLIC "-//W3C//DTD SVG 1.1//EN" "http://www.w3.org/Graphics/SVG/1.1/DTD/svg11.dtd" >
<svg xmlns="http://www.w3.org/2000/svg" xmlns:xlink="http://www.w3.org/1999/xlink" version="1.1" viewBox="0 -205 1024 1024">
  <g transform="matrix(1 0 0 -1 0 819)">
   <path fill="currentColor"
d="M482 780l40 54l60 -60q3 -3 4 -8q4 -12 -12 -12h-444q-21 0 -68 -8l-16 34h436v0v0zM326 366q30 54 46 94q15 38 34 86q81 -36 78 -44q0 -10 -6 -10q-6 1 -18 -4q-12 -6 -24 -24q-13 -18 -32 -50q-18 -33 -44 -78q42 -43 66 -70q23 -28 38 -58q12 -31 6 -52
q-7 -20 -28 -23q-18 -1 -30 27q-10 30 -22 60q-13 30 -52 82q-66 -85 -128 -142q-61 -55 -164 -113l-8 10q81 66 138 119q54 51 130 160q-54 60 -146 142l10 12q81 -49 156 -124v0v0zM212 622q-24 -30 -68 -74q-42 -45 -90 -90l-12 12q46 56 92 118q44 62 82 134
q66 -42 64 -50q-3 -7 -12 -8q-7 0 -20 -6q-12 -6 -36 -36v0v0zM380 708q84 -46 120 -70q33 -24 52 -48q19 -25 14 -50q-6 -24 -26 -26q-21 -4 -32 20q-9 23 -30 56q-19 32 -106 104l8 14v0v0zM214 958l8 12q60 -27 96 -54q33 -27 40 -50q7 -24 -4 -42q-10 -19 -28 -16
q-19 0 -26 30q-6 30 -24 54t-62 66v0v0zM894 754l56 -44q8 -3 8 -12q1 -3 -34 -24v-344q1 -106 -10 -154q-12 -47 -36 -77q-24 -31 -84 -56q-10 46 -46 62q-36 17 -110 37l6 20q87 -21 136 -27q48 -7 70 29q21 35 22 152v374h-166q-4 -173 -22 -286q-18 -111 -84 -210
q-65 -98 -196 -183l-10 12q132 117 178 211q46 93 62 192q15 96 16 264h-80q-31 1 -50 -10l-26 38h156v242l82 -30q15 -3 12 -12q0 -3 -38 -20v-180h156l32 36v0v0z" />
  </g>

</svg>
