<?xml version="1.0" standalone="no"?>
<!DOCTYPE svg PUBLIC "-//W3C//DTD SVG 1.1//EN" "http://www.w3.org/Graphics/SVG/1.1/DTD/svg11.dtd" >
<svg xmlns="http://www.w3.org/2000/svg" xmlns:xlink="http://www.w3.org/1999/xlink" version="1.1" viewBox="0 -36 256 256">
  <g transform="matrix(1 0 0 -1 0 220)">
   <path fill="currentColor"
d="M110 218l19 -9l-6 -6v-59l-13 -6v9h-74l-7 -7l-12 14l7 4v60l20 -9l-7 -6v-49h31v90l20 -11l-7 -9v-70h29v64zM30 118l21 -11l-7 -7v-60l28 5v69q0 15 -1 30l21 -10l-7 -7v-35h18l12 11l13 -18h-43v-37l43 7l1 -6q-98 -22 -107 -31l-12 16q9 1 21 3v55q0 13 -1 26z
M155 170q11 -53 25 -83q16 38 20 92h-42zM180 236l-8 -4q-5 -26 -11 -46h56l10 14l16 -21h-27q-6 -58 -28 -107q29 -35 59 -45v-4q-14 0 -18 -12q-29 22 -49 51q-30 -38 -89 -54v5q61 26 81 62q-16 44 -20 85q-8 -23 -24 -48l-4 2q25 55 34 133z" />
  </g>

</svg>
