<?xml version="1.0" standalone="no"?>
<!DOCTYPE svg PUBLIC "-//W3C//DTD SVG 1.1//EN" "http://www.w3.org/Graphics/SVG/1.1/DTD/svg11.dtd" >
<svg xmlns="http://www.w3.org/2000/svg" xmlns:xlink="http://www.w3.org/1999/xlink" version="1.1" viewBox="0 -205 1024 1024">
  <g transform="matrix(1 0 0 -1 0 819)">
   <path fill="currentColor"
d="M408 786h254v194l72 -34q7 -3 8 -6q4 -9 -4 -12l-26 -16v-126h178l32 46l56 -52q6 -3 6 -8q0 -10 -12 -10h-260v-114h148l30 40l54 -38q8 -6 8 -12t-24 -24v-501q1 -34 -12 -56q-13 -20 -58 -38q-6 29 -30 42q-22 15 -68 30l4 16q54 -10 72 -14q18 -3 30 2q12 4 10 40
v177h-164v-136l4 -95q0 -13 -20 -26q-21 -13 -38 -14l4 131v140h-156v-136l4 -115q-1 -14 -22 -26q-22 -13 -38 -12l4 151v508l58 -34h150v114h-170q-22 0 -64 -8l-20 32v0v0zM506 336h156v132h-156v-132v0v0zM712 468v-132h164v132h-164v0v0zM506 490h156v134h-156v-134v0
v0zM712 624v-134h164v134h-164v0v0zM770 948q65 -20 88 -34q23 -15 32 -30q6 -14 4 -28q-4 -15 -14 -20q-10 -7 -22 -2q-12 3 -24 34q-10 30 -68 66l4 14v0v0zM348 894q-16 0 -82 -18v-208h70l30 48l58 -54q3 -3 4 -8q0 -12 -12 -12h-150v-78q51 -21 88 -48q36 -26 48 -46
q10 -18 8 -38q-1 -19 -14 -28q-12 -10 -26 -4q-15 5 -20 28q-4 23 -22 52q-19 27 -62 64v-372l4 -103q0 -15 -20 -28q-21 -13 -38 -14l4 143v362q-31 -93 -82 -176q-51 -85 -102 -130l-12 10q30 41 72 118q41 77 68 146q26 66 44 142h-96q-9 0 -56 -8l-16 34h180v202
q-74 -13 -166 -26l-2 18q231 50 328 100l46 -58q0 -10 -6 -10q-21 1 -38 2q-15 0 -30 -2v0v0z" />
  </g>

</svg>
