<?xml version="1.0" standalone="no"?>
<!DOCTYPE svg PUBLIC "-//W3C//DTD SVG 1.1//EN" "http://www.w3.org/Graphics/SVG/1.1/DTD/svg11.dtd" >
<svg xmlns="http://www.w3.org/2000/svg" xmlns:xlink="http://www.w3.org/1999/xlink" version="1.1" viewBox="0 -36 256 256">
  <g transform="matrix(1 0 0 -1 0 220)">
   <path fill="currentColor"
d="M65 15l-15 -8q1 22 1 39v81q-20 -25 -40 -40l-3 4q19 23 40.5 55.5t26.5 45.5l18 -16l-8 -2q-6 -8 -20 -29v-130zM86 232l-9 -3q-36 -48 -61 -65l-3 5q19 20 34.5 43.5t19.5 34.5zM164.5 200q4.5 -8 -2 -16t-10 4t-13.5 25l2 3q19 -8 23.5 -16zM187.5 60.5
q4.5 -8.5 -3 -16.5t-9.5 6t-10 30l3 2q15 -13 19.5 -21.5zM214 66.5q4 -7.5 -2 -16t-8.5 3t-13.5 30.5l3 2q17 -12 21 -19.5zM214 229q-86 -10 -120 -10v5q34 4 65.5 9.5t49.5 13.5l14 -20zM211 207q-15 -16 -32 -30l-4 2q7 10 13.5 20t14.5 25l16 -16zM127 197
q5 -8 -2 -15.5t-10 4.5t-15 25l3 2q19 -8 24 -16zM89.5 52.5q7.5 19.5 10.5 36t4 41.5t0 33l-4 -2l-8 11h92l8 10l15 -14l-7 -6l-3 -23h6l8 9l13 -12l-6 -5l-2 -24h9l7 10l15 -14l-8 -6q-2 -46 -4 -59t-7.5 -19t-18.5 -11q0 15 -27 19v4q21 -1 29 -0.5t10 10.5t4 59h-109
q-9 -58 -46 -89l-3 4q15 18 22.5 37.5zM186 165h-67l-1 -26h65zM204 132h-86q-1 -12 -2 -25h86zM132 53q0 -13 -6.5 -17.5t-12.5 -1.5t1 10.5t13 35.5h4q1 -14 1 -27zM161 54q3 -10 -4.5 -16.5t-8 5.5t-7.5 34l4 1q13 -14 16 -24z" />
  </g>

</svg>
