<?xml version="1.0" standalone="no"?>
<!DOCTYPE svg PUBLIC "-//W3C//DTD SVG 1.1//EN" "http://www.w3.org/Graphics/SVG/1.1/DTD/svg11.dtd" >
<svg xmlns="http://www.w3.org/2000/svg" xmlns:xlink="http://www.w3.org/1999/xlink" version="1.1" viewBox="0 -120 1000 1000">
  <g transform="matrix(1 0 0 -1 0 880)">
   <path fill="currentColor"
d="M71 274l-13 28h407v133l78 -5q23 -2 23 -11t-18 -17l-19 -8v-92h295l47 50l69 -59v-19h-411v-217l-64 -13v230h-394zM151 422v490l76 -8q20 -3 20 -13q0 -6 -13 -14l-19 -10v-435zM407 449v465l72 -29h311l27 44l61 -44q13 -9 13 -17q0 -10 -13 -15l-20 -7v-388l-66 -9
v46h-320v-37zM472 677v-154h320v154h-320zM472 858v-153h320v153h-320z" />
  </g>

</svg>
