<?xml version="1.0" standalone="no"?>
<!DOCTYPE svg PUBLIC "-//W3C//DTD SVG 1.1//EN" "http://www.w3.org/Graphics/SVG/1.1/DTD/svg11.dtd" >
<svg xmlns="http://www.w3.org/2000/svg" xmlns:xlink="http://www.w3.org/1999/xlink" version="1.1" viewBox="0 -36 256 256">
  <g transform="matrix(1 0 0 -1 0 220)">
   <path fill="currentColor"
d="M28 103h14v72h-14v-72zM53 103h14v72h-14v-72zM42 49v47h-14v-6l-12 -7q1 21 1 52.5t-1 54.5l11 -8h15q0 44 -2 60l20 -10l-7 -8v-42h13l7 7l10 -11l-5 -6v-53q0 -19 1 -24l-12 -7v8h-14v-45l16 6q-2 9 -7 30l3 2q18 -24 18 -33t-4.5 -15t-6 -3t-2.5 13q-19 -8 -33.5 -15
t-19.5 -13l-9 17q10 0 34 9zM107 245l19 -10l-6 -7v-45h2l12 10l12 -17h-26v-47l17 9l1 -3l-18 -14v-84q1 -18 -19 -26q-1 13 -18 19v4q15 -2 20 -2t5 7v76q-17 -12 -19 -18l-9 15q8 2 28 12v52q-9 0 -18 -2l-9 9h27q0 42 -1 62zM155 62q9 -17 22 -25v71h-7q-10 0 -19 -2
l-9 9h68v25h-47q-10 0 -19 -2l-9 9h75v25h-35q-10 0 -19 -2l-9 9h28q0 41 -1 68l20 -9l-7 -7v-17h25l13 10l12 -17h-50v-28h22l8 10l12 -13l-6 -5v-24h2l10 10l13 -17h-25q0 -20 1 -34l-14 -6v8h-21v-30h24l13 11l13 -18h-50v-40q19 -8 57 -5v-3q-11 -3 -12 -13
q-38 2 -54.5 11.5t-26.5 35.5q-3 -9 -10 -21t-26 -25l-1 2q15 16 22.5 35t8.5 47l16 -12q-3 -5 -8 -21z" />
  </g>

</svg>
