<?xml version="1.0" standalone="no"?>
<!DOCTYPE svg PUBLIC "-//W3C//DTD SVG 1.1//EN" "http://www.w3.org/Graphics/SVG/1.1/DTD/svg11.dtd" >
<svg xmlns="http://www.w3.org/2000/svg" xmlns:xlink="http://www.w3.org/1999/xlink" version="1.1" viewBox="0 -205 1024 1024">
  <g transform="matrix(1 0 0 -1 0 819)">
   <path fill="currentColor"
d="M752 542v-390q-1 -41 14 -49q14 -5 40 -8h56q27 3 40 14q9 10 12 35q3 24 6 132h22q3 -97 12 -122q8 -22 32 -37q-18 -42 -44 -54q-25 -11 -64 -14h-102q-45 3 -60 20q-13 18 -16 66v407h-104q-2 -159 -28 -248q-25 -89 -88 -154q-64 -65 -184 -111l-6 14q113 65 164 127
q49 63 68 144q19 78 20 228h-114q-25 -1 -40 -10l-22 38h258v400q87 -34 90 -40q0 -6 -2 -8q-3 -4 -36 -22v-330h174l42 52q70 -61 68 -70q-1 -10 -10 -10h-198v0v0zM420 836l12 12q67 -57 92 -86q24 -30 30 -54q6 -25 -2 -44q-6 -19 -24 -22q-19 -4 -28 10t-12 44
q-3 29 -20 62q-15 33 -48 78v0v0zM842 860q71 -45 74 -50t0 -10q-2 -3 -22 -6q-19 -3 -34 -26q-15 -21 -126 -152l-18 10q90 138 126 234v0v0zM110 840l62 -40h104l36 44l58 -46q6 -5 6 -10t-32 -28v-402l4 -100q1 -12 -16 -26q-19 -14 -40 -16v86h-130v-120q0 -16 -18 -28
q-16 -13 -38 -10l4 148v548v0v0zM162 328h130v446h-130v-446v0v0z" />
  </g>

</svg>
