<?xml version="1.0" standalone="no"?>
<!DOCTYPE svg PUBLIC "-//W3C//DTD SVG 1.1//EN" "http://www.w3.org/Graphics/SVG/1.1/DTD/svg11.dtd" >
<svg xmlns="http://www.w3.org/2000/svg" xmlns:xlink="http://www.w3.org/1999/xlink" version="1.1" viewBox="0 -36 256 256">
  <g transform="matrix(1 0 0 -1 0 220)">
   <path fill="currentColor"
d="M24 171q0 33 -1 66l13 -7h57l10 10l14 -17h-42v-29h13l9 10l13 -17h-35v-28h12l9 10l13 -17h-34v-29l21 1l8 8l14 -13l-7 -5q-5 -63 -8.5 -73.5t-9 -17.5t-17.5 -10q0 12 -25 18l1 4q23 -3 28 -2t10 13t8 72l-61 -3v-6l-14 -4q1 33 1 66zM37 194h25v29h-25v-29zM37 159
h25v28h-25v-28zM37 122l25 1v29h-25v-30zM23 91q4 -21 2 -29.5t-6 -12.5t-8.5 -0.5t2 12.5t6.5 30h4zM35 94q8 -10 11 -18.5t1.5 -14.5t-6.5 -7t-4 10.5t-6 28.5zM50 99q19 -15 22 -22t0 -11t-7 -4.5t-5 8.5t-12 27zM71 104q13 -9 17 -16t3 -12t-5.5 -7.5t-6.5 7t-11 26.5z
M184 234q21 5 34 12l15 -20q-17 1 -40.5 -2t-73.5 -6v4q44 7 65 12zM146.5 176.5q4.5 -9.5 2.5 -17.5t-6.5 -8.5t-7.5 14.5t-14 37l1 2q20 -18 24.5 -27.5zM184 184q6 -10 3 -17.5t-7 -9.5t-7.5 14.5t-15.5 35.5l3 2q18 -15 24 -25zM199 144l-4 2q11 19 18 37.5t9 30.5
l19 -15l-8 -5q-21 -36 -34 -50zM169 140q-4 -12 -8 -21h42q2 10 2 19l17 -8q-4 -5 -5 -11h5l11 11l15 -18h-32q-8 -32 -24 -52q14 -6 26 -15.5t14.5 -18t-1.5 -14t-14.5 8.5t-32.5 30q-35 -34 -88 -43l-1 4q46 13 78 46q-25 11 -43 16q8 16 16 38q-10 0 -19 -2l-8 9h29
q8 25 9 39l19 -12zM142 79q19 -6 38 -13q15 20 22 46h-44q-7 -17 -16 -33z" />
  </g>

</svg>
