<?xml version="1.0" standalone="no"?>
<!DOCTYPE svg PUBLIC "-//W3C//DTD SVG 1.1//EN" "http://www.w3.org/Graphics/SVG/1.1/DTD/svg11.dtd" >
<svg xmlns="http://www.w3.org/2000/svg" xmlns:xlink="http://www.w3.org/1999/xlink" version="1.1" viewBox="0 -246 2048 2048">
  <g transform="matrix(1 0 0 -1 0 1802)">
   <path fill="currentColor"
d="M1360 482q45 99 73 209q69 258 72 657h-166l-20 51h186v533q191 -16 191 -58q0 -23 -78 -51v-418h152l75 101q113 -98 113 -125q0 -12 -14 -21l-45 -31q0 -676 -56 -1023q-24 -159 -149 -193q-46 -12 -74 -12q3 64 -59 92q-56 21 -134 39v53q103 -20 191 -20q94 0 113 92
q57 284 57 997h-170q-3 -415 -78 -674q-101 -358 -404 -583l-33 39q135 124 220 274q-228 -102 -476 -178q-9 -76 -33 -76q-41 0 -81 164q71 14 145 31v1456q66 -35 121 -68h162l70 92q118 -91 118 -123q0 -14 -16 -24l-45 -29v-1198zM987 375q21 6 63 16q85 21 127 33v410
h-190v-459zM987 1688v-369h190v369h-190zM987 1268v-383h190v383h-190zM502 1442h139l61 74q102 -79 102 -107q0 -11 -14 -22l-39 -31v-723h-100v62h-353v-90h-106v749q-31 -44 -96 -121l-39 31q203 301 276 676q177 -19 177 -56q0 -21 -76 -43q-12 -41 -20 -61h137l73 86
q113 -94 113 -119q0 -12 -23 -22l-53 -25q-55 -108 -159 -258zM446 1442q73 164 107 287h-158q-58 -149 -128 -260q30 -12 54 -27h125zM298 1391v-287h126v287h-126zM522 1391v-287h129v287h-129zM651 1053h-129v-307h129v307zM424 1053h-126v-307h126v307zM196 541l49 -8
q25 -123 3 -246q-37 -178 -119 -178q-66 0 -66 59q0 31 29 60q95 104 104 313zM323 531l45 12q90 -159 90 -286q0 -115 -82 -115q-49 0 -49 51q0 18 8 47q10 53 10 111q0 73 -22 180zM467 549l41 23q137 -138 137 -260q0 -78 -66 -78q-47 0 -47 72q-3 123 -65 243zM596 590
l32 31q94 -48 147 -108q44 -50 44 -93q0 -71 -57 -71q-42 0 -56 59q-22 99 -110 182z" />
  </g>

</svg>
