<?xml version="1.0" standalone="no"?>
<!DOCTYPE svg PUBLIC "-//W3C//DTD SVG 1.1//EN" "http://www.w3.org/Graphics/SVG/1.1/DTD/svg11.dtd" >
<svg xmlns="http://www.w3.org/2000/svg" xmlns:xlink="http://www.w3.org/1999/xlink" version="1.1" viewBox="0 -36 256 256">
  <g transform="matrix(1 0 0 -1 0 220)">
   <path fill="currentColor"
d="M152 172h36l10 7l10 -14h-32h-10l-9 -3zM203 139h-36q-10 0 -19 -2l-9 9h64l8 11l14 -15l-9 -4l-30 -44l-12 4zM193 236l-9 -6q16 -26 31 -40t33 -21v-5q-11 0 -15 -8q-11 6 -25.5 24.5t-26.5 42.5q-10 -27 -28 -48t-30 -30l-2 3q18 20 31.5 43.5t21.5 55.5zM151 33h63
v54h-63v-54zM227 35q0 -9 1 -18l-14 -6v15h-63v-14l-14 -5q1 26 1 45.5t-1 50.5l13 -9h62l8 10l14 -12l-7 -7v-50zM89 233l-8 -6v-26h17l10 10l15 -17h-42v-31h20l10 11l15 -18h-86q-13 0 -22 -2l-8 9h24q0 47 -1 62l20 -9l-6 -6v-47h22q0 62 -1 79zM60 148q-5 -4 -8 -13
q14 -7 15.5 -12.5t-3.5 -9.5t-6.5 2.5t-6.5 17.5q-4 -12 -17 -23l-2 1q11 19 15 43zM109 101v-7h-83v7h83zM17 141l20 -9l-7 -7v-87l75 7v98l20 -10l-8 -6v-76q0 -10 1 -22l-13 -4v15q-72 -10 -81 -21l-11 16q4 4 4 11v95zM97 148q-5 -4 -9 -14q13 -9 13 -14.5t-4.5 -7
t-5.5 4.5t-5 14q-6 -11 -17 -23l-2 2q12 21 16 44zM64 84q-6 -4 -10 -12q13 -8 14 -13t-4 -8.5t-6 3t-5 15.5q-7 -12 -19 -24l-2 1q13 23 17 44zM98 83q-5 -3 -9 -12q11 -6 13 -11.5t-3 -9.5t-6 3t-5 16q-7 -11 -19 -25l-2 2q13 21 17 43z" />
  </g>

</svg>
