<?xml version="1.0" standalone="no"?>
<!DOCTYPE svg PUBLIC "-//W3C//DTD SVG 1.1//EN" "http://www.w3.org/Graphics/SVG/1.1/DTD/svg11.dtd" >
<svg xmlns="http://www.w3.org/2000/svg" xmlns:xlink="http://www.w3.org/1999/xlink" version="1.1" viewBox="0 -205 1024 1024">
  <g transform="matrix(1 0 0 -1 0 819)">
   <path fill="currentColor"
d="M352 964q9 -6 6 -6q3 -9 -18 -14q-21 -6 -50 -72h134l28 34q57 -40 60 -44t4 -8t-16 -10q-16 -6 -26 -26q-10 -18 -28 -48t-54 -74q45 -16 70 -34q25 -19 24 -40q-3 -22 -18 -28q-14 -4 -28 8q-12 12 -30 28q-15 12 -54 34q-58 -52 -130 -86t-162 -58l-6 16q96 36 156 72
q57 35 102 76q-84 26 -138 44q18 42 54 120h-92q-35 0 -58 -8l-18 32h176q23 59 44 128l68 -36v0v0zM222 738q49 -10 122 -28q47 48 86 138h-152l-56 -110v0v0zM508 560q67 36 116 66q48 31 78 62q-43 44 -70 92t-44 90h-26l-22 -6l-24 32h326l26 32l58 -50q7 -3 6 -12
l-14 -6q-12 -6 -24 -14q-9 -9 -48 -62q-37 -54 -82 -96q47 -36 76 -50q29 -12 68 -20q39 -6 100 -6v-20q-49 1 -70 -12q-18 -12 -32 -30q-46 17 -88 44q-39 24 -84 64q-44 -34 -88 -58q-43 -22 -130 -56l-8 16v0v0zM618 870q27 -69 112 -156q65 66 110 156h-222v0v0z
M392 220q18 -15 -6 -18q-43 -16 -104 -53q-60 -38 -198 -104l-6 16q96 58 160 105q63 48 96 88l58 -34v0v0zM630 246q77 -24 148 -54q69 -31 94 -53q25 -24 20 -48q-4 -23 -22 -28q-18 -4 -44 28q-28 33 -70 61q-42 30 -132 78l6 16v0v0zM404 518q-48 -25 -96 -56l224 -2
q92 51 148 96l68 -34q6 -6 6 -12t-14 -6q-42 -7 -62 -16q-18 -7 -132 -68q-113 -60 -208 -104q153 6 408 12q-45 30 -108 70l10 12q96 -36 132 -54q34 -18 56 -38q21 -21 24 -38q3 -18 -6 -32q-6 -13 -24 -14t-30 26q-12 24 -36 46l-218 -12v-179q3 -32 -14 -56
q-15 -20 -60 -32q-6 18 -18 32q-13 15 -110 50l6 16q98 -24 122 -22q21 2 22 28v159q-175 -12 -212 -18q-36 -7 -60 -20l-30 66q45 -2 108 12q69 32 204 110q-99 -6 -164 -12q-64 -7 -112 -26l-26 62q41 4 74 14q81 51 148 108q66 -24 72 -30q4 -4 2 -10q-3 -7 -26 -4
q-21 0 -68 -24v0v0z" />
  </g>

</svg>
