<?xml version="1.0" standalone="no"?>
<!DOCTYPE svg PUBLIC "-//W3C//DTD SVG 1.1//EN" "http://www.w3.org/Graphics/SVG/1.1/DTD/svg11.dtd" >
<svg xmlns="http://www.w3.org/2000/svg" xmlns:xlink="http://www.w3.org/1999/xlink" version="1.1" viewBox="0 -246 2048 2048">
  <g transform="matrix(1 0 0 -1 0 1802)">
   <path fill="currentColor"
d="M1114 1113q23 74 33 153q137 -42 137 -77q0 -22 -68 -25q-14 -58 -32 -102q22 -21 53 -56q37 -48 37 -80q0 -53 -47 -53q-33 0 -52 51q-6 21 -28 54q-63 -119 -140 -201l-32 27q69 101 116 239q-63 59 -123 101l23 36q74 -33 123 -67zM848 1363q-21 -24 -45 -45l-43 28
q147 202 206 481q43 -12 128 -53q346 40 602 121q137 -61 137 -101q0 -14 -37 -14q-12 0 -70 8q-306 -45 -657 -71q-80 -189 -176 -303q38 -12 73 -27h775l49 53q123 -92 123 -116q0 -10 -10 -17l-37 -24v-1031q0 -145 -176 -145q-4 59 -52 80q-37 15 -122 30v52
q67 -13 174 -13q67 0 67 62v1018h-354v-1190h-104v1190h-345v-1241h-106v1268zM1110 613q26 91 35 164q135 -43 135 -78q0 -22 -64 -31q-15 -61 -32 -109q23 -18 53 -53q37 -43 37 -76q0 -55 -49 -55q-26 0 -41 35q-13 34 -37 68q-59 -127 -138 -215l-38 26q64 96 118 260
q-51 55 -116 97l22 36q65 -35 115 -69zM1564 652q26 89 35 157q133 -46 133 -80q0 -19 -61 -28q-15 -52 -37 -105q33 -30 49 -51q39 -48 39 -82q0 -53 -47 -53q-31 0 -53 53q-7 21 -27 49q-54 -112 -137 -206l-37 26q63 90 121 250q-53 60 -117 102l21 37q49 -24 118 -69z
M1564 1121q27 94 33 156q131 -43 131 -78q0 -22 -57 -25q-21 -73 -35 -108q39 -40 51 -56q33 -40 33 -76q0 -51 -45 -51q-28 0 -49 51q-10 24 -27 52q-59 -119 -143 -209l-37 27q73 93 125 249q-50 54 -119 101l19 39q52 -27 120 -72zM490 1328v-1233h-109v1233h-258l-21 51
h462l77 98q56 -44 105 -104l-25 -45h-231zM145 267l-51 18q84 305 84 889q168 -9 168 -51q0 -25 -59 -47q-7 -476 -142 -809zM178 1725l-21 51h371l86 117q72 -69 121 -133l-20 -35h-537zM596 349v844q163 -10 163 -49q0 -24 -61 -52v-743h-102zM1343 1425q-63 0 -63 60
l2 36q0 88 -51 173l37 24q145 -105 145 -215q0 -78 -70 -78zM1847 1430q-45 0 -67 45q-61 133 -218 240l33 34q162 -67 242 -139q74 -67 74 -116q0 -64 -64 -64z" />
  </g>

</svg>
