<?xml version="1.0" standalone="no"?>
<!DOCTYPE svg PUBLIC "-//W3C//DTD SVG 1.1//EN" "http://www.w3.org/Graphics/SVG/1.1/DTD/svg11.dtd" >
<svg xmlns="http://www.w3.org/2000/svg" xmlns:xlink="http://www.w3.org/1999/xlink" version="1.1" viewBox="0 -36 256 256">
  <g transform="matrix(1 0 0 -1 0 220)">
   <path fill="currentColor"
d="M96 186q0 26 -1 42l16 -11h91l14 13l17 -20h-123v-149h97l15 14l17 -21h-129l-10 -9l-14 15l10 7v119zM194 166l15 13l16 -20h-82h-35v7h86zM194 114l16 13l16 -20h-83h-35v7h86zM35 239q26 -17 30 -26t-3.5 -20t-10.5 5.5t-18 36.5zM48 153l8 10l15 -13l-8 -7v-83
q15 -16 32 -22.5t62.5 -7.5t90.5 5v-5q-18 -4 -19 -16q-81 0 -107 4.5t-39.5 14t-20.5 17t-18.5 -4t-19.5 -24.5l-15 13q13 11 40 26v85h-10q-10 0 -20 -2l-10 10h39z" />
  </g>

</svg>
