<?xml version="1.0" standalone="no"?>
<!DOCTYPE svg PUBLIC "-//W3C//DTD SVG 1.1//EN" "http://www.w3.org/Graphics/SVG/1.1/DTD/svg11.dtd" >
<svg xmlns="http://www.w3.org/2000/svg" xmlns:xlink="http://www.w3.org/1999/xlink" version="1.1" viewBox="0 -36 256 256">
  <g transform="matrix(1 0 0 -1 0 220)">
   <path fill="currentColor"
d="M94 47q-6 14 -13 25l3 2q28 -27 28 -38t-5.5 -15.5t-7 3t-4.5 18.5q-63 -14 -72 -20l-9 18q7 1 15 12.5t21 46.5h-14q-10 0 -19 -2l-10 9h25q0 105 -1 127l15 -10h39l12 10l15 -17h-67v-32h35l13 11l14 -18h-62v-32h35l13 12l14 -19h-62v-32h48l11 11l14 -18h-62l14 -8
l-8 -6q-19 -30 -32 -45zM191 239l-7 -8v-59l-13 -8v83zM160 206l-8 -5q-17 -25 -39 -44l-2 4q26 33 33 59zM203 194l18 -15l-9 -2q-20 -20 -45 -41h45l7 10l15 -12l-7 -7v-112l-13 -7v13h-62v-7l-13 -6v109q-15 -9 -37 -17l-1 3q22 12 38 26v15l14 -6q36 31 50 56zM152 125
v-23h62v27h-55zM152 95v-28h62v28h-62zM152 60v-32h62v32h-62zM207 222q26 -17 35 -27.5t3.5 -20.5t-12 5t-30.5 40z" />
  </g>

</svg>
