<?xml version="1.0" standalone="no"?>
<!DOCTYPE svg PUBLIC "-//W3C//DTD SVG 1.1//EN" "http://www.w3.org/Graphics/SVG/1.1/DTD/svg11.dtd" >
<svg xmlns="http://www.w3.org/2000/svg" xmlns:xlink="http://www.w3.org/1999/xlink" version="1.1" viewBox="0 -205 1024 1024">
  <g transform="matrix(1 0 0 -1 0 819)">
   <path fill="currentColor"
d="M446 786h144v192l84 -34q3 -3 4 -6q0 -3 -6 -8l-34 -16v-128h132v190l76 -26q8 -2 8 -10q0 -3 -6 -6l-28 -16v-132h58l34 46l54 -52q3 -4 4 -8q3 -12 -8 -12h-142v-172h86l38 52l60 -58q3 -3 4 -8q0 -12 -14 -12h-502q-9 0 -56 -8l-16 34h170v172h-74q-21 0 -48 -8
l-22 34v0v0zM638 588h132v172h-132v-172v0v0zM514 504l58 -46h262l32 40l58 -46q6 -6 6 -8q0 -6 -30 -24v-268l6 -81q0 -12 -18 -24q-15 -7 -38 -8v66h-284v-48q0 -12 -20 -24q-21 -12 -36 -12l4 96v387v0v0zM566 133h284v145h-284v-145v0v0zM566 306h284v124h-284v-124v0v0
zM50 822h174v156l80 -32q9 -4 0 -16l-32 -14v-94h84l34 42l56 -50q3 -3 4 -6q0 -12 -12 -12h-166v-120h58l34 40l48 -46q3 -3 6 -8q0 -12 -12 -12h-134v-120h90l38 44l54 -52q3 -3 6 -8q0 -10 -12 -10h-176v-72q54 -21 94 -48q39 -24 54 -48q12 -21 4 -42q-6 -19 -24 -20
q-15 0 -24 18q-7 18 -26 48q-18 27 -78 70v-273l4 -80q0 -12 -18 -24q-16 -12 -38 -12l4 116v271q-30 -66 -74 -144q-42 -79 -120 -155l-10 10q69 100 118 209q48 107 66 176h-102q-21 0 -44 -8l-16 34h182v120h-74q-21 0 -56 -8l-16 34h146v120h-102q-21 0 -56 -8l-16 34v0
v0z" />
  </g>

</svg>
