<?xml version="1.0" standalone="no"?>
<!DOCTYPE svg PUBLIC "-//W3C//DTD SVG 1.1//EN" "http://www.w3.org/Graphics/SVG/1.1/DTD/svg11.dtd" >
<svg xmlns="http://www.w3.org/2000/svg" xmlns:xlink="http://www.w3.org/1999/xlink" version="1.1" viewBox="0 -205 1024 1024">
  <g transform="matrix(1 0 0 -1 0 819)">
   <path fill="currentColor"
d="M70 774h144v206l82 -28q8 -4 10 -10q1 -5 -40 -22v-146h98l30 40l54 -38q9 -3 10 -12q0 -3 -32 -30v-222h12l28 40l42 -48q3 -4 4 -4q0 -15 -12 -14h-242l-8 -58q63 -61 102 -106q40 -45 62 -86q21 -40 18 -76q-3 -34 -20 -41q-18 -7 -30 0q-12 9 -14 31q-1 23 -16 68
q-13 45 -44 90q-29 45 -64 90q-12 -74 -66 -190q-53 -114 -130 -183l-12 12q62 79 110 199q46 119 62 250h-104q-21 0 -56 -8l-16 34h178q3 129 4 228v8h-76q-18 0 -42 -8l-26 34v0v0zM264 748v-8q2 -135 -4 -228h114v236h-110v0v0zM534 900l58 -46h34q17 48 44 130l70 -32
q22 -8 12 -16q-42 -3 -60 -30q-17 -25 -40 -52h186l30 38l58 -44q6 -4 6 -8q0 -7 -36 -28v-170l4 -62q-3 -16 -18 -28q-15 -9 -38 -12v42h-260v-80h304l38 52l60 -64q6 -15 -8 -14h-394v-78h324l28 32l58 -44q12 -7 -2 -16l-28 -20q-5 -82 -10 -136q-4 -53 -10 -91
q-6 -39 -26 -66q-19 -24 -58 -42q-11 46 -46 58q-33 12 -90 32l6 14q63 -14 94 -16q30 0 46 6q14 6 20 30q3 22 10 67q3 44 12 164h-328q0 -25 -14 -34q-13 -9 -40 -14l4 108v470v0v0zM584 610h260v92h-260v-92v0v0zM584 732h260v94h-260v-94v0v0zM678 334l12 8
q65 -55 80 -82q12 -26 10 -46q-3 -18 -14 -26q-12 -10 -26 -4q-15 3 -18 28q0 23 -6 44t-38 78v0v0zM776 342l10 10q66 -40 84 -70q18 -28 16 -50q-4 -20 -16 -28q-12 -9 -24 -2q-11 6 -16 24q-3 19 -12 44q-6 24 -42 72v0v0zM520 296h22q6 -105 -6 -138q-9 -30 -26 -45
q-15 -14 -36 -14q-22 1 -28 22q-7 18 14 33q18 12 34 34q14 21 26 108v0v0zM578 316l14 8q59 -63 68 -92q9 -27 4 -48q-3 -18 -18 -26q-13 -9 -26 -2t-14 26v50q-1 30 -28 84v0v0z" />
  </g>

</svg>
