<?xml version="1.0" standalone="no"?>
<!DOCTYPE svg PUBLIC "-//W3C//DTD SVG 1.1//EN" "http://www.w3.org/Graphics/SVG/1.1/DTD/svg11.dtd" >
<svg xmlns="http://www.w3.org/2000/svg" xmlns:xlink="http://www.w3.org/1999/xlink" version="1.1" viewBox="0 -205 1024 1024">
  <g transform="matrix(1 0 0 -1 0 819)">
   <path fill="currentColor"
d="M704 820h164l42 48l62 -54q3 0 4 -6q0 -12 -12 -12h-226v-100h92l28 34l50 -34q7 -6 8 -12q0 -6 -26 -24v-92h36l26 40l52 -50q3 -1 4 -4q0 -12 -12 -12h-106v-92l4 -70q0 -16 -14 -28q-13 -9 -40 -12v52h-90q48 -98 88 -142q40 -43 80 -70q40 -26 92 -34v-17
q-33 0 -50 -6q-16 -6 -40 -28q-33 28 -60 57q-27 31 -56 74q-27 42 -66 138v-231l4 -72q0 -14 -20 -26q-18 -11 -36 -14l4 112v259h-108v-265l4 -70q0 -14 -20 -26q-18 -11 -36 -14l4 116v181q-41 -73 -106 -142q-64 -68 -142 -127l-12 12q75 72 132 147q57 73 118 188h-68
q-24 0 -48 -6l-24 32h150v124h-92q-21 0 -50 -8l-22 34h164v104h-96q-21 0 -36 -6l-24 30h156v100h-106q-21 -1 -50 -10l-22 34h318q57 92 84 164l70 -36q4 -9 0 -12t-16 -6t-36 -26q-21 -21 -72 -84v0v0zM690 696v100h-108v-100h108v0v0zM582 672v-104h108v104h-108v0v0z
M738 672v-104h102v104h-102v0v0zM582 542v-124h108v124h-108v0v0zM738 542v-124h102v124h-102v0v0zM460 964l6 14q69 -28 102 -50q30 -22 36 -44q6 -20 -6 -34q-11 -15 -28 -12q-18 0 -24 24q-6 20 -24 44q-18 23 -62 58v0v0zM172 974l78 -34q13 -6 -4 -18l-26 -14v-620
l72 18v460l78 -30q3 -2 4 -10q0 -4 -36 -20v-396l4 -76q0 -12 -14 -24q-15 -13 -36 -14v88q-127 -38 -166 -58q-37 -21 -58 -42l-40 54q21 12 24 30v506l74 -32q7 -3 8 -8q-3 -5 -36 -22v-456l74 22v696v0v0z" />
  </g>

</svg>
