<?xml version="1.0" standalone="no"?>
<!DOCTYPE svg PUBLIC "-//W3C//DTD SVG 1.1//EN" "http://www.w3.org/Graphics/SVG/1.1/DTD/svg11.dtd" >
<svg xmlns="http://www.w3.org/2000/svg" xmlns:xlink="http://www.w3.org/1999/xlink" version="1.1" viewBox="0 -205 1024 1024">
  <g transform="matrix(1 0 0 -1 0 819)">
   <path fill="currentColor"
d="M802 624q-25 0 -92 -12v-44l94 8l20 28l52 -26q7 -4 8 -10q0 -3 -8 -8l-166 -16v-50l156 14l20 26l40 -24q10 -6 8 -14q0 -3 -12 -8l-212 -18v-24q0 -25 34 -26h156q39 3 48 30q6 29 10 86h18q0 -49 4 -70q2 -21 22 -36q-12 -30 -30 -38q-15 -9 -50 -12h-182q-25 0 -40 6
q-15 4 -26 20q-12 14 -12 44v18l-156 -12q-18 -6 -32 -14l-32 34l220 16v46l-134 -12q-18 -6 -32 -12l-26 32l192 16v46q-88 -9 -182 -20l-4 16q113 22 200 38q84 15 144 30q50 -30 50 -36q1 -7 -4 -8t-22 -2q-15 0 -42 -2v0v0zM382 652q-31 -4 -110 -16v-52l74 8l20 30
l46 -28q7 -4 8 -10q0 -3 -8 -8l-140 -14v-58l98 10l22 32l44 -28q12 -6 10 -14q0 -3 -12 -6l-162 -18v-58l150 44l10 -16q-96 -42 -132 -60t-66 -48l-42 54l32 24v54l-132 -16q-18 -3 -32 -12l-26 30l190 22v60l-110 -12l-28 -12l-26 30l164 18v44q-60 -7 -170 -20l-4 18
q88 16 188 38q99 21 162 48q45 -42 46 -48q1 -3 -4 -6q-4 -2 -16 0q-12 1 -44 -4v0v0zM674 942q-93 -6 -162 -18v-48l194 14l24 30l50 -32q7 -4 8 -10q0 -3 -8 -8l-268 -18v-56l260 18l36 44l58 -42q12 -7 10 -16q-10 -4 -22 -4l-342 -26v-28q0 -22 36 -20h318q42 0 46 42
l8 102h18l4 -62q0 -42 36 -62q-24 -60 -84 -60h-352q-27 -1 -54 8q-25 9 -26 30v46l-276 -22q-18 -4 -32 -16l-44 38l352 26v54l-252 -18q-18 -3 -32 -12l-24 34l308 22v50q-238 -19 -328 -26l-2 16q239 28 338 44q95 14 290 44q57 -36 58 -42q3 -7 -8 -10q-21 2 -32 2
q-10 0 -104 -8v0v0zM60 310h430v100l78 -24q8 -3 8 -6q4 -3 0 -8l-34 -16v-46h318l38 44l64 -52q3 -3 4 -8q0 -10 -14 -10h-360q71 -66 122 -96q51 -31 114 -47q65 -18 164 -24v-22q-27 1 -48 -4q-20 -6 -46 -36q-57 13 -114 44q-58 31 -110 69q-51 38 -110 116h-22v-145
l4 -72q0 -14 -20 -26q-20 -14 -40 -14l4 114v139h-12q-82 -78 -172 -133t-248 -104l-6 14q134 61 212 111q75 47 150 116h-272q-21 0 -66 -8l-16 34v0v0z" />
  </g>

</svg>
