<?xml version="1.0" standalone="no"?>
<!DOCTYPE svg PUBLIC "-//W3C//DTD SVG 1.1//EN" "http://www.w3.org/Graphics/SVG/1.1/DTD/svg11.dtd" >
<svg xmlns="http://www.w3.org/2000/svg" xmlns:xlink="http://www.w3.org/1999/xlink" version="1.1" viewBox="0 -36 256 256">
  <g transform="matrix(1 0 0 -1 0 220)">
   <path fill="currentColor"
d="M217 222l12 12l15 -19h-62v-47q53 -21 56 -31t0.5 -19t-13 6t-43.5 38v-86q0 -21 1 -33l-16 -9q1 20 1 39v142h-19q-10 0 -19 -2l-10 9h97zM73 197q0 30 -1 50l22 -9l-7 -8v-33h15l14 11l15 -18h-44v-40h27l15 12l16 -19h-64l16 -9l-6 -8v-26h17l13 11l16 -18h-46v-48
q26 -14 67 -16t90 5v-4q-15 -8 -16 -16q-22 -1 -63.5 0.5t-70 14t-49.5 34.5q-9 -33 -39 -56l-2 3q20 25 27 54.5t5 57.5l22 -10l-6 -6q-2 -17 -5 -34q14 -13 26 -20v45v23l-1 23h-33q-11 0 -20 -2l-9 9h59v40h-14q-10 0 -20 -2l-9 9h43z" />
  </g>

</svg>
