<?xml version="1.0" standalone="no"?>
<!DOCTYPE svg PUBLIC "-//W3C//DTD SVG 1.1//EN" "http://www.w3.org/Graphics/SVG/1.1/DTD/svg11.dtd" >
<svg xmlns="http://www.w3.org/2000/svg" xmlns:xlink="http://www.w3.org/1999/xlink" version="1.1" viewBox="0 -36 256 256">
  <g transform="matrix(1 0 0 -1 0 220)">
   <path fill="currentColor"
d="M124.5 199.5q5.5 -9.5 -1.5 -18t-9 0t-4 12.5q-52 -8 -62 -16l-9 16q7 3 18 16.5t23 36.5l16 -13q-9 -4 -17.5 -14t-23.5 -25l53 4q-3 8 -12 20l2 3q21 -13 26.5 -22.5zM33 174h190l9 11l16 -16q-13 -3 -32 -27l-3 2l11 23h-191q1 -13 -1.5 -18.5t-8 -8.5t-11.5 0t3 14
t12 32h5zM184 236q-8 -5 -16.5 -15t-22.5 -25l51 4q-5 11 -13 20l3 3q18 -11 26 -19.5t1.5 -18.5t-9.5 -2.5t-6 12.5q-46 -8 -58 -16l-9 16q18 11 36 53zM120 136h-54q-11 0 -21 -2l-9 9h84q0 12 -1 24l23 -9l-7 -7v-8h50l13 12l16 -19h-79v-15h56l9 10l14 -14l-8 -7v-13
q0 -13 1 -29l-16 -5v6h-56v-17h81l17 12l15 -19h-113q0 -17 1 -32l-17 -6q1 20 1 38h-80q-11 0 -20 -2l-10 9h110v17h-56v-3l-16 -6q1 15 1 21v23q0 12 -1 26l16 -9h56v15zM64 98h56v16h-56v-16zM191 98v16h-56v-16h56zM135 91v-15h56v15h-56zM64 76h56v15h-56v-15z" />
  </g>

</svg>
