<?xml version="1.0" standalone="no"?>
<!DOCTYPE svg PUBLIC "-//W3C//DTD SVG 1.1//EN" "http://www.w3.org/Graphics/SVG/1.1/DTD/svg11.dtd" >
<svg xmlns="http://www.w3.org/2000/svg" xmlns:xlink="http://www.w3.org/1999/xlink" version="1.1" viewBox="0 -36 256 256">
  <g transform="matrix(1 0 0 -1 0 220)">
   <path fill="currentColor"
d="M47 153.5q0 16.5 -1 40.5l17 -6h135l6 10l16 -10l-6 -9q0 -35 1 -54l-16 -5v8h-137v-4l-16 -5q1 18 1 34.5zM62 162h61v19h-61v-19zM136 162h63v19h-63v-19zM62 135h61v20h-61v-20zM136 135h63v20h-63v-20zM136 94v-30h55v30h-54h-1v0zM68 64h54v30h-54v-30zM122 57h-54
v-8l-14 -5v64l15 -7h53v25l22 -7l-8 -7v-11h54l6 10l16 -10l-7 -9v-35l-14 -5v5h-55v-28l64 3q-14 10 -28 17l2 3q45 -13 54.5 -21.5t6.5 -18t-10.5 -1.5t-17.5 16q-168 -17 -176 -20l-11 18q26 0 102 3v29zM128 213h-39q0 -6 1 -15l-16 -6q1 11 1 21h-23q-15 0 -27 -2l-9 9
h59q0 18 -1 27l23 -7l-8 -6v-14h13l12 9zM131 221h35q0 15 -1 26l23 -8l-8 -6v-12h36l13 10l14 -17h-63q0 -5 1 -15l-16 -5q1 16 1 20h-8q-8 1 -18 -3z" />
  </g>

</svg>
