<?xml version="1.0" standalone="no"?>
<!DOCTYPE svg PUBLIC "-//W3C//DTD SVG 1.1//EN" "http://www.w3.org/Graphics/SVG/1.1/DTD/svg11.dtd" >
<svg xmlns="http://www.w3.org/2000/svg" xmlns:xlink="http://www.w3.org/1999/xlink" version="1.1" viewBox="0 -200 1000 1000">
  <g transform="matrix(1 0 0 -1 0 800)">
   <path fill="currentColor"
d="M438 586h-124v-97h43l44 33l47 -56h-134v-178q19 26 38 61q19 39 45 96l51 -50l-30 -21l-104 -110v-37l147 30l3 -13l-38 -12q-109 -34 -137 -44q-73 -25 -123 -48l-37 57q53 3 141 26v243h-44q-43 0 -70 -7l-30 30h144v97h-27q-16 0 -34 -7l-20 17q-13 -16 -14 -17
q-24 -27 -23 -26q-20 -23 -36 -38l-11 7q112 180 178 390l65 -34l-24 -16l-11 -26l-9 -18q63 -24 101 -42q34 -16 34 -45q0 -19 -7 -30q-7 -13 -14 -13q-5 0 -14 11l-25 27l-35 38q-22 22 -47 40q-54 -124 -97 -194h144l41 34zM645 595l-3 159l44 -37l84 114h-171
q-46 0 -73 -10l-34 34h282l27 30l56 -51q-37 -16 -72 -48l-92 -86q0 -45 12 -83q7 -25 25 -77q67 70 97 130l51 -51q-37 -12 -144 -93q15 -35 33 -64q19 -33 39 -59q18 -26 43 -48q24 -21 45 -28v-13q-46 -7 -63 -33q-102 112 -145 326v-330q0 -57 -53 -74q-7 44 -84 64v14
q15 -3 45 -5l29 -2q23 0 23 23q0 222 -1 298zM562 593h-30l-37 -11l-34 34h101l20 31l51 -37l-21 -17q-21 -83 -37 -128q-17 -49 -38 -88q-19 -36 -44 -62q-24 -27 -55 -55l-10 10l30 41q71 109 104 282zM142 418q38 -31 69 -62q28 -29 28 -53q0 -7 -3 -15q-4 -10 -7 -15
q-4 -7 -10 -13q-5 -5 -10 -5q-6 0 -12 14q-7 14 -15 36l-20 49q-12 27 -27 54zM827 217l64 -68h-359q-42 0 -74 -9l-34 33h359z" />
  </g>

</svg>
