<?xml version="1.0" standalone="no"?>
<!DOCTYPE svg PUBLIC "-//W3C//DTD SVG 1.1//EN" "http://www.w3.org/Graphics/SVG/1.1/DTD/svg11.dtd" >
<svg xmlns="http://www.w3.org/2000/svg" xmlns:xlink="http://www.w3.org/1999/xlink" version="1.1" viewBox="0 -205 1024 1024">
  <g transform="matrix(1 0 0 -1 0 819)">
   <path fill="currentColor"
d="M218 950l62 -44q6 -3 6 -8q0 -6 -12 -8q-19 -2 -184 -256l158 10q32 57 58 118l62 -44q6 -3 0 -8q-1 -3 -10 -6q-21 -8 -42 -40q-112 -162 -190 -254l206 38l2 -18q-189 -59 -224 -82l-44 64q26 3 46 24q11 12 44 60q32 45 80 126q-66 -13 -102 -22q-37 -7 -58 -26
l-44 58q41 14 62 58q81 122 124 260v0v0v0zM356 280l6 -20q-229 -87 -248 -96q-15 -11 -30 -25l-38 65l310 76v0v0zM344 788h130v192l74 -30q14 -7 14 -10q0 -6 -38 -24v-128h52l28 42l52 -52l6 -6q0 -12 -12 -12h-126v-168h66l30 42l48 -50q3 -3 4 -6q0 -12 -12 -12h-136
q1 -130 -4 -170h76l32 42l48 -50q3 -3 4 -6q0 -12 -12 -12h-150q-5 -112 -64 -196q-60 -80 -204 -157l-8 16q137 93 182 173q42 80 46 164h-54q-21 0 -62 -8l-16 34h134l2 66v104h-30q-21 -1 -68 -10l-16 36h114v168h-50q-32 -1 -64 -10l-16 38v0v0zM908 920l56 -46
q6 -6 6 -14q-3 -6 -18 -14q-14 -6 -22 -30q-30 -85 -90 -214q71 -60 112 -120q36 -63 36 -110q3 -63 -30 -102q-25 -42 -94 -56q-4 30 -22 40q-18 8 -68 26l2 18q44 -9 88 -14q41 -4 62 28q19 33 8 90q-12 57 -42 100q-31 41 -74 92l70 260h-132v-688l4 -93q0 -14 -20 -26
q-18 -12 -36 -12l4 137v748l50 -38h124l26 38v0v0z" />
  </g>

</svg>
