<?xml version="1.0" standalone="no"?>
<!DOCTYPE svg PUBLIC "-//W3C//DTD SVG 1.1//EN" "http://www.w3.org/Graphics/SVG/1.1/DTD/svg11.dtd" >
<svg xmlns="http://www.w3.org/2000/svg" xmlns:xlink="http://www.w3.org/1999/xlink" version="1.1" viewBox="0 -36 256 256">
  <g transform="matrix(1 0 0 -1 0 220)">
   <path fill="currentColor"
d="M160 140h40v16h-40v-16zM212 168v-20q0 -7 1 -14l-13 -4v3h-40v-16h32l13 9l15 -16h-60v-19h48l15 10l16 -17h-138q-10 0 -19 -2l-8 9h73v19h-32q-9 0 -18 -2l-9 9h59v16h-40v-1l-14 -5q1 16 1 32.5t-1 32.5l16 -5h38v13h-34q-13 0 -22 -2l-9 9h65v18q-36 -3 -54 -3v5
q38 4 60 7.5t48 10.5l13 -15q-8 -1 -54 -5v-18h46l13 10l15 -17h-74v-13h38l8 8l13 -11l-7 -5v-11zM107 164h40v16h-40v-16zM107 140h40v16h-40v-16zM160 164h40v16h-40v-16zM20 188l-3 3q10 9 23.5 22.5t21.5 29.5l18 -11l-10 -4q-24 -24 -50 -40zM66 179v-98l-14 -7
q1 18 1 31v57q-20 -18 -37 -27l-2 3q16 13 31 31.5t28 41.5l18 -15l-10 -2q-6 -7 -15 -15zM46 67q0 -25 -4.5 -32.5t-11.5 -10t-14 1t6.5 11.5t19.5 30h4zM107 83q23 -10 29.5 -16.5t4.5 -13.5t-5.5 -9t-8.5 9.5t-21 26.5zM206 70q21 -11 29 -19t7 -14t-6 -9.5t-10 9
t-22 30.5zM75 66l22 -9l-8 -6v-12q0 -10 17 -10h52q17 0 19 9t2 21h4q1 -15 4 -20.5t11 -8.5q-9 -12 -31 -12h-65q-26 -2 -26 14q0 20 -1 34z" />
  </g>

</svg>
