<?xml version="1.0" standalone="no"?>
<!DOCTYPE svg PUBLIC "-//W3C//DTD SVG 1.1//EN" "http://www.w3.org/Graphics/SVG/1.1/DTD/svg11.dtd" >
<svg xmlns="http://www.w3.org/2000/svg" xmlns:xlink="http://www.w3.org/1999/xlink" version="1.1" viewBox="0 -36 256 256">
  <g transform="matrix(1 0 0 -1 0 220)">
   <path fill="currentColor"
d="M184 109h34v22h-34v-22zM139 225.5q-7 -8.5 -16 -17.5q27 -15 26 -24t-6 -10t-7.5 7.5t-18.5 25.5q13 19 18 40l17 -10q-6 -3 -13 -11.5zM187.5 184.5q-0.5 -8.5 -5 -11.5t-8 7t-18.5 27q12 19 20 39l17 -10q-8 -4 -15 -12t-15 -17q25 -14 24.5 -22.5zM232.5 185
q-0.5 -9 -5 -10t-9.5 8t-22 24q15 22 22 39l17 -10q-8 -4 -15 -11.5t-18 -17.5q31 -13 30.5 -22zM125 138.5q0 20.5 -1 34.5l15 -9h78l8 9l14 -14l-9 -5v-23q0 -19 1 -29l-13 -7v7h-34v-19h35l12 11l17 -18h-56q9 -13 26 -27.5t30 -16.5v-4q-14 -2 -17 -10q-6 4 -19 18
t-28 40v-34q0 -14 1 -28l-14 -7q1 25 1 64q-12 -17 -27.5 -31t-44.5 -27l-3 3q39 23 63 60h-19q-13 0 -22 -3l-10 10h63v19h-34v-5l-14 -6q1 27 1 47.5zM138 138h34v19h-34v-19zM184 138h34v19h-34v-19zM138 109h34v22h-34v-22zM110 28l-13 -6v10h-67v-11l-13 -9
q1 48 1 103.5t-1 71.5l13 -10h15v41h-8q-10 0 -18 -2l-10 9h85l12 10l14 -17h-36v-41h12l8 11l12 -13l-7 -6v-109q0 -23 1 -32zM56 177h17v41h-17v-41zM73 124v46h-17q0 -22 -3.5 -39.5t-21.5 -36.5l-2 2q11 19 13.5 35.5t2.5 38.5h-15v-89h67v30h-11q-13 0 -13 13zM84 131
q0 -10 4.5 -10h8.5v49h-13v-39zM97 74h-67v-35h67v35z" />
  </g>

</svg>
