<?xml version="1.0" standalone="no"?>
<!DOCTYPE svg PUBLIC "-//W3C//DTD SVG 1.1//EN" "http://www.w3.org/Graphics/SVG/1.1/DTD/svg11.dtd" >
<svg xmlns="http://www.w3.org/2000/svg" xmlns:xlink="http://www.w3.org/1999/xlink" version="1.1" viewBox="0 -154 1024 1024">
  <g transform="matrix(1 0 0 -1 0 870)">
   <path fill="currentColor"
d="M213 1004l74 -36q11 -11 1 -17q-18 -1 -37 -11q-24 -35 -48 -63h132l37 39l50 -47q14 -12 -6 -17l-18 -9v-73l5 -63q0 -30 -49 -36v20h-225v-101h238l37 39l50 -47q14 -12 -6 -17l-18 -9v-101l5 -55q0 -30 -49 -36v38h-108v-115h73l33 46l74 -52q3 -2 4 -3h231v43
q2 25 -24 48l8 11l45 -21l106 92h-270q-19 1 -35 -12l-33 32h339l31 28l51 -47q13 -12 -20 -12q-13 -1 -45 -22t-55 -37q-21 -18 -47 -32l15 -7q19 -8 7 -14q-18 -5 -31 -16v-34h170l32 40l68 -50q17 -10 -6 -10h-264v-152q-1 -34 -15 -53q-13 -19 -79 -35q-3 31 -26 42
q-22 10 -81 22l4 18l34 -8q127 -36 121 46v120h-168q-27 1 -45 -13l-23 22h-10h-169v-157l2 -57q0 -38 -53 -44q5 37 7 114v144h-122q-27 1 -45 -13l-34 33h201v115h-105v-16q1 -38 -51 -44q5 26 7 125v397q-3 24 -22 54l17 13l38 -54h53l42 97q0 10 -8 23zM516 779l39 -36
h270l35 39l44 -43q14 -16 -6 -17l-18 -9v-114l3 -33q-4 -22 -41 -25v42h-281v-13q4 -38 -45 -44q5 37 7 64v140q2 16 -19 37zM386 570h-257v-148h257v148zM561 603h281v120h-281v-120zM129 857v-146h225v146h-225zM434 852h439l32 40l68 -50q17 -10 -6 -10h-454
q-27 1 -45 -13zM603 994l4 13q75 -34 101 -73q28 -55 -11 -63q-19 0 -22 23t-19 47t-53 53z" />
  </g>

</svg>
