<?xml version="1.0" standalone="no"?>
<!DOCTYPE svg PUBLIC "-//W3C//DTD SVG 1.1//EN" "http://www.w3.org/Graphics/SVG/1.1/DTD/svg11.dtd" >
<svg xmlns="http://www.w3.org/2000/svg" xmlns:xlink="http://www.w3.org/1999/xlink" version="1.1" viewBox="0 -52 256 256">
  <g transform="matrix(1 0 0 -1 0 204)">
   <path fill="currentColor"
d="M170 156q0 6 -6 11l2 3l21 -9q3 -1 3 -2q1 -1 -1 -2q-4 -1 -8 -4v-22h47l6 9l15 -12q5 -2 -1 -2h-67v-95q0 -9 -4 -13q-1 -4 -21 -9q0 8 -6 10q-6 3 -22 7l1 4l11 -2q32 -9 30 11v87h-44q-6 0 -11 -4l-9 9h64v25zM115 232l1 3q32 -10 62 -31q4 4 10 11l9 9q15 18 15 20
q0 3 -1 5l2 2l16 -12q2 -2 1 -2q0 -1 -2 -1q-3 0 -8 -2q-13 -17 -34 -35q24 -16 32 -25q18 -18 7 -25q-4 -2 -14 13q-9 14 -31 30q-3 -2 -6 -5q-28 -26 -60 -40l-1 4q22 15 46 35q6 6 13 12q-27 19 -57 34zM193 103l2 3q35 -21 47 -46q7 -20 -5 -21q-4 -1 -6 10t-11 25
q-9 15 -27 29zM140 109l16 -10q4 -3 1 -4q-3 1 -7 -2q-25 -40 -48 -57l-3 2q16 18 29 39q12 21 12 24q0 1 -1 5q1 -2 -1 2zM7 91l-3 3q27 25 39 43q3 5 6 8v10q-2 7 -5 10l4 3l9 -10q1 2 3 5q1 3 2 4q6 12 12 28h-49q-7 0 -9 -4l-8 9h64l7 9l16 -12q2 -1 2 -2t-2 -1
q-6 -1 -7 -3q-3 -2 -7 -11q-6 -10 -12 -22q-4 -6 -9 -13v-19l6 -3q1 -1 2 -1l10 15q11 15 11 19t-2 7l2 2l19 -13l2 -1q0 -1 -2 -2q-4 1 -10 -2q-3 -3 -10 -11l-15 -15l6 -3q3 -1 8 -4q7 -6 10 -12q3 -7 2 -11q-1 -5 -6 -5q-4 -1 -6 7t-7 15q-5 6 -20 13v-77l1 -23
q0 -5 -4 -7q-3 -3 -10 -4q1 4 1 23q1 14 1 23v74q-12 -15 -42 -39zM28 247l1 3q22 -6 28 -11q6 -4 9 -9t2 -10q-2 -4 -5 -6q-4 -1 -6 5q-1 6 -6 13q-5 6 -23 15z" />
  </g>

</svg>
