<?xml version="1.0" standalone="no"?>
<!DOCTYPE svg PUBLIC "-//W3C//DTD SVG 1.1//EN" "http://www.w3.org/Graphics/SVG/1.1/DTD/svg11.dtd" >
<svg xmlns="http://www.w3.org/2000/svg" xmlns:xlink="http://www.w3.org/1999/xlink" version="1.1" viewBox="0 -205 1024 1024">
  <g transform="matrix(1 0 0 -1 0 819)">
   <path fill="currentColor"
d="M951 440q12 -15 12 -22q0 -10 -26 -12q0 -168 -2 -197q-8 -108 -82 -129l-38 -10q-8 -2 -12 -2q-8 0 -8 8q0 2 1 5v6q0 16 -14 24l-58 35l3 7l72 -26q13 -4 25 -4q59 0 67 95q3 35 3 210h-129q-4 -124 -57 -221.5t-181 -140.5l-8 8q112 48 155 140t47 214h-112v20h112
q0 106 -2 158l49 -14q28 -7 28 -16q0 -10 -31 -20v-108h122l14 20q9 10 10.5 10t16.5 -15zM640 201l-342 -92q-4 -37 -15 -37q-10 0 -21 25l-15 45l71 11v393l-4 40l56 -30h157l16 17q12 14 13.5 14t10.5 -11l25 -29q12 -14 12 -21q0 -10 -25 -9v-315l61 13v-14zM536 430
v105h-175v-105h175zM536 283v126h-175v-126h175zM536 195v109h-175v-144zM222 947q22 -5 22 -14q0 -11 -34 -24v-754q0 -18 2 -35t2 -18q0 -9 -25 -23q-14 -8 -19 -8q-6 0 -6 13q0 5 1 23.5t1 34.5l-5 818zM123 747q9 -134 -12 -211q-16 -38 -29 -38q-15 0 -20 46
q-3 28 8 44q18 31 21 42q14 40 18 117h14zM314 659q-9 -27 -19 -26q-12 0 -21 34q-14 65 -56 145l10 6q54 -62 71 -84q19 -26 18 -48q0 -11 -3 -27zM876 887q14 -14 14 -20q0 -9 -28 -12v-231q-2 -5 -24 -12q-12 -3 -15 -3q-5 0 -6 5q-1 4 0 19v16h-378v-25q-3 -7 -24 -11
q-11 -4 -15 -4q-5 0 -6 6q-1 4 0 20q1 23 1 38v204l-2 41l41 -25h375l15 20q9 10 11 10q3 0 17 -13zM818 873h-379v-92h379v92zM818 759h-379v-90h379v90z" />
  </g>

</svg>
