<?xml version="1.0" standalone="no"?>
<!DOCTYPE svg PUBLIC "-//W3C//DTD SVG 1.1//EN" "http://www.w3.org/Graphics/SVG/1.1/DTD/svg11.dtd" >
<svg xmlns="http://www.w3.org/2000/svg" xmlns:xlink="http://www.w3.org/1999/xlink" version="1.1" viewBox="0 -204 1024 1024">
  <g transform="matrix(1 0 0 -1 0 820)">
   <path fill="currentColor"
d="M593 751v120l-69 -1q-50 0 -85 -3l-21 42q14 -4 53 -7l51 -4h343l46 46l53 -45q16 -14 12 -22q-3 -6 -11 -6h-182v-120h90l24 34l34 -23q14 -9 18 -14t5 -11.5t-4 -12.5l-11 -7l-13 -8v-121l13 -11q7 -7 9 -10t1 -7q-3 -10 -11 -10h-155v-117h88l30 38l42 -27
q11 -7 15.5 -12.5t4.5 -12t-5 -12.5q-5 -5 -33 -18v-193q0 -20 0.5 -39t1 -33.5t2.5 -33.5q-1 -28 -32 -27q-21 0 -21 16v5h-370v-1q0 -8 -5 -13t-19 -5q-19 -1 -23 7.5t-5 14t1 23.5q1 9 1 16v9q0 3 1 17t1 33v223l-2 30l-2 32l57 -37h82v116l-101 -1q-11 -9 -31 -7
q-8 0 -10 3.5t-2 9.5v230l53 -33h91zM593 723h-99v-146h99v146zM783 578h96v145h-96v-145zM638 433h100v438h-100v-438zM506 112h159v131h-159v-131zM713 112h163v131h-163v-131zM506 273h159v131h-159v-131zM713 404v-131h163v131h-163zM148 584l24 -17h114l31 36l36 -24
q11 -9 15.5 -14t4.5 -10q-1 -6 -5.5 -11.5t-29.5 -17.5v-366l15 -10q11 -9 11.5 -16t-4.5 -10t-7 -3h-187v-7q1 -9 -2 -14.5t-14.5 -9t-20.5 -0.5q-13 3 -14 14q-1 0 0.5 7.5t0.5 24.5l2 30v29l2 321q-16 -30 -31.5 -57.5t-47.5 -71.5l-14 10q23 43 36.5 76t34.5 89.5
t32.5 96.5t20 76.5t12.5 62.5l6 39l-31 -1q-65 -3 -78 -4l-19 44q42 -10 93 -10h149l45 44l57 -47q5 -4 7 -7.5t1 -9.5q-3 -9 -13 -9l-158 -1q-7 -25 -10 -38l-15 -64q-6 -25 -19 -66t-30 -84zM166 150h125v389h-125v-389z" />
  </g>

</svg>
