<?xml version="1.0" standalone="no"?>
<!DOCTYPE svg PUBLIC "-//W3C//DTD SVG 1.1//EN" "http://www.w3.org/Graphics/SVG/1.1/DTD/svg11.dtd" >
<svg xmlns="http://www.w3.org/2000/svg" xmlns:xlink="http://www.w3.org/1999/xlink" version="1.1" viewBox="0 -339 2048 2048">
  <g transform="matrix(1 0 0 -1 0 1709)">
   <path fill="currentColor"
d="M1218 465q58 35 95 58q102 64 202 157q42 38 67 70q14 16 36 47l117 -85q20 -14 22 -29q1 -8 -4 -15q-8 -10 -26 -13q-5 -1 -9 0l-64 5q-93 -66 -132 -91q-70 -43 -167 -92q-44 -22 -98 -44q88 -67 200 -115q107 -46 211 -69q73 -16 194 -29q40 -5 104 -9v-36
q-28 -4 -42 -8q-37 -10 -56 -35q-11 -13 -20 -45q-132 30 -255 72q-114 39 -186 76q-118 61 -224 168q-42 43 -77 89q-14 19 -39 54q-15 -43 -27.5 -69t-32.5 -54q-71 -101 -208 -176q-132 -72 -373 -120q-76 -15 -211 -36l-8 43q143 27 216 46q161 41 285 104
q125 64 186 137q66 79 86 190q8 45 12 113q2 31 2 54q0 27 -8 116l155 -27q24 -5 34 -17q6 -7 6 -13q0 -10 -7 -18q-9 -11 -22 -16l-52 -21q-4 -97 -15 -170q58 -74 92 -108q15 -16 41 -39zM1094 1745h595l99 102l121 -107q13 -12 15 -17q1 -4 1 -9q0 -10 -6 -17
q-8 -10 -21 -10h-1590v-542q0 -91 -5 -239q-3 -69 -14 -194q-13 -135 -32 -222q-31 -143 -84 -255q-23 -47 -49 -88q-11 -16 -31 -46l-25 23q30 66 48 119q59 184 77 414q15 204 16 495l1 660l109 -67h748q-18 14 -22 22q-1 1 -10 33q-8 28 -39 62q-20 22 -70 64l20 23
q72 -35 87 -43q98 -54 98 -109q0 -13 -6 -25q-6 -13 -31 -27zM1441 1360v136q-77 -10 -129 -13q-20 -1 -131 -6l-6 38q27 5 107 17q70 11 158 35q83 22 171 60q39 17 89 48l95 -71q20 -15 24 -21t4 -13q0 -9 -8 -15t-25 -6q-8 0 -12 1l-55 7q-77 -21 -102 -27
q-32 -8 -86 -18v-152h205l80 82l114 -86q16 -13 16 -26q0 -10 -5 -17q-8 -10 -21 -10h-389v-41q97 -32 155 -57q121 -53 182 -102q57 -45 57 -91q0 -20 -12 -33q-13 -16 -33 -16q-12 0 -24 7q-11 6 -41 46q-24 33 -76 77q-50 42 -119 79q-33 17 -89 40l1 -71q1 -48 7 -139
q1 -28 1 -67q0 -23 -5 -34q-5 -9 -20 -15q-14 -6 -32 -6q-26 0 -37 12q-8 8 -8 28v263q-106 -85 -122 -97q-72 -54 -158 -101q-41 -23 -76 -38q-18 -8 -55 -22l-14 32q44 26 68 42t56 40q101 76 163 141q40 43 99 123h-53q-85 0 -172 -9q-8 0 -21 -3l-37 91q29 -7 51 -11
q68 -11 185 -11h85zM666 1349v122q-69 -12 -135 -16q-64 -4 -140 -4l-3 37q199 26 305 60q77 24 149 61q26 14 67 42l88 -65q19 -14 26 -23q4 -6 4 -13q0 -11 -11 -17q-6 -3 -17 -3t-19 1l-46 5q-71 -22 -96 -29q-31 -9 -80 -19v-139h134l82 82l112 -86q17 -13 17 -26
q0 -10 -7 -17q-8 -10 -20 -10h-319v-33q102 -39 128 -50q82 -36 124 -76q30 -28 30 -59q0 -16 -10 -30q-12 -17 -34 -17q-13 0 -27 9q-7 5 -47 54q-23 28 -65 62q-25 19 -70 47l-17 11q-6 3 -11 7v-97l3 -92l2 -61q4 -44 4 -54q0 -23 -11 -35q-6 -7 -16 -10q-14 -6 -29 -6
q-26 0 -38 12q-4 4 -5 8q-2 7 -2 30v250q-38 -42 -61 -62q-28 -25 -76 -61q-54 -42 -115 -78q-26 -16 -77 -45l-21 33q56 38 84 62q45 37 94 89q47 49 92 114q17 24 53 78h-45q-120 0 -193 -10l-37 89q30 -7 51 -11q68 -11 185 -11h66zM436 762q85 -34 136 -59
q78 -39 138 -84q31 -22 48.5 -40.5t30.5 -40.5q10 -18 10 -40q0 -29 -21 -44q-14 -10 -32 -10q-11 0 -21 5q-13 6 -31 35q-31 48 -86 104q-36 37 -74 64q-31 21 -62 43q-36 25 -55 39z" />
  </g>

</svg>
