<?xml version="1.0" standalone="no"?>
<!DOCTYPE svg PUBLIC "-//W3C//DTD SVG 1.1//EN" "http://www.w3.org/Graphics/SVG/1.1/DTD/svg11.dtd" >
<svg xmlns="http://www.w3.org/2000/svg" xmlns:xlink="http://www.w3.org/1999/xlink" version="1.1" viewBox="0 -36 256 256">
  <g transform="matrix(1 0 0 -1 0 220)">
   <path fill="currentColor"
d="M36 130.5q-6 -13.5 -14.5 -15.5t-11 5t10 20.5t16.5 44.5h4q1 -41 -5 -54.5zM52 242l23 -13l-8 -7v-167q0 -22 1 -37l-16 -9q1 36 1 57v124q0 29 -1 52zM97 173.5q6 -9.5 4 -17.5t-8 -8.5t-8 13t-11 33.5l3 2q14 -13 20 -22.5zM175 190q22 -10 35.5 -18t16.5 -15.5t0 -14
t-17 7t-43 30.5q-30 -30 -70 -51l-3 3q37 28 60 53q-22 12 -54 27l1 4q33 -9 61 -21q19 25 28 47l22 -17l-11 -3q-9 -11 -26 -32zM155 158l25 -11l-10 -7v-36h48l13 13l16 -20h-77v-25q0 -36 1 -58l-16 -5q1 29 1 69v19h-43q-10 0 -19 -2l-9 9h71q0 45 -1 54z" />
  </g>

</svg>
