<?xml version="1.0" standalone="no"?>
<!DOCTYPE svg PUBLIC "-//W3C//DTD SVG 1.1//EN" "http://www.w3.org/Graphics/SVG/1.1/DTD/svg11.dtd" >
<svg xmlns="http://www.w3.org/2000/svg" xmlns:xlink="http://www.w3.org/1999/xlink" version="1.1" viewBox="0 -36 256 256">
  <g transform="matrix(1 0 0 -1 0 220)">
   <path fill="currentColor"
d="M133 214h43q-1 10 -17 29l2 3q21 -8 27 -15.5t-4 -16.5h42l9 10l14 -16q-7 0 -31 -19l-3 2l10 16h-92q-1 -10 -5 -16t-13 -4.5t-5.5 6t10 12t9.5 20.5h4v-11zM184 195q-6 -1 -16 -16h53l11 10l16 -17h-30q-11 -15 -23 -26q31 -8 36.5 -11.5t4.5 -12.5t-7.5 -4.5t-17 9.5
t-24.5 10q-31 -18 -75 -20l-1 4q47 8 62 22q-14 4 -38 8q5 5 15 21h-14q-8 0 -19 -2l-10 9h47q12 19 12 27zM150 155q10 -2 33 -6q12 10 19 23h-38q-7 -7 -14 -17zM168 130l21 -8l-6 -6v-12h36l14 9l15 -16h-65v-21h29l14 10l15 -17h-93q-11 0 -21 -2l-11 9h53v21h-29
q-11 0 -22 -2l-10 9h61q0 6 -1 26zM131 35.5q0 14.5 -1 28.5l15 -7h65l8 9l14 -12l-6 -5v-23q0 -4 1 -14l-16 -5v8h-66v-4l-15 -4q1 14 1 28.5zM145 22h66v28h-66v-28zM45 172h47v29h-47v-29zM45 138h47v27h-47v-27zM45 102h47v29h-47v-29zM83 236q-9 -3 -20 -28h28l7 11
l13 -12l-6 -6v-168q1 -18 -20 -26q0 13 -24 21v4q19 -2 25 -2t6 7v58q-14 -26 -36.5 -48t-46.5 -34l-1 3q50 42 67 79h-35q-11 0 -21 -2l-10 9h22q0 93 -1 115l15 -9h12q6 23 9 39z" />
  </g>

</svg>
