<?xml version="1.0" standalone="no"?>
<!DOCTYPE svg PUBLIC "-//W3C//DTD SVG 1.1//EN" "http://www.w3.org/Graphics/SVG/1.1/DTD/svg11.dtd" >
<svg xmlns="http://www.w3.org/2000/svg" xmlns:xlink="http://www.w3.org/1999/xlink" version="1.1" viewBox="0 -154 1024 1024">
  <g transform="matrix(1 0 0 -1 0 870)">
   <path fill="currentColor"
d="M523 314q27 -61 36 -94q9 -32 6 -58t-12 -36q-10 -11 -21 -2q-10 9 -6 34q6 27 6 53q-1 29 -21 98zM587 354q40 -42 58 -71q17 -30 24 -59q7 -28 -2 -46t-20 -16q-13 2 -13 35q-2 32 -11 62q-9 29 -44 86zM471 284q-1 -57 -5 -97q-4 -42 -17 -67q-13 -24 -31 -35
q-19 -9 -27 7q-9 17 10 35q18 18 31 41q15 23 25 116h14zM189 885q0 -86 -1 -153h58v153h-57zM160 651v61h-68v-273q63 79 68 212zM329 492h12v220h-69v-156q0 -51 21 -57q20 -7 36 -7zM657 778h148v153q1 15 -23 42l7 11l77 -34q13 -7 1 -11q-16 -6 -25 -18v-143h72l29 39
l52 -49q14 -10 -6 -10h-147v-196h67l30 39l50 -49q14 -10 -5 -10h-242q-25 0 -42 -13l-32 33h137v196h-75q-24 0 -42 -13zM92 324v-145h249v145h-249zM663 754q11 -9 0 -15q-12 4 -25 -11q-68 -148 -172 -300l154 21v2q-10 30 -51 75l8 12q59 -41 77 -76q17 -36 15 -65
q-3 -31 -19 -31q-16 -2 -17 27q-3 19 -7 39l-113 -25q-32 -7 -44 -13q-10 -4 -24 -19l-32 54q17 1 39 21q54 88 101 181q4 9 8 16q-23 -5 -44 -9q-25 -7 -42 -14q-16 -7 -33 -25l-30 54q21 6 29 13q7 8 19 32q14 23 51 104q38 78 51 127q2 16 -8 31l9 7l63 -42
q10 -10 -2 -12q-20 1 -27 -8q-64 -137 -129 -244l103 9q29 60 34 82q3 19 -8 27l8 10zM916 394h-174v-251h174v251zM280 468q-31 15 -34 68v176h-58q0 -22 -1 -40q3 -182 -95 -254v-78h249v124h-1q-24 -2 -60 4zM701 454l33 -40h166l29 29l39 -31q12 -12 -6 -17l-13 -15
v-229l3 -59q-2 -18 -10 -25q-9 -6 -26 -8v64h-174v-39q0 -21 -9 -30q-8 -9 -32 -14q4 38 7 110v251q2 15 -18 37zM58 759l25 -27h77q1 63 1 153h-78q-19 0 -37 -13l-34 33h322l28 36l64 -46q15 -10 -6 -10h-148v-153h56l23 27l42 -33q12 -11 -6 -17l-14 -11v-449l5 -138
q-1 -18 -12 -24q-10 -6 -25 -12v84h-249v-78q0 -21 -9 -30t-30 -14q4 37 7 148v533q-3 24 -14 30z" />
  </g>

</svg>
