<?xml version="1.0" standalone="no"?>
<!DOCTYPE svg PUBLIC "-//W3C//DTD SVG 1.1//EN" "http://www.w3.org/Graphics/SVG/1.1/DTD/svg11.dtd" >
<svg xmlns="http://www.w3.org/2000/svg" xmlns:xlink="http://www.w3.org/1999/xlink" version="1.1" viewBox="0 -205 1024 1024">
  <g transform="matrix(1 0 0 -1 0 819)">
   <path fill="currentColor"
d="M592 852l52 -36q12 -6 12 -14q-1 -3 -34 -26v-210l4 -106q3 -21 -12 -30q-13 -7 -40 -10v34h-144v-242l126 76q-12 33 -54 94l14 8q87 -79 106 -118q19 -37 18 -58q0 -21 -12 -32q-10 -12 -28 -8q-15 2 -18 34q-2 30 -16 58q-75 -48 -114 -84q-40 -36 -68 -69l-50 55
q26 17 46 34v658l60 -42h126l26 34v0v0zM430 792v-146h144v146h-144v0v0zM430 620v-140h144v140h-144v0v0zM428 982l10 10q60 -40 84 -70q21 -30 18 -50q-4 -21 -14 -30q-10 -7 -26 -4q-16 2 -20 26q-3 21 -8 46q-4 24 -44 72v0v0zM694 934l58 -46h136l30 38l50 -42
q9 -6 10 -12q-1 -6 -34 -24v-698q3 -41 -8 -67q-8 -26 -58 -44q-4 26 -26 40q-22 16 -86 34l6 18q65 -15 86 -18q18 -1 30 6q12 6 10 31v278h-158q-6 -97 -18 -154q-10 -56 -38 -112q-27 -52 -110 -137l-12 10q78 105 96 153q14 45 26 148q12 102 10 216v382v0v0zM898 454
v190h-156v-190h156v0v0zM742 670h156v192h-156v-192v0v0zM28 670h146v296l84 -30q3 -7 4 -10l-8 -6l-30 -20v-230h48l36 48l48 -54q3 -4 4 -10q1 -12 -10 -12h-126v-308l136 50l10 -16q-225 -114 -252 -132q-24 -16 -50 -44l-48 64l154 58v328h-82q-7 0 -46 -8l-18 36v0v0z
" />
  </g>

</svg>
