<?xml version="1.0" standalone="no"?>
<!DOCTYPE svg PUBLIC "-//W3C//DTD SVG 1.1//EN" "http://www.w3.org/Graphics/SVG/1.1/DTD/svg11.dtd" >
<svg xmlns="http://www.w3.org/2000/svg" xmlns:xlink="http://www.w3.org/1999/xlink" version="1.1" viewBox="0 -205 1024 1024">
  <g transform="matrix(1 0 0 -1 0 819)">
   <path fill="currentColor"
d="M52 832h266v160l78 -32q7 -2 8 -10q0 -3 -6 -6l-32 -14v-98h156l38 48l62 -58q6 -4 6 -10q0 -7 -14 -8h-248v-380q54 -19 102 -46q47 -25 80 -52q30 -27 40 -54q9 -28 4 -46q-6 -18 -24 -20q-15 -1 -26 14q-12 15 -24 46q-13 27 -44 60q-30 30 -108 78v-244l4 -97
q3 -12 -18 -28q-18 -15 -38 -16l4 149v252q-39 -69 -96 -134q-57 -63 -86 -92q-31 -27 -88 -73l-10 14q45 47 76 81q29 33 80 100q51 63 124 202v286h-192q-21 0 -56 -8l-18 36v0v0zM72 450q53 116 110 304l64 -32q6 -6 4 -14q-14 -3 -22 -6q-9 -4 -18 -22q-10 -19 -20 -52
q51 -35 70 -58t18 -40q-3 -18 -12 -26q-8 -7 -22 -4q-14 2 -16 22t-10 38t-40 54q-52 -113 -94 -172l-12 8v0v0zM388 486q36 60 106 264l62 -32q6 -6 4 -14q-14 -3 -22 -6t-16 -18q-9 -15 -30 -62q49 -30 80 -60q30 -27 28 -48q-1 -21 -10 -32q-8 -10 -22 -8q-15 3 -20 24
q-3 21 -24 54q-18 32 -42 58q-27 -63 -78 -128l-16 8v0v0zM898 930l68 -56q7 -7 8 -16q-3 -6 -20 -12q-21 -9 -36 -30q-41 -91 -88 -212q68 -66 112 -134q42 -66 42 -126q1 -58 -34 -100q-36 -41 -108 -70q-7 26 -28 46q-19 20 -86 38l4 20q75 -18 114 -20q38 -4 64 26
q24 30 22 84q-4 51 -40 112q-35 57 -94 120l78 258h-176v-692l4 -103q0 -12 -20 -24q-21 -12 -38 -12l4 139v772l66 -54h150l32 46v0v0z" />
  </g>

</svg>
