<?xml version="1.0" standalone="no"?>
<!DOCTYPE svg PUBLIC "-//W3C//DTD SVG 1.1//EN" "http://www.w3.org/Graphics/SVG/1.1/DTD/svg11.dtd" >
<svg xmlns="http://www.w3.org/2000/svg" xmlns:xlink="http://www.w3.org/1999/xlink" version="1.1" viewBox="0 -36 256 256">
  <g transform="matrix(1 0 0 -1 0 220)">
   <path fill="currentColor"
d="M52 179h52v16h-52v-16zM52 202h51l7 7l14 -10l-6 -4v-11l1 -11l-15 -5v4h-52v-4l-15 -3q1 11 1 21.5t-1 21.5zM194 234.5q7 -3.5 6 -7.5t-5.5 -6.5t-9.5 4.5t-20 17l1 1q21 -5 28 -8.5zM234 171q-2 -23 8 -37q-36 3 -73 27q-17 -11 -42 -21l-3 4q22 11 37 24
q-13 15 -22 45h-97q-11 1 -19 -2l-9 9h122q-4 17 -6 26l23 -6l-7 -6l4 -14h60l13 11l16 -18h-87q6 -22 19 -36q7 7 13 15.5t10 18.5l18 -11l-9 -4q-8 -12 -23 -27q15 -11 44 -19l6 21h4zM138 166v-5q-110 -16 -118 -20l-9 17q13 -2 127 8zM41 102.5q0 22.5 -1 38.5l16 -6h35
q8 11 11 21l19 -8q-10 -4 -21 -13h88l8 9l15 -12l-7 -5v-18l1 -10l-15 -4v3h-134v-8h160l13 11l18 -18h-191v-10h159l9 7l16 -13l-9 -3q-5 -18 -8.5 -28.5t-10 -17.5t-25.5 -10q-2 7 -8 9.5t-22 3.5v5q33 -2 39.5 0.5t8.5 5.5t5.5 12.5t5.5 21.5h-160v-3l-16 -3q1 20 1 42.5
zM190 128h-134v-8h134v8zM190 113h-134v-8h134v8zM185.5 51q3.5 -5 2 -10t-6.5 -6.5t-6.5 4t-5.5 12t-11 12.5l3 2q21 -9 24.5 -14zM93 40q1 -7 -3 -11t-7.5 -3.5t-4 5t-3.5 11t-9 16.5l2 2q24 -13 25 -20zM141 46.5q4 -5.5 1 -10.5t-7.5 -6.5t-7 7t-6.5 13.5l-8 10l3 2
q21 -10 25 -15.5zM28 24q-10 -7 -15.5 -1.5t-1 8.5t10.5 7.5t12 19.5h4q0 -27 -10 -34z" />
  </g>

</svg>
