<?xml version="1.0" standalone="no"?>
<!DOCTYPE svg PUBLIC "-//W3C//DTD SVG 1.1//EN" "http://www.w3.org/Graphics/SVG/1.1/DTD/svg11.dtd" >
<svg xmlns="http://www.w3.org/2000/svg" xmlns:xlink="http://www.w3.org/1999/xlink" version="1.1" viewBox="0 -205 1024 1024">
  <g transform="matrix(1 0 0 -1 0 819)">
   <path fill="currentColor"
d="M472 930l54 -36h292l38 38l54 -48q6 -3 6 -6q-1 -6 -34 -30v-522l4 -86q-1 -13 -16 -26q-14 -9 -40 -12v94h-306v-76q1 -13 -16 -26q-17 -12 -40 -12l4 154v594v0v0zM524 322h128v264h-128v-264v0v0zM702 322h128v264h-128v-264v0v0zM524 610h128v258h-128v-258v0v0z
M702 868v-258h128v258h-128v0v0zM32 886h316l36 40l60 -48q10 -6 8 -18q2 -1 -16 -8q-25 -9 -34 -18q-7 -7 -64 -128q-57 -120 -108 -242q-52 -124 -70 -184q-19 -61 -22 -94q-4 -34 8 -47t30 -20q17 -5 56 -8h634q30 4 40 10q11 7 22 21q12 16 12 176h20q4 -84 8 -108
q3 -24 10 -42q6 -17 28 -28q-12 -27 -30 -45q-18 -15 -42 -24q-25 -7 -56 -8h-636q-66 0 -92 8q-24 9 -42 26q-17 16 -22 40q-7 20 -4 51q2 30 26 102t76 192q51 120 168 376h-246q-17 0 -46 -12l-28 40v0v0z" />
  </g>

</svg>
