<?xml version="1.0" standalone="no"?>
<!DOCTYPE svg PUBLIC "-//W3C//DTD SVG 1.1//EN" "http://www.w3.org/Graphics/SVG/1.1/DTD/svg11.dtd" >
<svg xmlns="http://www.w3.org/2000/svg" xmlns:xlink="http://www.w3.org/1999/xlink" version="1.1" viewBox="0 -205 1024 1024">
  <g transform="matrix(1 0 0 -1 0 819)">
   <path fill="currentColor"
d="M412 946l54 -38h110l26 30l54 -40q6 -6 6 -8q0 -6 -26 -24v-240l4 -70q0 -13 -18 -22q-17 -9 -34 -12v26h-128v-4q1 -8 -16 -16q-18 -6 -36 -8l4 84v342v0v0zM460 574h128v84h-128v-84v0v0zM460 684h128v86h-128v-86v0v0zM460 796h128v86h-128v-86v0v0zM700 940l50 -38
h120l26 30l54 -40q6 -6 6 -8q0 -6 -26 -24v-240l4 -70q0 -13 -18 -22q-17 -9 -34 -12v28h-134v-4q0 -10 -18 -16q-16 -7 -34 -10l4 84v342v0v0zM748 570h134v86h-134v-86v0v0zM748 682h134v84h-134v-84v0v0zM748 792h134v84h-134v-84v0v0zM624 376q-17 0 -34 -38h324l36 36
q51 -45 54 -50q1 -12 -12 -12h-166q-33 -73 -86 -134q71 -28 110 -47q36 -18 54 -40q18 -18 16 -40q-3 -21 -18 -24t-36 20q-20 22 -46 46q-26 22 -106 59q-85 -64 -172 -89q-88 -22 -202 -36l-2 18q117 24 192 50q75 27 138 75q-84 32 -186 64q15 27 42 78h-94
q-25 0 -56 -8l-18 34h180q18 36 46 88q59 -31 62 -38q0 -4 -2 -8q0 -1 -18 -4v0v0zM532 244q57 -18 160 -50q47 45 82 118h-200l-42 -68v0v0zM828 506l6 10q54 -27 78 -44q25 -16 32 -40q9 -21 -2 -36q-8 -13 -22 -10q-12 0 -18 18t-18 42q-13 21 -56 60v0v0zM332 376
q75 78 132 150l46 -32q6 -5 4 -10q-1 -6 -16 -6q-15 1 -48 -28q-33 -30 -108 -86l-10 12v0v0zM654 394q59 56 100 124l46 -28q7 -6 6 -12q-2 -6 -16 -6q-15 0 -42 -24q-26 -25 -82 -64l-12 10v0v0zM538 516l8 10q51 -19 78 -38q29 -18 34 -36q6 -16 -2 -28q-7 -10 -22 -10
q-13 0 -22 18q-6 17 -20 34q-12 16 -54 50v0v0zM76 782l44 -32h64v220l70 -30q8 -3 8 -6q3 -7 -6 -10l-26 -12v-162h56l22 30l48 -32q3 -3 4 -12q1 -3 -22 -18v-194l4 -82q3 -12 -14 -24q-18 -13 -36 -14v30h-62v-230l88 20q-16 44 -40 80l10 10q57 -51 76 -84
q18 -29 18 -52q0 -24 -12 -32t-26 -4q-12 2 -14 20q-1 15 -8 42q-135 -43 -180 -62q-43 -15 -62 -39l-42 59l146 32v240h-62v-22q-1 -12 -16 -24q-16 -12 -34 -12l4 126v280v0v0zM122 462h62v260h-62v-260v0v0zM230 722v-260h62v260h-62v0v0z" />
  </g>

</svg>
