<?xml version="1.0" standalone="no"?>
<!DOCTYPE svg PUBLIC "-//W3C//DTD SVG 1.1//EN" "http://www.w3.org/Graphics/SVG/1.1/DTD/svg11.dtd" >
<svg xmlns="http://www.w3.org/2000/svg" xmlns:xlink="http://www.w3.org/1999/xlink" version="1.1" viewBox="0 -36 256 256">
  <g transform="matrix(1 0 0 -1 0 220)">
   <path fill="currentColor"
d="M44.5 181q3.5 -9 -2 -17.5t-9.5 6.5t-19 37l2 2q25 -19 28.5 -28zM55 240l20 -8l-7 -8v-59q22 28 31 51l14 -11q-5 -5 -16.5 -17t-28.5 -29v-17h15l13 11l16 -18h-31v-83l31 23l2 -4q-10 -11 -21.5 -21t-16.5 -22l-12 14q5 6 5 18v75h-18q1 -39 -6.5 -69.5t-33.5 -54.5
l-2 3q20 27 25.5 57t4.5 64q-12 0 -19 -3l-10 10h46v69q0 11 -1 29zM195.5 79.5q5.5 12.5 9.5 30.5l15 -11q-7 -4 -23 -33q6 0 22 2q-2 8 -5 18l3 1q11 -13 14 -21.5t-2 -12.5t-6.5 -2t-2.5 12q-21 -6 -26 -11l-9 14q5 1 10.5 13.5zM184 124v-88q0 -13 12 -13h29
q6 1 7.5 13.5t2.5 30.5h4q0 -16 1.5 -28t7.5 -14q-6 -13 -18 -13h-39q-19 -1 -19 21v91h12zM132 169h31v33h-31v-33zM176 169h32v33h-32v-33zM132 128h31v34h-31v-34zM176 128h32v34h-32v-34zM156 209h50l7 9l15 -12l-7 -6q0 -67 1 -83l-14 -7v11h-43q-6 -36 -22.5 -65
t-50.5 -48l-2 3q26 20 40 45t22 65h-20v-8l-13 -7q1 31 1 61t-1 50l13 -8h19q9 27 9 38l16 -11q-8 -4 -20 -27z" />
  </g>

</svg>
