<?xml version="1.0" standalone="no"?>
<!DOCTYPE svg PUBLIC "-//W3C//DTD SVG 1.1//EN" "http://www.w3.org/Graphics/SVG/1.1/DTD/svg11.dtd" >
<svg xmlns="http://www.w3.org/2000/svg" xmlns:xlink="http://www.w3.org/1999/xlink" version="1.1" viewBox="0 -150 1000 1000">
  <g transform="matrix(1 0 0 -1 0 850)">
   <path fill="currentColor"
d="M470 167h132v286h-132v-286zM763 170h139v287h-139v-287zM176 559v-324h135v324h-135zM554 645h252v247h-252v-247zM429 508l32 -35h126l33 36l42 -44q6 -6 4.5 -10.5t-10.5 -6.5l-17 -9v-215l6 -125q1 -32 -43 -31v79h-132v-70q3 -35 -45 -43q5 36 7 145v281
q-3 21 -17 37zM721 512l33 -35h134l32 36l42 -44q7 -6 5.5 -10.5t-11.5 -6.5l-17 -9v-230l6 -118q0 -30 -43 -30v85h-139v-65q4 -37 -45 -43q5 60 6 141v281q-3 21 -16 37zM509 944l33 -32h249l37 35l42 -44q7 -5 5 -9.5t-11 -6.5l-16 -9v-165l6 -126q0 -30 -48 -30v68h-252
v-38q3 -35 -49 -43q5 36 7 145v208q-3 21 -17 37zM134 625l14 -18q41 121 53 233h-71q-25 1 -42 -13l-32 33h269l29 39l60 -45q10 -8 7.5 -11.5t-17.5 -2.5h-161q-21 -138 -69 -260v-1h126l27 33l46 -42q6 -5 4.5 -9.5t-10.5 -6.5l-17 -9v-258l4 -87q8 -40 -43 -43v58h-135
v-59q3 -37 -46 -45q5 38 7 108v280q-40 -75 -99 -133l-9 8q66 94 106 198q-4 23 -15 41z" />
  </g>

</svg>
