<?xml version="1.0" standalone="no"?>
<!DOCTYPE svg PUBLIC "-//W3C//DTD SVG 1.1//EN" "http://www.w3.org/Graphics/SVG/1.1/DTD/svg11.dtd" >
<svg xmlns="http://www.w3.org/2000/svg" xmlns:xlink="http://www.w3.org/1999/xlink" version="1.1" viewBox="0 -205 1048 1024">
  <g transform="matrix(1 0 0 -1 0 819)">
   <path fill="currentColor"
d="M419 814l55 -45q12 -7 8 -13q-4 -5 -19 -5h-178l-65 -4l-14 24l65 -3h113zM498 719l49 -33q13 -9 10 -17q-2 -5 -22 -19v-87v-15q1 -11 -3 -14q-4 -5 -22 -12q-17 -6 -22 -3q-2 2 -1 15l2 16h-274l1 -16q2 -12 -1 -16q-4 -6 -24 -14t-24 -4q-3 4 0 21q1 9 2 15q1 10 1 19
v110l-4 55l55 -34h252zM215 668v-102h273v102h-273zM383 936q16 -6 17 -14q0 -7 -16 -10q51 -52 115 -90q69 -41 141 -56v-12q-26 -6 -38 -13q-19 -10 -25 -26q-58 29 -120 91q-45 43 -96 106q-60 -63 -140 -122q-74 -54 -133 -83l-3 10q57 37 119 96q74 69 129 147z
M269 512l50 -37q13 -9 10 -17q-3 -5 -22 -13v-283q0 -35 -22 -55q-22 -18 -63 -24q1 12 -2 21q-3 13 -13 18q-9 6 -27 12q-11 4 -39 12l-12 3l5 11l94 -19q23 -2 31 6q8 7 9 30v126q-42 -48 -97 -94q-57 -47 -104 -73l-5 11q40 31 92 83q47 49 114 129v88q-40 -50 -95 -100
q-58 -52 -111 -83l-5 10q41 34 87 85q52 59 79 108h-83l-57 -4l-16 20l60 -1h117zM552 513l46 -38q13 -9 9 -17q-3 -5 -22 -13v-253q0 -35 -23 -54q-21 -18 -62 -25v1q1 14 -1 22q-3 13 -14 17l-59 26l4 11l76 -18q22 -2 31 6q8 7 9 30v95q-42 -44 -114 -95
q-59 -43 -108 -70l-7 8q50 37 108 89q70 64 121 122v90q-47 -52 -102 -97q-62 -52 -117 -82l-8 6q41 29 92 83q45 48 92 110h-95l-48 -4l-17 20l49 -1h130zM616 403q52 70 96 149q46 83 101 205l45 -24q27 -14 22 -24q-6 -8 -41 -5l-2 -5l-3 -5q60 -41 102 -89
q44 -48 49 -78q-1 -30 -15 -38q-15 -8 -31 23q-11 35 -43 83q-31 46 -68 89q-58 -101 -103 -165q-49 -70 -100 -121zM610 684q35 50 70 114q32 64 66 143l44 -25q24 -13 21 -18q-4 -6 -43 -12q-26 -51 -69 -110q-40 -56 -81 -101zM862 935q53 -27 88 -64q37 -36 37 -63
q-7 -27 -22 -30q-15 -4 -23 19q-11 31 -31 60q-21 37 -55 70zM697 446l51 -28h131l27 28l40 -32q25 -16 12 -26q-8 -6 -24 -6v-207v-19q2 -17 -2 -23q-2 -10 -19 -16q-17 -5 -20 1q-3 5 -2 21l1 9h-146l-1 -30q1 -20 -2 -26q-3 -8 -15 -14q-18 -7 -25 0q-4 5 -3 23l2 11v264
zM746 166h146v236h-146v-236z" />
  </g>

</svg>
