<?xml version="1.0" standalone="no"?>
<!DOCTYPE svg PUBLIC "-//W3C//DTD SVG 1.1//EN" "http://www.w3.org/Graphics/SVG/1.1/DTD/svg11.dtd" >
<svg xmlns="http://www.w3.org/2000/svg" xmlns:xlink="http://www.w3.org/1999/xlink" version="1.1" viewBox="0 -205 1024 1024">
  <g transform="matrix(1 0 0 -1 0 819)">
   <path fill="currentColor"
d="M274 992q81 -25 84 -32q4 -6 0 -8q-4 -3 -34 -18v-170h122v144q81 -30 84 -36t0 -8q-2 -4 -34 -16v-66l4 -40q3 -23 -18 -34q-18 -10 -36 -10v40h-290l-30 -30l-56 46q33 20 34 32v130l80 -28q7 -4 8 -10q0 -5 -38 -22v-92h120v228v0v0zM48 636h402l34 42l60 -48
q3 -3 4 -8q0 -12 -12 -12h-410q-21 0 -62 -8l-16 34v0v0zM116 560l60 -38h246l26 34l62 -40q6 -6 6 -8q0 -7 -32 -28v-82l4 -56q1 -15 -18 -26q-18 -13 -38 -10v34h-262v-10q0 -14 -20 -22q-19 -8 -38 -6l4 72v186v0v0zM170 366h262v128h-262v-128v0v0zM446 270
q11 -7 -4 -16q-19 0 -32 -24l-64 -97l186 39l2 -18q-312 -75 -360 -93q-48 -14 -84 -44l-40 66l272 50q26 67 62 169l62 -32v0v0zM164 288l10 10q66 -51 78 -80q12 -30 6 -48t-18 -24q-10 -4 -22 2q-13 6 -16 48q-3 43 -38 92v0v0zM696 784v198l76 -30q7 -2 8 -10
q-3 0 -6 -6l-28 -16v-136h130l34 44l50 -52q3 -3 4 -6q3 -12 -8 -12h-210v-186h88l34 36l58 -46q3 -1 4 -8q0 -4 -12 -10q-21 -9 -26 -36q-31 -94 -64 -160q-33 -65 -72 -118q52 -60 104 -90q50 -29 80 -37q30 -7 66 -14v-18q-37 3 -56 -6q-17 -7 -34 -26q-48 27 -92 66
q-45 36 -92 93q-37 -42 -110 -93q-73 -50 -190 -88l-6 16q98 43 166 94q68 48 112 105q-46 69 -70 136q-24 63 -44 178h-16l-22 -8l-22 34h166v186v26v0v0zM616 546q27 -113 48 -166q20 -52 64 -118q32 45 68 126q35 80 50 158h-230v0v0z" />
  </g>

</svg>
