<?xml version="1.0" standalone="no"?>
<!DOCTYPE svg PUBLIC "-//W3C//DTD SVG 1.1//EN" "http://www.w3.org/Graphics/SVG/1.1/DTD/svg11.dtd" >
<svg xmlns="http://www.w3.org/2000/svg" xmlns:xlink="http://www.w3.org/1999/xlink" version="1.1" viewBox="0 0 2048 2048">
  <g transform="matrix(1 0 0 -1 0 2048)">
   <path fill="currentColor"
d="M821 189l23 -5q8 -1 12 -1l42 -5q32 -5 41 -4l40 1v552q-2 54 -5 78t-7 44l-3 14l122 -88h627l61 73l72 -49q18 -13 29 -24t13 -22t-8 -23q-4 -5 -30 -19l-27 -14l-1 -490l60 42l78 -74q29 -28 30 -35q1 -8 -5 -17q-3 -4 -7 -7q-4 -2 -10 -2h-1013q-3 0 -16 -2t-32 -3
t-27 -2l-25 -3l-36 79q-10 -21 -21 -31q-12 -11 -30 -10q-17 2 -30 14q-12 11 -18 53q-7 42 -12 61q-6 19 -14 43l-4 11l-50 -33l-71 -45q-34 -21 -65 -37t-139 -67l-59 -28q-6 -22 -8 -38q-3 -16 -10 -24t-16 -8q-8 -1 -16 8q-7 8 -14 24l-63 121l14 4v914l-6 109l-2 45
l116 -68h368l61 72l73 -50q15 -11 27 -23t14 -22q2 -11 -8 -23q-3 -3 -30 -19l-27 -15v-324q0 -12 3 -55q3 -42 5 -62q2 -21 2 -31q-2 -19 -11 -32q-10 -13 -45 -17q-22 -3 -35 4q-13 8 -13 20l-1 32h-395v-429q39 10 73 20q35 10 104 36l117 45q48 20 59 26l29 13
q-7 10 -17 28q-9 18 -14 27l-32 48l-44 64l28 25q7 -8 24 -23l32 -30q14 -13 44 -44q29 -30 50 -56q21 -27 44 -66q22 -38 32 -76t6 -59zM684 716v186h-395v-186h395zM684 1144h-395v-182h395v182zM1576 175h153v540h-153v-540zM1326 175h153v540h-153v-540zM1074 175h156
v540h-156v-540zM1105 1662h618l86 97l131 -103q17 -14 16 -26q-2 -13 -10 -20q-7 -8 -30 -8h-842q-37 -68 -52 -93q-16 -25 -43 -65t-36 -52l-47 -63l-36 25l38 67q18 32 34 65q17 33 38 84q21 50 34 86q12 36 22 74q11 37 22 84q10 48 15 75l7 42l126 -42q32 -11 48 -23
q15 -12 16 -26q0 -14 -14 -23t-37 -10l-46 -3q-21 -56 -25 -65zM312 1457q31 -5 50 -7q20 -2 55 -4t53 -2h102l81 81l114 -86q8 -7 13 -15q6 -7 2 -19q-4 -11 -12 -15q-7 -3 -14 -3h-286q-27 0 -58 -3q-31 -2 -41 -3t-25 -2l-24 -3l-28 61l-52 -53l-34 -34l-46 -39l-52 -45
l-52 -42l-22 31l52 52l58 63q34 37 69 82q35 44 68 94q33 49 59 94q26 46 46 88q20 41 32 74q12 32 28 85l10 33l130 -48q23 -9 34 -18q10 -9 10 -20q-1 -14 -13 -22t-31 -9l-40 -4l92 -45q41 -21 82 -46q41 -26 73 -54q32 -27 56 -56t31 -66q8 -37 -10 -56q-19 -20 -40 -18
q-20 2 -32 15q-13 13 -26 38q-14 25 -29 48t-38 51t-48 50q-25 23 -63 52q-37 29 -49 37l-27 17l-32 -59q-15 -26 -40 -67t-52 -78t-52 -67zM1771 986h-628v-24q0 -3 -3 -10q-2 -7 -14 -16q-11 -8 -24 -12t-29 1q-13 3 -18 9q-5 7 -5 19v500l110 -64h505l61 73l68 -49
q21 -16 30 -25q10 -10 12 -21t-8 -23q-5 -5 -30 -19l-27 -14v-240l35 -24q15 -11 22 -24t4 -22q-5 -11 -13 -13t-48 -2zM1677 1043v288h-534v-288h534z" />
  </g>

</svg>
