<?xml version="1.0" standalone="no"?>
<!DOCTYPE svg PUBLIC "-//W3C//DTD SVG 1.1//EN" "http://www.w3.org/Graphics/SVG/1.1/DTD/svg11.dtd" >
<svg xmlns="http://www.w3.org/2000/svg" xmlns:xlink="http://www.w3.org/1999/xlink" version="1.1" viewBox="0 -200 1000 1000">
  <g transform="matrix(1 0 0 -1 0 800)">
   <path fill="currentColor"
d="M85 942l32 -31h274l31 34l48 -42q7 -6 5 -10q-1 -4 -11 -6l-17 -9v-241l3 -59q-2 -19 -11 -24q-9 -8 -29 -8v45h-117v-121h101l28 39l61 -45q10 -8 7 -12q-3 -3 -18 -2h-179v-60q40 -14 103 -54q54 -39 72 -73q15 -38 -7 -50q-24 -14 -38 24q-15 36 -42 66q-25 23 -88 68
v-211l2 -96q0 -20 -13 -30q-12 -9 -37 -15q4 39 7 187v159q-82 -159 -220 -272l-9 10q152 171 220 347h-139q-26 0 -44 -13l-33 33h225v121h-123v-27q2 -20 -12 -29q-11 -9 -32 -14q4 36 7 146v223q2 16 -19 37zM986 603v-12h-6q-54 5 -74 -20q-86 50 -144 173
q-20 43 -54 154q-41 -123 -81 -190q-53 -87 -138 -161l-12 9q121 147 172 300q23 72 19 81t-14 24l8 6l88 -31q2 -4 1 -6t-6 -2q-10 0 -23 -7q54 -126 73 -161q75 -137 191 -157zM867 393l-152 -358h-42l155 373h-253q-20 -1 -32 -11l-31 31h303l27 29l48 -37q6 -5 7 -8
q0 -3 -5 -4q-10 -1 -25 -15zM129 743v-132h123v132h-123zM129 891v-128h123v128h-123zM293 743v-132h117v132h-117zM293 891v-128h117v128h-117zM634 643l9 12q81 -47 104 -105q17 -55 -20 -60q-17 2 -20 30q-3 27 -18 57q-11 28 -55 66z" />
  </g>

</svg>
