<?xml version="1.0" standalone="no"?>
<!DOCTYPE svg PUBLIC "-//W3C//DTD SVG 1.1//EN" "http://www.w3.org/Graphics/SVG/1.1/DTD/svg11.dtd" >
<svg xmlns="http://www.w3.org/2000/svg" xmlns:xlink="http://www.w3.org/1999/xlink" version="1.1" viewBox="0 -205 1024 1024">
  <g transform="matrix(1 0 0 -1 0 819)">
   <path fill="currentColor"
d="M168 506l82 -28q4 -11 -10 -16l-22 -12v-60h158l36 46l58 -56q3 -3 4 -6q-1 -9 -4 -8h-252v-186l264 100l8 -16q-213 -103 -246 -125q-34 -22 -70 -56l-50 67q29 12 44 30v326v0v0zM568 500l64 -42h206l26 40l58 -40q9 -3 10 -12q0 -6 -30 -30v-206q0 -49 -20 -68
q-18 -18 -62 -33q-7 34 -40 51q-33 15 -74 24l4 18q72 -16 90 -16q15 -1 34 2q18 3 16 30v214h-228v-276l4 -105q0 -13 -24 -26q-21 -12 -38 -12l4 139v348v0v0zM534 954q6 -4 6 -10q4 -6 -16 -8q-17 -2 -34 -16q-14 -11 -58 -64h354l28 36l62 -46q6 -4 6 -8q0 -6 -32 -32
v-160l4 -62q0 -18 -18 -30q-18 -9 -38 -12v34h-542v-4q0 -12 -20 -24q-18 -12 -36 -14l4 100v258l50 -36h144q37 54 62 132l74 -34v0v0zM256 604h542v96h-542v-96v0v0zM256 728h542v100h-542v-100v0v0z" />
  </g>

</svg>
