<?xml version="1.0" standalone="no"?>
<!DOCTYPE svg PUBLIC "-//W3C//DTD SVG 1.1//EN" "http://www.w3.org/Graphics/SVG/1.1/DTD/svg11.dtd" >
<svg xmlns="http://www.w3.org/2000/svg" xmlns:xlink="http://www.w3.org/1999/xlink" version="1.1" viewBox="0 -205 1024 1024">
  <g transform="matrix(1 0 0 -1 0 819)">
   <path fill="currentColor"
d="M254 560h508l40 50l60 -56q3 -3 4 -8q0 -12 -12 -12h-284v-126h142l36 52l62 -60q3 -3 4 -8q0 -10 -12 -10h-232v-144h204l42 52l68 -62l6 -6q0 -10 -12 -10h-554q-21 0 -68 -8l-16 34h278v144h-156q-21 0 -68 -8l-16 34h240v126h-180q-21 0 -68 -8l-16 34v0v0zM838 730
l66 -66q3 -3 4 -8q0 -7 -8 -8h-698v-541h646l40 47l60 -55q2 -3 2 -10q0 -9 -8 -10h-734l-34 -38l-62 52l40 36v591l64 -44h582l40 54v0v0zM36 844h292v138l88 -28q13 -7 0 -16l-36 -16v-78h260v134l84 -28q19 -7 2 -16l-34 -16v-74h186l44 50l62 -60q3 -3 4 -6
q1 -10 -12 -10h-284v-30l4 -38q3 -15 -18 -26q-21 -12 -42 -12l4 72v34h-260v-34l4 -38q3 -15 -20 -26q-22 -12 -40 -12l4 78v32h-208q-24 0 -60 -8l-24 34v0v0z" />
  </g>

</svg>
