<?xml version="1.0" standalone="no"?>
<!DOCTYPE svg PUBLIC "-//W3C//DTD SVG 1.1//EN" "http://www.w3.org/Graphics/SVG/1.1/DTD/svg11.dtd" >
<svg xmlns="http://www.w3.org/2000/svg" xmlns:xlink="http://www.w3.org/1999/xlink" version="1.1" viewBox="0 -200 1000 1000">
  <g transform="matrix(1 0 0 -1 0 800)">
   <path fill="currentColor"
d="M121 776h95v68q0 52 -5 52h-66l-53 -13l-21 37h126l36 48l55 -44l-24 -37v-111h111l32 43l54 -50l-31 -38v-648q-7 -27 -28 -48.5t-42 -30.5q-4 33 -28.5 57.5t-52.5 30.5l3 13q7 -2 17 -4.5t20.5 -5t20 -4.5t15.5 -2q20 0 25 33v628h-118l-1 -73q34 -19 56 -35
t34.5 -31.5t17 -31.5t4.5 -35q0 -15 -10 -29.5t-14 -14.5q-5 0 -12 4.5t-16 17.5q-14 58 -27 90.5t-38 53.5q-18 -63 -57 -111.5t-82 -75.5l-8 9q39 46 65.5 98.5t38.5 127.5q0 6 0.5 12t0.5 12v6.5t-1 6.5l-92 -1l-13 -26v-691q-7 -12 -21.5 -21t-28.5 -12l1 817zM282 480
l-18 -32l-18 -81q54 -24 88.5 -60.5t39.5 -74.5q-14 -41 -27 -41q-9 0 -20.5 8.5t-12.5 28.5q-3 24 -8.5 41t-13.5 31t-20 27t-28 28q-24 -54 -56 -103t-70 -79l-9 6q24 37 43.5 74t33 77t22 85.5t11.5 100.5zM752 631q-1 0 -1 -0.5t-1 -0.5q-5 0 -11 11.5t-6 24.5q0 6 1 8
q0 17 -5.5 45.5t-18.5 50.5l5 6q32 -23 49 -48.5t17 -44.5v-2q0 -12 -7.5 -28.5t-21.5 -21.5zM835 265l46 46l55 -70h-165v-150h82l47 42l53 -65h-342v-44q-25 -22 -49 -25v464q-12 -18 -21.5 -32.5t-19 -26.5t-19.5 -23t-23 -23l-7 5q30 55 56.5 106t49 103t41 108.5
t33.5 124.5h-88q1 -5 1.5 -10.5t0.5 -11.5q0 -14 -3 -27.5t-9 -24.5t-14.5 -18t-19.5 -7q-2 0 -2.5 0.5t-2.5 0.5q-2 2 -10 6t-12 17q0 10 5.5 18.5t13 23.5t15.5 39.5t13 66.5h10l12 -50h95q7 34 12.5 76.5t9.5 96.5l72 -46l-25 -47l-5 -20t-4 -15.5t-4 -17.5t-5 -27h137
l32 49q10 -9 22.5 -18.5t23.5 -19t18.5 -18.5t7.5 -17v-4q0 -12 -5 -16t-13 -5.5t-18.5 -2.5t-22 -7t-23.5 -20t-22 -40l-8 6q6 15 11 30t5 29q0 18 -10 31h-139q-9 -36 -17 -63t-15.5 -48t-13.5 -39t-11 -37h186l40 43l63 -67h-153l-12 -16v-138h71l40 44l59 -69h-170v-150
h64zM611 537v-97h113v154h-88zM611 265h113v150h-113v-150zM611 91h113v150h-113v-150z" />
  </g>

</svg>
