<?xml version="1.0" standalone="no"?>
<!DOCTYPE svg PUBLIC "-//W3C//DTD SVG 1.1//EN" "http://www.w3.org/Graphics/SVG/1.1/DTD/svg11.dtd" >
<svg xmlns="http://www.w3.org/2000/svg" xmlns:xlink="http://www.w3.org/1999/xlink" version="1.1" viewBox="0 -36 256 256">
  <g transform="matrix(1 0 0 -1 0 220)">
   <path fill="currentColor"
d="M73 174l5 8l10 -12l-5 -5v-77l-11 -5v11h-14v-59q9 2 16 4q-2 11 -9 33l3 1q18 -27 18 -41t-4 -17t-5 2.5t-2 15.5q-52 -17 -59 -22l-6 15q22 4 37 7v61h-15v-13l-12 -4q1 25 1 49.5t-1 55.5l12 -8h15v47q-9 -3 -32 -6v5q53 12 66 25l10 -14l-9 -1q-6 -3 -24 -8v-48h15z
M32 167v-66h15v66h-15zM58 101h14v66h-14v-66zM147 174l5 8l11 -12l-6 -5v-39q0 -19 1 -38l-13 -5v11h-12v-59q8 2 14 4q-2 11 -9 33l3 1q20 -27 20 -41t-4.5 -17t-5.5 2.5t-3 15.5q-51 -17 -56 -21l-6 14q20 4 36 8v60h-14v-13l-13 -4q1 25 1 49.5t-1 55.5l13 -8h14v46
q-6 -2 -33 -5v5q51 12 68 26l9 -15l-10 -1q-8 -3 -23 -8v-48h14zM108 167v-66h14v66h-14zM133 101h12v66h-12v-66zM223 174l6 8l12 -12l-7 -7v-75l-11 -5v11h-14v-58q8 3 22 5q-2 10 -9 32l3 1q21 -28 21 -40t-5.5 -16.5t-6.5 1t-2 15.5q-59 -19 -62 -25l-7 18q12 1 35 7v60
h-16v-13l-12 -4q1 25 1 48.5t-1 56.5l12 -8h16v46q-14 -3 -33 -5v5q49 11 67 25l11 -17h-9q-11 -3 -25 -7v-47h14zM182 167v-66h16v66h-16zM209 167v-66h14v66h-14z" />
  </g>

</svg>
