<?xml version="1.0" standalone="no"?>
<!DOCTYPE svg PUBLIC "-//W3C//DTD SVG 1.1//EN" "http://www.w3.org/Graphics/SVG/1.1/DTD/svg11.dtd" >
<svg xmlns="http://www.w3.org/2000/svg" xmlns:xlink="http://www.w3.org/1999/xlink" version="1.1" viewBox="0 -339 2048 2048">
  <g transform="matrix(1 0 0 -1 0 1709)">
   <path fill="currentColor"
d="M1323 1925l111 -24q56 -12 70 -24q13 -10 13 -22q0 -10 -10 -21q-12 -12 -39 -20l-42 -13v-500q0 -59 1 -81q1 -13 7 -76v-9q0 -25 -8 -36q-10 -15 -48 -15q-28 0 -39 11q-4 4 -5 8q-3 9 -3 27v648q-4 116 -5 124q0 9 -3 23zM1584 1664q77 -41 134 -78q88 -58 143 -111
q40 -38 66 -83q25 -42 25 -86q0 -36 -19 -52q-11 -9 -27 -9q-17 0 -33 13q-15 11 -33 54q-42 101 -122 186q-35 37 -82 77q-23 20 -70 57zM1065 1695l129 -43q21 -7 29 -18q3 -6 3 -11q0 -11 -9 -20q-11 -10 -27 -13l-52 -11q-23 -46 -37.5 -72t-35.5 -58
q-71 -107 -157 -191q-29 -28 -64 -54l-23 32q55 63 81 98q69 95 121 229q22 58 42 132zM1387 735h324l106 113l141 -113q10 -8 15 -19q4 -8 4 -14q0 -7 -6 -12q-10 -9 -27 -9l-564 -1q-20 -103 -43 -163q-51 -131 -164 -235q-103 -96 -257 -159q-45 -18 -117 -44l-11 39
q80 37 126 62q187 104 282 264q43 72 64 165q5 23 14 71l-246 1q-35 1 -98 -4q-18 -2 -51 -6l-39 86q54 -8 68 -10q12 -1 70 -6l49 -4l254 -2q13 133 13 203q0 28 -3 70l124 -21q54 -9 69 -23q7 -7 7 -17t-7 -19q-11 -14 -35 -20l-46 -12q-3 -36 -5 -55q-4 -58 -5 -66
q-1 -13 -6 -40zM1443 538q224 -110 332 -191q67 -51 108 -100q39 -47 39 -92q0 -24 -15 -44q-14 -20 -35 -20q-19 0 -40 18q-14 12 -47 64q-50 79 -128 153q-71 66 -135 115q-40 30 -94 62zM626 622q-66 -29 -157 -63q-85 -32 -122 -45l-111 -36l-46 -15l-10 -44
q-4 -20 -12 -26q-5 -5 -13 -5q-9 0 -17 6q-8 5 -17 25l-64 127l78 13q23 5 57 14v1197q-18 0 -60 -5q-21 -1 -31 -3l-39 88q30 -7 52 -11q73 -12 179 -12h346l98 101l121 -106q13 -13 15 -16q2 -4 2 -10q0 -9 -6 -16q-9 -10 -22 -10h-125v-1394q0 -75 12 -219q3 -32 3 -49
q0 -23 -11 -34q-13 -13 -43 -13q-27 0 -41 11q-16 12 -16 31v519zM626 1770h-337v-318h337v318zM626 1394h-337v-334h337v334zM289 592q105 24 225 60q59 17 112 36v314h-337v-410z" />
  </g>

</svg>
