<?xml version="1.0" standalone="no"?>
<!DOCTYPE svg PUBLIC "-//W3C//DTD SVG 1.1//EN" "http://www.w3.org/Graphics/SVG/1.1/DTD/svg11.dtd" >
<svg xmlns="http://www.w3.org/2000/svg" xmlns:xlink="http://www.w3.org/1999/xlink" version="1.1" viewBox="0 -36 256 256">
  <g transform="matrix(1 0 0 -1 0 220)">
   <path fill="currentColor"
d="M165 37v49h-41q-1 -9 -2 -17h16l8 8l11 -11l-7 -5q0 -26 1 -36l-13 -7q1 29 1 44h-18q-6 -31 -30 -54l-3 3q12 17 18 36t6 56t-1 52l19 -7l-6 -6v-23h17v30l16 -7l-5 -6q0 -14 1 -24l-12 -7v7h-17v-19h41v66h-15q-10 0 -19 -2l-9 9h43v19h-32q-10 0 -19 -2l-9 9h60v18
h-16q-10 0 -19 -2l-9 9h44v28l18 -8l-6 -6v-14h30l7 8l12 -12l-7 -5v-16h8l9 10l11 -17h-28q0 -11 1 -26l-13 -5v5h-30v-66h42v19h-18l-5 -4l-10 10l5 3v32l17 -8l-6 -6v-20h17v32l19 -9l-7 -6v-75q0 -32 1 -46l-14 -7q1 29 1 54h-16v-37l-12 -7q1 27 0 58l11 -7h17v17h-42
v-57q0 -6 1 -12l-14 -7q1 13 1 27zM207 185h-30v-19h30v19zM207 210h-30v-18h30v18zM59.5 154.5q-0.5 15.5 -9.5 35.5l3 2q27 -25 17 -39t-10.5 1.5zM79 234l-8 -3q-8 -11 -15 -21h25l8 10l11 -11l-7 -6v-153q1 -29 -18 -35q0 11 -24 18v4q19 -2 24 -2t6 11v157h-35v-47
q1 -47 -4 -82.5t-29 -64.5l-3 2q16 34 20 60t4 64v58q0 14 -1 26l12 -9h6q6 15 9 36zM70 94.5q4 -8.5 2 -16t-7.5 -7.5t-5.5 11t-9 31l2 3q14 -13 18 -21.5zM21 105l-13 16q17 1 99 31l1 -6q-77 -33 -87 -41z" />
  </g>

</svg>
