<?xml version="1.0" standalone="no"?>
<!DOCTYPE svg PUBLIC "-//W3C//DTD SVG 1.1//EN" "http://www.w3.org/Graphics/SVG/1.1/DTD/svg11.dtd" >
<svg xmlns="http://www.w3.org/2000/svg" xmlns:xlink="http://www.w3.org/1999/xlink" version="1.1" viewBox="0 -52 256 256">
  <g transform="matrix(1 0 0 -1 0 204)">
   <path fill="currentColor"
d="M8 221h93q13 17 14 24q0 3 -2 6l2 1l16 -8l3 -2q0 -1 -2 -2q-4 0 -7 -2q-5 -9 -11 -17h96l8 10l17 -13q4 -2 -2 -2h-88q38 -38 106 -39v-4h-4q-13 -1 -14 -8q-62 9 -95 51h-28q-23 -30 -68 -43l18 -7h1q3 -1 0 -2q-4 -1 -7 -4v-13h65v30q0 3 -7 9l2 2l20 -7q3 -2 1 -2
q-4 -1 -7 -4v-28h65v13q0 3 -7 9l2 3l20 -8q4 0 2 -2q-5 -1 -7 -4v-7l1 -8q0 -5 -9 -7h-2v6h-136l-7 -8l-13 9q6 5 7 9v12q0 3 -4 7l2 2q-17 -6 -35 -9l-1 3q62 17 91 49h-69q-7 0 -12 -4zM201 97l14 -9q2 -1 2 -2t-2 -1q-4 0 -7 -2q-12 -15 -28 -29q17 -24 32 -29
q6 -1 9 19l4 19l4 -1l-4 -29q0 -13 4 -16q3 -3 2 -6q-3 -3 -6 -2q-5 0 -11 3q-22 7 -41 35l-8 -6q-24 -17 -66 -30l-1 2q36 17 59 33q6 5 11 9q-9 21 -12 36q-2 9 -2 18h-105v-13q0 -28 -8 -50q-9 -21 -27 -36l-2 2q14 18 21 35q6 15 6 50v15q-1 6 -6 11l2 2l11 -11h107
q0 4 -1 9v4q1 3 -5 7l2 3l19 -5q2 -1 2 -2q1 -1 -1 -2q-3 -1 -6 -3v-11h40l6 9l16 -11q2 -2 1 -2q0 -1 -3 -1h-59q0 -3 1 -9v-6q3 -17 11 -32q8 8 13 14q10 12 11 14q1 3 -1 6zM130 75l12 -7q2 -1 2 -2t-2 -1q-4 0 -7 -3q-16 -19 -39 -33q-22 -16 -54 -20l-1 2q29 8 50 22
q17 12 28 24q9 10 9 13q1 1 0 3q1 -2 -1 1zM56 91h68l6 7l15 -8q2 -2 1 -2q0 -1 -3 -1h-38v-20v-14q1 -5 -2 -7q-2 -3 -8 -4q1 4 1 11q1 6 1 10v24h-21q-7 0 -11 -3zM74 77l13 -7q4 -3 2 -3q-4 0 -7 -2q-11 -15 -33 -35l-2 2l15 19q2 4 6 9q5 7 6 10q0 1 -1 3t-1 3zM181 133
l1 2q9 0 13 -3q4 -4 4 -8t-3 -6q-3 -1 -4 3t-4 7t-7 5z" />
  </g>

</svg>
