<?xml version="1.0" standalone="no"?>
<!DOCTYPE svg PUBLIC "-//W3C//DTD SVG 1.1//EN" "http://www.w3.org/Graphics/SVG/1.1/DTD/svg11.dtd" >
<svg xmlns="http://www.w3.org/2000/svg" xmlns:xlink="http://www.w3.org/1999/xlink" version="1.1" viewBox="0 -144 1024 1024">
  <g transform="matrix(1 0 0 -1 0 880)">
   <path fill="currentColor"
d="M397 337l64 -33h282l32 27l59 -48l-27 -22v-195l-64 -32v32h-282l-64 -32v303zM242 991l59 -28l12 -15l-19 -4l-37 -99l-48 -113l-8 -17h6v-640l-65 -32v557l-44 -78l-31 -48l-34 -46l-8 4l94 209l23 57v17h7l54 150l37 118zM743 283h-282v-195h282v195zM877 403l-36 26
l-35 29l-33 31l-33 34l-32 37l-30 40l-30 43l-28 46l-12 23l-31 -50l-32 -45l-34 -44l-36 -42l-39 -41l-41 -38l-44 -37l-46 -34l-48 -33l-6 9l81 79l74 82l34 42l31 43l30 44l27 46l26 46l21 43l4 11l55 -35l10 -17l-20 -2l-7 -12l90 -102l34 -35l35 -31l67 -55l35 -23
l34 -21l62 -32l-61 -48zM726 503l65 -54v-21h-370v21h251zM705 981l65 -11l16 -10l-16 -10v-75h79l54 54l64 -54v-22h-197v-80l-65 -33v113h-154v-80l-64 -33v113h-198v22h198v106l64 -11l17 -10l-17 -10v-75h154v106z" />
  </g>

</svg>
