<?xml version="1.0" standalone="no"?>
<!DOCTYPE svg PUBLIC "-//W3C//DTD SVG 1.1//EN" "http://www.w3.org/Graphics/SVG/1.1/DTD/svg11.dtd" >
<svg xmlns="http://www.w3.org/2000/svg" xmlns:xlink="http://www.w3.org/1999/xlink" version="1.1" viewBox="0 -246 2048 2048">
  <g transform="matrix(1 0 0 -1 0 1802)">
   <path fill="currentColor"
d="M329 1524q-62 -210 -178 -393l-45 24q136 311 164 772q207 -21 207 -67q0 -27 -82 -52q-22 -125 -49 -233h256l94 127q69 -69 121 -143l-23 -35h-272v-467h76l90 133q74 -74 129 -147l-23 -37h-272q-3 -116 -18 -229q118 -75 190 -156q92 -106 92 -194q0 -78 -70 -78
q-37 0 -61 63q-70 196 -164 297q-73 -383 -369 -610l-32 37q218 226 288 591q26 135 29 279h-287l-20 51h307v467h-78zM1120 383v877q185 -9 185 -49q0 -25 -74 -53v-304h68l73 125q62 -68 99 -135l-25 -41h-215v-393q138 37 276 80l5 -54q-333 -137 -619 -215
q-10 -67 -27 -67q-33 0 -82 166l86 12v746q183 -7 183 -45q0 -26 -74 -54v-626q71 12 141 30zM1456 1346h-653l-23 51h674q-8 183 -8 528q192 -9 192 -51q0 -24 -78 -55q0 -259 7 -416h163l86 104q59 -45 103 -98l18 -20l-22 -37h-346q17 -498 118 -776q78 -213 111 -213
t90 369l49 -23q-32 -277 -32 -373q0 -106 47 -147q-25 -70 -88 -70q-60 0 -150 136q-88 132 -145 317q-89 280 -113 774zM1802 1540q-58 0 -61 74q-3 89 -95 193l31 30q195 -108 195 -227q0 -70 -70 -70zM868 1619l-22 51h331l91 117q73 -65 122 -129l-22 -39h-500z" />
  </g>

</svg>
