<?xml version="1.0" standalone="no"?>
<!DOCTYPE svg PUBLIC "-//W3C//DTD SVG 1.1//EN" "http://www.w3.org/Graphics/SVG/1.1/DTD/svg11.dtd" >
<svg xmlns="http://www.w3.org/2000/svg" xmlns:xlink="http://www.w3.org/1999/xlink" version="1.1" viewBox="0 -205 1024 1024">
  <g transform="matrix(1 0 0 -1 0 819)">
   <path fill="currentColor"
d="M738 264q0 -12 -18 -24q-16 -13 -40 -16v36h-368v-141q-1 -36 20 -42q20 -7 64 -8h340q30 0 48 8q17 7 22 22q5 14 8 34q0 16 10 113h18q0 -61 6 -94q5 -30 32 -51q-18 -42 -42 -60q-24 -15 -68 -16h-394q-46 -3 -80 12q-30 12 -36 74v209l50 -32h372v132h-274
q-39 0 -74 -8l-24 34h360l26 26q57 -45 58 -54q0 -7 -2 -8q-3 0 -18 -12v-74l4 -60v0v0zM212 904l6 12q64 -25 98 -46q33 -22 42 -44t0 -40q-10 -18 -28 -20q-18 -3 -24 24q-6 24 -24 52q-17 26 -70 62v0v0zM470 840q14 51 28 124l80 -36q3 -3 4 -6q0 -4 -12 -10
q-19 -8 -26 -22q-6 -15 -18 -60q-13 -45 -34 -92h112q71 99 116 180q63 -34 70 -40q4 -7 0 -10q-3 -3 -14 -6q-10 0 -34 -18q-25 -16 -110 -106h168l36 46l62 -54q3 -3 4 -8q0 -10 -12 -10h-406q-27 -63 -50 -108h426l38 48l62 -54q3 -3 4 -8q0 -12 -12 -12h-280
q39 -51 96 -96q56 -42 112 -60q57 -18 132 -26v-16q-33 -4 -54 -10q-19 -4 -38 -32l-90 50q-45 24 -96 76q-51 51 -90 114h-226q-81 -108 -176 -168q-93 -60 -200 -110l-8 14q93 53 174 112q80 59 154 152h-234q-43 0 -62 -8l-20 34h332q27 45 52 108h-222q-24 1 -62 -10
l-22 36h316l30 102v0v0z" />
  </g>

</svg>
