<?xml version="1.0" standalone="no"?>
<!DOCTYPE svg PUBLIC "-//W3C//DTD SVG 1.1//EN" "http://www.w3.org/Graphics/SVG/1.1/DTD/svg11.dtd" >
<svg xmlns="http://www.w3.org/2000/svg" xmlns:xlink="http://www.w3.org/1999/xlink" version="1.1" viewBox="0 -205 1024 1024">
  <g transform="matrix(1 0 0 -1 0 819)">
   <path fill="currentColor"
d="M118 738l50 -26h246l28 34l52 -36q8 -3 8 -12q0 -6 -26 -24v-252q1 -32 -16 -52q-15 -20 -54 -34q-6 33 -36 46q-27 11 -68 20l4 18q46 -7 74 -10q29 -4 38 2q8 6 8 28v68h-258v-62l4 -70q0 -12 -18 -24q-19 -12 -40 -14l4 102v298v0v0zM168 534h258v62h-258v-62v0v0z
M168 622h258v64h-258v-64v0v0zM610 980l74 -32q16 -6 0 -18l-24 -12v-82q128 69 190 130q64 -45 60 -54q-3 -8 -8 -6h-20q-18 0 -56 -18q-40 -19 -166 -76v-52q0 -33 12 -36l24 -2h170q19 0 32 6q14 3 20 34q6 30 4 114h20q5 -66 10 -96q4 -28 32 -38q-6 -21 -20 -36
q-13 -12 -34 -18t-54 -8h-182q-27 0 -48 6q-18 5 -30 26q-6 17 -6 52v216v0v0zM604 670l78 -28q9 -10 -2 -16l-26 -12v-104q140 74 212 128l58 -52q3 -13 -6 -14h-28q-19 1 -68 -16q-48 -17 -168 -70v-54q0 -33 12 -36l24 -2h174q19 0 32 6q14 3 20 34q6 30 4 108h20
q2 -60 8 -90q6 -28 34 -38q-6 -21 -20 -36q-13 -12 -34 -18t-54 -8h-186q-27 0 -48 6q-18 5 -30 26q-6 17 -6 52v234v0v0zM338 954q7 -6 2 -12q-6 -6 -24 -6q-17 -1 -70 -40q-53 -37 -112 -88l328 10q-31 41 -86 86l8 12q78 -35 112 -64q33 -27 42 -50q7 -23 -4 -40
q-9 -19 -26 -16t-22 18t-16 36q-267 -23 -296 -28q-27 -6 -60 -26l-44 64l42 14q105 86 166 170l60 -40v0v0zM288 310h16q-1 -65 -14 -100q-11 -33 -34 -50q-24 -18 -44 -20q-18 -1 -30 10q-10 11 -4 26q6 11 36 26q28 12 44 34q15 20 30 74v0v0zM494 394q80 -33 80 -38v-6
q0 -4 -36 -16q33 -66 88 -128q54 42 132 124q62 -42 62 -48t-6 -8q-6 -1 -20 -2q-12 1 -36 -10q-21 -12 -116 -72q38 -34 100 -59q59 -24 110 -36q50 -12 146 -10v-20q-30 1 -54 -8q-25 -8 -46 -38q-97 27 -164 62q-66 35 -114 85q-49 51 -94 138q-22 -84 -82 -146t-152 -99
q-91 -35 -218 -56l-2 18q120 29 210 72q90 42 132 95q40 51 56 100q15 45 24 106v0v0z" />
  </g>

</svg>
