<?xml version="1.0" standalone="no"?>
<!DOCTYPE svg PUBLIC "-//W3C//DTD SVG 1.1//EN" "http://www.w3.org/Graphics/SVG/1.1/DTD/svg11.dtd" >
<svg xmlns="http://www.w3.org/2000/svg" xmlns:xlink="http://www.w3.org/1999/xlink" version="1.1" viewBox="0 -36 256 256">
  <g transform="matrix(1 0 0 -1 0 220)">
   <path fill="currentColor"
d="M32 105h18v71h-18v-71zM62 105h19v71h-19v-71zM50 52v46h-18v-6l-14 -7q1 21 1 52t-1 54l13 -8h19q0 44 -1 60l21 -10l-8 -8v-42h19l6 8l14 -12l-8 -6v-52q0 -19 1 -24l-13 -7v8h-19v-44l22 6q-1 9 -9 29l3 2q22 -24 23.5 -34.5t-5 -16t-8 -1t-2.5 14.5q-26 -9 -42.5 -16
t-23.5 -12l-12 17q13 0 42 9zM173.5 156q2.5 2 2.5 6v25q-14 -15 -35.5 -30t-48.5 -23l-1 4q24 12 40.5 25.5t23.5 22.5h-25q-10 0 -19 -2l-10 9h76q-4 8 -10.5 13.5t-18.5 12.5l2 3q20 -6 30 -12l23 18h-60q-10 0 -19 -2l-9 9h88l10 8l15 -16q-11 -1 -21 -6.5t-23 -13.5
q10 -6 0 -14h36l10 9l15 -18q-10 0 -16.5 -4.5t-18.5 -18.5l-3 2l13 23h-31v-26q0 -9 -3 -14t-15 -10q-5 9 -8.5 11.5t-16.5 5.5v4q25 -3 27.5 -1zM195 118v-8q0 -6 6 -6t9.5 2t7 -1t6 -7t-16.5 -4h-11q-14 0 -14 13v21l18 -5zM149.5 102q-11.5 -12 -24.5 -21l-2 4
q18 19 29 42l15 -11q-6 -2 -17.5 -14zM148 95l12 -7h26l7 8l13 -10l-6 -6v-29l-12 -5v8h-28v-6l-12 -5v52zM160 61h28v20h-28v-20zM122 134h101l7 9l14 -13l-8 -6v-91q0 -11 -5 -16.5t-15 -8.5q-5 10 -9.5 12.5t-17.5 4.5v5q28 -3 31 -2t3 8v91h-100v-114l-14 -6q1 23 1 69
t-1 64z" />
  </g>

</svg>
