<?xml version="1.0" standalone="no"?>
<!DOCTYPE svg PUBLIC "-//W3C//DTD SVG 1.1//EN" "http://www.w3.org/Graphics/SVG/1.1/DTD/svg11.dtd" >
<svg xmlns="http://www.w3.org/2000/svg" xmlns:xlink="http://www.w3.org/1999/xlink" version="1.1" viewBox="0 -154 1024 1024">
  <g transform="matrix(1 0 0 -1 0 870)">
   <path fill="currentColor"
d="M263 606q-119 -37 -134 -46q-16 -11 -40 -32l-44 54l176 45v270h-113q-27 0 -45 -13l-34 33h300l32 40l68 -50q15 -10 -6 -10h-156v-258l190 49l6 -18zM908 719q-6 -57 -12 -94q-6 -39 -23 -72q-18 -33 -48 -53q-32 -19 -89 -31q-4 21 -42 40q-39 18 -99 38l4 16
q64 -18 127 -30q54 -7 81 14q27 22 39 73q12 50 16 119h-269l-45 -32l-40 48q17 4 36 22l55 144h-98q-27 0 -45 -13l-34 33h451l32 40l68 -50q15 -10 -6 -10h-320l-65 -162h262l33 40l59 -53q5 -9 -6 -11zM714 428q6 -9 -9 -14l-19 -14l-4 -274q-6 -45 118 -40q93 -1 113 11
q19 13 22 93l5 78h15l6 -74q1 -69 31 -84q-20 -42 -47 -52q-27 -11 -84 -12q-57 0 -156 3q-73 15 -73 70l8 299h-235q-21 -145 -78 -232q-74 -111 -260 -162l-6 16q177 72 239 186q42 80 58 192h-215q-26 -3 -38 -14l-32 34h287q5 37 6 78q-5 19 -23 34l8 11l81 -34
q18 -7 8 -13q-14 -6 -26 -14q-3 -33 -6 -62h214l34 41z" />
  </g>

</svg>
