<?xml version="1.0" standalone="no"?>
<!DOCTYPE svg PUBLIC "-//W3C//DTD SVG 1.1//EN" "http://www.w3.org/Graphics/SVG/1.1/DTD/svg11.dtd" >
<svg xmlns="http://www.w3.org/2000/svg" xmlns:xlink="http://www.w3.org/1999/xlink" version="1.1" viewBox="0 -205 1024 1024">
  <g transform="matrix(1 0 0 -1 0 819)">
   <path fill="currentColor"
d="M470 944l60 -38h340l30 44l64 -48q3 -7 4 -10q0 -7 -32 -28v-380l4 -102q0 -10 -18 -22q-15 -12 -38 -18v78h-156v-252l4 -87q1 -18 -22 -34q-24 -16 -36 -14l4 139v248h-156v-54q-1 -13 -16 -26q-14 -12 -40 -12l4 136v480v0v0zM522 448h156v206h-156v-206v0v0zM728 654
v-206h156v206h-156v0v0zM522 682h156v196h-156v-196v0v0zM728 878v-196h156v196h-156v0v0zM96 788l48 -34h82v230l76 -28q12 -6 4 -18l-28 -16v-168h72l26 36l54 -38q12 -9 4 -14l-24 -22v-238l4 -60q3 -15 -12 -26q-15 -12 -42 -14v50h-82v-220l104 22q-20 44 -52 88l12 12
q71 -64 92 -92q18 -27 24 -48q4 -21 -4 -36q-7 -12 -22 -15q-16 -3 -22 6q-7 6 -8 19q0 12 -12 46q-162 -49 -218 -69q-58 -22 -88 -44l-38 61l180 38v232h-80v-44q0 -12 -18 -24t-36 -12l4 76v364v0v0zM146 452h80v278h-80v-278v0v0zM278 730v-278h82v278h-82v0v0z" />
  </g>

</svg>
