<?xml version="1.0" standalone="no"?>
<!DOCTYPE svg PUBLIC "-//W3C//DTD SVG 1.1//EN" "http://www.w3.org/Graphics/SVG/1.1/DTD/svg11.dtd" >
<svg xmlns="http://www.w3.org/2000/svg" xmlns:xlink="http://www.w3.org/1999/xlink" version="1.1" viewBox="0 -52 256 256">
  <g transform="matrix(1 0 0 -1 0 204)">
   <path fill="currentColor"
d="M170 123l19 -9q4 -1 2 -3q-4 -1 -7 -4v-13h28l9 10l11 -12q2 -2 1 -2q0 -1 -2 -1l-5 -3v-13l1 -15q0 -4 -3 -7q-1 -1 -4 -1q-2 -1 -3 -1v9h-33v-26l38 4q-6 5 -18 10l1 3q6 -3 17 -7q5 -2 8 -3q9 -6 12 -14q4 -8 -2 -11q-4 -2 -7 5q-2 8 -7 13l-36 -6q-34 -5 -40 -6
t-12 -7l-13 14l49 5v26h-30v-5q1 -5 -2 -7q-2 -3 -8 -4v9q1 11 1 18v22q1 3 -4 9l3 4l8 -10h32v16q0 4 -6 10zM124 160l-2 3q17 19 24 34q8 15 12 28q5 13 3 16q-1 3 -3 6l2 2l21 -9q2 -2 -1 -2q-2 -1 -5 -3q-1 -1 -2 -1q-4 -12 -9 -23h60l8 11l17 -13q2 -1 2 -2
q-1 -1 -3 -1h-25q-9 -32 -31 -53q9 -7 19 -12q17 -8 42 -11l1 -3q-3 0 -7 -1h-5q-6 -1 -9 -7q-21 7 -36 18q-6 5 -11 9q-27 -23 -70 -29l-1 3q40 13 64 34q-16 17 -24 40q-12 -18 -31 -34zM58 118l20 -6q2 -1 2 -2l-1 -1q-4 -1 -6 -4v-11h23l10 10l10 -12q2 -1 1 -2l-2 -1
l-5 -2v-14l1 -15q0 -4 -3 -6q-2 -2 -7 -2v7h-28v-25l27 5q-2 3 -8 7q-4 2 -6 4l1 3q7 -3 18 -11q2 0 3 -1q8 -7 10 -14t-3 -10q-4 -3 -7 5q-2 6 -5 12l-30 -6q-33 -6 -39 -8q-6 -1 -12 -7l-13 13l54 7v26h-29v-3q1 -5 -2 -7q-3 -3 -8 -4v9q1 11 1 17v22q1 3 -4 8l3 5l8 -10
h31v13q0 5 -7 8zM26 168l9 -9h61l7 9l13 -10q2 -1 2 -3q-1 -1 -3 -1l-5 -3v-19l2 -12q-1 -4 -3 -6q-3 -1 -8 -3v14h-64v-8q0 -1 -1 -4q1 2 -1 -1l-1 -1q-4 -2 -8 -2q1 4 1 14q1 9 1 14v19q-1 5 -5 9zM40 178l-8 7q-12 -10 -25 -16l-2 2q30 22 50 52q9 15 9 20q0 4 -3 7l3 2
l18 -9q4 -2 1 -4q-6 0 -9 -3l-2 -3q16 -6 28 -15q29 -18 21 -30q-5 -6 -11 5t-17 20q-7 7 -23 16q-15 -26 -38 -44h55l6 8l15 -10q3 -2 -1 -2h-56q-6 0 -11 -3zM101 155h-64v-26h64v26zM159 201q10 -24 26 -41q16 19 25 46h-49q-1 -1 -1 -2q-1 -2 -1 -3zM217 90h-33v-28h33
v28zM101 90h-28v-29h28v29zM144 90v-28h30v28h-30zM34 90v-29h29v29h-29z" />
  </g>

</svg>
