<?xml version="1.0" standalone="no"?>
<!DOCTYPE svg PUBLIC "-//W3C//DTD SVG 1.1//EN" "http://www.w3.org/Graphics/SVG/1.1/DTD/svg11.dtd" >
<svg xmlns="http://www.w3.org/2000/svg" xmlns:xlink="http://www.w3.org/1999/xlink" version="1.1" viewBox="0 -339 2048 2048">
  <g transform="matrix(1 0 0 -1 0 1709)">
   <path fill="currentColor"
d="M1144 819q110 -14 159 -25q73 -16 103 -44q21 -20 21 -50q0 -17 -10 -27q-11 -10 -25 -10q-5 0 -15 3q-12 4 -35 24q-29 26 -61 42q-36 20 -78 34q-24 8 -67 20zM1140 539q110 -14 159 -25q73 -16 103 -45q21 -19 21 -48q0 -18 -10 -28q-11 -10 -25 -10q-5 0 -15 3
q-12 4 -35 24q-29 26 -61 42q-36 20 -78 34q-24 8 -67 20zM1586 287l-702 1q-12 -9 -19 -12t-18 -5q-14 -3 -25 -3t-19 4q-14 7 -14 25q0 12 5 30q7 28 11 52l29 186h-22q-60 0 -131 -10l-39 87q123 -18 188 -18h13l34 214q7 40 15 140l98 -66h635l68 76l92 -54
q40 -24 40 -49q0 -16 -11 -26q-13 -11 -31 -19q-16 -7 -36 -16l-7 -104l-4 -68l-2 -30h67l71 83l114 -86q17 -13 17 -27q0 -9 -6 -16q-9 -10 -21 -10h-246q-2 -19 -5 -55q-6 -85 -21 -168h29l80 81l114 -86q13 -10 15 -17q2 -4 2 -10q0 -10 -6 -16q-8 -9 -21 -9h-227
q-14 -46 -26 -74q-24 -60 -53 -92q-39 -44 -111 -72q-27 -10 -75 -21q-1 32 -10 48q-14 20 -53 38q-47 22 -167 52l12 39q67 -17 131 -30q55 -11 76 -14.5t37 -3.5q28 0 57 18q36 22 59 68q8 14 19 45zM1602 343q10 41 17 109q3 29 10 114l-700 -1l-35 -222h708zM939 624
l694 -1q4 42 17 231l-675 -1zM1596 1965q80 -26 112 -41q56 -27 71 -58q7 -14 7 -28q0 -15 -9 -29q-12 -19 -36 -19q-20 0 -38 20q-5 5 -39 57q-15 23 -84 67zM482 1124q87 -34 161 -82q54 -35 77 -64q14 -16 19 -30q5 -15 5 -32q0 -21 -12 -36q-12 -14 -30 -14
q-16 0 -36 15q-11 8 -29 34l-22 32q-31 46 -73 84q-20 19 -59 45l-1 -717q0 -36 3 -129q4 -104 5 -121q1 -7 1 -11q0 -15 -5 -26q-8 -18 -45 -18q-28 0 -41 11q-16 12 -16 31v928q-19 -47 -28 -68q-54 -121 -135 -244q-39 -59 -81 -112q-17 -21 -51 -62l-30 23q56 89 89 151
q77 147 139 340q30 91 54 201h-71q-38 0 -98 -5q-18 -1 -51 -6l-39 86q54 -8 87 -11q66 -6 101 -6h114v406q-51 -9 -90 -14q-121 -15 -210 -21l-3 35q145 32 196 46q159 42 268 93q56 27 118 67l99 -91q18 -17 18 -30q0 -8 -7 -15q-6 -6 -23 -7q-4 0 -8 1l-66 11
q-39 -12 -58 -19q-65 -22 -89 -28q-16 -4 -47 -10v-424h80l91 91l114 -91q22 -18 22 -36q0 -6 -3 -10q-7 -12 -26 -12h-278v-129zM1403 1730q-8 100 -16 204l111 -21q36 -7 55 -20q16 -11 16 -22q0 -10 -7 -19q-12 -14 -30 -20l-48 -15q1 -35 2 -52q2 -12 5 -35h261l80 79
l114 -84q17 -13 17 -26q0 -9 -6 -16q-8 -10 -21 -10h-439q12 -83 25 -138q24 -102 53 -164q9 -20 24 -49q29 35 44 58q38 61 86 173l91 -42q33 -15 42 -20q6 -4 11 -12q4 -6 4 -13q0 -9 -7 -17q-11 -11 -31 -14l-49 -8q-22 -29 -69 -97q-35 -51 -70 -91q56 -73 85 -102
q40 -41 63 -41q11 0 20 10q8 8 12 19q2 6 12 35l60 180l36 -10l-32 -186q-7 -42 -7 -60q0 -10 4 -31q4 -25 9 -40q11 -34 12 -37t1 -8q0 -13 -9 -21q-10 -8 -27 -8q-20 0 -60 17q-51 22 -93 53q-41 31 -102 100q-21 23 -49 63q-30 -26 -65 -51q-36 -25 -72 -46
q-50 -29 -155 -78l-23 34q111 67 175 120q43 36 91 91q-47 79 -79 178q-26 80 -42 191q-3 20 -8 62h-446l2 -166l224 2l68 76l84 -54q27 -18 34 -29q6 -10 6 -20q0 -15 -12 -25q-11 -11 -30 -20q-16 -7 -36 -16q-3 -38 -5 -57q-6 -83 -9 -104.5t-8 -44.5q-10 -39 -29 -63
q-30 -38 -84 -56q-20 -7 -63 -16q0 30 -7 44q-9 17 -26 28q-16 10 -57 23q-11 4 -35 12l10 40q94 -26 140 -26q27 0 43 17q15 16 21 48q7 32 10 121q1 21 2 64h-241q-5 -112 -15 -178q-18 -118 -61 -201q-24 -46 -64 -98q-14 -19 -34 -42l-32 26q20 32 29 50.5t20 48.5
q27 74 40 148q13 68 21 196q2 44 2 88l-1 45l-1 114q-1 17 -6 89q-2 29 -7 69l117 -76h431z" />
  </g>

</svg>
