<?xml version="1.0" standalone="no"?>
<!DOCTYPE svg PUBLIC "-//W3C//DTD SVG 1.1//EN" "http://www.w3.org/Graphics/SVG/1.1/DTD/svg11.dtd" >
<svg xmlns="http://www.w3.org/2000/svg" xmlns:xlink="http://www.w3.org/1999/xlink" version="1.1" viewBox="0 -246 2048 2048">
  <g transform="matrix(1 0 0 -1 0 1802)">
   <path fill="currentColor"
d="M1524 1328q-4 -157 -23 -373h236l72 90q121 -102 121 -127q0 -11 -13 -20l-49 -33q-3 -616 -102 -709q-44 -44 -154 -53q-3 69 -68 94q-54 20 -151 39v53q117 -20 231 -20q75 0 90 78q30 151 39 557h-258q-7 -69 -22 -164l-113 23q47 319 59 673q21 -8 123 -57h191v375
h-379l-23 51h383l76 96q117 -92 117 -123q0 -12 -18 -24l-43 -27v-502h-113v103h-209zM304 1328q-3 -148 -29 -373h197l65 82q115 -102 115 -121q0 -9 -12 -18l-45 -31q-6 -431 -60 -611q-26 -87 -78 -120q-46 -30 -135 -31q0 52 -45 76q-35 19 -133 39v51q89 -15 170 -15
q96 0 121 105q44 190 47 543h-215q-10 -85 -25 -162l-110 25q56 335 65 671q43 -18 121 -59h162v375h-359l-16 51h358l72 96q107 -97 107 -118q0 -4 -10 -15l-41 -30v-513h-111v103h-176zM1004 881q51 58 108 156h-356l-21 51h369l70 86q131 -106 131 -135q0 -11 -23 -20
l-63 -23q-85 -82 -156 -129q46 -14 46 -31q0 -19 -74 -41v-121q121 28 270 72l14 -47q-144 -55 -278 -98v-328q0 -112 -80 -146q-35 -12 -84 -18q-3 64 -64 88q-29 11 -125 27v53q79 -10 178 -10q62 0 62 67v232q-110 -33 -168 -47q-9 -66 -31 -66q-33 0 -73 152
q146 20 266 45v239q57 -4 82 -8zM926 1670v262q189 -3 189 -43q0 -22 -76 -49v-170h129l86 117q70 -65 117 -129l-23 -39h-309v-240h176l63 86q119 -109 119 -141q0 -15 -20 -21l-52 -16q-30 -48 -90 -115l-41 23q19 51 31 133h-461q2 -12 2 -37q0 -178 -95 -178
q-67 0 -67 59q0 25 31 62q59 70 61 200l52 -4q7 -30 10 -51h168v240h-256l-21 51h277z" />
  </g>

</svg>
