<?xml version="1.0" standalone="no"?>
<!DOCTYPE svg PUBLIC "-//W3C//DTD SVG 1.1//EN" "http://www.w3.org/Graphics/SVG/1.1/DTD/svg11.dtd" >
<svg xmlns="http://www.w3.org/2000/svg" xmlns:xlink="http://www.w3.org/1999/xlink" version="1.1" viewBox="0 -36 256 256">
  <g transform="matrix(1 0 0 -1 0 220)">
   <path fill="currentColor"
d="M234 87h5q-1 -36 0.5 -49.5t6 -22.5t-10.5 -4t-31.5 16t-34.5 38q-43 -38 -106 -54l-2 4q46 20 69 36t31 27q-7 20 -12.5 40.5t-6.5 30.5l-115 -15l-6 -5l-11 10l131 17q-3 29 -4 49t-3 41l24 -7l-8 -9q1 -37 5 -71l64 10l9 12l18 -17l-90 -12q2 -12 6.5 -29t10.5 -32
q12 14 23.5 30t17.5 33l21 -14l-8 -3q-22 -33 -48 -61q14 -22 24.5 -30.5t22.5 -12.5zM166 227q25 -9 37 -18.5t6.5 -21.5t-11.5 -1.5t-12.5 18.5t-21.5 19zM79 177h20l13 12l15 -19h-48v-27l-15 -1v28h-12q-14 0 -24 -2l-9 9h45v27h-22q-11 0 -20 -2l-9 9h51v13q0 5 -1 18
l24 -8l-8 -7v-16h23l12 11l16 -18h-51v-27z" />
  </g>

</svg>
