<?xml version="1.0" standalone="no"?>
<!DOCTYPE svg PUBLIC "-//W3C//DTD SVG 1.1//EN" "http://www.w3.org/Graphics/SVG/1.1/DTD/svg11.dtd" >
<svg xmlns="http://www.w3.org/2000/svg" xmlns:xlink="http://www.w3.org/1999/xlink" version="1.1" viewBox="0 -36 256 256">
  <g transform="matrix(1 0 0 -1 0 220)">
   <path fill="currentColor"
d="M96 80l3 -3q-39 -41 -46 -52l-12 13q4 5 4 14v40q0 47 -1 62l23 -13l-9 -7v-84zM86 176h-40q-13 -31 -35 -56l-3 2q18 28 28.5 64.5t11.5 51.5l22 -12l-8 -6q-8 -20 -14 -37h38l8 10l17 -17q-8 -2 -14.5 -7t-21.5 -25l-3 2zM159 246l21 -11l-6 -6v-26h35l11 13l17 -20
h-63v-63h10q21 40 24 56l20 -14l-11 -5l-27 -37h28l12 13l16 -20h-66q25 -67 68 -83v-4q-14 0 -20 -9q-40 30 -52 96h-2q0 -88 1 -112l-16 -6q1 55 1 108q-22 -61 -74 -95l-3 3q44 40 65 102h-18q-18 -1 -27 -3l-9 10h66v63h-23q-14 -1 -23 -3l-8 10h54q0 11 -1 43z
M142.5 159.5q2.5 -8.5 -4 -16.5t-9.5 5.5t-13 33.5l3 2q21 -16 23.5 -24.5z" />
  </g>

</svg>
