<?xml version="1.0" standalone="no"?>
<!DOCTYPE svg PUBLIC "-//W3C//DTD SVG 1.1//EN" "http://www.w3.org/Graphics/SVG/1.1/DTD/svg11.dtd" >
<svg xmlns="http://www.w3.org/2000/svg" xmlns:xlink="http://www.w3.org/1999/xlink" version="1.1" viewBox="0 -205 1024 1024">
  <g transform="matrix(1 0 0 -1 0 819)">
   <path fill="currentColor"
d="M132 972l52 -34h252l26 30l48 -42q6 -3 6 -6q0 -7 -30 -26v-228l4 -80q2 -12 -16 -26q-19 -16 -38 -14v50h-100v-138h122l36 46l56 -52q6 -9 6 -14q-2 -6 -4 -6h-216v-42q66 -33 106 -56q39 -22 54 -44t12 -44q-3 -21 -24 -24q-19 -5 -28 18t-24 44q-15 19 -36 38
q-21 18 -60 48v-192l4 -89q0 -17 -20 -28q-18 -12 -36 -12l4 127v246q-46 -98 -112 -184q-66 -84 -132 -143l-14 10q63 70 118 151q53 79 92 176h-104q-33 1 -62 -10l-22 36h236v138h-106v-22q0 -10 -20 -22q-19 -13 -34 -10l4 122v308v0v0zM182 622h106v128h-106v-128v0v0z
M336 750v-128h100v128h-100v0v0zM182 776h106v136h-106v-136v0v0zM336 912v-136h100v136h-100v0v0zM732 660q77 -27 80 -32q0 -7 -2 -10q-3 -3 -30 -14v-166q4 -195 -100 -282q-102 -84 -224 -129l-10 14q144 75 204 139q57 64 70 134q13 72 12 198v148v0v0zM792 256
q81 -36 124 -66q42 -31 60 -57q17 -26 14 -50q-3 -23 -24 -26q-18 -3 -30 24q-10 26 -34 61q-25 36 -118 102l8 12v0v0zM592 782l52 -38h70l22 150h-94q-22 0 -70 -8l-14 34h348l32 44l54 -52q2 -4 2 -8q1 -10 -10 -10h-196l-52 -150h130l26 38l58 -42l4 -8q0 -7 -26 -32
v-290l4 -90q0 -12 -20 -24q-18 -9 -38 -8l4 120v310h-238v-314l4 -86q3 -15 -18 -26q-21 -12 -38 -12l4 124v378v0v0z" />
  </g>

</svg>
