<?xml version="1.0" standalone="no"?>
<!DOCTYPE svg PUBLIC "-//W3C//DTD SVG 1.1//EN" "http://www.w3.org/Graphics/SVG/1.1/DTD/svg11.dtd" >
<svg xmlns="http://www.w3.org/2000/svg" xmlns:xlink="http://www.w3.org/1999/xlink" version="1.1" viewBox="0 -36 256 256">
  <g transform="matrix(1 0 0 -1 0 220)">
   <path fill="currentColor"
d="M129 221l11 -7h19q6 25 6 32l23 -8l-7 -3l-15 -21h40l7 10l14 -11l-7 -6q0 -36 1 -51l-15 -6v6h-63v-19h83l8 12l13 -19h-104v-19h83l6 9l14 -11l-7 -6q-1 -48 -3.5 -61t-9.5 -21.5t-19 -10.5q1 12 -23 15v5q18 -1 25.5 -1t11 8t4.5 26.5t1 40.5h-83v-7l-14 -5q1 17 1 31
v71q0 13 -1 27zM206 207h-63v-20h63v20zM206 180h-63v-17h63v17zM192 68.5q3 -8.5 -0.5 -13.5t-7.5 -5t-4.5 7.5t-4 16t-7.5 15.5l3 2q18 -14 21 -22.5zM214.5 76.5q5.5 -7.5 2.5 -14.5t-8 -7.5t-5 6.5t-4 17t-8 15l3 2q14 -11 19.5 -18.5zM164 67q4 -9 1 -15.5t-8 -6.5
t-5 9.5t-2 17t-4 13.5l3 2q11 -11 15 -20zM133.5 54q-2.5 -9 -9.5 -12.5t-11.5 1t3.5 12.5t10.5 15.5t2.5 14.5h4q3 -22 0.5 -31zM90 154h-48l-11 -58h52zM43 161h46l8 10l14 -13l-8 -6l-13 -107l18 3l1 -5q-38 -9 -62 -15.5t-30 -10.5l-9 17q34 4 68 9l6 46h-52l-5 -6
l-12 12l7 7l19 105q-9 0 -21 -3l-10 10h86l13 11l16 -18h-70z" />
  </g>

</svg>
