<?xml version="1.0" standalone="no"?>
<!DOCTYPE svg PUBLIC "-//W3C//DTD SVG 1.1//EN" "http://www.w3.org/Graphics/SVG/1.1/DTD/svg11.dtd" >
<svg xmlns="http://www.w3.org/2000/svg" xmlns:xlink="http://www.w3.org/1999/xlink" version="1.1" viewBox="0 -200 1000 1000">
  <g transform="matrix(1 0 0 -1 0 800)">
   <path fill="currentColor"
d="M518 755l38 -43h243l21 29l44 -37q6 -4 6 -9q0 -6 -11 -9l-18 -9v-300l3 -59q0 -34 -40 -34v51h-45v-207q-1 -24 11 -30q10 -6 52 -6h18q52 -1 64 11q14 10 18 56v5q5 53 6 98h14l6 -87q0 -50 24 -68q-17 -30 -46 -38q-26 -9 -105 -9q-62 -1 -78 12q-19 11 -21 54v209
h-68q-12 -265 -287 -313l-2 13q242 79 249 300h-52v-17q4 -38 -44 -44q7 59 7 148v283q0 15 -19 35zM250 792l71 -29q6 -2 7 -5q2 -2 -2 -4q-16 -7 -24 -17v-41h102l24 34l57 -44q9 -7 7 -9q0 -1 -16 -1h-174v-41q38 -9 106 -40q59 -29 69 -57q6 -26 -10 -33q-15 -7 -27 17
q-16 24 -59 53q-33 22 -79 43v-66l2 -47q0 -17 -12 -24q-9 -7 -31 -12q3 29 6 121v76q-62 -129 -228 -199l-3 12q138 82 193 197h-90q-22 0 -37 -11l-28 31h193v50q0 12 -25 37zM943 828q1 -1 1 -4q0 -4 -4 -4t-6 1q-32 6 -106 -75l-11 6l51 80h-723q-20 -100 -66 -100
q-21 2 -22 19q0 3 12 17q57 69 67 142h14v-15q0 -23 -2 -43h723l21 24zM804 577h-242v-104h242v104zM804 457h-242v-102h242v102zM418 342l26 33l60 -43q7 -4 7 -7t-13 -3h-203v-214q3 -67 -83 -73q1 38 -95 54l2 14l29 -6q54 -10 80 -11h2q24 0 28 36v200h-144
q-26 0 -39 -12l-34 32h377zM562 593h242v98h-242v-98zM365 448l25 33l61 -43q7 -4 7 -7t-13 -3h-269q-26 0 -39 -12l-34 32h262zM160 288l49 -31q11 -6 11 -9t-4 -4h-4q-10 0 -19 -4q-52 -75 -147 -150l-7 8q98 109 121 165q0 7 -7 19zM324 265l6 11q130 -65 130 -133
q-1 -24 -24 -30h-1q-15 0 -19 27q-11 69 -92 125zM425 968l4 10q101 -33 102 -89q-1 -26 -24 -27q-16 0 -18 21q-8 50 -64 85z" />
  </g>

</svg>
