<?xml version="1.0" standalone="no"?>
<!DOCTYPE svg PUBLIC "-//W3C//DTD SVG 1.1//EN" "http://www.w3.org/Graphics/SVG/1.1/DTD/svg11.dtd" >
<svg xmlns="http://www.w3.org/2000/svg" xmlns:xlink="http://www.w3.org/1999/xlink" version="1.1" viewBox="0 -36 256 256">
  <g transform="matrix(1 0 0 -1 0 220)">
   <path fill="currentColor"
d="M204 184v-7h-52v7h52zM122 211h-81q0 -10 -3.5 -13t-10 -5t-11 0.5t5.5 9.5t14 21h5v-6h81v12h-51q-10 0 -20 -3l-10 10h148l15 9l18 -16h-85v-12h84l9 6l17 -10q-13 -2 -34 -20l-4 2l13 15h-85q0 -21 1 -30l-17 -4q1 10 1 34zM106 201v-7h-51v7h51zM202 201v-7h-50v7h50
zM106 184v-7h-53v7h53zM111 161q0 12 -1 19l22 -8l-8 -4v-7h23l12 7l16 -14h-51v-11h22q13 5 29 13.5t27 16.5l15 -9q-7 -2 -16 -6.5t-33 -14.5h45l12 9l19 -16h-86q-18 -7 -62 -17v-3q32 4 58 9.5t36 9.5l13 -12q-16 -1 -39.5 -4t-67.5 -7q0 -1 0.5 -3t7.5 -2h97q4 0 6 3
t3 16h5q1 -9 3 -13t7 -6q-4 -5 -9 -7.5t-14 -2.5h-106q-13 0 -13 11v8q-34 -6 -67 -9v4q27 4 67 12q0 3 -1 7l13 -4q14 3 38 10h-88q-11 -1 -21 -3l-9 10h96v11h-39q-10 0 -20 -2l-10 9h69zM42 51l9 -4q4 2 17 11h-21q-11 0 -21 -2l-9 9h40v11h-1q-10 0 -20 -2l-10 9h31
q0 13 -1 21l20 -7l-6 -5v-9h2l7 7l9 -11q9 11 12 17l14 -11l-6 -2q-7 -7 -19 -18h12l9 8l15 -15h-41q-14 -10 -30 -18h34l9 8l15 -15h-57v-11l59 5l1 -3q-63 -13 -69 -17l-8 12q4 2 4 7v9q-9 -5 -31 -12l-1 4q17 7 32 15v9zM86 76h-16v-11h6q4 4 10 11zM154 47l8 -4
q8 5 17 13h-21q-11 0 -20 -3l-10 10h41v11h-1q-11 0 -21 -2l-9 9h31q0 11 -1 19l20 -7l-6 -5v-7h2l6 7l10 -11q8 12 11 17l14 -10l-6 -3l-18 -18h12l8 8l15 -15h-42q-14 -11 -27 -20v-5q27 12 36 20l11 -10q-29 -9 -47 -15v-2q0 -3 5 -3h43q7 0 8.5 4.5t2.5 16.5h4
q0 -6 0.5 -14.5t7.5 -8.5q-5 -7 -14 -8h-56q-14 1 -14 13v7q-8 -5 -31 -12v4q19 8 31 15v9zM198 74h-16v-11h5z" />
  </g>

</svg>
