<?xml version="1.0" standalone="no"?>
<!DOCTYPE svg PUBLIC "-//W3C//DTD SVG 1.1//EN" "http://www.w3.org/Graphics/SVG/1.1/DTD/svg11.dtd" >
<svg xmlns="http://www.w3.org/2000/svg" xmlns:xlink="http://www.w3.org/1999/xlink" version="1.1" viewBox="0 -205 1024 1024">
  <g transform="matrix(1 0 0 -1 0 819)">
   <path fill="currentColor"
d="M42 814h322q38 80 68 166l72 -36q14 -6 14 -8q0 -7 -18 -16q-12 -7 -24 -20q-13 -10 -52 -86h434l48 60l76 -68q3 -4 4 -10q1 -10 -16 -10h-562q-51 -93 -110 -186l44 -32h194v158l84 -36q7 -3 8 -6q1 -9 -6 -12l-30 -16v-88h182l28 44l68 -40q9 -6 10 -12q0 -6 -32 -32
v-310q1 -38 -16 -58q-14 -20 -64 -33q-7 42 -50 57q-41 12 -76 28l4 14q69 -15 90 -18t40 0q18 0 18 30v302h-202v-372l6 -99q-1 -15 -28 -30q-25 -16 -38 -14l4 157v358h-196v-270l4 -90q0 -15 -24 -26q-24 -12 -38 -12l4 124v310q-54 -82 -108 -152q-54 -69 -128 -134
l-10 12q87 102 172 238q84 135 138 246h-224q-21 0 -68 -8l-16 36v0v0z" />
  </g>

</svg>
