<?xml version="1.0" standalone="no"?>
<!DOCTYPE svg PUBLIC "-//W3C//DTD SVG 1.1//EN" "http://www.w3.org/Graphics/SVG/1.1/DTD/svg11.dtd" >
<svg xmlns="http://www.w3.org/2000/svg" xmlns:xlink="http://www.w3.org/1999/xlink" version="1.1" viewBox="0 -36 256 256">
  <g transform="matrix(1 0 0 -1 0 220)">
   <path fill="currentColor"
d="M179.5 231.5q7.5 -3.5 11 -7.5t-1 -12t-12.5 3t-23 20l2 3q16 -3 23.5 -6.5zM116 129q-6 -3 -16 -12.5t-30 -25.5h104l7 9l14 -13l-6 -7q-4 -44 -9.5 -54.5t-21.5 -16.5q-4 15 -32 21v4q24 -3 30.5 -3t10.5 5.5t8 47.5h-63q-8 -30 -27 -47.5t-49 -27.5l-1 4q54 25 61 71
h-33q-17 -11 -38 -20l-1 4q28 18 47.5 38.5t27.5 35.5zM146 134q38 -16 58.5 -29t17 -25.5t-18.5 6t-60 44.5zM44 208q26 20 34 33l15 -12q-8 -3 -17.5 -9t-29.5 -16zM159 201h32l11 11l18 -18h-99q-9 -18 -14 -26h103l13 12l19 -19h-82q21 -16 42 -23t43 -9v-4
q-14 0 -20 -14q-23 7 -41.5 20.5t-31.5 29.5h-48q-31 -39 -90 -56v4q45 20 74 52h-45q-11 0 -20 -2l-10 9h79q6 9 14 26h-40q-10 0 -20 -2l-9 9h70q6 18 10 44l22 -8l-9 -6l-8 -30h29h8z" />
  </g>

</svg>
