<?xml version="1.0" standalone="no"?>
<!DOCTYPE svg PUBLIC "-//W3C//DTD SVG 1.1//EN" "http://www.w3.org/Graphics/SVG/1.1/DTD/svg11.dtd" >
<svg xmlns="http://www.w3.org/2000/svg" xmlns:xlink="http://www.w3.org/1999/xlink" version="1.1" viewBox="0 -205 1024 1024">
  <g transform="matrix(1 0 0 -1 0 819)">
   <path fill="currentColor"
d="M800 554l34 26l50 -40q6 -6 6 -8t-30 -22v-84l4 -54q0 -15 -18 -26q-15 -9 -36 -12v28h-444v-6q1 -9 -52 -30l4 92v160l52 -24h430v0v0zM368 386h198v144h-198v-144v0v0zM614 386h196v144h-196v-144v0v0zM398 508l10 12q42 -20 70 -40q26 -21 28 -42q1 -19 -12 -28
q-11 -10 -22 -4q-11 3 -16 18q-3 12 -14 34q-10 20 -44 50v0v0zM652 408q39 63 64 108l54 -28q6 -4 4 -10q-3 -4 -8 -4q-6 0 -14 -2q-9 -3 -30 -20q-21 -18 -54 -54l-16 10v0v0zM438 642h226l28 28l44 -34q3 -4 4 -10q1 -7 -16 -8h-220q-20 0 -46 -8l-20 32v0v0zM396 87h382
v77h-382v-77v0v0zM346 318l60 -28h366l28 28l56 -44l4 -8q0 -7 -32 -22v-133l4 -64q0 -12 -18 -22q-18 -9 -36 -10v48h-382v-16q0 -14 -18 -26q-15 -12 -36 -12l4 96v213v0v0zM396 188h382v78h-382v-78v0v0zM648 798q2 -6 2 -8q0 -6 -32 -14q41 -35 104 -64q62 -30 124 -44
q59 -15 140 -18v-18q-48 -6 -66 -14q-16 -7 -28 -26q-36 12 -84 30q-45 18 -108 58q-61 39 -100 84q-61 -48 -148 -98q-87 -49 -216 -104l-6 14q118 66 206 126t146 124l66 -28v0v0zM854 868l44 50l64 -60l2 -4q0 -10 -8 -10h-736v-300q-4 -214 -34 -322q-30 -104 -146 -209
l-14 12q87 98 114 193q24 93 30 282q-91 -84 -110 -122l-48 50l158 104v382l54 -46h630v0v0zM472 978l8 12q51 -12 78 -24q27 -10 42 -26q12 -16 6 -38q-6 -20 -26 -22q-21 -1 -30 20q-7 21 -22 36t-56 42v0v0zM34 756l12 8q42 -36 66 -66q21 -28 28 -58q7 -31 -4 -46
q-10 -14 -22 -16q-12 -3 -24 6q-10 8 -8 38q1 27 -10 58q-9 30 -38 76v0v0z" />
  </g>

</svg>
