<?xml version="1.0" standalone="no"?>
<!DOCTYPE svg PUBLIC "-//W3C//DTD SVG 1.1//EN" "http://www.w3.org/Graphics/SVG/1.1/DTD/svg11.dtd" >
<svg xmlns="http://www.w3.org/2000/svg" xmlns:xlink="http://www.w3.org/1999/xlink" version="1.1" viewBox="0 -52 256 256">
  <g transform="matrix(1 0 0 -1 0 204)">
   <path fill="currentColor"
d="M50 246l21 -10q4 -2 2 -3q-8 0 -11 -6q-10 -18 -19 -34h34l9 11l13 -13q1 -1 1 -2t-3 -2l-4 -2v-111l1 -27q0 -9 -13 -10v22h-49v-20q0 -10 -14 -11q2 9 2 45v118q0 6 -5 11l4 3l11 -12h7l6 14q11 26 9 30l-1 2q0 2 -3 5zM96 86l-3 4q45 27 81 64h-59q-6 0 -11 -3l-9 8
h61v38h-22q-6 0 -11 -3l-8 8h41v36q0 4 -7 10l2 3l23 -8q3 -1 1 -3q-4 -2 -7 -5v-33h11l7 9l15 -11q2 -1 2 -2q-1 -1 -3 -1h-32v-38h10q16 18 26 31q15 21 15 24q0 2 -1 5l2 2l16 -9q2 -2 2 -3t-3 -1q-6 -1 -7 -3q-18 -25 -36 -46h31l8 10l16 -12q2 -1 2 -2q-1 -1 -3 -1h-58
q-20 -21 -41 -36h63l8 10l18 -12q2 -2 1 -2q0 -1 -3 -1h-72l-12 -32h62l8 10l15 -13q1 -3 -1 -3l-6 -3q0 -3 -1 -10q-1 -6 -2 -10q0 -9 -6 -20q-4 -11 -13 -16q-7 -4 -18 -7q-1 6 -9 9q-12 4 -24 7v4q2 0 5 -1q11 -3 24 -3q13 -2 20 6q8 7 9 19q1 5 2 17q1 6 1 9h-65l-6 -7
l-12 10q5 2 8 8l10 26h-11q-11 -9 -38 -24zM81 128h-49v-64h49v64zM32 133h49v55h-49v-55z" />
  </g>

</svg>
