<?xml version="1.0" standalone="no"?>
<!DOCTYPE svg PUBLIC "-//W3C//DTD SVG 1.1//EN" "http://www.w3.org/Graphics/SVG/1.1/DTD/svg11.dtd" >
<svg xmlns="http://www.w3.org/2000/svg" xmlns:xlink="http://www.w3.org/1999/xlink" version="1.1" viewBox="0 -36 256 256">
  <g transform="matrix(1 0 0 -1 0 220)">
   <path fill="currentColor"
d="M204 120l11 10l16 -17h-54v-33h30l12 10l14 -17h-56v-37q12 -6 33.5 -7.5t33.5 0.5v-4q-10 -2 -13 -11q-36 0 -51.5 7.5t-26.5 19t-20 29.5q-11 -40 -40 -59l-2 2q29 29 35 93l19 -9q-5 -4 -6 -6t-4 -14q13 -21 29 -35v71h-26q-10 0 -19 -2l-9 9h94zM221 196q0 -14 1 -27
l-15 -6v9h-74v-5l-14 -6q1 20 1 37t-1 40l14 -8h73l8 11l14 -13l-7 -6v-26zM133 204h74v19h-74v-19zM133 179h74v18h-74v-18zM129 144q-10 0 -19 -2l-9 9h127l7 8l13 -16q-8 0 -25 -17l-3 2l8 16h-99zM51 239l23 -11l-9 -7q-3 -18 -7 -45l25 3q0 7 -1 14l15 -4l-1 -8l12 1
v-4l-12 -3q-3 -68 -16 -98q15 -11 20.5 -17t2.5 -17.5t-12.5 3.5t-16.5 20q-22 -32 -64 -55l-2 4q37 28 56 58q-8 6 -36 20q11 39 15 69q-14 -3 -26 -7l-5 17q16 0 32 2q6 38 7 65zM57 164q-6 -31 -15 -68q15 -7 26 -13q12 27 15 87z" />
  </g>

</svg>
