<?xml version="1.0" standalone="no"?>
<!DOCTYPE svg PUBLIC "-//W3C//DTD SVG 1.1//EN" "http://www.w3.org/Graphics/SVG/1.1/DTD/svg11.dtd" >
<svg xmlns="http://www.w3.org/2000/svg" xmlns:xlink="http://www.w3.org/1999/xlink" version="1.1" viewBox="0 -36 256 256">
  <g transform="matrix(1 0 0 -1 0 220)">
   <path fill="currentColor"
d="M206 152l16 -16h-65q44 -26 91 -28v-5q-13 1 -19 -12q-48 15 -80 45h-38q-35 -32 -103 -45l-1 4q57 17 86 41h-28q-11 0 -20 -2l-10 9h63q8 9 13 18l18 -11l-6 -1l-7 -6h77zM114.5 25.5q7.5 -0.5 7.5 5.5v30q-21 -2 -37 -4t-32 -7l-7 16q13 1 31 8t45 20q-15 -2 -31 -4
t-26 -6l-8 16q6 1 26 9.5t31 20.5l18 -10q-9 -2 -27 -9.5t-32 -13.5l57 2q19 8 33 20l16 -12q-13 -3 -33.5 -12.5t-69.5 -28.5l106 6q-9 9 -22 19l4 3q16 -7 28.5 -16t14.5 -15.5t-2.5 -12t-9.5 2l-9 13.5l-50 -4v-33q0 -10 -4.5 -14t-17.5 -7q-2 13 -25 16v3
q18 -1 25.5 -1.5zM97 36q-11 0 -31 -10t-47 -17l-1 2q18 9 34.5 18.5t27.5 21.5zM150 51q33 -7 48.5 -12.5t18 -12.5t-0.5 -12t-13.5 5t-53.5 29zM136 160l-16 -4q1 24 1 33q-45 -34 -110 -43l-1 4q57 14 89 39h-48q-10 0 -21 -2l-10 9h59q-3 6 -5.5 9.5t-11.5 12.5l2 2
q19 -7 25 -12t-3 -12h35v28q-30 -2 -78 -2v5q26 1 50.5 3t53.5 5.5t46 9.5l15 -15q-20 0 -74 -5v-29h22q15 15 23 30l20 -11q-13 -3 -37 -19h46l16 11l16 -18h-106q0 -27 2 -29zM145 190q44 -25 99 -28v-3q-15 -3 -18 -12q-55 14 -88 42z" />
  </g>

</svg>
