<?xml version="1.0" standalone="no"?>
<!DOCTYPE svg PUBLIC "-//W3C//DTD SVG 1.1//EN" "http://www.w3.org/Graphics/SVG/1.1/DTD/svg11.dtd" >
<svg xmlns="http://www.w3.org/2000/svg" xmlns:xlink="http://www.w3.org/1999/xlink" version="1.1" viewBox="0 -140 1000 1000">
  <g transform="matrix(1 0 0 -1 0 860)">
   <path fill="currentColor"
d="M655 688v22h80v209q0 2 -2 24q91 -6 91 -26q0 -10 -25 -20v-187h59q22 24 34 24t35.5 -18.5t23.5 -29.5q0 -12 -25 -25v-175q0 -252 -47 -348q-11 -23 -37 -43t-45 -20q-14 0 -17 17q-5 25 -14 26l-72 17l2 16q81 -11 97 -11q67 0 70 427q0 84 -1 121h-63q1 -108 -4 -182
t-19.5 -144t-42 -120.5t-71.5 -96.5t-109 -88l-11 13q28 24 51 47t41.5 49.5t32 48t24 54t17.5 54t12 62t7.5 64t4.5 73.5t2 77.5t1 88.5h-80zM383 509v-87h60v87h-60zM507 509v-87h63v87h-63zM383 614v-83h60v83h-60zM507 614v-83h63v83h-63zM58 510l21 44q17 36 17 93
q0 27 -5 70l20 4q21 -95 21 -164q0 -90 -48 -90q-12 0 -20 14t-6 29zM287 754h156v75q-22 -4 -144 -20l-2 17q166 36 286 114q54 -40 54 -53q0 -11 -30 -11q-2 0 -7.5 0.5t-8.5 0.5q-63 -28 -84 -34v-89h68q36 43 49 43q16 0 65 -55v-10h-182v-96h62q25 25 39 25
q12 0 33.5 -18.5t21.5 -28.5q0 -11 -29 -19v-185q0 -7 1 -11q0 -9 -1.5 -13t-10 -8.5t-27.5 -7.5q-12 -2 -14 -2q-9 0 -10.5 5.5t-1.5 26.5h-63v-98h67q30 39 43 39q16 0 60 -47l-2 -14h-168v-83l156 38l-3 -19l-290 -109q-14 -27 -26 -27q-23 0 -44 70l143 35v95h-134v22
h134v98h-60q0 -22 -6 -28t-37 -11q-3 -1 -8 -1q-9 0 -11 6.5t-2 32.5v263l61 -26h63v96h-123q22 -16 32 -27q-1 -10 -30 -10q-42 -54 -59 -73t-35 -32q-5 -184 -20 -249q105 -66 105 -115q0 -47 -29 -47q-24 0 -33 41q-12 57 -49 98q-37 -141 -132 -251l-14 11
q68 103 88 217.5t20 321.5v92q0 183 -3 220q5 -2 22.5 -7t26.5 -8t21.5 -7.5t18.5 -8.5t6 -7q0 -7 -28 -17v-251q33 64 53 135q2 0 6 -4z" />
  </g>

</svg>
