<?xml version="1.0" standalone="no"?>
<!DOCTYPE svg PUBLIC "-//W3C//DTD SVG 1.1//EN" "http://www.w3.org/Graphics/SVG/1.1/DTD/svg11.dtd" >
<svg xmlns="http://www.w3.org/2000/svg" xmlns:xlink="http://www.w3.org/1999/xlink" version="1.1" viewBox="0 -205 1024 1024">
  <g transform="matrix(1 0 0 -1 0 819)">
   <path fill="currentColor"
d="M748 952q6 -3 6 -6q7 -7 -6 -14q-22 -4 -38 -16l-52 -70h206l32 34l52 -52q8 -6 8 -12q0 -5 -14 -10q-27 -10 -44 -28q-79 -105 -140 -152q-59 -48 -112 -80q-54 -34 -158 -70l-6 16q92 50 142 82q48 32 112 88q62 53 128 158h-224l-24 -32q51 -33 72 -60q19 -24 14 -48
q-3 -21 -12 -30q-9 -10 -24 -8q-13 2 -16 26q-1 21 -8 46q-5 24 -40 60q-64 -72 -118 -114l-12 12q33 33 102 132t102 186l72 -38v0v0zM808 536q6 -3 6 -8q3 -6 -14 -12q-10 1 -22 -4q-13 -3 -70 -60h194l32 34l58 -50q3 -4 4 -8q0 -5 -12 -10q-29 -12 -46 -36
q-85 -127 -154 -184t-162 -99q-91 -42 -196 -64l-4 18q90 28 184 76q93 46 156 107q63 60 142 190h-218l-34 -32q50 -45 64 -74q15 -30 12 -50q-1 -18 -14 -30q-13 -10 -28 -4q-16 6 -14 30t-4 52q-6 26 -30 64q-71 -61 -154 -110l-10 14q57 41 138 128q81 84 132 168
l64 -46v0v0zM30 832h192v168q77 -31 80 -34t4 -8q0 -3 -30 -18v-108h86l40 50l56 -56q3 -3 4 -6q0 -13 -12 -14h-174v-102h78l34 38l56 -42l4 -8q1 -6 -28 -26v-174l4 -84q0 -10 -18 -22q-18 -10 -38 -10v34h-92v-116h90l32 42l48 -52q7 -10 0 -16h-170v-133l4 -66
q1 -10 -22 -24q-20 -15 -40 -12l4 106v129h-150q-18 -1 -36 -8l-18 34h204v116h-88v-16q3 -10 -18 -22q-21 -10 -38 -10l4 104v270l52 -32h88v102h-120q-21 0 -56 -8l-16 34v0v0zM134 436h88v114h-88v-114v0v0zM276 550v-114h92v114h-92v0v0zM134 576h88v102h-88v-102v0v0z
M276 678v-102h92v102h-92v0v0z" />
  </g>

</svg>
