<?xml version="1.0" standalone="no"?>
<!DOCTYPE svg PUBLIC "-//W3C//DTD SVG 1.1//EN" "http://www.w3.org/Graphics/SVG/1.1/DTD/svg11.dtd" >
<svg xmlns="http://www.w3.org/2000/svg" xmlns:xlink="http://www.w3.org/1999/xlink" version="1.1" viewBox="0 -36 256 256">
  <g transform="matrix(1 0 0 -1 0 220)">
   <path fill="currentColor"
d="M63 246l21 -9l-7 -8v-27h24l9 9l15 -14q-10 -2 -30 -24l-2 2l9 20h-25v-57h15l8 8l14 -14l-9 -5q-7 -29 -16 -47q18 -16 22 -27t-0.5 -17.5t-10 6t-16.5 26.5q-23 -39 -56 -61l-2 3q32 31 49 67q-12 13 -26 28l2 3q18 -12 28 -20q8 16 13 43h-52q0 -37 -6 -65t-24 -51
l-3 2q14 30 17.5 64t3 70.5t-1.5 59.5l14 -9h24q0 20 -1 44zM40 138h24v57h-24v-57zM177 196h-42q1 -11 -1 -15t-7 -6.5t-9 -0.5t-0.5 7.5t6.5 11t7 20.5h4v-10h42v22h-14q-10 0 -20 -2l-10 9h77l11 9l14 -16h-46v-22h39l10 8l12 -15q-11 -1 -25 -19l-3 1l8 18h-41
q0 -22 1 -48l-14 -5q1 31 1 53zM129 41v42q0 17 -2 29l15 -7h25q4 10 5 20h-23q-11 0 -20 -2l-10 9h101l12 10l16 -17h-60q-7 -9 -16 -20h51l8 8l14 -14l-9 -6v-62q2 -18 -15 -24q-1 11 -19 16v4q16 -2 18.5 -1.5t2.5 11.5v61h-19v-66l-13 -7v73h-18v-73l-12 -7v80h-19v-83
l-15 -7q2 21 2 33zM168 176v-7h-27v7h27zM168 154v-7h-27v7h27zM224 154v-7h-27v7h27zM224 176v-7h-27v7h27z" />
  </g>

</svg>
