<?xml version="1.0" standalone="no"?>
<!DOCTYPE svg PUBLIC "-//W3C//DTD SVG 1.1//EN" "http://www.w3.org/Graphics/SVG/1.1/DTD/svg11.dtd" >
<svg xmlns="http://www.w3.org/2000/svg" xmlns:xlink="http://www.w3.org/1999/xlink" version="1.1" viewBox="0 -205 1024 1024">
  <g transform="matrix(1 0 0 -1 0 819)">
   <path fill="currentColor"
d="M510 924l56 -54h264l30 44l68 -52q6 -4 6 -8q0 -6 -44 -38v-594l4 -93q0 -12 -18 -24q-18 -11 -36 -14v89h-278v-71q0 -14 -20 -28q-18 -14 -36 -14l4 129v728v0v0zM562 208h278v306h-278v-306v0v0zM562 542h278v300h-278v-300v0v0zM392 936l62 -52q7 -7 8 -16
q-3 -6 -20 -12q-20 -9 -34 -30q-53 -90 -112 -192q60 -54 94 -114q32 -60 32 -114q-1 -53 -26 -88q-25 -33 -82 -60q-7 30 -26 46q-18 14 -68 32l4 20q50 -15 88 -18q35 -2 50 30q12 32 6 80q-5 47 -28 92q-24 42 -72 90l102 236h-188v-708l4 -77q0 -14 -20 -28
q-19 -13 -38 -14l4 119v776l60 -44h164l36 46v0v0z" />
  </g>

</svg>
