<?xml version="1.0" standalone="no"?>
<!DOCTYPE svg PUBLIC "-//W3C//DTD SVG 1.1//EN" "http://www.w3.org/Graphics/SVG/1.1/DTD/svg11.dtd" >
<svg xmlns="http://www.w3.org/2000/svg" xmlns:xlink="http://www.w3.org/1999/xlink" version="1.1" viewBox="0 -36 256 256">
  <g transform="matrix(1 0 0 -1 0 220)">
   <path fill="currentColor"
d="M69 179h21l6 9l16 -12l-8 -6q0 -65 1 -77l-13 -6v7h-56v-7l-13 -6q1 21 1 92q-4 -6 -13 -17l-2 3q18 29 28 52.5t10 32.5l20 -10q-7 -1 -17 -20h30l9 10l14 -14q-10 0 -34 -31zM32 183l7 -4h24l17 28h-32q-7 -10 -16 -24zM36 139h22v33h-22v-33zM70 139h22v33h-22v-33z
M36 101h22v31h-22v-31zM70 101h22v31h-22v-31zM30.5 42q-1.5 -8 -5.5 -11.5t-12 -3.5t1 12t13 34h4q1 -23 -0.5 -31zM46 76q16 -19 16.5 -28.5t-6 -15t-7 8.5t-6.5 34zM66 79q24 -16 24.5 -25.5t-5 -14t-7.5 5.5t-14 32zM88 84q20 -11 25.5 -18.5t0 -17t-9 2.5t-19.5 31z
M171 246l20 -9l-8 -6l-2 -18h35l11 12l14 -19h-61l-2 -22h28l6 9l14 -12l-7 -5v-102h5l11 11l14 -18h-113q-10 0 -19 -2l-9 9h21q0 97 -1 117l13 -7h25l2 22h-28q-10 0 -19 -2l-9 9h57q2 21 2 33zM141 157h66v20h-66v-20zM141 130h66v20h-66v-20zM141 102h66v21h-66v-21z
M141 74h66v21h-66v-21zM143 33.5q-13 -12.5 -37 -25.5l-2 3q33 26 45 52l16 -15q-9 -2 -22 -14.5zM234.5 28.5q1.5 -9.5 -1.5 -16.5t-10.5 7t-36.5 39l2 4q45 -24 46.5 -33.5z" />
  </g>

</svg>
