<?xml version="1.0" standalone="no"?>
<!DOCTYPE svg PUBLIC "-//W3C//DTD SVG 1.1//EN" "http://www.w3.org/Graphics/SVG/1.1/DTD/svg11.dtd" >
<svg xmlns="http://www.w3.org/2000/svg" xmlns:xlink="http://www.w3.org/1999/xlink" version="1.1" viewBox="0 -36 256 256">
  <g transform="matrix(1 0 0 -1 0 220)">
   <path fill="currentColor"
d="M42 245l16 -7h58l11 10l15 -17h-85v-11h54l9 9l14 -16h-77v-8h53l9 8l14 -15h-76v-8h68l10 8l18 -15h-81l10 -8q-7 -1 -16.5 -6t-20.5 -10l72 2q-10 6 -20 13l2 3q28 -7 33.5 -12.5t1.5 -12.5t-7 -2.5t-7 8.5q-23 -3 -52 -6.5t-34 -6.5l-9 14q9 1 20.5 9t16.5 15h-22
q-11 -1 -22 -3l-10 10h35q0 36 -1 55zM233 234q-6 0 -31 -9.5t-59 -15.5v4q26 6 49.5 17.5t27.5 16.5zM243 204q-6 0 -34 -9.5t-56 -13.5l-3 3q30 9 51.5 18t28.5 16zM249 174q-7 -1 -36 -9.5t-71 -13.5v4q39 8 63.5 17.5t30.5 16.5zM136 90l-14 -3v4h-63v-4l-14 -4
q1 18 1 33.5t-1 28.5l14 -6h62l7 8l14 -12l-7 -5q0 -29 1 -40zM70 77h67l8 8l12 -11l-8 -6q-4 -30 -6.5 -38.5t-8.5 -14t-14 -7.5q-2 12 -25 17l1 4q23 -3 27.5 -2.5t7 9t5.5 34.5h-10q-13 -20 -35 -34.5t-60 -21.5v4q56 17 79 52h-15q-25 -28 -72 -40v4q37 16 55 36h-16
q-22 -14 -45 -22l-1 3q21 13 33.5 23.5t18.5 19.5l14 -9q-6 -2 -12 -8zM59 120h63v12h-63v-12zM59 98h63v15h-63v-15zM168 68v41q0 9 -1 21l20 -6l-6 -7v-71l-14 -5q1 17 1 27zM208 149l21 -8l-7 -6v-103q0 -15 -16 -22q-4 14 -25 17v4q17 -1 22.5 -1t5.5 6v78q0 16 -1 35z
" />
  </g>

</svg>
