<?xml version="1.0" standalone="no"?>
<!DOCTYPE svg PUBLIC "-//W3C//DTD SVG 1.1//EN" "http://www.w3.org/Graphics/SVG/1.1/DTD/svg11.dtd" >
<svg xmlns="http://www.w3.org/2000/svg" xmlns:xlink="http://www.w3.org/1999/xlink" version="1.1" viewBox="0 -339 2048 2048">
  <g transform="matrix(1 0 0 -1 0 1709)">
   <path fill="currentColor"
d="M1305 1639h422l92 94l109 -83q22 -17 27 -27q4 -7 4 -14q0 -8 -5 -15q-11 -14 -22 -14l-655 1q-47 -93 -99 -167q-45 -65 -90 -116q-19 -21 -54 -57l-31 26q40 51 66 92q54 85 94 169q57 119 99 262q17 56 34 152l106 -30q54 -16 75 -39q7 -7 7 -15q0 -13 -14 -23
q-15 -11 -53 -15l-40 -3q-28 -80 -49 -128q-9 -20 -23 -50zM369 198v445q0 28 -12 129l117 -71h1084l68 77l84 -55q36 -23 42 -33q4 -7 4 -14q0 -13 -12 -25q-7 -7 -24 -16q-5 -2 -46 -22v-415h57l101 105l134 -105q9 -8 14 -19q4 -8 4 -15q0 -8 -6 -14q-8 -9 -26 -9h-1680
q-37 0 -98 -5q-17 -1 -50 -6l-39 86q63 -9 87 -11q7 -1 51 -4q36 -3 49 -3h97zM464 198h291v445h-291v-445zM851 198h316v445h-316v-445zM1263 198h315v445h-315v-445zM632 1768v-233h168l61 73l72 -50q42 -28 42 -48q0 -11 -8 -20q-11 -12 -27 -21q-12 -6 -28 -12v-167
l39 -32q13 -9 15.5 -11.5t4.5 -5.5q3 -6 3 -12q0 -9 -7 -15q-5 -4 -12 -5h-15l-308 -1v-257h168l94 95l106 -84q23 -18 29 -27q5 -9 5 -16q0 -11 -10 -19q-8 -6 -17 -6l-734 1q-10 -12 -19 -15q-11 -5 -30 -7q-10 -2 -17 -2q-29 0 -29 26v991l114 -62h493l92 94l110 -83
q21 -16 27 -27q4 -8 4 -15q0 -9 -5 -16q-8 -11 -22 -11h-359zM274 1535h262v233h-262v-233zM274 1264h545v217h-545v-217zM274 951h262v257h-262v-257zM1306 931v-23q0 -14 -17 -27q-16 -13 -36 -13q-16 0 -28 7t-12 23v520l110 -64h408l60 73l68 -49q30 -22 37 -35
q5 -8 5 -15q0 -11 -8 -19q-10 -9 -30 -19q-9 -5 -27 -14v-259l35 -25q27 -19 28 -39q0 -10 -10 -17q-8 -5 -12 -5h-41h-530zM1743 988v308h-437v-308h437z" />
  </g>

</svg>
