<?xml version="1.0" standalone="no"?>
<!DOCTYPE svg PUBLIC "-//W3C//DTD SVG 1.1//EN" "http://www.w3.org/Graphics/SVG/1.1/DTD/svg11.dtd" >
<svg xmlns="http://www.w3.org/2000/svg" xmlns:xlink="http://www.w3.org/1999/xlink" version="1.1" viewBox="0 -36 256 256">
  <g transform="matrix(1 0 0 -1 0 220)">
   <path fill="currentColor"
d="M123.5 75.5q6.5 39.5 5.5 127.5l-2 35l14 -8h82l11 11l15 -18h-107q0 -88 -2.5 -116t-11 -55t-27.5 -45l-3 2q19 27 25.5 66.5zM183 220l21 -9l-7 -7v-23h16l9 10l15 -17h-40v-42h24l11 10l15 -17h-77q-10 0 -19 -3l-9 10h42v42h-9q-10 -1 -19 -3l-9 10h37q0 25 -1 39z
M183 121l21 -8l-7 -7v-20h18l11 9l15 -16h-44v-48h24l12 12l16 -19h-91q-10 -1 -19 -3l-9 10h54v48h-13q-10 0 -19 -2l-9 9h41q0 17 -1 35zM82 239l-6 -6v-27h15l10 11l13 -18h-38v-30h22l10 10l13 -17h-95l-10 -3l-8 10h23q0 47 -1 63l20 -9l-6 -6v-48h19q0 62 -1 78z
M55 153q-5 -4 -8 -13q13 -7 14 -12t-2.5 -10t-5 2t-7.5 18q-3 -12 -15 -24l-2 2q10 19 13 43zM103 106v-7h-81v7h81zM15 146l19 -9l-7 -7v-88l70 8v98l19 -10l-7 -6v-78q0 -9 1 -20l-13 -5v15q-67 -11 -79 -20l-8 13q5 3 5 10v99zM90 153q-5 -4 -9 -14q13 -9 13 -14.5
t-4.5 -7t-5.5 4.5t-5 14q-5 -11 -16 -24l-2 2q12 22 16 45zM58 88q-5 -3 -9 -12q12 -8 13 -13.5t-3.5 -8t-5.5 3.5t-5 15q-5 -13 -17 -23l-2 1q13 22 16 43zM91 87q-5 -2 -9 -12q11 -6 13 -12t-3 -9t-6 3.5t-5 15.5q-5 -12 -18 -24l-2 2q13 20 16 42z" />
  </g>

</svg>
