<?xml version="1.0" standalone="no"?>
<!DOCTYPE svg PUBLIC "-//W3C//DTD SVG 1.1//EN" "http://www.w3.org/Graphics/SVG/1.1/DTD/svg11.dtd" >
<svg xmlns="http://www.w3.org/2000/svg" xmlns:xlink="http://www.w3.org/1999/xlink" version="1.1" viewBox="0 -36 256 256">
  <g transform="matrix(1 0 0 -1 0 220)">
   <path fill="currentColor"
d="M161 246q14 -2 22.5 -4.5t7 -13t-9 -3t-22.5 18.5zM147 240l-7 -7v-12h65l15 12l18 -19h-97q5 -21 16 -36q18 17 27 34l20 -15l-9 -2q-15 -15 -28 -25q22 -15 54 -20l9 28h5q-1 -17 1.5 -27t6.5 -13v-4q-24 -1 -48.5 7t-40.5 18q-33 -18 -94 -23v5q54 8 86 29
q-13 17 -20 44h-66q1 -30 -6.5 -50.5t-34.5 -40.5l-4 6q14 12 21.5 31t8 32.5t-0.5 35.5l17 -7h64q-1 15 -2 26zM149 136l-5 -8q1 -6 2 -14h33q0 9 -16 23l2 4q11 -3 22 -10t-1 -17h19l14 12l16 -19h-88q6 -25 18 -43q18 16 28 37l18 -13l-7 -4q-16 -18 -32 -31
q21 -21 51 -28l5 33h5q0 -30 7.5 -41t-10.5 -9q-36 5 -68 35q-25 -22 -68 -34l-2 5q41 18 61 41q-12 21 -20 52h-81l-1 -23h42l11 12l14 -14l-7 -4q0 -32 -8 -42t-23 -13q-2 12 -23 17v5q32 -7 36 4t3 28h-45q-4 -43 -41 -69l-2 4q20 23 25.5 49.5t2.5 59.5l19 -7h77
q-2 12 -6 29z" />
  </g>

</svg>
