<?xml version="1.0" standalone="no"?>
<!DOCTYPE svg PUBLIC "-//W3C//DTD SVG 1.1//EN" "http://www.w3.org/Graphics/SVG/1.1/DTD/svg11.dtd" >
<svg xmlns="http://www.w3.org/2000/svg" xmlns:xlink="http://www.w3.org/1999/xlink" version="1.1" viewBox="0 -205 1024 1024">
  <g transform="matrix(1 0 0 -1 0 819)">
   <path fill="currentColor"
d="M468 696h258l32 28l52 -38q3 -3 4 -6q0 -7 -12 -8h-250q-21 0 -68 -8l-16 32v0v0zM492 596h136v68l64 -10q8 -1 8 -8q1 0 -4 -6l-18 -12v-32h126l32 36q46 -40 50 -46q4 -5 2 -10q-3 -4 -18 -4h-192v-62h96l30 32l56 -42q2 0 2 -6q0 -7 -8 -8h-176v-68h186l34 44l52 -48
q3 -3 4 -8q0 -12 -12 -12h-502q-21 0 -62 -8l-22 32h272v68h-98q-20 0 -52 -8l-16 32h166v62h-152q-30 -46 -84 -106l-14 8q54 81 90 186q63 -24 66 -30q3 -3 0 -6q0 -3 -12 -6t-18 -6q-6 -4 -12 -16v0v0zM118 980l50 -36h124l22 34l68 -48q9 -6 -2 -18q-16 -6 -28 -8
q-13 -3 -88 -138q33 -27 52 -48q18 -21 28 -38q9 -18 16 -48q4 -31 -12 -70q-18 -39 -72 -56q-3 21 -20 36q-17 12 -76 28l2 18q69 -14 96 -12q26 0 34 30q6 29 -2 56q-9 27 -26 48q-15 21 -48 54l58 154h-130v-432l4 -74q0 -16 -20 -32q-21 -15 -36 -14l6 92v522v0v0z
M586 980q6 -3 6 -6q6 -4 -2 -10q-18 -3 -26 -12q-6 -7 -30 -34h212l34 32l58 -48q4 -6 2 -8q1 -5 -18 -10q-19 -3 -40 -20q-21 -15 -44 -30q-24 -12 -54 -30q35 -16 98 -28q62 -13 98 -16q34 -4 86 -4v-16q-29 0 -46 -6q-17 -5 -28 -28q-42 3 -80 16q-37 10 -80 26
q-42 14 -84 32q-77 -36 -142 -56q-66 -18 -146 -36l-4 14q63 16 132 44q66 26 120 56q-66 38 -102 76q-52 -66 -112 -120l-12 10q63 81 90 132q27 50 48 100l66 -20v0v0zM520 894q56 -48 122 -72q60 39 100 72h-222v0v0zM34 350h840l38 38l60 -48q3 0 4 -6q0 -12 -12 -12
h-544q-36 -36 -80 -78h422l38 34l54 -44q6 -6 6 -8q1 -7 -28 -26v-85l4 -52q-1 -12 -22 -22q-19 -9 -34 -10v42h-446v-10q1 -15 -16 -30q-14 -12 -40 -16l4 76v99q-96 -81 -234 -135l-6 12q117 69 198 141q80 72 110 112h-240q-20 -1 -52 -10l-24 38v0v0zM334 101h446v115
h-446v-115v0v0z" />
  </g>

</svg>
