<?xml version="1.0" standalone="no"?>
<!DOCTYPE svg PUBLIC "-//W3C//DTD SVG 1.1//EN" "http://www.w3.org/Graphics/SVG/1.1/DTD/svg11.dtd" >
<svg xmlns="http://www.w3.org/2000/svg" xmlns:xlink="http://www.w3.org/1999/xlink" version="1.1" viewBox="0 -36 256 256">
  <g transform="matrix(1 0 0 -1 0 220)">
   <path fill="currentColor"
d="M59 219q1 -32 -5.5 -47t-27.5 -29l-1 3q11 10 16.5 22.5t5.5 50.5h12zM79 154l-6 -6v-28h4l10 9l11 -16h-25v-42h10l12 10l11 -17h-48q-10 0 -19 -2l-9 9h31v42q-8 0 -17 -2l-9 9h26q0 26 -1 42zM29 223h76l10 10l12 -13l-6 -5v-161q0 -12 1 -23l-13 -9v15h-79v-11
l-15 -5q1 15 1 24v156q0 11 -1 29zM29 44h79v172h-79v-172zM213 221q2 -156 36 -196l-1 -3q-15 1 -17 -8q-27 54 -25 206q-14 -3 -21 -5v-162q0 -9 1 -37l-14 -5q1 38 1 63v139q-14 -2 -22 -3q1 -82 -1 -113.5t-11.5 -53t-26.5 -34.5l-2 2q19 23 24 57t5 80t-2 73l14 -7
q55 14 70 29l12 -18q-9 0 -20 -4zM84 219v-35t5 -17.5t8 1.5t7.5 -1.5t2.5 -9.5q-12 -2 -18.5 -1.5t-11 3.5t-4.5 12.5v19v28.5h11z" />
  </g>

</svg>
