<?xml version="1.0" standalone="no"?>
<!DOCTYPE svg PUBLIC "-//W3C//DTD SVG 1.1//EN" "http://www.w3.org/Graphics/SVG/1.1/DTD/svg11.dtd" >
<svg xmlns="http://www.w3.org/2000/svg" xmlns:xlink="http://www.w3.org/1999/xlink" version="1.1" viewBox="0 -36 256 256">
  <g transform="matrix(1 0 0 -1 0 220)">
   <path fill="currentColor"
d="M40 133q15 -14 19.5 -23.5t-1.5 -19t-9 7t-11 30.5q-10 -20 -25 -36l-3 3q17 29 26 60t12 57h-15l-11 -3l-10 10h68l10 11l18 -18h-45q-6 -29 -11 -47h34l6 10l15 -11l-7 -9q-8 -33 -16 -55t-22.5 -43.5t-49.5 -43.5l-1 4q22 16 38 41t25 53t12 47h-36q-5 -14 -10 -25z
M211 115q0 -13 1 -27l-15 -5v6h-21v-59q0 -10 -5 -15.5t-12 -7.5q-3 9 -9.5 12.5t-16.5 5.5v5q17 -2 23 -1.5t6 6.5v54h-21v-4l-14 -4q1 20 1 37v25q-10 -11 -31 -23l-1 4q16 13 29.5 31t25.5 48h-20q-13 0 -22 -3l-10 10h54q6 24 7 36l20 -10l-7 -4q-4 -15 -6 -22h50l10 11
l18 -18h-66q8 -18 22 -36q16 19 20 29l14 -15q-10 -3 -29 -18q17 -14 39 -20v-3q-12 -2 -17 -11q-10 7 -17 13v-27zM151.5 174.5q-6.5 -11.5 -12.5 -18.5h58q-7 8 -13 21t-11 26h-8q-7 -17 -13.5 -28.5zM141 126h56v23h-56v-23zM141 96h56v23h-56v-23zM147 62
q-4 -3 -24.5 -21t-33.5 -24l-2 3q34 30 45 56zM230 46.5q9 -8.5 7.5 -16t-4.5 -10.5t-7.5 6.5t-36.5 41.5l2 3q30 -16 39 -24.5zM129 182q6 -6 2 -13t-6 -7t-3.5 5.5t-18.5 23.5l2 3q18 -6 24 -12z" />
  </g>

</svg>
