<?xml version="1.0" standalone="no"?>
<!DOCTYPE svg PUBLIC "-//W3C//DTD SVG 1.1//EN" "http://www.w3.org/Graphics/SVG/1.1/DTD/svg11.dtd" >
<svg xmlns="http://www.w3.org/2000/svg" xmlns:xlink="http://www.w3.org/1999/xlink" version="1.1" viewBox="0 -36 256 256">
  <g transform="matrix(1 0 0 -1 0 220)">
   <path fill="currentColor"
d="M20 109.5q0 58.5 -1 96.5l14 -7h32q1 21 0 46l23 -9l-8 -7l-2 -30h28l6 11l16 -12l-8 -8v-150q0 -6 -3 -11t-17 -11q-2 13 -27 19v5q23 -3 28.5 -3t5.5 9v144h-30q-2 -9 -4 -16q18 -10 25.5 -18t4 -22t-9.5 1t-22 33q-8 -30 -35 -49l-2 3q24 29 30 68h-31v-169l-14 -9
q1 37 1 95.5zM73 102q16 -12 24.5 -22t3.5 -22t-9.5 1.5t-21.5 35.5q-12 -34 -34 -51l-2 3q14 19 22.5 43t9.5 51l19 -11l-5 -5q-3 -11 -7 -23zM160 199q10 -31 24 -45q17 21 26 45h-50zM154 37h59v55h-59v-55zM164 206h46l8 9l16 -16q-9 0 -17 -15.5t-25 -37.5
q20 -20 55 -30v-4q-12 -1 -17 -10q-23 14 -46 35q-19 -17 -42 -31l12 -7h57l8 9l16 -12l-8 -7v-41t1 -25l-15 -6v13h-59v-10l-14 -6q1 19 1 42.5t-1 48.5q-8 -5 -17 -9l-1 4q27 16 54 45q-18 29 -21 46q-10 -15 -28 -32l-2 3q15 18 25 42t13 40l19 -11l-6 -4q-6 -9 -12 -23z
" />
  </g>

</svg>
