<?xml version="1.0" standalone="no"?>
<!DOCTYPE svg PUBLIC "-//W3C//DTD SVG 1.1//EN" "http://www.w3.org/Graphics/SVG/1.1/DTD/svg11.dtd" >
<svg xmlns="http://www.w3.org/2000/svg" xmlns:xlink="http://www.w3.org/1999/xlink" version="1.1" viewBox="0 -144 1024 1024">
  <g transform="matrix(1 0 0 -1 0 880)">
   <path fill="currentColor"
d="M864 521l59 -48l-27 -22v-177h-65v199h-113v-393l-65 -32v425h-137v21h315zM385 197l2 4l2 10l3 15l2 18l2 23l2 26l1 30l1 34v37v30h-128v-344l-64 -32v250l-43 -78l-23 -35l-26 -34l-27 -31l-29 -28l-31 -26l-7 7l45 65l40 68l19 36l16 37l16 39l14 41l12 42l6 23h-83
l-7 -67l-67 -25l33 327l56 -36h86v161h-172v22h336l32 27l59 -49l-27 -21v-161l-64 -33v33h-100v-156h128l32 27l60 -49l-27 -16v-14l-1 -39l-1 -34l-1 -31l-2 -28l-2 -24l-2 -21l-3 -19l-4 -15l-6 -15zM385 197l58 -29l-6 -11l-8 -11l-8 -10l-10 -10l-10 -7l-12 -7l-12 -4
l-13 -4l-13 -1l-14 -1v32l-43 16v16h43l8 1l6 1l6 1l5 2l4 3l5 2l3 4l4 5l4 5zM896 274l-1 -14l-2 -13l-5 -13l-6 -12l-9 -11l-11 -9l-12 -7l-13 -4l-13 -2l-14 -1v32l-54 16v16h54l7 1l5 1l5 1l1 2v1l1 1l1 3l1 5v7h65zM208 602h-83l-16 -156h99v156zM888 646l-30 24
l-28 26l-26 29l-25 32l-24 33l-21 36l-20 39l-10 22l-36 -63l-27 -43l-28 -41l-29 -38l-31 -36l-32 -33l-34 -30l-35 -26l-6 7l53 68l26 36l50 77l24 42l44 88l40 96l3 7l57 -32l10 -16l-19 -3l-15 -31l-2 -3l49 -65l25 -31l26 -28l26 -25l27 -24l28 -20l27 -18l54 -30
l-60 -47zM772 672l54 -49v-21h-251v21h153zM372 784h-100v-161h100v161zM325 998l57 -31l12 -16l-22 -4l-24 -43l-40 -63l-12 -15l-10 -16l-9 4l5 18l4 19l9 36l5 17l14 53l4 17l3 12l1 2v2zM151 857l-1 12l-3 26l-3 14l-3 13l-9 27l-5 14l-7 13l7 6l11 -11l12 -10l21 -23
l10 -13l16 -27l6 -14l6 -15l5 -15l-6 -24l-21 -13l-23 6l-13 21v13z" />
  </g>

</svg>
