<?xml version="1.0" standalone="no"?>
<!DOCTYPE svg PUBLIC "-//W3C//DTD SVG 1.1//EN" "http://www.w3.org/Graphics/SVG/1.1/DTD/svg11.dtd" >
<svg xmlns="http://www.w3.org/2000/svg" xmlns:xlink="http://www.w3.org/1999/xlink" version="1.1" viewBox="0 -154 1024 1024">
  <g transform="matrix(1 0 0 -1 0 870)">
   <path fill="currentColor"
d="M225 445l36 -40h446l40 40l48 -48q14 -8 -6 -13l-18 -9v-87l6 -34q3 -42 -52 -44v37h-457v-18q0 -38 -53 -45q5 37 7 66v153q3 16 -14 32zM268 263h457v126h-457v-126zM117 768l36 -34h270l31 29l38 -35q14 -8 -6 -15l-12 -9v-43l5 -32q0 -27 -45 -34v19h-270
q-4 -67 -30 -121q-31 -69 -102 -123l-10 10q104 101 104 270v71q-10 27 -18 37zM996 574l-3 -14q-61 3 -73 -27q-104 14 -173 61q-83 -50 -217 -69l-6 14q117 31 193 77q-58 49 -99 120q-17 0 -28 -12l-32 28h270l29 31l47 -40q11 -9 -3 -12q-15 -1 -22 -7q-43 -66 -99 -107
q75 -37 216 -43zM630 224l84 -39q11 -11 1 -15q-22 1 -39 -11q-35 -50 -74 -95h247l37 51l76 -56q20 -15 -13 -15h-840q-27 1 -47 -13l-32 33h543q23 36 43 74t19 53q-3 10 -13 26zM615 986l44 -42h129l32 37l53 -45q12 -8 -6 -12l-25 -13v-39q5 -50 63 -42q38 6 57 20h5
q15 -13 34 -25q19 -11 8 -13l-46 -10l-48 -4q-54 -2 -82 6t-31 63v61h-138v-34q-6 -118 -156 -148l-6 14q56 26 87 53t35 79v47q-10 27 -18 37zM272 1001l74 -28q14 -5 6 -11q-16 -5 -27 -18v-33h118l26 34l58 -42q17 -6 -6 -6h-196v-78h102l26 34l58 -38q17 -10 -6 -10
h-323q-27 1 -45 -17l-34 31h186v78h-139q-27 1 -45 -13l-34 27h218v43q2 16 -25 36zM170 510h531l38 42l68 -46q16 -11 -14 -12h-544q-27 1 -47 -13zM166 720v-68q0 -12 -1 -24h124v92h-123zM640 736q52 -63 106 -100q58 42 90 100h-196zM325 628h109v92h-109v-92zM291 204
l9 12q101 -49 102 -91q7 -49 -24 -46q-14 2 -19 26q-4 23 -18 47q-13 23 -50 52z" />
  </g>

</svg>
