<?xml version="1.0" standalone="no"?>
<!DOCTYPE svg PUBLIC "-//W3C//DTD SVG 1.1//EN" "http://www.w3.org/Graphics/SVG/1.1/DTD/svg11.dtd" >
<svg xmlns="http://www.w3.org/2000/svg" xmlns:xlink="http://www.w3.org/1999/xlink" version="1.1" viewBox="0 -205 1024 1024">
  <g transform="matrix(1 0 0 -1 0 819)">
   <path fill="currentColor"
d="M634 420l78 -28q6 -1 6 -10q-1 -4 -34 -22v-52h210l34 48l62 -58q3 -4 4 -8q-1 -7 -16 -8h-294v-139l4 -70q-3 -15 -24 -28q-19 -13 -34 -14l4 110v141h-196q-22 0 -70 -8l-18 34h284v112v0v0zM874 844l40 52l62 -58q3 -3 4 -6q7 -12 -10 -12h-510q-21 0 -60 -12l-24 36
h498v0v0zM578 976l10 10q54 -24 78 -44q24 -19 30 -38q4 -18 -6 -30q-9 -14 -26 -12q-18 2 -20 22q-3 18 -18 40q-12 21 -48 52v0v0zM498 648q22 4 38 20q62 80 88 142q59 -25 62 -32q3 -6 -2 -8q-5 -1 -16 -4q-12 -1 -38 -28q-25 -28 -76 -82q57 3 126 10q20 27 50 76
q59 -36 62 -42q3 -7 -2 -10q-5 -1 -22 -4q-15 -4 -42 -34q-25 -30 -56 -68q-31 -39 -98 -114q93 15 172 24q-13 33 -38 60l10 10q53 -42 74 -68q17 -25 20 -44q1 -18 -10 -30q-12 -12 -24 -8q-13 2 -14 20q-1 15 -10 42q-81 -16 -122 -28q-41 -13 -76 -32l-44 52q23 3 44 18
q51 59 114 158q-42 -3 -78 -14q-33 -9 -56 -24l-36 42v0v0zM384 752l10 8q59 -37 80 -62q19 -23 14 -40q-3 -16 -12 -22q-9 -7 -20 -4q-12 2 -14 22q-1 17 -14 44q-13 24 -44 54v0v0zM792 572l8 12q72 -28 106 -52t44 -44q8 -21 2 -38q-7 -16 -22 -16q-16 0 -22 16
q-7 16 -26 44q-18 27 -90 78v0v0zM904 756q56 -34 56 -40q1 -7 -4 -8q-3 -1 -18 -2q-13 -1 -40 -20q-25 -19 -86 -64l-10 12q60 65 102 122v0v0zM524 576l12 -14q-94 -72 -112 -90q-18 -17 -48 -52l-42 44q90 44 190 112v0v0zM28 886h246l42 50l56 -56q3 -3 4 -6
q0 -12 -12 -12h-142v-264h52l36 46l50 -52q2 -4 8 -10q6 -8 -12 -10h-134v-266l150 58l8 -18q-243 -115 -258 -130q-13 -12 -40 -42l-54 58l144 58v282h-70q-30 0 -54 -8l-16 34h140v264h-60q-19 0 -62 -8l-22 32v0v0z" />
  </g>

</svg>
