<?xml version="1.0" standalone="no"?>
<!DOCTYPE svg PUBLIC "-//W3C//DTD SVG 1.1//EN" "http://www.w3.org/Graphics/SVG/1.1/DTD/svg11.dtd" >
<svg xmlns="http://www.w3.org/2000/svg" xmlns:xlink="http://www.w3.org/1999/xlink" version="1.1" viewBox="0 -205 1024 1024">
  <g transform="matrix(1 0 0 -1 0 819)">
   <path fill="currentColor"
d="M922 864l28 32l62 -46q10 -15 -12 -18q-33 -12 -48 -24q-14 -12 -40 -44l-20 10l36 66h-486q0 -40 -8 -62q-9 -21 -24 -30q-13 -10 -28 -4q-13 3 -16 18q-1 14 10 26q9 9 24 36q12 24 16 78h22l2 -38h482v0v0zM582 988l10 10q57 -24 78 -38q22 -12 32 -30q8 -19 2 -34
q-7 -14 -22 -16q-13 -4 -22 2t-14 24q-3 18 -18 36q-13 17 -46 46v0v0zM438 748h206v78l80 -18q3 -3 4 -6q6 -3 0 -8l-32 -14v-32h122l34 30l52 -38q3 -3 4 -8q0 -10 -12 -10h-200v-56h86l32 30l54 -38q3 -3 4 -8q0 -10 -12 -10h-164v-64h172l34 36l56 -42q3 -3 4 -8
q0 -12 -12 -12h-254v-22q3 -16 -12 -28q-16 -13 -40 -16v66h-178q-21 0 -56 -8l-22 34h256v64h-98q-20 1 -52 -10l-30 36h180v56h-122q-24 1 -56 -12l-28 38v0v0zM432 510l52 -36h374l30 34l42 -34q11 -7 14 -14q0 -6 -26 -24v-70l4 -54q0 -13 -18 -22q-16 -10 -34 -8v30
h-388v-10q0 -12 -18 -20q-18 -6 -36 -8l4 106v130v0v0zM480 336h94v114h-94v-114v0v0zM622 336h102v114h-102v-114v0v0zM772 336h98v114h-98v-114v0v0zM614 300q56 -30 82 -56q23 -24 26 -48q0 -22 -12 -32q-13 -11 -28 -6q-12 3 -18 30q-5 27 -16 46t-46 56l12 10v0v0z
M852 248q72 -39 100 -60q27 -22 36 -41q8 -18 8 -34q-1 -15 -8 -24q-6 -9 -24 -10q-18 0 -26 30q-6 31 -24 53q-15 25 -72 74l10 12v0v0zM560 200v-93q0 -14 6 -26q6 -9 34 -10h174q15 1 22 10q8 9 10 24q3 14 4 34q2 15 4 63h18l4 -52q6 -47 36 -63q-18 -40 -38 -48
q-18 -9 -42 -10h-212q-35 1 -52 16q-15 14 -14 46v165l70 -24q7 -3 8 -8q1 -6 -4 -8l-28 -16v0v0zM434 232q3 -48 0 -80q-3 -30 -18 -57q-12 -24 -30 -34t-36 -8q-18 0 -24 18q-3 19 18 34q21 12 42 36q20 22 28 91h20v0v0zM72 784l44 -32h64v236l70 -30q8 -3 8 -6
q3 -7 -6 -10l-26 -12v-178h56l22 30l48 -32q3 -3 4 -12q1 -3 -22 -18v-194l4 -90q3 -12 -14 -24q-18 -13 -36 -14v30h-62v-222l88 20q-16 44 -40 80l10 10q57 -51 76 -84q18 -29 18 -52q0 -24 -12 -31q-12 -9 -26 -4q-12 2 -14 19q-1 15 -8 42q-135 -44 -180 -61
q-43 -17 -62 -40l-42 59l146 32v232h-62v-30q-1 -12 -16 -24q-16 -12 -34 -12l4 134v288v0v0zM118 456h62v268h-62v-268v0v0zM226 724v-268h62v268h-62v0v0z" />
  </g>

</svg>
