<?xml version="1.0" standalone="no"?>
<!DOCTYPE svg PUBLIC "-//W3C//DTD SVG 1.1//EN" "http://www.w3.org/Graphics/SVG/1.1/DTD/svg11.dtd" >
<svg xmlns="http://www.w3.org/2000/svg" xmlns:xlink="http://www.w3.org/1999/xlink" version="1.1" viewBox="0 -36 256 256">
  <g transform="matrix(1 0 0 -1 0 220)">
   <path fill="currentColor"
d="M187 140v47h-19v-31q0 -19 1 -27l-14 -6q1 14 1 22v42h-23v-67l-14 -6q1 21 1 44.5t-1 43.5l14 -8h27q5 21 7 28h-31q-10 0 -19 -3l-9 10h112l12 10l16 -17h-62q-8 -4 -21 -28h58l8 10l13 -12l-7 -6v-54q1 -18 -16 -24q-3 14 -22 18v4q24 -3 24.5 -1.5t0.5 7.5v51h-25
v-24q0 -12 1 -28l-14 -7zM167 122l20 -10l-7 -5q-2 -9 -3 -16h41l14 11l16 -18h-73q-7 -27 -25.5 -47.5t-54.5 -29.5l-1 3q26 11 42.5 29.5t24.5 44.5h-24q-10 -1 -19 -3l-9 10h53q4 14 5 31zM184 84q29 -49 64 -61v-4q-12 -1 -18 -11q-32 25 -51 76h5zM32 60.5
q-4 15.5 -16 36.5l2 3q16 -13 24.5 -23t1 -21t-11.5 4.5zM90 167l16 -17h-37v-29h13l13 10l14 -17h-40v-53q10 13 25 47l15 -15l-9 -6q-13 -14 -31 -33v-11l44 9l1 -4q-60 -18 -89 -31l-11 17q17 1 42 8v72h-13q-12 0 -21 -2l-9 9h43v29h-8q-4 0 -10 -2l-6 5
q-11 -14 -22 -24l-3 2q33 53 53 116l19 -10l-7 -5q-4 -9 -6 -13q23 -8 33 -14t6 -18.5t-12 0t-29 28.5q-16 -37 -29 -58h43z" />
  </g>

</svg>
