<?xml version="1.0" standalone="no"?>
<!DOCTYPE svg PUBLIC "-//W3C//DTD SVG 1.1//EN" "http://www.w3.org/Graphics/SVG/1.1/DTD/svg11.dtd" >
<svg xmlns="http://www.w3.org/2000/svg" xmlns:xlink="http://www.w3.org/1999/xlink" version="1.1" viewBox="0 -205 1024 1024">
  <g transform="matrix(1 0 0 -1 0 819)">
   <path fill="currentColor"
d="M590 618q29 62 56 136q65 -25 68 -34q3 -7 -2 -10q-6 0 -18 -6q-10 -3 -26 -18t-52 -68h252l42 50l58 -58q6 -4 6 -10q0 -7 -12 -8h-826q-19 0 -68 -8l-16 34h538v0v0zM280 738l6 12q72 -25 96 -46q24 -19 24 -38q0 -17 -8 -28q-9 -13 -24 -10q-14 2 -22 26q-9 22 -18 38
q-9 14 -54 46v0v0zM180 554l54 -40h206l26 34l54 -40q9 -3 10 -12q0 -7 -32 -26v-369q0 -32 -12 -50q-12 -15 -66 -34q-9 32 -36 46q-28 13 -76 28l4 16q66 -12 84 -16q18 -3 36 0q18 2 18 28v123h-220v-92l4 -77q1 -19 -18 -32q-19 -15 -40 -16l4 115v414v0v0zM230 268h220
v98h-220v-98v0v0zM230 392h220v96h-220v-96v0v0zM622 518l72 -24q18 -10 12 -16q-3 -6 -36 -18v-176l4 -76q2 -15 -16 -30q-19 -16 -40 -16l4 104v252v0v0zM804 554l78 -32q13 -7 8 -14q-3 -4 -36 -16v-385q3 -39 -18 -60q-19 -19 -62 -30q-8 30 -34 42q-25 12 -76 24l4 18
q47 -8 76 -14q26 -3 44 2q18 3 16 24v441v0v0zM326 946q6 -4 6 -8q0 -8 -12 -10q-21 -6 -32 -18q-9 -8 -38 -52h204l34 46l58 -56q3 -3 4 -6q0 -7 -8 -8h-174q35 -27 46 -44q12 -17 10 -34q0 -18 -12 -24q-10 -7 -22 -4q-12 4 -14 26q-3 21 -8 36q-7 16 -28 44h-104
q-78 -112 -150 -178l-12 10q98 123 188 312l64 -32v0v0zM706 950q3 -4 4 -10q1 -4 -10 -8q-24 -7 -36 -22q-10 -12 -38 -54h230l38 50l60 -60q3 -3 4 -6q0 -7 -8 -8h-212q50 -35 62 -58q11 -21 8 -36q-3 -13 -12 -20q-8 -7 -22 -4q-13 3 -16 18q-4 14 -14 44q-10 29 -38 56
h-92q-52 -78 -122 -156l-16 8q68 93 160 300l70 -34v0v0z" />
  </g>

</svg>
