<?xml version="1.0" standalone="no"?>
<!DOCTYPE svg PUBLIC "-//W3C//DTD SVG 1.1//EN" "http://www.w3.org/Graphics/SVG/1.1/DTD/svg11.dtd" >
<svg xmlns="http://www.w3.org/2000/svg" xmlns:xlink="http://www.w3.org/1999/xlink" version="1.1" viewBox="0 -36 256 256">
  <g transform="matrix(1 0 0 -1 0 220)">
   <path fill="currentColor"
d="M182 51q1 -25 1 -38l-15 -6q1 26 1 42v131h-45q1 -12 -2 -16t-7.5 -5.5t-8 1t3 10.5t9.5 27h4l1 -10h45v35h-22q-10 0 -19 -2l-9 9h92l13 11l16 -18h-58v-35h46l8 8l13 -15q-10 -1 -25 -20l-4 1l9 19h-47v-129zM208 167l17 -11q-6 -6 -10 -16q15 -12 20.5 -18.5t1 -17
t-9 1t-14.5 27.5q-9 -22 -28 -39l-2 2q20 31 25 71zM136 95l17 -12l-6 -4l-6 -12q12 -7 19 -14.5t1.5 -16t-8.5 0t-14 27.5q-11 -22 -35 -41l-2 3q28 33 34 69zM141 165l17 -13l-6 -5q-4 -9 -7 -16q16 -9 20 -14.5t-0.5 -14.5t-8.5 0.5t-13 24.5q-9 -22 -28 -40l-3 3
q22 32 29 75zM224 91l-6 -7q0 -11 6 -21t12.5 -17t11.5 -9v-3q-8 -2 -12 -10q-16 16 -21 44q-1 -14 -10.5 -27.5t-19.5 -18.5l-2 2q12 14 18.5 32.5t5.5 43.5zM33 60.5q-4 15.5 -16 36.5l2 3q16 -13 24.5 -23t1 -21t-11.5 4.5zM91 167l16 -18h-37v-29h14l13 10l14 -17h-41
v-53q10 13 25 47l15 -15l-9 -6q-13 -14 -31 -33v-8l41 9v-4q-59 -21 -86 -32l-10 17q17 2 42 8v70h-13q-12 0 -21 -2l-9 9h43v29h-8q-4 0 -10 -2l-6 5q-11 -14 -22 -24l-3 2q34 54 53 117l18 -11l-6 -5q-4 -8 -6 -13q23 -8 33 -14t6 -18.5t-12 0t-28 28.5q-17 -36 -30 -58
h43z" />
  </g>

</svg>
