<?xml version="1.0" standalone="no"?>
<!DOCTYPE svg PUBLIC "-//W3C//DTD SVG 1.1//EN" "http://www.w3.org/Graphics/SVG/1.1/DTD/svg11.dtd" >
<svg xmlns="http://www.w3.org/2000/svg" xmlns:xlink="http://www.w3.org/1999/xlink" version="1.1" viewBox="0 -36 256 256">
  <g transform="matrix(1 0 0 -1 0 220)">
   <path fill="currentColor"
d="M85 126l-15 -5q1 21 1 33v35h-43q1 -12 -2.5 -17.5t-12 -5t-1 12t10.5 29.5h4l1 -12h43v24h-16q-16 0 -25 -3l-10 10h91l10 11l18 -18h-55v-24h48l7 8l14 -13q-9 -1 -23 -23l-3 1l6 20h-49v-45q0 -9 1 -18zM60 169v-7h-31v7h31zM124 169v-7h-30v7h30zM59 143v-7h-30v7h30
zM125 144v-7h-31v7h31zM133 28l-14 -6v9h-85v-9l-15 -4q1 19 1 48.5t-1 52.5l15 -9h84l7 10l15 -13l-7 -6v-73zM34 76h36v27h-36v-27zM83 76h36v27h-36v-27zM34 38h36v31h-36v-31zM83 38h36v31h-36v-31zM172 215q0 12 -1 30l21 -11l-7 -7v-24h26l10 11l18 -18h-54v-43h21
l7 11l16 -14l-8 -5q-8 -43 -30 -82q26 -30 56 -37v-4q-10 -2 -16 -11q-25 13 -49 43q-31 -34 -72 -46l-1 3q46 24 65 55q-18 32 -23 80l-9 -3l-9 10h39v62zM183 76q16 26 24 70h-50q7 -43 26 -70z" />
  </g>

</svg>
