<?xml version="1.0" standalone="no"?>
<!DOCTYPE svg PUBLIC "-//W3C//DTD SVG 1.1//EN" "http://www.w3.org/Graphics/SVG/1.1/DTD/svg11.dtd" >
<svg xmlns="http://www.w3.org/2000/svg" xmlns:xlink="http://www.w3.org/1999/xlink" version="1.1" viewBox="0 -205 1024 1024">
  <g transform="matrix(1 0 0 -1 0 819)">
   <path fill="currentColor"
d="M682 752q12 -8 -2 -16q-14 0 -22 -6q56 -43 104 -70q45 -27 100 -50q54 -21 130 -26v-18q-34 -4 -52 -10q-19 -7 -34 -28q-55 27 -100 58q-45 29 -86 62q-40 33 -80 72q-79 -76 -166 -136q-87 -61 -140 -88l-8 16q50 33 140 108q89 74 152 164l64 -32v0v0zM408 506
l48 -26h128l30 32l48 -36q8 -3 8 -12q1 -7 -28 -26v-321q0 -32 -14 -52q-12 -18 -54 -34q-9 27 -24 38q-16 9 -52 18l4 16q26 -5 44 -8q17 -1 32 4q15 4 16 32v99h-136v-76l4 -83q0 -12 -18 -28q-18 -14 -38 -14l2 125v352v0v0zM458 254h136v86h-136v-86v0v0zM458 364h136
v90h-136v-90v0v0zM720 458l72 -24q3 -5 4 -10q1 -3 -28 -20v-114l4 -86q-3 -12 -18 -24q-16 -13 -38 -14l4 122v170v0v0zM498 570h182l34 38l54 -44q3 -3 4 -8q0 -12 -12 -12h-190q-21 0 -56 -8l-16 34v0v0zM838 512l72 -28q9 -4 10 -8q3 -6 -32 -20v-331q2 -40 -16 -62
t-56 -32q-12 30 -38 42q-26 13 -58 22l6 18q44 -9 68 -12q21 -4 34 4q12 7 10 22v385v0v0zM44 614h154v170l70 -30q9 -3 10 -6q4 -9 -4 -12l-26 -12v-110h48l40 46l56 -54q3 -3 4 -6q0 -12 -8 -12h-140v-90q54 -27 88 -54q33 -25 40 -46q5 -21 -4 -38q-10 -19 -28 -16
q-19 3 -22 24q-4 22 -20 50q-15 27 -54 58v-324l4 -83q0 -11 -20 -26q-19 -12 -38 -12l4 118v345q-33 -81 -74 -152q-40 -72 -88 -132l-12 10q30 57 70 138q36 80 84 230h-94q8 0 -22 -8l-18 34v0v0zM326 982l84 -28q6 -3 6 -8q-1 -3 -40 -26v-40h260v100l82 -34q3 -5 4 -10
q1 -2 -34 -22v-34h186l40 48l60 -62q3 -1 4 -8q-1 -6 -16 -6h-274v-30q0 -12 -12 -20q-9 -6 -18 -8q-10 -3 -22 -2v60h-260v-58q0 -12 -8 -18l-18 -10q-9 -3 -24 -2v88h-194q-22 -1 -70 -10l-18 38h282v102v0v0z" />
  </g>

</svg>
