<?xml version="1.0" standalone="no"?>
<!DOCTYPE svg PUBLIC "-//W3C//DTD SVG 1.1//EN" "http://www.w3.org/Graphics/SVG/1.1/DTD/svg11.dtd" >
<svg xmlns="http://www.w3.org/2000/svg" xmlns:xlink="http://www.w3.org/1999/xlink" version="1.1" viewBox="0 -205 1024 1024">
  <g transform="matrix(1 0 0 -1 0 819)">
   <path fill="currentColor"
d="M522 830q44 90 68 156l64 -36q9 -6 -2 -14q-24 -4 -44 -26q-21 -21 -60 -80h80l32 36q60 -45 58 -54q0 -7 -12 -8h-146v-84h60l28 30l52 -38q6 -6 6 -8q0 -7 -30 -28v-230l4 -84q1 -10 -16 -20q-15 -10 -36 -10v30h-122q0 -27 -6 -78h136l36 40l44 -42q18 -18 -2 -24
h-220l-4 -18q81 -39 120 -68q35 -28 44 -55q6 -27 -2 -42q-10 -16 -28 -14q-17 0 -28 30q-10 28 -34 59q-23 30 -82 70q-28 -69 -88 -117q-60 -47 -158 -82l-4 16q81 40 138 94q57 53 78 127h-130q-22 0 -46 -12l-22 38h202q5 33 8 78h-94v0q0 -19 -20 -28q-18 -10 -30 -8
l4 106v322l46 -34h64v84h-98q-12 0 -36 -6l-16 32h244v0v0zM364 386h264v72h-264v-72v0v0zM364 484h264v70h-68q-27 0 -36 12q-7 15 -8 54v74h-46q3 -96 -24 -134q-25 -38 -82 -64v-12v0v0zM516 720v84h-44v-84h44v0v0zM364 524q23 6 44 40q22 33 20 130h-64v-170v0v0z
M354 974l8 10q51 -27 78 -44q26 -19 34 -40q9 -21 0 -36q-7 -16 -26 -16q-17 1 -22 20q-3 18 -18 46q-15 24 -54 60v0v0zM560 694v-70q-1 -18 2 -26q3 -6 12 -6h54v102h-68v0v0zM922 924l54 -40q15 -13 -2 -22q-12 -3 -26 -18q-45 -116 -102 -268q59 -67 88 -112
q27 -45 40 -84q11 -39 8 -78q-4 -39 -28 -68q-22 -30 -62 -44q-6 24 -26 36q-18 12 -72 30l4 16q36 -8 54 -10q18 -3 40 0q21 3 34 28q12 23 6 68q-4 42 -32 96q-26 50 -82 122l82 278h-118v-692l4 -107q0 -15 -20 -28q-19 -12 -34 -12l4 143v766l54 -42h104l28 42v0v0z
M12 746h146v244l82 -32q9 -5 4 -10q-3 -5 -38 -22v-180h30l30 34l40 -46q8 -14 -10 -16h-90v-202l92 54l10 -16l-102 -76v-355q3 -36 -14 -60q-18 -23 -62 -38q-4 34 -34 50q-30 15 -74 30l4 18q88 -24 110 -18q21 6 22 32v307q-43 -30 -62 -48q-18 -18 -30 -44l-52 54
l144 88v224h-70q-34 -1 -52 -10l-24 38v0v0z" />
  </g>

</svg>
