<?xml version="1.0" standalone="no"?>
<!DOCTYPE svg PUBLIC "-//W3C//DTD SVG 1.1//EN" "http://www.w3.org/Graphics/SVG/1.1/DTD/svg11.dtd" >
<svg xmlns="http://www.w3.org/2000/svg" xmlns:xlink="http://www.w3.org/1999/xlink" version="1.1" viewBox="0 -36 256 256">
  <g transform="matrix(1 0 0 -1 0 220)">
   <path fill="currentColor"
d="M131 212h-37q0 -6 1 -17l-16 -5q1 12 1 22h-20h-12q-11 0 -22 -2l-9 9h63q0 17 -1 27l22 -8l-7 -5v-14h12l11 10zM133 220h33q0 16 -2 27l23 -8l-8 -5v-14h34l14 12l15 -19h-63q0 -1 2 -15l-17 -5q2 14 2 20h-11q-7 0 -13 -2zM73 50q0 -18 1 -37l-15 -7l1 17v20v43
q-19 -36 -50 -62l-2 3q14 17 26 37t20 42h-6q-17 0 -26 -2l-9 9h47v18h-3q-16 0 -26 -2l-9 9h38v21q-18 -3 -38 -4v5q20 3 38 9v14l-1 13l20 -9l-6 -7v-9q17 5 27 12l11 -17l-12 -1l-26 -5v-22h11l11 10l14 -17h-36v-18h16l12 8l13 -15h-41v-12q22 -8 26.5 -14.5t0.5 -15.5
t-11 4t-16 21v-39zM98 70q29 22 46 46h-12q-14 -1 -17 -3l-8 10h40q6 11 8 18h-19q-11 -1 -20 -3l-9 10h49q6 15 6 45l23 -9l-9 -5q-3 -21 -6 -31h38l12 11l14 -18h-66q-2 -9 -7 -18h60l10 10l14 -17h-59q25 -30 62 -35v-4q-17 0 -20 -9q-34 18 -48 48h-21q-16 -22 -29 -31
q26 -6 21.5 -19t-11.5 -1.5t-15 16.5q-13 -8 -24 -14zM121 187q20 -9 24 -14t-0.5 -12.5t-8.5 1.5t-18 21zM223 174h-9q-13 -12 -28 -24l-3 3q17 22 22 36zM163 105l19 -8l-6 -6v-24q14 10 23 20l13 -13h-7q-15 -8 -29 -15q23 -6 37.5 -11.5t12.5 -17t-10 -3.5t-16.5 13.5
t-23.5 12.5v-27q0 -14 -19 -19q1 11 -24 16v4q14 -2 22 -1.5t8 5.5v26q-20 -10 -53 -28l-9 14q30 6 62 21v41z" />
  </g>

</svg>
