<?xml version="1.0" standalone="no"?>
<!DOCTYPE svg PUBLIC "-//W3C//DTD SVG 1.1//EN" "http://www.w3.org/Graphics/SVG/1.1/DTD/svg11.dtd" >
<svg xmlns="http://www.w3.org/2000/svg" xmlns:xlink="http://www.w3.org/1999/xlink" version="1.1" viewBox="0 -36 256 256">
  <g transform="matrix(1 0 0 -1 0 220)">
   <path fill="currentColor"
d="M115 245q45 -19 20 -39h69l13 14l19 -21h-178v-77q-3 -60 -46 -101l-2 3q18 28 25.5 53t7.5 57v37q0 23 -1 46l21 -11h67q-1 17 -17 37zM209 150q-38 -49 -93 -94q23 -18 61 -19t70 4v-5q-17 -4 -19 -16q-51 0 -72.5 4.5t-34.5 15.5t-17.5 12t-13.5 -4.5t-16 -17.5
l-13 15q16 10 26.5 13.5t22.5 0.5q31 29 54.5 59t34.5 53l19 -18zM73 153q26 -22 29 -37.5t-6 -21t-11.5 14.5t-14.5 42zM116 170q28 -21 32 -34.5t-4.5 -20.5t-12 12.5t-18.5 39.5z" />
  </g>

</svg>
