<?xml version="1.0" standalone="no"?>
<!DOCTYPE svg PUBLIC "-//W3C//DTD SVG 1.1//EN" "http://www.w3.org/Graphics/SVG/1.1/DTD/svg11.dtd" >
<svg xmlns="http://www.w3.org/2000/svg" xmlns:xlink="http://www.w3.org/1999/xlink" version="1.1" viewBox="0 -36 256 256">
  <g transform="matrix(1 0 0 -1 0 220)">
   <path fill="currentColor"
d="M122 245q47 -20 21 -32h77l9 8l16 -15h-188v-80q0 -66 -46 -113l-3 2q35 46 34 116v46q0 23 -1 46l20 -10h74q1 14 -15 29zM92 74h48v32h-48v-32zM155 74h49v32h-49v-32zM92 33h48v34h-48v-34zM155 33h49v34h-49v-34zM219 42q0 -12 1 -23l-16 -6v13h-112v-9l-16 -6
q1 13 1 27v59q0 10 -1 23l15 -7h113l6 10l17 -13l-8 -8v-60zM112 202l22 -9l-6 -7v-14h42l-1 30l23 -8l-7 -6v-16h30l9 8l15 -15h-54v-25h35l9 8l16 -15h-160q-12 0 -19 -2l-9 9h56v25h-22q-11 0 -19 -2l-9 9h50zM128 140h42v25h-42v-25z" />
  </g>

</svg>
