<?xml version="1.0" standalone="no"?>
<!DOCTYPE svg PUBLIC "-//W3C//DTD SVG 1.1//EN" "http://www.w3.org/Graphics/SVG/1.1/DTD/svg11.dtd" >
<svg xmlns="http://www.w3.org/2000/svg" xmlns:xlink="http://www.w3.org/1999/xlink" version="1.1" viewBox="0 -36 256 256">
  <g transform="matrix(1 0 0 -1 0 220)">
   <path fill="currentColor"
d="M160 245l21 -9l-7 -7v-13h39l14 11l15 -18h-68v-16h26l12 10l15 -17h-87q-10 0 -19 -2l-9 9h49v16h-36q-10 0 -19 -2l-9 9h64q0 16 -1 29zM238 139l-13 -7v6h-111v-2l-13 -4q1 15 1 24t-1 23l13 -6h110l6 8l13 -11l-6 -6q0 -12 1 -25zM114 145h28v21h-28v-21zM154 145h28
v21h-28v-21zM194 145h31v21h-31v-21zM128 58h80v15h-80v-15zM115 86q0 29 -1 45l14 -7h78l8 9l15 -13l-8 -6v-36q0 -12 1 -28l-14 -5v6h-80v-2l-14 -6q1 14 1 43zM128 103h80v14h-80v-14zM128 80h80v16h-80v-16zM148 33q-29 -16 -57 -24l-2 3q38 17 53 37l15 -15zM230.5 30
q7.5 -8 5 -17t-8.5 -2.5t-18 15.5t-28 19l2 3q40 -10 47.5 -18zM70.5 30.5q8.5 -0.5 8.5 12.5v65h-39q-1 -27 -5 -50.5t-23 -49.5l-3 1q13 29 16 58t2.5 92.5t-1.5 76.5l15 -8h37l8 10l14 -13l-8 -6v-177q0 -16 -5 -22.5t-17 -11.5q0 14 -27 22v4q19 -3 27.5 -3.5zM40 171
h39v50h-39v-50zM40 115h39v49h-39v-49z" />
  </g>

</svg>
