<?xml version="1.0" standalone="no"?>
<!DOCTYPE svg PUBLIC "-//W3C//DTD SVG 1.1//EN" "http://www.w3.org/Graphics/SVG/1.1/DTD/svg11.dtd" >
<svg xmlns="http://www.w3.org/2000/svg" xmlns:xlink="http://www.w3.org/1999/xlink" version="1.1" viewBox="0 -205 1048 1024">
  <g transform="matrix(1 0 0 -1 0 819)">
   <path fill="currentColor"
d="M659 276q91 -31 169 -70q88 -44 102 -71q12 -30 4 -49q-8 -22 -32 6q-49 49 -89 81q-60 45 -157 93zM95 74q72 38 139 89q76 56 136 118l42 -26q24 -15 21 -20q-3 -8 -44 -4q-67 -53 -129 -92q-77 -44 -159 -74zM355 699l4 -5l42 -3h107v178l-9 47l58 -15q22 -7 10 -21
q-11 -11 -17 -11v-178h81l37 41l34 -30h124v165h-130l-9 15h130l29 30l47 -38q15 -12 11 -18q-4 -7 -31 -16v-504h12l38 44l55 -41q13 -9 9 -14q-6 -7 -21 -7h-840l-43 -3l-12 23l43 -2h48v504l-4 58l48 -16q21 9 49 22l72 38l35 -23q24 -13 18 -18q-4 -5 -43 -2l-106 -28
q3 -3 -4 -7l-21 -7v-159h66l37 36zM354 683l-12 -1h-136v-165h67l39 37l37 -27q18 -13 13 -20q-3 -7 -20 -7h-136v-164h620v166h-118l-6 17h124v167h-108q1 -3 -1 -5q-2 -5 -9 -5h-147q22 -68 77 -137.5t112 -90.5v-10q-20 -1 -30 -10q-9 -8 -18 -26q-46 39 -87.5 107.5
t-64.5 151.5v-263q1 -14 -2 -20q-4 -10 -17 -17q-22 -3 -23 1q-4 10 0 23v209q-34 -66 -82 -115.5t-102 -83.5l-8 10q68 57 115.5 134t64.5 137h-103l-34 -1zM687 855q21 -10 18 -20q-4 -6 -25 -6l-94 -131l-8 5l72 172zM373 866q47 -40 74 -73q31 -41 28 -67
q-3 -27 -17 -29q-12 -2 -23 20l-11 23q-8 28 -20 50q-12 29 -40 69z" />
  </g>

</svg>
