<?xml version="1.0" standalone="no"?>
<!DOCTYPE svg PUBLIC "-//W3C//DTD SVG 1.1//EN" "http://www.w3.org/Graphics/SVG/1.1/DTD/svg11.dtd" >
<svg xmlns="http://www.w3.org/2000/svg" xmlns:xlink="http://www.w3.org/1999/xlink" version="1.1" viewBox="0 -36 256 256">
  <g transform="matrix(1 0 0 -1 0 220)">
   <path fill="currentColor"
d="M166 161v32l15 -6q24 9 37 18l15 -11q-11 -1 -26 -4.5t-28 -5.5v-27l23 7l2 -4q-23 -11 -31 -19l-10 11q3 5 3 9zM75 156.5q6 0.5 6 8.5v19h-24q-2 -15 -12 -28.5t-32 -24.5l-3 4q19 13 25.5 25t8.5 24h-5l-11 -3l-11 10h64l7 8l15 -12l-9 -5v-18q0 -20 -21 -24
q0 6 -2.5 8.5t-16.5 4.5v4q15 -1 21 -0.5zM44.5 38q-14.5 -18 -34.5 -29l-2 4q22 20 30.5 37.5t9 36.5t-0.5 55l23 -9l-8 -5v-43q-3 -29 -17.5 -47zM199 145l22 -10l-8 -5v-116l-14 -6v137zM212 216l11 12l19 -19h-187q-13 0 -23 -3l-11 10h191zM136 142l-14 -4q1 15 1 26
t-1 21l10 -3q14 11 27 27l14 -12l-8 -2q-16 -9 -29 -15l8 -4l-8 -4v-30zM230 146q-15 10 -22 21.5t-10 21.5l4 2q5 -9 16 -19t30 -13v-4q-14 -2 -18 -9zM100 209q19 -6 24.5 -11t-1 -12t-9.5 1t-18 19zM103 246q20 -3 31 -8t3 -15t-12 -0.5t-24 21.5zM110 103q-14 0 -23 -3
l-11 10h79l12 10l18 -17h-75zM147 52q35 -15 37 -23.5t-2.5 -13.5t-10.5 6.5t-26 26.5zM117 43l-8 -3q-19 -14 -40 -26l-4 4q26 18 37 37zM100 57q-14 0 -24 -3l-10 10h57v14q-21 -2 -42 -3v5q61 9 83 18l10 -17l-11 1q-14 -1 -27 -3v-15h26l10 11l19 -18h-55v-6v-5
q0 -18 1 -33l-15 -4q1 18 1 22v26h-23zM113 122q-13 0 -23 -3l-11 10h73l11 11l19 -18h-69z" />
  </g>

</svg>
