<?xml version="1.0" standalone="no"?>
<!DOCTYPE svg PUBLIC "-//W3C//DTD SVG 1.1//EN" "http://www.w3.org/Graphics/SVG/1.1/DTD/svg11.dtd" >
<svg xmlns="http://www.w3.org/2000/svg" xmlns:xlink="http://www.w3.org/1999/xlink" version="1.1" viewBox="0 -36 256 256">
  <g transform="matrix(1 0 0 -1 0 220)">
   <path fill="currentColor"
d="M63 159h129v33h-129v-33zM49 196.5q0 28.5 -1 48.5l15 -9h127l7 11l17 -15l-8 -5q0 -57 1 -77l-15 -6v8h-129v-5l-15 -5q1 26 1 54.5zM63 199h129v30h-129v-30zM101 150q33 -10 35.5 -17t-2.5 -15t-11 4t-24 24zM124 47l1 -4q-60 -24 -68 -36l-12 18q6 3 5 13v70h-14
q-10 0 -19 -2l-9 9h206l16 13l15 -20h-134q12 -24 41 -45q27 20 38 42l17 -18q-14 0 -49 -27q4 -4 30 -13t55 -12v-4q-16 -2 -20 -15q-44 15 -73 34.5t-46 57.5h-40v-78z" />
  </g>

</svg>
