<?xml version="1.0" standalone="no"?>
<!DOCTYPE svg PUBLIC "-//W3C//DTD SVG 1.1//EN" "http://www.w3.org/Graphics/SVG/1.1/DTD/svg11.dtd" >
<svg xmlns="http://www.w3.org/2000/svg" xmlns:xlink="http://www.w3.org/1999/xlink" version="1.1" viewBox="0 -36 256 256">
  <g transform="matrix(1 0 0 -1 0 220)">
   <path fill="currentColor"
d="M101.5 47.5q7.5 20.5 11.5 46.5t4 73t-1 70l14 -8h76l7 9l14 -13l-8 -6q0 -68 0.5 -97t3.5 -52t12 -34l9 29l3 -1q-3 -22 -3 -31.5t2 -17.5t-7.5 -2t-18.5 21.5t-12 51.5t-2 136h-76q1 -88 -3.5 -120.5t-14.5 -54t-29 -40.5l-2 3q13 17 20.5 37.5zM206.5 51.5
q2.5 -9.5 -2.5 -16t-7 1t-3 12.5q-13 -3 -29.5 -8.5t-27.5 -11.5l-8 16q15 2 33 6v44h-12v-5l-13 -6q1 25 1 42t-1 36l13 -6h12v29h-11l-11 -3l-10 10h49l13 11l13 -18h-32v-29h12l7 7l10 -11l-5 -5v-30q0 -11 1 -23l-13 -5v6h-12v-43l20 3q-4 16 -9 23l2 3
q18 -20 20.5 -29.5zM162 149h-12v-47h12v47zM185 149h-12v-47h12v47zM50 206q11 -7 14.5 -13t-2 -13t-7.5 2t-9 21q-16 -16 -29 -23l-2 2q31 28 47 65l15 -11q-4 -2 -16 -16h30l7 8l12 -13l-8 -4q-24 -50 -91 -62l-1 3q55 17 80 61h-33zM40 157h53l6 7l11 -11l-6 -5v-25
q0 -12 1 -23l-13 -4v6h-51v-8l-13 -4q1 13 1 33v36zM41 109h51v18h-51v-18zM41 133h51v17h-51v-17zM89 79h-32l-6 -6q10 -8 13.5 -13.5t-2 -12t-7.5 2t-9 19.5q-14 -14 -28 -21l-2 2q32 29 42 56l16 -9q-6 -3 -12 -11h28l7 7l12 -12l-8 -4q-29 -54 -90 -69l-2 3q51 19 80 68
z" />
  </g>

</svg>
