<?xml version="1.0" standalone="no"?>
<!DOCTYPE svg PUBLIC "-//W3C//DTD SVG 1.1//EN" "http://www.w3.org/Graphics/SVG/1.1/DTD/svg11.dtd" >
<svg xmlns="http://www.w3.org/2000/svg" xmlns:xlink="http://www.w3.org/1999/xlink" version="1.1" viewBox="0 -205 1024 1024">
  <g transform="matrix(1 0 0 -1 0 819)">
   <path fill="currentColor"
d="M836 163l12 12l30 42q7 9 16 0q71 -63 70 -78q-2 -8 -15 -9h-649q0 -19 1 -37q0 -18 -45 -48q-14 -9 -13 12q7 133 7 204v206q-80 -97 -173 -166q-10 -8 -16 -1q-4 8 3 14q188 172 250 364q4 11 11 7q42 -18 73 -36q8 -6 7 -10q-3 -7 -22 -7q-13 0 -69 -75h255l-1 2
q-1 45 -79 120q-6 7 -2 13q5 6 17 -1q98 -42 108 -82q4 -22 -15 -52h193l14 2l12 12l30 42q7 9 16 0q71 -63 70 -78q-2 -8 -15 -9h-335v-97h156l14 2l12 12l30 42q7 9 16 0q71 -63 70 -78q-2 -8 -15 -9h-283v-97h160l14 2l12 12l30 42q7 9 16 0q71 -63 70 -78q-2 -8 -15 -9
h-287v-109h240zM299 161h235v109h-236v-9q0 -45 1 -100zM534 301v97h-236v-97h236zM534 429v97h-236v-97h236zM88 695q-5 -1 -6 2q-13 20 -23 36q-6 10 7 7q61 -6 68 -7h133v129q-1 39 -4 70q-1 16 9 13q54 -17 76 -29q9 -5 0 -11q-22 -16 -26 -20q-7 -7 -7 -23v-129h188
v183q-1 39 -4 70q-1 16 9 13q54 -17 76 -29q9 -5 0 -11q-22 -16 -26 -20q-7 -6 -7 -72h184q8 1 14 2q4 3 11 10l28 39q8 9 15 0q32 -26 57 -54q11 -12 10 -19q-3 -8 -15 -9h-304v-103h280q12 0 16 3q6 4 13 13l24 35q8 9 15 0q29 -26 57 -54q11 -12 10 -19q-2 -8 -15 -9
h-802q-27 0 -61 -7z" />
  </g>

</svg>
