<?xml version="1.0" standalone="no"?>
<!DOCTYPE svg PUBLIC "-//W3C//DTD SVG 1.1//EN" "http://www.w3.org/Graphics/SVG/1.1/DTD/svg11.dtd" >
<svg xmlns="http://www.w3.org/2000/svg" xmlns:xlink="http://www.w3.org/1999/xlink" version="1.1" viewBox="0 -200 999 1000">
  <g transform="matrix(1 0 0 -1 0 800)">
   <path fill="currentColor"
d="M637 261q22 44 41.5 93t35 99t27.5 99.5t19 95.5v178h-49l-47 -11l-15 32h111v145l52 -28l-14 -62v-55h40l32 36l51 -57h-123v-227l6 -29q15 46 21 95t11 104l49 -41l-14 -17q-6 -14 -10.5 -30.5t-9.5 -36.5q29 -27 46 -45t17 -45q0 -3 -0.5 -5.5t-0.5 -5.5
q-2 -12 -13.5 -16.5t-16.5 -4.5q-6 0 -7 10t-2.5 26.5t-6.5 36t-20 39.5q-9 -25 -17.5 -47t-16.5 -33q10 -38 25 -75t32.5 -69t37 -56t38.5 -36q-11 -4 -24.5 -15.5t-26.5 -26.5q-29 51 -53.5 118t-43.5 155v-354q-3 -11 -15 -17.5t-23 -8.5v305q-7 -26 -20.5 -58t-30 -62.5
t-33 -57.5t-29.5 -43zM643 507q19 63 29 129.5t19 139.5l46 -42l-13 -8l-17 -77q14 -11 28 -32t14 -52v-7q-1 -6 -6 -16.5t-9 -10.5q-9 0 -12 12.5t-5 30t-4 36t-9 31.5q-4 -16 -10 -34.5t-13 -36.5t-14.5 -35.5t-14.5 -30.5zM338 238q24 40 42.5 76.5t34.5 75.5t32 84.5
t35 104.5q2 2 2 9q0 8 -1.5 24.5t-6.5 34.5q-37 -81 -67.5 -131t-52.5 -76l-12 9q13 24 26.5 49.5t27.5 56.5t28.5 68.5t29.5 84.5q-6 14 -7.5 25.5t-13.5 24.5q-20 -35 -46.5 -72.5t-55.5 -63.5l-11 8q40 61 72 132.5t52 146.5h-51l-51 -13l-17 32h194l42 35l60 -54h-123
l-55 -132q13 -17 25 -40.5t21.5 -47.5t17 -46.5t11.5 -37.5q10 25 17.5 48.5t13.5 47.5t11.5 50t11.5 58l49 -63l-19 -19q-6 -10 -16 -28.5t-21 -39.5t-23 -42t-22 -35l6 -46q51 -54 82 -103t31 -84q0 -3 -0.5 -6t-0.5 -5q-6 -28 -13 -40t-15 -12q-13 0 -19 31q-4 23 -9 44
t-12 42.5t-17 46t-25 53.5q0 -18 1 -32t2.5 -27t3 -26.5t1.5 -28.5q0 -80 -10 -127.5t-23.5 -72.5t-27.5 -32.5t-21 -7.5h-6q-2 22 -3.5 34.5t-6 22t-13 18.5t-24.5 24v8q18 -13 29.5 -17.5t20.5 -4.5q10 0 18 7.5t13.5 26.5t8.5 51.5t3 82.5q0 21 -1 38t-1 42
q-43 -104 -80.5 -162.5t-68.5 -89.5zM116 776q16 -8 29 -15.5t25 -17t23 -23t23 -34.5v-8q0 -33 -11 -47.5t-22 -14.5q-12 0 -21.5 11.5t-9.5 32.5q0 4 0.5 6t0.5 5q-4 18 -7.5 30t-8 22t-11.5 19.5t-18 21.5zM946 108q-20 -18 -38.5 -32t-34.5 -34q-26 -1 -57.5 -2
t-64 -1.5t-63 -1t-53.5 -0.5q-157 0 -251.5 36t-137.5 126h-22q-36 -33 -62.5 -69.5t-54.5 -66.5l-55 45q46 29 89.5 56t78.5 52v275h-73l-62 -14l-28 36h152l35 46l54 -50l-27 -32v-275q27 -40 64 -62t79.5 -32.5t88.5 -12.5t91 -2h26q28 0 66 0.5t81 3t88 8t87 15.5z
M105 1002q40 -19 68.5 -40t45.5 -54v-11q0 -29 -9 -43t-20 -14q-13 0 -24 14t-13 39q-5 18 -9.5 31.5t-10 25t-13 21.5t-19.5 22z" />
  </g>

</svg>
