<?xml version="1.0" standalone="no"?>
<!DOCTYPE svg PUBLIC "-//W3C//DTD SVG 1.1//EN" "http://www.w3.org/Graphics/SVG/1.1/DTD/svg11.dtd" >
<svg xmlns="http://www.w3.org/2000/svg" xmlns:xlink="http://www.w3.org/1999/xlink" version="1.1" viewBox="0 -36 256 256">
  <g transform="matrix(1 0 0 -1 0 220)">
   <path fill="currentColor"
d="M62 226l16 -7h98l7 7l14 -10l-6 -5v-40h-14v11h-100v-11h-14q0 44 -1 55zM77 204h100v8h-100v-8zM77 189h100v8h-100v-8zM35 173h186l9 9l14 -13q-13 -4 -27 -20l-3 2l7 15h-186q-1 -8 -6.5 -12t-9 -5t-6.5 2.5t6.5 11t11.5 19.5h4v-9zM108 219h-7l6 12h-52q-11 0 -20 -2
l-9 9h175l12 9l17 -16h-107zM190 94l16 -11l-9 -5q-29 -23 -55 -38q45 -15 101 -15v-3q-20 -4 -22 -11q-54 6 -92 23q-46 -20 -110 -25v4q65 12 99 27q-28 15 -51 39h-5q-4 0 -10 -2l-11 9h140zM129 45q25 14 49 34h-103q24 -18 54 -34zM202 106l-7 7l2 2q17 -8 21.5 -13
t0 -10.5t-7 0t-5.5 9.5q-58 -9 -65 -14l-9 13q3 0 36 3v14h-20v-2l-14 -3q1 5 1 19.5t-1 19.5l17 -3h17q0 11 -1 17l20 -6l-7 -5v-6h18l5 7l14 -9l-5 -6q0 -15 1 -21l-14 -3v1h-19v-13zM148 124h20v17h-20v-17zM180 124h19v17h-19v-17zM69 163l21 -4l-7 -5v-6h19l6 7l13 -9
l-5 -5q0 -15 1 -24l-14 -4v4h-20v-14l23 1q-2 3 -8 9l2 2q18 -7 21.5 -12.5t-1 -11t-7 -1t-5.5 9.5q-56 -7 -70 -12l-7 13q12 0 40 2v14h-19v-3l-14 -4q1 10 1 21t-1 22l14 -5h19q0 7 -2 15zM52 124h19v17h-19v-17zM83 124h20v17h-20v-17z" />
  </g>

</svg>
