<?xml version="1.0" standalone="no"?>
<!DOCTYPE svg PUBLIC "-//W3C//DTD SVG 1.1//EN" "http://www.w3.org/Graphics/SVG/1.1/DTD/svg11.dtd" >
<svg xmlns="http://www.w3.org/2000/svg" xmlns:xlink="http://www.w3.org/1999/xlink" version="1.1" viewBox="0 -36 256 256">
  <g transform="matrix(1 0 0 -1 0 220)">
   <path fill="currentColor"
d="M132 34v51l-1 26l13 -7h31v52h-24q-13 0 -22 -3l-10 10h56v54h-14q-13 0 -22 -3l-10 10h83l10 11l16 -18h-50v-54h32l12 13l17 -20h-61v-52h30l9 9l14 -15l-8 -4v-55l1 -18l-14 -8v16h-75v-12l-14 -6zM145 36h75v61h-75v-61zM50 186h33v22h-33v-22zM37 245l20 -9l-7 -6
v-15h33q0 9 -1 31l19 -9l-6 -7v-15h9l11 8l12 -15h-32q0 -16 1 -35l-13 -4v10h-33v-6l-13 -5q1 24 1 41q-10 0 -21 -4l-9 10h30q0 23 -1 30zM32 111h28v21h-28v-21zM72 111h30v21h-30v-21zM72 78h30v26h-30v-26zM32 78h28v26h-28v-26zM102 139l7 9l11 -13l-6 -6v-44l1 -15
l-13 -6v7h-70v-4l-13 -5q1 17 1 45.5t-1 38.5l13 -7h28h42zM40 153q-13 0 -22 -3l-10 10h90l11 11l17 -18h-86zM66 48l-10 -2q-24 -28 -45 -39l-2 3q28 28 38 53zM112 35.5q10 -9.5 3.5 -20t-9.5 -2t-11 21t-20 24.5l3 4q24 -18 34 -27.5z" />
  </g>

</svg>
