<?xml version="1.0" standalone="no"?>
<!DOCTYPE svg PUBLIC "-//W3C//DTD SVG 1.1//EN" "http://www.w3.org/Graphics/SVG/1.1/DTD/svg11.dtd" >
<svg xmlns="http://www.w3.org/2000/svg" xmlns:xlink="http://www.w3.org/1999/xlink" version="1.1" viewBox="0 -36 256 256">
  <g transform="matrix(1 0 0 -1 0 220)">
   <path fill="currentColor"
d="M81.5 221.5q-6.5 -2.5 -18.5 -6.5v-53l8 2l8 12l15 -14l-31 -8v-46l27 6l7 12l17 -14l-51 -12v-55q0 -15 13 -15h145q8 0 9.5 9.5t1.5 20.5h5q0 -9 1.5 -17.5t9.5 -9.5q-4 -11 -10 -13t-15 -2h-153q-20 0 -20 23v58l-28 -6l-7 -5l-9 9l44 9v46l-22 -4l-9 -6l-9 9l40 9v51
q-19 -4 -35 -7v5q21 6 41.5 14.5t28.5 17.5l12 -16q-9 -1 -15.5 -3.5zM169 238l22 -9l-7 -7v-50h22l10 11l18 -18h-45q11 -79 48 -99v-3q-11 0 -19 -8q-29 35 -35 108q-3 -79 -51 -117l-2 4q35 39 40 115h-14l-11 -3l-10 10h35q0 28 -1 66zM219 207q6 -6 1.5 -16t-10.5 2
t-19 26l1 2q21 -8 27 -14zM131 54l-15 -7q1 23 1 50v82q-12 -15 -25 -26l-2 3q30 37 40 77l19 -11q-5 -2 -11 -10.5t-15 -23.5l12 -8l-5 -5v-78q0 -17 1 -43z" />
  </g>

</svg>
