<?xml version="1.0" standalone="no"?>
<!DOCTYPE svg PUBLIC "-//W3C//DTD SVG 1.1//EN" "http://www.w3.org/Graphics/SVG/1.1/DTD/svg11.dtd" >
<svg xmlns="http://www.w3.org/2000/svg" xmlns:xlink="http://www.w3.org/1999/xlink" version="1.1" viewBox="0 -36 256 256">
  <g transform="matrix(1 0 0 -1 0 220)">
   <path fill="currentColor"
d="M61 216l15 -10h66q-1 7 -4.5 16t-12.5 21l2 2q19 -11 25.5 -20.5t-3.5 -18.5h60l13 12l18 -19h-164q0 -45 -1 -76t-13 -59.5t-44 -54.5l-2 3q40 38 46 108q-28 -20 -37 -34l-13 15q17 5 50 24q0 67 -1 91zM44.5 167.5q5.5 -8.5 -2 -17t-10 6.5t-11.5 29l2 3
q16 -13 21.5 -21.5zM152 46v35h-40q-13 1 -24 -2l-8 9h72v72h-29q-12 1 -23 -2l-9 9h110l14 12l16 -19h-65v-72h44l15 12l15 -19h-74v-27q0 -26 1 -41l-16 -6q1 21 1 39zM104 147q17 -12 25 -20t7 -14.5t-6 -10.5t-10 10.5t-18 32.5zM223 137q-6 -3 -17 -16.5t-26 -24.5
l-3 2q10 12 17.5 26t11.5 26z" />
  </g>

</svg>
