<?xml version="1.0" standalone="no"?>
<!DOCTYPE svg PUBLIC "-//W3C//DTD SVG 1.1//EN" "http://www.w3.org/Graphics/SVG/1.1/DTD/svg11.dtd" >
<svg xmlns="http://www.w3.org/2000/svg" xmlns:xlink="http://www.w3.org/1999/xlink" version="1.1" viewBox="0 -205 1024 1024">
  <g transform="matrix(1 0 0 -1 0 819)">
   <path fill="currentColor"
d="M304 754q6 -3 6 -8q0 -4 -12 -10q-21 -3 -62 -54q-40 -48 -100 -114h176q48 74 90 152l62 -40q6 -7 6 -10q0 -7 -12 -10q-10 -1 -22 -10q-13 -7 -40 -50q-28 -41 -74 -100q-45 -57 -110 -126q-66 -67 -182 -146l-8 16q83 70 152 146q66 75 126 156q-78 -3 -120 -12
q-40 -10 -74 -28l-38 64q21 3 36 10q13 6 44 48q32 43 92 152l64 -26v0v0zM502 490q6 -4 6 -8q2 -7 -16 -10q-17 -3 -34 -24q-57 -87 -110 -156q89 -57 112 -80q21 -24 28 -48q7 -22 0 -41q-9 -19 -30 -20q-21 0 -24 30q-4 26 -26 63q-21 35 -74 80q-45 -54 -114 -116
q-70 -62 -178 -123l-10 16q86 58 158 125q69 68 132 154q60 84 118 202l62 -44v0v0zM202 974l8 12q72 -31 100 -52q24 -21 30 -44q3 -21 -8 -36q-12 -14 -30 -12q-19 -1 -22 26q-2 26 -22 52q-18 24 -56 54v0v0zM30 814h418l42 50l58 -56q3 -3 4 -12q0 -7 -14 -8h-434
q-18 1 -48 -10l-26 36v0v0zM816 972l54 -40q6 -6 6 -12q0 -1 -30 -28v-196q-1 -34 16 -28h14q42 -1 64 8q6 3 10 4q8 -1 20 -16q24 -19 24 -26q-1 -13 -62 -16h-72q-31 -1 -46 8q-20 15 -18 48v226h-150v-70q1 -75 -24 -138q-24 -64 -104 -118l-10 14q63 62 76 124
q15 62 12 128v122l48 -34h140l32 40v0v0zM860 562l66 -46q7 -4 8 -10q-3 -4 -14 -10q-22 -13 -32 -28q-28 -67 -70 -136q-43 -69 -76 -102q48 -48 88 -74q40 -22 80 -35q39 -11 78 -14v-20q-28 -1 -52 -8q-24 -6 -44 -34q-43 21 -92 66q-49 44 -88 91q-75 -68 -152 -107
q-75 -37 -168 -72l-8 16q81 36 156 80q74 45 148 117q-30 36 -54 94q-23 54 -58 166q-23 0 -40 -8l-24 38h324l24 36v0v0zM602 496q33 -90 64 -146q27 -57 48 -84q27 29 66 100t60 130h-238v0v0v0z" />
  </g>

</svg>
