<?xml version="1.0" standalone="no"?>
<!DOCTYPE svg PUBLIC "-//W3C//DTD SVG 1.1//EN" "http://www.w3.org/Graphics/SVG/1.1/DTD/svg11.dtd" >
<svg xmlns="http://www.w3.org/2000/svg" xmlns:xlink="http://www.w3.org/1999/xlink" version="1.1" viewBox="0 0 2048 2048">
  <g transform="matrix(1 0 0 -1 0 2048)">
   <path fill="currentColor"
d="M1333 1640h462l72 84l92 -75q22 -19 28 -29q6 -11 4 -28q-3 -18 -32 -24l-69 -15l-33 -43q-8 -11 -63 -75l-42 -49l-28 23l29 59q15 32 23 58l19 57h-490l-12 -23l-24 -44q-19 -33 -54 -81q-34 -48 -59 -77l-34 -40l-28 29l31 50q14 23 34 63q20 39 42 90t36 94
q15 42 34 107q18 65 22 88l15 80l145 -27q19 -4 28 -12q8 -8 8 -19q-1 -17 -14 -25q-14 -8 -31 -11l-45 -10q-6 -16 -14 -38q-7 -22 -18 -51l-20 -51zM612 1763h199l86 69l103 -73q7 -6 13 -14t3 -20q-4 -11 -12 -15t-14 -4h-378v-107h116l83 65l95 -68q7 -6 13 -14
q5 -7 2 -20q-4 -11 -12 -15q-7 -4 -12 -4h-498q-24 0 -56 -3l-37 -2q-5 -1 -27 -3l-24 -3l-40 86q26 -5 40 -6q14 -2 60 -8q47 -5 84 -5h119v107h-207q-29 0 -69 -3l-26 -2q-23 -2 -25 -2l-24 -3l-38 86q25 -6 39 -8t59 -6q45 -5 84 -5h207v35l-3 61q-3 52 -4 61l-3 13
l109 -24q47 -11 64 -21q16 -9 18 -23q1 -14 -12 -25q-14 -12 -35 -18l-40 -11v-48zM280 1227l-38 86q25 -5 41 -7q15 -2 59 -6q44 -5 87 -5h272l69 68l88 -72q20 -17 17 -31q-4 -15 -10 -18q-7 -4 -18 -4h-423q-24 0 -55 -2l-38 -4q-6 0 -27 -2zM801 896l37 -18
q27 -14 24 -30q-3 -17 -24 -19l-44 -6q-17 -30 -20 -34l-34 -49h19q8 1 34 4l122 11l67 7l5 -39q-40 -10 -75 -17q-35 -8 -111 -22q-76 -13 -144 -23l-176 -25q-108 -14 -159 -19l-117 -13l-9 -37q-4 -13 -12 -23t-18 -8q-11 1 -19 14q-7 13 -12 33l-36 122q122 3 194 7
q71 5 85 5h30q-6 7 -9 13q-3 5 -8 31q-6 26 -16 45q-9 18 -24 42l-32 48v-24q0 -13 -24 -22q-23 -9 -40 -8q-12 0 -17 3t-7 7q-3 5 -3 15v326l98 -49h447l47 56l77 -49q11 -8 20 -17q10 -10 12 -22t-7 -22q-2 -2 -19 -12l-25 -14v-92q14 -12 28 -22q14 -9 19.5 -20.5
t-2.5 -22.5q-7 -11 -18 -11h-104zM319 952h468v135h-468v-135zM717 896h-339l39 -28q17 -13 39 -38q22 -24 25 -50q2 -26 -8 -42l-10 -17q14 0 27 1q13 0 85 6q73 5 76 6l22 2q5 21 16 59t12 40zM1642 546q29 -22 71 -52l69 -48q26 -19 64 -56q38 -36 62 -76q24 -41 28 -77
t-11 -59q-15 -22 -42 -22q-27 -1 -49 41q-7 11 -17 47q-10 35 -23 62q-13 26 -39 64t-45 60t-51 51l-41 37zM364 527l39 -7q-4 -46 -8 -84q-4 -37 -12 -75t-23 -79t-36 -76t-51 -57t-64 -25q-35 -4 -56 12q-22 17 -22 37q1 20 11 33q10 12 43 30q34 18 64 44q31 27 52 60
q20 32 34 74q14 41 20 68zM1205 1254l130 -31q20 -6 32 -15q12 -8 14 -20t-11 -22t-33 -14l-42 -9l-26 -63q-15 -34 -36 -74q-21 -41 -60 -97q-40 -56 -70 -88l-43 -46l-25 22l36 61q22 37 38 74q17 36 36 88q18 53 26 82q8 28 19 80zM1682 1209l43 -33q18 -15 50 -44
t58 -56q25 -28 47 -61t33 -59q10 -27 12 -54q3 -28 -6 -50t-32 -32q-22 -11 -41 1q-11 6 -18 21t-13 40l-13 48q-6 21 -16.5 47.5t-26.5 56.5q-17 31 -38 63q-22 32 -37 51l-28 33zM215 1448h704l52 62l90 -65q31 -23 34 -39q4 -15 -6 -23q-9 -8 -28 -12l-48 -10l-37 -46
l-63 -73l-27 17q15 56 18 68l15 65h-704l-6 -64q-4 -34 -16 -64q-11 -30 -31 -50t-48 -22q-28 -1 -39 12q-12 12 -13 28t5 28q5 13 18 27l32 32q25 26 34 49q10 24 16 60q7 35 8 50l2 32h38v-62zM1477 479l42 -8l-6 -145q-2 -30 8 -53q11 -23 29 -35l30 -19q18 -16 19 -31
q0 -15 -9 -28q-11 -15 -30 -26q-19 -10 -37 -16q-18 -7 -31 -10t-57 -9q-45 -6 -53 -7t-62 -3l-59 -3q-14 -1 -72 -1l-88 -1q-30 -1 -73.5 0t-76.5 2q-34 2 -75 4q-41 3 -69 6q-28 2 -58 8q-31 6 -54 18q-22 13 -38 35q-15 22 -20 41t-5 47v161q0 57 -3 98q-3 42 -3 48
l-2 14l109 -24q49 -11 66 -20q18 -10 20 -24q1 -14 -13 -26t-37 -18l-41 -11v-171q0 -34 13 -50t40.5 -22.5t73.5 -10.5q47 -4 74 -5l59 -2l54 -4q26 -2 73 0q46 2 96 3q49 1 69 2t40 3t39 8q19 5 34 14q16 9 27 25t21 45q9 28 13 54zM927 616l52 -18q25 -9 80 -32
q56 -24 100 -53t71 -65q27 -35 19 -76q-8 -42 -39 -44t-54 24q-10 9 -29 42q-18 34 -40 60q-22 27 -62 59q-41 32 -68 46l-46 24zM1466 1330q-1 81 -3 110q-1 30 -2 37l-2 13l108 -24q50 -12 67 -21t17 -23q1 -14 -12 -26q-14 -12 -36 -17l-43 -11v-406q0 -28 3 -104
q4 -77 8 -111t3 -48q-2 -11 -5 -19q-4 -9 -14 -14q-9 -6 -23 -8q-26 -4 -41 2t-20 14q-5 9 -5 30v626z" />
  </g>

</svg>
