<?xml version="1.0" standalone="no"?>
<!DOCTYPE svg PUBLIC "-//W3C//DTD SVG 1.1//EN" "http://www.w3.org/Graphics/SVG/1.1/DTD/svg11.dtd" >
<svg xmlns="http://www.w3.org/2000/svg" xmlns:xlink="http://www.w3.org/1999/xlink" version="1.1" viewBox="0 -36 256 256">
  <g transform="matrix(1 0 0 -1 0 220)">
   <path fill="currentColor"
d="M84 237l-8 -6v-33h17l10 10l14 -17h-41v-30h24l9 11l15 -18h-87q-11 0 -20 -2l-9 9h21q0 46 -1 62l20 -9l-7 -6v-47h23q0 61 -1 85zM58 146q-5 -4 -8 -13q13 -7 14.5 -13t-3 -10t-6 3t-6.5 18q-5 -12 -18 -24l-3 1q12 20 16 44zM107 99v-7h-84v7h84zM15 138l19 -8l-7 -7
v-87l77 7v97l18 -9l-6 -6v-76q0 -10 1 -21l-13 -4v14q-75 -9 -84 -17l-10 12q5 4 5 12v93zM96 146q-6 -4 -10 -14q14 -9 14 -15t-5 -7.5t-6 5t-5 14.5q-6 -11 -18 -24l-2 2q12 22 17 45zM61 82q-5 -4 -9 -11q12 -9 13 -14t-3.5 -8t-5.5 3t-5 15q-8 -12 -20 -24l-3 2
q14 22 19 43zM97 81q-6 -3 -10 -11q12 -7 14 -12.5t-3.5 -9t-6.5 3t-5 15.5q-7 -11 -20 -25l-2 3q13 20 18 42zM139 171q-6 -16 -17 -32l-3 3q10 20 19.5 51.5t12.5 53.5l19 -12l-7 -6q-7 -16 -14 -33h68l11 12l15 -19h-46v-44h18l12 12l13 -19h-43v-42h16l13 11l13 -18h-42
v-51h23l14 13l14 -20h-96v-16l-14 -8q1 29 1 164zM152 189v-44h32v44h-32zM152 96h32v42h-32v-42zM152 38h32v51h-32v-51zM200.5 227q5.5 -7 3.5 -15t-6.5 -10.5t-6 8t-14.5 34.5l2 2q16 -12 21.5 -19z" />
  </g>

</svg>
