<?xml version="1.0" standalone="no"?>
<!DOCTYPE svg PUBLIC "-//W3C//DTD SVG 1.1//EN" "http://www.w3.org/Graphics/SVG/1.1/DTD/svg11.dtd" >
<svg xmlns="http://www.w3.org/2000/svg" xmlns:xlink="http://www.w3.org/1999/xlink" version="1.1" viewBox="0 -36 256 256">
  <g transform="matrix(1 0 0 -1 0 220)">
   <path fill="currentColor"
d="M212 225h-168q1 -13 -5 -21t-16.5 -6t0.5 13.5t16 33.5h5v-13h167l10 10l18 -19q-17 -1 -32 -25l-4 2zM206 22l14 14l20 -21h-187q-22 1 -28 -2l-13 9h194zM55 173.5q0 20.5 -1 38.5l22 -10l-7 -7v-49l-14 -6v33.5zM115 157h65v17h-65v-17zM117 206h61l10 9l12 -13l-7 -4
q0 -46 1 -51l-14 -4v7h-65v-5l-14 -4q1 14 1 33.5t-1 37.5zM115 181h65v18h-65v-18zM204 136l17 13l19 -20h-186q-22 1 -28 -2l-13 9h191zM78 112h93l10 10l14 -14l-8 -6q0 -33 1 -61l-15 -7v12h-98v-11l-15 -5q1 23 1 45t-1 44zM75 83h98v22h-98v-22zM75 53h98v23h-98v-23z
" />
  </g>

</svg>
