<?xml version="1.0" standalone="no"?>
<!DOCTYPE svg PUBLIC "-//W3C//DTD SVG 1.1//EN" "http://www.w3.org/Graphics/SVG/1.1/DTD/svg11.dtd" >
<svg xmlns="http://www.w3.org/2000/svg" xmlns:xlink="http://www.w3.org/1999/xlink" version="1.1" viewBox="0 -205 1024 1024">
  <g transform="matrix(1 0 0 -1 0 819)">
   <path fill="currentColor"
d="M380 682q56 -116 110 -144q27 -14 55 -26q8 5 15 9q75 45 148 161h-328zM260 838v-102q0 -11 -1 -23h245v125h-244zM513 1000q53 -22 72 -32q9 -5 0 -11q-22 -16 -26 -20q-7 -7 -7 -23v-45h239q9 0 15 6l26 28q4 5 8 5q5 -1 9 -5q32 -26 54 -50q8 -9 -7 -13
q-38 -11 -53 -24q-22 -16 -49 -49q-8 -14 -18 -8q-10 5 -1 18q16 33 32 61h-255v-125h146q11 1 15 5l27 27q4 4 7 4t7 -4q32 -29 51 -54q7 -9 3 -13q-4 -3 -13 -2q-11 4 -23 1q-9 -3 -31 -25q-75 -116 -145 -159q41 -11 86 -20q127 -25 221 -18q15 1 31 2q7 -1 7 -5
q0 -6 -10 -12q-19 -8 -38 -23q-25 -20 -32 -35q-2 -3 -9 -2q-151 31 -251 65l-55 22q-43 -19 -95 -35q-114 -34 -250 -49q-17 -1 -18 14q-1 14 15 15q115 13 197 37q54 18 106 40q-15 9 -28 18q-62 41 -114 169q-2 5 -3 6h-99q-4 -37 -13 -108q-16 -57 -62 -102
q-46 -44 -112 -74q-12 -7 -16 3q-5 10 5 17q60 32 94 72q32 42 47 97q12 92 12 149v99q0 42 -4 69q-3 13 3 14q5 2 12 -8q16 -22 38 -41h243v75q-1 27 -4 46q-2 16 13 10zM862 124l26 37q7 9 16 0q71 -63 70 -78q-2 -8 -15 -9h-800q-42 -1 -73 -7q-9 -3 -10 6q-5 18 -20 31
q-8 7 -4 11q4 3 11 -1q38 -9 84 -9h101v109q-1 39 -4 70q-1 16 9 13q53 -17 71 -26q14 -9 -2 -16q-15 -8 -19 -18q-7 -13 -7 -23v-109h212v215q-1 39 -4 70q-1 16 9 13q53 -17 71 -26q14 -9 -2 -16q-15 -8 -19 -18q-7 -13 -7 -23v-61h180l14 2l12 12l30 42q7 9 16 0
q71 -63 70 -78q-2 -8 -15 -9h-307v-123h276q14 1 30 19z" />
  </g>

</svg>
