<?xml version="1.0" standalone="no"?>
<!DOCTYPE svg PUBLIC "-//W3C//DTD SVG 1.1//EN" "http://www.w3.org/Graphics/SVG/1.1/DTD/svg11.dtd" >
<svg xmlns="http://www.w3.org/2000/svg" xmlns:xlink="http://www.w3.org/1999/xlink" version="1.1" viewBox="0 -144 1024 1024">
  <g transform="matrix(1 0 0 -1 0 880)">
   <path fill="currentColor"
d="M283 342l64 -11l17 -10l-17 -10v-167l2 -5l1 -5l2 -2l5 -2l5 -1h7h350l32 134h10l-10 -134l19 -13l13 -20l-13 -19l-19 -13h-382l-14 1l-13 2l-13 5l-13 7l-10 8l-9 11l-7 12l-4 13l-3 14v13v192zM55 151l32 -56l-24 -2l-20 15l-3 24zM55 151l16 -27v-1l2 -4l2 -3l3 -5
l7 -13l1 -2l1 -1l20 16l17 18l15 20l12 22l9 24l6 25l4 27l1 28l-3 30l-4 31h-10l-4 -31l-6 -27l-7 -25l-8 -22l-9 -20l-11 -16l-12 -14l-13 -12l-14 -10zM882 162l-7 19l-8 17l-10 19l-12 18l-13 17l-33 36l-41 37l5 8l26 -11l26 -12l23 -14l21 -16l19 -16l18 -18l16 -18
l14 -20l12 -22l11 -22l-3 -24l-18 -16l-25 2l-16 19zM559 220l-17 30l-21 29l-25 27l-15 13l-32 27l-18 12l4 9l43 -13l20 -8l19 -10l19 -11l17 -11l32 -28l15 -15l13 -17l4 -24l-14 -20l-24 -4zM146 385l64 -7l-13 -22l-23 -7l-21 12zM578 876l-55 -5l-57 -4l-58 -2h-61
l-1 10l226 41l102 22l95 24l45 12l43 14l2 -8l53 -44l2 -16l-22 10l-17 -5l-93 -20l-49 -8l-47 -8v-127h167l54 54l65 -54v-21h-286v-130h137l33 27l59 -48l-27 -22v-173l-65 -32v43h-338l-64 -32v270l64 -33h137v130h-283l-122 -195l-25 -44l-7 -15l12 -24l9 -26l4 -29v-30
l-64 7l3 23l1 20l-3 18l-5 18l-8 15l-11 16l-16 14l-20 14l-23 13l-29 11l2 10l31 -4l29 -6l27 -10l16 -9l82 105l100 119l42 47l8 -6l-20 -31h270v119zM823 590h-338v-162h338v162zM156 719l-6 7l-8 8l-23 17l-15 9l-55 27l-23 7l2 9l24 -2l23 -2l21 -2l39 -8l17 -5l15 -5
l15 -6l13 -8l13 -9l8 -23l-10 -23l-24 -8l-22 10zM240 888l-7 8l-9 8l-23 16l-14 9l-33 18l-18 9l-21 7l2 10l22 -3l21 -2l21 -2l19 -4l34 -8l16 -6l14 -7l14 -7l12 -8l10 -23l-10 -23l-23 -9l-22 10z" />
  </g>

</svg>
