<?xml version="1.0" standalone="no"?>
<!DOCTYPE svg PUBLIC "-//W3C//DTD SVG 1.1//EN" "http://www.w3.org/Graphics/SVG/1.1/DTD/svg11.dtd" >
<svg xmlns="http://www.w3.org/2000/svg" xmlns:xlink="http://www.w3.org/1999/xlink" version="1.1" viewBox="0 -36 256 256">
  <g transform="matrix(1 0 0 -1 0 220)">
   <path fill="currentColor"
d="M68 180h116v20h-116v-20zM68 207h116v22h-116v-22zM53 165q1 19 1 36.5t-1 42.5l16 -8h115l8 9l13 -12l-7 -7v-25q0 -12 1 -29l-15 -5v6h-116v-3zM86 143h-34q-12 1 -20 -3l-9 10h69q13 12 19 24l15 -13l-5 -2q-7 -6 -10 -9h88l14 12l17 -19h-73q45 -30 91 -33v-4
q-13 -1 -19 -12q-45 12 -79 49h-45q-42 -36 -96 -50l-1 4q46 18 78 46zM134 66h48v31h-48v-31zM74 66h46v31h-46v-31zM120 59h-46v-9l-14 -5q1 17 1 29.5t-1 37.5l14 -8h46q0 15 -1 34l22 -10l-7 -8v-16h47l8 8l14 -13l-8 -7v-15q0 -9 1 -17l-14 -6v5h-48v-28q36 2 60 3
q-11 9 -23 16l2 3q47 -16 51.5 -25.5t2 -16.5t-9.5 1t-17 16q-151 -12 -165 -21l-9 18q33 1 94 6v28z" />
  </g>

</svg>
