<?xml version="1.0" standalone="no"?>
<!DOCTYPE svg PUBLIC "-//W3C//DTD SVG 1.1//EN" "http://www.w3.org/Graphics/SVG/1.1/DTD/svg11.dtd" >
<svg xmlns="http://www.w3.org/2000/svg" xmlns:xlink="http://www.w3.org/1999/xlink" version="1.1" viewBox="0 -205 1024 1024">
  <g transform="matrix(1 0 0 -1 0 819)">
   <path fill="currentColor"
d="M102 934l52 -44h264l30 34l50 -40q3 -2 4 -10q-1 -5 -28 -22v-338q5 -122 26 -196q18 -72 58 -120q38 -44 80 -67q42 -24 120 -36q78 -13 114 -14t54 4q15 7 18 34t12 87h16q1 -38 2 -73q1 -37 14 -50l18 -18q7 -5 0 -14q-9 -8 -26 -14q-15 -3 -60 -4q-42 -1 -120 4
q-76 6 -142 32q-66 28 -122 83q-54 56 -80 142q-24 87 -30 232v338h-276v-214q1 -240 -22 -386q-22 -144 -94 -231l-14 10q54 99 70 233q15 133 12 386v272v0v0zM176 642l42 -34h44v116q-71 -12 -100 -18l-2 16q54 14 112 38q56 21 94 42l36 -42q0 -7 -2 -10q0 -2 -12 0
q-11 2 -34 -4q-21 -4 -48 -14v-124h26l26 32l50 -34q12 -9 4 -14l-24 -22v-132l4 -54q2 -15 -10 -26q-13 -12 -38 -14v44h-38v-184l74 12q-15 33 -42 70l12 10q50 -40 74 -76q21 -34 24 -58q0 -20 -8 -33q-6 -9 -18 -12q-12 0 -18 8q-6 6 -8 24q-1 16 -8 47
q-127 -26 -164 -40q-37 -12 -70 -33l-30 51l138 22v192h-42v-16q1 -12 -16 -24q-15 -12 -32 -12l4 84v222v0v0zM220 412h42v172h-42v-172v0v0zM306 584v-172h38v172h-38v0v0zM536 858h110v120l74 -28q7 -3 6 -8q-1 0 -4 -6l-30 -14v-64h126v116l74 -28q9 -3 4 -12
q0 -1 -6 -4l-24 -10v-62h34l32 30l50 -42q1 0 2 -6q1 -9 -6 -8h-112v-104h50l30 36l56 -42q3 -3 4 -12q0 -7 -12 -8h-216v-70h92l32 30l48 -36q6 -4 6 -8q0 -6 -26 -24v-152l4 -62q0 -10 -14 -22q-15 -12 -36 -14v42h-256v-18q0 -11 -14 -22q-13 -10 -34 -10l4 102v226
l52 -32h96v70h-138q-21 0 -56 -8l-16 34h124v104h-50q-9 0 -44 -8l-16 34v0v0zM692 728h126v104h-126v-104v0v0zM628 412h104v88h-104v-88v0v0zM778 500v-88h106v88h-106v0v0zM628 526h104v80h-104v-80v0v0zM778 606v-80h106v80h-106v0v0zM570 204q62 66 118 156l48 -28
q9 -6 6 -12q-1 -6 -16 -6q-13 0 -50 -36q-36 -37 -96 -86l-10 12v0v0zM804 342l8 10q57 -33 84 -60q28 -27 32 -50q5 -22 -4 -34q-9 -13 -24 -10q-12 0 -18 18q-4 18 -16 46t-62 80v0v0z" />
  </g>

</svg>
