<?xml version="1.0" standalone="no"?>
<!DOCTYPE svg PUBLIC "-//W3C//DTD SVG 1.1//EN" "http://www.w3.org/Graphics/SVG/1.1/DTD/svg11.dtd" >
<svg xmlns="http://www.w3.org/2000/svg" xmlns:xlink="http://www.w3.org/1999/xlink" version="1.1" viewBox="0 -205 1024 1024">
  <g transform="matrix(1 0 0 -1 0 819)">
   <path fill="currentColor"
d="M612 402q9 -6 -2 -14l-24 -14l-6 -62h212l30 38l64 -42q6 -3 6 -12q0 -3 -36 -24q-10 -76 -16 -118q-3 -41 -24 -75q-21 -32 -80 -56q-9 33 -38 50q-27 16 -90 32l6 16q94 -18 122 -18q29 -1 40 16q9 18 16 47q6 30 12 120h-228q-9 -61 -50 -118q-39 -56 -120 -99
q-78 -39 -188 -64l-4 18q102 35 168 76q65 39 100 89q33 47 42 98h-160q-32 0 -46 -8l-22 34h232l6 114l78 -24v0v0zM358 778q3 -50 6 -88q0 -36 -12 -62q-13 -27 -34 -32q-19 -7 -32 4q-12 11 -6 28q3 15 24 34q18 17 24 40q6 21 10 76h20v0v0zM618 486q44 38 74 80
q27 41 40 134l6 132l72 -24q10 -9 2 -14l-28 -12l-10 -102q92 72 118 108l54 -42q7 -9 -4 -12q-17 0 -34 -8q-18 -6 -138 -72l-6 -24q77 -25 110 -46q32 -21 38 -42q7 -21 -4 -36q-10 -13 -22 -10q-13 2 -20 20q-7 14 -32 44q-23 27 -76 52q-12 -37 -42 -70q-30 -32 -86 -70
l-12 14v0v0zM674 774q3 -69 -2 -102q-6 -32 -20 -46q-15 -13 -32 -10q-17 1 -22 14q-6 12 10 30l30 36q11 18 14 78h22v0v0zM346 480h16v-14h540l26 24q63 -48 66 -54q3 -7 -2 -10q-4 -3 -22 -6q-18 -2 -44 -22q-24 -21 -60 -48l-14 10l58 82h-548q-4 -46 -16 -74
q-12 -27 -30 -36q-15 -9 -30 -6q-12 2 -18 20q-4 15 20 34q24 18 36 36q12 15 22 64v0v0zM294 476q70 53 98 94t32 118l8 142l72 -24q10 -9 2 -14l-26 -12l-8 -92q80 66 110 102l48 -40q7 -9 -4 -12q-18 -2 -48 -16t-110 -58l-4 -30q76 -21 110 -38q33 -19 40 -40
q4 -20 -6 -34q-12 -13 -26 -10q-13 0 -20 18q-6 18 -30 42q-24 23 -72 46q-13 -45 -44 -80q-30 -34 -110 -76l-12 14v0v0zM890 868l42 54l64 -64q3 -4 4 -4q-1 -10 -10 -10h-752v-280q6 -219 -32 -336q-39 -115 -144 -201l-12 14q90 93 114 195t24 270q-81 -62 -108 -106
l-54 52l160 82v380l60 -46h644v0v0zM474 982l8 12q57 -14 88 -28q29 -12 44 -30q13 -18 6 -38q-9 -21 -30 -20q-20 1 -28 20q-7 18 -22 36t-66 48v0v0zM62 770l14 8q42 -43 60 -70t22 -50q4 -25 -4 -40t-22 -18q-15 -3 -24 6q-9 7 -8 32t-4 50q-7 24 -34 82v0v0z" />
  </g>

</svg>
