<?xml version="1.0" standalone="no"?>
<!DOCTYPE svg PUBLIC "-//W3C//DTD SVG 1.1//EN" "http://www.w3.org/Graphics/SVG/1.1/DTD/svg11.dtd" >
<svg xmlns="http://www.w3.org/2000/svg" xmlns:xlink="http://www.w3.org/1999/xlink" version="1.1" viewBox="0 -205 1024 1024">
  <g transform="matrix(1 0 0 -1 0 819)">
   <path fill="currentColor"
d="M644 724l144 18l30 44l60 -48q6 -7 4 -16q-1 -6 -34 -24v-216q-1 -149 8 -208q8 -60 28 -96q18 -36 36 -47q15 -8 22 41q5 51 20 144l20 -2q-6 -87 -6 -138q-1 -50 8 -79t18 -38q8 -9 2 -16q-5 -9 -22 -6q-15 3 -44 18q-30 16 -60 50q-31 32 -56 91q-21 59 -24 242v276
l-154 -16q0 -130 -18 -220q66 -52 94 -88q27 -36 28 -66q-1 -30 -26 -32q-24 -3 -42 42t-62 94q-22 -96 -58 -164q-36 -67 -98 -129q-63 -63 -128 -102l-8 14q51 40 108 105q57 66 94 142q33 75 48 168q-49 53 -128 104l10 14q75 -37 126 -74q8 75 8 186l-64 -8
q-27 -3 -38 -12l-24 32l126 14v254q87 -28 90 -34q3 -5 0 -10q-3 -3 -38 -18v-186v0v0zM296 874v-208h92l34 40l46 -46q2 -3 2 -8q1 -12 -10 -12h-164v-82q53 -27 86 -54t42 -44q9 -18 6 -36q-3 -15 -18 -24q-12 -10 -24 -4q-10 6 -14 24q-4 17 -22 50q-16 33 -56 64v-366
l4 -101q-1 -14 -22 -26t-38 -12l6 135v342q-32 -75 -82 -152q-48 -79 -122 -154l-12 10q63 89 124 202q60 111 90 228h-104q-22 0 -58 -8l-14 34h178v198q-72 -15 -174 -24v18q220 50 314 94q50 -58 50 -64q-1 -6 -8 -8q-6 -1 -30 2t-102 -8v0v0z" />
  </g>

</svg>
