<?xml version="1.0" standalone="no"?>
<!DOCTYPE svg PUBLIC "-//W3C//DTD SVG 1.1//EN" "http://www.w3.org/Graphics/SVG/1.1/DTD/svg11.dtd" >
<svg xmlns="http://www.w3.org/2000/svg" xmlns:xlink="http://www.w3.org/1999/xlink" version="1.1" viewBox="0 -246 2048 2048">
  <g transform="matrix(1 0 0 -1 0 1802)">
   <path fill="currentColor"
d="M388 1109q-122 -351 -281 -606l-45 28q232 431 313 895h-258l-20 51h291v453q209 -7 209 -56q0 -31 -96 -59v-338h98l84 125q61 -67 106 -141l-20 -35h-268v-201q254 -189 254 -337q0 -72 -64 -72q-40 0 -61 76q-37 127 -129 262v-1059h-113v1014zM963 1219v-78h-115v678
q72 -30 131 -66h191q29 110 36 188q185 -38 185 -75q0 -26 -86 -35q-36 -44 -70 -78h424l76 86q126 -93 126 -113q0 -13 -21 -28l-47 -31v-514h-115v66h-715zM963 1520h715v182h-715v-182zM963 1469v-199h715v199h-715zM1413 744q-31 0 -55 33q-69 90 -203 151l17 37
q150 -29 229 -77q66 -41 66 -85q0 -59 -54 -59zM1392 410q-32 0 -55 35q-71 96 -204 155l16 39q152 -30 232 -80q67 -42 67 -88q0 -61 -56 -61zM1753 717h43l76 119q60 -63 102 -131l-20 -39h-205q-18 -264 -43 -381q-18 -86 -62 -125q-52 -46 -159 -51q-3 52 -57 74
q-30 11 -154 34v50q132 -19 221 -19q74 0 101 86h-680q-11 -62 -21 -102l-117 20q46 193 78 414h-151l-21 51h178q28 207 41 389q43 -17 123 -63h611l67 80q119 -91 119 -111q0 -14 -17 -24l-43 -29q-2 -78 -10 -242zM1606 385q21 108 33 281h-670q-19 -145 -43 -281h680z
M1641 717q9 129 12 275h-645l-31 -275h664z" />
  </g>

</svg>
