<?xml version="1.0" standalone="no"?>
<!DOCTYPE svg PUBLIC "-//W3C//DTD SVG 1.1//EN" "http://www.w3.org/Graphics/SVG/1.1/DTD/svg11.dtd" >
<svg xmlns="http://www.w3.org/2000/svg" xmlns:xlink="http://www.w3.org/1999/xlink" version="1.1" viewBox="0 -205 1024 1024">
  <g transform="matrix(1 0 0 -1 0 819)">
   <path fill="currentColor"
d="M622 936q17 -12 -4 -18q-20 -3 -40 -24q-18 -19 -42 -56h186l38 42q68 -54 70 -62q0 -6 -20 -12q-30 -6 -66 -44q-42 -39 -78 -84h168l32 40l60 -38q7 -4 8 -10q0 -3 -30 -26v-158l4 -76q0 -16 -20 -28q-18 -13 -36 -14v54h-122v-276q-1 -34 4 -47q6 -12 18 -12
q12 -2 34 -2h94q36 1 48 16t16 49q3 35 6 122h20q2 -81 8 -114q3 -28 34 -47q-13 -36 -34 -54q-20 -15 -70 -18h-148q-39 0 -54 8q-12 4 -20 22q-6 14 -6 46v307h-28q-13 -79 -58 -154q-42 -76 -120 -137q-75 -64 -192 -122l-6 14q111 75 174 135q62 59 98 124q36 64 54 140
h-160v-30q0 -15 -18 -26q-18 -12 -38 -14l4 108v198q-47 -51 -88 -84l-12 12q57 63 130 162q69 99 126 226l76 -38v0v0zM442 448h162q12 69 18 204h-180v-204v0v0zM656 448h196v204h-180q-4 -132 -16 -204v0v0v0zM422 690l16 -12h194l94 134h-206q-42 -58 -98 -122v0v0v0z
M310 746l20 -8q-121 -320 -130 -352q-9 -30 -14 -54q-7 -25 -4 -56q3 -29 12 -88q10 -58 8 -81q-3 -23 -18 -34q-12 -9 -30 -4q-18 7 -24 28t6 89q10 66 8 90q0 24 -6 36q-3 9 -20 16q-16 6 -82 12l2 22q66 -6 78 -2q11 4 26 20q15 15 168 366v0v0zM70 920l10 12
q87 -49 114 -76q26 -25 32 -52q4 -27 -6 -44q-12 -18 -30 -14q-19 2 -26 34q-5 33 -22 60q-15 28 -72 80v0v0z" />
  </g>

</svg>
