<?xml version="1.0" standalone="no"?>
<!DOCTYPE svg PUBLIC "-//W3C//DTD SVG 1.1//EN" "http://www.w3.org/Graphics/SVG/1.1/DTD/svg11.dtd" >
<svg xmlns="http://www.w3.org/2000/svg" xmlns:xlink="http://www.w3.org/1999/xlink" version="1.1" viewBox="0 -150 1000 1000">
  <g transform="matrix(1 0 0 -1 0 850)">
   <path fill="currentColor"
d="M426 712q13 -107 -5 -164q-9 -26 -28 -37q-22 -10 -33 5q-9 15 10 37.5t30 58.5q8 32 13 100h13zM755 603q0 -67 -4 -121h90v248h-86v-127zM135 865v-209h176v209h-176zM456 970l82 -36q7 -2 8.5 -4.5t-2.5 -5.5q-20 -8 -29 -21v-158q55 -32 76 -61q26 -31 25.5 -62.5
t-20 -35.5t-21.5 29.5t-18 60.5q-11 23 -42 49v-552l4 -94q2 -36 -49 -45q6 56 6 184v695q2 16 -28 45zM604 449l-32 33h138q4 53 4 118v130h-54q-19 1 -34 -11l-31 31h119v179q-4 18 -24 33l8 11l73 -28q11 -4 13 -8q2 -2 -5 -6q-14 -5 -24 -14v-167h72l29 36l46 -39
q7 -6 6 -10t-10 -5l-18 -13v-237h20l21 30l47 -40q7 -5 5.5 -7.5t-11.5 -2.5h-184q27 -157 91 -279q16 -32 51 -70l4 -4q4 -3 12 -8q23 -20 41 -24l-2 -13q-19 5 -38 3q-12 -1 -30 -21q-129 162 -148 416h-9q-17 -294 -198 -439l-8 11q152 165 165 428h-62q-24 0 -43 -13z
M383 259l7 -14l-201 -90q-10 -5 -29 -14q-46 -22 -52 -27q-18 -9 -31 -36l-49 51l68 25v321q2 15 -25 39l8 11l79 -31q14 -5 6 -11q-18 -5 -29 -17v-298l78 29v440h-78v-10q2 -36 -48 -43q6 49 7 127v163q-5 25 -17 40l14 12l36 -43h164l34 38l48 -47q7 -4 5.5 -8t-10.5 -6
l-17 -9v-153l4 -57q6 -38 -44 -41v37h-57v-208h39l31 37l58 -45q8 -5 7 -8t-12 -3h-123v-198z" />
  </g>

</svg>
