<?xml version="1.0" standalone="no"?>
<!DOCTYPE svg PUBLIC "-//W3C//DTD SVG 1.1//EN" "http://www.w3.org/Graphics/SVG/1.1/DTD/svg11.dtd" >
<svg xmlns="http://www.w3.org/2000/svg" xmlns:xlink="http://www.w3.org/1999/xlink" version="1.1" viewBox="0 -36 256 256">
  <g transform="matrix(1 0 0 -1 0 220)">
   <path fill="currentColor"
d="M59 161l20 -8l-7 -5v-5h21l11 8l12 -15h-44v-7q0 -8 5 -8h29q6 0 8 1.5t7 -2.5q1 -9 -18 -8h-33q-10 0 -10 13q0 25 -1 36zM92 59q12 -4 19.5 -8t7.5 -9t-3.5 -9t-8 4t-17.5 18q-5 -9 -15.5 -18t-25.5 -16l-2 3q16 13 23.5 22.5t9.5 17.5h-7q-10 0 -20 -2l-10 9h39
q1 9 1 18h-15q-9 -7 -18 -13l-2 2q14 16 19 34l14 -7q-5 -2 -9 -9h29l10 7l13 -14h-28q0 -6 -1 -18h14l9 8l15 -15h-39zM152 126h13l-2 -29q0 -10 -6 -32q-12 -29 -47 -47l-2 4q26 19 35 41t9 63zM145 130h40l6 7l15 -14q-9 -1 -27 -21l-3 2l9 19h-42q-6 -11 -19 -25l-3 2
q17 31 22 58l18 -9q-6 -4 -16 -19zM141 240l15 -8h62l8 11l15 -11l-8 -9v-190q0 -20 -22 -26q-3 15 -19 20v4q14 -2 20.5 -1.5t6.5 10.5v125h-64v-2l-14 -4v81zM155 202h64v23h-64v-23zM155 195v-23h64v23h-64zM38 232h61l7 11l16 -13l-7 -8v-26q0 -15 1 -33l-15 -6v8h-64
v-150l-15 -8q1 20 1 43v145q0 23 -1 45zM37 195v-23h64v23h-64zM37 225v-23h64v23h-64zM200 31q-32 18 -40 65l1 11q23 -59 56 -63v-5q-12 1 -17 -8z" />
  </g>

</svg>
