<?xml version="1.0" standalone="no"?>
<!DOCTYPE svg PUBLIC "-//W3C//DTD SVG 1.1//EN" "http://www.w3.org/Graphics/SVG/1.1/DTD/svg11.dtd" >
<svg xmlns="http://www.w3.org/2000/svg" xmlns:xlink="http://www.w3.org/1999/xlink" version="1.1" viewBox="0 -205 1024 1024">
  <g transform="matrix(1 0 0 -1 0 819)">
   <path fill="currentColor"
d="M608 810q-7 -10 -13 -22q29 -69 80 -121q19 -19 38 -37q57 68 94 180h-199zM145 705h107q1 3 2 4q38 74 71 141h-134q-29 -51 -74 -123q12 -12 28 -22zM291 537h92v137h-92v-137zM243 674h-96v-137h96v137zM291 365h92v141h-92v-141zM147 365h96v141h-96v-141zM578 382
v-229h236v229h-236zM803 417l18 28q7 8 14 1q29 -19 57 -41q9 -8 8 -12q-2 -5 -9 -9q-26 -12 -27 -19q-2 -6 -2 -13v-188q0 -36 6 -97q1 -11 -5 -12q-43 -15 -47 -14q-2 1 -2 11v70h-236v-63q0 -8 -6 -9q-20 -8 -39 -17q-9 -3 -8 12q4 63 5 210v100q-1 36 -5 82q-2 12 2 13
q3 1 10 -6q12 -13 36 -31h221q6 0 9 4zM414 220q15 4 16 -5q2 -12 -14 -16q-153 -54 -252 -82q-42 -9 -57 -28q-6 -8 -10 -9q-4 0 -8 9q-9 26 -30 45q-11 11 -10 14q2 3 12 4q92 10 353 68zM431 459h4q82 26 150 69q61 36 101 73q-2 3 -3 4q-65 69 -101 162q-12 -18 -22 -37
q-35 -52 -87 -113q-10 -11 -17 -4t2 17q59 76 105 187q48 110 49 146q2 17 18 7q38 -24 53 -34q11 -10 10 -14q0 -5 -13 -6q-12 -3 -16 -7q-10 -7 -29 -49q-6 -9 -10 -19h161q13 0 17 3l27 34q4 8 10 8t10 -6q31 -30 56 -57q3 -7 -1 -8q-35 -15 -42 -24q-7 -7 -20 -38
q-36 -85 -90 -145q-4 -3 -7 -7q36 -27 76 -51q66 -44 139 -60q8 -3 20 -4q7 -1 6 -7q-1 -9 -13 -10q-15 -2 -33 -11q-22 -10 -35 -26q-5 -5 -17 2q-110 71 -173 138q-39 -33 -88 -61q-71 -47 -189 -81q-4 -1 -8 0v-30q0 -32 6 -87q2 -12 -7 -16q-35 -20 -42 -20q-5 1 -5 11
v46h-236v-47q-1 -8 -5 -9q-10 -4 -32 -13q-15 -6 -14 4q2 26 3 51v362q0 11 -1 18q-19 -24 -40 -51q-10 -10 -17 -4q-8 7 1 17q54 74 96 180t43 140q2 17 18 7q38 -23 53 -33q12 -9 11 -13q-1 -6 -10 -5t-19 -8q-8 -7 -26 -47q-1 -1 -1 -2h122q10 0 14 6l28 30q3 4 7 4
q11 0 56 -60q8 -12 -7 -13q-8 -1 -14 -2q-52 -9 -136 -141h86q6 0 9 4l18 28q7 8 14 1q29 -19 57 -41q6 -6 5 -12q-3 -6 -13 -7q-12 -2 -18 -12q-4 -9 -4 -22v-185z" />
  </g>

</svg>
