<?xml version="1.0" standalone="no"?>
<!DOCTYPE svg PUBLIC "-//W3C//DTD SVG 1.1//EN" "http://www.w3.org/Graphics/SVG/1.1/DTD/svg11.dtd" >
<svg xmlns="http://www.w3.org/2000/svg" xmlns:xlink="http://www.w3.org/1999/xlink" version="1.1" viewBox="0 -36 256 256">
  <g transform="matrix(1 0 0 -1 0 220)">
   <path fill="currentColor"
d="M107 240l16 -13l-10 -7q-8 -17 -24 -38q22 -15 28.5 -22.5t2 -17.5t-13 2.5t-26.5 27.5q-27 -24 -60 -37l-2 4q30 16 53 41q-16 11 -42 26l2 4q23 -9 46 -22q13 18 21 35h-40q-11 0 -20 -2l-10 9h70zM179 161q-25 -20 -62 -33l-1 4q31 16 53 38q-21 27 -28 54h-4l-4 -2
l-7 9h81l9 10l17 -15l-10 -6q-14 -27 -34 -50q23 -18 59 -24v-4q-15 0 -21 -12q-27 13 -48 31zM147 224q13 -28 31 -45q15 17 29 45h-60zM80 100h18l13 11l17 -18h-48q-2 -27 -18.5 -47.5t-46.5 -35.5l-2 4q26 19 37.5 36t14.5 43h-21q-11 0 -20 -2l-10 9h51v12q0 14 -1 30
l24 -9l-8 -8v-25zM175 100v40l22 -10l-7 -6v-24h21l13 12l19 -19h-53v-33q0 -22 1 -44l-17 -6q1 28 1 52v31h-12q-11 0 -20 -2l-10 9h42z" />
  </g>

</svg>
