<?xml version="1.0" standalone="no"?>
<!DOCTYPE svg PUBLIC "-//W3C//DTD SVG 1.1//EN" "http://www.w3.org/Graphics/SVG/1.1/DTD/svg11.dtd" >
<svg xmlns="http://www.w3.org/2000/svg" xmlns:xlink="http://www.w3.org/1999/xlink" version="1.1" viewBox="0 0 2048 2048">
  <g transform="matrix(1 0 0 -1 0 2048)">
   <path fill="currentColor"
d="M1306 1233l67 -15q50 -12 67 -21q16 -9 18 -23q1 -13 -13 -25t-36 -18l-40 -11v-172h337l61 71l72 -49q16 -12 27 -24q12 -11 14 -22q2 -12 -7 -23q-4 -5 -30 -19l-27 -14v-561v-71q0 -10 3 -54q3 -43 4 -64q1 -20 1 -28q-2 -18 -9 -28q-7 -9 -27 -14q-19 -6 -36 -4
q-20 2 -28 11q-7 9 -7 20v46h-786v-46q0 -20 -6 -31t-21 -14q-16 -2 -42 0q-26 1 -34 7q-7 6 -9 19q-2 14 0 35q2 24 3 45l4 87q6 64 6 69v606q0 10 -5 60q-5 51 -8 64l-4 14l122 -88h334v135q0 33 -2 84t-2 54l-2 12h-184q-109 1 -145 -3q-35 -4 -36 -4l-14 -1l-37 88
q13 -4 29 -7q16 -4 60 -10q45 -5 143 -5h467l98 101l121 -106q8 -8 13 -16q6 -7 3 -18t-12 -15t-15 -4h-450zM1271 176v335h-340v-335h340zM1369 176h348v335h-348v-335zM1271 569v321h-340v-321h340zM1369 569h348v321h-348v-321zM139 1626l117 -88h236l68 75l84 -54
q20 -13 30 -25q10 -11 10 -24q-1 -14 -12 -26q-10 -11 -30 -19l-36 -16v-845l59 -45q7 -6 11 -18q3 -12 -4 -21q-8 -10 -13 -10h-409v-61q-1 -10 -4 -14q-2 -4 -10 -9q-7 -4 -24 -4q-26 -1 -40 8q-15 8 -20 20q-5 13 -5 28q-1 15 0 42q1 28 1 38q-1 10 0 14q0 5 4 34
q3 28 3 160v722q-1 55 -5 83l-8 40zM250 567h262v917h-262v-917zM1314 1630q-10 12 -12 18t-5 26q-3 19 -13 50q-9 32 -14 46q-6 15 -16 32t-30 47t-27 39l-13 15l24 24l43 -33q13 -11 44 -40t47 -47q17 -18 30 -39q13 -22 20 -42q6 -20 4 -37q-3 -17 -12 -32t-13 -18l-9 -9
h407l68 79l103 -84q28 -23 24 -39q-5 -16 -20 -22q-15 -7 -42 -15l-38 -11q-49 -58 -59 -67l-70 -67l-30 22q31 60 37 73l34 77h-901q-6 -36 -11 -62q-5 -25 -18 -63t-31 -59q-18 -22 -39 -31t-43 -3t-30 26q-8 19 2 37t31 41q21 24 38 50q16 25 26 48q9 24 18 64
q9 39 11 61l5 51h41v-106h439z" />
  </g>

</svg>
