<?xml version="1.0" standalone="no"?>
<!DOCTYPE svg PUBLIC "-//W3C//DTD SVG 1.1//EN" "http://www.w3.org/Graphics/SVG/1.1/DTD/svg11.dtd" >
<svg xmlns="http://www.w3.org/2000/svg" xmlns:xlink="http://www.w3.org/1999/xlink" version="1.1" viewBox="0 -205 1024 1024">
  <g transform="matrix(1 0 0 -1 0 819)">
   <path fill="currentColor"
d="M404 784h260v198q75 -25 82 -32q7 -5 2 -10q-3 -6 -32 -20v-136h160l36 48l58 -56q3 -4 4 -8q0 -12 -12 -12h-246v-178h134l36 48l58 -54q3 -4 4 -10q0 -12 -12 -12h-220v-190h178l44 54l66 -62q3 -4 4 -8q1 -12 -10 -12h-282v-178l4 -91q0 -9 -24 -22q-22 -12 -38 -12
l6 127v176h-188q-21 0 -68 -8l-16 36h272v190h-136q-21 0 -68 -8l-16 36h220v178h-176q-18 0 -66 -8l-18 36v0v0zM114 890l58 -40h120l32 40l60 -38q12 -6 12 -14q-1 -3 -34 -30v-418l4 -100q1 -12 -16 -24q-16 -13 -40 -16v96h-144v-116q0 -12 -20 -24q-21 -12 -36 -12
l4 150v546v0v0zM166 376h144v444h-144v-444v0v0z" />
  </g>

</svg>
