<?xml version="1.0" standalone="no"?>
<!DOCTYPE svg PUBLIC "-//W3C//DTD SVG 1.1//EN" "http://www.w3.org/Graphics/SVG/1.1/DTD/svg11.dtd" >
<svg xmlns="http://www.w3.org/2000/svg" xmlns:xlink="http://www.w3.org/1999/xlink" version="1.1" viewBox="0 -36 256 256">
  <g transform="matrix(1 0 0 -1 0 220)">
   <path fill="currentColor"
d="M161 113q19 10 33 25l14 -15q-12 0 -39 -13q7 -5 28 -10t43 -4v-5q-17 -3 -19 -11q-24 5 -48.5 16.5t-36.5 28.5v-29q1 -20 -19 -23q-1 11 -29 15v4q29 -2 32 -1.5t3 9.5v37h-70q-15 0 -28 -3l-9 10h165v15h-90q-20 -1 -24 -3l-10 10h124v13h-113q-9 -1 -18 -3l-10 10
h138l8 8l15 -12l-8 -6v-32h20l12 11l17 -18h-106v-7q10 -8 25 -17zM53 137q29 -6 33.5 -10t1 -13t-10.5 1.5t-25 17.5zM111 114l2 -4q-67 -26 -82 -36l-13 13q19 3 93 27zM69 72h121l8 8l14 -13l-9 -6v-36h16l15 12l15 -19h-195q-25 0 -37 -2l-7 9h45q0 28 -1 53zM191 25v40
h-33v-40h33zM145 25v40h-32v-40h32zM100 25v40h-32v-40h32zM71 234l-10 -12h52l9 10l16 -17h-54q19 -9 20 -15t-5 -11t-9 5.5t-14 20.5h-19q-17 -19 -38 -32l-3 2q15 14 25.5 28.5t18.5 34.5l21 -12zM172 235l-11 -13h55l11 9l15 -16h-60q14 -6 18.5 -10.5t3 -9.5t-6 -6
t-8 7.5t-15.5 18.5h-17q-12 -16 -27 -27l-2 2q17 24 24 37t9 21l21 -12z" />
  </g>

</svg>
