<?xml version="1.0" standalone="no"?>
<!DOCTYPE svg PUBLIC "-//W3C//DTD SVG 1.1//EN" "http://www.w3.org/Graphics/SVG/1.1/DTD/svg11.dtd" >
<svg xmlns="http://www.w3.org/2000/svg" xmlns:xlink="http://www.w3.org/1999/xlink" version="1.1" viewBox="0 -205 1024 1024">
  <g transform="matrix(1 0 0 -1 0 819)">
   <path fill="currentColor"
d="M484 726l60 -38h128l30 40l52 -40q9 -6 10 -14q1 -3 -28 -24v-212l4 -80q0 -15 -18 -26q-16 -12 -38 -12v60h-150v-38q0 -13 -18 -26q-18 -12 -36 -12l4 134v288v0v0zM534 406h150v256h-150v-256v0v0zM396 892h518l32 42l56 -50q3 -4 6 -10q-1 -7 -4 -8h-124v-751
q-4 -33 -28 -54q-21 -18 -60 -28q-4 27 -32 44q-28 18 -98 36l4 20q120 -30 142 -22q24 10 22 41v714h-350q-22 0 -70 -8l-14 34v0v0zM212 984l78 -34q17 -6 -4 -18l-26 -10v-640l88 18v468l78 -30q3 -2 4 -10q0 -4 -36 -20v-404l4 -76q0 -12 -14 -24q-15 -13 -36 -14v88
q-144 -39 -192 -60q-49 -20 -68 -40l-50 54q32 12 34 30v514l74 -32q7 -3 8 -8q-3 -5 -36 -22v-464l94 22v712v0v0z" />
  </g>

</svg>
