<?xml version="1.0" standalone="no"?>
<!DOCTYPE svg PUBLIC "-//W3C//DTD SVG 1.1//EN" "http://www.w3.org/Graphics/SVG/1.1/DTD/svg11.dtd" >
<svg xmlns="http://www.w3.org/2000/svg" xmlns:xlink="http://www.w3.org/1999/xlink" version="1.1" viewBox="0 -120 1000 1000">
  <g transform="matrix(1 0 0 -1 0 880)">
   <path fill="currentColor"
d="M254 867l43 -22h14l19 110l59 -22q12 -5 12 -12q0 -9 -14 -13l-19 -5l-38 -58h37l10 25l53 -29q12 -6 12 -14q0 -7 -10 -11l-10 -6v-320l29 1q58 111 111 265l46 -38q11 -9 11 -16q0 -9 -11 -11l-14 -2q-69 -115 -128 -198l96 9q-5 33 -24 70l10 8q68 -61 68 -109
q0 -16 -12 -27q-8 -8 -18 -8t-13 7q-3 4 -8 37l-99 -33l-2 -12q-1 -7 -8 -7q-5 0 -8 7l-26 55v-10l-55 -9v23h-59v-29l-54 -6v410zM308 518h59v137h-59v-137zM308 683h59v136h-59v-136zM35 103q147 98 233 234h-196l-13 27h246v86l62 -5q26 -2 26 -13q0 -8 -11 -13l-18 -10
v-45h121l41 47l78 -52v-22h-222q21 -43 67 -88q46 -44 111 -83l-5 -12q-25 -3 -37 -11q-10 -8 -20 -28q-89 95 -134 210v-256l-59 -8v228q-98 -119 -262 -199zM92 454l-2 -11q-1 -11 -10 -11q-7 0 -11 8l-28 59l51 4q55 117 100 250l49 -42q8 -6 8 -13q0 -9 -12 -9h-11
q-73 -127 -113 -184l69 9q-5 23 -16 47l11 6q57 -63 57 -100q0 -14 -10 -24q-6 -6 -16 -6t-14 6q0 1 -8 43zM113 718q21 -28 21 -52q0 -33 -24 -33q-11 0 -18 9q-2 4 -13 52q-6 29 -31 55l9 10q17 -9 44 -29q25 92 46 190l55 -27q14 -6 14 -14t-14 -10l-11 -2zM489 718
q23 -33 23 -53q0 -31 -25 -31q-9 0 -16 6q-5 5 -9 29q-7 44 -36 81l11 9l36 -25q26 89 46 186l59 -31q9 -4 9 -11t-11 -10l-11 -3zM503 69q64 79 91 156q29 77 31 239v420l67 -34q24 8 75 31q59 28 94 51l61 -54q6 -4 6 -10q0 -11 -13 -11q-3 0 -6 1l-29 8q-23 -6 -91 -21
q-77 -17 -103 -21v-231h147l45 54l78 -61v-20h-109v-493l-60 -10v503h-101q-3 -139 -8 -195q-13 -141 -78 -224q-47 -61 -84 -88z" />
  </g>

</svg>
