<?xml version="1.0" standalone="no"?>
<!DOCTYPE svg PUBLIC "-//W3C//DTD SVG 1.1//EN" "http://www.w3.org/Graphics/SVG/1.1/DTD/svg11.dtd" >
<svg xmlns="http://www.w3.org/2000/svg" xmlns:xlink="http://www.w3.org/1999/xlink" version="1.1" viewBox="0 -36 256 256">
  <g transform="matrix(1 0 0 -1 0 220)">
   <path fill="currentColor"
d="M47 245l22 -9l-8 -8v-42h1l10 11l18 -18h-29v-48l25 15l2 -5l-27 -21v-82q1 -23 -22 -30q3 10 -18 18v5q12 -1 19.5 -1t7.5 12v68q-25 -19 -25 -20l-14 14q13 4 39 21v54h-15l-11 -3l-10 10h36q0 35 -1 59zM127 233l-6 -13h22l10 11l18 -18h-40q12 -5 16 -12t-3 -14t-8 3
t-11 23h-6q-11 -19 -26 -33l-4 3q12 18 18.5 34.5t7.5 27.5l19 -9zM218 201q5 -7 -2.5 -14.5t-8.5 3t-13 23.5h-7q-10 -20 -24 -34l-4 3q13 23 18 39.5t6 24.5l20 -9l-8 -3l-6 -14h23l10 11l18 -18h-39q12 -5 17 -12zM155 142l-13 -4v5h-32v-3l-13 -3q1 13 1 23t-1 24l13 -6
h31l7 8l13 -12l-7 -5q0 -17 1 -27zM110 150h32v21h-32v-21zM169 74h39v20h-39v-20zM170 11l-14 -5q1 23 1 34h-51q-13 0 -22 -3l-10 10h83v20h-40v-2l-14 -5q1 19 1 38.5t-1 37.5l14 -9h91l7 9l13 -15l-7 -3q0 -43 1 -52l-14 -5v6h-39v-20h52l10 11l18 -18h-80q0 -17 1 -29z
M117 101h40v19h-40v-19zM169 101h39v19h-39v-19zM117 74h40v20h-40v-20zM173 161q0 12 -1 24l14 -6h30l5 9l13 -10l-6 -7q0 -18 1 -27l-14 -5v5h-30v-3l-13 -3q1 11 1 23zM185 151h30v21h-30v-21z" />
  </g>

</svg>
