<?xml version="1.0" standalone="no"?>
<!DOCTYPE svg PUBLIC "-//W3C//DTD SVG 1.1//EN" "http://www.w3.org/Graphics/SVG/1.1/DTD/svg11.dtd" >
<svg xmlns="http://www.w3.org/2000/svg" xmlns:xlink="http://www.w3.org/1999/xlink" version="1.1" viewBox="0 -120 1000 1000">
  <g transform="matrix(1 0 0 -1 0 880)">
   <path fill="currentColor"
d="M373 509h-94v-346q0 -23 7 -27q8 -4 23 -4h560q30 -1 40 31l21 88h21l-5 -83v-4q0 -32 28 -38q-2 -16 -11 -29q-19 -23 -52 -23h-632q-31 0 -44 10q-8 6 -11 18q-2 10 -2 43v364h-53q-1 -105 -8 -162q-26 -181 -120 -295l-13 14q44 80 64 179q19 96 19 264h-62l-14 28
h139v186h-70q-32 -105 -60 -158l-16 9q39 121 45 306l77 -22q14 -4 14 -14q0 -9 -14 -13l-22 -5q-9 -43 -17 -75h63v194l74 -14q15 -2 15 -12q0 -7 -11 -13l-19 -8v-147h23l34 54l64 -63v-19h-121v-186h42l40 56l58 -56v310l65 -38h53l24 34l48 -43q11 -10 11 -17
q0 -9 -13 -13l-14 -4v-440l-51 -8v68h-71v-97l-52 -13v233zM425 414h71v368h-71v-368zM708 644h-86l-9 25h171l33 50l55 -54v-21h-109q0 -86 -2 -128h89l38 52l58 -59v-19h-187q-3 -38 -9 -69q41 -19 75 -47q84 -70 84 -133q0 -37 -29 -37q-11 0 -19 9q-5 6 -23 56
q-13 40 -51 86q-21 26 -42 42q-20 -75 -67 -130q-49 -54 -148 -101l-10 16q67 40 101 79q74 87 84 229h-138l-9 26h148q2 44 2 70v29v29zM685 875l-7 25h105l27 36l37 -31q15 -13 15 -22q0 -10 -19 -16l-23 -6q9 -40 51 -96q46 -54 104 -85l-6 -13q-20 -3 -29 -11
q-12 -10 -21 -34q-50 47 -88 132q-24 56 -36 121h-110zM550 611q27 57 45 107q31 90 43 150l70 -33q14 -7 14 -15q0 -10 -18 -13l-16 -2q-59 -118 -126 -203z" />
  </g>

</svg>
