<?xml version="1.0" standalone="no"?>
<!DOCTYPE svg PUBLIC "-//W3C//DTD SVG 1.1//EN" "http://www.w3.org/Graphics/SVG/1.1/DTD/svg11.dtd" >
<svg xmlns="http://www.w3.org/2000/svg" xmlns:xlink="http://www.w3.org/1999/xlink" version="1.1" viewBox="0 -154 1024 1024">
  <g transform="matrix(1 0 0 -1 0 870)">
   <path fill="currentColor"
d="M64 903h755l45 56l87 -60q20 -16 -13 -16h-794q-28 0 -48 -13zM880 668v-517q2 -62 -12 -90t-70 -40q-6 53 -124 71l2 16q110 -23 134 -21t24 50v545h-643v-530l4 -89q-2 -39 -57 -46q5 39 7 182v500q-4 28 -20 41l15 11l45 -49h633l30 41l52 -43q18 -12 0 -19z" />
  </g>

</svg>
