<?xml version="1.0" standalone="no"?>
<!DOCTYPE svg PUBLIC "-//W3C//DTD SVG 1.1//EN" "http://www.w3.org/Graphics/SVG/1.1/DTD/svg11.dtd" >
<svg xmlns="http://www.w3.org/2000/svg" xmlns:xlink="http://www.w3.org/1999/xlink" version="1.1" viewBox="0 -36 256 256">
  <g transform="matrix(1 0 0 -1 0 220)">
   <path fill="currentColor"
d="M73 225l-7 -3q-10 -21 -22 -36h52l7 7l14 -12l-7 -4q-1 -41 -4 -54t-21 -20q-1 15 -20 17v5q26 -5 28.5 2.5t3.5 51.5h-21q-2 -31 -15 -48.5t-40 -30.5l-2 3q42 30 44 75l-14 -2l-7 7q-13 -13 -21 -17l-2 3q24 24 35 66zM78 233l-7 9h18l4 4l9 -7l-6 -4q16 -33 39 -40v-5
q-12 -1 -16 -7q-16 15 -29 53zM189 142q23 -16 50 -18v-4q-16 -1 -18 -11q-16 7 -32 20t-25 40h-14v-42l25 9l2 -4q-27 -16 -32 -25l-12 12q3 2 4 10v40l-12 -2l-10 9h22q0 38 -1 67l15 -7h52l11 9l15 -16h-79v-15h47l11 9l14 -16h-72v-11h48l11 9l14 -16h-73v-13h66l12 10
l14 -17h-72q5 -10 15 -22q24 15 27 21l14 -13q-19 -3 -37 -13zM151 72q46 -16 64 -24.5t17 -23t-15.5 0.5t-66.5 43zM104 59l-10 -2q-39 -30 -78 -41l-1 4q49 22 74 55zM121 82h-78q-12 0 -21 -2l-10 9h109q0 16 -1 24l22 -9l-8 -6v-9h82l12 11l18 -18h-112v-30q0 -26 1 -41
l-15 -4q1 27 1 60v15z" />
  </g>

</svg>
