<?xml version="1.0" standalone="no"?>
<!DOCTYPE svg PUBLIC "-//W3C//DTD SVG 1.1//EN" "http://www.w3.org/Graphics/SVG/1.1/DTD/svg11.dtd" >
<svg xmlns="http://www.w3.org/2000/svg" xmlns:xlink="http://www.w3.org/1999/xlink" version="1.1" viewBox="0 -36 256 256">
  <g transform="matrix(1 0 0 -1 0 220)">
   <path fill="currentColor"
d="M148 244l23 -9l-8 -7v-22h50l13 11l15 -18h-78v-29h39l12 11l15 -18h-110q-4 0 -13 -2l-9 9h52v29h-41q-10 0 -19 -2l-9 9h69q0 28 -1 38zM115 95h89v40h-89v-40zM142.5 56q4.5 -7 4 -12t-6 -10t-8.5 6.5t-18 32.5l2 3q22 -13 26.5 -20zM172 31q5 14 8 26t5 23l21 -12
l-9 -4q-9 -17 -20 -33h-5zM115 142h87l7 9l16 -13l-7 -7q0 -28 1 -45l-15 -6v8h-89v-5l-15 -4q1 14 1 34t-1 36zM217 31l13 12l16 -19h-131q-19 1 -30 -4l-9 11h141zM34.5 136.5q-5.5 -12.5 -13 -14t-10 4.5t9 18.5t14.5 39.5h4q1 -36 -4.5 -48.5zM50 245l22 -13l-8 -9v-170
q0 -22 1 -36l-15 -10q1 36 1 58v126q0 29 -1 54zM89 171q6 -9 4 -17t-8 -8.5t-8 12.5t-11 34l3 2q14 -14 20 -23z" />
  </g>

</svg>
