<?xml version="1.0" standalone="no"?>
<!DOCTYPE svg PUBLIC "-//W3C//DTD SVG 1.1//EN" "http://www.w3.org/Graphics/SVG/1.1/DTD/svg11.dtd" >
<svg xmlns="http://www.w3.org/2000/svg" xmlns:xlink="http://www.w3.org/1999/xlink" version="1.1" viewBox="0 -36 256 256">
  <g transform="matrix(1 0 0 -1 0 220)">
   <path fill="currentColor"
d="M74 228q29 8 35 13l13 -18h-11q-61 -11 -95 -13v6q29 4 58 12zM24 202q24 -21 24.5 -30t-6 -14.5t-8.5 7t-13 34.5zM57 206q15 -14 20 -24.5t-3.5 -17.5t-9.5 6t-10 34zM123 201l-8 -5q-16 -26 -30 -42l-3 2q14 28 22 57zM23 59l-12 17q21 4 55 16v31l9 -4l21 24h-50
q-10 0 -19 -2l-9 9h80l9 9l13 -16l-10 -4l-31 -23l8 -4l-7 -4v-12l37 13l2 -4l-39 -18v-51q-1 -20 -19 -26q-4 13 -31 18v5q23 -2 29 -1.5t7 9.5v40q-31 -14 -43 -22zM149 178h60v27h-60v-27zM149 144h60v27h-60v-27zM137 37l-15 -8q1 29 1 49t-1 39l15 -7h33v27h-21v-5
l-14 -5q1 28 1 51t-1 42l15 -8h11q6 16 10 33l19 -10l-8 -3l-15 -20h42l7 10l14 -13l-7 -7v-45q0 -11 1 -20l-15 -8v8h-25v-27h35l7 10l15 -12l-7 -7v-46q1 -19 -17 -26q-2 13 -23 17v5q14 -2 20 -2t6 9v45h-36v-60q0 -14 1 -25l-16 -9q1 11 1 22v72h-33v-66z" />
  </g>

</svg>
