<?xml version="1.0" standalone="no"?>
<!DOCTYPE svg PUBLIC "-//W3C//DTD SVG 1.1//EN" "http://www.w3.org/Graphics/SVG/1.1/DTD/svg11.dtd" >
<svg xmlns="http://www.w3.org/2000/svg" xmlns:xlink="http://www.w3.org/1999/xlink" version="1.1" viewBox="0 -36 256 256">
  <g transform="matrix(1 0 0 -1 0 220)">
   <path fill="currentColor"
d="M162 151h43v26h-43v-26zM220 145l-15 -5v4h-154v-2l-15 -5q1 23 1 33t-1 21l17 -7h150l7 7l18 -12l-9 -4q0 -16 1 -30zM51 151h40v26h-40v-26zM105 151h44v26h-44v-26zM45 115q13 12 21 29l18 -10q-9 -2 -22.5 -14.5t-23.5 -18.5h35q11 10 16 21l17 -13
q-15 -6 -25.5 -15.5t-36.5 -25.5q11 0 23 0.5t23 0.5q-5 10 -8 20l3 1q11 -8 15.5 -14.5t4.5 -11.5t-3.5 -8t-6 -2t-4.5 11q-18 -3 -33 -6t-24 -8l-10 17q12 1 21.5 8.5t25.5 20.5q-12 -2 -21.5 -3.5t-19.5 -6.5l-9 17q11 -1 24 11zM25 49q14 -11 17.5 -17t2.5 -9.5t-5 -8.5
t-6 -3t-3 10.5t-9 24.5zM58 50q11 -7 16.5 -12.5t6 -9.5t-2.5 -9t-7.5 -6t-5.5 9t-11 27zM91 52q12 -8 17 -12t6.5 -7t0 -8t-6.5 -8t-6.5 5.5t-5 14t-8.5 13.5zM137 27h32v24h-32v-24zM103 72l-4 2q16 24 21.5 39t8.5 30l19 -7q-9 -8 -12 -16h36q-1 6 -3.5 10t-12.5 12l3 2
q17 -6 23 -11t-4 -13h24l13 11l17 -18h-50v-25h16l11 10l17 -17h-44v-23h17l11 11l17 -18h-45v-24h24l14 11l18 -18h-101v-5l-14 -6q1 24 1 88q-13 -19 -21 -25zM137 88h32v25h-32v-25zM137 58h32v23h-32v-23zM33 236l21 -7l-6 -6v-16h72v21q0 7 -1 18l21 -7l-6 -6v-26h73
v13q0 6 -1 15l22 -6l-7 -6v-10q0 -7 1 -13l-15 -4v4h-158l-7 -3l-14 9l6 3v11q0 7 -1 16z" />
  </g>

</svg>
