<?xml version="1.0" standalone="no"?>
<!DOCTYPE svg PUBLIC "-//W3C//DTD SVG 1.1//EN" "http://www.w3.org/Graphics/SVG/1.1/DTD/svg11.dtd" >
<svg xmlns="http://www.w3.org/2000/svg" xmlns:xlink="http://www.w3.org/1999/xlink" version="1.1" viewBox="0 -200 999 1000">
  <g transform="matrix(1 0 0 -1 0 800)">
   <path fill="currentColor"
d="M428 213l-4 3q18 24 35.5 45t36.5 45.5t41 55.5t49 76v82l42 -25q23 32 39 58.5t36 59.5h-142l-52 -11l-14 34h184v161h-63l-30 -11l-18 34h111v182l67 -26l-19 -76v-80h37l41 43l15 -45q7 10 13.5 25t13 31t13 30.5t13.5 24.5l61 -38l-34 -40q-34 -55 -64 -108t-60 -107
h95l40 41l46 -64h-197q-21 -33 -42 -64.5t-50 -67.5h131l34 44l49 -58l-28 -35v-392q-9 -28 -49 -32v101h-170v-75q-2 -13 -15 -23.5t-34 -11.5v367q-20 -28 -43 -52.5t-44.5 -45t-40 -34.5t-30.5 -21zM635 287v-156h170v156h-170zM805 458h-150l-20 -36v-114h170v150z
M727 797v-153q14 22 25 41.5t20 37.5l18 36t20 38h-83zM55 430q42 41 68.5 87.5t44 96.5t28 103t21.5 107l23 43l-50 35h169l-16 -103l-30 -20l39 -46l25 24h79q-6 -156 -29.5 -227t-53.5 -71q-14 0 -22 8t-21 13v-6q20 -12 27.5 -27.5t7.5 -34.5v-25q39 10 63 38t39 73
t22.5 105.5t13.5 135.5l26 30l-51 48l-24 -38h-79l21 104l28 42l-43 37l-23 -38h-279l21 -32l66 11h16q-13 -101 -28 -173t-32 -125.5t-36 -93t-40 -74.5zM156 601h163l35 48q9 -15 20.5 -27t22 -21.5t18 -17.5t7.5 -14q0 -4 -7 -8q-18 -7 -37.5 -17t-37.5 -25.5t-32 -36
t-21 -48.5q-3 -8 -5 -23t-3 -32.5t-1.5 -33.5t-0.5 -26h81l34 44l55 -71h-170v-172q0 -28 -8 -48.5t-20.5 -35t-27.5 -23t-30 -13.5v8q0 18 -4.5 30t-12.5 20.5t-19.5 15.5t-25.5 15v11q20 -7 33.5 -12t23.5 -5q5 0 13 3t16 10.5t13.5 21t5.5 34.5v139h-98l-36 -9l-17 30
h151v168l41 -25q23 34 40 66t17 47q0 11 -13 11q-2 0 -3.5 -0.5t-3.5 -0.5h-89l-42 -23z" />
  </g>

</svg>
