<?xml version="1.0" standalone="no"?>
<!DOCTYPE svg PUBLIC "-//W3C//DTD SVG 1.1//EN" "http://www.w3.org/Graphics/SVG/1.1/DTD/svg11.dtd" >
<svg xmlns="http://www.w3.org/2000/svg" xmlns:xlink="http://www.w3.org/1999/xlink" version="1.1" viewBox="0 -200 1000 1000">
  <g transform="matrix(1 0 0 -1 0 800)">
   <path fill="currentColor"
d="M550 300v431l64 -40h106v305l62 -44l-19 -69v-192h105l41 47l51 -59l-31 -36v-281h-166l1 -332q-6 -9 -13 -13.5t-29 -11.5l-1 357h-123v-38q-10 -12 -24 -18t-24 -6zM763 665v-277h120v277h-120zM609 665h-10v-277h121v277h-111zM435 757h118l-59 68l-34 -45h-183
l18 -35l45 12h51v-515h-145l22 -36l45 14h286l-58 67l-40 -45h-66v515zM106 922l-2 2q24 -12 43.5 -23t32.5 -23.5t20 -29t7 -38.5q0 -17 -6.5 -30.5t-12.5 -15.5q-1 -1 -4 -1q-8 0 -13 15.5t-12.5 38.5t-19.5 51t-33 54zM55 705l-2 -5q15 -8 32.5 -21.5t32 -29.5t24.5 -33
t10 -31v-4q0 -27 -8 -41t-14 -14h-1q-14 2 -18 17t-8.5 39t-15 54t-37.5 63zM280 996l-30 -177q-23 -147 -47 -272.5t-47 -241.5q-2 -25 -9.5 -87.5t-7.5 -164.5v-30q-5 -11 -12.5 -15t-14.5 -4q-15 0 -20.5 10t-5.5 17q0 12 1.5 31.5t3 39.5t3 37.5t1.5 27.5q0 17 -2.5 30
t-8.5 27.5t-16.5 31.5t-27.5 41q1 -1 14 -1q33 0 46 23q6 7 13 25.5t17 52t23.5 84t31.5 119.5l84 400z" />
  </g>

</svg>
