<?xml version="1.0" standalone="no"?>
<!DOCTYPE svg PUBLIC "-//W3C//DTD SVG 1.1//EN" "http://www.w3.org/Graphics/SVG/1.1/DTD/svg11.dtd" >
<svg xmlns="http://www.w3.org/2000/svg" xmlns:xlink="http://www.w3.org/1999/xlink" version="1.1" viewBox="0 -154 1024 1024">
  <g transform="matrix(1 0 0 -1 0 870)">
   <path fill="currentColor"
d="M605 889l37 -33h49l25 42q24 44 20 53l-12 24l8 7l72 -32q16 -12 7 -15q-21 5 -34 -4l-61 -75h123l21 33l46 -37q14 -12 0 -17l-18 -9v-131l5 -88q-1 -18 -12 -24t-29 -12v41h-199v-97h258l26 36l64 -44q12 -9 -6 -8h-342v-90h251l28 39l46 -38q18 -13 0 -19l-20 -13
v-109q2 -103 -9 -142q-12 -38 -34 -60q-23 -21 -101 -38q0 26 -12 32q-12 7 -33 12q-21 6 -79 18l4 16q106 -18 124 -18t41 1q23 3 42 34t19 123v146h-267v-6q0 -25 -11 -34q-10 -9 -34 -14l7 76v427q-3 19 -22 36zM560 814q9 -9 -3 -12q-13 -1 -18 -7t-8 -33
q-3 -16 -12 -61q-9 -44 -20 -93q-18 -75 -41 -135q58 -92 77 -163q16 -72 -8 -85q-24 -15 -33 48q-11 63 -55 155q-33 -71 -75 -139q-45 -73 -141 -161l-8 8q84 103 122 174q42 75 71 145l7 20q-47 90 -117 191l8 9q70 -75 124 -158q13 39 25 86q11 45 21 102q10 58 15 102
h-149q-26 0 -43 -12l-32 32h209l29 33zM236 811l15 -6l-64 -288q-33 -128 -43 -171q-12 -42 6 -150q16 -108 -17 -113q-36 -5 -24 102q10 107 -5 122t-63 21v18q42 0 57 6q14 6 21 37q10 32 28 89q18 55 89 333zM852 840h-199v-102h199v102zM653 724v-96h199v96h-199z
M32 755q66 -21 90 -38q22 -19 34 -37q10 -20 7 -39q-5 -21 -20 -22q-16 -4 -22 20q-6 23 -21 50q-16 26 -72 53zM98 984q68 -21 90 -38q24 -18 34 -37q12 -20 8 -39q-6 -19 -21 -22q-16 -3 -22 20q-4 24 -21 51q-16 27 -72 52zM673 306q33 -30 45 -63q10 -34 4 -58
q-7 -24 -21 -23q-15 0 -12 30q2 28 0 40q-3 10 -7 28q-6 16 -19 40zM741 325q30 -21 51 -49q21 -30 20 -56q-1 -27 -16 -30t-17 24t-14 51q-11 24 -32 50zM817 347q42 -18 64 -47q22 -30 19 -52q-3 -24 -16 -24q-13 -2 -16 21q-3 21 -16 44q-13 21 -43 50zM634 293
q-3 -63 -4 -86q-3 -23 -10 -42q-7 -18 -22 -21t-21 10q-5 13 10 25q12 11 21 38q8 25 12 76h14z" />
  </g>

</svg>
