<?xml version="1.0" standalone="no"?>
<!DOCTYPE svg PUBLIC "-//W3C//DTD SVG 1.1//EN" "http://www.w3.org/Graphics/SVG/1.1/DTD/svg11.dtd" >
<svg xmlns="http://www.w3.org/2000/svg" xmlns:xlink="http://www.w3.org/1999/xlink" version="1.1" viewBox="0 -36 256 256">
  <g transform="matrix(1 0 0 -1 0 220)">
   <path fill="currentColor"
d="M127 164q1 -12 -14 -17q-1 9 -16 12v2q19 -1 18 3v41h-16v-41l-11 -4v45h-16v-44l-11 -5v49h-17v-51l-12 -4v67l14 -5h17l5 15h-15q-13 0 -22 -3l-10 10h85l10 11l18 -18h-51l-14 -15h48l5 6l10 -8l-5 -6v-40zM112 139l10 9l14 -16h-53l-2 -8q44 -8 41 -22t-12 -4t-31 21
q-13 -25 -60 -40l-2 3q45 20 52 50h-14q-13 0 -22 -3l-10 10h48v19l21 -6l-7 -4l-1 -9h28zM209 234l10 11l18 -18h-68l-2 -27h36l10 8l13 -12l-7 -6l-6 -74q-1 -7 9 -7q7 0 9 31h3q0 -27 10 -35q-6 -9 -15 -8h-20q-11 4 -10 12l6 84h-39l-7 -77l34 12l2 -3q-24 -12 -46 -31
l-11 11q7 4 8 10l10 112v0v0l-11 -3l-10 10h74zM170 174q20 -11 23.5 -17t-2 -12t-7.5 2.5t-17 24.5zM72 81q-7 -17 -11.5 -25.5t-12.5 -9.5t-13 2.5t8 9t24 23.5h5zM74.5 32q20.5 10 29.5 28.5t8 35.5l20 -7l-6 -7q4 -10 21 -27q31 19 39 32l16 -13q-9 -2 -22.5 -8.5
t-28.5 -14.5q37 -26 96 -30v-3q-24 -2 -24 -10q-73 13 -98 65q-8 -35 -40 -47.5t-76 -15.5v4q45 8 65.5 18z" />
  </g>

</svg>
