<?xml version="1.0" standalone="no"?>
<!DOCTYPE svg PUBLIC "-//W3C//DTD SVG 1.1//EN" "http://www.w3.org/Graphics/SVG/1.1/DTD/svg11.dtd" >
<svg xmlns="http://www.w3.org/2000/svg" xmlns:xlink="http://www.w3.org/1999/xlink" version="1.1" viewBox="0 -36 256 256">
  <g transform="matrix(1 0 0 -1 0 220)">
   <path fill="currentColor"
d="M149 203h28v21h-28v-21zM110 165h26v31h-26v-31zM149 165h28v31h-28v-31zM190 165h31v31h-31v-31zM234 158l-12 -5v5h-112v-3l-14 -5q1 17 1 32t-1 28l16 -7h24v21h-33q-4 0 -13 -2l-9 9h139l13 12l17 -19h-60v-21h27l7 8l14 -10l-5 -5q0 -28 1 -38zM106 118h45v12h-45
v-12zM106 101h45v10h-45v-10zM131.5 144q-2.5 -4 -6.5 -7h25l5 8l14 -11l-6 -5v-35l-12 -6v6h-45v-3l-13 -3q1 9 1 26.5t-1 29.5l14 -7h12q2 6 4.5 11t2.5 11l14 -7q-6 -4 -8.5 -8zM149 15.5q-5 -7.5 -15 -8.5q-5 11 -14 15l1 3q12 -4 15.5 -3.5t5.5 7.5t4 19h-27
q-3 -13 -13 -24t-28 -17l-1 2q20 14 26.5 28.5t4.5 27.5h-3q-7 1 -13 -3l-9 10h71l10 8l12 -15h-53l-3 -10h27l7 5l11 -10l-7 -6q-4 -21 -9 -28.5zM231 10q-14 11 -30 34q-22 -25 -50 -37l-2 5q33 22 44 41q-11 24 -15 50q-6 -12 -17 -24l-2 2q9 21 16 41.5t9 33.5l22 -13
l-12 -2l-8 -20h38l10 9l12 -16h-17q-8 -38 -22 -60q23 -26 41 -32l-1 -5q-12 0 -16 -7zM182 114q8 -31 18 -49q11 21 16 49h-34zM118 94q15 -3 18.5 -8t-1 -10.5t-7.5 1t-11 14.5zM13 68l3 2q17 -29 17 -36.5t-7 -13.5t-6.5 5.5t-6.5 42.5zM34 74l2 3q21 -21 23 -32
t-5 -13.5t-8 7.5t-12 35zM59 85q25 -19 27 -27t-4 -15t-8.5 4.5t-16.5 34.5zM57 227q-19 -36 -35 -58l37 1q7 12 12 25l17 -16l-9 -2q-36 -51 -58 -72l49 5q-4 13 -13 27l2 3q29 -26 29 -35.5t-5.5 -13.5t-7 1.5t-4.5 12.5q-22 -5 -35 -9t-22 -9l-8 19q8 -1 21 16t28 42
q-29 -6 -38 -13l-8 19q7 -2 18.5 22t19.5 50l20 -11z" />
  </g>

</svg>
