<?xml version="1.0" standalone="no"?>
<!DOCTYPE svg PUBLIC "-//W3C//DTD SVG 1.1//EN" "http://www.w3.org/Graphics/SVG/1.1/DTD/svg11.dtd" >
<svg xmlns="http://www.w3.org/2000/svg" xmlns:xlink="http://www.w3.org/1999/xlink" version="1.1" viewBox="0 -205 1024 1024">
  <g transform="matrix(1 0 0 -1 0 819)">
   <path fill="currentColor"
d="M636 998l72 -26q9 -3 4 -8q-3 -6 -30 -14v-58h80v102l64 -26q15 -4 4 -14l-24 -10v-50v-2h66l34 32l44 -40l4 -8q0 -6 -26 -24v-168l4 -58q0 -12 -18 -20t-32 -6v24h-322v-6q0 -9 -18 -18q-16 -10 -34 -8l4 76v258l50 -34h74v106v0v0zM560 650h76v92h-76v-92v0v0z
M682 742v-92h80v92h-80v0v0zM806 742v-92h76v92h-76v0v0zM560 770h76v94h-76v-94v0v0zM682 864v-94h80v94h-80v0v0zM806 770h76v94h-76v-94v0v0zM922 584l44 -44q3 -4 4 -8q-1 -9 -8 -8h-420v-170h352l30 34l46 -44l4 -8q0 -9 -8 -8h-238q21 -46 66 -112q75 69 100 96
q47 -34 50 -40t0 -8q-4 -3 -20 -2q-15 0 -30 -8q-14 -8 -88 -52q31 -41 62 -61q30 -20 60 -28q29 -6 80 -12v-18q-22 0 -46 -6q-23 -5 -40 -32q-51 23 -90 64q-40 41 -74 95q-33 55 -50 122h-58v-215l110 51l8 -15q-52 -32 -82 -52q-28 -18 -64 -72l-54 52l34 20v233h-62
q-3 -118 -32 -179q-27 -62 -102 -124l-10 8q59 72 80 141q22 72 20 204v204l54 -32h344l28 34v0v0zM580 450h264l26 32q51 -42 52 -50q0 -9 -8 -8h-274q-21 0 -44 -8l-16 34v0v0zM294 908v-102h108l36 38l54 -50q3 -4 4 -4q0 -12 -12 -12h-190v-30q111 -30 142 -48
q28 -15 38 -36q9 -19 4 -34t-22 -18q-18 -1 -32 22q-12 23 -48 50q-34 25 -82 44v-52l4 -22q1 -15 -18 -30q-18 -12 -38 -12l4 94v62q-52 -75 -106 -126q-53 -49 -112 -82l-8 12q69 63 108 106q36 41 70 100h-70q-21 0 -68 -6l-16 34h202v98q-114 -12 -180 -18v18
q96 12 196 36q99 23 148 40q46 -51 44 -60q0 -7 -12 -4q-11 0 -28 4q-18 3 -120 -12v0v0zM246 602q60 -18 60 -24q0 -3 -2 -6q0 -4 -12 -4q-10 -1 -28 -20q104 -22 146 -44q42 -19 52 -40q10 -19 2 -34q-9 -14 -26 -12q-15 0 -32 22q-15 21 -54 48q-39 24 -102 46
q-48 -43 -90 -80q-43 -36 -136 -90l-6 12q74 56 122 104q45 47 106 122v0v0zM242 476l76 -26q6 -3 4 -12q0 -1 -36 -16v-114q50 34 110 92l48 -34q6 -7 6 -10t-12 -6q-21 1 -44 -10q-21 -10 -108 -58v-6q66 -22 96 -34t48 -32q16 -18 14 -42q-1 -20 -22 -23q-19 -3 -32 21
q-11 26 -40 50q-28 24 -64 40v-143q1 -37 -16 -56q-18 -17 -44 -26q-10 32 -32 42q-19 8 -74 22l6 18q54 -9 76 -12q20 -1 32 4q10 6 8 44v99q-101 -55 -118 -70q-18 -13 -36 -35l-42 47l196 84v202v0v0zM122 396q38 -20 58 -34q20 -13 28 -32q8 -18 2 -32q-6 -13 -24 -16
q-15 -2 -20 18q-6 20 -14 40q-9 18 -38 46l8 10v0v0z" />
  </g>

</svg>
