<?xml version="1.0" standalone="no"?>
<!DOCTYPE svg PUBLIC "-//W3C//DTD SVG 1.1//EN" "http://www.w3.org/Graphics/SVG/1.1/DTD/svg11.dtd" >
<svg xmlns="http://www.w3.org/2000/svg" xmlns:xlink="http://www.w3.org/1999/xlink" version="1.1" viewBox="0 -205 1024 1024">
  <g transform="matrix(1 0 0 -1 0 819)">
   <path fill="currentColor"
d="M432 816h216v154l82 -30q6 -4 6 -8q0 -3 -6 -6l-30 -18v-92h110l40 50l60 -58q2 -3 2 -8q0 -10 -12 -10h-200v-132h174l38 50l60 -58q3 0 4 -6q0 -12 -12 -12h-480q-21 0 -68 -8l-16 34h248v132h-132q-18 0 -66 -8l-18 34v0v0zM500 512q-54 -41 -144 -100l-10 12
q90 78 198 196q61 -37 62 -44t-12 -8q-14 -1 -28 -8q-12 -6 -66 -48v0v0zM738 614q71 -27 118 -54q48 -24 72 -54q25 -27 20 -50q-6 -24 -26 -26q-19 -4 -34 26q-16 27 -44 58q-27 29 -114 86l8 14v0v0zM634 482q6 -4 6 -8l-6 -6q-14 -4 -28 -14q-13 -9 -28 -36h180l28 38
l62 -50q9 -7 6 -10q1 -6 -22 -12q-20 -16 -52 -70q-30 -54 -84 -114q36 -27 84 -48q45 -20 96 -33q48 -11 112 -14v-18q-34 -1 -56 -8t-40 -36q-56 19 -112 50q-56 30 -118 79q-58 -46 -140 -87q-82 -38 -212 -70l-6 16q132 49 204 88q72 37 124 83q-58 72 -92 168
q-87 -120 -162 -186l-14 10q84 108 130 184q42 74 76 140l64 -36v0v0zM558 394q30 -75 102 -164q44 40 104 164h-206v0v0zM38 742h164v238l82 -32q12 -6 4 -14l-34 -16v-176h64l40 44l50 -54q12 -15 -8 -18h-146v-180l138 82l10 -16l-148 -110v-363q2 -36 -16 -64
q-19 -24 -64 -40q-6 36 -36 50q-28 15 -76 32l4 16q94 -26 116 -20q20 6 20 32v327q-69 -53 -84 -70q-12 -16 -30 -38l-54 56l168 100v206h-92q-21 -1 -50 -10l-22 38v0v0z" />
  </g>

</svg>
