<?xml version="1.0" standalone="no"?>
<!DOCTYPE svg PUBLIC "-//W3C//DTD SVG 1.1//EN" "http://www.w3.org/Graphics/SVG/1.1/DTD/svg11.dtd" >
<svg xmlns="http://www.w3.org/2000/svg" xmlns:xlink="http://www.w3.org/1999/xlink" version="1.1" viewBox="0 -144 1024 1024">
  <g transform="matrix(1 0 0 -1 0 880)">
   <path fill="currentColor"
d="M197 398l-4 15l-4 14l-12 27l-8 13l-9 12l-23 25l-2 1l-31 -51l-30 -39l-33 -36l-8 5l46 85l40 92l17 49l16 51l13 54l12 56l9 59l6 46h-155v21h293l44 49l54 -49v-21h-172l-9 -57l-14 -60l-16 -58l-4 -13h114l32 27l59 -49l-27 -16l-4 -2l-9 -66l-18 -86l-24 -80
l-28 -74l-32 -68l-38 -60l-42 -55l-48 -48l-52 -40l-56 -32l-5 8l49 40l44 45l40 49l36 55l31 59l27 65l23 72l18 77l14 82l8 75h-119l-27 -72l-23 -49l-14 -28l20 -7l16 -8l16 -11l14 -11l13 -13l12 -15l11 -16l10 -17l8 -19l-4 -24l-19 -15l-25 3l-15 19zM846 148l57 -30
l-7 -11l-8 -11l-9 -10l-10 -8l-11 -8l-11 -6l-12 -5l-13 -3l-13 -2l-13 -1v33l-108 16v16h108h7l7 1l5 2l5 2l5 2l4 4l5 3l4 5l4 5zM397 128l41 -50l-24 -7l-22 11l-6 24zM438 78l-26 31l-7 9l-1 1l-1 2l-2 2l-1 1l-1 1l-1 3h-1l7 3l8 6l7 8l7 9l7 13l6 14l6 17l5 19l5 21
l2 22l10 1l2 -24l3 -22l2 -21v-20l-2 -19l-3 -17l-5 -17l-7 -16l-8 -14zM526 133l64 -9l-12 -21l-24 -6l-21 12zM903 118l-14 7l-4 3l-17 9l-18 9l-4 2l3 7l6 21l2 14l3 17l2 18l1 21l1 23l1 26v16h-335l-3 -8l-71 -13l61 201h-2l-65 -32v315l65 -32h130v98h-226v22h226v128
l65 -11l16 -11l-16 -9v-97h130l44 48l54 -48v-22h-228v-98h129l32 27l59 -49l-26 -21v-208l-65 -32v32h-255l-21 -72h199l44 48l54 -48v-22h-304l-20 -64h329l33 27l59 -49l-27 -16l-1 -1v-27l-1 -24l-2 -24l-2 -21l-3 -18l-3 -18l-5 -16l-5 -15zM640 160v11v11l-1 11l-3 11
l-2 11l-3 11l-10 23l-7 10l6 7l11 -9l11 -7l11 -9l9 -9l9 -10l16 -24l6 -13l6 -14l5 -14l-7 -24l-21 -12l-24 7l-12 21v11zM526 133l64 -9l-1 15l-1 14l-4 14l-3 14l-5 14l-6 13l-7 13l-7 13l-9 12l-8 13l-8 -4l4 -14l2 -28v-25l-1 -13l-2 -11l-2 -11l-3 -10zM751 187l-2 9
l-2 10l-3 9l-8 19l-11 19l-6 11l-10 7l5 8l12 -6l11 -4l12 -6l12 -6l10 -8l10 -8l17 -19l8 -12l7 -11l-2 -25l-18 -16l-24 2l-17 18zM645 609h-130v-96h130v96zM839 609h-129v-96h129v96zM645 720h-130v-89h130v89zM839 720h-129v-89h129v89z" />
  </g>

</svg>
