<?xml version="1.0" standalone="no"?>
<!DOCTYPE svg PUBLIC "-//W3C//DTD SVG 1.1//EN" "http://www.w3.org/Graphics/SVG/1.1/DTD/svg11.dtd" >
<svg xmlns="http://www.w3.org/2000/svg" xmlns:xlink="http://www.w3.org/1999/xlink" version="1.1" viewBox="0 -36 256 256">
  <g transform="matrix(1 0 0 -1 0 220)">
   <path fill="currentColor"
d="M129 214h80v17h-80v-17zM129 191h80v16h-80v-16zM130 238h77l8 7l15 -11l-7 -4q0 -30 1 -45l-15 -5v4h-12v-16h16l10 11l18 -18h-44v-20h21l10 11l18 -18h-56q7 -10 23.5 -21.5t33.5 -14.5v-3q-16 -1 -16 -10q-28 13 -47 49h-30q-23 -29 -72 -48l-1 3q38 22 57 45h-20
q-13 0 -22 -3l-10 10h54v20h-19l-11 -3l-10 10h40v16h-11v-3l-14 -6q1 15 1 35t-1 34zM152 168h33v16h-33v-16zM152 141h33v20h-33v-20zM191 120l13 -14q-10 -1 -30 -2v-22h17l10 11l18 -18h-45v-18h42l10 11l18 -18h-70v-25q1 -12 -20 -18q0 11 -27 15v4q16 -1 24.5 -1.5
t9.5 7.5v18h-28q-13 0 -22 -3l-10 10h60v18h-14q-13 0 -22 -3l-10 10h46v20q-16 -1 -39 -2v4q50 6 69 16zM73 232l-9 -8v-64q17 24 21 39l15 -13q-7 -3 -15 -11t-21 -22q0 -24 -3 -60q21 -11 29.5 -22.5t6 -21t-5.5 -8t-8.5 14.5t-22.5 32q-10 -53 -48 -79l-1 3
q26 32 33.5 63.5t7 72.5t-1.5 96zM28.5 137q-4.5 -9 -10 -11t-8.5 3t4.5 13t14.5 35h4q0 -31 -4.5 -40z" />
  </g>

</svg>
