<?xml version="1.0" standalone="no"?>
<!DOCTYPE svg PUBLIC "-//W3C//DTD SVG 1.1//EN" "http://www.w3.org/Graphics/SVG/1.1/DTD/svg11.dtd" >
<svg xmlns="http://www.w3.org/2000/svg" xmlns:xlink="http://www.w3.org/1999/xlink" version="1.1" viewBox="0 -36 256 256">
  <g transform="matrix(1 0 0 -1 0 220)">
   <path fill="currentColor"
d="M173 15l-15 -7q1 17 1 81q-14 -23 -33.5 -40.5t-42.5 -28.5l-2 4q19 13 37 32t26 35h-23q-10 0 -19 -2l-8 9h65q0 7 -1 28l22 -10l-8 -8v-10h42l11 12l16 -19h-64q9 -14 28.5 -31.5t39.5 -20.5v-4q-12 -1 -19 -12q-36 26 -53 68h-1q0 -62 1 -76zM138 132h56v27h-56v-27z
M124 174l14 -8h55l9 9l12 -13l-7 -4q0 -26 1 -34l-14 -7v8h-56v-3l-14 -5q1 30 0 57zM120 236q18 -11 24 -19t-0.5 -17.5t-10 4.5t-15.5 29zM225 185h-107q0 -12 -4.5 -19t-12 -4.5t0.5 11.5t13 32h3v-13h44q0 37 -1 52l21 -11l-7 -8v-33h12q17 29 21 42l16 -12
q-11 -5 -32 -30h31l8 10l13 -16q-9 -2 -25 -23l-4 2zM34 94q12 -4 28 -10q11 27 20 90h-30q-4 -22 -18 -80zM61 223q-3 -15 -8 -42h28l8 10l12 -13l-6 -6q-10 -63 -22 -92q18 -11 21.5 -16.5t1.5 -13.5t-8.5 -0.5t-19.5 18.5q-22 -36 -58 -56l-2 3q33 27 49 60
q-20 13 -25 14q-3 -6 -5.5 -7t-5.5 0.5t0 11.5q9 33 18 80h-6q-8 1 -17 -3l-6 10h30q8 42 9 59l20 -11z" />
  </g>

</svg>
