<?xml version="1.0" standalone="no"?>
<!DOCTYPE svg PUBLIC "-//W3C//DTD SVG 1.1//EN" "http://www.w3.org/Graphics/SVG/1.1/DTD/svg11.dtd" >
<svg xmlns="http://www.w3.org/2000/svg" xmlns:xlink="http://www.w3.org/1999/xlink" version="1.1" viewBox="0 -205 1024 1024">
  <g transform="matrix(1 0 0 -1 0 819)">
   <path fill="currentColor"
d="M410 854h132v138l80 -28q18 -9 0 -18l-28 -14v-78h182v134l74 -28q17 -7 2 -16l-24 -16v-74h74l36 38l54 -48q3 -3 4 -6q1 -10 -12 -10h-156v-42l4 -38q1 -15 -18 -26q-21 -12 -42 -12l4 64v54h-182v-46l4 -44q0 -15 -20 -26q-22 -12 -40 -12l4 84v44h-48q-24 0 -60 -8
l-24 34v0v0zM404 620h264v138l76 -26q8 -3 8 -6v-6l-34 -16v-84h170l34 40l60 -54q6 -13 -12 -14h-252v-142h108l30 36l62 -44q12 -12 -6 -18q-15 -6 -26 -14q-9 -9 -30 -50q-19 -42 -56 -92q-36 -52 -72 -82q30 -28 72 -45q39 -19 78 -32q36 -12 130 -16v-20q-44 1 -64 -10
q-18 -8 -30 -32q-61 24 -112 54q-51 28 -102 71q-78 -53 -152 -85q-76 -29 -184 -50l-6 18q111 27 186 66q74 40 122 79q-51 54 -84 108q-34 54 -64 130h-22q-27 -1 -42 -10l-26 38h240v142h-180q-21 0 -68 -8l-16 36v0v0zM548 422q27 -63 58 -108q30 -45 90 -102
q47 51 80 102q30 51 54 108h-282v0v0zM98 960l60 -40h158l28 36l52 -42l4 -8q0 -6 -26 -26v-516l4 -54q1 -13 -16 -22q-15 -8 -36 -10v60h-178v-48q0 -12 -20 -24t-34 -12l4 80v626v0v0zM148 364h178v168h-178v-168v0v0zM148 558h178v162h-178v-162v0v0zM148 746h178v148
h-178v-148v0v0zM30 65q90 116 144 235l60 -28q7 -6 0 -14q-20 -6 -28 -12t-40 -54q-32 -44 -124 -137l-12 10v0v0zM262 280l10 10q51 -37 88 -76q35 -37 40 -64q6 -25 -6 -43q-10 -15 -28 -12q-19 3 -22 32q-3 26 -26 71q-22 42 -56 82v0v0z" />
  </g>

</svg>
