<?xml version="1.0" standalone="no"?>
<!DOCTYPE svg PUBLIC "-//W3C//DTD SVG 1.1//EN" "http://www.w3.org/Graphics/SVG/1.1/DTD/svg11.dtd" >
<svg xmlns="http://www.w3.org/2000/svg" xmlns:xlink="http://www.w3.org/1999/xlink" version="1.1" viewBox="0 -36 256 256">
  <g transform="matrix(1 0 0 -1 0 220)">
   <path fill="currentColor"
d="M60.5 208q-4.5 15 -18.5 33l2 2q22 -12 27.5 -19.5t-0.5 -19t-10.5 3.5zM82 195l12 -14l-7 -5q-8 -20 -20 -40v-18l5 -2q10 12 19 35l13 -12q-10 -3 -28 -25q13 -5 19 -12t2 -17t-10 3t-20 26v-100l-13 -6v109q-18 -25 -46 -44l-2 3q18 17 36 42.5t32 60.5h-29
q-10 0 -19 -2l-9 9h56zM135.5 195.5q-13.5 -16.5 -34.5 -29.5l-2 3q12 12 22.5 26t16.5 31l15 -13q-4 -1 -17.5 -17.5zM231 167q-18 9 -31 29t-16 31h-15l-7 -2l-8 9h26l5 8l14 -8l-6 -7q3 -11 18.5 -26.5t36.5 -19.5v-4q-13 -2 -17 -10zM199 160q-5 11 -14 22l3 2
q19 -14 25.5 -23t0 -17t-9 -1.5t-3.5 11.5q-66 -7 -74 -13l-9 17q12 4 24 19t18 30l17 -12q-10 -6 -22 -17.5t-22 -20.5zM142.5 30q7.5 0 7.5 8v34q-37 -26 -47 -37l-11 15q15 3 58 28v43h-25q-10 0 -19 -2l-9 9h51l8 10l13 -13l-6 -6v-82q0 -20 -20 -29q-1 14 -24 20v4
q16 -2 23.5 -2zM180 34l-12 14q13 3 54 29v44h-22q-11 0 -20 -2l-9 9h49l9 10l13 -13l-7 -6v-85q0 -18 -18 -26q-2 13 -26 18v4q20 -1 25 0t6 8v33q-33 -25 -42 -37zM110 114q21 -13 23.5 -20.5t-2.5 -15t-8.5 4.5t-15.5 29zM180 111q19 -10 24.5 -16.5t0 -16t-9.5 2.5
t-16 27z" />
  </g>

</svg>
