<?xml version="1.0" standalone="no"?>
<!DOCTYPE svg PUBLIC "-//W3C//DTD SVG 1.1//EN" "http://www.w3.org/Graphics/SVG/1.1/DTD/svg11.dtd" >
<svg xmlns="http://www.w3.org/2000/svg" xmlns:xlink="http://www.w3.org/1999/xlink" version="1.1" viewBox="0 -52 256 256">
  <g transform="matrix(1 0 0 -1 0 204)">
   <path fill="currentColor"
d="M128 248l16 -7q5 -3 2 -4q-5 0 -8 -6q-7 -27 -15 -46v-139v-23q0 -6 -3 -8q-1 0 -4 -2q-4 -1 -6 -2q2 11 2 46v105q-12 -23 -25 -35v-24l1 -12q0 -5 -4 -7q-3 -3 -9 -4q0 17 2 30v112h-48v-116l1 -18q0 -6 -3 -8q-4 -3 -10 -4q0 4 1 19q1 13 1 22v107q-1 8 -6 11l4 3
l9 -11h44l12 11l11 -13q2 -1 2 -3q-1 -1 -3 -1l-5 -3v-85q25 40 37 84q1 3 2 8q3 12 3 15q0 4 -3 7zM129 101h49q3 20 2 42h-21q-8 -20 -24 -37l-2 2q15 26 21 48q3 12 3 14q0 3 -2 6l2 2l18 -7q2 -2 -1 -2q-5 -1 -8 -7q0 -2 -2 -7q-1 -4 -2 -7h48l8 10l18 -12q2 -2 1 -2
q0 -1 -3 -1h-43q0 -22 -2 -42h35l9 10l17 -12q2 -2 1 -2q0 -1 -3 -1h-51q15 -59 54 -68v-3q-8 0 -11 -1q-3 0 -8 -5q-33 23 -39 77h-5q-9 -58 -58 -82l-1 3q41 26 48 79h-28q-7 0 -11 -3zM44 197l21 -8q2 -1 2 -2l-1 -1h-1q-2 -1 -6 -5q1 -56 -5 -89q-8 -51 -50 -77l-1 3
q35 32 42 79q4 27 4 89q-3 6 -6 9zM135 191h68l3 35h-39q-6 -1 -9 -3l-8 8h52l8 10l13 -12q2 -1 2 -2t-2 -1q-3 0 -6 -4l-3 -31h10l7 10l17 -13q4 -2 -2 -2h-91q-7 0 -11 -4zM58 69l2 3q23 -13 32 -26q0 -1 1 -1q3 -5 2 -9q-2 -5 -5 -5q-5 0 -7 7q-6 18 -25 31z" />
  </g>

</svg>
