<?xml version="1.0" standalone="no"?>
<!DOCTYPE svg PUBLIC "-//W3C//DTD SVG 1.1//EN" "http://www.w3.org/Graphics/SVG/1.1/DTD/svg11.dtd" >
<svg xmlns="http://www.w3.org/2000/svg" xmlns:xlink="http://www.w3.org/1999/xlink" version="1.1" viewBox="0 -205 1024 1024">
  <g transform="matrix(1 0 0 -1 0 819)">
   <path fill="currentColor"
d="M606 890q-21 -9 -116 -42v-228l122 88q-25 54 -62 90l12 12q71 -47 94 -82q24 -36 24 -56q0 -21 -8 -32q-9 -10 -24 -10q-15 -1 -18 14q-4 11 -10 44q-76 -66 -104 -92q-28 -28 -52 -58l-52 48l30 28v300l54 -40q83 36 152 90q43 -43 44 -50q-1 -7 -4 -8q-4 -1 -14 -2
q-9 0 -26 -2q-18 -3 -42 -12v0v0zM466 504l60 -36h314l28 34l56 -42q12 -13 -2 -22l-22 -14v-276l4 -75q0 -12 -12 -24q-9 -9 -42 -18v78h-334v-40q0 -13 -18 -24q-15 -13 -36 -12l4 111v360v0v0zM516 135h138v145h-138v-145v0v0zM706 135h144v145h-144v-145v0v0zM516 306
h138v136h-138v-136v0v0zM706 442v-136h144v136h-144v0v0zM738 854h-34q-7 0 -28 -6l-20 30h212l32 34q51 -40 54 -46t0 -8q-2 -3 -28 -20q0 -179 -8 -220q-9 -42 -32 -60q-22 -17 -64 -34q-9 30 -30 42q-19 14 -58 26l6 16l48 -8q29 -6 52 -2t32 38q7 34 6 218h-94
q-2 -137 -46 -214q-45 -78 -152 -138l-8 14q86 69 122 138q32 65 38 200v0v0zM330 944l54 -44q10 -7 8 -14q-1 -4 -34 -28l-36 -356h10l26 30l50 -38q9 -7 -2 -16l-24 -14q-6 -171 -14 -240q-7 -69 -32 -103q-21 -36 -78 -64q-9 33 -36 48q-25 12 -74 30l4 17q47 -12 86 -13
q38 -4 56 11q17 18 26 78q8 59 14 248h-160l-22 -32l-62 44l36 28q22 240 26 306l70 -30q11 -9 -4 -14l-22 -16l-26 -260h106l36 378h-176q-24 1 -44 -10l-22 36h230l30 38v0v0zM304 374l6 -16q-129 -60 -162 -78q-30 -15 -54 -42l-40 60l250 76v0v0z" />
  </g>

</svg>
