<?xml version="1.0" standalone="no"?>
<!DOCTYPE svg PUBLIC "-//W3C//DTD SVG 1.1//EN" "http://www.w3.org/Graphics/SVG/1.1/DTD/svg11.dtd" >
<svg xmlns="http://www.w3.org/2000/svg" xmlns:xlink="http://www.w3.org/1999/xlink" version="1.1" viewBox="0 -205 1024 1024">
  <g transform="matrix(1 0 0 -1 0 819)">
   <path fill="currentColor"
d="M422 832h246v130q81 -33 84 -36q2 -3 2 -8q0 -3 -38 -18v-68h152l40 50l60 -56q3 -3 4 -6q0 -13 -12 -14h-244v-82h132l28 36l54 -40l4 -8q1 -6 -28 -26v-140l4 -72q0 -10 -18 -20q-17 -10 -34 -10v28h-142l-2 -104l154 4q-24 27 -72 64l10 12q92 -42 116 -66
q21 -24 28 -44q7 -19 2 -38q-6 -18 -24 -20q-18 -1 -26 22q-7 24 -26 52q-282 -28 -330 -34q-47 -6 -100 -24l-30 58l250 12l2 106h-146v-20q2 -10 -16 -22q-18 -10 -36 -10l4 108v228l42 -32h152v82h-162q-21 0 -68 -8l-16 34v0v0zM522 498h146v90h-146v-90v0v0zM716 588
v-90h142v90h-142v0v0zM484 266q1 -73 -4 -106q-3 -30 -14 -55q-12 -24 -32 -36q-21 -13 -38 -8q-15 4 -20 20q-4 16 20 34q24 15 42 47q19 32 26 104h20v0v0zM846 272q56 -34 94 -64q36 -31 46 -52q10 -17 8 -35q-3 -15 -12 -24q-9 -10 -24 -8q-13 3 -22 32q-7 26 -28 59
q-22 32 -70 80l8 12v0v0zM586 214v-89q0 -32 10 -38q12 -6 42 -10h110q30 3 40 12q10 8 14 22q3 15 4 39q2 23 4 68h18l4 -60q0 -44 34 -63q-8 -29 -34 -44q-23 -12 -76 -16h-108q-48 0 -78 12q-30 11 -32 70v159l72 -28q11 -5 14 -10q0 -6 -6 -8q-6 -4 -32 -16v0v0z
M660 310q51 -36 72 -66q21 -28 18 -52q0 -24 -12 -32q-12 -7 -24 -4q-12 2 -14 16q-3 12 -6 34q-3 20 -12 40q-7 20 -34 56l12 8v0v0zM522 614h146v84h-146v-84v0v0zM716 698v-84h142v84h-142v0v0zM94 776l44 -38h78v228l72 -34q12 -6 4 -18l-28 -16v-160h68l20 34l54 -38
q12 -9 4 -14l-22 -18v-214l4 -58q2 -14 -10 -22q-13 -7 -40 -10v44h-78v-220l98 18q-16 42 -52 100l12 10q69 -66 88 -98q15 -30 18 -50q0 -21 -8 -32q-10 -10 -22 -10q-11 0 -16 6q-6 7 -6 20q-1 12 -8 36q-154 -45 -208 -66q-55 -20 -86 -41l-38 61l180 36v230h-76v-50
q1 -12 -16 -20q-17 -9 -34 -8l4 76v336v0v0zM140 466h76v248h-76v-248v0v0zM264 714v-248h78v248h-78v0v0z" />
  </g>

</svg>
