<?xml version="1.0" standalone="no"?>
<!DOCTYPE svg PUBLIC "-//W3C//DTD SVG 1.1//EN" "http://www.w3.org/Graphics/SVG/1.1/DTD/svg11.dtd" >
<svg xmlns="http://www.w3.org/2000/svg" xmlns:xlink="http://www.w3.org/1999/xlink" version="1.1" viewBox="0 -36 256 256">
  <g transform="matrix(1 0 0 -1 0 220)">
   <path fill="currentColor"
d="M162 236q-2 -10 -5 -24l12 -2q12 14 23 30l14 -13q-9 -2 -13 -5t-18 -13q18 -3 32 -9.5t13.5 -17.5t-16 1.5t-48.5 24.5q-13 -30 -73 -43l-1 4q46 16 56.5 33.5t8.5 44.5l21 -7zM100.5 200.5q-5.5 3.5 3.5 9.5t16 21h3q0 -24 -8.5 -29t-14 -1.5zM152 191l21 -8l-7 -4
q-3 -9 -7 -17l13 -11q24 19 27 28l14 -14q-16 -5 -36 -17q26 -16 65 -18v-4q-13 -1 -16 -11q-41 7 -69 42q-7 -15 -27 -28t-56 -18v4q42 12 59 30.5t19 45.5zM103.5 152q9.5 5 20.5 22l4 -1q-4 -20 -11.5 -27t-15 -3t2 9zM140 116l-6 -8v-13h37l-1 30l20 -10l-6 -6v-14h23
l13 10l16 -17h-52v-24q0 -12 1 -26l-15 -6q1 13 1 29v27h-37q-4 -42 -48 -51l-2 3q33 15 37 48h-17q-11 0 -21 -2l-8 9h46v14l-1 15zM34 238q26 -16 30 -26.5t-3.5 -20.5t-10.5 6.5t-19 37.5zM48 153l8 10l15 -13l-8 -7v-83q15 -16 32 -22.5t62.5 -7.5t90.5 5v-5
q-18 -4 -19 -16q-81 0 -107 4.5t-39.5 14t-20.5 17t-18.5 -4t-19.5 -24.5l-15 13q13 11 40 26v86h-10q-9 0 -20 -3l-10 10h39z" />
  </g>

</svg>
