<?xml version="1.0" standalone="no"?>
<!DOCTYPE svg PUBLIC "-//W3C//DTD SVG 1.1//EN" "http://www.w3.org/Graphics/SVG/1.1/DTD/svg11.dtd" >
<svg xmlns="http://www.w3.org/2000/svg" xmlns:xlink="http://www.w3.org/1999/xlink" version="1.1" viewBox="0 -36 256 256">
  <g transform="matrix(1 0 0 -1 0 220)">
   <path fill="currentColor"
d="M155 64v113q0 29 -1 57l17 -13h48l10 13l16 -16l-11 -8q-15 -22 -34 -61q50 -36 44 -65.5t-38 -35.5q-6 16 -30 21v6q44 -16 51.5 9t-35.5 63q17 36 25 67h-48v-149q0 -26 1 -51l-16 -7q1 28 1 57zM79 206q-1 12 -5 20.5t-12 17.5l2 3q21 -11 27.5 -19.5t-4.5 -21.5h35
l13 12l16 -19h-100v-52h57l15 13l17 -20h-88l-10 -10l-14 14l8 7v48h-4q-8 0 -16 -2l-7 9h70zM50 45q7 -14 -1.5 -25t-10 8.5t-23.5 46.5q23 35 25 52l22 -11q-9 -4 -11.5 -8.5t-26.5 -34.5q19 -14 26 -28zM68 77q26 -23 30.5 -34t-3 -20.5t-9.5 6t-26 49.5q25 36 29 50
l19 -12l-8 -3q-9 -10 -32 -36zM141.5 42q3.5 -11 -2.5 -20t-8.5 2t-8 22t-21.5 31q26 37 28 50l19 -12q-6 -3 -10 -7.5t-29 -31.5q29 -23 32.5 -34z" />
  </g>

</svg>
