<?xml version="1.0" standalone="no"?>
<!DOCTYPE svg PUBLIC "-//W3C//DTD SVG 1.1//EN" "http://www.w3.org/Graphics/SVG/1.1/DTD/svg11.dtd" >
<svg xmlns="http://www.w3.org/2000/svg" xmlns:xlink="http://www.w3.org/1999/xlink" version="1.1" viewBox="0 -205 1024 1024">
  <g transform="matrix(1 0 0 -1 0 819)">
   <path fill="currentColor"
d="M374 422h268v72h-268v-72v0v0zM166 378l62 -38h552l26 30l56 -34q9 -6 10 -12q0 -7 -32 -26v-201q0 -34 -18 -54q-18 -22 -56 -38q-13 30 -44 44q-28 13 -62 22l6 18q56 -11 74 -14q18 -1 34 4q14 6 14 26v207h-570v-173l4 -86q0 -17 -24 -28q-21 -12 -36 -12l4 126v239
v0v0zM322 292l50 -34h246l24 28l50 -32q9 -3 10 -12q0 -6 -24 -24v-72l4 -23q-3 -11 -20 -20q-16 -9 -34 -10v38h-256v-16q0 -11 -18 -20q-18 -8 -36 -8l4 79v126v0v0zM370 154h258v78h-258v-78v0v0zM470 692q-22 -33 -52 -66h452l38 40l62 -54q10 -12 -10 -12h-280
q47 -49 98 -82q50 -33 98 -50q47 -16 122 -22v-18q-35 0 -52 -8q-18 -7 -38 -32q-44 20 -82 46q-39 23 -84 62q-46 38 -88 104h-256q-36 -36 -60 -56l38 -24h252l26 24l56 -38q6 -6 -2 -12l-16 -10v-52l4 -26q1 -18 -16 -30q-18 -10 -38 -10v36h-268v-14q3 -13 -14 -22
q-17 -8 -40 -10l4 58v120q-61 -55 -128 -94q-66 -39 -162 -80l-6 16q77 42 152 94q75 50 156 130h-228q-21 3 -42 -8l-22 34h314q36 39 48 64q-165 -8 -270 -6v18q111 6 330 30q216 21 282 42l42 -54q1 -10 -4 -10q-6 -1 -26 2q-19 3 -52 -2q-32 -3 -238 -18v0v0zM310 958
q10 -9 0 -18q-21 -4 -30 -10l-14 -14l-20 -30h204l40 44l62 -54q9 -16 -8 -16h-212q41 -27 58 -42q14 -15 20 -30q5 -16 -4 -32q-8 -16 -28 -14q-19 2 -22 26q-3 21 -12 40q-10 18 -40 52h-72q-68 -96 -142 -162l-14 12q63 78 100 144t62 138l72 -34v0v0zM700 954
q10 -9 0 -18q-23 -5 -28 -10q-5 -4 -10 -10q-3 -6 -24 -30h234l40 46l62 -56q9 -16 -8 -16h-202q39 -27 58 -44q19 -15 26 -36q7 -19 -4 -34q-12 -16 -30 -10q-19 6 -22 30q-4 23 -16 44q-13 19 -40 50h-110q-56 -75 -94 -114l-18 10q35 59 62 112q26 50 44 116l80 -30v0v0z
" />
  </g>

</svg>
