<?xml version="1.0" standalone="no"?>
<!DOCTYPE svg PUBLIC "-//W3C//DTD SVG 1.1//EN" "http://www.w3.org/Graphics/SVG/1.1/DTD/svg11.dtd" >
<svg xmlns="http://www.w3.org/2000/svg" xmlns:xlink="http://www.w3.org/1999/xlink" version="1.1" viewBox="0 -36 256 256">
  <g transform="matrix(1 0 0 -1 0 220)">
   <path fill="currentColor"
d="M191 117.5q5 -8.5 -1 -16.5t-8.5 5.5t-10.5 27.5l4 2q11 -10 16 -18.5zM188 59l1 -5q-34 -21 -46 -33l-9 15l10 3l2 14l16 165q-10 0 -17 -2l-7 8h81l12 12l13 -19h-69l-5 -47h31l8 9l13 -14l-9 -6l-6 -118q0 -13 9 -12h8q4 1 5.5 8.5t2.5 34.5h4q0 -21 1.5 -28t8.5 -11
q-4 -10 -8 -13t-14 -3h-13q-16 0 -17 18l7 128h-31l-13 -118zM34 65q21 11 22 27h-22v-27zM34 18l-14 -7q1 19 1 48t-1 46l14 -6h84l7 7l12 -12l-6 -5v-63q-1 -12 -16 -18q-3 12 -17 14v3q19 -2 20 4v63h-17q-1 -13 1.5 -16t11 -3t7.5 -5.5t-9 -5t-14.5 3t-7.5 10t-1 16.5h1
h-31l10 1q-6 -28 -35 -33v-42zM67 41h20v22h-20v-22zM55 29q1 13 1 24t-1 22l13 -5h18l7 7l11 -10l-6 -6q0 -14 1 -26l-12 -5v4h-20v-1zM37 157h35v11h-35v-11zM72 149h-35v-12h35v12zM72 119v11h-35v-11h35zM40 200h-3l-6 -5l-12 10l5 3q0 21 -1 31l20 -7l-5 -6v-20h32
q0 24 -1 42l20 -8l-6 -6v-28h32q0 15 -1 34l19 -7l-5 -6q0 -18 1 -29l-14 -5v7h-46q9 0 16 -5t1.5 -12.5t-8 -2t-11.5 19.5h-27zM58 192l-6 -4q-6 -8 -11 -13h69l10 10l14 -17h-49v-11h20l11 7l14 -15h-45v-12h22l10 8l14 -15h-46v-11h31l12 9l13 -16h-104v-9l-14 -3
q1 14 1 29v26l-15 -13l-2 4q23 27 35 55z" />
  </g>

</svg>
