<?xml version="1.0" standalone="no"?>
<!DOCTYPE svg PUBLIC "-//W3C//DTD SVG 1.1//EN" "http://www.w3.org/Graphics/SVG/1.1/DTD/svg11.dtd" >
<svg xmlns="http://www.w3.org/2000/svg" xmlns:xlink="http://www.w3.org/1999/xlink" version="1.1" viewBox="0 -36 256 256">
  <g transform="matrix(1 0 0 -1 0 220)">
   <path fill="currentColor"
d="M75 233l-12 -20h50l10 11l15 -18h-60q18 -4 23.5 -8.5t6 -7.5t-5 -9.5t-9 -0.5t-8.5 12.5t-15 13.5h-11q-12 -19 -38 -38l-2 3q14 15 26 34.5t18 41.5l23 -11zM175 233l-13 -19h53l10 11l18 -18h-67q22 -5 27.5 -10t5 -9t-4 -8t-10 5t-26.5 22h-10q-8 -12 -29 -28l-3 2
q19 23 27 40t11 27l22 -12zM75 89q23 -8 28.5 -13.5t0 -13t-11.5 2.5t-19 22zM116 104l8 6l14 -9l-9 -4v-64q4 -19 -19 -26q-1 13 -28 16v4q22 -2 28 -2t6 11v17q-44 -16 -49 -26l-13 13q10 2 27.5 7.5t34.5 11.5v38h-7q-21 1 -33 -2l-9 9h49zM197 104l7 7l16 -9l-7 -5v-62
q1 -24 -22 -28q-2 10 -24 16v4q20 -2 25.5 -2t7.5 8v21q-19 -8 -32 -13t-18 -12l-13 12q10 2 30.5 8t32.5 11v37h-19q-12 1 -25 -1l-9 8h50zM150 90q21 -9 27.5 -14t1 -14t-10.5 2.5t-20 21.5zM61 124h136v19h-136v-19zM61 166q84 5 126 19l15 -18l-10 3q-64 -8 -132 -10
v-10h135l10 6l14 -9l-9 -3q0 -23 1 -32l-14 -4v9h-136q-1 -72 -46 -108l-3 2q18 21 27 49t8 66v23q0 10 -1 23z" />
  </g>

</svg>
