<?xml version="1.0" standalone="no"?>
<!DOCTYPE svg PUBLIC "-//W3C//DTD SVG 1.1//EN" "http://www.w3.org/Graphics/SVG/1.1/DTD/svg11.dtd" >
<svg xmlns="http://www.w3.org/2000/svg" xmlns:xlink="http://www.w3.org/1999/xlink" version="1.1" viewBox="0 -205 1024 1024">
  <g transform="matrix(1 0 0 -1 0 819)">
   <path fill="currentColor"
d="M965 563l-10 -14h-117v-130h13l15 19q15 14 17 14q3 0 15 -12l35 -28l-7 -13h-243v-115h176l21 23q16 17 18 17t20 -17l27 -29l-6 -14h-256v-134q3 -18 3 -25q0 -15 -23 -30q-17 -7 -19 -7q-5 0 -5 39v157h-259v20h259v115h-222v20h67v130h-102v21h102v129h-68v20h433
l15 21q10 10 12 10q3 0 16 -9l37 -26l-6 -16h-85v-129h45l15 20q9 13 12 13q2 0 21 -13zM795 570v129h-112v-129h112zM795 419v130h-112v-130h112zM639 570v129h-111v-129h111zM639 419v130h-111v-130h111zM376 751q18 -17 18 -24q0 -2 -23 -21v-345q0 -66 -22 -77l-19 -10
q-11 -5 -16 -5q-6 0 -9 14.5t-12 18.5l-38 14l3 10l43 -5q18 -2 24 7q2 5 2 29v367h-80v-597q0 -42 -1 -44q-2 -6 -24 -14q-8 -3 -13 -3q-6 0 -7 6q-1 5 0 22q1 22 1 36v594h-77v-410q0 -36 -1 -38q-2 -5 -25 -15q-8 -5 -11 -5q-6 0 -6 13q0 -8 0 43l-1 461l52 -28h69v166
l-5 46l49 -8q25 -4 25 -16q0 -11 -25 -22v-166h63l16 20q10 15 15 15t14 -9zM955 851l-4 -17h-178v-37q0 -9 1.5 -19t1.5 -12q0 -10 -23 -20q-14 -5 -19 -5q-6 0 -6 10q0 3 1 18.5t1 28.5v36h-146v-33q0 -44 1 -41q-2 -9 -22 -15q-11 -3 -15 -3q-7 0 -9 9q1 -4 1 45v38h-158
v21h158v65l-2 36l46 -10q25 -6 25 -16t-25 -20v-55h146v65l-3 32l41 -6q25 -4 25 -15q0 -10 -20 -17v-59h90l17 28q12 18 16 18t19 -14z" />
  </g>

</svg>
