<?xml version="1.0" standalone="no"?>
<!DOCTYPE svg PUBLIC "-//W3C//DTD SVG 1.1//EN" "http://www.w3.org/Graphics/SVG/1.1/DTD/svg11.dtd" >
<svg xmlns="http://www.w3.org/2000/svg" xmlns:xlink="http://www.w3.org/1999/xlink" version="1.1" viewBox="0 -339 2048 2048">
  <g transform="matrix(1 0 0 -1 0 1709)">
   <path fill="currentColor"
d="M590 1347q2 43 2 102q0 25 -2 118l145 -29q30 -6 40 -18q5 -6 5 -15q0 -23 -35 -33l-49 -15l-8 -99l83 8l7 -37l-95 -28l-2 -31q-16 -217 -60 -388q-31 -122 -75 -234q42 -30 71 -53q64 -52 111 -110q28 -35 39 -59q12 -27 12 -54q0 -24 -15 -41q-14 -15 -34 -15
q-16 0 -33 14q-12 9 -42 46q-20 26 -39 53q-38 50 -109 125q-56 -115 -142 -227q-82 -108 -170 -186q-32 -29 -82 -67l-22 35q85 84 140 154q96 122 171 275q19 39 37 82q-29 26 -51 43q-47 36 -120 76q-44 24 -102 55q23 106 36 158l37 152q11 44 24 130q-35 -4 -71 -10
q-3 -11 -5 -16q-11 -43 -21 -52q-5 -4 -12 -4q-8 0 -16 7q-7 7 -30 59l-44 99q125 2 213 6q17 113 27 198q14 127 27 252q5 51 12 162l129 -34q54 -14 65 -30q7 -9 7 -20q0 -8 -5 -15t-17 -12q-11 -5 -24 -7l-57 -8q-17 -160 -31 -255q-13 -83 -42 -225l22 2q145 11 200 16z
M585 1282q-114 -21 -236 -37q-41 -163 -56 -219q-21 -81 -62 -204q104 -51 166 -85q21 -11 72 -40q47 130 77 282q17 85 28 181q5 39 8 90q1 11 3 32zM1592 1722v-618h161l103 83l105 -88q10 -9 11 -11q3 -3 5 -10q1 -3 1 -5q0 -9 -6 -17q-8 -10 -22 -10h-358v-681
q0 -35 4 -106q4 -69 8 -103q4 -33 4 -48q0 -24 -12 -36q-11 -11 -41 -11t-43 10q-5 4 -8 9q-8 15 -8 35v931h-168q-66 0 -148 -6q-8 -1 -21 -2l-38 88q92 -22 207 -22h168v596q-94 -20 -227 -30l-6 38q102 16 174 38q115 36 214 98q54 33 117 91l97 -78q15 -12 22 -22
q5 -7 6 -18q1 -10 -9 -17t-28 -7q-12 0 -20 1l-35 7q-80 -37 -137 -57q-32 -11 -72 -22zM1002 1388l41 -8q59 -13 73 -24q13 -10 13 -22q0 -25 -50 -42l-41 -13v-898q0 -35 5 -116q4 -73 8 -103q3 -34 3 -50q0 -22 -11 -33q-14 -13 -44 -13q-28 0 -41 11q-16 12 -16 31v1136
v40q-28 -42 -86 -118q-43 -56 -65 -78q-12 -13 -39 -36l-24 25q69 94 102 148q50 83 87 161q33 70 80 196q30 80 68 225q14 52 25 104l126 -54q38 -16 46 -30q3 -6 3 -12q0 -10 -7 -17q-6 -6 -12 -8q-11 -4 -31 -5l-47 -4q-25 -75 -49 -136q-65 -163 -117 -257z" />
  </g>

</svg>
