<?xml version="1.0" standalone="no"?>
<!DOCTYPE svg PUBLIC "-//W3C//DTD SVG 1.1//EN" "http://www.w3.org/Graphics/SVG/1.1/DTD/svg11.dtd" >
<svg xmlns="http://www.w3.org/2000/svg" xmlns:xlink="http://www.w3.org/1999/xlink" version="1.1" viewBox="0 -205 1024 1024">
  <g transform="matrix(1 0 0 -1 0 819)">
   <path fill="currentColor"
d="M338 952l58 -50h454l28 38l58 -46q9 -6 10 -12q0 -5 -32 -28v-654l4 -115q0 -11 -20 -26q-19 -12 -34 -12v76h-478v-46q0 -14 -20 -26q-19 -9 -32 -10l4 155v756v0v0zM386 148h478v728h-478v-728v0v0zM646 828q19 -9 2 -18l-26 -12v-66h118l32 40l48 -48q3 -2 4 -10
q0 -9 -12 -8h-190v-96h94l32 38l50 -48q3 -3 4 -8q0 -9 -12 -8h-168v-96h120l24 32l56 -40q6 -3 6 -8q0 -6 -32 -30l-4 -66q-3 -60 -20 -84q-18 -24 -60 -38q-7 26 -22 38q-16 9 -58 24l6 16q33 -9 54 -12q21 -4 36 8q15 11 18 58l4 74h-128v-148l4 -96q-1 -13 -22 -26
q-22 -13 -34 -10l4 138v142h-96q-31 0 -52 -6l-20 34h168v96h-66q-21 -1 -48 -10l-20 36h134v96h-100q-20 0 -40 -8l-16 34h156v120l72 -24v0v0zM76 916l6 16q48 -13 82 -28q32 -13 52 -32t22 -40q0 -19 -8 -34q-9 -14 -26 -12q-16 0 -22 16q-7 14 -14 32t-26 36
q-18 17 -66 46v0v0zM24 690l6 16l78 -26q31 -12 50 -30q18 -16 22 -38q4 -20 -10 -34q-12 -15 -26 -12q-13 1 -20 20q-7 18 -16 30q-7 11 -26 28t-58 46v0v0zM168 440q-22 -54 -44 -60q-21 -7 -96 -2l-2 -20q52 -7 80 -16q27 -9 34 -20q8 -9 10 -36q0 -28 -8 -88
q-10 -60 -8 -87q1 -27 20 -36q18 -9 34 2q15 10 18 34t-6 89q-7 64 -8 98q0 35 6 64q3 27 10 58l100 446l-20 8l-120 -434v0v0z" />
  </g>

</svg>
