<?xml version="1.0" standalone="no"?>
<!DOCTYPE svg PUBLIC "-//W3C//DTD SVG 1.1//EN" "http://www.w3.org/Graphics/SVG/1.1/DTD/svg11.dtd" >
<svg xmlns="http://www.w3.org/2000/svg" xmlns:xlink="http://www.w3.org/1999/xlink" version="1.1" viewBox="0 -36 256 256">
  <g transform="matrix(1 0 0 -1 0 220)">
   <path fill="currentColor"
d="M29 242q26 -10 31 -17.5t0.5 -16.5t-10 3.5t-22.5 27.5zM11 185q29 -12 32 -21.5t-3.5 -15.5t-10.5 6t-20 28zM36.5 88q6.5 4 32.5 110l5 -1q-18 -90 -21.5 -102.5t-4 -24t1 -36.5t-10 -19.5t-8.5 23t3 28t-22 16.5v4q18 -2 24.5 2zM103 208h98v19h-98v-19zM103 182h98
v19h-98v-19zM90 204.5q0 19.5 -1 36.5l14 -7h97l7 10l16 -12l-8 -8q0 -32 1 -51l-15 -6v8h-98v-5l-14 -3q1 18 1 37.5zM88 164l21 -9l-7 -6v-14h28l9 10l15 -17h-52v-33l49 14l1 -5q-48 -19 -58 -31l-10 13q5 5 5 16q0 27 -1 62zM159 167l22 -10l-7 -7v-22q36 19 49 35
l12 -18q-10 -2 -30.5 -10t-30.5 -13v-19q0 -10 10 -10h35q7 2 8.5 10.5t2.5 18.5h4q0 -4 2 -14t10 -14q-6 -9 -11.5 -11t-16.5 -2h-43q-15 0 -15 18q0 53 -1 68zM97 68q1 -38 -6 -46.5t-15.5 -6.5t-3 8.5t10.5 14.5t10 31zM125 67q15 -15 20 -27t-3 -21t-9.5 6.5t-10.5 40.5
zM167 68q21 -21 22.5 -30.5t-6 -17t-9.5 9t-10 36.5zM204 73q30 -26 33.5 -37t-3 -19.5t-11 9.5t-22.5 44z" />
  </g>

</svg>
