<?xml version="1.0" standalone="no"?>
<!DOCTYPE svg PUBLIC "-//W3C//DTD SVG 1.1//EN" "http://www.w3.org/Graphics/SVG/1.1/DTD/svg11.dtd" >
<svg xmlns="http://www.w3.org/2000/svg" xmlns:xlink="http://www.w3.org/1999/xlink" version="1.1" viewBox="0 -52 256 256">
  <g transform="matrix(1 0 0 -1 0 204)">
   <path fill="currentColor"
d="M10 52l-3 2q13 17 23 36t16 34q5 14 9 32h-23q-6 0 -11 -3l-9 8h46v76q0 5 -8 12l2 3l23 -9q3 -1 2 -3q-5 -2 -8 -5v-74h20l8 10l17 -13q4 -2 -2 -2h-43v-16q11 -4 18 -9q8 -5 12 -13q5 -7 3 -12q-1 -5 -6 -6q-5 0 -7 9t-8 15q-3 6 -12 11v-94l1 -21q0 -6 -4 -8
q-3 -2 -10 -4q1 4 1 22q1 13 1 22v72q-4 -11 -9 -19q-1 -2 -3 -5q-8 -16 -17 -27q-8 -10 -19 -21zM94 221l20 -11q2 -2 -1 -2q-2 0 -6 -1q2 1 -2 -1q-15 -19 -28 -33l-4 2l11 16q11 20 11 22q0 1 -1 2q-1 3 -2 5zM18 215l3 3q13 -9 19 -18q7 -8 7 -16q1 -7 -5 -9t-7 7
q-1 8 -4 15q-5 10 -13 18zM155 252l23 -9q3 -1 1 -3q-5 -2 -7 -5v-47h39l10 12l18 -14q3 -1 2 -2q0 -1 -4 -1h-53q3 -20 10 -38q12 -34 33 -55q10 -9 25 -12v-4q-14 2 -21 -5q-30 25 -43 66q-8 24 -11 48h-5v-105h20l7 9l15 -11q3 -1 2 -2q0 -1 -4 -1h-40v-28v-23
q0 -10 -14 -11q2 13 2 41v21h-25q-6 0 -11 -3l-8 8h44v105h-5q-3 -24 -10 -44q-16 -46 -58 -76l-1 2q38 40 49 81q6 22 8 37h-22q-6 0 -11 -3l-8 8h58v49q0 5 -7 12z" />
  </g>

</svg>
