<?xml version="1.0" standalone="no"?>
<!DOCTYPE svg PUBLIC "-//W3C//DTD SVG 1.1//EN" "http://www.w3.org/Graphics/SVG/1.1/DTD/svg11.dtd" >
<svg xmlns="http://www.w3.org/2000/svg" xmlns:xlink="http://www.w3.org/1999/xlink" version="1.1" viewBox="0 -205 1024 1024">
  <g transform="matrix(1 0 0 -1 0 819)">
   <path fill="currentColor"
d="M412 854h246v128l84 -28q6 -3 4 -8q0 -3 -6 -6l-32 -20v-66h166l34 46l56 -52q3 -3 6 -8q4 -12 -12 -12h-250v-92h112l38 44l60 -52q2 0 2 -6q0 -12 -8 -12h-204v-94h184l36 50l58 -56q3 -3 4 -8q0 -12 -12 -12h-504q-21 0 -68 -8l-16 34h268v94h-118q-21 0 -62 -8
l-22 34h202v92h-170q-21 0 -60 -8l-16 34v0v0zM476 548l52 -36h294l30 38l60 -42q9 -3 10 -12q-1 -7 -28 -26v-375q1 -24 -10 -48q-12 -21 -62 -34q-6 32 -38 46q-33 15 -86 32l6 16q48 -11 82 -16q35 -4 46 4q12 9 10 44v111h-316v-111l4 -74q0 -14 -20 -28
q-19 -15 -38 -16l4 118v409v0v0zM526 276h316v94h-316v-94v0v0zM526 396h316v90h-316v-90v0v0zM40 748h172v228l64 -30q22 -8 12 -22l-28 -14v-162h64l30 40l50 -48q3 -3 4 -8q0 -12 -14 -12h-134v-96q69 -37 96 -62q27 -23 34 -46q7 -22 0 -40q-9 -19 -26 -20q-18 0 -24 24
q-4 24 -22 54q-16 30 -58 66v-426l4 -107q0 -14 -18 -26t-38 -12l4 147v360q-30 -84 -74 -164q-44 -79 -94 -136l-10 10q38 63 68 126q27 62 58 152t50 196h-102q-6 0 -48 -8l-20 36v0v0z" />
  </g>

</svg>
