<?xml version="1.0" standalone="no"?>
<!DOCTYPE svg PUBLIC "-//W3C//DTD SVG 1.1//EN" "http://www.w3.org/Graphics/SVG/1.1/DTD/svg11.dtd" >
<svg xmlns="http://www.w3.org/2000/svg" xmlns:xlink="http://www.w3.org/1999/xlink" version="1.1" viewBox="0 -246 2048 2048">
  <g transform="matrix(1 0 0 -1 0 1802)">
   <path fill="currentColor"
d="M328 1809h244l72 92q123 -107 123 -137q0 -13 -17 -22l-51 -29q-81 -204 -203 -426q220 -201 220 -467q0 -339 -252 -336q-3 73 -154 117v-508h-117v1786q86 -40 135 -70zM310 1758v-1104q115 -16 160 -16q135 0 135 225q0 203 -174 414q80 212 145 481h-266zM1671 807
h-881l-18 51h899v134h-807l-22 51h829v143h-879l-20 51h883l71 84q119 -91 119 -119q0 -12 -16 -22l-43 -29v-415h-115v71zM1671 1387h-881l-18 51h899v133h-807l-22 51h829v142h-879l-20 51h883l71 84q119 -91 119 -119q0 -12 -16 -22l-43 -29v-391h-115v49zM1882 258
q-50 0 -65 57q-43 182 -215 345l29 35q323 -185 323 -357q0 -80 -72 -80zM1405 473q-39 0 -57 57q-33 97 -168 204l25 36q266 -101 266 -223q0 -74 -66 -74zM683 170q-76 0 -76 76q0 31 53 72q125 88 149 317l50 -12q4 -78 4 -82q0 -184 -78 -299q-50 -72 -102 -72z
M1369 125q-267 0 -316 23q-53 28 -53 123v375q185 -4 185 -44q0 -25 -74 -53v-250q0 -46 31 -55q34 -10 166 -10q153 0 190 12q60 19 82 244l53 -17q-2 -34 -2 -75q0 -148 76 -148q-3 -90 -76 -109q-69 -16 -262 -16z" />
  </g>

</svg>
