<?xml version="1.0" standalone="no"?>
<!DOCTYPE svg PUBLIC "-//W3C//DTD SVG 1.1//EN" "http://www.w3.org/Graphics/SVG/1.1/DTD/svg11.dtd" >
<svg xmlns="http://www.w3.org/2000/svg" xmlns:xlink="http://www.w3.org/1999/xlink" version="1.1" viewBox="0 -200 1000 1000">
  <g transform="matrix(1 0 0 -1 0 800)">
   <path fill="currentColor"
d="M223 658v2l2 42v133l-2 37q0 9 6 9q1 0 15 -11q11 -9 24 -19h451h2l2 -1l4 2l16 18q2 5 7 5q4 0 11 -6q10 -8 15 -13t13 -15l5 -9q0 -2 -3 -4l-7 -2q-3 -1 -7 -5q-4 -3 -4 -9v-92l2 -12q1 -5 1 -18q0 -6 -7 -10q-8 -5 -14 -6q-3 -1 -14 -4q-2 -1 -3.5 -1.5t-0.5 -0.5
q-4 0 -4 9v20h-468v-22q-1 -4 -12 -12t-26 -8q-4 0 -4 3zM265 723h137v102h-137v-102zM442 723h121v102h-121v-102zM602 723h131v102h-131v-102zM895 152q0 -11 -17 -13h-686l-34 -3q-16 -3 -30 -3q-1 0 -5 7l-8 13l-8 13l-4 4q0 3 4 3l6 -2q27 -7 68 -7h120v304q0 24 -3 46
q-4 19 -4 41q0 6 4 6t15 -11q9 -10 30 -28h122l11 77h-265q-22 -2 -34 -4q-16 -3 -29 -3q-1 0 -5 6q-3 4 -4.5 7.5t-3.5 6.5l-8 13l-4 4q0 3 4 3t5 -1q11 -3 34 -5q22 -2 36 -2h277l3 33q0 20 1 30v2q-1 0 -1 1q0 4 3 5q1 1 4 1q2 0 14 -5l19 -11q11 -6 18 -12q8 -6 8 -8
q0 -3 -3 -5l-8 -3q-6 -4 -10 -9q-6 -6 -9 -19h255q6 0 10 6l29 33q3 3 6 3q2 0 9 -5l13 -13l12 -14q3 -5 8 -10q6 -7 6 -13t-5 -9q-4 -3 -13 -3h-334q-8 -35 -12 -77h134q5 1 8 4l19 22q2 3 5 3q6 0 16 -7q1 -1 20 -17l16 -16l7 -7q0 -3 -4 -4l-11 -5q-5 -3 -10 -9
q-5 -8 -5 -20v-302h105q5 0 10 6l30 34q3 3 6 3q2 0 9 -5q3 -4 12 -13l12 -14l9 -11q5 -8 5 -12zM738 668h-1h1zM658 497h-318v-333h138v170l-2 62q-2 36 -2 47q0 6 4 6h3q36 -11 47 -16q18 -7 18 -12q0 -2 -3 -4l-7 -5l-8 -6q-3 -2 -5 -6q-6 -16 -6 -66v-170h141v333z" />
  </g>

</svg>
