<?xml version="1.0" standalone="no"?>
<!DOCTYPE svg PUBLIC "-//W3C//DTD SVG 1.1//EN" "http://www.w3.org/Graphics/SVG/1.1/DTD/svg11.dtd" >
<svg xmlns="http://www.w3.org/2000/svg" xmlns:xlink="http://www.w3.org/1999/xlink" version="1.1" viewBox="0 -205 1024 1024">
  <g transform="matrix(1 0 0 -1 0 819)">
   <path fill="currentColor"
d="M780 818q59 -33 62 -38q1 -6 -4 -8q-6 -3 -18 -6q-10 -3 -20 -12t-52 -48h124l30 42l58 -48q3 -2 4 -10q0 -9 -12 -8h-194v-94h82l24 32l52 -34q8 -6 8 -12q1 -6 -28 -26v-72h24l32 40l50 -48l2 -4q1 -12 -10 -12h-98v-84l4 -52q0 -15 -18 -26q-19 -10 -32 -10v58h-70
q23 -66 62 -116q36 -48 78 -74q39 -23 84 -33v-16q-26 1 -46 -4q-21 -6 -38 -22q-45 38 -68 67q-24 29 -48 70q-22 40 -46 122v-192l4 -71q0 -18 -18 -28q-18 -13 -38 -14l4 115v196h-92v-196l4 -79q0 -15 -20 -28q-18 -13 -36 -14l4 116v105q-33 -52 -78 -105
q-46 -53 -136 -122l-8 12q74 78 128 147q51 71 94 164h-52q-14 0 -28 -8l-20 32h100v92h-32q-27 0 -54 -8l-18 32h104v88h-40q-19 0 -34 -6l-20 28h94v94h-40q-25 0 -52 -8l-16 32h260q41 69 58 112v0v0zM710 588v94h-92v-94h92v0v0zM618 566v-90h92v90h-92v0v0zM758 566
v-90h92v90h-92v0v0zM618 452v-90h92v90h-92v0v0zM758 452v-90h92v90h-92v0v0zM546 814l6 12q44 -15 68 -30q23 -12 34 -32q11 -19 2 -34q-9 -16 -26 -14q-16 0 -22 18q-3 15 -18 36q-15 19 -44 44v0v0zM580 972l6 14q65 -22 92 -38q26 -15 38 -30q10 -16 2 -34t-28 -18
q-21 0 -26 16q-3 12 -18 34q-15 20 -66 56v0v0zM878 856l40 46l60 -52q9 -14 -8 -16h-512v-174q4 -259 -24 -394t-166 -249l-10 10q108 122 132 247q22 122 18 362v264l60 -44h410v0v0zM286 798l34 42l54 -48q3 -3 4 -8q0 -12 -12 -12h-294q-18 1 -42 -10l-24 36h280v0v0z
M54 666h190l32 42l54 -48q2 -3 2 -8q0 -12 -12 -12h-176q-37 0 -68 -8l-22 34v0v0zM62 446l60 -44h130l28 34l58 -38q6 -6 6 -8q0 -6 -32 -30v-152l4 -73q1 -12 -16 -24q-15 -12 -36 -16v73h-152v-61q0 -18 -18 -30q-18 -14 -36 -14l4 119v264v0v0zM112 194h152v182h-152
v-182v0v0zM90 974l10 10q85 -49 104 -76t18 -48q0 -22 -12 -32q-13 -11 -28 -6q-16 3 -20 22q-2 19 -10 44q-6 25 -62 86v0v0zM54 534h190l30 42l56 -48q2 -3 2 -8q0 -12 -12 -12h-190q-34 0 -58 -8l-18 34v0v0z" />
  </g>

</svg>
