<?xml version="1.0" standalone="no"?>
<!DOCTYPE svg PUBLIC "-//W3C//DTD SVG 1.1//EN" "http://www.w3.org/Graphics/SVG/1.1/DTD/svg11.dtd" >
<svg xmlns="http://www.w3.org/2000/svg" xmlns:xlink="http://www.w3.org/1999/xlink" version="1.1" viewBox="0 -36 256 256">
  <g transform="matrix(1 0 0 -1 0 220)">
   <path fill="currentColor"
d="M49 211q7 -10 -1.5 -21.5t-11 5.5t-17.5 41l3 2q20 -17 27 -27zM91 178l11 12l17 -19h-47q-1 -40 -1 -56h21l13 12l16 -19h-51q-2 -33 -18 -57.5t-41 -42.5l-1 4q20 19 32.5 43t14.5 53h-20q-10 0 -19 -2l-10 9h50q1 24 1 56h-17q-10 0 -19 -2l-10 9h78zM118 231
q-9 -2 -18.5 -16.5t-22.5 -31.5l-3 2q13 24 24 59zM221 226q-23 -7 -46 -12q6 -51 12.5 -83t21.5 -61t39 -39v-5q-19 1 -27 -8q-14 17 -25.5 43t-18.5 60.5t-8 91.5l-32 -6v-177l45 30l2 -3q-44 -36 -51 -49l-14 17q5 4 6 12v156q0 14 -1 29l13 -9q35 8 55.5 17t23.5 16
l16 -20h-11z" />
  </g>

</svg>
