<?xml version="1.0" standalone="no"?>
<!DOCTYPE svg PUBLIC "-//W3C//DTD SVG 1.1//EN" "http://www.w3.org/Graphics/SVG/1.1/DTD/svg11.dtd" >
<svg xmlns="http://www.w3.org/2000/svg" xmlns:xlink="http://www.w3.org/1999/xlink" version="1.1" viewBox="0 -154 1024 1024">
  <g transform="matrix(1 0 0 -1 0 870)">
   <path fill="currentColor"
d="M802 492q-63 -37 -145 -98l31 -13q19 -8 7 -14q-18 -5 -31 -16v-14h216l41 53l78 -58q20 -15 -13 -15h-322v-205q-1 -35 -21 -56q-19 -21 -87 -35q-5 33 -23 42q-18 8 -80 26l4 18l40 -10q127 -36 123 46v174h-247q-27 1 -47 -13l-32 33h326v25q-1 23 -28 46l8 11l35 -15
l118 109h-302q-16 -2 -33 -14l-34 34h372l37 38l65 -64q4 -11 -10 -9q-19 4 -46 -6zM252 986l90 -45q17 -11 7 -17q-22 1 -37 -15q-34 -98 -71 -177v-576l2 -97q-8 -39 -53 -46q5 39 7 189v444q-69 -122 -146 -187l-12 7q101 131 167 296t58 183q-7 19 -18 33zM601 988
l90 -36q14 -5 6 -11q-19 -7 -31 -20v-87h188l37 53l80 -58q20 -15 -13 -15h-292v-142h158l43 54l76 -60q22 -16 -11 -14h-467q-27 1 -45 -13l-34 33h236v142h-218q-27 1 -47 -13l-32 33h297v95q2 16 -29 48z" />
  </g>

</svg>
