<?xml version="1.0" standalone="no"?>
<!DOCTYPE svg PUBLIC "-//W3C//DTD SVG 1.1//EN" "http://www.w3.org/Graphics/SVG/1.1/DTD/svg11.dtd" >
<svg xmlns="http://www.w3.org/2000/svg" xmlns:xlink="http://www.w3.org/1999/xlink" version="1.1" viewBox="0 -36 256 256">
  <g transform="matrix(1 0 0 -1 0 220)">
   <path fill="currentColor"
d="M41.5 195.5q6.5 -12.5 -1 -22.5t-11 7.5t-13.5 38.5l3 2q16 -13 22.5 -25.5zM54 246l23 -9l-9 -9v-69h18l11 11l15 -18h-44v-20q20 -13 28.5 -21.5t4 -22t-11.5 3.5t-21 33v-77q0 -13 1 -31l-15 -7q1 42 1 108q-16 -34 -43 -63l-3 2q32 46 43 94h-10q-13 0 -22 -3l-10 10
h45q0 58 -1 88zM102 206q-13 -24 -28 -40l-2 2q12 21 20 55l18 -13zM111 222l20 -9l-6 -6v-31h40q0 46 -1 69l20 -10l-6 -7v-52h42q0 28 -1 44l20 -9l-6 -7q0 -20 1 -36l-14 -6v7h-95l-6 -5l-13 11l6 5q0 27 -1 42zM192 27v3q16 -1 22 -1.5t6 7.5v66h-25v-31q0 -17 1 -36
l-14 -7q1 21 1 40v34h-22v-43q0 -15 1 -31l-15 -8q1 21 1 36v46h-24v-84l-15 -8q1 33 1 56.5t-1 50.5l16 -8h25l12 30h-31q-13 0 -22 -3l-10 10h121l12 12l15 -19h-67q-8 -5 -25 -30h63l8 9l15 -12l-7 -6v-69q1 -15 -18 -22q0 10 -24 18z" />
  </g>

</svg>
