<?xml version="1.0" standalone="no"?>
<!DOCTYPE svg PUBLIC "-//W3C//DTD SVG 1.1//EN" "http://www.w3.org/Graphics/SVG/1.1/DTD/svg11.dtd" >
<svg xmlns="http://www.w3.org/2000/svg" xmlns:xlink="http://www.w3.org/1999/xlink" version="1.1" viewBox="0 -205 1024 1024">
  <g transform="matrix(1 0 0 -1 0 819)">
   <path fill="currentColor"
d="M590 784l56 -34h62l26 126h-142q-32 -3 -46 -12l-34 38h384l44 44l56 -52q12 -12 -8 -18h-194l-60 -126h134l30 34l58 -38l4 -8q0 -6 -32 -30v-374l4 -80q1 -13 -16 -22q-15 -9 -36 -12v46h-240v-12q-1 -15 -16 -24q-15 -10 -38 -10l4 112v452v0v0zM640 292h240v128h-240
v-128v0v0zM640 446h240v130h-240v-130v0v0zM640 602h240v122h-240v-122v0v0zM502 23q105 100 184 223l62 -42q9 -5 0 -16q-24 -3 -32 -6q-9 -2 -60 -55q-52 -53 -142 -116l-12 12v0v0zM804 212l8 12q93 -47 130 -82q36 -34 40 -61q3 -25 -6 -38q-10 -12 -28 -10
q-18 1 -24 28t-30 62q-24 31 -90 89v0v0zM138 756h236l30 32l42 -36q6 -4 6 -10q3 -12 -12 -12h-228q-19 0 -58 -8l-16 34v0v0zM134 418h322l20 28l52 -34q5 -1 8 -8q-1 -6 -22 -24v-275q0 -27 -14 -48q-15 -18 -48 -34q-9 24 -26 38q-16 12 -64 26l4 16q54 -9 70 -12
q15 0 24 6q10 6 8 36v125h-82v-68l4 -36q0 -14 -18 -25q-15 -12 -36 -10l4 65v74h-72v-76l4 -47q0 -14 -18 -26q-18 -9 -36 -12l4 83v78h-90v-137l4 -66q0 -12 -20 -24q-17 -12 -34 -12l4 114v307l48 -22v0v0zM132 282h90v112h-90v-112v0v0zM268 394v-112h72v112h-72v0v0z
M386 394v-112h82v112h-82v0v0zM74 680l34 -24h40l24 26l38 -26q7 -4 8 -10q0 -6 -20 -18v-110l2 -32q0 -8 -12 -16q-10 -6 -28 -6v32h-48v-12q-1 -7 -16 -16q-13 -7 -26 -4l4 52v164v0v0zM112 518h48v116h-48v-116v0v0zM242 680l34 -24h40l24 26l38 -26q7 -4 8 -10
q0 -6 -20 -18v-110l2 -32q0 -8 -12 -16q-10 -6 -28 -6v32h-48v-12q-1 -7 -16 -16q-13 -7 -26 -4l4 52v164v0v0zM280 518h48v116h-48v-116v0v0zM402 680l34 -24h40l24 26l38 -26q7 -4 8 -10q0 -6 -20 -18v-110l2 -32q0 -8 -12 -16q-10 -6 -28 -6v32h-48v-12q-1 -7 -16 -16
q-13 -7 -26 -4l4 52v164v0v0zM440 518h48v116h-48v-116v0v0zM286 982q66 -23 66 -28q0 -3 -2 -6q-1 -3 -14 -8q-12 -6 -30 -18q135 -58 178 -86q45 -24 54 -48q9 -21 0 -36q-7 -16 -26 -14q-19 -1 -34 26q-12 26 -60 64q-45 38 -126 76q-49 -58 -122 -118q-71 -60 -148 -102
l-8 12q76 60 146 130q69 69 126 156v0v0z" />
  </g>

</svg>
