<?xml version="1.0" standalone="no"?>
<!DOCTYPE svg PUBLIC "-//W3C//DTD SVG 1.1//EN" "http://www.w3.org/Graphics/SVG/1.1/DTD/svg11.dtd" >
<svg xmlns="http://www.w3.org/2000/svg" xmlns:xlink="http://www.w3.org/1999/xlink" version="1.1" viewBox="0 -205 1024 1024">
  <g transform="matrix(1 0 0 -1 0 819)">
   <path fill="currentColor"
d="M832 920l52 -36q8 -6 8 -12q1 -6 -34 -26v-222h38l28 34l50 -44q3 -3 4 -8q-1 -9 -16 -8h-104v-224h24l32 36l48 -50q3 -5 0 -10q0 -3 -6 -2h-98q-3 -75 -18 -104q-15 -28 -38 -52q-24 -25 -72 -40q-9 25 -26 38q-18 13 -96 38l6 16q90 -22 114 -26q23 -3 50 24
q28 27 32 106h-246l-26 -32l-54 40l24 24l22 218h-26q-20 0 -40 -8l-22 34h90l24 298l54 -34h194l28 32v0v0zM810 864h-210l-20 -242h230v242v0v0v0zM810 598h-232l-20 -226h252v226v0v0v0zM624 546l10 10q54 -36 78 -62q21 -24 24 -44q3 -18 -8 -32q-10 -13 -26 -10
q-16 2 -20 26q-4 21 -14 46q-9 24 -44 66v0v0zM388 758l60 -32q12 -9 0 -18l-18 -16v-330q1 -43 -10 -68q-9 -25 -48 -38q-3 18 -18 28q-12 9 -54 22l2 16q45 -6 54 -6q11 0 20 10q9 8 6 56v314l-94 -38v-388l2 -56q1 -16 -22 -28q-21 -15 -32 -12l4 94v374l-76 -34v-466
q0 -37 10 -49q9 -9 34 -12h680q36 3 42 24q6 19 10 53q2 36 8 114h18q3 -103 6 -130q3 -26 28 -31q-10 -33 -32 -52q-21 -18 -62 -22h-714q-48 3 -62 26q-13 21 -14 72v453l-38 -20q-18 -11 -24 -22l-34 24l96 46v188l74 -28q8 -1 8 -8q0 -5 -6 -10l-28 -12v-110l76 34v298
l76 -24l6 -6q1 -7 -4 -8l-30 -18v-226l80 36l20 36v0v0zM626 802l10 10q53 -36 74 -60q20 -25 26 -46q3 -20 -8 -34q-10 -13 -26 -10q-16 2 -20 26q-4 21 -14 48q-9 24 -42 66v0v0z" />
  </g>

</svg>
