<?xml version="1.0" standalone="no"?>
<!DOCTYPE svg PUBLIC "-//W3C//DTD SVG 1.1//EN" "http://www.w3.org/Graphics/SVG/1.1/DTD/svg11.dtd" >
<svg xmlns="http://www.w3.org/2000/svg" xmlns:xlink="http://www.w3.org/1999/xlink" version="1.1" viewBox="0 -36 256 256">
  <g transform="matrix(1 0 0 -1 0 220)">
   <path fill="currentColor"
d="M10 114l-3 5q33 32 52 77h-13h-1q-14 1 -25 -3l-9 10h50q6 16 11 42l22 -12l-9 -4l-9 -26h43l12 13l14 -20h-71q-16 -44 -64 -82zM46 137h25q0 26 -1 35l23 -11l-9 -6v-18h22l8 11l14 -12l-7 -9q0 -47 1 -65l-14 -9v13h-24v-34l45 21l2 -3q-42 -27 -55 -41l-9 15
q5 6 4 17v25h-25v-10l-14 -6q1 13 1 90zM46 107h25v22h-25v-22zM84 107h24v22h-24v-22zM46 73h25v27h-25v-27zM84 73h24v27h-24v-27zM125 173.5q14 -8.5 10 -21.5t-14 2.5t-36 31.5l2 4q24 -8 38 -16.5zM184 236l-8 -4q-5 -23 -10 -45h53l11 13l13 -20h-30q-4 -63 -23 -102
q29 -46 57 -54l-1 -5q-19 1 -21 -8q-25 23 -43 56q-25 -38 -73 -60l-1 5q46 30 66 68q-14 34 -19 70q-7 -24 -23 -48l-4 3q14 29 23.5 69.5t11.5 72.5zM158 158q10 -39 24 -66q14 39 17 88h-34z" />
  </g>

</svg>
