<?xml version="1.0" standalone="no"?>
<!DOCTYPE svg PUBLIC "-//W3C//DTD SVG 1.1//EN" "http://www.w3.org/Graphics/SVG/1.1/DTD/svg11.dtd" >
<svg xmlns="http://www.w3.org/2000/svg" xmlns:xlink="http://www.w3.org/1999/xlink" version="1.1" viewBox="0 -205 1024 1024">
  <g transform="matrix(1 0 0 -1 0 819)">
   <path fill="currentColor"
d="M410 814h218v170l80 -30q8 -4 8 -8q2 -6 -4 -8l-32 -14v-110h126l36 44l60 -54q3 -3 4 -6q3 -7 -12 -10h-214v-118h196l38 44l58 -50q3 -4 4 -10q0 -10 -14 -10h-514q-21 0 -62 -8l-22 34h264v118h-142q-21 1 -56 -10l-20 36v0v0zM604 638q54 -15 66 -24t6 -14
q-6 -4 -18 -4q-10 -1 -52 -28q-40 -27 -134 -98l356 4q-42 52 -110 98l8 12q86 -34 134 -70q47 -35 52 -64q5 -28 -4 -40q-9 -14 -24 -12q-14 3 -22 18q-8 16 -22 38q-260 -17 -316 -22q-54 -6 -104 -26l-34 62q23 2 62 16q99 75 156 154v0v0zM404 394l62 -40h368l28 34
l50 -38q12 -8 12 -16q0 -6 -36 -30v-229h32l34 42l50 -50q3 -3 4 -10q4 -6 -10 -6h-616q-21 1 -60 -8l-24 32h106v319v0v0zM454 75h96v253h-96v-253v0v0zM596 75h98v253h-98v-253v0v0zM740 75h98v253h-98v-253v0v0zM170 990l82 -30q12 -7 0 -16l-32 -12v-154q55 -24 86 -44
q30 -19 40 -40q7 -22 2 -40q-6 -19 -26 -20q-18 0 -26 22q-6 20 -20 46q-15 24 -56 54v-578l4 -111q0 -11 -18 -26q-17 -14 -40 -16l4 161v804v0v0zM94 740h18q1 -81 0 -120q0 -39 -18 -66q-16 -25 -38 -26q-22 0 -28 16q-6 14 6 28l22 30t20 46q9 28 18 92v0v0z" />
  </g>

</svg>
