<?xml version="1.0" standalone="no"?>
<!DOCTYPE svg PUBLIC "-//W3C//DTD SVG 1.1//EN" "http://www.w3.org/Graphics/SVG/1.1/DTD/svg11.dtd" >
<svg xmlns="http://www.w3.org/2000/svg" xmlns:xlink="http://www.w3.org/1999/xlink" version="1.1" viewBox="0 -36 256 256">
  <g transform="matrix(1 0 0 -1 0 220)">
   <path fill="currentColor"
d="M235.5 168q2.5 2 7 -0.5t5.5 -8t-14 -4.5h-21q-14 0 -14 15v56h-32q-1 -36 -8.5 -54t-25.5 -35l-2 3q19 28 21 55.5t1 45.5l14 -9h32l5 9l16 -9l-8 -8v-47q0 -11 8 -11h9q4 0 6.5 2zM211 131l8 10l15 -14q-5 -2 -14.5 -20t-28.5 -49q14 -16 29.5 -23.5t25.5 -8.5v-3
q-12 -2 -18 -13q-17 10 -27.5 19.5t-16.5 17.5q-16 -16 -31.5 -25.5t-36.5 -15.5l-1 4q20 10 34.5 21.5t26.5 26.5q-16 29 -22 66l-6 -3l-10 10h73zM183 69q13 19 28 56h-51q7 -33 23 -56zM84 15l-16 -6q1 17 1 76q-12 -24 -28.5 -40t-30.5 -24l-2 3q16 15 29.5 33.5
t19.5 35.5h-18q-11 0 -18 -2l-9 8h57q0 7 -1 28l21 -8l-6 -8v-12h34l9 9l15 -15h-58v-5q13 -7 29.5 -17.5t18 -20t-3 -15t-13.5 10.5t-31 36q0 -52 1 -67zM51 133h50v28h-50v-28zM38 144q0 12 -1 31l14 -8h49l6 9l14 -10l-6 -7q0 -26 1 -35l-14 -5v8h-50v-4l-14 -5
q1 14 1 26zM35 235q16 -10 21 -17.5t-1 -15.5t-9 4.5t-13 25.5zM126 189h-95q0 -16 -5 -21.5t-12 -3.5t1.5 12t11.5 29h4v-10h40q0 37 -1 52l21 -7l-7 -8v-37h8q15 28 19 41l16 -11q-8 -4 -29 -30h27l8 9l14 -12q-8 -3 -26 -26l-2 2z" />
  </g>

</svg>
