<?xml version="1.0" standalone="no"?>
<!DOCTYPE svg PUBLIC "-//W3C//DTD SVG 1.1//EN" "http://www.w3.org/Graphics/SVG/1.1/DTD/svg11.dtd" >
<svg xmlns="http://www.w3.org/2000/svg" xmlns:xlink="http://www.w3.org/1999/xlink" version="1.1" viewBox="0 -205 1024 1024">
  <g transform="matrix(1 0 0 -1 0 819)">
   <path fill="currentColor"
d="M664 934q13 -15 -12 -18q-23 3 -82 -56q-60 -60 -140 -134l404 6q-52 72 -124 138l8 12q84 -51 130 -90t62 -68q15 -28 10 -52q-7 -25 -28 -26q-22 -2 -28 18q-7 18 -16 46q-271 -12 -344 -18q-72 -5 -102 -28l-48 66l50 12q75 77 120 134q45 54 72 96l68 -38v0v0z
M530 592q2 -4 2 -8q0 -3 -14 -8q-12 -3 -24 -14q-12 -12 -42 -56h162v174l86 -30q9 -3 6 -8q1 -5 -10 -10l-30 -10v-116h136l40 44l68 -52q3 -5 4 -10q0 -7 -8 -8h-240v-162h188l40 48l70 -54q3 -3 4 -8q0 -12 -12 -12h-290v-138l4 -95q1 -12 -22 -24q-21 -13 -38 -14l4 131
v140h-232q-21 0 -68 -8l-12 34h312v162h-178q-55 -79 -98 -118l-12 6q45 75 76 132q30 56 60 130l68 -38v0v0zM180 412q-19 -49 -40 -52t-102 -2l-2 -20q66 -6 88 -14q24 -7 30 -22q8 -13 8 -44q1 -31 -6 -86q-9 -55 -6 -83q0 -28 16 -38q16 -6 32 0q16 9 20 36q3 26 -6 85
q-10 60 -10 102q-1 42 4 64q4 21 14 54l138 398l-22 10l-156 -388v0v0zM114 950l6 14q48 -18 82 -36q33 -15 52 -36q17 -19 20 -40q3 -19 -8 -34q-9 -13 -26 -14q-16 0 -22 16q-6 14 -14 34q-6 20 -24 38q-15 18 -66 58v0v0zM40 698l6 14q42 -16 78 -34q35 -16 50 -34
t18 -38q1 -18 -10 -32q-9 -12 -24 -12t-20 16q-6 13 -14 32q-10 17 -28 40q-18 21 -56 48v0v0z" />
  </g>

</svg>
