<?xml version="1.0" standalone="no"?>
<!DOCTYPE svg PUBLIC "-//W3C//DTD SVG 1.1//EN" "http://www.w3.org/Graphics/SVG/1.1/DTD/svg11.dtd" >
<svg xmlns="http://www.w3.org/2000/svg" xmlns:xlink="http://www.w3.org/1999/xlink" version="1.1" viewBox="0 -36 256 256">
  <g transform="matrix(1 0 0 -1 0 220)">
   <path fill="currentColor"
d="M42 245l16 -6h57l11 6l14 -13h-84v-6h53l9 5l14 -12h-76v-5h52l9 5l14 -12h-75v-5h70l11 6l12 -13h-79l10 -4q-7 -1 -16 -5t-20 -5l71 2q-9 5 -15 9l2 3q23 -5 27 -8.5t1 -8.5t-6.5 -2.5t-5.5 4.5q-26 -3 -53 -5.5t-33 -5.5l-10 12q11 1 22.5 6t15.5 8h-22q-11 0 -20 -2
l-10 9h35q0 29 -1 43zM233 235q-9 -1 -33.5 -8t-57.5 -11v4q23 5 46.5 13.5t30.5 13.5zM241 212q-7 -1 -35 -8t-56 -10l-1 5q27 5 47.5 12t31.5 14zM248 191q-10 -1 -37 -8t-70 -10v4q40 6 63.5 13.5t29.5 12.5zM46 123h77v6h-46v-2l-15 -2q1 7 1 13.5t-1 13.5l16 -3h45v7
h-56q-11 0 -21 -2l-10 9h87q0 4 -1 13l21 -6l-7 -5v-2h62l11 7l16 -14h-89v-7h43l7 5l13 -8l-6 -4q0 -7 1 -14l-15 -2v3h-43v-6h77l7 7l15 -12q-9 -2 -15 -6t-12 -10l-3 1q3 6 7 13h-166q-1 -11 -8.5 -14t-13.5 -0.5t4.5 8.5t13.5 18h4v-5zM77 142v-6h46v6h-46zM136 136h43
v6h-43v-6zM72 100h30v5h-30v-5zM150 100h29v5h-29v-5zM86 83v5l-1 5l21 -6l-6 -3v-1h56v5l-1 5l23 -5l-8 -4v-1h32l10 7l16 -14h-58v-7h19l8 6l15 -13h-42v-6h40l12 8l16 -15h-100q12 -8 25 -13q16 5 33 14l15 -11q-12 0 -22 -2.5t-19 -3.5q15 -5 30.5 -7t45.5 -2v-4
q-15 -3 -17 -11q-45 7 -65 17t-34 23h-17q-7 -3 -22 -11v-15l49 10l1 -3q-51 -16 -61 -22l-8 11q5 3 5 9v6q-21 -8 -66 -15v4q28 6 47 13t31 13h-35q-11 0 -21 -2l-10 9h63v6h-8q-11 0 -21 -2l-10 9h39v7h-26q-11 0 -21 -2l-9 9h56zM100 69h56v7h-56v-7zM100 56h56v6h-56v-6
zM60 101l-1 14l13 -3h30l5 5l13 -8l-5 -4v-6l1 -6l-14 -3v3h-30v-3l-13 -2zM138 102l-1 14l14 -4h27l6 5l14 -8l-6 -4v-7l1 -6l-14 -3v4h-29v-3l-13 -2z" />
  </g>

</svg>
