<?xml version="1.0" standalone="no"?>
<!DOCTYPE svg PUBLIC "-//W3C//DTD SVG 1.1//EN" "http://www.w3.org/Graphics/SVG/1.1/DTD/svg11.dtd" >
<svg xmlns="http://www.w3.org/2000/svg" xmlns:xlink="http://www.w3.org/1999/xlink" version="1.1" viewBox="0 -205 1024 1024">
  <g transform="matrix(1 0 0 -1 0 819)">
   <path fill="currentColor"
d="M814 784l38 48l60 -58q4 -4 2 -10q0 -6 -14 -6h-726q-20 0 -70 -8l-14 34h724v0v0zM294 732l56 -26h332l24 28l56 -38q6 -6 4 -12q-3 -6 -24 -18v-40l4 -38q-1 -9 -20 -20q-16 -9 -34 -6v30h-350v-4q1 -8 -10 -16q-9 -6 -42 -12l4 80v92v0v0zM342 616h350v66h-350v-66v0
v0zM308 504l54 -16h304l18 22l52 -28q9 -3 10 -12q1 -3 -22 -20v-36l4 -30q-4 -10 -14 -16q-10 -5 -38 -10v18h-320v-8q0 -12 -6 -18q-14 -13 -46 -14l4 74v94v0v0zM356 400h320v64h-320v-64v0v0zM154 580l60 -34h606l30 36l54 -46q9 -3 10 -12q0 -6 -32 -26v-120
q3 -46 -12 -64q-15 -15 -50 -30q-9 24 -32 36q-21 9 -66 24l4 16q59 -7 76 -8q15 0 24 6q6 3 4 28v136h-624v-112l4 -46q-1 -15 -22 -30q-22 -13 -38 -14l4 68v192v0v0zM446 868l6 12q45 -9 72 -20q24 -11 30 -28q3 -17 -6 -28q-9 -10 -24 -10q-15 -1 -18 14q-4 11 -16 26
q-10 12 -44 34v0v0zM712 284q-79 3 -172 -6v-54h336l32 38l52 -44q3 -3 4 -8q4 -12 -10 -12h-348q66 -43 148 -77q80 -36 224 -46v-20q-69 0 -96 -40q-121 52 -196 100q-73 46 -104 83h-42v-107l4 -36q0 -14 -20 -26q-21 -13 -38 -14l4 80v103h-24q-80 -59 -178 -107
q-96 -46 -240 -84l-4 18q87 30 184 78q95 44 166 95h-248q-35 0 -82 -8l-22 34h448v52q-166 -3 -268 -6v18q218 16 482 50l54 -42q3 -7 4 -10q-4 -6 -10 -6l-40 4v0v0zM350 996l74 -28q7 -4 2 -10q1 0 -28 -20v-20h244v74l74 -28q3 -3 4 -8q-4 -6 -28 -18v-20h186l40 48
l60 -62q3 -1 4 -8q-1 -6 -16 -6h-274v-46q0 -12 -12 -20q-9 -6 -18 -8q-7 -3 -20 -2v76h-244v-46q0 -12 -8 -18q-7 -5 -16 -10q-9 -3 -24 -2v76h-206q-22 -1 -70 -10l-18 38h294v78v0v0z" />
  </g>

</svg>
