<?xml version="1.0" standalone="no"?>
<!DOCTYPE svg PUBLIC "-//W3C//DTD SVG 1.1//EN" "http://www.w3.org/Graphics/SVG/1.1/DTD/svg11.dtd" >
<svg xmlns="http://www.w3.org/2000/svg" xmlns:xlink="http://www.w3.org/1999/xlink" version="1.1" viewBox="0 -36 256 256">
  <g transform="matrix(1 0 0 -1 0 220)">
   <path fill="currentColor"
d="M101 233l10 8l17 -21q-9 -2 -17 -6t-30 -25q5 -6 6.5 -12.5t-4 -12.5t-11.5 7t-26 31l3 3q19 -6 27 -12l28 33h-46q-13 0 -22 -3l-10 10h75zM107 162l9 8l13 -16q-9 -4 -31 -30l-3 1l13 30h-21v-119q0 -9 -5 -16.5t-22 -12.5q-2 18 -24 23v4q24 -4 30.5 -3.5t6.5 8.5v86
q-20 -47 -61 -79l-3 3q37 41 58 106h-24q-13 0 -22 -3l-10 10h96zM142 152l-5 -3l-9 9l33 3q-3 66 -4 85l24 -10l-9 -9q0 -31 2 -64l41 4l11 12l16 -17l-67 -6q3 -52 12 -79q21 36 28 73l18 -16l-8 -6q-16 -46 -31 -65q15 -21 34 -31l10 48l3 -1q-2 -21 -2 -39.5t6 -27.5
t-15.5 1t-44.5 37q-27 -26 -64 -41l-1 4q38 22 58 49q-13 34 -16 92zM211.5 216.5q9.5 -6.5 8.5 -14t-5 -13.5t-9.5 7.5t-26.5 31.5l2 4q21 -9 30.5 -15.5z" />
  </g>

</svg>
