<?xml version="1.0" standalone="no"?>
<!DOCTYPE svg PUBLIC "-//W3C//DTD SVG 1.1//EN" "http://www.w3.org/Graphics/SVG/1.1/DTD/svg11.dtd" >
<svg xmlns="http://www.w3.org/2000/svg" xmlns:xlink="http://www.w3.org/1999/xlink" version="1.1" viewBox="0 -205 1024 1024">
  <g transform="matrix(1 0 0 -1 0 819)">
   <path fill="currentColor"
d="M474 906l58 -36h130v118l70 -28q8 -1 10 -10l-6 -8l-22 -8v-64h130l34 34l48 -42q7 -7 8 -10q0 -6 -32 -26v-66l4 -42q0 -15 -20 -24q-19 -10 -34 -8v36h-138v-76h192l32 42l52 -52q3 -3 4 -6q0 -10 -12 -10h-510q-30 0 -54 -8l-18 34h262v76h-138v-6q0 -18 -18 -26
q-18 -10 -36 -8l4 84v140v0v0zM524 748h138v96h-138v-96v0v0zM714 844v-96h138v96h-138v0v0zM490 588l58 -34h274l28 30l58 -36q6 -4 6 -8q0 -6 -30 -30v-214l4 -82q0 -16 -20 -28q-18 -12 -36 -14v36h-290v-16l-18 -8q-18 -10 -38 -10l4 84v330v0v0zM542 234h290v84h-290
v-84v0v0zM542 344h290v82h-290v-82v0v0zM542 452h290v76h-290v-76v0v0zM380 27q108 62 228 157l54 -38q9 -7 -2 -15q-30 -2 -42 -8q-11 -3 -70 -36q-57 -32 -158 -76l-10 16v0v0zM726 158l4 16q90 -19 154 -41q62 -21 80 -46q18 -21 10 -42q-6 -19 -24 -20q-15 0 -36 24
q-19 23 -64 52q-43 28 -124 57v0v0zM32 894h330l32 38l48 -48q2 -2 2 -4q1 -12 -10 -12h-70v-554l86 18l6 -18l-92 -28l2 -144l2 -73q1 -18 -22 -30q-21 -14 -38 -14l4 115v132q-169 -48 -194 -62q-24 -13 -48 -34l-46 62l94 22v608h-22q-26 -3 -46 -8l-18 34v0v0zM170 270
l142 32v170h-142v-202v0v0zM170 498h142v174h-142v-174v0v0zM170 698h142v170h-142v-170v0v0z" />
  </g>

</svg>
