<?xml version="1.0" standalone="no"?>
<!DOCTYPE svg PUBLIC "-//W3C//DTD SVG 1.1//EN" "http://www.w3.org/Graphics/SVG/1.1/DTD/svg11.dtd" >
<svg xmlns="http://www.w3.org/2000/svg" xmlns:xlink="http://www.w3.org/1999/xlink" version="1.1" viewBox="0 -52 256 256">
  <g transform="matrix(1 0 0 -1 0 204)">
   <path fill="currentColor"
d="M207 87l12 -12q2 -3 -1 -2q-4 1 -10 -2q-12 -10 -33 -24q22 -23 70 -24v-3q-16 2 -21 -8q-62 15 -70 67q-10 -59 -87 -69l-1 4q79 16 79 81q-3 6 -5 5l1 2h-49q-7 0 -11 -4l-9 8h74v24h-40q-6 1 -11 -5l-8 9h59v22h-51q-6 0 -11 -3l-8 7h70v10q1 3 -5 11l2 3l18 -7
q4 -1 2 -2q-1 -1 -2 -1q-2 -1 -5 -4v-10h55l7 9l15 -11q4 -2 -2 -2h-75v-22h40l6 9l15 -10q2 -1 2 -2q-1 -1 -3 -1h-60v-24h63l6 9l15 -11q4 -2 -2 -2h-95l19 -4l2 -1q0 -1 -2 -2q-2 0 -6 -2v-2q1 -2 2 -6q4 -19 8 -25q3 -6 6 -9q7 5 19 16q5 5 7 6q9 9 7 13zM79 209
q2 -1 -1 -3q-3 0 -7 -3q-2 -3 -4 -9q-4 -9 -13 -24v-136v-14q1 -9 -12 -11v9q1 16 1 26v109q-19 -26 -40 -39l-2 3q33 32 53 73q7 18 7 20q-1 3 -3 6l2 3zM244 221q1 -1 0 -2h-3q-8 -1 -21 -13l-5 -5l-3 2l13 19h-188q0 -1 -1 -3q0 -3 -1 -4q-8 -25 -21 -18q0 4 4 7
q5 3 9 11t7 22h3q1 -3 0 -7v-3h188l6 6zM92 197v-5h120l7 6l14 -10q2 -2 -3 -1q-7 -1 -17 -10q-4 -3 -6 -5l-4 2l11 14h-122q-1 -3 -1 -6q-2 -15 -12 -16q-6 0 -7 3t4 5q5 3 8 8t4 15h4zM112 84q0 -20 -5 -28q-4 -5 -9 -7q-6 -2 -8 1q-3 4 2 7l2 1q5 3 7 7q4 4 8 19h3z
M107 255l1 3q22 -8 25 -17q4 -11 -4 -13q-3 0 -4 6q0 5 -5 11q-4 6 -13 10zM127 215l1 3q22 -5 26 -13q5 -10 -3 -12q-4 0 -6 5q0 3 -6 9q-2 2 -9 6q-2 1 -3 2z" />
  </g>

</svg>
