<?xml version="1.0" standalone="no"?>
<!DOCTYPE svg PUBLIC "-//W3C//DTD SVG 1.1//EN" "http://www.w3.org/Graphics/SVG/1.1/DTD/svg11.dtd" >
<svg xmlns="http://www.w3.org/2000/svg" xmlns:xlink="http://www.w3.org/1999/xlink" version="1.1" viewBox="0 -205 1024 1024">
  <g transform="matrix(1 0 0 -1 0 819)">
   <path fill="currentColor"
d="M586 856l80 -30q8 -4 8 -10t-12 -12l-26 -12v-410l232 76v526l84 -32q6 -6 6 -8q3 -7 -2 -8l-36 -18v-734l4 -103q1 -14 -22 -28q-21 -13 -38 -12l4 135v258q-155 -61 -202 -86q-45 -25 -74 -50l-48 60q36 17 42 32v466v0v0zM78 888h368l34 50l58 -56q3 -3 4 -8
q0 -12 -12 -12h-196v-298h100l36 44l52 -54q3 -2 4 -4q0 -12 -8 -12h-184v-294l196 50l8 -14q-307 -110 -358 -130q-48 -17 -68 -39l-46 61l214 60v306h-106q-21 0 -68 -8l-16 34h190v298h-130q-21 0 -56 -8l-16 34v0v0z" />
  </g>

</svg>
