<?xml version="1.0" standalone="no"?>
<!DOCTYPE svg PUBLIC "-//W3C//DTD SVG 1.1//EN" "http://www.w3.org/Graphics/SVG/1.1/DTD/svg11.dtd" >
<svg xmlns="http://www.w3.org/2000/svg" xmlns:xlink="http://www.w3.org/1999/xlink" version="1.1" viewBox="0 -205 1024 1024">
  <g transform="matrix(1 0 0 -1 0 819)">
   <path fill="currentColor"
d="M320 902h296l32 40l54 -50q3 -2 4 -4q0 -12 -12 -12h-70v-520l74 18l4 -16l-78 -26v-148l4 -97q3 -15 -20 -30q-22 -15 -34 -12l4 127v144q-180 -54 -198 -66q-16 -9 -44 -36l-38 60l86 24v578q-30 0 -48 -8l-16 34v0v0zM430 308l148 36v156h-148v-192v0v0zM430 526h148
v160h-148v-160v0v0zM430 712h148v164h-148v-164v0v0zM924 932l56 -44q7 -6 8 -12q-2 -5 -16 -10q-12 -3 -32 -26q-41 -96 -100 -236q42 -30 84 -78q40 -48 50 -90t8 -66q-1 -21 -10 -44q-10 -24 -28 -44q-19 -19 -76 -38q-7 27 -28 40q-19 9 -62 22l4 18q56 -13 74 -14
q17 -1 38 4q17 6 32 30q12 21 6 70q-6 47 -36 92q-27 42 -84 100l88 264h-132v-674l4 -107q0 -14 -18 -26t-36 -12l4 141v748l52 -42h122l28 34v0v0zM88 910l54 -40h92l28 38l50 -36q12 -6 12 -14q0 -4 -30 -26v-402l4 -100q0 -12 -14 -24q-15 -13 -38 -16v76h-110v-84
q0 -12 -18 -24q-19 -12 -34 -12l4 138v526v0v0zM136 396h110v444h-110v-444v0v0z" />
  </g>

</svg>
