<?xml version="1.0" standalone="no"?>
<!DOCTYPE svg PUBLIC "-//W3C//DTD SVG 1.1//EN" "http://www.w3.org/Graphics/SVG/1.1/DTD/svg11.dtd" >
<svg xmlns="http://www.w3.org/2000/svg" xmlns:xlink="http://www.w3.org/1999/xlink" version="1.1" viewBox="0 -205 1024 1024">
  <g transform="matrix(1 0 0 -1 0 819)">
   <path fill="currentColor"
d="M796 492l60 -54q8 -9 8 -14q0 -7 -14 -10q-22 -8 -38 -22q-12 -13 -162 -190q59 -46 76 -77q17 -32 8 -58q-9 -24 -26 -24q-15 0 -24 12q-7 15 -28 54q-22 36 -58 73q-34 37 -116 110l8 12q86 -47 140 -88l138 202h-298q-16 0 -52 -8l-26 36h364l40 46v0v0zM686 926
q6 -6 6 -8q-4 -6 -32 -14q36 -81 70 -134q33 -52 106 -122q72 -68 160 -88v-18q-52 0 -68 -6q-15 -6 -32 -24q-62 48 -106 108q-44 57 -76 108q-33 50 -74 164q-52 -114 -140 -236q-87 -123 -198 -204l-10 14q102 102 180 228q77 123 136 270l78 -38v0v0zM552 672l8 12
q78 -48 106 -80q25 -33 24 -56q0 -24 -12 -36q-13 -10 -28 -8q-15 3 -20 28q-7 24 -16 52q-10 27 -62 88v0v0zM192 958l78 -32q7 -3 8 -6q0 -6 -8 -12l-28 -16v-142q60 -22 96 -46q36 -22 48 -46q9 -21 0 -42q-9 -18 -24 -18q-15 1 -24 20q-9 17 -24 46q-15 30 -72 66v-552
l2 -99q0 -12 -18 -28q-19 -13 -38 -14l4 137v784v0v0zM112 720h18q3 -81 0 -132t-24 -78q-21 -28 -42 -28q-22 0 -28 16q-6 15 12 36q18 18 30 42q13 20 20 50q7 29 14 94v0v0z" />
  </g>

</svg>
