<?xml version="1.0" standalone="no"?>
<!DOCTYPE svg PUBLIC "-//W3C//DTD SVG 1.1//EN" "http://www.w3.org/Graphics/SVG/1.1/DTD/svg11.dtd" >
<svg xmlns="http://www.w3.org/2000/svg" xmlns:xlink="http://www.w3.org/1999/xlink" version="1.1" viewBox="0 -36 256 256">
  <g transform="matrix(1 0 0 -1 0 220)">
   <path fill="currentColor"
d="M59 183h43l7 10l12 -11l-6 -8v-88q0 -16 1 -59l-13 -8v13h-68v-11l-13 -7q1 27 1 90.5t-1 86.5l13 -8h19q8 27 10 37h-23q-10 -1 -19 -3l-9 10h87l10 11l16 -18h-45q-5 -3 -22 -37zM35 39h14v137h-14v-137zM88 39h15v137h-15v-137zM61 137h15v39h-15v-39zM61 90h15v40
h-15v-40zM61 39h15v44h-15v-44zM178 184l-12 -4v6h-23v-6l-12 -5q1 19 1 34.5t-1 30.5l12 -5h22l6 6l12 -11l-6 -5q0 -30 1 -41zM143 193h23v35h-23v-35zM152 135h27v23h-27v-23zM191 135h28v23h-28v-23zM152 104h27v24h-27v-24zM191 104h28v24h-28v-24zM191 37q0 -10 1 -23
l-14 -6q1 13 1 25v25h-30q-10 -1 -19 -3l-9 10h58v32h-27v-10l-13 -4q1 21 1 46.5t-1 41.5l13 -6h66l6 8l13 -11l-6 -6q0 -43 1 -63l-13 -6v10h-28v-32h32l10 10l15 -17h-57v-21zM236 184l-12 -4v7h-21v-7l-12 -5q1 19 1 35t-1 31l12 -5h20l6 6l13 -11l-7 -5q0 -31 1 -42z
M203 194h21v35h-21v-35z" />
  </g>

</svg>
