<?xml version="1.0" standalone="no"?>
<!DOCTYPE svg PUBLIC "-//W3C//DTD SVG 1.1//EN" "http://www.w3.org/Graphics/SVG/1.1/DTD/svg11.dtd" >
<svg xmlns="http://www.w3.org/2000/svg" xmlns:xlink="http://www.w3.org/1999/xlink" version="1.1" viewBox="0 -205 1024 1024">
  <g transform="matrix(1 0 0 -1 0 819)">
   <path fill="currentColor"
d="M524 762l60 -38h122v268l90 -32q9 -3 6 -12q0 -3 -6 -6l-38 -14v-204h114l34 38l66 -46q3 -4 4 -8q1 -6 -34 -32v-484l4 -87q0 -15 -18 -28q-18 -12 -36 -16v84h-316v-62q-1 -14 -22 -28q-22 -13 -34 -12l4 129v590v0v0zM576 172h130v258h-130v-258v0v0zM758 430v-258
h134v258h-134v0v0zM576 458h130v238h-130v-238v0v0zM758 696v-238h134v238h-134v0v0zM276 892q9 -10 -8 -16q-14 -4 -28 -14q-99 -120 -180 -192l-12 12q87 104 168 242l60 -32v0v0zM152 442l54 -36h152l26 36l56 -36q6 -7 0 -14l-18 -16v-178l4 -77q1 -19 -16 -32
q-18 -14 -38 -14v60h-170v-44q0 -14 -18 -28t-36 -16l4 94v301v0v0zM202 158h170v224h-170v-224v0v0zM330 682q12 -9 -6 -18l-22 -6l-14 -16q75 -34 114 -58q39 -22 64 -50q25 -26 20 -52q-3 -25 -24 -28q-19 -4 -32 22q-12 24 -42 60q-30 33 -110 90q-42 -63 -98 -134
q-57 -69 -126 -132l-10 12q65 78 118 156q50 77 98 182l70 -28v0v0zM328 928q66 -42 102 -72q33 -27 46 -54t2 -44q-10 -18 -28 -18q-19 1 -26 26q-6 25 -30 62q-22 36 -76 90l10 10v0v0z" />
  </g>

</svg>
