<?xml version="1.0" standalone="no"?>
<!DOCTYPE svg PUBLIC "-//W3C//DTD SVG 1.1//EN" "http://www.w3.org/Graphics/SVG/1.1/DTD/svg11.dtd" >
<svg xmlns="http://www.w3.org/2000/svg" xmlns:xlink="http://www.w3.org/1999/xlink" version="1.1" viewBox="0 -205 1024 1024">
  <g transform="matrix(1 0 0 -1 0 819)">
   <path fill="currentColor"
d="M412 912h408l40 46l56 -56l2 -4q0 -12 -12 -12h-220v-84h200l30 36q65 -48 68 -56q1 -9 -12 -12q-12 -3 -36 -12q-20 -9 -64 -54l-18 8l38 64h-206v-134l4 -54q0 -16 -20 -28t-40 -12l4 102v126h-186q-2 -45 -16 -72q-12 -27 -36 -30q-25 -4 -34 14q-10 17 10 34
q20 18 32 42q11 23 20 80h20v-42h190v84h-138q-19 0 -68 -8l-16 34v0v0zM438 694h146v-26h-146v26v0v0zM436 604h150v-26h-150v26v0v0zM744 690h148v-26h-148v26v0v0zM746 604h148v-26h-148v26v0v0zM330 378h566l38 46l56 -54q3 0 6 -6q0 -12 -12 -12h-396l-30 -86h244
l28 34l52 -42q6 -2 10 -10q1 -6 -10 -12q-16 -7 -26 -22l-10 -54q-15 -74 -50 -105q-36 -29 -92 -38q-6 30 -36 50q-30 19 -86 40l8 18q117 -36 138 -34q21 3 34 14q12 11 24 37q9 24 22 100h-250l-28 -32l-58 52q37 15 44 30l18 60h-106q-51 1 -80 -10l-18 36v0v0zM404 486
h406l38 42l52 -50q6 -3 6 -6q3 -12 -12 -12h-406q-19 0 -68 -8l-16 34v0v0zM28 744h160v238l72 -32q9 -6 10 -8q4 -9 -4 -12l-30 -18v-168h30l32 46l52 -54q2 -3 2 -8q0 -12 -12 -12h-104v-102q50 -22 82 -46t40 -48q9 -23 -2 -40q-11 -19 -28 -16q-15 2 -24 32
q-9 28 -26 50q-18 21 -42 46v-424l4 -97q0 -14 -20 -26q-18 -14 -36 -14l4 133v410q-37 -101 -76 -172q-40 -70 -88 -130l-14 8q33 57 64 120q27 62 64 158q33 94 48 158h-74q-21 0 -62 -8l-22 36v0v0z" />
  </g>

</svg>
