<?xml version="1.0" standalone="no"?>
<!DOCTYPE svg PUBLIC "-//W3C//DTD SVG 1.1//EN" "http://www.w3.org/Graphics/SVG/1.1/DTD/svg11.dtd" >
<svg xmlns="http://www.w3.org/2000/svg" xmlns:xlink="http://www.w3.org/1999/xlink" version="1.1" viewBox="0 -205 1024 1024">
  <g transform="matrix(1 0 0 -1 0 819)">
   <path fill="currentColor"
d="M710 934q3 -3 4 -6q0 -6 -18 -12q-15 -4 -30 -22q-12 -17 -42 -70h230l32 42l60 -48q9 -6 10 -14q1 -7 -12 -10q-15 -3 -30 -20q-15 -18 -36 -54q-21 -37 -62 -98q-43 -60 -94 -110q-51 -51 -102 -90h250l30 40l62 -42q6 -7 6 -10q0 -7 -32 -28v-216l4 -93q3 -12 -12 -22
q-15 -9 -42 -12v66h-300v-34q2 -18 -16 -28q-19 -12 -38 -12l4 119v212q-63 -39 -140 -72l-6 16q56 33 146 96v50l42 -20q54 45 108 100q53 54 98 126q45 70 76 140h-254q-34 -51 -50 -80q57 -36 82 -54q24 -18 30 -38q7 -22 0 -40q-8 -20 -28 -18q-19 2 -22 22
q-4 21 -16 48t-56 64q-75 -102 -140 -162l-10 12q75 93 138 210q63 116 102 212l74 -40v0v0zM586 131h300v265h-300v-265v0v0zM116 940l60 -44h134l30 40l62 -42q9 -10 -2 -22l-22 -18v-580l4 -130q0 -10 -18 -25t-38 -18v75h-160v-71q0 -12 -20 -28q-22 -13 -34 -14l4 189
v688v0v0zM166 202h160v210h-160v-210v0v0zM166 438h160v200h-160v-200v0v0zM166 664h160v206h-160v-206v0v0z" />
  </g>

</svg>
