<?xml version="1.0" standalone="no"?>
<!DOCTYPE svg PUBLIC "-//W3C//DTD SVG 1.1//EN" "http://www.w3.org/Graphics/SVG/1.1/DTD/svg11.dtd" >
<svg xmlns="http://www.w3.org/2000/svg" xmlns:xlink="http://www.w3.org/1999/xlink" version="1.1" viewBox="0 -205 1024 1024">
  <g transform="matrix(1 0 0 -1 0 819)">
   <path fill="currentColor"
d="M114 918h684l34 44l58 -52q2 -3 2 -12t-12 -8h-354q0 -93 -18 -206h350l40 48l58 -58q9 -9 -2 -18h-346v-226q2 -30 10 -38q5 -7 32 -10h244q36 3 40 24l6 40q2 20 4 106h18q3 -67 10 -98q3 -31 34 -46q-11 -30 -28 -48q-15 -19 -60 -22h-284q-40 0 -58 18q-19 15 -20 60
v240h-54q-18 -106 -80 -188q-61 -80 -154 -130q-92 -49 -208 -80l-6 14q105 41 190 94q84 54 136 126q51 71 70 164h-246l-34 -36l-54 44l36 30l40 148l68 -26q9 -9 0 -14l-30 -14l-32 -104h256q15 122 18 206h-298q-21 0 -44 -8l-16 36v0v0zM200 270h20q-3 -90 -26 -139
q-21 -50 -42 -70q-21 -19 -42 -24q-19 -3 -34 6q-13 7 -14 22q0 16 16 28q15 12 40 26q24 15 46 45q21 29 36 106v0v0zM332 266l12 8q78 -72 96 -110q15 -35 16 -59q-1 -22 -14 -38q-12 -15 -30 -10q-18 3 -18 30q-1 25 -10 65q-7 39 -52 114v0v0zM794 254l8 14
q116 -76 148 -116q32 -37 32 -67q-1 -28 -14 -38q-12 -11 -26 -8q-15 2 -24 34q-6 33 -30 73q-22 39 -94 108v0v0zM554 274l12 10q89 -70 116 -106q26 -33 26 -59q1 -24 -10 -40q-9 -16 -32 -14q-21 1 -24 34q-3 32 -18 67q-13 33 -70 108v0v0z" />
  </g>

</svg>
