<?xml version="1.0" standalone="no"?>
<!DOCTYPE svg PUBLIC "-//W3C//DTD SVG 1.1//EN" "http://www.w3.org/Graphics/SVG/1.1/DTD/svg11.dtd" >
<svg xmlns="http://www.w3.org/2000/svg" xmlns:xlink="http://www.w3.org/1999/xlink" version="1.1" viewBox="0 -205 1024 1024">
  <g transform="matrix(1 0 0 -1 0 819)">
   <path fill="currentColor"
d="M718 538l30 24l46 -38q6 -4 4 -10q-1 -3 -28 -18v-194q-1 -37 2 -44t16 -10h36q9 0 12 12q3 8 4 32q-1 24 2 88h18q3 -55 6 -86q2 -30 28 -42q-6 -14 -18 -28q-12 -15 -36 -18h-60q-24 0 -42 12q-16 13 -16 62v230h-72q-3 -109 -36 -184q-33 -76 -140 -142l-6 14
q81 69 108 142q23 70 26 170h-38q-24 0 -48 -12l-22 38h108v152l78 -20q6 -9 0 -12t-30 -18v-100h68v0v0zM698 944q7 -4 8 -8q3 -7 -6 -10q-21 -6 -32 -20q-25 -40 -62 -122h290l38 34l54 -42q9 -6 6 -12q1 -6 -34 -26v-398q3 -105 -6 -176q-9 -67 -44 -95q-34 -23 -76 -38
q-9 36 -38 50q-30 12 -92 30l6 18q100 -22 128 -20q28 1 44 16q15 15 24 63q6 45 4 132v438h-318q-51 -93 -116 -176l-14 10q62 106 106 218q41 112 56 164l74 -30v0v0zM394 698l52 -34q18 -7 4 -22l-24 -20v-186l4 -88q0 -13 -18 -26q-18 -12 -36 -14v36h-186v-213l178 87
q-27 38 -66 70l8 12q65 -34 98 -58q30 -25 42 -50t4 -45q-9 -19 -24 -20t-24 18q-6 19 -12 29q-3 9 -12 24q-150 -88 -170 -107q-21 -18 -54 -54l-56 64q33 20 40 34v537q-58 -71 -106 -112l-10 10q77 101 136 212q57 108 96 208l66 -36q12 -5 4 -16q-28 0 -40 -24
q66 -24 108 -48q39 -24 54 -48q16 -25 8 -44q-6 -19 -24 -20q-18 -2 -32 24q-12 23 -42 56q-27 29 -84 62q-21 -42 -54 -96q-31 -54 -64 -104l38 -32h168l30 34v0v0zM190 636v-120h186v120h-186v0v0zM190 490v-120h186v120h-186v0v0zM238 810l10 10q53 -30 70 -54
q15 -21 12 -44q-4 -21 -16 -26q-13 -6 -22 0q-10 4 -14 26q-3 22 -12 44q-8 20 -28 44v0v0z" />
  </g>

</svg>
