<?xml version="1.0" standalone="no"?>
<!DOCTYPE svg PUBLIC "-//W3C//DTD SVG 1.1//EN" "http://www.w3.org/Graphics/SVG/1.1/DTD/svg11.dtd" >
<svg xmlns="http://www.w3.org/2000/svg" xmlns:xlink="http://www.w3.org/1999/xlink" version="1.1" viewBox="0 -36 256 256">
  <g transform="matrix(1 0 0 -1 0 220)">
   <path fill="currentColor"
d="M181 184h38l7 9l13 -11l-7 -5v-92q0 -16 1 -38l-13 -6v16h-62v-12l-13 -5q1 42 1 83.5t-1 69.5l13 -9h18q7 24 8 29h-24q-11 -1 -19 -3l-9 10h88l12 11l14 -18h-46q-3 -1 -19 -29zM158 64h13v113h-13v-113zM208 64h12v113h-12v-113zM183 146h14v31h-14v-31zM183 106h14
v33h-14v-33zM183 64h14v35h-14v-35zM128.5 209.5q6.5 -9.5 -1 -19.5t-10 7t-12.5 30l3 3q14 -11 20.5 -20.5zM112 50q6 26 14 50h-9l-7 -9l-9 10l5 5q7 20 12 40h-6l-8 -2l-7 9h22l9 9l11 -13l-9 -4q-4 -14 -12 -38h9l6 8l11 -12l-7 -6q-9 -23 -15 -49q20 -15 51 -17.5
t75 1.5v-4q-16 -3 -19 -14q-41 0 -62.5 4.5t-50.5 23.5q-10 -9 -20 -26l-12 10q22 19 28 24zM31 62.5q-1 16.5 -9 38.5l2 2q28 -30 18 -43.5t-11 3zM84 165l12 -17h-33v-27h13l11 9l14 -16h-38v-51q13 19 22 42l15 -13l-6 -2q-16 -19 -31 -34v-10l38 9l1 -4q-58 -20 -79 -31
l-10 17q19 2 38 8v69q-19 1 -29 -3l-9 10h38v27h-3q-8 0 -17 -2l-6 9h47zM12 140l-2 2q31 53 46 104l17 -12l-6 -4l-6 -13q25 -11 31.5 -16.5t2.5 -16.5t-10.5 0.5t-24.5 29.5q-10 -23 -23.5 -44.5t-24.5 -29.5z" />
  </g>

</svg>
