<?xml version="1.0" standalone="no"?>
<!DOCTYPE svg PUBLIC "-//W3C//DTD SVG 1.1//EN" "http://www.w3.org/Graphics/SVG/1.1/DTD/svg11.dtd" >
<svg xmlns="http://www.w3.org/2000/svg" xmlns:xlink="http://www.w3.org/1999/xlink" version="1.1" viewBox="0 -205 1024 1024">
  <g transform="matrix(1 0 0 -1 0 819)">
   <path fill="currentColor"
d="M918 754l54 -44q8 -3 8 -12q1 -3 -34 -24v-344q1 -105 -10 -158q-11 -50 -34 -81q-24 -31 -84 -56q-10 46 -46 62t-90 34l6 19q68 -17 116 -25q48 -6 70 33q21 41 22 158v374h-128q-4 -173 -22 -286q-19 -111 -80 -210q-59 -98 -190 -183l-10 12q132 117 174 211
q42 93 58 192q15 96 16 264h-44q-31 1 -50 -10l-26 38h120v254l80 -30q15 -3 12 -12q0 -3 -38 -20v-192h118l32 36v0v0zM320 374q-63 -47 -194 -106l-10 16q138 75 258 198q50 -38 52 -46q0 -8 -2 -10q-4 0 -22 -2q-17 -3 -82 -50v0v0zM326 113q-115 -48 -274 -78l-2 18
q162 46 286 105q123 60 180 130q56 -45 58 -54q0 -6 -6 -8q-7 -3 -20 -2q-12 1 -60 -30q-48 -33 -162 -81v0v0zM42 930h206l34 32l48 -40q8 -6 8 -12q1 -6 -28 -24v-206l4 -46q0 -15 -18 -26q-16 -10 -34 -10v144q-91 -72 -116 -96q-25 -21 -52 -60l-48 42l216 142v134h-150
q-33 -3 -48 -8l-22 34v0v0zM352 262q-102 -64 -272 -123l-6 17q216 93 366 228q53 -42 56 -50q2 -6 -4 -8q-7 -3 -22 -2q-16 0 -118 -62v0v0zM346 932h174l34 32l48 -36q8 -6 8 -12q1 -6 -28 -24v-196l4 -50q0 -15 -18 -26q-16 -10 -34 -10v134q-75 -57 -92 -72
q-16 -15 -46 -54l-44 44l182 108v136h-118q-33 -3 -48 -8l-22 34v0v0zM76 846l8 10q46 -19 68 -34q21 -16 30 -34q9 -16 0 -32q-7 -16 -22 -16q-16 -1 -22 16q-6 18 -14 36q-9 18 -48 54v0v0zM356 856l8 10q38 -18 62 -36q21 -16 30 -34q6 -16 -2 -32q-6 -15 -24 -14
q-17 0 -22 22q-6 18 -14 36q-7 18 -38 48v0v0zM360 572q83 -28 146 -62q60 -33 82 -60q20 -26 14 -46q-7 -20 -26 -22q-17 -3 -40 30q-24 30 -66 70q-42 36 -126 78q-78 -73 -156 -130q-78 -56 -152 -88l-8 14q76 48 146 106q69 55 162 170q63 -30 64 -36q3 -3 0 -6
q0 -2 -12 -4q-11 -1 -28 -14v0v0z" />
  </g>

</svg>
