<?xml version="1.0" standalone="no"?>
<!DOCTYPE svg PUBLIC "-//W3C//DTD SVG 1.1//EN" "http://www.w3.org/Graphics/SVG/1.1/DTD/svg11.dtd" >
<svg xmlns="http://www.w3.org/2000/svg" xmlns:xlink="http://www.w3.org/1999/xlink" version="1.1" viewBox="0 -52 256 256">
  <g transform="matrix(1 0 0 -1 0 204)">
   <path fill="currentColor"
d="M155 252l22 -9q3 -1 2 -3q-5 -2 -8 -5v-40h44l8 10l17 -13q4 -2 -2 -2h-59q2 -2 6 -7q4 -4 6 -7q18 -17 50 -22q3 -1 5 -1v-3h-2q-12 -1 -15 -8q-28 10 -42 27q-1 1 -3 4q-7 10 -10 17h-3v-36l1 -14q1 -9 -13 -11q1 4 1 19q1 11 1 18v24h-6q-8 -13 -14 -21
q-18 -21 -48 -32l-1 3q25 15 40 32q5 6 12 18h-21q-7 0 -11 -3l-9 8h58v42q0 5 -8 12zM193 143l22 -9q3 0 2 -2q-6 -3 -8 -6v-14h12l6 8l16 -11q4 -2 -2 -2h-32v-43h19l5 9l15 -10q2 -2 2 -3t-3 -1h-38v-26l1 -14q1 -8 -12 -11q1 4 1 17q1 11 1 16v18h-27l-4 -7l-13 9
q6 3 8 9l4 18q3 5 -2 9l2 2l14 -7q6 -1 3 -3q-6 -1 -9 -5l-4 -20h28v43h-13q-7 0 -11 -3l-9 8h33v17q0 4 -9 11zM163 108q-6 1 -9 -11l-3 -6q-3 -8 -5 -13q-12 -31 -35 -46q-15 -10 -40 -22l-1 4q21 12 29 19q2 2 6 5q3 2 11 8q19 19 30 63h-26q-6 -12 -12 -22q8 -3 11 -8
q9 -12 1 -18q-4 -1 -5 4q0 6 -3 11q-3 4 -7 8q-6 -9 -20 -19l-2 2q19 20 30 47q0 1 1 4q4 9 3 12q0 3 -2 6l2 2l20 -9q1 -2 -2 -2q-5 1 -8 -5l-3 -6q-1 -1 -1 -2h20l7 8l14 -11l1 -2q-1 -1 -2 -1zM202 240l17 -9q5 -3 2 -4q-6 0 -10 -2q-15 -18 -25 -27l-4 1l11 16
q9 15 9 18q1 3 -2 6zM111 235l2 3q24 -13 27 -23q5 -13 -4 -15q-4 0 -5 7q0 7 -5 13q-4 6 -15 15zM23 158h51l6 8l14 -10q2 -1 2 -2q-1 -1 -4 -1h-31v-42h18l5 8l14 -11q5 -2 -1 -2h-36v-64q10 6 31 17q5 3 8 5l3 -3q-18 -11 -28 -20q-10 -5 -13 -9q-1 -3 -6 -11l-14 12
q6 3 9 8v65h-23q-6 0 -11 -4l-9 9h43v42h-8q-7 0 -12 -3zM62 241q2 -1 -2 -3q-3 1 -6 -5q-4 -16 -10 -31h34l6 8l14 -10q2 -1 2 -2q-1 -1 -4 -1h-54q-1 -2 -2 -6l-3 -6q-10 -22 -30 -45l-2 2q17 27 24 43l6 18q4 11 6 17q0 2 1 5q4 13 3 16q0 2 -3 5l2 2z" />
  </g>

</svg>
