<?xml version="1.0" standalone="no"?>
<!DOCTYPE svg PUBLIC "-//W3C//DTD SVG 1.1//EN" "http://www.w3.org/Graphics/SVG/1.1/DTD/svg11.dtd" >
<svg xmlns="http://www.w3.org/2000/svg" xmlns:xlink="http://www.w3.org/1999/xlink" version="1.1" viewBox="0 -120 1000 1000">
  <g transform="matrix(1 0 0 -1 0 880)">
   <path fill="currentColor"
d="M337 80q44 40 61 59q95 98 103 284h-89l-5 -77l-60 -8l22 336l66 -50h73v149h-157l-13 27h170v162l69 -12q21 -3 21 -13q0 -8 -17 -16l-14 -6v-115h91v162l73 -14q15 -3 15 -12q0 -7 -15 -15l-16 -8v-113h85l24 43l68 -46q15 -10 15 -16q0 -7 -17 -13l-20 -8v-203l-59 -9
v49h-96v-147h140l24 40l66 -46q14 -10 14 -16t-16 -11l-16 -6q1 -19 1 -28q0 -107 -25 -150q-18 -30 -48 -47q-27 -16 -49 -16q-12 0 -11 16q0 11 -3 18q-3 5 -21 11l-37 12v18h101q19 29 23 64q8 64 8 100q0 3 -1 14h-150v-350l-57 -9v359h-97q-11 -101 -33 -156
q-48 -120 -178 -203zM414 450h90q4 73 4 147h-84zM567 597q-1 -89 -5 -147h96v147h-91zM567 773v-149h91v149h-91zM715 773v-149h96v149h-96zM62 853l-13 27h235l41 57l80 -63v-21h-132v-719q0 -30 -19 -45q-16 -11 -45 -22q-24 -10 -29 -10q-6 0 -7 12q-4 30 -8 32
q-6 4 -22 8l-68 16v15h133v713h-146z" />
  </g>

</svg>
