<?xml version="1.0" standalone="no"?>
<!DOCTYPE svg PUBLIC "-//W3C//DTD SVG 1.1//EN" "http://www.w3.org/Graphics/SVG/1.1/DTD/svg11.dtd" >
<svg xmlns="http://www.w3.org/2000/svg" xmlns:xlink="http://www.w3.org/1999/xlink" version="1.1" viewBox="0 -205 1024 1024">
  <g transform="matrix(1 0 0 -1 0 819)">
   <path fill="currentColor"
d="M800 698l26 34l50 -36q13 -8 14 -16q0 -6 -32 -26v-172l4 -78q0 -13 -18 -26q-18 -10 -36 -10v44h-156v-142h232l34 44l60 -54q3 -3 4 -8q0 -10 -14 -10h-316v-98l4 -89q1 -14 -22 -26q-21 -12 -38 -16l4 135v94h-220q-27 3 -68 -8l-18 36h306v142h-146v-26
q0 -14 -20 -28q-21 -13 -36 -10l4 108v274l46 -32h352v0v0zM454 436h354v104h-354v-104v0v0zM454 566h354v106h-354v-106v0v0zM326 868h170v122l78 -28q15 -9 -2 -18l-24 -12v-64h178v118l72 -30q19 -7 2 -16l-22 -12v-60h100l36 42l54 -52q3 -3 4 -6q1 -10 -12 -10h-182
v-34l4 -38q1 -15 -18 -26q-21 -12 -42 -12l4 64v46h-178v-54l4 -20q1 -15 -22 -26q-22 -12 -38 -12l4 60v52h-86q-24 0 -60 -8l-24 34v0v0zM178 980l82 -30q12 -7 0 -16l-32 -12v-138q55 -24 86 -44q30 -19 40 -40q7 -22 2 -40q-6 -19 -26 -20q-18 0 -26 22q-6 20 -20 46
q-15 24 -56 54v-594l4 -111q0 -11 -18 -26q-17 -14 -40 -16l4 161v804v0v0zM102 730h18q1 -81 0 -120q0 -39 -18 -66q-16 -25 -38 -26q-22 0 -28 16q-6 14 6 28l22 30t20 46q9 28 18 92v0v0z" />
  </g>

</svg>
