<?xml version="1.0" standalone="no"?>
<!DOCTYPE svg PUBLIC "-//W3C//DTD SVG 1.1//EN" "http://www.w3.org/Graphics/SVG/1.1/DTD/svg11.dtd" >
<svg xmlns="http://www.w3.org/2000/svg" xmlns:xlink="http://www.w3.org/1999/xlink" version="1.1" viewBox="0 -205 1024 1024">
  <g transform="matrix(1 0 0 -1 0 819)">
   <path fill="currentColor"
d="M50 844h322v134l82 -32q6 -2 4 -10q1 -4 -34 -22v-70h188v134l82 -30q3 -7 4 -10q-1 -3 -34 -24v-70h202l36 60l66 -66q3 -4 4 -10q1 -12 -16 -12h-292v-30l4 -36q-3 -15 -24 -24t-36 -8l4 62v36h-188v-16l2 -50q-1 -14 -22 -22q-18 -6 -36 -6l4 68v26h-238q-21 0 -68 -8
l-16 36v0v0zM234 738l64 -44h436l34 44l64 -48q6 -6 6 -8q0 -6 -32 -32v-196l6 -70q-1 -10 -22 -22q-21 -9 -36 -12v40h-208v-116h328l40 56l74 -62q3 -4 4 -10q0 -12 -12 -12h-434v-107l4 -78q2 -14 -22 -28q-24 -15 -42 -12l4 119v106h-374q-21 0 -68 -8l-16 36h458v116
h-202v-20q-1 -12 -22 -24q-18 -9 -36 -8l4 96v304v0v0zM288 418h466v112h-466v-112v0v0zM288 558h466v108h-466v-108v0v0z" />
  </g>

</svg>
