<?xml version="1.0" standalone="no"?>
<!DOCTYPE svg PUBLIC "-//W3C//DTD SVG 1.1//EN" "http://www.w3.org/Graphics/SVG/1.1/DTD/svg11.dtd" >
<svg xmlns="http://www.w3.org/2000/svg" xmlns:xlink="http://www.w3.org/1999/xlink" version="1.1" viewBox="0 -36 256 256">
  <g transform="matrix(1 0 0 -1 0 220)">
   <path fill="currentColor"
d="M98 24l-15 -6q1 24 1 38q-28 -5 -32 -9l-10 15q13 0 42 4v24h-11l-11 -3l-10 10h32v23h-17l-11 -3l-10 10h38q0 14 -1 31l20 -8l-6 -7v-16h10l10 9l16 -16h-36v-23h6l10 8l16 -15h-32v-23q15 1 33 4l1 -5q-18 -4 -34 -7q0 -28 1 -35zM190 135l7 10l15 -12l-7 -6
q-3 -66 -6 -74.5t-7.5 -13.5t-13.5 -9q-7 14 -24 17v5q24 -4 28.5 1t6 19t2.5 56h-24q-3 -66 -46 -97l-3 3q33 33 36 94h-8l-8 -2l-9 9h61zM141 240l15 -8h62l8 11l15 -11l-8 -9v-190q0 -20 -22 -26q-3 15 -29 20v4q24 -2 30.5 -1.5t6.5 10.5v125h-64v-4l-14 -4v83zM155 202
h64v23h-64v-23zM155 195v-23h64v23h-64zM38 232h61l7 11l16 -13l-7 -8v-26q0 -15 1 -33l-15 -6v8h-64v-150l-15 -8q1 20 1 43v145q0 23 -1 45zM37 195v-23h64v23h-64zM37 225v-23h64v23h-64z" />
  </g>

</svg>
