<?xml version="1.0" standalone="no"?>
<!DOCTYPE svg PUBLIC "-//W3C//DTD SVG 1.1//EN" "http://www.w3.org/Graphics/SVG/1.1/DTD/svg11.dtd" >
<svg xmlns="http://www.w3.org/2000/svg" xmlns:xlink="http://www.w3.org/1999/xlink" version="1.1" viewBox="0 -205 1024 1024">
  <g transform="matrix(1 0 0 -1 0 819)">
   <path fill="currentColor"
d="M728 590q7 -6 2 -14l-18 -2q-15 0 -26 -26q-11 -24 -34 -78h248l38 46l54 -50q5 -4 8 -10q0 -12 -14 -12h-138q-33 -144 -84 -216q107 -36 148 -60q41 -22 56 -41t12 -38q-3 -18 -20 -24q-18 -3 -42 20q-22 24 -68 54q-45 26 -108 55q-70 -65 -160 -107q-91 -41 -190 -58
l-2 18q102 31 180 74q75 38 126 91q-115 40 -176 62q24 58 70 170h-72q-18 0 -54 -8l-18 34h152q41 101 62 158l68 -38v0v0zM566 284q80 -24 152 -44q49 69 80 204h-158l-74 -160v0v0zM914 874q-18 -1 -134 -20q-117 -18 -306 -36l-2 18q168 30 288 58q119 26 166 46l50 -54
q7 -11 -10 -16q-32 6 -52 4v0v0zM674 816q75 -70 88 -106t2 -56q-10 -22 -32 -20q-20 0 -22 28q0 26 -6 56q-4 27 -44 90l14 8v0v0zM884 838q76 -36 74 -42q-1 -7 -4 -8l-12 -4q-6 -1 -20 -10q-13 -10 -40 -58q-26 -47 -94 -154l-16 10q47 104 112 266v0v0zM512 776
q92 -71 104 -106q12 -36 0 -54q-12 -19 -30 -16q-19 2 -22 22t-14 56q-10 36 -52 90l14 8v0v0zM42 548q81 129 136 252q54 122 64 170l72 -30q4 -6 0 -12q-5 -3 -16 -6q-9 -4 -20 -22q72 -37 102 -56q27 -18 40 -42q10 -24 2 -42q-10 -19 -28 -16q-18 2 -26 26
q-10 24 -28 48q-19 24 -74 64q-39 -79 -80 -154q-39 -75 -128 -192l-16 12v0v0zM160 664h182l30 40l52 -50q6 -12 -2 -18h-142v-126h68l32 38l48 -46q15 -12 0 -20h-148v-298l166 46l4 -20q-119 -42 -184 -62q-64 -17 -106 -39q-42 -18 -66 -42l-42 60l180 47v308h-94
q-21 0 -56 -8l-16 36h166v126h-32l-20 -6l-20 34v0v0zM88 420l12 10q50 -46 70 -76t22 -60q1 -29 -16 -40q-16 -10 -28 -4q-13 6 -14 28q0 22 -6 56q-7 34 -40 86v0v0zM296 266q51 87 94 168l58 -38q3 -9 -2 -12q-7 -3 -22 -8q-13 -4 -40 -34q-25 -30 -76 -86l-12 10v0v0z
" />
  </g>

</svg>
