<?xml version="1.0" standalone="no"?>
<!DOCTYPE svg PUBLIC "-//W3C//DTD SVG 1.1//EN" "http://www.w3.org/Graphics/SVG/1.1/DTD/svg11.dtd" >
<svg xmlns="http://www.w3.org/2000/svg" xmlns:xlink="http://www.w3.org/1999/xlink" version="1.1" viewBox="0 -36 256 256">
  <g transform="matrix(1 0 0 -1 0 220)">
   <path fill="currentColor"
d="M201 179.5q3 1.5 5.5 9.5t5.5 35h-54q-6 -25 -19 -44t-49 -38l-2 4q45 29 54 78h-9q-11 0 -20 -2l-9 9h107l8 11l15 -12l-7 -7q-4 -35 -7.5 -42.5t-8 -12.5t-14.5 -8q-2 14 -24 19v4q25 -5 28 -3.5zM135 106h72v38h-72v-38zM121 123q0 18 -1 35l16 -7h70l6 10l15 -10
l-6 -8v-46l-14 -5v7h-72v-5l-15 -5q1 16 1 34zM160 97l22 -10l-7 -7v-13h28l10 11l18 -18h-56v-34h43l12 11l18 -18h-133q-10 -1 -20 -3l-9 10h75v34h-28q-11 0 -20 -2l-9 9h57q0 5 -1 30zM22 9q1 42 1 119t-1 107l16 -9h38l7 9l15 -13l-6 -5q-13 -23 -28 -52q16 -13 23 -26
t5.5 -25.5t-8.5 -19.5t-22 -11q-1 13 -21 18v4q12 -2 23 -2.5t13 8t-0.5 21.5t-19.5 33l20 54h-40v-202z" />
  </g>

</svg>
