<?xml version="1.0" standalone="no"?>
<!DOCTYPE svg PUBLIC "-//W3C//DTD SVG 1.1//EN" "http://www.w3.org/Graphics/SVG/1.1/DTD/svg11.dtd" >
<svg xmlns="http://www.w3.org/2000/svg" xmlns:xlink="http://www.w3.org/1999/xlink" version="1.1" viewBox="0 -200 1000 1000">
  <g transform="matrix(1 0 0 -1 0 800)">
   <path fill="currentColor"
d="M383 819v-500q0 -109 -12 -140q-13 -38 -40 -63q-24 -24 -92 -38q3 30 -33 45q-2 1 -9 4q-21 8 -47 18l4 15q51 -11 82 -14h3q15 -2 38 3q21 3 42 31t21 118v532h-123q2 -301 -12 -430q-17 -146 -63 -222q-51 -85 -117 -131l-5 10q64 71 99 149q27 59 43 182
q14 109 12 442h-59q-27 1 -39 -14l-35 34h284l33 39l45 -39q8 -6 8 -10t-8 -8zM973 656v-12q-54 2 -65 -29q-69 47 -109 91q-38 39 -78 96q-30 39 -55 82q-46 -90 -91 -156q-53 -77 -165 -157l-8 10q143 133 212 289q31 71 25 74q-3 10 -13 25l8 6l83 -37q2 -3 1 -5t-6 -2
q-18 2 -32 -21l-1 -1q0 -1 -1 -2q17 -24 51 -69q5 -6 7 -9q73 -92 128 -126q46 -31 109 -47zM614 302q7 -6 1 -9q-15 -2 -34 -13v-144q-6 -69 55 -65q64 -3 119 1q41 3 48 38q6 35 7 89v20h16v-38q0 -80 27 -90q-22 -34 -47 -43q-20 -10 -85 -9q-8 0 -23 -1q-32 -1 -69 0
q-95 -5 -89 89v169q-2 17 -21 34l7 10zM824 520l-95 -141h-42l101 159h-262q-20 -1 -32 -11l-31 31h311l36 40l47 -47q6 -6 7 -9q0 -3 -5 -4q-23 -1 -35 -18zM850 279l7 12q67 -54 88 -94q21 -36 23 -62q2 -25 -6 -37q-7 -15 -23 -12q-15 3 -15 30q0 25 -11 63
q-10 34 -63 100zM473 272q2 -101 -8 -137q-10 -37 -27 -50q-38 -25 -48 10q-1 15 14 25q16 10 28 34q11 26 24 120zM621 391l8 11q63 -42 83 -72q21 -29 23 -52q6 -50 -28 -49q-17 0 -16 27q1 24 -11 56q-14 30 -59 79zM609 729l10 11q91 -54 103 -89q18 -48 -17 -52
q-16 1 -19 23q-4 23 -21 48q-16 25 -56 59z" />
  </g>

</svg>
