<?xml version="1.0" standalone="no"?>
<!DOCTYPE svg PUBLIC "-//W3C//DTD SVG 1.1//EN" "http://www.w3.org/Graphics/SVG/1.1/DTD/svg11.dtd" >
<svg xmlns="http://www.w3.org/2000/svg" xmlns:xlink="http://www.w3.org/1999/xlink" version="1.1" viewBox="0 -205 1024 1024">
  <g transform="matrix(1 0 0 -1 0 819)">
   <path fill="currentColor"
d="M390 382h-208v-229h208v229zM205 810q-8 -11 -12 -21q35 -64 81 -116q17 -19 36 -37q45 68 75 174h-180zM134 355q-1 36 -5 82q-2 12 2 13q3 1 10 -6q12 -13 36 -31h193q6 0 9 4l18 28q7 8 14 1q29 -19 57 -41q9 -8 8 -12q-2 -5 -9 -9q-26 -12 -27 -19q-2 -6 -2 -13v-188
q0 -36 6 -97q1 -11 -5 -12q-43 -15 -47 -14q-2 1 -2 11v70h-208v-51q0 -8 -6 -9q-20 -8 -39 -17q-9 -3 -8 12q4 63 5 210v88zM561 484q-2 -3 -7 -4q-15 -3 -33 -10q-22 -9 -35 -25q-7 -6 -17 3q-94 64 -155 125q-33 -33 -75 -61q-70 -47 -172 -81q-21 -5 -22 10q-2 15 16 19
q71 26 135 69q55 38 89 75q-5 7 -9 11q-58 65 -95 152q-9 -13 -16 -28q-31 -50 -80 -110q-10 -10 -17 -4q-8 7 1 17q54 75 96 183q42 107 43 141q2 17 18 7q38 -23 53 -33q12 -9 11 -13q0 -5 -13 -6q-12 -3 -16 -7q-8 -8 -27 -48q-6 -12 -12 -25h142q13 0 17 3l27 34
q4 8 10 8t10 -6q31 -30 56 -57q3 -7 -1 -8q-35 -15 -42 -24q-5 -7 -17 -38q-32 -85 -78 -145l-2 -2q29 -24 62 -45q69 -44 136 -60q14 -1 19 -6v321q0 51 -7 85q-2 10 2 14q5 3 18 -9q18 -16 39 -29h66q16 60 19 121q21 -12 43 -16t29 -8q5 -5 1 -6q-33 -13 -69 -91h91
q11 1 15 5l23 32q6 10 15 0q37 -30 59 -52q5 -6 -2 -10q-12 -3 -18 -9q-14 -5 -14 -98q-1 -148 -22 -178q-32 -37 -75 -55q-8 -4 -8 2q-4 23 -16 33q-15 12 -63 24q-15 2 -14 12q2 10 14 7q103 -10 118 6q17 18 17 120q0 84 1 130h-214v-373h256q11 1 15 5l23 32q6 10 15 0
q37 -30 59 -54q6 -7 -3 -10q-21 -9 -28 -16q-3 -4 -3 -11q-12 -208 -20 -265q-17 -72 -98 -106q-7 -2 -8 2q-3 23 -16 33q-14 12 -72 24q-15 2 -14 12q2 10 14 7q114 -11 129 7q22 19 28 148q5 103 9 161h-267q-27 -23 -37 -41q-8 -10 -15 0q-18 22 -34 35q-8 7 1 13
q14 8 15 12q3 4 3 14v9zM731 324l36 41q7 7 14 0q26 -26 44 -48q11 -14 4 -24q-5 -6 -18 -7h-215q-42 -1 -73 -7q-8 -3 -11 6q-4 18 -19 30q-7 7 -4 11q4 3 11 -1q38 -8 84 -8h135q6 0 12 7zM664 781q6 9 19 -1q78 -50 78 -74q-1 -24 -16 -37q-16 -13 -22 -13q-6 1 -12 22
q-19 60 -44 88q-7 8 -3 15z" />
  </g>

</svg>
