<?xml version="1.0" standalone="no"?>
<!DOCTYPE svg PUBLIC "-//W3C//DTD SVG 1.1//EN" "http://www.w3.org/Graphics/SVG/1.1/DTD/svg11.dtd" >
<svg xmlns="http://www.w3.org/2000/svg" xmlns:xlink="http://www.w3.org/1999/xlink" version="1.1" viewBox="0 -36 256 256">
  <g transform="matrix(1 0 0 -1 0 220)">
   <path fill="currentColor"
d="M227 162q0 -20 1 -38l-14 -8v10h-84v-5l-14 -7q1 26 1 52.5t-1 54.5l16 -9h20q5 14 9 34l18 -10q-8 -4 -22 -24h55l9 10l14 -15l-8 -5v-40zM130 172h84v33h-84v-33zM130 133h84v32h-84v-32zM170 85q-14 -55 -80 -77l-1 4q30 14 45.5 32t21.5 41h-30q-10 0 -19 -2l-9 9h59
q4 17 4 32l20 -9l-6 -6q-2 -10 -4 -17h46l12 11l14 -18h-73zM239 24.5q-3 -22.5 -15.5 -2t-61.5 47.5l2 4q78 -27 75 -49.5zM41 97q14 -5 28 -11q12 28 17 83q-15 -2 -28 -4q-4 -15 -17 -68zM69 223q-3 -13 -9 -47q13 0 26 2q1 11 0 22l17 -8q-3 -4 -4 -13h12l1 -5
q-9 -2 -13 -3q-3 -30 -6.5 -48t-12.5 -42q16 -11 21.5 -18.5t2 -17t-10 0.5t-19.5 22q-22 -39 -62 -57l-1 3q38 28 53 61q-15 11 -37 19q9 32 17 69q-16 -3 -25 -6l-6 16q19 0 34 2q8 45 9 65l18 -10z" />
  </g>

</svg>
