<?xml version="1.0" standalone="no"?>
<!DOCTYPE svg PUBLIC "-//W3C//DTD SVG 1.1//EN" "http://www.w3.org/Graphics/SVG/1.1/DTD/svg11.dtd" >
<svg xmlns="http://www.w3.org/2000/svg" xmlns:xlink="http://www.w3.org/1999/xlink" version="1.1" viewBox="0 -36 256 256">
  <g transform="matrix(1 0 0 -1 0 220)">
   <path fill="currentColor"
d="M154 186h66l7 11l18 -16q-15 -5 -33 -33l-3 2l11 29h-68q-14 -32 -31 -55l-3 2q16 33 24 67t11 54l21 -10l-7 -7q-3 -11 -13 -44zM189 154l-8 -8q8 -54 26 -83t40 -37v-4q-15 1 -23 -10q-24 27 -34 56t-13 65q-6 -50 -25.5 -80t-55.5 -46l-1 3q34 21 50.5 57t19.5 98z
M31 181q0 19 -1 39l15 -7q15 2 35 8t33 14l13 -17q-12 -1 -37.5 -5t-43.5 -6v-48h49l13 12l17 -19h-31v-86l33 11l1 -6q-91 -36 -104 -45l-13 17l21 6v132zM79 63v89h-34v-99q14 4 34 10z" />
  </g>

</svg>
