<?xml version="1.0" standalone="no"?>
<!DOCTYPE svg PUBLIC "-//W3C//DTD SVG 1.1//EN" "http://www.w3.org/Graphics/SVG/1.1/DTD/svg11.dtd" >
<svg xmlns="http://www.w3.org/2000/svg" xmlns:xlink="http://www.w3.org/1999/xlink" version="1.1" viewBox="0 -52 256 256">
  <g transform="matrix(1 0 0 -1 0 204)">
   <path fill="currentColor"
d="M73 173l9 -7h90l5 8l13 -10l1 -1q-1 -1 -3 -2l-4 -3v-10v-6q0 -5 -3 -7t-7 -2v7h-91q0 -1 -1 -3v-1q-3 -3 -10 -4q0 3 1 6q0 5 1 7v18q0 5 -4 8zM79 112l8 -7h80l6 7l11 -8q2 -2 1 -3q0 -1 -3 -2l-4 -2v-6l1 -7q-1 -5 -3 -7q-3 -2 -8 -2v5h-80q0 -2 -1 -5l-1 -1
q-2 -1 -8 -3q1 7 1 22v8q0 5 -3 8zM118 73l19 -9q3 -1 2 -3q-4 0 -7 -4v-9h59l7 9l16 -11q2 -2 1 -2q0 -1 -3 -1h-80v-21h83l6 9l16 -11q4 -2 -1 -2h-196q-6 0 -11 -3l-8 7h101v21h-59q-6 2 -11 -3l-8 8h78v11q0 5 -6 11zM36 136l11 -11h158l8 11l12 -11q2 -1 2 -3
q0 -1 -2 -2l-5 -3v-34q0 -5 -3 -11q-4 -5 -15 -6q-2 5 -4 6q-3 2 -16 5v2q5 0 12 -1q6 -1 8 -1q3 0 6 1q1 3 1 20v22h-161v-30l1 -12q0 -6 -3 -9q-1 0 -4 -2q-4 -1 -6 -2q1 4 1 11q1 7 1 11v36q0 1 -1 2q-2 6 -5 8zM174 162h-90v-18h90v18zM168 101h-79v-17h79v17zM18 224
h58v13q1 4 -7 11l3 3l22 -8q3 -1 1 -3q-5 -2 -8 -5v-11h17l8 10l17 -12q4 -2 -2 -2h-40v-5l1 -9q0 -5 -4 -8l-1 -1q-4 -2 -8 -2v9q1 8 1 13v3h-40q-2 0 -6 -2q-3 -2 -4 -2zM172 236q0 4 -7 11l2 3l22 -8q2 -1 2 -2l-1 -1q-5 -2 -7 -5v-9h34l8 10l17 -12q2 -1 2 -2
q-1 -1 -3 -1h-58v-7v-9q0 -5 -3 -7q-3 -3 -10 -4q1 3 1 11q1 8 1 12v4h-19q-2 0 -6 -2q-3 -2 -4 -2l-9 9h38v11zM23 184h182l8 11l17 -13q4 -2 -2 -2h-185q-6 0 -11 -4zM106 205l1 3q6 -1 15 -3q2 -1 3 -1q2 -1 5 -3q4 -2 5 -3q4 -6 3 -8q0 -4 -4 -5q-6 0 -6 4l-1 1
q0 2 -4 7q-3 3 -14 7q9 -3 -3 1z" />
  </g>

</svg>
