<?xml version="1.0" standalone="no"?>
<!DOCTYPE svg PUBLIC "-//W3C//DTD SVG 1.1//EN" "http://www.w3.org/Graphics/SVG/1.1/DTD/svg11.dtd" >
<svg xmlns="http://www.w3.org/2000/svg" xmlns:xlink="http://www.w3.org/1999/xlink" version="1.1" viewBox="0 -36 256 256">
  <g transform="matrix(1 0 0 -1 0 220)">
   <path fill="currentColor"
d="M196 151l11 10l17 -17h-47q-10 0 -19 -3l-9 10h47zM219.5 24q3.5 1 3.5 8v38h-16q0 -31 1 -40l-13 -5q1 10 1 45h-16q0 -37 1 -42l-14 -5q1 11 1 47h-16v-56l-14 -7q1 26 1 60t-1 61l15 -7h69l8 10l12 -13l-6 -5v-84q1 -15 -14 -21q1 10 -15 13v4q9 -2 12.5 -1zM190 225
q26 -53 57 -67v-4q-9 0 -15 -8q-29 22 -45 75q-20 -56 -57 -86l-2 3q21 27 33.5 53.5t17.5 53.5l19 -12zM152 77h16v37h-16v-37zM180 77h16v37h-16v-37zM207 77h16v37h-16v-37zM139 229q-8 -31 -15 -53v-134q0 -17 1 -29l-14 -6q1 20 1 32v115q-7 -15 -17 -24l-2 2
q15 28 24 62t9 51l19 -11zM31 62.5q-3 14.5 -15 35.5l2 2q15 -11 22 -20.5t0.5 -20.5t-9.5 3.5zM83 169l13 -17h-32v-28h16l10 9l12 -16h-38v-53q12 17 22 43l15 -14l-8 -4q-14 -16 -29 -32v-11l37 8v-4q-54 -19 -80 -30l-8 17q18 2 39 8v72q-19 1 -29 -3l-7 10h36v28h-2
q-9 1 -17 -3l-6 10h45zM10 137l-2 1q31 53 44 109l18 -10l-6 -5l-3 -9q20 -9 29 -16t4.5 -18t-10.5 0t-25 30q-11 -30 -24.5 -51.5t-24.5 -30.5z" />
  </g>

</svg>
