<?xml version="1.0" standalone="no"?>
<!DOCTYPE svg PUBLIC "-//W3C//DTD SVG 1.1//EN" "http://www.w3.org/Graphics/SVG/1.1/DTD/svg11.dtd" >
<svg xmlns="http://www.w3.org/2000/svg" xmlns:xlink="http://www.w3.org/1999/xlink" version="1.1" viewBox="0 -36 256 256">
  <g transform="matrix(1 0 0 -1 0 220)">
   <path fill="currentColor"
d="M41 115q-10 0 -19 -2l-9 9h107q0 96 -1 124l24 -8l-9 -7v-109h76l15 12l18 -19h-84v-66q-2 -23 13 -21h42q8 0 10.5 9.5t2.5 31.5h4q0 -15 3 -25.5t11 -12.5q-6 -14 -28 -14h-52q-21 -1 -20 21v77h-39q-1 -39 -18.5 -66t-72.5 -41l-1 4q47 19 62 43.5t14 59.5h-49z
M78 188l3 1q21 -23 25 -32.5t-3 -15t-8.5 1.5t-3.5 13q-50 -9 -57 -15l-9 16q7 3 12.5 11.5t13 27t9.5 35.5l23 -11l-8 -5q-15 -31 -34 -56l48 4q-2 6 -11 25zM200 186l4 2q19 -23 23 -32t-2.5 -14t-8.5 0t-5 15q-49 -10 -56 -16l-9 15q5 1 11 11.5t14.5 32t9.5 32.5l23 -11
l-9 -5q-14 -31 -33 -58l47 5q-2 7 -9 23z" />
  </g>

</svg>
