<?xml version="1.0" standalone="no"?>
<!DOCTYPE svg PUBLIC "-//W3C//DTD SVG 1.1//EN" "http://www.w3.org/Graphics/SVG/1.1/DTD/svg11.dtd" >
<svg xmlns="http://www.w3.org/2000/svg" xmlns:xlink="http://www.w3.org/1999/xlink" version="1.1" viewBox="0 -205 1048 1024">
  <g transform="matrix(1 0 0 -1 0 819)">
   <path fill="currentColor"
d="M476 844l62 -34h260l29 40l54 -40q23 -18 17 -25q-5 -5 -34 -7v-340l1 -26q1 -20 -2 -26q-4 -11 -21 -17q-22 -3 -26 2q-4 4 -3 23l1 27h-116v-170l1 -19q2 -19 -1 -26q-5 -11 -24 -14q-21 -1 -25 4q-3 4 -2 23l1 12v190h-120v-25q1 -25 -1 -32q-4 -11 -20 -16
q-22 -2 -27 2q-4 4 -3 18l1 11v405zM528 627h120v167h-120v-167zM528 438h120v172h-120v-172zM698 438h117v172h-117v-172zM698 627h117v167h-109q22 -12 20 -17q-1 -3 -19 -7l-9 -3v-140zM339 962l61 -39h442l45 55l78 -52q12 -10 10 -14q-2 -5 -17 -5h-565v-756h481l46 54
l68 -54q11 -9 9 -14t-20 -5h-584l1 -23q2 -16 -1 -21q-5 -10 -25 -19q-21 -6 -26 1q-3 5 -2 29l1 18v751zM124 959q67 -34 95 -53q34 -24 39 -47q4 -22 -10 -32q-15 -10 -30 16q-13 19 -42 49q-26 29 -59 59zM83 728q54 -27 74 -41q33 -25 41 -55q0 -28 -14 -33
q-14 -6 -27 18q-15 27 -34 50q-23 27 -52 52l6 12zM332 899q-73 -292 -147 -556q-7 -26 -2 -69q4 -44 19 -85q11 -35 8 -64q-4 -37 -37 -42q-16 0 -26 19q-9 18 -6 48l3 30q4 32 6 51q1 31 -2 71q-4 17 -24 32q-23 17 -79 38l2 8q15 -2 36 -4q18 -2 31 -2t21 7q10 8 21 29
q16 38 64.5 175.5t102.5 315.5z" />
  </g>

</svg>
