<?xml version="1.0" standalone="no"?>
<!DOCTYPE svg PUBLIC "-//W3C//DTD SVG 1.1//EN" "http://www.w3.org/Graphics/SVG/1.1/DTD/svg11.dtd" >
<svg xmlns="http://www.w3.org/2000/svg" xmlns:xlink="http://www.w3.org/1999/xlink" version="1.1" viewBox="0 -205 1024 1024">
  <g transform="matrix(1 0 0 -1 0 819)">
   <path fill="currentColor"
d="M900 922l36 44l60 -54l2 -6q0 -10 -8 -10h-452v-222q3 -217 -26 -374q-30 -155 -126 -257l-12 8q80 132 100 279q19 146 14 334v296l64 -38h348v0v0zM592 834l58 -40h216l28 44l62 -44q6 -7 6 -10q0 -6 -32 -26v-218l4 -84q0 -12 -14 -24q-13 -12 -38 -14v46h-98v-148h82
l36 46l60 -54q3 -3 4 -6q0 -12 -12 -12h-170v-165h106l38 51l66 -59q3 -4 4 -8q0 -9 -12 -10h-406q-21 1 -44 -8l-16 34h214v165h-100q-21 0 -48 -8l-16 34h164v148h-94v-26q-1 -13 -16 -22q-12 -10 -36 -10l4 116v312v0v0zM640 490h94v134h-94v-134v0v0zM784 624v-134h98
v134h-98v0v0zM640 650h94v118h-94v-118v0v0zM784 768v-118h98v118h-98v0v0zM278 958q6 -6 4 -12q-3 -6 -18 -8q-13 -7 -20 -20q-7 -10 -26 -46h86l26 26l54 -42q12 -12 -6 -18q-34 -13 -52 -40q-18 -28 -50 -88h86l24 28l50 -36l4 -8q0 -7 -26 -28v-230l4 -68q0 -15 -18 -26
q-17 -12 -34 -12v34h-220v-18q1 -12 -18 -26q-17 -12 -34 -12l4 104v262q-27 -40 -66 -86l-14 8q38 63 88 154q51 89 108 244l64 -36v0v0zM146 390h86v138h-86v-138v0v0zM280 390h86v138h-86v-138v0v0zM146 554h86v130h-86v-130v0v0zM280 684v-130h86v130h-86v0v0zM144 710
h106l50 136h-94q-40 -70 -76 -122l14 -14v0v0zM108 290h22q3 -70 0 -112q0 -41 -18 -65q-17 -22 -40 -26q-21 -4 -32 6q-9 9 -6 24q3 12 18 24q15 10 34 39q15 29 22 110v0v0zM164 294l14 8q45 -64 54 -92q5 -28 8 -50q0 -19 -12 -35q-12 -12 -30 -6t-14 31q3 24 0 60
q-1 33 -20 84v0v0zM246 308l12 10q48 -56 64 -88q15 -30 18 -50q0 -18 -12 -31q-11 -13 -28 -8q-18 6 -18 35t-8 56q-7 24 -28 76v0v0zM330 316l10 10q56 -45 70 -66q11 -21 14 -42q3 -20 -8 -34q-10 -13 -28 -10q-18 1 -18 26q1 25 -4 50q-6 24 -36 66v0v0z" />
  </g>

</svg>
