<?xml version="1.0" standalone="no"?>
<!DOCTYPE svg PUBLIC "-//W3C//DTD SVG 1.1//EN" "http://www.w3.org/Graphics/SVG/1.1/DTD/svg11.dtd" >
<svg xmlns="http://www.w3.org/2000/svg" xmlns:xlink="http://www.w3.org/1999/xlink" version="1.1" viewBox="0 -200 1000 1000">
  <g transform="matrix(1 0 0 -1 0 800)">
   <path fill="currentColor"
d="M420 841q-33 -28 -64 -51q-37 -28 -73 -49h366l27 30l53 -44l-27 -16q-4 -44 -11 -81q-8 -37 -17 -53q-11 -22 -25 -32q-19 -12 -40 -16q-11 41 -95 53v14q35 -7 67 -7q49 0 56 22q12 36 18 106h-194q-51 -171 -289 -225l-4 11q205 79 242 214h-9q-62 0 -92 -6l-30 26
q-31 -17 -74 -39q-24 -12 -84 -38l-7 10q185 103 280 228l60 -43zM541 888q158 -46 228 -85q72 -40 72 -81q0 -19 -5 -31q-6 -10 -13 -10q-15 0 -39 33q-52 70 -246 164zM464 600l57 -48l-30 -6q197 -104 396 -104v-13q-43 -7 -57 -44q-205 40 -350 148q-159 -135 -366 -182
l-2 10q248 87 352 239zM699 257l-30 -10l-71 -77h151l50 44l61 -65h-604q-43 0 -81 -9l-30 30h316v127h-132q-42 0 -80 -9l-30 30h242v77h-34q-47 0 -81 -10l-30 30h252l37 37l53 -57h-153v-77h157l47 40l57 -61h-261v-127h73q44 74 57 127zM296 290q50 -20 69 -36
q18 -16 18 -34q0 -9 -3 -17l-8 -16q-3 -5 -10 -12q-7 -5 -9 -5q-3 0 -8 11l-12 28l-18 36q-12 22 -25 39z" />
  </g>

</svg>
