<?xml version="1.0" standalone="no"?>
<!DOCTYPE svg PUBLIC "-//W3C//DTD SVG 1.1//EN" "http://www.w3.org/Graphics/SVG/1.1/DTD/svg11.dtd" >
<svg xmlns="http://www.w3.org/2000/svg" xmlns:xlink="http://www.w3.org/1999/xlink" version="1.1" viewBox="0 -246 2048 2048">
  <g transform="matrix(1 0 0 -1 0 1802)">
   <path fill="currentColor"
d="M1079 899h549l78 92q124 -95 124 -125q0 -13 -15 -22l-53 -35v-358h-115v92h-592v-207q0 -62 47 -71q54 -14 323 -14q187 0 262 16q57 12 79 39q38 48 59 262l54 -21q0 -170 16 -219q15 -37 66 -37q0 -98 -86 -120q-114 -31 -454 -31q-390 0 -440 41q-41 38 -41 137v645
q60 -22 139 -64zM1055 848v-254h241v254h-241zM1407 848v-254h240v254h-240zM1139 1405h428l75 88q119 -94 119 -115q0 -11 -14 -20l-49 -35v-286h-117v59h-462v-76h-117v440q76 -26 137 -55zM1119 1354v-207h462v207h-462zM404 1291q42 113 72 248q188 -59 188 -96
q0 -33 -88 -33q-48 -67 -94 -119h209l67 88q117 -95 117 -123q0 -12 -14 -20l-45 -31v-535h-111v66h-354v-398q187 48 337 94q-48 99 -126 191l34 33q271 -200 271 -377q0 -84 -72 -84q-42 0 -57 86q-8 45 -29 100q-256 -118 -508 -194q-12 -74 -37 -74q-39 0 -94 168
q111 20 166 33v1041q76 -31 133 -64h35zM705 787v203h-354v-203h354zM705 1041v199h-354v-199h354zM658 1723v213q199 -3 199 -45q0 -24 -84 -55v-113h478v213q197 -3 197 -47q0 -26 -80 -53v-113h319l101 131q77 -71 135 -145l-25 -37h-530v-164h-117v164h-478v-177h-115
v177h-510l-21 51h531z" />
  </g>

</svg>
