<?xml version="1.0" standalone="no"?>
<!DOCTYPE svg PUBLIC "-//W3C//DTD SVG 1.1//EN" "http://www.w3.org/Graphics/SVG/1.1/DTD/svg11.dtd" >
<svg xmlns="http://www.w3.org/2000/svg" xmlns:xlink="http://www.w3.org/1999/xlink" version="1.1" viewBox="0 -205 1024 1024">
  <g transform="matrix(1 0 0 -1 0 819)">
   <path fill="currentColor"
d="M144 528h616l38 40l58 -52l6 -8q0 -10 -14 -8h-318v-170h326l38 54l64 -62q3 -3 6 -8q1 -12 -16 -12h-418v-142l4 -73q1 -16 -16 -32q-16 -16 -46 -20l4 123v144h-344q-21 0 -68 -8l-16 36h428v170h-248q-21 0 -68 -8l-16 36v0v0zM148 968l56 -28h608l28 32l62 -44
q3 -4 4 -8q0 -6 -32 -26v-214l4 -60q0 -13 -20 -26q-18 -11 -42 -16l4 92v244h-618v-238l4 -74q0 -14 -20 -28q-18 -12 -42 -14l4 112v296v0v0zM368 784q44 57 70 108q60 -37 60 -44q-1 -7 -8 -10q-6 0 -18 -6q-9 -4 -20 -16q-12 -11 -54 -58q39 -31 58 -50q18 -19 22 -38
q3 -19 -6 -32q-6 -13 -24 -14q-16 0 -22 22q-7 20 -22 40q-13 20 -34 40q-76 -76 -136 -124l-10 14q54 57 120 138q-48 51 -108 106l8 10q51 -30 124 -86v0v0zM656 786q44 57 70 108q60 -37 60 -44q-1 -7 -8 -10q-6 0 -18 -6q-9 -3 -20 -14q-9 -9 -54 -60q39 -31 58 -50
q18 -19 22 -38q3 -19 -6 -32q-6 -13 -24 -14q-16 0 -22 22q-7 20 -22 40q-13 20 -34 40q-77 -77 -136 -124l-10 14q51 54 120 138q-48 51 -108 106l8 10q51 -30 124 -86v0v0z" />
  </g>

</svg>
