<?xml version="1.0" standalone="no"?>
<!DOCTYPE svg PUBLIC "-//W3C//DTD SVG 1.1//EN" "http://www.w3.org/Graphics/SVG/1.1/DTD/svg11.dtd" >
<svg xmlns="http://www.w3.org/2000/svg" xmlns:xlink="http://www.w3.org/1999/xlink" version="1.1" viewBox="0 -36 256 256">
  <g transform="matrix(1 0 0 -1 0 220)">
   <path fill="currentColor"
d="M122 202.5q0 17.5 -1 33.5l14 -8h75l7 10l14 -11l-6 -8q0 -31 1 -41l-15 -6v10h-76v-7l-14 -5q1 15 1 32.5zM135 189h76v31h-76v-31zM235 89l-15 -6v11h-94v-51q0 -15 14 -16h72q13 -1 14 12t2 31h4q1 -17 2.5 -27t9.5 -12q-6 -15 -22 -16h-88q-22 0 -21 28v82
q0 18 -1 38l14 -10h93l7 10l15 -13l-7 -6q0 -41 1 -55zM126 101h40v45h-40v-45zM179 101h41v45h-41v-45zM22 70q18 -27 19.5 -35.5t-2.5 -14.5t-9 -5t-4 11t-8 42zM51 77q22 -26 22.5 -34t-6.5 -14t-8 4.5t-11 42.5zM76 88q26 -23 28.5 -31.5t-4.5 -17t-9.5 5t-17.5 39.5z
M59.5 210.5q-13.5 -20.5 -28.5 -41.5l41 3q6 11 10 24l16 -16q-4 0 -25 -27.5t-42 -47.5l52 6q-5 13 -13 27l3 2q29 -23 29 -33.5t-5 -16.5t-6.5 0.5t-5.5 14.5q-27 -5 -40.5 -9.5t-19.5 -10.5l-11 21q5 0 21 16.5t34 42.5q-17 -3 -26.5 -5.5t-19.5 -9.5l-9 19q8 2 22 25
t22 52l20 -14q-5 -1 -18.5 -21.5z" />
  </g>

</svg>
