<?xml version="1.0" standalone="no"?>
<!DOCTYPE svg PUBLIC "-//W3C//DTD SVG 1.1//EN" "http://www.w3.org/Graphics/SVG/1.1/DTD/svg11.dtd" >
<svg xmlns="http://www.w3.org/2000/svg" xmlns:xlink="http://www.w3.org/1999/xlink" version="1.1" viewBox="0 -52 256 256">
  <g transform="matrix(1 0 0 -1 0 204)">
   <path fill="currentColor"
d="M34 222l13 -10h169l10 12l19 -14q2 -1 2 -2q-1 -1 -5 -1h-192v-61q2 -49 -7 -80q-7 -30 -33 -54l-3 2q21 29 27 55q6 29 5 75v62q-1 7 -7 13zM52 70h45v19q-3 7 -6 10l2 3l21 -7q4 -1 1 -4q-4 0 -7 -3v-11v-7h70v18q0 3 -8 11l2 3l22 -9q3 -1 2 -3q-5 -2 -8 -5v-15h24
l9 12l17 -13q3 -2 2 -3t-5 -1h-47v-25l1 -17q0 -5 -3 -7q-4 -3 -10 -4q1 4 1 19q1 12 1 19v15h-71q-2 -35 -37 -53l-2 2q29 26 29 51h-25q-8 0 -13 -3zM64 172h57q1 1 1 2l1 1q10 18 8 20q0 3 -3 6l2 2l22 -11q2 -2 0 -2q-5 0 -11 -4q-2 -7 -8 -14h66l8 9l17 -11q3 -2 2 -3
q0 -1 -5 0h-57q6 -7 13 -13q6 -8 14 -11q8 -5 15 -7q6 -3 14 -4q3 -1 10 -1q5 -1 9 -1v-3q-2 0 -6 -1q-5 0 -7 -1q-4 -1 -9 -6q-11 3 -20 8q-10 6 -20 15q-9 9 -20 25h-27q-12 -21 -26 -31q-22 -16 -44 -23l-1 3q24 13 38 26q10 7 21 25h-34q-6 0 -11 -4zM90 119h47v16
q1 5 -8 12l3 3l23 -9q3 -1 1 -3q-6 -2 -9 -5v-14h24l7 11l17 -11q3 -2 3 -3q-1 -1 -4 -1h-47v-6l1 -11q0 -6 -4 -8q-3 -3 -9 -4q1 5 1 18q1 7 1 11h-27q-7 0 -11 -3zM112 249l1 3q19 -6 26 -11q8 -3 11 -10q7 -13 -3 -15q-4 -1 -6 6q-2 8 -8 12q-4 6 -21 15z" />
  </g>

</svg>
