<?xml version="1.0" standalone="no"?>
<!DOCTYPE svg PUBLIC "-//W3C//DTD SVG 1.1//EN" "http://www.w3.org/Graphics/SVG/1.1/DTD/svg11.dtd" >
<svg xmlns="http://www.w3.org/2000/svg" xmlns:xlink="http://www.w3.org/1999/xlink" version="1.1" viewBox="0 -205 1024 1024">
  <g transform="matrix(1 0 0 -1 0 819)">
   <path fill="currentColor"
d="M880 478q60 -48 60 -54q-1 -6 -4 -8q-4 -2 -16 -4q-12 -1 -26 -10q-12 -9 -62 -66l-10 8l30 68h-278v-102h122l40 34q60 -51 58 -56q0 -6 -6 -8q-4 -3 -10 -2q-5 0 -16 -6q-9 -5 -60 -58q-48 -51 -102 -85q53 -24 128 -34q75 -9 130 -12q53 -2 110 -2v-16q-52 -9 -64 -18
q-9 -8 -18 -26q-36 4 -104 16q-69 10 -114 22q-44 13 -106 44q-50 -26 -148 -52q-99 -22 -236 -36l-2 16q111 18 204 44q90 24 142 54q-39 23 -80 61q-42 36 -78 94h-94q-13 -90 -34 -134q-22 -40 -70 -79q-45 -37 -108 -62l-8 12q53 32 92 72q37 41 56 79q17 39 26 154v156
l56 -44h242v82l74 -24q7 -6 8 -8q0 -4 -6 -8l-24 -14v-28h272l34 40v0v0zM392 284q69 -81 166 -132q69 42 142 132h-308v0v0zM272 310h250v102h-250v-102v0v0v0zM494 974l54 -52q7 -9 -4 -12h-352v-54h230l32 34l50 -46q4 -9 -4 -12h-308v-62h234l32 36l48 -46q6 -9 -6 -12
h-308v-62h304l32 38l50 -48q6 -9 0 -14h-286q-85 -67 -118 -94l248 22q-21 26 -54 46l6 14q36 -12 66 -30q29 -16 50 -38q18 -19 16 -38q-3 -18 -20 -24t-28 12q-10 18 -22 40q-159 -22 -216 -32q-55 -9 -82 -30l-44 58q38 7 56 20q51 37 78 74h-136q-16 0 -40 -8l-18 32
h108v282l46 -32h274l32 38v0v0zM556 822q75 29 150 70q76 39 140 84l50 -48q8 -10 2 -14t-20 -2q-13 3 -56 -14q-41 -16 -112 -46q-71 -28 -148 -46l-6 16v0v0zM602 696q105 42 168 78q60 35 108 70l50 -42q10 -9 8 -12q-3 -4 -18 -4q-12 0 -36 -6q-22 -7 -94 -40t-176 -60
l-10 16v0v0zM548 554q110 36 206 78q93 42 154 90l56 -44q8 -10 2 -14t-20 -2q-13 3 -52 -14q-36 -16 -132 -52q-95 -33 -208 -60l-6 18v0v0z" />
  </g>

</svg>
