<?xml version="1.0" standalone="no"?>
<!DOCTYPE svg PUBLIC "-//W3C//DTD SVG 1.1//EN" "http://www.w3.org/Graphics/SVG/1.1/DTD/svg11.dtd" >
<svg xmlns="http://www.w3.org/2000/svg" xmlns:xlink="http://www.w3.org/1999/xlink" version="1.1" viewBox="0 -36 256 256">
  <g transform="matrix(1 0 0 -1 0 220)">
   <path fill="currentColor"
d="M46 245l22 -9l-7 -8v-43h7l10 12l14 -19h-31v-47l27 13l2 -4l-29 -20v-80q2 -23 -20 -30q1 10 -22 18v5q13 -1 20.5 -1t7.5 12v67q-26 -17 -25 -19l-13 17q11 3 38 16v53h-19l-8 -3l-9 10h36q0 35 -1 60zM138 59q-29 -30 -62 -50l-2 5q14 12 28.5 27t26.5 35l18 -16z
M226.5 43q11.5 -11 6 -23t-12.5 1t-19 23.5t-29 22.5l2 4q41 -17 52.5 -28zM129 231q-15 -7 -24 -11l1 -38h5l7 6l11 -13h-23l1 -38h4l7 6l11 -13h-22l1 -42h25v142l12 -8h32l5 10l13 -12l-6 -6v-126h20l2 43h-6l-4 -1l-7 8h17l2 38h-7l-5 -2l-7 9h19l1 42h-7l-7 -2l-7 9h20
l7 9l13 -12l-7 -6l-4 -136l10 12l13 -18h-130q-15 0 -27 -4l-11 11h20l-3 116q1 13 -2 27l11 -7q14 13 20 21l12 -15zM144 215v-127h34v127h-34zM181 182v-7h-40v7h40zM181 137v-7h-40v7h40z" />
  </g>

</svg>
