<?xml version="1.0" standalone="no"?>
<!DOCTYPE svg PUBLIC "-//W3C//DTD SVG 1.1//EN" "http://www.w3.org/Graphics/SVG/1.1/DTD/svg11.dtd" >
<svg xmlns="http://www.w3.org/2000/svg" xmlns:xlink="http://www.w3.org/1999/xlink" version="1.1" viewBox="0 -205 1024 1024">
  <g transform="matrix(1 0 0 -1 0 819)">
   <path fill="currentColor"
d="M320 512h86l-14 430l52 -40q47 33 82 66l54 -42q1 -10 -12 -10q-43 -4 -124 -40l2 -90h44l28 36l46 -44q6 -9 -6 -14h-112l2 -108h42l26 36l40 -42q7 -7 0 -16h-106l4 -122h118v164l70 -26q10 -7 -4 -16l-20 -10v-112h64v200h-44l-22 -22l-50 46l20 22l6 236l76 -32
q7 -9 -4 -14l-26 -14v-68h56l32 40l46 -48q6 -12 -6 -18h-130l-4 -104h44l24 28l54 -40q6 -7 0 -16l-24 -16v-180h112l8 116h-50q-27 -1 -38 -10l-20 34h108l6 104h-70q-22 -4 -28 -10l-24 34h122l8 114h-46q-20 -1 -40 -10l-22 34h98l24 32l56 -40q9 -9 4 -18l-28 -18
l-22 -362h32l32 38l52 -48q9 -16 -12 -16h-208q15 -24 46 -54t74 -56q41 -25 112 -40v-16q-36 -1 -50 -8q-15 -6 -26 -24q-48 33 -74 58q-27 23 -54 56q-28 32 -56 86h-182q-49 -66 -124 -128q-76 -63 -148 -98l-6 14q68 51 122 102q53 48 94 108h-118q-33 0 -50 -8l-24 34
v0v0zM742 400l-62 -12v-78h118l28 34l48 -44q3 0 4 -6q0 -9 -12 -8h-186v-64h214l28 36l48 -42q3 -3 4 -8q0 -7 -12 -8h-282v-101q3 -33 -12 -54q-15 -20 -56 -34q-12 29 -32 40q-18 10 -72 28l4 16q50 -12 74 -18q21 -3 34 0q12 3 12 42v81h-238q-21 0 -50 -8l-16 30h304
v64h-142q-21 0 -44 -8l-16 32h202v72q-93 -12 -134 -14l-2 14q152 29 256 70q30 -37 34 -44q4 -6 0 -8t-10 0h-34v0v0zM110 980q90 -51 114 -78q22 -28 20 -52q-3 -22 -14 -32q-9 -10 -24 -4q-15 3 -20 30q-6 27 -20 52q-14 24 -64 72l8 12v0v0zM14 768h232l32 38l52 -48
q9 -7 10 -14q1 -6 -16 -8q-21 -3 -42 -36q-37 -57 -82 -134v-98l16 -8l70 126l58 -38q6 -10 0 -14q-6 -3 -20 -2q-15 1 -90 -78q48 -27 66 -44q17 -15 22 -36q6 -18 0 -32q-7 -14 -22 -16q-15 -1 -24 14q-6 12 -12 30q-6 17 -24 38q-19 20 -40 38v-300l4 -83q1 -12 -18 -30
q-21 -18 -38 -18l4 120v363q-57 -80 -128 -142l-12 12q63 78 100 136q37 55 62 98q23 41 74 140h-164q-24 0 -50 -8l-20 34v0v0z" />
  </g>

</svg>
