<?xml version="1.0" standalone="no"?>
<!DOCTYPE svg PUBLIC "-//W3C//DTD SVG 1.1//EN" "http://www.w3.org/Graphics/SVG/1.1/DTD/svg11.dtd" >
<svg xmlns="http://www.w3.org/2000/svg" xmlns:xlink="http://www.w3.org/1999/xlink" version="1.1" viewBox="0 -36 256 256">
  <g transform="matrix(1 0 0 -1 0 220)">
   <path fill="currentColor"
d="M58 16l-16 -7q1 46 1 111q-9 -29 -36 -61l-2 3q31 50 37 114h-6q-10 0 -19 -2l-9 9h35q0 29 -1 63l24 -10l-9 -7v-46h7l10 12l16 -19h-33v-27q14 -10 21.5 -18t0.5 -20t-10.5 2t-11.5 30q0 -107 1 -127zM91 111l13 -6h41l7 8l15 -12l-7 -7v-64l-14 -8v15h-42v-13l-13 -6
v93zM104 44h42v54h-42v-54zM133.5 220.5q-0.5 -10.5 -5 -14.5t-7.5 6.5t-19 28.5l2 3q30 -13 29.5 -23.5zM144 202l12 10l17 -17h-63q-11 0 -20 -2l-9 9h63zM120 149.5q-3 -10.5 -7.5 -12.5t-6 10t-11.5 37l3 1q25 -25 22 -35.5zM165 178q-10 -7 -30 -44h17l11 11l16 -18
h-70q-11 0 -20 -2l-8 9h48q17 44 17 55zM178 7q1 33 1 112t-1 111l13 -10h33l8 11l16 -14l-10 -6q-10 -29 -24 -61q16 -17 22 -31t5 -26.5t-7 -19.5t-20 -10q-1 13 -20 18v5q12 -3 21.5 -3.5t10 9t-1.5 23t-18 36.5l19 62h-33v-197z" />
  </g>

</svg>
