<?xml version="1.0" standalone="no"?>
<!DOCTYPE svg PUBLIC "-//W3C//DTD SVG 1.1//EN" "http://www.w3.org/Graphics/SVG/1.1/DTD/svg11.dtd" >
<svg xmlns="http://www.w3.org/2000/svg" xmlns:xlink="http://www.w3.org/1999/xlink" version="1.1" viewBox="0 -205 1024 1024">
  <g transform="matrix(1 0 0 -1 0 819)">
   <path fill="currentColor"
d="M632 906q3 -4 4 -8q0 -4 -12 -8q-21 -5 -30 -10q-7 -6 -62 -74q-54 -66 -156 -164l-12 12q120 141 198 288l70 -36v0v0zM780 958q9 0 10 -6q6 -6 -12 -14q-16 -12 -16 -18q6 -27 34 -66q24 -40 76 -80q51 -39 138 -54v-18q-38 0 -52 -8q-12 -7 -32 -28q-57 36 -92 76
q-34 38 -68 92q-33 51 -56 142l70 -18v0v0zM696 778q12 -11 -12 -16q-24 -3 -42 -24q-19 -18 -40 -42q-21 -22 -78 -76l264 10q-21 45 -62 84l10 12q57 -35 78 -58q18 -21 34 -48q12 -28 4 -44q-10 -15 -26 -14q-15 0 -18 12q-4 12 -10 34q-141 -8 -198 -16q-54 -9 -110 -36
l-32 68q41 0 68 36q51 59 108 154l62 -36v0v0zM348 498h214l36 36l46 -38q12 -6 12 -12q0 -1 -32 -28v-347q3 -24 -12 -46q-15 -20 -60 -34q-9 36 -32 48q-21 10 -74 22l4 20q37 -10 74 -14q36 -3 46 2q9 7 6 33v156q-114 -76 -152 -106q-36 -28 -50 -50l-46 48l248 130v156
h-162q-22 -1 -44 -10l-22 34v0v0zM380 424l10 10q63 -34 84 -58t18 -44q-3 -18 -14 -24q-12 -7 -24 -2q-12 6 -14 18q-3 11 -12 38q-9 25 -48 62v0v0zM660 498h214l36 36l46 -38q12 -6 12 -12q0 -1 -32 -28v-347q3 -24 -12 -46q-15 -20 -60 -34q-9 37 -32 46q-24 9 -74 24
l4 20q37 -10 74 -14q36 -3 46 2q9 7 6 33v156q-102 -70 -138 -100q-36 -27 -48 -48l-50 46l236 124v156h-162q-22 -1 -44 -10l-22 34v0v0zM692 424l10 10q63 -34 84 -58t18 -44q-2 -21 -16 -26q-12 -5 -24 0q-9 6 -12 18q-3 11 -12 38q-9 25 -48 62v0v0zM82 912l52 -44h128
l32 44l60 -42q6 -6 6 -8q0 -7 -32 -32v-518l4 -88q-2 -15 -16 -24t-40 -12v64h-142v-76q0 -13 -18 -26q-15 -12 -38 -15l4 141v636v0v0zM134 278h142v270h-142v-270v0v0zM134 574h142v268h-142v-268v0v0z" />
  </g>

</svg>
