<?xml version="1.0" standalone="no"?>
<!DOCTYPE svg PUBLIC "-//W3C//DTD SVG 1.1//EN" "http://www.w3.org/Graphics/SVG/1.1/DTD/svg11.dtd" >
<svg xmlns="http://www.w3.org/2000/svg" xmlns:xlink="http://www.w3.org/1999/xlink" version="1.1" viewBox="0 -246 2048 2048">
  <g transform="matrix(1 0 0 -1 0 1802)">
   <path fill="currentColor"
d="M606 1203q150 213 227 426q179 -72 179 -115q0 -28 -97 -31q-123 -189 -309 -344v-129q0 -112 -12 -213q385 -232 385 -430q0 -84 -76 -84q-56 0 -88 90q-66 194 -230 363q-40 -229 -161 -392q-110 -149 -299 -262l-41 41q230 174 326 423q77 202 77 478v879
q207 -3 207 -49q0 -26 -88 -58v-593zM248 1485l51 -4q33 -177 33 -313q0 -143 -41 -217q-34 -60 -86 -60q-80 0 -80 74q0 34 29 76q91 151 94 444zM1163 326v1561q207 -10 207 -56q0 -25 -84 -59v-1421q0 -51 29 -64q34 -14 223 -14q149 0 186 14q46 16 62 88q29 133 41 348
l53 -22q0 -283 20 -350q16 -56 70 -56q-9 -98 -78 -119q-58 -18 -338 -18q-307 0 -352 39q-39 33 -39 129z" />
  </g>

</svg>
