<?xml version="1.0" standalone="no"?>
<!DOCTYPE svg PUBLIC "-//W3C//DTD SVG 1.1//EN" "http://www.w3.org/Graphics/SVG/1.1/DTD/svg11.dtd" >
<svg xmlns="http://www.w3.org/2000/svg" xmlns:xlink="http://www.w3.org/1999/xlink" version="1.1" viewBox="0 -52 256 256">
  <g transform="matrix(1 0 0 -1 0 204)">
   <path fill="currentColor"
d="M102 196l11 -12h84l9 10l13 -12q1 -1 1 -3q-1 -1 -3 -1l-4 -3v-18l1 -19q1 -10 -13 -11v10h-86v-5q0 -9 -14 -12q2 10 2 34v29q-1 6 -4 10zM100 42l-1 4q48 21 52 56h-57v-62l1 -21q0 -9 -14 -12v11q1 16 1 27v62q0 4 -5 7l4 3l11 -10h60q1 8 1 19q-1 3 -6 7l2 3l21 -5
q4 -3 1 -4q-4 -2 -7 -5q0 -3 -1 -9v-6h57l8 10l13 -11l2 -2q0 -1 -2 -3l-5 -3v-57q0 -13 -3 -21q-3 -7 -18 -10q0 10 -27 17q-3 1 -4 1l1 4q27 -6 33 -5q6 0 6 12v63h-62q-1 -9 -4 -16q37 -8 49 -23q7 -11 1 -16q-4 -4 -12 8q-12 17 -40 27q-11 -26 -56 -40zM49 228l13 -11
h158l11 13l18 -14q3 -2 2 -3q0 -1 -5 -1h-183v-58q0 -57 -9 -87q-10 -28 -44 -59l-2 3q27 29 36 58q7 21 7 56q-6 -4 -14 -9q-2 -1 -3 -2q-9 -6 -17 -18l-13 13l48 23v26v55q0 6 -6 12zM115 142h86v37h-86v-37zM123 250l1 4q31 -5 36 -16q7 -13 -4 -16q-4 0 -6 6q-2 8 -8 12
q-4 4 -19 10zM12 189l2 3q27 -16 26 -36q-1 -6 -6 -6q-4 0 -6 6q0 6 -3 14t-13 19z" />
  </g>

</svg>
