<?xml version="1.0" standalone="no"?>
<!DOCTYPE svg PUBLIC "-//W3C//DTD SVG 1.1//EN" "http://www.w3.org/Graphics/SVG/1.1/DTD/svg11.dtd" >
<svg xmlns="http://www.w3.org/2000/svg" xmlns:xlink="http://www.w3.org/1999/xlink" version="1.1" viewBox="0 -205 1024 1024">
  <g transform="matrix(1 0 0 -1 0 819)">
   <path fill="currentColor"
d="M86 886l56 -42h94l24 40l54 -40q12 -6 12 -14q-1 -5 -34 -28v-374l4 -68q4 -16 -16 -26q-18 -10 -36 -10v72h-108v-92q0 -15 -14 -24t-40 -12l4 134v484v0v0zM136 422h108v396h-108v-396v0v0zM540 942q9 -6 -6 -12t-24 -12q-10 -7 -46 -70q-37 -64 -106 -172h126
q40 81 74 168l70 -38q4 -10 -6 -14q-12 -3 -24 -8q-11 -3 -52 -84q-42 -79 -144 -244l152 16q-12 37 -44 92l12 10q32 -28 58 -62q27 -34 34 -58q6 -24 0 -36q-7 -12 -16 -18q-6 -4 -18 -2q-12 3 -14 16q0 13 -6 38q-84 -12 -126 -24q-41 -12 -76 -36l-34 64q23 2 56 16
q45 77 94 182q-59 -3 -88 -12q-27 -5 -54 -22l-32 60q27 6 36 12q5 6 44 78q35 72 92 210l68 -38v0v0zM360 324h20q2 -60 2 -104q1 -45 -10 -74q-12 -28 -30 -37q-18 -8 -30 -2q-12 7 -12 22t18 33q15 18 28 54q11 36 14 108v0v0zM426 350l12 6q34 -45 50 -90q15 -42 10 -72
q-3 -30 -18 -38q-15 -7 -30 2q-14 9 -6 48q8 37 2 68q-6 30 -20 76v0v0zM508 366l12 8q50 -46 68 -76q16 -28 14 -56q-1 -26 -16 -34q-13 -9 -26 -2t-10 38q3 29 -8 56q-10 27 -34 66v0v0zM836 922q-19 -6 -28 -14q-7 -6 -40 -60q-31 -54 -110 -170l146 2q54 101 82 166
l68 -36q13 -7 -6 -16q-21 -1 -42 -32q-21 -29 -78 -118q-56 -88 -124 -172l206 6q-21 48 -72 112l12 10q81 -69 106 -104q24 -36 30 -60q3 -25 -8 -40q-10 -13 -26 -10t-20 18q-3 15 -14 54l-98 -10v-331q3 -47 -18 -70q-21 -20 -48 -26q-7 29 -28 42q-21 12 -84 36l4 16
q72 -17 100 -20q28 -1 26 42v303q-51 -2 -74 -10q-22 -6 -38 -18l-34 60l52 14q44 59 116 172q-97 -7 -124 -16q-26 -9 -46 -26l-40 60l42 12q83 114 146 286l68 -34q16 -6 -4 -18v0v0zM550 85q87 147 126 285l68 -34q9 -8 -2 -16q-13 -4 -22 -10q-9 -3 -42 -66t-114 -169
l-14 10v0v0zM852 344l10 10q89 -87 116 -128q26 -39 28 -66q1 -23 -10 -37q-11 -12 -28 -10q-15 4 -20 33q-6 30 -18 66t-78 132v0v0z" />
  </g>

</svg>
