<?xml version="1.0" standalone="no"?>
<!DOCTYPE svg PUBLIC "-//W3C//DTD SVG 1.1//EN" "http://www.w3.org/Graphics/SVG/1.1/DTD/svg11.dtd" >
<svg xmlns="http://www.w3.org/2000/svg" xmlns:xlink="http://www.w3.org/1999/xlink" version="1.1" viewBox="0 -205 1024 1024">
  <g transform="matrix(1 0 0 -1 0 819)">
   <path fill="currentColor"
d="M614 978l86 -38q9 -4 6 -10q0 -3 -6 -8l-32 -12v-148h202l38 48l64 -56q6 -4 6 -10q0 -9 -6 -8h-304v-238h168l36 44l54 -46q9 -3 10 -12q0 -7 -32 -28v-280l4 -93q0 -12 -18 -24t-36 -12v82h-398v-56q0 -16 -20 -26q-18 -12 -36 -12l4 135v370l62 -42h148v480v0v0z
M456 152h398v320h-398v-320v0v0zM386 934q12 -8 -2 -16q-27 -2 -42 -34q-52 -99 -106 -204l50 -20q15 -9 -2 -18l-18 -10v-482l4 -93q0 -17 -24 -32q-21 -13 -36 -12l4 131v496q-75 -127 -146 -196l-12 8q66 96 150 270q81 174 102 252l78 -40v0v0z" />
  </g>

</svg>
