<?xml version="1.0" standalone="no"?>
<!DOCTYPE svg PUBLIC "-//W3C//DTD SVG 1.1//EN" "http://www.w3.org/Graphics/SVG/1.1/DTD/svg11.dtd" >
<svg xmlns="http://www.w3.org/2000/svg" xmlns:xlink="http://www.w3.org/1999/xlink" version="1.1" viewBox="0 -52 256 256">
  <g transform="matrix(1 0 0 -1 0 204)">
   <path fill="currentColor"
d="M104 186l2 -1q0 -1 -2 -2q-6 1 -10 -2q-21 -30 -63 -70l67 3l1 -5q-14 -1 -34 -4q-7 -1 -10 -1q-6 -1 -15 -3q-3 -1 -5 -1q-7 0 -11 -7l-10 17q2 1 6 2q4 2 6 2q18 17 37 43l2 3q-4 0 -9 -1q-7 0 -10 -1q-22 0 -27 -10l-11 16q4 1 9 3l1 1q1 1 3 5q3 2 4 4q6 6 18 26
q13 19 20 37q0 5 -3 8l2 2l20 -13l2 -2q-1 -1 -2 -1q-5 0 -9 -2q-24 -37 -47 -66l43 -1q15 19 15 26q0 4 -3 7l3 2zM71 56q-10 -4 -24 -9q-8 -3 -14 -5q-1 0 -2 -1q-6 -3 -9 -7l-13 11l96 29l1 -3zM155 161l13 -13l1 -1q1 0 1 -1l-2 -1q-12 -1 -26 -6q-9 -3 -16 -5v-42h19
l8 10l17 -13q3 0 2 -2h-2h-44v-43h99v44h-27q-6 0 -10 -3l-9 8h46v45h-33q-3 0 -8 -4l-9 9h46l9 9l11 -11q2 -1 2 -3l-3 -1l-5 -2v-84l1 -21q1 -7 -11 -8v18h-99v-12q1 -9 -12 -11q2 10 2 33v87q0 3 -5 9l3 4l11 -12q25 12 29 18q0 1 -1 2t-1 2zM228 248l15 -14q3 -2 3 -4
l-2 -1h-1q-3 1 -8 1t-11 -1q-42 -11 -124 -13v4q119 11 127 25q0 2 -1 3h2zM224 220l17 -12q3 -1 3 -3q0 -1 -1 -1h-1q-4 0 -9 -3q-5 -9 -29 -41l-5 2l10 17q16 28 16 31v1q-1 3 -3 7zM153 211l2 2q27 -17 29 -37v-1q0 -11 -7 -11q-5 0 -5 8q2 17 -19 39zM108 204l2 2
q27 -17 28 -37v-2q0 -9 -6 -10q-5 0 -5 8q2 17 -19 39z" />
  </g>

</svg>
