<?xml version="1.0" standalone="no"?>
<!DOCTYPE svg PUBLIC "-//W3C//DTD SVG 1.1//EN" "http://www.w3.org/Graphics/SVG/1.1/DTD/svg11.dtd" >
<svg xmlns="http://www.w3.org/2000/svg" xmlns:xlink="http://www.w3.org/1999/xlink" version="1.1" viewBox="0 -205 1024 1024">
  <g transform="matrix(1 0 0 -1 0 819)">
   <path fill="currentColor"
d="M700 862v-226h182l40 52l66 -58q3 -3 4 -8q1 -12 -16 -12h-276v-196h132l28 42l60 -42q6 -4 6 -8q0 -6 -32 -32v-232l4 -83q-1 -9 -16 -22q-15 -11 -38 -14v94h-342v-58q1 -14 -16 -28q-18 -13 -38 -14l4 118v319l56 -40h142v196h-186q-21 0 -68 -8l-22 34h276v220
q-123 -15 -252 -24l-2 18q182 27 302 54t174 48q48 -61 48 -68q-1 -6 -8 -6q-6 -1 -18 4q-13 4 -34 2q-22 -1 -160 -22v0v0zM502 142h342v246h-342v-246v0v0zM412 902q7 -3 2 -12q-1 -3 -16 -2q-15 -9 -42 -32q-27 -22 -90 -88q60 -93 78 -182q18 -90 18 -152q3 -61 -2 -136
q-3 -76 -18 -124q-15 -47 -42 -73q-27 -27 -78 -54q-10 31 -32 46q-19 12 -88 36l4 15q93 -23 132 -15q39 9 54 51q14 41 20 104q6 60 4 136q0 74 -18 176q-99 -180 -252 -324l-12 10q123 136 246 374q-4 22 -38 86q-104 -91 -196 -152l-10 12q77 64 184 170
q-51 72 -132 138l12 12q93 -66 142 -126q78 87 108 154l62 -48v0v0z" />
  </g>

</svg>
