<?xml version="1.0" standalone="no"?>
<!DOCTYPE svg PUBLIC "-//W3C//DTD SVG 1.1//EN" "http://www.w3.org/Graphics/SVG/1.1/DTD/svg11.dtd" >
<svg xmlns="http://www.w3.org/2000/svg" xmlns:xlink="http://www.w3.org/1999/xlink" version="1.1" viewBox="0 -36 256 256">
  <g transform="matrix(1 0 0 -1 0 220)">
   <path fill="currentColor"
d="M116 215h53q-2 13 -16 28l2 3q18 -7 24 -14t-4 -17h50l9 8l14 -16q-8 0 -14.5 -5t-13.5 -15l-4 1l10 20h-110q-1 -13 -7 -19t-11.5 -1.5t1.5 10t13 25.5h3zM166 178h53l11 11l16 -18h-68q14 -18 26 -27q15 14 20 24l15 -13q-8 -2 -11.5 -3.5t-20.5 -11.5q24 -16 40 -20
v-3q-14 -1 -17 -8q-10 6 -14 11q0 -32 1 -44l-14 -5v6h-27v-44q0 -21 -17 -26q-3 13 -28 19v4q22 -4 27 -2.5t5 11.5v38h-27v-3l-14 -5q1 15 1 49q-15 -11 -35 -22l-2 4q44 30 64 71h-24q-10 0 -19 -2l-9 9h55q6 18 7 27l19 -7l-7 -6q-3 -8 -6 -14zM138 133h63
q-17 15 -28 38h-8q-13 -24 -27 -38zM136 109h67v17h-67v-17zM136 84h67v18h-67v-18zM149 53l-10 -3q-34 -28 -51 -38l-2 4q15 13 27.5 26t17.5 25zM227.5 46q12.5 -10 8 -23t-13 3t-32.5 37l2 3q23 -10 35.5 -20zM128 154q4 -6 -1 -12.5t-8 1.5t-13 21l2 3q16 -7 20 -13z
M37 100q12 -4 23 -10q12 26 16 82q-13 -2 -23 -4q-3 -15 -16 -68zM63 226q-2 -10 -9 -48q11 0 22 3q0 11 -1 22l16 -8q-3 -4 -3 -13q7 0 11 1l1 -5q-8 -3 -12 -4q-2 -30 -5.5 -48t-11.5 -42q15 -11 19.5 -18.5t1.5 -17t-9 0.5t-17 22q-20 -39 -55 -57l-1 3q33 27 47 61
q-13 10 -33 18q9 34 16 70q-15 -3 -23 -6l-5 15q17 0 30 2q8 47 8 66l19 -9z" />
  </g>

</svg>
