<?xml version="1.0" standalone="no"?>
<!DOCTYPE svg PUBLIC "-//W3C//DTD SVG 1.1//EN" "http://www.w3.org/Graphics/SVG/1.1/DTD/svg11.dtd" >
<svg xmlns="http://www.w3.org/2000/svg" xmlns:xlink="http://www.w3.org/1999/xlink" version="1.1" viewBox="0 -36 256 256">
  <g transform="matrix(1 0 0 -1 0 220)">
   <path fill="currentColor"
d="M66.5 219q6.5 -10 -2.5 -18.5t-11 6.5t-15 31l2 3q20 -12 26.5 -22zM106 42q-1 -11 10 -12h89q12 -1 16 3t5 38h4q1 -21 3 -28t12 -11q-8 -14 -23 -15h-112q-17 1 -19 20v34v39h-19q-4 -68 -62 -101l-2 4q45 36 49 97h-14q-10 0 -19 -2l-9 9h59v31h-17q-13 0 -22 -2l-9 9
h48v30h-30q-10 0 -19 -2l-9 9h74q18 38 20 54l22 -13l-9 -3q-11 -20 -26 -38h22l11 12l16 -19h-57v-30h18l11 12l16 -19h-45v-31h29l13 12l17 -19h-42v-68zM230 220l-10 -3q-35 -30 -76 -49l-1 5q29 19 46 37t23 28zM236 168l-7 -3q-38 -32 -79 -46l-1 3q25 15 41.5 28.5
t30.5 33.5zM243 104l-10 -2q-21 -16 -46 -31t-62 -25l-1 5q32 13 51.5 26.5t33.5 27t17 18.5z" />
  </g>

</svg>
