<?xml version="1.0" standalone="no"?>
<!DOCTYPE svg PUBLIC "-//W3C//DTD SVG 1.1//EN" "http://www.w3.org/Graphics/SVG/1.1/DTD/svg11.dtd" >
<svg xmlns="http://www.w3.org/2000/svg" xmlns:xlink="http://www.w3.org/1999/xlink" version="1.1" viewBox="0 -205 1024 1024">
  <g transform="matrix(1 0 0 -1 0 819)">
   <path fill="currentColor"
d="M516 944q9 -4 10 -10t-18 -14q-19 -7 -28 -52q-6 -45 -24 -138h72l32 42l54 -38q15 -6 12 -12q0 -6 -30 -26q-15 -153 -38 -240q-21 -85 -62 -172q49 -37 80 -76q33 -39 36 -66q4 -22 -6 -41q-9 -16 -26 -14t-28 28q-10 26 -22 53q-12 26 -54 82q-63 -95 -126 -147
q-61 -51 -130 -90l-10 16q68 50 118 102q50 49 116 145q-30 28 -110 86q34 135 74 342h-34q-15 0 -30 -6l-22 32h88q17 98 32 242l74 -28v0v0zM456 312q23 45 50 136q23 87 38 256h-92q-35 -180 -76 -336q40 -30 80 -56v0v0zM668 832l52 -38h142l24 34l52 -38q12 -4 12 -14
q0 -3 -30 -24v-484l4 -120q3 -14 -18 -27q-19 -12 -38 -12v79h-148v-85q0 -13 -20 -26q-21 -12 -36 -10l4 105v660v0v0zM720 214h148v554h-148v-554v0v0zM100 922l6 16q60 -19 94 -34q33 -15 52 -36q15 -19 18 -40q3 -19 -8 -32q-12 -14 -26 -12q-16 0 -22 16q-7 15 -16 34
q-7 15 -26 36q-18 21 -72 52v0v0zM48 692l8 16q39 -12 70 -24t50 -32q18 -19 22 -40q3 -21 -8 -36q-12 -15 -26 -14q-16 0 -22 16q-6 15 -14 34q-9 18 -26 36q-15 14 -54 44v0v0zM172 414q-19 -58 -46 -62t-84 -4l-2 -20q32 -2 64 -10q30 -6 40 -18q8 -12 10 -42
q0 -30 -8 -84q-10 -53 -8 -81q1 -27 20 -36q18 -9 34 0t20 36q3 25 -6 83q-10 57 -10 94q-2 36 6 66q6 27 12 58l114 414l-20 8l-136 -402v0v0z" />
  </g>

</svg>
