<?xml version="1.0" standalone="no"?>
<!DOCTYPE svg PUBLIC "-//W3C//DTD SVG 1.1//EN" "http://www.w3.org/Graphics/SVG/1.1/DTD/svg11.dtd" >
<svg xmlns="http://www.w3.org/2000/svg" xmlns:xlink="http://www.w3.org/1999/xlink" version="1.1" viewBox="0 -36 256 256">
  <g transform="matrix(1 0 0 -1 0 220)">
   <path fill="currentColor"
d="M39.5 195.5q6.5 -12.5 -1 -22.5t-10.5 7.5t-13 38.5l3 2q15 -13 21.5 -25.5zM52 246l23 -9l-9 -9v-70h18l10 12l15 -19h-43v-19q20 -13 28 -21.5t3.5 -22t-11 3.5t-20.5 33v-77q0 -13 1 -31l-15 -7q1 42 1 108q-16 -34 -42 -63l-3 2q31 46 42 94h-9q-13 0 -22 -3l-10 10
h44q0 58 -1 88zM99 206q-12 -24 -27 -40l-2 2q12 21 20 55l17 -13zM125 187h91v36h-91v-36zM111 60q-16 -35 -33 -50l-3 2q14 21 24 46t11.5 51t1.5 60.5t-1 68.5l14 -8h90l7 10l14 -11l-7 -7v-34q0 -5 1 -13l-14 -5v10h-91q2 -85 -14 -120zM155 147.5q6 -5.5 7.5 -13
t-4.5 -14.5t-9 7.5t-15 31.5l2 3q13 -9 19 -14.5zM172 96q-10 -20 -27 -40.5t-39 -32.5l-1 3q20 18 35.5 40t23.5 44h-9q-13 0 -22 -3l-10 10h49q0 41 -1 59l21 -10l-8 -7v-42h11q14 28 16 47l19 -12q-6 -2 -13.5 -12.5t-15.5 -22.5h12l13 11l16 -18h-49q9 -27 21 -44
t30 -25v-4q-11 0 -18 -10q-30 34 -38 83h-4v-79t1 -17l-15 -6q2 18 2 88z" />
  </g>

</svg>
