<?xml version="1.0" standalone="no"?>
<!DOCTYPE svg PUBLIC "-//W3C//DTD SVG 1.1//EN" "http://www.w3.org/Graphics/SVG/1.1/DTD/svg11.dtd" >
<svg xmlns="http://www.w3.org/2000/svg" xmlns:xlink="http://www.w3.org/1999/xlink" version="1.1" viewBox="0 -205 1024 1024">
  <g transform="matrix(1 0 0 -1 0 819)">
   <path fill="currentColor"
d="M576 754l68 -22q10 -3 -4 -12l-16 -8v-36l88 12l28 42q64 -42 62 -48q-1 -7 -4 -8l-16 -4l-158 -18v-34q-1 -20 8 -22t28 -4h144q33 1 36 26l4 46h16q3 -30 10 -44q5 -15 26 -24q-8 -17 -22 -28q-13 -12 -50 -14h-180q-30 -1 -50 8q-18 9 -18 48v30v4l-86 -10
q-21 -7 -36 -16l-24 34l146 20v82v0v0zM576 986l76 -30q12 -6 4 -14l-30 -14v-48h186l34 48l60 -58q2 -3 2 -6q1 -7 -4 -8h-278v-74h250l30 32l54 -48q7 -5 6 -10q0 -6 -8 -8q-27 0 -44 -12q-16 -12 -56 -54l-14 8l34 68h-456v-170q0 -246 -38 -366q-36 -117 -140 -205
l-10 10q89 116 116 223q24 106 22 338v236l56 -42h148v204v0v0zM854 502l38 46l58 -56q9 -14 -8 -16h-254q-28 -31 -58 -58q62 -48 88 -96q75 50 150 122l60 -30q10 -13 -4 -16q-16 1 -28 -6q-13 -7 -34 -16q-21 -8 -72 -40q29 -74 56 -106q23 -33 62 -56q35 -22 92 -28v-15
q-45 -2 -62 -10q-16 -5 -28 -20q-35 28 -58 53q-24 25 -44 62q-19 36 -38 108l-42 -24q24 -56 28 -94q4 -36 2 -67q-1 -30 -20 -64q-18 -32 -72 -56q-6 30 -36 42t-80 30l6 16q62 -15 98 -18q34 -2 44 16q9 18 12 51q2 35 -10 94q-69 -69 -152 -117q-84 -47 -180 -74l-6 16
q84 34 160 83q76 50 164 134q-6 19 -24 44q-49 -52 -112 -92q-63 -39 -158 -84l-8 16q84 48 142 94q58 42 110 102l-24 28q-81 -69 -182 -108l-8 14q140 86 202 170h-118q-21 -1 -50 -10l-22 36h420v0v0zM26 740h162v236l76 -36q7 -4 2 -10q-3 -4 -30 -20v-170h40l32 40
l48 -48q3 -3 4 -8q1 -10 -10 -10h-114v-158l102 58l10 -16l-112 -78v-387q1 -36 -16 -58q-16 -24 -56 -36q-7 33 -38 50q-31 18 -82 32l4 18q96 -21 118 -16q21 4 22 29v332l-66 -50q-27 -25 -38 -50l-58 54l162 92v184h-88q-19 3 -50 -8l-24 34v0v0z" />
  </g>

</svg>
