<?xml version="1.0" standalone="no"?>
<!DOCTYPE svg PUBLIC "-//W3C//DTD SVG 1.1//EN" "http://www.w3.org/Graphics/SVG/1.1/DTD/svg11.dtd" >
<svg xmlns="http://www.w3.org/2000/svg" xmlns:xlink="http://www.w3.org/1999/xlink" version="1.1" viewBox="0 -200 1000 1000">
  <g transform="matrix(1 0 0 -1 0 800)">
   <path fill="currentColor"
d="M328 384l-241 -134q-4 -31 -12 -34q-8 -2 -15 20l-22 55l117 39v309h-54l-44 -1l-6 27l50 -2h54v277l44 -15q33 -12 33 -20q-2 -10 -33 -19v-223h40l35 36l42 -32q9 -7 6 -21q-2 -7 -14 -7h-109v-293l124 51zM795 503v135h-103v-64q0 -201 -26 -308q-24 -98 -86 -178
l-18 5q28 49 42 87q20 54 31 127q12 85 14 210q2 137 -7 335l-4 25q-2 16 -3 23q-1 12 -1 21l63 -35q29 8 84 36q31 16 92 51l2 1l27 -41q15 -21 8 -24q-5 -3 -28 8q-30 -12 -84 -29q-49 -16 -106 -32v-195h173l37 36l46 -34q11 -16 5 -21q-6 -4 -25 -4h-71q12 -7 6 -15
q-5 -7 -22 -12v-162q22 -25 43 -60t26 -72q6 -41 -3 -57q-12 -21 -23 15q-15 46 -41 99l-9 18l1 -233v-17q0 -15 -2 -22q-3 -9 -13 -16q-21 -7 -24 1v26v7l-1 311l-57 90l8 12zM541 734h-64v182q29 5 32 13q3 9 -31 20l-48 12l3 -60v-167h-61l-67 4l12 -30l67 3h49
q-14 -91 -53 -212q-31 -97 -74 -198l9 -7q28 47 62 117q21 46 56 126v-427l-2 -17q-2 -15 1 -18q5 -4 26 3q18 9 22 16q3 5 1 18l-2 16v452q27 -19 46 -44q15 -21 23 -41q8 -27 21 -37q11 -8 21 0q9 8 10 26q1 20 -11 40q-17 24 -47 45t-64 32v110h139h9q2 2 4 3q3 4 -8 21
l-42 36z" />
  </g>

</svg>
