<?xml version="1.0" standalone="no"?>
<!DOCTYPE svg PUBLIC "-//W3C//DTD SVG 1.1//EN" "http://www.w3.org/Graphics/SVG/1.1/DTD/svg11.dtd" >
<svg xmlns="http://www.w3.org/2000/svg" xmlns:xlink="http://www.w3.org/1999/xlink" version="1.1" viewBox="0 -36 256 256">
  <g transform="matrix(1 0 0 -1 0 220)">
   <path fill="currentColor"
d="M117 211.5q6 -7.5 0 -19t-10.5 4t-19.5 29.5l3 5q21 -12 27 -19.5zM99.5 103.5q-4.5 -11.5 -1 -39.5t-4.5 -26t-11.5 7.5t0 19t2 23t-15.5 17.5l1 5q14 -5 18.5 -2.5t33.5 80.5l5 -3q-23 -70 -27.5 -81.5zM167 248l23 -12l-8 -8v-29q1 -19 6 -34q25 24 30 40l18 -22h-9
q-23 -17 -37 -27q25 -89 57 -107v-4q-17 3 -23 -8q-30 46 -42 121v-123q0 -12 -5.5 -18.5t-16.5 -10.5q-1 9 -8 13.5t-20 8.5l1 5q22 -4 28.5 -2.5t6.5 10.5v171q0 9 -1 36zM145 167h-6l-7 -1l-9 8h22l9 10l12 -14l-7 -6q-10 -93 -58 -134l-3 3q40 48 47 134zM49 248l22 -11
l-7 -7v-43h9l12 12l14 -20h-35v-43l29 18l2 -4l-31 -25v-89q0 -20 -21 -29q1 14 -26 21v5q16 -1 25 -1t8 12v70q-22 -15 -25 -21l-14 17q18 7 39 20v49h-21l-10 -1l-8 9h39q0 36 -1 61z" />
  </g>

</svg>
