<?xml version="1.0" standalone="no"?>
<!DOCTYPE svg PUBLIC "-//W3C//DTD SVG 1.1//EN" "http://www.w3.org/Graphics/SVG/1.1/DTD/svg11.dtd" >
<svg xmlns="http://www.w3.org/2000/svg" xmlns:xlink="http://www.w3.org/1999/xlink" version="1.1" viewBox="0 -205 1024 1024">
  <g transform="matrix(1 0 0 -1 0 819)">
   <path fill="currentColor"
d="M430 912h388l30 34l50 -38q8 -6 8 -12t-26 -26v-152l4 -80q1 -13 -22 -26q-21 -13 -36 -10v48h-312q-25 0 -52 -8l-20 34h384v94h-296q-24 0 -50 -8l-22 34h368v90h-336q-21 0 -38 -6l-22 32v0v0zM448 564h466l36 32q60 -53 64 -58q3 -3 -2 -8q-4 -4 -20 -4
q-14 -1 -34 -10q-21 -6 -72 -54l-16 10l46 66h-228v-118h150l26 34l58 -38q7 -6 8 -12q0 -6 -32 -24v-196q3 -36 -12 -61q-16 -26 -56 -40q-9 36 -44 54q-33 14 -66 25l4 16q71 -12 88 -14q14 -1 26 2q9 2 10 26v200h-160v-252l2 -81q0 -11 -18 -22t-42 -14l4 110v259h-148
v-190l4 -69q0 -12 -18 -24q-15 -11 -42 -14l4 107v242l58 -24h142v118h-184q-8 -55 -28 -82q-21 -28 -44 -28q-24 -1 -30 20q-4 17 20 38q24 18 36 40q12 21 22 84h22v-46v0v0zM34 754h164v234l82 -32q12 -6 4 -14l-34 -16v-172h64l40 44l50 -54q12 -15 -8 -18h-146v-180
l138 82l10 -16l-148 -110v-367q2 -36 -16 -64q-19 -26 -64 -40q-6 36 -36 50q-28 15 -76 32l4 16q94 -26 116 -20q20 6 20 31v332q-69 -53 -84 -70q-12 -16 -30 -38l-54 56l168 100v206h-92q-21 -1 -50 -10l-22 38v0v0z" />
  </g>

</svg>
