<?xml version="1.0" standalone="no"?>
<!DOCTYPE svg PUBLIC "-//W3C//DTD SVG 1.1//EN" "http://www.w3.org/Graphics/SVG/1.1/DTD/svg11.dtd" >
<svg xmlns="http://www.w3.org/2000/svg" xmlns:xlink="http://www.w3.org/1999/xlink" version="1.1" viewBox="0 -36 256 256">
  <g transform="matrix(1 0 0 -1 0 220)">
   <path fill="currentColor"
d="M131 95v-61h37v104h-36l-7 -9l-13 12l6 6v54l-1 15l22 -10l-7 -6v-55h36v76l-1 26l22 -13l-8 -7v-82h38v36v18l-1 19l22 -10l-7 -6v-29q0 -20 1 -38l-15 -8v11h-38v-104h41v59l-1 21l24 -9l-9 -7v-42q0 -20 1 -41l-15 -6v18h-91l-7 -10l-13 13l6 6v60l-1 17l22 -11z
M103 67l3 -5q-43 -33 -50 -48l-12 16q6 5 6 17v56h-11q-11 0 -20 -4l-9 11h40v40h-20q-9 -11 -19 -21l-4 2q29 41 47 115l21 -13l-9 -5q-8 -20 -11 -29h26l14 13l16 -20h-59q-10 -21 -19 -35h45l13 13l15 -20h-42v-40h20l11 9l16 -16h-47v-60z" />
  </g>

</svg>
