<?xml version="1.0" standalone="no"?>
<!DOCTYPE svg PUBLIC "-//W3C//DTD SVG 1.1//EN" "http://www.w3.org/Graphics/SVG/1.1/DTD/svg11.dtd" >
<svg xmlns="http://www.w3.org/2000/svg" xmlns:xlink="http://www.w3.org/1999/xlink" version="1.1" viewBox="0 -36 256 256">
  <g transform="matrix(1 0 0 -1 0 220)">
   <path fill="currentColor"
d="M114 220h25l10 12l14 -13l-9 -8v-70q0 -34 1 -64l-14 -6v14h-28v-14l-14 -5q1 35 1 78.5t-1 86.5zM113 149v-57h28v57h-28zM113 213v-57h28v57h-28zM213.5 32.5q7.5 -0.5 7.5 12.5v62h-37q-2 -32 -14 -55.5t-42 -43.5l-2 3q26 24 36.5 53.5t9.5 96t-2 82.5l15 -10h34
l10 10l14 -12l-8 -7v-180q0 -15 -5 -22t-18 -11q1 13 -26 21v3q20 -2 27.5 -2.5zM184 173h37v53h-37v-53zM184 114h37v52h-37v-52zM72 233l-7 -7v-63q17 24 18 38l16 -11q-6 -4 -12.5 -12.5t-21.5 -21.5q0 -24 -2 -63q20 -12 29 -22t7 -21t-6 -10t-8.5 14.5t-22.5 33.5
q-10 -51 -52 -81l-2 3q31 36 38 67.5t6.5 72.5t-1.5 95zM40 161q5 -8 3 -16t-6.5 -8.5t-7.5 12t-19 36.5l2 2q23 -18 28 -26z" />
  </g>

</svg>
