<?xml version="1.0" standalone="no"?>
<!DOCTYPE svg PUBLIC "-//W3C//DTD SVG 1.1//EN" "http://www.w3.org/Graphics/SVG/1.1/DTD/svg11.dtd" >
<svg xmlns="http://www.w3.org/2000/svg" xmlns:xlink="http://www.w3.org/1999/xlink" version="1.1" viewBox="0 -36 256 256">
  <g transform="matrix(1 0 0 -1 0 220)">
   <path fill="currentColor"
d="M65 15l-14 -7q1 46 1 118q-12 -36 -42 -68l-3 3q35 51 43 115h-10q-10 0 -19 -2l-9 9h40q0 29 -1 64l23 -10l-9 -7v-47h7l11 12l13 -19h-31v-27q15 -10 23.5 -18t2.5 -20t-11 2t-15 30v-128zM134 107v28h-4q-5 -21 -16.5 -33.5t-29.5 -20.5l-2 3q11 6 21 19t15 32h-13
l-6 -4l-10 10q7 3 9 9t4 17l14 -6q-4 -3 -6 -7t-4 -12h13q2 6 4 27h-4q-10 0 -16 -1l-8 8h43l9 8l13 -15h-25q-2 -17 -4 -27h11l7 7l12 -14h-16v-28l25 11l2 -3q-27 -15 -32 -26l-9 11q4 3 3 7zM180.5 153.5q-2.5 -6.5 -3.5 -9.5h16q3 10 4 27h-2q-9 0 -18 -2l-9 9h48l10 9
l14 -16h-31q-1 -15 -4 -27h20l8 7l12 -14h-41l-2 -3l13 -6l-4 -6v-13q-1 -5 8 -7h9q5 2 6 5.5t2 18.5h4q0 -9 1.5 -15.5t6.5 -8.5q-4 -9 -15 -10h-20q-14 0 -13 14v23q-5 -13 -18.5 -26t-34.5 -19l-1 3q17 9 29.5 22.5t16.5 27.5h-16l-5 -3l-10 10q6 2 8 10t3 15l14 -7
q-3 -2 -5.5 -8.5zM123 55h86v19h-86v-19zM123 27h86v21h-86v-21zM123 81h85l8 8l15 -13l-9 -6v-39q0 -8 1 -17l-14 -5v11h-86v-8l-14 -5q1 11 1 18v36q0 15 -1 26zM121 217h30l10 10l13 -17h-41q8 -5 11.5 -9.5t3 -9t-5 -8t-6 3t-4 13t-6.5 10.5h-7q-11 -16 -24 -26l-3 2
q10 12 16.5 25.5t10.5 33.5l16 -10l-5 -4q-7 -9 -9 -14zM190 217h31l10 10l13 -17h-42q10 -4 14 -8t3 -8.5t-4.5 -9t-6.5 5t-12 20.5h-9q-11 -20 -26 -31l-2 3q13 16 19 32.5t8 30.5l18 -9l-6 -4q-3 -7 -8 -15z" />
  </g>

</svg>
