<?xml version="1.0" standalone="no"?>
<!DOCTYPE svg PUBLIC "-//W3C//DTD SVG 1.1//EN" "http://www.w3.org/Graphics/SVG/1.1/DTD/svg11.dtd" >
<svg xmlns="http://www.w3.org/2000/svg" xmlns:xlink="http://www.w3.org/1999/xlink" version="1.1" viewBox="0 -205 1024 1024">
  <g transform="matrix(1 0 0 -1 0 819)">
   <path fill="currentColor"
d="M138 724h638l40 44l58 -52q3 -3 4 -8q0 -9 -12 -8h-330v-72h336l26 34l54 -46q14 -10 14 -16q-3 -6 -18 -8q-27 -7 -48 -28q-19 -21 -56 -62l-14 8l46 94h-340v-98l4 -78q0 -18 -20 -30q-21 -10 -38 -10l4 120v96h-322q-5 -42 -16 -68q-12 -26 -30 -40q-18 -13 -38 -10
q-18 2 -24 20q-4 18 16 30q18 12 40 36q20 24 32 96h16l2 -40h324v72h-280q-20 0 -46 -8l-22 32v0v0zM204 544h204v-24h-204v24v0v0zM206 466h204v-24h-204v24v0v0zM598 546h196v-24h-196v24v0v0zM600 464h196v-24h-196v24v0v0zM420 196q9 -3 10 -12q0 -7 -18 -10
q-34 -1 -70 -20q-34 -19 -104 -55l508 12q-58 51 -116 85l8 16q87 -34 138 -65q50 -30 64 -54q15 -24 12 -40q-4 -18 -16 -24t-24 0q-13 6 -22 24q-9 14 -26 36q-341 -15 -424 -24q-83 -6 -148 -34l-34 74l56 12q83 44 158 113l48 -34v0v0zM166 364h562l36 40l64 -44
q3 -4 4 -10q0 -12 -12 -12h-584q-21 0 -44 -8l-26 34v0v0zM46 264h822l40 44l60 -48q3 -4 4 -10q0 -12 -12 -12h-844q-21 0 -44 -8l-26 34v0v0zM282 964q10 -9 0 -18q-21 -4 -30 -10l-14 -14l-20 -30h204l40 44l62 -54q9 -16 -8 -16h-212q41 -27 58 -42q14 -15 20 -30
q5 -16 -4 -32q-8 -16 -28 -14q-19 2 -22 26q-3 21 -12 40q-10 18 -40 52h-72q-68 -99 -130 -162l-14 12q51 75 88 142t62 140l72 -34v0v0zM676 962q10 -9 0 -18q-23 -5 -28 -10q-5 -4 -10 -10q-4 -6 -22 -32h236l40 46l62 -56q9 -16 -8 -16h-234q38 -26 56 -40
q15 -14 22 -34q7 -19 -4 -34q-12 -16 -30 -10q-19 6 -22 30q-4 23 -14 40q-9 18 -36 48h-80q-54 -75 -96 -126l-18 10q41 67 68 122q24 53 42 118l76 -28v0v0z" />
  </g>

</svg>
