<?xml version="1.0" standalone="no"?>
<!DOCTYPE svg PUBLIC "-//W3C//DTD SVG 1.1//EN" "http://www.w3.org/Graphics/SVG/1.1/DTD/svg11.dtd" >
<svg xmlns="http://www.w3.org/2000/svg" xmlns:xlink="http://www.w3.org/1999/xlink" version="1.1" viewBox="0 -246 2048 2048">
  <g transform="matrix(1 0 0 -1 0 1802)">
   <path fill="currentColor"
d="M1298 1682v-211q0 -400 -98 -698q-150 -451 -523 -678l-32 43q326 264 442 665q82 280 82 668v211h-305l-21 51h830l81 104q127 -108 127 -137q0 -16 -16 -26l-51 -35q-3 -1099 -78 -1329q-53 -171 -254 -186q0 62 -76 96q-51 21 -206 49v53q187 -24 288 -24
q118 0 139 115q61 296 64 1113v156h-393zM395 564v514h-240l-20 51h260v483h-272l-19 51h531l74 135q77 -74 129 -147l-23 -39h-301v-483h82l90 135q69 -72 121 -149l-21 -37h-272v-477q209 69 373 135l16 -47q-296 -161 -670 -301q-9 -88 -37 -88q-48 0 -100 184
q111 23 299 80z" />
  </g>

</svg>
