<?xml version="1.0" standalone="no"?>
<!DOCTYPE svg PUBLIC "-//W3C//DTD SVG 1.1//EN" "http://www.w3.org/Graphics/SVG/1.1/DTD/svg11.dtd" >
<svg xmlns="http://www.w3.org/2000/svg" xmlns:xlink="http://www.w3.org/1999/xlink" version="1.1" viewBox="0 -36 256 256">
  <g transform="matrix(1 0 0 -1 0 220)">
   <path fill="currentColor"
d="M53 217q0 14 -1 30l20 -9l-7 -8v-23h19l11 11l14 -18h-44v-23h21l8 10l13 -13l-8 -7v-47q1 -9 1 -18l-13 -5v5h-22v-27h24l9 11l15 -18h-48v-14q0 -18 1 -39l-14 -8q1 23 1 42v19h-17q-11 0 -20 -2l-9 9h46v27h-20v-4l-14 -4q1 13 1 28v32q0 16 -1 32l14 -9h20v23h-13
q-11 -1 -20 -3l-9 10h42v10zM33 170v-27h20v27h-20zM65 170v-27h22v27h-22zM65 136v-27h22v27h-22zM33 136v-27h20v27h-20zM219 162l7 13h-105q1 -15 -5 -20t-11.5 -2.5t1.5 11.5t11 25h3l1 -7h106l7 9l14 -16q-13 -1 -26 -15zM227 156l-8 -5q0 -21 1 -38l-14 -4v3h-43
l13 -8l-6 -2q-8 -4 -32 -18l67 1q-8 8 -17 15l2 2q23 -9 33 -16t5 -15t-8.5 -3t-9.5 11l-31 -2v-20h20l10 9l16 -16h-46v-19q24 -7 69 -5v-4q-13 -3 -17 -12q-31 0 -57.5 9.5t-42.5 24.5q-13 -22 -38 -36l-2 2q27 24 36 60l16 -11q-5 -2 -10 -11q18 -11 33 -15v43
q-29 -3 -39 -7l-7 14q20 7 40 29h-22v-4l-14 -4q1 16 1 33t-1 30l14 -7h68l8 8zM206 140v13h-27v-13h27zM179 133v-14h27v14h-27zM138 140h28v13h-28v-13zM138 119h28v14h-28v-14zM186 239l-5 -6v-10h29l11 11l16 -18h-56v-16h19l12 8l14 -15h-76q-8 0 -17 -2l-9 9h44v16
h-29q-9 0 -18 -2l-9 9h56q0 7 -1 24z" />
  </g>

</svg>
