<?xml version="1.0" standalone="no"?>
<!DOCTYPE svg PUBLIC "-//W3C//DTD SVG 1.1//EN" "http://www.w3.org/Graphics/SVG/1.1/DTD/svg11.dtd" >
<svg xmlns="http://www.w3.org/2000/svg" xmlns:xlink="http://www.w3.org/1999/xlink" version="1.1" viewBox="0 -36 256 256">
  <g transform="matrix(1 0 0 -1 0 220)">
   <path fill="currentColor"
d="M42 180q-13 0 -25 -3l-9 10h56v30q-28 -6 -49 -8l-1 3q56 13 85 31l14 -15q-15 -1 -35 -8v-33h27l12 12l15 -19h-54v-11q18 -3 30.5 -10.5t9 -19t-13.5 3t-26 22.5q0 -19 1 -36l-16 -5q1 11 1 24v25q-25 -42 -54 -63l-2 2q29 31 43 68h-9zM49 75h45v33h-45v-33zM49 68
v-33h45v33h-45zM51 115h42l8 9l14 -14l-8 -5v-41q0 -21 1 -40l-14 -6v10h-45v-10l-14 -7q1 14 1 27v50q0 16 -1 34zM187 237l-10 -7q25 -69 71 -81l-1 -5q-13 1 -19 -9q-37 25 -53 90q-20 -69 -60 -98l-2 3q37 37 54 116zM171 8l-5 1q6 13 38 91h-42q-13 1 -24 -2l-9 9h77
l8 10l13 -17l-10 -6q-35 -71 -46 -86zM183 142l11 12l13 -19h-47q-12 0 -14 -2l-5 9h42z" />
  </g>

</svg>
