<?xml version="1.0" standalone="no"?>
<!DOCTYPE svg PUBLIC "-//W3C//DTD SVG 1.1//EN" "http://www.w3.org/Graphics/SVG/1.1/DTD/svg11.dtd" >
<svg xmlns="http://www.w3.org/2000/svg" xmlns:xlink="http://www.w3.org/1999/xlink" version="1.1" viewBox="0 -205 1024 1024">
  <g transform="matrix(1 0 0 -1 0 819)">
   <path fill="currentColor"
d="M384 846h260v142l78 -32q7 -3 8 -6q13 -7 -34 -26v-78h188l34 46l64 -56l4 -4q10 -12 -4 -14h-286v-86h148l22 36l54 -34q12 -6 12 -14q-1 -5 -28 -28v-190l4 -74q0 -13 -20 -22q-21 -7 -36 -8v62h-156v-34l2 -24q3 -16 -20 -26q-24 -10 -38 -10l4 46v48h-146v-60
q1 -13 -22 -26q-21 -13 -32 -10l4 76v324l50 -32h146v86h-180q-21 0 -56 -8l-24 36v0v0zM498 486h146v94h-146v-94v0v0zM696 580v-94h156v94h-156v0v0zM498 608h146v96h-146v-96v0v0zM696 704v-96h156v96h-156v0v0zM752 966q63 -19 84 -34q19 -13 26 -28q6 -16 0 -28
q-3 -13 -18 -16q-14 -1 -22 8q-7 9 -16 30q-8 22 -58 56l4 12v0v0zM364 318h428v92l68 -28q9 -4 10 -10q3 -3 -2 -6q-3 0 -26 -12v-36h78l28 46l56 -54q3 -4 4 -10q0 -10 -12 -10h-154v-207q-3 -27 -24 -42q-19 -15 -52 -18q-9 35 -48 48q-36 13 -62 22l2 16q84 -18 108 -16
q25 0 26 20v177h-344q-22 0 -70 -8l-14 36v0v0zM492 278q45 -23 66 -40q19 -15 32 -32q13 -16 14 -34q0 -19 -12 -32q-10 -10 -26 -7t-20 23q-3 21 -12 46q-9 21 -50 66l8 10v0v0zM114 924l68 -32q15 -6 16 -12q0 -3 -36 -24v-188h118v302l74 -30q7 -4 8 -8q0 -7 -6 -8
l-30 -16v-240h18l30 32l52 -44q1 -3 0 -6q0 -7 -6 -8h-258v-130v-44h108l26 36l56 -38q6 -4 6 -8q0 -3 -32 -30v-262l4 -99q1 -13 -16 -20q-16 -9 -38 -10l4 131v274h-118q-6 -142 -32 -238q-25 -94 -94 -173l-12 8q55 93 74 207q18 110 16 266v412v0v0z" />
  </g>

</svg>
