<?xml version="1.0" standalone="no"?>
<!DOCTYPE svg PUBLIC "-//W3C//DTD SVG 1.1//EN" "http://www.w3.org/Graphics/SVG/1.1/DTD/svg11.dtd" >
<svg xmlns="http://www.w3.org/2000/svg" xmlns:xlink="http://www.w3.org/1999/xlink" version="1.1" viewBox="0 -36 256 256">
  <g transform="matrix(1 0 0 -1 0 220)">
   <path fill="currentColor"
d="M29 120q0 54 -1 68l16 -7h54l8 7l16 -12l-9 -3v-22q0 -16 1 -26l-15 -6v7h-57v-112l-14 -6q1 58 1 112zM154 157h59v17h-59v-17zM154 134h59v16h-59v-16zM203 26q10 0 10 10v91h-59v-3l-14 -5q1 24 1 39.5t-1 29.5l16 -7h55l8 9l17 -13l-10 -4v-141q0 -16 -21 -24
q-2 13 -30 14v5q18 -1 28 -1zM42 157h57v17h-57v-17zM42 133h57v17h-57v-17zM79 106l-13 -2l-9 9h114l11 8l16 -15h-41v-30h25l11 10l15 -17h-51v-20q0 -10 1 -26l-16 -7q1 15 1 30v23h-30q-6 -38 -51 -53l-2 3q35 18 39 50h-19q-13 1 -22 -2l-9 9h50v30h-20zM113 106v-30
h30v30h-30zM66 233l-10 -13h53l10 11l16 -18h-55q19 -9 20 -16t-5 -12.5t-9 6t-15 22.5h-19q-18 -21 -39 -35l-4 2q16 16 27 31.5t19 36.5l21 -12zM170 234l-11 -14h57l11 10l15 -17h-61q14 -6 18.5 -11t3 -11t-6 -7t-8 8.5t-16.5 20.5h-17q-12 -15 -27 -28l-4 2
q19 26 25.5 39t9.5 22l22 -12z" />
  </g>

</svg>
