<?xml version="1.0" standalone="no"?>
<!DOCTYPE svg PUBLIC "-//W3C//DTD SVG 1.1//EN" "http://www.w3.org/Graphics/SVG/1.1/DTD/svg11.dtd" >
<svg xmlns="http://www.w3.org/2000/svg" xmlns:xlink="http://www.w3.org/1999/xlink" version="1.1" viewBox="0 -205 1024 1024">
  <g transform="matrix(1 0 0 -1 0 819)">
   <path fill="currentColor"
d="M418 902h370l32 42l56 -44q12 -6 12 -14q0 -4 -38 -26l-12 -264h60l40 48l54 -54q6 -4 6 -10q0 -10 -12 -10h-270q21 -104 54 -172q48 35 120 118q55 -48 56 -56q0 -9 -6 -8h-20q-14 1 -46 -16q-33 -19 -96 -58q32 -76 74 -116q38 -39 68 -56q27 -16 82 -32v-14
q-45 0 -60 -6q-15 -7 -36 -21q-63 55 -102 113q-39 57 -60 120q-21 60 -48 198h-8v-435q0 -57 -20 -78q-22 -19 -58 -32q-8 32 -34 46q-27 16 -86 34l6 18q107 -28 124 -24q18 3 16 44v199q-192 -123 -206 -138q-12 -15 -32 -38l-56 46l294 154v210h-210q-19 0 -44 -8
l-16 34h422l6 126h-272q-24 0 -44 -8l-28 34h344l6 128h-310q-24 -1 -48 -10l-24 36v0v0zM444 506q46 -28 80 -62q36 -33 34 -56q-3 -22 -14 -32q-12 -11 -26 -6q-15 3 -18 28q-4 24 -16 48q-12 26 -48 68l8 12v0v0zM168 980q80 -46 104 -74q21 -27 22 -54q1 -24 -12 -36
q-12 -10 -26 -8q-15 2 -20 32q-4 30 -16 54q-12 25 -62 74l10 12v0v0zM34 748h264l26 38l66 -46q3 -6 0 -8q0 -3 -14 -12q-34 -21 -44 -42q-27 -49 -66 -112q42 -21 70 -36q24 -12 46 -32q18 -19 22 -34q4 -16 -4 -32q-6 -15 -24 -18q-15 0 -24 24q-9 25 -32 56
q-21 30 -60 54v-372l4 -99q0 -20 -20 -32q-21 -12 -36 -12l4 141v320q-72 -99 -176 -182l-12 10q86 92 134 158q44 62 80 122q33 56 64 122h-198q-24 0 -48 -8l-22 32v0v0z" />
  </g>

</svg>
