<?xml version="1.0" standalone="no"?>
<!DOCTYPE svg PUBLIC "-//W3C//DTD SVG 1.1//EN" "http://www.w3.org/Graphics/SVG/1.1/DTD/svg11.dtd" >
<svg xmlns="http://www.w3.org/2000/svg" xmlns:xlink="http://www.w3.org/1999/xlink" version="1.1" viewBox="0 -205 1024 1024">
  <g transform="matrix(1 0 0 -1 0 819)">
   <path fill="currentColor"
d="M404 974q132 -61 154 -92q19 -30 14 -54q-4 -24 -20 -30q-15 -3 -26 0q-12 3 -18 28q-7 21 -28 54q-21 32 -84 82l8 12v0v0zM74 774h780l40 62l74 -70q3 -3 4 -8q0 -12 -18 -12h-506q-4 -105 -14 -170h276l28 40l62 -46q9 -10 10 -16q0 -6 -36 -24q-19 -247 -28 -298
q-9 -52 -24 -82q-12 -27 -38 -51q-27 -23 -72 -38q-10 40 -38 56q-28 15 -86 39l6 16q71 -18 110 -24q36 -7 54 8q18 12 30 72q14 59 32 322h-288q-21 -183 -102 -308q-81 -126 -270 -213l-6 14q151 96 218 195q67 100 92 212q24 112 30 296h-236q-21 0 -68 -8l-16 36v0v0z
" />
  </g>

</svg>
