<?xml version="1.0" standalone="no"?>
<!DOCTYPE svg PUBLIC "-//W3C//DTD SVG 1.1//EN" "http://www.w3.org/Graphics/SVG/1.1/DTD/svg11.dtd" >
<svg xmlns="http://www.w3.org/2000/svg" xmlns:xlink="http://www.w3.org/1999/xlink" version="1.1" viewBox="0 -205 1024 1024">
  <g transform="matrix(1 0 0 -1 0 819)">
   <path fill="currentColor"
d="M644 984l80 -30q1 -1 2 -4q1 -4 -4 -8l-30 -16v-132h36q50 72 94 144l60 -38q6 -9 4 -12q-3 -3 -12 -2q-7 -1 -16 -4q-9 -2 -26 -16q-17 -15 -76 -72h142l28 28l54 -48q6 -5 6 -10q-1 -6 -16 -8q-27 -8 -60 -40l-44 -46l-14 8l48 90h-444q-3 -56 -20 -76q-18 -20 -38 -22
q-22 -1 -28 16q-6 18 10 30q15 12 34 40q15 27 22 90h20v-52h188v190v0v0zM500 752l46 -22h222l26 24l38 -28q12 -6 12 -12q1 -7 -22 -22v-48l4 -34q-3 -7 -18 -14q-13 -4 -32 -4v26h-230v-10q-3 -10 -18 -16q-15 -4 -32 -4l4 74v90v0v0zM546 640h230v66h-230v-66v0v0z
M428 600l52 -34h360l26 30l48 -34q7 -6 8 -8q0 -7 -30 -28v-100l4 -42q0 -15 -14 -24q-15 -8 -36 -10v26h-162v-62h136l28 26l44 -36q6 -9 -2 -14h-206v-66h206l30 36l56 -44q3 -3 4 -8q1 -9 -10 -8h-556q-22 0 -46 -8l-14 32h282v66h-124q-18 0 -66 -8l-18 32h208v62h-162
v-10q0 -6 -8 -12q-12 -15 -42 -14l4 82v178v0v0zM474 402h162v140h-162v-140v0v0zM684 540v-140h162v140h-162v0v0zM438 176h20q-6 -55 -20 -89q-13 -30 -28 -46q-15 -17 -36 -22q-18 -3 -30 6t-8 24q2 12 22 24q18 9 42 26q22 19 38 77v0v0zM692 174l12 8q51 -36 66 -55
q16 -21 20 -42q3 -21 -8 -36q-11 -10 -28 -8q-15 4 -18 28q0 24 -6 42q-6 17 -38 63v0v0zM828 168l8 12q70 -33 98 -57t32 -48q3 -21 -8 -34q-12 -13 -26 -8q-13 3 -22 30q-9 24 -26 48q-15 23 -56 57v0v0zM542 174l12 8q34 -40 50 -61q15 -21 18 -46q0 -22 -12 -32
q-11 -12 -28 -6q-16 3 -16 24q0 22 -2 46q-4 23 -22 67v0v0zM446 938l10 10q60 -24 90 -48q32 -24 32 -48q1 -22 -10 -32q-12 -11 -26 -6q-12 3 -18 18q-4 12 -16 40q-12 24 -62 66v0v0zM502 524l8 8q41 -24 62 -42q20 -18 22 -36q3 -16 -8 -28q-9 -10 -24 -8q-13 2 -16 20
q0 15 -12 36q-10 20 -32 50v0v0zM720 420q27 47 54 110l52 -30q4 -5 2 -10q-3 -4 -8 -4q-6 0 -14 -2q-9 0 -24 -18q-16 -15 -46 -54l-16 8v0v0zM40 750h154v232l84 -32q9 -5 4 -10q-4 -5 -40 -22v-168h44l34 40l54 -52q8 -14 -10 -16h-122v-206l120 68l10 -16l-130 -90v-361
q3 -36 -14 -60q-18 -21 -62 -36q-4 35 -34 48q-29 15 -82 30l4 18q96 -24 118 -18q21 6 22 32v313q-51 -33 -72 -54q-21 -18 -32 -42l-52 52l156 94v228h-78q-34 -1 -52 -10l-24 38v0v0z" />
  </g>

</svg>
