<?xml version="1.0" standalone="no"?>
<!DOCTYPE svg PUBLIC "-//W3C//DTD SVG 1.1//EN" "http://www.w3.org/Graphics/SVG/1.1/DTD/svg11.dtd" >
<svg xmlns="http://www.w3.org/2000/svg" xmlns:xlink="http://www.w3.org/1999/xlink" version="1.1" viewBox="0 -36 256 256">
  <g transform="matrix(1 0 0 -1 0 220)">
   <path fill="currentColor"
d="M207 226q3 -108 15 -150.5t25 -49.5v-3q-13 1 -18 -7q-18 33 -24 81.5t-5 125.5l-21 -6v-173l16 8q-3 8 -8 17l3 2q16 -15 21 -24t-1.5 -17t-8 -0.5t-4.5 16.5q-14 -9 -27 -24l-10 13q8 7 7 16v163l-19 -5q1 -109 -8.5 -143.5t-36.5 -58.5l-3 3q19 22 28 63t6 150l13 -7
q53 16 66 30l16 -16q-8 0 -22 -4zM114 31l-14 -5v16h-71v-18l-14 -8q1 52 1 104.5t-1 66.5l14 -9h17v41h-8q-10 -1 -19 -3l-9 10h92l11 11l14 -18h-42v-41h14l7 12l15 -12l-8 -9v-101q0 -21 1 -37zM58 178h15v41h-15v-41zM73 128v43h-15q0 -19 -3.5 -36t-23.5 -37l-2 3
q13 18 15 34.5t2 35.5h-17v-85h71v29h-13q-14 0 -14 13zM85 137q0 -12 5 -12h10v46h-15v-34zM100 79h-71v-30h71v30z" />
  </g>

</svg>
