<?xml version="1.0" standalone="no"?>
<!DOCTYPE svg PUBLIC "-//W3C//DTD SVG 1.1//EN" "http://www.w3.org/Graphics/SVG/1.1/DTD/svg11.dtd" >
<svg xmlns="http://www.w3.org/2000/svg" xmlns:xlink="http://www.w3.org/1999/xlink" version="1.1" viewBox="0 -36 256 256">
  <g transform="matrix(1 0 0 -1 0 220)">
   <path fill="currentColor"
d="M149 72v108q0 30 -1 57l16 -11h53l9 10l15 -16q-11 -2 -49 -64q22 -12 37.5 -28.5t10.5 -41t-42 -35.5q2 15 -28 17v6q38 -4 46.5 4t8 22t-10 26t-31.5 29l32 64h-52v-146q0 -27 1 -58l-16 -7q1 34 1 64zM112 224l14 12l16 -19h-52q-6 -22 -16 -45l16 -9l-7 -8v-102
q0 -21 1 -37l-16 -8q1 20 1 42v109q-23 -53 -59 -90l-2 3q43 64 67 145h-32h-1q-4 1 -15 -2l-9 9h94zM135.5 86.5q-7.5 -13.5 -12 6t-33.5 55.5l2 4q31 -25 41 -38.5t2.5 -27z" />
  </g>

</svg>
