<?xml version="1.0" standalone="no"?>
<!DOCTYPE svg PUBLIC "-//W3C//DTD SVG 1.1//EN" "http://www.w3.org/Graphics/SVG/1.1/DTD/svg11.dtd" >
<svg xmlns="http://www.w3.org/2000/svg" xmlns:xlink="http://www.w3.org/1999/xlink" version="1.1" viewBox="0 -205 1024 1024">
  <g transform="matrix(1 0 0 -1 0 819)">
   <path fill="currentColor"
d="M856 686l36 44l52 -50q12 -7 10 -14q0 -6 -14 -6h-810q-19 0 -68 -8l-16 34h810v0v0zM246 634l46 -30h392l28 32q59 -37 62 -44q2 -7 -28 -28v-70h124l38 46l62 -52q3 -3 4 -8q0 -12 -12 -12h-216v-50l4 -52q1 -10 -16 -22q-16 -12 -38 -12v26h-180q27 -49 112 -130
q48 33 168 120q45 -49 48 -58q0 -7 -6 -8q-7 0 -20 4q-11 3 -52 -14q-40 -16 -118 -58q68 -45 118 -66q51 -19 96 -29q44 -9 112 -12v-18q-48 0 -66 -12q-15 -11 -32 -32q-76 20 -166 78q-91 56 -142 117q-51 60 -80 118h-14q-51 -47 -102 -100v-165l182 81l8 -16
q-148 -76 -172 -95q-24 -16 -56 -48l-50 46q30 18 40 38v123q-78 -61 -162 -101q-81 -42 -128 -60l-8 16q75 40 138 81q63 40 124 86q57 45 118 114h-110v-20q0 -13 -18 -22q-18 -10 -36 -10l4 90v72h-138q-20 1 -64 -10l-20 36h222v140v0v0zM296 384h400v84h-400v-84v0v0z
M296 494h400v84h-400v-84v0v0zM270 958q10 -9 0 -18q-21 -4 -30 -10l-14 -14l-20 -30h204l40 44l62 -54q9 -16 -8 -16h-212q41 -27 58 -42q14 -15 20 -30q5 -16 -4 -32q-8 -16 -28 -14q-19 2 -22 26q-3 21 -12 40q-10 18 -40 52h-72q-68 -99 -130 -162l-14 12q51 75 88 142
t62 140l72 -34v0v0zM412 786l4 14q63 -18 88 -30q24 -13 30 -32q4 -18 -6 -30q-9 -13 -26 -10q-15 2 -18 14q-3 9 -18 28q-12 18 -54 46v0v0zM680 958q10 -9 0 -18q-23 -5 -28 -10q-6 -3 -12 -8q-4 -3 -26 -32h238l40 46l62 -56q9 -16 -8 -16h-258q39 -27 58 -44
q18 -15 24 -36q7 -19 -4 -34q-12 -16 -30 -10q-19 6 -22 30q-4 23 -16 44q-10 19 -38 50h-58q-32 -43 -76 -94l-16 12q30 53 52 100q20 45 38 106l80 -30v0v0z" />
  </g>

</svg>
