<?xml version="1.0" standalone="no"?>
<!DOCTYPE svg PUBLIC "-//W3C//DTD SVG 1.1//EN" "http://www.w3.org/Graphics/SVG/1.1/DTD/svg11.dtd" >
<svg xmlns="http://www.w3.org/2000/svg" xmlns:xlink="http://www.w3.org/1999/xlink" version="1.1" viewBox="0 -205 1024 1024">
  <g transform="matrix(1 0 0 -1 0 819)">
   <path fill="currentColor"
d="M590 512l80 -26q3 -3 4 -6q3 -4 -2 -8l-32 -18v-84q-3 -147 -62 -216q-60 -67 -168 -125l-8 14q99 71 144 133q43 63 44 186v150v0v0zM786 504l74 -30q12 -9 -2 -18l-22 -10v-288l4 -83q1 -17 -18 -32q-19 -14 -40 -14l4 125v350v0v0zM142 970l72 -28q7 -6 2 -12l-26 -18
v-76h126v130l70 -28q12 -9 0 -14l-22 -16v-72h50l32 46l54 -58q6 -12 -6 -14h-130v-68l4 -60q-1 -15 -20 -24q-18 -8 -32 -6v40h-38v-114h88l30 34l48 -38q11 -10 8 -16q-3 -4 -26 -16v-112l4 -58q0 -12 -18 -24q-19 -10 -34 -10v56h-100v-124h102l36 48l58 -56
q10 -15 -6 -18h-190v-92l4 -91q1 -14 -22 -26q-21 -12 -36 -10l4 125v94h-124q-21 0 -62 -8l-18 34h204v124h-98v-38q0 -11 -20 -22q-19 -10 -32 -10l4 84v206l52 -36h94v114h-40v-20q3 -15 -12 -24q-15 -10 -38 -10l4 72v100h-40q-27 -1 -54 -10l-18 36h112v134v0v0z
M130 420h98v132h-98v-132v0v0zM278 420h100v132h-100v-132v0v0zM190 716h126v94h-126v-94v0v0zM722 876q-14 -101 -40 -166h204l40 44l52 -50q2 -3 8 -8q3 -12 -8 -12h-200q13 -48 50 -90q35 -41 82 -70q47 -27 104 -38v-16q-28 0 -46 -2q-18 -3 -42 -24q-51 36 -80 66
q-27 31 -50 68q-21 35 -44 106h-78q-51 -96 -104 -162q-52 -66 -118 -120l-12 12q49 48 98 120q47 69 86 150h-106q-22 0 -70 -8l-14 34h198q24 62 34 158q-104 -9 -172 -14l-2 18q114 14 226 38q109 24 182 52q47 -58 44 -64q-2 -8 -10 -6q-7 0 -16 4q-10 3 -50 -2
q-39 -6 -146 -18v0v0z" />
  </g>

</svg>
