<?xml version="1.0" standalone="no"?>
<!DOCTYPE svg PUBLIC "-//W3C//DTD SVG 1.1//EN" "http://www.w3.org/Graphics/SVG/1.1/DTD/svg11.dtd" >
<svg xmlns="http://www.w3.org/2000/svg" xmlns:xlink="http://www.w3.org/1999/xlink" version="1.1" viewBox="0 -205 1024 1024">
  <g transform="matrix(1 0 0 -1 0 819)">
   <path fill="currentColor"
d="M482 664l44 -24h162l34 36l56 -42l4 -8q0 -6 -30 -26v-284l4 -80q0 -12 -20 -26q-17 -12 -34 -12v56h-170v-56q0 -13 -18 -26q-18 -12 -36 -12l4 116v388v0v0zM532 280h170v158h-170v-158v0v0zM532 464h170v150h-170v-150v0v0zM650 942q7 -4 8 -8q3 -9 -6 -12
q-15 -6 -24 -8q-8 -3 -22 -26q-13 -21 -44 -78h308l30 42l64 -40q9 -6 6 -12q0 -6 -30 -26v-536q-4 -125 -34 -161q-31 -35 -80 -52q-3 30 -30 42q-25 12 -98 30l4 18q95 -13 122 -12q24 2 42 16q15 11 22 115v550h-346q-62 -111 -154 -216l-12 10q80 125 130 230
q51 104 72 170l72 -36v0v0zM38 742h186v244l80 -34q21 -7 -2 -20l-28 -12v-178h64l34 46l54 -54q3 -4 4 -8q0 -12 -14 -12h-142v-108q60 -39 88 -60q27 -22 36 -46q9 -21 0 -42q-9 -19 -26 -16q-15 1 -24 26q-7 25 -22 50q-16 24 -52 66v-394l4 -107q-1 -15 -22 -30
q-18 -11 -36 -14l4 147v380q-28 -76 -82 -164q-54 -86 -110 -142l-12 10q51 72 90 148q36 75 66 150q29 73 46 146h-112q-22 0 -52 -8l-20 36v0v0z" />
  </g>

</svg>
