<?xml version="1.0" standalone="no"?>
<!DOCTYPE svg PUBLIC "-//W3C//DTD SVG 1.1//EN" "http://www.w3.org/Graphics/SVG/1.1/DTD/svg11.dtd" >
<svg xmlns="http://www.w3.org/2000/svg" xmlns:xlink="http://www.w3.org/1999/xlink" version="1.1" viewBox="0 -205 1024 1024">
  <g transform="matrix(1 0 0 -1 0 819)">
   <path fill="currentColor"
d="M914 932l56 -56q3 -2 4 -10q0 -6 -14 -6h-130v-278h68l36 46l60 -56q12 -12 -2 -20h-162v-427q1 -51 -22 -72q-22 -21 -56 -34q-8 36 -46 50q-36 14 -80 28l4 18q72 -15 94 -16q22 -3 38 6q18 7 16 45v402h-14q-43 -124 -94 -208q-48 -81 -126 -156q-78 -73 -210 -155
l-10 16q114 83 184 157q69 72 114 150q44 78 86 196h-132l-26 -34l-56 44q15 12 24 30q27 95 48 206l70 -30q6 -2 6 -10q0 -6 -18 -12q-10 -6 -16 -18q-24 -88 -42 -146h212v278h-198q-26 1 -58 -10l-18 38h378l32 44v0v0zM270 896q9 -10 -8 -16q-18 -4 -32 -14
q-90 -114 -182 -198l-12 12q98 116 172 256l62 -40v0v0zM146 458l54 -24h158l26 36l54 -40q6 -6 6 -8q-1 -7 -22 -22v-154l4 -64q1 -19 -16 -32q-18 -14 -38 -13v41h-176v-53q0 -14 -18 -28q-18 -15 -36 -16l4 141v236v0v0zM196 202h176v208h-176v-208v0v0zM336 732
q12 -9 -6 -18l-20 -8l-16 -22q66 -34 106 -58q39 -22 64 -50q22 -27 18 -50q-3 -22 -24 -28q-21 -4 -32 20q-11 25 -40 62q-30 35 -102 88q-36 -57 -110 -150t-136 -138l-10 12q51 60 120 154q69 93 130 222l58 -36v0v0zM320 930q69 -33 108 -62q38 -27 50 -54q10 -26 2 -46
q-10 -18 -28 -18t-24 24q-6 21 -36 58q-27 35 -80 86l8 12v0v0z" />
  </g>

</svg>
