<?xml version="1.0" standalone="no"?>
<!DOCTYPE svg PUBLIC "-//W3C//DTD SVG 1.1//EN" "http://www.w3.org/Graphics/SVG/1.1/DTD/svg11.dtd" >
<svg xmlns="http://www.w3.org/2000/svg" xmlns:xlink="http://www.w3.org/1999/xlink" version="1.1" viewBox="0 -36 256 256">
  <g transform="matrix(1 0 0 -1 0 220)">
   <path fill="currentColor"
d="M136.5 82q-1.5 -8 -1.5 -26.5t1 -27.5t-9.5 -2t-5.5 23t-0.5 23.5t-17.5 8.5v5q15 -2 19.5 -0.5t8 10t26.5 87.5l5 -1q-24 -92 -25.5 -100zM132.5 146q0.5 -9 -5 -14.5t-9 6.5t-16.5 29l2 2q28 -14 28.5 -23zM150 207.5q3 -8.5 -3.5 -16t-9 4.5t-18.5 30l3 3
q25 -13 28 -21.5zM205 118q10 -1 10 12v80h-39v-159q-1 -17 13 -17h30q10 1 10.5 11.5t0.5 39.5h5q0 -13 2 -29.5t10 -18.5q-5 -13 -18 -16h-43q-25 -1 -23 33v123q0 28 -1 52l18 -12h35l8 11l14 -13l-9 -7v-84q1 -19 -17 -26q-1 12 -24 16v5q8 0 18 -1zM63 155
q-1 16 -11 36l3 2q28 -25 18.5 -39.5t-10.5 1.5zM82 235l-9 -3q-7 -11 -14 -21h26l8 10l12 -12l-7 -7v-153q1 -29 -20 -35q0 11 -21 18v4q16 -2 22 -2t6 11v159h-38v-48q1 -47 -5.5 -83t-26.5 -64l-4 2q14 33 18 59.5t5 64.5v59q0 14 -1 24l13 -7h7q6 15 11 36zM72 94.5
q4 -8.5 2 -16.5t-6.5 -8t-5 11.5t-10.5 31.5l2 3q14 -13 18 -21.5zM19 104l-11 17q16 0 103 28l1 -4q-83 -33 -93 -41z" />
  </g>

</svg>
