<?xml version="1.0" standalone="no"?>
<!DOCTYPE svg PUBLIC "-//W3C//DTD SVG 1.1//EN" "http://www.w3.org/Graphics/SVG/1.1/DTD/svg11.dtd" >
<svg xmlns="http://www.w3.org/2000/svg" xmlns:xlink="http://www.w3.org/1999/xlink" version="1.1" viewBox="0 0 2048 2048">
  <g transform="matrix(1 0 0 -1 0 2048)">
   <path fill="currentColor"
d="M1139 1188l119 -80h490l68 77l84 -55q20 -14 30 -25q9 -11 10 -24q0 -13 -12 -26q-11 -11 -29 -19l-36 -16v-670q0 -42 3 -104q4 -63 8 -103t4 -56q-1 -11 -4 -20q-4 -9 -14 -15q-11 -7 -30 -7q-22 -1 -34 3q-12 5 -20 14q-8 10 -8 23v88h-526v-82q0 -23 -8 -33
q-7 -11 -21 -17t-41 -3q-13 1 -22 5q-10 4 -16 15q-5 12 -4 29q0 12 4 47t8 102t4 106v657l-2 87q-1 49 -1 51zM1242 235h526v239h-526v-239zM1242 537h526v226h-526v-226zM1242 825h526v226h-526v-226zM1032 1344q1 -60 0 -77q0 -18 -3 -149l-3 -131q-3 -87 -10 -175
q-6 -88 -18 -190q-13 -102 -33.5 -192t-54.5 -178q-33 -87 -60 -131l-40 -67l-35 20q19 44 35 84q15 39 37 120q22 82 38 172q16 91 26 200q10 108 15 212q5 103 6 196q2 93 2 175v457l-2 53l-1 68l-5 56l114 -72h721l70 76l84 -54q20 -13 30 -25q10 -11 10 -24
q-1 -14 -11 -26q-11 -11 -32 -19l-33 -14v-283l48 -36q15 -12 12 -29t-20 -17h-887zM1452 1402h330v329h-330v-329zM1032 1731v-329h326v329h-326zM550 655l66 -41q26 -17 59 -41t61 -49q29 -26 49 -52q20 -27 29 -53q10 -26 8 -51q-3 -25 -18 -41t-38 -17q-23 0 -41 33
q-5 7 -13 32q-7 25 -20 53q-13 27 -26 50q-14 22 -32 44q-17 22 -38 44l-49 46l-19 17zM331 565l59 -45q20 -15 58 -47q37 -32 60 -57q24 -25 42 -54q18 -28 25 -54q7 -27 3 -51q-5 -25 -22 -41t-35 -14q-27 2 -37 24t-16 49q-5 27 -14 53q-10 26 -22 50t-27 46.5t-39 51.5
q-25 29 -41 46l-18 18zM111 471l43 -43l38 -44q21 -23 54 -66q33 -42 45 -66q12 -23 19 -50q8 -28 6 -55q-3 -29 -14 -43q-10 -14 -24 -20q-13 -5 -25 -3q-11 1 -21 7q-9 7 -12 14q-4 8 -5 18t-5 39t-7 44t-10 39q-7 23 -17 46q-9 22 -20 44q-12 22 -28 47l-21 33l-24 33z
M660 860l-25 49q-13 26 -26 47l-43 67l25 22l49 -47q19 -19 64 -74q44 -54 64 -92q21 -38 28 -63q6 -25 6 -48q1 -23 -12 -41q-12 -19 -34 -20q-23 0 -33 12q-10 13 -15 28l-11 44t-8 35l-10 36q-14 -6 -47 -19q-34 -12 -80 -27l-238 -72l-84 -27l-8 -32q-6 -24 -13 -30
q-7 -7 -18 -5q-11 0 -19 9q-7 8 -16 31l-48 119l20 14q10 8 22 18q12 11 40 46l55 68l77 101q46 60 74 102l52 83l29 48q-31 -11 -53 -18l-79 -22l-64 -18l-64 -20l-8 -30q-6 -22 -11 -29t-16 -9q-11 -1 -20 8q-8 10 -16 29l-52 118q8 7 15 14t19 23q12 15 28 42
q17 28 48 84l49 95l61 124q41 86 53 115l23 56l22 63l14 40l117 -65q32 -19 43 -29t11 -20q-1 -18 -17 -24t-44 -6h-37l-60 -103q-25 -42 -60 -94l-93 -132l-80 -112q-23 -32 -31 -42l-14 -18q30 1 43 2t77 8l162 14l64 6q10 15 18 29t21 39q13 26 40 84q26 57 33 75l19 48
l112 -59q23 -13 36 -24q12 -11 12 -23q-1 -16 -13 -22t-40 -6h-39l-42 -71q-17 -31 -54 -88l-70 -106q-35 -50 -72 -94l-122 -136q-83 -92 -96 -104l-62 -59q46 6 69 10l213 39l80 14z" />
  </g>

</svg>
