<?xml version="1.0" standalone="no"?>
<!DOCTYPE svg PUBLIC "-//W3C//DTD SVG 1.1//EN" "http://www.w3.org/Graphics/SVG/1.1/DTD/svg11.dtd" >
<svg xmlns="http://www.w3.org/2000/svg" xmlns:xlink="http://www.w3.org/1999/xlink" version="1.1" viewBox="0 -205 1024 1024">
  <g transform="matrix(1 0 0 -1 0 819)">
   <path fill="currentColor"
d="M344 990l78 -28q6 -1 4 -10q0 -3 -30 -20v-54h240v104l78 -30q6 -1 4 -10q0 -3 -30 -20v-44h186l38 48l62 -60q3 -1 4 -8q0 -6 -14 -6h-276v-32q1 -18 -16 -26q-18 -8 -36 -6v64h-240v-36q-1 -16 -16 -22t-36 -6v64h-212q-21 -1 -56 -10l-18 36h286v112v0v0zM660 428
q50 -46 116 -76q62 -30 110 -38q45 -6 108 -8l4 -16q-30 -6 -50 -14q-20 -9 -28 -30q-57 15 -132 52l-6 -16v-70l4 -44q-7 -10 -20 -16t-32 -6v24h-194v-83l208 6q-35 19 -76 40l4 15q42 -10 90 -27q48 -15 72 -30q21 -15 30 -34q8 -15 2 -30q-6 -14 -24 -16q-15 -2 -24 10
q-9 13 -20 26q-10 9 -28 24q-490 -35 -526 -38t-68 -22l-32 58l342 16v85h-190v-18q-6 -12 -20 -19q-13 -5 -34 -10l4 63v124q-117 -60 -210 -92l-4 18q78 35 156 82q77 44 148 110h-236q-20 0 -46 -8l-22 36h332q30 30 72 82h-180v-6q3 -16 -18 -26q-19 -8 -34 -6l4 114
v182l54 -30h494l30 36l60 -42q7 -11 0 -16l-28 -16v-152l4 -48q-1 -10 -16 -20q-15 -9 -36 -12v40h-270q-39 -45 -74 -80h434l38 42l56 -50q11 -12 2 -20h-300v0v0zM260 662h514v76h-514v-76v0v0zM260 562h514v72h-514v-72v0v0zM404 426q-72 -60 -122 -96l16 -16h192v90
l68 -26q10 -3 2 -12l-20 -14v-40h180l16 14q-57 48 -104 100h-228v0v0zM300 194h190v94h-190v-94v0v0zM540 194h194v94h-194v-94v0v0z" />
  </g>

</svg>
