<?xml version="1.0" standalone="no"?>
<!DOCTYPE svg PUBLIC "-//W3C//DTD SVG 1.1//EN" "http://www.w3.org/Graphics/SVG/1.1/DTD/svg11.dtd" >
<svg xmlns="http://www.w3.org/2000/svg" xmlns:xlink="http://www.w3.org/1999/xlink" version="1.1" viewBox="0 -36 256 256">
  <g transform="matrix(1 0 0 -1 0 220)">
   <path fill="currentColor"
d="M60.5 217.5q6.5 -7.5 0.5 -16t-12.5 4t-21.5 26.5l1 3q26 -10 32.5 -17.5zM9 180q31 -11 33 -20t-3.5 -15t-10 5.5t-20.5 26.5zM35.5 87.5q6.5 3.5 33.5 105.5l5 -1q-19 -86 -22.5 -98t-4 -22.5t1 -34.5t-10 -18.5t-8 22t3.5 26.5t-24 15v4q19 -2 25.5 1.5zM98 158v-143
l-14 -7q1 31 1 41v87q0 16 -1 37l14 -8h69q14 22 17 38h-79q-10 0 -20 -2l-10 9h141l11 11l19 -18h-59l16 -10q-5 -1 -14.5 -10.5t-14.5 -17.5h44l6 10l16 -10l-6 -8v-127q1 -13 -19 -22q-3 13 -29 19v4q21 -2 27.5 -2t6.5 8v121h-122zM160 234.5q9 -6.5 2.5 -17.5t-11 2
t-15.5 25l2 2q13 -5 22 -11.5zM138 187.5q5 -6.5 -1 -16.5t-10 3t-16 26l2 2q20 -8 25 -14.5zM153 137q-2 6 -10 15l1 2q22 -8 23.5 -15.5t-7.5 -10.5h27l8 8l15 -15h-59q0 -3 -1 -22h29l7 9l14 -10l-7 -8q-2 -24 -7 -38.5t-18 -18.5q-4 11 -22 16v4q11 -2 20 -2.5t11.5 19
t2.5 22.5h-31q-9 -39 -41 -65l-2 3q18 22 25.5 42.5t7.5 48.5h-6q-11 0 -18 -2l-10 9h52q-2 3 -4 9z" />
  </g>

</svg>
