<?xml version="1.0" standalone="no"?>
<!DOCTYPE svg PUBLIC "-//W3C//DTD SVG 1.1//EN" "http://www.w3.org/Graphics/SVG/1.1/DTD/svg11.dtd" >
<svg xmlns="http://www.w3.org/2000/svg" xmlns:xlink="http://www.w3.org/1999/xlink" version="1.1" viewBox="0 -205 1024 1024">
  <g transform="matrix(1 0 0 -1 0 819)">
   <path fill="currentColor"
d="M324 824q-7 -18 -34 -62h216v226l88 -38q6 0 10 -6q2 -6 -4 -12l-40 -16v-154h218l46 56l68 -66q3 -5 4 -10q-1 -10 -10 -10h-326v-200h310l40 60l72 -70q3 -4 4 -8q0 -10 -14 -10h-848q-21 0 -68 -8l-16 36h466v200h-232q-59 -102 -112 -164l-18 8q48 81 90 174
q41 93 62 172q78 -42 84 -48q4 -5 0 -10q-3 -3 -14 -6q-9 -2 -20 -10q-13 -6 -22 -24v0v0zM276 422l68 -48h372l42 48l70 -56q6 -6 6 -8q-1 -8 -40 -34v-197l6 -70q0 -11 -20 -26q-18 -12 -42 -16v80h-406v-42q0 -13 -12 -26q-12 -12 -48 -16l4 96v315v0v0zM332 123h406v223
h-406v-223v0v0z" />
  </g>

</svg>
