<?xml version="1.0" standalone="no"?>
<!DOCTYPE svg PUBLIC "-//W3C//DTD SVG 1.1//EN" "http://www.w3.org/Graphics/SVG/1.1/DTD/svg11.dtd" >
<svg xmlns="http://www.w3.org/2000/svg" xmlns:xlink="http://www.w3.org/1999/xlink" version="1.1" viewBox="0 -52 256 256">
  <g transform="matrix(1 0 0 -1 0 204)">
   <path fill="currentColor"
d="M137 119q2 -28 -3 -35q-3 -8 -11 -9q1 -5 4 -8q7 -15 22 -25q15 -8 45 -13q29 -5 36 -2q6 4 7 13q0 8 1 29h4v-28q0 -7 1 -10q2 -3 5 -5q3 -3 -1 -6q-3 -3 -16 -4q-12 -2 -38 2q-25 3 -43 13q-18 9 -28 24q-10 16 -15 40q-4 23 -6 46q-1 24 -1 70v19h-65v-52
q1 -73 -5 -106q-5 -33 -25 -55l-2 3q16 24 20 64q2 39 2 96v52q-1 6 -4 10l2 2l10 -9h65l8 9l11 -11q2 -2 1 -2q0 -1 -2 -2l-6 -3v-16q0 -49 1 -69q1 -21 5 -40q2 -10 5 -19q0 2 2 3q6 5 7 9q1 3 2 14q1 7 2 11h3zM155 250l15 -7q3 -1 2 -3q-2 0 -4 -1h-3q-4 -11 -9 -19h65
l7 8l12 -8l2 -2q0 -1 -2 -2l-5 -3v-31q0 -20 -2 -29q-3 -16 -29 -21q0 8 -9 9q-1 0 -6 1q-5 2 -9 3l1 4q21 -3 24 -3h8q5 1 8 7q4 6 4 24v38h-19q-9 -63 -71 -79l-2 3q59 27 63 76h-17q-13 -42 -54 -61l-2 3q35 24 46 58h-16q-12 -19 -29 -32l-3 3q26 28 35 56q0 1 -1 2
q-1 3 -2 4zM35 63l-2 2q21 33 30 59q2 6 3 10q-6 17 -26 48l2 1q17 -19 27 -39q1 2 2 6q3 6 5 14q4 13 4 16q-1 3 -3 6l1 2l19 -9q1 -2 -1 -2q-5 0 -8 -5q-1 -4 -4 -12l-9 -27q8 -15 12 -27q5 -16 6 -24q1 -10 -3 -12q-6 -3 -7 11q-3 15 -6 26q-3 7 -6 16q0 -1 -1 -1
q-1 -1 -1 -4q-12 -30 -34 -55zM164 118q2 -2 0 -2q-4 0 -6 -4v-36q-3 -14 16 -12h29q8 3 9 10q0 12 2 24h3q0 -3 1 -8q1 -18 8 -19q-6 -12 -17 -14q-4 -1 -21 -1h-25q-16 2 -15 22v36q-1 6 -6 9l2 3zM213 119l2 3q16 -10 22 -16q5 -4 8 -12q4 -13 -4 -15q-4 0 -5 6
q-1 7 -4 14t-19 20zM169 134l2 2q13 -10 17 -16q5 -7 6 -12q2 -13 -6 -14q-4 0 -4 7t-2 13q-1 5 -11 17q9 -10 -2 3z" />
  </g>

</svg>
