<?xml version="1.0" standalone="no"?>
<!DOCTYPE svg PUBLIC "-//W3C//DTD SVG 1.1//EN" "http://www.w3.org/Graphics/SVG/1.1/DTD/svg11.dtd" >
<svg xmlns="http://www.w3.org/2000/svg" xmlns:xlink="http://www.w3.org/1999/xlink" version="1.1" viewBox="0 -205 1024 1024">
  <g transform="matrix(1 0 0 -1 0 819)">
   <path fill="currentColor"
d="M130 924l54 -40h142l28 38l54 -44q6 -3 6 -12q0 -3 -30 -26v-146l4 -66q0 -12 -12 -24q-13 -12 -40 -12v30h-54v-174h46l34 42l56 -52q1 -3 2 -8q-1 -7 -4 -8h-134v-206l128 32l8 -18q-282 -99 -296 -105t-40 -28l-34 55l64 20v350l70 -36q7 -3 8 -6q0 -7 -6 -10l-26 -10
v-280l74 22v420h-56v-10q1 -15 -10 -24q-12 -9 -42 -14l6 98v252v0v0zM176 650h160v206h-160v-206v0v0zM412 836h318q30 68 58 146q72 -36 70 -42q-3 -7 -6 -8q-3 0 -18 -6q-13 -4 -28 -22q-16 -18 -50 -68h124l36 50l60 -58q3 -4 4 -10q0 -7 -14 -8h-208v-86h86l30 42
l56 -44q3 -3 4 -6q1 -7 -28 -26v-232l4 -70q1 -13 -16 -22q-18 -9 -36 -12v20h-352v-16q-1 -13 -16 -22q-15 -8 -36 -10l4 94v344l58 -40h88v86h-120q-21 0 -54 -8l-18 34v0v0zM506 474v-74h352v74h-352v0v0zM506 512v-12h352v64h-52q-27 0 -48 4q-18 3 -30 18
q-10 12 -10 34v78h-72q3 -42 -26 -90q-30 -45 -114 -96v0v0v0zM858 698h-100v-66q-1 -19 8 -26q9 -6 34 -6h58v98v0v0zM646 724h72v86h-72v-86v0v0zM604 698h-98v-162q44 33 74 78q27 42 24 84v0v0zM530 966l10 10q54 -27 78 -44q24 -18 30 -36q7 -19 2 -32q-7 -13 -16 -16
q-10 -4 -20 2q-9 3 -12 18q-2 14 -16 38q-15 24 -56 60v0v0zM358 298h430v70l66 -22q10 0 8 -12q1 4 -28 -18v-18h74l36 46l54 -52q3 -4 4 -10q0 -10 -12 -10h-156v-177q-1 -33 -26 -52q-22 -22 -50 -26q-10 32 -26 40q-15 9 -86 30l4 16q94 -19 116 -14q21 4 22 22v161
h-346q-22 0 -70 -8l-14 34v0v0zM502 252l8 12q59 -27 82 -44q21 -16 30 -34q7 -18 0 -36q-9 -15 -20 -15q-9 -1 -18 4q-9 2 -12 19q-3 14 -18 38q-14 23 -52 56v0v0z" />
  </g>

</svg>
