<?xml version="1.0" standalone="no"?>
<!DOCTYPE svg PUBLIC "-//W3C//DTD SVG 1.1//EN" "http://www.w3.org/Graphics/SVG/1.1/DTD/svg11.dtd" >
<svg xmlns="http://www.w3.org/2000/svg" xmlns:xlink="http://www.w3.org/1999/xlink" version="1.1" viewBox="0 -52 256 256">
  <g transform="matrix(1 0 0 -1 0 204)">
   <path fill="currentColor"
d="M42 150l14 -5q2 -1 2 -2l-1 -1q-3 0 -6 -3q-4 -8 -9 -14v-2h78l5 8l17 -10q4 -2 -2 -2h-50v-23h23l5 9l17 -10q2 -1 2 -2q-1 -1 -4 -1h-43v-23h22l5 8l16 -9l2 -2q0 -1 -3 -1h-42v-24h31l5 10l16 -11q5 -1 -1 -1h-99l1 -14q0 -10 -12 -11v9q1 17 1 29v58q-14 -19 -26 -28
l-2 3q18 21 27 37q10 17 10 19q1 3 -2 7zM23 241l7 -9h29l6 7l9 -7q2 -1 1 -2q0 -1 -2 -2l-3 -2v-52l1 -16q1 -7 -10 -9v8h-30q0 -4 -3 -6q-3 -3 -8 -4q0 4 1 10v9v65q0 6 -2 7zM89 239l5 -7h29l7 8l9 -8q2 -1 -1 -4l-3 -2v-52l1 -19q1 -5 -10 -7v7h-29q-1 -3 -3 -4
q-3 -2 -8 -2v9q1 15 1 25v47q0 6 -2 6zM80 65h-38v-24h38v24zM80 92h-38v-23h38v23zM80 119h-38v-23h38v23zM31 208h30v20h-30v-20zM97 207h29v21h-29v-21zM61 204h-30v-20h30v20zM126 203h-29v-21h29v21zM61 180h-30v-19h30v19zM126 179h-29v-20h29v20zM71 149l1 2
q21 -8 23 -15q4 -10 -5 -11q-3 1 -4 5q0 2 -2 7l-1 1q-3 3 -12 11zM184 251l19 -9q4 -3 2 -4q-7 1 -9 -2l-2 -2q-7 -12 -14 -18h36l8 10l11 -10l2 -2q0 -1 -2 -2l-5 -4v-37q3 -44 -30 -46q-1 10 -26 13l1 4q3 0 8 -1q6 -1 11 -1h3q6 -1 9 0q16 -3 15 35v36h-56v-100h61l8 10
l13 -12q2 -2 1 -3q0 -1 -2 -1l-6 -4v-26q0 -33 -5 -41q-4 -9 -12 -14q-9 -5 -25 -9h-2q1 10 -27 18q-2 1 -3 1l1 4q18 -5 33 -6q12 0 17 3q5 2 9 8q4 2 4 28v39h-60l-8 -10l-14 13q6 1 7 7v96q-1 9 -5 12l4 3l10 -11h10l5 9q8 14 6 17q-1 4 -3 7zM139 73h56l8 10l17 -12
q2 -1 2 -2q-1 -1 -4 -1h-58q-5 1 -11 -3zM173 194l3 3q23 -13 26 -24q5 -12 -5 -14q-4 0 -5 7q0 7 -4 13t-15 15z" />
  </g>

</svg>
