<?xml version="1.0" standalone="no"?>
<!DOCTYPE svg PUBLIC "-//W3C//DTD SVG 1.1//EN" "http://www.w3.org/Graphics/SVG/1.1/DTD/svg11.dtd" >
<svg xmlns="http://www.w3.org/2000/svg" xmlns:xlink="http://www.w3.org/1999/xlink" version="1.1" viewBox="0 -36 256 256">
  <g transform="matrix(1 0 0 -1 0 220)">
   <path fill="currentColor"
d="M14 208l-1 4q21 4 42.5 12.5t32.5 18.5l13 -19q-8 0 -32 -7v-48h14l12 12l16 -19h-42v-24q25 -12 32 -20.5t0.5 -18.5t-12.5 4.5t-20 26.5q0 -97 1 -115l-16 -8q1 43 1 120q-18 -39 -48 -70l-2 3q35 54 48 102h-16q-10 -1 -20 -3l-9 10h47v45q-11 -2 -41 -6zM124 202
q-11 -1 -21 -3l-9 10h43q0 20 -1 39l23 -12l-9 -7v-20h36q0 20 -1 39l22 -9l-8 -9v-21h18l12 13l16 -20h-46v-26l-13 -8v34h-36v-26l-13 -10v36h-13zM89 48l-2 3q25 21 45 46.5t35 52.5h-32q-13 0 -22 -3l-10 10h112l12 12l15 -19h-69l14 -14l-8 1l-17 -21l14 -8l-7 -3
l1 -40q0 -27 1 -49l-16 -9q1 22 1 50v51q-29 -37 -67 -60zM178 111q42 -21 53 -33t6 -24.5t-15 7t-46 47.5z" />
  </g>

</svg>
