<?xml version="1.0" standalone="no"?>
<!DOCTYPE svg PUBLIC "-//W3C//DTD SVG 1.1//EN" "http://www.w3.org/Graphics/SVG/1.1/DTD/svg11.dtd" >
<svg xmlns="http://www.w3.org/2000/svg" xmlns:xlink="http://www.w3.org/1999/xlink" version="1.1" viewBox="0 -205 1024 1024">
  <g transform="matrix(1 0 0 -1 0 819)">
   <path fill="currentColor"
d="M294 380h328l30 34l62 -48q3 -9 -6 -12h-178v-88h226l32 40l58 -52q5 -10 -4 -14h-312v-147h94q23 42 68 129l60 -32q6 -7 -6 -10q-22 -10 -46 -32q-25 -22 -52 -55h174l38 49l64 -55q9 -13 -6 -20h-752q-19 1 -68 -8l-16 34h400v147h-248q-21 0 -66 -8l-14 34h328v88
h-106q-19 0 -64 -8l-18 34v0v0zM276 208l8 12q39 -18 70 -36q27 -18 34 -38t-4 -33q-12 -12 -26 -10q-12 2 -18 22q-6 17 -20 37q-13 20 -44 46v0v0zM428 752l22 30l52 -36q12 -10 4 -16q-24 -3 -44 -18q-18 -15 -66 -62l-14 8l44 68h-98v-140q3 -34 -14 -52
q-18 -16 -54 -26q-3 26 -26 38q-24 12 -68 24l4 16q54 -9 84 -12q30 -1 28 22v124q-54 -58 -122 -106q-67 -47 -130 -70l-6 14q64 35 116 80q50 42 92 88h-148q-12 0 -38 -8l-22 34h404v0v0zM438 932q59 -48 62 -56q1 -6 -4 -8q-3 -1 -14 -2q-9 -1 -44 -10q-34 -7 -112 -56
q9 -14 0 -28q-7 -13 -22 -10q-12 0 -20 16q-9 13 -24 32q-14 17 -46 38l8 12q72 -28 94 -46l76 64h-270q-15 0 -36 -8l-26 34h350l28 28v0v0zM704 924q9 -10 -2 -16q-26 -10 -40 -34l-22 -46h230l38 44l54 -54q10 -9 0 -18h-128q-24 -72 -72 -120q63 -23 112 -52
q46 -27 56 -48t2 -38q-7 -16 -22 -14q-12 0 -30 22q-18 21 -48 42t-98 60q-84 -57 -168 -90l-10 16q89 48 140 90q-55 27 -106 48l6 16q69 -18 126 -38q48 63 60 108h-158q-60 -108 -120 -170l-14 10q33 53 78 140q41 87 62 168l74 -26v0v0zM548 566q9 -6 4 -12q1 -3 -22 -8
q62 -43 124 -70q60 -27 144 -50q84 -22 186 -22v-20q-46 0 -58 -12q-11 -11 -28 -34q-88 26 -154 56q-67 30 -122 60q-54 28 -114 80q-51 -39 -114 -78q-61 -39 -130 -74q-67 -35 -220 -94l-10 14q118 56 200 104q81 45 138 84q54 39 124 106l52 -30v0v0z" />
  </g>

</svg>
