<?xml version="1.0" standalone="no"?>
<!DOCTYPE svg PUBLIC "-//W3C//DTD SVG 1.1//EN" "http://www.w3.org/Graphics/SVG/1.1/DTD/svg11.dtd" >
<svg xmlns="http://www.w3.org/2000/svg" xmlns:xlink="http://www.w3.org/1999/xlink" version="1.1" viewBox="0 -339 2048 2048">
  <g transform="matrix(1 0 0 -1 0 1709)">
   <path fill="currentColor"
d="M1258 865h493l98 102l121 -108q10 -8 12 -10t3 -5q2 -4 2 -10q0 -9 -6 -16q-9 -10 -21 -10h-409q41 -40 74 -67q106 -85 223 -128q51 -18 98 -26q17 -2 50 -6v-36q-34 -2 -51 -6q-30 -9 -49 -25q-11 -10 -26 -32q-43 22 -69 37q-23 13 -60 36l-16 -8l-25 -15v-201
q0 -23 7 -165q4 -66 4 -72q0 -12 -5 -19q-4 -7 -10 -11q-23 -16 -54 -16q-21 0 -30 9q-7 7 -7 17v46h-529v-40q0 -17 -5 -24q-4 -6 -17 -9q-13 -4 -28 -4q-33 0 -47 18q-6 7 -9 20q-2 10 -2 18l4 61l4 79l4 77v210l-4 92q-74 -49 -145 -86q-67 -35 -160 -73l-14 34
q57 28 100 55q123 76 219 165q41 38 95 95h-126q-116 0 -192 -8l-39 88q30 -7 52 -11q76 -12 179 -12h175q36 46 64 93q6 9 42 73h-211v-33q0 -14 -3 -20.5t-11 -10.5q-14 -6 -36 -6q-33 0 -47 18q-6 7 -9 20q-2 10 -2 19l4 60l4 79l4 76v162q0 9 -6 109q-2 32 -7 67
l118 -90h640l68 76l83 -54q27 -17 34 -29q6 -10 6 -20q0 -16 -12 -26q-12 -11 -29 -19q-16 -7 -36 -16v-141q0 -21 8 -164q4 -66 4 -71q0 -12 -5 -20q-5 -6 -11 -11q-23 -16 -53 -16q-21 0 -30 9q-7 6 -7 17v35h-414l99 -48q20 -10 20 -29q0 -11 -9 -19q-12 -11 -40 -11h-32
q-28 -33 -50 -59zM1204 808q-18 -19 -63 -59q-54 -49 -119 -98l63 -39h505l33 39q-48 46 -73 76q-20 24 -59 81h-287zM1605 394v161h-529v-161h529zM1605 338h-529v-162h529v162zM1684 1087v142h-669v-142h669zM1684 1424h-669v-139h669v139zM394 1664q-17 12 -23 20
q-5 8 -9 29q-10 48 -24 79q-17 36 -43 72q-14 19 -43 53l20 24q86 -58 129 -102q60 -61 60 -115q0 -28 -14 -44q-7 -7 -24 -16h109l80 80l114 -85q17 -13 17 -26q0 -9 -6 -16q-9 -10 -21 -10h-454q-83 0 -164 -11l-39 86q123 -18 188 -18h147zM510 738l61 70l73 -48
q42 -28 42 -50q0 -11 -9 -18q-9 -9 -30 -19q-9 -5 -26 -15v-377l26 -18q27 -19 27 -37q0 -11 -9 -17q-6 -4 -12 -4h-420v-35q0 -9 -7 -16q-7 -6 -20 -11q-12 -4 -25 -4q-21 0 -37 10q-17 10 -17 34q0 3 5 49q6 96 6 104v466l118 -64h254zM233 263h290v418h-290v-418z
M469 1355l80 81l114 -86q17 -13 17 -26q0 -9 -6 -16q-8 -10 -21 -10h-355q-16 0 -82 -4q-25 -2 -67 -8l-39 87q123 -18 188 -18h171zM477 1070l80 81l114 -86q12 -10 15 -17q2 -4 2 -9q0 -9 -6 -16q-9 -10 -22 -10h-375q-38 0 -98 -5q-18 -1 -51 -6l-39 85q65 -9 87 -11
q64 -6 101 -6h192zM1673 1695l-10 -111q0 -36 -8 -47q-14 -20 -48 -20q-19 0 -34 7q-9 4 -11 13q-1 5 -1 11q0 15 3 39l11 107h-47q-89 -6 -101 -8l-38 88q27 -7 51 -11q19 -3 54.5 -7t41.5 -4h44l3 30l11 155l135 -33q37 -10 37 -36q0 -10 -7 -18q-8 -9 -32 -15l-42 -12
l-6 -71h79l80 81l114 -86q12 -10 15 -17q2 -4 2 -9q0 -10 -6 -16q-3 -4 -9 -7q-7 -3 -13 -3h-268zM1097 1745h47l80 81l114 -86q12 -9 15 -17q2 -6 2 -9q0 -9 -6 -16q-9 -10 -22 -10l-225 -1l3 -49q5 -34 5 -52q0 -13 -2.5 -19.5t-8.5 -11.5q-21 -17 -52 -17q-22 0 -30 16
q-7 14 -7 57l-5 76h-74q-83 0 -146 -8l-38 87q32 -5 76 -11q82 -10 100 -10h77l-16 193l132 -15q28 -4 38 -12q8 -7 8 -15q0 -9 -7 -19q-8 -10 -19 -15l-46 -19z" />
  </g>

</svg>
