<?xml version="1.0" standalone="no"?>
<!DOCTYPE svg PUBLIC "-//W3C//DTD SVG 1.1//EN" "http://www.w3.org/Graphics/SVG/1.1/DTD/svg11.dtd" >
<svg xmlns="http://www.w3.org/2000/svg" xmlns:xlink="http://www.w3.org/1999/xlink" version="1.1" viewBox="0 -36 256 256">
  <g transform="matrix(1 0 0 -1 0 220)">
   <path fill="currentColor"
d="M71 101v-68q-1 -17 -21 -23q0 11 -27 18l1 5q19 -2 27 -2.5t7 9.5v54q-15 -8 -30 -17l-6 -6l-13 19q15 2 49 16v37h-10q-15 0 -24 -2l-10 9h44q0 36 -1 45l23 -11l-9 -6v-28h11l9 11l15 -18h-35v-32l29 12l2 -5zM160 168q-3 11 -18 22l1 3q26 -7 30 -13t-5 -12h46l14 13
l18 -20h-120q-13 0 -22 -3l-10 10h66zM133 146h59l7 8l14 -10l-7 -5q0 -17 1 -28l-14 -4v5h-60v-2l-15 -4q1 12 1 24t-1 22zM133 119h60v20h-60v-20zM213.5 27.5q4.5 1.5 4.5 7.5v57h-106v-78l-14 -4q1 22 1 48.5t-1 45.5l15 -5h104l9 9l13 -12l-7 -5v-58q-2 -18 -21 -26
q-2 12 -29 14v6q27 -1 31.5 0.5zM132 58q0 13 -1 26l14 -5h37l8 8l12 -13l-6 -3q0 -20 1 -33l-14 -3v5h-38v-4l-14 -5q1 14 1 27zM145 47h38v25h-38v-25zM125 209h-39q0 -7 1 -17l-16 -6q1 13 1 23h-26q-11 0 -21 -2l-9 9h56q0 20 -1 31l22 -8l-7 -7v-16h13l12 11zM158 211
q-10 0 -20 -2l-9 9h35q0 15 -1 28l22 -9l-7 -7v-12h29l14 11l16 -18h-59q-1 -3 1 -20l-16 -4q1 20 1 24h-6z" />
  </g>

</svg>
