<?xml version="1.0" standalone="no"?>
<!DOCTYPE svg PUBLIC "-//W3C//DTD SVG 1.1//EN" "http://www.w3.org/Graphics/SVG/1.1/DTD/svg11.dtd" >
<svg xmlns="http://www.w3.org/2000/svg" xmlns:xlink="http://www.w3.org/1999/xlink" version="1.1" viewBox="0 -120 1000 1000">
  <g transform="matrix(1 0 0 -1 0 880)">
   <path fill="currentColor"
d="M441 120l-11 28h404v183h-368l-13 28h381v167h-380l-13 27h196v383l79 -9q26 -3 26 -14q0 -10 -14 -16l-27 -11v-333h118l27 41l70 -44q14 -9 14 -18q0 -8 -12 -12l-18 -6v-442l-66 -10v58h-393zM453 850q55 -41 93 -98q44 -64 44 -111q0 -24 -16 -37q-10 -8 -22 -8
q-11 0 -16 7q-6 8 -17 59q-26 107 -77 177zM735 591q59 128 99 260l5 15l84 -45q12 -7 12 -15q0 -10 -19 -13l-29 -4q-90 -146 -136 -208zM466 197l-347 -111l-10 -18q-6 -12 -12 -12t-10 10l-31 80l156 24v305h-144l-14 26h158v137h-74q-29 -41 -71 -96l-15 10
q64 119 99 210q24 65 58 188l92 -27q13 -4 13 -11q0 -8 -13 -13l-28 -9l-1 -5q77 -20 125 -60q46 -37 46 -73q0 -16 -11 -26q-7 -7 -16 -7q-11 0 -24 14q-4 5 -28 43q-54 71 -99 95q-34 -78 -110 -207h165l36 48l76 -58v-16h-157v-137h59l42 53l73 -59v-20h-174v-296l188 34
zM84 429q86 -83 86 -165q0 -49 -37 -49q-28 0 -28 34v45q-1 64 -33 127zM311 229l43 207l76 -23q12 -4 12 -12q0 -7 -11 -11l-19 -5l-86 -161z" />
  </g>

</svg>
