<?xml version="1.0" standalone="no"?>
<!DOCTYPE svg PUBLIC "-//W3C//DTD SVG 1.1//EN" "http://www.w3.org/Graphics/SVG/1.1/DTD/svg11.dtd" >
<svg xmlns="http://www.w3.org/2000/svg" xmlns:xlink="http://www.w3.org/1999/xlink" version="1.1" viewBox="0 -36 256 256">
  <g transform="matrix(1 0 0 -1 0 220)">
   <path fill="currentColor"
d="M164 171h36v26h-36v-26zM215 162l-15 -6v8h-138v-4l-15 -5q1 28 0 56l15 -7h137l8 9l15 -12l-8 -7q0 -14 1 -32zM62 171h38v26h-38v-26zM112 171h38v26h-38v-26zM221 126h3q1 -29 10 -36q-71 -1 -98 15q-52 -12 -105 -11v4q57 4 97 15q-8 10 -14 23l-61 -3q-17 -1 -23 -5
l-9 10l91 4q-3 8 -6 19l22 -4l-5 -6q0 -4 2 -8l29 1q-4 8 -19 17l1 2q18 -2 25.5 -6.5t0.5 -11.5l46 2l12 11l17 -16l-110 -6q5 -11 12 -19q33 10 48 22l14 -13l-11 -2q-28 -11 -40 -14q17 -9 67 -9zM64 26h132v12h-132v-12zM211 44q0 -12 1 -32l-16 -5v12h-132v-8l-16 -5
q1 15 1 43t-1 45l17 -7h130l9 7l15 -12l-8 -5v-33zM64 66h132v14h-132v-14zM64 45h132v14h-132v-14zM151 228q0 6 -1 18l23 -7l-8 -6v-5h44l13 11l18 -18h-75v-8l-14 -5v13v7zM106 221v-8l-14 -6v14h-43q-11 1 -20 -2l-9 9h72q0 12 -1 19l22 -7l-7 -6v-13z" />
  </g>

</svg>
