<?xml version="1.0" standalone="no"?>
<!DOCTYPE svg PUBLIC "-//W3C//DTD SVG 1.1//EN" "http://www.w3.org/Graphics/SVG/1.1/DTD/svg11.dtd" >
<svg xmlns="http://www.w3.org/2000/svg" xmlns:xlink="http://www.w3.org/1999/xlink" version="1.1" viewBox="0 -36 256 256">
  <g transform="matrix(1 0 0 -1 0 220)">
   <path fill="currentColor"
d="M89 225h-41q-10 0 -19 -2l-9 9h70l10 10l13 -19q-10 -1 -19 -8.5t-21 -20.5q7 -6 8 -11.5t-4.5 -12.5t-11 8t-23.5 29l2 2q6 -3 12 -5.5t13 -6.5zM93 158h-18v-126q0 -10 -4.5 -15.5t-16.5 -10.5q-3 10 -7.5 14t-15.5 7v4q28 -4 29.5 -1.5t1.5 7.5v98q-14 -33 -25.5 -52
t-25.5 -35l-2 3q14 23 25 48t22 59h-16q-10 0 -19 -2l-9 9h79l10 8l14 -15q-9 -2 -16 -8.5t-14 -17.5l-3 2zM145 178h47v23h-47v-23zM123 112h39v27h-39v-27zM175 112h38v27h-38v-27zM110 124.5q0 13.5 -1 27.5l14 -6h39v25h-17v-5l-14 -4q1 16 1 39h-8q-10 0 -19 -2l-9 9
h36q0 22 -1 35l22 -9l-8 -7v-19h47q0 21 -1 35l21 -8l-7 -7v-20h14l12 11l15 -18h-41q0 -18 1 -34l-14 -4v8h-17v-25h37l8 9l14 -13l-8 -6q0 -23 1 -32l-14 -5v6h-38v-22h37l11 11l15 -18h-63v-22h32l13 11l14 -18h-59v-23h45l11 12l16 -19h-133q-10 0 -19 -2l-9 9h76v23
h-26q-10 0 -19 -2l-9 9h54v22h-35q-10 0 -19 -2l-9 9h63v22h-39v-3l-14 -5q1 14 1 27.5z" />
  </g>

</svg>
