<?xml version="1.0" standalone="no"?>
<!DOCTYPE svg PUBLIC "-//W3C//DTD SVG 1.1//EN" "http://www.w3.org/Graphics/SVG/1.1/DTD/svg11.dtd" >
<svg xmlns="http://www.w3.org/2000/svg" xmlns:xlink="http://www.w3.org/1999/xlink" version="1.1" viewBox="0 -154 1024 1024">
  <g transform="matrix(1 0 0 -1 0 870)">
   <path fill="currentColor"
d="M860 834h-153q-7 -15 -14 -29q21 -54 52 -111q15 -29 29 -53q18 33 33 61q21 39 53 132zM535 898h-147v-242h147v242zM854 376h-162v-276h162v276zM71 960l39 -43h121l27 36l50 -37q9 -9 -2 -12q-9 -1 -25 -10l-35 -86q-33 -84 -66 -153q44 -42 72 -77q27 -36 41 -71
q12 -36 12 -73q-2 -39 -11 -63q-11 -26 -29 -42q-20 -18 -65 -31q3 32 -70 50l4 16q39 -13 69 -13q29 -2 44 16t19 43q3 24 3 49q-1 24 -9 46q-9 22 -22 45q-15 21 -27 40q-14 18 -53 61q45 123 82 246h-125v-733l3 -97q0 -21 -13 -31q-13 -9 -33 -15q4 39 7 194v692
q-6 28 -20 42zM707 998l69 -36q16 -12 7 -15q-21 0 -33 -8q-16 -46 -33 -85h132l28 34l49 -47q8 -9 -3 -12q-11 -1 -17 -7t-24 -49q-18 -44 -38 -83q-18 -34 -49 -83q13 -18 25 -32q37 -48 79 -78q42 -31 115 -46l-1 -14q-26 3 -44 -1q-17 -6 -38 -22q-68 51 -112 106
q-21 25 -42 58q-39 -60 -84 -105q-47 -49 -130 -103l-8 8q80 72 126 126t76 106q-12 22 -25 48q-33 61 -52 123q-39 -66 -84 -108l-8 7q50 73 80 145v1q7 15 12 32q32 87 29 102t-11 30zM662 418l20 -22h153l31 25l51 -33q14 -12 -6 -17l-18 -9v-178l6 -121q-1 -18 -13 -24
q-11 -6 -32 -7v48h-162v-17q0 -21 -11 -30q-9 -9 -35 -14q4 37 7 138v224q3 15 -7 25zM349 946l24 -28h143l35 37l43 -45q14 -12 -6 -17l-17 -9v-124l2 -129q-2 -18 -11 -24q-10 -7 -27 -7v36h-50v-184h32l24 29l52 -42q10 -10 -8 -7h-100v-258l107 30l6 -14l-158 -56
q-93 -36 -109 -45t-33 -29l-48 48l98 28v330q1 15 -23 32l8 11l71 -24q14 -6 6 -11q-19 -6 -28 -18v-311l67 19v472h-61v-7q0 -21 -9 -30t-34 -14q4 36 7 148v164q-3 21 -17 38z" />
  </g>

</svg>
