<?xml version="1.0" standalone="no"?>
<!DOCTYPE svg PUBLIC "-//W3C//DTD SVG 1.1//EN" "http://www.w3.org/Graphics/SVG/1.1/DTD/svg11.dtd" >
<svg xmlns="http://www.w3.org/2000/svg" xmlns:xlink="http://www.w3.org/1999/xlink" version="1.1" viewBox="0 -36 256 256">
  <g transform="matrix(1 0 0 -1 0 220)">
   <path fill="currentColor"
d="M56 154h18v37h-18v-37zM86 154h17v37h-17v-37zM56 112h18v35h-18v-35zM27 112h17v35h-14q-1 -11 -3 -35zM87 19l-14 -6q1 19 1 92h-18q-1 -28 -10.5 -51t-32.5 -45l-2 3q14 19 22.5 39.5t10.5 53.5h-17l-7 -6l-10 11l6 5l2 48l12 -9h14v37h-5q-10 0 -19 -2l-9 9h33
q0 36 -1 47l21 -10l-8 -7v-30h18q0 37 -1 47l21 -9l-8 -8v-30h16l6 9l15 -12l-7 -6v-29q0 -7 1 -15l-14 -6v8h-17v-35h23l6 9l13 -11l-6 -6v-30q0 -18 -15 -24q0 11 -18 15v4q13 -1 16.5 -1t3.5 8v29h-23v-59q0 -14 1 -27zM229.5 34q2.5 4 4.5 39h4q0 -22 2 -30t9 -10
q-6 -13 -17 -15h-29q-20 -1 -19 18v73h-18q-1 -36 -16.5 -61t-57.5 -39l-1 3q35 18 48 40.5t14 56.5h-13v-7l-14 -5q1 14 1 29v86q0 11 -1 28l14 -9h69l6 10l16 -12l-7 -5v-83q0 -15 1 -34l-14 -9v11h-14v-69q0 -10 11 -10h13q6 0 8.5 4zM211 224h-71v-30h71v30zM211 187
h-71v-32h71v32zM211 148h-71v-32h71v32z" />
  </g>

</svg>
