<?xml version="1.0" standalone="no"?>
<!DOCTYPE svg PUBLIC "-//W3C//DTD SVG 1.1//EN" "http://www.w3.org/Graphics/SVG/1.1/DTD/svg11.dtd" >
<svg xmlns="http://www.w3.org/2000/svg" xmlns:xlink="http://www.w3.org/1999/xlink" version="1.1" viewBox="0 -36 256 256">
  <g transform="matrix(1 0 0 -1 0 220)">
   <path fill="currentColor"
d="M54 230h38l6 8l17 -11l-8 -7v-38h40v26q0 13 -1 28l15 -6h40l9 10l16 -14l-10 -6v-45q0 -22 1 -42l-15 -6v11h-149v-9l-15 -5q1 25 1 53.5t-1 58.5zM53 223v-78h149v78h-41v-25q0 -13 1 -25l-15 -5v7h-40l-8 -7l-14 11l8 6v38h-40zM195.5 29.5q10.5 -0.5 13.5 5.5t10 69
h-148q-21 -23 -59 -40l-1 4q23 14 38.5 31t25.5 39l19 -12q-6 0 -19 -15h142l10 11l16 -14l-9 -6q-7 -65 -11 -74t-10.5 -13t-19.5 -6q1 12 -33 19v4q25 -2 35.5 -2.5zM51 41q-5 -8 -11.5 -9.5t-12.5 0.5t5.5 12t20.5 34h4q-1 -29 -6 -37zM103 60.5q5 -7.5 4 -15t-8 -11
t-7.5 9.5t-9.5 35l3 1q13 -12 18 -19.5zM145.5 63.5q5.5 -7.5 4 -14.5t-8 -10.5t-8.5 11t-11 33.5l3 2q15 -14 20.5 -21.5zM188 72q6 -7 5 -13.5t-7 -11.5t-9 8.5t-15 33.5l2 2q18 -12 24 -19z" />
  </g>

</svg>
