<?xml version="1.0" standalone="no"?>
<!DOCTYPE svg PUBLIC "-//W3C//DTD SVG 1.1//EN" "http://www.w3.org/Graphics/SVG/1.1/DTD/svg11.dtd" >
<svg xmlns="http://www.w3.org/2000/svg" xmlns:xlink="http://www.w3.org/1999/xlink" version="1.1" viewBox="0 -150 1000 1000">
  <g transform="matrix(1 0 0 -1 0 850)">
   <path fill="currentColor"
d="M236 948q7 -10 -5 -11q-12 2 -23 -21q-20 -66 -45 -122h140l24 31l54 -39q8 -6 7 -9t-12 -3h-220q-5 -13 -17 -39l-6 -12q-38 -82 -108 -169l-8 9q57 96 85 161.5t52 139t22.5 83t-12.5 17.5l7 8zM476 639l153 20v45q-3 17 -27 33l8 10l83 -27q6 -6 -1 -9q-17 -3 -28 -16
v-32l77 10l12 29l57 -21q11 -7 8.5 -10.5t-18.5 -3.5l-136 -18v-16q0 -22 11 -28q14 -3 53 -5q36 -1 73 1q50 3 52 36q5 28 6 49h11l3 -22q3 -33 20 -44q-10 -23 -24 -32q-12 -10 -36 -13q-24 -5 -64.5 -5t-96.5 3q-43 4 -43 60v11l-82 -11q-27 -8 -30 -21zM76 620h174
l24 31l58 -41q8 -6 7 -7q-2 -3 -13 -3h-116v-165h68l23 31l59 -41q8 -5 6 -7.5t-12 -2.5h-144v-277q78 49 132 87l9 -10q-122 -98 -135 -116q-14 -20 -23 -43l-55 46q22 13 35 37v276h-68q-24 2 -44 -13l-33 33h145v165h-19q-27 1 -44 -12zM415 812l43 -37h169v152
q1 16 -24 41l8 10l72 -25q14 -5 6 -10q-22 -6 -25 -24v-38h153l23 31l51 -39q8 -6 6.5 -9t-12.5 -3h-221v-86h224l30 30l46 -53q2 -5 -0.5 -7t-9.5 0q-24 5 -66 -36q-11 -10 -17 -15l-8 6l31 55h-426v-195q-2 -243 -49 -363.5t-140 -182.5l-8 7q78 71 119 184q43 114 43 382
v166q-6 23 -26 50zM645 35q-1 35 -88 51l2 12q11 -2 31 -5q59 -15 88 4q47 23 45 123q0 26 -4 48q-44 -49 -83 -80q-99 -84 -214 -119l-5 12q96 42 189 119q43 36 103 104q-10 26 -28 50q-1 2 -3 4q-30 -31 -52 -49q-19 -18 -72 -56q-43 -31 -87 -42l-5 12q71 39 133 96
q13 13 51 54q7 9 11 13q-6 6 -17 19q-8 8 -12 13q-9 -9 -33 -24q-7 -5 -10 -7q-47 -32 -83 -43l-4 11q61 38 123 98q3 3 9 10q21 22 35 39h-101q-24 2 -44 -13l-33 33h365l27 31l55 -41q8 -5 6.5 -7.5t-12.5 -2.5h-215q-26 -32 -59 -63q-5 -5 -13 -10q49 -42 68 -67
q4 -5 11 -13q2 -3 3 -5q55 37 75 51q35 26 43 36q9 8 7 24l6 7l55 -41q16 -11 7 -15q-22 3 -48 -3q-44 -25 -82 -47l-15 -7q-6 -4 -21 -11q-7 -3 -10 -5q20 -29 40 -56q45 -59 104 -90q39 -21 92 -28l1 -12q-31 0 -41 -4q-12 -4 -28 -21q-90 47 -140 128q-4 5 -10 15
q-3 5 -4 6q13 -47 -1 -126q-13 -83 -108 -110z" />
  </g>

</svg>
