<?xml version="1.0" standalone="no"?>
<!DOCTYPE svg PUBLIC "-//W3C//DTD SVG 1.1//EN" "http://www.w3.org/Graphics/SVG/1.1/DTD/svg11.dtd" >
<svg xmlns="http://www.w3.org/2000/svg" xmlns:xlink="http://www.w3.org/1999/xlink" version="1.1" viewBox="0 -205 1024 1024">
  <g transform="matrix(1 0 0 -1 0 819)">
   <path fill="currentColor"
d="M850 878l36 44l62 -58q16 -12 12 -20q1 -5 -16 -10q-28 -3 -58 -24q-30 -22 -72 -76l-20 8l60 110h-656q-5 -81 -28 -116q-22 -34 -46 -40q-25 -6 -38 4q-12 9 -12 24t28 36q27 20 46 56q15 33 24 126h22l2 -64h654v0v0zM336 730v-240q4 -174 -64 -264q-66 -87 -222 -153
l6 -18q171 52 256 147q84 98 78 302v152h220v-504q3 -34 24 -47q21 -12 60 -10h158q27 0 48 6q21 3 40 18q18 14 36 51q-24 21 -30 40q-4 21 -10 126h-20q-5 -144 -16 -162q-9 -18 -20 -24q-10 -5 -46 -10h-136q-20 0 -28 6q-6 3 -6 24v468q38 24 38 28q1 5 -4 10l-66 52
l-34 -46h-200l-62 48v0v0v0z" />
  </g>

</svg>
