<?xml version="1.0" standalone="no"?>
<!DOCTYPE svg PUBLIC "-//W3C//DTD SVG 1.1//EN" "http://www.w3.org/Graphics/SVG/1.1/DTD/svg11.dtd" >
<svg xmlns="http://www.w3.org/2000/svg" xmlns:xlink="http://www.w3.org/1999/xlink" version="1.1" viewBox="0 -52 256 256">
  <g transform="matrix(1 0 0 -1 0 204)">
   <path fill="currentColor"
d="M18 220h76q3 5 9 12q1 2 2 3q6 11 6 13q0 3 -2 6l2 2l17 -8q2 -1 2 -2q1 -1 -1 -2q-1 0 -3 -1q-4 0 -5 -2t-4 -6q-1 -3 -10 -15h101l8 11l18 -13q2 -2 1 -2q0 -1 -3 -1h-73q38 -41 91 -41v-4q-6 0 -11 -2q-7 -3 -7 -8q-49 11 -81 55h-47q-42 -47 -94 -60l-2 4
q50 19 82 56h-52q-7 0 -12 -3zM189 156l16 -12q2 -1 2 -2t-2 -1h-6q-2 0 -12 -6q9 6 -2 -1q-1 -1 -4 -2q-4 -3 -25 -12q36 -73 91 -78v-3q-9 0 -13 -2q-3 -2 -6 -6q-52 22 -77 87q-5 -3 -11 -6q11 -26 10 -53q-5 -40 -42 -48q-1 10 -26 16l1 3q6 -1 15 -3q3 -1 5 -1
q8 -1 15 2q18 7 20 30q1 19 -3 36q-28 -30 -67 -50q-21 -9 -49 -15l-1 4q23 7 41 16q45 25 72 58q-3 10 -8 19q-46 -43 -98 -57l-2 3q59 23 93 64q-1 1 -3 4q-1 3 -7 9q-43 -31 -86 -43l-2 4q55 22 96 60h-33q-7 0 -12 -4l-8 9h98l8 10l17 -13q4 -2 -1 -2h-55
q-9 -11 -18 -17q19 -20 27 -36q29 15 39 22q12 8 12 11q1 2 -1 5z" />
  </g>

</svg>
