<?xml version="1.0" standalone="no"?>
<!DOCTYPE svg PUBLIC "-//W3C//DTD SVG 1.1//EN" "http://www.w3.org/Graphics/SVG/1.1/DTD/svg11.dtd" >
<svg xmlns="http://www.w3.org/2000/svg" xmlns:xlink="http://www.w3.org/1999/xlink" version="1.1" viewBox="0 -205 1024 1024">
  <g transform="matrix(1 0 0 -1 0 819)">
   <path fill="currentColor"
d="M142 712h664l28 36l52 -40q8 -6 8 -12t-30 -26v-84l4 -62q0 -17 -18 -28q-15 -9 -36 -8v38h-260v-136h316l32 40l56 -40q9 -7 10 -16q1 -3 -34 -24q-6 -88 -14 -130q-9 -40 -32 -64q-24 -24 -74 -39q-10 32 -40 47q-30 14 -84 28l4 20q93 -21 118 -20q24 0 36 6
q11 6 20 30q8 23 16 136h-330v-237l4 -70q0 -16 -20 -30q-19 -12 -40 -12l4 114v229q-95 -138 -208 -210q-111 -70 -234 -107l-8 14q99 43 208 113q105 72 186 196h-226l-40 -34l-50 56l42 22l46 194l44 -50h240v134h-300q-21 -3 -36 -6l-24 32v0v0zM554 686v-134h260v134
h-260v0v0zM502 390v136h-252l-34 -136h286v0v0zM68 866h288v126l88 -28q18 -7 0 -16l-36 -16v-66h220v122l84 -28q19 -7 2 -16l-34 -16v-62h198l44 50l62 -60q3 -3 4 -6q1 -10 -12 -10h-296v-18l4 -54q3 -15 -18 -26q-21 -12 -42 -12l4 88v22h-220v-22l4 -54q3 -15 -20 -26
q-22 -12 -40 -12l4 94v20h-204q-24 0 -60 -8l-24 34v0v0z" />
  </g>

</svg>
