<?xml version="1.0" standalone="no"?>
<!DOCTYPE svg PUBLIC "-//W3C//DTD SVG 1.1//EN" "http://www.w3.org/Graphics/SVG/1.1/DTD/svg11.dtd" >
<svg xmlns="http://www.w3.org/2000/svg" xmlns:xlink="http://www.w3.org/1999/xlink" version="1.1" viewBox="0 -36 256 256">
  <g transform="matrix(1 0 0 -1 0 220)">
   <path fill="currentColor"
d="M204 223h-59q-10 0 -19 -2l-9 9h90l8 10l19 -19q-11 1 -56 -43l13 -7l-8 -6v-25h31l16 14l17 -21h-64v-99q1 -21 -22 -26q-3 11 -11 16t-29 9v4q34 -5 40.5 -4t6.5 6v94h-37q-10 0 -19 -2l-9 9h65v45l6 -5zM72 203q21 26 26 40l18 -14q-8 -2 -17.5 -13.5t-19.5 -22.5
q18 -35 17 -90.5t-9.5 -72.5t-27.5 -22q-3 15 -32 25l1 4q24 -5 36 -2.5t15 26t2 76.5q-24 -43 -69 -69l-1 4q36 29 65 87q-3 14 -7 26q-20 -20 -53 -35l-1 4q25 16 49 41q-12 17 -39 37l2 3q30 -13 45 -32z" />
  </g>

</svg>
