<?xml version="1.0" standalone="no"?>
<!DOCTYPE svg PUBLIC "-//W3C//DTD SVG 1.1//EN" "http://www.w3.org/Graphics/SVG/1.1/DTD/svg11.dtd" >
<svg xmlns="http://www.w3.org/2000/svg" xmlns:xlink="http://www.w3.org/1999/xlink" version="1.1" viewBox="0 0 2048 2048">
  <g transform="matrix(1 0 0 -1 0 2048)">
   <path fill="currentColor"
d="M1697 1187v-978h49l88 88l94 -69q36 -27 39 -34q2 -7 2 -14q1 -8 -4 -18q-4 -6 -8 -8q-4 -3 -13 -3h-1030q-107 -4 -141 -5t-37 -1l-14 -2l-38 88q12 -3 35 -8q24 -5 36 -5l101 -9h89v987q-2 55 -5 91t-8 64l-3 15l118 -90h537l68 76l84 -54q20 -13 29 -24q10 -12 10 -26
q1 -14 -11 -26q-10 -11 -30 -19zM1033 209h576v304h-576v-304zM1033 567h576v302h-576v-302zM1033 923h576v298h-576v-298zM442 1556l37 -24q13 -9 47 -34q34 -26 57 -48q23 -21 44 -48q21 -26 35 -50q14 -25 23 -50t9 -51q-1 -30 -16 -51q-15 -22 -41 -24q-26 -1 -40 18
q-8 9 -13.5 34.5t-21 73.5t-28.5 76q-13 27 -34 54q-21 28 -33 41l-25 25v-1168q0 -43 3 -104q4 -62 8 -102.5t4 -56.5q-1 -11 -4 -20q-4 -9 -15 -15t-29 -7q-22 -2 -34.5 3t-19.5 15q-8 10 -8 24v1686q0 68 -2 104q-3 36 -3 42l-2 13l105 -24q53 -13 68 -21q16 -8 18 -22
q1 -14 -14 -26q-14 -12 -36 -18l-39 -11v-234zM212 1559l42 -4q0 -52 -1 -85q0 -32 -3 -90q-3 -57 -7 -92q-5 -36 -16 -77q-12 -41 -28 -73q-16 -31 -40 -54q-25 -22 -50 -24q-26 -1 -41 12t-16 36t9 38q11 15 40 49q28 34 44 62q15 28 28 67q13 38 20 76t14 106zM1172 1917
l61 -36q24 -14 56 -35t54 -38q23 -17 45 -43t27 -54q6 -28 -5 -49q-9 -17 -21 -25l-18 -13h416l72 74l110 -90q20 -17 16 -34q-3 -18 -23 -22l-68 -15l-51 -69q-29 -40 -36 -48l-47 -56l-38 26q17 33 25 50l28 70l24 57h-922l-5 -96q-2 -38 -7 -73q-6 -35 -18 -62
q-11 -26 -28 -44.5t-46 -27.5q-28 -9 -46 6q-17 16 -18 35q-2 19 15 46l30 42q17 24 31 53q15 29 23 60t14 81t8 75l4 65l39 1l4 -104h458q-9 6 -14 12q-6 7 -10 16q-3 8 -16 44q-14 36 -28 62q-13 27 -36 54q-22 27 -39 42l-43 37z" />
  </g>

</svg>
