<?xml version="1.0" standalone="no"?>
<!DOCTYPE svg PUBLIC "-//W3C//DTD SVG 1.1//EN" "http://www.w3.org/Graphics/SVG/1.1/DTD/svg11.dtd" >
<svg xmlns="http://www.w3.org/2000/svg" xmlns:xlink="http://www.w3.org/1999/xlink" version="1.1" viewBox="0 -36 256 256">
  <g transform="matrix(1 0 0 -1 0 220)">
   <path fill="currentColor"
d="M90 208q-4 -2 -13 -10h30l8 8l14 -13q-4 -1 -17 -18t-33 -30t-58 -23l-1 3q20 7 38.5 18t31 25.5t17.5 22.5h-34q-5 -3 -11 -9q16 -6 18.5 -9.5t0 -9t-6 -5t-6 7t-9.5 13.5q-17 -11 -32 -19l-2 3q20 15 31.5 30t13.5 23zM131 206l17 -7h35l6 8l15 -9l-7 -7v-20
q0 -15 -18 -20q-2 9 -25 15v4q19 -2 24.5 -2t5.5 7v17h-38v-39q0 -9 11 -9h46q6 0 8 4.5t3 21.5h5q0 -10 2.5 -16.5t8.5 -8.5q-8 -11 -24 -11h-53q-21 0 -21 16q0 41 -1 56zM224 232l20 -15q-20 -1 -36 -19l-3 2l10 15h-172q-2 -11 -9.5 -15.5t-13.5 -0.5t4.5 11.5
t14.5 22.5h4v-11h82q-5 14 -15 21l2 3q20 -5 26 -10.5t-5 -13.5h81zM111 27h37v14h-37v-14zM215 16l-16 -6v10h-142v-6l-16 -6q1 23 1 49.5t-1 41.5l16 -6h45q5 7 10 21h-61q-11 0 -22 -2l-10 9h186l12 10l19 -17h-105q-9 -6 -20 -21h87l7 9l16 -10l-7 -7v-38q0 -18 1 -31z
M57 27h39v59h-39v-59zM162 27h37v59h-37v-59zM111 69h37v17h-37v-17zM111 48h37v14h-37v-14z" />
  </g>

</svg>
