<?xml version="1.0" standalone="no"?>
<!DOCTYPE svg PUBLIC "-//W3C//DTD SVG 1.1//EN" "http://www.w3.org/Graphics/SVG/1.1/DTD/svg11.dtd" >
<svg xmlns="http://www.w3.org/2000/svg" xmlns:xlink="http://www.w3.org/1999/xlink" version="1.1" viewBox="0 -36 256 256">
  <g transform="matrix(1 0 0 -1 0 220)">
   <path fill="currentColor"
d="M39.5 195.5q6.5 -12.5 -1 -22.5t-10.5 7.5t-13 38.5l3 2q15 -13 21.5 -25.5zM52 246l23 -9l-9 -9v-71h10l12 13l15 -20h-37v-18q19 -12 27 -20t3 -19t-11.5 3.5t-18.5 28.5v-77q0 -13 1 -31l-15 -7q1 42 1 108q-16 -34 -42 -63l-3 2q31 46 42 93h-17q-9 0 -17 -2l-7 9h44
q0 59 -1 89zM100 208q-13 -26 -28 -42l-2 2q12 21 20 55l18 -11zM171 226q-15 -25 -29 -39.5t-41 -30.5l-2 3q22 17 38 36.5t27 51.5l18 -12l-8 -5q34 -49 72 -56v-4q-11 0 -17 -10q-35 22 -58 66zM209 164h-45q-13 1 -24 -2l-9 9h55l9 10zM113 117q0 20 -1 35l13 -7h24l7 8
l13 -11l-7 -5q0 -34 1 -48l-13 -7v8h-25v-5l-13 -7q1 19 1 39zM180 116.5q0 18.5 -1 35.5l14 -7h23l6 8l14 -11l-6 -6q0 -33 1 -48l-13 -7v9h-26v-4l-13 -6q1 18 1 36.5zM150 138h-25v-41h25v41zM218 138h-26v-41h26v41zM136 55q22 -11 25.5 -18t-1.5 -16.5t-8.5 2.5
t-17.5 28q-17 -28 -45 -42l-2 2q36 30 44 71l18 -11q-8 -6 -13 -16zM237.5 32q2.5 -7 -1 -15.5t-10 4t-22.5 28.5q-15 -24 -39 -39l-2 3q30 26 38 69l18 -12q-6 -3 -13 -17q29 -14 31.5 -21z" />
  </g>

</svg>
