<?xml version="1.0" standalone="no"?>
<!DOCTYPE svg PUBLIC "-//W3C//DTD SVG 1.1//EN" "http://www.w3.org/Graphics/SVG/1.1/DTD/svg11.dtd" >
<svg xmlns="http://www.w3.org/2000/svg" xmlns:xlink="http://www.w3.org/1999/xlink" version="1.1" viewBox="0 -205 1024 1024">
  <g transform="matrix(1 0 0 -1 0 819)">
   <path fill="currentColor"
d="M54 262h234v146l80 -28q3 -3 4 -6q1 -2 -34 -22v-90h140l30 40l56 -48q3 -3 4 -8q0 -12 -12 -12h-218v-91l4 -76q-3 -11 -18 -20q-16 -9 -40 -16l4 110v93h-162q-22 0 -58 -8l-14 36v0v0zM308 970l6 -4q3 -10 -12 -16q-12 -4 -24 -20q-10 -13 -34 -58h216l34 38
q62 -49 62 -56q0 -6 -32 -26v-154l4 -58q0 -16 -20 -28q-18 -10 -36 -10v42h-316v-22q0 -15 -18 -26q-15 -12 -36 -12l4 104v246l54 -38h54q21 66 30 120l64 -22v0v0zM156 644h316v90h-316v-90v0v0zM156 760h316v86h-316v-86v0v0zM48 508h164q24 42 46 94l66 -20
q15 -12 -6 -18q-16 -4 -26 -16q-6 -13 -24 -40h222l38 42l58 -48l6 -8q4 -12 -12 -12h-330q-45 -60 -98 -110q-51 -48 -114 -90l-12 12q63 57 96 96q32 35 74 92h-64q-19 0 -68 -8l-16 34v0v0zM374 450l8 10q51 -16 100 -40q49 -21 68 -42q17 -19 14 -40q-3 -22 -20 -28
q-18 -4 -30 16q-12 21 -30 40q-16 17 -40 34q-22 17 -70 50v0v0zM890 970l60 -52q9 -6 10 -14q1 -4 -10 -10q-27 -3 -60 -56q-42 -108 -90 -198q98 -83 128 -130q28 -45 38 -86q9 -41 -2 -82q-9 -39 -38 -68q-30 -29 -80 -52q-9 33 -32 48q-24 14 -84 34l4 18q56 -11 82 -16
q27 -4 54 2q27 3 40 36q10 33 6 66q-3 33 -26 84q-24 48 -120 142l98 264h-190v-732l4 -93q1 -14 -22 -28q-21 -15 -36 -16l4 135v806l64 -44h168l30 42v0v0z" />
  </g>

</svg>
