<?xml version="1.0" standalone="no"?>
<!DOCTYPE svg PUBLIC "-//W3C//DTD SVG 1.1//EN" "http://www.w3.org/Graphics/SVG/1.1/DTD/svg11.dtd" >
<svg xmlns="http://www.w3.org/2000/svg" xmlns:xlink="http://www.w3.org/1999/xlink" version="1.1" viewBox="0 -36 256 256">
  <g transform="matrix(1 0 0 -1 0 220)">
   <path fill="currentColor"
d="M115 177h91l8 10l15 -13l-8 -7v-30q0 -12 1 -25l-14 -7v8h-94v-6l-14 -4q1 25 1 44t-1 39zM114 170v-22h94v22h-94zM114 120h94v21h-94v-21zM122.5 44q-7.5 15 -20.5 24l2 3q27 -9 31.5 -16.5t-0.5 -16.5t-12.5 6zM247 79h-46v-48q-3 -17 -24 -23q0 15 -30 17v7
q20 -3 30 -2.5t10 7.5v42h-83q-10 0 -19 -3l-9 10h111q0 13 -1 25l22 -9l-7 -6v-10h17l13 12zM111 205q-10 0 -19 -2l-9 9h37q0 16 -1 35l22 -9l-8 -6v-20h6l11 9l13 -16h-30v-19l-14 -6q1 16 1 25h-9zM186 179q1 14 1 26q-8 0 -17 -2l-9 9h26q0 20 -1 35l20 -8l-6 -6v-21
h17l11 10l14 -17h-42v-20zM34.5 138.5q-3.5 -11.5 -12 -14t-10.5 2.5t7 16t14 43h4q1 -36 -2.5 -47.5zM47 245l22 -13l-8 -9v-170q0 -22 1 -36l-15 -10q1 36 1 58v126q0 29 -1 54zM84.5 177.5q5.5 -7.5 3.5 -14.5t-7.5 -9.5t-7 10.5t-9.5 32l3 2q12 -13 17.5 -20.5z" />
  </g>

</svg>
