<?xml version="1.0" standalone="no"?>
<!DOCTYPE svg PUBLIC "-//W3C//DTD SVG 1.1//EN" "http://www.w3.org/Graphics/SVG/1.1/DTD/svg11.dtd" >
<svg xmlns="http://www.w3.org/2000/svg" xmlns:xlink="http://www.w3.org/1999/xlink" version="1.1" viewBox="0 -36 256 256">
  <g transform="matrix(1 0 0 -1 0 220)">
   <path fill="currentColor"
d="M91 153l-14 -8v13h-11v-46h10l10 11l13 -18h-33v-59l30 10v-4q-31 -14 -66 -31l-8 -8l-12 16l14 4q0 78 -1 100l20 -14l-6 -7v-75l16 6v115h-21v-8l-13 -7q1 14 1 44t-1 48l16 -9h42l9 9l12 -14l-8 -7q0 -39 1 -61zM32 165h45v54h-45v-54zM142 191h30v20h-30v-20z
M184 191h29v20h-29v-20zM226 182l-13 -4v6h-29v-17h38l11 9l15 -16h-101q-13 0 -21 -3l-10 10h56v17h-30v-4l-12 -4v24.5v25.5l12 -8h30q0 13 -1 28l20 -8l-7 -7v-13h27l8 10l12 -13l-6 -5q0 -15 1 -28zM223 71l-13 -6v9h-63v-6l-13 -5q1 22 1 46t-1 45l13 -7h62l8 8l12 -12
l-7 -5v-45q0 -5 1 -22zM210 140h-63v-16h63v16zM210 117h-63v-15h63v15zM210 95h-63v-14h63v14zM221 52q6 -7 3 -16t-10 2t-28 29l2 3q27 -11 33 -18zM165 55q-23 -18 -39 -26l-2 3q27 21 37 42l13 -15zM247 19h-134l-7 -8l-13 14l8 6v117q0 31 -1 48l21 -12l-7 -7v-151h106
l13 12z" />
  </g>

</svg>
