<?xml version="1.0" standalone="no"?>
<!DOCTYPE svg PUBLIC "-//W3C//DTD SVG 1.1//EN" "http://www.w3.org/Graphics/SVG/1.1/DTD/svg11.dtd" >
<svg xmlns="http://www.w3.org/2000/svg" xmlns:xlink="http://www.w3.org/1999/xlink" version="1.1" viewBox="0 -205 1048 1024">
  <g transform="matrix(1 0 0 -1 0 819)">
   <path fill="currentColor"
d="M423 926l44 -43q7 -7 3 -11q-3 -5 -17 -5h-327l-53 -1l-10 17l63 -1h260zM368 782l38 -35q22 -20 20 -29q-3 -8 -30 -12v-168l2 -30q1 -14 -1 -18q-2 -5 -16 -12q-22 -9 -27 -5q-3 3 -2 16l1 10v13h-189l1 -17q1 -14 -1 -19q-3 -9 -16 -17q-23 -8 -28 -1q-3 6 -1 28l2 26
v267l48 -32h174zM164 527h189v205h-189v-205zM377 434q34 -19 26 -25q-5 -3 -32 -3l-9 -17q-25 -54 -37 -81q-22 -46 -40 -80q41 8 84 21q38 10 88 25l6 -14q-49 -19 -132 -44q-49 -15 -127 -41l-111 -32q-1 -39 -7 -40q-6 -2 -24 32l-21 44q54 9 115 21q57 12 108 27
q18 42 38 106q16 52 36 124zM112 434q40 -23 69 -65q26 -36 31 -67q2 -28 -2 -45t-12 -20q-9 -2 -16 11q-8 13 -12 38q-6 36 -19 69q-17 38 -40 68zM847 908l38 -35q21 -19 16 -27q-5 -9 -35 -11q-25 -38 -53 -72q-30 -38 -61 -73q47 -39 106 -70q62 -30 141 -54l-2 -8
q-22 0 -38 -9q-11 -9 -18 -24q-56 22 -114 62q-49 36 -95 83q-55 -53 -121 -100q-68 -49 -151 -92l-7 9q75 46 139 99q64 54 115 112q-26 30 -47 58q-19 27 -32 51q-46 -58 -98 -107q-54 -52 -115 -96l-9 9q87 70 160 172q70 97 107 193q58 -25 68 -37q11 -13 -32 -13
l-33 -53h137zM665 860q-8 -10 -16 -22q-6 -10 -14 -21q23 -32 42 -53q22 -28 45 -49q29 37 52 72q24 36 43 72l1 1h-153zM872 525l41 -35q12 -8 7 -13q-6 -5 -20 -5h-158v-103h84l35 36l36 -33q11 -9 6 -14q-4 -4 -18 -4h-143v-111h134l50 49l52 -46q11 -8 6 -13t-19 -5
h-223v-126l1 -6q5 -13 2 -19q-3 -10 -22 -19q-23 -8 -28 -2q-3 4 0 22l2 8v142h-162l-91 -2l-3 20l93 -3h163v111h-83l-62 -2l-3 20l64 -3h84v103h-103l-70 -2l-3 20l72 -3h104v120l45 -7q31 -7 31 -16q-1 -9 -31 -13v-84h89z" />
  </g>

</svg>
