<?xml version="1.0" standalone="no"?>
<!DOCTYPE svg PUBLIC "-//W3C//DTD SVG 1.1//EN" "http://www.w3.org/Graphics/SVG/1.1/DTD/svg11.dtd" >
<svg xmlns="http://www.w3.org/2000/svg" xmlns:xlink="http://www.w3.org/1999/xlink" version="1.1" viewBox="0 -205 1024 1024">
  <g transform="matrix(1 0 0 -1 0 819)">
   <path fill="currentColor"
d="M352 668q3 -2 4 -4q8 -9 -10 -14q-18 -3 -26 -8q-9 -5 -36 -34h152l28 30l44 -30q12 -6 12 -12q-1 -7 -28 -28v-106l4 -58q2 -12 -16 -26q-18 -12 -36 -12v42h-240q3 -30 -12 -38q-22 -15 -40 -14l4 106v166l44 -20h56q18 32 42 82l54 -22v0v0zM204 430h240v62h-240v-62
v0v0zM204 518h240v64h-240v-64v0v0zM262 392l4 10q51 -13 64 -22q12 -9 18 -20q5 -12 -4 -24q-7 -13 -20 -10q-12 3 -18 16q-6 12 -14 24q-9 13 -30 26v0v0zM480 316l30 36l50 -40q3 -3 4 -6q4 -13 -10 -14h-278q-3 -24 -8 -56h154l22 30l52 -38q12 -5 12 -10q0 -4 -32 -22
q-13 -62 -28 -95q-13 -32 -34 -56q-22 -24 -56 -36q-4 27 -32 44t-70 34l6 18q39 -14 72 -20q32 -4 50 6q14 12 26 48q12 35 16 75h-164q-22 -75 -68 -121q-45 -43 -140 -90l-8 12q65 44 104 84q37 39 56 87q17 47 22 106h-114q-22 0 -46 -6l-14 30h426v0v0zM714 624
q3 -6 4 -6q-1 -8 -10 -10q-27 -9 -36 -24q-9 -12 -36 -56h242l36 44l58 -56q10 -6 -4 -14h-130q-9 -70 -30 -152q-18 -82 -66 -146q35 -47 118 -97q71 -33 130 -40v-20q-30 4 -54 -2t-36 -30q-51 26 -98 66q-46 39 -88 85q-64 -67 -134 -107q-70 -36 -148 -58l-4 14
q74 33 134 74q59 42 124 113q-66 105 -84 268q-28 -40 -76 -94l-14 10q32 48 68 120q35 71 62 152l72 -34v0v0zM620 502q35 -171 94 -264q35 59 52 130q15 68 24 134h-170v0v0zM60 952h788l36 38l54 -46q3 -3 4 -8q0 -12 -12 -12h-272v-76h154l32 36l58 -38q6 -6 6 -8
q0 -7 -30 -28v-50l4 -60q0 -9 -20 -24q-19 -12 -34 -12v36h-638v-10q-1 -12 -22 -24q-19 -10 -34 -10l4 94v130l46 -32h196v76h-236q-22 0 -70 -8l-14 36v0v0zM190 728h190v92h-190v-92v0v0zM432 728h174v92h-174v-92v0v0zM658 728h170v92h-170v-92v0v0zM606 848v76h-174
v-76h174v0v0z" />
  </g>

</svg>
