<?xml version="1.0" standalone="no"?>
<!DOCTYPE svg PUBLIC "-//W3C//DTD SVG 1.1//EN" "http://www.w3.org/Graphics/SVG/1.1/DTD/svg11.dtd" >
<svg xmlns="http://www.w3.org/2000/svg" xmlns:xlink="http://www.w3.org/1999/xlink" version="1.1" viewBox="0 -205 1024 1024">
  <g transform="matrix(1 0 0 -1 0 819)">
   <path fill="currentColor"
d="M628 894q-17 -30 -46 -98h296l44 58l66 -68q3 -5 4 -10q0 -9 -8 -8h-418q-28 -64 -50 -100q-22 -34 -58 -82l-14 8q23 45 46 94q21 48 46 118q24 69 60 178q83 -33 86 -38q0 -6 -2 -8q-3 -3 -18 -8q-16 -3 -34 -36v0v0zM500 590h274l32 32l54 -52q19 -15 -6 -24
q-28 -5 -40 -16q-12 -10 -42 -46t-98 -140q-68 -105 -82 -128q-12 -24 -18 -48q-4 -23 4 -35q7 -11 20 -16q11 -4 62 -2h172q36 -1 54 4q18 6 28 30q9 23 18 163h20q2 -124 14 -142q9 -18 28 -29q-12 -34 -36 -50t-48 -20q-22 -2 -70 -2h-196q-55 -1 -76 6q-21 6 -30 18
q-9 11 -14 34q-4 20 4 49q6 30 24 60q15 31 78 128q60 96 138 198h-196q-19 0 -52 -8l-20 36v0v0zM48 830h186v156l80 -32q9 -4 0 -16l-32 -14v-94h100l34 42l56 -50q3 -3 4 -6q0 -12 -12 -12h-182v-110h80l34 40l48 -46q3 -3 6 -8q0 -12 -12 -12h-156v-120h102l38 44
l54 -52q3 -3 6 -8q0 -10 -12 -10h-188v-56q53 -27 98 -60q44 -30 58 -56q12 -25 4 -46q-7 -19 -26 -20q-19 0 -28 22q-7 21 -22 52q-15 28 -84 86v-301l4 -80q0 -10 -18 -24q-16 -12 -38 -12l4 116v273q-30 -55 -74 -118q-42 -63 -126 -146l-10 10q74 101 124 190
q47 88 80 170h-132q-21 0 -56 -8l-16 34h210v120h-94q-21 0 -56 -8l-16 34h166v110h-114q-21 0 -56 -8l-16 34v0v0z" />
  </g>

</svg>
