<?xml version="1.0" standalone="no"?>
<!DOCTYPE svg PUBLIC "-//W3C//DTD SVG 1.1//EN" "http://www.w3.org/Graphics/SVG/1.1/DTD/svg11.dtd" >
<svg xmlns="http://www.w3.org/2000/svg" xmlns:xlink="http://www.w3.org/1999/xlink" version="1.1" viewBox="0 -36 256 256">
  <g transform="matrix(1 0 0 -1 0 220)">
   <path fill="currentColor"
d="M168 246l22 -10l-8 -8v-51h28l12 13l17 -20h-57v-57h40l12 12l15 -19h-67q0 -76 1 -92l-15 -6q1 49 1 98h-43q-10 0 -19 -2l-9 9h71v57h-40q-11 -27 -25 -47l-3 2q11 26 16.5 46.5t9.5 49.5l19 -11l-6 -6q-4 -11 -9 -27h38q0 38 -1 69zM44 247q17 -13 25 -24t-3 -24h19
l13 12l16 -19h-76q-11 -1 -20 -3l-9 10h51q-5 22 -19 46zM40 37h38v45h-38v-45zM71 162l12 10l17 -17h-48q-11 1 -20 -3l-9 10h48zM70 124l12 11l17 -18h-45q-11 1 -20 -2l-9 9h45zM92 48q0 -12 1 -27l-15 -7v16h-38v-14l-16 -7q1 22 1 44.5t-1 45.5l17 -10h36l8 10l15 -14
l-8 -6v-31z" />
  </g>

</svg>
