<?xml version="1.0" standalone="no"?>
<!DOCTYPE svg PUBLIC "-//W3C//DTD SVG 1.1//EN" "http://www.w3.org/Graphics/SVG/1.1/DTD/svg11.dtd" >
<svg xmlns="http://www.w3.org/2000/svg" xmlns:xlink="http://www.w3.org/1999/xlink" version="1.1" viewBox="0 -36 256 256">
  <g transform="matrix(1 0 0 -1 0 220)">
   <path fill="currentColor"
d="M55 176l-7 -5v-15h29v33l19 -7l-5 -6v-20h26q0 10 -1 25l22 -9l-7 -6q0 -12 1 -20l-15 -4v7h-26v-31h26q0 10 -1 22l20 -5l-5 -4q0 -11 1 -20l-15 -3v3h-74l-8 -8l-12 13l6 4q1 10 0 23l20 -7l-6 -5v-13h34v31h-29l-7 -6l-12 11l6 3v27zM105 96l12 11l16 -18h-70
q-11 0 -20 -2l-10 9h72zM64 49l-8 -1q-27 -25 -43 -35l-4 3q10 9 20.5 21t17.5 26zM126 48q6 -4 7.5 -10t-4.5 -11.5t-10 6t-20 24.5l2 3q19 -8 25 -12zM75 7l1 23v37h-33q-9 1 -21 -2l-9 9h108l12 11l16 -18h-59v-41l1 -14zM188 182l-7 -4q-7 -15 -13 -28h44l15 13l15 -20
h-22q-6 -31 -11 -47.5t-17 -34.5q28 -34 56 -39v-5q-16 0 -20 -10q-17 11 -28 23.5t-17 19.5q-26 -27 -67 -43l-2 4q43 26 63 53q-12 22 -19 64q-8 -15 -25 -32l-3 3q13 19 23.5 45.5t13.5 47.5zM163 137q8 -40 22 -63q15 25 20 69h-40zM129 211h-37q0 -8 1 -18l-17 -6
q1 14 1 24h-28q-10 0 -20 -2l-9 9h57q0 20 -1 28l24 -7l-8 -5v-16h12l11 8zM132 218h33q0 16 -2 27l24 -7l-8 -5v-15h33l14 10l16 -17h-63q0 -3 1 -13l-17 -7q2 17 2 20h-12q-6 0 -14 -1z" />
  </g>

</svg>
