<?xml version="1.0" standalone="no"?>
<!DOCTYPE svg PUBLIC "-//W3C//DTD SVG 1.1//EN" "http://www.w3.org/Graphics/SVG/1.1/DTD/svg11.dtd" >
<svg xmlns="http://www.w3.org/2000/svg" xmlns:xlink="http://www.w3.org/1999/xlink" version="1.1" viewBox="0 -36 256 256">
  <g transform="matrix(1 0 0 -1 0 220)">
   <path fill="currentColor"
d="M217 203h-172q0 -17 -5 -24t-15.5 -6t-4 8t11.5 15t8 25h4l1 -11h84q0 16 -17 34l2 2q29 -10 31 -18.5t-6 -17.5h79l10 11l17 -16q-19 -4 -38 -27l-3 2zM62 171q0 13 -2 26l23 -8l-8 -6v-18h13l11 10l15 -17h-39v-22h18l13 10l15 -17h-33l15 -9l-8 -5l-19 -19h14l13 9
l14 -16h-42v-24h21l13 10l15 -17h-49v-18v-26l-15 -4q2 14 2 28v20h-23q-11 0 -20 -2l-10 9h53v24h-9q-11 0 -20 -2l-10 9h49q13 24 15 33h-47q29 -10 20.5 -23t-10.5 -2t-13 25q-9 0 -18 -1l-7 8h50v22h-7q-11 0 -20 -2l-10 9h37v6zM158 181.5l-9 -13.5h64l10 10l14 -13
l-10 -6q-1 -113 -2.5 -122.5t-6.5 -14t-16 -8.5q1 10 -25 18v4q22 -2 27 -2.5t7 7.5t2 49.5v70.5h-68q-11 -14 -26 -25l-3 2q10 10 19.5 29t11.5 33l18 -10q-4 -4 -7 -8.5zM150 122.5q5 -6.5 -1.5 -14.5t-9 1t-13.5 29l2 2q17 -11 22 -17.5zM201.5 69q6.5 -6 2 -16t-10 1.5
t-23.5 25.5q0 -43 1 -60l-15 -7q1 20 1 65v15q-21 0 -32 -3l-10 10h42q0 35 -1 55l21 -10l-7 -7v-38h20l11 9l12 -16h-43v-8q25 -10 31.5 -16zM209 133q-8 -2 -15.5 -10t-18.5 -19l-3 1q6 10 12 20.5t8 20.5zM142.5 64.5q-2.5 -2.5 -15 -14t-24.5 -18.5l-2 3q13 11 24 26
t14 24l15 -12q-9 -6 -11.5 -8.5z" />
  </g>

</svg>
