<?xml version="1.0" standalone="no"?>
<!DOCTYPE svg PUBLIC "-//W3C//DTD SVG 1.1//EN" "http://www.w3.org/Graphics/SVG/1.1/DTD/svg11.dtd" >
<svg xmlns="http://www.w3.org/2000/svg" xmlns:xlink="http://www.w3.org/1999/xlink" version="1.1" viewBox="0 -205 1048 1024">
  <g transform="matrix(1 0 0 -1 0 819)">
   <path fill="currentColor"
d="M841 369q16 -17 16 -24q0 -10 -34 -13v-243q-2 -8 -23 -11q-14 -4 -17 -4q-4 0 -5 4q-1 2 0 15q1 14 1 24h-534q0 -40 1 -37q-2 -5 -26 -10q-10 -4 -14 -4q-5 0 -6 5.5t-1 22.5q1 25 1 39v213l-6 57l57 -25h522l13 22q9 13 11 13q4 0 16 -12zM779 139v219h-534v-219h534z
M364 866q18 -18 18 -26q0 -10 -27 -14v-272q0 -51 1 -50q-3 -8 -22 -11q-13 -4 -18 -4q-4 0 -5 4.5t-1 17.5q1 7 1 19v13h-163v-29q0 -38 -1 -42t-22 -10q-12 -4 -16 -4q-6 0 -7 6q-1 3 0 20q1 21 1 37l-4 384l53 -31h147l12 15q12 15 13 15q2 0 15 -13zM975 439
q-22 9 -34 -8t-15 -17q-7 0 -37 21q-150 115 -197 278q-43 -130 -162 -209q-117 -72 -249 -89l-1 13q141 27 260 126q116 106 125 249h-143q-51 -79 -111 -123l-11 8q38 37 85 127q50 95 64 162l49 -24q25 -12 25 -21q0 -10 -39 -13q-30 -67 -49 -95h329l17 24q7 11 9 11
q4 0 21 -18l25 -26q15 -16 15 -23q0 -11 -40 -12l-83 -86l-12 8l56 101h-161q-2 -35 -9 -61q22 -96 108.5 -179.5t171.5 -110.5zM311 564v288h-163v-288h163z" />
  </g>

</svg>
