<?xml version="1.0" standalone="no"?>
<!DOCTYPE svg PUBLIC "-//W3C//DTD SVG 1.1//EN" "http://www.w3.org/Graphics/SVG/1.1/DTD/svg11.dtd" >
<svg xmlns="http://www.w3.org/2000/svg" xmlns:xlink="http://www.w3.org/1999/xlink" version="1.1" viewBox="0 -205 1024 1024">
  <g transform="matrix(1 0 0 -1 0 819)">
   <path fill="currentColor"
d="M136 944l56 -38h250l26 34l64 -42q6 -4 6 -8q1 -6 -34 -30v-160l4 -80q0 -10 -14 -22q-15 -9 -42 -12v28h-264v-6q-1 -6 -22 -14q-22 -8 -34 -6l4 110v246v0v0zM188 642h264v98h-264v-98v0v0zM188 768h264v110h-264v-110v0v0zM180 462h124v138l76 -30q2 -3 2 -6
q7 -4 -4 -10l-24 -14v-78h108l32 44l60 -52q3 -5 4 -10q0 -7 -8 -8h-196v-112h88l36 42l56 -52q3 0 4 -8q0 -7 -12 -8h-172v-108l228 22l4 -22l-388 -59q-60 -8 -102 -38l-40 67l248 24v114h-88q-20 0 -64 -6l-20 32h172v112h-140q-63 -93 -108 -138l-12 10q77 120 134 258
q58 -30 62 -36q3 -6 0 -8q-4 -3 -22 -12q-18 -6 -38 -48v0v0zM916 748l64 -44q3 -1 10 -8q3 -12 -12 -14l-280 -52q6 -87 18 -156q9 -68 30 -136q36 66 60 120q20 54 50 130l70 -38q9 -11 -6 -16q-20 -6 -28 -14q-8 -6 -40 -78q-33 -69 -86 -150q30 -60 58 -92
q25 -30 56 -61q32 -31 40 -14q6 15 12 63q5 48 14 124h18v-199q0 -23 16 -44q15 -18 10 -30q-4 -11 -26 -8q-21 4 -60 28q-40 24 -82 68q-40 41 -86 121q-48 -66 -108 -115q-58 -50 -130 -92l-8 16q66 49 120 101q53 53 106 130q-33 77 -44 154q-11 74 -22 182l-54 -12
q-15 -9 -30 -20l-36 38l118 22q-10 120 -8 330l80 -34q22 -9 8 -20l-36 -12q-3 -162 6 -258l190 38l28 52v0v0zM752 906l12 12q63 -34 88 -56q24 -20 30 -46q5 -24 -4 -38q-10 -15 -28 -14q-16 0 -22 24q-4 23 -16 46q-9 24 -60 72v0v0z" />
  </g>

</svg>
