<?xml version="1.0" standalone="no"?>
<!DOCTYPE svg PUBLIC "-//W3C//DTD SVG 1.1//EN" "http://www.w3.org/Graphics/SVG/1.1/DTD/svg11.dtd" >
<svg xmlns="http://www.w3.org/2000/svg" xmlns:xlink="http://www.w3.org/1999/xlink" version="1.1" viewBox="0 -36 256 256">
  <g transform="matrix(1 0 0 -1 0 220)">
   <path fill="currentColor"
d="M41 243l17 -6h56l11 9l15 -16h-84v-10h52l10 8l14 -15h-76v-11h51l10 9l14 -16h-75v-8h68l11 8l15 -15h-79l10 -6q-8 0 -17.5 -6t-21.5 -11l72 3q-7 6 -18 13l2 2q26 -6 32.5 -12t1.5 -12.5t-7.5 -2.5t-6.5 8q-21 -3 -50 -6.5t-35 -6.5l-10 15q10 1 20.5 9t15.5 13h-20
q-11 0 -21 -2l-9 9h33q0 39 -1 56zM230 232q-9 -1 -34 -11t-58 -18l-1 4q27 8 50 20.5t29 18.5zM241 200q-5 1 -33.5 -8t-57.5 -14l-1 4q30 8 50 16.5t29 15.5zM247 172q-11 -2 -36.5 -10t-72.5 -15v4q42 10 64.5 19.5t30.5 15.5zM121 147l24 -7l-9 -6v-5h53l8 10l15 -12
l-8 -6v-14h11l12 11l16 -18h-39q0 -15 1 -22l-15 -5v6h-50h-4v-48q0 -17 -19 -23q-5 12 -32 18v4q23 -2 30 -1.5t7 7.5v15q-27 -10 -53.5 -21.5t-30.5 -14.5l-15 13q16 3 43 10.5t56 17.5v23h-45q-11 0 -20 -2l-10 9h75v15h-72q-10 0 -20 -2l-10 9h102v14h-44q-11 0 -20 -2
l-10 9h74q0 9 -1 18zM136 107h54v15h-54v-15zM136 86h54v14h-54v-14zM91.5 66q8.5 -4 5 -13t-12 0.5t-25.5 17.5l1 3q23 -4 31.5 -8zM170 44l-4 3q17 9 32 28l13 -13l-11 -5q-16 -8 -30 -13zM133 80q62 -48 113 -51v-4q-13 -1 -18 -12q-61 19 -95 61v6z" />
  </g>

</svg>
