<?xml version="1.0" standalone="no"?>
<!DOCTYPE svg PUBLIC "-//W3C//DTD SVG 1.1//EN" "http://www.w3.org/Graphics/SVG/1.1/DTD/svg11.dtd" >
<svg xmlns="http://www.w3.org/2000/svg" xmlns:xlink="http://www.w3.org/1999/xlink" version="1.1" viewBox="0 -246 2048 2048">
  <g transform="matrix(1 0 0 -1 0 1802)">
   <path fill="currentColor"
d="M1006 660q-65 -259 -261 -393q-208 -138 -561 -181l-22 52q341 65 524 213q134 110 188 299h-657l-22 51h692q23 101 28 213q120 -12 160 -25q39 -11 39 -33q0 -23 -82 -45q-7 -64 -14 -100h581l76 88q121 -90 121 -114q0 -13 -20 -25l-50 -28q-12 -300 -100 -419
q-71 -96 -233 -96q-3 51 -56 76q-62 26 -268 63v56q224 -37 342 -37q115 0 156 96q35 89 47 289h-608zM584 1377q-179 -221 -430 -375l-35 43q239 175 420 448q-25 59 -70 127q-169 -125 -321 -202l-31 41q168 103 301 233q-71 90 -164 180l41 33q101 -83 174 -162
q87 90 160 195q135 -71 135 -107q0 -26 -82 -26q-72 -72 -149 -135q186 -237 186 -535q0 -167 -86 -268q-72 -85 -174 -86q-3 47 -51 71q-42 20 -146 43v50q112 -19 199 -19q71 0 113 68q39 63 39 168q0 103 -29 215zM1180 1207q-112 -224 -426 -361l-33 46q287 165 367 387
q-77 54 -226 122l27 43q133 -40 223 -81q23 94 27 231h-334l-20 51h354v291q189 -10 189 -50q0 -22 -72 -47v-188h248l71 84q115 -88 115 -119q0 -15 -18 -24l-41 -23q0 -292 96 -481q27 -53 55 -53q37 0 84 301l51 -29q-24 -206 -24 -270q0 -98 51 -125q-25 -72 -100 -72
q-55 0 -112 45q-54 44 -95 119q-121 220 -121 596h-260q-4 -172 -37 -293q193 -120 193 -207q0 -59 -53 -59q-31 0 -74 53q-52 65 -105 113z" />
  </g>

</svg>
