<?xml version="1.0" standalone="no"?>
<!DOCTYPE svg PUBLIC "-//W3C//DTD SVG 1.1//EN" "http://www.w3.org/Graphics/SVG/1.1/DTD/svg11.dtd" >
<svg xmlns="http://www.w3.org/2000/svg" xmlns:xlink="http://www.w3.org/1999/xlink" version="1.1" viewBox="0 -205 1024 1024">
  <g transform="matrix(1 0 0 -1 0 819)">
   <path fill="currentColor"
d="M668 974l86 -32q8 -6 8 -8q0 -4 -6 -10l-34 -20v-240q114 -49 150 -68q34 -18 62 -42q27 -21 36 -38q8 -18 10 -38q1 -18 -10 -30q-9 -12 -26 -8q-15 3 -32 40q-18 34 -68 80q-49 46 -122 80v-456l2 -115q1 -12 -22 -24q-21 -12 -38 -12l4 161v780v0v0zM220 980
q108 -54 126 -84q19 -30 14 -50q-3 -21 -14 -30q-12 -8 -26 -6q-13 2 -20 32q-5 30 -22 54q-15 21 -66 72l8 12v0v0zM84 776h304l26 36l66 -46q9 -9 10 -14q0 -6 -18 -12q-31 -13 -50 -38q-51 -63 -98 -138v-58l52 -16l108 136q57 -47 60 -52q3 -6 0 -8q-3 -4 -24 -2
q-21 3 -120 -84q45 -22 66 -40t24 -38q3 -19 -2 -32q-7 -12 -22 -14q-13 -2 -22 12q-10 12 -22 34q-13 20 -40 44q-28 23 -58 38v-308l4 -111q1 -13 -22 -26q-21 -16 -38 -14l6 133v352q-89 -105 -214 -200l-10 12q99 102 150 160q47 58 86 110q36 51 102 156h-232
q-25 1 -46 -10l-26 38v0v0z" />
  </g>

</svg>
