<?xml version="1.0" standalone="no"?>
<!DOCTYPE svg PUBLIC "-//W3C//DTD SVG 1.1//EN" "http://www.w3.org/Graphics/SVG/1.1/DTD/svg11.dtd" >
<svg xmlns="http://www.w3.org/2000/svg" xmlns:xlink="http://www.w3.org/1999/xlink" version="1.1" viewBox="0 -144 1024 1024">
  <g transform="matrix(1 0 0 -1 0 880)">
   <path fill="currentColor"
d="M253 342l35 -6l118 92h-360v21h387l21 17l2 -4l16 14l59 -48l-27 -17l-64 -27v2l-86 -39l-42 -15l5 -1l16 -10l-16 -10v-179l-1 -14l-2 -14l-4 -12l-7 -12l-9 -11l-11 -9l-12 -7l-13 -4l-13 -3h-14v32l-86 16v16h86l7 1h4l4 1l1 2h1l1 1l1 2l1 4l1 4l1 7v210zM570 600
l-69 -29l-9 19l78 33v237l65 -11l16 -11l-16 -9v-179l82 33v300l64 -10l16 -11l-16 -10v-242l100 41v12l32 27l60 -49l-27 -16l-1 -37v-272l-1 -12l-4 -13l-5 -12l-7 -12l-9 -10l-9 -9l-12 -8l-12 -5l-13 -4l-13 -2l-14 -1v32l-43 16v16h43l7 1l6 1l4 1l4 1l3 2l3 3l4 7l4 8
v272v39l-100 -40v-419l-64 -32v424l-82 -34v-465v-7l1 -4l1 -4l1 -1l1 -1l1 -1l2 -1l3 -1l5 -1l6 -1h257l31 135h11l-10 -135l18 -13l13 -19l-13 -19l-19 -13h-288l-14 1l-13 2l-13 4l-12 7l-10 9l-10 11l-6 12l-4 13l-3 13l-1 14v439zM123 775l65 -32h194l32 26l59 -48
l-27 -21v-163l-64 -33v54h-194v-37l-65 -33v287zM382 721h-194v-141h194v141zM24 827v21h229v134l64 -10l16 -11l-16 -10v-103h110l54 54l64 -54v-21h-521z" />
  </g>

</svg>
