<?xml version="1.0" standalone="no"?>
<!DOCTYPE svg PUBLIC "-//W3C//DTD SVG 1.1//EN" "http://www.w3.org/Graphics/SVG/1.1/DTD/svg11.dtd" >
<svg xmlns="http://www.w3.org/2000/svg" xmlns:xlink="http://www.w3.org/1999/xlink" version="1.1" viewBox="0 -36 256 256">
  <g transform="matrix(1 0 0 -1 0 220)">
   <path fill="currentColor"
d="M183 180h24v44h-24v-44zM222 170l-15 -5v8h-101v-4l-14 -7q1 19 1 40.5t-1 37.5l14 -9h100l8 9l14 -12l-7 -7v-24q0 -14 1 -27zM106 180h24v44h-24v-44zM142 180h29v44h-29v-44zM149 166l-5 -6v-60q1 -34 -9.5 -47.5t-33.5 -20.5l-2 3q16 10 22 18t8 14.5t2 10.5
q-36 -14 -44 -20l-11 16q25 3 55 10v19h-13q-10 -1 -20 -3l-9 10h42v25h-20q-10 -1 -20 -3l-9 10h49v10q0 13 -1 22zM190 167l-6 -6v-20h24l13 11l15 -18h-52v-24h22l11 10l14 -17h-47v-29h28l13 11l13 -18h-54q0 -13 1 -27l-15 -7l1 29v29v57q0 15 -1 26zM36 243
q24 -14 29 -23t-1.5 -19.5t-11 6.5t-18.5 33zM39 54q11 25 22 52h-18l-8 -9l-13 12l9 6l22 44h-17l-11 -3l-10 10h39l9 11l13 -16l-10 -5q-6 -10 -22 -43h18l8 8l12 -14l-8 -6q-10 -20 -20 -46q26 -22 84.5 -24t109.5 6v-4q-18 -5 -22 -17q-92 -2 -121.5 4.5t-58.5 29.5
q-19 -21 -26 -37l-12 12q16 17 31 29z" />
  </g>

</svg>
