<?xml version="1.0" standalone="no"?>
<!DOCTYPE svg PUBLIC "-//W3C//DTD SVG 1.1//EN" "http://www.w3.org/Graphics/SVG/1.1/DTD/svg11.dtd" >
<svg xmlns="http://www.w3.org/2000/svg" xmlns:xlink="http://www.w3.org/1999/xlink" version="1.1" viewBox="0 -205 1024 1024">
  <g transform="matrix(1 0 0 -1 0 819)">
   <path fill="currentColor"
d="M306 976l72 -26q22 -6 0 -18l-24 -14v-44h110l36 40l58 -52q6 -7 -2 -14h-202v-98h70l28 30l58 -42q6 -4 6 -10q0 -4 -14 -8q-32 -12 -52 -38q-87 -114 -176 -180q-88 -63 -218 -126l-8 18q134 72 218 144q81 72 156 186h-220l-18 -36q35 -12 68 -36q29 -21 32 -42
q1 -21 -10 -30q-11 -7 -22 -4q-12 2 -18 22t-20 40q-16 18 -40 36q-42 -87 -116 -170l-12 10q88 144 146 306l66 -28q6 -3 6 -6q3 -7 -8 -10q-24 -1 -36 -26h86v226v0v0zM650 834q-31 2 -56 -10l-26 36h284l26 28q63 -51 66 -56q2 -5 -4 -10q-7 -3 -22 -6q-15 -1 -48 -44
q-31 -41 -110 -106q52 -25 104 -58q51 -33 66 -56q15 -22 12 -40t-20 -24q-18 -4 -36 20q-19 24 -50 54q-30 28 -104 80q-145 -96 -340 -144l-8 14q180 59 312 152q-60 39 -138 72l6 16q80 -30 154 -68q77 63 134 150h-202v0v0zM82 334h412v180l76 -26q7 -3 8 -6q6 -3 0 -8
l-34 -18v-122h314l42 52l66 -60q3 -3 4 -8q-1 -10 -16 -10h-352q56 -63 122 -104q63 -39 118 -56q51 -13 126 -19v-18q-25 -1 -52 -8q-25 -6 -46 -36q-42 18 -98 50q-54 31 -102 75q-45 41 -98 116h-28v-154l4 -93q0 -14 -18 -28q-19 -14 -40 -14l4 127v160h-14
q-105 -99 -194 -158q-87 -56 -228 -115l-8 14q116 61 200 119q81 57 166 142h-252q-21 0 -66 -8l-16 34v0v0zM270 478l6 14q57 -18 84 -36q28 -18 38 -36q9 -18 4 -36q-3 -18 -20 -24q-18 -4 -26 16q-7 17 -20 44q-12 26 -66 58v0v0zM712 496q63 -33 64 -38q-1 -6 -2 -8
q-1 0 -16 -6q-13 -3 -38 -24q-24 -21 -90 -80l-12 10q60 80 94 146v0v0z" />
  </g>

</svg>
