<?xml version="1.0" standalone="no"?>
<!DOCTYPE svg PUBLIC "-//W3C//DTD SVG 1.1//EN" "http://www.w3.org/Graphics/SVG/1.1/DTD/svg11.dtd" >
<svg xmlns="http://www.w3.org/2000/svg" xmlns:xlink="http://www.w3.org/1999/xlink" version="1.1" viewBox="0 -36 256 256">
  <g transform="matrix(1 0 0 -1 0 220)">
   <path fill="currentColor"
d="M28 235q25 -9 29.5 -16t0 -15.5t-9.5 3t-21 25.5zM11 179q28 -11 30 -20t-3.5 -14.5t-9.5 5.5t-18 26zM34.5 83.5q6.5 3.5 29.5 102.5l5 -1q-18 -84 -20.5 -95.5t-3.5 -22t0.5 -34t-9 -18t-7 21.5t3.5 26t-21 15v4q16 -2 22.5 1.5zM104 216h95v12h-95v-12zM104 196h95v13
h-95v-13zM106 235h92l6 8l14 -10l-6 -7v-14q0 -11 1 -21l-14 -5v3h-16v-16h18l10 11l18 -18h-46v-15h30l10 11l18 -18h-60q35 -32 67 -32v-4q-11 -5 -16 -12q-32 14 -60 48h-39q-14 -18 -31 -29.5t-43 -20.5l-1 4q22 10 37.5 23.5t21.5 22.5h-23q-13 0 -22 -3l-10 10h58v15
h-9q-13 0 -22 -3l-10 10h41v16h-16v-2l-14 -4q1 17 1 29.5t-1 28.5zM133 173h37v16h-37v-16zM133 151h37v15h-37v-15zM112 25h82v19h-82v-19zM161.5 126q1.5 -5 -3.5 -11t-7.5 2t-14.5 20l2 2q22 -8 23.5 -13zM179 111l10 11l18 -18h-79q-13 0 -22 -3l-10 10h83zM189 90
l10 11l18 -18h-95q-13 0 -22 -3l-10 10h99zM192 70l10 11l18 -18h-99q-13 0 -22 -3l-10 10h103zM208 14l-14 -3v7h-82v-6l-15 -4q1 8 1 23t-1 25l16 -5h80l6 8l15 -10l-7 -6q0 -13 1 -29z" />
  </g>

</svg>
