<?xml version="1.0" standalone="no"?>
<!DOCTYPE svg PUBLIC "-//W3C//DTD SVG 1.1//EN" "http://www.w3.org/Graphics/SVG/1.1/DTD/svg11.dtd" >
<svg xmlns="http://www.w3.org/2000/svg" xmlns:xlink="http://www.w3.org/1999/xlink" version="1.1" viewBox="0 -36 256 256">
  <g transform="matrix(1 0 0 -1 0 220)">
   <path fill="currentColor"
d="M133.5 56q6.5 23 6.5 52.5t-1 43.5l14 -6h5q9 23 12 38l18 -9q-13 -8 -23 -29h29l8 9l15 -12l-8 -5v-102q-1 -7 9 -7h5q5 -1 6.5 10t0.5 21h5q0 -25 13 -29q-9 -14 -20 -14h-13q-20 0 -19 18v104h-42q0 -67 -9.5 -88.5t-41.5 -41.5l-2 3q26 21 32.5 44zM187.5 93
q2.5 -7 -4.5 -15.5t-10 4.5t-15 28l2 3q25 -13 27.5 -20zM54.5 143.5q5.5 -4.5 5 -10t-6 -11.5t-9.5 7t-18 30l3 2q20 -13 25.5 -17.5zM114 81q7 -8 2.5 -20.5t-12 3t-21.5 31.5v-55q0 -19 1 -24l-15 -7q1 19 1 81q-19 -39 -57 -71l-3 2q37 44 53 87h-7q-21 1 -32 -2l-10 9
h56v42q0 10 -1 17l23 -9l-9 -7v-43h21l12 11l15 -18h-48v-8q24 -11 31 -19zM91 121l-3 2q15 21 22 40l18 -13l-10 -4q-5 -9 -27 -25zM69 228l-10 -17h52l12 11l15 -18h-63q27 -14 28.5 -20t-4.5 -12.5t-10 4.5t-22 28h-12q-18 -27 -39 -43l-3 2q13 17 25 37.5t20 44.5
l22 -13zM174 230l-11 -19h51l13 12l16 -19h-61q21 -8 26.5 -13.5t3.5 -12t-6.5 -7t-8.5 7.5t-22 25h-17q-11 -18 -27 -35l-4 2q18 30 24.5 46.5t11.5 27.5l20 -12z" />
  </g>

</svg>
