<?xml version="1.0" standalone="no"?>
<!DOCTYPE svg PUBLIC "-//W3C//DTD SVG 1.1//EN" "http://www.w3.org/Graphics/SVG/1.1/DTD/svg11.dtd" >
<svg xmlns="http://www.w3.org/2000/svg" xmlns:xlink="http://www.w3.org/1999/xlink" version="1.1" viewBox="0 -154 1024 1024">
  <g transform="matrix(1 0 0 -1 0 870)">
   <path fill="currentColor"
d="M939 571v-153q-4 -180 -24 -235q-16 -57 -48 -86q-33 -29 -115 -45q-4 47 -43 53q-18 7 -81 27l3 16q107 -22 129 -23q20 -2 52 6q30 8 53 50q23 41 27 215v186h-246l-30 -39l-56 41q21 12 29 33l58 277h-71q-25 1 -41 -13l-31 33h395l37 50l67 -58q19 -14 -11 -12h-294
l-63 -292h243l28 41l51 -40q17 -12 0 -19zM447 571v-153q-6 -180 -25 -235q-16 -57 -48 -86q-30 -29 -109 -45q-4 47 -42 53q-21 7 -87 27l4 16q106 -22 128 -23q20 -2 51 6t53 50q24 41 28 215v186h-240l-30 -39l-53 41q21 12 29 33l57 277h-77q-24 1 -40 -13l-31 33h366
l37 50l67 -58q19 -14 -11 -12h-263l-62 -292h237l33 41l45 -40q17 -12 0 -19z" />
  </g>

</svg>
