<?xml version="1.0" standalone="no"?>
<!DOCTYPE svg PUBLIC "-//W3C//DTD SVG 1.1//EN" "http://www.w3.org/Graphics/SVG/1.1/DTD/svg11.dtd" >
<svg xmlns="http://www.w3.org/2000/svg" xmlns:xlink="http://www.w3.org/1999/xlink" version="1.1" viewBox="0 -154 1024 1024">
  <g transform="matrix(1 0 0 -1 0 870)">
   <path fill="currentColor"
d="M99 942l47 -38h127l30 41l48 -43q18 -12 0 -19l-20 -13v-700q13 -115 -68 -124q-4 44 -102 65l2 16q86 -23 106 -21t20 50v283h-130q-4 -124 -24 -221q-28 -132 -122 -206l-8 8q72 94 94 212q20 119 18 331v318q-6 24 -27 51zM1009 189l1 -14q-50 -10 -55 -40
q-25 3 -47 6q-2 -24 -5 -35q-10 -37 -33 -56q-19 -21 -84 -35q0 15 -11 25q-10 10 -30 18q-21 7 -59 15l4 15q82 -14 100 -14q17 0 35 3q18 2 32 29q6 12 9 42q-73 14 -132 44q-91 -126 -267 -176l-5 13q149 61 234 184q-36 20 -71 47q-57 -77 -172 -129l-9 12
q107 71 153 140q-31 26 -63 56q-36 -49 -82 -90l-11 8q44 59 83 129t51 112q3 11 -10 29l8 7l65 -26q15 -8 6 -12q-22 -3 -27 -16q-12 -26 -23 -46h262l31 34l43 -35q18 -12 0 -17l-20 -12v-122q0 -55 -1 -94q52 -5 100 1zM479 677h201v87h-225v-253q-8 -404 -125 -489
l-11 10q47 69 68 169q22 100 24 325v240q0 24 -22 48l12 12l43 -42h236v118h-173q-27 1 -45 -13l-34 33h442l35 48l74 -54q22 -14 -11 -14h-244v-118h192l32 33l58 -50q8 -13 -10 -13q-33 1 -57 -27q-10 -10 -38 -42l21 -14q22 -14 -11 -14h-187v-100h144l35 48l74 -54
q22 -14 -11 -14h-404q-27 0 -45 -13l-34 33h197v100h-122q-27 1 -45 -13zM159 675h130v209h-130v-209zM159 657v-122v-78h130v200h-130zM813 414q-11 -105 -57 -186q59 -26 114 -35q1 29 1 68v153h-58zM922 764h-198v-87h95l32 42l34 -23zM693 414q-16 -72 -49 -127
q38 -24 72 -41q45 77 53 168h-76zM648 414h-65q-17 -30 -35 -57q33 -26 64 -48q24 46 36 105z" />
  </g>

</svg>
