<?xml version="1.0" standalone="no"?>
<!DOCTYPE svg PUBLIC "-//W3C//DTD SVG 1.1//EN" "http://www.w3.org/Graphics/SVG/1.1/DTD/svg11.dtd" >
<svg xmlns="http://www.w3.org/2000/svg" xmlns:xlink="http://www.w3.org/1999/xlink" version="1.1" viewBox="0 -120 1000 1000">
  <g transform="matrix(1 0 0 -1 0 880)">
   <path fill="currentColor"
d="M426 392q-42 -42 -80 -77l-13 12q31 33 93 115v42l23 -7q36 60 63 113h-136l-8 27h93v154h-63l-9 27h72v156l55 -13q28 -6 28 -15t-15 -15l-13 -6v-107h22l20 34l39 -34q18 52 33 100l49 -42q20 -16 20 -24q0 -12 -15 -12h-14q-50 -112 -93 -203h26l27 39l59 -47v-19
h-128l-10 -19q63 -6 84 -15q33 -15 33 -38q0 -16 -11 -25q-7 -5 -19 -5q-7 0 -13 3q-6 4 -22 26q-21 28 -58 41q-37 -58 -62 -94h92l20 29l49 -29q20 -11 20 -20q0 -8 -14 -14l-12 -4v-343l-57 -13v43h-100v-44l-55 -13v336zM586 771h-70v-154h9q24 56 53 132zM481 141h100
v141h-100v-141zM481 309h100v128h-100v-128zM765 877h88l25 31l53 -49q15 -14 15 -22q0 -9 -20 -13l-12 -2l-92 -240q124 -145 124 -276q0 -90 -45 -128q-13 -10 -36 -19q-19 -7 -27 -7q-6 0 -9 6q-2 3 -8 35q-2 8 -14 14l-30 13v15h82q22 39 22 81q0 118 -91 263
q33 98 61 271h-86v-784l-59 -17v860zM42 175l142 22v263h-52v-85l-60 -9v439l73 -45h39v192l69 -11q23 -3 23 -13t-16 -15l-14 -6v-147h39l19 33l67 -35q16 -8 16 -15q0 -9 -13 -14l-14 -6v-312l-61 -9v58h-53v-252l71 13q-11 60 -30 102l14 9q92 -99 92 -177q0 -22 -15 -35
q-10 -10 -23 -10q-16 0 -25 18q-1 4 -9 67l-209 -70l-6 -17q-6 -17 -14 -17q-7 0 -16 17zM132 734v-248h52v248h-52zM246 486h53v248h-53v-248z" />
  </g>

</svg>
