<?xml version="1.0" standalone="no"?>
<!DOCTYPE svg PUBLIC "-//W3C//DTD SVG 1.1//EN" "http://www.w3.org/Graphics/SVG/1.1/DTD/svg11.dtd" >
<svg xmlns="http://www.w3.org/2000/svg" xmlns:xlink="http://www.w3.org/1999/xlink" version="1.1" viewBox="0 -205 1024 1024">
  <g transform="matrix(1 0 0 -1 0 819)">
   <path fill="currentColor"
d="M514 686l56 -34h240l30 32l56 -36q8 -6 8 -12q0 -7 -30 -26v-224h34l32 46l54 -52q3 -3 4 -8q0 -12 -12 -12h-112v-227q4 -60 -16 -82q-21 -21 -56 -36q-12 35 -30 48q-18 12 -84 32l4 16q57 -9 102 -16q33 -1 28 40v225h-260q-15 -126 -62 -206q-46 -77 -142 -141l-8 14
q85 87 122 167q35 81 40 166h-78q-21 0 -54 -8l-22 34h156v300v0v0zM562 386h260v242h-260v-242v0v0zM610 566l10 12q63 -36 88 -60q23 -23 26 -46q0 -24 -12 -36q-12 -13 -30 -10t-18 28q-1 23 -14 50q-13 23 -50 62v0v0zM626 934q6 -3 6 -6q6 -9 -8 -14q-18 -2 -30 -16
q-25 -45 -46 -84h336l38 50l62 -60q6 -4 6 -8q0 -9 -8 -8h-446q-91 -138 -136 -180l-12 10q111 171 168 352l70 -36v0v0zM42 748h168v228l66 -30q22 -8 12 -22l-28 -14v-162h64l30 40l50 -48q3 -3 4 -8q0 -12 -14 -12h-134v-96q71 -37 98 -62q27 -23 34 -46q7 -22 0 -40
q-8 -19 -28 -20q-18 0 -24 24q-4 24 -22 54q-16 30 -58 66v-426l4 -107q0 -14 -20 -26q-18 -12 -38 -12l4 147v360q-34 -84 -80 -164q-44 -79 -94 -136l-10 10q38 63 68 126q29 62 62 152t52 196h-98q-6 0 -48 -8l-20 36v0v0z" />
  </g>

</svg>
