<?xml version="1.0" standalone="no"?>
<!DOCTYPE svg PUBLIC "-//W3C//DTD SVG 1.1//EN" "http://www.w3.org/Graphics/SVG/1.1/DTD/svg11.dtd" >
<svg xmlns="http://www.w3.org/2000/svg" xmlns:xlink="http://www.w3.org/1999/xlink" version="1.1" viewBox="0 -205 1024 1024">
  <g transform="matrix(1 0 0 -1 0 819)">
   <path fill="currentColor"
d="M470 834h208v140l78 -28q9 -4 10 -8q3 -7 -6 -10l-28 -14v-80h122l40 52l62 -60q3 -4 4 -8q0 -12 -12 -12h-216v-92h80l36 42l56 -52q3 -3 4 -6q0 -12 -12 -12h-164v-92h142l38 46l62 -52q3 -4 4 -10q-1 -12 -16 -12h-416q-21 0 -68 -8l-16 36h216v92h-90q-21 0 -68 -8
l-16 36h174v92h-124q-21 0 -68 -8l-16 36v0v0zM524 538l56 -38h244l28 34l54 -36q8 -3 8 -12q1 -7 -28 -26v-361q0 -32 -14 -52q-15 -16 -54 -30q-9 33 -36 48q-25 15 -68 30l4 16q48 -11 64 -14q18 -3 36 -4q18 0 18 26v127h-260v-109l4 -82q1 -13 -22 -26q-21 -14 -38 -14
l4 120v403v0v0zM576 272h260v84h-260v-84v0v0zM576 382h260v92h-260v-92v0v0zM302 946q6 -6 4 -12q-3 -7 -18 -10q-18 -6 -36 -32q-17 -24 -40 -66h122l30 34l56 -50q6 -6 4 -12q-1 -6 -26 -12q-18 -9 -38 -30q-18 -20 -66 -94h78l28 34l60 -38q3 -4 4 -8q0 -6 -24 -24v-242
l4 -84q0 -13 -20 -26q-17 -12 -34 -12v46h-228v-18q1 -12 -18 -26q-18 -13 -36 -14l4 108v316q-36 -57 -84 -108l-12 12q63 96 120 202q57 104 90 200l76 -34v0v0zM162 334h88v138h-88v-138v0v0zM300 334h90v138h-90v-138v0v0zM162 498h88v138h-88v-138v0v0zM300 636v-138
h90v138h-90v0v0zM158 662h108l70 138h-142q-29 -48 -70 -110l34 -28v0v0zM452 230l6 -20q-255 -74 -306 -97q-51 -21 -72 -48l-44 72l416 93v0v0z" />
  </g>

</svg>
