<?xml version="1.0" standalone="no"?>
<!DOCTYPE svg PUBLIC "-//W3C//DTD SVG 1.1//EN" "http://www.w3.org/Graphics/SVG/1.1/DTD/svg11.dtd" >
<svg xmlns="http://www.w3.org/2000/svg" xmlns:xlink="http://www.w3.org/1999/xlink" version="1.1" viewBox="0 -36 256 256">
  <g transform="matrix(1 0 0 -1 0 220)">
   <path fill="currentColor"
d="M42 33.5q7 -0.5 7 10.5v75q-11 -13 -18 -25t-9 -18l-17 12q12 6 44 43v87h-5q-13 1 -24 -2l-9 9h36l8 9l14 -14l-7 -5v-175q0 -23 -20 -28q1 12 -25 21v4q18 -3 25 -3.5zM36.5 168.5q4.5 -7.5 3 -13t-7 -10t-7.5 10t-8 32.5l3 2q12 -14 16.5 -21.5zM93 168.5
q4 -6.5 3 -13.5t-6 -13t-7 9.5t-12 35.5l3 2q15 -14 19 -20.5zM79 76l-15 13q11 4 42 41v88h-11q-10 0 -19 -2l-9 9h37l7 10l15 -12l-7 -7v-180q-1 -20 -22 -25q3 13 -24 20v4q21 -3 27 -3t6 10v77q-24 -35 -27 -43zM168 212l-25 -64h14l6 9l12 -14l-6 -4q-6 -54 -16 -81
q17 -17 45.5 -22t49.5 -2v-4q-12 -5 -13 -14q-36 2 -55.5 10t-30.5 22q-16 -29 -32 -39l-2 2q20 26 27 47q-11 22 -17 43l3 2q9 -22 17 -33q9 33 12 71h-15l-7 -7l-9 15l8 3l22 63h-8q-5 -1 -14 -3l-9 10h32l7 8l12 -15zM177 217l-1 5q13 2 30 7t26 13l8 -17q-6 0 -26 -3
v-71h13l8 12l12 -19h-33v-73h10l9 11l13 -18h-43q-10 -1 -19 -3l-9 10h27v73h-1q-10 -1 -19 -3l-9 10h29v70q-6 -2 -25 -4z" />
  </g>

</svg>
