<?xml version="1.0" standalone="no"?>
<!DOCTYPE svg PUBLIC "-//W3C//DTD SVG 1.1//EN" "http://www.w3.org/Graphics/SVG/1.1/DTD/svg11.dtd" >
<svg xmlns="http://www.w3.org/2000/svg" xmlns:xlink="http://www.w3.org/1999/xlink" version="1.1" viewBox="0 -205 1024 1024">
  <g transform="matrix(1 0 0 -1 0 819)">
   <path fill="currentColor"
d="M62 448q140 189 194 322q69 -33 72 -42q1 -7 -4 -8q-6 -1 -20 -4q-13 -3 -40 -38h160l32 30q62 -42 64 -48q0 -3 -2 -6q-4 -3 -16 -6q-11 -4 -52 -70q-39 -65 -96 -124q-55 -57 -134 -110q-79 -51 -166 -84l-6 16q87 48 154 96q64 45 122 112q58 66 110 168h-186
q-19 -30 -44 -62q59 -25 80 -38q18 -13 24 -32q3 -19 -8 -32q-12 -14 -26 -12q-13 2 -20 22q-5 18 -16 36q-12 18 -44 42q-49 -66 -118 -138l-14 10v0v0zM554 718l58 -42h170l28 32q60 -45 60 -50q1 -6 -4 -8q-5 -3 -28 -18q3 -13 0 -70q-3 -54 -24 -78q-21 -21 -56 -30
q-7 30 -34 42t-72 28l4 16q42 -6 72 -12q27 -6 46 0q18 3 16 60v62h-186v-236q-1 -31 14 -34q14 -4 26 -4h190q35 1 46 20q12 19 16 50q3 30 6 82h20q0 -65 4 -88q3 -21 30 -42q-7 -27 -28 -44q-22 -15 -56 -18h-230q-31 -1 -52 8q-18 6 -30 30q-6 14 -6 50v294v0v0z
M184 266q-3 -81 -14 -122q-12 -39 -32 -63q-19 -24 -40 -30q-20 -6 -34 -4q-12 4 -18 20q-7 15 10 30q15 12 36 24q19 11 38 37q21 27 36 108h18v0v0zM438 350q90 -42 114 -68q24 -24 28 -48q1 -24 -10 -36q-10 -12 -28 -8q-16 3 -22 30q-3 27 -18 48q-13 20 -70 70l6 12v0
v0zM818 282q66 -33 102 -60q35 -28 50 -52q15 -25 16 -43q-1 -17 -10 -32q-9 -12 -26 -10q-18 3 -24 30t-32 67q-25 39 -82 88l6 12v0v0zM346 244v-123q0 -42 12 -48q11 -5 50 -8h230q35 0 46 6q11 4 16 20q5 15 8 42q3 22 6 95h18q5 -50 8 -88q3 -37 36 -55
q-15 -31 -38 -44q-21 -15 -72 -18h-278q-39 0 -66 14q-25 16 -28 70v203l72 -32q16 -7 8 -14t-28 -20v0v0zM350 984l80 -32q6 -3 6 -8q0 -2 -36 -22v-48h224v108l82 -34q3 -5 4 -10q1 -2 -34 -22v-42h210l40 48l60 -62q3 -1 4 -8q-1 -6 -16 -6h-298v-64q-1 -16 -20 -22
q-22 -6 -32 -6v92h-224v-60q-1 -16 -20 -22q-9 -6 -30 -6v88h-222q-22 -1 -70 -10l-18 38h310v110v0v0z" />
  </g>

</svg>
