<?xml version="1.0" standalone="no"?>
<!DOCTYPE svg PUBLIC "-//W3C//DTD SVG 1.1//EN" "http://www.w3.org/Graphics/SVG/1.1/DTD/svg11.dtd" >
<svg xmlns="http://www.w3.org/2000/svg" xmlns:xlink="http://www.w3.org/1999/xlink" version="1.1" viewBox="0 0 2048 2048">
  <g transform="matrix(1 0 0 -1 0 2048)">
   <path fill="currentColor"
d="M349 1461v293q0 92 -3 114q-2 21 -3 32l-2 13l109 -24q49 -11 66 -21q18 -9 20 -22q1 -14 -12.5 -26t-37.5 -18l-40 -11v-330h38l87 83l113 -90q6 -6 12 -16t2 -23q-3 -13 -24 -13h-228v-144q22 -19 34 -28l53 -43q30 -25 51 -44q20 -19 40 -43q21 -25 33.5 -47t15.5 -48
t-10 -48t-35 -25q-21 -2 -33 8t-20 33l-18 53q-10 25 -25 52q-16 26 -32 50q-17 24 -29 38l-25 28v-906q0 -17 4 -71l7 -103q3 -40 3 -54q-1 -11 -4.5 -19.5t-13.5 -14.5q-11 -7 -31 -8q-21 -2 -33 3q-13 5 -21 15q-8 11 -8 24v1052l-33 -85l-33 -81q-19 -45 -37 -84
q-19 -38 -38 -72q-20 -33 -44 -67l-45 -64l-23 -31l-26 23l26 47q15 27 28 52q12 25 41.5 99t38.5 102q10 28 27 85q17 58 29 106q13 49 28 116q16 68 20 90l9 54h-82l-94 -6l-18 -1l-13 -1l-38 88q13 -4 32 -8q18 -4 49 -8q31 -5 91 -5h105zM1636 660l13 29q10 22 38 111
q28 90 46 178q18 89 29 182l15 140l6 46l-222 -2l-43 -115q-23 -59 -40 -92l-63 -128l-37 21l44 121q17 46 36 107t30 108q11 46 34 156q24 111 30 145q5 34 14 103q8 68 10 87l2 27l97 -36q50 -19 73 -32q23 -12 22 -24q-2 -13 -11 -22t-38 -11l-55 -5l-38 -163
q-17 -77 -27 -109l-26 -83h206l88 100l113 -100q24 -22 16 -36q-9 -14 -14 -17q-4 -2 -10 -2h-92l-10 -97q-5 -55 -16 -129q-11 -75 -34 -178q-24 -103 -60 -206q-36 -102 -67 -164l-10 -20q6 -14 23 -49q18 -35 54 -93q37 -58 92 -122q56 -63 97 -91l56 -41l-12 -33
q-16 6 -29 9q-12 2 -42 -7t-35 -15l-21 -22q-31 35 -66 78q-34 44 -88 134q-55 91 -75 138l-9 20l-51 -70l-43 -60q-21 -27 -71 -76t-108 -96q-58 -48 -81 -60l-68 -40l-19 30l83 66q45 38 108 104q62 66 118 149q55 83 80 133l10 20l-20 57q-13 38 -40 138t-36 159l-23 133
l38 12l47 -163q23 -75 38 -116.5t36 -94.5zM1139 1253l-37 -45q-24 -28 -62 -63l-76 -72h223l55 64l105 -88q15 -13 14 -25q-1 -13 -7 -17q-5 -4 -17 -7l-66 -17l-89 -82l-84 -73l-13 -11q18 -4 33 -12q16 -8 16 -21q1 -14 -8 -22q-10 -9 -32 -18l-22 -9v-90q14 2 46 8
t114 27t113 30l45 13l8 -38l-56 -23q-30 -13 -103 -38t-153 -47l-14 -4v-342q0 -39 -10 -66q-9 -27 -26 -45q-18 -17 -44 -34q-27 -17 -37 -18l-30 -7q-4 17 -8 37q-4 19 -16 35t-41 30q-30 14 -74 23l-58 11l6 46q47 -9 71 -12l51 -7q46 -8 69 -9t38 13t15 45v274
q-17 -4 -62 -15l-91 -24l-53 -14l-12 -45q-4 -15 -11 -22t-14 -6q-7 0 -16 9t-16 27l-54 121q21 1 45 4q23 2 93 12q70 9 118 19l51 10l22 4v75q0 42 -3 83t-3 47l-2 14l64 -15l16 16l22 25l80 100l35 43h-293l-29 -22q-17 -13 -64 -42t-73 -43l-55 -30l-22 34l61 40
q29 20 70 54q42 34 82 70l82 78q42 40 54 55l37 44h-200q-27 0 -56 -3l-40 -3q-11 -1 -24 -2l-23 -3l-38 86q25 -5 46 -8q20 -3 38 -5t48 -3q31 -2 49 -2h126v293h-67l-69 -3q-22 -1 -26 -1l-24 -3l-24 -3l-38 86q25 -5 41 -7t42 -4q26 -3 52 -4q26 -2 46 -2h67v94
q0 71 -3 105q-2 34 -2 41l-2 14l116 -28q29 -8 45 -16t17 -24t-13 -27t-31 -17l-29 -11v-131h41l76 80l102 -80l9 24q4 11 6 19l10 38l112 -42q23 -9 37 -19q14 -9 15 -22q1 -12 -13 -22t-39 -11l-43 -3l-28 -60q-11 -24 -46 -82q-35 -57 -64 -98q-28 -42 -38 -55l-15 -19
h49l77 81l108 -86q8 -7 13 -15q6 -7 3 -19q-3 -10 -11 -14t-14 -4h-269zM1255 1603h-194v-293h21l30 42q22 30 50 74q28 45 64 118l19 39z" />
  </g>

</svg>
