<?xml version="1.0" standalone="no"?>
<!DOCTYPE svg PUBLIC "-//W3C//DTD SVG 1.1//EN" "http://www.w3.org/Graphics/SVG/1.1/DTD/svg11.dtd" >
<svg xmlns="http://www.w3.org/2000/svg" xmlns:xlink="http://www.w3.org/1999/xlink" version="1.1" viewBox="0 -205 1024 1024">
  <g transform="matrix(1 0 0 -1 0 819)">
   <path fill="currentColor"
d="M462 780h226v206q75 -25 82 -32q6 -5 4 -10q-3 -6 -32 -20v-144h134l36 48l58 -56q3 -4 4 -8q0 -12 -12 -12h-220v-190h108l36 48l58 -54q3 -4 4 -10q0 -12 -12 -12h-194v-198h142l44 54l66 -62q3 -4 4 -8q1 -12 -10 -12h-246v-158l4 -91q0 -9 -24 -22q-25 -12 -40 -12
l6 127v156h-140q-21 0 -68 -8l-16 36h224v198h-100q-21 0 -68 -8l-16 36h184v190h-142q-18 0 -66 -8l-18 36v0v0zM294 958q6 -6 4 -12q-3 -6 -18 -8q-12 -7 -24 -20q-9 -9 -30 -54h116l30 34l62 -50q6 -7 4 -10q-1 -6 -32 -12q-21 -11 -42 -34q-21 -24 -60 -78h74l28 34
l56 -38l4 -8q0 -6 -24 -24v-242l4 -68q0 -15 -18 -26q-17 -12 -34 -12v34h-242v-18q0 -12 -14 -26q-13 -12 -38 -12l4 104v256q-40 -60 -76 -98l-12 10q50 81 116 202q64 120 92 210l70 -34v0v0zM152 390h96v138h-96v-138v0v0zM296 390h98v138h-98v-138v0v0zM152 554h96v134
h-96v-134v0v0zM296 688v-134h98v134h-98v0v0zM150 714h124l68 124h-128q-30 -57 -72 -110l8 -14v0v0zM122 262h18q3 -69 -6 -108q-9 -34 -26 -59q-17 -22 -40 -26q-21 -4 -32 6q-9 12 -6 26q2 12 20 24q15 13 36 35q21 24 36 102v0v0zM188 264l14 8q39 -61 48 -94
q8 -31 8 -51q-1 -17 -14 -32q-12 -12 -30 -6q-18 5 -12 34q3 29 4 61q0 32 -18 80v0v0zM278 278l12 10q51 -49 66 -88t16 -57q-1 -17 -14 -32q-11 -12 -28 -6q-18 5 -14 34q2 27 -4 63q-7 33 -34 76v0v0zM376 292l12 10q58 -48 80 -80q21 -30 24 -54q0 -23 -12 -37
q-12 -13 -30 -8q-18 7 -18 35q0 29 -14 62q-12 33 -42 72v0v0z" />
  </g>

</svg>
