<?xml version="1.0" standalone="no"?>
<!DOCTYPE svg PUBLIC "-//W3C//DTD SVG 1.1//EN" "http://www.w3.org/Graphics/SVG/1.1/DTD/svg11.dtd" >
<svg xmlns="http://www.w3.org/2000/svg" xmlns:xlink="http://www.w3.org/1999/xlink" version="1.1" viewBox="0 -205 1024 1024">
  <g transform="matrix(1 0 0 -1 0 819)">
   <path fill="currentColor"
d="M504 938l68 -48h260l36 46l60 -44q9 -6 10 -12q0 -7 -36 -32v-723q3 -43 -14 -68q-15 -24 -60 -42q-3 27 -24 42q-19 18 -112 44l6 18q75 -17 102 -20q27 -4 40 4q12 6 10 37v244h-298q-6 -81 -30 -144q-25 -60 -76 -121q-51 -60 -132 -108l-8 16q59 48 104 108
q43 56 68 129t26 272v402v0v0zM554 410h296v218h-292q1 -129 -4 -218v0v0v0zM558 654h292v208h-292v-208v0v0zM36 734h190v246l82 -32q12 -6 4 -14l-34 -16v-184h84l40 44l50 -54q12 -15 -8 -18h-166v-160l138 82l10 -16l-148 -108v-377q2 -36 -16 -64q-19 -24 -64 -40
q-6 36 -36 50q-28 15 -76 32l4 16q94 -26 116 -20q20 6 20 32v341q-81 -63 -96 -80q-12 -15 -30 -36l-54 54l180 108v186h-118q-21 -1 -50 -10l-22 38v0v0z" />
  </g>

</svg>
