<?xml version="1.0" standalone="no"?>
<!DOCTYPE svg PUBLIC "-//W3C//DTD SVG 1.1//EN" "http://www.w3.org/Graphics/SVG/1.1/DTD/svg11.dtd" >
<svg xmlns="http://www.w3.org/2000/svg" xmlns:xlink="http://www.w3.org/1999/xlink" version="1.1" viewBox="0 -36 256 256">
  <g transform="matrix(1 0 0 -1 0 220)">
   <path fill="currentColor"
d="M159 126v40h-37l-5 -5l-15 9l6 9q0 26 -1 43l22 -11l-7 -6v-32h37q0 55 -2 73l23 -11l-7 -6v-55h40v38q0 7 -1 10l22 -10l-6 -8v-30l1 -11l-16 -6v10h-40v-41h-14zM206 129l12 11l16 -18h-61v-39h41l14 12l15 -19h-70v-33v-16q0 -7 1 -16l-17 -5q2 18 2 34v36h-32
q-10 0 -20 -2l-9 9h61v39h-25q-10 0 -19 -2l-10 9h101zM99 84l1 -4q-80 -36 -80 -44l-12 18q25 7 38 12v71h-6q-10 0 -19 -2l-9 9h34v63h-9q-10 0 -19 -2l-9 9h64l13 13l16 -20h-42v-63h12l12 12l14 -19h-38v-67z" />
  </g>

</svg>
