<?xml version="1.0" standalone="no"?>
<!DOCTYPE svg PUBLIC "-//W3C//DTD SVG 1.1//EN" "http://www.w3.org/Graphics/SVG/1.1/DTD/svg11.dtd" >
<svg xmlns="http://www.w3.org/2000/svg" xmlns:xlink="http://www.w3.org/1999/xlink" version="1.1" viewBox="0 -36 256 256">
  <g transform="matrix(1 0 0 -1 0 220)">
   <path fill="currentColor"
d="M208 161h-48l-9 -74h49zM138 94l16 128h-7q-6 0 -13 -2l-7 9h85l13 11l15 -18h-72l-7 -54h47l9 12l14 -14l-9 -8l-15 -130h14l15 12l13 -19h-100q-10 0 -19 -2l-9 9h72l6 52h-49l-6 -6l-13 14zM120 20l-14 -8v20h-75v-16l-14 -9q1 54 1 108.5t-1 71.5l14 -10h18v44h-13
q-5 0 -16 -3l-10 10h89l12 12l15 -19h-36v-44h14l8 12l14 -14l-7 -6v-108q0 -25 1 -41zM61 177h17v44h-17v-44zM78 124v46h-17q0 -21 -3.5 -39t-24.5 -38l-2 3q13 19 15.5 36t2.5 38h-18v-91h75v32h-14q-14 0 -14 13zM90 132q0 -11 5.5 -11h10.5v49h-16v-38zM106 72h-75v-33
h75v33z" />
  </g>

</svg>
