<?xml version="1.0" standalone="no"?>
<!DOCTYPE svg PUBLIC "-//W3C//DTD SVG 1.1//EN" "http://www.w3.org/Graphics/SVG/1.1/DTD/svg11.dtd" >
<svg xmlns="http://www.w3.org/2000/svg" xmlns:xlink="http://www.w3.org/1999/xlink" version="1.1" viewBox="0 -36 256 256">
  <g transform="matrix(1 0 0 -1 0 220)">
   <path fill="currentColor"
d="M45 64v96q-18 -30 -34 -45l-2 3q11 18 19.5 33.5t22.5 44.5t19 49l17 -16q-6 0 -13 -14t-21 -38l10 -8l-7 -5v-148l-12 -7q1 27 1 55zM231 140h-34v-29h19l6 9l12 -13l-6 -5v-45q0 -24 -14 -29q0 10 -15 19v3q8 -1 13 -1.5t4 14.5v41h-19q0 -61 1 -91l-14 -6q1 36 1 97
h-17v-66l-13 -6q1 21 1 45.5t-1 41.5l13 -8h17v29h-27q0 -10 -1 -14t-5 -5.5t-6 0.5t-2 7t4 11t6 21h4v-13h70l7 9l14 -13q-10 -5 -22 -24l-3 1zM83 170.5q0 42.5 -1 49.5l13 -5h4q9 25 8 31l15 -8q-7 -6 -18 -23h24l4 9l13 -10l-5 -6q0 -19 1 -30l-12 -6v7h-34v-15h33l7 8
l11 -11l-6 -5q0 -21 1 -35l-12 -5v10h-34v-9l-13 -5q1 16 1 58.5zM95 186h34v22h-34v-22zM95 133h34v24h-34v-24zM109 83q0 21 -1 42l19 -11l-7 -6v-22h8l9 9l13 -16h-30v-32l28 9l1 -4q-39 -19 -47.5 -23t-19.5 -11l-10 16l11 3q0 37 -1 57l18 -11l-6 -6v-38l15 5v39z
M234 209l11 -15h-68q-10 -1 -19 -3l-9 10h76zM209 201v20h-26q-10 -1 -19 -3l-9 10h52l8 11l13 -12l-7 -8v-55l-12 -6v8h-24q-10 0 -19 -2l-9 9h52v20v8z" />
  </g>

</svg>
