<?xml version="1.0" standalone="no"?>
<!DOCTYPE svg PUBLIC "-//W3C//DTD SVG 1.1//EN" "http://www.w3.org/Graphics/SVG/1.1/DTD/svg11.dtd" >
<svg xmlns="http://www.w3.org/2000/svg" xmlns:xlink="http://www.w3.org/1999/xlink" version="1.1" viewBox="0 -246 2048 2048">
  <g transform="matrix(1 0 0 -1 0 1802)">
   <path fill="currentColor"
d="M1536 904h-1128l-20 51h569v418h-526l-21 51h1103l83 98q127 -102 127 -131q0 -12 -19 -24l-49 -33v-506h-119v76zM1536 955v418h-454v-418h454zM588 1704h993l111 150q90 -84 151 -160l-24 -41h-1262q-139 -233 -399 -436l-37 33q150 154 243 309q98 163 169 381
q200 -41 200 -86q0 -29 -90 -41q-18 -39 -55 -109zM930 777l29 34q311 -144 311 -290q0 -78 -74 -78q-45 0 -61 59q-38 132 -205 275zM404 727l49 -16q-9 -269 -123 -410q-71 -90 -139 -90q-74 0 -74 74q0 35 47 63q193 117 240 379zM1487 707l29 39q409 -201 409 -406
q0 -86 -76 -86q-47 0 -71 80q-63 190 -291 373zM637 297v482q207 -13 207 -60q0 -27 -86 -55v-330q0 -51 35 -61q40 -12 248 -12q252 0 295 16q70 31 92 285l55 -19q0 -185 16 -227q16 -35 68 -35q-3 -97 -102 -119q-78 -14 -392 -14q-352 0 -397 33q-39 27 -39 116z" />
  </g>

</svg>
