<?xml version="1.0" standalone="no"?>
<!DOCTYPE svg PUBLIC "-//W3C//DTD SVG 1.1//EN" "http://www.w3.org/Graphics/SVG/1.1/DTD/svg11.dtd" >
<svg xmlns="http://www.w3.org/2000/svg" xmlns:xlink="http://www.w3.org/1999/xlink" version="1.1" viewBox="0 -36 256 256">
  <g transform="matrix(1 0 0 -1 0 220)">
   <path fill="currentColor"
d="M45 245q23 -12 28 -22.5t-2.5 -18t-11.5 7.5t-17 30zM53 119q-21 -26 -45 -41l-2 3q21 20 39.5 47t30.5 52h-40q-10 0 -19 -2l-9 9h69l8 12l18 -17l-10 -4l-26 -40q28 -11 33 -19t0 -18t-11.5 4t-21.5 27q0 -99 1 -118l-16 -6q1 41 1 111zM203 231l11 11l18 -18h-55v-35
h39l13 12l17 -19h-116q-10 0 -20 -2l-10 9h63v35h-19q-10 0 -20 -2l-10 9h89zM214 156h-84v-24h84v24zM214 125h-84v-25h84v25zM214 93h-84v-22h84v22zM230 35q12 -10 11.5 -16t-4.5 -10t-13.5 10.5t-38.5 32.5l3 5q30 -12 42 -22zM152 42q-32 -22 -60 -33l-1 3q34 21 54 48
l17 -16zM117 119q0 32 -1 52l17 -8h78l10 9l14 -13l-8 -6q0 -69 1 -93l-14 -5v9h-84v-8l-14 -5q1 36 1 68z" />
  </g>

</svg>
