<?xml version="1.0" standalone="no"?>
<!DOCTYPE svg PUBLIC "-//W3C//DTD SVG 1.1//EN" "http://www.w3.org/Graphics/SVG/1.1/DTD/svg11.dtd" >
<svg xmlns="http://www.w3.org/2000/svg" xmlns:xlink="http://www.w3.org/1999/xlink" version="1.1" viewBox="0 -205 1024 1024">
  <g transform="matrix(1 0 0 -1 0 819)">
   <path fill="currentColor"
d="M120 896q60 -33 88 -56q26 -21 40 -42q12 -19 12 -40q-1 -22 -14 -34q-11 -13 -28 -8q-17 3 -22 34q-3 29 -24 62q-18 30 -62 72l10 12v0v0zM36 562h144l36 44l52 -42q12 -7 12 -14q0 -3 -36 -32v-290q17 -65 68 -97q51 -33 150 -42l94 -2h274q71 7 166 20v-24
q-35 -6 -58 -12q-24 -6 -36 -36h-332q-90 4 -156 16t-104 38q-37 27 -62 67q-24 42 -42 42q-16 0 -52 -50q-36 -48 -60 -105l-54 38q48 48 156 149v306h-80q-30 1 -54 -10l-26 36v0v0zM576 976l76 -26q8 -2 8 -10l-6 -6l-26 -12v-36h148l36 50l62 -60q12 -12 -2 -14h-244
v-56h246l32 40l62 -46q7 -6 6 -12q0 -6 -12 -8q-16 1 -44 -10q-25 -9 -70 -48l-12 8l32 52h-454v-86q3 -174 -20 -296q-21 -120 -114 -210l-14 10q75 101 90 230q13 125 8 266v152l62 -42h150v170v0v0zM638 760q6 -2 6 -4q0 -4 -6 -10l-20 -10v-32l92 10l28 44l58 -44
q12 -10 0 -16l-178 -18v-24q0 -19 12 -22q11 -1 32 -2h130q15 0 28 6q12 6 18 22q3 15 6 46h18q-1 -10 4 -34q2 -24 26 -36q-8 -21 -28 -32q-19 -10 -52 -10h-198q-30 6 -36 24q-7 17 -8 40v16l-106 -12q-12 -3 -24 -8l-18 30l148 14v78l68 -16v0v0zM422 546h432l38 44
l58 -54q3 -3 4 -8q4 -3 -4 -8h-290q-25 -21 -50 -38q84 -57 114 -110q65 54 128 120q57 -30 60 -36q4 -7 2 -10q-4 -4 -16 -4t-44 -14q-31 -16 -106 -64q72 -19 114 -38q42 -17 64 -40t20 -46q-1 -24 -20 -26q-18 -4 -30 14q-13 18 -28 36q-16 18 -46 40q-31 22 -86 44
q14 -49 16 -74q1 -24 -4 -56q-4 -33 -28 -62q-24 -25 -62 -41q-12 25 -30 39q-19 12 -68 24l4 18q56 -12 80 -12q24 -1 40 10q15 12 18 42q3 27 4 46q-1 15 -10 52q-96 -79 -164 -116q-67 -36 -178 -66l-6 14q104 42 176 88q72 44 154 122q-15 21 -30 36q-69 -57 -120 -86
q-49 -30 -148 -68l-6 14q96 52 144 86q47 33 98 82l-26 26q-42 -28 -80 -46q-36 -19 -102 -46l-6 14q74 45 116 72t72 60h-96q-21 0 -54 -8l-18 34v0v0z" />
  </g>

</svg>
