<?xml version="1.0" standalone="no"?>
<!DOCTYPE svg PUBLIC "-//W3C//DTD SVG 1.1//EN" "http://www.w3.org/Graphics/SVG/1.1/DTD/svg11.dtd" >
<svg xmlns="http://www.w3.org/2000/svg" xmlns:xlink="http://www.w3.org/1999/xlink" version="1.1" viewBox="0 -36 256 256">
  <g transform="matrix(1 0 0 -1 0 220)">
   <path fill="currentColor"
d="M111 234q37 -9 59 -19q24 19 29 30l18 -12l-7 -3q-15 -11 -28 -21q38 -14 42 -21.5t1 -14t-9.5 0.5t-20.5 15t-24 13q-33 -21 -67 -31l-2 4q37 16 58 33q-8 5 -50 22zM135 99h74v23h-74v-23zM135 70h74v22h-74v-22zM173 176q-7 -2 -19 -18h65l15 12l15 -19h-98
q-6 -8 -16 -19l4 -3h68l9 11l14 -14l-7 -7v-68q2 -35 -23 -42q-4 10 -9.5 13.5t-17.5 5.5v5q25 -4 30.5 -1t5.5 20v11h-74v-47l-14 -7q1 16 1 23v85q-16 -15 -44 -31l-2 4q23 17 35 30.5t25 30.5h-16q-10 0 -19 -2l-9 9h47q10 15 15 28zM32.5 136.5q-5.5 -12.5 -13 -14
t-10 4.5t9 18.5t14.5 40.5h4q1 -37 -4.5 -49.5zM49 245l23 -13l-9 -8v-171q0 -22 1 -36l-15 -10q1 36 1 58v127q0 29 -1 53zM88 171.5q6 -9.5 4 -17.5t-8 -8.5t-8 13t-11 34.5l3 2q14 -14 20 -23.5z" />
  </g>

</svg>
