<?xml version="1.0" standalone="no"?>
<!DOCTYPE svg PUBLIC "-//W3C//DTD SVG 1.1//EN" "http://www.w3.org/Graphics/SVG/1.1/DTD/svg11.dtd" >
<svg xmlns="http://www.w3.org/2000/svg" xmlns:xlink="http://www.w3.org/1999/xlink" version="1.1" viewBox="0 -205 1024 1024">
  <g transform="matrix(1 0 0 -1 0 819)">
   <path fill="currentColor"
d="M372 930q9 -4 6 -10q0 -4 -14 -8q-15 -3 -30 -14q-13 -12 -58 -68v-250l4 -90q-1 -12 -22 -24t-36 -12l4 130v186q-71 -78 -166 -158l-10 12q106 123 164 202q56 77 92 148l66 -44v0v0zM342 808h396v166l78 -36q8 -2 8 -10q-1 -7 -32 -22v-98h78l32 46l66 -54q3 -3 4 -8
q0 -10 -12 -10h-168v-238q0 -35 -24 -64q-25 -26 -70 -34q-3 30 -30 48q-24 17 -108 40l4 18q94 -19 122 -22q26 -3 40 4q15 5 12 46v202h-312q-21 0 -68 -8l-16 34v0v0zM440 730l10 12q62 -28 98 -52q33 -21 42 -48q7 -25 -4 -40q-10 -16 -28 -16t-24 22q-5 21 -22 48
q-18 26 -72 74v0v0zM502 508q10 -12 0 -18q-27 -1 -42 -28t-36 -72h440l40 54l68 -60q5 -4 8 -10q2 -10 -10 -10h-250q-42 -114 -116 -180q84 -22 148 -47q63 -26 84 -50q21 -23 16 -44q-5 -22 -22 -26q-15 -4 -42 22q-25 27 -86 60q-60 33 -134 55q-91 -64 -212 -97
q-120 -29 -288 -44l-2 18q168 25 270 58q100 34 182 83q-159 38 -230 56q35 66 68 136h-244q-20 3 -52 -8l-20 34h330q40 93 62 148l70 -30v0v0zM348 242q96 -21 204 -42q68 59 110 164h-250l-64 -122v0v0z" />
  </g>

</svg>
