<?xml version="1.0" standalone="no"?>
<!DOCTYPE svg PUBLIC "-//W3C//DTD SVG 1.1//EN" "http://www.w3.org/Graphics/SVG/1.1/DTD/svg11.dtd" >
<svg xmlns="http://www.w3.org/2000/svg" xmlns:xlink="http://www.w3.org/1999/xlink" version="1.1" viewBox="0 -205 1024 1024">
  <g transform="matrix(1 0 0 -1 0 819)">
   <path fill="currentColor"
d="M70 844h274q36 54 82 132q75 -36 72 -44q-3 -6 -8 -8q-4 0 -22 -8q-18 -9 -32 -24q-15 -15 -38 -48h404l42 50l64 -58q3 -3 4 -8q0 -10 -12 -10h-518q-54 -69 -102 -132h204v110l76 -22q7 -2 8 -4q7 -6 0 -14l-32 -14v-54h198l32 44l66 -60q3 0 4 -6q0 -6 -8 -6h-292v-90
h308l34 50l60 -60q6 -3 6 -8q0 -9 -14 -8h-394v-72q1 -15 -16 -24q-18 -9 -36 -8v104h-328q-22 0 -70 -8l-18 34h416v90h-202l-38 -26l-50 54q45 12 58 28l74 102h-172q-19 0 -68 -8l-16 34v0v0zM86 414h278l26 32l56 -44q6 -3 6 -8t-8 -10l-24 -8q-28 -63 -64 -122
q38 -27 56 -42q17 -16 26 -38q7 -22 0 -35q-8 -15 -22 -16q-14 1 -22 14q-6 10 -20 31q-12 18 -42 48q-43 -58 -100 -95q-58 -40 -176 -86l-8 12q93 49 154 93q60 45 96 100q-84 60 -158 96l6 12q84 -27 172 -74q26 45 50 114h-214q-25 -1 -46 -10l-22 36v0v0zM364 39
q87 30 162 68q72 39 132 93q-64 73 -104 188h-26l-22 -8l-24 34h296l28 34l62 -46q12 -16 -14 -20q-7 -4 -22 -16q-48 -93 -114 -164q37 -30 86 -50q47 -18 82 -27q36 -8 90 -14v-18q-42 0 -60 -12q-18 -10 -30 -26q-42 18 -98 48q-54 30 -102 69q-57 -50 -134 -87
q-78 -32 -182 -62l-6 16v0v0zM580 388q45 -106 102 -160q54 54 102 160h-204v0v0z" />
  </g>

</svg>
