<?xml version="1.0" standalone="no"?>
<!DOCTYPE svg PUBLIC "-//W3C//DTD SVG 1.1//EN" "http://www.w3.org/Graphics/SVG/1.1/DTD/svg11.dtd" >
<svg xmlns="http://www.w3.org/2000/svg" xmlns:xlink="http://www.w3.org/1999/xlink" version="1.1" viewBox="0 -36 256 256">
  <g transform="matrix(1 0 0 -1 0 220)">
   <path fill="currentColor"
d="M68 179h21l7 10l17 -13l-8 -6q0 -64 1 -77l-15 -6v8h-56v-8l-14 -6q1 22 1 90q-2 -5 -12 -15l-2 3q16 30 27 53.5t11 32.5l20 -10q-7 -1 -17 -20h30l9 9l15 -13q-11 0 -35 -32zM31 183l7 -4h24l17 29h-32q-7 -10 -16 -25zM35 139h22v33h-22v-33zM69 139h22v33h-22v-33z
M35 102h22v30h-22v-30zM69 102h22v30h-22v-30zM29 42q-2 -8 -6 -11.5t-12 -3.5t1 12t13 34h4q2 -23 0 -31zM45 76q16 -18 16.5 -28t-6 -15.5t-7 9t-6.5 33.5zM65 79q24 -16 24.5 -25.5t-5 -14t-7.5 6t-14 31.5zM88 85q21 -11 26.5 -18t0 -16.5t-9 2t-20.5 30.5zM137 87h32
v21h-32v-21zM182 87h34v21h-34v-21zM231 78l-15 -5v7h-34v-22h21l12 11l17 -18h-50v-28h36l13 12l17 -19h-119q-10 0 -19 -2l-9 9h68v28h-23q-10 -1 -19 -3l-9 10h51v22h-32v-3l-14 -4q1 14 1 36t-1 41l14 -5h78l7 9l16 -13l-8 -6q0 -43 1 -57zM170 212q-1 6 -4.5 14.5
t-14.5 17.5l3 3q20 -7 26.5 -15.5t-5.5 -19.5h34l12 11l17 -18h-97q15 -8 21 -15.5t-0.5 -17t-10 3.5t-14.5 30q-8 0 -16 -2l-8 8h57zM203.5 185.5q-4.5 -7.5 -14.5 -19.5h30l13 12l16 -19h-113q-10 0 -19 -2l-9 9h77q10 25 14 40l18 -10q-8 -3 -12.5 -10.5zM137 115h32v23
h-32v-23zM182 115h34v23h-34v-23z" />
  </g>

</svg>
