<?xml version="1.0" standalone="no"?>
<!DOCTYPE svg PUBLIC "-//W3C//DTD SVG 1.1//EN" "http://www.w3.org/Graphics/SVG/1.1/DTD/svg11.dtd" >
<svg xmlns="http://www.w3.org/2000/svg" xmlns:xlink="http://www.w3.org/1999/xlink" version="1.1" viewBox="0 -52 256 256">
  <g transform="matrix(1 0 0 -1 0 204)">
   <path fill="currentColor"
d="M108 252l17 -10q1 -2 -1 -2q-6 0 -7 -2q-3 -4 -9 -13q-7 -11 -11 -16h120l8 11l18 -13q3 -2 2 -3q0 -1 -5 0h-60q-13 -28 -34 -46q36 -11 65 -26q13 -8 9 -15q-2 -6 -15 2q-27 18 -69 32q-38 -27 -122 -34l-1 4q77 14 109 34q-30 9 -65 15q13 16 25 34h-52q-6 0 -11 -4
l-9 9h75q14 20 22 36q1 2 -2 4zM121 131l22 -9q3 0 1 -2q-4 -2 -7 -5v-32h55l8 10l17 -12q2 -1 2 -2q-1 -1 -3 -1h-79v-51h84l8 10l16 -12q3 -2 2 -2q0 -1 -5 -1h-210q-6 0 -11 -3l-9 8h50v64q1 3 -4 9l-2 2l2 2l21 -8q3 -1 1 -3q-4 -1 -7 -4v-62h52v91q1 3 -6 10zM70 174
q33 -6 62 -13q24 18 35 43h-74q-2 -2 -5 -6q-12 -15 -18 -24z" />
  </g>

</svg>
