<?xml version="1.0" standalone="no"?>
<!DOCTYPE svg PUBLIC "-//W3C//DTD SVG 1.1//EN" "http://www.w3.org/Graphics/SVG/1.1/DTD/svg11.dtd" >
<svg xmlns="http://www.w3.org/2000/svg" xmlns:xlink="http://www.w3.org/1999/xlink" version="1.1" viewBox="0 -36 256 256">
  <g transform="matrix(1 0 0 -1 0 220)">
   <path fill="currentColor"
d="M117 133l7 -3h30l10 13h-33zM123 123v-17h26v17h-26zM161 123v-17h25v17h-25zM166 150l7 7l14 -11l-8 -3l-17 -13h23l8 7l11 -11l-6 -5v-8q0 -6 1 -13l-13 -5v4h-63v-45q0 -11 11 -11h58q7 0 8 20h4q0 -18 11 -20q-4 -10 -23 -10h-62q-19 0 -19 17v80l-10 -5l-3 2
q27 21 39 42l17 -10l-8 -2q-2 -2 -8 -7h28zM66 164q17 -6 22.5 -10t1 -11t-8 0t-16.5 18zM52 134q23 -8 24.5 -14t-3 -10.5t-7.5 3t-15 18.5zM70.5 77q5.5 2 25.5 63l5 -2q-18 -58 -21 -69t-1.5 -26t-8 -10.5t-6.5 15t3 16.5t-19 9l1 5q16 -3 21.5 -1zM148 88h32l7 6l11 -10
l-5 -5v-26l-12 -4v4h-34v-2l-12 -4v47zM147 60h34v8h-34v-8zM147 75h34v6h-34v-6zM141 240l15 -8h62l8 11l15 -11l-8 -9v-190q0 -20 -22 -26q-3 15 -29 20v4q24 -2 30.5 -1.5t6.5 10.5v131h-64v-2l-14 -4v75zM155 205h64v20h-64v-20zM155 198v-20h64v20h-64zM38 232h61l7 11
l16 -13l-7 -8v-26q0 -9 1 -24l-15 -6v5h-64v-156l-15 -8q1 20 1 43v145q0 23 -1 45zM37 198v-20h64v20h-64zM37 225v-20h64v20h-64z" />
  </g>

</svg>
