<?xml version="1.0" standalone="no"?>
<!DOCTYPE svg PUBLIC "-//W3C//DTD SVG 1.1//EN" "http://www.w3.org/Graphics/SVG/1.1/DTD/svg11.dtd" >
<svg xmlns="http://www.w3.org/2000/svg" xmlns:xlink="http://www.w3.org/1999/xlink" version="1.1" viewBox="0 -205 1024 1024">
  <g transform="matrix(1 0 0 -1 0 819)">
   <path fill="currentColor"
d="M662 740q6 -4 6 -10q0 -4 -12 -8q-27 -3 -72 -54q-42 -48 -126 -128l224 8q39 51 78 126l68 -44q2 -7 2 -10t-14 -6q-12 -3 -24 -12q-12 -7 -30 -34q-19 -24 -80 -96q-60 -71 -140 -130q-81 -60 -176 -102l-8 16q69 39 120 78t100 88q48 48 94 106q-103 -13 -158 -22
q-54 -9 -86 -30l-36 64q28 3 44 18q15 11 60 68q44 54 98 150l68 -36v0v0zM838 496l64 -44q6 -4 6 -8q1 -8 -22 -10q-15 -1 -30 -16q-45 -60 -128 -146q94 -49 140 -88q45 -38 54 -65t4 -48q-7 -20 -28 -22q-21 -3 -32 32q-12 35 -44 79q-30 44 -108 98q-54 -49 -140 -104
q-84 -53 -252 -109l-6 14q119 49 218 111q99 63 150 120q50 54 82 94q30 39 72 112v0v0v0zM550 990l8 12q75 -33 106 -62q30 -28 34 -52q2 -25 -10 -40q-12 -13 -32 -10q-21 2 -24 32q-3 27 -24 60q-19 30 -58 60v0v0zM352 814h512l46 46l62 -54q3 -4 4 -10q-1 -7 -16 -8
h-524q-21 0 -62 -8l-22 34v0v0zM180 990l78 -28q14 -5 2 -16l-30 -14v-144q65 -27 98 -48q29 -21 38 -44t0 -40q-9 -19 -26 -16q-18 -1 -26 20q-6 20 -18 44q-12 22 -66 62v-600l4 -107q0 -10 -20 -24q-21 -12 -38 -10l4 135v830v0v0zM102 764h18q7 -97 2 -142
q-3 -45 -24 -74q-18 -28 -42 -28q-22 0 -28 16q-7 14 4 28q11 15 26 30q12 15 24 48q11 32 20 122v0v0z" />
  </g>

</svg>
