<?xml version="1.0" standalone="no"?>
<!DOCTYPE svg PUBLIC "-//W3C//DTD SVG 1.1//EN" "http://www.w3.org/Graphics/SVG/1.1/DTD/svg11.dtd" >
<svg xmlns="http://www.w3.org/2000/svg" xmlns:xlink="http://www.w3.org/1999/xlink" version="1.1" viewBox="0 -205 1024 1024">
  <g transform="matrix(1 0 0 -1 0 819)">
   <path fill="currentColor"
d="M470 740h420l42 56l52 -62q16 -18 -6 -20h-122q-16 -152 -52 -268q-35 -114 -70 -168q33 -51 76 -92q42 -42 84 -65q42 -24 108 -40v-18q-44 3 -64 -6q-18 -7 -38 -30q-67 50 -110 96q-40 43 -86 113q-66 -80 -168 -139q-100 -56 -178 -86l-6 16q84 46 166 100
q84 52 162 151q-34 63 -64 168q-31 102 -46 268h-30q-24 -1 -54 -8l-16 34v0v0zM598 714q17 -144 50 -240q30 -94 58 -154q33 71 60 178q24 105 34 216h-202v0v0zM626 962q87 -48 114 -84t22 -62q-6 -28 -18 -34q-13 -6 -28 -2q-13 3 -16 28q-4 23 -16 56t-66 90l8 8v0v0z
M304 936q6 -6 4 -12q-3 -4 -18 -8q-13 -6 -22 -18q-7 -12 -32 -56h116l30 34l62 -48q6 -6 4 -12q-1 -6 -32 -12q-21 -10 -42 -34q-21 -21 -60 -78h82l28 34l52 -42q10 -6 0 -18l-16 -10v-242l4 -68q0 -13 -18 -26q-17 -10 -34 -10v32h-250v-16q1 -12 -18 -26
q-17 -13 -34 -14l4 106v256q-39 -61 -78 -98l-10 10q50 80 116 202q64 120 92 208l70 -34v0v0zM162 368h100v138h-100v-138v0v0zM310 368h102v138h-102v-138v0v0zM162 532h100v134h-100v-134v0v0zM310 666v-134h102v134h-102v0v0zM160 692h124l68 124h-130q-34 -55 -70 -110
l8 -14v0v0zM132 264h18q3 -70 -6 -106q-9 -34 -26 -59q-17 -23 -40 -28q-21 -3 -32 8q-9 9 -6 24q2 15 20 26q15 9 36 35q21 24 36 100v0v0zM194 274l14 8q39 -60 48 -92q8 -34 8 -51q-1 -19 -14 -32q-12 -13 -30 -8q-18 6 -12 36q3 26 4 61q0 33 -18 78v0v0zM280 292l12 10
q51 -48 66 -86q15 -40 16 -58q-1 -18 -14 -31q-11 -13 -28 -8q-18 7 -14 35q2 28 -4 62q-7 33 -34 76v0v0zM370 298l12 10q58 -48 80 -78q21 -31 24 -56q0 -25 -12 -35q-12 -13 -30 -8q-18 3 -18 33t-14 64q-12 32 -42 70v0v0z" />
  </g>

</svg>
