<?xml version="1.0" standalone="no"?>
<!DOCTYPE svg PUBLIC "-//W3C//DTD SVG 1.1//EN" "http://www.w3.org/Graphics/SVG/1.1/DTD/svg11.dtd" >
<svg xmlns="http://www.w3.org/2000/svg" xmlns:xlink="http://www.w3.org/1999/xlink" version="1.1" viewBox="0 -36 256 256">
  <g transform="matrix(1 0 0 -1 0 220)">
   <path fill="currentColor"
d="M117 244l23 -8l-7 -7v-16h50l13 11l17 -18h-80v-27h76l14 12l18 -19h-196q-10 0 -20 -2l-9 9h102v27h-46q-11 0 -20 -2l-10 9h76q0 18 -1 31zM184 138q-10 11 -27 25l2 3q45 -24 50 -33t0.5 -16t-9 -0.5t-11.5 15.5q-54 -4 -89.5 -9t-45.5 -9l-9 17q15 4 31 17t26 27
l16 -12l-22.5 -13.5t-30.5 -18.5zM124 117q-3 -2 -10 -8t-19 -18v-56q28 13 51 23l2 -4q-55 -34 -63 -43l-11 14q7 4 7 12v43q-32 -25 -68 -37l-1 4q62 33 97 81zM139 131q13 -32 33 -55q29 24 36 37l17 -15l-11 -4q-22 -12 -38 -23q25 -27 68 -35v-4q-18 -1 -25 -13
q-61 31 -85 111z" />
  </g>

</svg>
