<?xml version="1.0" standalone="no"?>
<!DOCTYPE svg PUBLIC "-//W3C//DTD SVG 1.1//EN" "http://www.w3.org/Graphics/SVG/1.1/DTD/svg11.dtd" >
<svg xmlns="http://www.w3.org/2000/svg" xmlns:xlink="http://www.w3.org/1999/xlink" version="1.1" viewBox="0 -36 256 256">
  <g transform="matrix(1 0 0 -1 0 220)">
   <path fill="currentColor"
d="M143 193l-7 -7v-10h50l12 10l16 -17h-78v-24h71l11 11l18 -18h-187q-7 1 -18 -2l-9 9h46q0 30 -1 39l23 -8l-8 -6v-25h40v29q0 14 -1 26zM67 101.5q0 9.5 -2 20.5l17 -7h28q6 15 9 26l18 -10q-11 -5 -23 -16h70l7 8l16 -12l-8 -6v-29h21l11 12l16 -19h-48v-34
q-1 -20 -24 -27q-1 8 -10 11.5t-17 3.5v6q19 -2 25.5 -2t8.5 3t2 7v32h-103q-3 -25 -21 -39t-49 -22l-2 4q30 12 43 26.5t15 30.5h-24q-8 1 -19 -2l-10 9h53v25.5zM81 76h103v32h-103v-32zM142.5 95q3.5 -6 -2 -14.5t-10 2.5t-21.5 19l1 4q29 -5 32.5 -11zM136.5 52
q5.5 -7 -1 -16t-9.5 0.5t-8 15.5t-14 11l3 4q24 -8 29.5 -15zM124 208h-38q0 -7 1 -17l-16 -6q1 13 1 23h-25q-10 0 -19 -2l-10 9h54q0 20 -1 31l22 -8l-7 -7v-16h12l13 11zM156 210q-11 0 -20 -2l-9 9h34q0 15 -1 28l22 -9l-7 -7v-12h29l12 11l15 -18h-56q-1 -3 1 -20
l-16 -5q1 21 1 25h-5z" />
  </g>

</svg>
