<?xml version="1.0" standalone="no"?>
<!DOCTYPE svg PUBLIC "-//W3C//DTD SVG 1.1//EN" "http://www.w3.org/Graphics/SVG/1.1/DTD/svg11.dtd" >
<svg xmlns="http://www.w3.org/2000/svg" xmlns:xlink="http://www.w3.org/1999/xlink" version="1.1" viewBox="0 -246 2048 2048">
  <g transform="matrix(1 0 0 -1 0 1802)">
   <path fill="currentColor"
d="M1249 654q-10 -218 -104 -354q-90 -131 -279 -224l-33 43q151 101 224 235q68 125 79 300h-236l-22 51h260v418h-207l-18 51h225v328q193 -3 193 -39q0 -20 -80 -45v-244h248v330q191 -6 191 -41q0 -21 -76 -43v-246h88l82 104q72 -65 108 -114l-16 -41h-262v-418h102
l88 111q72 -65 117 -119l-23 -43h-278v-551h-115v551h-256zM1251 705h248v418h-248v-418zM483 756h-315l-19 51h340v191h-264l-14 51h278v176h-291l-20 51h311v233q191 0 191 -34q0 -20 -82 -47v-152h170l84 94q69 -55 104 -102l-22 -43h-336v-176h123l74 90
q60 -51 100 -100l-18 -41h-279v-191h178l86 101q78 -71 111 -113l-25 -39h-350v-123q311 -117 311 -231q0 -59 -59 -59q-35 0 -64 47q-47 89 -188 192v-479h-109v456q-148 -222 -352 -374l-37 37q266 253 383 534zM1198 1707q-97 -130 -244 -215l-32 31q197 182 274 425
q160 -33 160 -71q0 -23 -76 -35q-29 -57 -45 -84h459l96 119q79 -67 131 -131l-23 -39h-555q148 -67 148 -140q0 -55 -62 -55q-38 0 -57 47q-36 86 -112 148h-62zM444 1707q-134 -199 -325 -313l-33 35q252 221 342 517q178 -30 178 -67q0 -25 -88 -43q-17 -37 -41 -78h352
l95 115q71 -69 112 -127l-24 -39h-412q154 -59 154 -135q0 -64 -62 -64q-46 0 -67 51q-35 83 -123 148h-58z" />
  </g>

</svg>
