<?xml version="1.0" standalone="no"?>
<!DOCTYPE svg PUBLIC "-//W3C//DTD SVG 1.1//EN" "http://www.w3.org/Graphics/SVG/1.1/DTD/svg11.dtd" >
<svg xmlns="http://www.w3.org/2000/svg" xmlns:xlink="http://www.w3.org/1999/xlink" version="1.1" viewBox="0 -205 1024 1024">
  <g transform="matrix(1 0 0 -1 0 819)">
   <path fill="currentColor"
d="M494 474l56 -36h120l26 34l50 -40q8 -3 8 -12q0 -4 -24 -22v-112l4 -66q0 -15 -20 -26q-18 -9 -32 -12v48h-142v-42q1 -12 -16 -24t-34 -14l4 118v206v0v0zM540 412v-156h142v156h-142v0v0zM402 558h498l38 46l60 -54q3 -4 4 -8q0 -10 -12 -10h-118v-429q1 -34 -16 -56
q-17 -21 -58 -40q-6 31 -38 46q-31 15 -92 30l4 18q71 -13 98 -14q24 -1 40 4q15 6 12 49v392h-336q-21 0 -68 -8l-16 34v0v0zM658 962q82 -29 86 -34q4 -6 -4 -12l-28 -12q-8 -60 -16 -104h144l42 48q51 -52 60 -58q6 -6 4 -12q-1 -4 -14 -4h-242q-5 -23 -10 -34
q68 -18 110 -36q42 -15 66 -36q24 -22 24 -46q0 -25 -18 -32q-19 -7 -38 20q-17 26 -52 56q-36 28 -102 56q-31 -57 -88 -92q-54 -34 -132 -52l-6 14q60 27 120 72q57 41 76 110h-104q-21 0 -68 -8l-16 34h192q13 69 14 162v0v0zM148 680h164l36 42l56 -52q7 -12 -4 -18
h-128v-146h70l30 44l58 -52q12 -12 -2 -20h-156v-286l178 38l8 -18q-133 -37 -196 -56q-64 -17 -110 -35q-44 -17 -64 -38l-44 67l182 34v294h-94q-18 0 -54 -8l-18 36h166v146h-36l-20 -6l-22 34v0v0zM74 420l10 10q54 -42 78 -66q21 -23 28 -52q6 -27 -8 -42
q-13 -13 -28 -8q-14 4 -16 26q0 20 -14 52q-15 29 -50 80v0v0zM282 254q66 105 96 192l64 -38q4 -9 -4 -12q-6 -4 -18 -4q-10 0 -38 -42q-28 -40 -86 -106l-14 10v0v0zM24 580q56 84 110 174q53 90 110 220l70 -30q3 -6 -2 -12q-4 -3 -14 -6t-26 -26q67 -31 104 -56
q35 -24 46 -44q11 -21 2 -38q-10 -19 -26 -16q-15 0 -30 24q-12 24 -36 52q-21 28 -72 62q-39 -73 -102 -166q-64 -94 -122 -148l-12 10v0v0z" />
  </g>

</svg>
