<?xml version="1.0" standalone="no"?>
<!DOCTYPE svg PUBLIC "-//W3C//DTD SVG 1.1//EN" "http://www.w3.org/Graphics/SVG/1.1/DTD/svg11.dtd" >
<svg xmlns="http://www.w3.org/2000/svg" xmlns:xlink="http://www.w3.org/1999/xlink" version="1.1" viewBox="0 -144 1024 1024">
  <g transform="matrix(1 0 0 -1 0 880)">
   <path fill="currentColor"
d="M51 70l-13 32l24 9v373l54 -11l13 -10l-13 -9v-323l41 17v454h-36v-38l-64 -32v392l64 -32h115l32 27l59 -49l-27 -21v-279l-64 -33v65h-25v-208h19l33 38l43 -38v-21h-95v-202l99 43l5 -8l-47 -41l-50 -35l-77 -47l-52 -27l-6 -3l-5 -21l-16 11l-11 26v1zM608 298h-231
v22h401l54 53l65 -53v-22h-224v-172l-1 -14l-2 -13l-5 -13l-7 -12l-8 -11l-11 -9l-12 -6l-13 -5l-14 -2l-13 -1v32l-108 16v17h108h6l5 1l3 1l2 1h1l1 1l1 3l1 3l1 5v6v172zM38 102l24 -59l-34 55zM486 251l49 -42l6 -18l-21 2l-17 -17l-18 -15l-38 -29l-42 -27l-22 -12
l-49 -21l-5 9l20 17l54 51l30 33l28 33zM855 105l-9 15l-24 30l-28 29l-33 28l-19 14l-20 14l4 8l47 -14l22 -9l20 -10l20 -11l37 -27l17 -15l15 -15l14 -17l4 -25l-13 -20l-24 -4l-21 13zM577 703h1l29 24l54 -43l-5 15l-11 55l9 3l46 -97l17 -31l58 110l10 21h-1l6 9
l51 -40l8 -18l-23 1l-41 -42l-42 -39l-16 -14l-2 -2l25 -39l28 -37l3 -4l66 113l10 20l-1 1l6 8l50 -42l7 -18l-23 2l-55 -53l-48 -41l-2 -2l16 -18l32 -31l33 -27l35 -24l62 -36l-61 -47l-39 28l-38 30l-34 35l-32 37l-28 39l-25 43l-22 47l-19 49l-9 29l-23 -14l-13 -6
l-17 -31l-29 -48l-30 -44l-31 -40l-33 -38l-34 -33l-35 -31l-38 -26l-38 -22l-41 -18l-4 9l33 26l33 28l31 30l30 32l25 30l-13 11l-3 17l-2 8l-3 8l-3 8l-9 17l-5 8l-7 8l-5 4l-25 -25l-22 -17l-23 -15l-7 7l30 44l28 47l27 50l12 26l11 28l20 55h-1l5 13l58 -30l11 -16
l-20 -3l-16 -34h89zM719 490l53 -48v-22h-259v22h162zM498 552l-11 9v6l-2 7l-2 7l-3 7l-4 8l-13 16l-16 16l-3 2l-12 -19l-19 -24l-8 -9l4 -2l11 -2l11 -4l11 -5l19 -12l9 -8l9 -8l5 -6zM566 679h-91l-9 -16l-15 -23l1 -1l13 -2l12 -3l22 -8l11 -6l10 -6l9 -7l1 -1l25 48z
M236 870h-115v-247h115v247zM712 958l65 -10l16 -11l-16 -10v-48h59l54 54l64 -54v-21h-177v-55l-65 -32v87h-134v-55l-64 -32v87h-178v21h178v79l64 -10l16 -11l-16 -10v-48h134v79z" />
  </g>

</svg>
