<?xml version="1.0" standalone="no"?>
<!DOCTYPE svg PUBLIC "-//W3C//DTD SVG 1.1//EN" "http://www.w3.org/Graphics/SVG/1.1/DTD/svg11.dtd" >
<svg xmlns="http://www.w3.org/2000/svg" xmlns:xlink="http://www.w3.org/1999/xlink" version="1.1" viewBox="0 -205 1024 1024">
  <g transform="matrix(1 0 0 -1 0 819)">
   <path fill="currentColor"
d="M402 914l62 -64q3 -3 4 -8q0 -6 -8 -6h-308v-696h218l38 50q60 -56 60 -65q0 -8 -18 -8h-288l-34 -40l-62 56l36 23v752l52 -46h212l36 52v0v0zM446 724q6 -3 6 -6q4 -6 -10 -12q-18 -6 -26 -20l-24 -60q-19 -44 -46 -100q54 -76 72 -112t18 -66q0 -31 -8 -46
q-10 -15 -28 -12q-15 0 -18 36q-2 33 -16 72q-13 39 -40 82q-69 -148 -144 -236l-12 10q69 116 132 268q-40 68 -122 176l12 12q62 -61 128 -148q31 71 62 194l64 -32v0v0zM480 870h386l36 46l58 -54q6 -3 6 -6q1 -12 -10 -12h-340l-12 -162h172l32 40l50 -40q12 -8 12 -16
q0 -10 -36 -26l-22 -498q2 -23 14 -27q12 -3 60 -4q24 3 30 26q6 19 10 47q2 24 8 108h22q-1 -81 2 -114q3 -34 30 -45q-14 -28 -22 -38q-6 -9 -18 -16q-10 -5 -34 -10h-62q-54 0 -68 12q-13 12 -16 26q-4 13 -2 39l20 510h-184l-38 -492l162 76l10 -16q-144 -84 -162 -101
q-19 -15 -40 -42l-54 54q33 16 36 35l50 674h-16q-18 0 -54 -8l-16 34v0v0zM606 534l10 14q63 -39 90 -66q24 -25 24 -50t-12 -38q-11 -12 -28 -8q-15 4 -18 32q-1 27 -16 54q-15 26 -50 62v0v0z" />
  </g>

</svg>
