<?xml version="1.0" standalone="no"?>
<!DOCTYPE svg PUBLIC "-//W3C//DTD SVG 1.1//EN" "http://www.w3.org/Graphics/SVG/1.1/DTD/svg11.dtd" >
<svg xmlns="http://www.w3.org/2000/svg" xmlns:xlink="http://www.w3.org/1999/xlink" version="1.1" viewBox="0 -205 1024 1024">
  <g transform="matrix(1 0 0 -1 0 819)">
   <path fill="currentColor"
d="M510 250h182v146l80 -26q3 -3 4 -8q1 -3 -34 -20v-92h84l26 32l60 -40q3 -3 4 -8q0 -12 -12 -12h-162v-83l4 -76q-3 -10 -18 -20q-16 -9 -40 -16l4 110v85h-110q-22 0 -58 -8l-14 36v0v0zM718 964l6 -4q3 -10 -14 -14q-18 -4 -26 -16q-7 -9 -40 -54h204l34 38
q62 -49 62 -56q0 -6 -32 -26v-174l4 -58q0 -16 -20 -28q-18 -10 -36 -10v42h-284v-22q0 -15 -18 -26q-15 -12 -36 -12l4 104v266l54 -38h34q24 57 34 114l70 -26v0v0zM576 628h284v98h-284v-98v0v0zM576 752h284v98h-284v-98v0v0zM248 892q9 -10 -8 -16q-14 -4 -28 -14
q-99 -120 -180 -192l-12 12q87 104 168 242l60 -32v0v0zM120 442l52 -36h152l26 36l54 -36q6 -7 0 -14l-18 -16v-178l4 -77q1 -19 -16 -32q-18 -14 -36 -14v60h-170v-44q0 -14 -18 -28q-16 -14 -34 -16l4 94v301v0v0zM168 158h170v224h-170v-224v0v0zM302 682q12 -9 -6 -18
l-22 -6l-14 -16q74 -34 112 -58q38 -22 62 -50q25 -26 20 -52q-3 -25 -24 -28q-19 -4 -32 22q-12 24 -38 60q-27 33 -110 90q-42 -63 -98 -134q-57 -69 -126 -132l-10 12q65 78 118 156q51 77 100 182l68 -28v0v0zM296 928q66 -42 100 -72q33 -27 46 -54t2 -44
q-10 -18 -28 -18q-18 1 -24 26t-30 62q-22 36 -76 90l10 10v0v0zM462 500h174q23 45 38 96l76 -22q15 -12 -6 -18q-21 -4 -30 -16q-7 -13 -20 -40h204l36 42l56 -48l6 -8q4 -12 -12 -12h-208q30 -45 64 -74q32 -30 64 -50q29 -21 110 -38v-18q-45 0 -56 -6q-10 -6 -22 -24
q-30 18 -60 46q-31 27 -58 60q-28 34 -70 104h-68q-55 -87 -122 -146q-66 -58 -140 -94l-6 12q66 47 118 104q51 54 94 124h-78q-19 0 -68 -8l-16 34v0v0z" />
  </g>

</svg>
