<?xml version="1.0" standalone="no"?>
<!DOCTYPE svg PUBLIC "-//W3C//DTD SVG 1.1//EN" "http://www.w3.org/Graphics/SVG/1.1/DTD/svg11.dtd" >
<svg xmlns="http://www.w3.org/2000/svg" xmlns:xlink="http://www.w3.org/1999/xlink" version="1.1" viewBox="0 -36 256 256">
  <g transform="matrix(1 0 0 -1 0 220)">
   <path fill="currentColor"
d="M26 75v120q0 22 -1 45l23 -13l-8 -6v-64h37l13 13l13 -20h-63v-85l57 22l3 -4q-44 -23 -69 -44l-12 17q9 4 7 19zM144 246l25 -9l-10 -8v-36h50l11 14l17 -21h-78v-43h34l10 11l17 -18l-10 -4q-20 -37 -46 -64q12 -12 36.5 -25t45.5 -14v-4q-17 -1 -20 -14q-43 16 -72 48
q-42 -38 -107 -50l-2 6q69 22 99 55q-21 27 -34 66h-9l-8 -2l-10 9h62v43h-32q-15 0 -27 -4l-11 11h70q0 38 -1 53zM154 78q28 29 39 58h-77q19 -38 38 -58z" />
  </g>

</svg>
