<?xml version="1.0" standalone="no"?>
<!DOCTYPE svg PUBLIC "-//W3C//DTD SVG 1.1//EN" "http://www.w3.org/Graphics/SVG/1.1/DTD/svg11.dtd" >
<svg xmlns="http://www.w3.org/2000/svg" xmlns:xlink="http://www.w3.org/1999/xlink" version="1.1" viewBox="0 -205 1024 1024">
  <g transform="matrix(1 0 0 -1 0 819)">
   <path fill="currentColor"
d="M54 668h142v302l80 -36q8 -4 10 -8q3 -1 -2 -10l-38 -16v-232h46l28 34l38 -40q4 -3 8 -14q2 -7 -10 -8h-110v-298l140 64l8 -18q-166 -93 -214 -122t-78 -70l-52 60l146 66v318h-70q-21 0 -56 -8l-16 36v0v0zM352 600q80 158 142 358q76 -30 80 -36q3 -5 0 -10
q-3 -3 -24 -6t-56 -86q-36 -81 -116 -228l140 20q57 132 72 186q75 -29 78 -34q3 -6 -2 -8q-3 -3 -24 -12q-19 -7 -88 -166q-70 -156 -154 -306l168 40q-9 52 -44 122l14 8q64 -78 80 -120q15 -40 10 -58q-3 -19 -12 -28q-9 -8 -24 -6q-13 2 -16 22q0 18 -6 40l-132 -44
q-41 -16 -70 -40l-40 56q30 8 48 28q72 135 136 300q-91 -24 -112 -36q-19 -9 -40 -26l-38 52l30 18v0v0zM900 732l56 -36q8 -3 8 -12q0 -3 -32 -30q-24 -336 -30 -392q-5 -57 -10 -96q-6 -35 -26 -71q-19 -33 -70 -48q-10 33 -34 48q-24 16 -96 38l6 19q96 -26 124 -27
q26 0 38 25q11 24 20 100q6 78 30 420h-114q-6 -117 -32 -264q-24 -145 -96 -236q-69 -90 -218 -167l-8 14q116 80 184 169q68 88 92 230q24 141 30 252h-60q-7 0 -28 -8l-20 36h108l12 270l70 -30q15 -7 16 -14q4 -6 -36 -20l-14 -206h104l26 36v0v0z" />
  </g>

</svg>
