<?xml version="1.0" standalone="no"?>
<!DOCTYPE svg PUBLIC "-//W3C//DTD SVG 1.1//EN" "http://www.w3.org/Graphics/SVG/1.1/DTD/svg11.dtd" >
<svg xmlns="http://www.w3.org/2000/svg" xmlns:xlink="http://www.w3.org/1999/xlink" version="1.1" viewBox="0 -205 1024 1024">
  <g transform="matrix(1 0 0 -1 0 819)">
   <path fill="currentColor"
d="M682 672q-13 44 -22 98h-184v-98h206v0v0zM476 910v-114h386v114h-386v0v0zM454 436l48 -20h356l26 24l52 -46q6 -4 6 -8q-1 -7 -34 -22v-214l4 -73q0 -12 -14 -22q-12 -12 -42 -16v60h-350v-38q0 -18 -18 -28q-19 -8 -38 -8l4 112v299v0v0zM506 125h350v121h-350v-121v0
v0zM506 272h350v118h-350v-118v0v0zM878 976l60 -44q6 -6 6 -8q0 -7 -32 -28v-58l4 -74q0 -19 -18 -32q-18 -9 -36 -12v50h-150q6 -54 22 -98h160l30 40l60 -52q2 -5 2 -10q-1 -4 -10 -4h-232q16 -43 62 -86q46 -42 92 -60q44 -18 56 10q9 30 22 102h20q-6 -66 -8 -96
q-1 -31 8 -46q8 -14 14 -22q4 -6 0 -12q-6 -6 -30 -6t-74 12q-51 15 -120 72q-67 57 -94 132h-216v-130l190 46l8 -18q-125 -40 -166 -56q-42 -16 -72 -46l-48 56l38 16v460l60 -38h364l28 40v0v0zM110 906l56 -40h110l32 40l54 -38q12 -6 12 -14q-1 -3 -34 -30v-418l4 -88
q0 -12 -14 -24q-16 -13 -40 -16v76h-130v-96q0 -12 -20 -24q-19 -12 -34 -12l4 138v546v0v0zM160 384h130v452h-130v-452v0v0z" />
  </g>

</svg>
