<?xml version="1.0" standalone="no"?>
<!DOCTYPE svg PUBLIC "-//W3C//DTD SVG 1.1//EN" "http://www.w3.org/Graphics/SVG/1.1/DTD/svg11.dtd" >
<svg xmlns="http://www.w3.org/2000/svg" xmlns:xlink="http://www.w3.org/1999/xlink" version="1.1" viewBox="0 -36 256 256">
  <g transform="matrix(1 0 0 -1 0 220)">
   <path fill="currentColor"
d="M33 196v-118h31v118h-31zM20 73v96q0 21 -1 43l13 -9h31l7 12l14 -14l-7 -7v-108q0 -17 1 -34l-14 -8v27h-31v-22l-14 -7q1 15 1 31zM123 36q0 -11 1 -21l-15 -6q1 11 1 24v96q-11 -32 -31 -59l-3 4q25 51 32 107q-6 0 -15 -2l-9 9h26q0 27 -1 57l21 -10l-7 -7v-40h3l8 9
l14 -16h-25v-26q19 -15 24.5 -24.5t0.5 -21t-10.5 7t-14.5 32.5v-113zM164 177l-11 -1l-5 8h36v57l21 -9l-8 -7v-41h18l12 12l16 -19h-79zM235 22h-17q-15 0 -15 19v101h-27q1 -38 -6 -68.5t-39 -59.5l-2 3q25 31 30 63t2 77l14 -8h28l7 9l13 -11l-7 -7v-95q-1 -11 6 -11h5
q4 1 5 9.5t1 25.5h5q0 -9 2 -21t8 -15q-4 -9 -13 -11z" />
  </g>

</svg>
