<?xml version="1.0" standalone="no"?>
<!DOCTYPE svg PUBLIC "-//W3C//DTD SVG 1.1//EN" "http://www.w3.org/Graphics/SVG/1.1/DTD/svg11.dtd" >
<svg xmlns="http://www.w3.org/2000/svg" xmlns:xlink="http://www.w3.org/1999/xlink" version="1.1" viewBox="0 -205 1024 1024">
  <g transform="matrix(1 0 0 -1 0 819)">
   <path fill="currentColor"
d="M778 584l54 -50q12 -10 12 -16q0 -4 -14 -8q-39 -3 -96 -36q-54 -33 -174 -92v-36v-4h338l34 48l62 -52q3 -3 4 -12q0 -12 -12 -12h-426v-183q2 -48 -22 -72q-24 -20 -66 -26q-5 30 -40 48q-36 16 -74 26l4 20q76 -18 98 -22q20 -2 34 4q15 7 12 41v164h-380
q-37 1 -64 -10l-22 38h466v100l68 -28l152 106h-476q-15 0 -48 -8l-22 34h558l40 38v0v0zM196 980l68 -34h510l36 38l62 -50q6 -6 6 -8q0 -6 -32 -24v-192l4 -88q1 -3 -16 -14q-15 -9 -44 -12v50h-538v-44q3 0 -18 -12q-21 -10 -42 -10l4 94v306v0v0zM252 674h538v112h-538
v-112v0v0zM252 814h538v104h-538v-104v0v0z" />
  </g>

</svg>
