<?xml version="1.0" standalone="no"?>
<!DOCTYPE svg PUBLIC "-//W3C//DTD SVG 1.1//EN" "http://www.w3.org/Graphics/SVG/1.1/DTD/svg11.dtd" >
<svg xmlns="http://www.w3.org/2000/svg" xmlns:xlink="http://www.w3.org/1999/xlink" version="1.1" viewBox="0 -205 1024 1024">
  <g transform="matrix(1 0 0 -1 0 819)">
   <path fill="currentColor"
d="M486 974l88 -28q7 -3 8 -6q-1 -1 -4 -8l-38 -16v-76h258l44 56l72 -66q3 -5 4 -10q-1 -7 -10 -8h-368v-104h204l32 44l64 -48q6 -4 6 -8q0 -6 -36 -36v-200l4 -84q0 -13 -18 -26q-18 -12 -38 -14v42h-214v-112h310l36 52l76 -60q3 -4 4 -10q0 -12 -14 -12h-412v-86l4 -91
q0 -13 -24 -30q-24 -16 -38 -14l4 129v92h-352q-21 0 -68 -8l-16 38h436v112h-202v-10q-1 -12 -22 -24q-22 -10 -34 -10l4 122v290l62 -38h188v266v0v0zM288 406h470v126h-470v-126v0v0zM288 560h470v120h-470v-120v0v0z" />
  </g>

</svg>
