<?xml version="1.0" standalone="no"?>
<!DOCTYPE svg PUBLIC "-//W3C//DTD SVG 1.1//EN" "http://www.w3.org/Graphics/SVG/1.1/DTD/svg11.dtd" >
<svg xmlns="http://www.w3.org/2000/svg" xmlns:xlink="http://www.w3.org/1999/xlink" version="1.1" viewBox="0 -36 256 256">
  <g transform="matrix(1 0 0 -1 0 220)">
   <path fill="currentColor"
d="M68 16l-16 -9q1 22 1 39v78q-20 -24 -40 -39l-3 4q19 20 41 53.5t26 46.5l18 -16l-8 -2q-5 -9 -19 -29v-126zM87 231l-9 -3q-36 -47 -61 -63l-3 4q19 20 34.5 43t19.5 34zM121 228v-16h80v16h-80zM121 205v-18h80v18h-80zM121 180v-17h80v17h-80zM121 235h79l6 12l17 -13
l-7 -7v-37q-1 -18 2 -35l-17 -8v9h-18v-20q-1 -11 11 -13h25q7 0 8.5 5t2.5 30h5q0 -14 2 -22.5t9 -10.5q-5 -14 -24 -15h-38q-15 3 -15 17v29h-17q-4 -51 -76 -62l-1 5q61 15 61 57h-15v-6l-16 -7q1 18 1 36v35q0 15 -1 31zM121 48.5q-4 14.5 -16 25.5l3 3q26 -12 28 -22
t-4.5 -15.5t-10.5 9zM247 81h-50v-47q0 -20 -23 -26q-1 15 -33 19l1 5q31 -4 36 -1.5t4 11.5v39h-76q-10 0 -19 -2l-9 9h104q0 12 -1 23l23 -9l-7 -5v-9h23l12 12z" />
  </g>

</svg>
