<?xml version="1.0" standalone="no"?>
<!DOCTYPE svg PUBLIC "-//W3C//DTD SVG 1.1//EN" "http://www.w3.org/Graphics/SVG/1.1/DTD/svg11.dtd" >
<svg xmlns="http://www.w3.org/2000/svg" xmlns:xlink="http://www.w3.org/1999/xlink" version="1.1" viewBox="0 0 2048 2048">
  <g transform="matrix(1 0 0 -1 0 2048)">
   <path fill="currentColor"
d="M350 527v552h-43q-87 0 -130.5 -4.5t-47.5 -4.5l-13 -2l-40 91q14 -4 30 -7q16 -4 62 -10q45 -6 139 -6h43v490h-74q-44 0 -110 -4q-66 -3 -68 -3l-14 -1l-37 88q13 -4 29 -8q15 -3 62 -9q46 -6 138 -6h279l99 102l120 -107l12 -10q8 -11 4 -24q-4 -11 -12 -14
q-7 -4 -14 -4h-318v-490h77l98 102l121 -107q8 -8 14 -15q5 -8 2 -19q-3 -10 -12 -14t-15 -4h-285v-524q22 6 50 15q27 8 98 34q72 25 97 36l59 24l18 -36l-59 -35q-31 -18 -77 -39q-46 -22 -148 -65l-138 -57q-36 -14 -109 -38l-41 -14l-11 -41q-5 -17 -11 -24
q-5 -7 -14 -7q-8 -1 -12 3q-5 4 -17 28l-69 131q24 3 49 8l101 18q76 14 107 23zM1099 1311l-40 86q27 -5 48 -8t42 -5t53 -4q31 -1 64 -1h207l81 77l98 -71q23 -17 27 -26t2 -19q-3 -11 -10 -14q-7 -4 -16 -4h-408q-24 0 -57 -2q-32 -3 -41 -4q-9 0 -26 -2zM784 1245
l-22 34q53 31 100 61q46 31 112 92q66 60 126 134t107 152q47 77 66 123l32 76l142 -45q24 -8 29 -16q6 -8 5 -16q-2 -10 -12 -18q-10 -9 -26 -11l-47 -7l62 -76q32 -38 72 -76q41 -39 120 -96q80 -58 154 -100q75 -41 132 -53l61 -15v-41q-25 -1 -49 -1q-23 -1 -44 -10
q-22 -8 -28 -23l-14 -26q-35 19 -78 45q-44 26 -92 64t-109 98t-100 108l-75 98l-50 65l-47 -74q-23 -35 -65 -87q-41 -51 -98 -108q-56 -56 -120 -103t-136 -87zM1204 470l-252 2q-2 -31 -6 -63q-3 -32 -21 -80t-55 -120t-69 -111l-49 -61l-36 27q28 45 52 88q25 44 46 104
q21 61 30 110q8 49 16 146t9 134l-1 75v323q0 91 -2 106l-6 49l113 -72h215l61 72l73 -50q16 -12 28 -23q11 -12 13 -23t-8 -23q-5 -7 -29 -19l-27 -14v-829q0 -41 -9 -67q-10 -26 -30 -45q-19 -19 -45 -34q-26 -16 -39 -18l-31 -7l-7 35q-3 18 -14 35q-10 17 -34 29
q-25 13 -58 20l-48 10l5 42q27 -4 59 -8q31 -3 58 -6q28 -2 52 -2q24 -1 35 8t11 50v210zM1204 829v239h-240v-239h240zM1204 527v243h-240v-87q0 -41 -4 -91l-5 -65h249zM1761 459l-245 1q-2 -31 -6 -62q-3 -32 -22 -80q-18 -49 -54 -121t-69 -111l-49 -60l-36 27
q28 44 52 87q24 42 46 104t30 110t16 146q8 99 9 134l-1 75v323q0 91 -2 106l-6 49l113 -72h208l61 72l72 -50q18 -14 29 -25q11 -10 13 -20q2 -11 -8 -23q-1 -1 -30 -19l-26 -15v-829q0 -41 -10 -68q-10 -26 -28 -44q-19 -17 -47 -34t-38 -18l-31 -7l-6 34q-4 18 -16 37
q-11 18 -29 28q-18 9 -63 20l-47 11l5 41q27 -3 48 -5t60 -7q40 -5 59 -4q25 0 37 9q11 9 11 49v211zM1761 817v240h-233v-240h233zM1761 516v243h-233v-88q0 -42 -4 -91l-5 -64h242z" />
  </g>

</svg>
