<?xml version="1.0" standalone="no"?>
<!DOCTYPE svg PUBLIC "-//W3C//DTD SVG 1.1//EN" "http://www.w3.org/Graphics/SVG/1.1/DTD/svg11.dtd" >
<svg xmlns="http://www.w3.org/2000/svg" xmlns:xlink="http://www.w3.org/1999/xlink" version="1.1" viewBox="0 -36 256 256">
  <g transform="matrix(1 0 0 -1 0 220)">
   <path fill="currentColor"
d="M40 68l37 11v35h-37v-46zM91 17l-15 -10q1 27 1 64q-54 -20 -59 -30l-9 19q9 2 17 5v151q-2 0 -10 -3l-9 10h73l15 13l18 -20h-23v-134q0 -49 1 -65zM40 173h37v43h-37v-43zM40 166v-45h37v45h-37zM138 221.5q7 -6.5 7 -12.5t-4 -10t-7.5 3.5t-8.5 15t-13 16.5l2 3
q17 -9 24 -15.5zM175 140l-15 -5q1 23 1 51h-31q-10 -1 -19 -3l-9 10h59q0 39 -1 52l22 -9l-8 -8v-35h41l12 11l16 -18h-69q0 -32 1 -46zM135 129q-6 -11 -9 -17h23l7 8l14 -13l-8 -4q-8 -35 -23 -56.5t-43 -38.5l-3 3q21 17 35.5 39.5t20.5 54.5h-26q-3 -5 -7 -13
q10 -6 14 -10t4 -8.5t-4.5 -9.5t-6.5 4t-3 11t-6 10q-9 -13 -18 -22l-3 3q11 18 18 36t12 38l20 -11zM212 14l-15 -7q1 25 1 55h-22l-7 -5l-10 12q5 1 8 11.5t4 23.5l17 -11l-6 -4l-6 -20h22v39h-5q-11 0 -19 -3l-9 10h33q0 22 -1 33l21 -11l-7 -6v-16h9l10 9l13 -16h-32
v-39h9l11 11l14 -18h-34q0 -28 1 -48zM98 132l-2 3q29 20 46 44l14 -14l-9 -3q-30 -22 -49 -30zM226.5 163q9.5 -6 8.5 -18t-8 -4t-17.5 16t-33.5 18l1 4q40 -10 49.5 -16zM185 200q15 19 25 40l16 -17l-9 -2q-18 -15 -28 -23z" />
  </g>

</svg>
