<?xml version="1.0" standalone="no"?>
<!DOCTYPE svg PUBLIC "-//W3C//DTD SVG 1.1//EN" "http://www.w3.org/Graphics/SVG/1.1/DTD/svg11.dtd" >
<svg xmlns="http://www.w3.org/2000/svg" xmlns:xlink="http://www.w3.org/1999/xlink" version="1.1" viewBox="0 -36 256 256">
  <g transform="matrix(1 0 0 -1 0 220)">
   <path fill="currentColor"
d="M49 63v98q-21 -27 -38 -42l-2 3q13 16 22.5 31t24.5 43t22 48l18 -16q-4 0 -13 -13.5t-24 -38.5l12 -8l-8 -6v-147l-15 -7q1 27 1 55zM119 196h80v23h-80v-23zM119 167h80v22h-80v-22zM119 137h80v23h-80v-23zM176 126q26 -8 30 -16.5t-2 -13.5t-11 5t-18 22zM158 93h55
l13 12l17 -20h-75q18 -33 40 -45t39 -13v-4q-15 -2 -21 -12q-21 9 -37 27t-27 47h-5q-16 -55 -86 -77l-2 4q19 8 41 26t32 47h-38q-10 0 -19 -2l-9 10h68q2 22 2 36l22 -10l-7 -6q-2 -13 -3 -20zM214 128l-15 -6v8h-80v-6l-15 -5q1 26 1 59t-1 56l16 -8h77l8 10l15 -12
l-7 -7q0 -75 1 -89z" />
  </g>

</svg>
