<?xml version="1.0" standalone="no"?>
<!DOCTYPE svg PUBLIC "-//W3C//DTD SVG 1.1//EN" "http://www.w3.org/Graphics/SVG/1.1/DTD/svg11.dtd" >
<svg xmlns="http://www.w3.org/2000/svg" xmlns:xlink="http://www.w3.org/1999/xlink" version="1.1" viewBox="0 -205 1024 1024">
  <g transform="matrix(1 0 0 -1 0 819)">
   <path fill="currentColor"
d="M210 610l58 -38h210v220l84 -32q7 -10 0 -16l-32 -16v-40h274l34 34l58 -42q10 -16 -4 -20h-362v-88h230l32 40l62 -48q8 -4 8 -8q0 -6 -36 -30v-260l4 -68q0 -13 -18 -22q-18 -8 -36 -10v38h-516l-2 -4q0 -12 -18 -24q-17 -13 -34 -14l4 98v350v0v0zM260 230h516v82
h-516v-82v0v0zM260 338h516v90h-516v-90v0v0zM260 454h516v90h-516v-90v0v0zM70 27q141 57 306 157l54 -38q9 -7 -2 -15q-20 -3 -34 -6q-14 -2 -106 -40q-91 -38 -214 -76l-4 18v0v0zM614 166l6 16q109 -27 176 -49t86 -50q18 -26 10 -44q-9 -19 -26 -20q-19 0 -34 20
q-15 18 -68 54q-54 35 -150 73v0v0zM426 972l8 12q62 -23 88 -40q27 -15 36 -36q8 -22 -4 -40q-12 -20 -30 -18t-24 26t-24 48t-50 48v0v0zM166 884h20v-48h692l30 38q71 -54 74 -60t-2 -8q-3 -3 -24 -8q-21 -3 -42 -18q-19 -15 -58 -50l-16 10q27 42 42 70h-696
q-6 -45 -18 -68q-13 -21 -32 -32q-18 -10 -38 -10q-22 0 -28 16q-8 15 12 30q20 12 38 28q18 15 30 36q9 22 16 74v0v0z" />
  </g>

</svg>
