<?xml version="1.0" standalone="no"?>
<!DOCTYPE svg PUBLIC "-//W3C//DTD SVG 1.1//EN" "http://www.w3.org/Graphics/SVG/1.1/DTD/svg11.dtd" >
<svg xmlns="http://www.w3.org/2000/svg" xmlns:xlink="http://www.w3.org/1999/xlink" version="1.1" viewBox="0 -205 1024 1024">
  <g transform="matrix(1 0 0 -1 0 819)">
   <path fill="currentColor"
d="M600 712q6 -3 6 -6q3 -9 -8 -12q-13 -3 -28 -12q-15 -7 -68 -80h312l36 36l58 -44q6 -4 6 -8q0 -6 -32 -24v-366l4 -89q1 -12 -18 -28q-17 -15 -40 -18v74h-436v-36q1 -17 -18 -32q-20 -16 -40 -14l4 119v472l62 -42h78q27 68 48 136l74 -26v0v0zM392 160h436v122h-436
v-122v0v0zM392 308h436v120h-436v-120v0v0zM392 454h436v122h-436v-122v0v0zM880 992l60 -40q7 -4 8 -10q0 -3 -32 -30v-124l4 -42q3 -15 -18 -26q-19 -12 -38 -14v50h-606q-1 -189 -10 -300t-54 -222q-42 -108 -110 -177l-10 10q48 68 84 181q37 113 44 220q6 105 4 286
v236l66 -38h578l30 40v0v0zM258 926v-144h606v144h-606v0v0z" />
  </g>

</svg>
