<?xml version="1.0" standalone="no"?>
<!DOCTYPE svg PUBLIC "-//W3C//DTD SVG 1.1//EN" "http://www.w3.org/Graphics/SVG/1.1/DTD/svg11.dtd" >
<svg xmlns="http://www.w3.org/2000/svg" xmlns:xlink="http://www.w3.org/1999/xlink" version="1.1" viewBox="0 -36 256 256">
  <g transform="matrix(1 0 0 -1 0 220)">
   <path fill="currentColor"
d="M129 83q1 28 1 47.5t-1 52.5l14 -8h29v27h-27q-10 0 -19 -2l-9 9h55q0 15 -1 38l21 -9l-7 -7v-22h35l11 11l16 -18h-62v-27h27l8 11l14 -14l-8 -6q0 -61 1 -75l-14 -5v8h-28v-26h35l13 12l14 -19h-62q0 -30 1 -48l-15 -6q1 35 1 54h-36q-10 -1 -19 -3l-9 10h64v26h-29v-7
zM143 137h29v31h-29v-31zM185 137h28v31h-28v-31zM143 101h29v29h-29v-29zM185 101h28v29h-28v-29zM18 115q0 52 -1 96l13 -7q18 17 27 36l16 -14q-13 -5 -41 -28v-64h8l10 12l11 -19h-29v-77h60v77h-1q-10 -1 -19 -3l-9 10h29v64h-4q-10 0 -19 -3l-10 10h32l7 12l14 -11
l-7 -7v-131q0 -13 2 -43l-15 -6v24h-60v-19l-15 -7q1 46 1 98z" />
  </g>

</svg>
