<?xml version="1.0" standalone="no"?>
<!DOCTYPE svg PUBLIC "-//W3C//DTD SVG 1.1//EN" "http://www.w3.org/Graphics/SVG/1.1/DTD/svg11.dtd" >
<svg xmlns="http://www.w3.org/2000/svg" xmlns:xlink="http://www.w3.org/1999/xlink" version="1.1" viewBox="0 -36 256 256">
  <g transform="matrix(1 0 0 -1 0 220)">
   <path fill="currentColor"
d="M106 167l16 2l1 -5q-85 -16 -96 -22l-10 17q13 0 74 6v42h-38q-11 0 -21 -2l-9 9h68q0 15 -1 31l24 -7l-8 -7v-64zM142 243l23 -6l-7 -8v-15h42l15 11l15 -18h-72v-28q0 -11 13 -11h36q7 0 9 7.5t3 22.5h5q1 -15 3 -20.5t9 -8.5q-7 -13 -24 -13h-49q-20 0 -20 21
q0 49 -1 66zM119 78h-79q-11 0 -20 -2l-10 9h109v36q-40 -2 -81 -3v5q50 2 95 9t64 15l13 -20q-14 1 -76 -5v-37h76l15 13l19 -20h-110q0 -43 1 -62l-17 -8q1 28 1 70z" />
  </g>

</svg>
