<?xml version="1.0" standalone="no"?>
<!DOCTYPE svg PUBLIC "-//W3C//DTD SVG 1.1//EN" "http://www.w3.org/Graphics/SVG/1.1/DTD/svg11.dtd" >
<svg xmlns="http://www.w3.org/2000/svg" xmlns:xlink="http://www.w3.org/1999/xlink" version="1.1" viewBox="0 -205 1024 1024">
  <g transform="matrix(1 0 0 -1 0 819)">
   <path fill="currentColor"
d="M418 864h194v112l80 -34q6 -3 6 -6q0 -4 -2 -8l-32 -16v-48h144l34 34l50 -46q9 -6 10 -14q0 -5 -32 -22v-68h36l34 42l42 -48q3 -1 6 -4q3 -4 4 -10t-6 -6h-116v-86l4 -34q0 -18 -18 -30q-18 -9 -38 -8v46h-154v-90h202l30 40l62 -50q6 -6 6 -12q0 -7 -8 -4h-530
q-18 0 -54 -8l-18 34h258v90h-118q-24 -1 -48 -10l-26 36h192v86h-170q-18 0 -66 -8l-28 34h264v88h-132q-21 0 -32 -8l-30 36v0v0zM664 836v-88h154v88h-154v0v0zM664 722v-86h154v86h-154v0v0zM398 304l52 -16h364l40 40l50 -42q9 -6 10 -12q0 -7 -32 -28v-187h26l36 42
l48 -52q3 -2 4 -8q3 -7 -12 -8h-622q-21 1 -60 -8l-16 34h112v245v0v0zM450 59h98v203h-98v-203v0v0zM596 59h92v203h-92v-203v0v0zM736 59h94v203h-94v-203v0v0zM426 466h20q-1 -60 -10 -86q-9 -27 -24 -44q-13 -16 -32 -20q-18 -4 -30 4q-9 9 -6 24q2 12 22 24
q18 11 36 32q15 18 24 66v0v0zM534 466l12 8q46 -39 62 -62q15 -22 16 -44q0 -21 -12 -32q-11 -10 -28 -8q-16 3 -16 24q-1 21 -4 42q-3 18 -30 72v0v0zM684 472l12 8q45 -39 64 -60q17 -21 20 -42q1 -21 -10 -32q-11 -13 -28 -10q-18 2 -18 26q0 21 -6 40q-5 18 -34 70v0v0
zM822 462l8 12q76 -33 104 -60q27 -27 34 -50q3 -21 -8 -36q-11 -13 -28 -10q-15 2 -24 32q-6 26 -24 50q-15 23 -62 62v0v0zM298 916l58 -38q9 -6 4 -12q-1 -7 -20 -14q-15 -6 -42 -50q-23 -43 -58 -112l10 -6q15 -6 16 -12q1 -4 -28 -16v-150l146 76l12 -16l-158 -98v-373
q-4 -36 -26 -52q-21 -17 -60 -32q-8 36 -34 48q-25 11 -82 28l4 18q48 -9 84 -12q37 -2 50 4t12 30v309l-62 -40q-28 -24 -40 -44l-56 46l158 84v234l32 -16q35 90 52 156h-148q-21 -4 -48 -14l-22 40h218l28 34v0v0z" />
  </g>

</svg>
