<?xml version="1.0" standalone="no"?>
<!DOCTYPE svg PUBLIC "-//W3C//DTD SVG 1.1//EN" "http://www.w3.org/Graphics/SVG/1.1/DTD/svg11.dtd" >
<svg xmlns="http://www.w3.org/2000/svg" xmlns:xlink="http://www.w3.org/1999/xlink" version="1.1" viewBox="0 -36 256 256">
  <g transform="matrix(1 0 0 -1 0 220)">
   <path fill="currentColor"
d="M83 78q0 -24 1 -37l-14 -6v15h-40v-17l-14 -6q1 20 1 30v138q0 18 -1 35l14 -8h40l6 9l14 -13l-7 -6v-134zM30 167h40v48h-40v-48zM30 113h40v47h-40v-47zM30 57h40v49h-40v-49zM97 72.5q7 33.5 6.5 87.5t-1.5 78l14 -10h102l13 13l16 -20h-132v-101q-6 -72 -38 -110
l-3 3q16 26 23 59.5zM151 192v-23h7l9 6l11 -12h-27v-11q14 -7 19.5 -13t5 -12.5t-4 -9.5t-7 6.5t-13.5 22.5q0 -38 1 -53l-12 -7q1 25 1 50q-13 -28 -27 -40l-2 2q14 24 26 64h-11l-4 -3l-8 10h26v22q-6 -1 -21 -2v3q12 4 22 7.5t20 11.5l9 -15q-9 -2 -20 -4zM230 133.5
q9 -11.5 16 -17.5v-3q-8 2 -14 -7q-6 9 -12 23.5t-8 27.5q0 -45 1 -61l-12 -7q1 27 1 51q-16 -28 -33 -38l-2 2q17 18 32 59h-10l-5 -3l-8 10h26v24q-8 -1 -20 -3l-2 5q12 3 22.5 7t20.5 13l13 -17q-13 -1 -24 -3v-26h13l9 9l10 -16h-29q6 -18 15 -29.5zM173 108l20 -8
l-7 -8v-20h28l11 10l14 -17h-53v-40h33l14 11l15 -18h-121q-10 0 -18 -2l-9 9h33q0 41 -1 62l21 -9l-8 -6v-47h29q0 61 -1 83z" />
  </g>

</svg>
