<?xml version="1.0" standalone="no"?>
<!DOCTYPE svg PUBLIC "-//W3C//DTD SVG 1.1//EN" "http://www.w3.org/Graphics/SVG/1.1/DTD/svg11.dtd" >
<svg xmlns="http://www.w3.org/2000/svg" xmlns:xlink="http://www.w3.org/1999/xlink" version="1.1" viewBox="0 -205 1024 1024">
  <g transform="matrix(1 0 0 -1 0 819)">
   <path fill="currentColor"
d="M206 722h202l30 40l50 -48l4 -6q0 -10 -8 -10h-190q-21 0 -68 -8l-20 32v0v0zM124 628l46 -34h110l28 34l44 -34q9 -3 12 -12q-1 -6 -28 -24v-419q4 -45 -10 -66q-13 -19 -46 -30q-3 19 -20 32q-18 10 -50 22l4 16q32 -7 56 -8q22 0 20 32v161h-120v-134l4 -85
q0 -11 -20 -26q-19 -14 -34 -14l4 129v460v0v0zM170 322h120v114h-120v-114v0v0zM170 460h120v108h-120v-108v0v0zM402 578l66 -30q6 -4 6 -8q4 -9 -28 -20v-174l4 -96q-3 -15 -18 -26q-16 -10 -34 -8l4 118v244v0v0zM518 642l70 -30q3 -3 4 -6q6 -9 -30 -20v-444
q3 -43 -18 -65q-19 -24 -52 -34q-12 29 -32 42q-21 12 -60 26l4 16q70 -18 92 -12q21 4 22 20v507v0v0zM310 986q69 -29 72 -34t0 -10q-4 -5 -16 -10q-13 -3 -34 -20q138 -51 192 -78q52 -25 68 -52q15 -28 4 -46q-9 -19 -26 -16q-18 -1 -44 38q-25 35 -86 74
q-59 38 -118 64q-60 -83 -132 -160q-70 -75 -154 -140l-10 10q87 94 166 194q75 99 118 186v0v0zM894 942l62 -44q9 -6 10 -14q1 -4 -10 -10q-21 -7 -48 -46q-51 -103 -102 -196q88 -89 116 -136q27 -46 40 -88q13 -41 2 -82q-10 -41 -40 -70q-27 -27 -74 -48q-9 33 -32 48
q-23 14 -88 34l4 18q56 -11 82 -16q26 -4 52 2q26 5 38 38q10 30 6 64q-5 33 -28 84q-21 48 -108 148l100 244h-178v-704l4 -105q1 -13 -22 -30q-20 -16 -34 -14l4 151v774l62 -44h152l30 42v0v0z" />
  </g>

</svg>
