<?xml version="1.0" standalone="no"?>
<!DOCTYPE svg PUBLIC "-//W3C//DTD SVG 1.1//EN" "http://www.w3.org/Graphics/SVG/1.1/DTD/svg11.dtd" >
<svg xmlns="http://www.w3.org/2000/svg" xmlns:xlink="http://www.w3.org/1999/xlink" version="1.1" viewBox="0 -36 256 256">
  <g transform="matrix(1 0 0 -1 0 220)">
   <path fill="currentColor"
d="M68 180h19l7 9l14 -11l-7 -7v-53l1 -23l-13 -6v7h-54v-7l-13 -6q1 21 1 90q-5 -7 -13 -17l-2 3q18 30 27.5 53.5t10.5 33.5l19 -11q-5 -1 -16 -19h28l9 9l13 -13q-9 0 -31 -32zM31 184l7 -4h23l16 29h-30q-8 -12 -16 -25zM35 141h21v32h-21v-32zM68 141h21v32h-21v-32z
M35 103h21v31h-21v-31zM68 103h21v31h-21v-31zM30 44q-1 -8 -5 -11.5t-11.5 -3.5t1 12t12.5 34h4q0 -23 -1 -31zM45 78q15 -19 15.5 -28.5t-5.5 -15t-6.5 8.5t-6.5 34zM64 81q23 -17 23.5 -26t-5 -13.5t-7.5 5.5t-13 32zM86 87q19 -11 24 -18.5t0 -16.5t-8.5 2t-18.5 31z
M184 235q-2 -11 -3 -17q18 7 33 18l11 -15q-7 0 -12 -1.5t-33 -7.5l-2 -6q32 -6 44.5 -13.5t12.5 -18t-13.5 2t-44.5 24.5q-13 -30 -62 -37v3q40 15 48.5 33t7.5 47l18 -7zM126.5 201q-4.5 3 5 9.5t15.5 19.5l4 -1q-3 -26 -11.5 -28.5t-13 0.5zM172 188l20 -9l-6 -4
q-4 -14 -8 -22l13 -13q19 19 24 30l13 -14l-7 -2q-14 -8 -26 -17q17 -13 30 -17.5t23 -4.5v-4q-10 -1 -14 -11q-34 13 -58 46q-8 -18 -26 -30t-42 -15l-1 4q31 8 47.5 28.5t17.5 54.5zM130 149q11 6 17 20l3 -1q-3 -22 -8.5 -27t-14 -1.5t2.5 9.5zM153 105q-4 -4 -10 -14h18
l7 7l10 -13l-5 -4q-6 -25 -21.5 -42.5t-42.5 -30.5l-2 3q26 18 38.5 36t15.5 37h-20q-2 -3 -10 -16q10 -2 14 -6.5t0.5 -11t-6.5 0t-10 14.5q-9 -12 -17 -19l-2 3q24 42 28 64zM204 112l20 -10l-7 -5v-7h7l9 8l12 -15h-28v-31h6l9 8l13 -15h-28q0 -19 1 -33l-14 -5
q1 25 1 38h-19l-4 -4l-11 10q5 4 7 10t6 25h12l-9 -34h18v31h-13l-8 -3l-8 10h29q0 11 -1 22z" />
  </g>

</svg>
