<?xml version="1.0" standalone="no"?>
<!DOCTYPE svg PUBLIC "-//W3C//DTD SVG 1.1//EN" "http://www.w3.org/Graphics/SVG/1.1/DTD/svg11.dtd" >
<svg xmlns="http://www.w3.org/2000/svg" xmlns:xlink="http://www.w3.org/1999/xlink" version="1.1" viewBox="0 -36 256 256">
  <g transform="matrix(1 0 0 -1 0 220)">
   <path fill="currentColor"
d="M48 174v-12h56v12h-56zM34 151.5q0 22.5 -1 36.5l14 -7h16l3 17h-22q-9 -1 -18 -4l-9 11h92l11 11l13 -18h-53q-4 -7 -9 -17h33l8 9l13 -14l-7 -5v-27q0 -17 1 -31l-15 -6v7h-56v-8l-15 -6q1 29 1 51.5zM104 155h-56v-13h56v13zM104 135h-56v-14h56v14zM156 218h49l8 9
l13 -15l-7 -5v-22q0 -9 1 -23l-15 -6v10h-49v-36q0 -11 15 -11h30q13 0 14 7t1 25h5q1 -26 13 -30q-7 -15 -28 -14h-42q-23 1 -22 21v74q0 10 -1 25zM156 211v-38h49v38h-49zM139 110l-7 -3q14 -12 46.5 -22t69.5 -11v-4q-14 -1 -21 -12q-31 8 -58 19.5t-42 26.5
q-44 -39 -117 -52l-2 4q34 10 66.5 27.5t47.5 37.5zM122 40v33q0 4 -1 19l21 -8l-6 -6v-29q0 -15 1 -35l-16 -7q1 20 1 33zM89 202h-5q17 28 22 45l16 -15q-11 -6 -33 -30zM37 242l3 2q33 -16 25 -30t-12.5 1t-15.5 27z" />
  </g>

</svg>
