<?xml version="1.0" standalone="no"?>
<!DOCTYPE svg PUBLIC "-//W3C//DTD SVG 1.1//EN" "http://www.w3.org/Graphics/SVG/1.1/DTD/svg11.dtd" >
<svg xmlns="http://www.w3.org/2000/svg" xmlns:xlink="http://www.w3.org/1999/xlink" version="1.1" viewBox="0 -36 256 256">
  <g transform="matrix(1 0 0 -1 0 220)">
   <path fill="currentColor"
d="M112 138q22 -10 29 -19t-5 -20h65l16 15l20 -22h-182q-7 0 -16 -2l-9 9h97q-2 21 -17 36zM169 92l23 -15l-10 -4q-19 -32 -30 -46h54l17 17l21 -24h-204q-10 0 -19 -2l-9 9h133q19 36 24 65zM77 90q19 -15 29.5 -27.5t0.5 -25.5t-12.5 4t-20.5 47zM135 145h56v37h-56v-37
zM205 165q0 -26 1 -34l-15 -6v13h-125v-11l-15 -6q1 29 1 66.5t-1 50.5l15 -8h123l9 8l15 -12l-8 -6v-55zM66 189h55v34h-55v-34zM135 189h56v34h-56v-34zM66 145h55v37h-55v-37z" />
  </g>

</svg>
