<?xml version="1.0" standalone="no"?>
<!DOCTYPE svg PUBLIC "-//W3C//DTD SVG 1.1//EN" "http://www.w3.org/Graphics/SVG/1.1/DTD/svg11.dtd" >
<svg xmlns="http://www.w3.org/2000/svg" xmlns:xlink="http://www.w3.org/1999/xlink" version="1.1" viewBox="0 -205 1024 1024">
  <g transform="matrix(1 0 0 -1 0 819)">
   <path fill="currentColor"
d="M730 948q9 -3 6 -12q0 -3 -6 -6l-26 -12v-82h126l34 42l54 -50q3 -3 4 -6q0 -12 -12 -12h-206v-102h176l34 42l56 -50q3 -3 4 -6q0 -12 -14 -12h-500q-27 -1 -42 -10l-24 36h260v102h-126q-18 0 -66 -8l-18 34h210v144l76 -32v0v0zM866 652q9 -3 6 -12q0 -3 -6 -6l-20 -8
v-42h48l34 42l52 -50q3 -3 4 -6q0 -12 -12 -12h-126v-114h70l34 42l52 -50q3 -3 4 -6q0 -12 -14 -12h-264q-18 0 -60 -8l-18 34h146v114h-42q-18 0 -48 -8l-18 34h108v90l70 -22v0v0zM578 650q9 -3 6 -12q0 -3 -6 -6l-20 -8v-38h42l34 38l46 -46q3 -3 4 -6q0 -12 -12 -12
h-114v-106l114 26l4 -18q-145 -45 -188 -62q-42 -16 -66 -40l-34 56l120 28v116h-80q-15 0 -36 -8l-18 34h134v88l70 -24v0v0zM784 304v-158q0 -37 10 -47q9 -7 36 -8h74q20 1 32 10q9 9 12 38q4 28 8 109h18q2 -81 8 -104q6 -22 28 -37q-9 -38 -36 -50q-24 -9 -72 -10h-102
q-37 1 -52 20t-14 62v175h-120q0 -82 -30 -142q-27 -56 -98 -93q-69 -35 -164 -50l-4 16q92 25 148 62q54 37 76 85q20 47 22 122h-134q-12 0 -30 -6l-24 34h518l36 42q62 -54 62 -62q-1 -7 -10 -8h-198v0v0zM318 932l60 -50q9 -6 10 -12q0 -6 -18 -12q-20 -3 -34 -24
q-43 -97 -86 -200q40 -48 74 -92q33 -46 42 -82q8 -37 8 -64q-1 -25 -10 -44t-30 -40q-18 -22 -66 -34q-11 38 -34 50q-21 9 -50 22l4 18q21 -6 48 -12t48 -2q20 3 32 28q9 21 4 60q-6 39 -26 78q-18 39 -72 112l68 238h-130v-731l4 -90q0 -15 -20 -30q-18 -12 -36 -12
l4 130v807l46 -46h128l32 34v0v0z" />
  </g>

</svg>
