<?xml version="1.0" standalone="no"?>
<!DOCTYPE svg PUBLIC "-//W3C//DTD SVG 1.1//EN" "http://www.w3.org/Graphics/SVG/1.1/DTD/svg11.dtd" >
<svg xmlns="http://www.w3.org/2000/svg" xmlns:xlink="http://www.w3.org/1999/xlink" version="1.1" viewBox="0 -154 1024 1024">
  <g transform="matrix(1 0 0 -1 0 870)">
   <path fill="currentColor"
d="M344 306l8 10q101 -72 124 -119q23 -48 3 -73q-28 -40 -44 21q-3 18 -9 35q-191 -48 -226 -60q-38 -12 -62 -38l-44 55q23 4 42 20q74 111 87 152q10 26 5 41l1 1h-84q-27 1 -45 -13l-34 33h116v319q2 11 -4 23q-70 -81 -150 -139l-10 10q206 216 268 385q-5 9 -15 23
l10 10l87 -36q6 -9 -3 -11q-17 -4 -29 -16q-11 -19 -21 -37q48 -16 103 -40q77 -37 99 -75q20 -38 -2 -51q-24 -14 -47 24q-25 39 -77 76q-35 26 -86 50q-48 -80 -110 -154l22 -18h165l32 40l68 -48q17 -12 -6 -12h-248v-99h114l32 40l68 -44q17 -12 -6 -12h-208v-96h128
l32 40l68 -44q17 -12 -6 -12h-222v-96h180l32 40l68 -50q17 -10 -6 -10h-254l59 -30q8 -8 -6 -10q-13 0 -34 -14q-14 -32 -106 -152q106 24 258 54q-25 57 -75 107zM1002 72v-16q-43 5 -63 2q-21 -2 -40 -20q-64 71 -110 177t-83 280q-19 -186 -91 -300q-72 -113 -207 -177
l-8 13q133 90 196 219q64 129 79 381q-6 19 -26 34l8 13l106 -37q9 -6 0 -11q-19 -4 -43 -26q-3 -21 -4 -41q61 -239 128 -351q66 -111 158 -140zM604 1004l103 -46q16 -12 7 -15q-22 0 -49 -19q-27 -93 -55 -167h258l39 44l74 -71q4 -12 -14 -9q-22 -3 -36 -6
q-14 -4 -32 -34q-33 -50 -64 -93l-14 12q31 65 61 137h-280q-62 -157 -134 -229l-8 11q78 134 119 278q40 145 34 162t-17 32z" />
  </g>

</svg>
