<?xml version="1.0" standalone="no"?>
<!DOCTYPE svg PUBLIC "-//W3C//DTD SVG 1.1//EN" "http://www.w3.org/Graphics/SVG/1.1/DTD/svg11.dtd" >
<svg xmlns="http://www.w3.org/2000/svg" xmlns:xlink="http://www.w3.org/1999/xlink" version="1.1" viewBox="0 -144 1024 1024">
  <g transform="matrix(1 0 0 -1 0 880)">
   <path fill="currentColor"
d="M465 594l64 -11l16 -11l-16 -9v-50h311l44 49l54 -49v-21h-409v-74h248l32 26l59 -48l-27 -22v-181l-64 -32v43h-248v-81h317l54 54l65 -54v-21h-436v-62l-64 -33v95h-436v21h436v81h-248v-16l-64 -32v294l64 -32h248v74h-409v21h409v81zM465 300h-248v-74h248v74z
M777 300h-248v-74h248v74zM465 396h-248v-74h248v74zM777 396h-248v-74h248v74zM51 621l-1 5l34 4l37 6l10 1v250l65 -10l16 -11l-16 -10v-209l86 14v306l64 -10l17 -11l-17 -10v-107h69l44 48l54 -48v-22h-167v-135l128 21l64 9l3 -9l-176 -54l-149 -40l-121 -29l-12 -3
l-9 -18l-13 14l-1 7l-1 2l-1 7v4l-1 1v4l-2 11l-2 12v1l-2 7v2zM50 626l11 -63l-21 61zM567 967l64 -10l17 -11l-17 -10v-143l99 41l76 37l43 24l15 10l5 2l9 -16l33 -34l2 -17l-20 8l-40 -17l-26 -10l-27 -9l-28 -8l-60 -16l-32 -6l-34 -5l-15 -2v-87l1 -4v-4l2 -2v-1l1 -1
l6 -3l5 -1l7 -1h246l28 113h11l-10 -113l17 -12l12 -17l-12 -18l-18 -12h-274l-14 1l-13 1l-13 5l-12 5l-10 9l-10 11l-6 12l-5 12l-3 13v14v272z" />
  </g>

</svg>
