<?xml version="1.0" standalone="no"?>
<!DOCTYPE svg PUBLIC "-//W3C//DTD SVG 1.1//EN" "http://www.w3.org/Graphics/SVG/1.1/DTD/svg11.dtd" >
<svg xmlns="http://www.w3.org/2000/svg" xmlns:xlink="http://www.w3.org/1999/xlink" version="1.1" viewBox="0 -140 1000 1000">
  <g transform="matrix(1 0 0 -1 0 860)">
   <path fill="currentColor"
d="M49 768v23h163l-1 163l55 -11q40 -7 40 -22q0 -9 -38 -21l7 1v-110h124l28 27v1q3 1 9 7q8 9 17 9t26 -14l47 -40l-7 -13h-241q18 -12 18 -17q0 -7 -29 -13l8 1v-75h73q33 29 45 29q10 0 21 -11q-2 2 -1 2l33 -31q16 -15 16 -21q0 -7 -20 -15q-5 0 -15 -5l7 1v-279
q0 -52 -4 -64t-27 -22l1 1q-8 -5 -12 -5h3q-4 -2 -36 -10h1q-10 -3 -16 -3q-12 0 -16 3t-4 11q0 19 -5 24l-44 13v-155q0 -28 -2 -38q-4 -8 -16.5 -16t-28.5 -8t-16 20v557h-75v-378q0 -9 -6 -15l2 1q-18 -18 -41 -18q-13 0 -15.5 9t-2.5 49v372l-6 48l70 -46h74v104h-163z
M447 447v22h151v88l-1 55l61 -18q31 -7 31 -17q0 -8 -35 -22l7 1v-430h87l-2 473l67 -17q26 -8 26 -13q0 -7 -34 -24l6 1v-77h54l16 28l2 2l-2 -1q6 14 23 14q8 0 22 -12l42 -37l-10 -16h-147v-94h46l25 35q0 11 17 11q12 0 22 -10l42 -41l-7 -17h-145v-88h55l21 31q3 3 4 6
q8 8 17 8q11 0 24 -13l39 -38l-9 -16h-151v-95l56 -1l30 34l2 1q0 2 2.5 4.5t8.5 4.5t13 2q0 -1 4 -1l12 -13h-1l47 -36l-5 -18h-529v23h147v95h-140v22h140v88h-138v22h138v94h-151zM871 888l14 17v-1q1 1 11 6h-5q5 5 16 5q12 0 21 -11h-1q33 -33 33 -43q0 -6 -38 -15h6
q-55 -67 -166 -142q59 -44 102 -62.5t95 -23.5l-4 -12q-16 -2 -24.5 -7.5t-9.5 -9.5t-1 -11q0 -8 -12 -8t-32 11q-69 37 -89.5 50.5t-61.5 50.5q-117 -72 -265 -102l-13 18q130 32 250 110q-89 112 -108 157h-88v23h370zM371 348l1 294h-97v-344l76 -7q9 0 17 5q3 2 3 52z
M870 865h-240q41 -75 102 -131q88 59 138 131zM435 615q1 1 1.5 0.5t-0.5 -1.5zM437 616l5 1l-1 -1h-4zM881 497l-1 -1zM881 387l-1 -1zM885 905v1h1z" />
  </g>

</svg>
