<?xml version="1.0" standalone="no"?>
<!DOCTYPE svg PUBLIC "-//W3C//DTD SVG 1.1//EN" "http://www.w3.org/Graphics/SVG/1.1/DTD/svg11.dtd" >
<svg xmlns="http://www.w3.org/2000/svg" xmlns:xlink="http://www.w3.org/1999/xlink" version="1.1" viewBox="0 -200 1000 1000">
  <g transform="matrix(1 0 0 -1 0 800)">
   <path fill="currentColor"
d="M407 590l5 -15l-160 -83v-366q6 -67 -82 -88q-4 34 -35 45q-30 12 -69 23l2 16l46 -12q57 -11 73 -2q20 8 20 45v315l-110 -57q-9 -6 -33 -35l-38 55l181 75v219h-98q-26 1 -44 -13l-33 33h175v177q-2 24 -27 45l8 11l88 -38q9 -3 11 -6q1 -4 -4 -7q-18 -5 -31 -16v-166
h41l28 44l73 -51q10 -7 8 -11q-3 -3 -19 -2h-131v-200zM480 722q-24 1 -44 -12l-33 32h196q3 30 5 62q2 31 1 92v27q-2 17 -29 36l9 15l92 -35q8 -2 10 -5q1 -2 -4 -6q-16 -4 -33 -20v-34q1 -42 0 -70q-1 -12 -2 -34q-2 -19 -2 -28h178l31 39l67 -49q7 -5 6 -8q-1 -2 -12 -2
h-255q11 -53 43 -137q52 -139 134 -228q50 -57 129 -78l-2 -13h-9q-56 7 -71 -19q-130 103 -203 304q-23 63 -40 154q-24 -325 -328 -477l-7 16q269 162 290 478h-117zM316 132h551l33 45l72 -51q11 -8 8 -12q-2 -3 -19 -2h-567q-25 1 -44 -12z" />
  </g>

</svg>
