<?xml version="1.0" standalone="no"?>
<!DOCTYPE svg PUBLIC "-//W3C//DTD SVG 1.1//EN" "http://www.w3.org/Graphics/SVG/1.1/DTD/svg11.dtd" >
<svg xmlns="http://www.w3.org/2000/svg" xmlns:xlink="http://www.w3.org/1999/xlink" version="1.1" viewBox="0 -36 256 256">
  <g transform="matrix(1 0 0 -1 0 220)">
   <path fill="currentColor"
d="M116 139l21 -9l-7 -6v-26h31v62h-26q-10 0 -19 -2l-9 9h104l12 10l15 -17h-63v-28h28l12 11l15 -18h-55v-27h40l7 10l15 -12l-7 -6q0 -32 -2.5 -48.5t-12 -22.5t-20.5 -8q-1 12 -33 18v4q29 -3 36 -3t12.5 5t5.5 56h-85l-7 -7l-12 10l5 6q0 10 -1 39zM178 226q7 -7 0 -17
t-10.5 3t-15.5 29l3 2q16 -10 23 -17zM224 198h-102q0 -14 -5 -18.5t-11.5 -2.5t1 11t11.5 27h4v-10h102l7 9l15 -15q-7 -2 -13.5 -8t-14.5 -15l-3 2zM51 244l22 -9l-9 -7q-3 -25 -6 -49h25l8 10l15 -13l-8 -6q-4 -63 -18 -93q16 -11 23.5 -19t4.5 -19.5t-12.5 3.5t-21.5 24
q-22 -32 -65 -55l-2 4q38 28 57 58q-8 6 -37 20q10 35 16 79q-7 1 -18 -2l-9 9h28q5 35 7 65zM57 172q-7 -39 -15 -76q15 -7 26 -13q13 27 17 89h-28z" />
  </g>

</svg>
