<?xml version="1.0" standalone="no"?>
<!DOCTYPE svg PUBLIC "-//W3C//DTD SVG 1.1//EN" "http://www.w3.org/Graphics/SVG/1.1/DTD/svg11.dtd" >
<svg xmlns="http://www.w3.org/2000/svg" xmlns:xlink="http://www.w3.org/1999/xlink" version="1.1" viewBox="0 -200 1000 1000">
  <g transform="matrix(1 0 0 -1 0 800)">
   <path fill="currentColor"
d="M596 622l-6 -2q-2 -95 -8 -162.5t-18 -119t-32 -94t-49 -86.5l-2 3q13 37 22.5 72t16.5 74t12 84.5t7.5 103t3.5 130.5t1 167q14 0 28.5 -7t31.5 -19q54 20 98 52.5t67 74.5q18 -7 34.5 -20t23.5 -27h-23q-26 -29 -77 -50.5t-114 -35.5l8 -6l-30 -20v-52t-1 -48h157
l31 40q17 -11 32.5 -31t21.5 -43l-28 -17q-15 -69 -38 -127.5t-52 -112.5q40 -72 87 -121.5t99 -63.5v-6q-20 -5 -35.5 -14.5t-29.5 -24.5q-38 33 -73.5 83t-65.5 116q-38 -63 -82 -110.5t-90 -78.5l-3 3q42 37 82 95.5t73 136.5q-22 57 -39.5 121.5t-28.5 139.5l5 3h-17z
M100 792q17 0 34 -8.5t37 -23.5h57l32 41q17 -6 32.5 -17.5t21.5 -23.5l-29 -29v-427q-23 -24 -46 -24v42h-92v-18q-23 -24 -47 -24v512zM406 907q17 0 35.5 -10t41.5 -27l-30 -20v-170l17 23q22 -9 35.5 -23.5t18.5 -23.5h-71v-171l51 22v-12l-51 -39v-300
q0 -18 -15.5 -32.5t-32.5 -14.5q0 9 -18 35t-50 52l6 5q20 -16 33 -21.5t20 -5.5q10 0 10 5v242l-63 -47q-2 2 -12 13t-21 50l16 -5l80 33v191h-46l-17 -4l-12 16h75v239zM147 334h92v415h-69l-23 -15v-400zM613 622q14 -63 33 -121t44 -110q20 52 35.5 109.5t26.5 121.5
h-139z" />
  </g>

</svg>
