<?xml version="1.0" standalone="no"?>
<!DOCTYPE svg PUBLIC "-//W3C//DTD SVG 1.1//EN" "http://www.w3.org/Graphics/SVG/1.1/DTD/svg11.dtd" >
<svg xmlns="http://www.w3.org/2000/svg" xmlns:xlink="http://www.w3.org/1999/xlink" version="1.1" viewBox="0 -205 1024 1024">
  <g transform="matrix(1 0 0 -1 0 819)">
   <path fill="currentColor"
d="M136 614h668l36 40l56 -48q3 -3 4 -6q0 -12 -12 -12h-238v-86h122l28 36l58 -34q6 -6 6 -8q1 -6 -22 -26v-82l4 -52q-1 -10 -22 -22q-19 -10 -34 -10v38h-544v-16q0 -11 -20 -22q-18 -10 -36 -10l4 94v150l48 -36h154v86h-176q-21 0 -68 -8l-16 34v0v0zM246 368h150v108
h-150v-108v0v0zM444 368h156v108h-156v-108v0v0zM650 368h140v108h-140v-108v0v0zM600 502v86h-156v-86h156v0v0zM478 316q12 -8 0 -16q-18 -2 -30 -10q-10 -7 -28 -22h486l40 44l54 -50q5 -4 8 -10q2 -10 -10 -10h-276q-70 -79 -100 -94q111 -15 178 -33q64 -17 86 -34
t20 -38q0 -20 -18 -22q-16 -2 -46 16q-30 16 -92 38q-64 22 -172 44q-95 -52 -244 -74q-150 -24 -282 -22v16q129 11 258 34q129 24 210 62q-184 29 -250 39l66 68h-204q-45 1 -62 -10l-22 36h310q26 27 58 64l62 -16v0v0zM338 188q75 -10 226 -28q38 20 92 82h-262
q-25 -24 -56 -54v0v0zM220 994l56 -28h476l24 26l56 -24q12 -6 12 -14q0 -4 -32 -26v-70l4 -68q1 -13 -16 -22q-15 -9 -38 -12v32h-492v-20q0 -13 -20 -22q-19 -10 -34 -10l4 106v152v0v0zM270 814h492v126h-492v-126v0v0zM54 638q123 36 324 126l48 -40q9 -7 -2 -16h-38
q-15 -1 -108 -32q-93 -30 -218 -56l-6 18v0v0zM620 740l6 16q141 -15 220 -32q75 -15 106 -36q27 -21 22 -42q-5 -22 -22 -22q-15 0 -44 18q-30 17 -92 44q-61 27 -196 54v0v0z" />
  </g>

</svg>
