<?xml version="1.0" standalone="no"?>
<!DOCTYPE svg PUBLIC "-//W3C//DTD SVG 1.1//EN" "http://www.w3.org/Graphics/SVG/1.1/DTD/svg11.dtd" >
<svg xmlns="http://www.w3.org/2000/svg" xmlns:xlink="http://www.w3.org/1999/xlink" version="1.1" viewBox="0 -36 256 256">
  <g transform="matrix(1 0 0 -1 0 220)">
   <path fill="currentColor"
d="M170 218h-20q-10 0 -19 -2l-9 9h97l14 11l14 -18h-72l13 -6q-8 -4 -17 -26h47l7 10l14 -14l-8 -6v-74q0 -15 1 -32l-14 -6v9h-67v-4l-14 -6q1 23 1 60t-1 71l12 -8h18q3 25 3 32zM151 151h67v28h-67v-28zM151 116h67v28h-67v-28zM151 80h67v29h-67v-29zM157 40
q-13 -13 -40 -29l-2 3q20 16 31 31t15 24l15 -16q-6 0 -19 -13zM199 65q32 -22 37.5 -30t0 -18t-11 4.5t-29.5 41.5zM111 221q8 -8 3 -20t-11 4.5t-21 30.5l2 3q19 -10 27 -18zM61 139q-5 -30 -16.5 -61.5t-33.5 -56.5l-3 3q20 32 31 72.5t14 84.5h-15l-8 -2l-9 9h33
q1 31 0 58l20 -10l-5 -6q-1 -22 -2 -42h47l9 11l13 -18h-70q-1 -17 -5 -42zM124 33q-5 -13 -10.5 2t-16.5 34q-17 -33 -52 -61l-3 3q31 33 47 67q-5 11 -31 42l2 2q23 -22 34 -34q9 28 12 54h-47v7h48l6 9l13 -11l-7 -6q-6 -37 -17 -62q27 -33 22 -46z" />
  </g>

</svg>
