<?xml version="1.0" standalone="no"?>
<!DOCTYPE svg PUBLIC "-//W3C//DTD SVG 1.1//EN" "http://www.w3.org/Graphics/SVG/1.1/DTD/svg11.dtd" >
<svg xmlns="http://www.w3.org/2000/svg" xmlns:xlink="http://www.w3.org/1999/xlink" version="1.1" viewBox="0 -36 256 256">
  <g transform="matrix(1 0 0 -1 0 220)">
   <path fill="currentColor"
d="M126 144l-3 2q10 19 18.5 46.5t12.5 52.5l19 -9l-6 -6q-6 -16 -12 -30h63l10 10l16 -17h-42v-43h11l10 10l16 -17h-37v-44h12l10 11l16 -18h-38v-50h15l12 13l18 -20h-91v-19l-13 -7q1 23 1 54v110q-7 -15 -18 -29zM156 193v-43h33v43h-33zM156 99h33v44h-33v-44zM156 42
h33v50h-33v-50zM184 245q17 -9 22 -16.5t-0.5 -18t-8.5 3t-15 29.5zM100 197l-13 -7v26q0 12 -1 28l20 -7l-7 -7v-14h13l9 10l16 -17h-38q0 -4 1 -12zM26 160q0 17 -1 30l14 -6h69l5 8l13 -10l-6 -7q0 -24 1 -36l-13 -5v5h-70v-3l-13 -6q1 13 1 30zM38 146h17v31h-17v-31z
M66 146h16v31h-16v-31zM93 146h15v31h-15v-31zM20 41.5q4 14.5 5 34t0 40.5l13 -6h38q-1 18 -2 27l19 -8l-6 -5q0 -8 1 -14h20l10 10l16 -17h-46q3 -29 7 -38q10 16 16 29l14 -11q-5 -2 -10.5 -10t-14.5 -20q9 -14 18 -20l9 28l5 -2q-3 -15 -3 -25.5t1 -17t-12.5 0.5
t-26.5 27q-13 -13 -43 -30l-2 4q24 16 40 36q-4 12 -6 22t-4 27h-38q0 -40 -7 -58.5t-21 -33.5l-2 2q8 14 12 28.5zM112.5 127q4.5 -5 -0.5 -11.5t-7.5 1t-11.5 20.5l2 2q13 -7 17.5 -12zM67 67.5q4 -6.5 -1 -15t-8.5 2.5t-15.5 26l1 3q20 -10 24 -16.5zM65 209v-13l-13 -7
q1 10 1 20h-7q-16 0 -25 -2l-9 9h41q0 21 -1 29l19 -7l-6 -6v-23z" />
  </g>

</svg>
