<?xml version="1.0" standalone="no"?>
<!DOCTYPE svg PUBLIC "-//W3C//DTD SVG 1.1//EN" "http://www.w3.org/Graphics/SVG/1.1/DTD/svg11.dtd" >
<svg xmlns="http://www.w3.org/2000/svg" xmlns:xlink="http://www.w3.org/1999/xlink" version="1.1" viewBox="0 -36 256 256">
  <g transform="matrix(1 0 0 -1 0 220)">
   <path fill="currentColor"
d="M161 232q-32 -25 -50 -37q33 1 64 2q18 11 30 24l16 -15l-10 -2q-44 -27 -98 -49q44 2 92 5q-8 8 -25 19l3 3q41 -15 46.5 -24t0.5 -16.5t-10 -1t-11 12.5q-87 -5 -115 -14l-8 16q11 1 29 9t51 27q-52 -6 -68 -10l-6 17q11 -1 29 15.5t30 34.5l19 -14zM136 149l18 -11
l-9 -3q-6 -6 -12 -11h64l10 8l13 -14l-11 -5q-12 -18 -32 -35q35 -23 69 -24v-4q-17 -1 -25 -13q-31 12 -56 32q-29 -18 -86 -27l-1 4q48 13 77 33q-20 21 -30 38l3 2q22 -23 38 -33q17 15 29 31h-68q-20 -17 -45 -26l-1 3q41 28 55 55zM35 239q26 -17 30 -26t-3.5 -20
t-10.5 5.5t-18 36.5zM48 153l8 10l15 -13l-8 -7v-83q15 -16 32 -22.5t62.5 -7.5t90.5 5v-5q-18 -4 -19 -16q-81 0 -107 4.5t-39.5 14t-20.5 17t-18.5 -4t-19.5 -24.5l-15 13q13 11 40 26v86h-10q-10 -1 -20 -3l-10 10h39z" />
  </g>

</svg>
