<?xml version="1.0" standalone="no"?>
<!DOCTYPE svg PUBLIC "-//W3C//DTD SVG 1.1//EN" "http://www.w3.org/Graphics/SVG/1.1/DTD/svg11.dtd" >
<svg xmlns="http://www.w3.org/2000/svg" xmlns:xlink="http://www.w3.org/1999/xlink" version="1.1" viewBox="0 -36 256 256">
  <g transform="matrix(1 0 0 -1 0 220)">
   <path fill="currentColor"
d="M118 105q7 10 16.5 29.5t17.5 50.5l20 -12l-10 -4q-4 -10 -10 -22h59l9 11l17 -14l-9 -7q-2 -75 -5.5 -93.5t-12.5 -26t-24 -10.5q1 15 -31 18v6q30 -4 41 -3t14 21.5t5 90.5h-66q-9 -18 -28 -37zM78 167q31 -9 36.5 -14.5t2 -16.5t-13.5 4t-26 23q-27 -39 -63 -58l-2 3
q23 18 38 38.5t23 39.5l14 -11zM56.5 57q8.5 -8 2 -18t-12 3.5t-20.5 26.5l2 3q20 -7 28.5 -15zM122 66l-8 -3q-10 -12 -24 -23l-5 1q19 23 22 37zM127 39v-4q-75 -15 -101 -23l-9 16q21 0 52 3v50h-9q-13 1 -25 -2l-10 9h44v28l-1 -1q-8 0 -19 -2l-10 9h56l11 7l14 -14h-39
v-27h16l12 7l16 -14h-44v-48zM176 111l11 9l13 -16h-50q-3 0 -9 -3l-7 10h42zM176 70l12 9l15 -16h-58q-4 1 -9 -2l-7 9h47zM69 231l-11 -18h53l12 12l15 -19h-51q20 -10 21 -18.5t-5.5 -15.5t-9.5 7t-14 27h-25q-17 -25 -37 -44l-4 3q16 21 26.5 39.5t17.5 43.5l24 -14z
M173 230l-12 -18h57l12 12l14 -19h-61q15 -8 19 -13.5t3.5 -12t-6 -9t-8.5 8.5t-16 26h-18q-13 -15 -30 -32l-3 3q20 29 27 44.5t10 26.5l22 -14z" />
  </g>

</svg>
