<?xml version="1.0" standalone="no"?>
<!DOCTYPE svg PUBLIC "-//W3C//DTD SVG 1.1//EN" "http://www.w3.org/Graphics/SVG/1.1/DTD/svg11.dtd" >
<svg xmlns="http://www.w3.org/2000/svg" xmlns:xlink="http://www.w3.org/1999/xlink" version="1.1" viewBox="0 -36 256 256">
  <g transform="matrix(1 0 0 -1 0 220)">
   <path fill="currentColor"
d="M213 228h-79h-7q-10 -1 -19 -3l-10 10h88l13 9zM239 203h-85l8 -5l-10 -4q-17 -11 -39 -22l87 4q-3 7 -21 20l2 3q47 -23 40.5 -35t-10.5 -4.5t-8 10.5q-62 -4 -104 -12l-10 13q12 1 26 11t25 21h-37q-10 0 -19 -2l-9 9h135l13 9zM107 117h37v20h-37v-20zM157 117h43v20
h-43v-20zM213 83l-13 -4v4h-34v-48q0 -9 12 -9h42q8 1 10 9t2 18h4q0 -10 2 -16t10 -9q-4 -8 -9.5 -10.5t-15.5 -2.5h-52q-17 0 -18 15v53h-8q-5 -29 -25.5 -47.5t-53.5 -25.5l-1 4q32 12 48.5 30.5t17.5 38.5h-24v-4l-14 -4q1 16 1 36t-1 39l14 -6h16q12 18 11 22l17 -9
l-9 -2l-13 -11h69l9 8l13 -11l-8 -5q0 -31 1 -53zM107 90h37v20h-37v-20zM157 90h43v20h-43v-20zM212 50q-2 5 -6 11l3 2q15 -12 15.5 -17t-3.5 -8.5t-5.5 1l-2.5 7.5q-29 -5 -35 -12l-9 13q5 3 11.5 11.5t10.5 19.5l16 -9l-8 -4l-21 -18zM32.5 141.5q-2.5 -8.5 -11 -11
t-10.5 1.5t6 13t13 42h4q1 -37 -1.5 -45.5zM44 246l22 -13l-8 -9v-171q0 -22 1 -36l-15 -10q1 36 1 58v127q0 29 -1 54zM81.5 178.5q5.5 -7.5 3.5 -15t-7.5 -10t-7 11t-9.5 32.5l3 2q12 -13 17.5 -20.5z" />
  </g>

</svg>
