<?xml version="1.0" standalone="no"?>
<!DOCTYPE svg PUBLIC "-//W3C//DTD SVG 1.1//EN" "http://www.w3.org/Graphics/SVG/1.1/DTD/svg11.dtd" >
<svg xmlns="http://www.w3.org/2000/svg" xmlns:xlink="http://www.w3.org/1999/xlink" version="1.1" viewBox="0 -36 256 256">
  <g transform="matrix(1 0 0 -1 0 220)">
   <path fill="currentColor"
d="M221 210h-123q0 -13 -5.5 -19.5t-13 -3.5t2 12.5t12.5 27.5h4v-10h58q-3 15 -15 27l2 3q17 -7 23 -14t-5 -16h59l8 10l17 -14q-6 -2 -13 -6.5t-16 -16.5l-4 1zM131 180q-11 -1 -20 -3l-11 10h96l7 10l16 -13l-9 -7v-12h3l9 9l11 -16h-23q0 -11 1 -24l-15 -5v7h-59
q-17 -1 -26 -3l-11 10h96v15h-87q-12 0 -21 -2l-9 9h117v15h-65zM91 128h4v-8h128l7 8l16 -14q-11 -4 -30 -22l6 -4l-5 -6v-38q0 -15 -17 -19q-4 12 -22 15v4q16 -1 20.5 -1t4.5 5v35h-37q0 -52 1 -69l-15 -7q1 17 1 76h-38v-53l-14 -6q1 17 1 35.5t-1 36.5l15 -6h37v23h-58
q0 -13 -6 -18.5t-14 -3t2.5 11t13.5 25.5zM172 106l-6 -6v-10h36l5 8l6 -3l11 18h-67zM62 218.5q8 -7.5 2.5 -18.5t-10.5 1.5t-22 30.5l1 3q21 -9 29 -16.5zM13 176q31 -11 33 -20.5t-3.5 -15t-9.5 5.5t-21 27zM40 81.5q6 3.5 33 107.5l4 -2q-19 -86 -23.5 -109.5
t-3.5 -47.5t-10 -15.5t-7 22t4 24t-22 15.5v4q19 -2 25 1.5z" />
  </g>

</svg>
