<?xml version="1.0" standalone="no"?>
<!DOCTYPE svg PUBLIC "-//W3C//DTD SVG 1.1//EN" "http://www.w3.org/Graphics/SVG/1.1/DTD/svg11.dtd" >
<svg xmlns="http://www.w3.org/2000/svg" xmlns:xlink="http://www.w3.org/1999/xlink" version="1.1" viewBox="0 -36 256 256">
  <g transform="matrix(1 0 0 -1 0 220)">
   <path fill="currentColor"
d="M99 79l1 -5q-80 -39 -80 -46l-11 19q25 7 37 13v73h-6q-10 0 -19 -2l-9 9h34v67h-9q-10 0 -19 -2l-9 9h63l13 12l17 -19h-43v-67h12l11 14l15 -21h-38v-68zM119 63v102q-7 -14 -23 -34l-5 3q31 57 44 109l23 -13l-10 -7q-11 -19 -20 -39l11 -9l-7 -6v-132q0 -9 1 -23
l-15 -7q1 28 1 56zM196 242l21 -9l-7 -8v-55h11l11 13l15 -20h-37v-124q0 -16 -4.5 -22t-20.5 -11q-1 7 -4.5 11t-20.5 9v5q23 -2 30 -1.5t7 11.5v122h-25q-10 0 -19 -2l-9 9h53q0 45 -1 72zM175 110q5 -10 -0.5 -20.5t-9 4t-15.5 33.5l2 2q18 -9 23 -19z" />
  </g>

</svg>
