<?xml version="1.0" standalone="no"?>
<!DOCTYPE svg PUBLIC "-//W3C//DTD SVG 1.1//EN" "http://www.w3.org/Graphics/SVG/1.1/DTD/svg11.dtd" >
<svg xmlns="http://www.w3.org/2000/svg" xmlns:xlink="http://www.w3.org/1999/xlink" version="1.1" viewBox="0 -36 256 256">
  <g transform="matrix(1 0 0 -1 0 220)">
   <path fill="currentColor"
d="M232 49q0 -18 1 -32l-15 -7v11h-83v-8l-14 -5q1 25 1 55.5t-1 51.5l14 -9h27q8 20 9 33l18 -12q-8 -2 -21 -21h50l7 11l14 -13l-7 -7v-48zM135 68h83v31h-83v-31zM135 28h83v33h-83v-33zM183 218q18 -9 22.5 -15t-0.5 -14t-10 4.5t-14 21.5zM116 217q17 -7 22.5 -12
t0.5 -14.5t-9 2t-15 21.5zM119 147l-14 13q15 4 50 25v41h-19q-10 0 -19 -2l-9 9h45l9 10l13 -13l-7 -6v-81q0 -8 -4.5 -13t-17.5 -8q-2 7 -7 11t-13 7v3q15 -3 22 -3t7 6v32q-26 -15 -36 -31zM186 149l-13 14q15 4 50 26v38h-17q-10 0 -20 -2l-9 9h44l9 10l13 -13l-7 -6
v-83q0 -8 -5.5 -13t-12.5 -7q-5 14 -24 18v4q19 -3 24 -2.5t5 7.5v34q-33 -26 -37 -34zM33 59.5q-4 15.5 -16 36.5l2 3q16 -13 24.5 -23t1 -21t-11.5 4.5zM91 167l16 -18h-37v-29h14l13 10l14 -17h-41v-53q10 13 25 47l15 -15l-9 -6q-13 -14 -31 -33v-10l45 10v-4
q-62 -20 -89 -32l-11 17q17 2 42 8v71h-13q-12 0 -21 -2l-9 9h43v29h-8q-4 0 -10 -2l-6 5q-11 -14 -22 -24l-3 2q34 54 53 117l18 -11l-6 -5q-4 -8 -6 -13q23 -8 33 -14t6 -18.5t-12 0t-28 28.5q-17 -36 -30 -58h43z" />
  </g>

</svg>
