<?xml version="1.0" standalone="no"?>
<!DOCTYPE svg PUBLIC "-//W3C//DTD SVG 1.1//EN" "http://www.w3.org/Graphics/SVG/1.1/DTD/svg11.dtd" >
<svg xmlns="http://www.w3.org/2000/svg" xmlns:xlink="http://www.w3.org/1999/xlink" version="1.1" viewBox="0 -36 256 256">
  <g transform="matrix(1 0 0 -1 0 220)">
   <path fill="currentColor"
d="M32 134.5q-5 -12.5 -12 -14.5t-9 5t8 19.5t13 42.5h4q1 -40 -4 -52.5zM46 246l23 -13l-9 -8v-170q0 -23 1 -38l-15 -9q1 36 1 58v127q0 29 -1 53zM85 176q6 -10 4 -18.5t-8 -9t-8 13.5t-11 34l3 2q14 -12 20 -22zM114 245l19 -8l-7 -5l-5 -17h22l7 10l15 -13l-8 -6
q-7 -26 -16 -44q12 -6 16.5 -11.5t3 -14t-7.5 -2.5t-20 16q-22 -27 -63 -38l-1 4q31 13 55 42q0 2 -32 14l14 36q-8 0 -17 -4l-8 11h26q6 17 7 30zM118 208l-13 -33q13 -3 25 -8q9 17 14 41h-26zM173 226l16 -11h25l9 11l14 -12l-7 -6q0 -40 1 -66l-15 -5v12h-29v-11l-14 -6
q1 48 0 94zM187 208v-51h29v51h-29zM92 111v5q58 5 88 9.5t40 8.5l13 -16q-14 -2 -64 -4v-20h37l12 11l15 -18h-64v-17h51l13 11l16 -17h-80v-28q0 -21 -24 -26q-4 17 -25 21v4q14 -2 24.5 -2.5t10.5 6.5v25h-48q-13 0 -22 -2l-9 8h79v17h-39q-10 0 -19 -2l-9 9h67v20
q-14 -1 -63 -3z" />
  </g>

</svg>
