<?xml version="1.0" standalone="no"?>
<!DOCTYPE svg PUBLIC "-//W3C//DTD SVG 1.1//EN" "http://www.w3.org/Graphics/SVG/1.1/DTD/svg11.dtd" >
<svg xmlns="http://www.w3.org/2000/svg" xmlns:xlink="http://www.w3.org/1999/xlink" version="1.1" viewBox="0 -205 1024 1024">
  <g transform="matrix(1 0 0 -1 0 819)">
   <path fill="currentColor"
d="M428 948l64 -42h296l38 40l62 -52q6 -4 6 -8q0 -6 -38 -32v-108l4 -80q0 -12 -18 -20q-16 -9 -40 -14v36h-320v-20q0 -10 -12 -20q-10 -9 -46 -12l4 104v228v0v0zM482 696h320v182h-320v-182v0v0zM360 558h480l40 46l56 -54l4 -8q0 -12 -12 -12h-256v-118h120l40 48
l64 -56q3 -3 4 -8q0 -12 -12 -12h-216v-134h180l38 52l66 -60q3 -4 4 -8q0 -12 -12 -12h-520q-21 0 -68 -8l-16 36h274v134h-134q-21 0 -60 -8l-16 36h210v118h-180q-21 0 -62 -8l-16 36v0v0zM138 934q63 -37 94 -62q27 -24 42 -48q15 -25 12 -50q-1 -24 -14 -36
q-13 -13 -28 -10q-12 2 -18 32t-24 66q-15 35 -72 94l8 14v0v0zM32 586h152l38 42l52 -38q11 -7 14 -16q-1 -6 -40 -30v-300q53 -79 92 -104q38 -22 98 -37q94 -4 254 -2q160 3 302 14v-22q-33 -1 -54 -14q-22 -11 -34 -32h-396q-100 10 -130 26q-31 15 -58 36
q-28 20 -58 63q-30 45 -42 48q-13 4 -44 -36q-31 -41 -80 -123l-58 48q69 52 156 139v312h-84q-27 1 -54 -10l-26 36v0v0z" />
  </g>

</svg>
