<?xml version="1.0" standalone="no"?>
<!DOCTYPE svg PUBLIC "-//W3C//DTD SVG 1.1//EN" "http://www.w3.org/Graphics/SVG/1.1/DTD/svg11.dtd" >
<svg xmlns="http://www.w3.org/2000/svg" xmlns:xlink="http://www.w3.org/1999/xlink" version="1.1" viewBox="0 -246 2048 2048">
  <g transform="matrix(1 0 0 -1 0 1802)">
   <path fill="currentColor"
d="M556 1252h-54v-357h68l76 115q58 -65 92 -129l-25 -37h-211v-432q146 50 248 92l8 -51q-294 -149 -573 -248q-9 -78 -35 -78q-42 0 -94 160l117 27v692q176 -3 176 -43q0 -26 -72 -54v-567q52 14 119 35v875h-117v-103h-106v720q79 -34 134 -68h230l74 96
q106 -88 106 -114q0 -10 -16 -23l-43 -31v-518h-102v41zM556 1303v447h-277v-447h277zM875 750q-60 -90 -156 -192l-37 35q182 240 277 616q160 -52 160 -88q0 -25 -76 -37q-28 -79 -78 -182q101 -17 101 -45q0 -25 -78 -53v-711h-113v657zM1594 729h133l86 113
q62 -59 104 -121l-20 -43h-303v-377q88 -36 209 -36q60 0 200 10q-51 -80 -59 -133h-76q-253 0 -395 127q-72 63 -112 122q-37 55 -71 142q-60 -256 -211 -446l-39 24q163 304 179 797q178 -19 178 -58q0 -30 -70 -45q-6 -91 -18 -176q51 -158 170 -254v668h-320l-18 51h613
l88 121q61 -62 106 -129l-20 -43h-334v-314zM1579 1561q-83 -238 -233 -424l-55 33q187 341 241 725q191 -49 191 -94q0 -27 -88 -39q-11 -49 -39 -147q140 -92 215 -197q51 -69 51 -125q0 -68 -68 -68q-40 0 -61 68q-43 128 -154 268zM1041 1561q-93 -242 -285 -434l-41 35
q235 307 287 723q184 -42 187 -76q3 -22 -23 -33q-17 -8 -62 -16q-19 -80 -43 -145q121 -72 187 -160q55 -68 55 -121q0 -68 -64 -68q-44 0 -63 70q-23 98 -135 225z" />
  </g>

</svg>
