<?xml version="1.0" standalone="no"?>
<!DOCTYPE svg PUBLIC "-//W3C//DTD SVG 1.1//EN" "http://www.w3.org/Graphics/SVG/1.1/DTD/svg11.dtd" >
<svg xmlns="http://www.w3.org/2000/svg" xmlns:xlink="http://www.w3.org/1999/xlink" version="1.1" viewBox="0 -36 256 256">
  <g transform="matrix(1 0 0 -1 0 220)">
   <path fill="currentColor"
d="M8 73q10 1 73 17l2 -4q-62 -23 -65 -30l-10 17v0zM103 111q-9 -67 -13 -76t-10 -14t-15 -10q-1 15 -29 21l1 5q21 -4 29.5 -4t12.5 11.5t10 69.5h-53l-7 -6l-13 13l7 4l8 76l19 -11l-7 -7l-7 -62h32l10 94h-38q-12 0 -21 -3l-7 10h65l7 10l16 -12l-9 -10l-10 -89h8l8 10
l13 -13zM181 232q-5 -10 -9 -20h40l12 14l17 -21h-54q20 -35 61 -46v-4q-11 0 -16 -11q-38 25 -49 61h-13q-19 -43 -65 -69l-2 3q36 28 52 66h-18q-10 0 -18 -2l-10 9h49q8 24 8 35l22 -9zM181 114l-15 -6q1 23 1 36h-7q-10 0 -19 -2l-9 9h35q0 17 -1 35l22 -9l-8 -5v-21h10
l12 11l15 -18h-37q0 -20 1 -30zM196 87h-46q-4 -56 -56 -79l-2 3q41 27 45 76h-10q-10 -1 -18 -3l-9 10h37q0 24 -1 38l22 -9l-8 -8v-21h46q0 14 -1 39l22 -10l-8 -6v-23h9l13 13l16 -20h-38q0 -55 1 -73l-15 -6q1 39 1 79z" />
  </g>

</svg>
