<?xml version="1.0" standalone="no"?>
<!DOCTYPE svg PUBLIC "-//W3C//DTD SVG 1.1//EN" "http://www.w3.org/Graphics/SVG/1.1/DTD/svg11.dtd" >
<svg xmlns="http://www.w3.org/2000/svg" xmlns:xlink="http://www.w3.org/1999/xlink" version="1.1" viewBox="0 -205 1024 1024">
  <g transform="matrix(1 0 0 -1 0 819)">
   <path fill="currentColor"
d="M488 774l54 -42h300l30 32l52 -36q9 -6 10 -12q0 -4 -32 -28v-158l4 -58q0 -12 -14 -24q-15 -9 -38 -12v28h-134v-90h170l26 32l46 -34q9 -3 10 -12q0 -3 -24 -26v-219q1 -31 -16 -50q-16 -18 -58 -34q-9 30 -42 44q-33 15 -72 24l4 18q65 -12 86 -12q21 -1 36 4
q15 4 16 28v213h-182v-100l88 6q-8 30 -28 64l12 8q39 -34 60 -64q18 -29 18 -52q0 -24 -12 -32q-12 -7 -24 -4q-12 4 -14 20q-3 16 -6 38q-111 -13 -162 -28q-49 -13 -112 -34l-30 56l160 14v108h-184v-221l4 -52q1 -12 -18 -28q-18 -16 -38 -14l4 92v291l56 -44h176v90
h-132v-16q0 -9 -20 -24q-19 -12 -34 -12l4 86v276v0v0zM538 488h132v98h-132v-98v0v0zM720 586v-98h134v98h-134v0v0zM538 610h132v98h-132v-98v0v0zM720 708v-98h134v98h-134v0v0zM412 866h158v122l76 -28q12 -9 -6 -18l-20 -14v-62h154v126l74 -28q13 -9 -4 -18l-20 -12
v-68h74l38 44l54 -52q3 -4 4 -8q1 -10 -12 -10h-158v-66q1 -11 -16 -22q-16 -10 -34 -10v98h-154v-62q1 -15 -16 -24q-16 -9 -34 -12v98h-86q-24 0 -48 -8l-24 34v0v0zM74 866q75 -78 94 -108q16 -30 14 -54q-1 -24 -14 -32q-13 -10 -26 -4q-13 4 -16 32q-1 27 -14 64
q-13 33 -50 94l12 8v0v0zM262 630h86l32 46l52 -54q3 -3 4 -8q0 -10 -12 -10h-162v-76q44 -21 86 -56q42 -34 48 -58t-2 -42q-6 -16 -24 -14q-18 0 -24 22q-5 20 -28 58q-21 38 -56 68v-346l4 -91q0 -14 -18 -26q-18 -14 -36 -14l4 129v342q-30 -96 -72 -174
q-43 -78 -92 -144l-12 10q39 74 72 152q33 77 54 146q17 66 32 114h-82q-21 0 -56 -8l-16 34h172v360l74 -36q3 -1 4 -2q9 -6 0 -12l-32 -18v-292v0v0zM288 662q45 129 66 198q63 -28 66 -34q1 -7 -10 -10q-10 -4 -22 -16q-13 -12 -86 -146l-14 8v0v0z" />
  </g>

</svg>
