<?xml version="1.0" standalone="no"?>
<!DOCTYPE svg PUBLIC "-//W3C//DTD SVG 1.1//EN" "http://www.w3.org/Graphics/SVG/1.1/DTD/svg11.dtd" >
<svg xmlns="http://www.w3.org/2000/svg" xmlns:xlink="http://www.w3.org/1999/xlink" version="1.1" viewBox="0 -205 1024 1024">
  <g transform="matrix(1 0 0 -1 0 819)">
   <path fill="currentColor"
d="M490 606l42 -28h264l28 32l52 -44q3 -4 4 -8q0 -7 -30 -28v-78l4 -66q0 -9 -14 -20q-15 -9 -38 -12v46h-106v-134h122l34 44l60 -50q3 -3 4 -8q4 -12 -10 -12h-210v-141h190l40 49l64 -61q2 -3 2 -10q0 -6 -12 -6h-528q-18 1 -66 -8l-18 36h278v141h-130q-18 0 -66 -8
l-18 34h214v134h-108v-14q1 -12 -16 -26q-15 -13 -36 -14l4 114v146v0v0zM538 426h264v124h-264v-124v0v0zM658 954l82 -34q10 -6 2 -12q0 -1 -6 -4l-30 -14v-188h196l34 34l54 -50q6 -4 6 -10q-1 -4 -16 -8q-22 0 -62 -36l-36 -38l-14 8l38 74h-440q-1 -55 -20 -82
q-19 -25 -44 -26q-23 -2 -28 18q-6 21 18 36q24 14 36 38q12 23 18 74h18l2 -32h192v252v0v0zM460 894q51 -27 88 -56q33 -30 42 -56q6 -27 -6 -42q-11 -14 -28 -12q-17 3 -22 24q-4 22 -16 50q-12 27 -68 82l10 10v0v0zM906 852q10 -5 8 -10q1 -6 -12 -8q-24 3 -62 -36
q-37 -37 -80 -82l-14 12q45 69 102 166l58 -42v0v0zM98 916l56 -42h134l36 38l58 -42q12 -9 0 -18l-28 -18v-138l4 -76q0 -16 -20 -28q-19 -13 -34 -10v28h-46v-180h50l30 38q42 -48 46 -54q3 -7 0 -10h-10h-116v-220l130 42l6 -16q-250 -98 -274 -113q-25 -13 -46 -38
l-48 58l64 20v363l66 -28q7 0 8 -8q-1 -3 -4 -8l-22 -12v-296l70 22v440h-62v-10q2 -3 -16 -18q-18 -13 -38 -10l6 100v244v0v0zM146 638h158v208h-158v-208v0v0z" />
  </g>

</svg>
