<?xml version="1.0" standalone="no"?>
<!DOCTYPE svg PUBLIC "-//W3C//DTD SVG 1.1//EN" "http://www.w3.org/Graphics/SVG/1.1/DTD/svg11.dtd" >
<svg xmlns="http://www.w3.org/2000/svg" xmlns:xlink="http://www.w3.org/1999/xlink" version="1.1" viewBox="0 -36 256 256">
  <g transform="matrix(1 0 0 -1 0 220)">
   <path fill="currentColor"
d="M76 223l11 12l15 -19h-39q-8 -39 -15 -65h26l8 10l13 -13l-8 -8q0 -85 1 -110l-13 -7v23h-27v-27l-13 -8q1 40 1 102q-9 -22 -26 -43l-3 2q29 61 41 144h-6q-10 0 -19 -3l-9 10h62zM48 53h27v91h-27v-91zM153 89l2 -3q-49 -46 -54 -53l-12 16q8 3 24 13v98q-8 0 -17 -2
l-9 10h26q0 45 -1 76l19 -12l-6 -7v-57h6l8 11l12 -18h-26v-91zM164 178h21v42h-21v-42zM197 178h22v42h-22v-42zM164 132h21v39h-21v-39zM197 132h22v39h-22v-39zM152 173q0 47 -1 62l14 -8h54l7 10l13 -15l-8 -5q0 -79 1 -96l-13 -6v10h-22v-42h13l13 11l13 -18h-39v-50
h24l13 12l14 -19h-86q-10 0 -19 -2l-9 9h51v50h-8q-10 0 -19 -2l-9 9h36v42h-21v-7l-13 -7q1 15 1 62z" />
  </g>

</svg>
