<?xml version="1.0" standalone="no"?>
<!DOCTYPE svg PUBLIC "-//W3C//DTD SVG 1.1//EN" "http://www.w3.org/Graphics/SVG/1.1/DTD/svg11.dtd" >
<svg xmlns="http://www.w3.org/2000/svg" xmlns:xlink="http://www.w3.org/1999/xlink" version="1.1" viewBox="0 -36 256 256">
  <g transform="matrix(1 0 0 -1 0 220)">
   <path fill="currentColor"
d="M23 91l-15 18q13 3 43 18v51h-21l-9 -1l-8 8h38q0 39 -1 62l25 -12l-8 -6v-44h8l11 12l13 -19h-32v-43l34 17l2 -5l-36 -24v-80q1 -25 -22 -33q2 14 -27 21v5q20 -3 27 -2t6 14v64q-19 -12 -28 -21zM175.5 231.5q8.5 -7.5 0.5 -18.5t-11.5 2.5t-19.5 27.5l3 3
q19 -7 27.5 -14.5zM221 202l7 12l18 -16q-9 -7 -15 -12.5t-18 -19.5l-3 3l12 26h-102q0 -16 -7 -24t-14.5 -2.5t2.5 13.5t13 35h5l1 -15h101zM156 197q-1 -27 -13.5 -42.5t-35.5 -25.5l-2 5q22 14 29.5 29t7.5 34h14zM194 160q1 -7 6 -6h14q7 2 9 3t6.5 -4t1 -9t-14.5 -3
h-26q-11 2 -11 14v42h15v-37zM179 21.5q-6 4.5 -6 15t6 67.5l-28 -1q-4 -44 -27 -65.5t-51 -30.5l-1 4q30 16 45.5 37t18.5 54l-24 -1l-7 -3l-9 9l41 2q1 13 1 34l24 -10l-9 -6l-1 -17l29 2l7 10l15 -14l-9 -6q-3 -20 -5 -41t0 -25t12 -4h18q8 0 9.5 7t1.5 26h5
q1 -18 2.5 -24.5t9.5 -8.5q-7 -14 -22 -14h-25q-15 -1 -21 3.5z" />
  </g>

</svg>
