<?xml version="1.0" standalone="no"?>
<!DOCTYPE svg PUBLIC "-//W3C//DTD SVG 1.1//EN" "http://www.w3.org/Graphics/SVG/1.1/DTD/svg11.dtd" >
<svg xmlns="http://www.w3.org/2000/svg" xmlns:xlink="http://www.w3.org/1999/xlink" version="1.1" viewBox="0 -205 1024 1024">
  <g transform="matrix(1 0 0 -1 0 819)">
   <path fill="currentColor"
d="M792 942q15 -9 0 -18q-20 -6 -34 -18q-12 -12 -44 -68q-31 -57 -100 -156q143 3 272 10q-28 60 -86 126l12 12q78 -61 106 -94q27 -33 34 -62q7 -28 -4 -46q-13 -19 -28 -16q-16 3 -22 22l-8 34q-135 -8 -204 -22t-98 -34l-34 66q15 3 34 16q66 95 136 284l68 -36v0v0z
M618 570l52 -38h158l30 36l56 -44q6 -6 6 -8q0 -7 -30 -26v-180l4 -58q0 -13 -20 -26q-17 -9 -34 -12v58h-172v-44q0 -12 -20 -24q-20 -10 -34 -10l4 82v294v0v0zM668 300h172v204h-172v-204v0v0zM200 674l44 -34h52v116q-85 -17 -112 -22l-2 16q48 14 118 40q66 24 108 48
l42 -44q3 -7 -2 -8q-4 -2 -20 0q-15 0 -36 -6q-18 -4 -54 -16v-124h34l26 32l50 -34q12 -9 6 -14l-24 -22v-132l4 -54q1 -15 -12 -26q-12 -12 -36 -14v44h-48v-186l74 12q-15 36 -42 72l12 10q50 -40 74 -76q24 -34 24 -58q1 -22 -6 -34q-9 -9 -20 -12q-10 -1 -16 8
q-6 6 -8 24q-2 17 -10 44q-126 -21 -168 -36q-39 -12 -72 -32l-30 50l146 22v192h-52v-16q0 -12 -14 -24q-16 -12 -34 -12l4 84v222v0v0zM244 444h52v172h-52v-172v0v0zM338 616v-172h48v172h-48v0v0zM120 958l52 -44h280l36 40l54 -46q3 -2 4 -10q0 -5 -32 -22v-374
q5 -127 22 -196q17 -70 56 -112q37 -43 80 -69q43 -25 104 -38q60 -13 88 -14q27 -1 42 4q12 7 16 34q3 28 12 121h20q1 -73 2 -107q1 -37 14 -50q12 -11 18 -16q7 -5 0 -14q-9 -8 -26 -14q-16 -3 -50 -6q-32 0 -94 6q-60 6 -126 30q-66 28 -122 83q-54 56 -78 140
q-21 85 -26 230v374h-298v-250q1 -241 -22 -382q-21 -140 -102 -235l-14 10q63 107 78 237q15 129 12 382v308v0v0z" />
  </g>

</svg>
