<?xml version="1.0" standalone="no"?>
<!DOCTYPE svg PUBLIC "-//W3C//DTD SVG 1.1//EN" "http://www.w3.org/Graphics/SVG/1.1/DTD/svg11.dtd" >
<svg xmlns="http://www.w3.org/2000/svg" xmlns:xlink="http://www.w3.org/1999/xlink" version="1.1" viewBox="0 -52 256 256">
  <g transform="matrix(1 0 0 -1 0 204)">
   <path fill="currentColor"
d="M41 228q-7 0 -10 -3l-9 8h166l8 10l12 -11q2 -2 1 -3q0 -1 -3 -2l-5 -2v-79q2 -27 3 -49q3 -24 8 -37t12 -20q3 -5 5 -5q3 0 4 5q1 2 3 8t7 25l3 -1q-3 -27 -5 -35q-1 -9 2 -15q3 -7 -3 -8q-6 0 -15 6q-24 19 -32 69q-3 26 -3 56v83h-149zM25 182l-1 4q35 3 66 7
q13 3 30 5q7 2 9 2q13 3 14 11h2l15 -15q2 -2 2 -4q0 -1 -2 -1q-9 4 -21 1q-9 -2 -26 -4q-9 -1 -13 -2v-35h34l8 10l16 -12l2 -2q0 -1 -3 -1h-57v-38h50l8 11l17 -13q2 -1 2 -2q-1 -1 -4 -1h-137q-5 1 -11 -3l-8 8h72v38h-39q-4 1 -10 -3l-8 8h57v34q-35 -3 -64 -3zM118 80
l3 3q41 -30 43 -48q0 -9 -6 -11q-4 -2 -7 8q-1 6 -4 11l-79 -8q-15 -2 -19 -3q-4 -3 -9 -7l-11 15q8 0 13 5q21 25 34 46q2 3 -1 8l3 2l16 -12l2 -2q-1 -1 -2 -1q-3 1 -7 -2q-8 -11 -28 -33q-7 -7 -10 -11l95 8q-8 14 -26 32z" />
  </g>

</svg>
