<?xml version="1.0" standalone="no"?>
<!DOCTYPE svg PUBLIC "-//W3C//DTD SVG 1.1//EN" "http://www.w3.org/Graphics/SVG/1.1/DTD/svg11.dtd" >
<svg xmlns="http://www.w3.org/2000/svg" xmlns:xlink="http://www.w3.org/1999/xlink" version="1.1" viewBox="0 -205 1024 1024">
  <g transform="matrix(1 0 0 -1 0 819)">
   <path fill="currentColor"
d="M232 910h582l28 40l68 -48q6 -4 6 -8q-1 -6 -40 -32v-108l2 -84q1 -16 -16 -28q-16 -12 -38 -12v54h-598v-14q0 -13 -14 -22q-14 -10 -40 -10l2 118v196l58 -42v0v0zM226 712h166v168h-166v-168v0v0zM440 712h168v168h-168v-168v0v0zM658 712h166v168h-166v-168v0v0z
M166 538h322v140l84 -28q8 -3 8 -6q8 -2 -4 -10l-36 -18v-78h238l44 52l60 -60q3 -4 4 -8q0 -12 -12 -12h-334v-126h326l44 54l68 -60q3 -4 4 -10q-1 -12 -16 -12h-838q-21 0 -68 -8l-16 36h444v126h-238q-21 0 -68 -8l-16 36v0v0zM518 312q15 -7 4 -14q0 -1 -24 -4
q-21 -4 -228 -161l494 15q-60 67 -134 116l8 16q93 -42 150 -84q57 -43 72 -75q15 -33 6 -54q-7 -20 -28 -22q-19 0 -28 20q-9 21 -32 60q-393 -24 -462 -30q-67 -7 -104 -26l-42 77q72 -2 106 24q92 75 184 178l58 -36v0v0z" />
  </g>

</svg>
