<?xml version="1.0" standalone="no"?>
<!DOCTYPE svg PUBLIC "-//W3C//DTD SVG 1.1//EN" "http://www.w3.org/Graphics/SVG/1.1/DTD/svg11.dtd" >
<svg xmlns="http://www.w3.org/2000/svg" xmlns:xlink="http://www.w3.org/1999/xlink" version="1.1" viewBox="0 -36 256 256">
  <g transform="matrix(1 0 0 -1 0 220)">
   <path fill="currentColor"
d="M234.5 167q2.5 2 7 -0.5t5.5 -8.5t-14 -5h-21q-14 0 -14 16v57h-32q-1 -37 -7.5 -54.5t-26.5 -35.5l-2 3q19 28 21 56t1 46l13 -9h33l7 10l14 -12l-8 -6v-48q0 -11 8 -11h9q4 0 6.5 2zM210 133l8 10l14 -14q-6 -4 -15 -24t-27 -47q13 -13 28 -21.5t27 -11.5v-5
q-12 2 -19 -11q-10 6 -24 18t-20 21q-16 -17 -31.5 -26.5t-35.5 -14.5l-1 4q19 9 33.5 20.5t26.5 27.5q-16 31 -21 68l-6 -4l-10 10h73zM182 70q11 15 28 57h-52q9 -36 24 -57zM66 247l23 -8l-8 -6v-17h26l9 9l15 -15h-50v-20h17l9 9l15 -15h-67q-11 0 -18 -2l-9 8h39v20
h-21q-11 0 -18 -2l-9 8h48q0 22 -1 31zM28 167h92l8 9l14 -14q-5 -3 -13 -9.5t-14 -15.5l-3 2l9 22h-93q0 -16 -7 -20t-12 -1t3.5 11t11.5 24h4v-8zM66 157l23 -9l-8 -7v-18h17l9 9l15 -15h-41v-28h27l9 9l15 -15h-91q-11 0 -18 -2l-9 8h53v28h-24q-11 -13 -20 -22l-2 3
q14 24 18 50l20 -8l-7 -5l-6 -12h21q0 25 -1 34zM37 42.5q0 16.5 -1 29.5l15 -6h43l6 10l15 -12l-7 -6v-24q0 -7 1 -20l-14 -3v9h-44v-7l-15 -5q1 18 1 34.5zM51 26h44v34h-44v-34z" />
  </g>

</svg>
