<?xml version="1.0" standalone="no"?>
<!DOCTYPE svg PUBLIC "-//W3C//DTD SVG 1.1//EN" "http://www.w3.org/Graphics/SVG/1.1/DTD/svg11.dtd" >
<svg xmlns="http://www.w3.org/2000/svg" xmlns:xlink="http://www.w3.org/1999/xlink" version="1.1" viewBox="0 -36 256 256">
  <g transform="matrix(1 0 0 -1 0 220)">
   <path fill="currentColor"
d="M49 246l23 -8l-8 -7v-45h15l10 12l14 -19h-39v-45l28 17l3 -4l-31 -25v-83q1 -22 -22 -30q2 11 -25 19v4q15 -1 24 -1t9 12v67q-26 -20 -26 -24l-16 17q13 4 42 22v54h-23l-9 -1l-9 8h41q0 36 -1 60zM92 121q20 -8 25 -15.5t-1.5 -17t-9.5 3t-17 26.5zM221 92v39h-30
q-11 1 -19 -3l-8 10h56l8 11l15 -15l-8 -5v-87q2 -27 -22 -34q0 7 -5.5 11.5t-22.5 6.5v6q23 -2 30 -1.5t6 14.5v37q-13 -10 -25.5 -19.5t-20.5 -19.5l-16 16q28 11 62 33zM172 122q20 -8 26 -14.5t0 -16t-9.5 1t-19.5 26.5zM137 90v41h-24q-11 1 -20 -4l-8 11h52l7 8
l14 -12l-7 -5v-85q1 -29 -20 -36q-1 7 -6.5 12t-22.5 7v6q22 -2 29 -1.5t6 16.5v32q-14 -11 -28.5 -22t-18.5 -18l-16 15q20 6 63 35zM189 173h20v51h-20v-51zM222 181q0 -10 1 -21l-14 -8v14h-85v-13l-14 -6q1 26 1 49t-1 45l15 -10h81l9 11l14 -14l-7 -7v-40zM124 173h20
v51h-20v-51zM156 173h21v51h-21v-51z" />
  </g>

</svg>
