<?xml version="1.0" standalone="no"?>
<!DOCTYPE svg PUBLIC "-//W3C//DTD SVG 1.1//EN" "http://www.w3.org/Graphics/SVG/1.1/DTD/svg11.dtd" >
<svg xmlns="http://www.w3.org/2000/svg" xmlns:xlink="http://www.w3.org/1999/xlink" version="1.1" viewBox="0 -205 1024 1024">
  <g transform="matrix(1 0 0 -1 0 819)">
   <path fill="currentColor"
d="M606 374h194l24 34l52 -36q12 -7 12 -14q-1 -6 -28 -24v-182l4 -93q1 -13 -16 -24q-18 -9 -38 -12v72h-210v-28q-1 -14 -22 -26q-22 -12 -34 -10l4 104v261l58 -22v0v0zM600 119h210v231h-210v-231v0v0zM696 936q6 -3 6 -8q1 0 -4 -6q-18 -3 -30 -12q-9 -9 -44 -104h188
l28 34l64 -48q7 -6 6 -8q1 -6 -16 -12q-18 -6 -26 -14l-24 -36q-15 -27 -42 -72q-27 -43 -60 -80q53 -49 116 -80q62 -30 140 -42v-16q-28 -1 -52 -8t-42 -34q-48 33 -102 72q-53 39 -88 76q-46 -49 -106 -94q-59 -46 -148 -94l-10 14q74 52 130 98q54 45 108 108
q-65 89 -88 182q-60 -139 -114 -218l-14 8q48 108 84 214q36 104 66 220l74 -40v0v0zM616 782q33 -105 94 -180q33 42 60 90q26 48 46 88l-200 2v0v0zM38 822h200v160q77 -32 80 -34q2 -4 2 -10q0 -4 -30 -16v-100h100l36 46l58 -52q3 -3 4 -6q0 -15 -14 -14h-184v-96h88
l32 36l56 -46q6 -6 6 -8q-1 -6 -28 -24v-172l4 -78q1 -11 -16 -22q-19 -10 -40 -10v36h-102v-124h114l34 44l58 -54q10 -14 -4 -16h-202v-116l4 -91q0 -9 -20 -24q-22 -13 -40 -12l4 123v120h-156q-18 -3 -36 -8l-18 34h210v124h-100v-8q0 -15 -20 -26q-21 -10 -36 -10
l4 104v268l56 -40h96v96h-122q-22 0 -58 -8l-20 34v0v0zM138 438h100v108h-100v-108v0v0zM290 546v-108h102v108h-102v0v0zM138 572h100v102h-100v-102v0v0zM290 674v-102h102v102h-102v0v0z" />
  </g>

</svg>
