<?xml version="1.0" standalone="no"?>
<!DOCTYPE svg PUBLIC "-//W3C//DTD SVG 1.1//EN" "http://www.w3.org/Graphics/SVG/1.1/DTD/svg11.dtd" >
<svg xmlns="http://www.w3.org/2000/svg" xmlns:xlink="http://www.w3.org/1999/xlink" version="1.1" viewBox="0 -205 1024 1024">
  <g transform="matrix(1 0 0 -1 0 819)">
   <path fill="currentColor"
d="M464 908h414l36 46l58 -54q6 -3 6 -6q1 -12 -10 -12h-318l-20 -206h178l32 40l50 -40q12 -8 12 -16q-1 -10 -34 -26l-22 -509q2 -24 14 -28q12 -3 54 -4q24 3 30 26q6 22 10 47q2 24 8 108h22q-1 -81 2 -114q3 -32 30 -45q-14 -28 -22 -38q-6 -9 -18 -16q-10 -5 -34 -10
h-62q-50 3 -64 12q-13 12 -16 26q-4 13 -2 40l20 521h-192l-58 -507l166 75l10 -16q-148 -82 -166 -101q-19 -15 -40 -42l-54 54q33 18 36 36l76 733h-62q-18 0 -54 -8l-16 34v0v0zM638 504l10 14q63 -39 90 -66q24 -25 24 -50t-12 -38q-11 -12 -28 -8q-15 4 -18 32
q-1 27 -16 54q-15 26 -50 62v0v0zM180 722l90 -34q6 -3 6 -6q0 -5 -6 -10l-40 -14v-182h152l36 42l52 -52q2 -3 2 -6q1 -9 -4 -8h-238v-302l210 126l12 -14q-186 -134 -204 -149q-16 -15 -46 -64l-58 54q27 18 36 36v583v0v0zM176 968l8 12q65 -25 98 -50q32 -23 34 -46
q3 -24 -8 -36t-28 -8q-18 4 -24 26q-5 21 -22 48q-16 24 -58 54v0v0zM92 844h22v-48h328l28 36q69 -52 72 -58t-2 -8q-4 -3 -22 -6q-19 -3 -40 -20q-19 -18 -58 -66l-16 10q24 48 42 88h-332q4 -43 -10 -74q-12 -31 -36 -38t-36 8q-14 16 0 32l24 28t22 38t14 78v0v0z" />
  </g>

</svg>
