<?xml version="1.0" standalone="no"?>
<!DOCTYPE svg PUBLIC "-//W3C//DTD SVG 1.1//EN" "http://www.w3.org/Graphics/SVG/1.1/DTD/svg11.dtd" >
<svg xmlns="http://www.w3.org/2000/svg" xmlns:xlink="http://www.w3.org/1999/xlink" version="1.1" viewBox="0 -205 1024 1024">
  <g transform="matrix(1 0 0 -1 0 819)">
   <path fill="currentColor"
d="M598 658q7 -6 8 -8q0 -3 -6 -8l-16 -6v-28l128 6l28 34l46 -40q12 -10 -2 -16l-200 -8v-28q1 -15 14 -18q12 -1 42 -2h178q31 0 44 6q11 3 16 18q6 14 12 56h16q-1 -24 2 -42q3 -16 28 -28q-9 -22 -30 -34q-19 -13 -52 -14h-272q-30 6 -36 24q-7 16 -8 32v24l-144 -8
q-11 -1 -22 -8l-18 32l184 8v70l60 -14v0v0zM254 236q32 104 32 302v212l56 -48h194v128l68 -14q11 -6 2 -12l-22 -12v-22h224l34 40l50 -48q3 -3 4 -8q-1 -7 -10 -8h-302v-44h288l26 24l48 -40q16 -7 14 -14q0 -4 -14 -8q-33 -5 -54 -22q-19 -15 -58 -54l-14 8l52 82h-538
v-164q-2 -192 -46 -300q-43 -105 -154 -177l-10 12q98 83 130 187v0v0zM402 494l46 -34h356l20 24l48 -30q9 -6 10 -14q0 -6 -26 -20v-86l4 -60q0 -17 -20 -28q-18 -12 -32 -12v32h-360q1 -12 -10 -18q-16 -12 -40 -12l4 90v168v0v0zM448 290h162v62h-162v-62v0v0zM656 290
h152v62h-152v-62v0v0zM448 376h162v60h-162v-60v0v0zM656 436v-60h152v60h-152v0v0zM348 230l48 -30h438l22 28l48 -36q9 -6 12 -12q0 -6 -30 -24v-95h32l30 40l52 -50q3 -3 4 -6q3 -7 -12 -8h-688q-20 1 -52 -8l-16 32h112v169v0v0zM394 61h122v115h-122v-115v0v0zM558 61
h114v115h-114v-115v0v0zM714 61h126v115h-126v-115v0v0zM896 862l32 44l60 -54q2 -7 2 -8q0 -7 -8 -8h-784v-168q-1 -250 -28 -382t-140 -263l-12 12q88 132 110 255q24 123 22 354v266l60 -48h686v0v0zM482 976l8 14q61 -12 98 -26q36 -13 46 -34q10 -18 0 -36
q-8 -16 -28 -16q-18 0 -30 24q-9 20 -30 38q-19 15 -64 36v0v0z" />
  </g>

</svg>
