<?xml version="1.0" standalone="no"?>
<!DOCTYPE svg PUBLIC "-//W3C//DTD SVG 1.1//EN" "http://www.w3.org/Graphics/SVG/1.1/DTD/svg11.dtd" >
<svg xmlns="http://www.w3.org/2000/svg" xmlns:xlink="http://www.w3.org/1999/xlink" version="1.1" viewBox="0 -205 1024 1024">
  <g transform="matrix(1 0 0 -1 0 819)">
   <path fill="currentColor"
d="M444 612h266l38 42l56 -50q3 -3 4 -6q0 -12 -12 -12h-148v-142h160l40 48l60 -58q12 -13 -8 -16h-252v-313h76h126l40 57l68 -65q9 -18 -6 -18h-582q-21 1 -68 -8l-16 34h312v313h-156q-21 0 -68 -8l-16 34h240v142h-70q-21 0 -68 -8l-16 34v0v0zM690 934q10 -6 8 -12
q0 -5 -30 -16q33 -69 70 -116q33 -46 96 -94q62 -48 160 -68v-18q-42 1 -60 -4q-17 -3 -40 -26q-48 32 -96 82q-48 48 -80 100q-33 50 -72 136q-67 -96 -136 -182q-67 -85 -190 -188l-12 12q63 63 156 186q90 120 154 238l72 -30v0v0zM400 384q83 -61 106 -98q24 -36 18 -66
q-6 -28 -20 -34q-14 -8 -28 0q-15 8 -14 34t-12 58q-12 33 -60 96l10 10v0v0zM672 168q78 117 138 216l62 -44q6 -7 -2 -14q-27 2 -56 -28q-27 -29 -128 -142l-14 12v0v0zM124 908l6 14q48 -17 84 -34q33 -18 54 -38q20 -19 22 -40q1 -19 -10 -34q-10 -13 -28 -14
q-18 0 -24 16q-6 14 -12 34q-7 20 -22 38q-16 17 -70 58v0v0zM40 680l6 16q50 -19 86 -34q33 -14 52 -34q18 -19 22 -40q1 -21 -10 -36q-12 -15 -26 -12q-15 3 -20 18q-5 14 -16 32q-12 17 -30 38q-19 18 -64 52v0v0zM202 408q-18 -54 -44 -60q-25 -7 -100 -2l-2 -20
q52 -7 80 -16q27 -9 34 -20q8 -9 10 -38q0 -30 -8 -84q-10 -53 -8 -81q1 -27 20 -36q18 -6 34 2q15 10 18 34q3 25 -6 83q-7 57 -8 94q-1 36 8 66q6 27 12 58l134 442l-20 8l-154 -430v0v0z" />
  </g>

</svg>
