<?xml version="1.0" standalone="no"?>
<!DOCTYPE svg PUBLIC "-//W3C//DTD SVG 1.1//EN" "http://www.w3.org/Graphics/SVG/1.1/DTD/svg11.dtd" >
<svg xmlns="http://www.w3.org/2000/svg" xmlns:xlink="http://www.w3.org/1999/xlink" version="1.1" viewBox="0 -36 256 256">
  <g transform="matrix(1 0 0 -1 0 220)">
   <path fill="currentColor"
d="M228 18l-15 -7v18h-167l-8 -11l-14 14l8 6v63q0 23 -1 57l24 -9l-9 -7v-106h167v69q0 31 -2 57l25 -8l-9 -8v-100q0 -14 1 -28zM123 176h-83q-11 0 -20 -3l-9 10h112v35q-20 -2 -81 -4v5q48 4 94.5 12t65.5 15l12 -21l-10 2q-40 -4 -68 -8v-36h82l12 12l17 -19h-111v-143
h-13v143zM166 149l20 -7q-6 -6 -12 -26q22 -11 29.5 -19t3 -18t-9.5 1t-24 33q-10 -25 -26 -45l-4 2q20 37 23 79zM75 149l21 -7q-5 -7 -10 -27q17 -8 26 -16.5t2 -20t-11 2.5t-19 29q-11 -26 -34 -49l-4 4q28 44 29 84z" />
  </g>

</svg>
