<?xml version="1.0" standalone="no"?>
<!DOCTYPE svg PUBLIC "-//W3C//DTD SVG 1.1//EN" "http://www.w3.org/Graphics/SVG/1.1/DTD/svg11.dtd" >
<svg xmlns="http://www.w3.org/2000/svg" xmlns:xlink="http://www.w3.org/1999/xlink" version="1.1" viewBox="0 -36 256 256">
  <g transform="matrix(1 0 0 -1 0 220)">
   <path fill="currentColor"
d="M49 64v98q-21 -27 -38 -42l-2 3q13 16 22.5 31t24.5 43t22 48l18 -16q-4 0 -13 -13.5t-24 -38.5l12 -8l-8 -6v-147l-15 -7q1 27 1 55zM198 152h-78q-10 0 -19 -2l-9 9h109l10 8l14 -19q-8 -2 -21.5 -8t-35.5 -19q2 -1 2 -6.5t-2 -7.5h52l8 9l16 -17q-14 -3 -36 -23l-3 2
l14 22h-55v-54q0 -15 1 -32l-16 -6q1 18 1 35v57h-43q-10 0 -19 -2l-9 9h78q-4 15 -21 31l3 3q16 -7 26 -15q18 13 33 26zM213.5 38.5q-9.5 16.5 -36.5 41.5l2 3q39 -21 46.5 -31t2.5 -20t-14.5 6.5zM139 73l-9 -3q-22 -26 -55 -46l-2 4q29 25 48 60zM172 228.5
q33 7.5 44 14.5l13 -17q-17 -2 -51.5 -7.5t-88.5 -6.5v4q50 5 83 12.5zM132 179q2 -8 -4 -13t-10 6t-20 31l2 3q30 -19 32 -27zM173 182q0 -8 -5.5 -12.5t-9.5 8t-17 31.5l3 2q29 -21 29 -29zM186 164l-4 2q20 30 28 52l20 -12l-8 -4q-15 -16 -36 -38z" />
  </g>

</svg>
