<?xml version="1.0" standalone="no"?>
<!DOCTYPE svg PUBLIC "-//W3C//DTD SVG 1.1//EN" "http://www.w3.org/Graphics/SVG/1.1/DTD/svg11.dtd" >
<svg xmlns="http://www.w3.org/2000/svg" xmlns:xlink="http://www.w3.org/1999/xlink" version="1.1" viewBox="0 -36 256 256">
  <g transform="matrix(1 0 0 -1 0 220)">
   <path fill="currentColor"
d="M53 240l19 -8l-6 -7v-14h52v17v9l-1 9l23 -8l-7 -7v-20h64v27l20 -10l-6 -6v-20l-14 -6v8h-65v-21l-14 -4v25h-54l-6 -5l-13 10l8 6v25zM26 182l21 -8l-6 -5v-25h23q0 33 -1 50l21 -7l-6 -5v-38h23q0 22 -1 39l21 -7l-6 -6v-35l-14 -5v7h-24q-10 -26 -67 -38l-1 4
q44 16 54 34h-22l-9 -7l-11 13l6 3q0 21 -1 36zM143 130l-12 13l6 5q0 19 -1 35l20 -7l-6 -6v-26h26q0 36 -1 54l20 -7l-5 -7v-40h25v40l20 -7l-6 -7v-36l-14 -6v9h-25q0 -16 1 -28l-16 -7q1 15 1 35h-27zM50 95v-42h48v42h-48zM106 111l15 -13l-9 -6v-27q0 -15 1 -27
l-15 -4v12h-48v-12l-15 -4q1 11 1 23v31q0 12 -1 22l13 -4h50zM222 92v-37q1 -19 -23 -28q0 14 -28 19v5q31 -4 34 -1t3 11v33h-59v-79l-15 -7q1 13 1 24v52q0 11 -1 24l20 -7h53l6 10l17 -13z" />
  </g>

</svg>
