<?xml version="1.0" standalone="no"?>
<!DOCTYPE svg PUBLIC "-//W3C//DTD SVG 1.1//EN" "http://www.w3.org/Graphics/SVG/1.1/DTD/svg11.dtd" >
<svg xmlns="http://www.w3.org/2000/svg" xmlns:xlink="http://www.w3.org/1999/xlink" version="1.1" viewBox="0 -36 256 256">
  <g transform="matrix(1 0 0 -1 0 220)">
   <path fill="currentColor"
d="M42 246q15 -13 22 -23.5t-2 -23.5h15l13 12l16 -19h-67q-13 0 -22 -3l-10 10h49q-4 22 -17 45zM36 35h34v46h-34v-46zM60 161l13 10l15 -17h-40q-11 1 -19 -3l-7 10h38zM59 122l13 12l15 -19h-38q-10 1 -18 -2l-7 9h35zM83 47q0 -12 1 -27l-14 -7v15h-34v-14l-13 -7
q1 22 1 45t-1 45l14 -9h32l9 9l12 -12l-7 -7v-31zM189 154l13 12l17 -19h-74q-20 -1 -24 -3l-8 10h76zM128 108v-84h17v84h-17zM157 24h19v84h-19v-84zM188 24h18v84h-18v-84zM114 76q0 26 -1 47l17 -8h75l10 10l13 -14l-8 -7v-80h1l12 12l15 -19h-130q-13 0 -22 -3l-10 10
h28v52zM116.5 185.5q10.5 20.5 13.5 36.5l19 -14l-9 -7q-26 -45 -47 -59l-3 2q16 21 26.5 41.5zM169 226l-6 -2l-6 9h25l6 7l9 -10l-6 -5q0 -14 17.5 -34.5t39.5 -26.5v-5q-8 1 -18 -11q-33 20 -47 78h-14z" />
  </g>

</svg>
