<?xml version="1.0" standalone="no"?>
<!DOCTYPE svg PUBLIC "-//W3C//DTD SVG 1.1//EN" "http://www.w3.org/Graphics/SVG/1.1/DTD/svg11.dtd" >
<svg xmlns="http://www.w3.org/2000/svg" xmlns:xlink="http://www.w3.org/1999/xlink" version="1.1" viewBox="0 -36 256 256">
  <g transform="matrix(1 0 0 -1 0 220)">
   <path fill="currentColor"
d="M33 106h18v72h-18v-72zM63 106h18v72h-18v-72zM51 52v47h-18v-6l-14 -7q1 21 1 52.5t-1 54.5l13 -8h19q0 45 -1 61l20 -10l-7 -8v-43h18l5 7l15 -11l-8 -6v-53q0 -19 1 -24l-13 -7v8h-18v-45l22 5q-1 11 -8 31l2 2q23 -23 23 -32.5t-6 -15.5t-7 -3t-2 13
q-26 -9 -43.5 -16t-24.5 -12l-9 16q11 1 41 10zM127 206h81v17h-81v-17zM127 181h81v18h-81v-18zM116 108.5q0 11.5 -1 28.5l14 -8h77l8 10l16 -14l-8 -5q0 -17 1 -34l-14 -6v8h-33v-50q1 -22 -23 -30q-2 15 -27 21v4q21 -2 29 -2t8 9v48h-34v-2l-14 -6q1 17 1 28.5zM129 95
h80v27h-80v-27zM114 198.5q0 18.5 -1 39.5l14 -8h79l8 8l14 -12l-7 -5q0 -32 1 -51l-14 -5v9h-81v-5l-14 -5q1 16 1 34.5zM165 149q-2 13 -13 22l2 3q18 -5 22 -11t-3 -14h45l15 11l15 -18h-124q-10 0 -19 -2l-9 9h69zM142 62q-10 -3 -30.5 -20.5t-26.5 -21.5l-3 2
q11 10 24 25t20 29zM232.5 47q5.5 -8 1 -18.5t-13.5 5.5t-33 37l2 3q38 -19 43.5 -27z" />
  </g>

</svg>
