<?xml version="1.0" standalone="no"?>
<!DOCTYPE svg PUBLIC "-//W3C//DTD SVG 1.1//EN" "http://www.w3.org/Graphics/SVG/1.1/DTD/svg11.dtd" >
<svg xmlns="http://www.w3.org/2000/svg" xmlns:xlink="http://www.w3.org/1999/xlink" version="1.1" viewBox="0 -205 1024 1024">
  <g transform="matrix(1 0 0 -1 0 819)">
   <path fill="currentColor"
d="M336 870q-37 -47 -70 -82h208l30 36l54 -44q9 -7 10 -10q-1 -6 -16 -12q-20 -10 -40 -34q-63 -79 -120 -124q-57 -46 -126 -82q-69 -35 -206 -76l-4 18q135 52 198 92q60 39 108 78q48 38 114 134h-228l-14 -14q43 -22 68 -40q23 -19 26 -40q1 -22 -10 -34
q-10 -13 -26 -10q-14 2 -16 20q0 18 -14 40q-12 22 -42 50q-64 -57 -148 -114l-10 12q89 80 140 140t72 96h-118q-25 -3 -46 -8l-24 34h424l34 44q67 -51 68 -56q1 -3 2 -8q0 -6 -24 -6h-254v0v0zM666 900l76 -30q5 -1 2 -10q-1 -3 -28 -20v-122l4 -58q-2 -15 -22 -30
q-18 -12 -36 -12l4 96v186v0v0zM852 958l80 -28q3 -4 4 -8q-1 -3 -34 -24v-334q3 -38 -24 -64q-24 -24 -54 -30q-12 35 -42 50q-30 13 -72 26l4 18q104 -25 122 -16q15 6 16 22v388v0v0zM282 368h316l42 44l56 -50q3 -3 4 -6q0 -12 -12 -12h-158v-100h194l40 52l64 -60
q6 -3 4 -6q-3 -10 -14 -10h-288v-159h98q48 90 66 133q72 -31 72 -38t-6 -8q-6 0 -18 -6q-12 -2 -24 -11t-60 -70h166l50 56l58 -62q3 -4 4 -8q5 -9 -10 -10h-756q-21 1 -68 -8l-16 32h396v159h-262q-21 0 -68 -8l-16 32h346v100h-116q-21 0 -68 -8l-16 32v0v0zM562 596
q12 -3 4 -12l-10 -6l-6 -4q54 -51 120 -92q63 -40 144 -58q78 -19 178 -22v-18q-36 0 -60 -12q-21 -9 -36 -36q-84 24 -146 54q-63 30 -114 72q-51 40 -108 98q-84 -61 -144 -100q-60 -37 -156 -88q-96 -49 -186 -80l-6 14q78 36 162 88q84 48 156 100q72 48 148 118l60 -16
v0v0zM268 186l6 12q60 -25 88 -46q27 -18 30 -39q3 -18 -2 -30q-6 -11 -24 -14q-15 0 -24 20q-7 21 -20 42q-12 19 -54 55v0v0z" />
  </g>

</svg>
