<?xml version="1.0" standalone="no"?>
<!DOCTYPE svg PUBLIC "-//W3C//DTD SVG 1.1//EN" "http://www.w3.org/Graphics/SVG/1.1/DTD/svg11.dtd" >
<svg xmlns="http://www.w3.org/2000/svg" xmlns:xlink="http://www.w3.org/1999/xlink" version="1.1" viewBox="0 -205 1024 1024">
  <g transform="matrix(1 0 0 -1 0 819)">
   <path fill="currentColor"
d="M584 904q-24 -8 -116 -34v-194l140 70q-22 30 -68 70l8 12q99 -47 114 -70q15 -21 16 -38q0 -15 -8 -26q-7 -10 -22 -10t-20 12l-10 30q-91 -53 -122 -76q-29 -22 -58 -52l-48 48l30 28v240l50 -22q104 47 158 80q48 -45 48 -50q0 -6 -6 -6q-4 -2 -16 0q-12 0 -30 -2
q-16 -1 -40 -10v0v0zM748 870h-34q-17 1 -46 -10l-26 36h260l30 38q54 -42 58 -48q3 -6 0 -8q-4 -3 -28 -24q-12 -142 -24 -172q-11 -30 -34 -48q-24 -17 -50 -28q-13 30 -34 40q-18 9 -54 18l6 18q45 -9 64 -12q18 -4 34 4q14 9 22 30q8 20 22 166h-118q-5 -90 -46 -162
t-136 -122l-8 12q74 63 106 126q30 62 36 146v0v0zM460 588l56 -24h342l26 28l58 -30q6 -6 6 -8q0 -6 -30 -24v-282l4 -52q0 -12 -18 -24t-36 -14v48h-358v-22q0 -12 -18 -24q-18 -13 -36 -16l4 118v326v0v0zM510 232h358v88h-358v-88v0v0zM510 346h358v82h-358v-82v0v0z
M510 454h358v84h-358v-84v0v0zM350 27q113 58 224 149l60 -36q9 -3 0 -15l-32 -4q-9 1 -62 -28q-51 -29 -182 -82l-8 16v0v0zM750 156l6 16q90 -27 142 -51q50 -24 62 -48q10 -23 0 -40q-10 -18 -28 -16q-17 0 -28 24q-11 22 -52 52q-39 28 -102 63v0v0zM34 754h166v228
l80 -34q17 -9 2 -18l-34 -12v-164h58l30 38l46 -46q13 -15 -4 -20h-130v-118q47 -31 76 -56q29 -24 40 -50q9 -28 0 -46q-10 -20 -28 -18q-16 -1 -22 32q-4 30 -22 58q-16 26 -44 58v-436l2 -89q0 -14 -18 -28t-36 -14l4 131v392q-36 -87 -84 -170q-46 -84 -88 -134l-10 8
q33 60 72 142q36 81 66 168q27 86 42 170h-96q-18 0 -48 -8l-20 36v0v0z" />
  </g>

</svg>
