<?xml version="1.0" standalone="no"?>
<!DOCTYPE svg PUBLIC "-//W3C//DTD SVG 1.1//EN" "http://www.w3.org/Graphics/SVG/1.1/DTD/svg11.dtd" >
<svg xmlns="http://www.w3.org/2000/svg" xmlns:xlink="http://www.w3.org/1999/xlink" version="1.1" viewBox="0 -36 256 256">
  <g transform="matrix(1 0 0 -1 0 220)">
   <path fill="currentColor"
d="M30 105h14v71h-14v-71zM56 105h14v71h-14v-71zM44 51v47h-14v-7l-13 -7q0 7 1 22v53q0 20 -1 32l13 -8h14q0 44 -1 61l20 -10l-7 -9v-42h15l7 7l11 -11l-7 -6v-52q0 -18 1 -25l-13 -7v9h-14v-44l17 5q-2 9 -8 29l3 2q20 -23 20 -32t-5 -15t-7 -3t-2 13q-21 -8 -36 -15
t-20 -13l-11 17q12 0 37 9zM151 206h26v21h-26v-21zM151 173h26v26h-26v-26zM113 173h25v26h-25v-26zM189 173h26v26h-26v-26zM214 234l14 10l15 -17h-54v-21h24l8 8l13 -10l-7 -5q0 -24 1 -32l-13 -5v4h-102v-2l-13 -5q1 16 1 28.5t-1 25.5l13 -7h25v21h-20q-10 -1 -19 -3
l-9 10h124zM133 154l-5 -2q-20 -22 -37 -34l-2 2q20 22 31 44zM108 40v52q-8 -10 -25 -21l-1 3q14 13 24.5 30t16.5 32l14 -10q-6 -5 -18 -23v-88l-12 -6q1 15 1 31zM209 61h-43q10 -11 22 -18q11 9 21 18zM197 37q22 -12 51 -15v-3q-10 -1 -14 -9q-25 5 -46 19
q-27 -17 -62 -20v2q32 9 53 26q-9 7 -19 21q-13 -12 -30 -20l-2 3q16 13 27 26l-4 8l2 2l6 -6q6 7 9 13h-4v-1l-13 -4q1 13 1 46q-7 -10 -19 -17l-2 2q10 12 17 28t9 30l16 -9q-3 -1 -7 -9h48l12 9l14 -16h-77l-5 -8l6 -4h45l8 7l12 -11l-7 -6q0 -25 1 -37l-13 -4v4h-36
l9 -6q-6 -4 -12 -10h40l9 7l10 -14l-8 -4q-14 -13 -25 -20zM164 111h46v13h-46v-13zM164 91h46v13h-46v-13z" />
  </g>

</svg>
