<?xml version="1.0" standalone="no"?>
<!DOCTYPE svg PUBLIC "-//W3C//DTD SVG 1.1//EN" "http://www.w3.org/Graphics/SVG/1.1/DTD/svg11.dtd" >
<svg xmlns="http://www.w3.org/2000/svg" xmlns:xlink="http://www.w3.org/1999/xlink" version="1.1" viewBox="0 -205 1024 1024">
  <g transform="matrix(1 0 0 -1 0 819)">
   <path fill="currentColor"
d="M142 862v-104h54l30 40l44 -50q3 -4 4 -8q0 -9 -8 -8h-124v-96h272v100h-50q-21 0 -42 -8l-22 34h114v108h-42q-27 -3 -56 -8l-22 34h112l26 32l50 -38q10 -12 -6 -20l-14 -10v-170l4 -68q3 -19 -18 -28q-22 -10 -34 -10v26h-272v-6q1 -13 -16 -20q-18 -6 -36 -6l4 78
v264l48 -34q36 18 108 66q46 -36 44 -42q-3 -6 -8 -8h-24q-19 0 -46 -12q-28 -10 -74 -28v0v0zM526 528h264l24 34l60 -40q6 -2 6 -10q1 -4 -28 -22q-6 -261 -12 -312q-4 -48 -22 -81q-15 -33 -68 -54q-11 29 -34 42q-22 10 -74 26l4 18q72 -13 108 -14q16 0 26 18
q11 13 16 53q3 36 6 316h-122q-4 -136 -20 -214q-16 -77 -56 -142q-39 -61 -104 -113l-10 12q47 49 80 111q30 63 46 138q12 75 16 208h-52q-15 0 -36 -8l-18 34v0v0zM96 570l64 -20q8 -3 2 -12l-22 -14v-384l80 54l8 -14q-50 -48 -70 -67q-18 -21 -44 -60l-46 36
q21 19 28 32v449v0v0zM250 592l62 -20q9 -4 6 -10l-24 -16v-398l88 60l8 -14q-57 -53 -78 -73q-21 -21 -44 -60l-46 38q21 19 28 32v461v0v0zM396 582l60 -24q12 -6 10 -12q0 -4 -24 -16v-178q2 -69 8 -104q6 -36 12 -60q8 -25 16 -22q7 0 14 28q6 24 18 70l18 -4
q-11 -64 -16 -86q-3 -21 -6 -37q-4 -18 2 -30q4 -9 2 -18q0 -8 -12 -8t-30 18q-18 15 -36 49q-15 32 -24 86q-9 51 -12 112v236v0v0zM144 514l6 8q31 -12 50 -26q20 -12 26 -26q3 -15 -2 -26q-7 -12 -20 -12q-10 0 -16 10q-4 9 -10 28q-7 16 -34 44v0v0zM144 366l6 8
q31 -12 50 -26q20 -12 26 -26q3 -15 -2 -26q-7 -12 -20 -12q-10 0 -16 10q-4 9 -10 28q-7 16 -34 44v0v0zM296 514l6 8q32 -12 52 -26q18 -12 24 -26q6 -15 -2 -26q-6 -12 -18 -12q-11 0 -16 10q-3 9 -12 28q-7 16 -34 44v0v0zM296 366l6 8q32 -12 52 -26q18 -12 24 -26
q6 -15 -2 -26q-6 -12 -18 -12q-11 0 -16 10q-3 9 -12 28q-7 16 -34 44v0v0zM472 504q46 87 80 174q32 84 74 234l72 -30q6 -7 0 -16q-18 -3 -26 -12q-7 -9 -32 -66q-24 -54 -56 -132q-33 -76 -96 -160l-16 8v0v0zM726 974l64 -20q12 -12 -6 -20l-24 -10q12 -78 42 -144
q27 -66 72 -108q42 -41 102 -64v-14h-44q-19 0 -50 -18q-53 63 -76 102q-23 38 -46 106q-23 66 -34 190v0v0z" />
  </g>

</svg>
