<?xml version="1.0" standalone="no"?>
<!DOCTYPE svg PUBLIC "-//W3C//DTD SVG 1.1//EN" "http://www.w3.org/Graphics/SVG/1.1/DTD/svg11.dtd" >
<svg xmlns="http://www.w3.org/2000/svg" xmlns:xlink="http://www.w3.org/1999/xlink" version="1.1" viewBox="0 -205 1024 1024">
  <g transform="matrix(1 0 0 -1 0 819)">
   <path fill="currentColor"
d="M572 842h126v134l78 -34q9 -7 -2 -14l-30 -14v-72h90l26 32l48 -34q7 -5 8 -10q-1 -6 -28 -24v-92h32l30 38l44 -48q3 -3 4 -2q3 -12 -6 -12h-104v-60l4 -62q0 -15 -20 -24q-18 -9 -30 -8v32h-98v-106h92l28 36q54 -44 54 -52q0 -9 -8 -8h-166v-108h132l30 36l50 -44
q3 -3 4 -6q0 -10 -12 -10h-204v-38l4 -68q1 -15 -18 -30q-21 -12 -36 -14l4 104v46h-86q-18 -1 -60 -10l-14 34h160v108h-58q-21 0 -60 -6l-16 30h134v106h-50q-21 0 -48 -8l-18 32h116v98h-102q-18 0 -48 -8l-20 32h170v104h-54q-25 -1 -46 -10l-26 34v0v0zM744 818v-104
h98v104h-98v0v0zM744 690v-98h98v98h-98v0v0zM454 840l24 30l52 -40q9 -6 0 -12q12 4 -26 -16l-90 -242h62l28 34l48 -40q7 -5 8 -10l-28 -20q-6 -74 -20 -148q-12 -72 -36 -134q39 -51 82 -74q42 -22 96 -33q53 -11 178 -14l158 4v-20q-42 -4 -60 -14q-19 -8 -22 -28
l-104 2q-118 16 -170 28q-52 13 -100 44q-46 27 -74 69q-34 -83 -160 -179l-6 14q97 89 140 199q-45 69 -78 192l16 4q39 -93 78 -156q18 77 24 134t12 120h-64l-24 -24l-54 44l34 22l80 238h-70q-9 0 -36 -6l-22 32h124v0v0zM112 944l44 -46h100l30 38l54 -42q9 -6 10 -12
q-1 -6 -34 -24v-694q3 -41 -8 -67q-9 -26 -62 -44q-4 25 -26 40q-22 16 -82 34l6 17q62 -13 82 -17q20 -1 32 6q12 5 10 31v246h-108q-4 -73 -16 -130q-13 -56 -40 -130q-27 -71 -72 -123l-12 10q36 75 54 139q17 63 28 138q12 73 10 224v406v0v0zM162 436h106v210h-106
v-210v0v0v0zM162 672h106v196h-106v-196v0v0z" />
  </g>

</svg>
