<?xml version="1.0" standalone="no"?>
<!DOCTYPE svg PUBLIC "-//W3C//DTD SVG 1.1//EN" "http://www.w3.org/Graphics/SVG/1.1/DTD/svg11.dtd" >
<svg xmlns="http://www.w3.org/2000/svg" xmlns:xlink="http://www.w3.org/1999/xlink" version="1.1" viewBox="0 -36 256 256">
  <g transform="matrix(1 0 0 -1 0 220)">
   <path fill="currentColor"
d="M226 231l16 -17h-196q-9 0 -19 -2l-10 9h105q-2 14 -19 24l2 2q22 -5 29.5 -11.5t-3.5 -14.5h80zM52 179.5q0 16.5 -1 28.5l14 -6h56q4 6 4 11l16 -7l-5 -3q0 -1 -1 -1h58l8 7l14 -12l-8 -5v-32q0 -3 -2 -7.5t-14 -7.5q-7 10 -37 12v3q35 -2 37.5 -1.5t2.5 6.5v30h-60
q-1 2 2 1q20 -4 29 -6.5t13.5 -5.5t2.5 -9.5t-16 3.5t-34 17q-7 -5 -18.5 -9.5t-33.5 -8.5l-1 3q26 5 38 15h-51v-41l-14 -6q1 15 1 31.5zM142 181q-5 -2 -9 -4q20 -3 29 -5t11.5 -6t-1 -6t-12 2.5t-28.5 11.5q-11 -5 -21.5 -10t-33.5 -7l-1 3q19 4 31.5 11t20.5 17zM53 143
h146l8 6l14 -11l-6 -6v-24q0 -17 1 -21l-16 -5v6h-145v-1l-16 -3q1 12 1 34t-1 29zM55 95h145v41h-145v-41zM168 134l10 -10l-8 -1q-11 -5 -25 -11q21 -3 29.5 -6t6 -8t-13 -1t-33.5 10q-27 -8 -60 -11l-2 3q27 5 46 12q-11 4 -39 8l2 2q24 -1 51 -5q10 3 19 7h-44
q-10 0 -20 -2l-9 9h80zM156 24h36v42h-36v-42zM40 80l15 -7h136l10 8l15 -12l-11 -4v-41h12l14 10l18 -17h-212q-11 0 -20 -2l-9 9h34q0 41 -2 56zM55 24h36v42h-36v-42zM104 24h40v42h-40v-42z" />
  </g>

</svg>
