<?xml version="1.0" standalone="no"?>
<!DOCTYPE svg PUBLIC "-//W3C//DTD SVG 1.1//EN" "http://www.w3.org/Graphics/SVG/1.1/DTD/svg11.dtd" >
<svg xmlns="http://www.w3.org/2000/svg" xmlns:xlink="http://www.w3.org/1999/xlink" version="1.1" viewBox="0 -36 256 256">
  <g transform="matrix(1 0 0 -1 0 220)">
   <path fill="currentColor"
d="M49 64v98q-21 -27 -38 -42l-2 3q13 16 22.5 31t24.5 43t22 48l17 -13q-4 -2 -11.5 -14.5t-24.5 -40.5l10 -7l-7 -6v-148l-14 -7q1 27 1 55zM105 225l16 -11l-7 -5q-19 -25 -37 -43l-3 3q20 27 31 56zM129 226q34 -22 26 -35t-11 -1.5t-17 34.5zM134 174q-8 -4 -11 -11
q40 -28 34.5 -43.5t-12 1t-24.5 39.5q-10 -21 -25 -43l13 -7h24l7 9l13 -13l-7 -6q0 -34 1 -63l-14 -6v14h-24v-19l-14 -5q1 23 1 47v49q-10 -15 -22 -27l-3 2q26 36 44 94zM109 103v-51h24v51h-24zM179 244l22 -9l-8 -7v-44h20l8 10l14 -13l-8 -6q-1 -50 1 -83t8 -46l8 36
h3q-3 -48 -2 -71q-13 11 -20 27.5t-9 46.5t-2 92h-21q-1 -33 -4 -60q12 -9 17.5 -17t4 -15t-4 -9t-7 7t-12.5 21q-7 -33 -17 -53t-29 -41l-2 3q13 19 22.5 43t14.5 58q-8 10 -22 24l1 3q8 -5 23 -16q2 24 2 52h-9l-8 -3l-10 10h27q0 34 -1 60z" />
  </g>

</svg>
