<?xml version="1.0" standalone="no"?>
<!DOCTYPE svg PUBLIC "-//W3C//DTD SVG 1.1//EN" "http://www.w3.org/Graphics/SVG/1.1/DTD/svg11.dtd" >
<svg xmlns="http://www.w3.org/2000/svg" xmlns:xlink="http://www.w3.org/1999/xlink" version="1.1" viewBox="0 -144 1024 1024">
  <g transform="matrix(1 0 0 -1 0 880)">
   <path fill="currentColor"
d="M842 109l-4 3l-5 4l-13 11h-1l7 12l8 19l8 26l7 32l6 39l6 44l3 51l3 57l2 63l1 57h-147l-3 -57l-9 -70l-14 -64l-19 -60l-24 -55l-30 -50l-34 -44l-39 -39l-44 -33l-49 -26l-5 8l41 34l36 37l32 41l28 43l22 48l18 52l14 56l10 60l5 66l1 53h-177v22h177v139l65 -10
l16 -11l-16 -10v-108h145l32 27l59 -49l-27 -16l-1 -42l-1 -64l-3 -59l-4 -53l-6 -47l-6 -42l-8 -36l-10 -32l-11 -27l-15 -23l-13 11l-1 1l-1 1l-2 1l-2 2l-2 2l-1 1l-4 3zM819 127l50 -41l-8 -9l-10 -9l-10 -9l-11 -7l-11 -5l-12 -5l-12 -5l-12 -2l-13 -2h-13v32l-108 16
v16h108l7 1l8 1l13 3l6 3l6 3l6 4l5 4zM311 984l64 -11l16 -10l-16 -10v-103h24l24 32l33 -32v-22h-81v-123l-64 -33v43h-38v-107h75l32 27l60 -49l-27 -21v-204l-65 -33v54h-75v-134h64l54 53l65 -53v-22h-183v-161l-65 -32v193h-182v22h182v134h-80v-38l-65 -32v328
l65 -32h80v107h-32v-16l-64 -32v161h-86v22h86v134l64 -11l16 -10l-16 -10v-103h135v134zM208 586h-80v-182h80v182zM348 586h-75v-182h75v182zM546 704v-65l-65 -32v352l65 -32h336l32 26l59 -48l-27 -21v-213l-64 -32v65h-336zM614 905h-68v-180h68v180zM748 905h-69v-180
h69v180zM882 905h-69v-180h69v180zM311 828h-135v-91h135v91z" />
  </g>

</svg>
