<?xml version="1.0" standalone="no"?>
<!DOCTYPE svg PUBLIC "-//W3C//DTD SVG 1.1//EN" "http://www.w3.org/Graphics/SVG/1.1/DTD/svg11.dtd" >
<svg xmlns="http://www.w3.org/2000/svg" xmlns:xlink="http://www.w3.org/1999/xlink" version="1.1" viewBox="0 -200 1000 1000">
  <g transform="matrix(1 0 0 -1 0 800)">
   <path fill="currentColor"
d="M221 912q17 0 34 -9.5t38 -25.5l-28 -19v-171h50l30 37q15 -5 29.5 -16t20.5 -22l-26 -27v-243q-22 -22 -44 -22v39h-60v-215l78 24q-4 26 -9.5 54.5t-13.5 59.5l6 1q40 -76 55 -120t15 -67q0 -13 -4 -21t-10 -13t-12 -7t-10 -2q-16 0 -16 22q0 8 2 18t2 23q0 17 -3 41
l-223 -113q-1 1 -11.5 12t-18.5 46l15 -4l114 33v228h-60v-17q-21 -22 -43 -22v322q26 0 64 -29h39v225zM526 617l-18 -4l-12 16h258l28 38q20 -9 34 -22.5t22 -23.5v250h-329l-19 -13v-724q-22 -22 -44 -22v800q15 0 30.5 -8t33.5 -21h318l29 37q16 -5 30.5 -16t20.5 -23
l-27 -26v-694q0 -17 -14.5 -30t-31.5 -13q0 4 -4.5 15t-13 26t-21 32.5t-28.5 34.5l5 6q26 -29 41.5 -40t20.5 -11q3 0 3 2v434h-312zM751 514q17 0 34 -9t38 -26l-28 -18v-172q-22 -22 -44 -22v39h-175l-22 -29q-28 11 -43 35l21 22v180q17 0 34 -9t38 -26l-28 -18v-143h66
v271q17 0 33.5 -9t38.5 -26l-29 -19v-217h66v196zM325 675h-60v-230h60v230zM161 445h60v230h-40l-20 -13v-217zM749 845q19 -4 36 -12t25 -17l-24 -16q-11 -48 -34.5 -82.5t-50.5 -51.5l-3 3q17 23 30.5 68t20.5 108zM552 851q55 -55 74.5 -86.5t19.5 -48.5q0 -9 -4.5 -16
t-10 -11.5t-11.5 -7t-9 -2.5q-13 0 -13 20v12q0 22 -15.5 60t-35.5 78z" />
  </g>

</svg>
