<?xml version="1.0" standalone="no"?>
<!DOCTYPE svg PUBLIC "-//W3C//DTD SVG 1.1//EN" "http://www.w3.org/Graphics/SVG/1.1/DTD/svg11.dtd" >
<svg xmlns="http://www.w3.org/2000/svg" xmlns:xlink="http://www.w3.org/1999/xlink" version="1.1" viewBox="0 -36 256 256">
  <g transform="matrix(1 0 0 -1 0 220)">
   <path fill="currentColor"
d="M203.5 32q7.5 0 11 7t4.5 33t1 128h-93q-19 -27 -38 -39l-2 2q34 41 44 84l19 -13l-6 -3q-8 -11 -14 -24h88l9 13l14 -13l-7 -6q0 -134 -2 -155t-10 -27.5t-18 -9.5q0 17 -27 20v4q19 -1 26.5 -1zM159 146h27l7 10l11 -12l-5 -6v-22q0 -16 1 -29l-13 -5v7h-28v-19h33
l12 12l13 -19h-58v-8q0 -14 1 -26l-15 -6q1 13 1 29v11h-25q-10 0 -19 -2l-9 9h53v19h-24v-3l-13 -4q1 8 1 19v28q0 11 -1 24l13 -7h24v17h-15q-10 0 -19 -2l-9 9h43q0 15 -1 27l21 -9l-7 -7v-11h24l12 12l14 -19h-50v-17zM159 139v-18h28v18h-28zM187 96v18h-28v-18h28z
M122 96h24v18h-24v-18zM122 139v-18h24v18h-24zM104 83l1 -5q-80 -36 -80 -44l-14 19q27 7 40 12v69h-6q-10 0 -19 -2l-9 9h34v66h-9q-10 -1 -19 -3l-9 10h64l13 12l16 -19h-43v-66h12l12 13l14 -20h-38v-65z" />
  </g>

</svg>
