<?xml version="1.0" standalone="no"?>
<!DOCTYPE svg PUBLIC "-//W3C//DTD SVG 1.1//EN" "http://www.w3.org/Graphics/SVG/1.1/DTD/svg11.dtd" >
<svg xmlns="http://www.w3.org/2000/svg" xmlns:xlink="http://www.w3.org/1999/xlink" version="1.1" viewBox="0 -339 2048 2048">
  <g transform="matrix(1 0 0 -1 0 1709)">
   <path fill="currentColor"
d="M979 1290q-48 -85 -103 -153q-45 -54 -104 -109q-22 -20 -64 -57l-30 31q30 33 45.5 51t36.5 48q59 82 97 152q50 90 86 204q15 44 34 118l102 -34q48 -16 60 -28t12 -25q0 -23 -45 -30l-49 -8q-17 -41 -36 -79l-10 -22l738 -1l68 76l84 -54q28 -18 34 -29q6 -10 6 -20
q0 -9 -6 -19q-7 -12 -30 -23q-7 -4 -42 -19q-9 -290 -27 -569q-16 -237 -39 -372q-28 -164 -125 -226q-40 -26 -117 -41q-4 35 -16 52q-14 23 -67 40q-40 13 -133 34l8 46q157 -28 210 -28q55 0 85 21q27 19 40 55q27 73 40 212q22 232 31 412q9 185 12 394h-786zM1060 1023
h308l100 102l120 -107q11 -11 14 -17q2 -5 2 -9q0 -10 -6 -17q-8 -10 -21 -10h-287v-189h177l98 100l121 -107q10 -9 11 -11q3 -3 5 -10q1 -3 1 -5q0 -10 -8 -18q-3 -4 -7 -5q-3 -1 -18 -1h-380v-301h212v88q0 39 -3 122q-1 21 -4 38l108 -24q60 -13 73 -24q13 -10 13 -22
q0 -10 -10 -21q-12 -13 -40 -20l-41 -12v-53q0 -60 2 -79q1 -9 7 -59q1 -7 1 -15q0 -16 -5 -26q-4 -7 -12 -11q-19 -9 -46 -9q-24 0 -33 11q-10 12 -10 35v24h-521q-23 -11 -40 -13q-12 -2 -24 -2q-15 0 -22 5q-10 6 -10 29v130q-4 130 -4 137q-1 9 -3 23l109 -24
q59 -13 72 -24q13 -10 13 -22q0 -10 -10 -21q-13 -13 -39 -20l-42 -12v-129h213v301h-251q-28 0 -98 -5q-24 -2 -50 -5l-39 86q68 -11 87 -13q8 0 51 -4q36 -2 49 -2h251v189h-182q-42 -49 -79 -84q-33 -31 -83 -66l-23 26q41 44 72 88q52 73 85 143q29 58 60 156l120 -40
q35 -12 35 -31q0 -13 -12 -23q-8 -7 -21 -9l-43 -5q-39 -65 -63 -97zM1434 1687l-13 -98q-4 -32 -10 -39q-13 -16 -46 -16q-21 0 -34 7q-9 6 -9 21q0 3 1 9l19 116h-87q-38 0 -98 -5q-18 -1 -51 -6l-39 86q123 -18 188 -18h96l25 199l130 -35q38 -10 38 -28q0 -10 -8 -19
q-7 -7 -23 -13q-15 -6 -57 -18l-13 -86h306l95 98l120 -102q17 -15 17 -27q0 -9 -6 -16q-9 -10 -21 -10h-520zM669 1748h117l84 87l119 -90q18 -14 18 -28q0 -9 -5 -15q-10 -11 -23 -11h-304l8 -94q0 -6 -1 -15q0 -6 -2 -9t-8 -7q-19 -13 -45 -13q-17 0 -28 8q-7 4 -8 25
l-9 105h-313q-38 0 -98 -5q-18 -1 -51 -6l-39 86q123 -18 188 -18h307l-20 197l98 -13q35 -5 63 -17q14 -6 19 -15q2 -4 2 -8q0 -7 -7 -15q-11 -11 -28 -17q-20 -7 -45 -14zM280 1400v-1045q0 -140 9 -213q4 -32 4 -48q0 -23 -12 -35t-39 -12q-28 0 -41 12q-15 12 -15 41
v1306q-2 69 -9 108q-2 11 -6 30l118 -88h282l62 70l78 -57q42 -31 50 -50q3 -7 3 -11q0 -3 -3.5 -8t-7.5 -8q-13 -10 -30 -16q-27 -12 -64 -26q-97 -158 -154 -241q-25 -36 -62 -87q95 -63 136 -104q55 -56 91 -120q44 -81 44 -174q0 -72 -25 -121q-32 -62 -105 -97
q-28 -14 -69 -24q-3 17 -6.5 26t-12.5 19q-20 26 -63 49q-49 26 -128 45l10 45q43 -15 77 -25q82 -24 120 -24t68 23q22 16 30 53q7 30 7 61q0 123 -85 234q-34 43 -85 84q-20 16 -54 42q113 208 186 386h-299z" />
  </g>

</svg>
