<?xml version="1.0" standalone="no"?>
<!DOCTYPE svg PUBLIC "-//W3C//DTD SVG 1.1//EN" "http://www.w3.org/Graphics/SVG/1.1/DTD/svg11.dtd" >
<svg xmlns="http://www.w3.org/2000/svg" xmlns:xlink="http://www.w3.org/1999/xlink" version="1.1" viewBox="0 -36 256 256">
  <g transform="matrix(1 0 0 -1 0 220)">
   <path fill="currentColor"
d="M30 214v-121h17v121h-17zM18 88v96q0 24 -1 46l12 -9h18l7 8l12 -12l-7 -8v-108q0 -17 1 -34l-13 -8v27h-17v-22l-13 -7q1 15 1 31zM105 221h-20v-132q13 -2 18 0.5t3.5 22.5t-16.5 47zM73 129.5q0 77.5 -1 105.5l13 -7h20l6 8l12 -11l-6 -7q-11 -33 -21 -59
q19 -26 22 -44t-2 -28.5t-15 -15.5q-4 11 -16 14v-66l-13 -6q1 39 1 116.5zM182 112h34v18h-34v-18zM182 88h34v17h-34v-17zM180 211q5 15 8 32l18 -9q-4 -3 -6.5 -8.5t-6.5 -14.5h30l10 10l14 -17h-56q-4 -9 -9 -17h33l9 8l14 -15h-30v-19h14l10 9l14 -16h-58q-10 0 -19 -2
l-9 9h36v19h-17q-10 -14 -30 -28l-2 2q11 12 18 24t13 26q-16 0 -23 -3l-9 10h34zM182 137h33l7 7l12 -13l-6 -5v-65q1 -10 -2.5 -15t-13.5 -7q0 9 -19 15v4q14 -2 18.5 -2t4.5 10v15h-34v-36l-13 -6q1 17 1 47.5t-1 57.5zM145.5 203q3.5 -6 2 -11.5t-5.5 -8t-6 10t-11 27.5
l2 2q15 -14 18.5 -20zM230 14q-30 0 -51.5 6.5t-43.5 32.5q-14 -14 -20 -29l-12 12q13 10 27 22q7 28 10 50h-11l-7 -7l-9 11l9 6l15 37h-13l-5 -3l-8 10h26l6 7l12 -11l-6 -6q-12 -22 -18 -37h10l5 7l12 -10l-6 -6q-6 -26 -13 -48q13 -14 28 -20t34 -8t45 0v-5
q-15 -1 -16 -11z" />
  </g>

</svg>
