<?xml version="1.0" standalone="no"?>
<!DOCTYPE svg PUBLIC "-//W3C//DTD SVG 1.1//EN" "http://www.w3.org/Graphics/SVG/1.1/DTD/svg11.dtd" >
<svg xmlns="http://www.w3.org/2000/svg" xmlns:xlink="http://www.w3.org/1999/xlink" version="1.1" viewBox="0 -36 256 256">
  <g transform="matrix(1 0 0 -1 0 220)">
   <path fill="currentColor"
d="M149.5 170q4.5 -7 2.5 -15.5t-6.5 -10.5t-6.5 10t-13 35l3 2q16 -14 20.5 -21zM205 168.5q5 -7.5 3 -15.5t-6 -10t-6.5 9.5t-13.5 34.5l2 2q16 -13 21 -20.5zM202.5 94.5q-8.5 -12.5 -14.5 -24.5l-14 13q14 9 24.5 20t22.5 26v94h-16q-10 0 -19 -2l-9 9h42l7 8l14 -13
l-7 -4v-188q0 -12 -4 -17t-15 -9q2 11 -27 21v4q20 -3 27 -2.5t7 12.5v77q-10 -12 -18.5 -24.5zM156 30q6 0 6 13v77q-27 -35 -31 -46l-14 13q6 3 45 45v91h-12q-10 0 -19 -2l-9 9h38l8 9l13 -15l-7 -4v-187q0 -21 -21 -25q0 12 -22 21v4q19 -3 25 -3zM59 183h18v33h-18v-33
zM28 176v-5l-12 -4q1 15 1 28.5t-1 34.5l12 -7h20q4 9 8 26l16 -9q-9 -3 -20 -17h54l6 9l13 -11l-6 -6q0 -28 1 -41l-12 -6v8h-80zM28 183h20v33h-20v-33zM88 183h20v33h-20v-33zM60 177l19 -5l-5 -5v-15h21l9 8l14 -15h-44v-20h29l10 9l14 -16h-89q-11 0 -20 -2l-9 9h53v20
h-14q-10 0 -19 -2l-10 9h42q0 18 -1 25zM59.5 101.5q1.5 -5.5 -4 -9.5t-8.5 3.5t-15 19.5l3 2q23 -10 24.5 -15.5zM62 50h-22q-11 0 -20 -2l-9 9h51v26h-16q-10 0 -20 -2l-9 9h57q11 14 15 28l18 -8l-6 -3q-15 -13 -21 -17h17l9 7l13 -14h-44v-26h25l10 9l15 -16h-50
q-8 -33 -50 -42l-3 3q34 14 40 39z" />
  </g>

</svg>
