<?xml version="1.0" standalone="no"?>
<!DOCTYPE svg PUBLIC "-//W3C//DTD SVG 1.1//EN" "http://www.w3.org/Graphics/SVG/1.1/DTD/svg11.dtd" >
<svg xmlns="http://www.w3.org/2000/svg" xmlns:xlink="http://www.w3.org/1999/xlink" version="1.1" viewBox="0 -36 256 256">
  <g transform="matrix(1 0 0 -1 0 220)">
   <path fill="currentColor"
d="M53 42v95h-23l-7 -6l-12 13l8 5q0 44 -1 62l21 -9l-7 -6v-52h21q0 69 -1 96l22 -12l-7 -7v-77h25q0 51 -1 67l21 -10l-7 -7v-40l1 -22l-14 -8v13h-25v-95h25v51q0 14 -1 22l21 -12l-7 -6v-49q0 -9 1 -17l-14 -7v11h-65l-7 -7l-11 10l6 5q0 58 -1 72l21 -9l-7 -6v-58h25z
M127 221l11 -7h19q6 25 6 33l22 -9l-7 -3l-14 -21h42l6 10l14 -10l-6 -7v-37l1 -15l-15 -6v6h-64v-19h80l11 11l14 -18h-105v-20h84l8 9l14 -12l-9 -7q-1 -47 -3.5 -60t-10 -21.5t-18.5 -9.5q1 12 -21 15v5q16 -2 23 -2t10.5 8t4.5 27t1 41h-83v-4l-15 -4q1 11 1 27v72
q0 14 -1 28zM206 207h-64v-21h64v21zM206 179h-64v-17h64v17zM193.5 63.5q3.5 -8.5 -1.5 -13.5t-9 -4.5t-4 8t-2.5 16.5t-6.5 15l3 2q17 -15 20.5 -23.5zM218 70q5 -8 1 -14.5t-8.5 -7t-4 6.5t-3 18t-6.5 16l3 2q13 -13 18 -21zM164 63.5q4 -9.5 0 -16t-9 -6.5t-4.5 9.5
t-1.5 18t-3 14.5l3 2q11 -12 15 -21.5zM132.5 51.5q-3.5 -9.5 -10.5 -11.5t-11 2.5t4 10.5t11 14.5t4 15.5l4 1q2 -23 -1.5 -32.5z" />
  </g>

</svg>
