<?xml version="1.0" standalone="no"?>
<!DOCTYPE svg PUBLIC "-//W3C//DTD SVG 1.1//EN" "http://www.w3.org/Graphics/SVG/1.1/DTD/svg11.dtd" >
<svg xmlns="http://www.w3.org/2000/svg" xmlns:xlink="http://www.w3.org/1999/xlink" version="1.1" viewBox="0 -205 1024 1024">
  <g transform="matrix(1 0 0 -1 0 819)">
   <path fill="currentColor"
d="M532 796h-86q-25 0 -44 -12l-28 38h158v154l88 -36q12 -10 -2 -16l-34 -8v-94h182v158l80 -30q15 -6 4 -18l-30 -10v-100h78l34 46l56 -52q13 -18 -4 -20h-164v-92l4 -46q0 -10 -20 -22q-18 -10 -36 -10v36h-66v-84h172l32 34l54 -44q8 -7 8 -14q1 -6 -34 -24v-429
q0 -31 -20 -50q-19 -15 -46 -28q-10 33 -34 48q-25 13 -74 28l4 18q80 -18 110 -12q9 5 10 34v411h-182v-406l4 -75q3 -12 -20 -28q-22 -16 -38 -14l4 117v406h-182v-415l4 -74q-1 -14 -22 -26q-22 -15 -34 -12l2 110v491l54 -46h178v84h-68v-8q-1 -12 -22 -24
q-19 -9 -34 -8l4 88v86v0v0zM584 688h184v108h-184v-108v0v0zM110 904l56 -44h116l26 40l58 -42q6 -6 6 -8q0 -6 -26 -26v-592l4 -107q0 -12 -18 -22q-15 -8 -36 -10v91h-138v-99q0 -12 -20 -24q-19 -12 -32 -12l4 119v736v0v0zM158 210h138v204h-138v-204v0v0zM158 440h138
v196h-138v-196v0v0zM158 662h138v172h-138v-172v0v0zM486 194q29 62 68 194q-21 48 -42 82l14 8q45 -55 72 -104q24 -48 36 -84q10 -37 2 -58q-9 -21 -26 -18q-18 2 -18 26q0 23 -6 44q-3 21 -12 48q-31 -91 -76 -146l-12 8v0v0zM712 214q29 62 68 194q-21 48 -42 82l14 8
q45 -55 72 -104q24 -48 36 -84q10 -37 2 -58q-9 -21 -26 -18q-18 2 -18 26q0 23 -6 44q-3 21 -12 48q-31 -91 -76 -146l-12 8v0v0z" />
  </g>

</svg>
