<?xml version="1.0" standalone="no"?>
<!DOCTYPE svg PUBLIC "-//W3C//DTD SVG 1.1//EN" "http://www.w3.org/Graphics/SVG/1.1/DTD/svg11.dtd" >
<svg xmlns="http://www.w3.org/2000/svg" xmlns:xlink="http://www.w3.org/1999/xlink" version="1.1" viewBox="0 -205 1024 1024">
  <g transform="matrix(1 0 0 -1 0 819)">
   <path fill="currentColor"
d="M364 25q102 36 180 78q77 38 128 83q-84 81 -140 198h-10q-22 0 -46 -8l-18 34h374l38 38l52 -48q10 -5 8 -16q-1 -2 -16 -10q-13 -7 -28 -14q-75 -117 -152 -176q66 -41 108 -55q39 -13 76 -20q35 -8 92 -10v-20q-43 -1 -64 -14q-19 -12 -28 -28q-64 25 -104 46
q-38 21 -112 75q-64 -49 -136 -83q-71 -29 -196 -68l-6 18v0v0zM560 384q65 -105 142 -174q87 78 136 174h-278v0v0zM462 678h110v128l88 -30v-8q0 -3 -36 -18v-72h158v122l82 -30q2 -4 2 -8q0 -3 -32 -18v-66h60l34 42l56 -52q3 -3 4 -8q-1 -9 -4 -8h-150v-104l4 -62
q-1 -13 -22 -22q-22 -9 -34 -8v46h-158v-20q-1 -13 -20 -22q-18 -9 -36 -8l4 100v100h-46q-25 0 -40 -8l-24 34v0v0zM624 528h158v124h-158v-124v0v0zM898 848l38 44l66 -58q3 -6 4 -6q-1 -7 -10 -8h-546v-184q3 -214 -38 -364q-39 -149 -156 -259l-10 12q89 105 122 249
q34 142 30 350v270l62 -46h438v0v0zM596 976l8 12q65 -24 92 -38q23 -16 32 -34q6 -17 -2 -34q-7 -16 -28 -14q-19 0 -28 24q-6 22 -18 38q-12 15 -56 46v0v0zM90 888l56 -40h102l32 40l54 -38q12 -6 12 -14q-1 -3 -34 -30v-398l4 -100q0 -12 -14 -24q-16 -13 -40 -16v80
h-122v-88q0 -12 -20 -24q-19 -12 -34 -12l4 138v526v0v0zM140 378h122v440h-122v-440v0v0z" />
  </g>

</svg>
