<?xml version="1.0" standalone="no"?>
<!DOCTYPE svg PUBLIC "-//W3C//DTD SVG 1.1//EN" "http://www.w3.org/Graphics/SVG/1.1/DTD/svg11.dtd" >
<svg xmlns="http://www.w3.org/2000/svg" xmlns:xlink="http://www.w3.org/1999/xlink" version="1.1" viewBox="0 -36 256 256">
  <g transform="matrix(1 0 0 -1 0 220)">
   <path fill="currentColor"
d="M78 234l-7 -7v-64q18 24 19 39l16 -12q-5 -4 -12.5 -12t-22.5 -22q0 -24 -3 -60q22 -11 29 -20.5t3.5 -19.5t-6.5 -8t-9 14.5t-18 28.5q-10 -54 -55 -84l-2 3q33 36 40.5 68t7 72.5t-1.5 95.5zM34.5 142.5q-4.5 -9.5 -10.5 -11.5t-9.5 3.5t5 13.5t15.5 35h4
q0 -31 -4.5 -40.5zM129 192h86v31h-86v-31zM229 183l-14 -5v7h-86q1 -72 -8.5 -112t-36.5 -65l-2 3q22 32 28 69.5t6 87.5t-1 70l14 -8h85l6 9l14 -11l-6 -7q0 -23 1 -38zM151.5 132.5q9.5 12.5 14.5 23.5h-15l-11 -3l-10 10h77l11 10l17 -17h-51q-13 -16 -34 -38l58 2
q-8 14 -13 20l2 4q22 -16 27.5 -25t-0.5 -18.5t-8 -1t-6 16.5q-56 -8 -66 -17l-9 19q7 2 16.5 14.5zM171 105l21 -9l-7 -6v-18h25l10 11l18 -18h-53v-35h36l10 11l18 -18h-106q-13 0 -22 -3l-10 10h61v35h-14q-13 0 -22 -3l-10 10h46q0 13 -1 33z" />
  </g>

</svg>
