<?xml version="1.0" standalone="no"?>
<!DOCTYPE svg PUBLIC "-//W3C//DTD SVG 1.1//EN" "http://www.w3.org/Graphics/SVG/1.1/DTD/svg11.dtd" >
<svg xmlns="http://www.w3.org/2000/svg" xmlns:xlink="http://www.w3.org/1999/xlink" version="1.1" viewBox="0 -205 1024 1024">
  <g transform="matrix(1 0 0 -1 0 819)">
   <path fill="currentColor"
d="M124 900h-42q-17 -1 -34 -8l-18 34h364l32 42l56 -48q3 -3 4 -8q0 -12 -14 -12h-120v-520l78 24l8 -16l-86 -36v-200l4 -67q0 -15 -20 -30q-19 -12 -38 -12l4 111v178q-159 -63 -180 -78q-22 -12 -40 -30l-46 56l88 30v590v0v0zM174 324l128 40v154h-128v-194v0v0z
M174 544h128v170h-128v-170v0v0zM174 740h128v160h-128v-160v0v0zM372 842h206l24 32l68 -42q6 -3 4 -12q1 -4 -10 -10q-24 -9 -30 -38q-7 -27 -22 -96t-42 -138q35 -60 62 -114q25 -54 32 -98q7 -42 -4 -60q-12 -15 -32 -12q-19 3 -22 36q-2 33 -16 88q-15 52 -44 110
q-33 -73 -72 -130q-37 -54 -88 -114l-12 10q36 57 76 126q36 69 72 156q-57 111 -120 210l16 8q67 -84 122 -174q18 68 30 130t18 106h-144q-21 0 -42 -8l-30 34v0v0zM924 952l58 -52q9 -6 10 -14q1 -4 -10 -10q-21 -3 -48 -44q-36 -85 -84 -200q66 -72 94 -114
q26 -41 38 -88q12 -45 4 -80q-7 -33 -26 -60q-18 -25 -80 -62q-13 32 -32 44q-18 9 -78 28l6 20q52 -13 80 -14q27 -1 46 10q15 10 28 38q12 27 4 70q-7 41 -26 80q-18 39 -90 126l84 254h-146v-708l4 -103q0 -14 -20 -26q-21 -14 -36 -14l4 141v782l64 -44h118l34 40v0v0z
" />
  </g>

</svg>
