<?xml version="1.0" standalone="no"?>
<!DOCTYPE svg PUBLIC "-//W3C//DTD SVG 1.1//EN" "http://www.w3.org/Graphics/SVG/1.1/DTD/svg11.dtd" >
<svg xmlns="http://www.w3.org/2000/svg" xmlns:xlink="http://www.w3.org/1999/xlink" version="1.1" viewBox="0 -154 1024 1024">
  <g transform="matrix(1 0 0 -1 0 870)">
   <path fill="currentColor"
d="M946 618v-495q1 -23 -10 -44t-59 -30q-4 35 -26 44q-24 9 -61 17v16q57 -10 75 -13t31 2q12 5 12 71v137h-191v-142l5 -98q0 -21 -12 -31q-14 -9 -38 -15q6 39 7 191v380q-34 -50 -75 -92l-4 5q0 -2 1 -3q9 -30 14 -60q3 -32 2 -51q-3 -20 -7 -39q-6 -18 -15 -32
q-10 -15 -25 -25q-15 -12 -43 -15q-3 28 -56 48l2 14q38 -15 57 -13q19 0 31 19q12 18 15 40q3 21 2 48q-2 27 -11 66q-11 39 -26 70q-16 30 -36 64q34 121 58 259h-102v-745l5 -98q0 -21 -10 -31q-10 -9 -38 -15q4 39 7 171v729q-5 24 -20 37l12 9l36 -37h99l29 33l48 -41
q11 -9 0 -14q-17 -2 -26 -12l-16 -57q-36 -111 -58 -185q36 -55 49 -81q12 -24 18 -44q72 107 107 194q16 31 26 66h-59q-24 0 -41 -13l-31 33h137q13 36 22 70q19 70 16 80q-3 11 -14 26l7 8l74 -34q10 -11 -4 -14q-16 -6 -24 -18q-17 -64 -35 -118h143l28 40l57 -50
q14 -13 -6 -10h-229q-21 -54 -43 -99q-11 -26 -23 -42l4 -4h185l28 40l44 -38q17 -14 0 -20zM347 729l60 -45q12 -12 0 -14q-28 4 -48 -23q-20 -29 -81 -87q45 -28 69 -47q23 -22 33 -40t8 -39t-16 -21q-16 -1 -22 26t-23 49q-13 18 -48 49l10 -41q15 -69 13 -161
q-1 -92 -15 -150q-12 -59 -40 -94q-27 -33 -84 -44q-3 21 -16 31q-14 12 -80 37l3 15q57 -17 80 -20q22 -3 45 1q24 5 42 51t24 115q6 68 5 110q-3 32 -6 73q-19 -33 -41 -68q-41 -63 -86 -108q-47 -47 -105 -84l-7 14q53 49 90 94q38 43 72 97q30 46 66 120q-7 37 -19 79
q-3 6 -4 13q-17 -27 -38 -59q-32 -46 -69 -83q-38 -39 -94 -77l-7 14q44 42 75 79q31 35 61 80q27 40 54 95q-13 33 -34 71q-20 -31 -45 -58q-40 -46 -97 -87l-11 12q51 52 82 93q31 40 58 88q26 43 51 108h-111q-22 0 -39 -14l-29 34h279l30 40l62 -50q13 -10 -5 -10h-143
q-27 -66 -56 -115q-8 -12 -14 -23q39 -61 62 -122q10 -29 19 -58q37 48 55 79q20 33 22 46q1 14 -5 23zM717 480v-141h191v141h-191zM908 625h-191v-129h191v129z" />
  </g>

</svg>
