<?xml version="1.0" standalone="no"?>
<!DOCTYPE svg PUBLIC "-//W3C//DTD SVG 1.1//EN" "http://www.w3.org/Graphics/SVG/1.1/DTD/svg11.dtd" >
<svg xmlns="http://www.w3.org/2000/svg" xmlns:xlink="http://www.w3.org/1999/xlink" version="1.1" viewBox="0 -36 256 256">
  <g transform="matrix(1 0 0 -1 0 220)">
   <path fill="currentColor"
d="M54 207.5q-4 14.5 -19 32.5l2 2q22 -12 27.5 -19.5t-0.5 -18.5t-10 3.5zM75 195l12 -14l-7 -5q-8 -20 -20 -43v-15l5 -2q12 15 17 32l13 -12q-10 -3 -26 -22q11 -5 17 -11t2 -16.5t-10 3t-18 24.5v-100l-12 -6v105q-19 -22 -40 -40l-2 3q13 15 30.5 41t30.5 62h-26
q-10 0 -19 -2l-9 9h53zM150 210l12 10l14 -17h-63q-10 0 -19 -2l-9 9h65zM158 139l-13 -6v9h-35v-6l-13 -5q1 17 1 30.5t-1 28.5l13 -7h33l8 8l12 -12l-6 -5q0 -26 1 -35zM91 51l-7 15q19 3 38 8q0 13 -1 25l10 -4l13 16h-28q-10 0 -19 -2l-9 9h58l9 7l9 -16q-13 -2 -29 -16
l7 -4l-7 -5v-6q13 3 34 8l1 -3q-18 -8 -35 -14v-38q-2 -16 -21 -22q-1 11 -21 18v4q18 -3 22.5 -3t6.5 10v26q-22 -7 -31 -13zM137 228.5q2 -7.5 -4.5 -14t-9 5.5t-11.5 25l2 2q21 -11 23 -18.5zM110 149h35v27h-35v-27zM231 9q-23 24 -34 46q-19 -26 -53 -48l-2 3
q32 28 48 57q-13 40 -14 81q-9 -15 -17 -21l-2 2q16 28 23 64.5t7 52.5l21 -10l-8 -6q-5 -27 -12 -52h35l11 10l13 -17h-20q-5 -63 -23 -104q23 -36 44 -44v-3q-14 -2 -17 -11zM180 154q4 -44 16 -72q14 35 17 89h-27q-2 -5 -6 -17z" />
  </g>

</svg>
