<?xml version="1.0" standalone="no"?>
<!DOCTYPE svg PUBLIC "-//W3C//DTD SVG 1.1//EN" "http://www.w3.org/Graphics/SVG/1.1/DTD/svg11.dtd" >
<svg xmlns="http://www.w3.org/2000/svg" xmlns:xlink="http://www.w3.org/1999/xlink" version="1.1" viewBox="0 -36 256 256">
  <g transform="matrix(1 0 0 -1 0 220)">
   <path fill="currentColor"
d="M35 207v-121h29v121h-29zM22 81v96q0 24 -1 46l14 -9h29l8 9l16 -14l-11 -7v-108q0 -17 1 -34l-14 -8v27h-29v-22l-14 -7q1 15 1 31zM113 109q-5 -55 -48 -91l-2 3q20 25 28.5 47.5t8 59.5t-1.5 72l15 -12h40q0 45 -1 57l23 -9l-8 -7v-11h32l14 12l19 -19h-65v-23h56l7 8
l18 -14q-10 -2 -30 -23l-3 2l9 20h-71l22 -8l-9 -6v-15l33 3l11 10l15 -14l-59 -5v-13q0 -10 9 -9h26q8 0 12 3.5t16 -4.5q-4 -10 -25 -10h-36q-16 0 -16 13v19l-24 -2l-6 -3l-10 9l40 2q0 18 -1 30h-38v-72zM220.5 41.5q-2.5 -12.5 -9 -19t-17.5 -11.5q-2 15 -23 18v5
q20 -3 26 -2t9 13t5 43h-47q-4 -28 -19 -46t-49 -32l-2 3q30 18 41.5 36t13.5 39q-13 0 -22 -2l-9 9h92l7 9l15 -12l-7 -8q-2 -30 -4.5 -42.5z" />
  </g>

</svg>
