<?xml version="1.0" standalone="no"?>
<!DOCTYPE svg PUBLIC "-//W3C//DTD SVG 1.1//EN" "http://www.w3.org/Graphics/SVG/1.1/DTD/svg11.dtd" >
<svg xmlns="http://www.w3.org/2000/svg" xmlns:xlink="http://www.w3.org/1999/xlink" version="1.1" viewBox="0 -36 256 256">
  <g transform="matrix(1 0 0 -1 0 220)">
   <path fill="currentColor"
d="M186 185l7 10l17 -13l-9 -8v-34v-17l1 -17l-16 -5v5h-117v-4l-16 -6l1 24v48l-1 26l16 -9h117zM69 178v-19h117v19h-117zM69 152v-16h117v16h-117zM69 113h117v16h-117v-16zM127 210h-40q0 -6 1 -16l-17 -6q1 13 1 22h-26q-10 0 -20 -2l-10 9h56q0 19 -1 30l24 -8l-8 -7
v-15h13l13 11zM161 212q-11 0 -20 -2l-10 9h35q0 14 -1 27l24 -9l-8 -6v-12h30l13 11l16 -18h-59q-1 -3 1 -19l-17 -5q1 20 1 24h-5zM104 51l-12 -3q-41 -23 -78 -33l-2 3q51 21 75 49zM226.5 41q10.5 -7 8 -18t-18.5 2t-63 34l1 4q62 -15 72.5 -22zM118 7l1 27v40h-80
q-10 0 -20 -3l-9 10h109q0 8 -1 25l23 -8l-7 -6v-11h77l16 12l20 -19h-113v-36l1 -24z" />
  </g>

</svg>
