<?xml version="1.0" standalone="no"?>
<!DOCTYPE svg PUBLIC "-//W3C//DTD SVG 1.1//EN" "http://www.w3.org/Graphics/SVG/1.1/DTD/svg11.dtd" >
<svg xmlns="http://www.w3.org/2000/svg" xmlns:xlink="http://www.w3.org/1999/xlink" version="1.1" viewBox="0 -52 256 256">
  <g transform="matrix(1 0 0 -1 0 204)">
   <path fill="currentColor"
d="M21 145h22v27h-1q-11 -12 -23 -22l-2 2q1 1 2 3q15 19 18 27q4 6 0 12l1 2l18 -9q0 -2 -1 -2q-5 1 -11 -8h79l6 8l15 -8q2 -5 -1 -5h-18v-27h3l6 8l15 -11q2 -2 -2 -2h-22v-31h5l7 7l14 -10q3 -2 -2 -2h-116q-6 0 -9 -2l-8 7h27v31h-5q-6 0 -10 -2zM229 216l-10 -24
q-4 -7 -9 -21l-10 -20q45 -35 41 -66q-1 -23 -15 -30q-9 -5 -25 -8q1 12 -23 18l1 4q33 -9 40 -2q10 5 9 23q1 11 -6 25q-4 8 -10 15q-2 3 -15 15q-3 3 -5 4q15 33 26 74h-45v-180l1 -22q0 -8 -14 -12v10q1 19 1 32v174q0 7 -7 13l5 5l12 -15h45l8 11l16 -15q3 -3 0 -4
q-1 0 -5 -1q-3 -2 -6 -3zM31 73l10 -9h81l7 10l13 -12q2 -2 1 -3q0 -1 -3 -1l-4 -3v-12l1 -19q2 -10 -11 -11v8h-85v-2q1 -8 -11 -8v9q1 18 1 29v13q0 3 -4 8zM24 242l8 -7h101l9 8l11 -11q2 -1 1 -2l-2 -1l-5 -2v-5l1 -19q0 -12 -10 -11v6h-103v-3q1 -8 -11 -9q1 3 1 11
q1 8 1 12v22q-1 5 -5 9zM41 40v-14h85v14h-85zM41 59v-15h85v15h-85zM35 203h31v27h-31v-27zM74 203h28v27h-28v-27zM110 230v-27h28v27h-28zM76 140v-31h16v31h-16zM100 140v-31h16v31h-16zM52 140v-31h15v31h-15zM76 172v-27h16v27h-16zM100 172v-27h16v27h-16zM52 172
v-27h15v27h-15zM39 100h4q-1 -7 -3 -15q-3 -7 -8 -11q-5 -3 -8 -3q-6 0 -6 3q-2 5 4 6q1 0 2 1q5 2 7 5q2 2 8 14zM117 99l1 2q19 -8 25 -18q3 -3 2 -7q0 -5 -4 -5q-3 0 -5 4l-1 1q-3 11 -18 23zM87 100l3 1q13 -9 16 -14q3 -6 3 -10q-1 -3 -6 -4q-4 0 -4 4q0 8 -12 23z
M59 98l2 1q11 -9 13 -15q3 -6 1 -9t-6 -4q-4 0 -3 5q0 9 -7 22z" />
  </g>

</svg>
