<?xml version="1.0" standalone="no"?>
<!DOCTYPE svg PUBLIC "-//W3C//DTD SVG 1.1//EN" "http://www.w3.org/Graphics/SVG/1.1/DTD/svg11.dtd" >
<svg xmlns="http://www.w3.org/2000/svg" xmlns:xlink="http://www.w3.org/1999/xlink" version="1.1" viewBox="0 -36 256 256">
  <g transform="matrix(1 0 0 -1 0 220)">
   <path fill="currentColor"
d="M94 85l1 -6q-62 -29 -74 -41l-12 22q14 1 39 10v87h-10q-7 -1 -17 -3l-9 10h36v45q0 9 -1 32l22 -11l-8 -10v-56h11l10 10l15 -17h-36v-84q19 6 33 12zM210 180l6 8l14 -11l-6 -6q0 -43 1 -49l-14 -4v6h-94v-4l-14 -6q1 17 1 38.5t-1 34.5l14 -7h93zM117 131h94v42h-94
v-42zM161 152q-10 4 -32 13l1 3q20 -4 39 -10q14 8 20 15l13 -9q-9 -2 -22 -11q9 -3 15.5 -6.5t5.5 -11t-7.5 -2.5t-22.5 13q-27 -11 -50 -15l-1 3q23 8 41 18zM121 247l15 -10l-7 -3q-8 -6 -25 -20q15 -5 22 -11.5t2.5 -15t-9 2.5t-22.5 24q20 21 24 33zM155 37v36t-1 41
l20 -8l-7 -9v-65l25 10l1 -5q-22 -11 -32 -26l-9 15q3 4 3 11zM137 66.5q9 -5.5 5.5 -15.5t-9.5 1t-16 18l2 5q9 -3 18 -8.5zM170.5 229.5q-3.5 -3.5 -17.5 -15.5q17 -6 23.5 -13t1 -14.5t-10 4t-21.5 23.5q19 23 22 33l15 -12q-9 -2 -12.5 -5.5zM219 249l14 -11l-6 -3
q-8 -5 -25 -19q15 -5 24 -12.5t4.5 -16t-10 2.5t-25.5 25q19 20 24 34zM141.5 90.5q7.5 -4.5 5 -14t-7.5 -0.5t-17 19l2 5q10 -5 17.5 -9.5zM194.5 63.5q7.5 -3.5 5 -13.5t-7 -1.5t-20.5 21.5l2 4q13 -7 20.5 -10.5zM192.5 93q6.5 -4 4.5 -14.5t-7.5 -1.5t-17.5 20l2 4
q12 -4 18.5 -8zM101 33v36t-1 41l20 -10l-7 -8v-64l25 14l2 -4q-25 -19 -33 -32l-9 14q3 6 3 13zM244 55l3 -2q-3 -10 -4.5 -23.5t0.5 -20.5t-10.5 -0.5t-19.5 21t-9.5 34t-2.5 50.5l23 -8l-9 -8q-2 -54 17 -73z" />
  </g>

</svg>
