<?xml version="1.0" standalone="no"?>
<!DOCTYPE svg PUBLIC "-//W3C//DTD SVG 1.1//EN" "http://www.w3.org/Graphics/SVG/1.1/DTD/svg11.dtd" >
<svg xmlns="http://www.w3.org/2000/svg" xmlns:xlink="http://www.w3.org/1999/xlink" version="1.1" viewBox="0 -200 999 1000">
  <g transform="matrix(1 0 0 -1 0 800)">
   <path fill="currentColor"
d="M645 678h69v115h-91l-51 -12l-20 34h162v179l70 -34l-22 -60v-85h70l44 42l62 -64h-176v-113h61l31 42l51 -49l-27 -31v-193h-116v-29q0 -66 -6.5 -112.5t-20.5 -90.5q21 -29 42.5 -47.5t46 -30t53 -17.5t63.5 -9q-20 -15 -37 -30.5t-34 -36.5q-18 10 -37 20t-39 24
t-40.5 34t-41.5 50q-21 -34 -50 -63t-59 -51.5t-58.5 -38t-49.5 -21.5l-13 2q28 18 58.5 44t58.5 55.5t50.5 60.5t34.5 60q-13 26 -26.5 58t-25.5 72h-1q-2 0 -5.5 -7.5t-9 -17t-11 -18.5t-11.5 -13l-36 24l86 65q14 -37 25.5 -68.5t29.5 -60.5q11 32 13.5 61t2.5 65v67h-77
v-46q-8 -16 -19 -18.5t-31 -12.5v345zM762 472h66v187h-66v-187zM637 622v-150h77v187h-66zM562 925l-35 -50q-16 -38 -26.5 -61.5t-18 -39.5t-14 -27.5t-13.5 -24.5l32 -35l-27 -68v-569q-5 -11 -18 -17.5t-32 -14.5v629q-15 -21 -27.5 -37t-24 -28.5t-23.5 -23t-26 -21.5
l-5 7q37 54 66 104t52.5 103t43 113t37.5 134zM203 991l70 -34l-21 -71v-128h23l37 41l55 -63h-115v-229l126 51l-1 -5l-126 -80v-374q0 -8 -5.5 -21.5t-16 -27.5t-25 -25.5t-31.5 -15.5q-3 35 -35 60.5t-81 38.5v7q25 -4 49.5 -6.5t44.5 -2.5q23 0 37.5 5t14.5 20v324
l-98 -57l-55 44l153 51v244h-54l-41 -11l-22 32h117v233z" />
  </g>

</svg>
