<?xml version="1.0" standalone="no"?>
<!DOCTYPE svg PUBLIC "-//W3C//DTD SVG 1.1//EN" "http://www.w3.org/Graphics/SVG/1.1/DTD/svg11.dtd" >
<svg xmlns="http://www.w3.org/2000/svg" xmlns:xlink="http://www.w3.org/1999/xlink" version="1.1" viewBox="0 -205 1024 1024">
  <g transform="matrix(1 0 0 -1 0 819)">
   <path fill="currentColor"
d="M704 948q9 -7 0 -14q-15 -4 -30 -14q-12 -6 -66 -90h210l32 46l68 -48q6 -4 6 -8q0 -6 -36 -32v-268l4 -86q0 -12 -14 -24q-15 -10 -42 -14v68h-190q-36 -63 -92 -102q-57 -36 -104 -60l-8 14q61 43 92 74q30 29 58 74h-100v-16q-1 -12 -16 -24q-16 -10 -40 -10l4 98v364
l58 -46h86q35 95 50 152l70 -34v0v0zM492 490h112q20 41 32 146h-144v-146v0v0zM688 636q-10 -100 -32 -146h180v146h-148v0v0zM492 662h144v142h-144v-142v0v0zM688 804v-142h148v142h-148v0v0zM328 296h348v140l88 -28q2 -6 2 -8q1 -6 -4 -6l-34 -16v-82h154l38 50l66 -60
q3 -16 -8 -16h-250v-120l4 -85q0 -13 -20 -26q-19 -13 -40 -12l4 119v124h-264q-22 0 -70 -8l-14 34v0v0zM50 728h164v240l84 -32q9 -5 6 -10q-4 -5 -40 -22v-176h58l32 46l54 -54q2 -4 2 -8q1 -10 -10 -10h-136v-166l130 60l10 -16l-140 -80v-381q2 -36 -16 -60
q-18 -23 -62 -38q-6 33 -36 48q-27 15 -78 30l4 16q95 -21 116 -16q21 6 22 32v343l-72 -42q-46 -30 -58 -54l-48 62l178 74v188h-86q-24 0 -54 -8l-24 34v0v0z" />
  </g>

</svg>
