<?xml version="1.0" standalone="no"?>
<!DOCTYPE svg PUBLIC "-//W3C//DTD SVG 1.1//EN" "http://www.w3.org/Graphics/SVG/1.1/DTD/svg11.dtd" >
<svg xmlns="http://www.w3.org/2000/svg" xmlns:xlink="http://www.w3.org/1999/xlink" version="1.1" viewBox="0 -36 256 256">
  <g transform="matrix(1 0 0 -1 0 220)">
   <path fill="currentColor"
d="M231 21l-16 -7v16h-174v-14l-17 -7q1 32 1 110.5t-1 98.5l17 -10h173l9 10l16 -14l-9 -7v-131q0 -29 1 -45zM41 37h174v164h-174v-164zM117 144l-6 -4q-13 -21 -25 -32.5t-35 -22.5l-2 3q23 17 35 35t15 32zM159 72q-5 12 -13 23l2 3q22 -15 28.5 -26.5t-1 -18t-10 -0.5
t-4.5 13q-54 -5 -64 -7t-17 -5l-8 18q14 1 29 22.5t18 36.5l20 -15q-10 -5 -21 -17t-29 -28zM119 245l23 -8l-8 -8v-56h51l12 10l16 -17h-139q-10 0 -20 -2l-10 9h76v34q0 18 -1 38zM136 147l-6 -1l-6 8h21l5 7l12 -9l-6 -5q4 -13 18 -26t34 -19v-4q-13 0 -20 -8
q-13 10 -24 25t-16 32h-12z" />
  </g>

</svg>
