<?xml version="1.0" standalone="no"?>
<!DOCTYPE svg PUBLIC "-//W3C//DTD SVG 1.1//EN" "http://www.w3.org/Graphics/SVG/1.1/DTD/svg11.dtd" >
<svg xmlns="http://www.w3.org/2000/svg" xmlns:xlink="http://www.w3.org/1999/xlink" version="1.1" viewBox="0 -36 256 256">
  <g transform="matrix(1 0 0 -1 0 220)">
   <path fill="currentColor"
d="M149 171q0 -13 1 -21l-12 -8v10h-9v-42h11l9 10l10 -17h-30v-53l30 12l1 -4q-30 -16 -64 -35l-3 -6l-12 16l15 5v59q0 18 -1 29l17 -13l-5 -7v-64l11 5v105h-9v-5l-12 -7q1 13 1 41t-1 44l11 -9h29l6 9l11 -12l-5 -5v-37zM109 159h29v50h-29v-50zM172 121h18q1 29 1 41
h-19v-41zM201 121h20v41h-19q0 -20 -1 -41zM232 134q0 -13 1 -23l-12 -6v9h-20q0 -39 -6 -56q9 -12 23.5 -21.5t29.5 -11.5v-4q-13 -2 -17 -11q-21 9 -43 35q-20 -26 -54 -37l-2 2q38 24 48 46q-8 15 -15 46l5 1q9 -24 16 -35q4 16 4 46h-18v-4l-12 -6l1 17v35l-1 19l11 -6
h20v26h-12q-10 0 -19 -2l-9 9h40v14q0 14 -1 28l18 -9l-6 -5v-28h25l9 10l11 -17h-45v-26h20l5 8l11 -11l-6 -5v-27zM68 235l-7 -3q-6 -11 -12 -21h21l6 11l11 -12l-6 -8v-151q1 -29 -16 -35q0 11 -18 18v4q14 -2 18 -2t5 11v157h-31v-47q1 -47 -3.5 -83.5t-24.5 -62.5l-3 2
q13 33 16.5 59t3.5 64v58q0 14 -1 26l12 -9h6q5 15 8 36zM18 112l-9 17q13 0 86 30l1 -6q-70 -33 -78 -41zM51.5 106q1.5 27 -5.5 75l4 2q9 -27 13.5 -54.5t-4.5 -38.5t-7.5 16z" />
  </g>

</svg>
