<?xml version="1.0" standalone="no"?>
<!DOCTYPE svg PUBLIC "-//W3C//DTD SVG 1.1//EN" "http://www.w3.org/Graphics/SVG/1.1/DTD/svg11.dtd" >
<svg xmlns="http://www.w3.org/2000/svg" xmlns:xlink="http://www.w3.org/1999/xlink" version="1.1" viewBox="0 -205 1024 1024">
  <g transform="matrix(1 0 0 -1 0 819)">
   <path fill="currentColor"
d="M798 586q7 -4 6 -10q0 -1 -6 -4l-20 -10v-24h90l36 38l50 -46q3 -4 4 -4q5 -12 -4 -12h-176v-74h56l30 34l50 -44q2 -1 4 -8q3 -6 -8 -6h-132v-70h116l34 36l54 -44q3 -3 4 -8q-1 -9 -10 -8h-302q34 -64 80 -112q81 48 132 94q44 -39 46 -44q3 -4 0 -8q-4 -3 -16 -2
q-12 0 -36 -6q-23 -6 -112 -48q38 -37 74 -57q35 -22 80 -32q42 -9 84 -12v-18q-30 0 -48 -6q-15 -5 -38 -32q-78 35 -120 70t-74 75q-31 42 -80 138h-26l-70 -70v-145l136 65l10 -14q-112 -66 -136 -87q-24 -20 -42 -44l-46 42l32 26v123q-100 -83 -226 -145l-8 14
q102 68 174 127q70 60 110 108h-142q-20 -1 -46 -10l-18 34h184v70h-62q-20 -1 -46 -10l-18 34h126v74h-82q-34 -1 -58 -10l-18 34h158v74l68 -24q9 -2 6 -10q0 -1 -6 -4l-22 -10v-26h152v66l68 -18v0v0zM578 346h152v70h-152v-70v0v0zM578 440h152v74h-152v-74v0v0z
M888 856l38 46l62 -54q3 -2 4 -4q1 -12 -10 -12h-560q-21 0 -56 -8l-16 32h538v0v0zM424 800l44 -30h102l26 30l46 -32q6 -5 6 -10q1 -4 -22 -16v-54l4 -46q2 -13 -16 -22q-18 -10 -32 -8v22h-114v-14q1 -7 -16 -16q-18 -7 -32 -8l4 92v112v0v0zM468 656h114v92h-114v-92v0
v0zM702 800l44 -30h106l20 30l46 -32q7 -5 8 -10q0 -4 -24 -16v-50l4 -46q2 -12 -16 -24q-18 -10 -32 -8v22h-112v-10q0 -6 -12 -14q-12 -9 -36 -8l4 88v108v0v0zM746 658h112v90h-112v-90v0v0zM576 982l8 10q74 -27 94 -48t20 -38q-1 -19 -14 -28q-12 -11 -26 -6
q-15 2 -20 26q-4 21 -16 40q-11 17 -46 44v0v0zM180 968l76 -34q7 -7 0 -14l-30 -14v-636l68 18v464l76 -30q3 -2 4 -10q0 -4 -36 -20v-400l4 -76q0 -12 -14 -24q-13 -13 -34 -14v88q-120 -38 -156 -58q-33 -21 -54 -42l-44 50q26 15 28 34v510l72 -32q7 -3 8 -8
q-3 -5 -36 -22v-460l68 22v708v0v0z" />
  </g>

</svg>
