<?xml version="1.0" standalone="no"?>
<!DOCTYPE svg PUBLIC "-//W3C//DTD SVG 1.1//EN" "http://www.w3.org/Graphics/SVG/1.1/DTD/svg11.dtd" >
<svg xmlns="http://www.w3.org/2000/svg" xmlns:xlink="http://www.w3.org/1999/xlink" version="1.1" viewBox="0 -205 1024 1024">
  <g transform="matrix(1 0 0 -1 0 819)">
   <path fill="currentColor"
d="M88 834l54 -38h88v188l74 -38q7 0 8 -6q0 -3 -2 -8l-32 -14v-122h74l26 34l60 -44q6 -6 6 -8q0 -7 -30 -26v-270l4 -66q0 -13 -14 -26q-15 -10 -38 -14v46h-88v-260l4 -105q0 -11 -20 -26q-21 -13 -36 -14l4 135v270h-92v-28q0 -15 -20 -26q-19 -13 -34 -10l4 130v346v0
v0zM138 448h92v150h-92v-150v0v0zM278 598v-150h88v150h-88v0v0zM138 624h92v146h-92v-146v0v0zM278 770v-146h88v146h-88v0v0zM528 960l58 -44h234l28 40l64 -44q13 -9 -28 -36v-196l4 -72q0 -15 -20 -24q-18 -7 -36 -8v38h-252v-14q0 -9 -14 -18q-12 -6 -42 -8l4 108v278
v0v0zM580 640h252v108h-252v-108v0v0zM580 774h252v112h-252v-112v0v0zM542 416h336l30 34l62 -42q12 -8 -2 -16l-30 -20q-6 -127 -20 -208q-15 -79 -48 -113q-32 -30 -70 -36q-9 33 -30 44q-22 13 -86 38l6 16q80 -20 110 -22q27 -2 46 16q18 18 28 87q9 66 18 196h-86
q-33 -135 -114 -228q-78 -89 -234 -141l-6 18q129 59 198 139q68 80 104 212h-92q-25 -75 -88 -150q-60 -76 -198 -147l-10 14q114 77 166 145q51 66 78 138h-90q-75 -99 -170 -162l-12 12q72 72 120 132q45 61 82 134h-48q-21 -4 -42 -10l-24 36h462l36 44q66 -58 64 -64
q0 -6 -6 -6h-384q-27 -45 -56 -90v0v0z" />
  </g>

</svg>
