<?xml version="1.0" standalone="no"?>
<!DOCTYPE svg PUBLIC "-//W3C//DTD SVG 1.1//EN" "http://www.w3.org/Graphics/SVG/1.1/DTD/svg11.dtd" >
<svg xmlns="http://www.w3.org/2000/svg" xmlns:xlink="http://www.w3.org/1999/xlink" version="1.1" viewBox="0 -52 256 256">
  <g transform="matrix(1 0 0 -1 0 204)">
   <path fill="currentColor"
d="M144 237h76l8 10l17 -12q2 -1 2 -2q-1 -1 -3 -1h-40l-22 -36h38l9 9l11 -11q2 -2 1 -3q0 -1 -3 -1l-4 -3v-92v-27q0 -4 -2 -6q-3 -2 -8 -2v11h-55v-5q0 -6 -3 -8q-3 -3 -9 -4q0 5 1 20q1 9 1 14v104q-1 6 -5 9l4 3l9 -8h9l14 36h-26q-6 0 -11 -3zM18 223l8 -9h23l9 9
l11 -11q2 -1 2 -3q-1 -1 -3 -1l-5 -3v-86l2 -33q1 -7 -11 -8v16h-26v-17q1 -10 -11 -11q2 9 2 40v105q-1 5 -4 9zM100 250l23 -9l2 -1q0 -1 -2 -2q-5 -1 -8 -6v-52q2 2 5 6q4 4 5 6q9 11 6 16l2 1l16 -12q3 -3 0 -4q-9 1 -17 -5q-4 -4 -15 -12q9 5 -2 -2q0 -55 -4 -86
q7 -3 16 -9q27 -22 11 -33q-4 -1 -6 8q-2 15 -22 29q-7 -39 -45 -67l-3 3q25 23 34 52q9 25 9 78v90q-1 4 -7 7zM28 209v-110h26v110h-26zM169 112v-36h55v36h-55zM169 152v-36h55v36h-55zM224 191h-55v-35h55v35zM177 62l14 -13l2 -1q0 -1 -2 -2q-4 2 -7 -1l-3 -3
q-4 -2 -7 -5q-19 -17 -40 -28l-2 3q21 15 33 28q2 2 5 6q3 3 5 6q2 4 0 8zM202 54l1 3q16 -7 26 -14t13 -14t2 -12q0 -4 -5 -5q-3 0 -7 8q-2 5 -7 14q-2 2 -2 3q-7 6 -21 17zM87 178v-31q0 -9 -3 -15q-6 -12 -14 -6q-3 4 2 10t7 13q3 7 5 29h3z" />
  </g>

</svg>
