<?xml version="1.0" standalone="no"?>
<!DOCTYPE svg PUBLIC "-//W3C//DTD SVG 1.1//EN" "http://www.w3.org/Graphics/SVG/1.1/DTD/svg11.dtd" >
<svg xmlns="http://www.w3.org/2000/svg" xmlns:xlink="http://www.w3.org/1999/xlink" version="1.1" viewBox="0 -36 256 256">
  <g transform="matrix(1 0 0 -1 0 220)">
   <path fill="currentColor"
d="M44 134q16 -14 21 -23.5t-1.5 -20t-9.5 6.5t-12 33q-10 -17 -28 -37l-2 3q16 23 26.5 58t13.5 60h-10q-10 0 -19 -2l-9 9h77l12 12l16 -19h-52q-5 -26 -11 -47h37l7 11l14 -13l-7 -7q-7 -31 -16 -55t-24.5 -46t-54.5 -46v4q27 23 43 46t25 50t13 49h-39q-5 -15 -10 -26z
M144 50.5q-17 -24.5 -58 -43.5l-1 4q36 23 49.5 48.5t16.5 61.5h15q-5 -46 -22 -70.5zM120 160.5q0 28.5 -1 52.5l15 -7h17q13 31 13 40l19 -12q-7 -3 -14 -11.5t-12 -16.5h60l8 9l13 -13l-6 -5v-51q0 -15 1 -32l-15 -7v12h-84v-8l-15 -5q1 26 1 54.5zM134 166h84v33h-84
v-33zM134 126h84v33h-84v-33zM237.5 43q1.5 -10 7.5 -13q-5 -14 -22 -14h-22q-17 0 -17 20v85h14v-80q0 -12 9 -12h12q8 0 10 11t2 33h5q0 -20 1.5 -30z" />
  </g>

</svg>
