<?xml version="1.0" standalone="no"?>
<!DOCTYPE svg PUBLIC "-//W3C//DTD SVG 1.1//EN" "http://www.w3.org/Graphics/SVG/1.1/DTD/svg11.dtd" >
<svg xmlns="http://www.w3.org/2000/svg" xmlns:xlink="http://www.w3.org/1999/xlink" version="1.1" viewBox="0 -36 256 256">
  <g transform="matrix(1 0 0 -1 0 220)">
   <path fill="currentColor"
d="M64 221q6 -8 0.5 -17t-11.5 4.5t-20 26.5l1 3q24 -9 30 -17zM15 183q30 -12 32 -21.5t-3.5 -15t-10 6t-19.5 27.5zM37 88q6 4 31 107l5 -1q-18 -88 -22 -111t-2.5 -47.5t-9 -18.5t-7.5 22.5t3 27t-23 15.5v4q19 -2 25 2zM109 189v18q0 25 -1 38l23 -10l-9 -8v-38h7l9 10
l15 -17h-31v-49l26 15l2 -3l-28 -22v-86q1 -20 -18 -27q-1 13 -28 20v4q15 -1 24 -1.5t9 7.5v73q-17 -13 -29 -23l-10 15q27 12 39 20v57h-4q-13 0 -20 -2l-9 9h33zM228 17l-15 -6v17h-44v-14l-15 -6q1 28 1 68t-1 49l17 -8h13v47h-14q-16 0 -26 -2l-10 9h50v47
q-10 0 -38 -2v5q19 2 40.5 7t34.5 14l14 -17q-15 0 -37 -5v-49h18l11 13l19 -20h-48v-47h12l8 10l17 -12l-8 -8v-55q0 -11 1 -35zM169 35h44v75h-44v-75z" />
  </g>

</svg>
