<?xml version="1.0" standalone="no"?>
<!DOCTYPE svg PUBLIC "-//W3C//DTD SVG 1.1//EN" "http://www.w3.org/Graphics/SVG/1.1/DTD/svg11.dtd" >
<svg xmlns="http://www.w3.org/2000/svg" xmlns:xlink="http://www.w3.org/1999/xlink" version="1.1" viewBox="0 -140 1000 1000">
  <g transform="matrix(1 0 0 -1 0 860)">
   <path fill="currentColor"
d="M766 363l20 31q8 12 21 12q10 0 26 -11l43 -41l-5 -12h-322q84 -82 175 -126t223 -67l2 -6q-50 -11 -50 -32q-2 -11 -16 -11q-12 0 -43 14q-131 61 -195.5 107t-115.5 102v-223q1 -3 1 -11q0 -6 -17.5 -16t-27.5 -10q-19 0 -19 22v238q-159 -156 -409 -248l-5 12
q242 113 350 255h-249v21h313v97h-411v23h411v88l-3 51l61 -18q34 -10 34 -21q0 -10 -37 -20l8 1v-81h305l19 27l6 6h-1q7 10 18 10q14 0 25 -12l41 -40l-11 -14h-402v-97h237zM591 885l16 18h-1q4 7 19 7q11 0 26.5 -12.5t25.5 -24.5t10 -13q0 -6 -30 -14h2q-10 -3 -12 -4
l6 1l-34 -106h179q12 15 16.5 19t12.5 4q16 0 40 -25t24 -31q0 -11 -32 -11q-13 -111 -45 -149q-14 -16 -44 -28.5t-54 -12.5q-16 0 -19.5 4.5t-3.5 19.5q0 21 -7 22l-77 24l4 12l104 -21q13 -2 17 -2q14 0 24.5 9t17.5 28t10.5 34.5t8.5 42.5l7 38h-188l-4 -12h1v-2
q-1 -1 -1 -2q-4 -19 -29 -25h1q-18 -5 -28 -5q-18 0 -18 6l14 44l44 144h-176q-17 -144 -84.5 -221t-225.5 -134l-6 17q36 15 57.5 26t60 39.5t62.5 61t46.5 88t29.5 123.5h-204v23h437zM851 692q1 1 8 1z" />
  </g>

</svg>
