<?xml version="1.0" standalone="no"?>
<!DOCTYPE svg PUBLIC "-//W3C//DTD SVG 1.1//EN" "http://www.w3.org/Graphics/SVG/1.1/DTD/svg11.dtd" >
<svg xmlns="http://www.w3.org/2000/svg" xmlns:xlink="http://www.w3.org/1999/xlink" version="1.1" viewBox="0 -205 1024 1024">
  <g transform="matrix(1 0 0 -1 0 819)">
   <path fill="currentColor"
d="M440 826l58 -42h168q12 78 16 190l76 -24q9 -6 4 -12q-6 -5 -30 -16q-5 -57 -16 -138h178l32 36l54 -40q9 -3 10 -12q1 -6 -34 -26v-627q3 -42 -14 -64q-19 -20 -64 -32q-6 36 -44 50q-35 12 -82 26l4 18q81 -15 102 -18q18 -1 34 4q13 6 14 30v629h-194q-7 -41 -20 -76
q93 -46 132 -76q35 -30 44 -54q6 -24 -2 -38q-6 -16 -24 -14q-17 0 -28 24q-12 24 -32 54q-19 30 -98 84q-52 -111 -166 -182l-10 12q82 80 116 148q32 68 38 118h-172v-600l4 -97q2 -11 -16 -26q-18 -14 -42 -20l4 139v672v0v0zM744 486q9 -4 6 -10q-1 -3 -10 -6
q-10 -1 -16 -8q-7 -7 -26 -38q52 -25 92 -56q38 -30 56 -56q18 -24 16 -42q0 -19 -8 -28q-6 -9 -24 -8q-18 0 -26 28q-9 24 -32 64q-22 39 -80 82q-27 -46 -62 -94q-36 -48 -102 -102l-10 10q56 66 92 130q34 62 68 160l66 -26v0v0zM118 956l60 -46h122l30 38l52 -42
q9 -6 10 -12q-1 -6 -34 -24v-722q3 -41 -8 -67q-9 -26 -60 -44q-4 25 -26 40q-22 16 -86 34l6 18q65 -15 86 -18q18 -1 30 6q12 6 10 31v294h-144q-4 -96 -16 -162q-12 -64 -38 -136q-27 -67 -72 -125l-12 10q41 79 56 143q14 62 26 164q10 99 8 214v406v0v0zM310 468v190
h-142v-190h142v0v0zM168 684h142v200h-142v-200v0v0z" />
  </g>

</svg>
