<?xml version="1.0" standalone="no"?>
<!DOCTYPE svg PUBLIC "-//W3C//DTD SVG 1.1//EN" "http://www.w3.org/Graphics/SVG/1.1/DTD/svg11.dtd" >
<svg xmlns="http://www.w3.org/2000/svg" xmlns:xlink="http://www.w3.org/1999/xlink" version="1.1" viewBox="0 -205 1024 1024">
  <g transform="matrix(1 0 0 -1 0 819)">
   <path fill="currentColor"
d="M428 867q-5 -1 -6 2q-13 19 -23 35q-6 10 7 7q61 -5 68 -6h211q6 0 12 7l36 41q7 7 14 0q26 -26 44 -48q11 -14 4 -24q-5 -6 -18 -7h-108v-117h187q15 1 18 2l20 33q3 5 7 5t10 -6q34 -24 56 -45q5 -6 4 -10q-2 -5 -11 -6q-13 -1 -23 -11q-8 -10 -9 -67q-7 -142 -31 -253
q-17 -77 -44 -135q47 -81 124 -145q5 -4 12 -10q4 -5 0 -9q-4 -5 -13 -4q-16 2 -31 -2q-19 -6 -31 -16q-7 -6 -16 6q-41 65 -72 129q-44 -69 -120 -148q-10 -11 -19 -2t0 19q73 79 113 161q2 7 6 13q-12 30 -21 58q-43 132 -59 411q-1 1 0 1h-57v-359q15 6 30 10q13 5 17 -5
q3 -12 -10 -16q-21 -8 -37 -15v-56q0 -125 4 -210q0 -9 -7 -10l-44 -18q-9 -2 -8 14q6 133 7 224v38q-59 -21 -110 -42q-49 -19 -62 -29q-12 -10 -16 0q-15 27 -31 40q-13 10 6 13q18 2 59 9v558q-20 -1 -39 -5zM883 726h-134q14 -186 44 -303q14 -61 35 -107q16 48 26 106
q22 117 29 304zM515 325q55 19 106 29v156h-106v-185zM515 541h106v157h-106v-157zM515 729h106v145h-106v-145zM335 559l33 38q7 8 14 1q26 -24 42 -49q11 -16 8 -23q-4 -7 -17 -8h-140v-161q61 15 125 31q15 4 16 -5q2 -12 -14 -16q-76 -29 -127 -47v-35q0 -117 4 -196
q1 -8 -5 -12l-42 -27q-13 -10 -12 11q6 133 7 224v18q-112 -38 -121 -53q-7 -8 -11 -9t-7 8q-10 26 -31 45q-12 11 -11 14q2 3 12 4q69 8 140 27q13 4 29 7v172h-110q-7 -12 -11 -16q-6 -7 -10 -1q-13 18 -41 34q-7 6 0 10q6 6 15 10q24 21 84 255h-14q-42 -1 -73 -7
q-8 -3 -11 6q-4 18 -19 30q-7 7 -4 11q4 3 11 -1q38 -8 84 -8h34q25 108 26 147q0 11 7 8q31 -14 68 -36q9 -5 9 -12q0 -5 -12 -8q-25 -10 -46 -91q-2 -4 -3 -8h98q6 0 12 7l36 41q7 7 14 0q26 -26 44 -48q11 -14 4 -24q-5 -6 -18 -7h-198q-18 -60 -75 -261h99v19
q-1 80 -5 128q-2 17 10 13q54 -17 72 -27q14 -7 -2 -16q-16 -8 -20 -18q-7 -19 -7 -80v-19h39q11 0 21 10z" />
  </g>

</svg>
