<?xml version="1.0" standalone="no"?>
<!DOCTYPE svg PUBLIC "-//W3C//DTD SVG 1.1//EN" "http://www.w3.org/Graphics/SVG/1.1/DTD/svg11.dtd" >
<svg xmlns="http://www.w3.org/2000/svg" xmlns:xlink="http://www.w3.org/1999/xlink" version="1.1" viewBox="0 -36 256 256">
  <g transform="matrix(1 0 0 -1 0 220)">
   <path fill="currentColor"
d="M157 37v50h-16v-42l-11 -5v47h-15q-5 -54 -39 -81l-2 3q24 33 27 71.5t2 96.5q-4 -7 -11 -15l-3 3q15 24 24.5 47t11.5 36l19 -12l-8 -5q-5 -9 -11 -21h23l8 9l14 -15q-10 -1 -36 -31h22l5 10l14 -10l-6 -7v-133q1 -19 -16 -24q-4 11 -19 16v4q13 -2 18 -1.5t5 9.5z
M116 136h14v30h-14v-30zM141 136h16v30h-16v-30zM116 94h14v35h-14v-35zM141 94h16v35h-16v-35zM107 181l9 -8h14l17 30h-25q-10 -15 -15 -22zM222 173q4 0 4 8l2 36h-21q-4 -48 -31 -68l-3 2q18 27 19 66q-3 0 -13 -3l-9 10h56l5 10l18 -11l-8 -7l-2 -40q0 -17 -17 -23
q0 12 -18 17v4q14 -1 18 -1zM204 71q-14 1 -24 -2l-9 9h33v30h-18q-6 -10 -13 -23l-3 1q5 16 8.5 33.5t4.5 27.5l16 -6q-3 -5 -5.5 -11t-5.5 -15h16q0 28 -1 38l20 -7l-6 -7v-24h7l9 10l14 -17h-30v-30h10l9 10l13 -17h-32q0 -47 1 -59l-15 -4q1 19 1 63zM79 229
q-6 0 -27 -17q11 -8 15 -15.5t-1 -14t-7 2.5t-10 24q-7 -5 -15 -11q13 -13 14 -20.5t-4.5 -14t-6 4.5t-6.5 28q-12 -6 -22 -8v3q17 9 31.5 23.5t27.5 31.5zM94 183q-3 1 -12.5 -6.5t-19.5 -17.5q13 -20 18 -36.5t6.5 -43t-6.5 -44t-26 -23.5q3 11 -18 21l1 4q21 -6 27 -2
t8.5 20t1.5 40q-25 -33 -61 -51v4q38 28 58 65q-2 11 -4 18q-22 -27 -54 -42v3q29 19 49 51l-6 12q-20 -16 -45 -22l-1 2q27 14 48 35t24 30z" />
  </g>

</svg>
