<?xml version="1.0" standalone="no"?>
<!DOCTYPE svg PUBLIC "-//W3C//DTD SVG 1.1//EN" "http://www.w3.org/Graphics/SVG/1.1/DTD/svg11.dtd" >
<svg xmlns="http://www.w3.org/2000/svg" xmlns:xlink="http://www.w3.org/1999/xlink" version="1.1" viewBox="0 -205 1024 1024">
  <g transform="matrix(1 0 0 -1 0 819)">
   <path fill="currentColor"
d="M532 556q15 -3 4 -18l-30 -14v-106h58l30 42l54 -50q3 -3 4 -8q0 -12 -12 -12h-134v-186l156 24l4 -20l-248 -62q-60 -16 -90 -43l-40 67l168 24v196h-38q-33 0 -62 -8l-16 36h116v164l76 -26v0v0zM824 926q9 -9 -2 -14q-16 -9 -22 -14q-6 -6 -18 -48t-42 -132h156l32 48
l60 -58q1 0 2 -6q0 -7 -8 -8h-100q-7 -127 -26 -244q-18 -118 -60 -184q24 -42 52 -72q26 -30 62 -55q33 -25 84 -38v-16q-37 1 -56 -8q-19 -6 -40 -18q-39 45 -66 74q-25 29 -64 87q-36 -56 -114 -109q-75 -54 -192 -90l-8 14q102 51 172 102q69 48 118 129q-33 80 -44 160
q-9 78 -14 172q-36 -79 -66 -112l-12 8q69 159 96 258t42 208l78 -34v0v0zM830 692h-102q-9 -25 -24 -56q15 -105 30 -194q14 -87 38 -128q24 56 40 154q15 95 18 224v0v0zM284 876h294l36 42l44 -48q18 -19 -8 -22h-148q-64 -145 -118 -226l194 20q-19 48 -52 96l14 10
q48 -36 72 -66q26 -29 28 -58q2 -28 -10 -40q-13 -12 -26 -8q-12 2 -18 14q-4 9 -4 30l-124 -22q-61 -12 -98 -38l-44 62q27 7 48 20q43 76 80 206h-88q-21 -1 -50 -10l-22 38v0v0zM272 938q9 -7 -6 -14q-18 -6 -26 -12q-10 -6 -46 -72t-92 -168h118q45 90 66 142l70 -44
q0 -13 -12 -14l-26 -12q-12 -3 -60 -84q-48 -79 -134 -206l154 12q-13 51 -40 90l12 10q44 -39 62 -66t22 -48q2 -21 -4 -36q-7 -15 -16 -18t-20 0q-12 2 -12 14q-1 11 -2 32q-75 -11 -116 -22q-41 -12 -76 -38l-42 70q28 0 56 16q48 72 108 180q-66 -10 -90 -16
q-25 -6 -56 -26l-32 66q33 2 42 10q8 5 58 116q50 110 68 178l72 -40v0v0zM96 354h22q3 -81 4 -126q0 -46 -14 -76q-13 -28 -32 -35q-18 -7 -30 -2q-13 7 -14 22q0 13 18 35q17 22 32 56q11 33 14 126v0v0zM168 372l12 6q36 -48 52 -86q15 -40 12 -70t-20 -36q-15 -7 -30 2
q-14 8 -6 46q7 39 2 66t-22 72v0v0zM260 378l12 10q63 -47 84 -82q21 -33 18 -54t-18 -30q-13 -8 -26 0q-14 5 -12 32q0 24 -12 54q-13 30 -46 70v0v0z" />
  </g>

</svg>
