<?xml version="1.0" standalone="no"?>
<!DOCTYPE svg PUBLIC "-//W3C//DTD SVG 1.1//EN" "http://www.w3.org/Graphics/SVG/1.1/DTD/svg11.dtd" >
<svg xmlns="http://www.w3.org/2000/svg" xmlns:xlink="http://www.w3.org/1999/xlink" version="1.1" viewBox="0 0 2048 2048">
  <g transform="matrix(1 0 0 -1 0 2048)">
   <path fill="currentColor"
d="M251 982l-18 -36l-25 -50q-15 -28 -50 -81t-59 -84l-23 -30l-26 19l28 55q18 35 46 96q29 61 60 139q30 78 63 174q33 97 61 204q28 108 37 172l12 80h-71q-24 0 -56 -2q-33 -3 -42 -4q-9 0 -26 -2l-24 -3l-40 86q27 -5 44 -7q18 -2 44 -4l51 -4q35 -3 49 -3h265l99 101
l120 -106q8 -8 14 -16q5 -7 2 -18q-3 -10 -11 -14t-15 -4h-301l-25 -124q-13 -60 -44 -168q-31 -107 -65 -192l-8 -20l46 -32h216l61 72l72 -49q23 -16 31 -27q8 -10 9 -22q0 -12 -10 -23q-11 -13 -30 -21l-29 -13v-616l30 -28q11 -12 15 -21q4 -8 0 -19q-5 -13 -15 -16
l-30 1h-338v-64q0 -22 -5 -32t-18 -17q-14 -7 -36 -8q-18 -2 -24 2q-5 4 -8 9t-3 17v753zM345 380h242v667h-242v-667zM822 1842l25 26l35 -30q21 -17 47 -41t55 -60q30 -36 50 -77q21 -41 22 -78q0 -36 -17 -52t-33 -16q-17 -1 -25 5t-13 15q-4 8 -8 30q-5 22 -9 40
q-4 17 -13 46q-10 28 -24 54q-13 25 -34 58q-22 33 -35 50zM1678 1210l39 58q14 21 43 71t39 72l30 65l99 -61q20 -13 33 -26t15 -26t-12 -20q-13 -7 -30 -5l-50 5q-46 -52 -62 -68q-15 -16 -83 -80l-46 -43q6 -28 13 -58q8 -30 10 -43l5 -35q12 -10 23 -18q10 -7 55 -45
l80 -68q49 -45 72 -81t25 -66q1 -31 -14 -50q-14 -19 -34 -18q-21 0 -32 14q-10 14 -26 51t-48 87t-34 54l-31 40l-25 32v-24l6 -68q5 -63 3 -133t-15 -137q-14 -67 -48 -132q-34 -64 -64 -88q-31 -24 -67 -38t-47 -14l-29 -3q1 30 -3 47q-5 18 -20 32q-14 15 -41 30
q-27 14 -48 23l-50 19l16 41l65 -22l57 -19q39 -15 52 -16q25 -3 49 9t48 49q23 36 34 99q12 63 15 115q3 58 0 125l-3 66q-9 -13 -18 -25l-30 -38q-20 -26 -44 -52q-24 -27 -86 -80q-62 -52 -113 -78l-108 -60l-22 37q48 29 85 55q37 25 88 71t82 83q32 38 80 110
q48 71 61 102l10 23q-1 15 -2 26q-1 12 -8 47l-10 51l-7 33l-47 -60q-31 -38 -101 -98q-69 -59 -116 -82l-72 -37l-23 39q37 23 73 48t86 80q50 54 85 102q35 49 52 76l30 49q-3 7 -11 33l-11 32l-18 46q-44 -54 -71 -80q-26 -27 -87 -74q-61 -48 -87 -63l-54 -33l-25 33
l71 55q30 24 75 70t75 87q31 41 55 85t39 78l27 63h-108q-24 0 -75 -5l-72 -7l-38 -4l-53 95q29 -7 43 -9t82 -7q68 -6 113 -6h295l101 98l125 -98q17 -14 14 -36q-3 -21 -25 -21h-288q-18 -40 -33 -68t-37 -61l-31 -46q41 -79 63 -126q22 -48 30 -72zM746 1276l-40 87
q27 -5 48 -8q22 -3 39.5 -4.5t50.5 -3.5t50 -2h99l61 65l92 -82q26 -24 20 -43q-5 -19 -27 -26l-64 -23l-26 -63l-47 -108l-40 -95l-15 -34h113l55 72l95 -68q16 -13 16 -31q1 -18 -26 -29l-39 -17l-21 -103q-11 -52 -30 -112q-18 -59 -51 -126q-33 -66 -57 -95l-43 -53
q29 -28 54 -49t72 -44t110 -38t183 -26q121 -11 200 -9q78 1 200 6q121 6 145 9l73 6l2 -34q-14 -4 -26 -9q-13 -4 -34 -18q-20 -14 -24 -36l-8 -29q-122 0 -191 1t-163 4q-93 4 -179.5 11t-145.5 23q-59 15 -102 34q-43 20 -89 54q-47 34 -74 62q-26 29 -39 30
q-13 0 -38 -25t-43 -51l-38 -54v-36q0 -30 -14 -34q-13 -4 -32 22l-71 91q35 21 49 30q13 9 56 41l92 66l35 25q20 29 37 58q16 29 34 85q19 57 37 138t23 111l14 91h-141q-7 -6 -12 -9t-19 -4q-25 -2 -38 3q-12 5 -18 13q-5 8 -2 19q0 2 8 17l10 25l141 343h-99
q-27 0 -58 -3q-30 -2 -41 -3t-25 -2z" />
  </g>

</svg>
