<?xml version="1.0" standalone="no"?>
<!DOCTYPE svg PUBLIC "-//W3C//DTD SVG 1.1//EN" "http://www.w3.org/Graphics/SVG/1.1/DTD/svg11.dtd" >
<svg xmlns="http://www.w3.org/2000/svg" xmlns:xlink="http://www.w3.org/1999/xlink" version="1.1" viewBox="0 -205 1024 1024">
  <g transform="matrix(1 0 0 -1 0 819)">
   <path fill="currentColor"
d="M540 932l56 -36q12 -6 12 -14q-1 -6 -34 -26v-96q1 -16 -10 -22q-12 -7 -38 -8v30h-316q-2 -138 -22 -216q-21 -76 -56 -128q-33 -52 -90 -100l-10 14q58 66 86 130q27 60 36 120q10 59 8 208v148l60 -44h290l28 40v0v0zM210 868v-84h316v84h-316v0v0zM238 676h240l34 44
l46 -48q3 -3 4 -8q0 -12 -12 -12h-228q-21 0 -68 -8l-16 32v0v0zM594 758h226v206l76 -28q9 -6 10 -14q0 -3 -38 -18v-146h38l32 44l52 -48q3 -3 4 -8q0 -12 -12 -12h-114v-332q0 -46 -20 -70q-22 -24 -52 -30q-5 30 -34 48q-27 15 -84 30l4 18l56 -10q56 -7 68 -4
q13 3 14 22v328h-142q-21 0 -68 -8l-16 32v0v0zM206 580h310l30 42l54 -46q3 -3 4 -8q0 -12 -12 -12h-164v-184q1 -29 -18 -46q-19 -18 -38 -24q-7 35 -32 46q-25 12 -62 22l2 18l42 -8q40 -6 50 -2q9 3 10 22v156h-92q-21 0 -68 -8l-16 32v0v0zM314 286l74 -28q8 -3 10 -8
q0 -9 -8 -14l-28 -14v-103q0 -30 16 -36q18 -6 48 -6h190q29 0 46 6q15 7 24 28q6 21 12 129h18q3 -87 12 -109q6 -21 30 -34q-16 -33 -40 -48q-24 -13 -86 -12h-248q-40 1 -56 22q-15 21 -14 54v173v0v0zM796 258q86 -35 124 -70q39 -33 42 -61q4 -30 -6 -42
q-11 -12 -28 -10q-15 3 -24 30q-7 27 -34 65q-26 37 -82 74l8 14v0v0zM202 268h18q0 -75 -18 -122q-17 -47 -46 -69q-30 -19 -50 -14q-19 6 -22 26q-3 18 24 32q27 15 54 47q26 30 40 100v0v0v0zM472 322q69 -29 96 -58q28 -30 26 -54q-4 -24 -16 -32q-11 -7 -22 -2
q-11 3 -16 22q-4 18 -22 48q-15 30 -54 64l8 12v0v0zM328 490q13 -5 14 -10q1 -9 -16 -12q-15 -2 -36 -22q-73 -73 -134 -124l-10 10q90 104 136 184l46 -26v0v0zM482 506q75 -27 108 -56q32 -28 32 -52t-12 -32q-11 -7 -22 -2q-11 3 -16 22q-5 15 -28 46q-21 29 -68 62
l6 12v0v0zM632 650l8 12q72 -37 94 -68q20 -30 14 -54q-6 -23 -18 -28q-13 -6 -22 0q-10 6 -10 24q-1 15 -14 46q-11 29 -52 68v0v0z" />
  </g>

</svg>
