<?xml version="1.0" standalone="no"?>
<!DOCTYPE svg PUBLIC "-//W3C//DTD SVG 1.1//EN" "http://www.w3.org/Graphics/SVG/1.1/DTD/svg11.dtd" >
<svg xmlns="http://www.w3.org/2000/svg" xmlns:xlink="http://www.w3.org/1999/xlink" version="1.1" viewBox="0 -143 1024 1024">
  <g transform="matrix(1 0 0 -1 0 881)">
   <path fill="currentColor"
d="M103 689l8 10q50 -18 77 -34t34 -35t-3 -35t-27 -14t-22 22t-17 38t-50 48zM187 831l6 12q60 -20 84 -36t29 -34t-3 -32t-25 -15t-22 20t-18 38t-51 47zM36 923h296v78l82 -20q17 -7 4 -18l-36 -12v-28h252v74l79 -20q14 -7 1 -18l-30 -10v-26h209l28 38l67 -47
q4 -4 4 -7q1 -10 -12 -10h-296v-16q1 -19 -14 -29.5t-36 -10.5v56h-252v-37q1 -18 -16 -30.5t-34 -12.5v80h-212q-26 1 -61 -8zM477 424h193v74h-193v-74zM477 524h193v68h-193v-68zM670 618v75h-193v-75h193zM558 796v-6.5t-9 -6.5q-21 -7 -25.5 -10.5t-38.5 -52.5h177h28
h172l34 43l61 -54q3 -2 3 -7q0 -9 -8 -9h-231v-75h105l26 37l64 -47q4 -4 4 -8q0 -8 -9 -8h-190v-68h128l24 34l64 -46q3 -2 3 -6q0 -8 -9 -8h-210v-74h172l31 42l64 -50q4 -5 4 -10q0 -8 -9 -8h-506v-20q0 -15 -18 -25.5t-35 -10.5l4 122v169q-58 -79 -104 -117l-11 10
q45 62 90 138t85 172zM610 823l7 14q67 -19 85 -36t17 -34t-15 -25t-25 -3.5t-13.5 18.5t-14 29t-41.5 37zM683 315l29 30q61 -53 61 -62q0 -5 -17 -8q-28 -2 -56 -26q-72 -54 -138 -94q74 -30 146 -41t132 -12t135 1v-18q-43 -6 -64 -15t-29 -35q-60 4 -138 22t-125 34
t-97 38q-92 -42 -210 -67t-234 -37l-5 18q141 26 235 51t172 63q-88 68 -140 132h-108l-30 -6l-20 32h501zM369 289q79 -72 149 -110q70 36 148 110h-297zM328 650l16 -9q-126 -204 -139 -234t-17 -60l-67 32q54 58 207 271z" />
  </g>

</svg>
