<?xml version="1.0" standalone="no"?>
<!DOCTYPE svg PUBLIC "-//W3C//DTD SVG 1.1//EN" "http://www.w3.org/Graphics/SVG/1.1/DTD/svg11.dtd" >
<svg xmlns="http://www.w3.org/2000/svg" xmlns:xlink="http://www.w3.org/1999/xlink" version="1.1" viewBox="0 -205 1024 1024">
  <g transform="matrix(1 0 0 -1 0 819)">
   <path fill="currentColor"
d="M48 866h288v118l80 -26q15 -6 0 -18l-28 -16v-58h244v114l84 -28q11 -5 2 -16l-34 -16v-54h186l44 50l62 -60q3 -3 4 -6q1 -10 -12 -10h-284v-22l4 -50q3 -15 -18 -26q-21 -12 -42 -12l4 84v26h-244v-26l4 -50q3 -15 -20 -26q-22 -12 -40 -12l4 90v24h-204q-24 0 -60 -8
l-24 34v0v0zM312 304l70 -26q15 -7 16 -10q1 -4 -4 -10l-34 -16v-103q0 -25 6 -38q5 -12 38 -16h212q33 0 46 6q14 6 22 30q9 20 12 113h20q0 -66 6 -90q6 -22 30 -31q-9 -36 -36 -52q-25 -15 -80 -18h-256q-36 3 -50 18q-13 13 -16 28q-3 13 -2 38v177v0v0zM452 358
q62 -42 86 -68q24 -27 28 -50q3 -21 -8 -36q-12 -14 -30 -12q-17 3 -22 24q-3 21 -12 52q-7 28 -52 80l10 10v0v0zM168 286h20q4 -81 -4 -126q-6 -46 -30 -65q-21 -18 -42 -16q-19 4 -22 22t18 36q22 14 38 49q15 30 22 100v0v0v0zM798 302q76 -42 104 -74q28 -30 32 -54
t-4 -39q-10 -18 -28 -16q-18 1 -24 29q-7 28 -22 62q-15 32 -66 80l8 12v0v0zM552 756q9 -6 4 -12q1 -3 -16 -8q52 -59 116 -106q63 -45 138 -78q75 -31 184 -34v-20q-46 0 -64 -8q-18 -6 -44 -36q-81 38 -138 74q-55 33 -110 82q-53 46 -106 122q-55 -55 -124 -112
q-67 -57 -142 -102t-218 -98l-4 14q102 44 192 106q88 60 152 120q62 60 110 126l70 -30v0v0zM654 506l60 -46q3 -2 4 -10q-3 -4 -12 -8l-30 -18l-60 -118q-4 -16 -28 -14q-15 3 -24 6l64 148h-340q-18 0 -36 -8l-22 34h394l30 34v0v0zM426 614l8 10q60 -30 90 -50
q27 -20 30 -40t-6 -34q-9 -15 -30 -12q-19 2 -22 26q-4 24 -16 42t-54 58v0v0z" />
  </g>

</svg>
