<?xml version="1.0" standalone="no"?>
<!DOCTYPE svg PUBLIC "-//W3C//DTD SVG 1.1//EN" "http://www.w3.org/Graphics/SVG/1.1/DTD/svg11.dtd" >
<svg xmlns="http://www.w3.org/2000/svg" xmlns:xlink="http://www.w3.org/1999/xlink" version="1.1" viewBox="0 -36 256 256">
  <g transform="matrix(1 0 0 -1 0 220)">
   <path fill="currentColor"
d="M60 179l14 -9q-6 -3 -13 -14h25l6 7l15 -12q-10 -3 -28 -21h25l6 8l13 -10l-6 -8v-27q0 -14 1 -25l-13 -5v5h-57v-5l-13 -4q1 15 1 32v33q-11 -12 -24 -21l-2 3q30 29 50 73zM58 149q-7 -8 -13 -17l3 -2h24q5 4 15 19h-29zM48 123v-20h23v20h-23zM83 103h22v20h-22v-20z
M48 96v-21h23v21h-23zM83 96v-21h22v21h-22zM42 56q0 -17 -5.5 -31t-15.5 -9.5t1 12.5t16 28h4zM56 54q22 -20 13.5 -31t-9 2.5t-6.5 26.5zM81 54l3 2q22 -18 14 -30t-9.5 3t-7.5 25zM106 56l2 1q24 -15 16 -26t-8.5 -0.5t-9.5 25.5zM227 79l-13 -5v7h-27v-23h37l9 8l15 -15
h-61q0 -28 1 -38l-14 -5q1 22 1 43h-20q-14 0 -23 -3l-11 10h54v23h-29v-7l-11 -2q1 18 1 37t-1 38l12 -4h39q12 22 15 36l15 -9q-6 -4 -25 -27h22l5 9l14 -10l-6 -10q0 -45 1 -53zM168 163q4 -5 3 -9t-5.5 -7t-7 7.5t-13.5 21.5l1 3q18 -11 22 -16zM147 115h28v21h-28v-21z
M187 115h27v21h-27v-21zM147 88h28v20h-28v-20zM187 88h27v20h-27v-20zM133 53q14 12 21 24l16 -6q-12 -6 -34 -21zM221 212h-182q0 -16 -9.5 -20.5t-15 0t6 11t14.5 25.5h4v-9h86q-2 7 -5 12.5t-13 11.5l1 3q21 -4 28 -11t-3 -16h89l7 8l15 -14q-13 -2 -30 -20l-3 2z
M94 215h15q2 -21 -19.5 -30.5t-60.5 -5.5v4q35 0 51 9t14 23zM159 216v-12q-2 -14 19 -13q25 0 30 3t15 -8q-2 -5 -30 -5h-21q-27 -2 -27 15v20h14z" />
  </g>

</svg>
