<?xml version="1.0" standalone="no"?>
<!DOCTYPE svg PUBLIC "-//W3C//DTD SVG 1.1//EN" "http://www.w3.org/Graphics/SVG/1.1/DTD/svg11.dtd" >
<svg xmlns="http://www.w3.org/2000/svg" xmlns:xlink="http://www.w3.org/1999/xlink" version="1.1" viewBox="0 -205 1024 1024">
  <g transform="matrix(1 0 0 -1 0 819)">
   <path fill="currentColor"
d="M272 244l40 -12h472l22 30l58 -32q12 -6 12 -14q0 -4 -26 -22v-73l4 -70q1 -9 -16 -22q-18 -9 -38 -12v54h-478v-30q0 -12 -20 -24q-19 -10 -34 -8l4 72v163v0v0zM322 97h478v109h-478v-109v0v0zM406 420h-224q-27 3 -54 -6l-16 32h676l22 28q67 -42 62 -50
q-3 -10 -32 -22q-12 -40 -24 -64q-9 -24 -26 -38q-15 -13 -38 -22q-24 -7 -60 -14q-7 27 -32 40q-23 11 -70 26l6 16q50 -9 74 -14q21 -4 42 -4q18 0 36 6q15 5 24 26q8 18 20 60h-332q-35 -61 -76 -98q-40 -37 -112 -74t-216 -74l-4 16q132 45 190 78q57 33 96 66
q40 34 68 86v0v0zM508 958l54 -54q7 -8 -4 -10h-330v-68h210l32 34l50 -46q4 -6 -4 -12h-288v-56h210l32 38l54 -50q6 -6 -6 -12h-290v-60h286l36 38l50 -48q6 -9 0 -14h-264q-73 -48 -154 -102l264 16q-30 25 -62 50l6 10q39 -12 70 -26q29 -16 50 -34q19 -19 18 -40
q-3 -22 -20 -26q-15 -4 -24 8q-6 12 -24 40q-151 -18 -224 -26q-72 -9 -98 -30l-36 60q27 2 60 16q54 39 102 84h-160q-16 0 -40 -8l-18 32h132v294l46 -38h252l32 40v0v0zM558 802q81 30 162 72q78 40 144 86l48 -46q8 -9 2 -14q-6 -3 -20 0q-13 3 -56 -14
q-42 -18 -116 -48q-73 -31 -154 -52l-10 16v0v0zM614 672q102 41 166 74q63 33 126 72l42 -46q8 -9 2 -14q-5 -4 -16 -2q-12 2 -36 -4t-98 -36q-75 -30 -176 -60l-10 16v0v0zM560 512q129 44 220 88q90 44 150 82l46 -48q8 -9 2 -14q-6 -3 -20 0q-12 3 -48 -8
q-33 -12 -122 -48q-90 -35 -222 -70l-6 18v0v0z" />
  </g>

</svg>
