<?xml version="1.0" standalone="no"?>
<!DOCTYPE svg PUBLIC "-//W3C//DTD SVG 1.1//EN" "http://www.w3.org/Graphics/SVG/1.1/DTD/svg11.dtd" >
<svg xmlns="http://www.w3.org/2000/svg" xmlns:xlink="http://www.w3.org/1999/xlink" version="1.1" viewBox="0 -205 1024 1024">
  <g transform="matrix(1 0 0 -1 0 819)">
   <path fill="currentColor"
d="M64 824h296l26 34l60 -42q16 -11 -6 -22q-23 -5 -40 -22q-16 -17 -50 -52q-31 -33 -70 -66v-6l46 -16q76 -28 92 -52q16 -25 8 -44q-7 -18 -22 -18q-15 -1 -24 14q-6 12 -30 40q-22 27 -70 54v-184l4 -50q0 -14 -20 -28q-18 -15 -36 -20l4 86v194q-93 -72 -194 -108
l-8 12q96 56 144 94t84 68q33 30 100 108h-222q-24 0 -48 -8l-24 34v0v0zM186 970l8 12q66 -24 90 -42q21 -16 28 -34q4 -16 -4 -32q-7 -15 -26 -14q-19 0 -26 24q-6 23 -20 44q-13 18 -50 42v0v0zM454 730h204v230l82 -30q8 -3 8 -12q2 -3 -4 -6l-34 -14v-168h104l36 40
l60 -50q3 -4 4 -10q1 -7 -16 -8h-188v-248h160l40 46l62 -56q6 -4 4 -10q-1 -6 -16 -6h-470q-22 1 -70 -10l-18 36h256v248h-128q-21 0 -56 -8l-20 36v0v0zM182 346l56 -26h532l38 40l50 -42q9 -6 10 -12q0 -6 -32 -26v-199h58l36 50l62 -60q3 -2 4 -8q3 -8 -12 -8h-874
q-21 1 -68 -8l-16 34h156v265v0v0zM232 81h160v211h-160v-211v0v0zM438 81h148v211h-148v-211v0v0zM632 81h154v211h-154v-211v0v0z" />
  </g>

</svg>
