<?xml version="1.0" standalone="no"?>
<!DOCTYPE svg PUBLIC "-//W3C//DTD SVG 1.1//EN" "http://www.w3.org/Graphics/SVG/1.1/DTD/svg11.dtd" >
<svg xmlns="http://www.w3.org/2000/svg" xmlns:xlink="http://www.w3.org/1999/xlink" version="1.1" viewBox="0 -205 1024 1024">
  <g transform="matrix(1 0 0 -1 0 819)">
   <path fill="currentColor"
d="M322 736h114v244l74 -28q24 -7 4 -20l-30 -16v-180h46l32 46l58 -54q2 -3 2 -8q0 -12 -12 -12h-126v-108q60 -25 88 -44q27 -19 36 -44q10 -24 0 -42q-12 -20 -30 -18q-17 3 -22 30q-6 26 -20 46q-13 20 -52 50v-410l4 -97q0 -14 -20 -26q-18 -14 -36 -14l4 133v400
q-43 -93 -86 -168q-42 -76 -108 -148l-14 8q50 78 86 148q35 70 68 152q32 80 52 152h-44q-20 0 -46 -8l-22 36v0v0zM652 526v380l52 -46q147 42 214 90q57 -58 60 -62q3 -3 -2 -8q-3 -7 -12 -4q-10 2 -26 2q-16 1 -70 -10q-53 -8 -166 -34v-214h192l38 52l56 -58
q15 -9 0 -20h-130v-442l4 -95q1 -13 -16 -30q-15 -16 -42 -14l6 135v446h-108v-66q-3 -177 -38 -300q-36 -120 -170 -219l-12 12q99 96 136 221q36 125 34 284v0v0zM118 920l8 16q53 -21 80 -36q26 -13 44 -34q15 -19 18 -40q2 -19 -10 -34q-12 -16 -30 -14q-15 3 -18 16
q-4 14 -10 34q-7 20 -22 38t-60 54v0v0zM46 704l6 14q53 -18 82 -36q27 -18 42 -36q12 -18 18 -38q3 -21 -8 -38q-11 -16 -28 -14q-17 0 -22 22q-6 20 -12 38q-6 15 -20 36q-14 18 -58 52v0v0zM182 412q-19 -58 -46 -62q-28 -4 -92 -4l-2 -20q39 -2 72 -10q30 -6 40 -18
q8 -12 10 -42q0 -30 -8 -84q-10 -53 -8 -81q1 -27 20 -36q18 -9 34 0t20 36q3 25 -6 83q-10 57 -10 94q-2 36 6 66q6 27 12 58l102 414l-20 8l-124 -402v0v0z" />
  </g>

</svg>
