<?xml version="1.0" standalone="no"?>
<!DOCTYPE svg PUBLIC "-//W3C//DTD SVG 1.1//EN" "http://www.w3.org/Graphics/SVG/1.1/DTD/svg11.dtd" >
<svg xmlns="http://www.w3.org/2000/svg" xmlns:xlink="http://www.w3.org/1999/xlink" version="1.1" viewBox="0 -154 1024 1024">
  <g transform="matrix(1 0 0 -1 0 870)">
   <path fill="currentColor"
d="M92 946l27 -33h163l24 32l61 -40q15 -12 -6 -12h-115v-135h42l22 30l50 -34q15 -12 -6 -12h-108v-135h44l26 35l46 -39q15 -12 -6 -12h-110v-132h54l26 29l41 -28q18 -13 0 -19l-17 -13v-146q-2 -96 -20 -138q-18 -44 -51 -68t-87 -35q0 18 -16 32q-27 15 -81 32l2 16
q79 -31 121 -31q27 0 61 33q35 34 41 137v179h-194v-12q-1 -18 -8 -26q-6 -9 -30 -14q4 25 4 56v458q2 15 -11 35zM612 695h143v128h-60q-16 2 -33 -14l-30 30h123v85q1 16 -26 46l8 12l78 -36q11 -5 5 -11q-19 -8 -27 -21v-75h67l28 28l42 -36q11 -8 -4 -12l-17 -8v-116h14
l26 30l50 -40q13 -10 -5 -10h-85v-53l5 -109q-4 -39 -39 -35v42h-82v-139h63l27 38l58 -44q15 -10 -5 -10h-143v-131h119l28 38l58 -48q13 -10 -5 -10h-200v-96l4 -61q-1 -39 -48 -46q5 39 6 118v85h-74q-23 1 -38 -13l-29 33h141v131h-71q-23 1 -39 -13l-29 29h139v139h-31
q-23 1 -39 -13l-29 29h99v139h-76q-23 1 -38 -13zM408 916l33 -35h101l26 40l62 -48q12 -12 -5 -12h-177v-135h68l26 41l63 -45q14 -12 -6 -13h-151v-134h82l26 40l60 -44q13 -12 -5 -12h-163v-138h110l25 40l58 -50q13 -10 -5 -10h-220q-20 2 -34 -10l-27 30h59v443
q2 21 -15 45zM506 318l10 7q92 -93 101 -148q11 -52 -21 -58q-17 -3 -20 34q-2 22 -8 43q-117 -43 -132 -52q-28 -12 -47 -38l-37 53q18 4 31 20q40 102 56 162q4 28 -5 39l7 6l62 -27q6 -8 -3 -11q-11 0 -26 -14q-9 -29 -26 -76t-36 -87l150 42q-16 42 -56 105zM126 742
v-135h88v135h-88zM126 893v-135h88v135h-88zM126 591v-132h88v132h-88zM875 675h-82v-139h82v139zM793 695h82v128h-82v-128zM70 348h16q1 -49 -1 -78q-1 -31 -9 -55t-26 -35q-18 -9 -22 6q-6 16 9 31q16 15 23 45q6 29 10 86zM231 385l9 8q37 -35 54 -62q18 -27 17 -53
q-2 -27 -17 -26q-12 -1 -15 23q-3 22 -10 43q-8 21 -38 67zM165 369l9 7q30 -24 47 -54q17 -32 17 -57q-2 -27 -17 -29q-13 -3 -15 24q-3 27 -10 51t-31 58zM113 357l14 6q23 -41 33 -74q11 -33 5 -56q-6 -24 -20 -22q-15 2 -11 26q5 24 2 45q-3 19 -8 33q-3 13 -15 42z" />
  </g>

</svg>
