<?xml version="1.0" standalone="no"?>
<!DOCTYPE svg PUBLIC "-//W3C//DTD SVG 1.1//EN" "http://www.w3.org/Graphics/SVG/1.1/DTD/svg11.dtd" >
<svg xmlns="http://www.w3.org/2000/svg" xmlns:xlink="http://www.w3.org/1999/xlink" version="1.1" viewBox="0 -36 256 256">
  <g transform="matrix(1 0 0 -1 0 220)">
   <path fill="currentColor"
d="M202 204h-151q2 -15 -3 -22t-15.5 -6t-4.5 8t10.5 14t7.5 24h4l1 -11h74q0 16 -16 34l2 2q27 -10 29 -18.5t-6 -17.5h67l9 12l20 -18q-20 -3 -39 -28l-3 2zM220 180l19 -20h-86q33 -31 90 -38v-4q-19 -1 -19 -11q-51 16 -78 53h-38q-29 -38 -91 -63l-1 4q49 25 76 59h-46
q-10 0 -19 -2l-9 9h78q11 15 17 32l17 -12q-7 -4 -10 -8l-9 -12h96zM82 116h94l8 10l16 -14l-10 -7v-33q0 -12 1 -25l-15 -7v10h-94v-6l-15 -6q1 25 1 45t-1 41zM82 86h94v23h-94v-23zM82 57h94v22h-94v-22zM211 28l16 13l17 -20h-205q-10 0 -19 -2l-9 9h200z" />
  </g>

</svg>
