<?xml version="1.0" standalone="no"?>
<!DOCTYPE svg PUBLIC "-//W3C//DTD SVG 1.1//EN" "http://www.w3.org/Graphics/SVG/1.1/DTD/svg11.dtd" >
<svg xmlns="http://www.w3.org/2000/svg" xmlns:xlink="http://www.w3.org/1999/xlink" version="1.1" viewBox="0 -36 256 256">
  <g transform="matrix(1 0 0 -1 0 220)">
   <path fill="currentColor"
d="M86 160l-13 -8v12h-12v-46h12l9 12l13 -19h-34v-59l30 11l1 -4q-32 -14 -63 -32l-9 -9l-12 17l14 5q0 77 -1 99l20 -14l-7 -7v-74l15 5v115h-18v-7l-13 -7q1 14 1 44t-1 48l14 -10h39l9 11l11 -16l-6 -5q0 -41 1 -62zM31 171h42v54h-42v-54zM195 193h28v34h-28v-34z
M98 215.5q0 14.5 -2 26.5l16 -8h108l8 11l15 -14l-7 -6v-21q0 -12 1 -19l-14 -7v8h-112v-5l-15 -5q2 25 2 39.5zM111 193h29v34h-29v-34zM152 193h30v34h-30v-34zM215 161q7 -8 -5 -18h11l10 12l16 -19h-35v-28h7l9 10l13 -17h-29v-31h7l9 10l13 -17h-29v-30h8l11 11l17 -18
h-69v-12l-13 -6q1 19 1 114q-5 -10 -15 -22l-3 3q8 13 16.5 36t9.5 40l19 -10q-6 -5 -16 -26h28q-2 16 -11 31l3 2q10 -7 17 -15zM179 108h21v28h-21v-28zM179 70h21v31h-21v-31zM179 33h21v30h-21v-30zM120.5 154.5q-8.5 -11.5 -18.5 -23.5l28 1q8 12 12 24l13 -14
q-9 -6 -21.5 -20.5t-30.5 -34.5l38 3q-2 8 -9 18l3 2q23 -19 20 -29t-7.5 -11t-5.5 15q-13 -2 -24.5 -5t-17.5 -10l-13 16q6 3 16.5 13.5t21.5 26.5q-9 -2 -14.5 -3.5t-9.5 -5.5l-11 15q5 3 14 14.5t17 34.5l16 -11q-8 -4 -16.5 -15.5zM105 56q0 -22 -2 -30t-8.5 -10.5
t-9.5 3t3.5 11t13.5 26.5h3zM119 62q16 -18 16.5 -27.5t-6 -13t-7.5 9t-6 30.5zM138 67q20 -15 22.5 -23t-3.5 -13t-9.5 7t-12.5 27z" />
  </g>

</svg>
