<?xml version="1.0" standalone="no"?>
<!DOCTYPE svg PUBLIC "-//W3C//DTD SVG 1.1//EN" "http://www.w3.org/Graphics/SVG/1.1/DTD/svg11.dtd" >
<svg xmlns="http://www.w3.org/2000/svg" xmlns:xlink="http://www.w3.org/1999/xlink" version="1.1" viewBox="0 -36 256 256">
  <g transform="matrix(1 0 0 -1 0 220)">
   <path fill="currentColor"
d="M169 114q17 14 30 30h-58q16 -22 28 -30zM210 206q-9 8 -26 19l2 3q26 -8 37.5 -15t12 -14t-4 -10t-7.5 1t-10 11q-77 -5 -97 -13l-11 17q11 2 25.5 13.5t25.5 27.5l18 -13q-10 -3 -49 -28zM180 107q15 -9 33.5 -13t34.5 -5v-4q-15 -3 -21 -13q-29 6 -59 28
q-39 -21 -86 -29l-1 4q52 15 79 33q-10 10 -24 34q-18 -17 -40 -27l-2 3q20 14 32.5 31t16.5 26l19 -11q-9 -5 -18 -13h58l8 8l13 -13l-9 -5q-15 -19 -34 -34zM112 49q0 10 -1 22l22 -7l-7 -6v-30h33v45q0 9 -1 17l22 -7l-7 -6v-49h32v22q0 12 -1 22l21 -7l-6 -6v-16
q0 -11 1 -28l-15 -5v11h-80l-7 -7l-12 9l6 6v20zM141.5 172.5q-14.5 -11.5 -43.5 -16.5l-1 4q40 14 47 38l16 2q-4 -16 -18.5 -27.5zM195 182q2 -4 6 -4h14q9 0 14.5 2t13.5 -8q0 -5 -29 -5q-32 -3 -34 16v18l14 1q-1 -16 1 -20zM22 9q1 42 1 119t-1 107l16 -9h38l7 9
l15 -13l-6 -5q-13 -23 -28 -52q16 -13 23 -26t5.5 -25.5t-8.5 -19.5t-22 -11q-1 13 -21 18v4q12 -2 23 -2.5t13 8t-0.5 21.5t-19.5 33l20 54h-40v-202z" />
  </g>

</svg>
