<?xml version="1.0" standalone="no"?>
<!DOCTYPE svg PUBLIC "-//W3C//DTD SVG 1.1//EN" "http://www.w3.org/Graphics/SVG/1.1/DTD/svg11.dtd" >
<svg xmlns="http://www.w3.org/2000/svg" xmlns:xlink="http://www.w3.org/1999/xlink" version="1.1" viewBox="0 -36 256 256">
  <g transform="matrix(1 0 0 -1 0 220)">
   <path fill="currentColor"
d="M81 214l12 12l16 -19h-44q-8 -35 -15 -59h27l7 10l14 -12l-7 -7q0 -79 1 -97l-14 -8v17h-28v-24l-14 -6q1 35 1 95q-9 -23 -28 -46l-3 2q32 59 44 135h-6q-10 0 -19 -2l-9 9h65zM50 58h28v83h-28v-83zM95 126l-3 4q55 68 64 116l23 -12l-10 -9q40 -61 78 -70v-5
q-15 -1 -19 -14q-45 37 -62 85q-28 -56 -71 -95zM182 120q17 -26 22 -43.5t6.5 -25.5t-6 -17.5t-8 2t-4.5 34t-13 49.5zM154 169l23 -12l-9 -8v-106q0 -16 -5 -23.5t-18 -11.5q2 15 -29 25v3q24 -4 31.5 -4t7.5 9v102q0 12 -1 26zM99 34l-3 1q5 11 14.5 38t10.5 52l22 -11
l-7 -5q-7 -29 -37 -75zM203 127q16 -22 25 -38.5t11.5 -27t-4.5 -19.5t-8.5 3t-8 33t-18.5 46z" />
  </g>

</svg>
