<?xml version="1.0" standalone="no"?>
<!DOCTYPE svg PUBLIC "-//W3C//DTD SVG 1.1//EN" "http://www.w3.org/Graphics/SVG/1.1/DTD/svg11.dtd" >
<svg xmlns="http://www.w3.org/2000/svg" xmlns:xlink="http://www.w3.org/1999/xlink" version="1.1" viewBox="0 -205 1024 1024">
  <g transform="matrix(1 0 0 -1 0 819)">
   <path fill="currentColor"
d="M476 846q87 -36 90 -42q3 -5 -2 -10q-6 -5 -36 -16v-148l114 34v302q93 -36 96 -44q2 -7 -4 -10l-40 -16v-214l138 42l26 44q66 -34 70 -44q3 -9 -2 -12q-5 -4 -28 -20q-12 -283 -20 -316q-7 -34 -26 -52q-17 -18 -52 -24q-3 23 -20 34t-70 28l4 18q44 -9 70 -12
q24 -4 36 8q10 12 14 36q3 24 12 288l-152 -48v-278l4 -100q3 -21 -20 -36q-22 -16 -40 -16l4 144v270l-114 -36v-461q2 -30 14 -34q12 -2 24 -2h308l20 2q29 16 32 47l8 136h20q8 -99 16 -120q8 -19 28 -29q-16 -65 -74 -82l-28 -2h-336q-27 0 -48 8q-18 7 -30 26
q-6 19 -6 53v442l-66 -24q-3 -3 -20 -14l-32 30l118 38v232v0v0zM164 988q93 -51 114 -80q21 -28 22 -52q-1 -25 -14 -34q-12 -10 -26 -8q-13 2 -20 32q-5 27 -16 52q-10 24 -70 78l10 12v0v0zM42 746h262l30 44l66 -54q3 -3 4 -8q-1 -2 -16 -10q-33 -10 -54 -46
q-21 -33 -66 -98v-18q99 -30 126 -54q27 -21 34 -42q6 -21 -2 -36q-6 -16 -24 -16q-15 -1 -26 26q-9 26 -38 56q-29 26 -70 44v-378l4 -85q3 -14 -18 -26q-19 -14 -38 -16l4 129v358q-72 -94 -186 -184l-10 10q96 102 142 166q46 60 74 106q27 45 64 108h-190q-24 0 -48 -12
l-24 36v0v0z" />
  </g>

</svg>
