<?xml version="1.0" standalone="no"?>
<!DOCTYPE svg PUBLIC "-//W3C//DTD SVG 1.1//EN" "http://www.w3.org/Graphics/SVG/1.1/DTD/svg11.dtd" >
<svg xmlns="http://www.w3.org/2000/svg" xmlns:xlink="http://www.w3.org/1999/xlink" version="1.1" viewBox="0 -36 256 256">
  <g transform="matrix(1 0 0 -1 0 220)">
   <path fill="currentColor"
d="M120 149l-3 2q8 12 17.5 41t13.5 52l21 -11l-8 -5q-7 -14 -13 -29h70l11 10l16 -17h-47v-42h15l10 10l17 -17h-42v-44h16l11 10l16 -17h-43v-50h21l12 12l17 -19h-99v-18l-13 -8q1 35 1 164q-10 -18 -17 -24zM149 192v-42h36v42h-36zM149 99h36v44h-36v-44zM149 42h36v50
h-36v-50zM180 244q16 -9 22.5 -17t0 -17.5t-9.5 3.5t-15 29zM47 243l18 -8l-7 -6l-3 -10h35l7 8l13 -9l-7 -9l-13 -54h15l10 10l16 -17h-57q-7 -7 -18 -15q16 -16 23 -30q16 15 29 37l15 -14l-9 -2q-10 -9 -33 -26l2 -6q22 -8 32.5 -16.5t7.5 -21t-11.5 3t-27.5 29.5
q5 -33 -2 -51t-23 -27q-3 13 -23 20l1 4q16 -3 22 -3t11 13.5t2 35.5q-21 -23 -59 -38l-1 4q41 24 57 52q-2 6 -5 12q-18 -18 -46 -30l-1 5q30 20 40 38l-6 7q-15 -8 -34 -16l-1 5q24 11 40 30h-18q-11 0 -20 -3l-9 10h68l5 20h-38l-6 -6l-12 10l7 6q12 41 14 58zM46 182h37
l7 30h-36l-9 -29z" />
  </g>

</svg>
