<?xml version="1.0" standalone="no"?>
<!DOCTYPE svg PUBLIC "-//W3C//DTD SVG 1.1//EN" "http://www.w3.org/Graphics/SVG/1.1/DTD/svg11.dtd" >
<svg xmlns="http://www.w3.org/2000/svg" xmlns:xlink="http://www.w3.org/1999/xlink" version="1.1" viewBox="0 -143 1024 1024">
  <g transform="matrix(1 0 0 -1 0 881)">
   <path fill="currentColor"
d="M206 71h170v144h-170v-144zM424 71h157v144h-157v-144zM629 71h162v144h-162v-144zM154 249l47 -8h583l27 26l52 -33q13 -10 1 -20l-21 -13v-130h62l34 44l60 -53q4 -3 4 -9q4 -8 -11 -8h-892q-21 0 -47 -10l-25 36h126v178zM527 782l54 -19h297l20 23l46 -30q6 -4 6 -13
q0 -5 -19 -16v-166l4 -40q0 -15 -18 -27.5t-35 -12.5v42h-306v-14q0 -1 -16.5 -5.5t-36.5 -6.5l4 69v216zM576 549h306v46h-306v-46zM576 621h306v44h-306v-44zM576 690h306v47h-306v-47zM912 985l53 -37q8 -4 8 -11q0 -3 -23 -21v-56l4 -25q2 -10 -10 -20.5t-41 -17.5v20
h-429q-2 -89 -30.5 -167t-106.5 -150l-10 10q62 86 80 167t16 149v153l62 -22h406zM474 931v-88h203v88h-203zM726 931v-88h175v88h-175zM262 497h16q-10 -60 -21 -87t-30 -43t-41 -15t-26 14t1 22t27 16t40 30t34 63zM143 973l8 12q52 -16 77 -28t36 -29t5 -38t-26 -23
t-23 20t-23 44t-54 42zM77 853l6 14q54 -18 80 -32t35 -32t1 -35t-26 -18t-24 22t-19 38t-53 43zM376 884l16 -10q-144 -190 -158 -216t-11 -49t7 -37t4 -32t-12 -27t-29 -5t-21 20t4 46t9 41.5t-3 18.5t-23 13.5t-65 18.5l4 16q71 -8 85.5 -1t32 21t160.5 182zM50 252
q120 32 225 79t144.5 89t53.5 92q62 -28 66 -34t-4 -10t-21 -6q-8 -11 -18 -28q88 -16 158 -34q34 38 68 82l52 -36q8 -10 2 -16q-20 2 -44 -8l-54 -30q130 -34 190 -60t65 -53t-12 -35t-42 12t-79 48t-145 59t-169 55q-64 -70 -182 -116t-254 -64v14z" />
  </g>

</svg>
