<?xml version="1.0" standalone="no"?>
<!DOCTYPE svg PUBLIC "-//W3C//DTD SVG 1.1//EN" "http://www.w3.org/Graphics/SVG/1.1/DTD/svg11.dtd" >
<svg xmlns="http://www.w3.org/2000/svg" xmlns:xlink="http://www.w3.org/1999/xlink" version="1.1" viewBox="0 -205 1024 1024">
  <g transform="matrix(1 0 0 -1 0 819)">
   <path fill="currentColor"
d="M836 874q-87 -21 -150 -48v-212l102 20l28 50l68 -42q6 -6 6 -12q0 -3 -6 -6l-198 -38v-188l166 30l26 52l64 -40q12 -4 10 -14q-1 -3 -10 -8l-256 -48v-245q0 -17 34 -20h158q40 0 50 37q9 36 12 142h20l6 -68q5 -70 38 -83q-9 -26 -26 -46q-16 -18 -64 -28h-202
q-26 0 -40 2q-13 3 -26 20q-9 15 -12 56v223l-162 -32q-19 -6 -34 -14l-28 32l224 44v184l-116 -20q-18 -6 -30 -14l-30 32l176 32v208q-73 -20 -172 -46l-8 18q131 44 224 80q93 35 166 74l50 -44q12 -12 6 -18q-5 -7 -22 -4q-15 4 -42 2v0v0zM50 736h310l34 52l58 -56
q3 -3 4 -8q0 -12 -12 -12h-310q-19 0 -68 -8l-16 32v0v0zM368 506q-13 -42 -32 -102q-18 -60 -54 -150l172 40l6 -18q-309 -94 -330 -106q-19 -13 -40 -35l-42 63l208 48q33 122 54 212q20 87 34 160q80 -30 82 -36q0 -7 -8 -10q-10 -3 -22 -14q-13 -10 -28 -52v0v0z
M166 936l10 10q60 -37 90 -70q27 -33 30 -62q2 -27 -10 -42t-30 -12t-18 28q0 24 -12 60q-12 33 -60 88v0v0zM94 610l14 6q57 -79 84 -140q23 -60 26 -96q0 -37 -12 -52q-11 -13 -28 -10q-18 3 -18 36q1 33 -4 66q-3 33 -20 84q-15 50 -42 106v0v0z" />
  </g>

</svg>
