<?xml version="1.0" standalone="no"?>
<!DOCTYPE svg PUBLIC "-//W3C//DTD SVG 1.1//EN" "http://www.w3.org/Graphics/SVG/1.1/DTD/svg11.dtd" >
<svg xmlns="http://www.w3.org/2000/svg" xmlns:xlink="http://www.w3.org/1999/xlink" version="1.1" viewBox="0 -36 256 256">
  <g transform="matrix(1 0 0 -1 0 220)">
   <path fill="currentColor"
d="M49 64v98q-21 -27 -38 -42l-2 3q13 16 22.5 31t24.5 43t22 48l18 -16q-4 0 -13 -13.5t-24 -38.5l10 -8l-7 -6v-147l-14 -7q1 27 1 55zM105 213h119l7 7l15 -13q-4 -1 -11.5 -5t-17.5 -14l-4 2l10 16h-118q0 -12 -4 -17.5t-9.5 -6t-7.5 4t6 11.5t12 23h4zM171.5 230.5
q4.5 -5.5 -2 -13.5t-10 2t-16.5 23l2 3q22 -9 26.5 -14.5zM150 194q-11 -3 -27.5 -15t-34.5 -20l-2 4q13 8 26.5 19.5t21.5 24.5zM159 152q-12 -35 -64 -62l-2 4q21 15 38 35q10 14 13 23h-18q-22 -21 -42 -34l-2 4q11 9 25 25.5t21 32.5l18 -8q-6 -3 -15 -13h73l8 8l13 -12
l-7 -4q-5 -42 -6.5 -53t-7.5 -17t-17 -9q-1 8 -5.5 11t-15.5 5l1 4q16 -2 22 -2t8.5 9t4 24.5t2.5 28.5h-12q-12 -33 -29 -49.5t-55 -30.5l-2 3q57 29 71 77h-18zM99 67q1 -23 -4.5 -31t-15 -5t0.5 11.5t16 24.5h3zM148 77q21 -8 27.5 -13t1 -13t-11 1.5t-20.5 21.5zM211 68
q25 -11 30.5 -18t0.5 -15t-10 3t-23 27zM116 69l22 -8l-7 -7v-17q0 -9 12 -11h41q8 2 10 8t3 19h4q0 -10 1.5 -15.5t10.5 -9.5q-5 -8 -11.5 -10.5t-14.5 -2.5h-50q-20 0 -20 16v16q0 9 -1 22zM195 188q1 -6 4.5 -7.5t14.5 -1.5q12 1 18.5 3t14.5 -8q-2 -5 -16 -5h-26
q-21 -2 -23 15v24h13v-20zM117 148l4 2q32 -26 61.5 -34.5t62.5 -9.5v-3q-13 -3 -17 -11q-31 6 -51.5 14t-38 21.5t-21.5 20.5z" />
  </g>

</svg>
