<?xml version="1.0" standalone="no"?>
<!DOCTYPE svg PUBLIC "-//W3C//DTD SVG 1.1//EN" "http://www.w3.org/Graphics/SVG/1.1/DTD/svg11.dtd" >
<svg xmlns="http://www.w3.org/2000/svg" xmlns:xlink="http://www.w3.org/1999/xlink" version="1.1" viewBox="0 -205 1024 1024">
  <g transform="matrix(1 0 0 -1 0 819)">
   <path fill="currentColor"
d="M442 660l58 -10h170l32 38l62 -44q3 -3 4 -6q0 -6 -32 -30v-296l4 -70q0 -11 -14 -22q-15 -9 -42 -14v60h-192v-58q1 -15 -16 -26q-16 -10 -38 -10l4 106v382v0v0zM492 292h192v162h-192v-162v0v0zM492 480h192v144h-192v-144v0v0zM48 670q120 108 240 298l60 -50
q8 -12 -4 -18q-24 -1 -36 -8t-72 -76q-59 -66 -178 -162l-10 16v0v0zM356 724q6 -6 4 -8q3 -3 -6 -8q-24 -3 -42 -24q-16 -19 -64 -100v-416l4 -95q0 -12 -20 -28q-21 -16 -36 -14l4 131v356q-75 -109 -156 -184l-10 12q75 96 154 226q75 129 100 198l68 -46v0v0zM620 936
q7 -4 8 -8q3 -9 -6 -12q-15 -5 -26 -10q-12 -5 -20 -16q-7 -10 -38 -68h320l30 42l66 -40q9 -6 6 -12q0 -6 -30 -26v-446q-6 -215 -42 -263q-35 -46 -100 -62q-9 33 -32 48q-24 16 -102 44l4 18q108 -30 142 -30q32 1 52 28q17 24 26 219v454h-360q-57 -114 -186 -252
l-12 10q111 162 156 256q44 92 68 160l76 -34v0v0z" />
  </g>

</svg>
