<?xml version="1.0" standalone="no"?>
<!DOCTYPE svg PUBLIC "-//W3C//DTD SVG 1.1//EN" "http://www.w3.org/Graphics/SVG/1.1/DTD/svg11.dtd" >
<svg xmlns="http://www.w3.org/2000/svg" xmlns:xlink="http://www.w3.org/1999/xlink" version="1.1" viewBox="0 -205 1024 1024">
  <g transform="matrix(1 0 0 -1 0 819)">
   <path fill="currentColor"
d="M546 700h348l32 42l56 -50q3 -3 4 -6q0 -12 -12 -12h-270q-1 -64 -2 -164h156l30 36l52 -36q9 -6 10 -14q0 -4 -14 -14l-20 -14q-1 -151 -8 -226q-6 -75 -18 -105q-9 -29 -30 -50t-74 -36q-13 41 -50 52q-36 9 -84 24l6 17q110 -16 134 -19q21 -1 36 10q11 7 20 37
q6 30 12 84q3 53 10 226h-170q-7 -110 -22 -178q-13 -67 -62 -142q-48 -72 -198 -153l-10 16q145 92 182 169q38 75 50 156t12 162v162h-44q-16 0 -46 -8l-16 34v0v0zM892 866l40 50l60 -60l2 -4q0 -10 -8 -10h-448v-198q-6 -246 -36 -378q-30 -129 -192 -243l-10 14
q131 112 158 243q24 129 30 354v272l62 -40h342v0v0zM78 792l46 -38h82v230l72 -34q12 -6 4 -18l-26 -16v-162h72l26 36l52 -38q12 -9 4 -14l-24 -22v-200l4 -64q3 -12 -12 -24q-13 -12 -40 -14v50h-82v-234l98 14q-18 59 -48 104l12 10q60 -61 78 -94t18 -50
q-1 -18 -10 -30q-7 -10 -20 -10q-11 0 -16 6q-6 6 -6 18q-1 12 -4 30q-151 -40 -206 -58q-55 -19 -86 -39l-38 61l178 28v244h-80v-28q0 -4 -18 -14q-19 -9 -34 -8l4 90v288v0v0zM126 488h80v242h-80v-242v0v0zM256 730v-242h82v242h-82v0v0z" />
  </g>

</svg>
