<?xml version="1.0" standalone="no"?>
<!DOCTYPE svg PUBLIC "-//W3C//DTD SVG 1.1//EN" "http://www.w3.org/Graphics/SVG/1.1/DTD/svg11.dtd" >
<svg xmlns="http://www.w3.org/2000/svg" xmlns:xlink="http://www.w3.org/1999/xlink" version="1.1" viewBox="0 -200 1003 1000">
  <g transform="matrix(1 0 0 -1 0 800)">
   <path fill="currentColor"
d="M839 245q-35 43 -58 87t-38 88t-23.5 87.5t-14.5 85.5v-436q-5 -8 -17.5 -18t-29.5 -10v400q-31 -100 -76 -176.5t-121 -138.5l-10 10q39 48 68 98.5t50.5 100t36.5 96.5t26 88h-72l-59 -10l-13 33h170v161h-108l-61 -9l-17 32h186v188l63 -29l-16 -59v-100h109l43 43
l60 -66h-212v-161h83l41 41l63 -64h-171q14 -60 30.5 -108t40 -88t57.5 -74.5t82 -66.5q-23 -5 -35.5 -8.5t-21 -7t-15 -7t-16.5 -7.5zM899 191v-13q0 -40 9 -58t20.5 -25.5t20.5 -11t9 -14.5v-3q-1 -7 -9 -13t-20 -10.5t-27 -7t-31 -2.5h-517q-10 4 -19.5 6t-16.5 8
t-11.5 19.5t-4.5 40.5v286h-24l-56 -10l-19 36h99v203h-19l-58 -8l-18 34h95v246h-109l-11 -38q-4 -49 -4 -104t-2 -121q-3 -57 -5.5 -110.5t-7.5 -95.5l-5 -32q-20 -146 -47.5 -241.5t-68.5 -151.5l-14 5q35 90 54.5 183.5t29 205t12.5 248.5t4 313l68 -37h100l39 40
l54 -53l-38 -37v-219h31l39 39l55 -66h-125v-203h34l39 41l57 -67h-130v-262q1 -3 3 -11t5 -16.5t6.5 -15.5t8.5 -9h468q16 1 25 9.5t13.5 21.5t5.5 29.5t1 34.5v17h12z" />
  </g>

</svg>
