<?xml version="1.0" standalone="no"?>
<!DOCTYPE svg PUBLIC "-//W3C//DTD SVG 1.1//EN" "http://www.w3.org/Graphics/SVG/1.1/DTD/svg11.dtd" >
<svg xmlns="http://www.w3.org/2000/svg" xmlns:xlink="http://www.w3.org/1999/xlink" version="1.1" viewBox="0 -205 1024 1024">
  <g transform="matrix(1 0 0 -1 0 819)">
   <path fill="currentColor"
d="M530 956q6 -4 6 -10q4 -7 -16 -10q-26 -18 -64 -72h304l28 42l70 -42q6 -4 6 -8q0 -7 -36 -34v-210l4 -86q0 -12 -18 -26q-15 -12 -36 -14v46h-486v-14q0 -12 -18 -24t-36 -14l4 124v304l62 -44h126q19 50 38 116l62 -24v0v0zM292 560h486v120h-486v-120v0v0zM292 708
h486v128h-486v-128v0v0zM178 454l52 -30h590l24 38l58 -38q6 -3 6 -6q0 -7 -26 -26v-250l4 -77q1 -10 -16 -20q-15 -9 -38 -12v50h-604v-22q1 -12 -16 -24q-15 -13 -38 -14l4 117v314v0v0zM228 107h280v143h-280v-143v0v0zM560 107h272v143h-272v-143v0v0zM228 276h280v122
h-280v-122v0v0zM560 398v-122h272v122h-272v0v0z" />
  </g>

</svg>
