<?xml version="1.0" standalone="no"?>
<!DOCTYPE svg PUBLIC "-//W3C//DTD SVG 1.1//EN" "http://www.w3.org/Graphics/SVG/1.1/DTD/svg11.dtd" >
<svg xmlns="http://www.w3.org/2000/svg" xmlns:xlink="http://www.w3.org/1999/xlink" version="1.1" viewBox="0 -410 2048 2048">
  <g transform="matrix(1 0 0 -1 0 1638)">
   <path fill="currentColor"
d="M71 1585q91 -22 230 -22h352l90 114l144 -110q19 -14 19 -27q0 -31 -33 -31h-358v-921q28 9 42 14q117 37 335 131l19 -41q-319 -179 -734 -308l-3 -36q-3 -32 -25 -32q-19 0 -32 27l-66 131q138 23 368 82v953h-122q-116 0 -192 -8zM1783 1766l68 76l84 -54
q40 -26 40 -49q0 -27 -78 -61q-1 -58 -6 -169q-29 -1010 -100 -1234q-43 -134 -135 -189q-66 -39 -153 -53q-3 53 -38 76q-36 23 -242 87l9 42q194 -56 298 -56q122 0 168 180q43 170 62 471q17 278 33 875h-493q-14 -563 -69 -828q-125 -604 -581 -860l-27 34
q313 224 432 572q84 246 113 531q17 170 24 551h-134q-63 0 -148 -11l-39 86q121 -17 187 -17h725z" />
  </g>

</svg>
