<?xml version="1.0" standalone="no"?>
<!DOCTYPE svg PUBLIC "-//W3C//DTD SVG 1.1//EN" "http://www.w3.org/Graphics/SVG/1.1/DTD/svg11.dtd" >
<svg xmlns="http://www.w3.org/2000/svg" xmlns:xlink="http://www.w3.org/1999/xlink" version="1.1" viewBox="0 -36 256 256">
  <g transform="matrix(1 0 0 -1 0 220)">
   <path fill="currentColor"
d="M50 135q-13 1 -25 -3l-9 10h38v8q0 11 -1 35l22 -12l-7 -7v-24h12l12 11l13 -18h-37v-32l35 15l1 -4q-23 -14 -36 -21v-65q-4 -14 -19 -21q-2 13 -24 18v5q15 -2 21.5 -3.5t7.5 9.5v50q-12 -5 -27 -16l-5 -7l-12 18q15 5 44 17v37h-4zM204 145v17h-74v-17h74zM130 138
v-18h74v18h-74zM217 162v-24q0 -12 1 -27l-14 -5v7h-74v-4l-15 -5q2 19 2 36.5t-2 35.5l16 -7h69l7 11l17 -11zM173 30q27 -5 74 -2v-5q-20 -1 -21 -13q-80 0 -105 38q-9 -23 -39 -40l-2 3q32 23 37 72l18 -10l-7 -4q-1 -6 -4 -15q8 -13 35 -22v56h-40q-9 1 -21 -2l-10 9
h126l12 10l16 -17h-69v-22h32l10 10l16 -17h-58v-29zM68 230l-10 -15h54l11 11l14 -18h-55q19 -11 20 -19.5t-5 -15t-9 6.5t-15 28h-19q-18 -26 -39 -42l-4 2q16 19 27 37t19 42l21 -13zM171 231l-11 -16h58l10 11l15 -18h-61q14 -8 18.5 -12.5t3 -11.5t-6 -8t-8 9.5
t-16.5 22.5h-17q-12 -17 -30 -33l-3 3q19 28 26.5 43t10.5 26l22 -14z" />
  </g>

</svg>
