<?xml version="1.0" standalone="no"?>
<!DOCTYPE svg PUBLIC "-//W3C//DTD SVG 1.1//EN" "http://www.w3.org/Graphics/SVG/1.1/DTD/svg11.dtd" >
<svg xmlns="http://www.w3.org/2000/svg" xmlns:xlink="http://www.w3.org/1999/xlink" version="1.1" viewBox="0 -36 256 256">
  <g transform="matrix(1 0 0 -1 0 220)">
   <path fill="currentColor"
d="M119 200h33v25h-33v-25zM119 169h33v24h-33v-24zM119 15l-13 -8q1 36 1 123t-1 112l13 -10h31l7 10l13 -12l-6 -5q0 -51 1 -69l-13 -5v11h-33v-147zM193 200h33v25h-33v-25zM193 169h33v24h-33v-24zM217.5 28.5q8.5 -0.5 8.5 8.5v125h-33v-7l-13 -4q1 21 1 45t-1 45
l13 -9h31l6 9l13 -11l-5 -5v-189q1 -21 -18 -28q-2 12 -21 18v4q10 -1 18.5 -1.5zM154 80h35v19h-34zM141 64.5q2 18.5 2 37.5t-1 38l13 -9h32l7 9l13 -12l-6 -5v-71q0 -18 -16 -26q-2 12 -22 16v5q18 -2 22 -1t4 10v17h-35q-2 -26 -21 -52l-3 2q9 23 11 41.5zM155 106h34
v18h-34v-18zM70 35q8 0 8 11v62h-38q-1 -29 -4.5 -51t-23.5 -49l-3 2q12 27 15.5 55.5t3 94t-1.5 80.5l14 -9h37l8 10l13 -14l-7 -6v-180q0 -23 -20 -31q-1 17 -26 25v4q17 -4 25 -4zM40 172h38v52h-38v-52zM40 115h38v50h-38v-50z" />
  </g>

</svg>
