<?xml version="1.0" standalone="no"?>
<!DOCTYPE svg PUBLIC "-//W3C//DTD SVG 1.1//EN" "http://www.w3.org/Graphics/SVG/1.1/DTD/svg11.dtd" >
<svg xmlns="http://www.w3.org/2000/svg" xmlns:xlink="http://www.w3.org/1999/xlink" version="1.1" viewBox="0 -36 256 256">
  <g transform="matrix(1 0 0 -1 0 220)">
   <path fill="currentColor"
d="M45 136q17 -14 22 -23t-1 -19.5t-10 6t-13 32.5q-10 -17 -29 -36l-3 3q19 26 29.5 58.5t13.5 58.5h-19l-11 -3l-10 10h81l10 11l18 -18h-54q-5 -28 -11 -47h38l7 11l14 -13l-7 -7q-7 -31 -16 -54.5t-27 -48t-53 -44.5l-2 4q29 24 45 46t25.5 49.5t13.5 49.5h-40
q-5 -15 -11 -26zM163 33q6 0 6 6v96q0 18 -1 61l22 -11l-7 -9v-140q0 -19 -18 -28q-4 9 -9.5 13.5t-20.5 10.5v4q22 -3 28 -3zM147 126q-20 -54 -44 -80l-2 4q15 25 23 50.5t10 43.5l19 -12zM237 88.5q9 -17.5 3 -30t-10.5 2t-11.5 31.5t-22 46l3 3q29 -35 38 -52.5z
M137 226h89l7 10l15 -15q-9 -3 -26 -37l-4 1l8 34h-88q1 -26 -5.5 -32t-13 -3.5t-0.5 12.5t9 21.5t4 22.5h4z" />
  </g>

</svg>
