<?xml version="1.0" standalone="no"?>
<!DOCTYPE svg PUBLIC "-//W3C//DTD SVG 1.1//EN" "http://www.w3.org/Graphics/SVG/1.1/DTD/svg11.dtd" >
<svg xmlns="http://www.w3.org/2000/svg" xmlns:xlink="http://www.w3.org/1999/xlink" version="1.1" viewBox="0 -52 256 256">
  <g transform="matrix(1 0 0 -1 0 204)">
   <path fill="currentColor"
d="M62 211l9 -12h49l8 10l11 -12q2 -2 1 -2q0 -1 -2 -2l-4 -2v-117l1 -18q1 -10 -11 -11v15h-51v-7q0 -9 -12 -12q1 4 1 21q1 13 1 21v114q-1 6 -4 11zM220 219l11 -10q4 -5 0 -5q-5 1 -19 -2q-4 -1 -7 -1q-4 -1 -13 -2q-19 -3 -26 -4v-52h47l7 9l15 -11q2 -1 2 -2
q-1 -1 -3 -1h-27v-98l1 -14q1 -9 -13 -11q2 13 2 35v88h-31q0 -56 -7 -81q-6 -24 -27 -42l-3 3q29 27 27 112v65q-1 6 -7 11l2 3l13 -9q4 1 14 3q23 4 27 6q4 1 9 3l2 1q1 1 1 3q1 2 1 3h2zM30 242l10 -9h177l9 10l16 -12q3 -1 2 -2q0 -1 -5 -1h-195v-50q0 -20 -1 -37
q3 -84 -34 -122l-3 3q15 24 20 52q5 23 6 73v80q0 6 -5 12zM94 131h-21v-66h21v66zM124 131h-21v-66h21v66zM94 194h-21v-59h21v59zM103 135h21v59h-21v-59z" />
  </g>

</svg>
