<?xml version="1.0" standalone="no"?>
<!DOCTYPE svg PUBLIC "-//W3C//DTD SVG 1.1//EN" "http://www.w3.org/Graphics/SVG/1.1/DTD/svg11.dtd" >
<svg xmlns="http://www.w3.org/2000/svg" xmlns:xlink="http://www.w3.org/1999/xlink" version="1.1" viewBox="0 -205 1024 1024">
  <g transform="matrix(1 0 0 -1 0 819)">
   <path fill="currentColor"
d="M608 850h36q17 60 38 138l66 -30q15 -8 4 -16q-15 -6 -32 -18q-30 -42 -50 -74h150l26 38l64 -44q9 -8 4 -16l-30 -20v-160l4 -66q-6 -18 -24 -24q-15 -6 -32 -6v34h-224v-78h284l36 46l58 -56q2 -4 2 -8q0 -9 -8 -8h-372v-88h280l28 32l52 -40q9 -5 10 -10q0 -6 -36 -26
q-9 -159 -26 -217q-16 -61 -40 -86q-22 -22 -56 -36q-9 32 -32 48q-21 15 -92 36l6 18q89 -25 122 -20q32 3 46 49q12 47 24 226h-288q4 -14 -16 -22q-19 -9 -38 -8l4 92v468l52 -48v0v0zM608 612h224v88h-224v-88v0v0zM608 728h224v94h-224v-94v0v0zM544 308h20
q6 -52 6 -106q1 -54 -16 -79q-18 -24 -36 -28q-17 -2 -28 10q-10 13 -2 26q5 11 20 29q12 18 22 48t14 100v0v0zM600 304l12 8q38 -51 50 -74q9 -21 10 -42q0 -18 -12 -32q-11 -13 -28 -8q-15 5 -12 32q3 24 -2 48q-3 23 -18 68v0v0zM760 336l12 8q51 -39 70 -60
q15 -20 18 -40q3 -18 -8 -32q-11 -13 -28 -8q-16 3 -16 28q1 23 -10 46q-12 21 -38 58v0v0zM674 318l12 8q53 -45 68 -66q12 -21 12 -42q0 -18 -8 -30q-7 -13 -26 -10q-20 1 -18 32q0 31 -6 50q-5 18 -34 58v0v0zM156 858v-36h88q21 69 34 138l76 -34q12 -12 -8 -18
q-21 -6 -30 -30q-10 -25 -20 -56h144l28 32l58 -48q9 -6 10 -12q-3 -6 -14 -8q-14 -4 -34 -20q-19 -12 -64 -78l-18 10l40 98h-160q-30 -102 -78 -194h220l36 42l48 -52q2 -3 2 -6q1 -9 -4 -8h-136v-116h52l32 40l48 -52q1 0 2 -6q0 -3 -6 -6h-128v-114h54l32 38l46 -52
l2 -6q-3 -4 -6 -4h-128v-130h30l36 42l44 -52q2 -3 2 -6q0 -10 -8 -10h-264v-79q0 -10 -18 -20q-17 -12 -34 -16l4 106v395q-66 -117 -116 -168l-12 10q38 62 74 128q33 65 64 130q29 65 62 166h-80q-4 -64 -22 -88q-18 -21 -36 -24q-18 -4 -30 14q-9 15 12 36q21 18 34 46
q12 24 22 78h18v0v0zM214 172h112v128h-112v-128v0v0zM326 324v114h-112v-114h112v0v0zM326 462v116h-112v-116h112v0v0zM292 750l10 8q41 -24 64 -48q22 -25 20 -46q0 -21 -12 -32q-12 -9 -26 -6t-16 18q0 15 -6 40q-5 27 -34 66v0v0z" />
  </g>

</svg>
