<?xml version="1.0" standalone="no"?>
<!DOCTYPE svg PUBLIC "-//W3C//DTD SVG 1.1//EN" "http://www.w3.org/Graphics/SVG/1.1/DTD/svg11.dtd" >
<svg xmlns="http://www.w3.org/2000/svg" xmlns:xlink="http://www.w3.org/1999/xlink" version="1.1" viewBox="0 -36 256 256">
  <g transform="matrix(1 0 0 -1 0 220)">
   <path fill="currentColor"
d="M121 246q47 -19 21 -39h70l13 14l19 -21h-188v-79q0 -65 -45 -111l-3 2q33 46 33 114v46q0 23 -1 44l16 -9h77q2 17 -15 37zM148 159q-19 -63 -90 -80l-1 5q60 20 76 75h-30q-12 0 -21 -2l-10 9h63q4 21 5 33l23 -11l-9 -4q-2 -10 -4 -18h55l12 11l16 -18h-76
q17 -29 38.5 -43.5t48.5 -17.5v-4q-15 -1 -21 -12q-53 23 -71 77h-4zM206 133q-9 -6 -22 -13l-2 2q23 22 27 35l15 -14q-9 -4 -18 -10zM76 146l2 3q36 -14 30.5 -28t-12 -1t-20.5 26zM142 97q0 9 -1 18l22 -10l-7 -8v-18h28l12 10l18 -17h-58v-41h58l11 13l19 -20h-160
q-11 0 -21 -3l-10 10h89v41h-25q-11 -1 -20 -3l-12 10h57v18z" />
  </g>

</svg>
