<?xml version="1.0" standalone="no"?>
<!DOCTYPE svg PUBLIC "-//W3C//DTD SVG 1.1//EN" "http://www.w3.org/Graphics/SVG/1.1/DTD/svg11.dtd" >
<svg xmlns="http://www.w3.org/2000/svg" xmlns:xlink="http://www.w3.org/1999/xlink" version="1.1" viewBox="0 -205 1024 1024">
  <g transform="matrix(1 0 0 -1 0 819)">
   <path fill="currentColor"
d="M164 942l70 -50h590l36 46l70 -46q3 -4 4 -8q0 -6 -36 -32v-634l4 -95q1 -15 -12 -28q-13 -14 -44 -22v109h-630v-83q1 -15 -16 -28q-14 -12 -40 -16l4 141v746v0v0zM216 210h630v654h-630v-654v0v0zM374 740l62 -48h176l32 42l60 -42q12 -6 12 -14q0 -6 -36 -30v-162
l4 -86q-1 -15 -16 -30q-14 -11 -40 -16v54h-200v-38q-3 -15 -18 -26q-14 -12 -40 -14l4 140v270v0v0zM428 434h200v232h-200v-232v0v0z" />
  </g>

</svg>
