<?xml version="1.0" standalone="no"?>
<!DOCTYPE svg PUBLIC "-//W3C//DTD SVG 1.1//EN" "http://www.w3.org/Graphics/SVG/1.1/DTD/svg11.dtd" >
<svg xmlns="http://www.w3.org/2000/svg" xmlns:xlink="http://www.w3.org/1999/xlink" version="1.1" viewBox="0 -205 1024 1024">
  <g transform="matrix(1 0 0 -1 0 819)">
   <path fill="currentColor"
d="M794 860l40 52l62 -58q3 -3 4 -6q1 -12 -16 -12h-448q-21 0 -68 -8l-16 32h442v0v0zM818 786l6 -4q3 -9 -8 -14q-23 -4 -40 -28q-16 -22 -56 -80h158l34 54l62 -60q3 -4 4 -8q0 -12 -12 -12h-572q-33 3 -68 -6l-16 32h380q26 45 68 156l60 -30v0v0zM448 804l10 10
q50 -27 74 -48q24 -19 30 -38q4 -19 -6 -34q-9 -14 -26 -12q-18 2 -20 26q-3 21 -18 46q-15 22 -44 50v0v0zM528 978l8 12q76 -21 98 -36q21 -13 24 -32t-8 -32q-11 -14 -28 -12q-15 2 -20 22q-6 18 -18 34q-13 14 -56 44v0v0zM406 562l60 -36h334l28 36l54 -38q8 -3 8 -12
q0 -7 -26 -26v-383q0 -32 -18 -52q-16 -18 -58 -34q-12 32 -44 46q-31 12 -92 30l4 16q72 -12 100 -16q27 -3 40 0t14 30v119h-350v-94l4 -83q-1 -14 -22 -28q-22 -15 -40 -16l4 125v416v0v0zM460 266h350v108h-350v-108v0v0zM460 398h350v104h-350v-104v0v0zM174 412
q-19 -49 -40 -52q-22 -3 -88 -2l-2 -20q45 -6 70 -14q25 -7 32 -22q8 -13 10 -44q1 -31 -6 -88q-9 -56 -6 -85q0 -28 16 -38q15 -6 30 0q15 9 18 36q3 25 -6 87q-10 62 -10 104t4 64q4 21 14 54l120 406l-22 6l-134 -392v0v0zM122 942l6 14q48 -18 82 -36q33 -15 52 -36
q17 -19 20 -40q3 -19 -8 -32q-12 -13 -26 -14q-16 1 -22 14q-6 14 -14 34q-6 20 -24 38q-15 18 -66 58v0v0zM28 702l6 14q42 -16 78 -34q35 -16 50 -34q15 -15 18 -36q1 -18 -10 -30q-9 -12 -24 -12t-20 12q-6 13 -14 32q-10 17 -28 40q-18 21 -56 48v0v0z" />
  </g>

</svg>
