<?xml version="1.0" standalone="no"?>
<!DOCTYPE svg PUBLIC "-//W3C//DTD SVG 1.1//EN" "http://www.w3.org/Graphics/SVG/1.1/DTD/svg11.dtd" >
<svg xmlns="http://www.w3.org/2000/svg" xmlns:xlink="http://www.w3.org/1999/xlink" version="1.1" viewBox="0 -205 1024 1024">
  <g transform="matrix(1 0 0 -1 0 819)">
   <path fill="currentColor"
d="M382 346h274v128l80 -28q7 -6 2 -12q-6 -4 -32 -16v-72h176l36 52l54 -56q2 -4 8 -10q3 -12 -8 -12h-266v-162l4 -93q-1 -14 -22 -26q-18 -12 -36 -12l4 127v166h-202q-21 0 -56 -8l-16 34v0v0zM854 820l36 56l70 -64q3 -3 4 -6q3 -12 -6 -12h-472q-21 0 -68 -8l-16 34
h452v0v0zM576 970l10 12q71 -30 98 -54q24 -21 28 -42q4 -19 -6 -34q-10 -16 -28 -16t-24 24q-3 21 -18 48q-12 23 -60 62v0v0zM604 742q10 -6 8 -14q-1 -3 -10 -6q-15 -3 -24 -12q-9 -6 -44 -78q62 -25 86 -50q24 -24 22 -44q0 -19 -12 -28q-10 -9 -22 -6q-12 2 -18 14
q-3 12 -8 28q-6 14 -18 32q-11 18 -40 36q-46 -76 -116 -164l-12 10q41 81 80 162q38 80 58 148l70 -28v0v0zM858 748q18 -9 6 -20q-30 -6 -38 -18q-6 -11 -36 -64q90 -48 118 -78q27 -30 30 -54q3 -23 -8 -40q-13 -18 -28 -12q-15 3 -20 18q-4 15 -10 36q-6 20 -30 52
q-21 29 -66 56q-45 -81 -102 -144l-14 10q64 105 134 288l64 -30v0v0zM290 918q9 -10 -2 -16q-22 -7 -32 -14t-52 -76q-43 -67 -88 -134h134q51 76 78 140l74 -44q0 -11 -14 -16q-20 -7 -28 -16q-9 -9 -80 -104q-70 -96 -158 -210l202 12q-12 47 -50 110l12 10
q54 -54 76 -84q20 -31 26 -56q4 -25 -4 -38q-6 -11 -20 -16q-13 -4 -22 4q-9 9 -8 24q0 15 -6 24q-123 -17 -164 -28q-40 -9 -74 -32l-42 72q23 3 52 16q51 62 138 208q-81 -10 -108 -16q-28 -3 -58 -24l-36 64q39 9 52 18q12 9 58 96q42 87 72 168l72 -42v0v0zM116 314h22
q0 -82 -2 -130q-3 -47 -20 -77q-18 -30 -36 -34q-15 -4 -30 4q-12 9 -12 24q0 14 18 34q18 18 36 51q18 29 24 128v0v0zM188 332l16 6q41 -61 58 -106q15 -43 10 -74q-4 -28 -22 -35t-32 4q-13 9 -4 45q7 36 -4 82q-10 45 -22 78v0v0zM296 354l16 6q51 -60 70 -102
q17 -41 14 -70q-3 -28 -18 -34q-15 -7 -30 2q-15 8 -12 44q3 35 -8 74q-10 38 -32 80v0v0z" />
  </g>

</svg>
