<?xml version="1.0" standalone="no"?>
<!DOCTYPE svg PUBLIC "-//W3C//DTD SVG 1.1//EN" "http://www.w3.org/Graphics/SVG/1.1/DTD/svg11.dtd" >
<svg xmlns="http://www.w3.org/2000/svg" xmlns:xlink="http://www.w3.org/1999/xlink" version="1.1" viewBox="0 -200 1000 1000">
  <g transform="matrix(1 0 0 -1 0 800)">
   <path fill="currentColor"
d="M180 661l39 -39h535l34 39l51 -48q6 -6 5 -10q-2 -4 -11 -6l-18 -9v-199l4 -51q6 -39 -49 -43v57h-543v-194q0 -50 16 -60q17 -13 57 -17q40 -5 106 -4q394 -1 444 5q49 7 54 39q8 39 12 150h15l2 -109q2 -53 32 -66q-19 -32 -33 -37q-8 -4 -37 -12q2 1 -5 -1
q-28 -8 -472 -6q-92 -2 -162 8q-80 13 -74 108v450q-3 32 -13 47zM227 602v-230h254v230h-254zM522 602v-230h248v230h-248zM947 787q2 -5 0 -7q-3 -2 -9 0q-29 -2 -56 -30q-13 -13 -73 -76l-15 6l65 109h-698q-1 -26 -9 -63q-16 -56 -44 -78q-34 -23 -54 4q-7 17 15 31
q23 16 44 52q23 38 33 122h14q2 -34 1 -48h697l30 34zM397 966l4 10q110 -25 133 -83q14 -53 -22 -57q-15 1 -19 29t-30 56q-24 27 -66 45z" />
  </g>

</svg>
