<?xml version="1.0" standalone="no"?>
<!DOCTYPE svg PUBLIC "-//W3C//DTD SVG 1.1//EN" "http://www.w3.org/Graphics/SVG/1.1/DTD/svg11.dtd" >
<svg xmlns="http://www.w3.org/2000/svg" xmlns:xlink="http://www.w3.org/1999/xlink" version="1.1" viewBox="0 -36 256 256">
  <g transform="matrix(1 0 0 -1 0 220)">
   <path fill="currentColor"
d="M45 240l22 -10l-8 -8l-7 -42h29l7 10l14 -12l-7 -7q-6 -65 -17 -93q18 -11 24.5 -19.5t3.5 -19.5t-12 3t-21 24q-23 -36 -60 -57l-2 4q36 30 51 61q-12 9 -42 22q10 34 17 77q-7 1 -18 -2l-9 9h28q6 33 7 60zM51 173q-7 -39 -16 -74q20 -9 31 -14q13 37 15 88h-30z
M170 162q0 69 -1 83l23 -9l-8 -7v-23h24l12 11l16 -18h-52v-37h34l13 12l16 -19h-121q-10 0 -19 -2l-9 9h30q0 45 -1 57l21 -9l-7 -8v-40h29zM122 80q0 44 -1 64l16 -9h72l8 9l16 -14l-8 -6v-87q0 -22 -22 -28q2 13 -24 19v4q16 -2 24 -1.5t8 8.5v26h-76v-48l-14 -7
q1 26 1 70zM135 103h76v25h-76v-25zM135 72h76v24h-76v-24z" />
  </g>

</svg>
