<?xml version="1.0" standalone="no"?>
<!DOCTYPE svg PUBLIC "-//W3C//DTD SVG 1.1//EN" "http://www.w3.org/Graphics/SVG/1.1/DTD/svg11.dtd" >
<svg xmlns="http://www.w3.org/2000/svg" xmlns:xlink="http://www.w3.org/1999/xlink" version="1.1" viewBox="0 -205 1048 1024">
  <g transform="matrix(1 0 0 -1 0 819)">
   <path fill="currentColor"
d="M541 762h136q2 20 2 93q-1 64 -3 118l62 -12q25 -3 23 -12q-2 -10 -33 -18l-4 -169h166l34 38l49 -40q18 -16 13 -23q-6 -7 -41 -7l-77 -128l-13 7l47 137h-178q0 -34 -4 -74q-2 -31 -6 -64l45 -11q24 -6 21 -16q-2 -8 -32 -16v-412q0 -14 3 -19q5 -8 23 -8q37 0 63 1
q46 0 59 1q17 3 34 49q11 35 27 110l13 -2l-6 -72q-2 -25 -3 -38q-2 -21 -2 -39q33 -18 29 -31t-46 -15q-30 -2 -94 -2q-62 0 -96 1q-30 0 -41 13t-11 47v371q-35 -167 -99 -253q-69 -92 -226 -176l-8 11q158 91 229 234q75 149 81 410h-135q1 -84 -2 -109q-3 -30 -19 -56
q-16 -22 -28 -22q-15 1 -19 38q-2 11 0 19q2 4 8 13q15 23 22 49q13 45 18 127l15 2zM457 230q6 -20 3 -36q-2 -13 -11 -19q-9 -5 -18 0t-12 17l-6 21q-5 20 -9 29q-4 14 -9 26l-266 -134q1 -35 -3 -40q-6 -7 -27 29l-28 49l157 55v230h-60v-34l-2 -23q0 -12 -2 -15
q-4 -5 -20 -12q-18 -7 -22 -3q-3 4 -1 24l2 34v329l-4 51l52 -23h57v133l-4 49l50 -8q30 -5 29 -14q-2 -9 -30 -24v-136h71l30 30l32 -26q22 -17 14 -27q-4 -6 -26 -11l-4 -2v-308l1 -22q2 -13 0 -17q-4 -6 -19 -14q-20 -7 -25 2q-3 5 -3 32l1 14v21h-72v-219l115 44l-8 16
q-10 19 -16 30q-13 19 -28 37l7 7q46 -33 75 -69q31 -37 39 -73zM345 768h-72v-292h72v292zM228 768h-60v-292h60v292z" />
  </g>

</svg>
