<?xml version="1.0" standalone="no"?>
<!DOCTYPE svg PUBLIC "-//W3C//DTD SVG 1.1//EN" "http://www.w3.org/Graphics/SVG/1.1/DTD/svg11.dtd" >
<svg xmlns="http://www.w3.org/2000/svg" xmlns:xlink="http://www.w3.org/1999/xlink" version="1.1" viewBox="0 -36 256 256">
  <g transform="matrix(1 0 0 -1 0 220)">
   <path fill="currentColor"
d="M74 246l21 -11l-7 -5v-16h20l12 10l15 -17h-47v-17h32l11 10l17 -17h-71l18 -5l-7 -6v-32q2 -20 -20 -24q-3 11 -25 15v3q18 -2 25.5 -1t6.5 12v38h-21q-13 0 -22 -3l-10 10h53q0 44 -1 56zM45 148q-10 -12 -28 -26l-2 3q23 28 30 51l19 -13q-9 -3 -19 -15zM132.5 159
q8.5 -5 7.5 -12.5t-5 -10.5t-7.5 6t-25.5 27l2 3q20 -8 28.5 -13zM202 224l8 10l19 -14l-10 -6q-10 -19 -26 -42q35 -22 37 -31t-2 -15.5t-11.5 6t-28.5 30.5q-24 -25 -57 -38l-1 4q35 23 46 41q-13 13 -39 29l2 3q27 -12 45 -22q14 20 20 38h-39q-13 1 -22 -2l-10 9h69z
M120 128l23 -8l-8 -5v-32h12q21 20 33 42l18 -12q-9 -4 -17 -10t-27 -20h57l15 13l21 -20h-101q34 -34 100 -41v-4q-17 -2 -24 -13q-55 19 -84 58h-3v-31q0 -15 1 -30l-16 -6q1 14 1 30v34q-36 -36 -112 -58l-1 4q66 25 99 57h-61q-13 0 -22 -3l-10 10h107q0 23 -1 45z
M62 119q22 -9 29.5 -14t1.5 -15.5t-11.5 0.5t-21.5 26z" />
  </g>

</svg>
