<?xml version="1.0" standalone="no"?>
<!DOCTYPE svg PUBLIC "-//W3C//DTD SVG 1.1//EN" "http://www.w3.org/Graphics/SVG/1.1/DTD/svg11.dtd" >
<svg xmlns="http://www.w3.org/2000/svg" xmlns:xlink="http://www.w3.org/1999/xlink" version="1.1" viewBox="0 -36 256 256">
  <g transform="matrix(1 0 0 -1 0 220)">
   <path fill="currentColor"
d="M70 221l10 10l14 -17h-35q-7 -34 -13 -58h21l6 9l13 -11l-6 -7q0 -78 1 -96l-13 -8v17h-23v-24l-13 -6q1 35 1 94q-7 -23 -23 -46l-3 3q28 57 38 133h-1q-10 0 -19 -3l-9 10h54zM45 67h23v82h-23v-82zM222 192l-13 -4v5h-83v-5l-13 -3q1 15 1 30q0 13 -1 27l13 -5h81l8 8
l13 -11l-7 -4q0 -19 1 -38zM126 219h83v11h-83v-11zM126 200h83v12h-83v-12zM104 185v-10h60q0 11 -8 16l2 3q11 -1 16 -5t-1 -14h55l8 10l15 -16q-14 -4 -26 -23l-3 2l7 20h-124q1 -23 -11.5 -23t-5 9t12.5 31h3zM125 155h20l7 5l12 -8l-6 -4q0 -11 1 -21l-12 -3v4h-24v-5
l-13 -3q1 10 1 20q0 11 -1 21zM123 135h24v13h-24v-13zM185 148v-13h24v13h-24zM173 135.5v9.5t-1 14l14 -4h23l8 6l10 -10l-6 -3q0 -12 1 -22l-13 -3v5h-24v-4h-4l18 -5l-7 -5v-5h25l11 8l13 -15h-49v-11h18l10 7l12 -14h-40v-13h25l12 9l14 -16h-78q12 -13 23 -21
q10 7 22 21l14 -10q-16 -4 -32 -15q26 -15 55 -14v-4q-15 0 -19 -11q-46 14 -68 54h-3l-6 -5v-33l23 13l2 -3q-19 -17 -33 -30l-11 12l6 5v26q-30 -22 -60 -32l-2 3q35 21 59 44h-13q-10 0 -20 -2l-9 9h46v13h-10q-9 0 -15 -2l-9 9h34v11h-13q-10 0 -20 -2l-9 9h42
q0 8 -1 16l20 -5l-6 -5v-6h28v14l-8 -1q1 9 1 13.5zM152 102v-11h28v11h-28zM152 84v-13h28v13h-28z" />
  </g>

</svg>
