<?xml version="1.0" standalone="no"?>
<!DOCTYPE svg PUBLIC "-//W3C//DTD SVG 1.1//EN" "http://www.w3.org/Graphics/SVG/1.1/DTD/svg11.dtd" >
<svg xmlns="http://www.w3.org/2000/svg" xmlns:xlink="http://www.w3.org/1999/xlink" version="1.1" viewBox="0 -52 256 256">
  <g transform="matrix(1 0 0 -1 0 204)">
   <path fill="currentColor"
d="M230 228v-198q0 -6 -3 -11q-3 -6 -17 -7q-1 7 -12 10q-1 0 -4 1q-6 2 -16 4l1 4q27 -4 33 -4q5 0 6 1q3 2 2 16v131h-60q1 -2 -2 -5q-4 -1 -9 -3q0 4 1 11v10v46q0 6 -5 10l5 3l8 -12h58l8 11l11 -10l2 -2q0 -1 -2 -3zM26 247l10 -12h58l7 10l12 -11q2 -1 1 -2
q0 -1 -2 -2l-5 -2v-41l1 -11q1 -10 -10 -11v10h-61v-129l1 -23q0 -10 -13 -11q2 9 2 45v177q-1 7 -5 10zM157 156q2 -2 1 -2q0 -1 -2 -1q-1 0 -2 -1q-4 -1 -6 -3q-2 -8 -5 -15h40l6 8l16 -10q2 -2 -2 -2h-19q-3 -22 -16 -45l1 -1q16 -15 22 -28q5 -12 0 -16q-5 -1 -11 11
q-4 13 -16 26q-16 -25 -51 -44l-2 3q29 20 44 44l3 4q-13 13 -25 20l1 4q1 -1 4 -2q16 -9 23 -15q10 18 14 39h-33q-3 -7 -6 -13q-6 -13 -18 -27l-3 2q8 14 13 25t8 24q5 14 3 15q0 3 -2 6l2 1zM160 208h60v23h-60v-23zM37 208h61v23h-61v-23zM98 203h-61v-23h61v23z
M220 203h-60v-23h60v23zM105 161l13 -11q3 -3 -1 -2q-5 0 -8 -3l-6 -6q-2 -3 -11 -11q22 -28 18 -67q-2 -12 -11 -21q-7 -5 -19 -7q0 4 -6 7q-6 2 -14 5l1 4q5 -2 13 -4q3 -1 4 -1h8q5 1 10 7q5 7 5 20v3q0 7 -1 16q-1 1 -1 4q-1 3 -1 4q-18 -27 -50 -45l-2 3q30 23 48 52
q-1 1 -2 4q0 3 -6 12q-18 -15 -39 -25l-1 3q17 11 30 23l2 2l3 3q-8 9 -20 21l3 3q13 -10 22 -19q8 7 11 10q7 9 5 14z" />
  </g>

</svg>
