<?xml version="1.0" standalone="no"?>
<!DOCTYPE svg PUBLIC "-//W3C//DTD SVG 1.1//EN" "http://www.w3.org/Graphics/SVG/1.1/DTD/svg11.dtd" >
<svg xmlns="http://www.w3.org/2000/svg" xmlns:xlink="http://www.w3.org/1999/xlink" version="1.1" viewBox="0 -205 1024 1024">
  <g transform="matrix(1 0 0 -1 0 819)">
   <path fill="currentColor"
d="M442 912h390l38 50l54 -54q3 -3 4 -8q2 -12 -10 -12h-216v-84h212l26 34q60 -49 60 -56q1 -7 -4 -8q-5 1 -22 -4q-18 -3 -36 -18q-16 -15 -46 -44l-12 8l38 64h-216v-124l4 -74q3 -14 -18 -28q-22 -13 -40 -10l4 104v132h-178q3 -51 -20 -78q-24 -28 -44 -22t-18 22
q3 15 18 30q16 14 26 32q9 15 16 70h18l2 -30h180v84h-126q-21 0 -68 -8l-16 32v0v0zM480 696h136v-26h-136v26v0v0zM480 610h136v-26h-136v26v0v0zM750 608h140v-26h-140v26v0v0zM378 512h516l30 46l62 -52q3 -3 4 -8q2 -10 -10 -10h-292l-62 -96h238l24 38l60 -40
q6 -6 6 -12q0 -7 -30 -26v-257q0 -18 -14 -36q-13 -15 -52 -28q-9 29 -26 40q-15 8 -62 22l4 18q52 -13 68 -14q15 0 24 6q8 6 8 26v239h-102v-136l4 -70q0 -14 -20 -25q-18 -9 -36 -10l4 95v146h-96v-154l4 -75q0 -14 -20 -26q-18 -13 -36 -14l4 99v170h-94v-225l4 -68
q-1 -13 -22 -24q-21 -13 -36 -12l4 108v273l54 -28h112l26 96h-166q-21 0 -68 -8l-16 32v0v0zM750 698h136v-26h-136v26v0v0zM152 796q-3 -12 -24 -68h80v254l78 -32q9 -6 10 -8q1 -5 -6 -10l-34 -12v-192h30l32 42l54 -50q3 -5 4 -10q0 -9 -8 -8h-112v-212l122 62l12 -14
l-134 -84v-294l4 -93q0 -12 -20 -24q-18 -12 -36 -12l4 131v266q-53 -31 -76 -52q-24 -18 -48 -50l-50 56l174 86v234h-90q-28 -96 -70 -180l-18 4q28 88 50 182q20 93 32 162q75 -30 76 -36q1 -7 -4 -10q-4 -1 -16 -8q-13 -7 -16 -20v0v0z" />
  </g>

</svg>
