<?xml version="1.0" standalone="no"?>
<!DOCTYPE svg PUBLIC "-//W3C//DTD SVG 1.1//EN" "http://www.w3.org/Graphics/SVG/1.1/DTD/svg11.dtd" >
<svg xmlns="http://www.w3.org/2000/svg" xmlns:xlink="http://www.w3.org/1999/xlink" version="1.1" viewBox="0 -246 2048 2048">
  <g transform="matrix(1 0 0 -1 0 1802)">
   <path fill="currentColor"
d="M756 1469q86 214 113 461q178 -30 178 -70q0 -28 -67 -39q-18 -71 -50 -149h226l78 102q61 -58 106 -114l-20 -39h-215v-328q42 11 211 59l18 -55q-117 -51 -229 -90v-408h-111v371q-101 -33 -158 -47q-9 -72 -35 -72q-37 0 -78 164q152 24 271 51v355h-86
q-59 -131 -142 -248l-40 26l6 15l6 12h-240v-221q240 -179 240 -338q0 -76 -66 -76q-40 0 -55 74q-34 137 -119 268v-1040h-113v974q-111 -315 -266 -567l-45 29q209 387 309 897h-279l-18 51h299v453q209 -9 209 -57q0 -28 -96 -56v-340h68l84 121q60 -63 106 -129z
M1493 1621q-58 -129 -141 -248l-41 27q109 236 143 530q178 -30 178 -70q0 -28 -67 -39q-18 -67 -50 -149h234l78 102q13 -10 107 -114l-21 -39h-215v-367h82l86 111q17 -16 109 -123l-21 -39h-256v-404h-111v404h-262l-21 51h283v367h-94zM1413 484q-49 0 -59 59
q-26 129 -123 236l31 39q217 -127 217 -258q0 -76 -66 -76zM1886 273q-42 0 -57 61q-41 177 -180 336l35 41q137 -88 208 -190q62 -88 62 -168t-68 -80zM732 211q-68 0 -68 86q0 38 51 74q113 84 158 297l51 -22q-12 -196 -78 -328q-54 -107 -114 -107zM1331 131
q-204 0 -248 35q-47 31 -47 142v424q185 -7 185 -60q0 -26 -74 -51v-305q0 -54 27 -68q37 -15 131 -15q205 0 231 39q31 50 41 224l51 -29q0 -122 11 -155q9 -39 59 -39q-4 -80 -70 -107q-66 -35 -297 -35z" />
  </g>

</svg>
