<?xml version="1.0" standalone="no"?>
<!DOCTYPE svg PUBLIC "-//W3C//DTD SVG 1.1//EN" "http://www.w3.org/Graphics/SVG/1.1/DTD/svg11.dtd" >
<svg xmlns="http://www.w3.org/2000/svg" xmlns:xlink="http://www.w3.org/1999/xlink" version="1.1" viewBox="0 -36 256 256">
  <g transform="matrix(1 0 0 -1 0 220)">
   <path fill="currentColor"
d="M34 94h17q-3 85 -6 104l16 -9q19 10 27 20l13 -17h-7q-16 -3 -33 -9l1 -22h11l10 9l13 -16h-34l1 -24h16l10 9l13 -16h-39l1 -29h128l2 32h-5q-10 1 -22 -2l-8 9h35l1 24h-6q-10 1 -22 -2l-8 9h37l1 23h-12q-10 0 -19 -2l-8 9h38l8 11l15 -13l-8 -8q-3 -43 -5 -90h17
l10 10l16 -17q-14 -5 -35 -28l-3 2l13 26h-190q0 -17 -8.5 -25.5t-14.5 -2.5t3.5 15.5t14.5 31.5h5v-12zM129 191q5 6 13 20l12 -12l-5 -3l-10 -12q14 -11 15 -17t-2.5 -10t-6.5 1t-15 17q-11 -12 -29 -20l-2 2q12 11 24 26q-8 7 -19 16l2 3q13 -5 23 -11zM140 155l14 -12
l-5 -2q-6 -5 -10 -10q10 -8 12 -14t-2 -12t-8 1t-11 17q-11 -10 -31 -20l-2 3q12 8 26 24q-9 8 -20 16l2 3q12 -4 24 -11q7 9 11 17z" />
  </g>

</svg>
