<?xml version="1.0" standalone="no"?>
<!DOCTYPE svg PUBLIC "-//W3C//DTD SVG 1.1//EN" "http://www.w3.org/Graphics/SVG/1.1/DTD/svg11.dtd" >
<svg xmlns="http://www.w3.org/2000/svg" xmlns:xlink="http://www.w3.org/1999/xlink" version="1.1" viewBox="0 -36 256 256">
  <g transform="matrix(1 0 0 -1 0 220)">
   <path fill="currentColor"
d="M27 111q1 57 0 106l13 -8h37q-1 18 -12 31l2 2q19 -10 23 -17t-5 -16h22l13 10l15 -17h-35v-26h15l7 8l12 -11l-6 -5q0 -28 1 -36l-13 -5v6h-76q0 -78 -28 -118l-3 2q17 37 18 94zM40 176h18v26h-18v-26zM70 176h18v26h-18v-26zM40 140h18v29h-18v-29zM70 140h18v29h-18
v-29zM100 140h16v29h-16v-29zM107 31q4 0 5.5 6t2.5 44h-56l-5 -8l-11 8q8 10 14 52l15 -7q-6 -8 -6 -13h40l11 9l13 -16h-66l-4 -18h54l5 7l13 -10l-6 -6q-2 -41 -4 -48t-5 -12t-9 -6q-1 11 -16 16v4q11 -2 15 -2zM51 40.5q-3 -5.5 -6.5 -7.5t-7.5 1t3 11t10 22h3
q1 -21 -2 -26.5zM73 56.5q2 -3.5 2 -10t-4 -10.5t-4.5 4.5t-5.5 27.5l2 1q8 -9 10 -12.5zM90 61.5q4 -5.5 3 -12t-5 -9t-5 8.5t-6 23l3 1q6 -6 10 -11.5zM107 65q3 -5 3 -9t-4.5 -9t-6 7t-7.5 23l2 2q10 -9 13 -14zM187 198v-28h10q10 15 18 28h-28zM235 130q-14 -4 -37 -27
l6 -5l-6 -3v-17h21l10 13l18 -20h-49v-37q0 -18 -19 -23q0 14 -25 20v4q32 -6 31 3v33h-24q-10 0 -19 -2l-9 9h52v34l10 -7q10 14 18 26h-34q-21 -22 -42 -37l-2 3q16 15 32 35q-6 1 -13 -3l-8 9h25q12 14 20 25h-32q-10 0 -19 -2l-9 9h43v28h-5q-10 1 -17 -2l-8 9h30
q0 18 -1 36l21 -8l-7 -8v-20h12l9 12l10 -11q5 9 8 22l17 -15l-9 -5q-10 -17 -25 -38h14l10 11l15 -18h-44q-10 -12 -20 -25h30l7 7z" />
  </g>

</svg>
