<?xml version="1.0" standalone="no"?>
<!DOCTYPE svg PUBLIC "-//W3C//DTD SVG 1.1//EN" "http://www.w3.org/Graphics/SVG/1.1/DTD/svg11.dtd" >
<svg xmlns="http://www.w3.org/2000/svg" xmlns:xlink="http://www.w3.org/1999/xlink" version="1.1" viewBox="0 -205 1024 1024">
  <g transform="matrix(1 0 0 -1 0 819)">
   <path fill="currentColor"
d="M272 632h430l22 34l68 -40q7 -6 8 -12q0 -6 -32 -26v-72l4 -68q-1 -9 -22 -24q-20 -12 -34 -12v44h-404l-40 -116h504l30 38l58 -46q9 -6 10 -12t-40 -24q-22 -96 -46 -157t-56 -86q-33 -22 -80 -38q-11 33 -34 50q-23 16 -106 40l6 20q140 -40 172 -26q32 13 52 59
q18 48 42 154h-504l-32 -36l-66 42l42 32l62 180l40 -46h390v120h-384q-22 0 -34 -8l-26 36v0v0zM870 844l36 40l54 -48q12 -12 10 -18q0 -4 -14 -8q-25 -1 -56 -22q-30 -21 -68 -60l-16 12l54 76h-676q-3 -33 -14 -60q-12 -27 -32 -42q-22 -13 -40 -8q-17 4 -22 20
q-4 14 10 28q14 12 40 34q25 21 38 114h20v-58h676v0v0zM294 662q-72 -42 -224 -110l-8 16q137 77 206 128q68 50 110 92q69 -43 70 -50q0 -7 -6 -8l-24 -4q-17 0 -34 -12q-18 -10 -90 -52v0v0zM610 774q126 -23 210 -52q82 -29 110 -58q28 -28 24 -52q-3 -24 -20 -26
q-15 -4 -38 22q-24 24 -90 64q-67 40 -202 86l6 16v0v0zM434 982l6 14q60 -24 94 -42q32 -19 40 -40q9 -21 0 -38q-9 -19 -30 -16q-22 0 -28 22t-20 44q-15 20 -62 56v0v0z" />
  </g>

</svg>
