<?xml version="1.0" standalone="no"?>
<!DOCTYPE svg PUBLIC "-//W3C//DTD SVG 1.1//EN" "http://www.w3.org/Graphics/SVG/1.1/DTD/svg11.dtd" >
<svg xmlns="http://www.w3.org/2000/svg" xmlns:xlink="http://www.w3.org/1999/xlink" version="1.1" viewBox="0 -144 1024 1024">
  <g transform="matrix(1 0 0 -1 0 880)">
   <path fill="currentColor"
d="M322 734l1 -2zM567 86v21h165v226h-105v21h105v178l64 -11l16 -11l-16 -9v-147h23l44 49l54 -49v-21h-121v-226h36l54 54l64 -54v-21h-383zM340 412l62 -18l15 -13l-19 -8l-6 -28l-20 -77l-16 -53l-10 -27l-11 -28l-13 -27l-10 3l6 59l3 28l7 54l5 52l2 25l2 24l1 18h-1z
M542 214l-6 48l-3 24l-4 23l-13 66l-3 21l-5 22l9 4l25 -38l11 -20l18 -43l17 -47l7 -25l13 -51l-7 -24l-21 -13l-23 6l-13 21zM242 813h-140v-454h140v454zM620 579l-4 9v1l-1 2l49 12l35 163l10 55l8 46h-1l2 3h-98v22h202l54 54l64 -54v-22h-190l30 -11l14 -14l-19 -7
l-18 -57l-20 -56l-24 -59l-26 -57l53 13l54 12l29 6l29 5l11 2l-12 42l-23 70l-9 24l8 5l33 -40l15 -21l24 -44l11 -23l10 -23l8 -24l8 -24l6 -25l-5 -24l-21 -13l-24 5l-13 21l-3 23l-3 22l-4 23l-3 9l-34 -18l-77 -34l-74 -30l-25 -10l-6 -20l-15 12l-1 2l-1 2v1v1v1l-2 4
v1l-11 35v2zM615 591l20 -61l-30 58zM329 676v5v-5zM317 502l-1 3zM322 464v4v-4zM323 458l-9 31l-4 3l2 3l-5 15v-205l-65 -32v64h-140v-64l-65 -33v627l65 -33h140l33 27l59 -48l-27 -22v-270l7 1l18 1l95 136l32 51l-20 -7l-56 -17l-19 -5l-11 -2l-11 -21l-12 15l-9 31
l-5 3l3 4l-7 25l10 1h8l79 163l37 83l55 -35l10 -17l-21 -1l-34 -56l-51 -74l-37 -50l-11 -13l55 2l41 1h25l37 67l32 67l3 7l55 -34l10 -17l-21 -2l-29 -50l-23 -35l-53 -72l-61 -74l-68 -71l34 3l26 3l26 2l24 3l25 2l24 1l24 1h7l-2 14l-3 16l-4 16l-4 15l-4 16l-6 14
l8 6l11 -13l11 -12l11 -13l19 -31l16 -34l7 -18l12 -39l-6 -24l-21 -13l-24 6l-13 21l-1 18l-3 36l-1 3l-28 -11l-23 -9l-13 -4v-421l-64 -32v434l-47 -12l-32 -7l-9 -19z" />
  </g>

</svg>
