<?xml version="1.0" standalone="no"?>
<!DOCTYPE svg PUBLIC "-//W3C//DTD SVG 1.1//EN" "http://www.w3.org/Graphics/SVG/1.1/DTD/svg11.dtd" >
<svg xmlns="http://www.w3.org/2000/svg" xmlns:xlink="http://www.w3.org/1999/xlink" version="1.1" viewBox="0 -36 256 256">
  <g transform="matrix(1 0 0 -1 0 220)">
   <path fill="currentColor"
d="M221 149v-14l1 -14l-16 -5v7h-156v-4l-16 -5l1 24v28l-1 27l17 -8h154l10 10l14 -14l-8 -6v-26zM50 130h156v48h-156v-48zM148 155q28 -7 34 -12.5t1 -10t-15.5 2.5t-31.5 15q-35 -13 -73 -17v3q36 8 60 18q-17 6 -44 14l2 3q26 -5 53 -12q23 10 36 19l16 -10l-11 -3
q-16 -6 -27 -10zM159 186v23h-58v-20l-14 -5v25h-44q-13 1 -22 -2l-9 9h75v14q0 8 -1 18l22 -9l-7 -7v-16h58v14q0 7 -1 17l24 -9l-8 -7v-15h37l15 12l19 -19h-71v-17zM67 81h118v19h-118v-19zM67 54h118v20h-118v-20zM179 27.5q7 -0.5 6 9.5v10h-118v-35l-16 -5q1 20 1 58
t-1 50l15 -8h119l8 10l15 -14l-8 -6v-65q1 -19 -22 -24q-1 14 -30 18v4q24 -2 31 -2.5z" />
  </g>

</svg>
