<?xml version="1.0" standalone="no"?>
<!DOCTYPE svg PUBLIC "-//W3C//DTD SVG 1.1//EN" "http://www.w3.org/Graphics/SVG/1.1/DTD/svg11.dtd" >
<svg xmlns="http://www.w3.org/2000/svg" xmlns:xlink="http://www.w3.org/1999/xlink" version="1.1" viewBox="0 -36 256 256">
  <g transform="matrix(1 0 0 -1 0 220)">
   <path fill="currentColor"
d="M124 207v-17l-14 -4v21h-15l-11 -3l-10 10h36v32l22 -8l-8 -6v-18h6l10 11l18 -18h-34zM207 207v-16l-14 -4v20h-10l-11 -3l-10 10h31v32l21 -8l-7 -6v-18h11l10 11l18 -18h-39zM33 238q24 -10 29.5 -18t0.5 -16.5t-10.5 3.5t-20.5 28zM13 183q31 -12 33 -21.5t-3.5 -15
t-10.5 6t-20 27.5zM40 88q6 4 32 106h5q-19 -87 -22.5 -99.5t-4 -23t1 -35t-9 -18.5t-7.5 22.5t3 26.5t-24 15v4q20 -2 26 2zM132.5 127q-16.5 -2 -25.5 -6l-7 16q12 2 30.5 16t32.5 32l15 -14q-12 -4 -27.5 -15t-31.5 -20q17 0 59 1q15 12 24 23l15 -17l-9 -2
q-35 -20 -52.5 -29t-37.5 -18q25 2 94 5q-6 10 -15 22l4 2q30 -21 32.5 -30.5t-3 -16.5t-8.5 -1t-7 17q-33 -3 -47 -5v-55q-1 -20 -20 -25q-1 13 -25 17v5q31 -4 31 6v51q-25 -3 -35 -5t-16 -6l-10 20q12 2 31 11.5t44 23.5q-19 -1 -35.5 -3zM236 43q7 -9 4 -19.5t-13 4.5
t-42 40l2 3q42 -19 49 -28zM121 73l15 -14q-9 -4 -23.5 -16.5t-41.5 -26.5l-2 4q32 20 52 53zM149 183q-32 -27 -68 -43l-1 4q40 25 60 55l16 -14z" />
  </g>

</svg>
