<?xml version="1.0" standalone="no"?>
<!DOCTYPE svg PUBLIC "-//W3C//DTD SVG 1.1//EN" "http://www.w3.org/Graphics/SVG/1.1/DTD/svg11.dtd" >
<svg xmlns="http://www.w3.org/2000/svg" xmlns:xlink="http://www.w3.org/1999/xlink" version="1.1" viewBox="0 -205 1024 1024">
  <g transform="matrix(1 0 0 -1 0 819)">
   <path fill="currentColor"
d="M840 946l64 -46q6 -4 6 -8q0 -6 -38 -32v-182l4 -84q1 -13 -16 -28q-15 -13 -38 -14v24h-322v-318l206 76l8 -14q-243 -118 -254 -154l-50 66q39 14 40 34v686l64 -48h294l32 42v0v0zM500 878v-128h322v128h-322v0v0zM500 724v-122h322v122h-322v0v0zM952 506q7 -9 8 -12
q-2 -6 -16 -6q-30 0 -54 -8q-62 -30 -148 -74q59 -27 118 -68q57 -42 70 -68q11 -27 2 -44q-9 -16 -26 -16q-16 0 -44 42q-27 40 -92 92q-63 51 -200 126l6 14q90 -36 144 -68q114 75 186 136l46 -46v0v0zM126 928q61 -30 110 -72q49 -40 48 -70q0 -31 -14 -40
q-15 -10 -26 -2q-12 5 -18 32q-4 24 -34 60q-27 37 -74 80l8 12v0v0zM28 590h168l30 44l64 -44q12 -6 12 -14q1 -3 -40 -26v-306q14 -39 62 -80q47 -39 106 -51q60 -9 282 -10q103 3 284 14v-18q-43 -5 -64 -20q-22 -13 -26 -32q-389 10 -472 28q-81 18 -126 62
q-43 40 -52 61t-24 24q-12 3 -48 -42q-36 -44 -80 -113l-54 38q90 70 162 143v316h-108q-26 1 -52 -10l-24 36v0v0z" />
  </g>

</svg>
