<?xml version="1.0" standalone="no"?>
<!DOCTYPE svg PUBLIC "-//W3C//DTD SVG 1.1//EN" "http://www.w3.org/Graphics/SVG/1.1/DTD/svg11.dtd" >
<svg xmlns="http://www.w3.org/2000/svg" xmlns:xlink="http://www.w3.org/1999/xlink" version="1.1" viewBox="0 -205 1024 1024">
  <g transform="matrix(1 0 0 -1 0 819)">
   <path fill="currentColor"
d="M84 884l54 -44h144l36 38l50 -48q3 -4 4 -8q1 -6 -34 -32v-468l4 -90q2 -15 -16 -30q-19 -12 -38 -14v52h-154v-58q0 -15 -18 -30t-36 -13l4 117v628v0v0zM134 266h154v266h-154v-266v0v0zM134 558h154v256h-154v-256v0v0zM438 768h200v200l84 -30l4 -4q4 -6 0 -8
l-36 -18v-140h114l34 48l68 -54q3 -3 4 -8q0 -12 -12 -12h-208v-188h186l38 50l60 -56q3 -3 4 -8q0 -12 -12 -12h-244q36 -108 76 -164q39 -57 84 -98q44 -39 116 -56v-16q-40 0 -58 -6q-19 -7 -40 -26q-63 64 -90 104q-25 39 -58 96q-30 57 -54 166h-8v-358l4 -97
q-1 -13 -22 -26q-19 -10 -38 -12l4 133v358q-55 -120 -94 -180q-37 -60 -86 -120q-48 -60 -150 -127l-8 12q63 55 120 127q53 70 86 128q32 57 76 162h-126q-21 0 -68 -8l-16 34h266v188h-116q-21 0 -68 -8l-16 34v0v0z" />
  </g>

</svg>
