<?xml version="1.0" standalone="no"?>
<!DOCTYPE svg PUBLIC "-//W3C//DTD SVG 1.1//EN" "http://www.w3.org/Graphics/SVG/1.1/DTD/svg11.dtd" >
<svg xmlns="http://www.w3.org/2000/svg" xmlns:xlink="http://www.w3.org/1999/xlink" version="1.1" viewBox="0 -339 2048 2048">
  <g transform="matrix(1 0 0 -1 0 1709)">
   <path fill="currentColor"
d="M1580 1541q-56 -2 -115 -10l-39 86q62 -9 87 -12q22 -2 73 -5l18 168q9 78 8 151l94 -19q51 -11 66 -20q18 -10 18 -23q0 -27 -54 -41l-30 -7l-22 -210h110l75 77l97 -81q23 -18 23 -32q0 -7 -4 -13q-6 -8 -19 -8h-288l-25 -238q-5 -38 -10 -46q-13 -16 -45 -16
q-25 0 -39 12q-9 9 -8 26q0 5 1 10zM1779 195h-752l2 -65q1 -32 -55 -32q-52 0 -52 55q0 7 1 23q4 66 7 186l2 56v655q-3 47 -5 71q-2 20 -9 60l126 -92h719l61 72l72 -50q42 -28 42 -50q0 -10 -9 -18q-10 -10 -29 -20q-9 -4 -27 -13v-656l-1 -45q0 -26 4 -76q5 -69 5 -100
q0 -24 -5 -33q-4 -8 -19 -15q-14 -8 -30 -8q-21 0 -39 9q-9 4 -9 15v71zM1779 695v361h-338v-361h338zM1779 634h-338v-382h338v382zM1027 252h320v382h-320v-382zM1027 695h320v361h-320v-361zM1079 1600l-24 316l104 -12q75 -9 75 -36q0 -22 -41 -40l-34 -15l15 -213h30
l72 68l92 -72q19 -14 22 -24q2 -5 2 -9q0 -8 -5 -14q-5 -7 -23 -7h-188l24 -242q1 -6 1 -11q1 -22 -12 -31q-8 -6 -15 -8q-17 -3 -40 -3q-16 0 -21 6q-5 7 -6 19l-23 270h-62q-38 0 -98 -5q-18 -1 -51 -6l-39 86q61 -9 87 -11q56 -6 101 -6h57zM495 1298q54 -40 93 -73
q62 -53 102 -110q26 -37 36 -66q10 -28 10 -52q0 -33 -20 -53q-14 -14 -34 -14q-18 0 -31 12q-9 8 -14 29q-1 3 -9 40q-17 77 -67 149q-15 21 -66 82v-928l2 -44l2 -47l4 -51l1 -23l2 -28q1 -17 1 -19q0 -28 -21 -41q-16 -11 -41 -11q-32 0 -41 13q-6 9 -6 20v1053
q-40 -100 -110 -232q-52 -99 -113 -196q-30 -47 -77 -113l-30 21q41 69 68 125q61 122 110 252q43 112 74 235q15 59 38 171l4 22h-99q-37 0 -97 -5q-18 -1 -51 -6l-39 86q54 -8 87 -11q66 -6 100 -6h135v305q0 39 -4 122q-1 21 -4 38l112 -24q58 -13 72 -24q13 -10 13 -22
q0 -11 -9 -21q-14 -14 -40 -21l-43 -11v-342h102l87 84l111 -90q16 -13 16 -28q0 -9 -8 -16q-9 -8 -19 -8h-289v-123z" />
  </g>

</svg>
