<?xml version="1.0" standalone="no"?>
<!DOCTYPE svg PUBLIC "-//W3C//DTD SVG 1.1//EN" "http://www.w3.org/Graphics/SVG/1.1/DTD/svg11.dtd" >
<svg xmlns="http://www.w3.org/2000/svg" xmlns:xlink="http://www.w3.org/1999/xlink" version="1.1" viewBox="0 -144 1024 1024">
  <g transform="matrix(1 0 0 -1 0 880)">
   <path fill="currentColor"
d="M892 88l-28 20l-27 22l-25 24l-23 25l-22 28l-20 30l-17 31l-12 26v-229l-65 -32v238l-31 -43l-25 -31l-28 -28l-29 -26l-31 -23l-33 -21l-34 -18l-36 -15l-4 9l58 47l27 25l25 26l24 27l22 29l20 30l19 32l18 32l4 11h-209v21h243v97h-185v21h185v97h-211v22h296l4 9
l22 85l8 30l5 21l-1 1l5 13l57 -30l12 -16l-23 -4l-20 -34l-29 -43l-23 -29l-2 -3h57l54 53l64 -53v-22h-210v-97h87l44 49l54 -49v-21h-185v-97h124l54 54l64 -54v-21h-242l60 -74l23 -24l24 -22l23 -19l26 -18l25 -16l27 -14l58 -27l-61 -49zM47 81l-2 7l-3 10l-1 4l-1 2
l-1 4l-1 5l-2 7l-3 10l-1 2v3l-1 3l-1 3l34 8v357l65 -11l16 -11l-16 -10v-309l53 14l16 5v435h-69v-17l-65 -32v360l65 -32h189l33 27l59 -48l-27 -22v-269l-65 -32v65h-56v-199h65l34 37l43 -37v-22h-142v-195l149 44l4 -9l-70 -40l-73 -35l-74 -31l-112 -41l-18 -6
l-6 -19l-15 12v3zM30 141l17 -63l-27 60zM579 631l-3 27l-6 26l-3 13l-8 25l-4 13l-7 11l7 6l10 -9l11 -9l11 -10l10 -10l9 -12l9 -13l8 -13l8 -15l6 -15l6 -16l-5 -24l-20 -14l-24 5l-14 20zM318 877h-189v-237h189v237zM410 758v22h191v199l59 -11l15 -11l-15 -9v-168h50
v199l59 -11l15 -11l-15 -9v-168h33l4 13l18 62l6 18l18 69l3 11h-2l5 13l58 -30l12 -15l-22 -5l-14 -26l-30 -51l-24 -35l-14 -18l-4 -6h46l44 48l54 -48v-22h-550zM506 815l-3 28l-3 15l-6 28l-9 28l-10 28l-8 14l8 6l11 -12l12 -10l11 -11l11 -13l19 -26l8 -14l8 -15
l7 -15l7 -16l-4 -24l-20 -15l-24 4z" />
  </g>

</svg>
