<?xml version="1.0" standalone="no"?>
<!DOCTYPE svg PUBLIC "-//W3C//DTD SVG 1.1//EN" "http://www.w3.org/Graphics/SVG/1.1/DTD/svg11.dtd" >
<svg xmlns="http://www.w3.org/2000/svg" xmlns:xlink="http://www.w3.org/1999/xlink" version="1.1" viewBox="0 -205 1024 1024">
  <g transform="matrix(1 0 0 -1 0 819)">
   <path fill="currentColor"
d="M582 772l58 -32h192l30 38l56 -40q8 -6 8 -14q0 -6 -30 -24v-102l4 -54q1 -14 -18 -28q-19 -15 -38 -14v32h-210v-18l-20 -14q-18 -12 -36 -12l4 96v186v0v0zM634 562h210v150h-210v-150v0v0zM334 780q4 -8 2 -10q-3 -3 -18 -12q-16 -7 -40 -40h156l28 30q58 -36 62 -42
q2 -4 2 -10t-18 -12q-18 -7 -42 -40q-24 -31 -66 -74q47 -13 74 -32q27 -17 22 -40q-3 -21 -20 -24q-18 -4 -30 10q-13 14 -34 28q-19 14 -44 26q-73 -52 -152 -82q-77 -30 -160 -54l-4 18q88 33 152 66q63 30 120 70q-69 24 -164 48l54 88h-64q-20 0 -64 -8l-16 34h156
q18 39 42 90l66 -28v0v0zM202 616q83 -17 152 -34q50 52 82 110h-174l-60 -76v0v0zM760 434q-19 0 -64 -2q-45 -3 -146 -14v-84h216l42 44l64 -52q2 0 2 -8q0 -10 -12 -10h-312v-68h324l36 48l66 -56q3 -3 4 -8q0 -7 -12 -8h-418v-103q3 -47 -14 -68q-18 -20 -66 -32
q-6 30 -32 42q-24 14 -84 34l4 18q59 -12 86 -16q27 0 42 2q16 3 14 30v93h-356q-21 0 -68 -8l-16 32h440v68h-254q-21 0 -56 -8l-16 34h326v80q-148 -12 -334 -18v18q230 24 358 40q125 15 242 42q45 -49 48 -56q4 -6 2 -8q0 -4 -18 -2t-38 4v0v0zM342 984l76 -30
q6 -3 6 -8q0 -2 -32 -22v-42h232v94l82 -26q3 -5 4 -10q1 -3 -34 -20v-38h198l40 48l60 -62q3 -1 4 -8q-1 -6 -16 -6h-286v-32q-1 -16 -20 -22q-22 -6 -32 -6v60h-232v-28q-1 -16 -20 -22q-9 -6 -30 -6v56h-206q-22 -1 -70 -10l-18 38h294v102v0v0z" />
  </g>

</svg>
