<?xml version="1.0" standalone="no"?>
<!DOCTYPE svg PUBLIC "-//W3C//DTD SVG 1.1//EN" "http://www.w3.org/Graphics/SVG/1.1/DTD/svg11.dtd" >
<svg xmlns="http://www.w3.org/2000/svg" xmlns:xlink="http://www.w3.org/1999/xlink" version="1.1" viewBox="0 -144 1024 1024">
  <g transform="matrix(1 0 0 -1 0 880)">
   <path fill="currentColor"
d="M855 59l-21 20l-22 20l-24 17l-26 17l-13 8l-20 -19l-41 -28l-48 -23l-53 -17l-59 -12l-65 -7l-1 9l61 18l55 19l48 22l40 25l33 28l7 8l-32 14l-53 20l-14 -37l-72 -7l67 174h-165v22h173l33 86l56 -33l12 -16l-19 -3l-13 -34h176l54 54l64 -54v-22h-140l-5 -42l-14 -49
l-21 -43l-14 -18l35 -17l29 -16l27 -18l27 -21l24 -22l8 -24l-10 -22l-23 -8l-23 10zM37 393v6v-6zM110 323l62 -21l14 -14l-20 -7l-9 -31l-10 -24l-11 -25l-13 -24l-29 -47l-17 -22l-19 -21l-21 -19l-8 5l35 75l10 24l9 23l7 24l7 23l4 24l4 23zM397 184l-6 17l-6 16l-7 17
l-16 31l-9 16l-21 31l-12 15l6 7l34 -21l16 -12l29 -27l25 -32l12 -17l10 -18l10 -19l-2 -25l-18 -16l-24 1l-17 18zM769 328h-98l-44 -116l20 -1l36 -6l34 -8l12 -4l16 27l14 36l8 40zM800 670l59 -28l13 -14l-22 -6l-12 -25l-39 -71l-32 -49h85l54 53l65 -53v-22h-530v22
h313l4 15l6 23l16 64l13 52l2 16l2 9zM595 530l-2 15l-2 15l-5 29l-4 15l-9 28l-4 15l-7 12l7 6l11 -11l12 -11l11 -12l10 -12l10 -14l8 -14l9 -15l14 -32l5 -17l-5 -24l-20 -14l-25 5l-13 21zM474 680v22h199v112l65 -10l16 -11l-16 -10v-81h80l54 54l64 -54v-22h-462z
M614 972l65 -10l16 -11l-16 -10v-42h166l54 54l65 -54v-21h-285v-49l-65 -32v81h-236v-49l-65 -32v81h-285v21h285v73l65 -10l16 -11l-16 -10v-42h236v73zM41 345l-9 40l-2 1l-4 23h10l18 1l55 56l63 61l-19 15l-5 13l-7 14l-18 26l-24 27l-13 14l-31 28l-19 13l4 8l43 -15
l20 -9l27 -15l105 162l14 22l50 -40l7 -19l-22 2l-14 -17l-48 -50l-54 -49l-25 -19l28 -22l14 -13l13 -15l11 -15l2 -9l169 163l5 4l42 -48l3 -20l-19 6l-240 -192l-87 -65l30 1l39 2l38 3l37 2l73 5l36 2l36 2h11l-4 8l-8 15l-20 31l-23 29l-14 14l5 8l36 -19l17 -11
l16 -12l15 -13l27 -29l13 -16l11 -17l10 -18v-25l-17 -17h-25l-17 17l-11 32l-4 8l-14 -5l-35 -10l-35 -9l-15 -3v-322l-65 -32v340l-30 -5l-77 -12l-39 -6l-18 -2l-10 -18z" />
  </g>

</svg>
