<?xml version="1.0" standalone="no"?>
<!DOCTYPE svg PUBLIC "-//W3C//DTD SVG 1.1//EN" "http://www.w3.org/Graphics/SVG/1.1/DTD/svg11.dtd" >
<svg xmlns="http://www.w3.org/2000/svg" xmlns:xlink="http://www.w3.org/1999/xlink" version="1.1" viewBox="0 -205 1024 1024">
  <g transform="matrix(1 0 0 -1 0 819)">
   <path fill="currentColor"
d="M338 616h184v90h-64q-27 -4 -36 -10l-24 36h124v90h-94q-24 0 -38 -12l-28 38h160v132l76 -32q15 -9 0 -18l-26 -12v-70h154v130l74 -30q16 -6 6 -18l-30 -14v-68h104l34 44l54 -46q18 -21 -6 -24h-186v-90h72l32 40l50 -52q9 -16 -12 -14h-142v-90h118l38 44l50 -50
q15 -18 -8 -20h-300v-82h134l30 36l54 -38q9 -6 10 -12t-28 -24v-202h36l32 44l52 -50q3 -4 4 -10q0 -10 -12 -10h-112v-151q-3 -33 -24 -48q-19 -15 -46 -30q-8 28 -28 44q-19 18 -82 42l6 18q50 -12 74 -18q20 -5 38 -2q15 5 12 43v102h-350v-111l4 -70q3 -11 -18 -26
q-18 -15 -38 -18l4 110v115h-66q-19 0 -46 -8l-16 34h128v276l44 -36h154v82h-218q-20 0 -52 -8l-16 34v0v0zM474 268h150v94h-150v-94v0v0zM674 268h150v94h-150v-94v0v0zM474 388h150v94h-150v-94v0v0zM674 482v-94h150v94h-150v0v0zM570 614h154v92h-154v-92v0v0z
M570 732h154v90h-154v-90v0v0zM30 742h152v246l68 -30q21 -7 10 -20l-30 -16v-180h68l24 36l44 -44q6 -4 6 -8q0 -12 -12 -12h-130v-100q63 -30 88 -48q23 -18 32 -36q8 -18 2 -38t-24 -22q-18 -1 -24 22q-5 24 -22 48t-52 52v-426l4 -105q0 -14 -18 -26q-18 -11 -38 -14
l4 147v372q-18 -52 -62 -134q-43 -81 -88 -132l-12 8q33 56 66 134q33 74 58 146q21 68 36 152h-82q-15 0 -42 -8l-26 36v0v0z" />
  </g>

</svg>
