<?xml version="1.0" standalone="no"?>
<!DOCTYPE svg PUBLIC "-//W3C//DTD SVG 1.1//EN" "http://www.w3.org/Graphics/SVG/1.1/DTD/svg11.dtd" >
<svg xmlns="http://www.w3.org/2000/svg" xmlns:xlink="http://www.w3.org/1999/xlink" version="1.1" viewBox="0 -36 256 256">
  <g transform="matrix(1 0 0 -1 0 220)">
   <path fill="currentColor"
d="M42 221q-10 0 -19 -2l-9 9h198l14 12l17 -19h-86v-33h49l7 10l13 -11l-7 -8q0 -36 0.5 -85.5t28.5 -74.5v-3q-11 -1 -15 -7q-7 7 -16 28t-10 46t0 98h-51l-7 -7l-12 14l6 3v30h-35v-22q0 -10 1 -18l-15 -6v5h-45v-83q0 -36 -7.5 -53.5t-29.5 -36.5l-3 4q18 21 23 41t4 45
v75q0 12 -2 23l15 -8h45v34h-52zM118 98q0 -9 1 -17l-13 -6v9h-28v-6l-13 -6q1 16 1 48t-1 48l12 -7h29l6 10l13 -12l-7 -7v-54zM78 139h28v15h-28v-15zM78 114h28v18h-28v-18zM78 91h28v16h-28v-16zM190 94q0 -5 1 -10l-13 -6v7h-28v-4l-12 -6v48.5v43.5l11 -6h29l7 9
l13 -11l-8 -6v-59zM150 140h28v14h-28v-14zM150 114h28v19h-28v-19zM150 92h28v15h-28v-15zM158 65l11 10l15 -17h-49v-30h45l12 11l15 -18h-118q-19 0 -28 -2l-9 9h70v30h-26q-6 0 -15 -3l-8 10h85z" />
  </g>

</svg>
