<?xml version="1.0" standalone="no"?>
<!DOCTYPE svg PUBLIC "-//W3C//DTD SVG 1.1//EN" "http://www.w3.org/Graphics/SVG/1.1/DTD/svg11.dtd" >
<svg xmlns="http://www.w3.org/2000/svg" xmlns:xlink="http://www.w3.org/1999/xlink" version="1.1" viewBox="0 -205 1024 1024">
  <g transform="matrix(1 0 0 -1 0 819)">
   <path fill="currentColor"
d="M104 51q-5 -1 -6 2q-13 20 -23 36q-6 10 7 7q61 -6 68 -7h245v75h-198q-27 0 -61 -7q-5 -1 -6 2q-13 19 -23 35q-6 10 7 7q61 -5 68 -6h213v79h-162q-27 0 -61 -7q-5 -1 -6 2q-13 19 -23 35q-6 10 7 7q61 -5 68 -6h177v67h-202q-27 0 -61 -7q-5 -1 -6 2q-13 19 -23 35
q-6 10 7 7q61 -5 68 -6h216q-2 49 -3 73q-1 16 9 13q54 -17 76 -29q9 -5 0 -11q-22 -16 -26 -20q-7 -7 -7 -23v-317h124v311q-1 39 -4 70q-1 16 9 13q54 -17 76 -29q9 -5 0 -11t-33 -28v-12h177q13 0 23 7l18 24q9 10 18 3q23 -15 54 -42q12 -7 11 -14q-3 -8 -16 -9h-285
v-71h153q13 0 23 7l18 24q9 10 18 3q23 -15 54 -42q12 -7 11 -14q-3 -8 -16 -9h-261v-75h173q13 0 23 7l18 24q9 10 18 3q23 -15 54 -42q12 -7 11 -14q-3 -8 -16 -9h-281v-75h202q13 0 19 3q5 2 12 8l21 25q6 6 12 0q35 -24 63 -45q11 -6 10 -13q-1 -8 -17 -9h-772
q-27 0 -61 -7zM383 887q1 -18 2 -45q1 -9 -6 -13q-44 -21 -48 -20q-3 3 0 13q3 25 4 65v7h-202q-27 0 -61 -7q-5 -1 -6 2q-13 20 -23 36q-6 10 7 7q61 -6 68 -7h216q-2 29 -3 53q-3 15 0 18q4 4 13 0q39 -17 63 -30q6 -3 6 -6q-1 -5 -4 -6q-18 -9 -22 -15q-4 -5 -4 -14h251
q-2 29 -3 53q-3 15 0 18q4 4 13 0q39 -17 63 -30q6 -3 6 -6q-1 -5 -4 -6q-18 -9 -22 -15q-4 -5 -4 -14h164q12 0 16 3q6 4 13 13l24 35q8 9 15 0q29 -26 57 -54q11 -12 10 -19q-2 -8 -15 -9h-284v-3q1 -18 2 -45q1 -9 -6 -13q-44 -21 -48 -20q-3 3 0 13q3 25 4 65v3h-252v-7
zM314 734q80 -82 203 -137q78 55 133 137h-336zM273 473l-11 -8q-1 4 -1 7q-78 -9 -169 -9q-24 0 -21 16q3 10 19 11q247 9 391 85q-99 57 -187 151q-4 5 -5 8h-112q-42 -1 -73 -7q-9 -3 -10 6q-5 18 -20 31q-8 7 -4 11q4 3 11 -1q38 -9 84 -9h329q-14 43 -65 91q-6 6 -2 12
q5 6 15 0q79 -28 91 -58q2 -15 -10 -45h263q14 1 30 19l26 37q7 9 16 0q71 -63 70 -78q-2 -8 -15 -9h-206q-64 -98 -140 -156q54 -19 132 -31q164 -22 228 -10q8 -1 8 -8q-1 -10 -11 -11q-42 -5 -52 -44q-2 -5 -15 -4q-39 8 -70 9q-107 1 -260 73q-100 -59 -254 -79z" />
  </g>

</svg>
