<?xml version="1.0" standalone="no"?>
<!DOCTYPE svg PUBLIC "-//W3C//DTD SVG 1.1//EN" "http://www.w3.org/Graphics/SVG/1.1/DTD/svg11.dtd" >
<svg xmlns="http://www.w3.org/2000/svg" xmlns:xlink="http://www.w3.org/1999/xlink" version="1.1" viewBox="0 -36 256 256">
  <g transform="matrix(1 0 0 -1 0 220)">
   <path fill="currentColor"
d="M129 203h-39q0 -9 1 -22l-16 -7q1 16 1 29h-29q-10 0 -20 -2l-10 9h59q0 26 -1 37l23 -10l-8 -6v-21h11l13 11zM164 204q-12 0 -22 -2l-9 9h35q0 21 -1 35l23 -10l-8 -7v-18h33l13 12l16 -19h-62q0 -6 1 -20l-16 -4q1 19 1 24h-4zM119 178l16 -18h-50v-43l47 10l1 -3
q-41 -15 -61 -21t-47 -17l-11 18q30 4 57 11v45h-16q-11 0 -22 -3l-9 10h81zM181 172l-6 -5q-3 -15 -6 -24q28 -12 41 -18.5t18.5 -13t2.5 -18.5t-12 -0.5t-22 23.5t-30 22q-15 -34 -69 -53l-2 3q36 21 49.5 39t15.5 56zM54 76q-3 -27 -9.5 -35.5t-13.5 -10.5t-12 5.5
t8 12.5t21 29zM109 90q25 -7 33.5 -15t6 -16.5t-8 -9.5t-8.5 11.5t-25 25.5zM189 84q27 -12 37 -19.5t7.5 -17t-7 -12t-10.5 11.5t-30 34zM74 83l23 -10l-7 -8v-27q-1 -11 12 -11h61q12 0 12 14.5v25.5h5q0 -16 3 -26t11 -12q-5 -14 -26 -15h-72q-21 -1 -21 20q0 30 -1 49z
" />
  </g>

</svg>
