<?xml version="1.0" standalone="no"?>
<!DOCTYPE svg PUBLIC "-//W3C//DTD SVG 1.1//EN" "http://www.w3.org/Graphics/SVG/1.1/DTD/svg11.dtd" >
<svg xmlns="http://www.w3.org/2000/svg" xmlns:xlink="http://www.w3.org/1999/xlink" version="1.1" viewBox="0 -36 256 256">
  <g transform="matrix(1 0 0 -1 0 220)">
   <path fill="currentColor"
d="M59 126h38v36h-38v-36zM109 126h37v36h-37v-36zM159 126h41v36h-41v-36zM45 147q0 13 -1 31l15 -9h139l6 10l15 -12l-8 -7q-1 -23 1 -41l-12 -5v5h-141v-4l-15 -3q1 22 1 35zM73 11l-13 -6v66q-22 -16 -46 -27l-1 3q44 30 75 69l16 -14l-10 -2q-19 -16 -28 -22l14 -8
l-7 -5v-54zM182.5 106.5q10.5 -4.5 8.5 -16t-10.5 -2t-28.5 21.5l1 3q19 -2 29.5 -6.5zM145 76l53 8l12 13l18 -15l-80 -12q7 -12 24 -26.5t45 -20.5l4 34l3 -1q4 -34 10 -40t-18.5 -3.5t-43.5 15.5t-36 39l-31 -5q-10 -2 -13 -5l-9 8l50 8q-4 6 -14 41l22 -5l-5 -8
q1 -12 9 -25zM71 230l-10 -16h51l12 10l15 -17h-62q26 -12 27.5 -18t-4 -12t-9.5 4.5t-22 25.5h-12q-18 -25 -38 -40l-3 2q14 17 25.5 35.5t19.5 41.5l21 -12zM173 232l-11 -18h51l12 11l16 -18h-60q21 -8 26.5 -12.5t3.5 -11t-6.5 -7t-8.5 7.5t-22 23h-16q-11 -16 -27 -32
l-4 1q18 28 24.5 44t10.5 26l20 -11z" />
  </g>

</svg>
