<?xml version="1.0" standalone="no"?>
<!DOCTYPE svg PUBLIC "-//W3C//DTD SVG 1.1//EN" "http://www.w3.org/Graphics/SVG/1.1/DTD/svg11.dtd" >
<svg xmlns="http://www.w3.org/2000/svg" xmlns:xlink="http://www.w3.org/1999/xlink" version="1.1" viewBox="0 -205 1024 1024">
  <g transform="matrix(1 0 0 -1 0 819)">
   <path fill="currentColor"
d="M352 374q-63 -47 -194 -106l-10 16q138 75 258 198q50 -38 52 -46q0 -8 -2 -10q-4 0 -22 -2q-17 -3 -82 -50v0v0zM358 113q-114 -48 -294 -78l-2 18q183 46 306 105q122 61 208 146q56 -45 58 -54q0 -6 -6 -8q-7 -3 -20 -2q-12 0 -74 -38q-61 -40 -176 -89v0v0zM66 930
h206l34 32l48 -40q8 -6 8 -12q1 -6 -28 -24v-206l4 -46q0 -15 -18 -26q-16 -10 -34 -10v144q-91 -72 -116 -96q-25 -21 -52 -60l-48 42l216 142v134h-150q-33 -3 -48 -8l-22 34v0v0zM384 262q-102 -63 -288 -127l-6 17q231 96 382 232q53 -42 56 -50q2 -6 -4 -8
q-7 -3 -22 -2q-16 0 -118 -62v0v0zM378 932h174l34 32l48 -36q8 -6 8 -12q1 -6 -28 -24v-196l4 -50q0 -15 -18 -26q-16 -10 -34 -10v134q-75 -57 -92 -72q-16 -15 -46 -54l-44 44l182 108v136h-118q-33 -3 -48 -8l-22 34v0v0zM100 846l8 10q46 -19 68 -34q21 -16 30 -34
q9 -16 0 -32q-7 -16 -22 -16q-16 -1 -22 16q-6 18 -14 36q-9 18 -48 54v0v0zM384 848l8 10q38 -18 62 -36q21 -16 30 -34q6 -16 -2 -32q-6 -15 -24 -14q-17 0 -22 22q-6 18 -14 36q-7 18 -38 48v0v0zM392 572q84 -28 160 -64q75 -36 96 -62q20 -26 14 -46q-7 -20 -26 -22
q-18 -3 -42 30q-25 30 -80 72q-54 38 -138 80q-78 -69 -156 -126q-77 -54 -160 -92l-8 12q83 57 152 112q68 53 164 166q63 -30 64 -36q3 -3 0 -6q0 -2 -12 -4q-11 -1 -28 -14v0v0zM700 832l86 -34q12 -9 0 -18l-36 -12v-366l4 -98q-2 -16 -22 -28q-21 -12 -36 -12l4 134
v434v0v0zM852 964l88 -38q9 -10 -2 -16l-38 -14v-742q3 -67 -20 -95q-24 -27 -62 -36q-16 32 -40 46q-22 16 -110 40l4 20q93 -18 120 -24q27 -5 42 4q18 10 18 35v820v0v0z" />
  </g>

</svg>
