<?xml version="1.0" standalone="no"?>
<!DOCTYPE svg PUBLIC "-//W3C//DTD SVG 1.1//EN" "http://www.w3.org/Graphics/SVG/1.1/DTD/svg11.dtd" >
<svg xmlns="http://www.w3.org/2000/svg" xmlns:xlink="http://www.w3.org/1999/xlink" version="1.1" viewBox="0 -36 256 256">
  <g transform="matrix(1 0 0 -1 0 220)">
   <path fill="currentColor"
d="M93 156l-13 -7v12h-16v-46h11l11 10l15 -17h-37v-59l35 9l1 -5q-35 -12 -73 -29l-8 -6l-11 16l12 3q0 76 -1 99l19 -11l-5 -7v-78l18 5v116h-18v-9l-13 -6v43v49l14 -10h45l7 11l14 -11l-8 -9q0 -42 1 -63zM33 168h47v53h-47v-53zM96 180l-2 4q44 14 57 46h-16
q-13 0 -22 -3l-10 10h122l8 8l13 -13l-6 -4q-3 -16 -5 -22.5t-6 -12t-17 -11.5q-4 14 -28 18v4q22 -3 29.5 -3t12.5 29h-58q-18 -39 -72 -50zM179 129h45v16h-45v-16zM105 137q0 30 -1 48l14 -7h105l9 9l14 -14l-8 -6v-54q0 -17 -19 -22q-1 12 -25 16v4q14 -1 22 -1t8 4v8
h-45v-17l-14 -4v21h-46v-26l-15 -5q1 16 1 46zM119 152h46v19h-46v-19zM179 152h45v19h-45v-19zM119 129h46v16h-46v-16zM168 85h50l11 8l14 -14l-9 -4q-8 -47 -17 -56.5t-23 -10.5q-4 16 -32 20v5q24 -5 33 -5.5t13.5 6t11.5 44.5h-55q-14 -50 -81 -71l-1 4q55 26 68 67
h-21q-14 0 -24 -3l-10 10h57q2 6 2 21l22 -10l-7 -5q-1 -4 -2 -6z" />
  </g>

</svg>
