<?xml version="1.0" standalone="no"?>
<!DOCTYPE svg PUBLIC "-//W3C//DTD SVG 1.1//EN" "http://www.w3.org/Graphics/SVG/1.1/DTD/svg11.dtd" >
<svg xmlns="http://www.w3.org/2000/svg" xmlns:xlink="http://www.w3.org/1999/xlink" version="1.1" viewBox="0 -205 1024 1024">
  <g transform="matrix(1 0 0 -1 0 819)">
   <path fill="currentColor"
d="M190 756h158v210l78 -30q6 -2 6 -4q4 -4 -4 -10l-32 -14v-152h84l22 28l52 -38q3 -4 4 -8q0 -7 -12 -8h-150v-52q58 -43 92 -74q33 -30 48 -66q13 -33 2 -56q-9 -25 -32 -22q-23 2 -28 40q-4 36 -22 70t-60 80v-296l4 -108q0 -18 -18 -32q-18 -13 -38 -14l4 98v344
q-27 -55 -62 -124q-36 -66 -84 -138l-14 8q32 66 62 136q29 70 80 206h-56q-21 1 -62 -10l-22 36v0v0zM58 896q48 -28 70 -46q21 -16 30 -34q9 -19 6 -34q-1 -15 -14 -26q-12 -11 -26 -6q-15 3 -18 30q-1 27 -16 48q-12 21 -42 58l10 10v0v0zM26 554h94l28 34l40 -34
q12 -9 12 -14q1 -4 -28 -28v-302q27 -37 58 -58q30 -19 84 -25h166l112 15v-17q-27 -4 -48 -20q-19 -14 -28 -32l-100 4q-91 6 -124 12q-33 5 -66 28q-30 23 -48 45q-15 23 -30 26q-13 3 -38 -32q-24 -31 -42 -77l-48 40q39 34 106 91v318h-34q-27 -1 -36 -10l-30 36v0v0z
M422 892l8 12q33 -9 60 -24q23 -14 32 -34q7 -18 -4 -32q-12 -13 -26 -10q-15 0 -18 18q-3 14 -14 32q-12 17 -38 38v0v0zM600 906l56 -44h24q21 53 36 116l64 -26q10 -9 0 -14q-27 -12 -36 -24q-6 -10 -36 -52h114l26 30l60 -38q6 -4 6 -8q0 -6 -30 -24v-144l4 -68
q-1 -16 -14 -26t-40 -16v24h-186v-80h256l36 46l52 -58q6 -15 -8 -14h-336v-80h248l30 30l54 -46q3 -8 -2 -16l-24 -16q-1 -69 -8 -134q-5 -66 -16 -103q-12 -38 -32 -62q-19 -20 -64 -38q-18 36 -42 48t-78 30l6 18q62 -15 94 -18q30 -2 46 4q14 6 22 32q8 23 14 81
q4 57 8 162h-256q3 -19 -14 -28q-16 -10 -38 -10l4 118v448v0v0zM648 620h186v92h-186v-92v0v0zM648 742h186v92h-186v-92v0v0zM578 316h20q6 -39 10 -78q4 -38 -10 -58q-16 -19 -34 -22q-19 -4 -28 8q-7 9 -2 22q3 11 18 26q12 14 18 32q4 17 8 70v0v0zM642 318l12 8
q38 -51 50 -74q9 -21 10 -42q0 -18 -12 -32q-11 -12 -28 -6q-15 7 -12 32q3 23 -2 46q-3 23 -18 68v0v0zM788 350l12 8q45 -28 60 -52q15 -21 18 -42q3 -18 -8 -32q-12 -13 -26 -8q-16 6 -16 30q0 23 -8 44q-9 18 -32 52v0v0zM712 330l12 8q47 -40 62 -64q14 -21 14 -42
q0 -18 -12 -32q-11 -13 -28 -8q-16 6 -14 36q0 29 -6 46q-5 17 -28 56v0v0z" />
  </g>

</svg>
