<?xml version="1.0" standalone="no"?>
<!DOCTYPE svg PUBLIC "-//W3C//DTD SVG 1.1//EN" "http://www.w3.org/Graphics/SVG/1.1/DTD/svg11.dtd" >
<svg xmlns="http://www.w3.org/2000/svg" xmlns:xlink="http://www.w3.org/1999/xlink" version="1.1" viewBox="0 -52 256 256">
  <g transform="matrix(1 0 0 -1 0 204)">
   <path fill="currentColor"
d="M117 93h111v51h-102q-4 0 -9 -3l-9 8h60v89q1 3 -4 9l-2 2l2 2l22 -8q3 -1 1 -3q-4 -1 -7 -4v-87h44l9 10l13 -12q2 -2 1 -2q0 -1 -2 -2l-5 -2v-88l1 -26q0 -4 -4 -7q-1 -1 -4 -1q-3 -1 -5 -1v16h-105q-7 1 -11 -3l-9 8h125v50h-92q-6 0 -11 -3zM226 227l15 -13
q4 -3 2 -3q-3 0 -6 -1h-1q-23 -34 -38 -54l-3 2l13 24q20 35 18 36q0 3 -3 7zM110 218l2 3q18 -11 27 -23t10 -23q0 -10 -5 -13q-6 -2 -7 10q-1 11 -6 21q-4 10 -21 25zM108 180q-8 2 -10 -26q-15 -98 -87 -142l-2 3q72 55 81 167h-36l-11 -42l-6 -27q29 -13 45 -27
q22 -20 21 -30q-1 -7 -5 -8q-2 0 -10 12q-7 12 -11 16q-23 23 -48 34q4 19 9 45q4 17 6 27h-19q-4 0 -7 -3l-8 8h35q3 16 7 37q3 12 3 15v1q0 1 -2 3q-1 2 -2 3l2 3l23 -11l1 -1q0 -1 -2 -1q-9 0 -13 -21l-7 -28h31l7 8l16 -12q1 0 1 -1t-1 -1z" />
  </g>

</svg>
