<?xml version="1.0" standalone="no"?>
<!DOCTYPE svg PUBLIC "-//W3C//DTD SVG 1.1//EN" "http://www.w3.org/Graphics/SVG/1.1/DTD/svg11.dtd" >
<svg xmlns="http://www.w3.org/2000/svg" xmlns:xlink="http://www.w3.org/1999/xlink" version="1.1" viewBox="0 -36 256 256">
  <g transform="matrix(1 0 0 -1 0 220)">
   <path fill="currentColor"
d="M175 237l-6 -5q-5 -12 -14 -31h65l8 11l15 -16l-10 -8v-69t-9.5 -63.5t-22.5 -18.5q2 16 -27 24v3q27 -4 32.5 -4.5t10 16t3.5 118.5h-67q-16 -33 -27 -40l-2 2q24 41 30 92zM155 134q11 -9 14 -17.5t-2 -16.5t-8 5.5t-8 23.5q-13 -17 -24 -27l-2 2q27 38 37 77l17 -11
q-2 -2 -6 -7t-8 -13h27l8 10l13 -15l-8 -5q-22 -63 -74 -91l-2 3q42 28 64 91h-31zM70 198q0 29 -1 48l23 -11l-8 -5v-32h14l9 10l15 -17h-38v-40h23l10 12l16 -19h-54l17 -8l-7 -6v-28h11l10 11l15 -18h-36v-49q24 -15 65.5 -17t93.5 4v-4q-15 -4 -18 -16q-25 -1 -64 0.5
t-69 15.5t-50 37q-7 -30 -36 -58l-4 2q20 27 27 56.5t6 57.5l21 -9l-6 -7q-2 -17 -5 -36q11 -11 25 -19v91h-32q-10 0 -19 -2l-9 9h55v40h-13q-10 0 -19 -2l-9 9h41z" />
  </g>

</svg>
