<?xml version="1.0" standalone="no"?>
<!DOCTYPE svg PUBLIC "-//W3C//DTD SVG 1.1//EN" "http://www.w3.org/Graphics/SVG/1.1/DTD/svg11.dtd" >
<svg xmlns="http://www.w3.org/2000/svg" xmlns:xlink="http://www.w3.org/1999/xlink" version="1.1" viewBox="0 -144 1024 1024">
  <g transform="matrix(1 0 0 -1 0 880)">
   <path fill="currentColor"
d="M616 237l6 -18l-20 2l-50 -49l-22 -21l-49 -39l-52 -34l-28 -17l-30 -14l-5 8l67 67l42 43l56 66l34 46l2 3zM839 115l-13 20l-30 38l-33 36l-39 35l-21 17l5 8l27 -9l24 -11l25 -13l22 -15l22 -16l39 -36l35 -41l16 -23l3 -24l-15 -20l-25 -3l-19 15l-11 21zM281 89
l-9 -9l-10 -8l-11 -8l-12 -6l-12 -4l-13 -3l-13 -2l-14 -1v32l-75 16v16h75l8 1l7 1l11 3l6 3l4 3l4 4l4 4l5 6l4 6l15 35l14 57l9 74l3 86l-5 94l-4 23l-23 -40l-25 -38l-26 -35l-28 -33l-30 -33l-33 -30l-35 -28l-37 -26l-6 7l57 67l27 34l48 69l41 72l18 38l15 38l15 40
l4 -2l-21 76l-13 31l-28 -29l-36 -33l-39 -31l-40 -26l-42 -24l-6 8l35 32l67 66l31 36l30 39l7 10l-7 18l-57 93l-72 88l6 7l88 -77l66 -93l1 -1l24 37l50 93l21 45l5 11l55 -34l11 -16l-21 -2l-17 -33l-29 -48l-30 -45l-32 -43l-13 -15l24 -50l34 -104l2 -7l2 -1l-2 -3
l19 -92l8 -99v-91l-7 -80l-14 -65l-18 -49l-7 -11zM966 333v-22h-608v22h490l53 54zM530 922h264l32 27l59 -48l-27 -22v-456l-64 -33v54h-264v-37l-65 -33v580zM530 603v-137h264v137h-264zM530 752v-128h264v128h-264zM530 901v-128h264v128h-264z" />
  </g>

</svg>
