<?xml version="1.0" standalone="no"?>
<!DOCTYPE svg PUBLIC "-//W3C//DTD SVG 1.1//EN" "http://www.w3.org/Graphics/SVG/1.1/DTD/svg11.dtd" >
<svg xmlns="http://www.w3.org/2000/svg" xmlns:xlink="http://www.w3.org/1999/xlink" version="1.1" viewBox="0 -205 1024 1024">
  <g transform="matrix(1 0 0 -1 0 819)">
   <path fill="currentColor"
d="M758 882l-62 -142h164l30 40l58 -44q5 -6 8 -8q0 -7 -30 -26v-222l4 -66q0 -12 -18 -24q-15 -9 -36 -12v46h-112v-293q3 -48 -12 -70q-15 -18 -60 -30q-8 36 -34 48q-27 13 -80 28l4 20q54 -15 76 -18q21 -3 40 2q18 4 16 34v279h-112v-24q0 -11 -18 -22q-15 -12 -36 -12
l4 96v310l54 -32h60l30 140h-216v-252q-6 -197 -26 -286q-19 -89 -64 -172q-45 -82 -90 -125l-12 10q38 60 70 133q29 71 50 164q20 89 22 290v304l60 -38h402l34 42q53 -52 56 -58t0 -8q-3 -3 -26 -2h-198v0v0zM602 450h274v130h-274v-130v0v0zM602 606h274v108h-274v-108
v0v0zM654 292q10 -4 2 -14q-30 -1 -60 -34q-109 -122 -172 -173l-10 12q105 118 180 247l60 -38v0v0zM804 302l10 14q81 -52 118 -82q33 -29 48 -58q15 -26 4 -49q-12 -21 -30 -16q-18 4 -24 28q-6 20 -26 57q-22 33 -100 106v0v0zM152 790l-26 -78h88v262l78 -32
q9 -6 10 -8q1 -5 -6 -10l-34 -12v-200h58l30 48l56 -56q3 -5 4 -10q0 -9 -8 -8h-140v-212l134 66l12 -14l-146 -88v-272l4 -97q0 -12 -20 -24q-18 -12 -36 -12l4 135v244q-54 -34 -80 -52q-27 -18 -50 -54l-50 54l180 92v234h-98q-28 -89 -70 -172l-18 4q27 87 52 184
q21 96 34 168q75 -30 76 -38q1 -7 -4 -10q-4 -1 -16 -8q-12 -6 -18 -24v0v0z" />
  </g>

</svg>
