<?xml version="1.0" standalone="no"?>
<!DOCTYPE svg PUBLIC "-//W3C//DTD SVG 1.1//EN" "http://www.w3.org/Graphics/SVG/1.1/DTD/svg11.dtd" >
<svg xmlns="http://www.w3.org/2000/svg" xmlns:xlink="http://www.w3.org/1999/xlink" version="1.1" viewBox="0 -36 256 256">
  <g transform="matrix(1 0 0 -1 0 220)">
   <path fill="currentColor"
d="M179 99l-7 -6q0 -9 8 -25q25 12 43 33l12 -17l-9 -1q-11 -6 -44 -20q24 -32 65 -37v-4q-14 -3 -19 -12q-46 22 -58 61q-7 -51 -78 -63l-2 3q47 16 59 39t10 58zM128 94h5q1 -34 -7.5 -41.5t-16 -5t3 13.5t15.5 33zM156 141h31v69h-31v-69zM167 175q-3 10 -10 23l2 2
q10 -12 13 -16q7 16 7 24l9 -10q-4 -6 -11 -22q9 -13 9 -17t-2.5 -9t-4 1t-7.5 16q-6 -10 -16 -20l-1 3q8 13 12 25zM146 176.5q0 25.5 -1 48.5l11 -8h6q4 20 4 30l15 -8l-4 -4q-4 -7 -10 -18h19l6 8l11 -11l-6 -4v-57q0 -11 1 -21l-11 -4v6h-31v-5l-11 -5q1 27 1 52.5z
M106 123q1 14 1 28v52q0 13 -1 25l11 -7q9 7 16 18l11 -11q-6 -2 -26 -12v-31h7l8 10l10 -17h-25v-36h7l9 10l10 -17h-26v-8zM220 124v11h-7l-4 -2l-8 9h19v39h-6l-5 -2l-8 9h19v31h-6l-9 -1l-8 8h22l6 10l13 -10l-6 -4v-63q0 -15 1 -31zM221 113l12 10l15 -17h-118
q-11 0 -21 -2l-10 9h15h11h65h31zM30 62.5q-1 16.5 -9 38.5l2 2q28 -30 18 -43.5t-11 3zM83 165l12 -17h-33v-27h13l11 9l14 -16h-38v-51q13 19 22 42l15 -13l-6 -2q-16 -19 -31 -34v-10l38 9l1 -4q-58 -20 -79 -31l-10 17q19 2 38 8v69q-19 1 -29 -3l-9 10h38v27h-3
q-8 0 -17 -2l-6 9h47zM10 141l-3 2q30 53 46 104l16 -12l-6 -4l-5 -13q25 -11 31.5 -16.5t2.5 -16.5t-10.5 0.5t-25.5 29.5q-10 -23 -23 -44t-23 -30z" />
  </g>

</svg>
