<?xml version="1.0" standalone="no"?>
<!DOCTYPE svg PUBLIC "-//W3C//DTD SVG 1.1//EN" "http://www.w3.org/Graphics/SVG/1.1/DTD/svg11.dtd" >
<svg xmlns="http://www.w3.org/2000/svg" xmlns:xlink="http://www.w3.org/1999/xlink" version="1.1" viewBox="0 -205 1024 1024">
  <g transform="matrix(1 0 0 -1 0 819)">
   <path fill="currentColor"
d="M44 590h186v182l70 -26q9 -3 10 -6q1 -10 -6 -14l-24 -10v-126h84l34 42l58 -50q3 -3 4 -6q0 -12 -8 -12h-172v-54q62 -24 92 -44q26 -21 38 -42q9 -22 0 -40q-9 -19 -26 -16q-15 -1 -24 20q-6 18 -24 46q-16 27 -56 54v-343l4 -84q0 -11 -20 -26q-19 -12 -38 -12l4 118
v295q-48 -85 -92 -142q-44 -58 -100 -106l-12 10q57 72 90 126q33 51 60 108t52 132h-104q-19 0 -62 -8l-18 34v0v0zM500 338l56 -16h254l28 28l50 -34q12 -6 12 -14q-1 -3 -28 -24v-135l4 -66q0 -13 -18 -24q-15 -11 -36 -14v62h-272v-32q0 -11 -18 -26q-16 -12 -38 -12
l4 94v211l2 2v0v0zM550 125h272v173h-272v-173v0v0zM650 734q7 -4 6 -8q0 -7 -12 -10q-21 -1 -36 -26l-20 -32h216l30 36l60 -42q7 -6 8 -12q0 -7 -12 -10q-27 -6 -56 -48q-52 -69 -110 -116q52 -38 116 -58q63 -18 156 -20v-16q-32 -3 -52 -14q-20 -9 -28 -30
q-120 33 -218 114q-66 -48 -144 -80q-75 -30 -162 -50l-4 14q122 45 238 114l42 28q-63 63 -108 144q-54 -81 -126 -146l-12 10q87 108 160 288l68 -30v0v0zM578 634q21 -51 114 -144q73 63 116 144h-230v0v0zM282 964q10 -9 0 -18q-21 -4 -30 -10l-14 -14l-20 -30h204
l40 44l62 -54q9 -16 -8 -16h-200q41 -27 58 -42q14 -15 20 -30q5 -16 -4 -32q-8 -15 -28 -12q-19 0 -22 24q-3 21 -12 40q-10 18 -40 52h-84q-68 -99 -130 -162l-14 12q51 75 88 142t62 140l72 -34v0v0zM692 960q10 -9 0 -18q-23 -5 -28 -10q-5 -4 -10 -10q-3 -6 -24 -30
h234l40 46l62 -56q9 -16 -8 -16h-234q39 -27 58 -42q19 -14 26 -34q7 -19 -4 -34q-12 -16 -30 -10q-19 6 -22 30q-4 24 -16 42q-13 18 -40 48h-78q-52 -78 -104 -138l-18 10q49 79 74 134q24 53 42 118l80 -30v0v0z" />
  </g>

</svg>
