<?xml version="1.0" standalone="no"?>
<!DOCTYPE svg PUBLIC "-//W3C//DTD SVG 1.1//EN" "http://www.w3.org/Graphics/SVG/1.1/DTD/svg11.dtd" >
<svg xmlns="http://www.w3.org/2000/svg" xmlns:xlink="http://www.w3.org/1999/xlink" version="1.1" viewBox="0 -154 1024 1024">
  <g transform="matrix(1 0 0 -1 0 870)">
   <path fill="currentColor"
d="M277 118q-132 -37 -164 -51q-31 -12 -39 -27l-47 47l101 23v527q1 25 -17 49l15 9l31 -34h194l29 35l44 -42q12 -14 -3 -18l-15 -8v-456l76 17l3 -16zM658 961l50 -39q14 -12 0 -14q-21 5 -43 -7q-20 -10 -70 -34v-177h52l24 34l58 -42q15 -12 -6 -12h-128v-187h289v188
h-60q-27 0 -45 -13l-34 33h139v188h-73q-18 1 -38 -14l-35 34h130l33 33l45 -41q14 -13 -4 -16l-20 -8v-364l4 -55q-1 -18 -13 -24q-12 -7 -29 -7v46h-68v-342q0 -26 14 -30t51 -4q36 0 59 4q21 4 26 36l6 109h13l2 -57q-1 -70 23 -73q-10 -25 -24 -34q-15 -9 -43 -11
q-29 -1 -119 -1q-45 9 -46 63v340h-72q0 -82 -15 -160q-18 -84 -70 -157q-53 -72 -185 -135l-6 10q97 62 148 125q50 62 69 137q17 70 21 180h-73v-11q0 -21 -10 -30q-9 -9 -35 -14q4 36 7 132v339q-3 18 -15 39l9 8l37 -38l37 25q22 15 28 25q6 9 -3 17zM166 300v-182
l201 45v137h-201zM166 472v-157h201v157h-201zM367 641h-201v-153h201v153zM433 712l-11 6l39 84h-368v-24q-3 -42 -13 -65q-12 -22 -24 -31q-18 -6 -25 10q-7 14 6 29q12 18 23 39q10 21 19 88h15q0 -14 -1 -27h348l34 32l54 -54q2 -11 -9 -6q-9 -1 -18 -7q-9 -7 -21 -19
q-13 -10 -48 -55zM197 980l5 8q33 -16 59 -40q24 -23 33 -48q7 -28 4 -40q-8 -15 -26 -14q-14 1 -14 27q-5 24 -17 49q-12 24 -44 58z" />
  </g>

</svg>
