<?xml version="1.0" standalone="no"?>
<!DOCTYPE svg PUBLIC "-//W3C//DTD SVG 1.1//EN" "http://www.w3.org/Graphics/SVG/1.1/DTD/svg11.dtd" >
<svg xmlns="http://www.w3.org/2000/svg" xmlns:xlink="http://www.w3.org/1999/xlink" version="1.1" viewBox="0 -36 256 256">
  <g transform="matrix(1 0 0 -1 0 220)">
   <path fill="currentColor"
d="M34 234q27 -14 30.5 -22t-3 -18t-10.5 5.5t-19 31.5zM48 151l8 11l16 -14l-9 -6v-85q15 -17 32 -22.5t62.5 -6.5t89.5 4v-4q-17 -4 -18 -16q-81 0 -107 4.5t-39.5 13.5t-20.5 17t-18.5 -3.5t-19.5 -24.5l-15 13q13 11 40 25v87h-10q-11 0 -20 -2l-10 9h39zM150 247l21 -8
l-6 -5v-8h33l12 9l16 -16h-61v-14h49l12 9l16 -16h-130q-11 -1 -21 -3l-10 10h70v14h-27q-12 -1 -22 -3l-10 10h59q0 8 -1 21zM127 199l12 -10l-10 -2q-21 -10 -50 -18l-1 3q27 11 46 28zM221.5 175q-9.5 9 -39.5 21l2 3q25 -4 38 -8.5t11 -14.5t-11.5 -1zM102 144h29v20
h-29v-20zM143 144h31v20h-31v-20zM186 144h29v20h-29v-20zM90 155.5q0 6.5 -1 21.5l12 -6h114l8 9l12 -12l-7 -5q0 -14 1 -26l-14 -4v4h-113v-3l-13 -4q1 19 1 25.5zM101 70v33.5t-1 30.5l15 -7h88l8 8l12 -12l-6 -5v-34q0 -7 1 -18l-14 -5v4h-90v-2l-14 -3zM114 108h90v12
h-90v-12zM114 91h90v10h-90v-10zM114 72h90v12h-90v-12zM145 54l-9 -4q-17 -11 -42 -21l-1 3q22 12 40 35zM206 35.5q-9 12.5 -35 27.5l2 3q22 -6 36 -12t10 -18.5t-13 0z" />
  </g>

</svg>
