<?xml version="1.0" standalone="no"?>
<!DOCTYPE svg PUBLIC "-//W3C//DTD SVG 1.1//EN" "http://www.w3.org/Graphics/SVG/1.1/DTD/svg11.dtd" >
<svg xmlns="http://www.w3.org/2000/svg" xmlns:xlink="http://www.w3.org/1999/xlink" version="1.1" viewBox="0 -150 1000 1000">
  <g transform="matrix(1 0 0 -1 0 850)">
   <path fill="currentColor"
d="M142 833l7 10q100 -38 104 -101q0 -29 -19.5 -31.5t-24.5 25.5q-5 49 -67 97zM457 871l67 -39q17 -11 7 -15q-20 0 -38 -12q-39 -50 -76 -99l-19 5q51 90 57 112q10 24 -6 41zM311 411h-133v-134h133v134zM311 261h-133v-136h133v136zM350 277h135v134h-135v-134z
M485 261h-135v-136h135v136zM654 969l87 -35q12 -5 5 -11q-20 -8 -29 -21v-262q87 -38 149 -80q72 -47 94 -86q23 -45 -13 -53q-15 1 -35 32q-18 31 -67 77q-48 44 -128 89v-455l2 -95q1 -33 -52 -45q5 38 7 185v703q2 17 -29 45zM476 973l63 -48q9 -9 9 -14t-9 -6
q-31 2 -78 -4q-33 -6 -89 -15q-11 -2 -16 -3v-184h115l24 34l65 -41q10 -6 7.5 -9t-18.5 -4h-193v-32q99 -26 145 -50q105 -64 79 -108q-16 -18 -43 17q-31 38 -64.5 63.5t-116.5 59.5v-101l2 -36q3 -34 -51 -43q4 34 6 125v105h-12q-32 -62 -55 -94q-56 -83 -212 -156
l-9 13q92 54 167 136q37 38 59 101h-104q-26 1 -44 -13l-33 33h243v177q-15 -3 -42 -5h-5q-58 -5 -172 -9l-1 18q104 10 216.5 29t136.5 30q26 11 21 31zM133 465l32 -34h302l36 38l49 -46q7 -6 5.5 -10.5t-11.5 -6.5l-18 -9v-155l5 -134q3 -26 -48 -35v32h-307v-38
q3 -35 -50 -43q5 37 7 133v256q-3 24 -17 41z" />
  </g>

</svg>
