<?xml version="1.0" standalone="no"?>
<!DOCTYPE svg PUBLIC "-//W3C//DTD SVG 1.1//EN" "http://www.w3.org/Graphics/SVG/1.1/DTD/svg11.dtd" >
<svg xmlns="http://www.w3.org/2000/svg" xmlns:xlink="http://www.w3.org/1999/xlink" version="1.1" viewBox="0 -52 256 256">
  <g transform="matrix(1 0 0 -1 0 204)">
   <path fill="currentColor"
d="M233 119v-27q1 -43 -9 -58q-6 -9 -13 -12q-6 -3 -27 -7q18 3 -3 -1q1 7 -5 10q-7 4 -15 6q-6 3 -18 6v4q33 -7 50 -8q20 1 25 14q3 9 4 44v33h-94l-7 -10l-13 11q4 2 8 9l6 62q-1 6 -6 11l2 3l20 -9q3 -1 2 -3q-4 -1 -8 -4l-6 -65h58l10 98h-82q-6 0 -9 -3l-8 8h96l9 11
l13 -12q2 -1 2 -2t-2 -1q-4 -1 -8 -5l-10 -94h23l8 10l14 -12q2 -2 2 -3t-2 -1zM86 88h90l8 10l17 -13q4 -2 -2 -2h-94q-6 0 -11 -4zM45 248l2 3l23 -10q2 -1 3 -2l-1 -1q-5 -1 -8 -4v-45h14l7 12l18 -13q3 -2 2 -3q0 -1 -5 -1h-36v-55l33 19l2 -3l-31 -21l-2 -1l-2 -2v-86
q0 -9 -5 -14q-3 -5 -16 -8q-1 7 -9 10l-18 6v4l12 -2q14 -3 18 -1q6 1 6 11v73q-8 -6 -19 -13l-6 -5q-3 -3 -8 -11l-13 12l46 26v61h-27q-6 0 -11 -3l-9 8h47v48q0 5 -7 11z" />
  </g>

</svg>
