<?xml version="1.0" standalone="no"?>
<!DOCTYPE svg PUBLIC "-//W3C//DTD SVG 1.1//EN" "http://www.w3.org/Graphics/SVG/1.1/DTD/svg11.dtd" >
<svg xmlns="http://www.w3.org/2000/svg" xmlns:xlink="http://www.w3.org/1999/xlink" version="1.1" viewBox="0 -143 1024 1024">
  <g transform="matrix(1 0 0 -1 0 881)">
   <path fill="currentColor"
d="M131 920h243l28 37l60 -45q8 -11 -2 -19h-170v-121h72l28 33l58 -45q6 -14 -3 -14h-155v-112h67l26 36l58 -46q5 -12 -6 -16h-145v-120h103l23 32l57 -38q16 -12 0 -20l-20 -14v-210q-6 -72 -22.5 -107.5t-37 -52t-62.5 -38.5q-6 30 -27 46t-99 36l4 20q50 -10 79 -15
t51 -4t40.5 24.5t23.5 100.5v212h-274v-13q-1 -13 -18 -26t-36 -13l4 136v407zM129 488h111v120h-111v-120zM129 634h111v112h-111v-112zM240 772v121h-111v-121h111zM93 352h18q4 -84 -3 -119t-22.5 -51t-32 -15.5t-21.5 16t11 30.5t30 37t20 102zM141 362l12 8
q44 -52 54 -81t7 -48t-14 -27t-24 -1t-12 26t-1 48t-22 75zM215 378l12 8q48 -48 61.5 -77t11.5 -45t-11.5 -23.5t-21.5 -3t-14.5 23.5t-9 47t-28.5 70zM291 408l10 10q46 -34 66 -61t19 -47.5t-12.5 -28t-24 -0.5t-13.5 25t-10.5 43t-34.5 59zM943 910l53 -51q4 -3 4 -10
t-3 -7h-157v-436q-4 -39 18 -50h44q26 4 44 20q20 -14 36 -34q-18 -22 -60 -28h-49q-47 -1 -64.5 16.5t-17.5 60.5v451h-67v-126q2 -140 -5 -224t-33 -154t-72 -116l-8 10q30 56 45 110t19.5 140.5t3.5 221.5v138h-88v-626q0 -34 1 -47t23 -13h380q12 -8 10.5 -26t-9.5 -20
h-399q-34 2 -46.5 21.5t-9.5 52.5v656h-8q-28 0 -44 -8l-18 36h446z" />
  </g>

</svg>
