<?xml version="1.0" standalone="no"?>
<!DOCTYPE svg PUBLIC "-//W3C//DTD SVG 1.1//EN" "http://www.w3.org/Graphics/SVG/1.1/DTD/svg11.dtd" >
<svg xmlns="http://www.w3.org/2000/svg" xmlns:xlink="http://www.w3.org/1999/xlink" version="1.1" viewBox="0 -205 1024 1024">
  <g transform="matrix(1 0 0 -1 0 819)">
   <path fill="currentColor"
d="M348 932h520l36 44l64 -52q3 -3 4 -6q0 -12 -12 -12h-194v-130h86l28 40l58 -38q6 -6 6 -8q1 -6 -22 -26v-118l4 -64q-1 -10 -22 -22q-19 -10 -34 -10v38h-416v-16q0 -11 -20 -22q-18 -10 -36 -10l4 94v198l48 -36h114v130h-132q-21 0 -68 -8l-16 34v0v0zM454 594h110
v156h-110v-156v0v0zM612 594h104v156h-104v-156v0v0zM766 594h104v156h-104v-156v0v0zM716 776v130h-104v-130h104v0v0zM654 524q9 -6 4 -14q-2 0 -16 -6q-11 -3 -16 -6q-3 -3 -48 -72h318l36 42l60 -50q12 -15 -8 -18h-140q-42 -97 -122 -184q78 -28 124 -52q45 -21 60 -45
q16 -21 12 -40q-3 -18 -20 -22q-18 -4 -38 18q-21 25 -56 52q-36 25 -108 63q-67 -65 -170 -105q-101 -38 -220 -52l-2 18q123 24 210 66q88 39 140 91q-124 44 -200 70q33 64 60 122h-98q-21 0 -68 -8l-16 34h194q35 71 56 128l72 -30v0v0zM498 286q80 -22 178 -52
q68 74 112 166h-224l-66 -114v0v0zM20 662h154v304l86 -36q8 -4 8 -8q3 -1 -2 -10l-38 -16v-234h70l34 42l48 -48q4 -3 8 -14q2 -7 -10 -8h-150v-322l152 58l8 -18q-183 -87 -240 -114q-58 -28 -82 -64l-48 64l156 58v338h-70q-21 0 -68 -8l-16 36v0v0z" />
  </g>

</svg>
