<?xml version="1.0" standalone="no"?>
<!DOCTYPE svg PUBLIC "-//W3C//DTD SVG 1.1//EN" "http://www.w3.org/Graphics/SVG/1.1/DTD/svg11.dtd" >
<svg xmlns="http://www.w3.org/2000/svg" xmlns:xlink="http://www.w3.org/1999/xlink" version="1.1" viewBox="0 -36 256 256">
  <g transform="matrix(1 0 0 -1 0 220)">
   <path fill="currentColor"
d="M86 199l14 -12l-8 -7q-13 -22 -23 -39v-23l5 -2q13 13 22 33l16 -13q-11 -3 -33 -22q16 -5 22 -12.5t2 -15.5t-9.5 1.5t-24.5 26.5v-100l-14 -7v117q-20 -27 -44 -45l-2 3q41 46 68 101h-33q-10 -1 -20 -3l-9 10h63zM137 38h75v73h-75v-73zM226 35l1 -14l-15 -6v16h-75
v-13l-15 -8q1 29 1 62.5t-1 54.5l15 -9h29v57h-28q-11 0 -20 -2l-9 9h57q0 34 -1 63l22 -10l-6 -6v-47h36l13 12l17 -19h-66v-57h30l8 11l16 -13l-9 -8v-73zM50 217v14l-1 15l22 -10l-7 -7v-41h-14v29z" />
  </g>

</svg>
