<?xml version="1.0" standalone="no"?>
<!DOCTYPE svg PUBLIC "-//W3C//DTD SVG 1.1//EN" "http://www.w3.org/Graphics/SVG/1.1/DTD/svg11.dtd" >
<svg xmlns="http://www.w3.org/2000/svg" xmlns:xlink="http://www.w3.org/1999/xlink" version="1.1" viewBox="0 -205 1024 1024">
  <g transform="matrix(1 0 0 -1 0 819)">
   <path fill="currentColor"
d="M550 750q12 -7 0 -14q-15 -5 -18 -10q-3 -3 -18 -32h294l36 40l58 -46q3 -3 4 -2q7 -18 -4 -18h-398q-14 -41 -34 -82h280l32 38l62 -48q6 -10 -6 -16h-378q-21 -42 -44 -78h434l36 40l66 -56q0 1 0 -4q1 -8 -10 -6h-290q47 -47 98 -82q50 -33 104 -56q52 -22 134 -28
v-18q-45 -1 -62 -10q-17 -7 -28 -32q-42 20 -72 38q-31 18 -80 54v-189l4 -68q-3 -15 -24 -24q-19 -9 -32 -10v42h-368v-6q2 -23 -16 -34q-15 -11 -36 -14l2 84v235q-36 -30 -102 -66q-64 -36 -142 -66l-8 14q89 47 170 104q78 54 148 132h-204q-20 0 -70 -8l-18 34h308
q27 39 48 78h-168q-22 1 -70 -10l-18 36h266q17 39 32 82h-262q-20 1 -70 -10l-18 36h360q8 23 20 80l72 -24v0v0zM326 99h368v99h-368v-99v0v0zM326 224h368v104h-368v-104v0v0zM300 354h416q-34 27 -94 102h-220q-54 -66 -102 -102v0v0zM310 950q10 -9 0 -18
q-21 -4 -30 -10l-14 -14l-20 -30h204l40 44l62 -54q9 -16 -8 -16h-212q41 -27 58 -42q14 -15 20 -30q5 -16 -4 -32q-8 -16 -28 -14q-19 2 -22 26q-3 21 -12 40q-10 18 -40 52h-72q-66 -87 -126 -144l-14 12q49 62 86 128q36 63 60 136l72 -34v0v0zM698 948q10 -9 0 -18
q-23 -5 -28 -10q-5 -3 -10 -8q-4 -5 -22 -34h234l40 46l62 -56q9 -16 -8 -16h-234q38 -27 56 -42t24 -36q7 -19 -4 -34q-12 -16 -30 -10q-19 6 -22 30q-4 24 -14 42q-10 19 -38 50h-80q-45 -57 -84 -92l-14 10q32 51 56 96q20 44 38 110l78 -28v0v0z" />
  </g>

</svg>
