<?xml version="1.0" standalone="no"?>
<!DOCTYPE svg PUBLIC "-//W3C//DTD SVG 1.1//EN" "http://www.w3.org/Graphics/SVG/1.1/DTD/svg11.dtd" >
<svg xmlns="http://www.w3.org/2000/svg" xmlns:xlink="http://www.w3.org/1999/xlink" version="1.1" viewBox="0 -205 1048 1024">
  <g transform="matrix(1 0 0 -1 0 819)">
   <path fill="currentColor"
d="M734 957l11 11q12 13 15 13t16 -12l24 -22q14 -13 14 -19q0 -4 -27 -17v-276q0 -34 -1 -36q-2 -5 -20 -15q-13 -4 -17 -4q-7 0 -7 7q0 -2 0 26h-398q0 -20 -1.5 -23.5t-21.5 -15.5q-10 -4 -14 -4q-6 0 -7 14v54v303l-3 42l49 -26h388zM344 937v-90h398v90h-398zM344 825
v-88h398v88h-398zM344 717v-82h398v82h-398zM984 313l-5 -18h-262v-103q0 -17 1.5 -35t1.5 -22q0 -17 -24 -25q-15 -5 -19 -5q-7 0 -7 15q0 3 1.5 27.5t1.5 46.5v101h-257q-21 -150 -272 -201l-6 10q217 61 228 191h-284v21h289q9 74 9 104h-241v20h241q0 56 -4 102l61 -5
q26 -2 26 -12q0 -12 -26 -27q-1 -9 -4 -58h240v100l49 -5q28 -7 28 -18q0 -5 -33 -31v-46h110l26 37q13 13 15 13q4 0 19 -14l44 -41l-5 -15h-209v-104h168l26 32q13 15 16 15q4 0 18 -13zM673 316v104h-241q-2 -57 -14 -104h255z" />
  </g>

</svg>
