<?xml version="1.0" standalone="no"?>
<!DOCTYPE svg PUBLIC "-//W3C//DTD SVG 1.1//EN" "http://www.w3.org/Graphics/SVG/1.1/DTD/svg11.dtd" >
<svg xmlns="http://www.w3.org/2000/svg" xmlns:xlink="http://www.w3.org/1999/xlink" version="1.1" viewBox="0 -36 256 256">
  <g transform="matrix(1 0 0 -1 0 220)">
   <path fill="currentColor"
d="M18 208l-1 4q19 5 38.5 13.5t28.5 17.5l13 -19q-8 0 -29 -6v-49h12l10 12l14 -19h-36v-24q19 -9 23.5 -17.5t0 -18t-9.5 4.5t-14 25q0 -99 1 -116l-15 -9q1 43 1 123q-18 -42 -44 -74l-3 4q31 54 43 102h-15q-10 0 -19 -3l-9 10h47v45q-9 -2 -37 -6zM150 123l9 9l12 -14
l-8 -5q-8 -68 -14.5 -81.5t-15.5 -18.5q-2 14 -17 21l1 5q12 -4 15 -4.5t6.5 7t12.5 74.5h-24q-3 -30 -12.5 -58t-34.5 -48l-2 3q12 14 21.5 36.5t14.5 66.5h-4q-2 0 -8 -3l-6 10h54zM226 123l9 9l12 -14l-8 -5q-3 -72 -11 -85t-17 -15q-1 14 -18 19l1 4q14 -3 18 -2.5
t7.5 7.5t7.5 75h-24q-2 -30 -11.5 -57t-39.5 -52l-3 4q22 22 30.5 48t10.5 57h-3q-4 0 -10 -3l-6 10h55zM211 229l10 11l14 -15l-9 -4q-8 -55 -13.5 -68.5t-24.5 -18.5q-2 11 -27 18l1 3q17 -2 25.5 -2.5t12.5 7t13 62.5h-43q-3 -28 -19 -51t-50 -39l-3 3q26 15 41 38.5
t17 48.5h-9q-10 0 -19 -2l-9 9h92z" />
  </g>

</svg>
