<?xml version="1.0" standalone="no"?>
<!DOCTYPE svg PUBLIC "-//W3C//DTD SVG 1.1//EN" "http://www.w3.org/Graphics/SVG/1.1/DTD/svg11.dtd" >
<svg xmlns="http://www.w3.org/2000/svg" xmlns:xlink="http://www.w3.org/1999/xlink" version="1.1" viewBox="0 -36 256 256">
  <g transform="matrix(1 0 0 -1 0 220)">
   <path fill="currentColor"
d="M146 218l17 -11l-5 -7q0 -26 1 -39l-12 -7v8h-45l-5 -8l-11 14l6 5q0 34 -1 45l19 -11l-6 -5v-33h15q0 64 -1 78l20 -11l-7 -9v-58h16q0 37 -1 49zM102 133q-5 -1 -11 -3l-7 10h54l12 11l12 -18h-38h-22zM187 181l-2 -8q5 -50 18 -89q10 36 14 97h-30zM205 232l-6 -7
q-6 -24 -9 -37h33l11 11l13 -19h-17q-6 -78 -20 -110q17 -37 37 -48v-3q-14 -1 -19 -9q-14 21 -25 48q-19 -30 -58 -52l-2 4q29 20 53 61q-10 32 -15 92q-8 -17 -17 -35l-4 1q15 41 19.5 67t6.5 47zM86 84l1 -5q-69 -37 -69 -45l-11 20q22 7 32 12v69h-3q-9 0 -18 -3l-6 10
h27v67h-8q-7 0 -15 -3l-7 10h47l13 10l15 -17h-31v-67h7l10 10l14 -17h-31v-65zM95 53.5q6 16.5 6 67.5l17 -12l-5 -4q0 -33 -7.5 -52t-30.5 -38l-3 3q17 19 23 35.5zM131 118l17 -10l-4 -6v-44l22 23l3 -1q-26 -36 -29 -49l-12 13q4 5 4 12v42z" />
  </g>

</svg>
