<?xml version="1.0" standalone="no"?>
<!DOCTYPE svg PUBLIC "-//W3C//DTD SVG 1.1//EN" "http://www.w3.org/Graphics/SVG/1.1/DTD/svg11.dtd" >
<svg xmlns="http://www.w3.org/2000/svg" xmlns:xlink="http://www.w3.org/1999/xlink" version="1.1" viewBox="0 -200 1000 1000">
  <g transform="matrix(1 0 0 -1 0 800)">
   <path fill="currentColor"
d="M629 799q-8 -33 -23 -34q-14 -1 -24 30q-6 25 -17 48q-20 41 -60 83l9 7q58 -35 90 -74q29 -35 25 -60zM928 372q12 -9 8 -14q-5 -5 -21 -5h-407q-22 0 -38 -1q-10 -1 -24 -3l-5 -1l-12 32l63 -2h154v165h-90h-41q-12 -1 -25 -2l-12 28l63 -2h105v158h-109h-40l-24 -2
l-13 31q11 0 29 -1q17 -1 33 -1h163l69 179l51 -25q30 -18 23 -22q-4 -3 -38 -2h-4l-80 -130h101l43 43l56 -41q13 -8 8 -23q-5 -6 -19 -6h-196q20 -8 15 -14q-4 -6 -20 -7v-137h91l42 38l58 -40q12 -9 8 -14q-4 -8 -19 -8h-180v-165h136l41 36zM931 123q-8 -31 -20 -37
q-15 -9 -27 25q-10 32 -30 70q-26 45 -64 93l6 10q60 -45 96 -83q43 -48 39 -78zM786 125q-9 -22 -21 -23q-14 -1 -21 26q-4 22 -15 48q-18 43 -53 95l7 6q63 -46 86 -79q24 -34 17 -73zM653 130q-10 -30 -26 -32t-22 25l-1 6q0 23 -5 44q-10 39 -37 99l9 6q45 -41 68 -82
q19 -38 14 -66zM520 272q-4 -59 -31 -114q-26 -54 -59 -76q-15 -11 -24 4q-10 16 0 51q2 8 8 12q3 3 13 9q24 12 38 28q24 29 42 87zM415 676q27 -16 13 -24q-9 -4 -33 -6v-235l1 -12q1 -20 -1 -26q-3 -10 -20 -15q-17 -4 -21 0q-4 3 -5 10v8h-175v-3q1 -6 -3 -12
q-4 -10 -22 -17q-17 -3 -20 2q-4 2 -2 15l1 9v279l-5 50l49 -20h74l62 145h-99q-34 -53 -63 -89q-32 -37 -80 -84l-8 5q51 62 100 156q41 79 65 144l43 -13q43 -10 33 -19q-9 -7 -38 -9q-12 -22 -25 -43q-12 -21 -15 -27h85l35 26l40 -28q31 -23 23 -30q-6 -5 -36 -5h-5
l-94 -129h74l32 22zM432 215q-3 -19 -18 -30q-14 -10 -19 15q-5 23 -26 55q-22 36 -53 71l6 7q57 -36 82 -60q30 -31 28 -58zM330 170q-8 -17 -20 -17q-13 -1 -13 28q-5 27 -15 52q-12 32 -38 71l8 7q55 -45 72 -76q19 -32 6 -65zM237 125q-12 -16 -25 -13q-14 4 -13 25
q4 28 -6 70q-12 43 -31 82l8 3q36 -29 60 -79q25 -56 7 -88zM124 289q13 -62 4 -119q-9 -55 -35 -86q-12 -14 -29 1q-18 16 -9 42q2 9 7 19q3 5 11 17q17 24 24 43q13 33 15 81zM350 654h-50q6 -7 1 -12q-4 -5 -16 -6v-92h65v110zM244 654h-72v-110h72v110zM350 518h-65
v-117h65v117zM244 518h-72v-117h72v117z" />
  </g>

</svg>
