<?xml version="1.0" standalone="no"?>
<!DOCTYPE svg PUBLIC "-//W3C//DTD SVG 1.1//EN" "http://www.w3.org/Graphics/SVG/1.1/DTD/svg11.dtd" >
<svg xmlns="http://www.w3.org/2000/svg" xmlns:xlink="http://www.w3.org/1999/xlink" version="1.1" viewBox="0 -52 256 256">
  <g transform="matrix(1 0 0 -1 0 204)">
   <path fill="currentColor"
d="M95 208v-174q0 -5 -3 -11q-3 -5 -17 -7q-1 8 -12 11q-4 1 -12 2q-5 2 -8 2v4q6 -1 15 -2q14 -3 18 -3q6 0 7 2q2 2 2 16v84h-39q1 -90 -33 -119l-3 2q27 37 26 117h-10q-7 0 -11 -3l-9 8h30v75q-1 6 -7 11l3 2l11 -10h8l7 14q6 12 6 15l-1 2t-2 3l3 1l14 -7q4 -3 2 -4
q-4 0 -7 -1q-2 -4 -7 -11q-5 -8 -8 -12h23l8 10l11 -9q2 -2 2 -3l-2 -2zM122 245l23 -10l2 -1q0 -1 -2 -2q-5 -1 -7 -6v-12q0 -13 1 -27q12 -122 48 -143v-4q-11 2 -14 -3q-30 34 -37 113q-1 -104 -43 -140l-3 3q23 30 29 70q8 41 8 130v21q-1 4 -7 7zM46 164q2 -13 0 -27
h39v73h-39v-46zM252 148q1 -2 0 -2q0 -1 -2 -1q-8 1 -15 -8l-12 -16l-4 1l13 26h-19v-114q0 -9 -4 -14q-4 -4 -18 -8q0 7 -6 10q-1 0 -5 1q-9 4 -17 5l1 4l10 -2q31 -8 28 10v108h-29q-4 2 -10 -3l-8 8h77l7 7zM182 199l1 3q12 -5 20 -13l26 38h-54q-7 0 -9 -3l-8 8h71l5 7
l14 -14q1 -2 -2 -3q-3 1 -9 -4q-5 -6 -18 -19q-8 -9 -12 -13q6 -7 6 -15t-6 -8q-4 -1 -5 5q-2 18 -20 31zM51 190l2 2q24 -13 22 -31q-1 -7 -6 -8q-5 1 -5 7q1 8 -2 15q-2 6 -11 15zM51 109l2 3q23 -13 22 -31q-1 -8 -6 -8t-5 7q1 7 -2 14q-2 8 -11 15z" />
  </g>

</svg>
