<?xml version="1.0" standalone="no"?>
<!DOCTYPE svg PUBLIC "-//W3C//DTD SVG 1.1//EN" "http://www.w3.org/Graphics/SVG/1.1/DTD/svg11.dtd" >
<svg xmlns="http://www.w3.org/2000/svg" xmlns:xlink="http://www.w3.org/1999/xlink" version="1.1" viewBox="0 -36 256 256">
  <g transform="matrix(1 0 0 -1 0 220)">
   <path fill="currentColor"
d="M34 66l30 11v34h-30v-45zM77 15l-13 -7v61q-40 -18 -48 -28l-7 16q6 2 13 5v147l-7 -2l-8 10h61l10 11l15 -18h-17v-130q0 -47 1 -65zM34 169h30v41h-30v-41zM34 162v-44h30v44h-30zM207 84q11 38 14 90h-27q4 -60 13 -90zM214 231q-5 -4 -8.5 -17.5t-9.5 -32.5h27l9 10
l14 -17h-13q-3 -58 -20 -105q13 -31 35 -47v-2q-11 -1 -16 -9q-15 19 -26 45q-19 -29 -48 -47l-2 4q30 26 45 56q-12 49 -12 96q-3 -7 -9 -19l-3 2q7 21 11.5 41t7.5 51zM117 223q-7 -5 -16 -19.5t-20 -28.5l-3 2q20 39 24 58zM105 16l-13 -6q1 12 1 107q-4 -7 -13 -17l-3 2
q26 51 29 71l16 -12q-6 -5 -9.5 -11.5t-7.5 -15.5v-118zM137 224l-6 -6v-41h13q0 50 -1 66l20 -7l-8 -6v-53h13q0 43 -1 51l18 -8l-6 -6q0 -38 1 -47l-12 -3v6h-38l-6 -5l-10 10l6 4q0 41 -1 53zM158 146l11 9l13 -16h-45q-9 0 -13 -2l-9 9h43zM120 28l-9 15q10 1 32 5v31
q-8 0 -19 -3l-9 10h28v27q-11 0 -21 -3l-8 10h49l10 9l13 -16h-31v-27h9l8 8l13 -15h-30v-29l29 5l1 -4q-57 -16 -65 -23z" />
  </g>

</svg>
