<?xml version="1.0" standalone="no"?>
<!DOCTYPE svg PUBLIC "-//W3C//DTD SVG 1.1//EN" "http://www.w3.org/Graphics/SVG/1.1/DTD/svg11.dtd" >
<svg xmlns="http://www.w3.org/2000/svg" xmlns:xlink="http://www.w3.org/1999/xlink" version="1.1" viewBox="0 -205 1024 1024">
  <g transform="matrix(1 0 0 -1 0 819)">
   <path fill="currentColor"
d="M50 826h126v156l76 -28q10 -7 0 -16l-28 -12v-100h180v154l74 -28q19 -6 8 -18l-34 -14v-94h64l34 42l52 -48q3 -3 4 -8q0 -12 -12 -12h-142v-370h44l34 44l54 -52q3 -4 4 -10q0 -7 -12 -8h-412v-259h302l38 39l44 -49q3 -2 4 -8q0 -7 -8 -8h-376l-30 -32l-54 46l30 21
v250h-26q-22 0 -46 -8l-16 34h150v370h-54q-20 0 -52 -8l-20 34v0v0zM224 430h180v114h-180v-114v0v0zM224 570h180v106h-180v-106v0v0zM224 702h180v98h-180v-98v0v0zM302 360q62 -24 64 -32q0 -10 -6 -10q-7 0 -22 -6q-13 -6 -52 -36q-37 -31 -98 -82l-10 14
q57 65 124 152v0v0zM400 348l10 12q66 -34 94 -52q26 -19 32 -40q4 -22 -4 -34q-10 -12 -28 -12q-17 0 -22 18q-3 18 -24 46q-22 28 -58 62v0v0zM708 790v198l76 -30q7 -2 8 -10q-3 0 -6 -6l-28 -16v-136h142l34 44l50 -52q3 -3 4 -6q3 -12 -8 -12h-222v-186h88l34 36
l58 -46q3 -1 4 -8q0 -4 -12 -10q-21 -9 -26 -36q-31 -94 -64 -160q-33 -65 -72 -118q47 -55 98 -86q48 -29 72 -37q24 -7 60 -14v-18q-37 3 -56 -6q-17 -7 -34 -26q-36 27 -78 66q-43 35 -86 89q-37 -42 -110 -93q-73 -50 -190 -88l-6 16q98 43 166 94q68 48 112 105
q-46 69 -70 136q-24 63 -44 178h-16l-22 -8l-22 34h166v186v26v0v0zM628 552q27 -113 48 -166q20 -52 64 -118q32 45 68 126q35 80 50 158h-230v0v0z" />
  </g>

</svg>
