<?xml version="1.0" standalone="no"?>
<!DOCTYPE svg PUBLIC "-//W3C//DTD SVG 1.1//EN" "http://www.w3.org/Graphics/SVG/1.1/DTD/svg11.dtd" >
<svg xmlns="http://www.w3.org/2000/svg" xmlns:xlink="http://www.w3.org/1999/xlink" version="1.1" viewBox="0 -36 256 256">
  <g transform="matrix(1 0 0 -1 0 220)">
   <path fill="currentColor"
d="M64.5 154.5q-1.5 15.5 -13.5 31.5l2 3q34 -23 23.5 -36.5t-12 2zM7 133h26v58q0 14 -1 26l15 -10h6q8 18 14 39l21 -11l-10 -3q-8 -13 -18 -25h30l7 10l14 -14l-8 -7v-142q2 -31 -22 -42q-2 14 -27 16v7q20 -3 28.5 -0.5t7.5 24.5v67h-44q0 -35 -7 -63t-26 -54l-3 3
q13 28 18 56.5t5 57.5h-7l-11 -3zM46 133h44v67h-44v-67zM77.5 91.5q3.5 -8.5 1.5 -14t-7.5 -6.5t-6 7t-3.5 15t-10 17l3 3q19 -13 22.5 -21.5zM127 190q0 18 -1 38l16 -7h68l7 11l15 -12l-6 -8q0 -35 1 -51l-15 -7v9h-71v-6l-15 -5q1 20 1 38zM141 170h71v44h-71v-44z
M231 10q-20 11 -34 29.5t-18 47.5h-2q-7 -30 -27.5 -50t-52.5 -29l-1 3q22 11 41 30.5t25 45.5h-27q-10 0 -19 -2l-9 9h56q2 14 2 34h-20q-10 0 -19 -2l-9 9h89l14 11l14 -18h-54q-1 -24 -2 -34h42l13 11l15 -18h-65q10 -29 29.5 -44.5t35.5 -17.5v-4q-13 -2 -17 -11z" />
  </g>

</svg>
