<?xml version="1.0" standalone="no"?>
<!DOCTYPE svg PUBLIC "-//W3C//DTD SVG 1.1//EN" "http://www.w3.org/Graphics/SVG/1.1/DTD/svg11.dtd" >
<svg xmlns="http://www.w3.org/2000/svg" xmlns:xlink="http://www.w3.org/1999/xlink" version="1.1" viewBox="0 -36 256 256">
  <g transform="matrix(1 0 0 -1 0 220)">
   <path fill="currentColor"
d="M124 191.5q8 -7.5 2 -18t-10.5 3t-15.5 28.5l3 3q13 -9 21 -16.5zM168 102h37l12 13l15 -20h-65q-12 -61 -80 -86l-1 6q56 29 67 80h-26q-10 0 -18 -2l-9 9h54q3 22 3 44h-4q-8 0 -15 -2l-7 7q-16 -22 -38 -36l-3 4q46 42 58 100h-17q-10 0 -19 -2l-8 9h45l6 8l14 -14
l-8 -5q-10 -37 -28 -62h47l9 10l15 -17h-33q-1 -18 -3 -44zM201 173q8 -11 19 -18.5t27 -12.5v-4q-17 0 -21 -9q-31 22 -43.5 54t-12.5 55h4q4 -19 10 -31q25 24 29 32l15 -17h-10q-15 -11 -32 -21q6 -14 11 -23q27 23 31 33l14 -18h-8q-8 -4 -33 -20zM165 79q39 -19 54 -33
t9.5 -27.5t-11 -2t-15.5 23t-38 35.5zM47 245l21 -10l-7 -8v-35h16l6 11l14 -13l-6 -7v-90q1 -21 -14 -27q-1 12 -12 15v4q5 -1 9.5 -0.5t3.5 11.5v89h-17v-139q0 -14 1 -30l-15 -8q1 24 1 44v133h-17v-111l-14 -7q1 33 1 70t-1 62l14 -7h17q0 29 -1 53z" />
  </g>

</svg>
