<?xml version="1.0" standalone="no"?>
<!DOCTYPE svg PUBLIC "-//W3C//DTD SVG 1.1//EN" "http://www.w3.org/Graphics/SVG/1.1/DTD/svg11.dtd" >
<svg xmlns="http://www.w3.org/2000/svg" xmlns:xlink="http://www.w3.org/1999/xlink" version="1.1" viewBox="0 -36 256 256">
  <g transform="matrix(1 0 0 -1 0 220)">
   <path fill="currentColor"
d="M60 210h37l7 9l13 -16l-9 -5q-15 -27 -36 -47.5t-62 -37.5l-1 4q27 15 48 33.5t39 52.5h-39q-6 -6 -8 -9q15 -8 19 -14t-0.5 -13.5t-8 3t-12.5 21.5q-16 -16 -33 -28l-3 3q13 11 28.5 33.5t22.5 45.5l18 -12l-6 -3q-7 -9 -14 -20zM68 114h39l7 9l13 -13l-7 -6
q-18 -36 -41.5 -57.5t-67.5 -36.5l-2 4q40 17 63 41.5t34 51.5h-42q-5 -4 -10 -9q21 -12 21.5 -19.5t-3 -13.5t-7.5 6t-14 24q-16 -14 -36 -26l-2 4q21 16 36.5 35.5t23.5 37.5l17 -12l-8 -4q-2 -3 -14 -16zM170 211q0 15 -11 31l1 2q20 -10 22 -17t-5 -16h30l12 11l15 -18
h-93q-10 0 -16 -2l-8 9h53zM164.5 173.5q2.5 -8.5 -4.5 -16.5t-9 6.5t-11 32.5l2 2q20 -16 22.5 -24.5zM217 188q-5 -2 -13.5 -15t-14.5 -24h30l13 12l16 -19h-113q-10 0 -19 -2l-9 9h77q11 32 14 51zM222 18l-15 -6v19h-62v-16l-14 -5q1 30 1 59t-1 59l13 -9h63l6 9l15 -13
l-7 -6v-59q0 -15 1 -32zM145 79h62v33h-62v-33zM145 38h62v34h-62v-34z" />
  </g>

</svg>
