<?xml version="1.0" standalone="no"?>
<!DOCTYPE svg PUBLIC "-//W3C//DTD SVG 1.1//EN" "http://www.w3.org/Graphics/SVG/1.1/DTD/svg11.dtd" >
<svg xmlns="http://www.w3.org/2000/svg" xmlns:xlink="http://www.w3.org/1999/xlink" version="1.1" viewBox="0 -36 256 256">
  <g transform="matrix(1 0 0 -1 0 220)">
   <path fill="currentColor"
d="M85 233q-9 -2 -19 -9t-26 -15q20 1 70 3q-3 7 -10 17l2 3q20 -12 24.5 -18.5t-1 -13.5t-8 -4t-4.5 11q-73 -8 -88 -12l-5 15q8 1 25.5 12.5t24.5 24.5zM167 239l-6 -7v-16q36 10 53 24l12 -16q-13 -1 -65 -13v-7q-1 -7 9 -7h46q11 1 10 19h4q0 -9 2 -13.5t9 -6.5
q-3 -11 -22 -11h-58q-14 3 -14 16v29q0 8 -1 15zM165 179l-5 -6v-14q37 11 51 24l12 -16q-13 -1 -63 -13v-11q1 -6 9 -5h50q11 0 10 19h4q1 -9 2.5 -15t9.5 -6q-7 -10 -26 -10h-54q-19 0 -19 13v25q0 10 -1 22zM96 133q7 0 7 4v11h-58v-25l-15 -4q1 12 1 37.5t-1 35.5l17 -4
h57l7 7l13 -11l-8 -5v-42q3 -15 -17 -20q-3 9 -23 15v3q13 -2 20 -2zM45 172h58v9h-58v-9zM45 155h58v10h-58v-10zM131 133l21 -7l-6 -7v-8h62l10 6l12 -13q-9 -1 -30 -17l-3 1l10 16h-61v-24h40l8 6l13 -13l-12 -5q-17 -14 -40 -28q30 -14 92 -16v-4q-16 -1 -19 -11
q-49 6 -86 25q-32 -18 -107 -24v4q66 10 94 27q-23 17 -36 32q-5 0 -14 -2l-7 9h60v24h-66q0 -15 -1.5 -30.5t-14.5 -33t-39 -31.5l-2 3q21 16 31 34.5t10.5 35t-1.5 35.5l16 -6h67q0 12 -1 22zM142 46q17 9 39 27h-81q17 -16 42 -27z" />
  </g>

</svg>
