<?xml version="1.0" standalone="no"?>
<!DOCTYPE svg PUBLIC "-//W3C//DTD SVG 1.1//EN" "http://www.w3.org/Graphics/SVG/1.1/DTD/svg11.dtd" >
<svg xmlns="http://www.w3.org/2000/svg" xmlns:xlink="http://www.w3.org/1999/xlink" version="1.1" viewBox="0 -36 256 256">
  <g transform="matrix(1 0 0 -1 0 220)">
   <path fill="currentColor"
d="M66 96v-65h117v65h-117zM199 53q0 -19 1 -37l-17 -6v14h-117v-13l-17 -5q1 19 1 39v40q0 13 -1 27l20 -9h112l8 10l18 -14l-8 -8v-38zM192 182l16 12l18 -19h-87q7 -15 28 -31t57 -23l9 38l4 -1q-3 -38 5 -57q-53 9 -81 29.5t-37 44.5h-71v-47l61 16l1 -4
q-68 -26 -74 -34l-11 16q9 6 8 13v65.5t-1 23.5l16 -8q90 12 131 29l14 -18q-13 -1 -22 -2t-44 -6q0 -14 5 -37h55zM53 210v-28h69q-4 20 -5 35q-32 -5 -64 -7z" />
  </g>

</svg>
