<?xml version="1.0" standalone="no"?>
<!DOCTYPE svg PUBLIC "-//W3C//DTD SVG 1.1//EN" "http://www.w3.org/Graphics/SVG/1.1/DTD/svg11.dtd" >
<svg xmlns="http://www.w3.org/2000/svg" xmlns:xlink="http://www.w3.org/1999/xlink" version="1.1" viewBox="0 -36 256 256">
  <g transform="matrix(1 0 0 -1 0 220)">
   <path fill="currentColor"
d="M88 102h90l7 8l14 -11l-6 -5v-10q0 -11 1 -19l-15 -5v8h-92v-6l-15 -4q1 12 1 27v22zM20 70l-2 3q29 18 39 36.5t13 56.5l16 -6h85l7 8l15 -13l-7 -4v-10q0 -13 1 -26l-15 -5v6h-96q-10 -27 -56 -46zM83 141h89v12h-87q0 -4 -2 -12zM79 123h93v11h-91q0 -3 -2 -11zM87 75
h92v20h-92v-20zM134 22h65v36l22 -10l-6 -6v-29l-16 -5v7h-141l-7 -8l-15 10l6 6v35l22 -9l-7 -7v-20h62v45l22 -8l-7 -6v-31zM158 199l1 8v8h-66v-6l1 -5l-17 -6l1 8v9h-38q-13 0 -22 -3l-10 10h70v14q0 5 -1 11l23 -7l-7 -5v-13h66v13q0 3 -1 11l23 -5l-7 -8v-11h42l14 12
l18 -19h-74v-5l1 -5zM115 188q29 -10 22.5 -21t-10.5 -2t-15 20zM8 145l-1 5q76 20 115 67l18 -11l-6 -2q47 -31 113 -37v-5q-19 -1 -22 -11q-49 11 -95 49q-13 -10 -39 -26.5t-83 -28.5z" />
  </g>

</svg>
