<?xml version="1.0" standalone="no"?>
<!DOCTYPE svg PUBLIC "-//W3C//DTD SVG 1.1//EN" "http://www.w3.org/Graphics/SVG/1.1/DTD/svg11.dtd" >
<svg xmlns="http://www.w3.org/2000/svg" xmlns:xlink="http://www.w3.org/1999/xlink" version="1.1" viewBox="0 -36 256 256">
  <g transform="matrix(1 0 0 -1 0 220)">
   <path fill="currentColor"
d="M46 246l21 -9l-7 -7v-47h1l10 11l18 -18h-29v-57l28 13l2 -4l-30 -20v-69q2 -21 -19 -30q0 12 -22 19v4q13 -2 20.5 -2.5t7.5 11.5v59q-23 -15 -24 -19l-14 18q14 3 38 15v62h-14l-11 -3l-10 10h35q0 38 -1 63zM186.5 194q-4.5 -7 -10.5 -16h36l5 9l14 -12l-7 -6v-49
l6 11l18 -18h-24v-53q0 -19 -16 -25q-2 13 -21 15v5q17 0 21 0.5t4 10.5v47h-51q-1 -31 -8.5 -46.5t-28.5 -34.5l-4 4q29 30 28 77h-2l-11 -3l-10 10h24q0 48 -1 67l11 -9h12q7 21 9 36l17 -9q-6 -4 -10.5 -11zM161 120h51v51h-51v-51zM196.5 146q6.5 -8 -0.5 -16.5t-10 4.5
t-15 24l2 4q17 -8 23.5 -16zM173 105q19 -9 24.5 -17t-1 -16.5t-9 3.5t-16.5 26zM213 224l10 11l18 -18h-75q-13 0 -22 -3l-10 10h79zM218 26l10 11l18 -18h-92q-13 0 -22 -3l-10 10h96zM113 13l-14 -6q1 37 1 57v131q0 25 -1 49l20 -11l-7 -8v-40q14 -5 21.5 -10.5t7 -13
t-4.5 -11.5t-7.5 7t-16.5 25v-133q0 -19 1 -36zM90.5 147.5q-3.5 -12.5 -11.5 -15t-10 3t6.5 12t15.5 27.5h3q0 -15 -3.5 -27.5z" />
  </g>

</svg>
