<?xml version="1.0" standalone="no"?>
<!DOCTYPE svg PUBLIC "-//W3C//DTD SVG 1.1//EN" "http://www.w3.org/Graphics/SVG/1.1/DTD/svg11.dtd" >
<svg xmlns="http://www.w3.org/2000/svg" xmlns:xlink="http://www.w3.org/1999/xlink" version="1.1" viewBox="0 -36 256 256">
  <g transform="matrix(1 0 0 -1 0 220)">
   <path fill="currentColor"
d="M70 179h18l7 9l13 -12l-6 -6q0 -66 1 -78l-13 -6v7h-51v-7l-14 -6q1 21 1 91q-6 -8 -15 -18l-3 3q20 34 29 58.5t9 32.5l21 -12q-6 -1 -16 -20h29l8 10l14 -14q-10 0 -32 -32zM34 183l7 -4h22l16 29h-31q-8 -15 -14 -25zM39 139h19v33h-19v-33zM70 139h20v33h-20v-33z
M39 100h19v32h-19v-32zM70 100h20v32h-20v-32zM32.5 40.5q-1.5 -8.5 -5 -12t-11.5 -3.5t1 12.5t12 33.5h4q1 -22 -0.5 -30.5zM47 74q16 -18 16 -28t-6.5 -15.5t-6.5 9t-6 33.5zM67 79q22 -17 22.5 -26.5t-4.5 -14t-7 6t-14 32.5zM87 84q16 -9 22 -16.5t-0.5 -17t-8.5 1
t-15 30.5zM202 56h26v136h-26v-136zM242 32l-14 -8v25h-26v-27l-14 -7q1 36 1 97.5t-1 94.5l14 -8h25l7 10l14 -13l-7 -7q0 -125 1 -157zM129 246l21 -10l-8 -8v-43h23l6 10l14 -12l-7 -7q-3 -104 -6 -123.5t-8.5 -25.5t-17.5 -12q0 15 -21 23l1 4q20 -5 26 -2.5t8 24
t5 114.5h-23q-1 -64 -9.5 -102t-42.5 -69l-3 2q26 33 34 68.5t9 100.5h-7l-8 -3l-9 10h24q0 29 -1 61z" />
  </g>

</svg>
