<?xml version="1.0" standalone="no"?>
<!DOCTYPE svg PUBLIC "-//W3C//DTD SVG 1.1//EN" "http://www.w3.org/Graphics/SVG/1.1/DTD/svg11.dtd" >
<svg xmlns="http://www.w3.org/2000/svg" xmlns:xlink="http://www.w3.org/1999/xlink" version="1.1" viewBox="0 -36 256 256">
  <g transform="matrix(1 0 0 -1 0 220)">
   <path fill="currentColor"
d="M33 204v-114h29v114h-29zM20 85v99q0 14 -1 37l14 -10h29l6 9l14 -11l-7 -8v-103q0 -18 1 -35l-14 -8v28h-29v-25l-14 -6q1 16 1 33zM111.5 214q7.5 -9 1 -20t-10.5 4.5t-16 33.5l2 2q16 -11 23.5 -20zM84 19l-12 12q12 10 31 26v88q-11 0 -18 -3l-6 10h23l9 9l12 -14
l-8 -6v-87q12 -15 28 -19t40 -4t65 4v-4q-17 -5 -19 -15q-28 0 -49 1t-38 6t-34 27q-13 -13 -24 -31zM144 243q17 -12 23 -21t-1 -18t-10 6.5t-14 29.5zM225 98l-14 -7v12h-27q-10 -44 -51 -64l-1 4q30 21 39 60h-19l-8 -7l-11 12l7 5q0 39 -1 57l20 -10l-7 -7v-43h20
q2 18 2 77h-23q-10 -1 -19 -3l-9 10h62q15 36 18 52l18 -11q-7 -4 -31 -41h26l11 10l15 -17h-55q0 -64 -2 -77h26q0 37 -1 58l20 -9l-7 -7q0 -38 2 -54z" />
  </g>

</svg>
