<?xml version="1.0" standalone="no"?>
<!DOCTYPE svg PUBLIC "-//W3C//DTD SVG 1.1//EN" "http://www.w3.org/Graphics/SVG/1.1/DTD/svg11.dtd" >
<svg xmlns="http://www.w3.org/2000/svg" xmlns:xlink="http://www.w3.org/1999/xlink" version="1.1" viewBox="0 -205 1024 1024">
  <g transform="matrix(1 0 0 -1 0 819)">
   <path fill="currentColor"
d="M170 692h296l32 38l54 -48l6 -8q1 -9 -12 -8h-170v-114h132l30 34l50 -38q9 -6 10 -12q0 -4 -30 -26v-120l4 -74q-1 -14 -16 -22q-15 -9 -38 -8v44h-152q-7 -43 -22 -80q112 -47 164 -82q51 -35 66 -61q16 -24 12 -46q-6 -21 -26 -24q-19 -3 -38 32q-19 34 -64 77
q-43 42 -122 84q-45 -96 -120 -147t-168 -72l-4 14q82 34 140 82q57 45 90 103q32 56 44 122h-140v-16q0 -12 -12 -26q-12 -12 -42 -18l4 108v204l54 -32h144v114h-88q-19 0 -50 -8l-18 34v0v0zM178 358h142q7 36 6 168h-148v-168v0v0zM376 526q3 -90 -6 -168h148v168h-142
v0v0zM348 980q72 -30 72 -36q0 -3 -2 -6q-1 -3 -10 -6q-9 -1 -18 -8q-7 -6 -32 -32q185 -64 220 -86q36 -21 46 -42q9 -18 4 -36q-6 -18 -26 -20q-18 -2 -36 24q-15 26 -72 64q-54 39 -150 78q-67 -81 -146 -146q-77 -66 -148 -104l-8 12q74 56 166 152q89 93 140 192v0v0z
M680 808l86 -34q12 -9 0 -18l-36 -12v-366l4 -98q-2 -16 -22 -28q-21 -12 -36 -12l4 134v434v0v0zM856 968l88 -38q9 -10 -2 -16l-38 -14v-750q3 -67 -20 -95q-24 -27 -62 -36q-16 32 -40 46q-22 16 -110 40l4 20q93 -18 120 -24q27 -5 42 4q18 10 18 35v828v0v0z" />
  </g>

</svg>
