<?xml version="1.0" standalone="no"?>
<!DOCTYPE svg PUBLIC "-//W3C//DTD SVG 1.1//EN" "http://www.w3.org/Graphics/SVG/1.1/DTD/svg11.dtd" >
<svg xmlns="http://www.w3.org/2000/svg" xmlns:xlink="http://www.w3.org/1999/xlink" version="1.1" viewBox="0 -205 1024 1024">
  <g transform="matrix(1 0 0 -1 0 819)">
   <path fill="currentColor"
d="M84 702h18l2 -38h338l26 24q53 -42 56 -48q0 -6 -2 -8q-4 -3 -16 -6q-13 0 -34 -18t-48 -42l-12 8q18 39 34 66h-342q0 -42 -8 -66q-10 -24 -26 -32q-16 -10 -32 -4q-15 6 -12 24q1 18 20 34q18 15 24 42q7 26 14 64v0v0zM106 568h228l30 36l40 -46q6 -3 6 -8
q0 -7 -12 -8h-224q-18 0 -48 -8l-20 34v0v0zM30 876h228v120l74 -28q7 -3 8 -8q0 -4 -8 -10l-24 -8v-66h132l34 38l44 -46q3 -1 6 -8q0 -10 -12 -10h-204v-92h88l30 34q47 -41 52 -46q3 -13 -12 -14h-314q-21 0 -54 -6l-20 32h180v92h-146q-40 0 -58 -8l-24 34v0v0zM820 950
l48 -36q9 -7 10 -10q-1 -3 -28 -26v-190q-1 -25 38 -26h58q6 -1 12 8q0 6 4 6q5 0 20 -18q19 -18 20 -24q-3 -13 -32 -16h-106q-30 -1 -42 8q-18 14 -18 44v220h-156v-74q-1 -90 -32 -152q-28 -63 -128 -128l-8 14q80 73 98 134q19 60 20 144v122l54 -36h140l28 36v0v0z
M866 570l56 -42q9 -3 10 -12q0 -6 -12 -12q-19 -12 -28 -32q-69 -157 -132 -232q67 -64 122 -93t116 -40v-18q-42 1 -56 -2q-15 -3 -36 -30q-49 32 -88 66q-40 32 -86 83q-36 -41 -120 -99q-85 -56 -166 -82l-4 12q69 39 132 84q63 44 130 117q-44 64 -70 128
q-24 64 -42 140h-18q-16 -4 -20 -8l-30 38h310l32 34v0v0zM616 508q39 -141 114 -236q56 77 116 236h-230v0v0v0zM112 508l48 -32h208l30 36l54 -38q8 -3 8 -12q0 -7 -26 -26v-319q0 -32 -14 -50q-12 -14 -66 -32q-6 34 -30 46q-23 12 -70 26l4 16q51 -9 70 -12l38 -2
q18 0 18 26v97h-224v-58l4 -101q0 -11 -20 -26q-18 -12 -36 -12l4 135v338v0v0zM160 256h224v86h-224v-86v0v0zM160 366h224v86h-224v-86v0v0z" />
  </g>

</svg>
