<?xml version="1.0" standalone="no"?>
<!DOCTYPE svg PUBLIC "-//W3C//DTD SVG 1.1//EN" "http://www.w3.org/Graphics/SVG/1.1/DTD/svg11.dtd" >
<svg xmlns="http://www.w3.org/2000/svg" xmlns:xlink="http://www.w3.org/1999/xlink" version="1.1" viewBox="0 -36 256 256">
  <g transform="matrix(1 0 0 -1 0 220)">
   <path fill="currentColor"
d="M47 206h24v20h-24v-20zM47 146h24v24h-24v-24zM47 177h58v22h-58v-22zM34 240l14 -7h52l11 9l14 -16h-42v-20h21l8 7l12 -12l-7 -5q0 -14 1 -27l-13 -5v6h-22v-24h19l11 10l13 -17h-77l-7 -6l-15 12l8 5q0 76 -1 90zM176 181q18 25 26 47h-53q10 -27 27 -47zM202 235l8 8
l15 -15q-8 0 -16 -16.5t-25 -38.5q23 -22 53 -25v-4q-17 -2 -18 -11q-21 10 -42 31q-26 -21 -61 -32l-2 3q34 16 54 37q-18 27 -25 56l-8 -1l-8 8h75zM43 75q0 31 -1 49l14 -8h64q2 17 1 18l24 -7l-7 -3q-2 -1 -5 -8h68l7 8l15 -12l-8 -4v-72q0 -11 -5.5 -16.5t-19.5 -8.5
q0 11 -33 19v3q30 -2 37.5 -2t7.5 8v70h-71q-2 -4 -4 -6q19 -4 29.5 -6.5t17.5 -8t6 -14t-16.5 3.5t-38.5 21q-6 -9 -20 -18t-40 -14l-2 3q23 8 36.5 18.5t17.5 20.5h-61v-89l-14 -8q1 32 1 63zM143 78q-7 -4 -14 -11q23 -4 33 -7t15 -8t3 -12t-15 3t-39 20
q-9 -10 -21.5 -17.5t-41.5 -14.5l-1 3q33 13 45.5 26.5t16.5 27.5z" />
  </g>

</svg>
