<?xml version="1.0" standalone="no"?>
<!DOCTYPE svg PUBLIC "-//W3C//DTD SVG 1.1//EN" "http://www.w3.org/Graphics/SVG/1.1/DTD/svg11.dtd" >
<svg xmlns="http://www.w3.org/2000/svg" xmlns:xlink="http://www.w3.org/1999/xlink" version="1.1" viewBox="0 -205 1024 1024">
  <g transform="matrix(1 0 0 -1 0 819)">
   <path fill="currentColor"
d="M456 484h400v234h-400v-234v0v0zM532 684l42 -28h140l28 30l40 -28q8 -6 8 -12q0 -4 -20 -20v-92q0 -6 -8 -12q-15 -9 -38 -8v28h-146q-1 -14 -10 -22q-15 -9 -36 -8v172v0v0zM578 564h146v70h-146v-70v0v0zM446 420l50 -30h304l20 34l52 -34q12 -3 12 -12q0 -6 -30 -30
v-132l4 -66q1 -11 -18 -23q-19 -9 -34 -10v31h-312v-17q0 -12 -18 -22q-19 -8 -34 -8l4 85v234v0v0zM494 172h312v90h-312v-90v0v0zM494 286h312v80h-312v-80v0v0zM326 69h570l36 50l66 -56q6 -3 6 -6q0 -12 -12 -12h-586q-15 1 -62 -8l-18 32v0v0zM872 830l38 48l64 -52
q3 -4 4 -10q1 -10 -10 -10h-540q-22 0 -70 -8l-14 32h528v0v0zM560 962l6 12q54 -16 84 -34q31 -15 38 -36q7 -18 0 -36q-8 -16 -28 -16q-21 -1 -26 20q-3 21 -18 42t-56 48v0v0zM406 776l42 -34h398l22 30l54 -32q9 -4 10 -14q0 -4 -26 -26v-172l4 -62q0 -15 -20 -26
q-17 -9 -34 -12v32h-400q0 -15 -12 -26q-18 -12 -42 -12l4 110v244v0v0zM182 980l80 -30q12 -7 0 -16l-32 -12v-142q55 -24 86 -42q30 -18 40 -38q7 -22 2 -40q-6 -19 -26 -22q-18 -1 -26 20q-6 20 -20 46q-15 24 -56 54v-590l4 -111q1 -11 -16 -26q-17 -14 -40 -16l4 161
v804v0v0zM106 726h18q1 -81 0 -120q0 -39 -18 -66q-16 -26 -38 -24q-22 3 -28 18q-6 14 6 28l22 28t20 44q9 28 18 92v0v0z" />
  </g>

</svg>
