<?xml version="1.0" standalone="no"?>
<!DOCTYPE svg PUBLIC "-//W3C//DTD SVG 1.1//EN" "http://www.w3.org/Graphics/SVG/1.1/DTD/svg11.dtd" >
<svg xmlns="http://www.w3.org/2000/svg" xmlns:xlink="http://www.w3.org/1999/xlink" version="1.1" viewBox="0 -120 1000 1000">
  <g transform="matrix(1 0 0 -1 0 880)">
   <path fill="currentColor"
d="M56 168q73 53 124 102q36 36 131 152v23l-190 -78l-2 -11q-3 -16 -10 -16q-6 0 -12 9l-45 73l69 14v443l79 -39l27 124l76 -24q14 -4 14 -11q0 -9 -14 -11l-17 -3l-57 -75h70l21 35l65 -37q18 -10 18 -18t-18 -16l-15 -6v-312l38 68l51 -46q14 -13 14 -19q0 -7 -18 -7
h-20q-13 -14 -65 -76v-282q0 -21 -10 -31q-14 -13 -43 -26q-12 -5 -21 -5q-10 0 -14 32q-2 13 -16 16l-66 14v19h111v197q-58 -62 -132 -117q-33 -23 -110 -69zM181 445l130 26v92h-130v-118zM181 687v-97h130v97h-130zM181 813v-98h130v98h-130zM407 98l-11 28h72v274
l56 -27h260l16 30l63 -39q9 -6 9 -12t-7 -9l-17 -6v-211h13l40 63l53 -63v-28h-547zM517 346v-220h62v220h-62zM627 126h61v220h-61v-220zM737 346v-220h57v220h-57zM404 375q64 73 124 184l54 -37q11 -8 11 -15q0 -11 -21 -12l-19 -1q-50 -57 -88 -89q-38 -33 -48 -41z
M414 680q26 35 43 63q37 62 71 158l62 -31q13 -7 13 -16t-13 -10l-14 -2q-48 -67 -69 -92q-28 -33 -81 -84zM515 681l-15 27h186l40 49l74 -57v-19h-285zM579 562h149l23 41l46 -29q16 -11 16 -18q0 -10 -13 -13l-27 -8q20 -30 88 -75q32 -20 89 -41l-6 -16q-38 -5 -50 -36
q-34 18 -72 58q-42 46 -76 110h-151zM601 910h110l24 37l46 -30q16 -11 16 -20t-21 -12l-21 -3q24 -40 43 -62q9 -11 51 -47q35 -31 100 -61l-7 -15q-20 -4 -26 -7q-11 -6 -28 -27q-115 95 -155 222h-119z" />
  </g>

</svg>
