<?xml version="1.0" standalone="no"?>
<!DOCTYPE svg PUBLIC "-//W3C//DTD SVG 1.1//EN" "http://www.w3.org/Graphics/SVG/1.1/DTD/svg11.dtd" >
<svg xmlns="http://www.w3.org/2000/svg" xmlns:xlink="http://www.w3.org/1999/xlink" version="1.1" viewBox="0 -52 256 256">
  <g transform="matrix(1 0 0 -1 0 204)">
   <path fill="currentColor"
d="M96 232l9 -9h29q7 17 8 23q0 1 -1 3t-1 3l2 1l17 -6q4 -3 2 -3q-6 -1 -9 -5q-1 -2 -3 -4q-3 -5 -7 -12h57l9 10l12 -12q2 -1 2 -2t-3 -2l-5 -2v-37l2 -24q-1 -4 -4 -6l-9 -3v10h-94v-3q0 -5 -4 -8l-1 -1q-4 -2 -8 -2q1 4 1 19q1 11 1 18v41q-2 7 -5 10zM236 102h-99
q-3 -12 -8 -24h70l6 6l10 -10q3 -2 1 -3h-4q-1 0 -2 -1l-5 -5q-12 -17 -29 -27q19 -9 37 -12q11 -3 27 -3v-4q-9 0 -12 -1q-5 -2 -8 -6q-28 6 -52 21q-31 -19 -71 -24v3q34 8 64 26q-21 14 -32 36h-2q-19 -43 -61 -66l-3 3q49 33 63 91h-28q-7 0 -12 -3l-8 8h50q0 3 2 9
q1 9 2 14h-44q-7 0 -12 -4l-8 8h153l8 11l17 -13q4 -3 -2 -2h-100q-3 -12 -6 -23h75l8 9l17 -11q2 -2 1 -2q0 -1 -3 -1zM57 252l23 -11q4 -3 1 -5q-3 1 -9 -3q-10 -30 -18 -45v-144l1 -22q0 -8 -13 -12v11q1 19 1 35v111q-16 -30 -36 -47l-3 2q26 33 42 74t14 46l-3 6
q-1 1 -1 2zM109 187v-27h94v27h-94zM109 218v-26h94v26h-94zM135 74q10 -18 33 -33q20 14 32 33h-65z" />
  </g>

</svg>
