<?xml version="1.0" standalone="no"?>
<!DOCTYPE svg PUBLIC "-//W3C//DTD SVG 1.1//EN" "http://www.w3.org/Graphics/SVG/1.1/DTD/svg11.dtd" >
<svg xmlns="http://www.w3.org/2000/svg" xmlns:xlink="http://www.w3.org/1999/xlink" version="1.1" viewBox="0 -200 1000 1000">
  <g transform="matrix(1 0 0 -1 0 800)">
   <path fill="currentColor"
d="M420 395l-49 -17l2 71v63v252v71l-2 73l63 -33l-17 -20v-322q0 -78 3 -138zM827 797l33 34l41 -57h-114q0 -33 3 -54l-44 -20v74h-107v-63l-44 -18q3 35 3 81h-37l-26 -10l-30 33h93q0 59 -3 111l63 -33l-19 -23v-55h107q0 56 -3 111l63 -33l-19 -23v-55h40zM202 746
q-9 18 -14 31l-20 41q-11 23 -26 46l7 14q47 -36 66 -57q18 -21 18 -40q0 -4 -2 -14q-1 -5 -5 -15t-7 -13q-5 -5 -8 -5q-5 0 -9 12zM496 572q-7 18 -14 41l-19 59q-10 28 -29 69l7 10q25 -28 42 -51q19 -26 28 -40q11 -16 15 -30q4 -12 4 -25q0 -5 -2 -15q-1 -6 -5 -16
l-3 -6t-5 -7q-5 -5 -9 -5q-6 0 -10 16zM102 378h43q13 0 25 30q4 11 28 93l58 219l17 -3q-26 -107 -47 -211q-2 -6 -4 -22q-19 -94 -21 -106q-8 -46 -9 -69l-2 -34q0 -25 1 -36q1 -12 1 -35q0 -31 -16 -31q-17 0 -25 14q-9 14 -9 25q0 18 6 43q5 28 5 56q0 44 -51 53v14z
M713 274q35 -63 83 -91q48 -30 112 -37v-9q-44 -8 -57 -34q-128 54 -167 178q-51 -140 -197 -178l-3 9q138 71 172 206h-58q-36 0 -63 -7l-37 30h160l4 43l3 54h-60v-23l-47 -14q3 71 3 139q0 70 -3 157l10 3l37 -30h168l27 30l40 -40l-20 -16q0 -102 1 -138l3 -81l-48 -17
v30h-70q0 -23 -1 -39q-1 -23 -6 -58h98l37 33l46 -56h-184zM157 566q-9 18 -14 31q1 -4 -19 43q-11 23 -26 46l4 11q48 -26 69 -46q22 -22 22 -45q0 -4 -2 -16q-4 -12 -7 -17q-5 -10 -9 -14q-4 -6 -9 -6t-9 13zM340 633q-54 -201 -104 -265l-10 6q21 58 32 98q14 51 24 91
q10 49 14 76q4 29 4 51l60 -30zM776 566v81h-171v-81h171zM776 462v80h-171v-80h171zM505 408q-181 -245 -336 -298l-4 9q49 30 101 79t101 108q101 123 111 190l53 -51z" />
  </g>

</svg>
