<?xml version="1.0" standalone="no"?>
<!DOCTYPE svg PUBLIC "-//W3C//DTD SVG 1.1//EN" "http://www.w3.org/Graphics/SVG/1.1/DTD/svg11.dtd" >
<svg xmlns="http://www.w3.org/2000/svg" xmlns:xlink="http://www.w3.org/1999/xlink" version="1.1" viewBox="0 -36 256 256">
  <g transform="matrix(1 0 0 -1 0 220)">
   <path fill="currentColor"
d="M11 8l-2 4q34 43 31 128v43q0 23 -1 44l17 -10h78q-3 15 -15 26l2 3q39 -14 21 -29h65l13 10l17 -17h-183v-75q3 -83 -43 -127zM141 141l-11 -5v3h-19v-7q15 -4 23 -9t5.5 -12t-6 -6t-5 6.5t-17.5 16.5q0 -24 1 -32l-14 -6q1 17 1 35q-18 -21 -42 -35l-2 4q25 21 39 45
h-14v-1l-13 -4q1 13 1 21.5t-1 18.5l13 -5h19v12h-12q-11 0 -20 -2l-9 9h41q0 10 -1 22l19 -8l-6 -5v-9h21l8 8l14 -15h-43v-12h18l6 7l13 -9l-7 -4v-22zM80 146h19v16h-19v-16zM111 146h19v16h-19v-16zM177 195l-5 -12h37l10 10l14 -17h-18q-8 -24 -22 -42q10 -8 21.5 -14
t26.5 -8l-1 -3q-12 -2 -15 -11q-19 8 -39 27q-17 -17 -49 -31l-2 4q27 17 44 36q-9 12 -16 26q-5 -13 -20 -29l-3 2q11 20 18 45t7 31l20 -9zM166 166q8 -12 19 -23q11 17 16 33h-31zM156 79q0 7 -1 22l20 -7l-6 -5v-3h28l11 9l14 -16h-53v-13h28l10 8l15 -15h-53v-12h30
l10 7l15 -14h-55v-14h48l13 9l16 -16h-174q-10 0 -19 -2l-9 9h72v14h-26q-10 0 -20 -2l-9 9h55v12h-16q-10 0 -19 -2l-10 9h45v13h-22q-10 0 -20 -2l-9 9h51v14l18 -7l-5 -6v-61h27v53z" />
  </g>

</svg>
