<?xml version="1.0" standalone="no"?>
<!DOCTYPE svg PUBLIC "-//W3C//DTD SVG 1.1//EN" "http://www.w3.org/Graphics/SVG/1.1/DTD/svg11.dtd" >
<svg xmlns="http://www.w3.org/2000/svg" xmlns:xlink="http://www.w3.org/1999/xlink" version="1.1" viewBox="0 -36 256 256">
  <g transform="matrix(1 0 0 -1 0 220)">
   <path fill="currentColor"
d="M49 237q24 -8 35 -16t10 -17t-5.5 -12t-11.5 9.5t-29 32.5zM121 175q-46 -47 -111 -63l-2 5q57 19 95 63h-60q-10 0 -19 -3l-11 10h108v30q0 17 -1 29l21 -11l-7 -7v-41h18q24 27 34 49l21 -15l-9 -3q-13 -11 -39 -31h45l16 14l20 -21h-97q54 -47 103 -45v-6
q-21 -1 -23 -13q-48 13 -89 66v-28q0 -24 1 -35l-15 -10q1 18 1 66zM49 81q-1 -29 -4.5 -39.5t-10 -12.5t-15 1.5t4 14t21.5 36.5h4zM109 110q17 -8 27 -14t11.5 -14t-5 -16t-11 6.5t-24.5 34.5zM74 101l26 -11l-10 -8v-39q-1 -15 13 -15h63q10 0 12 11t4 30h4
q1 -11 2.5 -24.5t12.5 -15.5q-6 -16 -31 -15h-71q-25 -1 -24 25q0 40 -1 62zM202 83q23 -14 32 -21.5t7 -16t-6.5 -13.5t-10 10t-24.5 37z" />
  </g>

</svg>
