<?xml version="1.0" standalone="no"?>
<!DOCTYPE svg PUBLIC "-//W3C//DTD SVG 1.1//EN" "http://www.w3.org/Graphics/SVG/1.1/DTD/svg11.dtd" >
<svg xmlns="http://www.w3.org/2000/svg" xmlns:xlink="http://www.w3.org/1999/xlink" version="1.1" viewBox="0 -205 1024 1024">
  <g transform="matrix(1 0 0 -1 0 819)">
   <path fill="currentColor"
d="M190 966l72 -30q12 -3 10 -14q-1 -3 -28 -18v-120h154l40 50l54 -56q7 -6 8 -12q0 -9 -8 -8h-248v-160l252 56l6 -20q-176 -51 -232 -72q-53 -21 -82 -50l-42 64l44 24v366v0v0zM556 966q69 -30 84 -38q12 -10 0 -16l-30 -14v-170q153 78 246 162q63 -60 60 -68
q-4 -9 -8 -8q-4 0 -22 4q-18 1 -108 -42q-87 -45 -168 -72v-74q0 -31 12 -34t24 -2h192l18 2q27 5 36 20q8 13 14 134h18q9 -75 12 -102q3 -25 30 -40q-13 -30 -28 -42q-13 -10 -40 -16l-32 -4h-224q-30 0 -50 6q-19 6 -28 24q-7 15 -8 52v338v0v0zM214 402
q-3 -102 -20 -146q-19 -43 -40 -64t-38 -26q-18 -7 -32 -2q-13 5 -16 22q-3 18 12 30q12 11 36 28q24 18 42 42q17 25 38 116h18v0v0zM450 538q69 -38 96 -70t24 -58q-2 -24 -16 -30q-12 -7 -24 -2q-12 3 -18 28q-6 23 -18 50q-10 24 -52 72l8 10v0v0zM758 370
q92 -31 140 -58q44 -27 62 -54q16 -24 14 -42q-3 -16 -12 -26t-24 -8q-15 0 -30 30q-15 27 -42 64q-27 36 -114 78l6 16v0v0zM370 400v-218q49 31 110 74t128 110q65 65 104 124q75 -51 78 -56q3 -6 -6 -12q-32 3 -76 -36t-112 -96q-67 -58 -226 -155q-1 -23 20 -28
q21 -3 58 -4h206q27 0 36 6t16 24q5 13 8 47q3 30 6 88h18l8 -62q5 -71 38 -85q-17 -33 -40 -48q-21 -14 -72 -20h-252q-62 1 -82 14q-17 12 -22 50q-129 -57 -258 -84l-4 20q43 12 116 42q73 28 146 65v308l74 -32q13 -9 12 -12q-1 -4 -4 -8q-4 -2 -28 -16v0v0z" />
  </g>

</svg>
