<?xml version="1.0" standalone="no"?>
<!DOCTYPE svg PUBLIC "-//W3C//DTD SVG 1.1//EN" "http://www.w3.org/Graphics/SVG/1.1/DTD/svg11.dtd" >
<svg xmlns="http://www.w3.org/2000/svg" xmlns:xlink="http://www.w3.org/1999/xlink" version="1.1" viewBox="0 -36 256 256">
  <g transform="matrix(1 0 0 -1 0 220)">
   <path fill="currentColor"
d="M34 103h189l9 8l14 -17q-8 1 -31 -20l-3 1l12 21h-190q1 -13 -5 -18.5t-13 -1t1 11.5t13 27h4v-12zM49 37l-2 4q10 9 24 24.5t25 35.5l18 -15h-7l-12 -10h75l10 7l12 -14l-11 -5l-26 -44h-15l28 49h-79q-17 -18 -40 -32zM200 20l13 11l17 -18h-158q-26 1 -32 -2l-9 9h169
zM88 61q44 -8 47.5 -16t0 -14.5t-15.5 5t-34 22.5zM133 198h43v13h-43v-13zM60 219.5q0 15.5 -1 25.5l15 -8h101l10 10l12 -13l-6 -5v-14q0 -17 1 -24l-16 -5v5h-103v-2l-14 -5q1 20 1 35.5zM73 218h45v12h-45v-12zM133 218h43v12h-43v-12zM73 198h45v13h-45v-13zM78 137h27
v13h-27v-13zM118 130l-13 -6v6h-66v-3l-15 -7q2 20 2 33t-1 33l14 -9h66l7 7l11 -12l-6 -6v-12q0 -15 1 -24zM39 157h27v13h-27v-13zM78 157h27v13h-27v-13zM39 137h27v13h-27v-13zM185 137h27v13h-27v-13zM225 126l-13 -5v9h-68v-3l-13 -5q1 19 1 33t-1 27l12 -5h67l8 8
l14 -12l-8 -4v-23q0 -11 1 -20zM144 157h28v13h-28v-13zM185 157h27v13h-27v-13zM144 137h28v13h-28v-13zM109 129q24 -10 24 -15.5t-4.5 -9t-7.5 3.5t-14 19z" />
  </g>

</svg>
