<?xml version="1.0" standalone="no"?>
<!DOCTYPE svg PUBLIC "-//W3C//DTD SVG 1.1//EN" "http://www.w3.org/Graphics/SVG/1.1/DTD/svg11.dtd" >
<svg xmlns="http://www.w3.org/2000/svg" xmlns:xlink="http://www.w3.org/1999/xlink" version="1.1" viewBox="0 -205 1024 1024">
  <g transform="matrix(1 0 0 -1 0 819)">
   <path fill="currentColor"
d="M844 848l56 -40q12 -6 12 -14q0 -6 -32 -26v-210l4 -88q0 -16 -18 -28t-38 -14v30h-188q42 -129 82 -182q102 63 168 142q56 -54 56 -60q-1 -6 -4 -8q-1 -1 -20 -2q-18 -1 -48 -16q-27 -13 -138 -74q33 -36 66 -66q34 -31 80 -53q45 -23 126 -38v-18q-39 3 -60 -4
q-20 -6 -46 -28q-60 34 -110 82q-51 46 -98 119q-46 71 -82 206h-88v-345l156 85l10 -18q-139 -89 -152 -103q-13 -12 -46 -46l-60 48q30 22 40 46v725l64 -44h274l34 42v0v0zM524 780v-140h304v140h-304v0v0zM524 616v-134h304v134h-304v0v0zM566 968l8 12q65 -31 98 -52
t42 -44q9 -24 -2 -42q-12 -19 -32 -16q-18 2 -24 22q-6 18 -18 42q-12 21 -72 78v0v0zM154 228q57 89 90 176q-63 101 -158 212l12 12q84 -81 162 -180q30 79 54 266h-198q-26 0 -46 -8l-24 34h306l40 48q59 -54 62 -60q3 -3 -2 -8q-3 -4 -12 -4h-76q-22 -201 -70 -312
q33 -46 54 -82q20 -33 34 -84q13 -48 2 -72q-12 -22 -30 -22q-18 -1 -24 38q-6 36 -18 78t-38 96q-36 -76 -92 -152q-55 -74 -146 -149l-10 12q70 72 128 161v0v0zM156 958q79 -45 104 -74q24 -28 28 -52q2 -22 -4 -34q-7 -12 -20 -18q-13 -4 -26 4q-12 6 -14 34
q0 27 -18 54q-15 24 -60 76l10 10v0v0z" />
  </g>

</svg>
