<?xml version="1.0" standalone="no"?>
<!DOCTYPE svg PUBLIC "-//W3C//DTD SVG 1.1//EN" "http://www.w3.org/Graphics/SVG/1.1/DTD/svg11.dtd" >
<svg xmlns="http://www.w3.org/2000/svg" xmlns:xlink="http://www.w3.org/1999/xlink" version="1.1" viewBox="0 -205 1024 1024">
  <g transform="matrix(1 0 0 -1 0 819)">
   <path fill="currentColor"
d="M160 742h672l38 46l60 -52q3 -4 4 -8q0 -12 -12 -12h-252v-78h166l26 34l58 -38q7 -3 8 -12q0 -3 -30 -20v-42l4 -54q1 -12 -16 -20q-16 -8 -38 -10v34h-624v4q2 -14 -16 -22q-18 -7 -38 -8l4 78v112l50 -36h188v78h-168q-21 0 -62 -8l-22 34v0v0zM224 536h188v76h-188
v-76v0v0zM462 536h158v76h-158v-76v0v0zM670 536h178v76h-178v-76v0v0zM256 482l52 -32h450l26 34l58 -36q10 -7 8 -14q0 -6 -30 -24v-98l4 -62q1 -10 -16 -20q-18 -10 -38 -10v20h-202v-74h318l42 52l60 -60q2 -3 2 -8q1 -10 -10 -10h-412v-45l4 -44q1 -15 -22 -28
q-21 -12 -38 -10l4 72v55h-376q-18 1 -66 -7l-18 33h460v74h-210v0q0 -13 -18 -20q-18 -6 -36 -8l4 98v172v0v0zM306 266h464v66h-464v-66v0v0zM306 358h464v66h-464v-66v0v0zM620 638v78h-158v-78h158v0v0zM356 960q10 -9 0 -18q-18 0 -26 -6q-10 -6 -22 -18
q-10 -12 -34 -36h184l40 48l56 -58q9 -16 -8 -16h-202q35 -21 46 -36q11 -12 14 -26q3 -13 -6 -28q-10 -15 -26 -12q-16 2 -16 20q0 17 -8 34q-6 18 -32 48h-60q-63 -72 -152 -150l-14 12q78 90 120 148q42 55 84 128l62 -34v0v0zM712 954q10 -9 0 -18q-18 0 -26 -6
q-9 -6 -20 -18q-9 -12 -24 -30h240l40 48l56 -58q9 -16 -8 -16h-234q35 -21 46 -36q11 -12 14 -26q3 -13 -6 -28q-10 -15 -26 -12q-16 2 -16 20q0 17 -8 34q-6 18 -32 48h-84q-50 -60 -100 -102l-14 12q42 55 76 110q30 53 64 112l62 -34v0v0z" />
  </g>

</svg>
