<?xml version="1.0" standalone="no"?>
<!DOCTYPE svg PUBLIC "-//W3C//DTD SVG 1.1//EN" "http://www.w3.org/Graphics/SVG/1.1/DTD/svg11.dtd" >
<svg xmlns="http://www.w3.org/2000/svg" xmlns:xlink="http://www.w3.org/1999/xlink" version="1.1" viewBox="0 -205 1048 1024">
  <g transform="matrix(1 0 0 -1 0 819)">
   <path fill="currentColor"
d="M984 121q-32 -2 -44 -20t-25 -18q-9 0 -25 6q-106 41 -205 118q-116 -93 -316 -134l-5 12q165 39 292 148q-77 87 -114 177q-76 -102 -180 -171l-8 10q147 118 223 313l37 -18q25 -11 25 -18q0 -9 -31 -14q-16 -30 -31 -55h229l13 17q11 15 14 15q4 0 14 -8l25 -22
q17 -13 17 -20q0 -2 -33 -22q-50 -97 -145 -183q127 -95 276 -99zM420 733l-11 -20h-142v-136q133 -89 134 -132q1 -21 -5 -37t-15 -16q-13 0 -24 32q-23 75 -90 130v-407q0 -62 1 -57q-3 -16 -24 -23q-13 -4 -16 -4q-6 0 -7 15q1 31 1 65v378q-62 -112 -151 -211l-10 7
q60 86 102.5 190t58.5 206h-149v21h149v177l-2 66l53 -11q27 -9 27 -17q0 -3 -33 -24v-191h42l28 37q13 18 17 18t28 -22zM972 578l-4 -15h-569v21h254v111h-175v21h175v108h-207v21h207v84l-3 48l49 -12q30 -8 30 -16t-31 -20v-84h140l22 29q14 14 17 14q1 0 20 -16l34 -31
l-3 -17h-230v-108h103l20 25q16 18 19 18t19 -13l40 -35l-6 -16h-195v-111h175l27 31q13 16 15 16q3 0 18 -15zM558 437q30 -96 126 -181q84 78 127 181h-253z" />
  </g>

</svg>
