<?xml version="1.0" standalone="no"?>
<!DOCTYPE svg PUBLIC "-//W3C//DTD SVG 1.1//EN" "http://www.w3.org/Graphics/SVG/1.1/DTD/svg11.dtd" >
<svg xmlns="http://www.w3.org/2000/svg" xmlns:xlink="http://www.w3.org/1999/xlink" version="1.1" viewBox="0 -36 256 256">
  <g transform="matrix(1 0 0 -1 0 220)">
   <path fill="currentColor"
d="M82 228q-8 -4 -25.5 -15t-39.5 -18l-1 3q46 26 54 42zM86 196q-5 -1 -27 -15.5t-37 -22.5l-2 4q46 30 54 49zM89 157l-7 -1q-46 -32 -68 -38v4q45 26 63 54zM31 114l19 -10l-6 -5q-2 -14 -4 -25q11 -17 19 -22v33q0 27 -1 56l18 -8l-6 -6v-37h5l11 9l10 -16h-26v-39
q18 -11 62.5 -14t115.5 3v-4q-13 -4 -18 -14q-119 0 -147.5 10.5t-44.5 40.5q-10 -37 -27 -58l-3 3q21 37 23 103zM144 223h-19q-13 0 -22 -3l-10 10h52l10 8l10 -13q-10 -1 -28 -17q7 -8 1 -13h14l6 7l11 -12q-9 -3 -21 -20l-2 2l6 16h-14v-33q-1 -15 -14 -18q0 10 -16 13
v4q20 -3 19 3v22q-17 -24 -41 -34l-1 3q24 19 34 40h-5q-8 0 -15 -2l-7 9h38q0 9 -12 24l2 2q8 -4 14 -9zM122 71h15v19h-15v-19zM95 89.5q0 36.5 -1 51.5l12 -7h47l7 8l9 -11l-5 -6v-71q0 -15 -14 -21q0 12 -12 16v3q16 -4 16 5v70h-21h-28v-29q4 5 8.5 14.5t5.5 15.5
l11 -7q-7 -8 -13 -18l6 -6h14l6 6l9 -10l-6 -5v-16.5t1 -10.5l-10 -5v8h-15v-6l-10 -3q1 14 1 26.5v16.5q-2 0 -8 -7v-51l-11 -4q1 17 1 53.5zM182 218h5q5 19 6 29l16 -9l-6 -3q-4 -7 -11 -17h28l6 9l12 -11l-6 -6v-17q0 -14 1 -28l-12 -5v5h-39v-18h41l12 9l12 -16h-65
v-17h46l7 9l11 -11l-6 -7q-3 -56 -8 -66t-17 -14q-6 12 -22 20v3q19 -6 22.5 -5t7 7t5.5 57h-46v-4l-12 -4q1 16 1 31v59q0 2 -1 28zM182 188v-16h39v16h-39zM182 211v-16h39v16h-39zM223 89.5q2 -6.5 -4 -13.5t-6 6t-5 25l2 2q11 -13 13 -19.5zM174 101h4q0 -20 -2.5 -27.5
t-9.5 -6t-1.5 10t9.5 23.5zM181 103l3 1q10 -16 9 -23.5t-5.5 -11t-4 7.5t-2.5 26zM194 103l2 2q9 -9 12.5 -17t-2.5 -15t-6.5 6.5t-5.5 23.5zM135 129h9v-5v-7q0 -5 10 -5q2 0 1 0.5t2 -4t-4 -4.5q-17 -1 -18 9v16z" />
  </g>

</svg>
