<?xml version="1.0" standalone="no"?>
<!DOCTYPE svg PUBLIC "-//W3C//DTD SVG 1.1//EN" "http://www.w3.org/Graphics/SVG/1.1/DTD/svg11.dtd" >
<svg xmlns="http://www.w3.org/2000/svg" xmlns:xlink="http://www.w3.org/1999/xlink" version="1.1" viewBox="0 -205 1024 1024">
  <g transform="matrix(1 0 0 -1 0 819)">
   <path fill="currentColor"
d="M482 738q9 -4 10 -8q3 -5 -6 -10q-9 0 -24 -6q-12 -4 -60 -46h354l30 34l58 -36l6 -6q0 -7 -30 -26v-168l4 -86q0 -11 -14 -22q-15 -10 -42 -14v44h-292q-34 -48 -98 -84q-63 -33 -164 -54l-4 14q88 32 134 62q46 29 74 62h-164v-12q1 -13 -10 -22t-46 -14l4 124v246
l62 -42h110q35 54 58 102l50 -32v0v0zM254 416h180q23 48 34 102h-214v-102v0v0zM522 518q-13 -60 -34 -102h280v102h-246v0v0zM254 544h218q9 50 12 98h-230v-98v0v0zM536 642q-2 -46 -10 -98h242v98h-232v0v0zM40 236h472v138l78 -20q9 -3 10 -6q1 0 2 -6q3 -4 -36 -20
v-86h310l40 42l60 -54q3 -4 4 -4q0 -12 -12 -12h-402v-66l4 -93q0 -9 -24 -22t-38 -12l4 124v69h-400q-21 0 -56 -8l-16 36v0v0zM316 958q10 -9 0 -18q-24 -6 -32 -12l-14 -14l-32 -48h204l40 44l62 -54q9 -16 -8 -16h-212q41 -28 56 -44q12 -16 18 -32q5 -16 -4 -32
q-8 -16 -28 -14q-19 2 -22 26q-2 21 -10 42q-9 21 -38 54h-72q-68 -102 -130 -164l-14 12q54 78 96 156q39 77 64 152l76 -38v0v0zM710 952q10 -9 0 -18q-24 -6 -30 -14l-12 -12q-4 -3 -28 -42h232l40 46l62 -56q9 -16 -8 -16h-234q41 -28 58 -46q14 -16 20 -34t-6 -32
q-12 -16 -30 -10q-19 6 -22 30q-4 23 -14 44q-8 21 -34 48h-76q-58 -87 -110 -146l-18 10q48 78 78 144q29 65 50 134l82 -30v0v0z" />
  </g>

</svg>
