<?xml version="1.0" standalone="no"?>
<!DOCTYPE svg PUBLIC "-//W3C//DTD SVG 1.1//EN" "http://www.w3.org/Graphics/SVG/1.1/DTD/svg11.dtd" >
<svg xmlns="http://www.w3.org/2000/svg" xmlns:xlink="http://www.w3.org/1999/xlink" version="1.1" viewBox="0 -205 1024 1024">
  <g transform="matrix(1 0 0 -1 0 819)">
   <path fill="currentColor"
d="M438 960l50 -26h310l26 26l50 -36q6 -6 6 -8q0 -7 -26 -22v-60l4 -66q2 -7 -10 -16t-38 -12v30h-328v-8q0 -12 -12 -20q-12 -9 -36 -8l4 56v170v0v0zM482 796h88v110h-88v-110v0v0zM612 796h86v110h-86v-110v0v0zM740 796h70v110h-70v-110v0v0zM966 942q8 -6 8 -12
q0 -7 -24 -16v-144l4 -88q-1 -11 -16 -22q-15 -12 -36 -12v34h-466v-274h468l30 38l46 -44q15 -16 -6 -22h-528q-18 -20 -30 -34l-48 40q14 11 22 22v332l48 -30h464v258l64 -26v0v0zM478 650l50 -26h302l28 26l48 -36q6 -6 6 -8q0 -6 -26 -24v-78l4 -42q2 -7 -10 -16
t-38 -12v30h-320v-8q0 -12 -12 -20q-12 -9 -36 -8l4 100v122v0v0zM522 490h84v106h-84v-106v0v0zM648 490h80v106h-80v-106v0v0zM770 490h72v106h-72v-106v0v0zM670 288h226l34 42l56 -52q3 -4 4 -10q-1 -7 -16 -8h-272q32 -48 80 -90q47 -41 92 -61q44 -19 118 -26v-18
q-40 -3 -58 -12q-19 -8 -32 -26q-48 25 -92 64q-45 38 -74 75q-29 38 -58 94h-18q-35 -67 -88 -116q-51 -46 -120 -79q-67 -29 -134 -50l-4 16q66 30 120 60q51 29 100 73q45 45 72 96h-172q-18 1 -54 -10l-34 38h270q8 36 14 76q68 -23 70 -28q2 -6 2 -8q0 -3 -12 -6
q-9 -4 -20 -34v0v0zM182 976l66 -38q9 -3 10 -8q4 -10 -16 -16q-18 -6 -26 -50q-7 -43 -26 -136h74l32 42l50 -40q15 -7 12 -10q0 -7 -30 -26q-12 -156 -24 -234q-12 -76 -48 -164q36 -27 66 -60q27 -30 36 -54q6 -24 -2 -42q-7 -14 -26 -15q-18 0 -26 27q-9 29 -24 52
q-12 23 -42 56q-48 -81 -96 -129q-49 -48 -110 -88l-10 16q51 43 102 101q50 60 82 126q-35 30 -124 88q30 137 60 328h-48q-24 0 -50 -6l-22 32h124q21 122 36 248v0v0v0zM222 318q32 87 44 172q9 85 18 212h-98q-30 -166 -68 -322q52 -33 104 -62v0v0z" />
  </g>

</svg>
