<?xml version="1.0" standalone="no"?>
<!DOCTYPE svg PUBLIC "-//W3C//DTD SVG 1.1//EN" "http://www.w3.org/Graphics/SVG/1.1/DTD/svg11.dtd" >
<svg xmlns="http://www.w3.org/2000/svg" xmlns:xlink="http://www.w3.org/1999/xlink" version="1.1" viewBox="0 -205 1024 1024">
  <g transform="matrix(1 0 0 -1 0 819)">
   <path fill="currentColor"
d="M882 656l36 41q7 7 14 0q26 -26 44 -48q11 -14 4 -24q-5 -6 -18 -7h-457q-42 -1 -73 -7q-8 -3 -11 6q-4 18 -19 30q-7 7 -4 11q4 3 11 -1q38 -8 84 -8h177v89h-128v-23q-1 -8 -5 -9q-10 -4 -32 -13q-15 -6 -14 4q2 26 3 51v126q-1 26 -2 45q0 9 4 10q4 3 13 -6
q13 -13 31 -26h130v3q-1 39 -4 70q-1 16 9 13q53 -17 71 -26q14 -9 -2 -16q-15 -8 -19 -18q-7 -13 -7 -23v-3h100q6 0 9 4l18 28q7 8 14 1q29 -19 57 -41q6 -6 5 -12q-3 -6 -13 -7q-12 -2 -18 -12q-4 -9 -4 -22v-20q0 -32 6 -87q2 -12 -7 -16q-35 -20 -42 -20q-5 1 -5 11v34
h-120v-89h152q6 0 12 7zM670 866h-128v-97h128v97zM718 769h120v97h-120v-97zM831 533l18 28q7 8 14 1q29 -19 57 -41q6 -6 5 -12q-3 -6 -13 -7q-12 -2 -18 -12q-4 -9 -4 -22v-132q0 -32 6 -87q2 -12 -7 -16q-35 -20 -42 -20q-5 1 -5 11v274h-312v-295q-1 -8 -5 -9
q-10 -4 -32 -13q-15 -6 -14 4q2 26 3 51v270q-1 26 -2 45q0 9 4 10q4 3 13 -6q13 -13 31 -26h294q6 0 9 4zM676 158q-54 -63 -243 -115q-19 -6 -22 4q-4 12 9 16q197 59 227 134q30 73 14 254q-2 16 10 13q54 -17 72 -27q14 -8 1 -14q-19 -11 -23 -20q-7 -18 -7 -79
q0 -51 -6 -85q116 -38 185 -83q48 -30 54 -54q7 -24 -3 -40q-10 -18 -16 -19q-6 -2 -19 16q-99 115 -205 158q-10 -32 -28 -59zM106 514q-1 16 9 13q54 -17 76 -29q9 -5 0 -11q-22 -16 -26 -20q-7 -7 -7 -23v-281q23 7 51 14q11 4 21 5v464h-64v-31q0 -8 -6 -9
q-20 -8 -39 -17q-9 -3 -8 12q4 63 5 210v40q-1 36 -5 82q-2 12 2 13q3 1 10 -6q12 -13 36 -31h153q6 0 9 4l18 28q7 8 14 1q29 -19 57 -41q9 -8 8 -12q-2 -5 -9 -9q-26 -12 -27 -19q-2 -6 -2 -13v-124q0 -36 6 -97q1 -11 -5 -12q-43 -15 -47 -14q-2 1 -2 11v34h-56v-169h25
q11 0 21 10l33 38q7 8 14 1q26 -24 42 -49q11 -16 8 -23q-4 -7 -17 -8h-126v-250q67 19 122 35q14 5 17 -4q2 -11 -13 -17q-138 -60 -247 -101q-20 -9 -54 -37q-5 -4 -9 -5t-8 8q-12 25 -34 44q-13 10 -12 13q2 4 12 5q18 3 58 16v291q-1 39 -4 70zM334 878h-168v-201h168
v201z" />
  </g>

</svg>
