<?xml version="1.0" standalone="no"?>
<!DOCTYPE svg PUBLIC "-//W3C//DTD SVG 1.1//EN" "http://www.w3.org/Graphics/SVG/1.1/DTD/svg11.dtd" >
<svg xmlns="http://www.w3.org/2000/svg" xmlns:xlink="http://www.w3.org/1999/xlink" version="1.1" viewBox="0 -36 256 256">
  <g transform="matrix(1 0 0 -1 0 220)">
   <path fill="currentColor"
d="M28 239q30 -17 29 -27.5t-6 -14t-8.5 8.5t-16.5 30zM52.5 135.5q-0.5 -12.5 0 -26.5t-6 -13t-9.5 7.5t1 17.5t0.5 17t-18.5 9v4q12 -1 18 0t11 7t31 64l5 -2q-32 -72 -32.5 -84.5zM97 191q0 24 -1 49l14 -7h95l11 12l17 -19h-66v-18h32l9 10l14 -17h-55v-19h30l10 10
l14 -17h-54v-21l48 1l6 9l15 -12l-7 -7q-4 -29 -9.5 -41.5t-22.5 -18.5q-3 8 -8 12t-17 8v4q21 -4 26.5 -3t9 6.5t7.5 35.5l-105 -2v-4l-14 -3q1 28 1 52zM110 208h44v18h-44v-18zM110 182h44v19h-44v-19zM110 153l44 1v21h-44v-22zM177 31h39q7 1 8.5 11.5t2.5 31.5h5
q0 -20 2 -29.5t9 -12.5q-8 -14 -24 -14h-45q-20 0 -20 21v68h-56q-1 -35 -9.5 -52.5t-25 -27.5t-42.5 -19l-1 4q34 17 46.5 31.5t15 34.5t1.5 44l16 -8h54l6 9l15 -11l-7 -8v-62q0 -11 10 -11z" />
  </g>

</svg>
