<?xml version="1.0" standalone="no"?>
<!DOCTYPE svg PUBLIC "-//W3C//DTD SVG 1.1//EN" "http://www.w3.org/Graphics/SVG/1.1/DTD/svg11.dtd" >
<svg xmlns="http://www.w3.org/2000/svg" xmlns:xlink="http://www.w3.org/1999/xlink" version="1.1" viewBox="0 -154 1024 1024">
  <g transform="matrix(1 0 0 -1 0 870)">
   <path fill="currentColor"
d="M579 696h295v233h-295v-233zM530 986l38 -38h289l35 41l48 -49q14 -11 -6 -16l-18 -9v-168l4 -70q6 -43 -46 -44v44h-129v-206h114l32 41l68 -48q17 -12 -6 -12h-208v-303q33 -5 95 -6h103q26 0 66 -1v-13q-61 1 -87 -34q-61 -2 -138 2q-76 5 -135 47q-52 38 -95 179
q-20 -81 -50 -127q-58 -95 -164 -154l-6 13q174 136 193 345q13 110 11 119q-1 9 -20 29l8 5l80 -23q15 -12 6 -16q-21 -3 -32 -19q-7 -75 -18 -134q53 -139 92 -169q26 -22 49 -32v517h-124v-26q2 -37 -49 -44q6 38 7 134v193q2 15 -19 37zM229 782l5 11q63 -26 87 -74
q23 -61 -15 -64q-16 2 -18 26q-1 24 -15 49q-12 25 -44 52zM364 480h-174v-108h174v108zM190 496h174v114h-174v-114zM294 272l4 14q120 -52 115 -127q-5 -21 -22 -23t-23 34q-4 17 -9 32q-70 -45 -113 -76q-42 -30 -57 -46t-21 -40l-54 53q15 7 30 27v489q-3 16 -15 41
q-45 -54 -103 -105l-8 10q132 154 200 313q35 78 31 89t-15 26l6 8l89 -32q12 -9 -2 -13q-21 -3 -38 -19l-9 -21q66 -23 96 -45q48 -40 58 -76t-18 -45q-16 -4 -28 31q-11 36 -35 65q-21 26 -80 55q-46 -98 -96 -175q-19 -31 -43 -58l3 2l39 -32h173l27 37l52 -41
q12 -10 -6 -17l-16 -11v-180l4 -69q0 -39 -46 -35v42h-174v-227q84 54 159 94q-2 4 -5 8q-18 24 -50 43z" />
  </g>

</svg>
