<?xml version="1.0" standalone="no"?>
<!DOCTYPE svg PUBLIC "-//W3C//DTD SVG 1.1//EN" "http://www.w3.org/Graphics/SVG/1.1/DTD/svg11.dtd" >
<svg xmlns="http://www.w3.org/2000/svg" xmlns:xlink="http://www.w3.org/1999/xlink" version="1.1" viewBox="0 -144 1024 1024">
  <g transform="matrix(1 0 0 -1 0 880)">
   <path fill="currentColor"
d="M325 482l-15 25l-18 24l-22 24l-21 20v-500l-65 -32v504l-28 -73l-21 -46l-22 -44l-25 -43l-28 -41l-29 -39l-8 5l39 88l35 90l31 94l12 48l12 49l10 51l5 34h-140v21h157v242l65 -10l16 -11l-16 -10v-211h24l54 54l65 -54v-21h-143v-127l20 -6l17 -7l16 -8l16 -10l15 -9
l15 -11l13 -12l25 -26l4 -24l-13 -21l-25 -4l-20 14zM761 430l3 4l1 -1l28 24l59 -49l-27 -16l-14 -6l-23 -39l-37 -52l-41 -48l-19 -18l15 -12l37 -23l40 -20l43 -14l47 -11l49 -6l56 -7l-64 -64l-56 11l-52 17l-48 21l-44 26l-40 31l-18 19l-38 -30l-51 -32l-53 -27
l-57 -22l-61 -17l-63 -9l-2 9l59 20l56 23l51 27l49 30l44 34l34 32l-15 19l-26 45l-21 49l-9 30l-14 -21l-24 -29l-26 -28l-27 -26l-30 -24l-31 -21l-33 -18l-5 8l50 53l24 26l42 57l36 61l16 32l14 34l13 35l3 8l57 -31l12 -16l-21 -4l-8 -17l-15 -27h175zM751 408h-178
l-9 -16l18 -34l28 -43l29 -37l13 -13l17 18l35 46l32 50zM820 828l65 -11l16 -10l-16 -10v-292l-65 -32v64h-346v-64l-64 -33v388l64 -11l16 -10l-16 -10v-238h346v269zM748 572l-41 43l-46 41l-1 1l-30 -23l-34 -21l-35 -20l-38 -17l-40 -15l-4 9l66 47l31 24l49 45
l-126 95l5 8l34 -12l34 -14l62 -32l22 -13l44 57l37 61l2 5l53 -37l9 -18h-21l-10 -15l-24 -31l-27 -29l-20 -20l46 -33l49 -41l9 -22l-9 -23l-23 -10zM387 865v21h227v104l64 -11l16 -11l-16 -9v-73h108l53 54l65 -54v-21h-517z" />
  </g>

</svg>
