<?xml version="1.0" standalone="no"?>
<!DOCTYPE svg PUBLIC "-//W3C//DTD SVG 1.1//EN" "http://www.w3.org/Graphics/SVG/1.1/DTD/svg11.dtd" >
<svg xmlns="http://www.w3.org/2000/svg" xmlns:xlink="http://www.w3.org/1999/xlink" version="1.1" viewBox="0 -36 256 256">
  <g transform="matrix(1 0 0 -1 0 220)">
   <path fill="currentColor"
d="M69 246l21 -8l-7 -6v-10h19l10 10l15 -17h-44v-18h27l10 10l15 -17h-40l14 -8l-7 -3l-14 -16h17l10 9l15 -16h-48v-20h26l11 9l15 -16h-52q0 -12 1 -26l-15 -6q0 14 1 32h-29q-10 0 -20 -2l-9 9h58v20h-18q-11 0 -20 -2l-10 9h37q-2 15 -13 27h-4q-9 0 -19 -2l-9 9h57v18
h-16q-10 0 -20 -2l-9 9h45q0 9 -1 24zM68 179.5q4 -6.5 -5 -16.5h19q9 23 9 27h-39q12 -4 16 -10.5zM153 227q9 -5 10.5 -10t-5 -10.5t-8 1.5t-16.5 23l1 4q9 -3 18 -8zM186 201q33 -4 40.5 -9t5 -13t-13.5 1t-33 17zM159.5 191.5q9.5 11.5 11.5 24.5t1 30l22 -8l-7 -4
q-1 -9 -3 -21q24 13 34 26l16 -17h-11q-18 -8 -40 -15q-5 -14 -17.5 -24t-39.5 -16l-1 4q25 9 34.5 20.5zM154 158.5q8 -5.5 3.5 -14.5t-8.5 -1t-18 19v4q15 -2 23 -7.5zM152 125q14 12 17.5 27.5t1.5 31.5l19 -6l-5 -5l-1 -12l9 -14q18 19 24 28l14 -16h-9l-26 -16
q15 -20 48 -26v-4q-13 -1 -17 -10q-28 10 -45 48q-6 -23 -24.5 -34.5t-42.5 -16.5l-1 3q24 10 38 22zM135 34q0 -10 1 -21l-16 -5q1 16 1 30v41h-62v-49l-15 -5q1 15 1 35t-1 32l16 -6h61q0 9 -1 18l22 -9l-7 -5v-4h64l6 10l16 -12l-7 -6v-30q0 -20 -24 -27q-1 13 -31 15v5
q29 -1 35 0.5t6 9.5v28h-65v-45z" />
  </g>

</svg>
