<?xml version="1.0" standalone="no"?>
<!DOCTYPE svg PUBLIC "-//W3C//DTD SVG 1.1//EN" "http://www.w3.org/Graphics/SVG/1.1/DTD/svg11.dtd" >
<svg xmlns="http://www.w3.org/2000/svg" xmlns:xlink="http://www.w3.org/1999/xlink" version="1.1" viewBox="0 -204 1024 1024">
  <g transform="matrix(1 0 0 -1 0 820)">
   <path fill="currentColor"
d="M774 413v-316h88l47 51l72 -55q8 -6 5.5 -15.5t-12.5 -9.5l-331 1q-50 0 -95 -6l-20 43q37 -6 51.5 -7.5t63.5 -1.5h84v316h-40q-52 0 -95 -5l-20 43q59 -9 114 -9h147l47 48l61 -48q15 -13 10.5 -20.5t-12.5 -7.5zM564 618q-1 -35 -1.5 -65.5t-2 -58t-6.5 -78.5
t-11 -88.5t-16 -79.5t-30 -100t-69 -137l-21 12q27 54 52.5 126.5t35.5 150.5t14 131.5t5 81.5l1 69v219q0 24 -2 58.5t-4 45.5l-5 28l70 -36h302l31 36l36 -25q8 -6 13.5 -11.5t6.5 -11t-3 -11.5l-16 -10l-12 -7v-197l24 -17q10 -8 6.5 -16.5t-19.5 -8.5h-379zM565 645h319
v223h-319v-223zM229 590q0 10 -1 12l-1 7l52 -12q25 -6 33.5 -10.5t10 -15t-20.5 -15.5l-23 -6v-100h63l44 49l65 -49q10 -9 8 -18q-3 -9 -12 -9h-168v-217q26 5 73.5 13.5t115.5 27.5l4 -22q-16 -6 -30.5 -11t-57.5 -17t-72 -20t-40.5 -11t-52.5 -12.5t-71 -16t-45 -9.5
q-3 -22 -11.5 -29t-14 -1t-15.5 27l-23 50q54 4 74 5.5t118 15.5v227h-75q-35 0 -88 -4l-21 44q45 -13 109 -13h75v83q0 12 -0.5 19.5t-1.5 37.5zM182 750v-33q0 -21 3 -45.5t3 -32.5q-3 -21 -25 -21q-20 -1 -24 5t-4 26l-1 101h-17l-21 -2l-26 1q-1 -1 -13 -2l-12 -1
l-20 43q70 -9 94 -9h15v69q0 38 -6 80l58 -11q29 -6 34 -9.5t6.5 -11t-5 -14t-14.5 -9.5l-25 -8v-86h132v68l-4 61q-1 11 -1 13l-1 6l53 -11q42 -9 43 -19t-5 -15.5t-10 -6.5l-28 -10v-86h18l45 50l58 -57q9 -9 4.5 -16t-15.5 -7h-110v-33q0 -21 3 -45.5t2 -32.5
q-2 -20 -24 -21q-24 -2 -28 13v15v104h-132z" />
  </g>

</svg>
