<?xml version="1.0" standalone="no"?>
<!DOCTYPE svg PUBLIC "-//W3C//DTD SVG 1.1//EN" "http://www.w3.org/Graphics/SVG/1.1/DTD/svg11.dtd" >
<svg xmlns="http://www.w3.org/2000/svg" xmlns:xlink="http://www.w3.org/1999/xlink" version="1.1" viewBox="0 -36 256 256">
  <g transform="matrix(1 0 0 -1 0 220)">
   <path fill="currentColor"
d="M65.5 225.5q7.5 -8.5 1.5 -17.5t-11.5 2.5t-25.5 28.5l1 3q27 -8 34.5 -16.5zM11 185q32 -12 34.5 -22t-3.5 -15t-9.5 6t-22.5 28zM39 88q7 4 46 115l6 -1q-31 -95 -35.5 -107.5t-5.5 -24t0.5 -36.5t-9.5 -20t-8 23t3 28.5t-24 16.5v4q20 -2 27 2zM207 160
q-101 -7 -111 -16l-7 21q10 3 27.5 27t27.5 52l20 -13q-9 -7 -30 -33.5t-31 -34.5l102 3q-12 25 -26 42l4 3q34 -32 41.5 -45.5t0 -23t-11.5 2.5q-1 3 -6 15zM122 88l3 1q21 -32 25.5 -47t-2.5 -25.5t-8.5 -0.5t-4.5 23q-56 -13 -63 -20l-9 21q9 0 22 32t19 64l19 -11
q-5 -8 -17.5 -34.5t-27.5 -51.5l56 5q-5 27 -12 44zM218 124q-9 -7 -22 -37t-25 -49l56 4q-6 25 -12 43l3 2q21 -29 25 -44.5t-2.5 -25.5t-8 -4t-3.5 24q-52 -10 -62 -19l-10 21q8 0 22 37.5t17 59.5z" />
  </g>

</svg>
