<?xml version="1.0" standalone="no"?>
<!DOCTYPE svg PUBLIC "-//W3C//DTD SVG 1.1//EN" "http://www.w3.org/Graphics/SVG/1.1/DTD/svg11.dtd" >
<svg xmlns="http://www.w3.org/2000/svg" xmlns:xlink="http://www.w3.org/1999/xlink" version="1.1" viewBox="0 -36 256 256">
  <g transform="matrix(1 0 0 -1 0 220)">
   <path fill="currentColor"
d="M122 245l23 -9l-9 -6v-9h49l11 11l18 -18h-78v-20h65l11 9l19 -16h-173q-10 0 -20 -2l-9 9h94v20h-49q-10 0 -20 -2l-9 9h78q0 12 -1 24zM122 186l22 -9l-8 -5v-6h56l12 9l17 -16h-85v-20h71l13 11l16 -18h-183q-10 0 -20 -2l-9 9h99v20h-56q-11 0 -20 -2l-9 9h85
q0 8 -1 20zM78 67q-32 -24 -66 -36l-2 3q28 14 52 33.5t38 39.5h-60q-11 0 -20 -2l-9 9h203l14 12l18 -19h-127q-13 -15 -30 -31h98l10 9l14 -14l-8 -5q0 -26 1 -49l-16 -6v15h-96v-11l-15 -7q1 28 1 59zM92 33h96v36h-96v-36z" />
  </g>

</svg>
