<?xml version="1.0" standalone="no"?>
<!DOCTYPE svg PUBLIC "-//W3C//DTD SVG 1.1//EN" "http://www.w3.org/Graphics/SVG/1.1/DTD/svg11.dtd" >
<svg xmlns="http://www.w3.org/2000/svg" xmlns:xlink="http://www.w3.org/1999/xlink" version="1.1" viewBox="0 -120 1000 1000">
  <g transform="matrix(1 0 0 -1 0 880)">
   <path fill="currentColor"
d="M390 481q53 87 94 194q47 125 69 254l67 -28q28 -12 28 -21t-15 -12l-17 -3q-25 -74 -65 -166l14 -2q15 -2 15 -13q0 -9 -11 -14l-11 -5v-597l-61 -6v537q-54 -86 -92 -130zM913 274l-6 -91v-7q0 -36 41 -47q-7 -19 -16 -30q-14 -17 -66 -18h-114q-47 0 -63 8
q-25 11 -26 49v310q-47 -38 -78 -60l-10 16q35 28 88 83v451l71 -10q30 -4 30 -17q0 -7 -18 -15l-22 -9v-329q97 116 155 234l60 -57q9 -9 9 -18q0 -3 -4 -6.5t-8 -2.5h-2l-21 3q-20 -24 -76 -89q-51 -61 -113 -119v-347q0 -14 4 -17q4 -4 22 -5h65q30 1 38 11q11 13 23 58
l18 71h19zM54 231q63 88 96 168q36 90 61 185h-149l-10 28h160v347l75 -7q21 -2 21 -15q0 -11 -12 -16l-21 -8v-301h54l35 46l74 -52v-22h-163v-71q122 -46 122 -106q0 -12 -10 -20q-9 -7 -19 -7q-14 0 -22 15q-31 63 -71 97v-421l-63 -11v350q-48 -88 -144 -190zM66 860
l14 8q88 -82 88 -158q0 -49 -32 -49q-22 0 -26 41q-4 49 -14 82q-9 32 -30 76zM300 670q33 96 58 219l72 -28q11 -5 11 -12q0 -10 -14 -12l-15 -2l-5 -10q-44 -86 -92 -163z" />
  </g>

</svg>
