<?xml version="1.0" standalone="no"?>
<!DOCTYPE svg PUBLIC "-//W3C//DTD SVG 1.1//EN" "http://www.w3.org/Graphics/SVG/1.1/DTD/svg11.dtd" >
<svg xmlns="http://www.w3.org/2000/svg" xmlns:xlink="http://www.w3.org/1999/xlink" version="1.1" viewBox="0 -205 1024 1024">
  <g transform="matrix(1 0 0 -1 0 819)">
   <path fill="currentColor"
d="M398 151l12 12l30 42q7 9 16 0q71 -63 70 -78q-2 -8 -15 -9h-375q-24 -21 -34 -37q-8 -10 -15 0q-18 22 -34 35q-8 7 1 13q14 8 15 12q3 4 3 14v681q0 51 -7 85q-2 10 2 14q5 3 18 -9q18 -16 39 -29h228l14 2l12 12l30 42q7 9 16 0q71 -63 70 -78q-2 -8 -15 -9h-175v-197
h80q6 0 9 4l18 28q7 8 14 1q29 -19 57 -41q6 -6 5 -12q-3 -6 -13 -7q-12 -2 -18 -12q-4 -9 -4 -22v-156q0 -32 6 -87q2 -12 -7 -16q-35 -20 -42 -20q-5 1 -5 11v50h-100v-241h80zM120 149h136v241h-136v-241zM120 421h284v217h-284v-217zM120 669h136v197h-136v-197z
M636 812q0 -60 -10 -106q-11 -52 -42 -89q-31 -40 -94 -65q-10 -7 -16 0q-7 9 3 19q56 28 75 62q20 36 29 84q7 46 7 95v79q0 42 -4 69q-3 13 3 14q5 2 12 -8q16 -22 38 -41h92q6 1 10 5l23 26q6 8 13 2q33 -24 61 -49q7 -5 1 -9q-29 -19 -30 -22q-3 -6 -3 -22v-194
q0 -8 3 -9q5 -3 12 -3h22q19 0 34 3q15 4 34 14q6 4 10 -2q20 -18 38 -27q8 -4 7 -13t-26 -13q-37 -10 -79 -10h-60q-19 0 -31 12q-12 10 -12 40v240h-120v-82zM505 499q-5 -1 -6 2q-13 19 -23 35q-6 10 7 7q61 -5 88 -6h191q13 0 17 3l27 34q4 8 10 8t10 -6q31 -30 56 -57
q3 -7 -1 -8q-35 -15 -42 -24q-6 -7 -18 -47q-32 -103 -80 -176q-7 -9 -11 -16q32 -37 72 -67q67 -52 149 -74q9 -2 19 -5q6 -1 5 -8q-2 -6 -6 -7q-17 -4 -35 -14q-20 -14 -29 -24q-6 -4 -13 0q-108 65 -156 116q-21 23 -37 45q-31 -33 -68 -64q-72 -56 -177 -98
q-21 -6 -24 9t16 19q72 31 141 85q52 43 86 86q-10 16 -17 32q-44 84 -77 226q-46 1 -74 -6zM783 506h-183q51 -147 94 -211q3 -5 6 -9q50 84 83 220z" />
  </g>

</svg>
