<?xml version="1.0" standalone="no"?>
<!DOCTYPE svg PUBLIC "-//W3C//DTD SVG 1.1//EN" "http://www.w3.org/Graphics/SVG/1.1/DTD/svg11.dtd" >
<svg xmlns="http://www.w3.org/2000/svg" xmlns:xlink="http://www.w3.org/1999/xlink" version="1.1" viewBox="0 -205 1024 1024">
  <g transform="matrix(1 0 0 -1 0 819)">
   <path fill="currentColor"
d="M62 808h234l8 170l74 -30q4 -1 8 -8l-2 -8l-36 -18l-6 -106h150l32 44l60 -50q2 -3 2 -8q1 -12 -10 -12h-234l-8 -120h124l30 40l54 -42q8 -6 8 -12q1 -7 -28 -22v-458q-1 -32 -16 -49q-15 -15 -48 -24q-3 22 -20 34t-70 27l2 18q60 -12 82 -12q21 0 22 30v444h-314v-420
l4 -101q-1 -15 -22 -30q-22 -13 -34 -14l4 137v486l48 -32h130l6 120h-150q-22 0 -70 -8l-14 34v0v0zM418 592q12 -5 12 -10q0 -6 -8 -8q-12 -1 -24 -10q-10 -8 -64 -88h36l28 36l42 -40q3 -4 6 -10q0 -10 -8 -10h-104v-100h42l32 36l44 -42q3 -3 4 -6q0 -12 -8 -12h-114
v-100l4 -78q0 -12 -20 -25q-19 -13 -32 -14l4 113v104h-54q-18 0 -42 -8l-18 32h114v100h-42q-20 0 -46 -8l-16 32h122q39 81 66 142l44 -26v0v0zM206 598l8 10q45 -27 60 -48q16 -19 14 -38q0 -19 -12 -26q-9 -6 -18 -2q-9 3 -12 18q0 15 -6 34q-5 18 -34 52v0v0zM688 794
q2 64 2 182l76 -32q7 -3 6 -12q0 -3 -32 -18q-1 -72 -2 -122q0 -52 -6 -130h136l36 50l56 -56q3 -3 4 -8q0 -12 -12 -12h-178q15 -216 42 -294q23 -78 62 -138q36 -59 102 -87v-16h-48t-48 -18q-36 50 -60 103q-23 51 -46 142q-21 90 -26 304h-22q-6 -175 -30 -274
q-21 -99 -68 -180q-45 -77 -164 -151l-12 16q104 69 146 155q39 83 58 176q15 90 24 262h-32q-21 0 -68 -8l-16 34h116q3 69 4 132v0v0zM776 890l8 12q48 -23 82 -46q32 -23 38 -46t-2 -40q-9 -18 -24 -18q-16 0 -22 22q-5 20 -16 44t-64 72v0v0z" />
  </g>

</svg>
