<?xml version="1.0" standalone="no"?>
<!DOCTYPE svg PUBLIC "-//W3C//DTD SVG 1.1//EN" "http://www.w3.org/Graphics/SVG/1.1/DTD/svg11.dtd" >
<svg xmlns="http://www.w3.org/2000/svg" xmlns:xlink="http://www.w3.org/1999/xlink" version="1.1" viewBox="0 -36 256 256">
  <g transform="matrix(1 0 0 -1 0 220)">
   <path fill="currentColor"
d="M60 221l15 -10h71q-1 7 -4.5 16t-8.5 15l2 2q15 -9 21.5 -16.5t-3.5 -16.5h55l13 12l18 -19h-164q0 -45 -1 -76t-12 -63t-43 -57l-2 5q39 40 44 112q-28 -20 -37 -34l-13 15q17 5 50 24q0 67 -1 91zM43.5 172.5q5.5 -8.5 -2 -17t-10 6.5t-11.5 29l2 3q16 -13 21.5 -21.5z
M112 200l16 -11l-6 -4q-12 -20 -29 -39h28q6 10 11 23l15 -12l-8 -5q-21 -30 -43 -52q19 2 34 4q-2 6 -8 16l2 2q15 -10 19 -17.5t-0.5 -14t-6.5 -5t-5 13.5q-23 -4 -42 -14l-8 15q9 3 18.5 14t19.5 28q-21 -5 -33 -10l-5 14q6 3 14 16.5t17 37.5zM86 69q3 -26 0 -38
t-13.5 -11t-2 11t11.5 38h4zM102 76q12 -14 14 -26t-6 -17t-6.5 8.5t-3.5 32.5zM121 82l2 2q12 -10 16.5 -20t-2 -17.5t-8 6.5t-8.5 29zM170 15l-12 -7q1 17 1 62q-9 -31 -29 -48l-2 1q11 15 17 36t7.5 44t0.5 75l11 -2q36 10 52 21l16 -17h-20q-24 -5 -46 -7v-10h54l8 8
l12 -11l-7 -6q0 -14 1 -30l-13 -5v6h-56q0 -12 -1 -24h60l7 8l12 -11l-6 -6v-65q0 -9 -2.5 -13t-11.5 -6q-3 10 -20 14v3q14 -2 18.5 -1.5t3.5 5.5v32h-12v-28l-10 -5v33h-11v-33l-10 -4v37h-12v-46zM165 131h56v25h-56v-25zM170 67h12v27h-12v-27zM192 67h11v27h-11v-27z
M213 67h12v27h-12v-27z" />
  </g>

</svg>
