<?xml version="1.0" standalone="no"?>
<!DOCTYPE svg PUBLIC "-//W3C//DTD SVG 1.1//EN" "http://www.w3.org/Graphics/SVG/1.1/DTD/svg11.dtd" >
<svg xmlns="http://www.w3.org/2000/svg" xmlns:xlink="http://www.w3.org/1999/xlink" version="1.1" viewBox="0 -36 256 256">
  <g transform="matrix(1 0 0 -1 0 220)">
   <path fill="currentColor"
d="M21 72q15 -31 15.5 -39.5t-5.5 -13t-11 -3.5t-1 11t-1 44zM44 76l3 2q22 -28 22 -36t-7.5 -14.5t-8 5.5t-9.5 43zM72 86q26 -23 28 -31t-5 -15.5t-9.5 5t-16.5 39.5zM53.5 206.5q-12.5 -20.5 -28.5 -40.5l40 2q7 12 12 25l15 -16q-4 0 -25 -27.5t-42 -46.5l54 5
q-5 13 -13 28l3 2q30 -24 30 -34t-6 -15.5t-7 0.5t-5 14q-29 -6 -42.5 -10.5t-18.5 -9.5l-11 21q5 0 20.5 16.5t32.5 41.5q-16 -3 -25.5 -5.5t-18.5 -8.5l-9 18q8 2 21.5 25t21.5 50l19 -13q-5 -1 -17.5 -21.5zM204.5 30q8.5 0 10.5 13t2.5 52t0.5 63h-84q-19 -21 -38 -35
l-3 3q23 25 31.5 36.5t11.5 25.5l19 -11q-8 -4 -16 -12h77l10 9l15 -14l-9 -6q0 -72 -1 -92.5t-5.5 -33t-21.5 -20.5q1 12 -32 23l1 4q23 -5 31.5 -5zM114 87.5q0 24.5 -1 48.5l15 -9h46l8 11l14 -16l-8 -5q0 -51 1 -65l-14 -8v11h-48v-8l-14 -7q1 23 1 47.5zM127 96h48v24
h-48v-24zM127 62h48v27h-48v-27zM166 204h-32v-24l-14 -7q1 15 1 31h-12q-5 0 -14 -3l-7 10h33q0 24 -1 35l18 -9l-4 -8v-18h9l9 10zM166 212h25q0 19 -1 33l21 -10l-7 -7v-16h16l12 9l13 -16h-41q0 -7 1 -22l-14 -6v28h-8q-5 1 -11 -2z" />
  </g>

</svg>
