<?xml version="1.0" standalone="no"?>
<!DOCTYPE svg PUBLIC "-//W3C//DTD SVG 1.1//EN" "http://www.w3.org/Graphics/SVG/1.1/DTD/svg11.dtd" >
<svg xmlns="http://www.w3.org/2000/svg" xmlns:xlink="http://www.w3.org/1999/xlink" version="1.1" viewBox="0 -36 256 256">
  <g transform="matrix(1 0 0 -1 0 220)">
   <path fill="currentColor"
d="M107 243l2 3q41 -17 19 -33h66l15 12l18 -19h-95q-1 -74 -2.5 -89t-1.5 -11q8 -13 22.5 -30.5t39 -31t52.5 -17.5v-4q-16 0 -22 -14q-23 9 -50.5 32.5t-42.5 57.5q-4 -18 -16 -33.5t-35.5 -30.5t-63.5 -26l-1 4q41 16 68 38t33.5 47t5.5 108h-64q-10 0 -19 -2l-9 9h96
q-1 12 -15 30zM213 88l14 14l17 -21h-199q-13 0 -22 -3l-10 10h200zM92 125l13 -17h-50v-10l-14 -2q1 14 1 42t-1 45l14 -7q26 8 39 19l13 -15q-12 0 -52 -10v-21h22l13 9l13 -16h-48v-27h24zM195 115v27h-15q-13 0 -22 -3l-10 10h47v26h-20q-13 0 -22 -3l-10 10h51l6 9
l15 -11l-7 -7v-42q0 -16 1 -28l-14 -5v10h-18q-13 0 -22 -3l-10 10h50z" />
  </g>

</svg>
