<?xml version="1.0" standalone="no"?>
<!DOCTYPE svg PUBLIC "-//W3C//DTD SVG 1.1//EN" "http://www.w3.org/Graphics/SVG/1.1/DTD/svg11.dtd" >
<svg xmlns="http://www.w3.org/2000/svg" xmlns:xlink="http://www.w3.org/1999/xlink" version="1.1" viewBox="0 -205 1024 1024">
  <g transform="matrix(1 0 0 -1 0 819)">
   <path fill="currentColor"
d="M842 932l64 -42q8 -3 8 -12q1 -2 -34 -22v-116l4 -74q1 -12 -18 -24q-18 -13 -36 -14v56h-390q-1 -162 -14 -270t-52 -200q-37 -91 -134 -179l-10 12q72 87 106 183q33 93 46 196q10 102 8 258v250l54 -44h368l30 42v0v0zM440 862v-150h390v150h-390v0v0zM732 648
q2 -7 2 -10q0 -1 -6 -8l-36 -16v-90h182l40 50l54 -54q6 -6 6 -12q3 -10 -12 -10h-270v-142h120l32 42l56 -38q12 -6 12 -14q0 -5 -32 -28v-176l4 -71q2 -15 -16 -24q-19 -11 -38 -14v72h-300v-44q-1 -12 -22 -24q-21 -13 -32 -12l4 110v257l48 -36h116v142h-146
q-21 0 -44 -8l-16 34h206v154l88 -30v0v0zM530 133h300v197h-300v-197v0v0zM332 932q7 -6 6 -8q-1 -5 -10 -10q-28 -8 -44 -40q-42 -94 -80 -172l40 -14q9 -3 10 -8q6 -9 -24 -24v-476l4 -99q-1 -11 -22 -26q-21 -13 -36 -12l4 131v478q-78 -142 -144 -214l-10 10
q88 143 152 296q62 153 80 228l74 -40v0v0z" />
  </g>

</svg>
