<?xml version="1.0" standalone="no"?>
<!DOCTYPE svg PUBLIC "-//W3C//DTD SVG 1.1//EN" "http://www.w3.org/Graphics/SVG/1.1/DTD/svg11.dtd" >
<svg xmlns="http://www.w3.org/2000/svg" xmlns:xlink="http://www.w3.org/1999/xlink" version="1.1" viewBox="0 -36 256 256">
  <g transform="matrix(1 0 0 -1 0 220)">
   <path fill="currentColor"
d="M117 180h17v21h-17v-21zM117 153h17v20h-17v-20zM117 126h17v20h-17v-20zM152 229q2 -5 -4 -12t-7.5 2.5t-12.5 25.5l3 2q19 -13 21 -18zM94 164l-3 2q18 37 23 73l18 -12q-8 -4 -15 -19h34l8 9l13 -16h-26v-21h4l7 8l8 -15h-19v-20h4l8 8l10 -15h-22v-20h7l7 10l12 -17
h-55v-10l-12 -6v79q-4 -8 -11 -18zM188 126h17v20h-17v-20zM188 153h17v20h-17v-20zM188 180h17v21h-17v-21zM166 164l-3 2q8 17 13.5 38t6.5 33l16 -11q-6 -5 -11 -18h33l10 10l13 -17h-27v-21h3l9 9l12 -16h-24v-20h3l8 9l13 -16h-24v-20h3l10 10l13 -17h-55v-10l-12 -6
q1 19 1 79q-5 -8 -11 -18zM221.5 230.5q4.5 -5.5 -1 -14t-9 3.5t-14.5 25l3 2q17 -11 21.5 -16.5zM134 64q10 16 14 30h-26q-10 0 -19 -2l-8 9h53l8 8l12 -12l-7 -6q-9 -22 -17 -33q22 -14 24 -20.5t-1 -12.5t-9.5 3t-20.5 21q-20 -26 -59 -42l-2 3q34 20 51 46
q-15 11 -29 20l2 3q17 -6 34 -15zM149 10q33 19 44 36q-10 17 -16 46l-5 -2l-6 10h49l8 8l13 -13l-8 -5q-8 -28 -19 -44q19 -20 39 -22v-4q-8 1 -17 -11q-16 11 -30 27q-19 -19 -50 -29zM183 93q5 -22 18 -39q11 20 14 39h-32zM34 123h38v51h-38v-51zM45 75.5q3 -9.5 -4 -18
t-8 4.5t-9 37l2 1q16 -15 19 -24.5zM75 219l12 11l13 -18h-63q-15 1 -23 -2l-5 9h66zM99 64v-5q-32 -12 -54 -23t-27 -17l-9 19q10 1 24 5t29 9q10 40 10 54l15 -12q-4 -5 -8.5 -13.5t-10.5 -26.5zM35 181h37l6 8l12 -12l-7 -6v-29q0 -8 1 -27l-12 -6v7h-38v-4l-12 -7
q1 19 1 41.5t-1 42.5z" />
  </g>

</svg>
