<?xml version="1.0" standalone="no"?>
<!DOCTYPE svg PUBLIC "-//W3C//DTD SVG 1.1//EN" "http://www.w3.org/Graphics/SVG/1.1/DTD/svg11.dtd" >
<svg xmlns="http://www.w3.org/2000/svg" xmlns:xlink="http://www.w3.org/1999/xlink" version="1.1" viewBox="0 -36 256 256">
  <g transform="matrix(1 0 0 -1 0 220)">
   <path fill="currentColor"
d="M59 156h45l13 9l17 -16h-52q12 -3 15.5 -6.5t3.5 -8.5t-5.5 -6.5t-8.5 4t-5.5 9t-8.5 8.5h-20q-14 -13 -38 -27l-3 3q22 17 32.5 31t14.5 22l21 -11l-10 -1q-3 -4 -11 -10zM113 125l-2 3q11 10 23 21.5t23 29.5l20 -12h-8q-7 -5 -13 -11h54l11 9l16 -16h-62
q14 -3 19.5 -6.5t5.5 -8.5t-7 -7t-10.5 6t-12.5 16h-20q-17 -14 -37 -24zM80 132l23 -9l-9 -6v-6h31l7 9l16 -16h-54v-13h36l10 8l16 -15h-48l16 -6l-8 -4l-15 -13h19l10 10l18 -17h-54v-14h34l11 11l18 -18h-63q0 -8 1 -21l-15 -5v26h-35q-12 0 -22 -2l-11 9h68v14h-24
q-12 0 -23 -1l-10 8h43q-6 17 -16 23h-4q-13 1 -23 -2l-10 9h67v13h-15q-13 0 -24 -2l-10 9h49v21zM76 74.5q4 -5.5 -5 -13.5h22q9 19 9 23h-45q15 -4 19 -9.5zM182 89q21 -56 63 -67v-4q-15 -2 -19 -10q-35 27 -45 74q-1 -20 -17 -43t-45 -33l-2 4q27 15 39 36t14 57v10v15
l20 -8l-7 -7zM224 209h-186q0 -17 -8.5 -22t-14.5 0t5 12.5t13 29.5h5v-13h88q-1 8 -6 13l-14 14l1 4q25 -7 31.5 -13.5t-3.5 -17.5h87l8 10l18 -17q-14 -2 -32 -26l-3 3zM95 216h14q2 -25 -18.5 -33.5t-65.5 -7.5v5q42 4 57 10.5t13 25.5zM159 216v-16q-2 -13 17 -12
q36 0 37.5 3t11.5 -9q-2 -5 -29 -5h-26q-25 -2 -25 15v24h14z" />
  </g>

</svg>
