<?xml version="1.0" standalone="no"?>
<!DOCTYPE svg PUBLIC "-//W3C//DTD SVG 1.1//EN" "http://www.w3.org/Graphics/SVG/1.1/DTD/svg11.dtd" >
<svg xmlns="http://www.w3.org/2000/svg" xmlns:xlink="http://www.w3.org/1999/xlink" version="1.1" viewBox="0 -36 256 256">
  <g transform="matrix(1 0 0 -1 0 220)">
   <path fill="currentColor"
d="M41 155h61v20h-61v-20zM116 146l-14 -5v7h-61v-6l-14 -4q1 15 1 51.5t-1 48.5l14 -8h61l8 8l11 -12l-6 -6v-41q0 -19 1 -33zM41 207h61v16h-61v-16zM41 182h61v18h-61v-18zM91 98l-3 2q17 25 21 42l15 -11l-7 -5q-6 -8 -26 -28zM87 138l-7 -7v-38h32l10 10l12 -17h-39
v-48q0 -9 16 -10h106q13 0 14.5 7.5t2.5 19.5h3q0 -15 2.5 -20.5t6.5 -9.5q-9 -10 -28 -9h-114q-22 0 -22 20v50h-19q0 -19 -9 -39t-43 -39l-3 3q25 19 33 37t8 38h-17l-11 -3l-10 10h57v37q0 5 -1 16zM52 120q4 -6 -2 -13t-8.5 2t-15.5 26l3 2q19 -11 23 -17zM141 218h85
l6 9l14 -14q-13 -4 -26 -16l-3 1l7 13h-83q-2 -10 -7.5 -14.5t-11 -1t2 10t11.5 22.5l5 -1v-9zM187.5 234q3.5 -5 -1 -12t-7.5 -1.5t-6.5 11t-9.5 10.5l3 3q18 -6 21.5 -11zM193 207l23 -7l-9 -6v-7h11l11 9l14 -16h-36v-36q0 -11 -17 -16q-2 10 -26 14v3q19 -2 24.5 -1.5
t5.5 5.5v31h-37q-17 1 -28 -2l-9 9h74q0 11 -1 20zM163 164.5q4 -6.5 -2.5 -12t-7.5 0.5t-5.5 13.5t-8.5 10.5l2 2q18 -8 22 -14.5zM150 54h64v19h-64v-19zM228 45l-14 -6v8h-64v-7l-13 -4q1 18 1 52.5t-1 47.5l14 -8h63l7 7l12 -11l-6 -5v-42q0 -19 1 -32zM150 105h64v16
h-64v-16zM150 80h64v18h-64v-18z" />
  </g>

</svg>
