<?xml version="1.0" standalone="no"?>
<!DOCTYPE svg PUBLIC "-//W3C//DTD SVG 1.1//EN" "http://www.w3.org/Graphics/SVG/1.1/DTD/svg11.dtd" >
<svg xmlns="http://www.w3.org/2000/svg" xmlns:xlink="http://www.w3.org/1999/xlink" version="1.1" viewBox="0 -143 1024 1024">
  <g transform="matrix(1 0 0 -1 0 881)">
   <path fill="currentColor"
d="M131 264q27 118 25 334v218l59 -46h266v222l93 -27q4 -6 4 -9t-6 -7l-40 -9v-54h247l38 44l61 -52q3 -4 3 -8q0 -8 -9 -8h-340v-92h361l29 29l50 -45q14 -10 12 -17q-1 -4 -13 -7q-36 -8 -60.5 -26t-69.5 -56l-12 10l60 86h-684v-158q-4 -236 -38.5 -350.5t-129.5 -205.5
l-12 10q79 105 106 224zM560 701q13 -7 2 -16l-35 -10v-56l195 16l29 41l65 -47q4 -12 -12 -14l-277 -22v-72q2 -23 13.5 -25t42.5 -2h198q44 0 55 10t15 25t10 89h18q2 -28 4 -62t30 -50q-10 -24 -30 -38t-54 -14h-309q-30 6 -37 23t-7 41v70l-186 -14q-12 -2 -31 -12
l-31 34l250 18v108zM384 374h412l26 42l62 -43q11 -5 11 -12.5t-31 -28.5v-161l4 -83q0 -18 -15 -30t-42 -14v66h-423v-32q0 -17 -21 -28.5t-36 -10.5l4 105v260zM388 136h423v212h-423v-212z" />
  </g>

</svg>
