<?xml version="1.0" standalone="no"?>
<!DOCTYPE svg PUBLIC "-//W3C//DTD SVG 1.1//EN" "http://www.w3.org/Graphics/SVG/1.1/DTD/svg11.dtd" >
<svg xmlns="http://www.w3.org/2000/svg" xmlns:xlink="http://www.w3.org/1999/xlink" version="1.1" viewBox="0 -36 256 256">
  <g transform="matrix(1 0 0 -1 0 220)">
   <path fill="currentColor"
d="M32 109h19v73h-19v-73zM65 109h19v73h-19v-73zM74 86l3 3q24 -25 25.5 -32.5t-4.5 -15t-7 0t-4 14.5q-25 -9 -44.5 -17t-25.5 -13l-8 18q9 0 42 9v49h-19v-7l-14 -7q1 22 1 53.5t-1 55.5l14 -8h19q0 42 -1 58l21 -10l-6 -9v-39h18l7 8l11 -14l-5 -5q0 -60 1 -77l-13 -8v9
h-19v-46l20 5q-4 9 -11 25zM147 80q-13 1 -24 -2l-9 9h51q0 16 -1 44l22 -12l-8 -7v-25h26l13 13l16 -20h-55v-56h38l15 12l16 -19h-122q-13 1 -24 -2l-9 9h73v56h-18zM172 160q13 15 23 40h-50l-2 -4q18 -27 29 -36zM107 160q28 38 40 87l19 -11l-6 -4q-5 -11 -12 -25h64
l12 11l15 -18h-29q-11 -30 -28 -48q24 -17 65 -20v-4q-17 1 -22 -11q-29 8 -52 26q-28 -23 -74 -30l-1 4q46 14 66 35q-10 12 -24 40q-11 -17 -30 -34z" />
  </g>

</svg>
