<?xml version="1.0" standalone="no"?>
<!DOCTYPE svg PUBLIC "-//W3C//DTD SVG 1.1//EN" "http://www.w3.org/Graphics/SVG/1.1/DTD/svg11.dtd" >
<svg xmlns="http://www.w3.org/2000/svg" xmlns:xlink="http://www.w3.org/1999/xlink" version="1.1" viewBox="0 -205 1024 1024">
  <g transform="matrix(1 0 0 -1 0 819)">
   <path fill="currentColor"
d="M112 948l60 -46h158l28 38l52 -42q9 -6 10 -12q0 -6 -32 -24v-722q3 -41 -8 -67q-9 -26 -62 -44q-4 26 -26 40q-21 16 -84 34l6 18q65 -15 86 -18q18 -1 30 6q10 6 8 31v294h-178q-7 -112 -16 -170q-10 -57 -40 -127q-30 -69 -78 -126l-12 10q39 79 60 141q18 61 30 164
q10 102 8 216v406v0v0zM338 460v190h-176v-190h176v0v0zM164 676h174v200h-174v-200v0v0zM440 876h344l38 44l62 -54q12 -9 12 -18t-32 -18q-27 -4 -66 -70q-153 -249 -210 -350q-57 -102 -80 -152q-23 -48 -18 -84q2 -36 32 -45q29 -9 74 -12h214q36 -1 58 16q19 16 26 67
q6 48 12 156h20q0 -63 4 -120q1 -57 44 -74q-21 -42 -54 -69q-33 -24 -98 -24h-242q-57 0 -90 18q-33 16 -48 53q-16 36 2 90q17 51 58 124q39 74 282 494h-278q-15 0 -44 -8l-22 36v0v0z" />
  </g>

</svg>
