<?xml version="1.0" standalone="no"?>
<!DOCTYPE svg PUBLIC "-//W3C//DTD SVG 1.1//EN" "http://www.w3.org/Graphics/SVG/1.1/DTD/svg11.dtd" >
<svg xmlns="http://www.w3.org/2000/svg" xmlns:xlink="http://www.w3.org/1999/xlink" version="1.1" viewBox="0 -205 1024 1024">
  <g transform="matrix(1 0 0 -1 0 819)">
   <path fill="currentColor"
d="M475 978q5 4 15 -3q49 -32 74 -60q16 -17 17 -33q1 -20 -15 -45q-14 -21 -24 -20q-9 1 -10 19q-4 40 -19 70q-13 27 -38 60q-4 6 0 12zM771 535l18 22q8 12 17 3q21 -18 40 -39q6 -7 5 -11q-1 -5 -11 -6q-8 -1 -11 -7q-3 -7 -3 -11v-232q0 -11 4 -32q1 -9 -3 -12
q-36 -19 -43 -19t-6 10v301h-228v-315q-1 -8 -5 -9q-10 -4 -32 -13q-15 -6 -14 4q2 26 3 51v290q-1 26 -2 45q0 9 4 10q4 3 13 -6q13 -13 31 -26h212q8 -1 11 2zM645 464q54 -17 72 -27q14 -8 1 -14q-19 -11 -23 -20q-7 -18 -7 -79q0 -85 -15 -124q-18 -46 -64 -77
q-53 -36 -194 -76q-19 -6 -23 4q-3 13 10 17q189 56 220 131q28 74 13 252q-2 16 10 13zM716 186q3 9 18 5q55 -22 107 -52q37 -21 41 -37q8 -24 -2 -40q-10 -19 -16 -20q-6 -2 -19 16q-73 86 -121 114q-9 4 -8 14zM838 704q5 2 12 8l21 20q6 6 12 0q35 -21 63 -40
q11 -6 10 -13q-1 -8 -17 -9h-156q17 -26 38 -42q32 -25 78 -46q38 -18 66 -22q5 -2 15 -3q5 -1 5 -7q-1 -7 -7 -8q-20 -5 -36 -15q-23 -13 -27 -23q-4 -5 -14 2q-51 35 -85 72q-32 37 -54 86q-2 5 -3 6h-190q-46 -66 -91 -115q-45 -45 -75 -69q-20 -15 -27 -5q-7 12 3 21
q85 85 124 148l14 20h-34q-27 0 -61 -7q-5 -1 -6 2q-13 20 -23 36q-6 10 7 7q61 -6 68 -7h70q20 33 39 73h-54q-27 0 -61 -7q-5 -1 -6 2q-13 20 -23 36q-6 10 7 7q61 -6 68 -7h83q2 7 5 11q43 103 53 167q0 11 3 12q5 2 9 -1q28 -14 68 -33q8 -5 7 -9q-1 -5 -7 -6
q-33 -12 -36 -16q-4 -4 -17 -44q-17 -44 -33 -81h64q2 3 5 6q27 42 42 76q17 40 29 83q1 6 4 7t9 -2q24 -14 55 -36q3 -2 2 -5q0 -3 -3 -4q-39 -22 -46 -34q-3 -3 -13 -19q-19 -30 -53 -72h49q13 0 19 3q5 2 12 8l21 20q6 6 12 0q35 -21 63 -40q11 -6 10 -13q-1 -8 -17 -9
h-278q-20 -42 -39 -73h229q13 0 19 3zM313 920l25 26q5 7 14 1q31 -23 53 -42q7 -8 -2 -9q-17 -3 -26 -12q-8 -9 -8 -19v-344q1 -68 8 -167q0 -13 -10 -19q-45 -26 -49 -25q-4 2 -3 18q5 58 6 164v390h-204v-359q-1 -107 0 -182q-1 -15 -38 -40q-8 -4 -12 -4q-6 1 -5 20
q4 100 7 206v332q-1 32 -7 78q-2 10 1 11q1 0 40 -31h191q12 0 19 7zM62 58q-14 -11 -20 -4q-7 10 2 17q95 104 128 236q40 230 18 488q-1 16 9 12q52 -16 68 -25q14 -7 1 -14q-4 -1 -7 -4q-21 -11 -21 -96q-1 -258 -26 -363q95 -55 147 -107q37 -36 38 -58q1 -24 -12 -39
q-14 -15 -20 -15q-6 1 -15 20q-65 123 -143 177q-35 -117 -147 -225z" />
  </g>

</svg>
