<?xml version="1.0" standalone="no"?>
<!DOCTYPE svg PUBLIC "-//W3C//DTD SVG 1.1//EN" "http://www.w3.org/Graphics/SVG/1.1/DTD/svg11.dtd" >
<svg xmlns="http://www.w3.org/2000/svg" xmlns:xlink="http://www.w3.org/1999/xlink" version="1.1" viewBox="0 -205 1024 1024">
  <g transform="matrix(1 0 0 -1 0 819)">
   <path fill="currentColor"
d="M488 858q87 -36 90 -42q3 -5 -2 -10q-7 -5 -38 -16v-164l130 34v322q92 -36 94 -44q2 -7 -4 -10l-40 -16v-234l134 42l26 48q66 -39 70 -48q3 -9 -2 -12l-30 -20q-1 -267 -10 -300q-7 -34 -28 -50q-18 -15 -48 -24q-6 20 -18 32q-10 9 -70 28l4 18q39 -10 66 -14
q24 -3 36 10q10 12 14 36q3 24 4 270l-148 -46v-290l4 -80q3 -21 -20 -38q-21 -18 -38 -18l4 156v254l-130 -36v-461q2 -30 14 -34q12 -2 24 -2h292q17 2 32 10q16 7 20 41q6 36 4 138h24q4 -100 14 -124q8 -24 28 -35q-16 -49 -40 -62q-24 -12 -60 -16h-318q-27 0 -48 8
q-19 7 -28 26q-9 18 -8 54v445l-50 -12q-3 -3 -20 -14l-26 30l96 26v244v0v0zM166 972q92 -51 116 -78q21 -28 18 -52q-3 -21 -14 -30q-12 -7 -26 -2q-12 3 -18 28t-20 50q-14 24 -64 72l8 12v0v0zM54 760h252l28 38l54 -50q9 -7 10 -14q1 -6 -16 -8q-21 -3 -42 -36
q-39 -55 -84 -122v-108l26 -8l86 122q53 -36 56 -42q1 -7 -4 -10q-6 -3 -20 -2q-14 0 -100 -74q54 -24 76 -44q18 -21 22 -36t-4 -30q-6 -12 -20 -14q-13 -3 -22 10q-9 12 -18 30q-10 18 -28 36t-50 40v-288l4 -83q1 -12 -18 -30q-20 -18 -40 -18l4 120v365
q-54 -84 -176 -182l-12 12q110 120 146 172q32 51 62 94q27 41 78 134h-180q-24 0 -50 -8l-20 34v0v0z" />
  </g>

</svg>
