<?xml version="1.0" standalone="no"?>
<!DOCTYPE svg PUBLIC "-//W3C//DTD SVG 1.1//EN" "http://www.w3.org/Graphics/SVG/1.1/DTD/svg11.dtd" >
<svg xmlns="http://www.w3.org/2000/svg" xmlns:xlink="http://www.w3.org/1999/xlink" version="1.1" viewBox="0 -205 1024 1024">
  <g transform="matrix(1 0 0 -1 0 819)">
   <path fill="currentColor"
d="M454 936l56 -40h282l30 38l54 -44q6 -6 6 -8q0 -7 -30 -28v-248l4 -64q0 -12 -18 -24q-15 -12 -36 -14v42h-300v-14q1 -12 -16 -26q-18 -12 -36 -12l4 116v326v0v0zM502 572h124v130h-124v-130v0v0zM674 572h128v130h-128v-130v0v0zM502 728h124v142h-124v-142v0v0z
M674 870v-142h128v142h-128v0v0zM552 380v-116q0 -39 12 -44q13 -6 38 -6h132q21 3 30 12q9 8 12 20t4 42q2 30 4 76h16l8 -72q3 -39 34 -56q-9 -28 -30 -46q-22 -16 -52 -20h-184q-32 0 -52 18q-18 15 -18 66v192l80 -30q6 -6 4 -12q0 -6 -6 -8q-3 -1 -32 -16v0v0zM420 408
h18q-1 -69 -10 -104q-7 -35 -26 -52q-19 -16 -38 -14t-22 16q-4 11 10 26q14 14 32 34q18 18 36 94v0v0v0zM614 506q59 -45 80 -72t16 -48q-6 -21 -18 -30q-12 -7 -24 -2q-13 5 -14 26q1 21 -10 48q-9 26 -42 70l12 8v0v0zM824 444q54 -35 82 -58q27 -24 36 -42
q10 -19 8 -34q0 -15 -12 -26q-9 -12 -26 -8q-15 2 -18 26t-18 54q-15 27 -62 76l10 12v0v0zM328 894q-21 -10 -90 -34v-228l46 8l30 54l62 -44q7 -4 8 -10q0 -3 -8 -8l-138 -24v-216l74 16l24 54l56 -42q12 -7 10 -16q0 -3 -12 -6l-152 -32v-265q-1 -19 34 -20h610
q41 2 52 40q11 34 16 143h20l2 -98q4 -47 32 -57q-9 -24 -26 -42q-15 -17 -56 -26h-656q-25 -1 -40 4q-16 2 -28 16q-12 15 -12 54v241l-104 -24q-18 -6 -32 -14l-24 32l160 34v214l-92 -22q-15 -3 -26 -14l-34 32l152 30v218q-99 -37 -156 -46l-4 14q110 44 178 76
q66 32 130 76l56 -50q1 -10 -4 -10q-37 3 -58 -8v0v0z" />
  </g>

</svg>
