<?xml version="1.0" standalone="no"?>
<!DOCTYPE svg PUBLIC "-//W3C//DTD SVG 1.1//EN" "http://www.w3.org/Graphics/SVG/1.1/DTD/svg11.dtd" >
<svg xmlns="http://www.w3.org/2000/svg" xmlns:xlink="http://www.w3.org/1999/xlink" version="1.1" viewBox="0 -36 256 256">
  <g transform="matrix(1 0 0 -1 0 220)">
   <path fill="currentColor"
d="M225 229l16 -18h-191q-10 0 -20 -2l-9 9h106q-3 16 -21 26l2 2q24 -5 31.5 -12t-4.5 -16h75zM60 148v-7l-15 -4q1 14 1 34.5t-1 29.5l15 -6h137l9 9l14 -12l-8 -4q0 -34 1 -45l-15 -4v9h-138zM60 155h61v33h-61v-33zM136 155h62v33h-62v-33zM100 86v-55l44 18l2 -4
q-49 -28 -54 -38l-10 17q4 4 3 17v34q-28 -26 -75 -41l-1 3q30 15 53 33.5t38 34.5h-50q-11 0 -20 -2l-9 9h186l15 11l16 -18h-102q11 -21 26 -36q27 17 38 34l15 -20h-10q-20 -10 -40 -18q16 -16 37.5 -22.5t44.5 -6.5v-5q-20 -5 -21 -16q-31 9 -55.5 29.5t-39.5 60.5h-12
q-8 -7 -19 -19zM139.5 133.5q4.5 -7.5 -1.5 -15.5t-10 3t-17 24l2 2q22 -6 26.5 -13.5z" />
  </g>

</svg>
