<?xml version="1.0" standalone="no"?>
<!DOCTYPE svg PUBLIC "-//W3C//DTD SVG 1.1//EN" "http://www.w3.org/Graphics/SVG/1.1/DTD/svg11.dtd" >
<svg xmlns="http://www.w3.org/2000/svg" xmlns:xlink="http://www.w3.org/1999/xlink" version="1.1" viewBox="0 -200 999 1000">
  <g transform="matrix(1 0 0 -1 0 800)">
   <path fill="currentColor"
d="M632 963l55 -69h-159l37 -27l-28 -58q-10 -57 -23.5 -112t-30.5 -110l15 -19h67l33 44l50 -53l-28 -39v-365h-130v-83q-9 -12 -14.5 -17t-9.5 -7.5t-8 -3t-10 -3.5v460q-21 -43 -41 -82t-38 -69.5t-33.5 -51t-27.5 -26.5l-4 2q81 157 134 311t62 309h-98l-42 -13l-13 36
h246zM498 545l-8 -13v-354h87v367h-79zM210 711q-5 -25 -10 -60.5t-12 -77.5t-16.5 -89.5t-22.5 -96.5q10 -8 21 -18t21.5 -19.5t19 -18l14.5 -14.5q8 16 19 52.5t20.5 86.5t16.5 110.5t7 123.5v27l56 -41l-17 -52q-5 -106 -26.5 -190.5t-44.5 -147.5q52 -56 68.5 -91
t16.5 -55t-6 -34.5t-14 -14.5q-7 0 -14.5 16.5t-17 40t-22 50t-28.5 46.5q-21 -50 -46 -89.5t-50.5 -68.5t-49 -49t-40.5 -31l-6 3q21 24 43.5 52t44.5 61.5t42.5 74t37.5 89.5q-5 8 -14 20t-19.5 24t-20.5 23.5t-17 18.5v-1q0 -2 -2 -8.5t-9 -23.5l-32 10q27 88 43.5 183
t23.5 183h-49l-39 -8l-14 31h105q3 22 6 55.5t5.5 70t5 73.5t4.5 66l56 -38l-18 -55l-18 -172h83l37 43l49 -65h-169zM823 629l-16 -71v-529q-12 -18 -24.5 -22t-21.5 -4v663zM631 577q21 46 36.5 97.5t26.5 106t19 110.5t14 110h-2l70 -40l-21 -40l-34 -130h93l31 47
q35 -15 61.5 -33.5t26.5 -33.5q0 -5 -3 -9q-2 -13 -11.5 -14.5t-24.5 -5.5t-36 -17t-45 -49l-10 5q8 17 18 38.5t10 35.5q0 7 -6 13h-112q-27 -83 -50.5 -128.5t-40.5 -69.5z" />
  </g>

</svg>
