<?xml version="1.0" standalone="no"?>
<!DOCTYPE svg PUBLIC "-//W3C//DTD SVG 1.1//EN" "http://www.w3.org/Graphics/SVG/1.1/DTD/svg11.dtd" >
<svg xmlns="http://www.w3.org/2000/svg" xmlns:xlink="http://www.w3.org/1999/xlink" version="1.1" viewBox="0 -205 1024 1024">
  <g transform="matrix(1 0 0 -1 0 819)">
   <path fill="currentColor"
d="M890 974l60 -46q9 -6 10 -14q0 -3 -38 -26v-224l4 -96q0 -15 -18 -26q-16 -9 -38 -12v60h-140q17 -149 50 -238q32 -90 82 -168q48 -76 148 -103v-18q-60 1 -72 -8q-12 -8 -24 -20q-71 64 -112 147q-40 83 -64 170q-24 86 -36 238h-100q0 -92 -12 -202q-13 -109 -58 -206
q-45 -94 -158 -173l-10 12q96 90 132 179q33 92 46 196q10 102 8 304v280l62 -48h244l34 42v0v0zM602 904v-286h268v286h-268v0v0zM130 930h224l42 46l58 -56q2 -3 2 -8q0 -9 -8 -8h-166v-122h64l32 38l56 -48q3 -3 4 -8q0 -7 -8 -8h-148v-112h60l32 42l52 -52q2 -3 2 -8
q0 -7 -8 -8h-138v-122h116l26 36l60 -42q13 -13 -6 -22l-20 -12q-7 -120 -16 -198q-10 -78 -20 -108q-9 -28 -26 -47q-18 -18 -60 -40q-7 31 -28 46q-21 16 -98 35l4 20q48 -9 78 -14q29 -7 52 -4q20 -1 32 26q9 23 18 98q8 75 14 198h-282v-10q1 -15 -16 -26
q-20 -13 -40 -14l4 142v418l56 -48v0v0zM126 496h106v122h-106v-122v0v0zM126 644h106v112h-106v-112v0v0zM232 782v122h-106v-122h106v0v0zM82 390h18q9 -115 -2 -154q-9 -37 -26 -50q-15 -13 -30 -14q-15 0 -24 16q-9 15 6 30q14 15 32 36q14 21 26 136v0v0zM126 380l12 8
q48 -59 60 -88q9 -30 6 -48q-4 -19 -16 -28q-9 -8 -24 0q-12 5 -12 26q0 18 -2 48q0 27 -24 82v0v0zM204 400l12 8q51 -59 64 -88t12 -46q-3 -15 -14 -24q-10 -7 -22 -2q-9 3 -12 24q-3 18 -8 46q-6 27 -32 82v0v0zM272 426l10 10q53 -42 74 -68q19 -27 18 -48
q-3 -21 -14 -30q-12 -8 -24 0q-9 8 -12 26q0 17 -12 44q-10 24 -40 66v0v0z" />
  </g>

</svg>
