<?xml version="1.0" standalone="no"?>
<!DOCTYPE svg PUBLIC "-//W3C//DTD SVG 1.1//EN" "http://www.w3.org/Graphics/SVG/1.1/DTD/svg11.dtd" >
<svg xmlns="http://www.w3.org/2000/svg" xmlns:xlink="http://www.w3.org/1999/xlink" version="1.1" viewBox="0 -36 256 256">
  <g transform="matrix(1 0 0 -1 0 220)">
   <path fill="currentColor"
d="M72 180h21l8 10l14 -13l-7 -6v-56l1 -21l-14 -6v8h-57v-8l-14 -6q1 22 1 91q-5 -7 -14 -17l-2 3q19 31 30 54.5t11 32.5l20 -10q-7 -1 -17 -20h30l9 9l14 -13q-10 0 -34 -32zM34 184l7 -4h25l17 29h-32q-7 -10 -17 -25zM38 140h23v33h-23v-33zM73 140h22v33h-22v-33z
M38 103h23v30h-23v-30zM73 103h22v30h-22v-30zM32.5 43q-1.5 -8 -5.5 -11.5t-12 -3.5t1 12t13 34h4q1 -23 -0.5 -31zM49 77q16 -18 16.5 -28t-6 -15.5t-7 9t-6.5 33.5zM69 80q24 -16 24.5 -25.5t-5 -14t-7.5 6t-14 31.5zM92 86q20 -11 25.5 -18t0 -16.5t-9 2t-19.5 30.5z
M136 178h84v20h-84v-20zM234 168l-14 -5v8h-84v-5l-15 -4q1 18 1 37.5t-1 39.5l16 -7h81l8 9l14 -12l-7 -6q0 -47 1 -55zM136 205h84v20h-84v-20zM181 109h36v20h-36v-20zM135 79h33v23h-28q-3 -9 -5 -23zM165 150.5q-1 -6.5 -6 -11.5t-7 5t-13 24l2 2q25 -13 24 -19.5z
M121.5 82.5q2.5 2.5 7.5 32.5l11 -6h28v20h-23q-10 0 -20 -2l-9 9h67q11 25 13 34l18 -9l-7 -4q-5 -5 -18 -21h27l6 10l14 -11l-6 -5q0 -20 1 -30l-14 -5v7h-36v-23h44l7 10l14 -10l-7 -6q-1 -33 -9 -39t-16 -7q0 11 -25 16v4q27 -3 30.5 -2t4.5 8.5t2 18.5h-45v-33
q0 -17 1 -27l-15 -5q1 10 1 30v28q-26 -35 -78 -51l-1 4q22 10 42 26.5t26 27.5h-22l-6 -4l-12 11q2 1 4.5 3.5z" />
  </g>

</svg>
