<?xml version="1.0" standalone="no"?>
<!DOCTYPE svg PUBLIC "-//W3C//DTD SVG 1.1//EN" "http://www.w3.org/Graphics/SVG/1.1/DTD/svg11.dtd" >
<svg xmlns="http://www.w3.org/2000/svg" xmlns:xlink="http://www.w3.org/1999/xlink" version="1.1" viewBox="0 -205 1024 1024">
  <g transform="matrix(1 0 0 -1 0 819)">
   <path fill="currentColor"
d="M464 908l56 -28h134v110l70 -28q9 -1 12 -10l-6 -8l-26 -10v-54h134l24 32l56 -34q8 -7 8 -10q0 -7 -30 -28v-60l4 -48q0 -15 -20 -24q-19 -10 -34 -8v32h-142v-74h174l38 44l54 -54q6 -3 6 -6q0 -10 -14 -10h-496q-21 -1 -48 -10l-14 36h250v74h-140v-6q0 -15 -18 -26
q-18 -10 -36 -8l4 84v132v0v0zM514 758h140v96h-140v-96v0v0zM704 854v-96h142v96h-142v0v0zM476 592l58 -28h290l30 40l58 -42q6 -4 6 -8q1 -6 -28 -26v-230l4 -72q0 -16 -18 -28t-36 -14v44h-314v-12q0 -12 -18 -20q-18 -10 -36 -10l4 92v314v0v0zM526 254h314v76h-314
v-76v0v0zM526 356h314v80h-314v-80v0v0zM526 462h314v76h-314v-76v0v0zM360 35q123 70 246 165l58 -34q9 -8 -2 -16q-27 1 -42 -7q-12 -8 -72 -40q-61 -30 -178 -84l-10 16v0v0zM714 182l6 14q96 -25 156 -51q59 -26 74 -52q16 -24 8 -42q-6 -19 -24 -20q-16 0 -34 24
q-19 21 -58 54q-39 31 -128 73v0v0zM226 980q74 -24 76 -32q0 -9 -6 -12q-6 -1 -20 -8q-15 -7 -54 -74h94l28 38l54 -40q8 -3 8 -12q0 -6 -30 -30v-663q1 -44 -16 -68q-15 -21 -60 -42q-13 34 -38 46q-24 13 -78 28l4 18q70 -13 92 -14q20 0 32 8q12 10 12 35v248h-8
q-57 -96 -126 -174q-68 -78 -148 -137l-8 12q62 64 116 133q53 68 110 166h-174q-18 1 -42 -10l-24 34h86v464l56 -40h40q12 60 24 126v0v0zM156 430h168v116h-168v-116v0v0zM156 570h168v118h-168v-118v0v0zM156 712h168v116h-168v-116v0v0z" />
  </g>

</svg>
