<?xml version="1.0" standalone="no"?>
<!DOCTYPE svg PUBLIC "-//W3C//DTD SVG 1.1//EN" "http://www.w3.org/Graphics/SVG/1.1/DTD/svg11.dtd" >
<svg xmlns="http://www.w3.org/2000/svg" xmlns:xlink="http://www.w3.org/1999/xlink" version="1.1" viewBox="0 -205 1024 1024">
  <g transform="matrix(1 0 0 -1 0 819)">
   <path fill="currentColor"
d="M90 372h710l40 44l66 -54q3 -3 4 -8q0 -10 -12 -10h-378v-116h258l34 46l68 -58q2 -3 2 -8q4 -7 -4 -8h-358v-131h338l42 42l62 -52q3 1 4 -2q2 -14 -10 -14h-828q-21 1 -68 -8l-16 34h424v131h-262q-21 0 -68 -8l-16 36h346v116h-306q-21 1 -54 -10l-18 38v0v0zM210 706
l58 -42h440l32 36l50 -38q12 -6 12 -14q0 -6 -30 -24v-92l4 -78q0 -16 -20 -28q-18 -12 -36 -12v46h-458v-20q-1 -13 -22 -26q-19 -10 -34 -10l4 128v174v0v0zM262 488h458v148h-458v-148v0v0zM294 956q10 -9 0 -18q-24 -6 -32 -12l-14 -14l-32 -48h206l40 44l62 -54
q9 -16 -8 -16h-212q42 -33 60 -50q17 -16 22 -32t-4 -32q-8 -16 -28 -14q-21 2 -24 26q-3 20 -14 44q-10 21 -40 58h-74q-66 -102 -128 -164l-14 12q51 78 94 156q42 77 66 152l74 -38v0v0zM686 950q10 -9 0 -18q-24 -6 -30 -14l-12 -12q-4 -3 -26 -42h234l40 46l62 -56
q9 -16 -8 -16h-234q41 -32 58 -52q18 -18 24 -38q6 -21 -6 -36q-12 -16 -30 -10q-19 6 -22 30q-4 25 -16 50q-9 25 -36 56h-78q-57 -91 -108 -154l-16 10q47 85 76 152q26 65 50 134l78 -30v0v0z" />
  </g>

</svg>
