<?xml version="1.0" standalone="no"?>
<!DOCTYPE svg PUBLIC "-//W3C//DTD SVG 1.1//EN" "http://www.w3.org/Graphics/SVG/1.1/DTD/svg11.dtd" >
<svg xmlns="http://www.w3.org/2000/svg" xmlns:xlink="http://www.w3.org/1999/xlink" version="1.1" viewBox="0 -36 256 256">
  <g transform="matrix(1 0 0 -1 0 220)">
   <path fill="currentColor"
d="M77 77l1 -4q-55 -30 -59 -38l-11 17q21 6 29 11v70h-8l-13 -3l-7 10h28v67h-5q-8 0 -16 -3l-7 10h47l10 11l14 -18h-31v-67h8l9 10l12 -17h-29v-67zM121 247l18 -8l-5 -7v-16h22l12 12l12 -19h-46v-13h15l9 9l13 -16h-56q-11 -1 -20 -3l-9 10h36v13h-13q-10 0 -19 -2
l-9 9h41q0 21 -1 31zM165 171h-62q-10 0 -19 -2l-9 9h89l8 8l12 -14q-10 -2 -25 -19l-2 2zM138 158l10 8l11 -15h-28v-14h27l9 9l12 -16h-71q-11 -1 -20 -3l-9 10h40v14h-8q-9 1 -17 -2l-6 9h50zM158 116l10 9l15 -16h-93q-8 0 -15 -2l-8 9h91zM91 45h16v37h-16v-37zM80 40
v32l-1 24l13 -7h14l6 9l12 -11l-5 -5v-26l1 -26l-13 -6v14h-16v-15l-12 -5zM150 28.5q4 0.5 4 9.5v41q-12 0 -23 -3l-7 10h30v12l-1 12l16 -8l-4 -5v-11h1l8 8l10 -15h-19v-49q0 -17 -16 -22q0 12 -15 18v4q12 -2 16 -1.5zM127 73q12 -7 15.5 -11t3 -7.5t-3.5 -8.5t-6 4.5
t-11 20.5zM184 63v110q0 25 -1 59l12 -9h32l7 8l12 -13l-8 -6q-8 -27 -22 -65q35 -38 31 -67.5t-24 -36.5q-2 17 -24 21v5q16 -3 24.5 -2.5t10.5 22.5t-25 57q10 38 17 70h-30v-151q0 -27 1 -52l-14 -7q1 28 1 57z" />
  </g>

</svg>
