<?xml version="1.0" standalone="no"?>
<!DOCTYPE svg PUBLIC "-//W3C//DTD SVG 1.1//EN" "http://www.w3.org/Graphics/SVG/1.1/DTD/svg11.dtd" >
<svg xmlns="http://www.w3.org/2000/svg" xmlns:xlink="http://www.w3.org/1999/xlink" version="1.1" viewBox="0 -36 256 256">
  <g transform="matrix(1 0 0 -1 0 220)">
   <path fill="currentColor"
d="M120 207h-80q0 -10 -3.5 -14t-9.5 -6t-10 1t5 10.5t13 22.5h5v-7h80v14h-49q-12 0 -21 -3l-10 10h145l16 9l18 -16h-85v-14h84l8 7l16 -11q-12 -2 -33 -22l-3 3l13 16h-85q0 -30 1 -38l-16 -4q1 9 1 42zM48 91h26v12h-26v-12zM45 145h33q-4 11 -12 19l1 3q11 -4 17 -9.5
t-1 -12.5h23l10 7l12 -14h-41v-11h14l9 8l12 -15h-35v-10h16l8 7l12 -14h-36v-12h21l9 8l13 -15h-82v-3l-14 -3q1 15 1 26v30q-6 -8 -14 -15l-2 2q8 12 14.5 25t9.5 22l15 -9q-5 -2 -13 -14zM48 127h26v11h-26v-11zM48 110h26v10h-26v-10zM154 91h25v12h-25v-12zM151 145h31
q-3 11 -12 19l1 3q11 -4 18 -9.5t-2 -12.5h26l9 7l12 -14h-41v-11h14l9 8l12 -15h-35v-10h16l8 7l12 -14h-36v-12h22l8 8l13 -15h-82v-3l-14 -3q1 15 1 26v30q-6 -8 -14 -15l-2 2q8 12 15 25t9 22l15 -9q-5 -2 -13 -14zM154 127h25v11h-25v-11zM154 110h25v10h-25v-10z
M215 52q-9 -9 -18 -16q10 -6 20.5 -9.5t27.5 -4.5v-3q-12 -3 -15 -11q-25 7 -44 21q-23 -14 -55 -19l-1 4q31 9 49 22q-14 12 -26 31l-4 -3l-8 10h74l6 6l12 -13q-9 -6 -18 -15zM214 67h-55q12 -16 27 -25q17 12 28 25zM108.5 52q-8.5 -9 -30 -23t-63.5 -21l-1 4
q35 10 57 24t34 31h-59l-4 -3l-8 10h73l7 6l12 -13q-9 -6 -17.5 -15zM46 56l1 4q24 -7 43.5 -17t25 -14.5t5 -13.5t-8.5 -2.5t-21 17.5t-45 26zM104 197v-7h-50v7h50zM104 178v-7h-52v7h52zM201 178v-7h-52v7h52zM199 197v-7h-50v7h50z" />
  </g>

</svg>
