<?xml version="1.0" standalone="no"?>
<!DOCTYPE svg PUBLIC "-//W3C//DTD SVG 1.1//EN" "http://www.w3.org/Graphics/SVG/1.1/DTD/svg11.dtd" >
<svg xmlns="http://www.w3.org/2000/svg" xmlns:xlink="http://www.w3.org/1999/xlink" version="1.1" viewBox="0 -36 256 256">
  <g transform="matrix(1 0 0 -1 0 220)">
   <path fill="currentColor"
d="M208 233l13 10l17 -17h-110l-19 -18h90l6 10l17 -12l-8 -6v-28q0 -15 1 -31l-15 -4v7h-143v-6l-15 -5q1 8 1 29v25q0 19 -1 29l16 -8h43l9 18h-57q-11 -1 -21 -2l-10 9h186zM57 201v-50h34v50h-34zM104 151h48v12h-48v-12zM104 170h48v12h-48v-12zM152 189v12h-48v-12h48
zM165 151h35v50h-35v-50zM207 25l16 12l18 -19h-191q-15 0 -25 -2l-9 9h191zM136 32l-16 -5q1 14 1 66q-34 -26 -92 -42l-1 4q46 19 68 34.5t33 29.5h-64q-11 0 -21 -2l-10 9h163l13 10l18 -17h-77q-7 -5 -22 -20l15 -6l-9 -5q0 -45 1 -56zM153 91q41 -11 56.5 -17.5
t13.5 -18t-17 2t-54 29.5z" />
  </g>

</svg>
