<?xml version="1.0" standalone="no"?>
<!DOCTYPE svg PUBLIC "-//W3C//DTD SVG 1.1//EN" "http://www.w3.org/Graphics/SVG/1.1/DTD/svg11.dtd" >
<svg xmlns="http://www.w3.org/2000/svg" xmlns:xlink="http://www.w3.org/1999/xlink" version="1.1" viewBox="0 -36 256 256">
  <g transform="matrix(1 0 0 -1 0 220)">
   <path fill="currentColor"
d="M173 163q5 -6 4 -11.5t-6 -8.5t-9.5 7t-22.5 21l2 4q27 -6 32 -12zM225 69l4 1q2 -17 5.5 -33.5t11.5 -28.5q-33 0 -59.5 8.5t-51.5 30.5q-55 -26 -118 -30l-1 5q77 15 110 37q-12 26 -20 64l-68 -3l-9 -3l-10 9l86 4q-3 29 -4 49l25 -9l-8 -6q1 -17 3 -33l89 6l10 13
l16 -20l-114 -6q6 -37 19 -57q19 12 32.5 26.5t17.5 24.5l19 -16l-11 -4q-24 -27 -51 -42q9 -8 28 -17.5t49 -13.5v44zM126 202h-44q0 -11 1 -25l-17 -6q1 16 1 31h-18q-15 0 -26 -4l-11 11h55q0 25 -1 37l23 -10l-7 -8v-19h17l14 12zM127 210h37q0 20 -1 36l25 -11l-9 -7
v-18h33l13 12l14 -19h-60q0 -11 1 -24l-17 -7q1 21 1 31h-8q-11 0 -19 -4z" />
  </g>

</svg>
