<?xml version="1.0" standalone="no"?>
<!DOCTYPE svg PUBLIC "-//W3C//DTD SVG 1.1//EN" "http://www.w3.org/Graphics/SVG/1.1/DTD/svg11.dtd" >
<svg xmlns="http://www.w3.org/2000/svg" xmlns:xlink="http://www.w3.org/1999/xlink" version="1.1" viewBox="0 -205 1024 1024">
  <g transform="matrix(1 0 0 -1 0 819)">
   <path fill="currentColor"
d="M536 954l50 -32h260l30 42l66 -42q6 -7 6 -10q0 -6 -30 -32v-168l4 -72q1 -12 -16 -24q-15 -9 -38 -14v36h-282v-8q0 -12 -18 -20t-36 -10l4 100v254v0v0zM586 666h282v102h-282v-102v0v0zM586 796h282v98h-282v-98v0v0zM650 340v184h-128q-20 0 -46 -8l-22 34h186l34 38
l48 -44q10 -6 8 -14l-32 -18v-389q3 -36 -14 -58q-15 -21 -60 -36q-9 30 -36 44q-27 13 -66 28l4 16q72 -16 96 -14q24 1 28 22v183q-84 -72 -102 -96q-18 -21 -30 -48l-52 44l184 132v0v0zM916 352v176h-112q-20 0 -46 -8l-22 34h166l30 38l52 -36q9 -6 6 -14l-26 -24v-401
q4 -33 -16 -54q-19 -20 -58 -34q-6 34 -32 46q-27 13 -74 28l4 16q81 -15 102 -16q23 0 26 20v199q-72 -54 -102 -80q-31 -24 -46 -60l-48 48l196 122v0v0zM736 472l8 12q69 -36 90 -62q22 -25 20 -46q-1 -19 -14 -26q-12 -6 -24 -2q-11 3 -16 28q-3 24 -18 48
q-16 21 -46 48v0v0zM482 458l8 12q63 -36 84 -60q22 -25 20 -46q-4 -22 -16 -28t-24 -2q-12 3 -14 28q-3 21 -18 48q-16 24 -40 48v0v0zM280 956q16 -13 -4 -20l-22 -10l-6 -68h100l28 36l54 -38q12 -3 12 -12q0 -7 -38 -28v-94h20l30 40l46 -52q4 -9 -4 -12h-372
q-49 0 -64 -12l-20 36h140l14 110h-50q-25 -1 -52 -4l-20 30h124l14 126l70 -28v0v0zM228 722h130v110h-118l-12 -110v0v0zM102 670l56 -40h192l28 32l52 -34q9 -6 10 -12t-28 -26v-58l4 -40q0 -12 -20 -24q-19 -13 -34 -14v32h-212v-12q0 -15 -20 -24q-18 -9 -32 -8l4 78
v150v0v0zM150 512h212v92h-212v-92v0v0zM230 472l66 -20q7 -3 8 -6q0 -4 -6 -10l-18 -14v-30h80l26 34l56 -40q3 -3 4 -8q0 -10 -12 -10h-154v-118h110l32 38l56 -44q10 -15 -4 -18h-194v-121l4 -42q-3 -14 -24 -26q-22 -12 -34 -12l4 78v123h-124l-26 -28l-52 50
q29 12 38 24l30 80l52 -30q11 -9 2 -14l-24 -6l-24 -52h128v118h-68q-6 0 -54 -8l-18 32h140v80v0v0z" />
  </g>

</svg>
