<?xml version="1.0" standalone="no"?>
<!DOCTYPE svg PUBLIC "-//W3C//DTD SVG 1.1//EN" "http://www.w3.org/Graphics/SVG/1.1/DTD/svg11.dtd" >
<svg xmlns="http://www.w3.org/2000/svg" xmlns:xlink="http://www.w3.org/1999/xlink" version="1.1" viewBox="0 -205 1024 1024">
  <g transform="matrix(1 0 0 -1 0 819)">
   <path fill="currentColor"
d="M344 568h128v174l80 -32q8 -4 14 -10q-4 -8 -10 -10l-32 -12v-110h194v172l74 -28q6 -3 12 -8q5 -4 2 -8q-4 -3 -10 -6l-26 -14v-108h52l38 48l60 -56q3 -4 4 -8q0 -10 -12 -10h-142v-204h92l38 48l64 -58q3 -4 4 -4q0 -13 -12 -14h-592q-31 3 -68 -6l-16 34h192v204h-60
q-5 0 -46 -8l-22 34v0v0zM524 338h194v204h-194v-204v0v0zM452 135q-69 -63 -168 -130l-10 12q81 76 138 137q55 60 92 112q70 -36 68 -44q-3 -8 -14 -10q-10 0 -22 -8q-12 -7 -84 -69v0v0zM708 256q83 -40 140 -80q57 -37 76 -69q18 -32 10 -56q-9 -24 -30 -24t-32 30
q-13 30 -46 74q-34 40 -128 113l10 12v0v0zM308 600l16 -10q-144 -330 -152 -354q-7 -25 -4 -52q3 -25 6 -51q2 -24 4 -58q3 -32 -12 -44t-32 -10q-17 3 -22 20q-7 15 2 54t12 71q2 31 -4 44q-7 13 -26 20q-19 6 -70 12l2 16q75 -2 88 6q11 6 26 24q15 15 166 312v0v0z
M102 726l8 12q62 -24 94 -38q32 -15 44 -38q10 -24 0 -42q-12 -19 -32 -16q-19 0 -22 22q-3 21 -24 46q-19 21 -68 54v0v0zM40 574l10 12q65 -30 92 -48q26 -17 34 -40q9 -21 0 -38q-9 -18 -30 -20q-21 -1 -26 22q-3 21 -18 46q-13 21 -62 66v0v0zM338 988l80 -32q6 -3 6 -8
q0 -2 -36 -22v-64h240v120l82 -34q3 -5 4 -10q1 -2 -34 -22v-54h198l40 48l60 -62q3 -1 4 -8q-1 -6 -16 -6h-286v-60q-1 -16 -20 -22q-22 -6 -32 -6v88h-240v-64q-1 -16 -20 -22q-9 -6 -30 -6v92h-202q-22 -1 -70 -10l-18 38h290v126v0v0z" />
  </g>

</svg>
