<?xml version="1.0" standalone="no"?>
<!DOCTYPE svg PUBLIC "-//W3C//DTD SVG 1.1//EN" "http://www.w3.org/Graphics/SVG/1.1/DTD/svg11.dtd" >
<svg xmlns="http://www.w3.org/2000/svg" xmlns:xlink="http://www.w3.org/1999/xlink" version="1.1" viewBox="0 -36 256 256">
  <g transform="matrix(1 0 0 -1 0 220)">
   <path fill="currentColor"
d="M30 167q0 19 -1 39l15 -11h26v24q0 9 -1 28l20 -9l-7 -7v-12h22l12 10l13 -17h-47v-17h40l8 9l10 -15q-10 -3 -22 -19l-3 2l7 16h-50l14 -6l-6 -8v-11l14 2l9 10l13 -14l-36 -4v-10q-1 -9 8 -9h20q9 0 12 2t11 -6q-5 -8 -18 -7h-34q-11 0 -11 12v17q-13 -3 -20 -7l-5 7
v-34q1 -72 -32 -114l-3 3q23 42 22 110v46zM43 159l25 3q0 16 -1 26h-24v-29zM67 88h41v17h-41v-17zM55 88q0 16 -1 33l15 -9h38l7 8l12 -12l-6 -6v-63l13 2l1 -4q-68 -16 -96 -28l-9 15q13 2 26 5v59zM67 30l41 7v17h-41v-24v0zM67 81v-20h41v20h-41zM158 24h50v67h-50v-67
zM234 35l15 -18h-110q-10 -1 -19 -3l-9 10h34v167q0 26 -1 43l14 -7h50l8 9l13 -14l-8 -7v-191zM158 162h50v58h-50v-58zM158 98h50v57h-50v-57z" />
  </g>

</svg>
