<?xml version="1.0" standalone="no"?>
<!DOCTYPE svg PUBLIC "-//W3C//DTD SVG 1.1//EN" "http://www.w3.org/Graphics/SVG/1.1/DTD/svg11.dtd" >
<svg xmlns="http://www.w3.org/2000/svg" xmlns:xlink="http://www.w3.org/1999/xlink" version="1.1" viewBox="0 -36 256 256">
  <g transform="matrix(1 0 0 -1 0 220)">
   <path fill="currentColor"
d="M26 154v5q51 13 76 27l11 -17l-11 -1l-24 -6v-37h9l13 11l14 -16h-36v-13q14 -5 22.5 -12t2.5 -18t-11 1.5t-14 22.5v-48q0 -17 1 -39l-15 -7q1 20 1 40v55q-19 -38 -54 -68l-3 3q36 47 48 81h-11q-10 0 -20 -2l-10 9h50v35q-21 -4 -39 -6zM145 29h55v25h-55v-25zM215 15
l-15 -6v13h-55v-8l-15 -7q1 24 1 73q-15 -12 -44 -26l-1 5q24 15 45 34v8l4 -4q13 11 26 23h-22q-10 0 -19 -2l-10 9h37v34h-2q-11 0 -20 -2l-10 9h32q0 12 -1 29l22 -11l-7 -7v-11h11l11 9l12 -14q4 7 11 20l17 -14l-9 -4q-12 -17 -29 -38h33l14 12l15 -19h-68
q-14 -15 -30 -27h52l6 10l16 -13l-9 -7q0 -48 1 -68zM193 161h-32v-34h7q13 15 25 34zM145 61h55v25h-55v-25zM127 210h-38q0 -8 1 -20l-16 -6q1 15 1 26h-28q-11 0 -20 -2l-10 9h58q0 22 -1 30l24 -7l-9 -6v-17h14l10 9zM130 217h34q0 17 -1 29l23 -7l-8 -6v-16h34l13 11
l17 -18h-64q0 -3 1 -15l-16 -7q1 19 1 22h-12q-7 0 -14 -1z" />
  </g>

</svg>
