<?xml version="1.0" standalone="no"?>
<!DOCTYPE svg PUBLIC "-//W3C//DTD SVG 1.1//EN" "http://www.w3.org/Graphics/SVG/1.1/DTD/svg11.dtd" >
<svg xmlns="http://www.w3.org/2000/svg" xmlns:xlink="http://www.w3.org/1999/xlink" version="1.1" viewBox="0 -205 1024 1024">
  <g transform="matrix(1 0 0 -1 0 819)">
   <path fill="currentColor"
d="M812 926l32 38l60 -48q6 -4 6 -8q0 -6 -36 -26v-234l4 -84q0 -12 -18 -24q-15 -10 -36 -10v42h-344v-14q0 -12 -18 -24t-36 -14l4 122v322l54 -38h328v0v0zM480 598h146v134h-146v-134v0v0zM678 598h146v134h-146v-134v0v0zM480 758h146v142h-146v-142v0v0zM678 900v-142
h146v142h-146v0v0zM316 464h568l42 44l58 -52q3 -4 4 -10q1 -7 -16 -8h-374q52 -99 98 -156q87 66 156 124q52 -52 50 -58q0 -7 -6 -8q-3 -1 -20 2q-15 1 -54 -16q-37 -15 -110 -60q39 -43 94 -82q51 -37 94 -51q39 -13 96 -20v-20q-33 1 -54 -2q-19 0 -52 -34
q-72 43 -120 87t-98 106q-48 59 -102 188h-76v-321q78 41 160 87l10 -16q-72 -48 -120 -83q-49 -35 -80 -80l-60 50l40 30v333h-58q-21 0 -50 -8l-20 34v0v0zM22 742h164v238l82 -32q12 -6 4 -14l-34 -16v-176h64l40 44l50 -54q12 -15 -8 -18h-146v-180l138 82l10 -16
l-148 -110v-363q2 -36 -16 -64q-19 -24 -64 -40q-6 36 -36 50q-28 15 -76 32l4 16q94 -26 116 -20q20 6 20 32v327q-69 -53 -84 -70q-12 -16 -30 -38l-54 56l168 100v206h-92q-21 -1 -50 -10l-22 38v0v0z" />
  </g>

</svg>
