<?xml version="1.0" standalone="no"?>
<!DOCTYPE svg PUBLIC "-//W3C//DTD SVG 1.1//EN" "http://www.w3.org/Graphics/SVG/1.1/DTD/svg11.dtd" >
<svg xmlns="http://www.w3.org/2000/svg" xmlns:xlink="http://www.w3.org/1999/xlink" version="1.1" viewBox="0 0 2048 2048">
  <g transform="matrix(1 0 0 -1 0 2048)">
   <path fill="currentColor"
d="M1109 1582q0 9 1 14l5 54q2 29 3 54l2 73l148 -38q29 -8 36 -24t-4 -26t-39 -19l-35 -11q-6 -32 -7 -39l-6 -31l94 6v-43q-62 -13 -84 -15l-22 -3q-5 -14 -6 -21l-15 -56q-14 -48 -43 -121q-29 -74 -47 -104q-19 -31 -38 -59l-16 -23l58 -23q33 -13 68 -33q36 -20 58 -40
q21 -20 32 -39t11 -42q-1 -15 -9 -29q-8 -13 -25 -15q-12 -2 -27 3q-14 6 -36 22l-56 42q-34 26 -52 38l-50 27l-33 18l-22 -21l-43 -40q-32 -29 -84 -62q-51 -33 -86 -52q-36 -19 -86 -43l-60 -29l-14 37l38 21q17 10 54 33t80 53q43 31 80 66t51 50l21 23l-36 14
q-16 6 -69 25l-77 26l-76 22l-53 16q27 36 44 62q17 25 36 64q19 38 43 94l12 29l-91 -12l-12 -36q-9 -25 -23 -27q-13 -1 -18 8q-6 8 -15 35l-45 123q24 -1 52 0q27 0 88 2t76 2h22q3 14 4 18q2 3 14 40q11 38 26 101l24 97l17 78l133 -48q29 -11 36 -20q8 -9 2 -24
q-4 -9 -15 -14q-11 -6 -23 -7l-45 -7l-39 -111l-24 -64l-14 -36q22 1 58 3t68 5l62 5zM1098 1517l-22 -3l-193 -27l-31 -4l-31 -4l-18 -36q-11 -22 -37 -67q-25 -46 -38 -65l-48 -70q62 -13 78 -17l87 -21q71 -17 77 -18l30 -8l14 21l22 32q15 22 40 76q25 55 40 101t21 70z
M1409 1622l-35 -5l-48 84q31 -6 49 -8t61 -5t77 -3h308l77 80l81 -71q15 -14 25 -28q10 -13 9 -23q-2 -14 -12 -21q-10 -6 -45 -19l-28 -10l-31 -101q-14 -45 -26 -78t-38 -91t-35 -76l-15 -30q9 -15 20 -29l21 -30q11 -15 36 -53l44 -70q19 -32 32 -57q12 -26 17 -44t7 -42
q2 -25 -10 -44q-11 -20 -30 -26q-20 -5 -33 4q-13 8 -19 20q-6 11 -31 66l-33 67l-29 58l-24 42l-12 22l-16 27q-8 -12 -19 -26q-11 -15 -44 -50q-34 -36 -68 -67q-35 -31 -72 -57q-36 -27 -60 -40q-24 -14 -81 -42l-55 -27l-22 34l52 31q25 16 60 43q36 27 77 63
q41 37 78 78t64 83l31 50l9 14q-7 9 -9 15l-18 32q-17 29 -54 86l-77 114q-39 57 -49 73l-40 62zM1460 1627l26 -35l27 -34l51 -62l64 -77l54 -68l18 -24l18 -24l13 28q7 15 23 55q17 39 32 81t26 84l20 75zM697 600h38q-3 -36 -7 -91q-3 -55 -7 -91q-4 -35 -19 -83
q-16 -48 -38 -87q-21 -39 -51 -60q-30 -22 -54 -21q-24 0 -36 13t-13 30q0 16 20 40l45 45q24 26 53 76q28 50 42 90q13 40 19 83zM879 701l120 -24q32 -7 53 -19q20 -11 22 -24q1 -14 -13 -26t-37 -18l-42 -11v-336q0 -20 12 -33.5t33 -21.5q21 -7 55 -10q33 -4 67 -4h235
q43 0 78 5q34 5 55 21q21 15 29 33q7 18 13 55l29 179l38 -5l-4 -178q-1 -22 7 -40t23 -32l27 -26q12 -17 11 -32q-3 -18 -24 -32q-22 -14 -50 -20q-29 -5 -58 -8q-29 -4 -70 -6q-40 -2 -98 -2h-191h-57q-19 1 -83 6q-64 4 -95 15q-30 11 -47 29q-17 19 -24 36q-7 16 -7 40
v330q0 68 -2 104q-3 36 -3 42zM1180 766q15 -9 48 -25q34 -16 61 -31t63 -44q35 -30 64 -62q28 -32 37 -60q9 -27 -1 -50t-31 -28q-21 -4 -35 4q-17 8 -36 48q-19 41 -43 72t-67 74q-42 42 -66 58l-18 12zM1703 589q40 -29 71 -54q32 -25 77 -70t69 -79q23 -34 34 -72
q12 -39 2 -64q-11 -26 -28 -31q-18 -5 -33 4q-17 8 -30 38l-34 88q-20 48 -55 99q-34 50 -67 82l-30 29zM179 1822l48 -20q32 -13 67 -30q35 -18 76.5 -47t61.5 -51q19 -22 28 -44q10 -22 7 -46q-3 -25 -19 -36q-17 -12 -34 -10q-19 1 -32 14t-34 52t-52 72q-30 33 -60 56
q-29 22 -47 34l-32 20zM96 1327q20 -8 46 -17q26 -10 62 -28q37 -17 78 -44q42 -26 66 -48t40 -46q17 -23 20 -50q2 -28 -9.5 -44t-29.5 -20q-18 -5 -34 4q-12 5 -20 14q-8 10 -31 48q-23 39 -58 77t-55 53q-20 16 -64 46l-33 22zM517 850l33 -22l-38 -98q-22 -56 -40 -98
q-19 -41 -75 -156l-79 -160q-22 -45 -46 -88l-38 -67q3 -24 4 -38q0 -14 -4 -36t-12 -27q-9 -4 -21 6t-27 32l-77 107l39 47l57 72q34 43 71 96q37 54 72 110q35 57 88 150l75 136z" />
  </g>

</svg>
