<?xml version="1.0" standalone="no"?>
<!DOCTYPE svg PUBLIC "-//W3C//DTD SVG 1.1//EN" "http://www.w3.org/Graphics/SVG/1.1/DTD/svg11.dtd" >
<svg xmlns="http://www.w3.org/2000/svg" xmlns:xlink="http://www.w3.org/1999/xlink" version="1.1" viewBox="0 -205 1024 1024">
  <g transform="matrix(1 0 0 -1 0 819)">
   <path fill="currentColor"
d="M424 466h216v140l80 -34q7 -3 8 -6q3 -6 -2 -12l-36 -16v-72h124l40 44l58 -52q3 -3 4 -8q0 -12 -14 -12h-212v-128h184l44 46l58 -54q3 -3 4 -8q0 -12 -12 -12h-278v-124l4 -79q0 -12 -20 -28q-21 -14 -38 -14l4 119v126h-184q-18 0 -66 -8l-18 36h268v128h-132
q-18 0 -66 -8l-18 36v0v0zM334 512q107 44 182 86q74 39 122 82q-88 71 -136 188h-70l-20 -4l-20 32h404l46 46l58 -60q10 -5 8 -16q1 -3 -10 -6q-13 -3 -40 -12q-73 -96 -154 -170q39 -25 100 -46q58 -18 104 -24q46 -3 104 -2v-20q-45 -3 -62 -14q-15 -12 -26 -38
q-85 30 -146 58q-59 27 -106 60q-69 -51 -138 -84q-69 -30 -194 -72l-6 16v0v0zM532 868q56 -108 140 -164q63 65 132 164h-272v0v0zM166 962q96 -61 120 -94q22 -31 20 -52q-1 -21 -8 -32q-6 -12 -18 -14q-9 -4 -20 2q-12 4 -14 32q0 26 -18 58q-16 30 -74 88l12 12v0v0z
M214 698l66 -48q6 -4 6 -10q1 -6 -16 -14l-24 -20v-352l136 124l14 -16q-106 -115 -136 -152q-30 -34 -56 -89l-64 57l56 50v396h-104q-17 1 -34 -10l-22 38h146l32 46v0v0z" />
  </g>

</svg>
