<?xml version="1.0" standalone="no"?>
<!DOCTYPE svg PUBLIC "-//W3C//DTD SVG 1.1//EN" "http://www.w3.org/Graphics/SVG/1.1/DTD/svg11.dtd" >
<svg xmlns="http://www.w3.org/2000/svg" xmlns:xlink="http://www.w3.org/1999/xlink" version="1.1" viewBox="0 -36 256 256">
  <g transform="matrix(1 0 0 -1 0 220)">
   <path fill="currentColor"
d="M82 232l-7 -6v-23h15l9 10l14 -17h-38v-30h21l9 10l15 -17h-82q-10 -1 -20 -3l-9 10h21q0 41 -1 56l18 -9l-5 -6v-41h21q0 52 -1 74zM56 147q-5 -3 -7 -11q12 -7 14 -12t-3 -8.5t-6.5 2.5t-5.5 16q-5 -11 -17 -22l-2 1q11 18 14 40zM104 104v-7h-80v7h80zM15 141l19 -8
l-7 -6v-80l73 7v89l18 -9l-6 -6v-68q0 -10 1 -20l-13 -4v13q-70 -8 -78 -16l-11 12q4 3 4 10v86zM92 147q-5 -3 -8 -12q12 -8 12 -13.5t-4.5 -7t-5 4.5t-4.5 13q-5 -10 -17 -21l-2 1q12 20 16 41zM59 90q-5 -4 -9 -10q13 -8 14 -12.5t-4 -8t-6 2.5t-4 15q-7 -12 -19 -23
l-2 1q13 22 17 40zM93 89q-5 -3 -8 -10q10 -6 12 -11t-3 -9t-6 2.5t-4 15.5q-6 -11 -19 -24l-2 2q13 20 17 39zM119.5 66q5.5 31 6 73t-0.5 61l14 -8h33q0 32 -1 54l20 -9l-7 -5v-12h32l10 12l14 -19h-56v-21h40l7 8l16 -17q-14 0 -25 -18l-3 1l7 19h-88q0 -60 -5 -103
t-32 -74l-3 3q16 24 21.5 55zM169 149q0 17 -1 36l20 -9l-7 -6v-18l23 6l6 9l12 -12l-41 -10v-13q-1 -13 8 -11h25q8 0 8 25h4q0 -7 1 -13.5t9 -8.5q-7 -13 -19 -13h-33q-15 -1 -15 13v18l-17 -5l-3 -4l-10 9zM168 55v-25h52l11 10l13 -17h-74l-8 -8l-11 12l5 5v23h-7
l-10 -2l-9 9h26v17q0 9 -1 23l16 -9h44l11 11l13 -18h-71v-24h57l11 10l12 -17h-80z" />
  </g>

</svg>
