<?xml version="1.0" standalone="no"?>
<!DOCTYPE svg PUBLIC "-//W3C//DTD SVG 1.1//EN" "http://www.w3.org/Graphics/SVG/1.1/DTD/svg11.dtd" >
<svg xmlns="http://www.w3.org/2000/svg" xmlns:xlink="http://www.w3.org/1999/xlink" version="1.1" viewBox="0 -52 256 256">
  <g transform="matrix(1 0 0 -1 0 204)">
   <path fill="currentColor"
d="M117 248l9 -7l2 -2q0 -1 -2 -2q-2 1 -10 -3q-1 -1 -6 -3q-4 -2 -7 -4l1 -44h6l4 5l10 -6q3 -2 2 -3q0 -1 -4 0h-18v-44h6l4 7l11 -8q3 -1 2 -2q0 -1 -5 -1h-18l1 -42h25v144q0 5 -3 8l3 3l7 -7h44l5 7l9 -8q1 0 1 -2h21l6 7l9 -7q2 -1 2 -3q-1 -1 -3 -1l-3 -3l-1 -138h5
l6 9l14 -10q2 -1 2 -2t-2 -2h-159q-7 1 -13 -3l-8 8h24l-2 136q2 6 -6 13l2 3l12 -10l3 3q2 1 3 2q6 5 7 6q2 3 0 4zM182 233h-44v-144h44v144zM23 223q0 5 -4 10l1 3l17 -10q3 -1 1 -3q-4 -1 -6 -4v-46h28v65q0 4 -6 11l2 3l18 -9q3 0 1 -2l-1 -1q-4 -2 -5 -5v-192l1 -23
q1 -8 -12 -11q0 4 1 20q1 15 1 25v62h-28v-24q1 -52 -28 -80l-2 2q23 31 21 80v22h-6q-6 0 -9 -4l-7 9h59v47h-26l-7 -9l-12 9q7 5 8 10v45zM219 229h-6q-6 0 -10 -3l-7 7h-1q0 -1 -1 -1l-3 -2v-141h26l1 44h-5q-5 0 -10 -4l-8 8h23l1 43h-6q-6 0 -10 -4l-9 8h25v45z
M148 177l4 -5h14l4 4l7 -6q2 -1 2 -2q-1 -1 -3 -1l-2 -1v-32l1 -11q0 -4 -2 -6t-5 -2v9h-14v-3q0 -6 -2 -8q-1 -3 -6 -4q0 3 1 9v9v42q1 3 -2 6zM177 73l2 4q53 -30 60 -49q4 -11 -2 -13q-4 -3 -9 7q-9 21 -51 51zM135 81l16 -10q2 -1 2 -2q1 -1 -1 -2q-2 0 -5 -1h-3
q-1 -1 -7 -6q-37 -35 -58 -47l-2 3q49 42 57 58v3q-1 2 -1 3zM168 168h-14v-40h14v40zM142 204h22l6 5l9 -7q2 -2 -1 -2h-20q-4 0 -10 -3z" />
  </g>

</svg>
