<?xml version="1.0" standalone="no"?>
<!DOCTYPE svg PUBLIC "-//W3C//DTD SVG 1.1//EN" "http://www.w3.org/Graphics/SVG/1.1/DTD/svg11.dtd" >
<svg xmlns="http://www.w3.org/2000/svg" xmlns:xlink="http://www.w3.org/1999/xlink" version="1.1" viewBox="0 -36 256 256">
  <g transform="matrix(1 0 0 -1 0 220)">
   <path fill="currentColor"
d="M39.5 194.5q6.5 -12.5 -1 -22.5t-10.5 7.5t-13 38.5l3 2q15 -13 21.5 -25.5zM52 245l23 -10l-9 -8v-71h18l10 13l15 -20h-43v-18q20 -13 28 -20.5t3 -19.5t-11 2.5t-20 30.5v-77q0 -13 1 -31l-15 -7q1 42 1 108q-15 -35 -42 -66l-3 3q30 48 41 95h-16q-9 0 -16 -2l-8 9
h44q0 59 -1 89zM100 207q-13 -26 -28 -42l-3 1q12 22 20 56l19 -11zM111 188.5q0 28.5 -1 47.5l14 -8h88l7 9l16 -11l-8 -6q0 -50 1 -74l-14 -5v9h-39v-31h33l11 10l15 -17h-59v-31h47l10 10l16 -17h-124q-13 0 -22 -3l-10 10h70v31h-22q-13 0 -22 -3l-10 10h54v31h-38v-7
l-14 -5q1 22 1 50.5zM124 157h38v64h-38v-64zM175 157h39v64h-39v-64zM152.5 186q5.5 -9 -1 -17.5t-10 5t-14.5 33.5l2 3q18 -15 23.5 -24zM182 163l-3 2q16 35 18 46l16 -13q-11 -8 -31 -35zM111.5 23q-5.5 -10 -16.5 -7.5t1 14.5t18 31l4 -1q-1 -27 -6.5 -37zM161.5 36
q3.5 -10 -5 -17.5t-9.5 7t-9 33.5l3 2q17 -15 20.5 -25zM241 41.5q8 -10.5 0 -19.5t-10.5 4t-18.5 34l2 3q19 -11 27 -21.5zM201 36.5q3 -9.5 -4 -16.5t-9 6.5t-13 32.5l3 2q20 -15 23 -24.5z" />
  </g>

</svg>
