<?xml version="1.0" standalone="no"?>
<!DOCTYPE svg PUBLIC "-//W3C//DTD SVG 1.1//EN" "http://www.w3.org/Graphics/SVG/1.1/DTD/svg11.dtd" >
<svg xmlns="http://www.w3.org/2000/svg" xmlns:xlink="http://www.w3.org/1999/xlink" version="1.1" viewBox="0 -36 256 256">
  <g transform="matrix(1 0 0 -1 0 220)">
   <path fill="currentColor"
d="M208 75l18 14l18 -21h-198q-13 0 -22 -3l-10 10h194zM24 8l-1 3q38 21 63 58l19 -13l-11 -4q-39 -32 -70 -44zM214 37q11 -10 7.5 -21t-10 -2t-21 21.5t-42.5 29.5l2 2q53 -20 64 -30zM50 198q0 19 -1 45l14 -8h134l9 10l13 -14l-8 -5q0 -40 1 -61l-14 -7v10h-135v-4
l-14 -6q1 21 1 40zM63 207h59v21h-59v-21zM135 207h63v21h-63v-21zM63 175h59v25h-59v-25zM135 175h63v25h-63v-25zM135 171v-98h-13v98h13zM36 150l20 -7l-7 -6v-25h19q0 37 -1 50l19 -9l-6 -6v-35h17q0 24 -1 38l20 -9l-7 -5q0 -20 1 -33l-13 -5v7h-17v-32h-12v32h-20
l-6 -5l-10 10l5 4q0 22 -1 36zM149 150l20 -7l-7 -6v-25h19q0 37 -1 50l19 -10l-6 -5v-35h17q0 24 -1 38l20 -9l-7 -5q0 -20 1 -32l-13 -6v7h-17v-32h-12v32h-20l-6 -5l-10 11l5 4q0 21 -1 35z" />
  </g>

</svg>
