<?xml version="1.0" standalone="no"?>
<!DOCTYPE svg PUBLIC "-//W3C//DTD SVG 1.1//EN" "http://www.w3.org/Graphics/SVG/1.1/DTD/svg11.dtd" >
<svg xmlns="http://www.w3.org/2000/svg" xmlns:xlink="http://www.w3.org/1999/xlink" version="1.1" viewBox="0 -36 256 256">
  <g transform="matrix(1 0 0 -1 0 220)">
   <path fill="currentColor"
d="M45.5 191.5q7.5 -12.5 -1 -22t-12 8t-15.5 36.5l2 3q19 -13 26.5 -25.5zM62 244l25 -9l-11 -9v-70h25l12 12l17 -19h-54v-20q25 -13 34 -23.5t3.5 -22.5t-12.5 5.5t-25 34.5v-77q0 -13 1 -31l-15 -7q1 42 1 110q-19 -36 -50 -65l-3 2q36 46 50 94h-22q-13 0 -22 -3
l-10 10h57q0 58 -1 88zM116 203q-14 -24 -31 -40l-3 2q14 21 23 55l20 -13zM170 9q-2 9 -10.5 14t-24.5 8v4l30 -1.5t11 10.5v169h-28q-13 0 -22 -3l-10 10h100l13 13l17 -20h-55v-172q1 -23 -21 -32z" />
  </g>

</svg>
