<?xml version="1.0" standalone="no"?>
<!DOCTYPE svg PUBLIC "-//W3C//DTD SVG 1.1//EN" "http://www.w3.org/Graphics/SVG/1.1/DTD/svg11.dtd" >
<svg xmlns="http://www.w3.org/2000/svg" xmlns:xlink="http://www.w3.org/1999/xlink" version="1.1" viewBox="0 -36 256 256">
  <g transform="matrix(1 0 0 -1 0 220)">
   <path fill="currentColor"
d="M60 144l-9 -7v-113h162l15 14l18 -21h-195l-11 -10l-14 17l9 6v74q0 22 -1 52zM82 77q0 42 -1 67l15 -6h44q1 12 1 26h-39h-3q-11 0 -20 -3l-11 10h136l14 11l17 -18h-81q0 -10 -1 -26h49l8 8l14 -11l-8 -6v-72q-1 -16 -18 -22q-2 14 -26 17v4q21 -1 26 0.5t4 10.5v64
h-49q-1 -9 -5 -23q32 -9 39 -18.5t1 -18t-11 1.5t-12 16.5t-19 13.5q-11 -24 -50 -42v-24l-15 -5q1 3 1 45zM96 67q37 24 42 64h-42v-64zM126 204h-44q0 -10 1 -23l-17 -6q1 15 1 29h-17q-16 0 -28 -3l-10 10h55q0 24 -1 35l23 -10l-7 -7v-18h17l13 12zM127 212h38
q0 19 -1 34l24 -11l-9 -7v-16h31l14 13l16 -20h-61q0 -10 1 -23l-16 -6q1 20 1 29h-10q-9 0 -18 -3z" />
  </g>

</svg>
