<?xml version="1.0" standalone="no"?>
<!DOCTYPE svg PUBLIC "-//W3C//DTD SVG 1.1//EN" "http://www.w3.org/Graphics/SVG/1.1/DTD/svg11.dtd" >
<svg xmlns="http://www.w3.org/2000/svg" xmlns:xlink="http://www.w3.org/1999/xlink" version="1.1" viewBox="0 -246 2048 2048">
  <g transform="matrix(1 0 0 -1 0 1802)">
   <path fill="currentColor"
d="M1289 896q83 -55 172 -98q193 163 303 327q143 -87 143 -128q0 -21 -37 -21q-19 0 -49 6q-137 -119 -307 -211q200 -95 442 -160q-62 -53 -96 -127q-489 166 -801 453q-348 -316 -923 -506l-27 49q535 215 864 541q-137 141 -256 340q-184 -232 -483 -424l-35 45
q398 297 602 776q189 -40 189 -84q0 -29 -99 -41q-39 -78 -75 -133h505l84 102q140 -108 140 -141q0 -15 -23 -24l-61 -27q-138 -211 -328 -403q48 -40 109 -80q178 153 299 338q143 -88 143 -129q0 -21 -37 -21q-19 0 -49 6q-169 -147 -309 -225zM754 1408
q76 -105 133 -172q78 -84 152 -149q188 188 289 362h-545q-2 -2 -15 -23q-8 -11 -14 -18z" />
  </g>

</svg>
