<?xml version="1.0" standalone="no"?>
<!DOCTYPE svg PUBLIC "-//W3C//DTD SVG 1.1//EN" "http://www.w3.org/Graphics/SVG/1.1/DTD/svg11.dtd" >
<svg xmlns="http://www.w3.org/2000/svg" xmlns:xlink="http://www.w3.org/1999/xlink" version="1.1" viewBox="0 -144 1024 1024">
  <g transform="matrix(1 0 0 -1 0 880)">
   <path fill="currentColor"
d="M862 99l-32 23l-30 23l-56 51l-49 57l-22 30l-20 32l-2 3v-258l-64 -32v255l-11 -15l-28 -33l-30 -31l-32 -29l-33 -27l-35 -24l-38 -22l-39 -20l-42 -16l-4 9l69 50l33 27l30 27l28 29l27 30l24 31l23 33l21 34l5 9h-247v22h279v72l64 -10l17 -11l-17 -10v-41h161l53 54
l65 -54v-22h-276l69 -66l55 -45l57 -41l62 -36l58 -31l-61 -48zM35 867l64 -33h120l32 27l60 -48l-27 -22v-486l-65 -32v64h-120v-64l-64 -33v627zM219 813h-120v-454h120v454zM880 456l-33 39l-16 21l-14 21l-24 43l-10 22v-156l-65 -32v167l-15 -22l-20 -24l-22 -22
l-24 -20l-25 -18l-28 -15l-28 -13l-6 8l43 42l20 21l17 22l17 23l28 49l11 26l11 27l2 8h-65v22h84v108l65 -10l16 -11l-16 -10v-77h14l53 53l65 -53v-22h-132v-12l46 -58l30 -34l33 -31l36 -29l10 -10zM562 541l-3 9l-4 10l-5 9l-14 19l-8 10l-5 4v-156l-64 -32v163
l-14 -22l-19 -25l-22 -23l-22 -22l-25 -19l-25 -18l-28 -14l-6 9l40 44l35 46l16 24l13 25l13 26l12 28l10 28l3 9h-113v22h132v108l25 -4v89h-183v22h183v87l65 -11l16 -11l-16 -9v-56h140v87l65 -11l16 -11l-16 -9v-56h65l53 53l65 -53v-22h-183v-62l-65 -32v94h-140v-62
l-57 -28l31 -5l17 -11l-17 -10v-77h31l33 37l43 -37v-22h-107v-46l5 -1l14 -5l14 -5l13 -7l13 -8l11 -9l11 -10l10 -11l9 -12l1 -25l-17 -18l-24 -1l-19 16z" />
  </g>

</svg>
