<?xml version="1.0" standalone="no"?>
<!DOCTYPE svg PUBLIC "-//W3C//DTD SVG 1.1//EN" "http://www.w3.org/Graphics/SVG/1.1/DTD/svg11.dtd" >
<svg xmlns="http://www.w3.org/2000/svg" xmlns:xlink="http://www.w3.org/1999/xlink" version="1.1" viewBox="0 -140 995 1000">
  <g transform="matrix(1 0 0 -1 0 860)">
   <path fill="currentColor"
d="M372 815h143q27 66 47 144l55 -24q33 -13 33 -20q0 -4 -14.5 -8.5t-28.5 -4.5q-1 -1 -2 -1h4l-2 -1l5 1q-8 -23 -35 -86h241l30 40q0 -1 1 0q1 0 2 1l-2 -1l3 3h-1q1 0 3 2h-1q6 8 18 8q14 0 28 -13l54 -48l-9 -14h-378q-27 -52 -47 -79l27 -15h260l15 16l-2 -1l3 3h-1
q7 10 17 10q14 0 24 -12l27 -29q17 -15 17 -21q0 -11 -30 -12v-147q0 -11 1 -17h-1l2 -8q0 -6 -19.5 -13.5t-28.5 -7.5q-12 0 -15 3t-3 11l2 7h-1v17h-267q0 -18 -3 -23t-19 -10q-20 -6 -26 -6q-13 0 -16 3.5t-3 12.5l1 22v172q-74 -83 -159 -114l-10 12q106 64 195 226
h-134v22zM677 399l25 19l7 3h-6q11 8 19 8q12 0 26 -11h-1l32 -24q25 -19 25 -24q0 -13 -54 -13l-41 2l-449 -149q-65 -23 -65 -47q0 -23 80 -23h525q33 0 48.5 11.5t23.5 41.5l23 85l31 -3l-11 -88q0 -15 10 -21h-1q25 -15 25 -28q0 -23 -28 -27.5t-127 -4.5h-533
q-59 0 -98 13.5t-39 36.5t31.5 47.5t83.5 41.5l397 132h-510v22h551zM545 677v-157h268v157h-268zM275 765l8 1v-265q0 -16 1 -21q0 -29 -3 -36.5t-19 -12.5l-10 -4h1q-5 -3 -16 -3q-13 0 -16 10.5t-3 34.5l1 32v221q-54 -60 -141 -118l-13 16q161 134 243 339l46 -26
q31 -18 31 -25q0 -9 -40 -9q-36 -73 -62 -100q22 -12 22 -17q0 -6 -30 -17zM869 652l7 1q-3 0 -7 -1zM851 858q-1 -1 -2 -1zM819 714q-1 -1 -1 0h1zM848 855h1h-1z" />
  </g>

</svg>
