<?xml version="1.0" standalone="no"?>
<!DOCTYPE svg PUBLIC "-//W3C//DTD SVG 1.1//EN" "http://www.w3.org/Graphics/SVG/1.1/DTD/svg11.dtd" >
<svg xmlns="http://www.w3.org/2000/svg" xmlns:xlink="http://www.w3.org/1999/xlink" version="1.1" viewBox="0 -36 256 256">
  <g transform="matrix(1 0 0 -1 0 220)">
   <path fill="currentColor"
d="M123 243q47 -20 21 -31h70l14 13l16 -20h-189v-83q0 -66 -43 -110l-3 4q33 43 32 111v50q0 23 -1 46l19 -11h77q1 15 -15 28zM176 148h26v33h-26v-33zM216 153q0 -7 1 -12l-15 -5v5h-106v-4l-15 -4q1 21 1 34t-1 28l16 -7h104l5 9l17 -11l-7 -6v-27zM96 148h26v33h-26
v-33zM136 148h26v33h-26v-33zM156 46q12 8 25 23h-56q19 -18 31 -23zM183 122l10 10l15 -17h-74l-6 -18h72l12 11l16 -18h-103q-3 -7 -8 -14h68l9 8l12 -15l-7 -3q-14 -14 -31 -27q14 -6 34 -9.5t42 -3.5l-1 -4q-15 -4 -19 -12q-31 4 -67 22q-37 -19 -91 -23v4q57 12 80 27
q-17 14 -26 29h-7q-21 -27 -68 -50l-2 4q47 28 67 67h-28q-10 0 -19 -2l-9 9h59q6 15 6 18h-18q-11 0 -20 -2l-9 9h111zM216 126q24 -5 26 -12t-2 -12.5t-8.5 3.5t-16.5 17z" />
  </g>

</svg>
