<?xml version="1.0" standalone="no"?>
<!DOCTYPE svg PUBLIC "-//W3C//DTD SVG 1.1//EN" "http://www.w3.org/Graphics/SVG/1.1/DTD/svg11.dtd" >
<svg xmlns="http://www.w3.org/2000/svg" xmlns:xlink="http://www.w3.org/1999/xlink" version="1.1" viewBox="0 -154 1024 1024">
  <g transform="matrix(1 0 0 -1 0 870)">
   <path fill="currentColor"
d="M889 333v-228q0 -26 -9 -43q-10 -19 -72 -28q-4 35 -48 45q-42 6 -85 16l2 12q118 -18 139 -18q19 0 28 6q8 7 7 78v172h-289l-2 -4q75 -21 116 -35q105 -38 107 -72q-2 -14 -17 -16t-40 21q-26 25 -64 42q-37 17 -112 47q-20 -26 -46 -51q-54 -52 -142 -76l-7 14
q72 31 118 75q30 28 48 55h-212v-204l4 -51q3 -44 -50 -51q5 44 7 155v161q-3 14 -14 26l12 9l34 -27h230q15 23 22 50q1 5 -11 23l4 3q-13 -3 -25 -4l-6 15q126 38 179 101q53 64 57 140q0 20 -13 27l10 9l57 -29q12 -5 2 -14q-11 -1 -22 -10q-3 -24 -10 -46
q65 -136 232 -155v-14q-29 0 -43 -2q-14 -3 -29 -16q-113 42 -171 159q-71 -132 -209 -160l64 -22q5 -8 -5 -8q-21 2 -31 -23q-5 -12 -11 -24h261l27 38l43 -38q18 -13 0 -16zM150 973l47 -44h674l34 44l67 -51q23 -15 -10 -13h-757v-339q-1 -183 -33 -295
q-32 -111 -134 -231l-8 14q89 138 108 251q20 114 22 283v321q0 24 -22 48zM532 895l45 -31q16 -11 7 -15q-20 -1 -32 -10q-28 -35 -63 -72h79l19 30l55 -39q15 -11 -6 -9h-175q3 -97 -7 -160h91v64q2 16 -21 30l8 11l69 -19q14 -5 6 -11q-20 -7 -29 -20v-52l4 -28
q-4 -25 -37 -37v45h-95q-59 -144 -224 -175l-7 17q149 43 195 158h-78l-30 -29l-44 39q24 11 29 31v59q-6 13 -23 24l9 9l67 -20q16 -3 7 -11q-16 -5 -27 -18v-67h93q8 57 7 160h-118q-26 1 -43 -13l-33 31h239q8 12 31 52q22 39 28 49q4 6 -3 20zM771 855q-16 -2 -24 -18
q-10 -28 -22 -55h173l23 28l56 -55q2 -11 -12 -7q-22 -2 -44 -17q-21 -15 -69 -66l-10 8l56 91h-181q-31 -72 -90 -125l-10 10q68 105 84 173q11 37 8 45q-2 7 -11 22l7 6l71 -28q5 -11 -5 -12zM623 259q5 -10 -5 -10q-17 -1 -31 -19q49 -14 85 -27q99 -39 107 -71
q-1 -14 -16 -16q-15 -1 -44 23q-27 24 -61 40q-28 15 -84 37q-28 -25 -72 -60q-54 -42 -136 -69l-7 12q123 66 166 119q43 42 23 58l8 6zM314 891q81 -29 80 -85q-2 -25 -17 -27q-17 -4 -20 20q-1 23 -13 44q-11 21 -36 39z" />
  </g>

</svg>
