<?xml version="1.0" standalone="no"?>
<!DOCTYPE svg PUBLIC "-//W3C//DTD SVG 1.1//EN" "http://www.w3.org/Graphics/SVG/1.1/DTD/svg11.dtd" >
<svg xmlns="http://www.w3.org/2000/svg" xmlns:xlink="http://www.w3.org/1999/xlink" version="1.1" viewBox="0 -205 1024 1024">
  <g transform="matrix(1 0 0 -1 0 819)">
   <path fill="currentColor"
d="M442 946l54 -36h366l28 38l58 -38q6 -6 6 -8q0 -6 -30 -24v-90l4 -66q3 -12 -14 -24q-16 -12 -38 -12v38h-386v-18q0 -15 -14 -24q-15 -9 -38 -8l4 94v178v0v0zM490 748h98v136h-98v-136v0v0zM636 748h96v136h-96v-136v0v0zM780 748h96v136h-96v-136v0v0zM526 492h100
v100l62 -20q8 -2 8 -4q3 -5 -2 -10l-22 -12v-54h92l26 32l50 -34l4 -8q0 -5 -26 -22v-64l4 -56q1 -12 -16 -20q-14 -8 -34 -10v32h-100v-118l110 6q-24 32 -54 56l10 10q42 -21 66 -38q23 -18 38 -36q14 -19 16 -34q3 -16 -6 -28q-6 -12 -24 -12q-15 0 -20 22q-5 20 -16 44
q-274 -30 -304 -38q-30 -9 -56 -24l-32 56l226 12v122h-102v-6q1 -9 -10 -18q-12 -9 -38 -12l4 80v128l46 -22v0v0zM524 366h102v102h-102v-102v0v0zM672 468v-102h100v102h-100v0v0zM594 680q8 -3 10 -8q0 -9 -14 -12q-23 -9 -34 -32h324l32 38l54 -40q7 -6 8 -12
q-1 -7 -34 -28v-342q3 -82 -6 -117q-6 -34 -30 -62q-21 -25 -66 -42q-6 30 -32 44q-27 13 -86 34l4 16q39 -8 70 -14q29 -4 56 -2q24 1 36 38q12 35 6 93v370h-354q-26 -39 -64 -90q-38 -52 -100 -112l-12 8q60 84 106 162q45 78 66 136l60 -26v0v0zM146 636h164l32 42
l40 -38q19 -15 14 -24q-3 -6 -8 -6h-136v-156h50l30 34l36 -44q9 -7 -2 -16h-114v-252l148 108l12 -14q-115 -103 -140 -130q-24 -22 -48 -59l-54 52q15 9 34 33v262h-62q-31 0 -58 -8l-18 34h138v156h-18l-22 -6l-18 32v0v0zM284 938q7 -3 8 -6q3 -9 -8 -14q-24 -7 -36 -28
q-18 -40 -38 -88h120l34 40l52 -52q2 -3 2 -6q0 -9 -6 -8h-212q-28 -70 -56 -124q-27 -54 -74 -122l-16 6q43 91 80 182q36 89 84 254l66 -34v0v0z" />
  </g>

</svg>
