<?xml version="1.0" standalone="no"?>
<!DOCTYPE svg PUBLIC "-//W3C//DTD SVG 1.1//EN" "http://www.w3.org/Graphics/SVG/1.1/DTD/svg11.dtd" >
<svg xmlns="http://www.w3.org/2000/svg" xmlns:xlink="http://www.w3.org/1999/xlink" version="1.1" viewBox="0 -205 1024 1024">
  <g transform="matrix(1 0 0 -1 0 819)">
   <path fill="currentColor"
d="M868 994l64 -46q2 -6 2 -8q0 -7 -8 -8h-750v-436h660l36 38l60 -48q3 -4 4 -8q0 -9 -8 -8h-746l-32 -32l-58 48l36 28v482l56 -38h648l36 36v0v0zM224 856h156v64l66 -18q6 -3 6 -6q7 -4 -24 -22v-18h210v66l76 -26q6 -3 4 -12q0 -3 -32 -14v-14h92l30 32l54 -42
q2 0 2 -6q0 -7 -12 -8h-166v-28l4 -26q-1 -13 -20 -20q-15 -7 -36 -8l4 50v32h-210v-20l4 -34q-1 -13 -20 -22q-18 -10 -36 -10l4 62v24h-96q-18 0 -42 -8l-18 32v0v0zM200 734h234q42 39 72 84l60 -32q3 -7 -2 -10q-6 -1 -18 -4q-13 -1 -28 -16l-28 -22h308l34 32l56 -38
q3 -3 4 -6q0 -12 -12 -12h-410q-33 -31 -54 -50l16 -10h272l22 24l48 -24q9 -6 10 -14q0 -4 -24 -20v-48l4 -22q0 -15 -20 -24q-19 -6 -32 -6v26h-276v0q0 -12 -12 -20q-12 -7 -38 -10l4 84v46q-112 -81 -172 -110l-8 12q69 51 112 84q40 32 92 82h-142q-21 0 -56 -8l-16 32
v0v0zM436 566h276v60h-276v-60v0v0zM346 428q4 -3 2 -8q0 -1 -2 -2l-22 -14v-50h110l22 32l44 -34q12 -6 12 -14q0 -4 -24 -20v-78l4 -44q0 -9 -14 -18q-15 -7 -38 -8v32h-116v-107l110 4q-27 34 -60 63l8 12q69 -33 96 -57q27 -23 34 -44t0 -36q-8 -14 -22 -14t-22 14
q-7 15 -22 42q-246 -18 -296 -28q-48 -8 -74 -26l-26 62l228 6v109h-114v-26q3 -9 -14 -18q-15 -9 -36 -9l4 67v168l50 -30h110v98l68 -24v0v0zM164 226h114v104h-114v-104v0v0zM324 226h116v104h-116v-104v0v0zM800 430l6 -6v-6l-30 -14v-50h100l24 30l50 -32q12 -6 12 -14
q0 -4 -26 -20v-78l4 -46q-1 -14 -16 -22q-15 -7 -36 -8v32h-112v-97l112 2q-34 34 -62 53l8 12q69 -28 100 -49q30 -20 42 -40q13 -20 6 -40q-6 -18 -24 -18q-15 -1 -24 16q-6 14 -30 46q-197 -17 -256 -26q-56 -10 -88 -26l-34 60l202 6v101h-118v-16q3 -9 -8 -18
q-9 -9 -42 -12l4 72v158l54 -26h110v98l72 -22v0v0zM610 220h118v110h-118v-110v0v0zM776 220h112v110h-112v-110v0v0z" />
  </g>

</svg>
