<?xml version="1.0" standalone="no"?>
<!DOCTYPE svg PUBLIC "-//W3C//DTD SVG 1.1//EN" "http://www.w3.org/Graphics/SVG/1.1/DTD/svg11.dtd" >
<svg xmlns="http://www.w3.org/2000/svg" xmlns:xlink="http://www.w3.org/1999/xlink" version="1.1" viewBox="0 -410 2048 2048">
  <g transform="matrix(1 0 0 -1 0 1638)">
   <path fill="currentColor"
d="M332 2014q142 -70 148 -82v-10q-60 0 -82 -88q-10 -34 -52 -138h212l56 58q56 -50 102 -110v-16l-26 6q-70 0 -174 -186l-42 -62h144l72 74l78 -98v-28l-42 -18v-444q0 -76 6 -196q-20 -52 -62 -52h-16v86h-410v-52q0 -52 -82 -68q10 182 10 346v420l6 12h-6
q-28 -56 -128 -162h-6q-8 0 -20 24q262 356 324 714q-20 44 -26 52v12q6 0 16 6zM1046 2020q146 -62 146 -84q0 -8 -54 -24q-68 -118 -108 -206h108l64 90l102 -108q0 -8 -48 -48v-1316q0 -206 -108 -206q-2 -6 -48 -6q0 88 -156 128q6 10 6 30l172 -24q48 0 48 54
q6 28 6 78v640h-242v-42q0 -632 -178 -816q0 -18 -96 -120h-6q-14 12 -22 12q194 304 210 550q16 180 16 326v84q-46 -18 -48 -18l-54 66v6h102v616q0 30 -32 96l22 18q74 -90 80 -90h58q66 200 66 242q0 10 -22 54q8 0 16 18zM1504 1978q184 -96 184 -212v-24
q-6 -48 -44 -48q-28 0 -42 120q-26 54 -114 140q8 24 16 24zM326 1650q0 -28 -124 -242q24 -22 26 -22h200l130 264h-232zM1380 1706h32v-66h436q0 6 28 54h10q102 -86 102 -108l-10 -6q-16 6 -16 12q-36 -12 -136 -194h-10q-16 6 -16 12l54 182h-442v-6q-14 -194 -90 -194
h-6q-28 0 -32 18v36q92 76 92 230q4 10 4 30zM938 1664v-446q0 -52 -4 -152h242v598h-238zM982 1538q128 -134 128 -242q0 -52 -26 -72h-12q-36 0 -36 84q0 86 -76 204q0 10 22 26zM1462 1404q166 -62 166 -78q0 -6 -60 -30q0 -6 -10 -6v-532q182 258 226 386v6q0 8 -6 62
q16 0 16 12q112 -76 130 -104q-12 -12 -70 -18q-112 -198 -296 -422v-392q0 -104 86 -104q34 -6 92 -6h16q108 0 108 80q10 68 10 234v36h32q0 -294 48 -294l12 -12q-44 -110 -140 -110h-194q-146 0 -146 158v1020q0 42 -36 90v6q0 8 16 18zM244 1338v-264h174v264h-174z
M490 1338v-264h164v264h-164zM244 1040v-284h174v284h-174zM490 1040v-284h164v284h-164zM966 904q144 -124 144 -254q-8 -72 -48 -72q-24 0 -48 180q-32 78 -64 122q8 24 16 24zM742 532q0 -10 10 -34q-486 -208 -544 -238q0 -2 -46 -58q-8 2 -78 100v4z" />
  </g>

</svg>
