<?xml version="1.0" standalone="no"?>
<!DOCTYPE svg PUBLIC "-//W3C//DTD SVG 1.1//EN" "http://www.w3.org/Graphics/SVG/1.1/DTD/svg11.dtd" >
<svg xmlns="http://www.w3.org/2000/svg" xmlns:xlink="http://www.w3.org/1999/xlink" version="1.1" viewBox="0 -205 1024 1024">
  <g transform="matrix(1 0 0 -1 0 819)">
   <path fill="currentColor"
d="M456 566q3 -7 4 -10q-1 -9 -26 -14q-18 -6 -32 -42q-43 -108 -88 -192q-46 -83 -106 -148q-58 -65 -154 -139l-10 14q105 102 162 185q56 80 92 164q35 83 76 226l82 -44v0v0zM648 620q19 -10 2 -20q-25 -7 -28 -26q3 -69 42 -164q36 -94 126 -188q87 -92 198 -109v-18
q-49 -1 -70 -8q-20 -6 -40 -30q-90 78 -146 149q-57 72 -96 172q-40 99 -62 270l74 -28v0v0zM220 848q3 -21 0 -50h626l44 48l62 -58q18 -12 18 -20q0 -6 -14 -8q-28 -3 -58 -24q-39 -25 -108 -104l-18 10l88 128h-642v-4q-6 -49 -24 -82q-18 -31 -38 -44q-22 -13 -40 -8
q-18 3 -20 22q-4 18 20 36q21 18 48 52q27 35 36 106h20v0v0zM430 982q81 -36 112 -62q29 -27 32 -56q3 -28 -12 -40q-15 -13 -32 -8q-17 3 -22 24q-4 20 -16 52q-13 32 -70 76l8 14v0v0z" />
  </g>

</svg>
