<?xml version="1.0" standalone="no"?>
<!DOCTYPE svg PUBLIC "-//W3C//DTD SVG 1.1//EN" "http://www.w3.org/Graphics/SVG/1.1/DTD/svg11.dtd" >
<svg xmlns="http://www.w3.org/2000/svg" xmlns:xlink="http://www.w3.org/1999/xlink" version="1.1" viewBox="0 -36 256 256">
  <g transform="matrix(1 0 0 -1 0 220)">
   <path fill="currentColor"
d="M38 97h37v42h-24q-10 0 -19 -2l-9 9h65l10 11l15 -18h-25v-42h10l10 9l13 -16h-33v-58q-1 -18 -17 -24q-1 6 -4.5 10.5t-15.5 7.5l1 4q18 -3 20.5 -3t2.5 6v53q-25 -38 -67 -66l-2 3q38 34 56 67h-26l-6 -5l-11 10l6 4q8 18 9 35l18 -8l-6 -5zM105 207l8 9l14 -14
q-5 0 -9 -4.5t-16 -16.5l-3 1l9 18h-77q1 -10 -2.5 -15.5t-9 -7t-8.5 1.5t4 11t10 28h5v-11h75zM13 146l-3 3q26 20 37 41l17 -12l-9 -2q-18 -17 -42 -30zM112 169q11 -9 6.5 -19.5t-10.5 2t-32 31.5l1 4q24 -9 35 -18zM76 227q4 -7 -3 -14.5t-9 5t-14 25.5l2 2
q20 -11 24 -18zM185 118l-14 -5q1 24 1 37v36h-35q1 -11 -1.5 -15.5t-8 -5.5t-8 2t4 10.5t7.5 27.5h4l1 -12h36v26h-17q-10 0 -18 -2l-9 9h80l10 10l16 -17h-50v-26h45l7 10l12 -17q-11 -1 -22 -20l-3 2l6 18h-45v-46q0 -13 1 -22zM162 165v-7h-29v7h29zM222 165v-7h-28v7
h28zM161 137v-7h-28v7h28zM223 137v-7h-30v7h30zM230 14l-14 -6v17h-74v-12l-14 -5q1 23 1 53.5t-1 52.5l14 -7h73l8 9l14 -13l-8 -6q0 -56 1 -83zM142 71h30v29h-30v-29zM183 71h33v29h-33v-29zM142 32h30v32h-30v-32zM183 32h33v32h-33v-32z" />
  </g>

</svg>
