<?xml version="1.0" standalone="no"?>
<!DOCTYPE svg PUBLIC "-//W3C//DTD SVG 1.1//EN" "http://www.w3.org/Graphics/SVG/1.1/DTD/svg11.dtd" >
<svg xmlns="http://www.w3.org/2000/svg" xmlns:xlink="http://www.w3.org/1999/xlink" version="1.1" viewBox="0 -36 256 256">
  <g transform="matrix(1 0 0 -1 0 220)">
   <path fill="currentColor"
d="M191 241.5q8 -3.5 8 -8.5t-4 -8t-9 3t-22 14l1 3q18 0 26 -3.5zM234.5 137.5q7.5 -6.5 -22 -1t-57.5 31.5q-22 -11 -76 -18v5q52 12 70 22q-8 14 -13 35h-75q-11 0 -20 -2l-10 9h103q-2 9 -5 28l23 -5l-7 -6q1 -8 3 -17h54l12 11l16 -18h-80q6 -21 12 -29q22 13 32 28
l17 -14l-9 -3q-20 -13 -33 -21q20 -18 48 -22l5 27h4q1 -34 8.5 -40.5zM73 210l23 -6l-9 -5v-12h22l9 9l12 -16h-44q-5 -24 -57 -42l-2 5q40 19 45 37h-22q-10 0 -20 -2l-10 9h53v23zM141 150l-11 -3l-13 -10h67l9 10l16 -16l-9 -4v-11q0 -13 1 -25l-15 -4v5h-122v-11h150
l14 13l19 -20h-183v-11h156l10 9l13 -13l-9 -5q-6 -28 -13.5 -36t-20.5 -11q1 11 -27 13v5q30 -3 36 2t11 29h-156v-4l-15 -3q1 15 1 29v36q0 15 -1 31l16 -8h44q6 12 8 22zM64 130v-12h122v12h-122zM64 111v-12h122v12h-122zM44 54l4 -1q-3 -28 -13 -33t-15.5 0.5t6 11
t18.5 22.5zM72 54q28 -19 17.5 -29.5t-11.5 2t-9 26.5zM114 55q20 -12 22.5 -19.5t-4 -12.5t-9.5 7t-12 23zM155 53l3 3q20 -8 24.5 -14t-2 -13t-9.5 3t-16 21z" />
  </g>

</svg>
