<?xml version="1.0" standalone="no"?>
<!DOCTYPE svg PUBLIC "-//W3C//DTD SVG 1.1//EN" "http://www.w3.org/Graphics/SVG/1.1/DTD/svg11.dtd" >
<svg xmlns="http://www.w3.org/2000/svg" xmlns:xlink="http://www.w3.org/1999/xlink" version="1.1" viewBox="0 -205 1024 1024">
  <g transform="matrix(1 0 0 -1 0 819)">
   <path fill="currentColor"
d="M464 484l54 -36h132l36 38l46 -36q9 -6 10 -14q-1 -3 -28 -24v-134l4 -56q0 -15 -20 -26q-18 -12 -32 -12v54h-152v-46q0 -15 -18 -26q-18 -10 -36 -10l4 116v212v0v0zM514 422v-160h152v160h-152v0v0zM382 590h522l34 48l60 -58q3 -3 4 -6q0 -10 -12 -10h-118v-433
q3 -39 -12 -60q-13 -19 -64 -36q-9 32 -32 46q-25 13 -88 32l4 18q72 -11 96 -14q21 0 36 2q13 4 12 45v400h-382q-22 0 -46 -8l-14 34v0v0zM726 960q3 -3 4 -6q9 -7 -32 -20l-12 -92h188l30 40l58 -50q2 0 2 -6q1 -10 -10 -10h-274l-16 -48q57 -13 118 -34q60 -22 84 -46
q21 -25 16 -46q-3 -19 -24 -22q-20 -2 -40 24q-18 26 -66 56q-49 29 -100 50q-21 -40 -80 -82q-58 -42 -158 -62l-2 16q84 36 138 78q53 41 74 116h-132q-22 0 -58 -12l-20 38h216q10 87 14 148l82 -30v0v0zM114 974l60 -46h130l30 38l52 -42q9 -6 10 -12q-1 -6 -34 -24
v-734q3 -41 -8 -67q-9 -26 -60 -44q-4 25 -26 40q-22 16 -86 34l6 18q65 -15 86 -18q18 -1 30 6q12 6 10 31v306h-152q-4 -112 -16 -170q-13 -57 -40 -128q-28 -67 -74 -125l-12 10q38 79 56 141q17 61 28 164q12 102 10 216v406v0v0zM314 486v190h-150v-190h150v0v0z
M164 702h150v200h-150v-200v0v0z" />
  </g>

</svg>
