<?xml version="1.0" standalone="no"?>
<!DOCTYPE svg PUBLIC "-//W3C//DTD SVG 1.1//EN" "http://www.w3.org/Graphics/SVG/1.1/DTD/svg11.dtd" >
<svg xmlns="http://www.w3.org/2000/svg" xmlns:xlink="http://www.w3.org/1999/xlink" version="1.1" viewBox="0 -205 1024 1024">
  <g transform="matrix(1 0 0 -1 0 819)">
   <path fill="currentColor"
d="M416 756q60 99 114 226l72 -38q19 -12 -4 -18q-27 -6 -42 -26l-30 -46h192l40 46q61 -52 62 -52q10 -7 8 -16q-1 -6 -22 -8q-21 1 -80 -70l-48 -62h186l42 48l64 -56q2 -7 2 -10q0 -9 -6 -8h-510v-160q0 -206 -42 -304q-41 -97 -136 -185l-10 12q67 81 104 179
q36 98 34 298v176q-42 -51 -84 -92l-12 10q45 57 106 156v0v0zM428 712l26 -20h196l78 140h-216q-45 -69 -84 -120v0v0v0zM538 596l62 -40h190l28 32l60 -44q12 -10 0 -16l-28 -18v-144q0 -54 -18 -84q-15 -28 -68 -44q-7 32 -34 44q-27 11 -74 26l6 16q56 -13 86 -16
q30 -4 42 14q12 14 10 50v158h-210v-380q-1 -28 14 -41q12 -9 48 -10h200q35 1 50 14q12 12 16 31q3 19 4 140h22q3 -84 10 -114q6 -30 30 -47q-12 -27 -30 -46q-18 -18 -66 -22h-262q-39 1 -56 10q-15 9 -24 32q-7 21 -8 55v444v0v0zM370 934q12 -8 -2 -16q-27 -2 -42 -34
q-52 -99 -106 -204l50 -20q15 -9 -2 -18l-18 -10v-486l4 -93q0 -17 -24 -32q-21 -13 -36 -12l4 131v500q-75 -127 -146 -196l-12 8q66 96 150 270q81 174 102 252l78 -40v0v0z" />
  </g>

</svg>
