<?xml version="1.0" standalone="no"?>
<!DOCTYPE svg PUBLIC "-//W3C//DTD SVG 1.1//EN" "http://www.w3.org/Graphics/SVG/1.1/DTD/svg11.dtd" >
<svg xmlns="http://www.w3.org/2000/svg" xmlns:xlink="http://www.w3.org/1999/xlink" version="1.1" viewBox="0 -205 1024 1024">
  <g transform="matrix(1 0 0 -1 0 819)">
   <path fill="currentColor"
d="M374 458l50 -22h144l22 26l52 -30q6 -6 6 -8q0 -7 -26 -22v-162l4 -48q-1 -13 -20 -22q-17 -10 -28 -10v26h-160v-4q0 -12 -12 -20q-12 -6 -36 -12l4 76v232v0v0zM418 210h160v52h-160v-52v0v0zM418 288h160v46h-160v-46v0v0zM418 358h160v54h-160v-54v0v0zM482 150
q3 -3 6 -8q-1 -5 -10 -7q-9 1 -18 -8q-9 -6 -42 -42q-34 -34 -88 -78l-10 12q48 55 70 88q20 31 40 67l52 -24v0v0zM522 160l8 10q33 -18 54 -33q23 -14 32 -32q9 -15 4 -34q-6 -18 -26 -18q-19 1 -22 22q-4 21 -14 42q-9 17 -36 43v0v0zM876 756l34 38l60 -44q3 -3 4 -8
q0 -10 -12 -10h-742v-48h540l32 32l56 -40q2 -4 2 -10q1 -6 -4 -6h-618l-30 -24l-52 40l28 18v38h-92q-9 0 -44 -8l-16 32h854v0v0zM170 630l50 -28h552l22 28l50 -32q6 -3 6 -8q0 -3 -24 -18v-44l4 -40q1 -7 -16 -16q-16 -10 -34 -10v30h-564v-4q1 -7 -10 -16t-40 -8l4 78
v88v0v0zM216 516h564v60h-564v-60v0v0zM158 236h114v78h-110v-8q-1 -31 -4 -70v0v0v0zM162 338h110v80h-110v-80v0v0zM686 466l50 -30h100l28 26l44 -34q9 -9 4 -14q-3 -2 -26 -16v-301q0 -14 4 -22q2 -8 22 -8h26q16 4 20 22l6 34q-1 15 2 87h18q2 -45 4 -79t26 -44
q-6 -24 -18 -40q-12 -14 -36 -20h-58q-27 0 -38 6q-9 7 -14 16q-6 11 -8 34v329h-112v-88q33 -19 60 -40q24 -21 28 -42q4 -22 -4 -32q-10 -10 -22 -8q-13 2 -20 26q-6 22 -18 44q-12 20 -24 28q-1 -70 -10 -116q-9 -45 -36 -91q-25 -45 -86 -90l-8 12q54 58 72 106
q18 46 24 139v206v0v0zM118 468l48 -26h100l22 24l40 -26q7 -5 8 -10q0 -6 -20 -20v-301q2 -38 -10 -62q-12 -21 -50 -36q-4 28 -28 38q-24 12 -62 24l4 14q48 -10 60 -14q14 -3 28 2q14 6 14 26v111h-114q-1 -49 -16 -83q-12 -36 -38 -66q-25 -27 -62 -58l-8 8q38 50 58 88
q18 36 22 81q3 45 4 142v144v0v0zM262 968q10 -9 0 -18q-22 -3 -28 -8q-6 -4 -14 -10q-6 -7 -18 -26h214l38 40l58 -50q9 -16 -8 -16h-212q45 -28 54 -38q8 -9 14 -24q4 -12 -4 -24q-9 -12 -26 -12q-18 0 -24 22q-4 20 -8 32q-4 11 -34 44h-76q-42 -57 -102 -114l-14 12
q43 59 68 106q23 45 50 114l72 -30v0v0zM674 962q10 -10 0 -16q-15 0 -24 -6l-12 -12q-3 -5 -18 -22h242l36 40l60 -50q9 -16 -8 -16h-234q33 -18 48 -32q15 -13 22 -28q7 -14 -4 -28q-10 -15 -28 -12q-19 2 -22 26q-4 23 -14 40q-9 15 -30 34h-80q-40 -60 -74 -92l-14 10
q26 50 44 92q17 42 34 102l76 -30v0v0zM400 844l6 12q49 -10 74 -22q23 -9 32 -24q6 -14 0 -28q-6 -12 -24 -14q-18 0 -24 16q-6 14 -18 28q-10 13 -46 32v0v0z" />
  </g>

</svg>
