<?xml version="1.0" standalone="no"?>
<!DOCTYPE svg PUBLIC "-//W3C//DTD SVG 1.1//EN" "http://www.w3.org/Graphics/SVG/1.1/DTD/svg11.dtd" >
<svg xmlns="http://www.w3.org/2000/svg" xmlns:xlink="http://www.w3.org/1999/xlink" version="1.1" viewBox="0 -36 256 256">
  <g transform="matrix(1 0 0 -1 0 220)">
   <path fill="currentColor"
d="M81 229q-8 -3 -19.5 -21t-34.5 -46q27 1 80 5q-10 21 -20 32l3 2q23 -20 32.5 -32.5t3.5 -24t-9.5 -1t-6.5 18.5q-31 -4 -57 -8.5t-34 -11.5l-9 21q11 1 28.5 30t23.5 50zM62 158q-1 -83 -15.5 -110.5t-34.5 -40.5l-1 3q21 22 29.5 54t8.5 91q8 1 13 3zM83 160q7 1 14 3
v-120q0 -12 11 -13h104q15 -1 16.5 12.5t2.5 33.5h4q0 -15 3 -28t9 -14q-6 -14 -20 -15h-125q-18 0 -19 21v120zM214 245l14 -14q-20 -3 -81 -15q1 -60 -6 -101t-29 -68l-3 2q20 38 23.5 82t0.5 101l14 -10q53 13 67 23zM156 195l15 -9q28 9 43 21l13 -15q-9 -1 -17.5 -3
t-39.5 -11v-108l23 14l2 -2q-19 -18 -29 -37l-13 12l4 4q2 114 -1 134zM184 166q4 -13 11 -27q17 15 24 27l15 -14q-10 -1 -37 -18q21 -40 44 -50l-1 -5q-15 1 -20 -5q-29 35 -40 91z" />
  </g>

</svg>
