<?xml version="1.0" standalone="no"?>
<!DOCTYPE svg PUBLIC "-//W3C//DTD SVG 1.1//EN" "http://www.w3.org/Graphics/SVG/1.1/DTD/svg11.dtd" >
<svg xmlns="http://www.w3.org/2000/svg" xmlns:xlink="http://www.w3.org/1999/xlink" version="1.1" viewBox="0 -200 1000 1000">
  <g transform="matrix(1 0 0 -1 0 800)">
   <path fill="currentColor"
d="M829 538l62 -43q15 -12 6 -15q-23 3 -41 -8q-79 -64 -132 -100q16 -27 37 -51q30 -39 63 -64q29 -24 62 -38q25 -12 72 -26l1 -15q-26 2 -60 2q-24 -1 -37 -22q-51 38 -96 90q-73 83 -115 222v-367q0 -37 -16 -53q-20 -16 -72 -29q-2 26 -25 37q-24 9 -85 27l2 18l43 -10
q64 -14 86 -6q21 8 22 52v214l-135 -95q-66 -46 -84 -62q-16 -16 -30 -44l-51 47l300 179v224h-219q-29 0 -45 -13l-34 33h384l26 88h-235l-26 -31l-47 41q19 11 27 27l63 188q0 18 -15 36l9 10l73 -33q16 -6 7 -11q-19 -4 -31 -18l-20 -56h218l39 42l50 -49q6 -4 7 -6
q0 -2 -5 -3q-12 1 -30 -16l-63 -209h115l32 39l66 -50q8 -5 6 -8q-2 -2 -12 -1h-295v-66q35 -97 61 -144q32 29 67 64q40 41 44 51q4 9 -2 24zM518 847l-42 -121h246l35 121h-239zM316 777l17 -8q-88 -276 -112 -340q-28 -70 -38 -112q-9 -41 3 -140q14 -102 -23 -104
q-36 -3 -24 102q11 106 -3 125q-14 21 -89 29l2 18q72 -2 91 11q16 11 42 62q8 13 134 357zM69 905l5 14q142 -37 150 -122q5 -39 -18 -46q-21 -7 -27 30q-6 40 -28 68q-26 31 -82 56zM390 518l4 12q59 -23 88 -43q30 -19 42 -43q13 -23 4 -41q-10 -18 -24 -15q-16 1 -22 26
q-4 21 -24 46q-19 21 -68 58z" />
  </g>

</svg>
