<?xml version="1.0" standalone="no"?>
<!DOCTYPE svg PUBLIC "-//W3C//DTD SVG 1.1//EN" "http://www.w3.org/Graphics/SVG/1.1/DTD/svg11.dtd" >
<svg xmlns="http://www.w3.org/2000/svg" xmlns:xlink="http://www.w3.org/1999/xlink" version="1.1" viewBox="0 -205 1024 1024">
  <g transform="matrix(1 0 0 -1 0 819)">
   <path fill="currentColor"
d="M138 680h190v128l86 -34q3 -3 4 -6q0 -3 -6 -8l-34 -16v-64h248v126l76 -26q8 -2 8 -10q0 -3 -6 -6l-26 -16v-68h112l34 38l54 -44q3 -4 4 -8q3 -12 -8 -12h-196v-144h160l38 44l60 -50q3 -3 4 -8q0 -12 -14 -12h-766q-9 0 -56 -8l-16 34h240v144h-120q-21 0 -48 -8
l-22 34v0v0zM378 510h248v144h-248v-144v0v0zM236 450l60 -42h406l32 40l64 -40q6 -6 6 -8q0 -6 -30 -30v-212l6 -81q0 -12 -18 -22q-17 -9 -40 -10v46h-432v-28q1 -10 -22 -24q-21 -12 -36 -12l4 96v327v0v0zM290 119h432v125h-432v-125v0v0zM290 272h432v108h-432v-108v0
v0zM140 894h20v-46h708l36 38q65 -55 68 -62q1 -6 -4 -8q-3 -4 -20 -4q-18 -1 -38 -16q-22 -16 -64 -70l-16 10q27 57 42 88h-712q-5 -41 -22 -70q-16 -30 -34 -36q-19 -6 -32 -2q-12 2 -18 16q-4 14 10 28q12 11 30 26q15 12 30 34q12 22 16 74v0v0zM416 992l8 12
q57 -24 90 -48q32 -23 34 -46q3 -22 -8 -34q-12 -13 -30 -10q-18 2 -24 26q-3 24 -20 48q-15 24 -50 52v0v0z" />
  </g>

</svg>
