<?xml version="1.0" standalone="no"?>
<!DOCTYPE svg PUBLIC "-//W3C//DTD SVG 1.1//EN" "http://www.w3.org/Graphics/SVG/1.1/DTD/svg11.dtd" >
<svg xmlns="http://www.w3.org/2000/svg" xmlns:xlink="http://www.w3.org/1999/xlink" version="1.1" viewBox="0 -205 1024 1024">
  <g transform="matrix(1 0 0 -1 0 819)">
   <path fill="currentColor"
d="M902 942l66 -62q3 -5 4 -10q0 -7 -8 -8h-496v-759h412l44 55l64 -63q3 -3 4 -10q0 -7 -8 -8h-506l-42 -36l-60 60l40 32v803l66 -48h382l38 54v0v0zM500 714h314l40 50l60 -56q3 -3 4 -8q0 -12 -12 -12h-184v-176h76l36 52l62 -60q3 -3 4 -8q0 -10 -12 -10h-166v-212h94
l42 52l58 -58l6 -6q-3 -13 -14 -14h-324q-21 0 -68 -8l-16 34h172v212h-52q-21 0 -68 -8l-16 34h136v176h-88q-21 0 -68 -8l-16 34v0v0zM98 844l62 -40h96l36 44l58 -48q6 -5 6 -10t-32 -28v-384l4 -106q1 -12 -16 -26q-19 -14 -40 -16v92h-122v-116q0 -16 -18 -28
q-16 -13 -38 -10l4 156v520v0v0zM150 348h122v430h-122v-430v0v0z" />
  </g>

</svg>
