<?xml version="1.0" standalone="no"?>
<!DOCTYPE svg PUBLIC "-//W3C//DTD SVG 1.1//EN" "http://www.w3.org/Graphics/SVG/1.1/DTD/svg11.dtd" >
<svg xmlns="http://www.w3.org/2000/svg" xmlns:xlink="http://www.w3.org/1999/xlink" version="1.1" viewBox="0 -200 1000 1000">
  <g transform="matrix(1 0 0 -1 0 800)">
   <path fill="currentColor"
d="M863 422l36 41l57 -67h-129v-228q-12 -14 -21.5 -17.5t-19.5 -3.5h-5v249h-92q-4 -73 -21 -125t-39 -86t-46 -51t-43 -19v4q22 23 39 50t30 60t21.5 74.5t13.5 92.5h-50l-49 -11l-23 37h120q2 -2 2 71v98l62 -40l-14 -56q0 -14 -0.5 -25t-0.5 -23v-12t1 -13h89v148
l59 -30l-13 -65v-53h36zM799 941l28 42l72 -64h-127l-10 -23v-109h37l34 38l60 -61h-131v-127h61l44 42l59 -67h-289l-51 -12l-19 37h149v127h-51l-47 -9l-17 32h115v132h-55l-45 -13l-23 35h206zM167 396h285l36 35l55 -43l-30 -32v-188q-19 -22 -47 -22h-5v31h-123v-56
q0 -12 9 -26t33 -14h448q22 1 30.5 9.5t10 27.5t1 49t3.5 75h8q-1 -16 -1 -28v-24q0 -32 3 -48t9.5 -24.5t16 -12.5t23.5 -13q0 -7 -7 -17t-17.5 -19t-23.5 -15.5t-25 -6.5h-493q-43 0 -61 19t-18 54v70h-127v-40q-9 -7 -24 -13.5t-30 -6.5v311zM435 998l66 -37l-22 -17
q-11 -15 -20.5 -29t-18.5 -28h77l40 39l61 -60h-164q25 -17 38.5 -28t19.5 -20t7.5 -17t2.5 -18q0 -14 -10.5 -20t-18.5 -8h-1q-4 0 -7.5 11t-9.5 27.5t-15.5 36.5t-25.5 38q-19 -28 -50.5 -61.5t-71.5 -55.5l44 -9l-13 -59v-24h115l45 40l64 -62h-155l72 -38l-26 -13
q-14 -10 -40 -40.5t-56 -70.5h114l45 44l72 -66h-470l-44 -8l-18 30h285q23 50 42 88.5t19 73.5h-241l-44 -10l-18 32h189v28l-14 72l27 -5q22 19 43.5 51.5t39 68.5t30 69.5t16.5 54.5zM188 998l69 -34l-24 -21q-9 -9 -16 -23.5t-14 -31.5h64l47 37l55 -59h-159
q24 -21 36 -32t17 -19.5t6 -17t3 -23.5q-3 -14 -15 -19.5t-17 -5.5q-12 0 -13.5 9t-3 24.5t-6 37.5t-22.5 48h-4q-28 -49 -60.5 -90.5t-79.5 -61.5l-4 1q28 33 51 70t41 74t30 72t19 65zM338 275v-75h123v75h-123zM338 372v-72h123v72h-123zM160 275v-75h127v75h-127z
M172 373l-12 -12v-61h127v73h-115zM288 483q-6 -6 -15 -6q-11 0 -17.5 11.5t-15 31.5t-21 48t-34.5 61v2q37 -28 60 -45t35.5 -29t16.5 -21.5t4 -23.5q0 -19 -13 -29z" />
  </g>

</svg>
