<?xml version="1.0" standalone="no"?>
<!DOCTYPE svg PUBLIC "-//W3C//DTD SVG 1.1//EN" "http://www.w3.org/Graphics/SVG/1.1/DTD/svg11.dtd" >
<svg xmlns="http://www.w3.org/2000/svg" xmlns:xlink="http://www.w3.org/1999/xlink" version="1.1" viewBox="0 -36 256 256">
  <g transform="matrix(1 0 0 -1 0 220)">
   <path fill="currentColor"
d="M180 57l2 3q25 -14 36 -22.5t11.5 -15t-3 -11.5t-8.5 2.5t-10 13.5q-88 -8 -102 -15l-8 19q8 1 24.5 13.5t24.5 23.5h-34q-10 0 -19 -2l-9 9h38q0 70 -1 87l15 -6h57l9 9l16 -16h-82v-19h51l9 9l15 -16h-75v-19h50l10 10l16 -17h-76v-22h78l11 11l17 -18h-92l14 -11
q-8 -3 -23.5 -12t-28.5 -16l92 3q-8 9 -25 25zM162 203q-20 -41 -71 -56l-2 3q41 19 58 53h-14q-14 0 -23 -3l-10 10h49q6 14 7 35l21 -7q-5 -3 -7 -10t-6 -18h47l13 11l16 -18h-55q22 -31 63 -39v-4q-11 -1 -18 -10q-35 20 -51 53h-17zM22 9q1 42 1 119t-1 107l16 -9h38
l7 9l15 -13l-6 -5q-13 -23 -28 -52q16 -13 23 -26t5.5 -25.5t-8.5 -19.5t-22 -11q-1 13 -21 18v4q12 -2 23 -2.5t13 8t-0.5 21.5t-19.5 33l20 54h-40v-202z" />
  </g>

</svg>
