<?xml version="1.0" standalone="no"?>
<!DOCTYPE svg PUBLIC "-//W3C//DTD SVG 1.1//EN" "http://www.w3.org/Graphics/SVG/1.1/DTD/svg11.dtd" >
<svg xmlns="http://www.w3.org/2000/svg" xmlns:xlink="http://www.w3.org/1999/xlink" version="1.1" viewBox="0 -205 1024 1024">
  <g transform="matrix(1 0 0 -1 0 819)">
   <path fill="currentColor"
d="M560 926q7 -3 8 -6q5 -9 -4 -14q-19 -1 -32 -10q-10 -6 -56 -96h348l32 32q66 -45 66 -54q0 -6 -26 -14q-24 -9 -50 -32q-24 -23 -72 -70l-16 6l72 108h-366q-78 -127 -138 -196l-16 8q62 108 110 208q46 99 68 162l72 -32v0v0zM666 706q10 -7 8 -10q-1 -6 -40 -26
q30 -55 82 -112q51 -58 118 -94q65 -36 158 -44v-18q-39 0 -56 -6q-18 -6 -48 -36q-58 35 -106 74t-90 96q-42 56 -74 122q-66 -120 -156 -198q-89 -75 -232 -122l-8 16q136 63 230 156q92 93 134 234l80 -32v0v0zM340 872l16 -10q-125 -234 -142 -264q-16 -28 -22 -46
l-14 -36t2 -48q6 -30 6 -54q-1 -25 -14 -34q-12 -7 -24 -4q-12 4 -18 20q-7 16 2 56q8 39 8 54q0 14 -6 26t-36 22l-50 10l2 16l72 -2q27 -1 48 26q20 26 170 268v0v0zM78 882l4 14q57 -11 88 -22q27 -12 48 -26q20 -15 22 -38q3 -21 -8 -32q-9 -12 -26 -12q-18 0 -24 24
q-6 21 -30 46q-24 21 -74 46v0v0zM168 260h310v142l84 -28l4 -8q-2 -4 -10 -8l-22 -12v-86h218l38 46l62 -58q3 -3 4 -6q0 -10 -14 -10h-308v-159h322l40 48l66 -58q3 -4 4 -8q0 -9 -14 -10h-832q-22 1 -70 -8l-14 36h442v159h-228q-19 0 -64 -8l-18 36v0v0z" />
  </g>

</svg>
