<?xml version="1.0" standalone="no"?>
<!DOCTYPE svg PUBLIC "-//W3C//DTD SVG 1.1//EN" "http://www.w3.org/Graphics/SVG/1.1/DTD/svg11.dtd" >
<svg xmlns="http://www.w3.org/2000/svg" xmlns:xlink="http://www.w3.org/1999/xlink" version="1.1" viewBox="0 -36 256 256">
  <g transform="matrix(1 0 0 -1 0 220)">
   <path fill="currentColor"
d="M39.5 194q6.5 -12 -1 -22t-10.5 7t-13 38l3 2q15 -13 21.5 -25zM52 244l23 -9l-9 -9v-70h18l10 13l15 -20h-43v-18q20 -12 28 -19.5t3 -19.5t-11 2.5t-20 30.5v-76q0 -13 1 -31l-15 -7q1 42 1 107q-16 -34 -42 -62l-3 2q31 45 42 91h-17q-9 0 -16 -2l-8 9h44q0 58 -1 88z
M100 206q-13 -25 -28 -41l-2 2q12 21 20 54l18 -11zM187 108l-11 -5v7h-15v-5l-11 -5q1 12 1 26t-1 24l12 -6h12l7 7l12 -10l-7 -5q0 -23 1 -28zM161 117h15v20h-15v-20zM215 93l9 9l13 -16h-61v-62h47l10 11l14 -18h-129q-10 0 -18 -1l-7 8h71v62h-34q-10 0 -18 -2l-7 9
h110zM131 62q14 -8 19 -14t1 -15t-8.5 1t-13.5 24q-10 -20 -27 -32l-3 2q14 17 20 31.5t7 24.5l16 -10l-6 -4q-3 -3 -5 -8zM234 110l-11 -6v6h-14v-4l-11 -5q1 11 1 27.5t-1 22.5l12 -7h11l7 7l11 -11l-6 -4q0 -18 1 -26zM209 117h14v20h-14v-20zM141 108l-11 -6v7h-14v-5
l-11 -4q1 10 1 24t-1 25l12 -6h12l5 7l12 -11l-6 -4q0 -18 1 -27zM116 116h14v20h-14v-20zM212 64q13 -8 17.5 -14.5t0 -14.5t-7 0.5t-12.5 23.5q-9 -15 -28 -31l-2 3q23 27 25 53l18 -10l-6 -3zM155 187v-7h-30v7h30zM155 168v-7h-30v7h30zM163 197h-46q2 -11 -1.5 -17
t-8.5 -7t-8.5 1.5t2 9.5t12.5 28h3l1 -8h46v18h-31q-10 0 -17 -2l-8 9h100l10 11l14 -18h-56v-18h48l8 9l14 -14q-9 1 -25 -25l-3 1l7 22h-49q0 -34 1 -39l-14 -6q1 10 1 45zM215 187v-7h-29v7h29zM215 168v-7h-29v7h29z" />
  </g>

</svg>
