<?xml version="1.0" standalone="no"?>
<!DOCTYPE svg PUBLIC "-//W3C//DTD SVG 1.1//EN" "http://www.w3.org/Graphics/SVG/1.1/DTD/svg11.dtd" >
<svg xmlns="http://www.w3.org/2000/svg" xmlns:xlink="http://www.w3.org/1999/xlink" version="1.1" viewBox="0 -36 256 256">
  <g transform="matrix(1 0 0 -1 0 220)">
   <path fill="currentColor"
d="M192.5 145.5q9.5 -48.5 25 -77.5t30.5 -42l-1 -3q-14 1 -20 -7q-13 21 -26 54t-22 119q-1 -37 -4.5 -63.5t-12.5 -48t-22 -38t-34 -30.5l-2 3q16 17 25.5 30.5t19.5 37t14 64t2 99.5l24 -10l-7 -8q1 -31 10.5 -79.5zM64 223h38l10 8l13 -15q-12 -5 -18 -10.5t-19 -18.5
h-6l19 29h-41q-12 -15 -21 -23.5t-24 -19.5l-2 3q11 11 25 31t21 40l17 -11q-8 -6 -12 -13zM47 189h73l7 11l14 -12l-7 -8v-20q0 -11 1 -16l-14 -5v8h-74q0 -52 -10 -81.5t-26 -47.5l-3 2q21 36 25 99q0 57 -1 76zM47 154h74v28h-74v-28zM61 107q0 12 -1 23l14 -9h28l6 10
l14 -12l-7 -7v-49l27 22l3 -3q-19 -21 -37 -43l-11 10q6 6 5 16v49h-28v-30q-3 -46 -43 -69l-2 3q30 27 32 65v24z" />
  </g>

</svg>
