<?xml version="1.0" standalone="no"?>
<!DOCTYPE svg PUBLIC "-//W3C//DTD SVG 1.1//EN" "http://www.w3.org/Graphics/SVG/1.1/DTD/svg11.dtd" >
<svg xmlns="http://www.w3.org/2000/svg" xmlns:xlink="http://www.w3.org/1999/xlink" version="1.1" viewBox="0 -205 1048 1024">
  <g transform="matrix(1 0 0 -1 0 819)">
   <path fill="currentColor"
d="M981 113q-29 0 -43 -18q-3 -7 -5.5 -14t-10.5 -7q-12 0 -43 11q-241 93 -363 292q-55 -136 -180 -208.5t-264 -101.5l-3 21q135 21 246.5 103t151.5 186h-398v22h405q22 62 22 159h-327l-1 21h599l32 37q16 17 19 17q5 0 23 -18l38 -41l-7 -16h-325q-3 -97 -23 -159h334
l30 32q19 20 20 20q5 0 21 -18l37 -41l-5 -15h-420q73 -111 198 -183t245 -69zM318 957q28 -10 28 -16q0 -7 -36 -9q-61 -75 -108 -124q67 -57 84 -74q28 -34 26 -69q-7 -35 -22 -35t-23 30q-17 74 -68 127q-21 18 -21 25q0 4 16 23q56 69 79 140zM834 960q25 -10 25 -17
t-35 -9q-61 -73 -110 -120q68 -58 84 -75q29 -34 27 -69q-6 -35 -23 -35q-16 0 -22 30q-16 70 -67 127q-21 16 -21 24q0 3 17 24q52 67 79 137zM582 959q26 -11 26 -17q0 -7 -35 -9q-65 -80 -111 -124q68 -57 85 -74q28 -34 27 -69q-8 -35 -22 -35q-15 0 -23 30
q-18 77 -68 127q-20 18 -20 25q0 3 15 23q57 72 81 140z" />
  </g>

</svg>
