<?xml version="1.0" standalone="no"?>
<!DOCTYPE svg PUBLIC "-//W3C//DTD SVG 1.1//EN" "http://www.w3.org/Graphics/SVG/1.1/DTD/svg11.dtd" >
<svg xmlns="http://www.w3.org/2000/svg" xmlns:xlink="http://www.w3.org/1999/xlink" version="1.1" viewBox="0 -36 256 256">
  <g transform="matrix(1 0 0 -1 0 220)">
   <path fill="currentColor"
d="M20 50v138q0 25 -1 51l24 -7l-9 -9v-67h15l10 11l16 -18h-41v-105l38 20l2 -3q-38 -29 -45 -41l-13 13q4 5 4 17zM156 185h61l7 11l18 -15q-14 -5 -35 -32l-3 1l13 28h-63q-13 -31 -32 -54l-3 2q17 31 25.5 65.5t10.5 54.5l21 -11l-7 -5q-5 -19 -13 -45zM189 153l-7 -7
q7 -54 26 -83.5t38 -35.5v-4q-15 0 -22 -8q-23 23 -33 52.5t-13 65.5q-6 -50 -25 -79.5t-55 -45.5l-1 4q34 20 50 56t20 96zM77 50v138q0 25 -1 51l23 -9l-8 -9v-65h14l10 11l17 -18h-41v-105l35 24l3 -3q-35 -31 -42 -44l-14 13q4 5 4 16z" />
  </g>

</svg>
