<?xml version="1.0" standalone="no"?>
<!DOCTYPE svg PUBLIC "-//W3C//DTD SVG 1.1//EN" "http://www.w3.org/Graphics/SVG/1.1/DTD/svg11.dtd" >
<svg xmlns="http://www.w3.org/2000/svg" xmlns:xlink="http://www.w3.org/1999/xlink" version="1.1" viewBox="0 -205 1024 1024">
  <g transform="matrix(1 0 0 -1 0 819)">
   <path fill="currentColor"
d="M358 572v-418q2 -35 8 -43q5 -9 32 -12h510q23 0 32 12q5 10 8 32q4 20 2 85h18q6 -58 12 -76q9 -16 30 -25q-14 -39 -34 -54q-18 -15 -54 -16h-534q-44 0 -58 14q-12 14 -18 52v449h-114v-162q-9 -167 -54 -244q-43 -74 -118 -139l-10 12q67 79 98 153q29 75 38 228v152
h-62q-25 0 -40 -12l-22 38h206v390q81 -28 84 -34q0 -6 -2 -8q-4 -3 -34 -20v-328h112l32 34l54 -46q9 -12 -2 -14h-120v0v0zM54 870l12 8q69 -65 88 -100q18 -36 22 -62q3 -25 -6 -40q-10 -16 -26 -14q-15 -1 -20 14q-3 12 -6 42q-3 29 -14 62q-12 30 -50 90v0v0zM398 884
q65 -33 68 -38t0 -10q-3 -3 -18 -8q-15 -3 -30 -30q-16 -27 -80 -150l-18 10q48 117 78 226v0v0zM884 534l54 -46q3 -4 4 -10q0 -7 -14 -8h-184v-198h144l38 42l58 -52q11 -16 -10 -16h-438q-22 0 -70 -8l-18 34h244v198h-98q-22 0 -70 -8l-18 34h344l34 38v0v0zM902 828
l26 34l50 -44q16 -12 14 -20q0 -6 -12 -8q-30 -1 -54 -28l-44 -44l-14 8l42 78h-360q0 -27 -6 -44q-6 -18 -14 -30q-9 -13 -26 -20q-16 -8 -28 0q-13 5 -14 20q-2 11 12 26q14 12 28 28q14 14 26 94h18q5 -18 2 -50h354v0v0zM482 526q94 116 164 238l64 -38q9 -6 0 -14
q-24 -3 -32 -6q-9 -3 -48 -50q-37 -45 -136 -140l-12 10v0v0zM756 734l8 12q93 -47 132 -82q36 -36 40 -62q3 -25 -8 -38q-9 -14 -26 -12q-18 3 -24 30q-7 26 -32 64q-24 36 -90 88v0v0zM614 970l8 12q74 -27 98 -48q23 -18 32 -36q6 -16 -2 -32q-9 -16 -30 -16
q-18 0 -24 22q-6 19 -20 44q-13 24 -62 54v0v0z" />
  </g>

</svg>
