<?xml version="1.0" standalone="no"?>
<!DOCTYPE svg PUBLIC "-//W3C//DTD SVG 1.1//EN" "http://www.w3.org/Graphics/SVG/1.1/DTD/svg11.dtd" >
<svg xmlns="http://www.w3.org/2000/svg" xmlns:xlink="http://www.w3.org/1999/xlink" version="1.1" viewBox="0 -36 256 256">
  <g transform="matrix(1 0 0 -1 0 220)">
   <path fill="currentColor"
d="M144 246q17 -10 24.5 -17t7.5 -13t-5.5 -11.5t-10 7t-19.5 32.5zM214 198l13 12l18 -19h-121q-15 1 -25 -3l-8 10h123zM145 167q-27 -32 -50 -46l-2 3q26 27 41 62l20 -15zM231.5 159.5q10.5 -8.5 6 -21t-14 2.5t-41.5 41l2 4q37 -18 47.5 -26.5zM205 126
q-15 -34 -33 -59q32 -33 75 -38v-4q-15 -1 -20 -12q-32 10 -64 44q-41 -37 -94 -48l-1 4q56 21 86 56q-16 25 -26 68l4 1q12 -35 31 -59q19 28 29 68l21 -16zM22 9q1 42 1 119t-1 107l16 -9h38l7 9l15 -13l-6 -5q-13 -23 -28 -52q16 -13 23 -26t5.5 -25.5t-8.5 -19.5
t-22 -11q-1 13 -21 18v4q12 -2 23 -2.5t13 8t-0.5 21.5t-19.5 33l20 54h-40v-202z" />
  </g>

</svg>
