<?xml version="1.0" standalone="no"?>
<!DOCTYPE svg PUBLIC "-//W3C//DTD SVG 1.1//EN" "http://www.w3.org/Graphics/SVG/1.1/DTD/svg11.dtd" >
<svg xmlns="http://www.w3.org/2000/svg" xmlns:xlink="http://www.w3.org/1999/xlink" version="1.1" viewBox="0 -205 1024 1024">
  <g transform="matrix(1 0 0 -1 0 819)">
   <path fill="currentColor"
d="M744 656l28 34l58 -46q6 -6 6 -8q0 -7 -30 -26v-200l4 -74q0 -13 -18 -26q-16 -9 -38 -12v58h-212v-110h338l32 46l58 -56q3 0 4 -6q2 -13 -10 -14h-422v-72l6 -71q1 -12 -22 -28q-21 -15 -42 -16l6 88v99h-368q-22 0 -58 -6l-14 36h440v110h-210v-28q0 -15 -18 -24
q-18 -10 -36 -8l4 104v298l54 -42h460v0v0zM280 382h210v114h-210v-114v0v0zM542 496v-114h212v114h-212v0v0zM280 524h210v104h-210v-104v0v0zM542 628v-104h212v104h-212v0v0zM156 968l58 -36h172l30 40l58 -44q6 -6 6 -8q0 -7 -32 -28v-78l4 -70q-1 -10 -16 -22
q-14 -9 -40 -12v44h-188v-22q1 -15 -16 -30q-19 -12 -40 -12l4 112v166v0v0zM208 780h188v124h-188v-124v0v0zM574 964l58 -36h184l30 40l58 -44q6 -6 6 -8q0 -7 -32 -28v-116l4 -42q-1 -10 -16 -22q-14 -12 -40 -14v58h-200v-24q1 -15 -16 -30q-19 -12 -40 -12l4 102v176v0
v0zM626 778h200v122h-200v-122v0v0z" />
  </g>

</svg>
