<?xml version="1.0" standalone="no"?>
<!DOCTYPE svg PUBLIC "-//W3C//DTD SVG 1.1//EN" "http://www.w3.org/Graphics/SVG/1.1/DTD/svg11.dtd" >
<svg xmlns="http://www.w3.org/2000/svg" xmlns:xlink="http://www.w3.org/1999/xlink" version="1.1" viewBox="0 -205 1024 1024">
  <g transform="matrix(1 0 0 -1 0 819)">
   <path fill="currentColor"
d="M939 519l-5 -18h-227q0 -11 2 -29q1 -11 -1.5 -15t-14 -8.5t-16.5 -4.5q-7 0 -7 12q0 3 1 20.5t1 31.5v299q-26 -30 -50 -45l-6 11q53 52 83 189l36 -13q17 -8 17 -17q0 -10 -24 -16l-37 -77h85l36 118l29 -8q26 -8 26 -16t-27 -10l-50 -84h58l14 24q9 13 14 13
q4 0 18 -14l24 -30l-5 -13h-100v-83h30l19 28q8 12 11 12q4 0 16 -15l26 -31l-6 -15h-96v-84h35l16 26q13 11 15 11q4 0 15 -11l26 -33l-5 -13h-102v-89h45l19 28q9 15 13 15t18 -15zM956 135l-3 -16q-29 -1 -35 -17.5t-11 -16.5t-16 5q-148 27 -249 89q-129 -73 -318 -105
l-6 10q174 33 297 114l-80 70q-40 36 -83 114h-91v21h432l15 18q12 15 15 15q5 0 21 -18l21 -22q7 -10 7 -17q0 -11 -27 -12q-77 -104 -178 -170q133 -62 289 -62zM776 736v83h-69v-83h69zM776 631v84h-69v-84h69zM776 522v89h-69v-89h69zM798 382h-328q60 -99 171 -167
q96 68 157 167zM347 384l-234 -92q-10 -36 -21 -36q-9 0 -18 24l-19 45l119 29v325h-103v21h103v194l-3 66l43 -8q40 -7 40 -18q0 -8 -36 -24v-210h37l15 27q12 16 16 16q5 0 18 -11l42 -36l-7 -17h-121v-313l124 32zM325 777l10 -23l83 2h125q-13 -88 -208 -244h20
q175 100 234 226q43 -4 49 4t-20 30l-38 32l-42 -30h-130zM401 718l-8 -14q42 -42 75 -94q26 -42 36 -72q10 -34 29 -24q16 7 16 39q-9 47 -48 89q-35 36 -100 76zM382 943l-6 -10q35 -30 64 -66q26 -31 35 -50q12 -19 24 -14t13 32q0 27 -40 56q-30 22 -90 52z" />
  </g>

</svg>
