<?xml version="1.0" standalone="no"?>
<!DOCTYPE svg PUBLIC "-//W3C//DTD SVG 1.1//EN" "http://www.w3.org/Graphics/SVG/1.1/DTD/svg11.dtd" >
<svg xmlns="http://www.w3.org/2000/svg" xmlns:xlink="http://www.w3.org/1999/xlink" version="1.1" viewBox="0 -205 1024 1024">
  <g transform="matrix(1 0 0 -1 0 819)">
   <path fill="currentColor"
d="M410 764h232v212l90 -32q3 -3 4 -6q0 -7 -6 -10l-36 -14v-150h142l36 50l62 -56q3 -3 4 -8q0 -12 -12 -12h-232v-208h130l38 50l62 -56q3 -3 4 -8q0 -12 -12 -12h-190q39 -120 78 -180q37 -60 80 -96q42 -34 118 -50v-20q-42 4 -60 -4q-18 -7 -36 -27q-55 44 -92 93
q-36 50 -60 110q-25 60 -52 174h-8v-362l4 -93q-1 -12 -22 -24t-38 -12l4 133v334q-42 -94 -84 -154q-42 -58 -98 -116q-54 -57 -132 -111l-10 12q66 58 120 125q51 65 90 130q38 66 70 138h-84q-20 0 -64 -8l-22 34h214v208h-156q-21 0 -56 -8l-20 34v0v0zM298 938
q13 -7 8 -14q0 -6 -12 -8q-14 -3 -28 -14q-12 -12 -74 -134h116l28 38l58 -48q6 -6 6 -8q0 -7 -32 -34v-442l4 -70q0 -13 -18 -28q-18 -14 -36 -16v64h-188v-56q0 -16 -20 -29q-19 -14 -34 -14l4 99v586l58 -42h22q45 107 66 202l72 -32v0v0zM130 252h188v240h-188v-240v0v0
zM130 520h188v220h-188v-220v0v0z" />
  </g>

</svg>
