<?xml version="1.0" standalone="no"?>
<!DOCTYPE svg PUBLIC "-//W3C//DTD SVG 1.1//EN" "http://www.w3.org/Graphics/SVG/1.1/DTD/svg11.dtd" >
<svg xmlns="http://www.w3.org/2000/svg" xmlns:xlink="http://www.w3.org/1999/xlink" version="1.1" viewBox="0 -205 1024 1024">
  <g transform="matrix(1 0 0 -1 0 819)">
   <path fill="currentColor"
d="M410 936l54 -40h422l28 38l60 -42q6 -6 6 -8q0 -6 -26 -24v-704l4 -81q0 -13 -18 -26q-15 -9 -38 -12v76h-440v-52q0 -14 -20 -26q-18 -12 -36 -12l4 112v801v0v0zM462 139h440v731h-440v-731v0v0zM786 766q-21 -2 -78 -16v-146h78l32 44l50 -50q3 -3 4 -8q1 -12 -10 -12
h-154v-48q56 -28 94 -58q39 -28 54 -50t12 -44q-1 -21 -16 -30q-15 -10 -30 -4q-13 5 -16 28q-1 23 -26 64q-24 39 -72 72v-226l6 -82q-1 -16 -22 -28q-21 -13 -38 -8l4 120v200q-48 -79 -80 -124q-30 -45 -84 -98l-8 12q38 60 64 102q23 39 44 82q20 42 52 120h-86
q-18 0 -42 -8l-28 34h168v136q-71 -13 -148 -28l-4 16q194 51 296 106q44 -51 44 -60q1 -6 -4 -8q-6 -1 -20 2q-15 0 -36 -2v0v0zM28 748h172v228l64 -30q22 -8 12 -22l-28 -14v-162h64l30 40l50 -48q3 -3 4 -8q0 -12 -14 -12h-134v-96q69 -37 96 -62q27 -23 34 -46
q7 -22 0 -40q-9 -19 -26 -20q-18 0 -24 24q-4 24 -22 54q-16 30 -58 66v-426l4 -107q0 -14 -18 -26t-38 -12l4 147v360q-30 -84 -74 -164q-44 -79 -94 -136l-10 10q38 63 68 126q27 62 58 152t50 196h-102q-6 0 -48 -8l-20 36v0v0z" />
  </g>

</svg>
