<?xml version="1.0" standalone="no"?>
<!DOCTYPE svg PUBLIC "-//W3C//DTD SVG 1.1//EN" "http://www.w3.org/Graphics/SVG/1.1/DTD/svg11.dtd" >
<svg xmlns="http://www.w3.org/2000/svg" xmlns:xlink="http://www.w3.org/1999/xlink" version="1.1" viewBox="0 -36 256 256">
  <g transform="matrix(1 0 0 -1 0 220)">
   <path fill="currentColor"
d="M206 160h-67l-11 -69h69zM115 95q11 61 18 123h-7q-3 1 -12 -2l-9 9h106l13 11l16 -18h-91l-8 -51h64l8 10l16 -12l-8 -8l-18 -130h12l13 12l18 -19h-134q-10 0 -19 -2l-10 9h104l9 57h-68l-7 -8l-14 12zM22 9q1 42 1 119t-1 107l16 -9h38l7 9l15 -13l-6 -5
q-13 -23 -28 -52q16 -13 23 -26t5.5 -25.5t-8.5 -19.5t-22 -11q-1 13 -21 18v4q12 -2 23 -2.5t13 8t-0.5 21.5t-19.5 33l20 54h-40v-202z" />
  </g>

</svg>
