<?xml version="1.0" standalone="no"?>
<!DOCTYPE svg PUBLIC "-//W3C//DTD SVG 1.1//EN" "http://www.w3.org/Graphics/SVG/1.1/DTD/svg11.dtd" >
<svg xmlns="http://www.w3.org/2000/svg" xmlns:xlink="http://www.w3.org/1999/xlink" version="1.1" viewBox="0 -120 1000 1000">
  <g transform="matrix(1 0 0 -1 0 880)">
   <path fill="currentColor"
d="M710 520h37l33 48l67 -54v-20h-149l23 -4q15 -3 15 -12q0 -8 -11 -13l-15 -8v-45h57l15 32l60 -38q8 -5 8 -11q0 -8 -11 -11l-17 -5v-175q0 -30 -29 -45q-17 -9 -32 -9q-8 0 -8 13t-4 17t-12 8l-21 9v13h56v176h-62v-305l-51 -8v313h-54v-242l-48 -9v305l58 -28h44v82
h-114l-14 26h128v105l62 -8q14 -2 14 -11t-16 -17l-9 -5v-64zM522 63l-56 -9v886l67 -36h67l19 30l58 -35q16 -10 16 -19t-16 -15l-11 -4v-214l-56 -7v37h-88v-614zM522 775v-71h88v71h-88zM522 877v-75h88v75h-88zM254 382q-41 -111 -116 -179v-144l-53 -7v770l60 -34h80
q2 35 5 163l69 -12q26 -5 26 -15q0 -8 -15 -15l-18 -9q-3 -28 -7 -87q0 -15 -2 -25h78l23 34l56 -39q19 -13 19 -21t-16 -15l-17 -6v-622q0 -27 -17 -39q-14 -12 -40 -22q-19 -8 -26 -8q-9 0 -11 13q-3 27 -8.5 33t-29.5 11l-47 9v18h123v105q-8 -20 -27 -20q-9 0 -15 18
q-28 97 -74 145zM370 542q-9 -13 -23 -13q-6 0 -9 3q-5 4 -24 49q-21 48 -51 75l-3 3q-33 -117 -122 -195v-227q34 55 49 94q25 65 38 135q4 23 16 95l70 -25q18 -6 18 -13q0 -8 -12 -12l-26 -8q-20 -73 -30 -100q87 -60 109 -127v266zM370 581v180h-90q-8 -55 -15 -83
q28 -14 51 -33q45 -38 54 -64zM138 490q46 64 64 137q14 54 21 134h-85v-271zM708 644v294l68 -34h78l16 28l60 -33q15 -8 15 -18t-11 -14l-16 -6v-727q0 -31 -9 -41q-17 -20 -50 -29q-17 -5 -28 -5q-6 0 -9 4q-1 2 -6 27q-1 6 -4 10q-4 4 -26 10l-39 10v17h112v540h-97v-25
zM762 775v-71h97v71h-97zM762 877v-75h97v75h-97z" />
  </g>

</svg>
