<?xml version="1.0" standalone="no"?>
<!DOCTYPE svg PUBLIC "-//W3C//DTD SVG 1.1//EN" "http://www.w3.org/Graphics/SVG/1.1/DTD/svg11.dtd" >
<svg xmlns="http://www.w3.org/2000/svg" xmlns:xlink="http://www.w3.org/1999/xlink" version="1.1" viewBox="0 -205 1024 1024">
  <g transform="matrix(1 0 0 -1 0 819)">
   <path fill="currentColor"
d="M420 938l56 -32h334l30 36q66 -44 66 -52q0 -4 -32 -28v-168l4 -72q0 -16 -14 -28q-13 -13 -40 -16v52h-354v-14q3 -12 -6 -18q-21 -18 -48 -18l4 142v216v0v0zM470 656h354v98h-354v-98v0v0zM470 780h354v100h-354v-100v0v0zM752 354v-206q-1 -43 14 -49q14 -7 40 -8h72
q28 3 38 14q9 12 12 30q3 16 4 121h18q5 -76 14 -100q8 -23 32 -37q-21 -45 -50 -60q-30 -12 -66 -12h-98q-42 1 -60 20q-18 17 -18 64v223h-118q-13 -92 -46 -154q-33 -60 -96 -105t-158 -82l-6 16q89 49 142 94q54 41 78 99q24 54 34 132h-144q-12 0 -42 -8l-20 36h284
v216q81 -30 82 -36q1 -4 0 -8q-3 -3 -32 -14v-158h36q54 109 82 182q62 -30 68 -36q4 -7 2 -10q-1 -3 -16 -6t-32 -20q-15 -18 -78 -110h154l32 48q66 -60 66 -68q-1 -7 -10 -8h-214v0v0zM434 546l6 12q41 -21 70 -48t34 -48t-4 -36q-9 -16 -30 -16q-18 0 -20 28
q-3 27 -14 52q-12 23 -42 56v0v0zM28 748h172v228l64 -30q22 -8 12 -22l-28 -14v-162h64l30 40l50 -48q3 -3 4 -8q0 -12 -14 -12h-134v-96q69 -37 96 -62q27 -23 34 -46q7 -22 0 -40q-9 -19 -26 -20q-18 0 -24 24q-4 24 -22 54q-16 30 -58 66v-426l4 -107q0 -14 -18 -26
t-38 -12l4 147v360q-30 -84 -74 -164q-44 -79 -94 -136l-10 10q38 63 68 126q27 62 58 152t50 196h-102q-6 0 -48 -8l-20 36v0v0z" />
  </g>

</svg>
