<?xml version="1.0" standalone="no"?>
<!DOCTYPE svg PUBLIC "-//W3C//DTD SVG 1.1//EN" "http://www.w3.org/Graphics/SVG/1.1/DTD/svg11.dtd" >
<svg xmlns="http://www.w3.org/2000/svg" xmlns:xlink="http://www.w3.org/1999/xlink" version="1.1" viewBox="0 -205 1024 1024">
  <g transform="matrix(1 0 0 -1 0 819)">
   <path fill="currentColor"
d="M684 978l80 -32q11 -7 8 -10q0 -3 -8 -6l-28 -14v-144h50q48 102 78 168l60 -32q7 -4 6 -10q0 -3 -8 -6q-33 -9 -56 -42q-21 -30 -54 -78h112l24 32l60 -40q10 -9 2 -12q0 -3 -12 -6q-25 -7 -40 -22l-52 -62l-12 10l32 74h-422q0 -54 -12 -78q-10 -24 -32 -32
q-20 -7 -34 8q-13 15 2 30q14 15 32 42q16 24 20 94h18q2 -31 4 -38h182v206v0v0zM502 938q61 -33 86 -54q24 -19 30 -38t-2 -32q-6 -13 -20 -16q-15 -3 -24 6t-12 28q-3 17 -18 38q-12 18 -50 58l10 10v0v0zM828 714l50 -34q7 -3 8 -12q0 -4 -26 -22v-60l4 -36
q0 -13 -20 -22q-22 -10 -34 -10v28h-218v-2q3 -12 -6 -18q-24 -15 -48 -14l4 64v138l48 -32h216l22 32v0v0zM592 572h218v82h-218v-82v0v0zM938 452q3 -5 -6 -10q-24 6 -36 6q-97 -9 -164 -12v-84h102l34 44l56 -52q3 -4 4 -8q0 -10 -14 -10h-182v-78h172l36 50l60 -58
q6 -4 6 -10q-1 -7 -16 -8h-258v-119q3 -41 -20 -64q-21 -22 -54 -26q-3 28 -42 46q-37 18 -76 26l4 18q116 -22 128 -14t10 46v87h-162q-21 0 -68 -8l-18 34h248v78h-136q-19 0 -44 -8l-30 34h210v80q-130 -9 -238 -14l-2 18q249 30 318 42q69 9 136 28l42 -54v0v0zM134 670
h160l34 46l56 -56q6 -12 -2 -18h-128v-138h80l38 38l44 -46q15 -12 0 -20h-162v-280l164 28l8 -18q-97 -28 -170 -46q-73 -19 -116 -37q-41 -17 -64 -40l-42 71l172 32v290h-88q-21 0 -56 -8l-16 36h160v138h-34l-18 -6l-20 34v0v0zM32 578q51 77 102 170q47 90 104 228
l68 -34q4 -6 0 -12q-5 -3 -16 -6q-9 -3 -26 -26q69 -36 102 -62q34 -24 44 -48q10 -21 0 -38q-12 -18 -26 -14q-15 2 -26 26q-12 23 -32 50q-21 27 -72 72q-40 -82 -88 -160t-122 -156l-12 10v0v0zM68 408l12 8q51 -46 66 -76q14 -30 16 -56q1 -27 -16 -38q-15 -10 -30 -4
q-13 6 -14 28v54q-1 30 -34 84v0v0zM272 254q45 87 88 168l54 -38q3 -9 -2 -12q-7 -3 -20 -6q-12 -4 -30 -28q-19 -23 -76 -94l-14 10v0v0z" />
  </g>

</svg>
