<?xml version="1.0" standalone="no"?>
<!DOCTYPE svg PUBLIC "-//W3C//DTD SVG 1.1//EN" "http://www.w3.org/Graphics/SVG/1.1/DTD/svg11.dtd" >
<svg xmlns="http://www.w3.org/2000/svg" xmlns:xlink="http://www.w3.org/1999/xlink" version="1.1" viewBox="0 -36 256 256">
  <g transform="matrix(1 0 0 -1 0 220)">
   <path fill="currentColor"
d="M211 247l15 -16l-15 -1q-21 -3 -47 -7l15 -8l-6 -5v-14h26l13 10l14 -17h-53v-28h42l15 11l14 -18h-135q-11 0 -21 -2l-10 9h32v23l-1 24l20 -9l-6 -6v-32h37v30v16l-1 16q-20 -2 -61 -3v5q86 7 113 22zM100.5 62.5q8.5 15.5 10.5 33t0 49.5l14 -9h74l9 11l15 -13l-9 -7
v-63q1 -23 -16 -30q-5 13 -32 19v4q34 -4 34 0v72h-74q1 -36 -9 -57t-31 -35l-2 2q8 8 16.5 23.5zM135 118l1 3q32 -3 43 -8.5t9.5 -15.5t-13 0.5t-40.5 20.5zM134 59l-11 15q26 3 71 16l2 -3q-44 -19 -62 -28zM36 243q24 -14 29 -23t-1.5 -19.5t-11 6.5t-18.5 33zM39 54
q11 25 22 52h-18l-8 -9l-13 12l9 6l22 44h-17l-11 -3l-10 10h39l9 11l13 -16l-10 -5q-6 -10 -22 -43h18l8 8l12 -14l-8 -6q-10 -20 -20 -46q26 -22 84.5 -24t109.5 6v-4q-18 -5 -22 -17q-92 -2 -121.5 4.5t-58.5 29.5q-19 -21 -26 -37l-12 12q16 17 31 29z" />
  </g>

</svg>
