<?xml version="1.0" standalone="no"?>
<!DOCTYPE svg PUBLIC "-//W3C//DTD SVG 1.1//EN" "http://www.w3.org/Graphics/SVG/1.1/DTD/svg11.dtd" >
<svg xmlns="http://www.w3.org/2000/svg" xmlns:xlink="http://www.w3.org/1999/xlink" version="1.1" viewBox="0 -154 1024 1024">
  <g transform="matrix(1 0 0 -1 0 870)">
   <path fill="currentColor"
d="M779 613l63 -62q18 -18 0 -20q-36 12 -77 6q-266 -44 -539 -53q0 -43 -1 -105h502l31 38l64 -49q10 -10 -1 -11q-26 -6 -35 -16q-78 -115 -181 -184q172 -71 375 -72v-14q-62 -5 -77 -48q-204 34 -341 108q-164 -92 -417 -113l-6 17q244 38 382 119q-129 81 -203 205h-93
q-1 -198 -147 -345l-17 11q66 89 94 191q28 101 24 273q-4 21 -26 41l8 13l53 -39l213 23q211 30 267 41q50 12 61 18q12 7 17 25zM299 999l89 -34q14 -6 6 -11q-19 -6 -30 -18v-93h65l32 40l68 -48q15 -12 -6 -12h-159v-154l177 28l4 -16l-205 -44q-168 -36 -196 -44
q-30 -9 -57 -33l-48 56l111 17v231q2 15 -28 43l9 11l84 -35q14 -6 6 -11q-17 -6 -29 -18v-213l126 20v285q2 15 -27 42zM821 931l62 -58q14 -12 0 -14q-27 4 -55 -3q-32 -8 -89 -34q-50 -22 -109 -40v-33q0 -51 17 -66q16 -15 34 -18t62 -1q81 -1 122 5q51 7 55 40
q5 47 8 104h15q7 -52 7 -79q0 -28 26 -43q-19 -34 -33 -43q-13 -11 -40 -17q-28 -8 -148 -6q-77 -3 -104 4q-73 13 -67 120v195q-2 23 -29 44l7 12l103 -40q6 -6 -1 -9q-16 -5 -34 -17v-129q49 21 106 50q75 37 77 50q3 12 0 20zM345 359q76 -113 215 -181q110 75 171 181
h-386z" />
  </g>

</svg>
