<?xml version="1.0" standalone="no"?>
<!DOCTYPE svg PUBLIC "-//W3C//DTD SVG 1.1//EN" "http://www.w3.org/Graphics/SVG/1.1/DTD/svg11.dtd" >
<svg xmlns="http://www.w3.org/2000/svg" xmlns:xlink="http://www.w3.org/1999/xlink" version="1.1" viewBox="0 -200 999 1000">
  <g transform="matrix(1 0 0 -1 0 800)">
   <path fill="currentColor"
d="M647 519l-10 36h115l41 49l51 -70h-87v-173h66l38 43l54 -66h-158v-246q-2 -25 -6.5 -40t-11 -25t-15.5 -16t-19 -12q-5 22 -12.5 33.5t-18 18t-24 10t-29.5 9.5v11q15 -2 24.5 -3.5t13.5 -1.5h17q14 0 21.5 5.5t10.5 28.5v228h-102l-30 -10l-25 33h157v173h-35zM704 279
l-31 -22q-13 -32 -31.5 -66t-38.5 -64t-39.5 -53.5t-34.5 -33.5l-13 4q24 33 43.5 64.5t35.5 65t29.5 70t25.5 79.5zM813 281q18 -20 34.5 -43t29.5 -47.5t20.5 -48.5t7.5 -45q0 -17 -10.5 -33t-27.5 -16h-3q-2 0 -5 1t-6 5t-5 13t-2 25v12v10t2 11q-9 35 -18 75t-25 76z
M52 875l62 -40h102l33 47l53 -53l-30 -45v-668q-5 -5 -17 -15.5t-31 -16.5v97h-122v-65q-3 -5 -17 -17t-33 -17v793zM101 485v-280h123v280h-123zM123 811l-22 -17v-285h122v302h-100zM530 487q33 47 57.5 106t43.5 126t34.5 138.5t30.5 143.5h1l60 -52l-20 -35
q44 -149 94 -238.5t122 -127.5q-8 -2 -30 -14t-41 -35q-27 34 -48 72.5t-38.5 86.5t-33.5 106.5t-32 132.5q-22 -68 -41.5 -130.5t-40.5 -116.5t-46.5 -97.5t-59.5 -73.5zM302 380q34 45 66.5 96.5t60 103t48.5 99t33 83.5l59 -59l-25 -18q-5 -6 -13 -19t-16.5 -27.5
t-17 -28.5t-14.5 -23l22 -34l-22 -42v-486q-10 -13 -21.5 -21t-25.5 -9v512q-10 -13 -25 -30.5t-31.5 -36t-34.5 -36.5t-34 -32zM320 694q55 78 100 158.5t70 149.5l48 -71l-31 -24q-14 -24 -34.5 -54t-44.5 -60t-49.5 -58.5t-49.5 -49.5z" />
  </g>

</svg>
