<?xml version="1.0" standalone="no"?>
<!DOCTYPE svg PUBLIC "-//W3C//DTD SVG 1.1//EN" "http://www.w3.org/Graphics/SVG/1.1/DTD/svg11.dtd" >
<svg xmlns="http://www.w3.org/2000/svg" xmlns:xlink="http://www.w3.org/1999/xlink" version="1.1" viewBox="0 0 2048 2048">
  <g transform="matrix(1 0 0 -1 0 2048)">
   <path fill="currentColor"
d="M471 1239l-49 -53q-21 -22 -72 -70q-50 -48 -64 -58l-56 -43l156 15q80 7 200 21q121 14 224 31l63 10q-44 40 -53 47l-60 42l21 27l72 -31q31 -14 71 -39q41 -26 70 -58q28 -31 30 -64q3 -32 -10 -44q-13 -13 -30 -16t-28 6q-11 8 -22 36q-12 27 -19 38l-15 23l-120 -32
q-63 -16 -220 -44l-212 -38l-102 -19l-4 -30q-3 -16 -10 -25t-20 -9q-14 -1 -20 6q-7 8 -15 36l-33 102q22 19 44 40q23 22 55 60q32 37 44 55l52 79l-102 -1q-3 -1 -67 -3t-75 -4l-19 -4l-37 95q13 -3 29 -6q15 -3 67 -11q52 -7 80 -7h41v438q0 14 -2 63q-3 49 -4 57l-6 51
l116 -76h499l74 72l107 -82q6 -6 8 -10q3 -3 4 -8q2 -5 -5 -16q-4 -5 -8 -8q-4 -2 -11 -2h-684v-122h427l74 72l107 -82q6 -5 8 -9t4 -12q1 -8 -5 -18q-4 -5 -7 -7q-4 -2 -11 -2h-597v-117h427l74 72l107 -82q6 -6 8 -10t3 -12t-4 -17q-3 -6 -7 -8q-3 -1 -11 -1h-597v-124
h536l79 78l102 -77q26 -20 25 -31q0 -11 -4 -18q-5 -7 -8 -9q-4 -3 -11 -3h-592zM1302 736q3 32 8 66q4 33 4 48v32l135 -26q31 -6 47 -17q17 -11 17 -24q-1 -12 -9 -18q-7 -6 -33 -13l-46 -13l-9 -35h272l98 101l121 -107q10 -10 15 -16q4 -5 1 -17q-3 -11 -11 -15
q-9 -4 -15 -4h-498l-27 -70q-15 -35 -46 -84q-31 -50 -62 -89q-32 -39 -53 -56l-44 -37q118 -26 163 -37q44 -11 191 -50t191 -59q45 -20 72 -44q26 -24 22 -60q-5 -37 -36 -40q-30 -4 -67 14q-37 19 -123 54l-178 69q-91 34 -157 52l-150 42q-34 -19 -62 -33t-78 -35
t-129 -45q-78 -23 -200 -48q-121 -25 -230 -42q-110 -17 -151 -20l-93 -9l-8 38l118 19q52 8 155 29t183 42t173 53t140 56l53 26q-42 13 -66 20q-25 6 -213 46l-170 37l-97 17l42 44q18 20 59 69t62 81l33 51h-307l-162 -5q-15 -1 -18 -1l-13 -2l-38 88q13 -4 27 -7t69 -9
t135 -6h343l26 49q11 20 36 74q24 55 32 79l15 46l129 -49q35 -14 37 -26q2 -13 -7 -23q-10 -10 -30 -12l-50 -5q-35 -62 -43 -75l-34 -59h539zM1289 679h-566l-33 -41q-12 -15 -43 -48q-31 -34 -64 -64l-63 -58q45 -8 68 -12q23 -3 200 -36q177 -34 197 -38l68 -15
q36 26 65 51q30 25 62 66q32 40 58 82t36 71zM1809 1417l72 -41l38 -24q14 -9 23 -20q8 -12 1 -29t-39 -11l-45 7l-90 -63q-45 -31 -91 -60q-46 -28 -104 -56q-57 -29 -117 -54t-105 -39q-44 -14 -137 -39l-83 -23l-16 41q40 11 68 20q27 9 116 46q89 36 134 58t114 66
q68 43 125 88t87 79zM1721 1672l69 -38q3 -3 27 -18t33 -26q9 -12 2 -29t-40 -11l-44 7l-78 -55q-39 -27 -90 -57q-50 -30 -130 -67q-80 -36 -150 -60q-71 -25 -112 -35l-72 -18l-12 36l30 13l133 52q76 31 151 76q74 44 145 97t96 84zM1611 1919l77 -46q25 -16 42 -35
q18 -19 12 -28q-5 -9 -19 -12q-14 -2 -35 0l-41 3l-92 -71q-47 -35 -107 -66q-59 -32 -148 -67q-90 -35 -119 -42l-86 -24l-12 39q50 19 87 34q36 16 99 48t111 63q49 31 108 79q60 48 85 79z" />
  </g>

</svg>
