<?xml version="1.0" standalone="no"?>
<!DOCTYPE svg PUBLIC "-//W3C//DTD SVG 1.1//EN" "http://www.w3.org/Graphics/SVG/1.1/DTD/svg11.dtd" >
<svg xmlns="http://www.w3.org/2000/svg" xmlns:xlink="http://www.w3.org/1999/xlink" version="1.1" viewBox="0 -205 1048 1024">
  <g transform="matrix(1 0 0 -1 0 819)">
   <path fill="currentColor"
d="M926 441l52 -33q9 -7 4 -12q-3 -4 -18 -4h-86q20 -9 19 -16q-3 -9 -24 -11v-27h30l29 25l29 -22q16 -12 15 -17t-20 -8v-58l-1 -6q0 -8 -2 -10q-3 -3 -12 -7q-16 -5 -20 -2q-2 3 -2 19l1 6l-165 -1q25 -6 27 -15q1 -6 -16 -13v-35h9l20 22l30 -20q10 -9 4 -12
q-3 -4 -16 -4h-47v-44l69 15v62l-2 41l36 -12q20 -8 21 -15q0 -6 -19 -12v-24h16l21 25l30 -22q10 -8 5 -13q-6 -6 -17 -6h-55v-22q0 -17 5 -24q6 -6 21 -9q11 -2 29 -2q15 3 22 30q5 19 13 76l9 -1q0 -53 3 -73q3 -16 11 -23q21 -15 14 -24t-46 -13q-32 -2 -73 0
q-21 3 -31 15q-10 11 -13 31l-98 -39q-3 -23 -11 -20q-9 2 -27 46l33 9v125h-19q-7 -70 -25 -101q-20 -55 -48 -84l-8 7q26 44 40 122q11 52 7 165l-5 63l44 -21h96v12l-6 41l42 -9q21 -6 20 -13q0 -5 -19 -13v-18h44zM713 339h42v20l-5 34h-37v-54zM873 322v-51h47v51h-47z
M779 393q25 -7 28 -15t-17 -13v-27h48v26l-3 29h-56zM713 271h42v51h-42v-51zM790 271h48v51h-48v-51zM571 783h-130v-65h130v65zM892 783h-121v-65h121v65zM610 798h123v71h-113q11 -3 8 -9t-18 -9v-53zM441 798h130v69h-130v-69zM733 783h-123v-65h123v65zM393 468
q9 48 14 102q5 75 -12 281l-7 61l48 -29h213q-5 5 -7 10q-2 4 -2 11l-3 15q-3 18 -8 28q-6 18 -24 39l9 6q37 -24 53 -46q13 -18 13 -35q0 -9 -3 -16q-2 -7 -5 -12h211l33 41l43 -32q16 -11 13 -17q-3 -8 -21 -8h-169q14 -5 11 -10t-22 -6v-53h101l27 23l47 -29q13 -9 7 -15
q-5 -6 -25 -6v-54v-17q2 -12 0 -16q-2 -6 -16 -9q-17 -3 -21 3q-3 5 -3 18l1 7h-448q0 -65 -7 -126q-8 -67 -30 -115zM237 945q24 -9 23 -15q-2 -7 -30 -11l-15 -34q50 -19 80 -42q36 -26 50 -60q9 -23 -9 -31q-19 -6 -35 22q-12 24 -34 47q-24 29 -57 53l-8 -17
q-24 -51 -37 -78q-24 -47 -47 -81h144l34 35l43 -32q12 -8 8 -13t-18 -5h-104v-134h57l32 36l43 -33q13 -8 8 -14q-5 -4 -19 -4h-121v-187q21 33 41 77q13 26 39 87l1 1l39 -21q24 -10 19 -19q-4 -7 -28 -10l-111 -143v-52l69 21l51 17l3 -10q-57 -26 -110 -50
q-31 -14 -79 -34l-46 -20q-1 -28 -10 -31q-7 -3 -24 23l-25 37l129 38v276h-55l-51 -3l-11 19l48 -1h69v135h-77q-13 -18 -25 -32q-14 -17 -27 -29l-6 6q39 63 75 142q37 82 75 190zM60 504q53 -65 73 -110q25 -51 13 -89q-9 -18 -18 -17q-10 0 -15 21l-1 6q-11 45 -19 76
q-15 51 -39 108zM738 674q23 -6 22 -13q-1 -4 -16 -12l-5 -4v-33h65l27 33l36 -26q15 -11 11 -16q-5 -5 -19 -5h-120v-50q0 -11 2 -16q3 -6 13 -8q10 -1 52 -1q38 0 51 4q15 5 24 20q4 10 12 36l1 8l12 -2l-4 -50q35 -16 33 -27q-1 -12 -43 -16q-22 -1 -58 -2h-70h-12
q-26 0 -36 16q-9 12 -9 41v81l-4 52zM584 612l32 33l34 -27q14 -11 12 -15q-4 -5 -18 -5h-110v-77l129 48l5 -11l-128 -66l-9 -6q-8 -7 -11 -7q-7 0 -18 8q-9 7 -10 13q-2 4 2 12q3 6 4 9q1 8 1 14v117v32l33 -9q32 -7 29 -15q-2 -6 -27 -14v-34h50zM600 439l52 -33
q10 -7 4 -12q-3 -4 -18 -4h-106q21 -9 20 -17q-3 -8 -24 -10v-27h30l29 25l28 -22q17 -12 16 -17t-20 -8v-58l-1 -6q0 -8 -2 -10q-3 -3 -12 -7q-16 -5 -21 -2q-2 3 -2 19l1 6l-164 -1q25 -6 27 -15q1 -6 -16 -13v-35h9l20 22l30 -20q9 -9 4 -12q-3 -4 -16 -4h-47v-44l68 15
v62l-2 41l37 -12q20 -8 21 -15q0 -6 -19 -12v-24h16l21 25l30 -22q10 -8 5 -13q-6 -6 -17 -6h-55v-22q0 -17 4 -24q7 -6 22 -10q11 -1 29 -1q15 2 22 30q5 19 12 76l10 -1q0 -53 3 -73q3 -16 11 -23q20 -15 14 -24q-7 -9 -46 -13q-33 -2 -73 0q-21 3 -31 15q-10 11 -14 31
l-97 -39q-3 -23 -11 -21q-9 3 -27 47l33 9v125h-19q-8 -70 -25 -101q-20 -55 -48 -84l-8 7q26 44 40 122q11 52 7 165l-5 63l44 -21h96v12l-6 40l42 -8q21 -6 20 -13q0 -5 -19 -13v-18h63zM368 337h42v20l-6 34h-36v-54zM528 320v-51h46v51h-46zM434 391q25 -7 28 -15
t-18 -13v-27h49v26l-4 29h-55zM368 269h42v51h-42v-51zM444 269h49v51h-49v-51z" />
  </g>

</svg>
