<?xml version="1.0" standalone="no"?>
<!DOCTYPE svg PUBLIC "-//W3C//DTD SVG 1.1//EN" "http://www.w3.org/Graphics/SVG/1.1/DTD/svg11.dtd" >
<svg xmlns="http://www.w3.org/2000/svg" xmlns:xlink="http://www.w3.org/1999/xlink" version="1.1" viewBox="0 -205 1024 1024">
  <g transform="matrix(1 0 0 -1 0 819)">
   <path fill="currentColor"
d="M372 834h186q38 72 64 154q75 -39 78 -44q2 -3 2 -6q0 -4 -18 -10q-17 -6 -28 -24q-11 -17 -40 -70h254l38 50l62 -56q3 -4 4 -10q0 -12 -12 -12h-230q36 -70 82 -118q44 -49 94 -76q48 -24 90 -30v-18q-24 3 -42 -2q-15 -3 -32 -26q-73 44 -112 92q-36 45 -60 84
q-21 36 -48 94h-106q-54 -102 -132 -194l34 -28h126v136q81 -31 82 -38q0 -6 -2 -8q-3 0 -30 -12v-78h120l16 16l44 -26q6 -6 6 -8q0 -4 -8 -16v-198l2 -92q0 -12 -14 -20q-14 -9 -40 -14v34h-126v-118q0 -25 12 -35q14 -8 34 -8h150q35 7 44 45q8 38 10 130h22q2 -57 4 -92
q2 -36 32 -57q-13 -29 -32 -46q-18 -17 -54 -22h-194q-37 2 -56 16q-19 15 -22 56v131h-126v-18q0 -12 -18 -24q-15 -12 -36 -14l4 120v270q-42 -45 -90 -80l-10 12q57 63 106 132q45 68 88 148h-114q-22 0 -40 -8l-18 36v0v0zM500 286h126v116h-126v-116v0v0zM676 402v-116
h126v116h-126v0v0zM500 428h126v130h-126v-130v0v0zM676 558v-130h126v130h-126v0v0zM116 956l60 -46h108l30 38l54 -42q9 -6 10 -12q-1 -6 -34 -24v-722q3 -41 -8 -67q-9 -26 -62 -44q-4 25 -26 40q-22 16 -86 34l6 18q65 -15 86 -18q20 -1 32 6q12 6 10 31v290h-132
q-3 -97 -12 -154t-36 -128q-28 -67 -76 -125l-12 10q41 78 56 141q15 60 24 136q10 73 8 224v414v0v0zM166 464h130v190h-130v-190v0v0v0zM166 680h130v200h-130v-200v0v0z" />
  </g>

</svg>
