<?xml version="1.0" standalone="no"?>
<!DOCTYPE svg PUBLIC "-//W3C//DTD SVG 1.1//EN" "http://www.w3.org/Graphics/SVG/1.1/DTD/svg11.dtd" >
<svg xmlns="http://www.w3.org/2000/svg" xmlns:xlink="http://www.w3.org/1999/xlink" version="1.1" viewBox="0 -36 256 256">
  <g transform="matrix(1 0 0 -1 0 220)">
   <path fill="currentColor"
d="M127 212h-36q0 -5 2 -17l-16 -5q1 13 1 22h-20h-12q-11 0 -20 -2l-10 9h62q0 16 -1 27l22 -8l-8 -6v-13h12l11 10zM131 219h32q0 15 -1 27l22 -8l-8 -6v-13h35l11 11l15 -18h-61l1 -14l-15 -6q1 15 1 20h-11l-12 -2zM41 196q19 -3 26 -7.5t6 -10.5t-5.5 -7.5t-8 6
t-20.5 17.5zM24 165q9 -3 20 -7t11.5 -10t-4 -10t-9 4t-21.5 19zM43.5 115q6.5 1 15 14t25.5 36l3 -3q-13 -23 -23.5 -39t-11 -31.5t-3 -19.5t-9 2t-5.5 11.5t3.5 9.5t-1 9.5t-14.5 7.5v5q14 -3 20.5 -2zM154 153h34v13h-34v-13zM201 145l-13 -4v5h-80v-4l-13 -4
q1 12 1 30.5t-1 31.5l11 -7h83l8 8l12 -12l-9 -5q0 -20 1 -39zM108 173h34v13h-34v-13zM154 173h34v13h-34v-13zM108 153h34v13h-34v-13zM99 90h24v35h-24v-35zM137 90h23v35h-23v-35zM172 90h25v35h-25v-35zM85 140l14 -8h97l9 11l15 -14l-10 -7v-32h9l12 11l15 -18h-160
q-10 0 -20 -2l-9 9h29q0 31 -1 50zM120 83l22 -9l-8 -6v-5h83l13 11l14 -18h-110v-44l-14 -5v49h-77q-12 0 -21 -2l-10 9h108v20zM16 14q50 20 75 42l15 -14l-9 -2q-54 -24 -79 -30zM153 54q52 -11 68.5 -20t13 -19.5t-19.5 4t-63 30.5z" />
  </g>

</svg>
