<?xml version="1.0" standalone="no"?>
<!DOCTYPE svg PUBLIC "-//W3C//DTD SVG 1.1//EN" "http://www.w3.org/Graphics/SVG/1.1/DTD/svg11.dtd" >
<svg xmlns="http://www.w3.org/2000/svg" xmlns:xlink="http://www.w3.org/1999/xlink" version="1.1" viewBox="0 -36 256 256">
  <g transform="matrix(1 0 0 -1 0 220)">
   <path fill="currentColor"
d="M169 232v-24h22l6 9l14 -12l-9 -6l-1 -60q-2 -16 5 -17h11q7 2 7 38h5q2 -36 10 -38q-3 -10 -13 -12h-25q-13 2 -13 20l1 71h-20q-1 -18 -7 -38q19 -10 19 -18.5t-2.5 -12.5t-8 5t-13.5 16q-14 -27 -44 -45l-3 4q25 20 37 48l-21 17l1 3l23 -11q5 17 5 32h-2
q-10 0 -19 -2l-9 9h30q0 22 -1 40l22 -8zM69 245l22 -8l-7 -6v-14h14l10 9l13 -16h-37v-22h22l11 10l15 -17h-81q-9 0 -19 -2l-9 9h47v22h-12q-10 0 -19 -2l-9 9h40q0 12 -1 28zM125 135l1 -4q-81 -20 -95 -28l-11 16q31 3 50 7v24h-13q-10 0 -19 -2l-9 9h41q0 12 -1 25
l23 -8l-8 -6v-11h21l9 9l14 -16h-44v-22zM174 48q0 -16 2 -36l-18 -4q1 21 1 32v35h-67q-2 -22 -18.5 -39.5t-57.5 -28.5l-1 4q30 13 45 28.5t17 35.5h-38q-10 0 -19 -2l-9 9h67q0 23 -1 31l24 -9l-8 -5v-17h66v34l24 -8l-9 -7v-19h41l14 13l17 -20h-72v-27z" />
  </g>

</svg>
