<?xml version="1.0" standalone="no"?>
<!DOCTYPE svg PUBLIC "-//W3C//DTD SVG 1.1//EN" "http://www.w3.org/Graphics/SVG/1.1/DTD/svg11.dtd" >
<svg xmlns="http://www.w3.org/2000/svg" xmlns:xlink="http://www.w3.org/1999/xlink" version="1.1" viewBox="0 -36 256 256">
  <g transform="matrix(1 0 0 -1 0 220)">
   <path fill="currentColor"
d="M74 230l-12 -23h48l10 11l16 -18h-60q16 -7 22 -12.5t7 -10t-5 -10.5t-9 2t-7.5 15.5t-12.5 15.5h-12q-12 -19 -39 -39l-2 3q15 15 26.5 36t17.5 45l21 -12zM172 230l-13 -23h54l11 11l15 -18h-66q21 -7 27.5 -13t6 -12t-5 -9.5t-10 7t-26.5 27.5h-9q-15 -23 -32 -37
l-2 2q17 25 26 45t11 35l23 -10zM66 105q-18 -43 -53 -76l-3 2q34 48 48 95h-8q-13 1 -24 -2l-9 9h49q0 24 -1 42l22 -11l-8 -6v-25h10l12 13l16 -20h-38v-10q22 -17 27.5 -23t4 -13t-5 -11t-8.5 9t-18 31q0 -67 1 -95l-15 -8q1 41 1 99zM132 152h77l12 11l15 -18h-104v-118
h81l12 13l15 -20h-107l-7 -8l-13 12l6 6v66q0 36 -1 64zM138 38l-1 4q41 36 39 97l23 -10l-9 -6l-3 -22q33 -26 38 -37.5t-1.5 -17.5t-13.5 12t-25 38q-10 -35 -47 -58z" />
  </g>

</svg>
