<?xml version="1.0" standalone="no"?>
<!DOCTYPE svg PUBLIC "-//W3C//DTD SVG 1.1//EN" "http://www.w3.org/Graphics/SVG/1.1/DTD/svg11.dtd" >
<svg xmlns="http://www.w3.org/2000/svg" xmlns:xlink="http://www.w3.org/1999/xlink" version="1.1" viewBox="0 -205 1024 1024">
  <g transform="matrix(1 0 0 -1 0 819)">
   <path fill="currentColor"
d="M398 864h214v122l76 -24q7 -3 8 -6q0 -9 -8 -12l-26 -14v-66h114l38 46l56 -56q6 -1 6 -8q-1 -6 -16 -6h-198v-98h186l36 44l56 -54q6 -4 6 -10t-18 -6h-508q-22 -1 -56 -10l-18 36h266v98h-142q-19 -1 -52 -10l-20 34v0v0zM646 588h108v98l72 -22q7 -3 8 -6q0 -9 -8 -12
l-22 -14v-44h60l32 42l52 -52q6 -1 6 -8q-1 -6 -16 -6h-134v-110h82l34 44l52 -54q6 -4 6 -10t-18 -6h-244q-39 -1 -78 -10l-18 36h134v110h-40q-18 -1 -48 -10l-20 34v0v0zM320 590h130v100l70 -18q7 -3 8 -6q0 -9 -8 -12l-20 -10v-54h54l32 42l48 -52q6 -1 6 -8
q-1 -6 -16 -6h-124v-92l124 24l4 -16q-202 -56 -230 -70q-28 -12 -52 -32l-44 58l148 28v100h-62q-18 -1 -48 -10l-20 34v0v0zM748 322v-185q-1 -44 8 -50q6 -7 34 -8h82q25 0 38 14q12 11 16 40q2 27 4 105h16q5 -72 14 -98q6 -22 30 -35q-15 -39 -44 -54q-27 -13 -74 -14
h-108q-33 4 -50 20q-15 15 -14 62v203h-144q1 -85 -22 -148q-21 -60 -80 -99q-60 -38 -164 -62l-4 16q102 39 148 78q44 36 58 93q15 56 12 122h-144q-12 0 -30 -6l-20 34h554l34 46q66 -57 66 -66q0 -7 -8 -8h-208v0v0zM178 980l80 -30q12 -7 0 -16l-32 -12v-138
q44 -24 74 -44q27 -19 36 -40q7 -22 2 -40q-6 -19 -26 -20q-18 0 -26 22q-6 20 -18 46q-12 24 -42 54v-594l4 -111q1 -11 -16 -26q-17 -14 -40 -16l4 161v804v0v0zM102 730h18q1 -81 0 -120q0 -39 -18 -66q-16 -25 -38 -26q-22 0 -28 16q-6 14 6 28l22 30t20 46q9 28 18 92
v0v0z" />
  </g>

</svg>
