<?xml version="1.0" standalone="no"?>
<!DOCTYPE svg PUBLIC "-//W3C//DTD SVG 1.1//EN" "http://www.w3.org/Graphics/SVG/1.1/DTD/svg11.dtd" >
<svg xmlns="http://www.w3.org/2000/svg" xmlns:xlink="http://www.w3.org/1999/xlink" version="1.1" viewBox="0 -205 1024 1024">
  <g transform="matrix(1 0 0 -1 0 819)">
   <path fill="currentColor"
d="M402 790l40 48l58 -54q3 -3 4 -8q0 -12 -12 -12h-378q-21 0 -68 -8l-16 34h372v0v0zM68 660h284l32 44l56 -50q3 -3 4 -8q0 -12 -12 -12h-276q-21 0 -68 -8l-20 34v0v0zM108 440l60 -46h162l30 38l60 -46q6 -4 6 -8q0 -6 -32 -26v-170l4 -63q-1 -12 -22 -24
q-18 -11 -36 -14v83h-180v-67q0 -15 -20 -30q-18 -13 -36 -14l4 89v298v0v0zM160 190h180v178h-180v-178v0v0zM170 968l10 10q81 -49 100 -76q18 -27 18 -50q1 -21 -10 -32q-11 -9 -28 -6q-15 3 -18 24q-3 17 -12 44q-6 23 -60 86v0v0zM72 530h272l30 44l54 -50q3 -3 4 -8
q0 -12 -12 -12h-260q-21 0 -68 -8l-20 34v0v0zM774 922l56 -36q8 -7 8 -10q0 -4 -32 -28v-188q0 -25 36 -26h66q26 6 34 12q6 6 30 -20q15 -15 16 -20q-1 -13 -32 -16h-138q-27 -1 -42 8q-18 14 -18 44v220h-150v-88q-4 -91 -32 -152q-25 -60 -116 -104l-10 14q72 54 90 114
q18 61 18 140v136l52 -36h134l30 36v0v0zM806 526l64 -44q7 -3 8 -12q-3 -6 -14 -12q-25 -9 -34 -30q-54 -138 -116 -218q63 -52 138 -77q75 -24 144 -30v-18q-48 -2 -66 -10q-17 -7 -34 -32q-55 25 -106 58q-49 32 -104 79q-40 -41 -128 -89q-88 -47 -196 -70l-6 14
q99 39 168 78t132 99q-48 63 -72 126q-24 60 -38 124h-28l-34 -8l-28 36h318l32 36v0v0zM574 462q36 -129 108 -218q57 74 100 218h-208v0v0v0z" />
  </g>

</svg>
