<?xml version="1.0" standalone="no"?>
<!DOCTYPE svg PUBLIC "-//W3C//DTD SVG 1.1//EN" "http://www.w3.org/Graphics/SVG/1.1/DTD/svg11.dtd" >
<svg xmlns="http://www.w3.org/2000/svg" xmlns:xlink="http://www.w3.org/1999/xlink" version="1.1" viewBox="0 -36 256 256">
  <g transform="matrix(1 0 0 -1 0 220)">
   <path fill="currentColor"
d="M169 188v11l-1 11l13 -6q10 8 19 17h-53q-12 0 -21 -2l-9 9h86l13 9l13 -15l-11 -2q-17 -9 -33 -19l4 -3l-6 -4v-6h36l13 10l16 -17h-65v-38q-1 -16 -19 -20q-3 15 -26 16v5q16 -2 24 -2t7 8v31h-30q-10 0 -19 -3l-10 10h59zM136 122h65l9 11l15 -12l-8 -7v-90h6l13 11
l13 -18h-131q-11 -1 -22 -3l-9 10h36v71q0 18 -1 35zM136 90h67v25h-67v-25zM136 58h67v25h-67v-25zM136 24h67v27h-67v-27zM32 60.5q-4 15.5 -16 36.5l2 3q16 -13 24.5 -23t1 -21t-11.5 4.5zM92 168l14 -18h-37v-29h16l12 10l14 -17h-42v-53q10 13 25 47l15 -14l-8 -5
q-13 -15 -32 -35v-11l45 9l1 -4q-61 -18 -91 -31l-10 17q17 1 42 8v72h-13q-12 0 -21 -3l-9 10h43v29h-8q-4 0 -10 -2l-6 5q-10 -13 -22 -26l-3 2q36 62 54 118l18 -11l-6 -4l-6 -12q24 -8 33.5 -14t5.5 -18t-12 0t-28 29q-18 -38 -32 -60h45z" />
  </g>

</svg>
