<?xml version="1.0" standalone="no"?>
<!DOCTYPE svg PUBLIC "-//W3C//DTD SVG 1.1//EN" "http://www.w3.org/Graphics/SVG/1.1/DTD/svg11.dtd" >
<svg xmlns="http://www.w3.org/2000/svg" xmlns:xlink="http://www.w3.org/1999/xlink" version="1.1" viewBox="0 -200 999 1000">
  <g transform="matrix(1 0 0 -1 0 800)">
   <path fill="currentColor"
d="M52 358q30 32 49.5 65t31 71t17.5 83t8.5 100t3.5 122.5t3 151.5l71 -33h193l38 48l65 -53l-33 -39v-159h-283q-3 -77 -12.5 -135t-27.5 -101.5t-46 -74.5t-68 -54zM469 544l-34 -12q-14 -9 -32 -18.5t-35.5 -17.5t-33 -15t-25.5 -11v-25q4 -17 8 -28.5t24 -11.5h76
q13 1 24.5 3t20 9t13 21t4.5 39q0 19 -3 51h8q2 -51 7.5 -75.5t12 -34.5t13 -11.5t11.5 -5.5q0 -2 0.5 -2.5t0.5 -1.5t1 -1q0 -5 -6.5 -11.5t-16.5 -12t-23 -9.5t-25 -4h-142q-24 0 -42.5 19.5t-18.5 49.5v240l75 -27l-22 -48v-111q36 31 63 54t39 40zM217 737h223v160h-205
l-13 -15zM513 614q30 42 56 92.5t47.5 103t37.5 102t26 88.5l77 -35l-23 -29q25 -58 49.5 -102t50.5 -75.5t55 -52t63 -31.5q-20 -5 -38 -21t-30 -28q-29 18 -51.5 49t-41.5 70.5t-35.5 84.5t-34.5 91q-17 -44 -39 -88.5t-48 -86t-54 -77t-57 -61.5zM657 577l-50 -13l-19 35
h180l33 40l67 -57l-38 -27q-14 -21 -30 -48.5t-32 -54t-30 -48.5t-25 -33l-10 6q24 58 43 104.5t26 95.5h-115zM649 678l-19 29h102l24 28l37 -47h-118zM200 336l65 -35h466l34 43l70 -47l-30 -39l-1 -219q-15 -18 -27 -23.5t-33 -5.5v51h-485v-33q-11 -13 -27.5 -19.5
t-31.5 -10.5v338zM259 172v-86h485v86h-485zM268 278l-9 -20v-65h485v85h-476z" />
  </g>

</svg>
