<?xml version="1.0" standalone="no"?>
<!DOCTYPE svg PUBLIC "-//W3C//DTD SVG 1.1//EN" "http://www.w3.org/Graphics/SVG/1.1/DTD/svg11.dtd" >
<svg xmlns="http://www.w3.org/2000/svg" xmlns:xlink="http://www.w3.org/1999/xlink" version="1.1" viewBox="0 -205 1048 1024">
  <g transform="matrix(1 0 0 -1 0 819)">
   <path fill="currentColor"
d="M869 721l42 38l57 -38q13 -9 8 -14q-4 -6 -20 -6h-179q42 -18 38 -26q-3 -8 -35 -8l-99 -137h163l41 40l53 -38q14 -13 8 -18q-5 -5 -21 -5h-258q11 -9 8 -14q-4 -4 -27 -7q3 -23 -5 -73h174l39 41l50 -37q14 -13 8 -18q-5 -6 -20 -6h-253q-3 -42 -19 -84h249l44 44
l56 -40q13 -13 8 -18q-5 -6 -21 -6h-310q50 -65 149 -123q95 -58 173 -69l1 -12q-24 -3 -39 -10q-14 -8 -27 -21q-86 40 -169 115q-74 67 -107 120h-13q-32 -92 -114 -146q-74 -48 -231 -90l-5 11q143 44 213 99q68 51 94 126h-191l-70 -3l-12 26l67 -3h212q14 44 15 84
h-117l-68 -4l-14 27l66 -2h135q6 44 2 92h-141l-69 -4l-13 27l66 -2h224l6 13q29 56 43 83q24 46 38 76h-421l-2 20h540zM498 684q40 -39 60 -71q23 -35 19 -57q-9 -24 -22 -26q-13 -1 -18 25q-5 22 -19 54t-36 67zM123 871h155l37 39l39 -32q15 -11 8 -18q-5 -7 -19 -7h-83
q8 -8 5 -13q-5 -4 -23 -4q-23 -92 -40 -151q-21 -67 -39 -101l30 -11h65l25 28l36 -31q22 -17 13 -27q-7 -6 -23 -6v-233v-40q1 -49 -2 -61q-3 -14 -19 -19q-15 -4 -18 3q-2 6 -1 30l1 29h-83l1 -46q1 -28 -1 -36q-2 -10 -14 -16q-17 -6 -21 1q-4 5 -2 23l1 11v342l-1 29
q-23 -34 -42 -61q-27 -34 -51 -52l-4 7q60 76 97 181q32 97 49 224h-63l-60 -1l-10 21zM189 262h81v295h-81v-295zM984 854l-6 -14h-174v-58q0 -15 -2 -19.5t-17 -8.5q-11 -2 -15 -2q-8 0 -8 9q0 -7 0 26v53h-79v20h79v82l34 -5q35 -9 35 -16q0 -6 -27 -14v-47h98l19 20
q10 11 15 11q2 0 16 -10zM678 854l-8 -14h-135v-58q0 -16 -2 -19t-17 -10q-12 -3 -16 -3q-7 0 -7 10q0 -4 0 27v53h-116v20h116v82l35 -5q34 -9 34 -16q0 -6 -27 -14v-47h75l15 16q10 12 16 12q1 0 16 -13z" />
  </g>

</svg>
