<?xml version="1.0" standalone="no"?>
<!DOCTYPE svg PUBLIC "-//W3C//DTD SVG 1.1//EN" "http://www.w3.org/Graphics/SVG/1.1/DTD/svg11.dtd" >
<svg xmlns="http://www.w3.org/2000/svg" xmlns:xlink="http://www.w3.org/1999/xlink" version="1.1" viewBox="0 -36 256 256">
  <g transform="matrix(1 0 0 -1 0 220)">
   <path fill="currentColor"
d="M32 117h52l8 11l17 -15l-9 -5q-4 -27 -10 -52t-16 -32.5t-22 -10.5q0 13 -24 22l1 5q24 -6 31.5 -4.5t12.5 16t12 58.5h-55l-7 -6l-12 14l7 4q5 35 6 59l13 -8h46v48h-42q-10 0 -19 -2l-9 9h69l7 11l15 -11l-7 -8v-43q0 -5 1 -13l-15 -7v9h-45zM111 53.5q11 21.5 14.5 47
t3.5 54t-1 81.5l14 -10h45l7 10l16 -11l-8 -9v-169q0 -12 10 -12h9q8 2 8 11t1 39h5q0 -15 1.5 -29.5t10.5 -20.5q-5 -12 -21 -13h-23q-15 1 -15 18v179h-45q1 -87 -3.5 -114t-16.5 -51t-39 -45l-2 4q18 19 29 40.5z" />
  </g>

</svg>
