<?xml version="1.0" standalone="no"?>
<!DOCTYPE svg PUBLIC "-//W3C//DTD SVG 1.1//EN" "http://www.w3.org/Graphics/SVG/1.1/DTD/svg11.dtd" >
<svg xmlns="http://www.w3.org/2000/svg" xmlns:xlink="http://www.w3.org/1999/xlink" version="1.1" viewBox="0 -205 1024 1024">
  <g transform="matrix(1 0 0 -1 0 819)">
   <path fill="currentColor"
d="M680 928q12 -9 -2 -18q-28 -4 -40 -28q-39 -87 -72 -144h330l30 44l66 -50q8 -3 8 -12l-12 -12l-26 -18l-18 -358q-6 -81 -14 -132q-9 -51 -36 -87q-27 -35 -96 -62q-10 34 -40 50t-98 34l4 19q66 -14 118 -19q51 -3 72 19q21 23 30 74q8 50 16 170l12 314h-76
q-15 -185 -54 -292t-114 -190q-72 -81 -206 -155l-8 16q113 76 182 161q66 83 102 194q36 110 46 266h-88q-21 -129 -56 -206q-33 -77 -84 -136q-49 -60 -136 -126l-12 12q76 74 116 130q39 54 72 130q30 75 48 196h-90q-54 -99 -108 -158l-12 8q57 100 96 194q39 92 72 206
l78 -34v0v0zM132 952l62 -46h142l30 38l52 -42q9 -6 10 -12q0 -6 -32 -24v-722q3 -41 -8 -67q-9 -26 -62 -44q-4 25 -26 40q-22 16 -86 34l6 18q66 -15 84 -18q18 -1 30 6q12 6 10 31v294h-160q-4 -112 -16 -170q-12 -57 -44 -128q-30 -67 -80 -125l-12 10q43 79 62 141
q17 61 28 164q12 102 10 216v406v0v0zM344 464v190h-158v-190h158v0v0zM186 680h158v200h-158v-200v0v0z" />
  </g>

</svg>
