<?xml version="1.0" standalone="no"?>
<!DOCTYPE svg PUBLIC "-//W3C//DTD SVG 1.1//EN" "http://www.w3.org/Graphics/SVG/1.1/DTD/svg11.dtd" >
<svg xmlns="http://www.w3.org/2000/svg" xmlns:xlink="http://www.w3.org/1999/xlink" version="1.1" viewBox="0 -36 256 256">
  <g transform="matrix(1 0 0 -1 0 220)">
   <path fill="currentColor"
d="M181 227q28 7 43 16l13 -18q-8 -3 -44.5 -7.5t-77.5 -7.5v4q38 6 66 13zM218 179.5q-11 -14.5 -23 -29.5l-3 2q11 19 18 34.5t9 27.5l20 -15q-10 -5 -21 -19.5zM178.5 184q6.5 -9 4.5 -17.5t-7.5 -9t-8.5 13.5t-14 31l3 2q16 -11 22.5 -20zM120 196q13 -9 20 -18
t6.5 -17.5t-6 -10t-9 12.5t-13.5 30zM138 89l-13 13l10 6l14 30h-15q-10 -1 -19 -3l-10 10h114l13 14l16 -21h-84l-15 -36h62l8 12l17 -13l-8 -7q-10 -58 -17 -71.5t-24 -15.5q0 15 -30 21v5q32 -7 39.5 1t16.5 61h-66zM32 62.5q-4 15.5 -16 36.5l2 2q16 -12 24 -22t1 -21
t-11 4.5zM90 168l15 -17h-38v-29h17l11 10l14 -17h-42v-51q10 14 24 45l15 -14l-9 -6q-12 -13 -30 -32v-11l43 11l1 -4q-60 -21 -86 -34l-11 17q16 2 40 8v71h-12q-11 0 -20 -3l-9 10h41v29h-23q-10 -13 -21 -22l-2 2q34 57 50 116l18 -11l-6 -5l-5 -11q21 -6 33 -11.5
t8.5 -18.5t-12.5 -0.5t-30 26.5q-14 -33 -28 -58h42z" />
  </g>

</svg>
