<?xml version="1.0" standalone="no"?>
<!DOCTYPE svg PUBLIC "-//W3C//DTD SVG 1.1//EN" "http://www.w3.org/Graphics/SVG/1.1/DTD/svg11.dtd" >
<svg xmlns="http://www.w3.org/2000/svg" xmlns:xlink="http://www.w3.org/1999/xlink" version="1.1" viewBox="0 -36 256 256">
  <g transform="matrix(1 0 0 -1 0 220)">
   <path fill="currentColor"
d="M235 173q-3 -72 -9.5 -81.5t-19.5 -12.5q-2 12 -26 17l1 4q22 -3 28.5 -2t8.5 21.5t3 55.5h-159l-8 -7l-11 11l5 4q6 23 6 31l13 -7h135v21h-123q-11 0 -20 -2l-10 9h152l6 9l15 -10l-6 -7q0 -12 1 -28l-15 -5v6h-135l-5 -18h158l7 10l15 -11zM181 161l6 9l15 -11l-6 -6
v-46l-14 -5v8h-137v-6l-15 -7q1 7 1 22v31q0 11 -1 20l15 -9h134h2zM45 117h137v37h-137v-37zM111 107l21 -6l-6 -4v-6h47l8 6l15 -13h-70v-14h64l11 7l16 -14h-157q-11 0 -21 -2l-10 9h83v14h-42q-10 0 -20 -2l-10 9h72q0 7 -1 16zM113 62l23 -7l-8 -4v-6h61l11 8l16 -15
h-88v-14h84l12 8l16 -15h-191q-11 0 -21 -2l-10 9h96v14h-45q-10 0 -20 -2l-10 9h75q0 8 -1 17zM145 154l14 -9l-6 -2q-8 -5 -21 -13.5t-24 -12.5l-2 3q11 7 23.5 18.5t15.5 15.5zM104 156l12 -9l-5 -4q-13 -9 -22.5 -14t-22.5 -11l-2 3q12 7 24 17.5t16 17.5zM153 130
q5 -4 4 -10t-9 -1t-27 11t-56 14l1 4q32 -4 57 -9t30 -9z" />
  </g>

</svg>
