<?xml version="1.0" standalone="no"?>
<!DOCTYPE svg PUBLIC "-//W3C//DTD SVG 1.1//EN" "http://www.w3.org/Graphics/SVG/1.1/DTD/svg11.dtd" >
<svg xmlns="http://www.w3.org/2000/svg" xmlns:xlink="http://www.w3.org/1999/xlink" version="1.1" viewBox="0 -36 256 256">
  <g transform="matrix(1 0 0 -1 0 220)">
   <path fill="currentColor"
d="M24 173q0 33 -1 66l13 -8h57l12 11l13 -18h-42v-29h12l11 11l12 -18h-35v-29h11l10 11l13 -18h-34v-29l21 1l8 9l14 -14l-7 -5q-4 -65 -8 -75.5t-9.5 -17.5t-17.5 -10q0 11 -25 18l1 4q23 -3 28 -2t10 13t8 74l-62 -3v-6l-14 -4q1 35 1 68zM37 195h26v29h-26v-29zM37 159
h26v29h-26v-29zM37 122l26 1v29h-26v-30zM23 90q4 -21 2 -30t-6 -12.5t-8.5 -0.5t2 12.5t6.5 30.5h4zM35 93q9 -10 12 -18.5t1.5 -15t-7 -7.5t-4.5 11t-6 29zM51 99q19 -16 22 -23t0 -11t-7 -4.5t-5 8.5t-12 28zM72 104q13 -10 17 -17t3 -12t-5.5 -7.5t-6.5 7t-11 27.5z
M215 236l14 12l14 -19h-89q-16 1 -26 -3l-6 10h93zM159 169h44v31h-44v-31zM146 185q0 16 -1 30l14 -8h43l8 9l14 -14l-7 -5q0 -24 1 -39l-15 -5v9h-44v-6l-14 -5q1 18 1 34zM125 75q0 44 -1 76l14 -11h88l7 11l14 -15l-7 -6v-95q0 -13 -5 -18t-13 -9q0 12 -25 23v4
q20 -5 25 -5t5 9v94h-88v-119l-15 -8q1 25 1 69zM167 62h32v35h-32v-35zM155 80.5q0 18.5 -1 33.5l13 -10h31l8 10l12 -14l-7 -7q0 -26 1 -43l-13 -6v11h-32v-7l-13 -6q1 20 1 38.5z" />
  </g>

</svg>
