<?xml version="1.0" standalone="no"?>
<!DOCTYPE svg PUBLIC "-//W3C//DTD SVG 1.1//EN" "http://www.w3.org/Graphics/SVG/1.1/DTD/svg11.dtd" >
<svg xmlns="http://www.w3.org/2000/svg" xmlns:xlink="http://www.w3.org/1999/xlink" version="1.1" viewBox="0 -36 256 256">
  <g transform="matrix(1 0 0 -1 0 220)">
   <path fill="currentColor"
d="M222 165l-16 -5v10h-158v-6l-16 -6q1 24 1 47t-1 38l16 -7h157l10 9l17 -12l-11 -6v-34q0 -22 1 -28zM48 177h41v52h-41v-52zM104 177h45v52h-45v-52zM164 177h42v52h-42v-52zM55 81v37q0 16 -1 37l16 -11h123l8 11l16 -13l-9 -7v-99q-3 -22 -22 -29q-1 8 -9 11.5
t-27 6.5v5q28 -3 36.5 -1t8.5 17v91h-126v-51q-1 -49 -48 -79l-3 4q33 27 37 70zM84 116l1 4q59 -5 72 -10.5t14.5 -17.5t-16 -1t-71.5 25zM97 47l-10 -7l-17 18q42 6 121 27v-4q-73 -26 -94 -34z" />
  </g>

</svg>
