<?xml version="1.0" standalone="no"?>
<!DOCTYPE svg PUBLIC "-//W3C//DTD SVG 1.1//EN" "http://www.w3.org/Graphics/SVG/1.1/DTD/svg11.dtd" >
<svg xmlns="http://www.w3.org/2000/svg" xmlns:xlink="http://www.w3.org/1999/xlink" version="1.1" viewBox="0 -36 256 256">
  <g transform="matrix(1 0 0 -1 0 220)">
   <path fill="currentColor"
d="M53 207h36l8 9l12 -12l-7 -7v-139q0 -11 1 -22l-14 -6v15h-58v-13l-14 -7l1 17v76.5v78.5l-1 18l14 -8h15q5 18 7 37l21 -10l-8 -4zM31 52h58v148h-58v-148zM68 134q15 -29 17 -39.5t-2 -19.5t-6.5 0.5l-5 19t-9.5 26.5q-11 -28 -30 -50l-2 3q17 29 26 59q-10 22 -23 44
l2 3q14 -17 26 -34q7 25 10 52l16 -12l-6 -4q-6 -28 -13 -48zM155 83q2 14 2 32l21 -9l-7 -6q-1 -9 -2 -17h28q-3 17 -17 27l2 4q16 -5 24.5 -13t-4.5 -18h13l13 12l16 -19h-64q12 -22 31 -35.5t37 -14.5v-4q-13 -2 -17 -13q-16 6 -33.5 25t-22.5 42h-7q-8 -36 -32.5 -51
t-46.5 -16l-1 4q23 7 41 22t25 41h-22q-10 0 -19 -2l-9 9h51zM122 168.5q0 37.5 -1 53.5l13 -8h17q7 22 8 31l19 -10q-7 -3 -20 -21h45l7 10l14 -12l-7 -6v-67q0 -11 1 -27l-14 -5v9h-69v-8l-14 -5q1 28 1 65.5zM135 185h69v22h-69v-22zM135 154h69v24h-69v-24zM135 123h69
v24h-69v-24z" />
  </g>

</svg>
