<?xml version="1.0" standalone="no"?>
<!DOCTYPE svg PUBLIC "-//W3C//DTD SVG 1.1//EN" "http://www.w3.org/Graphics/SVG/1.1/DTD/svg11.dtd" >
<svg xmlns="http://www.w3.org/2000/svg" xmlns:xlink="http://www.w3.org/1999/xlink" version="1.1" viewBox="0 -200 1000 1000">
  <g transform="matrix(1 0 0 -1 0 800)">
   <path fill="currentColor"
d="M537 621l-29 -19q-13 -79 -46 -142q-33 -61 -69 -90l111 55v-12l-99 -83l-26 -12l-36 45q18 0 38 23q18 20 35 63q14 33 24 75l-35 -24l-26 -13l-36 46q7 0 20 6q12 4 16 13q20 39 36 118q17 80 24 188q22 -4 43 -15q22 -11 29 -21l-27 -19q-12 -96 -37 -162
q-26 -69 -54 -103l53 9q11 46 19 110q22 -4 43 -15q20 -11 29 -21zM612 658q-28 -61 -59 -92l-4 3q19 37 36 112q17 74 24 177q23 -5 44 -15q20 -11 29 -21l-30 -19q-9 -54 -22 -95h143l34 45q26 -10 45 -29q23 -25 26 -29h-252q-4 -13 -14 -37zM343 751l-33 -31v-416
q-15 -15 -25 -20q-12 -6 -26 -6v47h-86v-21q-14 -14 -26 -20q-13 -6 -26 -6v510q20 0 40 -11q19 -11 39 -26h48l35 47q22 -9 35 -20q18 -15 25 -27zM259 337v402h-63l-23 -15v-387h86zM873 165q5 -13 5 -24q0 -35 -69 -35h-146q-17 0 -33 8q-15 8 -26 23t-17 33q-7 18 -7 41
q0 26 5 61q4 31 30 72l122 194h-93l-19 -12l-14 24h115l35 47q18 -12 35 -35q18 -25 25 -48l-33 -19l-122 -177q-11 -16 -20 -34q-7 -15 -10 -28t-3 -24q-1 -7 -1 -21q0 -24 9 -41t22 -17h113q12 0 20 4q8 3 15 16q6 12 12 36q7 33 10 64l5 7q2 -30 9 -51q7 -23 13 -36z
M362 194l149 74v-14l-132 -125l-4 4q-4 1 -9 10q-6 8 -12 21q-7 16 -11 34z" />
  </g>

</svg>
