<?xml version="1.0" standalone="no"?>
<!DOCTYPE svg PUBLIC "-//W3C//DTD SVG 1.1//EN" "http://www.w3.org/Graphics/SVG/1.1/DTD/svg11.dtd" >
<svg xmlns="http://www.w3.org/2000/svg" xmlns:xlink="http://www.w3.org/1999/xlink" version="1.1" viewBox="0 -36 256 256">
  <g transform="matrix(1 0 0 -1 0 220)">
   <path fill="currentColor"
d="M26 74q13 -29 12.5 -37t-6 -12.5t-9.5 -3t-0.5 12t0.5 39.5zM54 80q21 -26 21.5 -34.5t-7 -15.5t-8.5 5.5t-9 42.5zM79 89q28 -19 30.5 -27.5t-4 -17.5t-10 4.5t-19.5 38.5zM59.5 210q-13.5 -20 -28.5 -41l40 2q7 11 11 25l16 -17q-4 0 -25 -27t-42 -47l55 5
q-5 14 -13 27l3 2q30 -22 30 -32.5t-5.5 -16.5t-7 0.5t-5.5 14.5q-30 -5 -43.5 -10t-19.5 -10l-11 21q5 0 21 16t33 43q-16 -4 -25.5 -6.5t-19.5 -8.5l-9 19q8 2 22 25t22 51l20 -14q-5 -1 -18.5 -21zM129 154h37q-1 41 -2 62l-35 -5v-57zM163 94l3 -4q-37 -40 -40 -54
l-15 15q6 6 5 19q0 134 -1 157l14 -7q17 1 45 8t38 15l16 -17q-15 -1 -51 -7q0 -29 2 -65h32l12 13l17 -20h-60q5 -38 16 -57t22 -27l10 37l4 -1q-5 -46 1 -66q-30 17 -45.5 43.5t-20.5 70.5h-38v-81zM186 25l12 12l16 -20h-71q-11 1 -20 -3l-8 11h71z" />
  </g>

</svg>
