<?xml version="1.0" standalone="no"?>
<!DOCTYPE svg PUBLIC "-//W3C//DTD SVG 1.1//EN" "http://www.w3.org/Graphics/SVG/1.1/DTD/svg11.dtd" >
<svg xmlns="http://www.w3.org/2000/svg" xmlns:xlink="http://www.w3.org/1999/xlink" version="1.1" viewBox="0 -205 1024 1024">
  <g transform="matrix(1 0 0 -1 0 819)">
   <path fill="currentColor"
d="M190 952l56 -46h124l32 42l54 -44q9 -6 10 -14q0 -5 -32 -28v-288h134v380l58 -48h134l38 46l54 -48q9 -3 10 -12q0 -6 -36 -30v-288h56l38 52l62 -58q3 -3 4 -8q-1 -13 -16 -14h-144v-388q1 -21 -10 -43q-12 -22 -74 -50q-7 35 -32 52q-22 15 -106 39l4 16
q94 -16 116 -20q21 -3 36 0t16 24v370h-158v-86q-5 -199 -76 -292q-69 -91 -132 -125l-10 12q72 61 114 145q42 83 54 236v110h-134v-354q0 -36 -18 -63q-19 -27 -56 -36q-3 28 -30 46q-25 17 -88 37l4 16q90 -20 108 -22q15 -1 24 4q7 5 6 26v346h-142v-118
q-6 -231 -192 -369l-10 12q141 146 150 357v118h-60q-21 0 -68 -6l-16 34h144v378v0v0zM242 574h142v304h-142v-304v0v0zM618 574h158v302h-158v-302v0v0z" />
  </g>

</svg>
