<?xml version="1.0" standalone="no"?>
<!DOCTYPE svg PUBLIC "-//W3C//DTD SVG 1.1//EN" "http://www.w3.org/Graphics/SVG/1.1/DTD/svg11.dtd" >
<svg xmlns="http://www.w3.org/2000/svg" xmlns:xlink="http://www.w3.org/1999/xlink" version="1.1" viewBox="0 -154 1024 1024">
  <g transform="matrix(1 0 0 -1 0 870)">
   <path fill="currentColor"
d="M845 741l49 -42q14 -10 0 -12q-22 3 -35 -5q-25 -27 -110 -80q50 -17 87 -36q142 -80 99 -111q-16 -18 -46 16q-30 35 -91 74q-58 34 -138 60q-37 -63 -94 -103t-172 -74l-6 11q153 67 208 137q55 71 51 190q-4 21 -22 37l9 10l75 -28q17 -7 8 -13q-17 -6 -30 -19
q-2 -69 -21 -130q31 -7 62 -16q101 82 109 111q2 11 -3 21zM529 735q9 -67 -9 -109q-28 -54 -63 -30q-13 15 9 31q23 17 33 38q9 19 18 70h12zM108 930l50 -40h149l30 41l48 -43q18 -12 0 -19l-20 -13v-706q13 -115 -68 -124q-4 44 -102 65l2 16q86 -23 106 -21t20 50v265
h-156q-2 -130 -29 -225t-104 -168l-8 8q72 108 88 226q14 119 12 331v296q-6 24 -27 51zM168 647h155v223h-155v-223zM168 629v-102q-3 -62 0 -108h155v210h-155zM472 896q2 -28 0 -58h419l41 41l53 -62q4 -11 -10 -7q-28 1 -48 -26q-11 -12 -43 -56l-13 6l32 84h-431
q-2 -33 -11 -55q-28 -55 -59 -29q-10 16 6 36q17 19 29 42q12 22 20 84h15zM585 981l6 11q91 -29 124 -75q27 -55 -14 -64q-18 2 -23 26q-4 25 -25 50q-19 24 -68 52zM988 82v-14q-64 0 -85 -29q-79 29 -145 77q-38 29 -74 68q-28 -27 -62 -52q-87 -66 -208 -112l-6 13
q129 69 203 135l47 45l-23 31q-55 74 -92 190h-5q-27 0 -37 -14l-30 32h319l30 33l57 -45q11 -10 -1 -13q-26 -2 -44 -42q-20 -40 -71 -114q-21 -31 -49 -60q40 -36 83 -65q103 -64 193 -64zM619 329q28 -49 65 -89q26 30 48 61q46 66 70 133h-234q21 -54 51 -105z" />
  </g>

</svg>
