<?xml version="1.0" standalone="no"?>
<!DOCTYPE svg PUBLIC "-//W3C//DTD SVG 1.1//EN" "http://www.w3.org/Graphics/SVG/1.1/DTD/svg11.dtd" >
<svg xmlns="http://www.w3.org/2000/svg" xmlns:xlink="http://www.w3.org/1999/xlink" version="1.1" viewBox="0 -205 1024 1024">
  <g transform="matrix(1 0 0 -1 0 819)">
   <path fill="currentColor"
d="M346 726l56 -34h104q28 72 56 174h-176q-21 0 -62 -8l-22 34h550l40 48l62 -56q3 -3 4 -8q0 -10 -12 -10h-320l-96 -174h322l26 38l62 -46q6 -4 6 -8q0 -6 -30 -26v-496l4 -85q0 -15 -18 -24q-15 -9 -38 -12v82h-468v-62q0 -12 -18 -24t-36 -12l4 122v587v0v0zM396 140
h116v526h-116v-526v0v0zM560 140h142v174h-142v-174v0v0zM750 140h114v526h-114v-526v0v0zM560 340h142v146h-142v-146v0v0zM560 512h142v154h-142v-154v0v0zM320 942q12 -8 -2 -16q-27 -2 -42 -34q-40 -84 -100 -200l54 -22q12 -6 -2 -18l-18 -8v-490l4 -93q0 -17 -24 -32
q-21 -13 -36 -12l4 131v504q-75 -123 -134 -180l-12 8q56 81 134 252q75 171 100 250l74 -40v0v0z" />
  </g>

</svg>
