<?xml version="1.0" standalone="no"?>
<!DOCTYPE svg PUBLIC "-//W3C//DTD SVG 1.1//EN" "http://www.w3.org/Graphics/SVG/1.1/DTD/svg11.dtd" >
<svg xmlns="http://www.w3.org/2000/svg" xmlns:xlink="http://www.w3.org/1999/xlink" version="1.1" viewBox="0 -36 256 256">
  <g transform="matrix(1 0 0 -1 0 220)">
   <path fill="currentColor"
d="M18 207l-1 4q19 5 40 13t31 17l13 -18q-8 0 -31 -6v-47h13l11 12l15 -19h-39v-23q21 -8 25.5 -16t0 -17.5t-9.5 4t-16 24.5q0 -95 1 -120l-15 -8q1 50 1 124q-18 -38 -46 -68l-2 3q33 52 46 97h-15q-10 0 -19 -2l-9 9h45v43q-10 -2 -39 -6zM132 114l9 -4h55
q-12 18 -18 33h-26q-11 -18 -20 -29zM141 72h51v31h-51v-31zM141 34h51v31h-51v-31zM161 248l20 -10q-6 -4 -10 -26h36l11 12l14 -19h-62q-2 -8 -6 -23h34l12 10l15 -17h-62q-4 -13 -9 -25h64l11 10l15 -17h-60q7 -15 23 -28.5t38 -17.5v-4q-10 -1 -17 -12q-14 9 -23 19v-49
q0 -15 1 -33l-14 -8v17h-51v-15l-14 -6q1 22 1 37v67q-19 -20 -39 -34l-3 3q33 29 52 64h-14q-10 -1 -19 -3l-9 10h44q7 14 9 25h-7q-10 -1 -19 -3l-9 10h37q4 15 5 23h-23q-10 0 -19 -2l-9 9h52q4 24 4 36z" />
  </g>

</svg>
