<?xml version="1.0" standalone="no"?>
<!DOCTYPE svg PUBLIC "-//W3C//DTD SVG 1.1//EN" "http://www.w3.org/Graphics/SVG/1.1/DTD/svg11.dtd" >
<svg xmlns="http://www.w3.org/2000/svg" xmlns:xlink="http://www.w3.org/1999/xlink" version="1.1" viewBox="0 -200 1000 1000">
  <g transform="matrix(1 0 0 -1 0 800)">
   <path fill="currentColor"
d="M483 819h144v70h-144v-70zM811 889h-127q11 -6 6 -11q-6 -6 -25 -8v-51h146v70zM483 731l144 1v62h-144v-63zM811 794h-146v-62l146 -1v63zM665 522l91 22l-41 43l7 6q57 -19 86 -51q26 -31 23 -56q-2 -24 -14 -26q-13 -1 -23 21l-11 22q-8 14 -16 26q-202 -63 -248 -77
q0 -27 -7 -29q-8 -3 -23 23l-23 39q127 21 161 27v107h-192v-211v-12q2 -17 -2 -23q-6 -11 -27 -14q-15 -3 -18 2q-2 4 0 19l1 7v225l-5 60l49 -28h194v63l-144 -1l1 -7q1 -13 -1 -18q-4 -7 -18 -11q-19 -6 -25 1q-3 5 -1 21l1 10v191l-4 50l52 -29h309l33 28l39 -28
q27 -21 15 -30q-8 -5 -28 -5v-155v-9q1 -12 -2 -17q-4 -7 -21 -13q-16 -3 -21 4q-3 3 -2 18l1 -1l-146 1v-63h180l31 28l36 -28q20 -16 18 -23q-3 -9 -32 -9v-167q0 -39 -18 -59q-20 -25 -70 -33q-5 28 -22 40q-15 10 -69 24l-1 9l112 -8q12 1 18 6q7 6 7 20v175h-190v-97z
M801 329q67 -60 94 -104q29 -46 19 -86q-10 -23 -23 -20q-12 3 -17 30q-7 28 -24 68q-26 61 -61 104zM503 341l-3 34l54 -15q30 -8 29 -15q-2 -7 -33 -12v-207q0 -15 7 -22q9 -7 32 -9q18 0 53 1q34 1 59 3t37 35q10 28 27 124l12 -1l-4 -151q34 -17 29 -28t-55 -19
q-57 -4 -101 -5q-42 -1 -70 1q-45 4 -60 18q-12 12 -12 41v214zM435 307q2 -83 -19 -148q-18 -55 -46 -82q-12 -13 -23 -3q-13 10 -8 44q0 4 4 10q3 4 10 12q26 30 39 56q23 47 29 111h14zM617 387q62 -41 87 -68q22 -23 26 -47q-4 -29 -18 -34q-14 -4 -23 20t-27 52
q-22 35 -52 67zM260 953q32 -8 28 -18q-3 -9 -32 -14l3 -250v2q33 44 48 68q25 39 47 80l41 -37q19 -17 5 -22q-11 -4 -31 0q-29 -34 -47 -53q-26 -27 -61 -58q0 -85 -7 -162q-6 -77 -18 -135q49 -21 75 -43q31 -27 47 -70q7 -42 -12 -51q-19 -8 -34 30q-14 37 -29 63
q-22 37 -52 61q-18 -75 -58 -143q-41 -71 -101 -123l-5 8q76 83 114 213q37 130 37 307q0 71 -5 178q-4 70 -10 184zM121 772q14 -43 20 -116q5 -67 -2 -117q-4 -30 -15 -46q-11 -14 -22 -11q-12 3 -17 23q-6 22 0 54q1 8 4 18q2 5 5 18q14 37 19 64q7 47 0 108z" />
  </g>

</svg>
