<?xml version="1.0" standalone="no"?>
<!DOCTYPE svg PUBLIC "-//W3C//DTD SVG 1.1//EN" "http://www.w3.org/Graphics/SVG/1.1/DTD/svg11.dtd" >
<svg xmlns="http://www.w3.org/2000/svg" xmlns:xlink="http://www.w3.org/1999/xlink" version="1.1" viewBox="0 -205 1024 1024">
  <g transform="matrix(1 0 0 -1 0 819)">
   <path fill="currentColor"
d="M560 988l74 -28l6 -4q6 -3 6 -8q0 -4 -36 -22v-62h102v120l70 -28q9 -1 12 -10q0 -1 -6 -8l-28 -12v-60v-2h96l28 34l52 -40q3 -7 4 -10q0 -6 -26 -24v-178l4 -36q0 -15 -18 -24q-18 -6 -36 -6v24h-398q-8 -12 -22 -18q-15 -4 -32 -4l4 90v224l54 -32h90v124v0v0z
M468 630h92v90h-92v-90v0v0zM610 720v-90h102v90h-102v0v0zM760 720v-90h104v90h-104v0v0zM468 746h92v90h-92v-90v0v0zM610 836v-90h102v90h-102v0v0zM760 836v-90h104v90h-104v0v0zM478 436h344l38 40q50 -46 50 -52q9 -13 -8 -14h-340q-22 0 -70 -8l-14 34v0v0zM924 572
l50 -46q2 -5 2 -10q0 -7 -2 -8h-530v-124l2 -42h460l30 42l50 -46q15 -13 -2 -22h-312q35 -63 80 -102q59 40 116 86q61 -31 60 -38t-10 -8q-9 1 -30 -4q-18 -3 -122 -50q38 -37 68 -52q29 -12 68 -25q39 -11 94 -14v-20q-34 0 -56 -10q-21 -9 -36 -30q-74 44 -106 70
q-30 26 -74 71q-42 45 -78 126h-76v-203l128 71l10 -16q-106 -70 -128 -95q-21 -24 -38 -46l-52 44q13 10 32 28v217h-78q-14 -136 -52 -195q-39 -59 -90 -110l-12 14q65 85 88 165q21 82 18 206v178l54 -38h442l32 36v0v0zM346 902q-18 -1 -102 -20v-188h56l34 44l54 -56
l4 -4q0 -10 -14 -10h-134v-124q48 -19 78 -38q27 -17 42 -40q15 -24 6 -44q-7 -19 -26 -20q-18 -1 -24 22q-6 22 -24 50q-16 26 -52 46v-376l4 -89q0 -12 -18 -28q-18 -13 -36 -14l4 135v362q-36 -81 -72 -140q-33 -60 -92 -132l-14 10q51 84 82 148q29 63 50 114
q20 47 46 158h-104q-21 0 -44 -8l-16 34h164v174q-78 -13 -144 -26l-4 18q195 54 300 108q41 -52 44 -58q1 -6 -4 -8t-16 0q-10 3 -28 0v0v0z" />
  </g>

</svg>
