<?xml version="1.0" standalone="no"?>
<!DOCTYPE svg PUBLIC "-//W3C//DTD SVG 1.1//EN" "http://www.w3.org/Graphics/SVG/1.1/DTD/svg11.dtd" >
<svg xmlns="http://www.w3.org/2000/svg" xmlns:xlink="http://www.w3.org/1999/xlink" version="1.1" viewBox="0 -205 1024 1024">
  <g transform="matrix(1 0 0 -1 0 819)">
   <path fill="currentColor"
d="M254 720l40 -16h220l26 16l36 -26q8 -6 8 -14q0 -6 -18 -14v-108l2 -40q-1 -15 -20 -26q-16 -10 -34 -14l2 54v12h-214v-46q0 -12 -18 -24q-17 -10 -34 -10l4 70v186v0v0zM302 568h214v46h-214v-46v0v0zM302 638h214v44h-214v-44v0v0zM278 904l50 -26h160l20 26l48 -30
q6 -4 6 -8q-1 -6 -22 -20v-58l4 -38q0 -10 -14 -20q-12 -9 -38 -14v18h-166q-3 -9 -18 -14q-13 -4 -34 -4l4 56v132v0v0zM326 756h166v38h-166v-38v0v0zM326 816h166v40h-166v-40v0v0zM860 950l36 42l60 -54l2 -6q0 -10 -8 -10h-762v-206q3 -312 -20 -452
q-21 -140 -122 -257l-14 12q76 119 92 259q16 137 14 452v262l54 -42h668v0v0zM808 878l4 10q45 -12 64 -24q18 -13 22 -28t-4 -26q-6 -10 -20 -10q-15 -1 -18 14q-3 13 -12 26q-6 11 -36 38v0v0zM736 330l18 14l40 -24q11 -7 2 -16l-12 -10v-94q1 -12 -10 -20
q-25 -15 -40 -14v12h-338v-95l172 34l4 -18q-111 -30 -150 -46q-37 -14 -62 -44l-46 58l34 14v235q-99 -37 -156 -50l-4 14q90 36 154 66q65 32 116 64q50 32 106 80l58 -20q6 -7 -2 -10q-7 -4 -16 -8q58 -31 110 -50q53 -19 110 -34q57 -14 168 -16v-18q-25 1 -46 -10
q-21 -9 -32 -30q-84 18 -126 40q-42 18 -92 42q-51 23 -114 64q-39 -26 -90 -58t-104 -52h348v0v0zM396 306v-40h338v40h-338v0v0zM396 242v-38h338v38h-338v0v0zM880 158q12 -7 -2 -16q-22 12 -88 -7l-58 -18q75 -17 108 -32q30 -11 40 -26q8 -12 8 -24q-1 -13 -10 -20
q-9 -6 -26 2q-17 6 -34 18q-18 12 -66 32q-48 21 -90 36q-40 14 -148 37l4 16q127 -15 182 -29q78 29 136 67l44 -36v0v0zM534 400l6 6q30 -10 46 -16q14 -5 22 -16q6 -10 4 -20q-3 -10 -12 -16q-9 -4 -18 -2q-10 3 -14 12q-3 11 -8 22q-3 9 -26 30v0v0zM752 848v-90h124
l36 38l44 -46q12 -16 -8 -16h-198q-1 -22 -8 -52q30 -10 84 -40q54 -27 78 -54q22 -26 20 -52q-3 -27 -24 -30q-19 -3 -32 30q-12 30 -54 70q-42 39 -80 54q-15 -39 -48 -84q-31 -43 -88 -76l-10 12q45 36 78 100q32 62 38 122h-68q-21 0 -44 -8l-16 32h130v142l66 -24
q10 -3 2 -12l-22 -16v0v0z" />
  </g>

</svg>
