<?xml version="1.0" standalone="no"?>
<!DOCTYPE svg PUBLIC "-//W3C//DTD SVG 1.1//EN" "http://www.w3.org/Graphics/SVG/1.1/DTD/svg11.dtd" >
<svg xmlns="http://www.w3.org/2000/svg" xmlns:xlink="http://www.w3.org/1999/xlink" version="1.1" viewBox="0 -36 256 256">
  <g transform="matrix(1 0 0 -1 0 220)">
   <path fill="currentColor"
d="M86 80q0 -24 1 -37l-14 -6v14h-40v-16l-14 -6q1 20 1 29v138q0 18 -1 35l14 -7h40l7 8l13 -12l-7 -8v-132zM33 169h40v48h-40v-48zM33 115h40v47h-40v-47zM33 58h40v50h-40v-50zM173 171h-13v40h-28q-11 -2 -20 -4l-9 11h57q0 15 -1 29l21 -10l-7 -8v-11h33l11 11l15 -18
h-59v-40zM207 149l-13 -6v25h-55v-20l-13 -5q1 15 1 25h-1q-13 1 -24 -3l-10 10h35q0 16 -1 32l21 -11l-8 -6v-15h55q0 13 -1 31l20 -11l-7 -6v-14h16l11 11l13 -18h-40q0 -7 1 -19zM144 138l-9 -3q-25 -23 -44 -31l-1 4q30 25 37 42zM192 147q30 -9 40 -17t5.5 -16.5
t-12.5 2.5t-35 27zM88 67v4q34 19 51.5 38t22.5 35l15 -12l-7 -5q42 -42 78 -41l-1 -6q-15 -1 -19 -10q-37 19 -61 54q-13 -19 -34 -33.5t-45 -23.5zM231 58h-57v-22q0 -11 1 -22l-16 -7q2 14 2 26v25h-29q-11 -2 -20 -4l-9 11h58v18q0 4 -2 16l21 -9l-6 -5v-20h30l12 9z
" />
  </g>

</svg>
