<?xml version="1.0" standalone="no"?>
<!DOCTYPE svg PUBLIC "-//W3C//DTD SVG 1.1//EN" "http://www.w3.org/Graphics/SVG/1.1/DTD/svg11.dtd" >
<svg xmlns="http://www.w3.org/2000/svg" xmlns:xlink="http://www.w3.org/1999/xlink" version="1.1" viewBox="0 -205 1024 1024">
  <g transform="matrix(1 0 0 -1 0 819)">
   <path fill="currentColor"
d="M390 976q15 -10 0 -16l-18 -6l-6 -10l-4 -8h312l28 30l56 -40q6 -4 6 -10q0 -7 -32 -16l-36 -134h178l38 46q62 -54 68 -60q0 -12 -12 -12h-466q-22 -12 -40 -24q65 -51 98 -98q111 51 198 100l50 -42q9 -9 -6 -12q-19 0 -46 -6q-25 -5 -116 -34q63 -46 136 -76
q69 -29 156 -40l68 -4v-16q-40 -3 -58 -14q-18 -9 -26 -32q-79 26 -122 50q-42 22 -86 50q-43 28 -92 74l-48 -16q24 -48 16 -92q-7 -43 -32 -64q-24 -21 -60 -38q-6 30 -32 42q-27 12 -66 22l4 18q45 -7 72 -10q28 -1 44 8q15 8 22 26q6 16 -2 62q-118 -58 -232 -100
q-114 -41 -254 -82l-6 18q126 48 228 88q100 39 248 114l-22 32q-85 -39 -188 -78q-102 -39 -228 -72l-2 16q116 41 206 80q90 38 186 86l-28 32q-118 -51 -196 -78q-78 -25 -182 -52l-2 18q102 33 178 64q75 29 178 80h-302q-21 1 -44 -6l-16 32h592l12 52h-332l-20 -18
l-48 48l34 16l40 134l56 -22v0v0zM666 844l14 66h-324q-12 -39 -24 -66h334v0v0zM218 318h254v78l76 -26q3 -3 4 -6q0 -3 -6 -6l-24 -14v-26h244l24 36l62 -44q6 -4 6 -8q0 -3 -32 -24v-66l4 -32q0 -13 -14 -22q-13 -8 -38 -6v12h-256v-75l238 4q-34 15 -82 32l4 16
q57 -6 112 -22q54 -12 78 -28q23 -14 28 -32q3 -13 -6 -26q-9 -12 -24 -10q-14 1 -28 16q-12 13 -48 34q-612 -29 -642 -38q-28 -6 -52 -18l-36 60l408 10v77h-256v-4q0 -10 -18 -19q-18 -8 -36 -8l4 91v120l52 -26v0v0zM216 190h256v102h-256v-102v0v0zM522 292v-102h256
v102h-256v0v0z" />
  </g>

</svg>
