<?xml version="1.0" standalone="no"?>
<!DOCTYPE svg PUBLIC "-//W3C//DTD SVG 1.1//EN" "http://www.w3.org/Graphics/SVG/1.1/DTD/svg11.dtd" >
<svg xmlns="http://www.w3.org/2000/svg" xmlns:xlink="http://www.w3.org/1999/xlink" version="1.1" viewBox="0 -205 1024 1024">
  <g transform="matrix(1 0 0 -1 0 819)">
   <path fill="currentColor"
d="M858 710l44 58q45 -51 58 -62q12 -9 12 -18q3 -6 -8 -6h-248v-124h112l32 54l70 -46l4 -8q0 -7 -32 -34v-366l4 -65q3 -15 -14 -28q-16 -11 -40 -16v74h-510v-42q3 -17 -18 -32q-18 -13 -38 -14l4 135v418l54 -30h134v124h-154q-15 0 -80 -6l-14 34h628v0v0zM342 148h510
v100h-510v-100v0v0zM342 274h510v256h-134v-92q-1 -28 14 -32q12 -3 30 -2q17 1 52 8l24 -40q-37 -9 -64 -8q-28 -1 -52 2q-21 1 -36 14q-15 12 -18 48v102h-140l-6 -42q-14 -58 -58 -104q-43 -45 -100 -74l-8 12q47 39 80 82q32 42 40 100l2 28h-136v-258v0v0zM668 558v124
h-140v-124h140v0v0zM862 846l42 56l68 -66l2 -10q0 -9 -8 -8h-768v-164q-1 -250 -28 -380q-24 -128 -132 -237l-12 12q78 104 100 227q24 123 22 354v266l62 -50h652v0v0zM470 970l8 14q59 -20 86 -34q24 -14 36 -34q10 -21 2 -38q-7 -18 -26 -20q-18 -1 -24 16t-18 38
q-13 21 -64 58v0v0z" />
  </g>

</svg>
