<?xml version="1.0" standalone="no"?>
<!DOCTYPE svg PUBLIC "-//W3C//DTD SVG 1.1//EN" "http://www.w3.org/Graphics/SVG/1.1/DTD/svg11.dtd" >
<svg xmlns="http://www.w3.org/2000/svg" xmlns:xlink="http://www.w3.org/1999/xlink" version="1.1" viewBox="0 -144 1024 1024">
  <g transform="matrix(1 0 0 -1 0 880)">
   <path fill="currentColor"
d="M135 352l-4 -48l-6 -44l-8 -42l-9 -38l-12 -34l-13 -31l-16 -28l-17 -23l-20 -19l-8 6l10 24l10 25l8 27l7 30l6 33l5 36l4 40l1 42l1 46l-1 49v231l65 -32h234l32 27l59 -49l-27 -21v-199l-64 -32v64h-235zM473 118h225v215h-189v21h325l54 54l64 -54v-21h-190v-215h98
l54 54l65 -54v-22h-506v22zM138 580v-166h84v166h-84zM287 580v-166h85v166h-85zM580 493l-15 37l-19 37l-10 19l-23 38l-12 17l-1 1l9 22l8 22l61 147h-1l5 11l55 -36l9 -17l-21 -1l-45 -64l-27 -35l-39 -47l30 -23l17 -16l30 -33l14 -18l26 -37l11 -19l10 -20v-24l-18 -17
h-24l-17 17l-6 20zM731 493l-16 37l-19 37l-32 57l-12 17l-1 1v1v1l58 141l7 18l8 17l6 18l3 6l55 -36l9 -17l-22 -1l-44 -64l-41 -53l-25 -29l30 -23l32 -32l30 -35l25 -37l11 -19l10 -20l-1 -24l-17 -17h-25l-17 17l-6 20zM903 462l-24 55l-20 36l-35 54l-13 18l-12 16
l-2 1l28 66l35 77l19 48l5 11l54 -36l10 -17l-21 -1l-47 -65l-27 -35l-15 -17l-26 -28l31 -21l34 -29l31 -33l28 -34l24 -37l2 -25l-16 -18l-24 -2zM71 715h151v118h-176v21h176v135l65 -11l16 -11l-16 -9v-104h78l54 54l64 -54v-21h-196v-118h64l44 48l53 -48v-22h-377v22z
M974 919v-22h-487v22h369l54 54z" />
  </g>

</svg>
