<?xml version="1.0" standalone="no"?>
<!DOCTYPE svg PUBLIC "-//W3C//DTD SVG 1.1//EN" "http://www.w3.org/Graphics/SVG/1.1/DTD/svg11.dtd" >
<svg xmlns="http://www.w3.org/2000/svg" xmlns:xlink="http://www.w3.org/1999/xlink" version="1.1" viewBox="0 -36 256 256">
  <g transform="matrix(1 0 0 -1 0 220)">
   <path fill="currentColor"
d="M64 210h42l12 13l20 -20h-60q17 -7 23.5 -11.5t7 -7.5t-4 -10.5t-8.5 -0.5t-10 14.5t-15 15.5h-9q-10 -19 -40 -40l-2 3q16 16 27 37.5t15 44.5l21 -11q-8 -5 -19 -27zM162 209h45l13 13l20 -20h-64q21 -7 27.5 -13t6 -12t-5 -9.5t-10 7t-26.5 27.5h-8q-16 -22 -34 -33
l-2 2q18 21 28 41t11 34l19 -10q-6 -5 -20 -27zM79 16l-15 -6q1 24 1 95q-19 -40 -53 -68l-2 3q21 26 33 50t16 38h-18q-9 0 -18 -3l-10 10h52q0 29 -1 39l23 -9l-9 -8v-22h17l11 11l15 -18h-43v-11q17 -6 22.5 -11t4 -12t-5 -10.5t-7.5 8t-14 20.5q0 -78 1 -96zM158 140
l-8 -4q-18 -39 -50 -64l-2 3q16 17 26.5 37.5t13.5 38.5zM162 157l-9 -3l-11 10h31l5 7l13 -10l-7 -4q3 -17 19.5 -39.5t44.5 -29.5v-4q-19 -2 -22 -10q-15 9 -28.5 29t-20.5 54h-15zM176 100l-9 -4q-15 -31 -44 -62l80 4q-12 17 -23 28l2 3q13 -8 25.5 -17t17 -15.5
t3.5 -11.5t-4 -10t-7 2.5t-11 14.5q-52 -5 -65 -8t-22 -9l-12 18q11 5 20.5 18.5t17 29.5t10.5 32z" />
  </g>

</svg>
