<?xml version="1.0" standalone="no"?>
<!DOCTYPE svg PUBLIC "-//W3C//DTD SVG 1.1//EN" "http://www.w3.org/Graphics/SVG/1.1/DTD/svg11.dtd" >
<svg xmlns="http://www.w3.org/2000/svg" xmlns:xlink="http://www.w3.org/1999/xlink" version="1.1" viewBox="0 -36 256 256">
  <g transform="matrix(1 0 0 -1 0 220)">
   <path fill="currentColor"
d="M44 221v-7h81q0 11 -17 27l2 3q21 -7 28 -13t-4 -17h75l8 12l20 -17q-17 -5 -30 -30l-4 1l9 27h-168q3 -28 -14.5 -28t-5.5 10.5t16 31.5h4zM165 107q16 12 24 23h-49q14 -16 25 -23zM85 163q11 8 16 17h-29q-10 0 -20 -2l-9 9h58l7 7l15 -11l-9 -4q-8 -11 -18 -19
q9 -1 17 -5.5t5.5 -11.5t-10.5 0t-19 10q-29 -14 -69 -18l-1 3q40 8 59 19q-8 5 -36 11l2 3q30 -4 41 -8zM219 72q-34 7 -54 23q-28 -15 -59 -19l-1 3q28 8 52 22q-11 12 -23 28l-6 -4l-5 12h68l8 7l13 -13q-8 -4 -15.5 -11.5t-22.5 -18.5q12 -8 28 -11.5t34 -2.5v-4
q-12 -2 -17 -11zM169 167q9 9 15 16h-28q-10 0 -20 -2l-9 9h57l7 7l13 -11l-7 -5q-6 -7 -17 -17q17 -4 26 -9t7 -11.5t-13 1t-26 12.5q-21 -14 -51 -19v3q25 8 39 20q-10 4 -34 8v4q10 -1 41 -6zM41 115l1 3q20 -2 40 -8q11 11 15 17h-30q-11 -1 -20 -3l-9 10h60l7 6l15 -11
l-10 -5q-9 -10 -16 -18q12 -4 18 -7t3.5 -11t-9.5 -2.5t-20 13.5q-26 -19 -65 -26l-1 3q32 10 56 27q-18 8 -35 12zM119 77l25 -8l-9 -7v-6h46l15 13l18 -20h-79v-23h76l15 13l17 -20h-200q-11 0 -20 -2l-9 9h106v23h-48q-10 0 -20 -2l-9 9h77q0 13 -1 21z" />
  </g>

</svg>
