<?xml version="1.0" standalone="no"?>
<!DOCTYPE svg PUBLIC "-//W3C//DTD SVG 1.1//EN" "http://www.w3.org/Graphics/SVG/1.1/DTD/svg11.dtd" >
<svg xmlns="http://www.w3.org/2000/svg" xmlns:xlink="http://www.w3.org/1999/xlink" version="1.1" viewBox="0 -205 1024 1024">
  <g transform="matrix(1 0 0 -1 0 819)">
   <path fill="currentColor"
d="M626 624q62 -17 68 -22t4 -10q0 -6 -18 -8q-16 -3 -44 -38q-27 -33 -72 -86l288 10q-21 41 -78 104l10 12q59 -45 80 -62q21 -19 40 -40t26 -42q7 -22 -4 -40q-8 -19 -28 -16q-18 0 -24 16q-3 15 -12 46q-153 -12 -222 -18q-66 -7 -114 -34l-34 70q24 2 48 10
q41 54 86 148v0v0zM466 662h388l30 36l54 -44q3 -4 4 -10q0 -7 -14 -8h-378q-18 0 -66 -8l-18 34v0v0zM480 284h186v124l74 -30q8 -3 8 -12q0 -3 -6 -6l-26 -16v-60h112l36 48l58 -58q6 -4 6 -10q-1 -7 -16 -8h-196v-173h168l40 46l54 -58q3 -3 4 -10q0 -6 -14 -6h-462
q-22 1 -70 -8l-18 36h248v173h-100q-18 0 -66 -8l-20 36v0v0zM902 818l34 32l40 -42q15 -13 16 -22q1 -4 -16 -8q-24 -4 -44 -22q-21 -18 -44 -44l-14 10l30 70h-390q2 -42 -10 -68t-36 -34q-22 -7 -34 4q-13 9 -10 22q2 13 20 26q15 12 30 36t18 90h20v-50h390v0v0z
M622 970l8 12q59 -30 86 -48q23 -19 32 -40q7 -21 -4 -38q-9 -19 -30 -16q-19 0 -22 22q-3 20 -14 44q-12 21 -56 64v0v0zM266 926q6 -6 4 -12q0 -4 -18 -8q-12 -6 -20 -20q-8 -13 -28 -52h100l26 32l56 -42q7 -7 2 -10q0 -5 -24 -16q-22 -10 -46 -46q-22 -36 -40 -74h82
l28 30l44 -44q13 -7 0 -20l-22 -10v-236l4 -68q0 -13 -18 -26q-16 -10 -34 -10v32h-220v-18q0 -12 -18 -26q-19 -12 -34 -12l4 106v266q-30 -37 -56 -64l-14 10q30 46 90 164q59 117 86 210l66 -36v0v0zM142 352h86v140h-86v-140v0v0zM276 352h86v140h-86v-140v0v0zM142 518
h86v134h-86v-134v0v0zM276 652v-134h86v134h-86v0v0zM140 678h110l52 130h-112q-33 -60 -62 -114l12 -16v0v0zM96 246h22q1 -70 0 -111q-3 -41 -20 -64q-15 -23 -36 -26q-19 -3 -28 6q-10 9 -8 24t20 26q15 10 30 38q13 25 20 107v0v0zM150 258l14 8q45 -69 54 -98
q9 -27 10 -45t-12 -34q-13 -13 -28 -6q-16 6 -14 30q0 22 -2 55q-4 33 -22 90v0v0zM240 266l12 10q50 -55 68 -86q15 -31 16 -50q1 -17 -10 -31q-12 -13 -30 -8q-16 4 -16 34q0 28 -8 55q-9 26 -32 76v0v0zM328 278l12 10q65 -51 82 -78q17 -25 20 -44q0 -20 -8 -31
q-10 -13 -28 -12q-19 0 -22 25q-2 27 -10 54q-8 26 -46 76v0v0z" />
  </g>

</svg>
