<?xml version="1.0" standalone="no"?>
<!DOCTYPE svg PUBLIC "-//W3C//DTD SVG 1.1//EN" "http://www.w3.org/Graphics/SVG/1.1/DTD/svg11.dtd" >
<svg xmlns="http://www.w3.org/2000/svg" xmlns:xlink="http://www.w3.org/1999/xlink" version="1.1" viewBox="0 -36 256 256">
  <g transform="matrix(1 0 0 -1 0 220)">
   <path fill="currentColor"
d="M108 182l-10 2q-51 -28 -80 -35l-1 4q26 11 45 24t26 23zM211 179q18 -7 17 -20t-12.5 -3.5t-26 16.5t-44.5 17v5q48 -8 66 -15zM53 145h143l9 10l15 -14l-9 -5v-105q0 -17 -21 -24q-3 13 -27 17v4q17 -2 26 -2t9 9v103h-145v-124l-15 -7q1 19 1 36v75q0 17 -1 37z
M134 45q0 -14 1 -31l-15 -5q1 24 1 40q1 120 -1 134l22 -10l-8 -8v-120zM93 73h6l8 7l13 -14h-27v-11q0 -8 1 -18l-14 -5q1 11 1 20v14q-8 0 -17 -2l-9 9h26v28h-6q-6 1 -13 -2l-6 9h25v11q0 8 -1 18l21 -8l-8 -6v-15h6l8 6l13 -13h-27v-28zM172 73h5l8 7l13 -14h-26v-11
q0 -6 1 -16l-15 -5q1 5 1 18v14h-5q-5 0 -13 -2l-7 9h25v28h-5q-6 1 -12 -2l-7 9h24v11q0 8 -1 17l23 -8l-9 -6v-14h5l8 7l13 -14h-26v-28zM220 205h-182q0 -16 -8.5 -20.5t-14 0t5 11.5t12.5 28h5v-12h87q-1 9 -5.5 15.5t-13.5 14.5l2 3q23 -8 29.5 -15t-4.5 -18h85l9 9
l17 -16q-13 -2 -37 -20l-3 2z" />
  </g>

</svg>
