<?xml version="1.0" standalone="no"?>
<!DOCTYPE svg PUBLIC "-//W3C//DTD SVG 1.1//EN" "http://www.w3.org/Graphics/SVG/1.1/DTD/svg11.dtd" >
<svg xmlns="http://www.w3.org/2000/svg" xmlns:xlink="http://www.w3.org/1999/xlink" version="1.1" viewBox="0 -205 1024 1024">
  <g transform="matrix(1 0 0 -1 0 819)">
   <path fill="currentColor"
d="M872 916l38 48l64 -56q3 -4 4 -10q0 -7 -14 -8h-502q-21 1 -60 -10l-24 36h494v0v0zM468 818l58 -34h286l32 32q53 -39 56 -48q-1 -9 -28 -24v-130l6 -46q-3 -15 -18 -24q-15 -7 -38 -10v52h-304v-26q0 -9 -8 -18q-15 -13 -48 -16l6 106v186v0v0zM518 612h304v146h-304
v-146v0v0zM398 516l52 -36h430l32 38l58 -42q6 -3 6 -6q0 -7 -26 -26v-286l4 -89q1 -10 -16 -20q-15 -9 -38 -12v62h-452v-38q1 -12 -16 -24q-15 -13 -38 -14l4 133v360v0v0zM448 123h200v155h-200v-155v0v0zM700 123h200v155h-200v-155v0v0zM448 304h200v150h-200v-150v0v0
zM700 454v-150h200v150h-200v0v0zM198 974l90 -34q4 -5 2 -10q0 -5 -42 -22v-282q57 71 102 152q63 -45 60 -54q-4 -7 -10 -8q-6 0 -18 -2q-13 -1 -46 -32q-33 -30 -90 -84q1 -114 -10 -200q45 -33 82 -74q33 -41 46 -70q10 -30 8 -50q-3 -21 -14 -30q-9 -9 -26 -6t-22 40
q-3 35 -20 80q-17 42 -58 88q-18 -101 -60 -190q-42 -88 -126 -163l-10 10q59 74 92 151q33 78 48 148q17 72 22 252v390v0v0zM122 714q9 -93 4 -144q-5 -48 -28 -72q-21 -21 -42 -18q-18 3 -24 18q-4 16 14 32q18 15 34 46q15 30 24 138h18v0v0z" />
  </g>

</svg>
