<?xml version="1.0" standalone="no"?>
<!DOCTYPE svg PUBLIC "-//W3C//DTD SVG 1.1//EN" "http://www.w3.org/Graphics/SVG/1.1/DTD/svg11.dtd" >
<svg xmlns="http://www.w3.org/2000/svg" xmlns:xlink="http://www.w3.org/1999/xlink" version="1.1" viewBox="0 -36 256 256">
  <g transform="matrix(1 0 0 -1 0 220)">
   <path fill="currentColor"
d="M61 16l-15 -7q1 46 1 117q-11 -35 -36 -67l-2 3q27 49 36 115h-6q-10 0 -19 -2l-9 9h36q0 29 -1 63l23 -10l-9 -7v-46h9l9 12l15 -19h-33v-28q18 -10 25.5 -19t2.5 -21t-11 3t-17 31q0 -107 1 -127zM133 168h5l12 12l13 -19h-30v-47h11l11 14l14 -21h-36q-7 -66 -55 -98
l-1 3q37 39 42 95h-5q-10 0 -19 -2l-9 9h33v47h-5q-11 -1 -20 -3l-9 10h34v50q-13 -3 -37 -5v5q44 6 69 26l15 -16q-7 -2 -33 -7v-53zM185 175h39v49h-39v-49zM185 118h39v50h-39v-50zM216 11q-4 9 -9.5 12.5t-17.5 7.5v4q18 -1 26.5 -1.5t8.5 10.5v67h-39q-2 -35 -11.5 -58
t-34.5 -43l-3 4q18 18 24 34.5t9 37.5t3 69t-1 84l14 -8h38l7 10l15 -13l-7 -5v-182q-1 -22 -22 -30z" />
  </g>

</svg>
