<?xml version="1.0" standalone="no"?>
<!DOCTYPE svg PUBLIC "-//W3C//DTD SVG 1.1//EN" "http://www.w3.org/Graphics/SVG/1.1/DTD/svg11.dtd" >
<svg xmlns="http://www.w3.org/2000/svg" xmlns:xlink="http://www.w3.org/1999/xlink" version="1.1" viewBox="0 0 2048 2048">
  <g transform="matrix(1 0 0 -1 0 2048)">
   <path fill="currentColor"
d="M669 1611l121 -79l425 1q-3 21 -6 45q-3 23 -6 90t-2 99v31h-145v55h110l58 75l69 -45q23 -16 34 -29q11 -12 8 -28q-4 -20 -23 -27l-52 -26q-1 -39 0 -61q0 -23 4 -77t9 -76l5 -27l462 1l68 76l84 -54q22 -15 31 -25q9 -11 9 -24q-1 -15 -10 -24q-8 -10 -31 -21l-16 -8
l-19 -8l-2 -1234q-1 -32 -12 -57q-10 -24 -27 -41t-44 -33t-38 -18l-35 -8q-1 17 -4 36t-18 38q-15 20 -45 30q-30 11 -80 23l-53 12l5 44q54 -10 82 -13l65 -8q41 -7 60 -8q20 0 35 13t15 46v1210h-472q7 -42 18 -91q10 -48 39 -128q29 -79 73 -160q45 -81 94 -144
q49 -64 100 -114q52 -50 83 -70l41 -29l-12 -28q-18 0 -38 -1q-19 0 -32 -6q-12 -6 -33 -24l-16 -14l-70 82q-35 43 -81 116q-46 74 -82 150q-35 75 -60 143l-31 82l-61 -139q-31 -69 -82 -146t-122 -155q-72 -78 -114 -110l-72 -57l-26 30l88 94q42 45 87 106q45 60 93 146
q49 87 80 161q30 74 55 149l26 80l-9 77h-447v-1390q0 -15 -7 -25q-7 -9 -22 -10l-24 1l-17 -1q-13 1 -23 14q-10 14 -11 26q-1 13 0 32l3 76l6 85v64v1128q0 12 -6 70zM556 886l35 -22l-57 -130q-32 -72 -72 -154q-41 -82 -102 -188t-73 -130l-18 -36q10 -27 15 -50
q4 -22 -6 -32q-11 -11 -33 -4q-22 6 -55 43l-76 84q35 32 62 59q26 26 76 86q49 61 90 120q42 58 62 91q21 33 106 182zM157 1752q32 -19 81 -45l77 -43q29 -16 72 -46q43 -31 77 -69q35 -38 45 -75t2 -58q-7 -18 -25 -30q-18 -11 -40 -6q-21 3 -32 16q-12 13 -26 52
q-15 39 -39 72q-24 32 -59 68q-36 35 -62 57q-25 22 -73 57l-22 16z" />
  </g>

</svg>
