<?xml version="1.0" standalone="no"?>
<!DOCTYPE svg PUBLIC "-//W3C//DTD SVG 1.1//EN" "http://www.w3.org/Graphics/SVG/1.1/DTD/svg11.dtd" >
<svg xmlns="http://www.w3.org/2000/svg" xmlns:xlink="http://www.w3.org/1999/xlink" version="1.1" viewBox="0 -204 1024 1024">
  <g transform="matrix(1 0 0 -1 0 820)">
   <path fill="currentColor"
d="M197 970l55 -12q24 -5 33 -10t10 -16t-25 -17l-21 -6v-739l3 -63q1 -24 2.5 -40t1.5 -22q-2 -12 -7.5 -19t-22.5 -8q-15 -1 -20 4.5t-5 20.5v847q0 45 -1 57t-3 23zM363 515l12 -16q-80 -64 -140.5 -102.5t-127.5 -74.5l-2 -19q-2 -12 -5.5 -22.5t-13.5 -0.5t-18 23
l-36 55q54 18 142.5 57t188.5 100zM97 686q-19 -56 -57 -132l-18 8q4 14 16 52.5t18 63.5t13 56t9 47l4 34l4 28l1 28l49 -13q37 -9 38.5 -22.5t-18.5 -19.5l-23 -7q-14 -49 -27 -94h165l49 51l61 -54q5 -5 7 -7.5t0 -8.5q-3 -10 -13 -10h-278zM493 801q-26 0 -74 -6l-20 43
q55 -8 76 -8h172q-3 1 -5.5 4t-4 19.5t-9.5 41t-48 61.5l11 14q43 -26 65.5 -47t27 -48.5t-3.5 -37.5l-5 -7h163l47 47l55 -45q11 -10 12 -14.5t-2 -9.5q-4 -7 -14 -7h-144l54 -21q25 -10 25.5 -21t-16.5 -12l-28 -3q-14 -32 -38 -71.5t-50 -71.5h146l51 49l54 -49
q7 -7 8 -13t-2 -10q-4 -6 -13 -6h-101v-467q0 -20 -5 -35t-24.5 -29.5t-49.5 -20.5q-1 8 -1.5 15t-2.5 13.5t-12 16t-85 23.5v24q79 -14 98 -14q26 -1 30 9t4 19v446h-371q-37 0 -75 -5l-19 43q52 -9 94 -9h122q-7 7 -10 11.5t-5 15.5l-8 29q-4 14 -13 34.5t-15.5 31
t-22 32.5t-28.5 37zM505 801q7 -6 23 -19.5t44.5 -44.5t39 -55t13 -36t0.5 -24q-3 -13 -13 -21h98q19 35 26.5 52t16 39t17.5 49t17 60h-282zM440 503l65 -32h165l30 37l37 -25q7 -6 13 -12t7 -11t-4 -11q0 -1 -28 -17v-152q28 -22 32.5 -28t1 -14t-9.5 -8h-256v-5
q0 -4 -0.5 -6.5t-6 -10t-22.5 -5.5t-20 9t-2 16q1 12 1 16l1 20q2 21 2 24v133q0 11 -2 38t-2 30l-2 14v0zM493 257h184v185h-184v-185z" />
  </g>

</svg>
