<?xml version="1.0" standalone="no"?>
<!DOCTYPE svg PUBLIC "-//W3C//DTD SVG 1.1//EN" "http://www.w3.org/Graphics/SVG/1.1/DTD/svg11.dtd" >
<svg xmlns="http://www.w3.org/2000/svg" xmlns:xlink="http://www.w3.org/1999/xlink" version="1.1" viewBox="0 -36 256 256">
  <g transform="matrix(1 0 0 -1 0 220)">
   <path fill="currentColor"
d="M179 217q0 11 -1 30l20 -9l-7 -7v-22h24l11 11l12 -18h-47v-36h33l10 12l13 -19h-103q-10 0 -20 -2l-9 9h25v25q0 11 -1 29l19 -9l-6 -7v-38h27v51zM162 136q17 -9 19 -16t-1.5 -13.5t-6 2.5t-12.5 24q-9 -18 -21 -31l-2 2q6 11 11 24t7 29l14 -11q-5 -3 -8 -10zM231 95
v-7h-100v7h100zM227 100v39l17 -10l-5 -8v-69q0 -24 1 -37l-13 -6v12h-89l-6 -8l-11 12l4 5v72q0 15 -1 37l19 -10l-6 -8v-93h90v72zM205 137q12 -7 16 -13t0.5 -14.5t-6.5 0t-12 24.5q-8 -18 -18 -30l-3 2q6 9 10.5 22.5t5.5 29.5l14 -11q-3 -1 -7 -10zM205 66
q10 -6 15 -13t1.5 -15t-7.5 2t-11 21q-8 -18 -19 -30l-3 3q15 24 17 52l14 -10q-3 -1 -7 -10zM163 65q9 -5 14 -11t1.5 -15t-6.5 1t-11 21q-7 -16 -18 -30l-3 3q12 21 17 51l13 -9q-4 -5 -7 -11zM84 233l-7 -7v-26h16l9 10l14 -17h-39v-32h18l10 11l14 -18h-82q-12 0 -21 -3
l-7 10h22q0 48 -1 64l20 -9l-7 -6v-49h22q0 63 -1 80zM57 145q-5 -4 -8 -13q13 -7 14 -12t-2.5 -10.5t-5 1.5t-7.5 19q-4 -13 -17 -25l-1 1q9 21 13 45zM106 97v-7h-85v7h85zM16 137l18 -8l-6 -8v-90l71 8v101l18 -10l-6 -6v-80q0 -9 1 -22l-13 -4v16q-69 -11 -77 -23
l-10 17q4 5 4 12v97zM92 145q-5 -4 -9 -14q12 -10 12 -15.5t-4 -7.5t-5 4.5t-5 15.5q-5 -12 -16 -25l-2 2q12 23 15 46zM60 79q-5 -5 -9 -12q12 -9 13 -14t-3.5 -8.5t-5.5 3t-5 16.5q-6 -13 -19 -25l-1 1q13 24 17 45zM93 78q-5 -4 -9 -12q10 -7 12 -12.5t-2.5 -9.5t-5.5 3
t-5 17q-6 -12 -18 -26l-2 2q13 21 16 44z" />
  </g>

</svg>
