<?xml version="1.0" standalone="no"?>
<!DOCTYPE svg PUBLIC "-//W3C//DTD SVG 1.1//EN" "http://www.w3.org/Graphics/SVG/1.1/DTD/svg11.dtd" >
<svg xmlns="http://www.w3.org/2000/svg" xmlns:xlink="http://www.w3.org/1999/xlink" version="1.1" viewBox="0 -144 1024 1024">
  <g transform="matrix(1 0 0 -1 0 880)">
   <path fill="currentColor"
d="M919 107l-1 -14l-2 -13l-4 -13l-7 -12l-9 -11l-11 -9l-12 -6l-13 -4l-13 -3l-14 -1v33l-75 16v16h75h7l4 1l4 1l1 1l1 1l1 1l1 2l1 3l1 5l1 6h64zM488 546l65 -32h302l32 27l59 -49l-27 -21v-364h-64v385h-302v-113h161l54 54l65 -54v-22h-280v-117h161l54 53l65 -53v-22
h-280v-160l-65 -32v520zM215 979l65 -11l16 -11l-16 -9v-114h62l54 53l65 -53v-22h-181v-102h76l32 27l59 -49l-27 -21v-301l-64 -32v53h-76v-123h72l54 54l64 -54v-22h-190v-177l-65 -32v209h-190v22h190v123h-75v-37l-65 -32v424l65 -32h75v102h-180v22h180v145zM215 543
h-75v-134h75v134zM356 543h-76v-134h76v134zM904 591l-13 21l-31 -6l-47 -8l-93 -13l-135 -16l-108 -11l-10 -18l-12 16v4l-1 4v5v4v1l-1 11v6l-1 7v8l-1 5v4v1v4l43 1l132 3h46v113h-129v-38l-64 -32v256l64 -32h129v102l65 -11l16 -11l-16 -9v-71h128l33 26l59 -48
l-27 -21v-111l-65 -32v32h-128v-111h27l47 1l47 -1h24l-35 43l-12 14l-15 12l6 9l17 -9l18 -8l32 -18l29 -21l14 -12l24 -25l11 -13l4 -25l-15 -19l-24 -4l-20 15zM451 620l4 -64l-15 63zM215 688h-75v-123h75v123zM356 688h-76v-123h76v123zM672 869h-129v-111h129v111z
M865 869h-128v-111h128v111z" />
  </g>

</svg>
