<?xml version="1.0" standalone="no"?>
<!DOCTYPE svg PUBLIC "-//W3C//DTD SVG 1.1//EN" "http://www.w3.org/Graphics/SVG/1.1/DTD/svg11.dtd" >
<svg xmlns="http://www.w3.org/2000/svg" xmlns:xlink="http://www.w3.org/1999/xlink" version="1.1" viewBox="0 -143 1024 1024">
  <g transform="matrix(1 0 0 -1 0 881)">
   <path fill="currentColor"
d="M704 646q9 -5 9 -7q4 -6 -3 -10l-26 -18v-75h80l26 41l57 -50q4 -1 4 -6q0 -12 -12 -12h-155v-65l4 -37q0 -18 -19 -31t-38 -13l4 86v60h-70q-21 0 -44 -10l-28 37h142v132zM342 325h147v130l77 -29l5 -5q4 -8 -1 -10l-30 -20v-66h236v130l68 -28q8 -3 8 -4q8 -7 -1 -10
l-26 -15v-73h76l25 42l56 -48q3 -4 3 -6q0 -12 -14 -14h-146v-143l4 -89q0 -17 -22 -30.5t-35 -13.5l4 119v157h-237q-8 -66 -35 -113t-74 -90t-139 -79l-4 16q66 36 109 80t65 85t27 101h-80q-20 0 -44 -11zM681 888q-18 -67 -48 -129h248l32 48l64 -54q4 -3 4 -8
q0 -12 -12 -12h-218q26 -36 65 -74t81 -65t99 -33v-18q-28 0 -47 -7t-33 -29q-33 24 -68 59t-63.5 74.5t-58.5 92.5h-103q-48 -86 -126 -163t-168 -123l-8 12q76 56 141 128t107 146h-122q-27 0 -49 -10l-17 36h198q27 56 45 123q-113 -11 -222 -19l-1 18q158 24 276 48
t178 48q58 -56 54 -63t-10 -6t-21 3t-50 -2t-147 -21zM22 755h175v234l81 -31q12 -7 4 -14l-35 -17v-172h41l28 38l46 -48q15 -16 -4 -18h-111v-216l135 78l10 -16l-145 -103v-335q3 -37 -15.5 -64.5t-63.5 -41.5q-7 37 -35.5 52t-75.5 32l4 16q94 -26 115 -21t21 33v298
q-63 -47 -78.5 -64.5t-27.5 -39.5l-54 56l160 95v241h-103q-20 0 -49 -10z" />
  </g>

</svg>
