<?xml version="1.0" standalone="no"?>
<!DOCTYPE svg PUBLIC "-//W3C//DTD SVG 1.1//EN" "http://www.w3.org/Graphics/SVG/1.1/DTD/svg11.dtd" >
<svg xmlns="http://www.w3.org/2000/svg" xmlns:xlink="http://www.w3.org/1999/xlink" version="1.1" viewBox="0 -200 1000 1000">
  <g transform="matrix(1 0 0 -1 0 800)">
   <path fill="currentColor"
d="M407 739q0 15 -2 38q-2 20 -4 36l51 -29h72v99l-5 43l57 -16q27 -8 26 -14q-1 -7 -38 -15v-97h93v97l-5 44l56 -17q27 -8 27 -13q-1 -7 -38 -15v-96h72l35 29l40 -30q23 -19 19 -26q-5 -8 -36 -8v-296h22l38 37l55 -43q12 -8 7 -14q-5 -5 -18 -5h-547l-67 -6l-12 37
l68 -6h34v286zM697 759v-134h85v134h-85zM450 625h74v134h-74v-134zM549 395q22 -15 21 -23q-2 -8 -35 0q-62 -56 -115 -92q-61 -41 -138 -73l-6 9q73 42 125 87q56 48 109 116zM672 394q86 -26 135 -50q74 -34 102 -76q8 -29 -4 -41q-12 -14 -35 12q-38 43 -91 80
q-49 34 -111 65zM697 599v-146h85v146h-85zM564 759v-134h93v134h-93zM564 599v-146h93v146h-93zM524 599h-74v-146h74v146zM971 150q-39 -14 -54 -32q-13 -17 -5 -33q-157 -9 -234 -10q-124 -2 -213 10q-99 11 -165 49q-46 27 -71 72l-47 -40l-67 -58q3 -31 -5 -38t-26 16
l-29 38q33 22 69 43q29 18 75 42v251h-89l-57 -2l-4 30l56 -3h77l34 35l39 -31q28 -23 24 -35q-3 -10 -34 -14v-213q6 -31 61 -63q56 -32 121 -41q154 -14 256 -8q114 8 287 47zM195 694q10 -14 11 -31q2 -16 -4 -25q-7 -8 -17 -3q-13 7 -25 31q-11 19 -30 38q-23 24 -52 42
l1 7q34 -8 67 -25t49 -34zM248 883q10 -18 11 -32q0 -14 -7 -20t-17 -1q-11 6 -21 22q-16 27 -33 44q-24 23 -65 46l4 8q46 -8 80 -26q32 -18 48 -41z" />
  </g>

</svg>
