<?xml version="1.0" standalone="no"?>
<!DOCTYPE svg PUBLIC "-//W3C//DTD SVG 1.1//EN" "http://www.w3.org/Graphics/SVG/1.1/DTD/svg11.dtd" >
<svg xmlns="http://www.w3.org/2000/svg" xmlns:xlink="http://www.w3.org/1999/xlink" version="1.1" viewBox="0 0 2048 2048">
  <g transform="matrix(1 0 0 -1 0 2048)">
   <path fill="currentColor"
d="M1717 1439l66 73l84 -54q22 -15 31 -26q9 -10 9 -23q-1 -15 -10 -25q-9 -9 -32 -20l-26 -12v-177l44 -35q9 -8 12 -15t-5 -23q-3 -5 -5 -6t-6 -1h-1019l1 -17q0 -10 -13 -20q-12 -10 -32 -11q-23 -2 -38 6t-17 15q-2 6 0 20q1 12 1 34q1 22 2 33l3 49l-1 297l118 -62h833
zM860 1148h226v235h-226v-235zM1182 1148h225v235h-225v-235zM1503 1148h238v235h-238v-235zM102 1484l36 -50q11 -14 39 -58l42 -68q14 -24 31 -61q16 -37 24 -66t8 -61q1 -33 -10 -52q-9 -16 -24 -24q-16 -8 -31 -2q-13 4 -20 16q-7 13 -9 32q-3 19 -8 48l-9 50
q-4 21 -10 42q-6 22 -29 84q-22 61 -29 75l-35 69zM614 1416l-33 -45q-15 -20 -33 -38t-40 -37l-27 -24l-38 -30q0 -55 -1 -68q0 -14 -8 -156q-8 -143 -8 -147l-11 -85l91 -69q38 -28 66.5 -54t51.5 -59q22 -32 33 -61t13 -58q1 -29 -12 -44q-12 -15 -30 -17q-17 -1 -30 9
t-22 32l-24 59q-14 32 -31 60t-37 54q-19 25 -33 40l-43 46l-21 -94q-9 -39 -19 -72t-31 -89t-47 -110q-27 -54 -68 -118q-42 -64 -73 -97l-40 -43l-30 30l23 36l39 57q20 31 49 86q28 54 48 101q19 47 43 137q24 91 37 177q12 86 16 151.5t8 187.5q5 122 5 156v407
q0 88 -5 163q-5 74 -6 82l-4 29l106 -19q64 -12 79 -27t10 -29q-5 -15 -30 -24l-54 -20v-472q37 53 53 79q15 26 28 51q12 24 20 42t13 34l11 35l89 -56q47 -30 52 -45q5 -16 -4 -25t-28 -9h-63zM1723 1750l88 -45q43 -23 42 -38t-11 -22t-31 -7h-38q-33 -30 -59 -51
q-25 -21 -74 -53l-83 -55l-28 31l58 58q28 29 58 66q30 38 52 74zM766 1715l73 -39q31 -17 65 -38q34 -22 59 -49t27 -55q1 -29 -13 -44t-33 -16q-19 0 -35 18q-8 7 -16 24l-21 40q-12 20 -32 44q-19 24 -49 49l-41 34zM1744 1800q-22 -2 -32 -3l-102 -11q-42 -5 -162 -14
q-120 -8 -184 -12q-63 -4 -104 -6q-41 -1 -203 -4l-154 -4l-53 -1l-4 52q20 -1 38 -1q17 1 90 6l135 8q62 4 134 10q72 7 148 16t142.5 19.5t138.5 25.5q71 15 106 29l63 23l61 -70q34 -40 40 -58q7 -18 -4 -31q-10 -14 -51 6zM1166 1741l66 -45q27 -18 58 -42
q32 -25 54 -56q22 -32 20 -60q-1 -28 -16 -42q-14 -13 -30 -12q-23 0 -34 14q-10 14 -19 38q-9 25 -15 40q-7 15 -26 44q-18 28 -45 55l-35 35zM1419 1020l118 -62h229l65 72l101 -86q26 -23 24 -38q-1 -15 -26 -21l-66 -17l-32 -44l-33 -44q-15 -20 -47 -58l-40 -49
l-21 -25l41 -29q27 -18 48 -34q20 -16 62 -63q42 -46 69 -96q27 -51 31 -112q5 -60 -14 -98q-18 -38 -56 -66q-37 -28 -86 -38l-42 -10q-1 16 -4 34q-4 19 -24 36q-21 16 -52 25l-51 15l7 36q37 -7 63 -10.5t57 -6.5q32 -4 59 5t38 46t-4 89q-16 52 -37 90t-67 90t-57 61
l-35 28l24 39q9 15 39 71q29 55 36 70l26 54l12 26h-259v-634q0 -24 3 -74q2 -49 5.5 -83.5t1.5 -50.5q-2 -12 -6 -20q-4 -7 -17 -14q-13 -8 -32 -8q-17 -1 -28 3q-12 4 -19 11t-6 18zM1177 256q-11 -6 -16 -8l-84 -44q-32 -17 -107 -49t-86 -37l-44 -21l-4 -37
q-2 -18 -6 -26q-5 -7 -16 -8q-11 -2 -18 5t-14 21l-68 121l20 5l1 643l-7 92l-2 23l93 -57h195q-6 6 -10 11q-3 5 -8 31q-6 26 -9 36t-13 29q-11 19 -23 35l-23 30l20 24l30 -21q11 -7 31 -22q20 -16 30 -25t21 -23q10 -13 16 -28q7 -15 4 -38q-3 -22 -18 -31l-12 -8h122
l61 71l72 -49q18 -13 29 -24t13 -22t-8 -23q-4 -5 -30 -19l-27 -14v-224q0 -1 2 -35q1 -34 4 -54q2 -21 2 -25q-2 -17 -12 -29t-38 -15t-39 5q-11 9 -12 22l-3 25h-363v-273q32 7 71 17t85 25l114 38q24 7 26 8l30 11q-15 19 -22 29l-44 48l-20 24l24 28l52 -42l55 -44
q32 -26 50 -44q17 -18 36 -42q19 -25 29 -44t11 -40q2 -21 -10 -44q-12 -24 -32 -28q-19 -3 -34 10q-15 12 -22 29l-16 61q-5 18 -8 23zM823 821v-118h363v118h-363zM823 645v-118h363v118h-363z" />
  </g>

</svg>
