<?xml version="1.0" standalone="no"?>
<!DOCTYPE svg PUBLIC "-//W3C//DTD SVG 1.1//EN" "http://www.w3.org/Graphics/SVG/1.1/DTD/svg11.dtd" >
<svg xmlns="http://www.w3.org/2000/svg" xmlns:xlink="http://www.w3.org/1999/xlink" version="1.1" viewBox="0 -150 1000 1000">
  <g transform="matrix(1 0 0 -1 0 850)">
   <path fill="currentColor"
d="M611 969l6 12q92 -33 120 -85q22 -50 -14 -61q-16 -2 -24 25q-6 29 -25 54.5t-63 54.5zM528 862v-46h350l36 39l58 -62q2 -5 -0.5 -7t-9.5 0q-27 4 -56 -25q-5 -6 -40 -42q-16 -18 -26 -29l-13 8l61 98h-360v-8q1 -51 -24 -87q-31 -36 -49 -10q-9 16 11 36
q19 18 29.5 46.5t17.5 88.5h15zM509 493l81 -26q7 -2 8 -5.5t-5 -8.5q-12 -1 -26 -12q5 -100 -11 -170q56 -82 94 -110q6 -5 19 -14q6 -3 9 -5v452h-114q-27 1 -44 -13l-34 33h344l31 38l67 -48q9 -5 7.5 -7.5t-13.5 -2.5h-201v-205h107l32 39l66 -47q8 -6 6.5 -9t-12.5 -3
h-199v-248q2 -1 4.5 -2t3.5 -1q40 -12 104 -11h89q36 0 66 -1v-14q-72 3 -73 -34q-92 -2 -149 7q-57 7 -113 50q-49 38 -104 128q-25 -77 -75 -135q-53 -60 -123 -89l-8 11q137 96 169 232q17 72 13 192q-8 20 -22 31zM353 463h-192v-138h192v138zM161 309v-140h192v140
h-192zM392 969l59 -51q9 -9 9 -14t-9 -6q-35 11 -77 2q-34 -8 -89 -17v-119h83l31 39l66 -49q7 -5 6 -7.5t-11 -2.5h-175v-40q75 -29 106 -49q33 -23 44.5 -41.5t11.5 -38.5t-17.5 -23.5t-25.5 19.5q-8 21 -35 55q-29 30 -84 57v-75l2 -54q0 -22 -13.5 -31.5t-38.5 -13.5
q4 31 7 146v57q-27 -55 -51 -85q-32 -45 -73 -78q-41 -36 -91 -69l-11 10q43 37 76 72q3 2 8 8q37 41 52 66q31 43 59 108h-111q-27 0 -44 -13l-33 33h219v113q-7 -2 -14 -2q-56 -10 -179 -11v18q113 12 177.5 24t96.5 22q24 7 44 16q12 6 18 25h7zM123 514l30 -31h183
l34 39l52 -48q7 -5 5.5 -9.5t-11.5 -6.5l-18 -9v-267l4 -43q1 -22 -10.5 -31t-38.5 -13v54h-192v-52q1 -21 -13 -31q-9 -7 -39 -14q4 30 7 148v276q-6 26 -8 26z" />
  </g>

</svg>
