<?xml version="1.0" standalone="no"?>
<!DOCTYPE svg PUBLIC "-//W3C//DTD SVG 1.1//EN" "http://www.w3.org/Graphics/SVG/1.1/DTD/svg11.dtd" >
<svg xmlns="http://www.w3.org/2000/svg" xmlns:xlink="http://www.w3.org/1999/xlink" version="1.1" viewBox="0 -205 1024 1024">
  <g transform="matrix(1 0 0 -1 0 819)">
   <path fill="currentColor"
d="M412 942h416l36 42l56 -50q3 -4 4 -10q0 -7 -12 -8h-228v-92h212l30 32l46 -36q14 -9 14 -18q-3 -6 -18 -6q-25 -1 -86 -76l-14 10l32 68h-216v-106l4 -56q1 -12 -22 -24q-22 -10 -34 -10l4 90v106h-200q3 -42 -6 -68q-7 -25 -22 -38q-12 -13 -30 -10q-17 0 -22 16
q-3 14 6 26q9 10 28 38q18 30 28 96h18v-34h200v92h-164q-21 0 -38 -8l-22 34v0v0zM436 710h142v-24h-142v24v0v0zM438 608h142v-24h-142v24v0v0zM728 706h152v-24h-152v24v0v0zM732 612h150v-24h-150v24v0v0zM824 328l60 -44q16 -15 -4 -18q-25 -4 -46 -16t-134 -108
q60 -22 84 -47q22 -24 18 -48q-4 -21 -22 -24q-19 0 -38 20q-18 21 -42 42q-21 22 -62 44q-39 20 -128 57l4 16q102 -30 160 -50q59 51 116 120h-276q-16 0 -52 -8l-24 34h356l30 30v0v0zM602 430l8 10q52 -25 74 -44q22 -17 26 -34q4 -18 -4 -30q-7 -13 -26 -14
q-18 0 -24 28q-6 27 -18 42t-36 42v0v0zM710 562q2 -6 2 -8q0 -6 -32 -14q41 -42 92 -74q50 -34 104 -58q52 -24 134 -26v-20q-43 -3 -64 -14q-19 -9 -32 -26q-36 15 -78 46q-40 28 -88 68t-86 92q-49 -57 -130 -122q-81 -66 -186 -116l-6 14q93 63 174 138q78 76 130 152
l66 -32v0v0zM170 982l90 -34q4 -5 2 -10q0 -6 -42 -24v-244q56 72 92 138q63 -45 60 -54q-4 -7 -10 -8q-6 0 -18 -2q-12 -1 -42 -26q-27 -23 -84 -76q1 -150 -10 -236q39 -31 72 -68q30 -35 42 -70q13 -35 8 -52q-3 -15 -12 -24t-26 -6q-15 2 -20 34q-6 33 -20 78
q-12 45 -48 90q-12 -105 -54 -194q-42 -88 -126 -167l-10 10q62 78 92 155q29 78 44 148q14 72 20 252v390v0v0zM122 724q6 -93 0 -144q-7 -49 -28 -70q-21 -22 -42 -20q-18 3 -24 18q-4 16 14 32q18 15 34 46q15 30 28 138h18v0v0z" />
  </g>

</svg>
