<?xml version="1.0" standalone="no"?>
<!DOCTYPE svg PUBLIC "-//W3C//DTD SVG 1.1//EN" "http://www.w3.org/Graphics/SVG/1.1/DTD/svg11.dtd" >
<svg xmlns="http://www.w3.org/2000/svg" xmlns:xlink="http://www.w3.org/1999/xlink" version="1.1" viewBox="0 -36 256 256">
  <g transform="matrix(1 0 0 -1 0 220)">
   <path fill="currentColor"
d="M125 120l-3 1q21 52 31 125l22 -11l-9 -7q-2 -10 -10 -37h62l12 12l15 -19h-26q-7 -72 -29 -110q25 -35 58 -46v-4q-9 1 -17 -12q-30 22 -50 50q-33 -36 -75 -55l-2 4q43 28 70 64q-20 42 -27 87q-5 -15 -22 -42zM150 174q14 -54 31 -87q18 36 24 97h-51zM65 219
q0 14 -1 28l21 -8l-7 -7v-25h23l12 11l15 -18h-50v-21h26l9 10l13 -14l-8 -6v-27q0 -20 1 -39l-14 -5v6h-27v-28h26l13 12l16 -19h-55v-14q0 -18 1 -41l-15 -7q1 24 1 44v18h-28q-10 0 -19 -2l-9 9h56v28h-24v-5l-15 -6q1 16 1 29v33q0 17 -1 33l15 -9h24v21h-17
q-16 0 -25 -2l-9 9h51v12zM41 172v-27h24v27h-24zM78 172v-27h27v27h-27zM78 138v-27h27v27h-27zM41 138v-27h24v27h-24z" />
  </g>

</svg>
