<?xml version="1.0" standalone="no"?>
<!DOCTYPE svg PUBLIC "-//W3C//DTD SVG 1.1//EN" "http://www.w3.org/Graphics/SVG/1.1/DTD/svg11.dtd" >
<svg xmlns="http://www.w3.org/2000/svg" xmlns:xlink="http://www.w3.org/1999/xlink" version="1.1" viewBox="0 -36 256 256">
  <g transform="matrix(1 0 0 -1 0 220)">
   <path fill="currentColor"
d="M40.5 194.5q6.5 -12.5 -1 -22.5t-10.5 7.5t-13 38.5l3 2q15 -13 21.5 -25.5zM53 245l23 -9l-9 -9v-70h18l10 12l15 -19h-43v-19q20 -13 28 -20.5t3 -19.5t-11 2.5t-20 30.5v-77q0 -13 1 -31l-15 -7q1 42 1 108q-16 -34 -42 -63l-3 2q31 46 42 94h-17q-9 2 -17 -1l-7 8h44
q0 58 -1 88zM100 205q-12 -24 -27 -40l-2 2q12 21 20 55l17 -13zM180 233.5q30 5.5 39 10.5l15 -18l-13 3q-83 -11 -113 -10v4q42 5 72 10.5zM133.5 199.5q7.5 -7.5 6 -13.5t-5.5 -9t-8 8t-17 26l2 3q15 -7 22.5 -14.5zM192 179q24 30 27 44l19 -13l-8 -2q-10 -9 -35 -31z
M198.5 161.5q6.5 5.5 10.5 11.5l18 -14q-10 -1 -17.5 -5.5t-26.5 -15t-55 -24.5q43 0 84 2q-5 10 -15 21l3 2q16 -9 24 -16t7.5 -16t-4.5 -11.5t-6.5 3.5t-6.5 12q-90 -6 -96 -13l-11 21q15 -1 34.5 8t37.5 19q-50 -4 -60 -12l-9 20q10 -1 23.5 7t29.5 25l17 -14
q-12 -1 -55 -22h58q9 6 15.5 11.5zM158 105l22 -10l-8 -4l-5 -13h49l12 12l17 -19h-68q30 -45 69 -51v-4q-14 1 -18 -10q-36 16 -56 65h-8q-23 -50 -83 -64l-1 3q48 19 69 61h-22q-15 -1 -25 -4l-12 11h61q7 16 7 27zM170.5 208.5q7.5 -4.5 7 -11t-4 -12t-8 5.5t-18.5 26
l2 2q14 -6 21.5 -10.5z" />
  </g>

</svg>
