<?xml version="1.0" standalone="no"?>
<!DOCTYPE svg PUBLIC "-//W3C//DTD SVG 1.1//EN" "http://www.w3.org/Graphics/SVG/1.1/DTD/svg11.dtd" >
<svg xmlns="http://www.w3.org/2000/svg" xmlns:xlink="http://www.w3.org/1999/xlink" version="1.1" viewBox="0 -205 1024 1024">
  <g transform="matrix(1 0 0 -1 0 819)">
   <path fill="currentColor"
d="M888 930q7 -5 6 -10q0 -4 -6 -8l-22 -12v-80h42l34 42l54 -48q3 -3 4 -8q0 -12 -12 -12h-122v-168h48l36 46l56 -54q3 -6 4 -12q0 -3 -8 -6h-136v-58l4 -68q0 -13 -18 -28q-16 -12 -38 -14l4 112v56h-92l-26 -26l-50 44q12 8 28 20q10 27 26 112l64 -28q12 -10 -2 -16
q-18 -3 -26 -12l-20 -68h98v168h-60l-40 -4l-18 -6l-22 36h140v140l70 -30v0v0zM502 826h92l22 28q54 -42 54 -48t-2 -8q-3 -1 -20 -14q-18 -72 -48 -138q-30 -64 -86 -130q-57 -65 -134 -112l-10 14q54 45 106 108q51 60 78 126q28 63 50 148h-114q-19 -33 -34 -60
q39 -31 54 -50q14 -19 16 -38t-10 -32q-12 -14 -30 -6q-18 6 -14 24q4 15 0 36q-3 21 -26 48q-34 -59 -70 -100l-12 10q36 63 72 148q33 84 64 192q69 -27 72 -32t-2 -10q-3 -3 -14 -8q-12 -4 -24 -28q-12 -25 -30 -68v0v0zM372 386h280v134l80 -34q3 -3 4 -8q1 -6 -34 -20
v-72h206l32 46l58 -52q5 -3 2 -8q0 -12 -12 -12h-248q27 -53 66 -100q36 -48 82 -78q45 -30 126 -42v-17q-55 1 -70 -8q-15 -7 -32 -26q-33 22 -66 57q-33 34 -72 92q-37 60 -58 120h-14v-196l4 -101q-3 -15 -20 -28q-15 -12 -38 -12l4 139v184q-67 -96 -154 -170
q-88 -70 -166 -113l-10 14q63 45 142 117q77 72 142 168h-162q-18 0 -54 -8l-18 34v0v0zM184 974l78 -34q17 -6 -4 -18l-26 -14v-612l68 18v460l78 -30q3 -2 4 -10q0 -4 -36 -20v-396l4 -76q0 -12 -14 -24q-15 -13 -36 -14v88q-123 -38 -158 -58q-33 -21 -54 -42l-44 50
q26 15 28 34v506l74 -32q7 -3 8 -8q-3 -5 -36 -22v-456l66 22v688v0v0z" />
  </g>

</svg>
