<?xml version="1.0" standalone="no"?>
<!DOCTYPE svg PUBLIC "-//W3C//DTD SVG 1.1//EN" "http://www.w3.org/Graphics/SVG/1.1/DTD/svg11.dtd" >
<svg xmlns="http://www.w3.org/2000/svg" xmlns:xlink="http://www.w3.org/1999/xlink" version="1.1" viewBox="0 -36 256 256">
  <g transform="matrix(1 0 0 -1 0 220)">
   <path fill="currentColor"
d="M32 102h17v74h-17v-74zM61 102h15v74h-15v-74zM49 45v50h-17v-6l-13 -7q1 21 1 53.5t-1 55.5l13 -8h17q0 43 -1 59l20 -7l-7 -8v-44h14l6 9l13 -9l-6 -8v-48q0 -28 1 -33l-13 -7v8h-15v-46l15 4q-3 11 -10 28l3 2q21 -26 22.5 -37t-4.5 -17.5t-10 19.5q-18 -9 -36 -17
t-23 -12l-8 17q8 0 39 9zM188 70q10 17 19 47h-36q7 -28 17 -47zM99 44l-10 16l18 6q0 137 -1 161l13 -8q18 12 26 23l13 -13q-8 -3 -18.5 -7.5t-20.5 -8.5v-38h10l10 11l14 -18h-34v-43h7l11 11l13 -18h-31v-48l39 16l1 -4l-40 -23q0 -39 1 -47l-14 -5q1 28 1 45zM196 60
q21 -26 51 -31v-4q-12 0 -17 -11q-25 13 -42 36q-24 -24 -55 -41l-2 4q32 22 50 47q-11 25 -16 57l-6 -2l-7 9h55l9 8l13 -13l-8 -5q-13 -35 -25 -54zM162 235l14 -9h24l7 10l15 -11l-8 -9v-47q0 -8 12 -7q6 1 7.5 3t8 -3t3.5 -8t-16 -3h-13q-15 0 -15 18v50h-25
q1 -30 -4.5 -46.5t-23.5 -34.5l-3 3q10 14 15 30.5t2 63.5z" />
  </g>

</svg>
