<?xml version="1.0" standalone="no"?>
<!DOCTYPE svg PUBLIC "-//W3C//DTD SVG 1.1//EN" "http://www.w3.org/Graphics/SVG/1.1/DTD/svg11.dtd" >
<svg xmlns="http://www.w3.org/2000/svg" xmlns:xlink="http://www.w3.org/1999/xlink" version="1.1" viewBox="0 -36 256 256">
  <g transform="matrix(1 0 0 -1 0 220)">
   <path fill="currentColor"
d="M118.5 222.5q7.5 -9.5 0.5 -19.5t-11 4.5t-20 31.5l3 3q20 -10 27.5 -19.5zM115 151h15l10 9l11 -14l-7 -4q-3 -84 -5 -103.5t-19 -26.5q-1 12 -19 18v4q12 -2 18 -2t8 13.5t6 98.5h-18q-3 -49 -12 -79t-31 -56l-2 2q22 39 28 87t5 89q-3 0 -12 -2l-9 9h51l10 10l12 -17
h-40v-36zM64 239l20 -10l-7 -6v-181.5t1 -15.5l-14 -7q1 10 1 94h-19q0 -36 -6 -56.5t-30 -43.5l-2 3q17 25 21.5 44.5t3.5 52.5q-8 0 -16 -3l-7 10h55v38h-30l-6 -7l-12 11l6 5q0 43 -1 57l18 -8l-5 -7v-44h30q0 56 -1 74zM190 227q-7 -16 -12 -28h41l11 10l14 -17h-69
q-14 -26 -25 -39l-3 2q20 38 30 86l18 -10zM219 141l6 8l15 -10l-6 -6v-49q2 -15 -13 -22q2 8 -16 13v3q18 -3 17 10v47l-21 -5v-42q0 -19 1 -31l-13 -5q1 16 1 75l-18 -5v-78q0 -16 18 -16h35q7 5 8 18.5t1 21.5l4 1q0 -5 1 -17.5t9 -19.5q-6 -16 -21 -16h-42q-24 0 -24 21
v82l-6 -3l-4 -4l-7 10l17 5q0 12 -1 32l17 -10l-5 -7v-13l18 4q0 32 -1 47l18 -8l-6 -7v-29z" />
  </g>

</svg>
