<?xml version="1.0" standalone="no"?>
<!DOCTYPE svg PUBLIC "-//W3C//DTD SVG 1.1//EN" "http://www.w3.org/Graphics/SVG/1.1/DTD/svg11.dtd" >
<svg xmlns="http://www.w3.org/2000/svg" xmlns:xlink="http://www.w3.org/1999/xlink" version="1.1" viewBox="0 -36 256 256">
  <g transform="matrix(1 0 0 -1 0 220)">
   <path fill="currentColor"
d="M178 214v16h-100q-11 0 -20 -2l-9 9h128l8 9l16 -12l-9 -6v-14h14l14 11l17 -18h-45v-12q0 -6 1 -13l-15 -6v8h-105q-11 0 -20 -2l-10 9h135v16h-132q-10 0 -19 -2l-10 9h161zM120 127l1 -3q-37 -11 -59 -17.5t-27 -10.5l-12 16q23 3 43 6v40h-11q-11 -1 -20 -3l-10 10
h71l12 9l15 -16h-43v-37q26 5 40 6zM212 113h7q7 0 9 9.5t3 19.5h4q0 -15 2 -20.5t10 -7.5q-6 -8 -11.5 -9.5t-11.5 -1.5h-21q-15 0 -15 11v48h-43q1 -27 -10.5 -40.5t-41.5 -24.5l-3 2q29 16 34.5 26t6 22.5t-0.5 28.5l15 -7h41l9 9l14 -12l-8 -8v-36q0 -9 11 -9zM172 140
q7 -4 8 -9.5t-3.5 -10.5t-10.5 6t-18 21l2 3q15 -6 22 -10zM136 15l-16 -7q1 15 1 29v42h-84q-11 0 -20 -3l-9 10h113q0 12 -1 21l24 -8l-9 -6v-7h77l18 13l17 -20h-112v-39q0 -13 1 -25zM235.5 26.5q0.5 -18.5 -14 -4.5t-69.5 37l1 4q82 -18 82.5 -36.5zM101 52h-9
q-23 -14 -38.5 -23t-33.5 -15l-2 4q48 28 64 50z" />
  </g>

</svg>
