<?xml version="1.0" standalone="no"?>
<!DOCTYPE svg PUBLIC "-//W3C//DTD SVG 1.1//EN" "http://www.w3.org/Graphics/SVG/1.1/DTD/svg11.dtd" >
<svg xmlns="http://www.w3.org/2000/svg" xmlns:xlink="http://www.w3.org/1999/xlink" version="1.1" viewBox="0 -36 256 256">
  <g transform="matrix(1 0 0 -1 0 220)">
   <path fill="currentColor"
d="M65.5 217.5q7.5 -8.5 2 -16.5t-12 2.5t-26.5 27.5l1 3q28 -8 35.5 -16.5zM9 180q34 -11 36 -21t-4 -14.5t-9.5 5.5t-23.5 27zM38 85.5q7 3.5 43 108.5l7 -1q-29 -90 -33 -101.5t-5.5 -22t0.5 -34.5t-9.5 -19t-8.5 21.5t3 27t-25 15.5v4q21 -2 28 1.5zM99 137l22 -9l-7 -6
v-40h39v74h-39q-13 0 -22 -3l-10 10h131l10 11l18 -18h-74v-27h46l9 12l17 -14l-8 -6q0 -74 -4 -86.5t-13 -18.5t-17 -8q-7 14 -39 19v5q37 -3 38.5 -3t10.5 4.5t9 41.5h-101l-8 -9l-13 11l6 6q0 24 -1 54zM167 82h49v40h-49v-40zM170.5 230q7.5 -7 0.5 -17.5t-11 2.5
t-15 28l3 2q15 -8 22.5 -15zM223 200h-116q1 -19 -4.5 -22t-13 -2.5t0.5 11.5t11 30h5l1 -10h116l9 9l15 -16q-4 0 -14.5 -8t-15.5 -16l-4 2z" />
  </g>

</svg>
