<?xml version="1.0" standalone="no"?>
<!DOCTYPE svg PUBLIC "-//W3C//DTD SVG 1.1//EN" "http://www.w3.org/Graphics/SVG/1.1/DTD/svg11.dtd" >
<svg xmlns="http://www.w3.org/2000/svg" xmlns:xlink="http://www.w3.org/1999/xlink" version="1.1" viewBox="0 -205 1024 1024">
  <g transform="matrix(1 0 0 -1 0 819)">
   <path fill="currentColor"
d="M500 924h320l34 36l50 -44q13 -7 8 -16q1 -4 -34 -22v-248h28l40 44l52 -48q6 -6 6 -12q0 -10 -12 -10h-220q15 -96 42 -164q38 35 100 116l60 -36q4 -12 -4 -14q-5 -1 -22 -4q-15 -3 -42 -20q-27 -18 -86 -62q16 -54 44 -96q27 -43 60 -70q29 -27 62 -38l-2 -16
q-30 1 -48 -4q-17 -3 -40 -18q-35 48 -64 102q-27 54 -48 130q-18 76 -36 194h-10v-442q3 -50 -18 -75q-22 -25 -58 -36q-6 30 -36 48q-30 16 -92 38l6 15q110 -22 130 -17q19 4 20 35v188q-115 -72 -136 -90q-18 -19 -36 -44l-52 44l224 116v220h-150q-21 0 -44 -8l-16 34
h350v116h-210q-25 0 -46 -8l-26 34h282v124h-258q-25 1 -46 -10l-26 38v0v0zM526 562q49 -33 80 -68q32 -35 32 -58q-1 -23 -14 -34q-11 -12 -28 -8q-18 3 -20 30q-1 23 -10 50q-9 26 -50 80l10 8v0v0zM186 530v348h-88q-18 0 -48 -8l-18 32h146l32 38l48 -38q9 -6 6 -14
l-30 -24v-706q3 -24 -12 -51q-13 -24 -68 -40q-6 37 -30 50q-24 12 -72 26l4 17q80 -16 104 -17q23 0 26 19v330q-71 -93 -82 -110q-10 -18 -22 -50l-54 34l158 164v0v0zM58 760l12 6q42 -41 60 -64q17 -22 22 -46q6 -24 -6 -38q-9 -16 -30 -14q-18 0 -18 22q0 21 -2 42
q-4 21 -10 36l-28 56v0v0zM400 552v336h-54q-31 0 -44 -12l-22 36h116l24 36l54 -36q9 -6 6 -14l-32 -24v-725q3 -27 -14 -48q-15 -21 -56 -34q-6 36 -30 48q-21 12 -78 30l4 17q89 -20 106 -19q17 0 20 19v354q-54 -69 -68 -90q-12 -18 -24 -54l-52 30l144 150v0v0z
M278 752l12 6q38 -42 56 -68q17 -25 20 -46q3 -22 -6 -34q-10 -14 -28 -12q-18 3 -18 24q0 20 -2 40q-3 21 -12 36q-7 15 -22 54v0v0z" />
  </g>

</svg>
