<?xml version="1.0" standalone="no"?>
<!DOCTYPE svg PUBLIC "-//W3C//DTD SVG 1.1//EN" "http://www.w3.org/Graphics/SVG/1.1/DTD/svg11.dtd" >
<svg xmlns="http://www.w3.org/2000/svg" xmlns:xlink="http://www.w3.org/1999/xlink" version="1.1" viewBox="0 -36 256 256">
  <g transform="matrix(1 0 0 -1 0 220)">
   <path fill="currentColor"
d="M66 194q-13 0 -22 -3l-10 10h38v15h-16q-13 0 -22 -3l-10 10h48q0 9 -1 21l20 -8l-6 -6v-7h21l10 11l18 -18h-49v-15h15l10 11l18 -18h-62zM76 152h30l7 7l13 -10l-6 -4q-2 -19 -5 -30.5t-18 -15.5q-1 10 -18 13v4q17 -2 21.5 1t6.5 28h-33q-1 -8 -11.5 -23.5
t-38.5 -26.5l-2 3q19 13 26 22.5t10.5 18t5.5 24.5h-18l-11 -3l-10 10h50q-1 6 -15 19l1 3q24 -8 24 -13.5t-4 -8.5h25l10 11l17 -18h-55q-1 -6 -2 -11zM182 153q13 23 18 51h-40l-2 -3q9 -27 24 -48zM177 237l-6 -4q-4 -10 -9 -22h50l10 11l18 -18h-26q-5 -30 -23 -60
q20 -20 52 -26v-3q-12 -2 -15 -12q-26 11 -45 32q-30 -25 -62 -27l-1 3q32 10 55 34q-14 24 -21 49q-10 -19 -21 -28l-2 2q20 32 27 78zM48 87q16 -6 25.5 -12.5t9.5 -13.5t-4 -12t-9.5 7.5t-23.5 27.5zM77 32.5q20 12.5 28.5 32.5t6.5 41l24 -8l-9 -7q5 -13 23 -32
q27 22 33 34l18 -13l-9 -2q-28 -15 -38 -23q34 -30 90 -34v-4q-21 -2 -22 -9q-72 15 -97 72q-9 -39 -39 -54.5t-73 -18.5v3q44 10 64 22.5z" />
  </g>

</svg>
