<?xml version="1.0" standalone="no"?>
<!DOCTYPE svg PUBLIC "-//W3C//DTD SVG 1.1//EN" "http://www.w3.org/Graphics/SVG/1.1/DTD/svg11.dtd" >
<svg xmlns="http://www.w3.org/2000/svg" xmlns:xlink="http://www.w3.org/1999/xlink" version="1.1" viewBox="0 -205 1024 1024">
  <g transform="matrix(1 0 0 -1 0 819)">
   <path fill="currentColor"
d="M550 892q-18 -27 -38 -60h344l40 54l68 -64q2 -5 2 -10q0 -7 -8 -8h-462q-60 -93 -140 -180l-16 12q70 104 110 184q39 78 72 156q78 -30 78 -36q1 -6 -4 -8q-3 -3 -14 -8q-12 -3 -32 -32v0v0zM416 658h426l30 42l60 -50q2 -3 8 -8q7 -10 -16 -16q-23 -3 -46 -30t-70 -92
l-16 10q26 50 56 116h-170v-218h144l36 44l60 -56q2 0 2 -6q0 -7 -8 -8h-234v-243q59 -21 128 -28q68 -6 188 0v-18q-41 -5 -58 -16q-15 -12 -26 -28q-145 10 -224 38q-77 28 -136 77q-58 51 -94 114q-22 -76 -76 -141q-55 -67 -148 -114l-10 14q99 67 156 173
q56 107 62 290q83 -24 86 -30q3 -7 -8 -14l-22 -10q-9 -52 -30 -136q54 -88 160 -154v470h-126q-20 0 -58 -8l-26 36v0v0zM194 442q-18 -49 -38 -52t-106 -2l-2 -20q66 -6 90 -14q25 -7 32 -22q8 -13 8 -44t-8 -88q-10 -57 -8 -85q1 -28 20 -38q18 -9 36 0q16 9 20 36
q3 24 -8 87q-9 62 -12 104q-1 42 4 64q6 21 16 54l136 418l-22 6l-158 -404v0v0zM146 964l6 14q48 -17 84 -34q33 -18 52 -38q17 -19 20 -40q3 -19 -8 -34q-9 -13 -26 -14q-18 0 -24 16q-6 14 -14 34q-9 20 -24 38q-15 17 -66 58v0v0zM48 716l6 14q42 -15 78 -32
q35 -15 52 -36q15 -18 18 -38q1 -20 -10 -34q-12 -15 -26 -14q-15 0 -20 16q-6 15 -14 34q-10 18 -28 40q-18 20 -56 50v0v0z" />
  </g>

</svg>
