<?xml version="1.0" standalone="no"?>
<!DOCTYPE svg PUBLIC "-//W3C//DTD SVG 1.1//EN" "http://www.w3.org/Graphics/SVG/1.1/DTD/svg11.dtd" >
<svg xmlns="http://www.w3.org/2000/svg" xmlns:xlink="http://www.w3.org/1999/xlink" version="1.1" viewBox="0 -205 1024 1024">
  <g transform="matrix(1 0 0 -1 0 819)">
   <path fill="currentColor"
d="M460 884h358l42 54l66 -60q3 -3 4 -8q0 -12 -12 -12h-208v-310h166l38 54l66 -62q3 -4 4 -10q0 -10 -12 -10h-262v-393q1 -48 -24 -72q-24 -22 -66 -38q-18 36 -44 50q-27 15 -92 38l4 20q94 -21 116 -24q22 -1 38 4q15 4 12 41v374h-164q-20 1 -58 -10l-26 38h248v310
h-110q-21 0 -68 -8l-16 34v0v0zM362 778l34 46l58 -52q3 -3 4 -8q0 -12 -12 -12h-366q-18 1 -42 -10l-24 36h348v0v0zM62 646h258l32 44l58 -50q2 -3 2 -8q0 -12 -12 -12h-248q-37 0 -68 -8l-22 34v0v0zM90 426l62 -44h158l28 34l60 -44q6 -6 6 -8q0 -6 -32 -30v-146l4 -81
q1 -12 -16 -24q-16 -12 -38 -16v81h-180v-61q0 -18 -20 -30q-18 -14 -36 -14l4 119v264v0v0zM142 174h180v182h-180v-182v0v0zM144 960l10 10q84 -55 102 -82q19 -27 18 -48q0 -22 -12 -32q-13 -11 -28 -6q-16 3 -20 22q-2 19 -10 44q-6 25 -60 92v0v0zM62 514h258l30 46
l60 -52q2 -3 2 -8q0 -12 -12 -12h-262q-34 0 -58 -8l-18 34v0v0z" />
  </g>

</svg>
