<?xml version="1.0" standalone="no"?>
<!DOCTYPE svg PUBLIC "-//W3C//DTD SVG 1.1//EN" "http://www.w3.org/Graphics/SVG/1.1/DTD/svg11.dtd" >
<svg xmlns="http://www.w3.org/2000/svg" xmlns:xlink="http://www.w3.org/1999/xlink" version="1.1" viewBox="0 -36 256 256">
  <g transform="matrix(1 0 0 -1 0 220)">
   <path fill="currentColor"
d="M39 98h37v41h-24q-10 0 -19 -2l-10 8h68l10 8l12 -14h-25v-41h9l9 11l13 -18h-31v-56q3 -19 -17 -27q0 8 -6 12t-16 6v5q19 -3 22.5 -3t4.5 6v49q-22 -39 -67 -68l-2 2q39 36 58 74h-28l-5 -5l-12 8l7 6l8 34l17 -8l-7 -5zM107 206l7 9l13 -16q-5 0 -10.5 -4.5
t-12.5 -14.5l-3 1l7 18h-78q0 -11 -2.5 -16.5t-8.5 -6.5t-8.5 2t4.5 11t10 27h3l3 -10h76zM13 145l-2 3q24 19 36 41l18 -12l-11 -2q-19 -17 -41 -30zM107.5 171.5q9.5 -7.5 6.5 -18t-11 2.5t-28 27l2 4q21 -8 30.5 -15.5zM77.5 229q4.5 -7 -2 -15t-9.5 4.5t-15 25.5l3 2
q19 -10 23.5 -17zM135 123q1 27 1 54q-9 -10 -18 -18l-2 2q33 43 46 80l17 -12q-6 -2 -15 -15h32l7 9l13 -13q-7 0 -29 -21h29l9 9l12 -12l-7 -5q0 -28 1 -51l-13 -4v3h-70v-2zM148 136h29v20h-29v-20zM148 182v-19h29v19h-29zM149 192l3 -3h27l14 18h-32zM188 163h30v19
h-30v-19zM188 156v-20h30v20h-30zM119 97q7 8 11 27h3q3 -34 -9 -34.5t-5 7.5zM158 121q20 -16 12 -25.5t-8.5 1t-6.5 23.5zM189 122q15 -11 16.5 -17.5t-5 -11.5t-7.5 5t-8 23zM216 123q34 -14 27.5 -27.5t-10.5 -1.5t-19 27zM152 57h59v20h-59v-20zM152 29h59v21h-59v-21z
M139 51q0 21 -1 41l16 -8h57l8 9l12 -12l-8 -6q0 -32 1 -61l-13 -5v13h-59v-9l-14 -6q1 23 1 44z" />
  </g>

</svg>
