<?xml version="1.0" standalone="no"?>
<!DOCTYPE svg PUBLIC "-//W3C//DTD SVG 1.1//EN" "http://www.w3.org/Graphics/SVG/1.1/DTD/svg11.dtd" >
<svg xmlns="http://www.w3.org/2000/svg" xmlns:xlink="http://www.w3.org/1999/xlink" version="1.1" viewBox="0 -205 1024 1024">
  <g transform="matrix(1 0 0 -1 0 819)">
   <path fill="currentColor"
d="M576 618h140v82l64 -22q8 -2 8 -4q2 -6 -4 -12l-24 -8v-36h106l32 36l48 -44q2 -3 2 -6q0 -10 -8 -10h-138q18 -24 40 -48q21 -23 48 -40q26 -15 80 -26v-16q-23 1 -40 -4q-16 -6 -34 -24q-27 27 -48 52q-18 21 -36 46q-15 24 -32 60h-20v-74l4 -42q0 -15 -18 -26
q-19 -10 -34 -10l4 60v60q-42 -39 -86 -72q-43 -30 -98 -66l-12 12q39 30 90 76q51 45 78 82h-64q-21 1 -32 -4l-16 28v0v0zM868 746l32 46l58 -56l2 -6q0 -7 -8 -8h-760v-168q1 -204 -28 -320q-30 -117 -120 -219l-14 10q70 109 92 215q24 104 22 290v246l50 -30h674v0v0z
M232 614h146v90l68 -24q6 -2 6 -4q1 -7 -4 -10l-26 -10v-42h64l22 34l46 -42q2 -3 2 -6q0 -10 -8 -10h-126v-30q38 -6 70 -14q30 -6 40 -24q8 -15 2 -30q-7 -13 -22 -16q-15 -1 -24 16q-6 15 -24 28q-15 12 -42 24v-52l4 -48q0 -13 -18 -26q-17 -12 -34 -12l4 92v58
q-24 -26 -68 -70q-46 -42 -94 -78l-8 10q46 52 80 92l66 80h-62q-21 0 -44 -8l-16 32v0v0zM462 840l6 12q51 -9 78 -20t36 -28q9 -18 0 -32q-6 -13 -24 -14q-16 -1 -22 14t-20 30q-15 14 -54 38v0v0zM762 376l-156 -12v-80h182l30 38l50 -46q3 -1 4 -8q0 -9 -12 -8h-254v-58
h266l34 46l56 -56q2 -3 2 -6q1 -9 -10 -8h-348v-73q1 -39 -12 -58q-14 -18 -58 -36q-12 31 -36 40q-22 12 -76 30l4 16q55 -10 80 -14q23 -3 38 0q12 1 10 44v51h-288q-19 0 -62 -8l-18 32h368v58h-198q-18 0 -66 -8l-18 32h282v76q-117 -9 -294 -18l2 18q300 29 540 76
q30 -44 34 -52q4 -6 2 -8q-3 -4 -18 -2q-15 4 -60 2v0v0zM366 996l74 -28q7 -4 2 -10q1 0 -28 -20v-44h248v98l74 -28q3 -3 4 -8q-4 -6 -28 -18v-44h166l40 48l60 -62q3 -1 4 -8q-1 -6 -16 -6h-254v-62q0 -12 -12 -20q-9 -6 -18 -8q-7 -3 -20 -2v92h-248v-62q0 -12 -8 -18
q-7 -5 -16 -10q-9 -3 -24 -2v92h-222q-22 -1 -70 -10l-18 38h310v102v0v0z" />
  </g>

</svg>
