<?xml version="1.0" standalone="no"?>
<!DOCTYPE svg PUBLIC "-//W3C//DTD SVG 1.1//EN" "http://www.w3.org/Graphics/SVG/1.1/DTD/svg11.dtd" >
<svg xmlns="http://www.w3.org/2000/svg" xmlns:xlink="http://www.w3.org/1999/xlink" version="1.1" viewBox="0 -205 1024 1024">
  <g transform="matrix(1 0 0 -1 0 819)">
   <path fill="currentColor"
d="M444 954l60 -48h318l40 44l58 -52q6 -6 6 -8q0 -7 -38 -32v-168l4 -80q3 -17 -14 -28q-15 -9 -42 -12v50h-138v-192h172l42 50l64 -62q3 -4 4 -8q-1 -9 -10 -8h-272v-248q90 -15 142 -13q51 1 172 7v-19q-32 -4 -58 -14q-25 -9 -40 -36q-78 0 -194 20q-124 30 -172 81
q-48 50 -78 122q-25 -93 -76 -158q-51 -64 -120 -107l-10 14q63 55 102 119q37 63 56 138q18 73 30 200q87 -27 88 -32q0 -5 -2 -10q-1 -4 -16 -10q-13 -4 -20 -26q-9 -36 -20 -98q30 -66 78 -110q45 -42 84 -50v450h-146v-30q-1 -15 -22 -26q-21 -10 -36 -10l4 106v294v0v0
zM498 650h338v228h-338v-228v0v0zM118 900l58 -40h104l32 40l60 -38q12 -6 12 -14q-1 -3 -34 -30v-374l4 -100q1 -12 -16 -24q-16 -13 -40 -16v88h-128v-108q0 -12 -20 -24q-21 -12 -36 -12l4 150v502v0v0zM170 422h128v408h-128v-408v0v0z" />
  </g>

</svg>
