<?xml version="1.0" standalone="no"?>
<!DOCTYPE svg PUBLIC "-//W3C//DTD SVG 1.1//EN" "http://www.w3.org/Graphics/SVG/1.1/DTD/svg11.dtd" >
<svg xmlns="http://www.w3.org/2000/svg" xmlns:xlink="http://www.w3.org/1999/xlink" version="1.1" viewBox="0 -154 1024 1024">
  <g transform="matrix(1 0 0 -1 0 870)">
   <path fill="currentColor"
d="M641 976l4 10q128 -65 118 -135q-1 -33 -21 -35t-23 31t-18 61q-15 29 -60 68zM492 980l68 -34q15 -10 5 -17q-16 1 -30 -6q-31 -44 -92 -117q-61 -74 -140 -128l-6 13q59 59 112 130t67 97q14 25 14 33t-7 23zM508 755l62 -36q15 -11 0 -15q-17 0 -25 -11
q-39 -61 -78 -110v-448l2 -57q3 -38 -47 -44q5 37 7 148v356q-63 -71 -124 -108l-8 11q93 93 150 181t58 101q2 14 -6 26zM534 473h177v288h-107q-27 1 -45 -13l-34 33h332l32 40l68 -50q17 -12 -6 -10h-198v-288h88l32 40l68 -50q17 -12 -6 -10h-182v-319h120l32 40l68 -50
q17 -12 -6 -10h-395q-27 1 -45 -13l-34 33h218v319h-99q-27 1 -45 -13zM44 272l-14 10q46 78 76 161q30 84 45 148q14 61 24 144h-71q-27 0 -45 -13l-34 33h165v193q0 21 -27 49l6 9l87 -36q14 -6 6 -11q-21 -9 -30 -21v-183h12l28 36l52 -46q15 -13 -6 -10h-86v-94
q46 -19 64 -32q20 -15 34 -36q15 -23 9 -45q-5 -24 -23 -22q-18 1 -23 34q-6 33 -25 52q-15 15 -36 29v-463l2 -99q0 -20 -13 -30q-12 -9 -38 -15q4 39 7 191v371q-8 -34 -17 -61q-28 -86 -56 -134q-27 -49 -73 -109z" />
  </g>

</svg>
