<?xml version="1.0" standalone="no"?>
<!DOCTYPE svg PUBLIC "-//W3C//DTD SVG 1.1//EN" "http://www.w3.org/Graphics/SVG/1.1/DTD/svg11.dtd" >
<svg xmlns="http://www.w3.org/2000/svg" xmlns:xlink="http://www.w3.org/1999/xlink" version="1.1" viewBox="0 -36 256 256">
  <g transform="matrix(1 0 0 -1 0 220)">
   <path fill="currentColor"
d="M183.5 119q-8.5 -9 -19.5 -20h56l12 12l16 -19h-103q16 -26 45.5 -43t55.5 -18v-4q-21 -3 -24 -13q-29 10 -49.5 31t-32.5 47h-6q0 -60 1 -78l-16 -6q1 18 1 84q-12 -20 -42 -44t-66 -36l-2 3q29 14 53.5 34.5t38.5 42.5h-60q-11 0 -21 -2l-10 9h67q0 6 -2 13.5t-17 17.5
l2 3q24 -6 30.5 -15t-3.5 -19h32v45q-54 -2 -89 -5v5q111 8 161 24l20 -17q-22 0 -38 -2t-40 -3v-47h23q16 23 20 44l24 -13q-9 -2 -17.5 -11zM220 208h-181q0 -16 -8.5 -20.5t-14 0t5 11.5t12.5 28h5v-12h86q-1 9 -5.5 15.5t-13.5 14.5l2 3q23 -8 29.5 -15t-4.5 -18h85l8 9
l17 -16q-13 -2 -31 -19l-3 2zM91 215h14q5 -46 -83 -53v4q73 12 69 49zM166 215v-26q0 -12 18 -11h4q25 -1 30.5 2.5t12 -1.5t3.5 -8.5t-29 -3.5h-28q-24 -2 -24 22v26h13z" />
  </g>

</svg>
