<?xml version="1.0" standalone="no"?>
<!DOCTYPE svg PUBLIC "-//W3C//DTD SVG 1.1//EN" "http://www.w3.org/Graphics/SVG/1.1/DTD/svg11.dtd" >
<svg xmlns="http://www.w3.org/2000/svg" xmlns:xlink="http://www.w3.org/1999/xlink" version="1.1" viewBox="0 -339 2048 2048">
  <g transform="matrix(1 0 0 -1 0 1709)">
   <path fill="currentColor"
d="M1377 666v-318q0 -31 4 -106q4 -74 7 -102q3 -33 3 -50q0 -22 -11 -33q-13 -13 -43 -13q-28 0 -41 11q-16 12 -16 30v581h-328q-116 0 -192 -8l-38 88q99 -23 230 -23h328v337h-333v-62q0 -21 -17 -31q-15 -8 -37 -8q-24 0 -35 12q-9 10 -9 34l12 203l-1 552
q-3 70 -10 106q-2 12 -7 30l122 -88h737l68 76l84 -54q27 -18 34 -29q6 -9 6 -19q0 -16 -12 -27q-11 -10 -30 -19q-16 -7 -36 -16v-503q0 -25 3 -79q2 -42 4 -61q4 -43 4 -58q0 -26 -15 -38q-17 -14 -46 -14q-27 0 -40 13q-7 8 -7 19l1 61h-343v-336h348l104 118l150 -116
q9 -7 15 -16q5 -8 5 -16q0 -10 -9 -18q-10 -10 -23 -10h-590zM947 1118h773v286h-773v-286zM947 1462h773v288h-773v-288zM521 1701l70 78l84 -54q29 -19 34 -31q3 -6 3 -13q0 -17 -21 -36q-15 -13 -57 -32v-760l48 -38q11 -9 16 -21q1 -3 1 -7q0 -7 -6 -16q-4 -6 -9 -6
h-417v-98q-1 -11 -7 -15q-11 -9 -35 -9q-17 0 -32 5q-19 6 -24 21q-6 15 -6 32l1 40q1 44 2 65q5 55 5 181v664q-2 72 -10 108q-3 13 -8 31l122 -89h246zM267 819h275v826h-275v-826z" />
  </g>

</svg>
