<?xml version="1.0" standalone="no"?>
<!DOCTYPE svg PUBLIC "-//W3C//DTD SVG 1.1//EN" "http://www.w3.org/Graphics/SVG/1.1/DTD/svg11.dtd" >
<svg xmlns="http://www.w3.org/2000/svg" xmlns:xlink="http://www.w3.org/1999/xlink" version="1.1" viewBox="0 -205 1024 1024">
  <g transform="matrix(1 0 0 -1 0 819)">
   <path fill="currentColor"
d="M492 762l52 -38h138v248l86 -30q12 -6 4 -18l-34 -16v-184h120l32 36l58 -42q12 -9 4 -14l-24 -22v-186l4 -86q3 -15 -14 -26q-18 -12 -44 -14v50h-136v-268l176 16q-25 50 -82 128l12 10q81 -70 118 -124q33 -53 36 -87q1 -32 -10 -44q-10 -12 -22 -12t-18 8
q-6 6 -12 38q-3 31 -14 62q-237 -36 -342 -58q-103 -20 -134 -46l-36 74l272 28v275h-136v-58q0 -12 -20 -24q-21 -12 -38 -12l4 92v344v0v0zM546 446h136v252h-136v-252v0v0zM738 698v-252h136v252h-136v0v0zM402 944q59 -54 62 -62q1 -8 -4 -10q-4 -1 -16 -2
q-11 0 -46 -26q-36 -24 -108 -110q24 -30 16 -56q-7 -25 -28 -22q-19 -1 -28 26q-6 27 -30 54q-24 26 -74 68l8 12l76 -38q26 -15 46 -32l96 140h-246q-15 0 -36 -8l-26 34h308l30 32v0v0zM396 624l28 30l52 -44q9 -8 0 -16q-24 -3 -38 -20q-16 -15 -58 -80l-14 8l38 96
h-100v-475q0 -33 -18 -54q-17 -18 -58 -34q-4 26 -22 40q-18 12 -84 38l4 16q74 -15 104 -16q30 0 28 20v361q-24 -60 -80 -152q-57 -91 -138 -172l-10 12q64 84 116 178q53 93 106 238h-130q-24 0 -50 -8l-22 34h346v0v0z" />
  </g>

</svg>
