<?xml version="1.0" standalone="no"?>
<!DOCTYPE svg PUBLIC "-//W3C//DTD SVG 1.1//EN" "http://www.w3.org/Graphics/SVG/1.1/DTD/svg11.dtd" >
<svg xmlns="http://www.w3.org/2000/svg" xmlns:xlink="http://www.w3.org/1999/xlink" version="1.1" viewBox="0 -205 1024 1024">
  <g transform="matrix(1 0 0 -1 0 819)">
   <path fill="currentColor"
d="M892 888l70 -52q6 -4 6 -14q0 -6 -44 -30q-9 -463 -12 -520q-1 -57 -10 -102q-9 -44 -38 -73q-28 -27 -80 -46q-17 42 -34 54q-18 13 -98 35l6 18q120 -28 154 -19q30 6 40 45q9 38 10 82q0 44 12 550h-206q-6 -256 -20 -382q-12 -127 -86 -232q-75 -104 -230 -187l-8 14
q121 85 188 175q65 87 82 208q16 119 20 404h-112q-22 0 -40 -8l-26 36h424l32 44v0v0zM322 914q8 -6 -4 -14q-21 -3 -32 -12q-12 -7 -54 -68t-108 -152l174 4q45 84 70 132l68 -44q7 -13 -10 -16q-18 -3 -30 -12q-13 -9 -74 -96q-60 -87 -162 -200l230 14q-15 47 -50 86
l12 12q51 -37 76 -68q24 -31 28 -58q4 -28 -6 -40q-11 -12 -22 -12q-12 -1 -18 8q-7 8 -10 20q0 9 -6 30q-113 -13 -178 -26q-64 -11 -100 -34l-42 66q27 3 58 16q62 68 154 202q-96 -11 -132 -22q-34 -10 -64 -28l-38 64q33 3 54 24t72 112q48 88 76 158l68 -46v0v0z
M146 330h20q6 -90 0 -138q-7 -47 -26 -73q-19 -24 -34 -28q-13 -4 -26 4q-13 7 -14 22q-1 16 20 35q17 20 32 46q12 24 18 52t10 80v0v0zM222 332l16 6q36 -51 52 -90q15 -39 16 -66q0 -25 -14 -38q-12 -10 -30 -2q-15 8 -12 44t-2 66q-6 29 -26 80v0v0zM348 358l16 6
q54 -49 76 -86q20 -37 20 -64q-1 -28 -16 -40q-12 -12 -30 -2q-16 8 -14 46q3 36 -8 64q-12 27 -44 76v0v0z" />
  </g>

</svg>
