<?xml version="1.0" standalone="no"?>
<!DOCTYPE svg PUBLIC "-//W3C//DTD SVG 1.1//EN" "http://www.w3.org/Graphics/SVG/1.1/DTD/svg11.dtd" >
<svg xmlns="http://www.w3.org/2000/svg" xmlns:xlink="http://www.w3.org/1999/xlink" version="1.1" viewBox="0 -36 256 256">
  <g transform="matrix(1 0 0 -1 0 220)">
   <path fill="currentColor"
d="M164 211q-2 15 -17 29l2 3q22 -10 26.5 -16.5t-3.5 -15.5h43l13 11l16 -18h-120q-10 0 -19 -2l-9 9h68zM139 189h57l6 8l14 -10l-6 -6q0 -24 1 -36l-13 -5v7h-59v-4l-13 -4q1 13 1 29t-1 28zM139 154h59v28h-59v-28zM218 32.5q4 0.5 4 10.5v77h-102v-104l-14 -6
q1 28 1 64t-1 60l15 -7h99l6 10l15 -11l-6 -8v-78q1 -23 -18 -29q-4 15 -29 19v4q26 -2 30 -1.5zM141 76.5q0 16.5 -1 31.5l13 -7h33l7 8l13 -11l-6 -5q0 -28 1 -43l-13 -5v10h-35v-6l-13 -4q1 15 1 31.5zM153 62h35v32h-35v-32zM40 97q12 -5 27 -12q12 34 16 83
q-14 -2 -26 -4q-3 -18 -17 -67zM67 220q-2 -10 -8 -44q12 0 24 2q1 11 0 22l17 -8q-3 -4 -4 -13h12l1 -5q-9 -2 -13 -3q-2 -22 -5.5 -45t-12.5 -47q15 -10 20.5 -17.5t2 -16.5t-9.5 1t-19 22q-21 -38 -59 -58l-1 4q33 27 50 61q-16 11 -36 18q10 33 18 70q-17 -3 -26 -6
l-6 16q18 0 34 2q8 45 9 65l18 -10z" />
  </g>

</svg>
