<?xml version="1.0" standalone="no"?>
<!DOCTYPE svg PUBLIC "-//W3C//DTD SVG 1.1//EN" "http://www.w3.org/Graphics/SVG/1.1/DTD/svg11.dtd" >
<svg xmlns="http://www.w3.org/2000/svg" xmlns:xlink="http://www.w3.org/1999/xlink" version="1.1" viewBox="0 -36 256 256">
  <g transform="matrix(1 0 0 -1 0 220)">
   <path fill="currentColor"
d="M134 202v4q30 7 51.5 17.5t28.5 17.5l14 -15q-6 -1 -15.5 -5t-26.5 -10v-50l24 7l7 14l19 -14l-50 -15v-50l33 10l9 13l16 -14l-58 -16v-51q0 -12 10 -12h22q8 0 10 8.5t3 35.5h4q1 -18 4 -29t9 -14q-8 -15 -21 -14h-37q-18 0 -18 21v52l-33 -9l-5 -4l-9 7l47 13v50
l-26 -6l-6 -5l-8 8l40 11v50zM79 169q18 18 27 32h-51q9 -18 24 -32zM73 236l-8 -5q-3 -7 -11 -23h53l8 9l14 -14l-9 -6q-13 -18 -34 -37q11 -8 23.5 -13t26.5 -7v-3q-11 -2 -18 -13q-21 11 -41 28q-27 -21 -63 -33l-1 3q39 20 57 39q-13 19 -20 38q-10 -18 -30 -39l-3 3
q13 19 22 41.5t13 42.5zM97 123l-11 -2q-34 -27 -65 -38l-1 3q20 12 36.5 26.5t24.5 26.5zM117 95l-8 -1q-21 -15 -41 -26.5t-48 -21.5l-1 4q24 11 46.5 27.5t36.5 32.5zM135 67l-7 -3q-42 -27 -68.5 -37.5t-45.5 -14.5v4q41 16 70 35t38 31z" />
  </g>

</svg>
