<?xml version="1.0" standalone="no"?>
<!DOCTYPE svg PUBLIC "-//W3C//DTD SVG 1.1//EN" "http://www.w3.org/Graphics/SVG/1.1/DTD/svg11.dtd" >
<svg xmlns="http://www.w3.org/2000/svg" xmlns:xlink="http://www.w3.org/1999/xlink" version="1.1" viewBox="0 -205 1024 1024">
  <g transform="matrix(1 0 0 -1 0 819)">
   <path fill="currentColor"
d="M174 714l62 -36h544l34 42l66 -52q3 -4 4 -8q0 -7 -38 -34v-460l4 -99q1 -12 -16 -24q-15 -12 -38 -16v72h-572v-28q0 -15 -18 -28q-18 -11 -36 -14l4 117v568v0v0zM224 127h572v523h-572v-523v0v0zM354 976l82 -28q12 -3 6 -12q0 -3 -36 -20v-72h206v130l84 -30
q12 -9 6 -14q0 -3 -38 -18v-68h194l46 56l70 -66q3 -3 4 -8q-1 -7 -16 -8h-298v-88q-1 -14 -22 -22q-21 -6 -30 -6v116h-206v-88q-2 -14 -22 -22q-9 -6 -30 -6v116h-218q-22 0 -70 -8l-18 34h306v132v0v0zM562 596q4 -3 2 -12q0 -3 -38 -20l-10 -74h134l34 46l60 -52
q3 -3 4 -8q0 -12 -12 -12h-222q-7 -36 -14 -54q75 -27 126 -60q52 -33 74 -62q21 -28 18 -52t-24 -30q-19 -6 -34 28q-13 33 -46 72q-33 38 -122 86q-28 -78 -82 -126t-150 -90l-6 14q75 48 114 84t66 90q23 51 32 100h-116q-21 0 -68 -8l-16 34h204q5 72 10 132l82 -26v0v0
z" />
  </g>

</svg>
