<?xml version="1.0" standalone="no"?>
<!DOCTYPE svg PUBLIC "-//W3C//DTD SVG 1.1//EN" "http://www.w3.org/Graphics/SVG/1.1/DTD/svg11.dtd" >
<svg xmlns="http://www.w3.org/2000/svg" xmlns:xlink="http://www.w3.org/1999/xlink" version="1.1" viewBox="0 -205 1024 1024">
  <g transform="matrix(1 0 0 -1 0 819)">
   <path fill="currentColor"
d="M860 874l44 56l70 -68l2 -6q0 -10 -8 -10h-724v-236q-6 -222 -44 -344q-37 -121 -154 -221l-14 12q87 92 124 217q33 125 34 350v306l58 -56h612v0v0zM266 566h270q10 98 8 262q94 -36 98 -42q2 -5 -4 -10q-6 -3 -38 -18q-1 -108 -10 -192h272l38 52l72 -60q3 -3 4 -8
q3 -12 -12 -12h-328q20 -114 56 -192q36 -75 118 -140q81 -63 180 -75v-20q-25 4 -56 -2q-31 -5 -56 -34q-61 34 -128 101q-66 69 -96 150q-30 82 -42 212h-26q-19 -162 -76 -258q-57 -98 -152 -157t-190 -86l-4 14q90 43 174 101q82 60 128 148q46 86 68 238h-184
q-21 0 -68 -8l-16 36v0v0zM694 776l8 12q84 -36 112 -62q27 -27 28 -50q3 -22 -8 -34q-11 -14 -28 -12q-16 2 -22 26q-6 21 -20 46q-13 22 -70 74v0v0z" />
  </g>

</svg>
