<?xml version="1.0" standalone="no"?>
<!DOCTYPE svg PUBLIC "-//W3C//DTD SVG 1.1//EN" "http://www.w3.org/Graphics/SVG/1.1/DTD/svg11.dtd" >
<svg xmlns="http://www.w3.org/2000/svg" xmlns:xlink="http://www.w3.org/1999/xlink" version="1.1" viewBox="0 -36 256 256">
  <g transform="matrix(1 0 0 -1 0 220)">
   <path fill="currentColor"
d="M89 159l-14 -8v11h-12v-45h11l9 11l14 -18h-34v-59l30 12l1 -4q-32 -15 -66 -32l-9 -7l-10 16l12 3q0 77 -1 97l20 -12l-7 -6v-75l18 5v114h-22v-6l-14 -7q1 14 1 43t-1 48l16 -10h42l9 11l13 -16l-7 -6q0 -40 1 -60zM29 169h46v54h-46v-54zM130 244l15 -17l-6 -4
q-26 -43 -46 -59l-2 3q25 32 39 77zM133 177l13 -15l-6 -4q-25 -40 -48 -61l-2 4q28 35 43 76zM139 118l14 -17l-8 -5q-28 -44 -63 -72l-3 3q38 39 60 91zM167 156h55v31h-55v-31zM167 118h55v31h-55v-31zM167 79h55v32h-55v-32zM183 228h-9q-10 -1 -19 -3l-9 10h77l11 10
l15 -17h-52l-17 -34h42l8 8l13 -14l-8 -6q0 -89 1 -115l-14 -6v11h-55v-8l-14 -6q1 21 1 73.5t-1 69.5l13 -7h8zM188 50l-8 -3q-30 -30 -45 -41l-2 4q34 37 40 56zM235 39.5q9 -10.5 4 -23.5t-11 4.5t-22 38.5l2 3q18 -12 27 -22.5z" />
  </g>

</svg>
