<?xml version="1.0" standalone="no"?>
<!DOCTYPE svg PUBLIC "-//W3C//DTD SVG 1.1//EN" "http://www.w3.org/Graphics/SVG/1.1/DTD/svg11.dtd" >
<svg xmlns="http://www.w3.org/2000/svg" xmlns:xlink="http://www.w3.org/1999/xlink" version="1.1" viewBox="0 -205 1024 1024">
  <g transform="matrix(1 0 0 -1 0 819)">
   <path fill="currentColor"
d="M276 776h306v206l80 -30q6 0 12 -6q1 -12 -4 -14l-38 -16v-140h246l34 44l60 -54q3 -4 4 -10q0 -8 -12 -6h-332v-114h194l34 36l50 -38q9 -3 10 -12q0 -7 -36 -34v-479q3 -34 -12 -56q-15 -18 -60 -28q-4 33 -32 44q-27 11 -68 22l2 18q78 -13 88 -12q11 -1 22 4
q9 3 10 26v149h-202v-128l4 -79q0 -18 -24 -30q-23 -12 -34 -12l4 125v124h-192v-124l4 -77q0 -19 -24 -32q-24 -12 -36 -10l6 119v530l64 -46h178v114h-222q-18 0 -66 -8l-18 34v0v0zM390 302h192v140h-192v-140v0v0zM632 302h202v140h-202v-140v0v0zM390 468h192v142h-192
v-142v0v0zM632 468h202v142h-202v-142v0v0zM716 946q69 -25 94 -44q25 -17 32 -34q7 -18 2 -30q-4 -12 -14 -18t-22 -2q-9 2 -18 22q-8 20 -22 38q-13 19 -58 56l6 12v0v0zM338 934q12 -8 -2 -16q-27 -2 -42 -34q-52 -99 -106 -204l50 -20q15 -9 -2 -18l-18 -10v-482l4 -93
q0 -17 -24 -32q-21 -13 -36 -12l4 131v496q-75 -127 -146 -196l-12 8q66 96 150 270q81 174 102 252l78 -40v0v0z" />
  </g>

</svg>
