<?xml version="1.0" standalone="no"?>
<!DOCTYPE svg PUBLIC "-//W3C//DTD SVG 1.1//EN" "http://www.w3.org/Graphics/SVG/1.1/DTD/svg11.dtd" >
<svg xmlns="http://www.w3.org/2000/svg" xmlns:xlink="http://www.w3.org/1999/xlink" version="1.1" viewBox="0 -36 256 256">
  <g transform="matrix(1 0 0 -1 0 220)">
   <path fill="currentColor"
d="M234.5 166q2.5 2 7 -0.5t5.5 -8t-14 -4.5h-21q-14 0 -14 15v56h-32q-1 -36 -9 -53.5t-26 -34.5l-2 3q19 27 21 54.5t1 45.5l14 -9h33l7 10l13 -12l-7 -6v-47q0 -11 7 -11h10q4 0 6.5 2zM210 133l7 10l15 -16q-5 -2 -15 -21.5t-27 -47.5q16 -16 31 -23t24 -8v-3
q-11 -2 -18 -12q-15 8 -27 18.5t-18 17.5q-16 -16 -31.5 -25t-35.5 -15l-1 4q20 10 35 21.5t25 25.5q-17 30 -23 65l-2 -4l-13 13h74zM182 71q11 15 28 53h-53q10 -33 25 -53zM68 247l22 -7l-7 -7v-10h31l9 9l15 -15h-55v-24h25l9 9l15 -15h-81q-11 0 -18 -2l-9 8h45v24h-30
q-11 0 -18 -2l-9 8h57q0 13 -1 24zM24.5 153q-7.5 -4 -12 0.5t4 9t13.5 17.5h3v-8h87l7 7l13 -12q-10 -1 -24 -16l-3 2l8 13h-88q-1 -9 -8.5 -13zM97 149l9 9l15 -15h-67q-11 0 -18 -2l-9 8h70zM119 58l-14 -5v9h-26v-7q19 -6 28 -10.5t12 -9.5t0 -11.5t-11.5 4.5t-28.5 22
q0 -16 1 -35l-14 -8q1 25 1 44q-8 -10 -25.5 -22t-30.5 -16l-1 3q14 8 26.5 19.5t21.5 26.5h-17v-5l-14 -5q1 16 1 26t-1 27l14 -7h26v14h-25q-11 0 -18 -2l-9 8h52q0 12 -1 24l20 -9l-6 -9v-6h24l9 9l15 -15h-49v-14h25l6 9l14 -10l-6 -8q0 -16 1 -31zM41 68h26v24h-26v-24
zM79 68h26v24h-26v-24z" />
  </g>

</svg>
