<?xml version="1.0" standalone="no"?>
<!DOCTYPE svg PUBLIC "-//W3C//DTD SVG 1.1//EN" "http://www.w3.org/Graphics/SVG/1.1/DTD/svg11.dtd" >
<svg xmlns="http://www.w3.org/2000/svg" xmlns:xlink="http://www.w3.org/1999/xlink" version="1.1" viewBox="0 -205 1024 1024">
  <g transform="matrix(1 0 0 -1 0 819)">
   <path fill="currentColor"
d="M108 990l52 -42h212l26 40l62 -44q6 -6 -2 -14l-20 -16v-118l4 -72q1 -16 -16 -26q-18 -9 -38 -12v36h-230v-550l4 -105q1 -15 -22 -30q-24 -12 -36 -12l4 143v822v0v0zM874 984l64 -42q7 -4 8 -10q0 -6 -14 -14l-16 -12v-771q2 -48 -16 -76q-18 -23 -60 -38
q-9 30 -30 42q-21 15 -96 36l4 18q76 -14 98 -16q21 0 34 6q12 6 12 32v583h-222v-16q-7 -9 -22 -14q-15 -6 -32 -6l4 110v184l46 -34h206l32 38v0v0zM640 920v-72h224v72h-224v0v0zM640 822v-72h224v72h-224v0v0zM160 922v-74h228v74h-228v0v0zM160 822v-74h228v74h-228v0
v0zM254 634h422l32 36l62 -42q3 0 4 -6q0 -12 -12 -12h-260l-26 -80h154l32 34l50 -34q6 -3 6 -12q1 -3 -34 -26l-12 -78h66l26 34l52 -38q8 -4 8 -8q4 -12 -12 -12h-524q-21 0 -50 -8l-22 32h176l32 92h-74q-25 0 -46 -8l-26 32h152l24 80h-116q-21 0 -68 -8l-16 32v0v0z
M436 414h190l14 92h-172l-32 -92v0v0zM324 346l52 -30h260l30 30l50 -30q12 -6 12 -14q0 -3 -32 -24v-98l4 -35q1 -12 -16 -22q-16 -9 -34 -12v39h-280v-19q0 -12 -18 -22q-18 -9 -32 -10l4 85v162v0v0zM370 174h280v118h-280v-118v0v0z" />
  </g>

</svg>
