<?xml version="1.0" standalone="no"?>
<!DOCTYPE svg PUBLIC "-//W3C//DTD SVG 1.1//EN" "http://www.w3.org/Graphics/SVG/1.1/DTD/svg11.dtd" >
<svg xmlns="http://www.w3.org/2000/svg" xmlns:xlink="http://www.w3.org/1999/xlink" version="1.1" viewBox="0 -36 256 256">
  <g transform="matrix(1 0 0 -1 0 220)">
   <path fill="currentColor"
d="M39 236l18 -9h157l15 13l17 -20h-189v-77q0 -50 -10.5 -79.5t-35.5 -55.5l-3 2q17 24 24.5 51.5t7.5 70.5v71q0 14 -1 33zM103 197l8 11l16 -15q-6 -3 -17.5 -21t-21.5 -34h20l8 12l15 -13l-7 -8q-9 -38 -20 -60q17 -16 32 -21.5t38.5 -8t71.5 1.5v-5q-17 -4 -19 -15
q-24 0 -50.5 2.5t-46 11.5t-32.5 24q-12 -15 -26 -26t-27 -17l-2 4q29 21 46 49q-14 21 -22 42l4 2q15 -24 23 -32q9 21 14 50h-22l-9 -7l-11 13q9 4 19.5 20.5t16.5 32.5h-8l-20 -4l-10 11h39zM181.5 193.5q15.5 5.5 28.5 12.5l15 -17q-10 0 -35 -5v-46h12l11 11l18 -18
h-41v-57h19l13 12l18 -19h-89q-4 0 -14 -3l-9 10h47v57h-9q-7 0 -17 -3l-10 10h36v44q-20 -2 -39 -3v4q30 5 45.5 10.5z" />
  </g>

</svg>
