<?xml version="1.0" standalone="no"?>
<!DOCTYPE svg PUBLIC "-//W3C//DTD SVG 1.1//EN" "http://www.w3.org/Graphics/SVG/1.1/DTD/svg11.dtd" >
<svg xmlns="http://www.w3.org/2000/svg" xmlns:xlink="http://www.w3.org/1999/xlink" version="1.1" viewBox="0 -36 256 256">
  <g transform="matrix(1 0 0 -1 0 220)">
   <path fill="currentColor"
d="M89 159l-13 -8v12h-12v-45h12l10 9l12 -16h-34v-56l30 11l2 -4l-32 -15l-34 -16l-10 -8l-11 15l14 4q0 75 -1 97l19 -12l-6 -7v-74l17 6v111h-21v-7l-14 -7q1 14 1 43t-1 47l14 -9h45l8 8l11 -12l-7 -5q0 -41 1 -62zM31 170h45v53h-45v-53zM168 72q7 -16 19 -26v91h-21
q-10 0 -19 -3l-9 10h49v47h-14l-11 -3l-10 10h35q0 37 -1 50l20 -10l-6 -6v-34h13l11 10l16 -17h-40v-47h19l12 11l15 -18h-46v-39h17l10 10l15 -17h-42v-52q18 -9 48 -10v-4q-13 -4 -14 -14q-22 5 -38.5 14.5t-29.5 37.5q-2 -17 -12 -31.5t-27 -24.5l-2 2q16 17 23 35.5
t7 36t-1 36.5l20 -13l-6 -5v-27zM137 219q-23 -41 -43 -58l-3 2q13 19 22 37.5t14 37.5l18 -13zM90 91l-3 3q16 20 26.5 42.5t18.5 46.5l16 -12l-6 -4q-8 -17 -16 -33l8 -6l-6 -6v-77q0 -14 1 -30l-14 -8q1 22 1 113q-8 -13 -26 -29z" />
  </g>

</svg>
