<?xml version="1.0" standalone="no"?>
<!DOCTYPE svg PUBLIC "-//W3C//DTD SVG 1.1//EN" "http://www.w3.org/Graphics/SVG/1.1/DTD/svg11.dtd" >
<svg xmlns="http://www.w3.org/2000/svg" xmlns:xlink="http://www.w3.org/1999/xlink" version="1.1" viewBox="0 -36 256 256">
  <g transform="matrix(1 0 0 -1 0 220)">
   <path fill="currentColor"
d="M158 208q-10 0 -20 -2l-9 9h35q0 18 -1 31l23 -9l-8 -6v-16h36l12 11l15 -18h-63q0 -5 1 -17l-16 -7q1 19 1 24h-6zM71 62q6 6 4 17t-9 21t-19 19l24 48h-31v-116q0 -33 1 -39l-16 -5q1 28 1 40v90q0 20 -1 47l14 -10h34l9 9l14 -15q-8 -3 -15 -12.5t-24 -34.5
q26 -18 30.5 -36.5t-2.5 -29.5t-21 -16q-1 6 -5.5 9.5t-16.5 5.5v5q23 -3 29 3zM118 157q20 -4 26.5 -9t0.5 -13.5t-11 0.5t-18 19zM186 161l18 -11l-8 -4q-11 -9 -20 -17h37l13 11l16 -18h-75v-15h34l12 10l15 -17h-61v-10l-14 -4v14h-31q-11 0 -20 -2l-10 9h61v15h-45
q-10 0 -20 -2l-9 9h90q12 17 17 32zM215 179l15 -18h-98q-10 0 -22 -3l-9 10h55q-3 13 -18 22l2 3q26 -6 29 -13.5t-6 -11.5h41zM177 65h-40l-13 -16l38 -5q5 4 15 21zM169 32q-42 -24 -98 -24v4q54 8 82 25q-18 3 -47 8l16 20h-9q-10 0 -20 -2l-9 9h42q7 11 12 23l19 -12
l-8 -1l-7 -10h38l7 14l16 -9l-6 -5h18l13 10l16 -17h-50q-8 -13 -18 -24q31 -6 43.5 -11.5t12.5 -15.5t-8 -5t-18 10t-37 13zM124 208h-39q0 -7 1 -17l-16 -6q1 13 1 23h-26q-10 0 -20 -2l-9 9h55q0 20 -1 31l22 -8l-7 -7v-16h13l12 11z" />
  </g>

</svg>
