<?xml version="1.0" standalone="no"?>
<!DOCTYPE svg PUBLIC "-//W3C//DTD SVG 1.1//EN" "http://www.w3.org/Graphics/SVG/1.1/DTD/svg11.dtd" >
<svg xmlns="http://www.w3.org/2000/svg" xmlns:xlink="http://www.w3.org/1999/xlink" version="1.1" viewBox="0 -36 256 256">
  <g transform="matrix(1 0 0 -1 0 220)">
   <path fill="currentColor"
d="M39 228h74l6 10l15 -12l-7 -7v-22q0 -14 1 -20l-14 -5v8h-75v-39q0 -33 -5 -66.5t-22 -58.5l-3 1q17 43 16 121v60q0 16 -1 38zM39 187h75v34h-75v-34zM43 161q19 -14 23.5 -23t-2 -17t-9.5 6t-15 32zM77 176l21 -8l-8 -7v-51h18l11 9l14 -16h-43v-10q26 -15 34 -23
t3.5 -19.5t-12 3.5t-25.5 33v-35q0 -18 1 -35l-15 -6q1 16 1 33v41q-12 -25 -45 -53l-2 3q32 39 40 68h-5q-8 0 -17 -3l-9 10h38v66zM118 138q-7 -9 -21 -24l-3 2q16 25 22 47l17 -12q-8 -4 -15 -13zM176 245l23 -8l-8 -8v-32h24l13 10l16 -18h-53v-48h20l13 12l17 -19h-80
q-10 0 -19 -2l-9 9h44v48h-20q-10 0 -19 -2l-9 10h48q0 26 -1 48zM143 63q0 29 -1 52l15 -8h57l7 10l15 -12l-6 -8v-49q0 -10 1 -25l-15 -7v15h-59v-11l-15 -7q1 21 1 50zM157 38h59v61h-59v-61z" />
  </g>

</svg>
