<?xml version="1.0" standalone="no"?>
<!DOCTYPE svg PUBLIC "-//W3C//DTD SVG 1.1//EN" "http://www.w3.org/Graphics/SVG/1.1/DTD/svg11.dtd" >
<svg xmlns="http://www.w3.org/2000/svg" xmlns:xlink="http://www.w3.org/1999/xlink" version="1.1" viewBox="0 -205 1024 1024">
  <g transform="matrix(1 0 0 -1 0 819)">
   <path fill="currentColor"
d="M894 964l58 -42q7 -4 8 -10q-1 -3 -34 -32v-112l4 -100q2 -35 -16 -46q-17 -12 -40 -14v70h-350q3 -166 -20 -298q-24 -132 -74 -212q-48 -77 -144 -141l-10 14q75 64 120 143q42 80 60 206q17 126 14 288v288l64 -44h330l30 42v0v0zM524 896v-192h350v192h-350v0v0z
M604 616l84 -32q12 -9 0 -14l-30 -16v-202q120 71 234 170q63 -50 60 -58q-3 -6 -6 -6h-18t-86 -38q-73 -39 -184 -96v-189q0 -35 12 -38q12 -2 24 -2h184q18 0 34 6q15 4 24 32q6 22 10 131h18q4 -69 8 -98q3 -29 30 -41q-7 -27 -22 -46q-15 -18 -32 -24q-18 -3 -38 -6
h-216q-29 0 -52 6q-21 4 -30 22q-7 15 -8 54v485v0v0zM48 734h166v246l82 -32q12 -6 4 -14l-34 -16v-184h72l40 44l50 -54q12 -15 -8 -18h-154v-184l138 82l10 -16l-148 -108v-353q2 -36 -16 -64q-19 -24 -64 -40q-6 36 -36 50q-28 15 -76 32l4 16q94 -26 116 -20
q20 6 20 32v317q-81 -63 -96 -80q-12 -15 -30 -36l-54 54l180 108v210h-94q-21 -1 -50 -10l-22 38v0v0z" />
  </g>

</svg>
