<?xml version="1.0" standalone="no"?>
<!DOCTYPE svg PUBLIC "-//W3C//DTD SVG 1.1//EN" "http://www.w3.org/Graphics/SVG/1.1/DTD/svg11.dtd" >
<svg xmlns="http://www.w3.org/2000/svg" xmlns:xlink="http://www.w3.org/1999/xlink" version="1.1" viewBox="0 -205 1024 1024">
  <g transform="matrix(1 0 0 -1 0 819)">
   <path fill="currentColor"
d="M772 538v-392q-1 -41 14 -49q14 -5 40 -8h54q26 4 38 16q11 10 14 28q0 16 6 137h18q3 -91 12 -116q8 -22 32 -37q-18 -48 -42 -60q-24 -10 -62 -12h-100q-45 3 -60 20q-13 16 -16 64v409h-134q-3 -159 -20 -240q-18 -82 -90 -161q-72 -78 -188 -124l-6 14
q108 64 168 141q57 78 70 150q12 69 12 220h-62q-37 0 -52 -12l-22 40h236v400q87 -25 90 -32q0 -6 -2 -8q-3 -4 -36 -22v-338h170l40 50q69 -62 70 -70q-1 -9 -10 -8h-182v0v0zM420 804l8 12q68 -41 104 -76q33 -33 42 -56q7 -24 0 -42q-6 -19 -26 -20q-21 -1 -24 14
q-4 12 -16 46q-12 32 -36 62q-22 30 -52 60v0v0zM854 848q65 -39 68 -44t0 -10q-3 -3 -20 -8q-16 -3 -44 -50q-27 -45 -102 -150l-18 10q55 105 116 252v0v0zM22 854h292l34 50l58 -56q3 -3 4 -8q0 -12 -12 -12h-166v-260h62l36 44l52 -54q3 -2 4 -4q0 -12 -8 -12h-146v-304
l186 54l8 -14q-300 -115 -324 -130q-21 -13 -42 -35l-46 61l168 52v316h-72q-20 0 -64 -8l-16 34h152v260h-88q-21 0 -56 -8l-16 34v0v0z" />
  </g>

</svg>
