<?xml version="1.0" standalone="no"?>
<!DOCTYPE svg PUBLIC "-//W3C//DTD SVG 1.1//EN" "http://www.w3.org/Graphics/SVG/1.1/DTD/svg11.dtd" >
<svg xmlns="http://www.w3.org/2000/svg" xmlns:xlink="http://www.w3.org/1999/xlink" version="1.1" viewBox="0 -36 256 256">
  <g transform="matrix(1 0 0 -1 0 220)">
   <path fill="currentColor"
d="M35 204v-121h27v121h-27zM22 78v96q0 24 -1 46l15 -9h25l7 10l15 -14l-8 -8v-108q0 -10 1 -27l-14 -8v20h-27v-22l-14 -7q1 15 1 31zM238 114q-5 -3 -30.5 -2.5t-30 6.5t-4.5 11v21h14v-17q1 -10 17.5 -10t20.5 2.5t11 -3t2 -8.5zM170 52q35 -24 75 -27v-3
q-13 -2 -19 -12q-34 8 -66 34q-43 -28 -92 -35v4q45 12 82 40q-16 15 -27 30q-24 -16 -40 -22l-1 4q18 12 34 27l-8 14l3 2l10 -11q13 14 20 27l14 -12q-7 -6 -16 -14h50l7 8l15 -14l-8 -6q-17 -18 -33 -34zM133 91l-5 -4q19 -19 31 -27q11 9 28 31h-54zM120 117.5
q-19 -10.5 -37 -13.5v4q22 9 33 19t13 23h16q-6 -22 -25 -32.5zM111 155h97v53h-97v-53zM222 166q0 -7 1 -21l-15 -5v8h-97v-4l-15 -5q1 20 1 41.5t-1 41.5l15 -7h18q13 21 15 30l20 -10q-13 -4 -29 -20h72l7 9l15 -10l-7 -8v-40zM163 188q11 9 20 19l15 -13l-8 -2l-16 -10
q25 -7 23.5 -17.5t-9.5 -4t-25 14.5q-23 -12 -45 -17v4q14 6 35 19q-7 5 -29 12l1 4q14 -3 38 -9z" />
  </g>

</svg>
