<?xml version="1.0" standalone="no"?>
<!DOCTYPE svg PUBLIC "-//W3C//DTD SVG 1.1//EN" "http://www.w3.org/Graphics/SVG/1.1/DTD/svg11.dtd" >
<svg xmlns="http://www.w3.org/2000/svg" xmlns:xlink="http://www.w3.org/1999/xlink" version="1.1" viewBox="0 -246 2048 2048">
  <g transform="matrix(1 0 0 -1 0 1802)">
   <path fill="currentColor"
d="M1313 484v-113h-106v583q67 -28 122 -59h275l69 84q123 -89 123 -119q0 -12 -21 -26l-47 -31v-401h-106v82h-309zM1313 535h309v309h-309v-309zM638 484v-113h-104v581q80 -33 123 -57h269l65 80q120 -84 120 -115q0 -14 -16 -24l-47 -31v-405h-104v84h-306zM638 535h306
v309h-306v-309zM858 1096v-90h-111v534q74 -31 140 -65h450l73 88q126 -85 126 -119q0 -13 -15 -22l-53 -37v-367h-113v78h-497zM858 1147h497v277h-497v-277zM383 264h1268l114 147q86 -79 150 -155l-25 -43h-1507v-118h-121v1236q201 -9 201 -53q0 -26 -80 -53v-961z
M592 1702h999l113 141q90 -77 151 -151l-18 -41h-1284q-118 -152 -305 -279l-33 39q249 229 352 522q180 -51 180 -90q0 -20 -92 -32q-26 -54 -63 -109z" />
  </g>

</svg>
