<?xml version="1.0" standalone="no"?>
<!DOCTYPE svg PUBLIC "-//W3C//DTD SVG 1.1//EN" "http://www.w3.org/Graphics/SVG/1.1/DTD/svg11.dtd" >
<svg xmlns="http://www.w3.org/2000/svg" xmlns:xlink="http://www.w3.org/1999/xlink" version="1.1" viewBox="0 -205 1024 1024">
  <g transform="matrix(1 0 0 -1 0 819)">
   <path fill="currentColor"
d="M94 592h714l40 50l62 -58q3 -3 4 -8q0 -12 -12 -12h-362v-479h296l42 52l66 -58q3 -4 4 -8q-1 -12 -16 -12h-796q-19 1 -68 -8l-16 34h434v479h-320q-21 0 -48 -8l-24 36v0v0zM100 135q82 143 116 225q33 81 66 178l74 -34q9 -7 0 -16q-19 -3 -32 -18q-12 -13 -42 -74
q86 -61 112 -94q23 -31 26 -56q2 -25 -10 -38q-11 -13 -28 -10q-15 3 -20 30q-3 26 -18 58t-72 92q-61 -129 -158 -253l-14 10v0v0zM564 135q69 128 96 211q27 81 52 180l78 -30q9 -7 0 -16q-19 -3 -32 -18q-11 -13 -34 -80q92 -54 118 -84q24 -30 28 -56q2 -25 -10 -38
q-11 -13 -28 -10q-15 3 -20 28q-6 24 -20 58q-15 33 -78 84q-53 -130 -136 -239l-14 10v0v0zM326 912q10 -9 0 -18q-24 -6 -32 -12q-7 -7 -20 -22q-12 -13 -42 -58h184l42 52l60 -62q9 -16 -8 -16h-200q37 -36 50 -54q12 -16 18 -38q6 -21 -6 -38q-12 -18 -30 -12
q-18 5 -20 34q0 26 -8 50q-6 23 -32 58h-68q-72 -112 -146 -184l-14 12q65 90 118 180t82 166l72 -38v0v0zM700 904q10 -9 0 -18q-24 -6 -32 -12q-7 -7 -20 -22q-12 -13 -38 -50h246l42 52l60 -62q9 -16 -8 -16h-228q42 -36 60 -56q14 -20 20 -40q3 -21 -8 -38
q-9 -18 -30 -12q-20 5 -22 32q-1 27 -10 54q-9 24 -38 60h-102q-70 -111 -130 -168l-14 12q51 75 102 162q48 84 78 160l72 -38v0v0z" />
  </g>

</svg>
