<?xml version="1.0" standalone="no"?>
<!DOCTYPE svg PUBLIC "-//W3C//DTD SVG 1.1//EN" "http://www.w3.org/Graphics/SVG/1.1/DTD/svg11.dtd" >
<svg xmlns="http://www.w3.org/2000/svg" xmlns:xlink="http://www.w3.org/1999/xlink" version="1.1" viewBox="0 -36 256 256">
  <g transform="matrix(1 0 0 -1 0 220)">
   <path fill="currentColor"
d="M9 8l-3 4q35 43 32 128v43q0 23 -1 46l19 -12h76q1 15 -14 27l1 3q46 -18 21 -30h74l14 13l17 -20h-193v-75q3 -83 -43 -127zM89 185q-11 0 -20 -2l-9 9h147l11 10l16 -17h-80l-11 -14h14l6 6l11 -11l-5 -4v-51l1 -9l-14 -6v5h-20v-1l-13 -4q1 10 1 50q0 17 -1 29l13 -4
l4 14h-51zM125 97l19 -10l-8 -2l-8 -7h44l8 7l15 -14l-9 -3q-11 -14 -27 -25q37 -15 85 -16l1 -3q-19 -3 -19 -14q-43 6 -78 25q-41 -21 -98 -26v5q55 10 85 28q-12 9 -24 19q-13 -12 -37 -24l-2 4q36 27 53 56zM146 49q14 10 25 22h-48l-7 -6q14 -10 30 -16zM136 108h20v12
h-20v-12zM136 141v-14h20v14h-20zM156 164h-20v-16h20v16zM113 90l-10 -2q-24 -21 -49 -33l-3 4q32 24 43 44zM174 103q52 -16 49 -30.5t-9 -7.5t-14 14.5t-28 20.5zM72 173l10 -7q19 8 27 17l11 -14q-10 0 -18 -2.5t-17 -5.5v-19h16l8 8l11 -15h-35v-22h17l6 9l12 -16h-35
v-3l-13 -6q1 12 1 34.5t-1 41.5zM206 134q-9 0 -19 -2l-9 9h30v19h-3q-10 0 -20 -2l-9 9h34l5 7l12 -11l-7 -5v-33q0 -6 2 -20l-14 -5v8h-3q-10 0 -20 -2l-9 9h32v19h-2z" />
  </g>

</svg>
