<?xml version="1.0" standalone="no"?>
<!DOCTYPE svg PUBLIC "-//W3C//DTD SVG 1.1//EN" "http://www.w3.org/Graphics/SVG/1.1/DTD/svg11.dtd" >
<svg xmlns="http://www.w3.org/2000/svg" xmlns:xlink="http://www.w3.org/1999/xlink" version="1.1" viewBox="0 -36 256 256">
  <g transform="matrix(1 0 0 -1 0 220)">
   <path fill="currentColor"
d="M26 171.5q0 32.5 -1 66.5l13 -7h61l11 10l14 -17h-45v-29h14l11 10l13 -17h-38v-28h12l11 9l14 -16h-37v-31l23 1l9 9l13 -14l-7 -5q-5 -62 -8.5 -74.5t-11 -19t-16.5 -9.5q-1 12 -27 19l1 4q24 -3 30.5 -2t10.5 13t7 72l-64 -2v-6l-14 -4q1 35 1 67.5zM39 195h27v29h-27
v-29zM39 160h27v28h-27v-28zM39 121l27 1v31h-27v-32zM24 89q4 -20 2 -29t-6.5 -12.5t-9 -0.5t2 12.5t6.5 29.5h5zM37 93q8 -11 11.5 -19t1.5 -14.5t-7 -7.5t-4 11.5t-6 28.5zM53 98q20 -16 23 -22.5t0 -10.5t-7 -4.5t-5 8.5t-14 27zM75 103q14 -9 18.5 -16.5t3 -12t-6 -7
t-6.5 6.5t-12 27zM207 226q2 -99 15 -146t26 -54v-4q-14 1 -19 -6q-17 33 -23 82t-5 126q-18 -5 -31 -9l15 -11l-6 -6v-153l17 7q-3 9 -9 18l4 2q16 -16 20.5 -25t-1.5 -17.5t-7.5 -0.5t-4.5 18q-15 -9 -25 -25l-12 14q7 7 6 15v139q0 12 -1 24l-18 -5q1 -109 -11.5 -143
t-38.5 -58l-2 3q20 25 31 64t7 150l14 -9q52 17 66 31l15 -17q-8 0 -22 -4z" />
  </g>

</svg>
