<?xml version="1.0" standalone="no"?>
<!DOCTYPE svg PUBLIC "-//W3C//DTD SVG 1.1//EN" "http://www.w3.org/Graphics/SVG/1.1/DTD/svg11.dtd" >
<svg xmlns="http://www.w3.org/2000/svg" xmlns:xlink="http://www.w3.org/1999/xlink" version="1.1" viewBox="0 -205 1048 1024">
  <g transform="matrix(1 0 0 -1 0 819)">
   <path fill="currentColor"
d="M264 668l46 -23h408l26 23l39 -22q23 -14 15 -23q-4 -5 -24 -8v-1v-59v-8q2 -13 0 -17q-4 -8 -17 -12q-21 -5 -26 1q-4 3 -3 15l1 6h-417v-8q1 -9 -1 -12q-4 -6 -18 -11q-19 -4 -24 2q-3 4 -3 19l1 9v81zM312 556h417v72h-417v-72zM427 715v-16h-221v16h221zM426 787v-15
h-220v15h220zM908 896l55 -42q22 -17 14 -24q-9 -6 -47 -4l-81 -83l-12 7l51 96h-345v-111l1 -18q2 -13 -1 -17q-5 -7 -25 -17q-18 -5 -22 2q-2 4 -1 25l1 2v134h-332q-3 -47 -13 -78q-10 -28 -29 -57q-16 -15 -26 -8q-12 9 -15 51q0 11 6 20q4 5 14 16q21 23 31 40
q16 31 20 77l12 3v-49h332v78h-242l-68 -3l-13 22l67 -2h527l37 34l51 -31q13 -9 7 -14q-4 -6 -19 -6h-282q9 -7 7 -11q-3 -4 -25 -6v-61h325zM823 788v-15h-203v15h203zM863 718v-17h-242v17h242zM212 500l52 -27h514l31 27l37 -27q23 -19 22 -27q-1 -9 -32 -13v-290
q0 -37 -21 -59q-22 -25 -74 -35q-4 29 -22 41q-20 15 -74 25l-3 12l104 -5q24 0 33 5q9 6 9 20v89h-521v-125v-6q0 -20 -4 -27q-5 -12 -24 -19q-17 -5 -21 0q-2 4 -2 21l1 10v348zM267 457v-101h521v101h-521zM267 337v-85h521v85h-521z" />
  </g>

</svg>
