<?xml version="1.0" standalone="no"?>
<!DOCTYPE svg PUBLIC "-//W3C//DTD SVG 1.1//EN" "http://www.w3.org/Graphics/SVG/1.1/DTD/svg11.dtd" >
<svg xmlns="http://www.w3.org/2000/svg" xmlns:xlink="http://www.w3.org/1999/xlink" version="1.1" viewBox="0 -205 1024 1024">
  <g transform="matrix(1 0 0 -1 0 819)">
   <path fill="currentColor"
d="M554 398q13 -3 12 -12l-32 -18q0 -99 -18 -162q-15 -60 -60 -107q-42 -47 -144 -94l-8 14q75 49 114 92q39 42 54 105q16 62 12 212l70 -30v0v0zM626 432l76 -28q3 -3 4 -6q0 -4 -6 -8l-26 -18v-212l4 -99q1 -14 -16 -26q-16 -14 -40 -14l4 139v272v0v0zM782 430l72 -30
q6 -3 6 -6q3 -5 -6 -10l-24 -10v-249q0 -33 12 -36q11 -3 22 -4h36q22 6 26 42q3 34 6 127h20l4 -84q4 -50 32 -63q-12 -33 -26 -46q-15 -12 -38 -16h-70q-27 -1 -42 4q-12 4 -24 26q-6 15 -6 50v305v0v0zM606 908q-15 -20 -44 -76h302l40 50l60 -60q2 -5 2 -10q0 -7 -8 -8
h-414q-40 -72 -112 -162l-16 12q40 60 86 154q44 94 74 182q80 -39 80 -44q1 -6 -4 -8q-4 -3 -16 -6t-30 -24v0v0zM616 644q44 -24 52 -30q7 -5 2 -10q-6 -4 -18 -4t-36 -18q-23 -18 -106 -84l320 18q-35 38 -82 68l8 12q74 -29 112 -58q38 -27 44 -54q7 -25 -4 -38
q-9 -14 -24 -12q-15 3 -24 24q-6 20 -18 38q-202 -19 -262 -28t-98 -26l-34 62q33 3 52 16q71 66 116 124v0v0zM848 674l38 48l54 -52q3 -3 4 -8q4 -12 -12 -12h-380q-21 0 -68 -8l-16 32h380v0v0zM612 786l6 12q74 -27 92 -44q15 -15 16 -32q0 -15 -8 -26q-10 -10 -22 -8
q-13 0 -20 16q-6 14 -12 32q-7 16 -52 50v0v0zM366 786l38 50l60 -60q3 -4 4 -4q0 -12 -12 -12h-236v-170h94l28 38l62 -44q10 -6 -4 -18l-24 -16l-4 -220q-6 -151 -32 -197q-24 -47 -78 -62q-6 30 -24 48q-18 14 -74 37l6 16l76 -20q38 -10 56 14q15 21 24 172l2 228h-108
q-12 -214 -48 -322q-34 -108 -130 -213l-12 10q74 114 98 201q24 86 36 206q11 120 8 312h-74q-12 0 -48 -8l-16 34h332v0v0zM174 968l8 14q75 -36 96 -60q21 -21 28 -44q6 -21 -2 -38q-7 -15 -20 -20q-11 -4 -22 2q-12 5 -18 38q-6 30 -20 52q-13 20 -50 56v0v0z" />
  </g>

</svg>
