<?xml version="1.0" standalone="no"?>
<!DOCTYPE svg PUBLIC "-//W3C//DTD SVG 1.1//EN" "http://www.w3.org/Graphics/SVG/1.1/DTD/svg11.dtd" >
<svg xmlns="http://www.w3.org/2000/svg" xmlns:xlink="http://www.w3.org/1999/xlink" version="1.1" viewBox="0 -154 1024 1024">
  <g transform="matrix(1 0 0 -1 0 870)">
   <path fill="currentColor"
d="M213 551l45 -38h460l39 43l46 -47q14 -12 -6 -17l-18 -9v-190l3 -79q-2 -33 -45 -32v21h-475q-1 -19 -12 -28t-37 -14q5 37 7 141v204q2 12 -19 25zM205 696h259v72h-87q-27 1 -45 -13l-34 31h286l28 28l72 -38q17 -10 -6 -8h-172v-72h191l32 31l52 -39q18 -12 -6 -10
h-269v-73h373l32 40l68 -50q17 -10 -6 -8h-855q-27 1 -45 -13l-34 31h425v73h-180q-27 1 -45 -17zM737 397h-475v-86h475v86zM262 411h475v86h-475v-86zM1014 753v-14q-73 5 -82 -28q-169 29 -317 116q-67 42 -136 114q-101 -103 -202 -162q-105 -63 -255 -105l-6 11
q270 109 374 226q55 55 58 66q3 10 -6 23l9 4l80 -34q17 -7 6 -10q-25 2 -45 -7q70 -52 122 -86q111 -67 217 -88q54 -14 90 -18q38 -5 93 -8zM737 297h-475v-78h475v78zM329 195l74 -49q17 -11 7 -15q-26 5 -53 -7q-145 -88 -291 -116l-4 11q180 72 229 112q57 35 32 56z
M569 170l4 14q190 -40 253 -88q59 -57 18 -74q-15 -6 -46 27t-84 60t-145 61z" />
  </g>

</svg>
