<?xml version="1.0" standalone="no"?>
<!DOCTYPE svg PUBLIC "-//W3C//DTD SVG 1.1//EN" "http://www.w3.org/Graphics/SVG/1.1/DTD/svg11.dtd" >
<svg xmlns="http://www.w3.org/2000/svg" xmlns:xlink="http://www.w3.org/1999/xlink" version="1.1" viewBox="0 -205 1024 1024">
  <g transform="matrix(1 0 0 -1 0 819)">
   <path fill="currentColor"
d="M460 716h92l22 36q72 -47 72 -52q0 -6 -2 -8q-3 -1 -32 -22q-33 -187 -66 -278q-33 -89 -98 -178q-66 -89 -168 -167l-10 12q75 77 136 163q60 86 94 178q33 93 64 288h-112q-21 -65 -50 -130q59 -43 74 -70q15 -25 10 -46q-4 -21 -16 -30q-13 -7 -26 -2q-14 6 -12 46
q0 39 -38 84q-30 -71 -72 -124l-12 10q58 125 92 248q33 123 70 276q72 -33 76 -38q3 -5 -2 -10q-3 -3 -14 -6q-11 0 -22 -24q-9 -21 -50 -156v0v0zM794 956l66 -24q8 -3 8 -6q0 -4 -6 -10l-22 -16v-192h56l34 40l44 -46q3 -3 4 -8q0 -10 -12 -10h-126v-250h78l32 40l50 -52
l2 -8q0 -4 -8 -4h-154v-256l4 -95q0 -14 -18 -26q-18 -9 -36 -10l4 116v271h-100l-32 -26l-46 48q18 7 28 20l42 178l56 -26q10 -7 8 -14q-3 -4 -6 -4l-20 -8l-38 -144h108v250h-54q-22 0 -58 -8l-18 32h130v248v0v0zM26 748h144v226l72 -32q9 -6 10 -8q4 -9 -4 -12l-30 -18
v-156h64l24 46l58 -54q2 -3 2 -8q0 -12 -12 -12h-136v-66q60 -25 82 -40q21 -13 30 -38q9 -23 -2 -40q-13 -19 -26 -16q-13 2 -20 26q-7 22 -20 44q-13 21 -44 42v-464l4 -97q0 -14 -20 -26q-18 -14 -36 -14l4 133v390q-19 -78 -58 -150q-37 -73 -82 -134l-14 8
q30 58 58 122q27 62 54 154q26 90 40 166h-58q-21 0 -62 -8l-22 36v0v0z" />
  </g>

</svg>
