<?xml version="1.0" standalone="no"?>
<!DOCTYPE svg PUBLIC "-//W3C//DTD SVG 1.1//EN" "http://www.w3.org/Graphics/SVG/1.1/DTD/svg11.dtd" >
<svg xmlns="http://www.w3.org/2000/svg" xmlns:xlink="http://www.w3.org/1999/xlink" version="1.1" viewBox="0 -36 256 256">
  <g transform="matrix(1 0 0 -1 0 220)">
   <path fill="currentColor"
d="M74 206.5q5 -5.5 6 -11.5t-3 -12t-6.5 -0.5t-3.5 10.5q-13 -2 -25 -4t-22 -8l-7 15q5 2 12.5 12.5t9.5 16.5h-6l-11 -3l-10 10h51l10 8l11 -13h-30q-4 -6 -11 -14.5t-12 -15.5q15 1 39 2q-5 11 -10 19l3 2q10 -8 15 -13.5zM41 188l18 -7l-5 -7v-11h9l10 9l11 -16h-30v-20
q15 2 29 6l1 -4q-29 -11 -42 -14.5t-25 -10.5l-10 15q24 3 35 6v22h-7q-8 1 -16 -2l-7 9h30q0 12 -1 25zM125 217l3 2q16 -10 23 -18t2 -16.5t-7.5 -3t-6.5 13.5q-32 -5 -48 -13l-7 14q7 4 11.5 10.5t9.5 20.5h-5q-8 0 -15 -3l-7 10h55l9 9l13 -16h-35q-3 -2 -9 -11.5
t-12 -17.5q17 0 37 2q-4 8 -11 17zM110 188l19 -7l-6 -6v-12h9l10 8l12 -15h-31v-24h13l10 10l12 -17h-52q-10 -1 -20 -3l-9 10h34v24h-3q-9 1 -16 -2l-8 9h27q0 19 -1 25zM45 111h74l8 10l14 -14l-8 -6v-41v-22l1 -25l-14 -4v16h-75v-12l-15 -5l1 26v60l-1 25zM45 104v-31
h75v31h-75zM45 32h75v34h-75v-32v-2zM159 68v117q0 30 -1 55l14 -9h47l8 9l13 -14l-8 -6q-10 -25 -30 -66q43 -37 42.5 -69t-28.5 -43q-4 19 -36 23v5q21 -4 35 -3.5t13.5 21t-10 35t-25.5 30.5q15 38 25 71h-46v-155q0 -30 1 -55l-15 -7q1 28 1 61z" />
  </g>

</svg>
