<?xml version="1.0" standalone="no"?>
<!DOCTYPE svg PUBLIC "-//W3C//DTD SVG 1.1//EN" "http://www.w3.org/Graphics/SVG/1.1/DTD/svg11.dtd" >
<svg xmlns="http://www.w3.org/2000/svg" xmlns:xlink="http://www.w3.org/1999/xlink" version="1.1" viewBox="0 -200 1000 1000">
  <g transform="matrix(1 0 0 -1 0 800)">
   <path fill="currentColor"
d="M214 637l66 -32h107v86l73 -32l-21 -41l-1 -13h123v76l63 -28l-12 -32l-2 -16h108l27 32l55 -44l-22 -25v-114q-2 -7 -11 -14.5t-42 -17.5v28h-460q-12 -13 -19.5 -22.5t-31.5 -11.5v221zM922 76q-23 -9 -40.5 -20t-40.5 -25q-52 9 -104 28.5t-99 48t-87 65t-67 78.5h-65
v-156l164 60l17 -11q-32 -17 -67 -35t-68 -36t-61 -35.5t-46 -32.5l-76 51l81 30v165h-25l-55 -13l-23 34h584l49 39l61 -60h-210l47 -44q-10 -3 -16 -2.5t-19 -3.5q-28 -7 -58.5 -21t-55.5 -29q23 -15 56 -26.5t70.5 -19.5t78 -13t79.5 -7zM46 6q42 30 70 60.5t45 67
t24 81.5t7 104q0 11 0.5 22t0.5 22v11t-1 12l-31 1l-57 -14l-25 36h707l46 38l64 -60h-691l62 -35l-19 -38q-5 -50 -10 -95t-23 -85.5t-54.5 -74.5t-103.5 -61zM719 251h-207q27 -30 59 -53.5t60 -40.5q30 31 56 51.5t32 42.5zM282 341h446l51 37l65 -58h-473l-61 -10z
M387 519h-122v-47h122v47zM610 519v-47h115v47h-115zM561 473v46h-123v-46h123zM610 585v-45h115v45h-115zM265 572v-32h122v45h-102zM561 585h-123v-45h123v45zM161 643q73 29 118 71t47 99h-186l-63 -13l-24 34h276v73q-22 -6 -47 -10.5t-48 -8t-43.5 -6t-33.5 -3.5l-3 13
q100 26 177 52.5t119 57.5l63 -56q-13 -2 -20 -3.5t-9 -1.5q-26 0 -50.5 -7t-49.5 -15v-85h235v165l72 -31l-20 -56v-78h168l48 39l65 -60h-281v-90q-12 -25 -52 -26v116h-237q-4 -74 -54 -118t-163 -63z" />
  </g>

</svg>
