<?xml version="1.0" standalone="no"?>
<!DOCTYPE svg PUBLIC "-//W3C//DTD SVG 1.1//EN" "http://www.w3.org/Graphics/SVG/1.1/DTD/svg11.dtd" >
<svg xmlns="http://www.w3.org/2000/svg" xmlns:xlink="http://www.w3.org/1999/xlink" version="1.1" viewBox="0 -36 256 256">
  <g transform="matrix(1 0 0 -1 0 220)">
   <path fill="currentColor"
d="M94 138l20 -10l-7 -7v-56l16 3v83h-15q-11 -1 -21 -3l-8 10h70l12 10l14 -17h-39v-35h12l10 10l13 -17h-35v-39l36 7l1 -4q-46 -15 -60.5 -19.5t-24.5 -9.5l-9 15q7 1 16 3v50q0 11 -1 26zM136 202v-46h-13v46h-15q-7 -17 -27 -37l-3 3q13 20 20 42.5t8 35.5l20 -10
l-7 -5q-4 -12 -8 -22h33l12 10l15 -17h-35zM235 206v-111q0 -16 -18 -20q-4 14 -23 17v-12q0 -24 1 -36l-15 -6q1 17 1 35v105q0 24 -1 47l14 -10h28l7 10l14 -13zM194 208v-111q16 -2 22.5 -2t5.5 7v106h-28zM34 238q26 -16 30 -26.5t-3.5 -20.5t-10.5 6.5t-19 37.5z
M48 153l8 10l15 -13l-8 -7v-83q15 -16 32 -22.5t62.5 -7.5t90.5 5v-5q-18 -4 -19 -16q-81 0 -107 4.5t-39.5 14t-20.5 17t-18.5 -4t-19.5 -24.5l-15 13q13 11 40 26v86h-10q-9 0 -20 -3l-10 10h39z" />
  </g>

</svg>
