<?xml version="1.0" standalone="no"?>
<!DOCTYPE svg PUBLIC "-//W3C//DTD SVG 1.1//EN" "http://www.w3.org/Graphics/SVG/1.1/DTD/svg11.dtd" >
<svg xmlns="http://www.w3.org/2000/svg" xmlns:xlink="http://www.w3.org/1999/xlink" version="1.1" viewBox="0 -205 1024 1024">
  <g transform="matrix(1 0 0 -1 0 819)">
   <path fill="currentColor"
d="M410 402h-56v-39q0 -8 -6 -9q-20 -8 -39 -17q-9 -3 -8 12q4 63 5 160v154q-1 36 -5 82q-2 12 2 13q3 1 10 -6q12 -13 36 -31h61v109h-62q-27 0 -61 -7q-5 -1 -6 2q-13 19 -23 35q-6 10 7 7q61 -5 68 -6h77q-2 81 -5 127q-1 18 9 14q56 -18 77 -30q11 -8 1 -12
q-31 -17 -32 -21q-2 -3 -2 -78h48q6 0 12 7l36 41q7 7 14 0q26 -26 44 -48q11 -14 4 -24q-5 -6 -18 -7h-140v-109h36q6 0 9 4l18 28q7 8 14 1q29 -19 57 -41q9 -8 8 -12q-2 -5 -9 -9q-26 -12 -27 -19q-2 -6 -2 -13v-184q0 -36 6 -97q1 -11 -5 -12q-43 -15 -47 -14
q-2 1 -2 11v38h-56v-121h44q6 0 12 7l36 41q7 7 14 0q26 -26 44 -48q11 -14 4 -24q-5 -6 -18 -7h-136q0 -107 4 -183q0 -9 -7 -10l-44 -18q-9 -2 -8 14q5 115 6 197h-73q-27 0 -61 -7q-5 -1 -6 2q-13 19 -23 35q-6 10 7 7q61 -5 68 -6h89v121zM410 546h-56v-113h56v113z
M458 433h56v113h-56v-113zM410 690h-56v-113h56v113zM458 577h56v113h-56v-113zM782 854v-144q0 -146 -27 -267q-30 -129 -85 -226q-60 -104 -148 -162q-18 -12 -24 1q-5 13 11 26q84 74 126 153q52 100 77 233q21 116 22 242v144h-16q-27 0 -61 -7q-5 -1 -6 2
q-13 19 -23 35q-6 10 7 7q61 -5 68 -6h167q11 1 15 5l23 32q6 10 15 0q37 -30 59 -52q6 -6 -1 -10q-28 -16 -29 -17q-5 -4 -5 -14q-1 -110 -4 -306q-2 -183 -15 -292q-9 -76 -42 -116q-32 -37 -75 -55q-11 -7 -15 0q-7 12 -26 25q-28 19 -74 34q-15 5 -14 12q2 8 14 7
q70 -11 112 -8q24 2 34 14q23 24 33 67q18 74 19 273q2 237 6 370h-118zM102 950q6 9 19 0q54 -30 85 -58q21 -20 22 -32q0 -26 -13 -39q-14 -14 -21 -14q-7 -1 -14 20q-13 33 -31 58q-21 30 -43 49q-8 7 -4 16zM46 726q6 9 19 -1q54 -30 82 -58q21 -19 22 -32
q-1 -25 -14 -38q-15 -14 -21 -14q-7 1 -14 20q-13 33 -29 58q-19 30 -41 49q-8 7 -4 16zM257 775q12 -3 8 -16q-31 -127 -79 -314q-20 -85 -21 -142q-11 -110 -1 -194q2 -29 -8 -41q-9 -9 -28 -5q-22 6 -34 25q-12 20 -2 47q15 49 19 101q2 40 -2 56q-6 14 -21 24
q-16 11 -37 14q-12 0 -12 16q1 15 17 14q43 -7 53 -3q14 6 30 66q33 122 103 341q3 14 15 11z" />
  </g>

</svg>
