<?xml version="1.0" standalone="no"?>
<!DOCTYPE svg PUBLIC "-//W3C//DTD SVG 1.1//EN" "http://www.w3.org/Graphics/SVG/1.1/DTD/svg11.dtd" >
<svg xmlns="http://www.w3.org/2000/svg" xmlns:xlink="http://www.w3.org/1999/xlink" version="1.1" viewBox="0 -205 1024 1024">
  <g transform="matrix(1 0 0 -1 0 819)">
   <path fill="currentColor"
d="M28 824h248l36 48l56 -54q2 -3 2 -8q1 -12 -10 -12h-248q-22 0 -70 -8l-14 34v0v0zM336 750q12 -10 -2 -16q-18 -7 -36 -40q-19 -30 -64 -132h60l32 44l50 -50q10 -15 -4 -18h-150v-156h40l28 40l48 -46q3 -3 4 -8q0 -12 -12 -12h-110q-4 -95 -46 -178q-43 -79 -124 -155
l-6 16q60 79 94 159q31 77 32 158h-72q-21 0 -44 -8l-16 34h132v156h-82q-18 0 -42 -8l-18 32h182q21 69 60 214l66 -26v0v0zM102 976l8 10q68 -29 92 -52q23 -24 26 -44q3 -19 -6 -32q-9 -12 -20 -14q-10 -4 -22 4q-9 6 -12 28q-3 21 -18 46q-15 21 -48 54v0v0zM74 764
l14 10q53 -42 74 -72q18 -27 24 -54q3 -25 -8 -40q-12 -16 -32 -10q-18 4 -20 38q0 33 -14 66q-15 32 -38 62v0v0zM880 778l68 -30q13 -7 6 -16q-31 -12 -40 -30q-9 -15 -26 -54q-18 -37 -42 -88h50l36 48l56 -58q9 -16 -6 -16h-150v-166h58l38 48l54 -58q2 -3 2 -8
q1 -7 -10 -8h-142v-193l4 -86q0 -9 -14 -22q-16 -12 -44 -12l4 120v193h-50q-22 0 -64 -8l-14 34h128v166h-76q-6 0 -54 -8l-18 34h184q17 53 62 218v0v0v0zM638 832h254l34 46l56 -52q2 -3 2 -8q1 -12 -10 -12h-256q-21 0 -66 -8l-14 34v0v0zM718 982l8 12q71 -30 94 -54
t26 -44q3 -18 -6 -30t-18 -14q-10 -4 -22 4q-9 6 -12 28q-3 20 -18 46q-14 24 -52 52v0v0zM686 758l14 10q47 -39 68 -68q20 -27 26 -54q4 -25 -10 -40q-12 -16 -30 -10q-18 4 -20 38q-1 33 -16 66q-15 32 -32 58v0v0zM472 876q14 -6 8 -14q1 -3 -28 -24v-176h72v312l78 -30
q3 -4 4 -8q0 -6 -6 -8l-28 -16v-250h28l26 34l42 -44q2 -3 2 -8q1 -7 -4 -8h-216v-134l-2 -44h82l34 36l54 -42q3 -4 4 -8q0 -3 -30 -30v-208l4 -93q0 -17 -20 -32q-18 -15 -36 -16l4 143v224h-98q-7 -118 -40 -214q-34 -95 -100 -173l-14 10q62 98 86 215t24 232v404
l70 -30v0v0z" />
  </g>

</svg>
