<?xml version="1.0" standalone="no"?>
<!DOCTYPE svg PUBLIC "-//W3C//DTD SVG 1.1//EN" "http://www.w3.org/Graphics/SVG/1.1/DTD/svg11.dtd" >
<svg xmlns="http://www.w3.org/2000/svg" xmlns:xlink="http://www.w3.org/1999/xlink" version="1.1" viewBox="0 -36 256 256">
  <g transform="matrix(1 0 0 -1 0 220)">
   <path fill="currentColor"
d="M81 217v-74h17l12 12l19 -19h-48q-2 -39 -16 -69.5t-42 -57.5l-4 3q23 30 34 58t13 66h-25q-10 -1 -20 -3l-9 10h54v71q-32 -4 -49 -7l-1 5q22 3 53 11.5t41 16.5l17 -15q-22 -3 -46 -8zM192 220v-77h22l12 12l19 -19h-53v-121l-15 -6v127h-20q-10 -1 -19 -3l-9 10h48v74
q-33 -4 -49 -6l-1 4q18 3 51 11.5t42 16.5l17 -16q-18 -2 -45 -7z" />
  </g>

</svg>
