<?xml version="1.0" standalone="no"?>
<!DOCTYPE svg PUBLIC "-//W3C//DTD SVG 1.1//EN" "http://www.w3.org/Graphics/SVG/1.1/DTD/svg11.dtd" >
<svg xmlns="http://www.w3.org/2000/svg" xmlns:xlink="http://www.w3.org/1999/xlink" version="1.1" viewBox="0 -36 256 256">
  <g transform="matrix(1 0 0 -1 0 220)">
   <path fill="currentColor"
d="M98 86l1 -4q-77 -35 -77 -43l-14 18q27 7 40 12v65h-6q-10 0 -19 -2l-9 9h34v63h-8q-10 0 -19 -2l-9 9h61l14 11l13 -18h-39v-63h12l12 10l14 -17h-38v-61zM129 230l-6 -22h24l12 12l14 -19h-40q12 -10 16 -18t-2 -16.5t-7.5 2.5t-12.5 32h-6q-12 -30 -29 -53l-3 3
q14 29 20 54.5t8 40.5l19 -9zM221.5 181.5q5.5 -8.5 -1 -18.5t-8 2t-13.5 36h-10q-12 -31 -23 -42l-3 3q9 17 15.5 43.5t8.5 41.5l18 -9l-5 -6l-8 -24h28l11 12l15 -19h-44q14 -11 19.5 -19.5zM173 157l-7 -4q33 -33 79 -42v-5q-17 -3 -16 -13q-35 12 -67 56
q-30 -42 -78 -63l-2 4q27 17 48 41t25 38zM176.5 47q10.5 16 19.5 27h-66q-10 0 -19 -2l-8 9h93l8 8l15 -15q-14 -6 -52 -67l-13 4q12 20 22.5 36zM170 107l13 9l13 -16h-48q-9 0 -18 -2l-9 9h49z" />
  </g>

</svg>
