<?xml version="1.0" standalone="no"?>
<!DOCTYPE svg PUBLIC "-//W3C//DTD SVG 1.1//EN" "http://www.w3.org/Graphics/SVG/1.1/DTD/svg11.dtd" >
<svg xmlns="http://www.w3.org/2000/svg" xmlns:xlink="http://www.w3.org/1999/xlink" version="1.1" viewBox="0 -205 1024 1024">
  <g transform="matrix(1 0 0 -1 0 819)">
   <path fill="currentColor"
d="M326 826l54 -34h430l30 34l58 -38q6 -6 6 -8q-1 -7 -34 -26v-132l4 -40q-1 -16 -16 -26q-15 -8 -36 -10v26h-198v-70h184l30 30l54 -38q3 -3 4 -6q4 -12 -10 -12h-262v-78h248l36 38l58 -48q3 -3 4 -8q1 -9 -10 -8h-642q-21 0 -48 -8l-24 34h326v78h-190q-19 0 -58 -8
l-18 34h266v70h-198v-12q0 -9 -8 -14q-15 -15 -44 -14l4 74v220v0v0zM374 596h198v170h-198v-170v0v0zM624 766v-170h198v170h-198v0v0zM414 726l8 10q42 -21 70 -42q27 -21 28 -42t-12 -30q-12 -10 -24 -4q-13 6 -16 18q0 12 -12 36q-9 21 -42 54v0v0zM670 618
q42 71 64 122l54 -32q6 -5 4 -10q-3 -4 -8 -4q-6 -1 -14 -4q-9 0 -30 -24q-21 -21 -54 -56l-16 8v0v0zM302 192h274v118l78 -30q9 -3 6 -8q2 -3 -4 -6l-28 -14v-60h166l32 32l56 -42q3 -4 4 -10q1 -7 -16 -8h-242v-99h246l36 38l58 -48q6 -4 4 -8q-1 -7 -16 -6h-650
q-21 0 -66 -10l-22 34h358v99h-198q-21 0 -56 -8l-20 36v0v0zM638 344l8 10q53 -24 74 -42t24 -36q4 -18 -4 -30q-9 -13 -24 -10q-15 2 -20 22q-6 18 -14 34q-9 15 -44 52v0v0zM438 340l8 10q45 -24 66 -42t24 -36q4 -18 -4 -30q-9 -13 -24 -10q-15 2 -20 22q-6 18 -14 36
q-9 17 -36 50v0v0zM366 358h20q-7 -48 -14 -72q-5 -22 -22 -40q-18 -17 -36 -22q-18 -4 -30 4t-12 22q-1 14 20 20q18 4 36 20q17 14 38 68v0v0zM798 338l8 12q76 -34 104 -52t32 -42q3 -24 -8 -36q-12 -13 -26 -8q-15 6 -24 30q-6 24 -24 42q-15 15 -62 54v0v0zM858 868
l44 50l64 -60l2 -4q0 -10 -8 -10h-736v-300q-3 -214 -30 -322q-24 -104 -150 -209l-14 12q96 98 118 193q20 93 26 282q-91 -84 -110 -122l-48 50l158 104v382l54 -46h630v0v0zM476 978l8 12q51 -12 78 -24q27 -10 42 -26q12 -16 6 -38q-6 -20 -26 -22q-21 -1 -30 20
q-7 21 -22 36t-56 42v0v0zM38 756l12 8q42 -36 66 -66q21 -28 28 -58q7 -31 -4 -46q-10 -14 -22 -16q-12 -3 -24 6q-10 8 -8 38q1 27 -10 58q-9 30 -38 76v0v0z" />
  </g>

</svg>
