<?xml version="1.0" standalone="no"?>
<!DOCTYPE svg PUBLIC "-//W3C//DTD SVG 1.1//EN" "http://www.w3.org/Graphics/SVG/1.1/DTD/svg11.dtd" >
<svg xmlns="http://www.w3.org/2000/svg" xmlns:xlink="http://www.w3.org/1999/xlink" version="1.1" viewBox="0 -36 256 256">
  <g transform="matrix(1 0 0 -1 0 220)">
   <path fill="currentColor"
d="M32 246l19 -8l-6 -6v-22h32q0 21 -1 36l19 -8l-6 -7v-21h2l9 7l15 -14h-26q0 -14 1 -31l-13 -5v6h-9v-25h22l6 9l12 -11l-6 -7q0 -21 1 -38l-13 -7v8h-22v-29h19l10 10l16 -17h-45q0 -38 1 -50l-15 -7q1 26 1 57h-19q-10 0 -19 -2l-9 9h47v29h-23v-8l-14 -4q1 11 1 31
t-1 35l15 -8h22v25h-10v-4l-13 -5q1 23 1 39q-9 0 -15 -2l-8 9h23q0 20 -1 36zM45 180h32v23h-32v-23zM32 109h23v32h-23v-32zM68 109h22v32h-22v-32zM167 246l22 -9l-8 -7v-17h35l12 9l13 -16h-60v-17h24l11 9l14 -16h-49v-21h42l11 11l13 -18h-110q-10 0 -19 -2l-9 9h59
v21h-16q-10 -1 -19 -3l-9 10h44v17h-27q-10 0 -19 -2l-9 9h55q0 13 -1 33zM136 68h78v16h-78v-16zM123 97.5q0 28.5 -1 50.5l14 -8h77l7 9l13 -13l-6 -5q0 -54 1 -77l-14 -6v13h-78v-10l-14 -5q1 23 1 51.5zM136 116h78v17h-78v-17zM136 91h78v18h-78v-18zM159 39
q-30 -20 -56 -31l-2 4q34 19 51 45l14 -16zM231.5 29.5q5.5 -7.5 2 -16.5t-13 4t-37.5 32l1 4q42 -16 47.5 -23.5z" />
  </g>

</svg>
