<?xml version="1.0" standalone="no"?>
<!DOCTYPE svg PUBLIC "-//W3C//DTD SVG 1.1//EN" "http://www.w3.org/Graphics/SVG/1.1/DTD/svg11.dtd" >
<svg xmlns="http://www.w3.org/2000/svg" xmlns:xlink="http://www.w3.org/1999/xlink" version="1.1" viewBox="0 -205 1024 1024">
  <g transform="matrix(1 0 0 -1 0 819)">
   <path fill="currentColor"
d="M304 754q50 -19 86 -40q33 -21 42 -42q9 -22 -2 -38q-10 -15 -26 -12q-15 2 -24 26q-7 23 -28 46q-22 24 -56 48l8 12v0v0zM722 722q6 -3 6 -6q0 -4 -14 -10q-21 -4 -44 -32q-21 -25 -54 -62h156l28 30l48 -36q9 -6 10 -12q0 -6 -32 -30v-164l4 -70q0 -16 -20 -26
q-18 -10 -32 -10v38h-226v-96h334l34 50l62 -58q2 -3 2 -6q1 -12 -10 -12h-422v-81l2 -78q0 -13 -20 -24q-18 -9 -36 -10l4 108v85h-384q-22 0 -70 -8l-14 34h468v96h-226v-10q0 -15 -12 -24q-9 -10 -42 -10l4 98v266l56 -40h308q36 67 72 146l60 -36v0v0zM276 358h226v102
h-226v-102v0v0zM552 460v-102h226v102h-226v0v0zM276 486h226v98h-226v-98v0v0zM552 584v-98h226v98h-226v0v0zM328 946q10 -9 0 -18q-24 -6 -32 -12q-7 -6 -16 -18t-26 -36h208l34 46l58 -56q9 -16 -8 -16h-186q30 -16 48 -32q17 -15 22 -32q4 -16 -4 -32q-9 -16 -24 -14
q-16 0 -20 22q-3 20 -12 38q-6 17 -36 50h-98q-81 -117 -156 -182l-14 12q63 79 112 158q49 78 80 154l70 -32v0v0zM710 946q10 -9 0 -18q-24 -6 -32 -12q-7 -6 -16 -18t-26 -36h244l34 46l58 -56q9 -16 -8 -16h-216q35 -21 52 -42t22 -38q3 -16 -6 -34q-10 -17 -28 -12
q-18 3 -20 24q-2 19 -10 44q-9 24 -38 58h-102q-69 -88 -144 -154l-14 12q63 78 106 144q43 65 74 140l70 -32v0v0z" />
  </g>

</svg>
