<?xml version="1.0" standalone="no"?>
<!DOCTYPE svg PUBLIC "-//W3C//DTD SVG 1.1//EN" "http://www.w3.org/Graphics/SVG/1.1/DTD/svg11.dtd" >
<svg xmlns="http://www.w3.org/2000/svg" xmlns:xlink="http://www.w3.org/1999/xlink" version="1.1" viewBox="0 -52 256 256">
  <g transform="matrix(1 0 0 -1 0 204)">
   <path fill="currentColor"
d="M49 18q0 5 -4 8t-22 9l1 4q7 -2 17 -4q4 -1 5 -1h11q15 6 17 36q3 29 -1 56q-29 -50 -66 -72l-2 4q33 27 64 82q-3 10 -9 22q-23 -40 -51 -57l-2 4q29 26 46 63q-4 6 -10 11q-13 -13 -36 -27l-2 4q35 27 57 62h-35q-5 1 -11 -3l-8 8h83l7 10l17 -12q2 -2 1 -2q0 -1 -3 -1
h-39q-12 -18 -27 -35q21 -19 31 -47q5 6 9 14q7 12 7 14q1 5 -1 6l2 2l17 -11l2 -2q-1 -1 -2 -1q-7 2 -13 -6q-3 -3 -11 -13q-5 -6 -8 -10q1 -1 1 -4q1 -2 1 -3q33 -24 30 -41q-3 -4 -6 -4q-4 0 -7 10q-4 15 -15 28v-3q3 -25 2 -36q-2 -38 -14 -50q-8 -9 -23 -12zM101 191
h41q1 9 0 25v12h-8q-5 0 -11 -4l-9 9h92l10 9l12 -11q2 -1 2 -3q-1 -1 -3 -1l-5 -2v-34h8l7 8l15 -11q4 -2 -2 -2h-28v-23l1 -25q0 -4 -4 -6l-9 -3v14h-61q-4 -21 -12 -38l4 -3h69l11 10l12 -12q2 -1 2 -3q-1 -1 -3 -2l-5 -2v-52l1 -14q-1 -7 -4 -10q-1 -1 -4 -1
q-3 -1 -5 -1v19h-72v-6q0 -9 -3 -11q-3 -3 -10 -4q1 5 1 20q1 12 1 20v40q-10 -18 -25 -32l-3 2q16 21 25 42q-2 2 -2 3l3 4l1 -1q6 15 8 32h-5q-7 0 -12 -3l-9 8h27q2 24 2 38h-20q-7 0 -12 -3zM215 97h-72v-58h72v58zM150 148h60v38h-57q0 -9 -2 -27q-1 -7 -1 -11z
M154 228q0 -21 -1 -37h57v37h-56z" />
  </g>

</svg>
