<?xml version="1.0" standalone="no"?>
<!DOCTYPE svg PUBLIC "-//W3C//DTD SVG 1.1//EN" "http://www.w3.org/Graphics/SVG/1.1/DTD/svg11.dtd" >
<svg xmlns="http://www.w3.org/2000/svg" xmlns:xlink="http://www.w3.org/1999/xlink" version="1.1" viewBox="0 -205 1024 1024">
  <g transform="matrix(1 0 0 -1 0 819)">
   <path fill="currentColor"
d="M584 736q6 -3 6 -6q4 -9 -6 -12q-29 -4 -52 -20q-21 -15 -66 -48q-42 -30 -116 -72l-10 12l108 90q32 30 80 84l56 -28v0v0zM802 638l54 -38q2 -4 2 -10q0 -4 -26 -20q-15 -62 -24 -94t-24 -58q-16 -25 -58 -40q-10 23 -32 38q-22 12 -76 30l4 18q53 -14 86 -16
q33 -3 40 10q5 12 14 36q9 27 22 96h-178q-20 -81 -70 -134q-49 -54 -172 -102l-8 14q102 54 144 106q39 50 54 116h-50q-16 -1 -40 -10l-18 34h332l24 24v0v0zM502 982l74 -28q7 -4 2 -10q1 0 -28 -20v-44h188v102l74 -28q3 -3 4 -8q-4 -6 -28 -18v-48h86l40 48l60 -62
q3 -1 4 -8q-1 -6 -16 -6h-174v-34q0 -12 -12 -20q-9 -6 -18 -8q-7 -3 -20 -2v64h-188v-40q0 -12 -8 -18q-7 -5 -16 -10q-9 -3 -24 -2v70h-94q-21 -1 -44 -10l-20 38h158v102v0v0zM322 326h292v86l78 -34q3 -3 4 -8q0 -5 -30 -16v-28h194l36 48l68 -54q6 -3 6 -8
q0 -12 -12 -12h-272q37 -37 74 -68q36 -29 90 -58q53 -26 136 -37v-16q-51 0 -66 -10q-14 -9 -34 -28q-36 22 -72 50q-36 25 -78 71q-41 45 -70 90v-161l4 -64q-3 -14 -20 -26t-40 -12l4 100v135q-58 -60 -130 -116q-72 -54 -162 -101l-10 12q74 54 134 103q60 50 138 136
h-178q-18 0 -66 -8l-18 34v0v0zM14 758h170v228l64 -30q22 -8 12 -22l-28 -14v-162h66l30 40l50 -48q3 -3 4 -8q0 -12 -14 -12h-136v-96q71 -37 100 -64q29 -24 34 -48q4 -21 -4 -38q-6 -16 -26 -16q-19 0 -22 24q-4 24 -22 54q-15 29 -60 68v-436l4 -107q0 -14 -18 -26
t-38 -12l4 147v372q-27 -85 -72 -166q-44 -81 -94 -140l-10 10q38 65 68 128q27 62 58 152q30 89 48 194h-102q-6 0 -48 -8l-18 36v0v0zM718 768q81 -32 136 -58q53 -25 80 -52q25 -28 20 -52q-3 -22 -24 -26q-21 -3 -36 24t-62 66q-45 36 -122 84l8 14v0v0z" />
  </g>

</svg>
