<?xml version="1.0" standalone="no"?>
<!DOCTYPE svg PUBLIC "-//W3C//DTD SVG 1.1//EN" "http://www.w3.org/Graphics/SVG/1.1/DTD/svg11.dtd" >
<svg xmlns="http://www.w3.org/2000/svg" xmlns:xlink="http://www.w3.org/1999/xlink" version="1.1" viewBox="0 -205 1024 1024">
  <g transform="matrix(1 0 0 -1 0 819)">
   <path fill="currentColor"
d="M56 786h120q24 90 48 190q78 -33 78 -42q-1 -9 -8 -12q-6 -1 -20 -8q-13 -5 -22 -34q-9 -28 -30 -94h106l34 46l50 -50q3 -4 4 -10q0 -12 -12 -12h-186q-39 -143 -74 -244h100v190l76 -30q8 -6 8 -8q0 -5 -6 -10l-28 -12v-130h52l34 44l54 -52q3 -4 4 -10q-2 -7 -10 -8
h-134v-144l152 30l4 -18l-156 -44v-158l4 -81q0 -12 -20 -28q-21 -13 -38 -14l4 123v146q-79 -22 -100 -32q-21 -7 -54 -32l-44 64l198 34v154h-92l-30 -32l-54 54q30 18 42 48l60 200h-42q-21 0 -56 -8l-16 34v0v0zM478 688h188v110l80 -28q6 -3 6 -6q0 -1 -2 -8l-34 -14
v-54h120l36 42l52 -50q3 -3 4 -8q0 -7 -8 -8h-204v-94h100l34 40l50 -48q2 -2 2 -4q3 -12 -8 -12h-178v-100h170l30 48l64 -56q3 -2 4 -4q6 -12 -6 -12h-262v-50q1 -12 -10 -18q-22 -6 -40 -6v74h-168q-19 0 -68 -8l-16 32h252v100h-90q-21 0 -68 -8l-16 32h174v94h-104
q-21 0 -68 -8l-16 32v0v0zM496 370l54 -40h268l30 40l58 -44q9 -6 10 -14q0 -3 -32 -26v-140l4 -79q0 -14 -20 -26q-22 -12 -34 -10v68h-290v-36q0 -12 -18 -22q-17 -12 -34 -12l4 115v226v0v0zM544 127h290v177h-290v-177v0v0zM890 832l28 36l52 -44q14 -12 14 -18t-14 -6
q-27 0 -54 -20q-26 -18 -52 -42l-16 10l42 62h-384q-6 -53 -18 -76q-13 -23 -34 -34q-22 -10 -34 2q-13 11 -8 26q3 11 22 26q17 14 32 40q12 26 18 82h20l2 -44h384v0v0zM610 976l10 10q58 -30 80 -48q21 -18 28 -36q6 -16 0 -34t-20 -20q-15 -4 -24 4q-6 6 -12 24
q-3 18 -12 40q-9 21 -50 60v0v0z" />
  </g>

</svg>
