<?xml version="1.0" standalone="no"?>
<!DOCTYPE svg PUBLIC "-//W3C//DTD SVG 1.1//EN" "http://www.w3.org/Graphics/SVG/1.1/DTD/svg11.dtd" >
<svg xmlns="http://www.w3.org/2000/svg" xmlns:xlink="http://www.w3.org/1999/xlink" version="1.1" viewBox="0 -36 256 256">
  <g transform="matrix(1 0 0 -1 0 220)">
   <path fill="currentColor"
d="M60 216l15 -10h66q-1 7 -4.5 16t-9.5 18l2 2q17 -9 23.5 -18t-4.5 -18h60l14 13l17 -20h-164q0 -45 -0.5 -75t-12 -60t-45.5 -55l-2 3q40 38 46 108q-28 -20 -37 -34l-13 15q17 5 50 24q0 67 -1 91zM42.5 167.5q5.5 -8.5 -2 -17t-10 6.5t-11.5 29l2 3q16 -13 21.5 -21.5z
M217 103q-5 -9 -13 -11h-47q-15 1 -16 14v11l-25 -5l-5 -3l-8 9l38 5v21h-36q0 -43 -3.5 -65t-13 -39.5t-32.5 -33.5l-2 3q17 17 26 38t11 55.5t0 58.5l12 -10h42q0 36 -1 47l20 -10l-6 -6v-5h35l10 10l13 -17h-58v-19h58l7 9l16 -15q-12 -1 -27 -21l-3 2l8 18h-72l15 -5
l-6 -5v-10l27 3l8 11l13 -15l-48 -5v-4q0 -11 10 -11h31q7 1 8 6t2 21h4q-1 -22 8 -27zM129.5 59q7.5 -8 2 -19t-9 2t-19.5 29l2 4q17 -8 24.5 -16zM187 36v-11h29l12 12l14 -19h-122q-11 1 -21 -4l-7 11h48q1 50 -1 63l21 -8l-7 -7v-48h21v62l20 -10l-7 -8v-26q22 23 30 37
l16 -16l-12 -3q-13 -10 -34 -25z" />
  </g>

</svg>
