<?xml version="1.0" standalone="no"?>
<!DOCTYPE svg PUBLIC "-//W3C//DTD SVG 1.1//EN" "http://www.w3.org/Graphics/SVG/1.1/DTD/svg11.dtd" >
<svg xmlns="http://www.w3.org/2000/svg" xmlns:xlink="http://www.w3.org/1999/xlink" version="1.1" viewBox="0 -154 1024 1024">
  <g transform="matrix(1 0 0 -1 0 870)">
   <path fill="currentColor"
d="M440 753l42 -47h92q38 95 72 203h-192q-27 1 -45 -12l-34 33h536l32 40l68 -50q17 -12 -6 -11h-306q-44 -105 -95 -203h278l28 41l52 -43q18 -13 0 -19l-20 -13v-480q2 -61 -12 -91q-14 -27 -70 -39q-2 32 -16 39q-13 7 -72 22l2 14q74 -11 99 -9t25 50v508h-111v-385
l3 -96q-4 -39 -52 -46q5 38 7 167v360h-106v-441l2 -84q2 -39 -49 -46q5 38 7 177v394h-110v-476l4 -97q-1 -39 -55 -46q5 39 7 185v449q-4 28 -20 40zM329 898q-56 -104 -92 -168l21 -9q12 -5 12 -9q-10 -7 -36 -21v-140l144 86l9 -11l-136 -96q-10 -6 -17 -11v-376
q1 -36 -14 -54q-15 -17 -82 -32q-2 28 -25 40t-88 28l4 16l42 -10q41 -10 69 -10q56 -2 54 56v315q-84 -56 -106 -75q-21 -19 -22 -42l-47 47l175 105v175q-1 23 -26 46l8 11l41 -19l78 181h-212q-18 -2 -33 -14l-34 34h274l29 32l53 -46q1 -1 1 -4q0 -5 -8 -5h-3
q-16 -4 -33 -20z" />
  </g>

</svg>
