<?xml version="1.0" standalone="no"?>
<!DOCTYPE svg PUBLIC "-//W3C//DTD SVG 1.1//EN" "http://www.w3.org/Graphics/SVG/1.1/DTD/svg11.dtd" >
<svg xmlns="http://www.w3.org/2000/svg" xmlns:xlink="http://www.w3.org/1999/xlink" version="1.1" viewBox="0 -36 256 256">
  <g transform="matrix(1 0 0 -1 0 220)">
   <path fill="currentColor"
d="M23 168.5q0 31.5 -1 63.5l13 -7h47l11 9l13 -16h-37v-27h9l11 9l12 -16h-32v-28h9l10 11l12 -18h-31v-28l20 1l8 7l11 -12l-6 -5q-4 -61 -7.5 -72t-9 -17.5t-14.5 -9.5q-1 13 -23 19v4q20 -3 25.5 -2.5t9.5 12.5t6 69l-54 -2v-6l-13 -4q1 34 1 65.5zM35 191h22v27h-22
v-27zM35 156h22v28h-22v-28zM35 120l22 1v28h-22v-29zM18 90h4q4 -20 2 -28.5t-6 -12t-7.5 -0.5t2 12t5.5 29zM31 93q9 -10 12.5 -17.5t2 -13t-6.5 -7.5t-4.5 9.5t-5.5 27.5zM46 98q18 -15 20 -21.5t0 -10.5t-6 -4.5t-4.5 8t-10.5 26.5zM65 103q12 -9 15 -16t2.5 -11.5
t-5 -7t-6 6.5t-9.5 26zM125 214h48q-1 13 -15 30l2 3q18 -9 22.5 -16.5t-5.5 -16.5h51l8 8l12 -15q-5 -1 -11 -4.5t-14 -12.5l-2 2l7 15h-103q-2 -13 -5.5 -20t-9.5 -3t-3.5 8.5t6 8.5t8.5 22h3zM137 187h74l8 7l11 -13l-7 -5q0 -26 1 -30l-14 -5v6h-74q-2 -57 -13 -84.5
t-33 -47.5l-3 2q17 23 25 46t10 53.5t1 76.5zM136 154h32v26h-32v-26zM180 154h30v26h-30v-26zM148 130h63l7 8l13 -13l-7 -5v-46q0 -19 1 -27l-14 -5v7h-63v-6l-13 -6q1 18 1 47.5t-1 51.5zM211 123h-63v-19h63v19zM211 97h-63v-18h63v18zM211 72h-63v-16h63v16zM221.5 33
q7.5 -6 6.5 -12.5t-3.5 -10t-9 8t-22.5 23.5l1 4q20 -7 27.5 -13zM118 9l-1 4q36 21 41 33l15 -14l-10 -2q-31 -17 -45 -21z" />
  </g>

</svg>
