<?xml version="1.0" standalone="no"?>
<!DOCTYPE svg PUBLIC "-//W3C//DTD SVG 1.1//EN" "http://www.w3.org/Graphics/SVG/1.1/DTD/svg11.dtd" >
<svg xmlns="http://www.w3.org/2000/svg" xmlns:xlink="http://www.w3.org/1999/xlink" version="1.1" viewBox="0 -205 1024 1024">
  <g transform="matrix(1 0 0 -1 0 819)">
   <path fill="currentColor"
d="M432 938l54 -44h300l32 42l58 -46q9 -3 10 -12q1 -3 -34 -24v-743h54l34 47q62 -55 62 -61q0 -5 -2 -10q-3 -3 -18 -4h-630q-40 -2 -52 -14l-22 42h154v827v0v0zM484 111h316v251h-316v-251v0v0zM484 388h316v222h-316v-222v0v0zM484 636h316v232h-316v-232v0v0zM176 984
l78 -28q14 -5 2 -16l-30 -14v-144q65 -27 98 -48q29 -21 38 -44t0 -40q-9 -19 -26 -16q-18 -1 -26 20q-6 20 -18 44q-12 22 -66 62v-600l4 -107q0 -10 -20 -24q-21 -12 -38 -10l4 135v830v0v0zM98 758h18q7 -97 2 -142q-3 -45 -24 -74q-18 -28 -42 -28q-22 0 -28 16
q-7 14 4 28q11 15 26 30q12 15 24 48q11 32 20 122v0v0z" />
  </g>

</svg>
