<?xml version="1.0" standalone="no"?>
<!DOCTYPE svg PUBLIC "-//W3C//DTD SVG 1.1//EN" "http://www.w3.org/Graphics/SVG/1.1/DTD/svg11.dtd" >
<svg xmlns="http://www.w3.org/2000/svg" xmlns:xlink="http://www.w3.org/1999/xlink" version="1.1" viewBox="0 -36 256 256">
  <g transform="matrix(1 0 0 -1 0 220)">
   <path fill="currentColor"
d="M66 14l-15 -6q1 21 1 38v77q-20 -24 -40 -39l-3 4q20 22 42 54.5t27 45.5l18 -18h-8q-6 -9 -22 -30v-126zM87 230l-9 -3q-36 -47 -61 -63l-3 4q19 20 34.5 43t19.5 34zM163 247l21 -6l-7 -8v-18h27l12 10l15 -17h-54v-24h42l12 12l15 -19h-126q-10 0 -19 -2l-9 9h31v31
q0 13 -1 20l21 -9l-6 -8v-34h26v63zM121 161h91l7 10l15 -12l-7 -7v-53l-14 -3v8h-93v-6l-14 -3v73zM120 137h93v17h-93v-17zM120 111h93v19h-93v-19zM130 90l17 -18l-10 1q-19 -16 -48 -29l-2 5q34 24 43 41zM206 66l14 -19l-12 1q-59 -36 -127 -40v4q80 16 125 54zM172 72
q0 -10 1 -21l-16 -5q1 16 1 31v30h14v-35zM237 57q-3 -11 -13.5 3t-33.5 25l1 4q34 -8 41.5 -14.5t4.5 -17.5z" />
  </g>

</svg>
