<?xml version="1.0" standalone="no"?>
<!DOCTYPE svg PUBLIC "-//W3C//DTD SVG 1.1//EN" "http://www.w3.org/Graphics/SVG/1.1/DTD/svg11.dtd" >
<svg xmlns="http://www.w3.org/2000/svg" xmlns:xlink="http://www.w3.org/1999/xlink" version="1.1" viewBox="0 -200 1000 1000">
  <g transform="matrix(1 0 0 -1 0 800)">
   <path fill="currentColor"
d="M833 719l44 49l69 -72h-243v-130h110l35 39l47 -53l-27 -35v-460q-8 -13 -18 -21t-33 -10v65h-409v-57q-16 -11 -25.5 -18t-26.5 -9v595l61 -36h106v130h-161l-52 -12l-22 35h545zM118 820h107l36 41l52 -59l-34 -35v-240h-171v-64q0 -18 -17.5 -26.5t-32.5 -10.5v433z
M817 226v136h-118q-16 0 -25 8t-13.5 20.5t-5.5 29.5t-1 35v88h-80q1 -5 1 -11v-11v-22q0 -69 -14.5 -111.5t-38 -67.5t-53.5 -37.5t-61 -22.5v-34h409zM408 113h409v89h-409v-89zM679 865h-129v-71q-3 -5 -10.5 -10.5t-15.5 -9.5t-15.5 -6.5t-10.5 -2.5l-1 99h-156l-48 -12
l-19 33h223v117l69 -31l-16 -58v-27h129v111l64 -31l-13 -54v-26h108l45 45l64 -66h-217v-65q-6 -8 -22.5 -15.5t-28.5 -10.5v91zM108 786v-236h123v246h-113zM408 525v-251q54 20 85 77t31 148q0 11 -0.5 21.5t-1.5 22.5h-105zM704 450q2 -12 2.5 -19.5t2 -11.5t4.5 -5
t11 -1h14q16 0 36 3.5t24 16.5q16 -25 19 -25q1 0 1 1t-0.5 2t-0.5 3v129h-113v-93zM654 566v130h-78v-130h78z" />
  </g>

</svg>
