<?xml version="1.0" standalone="no"?>
<!DOCTYPE svg PUBLIC "-//W3C//DTD SVG 1.1//EN" "http://www.w3.org/Graphics/SVG/1.1/DTD/svg11.dtd" >
<svg xmlns="http://www.w3.org/2000/svg" xmlns:xlink="http://www.w3.org/1999/xlink" version="1.1" viewBox="0 -36 256 256">
  <g transform="matrix(1 0 0 -1 0 220)">
   <path fill="currentColor"
d="M33 203v-120h27v120h-27zM34 210h24l8 10l15 -15l-9 -7v-107q0 -16 1 -33l-13 -8v26h-27v-21l-13 -7q1 15 1 31v94q0 24 -1 46zM222 175l-14 -4v5h-17q-10 0 -19 -2l-9 9h45v15h-19q-10 0 -19 -2l-9 9h46l8 8l11 -12l-5 -4q0 -14 1 -22zM100 100l5 -4h48l14 16h-51
q-4 -4 -16 -12zM156 71h48v18h-46q-1 -10 -2 -18zM105 71h38q2 9 2 18h-40v-18zM185 57q18 -4 24 -9.5t2 -13t-9.5 2t-17.5 17.5zM93 95q-12 -8 -30 -14l-1 4q19 9 36.5 24.5t25.5 27.5l17 -9q-6 -1 -16 -9h45l8 7l14 -12q-7 -2 -14.5 -6t-17.5 -12h42l8 8l14 -14l-8 -3
q0 -21 1 -26l-13 -4v7h-29v-28q0 -8 11 -8h33q10 0 11 25h4q0 -8 1.5 -15t9.5 -10q-6 -12 -23 -12h-47q-13 1 -13 14v34h-7q-17 -51 -87 -55v4q56 10 74 51h-37v-6l-13 -4q1 14 1 41zM93 144.5v14t-1 14.5l18 -6l-5 -4v-3h27l9 7l11 -14h-47v-12q10 1 46 7l1 -3
q-46 -12 -54 -21l-9 12q4 4 4 8.5zM177 139h8h32q8 0 9 26h3q0 -12 4 -16.5t10 -6.5q-6 -14 -22 -14h-45q-14 0 -14 15q0 29 -1 34l21 -7l-8 -5v-13q20 9 29 19l13 -13q-14 -1 -42 -11q-1 -8 3 -8zM125 224h45l8 7l15 -15q-10 0 -34 -15l-2 1l12 15h-49q-15 -16 -41 -32
l-3 2q10 8 23 23t22 36l17 -10q-7 -6 -13 -12zM92 194q0 6 -1 11l11 -2h36l7 6l10 -13h-51v-14h34l9 6l10 -13h-54l-6 -4l-9 10l4 3v10z" />
  </g>

</svg>
