<?xml version="1.0" standalone="no"?>
<!DOCTYPE svg PUBLIC "-//W3C//DTD SVG 1.1//EN" "http://www.w3.org/Graphics/SVG/1.1/DTD/svg11.dtd" >
<svg xmlns="http://www.w3.org/2000/svg" xmlns:xlink="http://www.w3.org/1999/xlink" version="1.1" viewBox="0 -154 1024 1024">
  <g transform="matrix(1 0 0 -1 0 870)">
   <path fill="currentColor"
d="M920 566q8 54 17 128l13 -2q-2 -21 -3 -60q-2 -39 1 -55q12 -42 20 -55q-1 -26 -150 -9q-46 7 -106 35t-98 64t-56 67l-5 8h-341v-147q87 26 268 83l12 -17q-106 -42 -214 -80q-54 -18 -66 -27q-12 -8 -26 -30l-46 52q19 8 32 25v376q-3 15 -24 41l9 8l39 -29h549l39 37
l44 -45q14 -8 -6 -13l-18 -9v-44l6 -57q-3 -33 -46 -31v24h-218q13 -42 22 -61q8 -17 19 -36h190l32 40l68 -48q17 -12 -6 -12h-272q17 -22 39 -44q52 -58 164 -85q111 -30 118 8zM38 447h832l35 39l71 -45q23 -15 -11 -14h-527q-41 -61 -101 -117h441l29 37l50 -45
q14 -12 -6 -18l-18 -9v-164l4 -33q5 -32 -48 -38v56h-493v-17q1 -41 -51 -48q5 40 7 136v72q-99 -72 -206 -113l-7 13q108 59 213 149v3q-1 29 -18 57l13 8q23 -17 42 -35q58 54 95 106h-267q-27 0 -45 -14zM296 116h493v174h-475q-9 -9 -18 -16v-158zM212 820h552v106h-552
v-106zM542 707q-8 16 -14 32q-11 26 -22 65h-294v-97h330z" />
  </g>

</svg>
