<?xml version="1.0" standalone="no"?>
<!DOCTYPE svg PUBLIC "-//W3C//DTD SVG 1.1//EN" "http://www.w3.org/Graphics/SVG/1.1/DTD/svg11.dtd" >
<svg xmlns="http://www.w3.org/2000/svg" xmlns:xlink="http://www.w3.org/1999/xlink" version="1.1" viewBox="0 -36 256 256">
  <g transform="matrix(1 0 0 -1 0 220)">
   <path fill="currentColor"
d="M99 79q0 -13 1 -24l-14 -5v13h-55v-14l-14 -7q1 24 1 39v119q0 6 -1 22l14 -9h54l7 9l15 -15l-8 -8v-120zM65 143h21v63h-21v-63zM31 70h21v66h-21v-66zM65 70h21v66h-21v-66zM31 143h21v63h-21v-63zM217 225l8 11l17 -13l-9 -7q-4 -50 -6.5 -63t-10.5 -19t-18 -8
q1 14 -25 22l1 4q17 -4 25 -4.5t11 4.5t5 19.5t4 46.5h-50q-7 -73 -65 -101l-2 3q47 33 52 98h-11q-13 1 -24 -2l-9 9h107zM127 69.5q0 25.5 -1 51.5l14 -9h74l7 10l15 -14l-8 -7v-45q0 -17 1 -34l-14 -7v17h-75v-11l-14 -7q1 30 1 55.5zM140 39h75v66h-75v-66z" />
  </g>

</svg>
