<?xml version="1.0" standalone="no"?>
<!DOCTYPE svg PUBLIC "-//W3C//DTD SVG 1.1//EN" "http://www.w3.org/Graphics/SVG/1.1/DTD/svg11.dtd" >
<svg xmlns="http://www.w3.org/2000/svg" xmlns:xlink="http://www.w3.org/1999/xlink" version="1.1" viewBox="0 -36 256 256">
  <g transform="matrix(1 0 0 -1 0 220)">
   <path fill="currentColor"
d="M100 158l-14 -9v12h-16v-45h13l10 11l16 -18h-39v-58l33 10l1 -4q-35 -13 -73 -31l-11 -9l-12 17l16 4q0 77 -1 99l22 -14l-8 -7v-74l20 6v113h-21v-6l-14 -8q1 15 1 44.5t-1 46.5l16 -9h45l10 10l13 -15l-7 -6q0 -39 1 -60zM36 168h50v54h-50v-54zM129 218v-22h96l8 10
l14 -15l-9 -6q0 -26 2 -42l-15 -7v12h-96l-1 -51q-3 -53 -37 -89l-3 2q27 41 28 99v49q0 27 -1 66zM129 155h96v34h-96v-34zM200 131l-7 -8v-38h21l13 11l15 -18h-49v-52h25l15 11l15 -18h-108q-10 -1 -19 -3l-9 10h29v46q0 15 -1 35l20 -12l-6 -9v-60h26v66q0 37 -1 50z
M126 218q65 10 96 27l15 -18q-12 -1 -111 -15v6z" />
  </g>

</svg>
