<?xml version="1.0" standalone="no"?>
<!DOCTYPE svg PUBLIC "-//W3C//DTD SVG 1.1//EN" "http://www.w3.org/Graphics/SVG/1.1/DTD/svg11.dtd" >
<svg xmlns="http://www.w3.org/2000/svg" xmlns:xlink="http://www.w3.org/1999/xlink" version="1.1" viewBox="0 -200 1000 1000">
  <g transform="matrix(1 0 0 -1 0 800)">
   <path fill="currentColor"
d="M752 95h-468v-24q3 -35 -50 -43q5 37 7 145v185q-3 24 -19 39l11 11l38 -34h127l48 97h-328q-26 1 -44 -13l-33 33h791l40 48l72 -54q11 -8 9 -11q-3 -4 -19 -3h-435l-72 -97h306l37 38l48 -46q7 -6 5 -10q-1 -4 -10 -6l-18 -9v-148l5 -113q3 -26 -48 -35v50zM752 354
h-468v-239h468v239zM321 573l4 12q42 -8 59 -10q26 -4 40 2q25 9 24 55v41h-171q-36 -101 -188 -161l-4 10q131 73 154 151h-71q-27 1 -44 -13l-33 31h154q0 2 2 7q1 7 2 10q5 22 10 72h-78q-27 1 -44 -13l-33 31h157q4 55 5 91h-96q-26 -3 -35 -15l-30 34h333l26 33l44 -31
q9 -6 9 -11t-9 -8l-20 -9v-243q2 -66 -34 -92q-22 -19 -66 -23q-4 21 -15 29q-11 7 -52 20zM718 640l4 13q56 -16 89 -18q24 -1 35 7q11 9 14 29q3 18 -11 41q-13 20 -35 38q-28 19 -58 38q34 49 73 106h-202v-278l5 -62q0 -20 -12 -31q-12 -10 -37 -14q4 30 7 153v241
q-3 18 -16 33l13 11l31 -33h207l26 28l51 -44q6 -10 -8 -14q-12 3 -23 -4l-40 -40q-31 -30 -47 -46q57 -31 83 -58q26 -29 31 -56q4 -27 -5 -46q-10 -23 -30 -35q-24 -14 -55 -18q-1 18 -13 26q-15 10 -77 33zM286 703l-3 -12h165v89h-151q-4 -44 -11 -77zM305 889
q-2 -49 -6 -91h149v91h-143z" />
  </g>

</svg>
