<?xml version="1.0" standalone="no"?>
<!DOCTYPE svg PUBLIC "-//W3C//DTD SVG 1.1//EN" "http://www.w3.org/Graphics/SVG/1.1/DTD/svg11.dtd" >
<svg xmlns="http://www.w3.org/2000/svg" xmlns:xlink="http://www.w3.org/1999/xlink" version="1.1" viewBox="0 -36 256 256">
  <g transform="matrix(1 0 0 -1 0 220)">
   <path fill="currentColor"
d="M17 206l-1 5q20 4 42 12.5t33 17.5l13 -19q-9 0 -33 -6v-48h14l10 12l16 -19h-40v-24q21 -8 26 -16.5t0 -18t-10 4t-16 25.5q0 -98 1 -117l-15 -8q1 44 1 121q-19 -40 -48 -70l-2 3q34 53 48 100h-17q-10 0 -19 -2l-9 9h47v45q-11 -2 -41 -7zM193 24.5q6 0.5 8 9.5v26
h-64v-47l-14 -6q1 30 1 66q0 31 -1 62l16 -8h59l10 9l15 -14l-8 -5v-80q1 -12 -2.5 -18t-16.5 -13q-2 10 -26 16v4q17 -2 23 -1.5zM137 97h64v23h-64v-23zM137 67h64v23h-64v-23zM129 206q11 21 16 40l21 -11q-9 -4 -17 -19h52l10 9l15 -15l-9 -4q-19 -22 -37 -37
q12 -8 30.5 -15.5t36.5 -9.5v-4q-13 -2 -15 -12q-18 6 -32.5 15t-28.5 19q-13 -10 -28.5 -18.5t-44.5 -17.5l-1 3q25 12 38.5 20.5t27.5 20.5q-14 14 -24 29q-13 -18 -33 -35l-3 3q15 18 26 39zM171 176q20 18 30 33h-55l-4 -5q14 -17 29 -28z" />
  </g>

</svg>
