<?xml version="1.0" standalone="no"?>
<!DOCTYPE svg PUBLIC "-//W3C//DTD SVG 1.1//EN" "http://www.w3.org/Graphics/SVG/1.1/DTD/svg11.dtd" >
<svg xmlns="http://www.w3.org/2000/svg" xmlns:xlink="http://www.w3.org/1999/xlink" version="1.1" viewBox="0 -36 256 256">
  <g transform="matrix(1 0 0 -1 0 220)">
   <path fill="currentColor"
d="M122 198.5q0 21.5 -1 47.5l15 -9h71l9 10l14 -15l-7 -5q0 -34 1 -67l-14 -7v12h-75v-6l-14 -7q1 25 1 46.5zM135 204h75v26h-75v-26zM135 172h75v25h-75v-25zM107 36l-14 15q16 6 57 36v45h-18q-10 -1 -19 -3l-9 10h43l10 10l13 -13l-7 -7v-98q0 -9 -4.5 -14t-14.5 -9
q-7 15 -24 20v4q19 -3 24.5 -3t5.5 5v47q-32 -28 -43 -45zM180 41l-13 16q13 4 55 31v44h-20q-10 -1 -19 -3l-9 10h45l10 10l14 -14l-8 -6v-99q-1 -16 -20 -21q-2 14 -27 15l1 5q21 -2 27 -0.5t6 6.5v47q-31 -25 -42 -41zM108 122q19 -9 23.5 -16.5t-2.5 -16t-9.5 4
t-13.5 26.5zM175 122q16 -7 23 -14.5t0 -17t-10 3t-15 26.5zM97 190l15 -20h-38v-53l30 14l1 -4l-31 -21v-47q0 -23 1 -46l-15 -5q1 22 1 45v46q-33 -20 -39 -27l-11 20q21 6 50 20v58h-23q-12 -33 -24 -50l-3 1q18 43 21 98l20 -12q-7 -6 -13 -30h22q0 35 -1 70l24 -10
l-10 -7v-53h12z" />
  </g>

</svg>
