<?xml version="1.0" standalone="no"?>
<!DOCTYPE svg PUBLIC "-//W3C//DTD SVG 1.1//EN" "http://www.w3.org/Graphics/SVG/1.1/DTD/svg11.dtd" >
<svg xmlns="http://www.w3.org/2000/svg" xmlns:xlink="http://www.w3.org/1999/xlink" version="1.1" viewBox="0 -200 1000 1000">
  <g transform="matrix(1 0 0 -1 0 800)">
   <path fill="currentColor"
d="M526 384h137v182h-137v-182zM429 591h49v99l-5 55l60 -13q18 -5 18 -11q-1 -6 -25 -14v-116h137v98l-4 55l53 -13q25 -6 25 -13q-1 -8 -27 -17v-110h91l38 42l51 -38q10 -16 9 -22t-18 -7h-171v-182h135l43 44l57 -44q8 -8 7 -12q-2 -4 -16 -15h-551l-84 -2l-8 33l81 -4
h104v182h-39l-79 -4l-8 33zM673 338q92 -42 159 -98q70 -59 80 -105q4 -29 -10 -41q-13 -11 -28 12q-24 49 -71 103q-60 69 -135 117zM251 112q58 44 127 106q68 62 134 131l43 -30q21 -15 18 -23t-40 0q-64 -54 -135 -105q-72 -52 -139 -91zM345 648q-38 -99 -83 -203
q-27 -61 -61 -135q-9 -32 -4 -69q3 -34 21 -96q10 -29 3 -53t-30 -27q-19 0 -26 16q-8 16 -5 48l2 39q2 21 3 35q1 23 0 53q-3 21 -24 37q-22 15 -79 36l3 8q19 -4 37 -5q14 -2 29 -2q12 1 20 8q10 7 25 28l4 8q32 54 58 101q48 86 94 177zM88 575q47 -14 69 -29
q27 -19 34 -50q1 -28 -13 -33t-26 19q-13 24 -30 45t-38 39zM178 726q51 -18 73 -33q26 -18 34 -44q4 -22 -9 -30q-14 -7 -29 15q-13 20 -30 39q-19 21 -44 44zM172 859q3 -9 3 -22q0 -7 -1 -18v-6h296v108l-5 47l62 -17q40 -10 29 -18q-6 -5 -39 -11v-1v-108h333l36 33
l51 -37q31 -23 20 -30q-9 -5 -46 -5q-24 -33 -49 -67q-28 -35 -55 -67l-13 6q16 30 33 71q20 45 31 67h-684q0 -25 -14 -71q-17 -59 -48 -88q-17 -15 -29 -8q-14 8 -11 43q0 12 7 25q4 7 17 24q23 30 34 54q20 41 29 96h13z" />
  </g>

</svg>
