<?xml version="1.0" standalone="no"?>
<!DOCTYPE svg PUBLIC "-//W3C//DTD SVG 1.1//EN" "http://www.w3.org/Graphics/SVG/1.1/DTD/svg11.dtd" >
<svg xmlns="http://www.w3.org/2000/svg" xmlns:xlink="http://www.w3.org/1999/xlink" version="1.1" viewBox="0 -205 1024 1024">
  <g transform="matrix(1 0 0 -1 0 819)">
   <path fill="currentColor"
d="M602 770l12 12q66 -64 84 -94q15 -30 16 -56q0 -24 -12 -36t-30 -8q-18 3 -18 34q-1 27 -10 60q-9 32 -42 88v0v0zM534 830q24 -205 52 -292q26 -87 86 -192q42 63 84 168q42 104 78 316h-300v0v0zM826 858l32 44q69 -60 70 -62q1 -3 0 -8q-3 -3 -18 -12q-16 -6 -20 -12
q-4 -5 -22 -100q-18 -93 -60 -200q-43 -108 -106 -200q39 -48 118 -108q78 -60 174 -71v-18q-52 1 -68 -10q-16 -12 -34 -24q-69 49 -116 89q-45 41 -102 104q-64 -75 -158 -139q-93 -66 -210 -102l-6 14q107 52 196 119q90 68 150 140q-60 96 -92 204t-52 324h-38
q-33 2 -48 -10l-26 38h436v0v0zM176 964q92 -51 116 -78q21 -28 18 -52q-3 -22 -14 -34q-12 -11 -26 -6q-12 2 -18 32t-20 54t-64 72l8 12v0v0zM64 754h264l28 40l54 -50q9 -7 10 -14q1 -6 -16 -8q-21 -3 -42 -36q-39 -55 -84 -122v-108l26 -8l88 130q53 -33 56 -42
q1 -7 -4 -10q-6 -3 -20 -2q-15 1 -102 -82q54 -24 76 -44q18 -21 22 -36q3 -16 -2 -32q-6 -14 -20 -16q-13 -3 -22 12q-10 14 -20 32t-28 36t-50 40v-280l4 -83q1 -12 -18 -30q-20 -18 -40 -18l4 119v358q-54 -84 -176 -182l-12 12q110 120 146 172q32 51 62 94
q27 42 78 132h-192q-24 0 -50 -8l-20 34v0v0z" />
  </g>

</svg>
