<?xml version="1.0" standalone="no"?>
<!DOCTYPE svg PUBLIC "-//W3C//DTD SVG 1.1//EN" "http://www.w3.org/Graphics/SVG/1.1/DTD/svg11.dtd" >
<svg xmlns="http://www.w3.org/2000/svg" xmlns:xlink="http://www.w3.org/1999/xlink" version="1.1" viewBox="0 -205 1024 1024">
  <g transform="matrix(1 0 0 -1 0 819)">
   <path fill="currentColor"
d="M966 632l-4 -13q-26 8 -33 -12q-7 -14 -11 -14q-8 0 -34 20q-144 109 -228 270q-45 -98 -120 -180t-152 -128l-9 10q76 58 151 164.5t115 210.5l50 -31q21 -12 21 -20q0 -10 -40 -14q40 -76 122 -152q83 -82 172 -111zM819 643l-6 -14h-330v21h242l28 35q11 14 13 14
q4 0 16 -14zM835 524q16 -19 16 -26q0 -12 -49 -12l-56 -89q-17 -29 -18 -29q-6 -8 -17 -8q-5 0 -14 1q-18 3 -18 8q0 1 26 38l61 107h-322v20h317l17 22q10 12 13 12q4 0 16 -14zM887 329q8 -10 8 -15q0 -10 -24 -10v-180q0 -36 0 -35q-1 -5 -23 -10q-10 -2 -14 -2
q-8 0 -8 7q0 4 1 13.5t1 17.5h-363q0 -32 -1 -34.5t-21 -6.5q-12 -4 -17 -4t-6 4q-1 3 0 14q1 14 1 22v229l-3 41l51 -30h348l11 15q11 14 13 14q3 0 14 -13zM828 136v193h-363v-193h363zM459 883l-3 -16h-197q-12 -100 -37 -166h105q20 34 23 34q1 0 23 -16l30 -26
q14 -12 14 -19t-10 -12t-19 -9q-28 -163 -116 -317.5t-211 -236.5l-8 11q111 91 187.5 244t93.5 326h-119q-65 -161 -143 -238l-9 7q63 79 104 202q35 106 45 216h-138v20h287l20 29q11 17 15 17q3 0 24 -17zM269 471q5 -16 1 -32q-5 -17 -15 -17q-6 0 -45 53q-20 44 -49 69
v10q90 -32 108 -83z" />
  </g>

</svg>
