<?xml version="1.0" standalone="no"?>
<!DOCTYPE svg PUBLIC "-//W3C//DTD SVG 1.1//EN" "http://www.w3.org/Graphics/SVG/1.1/DTD/svg11.dtd" >
<svg xmlns="http://www.w3.org/2000/svg" xmlns:xlink="http://www.w3.org/1999/xlink" version="1.1" viewBox="0 -36 256 256">
  <g transform="matrix(1 0 0 -1 0 220)">
   <path fill="currentColor"
d="M60 244q19 -11 21.5 -16.5t-7.5 -14.5h38l9 10l16 -14q-5 -1 -10.5 -4.5t-20.5 -18.5l-2 2l8 18h-44l19 -8l-7 -6v-16h20l10 10l16 -17h-46v-21h17l9 10l16 -17h-42v-22h26l11 11l17 -18h-54v-23h-14v23h-26q-9 0 -19 -2l-9 9h54v22h-10q-11 0 -21 -2l-9 9h40v21h-16
q-11 0 -19 -2l-10 9h45v30h-32q0 -15 -7.5 -21.5t-14 -2.5t3.5 12t14 28h4v-9h35q-2 14 -11 29zM31 100l15 -9h50l6 10l16 -12l-8 -8v-57l-13 -5v18h-52v-18l-14 -5v86zM45 84v-40h52v40h-52zM160 188h64l6 10l18 -13q-14 -6 -31 -35l-5 1l12 30h-66q-12 -33 -29 -55l-3 2
q16 30 24 66t7 53l22 -10l-7 -6q-3 -10 -12 -43zM193 154l-7 -7q7 -51 24.5 -81.5t35.5 -37.5l-1 -4q-14 1 -20 -10q-22 25 -31.5 55.5t-12.5 65.5q-6 -50 -23.5 -79.5t-47.5 -48.5l-1 4q27 24 41.5 59t17.5 97z" />
  </g>

</svg>
