<?xml version="1.0" standalone="no"?>
<!DOCTYPE svg PUBLIC "-//W3C//DTD SVG 1.1//EN" "http://www.w3.org/Graphics/SVG/1.1/DTD/svg11.dtd" >
<svg xmlns="http://www.w3.org/2000/svg" xmlns:xlink="http://www.w3.org/1999/xlink" version="1.1" viewBox="0 -205 1024 1024">
  <g transform="matrix(1 0 0 -1 0 819)">
   <path fill="currentColor"
d="M412 828h198q27 72 46 154q76 -27 80 -32q2 -3 2 -6t-12 -8q-13 -4 -26 -28q-12 -24 -36 -80h214l36 40l56 -52q10 -13 -4 -16h-220q33 -53 70 -88q36 -36 84 -68q48 -31 112 -40v-16q-24 0 -44 -6q-18 -6 -36 -30q-49 33 -88 72q-37 38 -64 76q-24 36 -60 100h-66
q-67 -126 -146 -198l24 -24h126v130q81 -25 82 -32q0 -6 -2 -8q-3 0 -30 -12v-78h124l24 18l40 -28q6 -6 6 -8q0 -4 -12 -16v-190l2 -100q0 -12 -14 -20q-14 -9 -40 -14v34h-130v-129q1 -27 14 -36q11 -8 32 -8h142q27 7 36 46q8 36 10 117h18q3 -57 6 -92q2 -34 32 -49
q-13 -29 -32 -44q-18 -15 -54 -18h-180q-36 1 -54 16q-15 12 -20 48v149h-126v-18q0 -12 -18 -24q-15 -12 -36 -14l4 120v266q-37 -29 -80 -52l-8 12q53 41 110 110q56 65 94 146h-116q-22 0 -52 -8l-18 36v0v0zM532 280h126v124h-126v-124v0v0zM708 404v-124h130v124h-130
v0v0zM532 430h126v122h-126v-122v0v0zM708 552v-122h130v122h-130v0v0zM334 792l34 46l58 -52q3 -3 4 -8q0 -12 -12 -12h-342q-18 1 -42 -10l-24 36h324v0v0zM62 636h222l32 44l58 -50q2 -3 2 -8q0 -12 -12 -12h-212q-37 0 -68 -8l-22 34v0v0zM78 416l60 -44h150l26 34
l60 -44q6 -6 6 -8q0 -6 -32 -30v-146l4 -81q1 -12 -16 -24q-15 -12 -36 -16v82h-172v-62q0 -16 -18 -30q-18 -13 -36 -14l4 119v264v0v0zM128 164h172v182h-172v-182v0v0zM128 974l10 10q84 -55 102 -82q19 -27 18 -48q0 -22 -12 -32q-13 -11 -28 -6q-16 3 -20 22
q-2 19 -10 44q-6 25 -60 92v0v0zM62 504h222l30 46l60 -52q2 -3 2 -8q0 -12 -12 -12h-226q-34 0 -58 -8l-18 34v0v0z" />
  </g>

</svg>
