<?xml version="1.0" standalone="no"?>
<!DOCTYPE svg PUBLIC "-//W3C//DTD SVG 1.1//EN" "http://www.w3.org/Graphics/SVG/1.1/DTD/svg11.dtd" >
<svg xmlns="http://www.w3.org/2000/svg" xmlns:xlink="http://www.w3.org/1999/xlink" version="1.1" viewBox="0 -36 256 256">
  <g transform="matrix(1 0 0 -1 0 220)">
   <path fill="currentColor"
d="M39 122h42v51h-42v-51zM50 70.5q4 -8.5 -2.5 -18t-7.5 3.5t-12 37l4 1q14 -15 18 -23.5zM88 218l12 12l14 -19h-79q-11 0 -20 -2l-9 9h82zM116 65l1 -4q-41 -16 -66.5 -27t-30.5 -17l-11 19q13 1 29 5t32 9q11 40 12 55l18 -13q-7 -3 -12 -12t-13 -29zM40 180h41l8 10
l13 -14l-8 -6q0 -38 2 -54l-15 -8v7h-42v-6l-15 -7q1 21 1 43.5t-1 43.5zM175 212h39l12 11l15 -18h-58q9 -23 21 -36q13 19 16 29l16 -14q-15 -5 -29 -18q22 -21 41 -25v-4q-11 -2 -14 -9q-10 4 -17 12q0 -45 1 -51l-13 -5v6h-23v-56q0 -18 -18 -26q-3 15 -25 19v4
q20 -2 25 -1.5t5 8.5v52h-23v-5l-13 -4q1 21 1 59q-13 -13 -30 -22l-2 4q43 35 59 83h-17q-10 0 -19 -2l-9 9h46q3 21 2 35l21 -9l-6 -5q-3 -12 -4 -21zM149 158h51q-13 17 -21 47h-5q-7 -25 -25 -47zM146 129h59v22h-59v-22zM146 97h59v25h-59v-25zM156 68
q-9 -5 -24.5 -23.5t-32.5 -29.5l-2 3q12 12 24.5 30.5t16.5 31.5zM238 43.5q7 -11.5 1.5 -20.5t-9 -1t-8 17.5t-24.5 32.5l3 3q30 -20 37 -31.5zM137 182.5q4 -6.5 -1 -14.5t-8.5 3.5t-13.5 22.5l3 3q16 -8 20 -14.5z" />
  </g>

</svg>
