<?xml version="1.0" standalone="no"?>
<!DOCTYPE svg PUBLIC "-//W3C//DTD SVG 1.1//EN" "http://www.w3.org/Graphics/SVG/1.1/DTD/svg11.dtd" >
<svg xmlns="http://www.w3.org/2000/svg" xmlns:xlink="http://www.w3.org/1999/xlink" version="1.1" viewBox="0 -205 1024 1024">
  <g transform="matrix(1 0 0 -1 0 819)">
   <path fill="currentColor"
d="M506 982l54 -38h282l30 40l62 -42q6 -6 6 -8q-1 -6 -34 -32v-192l4 -64q1 -14 -18 -28q-18 -15 -36 -14v36h-300v-12q0 -6 -18 -18q-18 -9 -36 -8l4 102v278v0v0zM556 666h300v108h-300v-108v0v0zM568 508h320l36 36q66 -45 66 -48q0 -4 -2 -8q-3 -2 -32 -22l-2 -162
q-3 -137 -14 -175q-9 -38 -36 -64q-24 -25 -60 -38q-12 35 -36 46q-24 9 -92 30l6 18q80 -15 110 -18q27 -1 48 16q21 18 24 155l2 208h-362q-69 -79 -132 -124l-12 10q36 36 84 100q48 61 96 146l72 -36q4 -9 -4 -12q-7 -3 -22 -6q-14 -2 -58 -52v0v0zM692 468
q60 -30 66 -36q3 -7 -2 -10q-4 -4 -20 -8q-15 -2 -38 -40q37 -13 74 -28q36 -15 54 -32q17 -18 14 -38q-3 -21 -18 -24t-30 18q-15 18 -38 42q-25 21 -70 42q-54 -69 -122 -132l-12 12q69 93 96 144q27 48 46 90v0v0zM492 416q71 -22 76 -26q3 -3 4 -8q0 -6 -30 -14v-172
h228l36 40q51 -45 54 -54q0 -7 -2 -10q-3 -3 -18 -2h-298l-28 -29l-50 39l28 22v214v0v0zM556 800h300v118h-300v-118v0v0zM14 568q17 6 50 22q69 108 114 190q44 81 80 172q71 -36 74 -42v-8q-1 -3 -16 -8q-16 -3 -28 -18q-13 -15 -56 -86q-42 -69 -150 -222l202 4
q48 75 94 186q70 -34 74 -40q3 -5 0 -10q-3 -3 -14 -6q-12 -1 -18 -8q-6 -5 -30 -40q-21 -35 -90 -142q-66 -107 -210 -280l276 30q-18 66 -60 126l12 10q56 -51 80 -86q21 -35 30 -64q9 -30 -2 -50q-9 -21 -30 -18q-19 3 -20 24q0 22 -6 38q-147 -24 -210 -42
q-63 -19 -104 -44l-40 78q20 6 56 22q90 107 204 296q-87 -9 -138 -20q-52 -9 -88 -30l-36 66v0v0z" />
  </g>

</svg>
