<?xml version="1.0" standalone="no"?>
<!DOCTYPE svg PUBLIC "-//W3C//DTD SVG 1.1//EN" "http://www.w3.org/Graphics/SVG/1.1/DTD/svg11.dtd" >
<svg xmlns="http://www.w3.org/2000/svg" xmlns:xlink="http://www.w3.org/1999/xlink" version="1.1" viewBox="0 -205 1024 1024">
  <g transform="matrix(1 0 0 -1 0 819)">
   <path fill="currentColor"
d="M330 892h216l30 36l60 -40q8 -4 8 -10q0 -5 -32 -28v-114l4 -98q1 -12 -18 -24q-21 -10 -36 -10v52h-138l-20 -188h120l26 38l62 -40q7 -3 8 -12q-1 -6 -34 -24q-9 -189 -18 -254q-10 -64 -28 -95q-19 -26 -86 -56q-12 36 -32 48q-18 11 -96 34l6 20q72 -18 108 -24
q36 -4 54 10q17 13 26 79q8 68 14 250h-120l-36 -34l-50 44q26 14 32 38l22 236l50 -44h130v182h-178q-20 0 -34 -8l-20 36v0v0zM584 160l48 14q65 183 104 354q36 170 66 416q87 -36 90 -42q3 -3 0 -8q-1 -6 -16 -8q-15 -1 -24 -16q-7 -13 -20 -94q-13 -79 -56 -254
q-41 -174 -118 -354q153 9 258 24q-7 56 -20 104q-12 48 -68 166l14 6q81 -115 106 -178q24 -64 34 -106q9 -41 4 -69q-6 -27 -18 -42t-30 -12t-18 32q-1 28 -2 71q-186 -24 -224 -35q-36 -11 -72 -32l-38 63v0v0zM110 904l6 16q60 -18 90 -30q29 -12 50 -30q17 -19 20 -40
q3 -22 -8 -34q-12 -13 -26 -14q-16 0 -22 18q-6 16 -14 32q-7 15 -22 30t-74 52v0v0zM44 684l6 16q47 -15 82 -26q36 -12 54 -32q17 -21 20 -42q1 -22 -10 -38t-28 -10q-15 3 -20 22q-6 17 -14 34q-7 14 -28 32q-18 17 -62 44v0v0zM188 394q-19 -58 -46 -62t-90 -4l-2 -20
q39 -2 72 -10q30 -6 40 -18q8 -12 10 -42q0 -30 -8 -84q-10 -53 -8 -81q1 -27 20 -36q18 -6 34 2t20 34q3 25 -6 83q-10 57 -10 94q-1 36 4 66q6 27 12 58l118 420l-20 8l-140 -408v0v0z" />
  </g>

</svg>
