<?xml version="1.0" standalone="no"?>
<!DOCTYPE svg PUBLIC "-//W3C//DTD SVG 1.1//EN" "http://www.w3.org/Graphics/SVG/1.1/DTD/svg11.dtd" >
<svg xmlns="http://www.w3.org/2000/svg" xmlns:xlink="http://www.w3.org/1999/xlink" version="1.1" viewBox="0 -36 256 256">
  <g transform="matrix(1 0 0 -1 0 220)">
   <path fill="currentColor"
d="M154 154h56v20h-56v-20zM154 124h56v23h-56v-23zM111 102q8 -5 8 -9t-4 -9t-8 3.5t-23 22.5l2 2q17 -5 25 -10zM42 11v5q58 25 89 58h13v-7q-52 -43 -102 -56zM159 76q39 -40 84 -46l-1 -5q-15 -2 -20 -11q-39 19 -69 62h6zM171 78q14 15 29 35l16 -10q-8 -2 -16 -7.5
t-23 -17.5h-6zM217 79l13 9l15 -16h-91v-48.5t1 -12.5l-15 -3q1 12 1 64h-56q-13 0 -22 -3l-10 10h88v35l20 -8l-7 -7v-20h63zM140 208l21 -8l-7 -5v-14h55l6 10l16 -12l-8 -7v-18l12 8l13 -15h-25q0 -20 1 -31l-14 -4v5h-104q-13 0 -22 -3l-10 10h67v23h-45q-13 0 -22 -3
l-10 10h77v20h-34q-13 0 -22 -3l-10 10h66q0 19 -1 27v0zM133 208h110l-17 19l-15 -12h-66q10 11 3 18t-34 14l-2 -3q22 -16 25 -29h-76l-16 7q3 -29 2 -61t-8 -71t-31 -74l3 -2q32 37 42 81.5t8 112.5h72v0z" />
  </g>

</svg>
