<?xml version="1.0" standalone="no"?>
<!DOCTYPE svg PUBLIC "-//W3C//DTD SVG 1.1//EN" "http://www.w3.org/Graphics/SVG/1.1/DTD/svg11.dtd" >
<svg xmlns="http://www.w3.org/2000/svg" xmlns:xlink="http://www.w3.org/1999/xlink" version="1.1" viewBox="0 -36 256 256">
  <g transform="matrix(1 0 0 -1 0 220)">
   <path fill="currentColor"
d="M145 247l21 -7l-7 -7v-7h31l11 8l15 -15h-57v-12h48l13 10l15 -17h-129q-10 0 -20 -2l-9 9h69v12h-25q-11 0 -20 -2l-10 9h55q0 9 -1 21zM131 192l-9 -2q-15 -8 -47 -18l-1 3q29 13 44 28zM212.5 182.5q-13.5 7.5 -36.5 13.5v3q48 -2 49 -13t-12.5 -3.5zM101 94
q0 17 -1 33l14 -6h84l8 8l12 -13l-6 -3v-29q0 -11 1 -22l-14 -5v5h-86v-3l-13 -5q1 23 1 40zM113 104h86v10h-86v-10zM113 88h86v9h-86v-9zM113 69h86v12h-86v-12zM128 64l13 -13l-8 -2q-18 -13 -40 -23l-4 3q17 10 38 35h1zM203 35.5q-9 11.5 -27 21.5l1 3q43 -10 39 -23
t-13 -1.5zM104 137h103v36h-103v-36zM206 180l7 7l12 -10l-5 -5v-26q0 -7 1 -16l-14 -4v4h-103v-2l-13 -4q1 14 1 33.5t-1 25.5l12 -3h103zM146 164l-10 -2q-24 -11 -29 -12l-1 3q16 9 30 22zM181 160l9 -9l-6 -4v-12h-11v13h-34v-13h-11q0 13 -1 24l13 -4h34zM168 175h11
v-6q-1 -3 8 -3t11.5 2t7.5 -4t-14 -6h-13q-10 0 -11 9v8zM33 227q26 -13 29.5 -21t-2.5 -18t-10.5 5.5t-18.5 30.5zM46 147l9 10l15 -13l-9 -7v-83q15 -16 31.5 -21.5t61 -6.5t93.5 4v-4q-16 -4 -17 -16q-85 0 -111 4.5t-39 13.5t-19.5 16.5t-18 -3.5t-19.5 -23l-14 12
q12 10 38 24v86h-9q-10 -1 -20 -3l-9 10h37z" />
  </g>

</svg>
