<?xml version="1.0" standalone="no"?>
<!DOCTYPE svg PUBLIC "-//W3C//DTD SVG 1.1//EN" "http://www.w3.org/Graphics/SVG/1.1/DTD/svg11.dtd" >
<svg xmlns="http://www.w3.org/2000/svg" xmlns:xlink="http://www.w3.org/1999/xlink" version="1.1" viewBox="0 -205 1024 1024">
  <g transform="matrix(1 0 0 -1 0 819)">
   <path fill="currentColor"
d="M450 844l60 -46h142v184l78 -34l4 -8q-1 -3 -4 -8l-28 -14v-120h156l26 38l54 -48q15 -9 16 -18q0 -6 -14 -8q-27 -10 -36 -16l-28 -28q-21 -22 -62 -74l-12 8l60 120h-160v-218h102l30 38l60 -48q7 -6 8 -12q0 -7 -12 -10q-18 -4 -26 -16q-41 -102 -76 -162
q-34 -58 -76 -104q33 -37 114 -88q84 -44 156 -55v-18q-31 1 -56 -2q-25 -2 -50 -28q-69 45 -114 84q-45 35 -78 73q-54 -58 -132 -103t-194 -84l-4 12q119 55 182 98q62 40 124 107q-36 53 -66 110q-27 56 -54 182h-40q-12 -118 -32 -190q-19 -72 -62 -150
q-43 -76 -128 -151l-8 10q68 78 104 153q33 75 54 154q18 78 22 202v288v0v0zM562 528q27 -99 54 -150t70 -110q40 48 74 114q33 67 54 146h-252v0v0zM500 554h152v218h-152v-218v0v0zM56 744h162v238l78 -32q6 -7 6 -10q0 -5 -36 -22v-174h68l36 46l52 -54q3 -4 4 -8
q0 -10 -12 -10h-148v-168l120 72l10 -16l-130 -90v-370q2 -35 -16 -61q-18 -24 -66 -36q-6 32 -30 46q-21 14 -92 40l6 15q105 -27 126 -23q24 3 24 31v330l-74 -52q-41 -37 -58 -58l-44 56l176 94v190h-78q-21 0 -68 -8l-16 34v0v0z" />
  </g>

</svg>
