<?xml version="1.0" standalone="no"?>
<!DOCTYPE svg PUBLIC "-//W3C//DTD SVG 1.1//EN" "http://www.w3.org/Graphics/SVG/1.1/DTD/svg11.dtd" >
<svg xmlns="http://www.w3.org/2000/svg" xmlns:xlink="http://www.w3.org/1999/xlink" version="1.1" viewBox="0 -200 1000 1000">
  <g transform="matrix(1 0 0 -1 0 800)">
   <path fill="currentColor"
d="M753 656l80 -28q8 -3 9 -7q1 -3 -6 -8q-13 -3 -23 -12q0 -10 -1 -28q0 -19 -1 -28q12 -109 24 -153l3 -12q10 -48 26 -110q19 -63 35 -100q17 -37 35 -62q14 -21 44 -31l-1 -14q-21 0 -37 -1q-14 0 -32 -12q-37 66 -58 144q-17 55 -34 161q-8 41 -14 96
q-12 -107 -39 -186q-54 -158 -172 -240l-12 10q31 31 58 66h-261l1 -27q0 -18 -7 -30q-6 -9 -32 -15q4 39 7 88v251q-28 -48 -68 -91l-10 5q56 91 84 157q30 73 29 79q0 1 -1 2q-3 10 -7 19l7 7l50 -22q16 -11 7 -14q-12 -1 -23 -12l-16 -32q-7 -13 -10 -19h202l28 27
l51 -37q3 -4 -8 -6h-140v-91h50l22 29l51 -34q6 -5 5 -7q-1 -3 -9 -4h-119v-89h50l23 26l54 -35q4 -3 2 -5q-2 -1 -10 -2h-119v-98h54l25 28l47 -37q54 74 83 160q41 135 43 342q-17 30 -23 31zM261 825v-529q1 -75 0 -104q0 -33 -3 -49q-10 -70 -83 -87q-1 26 -27 45
q-21 14 -46 26l3 13q43 -13 70 -18q29 -4 41 23q10 30 10 130v561h-79q1 -192 -10 -394q-10 -152 -38 -243q-26 -86 -80 -161l-5 12q40 92 57 165q23 89 32 227q10 133 8 394h-23q-28 2 -38 -14l-26 34h189l27 31l38 -31q14 -11 0 -18zM878 609l-13 6l46 105h-146l-7 -1
t-7 -2q-36 -105 -85 -174l-7 10q40 90 62 173q3 11 7 32q17 74 22 103q8 55 4 67q-2 6 -12 23q9 -13 -1 2l8 6l74 -34q2 -4 1 -6t-6 -2q-13 -6 -23 -15q-10 -75 -37 -162h150l22 26l49 -47q1 -6 -1 -8q-2 -1 -8 1q-15 -4 -26 -13q-10 -9 -23 -27q-18 -23 -43 -63zM519 939
l71 -23q9 -3 11 -6q1 -2 -5 -5q-20 -8 -29 -20v-45h38l23 28l53 -41q5 -5 3 -7q-2 -1 -11 0h-106l2 -36q0 -20 -8 -29t-32 -14q3 31 6 79h-97l2 -40q0 -20 -8 -29q-7 -9 -32 -14q3 32 6 83h-36q-27 0 -44 -12l-33 32h114v62q1 17 -23 33l9 12l69 -23q12 -5 5 -11
q-20 -9 -29 -20v-53h98v54q1 16 -26 34zM503 735l31 -24h78l22 25l27 -27q12 -11 9 -18l-22 -9v-51l5 -43q-2 -18 -13 -24q-12 -6 -21 -6v21h-79q-1 -8 -6 -11q-8 -7 -29 -11q2 13 5 36q1 12 2 18v92q-3 14 -18 24zM330 722l16 -13h92l17 21l25 -25q13 -10 4 -16l-18 -9v-66
l4 -28q-2 -18 -10 -24q-14 -6 -23 -6v23h-80q-1 -15 -6 -20q-6 -9 -30 -14q2 14 5 41q1 15 2 21v88q-3 15 -7 19zM374 219v-98h117v98h-117zM379 431q-2 -6 -5 -10v-81h117v91h-112zM374 324v-89h117v89h-117zM619 695h-88v-100h88v100zM437 693h-80v-98h80v98zM469 556l4 9
q37 -21 49 -39q12 -17 14 -41q1 -23 -17 -26t-16 19q0 22 -6 40q-7 15 -28 38z" />
  </g>

</svg>
