<?xml version="1.0" standalone="no"?>
<!DOCTYPE svg PUBLIC "-//W3C//DTD SVG 1.1//EN" "http://www.w3.org/Graphics/SVG/1.1/DTD/svg11.dtd" >
<svg xmlns="http://www.w3.org/2000/svg" xmlns:xlink="http://www.w3.org/1999/xlink" version="1.1" viewBox="0 -36 256 256">
  <g transform="matrix(1 0 0 -1 0 220)">
   <path fill="currentColor"
d="M154 181h62v47h-62v-47zM229 193q0 -16 1 -25l-14 -7v13h-62v-8l-14 -7q1 19 1 41.5t-1 44.5l14 -10h61l8 11l14 -15l-8 -6v-32zM167 136l-14 -35h62l9 11l14 -15l-8 -8q-5 -27 -14 -53t-28 -27q2 14 -26 23l1 5q25 -7 30.5 -6.5t10 11t13.5 52.5h-64l-9 -7l-11 15
q6 1 9.5 8.5t9.5 25.5h-9q-10 1 -18 -2l-7 9h102l13 11l14 -18h-80zM50 169h17q0 26 -1 45l13 -8h23v-7h-23v-30h18v59h-47v-59zM117 162h-89q-1 -14 -5.5 -19t-8 -4.5t-4 5.5t4.5 10.5t9 27.5h3l1 -13h9v34q0 23 -1 42l13 -10h47l8 10l13 -14l-7 -5v-57h8l6 6l11 -14
q-9 -2 -23 -19l-3 1zM88.5 32.5q7.5 0.5 7.5 8.5v91h-47v-54q-1 -27 -8.5 -41.5t-23.5 -26.5l-2 1q13 18 16.5 30t4 22t0.5 41t-1 40l14 -5h47l6 7l12 -12l-6 -7v-90q-1 -10 -3.5 -14.5t-14.5 -11.5q0 14 -24 19v5q15 -3 22.5 -2.5zM78.5 110.5q3.5 -2.5 3.5 -8t-5.5 -11
t-7.5 5.5t-12 21l1 3q17 -8 20.5 -10.5zM88 88l3 -1q-11 -15 -17 -22.5t-8 -12.5l-13 7q18 13 35 29z" />
  </g>

</svg>
