<?xml version="1.0" standalone="no"?>
<!DOCTYPE svg PUBLIC "-//W3C//DTD SVG 1.1//EN" "http://www.w3.org/Graphics/SVG/1.1/DTD/svg11.dtd" >
<svg xmlns="http://www.w3.org/2000/svg" xmlns:xlink="http://www.w3.org/1999/xlink" version="1.1" viewBox="0 -144 1024 1024">
  <g transform="matrix(1 0 0 -1 0 880)">
   <path fill="currentColor"
d="M923 88l-1 -13l-2 -14l-4 -13l-7 -12l-9 -11l-11 -9l-12 -6l-13 -4l-13 -3l-14 -1v33l-86 16v7l-41 -20v202h-82v-170l-64 -32v202h-84v-198l-65 -32v475l65 -33h379l32 27l59 -48l-27 -22v-321zM53 68l-1 1v2v1l-1 3v2l-1 1l-1 4l-1 6l-3 12l-6 25l-1 5l68 14l70 15
l18 5v320h-145v22h145v150h-68v22h149l44 48l54 -48v-22h-114v-150h22l54 53l64 -53v-22h-140v-305l58 15l72 15l3 -9l-66 -34l-67 -29l-69 -25l-103 -34l-13 -4l-7 -20zM38 130l14 -61l-25 58zM102 251l-1 16l-2 16l-2 16l-4 16l-5 16l-6 16l-14 33l-10 17l7 6l29 -26
l14 -14l12 -15l11 -16l10 -17l8 -18l7 -18l6 -20l4 -19l-8 -24l-21 -11l-24 8l-11 22v16zM326 423l58 -30l12 -15l-21 -5l-25 -44l-20 -32l-23 -31l-13 -15l-12 -16l-8 5l7 18l26 90l9 34l7 28zM564 431h-84v-170h84v170zM710 431h-82v-170h82v170zM859 431h-85v-170h85v170
zM491 645l65 -32h223l32 27l59 -48l-26 -22v-69l-65 -32v32h-223l-65 -32v176zM779 592h-223v-69h223v69zM337 771l-6 14l-17 27l-23 28l-44 43l-10 8l-31 -70l-43 -84l-51 -78l-28 -38l-30 -36l-32 -34l-7 6l67 120l40 81l18 42l32 85l26 87l3 9l59 -27l12 -15l-19 -5
l-12 -32l35 -14l20 -10l19 -11l17 -11l16 -12l14 -13l14 -14l12 -14l11 -16l2 -24l-16 -19l-25 -1l-19 15zM901 628l-30 12l-29 12l-17 10v-10h-308v16l-25 -11l-35 -13l-38 -11l-39 -11l-4 9l101 58l58 38l26 18l47 39l19 19l15 16l5 5l38 -40l96 -45l55 -22l56 -18l28 -7
l29 -6l45 -12l-63 -57zM675 763l-31 -25l-55 -34l-59 -31h197l27 31l-45 34l-24 21l-1 2zM738 986l65 -11l16 -11l-16 -9v-58h68l54 53l64 -53v-22h-186v-64l-65 -32v96h-143v-64l-65 -32v96h-186v22h186v89l65 -11l16 -11l-16 -9v-58h143v89zM859 88v152h-85v-170l-6 -3h76
l4 1l4 1l1 1l1 1l1 1l2 5l1 5z" />
  </g>

</svg>
