<?xml version="1.0" standalone="no"?>
<!DOCTYPE svg PUBLIC "-//W3C//DTD SVG 1.1//EN" "http://www.w3.org/Graphics/SVG/1.1/DTD/svg11.dtd" >
<svg xmlns="http://www.w3.org/2000/svg" xmlns:xlink="http://www.w3.org/1999/xlink" version="1.1" viewBox="0 -205 1048 1024">
  <g transform="matrix(1 0 0 -1 0 819)">
   <path fill="currentColor"
d="M813 988l38 -26q22 -14 19 -24q-2 -10 -29 -11v-77v-9q2 -11 -1 -14q-3 -6 -19 -10q-21 -5 -26 -1q-3 3 -3 16l1 6h-541v-88v-20q148 19 246 37q138 27 226 58l33 -23q21 -14 14 -18q-4 -2 -36 -2h-2l-172 -28q27 -9 24 -16q-3 -5 -29 -10v-47l194 27l34 42l50 -28
q18 -7 18 -13q1 -5 -18 -8l-278 -36v-69l267 34l33 43l55 -24q20 -10 19 -18t-24 -11l-350 -42v-54q0 -18 8 -26q9 -9 35 -11q21 -1 104 -1q82 1 105 2q34 4 49 20q20 22 40 84l11 -4l-12 -91q30 -6 27 -25q-2 -21 -38 -26q-30 -4 -154 -4q-110 0 -153 1q-40 2 -57 23
q-12 19 -12 53v54l-284 -31q-13 -30 -39.5 -58.5t-64.5 -52.5l-10 7q42 38 67 92q26 72 28 192v219l-2 47l44 -26h533zM792 946h-540v-91h540v91zM509 744q-66 -8 -128 -14q-67 -8 -130 -12l-3 -54l-1 -20l262 32v68zM243 625q-2 -17 -5.5 -33.5t-7.5 -30.5l279 30v68z
M141 418l47 -26h236l27 26l41 -31q22 -18 12 -26q-7 -6 -23 -6v-174v-23q0 -33 -3 -42q-4 -12 -22 -18q-18 -3 -21 3q-3 5 -1 26l1 28h-244v-29q2 -23 -1 -29q-3 -9 -17 -16q-19 -6 -25 3q-3 7 -3 25l1 9v232zM191 170h243v205h-243v-205zM633 403q29 -10 22 -16
q-4 -5 -33 -11v-126q49 20 128 65q79 46 131 83l57 -33q19 -11 11 -16q-10 -6 -48 1q-63 -32 -129 -59q-81 -32 -150 -52v-70q2 -11 8 -18q11 -12 36 -12q20 -3 95 -4q76 0 99 4q33 8 49 37q19 32 33 95l12 -4l-1 -13q-3 -32 -4 -50q-2 -25 -5 -54q40 -20 39 -31t-50 -16
q-30 -3 -145 -3q-108 0 -143 2q-41 2 -56 18q-12 14 -12 40v222l-3 42z" />
  </g>

</svg>
