<?xml version="1.0" standalone="no"?>
<!DOCTYPE svg PUBLIC "-//W3C//DTD SVG 1.1//EN" "http://www.w3.org/Graphics/SVG/1.1/DTD/svg11.dtd" >
<svg xmlns="http://www.w3.org/2000/svg" xmlns:xlink="http://www.w3.org/1999/xlink" version="1.1" viewBox="0 -36 256 256">
  <g transform="matrix(1 0 0 -1 0 220)">
   <path fill="currentColor"
d="M60 221l15 -10h71q-1 7 -4.5 16t-8.5 15l2 2q15 -9 21.5 -16.5t-3.5 -16.5h55l13 12l18 -19h-164q0 -45 -1 -79t-12 -62.5t-44 -55.5l-2 4q39 38 44 114q-27 -20 -36 -34l-13 15q17 5 50 24q0 67 -1 91zM43.5 172.5q5.5 -8.5 -2 -17t-10 6.5t-11.5 29l2 3
q16 -13 21.5 -21.5zM133 178l12 10l13 -17h-58v-137h44l9 10l11 -17h-65l-7 -5l-10 11l6 6v122q0 10 -1 25l12 -8h34zM113 169l15 -8l-3 -5q-3 -11 -5 -15h15l9 9l12 -16h-20q0 -12 -1 -32h6l10 9l12 -16h-28l-2 -8q13 -9 19 -16t2 -17.5t-8 1t-14 27.5q-6 -24 -31 -42l-1 3
q18 20 22 52h-3q-3 0 -12 -2l-7 9h23q1 20 1 32h-7q-4 -9 -15 -22l-2 2q12 28 13 55zM196 48q8 8 16 21h-36q9 -11 20 -21zM170 192l13 -7h20l7 8l13 -11l-7 -5v-23q1 -4 6.5 -4t9.5 2t9.5 -4t-8.5 -8h-19q-10 0 -10 11v27h-21q-1 -35 -29 -52l-2 2q20 17 18 64zM214 76l8 7
l11 -14l-8 -4q-13 -17 -19 -24q12 -13 41 -17v-4q-13 -1 -16 -9q-22 10 -34 21q-17 -16 -48 -23l-1 3q28 14 41 28q-11 15 -18 29q-2 1 -10 -2l-5 9h58zM216 122h-39v-23h39v23zM224 137l12 -13l-7 -4v-13q0 -7 1 -16l-14 -5v6h-39v-3l-13 -5q1 16 1 26t-1 25l14 -6h38z" />
  </g>

</svg>
