<?xml version="1.0" standalone="no"?>
<!DOCTYPE svg PUBLIC "-//W3C//DTD SVG 1.1//EN" "http://www.w3.org/Graphics/SVG/1.1/DTD/svg11.dtd" >
<svg xmlns="http://www.w3.org/2000/svg" xmlns:xlink="http://www.w3.org/1999/xlink" version="1.1" viewBox="0 -205 1024 1024">
  <g transform="matrix(1 0 0 -1 0 819)">
   <path fill="currentColor"
d="M366 994l82 -30q6 -2 4 -10q1 -4 -34 -22v-66h194v122l82 -32q6 -2 4 -10q1 -4 -34 -22v-58h204l40 48l60 -58q3 -3 4 -8q0 -7 -14 -8h-294v-24l4 -28q1 -18 -18 -30q-21 -10 -42 -10l4 58v34h-194v-24l4 -46q-1 -15 -20 -24q-16 -10 -40 -10l4 80v24h-226q-21 0 -68 -8
l-18 34h312v128v0v0zM476 656h196v122l82 -28q12 -4 4 -16l-32 -16v-62h86l38 42q61 -51 62 -56q0 -12 -12 -12h-174v-140h142l36 46l58 -52q2 -4 2 -10q1 -10 -10 -10h-466q-18 0 -66 -8l-18 34h268v140h-126q-18 0 -54 -8l-16 34v0v0zM412 344h334v114l80 -24q9 -5 4 -10
q1 -3 -34 -18v-62h66l34 44l54 -50q2 -3 2 -8q0 -12 -12 -12h-144v-211q3 -51 -20 -72q-22 -21 -58 -30q-9 30 -38 48q-28 15 -86 32l4 18l58 -12q54 -10 72 -6t18 22v211h-262q-21 0 -44 -6l-28 32v0v0zM496 298q53 -28 82 -58q29 -28 26 -52t-18 -32q-15 -7 -26 -2
q-13 3 -16 28q-2 24 -16 48q-12 26 -42 56l10 12v0v0zM132 734l52 -44h140l34 34l50 -44q6 -4 6 -8q-1 -6 -34 -26v-406l4 -74q1 -26 -16 -41q-18 -11 -36 -14v85h-152v-50q0 -13 -18 -29q-17 -16 -34 -14l4 109v522v0v0zM180 222h152v222h-152v-222v0v0zM180 470h152v194
h-152v-194v0v0z" />
  </g>

</svg>
