<?xml version="1.0" standalone="no"?>
<!DOCTYPE svg PUBLIC "-//W3C//DTD SVG 1.1//EN" "http://www.w3.org/Graphics/SVG/1.1/DTD/svg11.dtd" >
<svg xmlns="http://www.w3.org/2000/svg" xmlns:xlink="http://www.w3.org/1999/xlink" version="1.1" viewBox="0 -36 256 256">
  <g transform="matrix(1 0 0 -1 0 220)">
   <path fill="currentColor"
d="M126 207h-38q0 -7 1 -18l-17 -4q2 11 2 22h-25q-11 0 -21 -2l-10 9h56q0 22 -2 33l24 -9l-8 -5v-19h12l12 11zM129 215h33q0 19 -1 30l23 -9l-8 -6v-15h37l11 9l15 -16h-63q0 -5 1 -18l-16 -6q1 19 1 24h-11q-7 0 -13 -2zM36 194q22 -7 27.5 -12t4.5 -11t-6 -8t-9 8
t-19 19zM17 165q17 -5 25.5 -11t5.5 -13.5t-7.5 -7.5t-6.5 8t-19 21zM39 116q6 1 15.5 13t24.5 35l7 -3q-15 -20 -26.5 -37.5t-11.5 -24.5v-15v-10t-4.5 -1.5t-9 6.5t-1 14.5t-0.5 12.5t-16 8l1 4q15 -3 21 -2zM116 168h21l8 8l14 -15h-30v-31h6l9 7l15 -14h-30
q-2 -36 -32 -49l-1 4q20 17 19 44h-9q-11 0 -21 -2l-10 9h41v32h-3q-11 0 -21 -2l-10 9h28q4 7 8.5 15t8.5 17l17 -10q-11 -3 -28 -22zM186 169h25l10 7l12 -14h-37v-31h19l9 9l14 -16h-42q0 -29 2 -33l-16 -7l1 18v23q-12 0 -20 -3l-8 8h28v32q-9 0 -17 -2l-7 8h23
q0 4 4.5 12.5t7.5 16.5l19 -9q-9 -2 -27 -19zM128 55h-39q-9 -38 -73 -48l-2 4q56 18 60 44h-35q-11 0 -21 -2l-10 9h67v29l22 -7l-7 -6v-16h12l10 10zM149 56l-11 -3l-10 10h36q0 13 -1 28l23 -8l-7 -5v-15h40l12 11l16 -18h-68q0 -24 1 -42l-16 -7v49h-15z" />
  </g>

</svg>
