<?xml version="1.0" standalone="no"?>
<!DOCTYPE svg PUBLIC "-//W3C//DTD SVG 1.1//EN" "http://www.w3.org/Graphics/SVG/1.1/DTD/svg11.dtd" >
<svg xmlns="http://www.w3.org/2000/svg" xmlns:xlink="http://www.w3.org/1999/xlink" version="1.1" viewBox="0 -36 256 256">
  <g transform="matrix(1 0 0 -1 0 220)">
   <path fill="currentColor"
d="M50 170h49v20h-49v-20zM31.5 84q5.5 37 5 83t-1.5 66l16 -11h84q-9 16 -18 22l1 3q21 -3 26.5 -9.5t-1.5 -15.5h75l12 11l17 -18h-80v-18h42l9 10l14 -13l-8 -5v-10l1 -16l-14 -5v5h-55l20 -7l-9 -5v-12q35 8 46 17l15 -14q-28 -4 -61 -9v-8q0 -9 11 -9h39q10 0 11.5 8.5
t1.5 22.5h5q0 -14 2.5 -19.5t9.5 -7.5q-6 -10 -12 -13t-12 -3h-47q-22 0 -22 23q0 32 -1 36h-76l18 -5l-8 -5v-7h26l10 10l17 -17h-53v-21l52 11l1 -3q-50 -17 -60 -29l-10 16q4 6 4 8.5v41.5h-24q1 -47 -7.5 -86t-31.5 -69l-3 2q18 37 23.5 74zM50 197h49v18h-49v-18z
M112 197h42v18h-42v-18zM167 170h44v20h-44v-20zM112 170h42v20h-42v-20zM68 35h27v45h-27v-45zM56 57.5q0 16.5 -1 38.5l14 -9h24l7 10l13 -11l-6 -6q0 -45 1 -59l-13 -8v15h-27v-10l-13 -7q1 30 1 46.5zM134 35h28v45h-28v-45zM175 22l-13 -8v14h-28v-11l-14 -4q1 29 1 47
t-1 35l14 -8h27l6 8l13 -10l-6 -6q0 -30 1 -57zM198 35h29v45h-29v-45zM240 21l-13 -9v16h-29v-9l-13 -8q1 26 1 43.5t-1 39.5l13 -7h28l6 8l13 -9l-6 -7q0 -35 1 -58z" />
  </g>

</svg>
