<?xml version="1.0" standalone="no"?>
<!DOCTYPE svg PUBLIC "-//W3C//DTD SVG 1.1//EN" "http://www.w3.org/Graphics/SVG/1.1/DTD/svg11.dtd" >
<svg xmlns="http://www.w3.org/2000/svg" xmlns:xlink="http://www.w3.org/1999/xlink" version="1.1" viewBox="0 -36 256 256">
  <g transform="matrix(1 0 0 -1 0 220)">
   <path fill="currentColor"
d="M21 168.5q0 31.5 -1 64.5l13 -7h43l11 10l12 -17h-34v-28h6l10 9l11 -16h-27v-28h6l10 10l11 -17h-27v-28l16 1l7 8l11 -14l-6 -5q-4 -62 -7 -72t-7.5 -16.5t-13.5 -11.5q0 12 -17 18l1 4q15 -3 18.5 -2t7 10.5t6.5 73.5l-48 -3v-6l-13 -3q1 34 1 65.5zM33 191h20v28h-20
v-28zM33 156h20v28h-20v-28zM33 119l20 1v29h-20v-30zM22 85q3 -20 1.5 -29t-5 -12.5t-7.5 -0.5t1.5 12.5t5.5 29.5h4zM32 89q5 -11 8 -19t1.5 -14t-5.5 -7.5t-3 10.5t-6 29zM44 94q15 -16 17.5 -22.5t0 -10.5t-6 -4.5t-4 8t-10.5 27.5zM61 99q11 -9 14 -16.5t2 -12t-4 -7
t-5 6.5t-9 27zM134 222h-21v-136q14 -2 18.5 1t4.5 23.5t-16 45.5q7 32 14 66zM101 50v145q0 24 -1 41l13 -7h21l7 8l12 -13l-7 -6q-9 -29 -21 -62q20 -26 23 -44.5t-3.5 -29.5t-17.5 -16q-1 13 -14 16v-67l-13 -7q1 22 1 42zM189 235l-6 -7q-2 -10 -8 -23h33l12 12l14 -19
h-61q-11 -24 -30 -45l-3 2q15 26 22.5 49t8.5 42zM153 108l-3 -4l-7 7l14 7q0 24 -1 44l19 -10l-6 -6v-22l16 9v24q0 18 -1 30l18 -10l-5 -7v-32l17 9l9 11l13 -14l-7 -6q-1 -46 -2 -54t-3.5 -13.5t-10.5 -8.5q-2 8 -5 11t-10 5v4q12 -2 14.5 -0.5t3 8t1.5 49.5l-20 -10v-42
q0 -18 1 -31l-14 -8q1 21 1 36v40l-16 -8v-78q-1 -11 11 -10h39q10 -1 11 12.5t1 30.5h4q1 -18 3.5 -26t9.5 -13q-5 -10 -10 -13t-15 -3h-51q-15 0 -15 19v75z" />
  </g>

</svg>
