<?xml version="1.0" standalone="no"?>
<!DOCTYPE svg PUBLIC "-//W3C//DTD SVG 1.1//EN" "http://www.w3.org/Graphics/SVG/1.1/DTD/svg11.dtd" >
<svg xmlns="http://www.w3.org/2000/svg" xmlns:xlink="http://www.w3.org/1999/xlink" version="1.1" viewBox="0 -36 256 256">
  <g transform="matrix(1 0 0 -1 0 220)">
   <path fill="currentColor"
d="M192.5 227.5q4.5 -7.5 -1.5 -16.5t-9.5 1t-20.5 28l2 3q25 -8 29.5 -15.5zM203 153q7 10 12 20l17 -12q-9 -4 -23 -21.5t-27.5 -27.5t-45.5 -24l-1 4q22 13 36 25t30 30q-23 -4 -35.5 -7t-18.5 -7l-10 16q10 3 20 16t15 29h-18q-10 0 -19 -2l-9 9h90l15 13l15 -20h-70
l16 -11q-7 -3 -16 -12l-22 -22q24 1 49 4zM236 121l-10 -5q-13 -17 -29 -33q23 -11 27.5 -18t-1.5 -16.5t-10.5 3t-18.5 27.5q-34 -29 -67 -39l-1 4q37 20 58.5 42.5t33.5 47.5zM41 187h71v35h-71v-35zM41 229h69l8 12l15 -14l-7 -5v-29t1 -15l-15 -5v6h-71q0 -17 -1 -47
t-7 -63t-23 -59l-2 2q13 35 16.5 71t3.5 83.5t-1 72.5zM46 143v4q43 10 62 26l12 -17h-8q-10 -2 -23 -6v-29l15 4l8 10l13 -12l-36 -9v-32l23 6l8 11l15 -15l-46 -8v-32q0 -15 15 -14h112q8 -1 10.5 5.5t5.5 40.5h5q0 -22 1 -31.5t9 -12.5q-6 -17 -27 -15h-125
q-20 -1 -19 22v35l-24 -5l-5 -3l-9 7l38 7v31l-20 -4l-7 -4l-10 7l37 7v31q-7 -2 -30 -5z" />
  </g>

</svg>
