<?xml version="1.0" standalone="no"?>
<!DOCTYPE svg PUBLIC "-//W3C//DTD SVG 1.1//EN" "http://www.w3.org/Graphics/SVG/1.1/DTD/svg11.dtd" >
<svg xmlns="http://www.w3.org/2000/svg" xmlns:xlink="http://www.w3.org/1999/xlink" version="1.1" viewBox="0 -339 2048 2048">
  <g transform="matrix(1 0 0 -1 0 1709)">
   <path fill="currentColor"
d="M1307 1587h476l68 77l83 -55q28 -17 35 -29q6 -9 6 -19q0 -15 -12 -26q-11 -11 -30 -19q-17 -7 -38 -16q-2 -79 -3 -99l-11 -212q-5 -173 -6.5 -207t-4.5 -68q-16 -201 -38 -276q-20 -68 -59 -106q-36 -35 -88 -52q-18 -5 -54 -13q-3 37 -10 56q-12 28 -40 41
q-21 10 -77 23q-24 6 -72 19l4 38l72 -12q52 -8 132 -22q15 -3 30 -3q47 0 69 60q17 43 33 214q10 101 16 232q6 130 10 248q2 57 3 169h-521q-40 -77 -79 -136q-18 -29 -35 -51q-20 -27 -65 -77l-32 24q45 70 67 113q66 127 111 300q19 73 34 164q2 10 13 79l108 -30
q44 -13 57 -24q12 -12 12 -23q0 -9 -8 -17q-7 -7 -12 -8l-34 -8l-34 -7q-10 -34 -14 -51q-36 -126 -49 -159q-5 -13 -13 -32zM805 1209h157v517q0 114 -7 160l101 -24q42 -10 57 -20q17 -12 17 -27q0 -12 -13 -22q-6 -5 -39 -16l-22 -7v-448q0 -44 1 -58l4 -61l1 -58l1 -12
q0 -16 -6 -23q-9 -10 -27 -16q-13 -4 -27 -4q-17 0 -30 8q-11 6 -11 20v31h-731q-38 -12 -56 -12q-19 0 -27 8q-10 11 -10 38v551q0 40 -4 122q-1 21 -4 38l101 -24q44 -10 58 -20q16 -12 16 -27q0 -12 -12 -22q-9 -8 -39 -16l-27 -8v-568h131q-10 3 -13 8q-4 8 -4 19v99
h-77v51h77v128h-77v51h77v97h-77v51h77v12q-4 130 -5 137q0 9 -3 23l98 -27q34 -10 46 -14q9 -4 16 -12t7 -18q0 -14 -12 -24q-6 -4 -34 -13l-31 -9v-55h85v-51h-85v-97h85v-51h-85v-128h85v-51h-85v-89q0 -18 -11 -28q-4 -5 -16 -9h148v532q-4 131 -5 137q0 10 -3 23
l101 -24q38 -9 53 -18q21 -12 21 -27q0 -13 -13 -25q-3 -2 -19 -8l-19 -8l-26 -10v-572h133q-11 3 -14 8q-5 8 -5 19v99h-66v51h66v128h-66v51h66v97h-66v51h66v12q-3 130 -4 137q0 9 -3 23l99 -27q32 -9 45 -14q9 -4 17 -12q7 -8 7 -18q0 -14 -12 -24q-6 -4 -35 -13l-30 -9
v-55h82v-51h-82v-97h82v-51h-82v-128h82v-51h-82v-89q0 -18 -11 -28q-5 -5 -16 -9zM309 547q-2 -15 -8 -20q-10 -9 -30 -9q-30 0 -49 17q-3 3 -3 7v209q0 33 -5 92q-3 38 -5 75l107 -87h138v0h400l61 72l72 -50q41 -29 41 -50q0 -11 -8 -18q-9 -9 -30 -19q-9 -5 -25 -15
v-112l31 -27l19 -14q7 -7 5 -19q-1 -11 -10 -17q-2 -2 -7 -2h-168l47 -18q20 -7 26 -19q2 -4 2 -9q-3 -18 -31 -22l-42 -6q-47 -100 -84 -154q-14 -19 -39 -53q99 17 125 21q20 4 174 35l8 -38q-63 -21 -126 -39q-174 -48 -307 -75q-55 -11 -267 -52l-65 -13l-12 -45
q-5 -19 -13 -26q-5 -4 -9 -3q-19 2 -35 36l-61 130q114 6 301 28q-10 10 -12 16q-3 6 -6 39q-5 48 -15 81q-15 48 -31 82q-18 37 -54 91zM352 560q51 -54 95 -112q37 -49 48 -82q11 -30 11 -58q0 -34 -16 -54q-2 -3 -8 -9q22 2 47 6q104 15 124 19q64 137 100 290h-401z
M309 616h563v158h-294v0h-269v-158zM807 1026l80 81l114 -86q13 -10 16 -17q2 -4 2 -9q0 -9 -7 -16q-8 -10 -21 -10h-619q-38 0 -98 -5q-17 -1 -50 -6l-40 86q123 -18 188 -18h435zM1283 781v-451q0 -74 49 -94q17 -6 66 -11q60 -6 76 -6h205q84 0 113 19q22 14 37 53
q11 26 16 53l28 170l41 -8l-16 -176q-1 -10 -1 -18q0 -21 5 -32q5 -12 22 -26q20 -17 27 -23q12 -12 12 -26q0 -17 -17 -30q-24 -21 -119 -32q-20 -3 -85 -7q-49 -2 -63 -2h-205q-37 0 -111 6q-35 3 -54.5 8.5t-42.5 17.5q-41 21 -59 50q-18 30 -18 75v1024l113 -69h195
l68 76l85 -54q27 -17 34 -29q6 -9 6 -19q0 -16 -12 -27t-30 -19q-16 -7 -37 -16v-303l39 -28q12 -8 12 -23q0 -13 -9 -20q-4 -3 -8 -3h-362zM1283 1188v-351h229v351h-229z" />
  </g>

</svg>
