<?xml version="1.0" standalone="no"?>
<!DOCTYPE svg PUBLIC "-//W3C//DTD SVG 1.1//EN" "http://www.w3.org/Graphics/SVG/1.1/DTD/svg11.dtd" >
<svg xmlns="http://www.w3.org/2000/svg" xmlns:xlink="http://www.w3.org/1999/xlink" version="1.1" viewBox="0 -205 1024 1024">
  <g transform="matrix(1 0 0 -1 0 819)">
   <path fill="currentColor"
d="M48 926h798l44 48l64 -56q3 -3 4 -8q0 -10 -12 -10h-468q-60 -69 -108 -120h370l38 34l50 -42q9 -6 10 -12q0 -3 -32 -24v-128l4 -60q0 -12 -20 -24q-18 -12 -38 -12v48h-412v-24q0 -12 -20 -24q-19 -10 -38 -10l4 88v118q-111 -87 -236 -144l-8 14q127 79 224 170
q96 89 144 152h-282q-19 -1 -50 -10l-30 36v0v0zM340 586h412v168h-406l-6 -8v-160v0v0zM100 454h560l50 34l62 -52q6 -7 6 -16q0 -6 -18 -6q-46 -3 -62 -12q-13 -6 -154 -72q-141 -67 -206 -104q-63 -35 -86 -52q-21 -17 -30 -34q-7 -15 4 -33q10 -17 32 -22q21 -5 60 -8
h518q29 4 44 10q12 6 24 24q12 15 18 183h20q3 -96 6 -120q2 -21 8 -37q6 -17 28 -28q-12 -30 -30 -48q-18 -16 -42 -24q-25 -6 -62 -6h-540q-67 0 -88 8q-21 9 -38 26q-15 15 -20 36q-4 19 2 39q3 21 28 46q21 24 88 64q66 38 354 176h-456q-29 1 -52 -10l-28 38v0v0z" />
  </g>

</svg>
