<?xml version="1.0" standalone="no"?>
<!DOCTYPE svg PUBLIC "-//W3C//DTD SVG 1.1//EN" "http://www.w3.org/Graphics/SVG/1.1/DTD/svg11.dtd" >
<svg xmlns="http://www.w3.org/2000/svg" xmlns:xlink="http://www.w3.org/1999/xlink" version="1.1" viewBox="0 -36 256 256">
  <g transform="matrix(1 0 0 -1 0 220)">
   <path fill="currentColor"
d="M34 119h51l8 11l15 -14l-8 -5q-3 -33 -7.5 -54.5t-13.5 -32t-25 -14.5q1 7 -5 12.5t-22 10.5l1 4q25 -5 33 -4.5t14 16t10 63.5h-52l-9 -8l-12 15l7 4q5 33 6 59l14 -8h45v45h-39q-13 0 -22 -3l-10 10h70l8 12l16 -13l-8 -7v-40q0 -5 1 -15l-16 -8v12h-44zM137 173
q15 -63 33 -90q19 34 23 94h-54zM108 120l-3 3q26 46 35 121l25 -10l-9 -5q-4 -13 -15 -45h71l10 11l18 -18h-31q-4 -68 -30 -107q29 -35 68 -41v-4q-14 0 -22 -12q-32 16 -55 46q-32 -36 -92 -49l-1 4q54 19 84 56q-21 42 -28 94q-8 -23 -25 -44z" />
  </g>

</svg>
