<?xml version="1.0" standalone="no"?>
<!DOCTYPE svg PUBLIC "-//W3C//DTD SVG 1.1//EN" "http://www.w3.org/Graphics/SVG/1.1/DTD/svg11.dtd" >
<svg xmlns="http://www.w3.org/2000/svg" xmlns:xlink="http://www.w3.org/1999/xlink" version="1.1" viewBox="0 -205 1024 1024">
  <g transform="matrix(1 0 0 -1 0 819)">
   <path fill="currentColor"
d="M396 546v-108q56 27 146 76q88 48 164 102l66 -40q6 -6 0 -12q-20 0 -34 -2q-11 -2 -64 -28q-54 -23 -104 -52q-52 -27 -172 -80q0 -4 6 -4h20h256q14 0 22 10q6 9 10 24q2 14 4 32q0 18 4 60h18l4 -42q5 -49 34 -64q-21 -45 -42 -54q-18 -8 -38 -10h-280q-25 0 -40 4
q-12 5 -20 28q-123 -48 -282 -90l-6 18q159 54 280 106v186l70 -28q8 -3 10 -8q0 -6 -6 -8q-6 -4 -26 -16v0v0zM464 650q42 -16 66 -34q24 -16 30 -38q6 -21 -8 -32q-13 -13 -28 -8q-15 3 -18 22q-3 17 -14 38q-10 18 -38 42l10 10v0v0zM824 554q59 -27 92 -42
q30 -16 46 -34q16 -16 14 -34q0 -19 -12 -28q-10 -10 -26 -8q-16 1 -22 26q-6 24 -30 48t-72 60l10 12v0v0zM256 576q-9 -61 -20 -88q-9 -27 -24 -42t-30 -24q-16 -9 -32 -6q-16 1 -20 20q-4 17 16 26q19 10 44 32q24 22 48 86l18 -4v0v0zM880 694l34 40l48 -40
q13 -10 14 -20q0 -3 -12 -6q-33 -6 -60 -36t-50 -54l-14 10l44 82h-698q0 -50 -14 -82q-12 -30 -38 -42q-24 -11 -36 0q-13 11 -10 26q0 15 22 30q20 14 32 32q11 17 26 98h16l2 -38h694v0v0zM448 816l8 12q45 -14 70 -28q23 -15 32 -30q7 -16 2 -34q-4 -16 -20 -20
q-14 -3 -22 6q-9 9 -12 22q-2 13 -16 32q-15 17 -42 40v0v0zM500 334q78 -30 84 -36q5 -7 2 -10t-36 -18v-175h224v205q74 -32 80 -40q7 -6 -4 -14l-26 -12v-131l4 -40q1 -14 -18 -26q-18 -12 -36 -12v44h-490l-34 -38l-56 42q32 28 32 40v167l76 -28q6 -3 6 -8
q0 -7 -32 -22v-127h224v239v0v0zM350 984l84 -28q6 -3 6 -8q-1 -3 -40 -26v-52h228v108l82 -34q3 -5 4 -10q1 -2 -34 -22v-42h186l40 48l60 -62q3 -1 4 -8q-1 -6 -16 -6h-274v-62q0 -12 -12 -20q-9 -6 -18 -8q-10 -3 -22 -2v92h-228v-62q0 -12 -8 -18l-18 -10q-9 -3 -24 -2
v92h-210q-22 -1 -70 -10l-18 38h298v114v0v0z" />
  </g>

</svg>
