<?xml version="1.0" standalone="no"?>
<!DOCTYPE svg PUBLIC "-//W3C//DTD SVG 1.1//EN" "http://www.w3.org/Graphics/SVG/1.1/DTD/svg11.dtd" >
<svg xmlns="http://www.w3.org/2000/svg" xmlns:xlink="http://www.w3.org/1999/xlink" version="1.1" viewBox="0 -205 1024 1024">
  <g transform="matrix(1 0 0 -1 0 819)">
   <path fill="currentColor"
d="M206 980l80 -32q6 -3 6 -6q2 -9 -4 -12l-34 -10v-140q57 -24 88 -42q27 -16 42 -34q12 -18 12 -38q0 -18 -8 -30q-9 -10 -24 -8q-15 3 -24 28q-7 24 -28 52q-22 28 -58 50v-566l4 -91q-1 -14 -22 -26q-20 -13 -34 -14l4 127v792v0v0zM412 704h164l8 282l84 -34
q21 -9 0 -20l-36 -12l-8 -216h254l44 54l64 -60q3 -4 4 -8q0 -12 -12 -12h-244v-510q0 -32 6 -43q9 -9 24 -12h34h68q33 0 48 20q11 16 14 59q2 39 4 112h20q2 -63 8 -102q3 -40 36 -52q-5 -28 -28 -53q-23 -24 -76 -30h-108q-40 -3 -58 2q-18 6 -30 24q-12 20 -12 67v518
h-60q-10 -130 -34 -244q-22 -112 -82 -214q-60 -99 -216 -201l-10 16q127 95 182 193q54 99 78 214q24 113 30 236h-92q-20 0 -46 -8l-22 34v0v0zM736 938q61 -21 104 -50q41 -28 46 -56q6 -26 -6 -40q-13 -15 -28 -12q-16 3 -22 24q-3 20 -30 56q-24 35 -72 64l8 14v0v0z
M148 756q2 -102 -4 -156t-30 -78q-24 -25 -44 -22q-18 2 -24 20q-4 15 14 34q17 17 38 58q21 39 30 144h20v0v0z" />
  </g>

</svg>
