<?xml version="1.0" standalone="no"?>
<!DOCTYPE svg PUBLIC "-//W3C//DTD SVG 1.1//EN" "http://www.w3.org/Graphics/SVG/1.1/DTD/svg11.dtd" >
<svg xmlns="http://www.w3.org/2000/svg" xmlns:xlink="http://www.w3.org/1999/xlink" version="1.1" viewBox="0 -339 2048 2048">
  <g transform="matrix(1 0 0 -1 0 1709)">
   <path fill="currentColor"
d="M886 1944q69 -47 85 -60q57 -41 85 -79q13 -16 18 -29q5 -12 5 -27q0 -21 -13 -41q-9 -13 -17 -19q-6 -5 -19 -11h129l99 99l121 -99q16 -14 16 -26q0 -10 -8 -19q-12 -12 -34 -12h-481q-15 0 -82 -4q-18 -2 -67 -8l-39 86q54 -8 87 -11q66 -6 101 -6h113q-11 45 -17 67
q-16 48 -55 102q-19 27 -55 63zM779 1542l94 -69h278l61 72l71 -50q31 -21 39 -34q5 -9 5 -16q0 -11 -9 -18q-9 -9 -30 -19q-10 -5 -27 -15l-1 -194l24 -21q15 -13 16 -26q1 -8 -4 -14q-7 -8 -19 -8h-408v-24q0 -22 -17 -31q-16 -9 -40 -9q-27 0 -38 13q-9 9 -9 33q0 6 6 99
q6 102 6 105zM869 1188h296v229h-296v-229zM1068 774q49 48 72 74q16 19 46 57h-271q-37 0 -97 -5q-19 -1 -50 -6l-41 86q54 -8 87 -11q66 -6 101 -6h279l64 66l80 -66q35 -29 35 -49q0 -11 -11 -20q-9 -6 -32 -12q-9 -2 -45 -9q-43 -32 -65 -47q-36 -25 -110 -68
q15 -15 15 -23q0 -21 -53 -41v-64q93 17 132 25q33 7 138 31l8 -38q-110 -43 -278 -94v-313q0 -61 -26 -97q-22 -30 -72 -56q-17 -8 -31 -12q-9 -2 -25 -5q-6 36 -12 53q-11 27 -37 42q-27 15 -78 26q-20 4 -53 11l8 46q45 -8 109 -16q57 -7 66 -7q28 0 41 12q15 14 15 45
l-1 249l-188 -55q-6 -36 -11 -50q-10 -25 -24 -25q-10 0 -19 9q-7 6 -16 25l-60 129q123 14 319 49v57q0 11 -3 78q-1 21 -6 51zM1677 494q39 -75 86 -136q50 -68 113 -122q38 -33 117 -86l-9 -40q-28 9 -44 9q-19 0 -36 -12q-12 -9 -31 -34q-49 43 -78 77q-83 97 -168 253
q-48 -81 -131 -176q-60 -68 -128 -124q-33 -27 -96 -72l-24 32q62 58 105 105q133 146 227 333q-47 145 -72 266q-23 111 -40 237q-8 60 -17 161l46 8q31 -170 62 -316q24 -110 43 -175q8 -28 25 -74q59 177 84 343q24 154 33 284q3 41 10 161h-257q-31 -96 -51 -145
q-19 -49 -63 -130l-40 20q20 52 29.5 80.5t20.5 69.5q29 113 47 222q7 44 22 175q13 104 15 148q2 28 3 84l163 -49q19 -6 26 -20q3 -5 3 -11q0 -8 -5 -15.5t-13 -11.5q-14 -6 -36 -10q-16 -3 -45 -8l-6 -33q-23 -159 -30 -197q-8 -46 -25 -113h237l97 103l122 -103
q19 -16 19 -38q0 -9 -5 -13q-6 -5 -14 -5h-114q-12 -159 -31 -312q-22 -169 -46 -278q-26 -111 -73 -239q-7 -21 -27 -73zM515 579q-60 -32 -84 -43.5t-109 -49.5q-69 -32 -90 -42t-43 -21l-9 -47q-4 -20 -10 -25q-5 -5 -14 -5q-8 0 -15 5q-5 4 -18 25l-73 120
q101 22 130 29v1220q-64 -5 -85 -8l-38 88q30 -7 52 -11q73 -12 179 -12h216l100 96l119 -101q13 -11 15 -16t2 -10q0 -9 -5 -16q-8 -10 -19 -10h-106v-1386q0 -42 5 -117q3 -65 7 -102q3 -32 3 -50q0 -22 -11 -33q-13 -13 -44 -13q-27 0 -40 11q-16 12 -16 31zM514 1745
h-238v-321h238v321zM514 1366h-238v-347h238v347zM276 550q93 28 239 78l-1 333h-238v-411z" />
  </g>

</svg>
