<?xml version="1.0" standalone="no"?>
<!DOCTYPE svg PUBLIC "-//W3C//DTD SVG 1.1//EN" "http://www.w3.org/Graphics/SVG/1.1/DTD/svg11.dtd" >
<svg xmlns="http://www.w3.org/2000/svg" xmlns:xlink="http://www.w3.org/1999/xlink" version="1.1" viewBox="0 -36 256 256">
  <g transform="matrix(1 0 0 -1 0 220)">
   <path fill="currentColor"
d="M125 229l11 8l11 -15h-27v-29h7l8 9l11 -16h-26v-31h10l8 9l9 -16h-49q-6 0 -12 -2l-6 9h27v33h-3q-6 0 -12 -2l-5 9h20v27h-9q-6 0 -12 -2l-6 9h45zM59 191l9 10l9 -17h-23v-26l28 5v-3q-44 -15 -63 -25l-6 15q13 0 28 4v30h1q-12 0 -18 -2l-5 9h22v30h-3q-10 0 -16 -2
l-8 9h44l9 8l13 -15h-26v-30h5zM72 20l33 52h-57q-7 0 -12 -2l-5 9h75l7 8l17 -12l-14 -10l-32 -52zM139 92q-27 9 -59 47q-32 -40 -73 -58l-1 5q28 17 46 38.5t21 30.5l15 -9l-3 -3q26 -28 65 -36l4 -4q-13 -2 -15 -11zM85 103l11 10l15 -17h-46q-9 1 -10 -1l-5 8h35z
M178 245l21 -12l-8 -7v-38h18l11 11l13 -18h-42q0 -39 -1 -54h34l11 12l11 -19h-49q8 -39 23 -64.5t27 -32.5v-3q-14 -1 -18 -10q-11 14 -22 39.5t-15 70.5h-3q-6 -43 -26.5 -72t-40.5 -40l-2 4q20 18 36 47t20 61h-15q-9 0 -17 -2l-7 9h40q1 24 1 53h-9q-9 -2 -15 -4
l-10 11h34v58z" />
  </g>

</svg>
