<?xml version="1.0" standalone="no"?>
<!DOCTYPE svg PUBLIC "-//W3C//DTD SVG 1.1//EN" "http://www.w3.org/Graphics/SVG/1.1/DTD/svg11.dtd" >
<svg xmlns="http://www.w3.org/2000/svg" xmlns:xlink="http://www.w3.org/1999/xlink" version="1.1" viewBox="0 -52 256 256">
  <g transform="matrix(1 0 0 -1 0 204)">
   <path fill="currentColor"
d="M185 239q1 -2 -1 -2q-5 1 -10 -5q-2 -3 -7 -9q-2 -3 -3 -4t-2 -4l-3 -3h32l8 7l11 -8q3 -3 -2 -5l-2 -2v-32v-17q0 -8 -10 -8v9h-63v-19h92l7 9l16 -12q4 -2 -2 -2h-113v-7l1 -12q0 -10 -13 -11q0 1 1 3q1 5 1 21v6h-96q-7 0 -12 -3l-8 8h116v19h-62q0 -9 -3 -10
q-3 -3 -9 -4q2 10 2 32v35q0 4 -4 7l3 4l9 -8h93q2 5 5 8q13 23 5 29l2 2zM170 119l19 -9q4 -1 2 -3q-4 -1 -7 -4v-10h28l9 10l11 -12q2 -2 1 -2q0 -1 -2 -1l-5 -2v-14l1 -15q0 -4 -3 -6t-7 -2v9h-33v-26l38 4q-6 4 -18 10l1 3q6 -3 17 -7q5 -2 8 -3q9 -6 12 -14
q4 -8 -2 -11q-4 -2 -7 5q-2 8 -7 13l-36 -6q-34 -5 -40 -6t-12 -7l-13 14l49 4v27h-30v-5q1 -5 -2 -8q-2 -1 -8 -3v9q1 11 1 17v23q1 3 -4 8l3 4l8 -10h32v12q0 4 -6 11zM58 118l20 -7q2 -1 2 -2l-1 -1q-4 -1 -6 -4v-10h23l10 10l10 -12q2 -2 1 -2q0 -1 -2 -2l-5 -2v-13
l1 -15q0 -4 -3 -6q-2 -2 -7 -2v7h-28v-25l27 4q-3 4 -12 11q7 -6 -2 1l1 3q7 -3 18 -11q2 0 3 -1q8 -7 10 -14t-3 -10q-4 -3 -7 5q-2 6 -5 12l-30 -6q-33 -6 -39 -8q-6 -1 -12 -7l-13 13l54 7v26h-29v-3q1 -5 -2 -8q-3 -1 -8 -3v9q1 10 1 16v22q1 3 -4 9l3 4l8 -9h31v12
q0 5 -7 9zM133 186h63v22h-63v-22zM196 182h-63v-21h63v21zM123 208h-62v-22h62v22zM123 182h-62v-21h62v21zM217 89h-33v-27h33v27zM101 90h-28v-29h28v29zM34 90v-29h29v29h-29zM144 89v-27h30v27h-30zM71 246l1 4q34 -17 31 -29q-1 -7 -6 -7q-4 0 -6 5q0 6 -5 12
q-4 6 -15 15z" />
  </g>

</svg>
