<?xml version="1.0" standalone="no"?>
<!DOCTYPE svg PUBLIC "-//W3C//DTD SVG 1.1//EN" "http://www.w3.org/Graphics/SVG/1.1/DTD/svg11.dtd" >
<svg xmlns="http://www.w3.org/2000/svg" xmlns:xlink="http://www.w3.org/1999/xlink" version="1.1" viewBox="0 -36 256 256">
  <g transform="matrix(1 0 0 -1 0 220)">
   <path fill="currentColor"
d="M72 199h143l7 11l18 -12l-8 -7q-4 -101 -8.5 -129t-14.5 -37.5t-31 -17.5q-2 15 -37 22v4q24 -3 37 -3.5t23.5 10.5t14.5 152h-146q-24 -35 -57 -56l-2 3q29 29 43 57t18 48l23 -11q-6 -4 -10 -10.5t-13 -23.5zM117 99h45l16 14l18 -21h-79v-41q0 -15 1 -29l-17 -8
q1 15 1 30v48h-47q-11 0 -20 -2l-10 9h77v50h-27q-10 0 -20 -3l-9 10h103l14 12l17 -19h-63v-50z" />
  </g>

</svg>
