<?xml version="1.0" standalone="no"?>
<!DOCTYPE svg PUBLIC "-//W3C//DTD SVG 1.1//EN" "http://www.w3.org/Graphics/SVG/1.1/DTD/svg11.dtd" >
<svg xmlns="http://www.w3.org/2000/svg" xmlns:xlink="http://www.w3.org/1999/xlink" version="1.1" viewBox="0 -36 256 256">
  <g transform="matrix(1 0 0 -1 0 220)">
   <path fill="currentColor"
d="M86 156h27v23h-27v-23zM74 245l22 -6l-9 -7v-6h29l9 8l15 -15h-53v-14h21l9 8l15 -15h-70q-11 0 -18 -2l-9 9h40v14h-28q-11 0 -18 -2l-9 9h55q0 11 -1 19zM28 136.5q4 14.5 4 28t-1 27.5l15 -6h66l7 7l13 -11l-6 -6q0 -18 1 -27l-14 -5v5h-69q-4 -26 -34 -46l-2 2
q16 17 20 31.5zM45 156h29v23h-29v-23zM70 112h117v12h-117v-12zM70 91h117v14h-117v-14zM201 83l-14 -6v7h-52v-13h85l9 8l15 -15h-98q42 -30 98 -34v-4q-18 -1 -23 -12q-46 12 -83 50h-3q0 -40 1 -50l-16 -7q1 19 1 55q-42 -36 -104 -51l-1 4q55 20 86 49h-62
q-11 0 -18 -2l-9 9h108v13h-51v-3l-14 -5q1 14 1 31t-1 30l15 -6h115l6 9l15 -11l-7 -7q0 -25 1 -39zM212 194l14 -12l-9 -5q-6 -6 -19 -17q24 -10 30.5 -16t4 -13t-13 2t-30.5 20q-20 -14 -54 -20l-1 3q24 8 43 22q-6 4 -32 15l1 4q27 -7 41 -11q9 7 15 16h-37
q-11 0 -18 -2l-9 9h67zM247.5 201q0.5 -4 -12 -4h-25t-12.5 13v21h-29q0 -16 -10 -27t-27 -17l-2 3q29 16 25 54l16 -6h27l6 7l15 -9l-7 -7v-16q0 -7 14 -5t17.5 -0.5t4 -6.5z" />
  </g>

</svg>
