<?xml version="1.0" standalone="no"?>
<!DOCTYPE svg PUBLIC "-//W3C//DTD SVG 1.1//EN" "http://www.w3.org/Graphics/SVG/1.1/DTD/svg11.dtd" >
<svg xmlns="http://www.w3.org/2000/svg" xmlns:xlink="http://www.w3.org/1999/xlink" version="1.1" viewBox="0 -205 1024 1024">
  <g transform="matrix(1 0 0 -1 0 819)">
   <path fill="currentColor"
d="M872 890q14 -13 14 -19t-27 -9v-162q0 -32 -1 -36.5t-20 -13.5q-11 -3 -15 -3q-8 0 -7 33h-305q0 -22 -1 -25q-3 -6 -22 -13q-10 -5 -14 -5q-6 0 -6 14q0 -6 0 52v180l-3 41l41 -24h301l11 11q12 12 15 12t15 -10zM961 575l-3 -17h-542v20h225v49l-4 42l44 -9
q40 -8 40 -19q0 -12 -36 -25v-38h187l21 26q12 18 15 18t20 -13zM938 104q-6 -27 -17 -27q-9 0 -17 15q-40 82 -139 169l10 9q101 -67 130 -93q35 -31 35 -57q0 -8 -2 -16zM885 481q11 -10 11 -16q0 -7 -34 -15v-99v-21q-3 -9 -21 -18q-12 -3 -16 -3q-8 0 -7 33h-131v-184
q0 -40 -6 -55q-7 -21 -34 -32l-17 -5q-14 -4 -20 -4q-7 0 -8 16.5t-19 23.5l-72 19l1 14l78 -12q13 -2 21 -2q33 0 33 52v169h-126q0 -22 -2.5 -26t-21.5 -9q-13 -4 -16 -4q-4 0 -5 5q-1 3 0 16q1 18 1 31v125l-5 45l56 -35h276l16 19q14 13 18 13q5 0 17 -11zM552 258
q18 -9 18 -18q0 -13 -34 -12q-86 -104 -207 -160l-8 9q121 72 194 199zM816 802v77h-305v-77h305zM816 700v81h-305v-81h305zM818 362v108h-300v-108h300zM390 858l-10 -15h-283v21h194l25 37q17 16 18 16t14 -12zM156 559q-2 -274 -75 -418l-9 6q32 95 43 355q0 57 -5 113
l41 -10q33 -8 33 -20q0 -9 -28 -26zM377 601q18 -5 18 -18q7 -8 -27 -18v-298q0 -33 -1 -39q-3 -14 -23 -27q-11 -7 -16 -7q-7 0 -4 60v317l-3 41zM427 696l-5 -15h-156v-534q1 -29 1.5 -41.5t-10.5 -25.5q-7 -9 -30 -18q-19 -8 -29 -8q-12 0 -12 13q0 2 -1 12t-10 17
l-63 18l4 13l88 -10q22 0 18 37v527h-148v20h256l27 36q13 12 16 12t15 -11z" />
  </g>

</svg>
