<?xml version="1.0" standalone="no"?>
<!DOCTYPE svg PUBLIC "-//W3C//DTD SVG 1.1//EN" "http://www.w3.org/Graphics/SVG/1.1/DTD/svg11.dtd" >
<svg xmlns="http://www.w3.org/2000/svg" xmlns:xlink="http://www.w3.org/1999/xlink" version="1.1" viewBox="0 -36 256 256">
  <g transform="matrix(1 0 0 -1 0 220)">
   <path fill="currentColor"
d="M63 178l5 -4h75l19 35h-72q-13 -18 -27 -31zM205.5 30.5q8.5 -0.5 8.5 7.5v129h-147v-154l-15 -6v159q-19 -16 -43 -27l-2 3q30 22 54 53t29 52l23 -13l-9 -5q-4 -4 -10 -13h66l12 11l20 -18q-9 -2 -16 -6.5t-28 -28.5h64l10 13l17 -16l-10 -9v-123q0 -15 -4.5 -20.5
t-17.5 -10.5q-7 15 -37 21v5q27 -3 35.5 -3.5zM138 83q31 -11 41 -19.5t4.5 -18t-12 0.5t-36.5 31q-18 -24 -54 -40l-2 3q45 31 57 73l20 -12l-7 -4q-5 -6 -11 -14zM174.5 103q-10.5 13 -37.5 29q-18 -22 -54 -37l-2 4q47 29 56 68l20 -11l-5 -4q-5 -4 -12 -15
q55 -17 50 -32t-15.5 -2z" />
  </g>

</svg>
