<?xml version="1.0" standalone="no"?>
<!DOCTYPE svg PUBLIC "-//W3C//DTD SVG 1.1//EN" "http://www.w3.org/Graphics/SVG/1.1/DTD/svg11.dtd" >
<svg xmlns="http://www.w3.org/2000/svg" xmlns:xlink="http://www.w3.org/1999/xlink" version="1.1" viewBox="0 -205 1024 1024">
  <g transform="matrix(1 0 0 -1 0 819)">
   <path fill="currentColor"
d="M64 892h198v112l78 -30q7 -3 6 -12q-1 -3 -34 -18v-52h104l30 36l56 -42q2 -3 2 -8q1 -12 -10 -12h-182v-66h92l30 30q51 -36 54 -42q3 -3 4 -8q1 -6 -10 -6h-170v-70h134l32 34l54 -42q3 0 4 -8q2 -10 -10 -10h-214v-28l4 -46q-2 -14 -22 -28q-21 -12 -36 -12l4 86v28
h-138q-22 0 -70 -8l-14 34h222v70h-96q-18 0 -54 -8l-16 34h166v66h-112q-22 0 -70 -8l-16 34v0v0zM658 898h-50q-21 0 -54 -6l-20 32h348l28 34q59 -43 62 -50q1 -6 0 -8q-3 -4 -30 -22q-16 -173 -26 -208q-9 -36 -30 -56q-21 -21 -66 -36q-14 36 -46 48t-76 24l6 18
q54 -11 84 -16q30 -4 54 2q21 6 28 40q6 33 24 204h-184q-12 -143 -62 -214q-48 -69 -186 -126l-8 14q116 65 158 134q39 66 46 192v0v0zM262 262l50 -14h430l22 26l52 -20q12 -6 12 -14q0 -4 -24 -22v-93l4 -52q0 -12 -14 -22q-16 -9 -40 -12v38h-442v-18q0 -9 -20 -22
q-19 -10 -34 -8l4 104v129v0v0zM312 101h442v123h-442v-123v0v0zM326 490q78 -61 190 -106q59 21 182 106h-372v0v0zM420 564q9 -9 -2 -14q-6 0 -18 -2q-13 -2 -44 -34h338l44 28l58 -48q8 -9 -4 -14q-22 -3 -28 -6q-6 -4 -54 -34t-144 -78q56 -18 130 -24q71 -7 140 -10
q69 -1 168 -2v-18q-41 -3 -64 -12q-21 -6 -30 -30q-60 5 -114 14q-51 6 -122 18q-69 12 -150 42q-124 -45 -238 -66q-114 -22 -254 -34l-4 16q136 18 254 48q117 27 196 60q-101 54 -166 112q-52 -49 -166 -112l-10 12q84 62 136 116q51 52 84 104l64 -32v0v0z" />
  </g>

</svg>
