<?xml version="1.0" standalone="no"?>
<!DOCTYPE svg PUBLIC "-//W3C//DTD SVG 1.1//EN" "http://www.w3.org/Graphics/SVG/1.1/DTD/svg11.dtd" >
<svg xmlns="http://www.w3.org/2000/svg" xmlns:xlink="http://www.w3.org/1999/xlink" version="1.1" viewBox="0 -52 256 256">
  <g transform="matrix(1 0 0 -1 0 204)">
   <path fill="currentColor"
d="M160 247l22 -8q3 -1 2 -3q-5 -1 -8 -5v-44h45l8 10l17 -13q4 -3 -2 -2h-68v-61h39l9 11l13 -13q2 -2 1 -2q0 -1 -2 -2l-5 -2v-67l1 -23q2 -10 -12 -11v24h-91v-13q0 -10 -13 -11v9q1 17 1 29v69q0 6 -4 11l4 3l9 -12h39v113q0 4 -7 10zM129 40h91v76h-91v-76zM67 147
q5 -3 3 -4q-4 -1 -7 -4v-91q7 6 29 25q9 8 14 13l3 -3q-17 -20 -31 -34q-12 -10 -15 -14q-4 -5 -7 -11l-12 14l1 1q4 1 6 4v97q0 6 -6 11l2 3zM74 238q1 -2 -2 -2q-4 1 -8 -5q-3 -12 -11 -35q-1 -4 -2 -6h39l8 10l16 -13q2 -2 1 -3t-6 -1q-7 0 -16 -13q-2 -3 -9 -13
q-2 -3 -3 -4l-5 1q10 17 16 31h-43l-3 -8q-12 -25 -33 -49l-2 2q26 44 38 88q6 18 4 21q-1 3 -4 6l2 2z" />
  </g>

</svg>
