<?xml version="1.0" standalone="no"?>
<!DOCTYPE svg PUBLIC "-//W3C//DTD SVG 1.1//EN" "http://www.w3.org/Graphics/SVG/1.1/DTD/svg11.dtd" >
<svg xmlns="http://www.w3.org/2000/svg" xmlns:xlink="http://www.w3.org/1999/xlink" version="1.1" viewBox="0 -154 1024 1024">
  <g transform="matrix(1 0 0 -1 0 870)">
   <path fill="currentColor"
d="M523 646h296l29 40l59 -49q16 -11 -5 -9h-308q-24 1 -40 -14zM364 726l63 -49q12 -14 -4 -14q-16 3 -38 -14q-96 -103 -200 -145l-6 7q103 78 148 131q51 51 31 75zM401 559l62 -51q12 -13 -5 -13q-17 5 -34 -12q-33 -40 -63 -74v-274l1 -55q-1 -39 -48 -45q4 39 7 147
v186q-70 -66 -140 -101l-7 12q127 104 183 182q56 70 36 91zM439 447h463l29 39l59 -50q15 -12 -5 -10h-212v-305q-1 -36 -16 -53q-14 -19 -64 -34q-3 31 -22 42q-20 9 -77 25l3 16l38 -8q58 -14 77 -5q19 7 20 51v271h-223q-24 1 -40 -12zM178 779h674v150h-674v-150z
M116 986l48 -37h671l35 41l50 -48q14 -10 -3 -17l-21 -10l4 -154q1 -34 -48 -37v35h-674v-70q4 -174 -21 -336q-25 -163 -133 -311l-10 10q86 154 105 310q19 157 15 355v208q-6 24 -28 51z" />
  </g>

</svg>
