<?xml version="1.0" standalone="no"?>
<!DOCTYPE svg PUBLIC "-//W3C//DTD SVG 1.1//EN" "http://www.w3.org/Graphics/SVG/1.1/DTD/svg11.dtd" >
<svg xmlns="http://www.w3.org/2000/svg" xmlns:xlink="http://www.w3.org/1999/xlink" version="1.1" viewBox="0 -36 256 256">
  <g transform="matrix(1 0 0 -1 0 220)">
   <path fill="currentColor"
d="M178 116l10 14l21 -16l-82 -15v-36q0 -14 13 -15h37q11 1 12 36h5q-1 -33 12 -34q-9 -17 -32 -15h-37q-24 1 -24 25v36l-49 -9l-7 -5l-11 9l67 12v18q0 22 -1 34l24 -10l-9 -6v-33zM141 240l15 -8h62l8 11l15 -11l-8 -9v-190q0 -20 -22 -26q-3 15 -29 20v4
q24 -2 30.5 -1.5t6.5 10.5v125h-64v-4l-14 -4v83zM155 202h64v23h-64v-23zM155 195v-23h64v23h-64zM38 232h61l7 11l16 -13l-7 -8v-26q0 -15 1 -33l-15 -6v8h-64v-150l-15 -8q1 20 1 43v145q0 23 -1 45zM37 195v-23h64v23h-64zM37 225v-23h64v23h-64z" />
  </g>

</svg>
