<?xml version="1.0" standalone="no"?>
<!DOCTYPE svg PUBLIC "-//W3C//DTD SVG 1.1//EN" "http://www.w3.org/Graphics/SVG/1.1/DTD/svg11.dtd" >
<svg xmlns="http://www.w3.org/2000/svg" xmlns:xlink="http://www.w3.org/1999/xlink" version="1.1" viewBox="0 -154 1024 1024">
  <g transform="matrix(1 0 0 -1 0 870)">
   <path fill="currentColor"
d="M36 789q41 -13 63 -25t30 -27t5 -29q-4 -14 -16 -15q-12 -2 -19 19q-7 19 -19 32q-13 12 -48 35zM134 535v-129h98v129h-98zM134 392v-130h98v130h-98zM380 535h-111v-129h111v129zM269 392v-130h111v130h-111zM608 784v-243h121v243h-121zM715 344q23 -53 47 -92
q20 33 36 70q39 90 65 199h-199q16 -101 51 -177zM450 804l51 -32q12 -10 5 -12q-17 0 -28 -3q-48 -32 -91 -60q6 -6 13 -11q29 -25 45 -37q18 -12 39 -17q21 -6 51 -17v-13q-25 0 -42 -1q-17 -3 -32 -20q-36 26 -72 62q-37 36 -63 82q-26 40 -44 90h-46q-21 -54 -51 -99
q-55 -83 -168 -164l-7 10q102 99 141 162q27 42 45 91h-80q-25 0 -42 -13l-32 33h161q4 11 7 23q19 72 14 84q-3 11 -13 26l8 6l81 -37q3 -9 -5 -8q-16 0 -31 -21q-8 -39 -20 -73h160l30 40l63 -50q14 -10 -6 -10h-186q20 -38 41 -68q14 -21 29 -37l15 12q53 44 56 55
q3 9 -3 22zM91 588l35 -36h106v83q-4 24 -27 49l7 10l90 -41q6 -6 -1 -9q-15 -3 -32 -18v-74h100l16 32l52 -36q13 -14 -5 -18l-17 -10v-248l5 -23q1 -26 -11 -32q-10 -6 -29 -12v40h-111v-34q-1 -60 7 -76q8 -14 28 -15q39 -1 100 1q45 8 48 40q6 50 11 153h12l1 -100
q1 -61 30 -67q-14 -35 -37 -47q-13 -10 -65 -14q-68 -3 -119 -1q-58 13 -53 123v37h-98v-28q-1 -22 -9 -31q-9 -9 -31 -15q5 38 5 101v263q-3 25 -19 42zM928 532q12 -12 0 -14q-16 -11 -21 -17q-5 -7 -20 -58t-56 -146q-19 -43 -44 -80q1 -3 4 -5q41 -50 75 -74
q33 -25 63 -37t81 -24v-16q-38 7 -53 6t-39 -28q-66 35 -128 107q-15 16 -29 36q-80 -97 -218 -171l-4 12q134 88 201 192q-29 45 -47 99q-34 91 -51 207h-34q-9 -386 -156 -509l-11 10q132 143 127 538v216q-6 24 -27 51l9 10l40 -33h139v144q2 15 -27 42l8 11l82 -34
q14 -6 6 -11q-17 -6 -29 -18v-134h127l41 43l55 -58q3 -12 -10 -7q-21 0 -32 -9q-12 -9 -22 -23q-12 -15 -69 -90l-11 6l56 118h-135v-243h82l30 35z" />
  </g>

</svg>
