<?xml version="1.0" standalone="no"?>
<!DOCTYPE svg PUBLIC "-//W3C//DTD SVG 1.1//EN" "http://www.w3.org/Graphics/SVG/1.1/DTD/svg11.dtd" >
<svg xmlns="http://www.w3.org/2000/svg" xmlns:xlink="http://www.w3.org/1999/xlink" version="1.1" viewBox="0 -246 2048 2048">
  <g transform="matrix(1 0 0 -1 0 1802)">
   <path fill="currentColor"
d="M878 350h340v1505q215 -15 215 -57q0 -28 -92 -55v-1393h364v1059q203 -12 203 -60q0 -24 -84 -55v-1173h-119v178h-827v-178h-121v1288q199 -9 199 -51q0 -27 -78 -58v-950zM106 732v53q52 -8 82 -8q76 0 119 70q181 295 377 767l47 -37l-316 -792q-30 -77 -30 -140
q0 -39 14 -108q24 -121 24 -230q0 -133 -84 -133q-77 0 -77 68q0 9 18 127q12 82 12 147q0 124 -61 170q-44 31 -125 46zM147 1743l27 35q168 -64 250 -168q47 -59 47 -106q0 -84 -80 -84q-48 0 -64 68q-33 130 -180 255z" />
  </g>

</svg>
