<?xml version="1.0" standalone="no"?>
<!DOCTYPE svg PUBLIC "-//W3C//DTD SVG 1.1//EN" "http://www.w3.org/Graphics/SVG/1.1/DTD/svg11.dtd" >
<svg xmlns="http://www.w3.org/2000/svg" xmlns:xlink="http://www.w3.org/1999/xlink" version="1.1" viewBox="0 -205 1024 1024">
  <g transform="matrix(1 0 0 -1 0 819)">
   <path fill="currentColor"
d="M386 840h222q12 57 22 136l82 -30q3 -3 4 -6q6 -6 -8 -12l-30 -14l-16 -74h180l38 54l64 -58q3 -4 4 -10q0 -12 -12 -12h-282q-13 -64 -32 -112h178l38 50l60 -58q3 -3 4 -8q0 -10 -12 -10h-274q-19 -52 -44 -100h294l42 48l64 -54q3 -3 4 -8q0 -12 -12 -12h-214
q54 -63 94 -92q40 -30 74 -48q34 -19 86 -28v-18q-30 0 -44 -8q-15 -6 -30 -24q-35 26 -70 58q-33 29 -68 68q-36 38 -68 92h-164q-24 -43 -66 -104l38 -22h238l22 20l42 -40l-10 -12v-236l4 -81q0 -12 -18 -22q-16 -8 -38 -10v46h-242v-30q0 -11 -14 -20q-12 -9 -42 -10
l4 102v293q-49 -55 -82 -88q-30 -31 -66 -56l-12 12q56 60 106 126q48 63 84 132h-60q-19 0 -70 -8l-16 34h158q23 42 44 100h-62q-24 0 -68 -8l-18 34h156q21 51 30 112h-132q-21 0 -68 -8l-16 34v0v0zM530 117h242v121h-242v-121v0v0zM530 264h242v134h-242v-134v0v0z
M82 936l56 -40h154l28 38l48 -38q12 -6 12 -14q0 -6 -30 -26v-124l4 -86q1 -21 -16 -32q-18 -10 -38 -10v36h-54v-188h46l34 46l48 -52q16 -18 0 -20h-128v-222l156 44l6 -18q-281 -101 -304 -113q-20 -15 -40 -36l-44 61l50 14v368l72 -32q3 -3 4 -8q0 -1 -2 -4l-26 -16
v-296l80 24v448h-64v-22q0 -13 -20 -22q-18 -10 -36 -10l4 130v220v0v0zM134 666h166v204h-166v-204v0v0z" />
  </g>

</svg>
