<?xml version="1.0" standalone="no"?>
<!DOCTYPE svg PUBLIC "-//W3C//DTD SVG 1.1//EN" "http://www.w3.org/Graphics/SVG/1.1/DTD/svg11.dtd" >
<svg xmlns="http://www.w3.org/2000/svg" xmlns:xlink="http://www.w3.org/1999/xlink" version="1.1" viewBox="0 -36 256 256">
  <g transform="matrix(1 0 0 -1 0 220)">
   <path fill="currentColor"
d="M39 232l21 -8l-6 -5v-21h67v25q0 8 -1 22l23 -9l-8 -5v-33h67v15q0 8 -1 18l22 -8l-7 -5v-13q0 -8 2 -14l-16 -6v6h-147l-8 -4l-12 9l5 5v12q0 9 -1 19zM50 182q13 -7 21 -14t5 -13.5t-7 -7.5t-6.5 9t-15.5 24zM71 35q0 -9 1 -19l-15 -7q1 16 1 32v50q-21 -22 -48 -35
l-1 4q44 34 66 76h-23q-14 0 -24 -2l-9 9h60l6 8l13 -12l-9 -7l-17 -26q22 -12 25.5 -17t2.5 -11t-4.5 -8.5t-8.5 9t-16 20.5v-64zM223 87q-21 -12 -30 -17q8 -9 21.5 -17.5t28.5 -13.5v-4q-13 0 -20 -10q-17 13 -30.5 29.5t-20.5 31.5v-56q-1 -15 -17 -22q-4 7 -9.5 10.5
t-22.5 6.5v5q23 -2 29.5 -2t6.5 7v77h-40q-7 0 -17 -2l-9 9h99v18h-49q-10 0 -18 -2l-9 9h76v19h-55q-10 0 -19 -2l-10 9h83l7 9l16 -14l-9 -4v-42h13l12 11l16 -18h-74v-13q4 -11 17 -25q10 9 17.5 17t10.5 13l15 -16zM133 94.5q7 -4.5 8 -9t-3 -11.5t-8 1t-9 14t-12 13
l1 3q16 -6 23 -10.5zM121 57.5q18 9.5 38 22.5v-8q-34 -26 -48 -36l-6 -7l-12 15q10 4 28 13.5z" />
  </g>

</svg>
