<?xml version="1.0" standalone="no"?>
<!DOCTYPE svg PUBLIC "-//W3C//DTD SVG 1.1//EN" "http://www.w3.org/Graphics/SVG/1.1/DTD/svg11.dtd" >
<svg xmlns="http://www.w3.org/2000/svg" xmlns:xlink="http://www.w3.org/1999/xlink" version="1.1" viewBox="0 -36 256 256">
  <g transform="matrix(1 0 0 -1 0 220)">
   <path fill="currentColor"
d="M154 237l-8 -7v-24h48l10 11l18 -18h-76v-37h73l10 11l18 -18h-204q-13 0 -22 -3l-10 10h52q0 45 -1 58l23 -8l-7 -9v-41h53q0 54 -1 83zM175 44q0 -14 1 -27l-17 -7q1 17 1 71h-62q-3 -27 -24 -44.5t-62 -28.5l-1 4q36 15 52.5 31t19.5 38h-40q-13 0 -22 -3l-10 10h72
v39h-17q-13 0 -22 -3l-10 10h170l10 11l18 -18h-57v-39h45l10 11l18 -18h-73v-37zM98 88h62v39h-62v-39z" />
  </g>

</svg>
