<?xml version="1.0" standalone="no"?>
<!DOCTYPE svg PUBLIC "-//W3C//DTD SVG 1.1//EN" "http://www.w3.org/Graphics/SVG/1.1/DTD/svg11.dtd" >
<svg xmlns="http://www.w3.org/2000/svg" xmlns:xlink="http://www.w3.org/1999/xlink" version="1.1" viewBox="0 -205 1024 1024">
  <g transform="matrix(1 0 0 -1 0 819)">
   <path fill="currentColor"
d="M392 854l82 -30q6 -3 6 -8q0 -3 -6 -6l-32 -16v-136l154 50v272q87 -28 88 -34t-4 -8q-6 -1 -32 -22v-194l146 48l32 42q64 -41 68 -46q3 -6 -2 -8q-6 -3 -30 -24v-234q-3 -61 -20 -80q-15 -18 -50 -30q-3 26 -20 38q-18 12 -68 28l4 16q47 -7 68 -10q20 -1 28 4
q8 4 8 62v220l-164 -54v-208l4 -86q3 -10 -20 -26q-23 -15 -40 -14l4 126v192l-154 -48v-320q-1 -46 14 -50l24 -2h346l22 4q24 11 30 34q6 22 12 152h18q3 -82 6 -112t34 -48q-16 -46 -38 -58q-22 -11 -62 -16h-368q-28 -1 -50 8q-21 9 -32 30q-6 15 -6 60v302l-38 -14
q-17 -7 -28 -20l-28 30l94 32v212v0v0zM110 952q68 -33 100 -56q32 -22 44 -40t12 -36q-1 -18 -14 -30q-13 -13 -32 -10q-17 3 -22 30q-3 26 -24 52q-18 27 -74 78l10 12v0v0zM30 574h152l34 42l54 -42q12 -7 12 -14q0 -3 -36 -32v-298q42 -53 94 -88q51 -31 118 -41l94 -2
h282q71 4 164 16v-24q-33 -6 -56 -12q-24 -5 -36 -32h-340q-90 1 -138 14q-48 10 -96 40t-74 69q-27 38 -42 38q-13 1 -46 -40t-78 -119l-62 44q57 55 166 141v312h-84q-31 1 -56 -10l-26 38v0v0z" />
  </g>

</svg>
