<?xml version="1.0" standalone="no"?>
<!DOCTYPE svg PUBLIC "-//W3C//DTD SVG 1.1//EN" "http://www.w3.org/Graphics/SVG/1.1/DTD/svg11.dtd" >
<svg xmlns="http://www.w3.org/2000/svg" xmlns:xlink="http://www.w3.org/1999/xlink" version="1.1" viewBox="0 -205 1024 1024">
  <g transform="matrix(1 0 0 -1 0 819)">
   <path fill="currentColor"
d="M752 934q9 -3 4 -12q0 -1 -6 -4l-28 -14v-164h148l40 54l64 -62q3 0 4 -6q0 -12 -12 -12h-244v-194h114l44 56l72 -62q3 -4 4 -8q0 -12 -12 -12h-396q-20 0 -64 -8l-16 34h202v194h-168q-16 0 -64 -8l-16 34h248v222l82 -28v0v0zM588 304v-164q-1 -40 14 -47q16 -6 38 -6
h118q30 0 40 6q9 6 16 24q5 15 8 37q2 21 8 82h20q3 -51 6 -80q3 -26 34 -45q-15 -34 -36 -50q-21 -13 -72 -18h-180q-31 3 -46 18q-12 14 -18 58v249l82 -32q7 -6 2 -12q-4 -4 -34 -20v0v0zM478 320q6 -64 -2 -112q-7 -48 -22 -69q-13 -24 -32 -30q-18 -5 -30 -2
q-10 3 -16 18q-6 14 4 25q8 9 28 28q20 15 32 48q12 32 18 94h20v0v0zM638 450q81 -51 102 -86q21 -33 16 -60q-3 -25 -14 -32q-12 -7 -24 -4q-12 2 -18 28l-12 54t-60 90l10 10v0v0zM860 356q57 -37 90 -70q34 -31 44 -56q10 -24 8 -42q-1 -17 -10 -28q-6 -10 -24 -8
q-18 0 -26 36q-10 34 -28 68q-17 33 -70 84l16 16v0v0zM266 938q5 -3 8 -6q1 -10 -16 -16q-18 -7 -26 -50q-9 -43 -24 -136h106l30 42l56 -36q13 -9 12 -12q0 -7 -32 -28q-28 -174 -52 -252q-22 -76 -50 -136q45 -21 70 -48t32 -50q6 -21 -6 -36q-10 -15 -26 -12
q-16 2 -26 26q-10 20 -26 44q-15 21 -38 42q-43 -73 -100 -135q-58 -63 -124 -108l-10 12q54 52 112 123q57 72 88 132q-33 27 -120 76q25 114 50 330h-56q-21 0 -48 -6l-16 32h124q15 111 28 240l80 -32v0v0zM240 330q27 59 46 140t38 234h-120q-28 -190 -58 -322
q42 -22 94 -52v0v0z" />
  </g>

</svg>
