<?xml version="1.0" standalone="no"?>
<!DOCTYPE svg PUBLIC "-//W3C//DTD SVG 1.1//EN" "http://www.w3.org/Graphics/SVG/1.1/DTD/svg11.dtd" >
<svg xmlns="http://www.w3.org/2000/svg" xmlns:xlink="http://www.w3.org/1999/xlink" version="1.1" viewBox="0 -200 1000 1000">
  <g transform="matrix(1 0 0 -1 0 800)">
   <path fill="currentColor"
d="M860 570q-23 21 -64 47l4 13q68 -26 96 -50q29 -21 41 -49q13 -24 7 -46q-6 -21 -22 -20q-18 3 -18 20q-1 16 -13 47q-1 2 -3 5l-192 -18q-39 -4 -126 -10q-87 -7 -96 -9q-23 -7 -53 -24l-32 59l257 12v122h-144v-11q0 -20 -9 -29t-35 -14q4 36 7 82v129q2 11 -18 32
l11 16l36 -35h152v88q1 16 -24 41l8 10l78 -33q14 -5 6 -11q-18 -5 -27 -17v-78h129l38 34l42 -42q7 -6 5 -10q-1 -5 -11 -7l-18 -5v-68l6 -71q-2 -19 -14 -24q-14 -8 -29 -8v31h-148v-120l185 8zM165 514l2 13q47 -10 74 -10q29 -2 52 12q24 14 34 62q4 20 4 34q1 12 -1 38
q-1 18 -6 35q-2 9 -4 16l-1 1q-33 -42 -103 -96q-76 -56 -187 -96l-6 14q111 55 178 112q61 51 105 104l-2 6q-2 5 -8 15l-6 12q-12 20 -25 36q-8 -5 -23 -14q-7 -4 -11 -6q-81 -48 -167 -68l-1 14q76 30 145 73q9 5 24 16q8 5 12 8l-11 10q-35 33 -103 62l8 12
q82 -31 111 -53q3 -3 9 -8t8 -7q8 7 23 19q16 13 23 19q35 34 41 43q5 10 1 25l9 4l55 -40q8 -13 -4 -15q-19 3 -44 -15q-35 -32 -80 -63q14 -15 26 -32q74 -100 50 -227q-17 -84 -107 -126q-4 40 -94 61zM36 337h810l36 46l68 -51q10 -7 8 -11q-3 -4 -17 -4h-828
q-24 1 -46 -12zM687 821v-134h148v134h-148zM502 821v-134h144v134h-144zM315 284l72 -64q7 -5 6 -8q0 -4 -8 -5q-33 8 -58 -12q-99 -89 -283 -164l-2 14q145 83 203 137q59 51 65 66q6 16 -3 28zM591 253l4 13q117 -38 183 -86q69 -53 84 -85q18 -37 -1 -53q-18 -16 -52 32
q-35 48 -83 91q-49 43 -135 88zM374 446l2 13q52 -3 88 -15q30 -9 48 -26q21 -17 22 -38q-2 -28 -23 -31q-11 0 -20 17q-30 61 -117 80z" />
  </g>

</svg>
