<?xml version="1.0" standalone="no"?>
<!DOCTYPE svg PUBLIC "-//W3C//DTD SVG 1.1//EN" "http://www.w3.org/Graphics/SVG/1.1/DTD/svg11.dtd" >
<svg xmlns="http://www.w3.org/2000/svg" xmlns:xlink="http://www.w3.org/1999/xlink" version="1.1" viewBox="0 -120 1000 1000">
  <g transform="matrix(1 0 0 -1 0 880)">
   <path fill="currentColor"
d="M159 424v236q-70 -53 -112 -78l-10 13q106 94 196 240l58 -34q9 -5 9 -12t-11 -8l-17 -2l-58 -69l12 -6q9 -4 9 -11q0 -6 -9 -9l-15 -5v-246zM37 796q79 63 163 165l60 -44q10 -7 10 -14q0 -8 -12 -8h-3l-25 2q-102 -74 -184 -115zM663 528l-332 -63l-4 -12
q-5 -11 -13 -11t-15 13l-30 62l60 4v185l66 -9q15 -2 15 -12t-10 -13l-19 -6v-141l73 4v204h-155l-15 28h170v85h-59q-27 -39 -54 -72l-17 9q32 71 57 176l66 -19q14 -4 14 -11t-12 -10l-17 -5l-22 -40h136l25 40l68 -49v-19h-131v-85h67l26 43l70 -49v-22h-163v-71h44
l23 37l72 -48v-17h-139v-100l153 10zM704 425v513l60 -36h85l20 36l59 -38q11 -8 11 -16q0 -6 -11 -10l-18 -6v-351q0 -25 -27 -43q-26 -18 -42 -18q-8 0 -9 11q-4 32 -16 36l-38 11v14h79v346h-101v-440zM47 105q116 51 206 121q96 76 135 130h-311l-13 27h398v86l36 -3
q52 -4 56 -10q2 -3 2 -6q0 -10 -17 -15l-15 -5v-47h277l49 56l93 -64v-19h-390q131 -119 401 -194l-7 -18q-40 1 -67 -40q-98 36 -186 98q-101 67 -170 146v-281l-62 -8v270q-183 -169 -406 -241z" />
  </g>

</svg>
