<?xml version="1.0" standalone="no"?>
<!DOCTYPE svg PUBLIC "-//W3C//DTD SVG 1.1//EN" "http://www.w3.org/Graphics/SVG/1.1/DTD/svg11.dtd" >
<svg xmlns="http://www.w3.org/2000/svg" xmlns:xlink="http://www.w3.org/1999/xlink" version="1.1" viewBox="0 -36 256 256">
  <g transform="matrix(1 0 0 -1 0 220)">
   <path fill="currentColor"
d="M144 66h43v54h-43v-54zM131 154q0 -3 -1 9l24 -8l-10 -8v-20h43v21q0 1 -1 16l23 -7l-9 -5v-25h15l11 10l15 -17h-41v-54h17l14 11l17 -18h-114q-16 1 -29 -2l-13 9h39v54q-11 0 -19 -3l-8 10h27v27zM139 56l18 -16l-12 -1q-30 -23 -59 -33l-2 4q38 21 55 46zM222.5 36.5
q11.5 -6.5 12 -13.5t-2.5 -13t-12.5 7.5t-41.5 34.5l1 3q32 -12 43.5 -18.5zM70 104q17 17 27 38l15 -14l-9 -3q-8 -11 -34 -28q-1 -17 -3 -24q25 -14 33 -23.5t3.5 -20.5t-10 2.5t-27.5 35.5q-12 -38 -45 -60l-3 3q35 31 39.5 85t1.5 76l22 -9l-8 -7q0 -13 -2 -51zM38 95
q-4 -7 -13.5 -7.5t-1 11.5t11.5 33h4q3 -30 -1 -37zM73 231l-12 -23h50l10 11l15 -18h-60q17 -10 22 -14.5t4.5 -9.5t-6 -10t-9 6t-18.5 28h-11q-16 -27 -38 -45l-3 2q13 17 25.5 40t18.5 49l22 -12zM170 232l-13 -24h55l11 11l16 -18h-60q26 -12 31.5 -17.5t4.5 -10.5
t-5.5 -9.5t-9 6.5t-27.5 31h-18q-14 -23 -29 -37l-3 2q14 22 23 44t12 37l22 -11z" />
  </g>

</svg>
