<?xml version="1.0" standalone="no"?>
<!DOCTYPE svg PUBLIC "-//W3C//DTD SVG 1.1//EN" "http://www.w3.org/Graphics/SVG/1.1/DTD/svg11.dtd" >
<svg xmlns="http://www.w3.org/2000/svg" xmlns:xlink="http://www.w3.org/1999/xlink" version="1.1" viewBox="0 -140 1000 1000">
  <g transform="matrix(1 0 0 -1 0 860)">
   <path fill="currentColor"
d="M613 364l-24 -16l-54 -124v-15l8 -1q97 24 113 24q9 0 9 -2l-76 -38q-11 -5 -108 -43.5t-102 -40.5l-16 -23l-8 8q-1 3 -18.5 30t-20.5 30q1 6 44.5 14t90 17t54.5 17q6 12 6 15q18 70 32 187q57 -26 63 -32zM675 140l8 7h109l16 14v519h-148l-8 16h160v230
q50 -11 66 -16q6 0 6 -7q0 -9 -21 -16v-187q9 4 22 37l2 2q1 -1 6 -3q34 -14 50.5 -28t15.5 -28h-100v-533q-7 -31 -36 -46.5t-54 -15.5q0 49 -54 51q-27 4 -40 4zM144 294v300h-101v24h101v262q60 -8 79 -32l-24 -24v-193q3 0 14 -4q14 -5 22 -5q11 0 42 39q17 -17 47 -55
v-12h-125v-283q18 0 61 8q38 7 60 7l20 -1l-8 -8l-219 -101q-19 -19 -23 -31l-55 85q93 16 109 24zM379 350l-1 2q0 2 1 4q68 -26 79 -106q-4 -40 -33 -42q-11 0 -18 42q-6 32 -16 63q-12 34 -12 37zM668 567h3q77 -23 99 -114q0 -34 -25 -34q-5 2 -7 7q-25 53 -55 110
q-15 18 -23 23q0 1 3 4.5t5 3.5zM363 731l47 -24h133l31 24l47 -47l-20 -8v-218h-43l-8 15h-136v-39h-51v297zM418 684v-179h132v179h-132zM340 852h210l47 43l55 -55h-312v12z" />
  </g>

</svg>
