<?xml version="1.0" standalone="no"?>
<!DOCTYPE svg PUBLIC "-//W3C//DTD SVG 1.1//EN" "http://www.w3.org/Graphics/SVG/1.1/DTD/svg11.dtd" >
<svg xmlns="http://www.w3.org/2000/svg" xmlns:xlink="http://www.w3.org/1999/xlink" version="1.1" viewBox="0 -36 256 256">
  <g transform="matrix(1 0 0 -1 0 220)">
   <path fill="currentColor"
d="M42 144h-3q-10 0 -19 -2l-9 9h43v43h-6q-11 -1 -20 -3l-9 10h35v11q0 19 -1 35l20 -12l-7 -7v-27h9l8 9l13 -16h-30v-43h11l10 9l14 -16h-22v-113q-1 -6 -4.5 -12t-13.5 -10q0 11 -18 19v4q13 -3 18.5 -3.5t5.5 12.5v103h-13q-1 -67 -14.5 -93t-28.5 -41l-2 3
q14 20 23.5 49t9.5 82zM107 89.5q1 -9.5 -3.5 -17t-7.5 8t-12 39.5l2 2q20 -23 21 -32.5zM23 121l16 -11q-6 -6 -12 -21t-17 -37l-3 2q13 38 16 67zM169 128l8 -2q9 8 21 24h-17q-10 0 -19 -2l-9 9h35v38h-7q-10 0 -19 -3l-9 10h35q0 28 -1 44l20 -11l-7 -6v-27h6l9 9
l11 -13q5 10 8 22l15 -13q-5 -3 -11.5 -17t-19.5 -33h7l10 9l13 -16h-35q-15 -19 -26 -30h32l8 9l13 -13l-7 -6v-52q0 -21 1 -35l-14 -9v18h-37v-16l-14 -8q1 15 1 98q-11 -9 -31 -18l-2 3q21 14 33 28q0 -1 -1 9zM225 195h-25v-38h3q8 9 22 38zM183 80h37v33h-37v-33z
M183 39h37v34h-37v-34zM156 84l2 -4q-51 -27 -58 -39l-13 18q9 1 30 10v85q-11 0 -17 -2l-9 9h26v47q0 14 -1 34l21 -11l-8 -7v-62h3l9 11l13 -18h-25v-82z" />
  </g>

</svg>
