<?xml version="1.0" standalone="no"?>
<!DOCTYPE svg PUBLIC "-//W3C//DTD SVG 1.1//EN" "http://www.w3.org/Graphics/SVG/1.1/DTD/svg11.dtd" >
<svg xmlns="http://www.w3.org/2000/svg" xmlns:xlink="http://www.w3.org/1999/xlink" version="1.1" viewBox="0 -205 1024 1024">
  <g transform="matrix(1 0 0 -1 0 819)">
   <path fill="currentColor"
d="M452 334h220v146l82 -28q8 -3 8 -12q0 -1 -6 -4l-34 -20v-82h122l40 40l54 -50q3 -4 4 -10q1 -7 -16 -8h-204v-181h172l44 45l62 -57q3 -3 4 -10t-16 -6h-514q-22 1 -70 -10l-18 38h286v181h-132q-21 0 -68 -8l-20 36v0v0zM422 922h452l40 40l68 -50q4 -4 2 -8
q1 -4 -10 -8h-180v-132h78l34 38l60 -46q6 -4 6 -8q0 -6 -32 -30v-146l4 -76q-1 -11 -16 -22q-16 -9 -40 -14v44h-376v-12q2 -13 -10 -26q-12 -9 -42 -12l4 114v230l54 -34h88v132h-106q-21 0 -62 -8l-16 34v0v0zM514 532h92v204h-92v-204v0v0zM656 532h88v204h-88v-204v0v0
zM794 532h94v204h-94v-204v0v0zM744 764v132h-88v-132h88v0v0zM34 878h304l36 42l52 -50q12 -15 -8 -18h-170q-28 -136 -70 -268h122l32 36l54 -46q6 -6 6 -8q0 -6 -32 -30v-328l4 -44q2 -15 -16 -27q-18 -14 -36 -16v77h-136v-73q0 -18 -20 -28q-21 -12 -32 -12l4 101v278
q-34 -78 -94 -150l-10 8q51 104 96 230q42 123 76 300h-74q-22 0 -70 -8l-18 34v0v0zM176 224h136v334h-136v-334v0v0z" />
  </g>

</svg>
