<?xml version="1.0" standalone="no"?>
<!DOCTYPE svg PUBLIC "-//W3C//DTD SVG 1.1//EN" "http://www.w3.org/Graphics/SVG/1.1/DTD/svg11.dtd" >
<svg xmlns="http://www.w3.org/2000/svg" xmlns:xlink="http://www.w3.org/1999/xlink" version="1.1" viewBox="0 -205 1024 1024">
  <g transform="matrix(1 0 0 -1 0 819)">
   <path fill="currentColor"
d="M450 962l58 -36h250l24 36l58 -32q12 -6 12 -14q0 -6 -32 -30v-70l4 -64q1 -13 -16 -26q-15 -12 -38 -14v42h-270v-10q0 -12 -18 -24q-18 -9 -36 -12l4 106v148v0v0zM500 778h270v124h-270v-124v0v0zM358 698l46 -36h120l24 32l50 -28q9 -6 10 -14q-1 -3 -28 -26v-76
l4 -62q1 -10 -16 -22q-16 -10 -34 -14v32h-130v-14q0 -9 -18 -20q-19 -12 -32 -12l4 98v162v0v0zM404 508h130v130h-130v-130v0v0zM680 698l54 -40h122l32 36l48 -36q9 -6 10 -14q0 -3 -30 -26v-62l4 -62q0 -10 -18 -22q-16 -12 -32 -12v24h-144v-6q1 -7 -16 -16
q-14 -7 -34 -8l4 92v152v0v0zM726 508h144v126h-144v-126v0v0zM682 442q3 -3 4 -6q0 -4 -8 -10l-24 -12v-40h234l36 44l54 -50q3 -3 4 -8q0 -12 -12 -12h-286q32 -50 70 -88q36 -36 96 -66q60 -26 150 -34v-18q-44 0 -64 -9q-18 -9 -36 -34q-75 42 -116 75q-43 34 -76 86
q-34 51 -46 88h-8v-200l4 -89q-1 -11 -22 -26q-21 -14 -36 -14l4 127v170q-57 -69 -156 -138q-99 -67 -182 -107l-8 14q108 69 178 127q66 56 132 136h-196q-21 0 -68 -8l-16 34h316v92l78 -24v0v0zM166 980l80 -30q12 -7 0 -16l-32 -12v-138q44 -24 74 -44q27 -19 36 -40
q7 -22 2 -40q-6 -19 -26 -20q-18 0 -26 22q-6 20 -18 46q-12 24 -42 54v-594l4 -111q1 -11 -16 -26q-17 -14 -40 -16l4 161v804v0v0zM90 730h18q1 -81 0 -120q0 -39 -18 -66q-16 -25 -38 -26q-22 0 -28 16q-6 14 6 28l22 30t20 46q9 28 18 92v0v0z" />
  </g>

</svg>
