<?xml version="1.0" standalone="no"?>
<!DOCTYPE svg PUBLIC "-//W3C//DTD SVG 1.1//EN" "http://www.w3.org/Graphics/SVG/1.1/DTD/svg11.dtd" >
<svg xmlns="http://www.w3.org/2000/svg" xmlns:xlink="http://www.w3.org/1999/xlink" version="1.1" viewBox="0 -36 256 256">
  <g transform="matrix(1 0 0 -1 0 220)">
   <path fill="currentColor"
d="M30.5 50q6.5 21 6.5 57l-5 -1h-10l-5 -4l-9 11h75v41h-41l-5 -6l-12 10l6 6q0 27 -1 63l21 -10l-7 -6v-50h39q0 37 -1 85l19 -11l-5 -7v-141q0 -3 1 -69l-15 -9q1 54 1 97h-32q0 -36 -9 -57.5t-25 -37.5l-2 3q9 15 15.5 36zM181 124h33v43h-33v-43zM124 177q0 39 -1 57
l15 -9h74l7 9l14 -14l-7 -6q0 -74 1 -97l-13 -8v8h-33v-36h26l13 11l15 -18h-54v-46h38l14 12l15 -19h-124q-10 0 -19 -2l-9 9h72v46h-25q-10 0 -19 -2l-9 9h53v36h-33v-5l-12 -5q1 31 1 70zM135 174h33v44h-33v-44zM181 174h33v44h-33v-44zM135 124h33v43h-33v-43z" />
  </g>

</svg>
