<?xml version="1.0" standalone="no"?>
<!DOCTYPE svg PUBLIC "-//W3C//DTD SVG 1.1//EN" "http://www.w3.org/Graphics/SVG/1.1/DTD/svg11.dtd" >
<svg xmlns="http://www.w3.org/2000/svg" xmlns:xlink="http://www.w3.org/1999/xlink" version="1.1" viewBox="0 -205 1024 1024">
  <g transform="matrix(1 0 0 -1 0 819)">
   <path fill="currentColor"
d="M894 842l38 48l64 -56q3 -4 4 -10q0 -7 -14 -8h-558q-21 1 -60 -10l-24 36h550v0v0zM492 780l58 -34h236l32 32q53 -40 56 -52q-1 -4 -28 -20v-78l6 -46q-3 -19 -18 -28t-38 -12v36h-254v-10q0 -9 -6 -18q-18 -13 -50 -16l6 90v156v0v0zM542 604h254v116h-254v-116v0v0z
M538 398l50 -34h152l34 32l38 -34q12 -7 12 -16q0 -4 -24 -22v-72l4 -62q0 -13 -20 -22q-17 -12 -34 -12v48h-162v-24q0 -12 -12 -24q-12 -10 -44 -14l6 86v170v0v0zM588 228h162v112h-162v-112v0v0zM386 516l58 -40h442l34 40l52 -38q9 -3 10 -12q0 -6 -32 -26v-315
q1 -45 -12 -72q-15 -24 -62 -40q-6 36 -36 50q-27 12 -80 30l4 18q68 -15 92 -18q22 0 32 2q12 4 10 32v323h-460v-310l4 -79q-3 -14 -20 -26q-18 -12 -42 -18l6 131v368v0v0zM566 980l8 12q62 -24 94 -48q32 -23 34 -46q3 -22 -8 -34q-12 -13 -30 -10q-18 2 -24 26
q-3 24 -20 48q-15 24 -54 52v0v0zM86 864l56 -40h102l32 40l54 -38q12 -6 12 -14q-1 -3 -34 -30v-398l4 -100q0 -12 -14 -24q-16 -13 -40 -16v96h-122v-116q0 -12 -20 -24q-19 -12 -34 -12l4 150v526v0v0zM136 370h122v424h-122v-424v0v0z" />
  </g>

</svg>
