<?xml version="1.0" standalone="no"?>
<!DOCTYPE svg PUBLIC "-//W3C//DTD SVG 1.1//EN" "http://www.w3.org/Graphics/SVG/1.1/DTD/svg11.dtd" >
<svg xmlns="http://www.w3.org/2000/svg" xmlns:xlink="http://www.w3.org/1999/xlink" version="1.1" viewBox="0 -52 256 256">
  <g transform="matrix(1 0 0 -1 0 204)">
   <path fill="currentColor"
d="M41 146h54l9 11l14 -12q2 -2 2 -3q-1 -1 -5 0h-30q0 -21 -3 -39h29l8 12l16 -13q3 -2 3 -3q-1 -1 -5 -1h-52v-5q-1 -4 -1 -6q17 -9 30 -19q10 -7 14 -14q3 -8 3 -14q-2 -5 -6 -5t-6 7q-3 9 -9 18q-3 3 -14 12q-9 7 -13 11q-12 -48 -67 -69l-1 3q57 31 60 81h-33
q-7 0 -12 -3l-8 8h53q1 8 2 26q1 8 1 13h-14q-7 0 -11 -4zM140 222l10 -15l2 -1q0 -1 -2 -2q-4 2 -9 1q-3 0 -9 -3q-1 -1 -4 -2l-12 -6l1 -1v-2q11 -13 16 -25q3 -12 -2 -16q-6 -3 -9 10q-4 13 -11 25t-28 35l3 4q2 -3 7 -7l3 -3l9 9q11 12 12 15q1 1 -1 6l2 2l14 -11
q4 -3 2 -4q-6 1 -10 -2q-13 -9 -25 -18l5 -5q3 -2 8 -8q9 5 14 9q7 5 10 8t1 5zM7 126l-1 3q17 13 27 28q12 15 17 30q6 15 10 34h-27q-6 0 -8 -3l-8 8h41l6 9l12 -13l2 -1q0 -1 -2 -2q-6 -2 -9 -13q-3 -12 -9 -25q-6 -15 -19 -30q-14 -15 -32 -25zM19 207l1 2q12 -4 17 -9
l2 -2q3 -2 5 -6q3 -3 1 -8q-2 -4 -5 -4q-4 0 -4 4q-1 5 -3 9q-4 6 -14 14zM252 22v-4q-15 1 -18 -8q-16 9 -35 24q-9 6 -16 15l-9 -9q-23 -18 -65 -33l-2 4q34 14 59 35q6 6 11 12q-16 29 -25 73h-1q-6 2 -8 -3l-7 9h72l7 8l13 -11q2 -1 2 -3q0 -1 -2 -1q-6 -2 -10 -14
q-8 -32 -28 -59q6 -8 14 -13q13 -9 19 -12q7 -5 13 -6q6 -3 16 -4zM156 237l11 -8h33l8 10l13 -12q1 -1 1 -3q-1 -1 -3 -1l-5 -4v-34q-1 -15 4 -17t14 -1q6 1 10 4h1q3 -3 8 -7q4 -3 2 -4l-11 -3h-8h-17q-6 1 -9 5q-5 5 -5 17v45h-33q0 -23 -1 -32q-2 -34 -35 -50l-2 2
q15 13 20 25q7 12 7 30q1 13 1 24q-1 6 -6 11zM183 67q21 29 27 64h-51q10 -40 24 -64z" />
  </g>

</svg>
