<?xml version="1.0" standalone="no"?>
<!DOCTYPE svg PUBLIC "-//W3C//DTD SVG 1.1//EN" "http://www.w3.org/Graphics/SVG/1.1/DTD/svg11.dtd" >
<svg xmlns="http://www.w3.org/2000/svg" xmlns:xlink="http://www.w3.org/1999/xlink" version="1.1" viewBox="0 -36 256 256">
  <g transform="matrix(1 0 0 -1 0 220)">
   <path fill="currentColor"
d="M217 234q-11 -5 -27 -23h27l11 11l15 -18h-59v-18h22l11 10l15 -17h-48v-19h36l13 11l15 -18h-64q0 -10 1 -20l-16 -5q1 11 1 25h-28q-10 0 -20 -2l-9 9h57v19h-15q-10 0 -19 -2l-9 9h43v18h-20q-10 0 -19 -2l-10 9h35q-1 18 -12 29l2 3q15 -8 21 -16t-6 -16h23
q12 18 17 35zM218 111l15 -17h-50v-30h35l12 11l16 -18h-63q0 -20 1 -44l-16 -5q1 27 1 49h-30q-10 0 -20 -2l-9 9h59v30h-28q-11 -14 -19 -22l-3 2q14 25 21 57l16 -10l-5 -4q-5 -11 -7 -16h25q0 17 -1 28l22 -8l-7 -8v-12h23zM25 169q0 32 -1 65l13 -7h55l12 10l13 -17
h-41v-28h10l11 10l13 -17h-34v-28h10l12 9l12 -16h-34v-29l21 1l8 8l14 -13l-8 -6q-5 -62 -8.5 -72.5t-8.5 -17.5t-17 -10q0 12 -25 18l1 4q23 -3 27.5 -2t9 13t8.5 71l-60 -3v-3l-14 -3q1 31 1 63zM38 192h25v28h-25v-28zM38 157h25v28h-25v-28zM38 120l25 1v29h-25v-30z
M24 89q4 -21 2 -29.5t-6 -12.5t-8.5 -0.5t2 12.5t6.5 30h4zM36 92q8 -10 11 -18.5t1.5 -14.5t-6.5 -7t-4 10.5t-6 28.5zM51 97q19 -15 22 -22t0 -11t-7 -4.5t-5 8t-12 27.5zM72 102q13 -9 17 -16.5t3 -12t-5.5 -7t-6.5 7t-11 26.5z" />
  </g>

</svg>
