<?xml version="1.0" standalone="no"?>
<!DOCTYPE svg PUBLIC "-//W3C//DTD SVG 1.1//EN" "http://www.w3.org/Graphics/SVG/1.1/DTD/svg11.dtd" >
<svg xmlns="http://www.w3.org/2000/svg" xmlns:xlink="http://www.w3.org/1999/xlink" version="1.1" viewBox="0 -144 1024 1024">
  <g transform="matrix(1 0 0 -1 0 880)">
   <path fill="currentColor"
d="M51 105l27 -59h-25l-18 16l-1 25zM64 75l3 -5l3 -8l2 -2l2 -5l4 -9l21 14l19 15l17 18l13 20l12 22l8 22l6 24l2 26v27l-1 28h-10l-5 -26l-8 -24l-9 -22l-10 -18l-11 -17l-12 -13l-13 -12l-14 -11l-15 -8l-17 -6v-1l3 -6l2 -4v-1l1 -3l3 -3zM898 89l-7 16l-8 17l-10 17
l-12 19l-15 18l-35 39l-44 41l5 8l29 -14l26 -14l25 -15l22 -17l19 -16l34 -36l14 -19l12 -18l10 -21l-2 -24l-19 -17l-24 2l-16 19zM622 104l-1 14l-4 15l-5 15l-8 16l-9 16l-11 17l-28 36l-18 18l5 8l44 -26l19 -14l18 -15l15 -16l14 -16l11 -17l10 -18l8 -19l5 -20
l-7 -24l-21 -12l-24 7l-12 21zM357 98l64 -8l-12 -21l-23 -7l-22 12zM326 258l-7 -7l13 -17l9 -18l7 -16l6 -17l5 -15l2 -15l1 -14v-14l-2 -14l-3 -13l64 -8v20l-3 20l-5 18l-7 19l-9 17l-11 16l-12 16l-15 14zM163 375l57 -30l-7 -12l-7 -10l-9 -10l-10 -9l-11 -7l-12 -7
l-12 -4l-12 -3l-14 -2l-13 -1v32l-65 17v16h65h7l7 1l6 1l5 3l5 2l4 3l5 4l3 4l4 5zM918 354l-5 -12l-7 -12l-8 -11l-8 -10l-11 -8l-11 -7l-12 -5l-13 -4l-14 -2l-13 -1v33l-105 15l-18 -21l-31 -26l-6 7l21 32l19 34l17 38l14 41l12 46l10 50l7 55l5 58l2 64v53h-104v22
h104v177l65 -10l16 -11l-16 -10v-146h60l32 27l59 -49l-26 -16v-86l-2 -51l-2 -48l-3 -43l-4 -40l-4 -36l-6 -32l-6 -29zM163 375l8 20l8 37l6 51l1 61l-3 57l-20 -33l-19 -26l-20 -24l-21 -24l-23 -21l-25 -21l-26 -18l-6 7l36 50l32 50l28 52l13 27l11 27l10 28l9 29l6 -2
l-13 52l-5 13l-11 -13l-26 -24l-27 -22l-28 -19l-30 -16l-5 8l65 73l20 27l19 28l5 7l-4 9l-36 66l-45 66l6 7l62 -55l39 -57l26 50l15 34l15 36l3 7l56 -33l10 -16l-20 -3l-16 -30h186v97l65 -11l16 -10l-16 -10v-66h80l44 49l53 -49v-21h-177v-65h70l32 27l59 -48l-27 -22
v-215l-64 -32v43h-70v-97h96l44 49l54 -49v-21h-194v-89h67l53 54l65 -54v-21h-435v21h185v89h-182v21h182v97h-80v-16l-65 -32v328l65 -33h80v65h-188v18l-32 -53l-22 -31l-7 -9l15 -33l24 -76l1 -9l3 -1l-2 -3l12 -62l7 -71l2 -65l-4 -56l-7 -45l-11 -35zM429 677h-80v-91
h80v91zM564 677h-70v-91h70v91zM429 790h-80v-92h80v92zM564 790h-70v-92h70v92zM857 376l6 20l6 25l5 30l4 33l4 38l3 42l3 96v101h-61l-2 -56l-6 -66l-9 -61l-12 -57l-15 -53l-18 -47l-20 -43l-21 -31h92h7l6 1l5 2l4 1l4 2l3 3l3 4l4 4l2 5zM918 354l-2 1z" />
  </g>

</svg>
