<?xml version="1.0" standalone="no"?>
<!DOCTYPE svg PUBLIC "-//W3C//DTD SVG 1.1//EN" "http://www.w3.org/Graphics/SVG/1.1/DTD/svg11.dtd" >
<svg xmlns="http://www.w3.org/2000/svg" xmlns:xlink="http://www.w3.org/1999/xlink" version="1.1" viewBox="0 -36 256 256">
  <g transform="matrix(1 0 0 -1 0 220)">
   <path fill="currentColor"
d="M86 228q27 7 36 15l13 -21l-12 1q-55 -11 -105 -14v6q41 6 68 13zM55.5 170.5q0.5 -9.5 -5 -15t-9 7t-20.5 33.5l2 4q32 -20 32.5 -29.5zM89 179q1 -10 -5 -15t-9 8t-19 30l2 4q30 -17 31 -27zM103 155l-4 2q13 29 18 56l19 -12l-8 -5q-7 -16 -25 -41zM119 28l-13 -6v11
h-64v-13l-14 -8q1 24 1 45t-1 41l13 -7h27v29h-31q-10 0 -19 -2l-9 9h59q0 11 -1 33l23 -11l-8 -7v-15h32l11 11l13 -18h-56v-29h25l7 9l12 -12l-7 -7v-53zM42 40h64v44h-64v-44zM165 212q0 16 -1 34l20 -10l-6 -8v-28h34l10 14l13 -21h-57v-43h25l6 10l15 -15l-9 -5
q-11 -47 -32 -79q28 -30 63 -35v-4q-13 -2 -16 -12q-31 12 -55 41q-29 -30 -76 -44l-1 5q48 21 69 50q-20 39 -26 82l-9 -3l-8 9h41v62zM175 72q18 31 26 71h-54q9 -40 28 -71z" />
  </g>

</svg>
