<?xml version="1.0" standalone="no"?>
<!DOCTYPE svg PUBLIC "-//W3C//DTD SVG 1.1//EN" "http://www.w3.org/Graphics/SVG/1.1/DTD/svg11.dtd" >
<svg xmlns="http://www.w3.org/2000/svg" xmlns:xlink="http://www.w3.org/1999/xlink" version="1.1" viewBox="0 -205 1024 1024">
  <g transform="matrix(1 0 0 -1 0 819)">
   <path fill="currentColor"
d="M884 968l66 -64q3 -2 4 -10q0 -6 -14 -6h-228v-280h158l40 48l64 -58q12 -12 -2 -20h-260v-438q4 -40 -18 -67q-22 -24 -68 -34q-3 34 -38 50q-36 15 -86 30l6 16q76 -15 98 -18q21 -3 40 2q17 7 14 45v414h-6q-58 -145 -172 -268q-113 -125 -250 -193l-10 12
q138 97 232 211q92 111 140 238h-194l-34 -32l-54 58q25 10 44 26q27 81 54 190l74 -36q6 0 6 -12q-3 -6 -14 -6q-22 -9 -28 -20q-23 -66 -46 -138h258v280h-258q-26 1 -58 -10l-18 38h518l40 52v0v0zM292 776l20 -8q-120 -320 -128 -352q-9 -31 -14 -56q-7 -25 -4 -56
q3 -29 12 -88q10 -60 8 -81q-3 -23 -18 -34q-12 -9 -30 -4q-18 7 -24 28q-6 20 6 89q10 66 8 90q0 24 -6 36q-3 9 -20 16q-16 6 -82 12l2 22q65 -6 80 -2q11 4 26 20q14 14 164 368v0v0zM54 940l10 12q87 -49 114 -76q26 -25 32 -52q4 -27 -6 -44q-12 -18 -30 -14
q-19 2 -26 34q-5 33 -22 60q-15 28 -72 80v0v0z" />
  </g>

</svg>
