<?xml version="1.0" standalone="no"?>
<!DOCTYPE svg PUBLIC "-//W3C//DTD SVG 1.1//EN" "http://www.w3.org/Graphics/SVG/1.1/DTD/svg11.dtd" >
<svg xmlns="http://www.w3.org/2000/svg" xmlns:xlink="http://www.w3.org/1999/xlink" version="1.1" viewBox="0 -36 256 256">
  <g transform="matrix(1 0 0 -1 0 220)">
   <path fill="currentColor"
d="M106 85l-15 -10v15h-59v-10l-14 -7q1 26 1 82.5t-1 79.5l16 -8h55l9 9l15 -16l-8 -7v-85q0 -13 1 -43zM91 175h-59v-33h59v33zM91 135h-59v-38h59v38zM49 57q-20 -28 -40 -49l-1 3q22 33 31 67l19 -13zM101.5 52q12.5 -12 7 -24.5t-13 6t-23.5 36.5l2 3q15 -9 27.5 -21z
M91 220h-59v-38h59v38zM167 84l2 -3q-30 -31 -39 -46l-13 15q3 7 4 15q0 116 -1 132l15 -9h29q-1 26 -3 59l22 -9l-7 -7q0 -32 1 -43h41l11 12l16 -19h-68q2 -25 5 -50.5t10 -47.5q23 39 27 69l21 -15l-9 -6q-16 -37 -33 -63q13 -24 33 -37l12 40l4 -1q-4 -20 -4 -32
t3.5 -21.5t-7.5 -6.5t-25.5 16.5t-23.5 30.5q-34 -33 -80 -50l-2 4q24 12 44.5 28.5t30.5 30.5q-8 21 -12 48t-7 63h-29v-119zM216.5 220.5q9.5 -7.5 3 -18t-11 2t-17.5 28.5l2 3q14 -8 23.5 -15.5z" />
  </g>

</svg>
