<?xml version="1.0" standalone="no"?>
<!DOCTYPE svg PUBLIC "-//W3C//DTD SVG 1.1//EN" "http://www.w3.org/Graphics/SVG/1.1/DTD/svg11.dtd" >
<svg xmlns="http://www.w3.org/2000/svg" xmlns:xlink="http://www.w3.org/1999/xlink" version="1.1" viewBox="0 -36 256 256">
  <g transform="matrix(1 0 0 -1 0 220)">
   <path fill="currentColor"
d="M32 232q24 -11 29 -18t0 -15t-9.5 3t-20.5 26zM17 177q29 -11 31 -20t-3.5 -15t-9.5 5.5t-19 26.5zM34 84.5q6 3.5 31 105.5l4 -1q-17 -86 -20.5 -98t-4 -22.5t1 -35t-9 -18.5t-7.5 22t3 26.5t-22 15.5v4q18 -2 24 1.5zM183 120h23v22h-23v-22zM149 92h22v21h-22v-21z
M183 92h23v21h-23v-21zM183 172h28l11 11l16 -18h-55v-16h21l7 7l14 -11l-7 -5v-33q0 -14 1 -20l-13 -7v5h-23v-16h31l13 10l15 -17h-59q0 -19 1 -27l-14 -6q1 9 1 33h-25q-10 0 -19 -2l-9 9h53v16h-22v-1l-13 -6q1 24 1 43t-1 34l14 -6h21v16h-22q-11 0 -20 -2l-9 9h51
q0 16 -1 24l18 -8l-5 -7v-9zM149 120h22v22h-22v-22zM99 140l7 10l13 -13l-7 -4l-22 -34h17l6 6l13 -13l-8 -6q-9 -21 -20 -42q31 -15 67 -16t81 3v-4q-18 -5 -19 -14q-32 -1 -59 1t-41.5 9.5t-23 12.5t-16 -4.5t-12.5 -18.5l-13 8q13 15 29 24q8 23 15 47h-20l-7 -7l-7 14
l8 2l19 33q-16 0 -25 -3l-9 9h34zM78 196q25 -15 25.5 -23t-4 -14.5t-8 6.5t-15.5 29zM128 211v-17l-14 -5q1 9 1 22h-12q-10 0 -19 -2l-9 9h40q0 13 -1 28l21 -7l-7 -5v-16h7l10 8l11 -15h-28zM199 196l-13 -5v20h-5q-6 0 -14 -2l-9 9h28q0 9 -1 28l20 -8l-6 -4v-16h18l9 8
l15 -15h-42v-15z" />
  </g>

</svg>
