<?xml version="1.0" standalone="no"?>
<!DOCTYPE svg PUBLIC "-//W3C//DTD SVG 1.1//EN" "http://www.w3.org/Graphics/SVG/1.1/DTD/svg11.dtd" >
<svg xmlns="http://www.w3.org/2000/svg" xmlns:xlink="http://www.w3.org/1999/xlink" version="1.1" viewBox="0 -205 1048 1024">
  <g transform="matrix(1 0 0 -1 0 819)">
   <path fill="currentColor"
d="M982 764q8 -9 8 -15q0 -13 -43 -12l-67 -105l-12 6l42 110h-516q-3 -39 -19 -68q-14 -24 -26 -24q-10 0 -10 23q0 10 4 24t16.5 25.5t16.5 24.5q8 20 8 61h11q2 -11 2 -24q0 -11 -2 -21h504l23 24q13 10 17 10t16 -11zM894 354q8 -7 8 -12q0 -4 -31 -15v-177q3 -22 3 -30
q0 -18 -24 -28q-14 -6 -20 -6t-6 12q0 5 2 33h-400q2 -24 1 -28q-3 -7 -20 -13q-13 -4 -18 -4q-6 0 -8 11v42v207l-2 55l58 -42h106l48 110h-114q3 -21 -1 -26.5t-22 -12.5q-22 -5 -16 -5l-6 12q0 -7 0 42v178l-2 52l51 -32h293l13 18q7 8 10 8t13 -10l28 -24q9 -10 9 -14
q0 -3 -23 -12v-158q0 -30 -1 -33q-2 -6 -22 -14q-14 -6 -18 -6q-8 0 -4 37h-126q3 -14 -8 -16.5t-22 -4.5l-60 -89h256l18 21q7 9 10 9t16 -9zM779 489v167h-302v-167h302zM826 151v188h-400v-188h400zM239 947q22 -13 22 -21q0 -9 -38 -7l-81 -128q39 -22 51 -53
q2 -9 2 -17q0 -22 -14 -22q-12 0 -25 24q-26 52 -84 89l6 10q32 -12 51 -24l76 170zM332 519q3 -39 -18 -39q-10 0 -14 19.5t-9 35.5q-21 -4 -57 -12v-403q0 -9 1.5 -18.5t1.5 -12.5q0 -15 -21 -25q-12 -5 -18 -5q-7 0 -8.5 6t-0.5 24q1 25 1 35v386q-63 -12 -81 -16
q-7 -24 -15 -24q-9 0 -14 27l-13 39q-8 0 56 3l171 331l64 -22q-10 -10 -22 -13q-6 -11 -19 -8l-177 -289q73 4 146 13q-5 18 -37 52l9 11q67 -50 74 -95zM334 280q-1 -43 -24 -43q-21 0 -19 39q4 81 -36 180l14 6q67 -116 65 -182zM146 396q-21 -176 -65 -269l-13 3
q43 122 36 313l34 -9q37 -11 37 -21q0 -8 -29 -17zM844 932q22 -13 22 -22q0 -10 -19 -10q-9 0 -19 2q-36 -45 -106 -128l-7 3q59 96 90 175zM660 818q2 -37 -16 -37q-13 0 -21 31q-22 78 -94 133l8 8q71 -44 96.5 -71.5t26.5 -63.5zM527 829q2 -11 2 -22q0 -33 -13 -33
q-11 0 -21 26q-33 91 -95 139l10 6q61 -43 76 -56q31 -28 41 -60z" />
  </g>

</svg>
