<?xml version="1.0" standalone="no"?>
<!DOCTYPE svg PUBLIC "-//W3C//DTD SVG 1.1//EN" "http://www.w3.org/Graphics/SVG/1.1/DTD/svg11.dtd" >
<svg xmlns="http://www.w3.org/2000/svg" xmlns:xlink="http://www.w3.org/1999/xlink" version="1.1" viewBox="0 -150 1000 1000">
  <g transform="matrix(1 0 0 -1 0 850)">
   <path fill="currentColor"
d="M567 976l76 -42q4 -3 3.5 -5.5t-5.5 -4.5q-18 1 -29 -7q-1 -2 -4 -7q-9 -19 -16 -29h241l29 37l63 -44q8 -6 6.5 -9t-12.5 -3h-238q20 -10 30 -21q35 -30 29 -65q-4 -17 -21 -20q-15 -2 -18.5 20.5t-8.5 36.5q-2 14 -16 30q-8 10 -20 19h-76q-44 -57 -111 -109l-13 11
q115 124 118 179q-3 13 -13 26zM209 982l75 -43q4 -3 3.5 -5.5t-5.5 -3.5q-20 1 -30 -8q-11 -21 -28 -42h192l29 37l64 -45q7 -6 6 -8.5t-12 -2.5h-184q3 -3 10 -7q12 -9 16 -13q34 -31 28 -65q-4 -17 -20 -19.5t-19.5 20t-8.5 36.5q-3 17 -15 30q-3 4 -11 11q-5 4 -8 7h-81
q-55 -70 -144 -139l-11 10q102 103 133 154t26 63q-2 14 -13 24zM605 453l4 9q111 -20 117 -77q0 -26 -15.5 -31t-22.5 20q-5 23 -23.5 42.5t-59.5 36.5zM607 602h158v115h-158v-115zM573 717h-159v-115h159v115zM380 717h-159v-115h159v115zM286 471l65 -40q6 -5 5.5 -8
t-7.5 -4q-21 1 -33 -11q-29 -39 -58 -71v-224l2 -53q3 -35 -50 -42q5 35 7 140v137q-76 -73 -146 -105l-6 11q54 44 94 81q30 30 83 94q45 57 43 65q-1 10 -9 21zM148 563q0 -13 -2 -48h716l25 29l54 -48q2 -5 -0.5 -7t-9.5 0q-30 5 -103 -81l-15 2l51 85h-719
q-3 -51 -31.5 -82t-50.5 -10q-12 15 8 33q27 25 36 41q17 23 27 86h14zM475 473l83 -25q8 -5 9 -8t-5 -5q-35 -8 -20 -46q3 -14 5 -23q2 -13 14 -47q2 -7 4 -12l231 31l20 37l67 -31q12 -6 9.5 -9t-19.5 -4l-301 -40q17 -39 43 -71q12 -16 26 -31l15 9q64 41 76 61
q9 13 -1 27l9 8l61 -44q6 -5 5.5 -8.5t-7.5 -4.5q-24 1 -33 -8q-50 -35 -98 -63q2 -2 5.5 -4.5t11.5 -9.5q75 -54 164 -75q41 -7 57 73l17 74l14 -3q-2 -14 -6 -37q-22 -123 -2 -128q13 -10 11 -17.5t-18 -10.5q-60 -5 -135 21q-44 15 -93 46q-38 23 -65 50q-43 -24 -70 -34
q-99 -42 -231 -66l-4 12q94 25 178 60q57 25 103 51l-4 6q-40 47 -60 88q-6 9 -11 23l-137 -19q-33 -7 -43 -22l-42 30l216 28q-5 13 -10 38q-1 2 -1 3q-8 28 -12 57q1 29 -34 68zM178 761l31 -26h538l38 35l44 -45q7 -4 5 -7.5t-11 -4.5l-18 -8v-92l3 -22q0 -31 -42 -31v24
h-545q0 -26 -47 -34q6 33 7 66v106q2 16 -15 25z" />
  </g>

</svg>
