<?xml version="1.0" standalone="no"?>
<!DOCTYPE svg PUBLIC "-//W3C//DTD SVG 1.1//EN" "http://www.w3.org/Graphics/SVG/1.1/DTD/svg11.dtd" >
<svg xmlns="http://www.w3.org/2000/svg" xmlns:xlink="http://www.w3.org/1999/xlink" version="1.1" viewBox="0 -205 1024 1024">
  <g transform="matrix(1 0 0 -1 0 819)">
   <path fill="currentColor"
d="M610 580q-7 88 -10 188q-1 98 -2 214l88 -28q12 -6 4 -14l-38 -16q-1 -91 2 -178q2 -88 10 -160l224 30l30 46l74 -44q12 -10 -6 -16l-318 -42q6 -74 18 -124q12 -48 28 -96q63 70 108 188l72 -44q7 -6 2 -12q-4 -6 -16 -8q-12 0 -20 -6q-6 -3 -18 -18q-9 -16 -36 -56
q-24 -38 -72 -88q17 -33 50 -74t78 -73t60 -34q12 0 18 39q3 41 10 128h20q-2 -60 0 -102q3 -41 6 -67q2 -26 16 -46q13 -16 8 -26q-5 -9 -34 -4q-29 4 -88 38q-57 33 -98 74q-39 38 -84 111q-64 -70 -178 -125q-112 -57 -214 -96l-8 14q105 49 210 113q105 62 168 134
q-28 72 -40 132q-12 59 -20 122l-518 -72q-21 -2 -36 -16l-34 36l584 78v0v0zM752 890q70 -36 104 -66q32 -28 34 -56q2 -27 -10 -38q-12 -13 -30 -8q-15 6 -20 30q-4 25 -22 56q-17 29 -64 68l8 14v0v0zM96 562q51 100 78 188q24 86 42 182l72 -20q9 -9 -2 -14
q-21 -6 -30 -30q-7 -24 -20 -66q68 -45 88 -72t20 -50q1 -21 -10 -32q-12 -9 -26 -6q-12 2 -18 28q-5 27 -16 54q-11 28 -46 62q-47 -143 -118 -232l-14 8v0v0zM336 576q38 78 64 166q24 86 40 182l74 -20q9 -9 -2 -14q-21 -6 -30 -30q-7 -24 -20 -66q72 -45 94 -72
q21 -27 22 -50q1 -21 -10 -32q-12 -9 -26 -6q-15 2 -20 28q-6 27 -20 54q-12 28 -48 62q-48 -138 -104 -210l-14 8v0v0z" />
  </g>

</svg>
