<?xml version="1.0" standalone="no"?>
<!DOCTYPE svg PUBLIC "-//W3C//DTD SVG 1.1//EN" "http://www.w3.org/Graphics/SVG/1.1/DTD/svg11.dtd" >
<svg xmlns="http://www.w3.org/2000/svg" xmlns:xlink="http://www.w3.org/1999/xlink" version="1.1" viewBox="0 -36 256 256">
  <g transform="matrix(1 0 0 -1 0 220)">
   <path fill="currentColor"
d="M129 227l14 -14l-9 -4q-20 -18 -46 -31l-2 3q27 21 43 46zM207 192l14 -18l-9 -1q-66 -32 -135 -35v4q81 11 130 50zM171 233v-28q0 -12 1 -25l-16 -6q1 19 1 36.5t-1 35.5l21 -7zM241 187.5q-2 -12.5 -14.5 2.5t-35.5 32l2 3q29 -12 39.5 -18.5t8.5 -19zM111 65h39v34
h-39v-34zM96 113l15 -8h38l7 10l15 -11l-7 -7v-28q0 -6 1 -16l-15 -6v11h-39v-10l-15 -5q1 16 1 35.5t-1 34.5zM187 30.5q10 -0.5 10 9.5v84h-96q-12 0 -21 -2l-10 9h147l13 12l17 -19h-35v-88q0 -21 -23 -28q-5 15 -33 21v4q21 -2 31 -2.5zM63 216.5q6 -8.5 1 -18t-11 3.5
t-23 30l1 3q26 -10 32 -18.5zM13 179q31 -11 33.5 -21t-3 -16t-10.5 6t-21 28zM39 85q7 4 33 109l5 -1q-20 -90 -24 -113t-2.5 -48t-9.5 -19.5t-7.5 22.5t3.5 28t-24 16v4q19 -2 26 2z" />
  </g>

</svg>
