<?xml version="1.0" standalone="no"?>
<!DOCTYPE svg PUBLIC "-//W3C//DTD SVG 1.1//EN" "http://www.w3.org/Graphics/SVG/1.1/DTD/svg11.dtd" >
<svg xmlns="http://www.w3.org/2000/svg" xmlns:xlink="http://www.w3.org/1999/xlink" version="1.1" viewBox="0 -205 1024 1024">
  <g transform="matrix(1 0 0 -1 0 819)">
   <path fill="currentColor"
d="M658 984l92 -32q2 -3 2 -6q3 -4 -2 -8l-42 -22v-84h168l40 46l56 -56q3 -3 4 -8q0 -13 -12 -10h-256v-102h158l30 36l58 -42q9 -6 10 -14q0 -4 -32 -28v-468l4 -123q0 -12 -18 -24q-18 -13 -36 -14v78h-374v-44q0 -12 -18 -24q-15 -9 -36 -12l4 145v574l58 -40h142v282v0
v0zM508 131h374v543h-374v-543v0v0zM692 464q40 72 80 178l68 -38q3 -12 -2 -12q-7 -1 -22 -8q-16 -5 -28 -34q-13 -27 -64 -116q63 -72 88 -108q24 -36 28 -62q3 -28 -8 -40q-12 -13 -26 -10q-13 2 -26 38q-12 36 -26 64q-13 27 -52 84q-28 -45 -70 -104q-42 -60 -102 -114
l-12 12q44 58 82 116q39 57 72 120q-70 80 -148 152l10 12q82 -55 158 -130v0v0zM616 648l8 10q54 -27 72 -48q17 -18 20 -36q0 -18 -8 -30q-9 -13 -26 -10q-15 2 -18 22q-3 18 -12 40q-6 21 -36 52v0v0zM770 482l8 10q48 -30 64 -50q15 -18 18 -36q0 -18 -8 -30
q-9 -13 -24 -10q-15 2 -18 22q-4 18 -10 40q-6 21 -30 54v0v0zM524 476l10 8q46 -31 62 -52q14 -21 16 -38q0 -18 -8 -30q-9 -14 -26 -12q-18 3 -18 24q-1 20 -8 44q-5 22 -28 56v0v0zM662 316l10 8q39 -27 54 -48q14 -21 16 -38q0 -18 -8 -30q-9 -14 -26 -12q-16 3 -16 24
q-1 20 -8 44q-5 21 -22 52v0v0zM136 684h164l36 42l56 -52q7 -12 -4 -18h-128v-146h70l30 44l58 -52q12 -12 -2 -20h-156v-286l178 38l8 -18q-133 -37 -196 -56q-64 -18 -110 -35q-44 -17 -64 -38l-44 67l182 34v294h-94q-18 0 -54 -8l-18 36h166v146h-36l-20 -6l-22 34v0v0
zM62 424l10 10q54 -42 78 -66q21 -23 28 -52q6 -27 -8 -42q-13 -13 -28 -8q-14 4 -16 26q0 20 -14 52q-15 29 -50 80v0v0zM270 258q66 105 96 192l64 -38q4 -9 -4 -12q-6 -4 -18 -4q-10 0 -38 -42q-28 -40 -86 -106l-14 10v0v0zM12 584q56 84 110 174q53 90 110 220l70 -30
q3 -6 -2 -12q-4 -3 -14 -6t-26 -26q67 -31 104 -56q35 -24 46 -44q11 -22 2 -40q-10 -19 -26 -16q-15 2 -30 26q-12 24 -36 52q-21 28 -72 62q-39 -73 -102 -166q-64 -94 -122 -148l-12 10v0v0z" />
  </g>

</svg>
