<?xml version="1.0" standalone="no"?>
<!DOCTYPE svg PUBLIC "-//W3C//DTD SVG 1.1//EN" "http://www.w3.org/Graphics/SVG/1.1/DTD/svg11.dtd" >
<svg xmlns="http://www.w3.org/2000/svg" xmlns:xlink="http://www.w3.org/1999/xlink" version="1.1" viewBox="0 -205 1024 1024">
  <g transform="matrix(1 0 0 -1 0 819)">
   <path fill="currentColor"
d="M622 806l78 -24q3 -2 4 -4q0 -4 -6 -10l-26 -14v-52h130l30 38l52 -36q7 -6 8 -12q0 -6 -30 -24v-92h36l38 46l56 -58q1 0 2 -6l-4 -8h-128v-58l4 -62q0 -15 -18 -26q-16 -10 -34 -10v34h-142v-58q-1 -12 -16 -20q-16 -7 -34 -8v86h-98q-25 0 -46 -8l-26 34h170v96h-108
q-31 0 -56 -8l-20 34h184v98h-100q-24 0 -42 -8l-22 34h164v106v0v0zM672 550v-96h142v96h-142v0v0zM672 676v-100h142v100h-142v0v0zM472 362l56 -36h262l22 34l56 -36q12 -6 12 -14q0 -6 -30 -30v-141l4 -76q0 -10 -18 -20q-15 -9 -36 -10v56h-278v-36q0 -10 -18 -24
q-18 -12 -36 -12l4 114v231v0v0zM522 115h278v185h-278v-185v0v0zM862 840l38 48l64 -60l2 -6q0 -7 -8 -8h-532v-230q1 -240 -40 -368q-42 -125 -140 -201l-10 14q76 81 110 195q36 111 30 336v322l60 -42h426v0v0zM576 976l8 12q57 -24 90 -48q32 -23 34 -46q3 -22 -8 -34
q-11 -13 -28 -10q-17 2 -22 26q-4 24 -22 48q-17 24 -52 52v0v0zM96 924l6 14q50 -15 88 -30q36 -15 54 -32q15 -15 18 -36q3 -22 -8 -34q-12 -13 -26 -14q-16 0 -22 16q-6 15 -14 34q-9 15 -26 30q-16 15 -70 52v0v0zM44 702l6 16q42 -13 78 -28q35 -16 52 -34
q17 -19 20 -40q1 -20 -10 -34q-12 -15 -26 -12q-15 0 -20 16q-6 15 -12 34q-6 18 -30 40q-20 18 -58 42v0v0zM188 416q-18 -54 -44 -60q-25 -7 -100 -2l-2 -20q52 -7 80 -16q27 -9 34 -20q8 -9 10 -38q0 -30 -8 -84q-10 -54 -8 -81q1 -27 20 -36q18 -9 34 2q15 10 18 34
q3 25 -6 83q-7 57 -8 94q-1 36 8 66q6 27 12 58l134 442l-20 8l-154 -430v0v0z" />
  </g>

</svg>
