<?xml version="1.0" standalone="no"?>
<!DOCTYPE svg PUBLIC "-//W3C//DTD SVG 1.1//EN" "http://www.w3.org/Graphics/SVG/1.1/DTD/svg11.dtd" >
<svg xmlns="http://www.w3.org/2000/svg" xmlns:xlink="http://www.w3.org/1999/xlink" version="1.1" viewBox="0 -36 256 256">
  <g transform="matrix(1 0 0 -1 0 220)">
   <path fill="currentColor"
d="M34 212v-123h26v123h-26zM21 84v97q0 25 -1 47l15 -9h24l8 10l15 -14l-8 -8v-110q0 -17 1 -35l-15 -8v28h-26v-23l-14 -7q1 16 1 32zM224 180q0 -23 1 -32l-14 -6v8h-95v-4l-15 -6q1 26 1 50t-1 51l15 -8h94l8 9l14 -14l-8 -5v-43zM116 196h41v30h-41v-30zM170 196h41v30
h-41v-30zM116 157h41v32h-41v-32zM170 157h41v32h-41v-32zM169 138.5q4 -4.5 3 -10t-5 -8t-9 7t-17 17.5l1 4q23 -6 27 -10.5zM134 81v-53l38 18l2 -3q-39 -25 -47 -36l-10 12q4 5 4 17v34q-25 -22 -56 -35l-1 4q33 20 53 42.5t24 30.5h-33q-11 0 -20 -2l-9 9h135l14 11
l18 -18h-86l-5 -7q12 -19 28 -35q7 6 17.5 16.5t13.5 17.5l15 -14q-9 -4 -42 -25q27 -25 59 -31v-3q-15 -3 -21 -12q-17 10 -30.5 21.5t-24 27t-19.5 33.5q-7 -8 -17 -20z" />
  </g>

</svg>
