<?xml version="1.0" standalone="no"?>
<!DOCTYPE svg PUBLIC "-//W3C//DTD SVG 1.1//EN" "http://www.w3.org/Graphics/SVG/1.1/DTD/svg11.dtd" >
<svg xmlns="http://www.w3.org/2000/svg" xmlns:xlink="http://www.w3.org/1999/xlink" version="1.1" viewBox="0 -154 1024 1024">
  <g transform="matrix(1 0 0 -1 0 870)">
   <path fill="currentColor"
d="M380 785h318q23 46 50 101t29 70q-3 14 -10 31l8 8l69 -31q16 -14 7 -18q-22 1 -37 -19q-49 -82 -90 -142h140l32 36l69 -48q15 -9 -6 -8h-215v-123h89l33 31l44 -41q12 -9 -4 -13l-21 -10v-115h44l27 33l57 -42q11 -12 -8 -12h-120v-80l4 -76q-1 -21 -12 -29
q-12 -8 -28 -8v45h-345q-27 0 -45 -15l-34 35h134v128h-110q-27 1 -45 -15l-35 36h190v128h-68q-18 3 -38 -15l-35 35h141v123h-99q-28 0 -48 -14zM131 621l20 -24q0 1 1 2q40 133 55 272h-86q-27 1 -45 -13l-34 33h276l31 40l64 -46q22 -16 -11 -14h-154q-15 -151 -67 -292
h115l29 35l46 -43q14 -12 -6 -17l-18 -9v-280l4 -77q7 -42 -44 -44v56h-133v-69q3 -39 -47 -46q5 39 7 132v252q-40 -78 -95 -143l-10 8q65 103 105 212v7q-4 46 -18 56zM174 219h133v340h-133v-340zM595 473v-128h113v128h-113zM595 622v-128h113v128h-113zM595 765v-123
h113v123h-113zM744 473v-128h105v128h-105zM849 622h-105v-128h105v128zM467 257q3 -128 -32 -171q-18 -29 -45 -40q-27 -12 -38 9q-11 23 23 44q34 22 52 60t23 98h17zM842 253l6 11q119 -75 133 -146q11 -72 -27 -69q-16 4 -17 39q-1 34 -24 81q-22 44 -71 84zM462 978
l11 8q48 -30 83 -62q34 -31 43 -58t1 -45q-10 -18 -23 -15q-14 3 -21 32q-8 27 -28 59q-19 32 -66 81zM682 257l8 11q87 -63 98 -134q8 -71 -30 -65q-18 4 -15 42t-13 77q-15 40 -48 69zM553 246l8 11q92 -122 43 -186q-15 -17 -31 -9t-5 39t11 66q0 34 -26 79z" />
  </g>

</svg>
