<?xml version="1.0" standalone="no"?>
<!DOCTYPE svg PUBLIC "-//W3C//DTD SVG 1.1//EN" "http://www.w3.org/Graphics/SVG/1.1/DTD/svg11.dtd" >
<svg xmlns="http://www.w3.org/2000/svg" xmlns:xlink="http://www.w3.org/1999/xlink" version="1.1" viewBox="0 -52 256 256">
  <g transform="matrix(1 0 0 -1 0 204)">
   <path fill="currentColor"
d="M39 127l6 -6h54v20h-41q0 -6 -3 -8q-3 -3 -9 -4q2 11 2 26v18v1q-17 -7 -38 -12l-1 3q43 14 77 43q1 1 4 2l3 3h-57q-5 1 -11 -3l-9 8h82q6 7 10 13q9 11 8 14q1 3 -2 6l3 1l16 -8l3 -2q0 -1 -2 -2q-2 0 -6 -1q2 1 -2 -1q-6 -11 -15 -20h102l8 10l17 -12q2 -2 1 -2
q0 -1 -3 -1h-76q2 -1 5 -4q7 -6 10 -8q16 -13 38 -20q12 -3 27 -5h6v-4q-15 0 -16 -9q-12 3 -22 7h-3l-4 -3v-14l1 -10q2 -10 -11 -11v9h-39v-20h46l9 8l10 -11q2 -1 1 -2l-3 -1l-3 -2v-45l1 -11q2 -10 -11 -12v12h-50v-27h2h47q12 1 14 2q13 2 14 9q2 13 3 43h4
q1 -27 1 -36q0 -7 8 -11q-6 -13 -21 -15q-6 -2 -67 -3q-24 0 -37 3q-22 2 -21 31v4h-50v-6q1 -10 -12 -11q2 10 2 35v41q0 6 -4 8zM58 145h39l6 7l11 -8q2 -2 0 -3l-5 -2v-86q0 -14 5 -17q4 -6 27 -6v112q0 8 -1 11l3 1l7 -9h41v26h-133v-26zM100 207q-18 -17 -46 -31l2 -1
h133l2 4q-4 2 -12 8q-4 3 -6 4q-12 10 -20 22h-46q-4 -3 -7 -6zM99 89h-50v-27h50v27zM202 88h-50v-26h50v26zM152 92h50v25h-50v-25zM99 117h-50v-24h50v24z" />
  </g>

</svg>
