<?xml version="1.0" standalone="no"?>
<!DOCTYPE svg PUBLIC "-//W3C//DTD SVG 1.1//EN" "http://www.w3.org/Graphics/SVG/1.1/DTD/svg11.dtd" >
<svg xmlns="http://www.w3.org/2000/svg" xmlns:xlink="http://www.w3.org/1999/xlink" version="1.1" viewBox="0 -339 2048 2048">
  <g transform="matrix(1 0 0 -1 0 1709)">
   <path fill="currentColor"
d="M1142 1695h576l98 102l121 -107q13 -12 15 -16t2 -10q0 -9 -6 -16q-8 -10 -21 -10l-807 -2q-61 -103 -91 -144q-37 -49 -118 -129l-31 27q41 51 66 92q75 126 117 276q16 58 38 165l148 -49q19 -7 29 -17q7 -8 7 -16q0 -10 -7 -17q-10 -9 -27 -11l-66 -8
q-23 -56 -43 -110zM1313 1260q67 -43 123 -91q24 -20 37.5 -34.5t24.5 -31.5q23 -35 23 -65q0 -28 -23 -46q-16 -13 -33 -13q-15 0 -28 14q-11 12 -15 25l-11 38q-15 49 -51 100q-19 27 -40 48q-10 11 -32 30zM1290 769q69 -45 124 -92q40 -35 59 -63q22 -34 22 -68
q0 -30 -19 -46q-13 -11 -31 -11q-22 0 -36 16q-8 9 -20 56t-52 104q-19 27 -40 48q-10 10 -32 29zM1770 916h15l80 81l114 -86q17 -13 17 -26q0 -9 -6 -16q-8 -10 -21 -10h-203q-4 -58 -17 -242q-4 -63 -21 -187h49l93 90l107 -86q17 -13 21 -21q5 -8 5 -15q0 -11 -8 -17
q-7 -7 -18 -7h-258q-23 -96 -34 -126q-9 -27 -19 -45t-25 -38q-50 -61 -133 -90q-34 -11 -84 -19q0 37 -6 52q-11 29 -53 47q-31 14 -64 23q-71 20 -106 30l9 40q44 -11 87 -20q93 -20 119 -25q36 -6 69 -6q31 0 51 7t33 23q16 19 28 52q9 24 29 97l-582 -2q-13 -6 -20 -8
q-13 -4 -29 -4q-22 0 -35 8q-8 4 -8 14q0 6 3 23l10 67l58 363l3 22l-18 1q-16 1 -79 -9l-41 73q78 -8 111 -8h35l46 398l5 39q4 36 5 58q1 24 1 47l110 -68h478l72 86l86 -57q37 -25 43 -37q4 -6 4 -12q0 -18 -16 -32q-10 -9 -24.5 -17.5t-48.5 -25.5q-5 -130 -19 -379z
M1674 916l6 126l8 162q2 43 4 129h-524l-49 -417h555zM1670 859h-557l-58 -429h574q11 66 22 175q13 136 19 254zM323 1167l64 -39h282l57 74l72 -50q28 -19 35 -31q5 -9 5 -17q0 -14 -10 -24q-12 -11 -31 -21q-12 -6 -28 -13v-651l37 -26q28 -20 28 -39q0 -21 -24 -21h-453
v-65q0 -17 -9 -29q-8 -10 -28 -15q-15 -4 -30 -4q-22 0 -22 26v834q-27 -53 -52 -94q-57 -93 -85 -133q-15 -23 -50 -64l-24 22q41 71 70 132q62 130 115 272q21 56 39.5 129.5t39.5 182.5q14 72 18 113q2 18 5 49h-93q-38 0 -98 -5q-18 -1 -51 -6l-39 86q123 -18 188 -18
h406l97 101l116 -90q23 -19 28 -26q4 -8 4 -15q0 -9 -5 -16q-9 -11 -23 -11h-424q-24 -135 -32 -176.5t-19 -85.5q-23 -92 -76 -236zM356 367h317v705h-317v-705z" />
  </g>

</svg>
