<?xml version="1.0" standalone="no"?>
<!DOCTYPE svg PUBLIC "-//W3C//DTD SVG 1.1//EN" "http://www.w3.org/Graphics/SVG/1.1/DTD/svg11.dtd" >
<svg xmlns="http://www.w3.org/2000/svg" xmlns:xlink="http://www.w3.org/1999/xlink" version="1.1" viewBox="0 -36 256 256">
  <g transform="matrix(1 0 0 -1 0 220)">
   <path fill="currentColor"
d="M30 63l-7 -9l-10 12l6 5q0 103 -1 125l19 -12l-7 -7v-107h13q0 158 -1 175l17 -10l-5 -7v-158h14q0 104 -1 125l18 -12l-6 -7v-66q0 -25 1 -49l-12 -8v10h-38zM86 163l-3 3q10 16 21 38t12 37l18 -11q-6 -2 -19 -27h28l7 10l15 -14q-6 0 -15 -11.5t-15 -19.5h17l8 10
l11 -13l-6 -5q0 -51 1 -77l-13 -6v9h-48v-6l-13 -6q1 22 1 99zM143 196h-31l-17 -21l10 -7h25zM105 131h19v30h-19v-30zM135 131h18v30h-18v-30zM105 93h19v31h-19v-31zM135 93h18v31h-18v-31zM198.5 213q2.5 -8 -3.5 -17t-9 5.5t-14 30.5l2 3q22 -14 24.5 -22zM214 17
l-14 -6q1 48 1 76q-14 0 -25 -3l-9 10h34v38v-1q-9 0 -20 -3l-9 10h29v41v-1q-13 0 -24 -2l-9 9h42q10 32 15 57l17 -10q-7 -7 -27 -47h7l10 10l15 -17h-34v-40h8l11 10l14 -17h-33v-37h9l11 10l15 -17h-35q0 -42 1 -70zM97 66q1 -26 -3 -36t-10.5 -11.5t-7.5 3.5t5.5 13
t12.5 31h3zM108 69q9 -12 12.5 -20.5t1.5 -17.5t-6 -9.5t-5 13.5t-5 32zM131 68q9 -9 13.5 -15.5t4.5 -15t-4.5 -13t-6.5 8.5t-8 32zM155 70q14 -12 19.5 -20t4 -14.5t-6 -10.5t-6.5 9t-13 33z" />
  </g>

</svg>
