<?xml version="1.0" standalone="no"?>
<!DOCTYPE svg PUBLIC "-//W3C//DTD SVG 1.1//EN" "http://www.w3.org/Graphics/SVG/1.1/DTD/svg11.dtd" >
<svg xmlns="http://www.w3.org/2000/svg" xmlns:xlink="http://www.w3.org/1999/xlink" version="1.1" viewBox="0 -52 256 256">
  <g transform="matrix(1 0 0 -1 0 204)">
   <path fill="currentColor"
d="M98 248l16 -10q4 -2 2 -3q-6 0 -9 -4q-9 -12 -27 -37h15l9 11l13 -13q2 -2 1 -2q0 -1 -3 -2l-4 -2v-47l1 -12q2 -10 -13 -11v12h-10v-82q16 9 44 25l2 -4q-5 -4 -18 -12q-9 -6 -14 -10q-11 -7 -14 -10q-4 -4 -7 -10l-12 14q5 1 7 5v84h-19q1 -81 -53 -117l-3 2
q48 44 45 115h-13v-5q0 -9 -14 -12q2 10 2 28v53q-1 6 -4 10l3 3l10 -11h44l13 25q10 18 10 21q0 1 -1 5q1 -2 -1 2zM34 133h65v56h-65v-56zM26 245q13 -6 22 -16q10 -10 11 -18q1 -9 -5 -12t-6 6q-1 8 -7 19q-7 10 -17 19zM169 253l22 -9q4 -1 2 -3q-5 -2 -8 -5v-36h36
l8 10l17 -13q4 -2 -2 -2h-59v-49h30l8 10l17 -12l2 -2q0 -1 -3 -1h-54v-50h41l8 10l17 -13q4 -2 -2 -2h-64v-48l1 -18q0 -10 -14 -11q2 9 2 38v39h-41q-7 0 -12 -4l-8 9h61v50h-29q-6 0 -11 -3l-9 8h49v49h-35q-7 0 -12 -4l-8 9h55v38q1 5 -8 12z" />
  </g>

</svg>
