<?xml version="1.0" standalone="no"?>
<!DOCTYPE svg PUBLIC "-//W3C//DTD SVG 1.1//EN" "http://www.w3.org/Graphics/SVG/1.1/DTD/svg11.dtd" >
<svg xmlns="http://www.w3.org/2000/svg" xmlns:xlink="http://www.w3.org/1999/xlink" version="1.1" viewBox="0 -36 256 256">
  <g transform="matrix(1 0 0 -1 0 220)">
   <path fill="currentColor"
d="M75 200.5q4 -6.5 -3 -13t-10 3t-15 23.5l2 2q22 -9 26 -15.5zM132 204q4 -7 -3.5 -13.5t-9 4.5t-11.5 25l3 1q17 -10 21 -17zM162 189l-3 3q5 4 13.5 14.5t13.5 21.5l18 -12l-9 -3q-20 -17 -33 -24zM142.5 233q50.5 7 61.5 13l17 -18q-37 -1 -77.5 -5t-116.5 -6v5
q65 4 115.5 11zM243.5 35q0.5 -16 1.5 -28q-18 7 -30.5 25t-16.5 41.5t-3 56.5h-137q0 -44 -7.5 -72t-38.5 -52l-2 3q19 20 25.5 42t8 46t-0.5 49l16 -9h135l8 10l15 -14l-8 -7q-2 -43 6.5 -65t18.5 -31l7 39l3 -1q-1 -17 -0.5 -33zM89 87q-11 0 -20 -2l-9 9h60q0 16 -1 33
l21 -10l-7 -7v-16h33l13 11l15 -18h-61v-22h28l7 7l14 -12l-7 -6q0 -20 1 -36l-15 -5v9h-69v-7l-15 -5q1 18 1 31t-1 30l15 -6h28v22h-31zM92 29h69v29h-69v-29zM83 153q4 -6 -3 -13t-10 3t-17 24l3 2q23 -10 27 -16zM133 154.5q4 -6.5 -4 -13t-9 4.5t-11 25l3 1
q17 -11 21 -17.5zM158 135l-3 3q7 8 15.5 18.5t14.5 23.5l18 -13l-8 -4q-21 -16 -37 -28zM139 186.5q47 5.5 58 10.5l15 -17q-28 0 -68 -3t-102 -5v6q50 3 97 8.5z" />
  </g>

</svg>
