<?xml version="1.0" standalone="no"?>
<!DOCTYPE svg PUBLIC "-//W3C//DTD SVG 1.1//EN" "http://www.w3.org/Graphics/SVG/1.1/DTD/svg11.dtd" >
<svg xmlns="http://www.w3.org/2000/svg" xmlns:xlink="http://www.w3.org/1999/xlink" version="1.1" viewBox="0 -205 1024 1024">
  <g transform="matrix(1 0 0 -1 0 819)">
   <path fill="currentColor"
d="M92 854h760l40 52l64 -60q3 -3 4 -8q0 -12 -12 -12h-304v-707h222l44 55l68 -63q3 -4 4 -8q3 -12 -8 -12h-838q-21 1 -68 -8l-22 36h344v707h-214q-21 0 -68 -8l-16 36v0v0zM442 119h150v707h-150v-707v0v0zM152 666l16 6q92 -138 116 -218q25 -79 20 -116
q-6 -36 -20 -48q-15 -12 -30 -2q-16 9 -16 60t-12 120t-74 198v0v0zM676 272q119 256 164 416q80 -40 82 -46q1 -7 -4 -10q-3 -3 -20 -8q-15 -3 -48 -72q-31 -69 -154 -290l-20 10v0v0z" />
  </g>

</svg>
