<?xml version="1.0" standalone="no"?>
<!DOCTYPE svg PUBLIC "-//W3C//DTD SVG 1.1//EN" "http://www.w3.org/Graphics/SVG/1.1/DTD/svg11.dtd" >
<svg xmlns="http://www.w3.org/2000/svg" xmlns:xlink="http://www.w3.org/1999/xlink" version="1.1" viewBox="0 -154 1024 1024">
  <g transform="matrix(1 0 0 -1 0 870)">
   <path fill="currentColor"
d="M203 1002l58 -26q14 -9 3 -13q-10 1 -24 -8q-19 -33 -54 -75h150l25 29l40 -35q14 -8 -2 -15l-18 -9v-167l5 -52q-3 -30 -43 -36v41h-217v-97h260l26 36l56 -44q12 -8 -6 -8h-336v-90h249l24 35l44 -34q18 -12 0 -19l-20 -13v-109q2 -103 -8 -146t-31 -68t-99 -41
q-1 43 -45 45q-20 4 -77 11l4 16q106 -18 124 -18q17 -1 39 2q51 1 55 177v146h-259v-6q1 -44 -47 -48q5 37 7 76v427q-3 19 -20 36l12 11l31 -33h54l24 42q25 45 21 52q-3 7 -13 21zM517 967l41 -31h290l34 35l40 -43q14 -8 -6 -13l-18 -9v-117l4 -66q-10 -21 -40 -20v33
h-300v-3q4 -27 -44 -36q5 37 7 124v103q-3 19 -17 35zM887 555l61 -24q14 -6 6 -11q-18 -6 -24 -21v-17l4 -24q0 -22 -13 -31q-12 -11 -25 -15v34h-95q21 -28 46 -46q70 -51 105 -62q17 -5 58 -11l-2 -14q-42 1 -54 -22q-114 48 -178 155h-135q-84 -132 -200 -181l-8 12
q106 63 164 169h-68l-17 -22l-36 28q15 7 20 29v44q3 15 -15 31l5 7l66 -24q18 -6 9 -12q-23 -5 -31 -18v-45h165v105h-138l-17 -16l-37 28q15 7 20 28v43q3 15 -15 31l5 7l66 -24q16 -6 7 -12q-20 -4 -29 -19v-48h138v88q2 15 -25 42l8 11l74 -34q14 -6 6 -11
q-18 -6 -27 -18v-78h138v52q1 15 -23 34l9 12l66 -22q14 -6 6 -11q-15 -9 -24 -22v-6l4 -31q0 -22 -12 -31q-11 -11 -26 -15v22h-138v-105h165v45q2 15 -18 34zM826 337l46 -29q15 -8 5 -15q-13 0 -23 -1q-34 -35 -75 -64q145 -51 149 -116q-1 -20 -16 -21q-13 -2 -24 22
q-32 55 -154 117v-136q-5 -46 -23 -58t-49 -14q4 37 -98 57l2 12l40 -8q54 -11 74 -6q20 4 21 48v245q-1 22 -25 45l8 11l74 -37q19 -8 7 -14q-18 -5 -31 -16v-113q15 -4 31 -12q17 20 38 47q22 27 25 34q1 7 -7 16zM862 830h-300v-78h300v78zM562 844h300v76h-300v-76z
M126 762h217v102h-217v-102zM343 748h-217v-96h217v96zM651 197q-96 -54 -113 -69q-11 -10 -25 -32l-45 34l224 110l6 -14zM89 325q-1 -81 -6 -108q-4 -27 -13 -49q-26 -42 -48 -15q-5 12 11 29t25 46q10 30 14 97h17zM118 332l10 6q61 -77 47 -129q-5 -23 -19 -22
q-13 0 -12 29q3 42 -2 62q-6 20 -24 54zM260 375l8 8q77 -40 89 -83q11 -43 -10 -48q-13 -1 -16 22t-17 47q-13 24 -54 54zM180 347l6 10q82 -52 80 -109q0 -27 -14 -30q-13 -3 -15 24q4 49 -57 105zM554 319l5 9q65 -19 85 -54q14 -41 -12 -46q-10 2 -15 20q-19 37 -63 71z
" />
  </g>

</svg>
