<?xml version="1.0" standalone="no"?>
<!DOCTYPE svg PUBLIC "-//W3C//DTD SVG 1.1//EN" "http://www.w3.org/Graphics/SVG/1.1/DTD/svg11.dtd" >
<svg xmlns="http://www.w3.org/2000/svg" xmlns:xlink="http://www.w3.org/1999/xlink" version="1.1" viewBox="0 -52 256 256">
  <g transform="matrix(1 0 0 -1 0 204)">
   <path fill="currentColor"
d="M101 208v-174q0 -5 -3 -11q-3 -5 -17 -7q-1 8 -12 11q-4 1 -12 2q-5 2 -8 2v4q6 -1 15 -2q14 -3 18 -3q6 0 7 2q2 2 2 16v84h-45q1 -90 -33 -119l-3 2q27 37 26 117h-10q-7 0 -11 -3l-9 8h30v75q-1 6 -7 11l3 2l11 -10h8l7 14q6 12 6 15l-1 2t-2 3l3 1l14 -7q4 -3 2 -4
q-4 0 -7 -1q-2 -4 -7 -11q-5 -8 -8 -12h29l7 11l12 -10q2 -1 2 -3q0 -1 -2 -2zM46 164q2 -13 0 -27h45v73h-45v-46zM173 115l21 -8q3 -1 1 -3q-4 -1 -7 -4v-33h28l8 10l18 -13q4 -2 -2 -2h-52v-37h34l7 10l20 -12q3 -2 2 -2q0 -1 -5 -1h-119q-6 0 -10 -4l-9 9h25v53
q0 4 -7 11l2 2l20 -8q2 -1 2 -2l-1 -1q-3 -1 -6 -5v-50h34v77q0 4 -6 11zM172 250l21 -8q3 -1 1 -3q-4 -1 -7 -5v-26h28l8 10l18 -13q4 -2 -2 -2h-52v-39h34l7 11l20 -12q3 -2 2 -3q0 -1 -5 -1h-115q-7 0 -11 -3l-9 8h23v48q0 4 -6 11l2 3l19 -9q4 -1 2 -3q-4 -1 -6 -4v-46
h32v73q0 4 -6 10zM129 147v-11h99l9 10l14 -14q1 -1 1 -2q-1 -1 -3 -1q-5 0 -8 -2q-13 -13 -19 -21l-3 2l12 23h-102v-5q0 -24 -12 -28q-5 -2 -8 2q-3 5 2 9q3 2 7 7q1 2 2 3q3 7 5 28h4zM54 190l1 2q24 -13 22 -31q0 -7 -5 -8q-5 1 -5 7q0 8 -2 15q-2 6 -11 15zM54 109l1 3
q23 -13 22 -31q0 -8 -5 -8t-5 7q0 4 -2 12q2 -5 0 2q-2 8 -11 15z" />
  </g>

</svg>
