<?xml version="1.0" standalone="no"?>
<!DOCTYPE svg PUBLIC "-//W3C//DTD SVG 1.1//EN" "http://www.w3.org/Graphics/SVG/1.1/DTD/svg11.dtd" >
<svg xmlns="http://www.w3.org/2000/svg" xmlns:xlink="http://www.w3.org/1999/xlink" version="1.1" viewBox="0 -205 1024 1024">
  <g transform="matrix(1 0 0 -1 0 819)">
   <path fill="currentColor"
d="M64 894h762l44 50l62 -56q3 -3 4 -8q0 -12 -12 -12h-414l-76 -114h350l30 40l58 -36q8 -6 8 -12t-24 -24v-170q1 -40 -12 -58q-12 -18 -56 -36q-9 33 -36 46q-25 9 -70 22l4 18q70 -19 98 -16q27 -1 24 32v166h-178v-86l4 -72q3 -12 -18 -26q-19 -13 -38 -14l4 110v90
h-158v-100l4 -62q-1 -13 -22 -26q-19 -13 -34 -14l4 92v110h-156v-158l4 -56q0 -12 -20 -30q-21 -15 -36 -14l4 92v234l54 -42h186l38 114h-302q-21 0 -68 -8l-16 34v0v0zM516 492q5 -6 2 -12q-3 -4 -24 -8q-19 -2 -70 -76h456l34 50l62 -56q5 -4 8 -10q2 -10 -10 -10h-258
q-42 -94 -114 -172q89 -24 158 -54q69 -27 90 -51q20 -23 20 -44t-18 -24q-15 -4 -44 22q-28 24 -94 60q-67 36 -142 63q-113 -82 -226 -113q-112 -27 -280 -42l-2 16q168 24 262 56q92 33 200 101q-163 42 -244 60q38 62 76 122h-200q-21 0 -68 -12l-16 38h298
q50 81 70 130l74 -34v0v0zM334 262q108 -21 220 -48q62 63 106 156h-250l-76 -108v0v0z" />
  </g>

</svg>
