<?xml version="1.0" standalone="no"?>
<!DOCTYPE svg PUBLIC "-//W3C//DTD SVG 1.1//EN" "http://www.w3.org/Graphics/SVG/1.1/DTD/svg11.dtd" >
<svg xmlns="http://www.w3.org/2000/svg" xmlns:xlink="http://www.w3.org/1999/xlink" version="1.1" viewBox="0 -339 2048 2048">
  <g transform="matrix(1 0 0 -1 0 1709)">
   <path fill="currentColor"
d="M1666 1495q27 -20 127 -91q29 -21 64 -56q47 -46 72 -93q16 -29 16 -63q0 -36 -24 -55q-12 -9 -27 -9q-19 0 -36 16q-17 17 -38 68q-25 63 -44 95q-23 40 -61 81q-15 16 -49 52v-301l2 -44l2 -47l4 -51l1 -23l2 -28q1 -17 1 -19q0 -28 -21 -41q-16 -11 -41 -11
q-30 0 -40 13q-6 9 -6 20v536q-116 -211 -284 -352l-23 24q88 112 150 225q42 77 73 152q14 34 31 84l-43 -2q-43 -1 -61 -2q-20 -2 -50 -6l-40 86q55 -8 69 -10q11 -1 70 -6l27 -2l81 1v126q0 39 -3 121q-1 21 -4 38l108 -24q61 -13 73 -22q13 -10 13 -23q0 -26 -50 -41
l-41 -12v-163h100l90 85l107 -83q24 -19 24 -37q0 -7 -7 -15q-8 -10 -23 -10h-291v-81zM860 1426q-22 -40 -42 -69q-23 -34 -69 -91l-33 33q53 90 80 152q38 87 81 233q19 68 38 185q6 35 9 68l148 -41q20 -6 29 -19q4 -7 4 -11q0 -12 -11 -21q-12 -11 -29 -15l-45 -12
q-9 -29 -21 -65l-8 -27h179l61 72l72 -49q42 -29 42 -50q0 -11 -9 -19q-9 -9 -29 -19q-10 -4 -27 -14q-31 -144 -55 -230q-39 -141 -79 -220q-74 -144 -212 -259q-47 -39 -94 -70q-21 -15 -63 -40l-27 34q66 50 100 80q126 111 207 263q-13 -6 -21 -6q-11 0 -23 11
q-12 12 -28 48q-16 40 -30 60q-13 20 -39 50q-15 18 -56 58zM882 1466q59 -36 111 -75q53 -40 77 -81q10 -18 14 -43q16 44 29 89q36 126 54 219q5 31 15 92h-211q-39 -102 -89 -201zM1193 503q114 -31 191 -55q125 -39 171.5 -54.5t81.5 -29.5q91 -37 161 -78
q69 -40 101 -76q39 -45 39 -86q0 -19 -13 -35q-15 -19 -37 -19q-26 0 -58 23q-7 5 -86 75q-38 34 -124 89q-82 54 -157 91q-39 19 -102 44q-123 49 -180 73zM1054 685h648l102 109l140 -114q13 -11 15 -16t2 -10q0 -9 -6 -16q-9 -10 -22 -10h-897q-23 -65 -48 -109
q-69 -119 -205 -217q-116 -82 -260 -135q-114 -41 -278 -76q-36 -8 -108 -22l-6 41q106 27 179 51q149 50 275 116q109 57 197 143q80 78 122 159q9 18 22 49h-568q-84 0 -172 -7q-7 0 -20 -1l-38 87q93 -22 230 -22h587q11 46 17 86q6 49 9 138l164 -35q16 -4 23 -16
q3 -5 3 -9q-1 -10 -8 -18q-8 -8 -18 -12l-56 -21q-12 -63 -25 -113zM127 1565l-39 86q44 -6 87 -11q38 -4 51 -4h36h141v126q0 31 -4 121q-1 22 -4 38l109 -24q59 -13 72 -23t13 -22q0 -11 -9 -21q-13 -13 -40 -21l-40 -11v-163h65l87 85l110 -91q15 -12 15 -28
q0 -12 -9 -19q-8 -7 -19 -7h-249v-115q37 -25 55 -37q83 -55 111 -83q43 -44 55 -90q4 -14 4 -25q0 -20 -10 -36q-13 -19 -37 -19q-18 0 -33 13q-14 12 -33 55q-21 49 -51 88q-18 23 -61 72v-270l2 -44l2 -47l4 -52l1 -22l2 -28q1 -17 1 -19q0 -29 -21 -42q-16 -10 -41 -10
q-32 0 -41 13q-6 9 -6 19v521q-24 -55 -47 -98q-61 -111 -122 -191q-37 -49 -102 -117l-28 24q44 66 73 116q65 115 112 230q31 77 50 139q5 18 15 55h-78q-32 0 -98 -5z" />
  </g>

</svg>
