<?xml version="1.0" standalone="no"?>
<!DOCTYPE svg PUBLIC "-//W3C//DTD SVG 1.1//EN" "http://www.w3.org/Graphics/SVG/1.1/DTD/svg11.dtd" >
<svg xmlns="http://www.w3.org/2000/svg" xmlns:xlink="http://www.w3.org/1999/xlink" version="1.1" viewBox="0 -36 256 256">
  <g transform="matrix(1 0 0 -1 0 220)">
   <path fill="currentColor"
d="M22 77q14 -29 14.5 -38t-4.5 -14t-10.5 -4t-2 11.5t-1.5 42.5zM53 80q22 -25 22 -33.5t-7.5 -15.5t-8.5 5t-9 42zM77 86q28 -20 30.5 -28t-4 -17t-10 4.5t-19.5 38.5zM58.5 210q-13.5 -20 -28.5 -41l39 3q7 11 12 24l16 -17q-4 0 -25 -26.5t-42 -46.5l55 5q-5 14 -13 27
l3 2q30 -22 30 -32.5t-5.5 -16t-7 0.5t-5.5 14q-30 -5 -43.5 -9.5t-19.5 -9.5l-11 20q5 0 21 16t32 42q-15 -2 -24.5 -5t-19.5 -9l-9 18q8 2 22 25t22 50l20 -13q-5 -1 -18.5 -21zM136 192h75l13 13l19 -20h-109q-16 -25 -34 -41l-3 2q32 42 43 99l22 -12l-8 -4
q-13 -27 -18 -37zM154 127l-10 -5q-14 -32 -36 -60l-4 3q20 31 27 75zM166 175l23 -10l-8 -7v-122q0 -11 -4.5 -16.5t-18.5 -11.5q-6 16 -30 23v4q24 -4 31.5 -4t7.5 11q0 110 -1 133zM236 91.5q10 -16.5 2.5 -30t-13 8.5t-31.5 65l3 3q29 -30 39 -46.5z" />
  </g>

</svg>
