<?xml version="1.0" standalone="no"?>
<!DOCTYPE svg PUBLIC "-//W3C//DTD SVG 1.1//EN" "http://www.w3.org/Graphics/SVG/1.1/DTD/svg11.dtd" >
<svg xmlns="http://www.w3.org/2000/svg" xmlns:xlink="http://www.w3.org/1999/xlink" version="1.1" viewBox="0 -36 256 256">
  <g transform="matrix(1 0 0 -1 0 220)">
   <path fill="currentColor"
d="M131 211l7 8l15 -10l-6 -4q-17 -50 -65 -73l-3 3q40 27 52 69h-14q-10 0 -19 -2l-9 9h42zM172 195v-46q0 -9 -5 -15t-15 -8q-3 15 -31 18v5q20 -2 27.5 -2t9.5 9v59q0 14 -1 31l24 -8l-9 -7v-29q39 15 49 26l14 -14q-11 -2 -24 -6t-28 -10q22 -41 65 -52v-2
q-15 -1 -19 -10q-39 22 -51 63zM109 29h111v83h-111v-83zM96 70q0 35 -1 57l13 -8h111l7 10l15 -12l-8 -8v-58q0 -20 1 -35l-14 -9v15h-111v-7l-14 -8q1 28 1 63zM130 69q0 19 -1 35l14 -11h39l6 11l16 -13l-7 -7q0 -24 1 -38l-14 -4v11h-42v-9l-13 -7q1 13 1 32zM142 60h42
v25h-42v-25zM32.5 138.5q-3.5 -11.5 -12 -14t-10.5 2.5t7 16t14 43h4q1 -36 -2.5 -47.5zM45 245l22 -13l-8 -9v-170q0 -22 1 -36l-15 -10q1 36 1 58v126q0 29 -1 54zM82 171q6 -9 4 -17t-8 -8.5t-7.5 12.5t-9.5 34l3 2q12 -14 18 -23z" />
  </g>

</svg>
