<?xml version="1.0" standalone="no"?>
<!DOCTYPE svg PUBLIC "-//W3C//DTD SVG 1.1//EN" "http://www.w3.org/Graphics/SVG/1.1/DTD/svg11.dtd" >
<svg xmlns="http://www.w3.org/2000/svg" xmlns:xlink="http://www.w3.org/1999/xlink" version="1.1" viewBox="0 -205 1024 1024">
  <g transform="matrix(1 0 0 -1 0 819)">
   <path fill="currentColor"
d="M444 698h162v290l84 -36q8 -6 8 -8v-6l-40 -18v-222h152l40 50l64 -60q3 -5 4 -10q0 -7 -8 -8h-252v-244h132l34 52l64 -62q3 -3 4 -6q0 -12 -12 -12h-222v-283h182l40 55l66 -61q3 -3 4 -10q0 -12 -12 -12h-552q-21 1 -68 -8l-16 36h304v283h-128q-20 0 -64 -6l-20 34
h212v244h-172q-45 -131 -104 -226l-16 8q39 99 72 210q33 110 58 230q80 -36 82 -42v-10q0 -1 -18 -8q-17 -5 -28 -34q-9 -28 -36 -100v0v0zM186 986l76 -36q6 -3 6 -6q3 -5 -2 -10l-32 -16v-156q56 -22 86 -40q28 -17 38 -40q9 -24 4 -42q-7 -18 -22 -18q-15 -1 -24 20
t-26 48q-15 23 -56 50v-584l4 -87q0 -12 -20 -28q-21 -14 -36 -14l4 121v838v0v0zM110 730h20q3 -90 -2 -132q-6 -42 -24 -68q-19 -26 -40 -24q-22 0 -28 16q-6 14 6 28l24 28q9 14 24 52q11 36 20 100v0v0z" />
  </g>

</svg>
