<?xml version="1.0" standalone="no"?>
<!DOCTYPE svg PUBLIC "-//W3C//DTD SVG 1.1//EN" "http://www.w3.org/Graphics/SVG/1.1/DTD/svg11.dtd" >
<svg xmlns="http://www.w3.org/2000/svg" xmlns:xlink="http://www.w3.org/1999/xlink" version="1.1" viewBox="0 -205 1024 1024">
  <g transform="matrix(1 0 0 -1 0 819)">
   <path fill="currentColor"
d="M878 870l34 42l50 -46q3 -3 4 -8q0 -12 -12 -12h-500v-86h350l30 36l52 -44q2 -4 2 -8q0 -7 -8 -8h-424l-26 -22l-44 38l22 20v74h-40q-15 0 -38 -8l-22 32h570v0v0zM390 708l54 -24h374l22 28l48 -30q9 -3 10 -12q0 -4 -24 -22v-90q0 -10 -8 -16q-15 -10 -38 -10v22
h-390v0q0 -6 -14 -14q-22 -9 -34 -8v176v0v0zM438 578h390v82h-390v-82v0v0zM514 980l6 12q75 -15 102 -30q27 -14 30 -34q3 -21 -12 -32q-13 -11 -26 -6q-12 2 -18 20q-6 14 -24 32q-19 17 -58 38v0v0zM360 520l38 -30h74l20 26l44 -28q9 -3 10 -12q1 -6 -22 -20v-345
q0 -36 -14 -54q-15 -15 -42 -24q-5 27 -28 38q-21 12 -48 18l4 16q38 -12 62 -12q24 -2 22 28v121h-84q-13 -84 -44 -131q-29 -47 -58 -80l-12 8q30 52 52 110q20 55 26 203v168v0v0zM400 266h80v84h-78l-2 -84v0v0v0zM402 374h78v92h-78v-92v0v0zM752 518l48 -32h68l20 20
l44 -28q9 -7 -2 -16l-18 -10v-341q0 -12 4 -22q3 -8 12 -8h8q12 4 16 22q3 16 4 34q0 14 4 79h16q2 -69 4 -87q2 -20 26 -34q-6 -21 -18 -36q-13 -14 -32 -16h-40q-28 1 -38 16q-7 16 -8 44v361h-76v-190q-5 -68 -28 -124q-21 -55 -74 -113l-10 10q42 73 54 113
q12 41 16 106v252v0v0zM802 368l8 6q35 -39 40 -62q6 -22 4 -38q-3 -15 -14 -24q-10 -8 -22 0q-9 5 -6 26q3 18 4 34q0 15 -14 58v0v0zM698 272q-12 -33 -30 -80l60 20l6 -14q-103 -45 -124 -59q-21 -12 -36 -34l-38 42l108 37q8 40 16 74q6 33 18 100q56 -18 58 -24
q0 -7 -6 -10q-7 -3 -14 -12q-6 -7 -18 -40v0v0zM582 516l8 10q33 -19 54 -38q21 -18 24 -36q4 -19 -6 -32q-9 -12 -26 -8q-16 3 -16 24q-1 20 -10 38q-7 18 -28 42v0v0zM572 340l12 6q31 -45 38 -66q8 -21 8 -44q0 -21 -12 -30q-10 -8 -22 0q-13 6 -10 22q4 15 2 40
q-2 24 -16 72v0v0zM666 394l28 40l38 -46q3 -3 4 -6q1 -12 -16 -12h-112q-21 0 -56 -8l-16 32h130v0v0zM274 924q9 -10 -6 -16q-19 -10 -28 -16q-10 -7 -46 -64q-36 -58 -104 -154h138q23 54 50 114l68 -44q3 -9 -14 -12q-12 -6 -24 -18q-9 -9 -56 -86q-45 -75 -134 -186
l142 22q-10 21 -34 78l14 10q52 -54 68 -80q14 -27 16 -50q3 -21 -6 -32q-9 -12 -20 -12q-11 -2 -22 6q-9 8 -12 58q-54 -10 -102 -28q-49 -18 -88 -38l-32 66q24 2 52 14q42 51 124 198q-64 -7 -94 -16q-30 -7 -66 -22l-34 64q23 2 38 10q14 6 62 94q48 87 78 178l72 -38v0
v0zM78 314h22q9 -69 10 -122q1 -51 -16 -75q-15 -25 -32 -26q-15 -1 -26 6q-10 9 -10 24q-1 16 14 29q12 14 22 34q9 20 12 38q3 16 4 92v0v0zM142 336l16 6q44 -63 58 -104q13 -40 8 -70q-5 -27 -22 -33q-17 -5 -28 4q-12 8 -8 37q3 30 0 66q0 36 -24 94v0v0zM244 352
l12 10q56 -67 64 -94q6 -27 6 -50q0 -21 -12 -32q-12 -10 -30 -4q-16 6 -16 34l-2 54q-1 26 -22 82v0v0z" />
  </g>

</svg>
