<?xml version="1.0" standalone="no"?>
<!DOCTYPE svg PUBLIC "-//W3C//DTD SVG 1.1//EN" "http://www.w3.org/Graphics/SVG/1.1/DTD/svg11.dtd" >
<svg xmlns="http://www.w3.org/2000/svg" xmlns:xlink="http://www.w3.org/1999/xlink" version="1.1" viewBox="0 -205 1024 1024">
  <g transform="matrix(1 0 0 -1 0 819)">
   <path fill="currentColor"
d="M900 614l40 52l68 -64q2 -3 2 -8q1 -7 -4 -8h-514v-166q-4 -153 -50 -248q-43 -92 -106 -153l-12 12q51 77 84 157q30 78 34 226v238l56 -38h248q58 117 80 180q69 -33 72 -38v-10q0 -3 -18 -6t-50 -48q-31 -42 -56 -78h126v0v0zM930 276q57 -52 58 -58q0 -7 -6 -8
q-6 -2 -24 0q-19 3 -76 -32q-54 -33 -168 -81q-114 -47 -294 -76l-2 16q159 40 288 100q125 58 224 139v0v0zM886 844l38 50l60 -56q3 -3 4 -8q1 -14 -16 -12h-482q-20 0 -64 -8l-16 34h476v0v0zM532 772l8 12q66 -35 88 -58q21 -22 24 -40t-8 -32q-9 -16 -26 -14
q-17 0 -22 24t-16 48q-12 24 -48 60v0v0zM618 972l8 12q56 -21 80 -38q24 -18 30 -38q7 -22 -4 -34q-12 -14 -30 -12q-17 0 -22 22q-4 20 -16 40q-13 18 -46 48v0v0zM492 176q142 68 218 112q75 45 162 108q51 -43 54 -52q0 -7 -2 -10q-3 -2 -20 0q-18 1 -62 -22
q-43 -21 -122 -60q-77 -39 -220 -92l-8 16v0v0zM510 352q125 62 182 98q56 33 140 94q57 -36 60 -44q3 -9 -2 -12q-6 -1 -26 -2q-19 0 -58 -20q-40 -19 -100 -50q-61 -30 -188 -78l-8 14v0v0zM192 962l78 -34q17 -6 -4 -18l-26 -14v-628l84 18v460l78 -30q3 -2 4 -10
q0 -4 -36 -20v-396l4 -76q0 -12 -14 -24q-15 -13 -36 -14v88q-139 -38 -182 -58q-42 -21 -62 -42l-44 50q26 15 28 34v506l74 -32q7 -3 8 -8q-3 -5 -36 -22v-456l82 22v704v0v0z" />
  </g>

</svg>
