<?xml version="1.0" standalone="no"?>
<!DOCTYPE svg PUBLIC "-//W3C//DTD SVG 1.1//EN" "http://www.w3.org/Graphics/SVG/1.1/DTD/svg11.dtd" >
<svg xmlns="http://www.w3.org/2000/svg" xmlns:xlink="http://www.w3.org/1999/xlink" version="1.1" viewBox="0 -205 1024 1024">
  <g transform="matrix(1 0 0 -1 0 819)">
   <path fill="currentColor"
d="M108 858l60 -40h94l36 44l58 -46q6 -5 6 -10q-1 -5 -34 -28v-334l4 -96q1 -12 -16 -26q-18 -14 -38 -16v82h-120v-112q1 -16 -16 -28q-16 -13 -38 -10l4 152v468v0v0zM158 414h120v378h-120v-378v0v0zM390 850h244v126l86 -30q3 -4 4 -8q1 0 -4 -6l-34 -16v-66h170l40 50
l56 -56q3 -3 4 -8q0 -12 -12 -12h-258v-86h120l34 42l52 -50q3 -1 10 -10q0 -7 -8 -8h-208v-86h196l40 50l60 -58l4 -8q0 -12 -12 -12h-532q-21 0 -68 -8l-16 36h276v86h-116q-21 0 -68 -8l-16 34h200v86h-160q-21 0 -68 -8l-16 34v0v0zM560 220q10 -9 -6 -14q-30 0 -90 -48
q-60 -46 -192 -125l-8 16q92 75 148 125q54 50 84 82l64 -36v0v0zM760 244q77 -27 124 -50q47 -24 68 -48q19 -22 14 -49q-4 -24 -22 -30q-18 -4 -36 28q-17 33 -46 57q-27 27 -110 78l8 14v0v0zM590 538q-28 -12 -94 -56h210q66 52 100 86l60 -42q6 -12 -6 -14
q-21 0 -54 -18q-31 -18 -110 -66q-78 -45 -192 -102q140 11 344 20q-29 32 -88 76l8 12q69 -28 108 -52q36 -23 54 -46q18 -22 12 -46t-24 -24q-19 -1 -28 20t-24 40l-174 -14v-193q1 -33 -6 -58q-8 -25 -28 -38q-18 -12 -48 -18q-5 37 -34 46q-27 12 -96 32l4 18
q100 -17 116 -20q14 -1 28 4q15 4 12 32v189q-96 -6 -134 -12q-37 -5 -62 -22l-40 64q39 -1 90 14q80 41 182 110q-123 -7 -150 -10q-27 -1 -80 -20l-34 58q27 2 72 16q51 42 96 88l70 -22q10 -7 0 -16q-33 -4 -60 -16v0v0z" />
  </g>

</svg>
