<?xml version="1.0" standalone="no"?>
<!DOCTYPE svg PUBLIC "-//W3C//DTD SVG 1.1//EN" "http://www.w3.org/Graphics/SVG/1.1/DTD/svg11.dtd" >
<svg xmlns="http://www.w3.org/2000/svg" xmlns:xlink="http://www.w3.org/1999/xlink" version="1.1" viewBox="0 -205 1024 1024">
  <g transform="matrix(1 0 0 -1 0 819)">
   <path fill="currentColor"
d="M878 916l42 48l60 -60q2 -7 2 -8q0 -7 -8 -8h-564v-174q3 -273 -24 -416q-28 -142 -166 -259l-10 12q112 123 134 255q21 132 18 384v260l54 -34h462v0v0zM582 786v-120h20l32 34l46 -42q3 -3 4 -6q0 -10 -12 -10h-90v-22q44 -10 70 -22q26 -13 34 -28q6 -13 0 -26
q-5 -13 -16 -14t-22 14q-10 11 -28 32q-18 18 -38 24v-114l4 -62q-1 -9 -16 -24q-13 -13 -38 -16l4 102v102q-52 -90 -112 -140l-8 10q40 58 62 98q21 38 42 86h-34q-21 0 -44 -8l-16 32h110v108q-60 -10 -104 -20l-4 18q51 16 108 38q58 20 104 44q48 -42 46 -48
q0 -8 -12 -6h-30q-19 -1 -62 -14v0v0zM824 780v-118h56l36 40l50 -48q3 -3 4 -6q0 -10 -12 -10h-116q21 -52 42 -80t48 -50t66 -28v-16q-22 3 -40 -2q-17 -6 -34 -20q-28 24 -40 48q-13 21 -28 52q-15 29 -32 86v-122l4 -62q-1 -9 -16 -24q-13 -13 -38 -16l4 102v92
q-67 -120 -152 -182l-10 12q51 63 82 108q28 45 56 102h-20q-14 0 -34 -8l-14 32h92v108q-60 -12 -120 -20l-4 18q66 14 130 38t110 46q52 -46 50 -52q0 -8 -12 -6h-32q-19 -1 -76 -14v0v0zM658 416l80 -30q3 -4 4 -8l-2 -4l-32 -16v-70h120l34 44l52 -48q13 -14 -4 -22
h-202v-145h186l38 43l56 -49q6 -6 6 -12q0 -5 -12 -8h-570q-21 4 -48 -8l-24 34h152v223l80 -30q3 -3 4 -6q4 -4 -4 -10l-30 -16v-161h116v299v0v0zM18 884h242l34 40l44 -50q3 -4 4 -8q-1 -7 -16 -8h-122v-266h52l28 42l42 -48q8 -6 10 -12q2 -4 -4 -8h-128v-280l120 24
l4 -14q-208 -66 -226 -78q-16 -12 -34 -30l-46 58l134 28v292h-44q-9 1 -60 -10l-18 36h122v266h-50q-22 1 -70 -10l-18 36v0v0z" />
  </g>

</svg>
