<?xml version="1.0" standalone="no"?>
<!DOCTYPE svg PUBLIC "-//W3C//DTD SVG 1.1//EN" "http://www.w3.org/Graphics/SVG/1.1/DTD/svg11.dtd" >
<svg xmlns="http://www.w3.org/2000/svg" xmlns:xlink="http://www.w3.org/1999/xlink" version="1.1" viewBox="0 -205 1024 1024">
  <g transform="matrix(1 0 0 -1 0 819)">
   <path fill="currentColor"
d="M504 884h352l38 50l62 -56q3 -3 4 -8q0 -12 -12 -12h-190v-306h142l38 50l62 -58q3 -4 4 -10q0 -10 -12 -10h-234v-389q0 -47 -20 -70q-21 -22 -68 -32q3 32 -36 48q-37 15 -86 30l4 18q78 -17 106 -20q26 -1 38 4q12 4 10 41v370h-158q-12 0 -60 -8l-16 36h234v306h-118
q-21 0 -68 -8l-16 34v0v0zM184 986l72 -36q9 -9 6 -12q-3 -6 -6 -6q-24 -11 -36 -28q-8 -15 -40 -72h184l40 48l62 -58q6 -4 6 -8q0 -9 -8 -8h-168v-212h112l32 44l64 -52q3 -3 4 -8q3 -7 -6 -10h-206v-346l96 26v228l82 -26q7 -5 2 -10q-3 -6 -32 -20v-166l4 -80
q0 -15 -18 -25q-16 -11 -38 -14v93q-165 -64 -206 -83q-42 -21 -66 -54l-52 67q35 15 38 36v290l78 -32q3 -3 4 -8q0 -4 -30 -22v-242l86 28v360h-108q-21 0 -60 -12l-24 38h192v212h-76q-64 -114 -112 -174l-16 10q44 78 88 186q41 104 56 158v0v0v0z" />
  </g>

</svg>
