<?xml version="1.0" standalone="no"?>
<!DOCTYPE svg PUBLIC "-//W3C//DTD SVG 1.1//EN" "http://www.w3.org/Graphics/SVG/1.1/DTD/svg11.dtd" >
<svg xmlns="http://www.w3.org/2000/svg" xmlns:xlink="http://www.w3.org/1999/xlink" version="1.1" viewBox="0 -36 256 256">
  <g transform="matrix(1 0 0 -1 0 220)">
   <path fill="currentColor"
d="M76.5 32.5q8.5 -0.5 8.5 12.5v64h-42q-1 -26 -6.5 -48.5t-24.5 -48.5h-4q13 26 18 55.5t4.5 94t-2.5 77.5l15 -8h40l8 10l14 -12l-7 -6v-179q0 -16 -5.5 -22.5t-17.5 -11.5q0 14 -29 22v4q22 -3 30.5 -3.5zM43 173h42v51h-42v-51zM43 116h42v50h-42v-50zM170 149l2 -4
q-41 -18 -52 -30l-11 15q4 7 4 20q0 69 -1 91l15 -8h82l9 10l16 -13l-8 -5q0 -20 1 -31l-14 -6v7h-31q1 -11 4 -22h30l11 12l17 -19h-56q9 -21 37 -38l13 31l3 -1q-4 -16 -3.5 -28t4.5 -17.5t-7 -3t-31 16.5t-29 40h-49v-29zM126 203h87v23h-87v-23zM126 173h47q-3 14 -4 22
h-43v-22zM130 70h81v28h-81v-28zM130 34h81v28h-81v-28zM117 67.5q0 25.5 -1 46.5l14 -9h79l9 10l14 -14l-8 -5v-46q0 -17 1 -31l-14 -7v15h-81v-10l-14 -7q1 32 1 57.5z" />
  </g>

</svg>
