<?xml version="1.0" standalone="no"?>
<!DOCTYPE svg PUBLIC "-//W3C//DTD SVG 1.1//EN" "http://www.w3.org/Graphics/SVG/1.1/DTD/svg11.dtd" >
<svg xmlns="http://www.w3.org/2000/svg" xmlns:xlink="http://www.w3.org/1999/xlink" version="1.1" viewBox="0 -143 1024 1024">
  <g transform="matrix(1 0 0 -1 0 881)">
   <path fill="currentColor"
d="M874 862l40 49l71 -55q9 -15 -4 -19h-735v-270q-4 -242 -58 -357t-149 -193l-9 14q64 64 111 171t53 280q-98 -75 -114 -115l-46 54l161 88v396l59 -43h620zM48 767l12 8q42 -40 64 -74t26 -63t-5 -44t-22 -16t-22 9t-8 35t-9 63t-36 82zM482 987l6 14q56 -16 87 -30
t44 -34t5 -39t-29 -19t-29 20t-24 41t-60 47zM271 688h111v102l77 -28q5 -5 5 -8q4 -6 -33 -26v-40h121v132l80 -30q4 -5 4 -6q0 -5 -6 -10l-29 -14v-72h146v132l77 -28q7 -5 7 -6q0 -5 -1 -8l-34 -17v-73h83l28 40l61 -46q4 -3 4 -8q0 -12 -12 -12h-164v-54l4 -62
q0 -1 -15 -9.5t-38 -8.5v34h-146v-18q0 -13 -18.5 -19.5t-34.5 -6.5l4 86v58h-121v-174h419l24 38l62 -47q4 -4 4 -11.5t-9 -7.5h-492l-32 -25l-51 51l26 22v154h-46q-21 0 -41 -8zM601 590h146v72h-146v-72zM402 420l57 -19h357l21 28l53 -34q6 -4 6 -7q0 -6 -21 -22v-89
l4 -63q1 -12 -16 -22.5t-41 -12.5l3 94v104h-373v-100l4 -78q0 -15 -19.5 -26.5t-38.5 -11.5l4 118v141zM683 321q7 -5 7 -11q0 -2 -29 -15l-13 -26q-36 -106 -133.5 -162t-274.5 -82l-4 16q156 38 229 81t104 97t43 130zM685 179q145 -20 209 -49t70 -53t-5 -35t-25 -8
t-37 27t-78 51t-138 52z" />
  </g>

</svg>
