<?xml version="1.0" standalone="no"?>
<!DOCTYPE svg PUBLIC "-//W3C//DTD SVG 1.1//EN" "http://www.w3.org/Graphics/SVG/1.1/DTD/svg11.dtd" >
<svg xmlns="http://www.w3.org/2000/svg" xmlns:xlink="http://www.w3.org/1999/xlink" version="1.1" viewBox="0 -205 1024 1024">
  <g transform="matrix(1 0 0 -1 0 819)">
   <path fill="currentColor"
d="M498 560l38 -26h14q45 20 118 56v134h-112q-24 -4 -42 -10l-20 36h300l32 40l52 -48q10 -12 -4 -18h-156v-108q75 34 190 104l48 -40q4 -7 2 -10q-3 -4 -14 -4t-22 -2q-12 -1 -48 -20q-35 -17 -88 -40q-54 -24 -146 -68h214l34 36l54 -46q6 -6 6 -8q0 -7 -32 -28v-224
l4 -72q0 -15 -18 -24q-19 -12 -38 -14v34h-314v-8q-3 -7 -20 -16q-15 -10 -36 -10l4 58v266q-51 -23 -104 -40l-4 16l108 54v50v0v0zM550 216h314v86h-314v-86v0v0zM550 328h314v76h-314v-76v0v0zM550 430h314v78h-292l-22 -10v-68v0v0zM322 27q177 74 282 149l54 -37
q9 -6 -2 -16q-27 0 -38 -6q-11 -3 -88 -34q-75 -30 -200 -70l-8 14v0v0zM748 152l4 16q105 -23 162 -45q56 -23 70 -46q15 -24 6 -40q-6 -18 -24 -18t-32 20q-16 21 -52 48q-37 28 -134 65v0v0zM612 972l6 12q57 -18 84 -30t36 -30q10 -17 2 -34q-7 -16 -26 -16
q-19 -1 -26 20q-7 22 -22 38q-15 14 -54 40v0v0zM484 898h22v-38h412l30 30q53 -49 56 -56q3 -6 -2 -8q-3 -3 -20 -6q-18 -3 -36 -18q-17 -12 -46 -42l-16 10q15 27 36 64h-414q-3 -60 -24 -84q-21 -25 -42 -26q-19 -1 -26 14q-6 14 4 28q10 12 26 24q14 11 26 38
q10 24 14 70v0v0zM408 554q81 75 148 150l62 -28q6 -6 -2 -12q-6 -3 -18 -6q-12 -1 -24 -8q-13 -7 -50 -34q-36 -27 -104 -74l-12 12v0v0zM362 894q-17 -1 -106 -20v-188h68l34 44l54 -56l4 -4q0 -10 -14 -10h-146v-116q45 -17 72 -34q26 -16 40 -40q12 -24 6 -42
q-7 -19 -26 -22q-19 -2 -26 24q-7 23 -22 50q-13 24 -44 42v-370l4 -89q0 -14 -18 -28q-18 -13 -36 -14l4 135v366q-36 -87 -84 -162q-45 -75 -90 -122l-14 10q32 50 68 118q36 66 64 136q27 68 52 158h-100q-21 0 -44 -8l-16 34h164v174q-78 -13 -144 -26l-4 18
q194 54 304 108q41 -52 44 -58q1 -6 -4 -8t-16 0q-10 3 -28 0v0v0z" />
  </g>

</svg>
