<?xml version="1.0" standalone="no"?>
<!DOCTYPE svg PUBLIC "-//W3C//DTD SVG 1.1//EN" "http://www.w3.org/Graphics/SVG/1.1/DTD/svg11.dtd" >
<svg xmlns="http://www.w3.org/2000/svg" xmlns:xlink="http://www.w3.org/1999/xlink" version="1.1" viewBox="0 -205 1024 1024">
  <g transform="matrix(1 0 0 -1 0 819)">
   <path fill="currentColor"
d="M494 774h150q1 116 2 188l68 -26q15 -6 16 -12q0 -4 -32 -22v-128h104l34 36l52 -44q6 -6 6 -12q0 -4 -30 -22v-230h30l36 50l58 -58q3 -3 4 -6q0 -12 -12 -12h-292q-12 -79 -54 -148q-43 -70 -106 -122q-64 -51 -116 -79l-10 13q66 53 114 100q47 48 80 108
q30 59 42 128h-106q-22 0 -58 -8l-26 34h192l4 246h-76q-25 0 -46 -8l-28 34v0v0zM694 748l-2 -246h120v246h-118v0v0zM706 398q75 -48 124 -90q49 -39 68 -74q19 -33 12 -56q-9 -24 -32 -26q-22 -1 -28 20q-4 21 -16 48q-10 26 -46 70q-33 42 -90 96l8 12v0v0zM76 774h176
v190l78 -30q9 -4 6 -10t-8 -8l-26 -14v-128h76l30 44l56 -50q3 -3 4 -8q0 -12 -12 -12h-154v-168h94l36 44l50 -50q3 -3 6 -8q0 -9 -12 -12h-154v-166h86l30 42l48 -50q6 -4 6 -10t-8 -8h-162v-237q42 -24 144 -36q103 -13 374 -2l152 16v-20q-45 -6 -60 -16q-15 -9 -24 -34
q-122 -3 -268 0q-144 3 -228 18q-80 16 -142 64q-60 46 -114 139q-21 -90 -54 -147q-31 -60 -70 -102l-14 8q51 79 72 153q20 72 32 142q10 71 14 178l72 -28q16 -6 2 -18q-22 -10 -28 -28q-12 -94 -18 -128q54 -84 108 -126v396h-148q-20 0 -70 -8l-14 34h212v168h-92
q-21 0 -68 -8l-16 34v0v0z" />
  </g>

</svg>
