<?xml version="1.0" standalone="no"?>
<!DOCTYPE svg PUBLIC "-//W3C//DTD SVG 1.1//EN" "http://www.w3.org/Graphics/SVG/1.1/DTD/svg11.dtd" >
<svg xmlns="http://www.w3.org/2000/svg" xmlns:xlink="http://www.w3.org/1999/xlink" version="1.1" viewBox="0 -36 256 256">
  <g transform="matrix(1 0 0 -1 0 220)">
   <path fill="currentColor"
d="M128 178q0 40 -1 59l14 -8h69l13 10l14 -17h-49v-29h20l13 10l13 -17h-46v-31h18l13 11l13 -18h-44v-28l38 1l9 9l13 -13l-8 -8q-7 -66 -11.5 -76.5t-10 -15t-19.5 -9.5q-6 14 -30 22v4q32 -7 39.5 -4t12 32.5t5.5 51.5l-85 -2v-4l-14 -4q1 34 1 74zM133 90
q1 -27 -1.5 -36.5t-9 -12t-9 1.5t5 12.5t11.5 34.5h3zM190 100q14 -9 22 -18t1.5 -19.5t-10 5t-15.5 30.5zM141 193h34v29h-34v-29zM141 155h34v31h-34v-31zM141 119l34 1v28h-34v-29zM167 95q13 -12 18.5 -20.5t-1.5 -17.5t-9 6t-10 30zM146 90q13 -18 15 -27t-5 -15
t-7.5 9t-4.5 31zM78.5 214.5q-5.5 -5.5 -7.5 4t-14 25.5l3 2q24 -12 24 -19t-5.5 -12.5zM99 209l14 12l14 -19h-77v-48h42l14 11l12 -18h-68l-9 -6l-10 13l6 4v44h-1q-8 1 -19 -2l-9 9h91zM62 63v32q0 12 -1 33l19 -9l-6 -7v-41q0 -21 1 -41l-14 -8q1 20 1 41zM8 16
q17 20 21 45t2 74l20 -9l-6 -7q1 -21 -2.5 -52.5t-33.5 -53.5zM108 123l-6 -7v-72q0 -9 8 -10q6 0 9.5 2t9 -2t3 -7.5t-17.5 -4.5h-7q-18 2 -17 15v37q0 39 -1 58z" />
  </g>

</svg>
