<?xml version="1.0" standalone="no"?>
<!DOCTYPE svg PUBLIC "-//W3C//DTD SVG 1.1//EN" "http://www.w3.org/Graphics/SVG/1.1/DTD/svg11.dtd" >
<svg xmlns="http://www.w3.org/2000/svg" xmlns:xlink="http://www.w3.org/1999/xlink" version="1.1" viewBox="0 -36 256 256">
  <g transform="matrix(1 0 0 -1 0 220)">
   <path fill="currentColor"
d="M34 106h21v72h-21v-72zM68 106h21v72h-21v-72zM81 85l3 2q24 -24 26.5 -32.5t-5 -17t-8.5 -0.5t-3 15q-26 -7 -47.5 -14.5t-26.5 -12.5l-10 17q11 1 45 9v48h-21v-7l-13 -7q1 22 1 53.5t-1 55.5l14 -9h20q0 42 -1 59l21 -11l-7 -9v-39h21l8 9l12 -15l-8 -5v-45
q0 -19 1 -32l-13 -7v9h-21v-46l24 6q-2 10 -11 26zM210 214l15 13l17 -20h-48v-164q0 -10 11 -11h12q8 -1 9.5 9.5t2.5 36.5h5q0 -20 2.5 -30.5t10.5 -11.5q-6 -16 -23 -16h-25q-20 1 -19 22v165h-29v-84q-2 -82 -63 -114l-2 4q49 35 51 105v89h-12q-10 0 -19 -2l-10 9h114z
" />
  </g>

</svg>
