<?xml version="1.0" standalone="no"?>
<!DOCTYPE svg PUBLIC "-//W3C//DTD SVG 1.1//EN" "http://www.w3.org/Graphics/SVG/1.1/DTD/svg11.dtd" >
<svg xmlns="http://www.w3.org/2000/svg" xmlns:xlink="http://www.w3.org/1999/xlink" version="1.1" viewBox="0 -200 999 1000">
  <g transform="matrix(1 0 0 -1 0 800)">
   <path fill="currentColor"
d="M330 8q29 48 57.5 116t54.5 159q-10 17 -25 39.5t-32 40.5l-21 -27l-37 22l35 34l37 306l-41 -8l-23 -12l-13 32l79 13q17 156 18 277l61 -36l-16 -42l-20 -192l55 8l20 44l58 -50l-55 -13l40 -21l-16 -39q-4 -68 -11.5 -123.5t-16 -101t-17.5 -82.5t-17 -68
q38 -46 53.5 -78.5t15.5 -47.5q0 -11 -2.5 -22t-6 -21t-8 -16t-8.5 -6q-3 0 -10 19t-16 43.5t-17.5 48.5t-14.5 34q-35 -91 -65 -149t-62 -91zM441 702l-52 -322l63 -62q19 82 33.5 180t17.5 216zM309 203q1 -55 6.5 -79t12.5 -32.5t13 -10.5t8 -13v-2q0 -26 -73 -26h-124
q-16 0 -23.5 11.5t-7.5 40.5v245q-6 -10 -14.5 -21t-16.5 -21t-14 -18t-8 -11l-14 4q18 33 37 64t30 60v42l17 -14q7 13 12.5 24t10.5 23t11.5 27.5t15.5 38.5h-71l-56 -11l-15 34h107v194h-35l-42 -10l-14 32h91v206l56 -31l-15 -60v-115h8l27 36l31 -42q11 40 18.5 72.5
t13.5 61.5l48 -61l-20 -30q-11 -41 -22 -76t-22 -65.5t-21 -57.5l-20 -54h9l35 37l45 -60h-96q-6 -19 -12.5 -34.5t-13.5 -30.5t-15.5 -31t-18.5 -35l13 -10l-17 -45v-166q37 58 59.5 118t39.5 114l49 -46l-19 -27q-8 -13 -21.5 -35.5t-30.5 -48t-36.5 -51t-40.5 -44.5v-31
q0 -17 4 -32.5t14 -15.5q4 0 5 1h68q15 0 23 4.5t12 17.5t5 36t2 59zM195 558h1q12 31 21 56.5t16.5 48.5t13.5 44.5t12 44.5h-64v-194zM652 990q21 -19 35.5 -46t14.5 -49q0 -29 -13 -42h67q13 38 18 75.5t10 66.5l45 -40l-19 -30l-32 -72h41l38 41l61 -64h-133v-123h27
l35 38l53 -49l-27 -35v-97l32 41l46 -66h-78v-152h-70q23 -100 50 -170t69 -112v-18q-13 -7 -25 -18t-21 -22q-7 19 -20.5 59.5t-27.5 89.5t-25 100t-13 91h-5v-344q-5 -14 -18 -22t-21 -10v376h-40v-351q-2 -5 -7 -11t-11 -11.5t-12.5 -9.5t-10.5 -5v276q-11 -32 -22.5 -66
t-25.5 -66t-30.5 -60t-36.5 -48l-12 5q22 36 39 78.5t30 87.5t23 91t18 90h-26l-28 -12l-11 36h82v129h-73l-30 -13l-14 37h117v116h-34l-33 -11l-11 37h78v124h-41l-41 -10l-18 33h106q-4 1 -6 13.5t-4.5 31.5t-6.5 41t-11 42zM785 411h48v128h-48v-128zM785 564h48v116
h-48v-116zM706 411h40v128h-40v-128zM706 707h40v123h-40v-123zM706 564h40v116h-40v-116z" />
  </g>

</svg>
