<?xml version="1.0" standalone="no"?>
<!DOCTYPE svg PUBLIC "-//W3C//DTD SVG 1.1//EN" "http://www.w3.org/Graphics/SVG/1.1/DTD/svg11.dtd" >
<svg xmlns="http://www.w3.org/2000/svg" xmlns:xlink="http://www.w3.org/1999/xlink" version="1.1" viewBox="0 -205 1024 1024">
  <g transform="matrix(1 0 0 -1 0 819)">
   <path fill="currentColor"
d="M422 828l56 -38h142v188l92 -32q3 -4 4 -8q0 -3 -6 -8l-38 -14q-1 -81 2 -126h152l38 40l56 -46q6 -4 6 -8q0 -6 -32 -32v-232l4 -92q1 -9 -16 -24q-15 -13 -42 -16v38h-156q9 -84 36 -152q69 48 114 96q64 -31 68 -40q2 -7 -4 -10q-6 -4 -24 -4q-18 -1 -42 -16
q-24 -13 -90 -62q35 -53 86 -88q50 -32 70 -39q18 -6 28 14q8 20 14 39q6 20 24 98l18 -2q-14 -118 -12 -141q0 -20 10 -38q8 -15 14 -24q7 -6 2 -12q-3 -6 -30 -6q-27 1 -66 16q-37 15 -92 54q-55 38 -106 105q-83 -46 -160 -75q-77 -30 -202 -64l-4 18q119 45 188 75
q69 29 156 80q-35 87 -46 178h-160v-28q0 -15 -20 -30q-18 -15 -36 -14l4 144v338v0v0zM674 590q-2 -78 6 -144h160v144h-166v0v0zM672 762v-144h168v144h-168v0v0zM474 446h156q-9 60 -8 144h-148v-144v0v0zM474 618h146v144h-146v-144v0v0zM26 748h172v228l66 -30
q22 -8 12 -22l-28 -14v-162h64l30 40l50 -48q3 -3 4 -8q0 -12 -14 -12h-134v-96q71 -37 98 -62q27 -23 34 -46q7 -22 0 -40q-8 -19 -28 -20q-18 0 -24 24q-4 24 -22 54q-16 30 -58 66v-426l4 -107q0 -14 -20 -26q-18 -12 -38 -12l4 147v360q-31 -84 -76 -164
q-44 -79 -94 -136l-10 10q38 63 68 126q30 62 60 152q31 90 50 196h-102q-6 0 -48 -8l-20 36v0v0z" />
  </g>

</svg>
