<?xml version="1.0" standalone="no"?>
<!DOCTYPE svg PUBLIC "-//W3C//DTD SVG 1.1//EN" "http://www.w3.org/Graphics/SVG/1.1/DTD/svg11.dtd" >
<svg xmlns="http://www.w3.org/2000/svg" xmlns:xlink="http://www.w3.org/1999/xlink" version="1.1" viewBox="0 -36 256 256">
  <g transform="matrix(1 0 0 -1 0 220)">
   <path fill="currentColor"
d="M49 235l22 -9l-8 -6v-19h62v19q0 10 -1 24l23 -10l-9 -6v-27h60v12q0 9 -2 21l21 -10l-6 -6v-9q0 -9 1 -15l-14 -7v7h-134l-6 -5l-14 10l6 5v9q0 10 -1 22zM79 176q-8 -5 -18 -10q19 -4 22.5 -7t3.5 -8t-3 -8.5t-10.5 5t-23.5 18.5q24 16 32 27l14 -11q-9 -1 -17 -6z
M135 159.5q6 -2.5 7 -7.5t-2.5 -9.5t-10 3.5t-25.5 20q22 19 27 28l15 -11q-6 -2 -13.5 -6t-19.5 -11q16 -4 22 -6.5zM201 183q-12 -3 -19 -7t-16 -9q21 -5 25 -9t3 -9t-5 -6.5t-7.5 5t-23.5 19.5q22 19 28 27zM64 116h57v17h-57v-17zM134 116h58v17h-58v-17zM64 93h57v16
h-57v-16zM134 93h58v16h-58v-16zM135 15l-15 -7q1 24 1 52q-16 -15 -41.5 -27t-62.5 -20l-1 4q30 10 52 21.5t37 24.5h-61q-10 0 -19 -2l-9 9h105v16h-57v-3l-15 -5q1 26 1 40.5t-1 28.5l16 -7h126l7 9l14 -12l-6 -6v-23q0 -11 1 -20l-15 -7v5h-58v-16h72l14 12l17 -19h-93
q21 -16 44 -23t54 -7v-4q-18 -3 -20 -14q-23 5 -46 17t-39 31h-3v-23q0 -18 1 -25z" />
  </g>

</svg>
