<?xml version="1.0" standalone="no"?>
<!DOCTYPE svg PUBLIC "-//W3C//DTD SVG 1.1//EN" "http://www.w3.org/Graphics/SVG/1.1/DTD/svg11.dtd" >
<svg xmlns="http://www.w3.org/2000/svg" xmlns:xlink="http://www.w3.org/1999/xlink" version="1.1" viewBox="0 -36 256 256">
  <g transform="matrix(1 0 0 -1 0 220)">
   <path fill="currentColor"
d="M56 221l15 -10h73q-1 8 -4.5 16.5t-10.5 14.5l2 3q19 -9 25.5 -17t-3.5 -17h55l13 12l18 -19h-168q0 -45 -1 -75.5t-12.5 -61t-39.5 -58.5l-4 2q37 44 43 114q-28 -20 -37 -34l-13 15q9 2 21 8t29 16q0 67 -1 91zM39.5 172.5q5.5 -8.5 -2 -17t-10 6.5t-11.5 29l2 3
q16 -13 21.5 -21.5zM131 185q-7 -3 -11.5 -8.5t-6.5 -8.5h34l6 8l14 -12l-7 -7v-39q0 -15 1 -27l-13 -5v7h-49v-5l-13 -4q1 12 1 45.5t-1 45.5l13 -7h8q7 17 8 27zM99 145h49v16h-49v-16zM99 122h49v16h-49v-16zM99 100h49v15h-49v-15zM83 49q-1 -10 -5 -15t-11 -2.5t0 9.5
t14 28h3q0 -10 -1 -20zM129.5 75q5.5 -4 5 -10t-4 -9t-6.5 6t-14 22l2 2q12 -7 17.5 -11zM149 74q19 -9 24 -16t-1 -14.5t-8.5 2.5t-16.5 25zM114 67l-6 -6v-17q-1 -12 9 -12h17q10 -1 11.5 5t1.5 20h4q0 -12 2 -18t7 -9q-6 -9 -18 -10h-35q-12 4 -12 16v21q0 9 -1 18z
M167 122l-7 9l21 2q-1 51 -2 64l18 -8l-5 -6q0 -24 1 -48l20 2l11 11l15 -15l-46 -5q2 -41 7 -61q10 28 15 58l15 -13l-6 -7q-9 -32 -19 -52q8 -14 21 -21l5 37l4 -1q-1 -17 -0.5 -31.5t3.5 -21.5t-12 0.5t-29 26.5q-16 -19 -42 -30l-1 3q25 18 38 40q-8 26 -10 71
q-10 -1 -15 -4zM220 175.5q7 -5.5 6 -11.5t-5 -10.5t-7 6t-15 25.5l1 2q13 -6 20 -11.5z" />
  </g>

</svg>
