<?xml version="1.0" standalone="no"?>
<!DOCTYPE svg PUBLIC "-//W3C//DTD SVG 1.1//EN" "http://www.w3.org/Graphics/SVG/1.1/DTD/svg11.dtd" >
<svg xmlns="http://www.w3.org/2000/svg" xmlns:xlink="http://www.w3.org/1999/xlink" version="1.1" viewBox="0 -204 1024 1024">
  <g transform="matrix(1 0 0 -1 0 820)">
   <path fill="currentColor"
d="M602 468v-9q0 -7 -5.5 -15t-28.5 -5q-14 1 -17 8.5t-3 17.5q0 1 2 28l2 31q3 33 3 40v364l55 -31h248l30 37l35 -25q9 -7 15 -13t6.5 -11t-3.5 -9q-1 -1 -27 -18v-325q0 -10 1 -27t2.5 -29.5t1.5 -17.5q-1 -10 -6 -16.5t-22 -8.5q-10 -1 -17.5 2t-7.5 10v22h-264z
M866 869h-264v-104h264v104zM602 632h264v105h-264v-105zM866 605h-264v-108h264v108zM166 468v-7q0 -7 -5.5 -15t-29.5 -5q-14 1 -17 8.5t-2 17.5q0 3 2 28l2 31q2 30 2 40v362l59 -31h233l31 37l38 -26q18 -13 18 -23q-1 -5 -3 -7.5t-28 -19.5v-323q0 -8 1 -26.5t2.5 -31
t1.5 -16.5q-1 -10 -6 -16.5t-23 -8.5q-24 -3 -24 12v20h-252zM418 869h-252v-104h252v104zM166 631h252v106h-252v-106zM418 602h-252v-105h252v105zM175 98v237q-2 33 -2 41l-2 25l57 -41h565l31 35l36 -24q6 -5 12.5 -11.5t7.5 -12t-3 -11.5q-1 -1 -16 -9l-13 -7v-222h25
l45 50l63 -51l7 -6q3 -4 2 -11q-2 -10 -11 -10h-847q-38 0 -74 -5l-19 43q65 -10 93 -10h43zM222 98h161v233h-161v-233zM431 98h161v233h-161v-233zM639 98h161v233h-161v-233z" />
  </g>

</svg>
