<?xml version="1.0" standalone="no"?>
<!DOCTYPE svg PUBLIC "-//W3C//DTD SVG 1.1//EN" "http://www.w3.org/Graphics/SVG/1.1/DTD/svg11.dtd" >
<svg xmlns="http://www.w3.org/2000/svg" xmlns:xlink="http://www.w3.org/1999/xlink" version="1.1" viewBox="0 -36 256 256">
  <g transform="matrix(1 0 0 -1 0 220)">
   <path fill="currentColor"
d="M55 105l46 7v31h-46v-38zM42 102v118h-9l-11 -3l-10 10h102l10 11l16 -18h-26v-105v-7q0 -24 0 -21t1 -9l-15 -7q1 18 1 34q-36 -6 -54 -12t-23 -10l-11 16q19 2 29 3zM55 188h46v32h-46v-32zM55 150h46v31h-46v-31zM40.5 23.5q-5.5 -9.5 -12.5 -10.5t-13 0.5t6.5 14
t20.5 40.5h4q0 -35 -5.5 -44.5zM110 37.5q4 -11.5 -3.5 -20.5t-10.5 7.5t-15 43.5l2 2q23 -21 27 -32.5zM169.5 40.5q5.5 -11.5 -3.5 -21.5t-11.5 8.5t-14.5 41.5l2 2q22 -19 27.5 -30.5zM233.5 45q9.5 -11 2.5 -24t-12.5 6t-25.5 44l3 2q23 -17 32.5 -28zM188 156
q39 -28 48 -38.5t4.5 -24.5t-13.5 5.5t-40 53.5zM126 74l-2 3q43 36 50 103h-15q-13 0 -22 -3l-10 10h48q2 30 2 54l23 -10l-8 -6q-2 -21 -3 -38h28l10 11l18 -18h-57q-3 -31 -17.5 -59.5t-44.5 -46.5z" />
  </g>

</svg>
