<?xml version="1.0" standalone="no"?>
<!DOCTYPE svg PUBLIC "-//W3C//DTD SVG 1.1//EN" "http://www.w3.org/Graphics/SVG/1.1/DTD/svg11.dtd" >
<svg xmlns="http://www.w3.org/2000/svg" xmlns:xlink="http://www.w3.org/1999/xlink" version="1.1" viewBox="0 -410 2097 2048">
  <g transform="matrix(1 0 0 -1 0 1638)">
   <path fill="currentColor"
d="M1624 1715h-590l-25 -37q76 -147 252 -293l47 -39q135 85 270 270q23 33 46 99zM1251 1279q-126 116 -273 350l-16 -25q-33 -50 -149 -178q-20 -21 -30.5 -12t-10.5 15.5t7.5 19.5t27.5 39t33 48l35 56q37 62 101 210t64 204q6 34 48 6l63 -42q58 -38 55 -52
q-2 -8 -27 -12.5t-34.5 -12t-37 -55.5t-34.5 -66h531q2 0 47 25l36 20q17 0 41.5 5t60 -26t35.5 -33q0 -32 -12 -36q-48 -16 -70 -46l-82 -112q-15 4 -54 -66q-3 -7 -126 -122l-65 -61l-35 -27q255 -166 564 -248l52 -14q48 -8 26 -31q-5 -6 -35 -7q-49 -2 -84 -20
q-15 -8 -19 -15q-8 -17 -13 -21q-19 -13 -24 -12l-33 9q-266 111 -459 261l-45 35q-145 -145 -665 -340q-37 -14 -37 22q0 23 29 33q348 130 614 334zM69 1018q156 225 273.5 537t117.5 426q0 28 24.5 20t49.5 -22l75 -43q29 -26 19.5 -32t-28 -9.5t-26.5 -16.5
q-16 -16 -29 -46l-54 -128q-45 -109 -95 -217q55 -21 89 -40t8 -31h-1q-52 -27 -63.5 -43.5t-11.5 -52.5v-771q8 -233 8 -430q0 -20 -14 -20l-90 -37h-3l-1 -1q-14 0 -13 29q10 260 10 459v774q-79 -147 -211 -329q-20 -23 -34.5 -9.5t0.5 33.5zM1345 810q300 -9 314 11
l47 65q14 20 31 0q85 -72 121 -115q11 -13 -4 -20l-62 -29q-4 -2 -4 -12v-227q0 -133 -30.5 -203.5t-57.5 -99.5q-70 -76 -154 -107q-17 -10 -37 7t-58 53.5t-39 36.5l-61 12q-29 6 -45.5 13t-14 20t27.5 13q157 0 219 -12q7 -1 98 60q54 37 54 209v262l-364 -3
q-49 -249 -138 -366q-145 -193 -464 -296q-24 -8 -33 15q-6 21 21 32q225 92 340.5 222.5t158.5 341.5l11 55l-212 -3q-67 -1 -101 -14.5t-38 -4.5t-22.5 35t-26.5 43q-1 4 18 4l392 3z" />
  </g>

</svg>
