<?xml version="1.0" standalone="no"?>
<!DOCTYPE svg PUBLIC "-//W3C//DTD SVG 1.1//EN" "http://www.w3.org/Graphics/SVG/1.1/DTD/svg11.dtd" >
<svg xmlns="http://www.w3.org/2000/svg" xmlns:xlink="http://www.w3.org/1999/xlink" version="1.1" viewBox="0 -205 1024 1024">
  <g transform="matrix(1 0 0 -1 0 819)">
   <path fill="currentColor"
d="M580 940q7 -4 8 -8q3 -7 -6 -10q-21 -6 -32 -20q-24 -32 -48 -88h388l32 34l58 -38q9 -6 6 -12q0 -6 -32 -30v-442q3 -106 -6 -172q-9 -64 -42 -95q-34 -27 -76 -42q-9 36 -38 50q-30 13 -90 28l4 16q99 -18 126 -16q27 1 42 16t24 63q6 45 4 132v482h-414
q-57 -105 -132 -188l-14 10q68 105 110 208q39 100 54 152l74 -30v0v0zM440 522h286l32 38l48 -46q2 -3 2 -6q0 -10 -8 -10h-302q-21 0 -42 -8l-16 32v0v0zM446 436h280l32 38l46 -46q13 -11 -4 -16h-288q-22 0 -52 -8l-14 32v0v0zM464 370l50 -28h212l26 32l48 -32
q8 -4 8 -10q3 -4 -20 -20v-88l4 -48q0 -10 -20 -20q-18 -10 -36 -10v40h-222v-32q0 -12 -18 -21q-18 -8 -36 -8l4 85v160v0v0zM514 208h222v112h-222v-112v0v0zM392 616h378l34 36l50 -44q6 -14 -8 -16h-388q-21 0 -44 -8l-22 32v0v0zM532 740l8 12q57 -15 84 -30
q23 -16 32 -34q6 -19 -2 -34q-7 -16 -28 -16q-19 -1 -28 26q-7 23 -16 38q-9 11 -50 38v0v0zM44 746h166v232l86 -32q9 -5 4 -10q-4 -5 -40 -22v-168h48l34 40l54 -52q8 -14 -10 -16h-126v-202l120 68l10 -16l-130 -90v-355q2 -36 -16 -60q-18 -23 -62 -38q-4 34 -34 50
q-29 15 -82 30l4 18q96 -24 118 -18q21 6 22 32v307q-67 -42 -88 -62q-21 -18 -32 -44l-52 56l172 100v224h-90q-34 -1 -52 -10l-24 38v0v0z" />
  </g>

</svg>
