<?xml version="1.0" standalone="no"?>
<!DOCTYPE svg PUBLIC "-//W3C//DTD SVG 1.1//EN" "http://www.w3.org/Graphics/SVG/1.1/DTD/svg11.dtd" >
<svg xmlns="http://www.w3.org/2000/svg" xmlns:xlink="http://www.w3.org/1999/xlink" version="1.1" viewBox="0 -205 1024 1024">
  <g transform="matrix(1 0 0 -1 0 819)">
   <path fill="currentColor"
d="M510 554h152v74h-152v-74v0v0zM712 628v-74h146v74h-146v0v0zM510 654h152v78h-152v-78v0v0zM712 732v-78h146v78h-146v0v0zM394 858h268v120q75 -27 78 -30q3 -4 4 -10q0 -4 -32 -16v-64h158l38 44l56 -52q3 -3 4 -6q1 -12 -12 -12h-244v-74h136l24 30l56 -38q6 -6 6 -8
q-1 -7 -28 -22v-126l4 -64q1 -11 -16 -22q-18 -10 -36 -10v30h-146v-108l156 6q-30 30 -78 66l6 14q89 -36 118 -56q29 -18 40 -38q12 -18 6 -36q-7 -16 -22 -20q-14 -3 -22 6q-9 8 -14 20q-4 11 -16 26q-302 -27 -346 -36q-42 -9 -92 -30l-36 62l250 14v110h-152v-30
q1 -11 -18 -22q-19 -10 -34 -10l4 116v208l54 -32h146v74h-190q-22 0 -58 -8l-20 34v0v0zM418 290h378v104l72 -30l4 -8q0 -2 -2 -4l-24 -12v-50h56l32 42l56 -50q3 -4 4 -8q0 -10 -12 -10h-136v-157q1 -30 -16 -52q-15 -18 -50 -34q-9 33 -30 44q-21 13 -86 34l4 18
q72 -20 100 -20q27 1 28 26v141h-306q-21 0 -48 -8l-24 34v0v0zM536 256q51 -33 72 -62q21 -30 16 -55q-5 -23 -28 -26q-21 -2 -26 22q-3 23 -12 51q-6 23 -36 62l14 8v0v0zM354 800l52 -56q2 -3 2 -8q0 -7 -12 -8h-280q-21 0 -68 -8l-18 36h292l32 44v0v0zM302 684l72 -30
q8 -6 8 -8q4 -10 -18 -16t-38 -62q-15 -55 -36 -124q-18 -67 -44 -154l164 38l8 -16q-274 -93 -304 -108q-30 -13 -56 -34l-36 60l192 52q36 126 88 402v0v0v0zM106 666q60 -103 78 -164q17 -59 14 -94q-3 -33 -18 -44q-14 -13 -28 -4q-16 9 -10 42q3 34 -6 98
q-9 63 -44 160l14 6v0v0zM136 958l10 12q49 -30 74 -56q23 -27 32 -44q6 -16 10 -34q3 -18 -6 -32q-10 -14 -28 -12q-15 2 -24 38q-6 35 -24 68q-16 30 -44 60v0v0z" />
  </g>

</svg>
