<?xml version="1.0" standalone="no"?>
<!DOCTYPE svg PUBLIC "-//W3C//DTD SVG 1.1//EN" "http://www.w3.org/Graphics/SVG/1.1/DTD/svg11.dtd" >
<svg xmlns="http://www.w3.org/2000/svg" xmlns:xlink="http://www.w3.org/1999/xlink" version="1.1" viewBox="0 -205 1024 1024">
  <g transform="matrix(1 0 0 -1 0 819)">
   <path fill="currentColor"
d="M439 827q3 17 19 7q37 -23 52 -35q11 -8 10 -14q0 -4 -13 -5q-12 -3 -16 -7q-8 -6 -24 -37q-5 -7 -9 -16q40 -11 62 -26q17 -10 21 -22q6 -18 -3 -46q-8 -25 -18 -26t-14 17q-10 30 -28 52q-12 17 -30 33q-20 -33 -42 -67q-28 -40 -70 -86q-10 -11 -17 -4t2 17
q45 61 81 149t37 116zM600 984q-1 18 9 14q56 -18 77 -30q11 -8 1 -12q-31 -17 -32 -21q-2 -4 -2 -50h148q12 0 16 3q6 4 13 13l24 35q8 9 15 0q29 -26 57 -54q11 -12 10 -19q-2 -8 -15 -9h-268v-197q20 -26 42 -48q35 52 63 124q28 74 29 98q3 17 19 7q37 -23 52 -35
q11 -8 10 -14q0 -4 -13 -5q-12 -3 -16 -7q-7 -4 -20 -31q-9 -13 -16 -26q55 -20 83 -42q21 -14 25 -30q5 -18 -5 -46q-8 -24 -18 -25q-10 0 -14 16q-14 39 -36 66q-18 22 -45 44q-13 -20 -26 -39q-23 -32 -57 -69q2 0 3 -1q52 -40 128 -71q63 -26 109 -33q5 -1 15 -2
q5 -1 5 -7q-1 -8 -5 -9q-19 -7 -35 -17q-21 -15 -25 -25q-2 -7 -14 0q-92 47 -155 98q-45 38 -82 87v-3q-2 3 -2 4q-3 5 -7 2q-5 -2 -2 -6q4 -10 11 -20v-89q0 -50 3 -84q0 -9 -7 -10l-44 -18q-9 -2 -8 14q1 39 2 96v76q6 10 13 20q3 4 0 5q-5 3 -6 0q-4 -5 -7 -9
q0 2 -5.5 -5.5t-15.5 -19.5q-23 -22 -66 -58q-90 -71 -157 -99q-13 -6 -17 3t6 15q58 37 134 100q66 57 124 133q1 36 2 67v125h-186q-27 0 -61 -7q-5 -1 -6 2q-13 20 -23 36q-6 10 7 7q61 -6 68 -7h200q-1 62 -4 99zM316 37q-5 -1 -6 2q-13 20 -23 36q-6 10 7 7
q61 -6 68 -7h231v121h-110q-27 0 -61 -7q-5 -1 -6 2q-13 20 -23 36q-6 10 7 7q61 -6 68 -7h125v57q-1 49 -4 80q-1 16 9 13q54 -17 76 -29q9 -5 0 -11q-22 -16 -26 -20q-7 -7 -7 -33v-57h92q12 0 16 4q5 5 14 15l26 37q7 9 16 0q31 -28 61 -59q10 -10 9 -19q-2 -8 -15 -9
h-219v-121h190q12 0 16 4q5 5 14 15l26 37q7 9 16 0q31 -28 61 -59q10 -10 9 -19q-2 -8 -15 -9h-581q-27 0 -61 -7zM107 267q-1 -107 0 -182q-1 -15 -38 -40q-8 -4 -12 -4q-6 1 -5 20q4 100 7 206v616q-1 32 -7 78q-2 10 1 11q1 0 40 -31h132q9 0 16 9l17 22q6 10 13 3
q31 -22 53 -41q8 -8 -2 -12q-20 -8 -32 -29q-23 -38 -41 -78q-79 -159 -61 -174q137 -120 128 -238q-5 -50 -30 -78q-28 -30 -73 -54q-23 -11 -24 -2q-12 44 -59 56q-16 3 -15 16q4 14 23 8q42 -8 73 -1q25 2 40 27q56 105 -88 264q-9 7 -3 23q78 237 74 247q-2 2 -9 1h-118
v-643z" />
  </g>

</svg>
