<?xml version="1.0" standalone="no"?>
<!DOCTYPE svg PUBLIC "-//W3C//DTD SVG 1.1//EN" "http://www.w3.org/Graphics/SVG/1.1/DTD/svg11.dtd" >
<svg xmlns="http://www.w3.org/2000/svg" xmlns:xlink="http://www.w3.org/1999/xlink" version="1.1" viewBox="0 -205 1024 1024">
  <g transform="matrix(1 0 0 -1 0 819)">
   <path fill="currentColor"
d="M694 976q81 -27 84 -32q4 -7 0 -10t-34 -18v-240h148v212q78 -30 82 -36q3 -4 -2 -10q-3 -4 -30 -14v-114l4 -62q2 -21 -16 -32q-19 -10 -38 -10v40h-328l-32 -36l-58 42q27 20 28 32v202l74 -32q7 -3 8 -8q0 -6 -32 -20v-154h142v300v0v0zM508 518l64 -44h124v150
l82 -30q7 -3 8 -6q1 -6 -4 -12l-36 -18v-84h136l32 36l48 -44q9 -3 10 -12q0 -6 -30 -30v-240q-3 -33 -18 -49q-15 -18 -48 -36q-10 33 -32 43q-22 12 -62 24l4 18q41 -7 58 -8q15 -2 30 0q12 3 16 18v252h-144v-276l4 -113q0 -14 -18 -26q-19 -14 -40 -16l4 157v274h-138
v-204l4 -84q1 -15 -16 -29q-15 -12 -42 -18l4 127v280v0v0zM20 538q63 84 124 214q60 128 88 220l72 -30q4 -6 0 -12q-5 -3 -16 -6q-9 -4 -20 -22q71 -33 116 -56q42 -21 64 -48q21 -27 12 -50q-7 -22 -26 -22t-34 28q-13 26 -52 62q-37 34 -92 68q-39 -84 -90 -180
q-49 -93 -134 -176l-12 10v0v0zM158 666h176l32 44l58 -54q6 -12 -2 -18h-146v-134h72l36 44l52 -52q15 -12 0 -20h-160v-296l190 48l6 -16q-144 -51 -210 -72q-64 -17 -112 -37q-48 -19 -72 -44l-42 66l190 45v306h-92q-21 0 -56 -8l-16 36h164v134h-36l-20 -6l-12 34v0v0z
M82 400l12 10q50 -48 70 -78q20 -29 22 -58q0 -29 -14 -40q-16 -10 -28 -4t-14 28q-1 22 -8 56q-7 32 -40 86v0v0zM286 244q59 96 104 178l58 -40q3 -9 -2 -12q-7 -3 -20 -6q-13 -4 -46 -40q-31 -37 -82 -88l-12 8v0v0z" />
  </g>

</svg>
