<?xml version="1.0" standalone="no"?>
<!DOCTYPE svg PUBLIC "-//W3C//DTD SVG 1.1//EN" "http://www.w3.org/Graphics/SVG/1.1/DTD/svg11.dtd" >
<svg xmlns="http://www.w3.org/2000/svg" xmlns:xlink="http://www.w3.org/1999/xlink" version="1.1" viewBox="0 -36 256 256">
  <g transform="matrix(1 0 0 -1 0 220)">
   <path fill="currentColor"
d="M170 246l23 -9l-9 -6v-20h34l10 11l16 -18h-60v-20h25l9 8l13 -11l-6 -6q0 -14 1 -29l-15 -5v7h-27q0 -5 -2 -23h39l8 9l12 -13l-7 -4q-1 -12 -4.5 -20.5t-15.5 -12.5q-1 10 -17 18l1 3l15 -4q8 0 8 17h-40q-14 -53 -66 -78l-3 4q42 28 56 74h-29l-6 -5l-13 11l6 3
q7 19 8 37l14 -9h23v22h-14q-10 0 -19 -3l-9 10h42v20h-25q-10 0 -20 -2l-9 9h54q0 17 -1 35zM184 177v-22h27v22h-27zM145 148l-5 -23h29q2 14 2 23h-26zM175 100q35 -24 43 -35t2 -21t-15 8t-33 46zM70 198q0 29 -1 48l23 -11l-8 -5v-32h14l9 10l15 -17h-38v-40h20l13 12
l16 -19h-54l17 -8l-7 -6v-28h11l10 11l15 -18h-36v-49q24 -15 65.5 -17t93.5 4v-4q-15 -4 -18 -16q-25 -1 -64 0.5t-69 15.5t-50 37q-7 -30 -36 -58l-4 2q20 27 27 56.5t6 57.5l21 -9l-6 -7q-2 -17 -5 -36q11 -11 25 -19v91h-32q-10 0 -19 -2l-9 9h55v40h-13q-10 0 -19 -2
l-9 9h41z" />
  </g>

</svg>
