<?xml version="1.0" standalone="no"?>
<!DOCTYPE svg PUBLIC "-//W3C//DTD SVG 1.1//EN" "http://www.w3.org/Graphics/SVG/1.1/DTD/svg11.dtd" >
<svg xmlns="http://www.w3.org/2000/svg" xmlns:xlink="http://www.w3.org/1999/xlink" version="1.1" viewBox="0 -205 1024 1024">
  <g transform="matrix(1 0 0 -1 0 819)">
   <path fill="currentColor"
d="M566 974l78 -28q6 -6 4 -8q-1 -3 -4 -6l-30 -14v-758l4 -89q0 -14 -20 -26q-18 -13 -36 -12l4 127v270h-86q4 -118 -28 -218q-31 -96 -130 -177l-8 12q75 84 100 177q23 92 20 206h-22q-22 0 -38 -8l-24 36h216v158h-94l-26 -32l-56 42l26 26v266l78 -32q6 -6 -2 -12
l-28 -12v-218h102v330v0v0zM630 610h154v366l80 -30q8 -3 8 -12q2 -3 -4 -6l-36 -14v-304h76l32 38l54 -48q3 -4 4 -10q1 -7 -16 -8h-150v-396h58l36 42l54 -52q6 -4 4 -10q-1 -6 -16 -6h-238q-22 1 -58 -10l-18 36h130v396h-78q-21 0 -56 -6l-20 34v0v0zM64 878
q62 -66 80 -108q15 -42 12 -62q-4 -19 -14 -28q-10 -8 -22 -6q-10 3 -16 18q-4 15 -4 36t-14 64q-12 39 -36 78l14 8v0v0zM224 630h60l34 44l48 -50q3 -3 4 -8q4 -12 -10 -12h-136v-80q49 -24 80 -48q30 -25 40 -50q6 -24 -2 -38q-9 -16 -24 -14q-14 2 -22 22q-6 18 -18 46
q-12 27 -54 58v-344l4 -91q0 -12 -20 -28q-18 -12 -36 -12l4 135v330q-42 -96 -66 -146q-25 -48 -82 -132l-14 10q48 93 90 192q39 99 64 190h-70q-22 0 -58 -8l-14 34h150v366l72 -34q3 -1 4 -2q10 -6 0 -14l-28 -18v-298v0v0zM246 678q42 131 60 206l64 -30q10 -9 2 -14
q-9 -3 -18 -8q-8 -6 -16 -14q-7 -7 -76 -148l-16 8v0v0z" />
  </g>

</svg>
