<?xml version="1.0" standalone="no"?>
<!DOCTYPE svg PUBLIC "-//W3C//DTD SVG 1.1//EN" "http://www.w3.org/Graphics/SVG/1.1/DTD/svg11.dtd" >
<svg xmlns="http://www.w3.org/2000/svg" xmlns:xlink="http://www.w3.org/1999/xlink" version="1.1" viewBox="0 -144 1024 1024">
  <g transform="matrix(1 0 0 -1 0 880)">
   <path fill="currentColor"
d="M861 97l-62 32l-58 33l-53 34l-46 36l-42 38l-36 39l-30 41l-11 19v-295l-64 -32v413l-47 -5l-52 -6l-53 -4l-55 -2l-57 -1v10l210 43l94 22l86 26l73 26h1l5 2l3 -9l48 -42l1 -17l-22 10l-51 -15l-43 -11l-44 -9l-33 -6v-55l36 -43l33 -33l38 -32l6 -4l65 40l48 33
l41 35l35 34l14 18l3 2l45 -46l5 -19l-21 5l-25 -21l-23 -16l-24 -15l-53 -29l-29 -12l-30 -12l-31 -9l-4 -1l20 -14l46 -30l53 -29l56 -28l62 -27l102 -41l-62 -51zM337 269l42 -50l2 -19l-20 7l-42 -30l-32 -19l-34 -18l-35 -16l-37 -14l-38 -14l-40 -11l-41 -9l-43 -8
l-3 10l114 51l67 36l32 19l29 20l54 42l21 18l-1 1zM310 416l42 -49l2 -20l-19 7l-38 -25l-59 -33l-31 -15l-32 -13l-33 -11l-34 -11l-36 -8l-37 -6l-3 9l96 48l58 33l53 35l49 38l18 17zM254 634l-4 7l-6 9l-7 8l-10 9l-12 8l-30 18l-18 9l-4 2l-13 -11l-34 -24l-37 -21
l-40 -18l-5 8l33 27l31 27l29 27l25 28l23 29l20 30l17 31l15 32l12 33l4 14h-207v22h387l53 53l65 -53v-22h-231l-14 -36l-17 -36l-16 -28h157l32 27l59 -48l-26 -16l-9 -4l-10 -32l-24 -52l-30 -48l-36 -43l-43 -39l-47 -35l-54 -30l-59 -26l-65 -21l-70 -16l-3 9l66 26
l60 28l54 30l47 33l41 36l35 38l29 40l23 44l18 46l8 32h-168l-12 -18l-26 -30l-29 -28l-4 -4l15 -1l19 -3l18 -4l16 -5l16 -5l14 -7l13 -8l12 -10l11 -11l4 -24l-15 -20l-24 -3l-20 14zM897 980l60 -48l-27 -22v-316l-65 -33v65h-304v21h304v141h-286v21h286v123h-299v21
h299z" />
  </g>

</svg>
