<?xml version="1.0" standalone="no"?>
<!DOCTYPE svg PUBLIC "-//W3C//DTD SVG 1.1//EN" "http://www.w3.org/Graphics/SVG/1.1/DTD/svg11.dtd" >
<svg xmlns="http://www.w3.org/2000/svg" xmlns:xlink="http://www.w3.org/1999/xlink" version="1.1" viewBox="0 -205 1024 1024">
  <g transform="matrix(1 0 0 -1 0 819)">
   <path fill="currentColor"
d="M666 968l92 -36q3 -4 4 -8q0 -3 -6 -6l-40 -18v-342h152v274l78 -32q6 -1 4 -10q-3 -3 -32 -18v-176l4 -90q1 -12 -16 -24q-18 -13 -38 -14v62h-152v-397h170v289l84 -34q6 -1 4 -10q0 -4 -38 -20v-210l4 -83q0 -12 -20 -24q-17 -13 -34 -14v78h-374l-34 -36l-60 48
l32 23v286l88 -26q8 -7 -4 -16l-34 -18v-233h166v397h-138l-32 -32l-54 52l26 16v268l84 -32q9 -4 4 -10q0 -6 -36 -18v-216h146v410v0v0zM202 980l68 -30q20 -6 20 -12q1 -6 -40 -30v-294q64 75 116 174q72 -39 70 -48q-3 -7 -8 -8q-6 1 -24 -4q-16 -6 -58 -50
q-40 -43 -98 -94q0 -114 -8 -198q54 -28 102 -70q47 -43 58 -70q10 -25 8 -46q-3 -19 -12 -28t-26 -6q-16 2 -26 44q-10 39 -34 78q-22 36 -74 78q-12 -102 -60 -186q-44 -82 -148 -161l-10 10q80 83 116 151q33 68 48 140q16 72 20 252v408v0v0zM110 736h16q12 -93 4 -156
q-9 -61 -30 -82q-20 -22 -40 -20q-21 3 -26 18q-5 16 12 32q17 15 38 58q20 42 26 150v0v0v0z" />
  </g>

</svg>
