<?xml version="1.0" standalone="no"?>
<!DOCTYPE svg PUBLIC "-//W3C//DTD SVG 1.1//EN" "http://www.w3.org/Graphics/SVG/1.1/DTD/svg11.dtd" >
<svg xmlns="http://www.w3.org/2000/svg" xmlns:xlink="http://www.w3.org/1999/xlink" version="1.1" viewBox="0 -36 256 256">
  <g transform="matrix(1 0 0 -1 0 220)">
   <path fill="currentColor"
d="M65 179h19l8 8l13 -13l-8 -6q0 -64 1 -76l-13 -6v7h-48v-7l-13 -6q1 21 1 91q-5 -10 -14 -20l-2 3q16 31 24.5 56.5t9.5 36.5l19 -12q-6 -1 -14 -20h26l7 10l14 -14q-9 0 -30 -32zM32 183l6 -4h21l15 29h-28q-6 -10 -14 -25zM37 139h17v33h-17v-33zM66 139h19v33h-19v-33
zM37 100h17v32h-17v-32zM66 100h19v32h-19v-32zM30.5 40.5q-1.5 -8.5 -5 -12t-10.5 -3.5t1 12.5t11 33.5h4q1 -22 -0.5 -30.5zM44 74q14 -18 14.5 -28t-5 -15.5t-6 9t-6.5 33.5zM62 78q21 -17 21 -26.5t-4.5 -14t-6.5 6t-12 31.5zM83 84q17 -12 22 -19.5t-0.5 -17t-8 2
t-16.5 32.5zM156 234l-8 -4q-28 -40 -42 -49l-3 2q28 34 36 64zM135 18l-14 -11q1 24 1 47v87q-4 -9 -22 -24l-2 3q13 16 25 39t20 47l17 -14l-9 -4q-8 -12 -18 -29l9 -6l-8 -5v-96q0 -17 1 -34zM159 167.5q5 16.5 5.5 32.5t-0.5 38l13 -10h30l6 10l13 -13l-7 -6v-37
q0 -19 4 -20t7.5 -0.5t7 3t8 -5.5t-1 -8h-12.5h-12q-14 -1 -14 19v51h-29q1 -32 -6.5 -52.5t-25.5 -37.5l-3 1q12 19 17 35.5zM214 135l8 11l14 -15l-8 -5q-10 -38 -28 -68q21 -24 48 -31v-4q-10 -1 -16 -10q-21 13 -40 36q-23 -27 -54 -41l-2 4q31 21 49 47q-13 28 -18 69
l-9 -4l-7 11h63zM193 70q15 26 22 58h-42q7 -38 20 -58z" />
  </g>

</svg>
