<?xml version="1.0" standalone="no"?>
<!DOCTYPE svg PUBLIC "-//W3C//DTD SVG 1.1//EN" "http://www.w3.org/Graphics/SVG/1.1/DTD/svg11.dtd" >
<svg xmlns="http://www.w3.org/2000/svg" xmlns:xlink="http://www.w3.org/1999/xlink" version="1.1" viewBox="0 -36 256 256">
  <g transform="matrix(1 0 0 -1 0 220)">
   <path fill="currentColor"
d="M131 214q17 10 23 19l11 -14q-8 -2 -33 -10v-29h14l9 9l11 -16h-34v-28h37v50v25l-1 26l20 -10l-6 -6v-85h38v30q-12 0 -23 -3l-9 9h32v32h-1q-13 0 -24 -3l-9 9h33l8 10l14 -11l-7 -7v-38v-19l1 -19l-15 -5v8h-88v-3l-14 -5l1 22v43l-1 25zM142 64l-10 12l8 6l11 26h-4
h-11q-10 0 -19 -2l-9 9h111l14 11l15 -18h-81l-15 -30h62l7 12l16 -12l-7 -5q-10 -42 -16.5 -51t-24.5 -13q2 14 -27 25v5q33 -10 39 -7t14 39h-64zM32 60.5q-4 15.5 -16 36.5l2 3q16 -13 24.5 -23t1 -21t-11.5 4.5zM90 167l16 -17h-37v-29h10l13 10l14 -17h-37v-53
q10 13 25 47l15 -15l-9 -6q-13 -14 -31 -33v-11l44 9l1 -4q-60 -18 -89 -31l-11 17q17 1 42 8v72h-13q-12 0 -21 -2l-9 9h43v29h-8q-4 0 -10 -2l-6 5q-11 -14 -22 -24l-3 2q34 53 53 116l19 -10l-7 -5q-4 -9 -6 -13q23 -8 33 -14t6 -18.5t-12 0t-28 28.5q-17 -37 -30 -58h43
z" />
  </g>

</svg>
