<?xml version="1.0" standalone="no"?>
<!DOCTYPE svg PUBLIC "-//W3C//DTD SVG 1.1//EN" "http://www.w3.org/Graphics/SVG/1.1/DTD/svg11.dtd" >
<svg xmlns="http://www.w3.org/2000/svg" xmlns:xlink="http://www.w3.org/1999/xlink" version="1.1" viewBox="0 -52 256 256">
  <g transform="matrix(1 0 0 -1 0 204)">
   <path fill="currentColor"
d="M26 137q-6 0 -11 -4l-9 9h77v22h-36q-7 0 -11 -4l-9 8h56v13q0 4 -7 10l2 3l22 -9q3 0 1 -2q-4 -2 -7 -5v-10h24l8 10l16 -12q4 -2 -2 -2h-46v-22h63v15v25q-1 3 -7 8l2 3l24 -9l2 -1q1 -1 -1 -2q-4 -1 -9 -4q-1 -20 1 -35h47l8 10l18 -13q4 -2 -1 -2h-72v-3
q3 -39 18 -65q1 2 4 6q6 8 8 12q10 16 8 21q0 3 -3 7l2 2l19 -10l2 -2q0 -1 -2 -2q-6 0 -9 -8q-10 -19 -24 -34q5 -7 9 -13q7 -7 18 -11l1 -1q6 -3 8 2q1 2 1 3q1 1 1 2t1 3q2 12 4 25l4 -1q-3 -28 -3 -33q0 -6 2 -12q3 -5 2 -7q-26 1 -49 23q-5 5 -8 11q-21 -17 -51 -28
l-1 2q29 14 48 34q-16 28 -21 74v3h-132zM39 58l7 -6h63l5 6l12 -6l2 -2l-2 -1l-5 -3v-15l1 -8q0 -6 -11 -6v7h-62v-4q0 -7 -12 -8q2 7 2 15v23q0 3 -3 6zM79 253l22 -8q4 -1 2 -2q-5 -3 -8 -6v-12h64v13q0 4 -7 10l2 3l22 -8l1 -1q2 0 1 -1q-5 -3 -8 -6v-10h51l8 10l17 -13
q4 -2 -2 -2h-74v-6l1 -5q0 -5 -4 -8q-3 -1 -10 -3v3q2 8 2 16v3h-64v-8l1 -6q0 -5 -4 -8q-1 -1 -4 -1q-3 -1 -5 -1v7q1 6 1 11v6h-54q-7 0 -11 -4l-9 9h74v15q0 4 -7 10zM49 28h62v20h-62v-20zM17 109h62q-1 0 -1 3q-1 6 -5 9q-4 4 -12 8l1 2q22 -5 26 -15q2 -5 -1 -7h32
l7 8l17 -10q1 -1 1 -2t-2 -1h-103q-6 1 -13 -3zM32 90h76l6 7l13 -9q3 -2 -1 -2h-72q-9 0 -15 -2zM32 72h75l6 7l14 -8q1 -1 1 -2t-2 -1h-72q-7 0 -15 -2zM189 187l2 3q20 -7 25 -18q8 -14 -2 -17q-4 0 -6 6q0 5 -4 11q-3 8 -15 15z" />
  </g>

</svg>
