<?xml version="1.0" standalone="no"?>
<!DOCTYPE svg PUBLIC "-//W3C//DTD SVG 1.1//EN" "http://www.w3.org/Graphics/SVG/1.1/DTD/svg11.dtd" >
<svg xmlns="http://www.w3.org/2000/svg" xmlns:xlink="http://www.w3.org/1999/xlink" version="1.1" viewBox="0 -154 1024 1024">
  <g transform="matrix(1 0 0 -1 0 870)">
   <path fill="currentColor"
d="M413 420l4 14q81 -29 111 -54q31 -24 44 -49q24 -57 -12 -70q-17 -3 -28 32q-11 34 -35 64q-24 28 -84 63zM157 345q15 -163 -57 -226q-34 -28 -51 -2q-16 25 16 48q32 22 51 64q20 43 24 116h17zM782 352l4 14q161 -105 171 -167q19 -65 -20 -75q-19 -1 -27 35
q-6 36 -34 85q-27 49 -94 108zM341 389q7 -6 -1 -9q-17 -2 -35 -17v-188q1 -56 17 -66q17 -11 48 -13q32 -3 147 -4q110 1 154 7q50 12 54 44q7 48 10 127h15l2 -77q2 -53 33 -68q-19 -38 -34 -48q-14 -10 -43 -18q-29 -6 -179 -7q-136 1 -171 4q-106 2 -99 95v221
q-3 23 -30 46l8 10zM263 988l53 -42h270l37 45l59 -51q12 -11 -6 -16l-25 -13v-291q0 -34 24 -37q77 -4 128 6q50 12 54 44q7 48 10 127h15l2 -77q2 -53 33 -68q-19 -38 -34 -48q-14 -10 -43 -18q-29 -6 -156 -7q-29 1 -48 8q-31 13 -31 52v324h-280q7 -217 -39 -310
q-47 -93 -211 -138l-4 14q125 53 172 143q46 90 36 299q-7 21 -29 41z" />
  </g>

</svg>
