<?xml version="1.0" standalone="no"?>
<!DOCTYPE svg PUBLIC "-//W3C//DTD SVG 1.1//EN" "http://www.w3.org/Graphics/SVG/1.1/DTD/svg11.dtd" >
<svg xmlns="http://www.w3.org/2000/svg" xmlns:xlink="http://www.w3.org/1999/xlink" version="1.1" viewBox="0 -205 1024 1024">
  <g transform="matrix(1 0 0 -1 0 819)">
   <path fill="currentColor"
d="M149 365h56v141h-56v-141zM147 705h74q0 2 1 3q27 75 49 142h-94q-29 -65 -59 -122q13 -11 29 -23zM253 537h60v137h-60v-137zM205 674h-56v-137h56v137zM253 365h60v141h-60v-141zM839 900q6 4 13 13l24 35q8 9 15 0q29 -26 57 -54q11 -12 10 -19q-2 -8 -15 -9h-175
q-33 -57 -73 -105q51 -47 73 -102q11 -26 18 -60q48 50 88 122q4 9 11 5q36 -17 54 -29q6 -5 6 -9q-2 -5 -18 -6q-13 -2 -50 -36q-41 -39 -84 -70q-2 -1 -2 -2q3 -21 6 -46q1 0 2 -1q86 -75 129 -136q30 -44 27 -66q-2 -24 -18 -36q-17 -12 -23 -12q-7 1 -11 23
q-20 63 -47 114q-26 47 -56 81q9 -97 0 -173q-12 -91 -34 -116q-26 -38 -68 -56q-13 -6 -17 1q-12 20 -36 38t-69 34q-12 5 -11 14q0 8 15 7q90 -13 115 -3q18 6 28 22q12 14 18 54q10 65 11 122q-53 -52 -102 -95q-52 -40 -113 -71q-14 -7 -18 3q-5 9 5 16q53 34 107 86
q62 62 120 147q-5 48 -12 87q-48 -60 -97 -106q-45 -40 -97 -71q-13 -8 -19 1q-5 9 4 16q46 35 91 86q52 61 98 145q-15 33 -37 63q-10 -11 -20 -21q-55 -53 -139 -108q-14 -8 -20 -1q-9 13 3 20q75 56 115 101q58 65 89 129h-89q-27 0 -61 -7q-5 -1 -6 2q-13 20 -23 36
q-6 10 7 7q61 -6 68 -7h217q12 0 16 3zM396 212q15 4 16 -5q2 -12 -14 -16q-133 -50 -221 -77q-42 -10 -55 -28q-7 -9 -11 -9q-4 -1 -7 8q-10 26 -31 45q-12 11 -11 14q2 3 12 4q75 7 322 64zM361 537h51q6 1 10 5l23 26q6 8 13 2q33 -24 61 -49q7 -5 1 -9q-29 -19 -30 -22
q-3 -6 -3 -22v-257q1 -15 8 -22q29 -24 71 -40q59 -23 134 -26q124 -3 253 13l20 2q8 2 9 -7t-14 -12q-16 -5 -29 -15q-16 -13 -20 -32q-3 -8 -13 -7q-57 4 -96 1q-89 -3 -141 4q-47 9 -78 22q-34 13 -95 68q-18 16 -27 15q-6 0 -12 -6q-18 -18 -36 -42q-20 -25 -29 -50
q-4 -11 -11 -2q-19 21 -41 34q-12 6 -3 10q52 30 89 64q12 14 13 30v293h-78v-106q0 -32 6 -87q2 -12 -7 -16q-35 -20 -42 -20q-5 1 -5 11v46h-164v-47q-1 -8 -5 -9q-10 -4 -32 -13q-15 -6 -14 4q2 26 3 51v362q0 8 -1 14q-18 -27 -37 -57q-9 -12 -16 -6q-8 7 -1 17
q48 78 79 187q30 107 29 141q-1 18 17 9q40 -19 56 -29q13 -6 12 -12q0 -6 -9 -5q-9 0 -19 -10q-8 -9 -21 -49q-1 0 -1 -1h86q10 0 14 6l28 30q3 4 7 4q11 0 56 -60q8 -12 -7 -13q-8 -1 -14 -2q-53 -9 -114 -141h48q6 0 9 4l18 28q7 8 14 1q29 -19 57 -41q6 -6 5 -12
q-3 -6 -13 -7q-12 -2 -18 -12q-4 -9 -4 -22v-107zM405 889q8 6 17 -7q50 -64 71 -113q14 -34 10 -50q-8 -24 -27 -31q-18 -7 -24 -6q-6 3 -6 25q-2 46 -12 85q-12 47 -31 81q-5 9 2 16z" />
  </g>

</svg>
