<?xml version="1.0" standalone="no"?>
<!DOCTYPE svg PUBLIC "-//W3C//DTD SVG 1.1//EN" "http://www.w3.org/Graphics/SVG/1.1/DTD/svg11.dtd" >
<svg xmlns="http://www.w3.org/2000/svg" xmlns:xlink="http://www.w3.org/1999/xlink" version="1.1" viewBox="0 -205 1024 1024">
  <g transform="matrix(1 0 0 -1 0 819)">
   <path fill="currentColor"
d="M520 832h216v140l76 -24q7 -3 2 -8q0 -3 -32 -24v-84h148l24 28l46 -36l4 -4q9 -12 -6 -14h-216v-66h92l22 28l50 -30q12 -6 12 -14q1 -5 -28 -28v-190l4 -72q1 -11 -16 -22q-18 -10 -32 -10v90h-104v-58l4 -28q3 -13 -18 -26q-18 -13 -36 -10l4 54v68h-106v-86
q0 -13 -18 -26q-15 -10 -32 -10l4 86v314l46 -30h106v66h-136q-21 0 -56 -8l-24 34v0v0zM630 518h106v82h-106v-82v0v0zM782 600v-82h104v82h-104v0v0zM630 626h106v88h-106v-88v0v0zM782 714v-88h104v88h-104v0v0zM532 314h306v84l68 -24q12 -3 10 -14q-3 -6 -32 -18v-28
h44l32 36l50 -46q6 -16 -6 -16h-120v-195q0 -36 -18 -52q-17 -17 -52 -26q-9 31 -36 40q-25 10 -86 26l4 20q81 -18 112 -16q30 2 30 22v181h-236q-6 0 -54 -8l-16 34v0v0zM828 954l6 8q50 -22 70 -38q17 -16 20 -32q0 -15 -8 -26q-7 -10 -22 -8t-18 20q-3 15 -14 34
q-11 18 -34 42v0v0zM600 266l8 10q54 -23 84 -46q27 -23 30 -46q3 -22 -8 -34q-9 -11 -26 -10q-17 2 -22 26q-3 24 -20 48q-16 24 -46 52v0v0zM484 906q9 -6 -6 -12t-24 -12q-10 -6 -40 -62q-31 -57 -88 -162l100 -2q21 47 52 128l70 -38q4 -9 -12 -12q-9 -3 -20 -8
q-12 -4 -42 -64q-30 -61 -132 -226l144 16q-12 37 -44 92l12 10q32 -28 58 -62q27 -34 34 -58q6 -24 0 -36q-7 -12 -16 -18q-6 -4 -18 -2q-12 3 -14 16q0 13 -6 38q-77 -12 -118 -24t-76 -36l-34 64q23 2 56 16q50 77 98 184q-51 -6 -72 -14q-19 -5 -46 -22l-32 60
q27 6 36 12q5 6 38 78q30 72 76 192l66 -36v0v0zM304 304h20v-104q1 -45 -10 -73q-10 -29 -28 -38q-18 -8 -30 -2q-12 7 -12 22q0 16 18 33q15 18 28 54q11 36 14 108v0v0zM370 310l12 6q34 -45 50 -90q15 -43 12 -70q-1 -26 -16 -37q-13 -9 -28 0q-13 9 -8 47q3 37 -2 68
q-6 30 -20 76v0v0zM452 326l12 8q50 -46 70 -76q18 -30 18 -56t-14 -34q-13 -9 -26 -2q-12 7 -14 38q0 29 -12 56q-10 27 -34 66v0v0zM64 860l52 -40h80l26 38l50 -36q9 -6 10 -14q1 -4 -28 -26v-366l4 -100q-1 -12 -16 -24q-13 -13 -34 -16v64h-98v-72q0 -12 -18 -24
q-15 -12 -32 -12l4 138v490v0v0zM110 370h98v420h-98v-420v0v0z" />
  </g>

</svg>
