<?xml version="1.0" standalone="no"?>
<!DOCTYPE svg PUBLIC "-//W3C//DTD SVG 1.1//EN" "http://www.w3.org/Graphics/SVG/1.1/DTD/svg11.dtd" >
<svg xmlns="http://www.w3.org/2000/svg" xmlns:xlink="http://www.w3.org/1999/xlink" version="1.1" viewBox="0 -205 1024 1024">
  <g transform="matrix(1 0 0 -1 0 819)">
   <path fill="currentColor"
d="M444 756h222v222l88 -34q9 -7 4 -10q0 -3 -8 -6l-32 -18v-154h122l38 52l62 -62q3 -3 4 -8q1 -9 -10 -8h-216v-222h162l40 52l68 -66q3 -12 -12 -12h-486q-21 -1 -44 -10l-24 36h244v222h-148q-21 0 -50 -12l-24 38v0v0zM728 440q7 -10 -4 -16q-17 0 -28 -6
q-9 -5 -44 -64q-33 -58 -140 -221l322 7q-28 74 -98 164l12 10q62 -51 110 -108q45 -57 54 -89q9 -33 -2 -58q-13 -21 -34 -18q-20 4 -22 28q-3 24 -12 48q-177 -9 -252 -22q-75 -9 -104 -34l-40 72l44 17q66 117 102 196q35 77 56 130l80 -36v0v0zM48 852h340l36 52l60 -58
q3 -3 4 -8q0 -12 -12 -12h-190q-51 -147 -90 -240h140l24 36l56 -40q6 -6 6 -8q-1 -6 -28 -26v-304l4 -96q1 -14 -18 -27q-17 -9 -34 -12v87h-146v-71q0 -18 -18 -30q-19 -13 -34 -14l4 141v268q-60 -113 -116 -178l-12 12q59 102 110 222t96 280h-98q-22 0 -70 -8l-14 34v0
v0zM200 222h146v338h-146v-338v0v0z" />
  </g>

</svg>
