<?xml version="1.0" standalone="no"?>
<!DOCTYPE svg PUBLIC "-//W3C//DTD SVG 1.1//EN" "http://www.w3.org/Graphics/SVG/1.1/DTD/svg11.dtd" >
<svg xmlns="http://www.w3.org/2000/svg" xmlns:xlink="http://www.w3.org/1999/xlink" version="1.1" viewBox="0 -205 1024 1024">
  <g transform="matrix(1 0 0 -1 0 819)">
   <path fill="currentColor"
d="M388 700h238v282l84 -40q6 -2 6 -10q0 -3 -6 -6l-32 -12v-214h186l36 52l66 -62q3 -4 4 -10q0 -7 -12 -8h-256q21 -102 54 -180q33 -79 72 -136t90 -90q48 -33 82 -36v-20q-35 3 -58 -2q-23 -6 -46 -24q-79 90 -110 144q-29 54 -58 124q-28 71 -50 188v-450l4 -121
q0 -12 -20 -28q-22 -15 -40 -16l4 173v376q-58 -142 -140 -260q-82 -117 -178 -199l-10 12q102 116 168 231q67 113 146 314h-152q-21 0 -56 -8l-16 36v0v0zM728 900l6 12q63 -24 90 -38q27 -13 42 -34q12 -18 6 -42q-7 -24 -26 -24t-28 24q-10 21 -28 46q-18 23 -62 56v0v0
zM194 978l80 -36q8 -4 8 -10q0 -4 -36 -26v-268q63 73 94 146q65 -36 62 -44q-3 -9 -8 -8q-7 -1 -16 -4q-10 -4 -44 -38q-33 -34 -90 -86q1 -115 -10 -190q51 -33 82 -66q29 -32 38 -58q10 -27 8 -48q-3 -21 -14 -30q-9 -9 -24 -6q-14 2 -22 44q-6 41 -18 70t-54 76
q-13 -93 -58 -180q-42 -83 -134 -167l-12 12q78 95 108 163q29 69 44 142q14 75 16 216v396v0v0zM128 748q7 -70 0 -124q-7 -52 -28 -74q-20 -21 -40 -18q-21 0 -26 18q-4 14 14 32q18 15 36 48t30 118h14v0v0z" />
  </g>

</svg>
