<?xml version="1.0" standalone="no"?>
<!DOCTYPE svg PUBLIC "-//W3C//DTD SVG 1.1//EN" "http://www.w3.org/Graphics/SVG/1.1/DTD/svg11.dtd" >
<svg xmlns="http://www.w3.org/2000/svg" xmlns:xlink="http://www.w3.org/1999/xlink" version="1.1" viewBox="0 -36 256 256">
  <g transform="matrix(1 0 0 -1 0 220)">
   <path fill="currentColor"
d="M37 244q16 -12 24 -22.5t-3 -23.5h19l11 12l15 -19h-68q-10 0 -19 -2l-9 9h45q-4 21 -18 44zM33 41h37v43h-37v-43zM61 162l14 10l15 -17h-45q-11 1 -19 -2l-7 9h42zM60 125l13 11l15 -18h-41q-11 1 -19 -2l-8 9h40zM83 53q0 -11 1 -26l-14 -6v13h-37v-13l-14 -7
q1 21 1 43t-1 42l15 -8h35l8 10l13 -13l-7 -6v-29zM74 9q39 52 37 124v42q0 22 -1 41l16 -7h91l13 13l18 -20h-124v-69q1 -84 -48 -126zM174.5 172q3.5 -7 -3.5 -14.5t-9.5 5t-13.5 28.5l2 2q21 -14 24.5 -21zM142 131l22 -9l-8 -5v-33h22v61h-23q-10 0 -19 -2l-9 9h66
q12 25 16 44l19 -12q-7 -4 -13 -11t-15 -21h15l15 12l15 -19h-53v-61h24v46l20 -10l-7 -6q0 -27 1 -39l-14 -5v7h-24q-4 -24 -17 -40t-52 -30l-2 3q23 11 38 25t19 42h-23l-5 -6l-12 10l5 5q0 34 -1 45zM164 246q26 -12 27 -19.5t-4.5 -12t-8.5 5.5t-15 24z" />
  </g>

</svg>
