<?xml version="1.0" standalone="no"?>
<!DOCTYPE svg PUBLIC "-//W3C//DTD SVG 1.1//EN" "http://www.w3.org/Graphics/SVG/1.1/DTD/svg11.dtd" >
<svg xmlns="http://www.w3.org/2000/svg" xmlns:xlink="http://www.w3.org/1999/xlink" version="1.1" viewBox="0 -205 1024 1024">
  <g transform="matrix(1 0 0 -1 0 819)">
   <path fill="currentColor"
d="M244 526h612l28 30l48 -34q3 -3 4 -8q-1 -12 -16 -12h-328v-48h286l28 22l52 -40q12 -9 12 -14q-3 -6 -18 -8q-18 -6 -36 -20q-18 -13 -48 -52l-16 8l34 78h-294v-72l4 -46q0 -15 -18 -30t-38 -14l4 92v70h-254q-6 -57 -18 -72q-12 -16 -26 -22q-13 -7 -28 -2
q-13 5 -16 20q-4 14 16 26q18 12 30 30q10 17 20 68h18l2 -22h256v48h-216q-21 0 -68 -8l-16 32v0v0zM306 382h194v-26h-194v26v0v0zM642 382h190v-26h-190v26v0v0zM306 310h194v-26h-194v26v0v0zM642 310h194v-26h-194v26v0v0zM234 248l38 -22h90l24 28l34 -24
q12 -6 12 -14q1 -5 -16 -16v-89l4 -62q-3 -10 -18 -20q-15 -9 -32 -10v38h-90v-14q-1 -10 -16 -20q-16 -9 -34 -10l4 94v141v0v0zM280 83h90v117h-90v-117v0v0zM478 246l38 -22h98l24 28l36 -24q12 -6 12 -14q0 -5 -18 -16v-89l4 -62q-3 -10 -18 -20q-15 -9 -32 -10v38h-98
v-14q-1 -10 -16 -20q-16 -9 -34 -10l4 94v141v0v0zM524 81h98v117h-98v-117v0v0zM734 246l38 -20h98l24 26l38 -24q12 -6 12 -14q0 -6 -20 -20v-85l4 -62q-3 -10 -18 -20q-15 -9 -32 -10v38h-98v-14q-1 -10 -16 -20q-16 -9 -34 -10l4 94v141v0v0zM780 81h98v119h-98v-119v0
v0zM858 896l42 50l64 -62l2 -4q1 -7 -4 -8h-298v-50h190l20 20l56 -24q8 -4 8 -10q0 -2 -24 -22v-58q-1 -12 -10 -14q-24 -12 -42 -12v22h-676q3 -64 0 -226q-4 -162 -34 -282q-30 -118 -96 -197l-12 10q50 89 74 229q23 137 20 422v254l60 -38h660v0v0zM188 748h180v50
h-180v-50v0v0v0zM418 748h196v50h-196v-50v0v0zM664 748h198v50h-198v-50v0v0zM614 822v50h-196v-50h196v0v0zM368 822v50h-180v-50h180v0v0zM452 978l6 14q48 -7 78 -16t42 -24t6 -32q-7 -16 -26 -16q-18 -1 -26 14q-9 14 -24 28t-56 32v0v0zM608 714q62 -16 68 -22
q4 -4 -6 -10l-16 -12v-22q84 21 180 60q38 -40 40 -46t-4 -6q-7 -1 -22 2q-13 3 -62 -6q-48 -9 -132 -24v-10q-1 -9 14 -12q12 -1 22 -2h186l22 4q18 5 24 20q7 15 14 100l18 -4l2 -44q3 -46 30 -52q-7 -23 -22 -40q-12 -15 -42 -20l-28 -4h-202q-27 0 -44 4q-18 3 -32 22
q-9 21 -8 28v96v0v0zM280 712l54 -12q9 0 10 -6t-16 -14v-10h150l28 36l46 -46q2 0 2 -6q1 -7 -4 -8h-222v-44l222 26l6 -18q-172 -25 -206 -40q-31 -13 -58 -34l-42 50q15 4 30 14v112v0v0z" />
  </g>

</svg>
