<?xml version="1.0" standalone="no"?>
<!DOCTYPE svg PUBLIC "-//W3C//DTD SVG 1.1//EN" "http://www.w3.org/Graphics/SVG/1.1/DTD/svg11.dtd" >
<svg xmlns="http://www.w3.org/2000/svg" xmlns:xlink="http://www.w3.org/1999/xlink" version="1.1" viewBox="0 -200 999 1000">
  <g transform="matrix(1 0 0 -1 0 800)">
   <path fill="currentColor"
d="M782 686l-12 -63v-222h90l37 39l53 -61h-180v-351q-6 -13 -20.5 -20.5t-23.5 -9.5v381h-101l-50 -10l-16 32h167v309zM774 965l-11 -59v-42h53l36 40l54 -61h-257l-38 -18l-26 39h138v40l-11 94zM565 472q12 36 20.5 68t15 66.5t12 73.5t11.5 88l48 -47l-31 -104
q15 -12 26 -20.5t19 -17t13 -18t9 -24.5q0 -3 0.5 -6t0.5 -5q0 -27 -11.5 -38.5t-16.5 -11.5t-8 10.5t-6.5 28.5t-10.5 40.5t-20 46.5q-11 -32 -25 -69.5t-34 -66.5zM803 491q19 57 28 121t14 152l56 -50l-19 -38l-16 -60q12 -11 23.5 -20.5t20.5 -20t15.5 -23t8.5 -29.5
q0 -27 -9 -38.5t-14 -11.5q-10 0 -12.5 10t-5 28t-8.5 42t-22 52q-3 -10 -8 -25t-11 -31.5t-13.5 -33.5t-15.5 -30zM264 317q20 60 38 126t33.5 134.5t27.5 137.5t19 136h-43l-39 -13l-15 36h178l38 36l56 -59h-171l50 -47l-18 -47q-7 -34 -13.5 -59.5t-12.5 -46.5
t-11.5 -40.5t-10.5 -41.5h102l31 34l42 -51l-26 -32v-401h-124v-88q-5 -16 -19.5 -23t-25.5 -10v504q-14 -48 -32.5 -96.5t-41.5 -93.5zM472 543h-78v-401h78v401zM32 476q32 54 63 118.5t57.5 133t47 138.5t32.5 135l60 -76l-37 -51q-15 -38 -25 -63l-17 -42.5t-12.5 -30
t-11.5 -25.5l32 -45l-15 -53v-571q-5 -11 -20 -18.5t-29 -17.5v633q-12 -20 -25.5 -43.5t-28 -47t-30 -45t-30.5 -36.5z" />
  </g>

</svg>
