<?xml version="1.0" standalone="no"?>
<!DOCTYPE svg PUBLIC "-//W3C//DTD SVG 1.1//EN" "http://www.w3.org/Graphics/SVG/1.1/DTD/svg11.dtd" >
<svg xmlns="http://www.w3.org/2000/svg" xmlns:xlink="http://www.w3.org/1999/xlink" version="1.1" viewBox="0 -205 1024 1024">
  <g transform="matrix(1 0 0 -1 0 819)">
   <path fill="currentColor"
d="M746 402l24 28l48 -38q8 -6 8 -12t-30 -18l-34 -78h116l28 32q64 -47 62 -52q-1 -6 -4 -8q-3 -1 -30 -16q-19 -84 -40 -119q-22 -36 -40 -52q-18 -14 -68 -32q-12 36 -30 48t-84 38l6 16q60 -17 84 -22q21 -6 42 -4q21 0 42 26q21 22 42 119h-122l-24 -26l-58 34l36 32
l32 78h-210q-13 -132 -80 -216q-64 -83 -200 -129l-6 14q111 53 168 133q53 78 68 198h-116q-20 0 -52 -8l-20 34h442v0v0zM942 476h-506v-12q-4 -11 -22 -22q-16 -10 -34 -10l4 110v204q-42 -54 -108 -120l-10 12q69 90 120 186t78 156l72 -40q2 -4 2 -8q1 -7 -10 -10
q-25 -6 -34 -14q-7 -7 -44 -64h380l32 46l62 -52q3 -3 4 -12q0 -7 -8 -8h-244v-90h134l30 42l58 -52q2 -4 2 -10q-3 -6 -8 -6h-216v-82h130l34 42l58 -50q-1 -4 2 -8q0 -10 -6 -10h-218v-92h170l36 40l62 -48q2 -4 2 -10l-4 -8v0v0zM436 502h188v92h-188v-92v0v0zM624 620
v82h-188v-82h188v0v0zM624 728v90h-188v-90h188v0v0zM588 982l8 12q60 -28 82 -46q21 -18 30 -36q6 -17 -2 -34q-7 -15 -22 -18q-12 -2 -24 6q-9 6 -12 22q-1 16 -10 38t-50 56v0v0zM346 952q12 -8 -2 -16q-27 -2 -42 -34q-52 -99 -106 -204l50 -20q15 -9 -2 -18l-20 -10
v-470l4 -113q1 -17 -22 -32q-21 -13 -36 -12l4 151v484q-75 -127 -146 -196l-12 8q66 96 150 270q81 174 102 252l78 -40v0v0z" />
  </g>

</svg>
