<?xml version="1.0" standalone="no"?>
<!DOCTYPE svg PUBLIC "-//W3C//DTD SVG 1.1//EN" "http://www.w3.org/Graphics/SVG/1.1/DTD/svg11.dtd" >
<svg xmlns="http://www.w3.org/2000/svg" xmlns:xlink="http://www.w3.org/1999/xlink" version="1.1" viewBox="0 -36 256 256">
  <g transform="matrix(1 0 0 -1 0 220)">
   <path fill="currentColor"
d="M230 240l17 -16h-206q-11 0 -22 -2l-11 9h114q0 5 -13 15l2 2q35 -4 23 -17h79zM186 217l12 5l18 -12h-142q-13 0 -25 -2l-9 9h146zM186 205l11 4l19 -11h-137q-13 0 -24 -2l-10 9h141zM187 191l8 6l13 -11l-6 -3q0 -11 1 -22l-15 -3v7h-123v-4l-15 -3q2 19 0 38l15 -5
h122zM65 172h123v12h-123v-12zM35 80h58v10h-58v-10zM74.5 152.5q1.5 -3.5 -3.5 -7.5t-8.5 1.5t-11.5 11.5l2 2q20 -4 21.5 -7.5zM101 143l13 7l13 -14h-96q-9 1 -16 -3l-9 10h95zM90 127l10 5l15 -12h-76q-9 1 -15 -2l-9 9h75zM88 113l11 4l14 -11h-73q-11 1 -15 -2l-10 9
h73zM107 73l-14 -4v4h-58v-5l-14 -3q1 10 1 19t-1 17l13 -4h58l7 6l12 -9l-5 -4q0 -7 1 -17zM158 80h58v10h-58v-10zM195 148q-6 -8 -10 -2t-11 12l1 3q26 -5 20 -13zM220 143l12 8l16 -15h-94q-10 1 -16 -3l-9 10h91zM213 127l11 6l14 -13h-76q-9 1 -16 -2l-8 9h75z
M213 113l11 5l15 -12h-76q-11 1 -16 -2l-9 9h75zM230 73l-14 -4v4h-58v-4l-14 -3q1 9 1 18t-1 16l13 -3h59l7 6l12 -8l-6 -5q0 -7 1 -17zM46 67q1 -27 -3.5 -35.5t-11 -12.5t-14 1.5t6 14t18.5 32.5h4zM113 84q23 -9 28.5 -16t5 -14.5t-5 -9t-9 9t-20.5 27.5zM195 69
q25 -11 31.5 -19t6 -15t-5 -9t-9.5 8.5t-26 32.5zM73 71l22 -10l-8 -7v-16q-1 -14 14 -13h53q13 -1 15 9.5t2 23.5h5q1 -12 3 -19.5t10 -8.5q-7 -17 -28 -17h-64q-23 -2 -23 18q0 24 -1 40z" />
  </g>

</svg>
