<?xml version="1.0" standalone="no"?>
<!DOCTYPE svg PUBLIC "-//W3C//DTD SVG 1.1//EN" "http://www.w3.org/Graphics/SVG/1.1/DTD/svg11.dtd" >
<svg xmlns="http://www.w3.org/2000/svg" xmlns:xlink="http://www.w3.org/1999/xlink" version="1.1" viewBox="0 -36 256 256">
  <g transform="matrix(1 0 0 -1 0 220)">
   <path fill="currentColor"
d="M17 169l-3 5q12 13 24.5 29.5t23.5 37.5l17 -16l-8 -1q-33 -40 -54 -55zM62 148v-134l-15 -6q1 23 1 40v80q-17 -22 -36 -38l-3 3q13 16 31 44.5t27 52.5l19 -14l-8 -3q-7 -11 -16 -25zM102 122h31l7 9l16 -13l-8 -6q-4 -40 -7.5 -57.5t-9.5 -24.5t-22 -11q0 14 -25 19v5
q29 -6 35 -3t9.5 24.5t5.5 50.5h-34l-7 -7l-12 13l7 5q6 38 6 55l13 -9h29v47h-22q-10 0 -19 -2l-9 9h50l8 9l14 -12l-8 -6v-36q0 -10 1 -19l-15 -6v9h-29zM199.5 140q5.5 -49 19.5 -79.5t28 -34.5v-4q-14 -1 -20 -8q-13 15 -25 49.5t-10 82.5q-2 -44 -16 -80t-51 -58l-3 3
q26 22 40 54t16.5 75t0.5 102l26 -12l-9 -7q-2 -34 3.5 -83z" />
  </g>

</svg>
