<?xml version="1.0" standalone="no"?>
<!DOCTYPE svg PUBLIC "-//W3C//DTD SVG 1.1//EN" "http://www.w3.org/Graphics/SVG/1.1/DTD/svg11.dtd" >
<svg xmlns="http://www.w3.org/2000/svg" xmlns:xlink="http://www.w3.org/1999/xlink" version="1.1" viewBox="0 -52 256 256">
  <g transform="matrix(1 0 0 -1 0 204)">
   <path fill="currentColor"
d="M20 159h47l6 9l15 -11l2 -2q0 -1 -3 -1h-28v-43h17l6 9l15 -12q5 -2 -1 -2h-37v-66q13 7 37 22l3 -3q-7 -5 -16 -12q-8 -6 -11 -7q-2 -1 -5 -4q-7 -5 -7 -7q-1 -1 -5 -7q-1 -3 -2 -4l-14 12q6 3 9 9v67h-22q-6 0 -11 -4l-8 9h41v43h-8q-7 0 -11 -3zM64 243l1 -1
q0 -1 -2 -2q-5 1 -8 -5q-6 -17 -14 -32h36l7 9l15 -11q2 -1 2 -2q-1 -1 -4 -1h-58q-3 -6 -6 -11q-12 -21 -27 -38l-2 2q1 1 2 4q10 17 18 33q9 16 15 34t5 21q0 1 -1 2q-2 2 -2 3l1 3zM197 252l19 -8q5 -2 2 -4q-6 0 -10 -5q-12 -22 -23 -37h23l9 10l13 -12q3 -3 -1 -5
l-5 -2v-59l1 -24q2 -10 -12 -11v14h-40v-35h54l9 11l16 -12q3 -2 2 -3q0 -1 -5 -1h-76v-32v-17q1 -8 -13 -11v9q1 18 1 29v22h-59q-6 0 -11 -3l-9 8h79v35h-40v-8q1 -9 -13 -11q2 9 2 39v68q-1 6 -5 10l4 3l11 -12h60q3 6 8 18q3 8 5 12q6 13 5 16t-3 7zM161 193h-40v-38h40
v38zM173 155h40v38h-40v-38zM161 151h-40v-37h40v37zM213 151h-40v-37h40v37zM120 248l1 3q26 -14 31 -30q3 -8 0 -13q-1 -5 -6 -5q-4 1 -5 10q0 9 -5 16q-3 7 -16 19z" />
  </g>

</svg>
