<?xml version="1.0" standalone="no"?>
<!DOCTYPE svg PUBLIC "-//W3C//DTD SVG 1.1//EN" "http://www.w3.org/Graphics/SVG/1.1/DTD/svg11.dtd" >
<svg xmlns="http://www.w3.org/2000/svg" xmlns:xlink="http://www.w3.org/1999/xlink" version="1.1" viewBox="0 -36 256 256">
  <g transform="matrix(1 0 0 -1 0 220)">
   <path fill="currentColor"
d="M92 216q0 17 -1 27l13 -8h48l9 10l12 -13l-7 -6v-95h-12v97h-51v-97h-11v85zM131 210l9 9l10 -16h-18q-10 0 -19 -2l-9 9h27zM45 130l-3 107l12 -8q19 13 22 18l12 -16h-10l-22 -8v-25h9l11 10l12 -17h-32l1 -26h10l9 10l12 -17h-31l1 -28h-13zM197 131l2 27q-9 0 -18 -2
l-9 9h27l2 27q-10 0 -19 -2l-9 9h29l2 29h-2q-10 0 -19 -2l-9 9h30l7 9l13 -14l-7 -5l-7 -94h-13zM137 182l6 7l11 -14h-20v-45h-12v45q-1 0 -11 -2l-9 9h35zM106 129q-3 -19 -16 -32.5t-47 -19.5l-1 4q26 8 37 21t13 27h14zM164 109q0 -11 10 -10h23q7 0 10.5 2t6.5 -2.5
t-0.5 -8.5t-14.5 -3h-34q-14 2 -14 16v25h13v-19zM32 133h191l9 8l16 -14q-13 -2 -29 -26l-4 2l9 23h-192q0 -14 -7 -21t-14 -2t3.5 13t11.5 29h5zM54 67q-10 0 -19 -2l-10 9h174l15 12l17 -19h-97v-27l1 -26l-16 -5l1 29v29h-66z" />
  </g>

</svg>
