<?xml version="1.0" standalone="no"?>
<!DOCTYPE svg PUBLIC "-//W3C//DTD SVG 1.1//EN" "http://www.w3.org/Graphics/SVG/1.1/DTD/svg11.dtd" >
<svg xmlns="http://www.w3.org/2000/svg" xmlns:xlink="http://www.w3.org/1999/xlink" version="1.1" viewBox="0 -36 256 256">
  <g transform="matrix(1 0 0 -1 0 220)">
   <path fill="currentColor"
d="M62.5 220q6.5 -8 0.5 -16.5t-12.5 4.5t-20.5 26l1 3q25 -9 31.5 -17zM11 183q31 -12 33 -21.5t-3.5 -15.5t-10 6t-20.5 27zM38 88.5q6 3.5 33 106.5l6 -1q-20 -88 -24 -99.5t-4.5 -23t1.5 -36t-9 -18.5t-8 22.5t3 26.5t-24 17v4q20 -2 26 1.5zM173 61l2 -4
q-35 -23 -47 -38l-12 14q6 6 6 17q0 105 -1 125l15 -8q13 2 39.5 9.5t36.5 14.5l13 -17q-19 -1 -45 -7q1 -25 3 -50h33l10 11l18 -18h-60q6 -31 18 -49.5t22 -23.5l10 32l5 -1q-3 -13 -3 -29.5t2 -23.5t-13 1.5t-30.5 29.5t-23.5 64h-36v-68zM135 160v-43h35q-2 24 -3 48z
M97 81q-10 -44 -39 -75l-3 3q20 29 27.5 65t8.5 75.5t0 63.5l14 -9h112l10 11l18 -18h-139q1 -72 -9 -116zM187 29q7 -7 0.5 -16.5t-11.5 3.5t-18 25l2 3q20 -8 27 -15zM170 234q7 -5 6.5 -11t-4.5 -11t-9.5 7t-17.5 23l2 3q16 -6 23 -11z" />
  </g>

</svg>
