<?xml version="1.0" standalone="no"?>
<!DOCTYPE svg PUBLIC "-//W3C//DTD SVG 1.1//EN" "http://www.w3.org/Graphics/SVG/1.1/DTD/svg11.dtd" >
<svg xmlns="http://www.w3.org/2000/svg" xmlns:xlink="http://www.w3.org/1999/xlink" version="1.1" viewBox="0 -143 1024 1024">
  <g transform="matrix(1 0 0 -1 0 881)">
   <path fill="currentColor"
d="M271 952q11 -10 0 -18q-23 -6 -31 -13t-13.5 -14t-28.5 -40h224l40 44l62 -53q8 -16 -9 -17h-219q41 -26 56 -39t21 -29t-3 -32t-27 -15t-21 24t-14 39t-40 52h-85q-68 -102 -130 -163l-13 11q51 78 91 152t65 148zM681 954q11 -10 0 -18q-23 -6 -30 -14t-11.5 -12
t-27.5 -43h264l32 46l62 -55q8 -16 -9 -17h-245q41 -32 59 -49t23 -33t-6 -30t-29 -11t-22 28t-16 45t-37 50h-89q-58 -86 -102 -139l-17 9q41 72 70 138t50 134zM135 500h121v228l70 -22q10 -6 2 -14l-24 -14v-64h154l30 40l58 -46q4 -8 0 -18h-242v-90h112l23 30l53 -35
q6 -2 6 -9.5t-22 -25.5v-346q2 -33 -12 -50t-52 -28q-5 23 -23 35.5t-56 24.5l4 16q44 -6 60 -9t24.5 3t6.5 18v186h-68v-74l4 -70q0 -15 -19 -26.5t-34 -11.5l4 106v76h-65v-106l4 -70q0 -15 -18.5 -25.5t-34.5 -11.5l4 98v115h-74v-184l4 -74q0 -1 -22 -14.5t-34 -11.5
l4 99v393zM131 336h74v136h-74v-136zM250 472v-136h65v136h-65zM360 472v-136h68v136h-68zM607 426q45 -96 120 -194q69 79 122 194h-242zM442 28q84 42 144 83t111 91q-73 102 -116 223l-23 1l-27 -11l-25 37h184v274q80 -28 82 -33t-2 -9t-28 -16v-62h142l30 42
q66 -52 65 -61t-17 -7h-220v-128h103l27 30q66 -46 66 -52t-5 -9t-19 -9.5t-55.5 -77.5t-100.5 -134q46 -38 87 -60t82 -36.5t80 -17.5v-18q-42 0 -58.5 -9t-26.5 -29q-66 38 -106 67t-90 73q-48 -46 -121 -87t-157 -69z" />
  </g>

</svg>
