<?xml version="1.0" standalone="no"?>
<!DOCTYPE svg PUBLIC "-//W3C//DTD SVG 1.1//EN" "http://www.w3.org/Graphics/SVG/1.1/DTD/svg11.dtd" >
<svg xmlns="http://www.w3.org/2000/svg" xmlns:xlink="http://www.w3.org/1999/xlink" version="1.1" viewBox="0 -36 256 256">
  <g transform="matrix(1 0 0 -1 0 220)">
   <path fill="currentColor"
d="M31 102h16v72h-16v-72zM59 102h17v72h-17v-72zM47 48v47h-16v-6l-14 -7q1 21 1 52.5t-1 54.5l14 -8h16q0 44 -1 60l21 -10l-8 -8v-42h17l6 7l12 -11l-6 -6v-53q0 -19 1 -24l-13 -7v8h-17v-45l23 6q-1 10 -8 31l3 2q21 -24 21 -33t-5 -15t-7 -3t-3 13q-26 -9 -42 -16
t-23 -13l-10 17q12 0 39 9zM137 243l20 -9l-6 -6v-34l11 2l1 -4q-53 -19 -54 -23l-12 15q19 2 41 9v21h-11q-10 0 -19 -2l-10 9h40q0 15 -1 22zM174 247l20 -10l-8 -7v-9h25l11 9l14 -16h-50v-20q0 -6 10 -7h27q5 1 7 25h3q-1 -25 9 -26q-6 -9 -15 -9h-42q-10 1 -11 12v58v0
zM170 178.5q6 -5.5 5 -9.5t-5 -8t-7.5 5.5t-10.5 20.5l3 2q9 -5 15 -10.5zM112 160h110l8 8l15 -14q-14 0 -28 -17l-3 1l7 15h-109q0 -6 -2 -11t-8.5 -7t-10.5 0t3.5 8.5t13.5 26.5h4v-10zM154 143q-5 -3 -17.5 -15t-43.5 -16l-1 3q20 8 31.5 17.5t14.5 20.5zM130 103
q-10 0 -19 -2l-10 9h105l12 10l14 -17h-87l-4 -17h46l8 7l13 -12l-8 -3q-2 -33 -2.5 -43.5t12.5 -10.5h15q7 0 8 10.5t1 30.5h5q0 -35 10 -38q-3 -12 -20 -14h-20q-25 -1 -25 16t3 50h-48q-6 -27 -14 -54l48 9v-3q-41 -13 -58 -24l-8 16q8 5 15.5 35.5t9.5 44.5h-2zM144 69
l1 1q20 -5 24 -11q4 -4 0 -17q-5 -5 -8 5q-4 12 -17 22v0zM186 155v-17q1 -7 17 -6q14 1 17 3t10.5 -5t-20.5 -8h-17q-20 -1 -20 16v17h13z" />
  </g>

</svg>
