<?xml version="1.0" standalone="no"?>
<!DOCTYPE svg PUBLIC "-//W3C//DTD SVG 1.1//EN" "http://www.w3.org/Graphics/SVG/1.1/DTD/svg11.dtd" >
<svg xmlns="http://www.w3.org/2000/svg" xmlns:xlink="http://www.w3.org/1999/xlink" version="1.1" viewBox="0 -36 256 256">
  <g transform="matrix(1 0 0 -1 0 220)">
   <path fill="currentColor"
d="M174 132q-3 -5 -8 -16h42q2 10 2 15l14 -5l-3 -10h4l9 9l14 -16h-28q-11 -32 -23 -48q34 -16 41.5 -24.5t4 -17t-12.5 3t-40 29.5q-15 -15 -37 -25t-54 -17v5q52 14 80 43q-23 8 -46 15q8 13 18 36h-5q-10 0 -19 -2l-9 9h35q7 17 10 35l18 -10q-4 -4 -7 -9zM185 66
q11 14 21 43h-42q-7 -14 -17 -32q31 -9 38 -11zM238 217l-9 2q-9 0 -37.5 -4t-73.5 -7v4q37 4 61 10t45 16zM151.5 163q0.5 -11 -5 -15t-8 8.5t-16.5 36.5l2 1q27 -20 27.5 -31zM200 150l-4 1q16 31 23 59l18 -13l-7 -4q-19 -27 -30 -43zM186 175.5q1 -9.5 -4 -15t-8.5 7
t-16.5 32.5l2 2q26 -17 27 -26.5zM58 214h34l8 10l14 -16l-8 -4q-13 -25 -31.5 -46t-54.5 -35l-2 5q24 12 43.5 32.5t29.5 46.5h-37l-9 -9q11 -9 14 -14t2.5 -10.5t-5.5 -8t-6.5 7t-8.5 21.5q-10 -10 -23 -20l-3 4q16 16 27 31.5t18 35.5l18 -11q-8 -2 -20 -20zM19 75l-3 4
q16 13 29 30t23 40l17 -11q-7 -2 -20 -20h33l7 9l16 -12l-8 -8q-10 -37 -32.5 -61t-66.5 -37l-1 4q35 15 56 37.5t30 60.5h-39l-11 -12q17 -12 20 -18t1.5 -11t-6 -7.5t-7.5 9t-12 23.5q-15 -13 -26 -20z" />
  </g>

</svg>
