<?xml version="1.0" standalone="no"?>
<!DOCTYPE svg PUBLIC "-//W3C//DTD SVG 1.1//EN" "http://www.w3.org/Graphics/SVG/1.1/DTD/svg11.dtd" >
<svg xmlns="http://www.w3.org/2000/svg" xmlns:xlink="http://www.w3.org/1999/xlink" version="1.1" viewBox="0 -154 1024 1024">
  <g transform="matrix(1 0 0 -1 0 870)">
   <path fill="currentColor"
d="M623 987l4 11q90 -37 110 -82q21 -57 -15 -62q-21 1 -27 41q-6 41 -72 92zM562 761l8 10q42 -29 62 -50q19 -20 31 -47q22 -62 -17 -68q-18 0 -20 26q-2 25 -14 57q-11 31 -50 72zM502 832h332l31 40l65 -48q16 -11 -6 -10h-347q-25 1 -43 -13zM812 790l75 -42
q16 -9 7 -14q-22 1 -42 -9q-48 -89 -103 -161h135l31 37l64 -46q16 -9 -5 -9h-236v-164h110l30 36l65 -45q17 -10 -6 -9h-199v-192l2 -34q0 -34 -51 -40q5 34 7 117v149h-122q-27 1 -42 -12l-34 30h198v164h-142q-25 1 -43 -12l-32 30h251l38 74q52 106 49 118q-6 13 -12 27
zM222 989l86 -35q14 -4 6 -10q-17 -5 -29 -18v-172h62l35 42l60 -48q22 -17 -11 -14h-146v-220h77l32 36l60 -42q22 -16 -11 -14h-98v-327q0 -58 17 -70q16 -12 58 -17q41 -4 77 -4q345 -1 394 5q51 9 56 48q6 40 12 154h15l2 -112q0 -53 33 -68q-19 -32 -34 -42
q-15 -9 -43 -17q-39 -6 -423 -6q-56 -1 -134 8q-81 14 -73 119v329h-85q-6 -185 -52 -288q-47 -105 -139 -183l-10 10q70 82 112 180q41 96 46 281h-76q-27 1 -45 -14l-34 34h222v220h-104q-8 -21 -16 -41q-28 -69 -75 -128l-12 9q63 131 83 229q9 43 5 49q-3 7 -13 22l8 10
l81 -27q3 -8 -7 -14q-12 2 -25 -16q-9 -36 -22 -73h97v182q2 16 -27 42z" />
  </g>

</svg>
