<?xml version="1.0" standalone="no"?>
<!DOCTYPE svg PUBLIC "-//W3C//DTD SVG 1.1//EN" "http://www.w3.org/Graphics/SVG/1.1/DTD/svg11.dtd" >
<svg xmlns="http://www.w3.org/2000/svg" xmlns:xlink="http://www.w3.org/1999/xlink" version="1.1" viewBox="0 -36 256 256">
  <g transform="matrix(1 0 0 -1 0 220)">
   <path fill="currentColor"
d="M115.5 45q5.5 -10 -0.5 -18t-10.5 2.5t-9.5 17.5t-17 18l2 4q30 -14 35.5 -24zM76 78q-6 -51 -67 -71l-1 4q44 21 54 67h-27q-10 0 -19 -2l-9 9h56q1 17 0 33l22 -9l-7 -7l-1 -17h24q-3 15 -14 26l1 2q13 -4 21.5 -11t-3.5 -17h9l13 12l15 -19h-67zM30 170q0 35 -1 51
l13 -8h13q8 20 10 32l17 -11q-6 -3 -10.5 -8.5t-10.5 -12.5h43l9 11l14 -15l-8 -6v-60q0 -11 1 -24l-15 -5v6h-61v-7l-15 -5q1 27 1 62zM44 185h61v21h-61v-21zM44 157h61v21h-61v-21zM44 127h61v23h-61v-23zM178 114h29v63h-27q0 -33 -2 -63zM225 11q-17 13 -29 38t-16 58
h-3q-4 -34 -20.5 -59t-51.5 -40l-2 3q23 15 39 38.5t21 57.5h-14q-10 0 -19 -2l-9 9h43q2 27 2 63h-6q-10 0 -19 -2l-9 9h34v25q0 19 -1 35l22 -11l-7 -7v-42h26l7 11l16 -13l-9 -7v-61h2l12 11l16 -18h-65q8 -34 27 -56.5t34 -24.5v-4q-12 0 -21 -11z" />
  </g>

</svg>
