<?xml version="1.0" standalone="no"?>
<!DOCTYPE svg PUBLIC "-//W3C//DTD SVG 1.1//EN" "http://www.w3.org/Graphics/SVG/1.1/DTD/svg11.dtd" >
<svg xmlns="http://www.w3.org/2000/svg" xmlns:xlink="http://www.w3.org/1999/xlink" version="1.1" viewBox="0 -205 1024 1024">
  <g transform="matrix(1 0 0 -1 0 819)">
   <path fill="currentColor"
d="M428 880h430l38 54l68 -60q3 -4 4 -10q0 -12 -14 -12h-228v-332h100l42 52l62 -60q3 -4 4 -10q0 -7 -8 -8h-200v-389h170l38 57l66 -63q3 -3 4 -10q0 -9 -18 -10h-620q-18 1 -66 -8l-16 34h188v559l88 -36q12 -10 -2 -16l-36 -12v-495h152v747h-162q-21 0 -60 -8l-24 36
v0v0zM340 938l70 -52q8 -6 8 -12t-18 -12q-24 -6 -42 -30q-48 -82 -110 -202q48 -37 90 -80q38 -43 50 -86q11 -42 8 -68q-3 -27 -12 -44t-32 -40q-21 -23 -84 -46q-9 30 -32 46q-22 16 -62 32l4 16q54 -12 78 -18q21 -4 40 2q18 6 34 28q15 21 12 66q-4 44 -32 88
q-28 41 -88 104l94 236h-154v-706l4 -87q0 -20 -24 -32q-21 -12 -36 -12l4 129v782l56 -46h144l30 44v0v0z" />
  </g>

</svg>
