<?xml version="1.0" standalone="no"?>
<!DOCTYPE svg PUBLIC "-//W3C//DTD SVG 1.1//EN" "http://www.w3.org/Graphics/SVG/1.1/DTD/svg11.dtd" >
<svg xmlns="http://www.w3.org/2000/svg" xmlns:xlink="http://www.w3.org/1999/xlink" version="1.1" viewBox="0 -36 256 256">
  <g transform="matrix(1 0 0 -1 0 220)">
   <path fill="currentColor"
d="M172 246l24 -12l-10 -7v-36h19l11 13l15 -20h-45v-47h30l12 13l16 -20h-70l16 -11l-8 -5q-15 -26 -35 -52q30 1 64 3q-3 13 -13 29l2 2q39 -33 30 -49t-11 -7t-6 20q-66 -8 -73 -17l-11 15q24 19 43 72h-27q-10 -1 -19 -3l-9 10h56v47h-12q-10 0 -20 -2l-9 9h41
q0 27 -1 55zM70 198q0 29 -1 48l23 -11l-8 -5v-32h14l9 10l15 -17h-38v-40h23l10 12l16 -19h-54l17 -8l-7 -6v-28h11l10 11l15 -18h-36v-49q24 -15 65.5 -17t93.5 4v-4q-15 -4 -18 -16q-25 -1 -64 0.5t-69 15.5t-50 37q-7 -30 -36 -58l-4 2q20 27 27 56.5t6 57.5l21 -9
l-6 -7q-2 -17 -5 -36q11 -11 25 -19v91h-32q-10 0 -19 -2l-9 9h55v40h-13q-10 0 -19 -2l-9 9h41z" />
  </g>

</svg>
