<?xml version="1.0" standalone="no"?>
<!DOCTYPE svg PUBLIC "-//W3C//DTD SVG 1.1//EN" "http://www.w3.org/Graphics/SVG/1.1/DTD/svg11.dtd" >
<svg xmlns="http://www.w3.org/2000/svg" xmlns:xlink="http://www.w3.org/1999/xlink" version="1.1" viewBox="0 -205 1024 1024">
  <g transform="matrix(1 0 0 -1 0 819)">
   <path fill="currentColor"
d="M744 752q-1 -177 -14 -302h134v302h-120v0v0zM530 816l52 -36h112v202l82 -30q3 -4 4 -10q0 -4 -36 -20v-142h104l32 40l60 -40q6 -6 6 -14q0 -4 -32 -32v-284h28l24 32l40 -40q3 -3 4 -8q0 -12 -12 -12h-244q23 -78 50 -132q27 -52 78 -112q51 -59 118 -79v-18h-50
q-21 -6 -36 -28q-48 44 -86 109q-36 65 -60 128q-22 60 -34 132h-8q-13 -102 -50 -168q-36 -67 -96 -119q-59 -53 -184 -110l-8 16q106 58 164 117q57 57 84 118q27 58 40 146h-158q-21 0 -44 -8l-24 36h80v366v0v0zM580 450h102q5 69 8 126q0 55 6 176h-116v-302v0v0z
M278 950q6 -6 4 -12q-3 -6 -18 -8q-12 -7 -24 -20q-9 -9 -30 -54h116l30 34l62 -50q6 -7 4 -10q-1 -6 -32 -12q-21 -11 -42 -34q-21 -24 -60 -78h74l28 34l56 -38l4 -8q0 -6 -24 -24v-242l4 -68q0 -15 -18 -26q-17 -12 -34 -12v34h-242v-18q0 -12 -14 -26q-13 -12 -38 -12
l4 104v256q-24 -37 -56 -70l-12 10q30 56 96 176q64 119 92 208l70 -34v0v0zM136 382h96v138h-96v-138v0v0zM280 382h98v138h-98v-138v0v0zM136 546h96v134h-96v-134v0v0zM280 680v-134h98v134h-98v0v0zM134 706h124l68 124h-128q-30 -57 -72 -110l8 -14v0v0zM114 266h18
q3 -69 -6 -108q-9 -34 -26 -59q-17 -22 -40 -26q-21 -4 -32 6q-9 12 -6 26q2 12 20 24q15 13 36 35q21 24 36 102v0v0zM172 268l14 8q39 -61 48 -94q8 -32 8 -51q-1 -17 -14 -32q-12 -12 -30 -6q-18 5 -12 34q3 29 4 61q0 32 -18 80v0v0zM262 282l12 10q51 -49 66 -88
t16 -57q-1 -17 -14 -32q-11 -12 -28 -6q-18 5 -14 34q2 27 -4 63q-7 33 -34 76v0v0zM356 292l12 10q58 -48 80 -80q21 -30 24 -54q0 -23 -12 -37q-12 -13 -30 -8q-18 7 -18 35q0 29 -14 62q-12 33 -42 72v0v0z" />
  </g>

</svg>
