<?xml version="1.0" standalone="no"?>
<!DOCTYPE svg PUBLIC "-//W3C//DTD SVG 1.1//EN" "http://www.w3.org/Graphics/SVG/1.1/DTD/svg11.dtd" >
<svg xmlns="http://www.w3.org/2000/svg" xmlns:xlink="http://www.w3.org/1999/xlink" version="1.1" viewBox="0 -205 1024 1024">
  <g transform="matrix(1 0 0 -1 0 819)">
   <path fill="currentColor"
d="M436 318q51 56 120 124v54l42 -22q69 68 108 116h-176q-18 0 -66 -8l-18 36h200v152h-60l-48 -8l-14 36h122v182l86 -34q8 -3 8 -8q0 -6 -6 -8l-36 -16v-116h48l34 40l52 -50q2 -3 2 -6q4 -12 -4 -12h-132v-152h32q71 80 110 136q39 54 76 114l58 -48q8 -6 8 -12
q-2 -4 -22 -8q-19 -3 -28 -14q-10 -11 -44 -52q-33 -42 -98 -116h110l36 44l54 -54q2 -3 2 -6q3 -12 -8 -12h-218q-64 -74 -128 -130h188l26 34l60 -36l4 -8q0 -7 -26 -28v-289l4 -72q1 -11 -16 -22q-15 -11 -36 -14v64h-238v-34q0 -12 -18 -24q-19 -12 -34 -12l4 98v277
q-66 -54 -116 -90l-4 14v0v0zM604 117h238v157h-238v-157v0v0zM604 302h238v130h-238v-130v0v0zM290 936q6 -6 4 -12q-3 -6 -18 -8q-13 -7 -20 -20q-7 -10 -26 -46h86l26 26l54 -42q12 -12 -6 -18q-34 -13 -52 -40q-18 -28 -50 -88h86l24 28l42 -36l4 -8q0 -7 -18 -28v-230
l4 -68q0 -15 -18 -26q-17 -12 -34 -12v34h-220v-18q1 -12 -18 -26q-17 -12 -34 -12l4 104v262q-27 -40 -66 -86l-14 8q38 63 88 154q51 89 108 244l64 -36v0v0zM158 368h86v138h-86v-138v0v0zM292 368h86v138h-86v-138v0v0zM158 532h86v130h-86v-130v0v0zM292 662v-130h86
v130h-86v0v0zM156 688h106l50 136h-94q-43 -69 -76 -122l14 -14v0v0zM120 268h22q3 -70 0 -112q0 -40 -18 -65q-17 -22 -40 -26q-21 -4 -32 6q-9 9 -6 24q3 12 18 24t34 39q15 29 22 110v0v0zM176 272l14 8q46 -64 56 -92q8 -29 10 -49q0 -21 -12 -36q-12 -12 -30 -6t-14 32
q3 22 -2 59q-4 33 -22 84v0v0zM258 286l12 10q52 -56 68 -88q15 -30 18 -50q0 -17 -12 -31q-11 -13 -28 -8q-18 7 -18 35q0 29 -8 56q-7 24 -32 76v0v0zM344 294l12 10q68 -52 86 -76q15 -24 18 -44t-8 -34q-10 -11 -28 -10q-17 0 -22 34q-4 31 -10 50q-6 18 -48 70v0v0z
" />
  </g>

</svg>
