<?xml version="1.0" standalone="no"?>
<!DOCTYPE svg PUBLIC "-//W3C//DTD SVG 1.1//EN" "http://www.w3.org/Graphics/SVG/1.1/DTD/svg11.dtd" >
<svg xmlns="http://www.w3.org/2000/svg" xmlns:xlink="http://www.w3.org/1999/xlink" version="1.1" viewBox="0 -205 1024 1024">
  <g transform="matrix(1 0 0 -1 0 819)">
   <path fill="currentColor"
d="M864 892l42 52l66 -60q8 -12 -4 -18h-454v-240q4 -226 -40 -350q-43 -123 -220 -255l-8 14q145 134 182 245q35 108 32 334v326l58 -48h346v0v0zM598 752l56 -42h150l32 40q57 -42 60 -50q0 -9 -2 -12q-3 -3 -26 -20v-252q-1 -48 -22 -68q-19 -21 -56 -32q-5 31 -34 44
q-27 12 -80 24l4 18q57 -12 82 -14q23 -3 40 6q18 10 18 56v232h-170v-524q0 -41 12 -45q14 -2 26 -2h178q33 0 42 18q11 16 14 61q2 43 8 116h16q5 -81 8 -120q3 -40 34 -51q-10 -32 -28 -50q-19 -15 -62 -22h-210q-29 0 -52 6q-21 7 -30 32q-7 16 -8 63v588v0v0zM118 886
l62 -40h106l36 44l58 -54q6 -5 6 -10t-32 -28v-342l4 -76q1 -12 -16 -26q-19 -14 -40 -16v62h-132v-104q0 -16 -18 -28q-16 -13 -38 -10l4 144v484v0v0zM170 426h132v394h-132v-394v0v0z" />
  </g>

</svg>
