<?xml version="1.0" standalone="no"?>
<!DOCTYPE svg PUBLIC "-//W3C//DTD SVG 1.1//EN" "http://www.w3.org/Graphics/SVG/1.1/DTD/svg11.dtd" >
<svg xmlns="http://www.w3.org/2000/svg" xmlns:xlink="http://www.w3.org/1999/xlink" version="1.1" viewBox="0 -120 1000 1000">
  <g transform="matrix(1 0 0 -1 0 880)">
   <path fill="currentColor"
d="M453 649q-2 -5 -7 -8l-21 -10v-318l-60 -12v28h-189v-36l-58 -12v342q-26 -45 -57 -84l-16 13q89 149 148 397l88 -32q14 -5 14 -15q0 -9 -14 -13l-32 -8q-10 -25 -21 -52h94l22 40l73 -49q12 -8 12 -16q0 -7 -14 -11l-30 -8l-78 -108h58l18 33l48 -34h174v122h-126
l-10 27h136v124l78 -9q25 -3 25 -18q0 -11 -15 -17l-24 -10v-70h77l27 44l59 -36q19 -11 19 -22q0 -8 -14 -15l-13 -6v-114h18l41 54l73 -61v-20h-132v-167l-62 -9v25h-93v-117h84l41 52l83 -60v-19h-208v-112h144l52 64l97 -71v-20h-293v-149l-64 -8v157h-162l-10 27h172
v112h-144l-11 27h155v117h-128l-11 28h139v123h-152zM669 526h93v123h-93v-123zM669 798v-122h93v122h-93zM165 694l26 -17h81q37 97 47 125h-102q-33 -70 -52 -108zM176 492v-139h67v139h-67zM176 652v-133h67v133h-67zM298 492v-139h67v139h-67zM298 652v-133h67v133h-67z
M129 260q14 -58 14 -101q0 -57 -24 -83q-14 -15 -33 -15q-14 0 -24 8t-10 21q0 12 6 21q2 4 18 27q27 37 39 122h14zM198 266q56 -78 56 -144q0 -46 -36 -46q-23 0 -23 26q0 8 3 36q1 12 1 26q0 38 -16 100zM274 276q31 -34 47 -58q30 -44 30 -90q0 -39 -30 -39q-12 0 -18 7
q-7 9 -8 38q-2 49 -33 137zM360 285q84 -71 84 -139q0 -39 -29 -39q-19 0 -23 30q-10 76 -40 139z" />
  </g>

</svg>
