<?xml version="1.0" standalone="no"?>
<!DOCTYPE svg PUBLIC "-//W3C//DTD SVG 1.1//EN" "http://www.w3.org/Graphics/SVG/1.1/DTD/svg11.dtd" >
<svg xmlns="http://www.w3.org/2000/svg" xmlns:xlink="http://www.w3.org/1999/xlink" version="1.1" viewBox="0 -36 256 256">
  <g transform="matrix(1 0 0 -1 0 220)">
   <path fill="currentColor"
d="M58.5 152q-2.5 16 -11.5 31l2 3q29 -22 20.5 -36t-11 2zM8 130h23v50q0 17 -1 36l15 -11h2q5 19 9 42l21 -11l-9 -3q-8 -14 -15 -28h27l5 9l12 -12l-6 -6v-148q2 -25 -18 -34q1 2 -4.5 7.5t-17.5 8.5v6q12 -3 21 -3.5t8 21.5v69h-38q0 -35 -6 -61.5t-26 -53.5l-2 3
q14 30 18.5 56t4.5 56h-4l-11 -1zM42 130h38v68h-38v-68zM68.5 90.5q4.5 -7.5 4 -15t-6.5 -9.5t-7 10t-13 31l3 4q15 -13 19.5 -20.5zM121 245q17 -12 19.5 -18.5t-4 -14t-8.5 4t-9 25.5zM141 158h13l8 9l12 -16h-51q-10 0 -20 -2l-9 9h42q13 34 13 43h-24q-10 0 -20 -2
l-9 9h55l8 10l11 -15h-16l11 -10q-9 -6 -24 -35zM110 196q15 -11 18 -19.5t-2.5 -14.5t-7 4.5t-11.5 27.5zM143 28q5 0 7 7v28h-32v-49l-12 -6q1 17 1 31v75q0 14 -1 28l12 -7h31l7 8l13 -12l-7 -5v-89q1 -19 -14 -27q-2 12 -21 16v4q11 -2 16 -2zM118 101h32v27h-32v-27z
M230 193l13 -10l-6 -5q0 -21 1 -35l-13 -6v7h-34v-25h29l9 10l12 -17h-50v-19h28l10 9l12 -16h-50v-21h28l10 9l12 -16h-50v-20q-1 -15 12 -14h20q7 0 8.5 8t1.5 18h3q2 -13 4 -17.5t7 -6.5q-5 -11 -17 -12h-38q-13 0 -13 20v96q0 13 -1 28l12 -7h35v27h-33l-6 -6l-12 9l5 6
q0 32 -1 55l19 -9l-6 -6v-14h28l10 10l12 -17h-50v-21h32zM118 70h32v24h-32v-24z" />
  </g>

</svg>
