<?xml version="1.0" standalone="no"?>
<!DOCTYPE svg PUBLIC "-//W3C//DTD SVG 1.1//EN" "http://www.w3.org/Graphics/SVG/1.1/DTD/svg11.dtd" >
<svg xmlns="http://www.w3.org/2000/svg" xmlns:xlink="http://www.w3.org/1999/xlink" version="1.1" viewBox="0 -204 1024 1024">
  <g transform="matrix(1 0 0 -1 0 820)">
   <path fill="currentColor"
d="M896 780q36 -28 68 -52q8 -6 8 -12q0 -14 -16 -14h-238q4 -99 13 -171q11 -97 34 -173q34 71 55 133q22 50 38 125q51 -22 83 -42q12 -8 12 -13q0 -6 -17 -12q-25 -8 -43 -8q-43 -115 -76 -179q-16 -33 -35 -59q28 -90 75 -153q15 -23 23 -23q6 0 9 8q48 82 76 160
l18 -11q-55 -169 -55 -178q0 -10 4 -21q7 -18 7 -31q0 -22 -18 -22q-17 0 -39 19q-31 25 -71 83q-36 54 -59 122q-4 -9 -11 -15q-40 -56 -91 -105q-53 -48 -102 -72l-12 18q62 45 95 75q37 38 63 79q21 28 41 67q-34 101 -49 228q-9 83 -13 171h-172l-1 -3v-203
q0 -74 -5 -137q-3 -57 -14 -117q-8 -48 -20 -89q-12 -37 -31 -71q-16 -27 -45 -58l-13 11q15 26 28 57q13 26 21 57q8 35 15 79q7 52 10 106q6 72 6 162q1 168 -3 268l50 -33h173q-2 53 -2 106q0 88 -11 112q103 -19 103 -31q0 -17 -48 -30q0 -87 3 -157h135zM810 938
q43 -25 69 -50q21 -19 32 -39q8 -14 8 -26q0 -38 -27 -38q-6 0 -11 3q-5 4 -12 19q-13 37 -28 60q-18 23 -45 49zM224 949q50 -10 85 -25q8 -3 8 -10q0 -8 -18 -12q-11 -3 -24 -4q29 -22 52 -41q28 -25 45 -42q16 -17 24 -28q6 -11 10 -20q4 -11 4 -21q-1 -30 -23 -30
q-5 0 -10 4q-5 7 -25 42q-18 36 -41 66q-19 26 -54 56q-8 -25 -18 -48q-17 -31 -35 -60q-23 -32 -41 -55q-20 -24 -42 -47q41 -8 99 -8h60l37 41q31 -23 60 -45q7 -4 7 -9q0 -14 -13 -14h-123v-137h67l40 43q32 -23 62 -47q7 -5 7 -10q0 -13 -14 -13h-162v-328q10 3 22 7
q56 18 129 46l4 -21q-59 -34 -105 -52q-47 -23 -92 -40q-41 -17 -87 -28q-11 -38 -19 -38t-49 84q65 8 115 22q15 3 34 7v341h-28q-71 -2 -96 -9l-21 49q44 -13 117 -13h28v137q-56 -4 -76 -8l-13 33q-21 -17 -40 -32l-20 23q32 24 54 52q23 28 45 60q20 34 36 66
q16 31 25 58q8 25 13 58zM90 401q28 -39 40 -69q15 -29 22 -55t7 -40q0 -45 -28 -45q-26 0 -26 35q0 41 -2 62q-2 24 -9 47q-6 26 -18 59zM350 416q48 -15 82 -31q6 -7 6 -13q0 -10 -17 -12q-21 -4 -30 -4q-8 -29 -20 -54q-12 -26 -24 -45q-12 -21 -31 -40l-17 11
q12 27 22 49q7 22 13 46q6 26 10 47q4 22 6 46z" />
  </g>

</svg>
