<?xml version="1.0" standalone="no"?>
<!DOCTYPE svg PUBLIC "-//W3C//DTD SVG 1.1//EN" "http://www.w3.org/Graphics/SVG/1.1/DTD/svg11.dtd" >
<svg xmlns="http://www.w3.org/2000/svg" xmlns:xlink="http://www.w3.org/1999/xlink" version="1.1" viewBox="0 -36 256 256">
  <g transform="matrix(1 0 0 -1 0 220)">
   <path fill="currentColor"
d="M214 199h-170q2 -17 -3 -24t-16.5 -6t-5 8t11.5 15t8 25h4l1 -11h83q0 16 -17 34l2 2q29 -10 31 -18.5t-6 -17.5h76l10 12l21 -18q-21 -3 -41 -28l-3 2zM99 174v-123q0 -19 1 -38l-16 -4q2 18 2 35v33h-27q-6 -45 -44 -67l-3 3q30 26 32 64h-4q-8 1 -15 -2l-9 9h70v32
h-33l-8 -6l-15 14l9 2v25q0 9 -1 22l21 -10l-7 -6v-34h34v30q0 20 -2 37l24 -9zM134 172q4 -29 -3 -34t-16 -4t1 9.5t14 28.5h4zM171 145q37 -15 47.5 -22t9.5 -18.5t-8.5 -4t-19.5 18t-30 22.5zM129.5 55.5q-4.5 -5.5 -15 -4.5t-1 9t15.5 30h4q1 -29 -3.5 -34.5z
M138.5 37.5q13.5 15.5 19 36t5.5 44.5l21 -9l-7 -6v-6q2 -15 12 -33q18 13 28 30l14 -13q-15 -7 -40 -21q10 -15 24 -24t29 -11v-4q-16 -1 -20 -10q-13 5 -28.5 23.5t-22.5 47.5q-4 -26 -22 -45.5t-46 -27.5v4q20 9 33.5 24.5zM182 140q19 19 29 35l17 -15l-9 -2
q-23 -15 -33 -21zM150.5 114q-17.5 -14 -43.5 -24l-2 4q23 12 34.5 24t16.5 24.5t5 48.5l22 -7l-7 -5q-1 -17 -4.5 -34t-21 -31z" />
  </g>

</svg>
