<?xml version="1.0" standalone="no"?>
<!DOCTYPE svg PUBLIC "-//W3C//DTD SVG 1.1//EN" "http://www.w3.org/Graphics/SVG/1.1/DTD/svg11.dtd" >
<svg xmlns="http://www.w3.org/2000/svg" xmlns:xlink="http://www.w3.org/1999/xlink" version="1.1" viewBox="0 -36 256 256">
  <g transform="matrix(1 0 0 -1 0 220)">
   <path fill="currentColor"
d="M67 35.5q8 -0.5 8 12.5v60h-37q-1 -28 -6.5 -52t-21.5 -48l-3 1q11 27 15 56.5t3.5 94.5t-1.5 79l14 -9h36l6 11l14 -12l-6 -7v-175q0 -16 -5.5 -22.5t-16.5 -12.5q0 15 -25 23v4q18 -3 26 -3.5zM38 172h37v51h-37v-51zM38 115h37v50h-37v-50zM149 167q-5 13 -12 26l3 2
q22 -21 24 -29t-3 -14.5t-7 -1t-4 11.5q-19 -2 -29.5 -5t-17.5 -8l-9 17q6 0 14 15t15 37h-1q-10 1 -21 -2l-9 9h58l11 12l15 -19h-39q-12 -25 -30 -53zM128 44q-17 -8 -23 -15l-11 17q16 3 31 7v49v-1q-7 1 -19 -5l-10 12h29q0 30 -1 44l20 -11l-7 -6v-27h9l9 10l13 -17
h-31v-45q21 7 34 10l1 -4q-27 -10 -44 -18zM185 173q6 -46 16 -84q13 37 17 94h-31zM201 229q-7 -23 -12 -39h33l10 11l15 -19h-16q-6 -65 -23 -108q7 -15 17.5 -29t22.5 -20v-3q-12 -2 -17 -10q-20 24 -31 50q-11 -15 -24.5 -27.5t-37.5 -26.5l-2 3q19 16 33.5 30.5
t23.5 37.5q-10 37 -12 84q-5 -17 -21 -40l-3 2q15 33 22 67t8 54l22 -11z" />
  </g>

</svg>
