<?xml version="1.0" standalone="no"?>
<!DOCTYPE svg PUBLIC "-//W3C//DTD SVG 1.1//EN" "http://www.w3.org/Graphics/SVG/1.1/DTD/svg11.dtd" >
<svg xmlns="http://www.w3.org/2000/svg" xmlns:xlink="http://www.w3.org/1999/xlink" version="1.1" viewBox="0 -36 256 256">
  <g transform="matrix(1 0 0 -1 0 220)">
   <path fill="currentColor"
d="M61 216l15 -10h71q-1 7 -4.5 16t-12.5 21l2 2q19 -11 25.5 -20.5t-3.5 -18.5h55l13 12l18 -19h-164q0 -45 -1 -76t-13 -60.5t-44 -53.5l-2 3q40 38 46 107q-28 -19 -37 -33l-13 15q17 5 50 24q0 67 -1 91zM44.5 167.5q5.5 -8.5 -2 -17t-10 6.5t-11.5 29l2 3
q16 -13 21.5 -21.5zM95 107h34q6 12 10 29l16 -12l-7 -5q-14 -31 -31.5 -49t-40.5 -27l-1 3q16 11 27.5 23.5t24.5 33.5q-13 -2 -23 -4.5t-16 -6.5l-6 15q5 0 13.5 14.5t10.5 24.5h-5q-11 1 -22 -2l-6 9h74l12 10l13 -17h-64l14 -8l-7 -4q-14 -23 -20 -27zM138 51
q16 -7 21 -13t0.5 -14t-10 3t-14.5 20q-9 -11 -24.5 -21t-35.5 -19l-1 3q27 14 45.5 36.5t30.5 52.5l15 -13l-7 -5q-12 -20 -20 -30zM126 183.5q6 -5.5 6 -11t-5 -10.5t-8.5 6.5t-12.5 24.5l2 2q12 -6 18 -11.5zM202 185l-6 -6q-6 -22 -11 -35h39l8 8l12 -13q-6 -2 -11.5 -6
t-16.5 -16l-2 2l9 18h-40q-12 -21 -27 -32l-2 2q16 22 22 47.5t7 38.5zM209 122l-6 -5q4 -31 10 -47t15.5 -28t18.5 -16v-4q-13 -1 -16 -8q-18 20 -24 41.5t-8 47.5q-2 -37 -15 -61t-37 -34l-1 2q24 21 32.5 49t8.5 71z" />
  </g>

</svg>
