<?xml version="1.0" standalone="no"?>
<!DOCTYPE svg PUBLIC "-//W3C//DTD SVG 1.1//EN" "http://www.w3.org/Graphics/SVG/1.1/DTD/svg11.dtd" >
<svg xmlns="http://www.w3.org/2000/svg" xmlns:xlink="http://www.w3.org/1999/xlink" version="1.1" viewBox="0 -200 999 1000">
  <g transform="matrix(1 0 0 -1 0 800)">
   <path fill="currentColor"
d="M439 1000l62 -33l-20 -59v-519q0 -44 -9 -63.5t-39 -28.5q-2 0 -3.5 6.5t-9.5 15.5t-26 20t-51 20l2 15q10 -3 27.5 -7t29.5 -4q6 0 7 1q29 5 29 42v6zM298 480q28 91 44 169.5t21 157.5l57 -60l-21 -57q-23 -69 -43.5 -125.5t-44.5 -93.5zM517 783q18 -14 36.5 -32.5
t32.5 -37.5t23 -37t9 -33q0 -5 -3 -12.5t-8 -15t-11.5 -13t-13.5 -5.5q-8 0 -10.5 10t-7.5 31t-16.5 53t-37.5 77zM265 9q57 52 103.5 117.5t83 135.5t62 140.5t39.5 131.5l53 -60l-22 -32q-26 -58 -53 -118t-62 -118t-81.5 -111t-110.5 -96zM105 948q28 -6 50.5 -17
t39 -24.5t25.5 -28t10 -27.5q0 -22 -6.5 -38.5t-17.5 -16.5q-14 0 -27 21q-12 38 -30 67.5t-49 52.5zM59 721q22 -9 42.5 -23.5t35.5 -31t24 -34.5t9 -34q0 -33 -13 -48t-23 -15t-15 16t-11.5 41.5t-18.5 57t-37 63.5zM93 283q23 1 37 7t22 17q9 7 17 26.5t17.5 54.5
t22 85.5t29.5 118.5l89 401l11 2l-121 -703q-1 -12 -4 -32t-6 -49t-5 -68.5t-2 -90.5v-34q-8 -11 -18 -15t-18 -4q-16 0 -22.5 8.5t-6.5 18.5q0 12 1.5 30t3.5 36.5t3.5 35t1.5 24.5q0 15 -2.5 27.5t-8.5 25.5t-17 27.5t-28 33.5zM847 116v237h-144l-12 -13v-224h156z
M641 416l50 -41h147l33 42l57 -51l-32 -31v-239h-205v-63q-19 -21 -50 -25v408zM789 546h29l44 46l64 -68h-229l-58 -14l-19 36h124v181h-60l-58 -15l-24 36h142v238l63 -35l-18 -61v-142h45l43 46l66 -68h-154v-180z" />
  </g>

</svg>
