<?xml version="1.0" standalone="no"?>
<!DOCTYPE svg PUBLIC "-//W3C//DTD SVG 1.1//EN" "http://www.w3.org/Graphics/SVG/1.1/DTD/svg11.dtd" >
<svg xmlns="http://www.w3.org/2000/svg" xmlns:xlink="http://www.w3.org/1999/xlink" version="1.1" viewBox="0 -205 1048 1024">
  <g transform="matrix(1 0 0 -1 0 819)">
   <path fill="currentColor"
d="M924 711q18 -13 13 -20q-6 -5 -27 -5q-42 -71 -93 -129q-58 -66 -142 -116l-6 10q74 55 132 136q56 73 87 152zM944 566q22 -16 13 -26q-7 -8 -26 -4q-50 -70 -118 -134q-68 -63 -147 -103l-4 10q76 50 143 128q67 81 105 155zM954 409q20 -20 17 -31q-4 -10 -27 -5
q-66 -71 -123 -120q-80 -66 -173 -97l-3 11q88 50 164 124q73 71 120 141zM984 922q13 -10 9 -15t-18 -5h-564v-365q0 -155 -35 -291q-36 -132 -92 -197l-8 10q51 81 77 217q25 138 23 320l-4 212l-4 140l39 -30l494 -1l31 48zM961 129q24 -16 21 -28q-4 -11 -30 -15
q-62 -6 -168 -7.5t-149 2.5q-32 3 -44 20q-11 15 -11 49v356q-28 -139 -73 -236q-58 -124 -140 -205l-9 5q85 102 148 285q48 147 60 304h-65l-58 -5l-11 27l56 -6h78q3 38 4 81q1 47 1 94l43 -10q22 -4 22 -13q-1 -8 -22 -15l-4 -76l-4 -61h151l30 48l43 -37q13 -11 9 -20
q-3 -7 -18 -7h-215l-6 -63l27 -12q26 -9 21 -15q-4 -5 -30 -10v-400q0 -19 7 -28q8 -10 28 -14q24 -2 67 -2q26 0 141 3q47 10 64 34q18 29 31 124h10zM318 898q23 -15 19 -22q-5 -6 -31 0q-18 -29 -38 -57q-24 -35 -49 -65q34 -64 54 -149q19 -73 28 -165q11 -125 -29 -229
q-43 -109 -118 -130q-7 27 -30 47q-16 12 -68 37l3 7q75 -19 101 -19q30 0 48 22q34 47 47 112q21 103 -1 259q-45 -72 -94 -130q-49 -57 -105 -103l-5 5q50 54 100 127q54 79 92 163q-9 39 -18 68q-10 33 -21 59q-38 -42 -71 -73q-40 -36 -73 -55l-4 10q31 26 65 61
q39 41 69 83q-17 41 -43 79q-24 35 -58 73l2 9q36 -30 65 -64q29 -36 52 -77q24 37 42 69q19 38 32 72z" />
  </g>

</svg>
