<?xml version="1.0" standalone="no"?>
<!DOCTYPE svg PUBLIC "-//W3C//DTD SVG 1.1//EN" "http://www.w3.org/Graphics/SVG/1.1/DTD/svg11.dtd" >
<svg xmlns="http://www.w3.org/2000/svg" xmlns:xlink="http://www.w3.org/1999/xlink" version="1.1" viewBox="0 -144 1024 1024">
  <g transform="matrix(1 0 0 -1 0 880)">
   <path fill="currentColor"
d="M735 233l50 -41l7 -18l-22 1v-1l-34 -33l-39 -31l-43 -29l-23 -13l-26 -13l-26 -11l-5 8l77 73l32 35l27 35l12 17l7 12v1zM486 591h-37v-183h-59v183h-102v21h141v194h-118v21h118v167l65 -11l16 -10l-16 -10v-136h12l54 54l64 -54v-21h-130v-194h31l54 54l64 -54v-21
h-97v-462l-1 -13l-2 -13l-4 -12l-5 -11l-8 -11l-9 -9l-11 -7l-12 -4l-12 -3l-13 -1v30l-83 15v14h83l5 1h4l3 2l1 1l1 1l1 3l1 4l1 6v7v462zM449 408l-3 -48l-6 -46l-8 -44l-11 -41l-13 -39l-16 -35l-19 -32l-23 -30l-24 -26l-28 -22l-6 6l20 28l17 29l15 30l13 32l11 34
l9 36l7 39l4 40l2 44v45h59zM901 101l-15 30l-16 28l-20 27l-11 14l-12 12l-13 12l5 8l17 -7l17 -7l32 -19l15 -11l14 -13l27 -28l12 -15l11 -17l3 -25l-16 -18l-25 -3l-19 16zM310 476l64 -16l15 -12l-19 -9l-1 -9l-5 -30l-5 -28l-6 -28l-7 -27l-8 -26l-9 -25l-9 -25
l-11 -22l-13 -22l-9 3l2 25l3 24l3 25l3 26l3 25l4 54l4 57v23zM590 286l-1 23l-1 24l-5 45l-3 22l-11 62l-5 20l9 4l12 -17l12 -18l20 -41l16 -44l7 -24l6 -25l5 -25l4 -26l-8 -23l-21 -12l-24 8l-11 22zM903 973l64 -54v-22h-131l-16 -30l-17 -30l-19 -29l-20 -27l-12 -13
h116l32 27l59 -48l-27 -22v-440l-64 -33v33h-145v-17l-64 -32v565l64 -33h14l3 7l4 16l17 63l7 33l2 10h-139v22h218zM28 867l65 -33h105l32 27l59 -48l-27 -22v-486l-64 -32v64h-105v-64l-65 -33v627zM868 440h-145v-134h145v134zM198 813h-105v-454h105v454zM868 591h-145
v-129h145v129zM868 747h-145v-135h145v135z" />
  </g>

</svg>
