<?xml version="1.0" standalone="no"?>
<!DOCTYPE svg PUBLIC "-//W3C//DTD SVG 1.1//EN" "http://www.w3.org/Graphics/SVG/1.1/DTD/svg11.dtd" >
<svg xmlns="http://www.w3.org/2000/svg" xmlns:xlink="http://www.w3.org/1999/xlink" version="1.1" viewBox="0 -205 1024 1024">
  <g transform="matrix(1 0 0 -1 0 819)">
   <path fill="currentColor"
d="M390 456l8 12q84 -42 120 -74q36 -34 46 -58q9 -25 0 -44q-6 -20 -30 -18q-21 0 -30 30q-7 29 -32 68q-23 36 -82 84v0v0zM350 628h278l34 42l66 -48q6 -5 6 -10q0 -6 -38 -30v-432q0 -40 6 -47q6 -6 36 -6h136q27 6 40 20q10 15 14 51q2 36 8 142h22q2 -116 8 -142
q3 -27 30 -47q-15 -34 -36 -50q-19 -14 -58 -20h-182q-36 0 -56 12q-22 13 -22 64v473h-302v-146q-6 -93 -24 -174q-19 -82 -80 -147q-59 -66 -196 -120l-8 16q117 58 168 119q50 60 68 138q17 74 20 176v208l62 -42v0v0zM40 842h288v142l88 -28q18 -7 0 -16l-36 -16v-82
h232v138l84 -28q19 -7 2 -16l-34 -16v-78h178l44 50l62 -60q3 -3 4 -6q1 -10 -12 -10h-276v-22l4 -62q3 -15 -18 -26q-21 -12 -42 -12l4 88v34h-232v-34l4 -54q3 -15 -20 -26q-22 -12 -40 -12l4 94v32h-204q-24 0 -60 -8l-24 34v0v0z" />
  </g>

</svg>
