<?xml version="1.0" standalone="no"?>
<!DOCTYPE svg PUBLIC "-//W3C//DTD SVG 1.1//EN" "http://www.w3.org/Graphics/SVG/1.1/DTD/svg11.dtd" >
<svg xmlns="http://www.w3.org/2000/svg" xmlns:xlink="http://www.w3.org/1999/xlink" version="1.1" viewBox="0 -36 256 256">
  <g transform="matrix(1 0 0 -1 0 220)">
   <path fill="currentColor"
d="M218 155q4 0 5.5 9t3.5 60h-18q0 -73 -51 -94l-2 3q43 33 40 91q-6 0 -15 -2l-9 9h53l7 7l13 -13l-6 -4q-2 -54 -4 -66.5t-16 -17.5q-1 11 -17 16v4q12 -2 16 -2zM146 156q5 0 6.5 8.5t3.5 59.5h-15q0 -64 -48 -92l-3 3q39 32 39 89q-7 0 -16 -2l-9 9h51l7 7l13 -13
l-7 -4q-2 -49 -4 -63t-16 -21q-3 13 -16 16v4q9 -1 14 -1zM101 206q21 -11 21.5 -18t-3.5 -12t-7 4t-13 24zM171 202q17 -7 20 -12t-1 -12.5t-7.5 1t-13.5 20.5zM203 129l11 9l14 -16h-88q-9 0 -18 -2l-9 9h90v0zM176.5 23.5q-5.5 5.5 -15.5 10.5l1 4q20 -7 27.5 -8.5
t13 13.5t6.5 21h-67l-8 -6l-10 12q5 2 8.5 12.5t3.5 13.5h-11q-10 0 -19 -2l-9 9h118l13 10l14 -17h-93q-3 -9 -8 -25h68l7 9l13 -14l-8 -4q-2 -14 -9.5 -31.5t-29.5 -19.5q0 7 -5.5 12.5zM36 97q13 -5 27 -11q12 28 17 83q-15 -2 -27 -4q-4 -19 -17 -68zM63 220
q-2 -10 -8 -44q12 0 25 2q1 11 0 22l17 -8q-3 -4 -4 -13h12l1 -5q-9 -2 -13 -3q-3 -30 -6.5 -48t-12.5 -42q16 -11 21.5 -18.5t2 -17t-10 0.5t-19.5 22q-22 -39 -61 -57l-1 3q37 27 52 61q-15 10 -36 18q10 33 18 70q-17 -3 -26 -6l-6 16q19 0 34 2q8 45 9 65l18 -10z" />
  </g>

</svg>
