<?xml version="1.0" standalone="no"?>
<!DOCTYPE svg PUBLIC "-//W3C//DTD SVG 1.1//EN" "http://www.w3.org/Graphics/SVG/1.1/DTD/svg11.dtd" >
<svg xmlns="http://www.w3.org/2000/svg" xmlns:xlink="http://www.w3.org/1999/xlink" version="1.1" viewBox="0 -150 1000 1000">
  <g transform="matrix(1 0 0 -1 0 850)">
   <path fill="currentColor"
d="M156 634h72v129h-72v-129zM333 376h-171v-109h171v109zM162 392h171v110h-171v-110zM257 634h78v248h-179v-104h68l22 24l23 -28q17 -11 7 -16l-19 -9v-115zM474 623q2 -5 -0.5 -7t-9.5 0q-18 0 -54 -48q-13 -17 -21 -28l-11 8l25 66h-318v-2q2 -65 -29 -84
q-18 -10 -29 1q-9 14 6 28q17 14 24 35.5t14 84.5h15q-1 -23 -1 -43h36v241q3 21 -12 48l11 10l26 -32h185l19 26l36 -28q9 -5 9 -9.5t-9 -6.5l-16 -9v-240h31l27 30zM126 546l25 -26h178l20 28l31 -27q14 -9 8 -12l-18 -15v-340q2 -60 -9.5 -85.5t-56.5 -35.5
q-2 28 -19.5 34.5t-58.5 21.5l2 15q74 -14 89.5 -12t15.5 49v110h-171v-124l4 -56q3 -37 -48 -45q1 11 3.5 30.5t3.5 26.5v419q3 13 -13 33zM518 258l5 10q47 -21 69 -38q20 -17 31 -36.5t5 -35.5q-7 -14 -21.5 -13.5t-20.5 23.5t-20 43q-13 18 -48 47zM530 740v-92h140v92
h-140zM530 635v-95h140v95h-140zM849 740h-144v-92h144v92zM705 635v-95h144v95h-144zM409 304h375v44q-1 21 -24 37l8 11l75 -30q17 -9 7 -13q-18 -6 -31 -16v-33h63l31 39l66 -49q7 -5 6 -7.5t-11 -2.5h-155v-187q-1 -35 -11 -46t-25 -17q-13 -6 -52 -14q-4 26 -28 36
q-30 11 -87 26l4 13l44 -6q70 -15 95 -9q23 7 25 51v153h-298q-26 0 -44 -13zM653 980l73 -33q13 -6 5 -10q-17 -6 -26 -18v-63h154l33 40l66 -49q7 -5 6 -7.5t-12 -2.5h-247v-81h125l26 28l50 -36q7 -4 5.5 -7.5t-11.5 -5.5l-18 -8v-107l7 -91q-1 -6 -12 -11q-13 -7 -28 -7
v13h-144v-99l181 20q-2 0 -2 2q-19 20 -57 43l6 10q48 -18 71 -34q24 -18 35 -36q12 -21 7 -35q-6 -17 -18 -15q-15 0 -21 24q-5 13 -11 25l-153 -23q-167 -25 -215 -35q-30 -8 -53 -29l-34 54l229 25v103h-140q-2 -17 -8 -24q-6 -9 -32 -14q4 35 7 127v132q-3 18 -17 33
l14 11l27 -33h149v81h-168q-26 0 -44 -13l-33 32h245v73q2 14 -24 41z" />
  </g>

</svg>
