<?xml version="1.0" standalone="no"?>
<!DOCTYPE svg PUBLIC "-//W3C//DTD SVG 1.1//EN" "http://www.w3.org/Graphics/SVG/1.1/DTD/svg11.dtd" >
<svg xmlns="http://www.w3.org/2000/svg" xmlns:xlink="http://www.w3.org/1999/xlink" version="1.1" viewBox="0 -36 256 256">
  <g transform="matrix(1 0 0 -1 0 220)">
   <path fill="currentColor"
d="M71 25h121v25h-121v-25zM114 89h76l9 10l17 -14l-9 -6v-39q0 -12 1 -25l-16 -6v9h-121v-4l-16 -7q1 32 1 54.5t-1 33.5l18 -6h34q11 15 17 31l16 -12q-21 -13 -26 -19zM71 57h121v25h-121v-25zM127 208h-40q0 -7 1 -17l-17 -6q1 13 1 23h-26q-10 0 -20 -2l-10 9h56
q0 21 -1 32l24 -8l-8 -7v-17h13l13 12zM165 211q-11 -1 -20 -3l-10 10h35q0 15 -1 28l24 -9l-8 -7v-12h30l13 11l16 -18h-59q-1 -4 1 -21l-17 -5q1 21 1 26h-5zM99 183l10 9l16 -12l-10 -6v-52q1 -17 -24 -21q0 10 -28 15v3q25 -1 31 -1t6 7v16q-20 -8 -41 -15.5t-33 -14.5
l-14 14q14 2 39.5 8t48.5 12v31h-45q-12 1 -21 -1l-9 8h74zM206 183l10 9l15 -12l-9 -5v-54q0 -17 -24 -22q0 11 -31 16v3q30 -1 35 -0.5t5 8.5v16l-37.5 -12.5t-29.5 -14.5l-14 16q14 1 38 7t43 11v27h-47q-12 1 -22 -1l-8 8h76zM171.5 162q6.5 -4 7 -8t-5 -9t-9.5 4
t-17 20l2 2q16 -5 22.5 -9zM69 162.5q8 -4.5 8 -9t-5 -9t-9 3.5t-19 22l2 1q15 -4 23 -8.5z" />
  </g>

</svg>
