<?xml version="1.0" standalone="no"?>
<!DOCTYPE svg PUBLIC "-//W3C//DTD SVG 1.1//EN" "http://www.w3.org/Graphics/SVG/1.1/DTD/svg11.dtd" >
<svg xmlns="http://www.w3.org/2000/svg" xmlns:xlink="http://www.w3.org/1999/xlink" version="1.1" viewBox="0 -36 256 256">
  <g transform="matrix(1 0 0 -1 0 220)">
   <path fill="currentColor"
d="M151 247l22 -10l-8 -7v-23h41l12 11l16 -18h-69v-56q0 -19 1 -39l-15 -6q1 25 1 51v50h-40q-11 0 -20 -3l-8 10h68q0 26 -1 40zM199 129q6 10 9 20l14 -10q-6 -3 -15 -14q10 -6 13 -10.5t1 -10.5t-7 0t-12 13q-9 -9 -23 -19l-3 3q10 9 19 22q-10 8 -17 14l1 2
q11 -3 20 -10zM173 185l1 3q16 -7 24 -10q7 10 11 21l14 -11q-6 -1 -16 -16q13 -7 16 -13t0 -11.5t-7.5 2.5t-13.5 15q-9 -9 -27 -22l-2 3q12 10 21 25q-12 9 -21 14zM138 160q2 -5 -1 -10.5t-7.5 2t-11.5 12.5q-8 -9 -26 -23l-3 3q12 13 21 26q-9 7 -20 15l2 3
q12 -6 23 -11q7 11 10 19l14 -10q-6 -2 -16 -13q13 -8 15 -13zM126 118q11 -8 14 -11.5t-0.5 -10.5t-8 1t-11.5 14q-11 -11 -29 -20l-2 3q15 10 24 24q-11 9 -21 17l1 3q12 -6 25 -14q5 8 11 23l13 -11q-5 -2 -16 -18zM85 94l1 -5q-59 -27 -67 -38l-12 16q12 4 34 12v75h-4
q-10 0 -19 -2l-10 9h33v42q0 14 -1 32l21 -10l-6 -6v-58h9l9 9l15 -16h-33v-72zM165 92q-3 -2 -4 -4l-3 -6h54l13 11l15 -18h-71q18 -25 37.5 -35.5t41.5 -12.5v-5q-15 -2 -17 -11q-25 6 -41 22.5t-28 41.5h-5q-12 -31 -33 -46t-54 -21l-1 3q28 10 46 25t27 39h-26
q-11 0 -20 -2l-9 9h56q4 11 4 18z" />
  </g>

</svg>
