<?xml version="1.0" standalone="no"?>
<!DOCTYPE svg PUBLIC "-//W3C//DTD SVG 1.1//EN" "http://www.w3.org/Graphics/SVG/1.1/DTD/svg11.dtd" >
<svg xmlns="http://www.w3.org/2000/svg" xmlns:xlink="http://www.w3.org/1999/xlink" version="1.1" viewBox="0 -200 1000 1000">
  <g transform="matrix(1 0 0 -1 0 800)">
   <path fill="currentColor"
d="M648 273l140 55h-313l-73 -1l-12 25q19 -2 38 -3q13 -1 37 -1h339l27 16l35 -27q18 -15 15 -20t-35 -5l-186 -48q9 -5 6 -9q-3 -3 -18 -6v-19h219l31 27l42 -24q10 -13 6 -18t-16 -5h-282v-76q0 -27 -20 -47q-20 -19 -52 -24q-1 19 -15 28q-14 12 -61 27l-1 10
q17 -2 39 -3q21 -2 46 -3q17 0 23 4q6 3 6 12v72h-211h-28q-7 -1 -18 -2l-5 -1l-13 25l52 -2h223v56l34 -12zM271 921l39 -30q15 -11 11 -19q-3 -7 -22 -16v-214l1 -16q1 -11 -1 -15q-4 -6 -19 -12q-17 -5 -21 0q-2 4 -1 24v18h-40q18 -2 18 -10t-19 -13v-146h53l37 35
l44 -30q10 -18 9 -24q-2 -7 -20 -7h-123v-219l93 30l7 -13l-219 -103q2 -23 -4 -28q-7 -5 -19 15l-25 48l48 12v317l46 -12q16 -7 14 -13q-1 -5 -21 -13v-268l23 11l18 4v427h-46v-25q1 -19 -1 -25q-4 -7 -18 -15q-18 -8 -22 -4q-2 3 -1 22l2 29v236l-4 60l51 -30h105z
M132 863v-192h126v192h-126zM771 791l42 -16q20 -7 19 -12q-2 -6 -26 -15v-27h83l23 36l33 -35q11 -11 5 -15q-3 -4 -14 -4h-61q18 -12 18 -20t-20 -6l-2 -2q-15 -22 -22 -37q-12 -24 -20 -46h64l25 38l34 -34q10 -11 6 -16q-4 -7 -15 -7h-136q15 -6 12 -11t-14 -7v-55h88
l27 38l34 -35q9 -8 6 -14q-4 -5 -15 -5h-140v-49v-12q1 -12 -1 -19q-3 -8 -16 -13q-16 -6 -19 0q-2 4 -2 22l1 6v65h-53q-26 0 -42 -1q-10 -1 -20 -3l-8 22l59 -2h64v73h-75h-41q-10 0 -20 -1l-11 23q10 -1 23 -2q14 -1 25 -1h75l-15 6q-2 4 -3 10l-2 6q-7 17 -11 35
q-9 25 -22 54q-15 0 -25 -1q-8 -1 -16 -3l-9 24l58 -2h76v26zM710 703q27 -32 38 -50q10 -23 9 -35q-2 -11 -4 -18q-3 -6 -6 -8h58l33 111h-124h-4zM566 566l42 -31q10 -11 6 -16q-4 -6 -21 -6v-63l1 -18v-12q-2 -4 -10 -9q-22 -6 -26 0q-2 4 -1 6h-136v-2v-4q2 -14 0 -19
q-4 -8 -27 -12q-9 -3 -12 0q-1 2 -1 14l1 16v296q-1 14 -2 27t-2 20l42 -28v-1h29l1 9l18 83l29 -14q17 -12 14 -19q-2 -5 -23 -4l-26 -55h89l18 23l40 -29q9 -12 6 -17q-4 -6 -21 -6v-70v-8q0 -11 -2 -14q-1 -5 -8 -9q-21 -4 -25 2q-2 3 -2 14v3h-137v-73h128zM556 515
h-136v-75h136v75zM557 702h-137v-73h137v73zM543 899q0 13 -2 23q0 14 -2 19l51 -16q20 -7 12 -15q-4 -3 -19 -8l-2 -2v-23h169v24q0 9 -1 23q-2 11 -2 19l50 -16q22 -9 11 -17q-6 -4 -21 -8v-25h109l27 41l39 -37q8 -9 5 -16t-14 -7h-166v-19q2 -15 0 -20q-4 -8 -17 -13
q-17 -4 -19 1q-2 3 -2 16l1 13v23h-169v-22q0 -17 -3 -23q-3 -11 -20 -16q-13 -3 -14 1q-2 2 -1 17v13v30h-136h-30q-10 -1 -18 -3l-9 24q9 -1 22 -2q12 -1 25 -1h146v22z" />
  </g>

</svg>
