<?xml version="1.0" standalone="no"?>
<!DOCTYPE svg PUBLIC "-//W3C//DTD SVG 1.1//EN" "http://www.w3.org/Graphics/SVG/1.1/DTD/svg11.dtd" >
<svg xmlns="http://www.w3.org/2000/svg" xmlns:xlink="http://www.w3.org/1999/xlink" version="1.1" viewBox="0 -52 256 256">
  <g transform="matrix(1 0 0 -1 0 204)">
   <path fill="currentColor"
d="M76 185l19 -5q3 -1 2 -3q-4 -1 -7 -5v-38h16l7 9l13 -11q2 -2 1 -2q0 -1 -3 -1h-77v-16q0 -12 -1 -25h35l9 9l12 -11q2 -1 2 -2q-1 -1 -4 -2l-4 -2v-32l1 -26q-1 -9 -12 -11l1 37v36h-41q-6 -52 -37 -77l-2 2q31 39 31 106v54q-1 1 -2 4l-3 3l1 2l23 -6q2 -2 0 -2
q-4 -1 -9 -5v-31h33v41q2 4 -6 7zM154 254l20 -12q3 -2 0 -2q-5 0 -8 -2q-1 -1 -2 -3q-3 -6 -9 -12h67l8 10l17 -12q2 -1 2 -2q-1 -1 -4 -1h-61q4 -3 7 -6q14 -16 2 -23q-5 0 -5 6q0 1 -1 2q-1 4 -1 8q-1 4 -5 8l-5 5h-26q-13 -16 -33 -31l-3 2q42 46 42 56q-1 3 -4 7z
M50 252l20 -12q3 -2 0 -2q-5 0 -8 -2q-3 -5 -9 -13l-1 -2h51l8 10l17 -12q2 -1 2 -2q-1 -1 -4 -1h-47l2 -2q1 0 3 -3q15 -17 2 -23q-3 0 -5 6q0 6 -2 10q-1 4 -4 8l-4 4h-23q-15 -21 -35 -37l-4 2q39 44 43 62q-1 3 -4 7zM214 192l15 -13q3 -3 0 -4h-1q-5 2 -9 1
q-3 0 -13 -3q-22 -5 -56 -8v-44h66l8 10l17 -12q2 -1 2 -2q-1 -1 -4 -1h-40v-80l1 -14q1 -9 -12 -11v9q1 16 1 26v70h-39v-7q-1 -72 -50 -101l-2 3q42 37 41 105v48q-1 6 -4 11l2 2l9 -7q23 3 34 6q20 5 30 9q3 2 2 6z" />
  </g>

</svg>
