<?xml version="1.0" standalone="no"?>
<!DOCTYPE svg PUBLIC "-//W3C//DTD SVG 1.1//EN" "http://www.w3.org/Graphics/SVG/1.1/DTD/svg11.dtd" >
<svg xmlns="http://www.w3.org/2000/svg" xmlns:xlink="http://www.w3.org/1999/xlink" version="1.1" viewBox="0 -205 1024 1024">
  <g transform="matrix(1 0 0 -1 0 819)">
   <path fill="currentColor"
d="M400 550l72 -30q9 -4 10 -8q9 -7 -32 -22v-351h444v397l70 -30q6 -3 10 -8q-1 -6 -4 -8l-28 -14v-302l4 -111q0 -14 -18 -26q-19 -13 -34 -14v88h-434l-36 -36l-54 46q30 15 30 39v390v0v0zM374 904q98 -85 122 -136q25 -49 14 -74q-11 -26 -34 -24q-21 -1 -24 32
q-3 29 -18 74q-16 42 -70 120l10 8v0v0zM584 950q92 -84 116 -144q21 -58 10 -82t-34 -20q-24 3 -24 30t-14 78q-12 48 -66 130l12 8v0v0zM904 958l72 -42q6 -9 0 -12q-5 -3 -16 -6t-22 -12q-9 -9 -38 -56q-30 -45 -96 -140l-16 8q92 188 116 260v0v0zM834 562
q-16 -4 -46 -44t-74 -94q86 -75 104 -102q14 -26 20 -46q6 -21 0 -36t-26 -18q-18 -1 -32 32q-12 30 -32 64q-21 31 -60 74q-38 -46 -88 -92q-48 -46 -126 -98l-10 14q44 39 104 100q57 60 90 108q-102 87 -168 136l8 12q81 -41 184 -118q44 55 110 170q67 -45 68 -50
q-1 -6 -4 -8q-4 -1 -22 -4v0v0zM192 984l78 -28q14 -5 2 -16l-30 -14v-144q65 -27 98 -48q29 -21 38 -44t0 -40q-9 -19 -26 -16q-18 -1 -26 20q-6 20 -18 44q-12 22 -66 62v-600l4 -107q0 -10 -20 -24q-21 -12 -38 -10l4 135v830v0v0zM114 758h18q7 -97 2 -142
q-3 -45 -24 -74q-18 -28 -42 -28q-22 0 -28 16q-7 14 4 28q11 15 26 30q12 15 24 48q11 32 20 122v0v0z" />
  </g>

</svg>
