<?xml version="1.0" standalone="no"?>
<!DOCTYPE svg PUBLIC "-//W3C//DTD SVG 1.1//EN" "http://www.w3.org/Graphics/SVG/1.1/DTD/svg11.dtd" >
<svg xmlns="http://www.w3.org/2000/svg" xmlns:xlink="http://www.w3.org/1999/xlink" version="1.1" viewBox="0 -36 256 256">
  <g transform="matrix(1 0 0 -1 0 220)">
   <path fill="currentColor"
d="M168 119h-27q-10 0 -20 -2l-9 9h109l12 13l16 -20h-66q-7 -6 -17 -23h56l8 8l13 -13l-7 -5v-52q0 -9 -1.5 -13.5t-13.5 -9.5q-1 10 -20 15v4q14 -2 18.5 -1.5t4.5 7.5v53h-24v-55l-12 -7v62h-18v-61l-12 -7v68h-20v-73l-14 -8q1 29 1 54.5t-1 40.5l15 -7h23q4 16 6 23z
M155 154h60q6 0 7 5t2 24h4q1 -24 10 -28q-6 -13 -20 -12h-69q-16 0 -16 14v53l16 -5l-4 -4v-3h63v28h-49q-16 0 -23 -3l-8 10h79l5 9l15 -9l-6 -7v-39l-13 -4v8h-63v-28q0 -9 10 -9zM47 187h32v22h-32v-22zM34 245l20 -9l-7 -5v-15h32q0 10 -1 30l18 -9l-6 -6v-15h9l9 7
l12 -14h-30q0 -16 1 -34l-12 -4v9h-32v-5l-13 -5q1 23 1 39h-9l-10 -2l-8 9h27q0 22 -1 29zM30 109h27v20h-27v-20zM68 109h29v20h-29v-20zM68 77h29v25h-29v-25zM30 77h27v25h-27v-25zM96 136l5 8l13 -12l-6 -6q0 -42 1 -57l-12 -6v7h-67v-3l-13 -5q1 17 1 44t-1 40l14 -10
h27h38zM21 154l-8 -1l-6 8h86l10 12l16 -19h-98zM60 54l-7 -2q-21 -28 -40 -43l-2 2q24 31 29 54zM108 40.5q9 -10.5 2.5 -21t-9 -1t-9.5 22t-14 22.5l3 3q18 -15 27 -25.5z" />
  </g>

</svg>
