<?xml version="1.0" standalone="no"?>
<!DOCTYPE svg PUBLIC "-//W3C//DTD SVG 1.1//EN" "http://www.w3.org/Graphics/SVG/1.1/DTD/svg11.dtd" >
<svg xmlns="http://www.w3.org/2000/svg" xmlns:xlink="http://www.w3.org/1999/xlink" version="1.1" viewBox="0 -205 1024 1024">
  <g transform="matrix(1 0 0 -1 0 819)">
   <path fill="currentColor"
d="M394 854h164q33 75 52 144q81 -27 84 -36q3 -7 -2 -10t-22 -6q-15 -3 -26 -24q-9 -21 -30 -68h268l40 42l60 -48q3 0 4 -8q0 -12 -12 -12h-372q-19 -40 -46 -82h254l36 36l48 -40q2 1 8 -10q9 -6 0 -12h-164v-124h130l38 44l58 -50q3 -3 4 -8q0 -12 -12 -12h-394
q-21 0 -62 -8l-22 34h208v124h-148q-60 -85 -122 -136l-10 10q42 54 82 120q39 63 60 114h-78q-21 0 -56 -8l-20 34v0v0zM512 528l50 -36h286l30 40l54 -40q9 -3 10 -12q0 -6 -24 -24v-347q0 -33 -14 -52q-13 -18 -64 -36q-6 34 -30 46q-22 12 -76 26l4 18q60 -9 76 -12
q18 -1 36 0q18 0 18 26v101h-308v-77l4 -76q0 -14 -18 -28q-19 -15 -38 -16l4 114v385v0v0zM560 250h308v98h-308v-98v0v0zM560 372h308v96h-308v-96v0v0zM160 960q80 -39 104 -68q21 -27 22 -50q-1 -23 -16 -34q-13 -12 -28 -6q-12 4 -18 32q-3 27 -18 52q-12 23 -54 62
l8 12v0v0zM54 758h228l34 40l58 -50q7 -6 6 -12q0 -6 -18 -8q-24 -4 -42 -40q-29 -44 -70 -112v-78l34 -14l72 114q56 -37 58 -44q3 -6 -2 -8q-5 -1 -22 -4q-15 -1 -90 -64q44 -24 70 -48q24 -23 30 -40q3 -18 -2 -32q-6 -16 -24 -16q-15 -1 -24 14t-18 34q-7 15 -28 40
q-21 21 -54 46v-302l4 -103q2 -12 -16 -28q-17 -15 -40 -18l4 145v338q-55 -87 -154 -182l-12 12q81 105 114 156q30 50 60 104q30 52 72 134h-156q-25 1 -46 -10l-26 36v0v0z" />
  </g>

</svg>
