<?xml version="1.0" standalone="no"?>
<!DOCTYPE svg PUBLIC "-//W3C//DTD SVG 1.1//EN" "http://www.w3.org/Graphics/SVG/1.1/DTD/svg11.dtd" >
<svg xmlns="http://www.w3.org/2000/svg" xmlns:xlink="http://www.w3.org/1999/xlink" version="1.1" viewBox="0 -36 256 256">
  <g transform="matrix(1 0 0 -1 0 220)">
   <path fill="currentColor"
d="M23 114l13 -8h14v47h-12q-10 0 -19 -2l-9 9h40v48h-2q-10 0 -19 -2l-9 9h54l11 13l13 -20h-35v-48h17l10 11l14 -18h-41v-47h16l6 9l14 -12l-7 -6v-54q0 -11 1 -16l-14 -5v13h-43v-17l-13 -6v102zM36 42h43v57h-43v-57zM169 172q18 -27 40 -38t35 -12v-3q-18 -1 -18 -10
q-14 4 -31 18t-28 37q-7 -22 -29.5 -39t-39.5 -22l-1 3q22 15 35 27.5t19.5 26t7.5 47.5h-26q-10 0 -19 -2l-9 9h54q0 18 -1 31l21 -9l-7 -7v-15h39l12 12l15 -19h-66q0 -18 -3 -35zM185 149l-3 3q18 22 24 51l15 -9q-4 -5 -12 -17q22 -9 24 -14.5t-2.5 -11.5t-8.5 2.5
t-15 18.5q-10 -14 -22 -23zM146.5 159q2.5 -4 -2 -11.5t-8.5 2t-11 21.5q-10 -22 -32 -38l-2 3q25 30 29 65l16 -8q-6 -5 -10 -18q18 -12 20.5 -16zM140 95l8 10l13 -13l-7 -5q-17 -47 -65 -71l-1 3q38 29 51 69h-8q-10 0 -19 -2l-9 9h37zM177 83v-48q0 -20 -21 -28
q-2 10 -9 13t-16 5v4q18 -1 25.5 -1t7.5 10v64q0 14 -1 32l21 -10l-7 -6v-22q6 -11 14 -21q12 14 22 35l14 -15l-9 -2q-10 -10 -24 -21q17 -28 54 -37v-3q-13 -1 -19 -12q-36 24 -52 63z" />
  </g>

</svg>
