<?xml version="1.0" standalone="no"?>
<!DOCTYPE svg PUBLIC "-//W3C//DTD SVG 1.1//EN" "http://www.w3.org/Graphics/SVG/1.1/DTD/svg11.dtd" >
<svg xmlns="http://www.w3.org/2000/svg" xmlns:xlink="http://www.w3.org/1999/xlink" version="1.1" viewBox="0 -36 256 256">
  <g transform="matrix(1 0 0 -1 0 220)">
   <path fill="currentColor"
d="M112 238l15 -9h84l12 13l17 -20h-59v-30h27l11 10l17 -17h-55v-35h25l11 13l18 -20h-54v-32l42 1l9 11l14 -15l-8 -6q-7 -68 -15 -79.5t-24 -16.5q-3 12 -26 16v6q24 -4 30.5 -2.5t11 11t10.5 68.5l-99 -2v-10l-14 -5q1 29 1 42v72q0 14 -1 36zM116 80q3 -23 0.5 -33
t-8.5 -13.5t-11 0t2.5 13t12.5 34.5zM135 83q17 -24 16 -33t-7 -12.5t-6 8.5t-7 35zM161 88q20 -17 21.5 -26t-5 -15.5t-7.5 5t-13 34.5zM189 95q20 -17 23.5 -24.5t-3.5 -15t-9 3.5t-14 34zM126 192h42v30h-42v-30zM126 150h42v35h-42v-35zM126 110l42 1v32h-42v-33zM28 78
q4 -35 1.5 -43.5t-9 -12t-11 0.5t3 13t11.5 42h4zM44 80l3 2q19 -24 19.5 -35t-7 -14t-8 7.5t-7.5 39.5zM70 91q26 -20 28.5 -28t-4 -15.5t-9 4.5t-17.5 36zM65 230q-19 -35 -37 -57l41 1q6 12 12 25l17 -15l-8 -3q-37 -52 -58 -72l48 5q-5 13 -13 27l2 3q29 -26 29 -35.5
t-5.5 -13.5t-7 1.5t-4.5 12.5q-23 -5 -36 -9t-23 -9l-10 18q9 0 23 16.5t30 42.5q-32 -6 -40 -13l-12 19q8 -2 20.5 22t19.5 50l20 -11z" />
  </g>

</svg>
