<?xml version="1.0" standalone="no"?>
<!DOCTYPE svg PUBLIC "-//W3C//DTD SVG 1.1//EN" "http://www.w3.org/Graphics/SVG/1.1/DTD/svg11.dtd" >
<svg xmlns="http://www.w3.org/2000/svg" xmlns:xlink="http://www.w3.org/1999/xlink" version="1.1" viewBox="0 -36 256 256">
  <g transform="matrix(1 0 0 -1 0 220)">
   <path fill="currentColor"
d="M115 143l-3 2q10 18 20 46.5t14 51.5l21 -11l-8 -5q-7 -16 -13 -29h70l12 11l17 -18h-49v-41h16l11 11l17 -18h-44v-44h16l12 12l17 -19h-45v-49h22l13 13l17 -20h-101v-18l-14 -8q1 27 1 58v105q-10 -18 -19 -30zM147 191v-41h36v41h-36zM147 99h36v44h-36v-44zM147 43
h36v49h-36v-49zM179 243q17 -9 23 -16t-0.5 -18t-9.5 2.5t-15 29.5zM113 121l-13 -6v9h-33l-2 -5l19 -9l-7 -6v-25h24l10 11l16 -18h-50q0 -33 1 -57l-14 -7q1 25 1 64h-27q-11 0 -20 -2l-9 9h56v40q-13 -24 -45 -39l-1 4q28 18 37 40h-22v-8l-14 -7q1 28 1 56t-1 55l14 -8
h12q11 21 13 33l16 -9q-8 -5 -24 -24h48l6 10l13 -10l-6 -7q0 -72 1 -84zM34 170h27v35h-27v-35zM73 170h27v35h-27v-35zM34 131h23q3 13 4 32h-27v-32zM68 131h32v32h-27q-1 -15 -5 -32z" />
  </g>

</svg>
