<?xml version="1.0" standalone="no"?>
<!DOCTYPE svg PUBLIC "-//W3C//DTD SVG 1.1//EN" "http://www.w3.org/Graphics/SVG/1.1/DTD/svg11.dtd" >
<svg xmlns="http://www.w3.org/2000/svg" xmlns:xlink="http://www.w3.org/1999/xlink" version="1.1" viewBox="0 -36 256 256">
  <g transform="matrix(1 0 0 -1 0 220)">
   <path fill="currentColor"
d="M146 195h55l9 9l13 -13l-7 -5q0 -20 1 -40l-15 -7v9h-56v-7l-14 -6q1 23 1 45q-13 -17 -37 -32l-1 4q28 23 55 73h-15q-11 -1 -20 -3l-9 10h102l12 11l15 -18h-69q-9 -14 -20 -30zM146 155h56v33h-56v-33zM121 34h28v46h-28v-46zM109 73q-11 -20 -26 -34l-3 2
q15 20 26.5 46t13.5 36q-9 0 -18 -2l-9 9h53l8 9l14 -16h-33q-10 -23 -17 -36h30l9 9l11 -11l-7 -6q0 -42 1 -57l-13 -8v13h-28v-11l-13 -7q1 25 1 64zM238 21l-13 -6v13h-35v-12l-13 -7q1 14 1 28v26q-6 -8 -14 -16l-2 5q7 8 18.5 31.5t13.5 39.5q-8 0 -17 -2l-9 9h57
l10 10l12 -17h-38q-8 -23 -16 -36h31l8 8l12 -12l-7 -7q0 -45 1 -55zM190 35h35v45h-35v-45zM87 159l-13 -8v11h-11v-44h10l9 11l13 -18h-32v-57l30 12l1 -4q-32 -15 -65 -32l-11 -8l-10 15l14 5q0 75 -1 94l19 -11l-6 -6v-73l17 5v111h-18v-6l-13 -7q1 14 1 42.5t-1 46.5
l15 -10h37l9 10l13 -14l-8 -6q0 -39 1 -59zM33 169h41v52h-41v-52z" />
  </g>

</svg>
