<?xml version="1.0" standalone="no"?>
<!DOCTYPE svg PUBLIC "-//W3C//DTD SVG 1.1//EN" "http://www.w3.org/Graphics/SVG/1.1/DTD/svg11.dtd" >
<svg xmlns="http://www.w3.org/2000/svg" xmlns:xlink="http://www.w3.org/1999/xlink" version="1.1" viewBox="0 -205 1024 1024">
  <g transform="matrix(1 0 0 -1 0 819)">
   <path fill="currentColor"
d="M214 866h244l36 42l58 -56q2 -4 2 -8t-6 -4h-182q1 -69 -6 -120h126l36 42l58 -52q2 -3 2 -6q0 -10 -12 -10h-214l-8 -26q68 -30 122 -56q54 -25 66 -52q13 -24 2 -42q-9 -16 -26 -16q-18 0 -30 28q-12 27 -54 60q-41 30 -88 60q-34 -66 -118 -126q-84 -57 -152 -80
l-4 14q64 36 140 96q74 59 100 140h-154q-21 -1 -42 -8l-20 34h220q6 48 4 120h-114q-40 -58 -70 -94l-14 8q54 96 102 232q66 -24 70 -30q2 -6 -4 -12q-6 -3 -18 -8q-11 -4 -52 -70v0v0zM618 914l56 -42h198l32 36l54 -38q12 -6 12 -14q-1 -6 -34 -24v-174l4 -88
q3 -13 -18 -26q-18 -12 -36 -14v62h-218v-42q0 -10 -18 -22t-36 -12l4 114v284v0v0zM668 620h218v224h-218v-224v0v0zM722 466q-42 -3 -206 -30v-86l252 18l24 44l60 -46q7 -4 8 -10q0 -3 -8 -8l-336 -24v-82l354 28l22 40l56 -42q10 -3 8 -12q1 -3 -10 -8l-430 -34v-113
q0 -19 36 -20h304q54 0 58 54l6 79h20l8 -62q5 -22 32 -53q-24 -59 -84 -62h-352q-28 0 -52 8q-28 13 -28 58v107l-356 -30q-18 -3 -32 -12l-26 38l414 32v82l-288 -18q-18 -3 -38 -14l-26 36l352 22v84q-196 -22 -340 -40l-2 18q249 45 408 72t228 54q61 -54 62 -60
q3 -7 -8 -10q-27 2 -38 4q-10 0 -52 -2v0v0z" />
  </g>

</svg>
