<?xml version="1.0" standalone="no"?>
<!DOCTYPE svg PUBLIC "-//W3C//DTD SVG 1.1//EN" "http://www.w3.org/Graphics/SVG/1.1/DTD/svg11.dtd" >
<svg xmlns="http://www.w3.org/2000/svg" xmlns:xlink="http://www.w3.org/1999/xlink" version="1.1" viewBox="0 -205 1024 1024">
  <g transform="matrix(1 0 0 -1 0 819)">
   <path fill="currentColor"
d="M864 904q-102 -7 -186 -14v-206h182l34 48l64 -54q3 -3 4 -8q0 -13 -12 -14h-232q32 -44 68 -76q35 -32 80 -58q43 -26 134 -40v-16q-33 1 -48 -6q-15 -6 -42 -30q-42 25 -78 56q-33 29 -66 62q-30 33 -74 108h-14v-98l4 -58q-1 -18 -22 -32q-19 -12 -38 -12l4 90v110
h-14q-64 -80 -136 -142q-72 -60 -168 -122l-10 12q98 80 158 140q59 57 94 112h-118q-18 0 -50 -8l-24 36h268v202q-119 -11 -232 -6v16q189 15 294 30q103 15 188 40l34 -52l4 -12q-4 -6 -10 -6l-40 8v0v0zM448 850q71 -36 92 -62q21 -27 22 -44q1 -18 -6 -30
q-9 -10 -26 -10q-16 -1 -20 22q-4 21 -16 46q-9 25 -54 68l8 10v0v0zM732 708q49 92 80 158q60 -30 64 -38q1 -6 0 -8q-3 -2 -20 -4q-18 -3 -108 -116l-16 8v0v0zM812 434l22 26l52 -42q6 -6 6 -8q-1 -6 -22 -18v-257l4 -66q1 -11 -16 -22q-18 -12 -38 -12v62h-346v-34
q0 -12 -20 -24q-19 -12 -34 -12l4 117v308l46 -18h342v0v0zM474 123h150v135h-150v-135v0v0zM672 123h148v135h-148v-135v0v0zM474 284h150v124h-150v-124v0v0zM672 408v-124h148v124h-148v0v0zM24 644h150v324l80 -36q9 -4 10 -8q3 -1 -2 -10l-36 -16v-254h52l34 42l48 -48
q4 -3 8 -14q2 -7 -10 -8h-132v-330l158 60l8 -18q-187 -90 -244 -116q-57 -27 -80 -62l-50 62l156 58v346h-70q-16 0 -64 -8l-16 36v0v0z" />
  </g>

</svg>
