<?xml version="1.0" standalone="no"?>
<!DOCTYPE svg PUBLIC "-//W3C//DTD SVG 1.1//EN" "http://www.w3.org/Graphics/SVG/1.1/DTD/svg11.dtd" >
<svg xmlns="http://www.w3.org/2000/svg" xmlns:xlink="http://www.w3.org/1999/xlink" version="1.1" viewBox="0 -36 256 256">
  <g transform="matrix(1 0 0 -1 0 220)">
   <path fill="currentColor"
d="M107 207h-25v-18h25v18zM70 182h-26v-19h26v19zM107 182h-25v-19h25v19zM70 135h-31v-20h31v20zM113 135h-31v-20h31v20zM69 241l18 -9l-5 -6v-12h24l8 8l12 -12l-8 -5v-16h4l9 8l12 -15h-25q0 -12 1 -26l-12 -4v4h-25v-14h28l9 9l12 -13l-7 -4q0 -13 1 -28l-12 -5v7h-74
v-4l-12 -5q1 24 0 49l12 -6h31v14h-26v-3l-13 -4q1 15 1 33h-4q1 0 -8 -2l-9 9h21q0 16 -1 32l13 -7h26q0 12 -1 27zM70 207h-26v-18h26v18zM211 132q-5 0 -25 -19h37l9 9l15 -15l-7 -4q-35 -51 -64 -68.5t-53 -24.5l-2 4q23 9 52 31t51 61h-42q-22 -20 -37 -25l-2 3
q31 23 51 63zM186 75.5q4 -5.5 -1 -14t-8.5 1.5t-16.5 23l2 3q20 -8 24 -13.5zM192 229q-5 0 -16 -16h39l8 9l16 -15l-8 -5q-24 -37 -45.5 -55.5t-56.5 -31.5l-2 3q27 14 49.5 35.5t38.5 52.5h-42q-19 -23 -39 -38l-1 3q29 32 42 70zM182.5 176q1.5 -6 -2.5 -13t-8 3t-15 22
l2 2q22 -8 23.5 -14zM79 48q8 9 17 29h-33q-9 -14 -14 -22q15 -4 30 -7zM32 77q-10 -1 -18 -3l-6 10h45q7 13 10 24l15 -11q-5 -3 -12 -13h32q2 6 3 14l14 -8q-3 -4 -4 -6h11l12 9l13 -16h-38q-9 -21 -19 -33q14 -5 22 -11t7.5 -15t-11 0.5t-26.5 16.5q-25 -20 -67 -27l-1 3
q38 12 56 29q-13 7 -36 11q9 13 15 26h-17z" />
  </g>

</svg>
