<?xml version="1.0" standalone="no"?>
<!DOCTYPE svg PUBLIC "-//W3C//DTD SVG 1.1//EN" "http://www.w3.org/Graphics/SVG/1.1/DTD/svg11.dtd" >
<svg xmlns="http://www.w3.org/2000/svg" xmlns:xlink="http://www.w3.org/1999/xlink" version="1.1" viewBox="0 -36 256 256">
  <g transform="matrix(1 0 0 -1 0 220)">
   <path fill="currentColor"
d="M43 76q43 14 75 24v-6q-70 -29 -83 -43l-15 20q8 2 8 21v55q0 37 -1 74l16 -7q37 11 66 32l16 -17q-12 -1 -23.5 -5.5t-58.5 -17.5v-130zM137 63v113q0 29 -1 56l17 -12h56l11 13l18 -18l-14 -6q-14 -17 -35 -53q57 -36 50 -65t-45 -36q-5 16 -34 21v6q53 -16 61.5 9
t-40.5 63q18 37 28 59h-57v-149q0 -26 1 -50l-17 -7q1 27 1 56z" />
  </g>

</svg>
