<?xml version="1.0" standalone="no"?>
<!DOCTYPE svg PUBLIC "-//W3C//DTD SVG 1.1//EN" "http://www.w3.org/Graphics/SVG/1.1/DTD/svg11.dtd" >
<svg xmlns="http://www.w3.org/2000/svg" xmlns:xlink="http://www.w3.org/1999/xlink" version="1.1" viewBox="0 -140 1000 1000">
  <g transform="matrix(1 0 0 -1 0 860)">
   <path fill="currentColor"
d="M706 125h117q11 0 21 13t14.5 25.5t4.5 14.5q23 154 23 185q0 25 -4 155t-4 151h-62q3 -429 -164 -575q-10 -8 -32 -22t-31 -17h-7q14 10 14 28q0 3 -2 17t-2 17h-194v-47h-51v490l47 -23h203q9 15 31 23q16 -6 47 -39l-23 -15q0 -3 -2 -113q0 -181 10 -252
q99 112 99 403l-1 129h-83v24h94v247q55 -6 78 -33q-28 -12 -31 -23v-179q5 0 33 -4t32 -4q7 0 22 13q8 7 15 7t15.5 -7t38.5 -37l-31 -15q-2 -203 -5.5 -270.5t-18.5 -190.5q-31 -146 -114 -154q-1 0 -15 15q-55 58 -82 63zM246 919l-31 -31v-833h-55q0 284 8 888
q30 0 78 -24zM394 248v-107h203v107h-203zM394 381v-110h203v110h-203zM394 513v-109h203v109h-203zM42 493q0 23 30 64q16 23 21.5 33.5t11 35t8.5 67.5q16 -31 16 -108q0 -13 -1.5 -26.5t-7 -38t-20.5 -39.5t-38 -15q-18 1 -20 27zM237 711q36 -4 58 -31t22 -63
q0 -34 -22 -34q-43 0 -58 128zM425 888h141q9 15 31 23q13 -3 47 -39l-23 -23v-242q0 -1 -36 -8q-10 0 -15 -1v40h-148v-31l-59 -8q8 64 10 314q8 0 52 -25zM425 747v-78h141v78h-141zM425 865v-86h141v86h-141z" />
  </g>

</svg>
