<?xml version="1.0" standalone="no"?>
<!DOCTYPE svg PUBLIC "-//W3C//DTD SVG 1.1//EN" "http://www.w3.org/Graphics/SVG/1.1/DTD/svg11.dtd" >
<svg xmlns="http://www.w3.org/2000/svg" xmlns:xlink="http://www.w3.org/1999/xlink" version="1.1" viewBox="0 -36 256 256">
  <g transform="matrix(1 0 0 -1 0 220)">
   <path fill="currentColor"
d="M116 245l25 -9l-9 -8v-20h55l12 12l18 -19h-85v-40h79l14 14l21 -21h-205q-10 0 -19 -2l-10 9h105v46q0 16 -1 38zM66.5 110.5q16.5 19.5 28.5 43.5l18 -14q-6 -3 -16 -14h78l9 10l17 -16q-6 -2 -23 -21t-39 -38q55 -34 107 -34l-1 -6q-20 0 -26 -12q-48 11 -91 44
q-40 -29 -108 -43l-1 4q66 20 100 48q-16 19 -35 49q-23 -23 -50 -38l-2 4q18 14 34.5 33.5zM129 71q24 21 45 48h-82l-3 -3q19 -28 40 -45z" />
  </g>

</svg>
