<?xml version="1.0" standalone="no"?>
<!DOCTYPE svg PUBLIC "-//W3C//DTD SVG 1.1//EN" "http://www.w3.org/Graphics/SVG/1.1/DTD/svg11.dtd" >
<svg xmlns="http://www.w3.org/2000/svg" xmlns:xlink="http://www.w3.org/1999/xlink" version="1.1" viewBox="0 -205 1024 1024">
  <g transform="matrix(1 0 0 -1 0 819)">
   <path fill="currentColor"
d="M629 370q-5 -24 -21 -34q-18 -11 -24 -10q-6 2 -9 24q-28 129 -98 243q-11 -155 -35 -258q-41 -163 -138 -275q-12 -11 -18 -4q-4 7 27 53q123 207 123 684v80q-1 36 -8 90q-2 13 2 16q3 3 12 -1q43 -18 74 -34q7 -5 7 -9q0 -7 -6 -8q-15 -5 -22 -18q-8 -15 -11 -36v-80
q-1 -88 -5 -167q165 -199 150 -256zM739 540q1 22 1 40q0 6 -4 6q-5 0 -6 -4q-2 -16 -1 -34q-1 -89 -31 -209q-50 -169 -170 -280q-12 -11 -18 -4q-6 9 3 16q29 35 53 69q134 209 134 665v80q-1 36 -8 90q-2 13 2 16q3 3 12 -1q43 -18 74 -34q7 -5 7 -9q0 -7 -6 -8
q-15 -5 -22 -18q-8 -15 -11 -36v-80q0 -66 -4 -130q88 -453 238 -573q4 -5 1 -9q-3 -5 -10 -2q-11 4 -24 -3q-14 -8 -20 -21q-6 -7 -13 6q-104 158 -176 458q-1 8 -1 9zM284 983q2 17 18 7q38 -24 53 -34q11 -8 11 -14q-1 -5 -13 -6q-11 -2 -17 -6q-12 -12 -42 -76
q-28 -59 -62 -123q26 -10 47 -22q13 -7 0 -13q-30 -15 -33 -22q-4 -9 -4 -70v-319q0 -125 4 -210q0 -9 -7 -10l-44 -18q-9 -2 -8 14q6 133 7 224v319q-1 33 -2 57q-4 -5 -5 -9q-50 -81 -126 -175q-10 -10 -17 -4q-8 7 1 17q90 113 163 276q72 162 76 217z" />
  </g>

</svg>
