<?xml version="1.0" standalone="no"?>
<!DOCTYPE svg PUBLIC "-//W3C//DTD SVG 1.1//EN" "http://www.w3.org/Graphics/SVG/1.1/DTD/svg11.dtd" >
<svg xmlns="http://www.w3.org/2000/svg" xmlns:xlink="http://www.w3.org/1999/xlink" version="1.1" viewBox="0 -143 1024 1024">
  <g transform="matrix(1 0 0 -1 0 881)">
   <path fill="currentColor"
d="M263 938q6 -4 6 -7q4 -9 -7 -12q-23 -2 -35.5 -32t-39.5 -108h155l35 42l61 -47q9 -7 9 -11q6 -8 -9 -12q-33 -13 -44 -23.5t-79 -123.5l-17 7l54 142h-175q-63 -155 -136 -250l-11 10q63 130 101 249t56 205zM185 635l77 -25q6 -4 8 -11q-2 -2 -4 -5l-32 -18v-411
l165 128l14 -16q-193 -172 -215 -230l-60 54q47 34 47 52v482zM563 772l81 -37q6 -5 6 -11q0 -4 -4 -5l-33 -17v-408q52 64 90 143t74 166t80 251q74 -38 75 -42t-1 -8t-34 -16q-48 -130 -78 -205t-63 -139t-63 -108t-80 -98v-72q2 -35 11.5 -40t28.5 -4h140q34 4 43 32
t10 55t5 113h19q4 -86 9.5 -123.5t26.5 -44.5q-14 -39 -33 -54.5t-68 -21.5h-154q-29 0 -48.5 6t-28 20.5t-11.5 48.5v45q-38 -38 -103 -83t-119 -75l-8 14q64 50 113 87t117 109v522zM851 574l10 8q50 -38 88 -89t42 -82t-8 -45t-29 -11t-20 34t-19 74t-64 111zM477 604h20
q2 -86 -2 -142t-23 -87t-44 -38t-35 10t8 36t32 37t26 58t18 126zM619 954l10 10q74 -46 104 -78t33 -59t-9 -40t-31 -9t-22 32t-18 58t-67 86z" />
  </g>

</svg>
