<?xml version="1.0" standalone="no"?>
<!DOCTYPE svg PUBLIC "-//W3C//DTD SVG 1.1//EN" "http://www.w3.org/Graphics/SVG/1.1/DTD/svg11.dtd" >
<svg xmlns="http://www.w3.org/2000/svg" xmlns:xlink="http://www.w3.org/1999/xlink" version="1.1" viewBox="0 -36 256 256">
  <g transform="matrix(1 0 0 -1 0 220)">
   <path fill="currentColor"
d="M53 192l21 -7l-6 -7v-20h46q8 22 8 46h-44h-29q-10 0 -19 -2l-9 9h73q-3 14 -29 31l2 3q33 -9 38.5 -17t-4.5 -17h53q22 20 32 38l19 -15l-13 -5l-30 -18h47l14 12l18 -19h-103q-1 -20 -8 -46h60q0 16 -1 33l23 -7l-7 -5v-25q0 -6 1 -9l-16 -6v12h-62q-30 -36 -115 -45
l-1 4q72 16 97 41h-42l-7 -8l-15 13l8 6v30zM207 16l-16 -7v13h-127v-7l-16 -6q1 26 1 57.5t-1 39.5l15 -8q31 12 46 25l14 -19l-10 1q-27 -8 -49 -12v-26h32l12 11l15 -18h-59v-31h127v31h-27q-10 0 -19 -2l-9 9h55v30h-32q-11 1 -21 -2l-9 9h61l9 10l16 -15l-9 -6v-53
q0 -13 1 -24z" />
  </g>

</svg>
