<?xml version="1.0" standalone="no"?>
<!DOCTYPE svg PUBLIC "-//W3C//DTD SVG 1.1//EN" "http://www.w3.org/Graphics/SVG/1.1/DTD/svg11.dtd" >
<svg xmlns="http://www.w3.org/2000/svg" xmlns:xlink="http://www.w3.org/1999/xlink" version="1.1" viewBox="0 -205 1024 1024">
  <g transform="matrix(1 0 0 -1 0 819)">
   <path fill="currentColor"
d="M576 595q0 48 -6 124q-2 10 2 13q5 2 12 -5q20 -19 51 -37q95 28 153 50q56 22 93 44q12 8 16 1q20 -32 48 -57q9 -9 6 -13q-3 -5 -16 -1q-24 4 -46 0q-29 -4 -89 -17q-94 -22 -176 -32v-140h192l14 2l12 12l30 42q7 9 16 0q33 -28 61 -59q10 -10 9 -19q-2 -8 -15 -9
h-123v-217q0 -125 4 -210q0 -9 -7 -10l-44 -18q-9 -2 -8 14q6 133 7 224v217h-148v-100q0 -105 -39 -187q-37 -79 -155 -158q-13 -11 -22 1q-7 9 6 21q85 57 119 121q43 84 43 202v201zM628 927q-1 30 -4 55q-3 15 0 18q4 4 13 0q39 -17 63 -30q6 -3 6 -6q-1 -5 -4 -6
q-18 -9 -22 -15t-4 -16v-26h172q12 0 16 4q5 5 14 15l26 37q7 9 16 0q31 -28 61 -59q10 -10 9 -19q-2 -8 -15 -9h-299v-35q1 -18 2 -45q1 -9 -6 -13q-44 -21 -48 -20q-3 3 0 13q3 25 4 65v35h-244v-23q1 -18 2 -45q1 -9 -6 -13q-44 -21 -48 -20q-3 3 0 13q3 25 4 65v23h-210
q-27 0 -61 -7q-5 -1 -6 2q-13 20 -23 36q-6 10 7 7q61 -6 68 -7h225v22q-1 30 -4 55q-3 15 0 18q4 4 13 0q39 -17 63 -30q6 -3 6 -6q-1 -5 -4 -6q-18 -9 -22 -15t-4 -16v-22h244v26zM210 777q1 11 8 8q29 -17 63 -42q10 -6 9 -12q-1 -5 -13 -8q-25 -7 -46 -68h154q6 0 12 7
l36 41q7 7 14 0q26 -26 44 -48q11 -14 4 -24q-5 -6 -18 -7h-256q-31 -88 -49 -134q-14 -32 -23 -59h127q-1 77 -4 123q-2 17 10 13q54 -17 72 -27q14 -7 -2 -16q-16 -8 -20 -18q-7 -17 -7 -75h77q11 0 21 10l33 38q7 8 14 1q26 -24 42 -49q11 -16 8 -23q-4 -7 -17 -8h-178
v-111q75 17 139 30q15 3 16 -6q2 -11 -14 -15q-80 -24 -141 -45q0 -105 4 -172q1 -8 -5 -12l-42 -27q-13 -10 -12 11q3 101 6 186q-55 -15 -98 -27q-42 -8 -57 -26q-7 -8 -11 -8q-4 -1 -7 8q-10 27 -29 46q-11 12 -10 15q2 3 12 3q75 6 160 22q21 6 40 7q0 5 1 8v113h-142
q-7 -9 -11 -13q-6 -7 -10 0q-13 19 -38 37q-7 6 0 10q10 6 22 13q14 12 71 177h-25q-42 -1 -73 -7q-8 -3 -11 6q-4 18 -19 30q-7 7 -4 11q4 3 11 -1q38 -8 84 -8h47q27 89 31 122z" />
  </g>

</svg>
