<?xml version="1.0" standalone="no"?>
<!DOCTYPE svg PUBLIC "-//W3C//DTD SVG 1.1//EN" "http://www.w3.org/Graphics/SVG/1.1/DTD/svg11.dtd" >
<svg xmlns="http://www.w3.org/2000/svg" xmlns:xlink="http://www.w3.org/1999/xlink" version="1.1" viewBox="0 -205 1024 1024">
  <g transform="matrix(1 0 0 -1 0 819)">
   <path fill="currentColor"
d="M912 524l70 -44q6 -6 6 -12q-1 -7 -22 -10l-168 -36v-240l4 -107q0 -12 -24 -28t-36 -14l4 129v250l-242 -56q-23 -8 -46 -22l-32 36l320 70v540l84 -36q7 -12 2 -14q-5 -3 -34 -18v-462l86 22l28 52v0v0zM506 912q116 -54 140 -84q22 -29 18 -52q-3 -22 -14 -28
q-11 -7 -28 -4q-16 2 -22 28q-7 24 -26 52q-19 26 -76 74l8 14v0v0zM480 682q102 -49 126 -80q22 -31 20 -56q-3 -24 -14 -30q-11 -8 -28 -6t-22 28q-6 26 -26 58q-18 29 -66 74l10 12v0v0zM350 784l34 46l58 -52q3 -3 4 -8q0 -12 -12 -12h-358q-18 1 -42 -10l-24 36h340v0
v0zM54 652h262l32 44l58 -50q2 -3 2 -8q0 -12 -12 -12h-252q-37 0 -68 -8l-22 34v0v0zM90 432l62 -44h146l28 34l60 -44q6 -6 6 -8q0 -6 -32 -30v-146l4 -81q1 -12 -16 -24q-16 -12 -38 -16v81h-168v-61q0 -18 -20 -30q-18 -13 -36 -14l4 119v264v0v0zM142 180h168v182h-168
v-182v0v0zM136 974l10 10q84 -55 102 -82q19 -27 18 -48q0 -22 -12 -32q-13 -11 -28 -6q-16 3 -20 22q-2 19 -10 44q-6 25 -60 92v0v0zM54 520h262l30 46l60 -52q2 -3 2 -8q0 -12 -12 -12h-266q-34 0 -58 -8l-18 34v0v0z" />
  </g>

</svg>
