<?xml version="1.0" standalone="no"?>
<!DOCTYPE svg PUBLIC "-//W3C//DTD SVG 1.1//EN" "http://www.w3.org/Graphics/SVG/1.1/DTD/svg11.dtd" >
<svg xmlns="http://www.w3.org/2000/svg" xmlns:xlink="http://www.w3.org/1999/xlink" version="1.1" viewBox="0 -36 256 256">
  <g transform="matrix(1 0 0 -1 0 220)">
   <path fill="currentColor"
d="M49 235l20 -6l-6 -5v-20h64v23q0 7 -1 20l20 -8l-6 -5v-30h65v14q0 7 -1 16l22 -7l-7 -6v-10q0 -7 1 -15l-15 -5v6h-142l-6 -7l-13 10l6 6v12q0 8 -1 17zM55 180h152l12 10l17 -17h-181q1 -53 -5 -92t-36 -72l-3 2q21 31 26.5 73.5t2.5 102.5zM134 157q0 8 -1 16l20 -7
l-6 -5v-4h38l10 9l15 -16h-63v-13h58l11 9l16 -16h-145q-12 0 -21 -2l-9 9h77v13h-32q-11 0 -20 -2l-10 9h62zM179 131l20 -5l-6 -6v-7h11l10 9l15 -16h-36v-17h22l11 9l14 -16h-72q-10 0 -20 -2l-9 9h41v17h-5q-11 0 -19 -3l-9 10h33q0 8 -1 18zM138 95l1 -4
q-68 -13 -81 -20l-8 14q30 3 40 5v15h-6q-10 0 -20 -2l-9 9h35q0 8 -1 18l20 -6l-6 -5v-7h11l9 8l14 -15h-34v-14q9 1 35 4zM192 70l11 10l16 -17h-51v-29q0 -7 9 -8h38q7 1 9 6t3 21h5q0 -13 2 -19.5t9 -7.5q-6 -11 -22 -11h-50q-16 0 -16 16v32h-32q-7 -25 -22 -36
t-57 -17l-1 4q27 5 44 15.5t21 33.5h-16q-11 -1 -20 -3l-10 10h130z" />
  </g>

</svg>
