<?xml version="1.0" standalone="no"?>
<!DOCTYPE svg PUBLIC "-//W3C//DTD SVG 1.1//EN" "http://www.w3.org/Graphics/SVG/1.1/DTD/svg11.dtd" >
<svg xmlns="http://www.w3.org/2000/svg" xmlns:xlink="http://www.w3.org/1999/xlink" version="1.1" viewBox="0 -205 1024 1024">
  <g transform="matrix(1 0 0 -1 0 819)">
   <path fill="currentColor"
d="M352 898h500l40 50l60 -60q3 -3 4 -8q1 -7 -16 -8h-134v-554l84 6l36 60l70 -58q6 -5 6 -10q0 -12 -24 -14l-172 -10v-128l4 -107q-1 -15 -22 -30q-21 -14 -38 -14l4 145v130l-396 -28q-25 -4 -52 -14l-24 38l168 12v576h-36q-10 0 -46 -8l-16 34v0v0zM502 298l252 18
v170h-252v-188v0v0zM502 512h252v172h-252v-172v0v0zM502 710h252v162h-252v-162v0v0zM366 944q9 -8 4 -10q0 -3 -8 -8q-33 -9 -48 -42q-46 -99 -100 -186l38 -14q13 -4 12 -8q6 -9 -26 -24v-478l4 -105q-3 -15 -26 -30q-22 -15 -34 -12l4 145v480q-75 -137 -158 -220
l-10 10q104 158 178 314q71 154 92 230l78 -42v0v0z" />
  </g>

</svg>
