<?xml version="1.0" standalone="no"?>
<!DOCTYPE svg PUBLIC "-//W3C//DTD SVG 1.1//EN" "http://www.w3.org/Graphics/SVG/1.1/DTD/svg11.dtd" >
<svg xmlns="http://www.w3.org/2000/svg" xmlns:xlink="http://www.w3.org/1999/xlink" version="1.1" viewBox="0 -36 256 256">
  <g transform="matrix(1 0 0 -1 0 220)">
   <path fill="currentColor"
d="M49 87q0 17 -1 34l18 -9l-5 -4v-21h19q-2 17 -10 28l2 2q11 -6 17 -14.5t-6 -15.5h6l10 9l12 -16h-40q17 -39 44 -42v-4q-14 -1 -18 -10q-25 21 -32 56h-4q-7 -51 -54 -70v3q36 28 41 67h-14q-10 0 -19 -2l-9 9h43zM26 172.5q0 35.5 -1 50.5l11 -8h7q6 20 8 31l16 -8
l-6 -5q-6 -10 -12 -18h33l7 9l12 -12l-7 -6v-61v-24l-12 -7v8h-44v-7l-13 -5q1 27 1 62.5zM38 188h44v20h-44v-20zM38 159h44v22h-44v-22zM38 129h44v23h-44v-23zM170 167l-11 -5v5h-12v-19h11l10 8l10 -15h-57l-7 -8l-10 14l6 4v46q0 22 -1 37l13 -9h33l10 9l12 -16h-30
v-18h12l5 7l10 -10l-5 -5v-11q0 -8 1 -14zM159 193h-38v-19h38v19zM137 167h-16v-19h16v19zM137 218h-16v-18h16v18zM181 216l-6 9h45l8 9l12 -13l-8 -6q-7 -27 -17 -43q14 -21 33 -27v-4q-8 1 -14 -7q-16 11 -26 27q-14 -17 -38 -26l-2 2q21 15 33 34q-11 23 -14 47z
M207 181q8 14 13 37h-29q4 -19 16 -37zM137 27l22 -2q8 2 7 14v35q-15 -2 -26 -3.5t-19 -4.5l-8 15q8 1 20 7t31 20q-7 -1 -19.5 -3.5t-17.5 -4.5l-11 14q8 2 20.5 8.5t21.5 19.5l16 -11h-8q-25 -15 -33 -19l38 2q14 9 23 21l14 -13l-10 -2q-33 -26 -60 -39l72 6
q-6 8 -16 17l2 2q12 -6 23 -13.5t13 -14.5t-3 -13t-7.5 0.5t-7.5 15.5l-35 -5v-48q-1 -16 -19 -21q-3 14 -23 15v5zM151 55l-9 -5q-18 -22 -40 -33l-2 2q24 21 36 47zM190 64q22 -9 32 -16.5t9.5 -14t-4.5 -11.5t-10.5 8t-28.5 30z" />
  </g>

</svg>
