<?xml version="1.0" standalone="no"?>
<!DOCTYPE svg PUBLIC "-//W3C//DTD SVG 1.1//EN" "http://www.w3.org/Graphics/SVG/1.1/DTD/svg11.dtd" >
<svg xmlns="http://www.w3.org/2000/svg" xmlns:xlink="http://www.w3.org/1999/xlink" version="1.1" viewBox="0 -36 256 256">
  <g transform="matrix(1 0 0 -1 0 220)">
   <path fill="currentColor"
d="M162 217q29 -13 71 -10v-4q-15 -3 -16 -12q-60 6 -86 38q-28 -35 -103 -38v5q51 7 71.5 21.5t26.5 30.5l17 -10q-7 -4 -8 -6q10 -7 21 -13q17 9 28 22l15 -14l-9 -1q-14 -5 -28 -9zM57 243q19 -5 26.5 -11t2 -15t-10.5 1t-20 22zM27 186q17 -7 22.5 -13t0 -14.5t-10 4
t-14.5 20.5zM126 191q15 -5 20.5 -8.5t6 -9.5t-4.5 -11t-8 4.5t-15 21.5zM94 166q16 -5 21 -8t2 -10.5t-8.5 -2t-11 9.5t-20.5 10q-14 -24 -69 -29v4q32 5 44 14t14.5 19.5t2.5 23.5l19 -5l-4 -5q-2 -6 -5 -17l9 -2q14 15 19 29l16 -14l-9 -3q-9 -5 -20 -14zM196 165
q30 -8 36.5 -12.5t5.5 -13t-10.5 -2.5t-19.5 12t-32 16q-11 -21 -63 -28v5q26 7 37.5 15.5t15 17.5t4.5 23l20 -9l-6 -4l-5 -15l12 -3q19 13 27 23l15 -14h-8q-14 -5 -29 -11zM136 13l-17 -6q1 16 1 32h-83q-8 1 -19 -2l-10 9h112v13h-53v-1l-15 -5q1 10 1 27t-1 32l17 -5
h115l7 7l14 -10l-7 -5q0 -29 1 -40l-15 -4v4h-49v-13h81l14 11l17 -18h-112q0 -17 1 -26zM67 86h117v14h-117v-14zM67 66h117v13h-117v-13zM124 126h-36q1 -7 3 -14l-14 -4q-1 8 -2 18h-23q-14 1 -26 -3l-8 10h55q-1 13 -4 23l21 -6l-5 -7l1 -10h12l12 8zM127 134h35
q2 14 3 23l19 -7l-6 -6l-3 -10h33l12 8l13 -15h-59q-1 -4 -2 -16l-15 -2q4 14 4 18h-12q-7 2 -14 -3z" />
  </g>

</svg>
