<?xml version="1.0" standalone="no"?>
<!DOCTYPE svg PUBLIC "-//W3C//DTD SVG 1.1//EN" "http://www.w3.org/Graphics/SVG/1.1/DTD/svg11.dtd" >
<svg xmlns="http://www.w3.org/2000/svg" xmlns:xlink="http://www.w3.org/1999/xlink" version="1.1" viewBox="0 -205 1024 1024">
  <g transform="matrix(1 0 0 -1 0 819)">
   <path fill="currentColor"
d="M882 846l54 -42q12 -6 12 -14q-1 -6 -34 -30v-198l4 -96q-3 -13 -20 -22q-16 -9 -34 -12v24h-140q27 -109 52 -166q84 64 148 134q55 -49 54 -56t-4 -8t-20 -2q-16 0 -44 -12q-27 -13 -126 -74q36 -64 72 -106q36 -40 70 -61q32 -18 86 -30v-18q-33 3 -54 -4
q-21 -5 -42 -20q-57 48 -96 102q-40 52 -68 121q-28 68 -50 200h-72v-349l114 63l10 -14q-91 -64 -112 -83q-21 -17 -44 -50l-52 44q24 21 36 48v731l58 -44h208l34 44v0v0zM630 776v-140h234v140h-234v0v0zM630 612v-132h234v132h-234v0v0zM648 964l8 12q51 -27 82 -50
q30 -21 36 -42t-2 -38q-9 -18 -24 -18q-15 -2 -24 18q-7 17 -16 44q-9 26 -60 74v0v0zM68 872h386l38 46l54 -54q3 -3 4 -8q0 -7 -14 -8h-172v-140h64l22 36l62 -42q3 -3 4 -6q1 -7 -28 -26v-510l6 -77q-1 -12 -16 -24q-13 -11 -38 -14v84h-288v-66q0 -11 -18 -26
q-16 -12 -34 -12l4 115v608l44 -40h74v140h-76q-12 0 -60 -8l-18 32v0v0zM152 286v-132h288v132h-288v0v0zM152 334v-22h288v110h-40q-16 0 -34 4q-18 3 -30 18q-10 12 -10 34v206h-64q4 -144 -22 -216q-25 -72 -88 -134v0v0v0zM440 684h-76v-194q-1 -18 8 -24t22 -6h46v224
v0v0zM262 708h64v140h-64v-140v0v0zM222 684h-70v-322q38 50 56 122q17 71 14 200v0v0z" />
  </g>

</svg>
