<?xml version="1.0" standalone="no"?>
<!DOCTYPE svg PUBLIC "-//W3C//DTD SVG 1.1//EN" "http://www.w3.org/Graphics/SVG/1.1/DTD/svg11.dtd" >
<svg xmlns="http://www.w3.org/2000/svg" xmlns:xlink="http://www.w3.org/1999/xlink" version="1.1" viewBox="0 -205 1024 1024">
  <g transform="matrix(1 0 0 -1 0 819)">
   <path fill="currentColor"
d="M554 948q6 -4 6 -10q4 -7 -16 -10q-33 -12 -80 -84h292l28 46l70 -46q6 -4 6 -8q0 -7 -36 -34v-234l4 -86q0 -12 -18 -26q-15 -12 -36 -14v46h-514v-26q0 -12 -18 -24t-36 -14l4 136v334l62 -50h166q27 71 48 136l68 -32v0v0zM260 516h514v132h-514v-132v0v0zM260 676
h514v140h-514v-140v0v0zM514 456q6 -6 4 -12q-1 -4 -8 -8l-36 -18v-94l400 44l32 58l70 -54q6 -3 6 -8q6 -12 -14 -14l-494 -54v-124q-1 -36 2 -51t16 -22q12 -6 42 -6h266q36 0 54 18q15 17 18 49q0 32 4 104h20q2 -60 8 -96q5 -35 38 -53q-15 -35 -42 -50t-68 -18h-326
q-34 0 -52 12q-19 10 -26 28q-6 18 -6 50v153l-304 -32q-24 -7 -44 -20l-34 42l382 38v164l92 -26v0v0z" />
  </g>

</svg>
