<?xml version="1.0" standalone="no"?>
<!DOCTYPE svg PUBLIC "-//W3C//DTD SVG 1.1//EN" "http://www.w3.org/Graphics/SVG/1.1/DTD/svg11.dtd" >
<svg xmlns="http://www.w3.org/2000/svg" xmlns:xlink="http://www.w3.org/1999/xlink" version="1.1" viewBox="0 -52 256 256">
  <g transform="matrix(1 0 0 -1 0 204)">
   <path fill="currentColor"
d="M88 22l-1 3q24 15 36 29q14 17 21 32q6 12 8 21h-27l-7 -9l-12 11q6 3 7 9l7 37q1 6 -2 10l2 2l10 -10h39v40h-43q-4 0 -9 -4l-9 9h71l12 19q12 21 12 23l-1 2q-1 3 -2 4l2 2l16 -10q2 -1 2 -2q1 -1 -1 -2h-3q-2 -1 -3 -1q-12 -17 -27 -35h33l7 9l13 -11q2 -2 1 -3
q0 -1 -2 -1l-5 -2v-31l2 -14q0 -5 -4 -7t-10 -2v12h-41v-40h48l8 10l15 -14q1 -1 -2 -3l-6 -2q0 -6 -2 -21q2 11 0 -3q-1 -13 -4 -20q-3 -6 -8 -9q-4 -4 -15 -7q0 6 -4 11l-4 2q-8 3 -17 5v4q13 -4 25 -5q10 -1 13 6q3 9 3 17q1 3 1 12q1 8 1 12h-52v-65l1 -23q0 -5 -4 -8
q-4 -2 -10 -3q1 4 1 23q1 14 1 23v53h-5q-6 -17 -12 -29t-22 -28q-15 -16 -42 -28zM131 152l-8 -40h46v40h-38zM221 197h-41v-40h41v40zM128 245v3q10 -4 19 -10q10 -6 13 -13q4 -7 2 -13q-1 -5 -6 -5t-5 8q-1 10 -7 16q-6 7 -16 14zM8 98l-3 3q27 25 39 40l2 2l3 6v6
q-1 6 -5 10l4 3l8 -9q1 2 3 5q2 4 3 5l3 6q4 6 10 21h-49q-6 0 -9 -4l-9 9h65l8 8l14 -12q2 -1 2 -2t-2 -1q-6 -1 -8 -3q-2 -1 -7 -10t-11 -20q-4 -6 -9 -12v-25q1 0 3 -1q1 0 2 -1l9 12q11 14 11 18t-2 7l2 2l18 -12q2 -1 2 -2t-2 -1q-4 0 -10 -3q-9 -9 -24 -22q1 0 3 -1
q8 -3 12 -6q7 -4 11 -10q3 -5 2 -10t-5 -5q-5 -1 -7 6t-7 13q-4 5 -18 11v-75l1 -22q0 -6 -3 -8q-4 -3 -10 -4v11q1 19 1 35v79q-11 -14 -41 -37zM31 248l1 3q22 -6 28 -10q7 -5 10 -10q3 -4 1 -10q-1 -4 -5 -6q-4 0 -5 5q-2 7 -7 13q-5 8 -23 15z" />
  </g>

</svg>
