<?xml version="1.0" standalone="no"?>
<!DOCTYPE svg PUBLIC "-//W3C//DTD SVG 1.1//EN" "http://www.w3.org/Graphics/SVG/1.1/DTD/svg11.dtd" >
<svg xmlns="http://www.w3.org/2000/svg" xmlns:xlink="http://www.w3.org/1999/xlink" version="1.1" viewBox="0 -205 1024 1024">
  <g transform="matrix(1 0 0 -1 0 819)">
   <path fill="currentColor"
d="M610 894q-12 -14 -26 -40h154l34 34l54 -50q8 -6 8 -12q-1 -6 -14 -8q-9 -2 -24 -10q-12 -6 -36 -30t-80 -90h136l30 38l48 -44q6 -4 6 -8q1 -6 -28 -26v-124h36l34 44l54 -52q3 0 4 -6q0 -12 -12 -12h-116v-110l4 -104q-1 -11 -20 -22q-16 -11 -32 -6v62h-142v-191
q3 -54 -18 -76q-22 -20 -62 -26q-5 21 -28 38q-21 15 -98 36l4 18q62 -13 94 -20q30 -6 46 2q15 5 12 28v191h-108q-19 -1 -40 -10l-26 36h174v154h-150q-21 0 -68 -8l-16 34h234v136h-92q-21 0 -44 -8l-22 34h176l90 142h-172q-69 -108 -144 -192l-14 10q68 108 104 178
q35 69 68 150q75 -39 78 -44q0 -3 -2 -8q0 -3 -18 -8q-18 -3 -30 -20v0v0zM682 662v-138h142v138h-142v0v0zM682 498v-154h142v154h-142v0v0zM200 950l74 -34q9 -4 4 -10q0 -1 -6 -4l-26 -16v-586l84 18v454l72 -30q8 -3 8 -6q0 -4 -6 -10l-28 -16v-390l4 -74q1 -13 -16 -26
q-16 -10 -34 -10v86q-135 -36 -174 -54q-36 -18 -72 -54l-54 54q36 18 36 36v480l66 -34q14 -6 14 -12q1 -3 -34 -18v-428l88 24v660v0v0z" />
  </g>

</svg>
