<?xml version="1.0" standalone="no"?>
<!DOCTYPE svg PUBLIC "-//W3C//DTD SVG 1.1//EN" "http://www.w3.org/Graphics/SVG/1.1/DTD/svg11.dtd" >
<svg xmlns="http://www.w3.org/2000/svg" xmlns:xlink="http://www.w3.org/1999/xlink" version="1.1" viewBox="0 -36 256 256">
  <g transform="matrix(1 0 0 -1 0 220)">
   <path fill="currentColor"
d="M17.5 57q3.5 25 4 57.5t0.5 64.5t-1 55l14 -8h53l12 10l14 -17h-79v-39q0 -37 -1.5 -71.5t-7 -57t-17.5 -37.5l-2 2q7 16 10.5 41zM72 181q0 15 -1 28l18 -8l-5 -7v-59h6l11 9l13 -16h-30v-83h2l11 10l11 -17h-51q-13 1 -26 -3l-8 10h25v94q0 15 -1 27l17 -8l-5 -7v-106
h13v136zM205 154l-14 -4q1 19 1 37t-1 32l18 -6l-5 -7v-38q0 1 1 -14zM220 246l20 -9l-6 -7v-94q0 -14 -18 -20q-6 12 -11.5 14.5t-12.5 3.5v4q15 -2 22 -2.5t7 8.5v87q0 1 -1 15zM136 185q11 -6 14.5 -9.5t-0.5 -12.5t-7.5 0.5t-9.5 16.5q-11 -12 -25 -20l-2 2q23 25 34 63
q-10 0 -20 -3l-8 10h53l13 9l13 -16h-36q-5 -12 -9 -21h21l7 8l13 -12l-8 -5q-10 -59 -75 -82l-1 3q53 30 63 81h-22q-3 -6 -8 -12zM173.5 113q-1.5 9 -13.5 26l2 2q13 -6 20 -13t0 -15.5t-8.5 0.5zM171 99q-6 -11 -16 -24v-45q9 4 32 16l2 -4q-18 -10 -42 -33l-10 10l3 4
l2 5v33q-19 -19 -52 -35l-1 3q48 35 66 70h-16q-14 1 -25 -3l-9 10h112l13 10l13 -17h-61q5 -14 18 -35q17 14 27 31l13 -15l-8 -2q-11 -8 -28 -18q14 -23 44 -32v-3q-12 0 -18 -10q-37 20 -53 84h-6z" />
  </g>

</svg>
