<?xml version="1.0" standalone="no"?>
<!DOCTYPE svg PUBLIC "-//W3C//DTD SVG 1.1//EN" "http://www.w3.org/Graphics/SVG/1.1/DTD/svg11.dtd" >
<svg xmlns="http://www.w3.org/2000/svg" xmlns:xlink="http://www.w3.org/1999/xlink" version="1.1" viewBox="0 -36 256 256">
  <g transform="matrix(1 0 0 -1 0 220)">
   <path fill="currentColor"
d="M18 209l-1 4q19 4 40 12.5t31 18.5l13 -19h-8l-23 -7v-47h13l11 12l15 -19h-39v-23q21 -9 25.5 -17t0 -17.5t-9.5 4.5t-16 24q0 -94 1 -119l-15 -9q1 51 1 124q-18 -38 -46 -68l-2 3q33 52 46 98h-15q-10 0 -19 -2l-9 9h45v44q-10 -2 -39 -6zM161 219l-8 -6v-47
q38 34 53 74l15 -15l-7 -5q-28 -40 -61 -65q2 -6 13 -5h28q13 0 13 32h4q-1 -19 2.5 -24t8.5 -6q-7 -13 -20 -13h-48q-11 1 -12 9q-18 -12 -43 -18v4q25 11 41 24v37q0 18 -1 36zM179.5 209q-4.5 -7 -10 6t-20.5 26l2 3q27 -11 30 -19.5t-1.5 -15.5zM242 160.5q-5 -8.5 -9 5
t-20 32.5l2 4q25 -17 28.5 -25t-1.5 -16.5zM108.5 176.5q10.5 9.5 15.5 30.5l3 -2q-2 -43 -15.5 -40.5t-3 12zM180.5 126.5q2.5 -5.5 -3.5 -11.5t-8.5 2.5t-16.5 18.5l2 3q24 -7 26.5 -12.5zM118 112h106l7 8l16 -14q-14 -1 -30 -21l-3 2l10 18h-106q1 -8 -2 -13t-7.5 -6
t-8.5 2.5t2.5 10t9.5 23.5h5zM127 69q0 13 -1 23l23 -9l-8 -6v-20q35 15 58 34l15 -15h-9q-35 -15 -64 -24v-13q0 -12 16 -12h44q13 -1 15 5.5t3 16.5h4q1 -10 3.5 -16.5t7.5 -6.5q-10 -10 -21 -10h-59q-27 -2 -27 16v37z" />
  </g>

</svg>
