<?xml version="1.0" standalone="no"?>
<!DOCTYPE svg PUBLIC "-//W3C//DTD SVG 1.1//EN" "http://www.w3.org/Graphics/SVG/1.1/DTD/svg11.dtd" >
<svg xmlns="http://www.w3.org/2000/svg" xmlns:xlink="http://www.w3.org/1999/xlink" version="1.1" viewBox="0 -36 256 256">
  <g transform="matrix(1 0 0 -1 0 220)">
   <path fill="currentColor"
d="M63 222q14 -7 23 -12t7 -16.5t-9.5 0.5t-22.5 23q-19 -40 -52 -73l-2 2q19 25 35 58.5t15 42.5l14 -12q-3 -2 -8 -13zM91 118q0 -22 1 -37l-13 -7v8h-39v-46q15 8 32 18q-3 8 -10 22l3 3q17 -18 22.5 -28t-0.5 -19t-8.5 0t-5.5 18q-38 -30 -39 -39l-9 16q3 6 3 13v77
q0 25 -1 42l13 -8h39l8 7l10 -12l-6 -6v-22zM40 120h39v24h-39v-24zM40 89h39v24h-39v-24zM122 190v19q0 25 -1 38l20 -11l-7 -7v-39h3l10 10l12 -17h-25v-50l24 16l2 -3l-26 -22v-87q2 -21 -16 -28q0 14 -23 20v4q12 -1 19.5 -1.5t7.5 8.5v75q-16 -13 -19 -19l-10 15
q15 7 29 17v55h-1q-10 0 -19 -2l-9 9h29zM200 232q20 6 31 13l7 -21q-13 3 -35 -1.5t-55 -7.5v5q32 6 52 12zM176 182.5q7 -10.5 5 -17t-6.5 -11.5t-6.5 12t-14 37l2 2q13 -12 20 -22.5zM206 184q3 -9 1 -15.5t-6 -9.5t-6 13t-10 37l2 3q16 -19 19 -28zM231 184
q-7 -13 -21 -32l-3 1q19 41 22 61l15 -11q-6 -6 -13 -19zM179 155l18 -9q-6 -2 -13 -24h41l9 11l14 -18h-18q-7 -28 -20 -52q27 -16 31 -24t2.5 -16.5t-10.5 3t-29 26.5q-26 -34 -67 -44l-1 4q37 16 56 45q-19 10 -38 16q9 22 15 42h-14l-5 -2l-7 9h28q7 22 8 33zM168 77
q15 -5 29 -10q11 18 19 48h-33q-7 -17 -15 -38zM65 177.5q5 -7.5 2 -15t-5.5 -7.5t-5 11t-10.5 26l2 2q12 -9 17 -16.5z" />
  </g>

</svg>
