<?xml version="1.0" standalone="no"?>
<!DOCTYPE svg PUBLIC "-//W3C//DTD SVG 1.1//EN" "http://www.w3.org/Graphics/SVG/1.1/DTD/svg11.dtd" >
<svg xmlns="http://www.w3.org/2000/svg" xmlns:xlink="http://www.w3.org/1999/xlink" version="1.1" viewBox="0 -52 256 256">
  <g transform="matrix(1 0 0 -1 0 204)">
   <path fill="currentColor"
d="M9 223h78l8 10l17 -12l2 -2q0 -1 -3 -1h-45q-3 -33 -17 -70h29l9 11l13 -13q2 -2 1 -2q0 -1 -2 -2l-5 -2v-74l1 -16q2 -10 -12 -10v16h-36v-16q1 -8 -13 -11q2 13 2 38v53q-13 -23 -29 -38l-2 3q18 21 31 55v8q-1 6 -5 10l4 3l6 -6q11 32 14 63h-26q-6 0 -11 -3zM126 234
l11 -10h86l9 11l17 -13q3 -1 2 -2q0 -1 -5 -1h-106v-94q0 -34 -13 -66q-11 -28 -42 -47l-2 3q26 24 35 50q12 33 11 81v76q-1 3 -6 8zM47 61h36v82h-36v-82z" />
  </g>

</svg>
