<?xml version="1.0" standalone="no"?>
<!DOCTYPE svg PUBLIC "-//W3C//DTD SVG 1.1//EN" "http://www.w3.org/Graphics/SVG/1.1/DTD/svg11.dtd" >
<svg xmlns="http://www.w3.org/2000/svg" xmlns:xlink="http://www.w3.org/1999/xlink" version="1.1" viewBox="0 -120 1000 1000">
  <g transform="matrix(1 0 0 -1 0 880)">
   <path fill="currentColor"
d="M568 738h-12q-97 -88 -234 -158l-8 14q60 37 125 94q60 55 98 103l31 -25v130h-37l12 -8q10 -6 10 -13q0 -10 -11 -10h-9h-7l-3 -2q-74 -74 -160 -128l6 -6v-18h-133v-206l139 59l6 -15l-145 -89v-310q0 -42 -8 -53q-10 -14 -31 -25q-19 -9 -32 -9h-3q-8 0 -12 2
q-4 3 -4 22q0 17 -16 20l-56 14v19h99v285l-52 -30l-7 -28q-3 -14 -11 -14q-6 0 -14 12l-43 66l127 50v230h-113l-14 27h127v225l89 -12q21 -3 21 -14q0 -12 -21 -17l-26 -7v-175h26l45 53l41 -40q86 70 135 145h-122l-15 26h217l22 38l64 -44q13 -10 13 -17q0 -8 -13 -11
l-22 -4v-280l-59 -10v144zM599 282q-21 -14 -43 -27l-10 12q68 56 117 116q25 32 63 90h-212l47 -17q14 -6 14 -13q0 -9 -20 -12l-16 -2q-17 -20 -25 -30q79 -28 79 -64q0 -12 -7.5 -22t-17.5 -10q-5 0 -10 3q-6 4 -23 34q-12 21 -36 42q-63 -76 -141 -131l-11 10
q95 93 143 209l2 3h-133l-10 25h250v85l73 -8q14 -2 14 -13q0 -9 -14 -13l-13 -5v-46h148l46 54l78 -59v-20h-186l40 -17q18 -8 18 -15q0 -10 -18 -12l-13 -1q-17 -17 -35 -34q49 -16 89 -48q29 -23 29 -46q0 -18 -9 -29q-9 -10 -20 -10q-8 0 -15 7q-6 7 -25 38
q-36 54 -63 75q-49 -46 -99 -81l53 -8q14 -2 14 -8t-12 -12l-20 -10v-30h168l50 56l73 -58v-23h-291v-139l-60 -8v147h-262l-14 25h276v50zM850 786v111h-40l14 -9q11 -7 11 -16t-9 -8l-12 1h-2q-99 -100 -168 -141l-12 12q43 40 84 87q38 44 57 74h-87l-17 27h181l25 38
l58 -38q14 -9 14 -19t-14 -14l-22 -5v-288l-61 -12v165h-10q-104 -106 -194 -154l-10 13q45 35 102 94q45 48 86 102z" />
  </g>

</svg>
