<?xml version="1.0" standalone="no"?>
<!DOCTYPE svg PUBLIC "-//W3C//DTD SVG 1.1//EN" "http://www.w3.org/Graphics/SVG/1.1/DTD/svg11.dtd" >
<svg xmlns="http://www.w3.org/2000/svg" xmlns:xlink="http://www.w3.org/1999/xlink" version="1.1" viewBox="0 -205 1024 1024">
  <g transform="matrix(1 0 0 -1 0 819)">
   <path fill="currentColor"
d="M372 948h488l28 40l58 -46q3 -3 4 -8q0 -13 -12 -14h-128v-268l84 4l32 44l58 -50q16 -12 0 -18l-174 -6v-40q-1 -15 -16 -24q-14 -7 -34 -10v72l-306 -4q-67 -3 -80 -12l-24 36l144 4v272h-64q-9 0 -38 -6l-20 34v0v0zM544 650h216v74h-216v-74v0v0zM544 748h216v72
h-216v-72v0v0zM544 846h216v74h-216v-74v0v0zM646 540h262l30 42l56 -48q3 -3 4 -8q0 -13 -12 -14h-86v-294l32 8l26 38l44 -40q16 -12 0 -18l-102 -12v-65l4 -66q0 -11 -18 -20q-19 -9 -40 -12l4 100v57l-132 -10q-48 -9 -72 -20l-28 34l64 8v312l-16 -6l-20 34v0v0z
M730 204l120 10v108h-120v-118v0v0zM730 346h120v74h-120v-74v0v0zM730 446h120v66h-120v-66v0v0zM344 542h224l28 38l44 -44q6 -5 6 -10q1 -10 -10 -10h-36v-280l58 14l4 -16l-62 -24l-2 -87l6 -60q0 -12 -18 -24q-18 -9 -38 -10l4 102v69q-114 -36 -146 -48
q-31 -10 -68 -41l-36 55l98 24v326l-40 -8l-16 34v0v0zM446 202l106 24v94h-106v-118v0v0zM446 346h106v76h-106v-76v0v0zM446 448h106v68h-106v-68v0v0zM290 924q9 -10 -6 -16q-19 -10 -28 -16q-9 -7 -54 -74q-43 -67 -104 -164h130q35 62 62 122l68 -44q3 -9 -14 -12
q-12 -6 -24 -18q-9 -8 -62 -82q-51 -71 -140 -190l166 22q-13 45 -46 102l14 10q64 -70 80 -100q14 -30 16 -54q3 -21 -6 -32q-9 -12 -20 -12q-11 -2 -22 6q-9 8 -12 58q-61 -10 -118 -28t-96 -38l-32 66q24 2 52 14q42 51 124 190q-63 -7 -90 -16q-25 -7 -62 -22l-34 64
q23 2 38 10q15 5 66 104q51 98 82 188l72 -38v0v0zM82 318h22q9 -97 10 -146q1 -46 -16 -71q-16 -24 -34 -28q-17 -4 -28 4q-10 9 -10 24q0 14 16 28q15 12 24 31q9 20 12 44q3 21 4 114v0v0zM162 324l16 6q45 -64 60 -106t10 -66q-5 -21 -22 -27q-17 -5 -28 4q-12 8 -8 31
q3 23 -2 62q-3 39 -26 96v0v0zM264 348l12 10q63 -60 76 -84q10 -25 8 -44q-1 -17 -14 -28q-12 -10 -30 -4q-16 6 -14 30q1 21 -4 48q-5 24 -34 72v0v0z" />
  </g>

</svg>
