<?xml version="1.0" standalone="no"?>
<!DOCTYPE svg PUBLIC "-//W3C//DTD SVG 1.1//EN" "http://www.w3.org/Graphics/SVG/1.1/DTD/svg11.dtd" >
<svg xmlns="http://www.w3.org/2000/svg" xmlns:xlink="http://www.w3.org/1999/xlink" version="1.1" viewBox="0 -52 256 256">
  <g transform="matrix(1 0 0 -1 0 204)">
   <path fill="currentColor"
d="M90 220l-7 -95h6l8 9l10 -12q2 -1 2 -2t-2 -2l-7 -3v-33q-1 -22 -3 -33q-2 -9 -8 -16q-7 -12 -32 -15q1 9 -23 17q-3 1 -5 2v3q8 -1 20 -3q10 -3 13 -3q18 0 23 15q3 9 4 33v38h-51l-9 -9l-10 12q4 1 6 6l5 64q-1 6 -6 10l2 3l20 -9q2 -1 3 -2l-1 -1l-2 -1q-1 0 -5 -3
l-5 -65h36l7 99h-48q-1 0 -3 -1q-5 0 -6 -2l-8 8h61l10 11l12 -12q2 -1 2 -2t-2 -1q-3 -2 -7 -5zM55 81q-24 -10 -28 -13q-4 -2 -7 -11l-14 13l77 30l1 -4zM110 72l-2 3q2 2 7 5q21 16 29 23q13 12 25 25q1 1 3 4q8 9 9 12q1 2 -1 6q2 -3 0 1l2 2l19 -9q2 -1 0 -3
q-3 0 -9 -3q-9 -9 -16 -18h51l8 10l13 -12q3 -2 -1 -4q-3 0 -4 -2l-2 -3q-3 -3 -5 -6q-5 -9 -20 -25q-13 -16 -36 -32q-27 -17 -44 -23q-21 -9 -42 -12l-2 3q20 6 39 15q18 9 39 21q20 15 35 31q15 17 25 34h-59q-11 -10 -20 -18q7 -5 13 -11q7 -6 10 -13q2 -7 0 -12
q-1 -5 -6 -5q-4 0 -5 8q0 9 -4 15q-1 3 -7 11q-3 3 -4 5q-18 -13 -38 -23zM107 172l-2 3l2 2q15 11 26 23q12 12 21 26q10 14 11 17q1 2 -2 6l2 2l19 -9l2 -1q0 -1 -2 -2q-4 0 -9 -3q-3 -3 -7 -10q-3 -4 -4 -5h50l8 9l14 -11q2 -3 -1 -4q-4 0 -6 -2q-1 -1 -4 -5q-2 -3 -4 -5
q-3 -4 -10 -14q-5 -5 -7 -8q-11 -13 -29 -28q-18 -14 -32 -22q-7 -4 -20 -9q-4 -2 -7 -3l-1 3q6 4 16 10l6 3q11 8 27 21t28 28q12 14 24 32h-57q-8 -10 -16 -18q2 -1 5 -4t5 -4q5 -5 8 -10q2 -8 0 -11q-1 -4 -6 -4q-4 0 -4 7q-1 6 -3 12q0 1 -1 2q-1 3 -7 9
q-15 -14 -33 -23z" />
  </g>

</svg>
