<?xml version="1.0" standalone="no"?>
<!DOCTYPE svg PUBLIC "-//W3C//DTD SVG 1.1//EN" "http://www.w3.org/Graphics/SVG/1.1/DTD/svg11.dtd" >
<svg xmlns="http://www.w3.org/2000/svg" xmlns:xlink="http://www.w3.org/1999/xlink" version="1.1" viewBox="0 -205 1024 1024">
  <g transform="matrix(1 0 0 -1 0 819)">
   <path fill="currentColor"
d="M560 848q71 -28 74 -34q1 -7 0 -10q-2 -3 -16 -8q-14 -3 -22 -18q-9 -12 -24 -48h116v236q74 -28 80 -34q4 -4 2 -8q0 -4 -30 -20v-174h86l38 48l54 -58q3 -4 4 -8q0 -9 -8 -8h-174q-1 -106 -10 -176h138l34 42l62 -50q6 -4 6 -8q0 -12 -14 -12h-230l-16 -64
q116 -73 166 -116q48 -43 60 -74q9 -30 -2 -48q-12 -19 -32 -16q-19 2 -28 34q-9 33 -50 84q-39 52 -122 116q-93 -198 -306 -276l-6 14q144 78 210 174q65 96 76 172h-150q-21 0 -54 -8l-22 36h228q12 77 10 176h-126q-33 -80 -78 -142l-16 8q35 83 52 136q15 53 40 142v0
v0zM64 790h176v186l78 -30q9 -4 6 -10t-8 -8l-26 -14v-124h68l30 44l56 -50q3 -3 4 -8q0 -12 -12 -12h-146v-168h70l36 44l50 -50q3 -3 6 -8q0 -9 -12 -12h-130v-166h70l30 42l48 -50q6 -4 6 -10t-8 -8h-146v-238q42 -22 144 -35q103 -13 386 -2l152 16v-20q-45 -6 -60 -16
q-15 -9 -24 -36q-122 0 -274 2q-150 3 -234 18q-80 16 -142 64q-61 46 -106 139q-29 -90 -58 -147q-27 -60 -66 -102l-14 8q51 79 72 153q20 72 32 142q10 71 14 178l72 -28q16 -6 2 -18q-22 -10 -28 -28q-12 -94 -18 -128q45 -84 100 -126v396h-136q-20 0 -70 -8l-14 34
h200v168h-92q-21 0 -68 -8l-16 34v0v0z" />
  </g>

</svg>
