<?xml version="1.0" standalone="no"?>
<!DOCTYPE svg PUBLIC "-//W3C//DTD SVG 1.1//EN" "http://www.w3.org/Graphics/SVG/1.1/DTD/svg11.dtd" >
<svg xmlns="http://www.w3.org/2000/svg" xmlns:xlink="http://www.w3.org/1999/xlink" version="1.1" viewBox="0 -205 1024 1024">
  <g transform="matrix(1 0 0 -1 0 819)">
   <path fill="currentColor"
d="M394 880h446l40 50l58 -58q6 -3 6 -8q0 -12 -12 -12h-462q-18 -1 -54 -10l-22 38v0v0zM476 736l58 -38h280l30 34l58 -46q6 -6 6 -8q1 -7 -36 -28v-146l4 -82q-1 -12 -16 -24q-16 -9 -40 -8v42h-292v-16q0 -15 -24 -24q-22 -10 -32 -10l4 116v238v0v0zM528 460h292v210
h-292v-210v0v0zM518 348q65 -75 82 -110q15 -34 16 -56q0 -21 -8 -37q-9 -16 -30 -14q-20 3 -22 31q-1 27 -4 60q-4 30 -46 118l12 8v0v0zM850 320q12 -3 12 -8q0 -8 -6 -10q-22 -6 -40 -42q-18 -34 -78 -161h152l36 50l60 -58q3 -3 4 -12q4 -8 -10 -8h-570q-25 1 -38 -8
l-20 36h358q51 133 78 253l62 -32v0v0zM266 952q5 -3 8 -6q1 -10 -16 -16q-18 -7 -26 -50q-9 -43 -24 -136h106l30 42l54 -36q13 -9 12 -12q0 -7 -32 -28q-25 -180 -46 -272q-22 -93 -52 -152q66 -39 88 -60q20 -22 26 -44q3 -22 -8 -35q-10 -12 -26 -10q-15 3 -24 25
q-9 20 -24 38q-12 17 -54 52q-42 -65 -98 -115q-57 -50 -126 -94l-10 14q60 50 114 109q55 59 86 110q-33 27 -120 76q25 150 50 366h-56q-21 0 -48 -6l-16 32h124q15 111 28 240l80 -32v0v0zM242 308q27 66 48 162q21 95 34 248h-120q-28 -190 -58 -358q42 -22 96 -52v0v0z
" />
  </g>

</svg>
