<?xml version="1.0" standalone="no"?>
<!DOCTYPE svg PUBLIC "-//W3C//DTD SVG 1.1//EN" "http://www.w3.org/Graphics/SVG/1.1/DTD/svg11.dtd" >
<svg xmlns="http://www.w3.org/2000/svg" xmlns:xlink="http://www.w3.org/1999/xlink" version="1.1" viewBox="0 -36 256 256">
  <g transform="matrix(1 0 0 -1 0 220)">
   <path fill="currentColor"
d="M49 121q0 34 -1 63l23 -10l-7 -7v-44l57 19l2 -5q-52 -23 -68 -35l-14 15zM145 186l23 -9l-8 -7v-36q0 -10 11 -12h35q12 0 12.5 8t0.5 20h5q1 -14 2.5 -19.5t9.5 -8.5q-7 -11 -23 -12h-43q-24 0 -24 22v29q0 14 -1 25zM173 12l-17 -5q1 23 1 60h-62q-8 -44 -76 -60l-2 5
q54 20 63 55h-42q-11 0 -21 -2l-9 9h73q1 20 0 40l23 -9l-7 -6l-1 -25h61q0 22 -1 37l23 -10l-7 -6v-21h43l14 14l18 -21h-75q0 -33 1 -55zM125 205h-43q0 -10 1 -23l-17 -6q1 15 1 29h-17q-15 0 -26 -3l-10 10h53q0 24 -1 35l23 -9l-7 -8v-18h17l13 12zM127 213h35
q0 19 -1 34l25 -10l-9 -7v-17h32l13 12l15 -19h-60q0 -10 1 -23l-17 -6q1 20 1 29h-8q-10 0 -18 -3z" />
  </g>

</svg>
