<?xml version="1.0" standalone="no"?>
<!DOCTYPE svg PUBLIC "-//W3C//DTD SVG 1.1//EN" "http://www.w3.org/Graphics/SVG/1.1/DTD/svg11.dtd" >
<svg xmlns="http://www.w3.org/2000/svg" xmlns:xlink="http://www.w3.org/1999/xlink" version="1.1" viewBox="0 -200 1000 1000">
  <g transform="matrix(1 0 0 -1 0 800)">
   <path fill="currentColor"
d="M387 592l8 -14l-144 -88v-363q0 -44 -16 -55q-16 -16 -77 -29q11 42 -111 66l4 16l41 -10q40 -10 68 -10q54 -2 52 55v306l-12 -7q-134 -78 -132 -103l-42 49l186 96v171q-2 26 -25 45l8 11l40 -18l91 168h-207q-17 -2 -32 -13l-33 33h267l29 31l51 -45q1 -1 1 -4
q0 -5 -8 -5h-2q-19 -5 -33 -19l-105 -156l21 -9q12 -4 12 -9q0 -1 -14 -8q-17 -8 -22 -12v-141zM928 864v-703q2 -71 -10 -93q-12 -24 -70 -32q0 34 -59 51l-51 15l2 15q99 -20 121 -18q24 1 24 49v729h-184q-25 2 -42 -11l-31 31h241l29 40l49 -42q9 -6 9 -11q0 -4 -9 -8z
M641 770q9 16 -9 32l5 8l55 -20q13 -6 5 -10q-13 -3 -24 -15l-27 -70h124l23 30l50 -39q5 -6 4 -8t-9 -2h-196l-70 -191h101v102q1 18 -16 33l6 9l62 -28q14 -6 6 -10q-9 -2 -21 -10q1 1 -1 -1v-95h67l22 32l45 -37q7 -7 6 -9q-1 -3 -10 -3h-130v-261q-2 -24 -13 -39
q-14 -14 -61 -25q0 22 -19 30q-12 8 -63 19l4 13l30 -7q92 -24 86 34v236h-96l-23 -26l-33 32q16 11 25 24l63 178h-42q-16 1 -32 -9l-24 28h103zM409 817l73 -32q7 -1 8 -4q2 -3 -2 -6q-21 -8 -30 -21v-584l3 -95q2 -36 -52 -45q7 63 8 185v557q1 15 -19 37zM645 379
q3 -8 -4 -9q-8 1 -20 -13q-18 -29 -51 -71q-7 -9 -10 -13q-27 -38 -73 -80l-9 9q4 5 12 16q36 47 46 65q3 5 10 15q20 32 28 50q17 33 15 39q-2 8 -9 16l9 8zM452 960l4 11q110 -42 123 -118q3 -32 -18 -38q-19 -6 -24 24q-11 70 -85 121zM736 384l10 11q56 -47 81 -81
q19 -27 27 -53q6 -48 -28 -44q-13 8 -12 27q0 21 -18 59q-16 36 -60 81z" />
  </g>

</svg>
