<?xml version="1.0" standalone="no"?>
<!DOCTYPE svg PUBLIC "-//W3C//DTD SVG 1.1//EN" "http://www.w3.org/Graphics/SVG/1.1/DTD/svg11.dtd" >
<svg xmlns="http://www.w3.org/2000/svg" xmlns:xlink="http://www.w3.org/1999/xlink" version="1.1" viewBox="0 -36 256 256">
  <g transform="matrix(1 0 0 -1 0 220)">
   <path fill="currentColor"
d="M101 48v13v54v14l-1 15l14 -6h23v33h-29q-10 -1 -18 -3l-8 10h129l14 11l15 -18h-62v-33h26l8 9l14 -13l-8 -6v-44v-22l1 -22l-15 -6v16h-90v-9l-14 -5zM150 138h16v33h-16v-33zM114 80q11 11 17 23.5t6 27.5h-23v-51zM186 97q8 0 11.5 2t8 -5t-12.5 -9h-17q-10 4 -10 15
v31h-16q-1 -17 -8 -31t-28 -25v-18h90v74h-26v-28q0 -6 8 -6zM99 212l12 12l15 -19h-39q0 -7 2 -19l-15 -4q0 13 -1 23h-26q-15 1 -24 -3l-10 10h59q-2 23 -4 35l22 -9l-5 -7l1 -19h13zM152 207l-11 -2l-10 9h37q3 19 3 32l21 -9l-7 -7l-3 -16h31l14 12l16 -19h-62
q-1 -7 -4 -25l-15 -2q5 23 5 27h-15zM41 191q14 -7 19.5 -12.5t5.5 -11t-5 -12.5t-9 6.5t-13 25.5zM232 12q-107 -1 -135 7t-47 21q-16 -18 -21 -29l-12 12q6 7 22 21q6 6 12 20.5t9 22.5h-20l-7 -7l-9 15q8 4 13 10.5t15 24.5h-18l-11 -3l-10 10h41l9 7l11 -14l-9 -4
l-22 -32h18l9 6l11 -13l-9 -6q-13 -28 -15 -35q16 -10 42 -14.5t70.5 -4.5t78.5 6v-5q-15 -3 -16 -16z" />
  </g>

</svg>
