<?xml version="1.0" standalone="no"?>
<!DOCTYPE svg PUBLIC "-//W3C//DTD SVG 1.1//EN" "http://www.w3.org/Graphics/SVG/1.1/DTD/svg11.dtd" >
<svg xmlns="http://www.w3.org/2000/svg" xmlns:xlink="http://www.w3.org/1999/xlink" version="1.1" viewBox="0 -205 1024 1024">
  <g transform="matrix(1 0 0 -1 0 819)">
   <path fill="currentColor"
d="M602 906l58 -38h204l26 38l56 -38q9 -6 10 -14q0 -5 -26 -22v-196l4 -54q0 -21 -20 -32q-21 -12 -36 -12v54h-224v-32q-3 -15 -14 -24q-9 -7 -42 -16l4 124v262v0v0zM654 618h224v224h-224v-224v0v0zM240 836h-100q-33 1 -54 -10l-22 36h174v134q80 -24 86 -30
q3 -5 -2 -10q-4 -4 -34 -16v-78h144l30 38q63 -37 66 -44q3 -6 0 -8q-2 -4 -34 -28q3 -132 -6 -176q-6 -46 -38 -82q-33 -35 -90 -52q-6 28 -32 44q-26 14 -76 34l6 16q42 -16 78 -22q35 -7 64 10q27 15 36 64q9 48 6 180h-154q-2 -106 -58 -202q-54 -96 -180 -164l-8 12
q89 66 140 156q51 87 58 198v0v0zM716 468q-78 -6 -170 -14v-84h242l40 40l62 -50q2 -2 2 -4q1 -12 -10 -12h-336v-82h348l40 44l66 -52q3 -6 4 -12q0 -6 -12 -6h-446v-99q1 -50 -18 -76q-18 -22 -66 -38q-5 32 -34 48q-27 16 -96 34l4 18q102 -27 132 -24q29 4 26 34v103
h-382q-22 0 -70 -8l-14 34h466v82h-294q-21 0 -68 -8l-16 34h378v78q-88 -4 -152 -8q-64 -3 -182 -6v18q204 15 378 36q170 21 260 48q43 -51 42 -60q0 -9 -6 -8q-4 -1 -22 2t-96 -2v0v0z" />
  </g>

</svg>
