<?xml version="1.0" standalone="no"?>
<!DOCTYPE svg PUBLIC "-//W3C//DTD SVG 1.1//EN" "http://www.w3.org/Graphics/SVG/1.1/DTD/svg11.dtd" >
<svg xmlns="http://www.w3.org/2000/svg" xmlns:xlink="http://www.w3.org/1999/xlink" version="1.1" viewBox="0 -143 1024 1024">
  <g transform="matrix(1 0 0 -1 0 881)">
   <path fill="currentColor"
d="M122 942l6 14q58 -18 90 -32t48 -31t18 -38t-9 -34t-25 -10.5t-21 18t-16 33.5t-25 33.5t-66 46.5zM39 677l6 14q50 -16 83 -31t50 -31t20 -37t-6.5 -35t-25.5 -13t-22 15t-14 31t-26.5 39t-64.5 48zM314 600l20 -11q-158 -352 -179 -398t-31 -96l-69 38q82 102 259 467z
M385 806l49 -32h393l26 28l46 -39q11 -6 11 -15q0 -6 -28 -22v-158l4 -82q0 -13 -11.5 -23.5t-40.5 -12.5v28h-401v-12q0 -5 -15.5 -15t-36.5 -9l4 103v261zM433 502h401v248h-401v-248zM513 718l45 -26h146l27 24l37 -31q11 -8 11 -15q0 -4 -24 -19v-89q0 -13 -9 -19
q-24 -9 -36 -7v32h-153q1 -20 -8 -24q-10 -12 -36 -12v186zM558 592h152v76h-152v-76zM400 400h380l32 38l54 -49q3 -3 3 -5q0 -10 -13 -10h-372q-20 0 -65 -12zM871 864l32 49l63 -55q5 -4 5 -6q4 -12 -9 -12h-586q-20 0 -43 -8l-17 32h555zM559 986l8 12q50 -20 75 -37
t31 -36t-4 -34t-28 -13t-21 25t-18 42t-43 41zM287 306h605l36 46l52 -54q6 -2 6 -9q0 -10 -13 -9h-316v-140l5 -89q-12 -15 -31 -22t-29 -5l4 110v146h-241q-21 0 -51 -14zM505 200q6 -4 10 -10q4 -9 -8 -11q-34 0 -98 -45t-162 -90l-8 14q78 52 130 95t95 91zM723 242
q82 -32 125 -55t67 -44t27 -41t-6 -33t-23 -11t-29 29t-49.5 57t-117.5 85z" />
  </g>

</svg>
