<?xml version="1.0" standalone="no"?>
<!DOCTYPE svg PUBLIC "-//W3C//DTD SVG 1.1//EN" "http://www.w3.org/Graphics/SVG/1.1/DTD/svg11.dtd" >
<svg xmlns="http://www.w3.org/2000/svg" xmlns:xlink="http://www.w3.org/1999/xlink" version="1.1" viewBox="0 -205 1024 1024">
  <g transform="matrix(1 0 0 -1 0 819)">
   <path fill="currentColor"
d="M230 688l56 -44h198v94h-220q-34 -3 -46 -12l-28 38h294v116l86 -26q6 -2 4 -10q0 -3 -6 -6l-30 -14v-60h192l34 46l64 -56q6 -13 -8 -16h-282v-94h188l30 38l62 -46l4 -8q0 -7 -30 -28v-194l4 -52q-1 -12 -16 -24q-16 -9 -38 -12v44h-204v-112h326l40 54l58 -58
q15 -16 0 -22h-424v-101l4 -46q0 -15 -24 -30q-24 -14 -38 -14l4 86v105h-356q-25 -4 -56 -10l-24 36h436v112h-202v-24q0 -12 -18 -24q-16 -9 -38 -12l4 72v314v0v0zM282 388h202v104h-202v-104v0v0zM538 492v-104h204v104h-204v0v0zM282 518h202v100h-202v-100v0v0z
M538 618v-100h204v100h-204v0v0zM868 916l36 34l62 -60q15 -19 -6 -22q-40 -9 -64 -30t-60 -60l-18 8l58 104h-672q-4 -54 -22 -86q-19 -34 -46 -46t-44 0q-17 9 -12 28q3 15 30 34q25 15 44 46q18 27 30 100h20v-50h664v0v0z" />
  </g>

</svg>
