<?xml version="1.0" standalone="no"?>
<!DOCTYPE svg PUBLIC "-//W3C//DTD SVG 1.1//EN" "http://www.w3.org/Graphics/SVG/1.1/DTD/svg11.dtd" >
<svg xmlns="http://www.w3.org/2000/svg" xmlns:xlink="http://www.w3.org/1999/xlink" version="1.1" viewBox="0 -36 256 256">
  <g transform="matrix(1 0 0 -1 0 220)">
   <path fill="currentColor"
d="M157 106h22v53h-22v-53zM191 106h24v53h-24v-53zM201 205h-37q-5 -12 -15 -33l8 -6h28zM127 141l-3 1q12 21 23.5 52t15.5 53l20 -12l-8 -4l-8 -19h35l8 10l14 -14q-8 -4 -15 -12.5t-19 -29.5h25l7 9l13 -13l-8 -7v-35q0 -11 1 -24l-13 -7v10h-58v-46q-2 -24 15 -26h46
q11 1 11.5 16.5t0.5 30.5h5q1 -20 2.5 -30.5t9.5 -13.5q-4 -6 -7.5 -9t-13.5 -5h-58q-25 -1 -23 29v119q-8 -13 -18 -23zM32 138v57l13 -7h64l7 8l11 -10l-5 -4v-38l-12 -5v5h-66v-2zM44 151h15v30h-15v-30zM23 141h4l1 -12h93l8 9l14 -15q-11 -3 -28 -23l-3 3l11 19h-62
l15 -8l-7 -3l-7 -11h36l6 8l14 -14l-7 -4q-18 -35 -41 -53t-61 -28v4q64 26 87 80h-39q-5 -8 -10 -13q17 -8 20 -13.5t-1.5 -13.5t-8.5 2t-14 21q-9 -11 -27 -23l-2 4q31 33 43 65h-29q1 -12 -5 -18.5t-11.5 -2.5t1.5 11.5t10 28.5zM84 181h-15v-30h15v30zM110 181h-15v-30
h15v30zM66 210v-13l-13 -6q1 12 1 19h-14q-13 0 -22 -2l-9 9h45q0 17 -1 29l18 -8l-5 -8v-13v-7zM89 217q0 13 -1 29l18 -7l-5 -7v-15h20l11 11l12 -18h-43v-15l-12 -4v26z" />
  </g>

</svg>
