<?xml version="1.0" standalone="no"?>
<!DOCTYPE svg PUBLIC "-//W3C//DTD SVG 1.1//EN" "http://www.w3.org/Graphics/SVG/1.1/DTD/svg11.dtd" >
<svg xmlns="http://www.w3.org/2000/svg" xmlns:xlink="http://www.w3.org/1999/xlink" version="1.1" viewBox="0 -52 256 256">
  <g transform="matrix(1 0 0 -1 0 204)">
   <path fill="currentColor"
d="M143 131l-5 2q19 39 28 89q3 18 2 20q0 1 -2 3q-1 2 -2 3l1 2l23 -6q2 -3 -1 -4q-5 -1 -8 -4q-3 -20 -9 -41h49l9 13l16 -14q3 -2 2 -3q0 -1 -4 -1h-20q-7 -69 -30 -114q18 -35 54 -55v-3h-13q-4 0 -7 -5q-25 22 -40 52q-22 -34 -57 -56l-3 4q36 27 54 63q-15 38 -21 88
q-6 -18 -16 -33zM26 126l9 -7h84l9 7l14 -9l2 -1q-1 -1 -4 -2l-6 -2v-46l2 -10q0 -5 -3 -7q-3 -3 -10 -3v7h-86q0 -2 -3 -5t-10 -4q1 4 1 13q1 7 1 12v48q-1 6 -4 7zM32 174l9 -6h74l6 6l12 -9q2 -1 2 -2q-1 -1 -3 -1l-5 -1v-17l1 -7q0 -3 -3 -5h-4q-2 -1 -4 -1v7h-75v-1
q1 -4 -2 -6q-1 -3 -9 -3v8q1 11 1 19v10q0 1 -2 5l-2 2zM169 190q-1 -2 -3 -8q-1 -4 -2 -6q7 -52 22 -88q18 39 25 102h-42zM72 250l23 -7h1q3 -1 0 -2h-1q-6 -2 -7 -4v-17h28l7 9l16 -11q4 -2 -2 -2h-49v-28h36l8 10l15 -11l2 -2q0 -1 -4 -1h-110q-8 1 -13 -2l-9 6h64v28
h-33q-9 -14 -22 -26l-3 2q13 18 19 33q6 14 5 17q0 3 -3 6l3 2l18 -5q1 0 2 -1q2 -1 0 -2q-6 0 -7 -2q-4 -11 -10 -20h31v19q0 3 -7 9zM42 164v-22h75v22h-75zM37 95v-18h86v18h-86zM37 115v-17h86v17h-86zM37 74v-17h86v17h-86zM55 52l17 -12q2 0 2 -1t-2 -1h-3
q-9 1 -13 -3q-22 -14 -50 -26l-2 3q31 19 49 32q2 3 -1 5zM90 46l2 3q26 -8 34 -17q5 -5 3 -8q0 -4 -4 -4q-4 -1 -7 4q-9 14 -28 22z" />
  </g>

</svg>
