<?xml version="1.0" standalone="no"?>
<!DOCTYPE svg PUBLIC "-//W3C//DTD SVG 1.1//EN" "http://www.w3.org/Graphics/SVG/1.1/DTD/svg11.dtd" >
<svg xmlns="http://www.w3.org/2000/svg" xmlns:xlink="http://www.w3.org/1999/xlink" version="1.1" viewBox="0 -36 256 256">
  <g transform="matrix(1 0 0 -1 0 220)">
   <path fill="currentColor"
d="M130 219q42 7 60.5 12t37.5 14l11 -16q-10 0 -22.5 -3t-85.5 -13v-77q0 -72 -43 -127l-3 3q33 57 33 124q0 59 -1 92zM228 164h-73v-31l26 3q0 13 -1 24l19 -8l-6 -6v-8l15 3l7 8l13 -11l-35 -6v-7q0 -13 6 -13h19q7 1 8 7t1 15h4q0 -6 2 -13t7 -9q-2 -6 -7.5 -8
t-15.5 -2h-24q-11 0 -12 16v12l-15 -2l-3 -2l-8 5v-20q1 -67 -43 -102l-3 3q34 39 34 99q0 44 -1 68l14 -8h23q0 24 -1 47l20 -7l-6 -6v-12h20l12 10l12 -17h-44v-15h36l6 10l13 -14q-16 -8 -24 -21l-4 2zM141 10l-2 3q43 37 47 86l19 -10l-7 -4l-2 -9q19 -39 50 -48v-4
q-13 -1 -15 -10q-26 19 -38 55q-13 -40 -52 -59zM33 59.5q-4 15.5 -16 36.5l2 3q16 -13 24.5 -23t1 -21t-11.5 4.5zM91 167l16 -18h-37v-29h14l13 10l14 -17h-41v-53q10 13 25 47l15 -15l-9 -6q-13 -14 -31 -33v-10l32 6v-4q-49 -16 -76 -28l-11 17q17 2 42 8v71h-13
q-12 0 -21 -2l-9 9h43v29h-8q-4 0 -10 -2l-6 5q-11 -14 -22 -24l-3 2q34 54 53 117l18 -11l-6 -5q-4 -8 -6 -13q23 -8 33 -14t6 -18.5t-12 0t-28 28.5q-17 -36 -30 -58h43z" />
  </g>

</svg>
