<?xml version="1.0" standalone="no"?>
<!DOCTYPE svg PUBLIC "-//W3C//DTD SVG 1.1//EN" "http://www.w3.org/Graphics/SVG/1.1/DTD/svg11.dtd" >
<svg xmlns="http://www.w3.org/2000/svg" xmlns:xlink="http://www.w3.org/1999/xlink" version="1.1" viewBox="0 -205 1024 1024">
  <g transform="matrix(1 0 0 -1 0 819)">
   <path fill="currentColor"
d="M600 514h140v108l66 -20q16 -6 14 -14q0 -4 -8 -8l-24 -10v-56h66l30 40l54 -48q3 0 4 -6q0 -10 -12 -10h-142v-82h38l34 40l54 -46q3 -3 4 -8q0 -10 -12 -10h-118v-90h102l32 40l46 -46q3 -3 6 -8q0 -12 -12 -12h-174v-48l4 -62q1 -12 -18 -25q-18 -12 -38 -12l4 91v56
h-68q-21 0 -68 -8l-22 34h158v90h-46q-20 0 -58 -8l-24 32h128v82h-56q-19 0 -62 -8l-22 32v0v0zM676 842q24 -57 82 -110q39 40 88 110h-170v0v0zM746 952q6 -3 6 -6q5 -3 -4 -12q-22 -6 -28 -18q-7 -9 -34 -50h162l24 24l58 -46q7 -6 6 -8q0 -5 -20 -10q-18 -3 -42 -32
q-25 -29 -82 -88q27 -18 64 -32q36 -12 64 -18q27 -6 76 -8v-18q-30 -3 -44 -8q-12 -6 -30 -30q-52 20 -82 38t-78 52q-61 -52 -226 -118l-6 14q150 81 204 132q-42 44 -72 116q-58 -96 -94 -132l-14 6q41 69 74 142q32 70 52 134l66 -24v0v0zM448 886q44 -37 64 -62
q17 -24 26 -44q9 -22 6 -40q-4 -18 -16 -26q-13 -10 -28 -4q-16 3 -14 30q1 27 -10 54q-9 29 -38 82l10 10v0v0zM406 512h78l30 36l50 -42q8 -7 8 -14q0 -3 -32 -20v-290q33 -41 78 -59q44 -18 110 -22q66 0 166 12l100 12v-18q-31 -3 -56 -18q-24 -15 -14 -34h-104
q-69 1 -120 4q-48 6 -90 24q-39 18 -62 48q-24 29 -38 33q-13 4 -32 -17q-18 -24 -66 -102l-54 44q60 48 136 101v298h-22q-27 3 -42 -8l-24 32v0v0zM130 982l72 -28q4 -1 2 -10q0 -3 -24 -20v-78h122v138l78 -30q7 -1 2 -10q0 -2 -30 -16v-82h28l26 38l44 -46q2 0 2 -6
q1 -10 -10 -10h-90v-82l4 -56q-3 -13 -20 -20q-19 -6 -34 -6v40h-36v-112h76l26 34l44 -30q12 -6 12 -14q-1 -3 -28 -24v-104l4 -46q3 -16 -14 -28q-19 -10 -34 -8v48h-86v-124h96l28 36l48 -46q3 -3 4 -6q-1 -7 -16 -8h-160v-108l4 -91q-1 -13 -22 -24q-21 -9 -36 -10
l4 119v114h-86q-22 0 -62 -8l-18 32h166v124h-86v-44q3 -9 -14 -18q-16 -10 -34 -10l4 104v174l44 -34h86v112h-36v-18q-3 -12 -14 -18q-13 -6 -40 -8l4 92v76h-30q-6 0 -38 -6l-18 30h86v136v0v0zM130 438h86v124h-86v-124v0v0zM266 438h86v124h-86v-124v0v0zM180 722h122
v100h-122v-100v0v0z" />
  </g>

</svg>
