<?xml version="1.0" standalone="no"?>
<!DOCTYPE svg PUBLIC "-//W3C//DTD SVG 1.1//EN" "http://www.w3.org/Graphics/SVG/1.1/DTD/svg11.dtd" >
<svg xmlns="http://www.w3.org/2000/svg" xmlns:xlink="http://www.w3.org/1999/xlink" version="1.1" viewBox="0 -36 256 256">
  <g transform="matrix(1 0 0 -1 0 220)">
   <path fill="currentColor"
d="M60 181h44l6 9l13 -10l-6 -9v-85q0 -15 1 -57l-13 -8v13h-69v-11l-13 -7q1 31 1 88.5t-1 84.5l13 -8h19q9 26 11 35h-24q-10 0 -19 -2l-9 9h90l11 12l17 -19h-49q-5 -2 -23 -35zM36 41h14v133h-14v-133zM90 41h15v133h-15v-133zM62 136h16v38h-16v-38zM62 90h16v39h-16
v-39zM62 41h16v42h-16v-42zM229 103q0 -16 1 -33l-14 -6v17h-61v-17l-14 -6q1 15 1 84t-1 90l13 -9h61l6 10l14 -11l-6 -7v-112zM155 155h61v61h-61v-61zM155 88h61v60h-61v-60zM218 29l12 12l18 -19h-99q-13 -1 -18 -3l-9 10h96z" />
  </g>

</svg>
