<?xml version="1.0" standalone="no"?>
<!DOCTYPE svg PUBLIC "-//W3C//DTD SVG 1.1//EN" "http://www.w3.org/Graphics/SVG/1.1/DTD/svg11.dtd" >
<svg xmlns="http://www.w3.org/2000/svg" xmlns:xlink="http://www.w3.org/1999/xlink" version="1.1" viewBox="0 -144 1024 1024">
  <g transform="matrix(1 0 0 -1 0 880)">
   <path fill="currentColor"
d="M837 139l57 -31l-7 -11l-8 -11l-9 -10l-10 -8l-11 -8l-12 -6l-12 -4l-12 -3l-14 -2l-13 -1v32l-108 17v16h108l14 1l6 1l6 3l4 2l5 3l4 4l4 5l4 5zM872 806l4 4h1l27 23l59 -49l-27 -16l-20 -8l-35 -42l-20 -21l-11 -10l-9 -12l-9 5l6 14l18 55l8 25l3 10h-494v-322
l-3 -55l-4 -52l-7 -49l-8 -46l-10 -42l-13 -39l-15 -35l-16 -32l-20 -27l-22 -24l-7 6l13 28l11 29l11 31l9 35l8 38l6 40l4 44l3 47l1 50v53v374l59 -30h181v188l64 -11l16 -10l-16 -10v-50h124l54 54l64 -54v-21h-242v-86h254zM331 124l41 -50l-23 -7l-22 12l-7 24z
M372 74l-17 22l-1 1l-5 6l-2 2l-2 3l-2 2l-1 1l-2 3v1l-2 1l-5 7l-1 1l17 13l8 9l8 12l7 15l7 17l7 19l11 45l2 27h10l3 -27l3 -25l1 -24l-1 -23l-2 -21l-4 -19l-6 -19l-8 -18l-10 -16zM480 132l64 -8l-13 -21l-23 -7l-21 13zM894 108l-8 4l-2 2l-2 1l-3 1l-5 3l-7 4l-9 5
l-3 2l-5 2l-7 4l-6 3l5 9l4 13l4 14l3 18l4 19l2 23l3 24l1 27l1 29v21h-391l-1 -4l-67 -24l32 260l63 -19l14 -12l-16 -6l-10 -75h296l44 48l53 -48v-22h-396l-9 -77h388l33 27l59 -48l-27 -17h-1v-5v-31l-2 -28l-5 -52l-4 -22l-4 -21l-6 -18l-6 -18zM609 165l-1 13l-1 13
l-2 13l-3 12l-3 13l-9 25l-6 14l-9 11l6 7l12 -10l13 -8l11 -10l11 -12l10 -12l9 -13l8 -14l7 -15l11 -32l-7 -24l-22 -12l-23 6l-13 22zM480 132l4 12l2 13l2 13l2 13v14v15l-2 31l-2 16l-5 16l9 4l9 -15l9 -14l9 -15l7 -15l6 -16l5 -15l4 -16l3 -16l1 -17l1 -16zM734 197
l-3 11l-3 11l-4 11l-4 10l-6 11l-13 22l-8 11l-10 9l4 8l13 -7l14 -5l13 -7l12 -8l12 -9l21 -21l9 -12l8 -12l8 -13l-2 -25l-18 -16l-25 1l-16 19zM30 867l65 -33h110l29 27l57 -48l-27 -19v-489l-59 -30v62h-110v-64l-65 -33v627zM205 813h-110v-454h110v454zM530 646
l-146 -17l-3 21l149 17v107l64 -11l16 -11l-16 -9v-69l99 11l48 60l70 -47l3 -21l-220 -24v-57v-6v-5l1 -4l1 -4l1 -2l2 -1l4 -2l5 -1l8 -2h239l25 92h11l-10 -92l16 -10l10 -16l-10 -17l-17 -10h-264h-14l-12 2l-13 4l-12 6l-10 8l-10 9l-7 12l-4 12l-3 14l-1 13v50z" />
  </g>

</svg>
