<?xml version="1.0" standalone="no"?>
<!DOCTYPE svg PUBLIC "-//W3C//DTD SVG 1.1//EN" "http://www.w3.org/Graphics/SVG/1.1/DTD/svg11.dtd" >
<svg xmlns="http://www.w3.org/2000/svg" xmlns:xlink="http://www.w3.org/1999/xlink" version="1.1" viewBox="0 -205 1024 1024">
  <g transform="matrix(1 0 0 -1 0 819)">
   <path fill="currentColor"
d="M550 450h166v158h-40q-19 0 -68 -8l-14 36h202l30 38l52 -48q3 0 4 -6q0 -12 -8 -12h-108v-158h90l38 48l56 -60q3 -3 4 -8q0 -9 -8 -8h-180v-305q2 -47 -22 -70q-24 -22 -54 -26q-6 36 -42 50q-34 14 -76 28l4 18q96 -19 118 -18q21 2 22 34v289h-88q-30 3 -62 -8
l-16 36v0v0zM782 944q9 -5 4 -10q-1 -6 -28 -14q43 -88 80 -136q36 -49 76 -82q39 -33 94 -50v-18q-36 2 -50 -4q-12 -5 -30 -22q-44 35 -76 80q-32 44 -52 80q-18 35 -62 140q-42 -94 -104 -190q-63 -96 -110 -146l-10 10q79 128 128 238q47 107 62 158l78 -34v0v0z
M672 340q6 -3 6 -6q4 -9 -6 -12q-16 -6 -26 -12t-50 -72q-40 -63 -118 -147l-12 10q69 103 138 271l68 -32v0v0zM816 362q73 -61 104 -112q30 -51 34 -86t-10 -49q-13 -16 -28 -14q-15 1 -20 16q-6 15 -6 39q0 23 -14 74q-16 48 -68 120l8 12v0v0zM504 942l62 -46
q3 -6 4 -14q0 -6 -18 -12q-15 0 -26 -24q-33 -78 -84 -204q35 -45 58 -84q20 -39 32 -84q10 -42 8 -72t-16 -60q-33 -48 -74 -60q-6 32 -20 40q-13 8 -52 20l2 16q49 -7 68 -4q18 3 30 30q13 27 8 78q-3 51 -18 88q-15 34 -54 92l68 232h-114v-712l2 -99q0 -13 -18 -24
q-19 -9 -38 -12l4 135v796l58 -56h100l28 40v0v0zM284 790l16 -10l-100 -400q-10 -33 -16 -98q-1 -34 10 -94q9 -59 10 -97q0 -36 -14 -46q-14 -9 -28 -4q-15 2 -20 22q-4 19 -2 70q3 49 6 79q4 29 -4 62q-9 24 -50 36l-62 10v20h78q25 0 44 54l132 396v0v0zM84 910l6 12
q39 -12 78 -26q37 -15 56 -38t18 -46q-1 -21 -10 -32q-8 -10 -22 -8q-15 2 -18 14t-14 34q-12 21 -30 40q-16 17 -64 50v0v0zM28 690l6 14q53 -18 86 -36q30 -18 42 -38q12 -22 10 -40q-3 -18 -12 -26q-9 -10 -24 -8q-15 3 -20 24q-4 20 -10 34q-7 15 -28 36q-21 20 -50 40
v0v0z" />
  </g>

</svg>
