<?xml version="1.0" standalone="no"?>
<!DOCTYPE svg PUBLIC "-//W3C//DTD SVG 1.1//EN" "http://www.w3.org/Graphics/SVG/1.1/DTD/svg11.dtd" >
<svg xmlns="http://www.w3.org/2000/svg" xmlns:xlink="http://www.w3.org/1999/xlink" version="1.1" viewBox="0 -205 1024 1024">
  <g transform="matrix(1 0 0 -1 0 819)">
   <path fill="currentColor"
d="M878 770l36 48l64 -58q3 -8 4 -10q0 -10 -14 -10h-170v-617q3 -42 -18 -66q-20 -21 -64 -30q-9 31 -36 46q-24 12 -84 30l6 18l54 -10q60 -8 78 -2q17 6 14 51v580h-122q3 -324 -18 -426q-21 -100 -98 -177q-78 -75 -206 -130l-8 16q108 68 174 133q65 65 88 160
q21 93 18 424h-92q-33 1 -66 -10l-18 40h478v0v0zM474 592q71 -33 76 -38q6 -7 0 -10q-6 -4 -18 -10q-12 -4 -20 -16q-8 -10 -40 -68q-30 -58 -110 -166l-16 10q60 105 90 180q26 75 38 118v0v0zM826 554l12 10q67 -58 104 -100q36 -42 46 -74q7 -33 -6 -50q-14 -19 -34 -14
q-18 2 -24 38q-4 33 -26 78q-21 45 -72 112v0v0zM588 944l10 12q50 -27 86 -50q33 -21 40 -48q6 -25 -6 -40q-9 -15 -30 -12q-21 1 -24 26q-2 24 -16 48q-15 23 -60 64v0v0zM104 928l58 -40h150l30 38l48 -34q9 -6 10 -14q0 -6 -26 -26v-134l4 -82q0 -13 -18 -22
q-15 -8 -38 -10v26h-56v-180h40l34 40l48 -50l2 -8q-1 -7 -4 -8h-120v-224l98 32l8 -18l-248 -101q-40 -20 -58 -46l-46 62l62 19v376l80 -38q3 -3 4 -8q0 -1 -2 -4l-32 -16v-298l84 26v444h-62v-18q0 -12 -18 -24t-36 -12l4 130v222v0v0zM154 656h168v206h-168v-206v0v0z
" />
  </g>

</svg>
