<?xml version="1.0" standalone="no"?>
<!DOCTYPE svg PUBLIC "-//W3C//DTD SVG 1.1//EN" "http://www.w3.org/Graphics/SVG/1.1/DTD/svg11.dtd" >
<svg xmlns="http://www.w3.org/2000/svg" xmlns:xlink="http://www.w3.org/1999/xlink" version="1.1" viewBox="0 -143 1024 1024">
  <g transform="matrix(1 0 0 -1 0 881)">
   <path fill="currentColor"
d="M334 930q14 -12 0 -18q-26 -2 -35 -10t-59 -75t-136 -177l160 1q50 71 74 129l69 -43q12 -11 -3 -19q-26 -4 -34 -15t-75 -91t-169 -194l251 28l2 -20q-185 -33 -223 -44t-72 -34l-38 72q36 9 58 16q28 32 61 78t88 116q-109 -10 -132 -20.5t-44 -23.5l-36 63q28 6 51 31
q54 82 94 152t68 140zM386 287l6 -19l-244 -102q-34 -22 -65 -52l-50 64zM447 406l56 -34h356l29 34l52 -33q11 -8 11 -14.5t-31 -28.5v-214h20l22 36l38 -43q4 -5 4 -11q4 -8 -11 -8h-582q-5 0 -43 -6l-25 32h104v290zM497 116h96v230h-96v-230zM639 116h94v230h-94v-230z
M779 116h91v230h-91v-230zM770 922l28 34l47 -38q9 -6 9 -12.5t-34 -23.5l-34 -92h108l30 36q60 -48 57 -52t-7 -6t-26 -24v-160q-2 -63 -22.5 -92t-64.5 -39q-7 31 -26 44t-57 25l4 17q28 -7 57 -13t45.5 2t17.5 60v176h-112l-24 -24l-56 46l36 20l30 90h-208
q4 -111 -10 -186h172l24 24l49 -40q7 -9 -4 -14l-26 -12q-30 -60 -64 -103q44 -36 50.5 -52.5t4.5 -30t-10.5 -19.5t-19 -4t-19 23.5t-35.5 51.5q-58 -62 -168 -118l-7 16q98 60 150 127q-32 36 -70 63l8 12q49 -24 85 -48q31 48 50 100h-170q-20 -126 -71 -196t-111 -124
l-11 14q69 82 101 145t45 147t10 224h-43q-9 0 -40 -8l-21 34h353z" />
  </g>

</svg>
