<?xml version="1.0" standalone="no"?>
<!DOCTYPE svg PUBLIC "-//W3C//DTD SVG 1.1//EN" "http://www.w3.org/Graphics/SVG/1.1/DTD/svg11.dtd" >
<svg xmlns="http://www.w3.org/2000/svg" xmlns:xlink="http://www.w3.org/1999/xlink" version="1.1" viewBox="0 -36 256 256">
  <g transform="matrix(1 0 0 -1 0 220)">
   <path fill="currentColor"
d="M123 212v5q33 6 57 12.5t39 17.5l15 -20q-18 -2 -56 -8v-84l39 2l11 13l15 -19l-65 -3v-85q-1 -15 13 -15h25q11 0 12 12.5t2 33.5h5q0 -14 1.5 -27.5t11.5 -17.5q-4 -13 -23 -15h-37q-23 -1 -23 24v89l-31 -1l-7 -5l-10 11l48 2v83q-20 -3 -42 -5zM18 57l-10 20
q17 1 52 6v31h-16q-10 0 -20 -2l-9 9h45v28h-27v-7l-14 -5q1 27 1 56t-1 44l15 -8h66l8 8l14 -14l-8 -5q0 -49 1 -73l-13 -6v10h-30v-28h26l10 11l14 -18h-50v-29l51 9v-6q-92 -22 -105 -31zM54.5 188q2.5 -7 -4 -13.5t-7 6.5t-5.5 24l2 2q12 -12 14.5 -19zM72 178
q12 20 15 33l13 -11q-7 -5 -28 -28v-16h30v66h-30v-44zM33 156h27v66h-27v-66zM25.5 16q-7.5 -5 -13 -3t2 11t12.5 30h5q1 -33 -6.5 -38zM67 37q4 -9 -3 -16.5t-9 8.5t-8 30l2 2q14 -15 18 -24zM98 43.5q5 -9.5 -3.5 -16.5t-9.5 7t-9 32l3 1q14 -14 19 -23.5zM129.5 55.5
q4.5 -8.5 -2 -17t-9.5 6t-15 31.5l3 2q19 -14 23.5 -22.5z" />
  </g>

</svg>
