<?xml version="1.0" standalone="no"?>
<!DOCTYPE svg PUBLIC "-//W3C//DTD SVG 1.1//EN" "http://www.w3.org/Graphics/SVG/1.1/DTD/svg11.dtd" >
<svg xmlns="http://www.w3.org/2000/svg" xmlns:xlink="http://www.w3.org/1999/xlink" version="1.1" viewBox="0 0 2048 2048">
  <g transform="matrix(1 0 0 -1 0 2048)">
   <path fill="currentColor"
d="M999 1867l71 -42l66 -41q31 -20 62 -46q31 -27 55 -56q24 -28 35 -53q10 -25 10 -48q1 -23 -6 -37q-8 -16 -24 -24q-17 -8 -35 -3q-17 4 -28 17q-11 12 -21 43q-11 31 -24 57q-13 25 -39 60q-26 34 -41 48q-14 15 -69 65l-34 30zM1713 1901l129 -57q22 -10 30 -20
q9 -9 8 -20q-3 -14 -17 -20q-14 -5 -34 -5l-51 -2l-48 -60q-26 -32 -39 -47q-13 -14 -45 -46q-31 -31 -58 -56q-28 -25 -48 -38l-39 -27l-25 30l31 33q15 17 39 48q25 32 48 67t52 86q30 51 39 71zM1679 1438l99 101l116 -100q21 -19 14 -39q-6 -19 -26 -18l-434 2v-322h208
l98 102l121 -107l15 -15q4 -6 0 -19q-4 -10 -12 -14q-7 -4 -13 -4l-417 -1v-344h326l99 102l120 -107q8 -8 13 -15q6 -8 3 -19q-3 -10 -11 -14t-15 -4l-535 -1v-270q0 -21 4 -102q3 -81 8 -114q4 -34 3 -47q-1 -11 -5 -19q-4 -9 -14 -16q-11 -6 -30 -6q-22 -1 -34 4
q-13 4 -22 14q-8 9 -7 23l1 533h-309q-24 0 -57 -2q-33 -3 -39 -4q-6 0 -28 -2l-25 -3l-39 86q26 -5 47 -8q20 -3 39 -5l51 -4q33 -2 51 -1l309 1v344h-179q-24 0 -57 -2q-33 -3 -39 -4q-6 0 -28 -2l-25 -3l-39 86q26 -5 47 -8q20 -3 39 -5l51 -4q33 -2 51 -1l179 1v322
h-218l-71 -4l-26 -1q-7 -1 -27 -3l-24 -3l-39 86q26 -5 47 -7l40 -6q20 -2 50 -4q31 -1 50 -1zM256 1505q-48 -2 -68 -3q-19 -1 -27 -2t-29 -3l-25 -3l-39 86q27 -5 42 -7q16 -2 60 -7q44 -4 86 -4l426 -1l91 99l123 -101q21 -18 16.5 -36t-25.5 -18h-470q0 -31 -1 -72
q0 -41 -1 -107l-4 -127l-1 -39l245 -1l65 79l94 -72q25 -20 22 -42q-2 -21 -22 -29l-53 -22q0 -40 -1 -96q0 -56 -5 -153t-19 -244t-26 -220q-13 -72 -24 -113t-28 -71q-16 -29 -38 -48q-23 -20 -48 -32q-24 -11 -54 -18q-29 -7 -47 -6h-15q-1 5 -2 18q-2 13 -4 19
q-1 6 -5 15t-8 15t-14 14t-43 25q-34 18 -63 30l-21 8l15 43q27 -11 69 -26t77 -29q35 -15 54 -12t40 17t35 51t24 84q11 47 21 100q10 54 17 180q8 125 12 232q3 107 5 186l1 65h-259l-8 -136q-5 -84 -20 -203q-15 -118 -41 -238q-26 -121 -94 -242q-67 -120 -121 -180
l-45 -51l-24 30l50 76q27 43 74 151q47 107 72 243q26 136 39 264t20 286t8 256l1 142h-62zM322 1920q6 -6 16 -14l27 -23q16 -14 43 -41l50 -52q22 -24 44 -62q23 -39 24 -80q1 -42 -16 -61t-40 -16q-22 2 -31 17q-9 14 -13 37t-11 50t-21 59t-31 60q-17 29 -34 52l-37 49z
" />
  </g>

</svg>
