<?xml version="1.0" standalone="no"?>
<!DOCTYPE svg PUBLIC "-//W3C//DTD SVG 1.1//EN" "http://www.w3.org/Graphics/SVG/1.1/DTD/svg11.dtd" >
<svg xmlns="http://www.w3.org/2000/svg" xmlns:xlink="http://www.w3.org/1999/xlink" version="1.1" viewBox="0 -36 256 256">
  <g transform="matrix(1 0 0 -1 0 220)">
   <path fill="currentColor"
d="M186 90q12 16 20 40h-41q8 -25 21 -40zM81 70l-10 16l24 6v109q0 11 -1 29l13 -8q21 11 29 22l14 -15q-9 -2 -21 -6t-21 -8v-31h9l11 11l16 -18h-36v-37h7l12 10l14 -17h-33v-37l43 12l2 -4l-45 -20q0 -35 1 -41l-15 -6q1 20 1 42zM195 81q15 -17 52 -28v-4
q-10 2 -19 -10q-24 13 -42 32q-26 -23 -60 -33l-2 3q35 18 53 40q-12 23 -18 49l-7 -3l-9 10h64l10 8l12 -14l-9 -4q-12 -31 -25 -46zM179 203q27 10 44 25l12 -17l-10 -1q-28 -12 -46 -18v-25q0 -6 7 -6h27q10 0 11 5.5t1 25.5h4q0 -25 13 -27q-5 -14 -23 -15h-36
q-17 1 -18 13v24q-7 -2 -23 -4l-1 4q13 4 24 10q0 25 -1 49l21 -9l-6 -6v-28zM36 243q24 -14 29 -23t-1.5 -19.5t-11 6.5t-18.5 33zM39 54q11 25 22 52h-18l-8 -9l-13 12l9 6l22 44h-17l-11 -3l-10 10h39l9 11l13 -16l-10 -5q-6 -10 -22 -43h18l8 8l12 -14l-8 -6
q-10 -20 -20 -46q26 -22 84.5 -24t109.5 6v-4q-18 -5 -22 -17q-92 -2 -121.5 4.5t-58.5 29.5q-19 -21 -26 -37l-12 12q16 17 31 29z" />
  </g>

</svg>
