<?xml version="1.0" standalone="no"?>
<!DOCTYPE svg PUBLIC "-//W3C//DTD SVG 1.1//EN" "http://www.w3.org/Graphics/SVG/1.1/DTD/svg11.dtd" >
<svg xmlns="http://www.w3.org/2000/svg" xmlns:xlink="http://www.w3.org/1999/xlink" version="1.1" viewBox="0 -36 256 256">
  <g transform="matrix(1 0 0 -1 0 220)">
   <path fill="currentColor"
d="M69.5 34.5q7.5 -0.5 7.5 12.5v58h-37q-1 -27 -5.5 -50.5t-21.5 -46.5l-3 1q11 26 15 55t3.5 92.5t-1.5 76.5l13 -8h35l7 10l13 -12l-5 -6v-171q-1 -16 -6.5 -22.5t-15.5 -11.5q0 14 -20 22v4q14 -3 21.5 -3.5zM40 168h37v50h-37v-50zM40 112h37v49h-37v-49zM140 155h-22
l-6 -7l-12 12l7 7v44l-1 16l20 -12l-7 -6v-47h21v59l-1 23l20 -11l-7 -8v-158q0 -10 1 -52l-14 -7l1 28v25v49h-17q1 -67 -36 -100l-3 2q28 37 27 98h-2l-9 -2l-7 9h47v38zM188 243l20 -12l-7 -6v-47h14l11 10l13 -17h-33q5 -36 18 -71t24 -41v-4q-8 0 -15 -10
q-7 10 -16.5 39.5t-15.5 87.5v-124q0 -16 1 -34l-14 -7q1 23 1 40v75q-6 -43 -31 -81l-3 2q22 53 30 128q-10 0 -20 -3l-8 10h32q0 50 -1 65z" />
  </g>

</svg>
