<?xml version="1.0" standalone="no"?>
<!DOCTYPE svg PUBLIC "-//W3C//DTD SVG 1.1//EN" "http://www.w3.org/Graphics/SVG/1.1/DTD/svg11.dtd" >
<svg xmlns="http://www.w3.org/2000/svg" xmlns:xlink="http://www.w3.org/1999/xlink" version="1.1" viewBox="0 -36 256 256">
  <g transform="matrix(1 0 0 -1 0 220)">
   <path fill="currentColor"
d="M172 176h47l5 10l14 -11l-6 -7v-87q0 -15 1 -63l-13 -5v15h-72v-14l-14 -5q1 24 1 88t-1 87l14 -8h18q10 28 11 36h-26q-11 -1 -19 -3l-8 10h97l11 12l16 -19h-53q-6 -9 -23 -36zM148 35h15v134h-15v-134zM204 35h16v134h-16v-134zM175 131h17v38h-17v-38zM175 86h17v38
h-17v-38zM175 35h17v44h-17v-44zM38 192q-10 -1 -19 -3l-10 10h54v10q0 19 -1 38l22 -8l-8 -7v-33h27l11 10l15 -17h-53q0 -68 -5 -98q39 -37 44.5 -49.5t0.5 -21t-13 12.5t-33 52q-10 -46 -58 -80l-2 3q35 34 44.5 68.5t8.5 112.5h-25zM50 173l-8 -6l-4 -21
q17 -11 20.5 -18t-1.5 -16t-8.5 3.5t-11.5 26.5q-8 -30 -26 -51l-3 3q18 34 21 86zM98 182l20 -10l-8 -5l-7 -25q29 -19 23.5 -34t-10.5 0.5t-14 28.5q-10 -23 -22 -38l-4 3q17 32 22 80z" />
  </g>

</svg>
