<?xml version="1.0" standalone="no"?>
<!DOCTYPE svg PUBLIC "-//W3C//DTD SVG 1.1//EN" "http://www.w3.org/Graphics/SVG/1.1/DTD/svg11.dtd" >
<svg xmlns="http://www.w3.org/2000/svg" xmlns:xlink="http://www.w3.org/1999/xlink" version="1.1" viewBox="0 -200 1000 1000">
  <g transform="matrix(1 0 0 -1 0 800)">
   <path fill="currentColor"
d="M463 680l67 -25q16 -7 8 -13q-13 -1 -29 -11q18 -44 60 -96q3 -3 9 -10q10 -10 15 -16l4 -4q93 53 120 72q41 28 42 35q3 10 -2 19l8 5l52 -51q7 -6 7 -9q0 -4 -7 -5q-24 9 -58 -12q-77 -39 -144 -67q33 -27 77 -48q60 -29 131 -43q25 -6 59 -8h9q9 1 48 2q15 1 22 1v-14
q-37 -5 -51 -11q-17 -7 -29 -28q-93 10 -177 49q-84 40 -137 101q-40 47 -67 120q-29 -102 -114 -181q-103 -84 -333 -110l-2 16q208 39 301 113q80 67 117 188q1 18 -11 31zM173 816h601v86h-568q-20 1 -36 -13l-34 33h622l37 34l41 -43q6 -6 5 -9q-1 -4 -9 -5l-20 -8v-134
l5 -63q2 -17 -12 -25q-10 -8 -31 -10v35h-567q-29 0 -43 -12l-33 31h643v87h-524q-26 0 -44 -13zM383 296q5 -6 -1 -9q-16 -1 -33 -15v-90q-3 -58 14 -78q18 -17 43 -17q11 -1 45 -1q28 -1 45 -1q103 2 139 7q51 8 53 46q3 45 6 121h15l6 -73q2 -51 32 -66q-19 -33 -33 -44
q-12 -8 -42 -15t-164 -8q-23 0 -61 1q-46 0 -61 1q-82 2 -81 91v135q-4 23 -28 43l7 9zM744 294l7 12q70 -32 107 -67q46 -45 51 -81q4 -38 -18 -43q-20 -5 -26 28q-8 31 -36 71q-27 42 -85 80zM186 283q-2 -143 -63 -183q-32 -25 -47 -2q-17 22 13 39q29 19 49 43
q20 27 33 103h15zM436 363l2 14q132 -54 144 -134q5 -32 -18 -38q-20 -4 -25 28q-5 29 -32 67q-33 38 -71 63zM281 630l14 -2q-10 -66 -26 -91q-17 -29 -34 -44q-16 -14 -42 -17q-25 -3 -32 15q-6 21 29 33q36 13 56 32q17 14 35 74z" />
  </g>

</svg>
