<?xml version="1.0" standalone="no"?>
<!DOCTYPE svg PUBLIC "-//W3C//DTD SVG 1.1//EN" "http://www.w3.org/Graphics/SVG/1.1/DTD/svg11.dtd" >
<svg xmlns="http://www.w3.org/2000/svg" xmlns:xlink="http://www.w3.org/1999/xlink" version="1.1" viewBox="0 -144 1024 1024">
  <g transform="matrix(1 0 0 -1 0 880)">
   <path fill="currentColor"
d="M349 581l55 -36l9 -16l-24 -2l-21 -22l-39 -36l-34 -29l16 -12l33 -28l15 -15l14 -16l12 -17l11 -17l1 -24l-17 -19h-24l-18 16l-6 15l-7 15l-8 16l-10 16l-10 15l-24 33l-20 22v-375l-65 -32v425l-22 -23l-40 -39l-43 -37l-46 -34l-6 7l74 84l34 42l32 42l17 24v3h2
l40 60l25 45l45 92l10 24h-255v21h133v215l65 -11l16 -10l-16 -10v-184h63l32 27l59 -48l-26 -17l-12 -4l-14 -29l-26 -48l-27 -45l-31 -45l-24 -33h6v-63l21 -11l10 -6l23 40l23 45l6 12l8 22l1 4h-1l2 4v1zM868 62l-45 37l-39 46l-34 54l-27 62l-23 70l-17 78l-2 21h-178
v-280l132 68l67 31l5 -9l-85 -68l-143 -102h-1l-1 -22l-17 8l-17 29l-1 2l-3 4l-1 2l-1 1l-3 5l-4 7l-3 6l11 6v816l65 -33h316l32 27l59 -48l-27 -22v-207l-64 -32v64h-93l2 -89l7 -91l7 -51h61l53 54l65 -54v-22h-175l1 -9l16 -73l20 -64l25 -55l28 -46l32 -38l36 -29
l1 -1l27 116h10l-10 -130l12 -7l17 -17v-25l-18 -17h-24zM427 112l33 -56l-42 50zM662 683h-159v-231h174l-6 44l-7 95zM819 880h-316v-175h316v175z" />
  </g>

</svg>
