<?xml version="1.0" standalone="no"?>
<!DOCTYPE svg PUBLIC "-//W3C//DTD SVG 1.1//EN" "http://www.w3.org/Graphics/SVG/1.1/DTD/svg11.dtd" >
<svg xmlns="http://www.w3.org/2000/svg" xmlns:xlink="http://www.w3.org/1999/xlink" version="1.1" viewBox="0 -36 256 256">
  <g transform="matrix(1 0 0 -1 0 220)">
   <path fill="currentColor"
d="M61 216l15 -10h71q-1 7 -4.5 16t-12.5 21l2 2q19 -11 25.5 -20.5t-3.5 -18.5h55l13 12l18 -19h-164q0 -45 -1 -76t-13 -59.5t-44 -54.5l-2 3q40 38 46 108q-28 -20 -37 -34l-13 15q17 5 50 24q0 67 -1 91zM44.5 167.5q5.5 -8.5 -2 -17t-10 6.5t-11.5 29l2 3
q16 -13 21.5 -21.5zM137 175l-7 -2q-25 -32 -46 -46l-3 2q25 24 39 58zM72 70l-2 3q20 21 32.5 38.5t19.5 35.5l17 -12l-8 -5q-8 -9 -20 -22l11 -7l-5 -7v-80l-14 -7q1 23 1 42v47q-8 -9 -32 -26zM193.5 169.5q5.5 -7.5 -2 -15.5t-11.5 5t-22 29l3 4q27 -15 32.5 -22.5z
M209 144l12 9l16 -16h-48v-45h16l12 10l16 -17h-44v-58h25l14 11l15 -18h-76q-17 1 -28 -1l-9 8h46v58h-5q-14 1 -25 -1l-9 8h39v45h-11q-5 1 -20 -2l-9 9h73z" />
  </g>

</svg>
