<?xml version="1.0" standalone="no"?>
<!DOCTYPE svg PUBLIC "-//W3C//DTD SVG 1.1//EN" "http://www.w3.org/Graphics/SVG/1.1/DTD/svg11.dtd" >
<svg xmlns="http://www.w3.org/2000/svg" xmlns:xlink="http://www.w3.org/1999/xlink" version="1.1" viewBox="0 -36 256 256">
  <g transform="matrix(1 0 0 -1 0 220)">
   <path fill="currentColor"
d="M206 119h15l10 11l18 -18h-206q-13 0 -22 -3l-10 10h34l-3 86q-1 12 -3 25l15 -7q16 7 28 18l14 -13l-10 -1q-19 -5 -31 -9l1 -27h7l10 11l18 -18h-35l1 -29h6l10 11l18 -18h-34l1 -29h83h52l3 32h-9l-11 -3l-10 10h30l3 30h-14l-11 -3l-10 10h35l2 25h-11q-15 0 -24 -3
l-10 10h40l11 12l17 -14l-9 -6zM111 148l33 2q-3 8 -7 17l2 2q18 -15 20.5 -25t-3.5 -14.5t-7 2t-3 13.5q-37 -8 -43 -13l-8 17q8 0 15 9t15 25q-14 -3 -22 -8l-8 13q2 -2 11 13t15 41l19 -9l-8 -4q-12 -24 -26 -40l22 1q7 11 10 24l19 -9l-9 -6q-16 -26 -37 -51zM62.5 60
q-3.5 -9 -11 -10.5t-13 0.5t5 10.5t17.5 33.5h5q0 -25 -3.5 -34zM212 83q-8 -1 -20.5 -8.5t-37.5 -21.5l-4 2q37 30 42 42zM138 101l-8 -6q-1 -19 -3 -23q53 -42 109 -47v-5q-16 0 -23 -12q-52 20 -87 58q-13 -27 -39.5 -39.5t-77.5 -15.5v4q49 7 72 21t29 32t4 43z" />
  </g>

</svg>
