<?xml version="1.0" standalone="no"?>
<!DOCTYPE svg PUBLIC "-//W3C//DTD SVG 1.1//EN" "http://www.w3.org/Graphics/SVG/1.1/DTD/svg11.dtd" >
<svg xmlns="http://www.w3.org/2000/svg" xmlns:xlink="http://www.w3.org/1999/xlink" version="1.1" viewBox="0 -410 2048 2048">
  <g transform="matrix(1 0 0 -1 0 1638)">
   <path fill="currentColor"
d="M1353 1742q19 63 39 169l109 -22q66 -13 66 -35q0 -24 -43 -31l-39 -7q-12 -40 -23 -74h306l82 81l114 -87q17 -13 17 -26q0 -25 -29 -25h-511q-32 -76 -78 -145q78 -22 164 -22h199l69 66l80 -57q35 -25 35 -43q0 -21 -22 -21h-280v-167h176l72 72l96 -76q19 -16 19 -34
q0 -20 -19 -20h-577q-70 0 -149 -10l-39 86q119 -18 188 -18h145v167q-23 1 -37 1q-20 0 -108 -8l-29 62q-97 -121 -246 -222l-23 29q172 149 256 360h-44q-68 0 -149 -11l-40 86q124 -18 189 -18h64zM1363 668q-14 -162 -48 -241q-28 -63 -102 -145l-28 21q49 74 68 161
q22 106 22 261v239q0 77 -9 187l109 -65h378l57 68l46 -30q57 -37 57 -63q0 -19 -27 -36l-30 -19v-551q0 -126 -152 -162q0 60 -29 78q-38 25 -144 48l6 40q116 -23 179 -23q52 0 52 61v218q-86 -39 -289 -108q-3 -21 -4 -31q-5 -38 -24 -38q-15 0 -35 36zM1768 764v264
h-405v-72q51 -5 153 -11q206 -12 206 -104q0 -36 -30 -36q-18 0 -68 28q-82 47 -261 90v-236q202 23 405 77zM821 1814q192 -175 192 -273q0 -64 -54 -64q-35 0 -45 54q-22 130 -120 258zM359 273v647h-96q-64 0 -149 -11l-39 86q125 -17 188 -17h96v290q-83 -2 -153 -11
l-39 86q121 -18 188 -18h96l80 82l114 -86q17 -13 17 -26q0 -27 -27 -27h-180v-290h54l80 81l114 -86q16 -12 16 -26q0 -27 -27 -27h-237v-622q137 39 237 76l13 -40q-90 -54 -225 -110q-42 -17 -172 -65q-44 -17 -72 -27l-11 -42q-7 -32 -24 -32q-13 0 -29 30l-70 131
q115 19 257 54zM147 753q166 -194 166 -308q0 -73 -55 -73q-48 0 -46 69q3 108 -93 291zM587 772l127 -40q32 -10 32 -26q0 -20 -25 -27l-57 -16q-77 -158 -144 -254l-33 17q69 170 100 346zM440 1790q267 -187 267 -290q0 -61 -49 -61q-36 0 -70 78q-53 119 -164 228
q-48 -120 -138 -235q-70 -89 -216 -211l-24 26q14 16 94 106q173 194 223 482l122 -32q51 -13 51 -34q0 -24 -39 -30l-49 -7zM871 336q42 85 71 182q23 76 36 235h-128q-19 -8 -37 -8q-45 0 -45 22q0 12 10 32q59 112 138 336h-57q-64 0 -150 -11l-38 86q126 -20 188 -20h57
l72 63l92 -89q13 -12 13 -23q0 -26 -35 -37l-61 -18l-109 -276h78l59 73l90 -73q13 -11 13 -20q0 -12 -17 -23l-36 -23q-32 -168 -70 -258q-35 -83 -89 -168q131 -106 253 -130q99 -19 380 -19q221 0 420 20v-32q-11 -4 -17 -6q-42 -16 -57 -45q-6 -12 -14 -37
q-173 1 -268 3q-83 1 -112 1q-163 0 -290 23q-149 27 -274 138q-39 35 -63 35q-46 0 -95 -76l6 -38q1 -3 1 -5q0 -25 -18 -25t-31 19l-57 80q91 89 191 112z" />
  </g>

</svg>
