<?xml version="1.0" standalone="no"?>
<!DOCTYPE svg PUBLIC "-//W3C//DTD SVG 1.1//EN" "http://www.w3.org/Graphics/SVG/1.1/DTD/svg11.dtd" >
<svg xmlns="http://www.w3.org/2000/svg" xmlns:xlink="http://www.w3.org/1999/xlink" version="1.1" viewBox="0 -205 1024 1024">
  <g transform="matrix(1 0 0 -1 0 819)">
   <path fill="currentColor"
d="M434 948l52 -34h316l26 34l50 -34q12 -6 12 -14q1 -5 -28 -22v-98l4 -52q0 -12 -18 -24q-18 -13 -38 -10v34h-134v-100h198l36 44l60 -52q3 -3 4 -8q0 -12 -12 -12h-286v-48q92 -13 154 -32q59 -17 92 -40q32 -21 32 -42q1 -21 -10 -30q-11 -8 -28 0q-15 5 -42 32
q-27 23 -80 50q-52 24 -118 40v-42l2 -68q0 -15 -18 -26q-17 -13 -40 -10l4 98v118q-76 -78 -154 -132q-79 -51 -164 -86l-8 14q80 45 146 96q63 51 114 108h-156q-21 0 -68 -8l-16 36h306v100h-138v-4q0 -24 -12 -30q-27 -12 -42 -12l2 96v170v0v0zM486 754h324v134h-324
v-134v0v0zM356 938l6 -6q3 -9 -14 -12q-15 -3 -36 -26q-27 -48 -66 -116l34 -16q8 -6 8 -12q1 -3 -22 -18v-238l4 -84q1 -18 -22 -30q-22 -12 -34 -12l4 106v262q-69 -103 -146 -182l-10 12q134 194 230 412l64 -40v0v0zM292 346l16 -2q0 -65 -12 -100q-12 -33 -36 -50
q-24 -18 -44 -20q-18 -1 -30 10q-10 11 -4 26q6 11 36 26q28 12 44 34q15 20 30 76v0v0zM500 416q78 -33 78 -38v-6q0 -4 -36 -16q33 -66 88 -128q54 42 132 124q62 -42 62 -48t-6 -8q-6 -1 -20 -2q-12 1 -36 -10q-21 -12 -116 -72q38 -33 100 -60q62 -22 112 -35
q48 -12 144 -10v-20q-30 1 -54 -8q-25 -10 -46 -38q-97 25 -164 62q-66 34 -114 85q-49 51 -94 138q-22 -84 -82 -146t-152 -99q-91 -35 -218 -56l-2 18q120 27 210 72q90 40 132 95q42 51 58 100q15 45 24 106v0v0z" />
  </g>

</svg>
