<?xml version="1.0" standalone="no"?>
<!DOCTYPE svg PUBLIC "-//W3C//DTD SVG 1.1//EN" "http://www.w3.org/Graphics/SVG/1.1/DTD/svg11.dtd" >
<svg xmlns="http://www.w3.org/2000/svg" xmlns:xlink="http://www.w3.org/1999/xlink" version="1.1" viewBox="0 -36 256 256">
  <g transform="matrix(1 0 0 -1 0 220)">
   <path fill="currentColor"
d="M116 228h102l13 12l17 -19h-133v-84q-1 -47 -9.5 -77.5t-29.5 -52.5l-3 2q17 26 23 58.5t6 62v54t-1 53.5zM132 175q0 19 -1 34l16 -5h67l8 8l18 -11l-8 -6v-27.5t1 -23.5l-14 -6v6h-32v-23h25l11 11l18 -18h-54v-20h35l9 11l15 -18h-94q-11 -1 -21 -3l-10 10h53v20h-21
q-11 0 -21 -2l-10 9h52v23h-29v-4l-14 -3q1 19 1 38zM187 151h32v46h-32v-46zM145 151h29v46h-29v-46zM170 163.5q-3 -7.5 -7.5 -10.5t-6.5 8t-9 26l3 2q23 -18 20 -25.5zM216 182q-10 -12 -25 -29l-3 1q12 26 13 37zM147 52q-10 0 -19 -2l-9 9h55q0 12 -1 27l21 -9l-7 -5
v-13h18l13 9l17 -16h-48v-24h32l14 11l16 -18h-113q-10 0 -19 -2l-9 9h66v24h-27zM15 71l3 2q19 -28 18.5 -35.5t-8 -13.5t-7 5.5t-6.5 41.5zM37 77l2 3q21 -20 23 -30.5t-4.5 -14t-8.5 6t-12 35.5zM62 88q24 -19 26.5 -26.5t-3.5 -14.5t-8.5 4t-16.5 34zM60 226
q-19 -34 -36 -56l38 1q7 12 12 25l17 -15l-9 -3q-35 -49 -59 -70l50 4q-4 13 -13 27l2 3q29 -26 29 -35t-5.5 -13t-7 1.5t-4.5 12.5q-22 -5 -35.5 -9t-22.5 -9l-7 19q7 -1 20.5 15.5t28.5 40.5q-31 -5 -39 -12l-9 18q8 -2 20 21.5t20 49.5l20 -11z" />
  </g>

</svg>
