<?xml version="1.0" standalone="no"?>
<!DOCTYPE svg PUBLIC "-//W3C//DTD SVG 1.1//EN" "http://www.w3.org/Graphics/SVG/1.1/DTD/svg11.dtd" >
<svg xmlns="http://www.w3.org/2000/svg" xmlns:xlink="http://www.w3.org/1999/xlink" version="1.1" viewBox="0 -36 256 256">
  <g transform="matrix(1 0 0 -1 0 220)">
   <path fill="currentColor"
d="M212 118q-18 0 -78 -6v-27h79l13 11l17 -18h-101q29 -23 56.5 -32t45.5 -10v-4q-18 -3 -19 -14q-54 17 -91 60q0 -21 1 -63l-15 -6q1 41 1 68q-37 -37 -108 -56l-1 3q61 24 93 54h-62q-10 0 -19 -2l-9 9h106v25q-40 -1 -74 -2v3q33 3 84.5 10t64.5 16zM173 232
q-5 -6 -11 -19h53l12 14l17 -21h-28q-10 -21 -20 -34q19 -11 25.5 -17t6 -19t-10.5 -1.5t-28 28.5q-24 -21 -61 -33l-1 3q39 21 51 38q-10 9 -25 16l1 4q16 -4 31 -11q9 12 14 26h-40q-15 -24 -29 -38l-3 2q22 31 32 78l20 -12zM114 185h-21v-43q0 -19 -19 -27q-1 16 -23 18
l1 3q14 -1 21 -1t8 11v35q-23 -34 -61 -54l-1 4q32 24 49 54h-23q-10 -1 -19 -3l-9 10h62q-3 14 -16 24l2 3q12 -3 23 -10l17 18h-41q-10 -1 -19 -4l-9 11h71l9 10l15 -18q-13 0 -41 -22q5 -5 0 -12h23l7 10l15 -15q-11 -2 -27 -28l-3 1z" />
  </g>

</svg>
