<?xml version="1.0" standalone="no"?>
<!DOCTYPE svg PUBLIC "-//W3C//DTD SVG 1.1//EN" "http://www.w3.org/Graphics/SVG/1.1/DTD/svg11.dtd" >
<svg xmlns="http://www.w3.org/2000/svg" xmlns:xlink="http://www.w3.org/1999/xlink" version="1.1" viewBox="0 -36 256 256">
  <g transform="matrix(1 0 0 -1 0 220)">
   <path fill="currentColor"
d="M223 202l-17 -3v2h-154v-2l-17 -2q3 14 2 26.5t-2 19.5l18 -4h151l10 7l15 -10l-8 -5v-14q0 -11 2 -15zM52 208h40v24h-40v-24zM105 208h45v24h-45v-24zM163 208h43v24h-43v-24zM37 195l20 -6h153l9 8l16 -15h-94v-11h57l11 8l16 -15h-84v-12h59l11 9l16 -16h-86v-11h80
l11 8l13 -15l-9 -4q-2 -21 -7.5 -32t-22.5 -15q0 11 -28 14l-1 5q24 -2 32.5 -0.5t10.5 9t3 23.5h-171v-4l-15 -5q1 15 1 28v32q0 9 -1 17zM54 119q0 -13 -3 -20.5t-9.5 -11t-13 0.5t4 10t17.5 23zM73 123q13 -6 21 -12t5.5 -12.5t-7.5 -8t-6 6t-16 23.5zM52 170h76v12h-76
v-12zM52 152h76v11h-76v-11zM52 134h76v11h-76v-11zM161 125q22 -7 27.5 -11t5 -9t-5.5 -9t-8.5 5t-19.5 21zM118 124q17 -7 23.5 -12t5.5 -10t-5.5 -8.5t-8 6t-17.5 20.5zM122 35h-66v-4l-16 -4q1 12 1 27.5t-1 23.5l16 -5h66q0 6 -2 17l23 -6l-7 -5v-6h65l6 7l16 -11
l-5 -3q0 -25 1 -34l-16 -3v6h-67q0 -10 1 -23l-16 -4q1 12 1 27zM56 42h66v24h-66v-24zM136 42h67v24h-67v-24z" />
  </g>

</svg>
