<?xml version="1.0" standalone="no"?>
<!DOCTYPE svg PUBLIC "-//W3C//DTD SVG 1.1//EN" "http://www.w3.org/Graphics/SVG/1.1/DTD/svg11.dtd" >
<svg xmlns="http://www.w3.org/2000/svg" xmlns:xlink="http://www.w3.org/1999/xlink" version="1.1" viewBox="0 -36 256 256">
  <g transform="matrix(1 0 0 -1 0 220)">
   <path fill="currentColor"
d="M63 222q6 -8 0.5 -17t-12 4.5t-20.5 27.5l1 3q25 -10 31 -18zM13 183q30 -12 32 -21.5t-3.5 -15.5t-9.5 6t-20 28zM39 85.5q6 3.5 33 109.5l5 -1q-19 -90 -22 -102.5t-4 -23.5t0.5 -36t-9.5 -19.5t-8 23t3 28t-23 15.5v5q19 -2 25 1.5zM151 205h61l10 11l18 -18h-72
q13 -24 33.5 -37.5t44.5 -17.5v-4q-12 0 -19 -12q-18 9 -36.5 26.5t-28.5 44.5h-12q-11 -31 -33 -49.5t-50 -28.5l-1 4q22 12 41 30.5t27 43.5h-22q-16 0 -25 -3l-10 10h59q7 25 7 41l21 -9q-4 -4 -13 -32zM134 161q33 -15 34.5 -22.5t-3 -15.5t-10 5t-23.5 31zM109 105v-80
h20v80h-20zM143 25h23v80h-23v-80zM180 25h22v80h-22v-80zM95 67q0 35 -1 55l16 -10h90l7 10l18 -12l-8 -9v-76h4l11 11l18 -18h-152q-15 -1 -24 -4l-11 11h32v42z" />
  </g>

</svg>
