<?xml version="1.0" standalone="no"?>
<!DOCTYPE svg PUBLIC "-//W3C//DTD SVG 1.1//EN" "http://www.w3.org/Graphics/SVG/1.1/DTD/svg11.dtd" >
<svg xmlns="http://www.w3.org/2000/svg" xmlns:xlink="http://www.w3.org/1999/xlink" version="1.1" viewBox="0 -36 256 256">
  <g transform="matrix(1 0 0 -1 0 220)">
   <path fill="currentColor"
d="M44 36.5q8 0.5 8 11.5v161h-15q-10 0 -19 -2l-9 9h70l12 11l15 -18h-40v-167q-1 -19 -21 -27q-4 14 -31 18v5q22 -2 30 -1.5zM89 99l-3 2q16 28 24.5 49.5t14.5 46.5l20 -11q-7 -4 -23 -38l8 -6l-7 -5v-121l-14 -7q1 22 1 117q-11 -17 -21 -27zM189 189q-7 -4 -15 -26h34
l7 11l17 -13l-7 -6q-15 -58 -33 -91q26 -29 55 -39v-4q-17 2 -23 -8q-20 15 -40 40q-24 -29 -57 -43l-1 4q31 21 51 50q-18 31 -23 59q-8 -13 -21 -29l-3 2q15 26 25.5 52.5t14.5 48.5zM157 129q10 -31 26 -55q10 21 16.5 42.5t9.5 39.5h-37zM187 124.5q5 -5.5 3.5 -11.5
t-6 -9.5t-6.5 7.5t-11 25l2 2q13 -8 18 -13.5zM147 243l2 3q24 -12 26.5 -20t-3.5 -15t-9.5 5.5t-15.5 26.5zM214 204l14 11l16 -18h-122q-10 0 -19 -2l-9 9h120z" />
  </g>

</svg>
