<?xml version="1.0" standalone="no"?>
<!DOCTYPE svg PUBLIC "-//W3C//DTD SVG 1.1//EN" "http://www.w3.org/Graphics/SVG/1.1/DTD/svg11.dtd" >
<svg xmlns="http://www.w3.org/2000/svg" xmlns:xlink="http://www.w3.org/1999/xlink" version="1.1" viewBox="0 -205 1024 1024">
  <g transform="matrix(1 0 0 -1 0 819)">
   <path fill="currentColor"
d="M324 968l58 -44h136l24 34l62 -40q6 -4 6 -8q0 -6 -30 -26v-164l4 -74q0 -16 -14 -26q-13 -10 -40 -14v32h-154v-452l4 -103q2 -15 -16 -30q-19 -15 -44 -18l4 145v788v0v0zM376 664h154v110h-154v-110v0v0zM376 802h154v96h-154v-96v0v0zM672 968l58 -44h128l34 40
l58 -40q6 -4 6 -8q0 -6 -30 -32v-755q6 -42 -8 -66q-13 -21 -58 -42q-14 42 -52 56l-90 30l4 18q54 -10 88 -14q33 -5 52 -2q17 2 14 49v480h-152v-22q-24 -19 -56 -22l4 104v270v0v0zM724 664h152v108h-152v-108v0v0zM724 800h152v98h-152v-98v0v0zM570 588l10 8
q38 -18 56 -36q17 -18 20 -36t-8 -30q-9 -13 -26 -10q-15 3 -18 24q0 18 -6 36q-4 16 -28 44v0v0zM78 956l6 14q57 -18 90 -32q33 -12 48 -30t18 -38q3 -22 -8 -34q-12 -14 -26 -12q-13 3 -20 18t-16 34q-9 18 -26 34q-15 15 -66 46v0v0zM16 696l6 14q48 -16 82 -32
q32 -15 50 -30q17 -16 20 -38q3 -20 -6 -34q-9 -15 -26 -14q-16 0 -22 16q-6 12 -14 30q-7 17 -26 40q-19 21 -64 48v0v0zM152 396q-19 -57 -46 -60h-78l-2 -20q39 -2 64 -10q23 -6 32 -18q8 -12 10 -42q0 -30 -8 -84q-9 -53 -6 -81q0 -27 18 -36q18 -6 34 2q15 7 18 34
q3 25 -6 83q-7 57 -8 94q-2 37 6 62t14 56l108 394l-20 8l-130 -382v0v0zM394 468h364l36 42l54 -48q12 -15 -8 -18h-112q-21 -77 -60 -142q59 -36 86 -60q24 -24 30 -44q6 -22 -2 -34q-9 -13 -24 -14q-16 -1 -28 26q-12 23 -32 44q-21 20 -54 50q-42 -48 -98 -84
q-54 -36 -126 -75l-10 16q60 41 112 81q51 39 88 90q-57 39 -128 90l10 14q78 -38 138 -76q29 54 46 118h-214q-34 -3 -38 -8l-30 32v0v0z" />
  </g>

</svg>
