<?xml version="1.0" standalone="no"?>
<!DOCTYPE svg PUBLIC "-//W3C//DTD SVG 1.1//EN" "http://www.w3.org/Graphics/SVG/1.1/DTD/svg11.dtd" >
<svg xmlns="http://www.w3.org/2000/svg" xmlns:xlink="http://www.w3.org/1999/xlink" version="1.1" viewBox="0 -36 256 256">
  <g transform="matrix(1 0 0 -1 0 220)">
   <path fill="currentColor"
d="M76 205h138l7 11l18 -12l-8 -7q-5 -122 -9 -144.5t-14.5 -30t-29.5 -13.5q-2 14 -36 21v4q24 -3 36.5 -3.5t23 10t13.5 157.5h-143q-25 -33 -59 -54l-2 3q28 25 44.5 52t22.5 47l19 -11q-5 -4 -8.5 -9.5t-12.5 -20.5zM75 140h80l6 9l16 -10l-6 -8q0 -41 1 -56l-16 -4v6
h-81v-4l-16 -4q1 21 1 40t-1 38zM75 112h81v21h-81v-21zM75 84h81v21h-81v-21zM168 55l13 12l19 -19h-142q-12 0 -19 -2l-9 9h138zM177 146q-11 15 -41 35l2 4q29 -13 44 -23t10.5 -20.5t-15.5 4.5zM103 175l-9 -3q-27 -29 -61 -44l-1 3q33 22 54 57z" />
  </g>

</svg>
