<?xml version="1.0" standalone="no"?>
<!DOCTYPE svg PUBLIC "-//W3C//DTD SVG 1.1//EN" "http://www.w3.org/Graphics/SVG/1.1/DTD/svg11.dtd" >
<svg xmlns="http://www.w3.org/2000/svg" xmlns:xlink="http://www.w3.org/1999/xlink" version="1.1" viewBox="0 -205 1024 1024">
  <g transform="matrix(1 0 0 -1 0 819)">
   <path fill="currentColor"
d="M84 612h244l30 36l64 -50q7 -4 2 -14q-6 -4 -18 -4q-12 -4 -30 -16q-69 -79 -146 -134q-78 -54 -188 -98l-8 14q105 56 174 112t124 128h-176q-25 3 -52 -8l-20 34v0v0zM170 740h556l36 30q60 -45 64 -54q2 -7 -4 -10q-6 -1 -26 -2q-18 0 -36 -6t-146 -66q47 -69 86 -104
q93 59 162 128q57 -43 60 -50q0 -6 -2 -8q0 -1 -18 -2q-18 0 -56 -18q-39 -18 -128 -66q58 -42 92 -56q33 -15 72 -24t102 -14v-20q-41 2 -64 -10q-21 -13 -32 -28q-64 21 -106 52q-41 27 -88 70q-46 41 -100 140l-56 -28v-156q1 -35 -22 -52q-24 -16 -54 -22q-4 24 -28 40
q-24 14 -74 32l6 16q51 -13 72 -16q22 -2 38 0q15 2 12 26v184l44 -26q105 56 162 94h-446h-28l-30 -6l-20 32v0v0zM162 350h526l38 44l70 -54q3 -4 4 -10q1 -7 -16 -8h-548q-21 0 -54 -8l-20 36v0v0zM176 276l56 -22h536l30 32l50 -38q9 -6 10 -12q1 -7 -28 -22v-149h68
l40 52l60 -60q3 -3 4 -10q3 -7 -12 -8h-870q-21 1 -68 -8l-16 34h140v211v0v0zM226 65h160v165h-160v-165v0v0zM432 65h146v165h-146v-165v0v0zM624 65h156v165h-156v-165v0v0zM334 974l84 -28q6 -3 6 -8q-1 -3 -40 -26v-40h248v100l82 -34q3 -5 4 -10q1 -2 -34 -22v-34h190
l40 48l60 -62q3 -1 4 -8q-1 -6 -16 -6h-278v-46q0 -12 -12 -20q-9 -6 -18 -8q-10 -3 -22 -2v76h-248v-46q0 -12 -8 -18l-18 -10q-9 -3 -24 -2v76h-202q-22 -1 -70 -10l-18 38h290v102v0v0z" />
  </g>

</svg>
