<?xml version="1.0" standalone="no"?>
<!DOCTYPE svg PUBLIC "-//W3C//DTD SVG 1.1//EN" "http://www.w3.org/Graphics/SVG/1.1/DTD/svg11.dtd" >
<svg xmlns="http://www.w3.org/2000/svg" xmlns:xlink="http://www.w3.org/1999/xlink" version="1.1" viewBox="0 -154 1024 1024">
  <g transform="matrix(1 0 0 -1 0 870)">
   <path fill="currentColor"
d="M421 443q51 -15 84 -31q32 -16 45 -40q14 -24 8 -40q-6 -18 -23 -17q-17 0 -23 21q-6 20 -28 44q-21 22 -68 51zM605 511q-2 22 -26 46l8 11l82 -38q19 -9 7 -14q-18 -6 -31 -16v-143q41 26 75 51q42 28 44 37q3 9 -4 18l8 6l58 -45q14 -12 0 -14q-30 0 -41 -4
q-12 -6 -55 -28q-39 -21 -85 -42v-32q88 -17 155 -39q68 -24 93 -48q24 -24 24 -47q-1 -22 -19 -25q-18 -2 -39 28t-79 62q-55 30 -135 53v-188q-1 -33 -13 -50q-12 -16 -60 -28q-3 24 -22 33q-18 9 -86 31l1 12l58 -11q35 -4 57 -4q22 1 25 49v143l-123 -52
q-72 -32 -88 -42q-17 -9 -38 -36l-46 52l295 100v214zM182 940q-2 22 -26 48l6 9l86 -38q19 -9 7 -14q-18 -6 -31 -16v-185h51l27 30l56 -36q22 -17 -11 -14h-123v-163l113 84l7 -14l-103 -89q-9 -8 -17 -15v-414q-1 -37 -19 -55t-67 -32q-4 35 -33 47q-29 13 -68 21l2 16
l47 -8q50 -10 72 -4q23 6 24 50v342q-87 -77 -96 -86q-12 -13 -24 -40l-42 47l162 119v194h-90q-27 0 -45 -13l-34 33h169v196zM794 981l63 -54q20 -18 2 -20q-49 9 -99 -6q-71 -15 -134 -24q-6 -94 -31 -175h221l41 50l74 -56q22 -17 -11 -14h-220q30 -59 49 -86
q20 -30 49 -57t61 -43q50 -28 120 -40v-17q-39 0 -53 -2q-18 -4 -33 -25q-57 32 -100 71q-42 39 -73 93q-29 49 -44 106h-88q-1 -5 -3 -8q-38 -99 -117 -175q-79 -75 -186 -119l-6 14q81 45 146 109q65 61 107 153q6 12 11 26h-125q-27 0 -45 -13l-34 33h211q24 72 31 169
q-15 -2 -28 -3q-84 -10 -179 -8v16q116 12 192 27q87 13 149 30q62 15 68 23q6 6 5 21z" />
  </g>

</svg>
