<?xml version="1.0" standalone="no"?>
<!DOCTYPE svg PUBLIC "-//W3C//DTD SVG 1.1//EN" "http://www.w3.org/Graphics/SVG/1.1/DTD/svg11.dtd" >
<svg xmlns="http://www.w3.org/2000/svg" xmlns:xlink="http://www.w3.org/1999/xlink" version="1.1" viewBox="0 -205 1024 1024">
  <g transform="matrix(1 0 0 -1 0 819)">
   <path fill="currentColor"
d="M290 964l6 14q62 -17 92 -34q28 -16 38 -34q9 -18 4 -36q-7 -18 -26 -18q-18 -2 -24 18q-6 18 -24 40q-15 20 -66 50v0v0zM570 846q42 63 76 130q66 -33 66 -42q0 -10 -8 -10q-9 0 -20 -6q-11 -4 -28 -16t-58 -56h216l34 44l66 -50q3 -4 4 -8q0 -12 -12 -12h-370v-80h224
l28 42l52 -44q9 -9 12 -14q0 -10 -12 -10h-304v-76h316l40 48l60 -56q3 -3 4 -8q0 -10 -12 -10h-822q-21 0 -50 -8l-16 34h432v76h-246q-21 0 -68 -8l-16 34h330v80h-304q-21 0 -68 -8l-16 34h470v0v0zM912 500l60 -58q2 -3 2 -8q3 -6 -6 -6h-316q6 -53 18 -100
q11 -45 32 -84q44 44 106 134l64 -36q3 -9 -2 -12q-6 -4 -20 -4q-15 0 -44 -30q-28 -29 -82 -88q24 -37 72 -71q47 -35 74 -46q23 -12 32 -4q5 7 14 40q9 32 18 111h18q-4 -87 -4 -115q0 -29 6 -44q4 -15 14 -28q9 -9 10 -16q0 -4 -6 -8q-7 -4 -28 -2q-21 0 -66 18
q-45 13 -96 50q-48 36 -90 87q-120 -94 -212 -139l-10 10q98 69 200 159q-25 48 -38 94q-13 44 -26 124h-240v-18q81 -13 130 -28q45 -16 70 -34q24 -18 22 -36q-1 -18 -16 -20q-15 -4 -38 16q-22 17 -52 38q-31 20 -116 46v-44q3 -15 -14 -24q-18 -8 -32 -6v108
q-61 -57 -118 -96q-55 -39 -146 -92l-10 12q89 64 140 104q48 38 82 74h-160q-24 0 -42 -8l-20 34h274v68q-114 -12 -216 -12v16q99 9 202 24q101 14 182 40l40 -46q2 -12 -10 -12q-22 6 -40 6q-19 0 -112 -12v-72h238v140l72 -26q13 -5 -4 -16l-22 -10v-88h228l34 46v0v0z
M170 296h248l28 28l44 -40q9 -14 -14 -12h-194l-18 -58h156l22 26l50 -42q3 -6 -2 -14l-26 -12q-12 -64 -30 -95q-18 -27 -38 -42q-21 -14 -56 -22q-6 31 -36 40q-27 10 -72 28l6 16q45 -13 78 -20q29 -6 50 0q17 6 32 26q12 18 24 87h-156l-28 -26l-44 40l28 18l16 50h-16
q-16 0 -32 -8l-20 32v0v0zM700 564l4 14q46 -12 68 -24q21 -12 30 -26q8 -15 2 -32q-5 -15 -22 -18q-15 -1 -20 14q-6 15 -18 34q-12 17 -44 38v0v0z" />
  </g>

</svg>
