<?xml version="1.0" standalone="no"?>
<!DOCTYPE svg PUBLIC "-//W3C//DTD SVG 1.1//EN" "http://www.w3.org/Graphics/SVG/1.1/DTD/svg11.dtd" >
<svg xmlns="http://www.w3.org/2000/svg" xmlns:xlink="http://www.w3.org/1999/xlink" version="1.1" viewBox="0 -205 1024 1024">
  <g transform="matrix(1 0 0 -1 0 819)">
   <path fill="currentColor"
d="M626 962q8 -3 8 -6q6 -9 -8 -14q-27 -7 -42 -44l-26 -54h226l30 38l72 -44q10 -12 -10 -20q-24 -12 -48 -50q-60 -121 -126 -194q48 -45 90 -72q39 -24 84 -44q43 -18 128 -30v-18q-46 -3 -70 -14q-22 -10 -34 -26q-55 31 -112 74q-58 41 -112 100q-48 -55 -134 -112
q-85 -55 -184 -92l-6 16q123 68 190 122q66 54 106 100q-75 86 -114 214q-78 -146 -138 -208l-12 10q60 104 96 182q34 78 68 210l78 -24v0v0zM550 818q41 -120 122 -210q54 66 120 210h-242v0v0zM604 422q92 -42 116 -74q25 -30 20 -54q-3 -22 -14 -28q-12 -7 -26 -2
q-13 2 -16 26q-3 21 -18 46q-14 26 -70 76l8 10v0v0zM490 214q122 -17 206 -46q82 -27 104 -59q22 -30 12 -52q-10 -19 -28 -18q-18 3 -36 26q-19 23 -74 58q-54 32 -188 73l4 18v0v0zM30 748h172v228l66 -30q22 -8 12 -22l-28 -14v-162h64l30 40l50 -48q3 -3 4 -8
q0 -12 -14 -12h-134v-96q71 -37 98 -62q27 -23 34 -46q7 -22 0 -40q-8 -19 -28 -20q-18 0 -24 24q-4 24 -22 54q-16 30 -58 66v-426l4 -107q0 -14 -20 -26q-18 -12 -38 -12l4 147v360q-31 -84 -76 -164q-44 -79 -94 -136l-10 10q38 63 68 126q30 62 60 152q31 90 50 196
h-102q-6 0 -48 -8l-20 36v0v0z" />
  </g>

</svg>
