<?xml version="1.0" standalone="no"?>
<!DOCTYPE svg PUBLIC "-//W3C//DTD SVG 1.1//EN" "http://www.w3.org/Graphics/SVG/1.1/DTD/svg11.dtd" >
<svg xmlns="http://www.w3.org/2000/svg" xmlns:xlink="http://www.w3.org/1999/xlink" version="1.1" viewBox="0 -205 1024 1024">
  <g transform="matrix(1 0 0 -1 0 819)">
   <path fill="currentColor"
d="M700 900h182l28 42l58 -50q3 -3 4 -8q0 -12 -14 -12h-108v-358h52l28 38l44 -46q2 -3 2 -8q1 -12 -10 -12h-116v-336l4 -95q0 -13 -20 -26q-18 -12 -38 -12l4 125v344h-14q-34 0 -52 -8l-20 36h84v358h-24q-11 0 -46 -8l-28 36v0v0zM448 900h162l32 42l46 -50q3 -3 4 -8
q0 -12 -14 -12h-88v-362h28l28 38l52 -46q2 -3 2 -8q1 -12 -10 -12h-96q-4 -144 -34 -224q-27 -79 -84 -141q-56 -60 -148 -108l-8 14q72 51 124 114q49 58 74 143q24 84 24 202h-52q-30 0 -48 -8l-20 36h120v362h-24q-27 0 -50 -8l-20 36v0v0zM30 894h306l38 48l60 -58
q3 -4 4 -10q1 -7 -16 -8h-124q-55 -75 -100 -128q69 -77 102 -148q34 45 86 148q66 -37 66 -44q0 -6 -8 -8q-9 -1 -18 -4t-36 -32q-27 -28 -80 -82l20 -58q59 -36 86 -56q24 -22 40 -46q14 -24 16 -48q3 -25 -12 -40q-13 -13 -32 -10q-18 3 -18 30q1 27 -16 66
q-16 39 -58 70q18 -169 6 -254q-12 -83 -50 -125q-39 -42 -92 -60q-12 42 -36 54t-86 36l6 17q84 -20 108 -21t42 6q15 5 30 25q14 17 26 80q10 59 0 218q-69 -90 -132 -152q-60 -64 -126 -112l-8 14q63 66 114 126t138 184q-7 39 -28 84q-54 -63 -104 -116
q-49 -52 -110 -100l-10 14q57 60 100 112q40 51 104 136q-18 35 -48 74q-71 -72 -136 -116l-12 14q54 54 106 118q51 62 96 134h-140q-20 0 -40 -8l-24 36v0v0z" />
  </g>

</svg>
