<?xml version="1.0" standalone="no"?>
<!DOCTYPE svg PUBLIC "-//W3C//DTD SVG 1.1//EN" "http://www.w3.org/Graphics/SVG/1.1/DTD/svg11.dtd" >
<svg xmlns="http://www.w3.org/2000/svg" xmlns:xlink="http://www.w3.org/1999/xlink" version="1.1" viewBox="0 -200 1000 1000">
  <g transform="matrix(1 0 0 -1 0 800)">
   <path fill="currentColor"
d="M366 852q17 -8 10 -17q-8 -9 -31 -6l-67 -118l-45 -81h37l32 37l46 -37q10 -7 6 -22q-5 -6 -20 -7h-101v-69q57 -31 84 -58q33 -32 36 -69q-7 -28 -22 -32t-21 21q-9 31 -27 59q-19 31 -50 61v-380l1 -16q1 -19 -2 -27q-4 -12 -23 -18q-16 -3 -20 0q-2 3 -1 17l1 18v348
q-11 -54 -42 -125q-28 -66 -60 -116l-13 6q42 86 73 195q30 105 39 185h-67l-36 -1l-11 35l40 -5h77v283q-1 18 -1 28q-1 16 -3 24l57 -17q33 -9 27 -16q-4 -5 -34 -12l-2 -1v-263l18 46q20 49 32 79q20 53 35 99zM170 688q-4 -31 -19 -38t-19 21l-2 8q-6 47 -15 80
q-17 59 -49 109l7 5q47 -54 73 -104q24 -46 24 -81zM660 677l2 -5q14 -30 21 -48q12 -31 24 -54h-149q11 28 22 57q11 31 20 50h60zM495 390l-33 26l18 21q18 25 36 56q15 28 32 51h167q36 -60 91 -116q40 -42 99 -83q10 15 23 23q18 11 44 11l-3 13q-77 27 -130 63
q-56 40 -88 89h201q16 0 20 5q5 6 -9 25l-52 41l-41 -45h-128q-15 25 -29 55q-12 26 -27 52h188q14 0 19 6t-8 24l-51 36l-40 -41h-190l7 27q8 27 11 41q6 22 11 31h307q14 0 19 5q6 16 -7 24l-51 36l-41 -39h-225l16 83q32 2 33 11t-29 17l-47 10l-19 -111l-1 -10h-160
l-44 3l11 -30l46 1h143q-3 -5 -10 -43q-2 -10 -13 -56h-95l-62 5l11 -34l67 4h74l-11 -26q-8 -25 -13 -40q-8 -23 -20 -41h-102l-57 4l14 -30l56 1h84q-28 -62 -77 -126q-40 -52 -107 -116l10 -10q38 34 64 58q33 30 59 56v-292l-1 -13q-2 -14 1 -17q5 -5 25 3q15 9 19 18
q2 5 1 6v3h255v-1h-2q-2 -15 1 -18q6 -7 28 -1q16 6 20 15q2 5 -1 17l-2 18v220q30 0 34 8q4 9 -21 28l-45 36l-31 -32h-47l-47 2l7 -33l45 4h61v-101h-59l-42 5l5 -32h63h33v-109h-255v105h119q14 0 18 5q6 5 -5 26l-40 27l-32 -30h-60v96l104 51q30 -3 41 1q12 4 -6 19
l-38 32q-23 -20 -44 -36q-13 -10 -35 -26z" />
  </g>

</svg>
