<?xml version="1.0" standalone="no"?>
<!DOCTYPE svg PUBLIC "-//W3C//DTD SVG 1.1//EN" "http://www.w3.org/Graphics/SVG/1.1/DTD/svg11.dtd" >
<svg xmlns="http://www.w3.org/2000/svg" xmlns:xlink="http://www.w3.org/1999/xlink" version="1.1" viewBox="0 -36 256 256">
  <g transform="matrix(1 0 0 -1 0 220)">
   <path fill="currentColor"
d="M82 220.5q-5 -1.5 -20 -5.5v-53l13 2l10 13l15 -14l-38 -8v-47l21 4l10 15l17 -16l-48 -10v-57q0 -15 14 -15h141q10 0 12 11t2 20h5q-1 -4 0.5 -15.5t10.5 -11.5q-6 -12 -11.5 -14t-16.5 -2h-148q-22 0 -22 23v59l-22 -4l-10 -5l-9 7l41 8v48l-18 -3l-11 -5l-8 7l37 8
v52q-19 -5 -33 -7v6q21 5 40 13t29 16l14 -16q-12 -2 -17 -3.5zM140 125h50v17h-50v-17zM126 57l-14 -6q1 14 1 27.5t-1 28.5l11 -5h36v16h-19v-2l-13 -3q1 11 1 20.5t-1 19.5l13 -4h49l7 7l13 -10l-7 -5q0 -14 1 -25l-13 -4v6h-18v-16h34l6 9l14 -11l-7 -6v-31
q0 -10 -15 -15q-2 10 -22 16v3q18 -2 21 -2t3 4v26h-34q0 -44 1 -51l-15 -5q1 27 1 56h-33v-38zM140.5 186q4.5 -5 0 -12.5t-8 1t-17.5 21.5l2 3q19 -8 23.5 -13zM158 209l21 -7l-7 -5v-29h10q14 19 20 33l15 -13q-8 -3 -29 -20h32l8 9l13 -13q-5 -2 -10 -6t-16 -14l-3 2
l8 15h-106q0 -15 -7 -18.5t-11 0t3.5 11t10.5 23.5h4v-9h45q0 26 -1 41zM148 235q-5 -3 -6.5 -3.5t-11.5 -12.5h75l10 11l18 -18h-107q-15 -14 -29 -24l-2 3q26 24 37 55z" />
  </g>

</svg>
