<?xml version="1.0" standalone="no"?>
<!DOCTYPE svg PUBLIC "-//W3C//DTD SVG 1.1//EN" "http://www.w3.org/Graphics/SVG/1.1/DTD/svg11.dtd" >
<svg xmlns="http://www.w3.org/2000/svg" xmlns:xlink="http://www.w3.org/1999/xlink" version="1.1" viewBox="0 -144 1024 1024">
  <g transform="matrix(1 0 0 -1 0 880)">
   <path fill="currentColor"
d="M381 508v14l-2 28l-2 13l-4 25l-4 13l-5 11l8 5l9 -9l10 -9l10 -12l8 -11l8 -14l7 -14l6 -15l6 -17l8 -35l-8 -23l-12 -6h72l2 10l4 18l11 53l6 34l4 18l3 16l2 12h-1l4 13l60 -27l12 -15l-22 -5l-13 -28l-35 -64l-21 -31l-2 -4h39l44 48l54 -48v-22h-150v-145h22l45 49
l53 -49v-21h-120v-205l-64 -32v237h-109v21h109v145h-131v22h97l-8 3l-11 22zM763 353l-5 16l-13 -54l-21 -66l-26 -59l-31 -52l-35 -43l-39 -35l-44 -26l-5 8l35 33l31 38l28 44l23 50l20 56l16 64l12 70l7 65l-19 32l-46 69l7 7l24 -16l22 -18l15 -15l3 38v92h65l-4 -95
l-8 -87l-2 -12l21 -31l14 -25l12 -26l12 -26l-2 -25l-19 -16l-24 2l-17 18zM37 366l65 -32h123l32 27l59 -49l-27 -21v-205l-64 -32v54h-123v-38l-65 -32v328zM899 74l-22 30l-14 38l-11 49l-8 60l-6 73l-5 85l-2 99v111l2 112h-46v-80h-65v80h-79v22h79v204l65 -10l16 -11
l-16 -10v-173h46l33 27l59 -49l-27 -16h-1l-1 -96v-111l2 -96l4 -84l6 -70l8 -57l3 -16l17 73h11l-10 -129l4 -6l-4 1l22 -10l9 -22l-9 -23l-23 -10zM225 312h-123v-183h123v183zM228 516l54 -48v-21h-237v21h139zM228 656l54 -48v-22h-237v22h139zM298 629v22h135v140h-105
v21h105v156l64 -11l17 -10l-17 -10v-125h29l45 48l53 -48v-21h-127v-140h56l44 48l54 -48v-22h-353zM266 807l53 -49v-21h-291v21h194zM228 947l54 -49v-21h-237v21h139z" />
  </g>

</svg>
