<?xml version="1.0" standalone="no"?>
<!DOCTYPE svg PUBLIC "-//W3C//DTD SVG 1.1//EN" "http://www.w3.org/Graphics/SVG/1.1/DTD/svg11.dtd" >
<svg xmlns="http://www.w3.org/2000/svg" xmlns:xlink="http://www.w3.org/1999/xlink" version="1.1" viewBox="0 -36 256 256">
  <g transform="matrix(1 0 0 -1 0 220)">
   <path fill="currentColor"
d="M135 229l21 -13l-10 -3q-19 -27 -40 -43l-3 3q23 29 32 56zM203 192l15 -18l-10 -1q-54 -37 -115 -45v6q69 16 110 58zM178 228v-26q0 -13 1 -25l-16 -7q1 19 1 38t-1 38l23 -10zM238.5 187q-4.5 -11 -14.5 5t-32 29l2 5q31 -10 40 -19t4.5 -20zM155 122l-6 -10h73l10 12
l16 -19h-41q-12 -31 -26 -48q37 -11 45.5 -18.5t9.5 -14.5t-2.5 -10.5t-15.5 8.5t-44 25q-37 -33 -99 -39v4q54 12 84 40q-22 7 -50 14q10 18 21 39h-32l-8 -2l-12 9h55q5 12 10 27l20 -13zM168 61q14 18 24 44h-46l-19 -34zM26 91l-14 18q12 3 40 18v50h-20l-8 -1l-8 8h36
q0 38 -1 61l23 -12l-8 -6v-43h12l11 11l15 -18h-38v-43l33 17l2 -5l-35 -24v-78q1 -25 -19 -33q1 14 -26 21v5q19 -3 25.5 -2t5.5 14v63q-18 -12 -26 -21z" />
  </g>

</svg>
