<?xml version="1.0" standalone="no"?>
<!DOCTYPE svg PUBLIC "-//W3C//DTD SVG 1.1//EN" "http://www.w3.org/Graphics/SVG/1.1/DTD/svg11.dtd" >
<svg xmlns="http://www.w3.org/2000/svg" xmlns:xlink="http://www.w3.org/1999/xlink" version="1.1" viewBox="0 -205 1024 1024">
  <g transform="matrix(1 0 0 -1 0 819)">
   <path fill="currentColor"
d="M42 864h324v118l84 -30q18 -7 0 -16l-32 -14v-58h218v114l82 -30q19 -7 2 -16l-32 -14v-54h184l42 54l70 -64q3 -3 4 -6q1 -10 -12 -10h-288v-12l4 -38q1 -15 -18 -26q-21 -12 -42 -12l4 64v24h-218v-26l4 -32q0 -15 -20 -26q-22 -12 -40 -12l4 72v24h-240q-24 0 -60 -8
l-24 34v0v0zM180 428l68 -48h550l30 44l62 -50q9 -7 10 -14q1 -6 -34 -26v-217l4 -70q1 -12 -16 -24q-18 -9 -42 -10v66h-576v-38q0 -14 -24 -26t-36 -10l4 102v321v0v0zM236 107h576v115h-576v-115v0v0zM236 250h576v102h-576v-102v0v0zM256 774l68 -48h394l34 40l58 -46
q9 -7 10 -14q1 -6 -34 -26v-134l4 -80q1 -12 -16 -24q-18 -12 -42 -12v42h-420v-18q0 -13 -24 -26t-36 -10l4 106v250v0v0zM312 500h420v90h-420v-90v0v0zM312 618h420v80h-420v-80v0v0z" />
  </g>

</svg>
