<?xml version="1.0" standalone="no"?>
<!DOCTYPE svg PUBLIC "-//W3C//DTD SVG 1.1//EN" "http://www.w3.org/Graphics/SVG/1.1/DTD/svg11.dtd" >
<svg xmlns="http://www.w3.org/2000/svg" xmlns:xlink="http://www.w3.org/1999/xlink" version="1.1" viewBox="0 -205 1024 1024">
  <g transform="matrix(1 0 0 -1 0 819)">
   <path fill="currentColor"
d="M376 980l84 -32q6 -2 4 -10q0 -3 -36 -20v-34h176v98l80 -32q6 -2 6 -10q0 -3 -36 -20v-36h216l40 50l64 -60q3 -3 4 -8q-1 -7 -16 -8h-308v-34q-1 -14 -20 -22q-21 -6 -30 -6v62h-176v-34q-3 -14 -24 -22q-7 -6 -28 -6v62h-238q-21 0 -68 -8l-20 34h326v96v0v0zM240 822
l60 -38h430l28 32l62 -42q6 -6 4 -6q-1 -6 -28 -24v-82l4 -70q-1 -17 -16 -28q-12 -9 -42 -12v34h-450v-10q0 -16 -20 -28q-18 -10 -36 -10l4 120v164v0v0zM292 614h450v56h-450v-56v0v0zM292 698h450v58h-450v-58v0v0zM46 512h310q18 20 58 70l58 -20q7 0 8 -6q9 -6 0 -12
q-30 -7 -36 -8q-4 0 -22 -24h438l44 50l62 -56q3 -4 4 -10q-1 -10 -16 -10h-274q39 -36 78 -62q35 -25 92 -44q53 -19 158 -26v-20q-33 -1 -54 -10q-19 -9 -34 -32q-72 27 -114 54q-43 27 -82 60q-39 32 -72 80h-256q-90 -84 -156 -126q-63 -42 -188 -98l-8 16q88 46 158 98
q69 52 130 110h-202q-20 0 -58 -8l-26 34v0v0zM100 174h474l36 48l58 -50q3 -3 10 -12q0 -13 -12 -10h-482q-21 0 -66 -6l-18 30v0v0zM644 438l52 -40q8 -6 8 -14q0 -3 -32 -18l-10 -100h108l34 42q66 -48 66 -56q-1 -6 -34 -26q-7 -39 -10 -84q-3 -43 -26 -71
q-21 -28 -80 -48q-9 29 -32 42q-24 13 -84 28l4 18q102 -18 126 -16q22 3 32 20q9 16 12 39t10 88h-422l-30 -28l-50 42l26 20q11 44 14 86l66 -28q4 -3 2 -6q-1 -3 -4 -6q-21 -6 -24 -8l-10 -48h258l12 116h-248q-18 0 -48 -8l-18 34h306l26 30v0v0z" />
  </g>

</svg>
