<?xml version="1.0" standalone="no"?>
<!DOCTYPE svg PUBLIC "-//W3C//DTD SVG 1.1//EN" "http://www.w3.org/Graphics/SVG/1.1/DTD/svg11.dtd" >
<svg xmlns="http://www.w3.org/2000/svg" xmlns:xlink="http://www.w3.org/1999/xlink" version="1.1" viewBox="0 -205 1024 1024">
  <g transform="matrix(1 0 0 -1 0 819)">
   <path fill="currentColor"
d="M630 988q80 -29 82 -34v-4v-4q-1 -3 -32 -18v-200h76v260q69 -24 76 -30q6 -5 4 -10q-3 -3 -30 -18v-202h82l36 44q57 -57 58 -60q0 -10 -18 -10h-420q-21 0 -44 -8l-16 34h146v260v0v0zM818 618q-21 -24 -50 -66h106l36 42q60 -54 60 -60q0 -7 -12 -8h-224v-100h94
l36 40q57 -51 58 -54q2 -12 -10 -12h-182q-4 -69 -10 -108h184l36 50l56 -56q3 -3 4 -8q0 -12 -12 -12h-244q32 -63 76 -104q45 -38 90 -57t100 -20v-20q-46 0 -58 -12q-13 -8 -34 -28q-90 58 -134 117q-43 57 -62 124h-10q-29 -93 -112 -157q-84 -64 -210 -96l-4 14
q101 42 176 102q72 55 102 137h-116q-21 0 -68 -8l-16 34h208q9 36 12 108h-92q-19 0 -68 -8l-22 34h184v100h-130q-21 0 -50 -8l-22 34h258q39 81 58 138q63 -24 66 -30q4 -5 0 -10q-5 -3 -16 -6q-12 -1 -32 -26v0v0zM562 680l10 10q41 -24 62 -42q20 -15 28 -36
q6 -19 -2 -34q-7 -16 -26 -14q-17 -1 -22 26q-6 24 -14 42q-9 15 -36 48v0v0zM480 900l10 10q36 -17 64 -40q27 -21 36 -42q6 -21 -2 -38q-9 -19 -26 -16q-18 0 -20 24q-3 23 -20 50q-15 24 -42 52v0v0zM818 762q51 92 88 166l58 -36q8 -7 -4 -14q-23 -3 -34 -14
q-12 -11 -36 -40q-23 -30 -58 -68l-14 6v0v0zM50 912h316l34 42l54 -52q3 -3 4 -8q0 -7 -14 -8h-116v-144h50l26 38l60 -44q3 -3 4 -6q-1 -7 -28 -28v-516l4 -79q-1 -14 -16 -26q-16 -10 -38 -14v68h-256v-48q0 -13 -18 -26q-18 -11 -36 -14l4 93v640l52 -38h52v144h-50
q-22 0 -70 -8l-18 34v0v0zM134 312v-150h256v150h-256v0v0zM134 394v-54h256v100h-36q-7 0 -28 4q-18 3 -30 18q-10 12 -10 34v218h-56q3 -88 -18 -172q-21 -85 -78 -148v0v0v0zM390 714h-62v-206q0 -18 10 -24q8 -6 16 -6h36v236v0v0zM230 742h56v144h-56v-144v0v0z
M188 714h-54v-290q24 50 40 122t14 168v0v0z" />
  </g>

</svg>
