<?xml version="1.0" standalone="no"?>
<!DOCTYPE svg PUBLIC "-//W3C//DTD SVG 1.1//EN" "http://www.w3.org/Graphics/SVG/1.1/DTD/svg11.dtd" >
<svg xmlns="http://www.w3.org/2000/svg" xmlns:xlink="http://www.w3.org/1999/xlink" version="1.1" viewBox="0 -200 1000 1000">
  <g transform="matrix(1 0 0 -1 0 800)">
   <path fill="currentColor"
d="M264 870q-1 -19 -8 -32q-8 -15 -17 -21q-12 -7 -23 -7q-18 0 -24 13q-2 3 -2 11q0 9 5 15q6 8 14 13q12 5 22 22q10 16 10 32q0 3 -1 4v4l16 1l4 -14q2 -10 2 -14h294q-13 9 -35 21q-17 9 -39 16l3 14h10q27 0 47 -4q20 -3 39 -13q7 -4 12 -11q4 -5 4 -13q0 -6 -2 -10
h248l31 32l58 -58q-5 -5 -13 -5l-20 -3q-9 -11 -30 -25q-27 -17 -35 -21l-13 7l11 21l11 25h-365l42 -30q-6 -6 -15 -6q-4 0 -14 2q-30 -10 -40 -12l-46 -9l56 -33q-2 -5 -8 -8q-5 -4 -16 -4q-7 0 -9 1q-17 -25 -44 -54l39 3q19 34 23 44l56 -37q-2 -2 -9 -8q-6 -3 -15 -3
q-6 0 -10 2l-14 -18q-10 -14 -16 -20l7 2q28 -19 36 -35q10 -16 10 -30q0 -12 -6 -20q-6 -7 -15 -7q-8 0 -16 8v11q0 8 -2 11l-80 -28l-3 -5q-1 0 -3 -3l31 -12h37l17 14l9 -7l10 -8l9 -9q-1 -13 -19 -13h-70v-20h38l16 13l10 -6l10 -8l10 -8q-3 -14 -20 -14h-64v-18h37
l16 13q6 -3 10 -7q2 -1 4 -3t6 -4l10 -9q-3 -13 -20 -13h-63v-18h50l16 15q4 -2 6 -4t4 -3l9 -9l10 -9q-2 -14 -20 -14h-18l40 -24q-6 -10 -21 -10q-8 0 -10 1l-8 -9q-4 -4 -11 -7q10 -12 17 -17q9 -9 21 -15v-5q4 6 9 20q5 11 5 24v3q-1 0 -1 2l18 -1q3 -16 3 -28
q0 -25 -8 -39q-2 -3 -10 -9q-6 -4 -13 -4q-4 0 -8 2q-4 1 -4 10t4 14q-13 -2 -18 -5t-10 -14q-12 9 -24 32q-7 -9 -17 -17l-23 -21l-3 -2q-3 -6 -10 -12l-31 37q14 9 16 14q3 5 3 12v68h-15l-6 24h21v142l8 -3l-22 38l4 2q5 1 9 3q14 11 27 27q14 17 27 36q-3 -1 -20 -7
l-20 -6q-4 -6 -10 -7l-20 44l5 2l4 1l4 1q6 5 16 18l14 25q2 5 5.5 11.5t6.5 15.5q3 7 8 24q-28 -4 -56 -6q-18 -2 -51 -2h-12l-2 17q38 4 89 17q47 12 88 30h-191zM98 917q48 -36 66 -69t18 -54q0 -14 -6 -23q-4 -8 -15 -8q-10 0 -18 8q-3 16 -9 35q-9 28 -14 38
q-5 12 -17 36l-18 32zM610 865q55 -1 100 -8q44 -8 64 -17q22 -8 34 -20q10 -12 10 -19q0 -15 -20 -15h-5q-8 5 -32 16q-25 10 -43 16q-4 2 -53 17q-22 6 -58 13zM481 796h62q-1 11 -6 23l-9 18l10 6q24 -8 33 -17q10 -9 10 -18q0 -7 -4 -12h18l18 18l11 -9l11 -9
q8 -6 12 -10q-3 -14 -20 -14h-140zM528 392q11 -11 14 -23q3 -13 3 -23q0 -3 -1 -4l-1 -4q0 -4 4 -4h3l17 -1q4 -1 13 -1q11 0 16 5q3 3 3 9l4 21q-3 -3 -8 -3q-7 0 -13 6l-4 16q-3 8 -7 14l13 5q14 -8 20 -17l1 24h-81v-11q0 -2 -9 -5t-21 -3h-5v194l9 -4v106l42 -20h37
l20 18l41 -32q-8 -8 -19 -9v-54q-2 -2 -13 -5q-11 -4 -19 -4h-5v17h-47v-7q0 -2 -10 -6q-7 -5 -22 -5l29 -12h66l16 14q6 -3 10 -7l10 -8l9 -9q-3 -13 -20 -13h-42v-21h13l16 14l10 -7l9 -8l10 -9q-3 -14 -20 -14h-38v-20h13l16 13l10 -7l9 -8l10 -8q-3 -11 -18 -14l19 -15
l-1 4h17v140l-7 -4l-19 41l4 2l4 2l4 1q15 11 28 29q17 22 25 39l-21 -9q-7 -2 -12 -4t-10 -3q-4 -6 -12 -9l-19 44l4 2l4 1l4 1q7 5 16 19q10 18 14 28q7 12 12 28l8 24l60 -38q-4 -6 -8 -8q-6 -3 -15 -3t-11 1l-18 -26l-21 -26l20 2q6 0 22 2l12 23l8 20l56 -37
q-2 -4 -9 -7q-4 -4 -13 -4q-1 0 -11 2l-14 -20l-16 -20l6 2q29 -18 40 -36q11 -19 11 -32q0 -12 -6 -18q-6 -7 -14 -7t-16 8q0 10 -3 22l-85 -31l42 -16h37l16 14q4 -2 6 -4t4 -3l9 -8l10 -9q-3 -13 -19 -13h-71v-20h38l17 13l10 -6l9 -8l10 -8q-5 -14 -19 -14h-65v-18h38
l16 13l10 -7q2 -1 4 -3t6 -4l9 -9q-4 -13 -19 -13h-64v-18h55l16 15l9 -7l9 -8l9 -8v315l57 -8q-1 -12 -18 -17v-340q0 -4 -9 -10q-10 -6 -22 -6h-8v58q-5 -8 -18 -8h-23l40 -24q-7 -10 -22 -10q-7 0 -10 1q-1 -2 -5 -6l-7 -6q9 -12 23 -23t33 -18l-3 -11q-15 -2 -20 -4
q-7 -3 -11 -16q-29 18 -42 50q-14 31 -22 67h-12v-74q5 1 15 5l15 6l6 -13l-7 -7l-13 -11l-15 -13l-15 -13q-1 -4 -5 -8l-5 -4l-29 38q10 8 15 14q3 5 3 12v57q-6 -2 -9 -2q-3 -1 -10 -1q0 -21 -2 -45q0 -13 -4 -29q-1 -6 -6 -19q-5 -8 -11 -12q-10 -7 -21 -8q-8 -1 -22 -1
q0 9 -8 17q-6 3 -10 4t-12 1v15q-5 -5 -12 -5t-14 7q1 4 1 11v11v17l-2 15zM892 348q0 -30 -7 -45q-8 -15 -38 -17q0 3 -2 15q-1 8 -6 12q-2 6 -9 9l-16 4v16q4 0 12 -2h9h8q10 0 10 12v456l66 -8q-3 -14 -27 -19v-433zM195 273q18 52 22 103q5 56 6 112q-6 -2 -11 -2
q-8 0 -13 -1q-2 -38 -5 -57q-3 -29 -9 -61q-6 -30 -15 -61q-7 -25 -23 -56q7 -2 15 -10q23 -30 56 -49q33 -17 78 -24q42 -8 107 -10q41 -1 145 -1h14h91h89l90 2q28 0 94 2v-12q-33 -6 -39 -34h-340q-69 0 -155 2q-60 3 -108 14q-42 10 -77 31q-29 19 -56 56q-6 7 -12 7
q-7 0 -10 -9q-5 -14 -10 -46q-3 -28 -3 -48q2 -4 2 -8t-3 -7l-47 39l13 26q10 20 16 30q8 16 16 28q8 13 13 18q10 28 14 55q8 39 10 62q5 32 6 63q2 42 2 60h-18l-22 -20l-47 40l14 7q5 3 9 4t7 2q6 13 13 38l13 43l12 42l10 39h-61l-8 27h64l27 27l52 -45v100l1 16l47 -25
h16l18 23l48 -37q-6 -8 -23 -11v-408q0 -9 -4 -18q-5 -11 -10 -19q-7 -10 -14 -16q-7 -7 -17 -7l-2 14q-1 8 -6 12q-8 8 -29 13v15l14 -2l11 -1h9q10 0 10 13v143h-32q-1 -49 -12 -121q-10 -61 -39 -112zM509 731l-6 23h74l17 17l10 -8l9 -9l9 -9q-2 -14 -18 -14h-95z
M261 756v-101h31v101h-31zM595 728l9 -8l10 -8l9 -10q-1 -12 -19 -12h-94l-6 22h74zM149 513l31 30l43 -39v180q-11 -8 -32 -11q-7 -24 -23 -77l-26 -83h7zM421 636l27 3q-6 21 -14 36l-38 -43q20 3 25 4zM710 634l28 3l-8 20l-9 17l-18 -22l-19 -21zM535 646v-23h47v23h-47
zM292 521v108h-31v-108h31zM524 547v-21h24v21h-24zM548 502h-24v-20h24v20zM524 437h23l1 21h-24v-21zM596 437l18 21h-34v-21h16zM389 349q9 2 12 4q8 2 12 4q-7 14 -12 32q-4 21 -5 34h-7v-74zM413 423l5 -16q4 -10 7 -14q9 14 15 30h-27zM722 423q4 -12 9 -22q4 5 5 11
q1 2 4 11h-18zM553 398q14 -10 20 -19q5 -7 5 -16q0 -8 -4 -11q-3 -4 -9 -4q-7 0 -15 6q0 11 -3 21q-3 11 -6 19zM464 286q-3 -17 -26 -20v-34q0 -7 6 -9q4 -2 34 -2h112h66q26 0 38 2q14 0 18 6q5 8 9 21q5 12 10 31h11l3 -52q12 -4 18 -8q5 -4 5 -11q0 -8 -6 -14
q-5 -4 -25 -9q-24 -4 -54 -5l-94 -1h-115q-21 0 -41 2q-17 2 -24 7q-9 5 -12 13q-2 12 -2 22v70zM761 294q37 -10 56 -19q23 -10 37 -21q15 -14 20 -23q6 -10 6 -20t-6 -16t-15 -6q-6 0 -16 5q-8 14 -16 23q-9 12 -24 25q-13 12 -26 23q-9 8 -25 20zM524 293h14q20 0 44 -4
q18 -4 30 -11q11 -7 16 -15q5 -6 5 -15t-7 -16q-6 -6 -16 -6q-4 0 -5 1q-3 0 -5 1q-10 10 -39 30q-20 13 -45 25zM357 287q1 -2 1 -7v-7q0 -23 -13 -46q-14 -20 -35 -30q-9 -4 -19 -4q-11 0 -19 6q-7 7 -7 15q0 5 5 13q5 6 16 11l15 7l16 11q8 5 15 14q7 8 10 18z" />
  </g>

</svg>
