<?xml version="1.0" standalone="no"?>
<!DOCTYPE svg PUBLIC "-//W3C//DTD SVG 1.1//EN" "http://www.w3.org/Graphics/SVG/1.1/DTD/svg11.dtd" >
<svg xmlns="http://www.w3.org/2000/svg" xmlns:xlink="http://www.w3.org/1999/xlink" version="1.1" viewBox="0 -205 1024 1024">
  <g transform="matrix(1 0 0 -1 0 819)">
   <path fill="currentColor"
d="M600 674h226v294l78 -34q10 -6 8 -12q-3 -3 -36 -18v-230h26l34 50l60 -60q3 -3 4 -8q1 -9 -10 -8h-114v-523q0 -36 -20 -64q-22 -27 -64 -36q-4 30 -34 48q-29 18 -88 38l4 18q69 -21 100 -24q27 -3 42 6q12 8 10 49v488h-154q-21 -1 -48 -10l-24 36v0v0zM622 544l12 10
q56 -51 80 -84q21 -33 28 -60q4 -27 -6 -44q-12 -19 -30 -16q-19 0 -22 22q0 18 -6 58q-6 36 -56 114v0v0zM652 930q15 -9 -6 -18q-30 -6 -44 -36q-39 -84 -80 -158l52 -18q11 -4 8 -10q0 -5 -26 -22v-504l4 -87q1 -16 -18 -32q-19 -15 -40 -16l4 145v516
q-60 -100 -114 -166l-14 10q84 144 130 252q46 107 68 178l76 -34v0v0zM340 930l58 -40q10 -7 8 -14q-1 -4 -38 -28l-40 -366h12l26 28q53 -42 56 -48q3 -5 -2 -10l-28 -18q-15 -177 -24 -240q-9 -59 -36 -95q-24 -35 -84 -62q-13 34 -38 46q-24 13 -90 34l4 16
q61 -11 104 -16q41 -6 62 14q18 20 28 69q9 48 28 256h-170l-30 -32l-56 46l34 26q29 253 38 320l72 -32q11 -9 -4 -14l-30 -16l-32 -272h114l40 388h-206q-25 1 -46 -6l-24 32h260l34 34v0v0zM296 370l4 -18q-142 -53 -172 -70q-30 -16 -50 -38l-46 54l264 72v0v0z" />
  </g>

</svg>
