<?xml version="1.0" standalone="no"?>
<!DOCTYPE svg PUBLIC "-//W3C//DTD SVG 1.1//EN" "http://www.w3.org/Graphics/SVG/1.1/DTD/svg11.dtd" >
<svg xmlns="http://www.w3.org/2000/svg" xmlns:xlink="http://www.w3.org/1999/xlink" version="1.1" viewBox="0 -36 256 256">
  <g transform="matrix(1 0 0 -1 0 220)">
   <path fill="currentColor"
d="M45 96.5q-2 -13.5 -10 -34t-23 -37.5l-3 2q15 29 20.5 56.5t6 66t-0.5 83.5l15 -10h71l10 10l12 -11l-9 -7q0 -31 1 -47l-13 -6v10h-73q-2 -62 -4 -75.5zM49 179h73v37h-73v-37zM125 46q-5 7 -13 16l4 2q18 -11 28 -27q-11 -14 -13 -8t-4 11q-33 -9 -52.5 -14t-24.5 -9
l-12 14q13 1 50 8v38h-20v-13l-14 -5q1 15 1 41t-1 37l15 -4h19q0 22 -1 35l24 -10l-10 -5v-20h19l10 5l14 -9l-9 -4q0 -42 1 -47l-14 -6v6h-21v-36zM68 84h20v42h-20v-42zM101 85h21v41h-21v-41zM209 219l13 11l13 -18h-43v-75h15l12 11l14 -18h-41v-97h30l13 11l12 -18
h-84q-10 0 -19 -2l-9 9h44v97h-4q-10 0 -19 -2l-9 9h32v75h-8q-10 -1 -19 -3l-9 10h66zM201 106q21 -17 25 -26t-1.5 -18t-9.5 7t-16 33z" />
  </g>

</svg>
