<?xml version="1.0" standalone="no"?>
<!DOCTYPE svg PUBLIC "-//W3C//DTD SVG 1.1//EN" "http://www.w3.org/Graphics/SVG/1.1/DTD/svg11.dtd" >
<svg xmlns="http://www.w3.org/2000/svg" xmlns:xlink="http://www.w3.org/1999/xlink" version="1.1" viewBox="0 -205 1024 1024">
  <g transform="matrix(1 0 0 -1 0 819)">
   <path fill="currentColor"
d="M44 838h294v126l80 -28q6 -1 4 -8q0 -3 -32 -24v-66h238v126l84 -34q6 -3 6 -8q0 -2 -36 -22v-62h180l36 54l70 -62q3 -4 4 -8q1 -12 -16 -12h-274v-36l2 -48q0 -15 -24 -24q-24 -10 -36 -8l4 76v40h-238v-32l4 -52q0 -15 -24 -24q-24 -10 -36 -8l4 72v44h-210
q-21 0 -68 -8l-16 36v0v0zM568 744q10 -6 0 -12q0 -3 -20 -8l-12 -6q63 -74 144 -124q81 -51 150 -68q68 -18 160 -20v-18q-45 -4 -62 -14q-15 -9 -36 -32q-91 30 -146 60q-53 30 -112 78q-58 47 -118 128q-79 -78 -142 -134q-63 -54 -152 -114q-87 -57 -180 -102l-6 14
q144 93 198 138q54 44 118 104q62 57 134 156l82 -26v0v0zM272 488l54 -22h312l32 36q74 -54 74 -60q1 -4 -4 -8q-6 -3 -36 -20q-6 -126 -18 -156q-12 -28 -38 -46q-27 -16 -62 -26q-3 27 -24 42q-21 13 -92 38l4 20q46 -9 74 -18q26 -6 50 -6t36 22q12 18 16 154h-326v-319
q0 -30 12 -34q12 -2 22 -2h384q55 4 68 20q12 17 16 55q3 36 10 130h18l10 -108q3 -42 40 -57q-15 -38 -44 -62q-27 -20 -102 -26h-402q-27 0 -48 8q-18 6 -30 30q-6 16 -6 52v363v0v0z" />
  </g>

</svg>
