<?xml version="1.0" standalone="no"?>
<!DOCTYPE svg PUBLIC "-//W3C//DTD SVG 1.1//EN" "http://www.w3.org/Graphics/SVG/1.1/DTD/svg11.dtd" >
<svg xmlns="http://www.w3.org/2000/svg" xmlns:xlink="http://www.w3.org/1999/xlink" version="1.1" viewBox="0 -205 1024 1024">
  <g transform="matrix(1 0 0 -1 0 819)">
   <path fill="currentColor"
d="M394 900h494l38 50l58 -60q6 -3 6 -8q0 -9 -18 -8h-120v-588l56 10l30 48l60 -44q6 -3 6 -6q9 -10 -20 -16l-132 -18v-125l4 -80q3 -15 -20 -30q-22 -15 -40 -18l6 128v121l-356 -40q-18 -7 -36 -16l-26 34l126 16v624h-44q-9 -1 -50 -10l-22 36v0v0zM560 256l242 26v168
h-242v-194v0v0zM560 474h242v184h-242v-184v0v0zM560 684h242v190h-242v-190v0v0zM104 944l60 -44h126l30 40l62 -42q9 -10 -2 -22l-22 -18v-584l4 -130q0 -10 -18 -25t-38 -18v75h-152v-71q0 -12 -20 -28q-22 -13 -34 -14l4 189v692v0v0zM154 202h152v210h-152v-210v0v0z
M154 438h152v200h-152v-200v0v0zM154 664h152v210h-152v-210v0v0z" />
  </g>

</svg>
