<?xml version="1.0" standalone="no"?>
<!DOCTYPE svg PUBLIC "-//W3C//DTD SVG 1.1//EN" "http://www.w3.org/Graphics/SVG/1.1/DTD/svg11.dtd" >
<svg xmlns="http://www.w3.org/2000/svg" xmlns:xlink="http://www.w3.org/1999/xlink" version="1.1" viewBox="0 -36 256 256">
  <g transform="matrix(1 0 0 -1 0 220)">
   <path fill="currentColor"
d="M105 91h16v23h-16v-23zM133.5 54.5q4.5 -6.5 1.5 -15.5t-9 2t-21 25v-25q0 -17 1 -26l-12 -7v76h-16v-72l-12 -5q1 30 1 39v19q-15 -27 -43 -43l-2 3q29 25 41 59l-11 -3l-10 10h25v23h-5l-11 -3l-10 10h26v22v-1h-3l-11 -3l-10 10h24v20h-26q0 -51 -1.5 -68t-7.5 -40.5
t-21 -45.5l-3 2q10 22 15 51.5t5 74.5t-1 78l14 -7h43q-2 15 -16 28l2 3q25 -11 26.5 -17.5t-5.5 -13.5h29l10 11l18 -18h-40l12 -6q-8 -7 -18 -25h19l10 11l16 -18h-42v-20h15l7 9l12 -12l-7 -5v-20l10 11l12 -16h-22q0 -21 1 -31l-12 -6v5h-16v-12q24 -11 28.5 -17.5z
M60 207q9 -5 14 -9t5.5 -9t-4 -9.5t-6.5 3.5t-10 21zM41 176h56q5 13 8 31h-64v-31zM78 149h16v20h-16v-20zM105 121h16v21h-16v-21zM78 91h16v23h-16v-23zM78 121h16v21h-16v-21zM175 214q0 14 -1 31l21 -8l-7 -6v-29h22l10 11l18 -18h-50v-42h19l8 10l15 -13l-8 -5
q-8 -48 -28 -81q21 -28 53 -39v-4q-11 0 -16 -10q-23 12 -46 44q-25 -32 -69 -46l-1 4q42 22 62 52q-16 32 -23 81l-6 -3l-10 10h37v61zM186 75q16 30 22 71h-48q8 -43 26 -71z" />
  </g>

</svg>
