<?xml version="1.0" standalone="no"?>
<!DOCTYPE svg PUBLIC "-//W3C//DTD SVG 1.1//EN" "http://www.w3.org/Graphics/SVG/1.1/DTD/svg11.dtd" >
<svg xmlns="http://www.w3.org/2000/svg" xmlns:xlink="http://www.w3.org/1999/xlink" version="1.1" viewBox="0 -36 256 256">
  <g transform="matrix(1 0 0 -1 0 220)">
   <path fill="currentColor"
d="M111 185l-10 1q-52 -24 -83 -30l-1 4q50 18 78 43zM212 181.5q18 -6.5 17 -19.5t-11.5 -3.5t-25.5 16.5t-47 16l1 5q48 -8 66 -14.5zM86 41v34h-25q1 -19 -7.5 -36t-38.5 -32l-2 3q21 16 28 30t6 35h-7l-11 -2l-9 9h66v28h-34l-9 -5l-12 9l6 4q0 23 -1 39l23 -7l-8 -6
v-27h35v27q0 10 -1 28l24 -9l-9 -6v-140l-15 -7q1 24 1 31zM138 105h64v40h-64v-40zM138 60h64v38h-64v-38zM214 25l12 11l15 -18h-113q-13 1 -17 -2l-11 9h114zM124 97.5q0 46.5 -1 62.5l18 -8h57l8 9l17 -15l-8 -6v-67q0 -12 1 -27l-14 -5v12h-64v-12l-15 -5q1 15 1 61.5z
M223 207h-184q0 -16 -8.5 -20.5t-14 0t5 11.5t12.5 28h5v-12h86q-1 9 -5.5 15.5t-13.5 14.5l2 3q23 -8 29.5 -15t-4.5 -18h88l8 9l17 -16q-13 -2 -31 -19l-3 2z" />
  </g>

</svg>
