<?xml version="1.0" standalone="no"?>
<!DOCTYPE svg PUBLIC "-//W3C//DTD SVG 1.1//EN" "http://www.w3.org/Graphics/SVG/1.1/DTD/svg11.dtd" >
<svg xmlns="http://www.w3.org/2000/svg" xmlns:xlink="http://www.w3.org/1999/xlink" version="1.1" viewBox="0 -36 256 256">
  <g transform="matrix(1 0 0 -1 0 220)">
   <path fill="currentColor"
d="M196 52q1 -18 9.5 -19t15 0.5t8 11t2.5 32.5h5q0 -20 2 -32t8 -15q-4 -11 -24 -11h-13q-25 -2 -26 28v150q0 10 -1 39l23 -12l-9 -7v-165zM97 100h52v23h-52v-23zM97 68h52v25h-52v-25zM82 14q1 22 1 67.5t-1 54.5l18 -6h47l8 8l16 -13l-8 -5v-81q0 -11 -3.5 -16.5
t-15.5 -10.5q-1 13 -29 18v4q20 -2 27 -2t7 10v19h-52v-41l-15 -6v0zM63 228l-8 -8v-112q0 -38 -8.5 -58t-37.5 -41l-2 3q19 19 25.5 36t8 34t1.5 78t-1 77zM139 235l-8 -7v-26h-14q0 22 -1 42zM152 207l15 9l16 -16h-69l15 -13q-8 -2 -16.5 -10t-20.5 -21q30 2 59 4
q-8 15 -14 24l3 2q13 -10 22.5 -19t9 -15.5t-5 -11.5t-7.5 0t-6 15q-38 -5 -52.5 -8t-19.5 -7l-8 14q11 4 21 18t16 28h-18q-13 0 -22 -3l-10 10h92z" />
  </g>

</svg>
