<?xml version="1.0" standalone="no"?>
<!DOCTYPE svg PUBLIC "-//W3C//DTD SVG 1.1//EN" "http://www.w3.org/Graphics/SVG/1.1/DTD/svg11.dtd" >
<svg xmlns="http://www.w3.org/2000/svg" xmlns:xlink="http://www.w3.org/1999/xlink" version="1.1" viewBox="0 -205 1024 1024">
  <g transform="matrix(1 0 0 -1 0 819)">
   <path fill="currentColor"
d="M528 628h214l34 42l56 -48q3 -4 4 -8q0 -12 -14 -12h-114v-150h124l38 50l56 -56q6 -3 6 -8q0 -12 -14 -12h-210v-317q4 -47 -22 -68q-28 -21 -58 -28q-6 39 -36 50q-29 13 -82 28l6 18l82 -14q61 -10 60 28v303h-144q-30 -1 -54 -10l-22 36h220v150h-54q-36 0 -60 -8
l-16 34v0v0zM758 340q62 -43 118 -100q56 -54 62 -90q6 -34 -8 -49q-15 -15 -30 -10q-14 5 -22 34q-6 27 -32 75q-24 46 -98 128l10 12v0v0zM610 340q10 -9 6 -14q-3 -3 -14 -6q-12 -1 -26 -16t-64 -92q-47 -76 -118 -153l-14 12q73 98 164 299l66 -30v0v0zM728 956
q7 -3 8 -6q3 -9 -12 -12l-18 -6q33 -64 66 -118q32 -54 94 -104q60 -48 136 -60v-20q-72 1 -92 -34q-51 36 -90 84q-40 48 -76 112q-36 63 -54 126q-70 -135 -130 -224q-60 -87 -134 -156l-12 12q61 73 122 182q60 109 114 254l78 -30v0v0zM352 682l50 -38q18 -6 4 -20
l-20 -16v-200l4 -62q0 -15 -18 -26q-17 -9 -34 -12v32h-164v-194l158 76q-25 38 -56 68l10 14q57 -30 90 -60q33 -31 42 -52q8 -20 2 -40q-7 -19 -26 -19q-18 0 -24 15l-8 24q-4 6 -16 30q-132 -78 -152 -93q-19 -16 -56 -56l-56 56q36 22 42 35v500q-55 -84 -98 -126
l-14 12q75 113 126 218q50 103 94 236l68 -30q12 -8 4 -16q-22 -3 -34 -20q86 -45 118 -68q30 -25 40 -46q8 -21 2 -42q-6 -18 -24 -20q-17 -1 -28 20q-11 18 -28 52q-18 31 -90 86q-30 -60 -54 -110q-23 -48 -64 -114l28 -26h158l24 32v0v0zM174 622v-114h164v114h-164v0v0
zM174 482v-116h164v116h-164v0v0zM220 800l10 10q48 -31 66 -58q15 -28 10 -50q-7 -20 -20 -22q-12 -3 -20 4q-7 5 -10 22q-1 17 -8 40q-5 24 -28 54v0v0z" />
  </g>

</svg>
