<?xml version="1.0" standalone="no"?>
<!DOCTYPE svg PUBLIC "-//W3C//DTD SVG 1.1//EN" "http://www.w3.org/Graphics/SVG/1.1/DTD/svg11.dtd" >
<svg xmlns="http://www.w3.org/2000/svg" xmlns:xlink="http://www.w3.org/1999/xlink" version="1.1" viewBox="0 -36 256 256">
  <g transform="matrix(1 0 0 -1 0 220)">
   <path fill="currentColor"
d="M87 77q0 -23 1 -37l-13 -6v15h-40v-17l-13 -6q1 20 1 30v139q0 19 -1 35l13 -7h40l6 8l13 -12l-7 -7v-135zM35 167h40v49h-40v-49zM35 112h40v48h-40v-48zM35 56h40v49h-40v-49zM152 186q12 -4 19.5 -9.5t1.5 -15t-9 -1t-14 23.5zM106.5 127.5q-5.5 -7.5 -13 -3.5
t0.5 11.5t14 28.5h4v-8h112l10 10l15 -17q-7 -1 -30 -24l-2 2l11 22h-116q0 -14 -5.5 -21.5zM191 123l13 10l15 -17h-72q-11 1 -22 -4l-7 11h73zM152.5 27q5.5 0 5.5 8v51h-37q-10 0 -19 -2l-9 9h122l12 12l16 -19h-72v-56q-1 -21 -17 -24q-1 11 -22 20l1 4q14 -3 19.5 -3z
M188 69q32 -16 44 -25t7.5 -21.5t-12.5 2t-41 40.5zM117 42q-17 -15 -40 -27l-1 5q40 32 52 55l14 -15q-8 -3 -25 -18zM216 230l21 -9l-7 -7q0 -21 1 -32l-14 -5v8h-93l-7 -7l-12 13l5 4q0 28 -1 37l20 -8l-6 -6v-26h40q0 38 -1 54l21 -10l-7 -7v-37h41q0 28 -1 38z" />
  </g>

</svg>
