<?xml version="1.0" standalone="no"?>
<!DOCTYPE svg PUBLIC "-//W3C//DTD SVG 1.1//EN" "http://www.w3.org/Graphics/SVG/1.1/DTD/svg11.dtd" >
<svg xmlns="http://www.w3.org/2000/svg" xmlns:xlink="http://www.w3.org/1999/xlink" version="1.1" viewBox="0 -36 256 256">
  <g transform="matrix(1 0 0 -1 0 220)">
   <path fill="currentColor"
d="M220 168l-15 -6v8h-96v-5l-14 -5v80l14 -10h95l8 11l14 -11l-6 -6v-56zM109 203h96v20h-96v-20zM109 177h96v19h-96v-19zM140 121h51l9 9l14 -14l-8 -5q-9 -18 -28 -37q26 -19 59 -23v-4q-12 0 -20 -12q-12 4 -25 12t-25 17q-35 -22 -83 -27l-1 4q44 10 74 32
q-21 21 -38 55l3 3q20 -29 45 -48q10 6 24 31h-56q-25 -23 -51 -32l-2 3q29 20 42 35.5t20 30.5l14 -11q-5 -4 -18 -19zM128 144.5q-17 -16.5 -52 -24.5l-1 3q45 19 56 49h14q0 -11 -17 -27.5zM184.5 156.5q0.5 -5.5 4.5 -7.5t14 -2q19 1 25 3.5t13 -9.5q2 -5 -28 -4
q-45 -5 -42 24v11h14q-1 -10 -0.5 -15.5zM36 243q24 -14 29 -23t-1.5 -19.5t-11 6.5t-18.5 33zM39 54q11 25 22 52h-18l-8 -9l-13 12l9 6l22 44h-17l-11 -3l-10 10h39l9 11l13 -16l-10 -5q-6 -10 -22 -43h18l8 8l12 -14l-8 -6q-10 -20 -20 -46q26 -22 84.5 -24t109.5 6v-4
q-18 -5 -22 -17q-92 -2 -121.5 4.5t-58.5 29.5q-19 -21 -26 -37l-12 12q16 17 31 29z" />
  </g>

</svg>
