<?xml version="1.0" standalone="no"?>
<!DOCTYPE svg PUBLIC "-//W3C//DTD SVG 1.1//EN" "http://www.w3.org/Graphics/SVG/1.1/DTD/svg11.dtd" >
<svg xmlns="http://www.w3.org/2000/svg" xmlns:xlink="http://www.w3.org/1999/xlink" version="1.1" viewBox="0 -205 1024 1024">
  <g transform="matrix(1 0 0 -1 0 819)">
   <path fill="currentColor"
d="M230 733q-9 3 -6 12t16 6q165 -39 281 -76q87 48 165 114q7 8 14 3q25 -15 65 -44q8 -6 5 -9q-4 -4 -19 -1q-28 6 -76 -22q-53 -29 -108 -61l24 -8q131 -51 176 -92q25 -19 26 -39q1 -18 -3 -29q-4 -9 -11 -10q-8 -2 -15 8q-83 82 -240 147q-180 -93 -352 -137
q-13 -4 -16 6t7 13q127 35 321 138q-107 39 -254 81zM526 96q-25 -37 -50 -50q-8 -7 -12 -7q-5 0 -9 21q-9 30 -19 40q-11 14 -69 21q-16 2 -15 15t17 12q94 -14 112 -8q14 6 15 28v236h-325q-42 -1 -73 -7q-9 -3 -10 6q-5 18 -20 31q-8 7 -4 11q4 3 11 -1q38 -9 84 -9h337
q-3 60 -4 108q-3 16 7 13q57 -20 76 -30q12 -8 -3 -15q-18 -8 -22 -17q-6 -18 -6 -59h284q14 1 30 19l26 37q7 9 16 0q71 -63 70 -78q-2 -8 -15 -9h-411v-246q-2 -37 -18 -62zM312 363q41 -17 69 -34q9 -4 6 -9q-3 -4 -18 -3q-19 -1 -44 -28q-122 -124 -254 -186
q-12 -6 -16 0t5 11q170 104 240 245q5 8 12 4zM672 334q6 6 18 -1q187 -95 229 -158q16 -24 9 -44q-7 -19 -14 -27q-6 -8 -15 -7q-7 2 -11 12q-42 95 -214 213q-8 6 -2 12zM664 849q1 -18 2 -35q1 -9 -6 -13q-44 -21 -47 -20q-4 3 -1 13q3 25 4 55v19h-218v-25q1 -18 2 -45
q1 -9 -6 -13q-44 -21 -47 -20q-4 3 -1 13q3 25 4 65v25h-189q-42 -1 -73 -7q-9 -3 -10 6q-5 18 -20 31q-8 7 -4 11q4 3 11 -1q38 -9 84 -9h201v26q-1 30 -4 55q-4 14 0 18q5 3 15 -1q38 -16 62 -28q5 -3 5 -7q-2 -5 -6 -6q-15 -3 -19 -10q-4 -8 -5 -21v-26h218v30
q-1 30 -4 55q-4 14 0 18q5 3 15 -1q38 -16 62 -28q5 -3 5 -7q-2 -5 -6 -6q-15 -3 -19 -10q-4 -8 -5 -21v-30h166q14 1 30 19l26 37q7 9 16 0q71 -63 70 -78q-2 -8 -15 -9h-293v-19z" />
  </g>

</svg>
