<?xml version="1.0" standalone="no"?>
<!DOCTYPE svg PUBLIC "-//W3C//DTD SVG 1.1//EN" "http://www.w3.org/Graphics/SVG/1.1/DTD/svg11.dtd" >
<svg xmlns="http://www.w3.org/2000/svg" xmlns:xlink="http://www.w3.org/1999/xlink" version="1.1" viewBox="0 -36 256 256">
  <g transform="matrix(1 0 0 -1 0 220)">
   <path fill="currentColor"
d="M51 32h41v49h-41v-49zM112 201h-76q1 -8 -3.5 -14.5t-10 -6.5t-7.5 3t6.5 10.5t10.5 25.5h4v-11h36q-2 16 -15 31l3 4q14 -8 20 -14t3.5 -11.5t-7.5 -9.5h36l7 10l14 -17q-5 0 -12 -6t-13 -14l-3 2zM21 115l-4 3q9 13 20 39t12 36l19 -8q-7 -3 -14 -19h40l7 9l13 -15
l-8 -6q-10 -15 -21 -28q23 -14 33 -22t8.5 -19t-13 2t-36.5 31q-14 -15 -30 -27l5 -3h42l7 7l11 -13l-7 -5v-39q0 -8 1 -17l-14 -7v11h-41v-8l-14 -7q1 16 1 74q-13 -8 -28 -16l-2 5q28 16 59 52q-12 7 -26 15q-9 -13 -20 -25zM43 144q15 -6 30 -13q14 16 19 28h-41z
M136 221l13 -7h11q6 24 6 33l20 -8l-8 -5l-11 -20h38l8 11l15 -13l-7 -6v-36l1 -17l-14 -6v9h-58v-20h73l10 11l15 -18h-98v-20h76l8 9l12 -12l-7 -5q-2 -53 -4.5 -64t-8.5 -18t-14 -11q-1 14 -21 16v5q11 -1 18.5 -1t10.5 7t4.5 25.5t1.5 41.5h-76v-3l-14 -5q1 19 1 33v66
q0 13 -1 28zM208 207h-58v-20h58v20zM208 180h-58v-17h58v17zM192.5 64q1.5 -9 -1.5 -14t-6.5 -4.5t-3.5 8.5t-2.5 16.5t-5.5 17.5l2 1q16 -16 17.5 -25zM213 70.5q4 -7.5 1 -15t-7.5 -7.5t-4 7.5t-2.5 18t-6 15.5l3 2q12 -13 16 -20.5zM168 64.5q3 -9.5 -0.5 -16t-8 -6
t-3.5 10.5t-0.5 17.5t-2.5 14.5l2 2q10 -13 13 -22.5zM140 54q-3 -9 -9.5 -12t-9.5 1.5t4 12.5t9.5 15t4.5 16l4 -1q0 -23 -3 -32z" />
  </g>

</svg>
