<?xml version="1.0" standalone="no"?>
<!DOCTYPE svg PUBLIC "-//W3C//DTD SVG 1.1//EN" "http://www.w3.org/Graphics/SVG/1.1/DTD/svg11.dtd" >
<svg xmlns="http://www.w3.org/2000/svg" xmlns:xlink="http://www.w3.org/1999/xlink" version="1.1" viewBox="0 -36 256 256">
  <g transform="matrix(1 0 0 -1 0 220)">
   <path fill="currentColor"
d="M20.5 113.5q1.5 57.5 -0.5 108.5l13 -8h35q-1 18 -12 30l2 3q19 -10 23 -17t-5 -16h20l13 10l15 -17h-33v-29h13l7 9l12 -13l-6 -5v-28l1 -14l-13 -5v6h-72q-2 -77 -21 -115h-4q11 43 12.5 100.5zM33 178h16v29h-16v-29zM61 178h18v29h-18v-29zM33 135h16v36h-16v-36z
M61 135h18v36h-18v-36zM91 135h14v36h-14v-36zM39 121l20 -10l-7 -5v-21h5l9 9l13 -16h-27v-40l24 15l2 -3q-24 -19 -32 -32l-9 12q3 6 3 12q0 65 -1 79zM81 123l21 -10l-8 -5v-23h6l9 10l13 -17h-28v-37l28 18l2 -3q-27 -23 -34 -37l-12 13q4 3 4 15q0 66 -1 76zM166 206
q-13 -30 -29 -60h19l6 8l10 -12l-5 -5q-8 -51 -17 -79q18 -21 48 -25t50 -1v-4q-12 -5 -13 -14q-36 1 -56 10t-34 24q-14 -23 -36 -39l-2 3q25 28 31 46q-10 21 -16 41l3 2q10 -21 17 -34q9 36 13 72h-18l-6 -5l-9 15q9 5 19.5 28.5t14.5 33.5h-4q-10 -1 -19 -3l-9 10h31
l6 8l12 -15zM173 205v4q13 3 30 8t27 12l9 -16q-8 0 -28 -4v-68h11l10 9l12 -16h-33v-70h14l10 9l12 -16h-54q-10 0 -19 -2l-9 9h34v70h-3q-7 0 -15 -1l-7 8h25v67q-4 -1 -26 -3z" />
  </g>

</svg>
