<?xml version="1.0" standalone="no"?>
<!DOCTYPE svg PUBLIC "-//W3C//DTD SVG 1.1//EN" "http://www.w3.org/Graphics/SVG/1.1/DTD/svg11.dtd" >
<svg xmlns="http://www.w3.org/2000/svg" xmlns:xlink="http://www.w3.org/1999/xlink" version="1.1" viewBox="0 -205 1024 1024">
  <g transform="matrix(1 0 0 -1 0 819)">
   <path fill="currentColor"
d="M110 866l78 -28q16 -7 8 -16l-34 -16v-634l4 -107q0 -15 -24 -28q-21 -13 -36 -14l4 143v700v0v0zM882 952l62 -44q8 -3 8 -12q1 -6 -34 -32v-735q3 -39 -12 -66q-15 -25 -66 -38q-5 28 -28 40q-22 13 -100 38l4 20q75 -17 100 -20q23 -3 38 6q13 7 14 28v747h-400
q-18 0 -56 -8l-22 36h460l32 40v0v0zM166 986q98 -39 128 -68q27 -27 28 -50q0 -23 -12 -34q-12 -10 -26 -8q-15 2 -24 26q-8 21 -22 48q-15 23 -80 74l8 12v0v0zM486 834q77 -25 82 -32q5 -6 2 -8q-4 -3 -34 -18v-150h132v140q77 -30 80 -36q3 -5 -2 -10q-4 -3 -28 -14v-62
l4 -46q1 -15 -18 -24q-18 -10 -36 -10v36h-316l-26 -32l-56 42q26 20 26 32v132l76 -30q6 -4 6 -10q0 -5 -32 -22v-86h140v208v0v0zM720 344q1 -16 -18 -28q-18 -13 -36 -16v52h-320v-110q0 -40 12 -46t34 -6h274q32 -1 46 8q11 6 20 22q6 15 10 42q3 24 6 94h22
q2 -33 4 -80q3 -45 34 -66q-12 -24 -30 -42q-17 -18 -82 -24h-316q-47 0 -64 18q-15 14 -18 62v192l50 -36h318v110h-310q-37 1 -70 -10l-22 38h398l32 32q63 -45 58 -50l-6 -10q-3 -4 -30 -22v-76l4 -48v0v0z" />
  </g>

</svg>
