<?xml version="1.0" standalone="no"?>
<!DOCTYPE svg PUBLIC "-//W3C//DTD SVG 1.1//EN" "http://www.w3.org/Graphics/SVG/1.1/DTD/svg11.dtd" >
<svg xmlns="http://www.w3.org/2000/svg" xmlns:xlink="http://www.w3.org/1999/xlink" version="1.1" viewBox="0 -36 256 256">
  <g transform="matrix(1 0 0 -1 0 220)">
   <path fill="currentColor"
d="M30 243q25 -10 30 -17.5t0.5 -16t-10.5 3.5t-21 27zM11 187q30 -12 32 -21.5t-3.5 -15t-10 6t-19.5 27.5zM37 91q6 4 34 109l4 -1q-19 -89 -23.5 -113t-2.5 -49t-9 -19.5t-8 23t3 28.5t-23 16v4q19 -2 25 2zM89 186q0 14 -1 28l14 -7h30v21h-26q-13 0 -22 -3l-10 10h142
l10 11l18 -18h-58v-21h28l7 9l14 -12l-6 -5q0 -21 1 -34l-14 -6v7h-114v-5l-14 -5q1 16 1 30zM145 207h28v21h-28v-21zM102 173h30v27h-30v-27zM145 173h28v27h-28v-27zM186 173h30v27h-30v-27zM115 150h89l6 8l16 -12l-7 -5q0 -38 1 -50l-15 -5v7h-37v-39h52l10 11l18 -18
h-80q0 -19 1 -33l-16 -6q1 19 1 39h-49q-13 0 -22 -3l-10 10h81v39h-41v-5l-14 -4q1 16 1 36.5t-1 36.5zM113 124h92v19h-92v-19zM113 100h92v17h-92v-17zM221 77q-8 -3 -15.5 -8.5t-20.5 -14.5l-2 2q15 17 21 33zM104 86q22 -9 25.5 -15t-2 -13.5t-10 3.5t-15.5 23z" />
  </g>

</svg>
