<?xml version="1.0" standalone="no"?>
<!DOCTYPE svg PUBLIC "-//W3C//DTD SVG 1.1//EN" "http://www.w3.org/Graphics/SVG/1.1/DTD/svg11.dtd" >
<svg xmlns="http://www.w3.org/2000/svg" xmlns:xlink="http://www.w3.org/1999/xlink" version="1.1" viewBox="0 -36 256 256">
  <g transform="matrix(1 0 0 -1 0 220)">
   <path fill="currentColor"
d="M196 91h-22l-6 -8l-14 12l6 6l10 78h15l-11 -80h22v78h-18l-9 -1l-8 8h35q0 36 -1 62l22 -10l-7 -8v-44h8l11 12l15 -19h-34v-78h8l13 13l15 -21h-36q0 -48 2 -76l-17 -7q1 45 1 83zM23 89l-14 19q12 3 40 18v51h-20l-8 -1l-8 8h36q0 38 -1 62l24 -10l-9 -8v-44h8l12 11
l14 -18h-34v-44l26 13l1 -4l-27 -19v-82q1 -25 -19 -33q1 14 -26 21v5q19 -3 25.5 -2t5.5 14v65q-18 -12 -26 -22zM78 96l-4 2q13 26 22.5 59.5t14.5 84.5l23 -10l-9 -5q-3 -20 -10 -43h24l10 10l14 -15l-9 -5q-17 -115 -88 -162l-3 4q63 54 76 161h-25q-5 -19 -11 -36
q13 -4 17.5 -9t1.5 -14t-8 0.5t-13 17.5q-10 -22 -23 -40z" />
  </g>

</svg>
