<?xml version="1.0" standalone="no"?>
<!DOCTYPE svg PUBLIC "-//W3C//DTD SVG 1.1//EN" "http://www.w3.org/Graphics/SVG/1.1/DTD/svg11.dtd" >
<svg xmlns="http://www.w3.org/2000/svg" xmlns:xlink="http://www.w3.org/1999/xlink" version="1.1" viewBox="0 -200 1000 1000">
  <g transform="matrix(1 0 0 -1 0 800)">
   <path fill="currentColor"
d="M644 595q16 0 32.5 -8.5t36.5 -24.5h98v98h-125l-21 -29q-26 11 -42 34l21 21v197q16 0 32.5 -8.5t36.5 -24.5l-27 -18v-57h94l27 36q23 -9 37.5 -24t19.5 -24h-178v-92h115l28 36q15 -5 29.5 -15.5t19.5 -21.5l-25 -26v-111q-23 -21 -42 -21v38h-116l-9 -6v-86h89l26 36
q23 -9 37.5 -24t19.5 -24h-172v-63h89l26 36q23 -9 37.5 -24t19.5 -23h-172v-64h94l27 36q20 -8 33.5 -20.5t20.5 -21.5l4 5q2 -22 7.5 -36.5t11 -25.5t10 -19.5t4.5 -17.5q0 -28 -56 -28h-131q-28 0 -47.5 32.5t-19.5 78.5v304zM333 549q14 0 28.5 -7t32.5 -20h131l28 36
q15 -5 29 -15.5t20 -22.5l-26 -25v-275q0 -16 -14.5 -29t-31.5 -13q0 8 -18.5 28t-53.5 39l5 6q17 -10 30 -14t22 -4t14 3t5 5v96h-159v-143q-21 -21 -42 -21v376zM217 970q14 0 29 -7.5t33 -20.5h519l27 36q23 -9 37 -24t19 -24h-604l-18 -12v-279q0 -104 -6.5 -174
t-23.5 -121t-47 -89.5t-77 -79.5l-3 3q35 44 57.5 86t35 97.5t17.5 131.5t5 188v289zM491 812q18 -5 35 -12.5t24 -16.5l-23 -15q-24 -43 -73 -74.5t-107 -47.5l188 2q-6 13 -15 27.5t-20 28.5l5 3q48 -28 65 -45.5t17 -29.5q0 -7 -4 -14t-9 -12t-11 -8.5t-9 -3.5
q-10 0 -10 13v8q0 4 -1 9t-3 12l-183 -21l-21 -11l-29 37q5 0 10 5t19 11q30 12 58 31.5t51 45.5l-76 -10l-21 -10l-29 36q9 0 23 9.5t28.5 27t27 41.5t18.5 53q18 -4 35 -12t24 -17l-23 -15q-12 -29 -38 -49.5t-56 -31.5l102 -3q18 25 31 59zM711 218h104q8 0 14.5 2
t12 10.5t10 24t8.5 42.5h-174v-6q0 -30 7 -51.5t18 -21.5zM375 435h159v75h-141l-18 -12v-63zM375 349h159v74h-159v-74z" />
  </g>

</svg>
