<?xml version="1.0" standalone="no"?>
<!DOCTYPE svg PUBLIC "-//W3C//DTD SVG 1.1//EN" "http://www.w3.org/Graphics/SVG/1.1/DTD/svg11.dtd" >
<svg xmlns="http://www.w3.org/2000/svg" xmlns:xlink="http://www.w3.org/1999/xlink" version="1.1" viewBox="0 -205 1024 1024">
  <g transform="matrix(1 0 0 -1 0 819)">
   <path fill="currentColor"
d="M78 788l46 -38h74v212l74 -34q10 -6 2 -18l-26 -16v-144h64l22 34l54 -38q12 -9 4 -14l-22 -18v-212l4 -58q3 -15 -12 -26q-13 -12 -40 -14v28h-74v-226l96 16q-24 50 -50 82l12 10q63 -48 84 -84q20 -33 22 -54q3 -21 -6 -32q-7 -10 -20 -11q-13 0 -20 7q-6 7 -6 20
q-1 12 -10 42q-151 -38 -208 -58q-55 -16 -86 -41l-38 61l180 32v236h-72v-42q0 -12 -18 -20q-17 -9 -34 -8l4 92v334v0v0zM126 456h72v270h-72v-270v0v0zM248 726v-270h74v270h-74v0v0zM636 942q9 -9 -2 -14q-24 -3 -32 -14q-5 -10 -34 -40h158l30 38q57 -45 60 -44
q13 -12 2 -18l-20 -4q-22 -10 -44 -28q-20 -18 -58 -74h140l30 40l54 -42q8 -2 8 -10q1 -2 -28 -22v-78l4 -60q-1 -12 -16 -20q-13 -7 -34 -8v24h-218q-24 -28 -48 -52q34 -25 68 -64q34 -37 50 -68q80 51 172 132q50 -43 52 -50q3 -6 0 -8t-20 0q-15 0 -44 -14
q-27 -12 -78 -42q27 -66 64 -114q35 -48 74 -72q38 -25 88 -28v-18q-19 1 -40 -4q-20 -6 -46 -26q-35 26 -64 62q-30 33 -54 82q-22 47 -40 110l-54 -32q27 -84 28 -146q3 -96 -30 -135q-31 -36 -94 -54q-13 34 -44 50q-29 15 -70 30l6 18q50 -17 86 -26q35 -7 62 4
q23 11 32 49q6 39 6 78q0 38 -8 74q-49 -63 -142 -126q-91 -61 -196 -101l-6 14q86 42 184 117q96 75 144 150q-21 45 -38 64q-65 -64 -118 -100q-53 -35 -124 -70l-8 12q86 60 136 106q47 45 86 90q-15 18 -38 40q-69 -58 -108 -82q-39 -25 -98 -56l-8 14q36 24 108 78
t120 114h-98v-10q0 -9 -18 -20q-16 -10 -32 -10l4 90v102q-25 -30 -50 -42l-10 10q50 63 104 138q54 76 90 152l62 -36v0v0zM486 594h114q38 63 58 124h-172v-124v0v0zM706 718q-22 -70 -56 -124h204v124h-148v0v0zM474 756v-12h192l58 106h-170q-34 -44 -80 -94v0v0v0z" />
  </g>

</svg>
