<?xml version="1.0" standalone="no"?>
<!DOCTYPE svg PUBLIC "-//W3C//DTD SVG 1.1//EN" "http://www.w3.org/Graphics/SVG/1.1/DTD/svg11.dtd" >
<svg xmlns="http://www.w3.org/2000/svg" xmlns:xlink="http://www.w3.org/1999/xlink" version="1.1" viewBox="0 -205 1024 1024">
  <g transform="matrix(1 0 0 -1 0 819)">
   <path fill="currentColor"
d="M844 702l68 -54q2 -3 2 -6q0 -9 -8 -8h-340v-146h166l28 36l50 -38q9 -6 10 -12q0 -3 -26 -24v-118l4 -76q0 -15 -14 -26q-13 -12 -38 -14v42h-174v-169h272l38 50l68 -64l2 -6q0 -8 -8 -8h-732l-28 -32l-62 48l36 26v595l62 -38h590l34 42v0v0zM522 89v169h-172v-18
q-1 -12 -16 -24q-13 -12 -38 -14l4 128v194l56 -36h160v146h-306v-545h312v0v0zM350 284h396v178h-396v-178v0v0zM304 966q10 -9 0 -18q-24 -6 -32 -12l-14 -14q-4 -6 -32 -54h200l42 52l60 -62q9 -16 -8 -16h-212q41 -32 58 -52q17 -19 26 -40q9 -22 -2 -40
q-12 -19 -32 -14q-21 6 -24 36q-3 29 -14 52q-10 21 -40 58h-68q-75 -112 -150 -184l-14 12q65 90 110 174t70 160l76 -38v0v0zM690 962q10 -9 0 -18q-24 -6 -30 -14l-14 -12q-3 -6 -30 -50h232l42 52l60 -62q9 -16 -8 -16h-234q42 -32 60 -52q19 -21 26 -42q6 -22 -6 -40
q-12 -19 -32 -14q-20 6 -22 36q0 29 -12 52q-12 24 -42 60h-76q-58 -88 -118 -164l-18 10q57 95 90 166q30 69 52 138l80 -30v0v0z" />
  </g>

</svg>
