<?xml version="1.0" standalone="no"?>
<!DOCTYPE svg PUBLIC "-//W3C//DTD SVG 1.1//EN" "http://www.w3.org/Graphics/SVG/1.1/DTD/svg11.dtd" >
<svg xmlns="http://www.w3.org/2000/svg" xmlns:xlink="http://www.w3.org/1999/xlink" version="1.1" viewBox="0 -205 1024 1024">
  <g transform="matrix(1 0 0 -1 0 819)">
   <path fill="currentColor"
d="M482 376q6 -3 6 -6q1 -7 -10 -10q-22 -4 -38 -40q-63 -145 -108 -197l-14 8q38 67 104 275l60 -30v0v0zM574 392q50 -36 74 -60q21 -21 36 -42q12 -18 16 -36q0 -15 -2 -26q-4 -10 -14 -16q-9 -6 -24 -2q-15 3 -20 34q-4 27 -26 66q-19 38 -50 74l10 8v0v0zM654 926
q9 -3 6 -12q0 -3 -12 -6q-13 -3 -26 -12q-42 -61 -72 -112q42 -36 70 -68q26 -29 32 -52q3 -24 -8 -36q-10 -12 -26 -8q-15 3 -26 30q-10 26 -28 50q-15 23 -36 50q-81 -114 -144 -168l-12 10q52 65 128 188q-48 53 -120 122l10 10q73 -48 128 -96q36 63 70 142l66 -32v0v0z
M138 694h144l32 38l54 -48q6 -15 -2 -18h-124v-142h50l34 40l42 -48q15 -12 0 -20h-126v-288l94 20l6 -18q-183 -56 -216 -70q-31 -13 -58 -37l-42 61l168 34v298h-84q-21 0 -44 -8l-16 36h144v142h-20l-20 -6l-16 34v0v0zM864 944l48 -36q9 -6 10 -12q-1 -1 -34 -26v-182
q0 -28 18 -28h22q9 2 18 8q6 6 10 6q35 -37 38 -38q-3 -6 -18 -14q-16 -6 -44 -6h-28q-21 0 -32 6q-12 3 -20 16q-10 12 -10 40v208h-100v-96q0 -136 -90 -232l-12 10q58 98 56 232v150l50 -38h94l24 32v0v0zM872 558l56 -44q7 -3 6 -8q-3 -6 -14 -14l-20 -12
q-24 -108 -42 -162q-18 -53 -42 -94q33 -51 84 -84q48 -28 106 -43v-18q-40 1 -58 -2q-17 -3 -34 -24q-43 34 -70 64q-24 29 -54 71q-38 -50 -106 -95q-67 -45 -136 -70l-8 16q66 35 124 78q56 40 104 107q-24 43 -42 122q-18 78 -30 154h-8l-12 -6l-18 32h188l26 32v0v0z
M724 500q27 -164 66 -238q27 33 66 238h-132v0v0zM382 508h120v128l68 -26q7 -4 6 -10q0 -6 -26 -18v-74h30l30 40l44 -46q3 -4 4 -10q0 -10 -12 -10h-96v-332q3 -42 -14 -63q-16 -19 -52 -32q-7 28 -28 44q-21 14 -62 28l6 15q42 -10 64 -13q18 -3 30 0q10 3 8 51v302h-54
q-21 0 -42 -8l-24 34v0v0zM26 562q45 78 90 174q44 96 86 240l76 -28q4 -9 0 -12q-5 -4 -16 -8q-9 -3 -26 -24q69 -30 106 -56q36 -27 46 -50q10 -22 0 -40q-12 -16 -26 -14q-15 3 -26 28q-9 23 -30 50t-74 66q-39 -93 -86 -174q-45 -81 -108 -162l-12 10v0v0zM62 418l12 8
q51 -46 66 -74q16 -26 20 -52q2 -24 -10 -36q-11 -12 -28 -6q-16 6 -16 24q0 19 -6 50t-38 86v0v0zM258 258q39 90 66 178l60 -38q3 -10 -2 -14q-7 -3 -20 -6q-12 -2 -26 -28l-64 -100l-14 8v0v0z" />
  </g>

</svg>
