<?xml version="1.0" standalone="no"?>
<!DOCTYPE svg PUBLIC "-//W3C//DTD SVG 1.1//EN" "http://www.w3.org/Graphics/SVG/1.1/DTD/svg11.dtd" >
<svg xmlns="http://www.w3.org/2000/svg" xmlns:xlink="http://www.w3.org/1999/xlink" version="1.1" viewBox="0 -205 1024 1024">
  <g transform="matrix(1 0 0 -1 0 819)">
   <path fill="currentColor"
d="M924 498l70 -44q6 -6 6 -12q-1 -7 -22 -10l-178 -38v-214l4 -107q1 -12 -22 -28q-24 -16 -36 -14l4 129v224l-250 -54q-23 -8 -46 -22l-32 36l328 68v562l82 -36q7 -12 2 -14q-5 -3 -34 -18v-484l96 24l28 52v0v0zM502 858q116 -54 140 -84q22 -29 18 -52q-3 -22 -14 -28
q-12 -7 -26 -4q-16 2 -22 28q-7 24 -28 52q-19 26 -76 74l8 14v0v0zM486 644q104 -49 128 -80q22 -31 20 -56q-3 -24 -14 -30q-11 -8 -28 -6t-22 28q-6 27 -26 60q-18 33 -66 72l8 12v0v0zM234 976l68 -30q20 -6 20 -12q1 -6 -40 -30v-294q64 75 116 174q72 -39 70 -48
q-3 -7 -8 -8q-6 1 -24 -4q-16 -6 -58 -50q-40 -43 -98 -94q0 -114 -8 -198q54 -28 102 -70q47 -43 58 -70q10 -25 8 -46q-3 -19 -12 -28t-26 -6q-16 2 -26 44q-10 39 -34 78q-22 36 -74 78q-12 -102 -60 -186q-44 -82 -148 -161l-10 10q80 83 116 151q33 68 48 140
q16 72 20 252v408v0v0zM142 732h16q12 -93 4 -156q-9 -61 -30 -82q-20 -22 -40 -20q-21 3 -26 18q-5 16 12 32q17 15 38 58q20 42 26 150v0v0v0z" />
  </g>

</svg>
