<?xml version="1.0" standalone="no"?>
<!DOCTYPE svg PUBLIC "-//W3C//DTD SVG 1.1//EN" "http://www.w3.org/Graphics/SVG/1.1/DTD/svg11.dtd" >
<svg xmlns="http://www.w3.org/2000/svg" xmlns:xlink="http://www.w3.org/1999/xlink" version="1.1" viewBox="0 -246 2048 2048">
  <g transform="matrix(1 0 0 -1 0 1802)">
   <path fill="currentColor"
d="M1155 1403q-13 -278 -155 -441q-122 -140 -375 -239l-29 41q231 117 334 276q97 149 102 363h-252l-22 51h799l75 90q115 -90 115 -117q0 -12 -16 -22l-48 -29q-3 -466 -90 -559q-61 -67 -174 -67q0 61 -45 82q-49 19 -137 32v56q138 -17 199 -17q76 0 100 82
q34 120 37 418h-418zM956 543q-331 -260 -840 -391l-32 43q519 168 796 428h-727l-22 51h825v178q195 -3 195 -45q0 -23 -78 -51v-82h600l105 107q81 -59 147 -121l-25 -37h-780q329 -238 832 -327q-60 -42 -95 -111q-508 145 -784 409v-501h-117v450zM676 1745v195
q201 0 201 -45q0 -25 -84 -56v-94h440v195q197 -4 197 -45q0 -26 -80 -54v-96h342l100 131q78 -75 133 -145l-22 -37h-553v-170h-117v170h-440v-162h-117v162h-528l-21 51h549zM493 1364q-36 0 -55 37q-45 81 -155 127l24 37q254 -43 254 -131q0 -70 -68 -70zM332 1184
q-36 0 -58 43q-30 64 -145 111l23 37q249 -28 249 -123q0 -68 -69 -68zM397 734q-65 0 -65 55q0 2 4 23q19 70 19 102q0 81 -179 102v51q62 -6 88 -6q84 0 202 99q95 79 245 249l39 -43l-254 -309q-41 -50 -41 -92q0 -6 4 -35q14 -77 14 -124q0 -72 -76 -72z" />
  </g>

</svg>
