<?xml version="1.0" standalone="no"?>
<!DOCTYPE svg PUBLIC "-//W3C//DTD SVG 1.1//EN" "http://www.w3.org/Graphics/SVG/1.1/DTD/svg11.dtd" >
<svg xmlns="http://www.w3.org/2000/svg" xmlns:xlink="http://www.w3.org/1999/xlink" version="1.1" viewBox="0 -36 256 256">
  <g transform="matrix(1 0 0 -1 0 220)">
   <path fill="currentColor"
d="M156 65v114q0 28 -1 56l16 -12h48l11 12l16 -17l-11 -6q-14 -23 -33 -62q48 -37 43 -64t-35 -37q-5 19 -33 22v5q24 -3 35.5 -4.5t18 18.5t-37.5 58q17 37 26 68h-49v-150q0 -25 1 -51l-16 -7q1 28 1 57zM72 247l19 -14l-8 -5q-26 -30 -49 -50q43 2 88 3q-10 13 -26 27
l3 4q28 -16 39 -26.5t4 -23.5t-10 -4t-7 17q-86 -8 -99 -18l-10 19q26 12 56 71zM36 107q-11 0 -21 -2l-9 9h38q0 26 -1 49l21 -10l-6 -7v-32h41q0 27 -1 50l21 -9l-6 -7v-34h13l12 12l14 -19h-39v-49q0 -23 1 -44l-16 -6q1 23 1 55v44h-41q0 -70 -47 -100l-2 3q33 33 35 97
h-8z" />
  </g>

</svg>
