<?xml version="1.0" standalone="no"?>
<!DOCTYPE svg PUBLIC "-//W3C//DTD SVG 1.1//EN" "http://www.w3.org/Graphics/SVG/1.1/DTD/svg11.dtd" >
<svg xmlns="http://www.w3.org/2000/svg" xmlns:xlink="http://www.w3.org/1999/xlink" version="1.1" viewBox="0 -205 1024 1024">
  <g transform="matrix(1 0 0 -1 0 819)">
   <path fill="currentColor"
d="M440 942l56 -36h384l28 32l54 -44q6 -4 6 -8q1 -6 -34 -24v-106l4 -66q1 -15 -16 -24q-15 -8 -38 -10v34h-394v-10q-1 -15 -16 -24q-15 -7 -38 -8l4 86v208v0v0zM490 714h100v168h-100v-168v0v0zM638 714h100v168h-100v-168v0v0zM786 714h98v168h-98v-168v0v0zM572 662
q6 -4 10 -10q0 -8 -14 -10q-19 -9 -34 -32h358l26 26l50 -40q8 -6 8 -12t-32 -24v-282q-4 -127 -16 -159q-10 -30 -38 -58q-27 -26 -74 -40q-7 27 -34 44q-27 16 -86 32l6 18q39 -7 70 -14q31 -6 62 -4q30 3 42 30q15 26 18 141v316h-376q-24 -30 -54 -66q-29 -36 -82 -84
l-12 8q47 63 86 126t66 114l50 -20v0v0zM498 482h106v90l60 -18q9 -3 10 -6q3 -4 -2 -8l-22 -14v-44h100l24 30l48 -38q6 -4 6 -8t-26 -20v-56l4 -58q0 -12 -14 -20q-16 -7 -34 -8v30h-108v-128l104 12q-22 37 -52 62l10 10q42 -19 66 -38q23 -18 38 -36q13 -17 14 -34
q0 -16 -8 -28q-9 -13 -24 -10q-16 0 -20 18q-3 15 -12 36q-217 -33 -262 -44q-46 -12 -70 -33l-42 61l212 22v130h-106v-6q0 -12 -12 -20q-10 -6 -38 -12l4 84v116l46 -14v0v0zM498 358h106v100h-106v-100v0v0zM650 458v-100h108v100h-108v0v0zM54 790l50 -38h74v224l74 -30
q7 -3 8 -6q4 -3 -4 -8l-34 -24v-156h66l26 36l50 -38q6 -3 6 -12q-1 -3 -22 -18v-220l4 -82q-4 -15 -16 -24q-9 -7 -36 -10v50h-78v-214l84 22q-13 33 -40 70l10 8q59 -46 80 -76q18 -30 22 -54q3 -24 -6 -36q-10 -13 -22 -14q-12 0 -18 6q-3 5 -6 26q0 20 -12 52
q-135 -48 -188 -68q-54 -20 -72 -43l-38 59l162 38v224h-76v-44q0 -16 -18 -28q-17 -12 -34 -12l4 122v318v0v0zM102 460h76v266h-76v-266v0v0zM222 726v-266h78v266h-78v0v0z" />
  </g>

</svg>
