<?xml version="1.0" standalone="no"?>
<!DOCTYPE svg PUBLIC "-//W3C//DTD SVG 1.1//EN" "http://www.w3.org/Graphics/SVG/1.1/DTD/svg11.dtd" >
<svg xmlns="http://www.w3.org/2000/svg" xmlns:xlink="http://www.w3.org/1999/xlink" version="1.1" viewBox="0 -205 1024 1024">
  <g transform="matrix(1 0 0 -1 0 819)">
   <path fill="currentColor"
d="M134 628h200l34 46l42 -42q19 -15 14 -24q-3 -6 -8 -6h-168v-158h94l36 46l52 -52q9 -12 -6 -20h-176v-228l136 124l14 -14q-105 -115 -132 -148q-27 -28 -48 -71l-58 52q24 16 42 37v248h-90q-31 0 -58 -8l-18 34h166v158h-24l-26 -6l-18 32v0v0zM466 724l54 -34h294
l26 36l52 -38q9 -6 10 -14q0 -3 -26 -24v-82l4 -70q-1 -10 -16 -20q-15 -9 -38 -12v28h-130l-22 -38q36 -101 72 -154q95 70 140 116q56 -43 58 -46v-8q-1 -4 -20 -4q-18 0 -44 -12q-27 -12 -122 -66q39 -55 82 -88q42 -30 78 -48q34 -15 92 -27v-18q-48 0 -62 -6
q-15 -7 -32 -26q-54 34 -104 81q-48 48 -90 114q-39 63 -66 166q-31 -48 -80 -108v-219l144 87l12 -16q-75 -52 -116 -89q-42 -35 -68 -74l-58 50l38 28v177q-102 -111 -210 -183l-10 16q72 56 144 137q70 78 116 144t68 114h-122v-20q0 -12 -14 -20q-13 -9 -38 -12l4 122
v160v0v0zM514 520h312v144h-312v-144v0v0zM870 814l46 52l64 -60q3 -1 4 -8q0 -12 -14 -12h-478q-18 0 -54 -8l-18 36h450v0v0zM576 966l8 16q65 -31 92 -50t36 -44q9 -23 -2 -40q-10 -16 -28 -14t-24 26t-24 52q-17 27 -58 54v0v0zM280 930q7 -3 8 -6q3 -9 -8 -14
q-24 -7 -36 -28q-18 -45 -38 -86h120l40 46l58 -58q2 -3 2 -6q0 -9 -6 -8h-224q-33 -75 -68 -138q-33 -64 -92 -142l-14 10q54 97 114 242q56 143 74 224l70 -36v0v0z" />
  </g>

</svg>
