<?xml version="1.0" standalone="no"?>
<!DOCTYPE svg PUBLIC "-//W3C//DTD SVG 1.1//EN" "http://www.w3.org/Graphics/SVG/1.1/DTD/svg11.dtd" >
<svg xmlns="http://www.w3.org/2000/svg" xmlns:xlink="http://www.w3.org/1999/xlink" version="1.1" viewBox="0 -36 256 256">
  <g transform="matrix(1 0 0 -1 0 220)">
   <path fill="currentColor"
d="M168 135l20 -10l-7 -5v-5h19l9 9q-16 6 -34 16q-20 -16 -57 -26l-1 4q35 16 49 29q-5 4 -18 16q-7 -8 -22 -20l-2 3q11 13 19 26t14 31l14 -11q-5 -3 -10 -10h41l7 6l13 -13l-6 -2q-14 -14 -31 -26q15 -7 28 -10t28 -3v-4q-11 -3 -13 -12q-10 3 -19 6l15 -16h-43v-16h14
l10 9l14 -16h-38v-16h26l13 10l13 -17h-52q0 -12 1 -22l-15 -6q1 15 1 28h-16q-11 -1 -20 -3l-9 10h45v16h-6q-10 0 -20 -2l-9 9h35v16h-15q-11 0 -20 -2l-9 9h44v20zM152 168q11 -9 23 -15q11 6 26 22h-44zM179 210h-45v-15l-13 -5q1 9 1 20h-17q-10 0 -19 -2l-10 9h46
q0 14 -1 25l20 -9l-7 -7v-9h45q0 16 -1 27l21 -9l-8 -6v-12h25l12 10l16 -17h-53q0 -6 1 -13l-13 -5v18zM116 164q-1 -9 -6.5 -12t-9 8.5t-13.5 26.5l3 2q27 -16 26 -25zM231 16q-41 1 -66.5 4.5t-41.5 17.5t-23 5.5t-13 -28.5l-17 8q5 6 13.5 15t15.5 15v67h-5l-11 -2l-8 9
h23l9 10l13 -14l-8 -5v-64q25 -18 53 -21t82 1v-4q-17 -4 -16 -14zM89 87l1 -5q-61 -29 -70 -40l-12 20q12 1 35 10v76h-4q-10 0 -19 -2l-10 9h33v45q0 9 -1 30l21 -10l-7 -8v-57h10l10 10l14 -17h-34v-73q19 6 33 12z" />
  </g>

</svg>
