<?xml version="1.0" standalone="no"?>
<!DOCTYPE svg PUBLIC "-//W3C//DTD SVG 1.1//EN" "http://www.w3.org/Graphics/SVG/1.1/DTD/svg11.dtd" >
<svg xmlns="http://www.w3.org/2000/svg" xmlns:xlink="http://www.w3.org/1999/xlink" version="1.1" viewBox="0 -143 1024 1024">
  <g transform="matrix(1 0 0 -1 0 881)">
   <path fill="currentColor"
d="M599 993q81 -33 82 -37t1 -5t-1 -4t-34 -14v-202h86v254q73 -27 81 -32t2 -11t-35 -16v-195h124l34 42q56 -54 56 -57q0 -11 -17 -11h-525q-13 0 -48 -8l-16 34h210v262zM796 625q-19 -19 -53 -59h123l35 42q57 -55 57 -60q0 -8 -12 -8h-234q0 -56 -4 -100h148l20 40
q58 -52 58 -55q2 -11 -11 -11h-217q-4 -46 -12 -96h205l36 46l55 -52q4 -3 4 -8q0 -13 -12 -13h-250q34 -57 82 -103t88 -65t102 -23v-16q-40 -6 -54 -16t-22 -28q-88 48 -145 122t-77 129h-20q-38 -115 -116 -174t-206 -101l-6 16q106 48 174 102t106 157h-148
q-21 0 -68 -7l-16 34h239q11 50 14 96h-115q-8 0 -57 -8l-21 34h193q7 48 4 100h-171q-21 0 -50 -8l-22 34h297q46 72 71 130q52 -30 56 -35t-1 -9t-16 -6t-31 -21zM540 680l10 10q38 -18 59 -31t29 -32t-1 -34t-26 -14t-21 23t-16 38t-34 40zM434 914l8 12q46 -24 76 -48
t37 -45t-2 -38t-28 -15t-22 26t-19 49t-50 59zM806 760q66 98 102 174l62 -44q8 -8 -4 -14q-24 -4 -34 -13t-37 -36l-77 -77zM22 799h115q20 76 34 188q73 -32 76 -38t-1 -9t-18 -7t-21 -35t-21 -99h127l28 48l57 -51q4 -4 4 -9q0 -12 -12 -12h-211q-39 -164 -64 -248h107
v181l73 -28q8 -5 8 -7q0 -6 -6 -10l-25 -14v-122h60l28 42l57 -50q4 -4 4 -8q-2 -8 -10 -8h-139v-150l135 42l7 -18l-142 -56v-154l4 -100q2 -17 -17 -30.5t-41 -15.5l4 136v145q-71 -28 -94.5 -39.5t-43.5 -39.5l-44 62l182 56v162h-99l-30 -32l-56 52q36 18 44 35l51 217
h-42q-21 0 -53 -8z" />
  </g>

</svg>
