<?xml version="1.0" standalone="no"?>
<!DOCTYPE svg PUBLIC "-//W3C//DTD SVG 1.1//EN" "http://www.w3.org/Graphics/SVG/1.1/DTD/svg11.dtd" >
<svg xmlns="http://www.w3.org/2000/svg" xmlns:xlink="http://www.w3.org/1999/xlink" version="1.1" viewBox="0 -205 1024 1024">
  <g transform="matrix(1 0 0 -1 0 819)">
   <path fill="currentColor"
d="M372 884v-122h120l38 44l60 -56q3 -4 4 -4q0 -12 -12 -12h-210v-50q86 -27 122 -54q33 -24 42 -42q8 -19 2 -34q-6 -16 -24 -20q-18 -3 -32 22q-15 23 -36 50q-21 24 -74 58v-176l4 -72q0 -12 -20 -24q-17 -13 -40 -16l4 114v182q-45 -69 -104 -128q-60 -57 -150 -114
l-8 14q69 56 130 128q59 69 110 162h-130q-21 0 -68 -6l-16 34h236v118q-114 -13 -216 -22l-2 20q138 18 234 42q93 21 160 46q46 -56 44 -64q0 -7 -12 -4q-11 0 -28 4q-18 1 -128 -18v0v0zM652 888l86 -30q6 -3 6 -12q1 -3 -40 -20v-206l4 -82q-3 -15 -20 -26
q-16 -9 -40 -8l4 120v264v0v0zM850 966l72 -26q9 -4 10 -10q0 -6 -32 -20v-446q3 -39 -20 -62q-21 -21 -62 -30q-11 32 -34 46q-22 12 -76 28l4 16q62 -13 88 -16t38 4q12 6 12 24v492v0v0zM192 284h18q-5 -93 -16 -128q-12 -32 -30 -57q-19 -24 -44 -34q-24 -7 -36 -2
q-13 7 -16 22q-3 14 12 28q15 12 34 24q15 8 36 31q18 22 42 116v0v0v0zM474 376q80 -45 106 -78q24 -31 22 -52q-1 -21 -14 -32q-12 -9 -26 -6q-15 2 -20 28t-16 50q-12 22 -62 80l10 10v0v0zM800 306q92 -53 122 -82q30 -28 42 -52t10 -39q-1 -18 -10 -30q-10 -13 -28 -12
q-18 0 -26 30q-6 26 -24 65q-17 38 -94 106l8 14v0v0zM360 284v-155q0 -42 12 -48t40 -6h248q30 0 42 8q9 6 16 20q5 16 8 41q3 24 6 106h22q3 -72 10 -104q5 -30 34 -45q-16 -35 -40 -52q-21 -13 -74 -18h-306q-27 -1 -48 16q-21 15 -20 68v235l80 -32q12 -7 6 -14
q-6 -6 -36 -20v0v0z" />
  </g>

</svg>
