<?xml version="1.0" standalone="no"?>
<!DOCTYPE svg PUBLIC "-//W3C//DTD SVG 1.1//EN" "http://www.w3.org/Graphics/SVG/1.1/DTD/svg11.dtd" >
<svg xmlns="http://www.w3.org/2000/svg" xmlns:xlink="http://www.w3.org/1999/xlink" version="1.1" viewBox="0 -205 1024 1024">
  <g transform="matrix(1 0 0 -1 0 819)">
   <path fill="currentColor"
d="M140 464l56 -36h84l32 40l58 -42q6 -4 6 -8q0 -6 -32 -26v-236l4 -85q0 -12 -14 -24q-15 -9 -38 -12v62h-108v-34q3 -14 -14 -28q-18 -12 -38 -12l4 123v318v0v0zM188 123h108v279h-108v-279v0v0zM408 456l56 -36h88l32 40l58 -42q6 -4 6 -8q0 -6 -32 -26v-236l4 -85
q0 -8 -14 -20q-15 -9 -38 -12v58h-112v-30q3 -14 -14 -28q-18 -12 -38 -12l4 120v317v0v0zM456 115h112v279h-112v-279v0v0zM680 460l56 -36h84l32 40l58 -42q6 -4 6 -8q0 -6 -32 -26v-236l4 -85q0 -8 -14 -20q-15 -9 -38 -12v58h-108v-30q3 -14 -14 -28q-18 -12 -38 -12
l4 119v318v0v0zM728 119h108v279h-108v-279v0v0zM80 814h408v154l78 -28q8 -3 8 -6q1 -4 -4 -10l-30 -14v-96h298l38 54l64 -62q3 -3 4 -8q0 -10 -14 -10h-342q47 -71 116 -124q69 -52 142 -76t134 -24v-18q-48 -3 -66 -14q-18 -12 -32 -32q-86 39 -142 78q-55 40 -94 86
q-39 45 -84 124h-22v-198l4 -84q0 -15 -18 -30t-42 -18l4 128v200h-12q-57 -94 -168 -178q-109 -85 -250 -146l-6 14q114 68 214 148q97 80 152 164h-256q-21 0 -66 -8l-16 34v0v0z" />
  </g>

</svg>
