<?xml version="1.0" standalone="no"?>
<!DOCTYPE svg PUBLIC "-//W3C//DTD SVG 1.1//EN" "http://www.w3.org/Graphics/SVG/1.1/DTD/svg11.dtd" >
<svg xmlns="http://www.w3.org/2000/svg" xmlns:xlink="http://www.w3.org/1999/xlink" version="1.1" viewBox="0 -36 256 256">
  <g transform="matrix(1 0 0 -1 0 220)">
   <path fill="currentColor"
d="M38 212h9q6 20 8 34l20 -8l-8 -4q-6 -12 -12 -22h33l8 10l12 -13l-6 -5v-20q0 -16 1 -31l-15 -6v6h-49v-21h60l10 11l15 -18h-85v-19h61l9 10l14 -13l-8 -6q-2 -64 -12 -75.5t-26 -14.5q-1 14 -24 19v6q25 -5 31 -4.5t11 7.5t7 64h-63v-9l-15 -4q1 21 1 37v66q0 15 -1 30
zM39 180v-20h49v20h-49zM39 205v-18h49v18h-49zM199.5 226.5q5.5 -6.5 -1 -15.5t-10.5 3.5t-14 23.5l2 4q18 -9 23.5 -15.5zM151 172h29v26h-29v-26zM151 143h29v22h-29v-22zM151 111h29v25h-29v-25zM138 113v68q-9 -17 -21 -33l-4 3q13 24 21.5 46t15.5 47l20 -13l-9 -3
q-6 -10 -12 -23h67l11 9l14 -16h-48v-26h17l10 9l15 -16h-42v-22h16l11 8l14 -15h-41v-25h23l12 9l14 -16h-63l16 -8l-7 -6v-17h35l11 12l15 -19h-61q0 -39 1 -54l-15 -6q1 32 1 60h-27q-10 0 -19 -2l-9 9h55v31h-24v-9l-14 -6q1 12 1 24zM70 48q-5 -3 -7 9t-8 25l3 2
q18 -15 17.5 -24t-5.5 -12zM78 90q13 -11 17.5 -17.5t2.5 -11.5t-6.5 -7.5t-6 9t-10.5 25.5zM22.5 38.5q-6.5 -6.5 -12 -2t2 13.5t9.5 27h4q3 -32 -3.5 -38.5zM34 78l4 2q16 -18 15 -28t-6.5 -12t-6 11.5t-6.5 26.5z" />
  </g>

</svg>
