<?xml version="1.0" standalone="no"?>
<!DOCTYPE svg PUBLIC "-//W3C//DTD SVG 1.1//EN" "http://www.w3.org/Graphics/SVG/1.1/DTD/svg11.dtd" >
<svg xmlns="http://www.w3.org/2000/svg" xmlns:xlink="http://www.w3.org/1999/xlink" version="1.1" viewBox="0 -150 1000 1000">
  <g transform="matrix(1 0 0 -1 0 850)">
   <path fill="currentColor"
d="M314 567h-85v-143h85v143zM106 567v-143h86v143h-86zM156 831v-127h109v127h-109zM524 354q-35 -15 -57 -29q-17 -11 -35 -33l-43 52l110 32v414h-41q-23 2 -37 -11l-34 32h183l27 28l48 -41q5 -5 3.5 -7t-10.5 -1h-101v-402l99 34l6 -12zM660 914l45 -38h110l25 32
l49 -42q7 -9 -7 -14l-17 -14v-699q0 -38 29 -39q17 0 28 2q18 3 20 51l4 133h15l2 -114q1 -50 22 -54q-15 -41 -46.5 -50t-64.5 -1q-41 11 -42 69v720h-124v-215q88 -77 98 -164q8 -66 -27 -63q-13 3 -11 39q1 29 -16 79q-10 35 -44 84v-40q4 -196 -57 -326
q-60 -128 -236 -228l-6 13q166 127 215 229q55 114 51 340v250q-6 29 -22 50zM246 977l73 -24q14 -6 6 -10q-24 -11 -27 -17v-75h22l25 31l43 -41q7 -5 5.5 -7.5t-11.5 -2.5h-84v-79l4 -47q-1 -20 -13 -29.5t-24 -14.5v23h-36v-101h67l28 33l47 -38q8 -5 6.5 -8t-12.5 -4
l-18 -9v-87l6 -76q-1 -6 -11.5 -12.5t-27.5 -12.5v39h-85v-119h90l24 34l63 -45q8 -5 6 -7t-12 -2h-171v-157l4 -40q0 -18 -14 -30q-15 -9 -33 -15q3 38 6 132v110h-101q-27 0 -44 -13l-33 33h178v119h-86v-10q0 -20 -8 -30q-7 -8 -32 -12q4 33 7 92v124q-3 19 -15 36l15 10
l27 -35h92v101h-36q-2 -12 -8 -17q-9 -10 -32 -14q2 20 6 56q1 7 1 11v111h-21q-27 0 -44 -13l-34 33h99v81q3 13 -21 35l8 12l77 -26q13 -6 5 -10q-29 -10 -36 -17v-75h109v81q2 15 -28 33z" />
  </g>

</svg>
