<?xml version="1.0" standalone="no"?>
<!DOCTYPE svg PUBLIC "-//W3C//DTD SVG 1.1//EN" "http://www.w3.org/Graphics/SVG/1.1/DTD/svg11.dtd" >
<svg xmlns="http://www.w3.org/2000/svg" xmlns:xlink="http://www.w3.org/1999/xlink" version="1.1" viewBox="0 -52 256 256">
  <g transform="matrix(1 0 0 -1 0 204)">
   <path fill="currentColor"
d="M234 126q2 -1 2 -2q1 -1 -1 -1q-8 1 -12 -17q-3 -9 -15 -30q-6 -12 -14 -22q5 -4 12 -9q12 -8 21 -12q11 -5 24 -6v-3q-19 2 -20 -8q-18 7 -37 24q-1 0 -4 3q-3 2 -5 3q-2 -2 -5 -4q-40 -28 -81 -31v3q37 11 70 34q5 3 9 7q-9 11 -16 21q-12 21 -19 49q-6 0 -10 -3l-8 8
h88l7 9zM36 223l9 -8h54l7 9l14 -11q1 -1 1 -2t-3 -2l-4 -3v-25l1 -9q0 -11 -12 -12v13h-57q-1 -9 -4 -17q-6 -21 -35 -37l-2 3q21 18 27 37t5 53q-1 6 -3 8zM198 190q4 4 1 7l2 3l16 -12q2 -2 1 -2q0 -1 -2 -2q-4 2 -9 -1q-9 -9 -19 -15q1 0 3 -2q2 -1 3 -2q15 -9 29 -12
q6 0 7 8l6 31l3 -1q-3 -25 -1 -33q0 -4 3 -9v-1q3 -2 2 -3q-2 -2 -6 -3q-24 -2 -47 12q-6 5 -11 9q-29 -15 -59 -17l-1 3q32 9 53 22q-8 10 -13 22l-4 11l-13 -2q-8 -2 -11 -5l-11 8l34 3q-2 4 -4 14v2q-1 17 -3 20q0 3 -5 7l2 3l21 -8q2 -1 2 -2q1 -1 -1 -1q-4 -1 -6 -4
q-1 -2 0 -14v-2q1 -6 4 -14l46 5l7 9l16 -8q3 -1 2 -2q0 -1 -5 -2l-65 -6l2 -5q5 -13 14 -24q10 8 17 15zM127 122q2 -3 -2 -2q-6 0 -12 -3q-4 -3 -15 -9l-16 -11l4 -2q5 -3 2 -4q-5 -1 -8 -4v-7h35l10 13l19 -14q2 -2 2 -3q-1 -1 -5 -1h-61v-44q0 -7 -4 -13q-3 -5 -20 -9
q0 8 -6 11q-4 2 -19 5l1 4l9 -2q30 -8 28 12v36h-42q-5 1 -11 -3l-8 8h61v10q0 6 -6 11l2 3l11 -5l28 24h-60q-4 0 -9 -3l-8 8h75l10 9zM215 125h-66q9 -24 17 -36q8 -13 18 -25q1 0 1 -1q8 7 12 17q12 20 18 45zM47 177h56v34h-55q0 -19 -1 -34zM53 251l1 3q25 -8 29 -17
q5 -12 -3 -15q-4 0 -6 5q-2 6 -5 11q-3 4 -16 13zM176 245l1 3q25 -4 30 -14q4 -10 -4 -12q-4 0 -5 5l-3 6l-2 2q-4 4 -17 10z" />
  </g>

</svg>
