<?xml version="1.0" standalone="no"?>
<!DOCTYPE svg PUBLIC "-//W3C//DTD SVG 1.1//EN" "http://www.w3.org/Graphics/SVG/1.1/DTD/svg11.dtd" >
<svg xmlns="http://www.w3.org/2000/svg" xmlns:xlink="http://www.w3.org/1999/xlink" version="1.1" viewBox="0 -205 1024 1024">
  <g transform="matrix(1 0 0 -1 0 819)">
   <path fill="currentColor"
d="M764 724q6 -3 6 -6q0 -4 -6 -10l-20 -10v-52l60 12l24 38l48 -36q6 -9 -2 -12l-130 -26v-58q0 -21 12 -24t34 -2h38q24 -1 36 8q12 8 16 26q0 14 4 68h18q-1 -27 4 -54q5 -26 26 -40q-8 -20 -28 -34q-19 -15 -52 -14h-100q-39 6 -48 24q-10 18 -10 46v46l-72 -14
q-12 -4 -18 -14l-24 34l114 18v108l70 -22v0v0zM606 484l52 -38h188l28 34l44 -36q9 -3 10 -12q1 -3 -28 -20v-329h26l30 34q51 -42 54 -48q3 -5 0 -10q-3 -3 -18 -4h-420q-34 -3 -46 -12l-22 40h102v401v0v0zM656 83h192v99h-192v-99v0v0zM656 208h192v94h-192v-94v0v0z
M656 328h192v92h-192v-92v0v0zM698 982l74 -26q9 -3 6 -12q0 -1 -6 -4l-24 -12v-54h126l36 40l56 -52l2 -6q-3 -6 -6 -6h-214v-66h158l26 28l54 -44q9 -6 10 -12q0 -7 -14 -10q-16 0 -34 -8q-18 -7 -60 -50l-14 10l34 62h-344v-170q4 -285 -30 -386q-36 -100 -138 -191
l-10 10q83 102 110 207q25 105 20 360v236l60 -42h122v198v0v0zM300 964q3 -3 4 -6q4 -6 -12 -12q-22 -5 -58 -52h126l22 36l52 -30q9 -6 10 -14q0 -3 -30 -26v-146l4 -76q0 -13 -14 -22q-15 -9 -38 -12v26h-206q-1 -15 -20 -26q-19 -9 -32 -6l4 120v204l48 -28h48
q23 59 34 92l58 -22v0v0zM160 654h206v56h-206v-56v0v0zM160 734h206v52h-206v-52v0v0zM160 810h206v60h-206v-60v0v0zM78 594l42 -22h274l18 20l50 -26q6 -5 6 -10q0 -3 -24 -24v-112l4 -54q1 -12 -16 -24q-17 -10 -34 -10v30h-272v-4q0 -12 -18 -24q-16 -10 -34 -10l4 110
v160v0v0zM126 386h116v66h-116v-66v0v0zM288 386h110v66h-110v-66v0v0zM126 476h116v72h-116v-72v0v0zM288 548v-72h110v72h-110v0v0zM14 288h406l26 36l42 -44q3 0 4 -6q0 -12 -8 -12h-120v-129l4 -72q0 -12 -18 -24q-18 -13 -38 -14l4 112v127h-104q-11 -108 -58 -161
q-45 -53 -126 -98l-4 16q66 48 100 98q32 46 40 145h-90q-18 0 -36 -8l-24 34v0v0z" />
  </g>

</svg>
