<?xml version="1.0" standalone="no"?>
<!DOCTYPE svg PUBLIC "-//W3C//DTD SVG 1.1//EN" "http://www.w3.org/Graphics/SVG/1.1/DTD/svg11.dtd" >
<svg xmlns="http://www.w3.org/2000/svg" xmlns:xlink="http://www.w3.org/1999/xlink" version="1.1" viewBox="0 -36 256 256">
  <g transform="matrix(1 0 0 -1 0 220)">
   <path fill="currentColor"
d="M139 179q5 23 7 44l18 -9l-6 -7q-5 -17 -8 -27h27v21q0 18 -2 45l22 -12l-7 -6v-48h24l11 10l14 -17h-49q-1 -25 -3 -48h31l12 12l16 -19h-54q8 -35 24 -60.5t31 -32.5v-4q-14 1 -19 -10q-17 20 -27.5 45.5t-14.5 58.5q-3 -33 -21 -61.5t-56 -46.5l-2 4q29 18 44.5 42.5
t21.5 64.5h-18q-10 0 -19 -2l-9 9h47q3 33 3 48h-29q-6 -18 -20 -41l-3 2q9 22 14 45zM88 230l-8 -6v-26h17l10 10l16 -17h-43v-30h20l10 10l16 -17h-89q-10 0 -19 -2l-9 9h22q0 46 -1 62l21 -7l-7 -10v-45h23q0 61 -1 77zM58 146q-5 -5 -8 -13q14 -7 15.5 -12.5t-3.5 -10
t-6.5 2.5t-6.5 18q-5 -12 -18 -24l-2 1q11 20 15 44zM110 99v-7h-88v7h88zM14 138l20 -8l-7 -7v-87l77 7v97l21 -9l-8 -6v-76q0 -10 1 -22l-14 -4v15q-74 -10 -83 -21l-12 16q5 4 5 11v94zM96 146q-5 -5 -9 -14q13 -9 13 -15t-4.5 -7.5t-5.5 5t-5 14.5q-6 -11 -18 -24l-2 2
q12 22 17 45zM61 82q-5 -5 -9 -12q13 -8 14 -13t-4 -8.5t-6 3t-5 15.5q-8 -12 -20 -24l-2 1q13 23 18 44zM97 81q-5 -4 -9 -12q11 -6 13 -11.5t-3 -9.5t-6 3t-5 16q-7 -11 -20 -25l-2 2q13 21 18 43z" />
  </g>

</svg>
