<?xml version="1.0" standalone="no"?>
<!DOCTYPE svg PUBLIC "-//W3C//DTD SVG 1.1//EN" "http://www.w3.org/Graphics/SVG/1.1/DTD/svg11.dtd" >
<svg xmlns="http://www.w3.org/2000/svg" xmlns:xlink="http://www.w3.org/1999/xlink" version="1.1" viewBox="0 -52 256 256">
  <g transform="matrix(1 0 0 -1 0 204)">
   <path fill="currentColor"
d="M125 101l17 -10q2 -1 -1 -3q-5 0 -8 -1q-6 -3 -11 -9h102l6 8l20 -11q5 -3 -1 -2h-56q-8 -16 -28 -30q3 -1 8 -2q15 -3 22 -6q39 -14 30 -26q-4 -5 -12 4q-8 8 -29 17q-3 1 -8 3q-9 4 -16 6q-41 -26 -110 -27l-1 3q67 6 98 25q-4 1 -13 2q-32 5 -49 6q13 13 22 25h-44
q-7 0 -12 -4l-9 9h70l2 2t1 2q8 9 9 14q0 2 -1 2zM118 73l-21 -21q5 0 14 -1q28 -3 43 -6q15 11 25 28h-61zM150 193l8 -8h46l9 7l13 -9q2 -1 2 -2q-1 -1 -4 -2l-4 -2v-29l1 -13q-1 -8 -12 -10l1 14v9v32h-49v-37l1 -9q0 -9 -13 -10q2 9 2 25v33q-1 6 -3 9zM66 194l8 -9h43
l9 7l11 -9q2 -1 2 -3q-1 -1 -3 -1l-5 -2v-27l1 -12q-1 -8 -12 -11l1 15l1 8v30h-46v-36l1 -9q1 -9 -12 -11v10q1 10 1 16v33q0 6 -3 8zM111 164q1 -2 -2 -2t-6 -3q0 -18 -4 -30q12 -3 18 -7q20 -12 8 -18q-4 -1 -6 3q-1 5 -7 10q-3 5 -15 9q-2 -6 -5 -10q-11 -13 -34 -21
l-2 3q36 15 36 47q2 17 0 18q0 3 -3 7l2 1zM196 164q2 -3 -1 -3l-2 -1q-1 0 -5 -3q0 -29 -10 -42q-11 -12 -31 -19l-2 3q32 15 33 43v20q0 3 -3 6l1 2zM187 122l1 3q27 -8 34 -16q9 -11 0 -15q-4 0 -7 5q-2 6 -8 12q-1 1 -3 2q-4 3 -17 9zM30 220l12 -10h175l10 13l19 -15
l2 -2q0 -1 -3 -1h-200v-49q3 -108 -35 -146l-3 2q16 28 21 58q6 29 6 84v50q0 5 -6 13zM112 249l1 3q19 -6 26 -11q8 -5 11 -11q7 -14 -3 -16q-4 -1 -6 6q-2 8 -8 13q-4 6 -21 16z" />
  </g>

</svg>
