<?xml version="1.0" standalone="no"?>
<!DOCTYPE svg PUBLIC "-//W3C//DTD SVG 1.1//EN" "http://www.w3.org/Graphics/SVG/1.1/DTD/svg11.dtd" >
<svg xmlns="http://www.w3.org/2000/svg" xmlns:xlink="http://www.w3.org/1999/xlink" version="1.1" viewBox="0 -36 256 256">
  <g transform="matrix(1 0 0 -1 0 220)">
   <path fill="currentColor"
d="M69 201l8 6l11 -13q-7 -2 -11.5 -7.5t-11.5 -14.5h20l8 7l11 -13l-8 -6q-10 -20 -17 -29q25 -11 75 -13t90 2v-4q-17 -3 -19 -12q-27 -1 -74.5 2t-80.5 16q-18 -12 -49 -19l-1 3q26 10 40 22q-9 7 -17 16l-3 4q-5 -9 -10 -19l-10 9q8 6 20 19q13 -14 28 -21q7 8 15 29
h-22l-6 -9l-11 9q14 16 23 29h-11q-11 0 -22 -2l-6 9h41zM120 177l20 -8l-6 -9v-24h22v52q-23 -2 -49 -2v4q35 3 60 8.5t35 10.5l14 -16h-10q-11 -1 -36 -4v-23h18l14 10l15 -17h-47v-23h29l13 9l16 -16h-108l-10 -2l-10 9h21q0 29 -1 41zM84 225q0 10 -1 22l22 -8l-7 -7v-6
h60q0 10 -1 21l22 -7l-7 -8v-6h36l15 10l19 -17h-70v-11l-14 -4v15h-60v-11l-14 -5v16h-36q-13 0 -22 -3l-11 10h69v-1zM61 89h60q0 8 -1 19l22 -10l-7 -6v-3h61l8 9l14 -12l-7 -5q0 -14 1 -29l-15 -5v5h-62v-25l73 2q-17 13 -27 17l3 4q40 -12 49 -19.5t3 -16.5t-12 -1.5
t-10 11.5q-166 -12 -187 -15l-8 17q28 -1 102 1v25h-60v-5l-15 -4q1 12 1 26.5t-1 25.5zM135 82v-23h62v23h-62zM61 59h60v23h-60v-23z" />
  </g>

</svg>
