<?xml version="1.0" standalone="no"?>
<!DOCTYPE svg PUBLIC "-//W3C//DTD SVG 1.1//EN" "http://www.w3.org/Graphics/SVG/1.1/DTD/svg11.dtd" >
<svg xmlns="http://www.w3.org/2000/svg" xmlns:xlink="http://www.w3.org/1999/xlink" version="1.1" viewBox="0 -36 256 256">
  <g transform="matrix(1 0 0 -1 0 220)">
   <path fill="currentColor"
d="M123 245q47 -20 21 -33h70l14 13l16 -20h-189v-83q0 -66 -43 -110l-3 4q33 43 32 111v50q0 23 -1 46l19 -11h77q1 15 -15 30zM113 104h65v22h-65v-22zM92 26l-15 -5q1 16 1 31.5t-1 30.5l15 -4h46v18h-25v-1l-15 -3q2 23 0 46l16 -6h63l8 8l13 -12l-6 -5v-19t1 -7l-15 -5
v4h-26v-18h48l6 9l15 -10l-6 -6v-29q1 -19 -18 -25q-4 12 -27 15v5q20 -2 25.5 -1.5t5.5 5.5v30h-49v-58l-15 -6q1 32 1 64h-46v-46zM115.5 180.5q4.5 -7.5 -1.5 -15t-11 4.5t-20 23l3 3q25 -8 29.5 -15.5zM137 204l22 -8l-7 -6v-32h14q16 21 24 40l18 -14l-9 -3
q-13 -11 -26 -23h41l8 9l15 -16q-11 -1 -32 -21l-3 2l11 19h-129q-1 -16 -9.5 -20t-12.5 0t5 12t13 27h4v-12h54q0 28 -1 46z" />
  </g>

</svg>
