<?xml version="1.0" standalone="no"?>
<!DOCTYPE svg PUBLIC "-//W3C//DTD SVG 1.1//EN" "http://www.w3.org/Graphics/SVG/1.1/DTD/svg11.dtd" >
<svg xmlns="http://www.w3.org/2000/svg" xmlns:xlink="http://www.w3.org/1999/xlink" version="1.1" viewBox="0 -205 1048 1024">
  <g transform="matrix(1 0 0 -1 0 819)">
   <path fill="currentColor"
d="M292 458l27 23l38 -30q16 -11 11 -16q-2 -2 -26 -4v-320q0 -21 -18 -36t-51 -20q0 20 -13 28q-11 9 -69 21v9h27q55 -4 67 -2q17 2 17 18v122h-108q-11 -61 -39 -111q-29 -46 -73 -82l-9 7q66 69 84 169q9 63 2 209v38l42 -23h91zM201 442v-80h101v80h-101zM201 345
q0 -27 -2 -48q-3 -15 -5 -29h108v77h-101zM466 404l30 103l36 -12q24 -6 22 -11q0 -7 -28 -9l-20 -71h66l30 29l42 -37q8 -11 6 -18q-4 -8 -29 -10q-11 -37 -27 -81q-20 -44 -42 -84q22 -13 37 -30q13 -16 15 -30q2 -21 -10 -21q-14 -2 -30 21l-32 37q-34 -44 -80 -78
q-34 -24 -86 -54l-7 7q49 33 81 65q40 35 72 83q-8 8 -24 16q-8 7 -26 19l-10 5l-10 -28l-2 -12q-4 -11 -6 -13q-4 -8 -16 -10q-17 0 -20 4q-2 8 5 27l59 180h-70l-6 13h80zM500 391l-44 -134q16 -4 36 -14q20 -9 30 -17q20 33 36 83q12 38 24 82h-82zM273 956
q29 -18 23 -26q-4 -7 -37 -3l-25 -45h164l33 39l51 -37q12 -10 8 -14q-2 -4 -18 -4h-178l8 -6q31 -19 43 -29q19 -14 23 -29q10 -18 10 -32q-2 -9 -10 -12q-11 -3 -21 5q-10 9 -18 25q-13 29 -23 43q-12 20 -35 35h-45q-27 -41 -59 -76q-44 -43 -89 -66l-8 5q53 36 95 100
q41 66 65 152zM616 270q24 4 49 10q21 4 44 12l1 70v75h-10l-54 -4l-8 28l58 -3h124l26 28l44 -38q16 -13 12 -22q-4 -10 -28 -14v-101q0 -85 14 -129q14 -39 36 -48q20 -7 28 0q6 9 22 48l10 19l12 -7l-24 -78q34 -28 16 -41q-20 -10 -80 15q-44 26 -62 76q-11 45 -11 138
v133h-79v-67q0 -23 -2 -34q0 -18 -2 -31q18 4 34 11q14 6 32 12l6 -14q-17 -9 -36 -20q-18 -10 -37 -22q-13 -85 -51 -138q-33 -49 -100 -88l-8 9q50 37 77 81q25 44 36 117q-15 -8 -21 -10q-11 -5 -19 -7q0 -27 -9 -29q-8 0 -20 21zM566 776q29 -6 25 -12q-5 -6 -27 -15
v-57h253l40 37l54 -35q15 -10 9 -14q-5 -4 -21 -4h-616v-98q0 -9 12 -13q8 -2 41 -2h2q62 -6 221 -2q190 0 303 6q30 4 35 -12q2 -15 -32 -17q-83 -8 -304 -7q-182 -2 -229 4h-3q-65 5 -77 9q-14 7 -14 32v100h-23l-70 -2l-10 18h67h317v59l-4 29zM476 769q-14 -11 -26 -20
l-11 6q57 47 93 96q50 62 69 130l41 -19q26 -16 24 -24q-4 -8 -37 -4q-6 -15 -16 -27q-6 -12 -16 -27h260l36 41l49 -37q10 -10 4 -16q-4 -4 -18 -4h-226l20 -10q32 -17 45 -25q24 -16 32 -33q17 -38 -6 -45q-20 -4 -39 35q-13 25 -30 43q-15 16 -43 35h-97q-14 -15 -30 -33
q-45 -39 -54.5 -46t-23.5 -16z" />
  </g>

</svg>
