<?xml version="1.0" standalone="no"?>
<!DOCTYPE svg PUBLIC "-//W3C//DTD SVG 1.1//EN" "http://www.w3.org/Graphics/SVG/1.1/DTD/svg11.dtd" >
<svg xmlns="http://www.w3.org/2000/svg" xmlns:xlink="http://www.w3.org/1999/xlink" version="1.1" viewBox="0 -205 1048 1024">
  <g transform="matrix(1 0 0 -1 0 819)">
   <path fill="currentColor"
d="M335 474h24l28 257l31 -27h168l29 30l38 -36q20 -19 17 -27q-4 -8 -32 -9l-8 -188h17l23 42l43 -38q10 -10 6 -15q-4 -6 -16 -6h-74q-4 -68 -9 -119q-6 -58 -15 -102l35 -1l32 40l37 -37q10 -8 6 -14q-4 -5 -16 -5l-97 1q-15 -58 -38 -96q-23 -37 -59 -55q-3 26 -15 35
q-14 12 -74 37l2 10q77 -18 102 -7q26 11 45 76h-197l-3 -28l-1 -16q-3 -14 -5 -20q-5 -8 -16 -14q-16 -6 -18 -1q-2 4 1 22l3 16l28 278h-10l-54 -3l-11 23zM630 875l43 -40q10 -8 6 -14q-3 -5 -16 -5h-251l-1 5q-34 -57 -115 -119l-9 9q15 8 58 66.5t90 192.5l33 -22
q26 -18 24 -24q-3 -5 -28 -4l-47 -88h181zM418 688l-23 -213h198l1 32q3 56 3 86q2 51 3 95h-182zM451 651q36 -20 64 -51t36 -62q9 -27 -5 -40q-14 -12 -25 21q-6 21 -24 55q-23 40 -51 70zM454 422q29 -23 53 -53q24 -34 34 -71q6 -25 -6 -38q-15 -13 -22 15q-8 33 -23 64
q-15 35 -39 73zM794 962q26 -14 24 -20q-2 -5 -28 -9l-21 -99q-11 -47 -23 -88h178l28 42l40 -38q12 -9 7 -14q-4 -6 -16 -6h-50q8 -12 6 -15q-3 -2 -16 -2h-5q-19 -139 -37 -227q-22 -100 -52 -170q28 -53 70 -98q42 -44 102 -87v-12q-17 3 -33 -5q-17 -8 -26 -26
q-47 54 -77 96q-32 46 -55 95q-40 -72 -103 -122q-62 -48 -158 -86l-4 11q88 37 151 102q57 57 97 138q-24 58 -42 140q-17 77 -36 197q-12 -30 -30 -64q-14 -30 -36 -69l-8 5q45 99 75 227q20 89 39 223zM394 457l-24 -221h199q6 38 13 93q5 55 9 128h-86h-111zM808 359
q30 80 47 183q10 77 19 188h-134l-17 -51q19 -109 38 -179q21 -81 47 -141zM288 961q29 -15 25 -24q-4 -7 -35 -4q-50 -57 -101 -107q-65 -65 -126 -107l-9 9q60 55 114 119q54 67 94 134zM168 517l-54 -56l-61 -57l-8 10q61 71 112 149q50 79 102 186l50 -27q24 -11 16 -18
q-9 -6 -38 -7l-38 -60l-33 -49q29 -14 22 -21q-6 -5 -27 -7v-426v-23q2 -18 -1 -24q-5 -9 -25 -16q-16 -4 -19 -1q-2 2 -1 17l3 25v405z" />
  </g>

</svg>
