<?xml version="1.0" standalone="no"?>
<!DOCTYPE svg PUBLIC "-//W3C//DTD SVG 1.1//EN" "http://www.w3.org/Graphics/SVG/1.1/DTD/svg11.dtd" >
<svg xmlns="http://www.w3.org/2000/svg" xmlns:xlink="http://www.w3.org/1999/xlink" version="1.1" viewBox="0 -36 256 256">
  <g transform="matrix(1 0 0 -1 0 220)">
   <path fill="currentColor"
d="M69 247l20 -8l-6 -4v-10h28l11 8l12 -15h-51v-15h16l10 7l14 -14h-74l-10 -1l-8 8h39v15h-26q-11 0 -21 -2l-9 9h56q0 11 -1 22zM31 184h82l6 6l14 -14q-10 0 -27 -12l-4 1l11 12h-82q-3 -8 -8 -11.5t-10.5 0t2.5 8t12 18.5l4 -1v-7zM93 157l9 7l14 -14h-62q-11 0 -20 -2
l-10 9h69zM217 187q-16 -15 -31 -23q21 -11 54 -13v-2q-14 -2 -17 -12q-24 7 -47 22q-30 -14 -63 -19l-1 5q33 8 55 20q-13 13 -20 23h-2l-7 -1l-9 8h74l6 6l16 -12zM175 170q15 9 24 18h-45q9 -9 21 -18zM215 213q13 0 17 1t8 -1t3.5 -6t-10.5 -4h-26q-19 -1 -18 11v16h-31
q0 -25 -33 -39l-2 4q17 11 20 24t3 25l15 -7h27l6 8l14 -10l-6 -4v-12q0 -6 13 -6zM57 131q30 6 44 14l15 -13l-13 -1q-22 -2 -46 -5v-12h32l11 7l15 -14h-58v-11h131v11h-27q-11 0 -20 -2l-10 9h57v13h-32q-11 0 -21 -2l-9 9h60l9 7l16 -10l-8 -5v-17l1 -19l-16 -6v5h-131
v-1l-15 -3q1 13 1 26t-1 25zM45 11l-11 11q4 5 5 10q0 39 -1 53l20 -6l-6 -6v-45l43 10l1 -4q-39 -15 -51 -23zM112 33q0 35 -1 53l20 -7l-6 -5v-46l39 9l1 -4q-33 -12 -48 -22l-9 11q4 5 4 11zM239 53l5 -1q-4 -21 3 -43q-23 3 -36 10t-20 15.5t-12 21t-7 28.5l22 -5l-7 -6
q2 -17 12.5 -30t33.5 -17zM77 70l9 5l11 -12h-49v7h29zM78 53l9 5l11 -12h-50v7h30zM149 68l10 5l11 -12h-51v7h30zM150 51l10 5l11 -12h-52v7h31z" />
  </g>

</svg>
