<?xml version="1.0" standalone="no"?>
<!DOCTYPE svg PUBLIC "-//W3C//DTD SVG 1.1//EN" "http://www.w3.org/Graphics/SVG/1.1/DTD/svg11.dtd" >
<svg xmlns="http://www.w3.org/2000/svg" xmlns:xlink="http://www.w3.org/1999/xlink" version="1.1" viewBox="0 -36 256 256">
  <g transform="matrix(1 0 0 -1 0 220)">
   <path fill="currentColor"
d="M44 245l24 -9l-9 -8v-42h7l10 12l11 -19h-28v-48l24 13l2 -4l-26 -20v-82q1 -23 -20 -30q2 10 -19 18v5q12 -1 18.5 -1t6.5 12v69q-26 -16 -25 -18l-11 16q10 3 36 16v54h-20l-6 -1l-8 8h34q0 35 -1 59zM122 194l8 9l12 -16h-44q-7 0 -12 -2l-6 9h42zM99 40h21v45h-21
v-45zM120 160l8 9l10 -16h-35q-7 0 -12 -2l-7 9h36zM120 125l8 8l10 -15h-35q-7 1 -11 -2l-9 9h37zM87 101l11 -9h23l7 9l11 -14l-7 -5v-57l-12 -6v14h-21v-16l-12 -5v89zM114 226q6 -9 2 -15t-7.5 -7t-5 11.5t-8.5 23.5l2 3q11 -7 17 -16zM164 70h51v31h-51v-31zM164 32h51
v31h-51v-31zM147 242l19 -9l-6 -6v-31h13l7 9l11 -16h-31v-35l29 10l1 -5q-31 -19 -36 -26l-11 12q4 3 4 13v84zM192 243l19 -8l-5 -8v-37q21 22 26 34l14 -17l-8 -2q-15 -13 -32 -23v-26q0 -12 11 -12h11q4 1 5.5 10.5t1.5 18.5h4q0 -9 1 -16.5t7 -11.5q-5 -11 -17 -12h-21
q-15 0 -16 20v52q0 18 -1 38zM179 144l15 -11q-7 -3 -19 -25h40l7 9l11 -12l-5 -5v-54q0 -12 1 -30l-14 -6v15h-51v-13l-14 -6q1 27 1 53.5t-1 55.5l13 -7h7q9 26 9 36z" />
  </g>

</svg>
