<?xml version="1.0" standalone="no"?>
<!DOCTYPE svg PUBLIC "-//W3C//DTD SVG 1.1//EN" "http://www.w3.org/Graphics/SVG/1.1/DTD/svg11.dtd" >
<svg xmlns="http://www.w3.org/2000/svg" xmlns:xlink="http://www.w3.org/1999/xlink" version="1.1" viewBox="0 -205 1024 1024">
  <g transform="matrix(1 0 0 -1 0 819)">
   <path fill="currentColor"
d="M56 738h146v242l70 -34q15 -6 12 -12q1 -6 -34 -18v-178h60l32 46l54 -54q3 -4 4 -8q0 -10 -12 -10h-138v-190l150 74l12 -16l-162 -94v-359q2 -30 -16 -58q-18 -26 -56 -34q-7 32 -28 46t-78 34l4 16q94 -28 110 -24q15 6 16 32v323l-66 -44q-36 -27 -54 -48l-48 54
l168 78v210h-62q-21 0 -68 -8l-16 34v0v0zM890 942l60 -46q8 -4 8 -10q1 -3 -34 -24v-92l4 -74q1 -15 -16 -24q-17 -10 -40 -14v44h-376q-3 -160 -24 -278q-18 -118 -66 -220q-47 -100 -124 -185l-14 10q64 84 104 189q38 105 56 216q15 111 16 268v248l66 -48h350l30 40v0
v0zM496 876v-148h376v148h-376v0v0zM774 662q2 -6 2 -8l-6 -8l-30 -18v-94h158l36 46l54 -54q3 -3 4 -8q-1 -12 -16 -12h-236v-156h98l36 42l54 -40q12 -7 12 -14q1 -7 -34 -28v-158l4 -87q2 -15 -16 -24q-18 -12 -36 -12v76h-282v-40q0 -15 -14 -24q-15 -11 -38 -14l4 113
v254l56 -44h106v156h-118q-21 0 -68 -8l-16 36h202v152l84 -24v0v0zM576 133h282v191h-282v-191v0v0z" />
  </g>

</svg>
