<?xml version="1.0" standalone="no"?>
<!DOCTYPE svg PUBLIC "-//W3C//DTD SVG 1.1//EN" "http://www.w3.org/Graphics/SVG/1.1/DTD/svg11.dtd" >
<svg xmlns="http://www.w3.org/2000/svg" xmlns:xlink="http://www.w3.org/1999/xlink" version="1.1" viewBox="0 -140 1000 1000">
  <g transform="matrix(1 0 0 -1 0 860)">
   <path fill="currentColor"
d="M609 388h-117v-234l-43 -6v279q25 -15 72 -15q7 0 42.5 2.5t41.5 2.5v96h-164q-1 -1 -3 -10q-16 -69 -46 -69q-14 0 -14 14q0 19 51 113q4 0 4 -1q7 -16 8 -23h398l23 23q1 0 10.5 -6t23 -15.5t21.5 -17.5v-8q-37 -11 -94 -70h-9q0 2 12 33l13 30q0 2 -1 4q-2 3 -179 3
v-101h94q11 12 23 23q1 0 2 1q5 0 30.5 -12.5t30.5 -19.5q-2 -4 -9 -8t-12 -6l-6 -2v-195q-3 -38 -90 -52q1 4 1 12q0 39 -68 39v-129l-46 -8v333zM769 232v156h-110v-179q72 -8 78 -8q9 0 14 1t11 8.5t7 21.5zM308 802l24 16l39 -32l-16 -23v-538l-55 -8v31h-175v-31
l-51 -8v616q2 -1 15 -9l13 -9q12 -5 206 -5zM129 435v-164h171v164h-171zM129 607v-141h171v141h-171zM566 755h-31q-44 -158 -133 -165v9q78 64 78 125q0 5 -2 35h-68l-8 16h78l12 19v104q67 0 67 -22q0 -4 -9.5 -11t-14.5 -8v-78h35v118q75 -1 75 -23q-1 -1 -1 -2
q-14 -10 -24 -15v-78h43v118q58 -2 74 -25l-23 -15v-78h35v118q64 1 74 -25l-23 -15v-75q15 0 24 -1q6 -2 8 -2q16 0 30 31q48 -24 63 -39l-8 -12h-117v-125h94v-27h-125q-7 5 -20 23v125h-39v-156q-15 -15 -51 -15v35q-2 0 -17 6t-18 6q-5 0 -9 -23q-2 -8 -4 -12t-13 -7.5
t-32 -4.5v171zM129 771v-133h171v133h-171zM620 755v-101h39v101h-39z" />
  </g>

</svg>
