<?xml version="1.0" standalone="no"?>
<!DOCTYPE svg PUBLIC "-//W3C//DTD SVG 1.1//EN" "http://www.w3.org/Graphics/SVG/1.1/DTD/svg11.dtd" >
<svg xmlns="http://www.w3.org/2000/svg" xmlns:xlink="http://www.w3.org/1999/xlink" version="1.1" viewBox="0 -36 256 256">
  <g transform="matrix(1 0 0 -1 0 220)">
   <path fill="currentColor"
d="M67 16l-13 -7q1 25 1 95q-1 -23 -27 -65l-3 2q23 50 29 106q-4 0 -10 -3l-7 8h18q0 28 -1 45l19 -11l-7 -5v-29h3l7 8l8 -15h-18v-11q11 -7 16 -16.5t2 -20t-5.5 1t-12.5 31.5q0 -94 1 -114zM87.5 229q2.5 -7 -3 -14.5t-8 4.5t-14.5 25l3 3q20 -11 22.5 -18zM32 99.5
q-2 -24.5 -7.5 -51t-13.5 -40.5l-2 2q6 20 8.5 48t4 59.5t0.5 99.5l13 -9h78l11 12l14 -19h-103q-1 -77 -3 -101.5zM113 21l-13 -10q1 23 1 99q-8 -37 -32 -71l-3 2q24 50 34 106q-5 0 -10 -3l-7 8h18q0 28 -1 45l18 -11l-6 -5v-29h8l7 8l8 -15h-23v-13q17 -18 21.5 -27.5
t0 -20t-7 3.5t-14.5 37q0 -89 1 -104zM183 193h-35q0 -12 -2 -17t-6.5 -7t-8.5 1t0.5 8t7.5 11t6 20h3v-9h35v20h-10q-10 -1 -19 -3l-9 10h74l8 8l13 -15h-45v-20h38l5 8l11 -13q-8 -4 -17 -22l-3 2l5 18h-39q0 -22 1 -43l-14 -7q1 28 1 50zM142 45v39q0 18 -1 28l12 -8h20
q4 12 6 21h-21q-10 0 -19 -2l-9 9h93l10 11l14 -18h-54l-15 -21h49l7 8l11 -11l-7 -4v-66q1 -16 -14 -22q0 10 -17 14v4q14 -1 17.5 -1t2.5 11v60h-19v-61l-11 -6v67h-16v-67l-11 -7v74h-17v-81l-12 -7q1 24 1 36zM177 173v-7h-27v7h27zM177 152v-7h-27v7h27zM228 152v-7
h-25v7h25zM228 173v-7h-25v7h25z" />
  </g>

</svg>
