<?xml version="1.0" standalone="no"?>
<!DOCTYPE svg PUBLIC "-//W3C//DTD SVG 1.1//EN" "http://www.w3.org/Graphics/SVG/1.1/DTD/svg11.dtd" >
<svg xmlns="http://www.w3.org/2000/svg" xmlns:xlink="http://www.w3.org/1999/xlink" version="1.1" viewBox="0 -205 1024 1024">
  <g transform="matrix(1 0 0 -1 0 819)">
   <path fill="currentColor"
d="M536 928q13 -7 8 -14q-3 -6 -14 -6q-12 0 -32 -24q-19 -23 -50 -70h276l34 42l58 -42q9 -7 10 -14q1 -6 -34 -30v-186l4 -68q4 -13 -16 -28q-19 -14 -40 -16v40h-460v-20q0 -15 -20 -26q-18 -10 -36 -10l4 114v286l60 -42h132q42 104 48 142l68 -28v0v0zM280 540h460v112
h-460v-112v0v0zM280 680h460v106h-460v-106v0v0zM116 412h682l38 54l62 -60q3 -3 4 -12q-1 -10 -16 -10h-358v-128h212l34 48l62 -56q3 -3 4 -8q0 -12 -12 -12h-300v-139h334l42 53l68 -59q3 -5 4 -10q-1 -12 -16 -12h-826q-19 1 -68 -8l-16 36h426v139h-232q-21 0 -68 -8
l-16 36h316v128h-282q-15 0 -62 -8l-16 36v0v0z" />
  </g>

</svg>
