<?xml version="1.0" standalone="no"?>
<!DOCTYPE svg PUBLIC "-//W3C//DTD SVG 1.1//EN" "http://www.w3.org/Graphics/SVG/1.1/DTD/svg11.dtd" >
<svg xmlns="http://www.w3.org/2000/svg" xmlns:xlink="http://www.w3.org/1999/xlink" version="1.1" viewBox="0 -36 256 256">
  <g transform="matrix(1 0 0 -1 0 220)">
   <path fill="currentColor"
d="M212 47h-42q-21 -1 -20 26v122q0 6 -1 48l23 -10l-8 -10v-74q40 33 53 56l16 -17l-10 -4q-26 -22 -59 -42v-57q-1 -25 10 -25h32q9 2 9 10.5t1 40.5h5q-1 -42 15 -48q-6 -14 -24 -16zM73 197q0 30 -1 50l22 -9l-7 -8v-33h15l14 11l15 -18h-44v-40h27l15 12l16 -19h-64
l16 -9l-6 -8v-26h20l13 11l16 -18h-49v-48q26 -14 67 -16t90 5v-4q-15 -8 -16 -16q-22 -1 -63.5 0.5t-70 14t-49.5 34.5q-9 -33 -39 -56l-2 3q20 24 27.5 54t5.5 58l21 -10l-6 -6q-2 -17 -5 -34q14 -13 26 -20v91h-34q-11 0 -20 -2l-9 9h59v40h-14q-10 0 -20 -2l-9 9h43z
" />
  </g>

</svg>
