<?xml version="1.0" standalone="no"?>
<!DOCTYPE svg PUBLIC "-//W3C//DTD SVG 1.1//EN" "http://www.w3.org/Graphics/SVG/1.1/DTD/svg11.dtd" >
<svg xmlns="http://www.w3.org/2000/svg" xmlns:xlink="http://www.w3.org/1999/xlink" version="1.1" viewBox="0 -36 256 256">
  <g transform="matrix(1 0 0 -1 0 220)">
   <path fill="currentColor"
d="M31 86h23v121h-23v-121zM66 202v-105q0 -17 1 -39l-13 -7v28h-23v-36l-13 -6q1 19 1 38v115q0 19 -1 34l12 -10h24l8 9l11 -15zM110 229q11 -40 20.5 -59t23.5 -27v-4q-8 0 -13 -9q-15 20 -22 41.5t-12 49.5q-4 -32 -13.5 -56t-27.5 -43l-2 3q12 19 21 48t13 72l18 -11z
M99 14l-4 3q18 42 33 79h-29q-10 0 -19 -3l-9 10h59l6 8l12 -14l-8 -7q-14 -30 -41 -76zM166 154h54v31h-54v-31zM166 116h54v31h-54v-31zM166 79h54v30h-54v-30zM183 224h-15q-10 0 -19 -2l-9 9h78l13 12l14 -19h-48q-5 -7 -18 -32h40l8 9l13 -15l-8 -6v-80q0 -15 1 -34
l-13 -6v12h-54v-10l-13 -5q1 22 1 73.5t-1 67.5l13 -6h8q7 21 9 32zM188 51l-8 -4q-28 -31 -44 -40l-2 2q34 39 39 56zM231.5 37q8.5 -11 4 -23.5t-10 4.5t-23.5 42l2 3q19 -15 27.5 -26zM111 137l10 11l14 -18h-39q-10 0 -11 -2l-4 9h30z" />
  </g>

</svg>
