<?xml version="1.0" standalone="no"?>
<!DOCTYPE svg PUBLIC "-//W3C//DTD SVG 1.1//EN" "http://www.w3.org/Graphics/SVG/1.1/DTD/svg11.dtd" >
<svg xmlns="http://www.w3.org/2000/svg" xmlns:xlink="http://www.w3.org/1999/xlink" version="1.1" viewBox="0 -246 2048 2048">
  <g transform="matrix(1 0 0 -1 0 1802)">
   <path fill="currentColor"
d="M1239 1348h321l66 72q121 -93 121 -121q0 -12 -21 -20l-53 -21q-100 -156 -228 -280q225 -153 508 -226q-50 -54 -73 -114q-284 97 -502 278q-224 -193 -524 -309l-31 45q274 128 483 328q-110 103 -182 219q-109 -127 -258 -230l-39 37q267 230 385 537q154 -43 154 -72
q0 -20 -76 -35q-27 -49 -51 -88zM1204 1297l-45 -59q79 -101 205 -203q115 121 196 262h-356zM532 1442h152l63 78q104 -86 104 -111q0 -11 -14 -22l-41 -31v-723h-102v64h-384v-92h-106v749q-45 -59 -104 -125l-39 31q211 304 284 680q181 -16 181 -56q0 -21 -76 -43
q-3 -10 -11 -32q-7 -19 -10 -29h152l74 88q114 -93 114 -123q0 -13 -20 -22l-55 -25q-60 -114 -162 -256zM473 1442q74 160 108 287h-170q-49 -127 -129 -260q22 -10 49 -27h142zM310 1391v-287h140v287h-140zM550 1391v-287h144v287h-144zM694 1053h-144v-305h144v305z
M450 1053h-140v-305h140v305zM1158 629h459l57 53q111 -64 111 -86q0 -12 -14 -20l-31 -23v-460h-111v100h-483v-100h-113v587q71 -20 125 -51zM1146 578v-334h483v334h-483zM1534 1684v252q184 -9 184 -53q0 -26 -78 -50v-149h141l76 109q70 -70 105 -123l-21 -37h-301
v-152h-106v152h-104l-21 51h125zM1046 1633h-240l-20 51h260v246q179 -9 179 -51q0 -23 -70 -48v-147h61l74 102q38 -37 99 -116l-21 -37h-213v-166h-109v166zM213 541l51 -10q8 -47 8 -101q0 -165 -47 -254q-36 -69 -86 -69q-68 0 -68 61q0 31 29 60q103 106 113 313z
M344 529l45 12q92 -166 92 -293q0 -125 -82 -125q-51 0 -51 55q0 7 6 41q12 61 12 125q0 75 -22 185zM501 543l41 21q150 -165 150 -314q0 -88 -68 -88q-51 0 -51 76q0 158 -72 305zM653 570l31 30q109 -79 167 -168q48 -72 48 -130q0 -70 -62 -70q-45 0 -55 70
q-22 144 -129 268z" />
  </g>

</svg>
