<?xml version="1.0" standalone="no"?>
<!DOCTYPE svg PUBLIC "-//W3C//DTD SVG 1.1//EN" "http://www.w3.org/Graphics/SVG/1.1/DTD/svg11.dtd" >
<svg xmlns="http://www.w3.org/2000/svg" xmlns:xlink="http://www.w3.org/1999/xlink" version="1.1" viewBox="0 -36 256 256">
  <g transform="matrix(1 0 0 -1 0 220)">
   <path fill="currentColor"
d="M80 40h29v38h-29v-38zM21 73q0 31 -1 62l15 -7h74l10 9l15 -13l-10 -8v-55q0 -22 1 -39l-16 -6v17h-73v-11l-16 -9q1 29 1 60zM36 85h30v36h-30v-36zM80 85h29v36h-29v-36zM36 40h30v38h-30v-38zM119 211.5q-6 -8.5 -20 -25.5q19 -14 24 -22t-2.5 -16.5t-10.5 6.5t-16 32
q19 36 19 49l18 -11q-6 -4 -12 -12.5zM44.5 213q-5.5 -8 -17.5 -28q19 -15 21.5 -25t-4.5 -17.5t-10.5 8t-14.5 34.5q16 30 17 52l20 -10q-6 -6 -11.5 -14zM79 214q-5 -7 -16 -28q20 -17 21.5 -26t-5.5 -16t-8 6.5t-14 35.5q13 31 15 52l19 -10q-7 -7 -12 -14zM172 245
l22 -9l-7 -10v-39h23l11 12l13 -19h-47q-1 -39 -2 -55h30l14 13l15 -20h-51q7 -39 23 -63.5t31 -29.5l-1 -5q-13 0 -18 -10q-16 14 -26 40.5t-14 67.5h-5q-5 -40 -22 -67.5t-37 -42.5l-2 4q18 18 31 46t17 60h-8q-9 0 -17 -2l-8 9h34q2 25 2 55h-12q-9 0 -17 -2l-8 9h37
q0 33 -1 58z" />
  </g>

</svg>
