<?xml version="1.0" standalone="no"?>
<!DOCTYPE svg PUBLIC "-//W3C//DTD SVG 1.1//EN" "http://www.w3.org/Graphics/SVG/1.1/DTD/svg11.dtd" >
<svg xmlns="http://www.w3.org/2000/svg" xmlns:xlink="http://www.w3.org/1999/xlink" version="1.1" viewBox="0 -36 256 256">
  <g transform="matrix(1 0 0 -1 0 220)">
   <path fill="currentColor"
d="M31.5 138q-4.5 -11 -13.5 -11t-9 3.5t8 15t14 43.5h4q1 -40 -3.5 -51zM43 245l23 -13l-9 -8v-171q0 -22 1 -36l-15 -10q1 36 1 58v127q0 29 -1 53zM81 176.5q6 -8.5 4 -18t-7.5 -10t-7.5 13t-11 34.5l3 2q13 -13 19 -21.5zM179 247l22 -10l-7 -7v-37h15l12 11l15 -19h-42
v-45h24l15 13l14 -20h-47q9 -36 22 -56.5t26 -29.5v-3q-17 1 -21 -7q-12 19 -20 42.5t-12 53.5h-1v-94q0 -11 1 -24l-15 -7q1 21 1 105q-10 -26 -27.5 -49t-42.5 -39l-2 3q23 23 39 49t24 56h-8q-12 0 -21 -2l-9 9h47v45h-22q-7 -20 -20 -39l-3 2q13 34 19 83l18 -10l-6 -6
l-6 -22h20q0 34 -2 54zM96 68v67q-10 0 -19 -2l-10 10h29v59q-10 0 -19 -2l-10 9h47l11 11l15 -18h-32v-59h4l10 10l14 -18h-28v-64l28 9l1 -4q-55 -25 -64 -35l-9 18q13 3 32 9z" />
  </g>

</svg>
