<?xml version="1.0" standalone="no"?>
<!DOCTYPE svg PUBLIC "-//W3C//DTD SVG 1.1//EN" "http://www.w3.org/Graphics/SVG/1.1/DTD/svg11.dtd" >
<svg xmlns="http://www.w3.org/2000/svg" xmlns:xlink="http://www.w3.org/1999/xlink" version="1.1" viewBox="0 -36 256 256">
  <g transform="matrix(1 0 0 -1 0 220)">
   <path fill="currentColor"
d="M16 166l-2 3q23 14 39 28.5t23 29.5l22 -13l-11 -4q-31 -28 -71 -44zM171 222q59 -16 66 -26t3 -18.5t-16.5 5.5t-54.5 35zM139 195q0 -7 1 -18l-18 -7q1 20 1 42t-1 34l26 -9l-9 -6v-36zM208 176h-16q-36 -21 -73 -31.5t-106 -17.5l-1 5q66 9 107 24.5t69 38.5zM196 127
l22 -11l-8 -8q0 -15 1 -35l-15 -6v9h-58v-48h71q0 17 -1 31l23 -10l-7 -5q0 -13 1 -28l-16 -6v11h-155l-9 -8l-15 12l8 6q0 20 -1 35l24 -11l-8 -7v-20h70v48h-60l-8 -7l-14 13l7 6q0 23 -1 38l25 -10l-10 -7v-26h61q0 31 -1 60l25 -12l-9 -7v-41h58v44z" />
  </g>

</svg>
