<?xml version="1.0" standalone="no"?>
<!DOCTYPE svg PUBLIC "-//W3C//DTD SVG 1.1//EN" "http://www.w3.org/Graphics/SVG/1.1/DTD/svg11.dtd" >
<svg xmlns="http://www.w3.org/2000/svg" xmlns:xlink="http://www.w3.org/1999/xlink" version="1.1" viewBox="0 -205 1024 1024">
  <g transform="matrix(1 0 0 -1 0 819)">
   <path fill="currentColor"
d="M564 980l72 -28q7 -4 2 -10q-1 -3 -28 -18v-72h138v132l72 -30q5 -1 2 -8q-1 -2 -28 -16v-78h100l36 42l60 -54q3 -1 4 -8q1 -6 -16 -6h-184v-46q-1 -16 -16 -22q-21 -6 -30 -6v74h-138v-46q0 -16 -18 -22q-7 -6 -28 -6v74h-80q-22 -1 -64 -10l-18 36h162v128v0v0z
M970 366h-440v-14q0 -7 -20 -16q-18 -9 -32 -8l4 94v182q-39 -45 -66 -72l-14 10q24 39 58 100q33 60 58 120l56 -26q6 -6 0 -12q1 -3 -10 -6q-11 -6 -16 -14q-6 -6 -14 -18h328l34 40l56 -46q3 -7 4 -10q0 -9 -8 -8h-218v-74h116l30 38l52 -50q2 -3 2 -6q-3 -6 -8 -6h-192
v-74h116l32 36l52 -46q-1 0 2 -2q3 -12 -2 -12h-200v-76h156l32 40l54 -50q2 -5 2 -10l-4 -4v0v0zM530 390h152v76h-152v-76v0v0zM682 490v74h-152v-74h152v0v0zM682 588v74h-152v-74h152v0v0zM634 792l8 10q42 -21 64 -36q20 -16 26 -32q6 -15 -2 -26q-6 -12 -24 -12
q-17 0 -22 16q-4 15 -10 30q-7 16 -40 50v0v0zM782 304l28 28l50 -42q12 -13 -6 -16q-28 -6 -58 -42q-43 -46 -82 -76q39 -24 94 -39q54 -14 88 -20q32 -6 98 -6v-18q-33 -4 -48 -14q-12 -8 -30 -32q-54 17 -96 34q-42 18 -78 36q-35 17 -64 34q-70 -41 -142 -68
q-73 -23 -166 -44l-4 16q93 27 156 54q63 26 126 67q-72 55 -116 122h-30q-15 -3 -26 -6l-20 32h326v0v0zM558 278q45 -57 120 -102q48 39 96 102h-216v0v0zM40 808h158v180l74 -30q10 -6 2 -14l-28 -14v-122h68l34 42l50 -50q3 -3 4 -6q0 -12 -12 -12h-144v-122h60l34 42
l48 -46q3 -3 4 -12q1 -7 -10 -8h-136v-120h60l40 44l48 -48l6 -12q0 -10 -12 -10h-142v-50q51 -15 84 -30q32 -15 44 -38q12 -22 6 -40q-5 -18 -22 -20q-16 -1 -28 20q-10 20 -28 44t-56 46v-282l4 -83q0 -11 -18 -26t-38 -16l4 124v235q-37 -75 -70 -126q-31 -52 -92 -113
l-12 7q59 89 104 184q42 95 64 164h-78q-21 0 -68 -8l-16 34h168v120h-60q-21 0 -56 -8l-16 32h132v122h-74q-21 0 -68 -8l-16 34v0v0z" />
  </g>

</svg>
