<?xml version="1.0" standalone="no"?>
<!DOCTYPE svg PUBLIC "-//W3C//DTD SVG 1.1//EN" "http://www.w3.org/Graphics/SVG/1.1/DTD/svg11.dtd" >
<svg xmlns="http://www.w3.org/2000/svg" xmlns:xlink="http://www.w3.org/1999/xlink" version="1.1" viewBox="0 -205 1024 1024">
  <g transform="matrix(1 0 0 -1 0 819)">
   <path fill="currentColor"
d="M418 916h396l28 36l62 -38q8 -6 8 -12t-32 -30v-190l4 -106q1 -19 -34 -34q-19 -6 -22 -6v40h-334q-24 -1 -48 -10l-20 38h402v120h-298q-25 0 -52 -6l-20 34h370v136h-350q-21 -3 -36 -6l-24 34v0v0zM904 442q9 -10 -2 -16q-27 4 -56 -24q-28 -27 -112 -104
q33 -63 82 -104q45 -41 84 -57q36 -18 96 -30v-18q-41 3 -64 -10q-21 -11 -32 -26q-46 30 -88 72q-43 40 -86 109q-43 68 -70 238l-4 -10q-12 -147 -66 -230q-54 -81 -132 -131q-78 -51 -168 -78l-6 16q95 46 152 88q54 38 100 105q46 66 62 154q15 87 18 178l86 -30
q6 -6 4 -12q0 -1 -30 -16l6 -22q15 -91 46 -164q60 66 114 168l66 -46v0v0zM518 486q-4 -75 -10 -116t-30 -64q-21 -24 -42 -24q-18 -2 -30 12q-10 15 4 30t32 30q18 14 30 44q12 27 24 88h22v0v0zM46 904h276l30 50l58 -56q3 -3 4 -8q0 -12 -12 -12h-150v-260h58l36 44
l52 -54q3 -2 4 -4q0 -12 -8 -12h-142v-280l150 50l8 -14q-231 -102 -272 -120q-38 -17 -58 -46l-46 58l168 56v296h-60q-21 0 -68 -8l-16 34h144v260h-84q-21 0 -56 -8l-16 34v0v0z" />
  </g>

</svg>
