<?xml version="1.0" standalone="no"?>
<!DOCTYPE svg PUBLIC "-//W3C//DTD SVG 1.1//EN" "http://www.w3.org/Graphics/SVG/1.1/DTD/svg11.dtd" >
<svg xmlns="http://www.w3.org/2000/svg" xmlns:xlink="http://www.w3.org/1999/xlink" version="1.1" viewBox="0 -154 1024 1024">
  <g transform="matrix(1 0 0 -1 0 870)">
   <path fill="currentColor"
d="M334 972l7 10q67 -42 90 -77q23 -38 21 -68q-2 -31 -23 -34q-21 -4 -22 29q-1 31 -17 67q-14 33 -56 73zM734 441q17 -56 36 -102q64 152 67 383h-164q0 -1 -1 -2q35 -198 62 -279zM188 778h-104v-439h104v439zM585 582l-13 10q38 72 62 135q27 68 44 140q17 71 14 83
q-3 11 -13 26l8 6l85 -32q7 -12 -5 -14q-19 -3 -28 -17q-29 -103 -58 -178h212l31 45l66 -50q22 -15 -11 -14h-98q-6 -271 -88 -435q30 -63 70 -104q43 -42 71 -56q27 -15 75 -30l1 -16q-38 1 -56 0q-18 0 -26 -23q-78 54 -130 133q-18 22 -31 51q-94 -140 -283 -220l-8 12
q190 111 269 253q-17 41 -32 86q-31 91 -62 306q-26 -45 -66 -97zM560 537v-116q-4 -160 -18 -222q-16 -62 -45 -90q-30 -28 -91 -37q4 24 -21 38q-27 15 -60 31l4 14q36 -10 89 -25q60 -1 77 65t23 234v119h-125v-42q-1 -135 -42 -246q-40 -112 -126 -202l-12 10
q90 131 114 232q24 100 24 227v225h-43q-27 0 -45 -13l-32 30l-9 -4v-376l6 -135q-4 -36 -40 -32v97h-104v-107q3 -40 -41 -44q4 36 7 122v489q-3 23 -17 38l14 12l27 -30h95l37 38l40 -46q6 -4 6 -10t-12 -8l-3 -1h265l37 44l68 -50q13 -17 -11 -14h-203v-184h109l30 39
l48 -38q18 -13 0 -19z" />
  </g>

</svg>
