<?xml version="1.0" standalone="no"?>
<!DOCTYPE svg PUBLIC "-//W3C//DTD SVG 1.1//EN" "http://www.w3.org/Graphics/SVG/1.1/DTD/svg11.dtd" >
<svg xmlns="http://www.w3.org/2000/svg" xmlns:xlink="http://www.w3.org/1999/xlink" version="1.1" viewBox="0 -36 256 256">
  <g transform="matrix(1 0 0 -1 0 220)">
   <path fill="currentColor"
d="M64 223q21 -11 30 -18.5t7 -20t-10.5 1.5t-28.5 32q-19 -41 -51 -74l-3 2q18 25 33 56.5t17 44.5l16 -12q-5 -2 -10 -12zM92 119q0 -22 1 -36l-13 -8v8h-40v-47q16 9 34 19q-3 8 -11 22l3 2q18 -17 23 -27t-0.5 -19t-8.5 0t-5 17q-38 -29 -41 -37l-10 15q4 6 4 13v77
q0 24 -1 43l13 -9h40l7 8l13 -13l-8 -7v-21zM40 121h40v24h-40v-24zM40 90h40v24h-40v-24zM68 177l12 11l12 -18h-30q-16 1 -21 -3l-5 10h32zM147 213q4 -9 -1.5 -18.5t-8.5 6.5t-14 35l2 2q18 -16 22 -25zM152 184l11 10l13 -17h-46q-14 0 -20 -3l-8 10h50zM131 106.5
q4 -19.5 -3 -29t-7.5 5t-1.5 26.5t-9 46l3 1q14 -30 18 -49.5zM129 46.5q-13 -7.5 -20 -14.5l-8 22q12 0 37 8q16 87 15 105l17 -10q-6 -10 -11.5 -31l-16.5 -63l31 9v-4q-31 -14 -44 -21.5zM221 69q5 6 4 25t-23 57q17 43 22 55h-34v-139q0 -39 1 -53l-14 -6q1 41 1 55v107
q0 24 -1 52l14 -9h32l9 10l16 -18q-10 -3 -18 -14t-22 -40q24 -35 29 -56.5t-1 -32t-20 -20.5q-3 11 -8 14.5t-14 6.5v4q22 -4 27 2z" />
  </g>

</svg>
