<?xml version="1.0" standalone="no"?>
<!DOCTYPE svg PUBLIC "-//W3C//DTD SVG 1.1//EN" "http://www.w3.org/Graphics/SVG/1.1/DTD/svg11.dtd" >
<svg xmlns="http://www.w3.org/2000/svg" xmlns:xlink="http://www.w3.org/1999/xlink" version="1.1" viewBox="0 -246 2048 2048">
  <g transform="matrix(1 0 0 -1 0 1802)">
   <path fill="currentColor"
d="M520 469q-127 -157 -271 -272q0 -80 -24 -80q-45 0 -125 164q189 80 346 199v530h-313l-25 49h315l76 92q125 -91 125 -121q0 -9 -18 -24l-45 -33v-452q80 -122 287 -183q213 -61 546 -61q251 0 562 31q-48 -63 -70 -142h-367q-499 0 -708 76q-200 71 -291 227z
M1230 1618h334l112 147q83 -76 148 -157l-25 -41h-569v-258h248l84 100q155 -121 155 -153q0 -24 -30 -27l-84 -12q-463 -320 -658 -516q-44 -44 -41 -80q4 -41 49 -49q82 -12 314 -12q357 0 409 39q52 37 76 288l43 -20v-53q0 -148 10 -170q21 -43 66 -43q-6 -99 -80 -123
q-109 -27 -512 -27q-364 0 -424 27q-50 21 -68 47q-17 25 -18 67q-3 78 92 177q91 93 271 233q80 61 342 256h-734l-20 51h389v635q213 -10 213 -56q0 -27 -92 -61v-209zM505 1465q-45 0 -75 76q-60 152 -226 268l29 41q350 -148 350 -303q0 -82 -78 -82z" />
  </g>

</svg>
