<?xml version="1.0" standalone="no"?>
<!DOCTYPE svg PUBLIC "-//W3C//DTD SVG 1.1//EN" "http://www.w3.org/Graphics/SVG/1.1/DTD/svg11.dtd" >
<svg xmlns="http://www.w3.org/2000/svg" xmlns:xlink="http://www.w3.org/1999/xlink" version="1.1" viewBox="0 -36 256 256">
  <g transform="matrix(1 0 0 -1 0 220)">
   <path fill="currentColor"
d="M117 135h89v33h-89v-33zM222 127l-16 -6v7h-89v-19q-3 -70 -57 -101l-2 3q41 36 45 96v76l15 -8h87l9 11l16 -13l-9 -6q0 -29 1 -40zM152 71v-29q-1 -14 16 -17h47q10 0 11 8.5t1 21.5h4q1 -27 13 -29q-9 -13 -26 -13h-52q-29 0 -28 31v46q0 4 -1 34l23 -10l-8 -9v-27h52
l14 12l17 -19h-83zM35 18q-2 7 0 18.5t0 18.5t-24 16v6q28 -8 33 -4t45 78l4 -2q-27 -64 -35 -79.5t-5.5 -36t-6.5 -21.5t-11 6zM16 146q43 -13 37.5 -30.5t-13 -2.5t-25.5 28zM45 187q45 -16 36.5 -32.5t-14 -1t-24.5 28.5zM127 203h-36q0 -8 1 -24l-17 -5q1 17 1 29h-28
q-11 0 -21 -2l-9 9h58q0 24 -1 38l23 -10l-7 -8v-20h9l14 10zM158 204q-11 0 -21 -2l-10 9h34q0 24 -1 36l24 -9l-8 -8v-19h33l14 11l15 -18h-62q0 -6 1 -22l-17 -8q1 25 1 30h-3z" />
  </g>

</svg>
