<?xml version="1.0" standalone="no"?>
<!DOCTYPE svg PUBLIC "-//W3C//DTD SVG 1.1//EN" "http://www.w3.org/Graphics/SVG/1.1/DTD/svg11.dtd" >
<svg xmlns="http://www.w3.org/2000/svg" xmlns:xlink="http://www.w3.org/1999/xlink" version="1.1" viewBox="0 -36 256 256">
  <g transform="matrix(1 0 0 -1 0 220)">
   <path fill="currentColor"
d="M63 225.5q6 -7.5 0.5 -17t-11.5 4t-21 26.5l1 3q25 -9 31 -16.5zM14 186q29 -12 31.5 -21.5t-3.5 -15.5t-10 6t-19 28zM38 90q7 4 35 108l4 -1q-20 -89 -24 -101t-5 -23.5t0 -36t-10 -18.5t-7.5 22.5t4 27t-21.5 17.5v4q18 -3 25 1zM236 66q0 -14 1 -35l-15 -8v30h-34
v-26l-15 -6q1 31 1 45v103q0 13 -1 49l15 -9h33l7 10l15 -12l-7 -7v-134zM188 60h34v142h-34v-142zM116 50v79q-18 -40 -49 -71l-3 2q37 51 48 104h-7q-13 0 -22 -3l-10 10h43v50q-14 -1 -35 -3v4q22 4 41.5 9t31.5 13l12 -16q-9 -1 -17.5 -2t-18.5 -3v-52h12l10 11l18 -18
h-40v-20q31 -19 30.5 -29.5t-5.5 -15t-8.5 6.5t-16.5 32v-80q0 -25 1 -44l-16 -7q1 28 1 43z" />
  </g>

</svg>
