<?xml version="1.0" standalone="no"?>
<!DOCTYPE svg PUBLIC "-//W3C//DTD SVG 1.1//EN" "http://www.w3.org/Graphics/SVG/1.1/DTD/svg11.dtd" >
<svg xmlns="http://www.w3.org/2000/svg" xmlns:xlink="http://www.w3.org/1999/xlink" version="1.1" viewBox="0 -205 1024 1024">
  <g transform="matrix(1 0 0 -1 0 819)">
   <path fill="currentColor"
d="M590 692l48 -34q6 -2 4 -10l-30 -18l-32 -76h38l28 30l42 -38q3 -4 4 -4q0 -12 -12 -12h-50v-250l76 14l4 -16l-80 -24v-56l4 -63q1 -12 -12 -24q-12 -9 -36 -12l6 91v56q-107 -27 -118 -36q-9 -6 -38 -24l-32 48l58 12v284h-14q-15 0 -30 -8l-18 32h140l34 88h-90
q-18 0 -36 -8l-20 32h140l22 26v0v0zM502 254l90 18v70h-90v-88v0v0zM502 366h90v74h-90v-74v0v0zM502 462h90v68h-90v-68v0v0zM656 428q33 76 54 140q18 64 30 116q60 -19 64 -22q2 -3 2 -8q0 -4 -14 -10q-15 -6 -24 -24t-26 -62h88l24 30l46 -46q3 -5 -2 -10h-46
q-12 -108 -38 -182q42 -45 60 -74q16 -29 20 -52q3 -22 -6 -34q-10 -13 -22 -10q-12 2 -18 20t-14 46q-9 26 -38 64q-28 -48 -58 -80q-31 -33 -82 -72l-10 12q40 39 68 76q27 34 58 98q-39 53 -72 92l8 10q35 -27 74 -68q15 51 30 156h-80q-25 -60 -62 -114l-14 8v0v0z
M348 984l46 -44h144l26 38l56 -40q7 -6 -4 -14l-20 -16v-114l4 -50q3 -15 -14 -26q-15 -12 -36 -14v22h-156v-591l4 -72q0 -15 -20 -28t-34 -14l4 108v855v0v0zM928 980l50 -38q6 -3 6 -12q0 -6 -14 -12l-16 -14v-769q3 -40 -14 -62q-16 -21 -52 -34q-9 19 -26 34
q-17 16 -82 40l4 18q66 -20 84 -22q18 -1 30 6q12 6 12 25v592h-162v-10q-6 -7 -18 -14q-13 -6 -32 -6l4 92v186l44 -36h156l26 36v0v0zM748 918v-70h162v70h-162v0v0zM748 822v-64h162v64h-162v0v0zM394 916v-76h156v76h-156v0v0zM394 816v-66h156v66h-156v0v0zM80 960
l56 -44h80l28 40l60 -42q9 -10 -2 -22l-22 -18v-580l4 -130q0 -12 -18 -25q-16 -15 -34 -18v75h-106v-71q0 -12 -18 -28q-19 -13 -32 -14l4 189v688v0v0zM126 222h106v210h-106v-210v0v0zM126 458h106v200h-106v-200v0v0zM126 684h106v206h-106v-206v0v0z" />
  </g>

</svg>
