<?xml version="1.0" standalone="no"?>
<!DOCTYPE svg PUBLIC "-//W3C//DTD SVG 1.1//EN" "http://www.w3.org/Graphics/SVG/1.1/DTD/svg11.dtd" >
<svg xmlns="http://www.w3.org/2000/svg" xmlns:xlink="http://www.w3.org/1999/xlink" version="1.1" viewBox="0 -36 256 256">
  <g transform="matrix(1 0 0 -1 0 220)">
   <path fill="currentColor"
d="M61 218.5q6 -7.5 0.5 -16.5t-12 4t-20.5 26l1 3q25 -9 31 -16.5zM12 181q29 -11 31.5 -20t-3.5 -14.5t-10 5.5t-20 26zM37 86.5q6 3.5 32 103.5l5 -1q-19 -85 -22 -96.5t-3 -22.5t1 -34.5t-10 -18t-8 21.5t3 26.5t-22 15.5v4q18 -2 24 1.5zM116 37q-19 -19 -45 -29l-1 4
q22 13 36 30.5t20 40.5h-15q-11 0 -20 -2l-9 9h45q2 23 2 36h-29q-10 -1 -19 -3l-10 10h58v34h-15q-11 0 -20 -2l-9 9h111l6 9l17 -10l-8 -8v-32h8l12 10l17 -17h-37v-27q0 -6 1 -20l-16 -6v10h-56q-5 -27 -24 -46zM143 133h53v34h-53v-34zM196 126h-53q0 -18 -2 -36h55v36z
M107 219h31l11 9l16 -16h-46q15 -6 21 -14t0 -16.5t-10.5 4t-16.5 26.5h-7q-13 -23 -30 -39l-3 2q14 21 20 39t8 31l20 -8q-5 -3 -14 -18zM216 200q7 -7 1.5 -16.5t-10.5 2.5t-17 26h-8q-16 -23 -32 -35l-3 2q15 19 22 36t10 30l19 -9q-6 -3 -14 -17h33l11 10l15 -17h-46
q12 -5 19 -12z" />
  </g>

</svg>
