<?xml version="1.0" standalone="no"?>
<!DOCTYPE svg PUBLIC "-//W3C//DTD SVG 1.1//EN" "http://www.w3.org/Graphics/SVG/1.1/DTD/svg11.dtd" >
<svg xmlns="http://www.w3.org/2000/svg" xmlns:xlink="http://www.w3.org/1999/xlink" version="1.1" viewBox="0 -36 256 256">
  <g transform="matrix(1 0 0 -1 0 220)">
   <path fill="currentColor"
d="M61 222q4 -5 2 -12.5t-6.5 -8t-6 10.5t-11.5 24l4 3q14 -12 18 -17zM144.5 208q4.5 -9 -0.5 -16t-10.5 6t-12.5 23l1 3q18 -7 22.5 -16zM86 76.5q5 -6.5 3.5 -13t-6 -8.5t-6 7t-12.5 30l2 2q14 -11 19 -17.5zM46 88l-6 -4q-11 -28 -28 -52l-3 3q7 16 13.5 33t7.5 28z
M42 122h25v40h-25v-40zM76 195l9 10l11 -17h-58q-4 1 -16 -3l-9 10h63zM45.5 35.5q5.5 0.5 4.5 11.5v68h-8v-5l-13 -5q1 19 1 37.5t-1 33.5l14 -7h24l7 7l11 -11l-6 -4v-34l1 -14l-13 -6v8h-6v-76q0 -15 -14 -22q-1 12 -18 14v5q11 -1 16.5 -0.5zM157 219l12 -6h8q5 25 5 34
l19 -8l-6 -4l-10 -22h28l6 9l13 -12l-6 -5v-36l1 -16l-13 -6v8h-44v-20h57l9 11l12 -18h-78v-19h60l7 9l11 -12l-6 -5q-2 -47 -3.5 -61t-6 -20.5t-14.5 -11.5q-1 13 -20 17v5q15 -2 20 -2t7 6.5t3 24t2 43.5h-60v-10l-13 -5q1 25 1 39v66q0 13 -1 27zM214 206h-44v-19h44v19
zM214 180h-44v-18h44v18zM204.5 69q3.5 -9 0.5 -15t-5.5 -5.5t-3 7.5t-4 15t-8.5 17l2 2q15 -12 18.5 -21zM223 80.5q5 -6.5 4.5 -12t-5 -8t-6 4.5t-5.5 14t-9 14l2 2q14 -8 19 -14.5zM188 61.5q2 -7.5 0 -13.5t-6 -6t-4.5 8t-3 16t-5.5 16l3 2q14 -15 16 -22.5zM165.5 49.5
q-1.5 -10.5 -6.5 -14t-8.5 1.5t0.5 10.5t6 12.5t4 22h3q3 -22 1.5 -32.5zM131 136l-5 -5v-9v-26v-53v-4q1 -4 2.5 -4h4t4.5 3l1 9l1 13h4q0 -24 8 -26q-2 -9 -12 -10h-14q-9 3 -9.5 12.5t-0.5 8.5v100zM115 158q-3 -111 -46 -145l-3 3q20 25 28 62.5t9 79.5h-4l-6 -3l-8 10
h18q0 51 -1 80l20 -9l-7 -6v-65h15l8 10l13 -17h-36z" />
  </g>

</svg>
