<?xml version="1.0" standalone="no"?>
<!DOCTYPE svg PUBLIC "-//W3C//DTD SVG 1.1//EN" "http://www.w3.org/Graphics/SVG/1.1/DTD/svg11.dtd" >
<svg xmlns="http://www.w3.org/2000/svg" xmlns:xlink="http://www.w3.org/1999/xlink" version="1.1" viewBox="0 -36 256 256">
  <g transform="matrix(1 0 0 -1 0 220)">
   <path fill="currentColor"
d="M61 216l15 -10h71q-1 7 -4.5 16t-12.5 21l2 2q19 -11 25.5 -20.5t-3.5 -18.5h55l13 12l18 -19h-164q0 -45 -1 -76t-13 -59.5t-44 -54.5l-2 3q40 38 46 108q-28 -20 -37 -34l-13 15q17 5 50 24q0 67 -1 91zM44.5 167.5q5.5 -8.5 -2 -17t-10 6.5t-11.5 29l2 3
q16 -13 21.5 -21.5zM89 161l-6 10h38l11 9l13 -16h-34q-14 1 -22 -3zM132 135l10 9l13 -15h-23v-73l20 22l3 -4q-25 -33 -29 -43l-11 11q5 3 5 26v60h-11q1 -45 -10.5 -70.5t-36.5 -41.5l-3 2q25 28 31.5 50t6.5 60h-4q-6 1 -11 -2l-7 9h57zM218 177l11 10l14 -17h-45
l-14 -19h31l8 8l11 -13l-7 -5v-57q0 -15 1 -33l-13 -4v6h-42v-2l-13 -5v56v55l13 -6h6l5 19h-11q-10 0 -18 -2l-9 9h72zM173 121h42v23h-42v-23zM173 92h42v22h-42v-22zM173 60h42v25h-42v-25zM189 41q-6 -4 -17.5 -14t-29.5 -18l-1 3q28 22 34 39zM227 35q8 -8 6.5 -15
t-6 -9t-7.5 7.5t-19 30.5l2 2q16 -8 24 -16z" />
  </g>

</svg>
