<?xml version="1.0" standalone="no"?>
<!DOCTYPE svg PUBLIC "-//W3C//DTD SVG 1.1//EN" "http://www.w3.org/Graphics/SVG/1.1/DTD/svg11.dtd" >
<svg xmlns="http://www.w3.org/2000/svg" xmlns:xlink="http://www.w3.org/1999/xlink" version="1.1" viewBox="0 -36 256 256">
  <g transform="matrix(1 0 0 -1 0 220)">
   <path fill="currentColor"
d="M215 11l1 39v175h-171v-208l-16 -7q2 34 2 55v130q0 23 -1 47l15 -10h170l7 10l16 -13l-8 -6v-103v-52l1 -51zM142 178q5 6 11.5 18t12.5 28l17 -16q-9 -2 -16.5 -10.5t-17.5 -19.5h33l14 11l15 -18h-130q-11 0 -20 -2l-9 9h90zM104 203q10 -6 8 -11.5t-7.5 -11t-9.5 6.5
t-20 28l3 2q16 -8 26 -14zM182 112q23 -23 26 -34.5t-2 -19t-8.5 6t-16.5 39.5q-8 -35 -24 -58l-3 4q9 18 13.5 43t4.5 69l22 -12l-7 -8q-3 -14 -5 -30zM98 91v-47q0 -10 -3 -15.5t-11 -8.5q0 12 -21 18v4q14 -3 19 -2t5 8v41q-14 -1 -27 -7l-8 15q5 1 11.5 6t25.5 23
q-5 -1 -12 -2.5t-14 -4.5l-6 14q7 0 15.5 12.5t12.5 24.5l13 -11q-8 -4 -12.5 -11t-16.5 -17h25q9 9 16 22l13 -12q-6 -5 -21 -17t-35 -29l45 5q-4 8 -9 17l2 2q15 -11 19 -15t4.5 -9.5t-3.5 -9.5t-6 1t-4 9q-9 -1 -17 -4zM67 54.5q-6 -8.5 -17 -17.5l-2 1q7 12 12 21.5
t6 17.5l13 -9q-6 -5 -12 -13.5zM122.5 60.5q4.5 -6.5 2 -12.5t-6 -7t-5.5 10t-10 26l2 1q13 -11 17.5 -17.5zM213 28h-63l-8 -6l-11 12l5 5v46q0 36 -1 57l20 -8l-7 -8v-91h41l11 11z" />
  </g>

</svg>
