<?xml version="1.0" standalone="no"?>
<!DOCTYPE svg PUBLIC "-//W3C//DTD SVG 1.1//EN" "http://www.w3.org/Graphics/SVG/1.1/DTD/svg11.dtd" >
<svg xmlns="http://www.w3.org/2000/svg" xmlns:xlink="http://www.w3.org/1999/xlink" version="1.1" viewBox="0 -205 1024 1024">
  <g transform="matrix(1 0 0 -1 0 819)">
   <path fill="currentColor"
d="M300 728h114v244l74 -28q24 -7 4 -20l-30 -16v-180h46l32 46l58 -54q2 -3 2 -8q0 -12 -12 -12h-126v-124q60 -30 94 -54q33 -21 42 -48q10 -28 0 -46q-12 -20 -30 -18t-24 34q-6 29 -24 56q-19 23 -58 50v-390l4 -97q0 -14 -20 -26q-18 -14 -36 -14l4 133v386
q-39 -90 -72 -150q-30 -60 -90 -134l-14 8q45 80 72 140q28 60 56 136q26 74 46 158h-44q-20 0 -46 -8l-22 36v0v0zM790 530q13 -6 2 -18q-26 -9 -34 -26q-7 -16 -26 -70q-18 -55 -50 -134q-30 -79 -66 -153q120 9 246 21q-12 68 -78 188l14 10q86 -103 116 -166
q30 -60 28 -91q-3 -30 -18 -46q-16 -15 -34 -6q-15 7 -18 28q-2 21 -4 60q-200 -31 -232 -44q-30 -11 -56 -32l-44 70q33 4 58 29q78 195 120 412l76 -32v0v0zM752 872q10 -11 0 -16q-9 -3 -20 -8q-9 -3 -36 -84q-51 -150 -122 -240l-14 10q35 74 64 166q30 92 48 206
l80 -34v0v0zM782 958l72 -40q10 -7 0 -14l-26 -14q21 -147 48 -212q27 -66 58 -98q27 -31 72 -46v-16q-36 1 -56 -4q-19 -6 -40 -20q-57 87 -78 180q-21 92 -50 284v0v0zM88 922l6 16q60 -18 96 -30q33 -13 54 -34q17 -19 20 -40q3 -19 -8 -34q-10 -14 -28 -12q-18 0 -24 16
q-6 14 -14 34q-9 17 -24 32q-15 12 -78 52v0v0zM36 694l6 14q44 -16 80 -32q35 -15 52 -36q17 -20 20 -40t-8 -34q-12 -15 -26 -12q-15 0 -20 16q-6 15 -14 36q-9 19 -30 38t-60 50v0v0zM170 400q-19 -58 -46 -62q-28 -4 -92 -4l-2 -20q39 -2 72 -10q30 -6 40 -18
q8 -12 10 -42q0 -30 -8 -84q-10 -53 -8 -81q1 -27 20 -36q18 -6 34 2q16 7 20 34q3 25 -6 83q-10 57 -10 94q-2 36 6 66q6 27 12 58l84 384l-20 8l-106 -372v0v0z" />
  </g>

</svg>
