<?xml version="1.0" standalone="no"?>
<!DOCTYPE svg PUBLIC "-//W3C//DTD SVG 1.1//EN" "http://www.w3.org/Graphics/SVG/1.1/DTD/svg11.dtd" >
<svg xmlns="http://www.w3.org/2000/svg" xmlns:xlink="http://www.w3.org/1999/xlink" version="1.1" viewBox="0 -52 256 256">
  <g transform="matrix(1 0 0 -1 0 204)">
   <path fill="currentColor"
d="M128 207l11 -10h69l9 10l12 -12q1 -1 1 -2t-3 -2l-5 -2v-58l1 -14q0 -4 -2 -6l-9 -3v12h-30v-39h25l8 10l17 -12q4 -3 -1 -2h-49v-42h40l8 9l17 -11q2 -1 2 -2q-1 -1 -3 -1h-123q-6 0 -11 -3l-9 8h68v42h-29q-7 0 -11 -3l-9 7h49v39h-30v-6q0 -3 -3 -6q-2 -1 -2 -2l-9 -3
q0 2 1 11q2 15 3 26v52q0 4 -6 12zM98 242l13 -10h105l8 10l17 -12q2 -2 1 -2q0 -1 -2 -1h-128v-69q4 -109 -59 -146l-3 3q32 26 42 58q10 26 9 92v61q0 7 -5 13zM182 157v-32h30v32h-30zM141 157v-32h30v32h-30zM141 192v-31h30v31h-30zM212 192h-30v-31h30v31zM39 245
l21 -8q3 -1 2 -3q-5 -1 -8 -5v-55h11l9 10l16 -12q3 -2 2 -3q0 -1 -5 0h-33v-84l-11 -4v88h-17q-7 0 -11 -4l-9 9h37v58q2 3 -6 10zM17 54l-13 15l86 32l2 -5l-57 -25q-16 -9 -18 -17z" />
  </g>

</svg>
