<?xml version="1.0" standalone="no"?>
<!DOCTYPE svg PUBLIC "-//W3C//DTD SVG 1.1//EN" "http://www.w3.org/Graphics/SVG/1.1/DTD/svg11.dtd" >
<svg xmlns="http://www.w3.org/2000/svg" xmlns:xlink="http://www.w3.org/1999/xlink" version="1.1" viewBox="0 -205 1024 1024">
  <g transform="matrix(1 0 0 -1 0 819)">
   <path fill="currentColor"
d="M66 898h458l40 50l64 -56q3 -4 4 -8q1 -12 -10 -12h-472q-21 0 -68 -8l-16 34v0v0zM162 820l56 -38h238l36 40l50 -40q9 -6 10 -14q0 -6 -32 -24v-86l4 -58q0 -18 -20 -32q-21 -13 -36 -10v40h-254v-16q-1 -11 -16 -22q-15 -9 -42 -12l6 96v176v0v0zM214 622h254v134
h-254v-134v0v0zM108 522l64 -36h328l34 36l64 -46q6 -4 6 -8q0 -7 -36 -28v-252l4 -85q1 -17 -16 -26t-40 -16v68h-356v-38q0 -12 -20 -28q-18 -15 -36 -16l4 139v336v0v0zM160 154h152v144h-152v-144v0v0zM362 154h154v144h-154v-144v0v0zM160 324h152v136h-152v-136v0v0z
M362 460v-136h154v136h-154v0v0zM694 854l84 -36q6 -1 6 -10q0 -3 -38 -20v-318l4 -114q0 -12 -20 -26q-21 -13 -42 -16l6 134v406v0v0zM874 966l78 -32q10 -3 8 -12q-2 -6 -34 -24v-750q3 -38 -18 -69q-21 -30 -66 -34q-2 35 -34 48q-30 13 -102 34l4 17q126 -23 144 -19
q20 7 20 29v812v0v0z" />
  </g>

</svg>
