<?xml version="1.0" standalone="no"?>
<!DOCTYPE svg PUBLIC "-//W3C//DTD SVG 1.1//EN" "http://www.w3.org/Graphics/SVG/1.1/DTD/svg11.dtd" >
<svg xmlns="http://www.w3.org/2000/svg" xmlns:xlink="http://www.w3.org/1999/xlink" version="1.1" viewBox="0 -339 2048 2048">
  <g transform="matrix(1 0 0 -1 0 1709)">
   <path fill="currentColor"
d="M1764 1388q-15 -128 -36 -229q-29 -137 -76 -249q-49 -116 -109 -200q82 -54 142 -103q131 -103 135 -190q1 -19 -13 -35q-15 -19 -38 -19q-18 0 -37 12q-18 12 -45 58q-17 31 -32.5 51.5t-39.5 46.5q-57 62 -120 116q-49 -60 -96 -103q-100 -93 -250 -180
q-58 -34 -144 -75l-19 34q73 44 126 83q137 99 228 196q42 43 87 103q-47 37 -80 61q-65 49 -191 129q39 96 82 216q37 105 60 187q9 32 24 90l-25 -1q-118 -4 -154 -8l-39 88q29 -7 52 -11q79 -13 137 -13q11 0 19 1l24 1q32 154 52 276q7 44 27 196l124 -32q47 -12 61 -26
q11 -9 11 -20t-11 -21q-14 -13 -43 -18l-46 -8q-33 -158 -41 -198q-14 -62 -38 -149h231q2 31 4 87l2 76q0 22 1 44l145 -29q45 -8 45 -32q0 -9 -7 -18q-8 -10 -22 -15l-57 -19q-1 -53 -3 -87l73 75l114 -86q17 -12 17 -26q0 -10 -6 -17q-8 -10 -21 -10h-184zM1658 1388
h-245q-32 -95 -42 -124q-27 -78 -56 -144q-6 -13 -67 -143l-30 -65q151 -89 249 -152q28 44 44 74.5t35 74.5q51 120 81 256q13 62 26 169q3 29 5 54zM177 1396q-31 -26 -48 -38q-16 -12 -49 -33l-22 36q83 79 107 105q64 68 131 169q68 101 110 198q24 57 48 140l123 -46
q27 -11 39 -25q6 -9 6 -16t-5 -13q-5 -8 -33 -15l-41 -11q-41 -66 -76 -122h312l64 72l113 -79q13 -9 17 -21q4 -8 4 -15q0 -5 -4 -14q-7 -13 -37 -19q-25 -5 -49 -12q-63 -82 -105 -131t-122 -133h274l53 71l91 -57q20 -12 19 -34q-1 -15 -8 -22q-10 -12 -38 -29
q-5 -3 -13 -9v-360l52 -35q8 -6 11 -17q2 -6 1 -10q-1 -9 -8 -15q-6 -6 -14 -6h-291v-542q0 -31 13 -52q12 -19 43 -29q25 -8 78 -14q66 -6 108 -6h439q227 0 301 22q40 12 56 33q12 15 27 80l48 191l34 -8l-13 -142q-4 -38 -4 -57q0 -35 15 -56q8 -12 34 -34q17 -15 17 -27
t-14 -28q-21 -23 -84 -35q-59 -12 -150 -18q-128 -10 -257 -10h-387q-132 0 -220 10q-63 6 -95 20q-46 20 -63 49q-10 16 -16 41q-5 25 -5 52v560h-63q-19 -94 -34 -149q-44 -152 -121 -269q-82 -125 -222 -249q-73 -64 -162 -127l-23 33q94 78 147 136q77 83 139 172
q71 102 108 195q34 85 55 171q10 38 19 88h-267v-32q0 -21 -13 -31t-41 -10q-26 0 -38 9q-13 10 -13 36q0 3 5 60q0 7 1 30q1 28 6 115v368zM204 1423l90 -50h308q60 95 89 143q30 51 88 155l-347 1q-69 -91 -105 -131q-38 -44 -84 -85q-3 -2 -39 -33zM270 906h274
q13 167 16 415h-290v-415zM656 1321q-4 -68 -8 -211q-2 -87 -11 -203l307 -1v415h-288z" />
  </g>

</svg>
