<?xml version="1.0" standalone="no"?>
<!DOCTYPE svg PUBLIC "-//W3C//DTD SVG 1.1//EN" "http://www.w3.org/Graphics/SVG/1.1/DTD/svg11.dtd" >
<svg xmlns="http://www.w3.org/2000/svg" xmlns:xlink="http://www.w3.org/1999/xlink" version="1.1" viewBox="0 -205 1024 1024">
  <g transform="matrix(1 0 0 -1 0 819)">
   <path fill="currentColor"
d="M942 758l60 -48q7 -3 8 -12q0 -3 -38 -24q-14 -371 -16 -418q-2 -45 -10 -86q-6 -38 -32 -69q-24 -30 -80 -52q-10 37 -40 52q-31 14 -88 34l4 17q102 -25 132 -23q30 4 42 29q12 27 18 72q3 48 18 456h-188q-3 -200 -30 -310q-26 -107 -94 -196q-66 -89 -158 -153
l-10 14q90 81 142 165q50 84 74 192q22 105 26 288h-64q-32 0 -52 -8l-22 36h136l6 270l72 -30q16 -5 14 -16q-1 -1 -34 -22l-6 -202h170l40 44v0v0zM38 930h412l36 46l56 -56q3 -3 4 -8q0 -7 -14 -8h-170v-148h72l22 40l68 -46q3 -3 4 -6q0 -7 -32 -28v-496l4 -79
q-1 -14 -16 -26q-16 -10 -38 -14v69h-318v-61q0 -13 -18 -26q-18 -11 -36 -14l4 105v620l52 -38h80v148h-84q-21 0 -74 -8l-14 34v0v0zM128 338v-140h318v140h-318v0v0zM128 416v-50h318v104h-46q-21 0 -42 4q-18 3 -30 18q-10 12 -10 34v202h-64q3 -88 -20 -172t-106 -140
v0v0v0zM446 728h-84v-190q0 -18 10 -24q8 -6 16 -6h58v220v0v0zM254 756h64v148h-64v-148v0v0zM210 728h-82v-288q52 52 68 122q16 69 14 166v0v0z" />
  </g>

</svg>
