<?xml version="1.0" standalone="no"?>
<!DOCTYPE svg PUBLIC "-//W3C//DTD SVG 1.1//EN" "http://www.w3.org/Graphics/SVG/1.1/DTD/svg11.dtd" >
<svg xmlns="http://www.w3.org/2000/svg" xmlns:xlink="http://www.w3.org/1999/xlink" version="1.1" viewBox="0 -205 1024 1024">
  <g transform="matrix(1 0 0 -1 0 819)">
   <path fill="currentColor"
d="M582 398h210l34 40l52 -42q9 -7 10 -14q0 -6 -26 -24v-184l4 -97q0 -15 -18 -24q-16 -9 -38 -12v76h-236v-52q1 -14 -22 -26q-21 -12 -32 -10l4 127v270l58 -28v0v0zM574 140h236v234h-236v-234v0v0zM678 942q3 -2 4 -10q2 0 -4 -6q-24 -4 -36 -14t-44 -70h220l32 40
l60 -52q9 -6 6 -8q2 -6 -16 -12q-16 -6 -26 -14q-9 -6 -30 -42q-21 -35 -44 -70q-24 -36 -68 -86q24 -25 60 -50q35 -23 80 -46q44 -24 134 -36v-16q-24 -1 -48 -8t-42 -34q-51 27 -110 72q-58 45 -104 84q-48 -47 -116 -94q-69 -45 -140 -80l-10 14q49 33 116 84
q66 51 120 108q-69 88 -104 194q-62 -111 -112 -164l-12 8q45 78 88 168q41 89 70 176l76 -36v0v0zM588 820l-6 -8q44 -105 116 -186q39 45 70 94q30 48 54 100h-234v0v0zM52 862h332l38 44l54 -54q16 -15 -10 -18h-226l50 -24q7 -1 8 -8q3 -7 -8 -10q-43 -12 -64 -50
q-63 -82 -98 -142l244 20q-16 45 -68 114l12 12q75 -58 102 -98q26 -36 28 -66q3 -29 -12 -40q-16 -10 -28 -4q-13 5 -16 20q0 14 -12 44l-196 -30q-48 -16 -90 -38l-38 66q33 3 54 18q53 84 112 216h-100q-21 0 -44 -8l-24 36v0v0zM302 532q21 -10 4 -22l-30 -14v-106h78
l28 36l56 -44q3 -3 4 -8q0 -12 -12 -12h-154v-166l160 42l4 -18l-264 -91q-42 -20 -74 -56l-44 66l168 47v176h-94q-21 0 -48 -12l-20 40h162v168l76 -26v0v0z" />
  </g>

</svg>
