<?xml version="1.0" standalone="no"?>
<!DOCTYPE svg PUBLIC "-//W3C//DTD SVG 1.1//EN" "http://www.w3.org/Graphics/SVG/1.1/DTD/svg11.dtd" >
<svg xmlns="http://www.w3.org/2000/svg" xmlns:xlink="http://www.w3.org/1999/xlink" version="1.1" viewBox="0 -205 1048 1024">
  <g transform="matrix(1 0 0 -1 0 819)">
   <path fill="currentColor"
d="M857 532q79 -57 112 -114q31 -55 13 -102q-9 -19 -23 -13q-13 5 -18 33q-6 30 -27 75q-27 67 -66 114zM466 618q81 -44 109 -70q38 -31 49 -72q0 -24 -16 -33t-33 19q-9 28 -35 64q-34 46 -82 85zM325 583l59 -12q31 -7 25 -18q-5 -7 -30 -11v-383q0 -16 8 -23
q9 -9 35 -11q62 -5 139 -5q86 1 159 10q25 8 40 51q11 37 25 146h14l-2 -169q37 -20 32 -39q-6 -18 -59 -27q-83 -8 -178 -9q-106 -2 -184 5q-50 6 -66 21q-13 12 -13 44v379zM204 508q-2 -79 -37 -162q-30 -69 -61 -101q-12 -13 -24 -1q-14 15 -12 50q0 13 9 25q4 7 19 24
q30 31 46 57q29 46 50 109zM384 213q106 60 180 117q87 67 178 165l51 -26q23 -11 20 -17q-1 -5 -35 -1q-92 -87 -180 -148q-86 -60 -177 -103.5t-173 -65.5q-77 -22 -138 -33l-7 10q71 17 137 39q77 27 144 63zM886 915q23 -7 22 -15q-2 -9 -32 -17v-193l1 -26
q2 -11 -1 -14q-4 -4 -21 -14q-21 -8 -27 -4q-3 3 -2 25l2 28h-623l-2 -34q-1 -23 -5 -29q-4 -7 -25 -16q-18 -9 -21 -1q-4 5 -2 32l2 41v247l63 -16q19 -6 17 -15q-3 -8 -29 -16v-178h284v277l64 -15q19 -7 17 -15q-3 -9 -29 -18v-229h288v234z" />
  </g>

</svg>
