<?xml version="1.0" standalone="no"?>
<!DOCTYPE svg PUBLIC "-//W3C//DTD SVG 1.1//EN" "http://www.w3.org/Graphics/SVG/1.1/DTD/svg11.dtd" >
<svg xmlns="http://www.w3.org/2000/svg" xmlns:xlink="http://www.w3.org/1999/xlink" version="1.1" viewBox="0 -205 1024 1024">
  <g transform="matrix(1 0 0 -1 0 819)">
   <path fill="currentColor"
d="M548 702q7 -4 8 -10q-3 -4 -12 -8q-25 -9 -34 -30q-21 -37 -30 -62h94l26 42l52 -36q7 -7 8 -10q-1 -6 -10 -12q-13 -7 -20 -28q-25 -165 -76 -270q-51 -104 -126 -163q-72 -59 -144 -94l-10 10q101 73 158 137q57 66 94 162q36 93 58 238h-114q-22 -48 -52 -108
q63 -31 82 -58q16 -24 6 -48q-9 -22 -24 -20q-12 0 -18 18q-4 15 -16 42q-11 24 -40 46q-42 -73 -72 -104l-12 6q33 60 72 156q38 93 82 234l70 -30v0v0zM684 646l52 -44h110l32 38l44 -38q12 -6 12 -14q0 -4 -8 -10q-21 -16 -20 -22v-222q-1 -42 -22 -62q-18 -19 -60 -34
q-6 27 -24 42q-18 11 -54 20l2 18q51 -10 70 -10q18 0 28 6q9 3 12 24v240h-126v-434q-1 -43 14 -49q13 -6 44 -6h88q53 0 56 57l6 106h18q2 -57 10 -90q6 -30 34 -45q-7 -24 -26 -46q-18 -18 -60 -24h-144q-40 0 -58 8q-15 9 -24 26q-6 16 -6 58v507v0v0zM892 814l32 40
l58 -44q12 -8 12 -16q0 -3 -14 -6q-28 -7 -52 -28q-21 -20 -66 -70l-16 6l50 94h-446q-1 -22 -10 -44q-7 -19 -22 -34q-15 -16 -36 -16q-18 -1 -24 16q-6 15 10 28q14 10 34 38q18 26 28 92h18q2 -36 2 -56h442v0v0zM592 974q51 -24 84 -50q30 -25 34 -50q3 -23 -12 -34
q-15 -12 -30 -6q-13 3 -16 22q-1 16 -16 44q-12 27 -54 64l10 10v0v0zM28 652h142v292l86 -36q8 -4 8 -8q3 -1 -2 -10l-38 -16v-222h46l30 42l48 -48q4 -3 8 -14q2 -7 -10 -8h-122v-346l132 50l8 -18q-162 -78 -216 -108q-54 -31 -78 -65l-48 63l148 62v362h-70q-9 0 -56 -8
l-16 36v0v0z" />
  </g>

</svg>
