<?xml version="1.0" standalone="no"?>
<!DOCTYPE svg PUBLIC "-//W3C//DTD SVG 1.1//EN" "http://www.w3.org/Graphics/SVG/1.1/DTD/svg11.dtd" >
<svg xmlns="http://www.w3.org/2000/svg" xmlns:xlink="http://www.w3.org/1999/xlink" version="1.1" viewBox="0 -144 1024 1024">
  <g transform="matrix(1 0 0 -1 0 880)">
   <path fill="currentColor"
d="M257 991l59 -28l12 -15l-20 -4l-38 -99l-50 -113l-27 -55l-6 -11l30 -5l16 -11l-16 -10v-565l-65 -32v559l-47 -80l-33 -48l-35 -46l-8 4l99 210l46 110l42 113zM929 129l-1 -14l-2 -13l-4 -13l-7 -13l-9 -10l-11 -9l-12 -7l-13 -4l-13 -2l-14 -1v32l-97 16v16h97l7 1
l5 1l4 1l3 2l1 2v3l1 5l1 7h64zM305 838v22h298v134l65 -11l16 -10l-16 -10v-103h180l53 53l65 -53v-22h-216l53 -26l12 -15l-22 -4l-23 -41l-19 -32l-22 -30l-13 -15l-2 -3h151l32 26l59 -48l-27 -21v-500h-64v521h-140v-118h-64v118h-75l-2 -29l-7 -38l-10 -35l-12 -32
l-17 -30l-19 -26l-23 -24l-25 -20l-29 -16l-31 -12l-4 9l24 20l21 21l18 22l16 23l12 25l10 26l8 29l5 30l2 33l-1 24h-116v-575l-64 -32v661l64 -32h294l3 10l28 104l4 16l6 26l2 10h-438zM499 419l65 -32h143l32 27l60 -49l-27 -21v-183l-65 -32v64h-143v-64l-65 -33v323z
M707 365h-143v-150h143v150zM747 451l-13 1l-13 1l-13 4l-12 6l-10 8l-9 10l-7 12l-5 12l-3 13l-1 14h64v-7v-4l1 -4l1 -2l1 -3l1 -1l2 -2l3 -1l5 -2l8 -1h59l25 91h11l-10 -92l16 -10l10 -16l-10 -16l-17 -11h-84zM514 717l-2 14l-5 28l-4 13l-3 12l-5 13l-9 24l-8 10l7 7
l10 -8l12 -8l12 -10l10 -10l10 -12l9 -13l9 -13l8 -15l14 -32l-5 -24l-19 -16l-25 5l-14 20z" />
  </g>

</svg>
