<?xml version="1.0" standalone="no"?>
<!DOCTYPE svg PUBLIC "-//W3C//DTD SVG 1.1//EN" "http://www.w3.org/Graphics/SVG/1.1/DTD/svg11.dtd" >
<svg xmlns="http://www.w3.org/2000/svg" xmlns:xlink="http://www.w3.org/1999/xlink" version="1.1" viewBox="0 -144 1024 1024">
  <g transform="matrix(1 0 0 -1 0 880)">
   <path fill="currentColor"
d="M141 381l-3 -50l-6 -46l-7 -43l-9 -41l-10 -37l-12 -34l-12 -30l-15 -28l-17 -23l-18 -19l-6 5l10 23l10 25l8 28l8 29l7 33l6 36l5 39l4 42l2 45l2 49v374l54 -27h148l-2 2l-1 7l-2 8l-8 16l-14 19l-8 10l-22 21l-13 8l4 8l15 -6l16 -3l15 -5l13 -6l13 -6l8 -5l4 14
l5 17l9 34l4 17l4 17l2 11h-117l-4 -11l-14 -26l-15 -23l-18 -22l-18 -19l-21 -16l-23 -14l-24 -11l-26 -8l-4 10l20 15l18 16l16 17l14 18l13 19l11 20l9 22l8 23l6 24l5 27l2 10l61 -24l13 -14l-19 -7l-2 -5h112l33 27l59 -48l-27 -16l-13 -6l-22 -40l-30 -46l-10 -15
l-1 -1l15 -14l8 -11l1 -25l-4 -4h110l53 54l65 -54v-21h-430v-129h70v113l64 -11l16 -11l-16 -9v-82h70v113l65 -11l16 -11l-16 -9v-82h64l32 27l60 -49l-27 -21v-124l-65 -32v43h-333v-43zM941 252l-18 8l-5 2l-20 8l-5 2l-11 5l8 21l6 28l3 32v34l-6 37l-11 37l-19 36
l-27 36l-36 35l-43 35l-1 -1l-8 6l91 200l23 59l10 29l2 5h-198v-840l-64 -32v926l64 -32h203l33 27l59 -49l-27 -16l-12 -5l-17 -36l-31 -58l-57 -91l-45 -62l-19 -22l53 -19l46 -33l36 -37l26 -42l18 -43l10 -43l4 -42l-1 -38l-5 -36zM100 111l-1 2v1l64 16v263l54 -11
l14 -11l-14 -9v-77h47l34 38l43 -38v-21h-124v-120l47 12l26 6l27 4l27 6l2 -6v227l65 -11l16 -11l-16 -9v-117l65 50l42 36l-1 1l4 3l39 -52v-19l-21 9l-22 -11l-34 -14l-38 -15l-20 -7l-14 -4v-77h-65v17l-46 -27l-47 -23l-112 -51h-1l-6 -20l-15 11l-2 6v1l-17 51v1z
M99 114l20 -62l-30 58zM432 59l-14 2l-13 2l-13 4l-13 7l-10 9l-9 10l-7 13l-4 13l-2 13l-1 13h65v-6l1 -5l1 -5l2 -2l5 -1l5 -1l7 -1h103l32 134h10l-10 -134l19 -13l13 -19l-13 -20l-19 -13h-135zM882 277l59 -25l-6 -12l-7 -11l-8 -11l-9 -9l-11 -8l-11 -7l-12 -5l-13 -4
l-13 -1l-14 -1v32l-64 16v16h64l7 1l7 1l5 1l9 4l3 3l4 4l3 4l3 5zM212 559h-70v-112h70v112zM346 559h-70v-112h70v112zM475 559h-64v-112h64v112z" />
  </g>

</svg>
