<?xml version="1.0" standalone="no"?>
<!DOCTYPE svg PUBLIC "-//W3C//DTD SVG 1.1//EN" "http://www.w3.org/Graphics/SVG/1.1/DTD/svg11.dtd" >
<svg xmlns="http://www.w3.org/2000/svg" xmlns:xlink="http://www.w3.org/1999/xlink" version="1.1" viewBox="0 -339 2048 2048">
  <g transform="matrix(1 0 0 -1 0 1709)">
   <path fill="currentColor"
d="M509 778l12 -8q79 -57 101 -75q56 -45 87 -73q56 -53 84 -100q23 -37 23 -73q0 -24 -11 -39q-15 -20 -39 -20q-19 0 -34 22q-5 8 -19 41l-16 37q-27 64 -77 121q-42 48 -116 116q-13 -68 -42 -154q-60 -181 -151 -320q-45 -68 -112 -142q-17 -19 -53 -57l-27 27
q93 122 122 171q48 82 105 236q36 100 58 238q14 84 19 156q3 39 8 178q4 123 4 154v407q0 172 -15 274l106 -20q70 -12 85 -26q9 -8 9 -17t-5 -14q-12 -15 -35 -24l-49 -18v-541q66 101 96 158q16 30 64 133l88 -56q47 -29 53 -41q5 -8 5 -14q0 -13 -11 -20q-12 -9 -28 -7
l-8 1l-50 4q-33 -42 -51 -63q-41 -48 -158 -158q-3 -119 -6 -181q-1 -24 -10 -133q0 -1 -6 -80zM134 1416q61 -58 94 -92q47 -50 84 -105q39 -57 54 -105q6 -19 6 -42q0 -39 -22 -62q-11 -11 -28 -11q-16 0 -30 11q-9 7 -14 16q-11 20 -18 53q-18 72 -39 121q-20 46 -69 122
q-5 8 -46 70zM1016 1296q30 -7 52 -11q74 -13 179 -13h283l99 102l120 -108q13 -11 15 -16q2 -4 2 -9q0 -9 -6 -17q-8 -10 -21 -10l-312 2v-360l251 1l98 101l121 -107q13 -12 15 -15q2 -4 2 -10q0 -9 -6 -16q-9 -10 -22 -10l-459 -1v-588l310 2l98 102l121 -107
q13 -11 15 -16q2 -4 2 -10q0 -9 -6 -16q-9 -10 -21 -10h-941q-120 0 -192 -8l-42 85q94 -22 234 -22h326v588h-238q-116 0 -192 -8l-43 91q31 -9 66 -13q37 -5 89 -9t80 -4h238v360h-84q-114 0 -193 -8zM986 711q94 -94 146 -168q50 -71 73 -139q12 -35 12 -61
q0 -39 -24 -59q-15 -13 -30 -13q-16 0 -26 11q-15 15 -19 38l-15 79q-7 34 -37 100q-31 69 -79 143q-15 23 -33 47zM1717 734l104 -45q28 -11 38 -19q7 -4 11 -14q2 -4 2 -9q0 -27 -55 -29l-32 -1q-9 -16 -13 -25q-36 -65 -57 -97q-43 -65 -90 -120q-30 -35 -80 -85l-25 28
q47 68 73 113q53 93 83 176q17 47 41 127zM1340 1943l99 -32q46 -16 54.5 -18.5t10.5 -4.5q12 -11 11 -23q-1 -11 -11 -18t-39 -10l-35 -4q48 -79 85 -130q112 -149 247 -248q73 -54 144 -87q23 -11 65 -27l-7 -30q-36 -4 -51 -7q-19 -5 -29 -15q-13 -12 -31 -51
q-76 62 -92.5 76t-39.5 36q-96 91 -163 181q-60 81 -164 266q-29 -62 -47 -95t-45 -74q-76 -115 -157 -199q-90 -92 -215 -176q-34 -23 -86 -52l-22 29q113 84 188 162q114 117 186 235q30 48 68 124q42 86 61 142q5 17 15 50z" />
  </g>

</svg>
