<?xml version="1.0" standalone="no"?>
<!DOCTYPE svg PUBLIC "-//W3C//DTD SVG 1.1//EN" "http://www.w3.org/Graphics/SVG/1.1/DTD/svg11.dtd" >
<svg xmlns="http://www.w3.org/2000/svg" xmlns:xlink="http://www.w3.org/1999/xlink" version="1.1" viewBox="0 -154 1024 1024">
  <g transform="matrix(1 0 0 -1 0 870)">
   <path fill="currentColor"
d="M463 768l27 -27h123v178q2 16 -25 42l8 11l82 -34q14 -5 6 -11q-21 -5 -31 -18v-168h101v171q1 16 -25 42l8 11l78 -34q14 -5 6 -11q-16 -5 -27 -18v-161h83l35 39l50 -47q14 -12 -6 -17l-18 -9v-528l5 -96q1 -30 -47 -36v79h-383v-57q2 -38 -49 -44q5 37 7 134v558
q-3 24 -20 40zM343 795l84 -36q14 -6 6 -11q-21 -9 -31 -21v-420l5 -101q2 -22 -13 -31q-15 -11 -30 -15v52h-227l-32 -37l-45 36q25 23 28 41v498q-1 18 -23 37l8 9l75 -31q19 -5 7 -14q-20 -5 -29 -17v-502h97v699q2 15 -27 42l8 11l84 -34q14 -6 6 -11q-20 -6 -29 -18
v-689h99v505q2 15 -30 46zM896 445h-102v-299h102v299zM653 445v-299h101v299h-101zM513 445v-299h100v299h-100zM896 721h-102v-258h102v258zM653 721v-258h101v258h-101zM513 721v-258h100v258h-100z" />
  </g>

</svg>
