<?xml version="1.0" standalone="no"?>
<!DOCTYPE svg PUBLIC "-//W3C//DTD SVG 1.1//EN" "http://www.w3.org/Graphics/SVG/1.1/DTD/svg11.dtd" >
<svg xmlns="http://www.w3.org/2000/svg" xmlns:xlink="http://www.w3.org/1999/xlink" version="1.1" viewBox="0 -205 1024 1024">
  <g transform="matrix(1 0 0 -1 0 819)">
   <path fill="currentColor"
d="M502 664l60 -38h236l28 34l58 -38q12 -6 12 -14q0 -4 -36 -26v-503h42l36 58l64 -64q3 -5 4 -10q-1 -12 -16 -12h-542q-21 1 -68 -8l-16 36h138v585v0v0zM556 79h252v163h-252v-163v0v0zM556 270h252v146h-252v-146v0v0zM556 444h252v156h-252v-156v0v0zM616 954l8 12
q53 -28 80 -50q25 -22 32 -46q6 -24 -6 -42q-10 -19 -32 -16q-21 0 -24 28q-3 26 -12 50q-8 21 -46 64v0v0zM488 848h22l2 -50h390l32 38q65 -63 68 -68q0 -7 -2 -10q-3 -3 -24 -6q-19 -3 -40 -20q-21 -15 -68 -66l-14 10l54 96h-396q-2 -48 -16 -78q-14 -28 -34 -38
q-19 -11 -34 -6t-18 22q-3 15 24 40q26 24 38 54q11 30 16 82v0v0zM26 728h290l34 48l54 -52q3 -3 4 -8q0 -12 -12 -12h-286q-19 0 -68 -8l-16 32v0v0zM328 514q-13 -45 -32 -108q-18 -61 -54 -160l176 48l6 -18q-302 -106 -322 -118q-19 -12 -40 -35l-42 63l196 52
q33 129 54 222q20 89 34 170q80 -30 82 -36q0 -7 -8 -10q-10 -3 -22 -14q-13 -9 -28 -56v0v0zM138 932l10 10q60 -37 90 -70q27 -33 30 -62q2 -27 -10 -42t-30 -12t-18 28q0 24 -12 60q-12 33 -60 88v0v0zM74 610l14 6q57 -79 84 -140q23 -60 26 -96q0 -37 -12 -52
q-11 -13 -28 -10q-18 3 -18 36q1 33 -4 66q-3 33 -20 84q-15 50 -42 106v0v0z" />
  </g>

</svg>
