<?xml version="1.0" standalone="no"?>
<!DOCTYPE svg PUBLIC "-//W3C//DTD SVG 1.1//EN" "http://www.w3.org/Graphics/SVG/1.1/DTD/svg11.dtd" >
<svg xmlns="http://www.w3.org/2000/svg" xmlns:xlink="http://www.w3.org/1999/xlink" version="1.1" viewBox="0 -205 1024 1024">
  <g transform="matrix(1 0 0 -1 0 819)">
   <path fill="currentColor"
d="M358 392h308v102h-308v-102v0v0zM112 972l60 -48h224l30 38l60 -42q6 -6 6 -8q0 -7 -30 -32v-124l4 -66q0 -18 -14 -26q-15 -7 -42 -10v24h-244v-494l4 -99q3 -14 -18 -32q-19 -15 -44 -18l4 145v792v0v0zM166 704h244v82h-244v-82v0v0zM166 812h244v86h-244v-86v0v0z
M560 966l60 -44h228l34 40l60 -40q6 -6 6 -8q0 -7 -30 -32v-745q3 -47 -14 -70q-15 -20 -60 -38q-9 33 -36 48q-24 12 -90 30l4 20q49 -9 80 -12q33 -3 48 2q18 3 16 65v496h-252v-6q0 -6 -12 -14q-11 -7 -46 -10l4 70v248v0v0zM614 704h252v80h-252v-80v0v0zM614 810h252
v86h-252v-86v0v0zM308 560l54 -40h180q24 48 66 130q63 -24 66 -30q0 -3 -2 -8q-3 -3 -18 -8q-14 -5 -34 -22q-20 -18 -52 -62h82l34 38l58 -38q3 -4 4 -8q0 -6 -30 -26v-90l4 -60q1 -10 -16 -20q-16 -9 -38 -12v60h-70v-116q0 -45 10 -54t26 -8h74q17 3 26 16q8 14 10 34
q0 17 4 98h20q5 -70 8 -88q4 -18 32 -38q-14 -39 -34 -48q-17 -11 -52 -16h-108q-42 4 -54 26q-10 18 -10 58v136h-70q0 -112 -56 -172q-54 -60 -198 -93l-6 16q131 48 172 99q39 48 36 150h-68v-24q0 -12 -18 -24q-15 -10 -36 -10l4 76v178v0v0zM352 632l8 14
q72 -23 94 -40q21 -18 24 -36q4 -18 -6 -30q-12 -13 -26 -10q-13 2 -20 20q-4 17 -20 38q-15 19 -54 44v0v0z" />
  </g>

</svg>
