<?xml version="1.0" standalone="no"?>
<!DOCTYPE svg PUBLIC "-//W3C//DTD SVG 1.1//EN" "http://www.w3.org/Graphics/SVG/1.1/DTD/svg11.dtd" >
<svg xmlns="http://www.w3.org/2000/svg" xmlns:xlink="http://www.w3.org/1999/xlink" version="1.1" viewBox="0 -36 256 256">
  <g transform="matrix(1 0 0 -1 0 220)">
   <path fill="currentColor"
d="M52 30h41v20h-41v-20zM63 246l19 -8l-6 -5v-11h27l11 11l14 -18h-52v-14h41l7 7l15 -14q-13 1 -26 -22l-3 2l8 20h-90q2 -14 -2 -20.5t-12.5 -5.5t-2 9t11.5 32h4v-8h37q0 26 -1 45zM105 49q0 -15 1 -33l-13 -8v15h-41v-10l-14 -7q1 28 1 103q-14 -13 -30 -19l-2 3
q14 8 32 25.5t28 36.5l15 -10l-5 -4q26 -26 57 -30v-3q-10 -3 -14 -9q-11 6 -19 12l9 -7l-5 -7v-48zM43.5 154.5q-13.5 -9.5 -27.5 -17.5l-2 3q25 19 39 41l13 -14q-9 -3 -22.5 -12.5zM111.5 164.5q13.5 -6.5 10.5 -19.5t-10.5 -0.5t-33.5 28.5l2 3q18 -5 31.5 -11.5z
M44 113l6 -3h43l4 3q-12 11 -23 25q-15 -13 -30 -25zM52 83h41v20h-41v-20zM52 57h41v19h-41v-19zM150 116h62v35h-62v-35zM138 169.5q0 42.5 -1 68.5l13 -10h61l9 10l12 -13l-6 -6v-84q0 -14 1 -30l-15 -5v9h-12v-69q0 -11 12 -11h12q8 0 9 9.5t2 31.5h4q0 -21 1.5 -30
t9.5 -10q-4 -14 -23 -14h-18q-21 -1 -21 19v74h-14q-2 -45 -17.5 -67.5t-47.5 -35.5l-2 3q23 14 37.5 35t16.5 65h-11v-6l-13 -6q1 30 1 72.5zM150 194h62v27h-62v-27zM150 158h62v29h-62v-29z" />
  </g>

</svg>
