<?xml version="1.0" standalone="no"?>
<!DOCTYPE svg PUBLIC "-//W3C//DTD SVG 1.1//EN" "http://www.w3.org/Graphics/SVG/1.1/DTD/svg11.dtd" >
<svg xmlns="http://www.w3.org/2000/svg" xmlns:xlink="http://www.w3.org/1999/xlink" version="1.1" viewBox="0 -205 1024 1024">
  <g transform="matrix(1 0 0 -1 0 819)">
   <path fill="currentColor"
d="M848 692q-31 -3 -70 -12q5 -134 14 -214h84l34 44l68 -56q2 -4 2 -8q0 -7 -8 -8h-178q9 -75 24 -128q14 -51 32 -92q16 -39 38 -68q20 -25 28 -29q8 -1 14 29q4 32 14 136h20q-2 -85 0 -118q-1 -29 2 -55q0 -23 10 -40q9 -14 6 -20q0 -6 -12 -10q-10 -3 -46 14
q-37 14 -70 54q-31 39 -52 89q-19 47 -34 104q-12 56 -24 134h-154v-282l128 112l14 -16q-89 -91 -118 -125q-30 -34 -54 -80l-62 52q39 25 40 50v553l56 -36q105 28 168 50q62 22 110 44q52 -54 50 -60q0 -6 -6 -6q-3 -1 -20 2q-15 1 -48 -4v0v0zM740 466q-6 84 -12 202
q-87 -17 -138 -28v-174h150v0v0zM668 150l8 12q50 -21 76 -39q23 -15 32 -36t-2 -36t-28 -16q-17 1 -22 22q-4 18 -16 38q-12 18 -48 55v0v0zM892 838l38 48l60 -60l2 -6q0 -9 -8 -8h-516v-198q-3 -238 -42 -364q-36 -126 -122 -219l-12 12q60 92 90 211q30 117 36 336v286
l66 -38h408v0v0zM596 972l6 12q64 -18 92 -32q26 -14 38 -34q10 -21 0 -38q-10 -18 -28 -18t-24 22q-6 19 -18 38q-12 17 -66 50v0v0zM28 758h170v228l66 -30q22 -8 12 -22l-28 -14v-162h66l30 40l50 -48q3 -3 4 -8q0 -12 -14 -12h-136v-96q71 -37 100 -64q29 -24 34 -48
q4 -21 -4 -38q-6 -16 -26 -16q-19 -1 -22 22q-4 24 -22 54q-15 30 -60 66v-432l4 -107q0 -14 -20 -26q-18 -12 -38 -12l4 147v368q-27 -84 -72 -164q-44 -81 -94 -138l-10 10q38 65 68 128q27 62 58 152q30 89 48 194h-102q-6 0 -48 -8l-18 36v0v0z" />
  </g>

</svg>
