<?xml version="1.0" standalone="no"?>
<!DOCTYPE svg PUBLIC "-//W3C//DTD SVG 1.1//EN" "http://www.w3.org/Graphics/SVG/1.1/DTD/svg11.dtd" >
<svg xmlns="http://www.w3.org/2000/svg" xmlns:xlink="http://www.w3.org/1999/xlink" version="1.1" viewBox="0 -36 256 256">
  <g transform="matrix(1 0 0 -1 0 220)">
   <path fill="currentColor"
d="M111 135h85v34h-85v-34zM148 92h-50q-13 0 -22 -3l-10 10h82v29h-37v-4l-15 -5q1 17 1 33t-1 33l16 -9h83l6 10l16 -12l-7 -7q0 -25 1 -40l-15 -6v7h-43l20 -6l-10 -6v-17h53l10 11l18 -18h-81q0 -67 1 -78l-17 -7q1 21 1 85zM60 23q38 25 58 59l17 -17l-9 -2
q-28 -27 -64 -45zM175 76q42 -17 54.5 -26t11 -23t-15.5 3.5t-52 41.5zM122 209v-21l-14 -4v24h-15l-11 -3l-10 10h36v30l22 -7l-8 -6v-17h13l9 9l15 -15h-37zM204 209v-18l-14 -4v22h-11l-11 -3l-10 10h32v30l23 -7l-9 -6v-17h12l10 11l18 -18h-40zM60 220.5
q8 -7.5 2.5 -18.5t-10.5 1.5t-22 30.5l1 3q21 -9 29 -16.5zM11 178q31 -11 33 -20.5t-3.5 -15t-9.5 5.5t-21 27zM38 83.5q6 3.5 33 107.5l4 -2q-19 -86 -23.5 -109.5t-3.5 -47.5t-10 -15.5t-7 22t4 24t-22 15.5v4q19 -2 25 1.5z" />
  </g>

</svg>
