<?xml version="1.0" standalone="no"?>
<!DOCTYPE svg PUBLIC "-//W3C//DTD SVG 1.1//EN" "http://www.w3.org/Graphics/SVG/1.1/DTD/svg11.dtd" >
<svg xmlns="http://www.w3.org/2000/svg" xmlns:xlink="http://www.w3.org/1999/xlink" version="1.1" viewBox="0 -36 256 256">
  <g transform="matrix(1 0 0 -1 0 220)">
   <path fill="currentColor"
d="M35 54v71q-10 -15 -27 -28l-2 4q17 21 28 43t16 40l17 -11q-6 -6 -7 -8t-9 -16h69l14 12l15 -19h-50v-29h17l12 12l16 -19h-45v-29h20l12 10l14 -17h-46v-34h27l14 12l15 -19h-106v-14l-15 -7q1 32 1 46zM49 142v-29h36v29h-36zM49 77h36v29h-36v-29zM49 36h36v34h-36
v-34zM78 192q25 -18 23.5 -25.5t-6 -12.5t-6 5.5t-13.5 30.5zM158 65v111q0 29 -1 55l16 -11h47l9 11l15 -15l-9 -7q-12 -26 -32 -62q49 -40 43 -69.5t-39 -35.5q-5 17 -28 22v5q44 -16 50.5 9t-35.5 68q16 36 25 67h-47v-147q0 -26 1 -50l-16 -8q1 28 1 57zM68 206
q0 -10 1 -21l-15 -6q1 14 1 27h-17q-11 0 -21 -2l-9 9h47q0 19 -1 33l21 -8l-7 -8v-24zM98 213q0 18 -1 32l21 -7l-6 -7v-18h19l12 11l14 -18h-45q0 -10 1 -21l-16 -5q1 14 1 33z" />
  </g>

</svg>
