<?xml version="1.0" standalone="no"?>
<!DOCTYPE svg PUBLIC "-//W3C//DTD SVG 1.1//EN" "http://www.w3.org/Graphics/SVG/1.1/DTD/svg11.dtd" >
<svg xmlns="http://www.w3.org/2000/svg" xmlns:xlink="http://www.w3.org/1999/xlink" version="1.1" viewBox="0 -36 256 256">
  <g transform="matrix(1 0 0 -1 0 220)">
   <path fill="currentColor"
d="M54.5 166.5q1.5 -8.5 -4 -15t-7 5.5t-8.5 30l1 2q17 -14 18.5 -22.5zM97 185q-10 -4 -26 -37h19l13 10l12 -17h-79q-10 0 -19 -3l-9 10h57q12 31 17 51zM28 72.5q0 37.5 -1 56.5l15 -8h39l8 9l12 -13l-7 -6v-56q0 -16 1 -30l-14 -7v16h-39v-15l-15 -7q1 23 1 60.5zM42 82
h39v32h-39v-32zM42 41h39v34h-39v-34zM59 207q-4 14 -6 19t-9 14l2 3q20 -11 23 -19t-4 -17h17l12 10l13 -17h-63q-11 0 -20 -2l-9 9h44zM234 173l14 -16h-67q11 -18 29 -29t38 -11v-4q-11 -1 -17 -11q-19 7 -33 20.5t-22 34.5h-1q-8 -20 -26.5 -34t-48.5 -23l-1 4
q19 8 37 22.5t25 30.5h-28q-11 0 -20 -2l-9 9h22v23q0 17 -1 31l14 -6h27v11q0 13 -1 23l20 -7l-6 -9v-18h28l6 9l15 -11l-7 -6v-40zM139 164h24q4 21 3 41h-27v-41zM176 164h32v41h-29q0 -23 -3 -41zM228 15l-15 -5v11h-82v-7l-15 -6q1 25 1 54.5t-1 39.5l15 -5q16 9 25 22
l12 -15q-7 0 -16.5 -4.5t-20.5 -9.5v-26h15l11 10l13 -17h-39v-29h82v29h-8q-10 0 -19 -2l-9 9h36v26h-15q-10 0 -19 -2l-9 10h43l8 8l14 -14l-8 -5v-48q0 -13 1 -24z" />
  </g>

</svg>
