<?xml version="1.0" standalone="no"?>
<!DOCTYPE svg PUBLIC "-//W3C//DTD SVG 1.1//EN" "http://www.w3.org/Graphics/SVG/1.1/DTD/svg11.dtd" >
<svg xmlns="http://www.w3.org/2000/svg" xmlns:xlink="http://www.w3.org/1999/xlink" version="1.1" viewBox="0 -36 256 256">
  <g transform="matrix(1 0 0 -1 0 220)">
   <path fill="currentColor"
d="M95 48q-5 14 -12 26l3 2q26 -28 26 -39.5t-5 -16t-6.5 4t-4.5 18.5q-63 -14 -72 -21l-8 18q7 1 14.5 12t21.5 49h-15q-10 0 -19 -2l-9 9h25q0 111 -1 133l15 -10h39l12 10l14 -17h-65v-34h34l12 12l15 -19h-61v-33h34l12 12l15 -19h-61v-35h46l12 13l14 -20h-62l14 -8
l-8 -5q-18 -33 -32 -48zM202.5 142q-10.5 17 -18.5 37h-7q-9 -21 -23 -36t-44 -33l-2 6q17 12 30.5 26.5t23.5 36.5h-15q-10 -1 -21 -3l-9 10h47q7 24 8 36q-20 -2 -37 -3l-1 5q21 2 47 8.5t40 13.5l11 -17l-9 1q-18 -3 -34 -6q-4 -18 -10 -38h43l10 9l15 -16h-57
q11 -20 26 -34.5t31 -17.5l-1 -3q-12 1 -20 -10q-13 11 -23.5 28zM200 113q15 -17 24.5 -29t12 -21.5t-2.5 -18.5t-7.5 0.5t-9.5 26.5t-20 39zM172 144l22 -10l-8 -6v-98q0 -10 -5 -14.5t-14 -8.5q-1 13 -26 20v4q16 -3 24 -3t8 6v71q0 19 -1 39zM138 65q-8 -15 -21 -29
l-3 3q8 14 16.5 35.5t11.5 43.5l18 -11l-6 -5q-8 -22 -16 -37z" />
  </g>

</svg>
