<?xml version="1.0" standalone="no"?>
<!DOCTYPE svg PUBLIC "-//W3C//DTD SVG 1.1//EN" "http://www.w3.org/Graphics/SVG/1.1/DTD/svg11.dtd" >
<svg xmlns="http://www.w3.org/2000/svg" xmlns:xlink="http://www.w3.org/1999/xlink" version="1.1" viewBox="0 -200 1000 1000">
  <g transform="matrix(1 0 0 -1 0 800)">
   <path fill="currentColor"
d="M291 266h146v63h-89q1 -11 -1 -16q-4 -8 -16 -13q-15 -5 -19 1q-2 5 -1 22v11v152l-2 67l39 -27h89v58h-105l-56 -4l-10 32l54 -2h117v49l-5 43l55 -15q27 -8 13 -17q-6 -5 -25 -9v-1v-50h101l33 27l46 -24q10 -19 6 -24q-3 -5 -16 -5h-170v-58h78l27 27l34 -28
q20 -19 19 -25q-2 -8 -29 -9v-127v-10q1 -17 -2 -22q-3 -9 -16 -15q-13 -4 -16 2q-2 3 0 10h-95v-63h101l37 29l45 -25q10 -18 6 -23q-4 -6 -16 -6h-173v-107v-16q2 -15 -1 -20q-3 -8 -18 -12q-15 -3 -18 1q-2 2 -2 16l1 13v125h-133l-55 -3l-10 31zM348 438h89v61h-89v-61z
M437 354v59h-89v-59h89zM569 413h-94v-59h94v59zM475 499v-61h94v61h-94zM436 955l52 -15q26 -7 21 -15q-4 -7 -32 -16v-68h61l33 39l43 -35q11 -19 7 -23q-4 -6 -17 -6h-127v-76h192l-5 201l44 -15q31 -11 31 -17q-1 -6 -35 -15q-2 -38 -2 -77q0 -38 2 -77h147l39 47
l52 -42q11 -20 6 -25q-3 -5 -15 -5h-229q3 -108 17 -205q13 -96 36 -166q32 54 59 117q26 63 51 138l37 -22q24 -18 24 -25q0 -9 -35 -9q-26 -70 -55 -125q-31 -62 -66 -113q22 -43 53 -88q33 -48 50 -57q15 -6 24 24q10 31 25 135l11 -3l-5 -61q-3 -59 -4 -82q-1 -38 4 -48
q15 -25 10 -37q-6 -12 -40 4q-38 22 -78 66q-43 50 -75 116q-48 -60 -110 -107q-64 -48 -146 -86l-3 11q78 46 138 98q60 53 106 117q-9 25 -16 48q-9 25 -14 50q-11 52 -20 137q-8 84 -12 173h-342l-54 -3l-11 31l54 -3h122v76h-71l-56 -3l-11 31l54 -3h84v70zM774 887
q43 -27 57 -44q16 -20 19 -52q-1 -19 -14 -23q-13 -3 -21 19l-3 9q-5 21 -12 35q-11 24 -33 49zM96 925q48 -24 74 -45q25 -22 31 -45q3 -23 -9 -32q-13 -9 -25 17q-11 19 -31 43q-18 23 -45 51zM44 717q51 -25 69 -39q25 -21 30 -51q1 -28 -10 -32q-12 -5 -24 18
q-11 22 -28 45q-15 19 -43 49zM284 870q-20 -80 -45 -175q-15 -56 -41 -157q-23 -85 -32 -120q-14 -55 -19 -83q-5 -25 -1 -65q4 -44 17 -82q9 -32 5 -59q-4 -37 -31 -41q-16 0 -22 18q-6 15 -6 45l4 35q3 30 4 47q1 29 -1 64q-3 16 -20 30q-20 17 -67 37l2 9q12 -3 30 -5
q15 -2 25 -2q12 0 19 7q8 7 17 28q9 22 35 106q17 53 64 202l52 164z" />
  </g>

</svg>
