<?xml version="1.0" standalone="no"?>
<!DOCTYPE svg PUBLIC "-//W3C//DTD SVG 1.1//EN" "http://www.w3.org/Graphics/SVG/1.1/DTD/svg11.dtd" >
<svg xmlns="http://www.w3.org/2000/svg" xmlns:xlink="http://www.w3.org/1999/xlink" version="1.1" viewBox="0 -36 256 256">
  <g transform="matrix(1 0 0 -1 0 220)">
   <path fill="currentColor"
d="M48 243l23 -9l-8 -7v-49h30l12 13l16 -20h-25v-128q-1 -16 20 -14h98q9 -1 11.5 12t3.5 37h4q0 -21 2.5 -33t10.5 -13q-8 -14 -23 -14h-117q-24 -1 -24 20v133h-19q0 -54 -10.5 -91t-37.5 -71l-3 2q19 34 27.5 69.5t9.5 90.5h-9q-10 0 -19 -2l-9 9h37q0 48 -1 65z
M140 189h61v29h-61v-29zM140 182v-30h61v30h-61zM140 75q9 5 38 16l2 -3q-39 -25 -50 -40l-13 17q9 5 9 21v107q0 21 -1 40l16 -8h59l7 10l15 -12l-7 -8v-35q0 -18 1 -34l-15 -7v6h-61v-70zM186 104q24 -12 33.5 -21.5t5.5 -21.5t-15.5 6t-61.5 53l1 4q20 -10 31 -16
q16 9 34 33l15 -15q-11 -3 -19.5 -9t-23.5 -13z" />
  </g>

</svg>
