<?xml version="1.0" standalone="no"?>
<!DOCTYPE svg PUBLIC "-//W3C//DTD SVG 1.1//EN" "http://www.w3.org/Graphics/SVG/1.1/DTD/svg11.dtd" >
<svg xmlns="http://www.w3.org/2000/svg" xmlns:xlink="http://www.w3.org/1999/xlink" version="1.1" viewBox="0 -205 1024 1024">
  <g transform="matrix(1 0 0 -1 0 819)">
   <path fill="currentColor"
d="M742 864h144l30 32l40 -34q9 -6 10 -14q1 -3 -28 -24v-180l4 -68q-1 -15 -16 -24q-13 -9 -34 -12v38h-80v-128h102l28 32l50 -36q8 -6 8 -12q0 -7 -30 -26v-210q1 -22 -10 -40q-11 -17 -58 -31q-3 26 -24 41q-21 14 -48 20l4 18q27 -7 48 -10q22 -6 32 -2q9 1 10 26v204
h-112v-264l4 -85q1 -16 -18 -30q-18 -14 -36 -14l4 123v270h-116v-176l4 -74q0 -12 -18 -24q-18 -8 -36 -9l4 103v240l52 -34h110v128h-84v-10q1 -11 -16 -22q-17 -9 -34 -8l4 100v258l46 -32h34q36 83 46 122q63 -29 66 -34q0 -6 -2 -8q-3 0 -18 -6q-12 -3 -30 -26
q-18 -21 -36 -48v0v0zM682 604h210v104h-210v-104v0v0zM682 734h210v104h-210v-104v0v0zM492 928q9 -6 -6 -12t-24 -12q-10 -7 -46 -70q-37 -64 -106 -172h126q40 81 74 168l70 -38q4 -10 -6 -14q-12 -3 -24 -8q-11 -3 -52 -84q-42 -79 -144 -244l152 16q-12 37 -44 92
l12 10q32 -28 58 -62q27 -34 34 -58q6 -24 0 -36q-7 -12 -16 -18q-6 -4 -18 -2q-12 3 -14 16q0 13 -6 38q-84 -12 -126 -24q-41 -12 -76 -36l-34 64q23 2 56 16q45 77 94 182q-59 -3 -88 -12q-27 -5 -54 -22l-32 60q27 6 36 12q5 6 44 78q35 72 92 210l68 -38v0v0zM304 310
h20q2 -60 2 -104q1 -45 -10 -73q-12 -29 -30 -38q-18 -8 -30 -2q-12 7 -12 22q0 16 18 34q15 16 28 53q11 36 14 108v0v0zM376 326l14 4q34 -45 50 -90q15 -42 12 -72q0 -28 -18 -37q-16 -9 -28 2q-13 9 -8 47q6 37 0 68q-5 30 -22 78v0v0zM476 332l12 8q50 -46 68 -76
q15 -27 18 -54t-12 -36q-16 -9 -28 -2t-12 38q0 29 -12 56q-10 27 -34 66v0v0zM302 944q12 -8 -2 -16q-27 -2 -42 -34q-37 -80 -94 -208l52 -10q12 -6 -2 -18l-18 -8v-492l4 -85q1 -17 -22 -32q-20 -13 -34 -12l4 123v500q-58 -101 -100 -154l-12 8q39 71 106 236
q66 165 88 240l72 -38v0v0z" />
  </g>

</svg>
