<?xml version="1.0" standalone="no"?>
<!DOCTYPE svg PUBLIC "-//W3C//DTD SVG 1.1//EN" "http://www.w3.org/Graphics/SVG/1.1/DTD/svg11.dtd" >
<svg xmlns="http://www.w3.org/2000/svg" xmlns:xlink="http://www.w3.org/1999/xlink" version="1.1" viewBox="0 0 2048 2048">
  <g transform="matrix(1 0 0 -1 0 2048)">
   <path fill="currentColor"
d="M1371 1383l381 1l61 72l73 -50q15 -11 27 -23t14 -23q2 -10 -8 -22q-1 -1 -30 -19l-26 -15v-819q0 -41 -10 -67q-10 -27 -28 -44t-47 -34q-28 -17 -38 -18l-32 -7q-4 17 -8 37t-16 36q-12 17 -42 32q-31 14 -77 23l-59 11l4 42q49 -8 74 -11l53 -8q39 -6 69 -7
q31 -2 46 12q16 13 16 45v800l-405 1q-6 -32 -11 -55l-8 -37q-3 -15 -13 -51l-9 -33l64 -44l59 -40q28 -21 61 -50q34 -28 56 -50q21 -23 50 -62t36 -82q7 -44 -14 -62q-22 -18 -43 -14q-21 3 -33 20q-13 16 -28 50q-14 34 -40 76q-25 41 -50 74q-25 32 -51 61t-46 46
l-38 32l-31 -68q-14 -28 -34 -61t-44 -65t-50 -59q-26 -26 -64 -62q-39 -36 -48 -43l-48 -38l-21 30l59 59q27 28 59 72q32 43 61 92q28 49 50 96q21 48 38 104q16 55 25 104l11 59h-339v-964q0 -11 -8 -22t-21 -17q-12 -7 -35 -3q-20 2 -29 11t-10 27t0 37q0 19 4 74
q3 56 4 76v54l-2 735q-1 53 -2 65l-8 60l121 -76l332 -1q5 43 7 75q3 31 6 94q2 62 2 83v76h-345q-30 0 -71 -3l-27 -2q-24 -2 -26 -2l-25 -3l-39 85l52 -8q26 -3 39 -4q14 -1 46 -3q33 -2 51 -2h758l99 101l121 -107q10 -10 14 -15q4 -6 1 -18q-4 -11 -12 -15q-7 -4 -14 -4
h-526v-83q-1 -31 -4 -100q-4 -70 -5 -86zM373 409q7 12 12 18l11 16q22 33 47 81q25 47 39 82q14 36 24 76q11 39 18 81q8 42 12 76l4 37h-268q-14 -4 -23 -6q-9 -1 -25 -1q-24 -1 -34 7q-9 7 -10 13q0 6 10 18l29 38l46 59q16 21 67 96q52 74 70 104q19 29 43 73l19 35
h-191q-24 0 -57 -2q-32 -3 -41 -4q-9 0 -26 -2l-24 -3l-39 86q26 -5 46 -8q21 -3 40 -5q20 -1 52 -3q31 -2 49 -2h191l68 67l95 -82q19 -18 15 -36q-3 -17 -26 -23l-51 -15q-25 -34 -36 -51l-52 -78l-76 -106l-43 -57l-42 -57h220l63 66l90 -66q23 -18 21 -35
q-1 -16 -21 -24l-50 -20q-5 -17 -6 -25l-14 -66q-10 -43 -23 -81q-14 -39 -32 -77q-19 -38 -45 -80t-47 -67t-33 -38l-22 -23l22 -18l21 -20q12 -12 48 -37q36 -24 62 -38q26 -15 74 -30q49 -15 106 -26q56 -11 164 -21q109 -10 210 -13q102 -4 200 -4l205 2q107 0 197 2
q89 2 188 8l74 4v-34l-34 -6q-17 -4 -39 -20q-22 -15 -25 -30l-8 -26q-49 -1 -76 0q-26 0 -151 2t-276 2q-151 -1 -241 2q-90 2 -191 13t-165 25q-63 13 -105 28q-42 16 -87 39q-44 23 -74 44t-58.5 48t-43.5 39q-16 12 -35 14q-19 1 -56 -22l-62 -41q-25 -17 -64 -47
l-25 -19v-36q0 -21 -3 -27q-3 -7 -17 -10q-13 -2 -32 24l-62 82l59 32l97 54q72 41 99 54.5t33 14.5zM248 1900q42 -24 65 -39t59 -41q36 -27 65 -52q29 -26 47 -50q18 -25 29 -52t10 -48q-2 -28 -18 -44t-37 -18q-20 -1 -33 14q-6 6 -10 14q-4 9 -13 36q-10 28 -22 54
q-11 25 -26 50q-14 24 -30 44t-41 44l-47 45l-19 17z" />
  </g>

</svg>
