<?xml version="1.0" standalone="no"?>
<!DOCTYPE svg PUBLIC "-//W3C//DTD SVG 1.1//EN" "http://www.w3.org/Graphics/SVG/1.1/DTD/svg11.dtd" >
<svg xmlns="http://www.w3.org/2000/svg" xmlns:xlink="http://www.w3.org/1999/xlink" version="1.1" viewBox="0 -36 256 256">
  <g transform="matrix(1 0 0 -1 0 220)">
   <path fill="currentColor"
d="M195 231l13 12l17 -19h-159q-16 0 -24 -2l-9 9h162zM77 169.5q3 5.5 6 18.5h-42q-10 0 -19 -2l-9 9h72l8 33h14l-8 -33h113l14 13l18 -20h-147l-8 -27h118l9 11l15 -14l-8 -6q-6 -108 -14.5 -123t-20.5 -18q-2 14 -30 21v5q25 -6 35.5 -3t15.5 120h-122l-8 -7l-12 14
q7 3 10 8.5zM54 68v38q0 19 -1 36l14 -8h70l7 11l15 -13l-7 -6v-88q1 -18 -19 -26q-2 15 -27 20v4q15 -2 23.5 -2t8.5 10v17h-70q-4 -31 -38 -53l-2 3q25 25 26 57zM68 95v-27h70v27h-70zM68 102h70v25h-70v-25z" />
  </g>

</svg>
