<?xml version="1.0" standalone="no"?>
<!DOCTYPE svg PUBLIC "-//W3C//DTD SVG 1.1//EN" "http://www.w3.org/Graphics/SVG/1.1/DTD/svg11.dtd" >
<svg xmlns="http://www.w3.org/2000/svg" xmlns:xlink="http://www.w3.org/1999/xlink" version="1.1" viewBox="0 -144 1024 1024">
  <g transform="matrix(1 0 0 -1 0 880)">
   <path fill="currentColor"
d="M309 817l53 -37l9 -17l-20 -1l-42 -62l-59 -78l-28 -32l29 -4l16 -11l-16 -10v-485l-64 -32v504l-39 -38l-37 -35l-39 -33l-42 -30l-6 7l98 114l60 77l54 78l48 80l22 40zM909 96l-64 37l-29 20l-27 22l-25 22l-22 24l-20 24l-18 26l-14 27l-8 24v-242l-65 -32v228
l-20 -22l-29 -28l-31 -27l-34 -25l-35 -23l-37 -22l-39 -20l-41 -17l-44 -16l-4 9l75 49l34 25l63 51l55 54l24 29l22 29h-179v22h220v102h-102v-16l-64 -33v275h-97v21h97v113l64 -11l16 -11l-16 -9v-82h81v108l64 -11l16 -11l-16 -10v-76h102v108l65 -11l16 -11l-16 -10
v-76h21l54 54l65 -54v-21h-140v-124l-65 -32v43h-102v-33l-64 -32v178h-81v-205h327l44 49l54 -49v-21h-258v-102h156l53 53l65 -53v-22h-259l54 -50l22 -19l23 -17l26 -17l26 -16l28 -15l31 -14l31 -13l32 -14zM762 672h-102v-92h102v92zM291 992l48 -44l5 -18l-20 3
l-55 -54l-53 -46l-57 -44l-31 -22l-67 -40l-6 8l130 131l66 74zM737 994l64 -11l16 -10l-16 -10v-50h56l53 54l65 -54v-22h-174v-56l-64 -32v88h-132v-56l-64 -32v88h-174v22h174v81l64 -11l17 -10l-17 -10v-50h132v81z" />
  </g>

</svg>
