<?xml version="1.0" standalone="no"?>
<!DOCTYPE svg PUBLIC "-//W3C//DTD SVG 1.1//EN" "http://www.w3.org/Graphics/SVG/1.1/DTD/svg11.dtd" >
<svg xmlns="http://www.w3.org/2000/svg" xmlns:xlink="http://www.w3.org/1999/xlink" version="1.1" viewBox="0 -36 256 256">
  <g transform="matrix(1 0 0 -1 0 220)">
   <path fill="currentColor"
d="M18 108.5q0 58.5 -1 96.5l13 -7h32q1 21 0 46l21 -9l-7 -7q0 -15 -1 -30h28l5 11l15 -12l-7 -8v-154q0 -6 -3 -11t-16 -11q-2 13 -27 19v5q23 -3 28.5 -3t5.5 9v148h-30q-2 -9 -4 -16q18 -10 25.5 -18t4 -22t-9.5 1t-22 33q-8 -30 -35 -49l-2 3q24 29 30 68h-31v-169
l-13 -9q1 37 1 95.5zM70 101q16 -12 24.5 -22t3.5 -22t-9.5 1.5t-21.5 35.5q-12 -34 -34 -51l-2 3q14 19 22.5 43t9.5 51l19 -11l-5 -5q-3 -11 -7 -23zM194 153l-14 -5v14h-34q-4 -21 -7 -44h37l7 11l15 -14l-8 -6q-5 -77 -14 -87.5t-22 -13.5q0 15 -25 24v4q15 -3 23.5 -4
t14 3.5t10.5 75.5h-38l-7 -7l-13 16q8 1 11 20.5t4 38.5l12 -10h34v46h-29q-10 0 -19 -2l-9 9h56l7 11l13 -12l-6 -7v-32q0 -15 1 -29zM230 15l-15 -7q1 34 1 52v123q0 22 -1 54l22 -11l-8 -7v-175q0 -14 1 -29z" />
  </g>

</svg>
