<?xml version="1.0" standalone="no"?>
<!DOCTYPE svg PUBLIC "-//W3C//DTD SVG 1.1//EN" "http://www.w3.org/Graphics/SVG/1.1/DTD/svg11.dtd" >
<svg xmlns="http://www.w3.org/2000/svg" xmlns:xlink="http://www.w3.org/1999/xlink" version="1.1" viewBox="0 -150 1000 1000">
  <g transform="matrix(1 0 0 -1 0 850)">
   <path fill="currentColor"
d="M934 831h-520v-222q8 -290 -140 -431l-8 9q61 95 83 184q23 91 23 237v221q-6 26 -21 43l10 10l41 -33h442l34 44l62 -51q6 -6 4.5 -9t-10.5 -2zM94 890l4 11q114 -26 146 -82q14 -22 11 -45q-5 -23 -22 -25q-13 0 -24 32t-37 59.5t-78 49.5zM85 522q-18 1 -35 -11
l-31 31h158l33 38l46 -46q7 -6 6 -9.5t-10 -5.5l-20 -8v-331q23 -4 45 -23q33 -26 73 -39.5t128 -17.5h158q181 -2 346 8v-15q-65 -1 -77 -40h-242q-235 -2 -299 20q-62 22 -88.5 44t-49.5 30q-55 13 -139 -88l-49 48q65 38 103 54q26 12 50 17v344h-106zM551 965l3 11
q58 -16 81 -32q28 -19 36 -34q20 -41 -11 -54q-15 -2 -23 20q-4 20 -23 41q-21 24 -63 48zM679 627h130v88h-130v-88zM809 609h-130v-88h130v88zM513 233h300v147h-300v-147zM467 428l35 -30h298l33 32l39 -38q6 -5 5 -9t-9 -6l-16 -8v-110l3 -59q-1 -27 -42 -27v42h-300
v-20q2 -29 -45 -37q5 32 6 93v136q-3 17 -17 31zM625 822l75 -30q10 -4 4 -10q-19 -7 -25 -16v-33h116l31 33l40 -36q6 -5 5 -8t-9 -5l-17 -6v-84h30l28 35l49 -42q7 -6 5.5 -9t-10.5 -2h-102v-74l4 -45q2 -24 -40 -27v40h-130v-20l2 -27q2 -29 -43 -37v5q3 26 5 58v21h-102
q-21 0 -38 -14l-29 32h169v88h-144q-21 0 -41 -15l-28 33h213v88h-99q-20 1 -32 -9l-30 27h161v42q1 12 -26 37z" />
  </g>

</svg>
