<?xml version="1.0" standalone="no"?>
<!DOCTYPE svg PUBLIC "-//W3C//DTD SVG 1.1//EN" "http://www.w3.org/Graphics/SVG/1.1/DTD/svg11.dtd" >
<svg xmlns="http://www.w3.org/2000/svg" xmlns:xlink="http://www.w3.org/1999/xlink" version="1.1" viewBox="0 -205 1024 1024">
  <g transform="matrix(1 0 0 -1 0 819)">
   <path fill="currentColor"
d="M484 688l70 -22q7 -3 8 -6q3 -4 0 -8l-26 -14v-24h314l32 48l66 -54q3 -4 4 -10q0 -12 -12 -12h-404v-88h234l26 32l64 -40q7 -6 8 -12q0 -7 -32 -28v-122q0 -27 -20 -44q-22 -17 -64 -28q-12 33 -26 42q-13 9 -64 24l2 18q72 -16 90 -16q15 -1 22 8q7 8 6 28v110h-246
v-48q66 -102 130 -156q64 -53 140 -88q75 -34 180 -41v-18q-58 -7 -70 -14t-30 -26q-48 20 -114 58q-65 35 -130 99q-62 62 -106 146v-222l6 -81q0 -15 -24 -28q-21 -9 -38 -10l4 115v232q-66 -83 -186 -184t-252 -159l-8 10q128 81 236 179q105 99 210 228v8h-234v-100
l4 -72q0 -14 -20 -28q-18 -12 -42 -12l4 98v180l58 -38h230v88h-328q-21 0 -68 -8l-16 36h412v74v0v0zM316 936q7 -4 8 -8q0 -7 -12 -10l-26 -14q-21 -28 -50 -64h192l36 44l58 -54q2 -3 2 -6q0 -10 -8 -10h-202q51 -49 66 -76q15 -25 10 -46q-6 -22 -18 -28t-24 0t-18 40
q-3 33 -12 54q-9 22 -32 56h-64q-81 -107 -168 -172l-10 10q117 123 208 318l64 -34v0v0zM698 928q7 -4 8 -8q0 -7 -12 -10l-30 -12l-42 -56h236l36 46l58 -58q2 -3 2 -6q0 -7 -8 -8h-240q50 -49 64 -76q13 -25 8 -46q-6 -22 -18 -28t-24 0t-18 40q-3 32 -12 56
q-10 24 -28 54h-78q-66 -81 -138 -134l-10 8q87 90 180 276l66 -38v0v0z" />
  </g>

</svg>
