<?xml version="1.0" standalone="no"?>
<!DOCTYPE svg PUBLIC "-//W3C//DTD SVG 1.1//EN" "http://www.w3.org/Graphics/SVG/1.1/DTD/svg11.dtd" >
<svg xmlns="http://www.w3.org/2000/svg" xmlns:xlink="http://www.w3.org/1999/xlink" version="1.1" viewBox="0 -205 1024 1024">
  <g transform="matrix(1 0 0 -1 0 819)">
   <path fill="currentColor"
d="M594 978l82 -32q6 -3 6 -6q1 -4 -4 -8l-34 -18v-108h66q52 78 86 138l56 -34q14 -11 2 -16q-21 -4 -38 -16q-17 -9 -76 -72h150l30 30l62 -48q3 -12 -12 -14q-24 -7 -36 -16t-66 -68l-14 8l42 82h-520q1 -54 -16 -78q-15 -25 -38 -28q-24 -5 -30 12q-7 17 8 32
q15 12 34 36q16 24 20 90h20l2 -38h218v172v0v0zM440 756l50 -30h246l28 30l50 -34q6 -3 6 -12q0 -3 -24 -20v-42l4 -30q3 -12 -14 -24q-15 -10 -36 -10v30h-262v-8q-3 -9 -20 -18q-15 -6 -32 -6l4 60v114v0v0zM488 638h262v64h-262v-64v0v0zM350 602l52 -30h428l24 30
l56 -38q9 -7 -2 -16l-22 -14v-96l4 -40q-1 -16 -16 -26q-15 -8 -36 -10v26h-194v-70h180l34 32l50 -40q3 -3 4 -6q4 -12 -10 -12h-258v-66h246l34 34l58 -44q3 -3 4 -8q1 -9 -10 -8h-650q-22 0 -46 -8l-14 34h326v66h-198q-18 0 -42 -8l-18 34h258v70h-194v-12q0 -9 -8 -14
q-15 -15 -44 -14l4 74v180v0v0zM398 412h194v134h-194v-134v0v0zM644 546v-134h194v134h-194v0v0zM334 932q12 -7 -2 -16q-27 -1 -42 -28q-32 -78 -88 -198l40 -16q12 -5 -2 -16l-18 -14v-482l4 -99q1 -14 -22 -26q-20 -14 -34 -14l4 131v476q-63 -126 -132 -206l-12 8
q63 113 136 284q69 171 94 258l74 -42v0v0zM376 184h20q-1 -63 -8 -91q-7 -26 -22 -44q-15 -14 -36 -20q-18 -3 -30 6q-9 8 -6 22q2 12 20 24t36 32q17 21 26 71v0v0zM658 182l12 8q46 -39 62 -57q16 -21 20 -42q2 -21 -10 -36q-11 -11 -28 -8q-15 5 -18 28q0 22 -6 40
q-3 19 -32 67v0v0zM806 172l8 12q70 -33 98 -57t32 -48q3 -21 -8 -34q-12 -13 -24 -8q-11 4 -22 28t-28 48q-15 24 -56 59v0v0zM488 180l12 8q39 -34 54 -53q15 -21 18 -46q3 -21 -8 -34q-11 -8 -28 -8q-18 3 -18 26q-1 24 -4 44q-3 21 -26 63v0v0zM434 520l8 12
q45 -18 72 -36q26 -18 26 -38q1 -19 -12 -28q-12 -10 -24 -4q-13 6 -16 18q0 11 -12 32q-9 20 -42 44v0v0zM692 428q45 66 66 108l54 -32q3 -9 -2 -12q-7 -1 -16 -4q-10 -1 -22 -14q-13 -9 -64 -54l-16 8v0v0zM396 936l10 10q54 -25 84 -46q32 -22 32 -46q1 -22 -12 -32
q-12 -10 -26 -4q-12 5 -18 20q-3 13 -12 32q-8 18 -58 66v0v0z" />
  </g>

</svg>
