<?xml version="1.0" standalone="no"?>
<!DOCTYPE svg PUBLIC "-//W3C//DTD SVG 1.1//EN" "http://www.w3.org/Graphics/SVG/1.1/DTD/svg11.dtd" >
<svg xmlns="http://www.w3.org/2000/svg" xmlns:xlink="http://www.w3.org/1999/xlink" version="1.1" viewBox="0 -36 256 256">
  <g transform="matrix(1 0 0 -1 0 220)">
   <path fill="currentColor"
d="M79 114q3 -63 -8 -81.5t-24 -23.5q0 13 -21 23v4q14 -3 22 -3t14 15.5t4 65.5q-16 -30 -57 -59l-1 4q48 50 55 79q0 10 -5 24q-10 -25 -48 -55l-2 2q29 31 45 70l-8 13q-11 -17 -31 -32l-2 3q30 33 36 61q-16 1 -26 -3l-8 10h70l12 11l15 -18h-48q-3 -10 -13 -27
q15 -14 22 -37q11 12 26 43l13 -18l-6 -3l-31 -30q3 -13 4 -26q26 -31 29.5 -44t-3.5 -23t-8.5 8t-16.5 47zM113 48v117q0 41 -1 72l15 -10h25l7 11l13 -12l-8 -8v-47h23q0 14 -1 65l15 -9h25l8 12l13 -13l-8 -8v-185q1 -18 -17 -24q-1 15 -26 17v5q16 -2 23 -1.5t7 7.5v183
h-26v-57l-13 -10v11h-23l-7 -7l-14 11l8 5v47h-24v-205l-15 -8q1 20 1 41zM130 42q32 26 45 47q-8 11 -27 31l3 2q19 -14 30 -24q11 21 12 34h-21q-13 0 -22 -3l-10 10h54l10 9l13 -15l-8 -5q-10 -26 -17 -38q19 -19 22 -26t-2.5 -15.5t-11.5 4.5t-16 25q-17 -21 -52 -39z
" />
  </g>

</svg>
