<?xml version="1.0" standalone="no"?>
<!DOCTYPE svg PUBLIC "-//W3C//DTD SVG 1.1//EN" "http://www.w3.org/Graphics/SVG/1.1/DTD/svg11.dtd" >
<svg xmlns="http://www.w3.org/2000/svg" xmlns:xlink="http://www.w3.org/1999/xlink" version="1.1" viewBox="0 -205 1048 1024">
  <g transform="matrix(1 0 0 -1 0 819)">
   <path fill="currentColor"
d="M972 623l-6 -16h-582v21h248v78h-200v21h200v85h-221v21h137q-4 4 -30 55q-21 40 -58 62l7 10q47 -18 80 -48t33 -60q0 -10 -5 -19h147l57 141l43 -22q19 -9 19 -17q0 -12 -32 -16l-67 -86h108l29 33q12 16 13 16q4 0 18 -14l42 -39l-6 -17h-269v-85h129l27 33
q12 15 15 15q4 0 19 -13l42 -40l-9 -16h-223v-78h195l28 36q12 15 14 15q4 0 16 -13zM910 493q4 -35 -16 -35q-11 0 -17 24q-12 44 -53 74l6 8q77 -41 80 -71zM986 414l-5 -15h-213q6 -80 45 -148q53 46 91 121l33 -16q20 -11 20 -20q0 -12 -30 -8q-36 -53 -98 -104
q25 -44 53 -71q22 -21 32 -21t20 25l33 85l6 -3l-22 -101q-3 -13 -3 -22q0 -15 10 -24t10 -15q0 -5 -2 -10q-8 -7 -17 -7q-18 0 -56 30.5t-95 109.5q-104 -76 -197 -111l-6 10q101 42 190 125q-40 81 -53 175h-153v-94l136 36l1 -10l-137 -50v-125q0 -48 -7 -63t-34 -27
q-17 -7 -24 -7q-10 0 -10 17t-12 20l-86 20l4 11l85 -11q26 -3 32.5 6t6.5 40v101l-96 -37q-2 -33 -16 -33q-10 0 -20 22l-15 38l147 37v109h-155v21h155v99q-71 -21 -148 -35l-5 10q148 32 246 103l24 -16q20 -12 20 -20q0 -7 -18 -7q-8 0 -20 2q-35 -16 -54 -22v-114h148
q-1 38 -6 127l-4 50l41 -14q27 -9 27 -18q0 -8 -26 -19q0 -56 7 -126h129l29 30q11 13 13 13q3 0 16 -13zM372 850q10 -11 10 -18q0 -10 -28 -16v-519q0 -13 1 -27t1 -17q0 -17 -27 -27q-10 -3 -14 -3q-6 0 -7 7q-1 6 0 27q1 31 1 52h-189v-43q0 -65 1 -58q-2 -12 -24 -20
q-9 -3 -13 -3q-8 0 -8 15q0 -11 0 55l-4 622l51 -22h175l15 21q9 12 12 12t16 -11zM309 591v243h-71v-243h71zM193 591v243h-73v-243h73zM309 329v241h-71v-241h71zM193 329v241h-73v-241h73z" />
  </g>

</svg>
