<?xml version="1.0" standalone="no"?>
<!DOCTYPE svg PUBLIC "-//W3C//DTD SVG 1.1//EN" "http://www.w3.org/Graphics/SVG/1.1/DTD/svg11.dtd" >
<svg xmlns="http://www.w3.org/2000/svg" xmlns:xlink="http://www.w3.org/1999/xlink" version="1.1" viewBox="0 -36 256 256">
  <g transform="matrix(1 0 0 -1 0 220)">
   <path fill="currentColor"
d="M25 230q35 -20 36.5 -31.5t-4.5 -16t-11.5 10t-23.5 34.5zM37 97q8 1 34 100l6 -2q-24 -100 -25 -108t0 -25t2 -30.5t-6.5 -13t-12 6t-2 13.5t4 23.5t-3.5 21.5t-24 10l1 5q18 -2 26 -1zM150 217q0 13 -13 28l4 2q23 -12 23.5 -18.5t-6.5 -11.5h54l13 11l17 -18h-142
q-11 0 -20 -2l-10 9h80zM91 160.5q0 19.5 -1 41.5l15 -8h102l6 8l14 -11l-6 -5q0 -46 1 -64l-14 -6v7h-103v-3l-15 -4q1 25 1 44.5zM105 130h103v57h-103v-57zM136 175h37l6 7l14 -10l-7 -5q0 -11 1 -23l-13 -5v6h-38v-2l-12 -4q1 9 1 17.5t-1 24.5zM136 152h38v16h-38v-16z
M99 73.5q0 21.5 -1 37.5l14 -7h87l6 10l16 -12l-7 -5q0 -45 1 -59l-15 -5v8h-88v-6l-14 -3q1 20 1 41.5zM112 76h88v21h-88v-21zM112 48h88v21h-88v-21zM216 25l13 13l18 -20h-150q-12 -1 -21 -3l-10 10h150z" />
  </g>

</svg>
