<?xml version="1.0" standalone="no"?>
<!DOCTYPE svg PUBLIC "-//W3C//DTD SVG 1.1//EN" "http://www.w3.org/Graphics/SVG/1.1/DTD/svg11.dtd" >
<svg xmlns="http://www.w3.org/2000/svg" xmlns:xlink="http://www.w3.org/1999/xlink" version="1.1" viewBox="0 -36 256 256">
  <g transform="matrix(1 0 0 -1 0 220)">
   <path fill="currentColor"
d="M15 209l-1 4q18 5 39 13.5t31 18.5l12 -20q-7 0 -30 -6v-48h13l11 12l14 -19h-38v-24q21 -9 25 -17t0 -17.5t-9 4.5t-16 25q0 -94 1 -119l-15 -8q1 51 1 123q-18 -40 -45 -70l-2 3q32 53 45 100h-15q-9 0 -18 -2l-9 9h44v45q-10 -3 -38 -7zM106 147.5q0 20.5 -2 36.5
l15 -7h96l7 8l15 -13l-8 -4q0 -38 2 -53l-15 -4v6h-96v-5l-16 -4q2 19 2 39.5zM120 150h41v20h-41v-20zM174 150h42v20h-42v-20zM120 124h41v19h-41v-19zM174 124h42v19h-42v-19zM133 116l23 -8l-10 -6v-12h41v26l21 -8l-8 -5v-13h16l10 9l16 -16h-42v-23h27l10 10l15 -17
h-135q-12 0 -23 -2l-10 9h49v23h-3q-12 0 -23 -2l-11 9h37v26zM146 60h41v23h-41v-23zM153 39q-12 -3 -26.5 -13t-34.5 -20l-3 3q18 13 28.5 23t17.5 21zM229 33q11 -9 7 -20t-9 -4t-13 16t-28 23l2 3q30 -9 41 -18zM173 220h40l13 11l17 -18h-70v-16h38l7 9l16 -16h-105
q-8 -1 -18 -3l-11 10h60v16h-35q-11 -1 -21 -3l-10 10h66v12q0 6 -1 15l25 -9l-11 -6v-12z" />
  </g>

</svg>
