<?xml version="1.0" standalone="no"?>
<!DOCTYPE svg PUBLIC "-//W3C//DTD SVG 1.1//EN" "http://www.w3.org/Graphics/SVG/1.1/DTD/svg11.dtd" >
<svg xmlns="http://www.w3.org/2000/svg" xmlns:xlink="http://www.w3.org/1999/xlink" version="1.1" viewBox="0 -36 256 256">
  <g transform="matrix(1 0 0 -1 0 220)">
   <path fill="currentColor"
d="M67 218q19 -7 25 -11.5t3.5 -10t-5.5 -8t-4.5 2.5t-7 10t-13.5 12q-15 -22 -43 -37l-2 3q20 17 29 35.5t11 29.5l21 -8l-7 -4q-6 -7 -7 -14zM129 219q20 -9 25 -13.5t4.5 -10t-4.5 -8.5t-7 3.5t-7 10.5l-13 13q-14 -22 -41 -36l-2 3q20 17 29 35t11 29l20 -9l-8 -4
q-4 -6 -7 -13zM197 219q22 -12 28.5 -18t4 -12t-5.5 -7.5t-5.5 4t-8.5 12.5t-15 16q-15 -22 -42 -36l-2 3q20 17 29 35t11 29l21 -9l-8 -4q-4 -6 -7 -13zM65 162q19 -6 24 -11t4 -10.5t-4.5 -7.5t-5 2.5t-7 9.5t-14.5 13q-14 -22 -42 -36l-2 2q21 16 29.5 34.5t10.5 31.5
l21 -10l-7 -4q-5 -6 -7 -14zM128 163q20 -8 25 -12.5t4.5 -10.5t-4.5 -8.5t-7 3.5t-6.5 10t-13.5 14q-14 -22 -41 -35l-2 2q20 16 29 34t11 31l20 -11l-7 -4q-5 -5 -8 -13zM198 163q22 -11 28.5 -17.5t4 -12t-5.5 -6.5t-5.5 3.5t-8.5 11.5t-15 17q-16 -22 -42 -35l-2 2
q20 16 29 34t11 31l21 -11l-8 -4q-4 -5 -7 -13zM113.5 27q9.5 -1 9.5 4v35q-16 -2 -38.5 -4t-38.5 -6l-13 15q18 1 42.5 8t60.5 19q-17 0 -39.5 -2t-32.5 -4l-13 14q9 0 34 9.5t39 20.5l16 -12q-26 -4 -38 -10t-31 -10h78q15 4 32 16l22 -11q-12 -2 -39.5 -11t-88.5 -27
q68 4 123 6q-11 9 -28 18l3 3q11 -4 31 -11.5t23 -15.5t-1 -13.5t-9.5 2t-13.5 12.5l-66 -6v-38q1 -5 -3.5 -11.5t-18.5 -9.5q-4 15 -37 18v4q26 -1 35.5 -2zM103 44h-13q-50 -18 -81 -23l-1 3q29 9 45.5 16.5t32.5 17.5zM155 59q33 -9 53.5 -15.5t23.5 -13t0.5 -12.5
t-13 3.5t-66.5 32.5z" />
  </g>

</svg>
