<?xml version="1.0" standalone="no"?>
<!DOCTYPE svg PUBLIC "-//W3C//DTD SVG 1.1//EN" "http://www.w3.org/Graphics/SVG/1.1/DTD/svg11.dtd" >
<svg xmlns="http://www.w3.org/2000/svg" xmlns:xlink="http://www.w3.org/1999/xlink" version="1.1" viewBox="0 -36 256 256">
  <g transform="matrix(1 0 0 -1 0 220)">
   <path fill="currentColor"
d="M202 244l13 -13l-6 -5l-8 -25h26l8 9l12 -13l-7 -5q-2 -38 -7 -52.5t-24 -16.5q3 12 -17 17l1 4q10 -2 20.5 -2t13.5 51h-27l-5 -5l-10 12q6 4 11 27h-67q-2 -76 -54 -112l-2 3q42 44 43 109q-10 0 -19 -2l-10 9h106zM140 193h33l5 7l13 -9l-5 -6v-50l-11 -4v7h-35v-6
l-11 -4v73zM140 145h35v18h-35v-18zM140 170h35v15h-35v-15zM154 80v21l15 -6q10 9 21 19h-57q-10 0 -19 -2l-9 9h86l9 8l16 -18l-11 -1q-12 -6 -32 -17l3 -3l-7 -3v-7h47l14 12l16 -19h-77v-40q0 -18 -21 -24q-2 14 -27 19v4q33 -5 33 2v39h-45q-10 0 -20 -2l-9 9h74z
M32.5 138.5q-3.5 -11.5 -12.5 -14t-11 2.5t7.5 16t14.5 43h4q1 -36 -2.5 -47.5zM46 245l22 -13l-8 -9v-170q0 -22 1 -36l-15 -10q1 36 1 58v126q0 29 -1 54zM84 171q6 -9 4 -17t-8 -8.5t-8 12.5t-10 34l3 2q13 -14 19 -23z" />
  </g>

</svg>
