<?xml version="1.0" standalone="no"?>
<!DOCTYPE svg PUBLIC "-//W3C//DTD SVG 1.1//EN" "http://www.w3.org/Graphics/SVG/1.1/DTD/svg11.dtd" >
<svg xmlns="http://www.w3.org/2000/svg" xmlns:xlink="http://www.w3.org/1999/xlink" version="1.1" viewBox="0 -246 2048 2048">
  <g transform="matrix(1 0 0 -1 0 1802)">
   <path fill="currentColor"
d="M739 1252q263 41 444 78l11 -53q-430 -107 -916 -199q-15 -82 -41 -82q-48 0 -96 184q243 22 479 56v180h-362l-21 51h670l90 102q59 -44 135 -110l-24 -43h-369v-164zM436 758q-113 -78 -244 -140l-32 43q329 189 510 482q162 -27 162 -61q0 -21 -91 -37l-34 -41h438
l64 61q126 -86 126 -118q0 -20 -28 -23l-70 -12q-64 -50 -127 -84h485l75 82q130 -83 130 -117q0 -12 -17 -22l-53 -31v-463q0 -130 -111 -164q-47 -14 -112 -16q-3 56 -68 77q-58 22 -228 43v54q172 -21 322 -21q80 0 80 74v82h-1078q-65 -234 -369 -342l-31 45
q301 135 301 438v211zM551 846q13 -5 33 -18h444q70 73 103 125h-469q-37 -37 -111 -107zM545 457h471v143h-465v-55q0 -45 -6 -88zM1131 457h482v143h-482v-143zM551 651h465v126h-465v-126zM1131 651h482v126h-482v-126zM1190 1665q-33 126 -45 271q196 -6 196 -51
q0 -21 -71 -49q6 -90 26 -164h387l88 106q52 -39 125 -119l-24 -38h-559q67 -219 182 -341q77 -85 168 -142q70 -44 100 -44q62 0 86 266l55 -31q-12 -122 -12 -180q0 -98 57 -113q-9 -92 -88 -92q-68 0 -168 51q-181 93 -296 234q-137 170 -195 385h-1092l-16 51h1096z
M1599 1706q-38 0 -59 45q-32 68 -148 121l19 39q252 -40 252 -142q0 -63 -64 -63z" />
  </g>

</svg>
