<?xml version="1.0" standalone="no"?>
<!DOCTYPE svg PUBLIC "-//W3C//DTD SVG 1.1//EN" "http://www.w3.org/Graphics/SVG/1.1/DTD/svg11.dtd" >
<svg xmlns="http://www.w3.org/2000/svg" xmlns:xlink="http://www.w3.org/1999/xlink" version="1.1" viewBox="0 -52 256 256">
  <g transform="matrix(1 0 0 -1 0 204)">
   <path fill="currentColor"
d="M79 253l22 -8q4 -1 2 -2q-5 -3 -8 -6v-15h64v17q0 4 -7 10l2 3l22 -8q3 -1 2 -3q-5 -2 -8 -5v-14h51l8 10l17 -13q4 -2 -2 -2h-74v-8l1 -9q0 -5 -4 -8q-3 -1 -10 -3q2 9 2 23v5h-64v-8l1 -9q0 -5 -4 -8q-3 -1 -10 -3q2 9 2 22v6h-54q-7 0 -11 -4l-9 9h74v18q0 4 -7 10z
M48 106l11 -7h66v9q0 4 -7 10l2 3l21 -9q4 0 1 -2q-5 -2 -6 -5v-6h57l10 9l12 -12q2 -2 1 -2q0 -1 -2 -2l-5 -2v-15l1 -12q1 -7 -12 -9v5h-62v-22l64 3q-5 2 -14 7q-6 3 -9 5l1 3q50 -16 53 -36q-1 -6 -5 -6q-5 0 -8 7t-12 15l-86 -7q-23 -2 -52 -4q-14 -2 -17 -2
q-7 -1 -13 -8l-9 17l96 5v23h-64v-2q1 -9 -13 -11q2 9 2 20v28q-1 6 -5 10zM125 94h-64v-30h64v30zM136 64h62v30h-62v-30zM212 174v-15q0 -15 -3 -22q-4 -6 -18 -10q0 11 -31 17l1 4q3 -1 9 -2q18 -3 24 -3q6 1 6 13v22h-84v-35l1 -15q0 -9 -15 -12q2 10 2 38v24h-57
q-6 0 -11 -3l-8 8h168l7 8l14 -9l2 -2q0 -1 -2 -2z" />
  </g>

</svg>
