<?xml version="1.0" standalone="no"?>
<!DOCTYPE svg PUBLIC "-//W3C//DTD SVG 1.1//EN" "http://www.w3.org/Graphics/SVG/1.1/DTD/svg11.dtd" >
<svg xmlns="http://www.w3.org/2000/svg" xmlns:xlink="http://www.w3.org/1999/xlink" version="1.1" viewBox="0 -52 256 256">
  <g transform="matrix(1 0 0 -1 0 204)">
   <path fill="currentColor"
d="M59 131l9 -8h115l9 8l13 -10l1 -1q-1 -1 -3 -2l-4 -2v-12v-8q0 -8 -11 -9v8h-117q0 -4 -3 -7q-4 -3 -9 -3q0 1 1 3q1 6 1 12v20q1 3 -5 8zM221 70v-43q0 -6 -3 -11t-18 -7q0 7 -7 9q-2 0 -7 2q-5 1 -8 2v4q20 -3 24 -3q5 0 6 2q3 1 2 15v34h-161v-46l2 -9q0 -9 -14 -12
q2 10 2 30v39q-2 6 -5 9l4 3l9 -10h159l8 9l12 -9l2 -2q0 -1 -2 -2zM71 99h117v20h-117v-20zM154 72l18 -8l2 -1q1 -1 -1 -2h-3q-3 -1 -5 -1q-3 -3 -8 -7l-6 -6h32l5 8l15 -10q4 -2 -2 -2h-68v-19l1 -2q1 -9 -12 -11q0 3 1 9v10v13h-49q-5 1 -11 -3l-9 7h91l6 8q6 9 5 11
q0 1 -1 3l-2 2zM6 142h222l5 8l17 -10q5 -2 -1 -2h-223q-6 0 -11 -4zM83 69q35 -4 26 -19q-3 -2 -6 3q-2 5 -5 6q-4 3 -16 7zM232 183q0 -8 -1 -17v-3q-1 -3 -3 -7l-6 -6t-15 -5q2 4 -4 7t-18 6l1 3q4 -1 11 -2q6 -1 11 -2q15 -1 15 25v2h-38l-5 -9l-11 9q6 3 7 9l3 20
q0 1 -2 5l-2 2l3 2l8 -7h33v23h-29q-4 1 -10 -4l-8 8h45l6 7l10 -8q2 -1 1 -2q0 -1 -2 -2l-3 -3v-14l1 -9q1 -9 -11 -10v10h-31l-3 -23h36l4 8l11 -9q2 -1 0 -2zM81 182q0 -8 -1 -17v-3q-1 -4 -3 -7l-6 -6q-1 -1 -9 -3q-4 0 -6 -1q2 4 -4 5q-6 3 -18 6l1 4q5 -1 12 -2
q5 -1 9 -2q16 -1 16 23v4h-33l-5 -9l-11 9q6 2 7 8l3 22l-3 6l3 2l8 -8h30v24h-32q-4 0 -9 -4l-9 8h48l6 7l11 -8q2 -2 1 -3q0 -1 -2 -1l-4 -2v-16l1 -9q1 -8 -11 -9v9h-29l-3 -22h31l4 7l11 -8q1 -1 -1 -3zM123 253l18 -6l1 -1q1 0 1 -1l-3 -2q-4 -2 -5 -3v-11h12l5 7
l12 -8q4 -2 -2 -2h-27v-17h19l5 7l12 -7l2 -2q0 -1 -3 -1h-63q-7 0 -10 -3l-9 6h38v17h-11q-6 0 -10 -3l-9 6h30v14q1 3 -5 8zM147 190l5 7l15 -8q4 -2 -2 -2h-29v-18h22l5 7l14 -8q4 -2 -2 -2h-39l1 -10q1 -10 -12 -11v3q2 6 2 13v5h-22q-6 0 -10 -3l-9 6h41v18h-15
q-3 0 -8 -3l-9 6h52z" />
  </g>

</svg>
