<?xml version="1.0" standalone="no"?>
<!DOCTYPE svg PUBLIC "-//W3C//DTD SVG 1.1//EN" "http://www.w3.org/Graphics/SVG/1.1/DTD/svg11.dtd" >
<svg xmlns="http://www.w3.org/2000/svg" xmlns:xlink="http://www.w3.org/1999/xlink" version="1.1" viewBox="0 -205 1024 1024">
  <g transform="matrix(1 0 0 -1 0 819)">
   <path fill="currentColor"
d="M478 878h206v102l82 -32q8 -3 8 -6q3 -6 -2 -12l-36 -12v-40h116l36 46l56 -54q3 -3 4 -8q0 -10 -12 -10h-200v-108h86l32 42l54 -50q3 -3 4 -8q0 -10 -12 -10h-164v-100h148l34 44l56 -50q3 -3 4 -8q0 -12 -12 -12h-230v-36l4 -28q-3 -15 -24 -26q-22 -12 -34 -12l2 58
v44h-142q-21 0 -68 -8l-22 34h232v100h-98q-20 1 -52 -10l-30 36h180v108h-122q-19 -1 -56 -10l-28 36v0v0zM456 478h432l38 48l58 -56q3 -3 4 -8q0 -10 -12 -10h-284q-40 -76 -70 -124h236l30 32l46 -38q9 -6 10 -12q-1 -4 -28 -22v-148l4 -61q0 -15 -20 -28
q-19 -10 -34 -12v58h-246v-38q0 -12 -18 -24q-15 -12 -38 -12l4 108v121q-69 -90 -132 -135l-10 12q75 86 130 177q54 91 78 146h-94q-19 0 -64 -8l-20 34v0v0zM620 123h246v179h-246v-179v0v0zM126 900h222l38 44l62 -56q2 0 2 -6q0 -10 -8 -10h-168v-116h56l36 40l54 -50
q3 -4 4 -8q0 -9 -8 -8h-142v-108h62l34 40l50 -50q2 -4 2 -8q0 -9 -8 -8h-140v-124h86l20 28l54 -36q12 -10 -6 -22l-14 -10q1 -120 -4 -206q-3 -84 -12 -111q-10 -26 -28 -44t-56 -34q-6 27 -26 42q-20 13 -94 34l4 20q44 -9 74 -16q30 -4 48 -2q18 4 30 33q12 30 12 102
q2 71 2 194h-236v-12q1 -9 -16 -18q-20 -15 -40 -14l4 136v404l50 -40v0v0zM128 472h96v124h-96v-124v0v0zM128 622h96v108h-96v-108v0v0zM224 756v116h-96v-116h96v0v0zM78 376h18q7 -102 2 -140q-4 -39 -20 -56q-14 -15 -34 -18q-21 -4 -26 14q-7 17 10 34q17 18 28 42
t22 124v0v0zM182 388l12 8q55 -60 68 -90q11 -28 8 -44q-3 -15 -14 -24q-12 -10 -24 -4t-12 24t-6 48q-4 27 -32 82v0v0zM258 406l10 10q42 -44 60 -76q17 -31 14 -52q-3 -20 -14 -28q-12 -10 -24 -4q-12 5 -12 28q1 21 -4 46q-6 24 -30 76v0v0zM118 368l14 6q38 -57 50 -90
q9 -33 6 -50q-3 -19 -18 -28t-26 -2q-13 6 -10 30q1 21 2 48q0 25 -18 86v0v0z" />
  </g>

</svg>
