<?xml version="1.0" standalone="no"?>
<!DOCTYPE svg PUBLIC "-//W3C//DTD SVG 1.1//EN" "http://www.w3.org/Graphics/SVG/1.1/DTD/svg11.dtd" >
<svg xmlns="http://www.w3.org/2000/svg" xmlns:xlink="http://www.w3.org/1999/xlink" version="1.1" viewBox="0 0 2048 2048">
  <g transform="matrix(1 0 0 -1 0 2048)">
   <path fill="currentColor"
d="M1431 433l95 -42l80 -35q32 -15 83 -45t85 -53q33 -23 63 -50q30 -28 46 -51t23 -49t0 -46t-29 -32q-22 -11 -53 14q-10 7 -26 30q-15 23 -40 53q-24 30 -44 51q-21 21 -60 54q-38 34 -70 58q-32 23 -56 38l-70 42l-45 27zM1229 592l7 65q3 35 3 60v57l133 -27
q33 -7 44 -15q12 -8 12 -21q1 -13 -15 -26q-9 -7 -35 -15l-33 -10q-3 -28 -3 -33l-5 -35h426l98 101l106 -93q10 -10 21 -22q11 -13 10 -23q-2 -13 -10 -17q-9 -3 -15 -3h-649l-20 -63q-10 -29 -29 -68q-19 -38 -48 -82q-29 -43 -73 -84q-43 -42 -91 -76q-48 -33 -99 -58
q-50 -24 -104 -43t-114 -37l-66 -20l-16 41l82 31q35 13 91 40q56 26 103 54q46 29 90 67q45 38 72 71q26 32 54 80q27 49 40 85l22 62h-345q-24 0 -57 -3q-33 -2 -39 -2q-6 -1 -28 -3l-25 -3l-39 86q27 -5 45 -7t42 -4l52 -4q36 -3 49 -3h356zM1201 1932l109 -37
q34 -12 43 -21q9 -8 8 -19q-2 -12 -17 -18t-44 -10l-34 -5l-48 -55l-53 -65l-37 -38l625 1l68 76l84 -54q20 -13 30 -25q10 -11 10 -24q-1 -14 -10 -24q-9 -9 -32 -21l-33 -17v-711q0 -36 -8 -53q-8 -18 -24 -34q-17 -16 -42 -30q-26 -14 -42 -17l-38 -9q0 22 -3 38t-15 32
t-39 30q-27 13 -64 21l-35 7l4 46q27 -5 64 -11l60 -10q23 -4 40 -3q24 1 36 12q11 11 11 34v693h-852v-853q0 -11 -10 -21t-29 -16t-48 8q-11 4 -16 11q-6 7 -5 35l1 36l2 36q1 18 2 67q2 48 2 95v569q0 28 -2 66l-4 53l-6 53l119 -85h126q27 38 37 55q11 17 45 81t36 68z
M1431 1103q43 -10 71 -17q27 -7 62 -20q36 -12 66 -30q29 -18 42 -38q13 -21 12 -44q-2 -23 -20 -34q-17 -10 -39 1q-10 4 -27 23q-17 18 -38 37t-50 39q-28 20 -56 34l-38 18zM1380 1460v-258h199l68 54l67 -57q12 -11 16 -18t3 -19q-2 -10 -7 -14q-6 -4 -16 -4h-330v-154
l2 -56q1 -35 2 -53q2 -18 2 -25q-2 -17 -10 -26q-8 -10 -28 -17q-19 -7 -38 -2q-17 3 -22 11q-4 7 -4 23v299h-95q-91 -2 -113 -3l-77 -5l-40 87q14 -4 31 -7q16 -4 76 -9q61 -5 123 -5h95v247q-15 -2 -21 -2l-100 -10l-81 -6l-52 -4l-13 41q28 3 60 7t95 17q63 12 116 25
q54 13 111 30t84 28l56 22l72 -76q25 -27 19 -39q-5 -12 -24 -14q-4 -1 -46 9l-24 6q-34 -6 -64 -11q-29 -4 -48 -6zM1530 1424l81 -42q28 -15 36 -25t2 -22q-7 -13 -30 -11h-46q-27 -26 -47 -42q-19 -16 -48 -33l-34 -21l-22 22l28 37q14 18 32 47t27 48zM1060 1393l43 -11
q20 -6 42 -14q22 -9 43 -22q20 -13 30 -30q11 -18 10 -37q-2 -19 -14 -31q-11 -13 -28 -10q-15 1 -22 8q-6 8 -17 26q-11 17 -33 39t-30 28l-38 26zM985 878l-23 34q21 15 38 28q17 14 42 40t49 56q24 31 42 58l25 38l91 -56q19 -13 24 -22q5 -8 1 -17q-7 -16 -31 -15
l-54 -2l-47 -40q-21 -18 -52 -39q-30 -21 -50 -32zM359 1441v305q0 90 -3 114l-3 33l-2 13l109 -24q49 -11 66 -20q18 -10 20 -24q1 -13 -12.5 -25t-37.5 -18l-39 -11v-343h60l99 101l120 -106q8 -8 14 -16q5 -7 2 -18q-3 -10 -12 -14t-14 -4h-270v-130q12 -10 29 -22
q17 -13 43 -34l52 -45q42 -37 64 -59t44 -60q23 -38 24 -66q0 -29 -13 -49q-5 -8 -13 -14t-20 -7q-12 0 -26 11q-11 7 -18 17t-20 41t-39 76t-40 65l-40 45l-27 30v-840q0 -34 4 -107q3 -72 6 -107q4 -35 4 -49q-1 -11 -4 -20q-4 -9 -14 -16q-11 -6 -31 -6q-22 -1 -34 4
q-12 4 -20 14q-8 9 -8 24v1012l-33 -87l-46 -111q-33 -80 -54 -122t-64 -114t-58 -90l-35 -43l-25 18l36 65q19 35 40 76q20 41 48 112q27 71 49 134q22 64 38 120t33 132q18 77 26 127l12 75h-41q-44 0 -110 -4q-66 -3 -68 -3l-14 -1l-38 88q13 -4 29 -8q15 -3 63 -9
t138 -6h74z" />
  </g>

</svg>
