<?xml version="1.0" standalone="no"?>
<!DOCTYPE svg PUBLIC "-//W3C//DTD SVG 1.1//EN" "http://www.w3.org/Graphics/SVG/1.1/DTD/svg11.dtd" >
<svg xmlns="http://www.w3.org/2000/svg" xmlns:xlink="http://www.w3.org/1999/xlink" version="1.1" viewBox="0 -205 1024 1024">
  <g transform="matrix(1 0 0 -1 0 819)">
   <path fill="currentColor"
d="M358 836h162v134l78 -28q6 -1 4 -8q-1 -4 -34 -20v-78h188v130l80 -28q6 -5 4 -10q0 -3 -36 -18v-74h86l34 46l54 -56l6 -8q1 -9 -12 -8h-168v-48l4 -64q-3 -15 -18 -24q-14 -7 -34 -8v36h-76v-92h154l30 34l48 -40q9 -6 10 -12q0 -4 -30 -26v-78l4 -44q-1 -22 -16 -32
t-36 -10v38h-164v-94h168l36 40l56 -50q2 -2 2 -4q3 -12 -8 -12h-254v-96h134l36 44l56 -52q2 -3 2 -6q0 -12 -12 -12h-216v-95h208l38 47l64 -55q3 -3 4 -6q0 -12 -12 -12h-600q-22 1 -46 -8l-14 34h308v95h-166q-22 0 -46 -8l-18 34h230v96h-178q-30 0 -54 -8l-18 34h250
v94h-160v-14q0 -15 -12 -24q-10 -10 -40 -10l4 96v158l58 -36h150v92h-62v-20q-6 -13 -18 -20q-13 -4 -34 -4l4 104v48h-78q-18 0 -66 -8l-18 34v0v0zM568 730h188v80h-188v-80v0v0zM470 466h160v118h-160v-118v0v0zM680 584v-118h164v118h-164v0v0zM28 748h172v228l64 -30
q22 -8 12 -22l-28 -14v-162h64l30 40l50 -48q3 -3 4 -8q0 -12 -14 -12h-134v-96q69 -37 96 -62q27 -23 34 -46q7 -22 0 -40q-9 -19 -26 -20q-18 0 -24 24q-4 24 -22 54q-16 30 -58 66v-426l4 -107q0 -14 -18 -26t-38 -12l4 147v360q-30 -84 -74 -164q-44 -79 -94 -136
l-10 10q38 63 68 126q27 62 58 152t50 196h-102q-6 0 -48 -8l-20 36v0v0z" />
  </g>

</svg>
