<?xml version="1.0" standalone="no"?>
<!DOCTYPE svg PUBLIC "-//W3C//DTD SVG 1.1//EN" "http://www.w3.org/Graphics/SVG/1.1/DTD/svg11.dtd" >
<svg xmlns="http://www.w3.org/2000/svg" xmlns:xlink="http://www.w3.org/1999/xlink" version="1.1" viewBox="0 -36 256 256">
  <g transform="matrix(1 0 0 -1 0 220)">
   <path fill="currentColor"
d="M33 109h21v73h-21v-73zM66 109h22v73h-22v-73zM78 86l3 3q24 -25 26 -33t-4 -16.5t-7.5 0.5t-4.5 16q-26 -9 -46.5 -17t-26.5 -13l-8 18q9 0 44 9v49h-21v-7l-14 -7q1 22 1 53.5t-1 55.5l15 -8h20q0 42 -1 58l20 -11l-7 -10v-37h21l8 8l11 -15l-6 -4v-45q0 -15 1 -32
l-13 -8v9h-22v-46l24 5q-4 9 -12 25zM124.5 158q-2.5 -7 -8.5 -10t-10.5 1.5t3.5 13t13 36.5h5v-10h30q2 38 1 58l23 -11l-8 -8q-1 -20 -2 -39h42l9 10l16 -17q-16 -4 -32 -30l-3 1l10 29h-42q-2 -60 -19 -105t-59 -70l-2 2q36 34 49.5 76t16.5 97h-30q0 -17 -2.5 -24z
M168 144l22 -11l-7 -7v-81q-2 -19 14 -17h18q11 -1 12 11.5t1 26.5h5q0 -10 2 -20t11 -14q-5 -17 -24 -16h-33q-22 -2 -20 27q0 85 -1 101zM186 97q29 -17 30 -25t-4.5 -13t-8.5 5t-18 31zM211 116q31 -14 32.5 -23.5t-4 -14t-9 5t-20.5 30.5z" />
  </g>

</svg>
