<?xml version="1.0" standalone="no"?>
<!DOCTYPE svg PUBLIC "-//W3C//DTD SVG 1.1//EN" "http://www.w3.org/Graphics/SVG/1.1/DTD/svg11.dtd" >
<svg xmlns="http://www.w3.org/2000/svg" xmlns:xlink="http://www.w3.org/1999/xlink" version="1.1" viewBox="0 -205 1024 1024">
  <g transform="matrix(1 0 0 -1 0 819)">
   <path fill="currentColor"
d="M36 758h424v202l86 -30q8 -5 8 -10q3 -4 -44 -26v-136h330l44 58l62 -60q6 -6 10 -12q0 -10 -12 -10h-434v-356h242v300l82 -32q7 -4 8 -8q1 -5 -6 -10l-32 -12v-192l4 -80q0 -14 -20 -28q-18 -14 -36 -16v54h-242v-219q0 -30 16 -42q15 -13 54 -12h266q42 6 54 20
q12 13 16 39q3 27 12 150h18q5 -78 10 -120q5 -39 34 -49q-18 -44 -48 -64q-30 -16 -80 -18h-290q-34 -1 -56 4q-21 5 -38 24q-15 21 -18 66v221h-222l-32 -44l-66 52q29 19 34 38v282l84 -36q6 -4 6 -8q0 -3 -38 -24v-236h234v356h-340q-21 0 -68 -8l-16 32v0v0z" />
  </g>

</svg>
