<?xml version="1.0" standalone="no"?>
<!DOCTYPE svg PUBLIC "-//W3C//DTD SVG 1.1//EN" "http://www.w3.org/Graphics/SVG/1.1/DTD/svg11.dtd" >
<svg xmlns="http://www.w3.org/2000/svg" xmlns:xlink="http://www.w3.org/1999/xlink" version="1.1" viewBox="0 -52 256 256">
  <g transform="matrix(1 0 0 -1 0 204)">
   <path fill="currentColor"
d="M156 159l22 -9q2 -1 2 -2l-1 -1q-5 -2 -7 -5v-25h43l8 10l17 -12l2 -2q0 -1 -3 -1h-57q6 -12 12 -22q21 -26 34 -33q9 -5 25 -8v-3q-9 0 -12 -1q-3 0 -7 -5q-28 13 -45 43q-6 11 -12 29h-5v-79v-14q1 -9 -13 -11q2 9 2 38v66h-6q-4 -18 -13 -32t-26 -29q-17 -12 -34 -19
l-2 3q36 20 52 48q6 12 12 29h-21q-6 0 -11 -3l-9 8h58v27q1 5 -8 12zM200 223v-46q0 -13 6 -15h3q6 -1 9 0q10 1 16 4h1q3 -3 8 -6q6 -4 2 -4l-10 -2l-17 -2h-5q-23 0 -24 15v60h-43q0 -35 -6 -53q-8 -24 -41 -40l-1 3q27 20 32 39q6 21 5 52q-1 6 -6 10l2 2l11 -8h42l9 10
l15 -12q1 -1 1 -2t-3 -2zM49 167l7 -8q1 1 3 4q1 2 2 3l6 12q4 10 7 15h-51q-5 1 -9 -3l-8 8h65l8 10l16 -12q2 -1 2 -2t-2 -1q-6 -1 -8 -3t-7 -11q-6 -9 -12 -20q-3 -4 -7 -10v-26q1 0 3 -1q2 0 3 -1l8 13q9 16 8 19q1 4 -2 8l2 2l19 -13q2 -1 0 -3q-5 1 -10 -2
q-9 -12 -21 -26q2 -1 5 -2q5 -2 8 -5q20 -20 7 -27q-4 -1 -7 6q-1 5 -6 13q-1 1 -1 2q-4 5 -16 12v-75l1 -22q0 -9 -13 -12v11q1 21 1 37v78l-1 -1q-11 -14 -44 -38l-2 2q27 25 39 40q5 6 8 12v4q0 6 -5 9zM30 248l1 4q21 -6 27 -11q7 -4 10 -9q5 -12 -4 -16q-4 -1 -5 5
q-2 6 -7 12q-5 8 -22 15z" />
  </g>

</svg>
