<?xml version="1.0" standalone="no"?>
<!DOCTYPE svg PUBLIC "-//W3C//DTD SVG 1.1//EN" "http://www.w3.org/Graphics/SVG/1.1/DTD/svg11.dtd" >
<svg xmlns="http://www.w3.org/2000/svg" xmlns:xlink="http://www.w3.org/1999/xlink" version="1.1" viewBox="0 -36 256 256">
  <g transform="matrix(1 0 0 -1 0 220)">
   <path fill="currentColor"
d="M120 192q5 -11 -2 -21.5t-9 5.5t-14 42l2 3q18 -18 23 -29zM153 235l-7 -9v-69h11l12 11l15 -18h-38q-1 -29 -1 -43h14l12 13l14 -20h-40q-4 -35 -20 -57t-40 -34l-1 3q19 15 31 34.5t18 53.5h-8q-10 0 -19 -2l-10 9h37q1 20 1 43h-2q-11 -1 -20 -3l-9 10h31v60
q0 15 -1 29zM185 214l-6 -3q-17 -31 -29 -47l-3 2q11 22 21 60zM241 235l-7 -9v-187q2 -23 -22 -31q-2 15 -30 21v4q19 -2 29.5 -2t9.5 13v158q0 26 -1 44zM188 140q0 44 -1 69l21 -9l-7 -7v-94q0 -16 1 -28l-15 -5q1 30 1 74zM30.5 63q-2.5 16 -12.5 37l3 2
q27 -25 19.5 -40t-10 1zM87 171l14 -18h-36v-31h15l12 10l14 -17h-41v-46q9 10 21 37l14 -13l-6 -3q-15 -15 -29 -30v-13l36 8v-4q-55 -18 -83 -31l-8 17q16 1 42 8v70h-8q-11 0 -20 -2l-9 9h37v31h-22q-9 -11 -20 -21l-2 2q31 51 48 113l19 -11l-7 -5l-5 -10
q24 -10 31.5 -16t4 -18.5t-12.5 3t-25 27.5q-13 -32 -27 -57h42z" />
  </g>

</svg>
