<?xml version="1.0" standalone="no"?>
<!DOCTYPE svg PUBLIC "-//W3C//DTD SVG 1.1//EN" "http://www.w3.org/Graphics/SVG/1.1/DTD/svg11.dtd" >
<svg xmlns="http://www.w3.org/2000/svg" xmlns:xlink="http://www.w3.org/1999/xlink" version="1.1" viewBox="0 -205 1024 1024">
  <g transform="matrix(1 0 0 -1 0 819)">
   <path fill="currentColor"
d="M544 840q78 -30 82 -36q3 -5 -2 -10q-7 -5 -28 -16v-152l100 34v320q78 -24 82 -32q1 -7 -4 -10q-7 -3 -28 -14v-246l104 38l26 48q65 -39 68 -48t-2 -12q-4 -4 -28 -20q1 -240 -4 -288q-4 -46 -20 -68t-50 -38q-12 25 -24 38q-12 12 -56 30l4 16q33 -7 52 -10
q19 -5 32 6q12 9 16 48q1 37 0 272l-118 -42v-266l4 -134q0 -21 -20 -36q-21 -15 -38 -14l4 176v256l-100 -34v-448q0 -25 12 -31q14 -3 26 -4h236q33 0 42 18q9 13 12 41q3 25 6 128h18q5 -103 16 -124q8 -21 32 -32q-12 -45 -38 -63q-27 -15 -66 -16h-262q-30 0 -50 8
q-19 7 -28 26q-7 19 -8 53v424l-70 -26q-4 -3 -20 -14l-32 28l122 42v234v0v0zM158 902h244l42 46l58 -56q2 -3 2 -8q0 -9 -8 -8h-182v-122h80l32 38l56 -48q3 -3 4 -8q0 -7 -8 -8h-164v-112h76l32 42l52 -52q2 -3 2 -8q0 -7 -8 -8h-154v-122h100l26 36l60 -42
q13 -13 -6 -22l-20 -12q-7 -121 -16 -206q-10 -84 -20 -115q-9 -30 -26 -48q-18 -17 -60 -38q-7 30 -28 44q-21 15 -98 36l4 20q48 -8 78 -14q29 -6 52 -4q20 0 32 26q9 23 18 105q8 82 14 206h-270v-10q1 -15 -16 -26q-20 -13 -40 -14l4 142v418l56 -48v0v0zM154 468h110
v122h-110v-122v0v0zM154 616h110v112h-110v-112v0v0zM264 754v122h-110v-122h110v0v0zM102 362h18q9 -115 -2 -154q-9 -37 -26 -50q-15 -13 -30 -14q-15 0 -24 16q-9 15 6 30q14 15 32 36q14 21 26 136v0v0zM154 352l12 8q48 -59 60 -88q9 -30 6 -48q-4 -19 -16 -28
q-9 -8 -24 0q-12 5 -12 26q0 18 -2 48q0 27 -24 82v0v0zM232 372l12 8q51 -59 64 -88t12 -46q-3 -15 -14 -24q-10 -7 -22 -2q-9 3 -12 24q-3 18 -8 46q-6 27 -32 82v0v0zM300 398l10 10q53 -42 74 -68q19 -27 18 -48q-3 -21 -14 -30q-12 -8 -24 0q-9 8 -12 26q0 17 -12 44
q-10 24 -40 66v0v0z" />
  </g>

</svg>
