<?xml version="1.0" standalone="no"?>
<!DOCTYPE svg PUBLIC "-//W3C//DTD SVG 1.1//EN" "http://www.w3.org/Graphics/SVG/1.1/DTD/svg11.dtd" >
<svg xmlns="http://www.w3.org/2000/svg" xmlns:xlink="http://www.w3.org/1999/xlink" version="1.1" viewBox="0 -36 256 256">
  <g transform="matrix(1 0 0 -1 0 220)">
   <path fill="currentColor"
d="M49 198q4 -9 -2 -17.5t-10.5 6t-22.5 37.5l2 2q29 -19 33 -28zM18 93q0 40 -1 81l12 -9h35q0 45 -1 80l21 -11l-7 -7v-62h30l9 9l13 -14l-10 -7v-107q0 -10 -4 -14.5t-13 -8.5q-5 13 -23 18v4q13 -2 20 -2.5t7 7.5v107h-75v-139l-14 -5q1 40 1 80zM92 63l-13 -5v13h-21
v-11l-12 -6v41v42l12 -7h22l6 8l13 -12l-8 -6q0 -41 1 -57zM58 79h21v44h-21v-44zM129 220l-9 -3q-16 -26 -33 -45l-4 2q8 14 15 29t11 30zM168 247l22 -10l-8 -8v-34h31l11 12l15 -19h-57v-43h18l7 10l17 -14l-8 -5q-7 -20 -13 -35t-20 -38q5 -8 23.5 -22.5t39.5 -17.5v-4
q-16 -1 -22 -11q-16 9 -28 21t-21 25q-32 -34 -81 -45l-1 4q51 21 75 52q-10 20 -15 36.5t-9 36.5q-8 0 -8 -2l-10 9h43v43h-21q-10 0 -19 -2l-9 9h49q0 36 -1 52zM160 107.5q6 -16.5 15 -32.5q7 12 14 29.5t11 33.5h-50q4 -14 10 -30.5z" />
  </g>

</svg>
