<?xml version="1.0" standalone="no"?>
<!DOCTYPE svg PUBLIC "-//W3C//DTD SVG 1.1//EN" "http://www.w3.org/Graphics/SVG/1.1/DTD/svg11.dtd" >
<svg xmlns="http://www.w3.org/2000/svg" xmlns:xlink="http://www.w3.org/1999/xlink" version="1.1" viewBox="0 -154 1024 1024">
  <g transform="matrix(1 0 0 -1 0 870)">
   <path fill="currentColor"
d="M442 793h160v114q2 15 -30 46l9 12l90 -36q14 -6 6 -11q-21 -9 -31 -21v-712l3 -102q0 -21 -15 -31q-13 -9 -39 -15q4 40 7 195v43h-89q-19 0 -37 -13l-34 33h160v243h-53q-27 0 -45 -13l-34 33h132v215h-81q-27 0 -45 -13zM742 993l89 -36q14 -6 6 -11q-21 -9 -30 -21
v-131h91l32 40l68 -48q15 -12 -6 -12h-185v-215h66l29 36l64 -44q15 -12 -5 -12h-154v-243h101l32 40l68 -48q15 -12 -6 -12h-195v-107l2 -98q0 -21 -14 -31q-13 -9 -39 -15q4 39 7 195v715q2 15 -30 46zM275 902h-67q2 -84 0 -152h67v152zM376 499q1 0 4 1v224h-73v-159
q1 -51 20 -59q20 -7 33 -9q15 -1 16 2zM380 327h-274v-148h274v148zM208 724v-41q-2 -94 -20 -151t-64 -98l-8 12q30 44 44 89q14 44 16 127q0 26 1 62h-71v-378h274v120h-11q-19 -1 -58 4q-32 17 -36 74v180h-67zM61 783l37 -38h79q0 63 -1 156h-72q-27 0 -45 -13l-34 34
h345l32 41l68 -52q17 -10 -6 -10h-157v-156h54l33 40l48 -49q14 -12 -6 -18l-18 -8v-460l5 -140q1 -31 -43 -37v85h-274v-79q2 -38 -44 -45q5 38 7 152v544q-3 24 -20 41z" />
  </g>

</svg>
