<?xml version="1.0" standalone="no"?>
<!DOCTYPE svg PUBLIC "-//W3C//DTD SVG 1.1//EN" "http://www.w3.org/Graphics/SVG/1.1/DTD/svg11.dtd" >
<svg xmlns="http://www.w3.org/2000/svg" xmlns:xlink="http://www.w3.org/1999/xlink" version="1.1" viewBox="0 -205 1024 1024">
  <g transform="matrix(1 0 0 -1 0 819)">
   <path fill="currentColor"
d="M392 458q-76 -46 -154 -92t-186 -92l-12 14q120 62 192 110q71 45 142 96q68 51 146 118h-350q-39 0 -78 -8l-22 34h348v150h-184q-24 0 -54 -8l-16 34h254v166q72 -33 78 -38q5 -4 2 -8q-2 -4 -28 -22v-100h96l42 46q59 -57 62 -62q4 -6 2 -8q-3 -3 -12 -2h-190v-150h74
q69 63 132 130q63 66 124 160q70 -50 68 -58q-1 -6 -10 -8q-9 -3 -24 -6q-15 -2 -36 -28q-22 -26 -76 -82q-52 -54 -112 -108h268l42 54q60 -60 64 -66q1 -4 0 -8q0 -4 -12 -4h-384q-84 -73 -168 -130h364l44 50q59 -52 64 -62q3 -9 -6 -12h-408l-46 -118h278l28 36
q67 -45 68 -54q-1 -8 -4 -10q-3 -1 -36 -22q-20 -114 -28 -144q-6 -28 -30 -61q-21 -32 -48 -46q-27 -13 -56 -20q-1 27 -34 44t-108 46l6 18q66 -18 96 -24q29 -6 56 -4q27 1 42 16q12 14 24 43q12 30 30 156h-280l-32 -30l-54 52l36 18l38 104h-32v0v0z" />
  </g>

</svg>
