<?xml version="1.0" standalone="no"?>
<!DOCTYPE svg PUBLIC "-//W3C//DTD SVG 1.1//EN" "http://www.w3.org/Graphics/SVG/1.1/DTD/svg11.dtd" >
<svg xmlns="http://www.w3.org/2000/svg" xmlns:xlink="http://www.w3.org/1999/xlink" version="1.1" viewBox="0 -52 256 256">
  <g transform="matrix(1 0 0 -1 0 204)">
   <path fill="currentColor"
d="M247 29v-3q-12 0 -17 -2q-3 -2 -7 -6q-69 22 -99 81q-12 -9 -34 -22q-3 -1 -4 -2v-48q17 7 49 19q8 2 12 4l2 -3q-21 -9 -48 -23q-10 -5 -15 -8t-8 -9l-12 13q5 3 8 7v42q-36 -18 -68 -24l-1 4q27 8 53 21q8 3 16 8q-1 4 -6 10l3 2l10 -7q12 6 23 15q18 13 18 17
q0 5 -2 7l2 2l4 -2l6 -4l11 -6l2 -2q-1 -2 -2 -1q-6 1 -9 -2q-1 0 -3 -2q-2 -1 -3 -2q15 -23 30 -37q17 14 24 21q12 13 12 16q-1 1 -2 4q-1 1 -1 2l3 2l19 -15q2 -1 2 -2t-2 -1q-7 1 -12 -2q-1 -1 -3 -2q-7 -5 -12 -10q-4 -4 -14 -11l-9 -6q23 -21 62 -29q2 -1 11 -2
q7 -1 11 -2zM164 170l15 -9q5 -3 2 -4q-5 1 -9 -3q-12 -15 -18 -24h64l8 10l17 -12q2 -2 1 -2q0 -1 -3 -1h-214q-5 1 -11 -3l-8 8h140l7 14q9 17 9 19q0 1 -1 2q0 2 -1 3zM12 220h209l8 10l17 -13q4 -2 -2 -2h-212q-6 0 -11 -4zM41 180h144l8 10l17 -12q2 -1 2 -2
q-1 -1 -3 -1h-148q-5 1 -11 -3zM96 251l1 3q9 -1 22 -5q1 -1 2 -1q10 -4 13 -10q5 -5 3 -10q-1 -6 -6 -6q-4 0 -6 6q-1 6 -7 11q-6 6 -22 12zM74 167l1 2q37 -15 21 -34q-5 -1 -5 6q-1 6 -5 12q-3 7 -12 14zM105 211l2 2q28 -7 28 -22q1 -7 -5 -8q-5 0 -5 5q-1 12 -20 23z
" />
  </g>

</svg>
