<?xml version="1.0" standalone="no"?>
<!DOCTYPE svg PUBLIC "-//W3C//DTD SVG 1.1//EN" "http://www.w3.org/Graphics/SVG/1.1/DTD/svg11.dtd" >
<svg xmlns="http://www.w3.org/2000/svg" xmlns:xlink="http://www.w3.org/1999/xlink" version="1.1" viewBox="0 -36 256 256">
  <g transform="matrix(1 0 0 -1 0 220)">
   <path fill="currentColor"
d="M220 193h-102q2 -16 -4.5 -22t-14.5 -3t1 13t13 32h4l1 -13h101l9 10l17 -17q-16 -4 -32 -23l-3 2zM202 157l12 11l15 -18h-86q-10 0 -19 -2l-9 9h87zM236.5 18q-5.5 -4 -15.5 -4h-26q-19 0 -19 20v77h-21q0 -89 -77 -104v4q63 20 63 100h-14q-10 -1 -19 -3l-9 10h115
l13 12l15 -19h-52v-73q0 -11 11 -11h16q8 1 9 9t2 30h5q0 -18 2.5 -26t9.5 -10q-3 -8 -8.5 -12zM175.5 227q5.5 -8 -1.5 -18t-11 4t-15 30l3 4q19 -12 24.5 -20zM67 197q20 22 29 42l17 -16q-8 -2 -18 -13.5t-21 -22.5q18 -33 17 -87t-9.5 -70.5t-27.5 -21.5q-3 15 -31 24
l1 4q23 -5 35 -2.5t15 25t2 74.5q-24 -43 -67 -68l-1 4q34 28 63 84q-3 16 -7 26q-19 -17 -51 -34l-1 5q23 16 47 39q-12 17 -38 36l2 3q29 -12 44 -31z" />
  </g>

</svg>
