<?xml version="1.0" standalone="no"?>
<!DOCTYPE svg PUBLIC "-//W3C//DTD SVG 1.1//EN" "http://www.w3.org/Graphics/SVG/1.1/DTD/svg11.dtd" >
<svg xmlns="http://www.w3.org/2000/svg" xmlns:xlink="http://www.w3.org/1999/xlink" version="1.1" viewBox="0 -205 1024 1024">
  <g transform="matrix(1 0 0 -1 0 819)">
   <path fill="currentColor"
d="M434 786h218v184l84 -32q8 -4 8 -8q0 -9 -6 -12l-32 -16v-116h132l42 48l58 -58q3 -3 4 -6q3 -12 -8 -12h-228v-162h180l40 48l60 -58q13 -18 -10 -18h-516q-21 0 -68 -8l-16 36h276v162h-134q-21 0 -68 -8l-16 36v0v0zM706 492v-110h132l38 50l62 -64q2 0 2 -6
q0 -7 -8 -8h-226v-235q76 -12 218 -10l80 8v-20q-49 -12 -62 -22q-13 -9 -20 -28q-147 3 -228 24q-79 21 -124 66q-45 43 -74 125q-31 -90 -80 -141q-49 -54 -116 -94l-8 14q54 44 102 109q45 66 64 156q16 90 14 154l76 -24q12 -6 10 -12q1 -6 -10 -8q-21 -9 -26 -36
q-3 -27 -18 -80q32 -70 70 -112q36 -43 78 -53v423q86 -25 92 -32q4 -6 0 -12q-3 -4 -38 -22v0v0zM358 946l56 -50q9 -7 10 -14q-3 -6 -18 -12q-12 -4 -36 -28q-42 -78 -104 -200q51 -48 82 -92q30 -45 40 -86q9 -42 4 -66q-6 -24 -14 -38q-7 -16 -22 -34q-16 -18 -70 -48
q-7 26 -26 38q-18 12 -74 24l4 20q41 -6 68 -6q27 -1 42 8q15 6 30 24q15 16 12 56q-4 39 -22 84q-17 44 -82 112l94 240h-172v-698l4 -107q1 -15 -22 -28q-21 -15 -36 -16l4 139v784l62 -48h152l34 42v0v0z" />
  </g>

</svg>
