<?xml version="1.0" standalone="no"?>
<!DOCTYPE svg PUBLIC "-//W3C//DTD SVG 1.1//EN" "http://www.w3.org/Graphics/SVG/1.1/DTD/svg11.dtd" >
<svg xmlns="http://www.w3.org/2000/svg" xmlns:xlink="http://www.w3.org/1999/xlink" version="1.1" viewBox="0 -205 1024 1024">
  <g transform="matrix(1 0 0 -1 0 819)">
   <path fill="currentColor"
d="M758 932q13 -7 8 -14q0 -6 -12 -8q-14 -3 -28 -14q-12 -12 -62 -114h170l30 38l58 -48q6 -6 6 -8q0 -7 -32 -34v-414l4 -82q0 -13 -18 -28q-19 -14 -38 -16v76h-244v-56q-1 -15 -22 -30q-19 -15 -34 -14l4 100v558l60 -42h28q28 86 50 182l72 -32v0v0zM600 294h244v228
h-244v-228v0v0zM600 550h244v204h-244v-204v0v0zM80 792h176v186l78 -30q9 -4 6 -10t-8 -8l-26 -14v-124h76l30 44l56 -50q3 -3 4 -8q0 -12 -12 -12h-154v-168h106l36 44l50 -50q3 -3 6 -8q0 -9 -12 -12h-352q-20 0 -70 -8l-14 34h200v168h-92q-21 0 -68 -8l-16 34v0v0z
M326 508v-104h82l30 42l48 -50q6 -4 6 -10t-8 -8h-158v-237q42 -24 144 -36q102 -13 378 -2l152 16v-20q-45 -6 -60 -16q-15 -9 -24 -34q-123 -3 -270 0t-230 18q-81 16 -146 64q-64 46 -118 139q-21 -90 -54 -147q-31 -60 -70 -102l-14 8q51 79 72 153q20 72 32 142
q10 71 14 178l72 -28q16 -6 2 -18q-22 -10 -28 -28q-12 -94 -18 -128q53 -84 116 -126v388l80 -24q9 -7 4 -16l-34 -14v0v0z" />
  </g>

</svg>
