<?xml version="1.0" standalone="no"?>
<!DOCTYPE svg PUBLIC "-//W3C//DTD SVG 1.1//EN" "http://www.w3.org/Graphics/SVG/1.1/DTD/svg11.dtd" >
<svg xmlns="http://www.w3.org/2000/svg" xmlns:xlink="http://www.w3.org/1999/xlink" version="1.1" viewBox="0 -339 2048 2048">
  <g transform="matrix(1 0 0 -1 0 1709)">
   <path fill="currentColor"
d="M1207 1503q27 133 37 187q17 95 33 232l149 -42q19 -5 27 -18q4 -6 4 -12q0 -11 -9 -21t-22 -14l-59 -15q-5 -27 -26 -129q-9 -43 -39 -168h410l103 111l145 -111q13 -10 17 -19q1 -3 1 -9q0 -15 -8 -22q-8 -8 -28 -8h-652q-44 -151 -76 -239q-38 -104 -97 -226l66 -54
h526l68 76l83 -54q27 -17 34 -29q6 -10 6 -20q0 -16 -12 -26q-12 -11 -30 -19q-16 -8 -36 -16v-603l29 -20q27 -18 32 -28q4 -7 4 -13q0 -7 -4 -13q-6 -8 -15 -8h-697v-50q0 -22 -17 -31q-16 -9 -41 -9q-28 0 -39 12q-9 10 -9 34l12 204v594q-66 -107 -129 -181
q-46 -53 -122 -125q-27 -25 -72 -61l-26 31q46 46 85 94q117 143 194 292q78 150 138 332q23 66 47 156h-157q-37 0 -98 -5q-17 -1 -50 -6l-40 86q54 -8 88 -11q66 -6 100 -6h172zM1171 211h559v661h-559v-661zM382 582v506h-35q-116 0 -192 -8l-39 88q30 -8 52 -11
q73 -12 179 -12h35v441h-74q-115 0 -192 -8l-38 88q30 -7 52 -11q73 -12 178 -12h291l98 102l121 -107q10 -9 12 -11t3 -5q2 -5 2 -10q0 -9 -6 -16q-9 -10 -22 -10h-329v-441h115l98 102l121 -107q13 -12 15 -16t2 -10q0 -9 -6 -16q-9 -10 -21 -10h-324v-478q128 36 291 100
l18 -36q-126 -69 -189 -98q-54 -24 -129.5 -55t-119.5 -47q-8 -3 -105 -34q-6 -2 -35 -12l-11 -42q-8 -32 -26 -32q-5 0 -10 4q-6 5 -17 26l-70 131q82 14 142 26q78 16 165 41z" />
  </g>

</svg>
