<?xml version="1.0" standalone="no"?>
<!DOCTYPE svg PUBLIC "-//W3C//DTD SVG 1.1//EN" "http://www.w3.org/Graphics/SVG/1.1/DTD/svg11.dtd" >
<svg xmlns="http://www.w3.org/2000/svg" xmlns:xlink="http://www.w3.org/1999/xlink" version="1.1" viewBox="0 -36 256 256">
  <g transform="matrix(1 0 0 -1 0 220)">
   <path fill="currentColor"
d="M135 188h71v22v11l-1 12l22 -10l-7 -6v-19v-9l1 -9l-15 -7v8h-155l-10 -8l-11 15l7 4v21v10l-1 11l22 -8l-7 -8v-30h69v29v14l-1 15l23 -9l-7 -7v-42zM55 24h66v43h-66v-43zM40 141q0 13 -1 27l17 -8h150l14 12l16 -19h-101v-35h57l9 11l14 -13l-8 -6v-32q0 -9 1 -16
l-15 -5v10h-58v-43h75l15 12l17 -19h-189l-9 -8l-12 15l8 6v111zM55 118h66v35h-66v-35zM55 74h138v37h-138v-37z" />
  </g>

</svg>
