<?xml version="1.0" standalone="no"?>
<!DOCTYPE svg PUBLIC "-//W3C//DTD SVG 1.1//EN" "http://www.w3.org/Graphics/SVG/1.1/DTD/svg11.dtd" >
<svg xmlns="http://www.w3.org/2000/svg" xmlns:xlink="http://www.w3.org/1999/xlink" version="1.1" viewBox="0 -143 1024 1024">
  <g transform="matrix(1 0 0 -1 0 881)">
   <path fill="currentColor"
d="M566 839q33 -191 63 -288t74 -177q42 64 77 172t65 293h-279zM835 866l30 42q72 -54 73 -57t-1 -7t-16 -13t-18 -16t-20 -87t-51 -191t-101 -203q38 -58 87.5 -111t88.5 -78t96 -37v-18q-64 -2 -76 -9t-22 -25q-40 30 -67.5 59t-68 83t-68.5 96q-66 -86 -140 -144
t-198 -114l-6 14q118 72 185 133t131 151q-50 90 -82 209t-52 297h-6q-24 2 -40 -10l-24 36h366zM405 901l54 -43q7 -4 7 -13q0 -4 -34 -24v-284q-3 -212 -11.5 -292t-32 -118t-87.5 -58q-9 33 -27 45t-89 41l7 18q111 -34 140 -18t38 100t11 288v294h-156q-4 -300 -21 -416
t-60 -213t-117 -169l-9 14q55 74 87 165t48.5 205t17.5 414h-68q-21 0 -40 -8l-21 36h331z" />
  </g>

</svg>
