<?xml version="1.0" standalone="no"?>
<!DOCTYPE svg PUBLIC "-//W3C//DTD SVG 1.1//EN" "http://www.w3.org/Graphics/SVG/1.1/DTD/svg11.dtd" >
<svg xmlns="http://www.w3.org/2000/svg" xmlns:xlink="http://www.w3.org/1999/xlink" version="1.1" viewBox="0 -205 1024 1024">
  <g transform="matrix(1 0 0 -1 0 819)">
   <path fill="currentColor"
d="M850 550l30 34l50 -42q9 -6 10 -12q0 -6 -32 -24v-373q4 -50 -6 -70q-10 -19 -58 -38q-10 30 -28 42q-16 9 -82 36l4 16q46 -10 74 -14q26 -4 40 0q12 6 6 42v105h-146v-109l4 -62q0 -13 -20 -26t-40 -14l4 92v119h-142v-105l4 -70q-1 -12 -22 -28q-21 -14 -36 -14l4 108
v319q-49 -63 -124 -114l-8 14q61 61 116 146q54 84 78 136h-82q-24 -3 -44 -8l-28 36h174v124h-90q-14 -2 -34 -10l-26 38h150v168l84 -30q12 -10 0 -16l-32 -10v-112h148v170l82 -34q7 -9 -4 -14l-26 -10v-112h60l32 38l58 -46q10 -12 -4 -20h-146v-124h102l38 42l62 -54
q4 -14 -16 -16h-396q-27 -46 -60 -94h318v0v0zM518 278h142v110h-142v-110v0v0zM712 388v-110h146v110h-146v0v0zM518 412h142v112h-142v-112v0v0zM712 524v-112h146v112h-146v0v0zM602 796v-124h148v124h-148v0v0zM40 902h226l26 38l54 -42q16 -9 8 -18l-32 -22v-126l4 -74
q0 -18 -20 -30q-18 -10 -32 -10v46h-138l-28 -200h160l30 38l54 -40q18 -11 6 -22l-26 -20q-22 -205 -34 -260q-11 -52 -40 -85q-27 -32 -84 -46q-9 36 -38 50q-27 12 -86 30l6 18q117 -25 148 -20q28 4 44 53q15 50 36 278h-174l-24 -30l-60 42l34 30l38 250l44 -40h132
v184h-174q-22 0 -34 -6l-26 34v0v0z" />
  </g>

</svg>
