<?xml version="1.0" standalone="no"?>
<!DOCTYPE svg PUBLIC "-//W3C//DTD SVG 1.1//EN" "http://www.w3.org/Graphics/SVG/1.1/DTD/svg11.dtd" >
<svg xmlns="http://www.w3.org/2000/svg" xmlns:xlink="http://www.w3.org/1999/xlink" version="1.1" viewBox="0 -200 999 1000">
  <g transform="matrix(1 0 0 -1 0 800)">
   <path fill="currentColor"
d="M78 881l-14 41h192l36 51l51 -64l-32 -47l-20 -276q-11 -8 -20.5 -10.5t-17.5 -2.5q-4 0 -6.5 0.5t-4.5 0.5l3 66h-96l-15 -26l-29 -203h169l33 38l48 -65l-30 -24q-8 -85 -20 -149.5t-28 -106.5q-12 -30 -28.5 -50.5t-33 -33t-30 -17.5t-19.5 -5q-6 18 -10.5 30.5
t-12.5 24t-23.5 22.5t-43.5 26l1 16q58 -34 98 -34q2 0 4 0.5t4 0.5q29 8 45 42t27 85q8 38 12 81.5t6 91.5h-171l-12 -53q-15 3 -25 10.5t-15 27.5l48 360l50 -63h99l17 228h-131zM897 225q-1 -52 -3 -81t-8 -43.5t-16 -18t-28 -3.5h-23q-16 0 -25 6t-13.5 17t-6 26
t-1.5 34v742l18 62l-69 28v-835q-1 -11 -1 -20.5v-17.5q0 -24 4 -40.5t14.5 -27t29.5 -15.5t50 -5h60q39 0 56.5 9t24.5 29q-2 9 -6.5 11t-10 3.5t-12 6t-11.5 18.5t-8 41t-3 74h-12zM338 309q73 124 135 247.5t103 260.5h-124l-59 -10l-22 33h110v67l-12 94l76 -33l-16 -62
v-66h50l40 50l44 -60l-37 -35q-5 -12 -14.5 -36.5t-21.5 -55t-26 -63.5t-29 -63q58 -42 92.5 -74t34.5 -52v-3q4 -7 4 -22q0 -19 -10 -32t-21 -13q-19 0 -25 32q-13 42 -31.5 74.5t-45.5 69.5v-526q-10 -14 -20 -19.5t-30 -11.5v492q-6 -14 -22 -40t-35.5 -54.5t-40.5 -55.5
t-37 -43z" />
  </g>

</svg>
