<?xml version="1.0" standalone="no"?>
<!DOCTYPE svg PUBLIC "-//W3C//DTD SVG 1.1//EN" "http://www.w3.org/Graphics/SVG/1.1/DTD/svg11.dtd" >
<svg xmlns="http://www.w3.org/2000/svg" xmlns:xlink="http://www.w3.org/1999/xlink" version="1.1" viewBox="0 -36 256 256">
  <g transform="matrix(1 0 0 -1 0 220)">
   <path fill="currentColor"
d="M100 157l-14 -8v12h-16v-44h13l10 11l16 -18h-39v-56l33 10l1 -4q-35 -13 -73 -30l-10 -8l-13 16l16 4q0 74 -1 95l21 -13l-7 -7v-71l20 5v110h-21v-7l-14 -7q1 14 1 42.5t-1 45.5l16 -9h45l10 10l14 -15l-8 -5q0 -38 1 -59zM36 168h50v51h-50v-51zM134 14l-15 -7
q1 21 1 37.5v119.5q-10 -14 -21 -24l-3 2q32 47 42 105l20 -14l-7 -6q-11 -25 -23 -49l11 -7l-6 -6v-117q0 -13 1 -34zM234 142q-17 -42 -35 -64q14 -33 29 -43l7 35l5 -1q-2 -15 -1 -31t6 -23t-6 -4t-23.5 16t-26.5 40q-29 -26 -52 -36l-1 3q25 17 49 46q-9 28 -12 81
l-20 -4l-5 -3l-11 8l35 7q-1 37 -3 77l22 -10l-8 -7q0 -26 1 -57l40 8l7 10l17 -13l-63 -12q3 -52 10 -73q17 24 28 69l19 -15zM226 216q7 -6 3.5 -16.5t-11 1t-20.5 25.5l2 3q19 -7 26 -13z" />
  </g>

</svg>
