<?xml version="1.0" standalone="no"?>
<!DOCTYPE svg PUBLIC "-//W3C//DTD SVG 1.1//EN" "http://www.w3.org/Graphics/SVG/1.1/DTD/svg11.dtd" >
<svg xmlns="http://www.w3.org/2000/svg" xmlns:xlink="http://www.w3.org/1999/xlink" version="1.1" viewBox="0 -154 1024 1024">
  <g transform="matrix(1 0 0 -1 0 870)">
   <path fill="currentColor"
d="M631 801v-99h231v99h-231zM163 801v-99h233v99h-233zM396 916h-233v-101h233v101zM862 917h-231v-102h231v102zM404 356h147v102q1 13 -23 37l8 10l73 -31q12 -5 5 -9q-14 -6 -26 -16v-93h65l29 40l61 -44q18 -15 -9 -12h-146v-170h126l31 42l63 -48q19 -12 -7 -9h-359
q-24 1 -39 -12l-29 27h177v170h-77q-24 0 -40 -13zM203 551h217q33 64 33 81q1 12 -11 31l8 9l69 -37q23 -10 7 -16q-19 -3 -31 -16q-10 -22 -27 -52h249l30 39l58 -43q18 -15 -11 -12h-336q-34 -59 -86 -128q-12 -17 -25 -32v-161l4 -87q-1 -20 -15 -27q-11 -9 -32 -14
q4 24 6 149v99q-62 -64 -131 -104l-7 11q72 56 138 137v38q-3 25 -18 36l14 11l36 -41q3 3 5 7q40 59 64 106h-140q-24 1 -39 -12zM116 980l41 -48h218l35 41l48 -47q14 -11 -6 -15l-18 -9v-161l4 -28q2 -21 -10 -30q-11 -9 -32 -12v15h-233v-518l4 -97q0 -21 -15 -31
q-14 -9 -38 -15q4 39 7 190v713q-5 27 -20 41zM590 980l34 -47h222l30 43l48 -40q18 -13 0 -19l-20 -11v-810q0 -25 -12 -46q-12 -20 -71 -29q-4 30 -46 44q-42 13 -81 21l2 14q113 -17 132 -17q20 0 27 6t7 72v525h-236q-3 -3 -7 -6q-12 -11 -33 -15q4 22 7 75v186
q-6 24 -18 42z" />
  </g>

</svg>
