<?xml version="1.0" standalone="no"?>
<!DOCTYPE svg PUBLIC "-//W3C//DTD SVG 1.1//EN" "http://www.w3.org/Graphics/SVG/1.1/DTD/svg11.dtd" >
<svg xmlns="http://www.w3.org/2000/svg" xmlns:xlink="http://www.w3.org/1999/xlink" version="1.1" viewBox="0 -52 256 256">
  <g transform="matrix(1 0 0 -1 0 204)">
   <path fill="currentColor"
d="M104 248l12 -13h92l8 11l13 -13q2 -2 1 -2q0 -1 -3 -2l-4 -2v-39l1 -25q2 -6 -3 -9l-9 -3v16h-94v-11q0 -5 -3 -7q-3 -3 -10 -4q2 10 2 22v66q-1 8 -6 12zM238 126v-82q1 -11 -2 -20q-2 -7 -20 -11q-1 6 -7 9q-2 2 -14 6q-5 2 -8 3v3q33 -6 37 -4q3 2 3 13v35
q-6 -4 -18 -13q-13 -9 -18 -13q-6 -4 -10 -12l-13 12l59 32v46h-41q-8 0 -11 -3l-8 8h57l8 10l11 -11q2 -1 2 -3q0 -1 -2 -2zM93 33l-10 12l63 34v51h-47q-8 0 -11 -3l-8 8h62l8 10l13 -10q2 -1 2 -3q0 -1 -2 -2l-6 -3v-84q1 -12 -2 -21q-2 -8 -19 -9q-1 6 -9 10l-20 6l1 4
q31 -6 34 -5q4 1 4 12v34q-25 -18 -44 -31q-7 -3 -9 -10zM118 199v-27h94v27h-94zM212 230h-94v-27h94v27zM176 120l2 2q15 -9 21 -16q5 -7 5 -15q0 -7 -5 -8q-6 -1 -6 7q0 7 -3 13q-2 3 -9 12zM95 118l3 2q15 -8 21 -17q5 -8 4 -14q0 -6 -5 -8q-5 -1 -5 6t-3 14t-15 17z
M61 146v-99l28 37l3 -3q-18 -26 -27 -41q-6 -9 -8 -16l-13 9q1 1 4 6l2 2v109h-27q-5 -1 -8 -4l-9 9h43l7 8l10 -10q2 -1 1 -2q0 -1 -2 -2zM31 239l2 4q30 -13 37 -26q7 -15 -3 -17q-5 -1 -7 7q-1 7 -9 16q-7 8 -20 16z" />
  </g>

</svg>
