<?xml version="1.0" standalone="no"?>
<!DOCTYPE svg PUBLIC "-//W3C//DTD SVG 1.1//EN" "http://www.w3.org/Graphics/SVG/1.1/DTD/svg11.dtd" >
<svg xmlns="http://www.w3.org/2000/svg" xmlns:xlink="http://www.w3.org/1999/xlink" version="1.1" viewBox="0 -140 1000 1000">
  <g transform="matrix(1 0 0 -1 0 860)">
   <path fill="currentColor"
d="M62 170l94 17v260h-86v16h86v113l-70 8l-47 -47q100 198 133 351q50 -20 70 -47q-9 -7 -16 -16v-7q79 -76 79 -116q0 -25 -35 -25q-11 0 -12 8l-32 94l-23 23q-8 -17 -52 -100.5t-50 -94.5h110l31 31q44 -33 47 -58h-78v-114h15l39 40l24 -16l62 8v265q-26 3 -47 8
q-7 7 -7 12h109q2 4 15 23t16 19q32 -13 70 -39h117l8 8q18 29 26 29q5 0 26.5 -12.5t33.5 -24.5q0 -11 -8 -19h-93v-269h7l24 39l74 -39v93q16 0 39 -7t27 -16q-6 -10 -23 -16v-351h43v657q63 -8 67 -20q-2 -13 -24 -20v-617h43v390q16 0 39 -7t27 -16q-6 -10 -27 -16v-419
l-39 -8v53h-133v-45l-39 -8v53h-238l-8 11h94v285q-15 7 -63 8q-57 -3 -101 -8v-264l8 -1l70 23l8 -7l-172 -92q0 -1 -1 -2q-3 -10 -7.5 -15.5t-7 -6t-7.5 -0.5l-32 45l23 9q59 21 62 27q1 2 1 3v281h-43v-27h-97v-215l8 8l46 141l5 5l3 2q0 1 4 1q17 -1 43 -32
q-87 -90 -107 -147l12 -1q8 0 64 16q-15 -15 -23.5 -20.5t-34.5 -17.5q-101 -50 -137 -93zM617 474v-283q12 0 27 27q2 3 3.5 5.5l3 5t3 3.5t2.5 0l62 -31v281zM78 373q1 0 2 1q4 0 23 -4q20 -4 37 -99q0 -30 -31 -31q-9 0 -15 28t-10 63t-6 42zM429 349l8 8
q29 -10 49.5 -28.5t20.5 -41.5q-1 -21 -27 -24q-16 0 -30 44q-10 35 -21 42zM406 763v-265q10 10 16 20q7 10 7 11l8 8q12 0 40 -17q49 -30 93 -30v273q-23 7 -63 8q-31 -1 -101 -8z" />
  </g>

</svg>
