<?xml version="1.0" standalone="no"?>
<!DOCTYPE svg PUBLIC "-//W3C//DTD SVG 1.1//EN" "http://www.w3.org/Graphics/SVG/1.1/DTD/svg11.dtd" >
<svg xmlns="http://www.w3.org/2000/svg" xmlns:xlink="http://www.w3.org/1999/xlink" version="1.1" viewBox="0 -52 256 256">
  <g transform="matrix(1 0 0 -1 0 204)">
   <path fill="currentColor"
d="M9 11l-1 4q21 7 34 15q4 2 12 8q8 5 12 7q6 5 12 11q-2 0 -2 1q-16 9 -44 15q12 19 20 33h-24q-6 0 -9 -4l-9 9h45l3 6q1 2 1 3q6 9 7 15q0 3 -3 7l2 2l20 -9l1 -2q-1 -1 -2 -1t-3 -1q-3 0 -4 -1q-2 -1 -10 -16l-2 -3h56l6 9l15 -10q2 -1 2 -2q-1 -1 -5 -2h-19
q-10 -26 -26 -46q2 -1 7 -3q4 -3 6 -4q12 -7 15 -12q3 -8 -1 -11t-9 3q-6 8 -12 10q-3 1 -10 6q-2 2 -4 3q-1 -2 -4 -5q-14 -11 -32 -21q-17 -9 -41 -14zM171 165l2 3l8 -4l33 52h-57q-4 0 -8 -3l-7 8h70l9 9l15 -14q3 -4 1 -4h-4q-3 -1 -7 -4q-5 -3 -40 -46l7 -4q4 -1 2 -3
q-5 -2 -7 -4v-27h36l10 13l18 -15q2 -1 2 -2q-1 -1 -5 -1h-61v-86q-1 -9 -5 -14q-3 -5 -19 -8q0 6 -6 10q-5 3 -20 8l1 4l10 -3q15 -4 21 -1q7 1 7 11v79h-27q-6 0 -9 -3l-9 8h45v29q0 6 -6 12zM84 63q16 21 24 42h-46l-19 -29q19 -4 35 -11q3 0 6 -2zM13 155h79q1 1 2 4
q9 21 12 25q4 9 4 12q0 1 -1 5q1 -2 -1 2l2 1l16 -8q4 -3 2 -3q-6 0 -8 -2q-4 -8 -14 -24q-5 -8 -8 -12h29l6 9l15 -10q2 -2 1 -3q0 -1 -4 -1h-113q-6 0 -11 -3zM17 213h101l7 10l15 -12q3 -1 2 -2q0 -1 -4 -1h-101q-7 0 -11 -4zM38 201l2 2q11 -5 18 -13q8 -9 9 -18
q0 -9 -5 -10q-6 -2 -6 7q-1 9 -5 16q-3 7 -13 16zM55 248l1 3q12 -3 20 -8q9 -5 11 -10q3 -6 2 -10q-1 -5 -5 -5q-4 -1 -6 6q0 6 -5 12q-6 6 -18 12z" />
  </g>

</svg>
