<?xml version="1.0" standalone="no"?>
<!DOCTYPE svg PUBLIC "-//W3C//DTD SVG 1.1//EN" "http://www.w3.org/Graphics/SVG/1.1/DTD/svg11.dtd" >
<svg xmlns="http://www.w3.org/2000/svg" xmlns:xlink="http://www.w3.org/1999/xlink" version="1.1" viewBox="0 -36 256 256">
  <g transform="matrix(1 0 0 -1 0 220)">
   <path fill="currentColor"
d="M140 174l10 8l12 -15h-37q-9 0 -15 -2l-6 9h36zM93 120.5q0 17.5 -1 36.5l10 -8h12l7 8l10 -11l-6 -5v-31q0 -6 1 -20l-11 -5v9h-12v-5l-11 -5q1 19 1 36.5zM169 116q0 -11 1 -24l-11 -6v11h-13v-6l-11 -5q1 18 1 34.5t-1 33.5l11 -7h12l6 8l11 -9l-6 -7v-23zM115 142
h-12v-41h12v41zM159 140h-13v-36h13v36zM107 58q22 -18 22 -23.5t-3 -12t-6.5 3t-14.5 26.5q-9 -25 -31 -45l-3 2q17 23 22.5 42t6.5 34l17 -10l-6 -5zM153 59q22 -20 20 -28t-5 -10.5t-5.5 8t-11.5 25.5q-9 -30 -25 -47l-2 3q11 18 15 36.5t5 37.5l18 -9l-6 -5
q-2 -7 -3 -11zM135 228q39 -28 40.5 -37.5t-1.5 -16t-7.5 3t-12.5 21t-22 24.5q-8 -19 -21 -37t-24 -24l-2 3q8 6 21.5 30.5t19.5 52.5l17 -11q-5 -3 -8 -9zM215 235l-6 -7q-5 -25 -12 -50h33l7 8l11 -13q-8 -4 -23 -27l-3 1l8 24h-35q-10 -31 -21 -46l-2 2q14 42 18.5 70
t6.5 47zM219 152l-7 -7q3 -39 9 -61t13.5 -38t13.5 -21v-3q-8 0 -15 -7q-12 27 -17.5 53.5t-7.5 52.5q-1 -42 -13 -71.5t-31 -42.5l-2 2q21 26 28.5 62.5t7.5 90.5zM28 70q-1 16 -9 38l2 2q26 -29 17 -42.5t-10 2.5zM76 169l13 -16h-31v-27h11l10 10l12 -17h-33v-48
q11 16 19 41l13 -13l-5 -3q-14 -17 -27 -33v-10l29 10l1 -4q-49 -21 -66 -32l-10 15q15 2 34 8v69q-16 1 -24 -2l-10 9h34v28q-8 0 -15 -2l-7 8h42zM10 146l-2 2q23 42 39 98l17 -11l-6 -5l-4 -9q21 -9 29 -14t5 -16t-8.5 -2.5t-27.5 28.5q-10 -27 -23 -46.5t-19 -24.5z" />
  </g>

</svg>
