<?xml version="1.0" standalone="no"?>
<!DOCTYPE svg PUBLIC "-//W3C//DTD SVG 1.1//EN" "http://www.w3.org/Graphics/SVG/1.1/DTD/svg11.dtd" >
<svg xmlns="http://www.w3.org/2000/svg" xmlns:xlink="http://www.w3.org/1999/xlink" version="1.1" viewBox="0 -205 1024 1024">
  <g transform="matrix(1 0 0 -1 0 819)">
   <path fill="currentColor"
d="M344 474h284v182l86 -34q6 -3 4 -12q-1 -3 -40 -18v-118h192l30 48l70 -54q3 -3 4 -8q0 -12 -12 -12h-242q35 -99 74 -146q35 -48 74 -72t114 -44v-16q-22 0 -46 -6q-25 -7 -50 -29q-36 26 -66 61q-31 33 -68 96q-33 63 -54 156h-20v-298l4 -83q0 -11 -20 -26
q-19 -14 -38 -14l4 125v276q-75 -117 -156 -206q-82 -89 -172 -145l-10 14q74 65 140 139q64 71 152 218h-154q-21 0 -68 -8l-16 34v0v0zM540 666q-45 -55 -138 -140l-12 10q80 99 118 156q36 56 58 100q68 -36 68 -44q0 -9 -12 -12t-24 -8q-13 -6 -58 -62v0v0zM712 768
q72 -36 120 -68q48 -31 64 -58t8 -50q-7 -22 -26 -22q-18 -1 -30 28q-9 30 -38 66t-106 90l8 14v0v0zM854 890l36 40l46 -56q14 -12 14 -18t-14 -8q-28 -8 -46 -22q-19 -13 -64 -76l-18 8l52 106h-374q-7 -52 -20 -76q-12 -24 -36 -30q-21 -7 -32 2q-12 10 -6 26q3 15 22 30
q17 15 32 36q12 22 18 74h20v-36h370v0v0zM52 742h152v236l76 -34q3 -4 4 -8q0 -4 -32 -22v-172h50l34 46l56 -54q3 -3 4 -8q0 -10 -12 -10h-132v-164l136 82l10 -18l-146 -104v-383q1 -35 -16 -62q-18 -24 -60 -34q-6 33 -36 48q-28 16 -76 34l4 16q93 -25 114 -20
q21 4 22 29v342q-50 -36 -76 -60q-24 -23 -42 -46l-48 58l166 94v188h-68q-21 0 -68 -8l-16 34v0v0z" />
  </g>

</svg>
