<?xml version="1.0" standalone="no"?>
<!DOCTYPE svg PUBLIC "-//W3C//DTD SVG 1.1//EN" "http://www.w3.org/Graphics/SVG/1.1/DTD/svg11.dtd" >
<svg xmlns="http://www.w3.org/2000/svg" xmlns:xlink="http://www.w3.org/1999/xlink" version="1.1" viewBox="0 -205 1024 1024">
  <g transform="matrix(1 0 0 -1 0 819)">
   <path fill="currentColor"
d="M490 778l32 40l60 -48q13 -15 -10 -18h-212v-190h120l28 30l50 -36q12 -10 4 -16l-24 -14q-6 -246 -14 -306q-6 -61 -30 -101q-24 -41 -72 -56q-6 36 -24 48q-17 10 -70 28l4 15l72 -15q39 -6 54 17q14 23 22 74q6 50 12 308h-132q-1 -198 -40 -320q-40 -119 -124 -193
l-12 10q72 79 102 203q30 123 28 312v202h-42q-12 0 -60 -8l-16 34h294v0v0zM296 968l8 12q66 -33 96 -62q27 -28 34 -52q6 -23 -2 -40q-10 -16 -22 -16q-12 -2 -20 6q-7 6 -14 34q-6 28 -24 56q-18 26 -56 62v0v0zM274 934q12 -8 -2 -16q-27 -2 -42 -34q-37 -80 -94 -208
l52 -10q12 -6 -2 -18l-18 -8v-492l4 -85q1 -17 -22 -32q-20 -13 -34 -12l4 123v500q-58 -101 -100 -154l-12 8q39 71 106 236q66 165 88 240l72 -38v0v0zM670 684q15 -163 34 -238q15 -76 46 -148q30 71 46 158t26 258h-140l-12 -30v0v0zM780 940q6 -3 6 -8t-8 -10
q-27 -7 -36 -28q-27 -87 -48 -152h190l36 42l58 -56q2 0 2 -8q1 -6 -10 -6h-98q-12 -180 -36 -284q-22 -103 -58 -178q27 -42 78 -96q51 -52 124 -71v-18q-31 1 -52 -4q-19 -3 -40 -22q-41 40 -70 76q-30 35 -66 91q-43 -66 -112 -117t-146 -84l-8 14q72 42 136 98
q62 53 106 133q-41 87 -58 174q-15 86 -24 200q-30 -83 -68 -142l-14 6q42 105 76 228t62 252l78 -30v0v0z" />
  </g>

</svg>
