<?xml version="1.0" standalone="no"?>
<!DOCTYPE svg PUBLIC "-//W3C//DTD SVG 1.1//EN" "http://www.w3.org/Graphics/SVG/1.1/DTD/svg11.dtd" >
<svg xmlns="http://www.w3.org/2000/svg" xmlns:xlink="http://www.w3.org/1999/xlink" version="1.1" viewBox="0 -36 256 256">
  <g transform="matrix(1 0 0 -1 0 220)">
   <path fill="currentColor"
d="M86 213l12 11l17 -18h-45q-8 -35 -15 -58h29l9 9l14 -11l-8 -8q0 -77 1 -96l-14 -7v17h-32v-24l-14 -6q1 35 1 95q-13 -26 -31 -47l-3 2q35 58 48 134h-9q-10 -1 -19 -3l-9 10h68zM54 59h32v82h-32v-82zM142 202h68l12 12l16 -19h-56v-63h33l13 12l17 -19h-63v-94h35
q0 42 -1 66l22 -10l-8 -8q0 -54 1 -62l-14 -9v16h-80l-9 -8l-13 12l7 6q0 48 -1 68l22 -11l-7 -7v-53h33v94h-33q-11 0 -20 -2l-9 9h62v63h-29q-12 -22 -26 -39l-3 2q22 46 30 89l21 -11l-8 -6z" />
  </g>

</svg>
