<?xml version="1.0" standalone="no"?>
<!DOCTYPE svg PUBLIC "-//W3C//DTD SVG 1.1//EN" "http://www.w3.org/Graphics/SVG/1.1/DTD/svg11.dtd" >
<svg xmlns="http://www.w3.org/2000/svg" xmlns:xlink="http://www.w3.org/1999/xlink" version="1.1" viewBox="0 -205 1024 1024">
  <g transform="matrix(1 0 0 -1 0 819)">
   <path fill="currentColor"
d="M416 510l76 -28l8 -4q6 -4 4 -8q0 -3 -38 -20v-48h154v100l80 -24q8 -1 8 -10q0 -3 -6 -8l-32 -10v-46v-2h150l32 34l54 -44q6 -6 6 -8q0 -7 -32 -20v-218l4 -85q0 -22 -18 -32q-18 -9 -36 -10v60h-578v-30q0 -18 -18 -28q-18 -9 -36 -10l4 124v303l52 -36h162v108v0v0z
M252 105h164v125h-164v-125v0v0zM466 230v-125h154v125h-154v0v0zM670 230v-125h160v125h-160v0v0zM252 256h164v120h-164v-120v0v0zM466 376v-120h154v120h-154v0v0zM670 376v-120h160v120h-160v0v0zM498 974l54 -52q7 -9 -4 -12h-352v-62h230l32 34l50 -46q4 -9 -4 -12
h-308v-62h234l32 36l48 -46q6 -9 -6 -12h-308v-62h304l32 38l50 -48q6 -9 0 -14h-286q-85 -67 -118 -94l248 22q-21 26 -54 46l6 14q36 -12 66 -30q29 -16 50 -38q18 -19 16 -38q-3 -18 -20 -24t-28 12q-10 18 -22 40q-159 -22 -216 -32q-55 -9 -82 -30l-44 58q38 7 56 20
q51 37 78 74h-136q-16 0 -40 -8l-18 32h108v290l46 -32h274l32 38v0v0zM560 814q75 29 150 70q76 39 140 84l50 -48q8 -10 2 -14t-20 -2q-13 3 -56 -14q-41 -16 -112 -46q-71 -28 -148 -46l-6 16v0v0zM606 688q105 42 168 78q60 35 108 70l50 -42q10 -9 8 -12q-3 -4 -18 -4
q-12 0 -36 -6q-22 -7 -94 -40t-176 -60l-10 16v0v0zM552 546q110 36 206 78q93 42 154 90l56 -44q8 -10 2 -14t-20 -2q-13 3 -52 -14q-36 -16 -132 -52q-95 -33 -208 -60l-6 18v0v0z" />
  </g>

</svg>
