<?xml version="1.0" standalone="no"?>
<!DOCTYPE svg PUBLIC "-//W3C//DTD SVG 1.1//EN" "http://www.w3.org/Graphics/SVG/1.1/DTD/svg11.dtd" >
<svg xmlns="http://www.w3.org/2000/svg" xmlns:xlink="http://www.w3.org/1999/xlink" version="1.1" viewBox="0 -36 256 256">
  <g transform="matrix(1 0 0 -1 0 220)">
   <path fill="currentColor"
d="M203 162v-7h-52v7h52zM121 200h-80q0 -13 -4 -18t-10 -7.5t-10 1t5 12.5t13 29h6v-10h80v20h-50q-11 0 -20 -2l-10 9h148l14 11l19 -18h-86v-20h85l8 10l17 -15q-13 -4 -35 -25l-3 2l14 21h-86q0 -31 1 -41l-17 -5q1 12 1 46zM105 187v-7h-50v7h50zM201 187v-7h-50v7h50z
M105 162v-7h-52v7h52zM116 95q3 -6 -6 -13h27q10 15 13 24h-55q18 -5 21 -11zM198.5 28q6.5 0 6.5 4v74h-50l13 -5l-10 -6t-14 -13h23l10 9l15 -16h-57v-19h39l12 10l16 -17h-67q0 -19 1 -33l-17 -3q1 18 1 36h-38q-6 -1 -17 -3l-9 10h64v19h-27q-11 0 -21 -2l-10 9h43
q-2 14 -15 24h-36v-92l-15 -6q1 31 1 58.5t-1 53.5l14 -7h67v16h-72q-13 0 -22 -2l-10 9h104v17l23 -7l-8 -5v-5h77l13 10l17 -17h-107v-16h69l6 10l17 -11l-7 -7v-73q0 -18 -20 -23q-4 12 -29 17v4q21 -2 27.5 -2z" />
  </g>

</svg>
