<?xml version="1.0" standalone="no"?>
<!DOCTYPE svg PUBLIC "-//W3C//DTD SVG 1.1//EN" "http://www.w3.org/Graphics/SVG/1.1/DTD/svg11.dtd" >
<svg xmlns="http://www.w3.org/2000/svg" xmlns:xlink="http://www.w3.org/1999/xlink" version="1.1" viewBox="0 -52 256 256">
  <g transform="matrix(1 0 0 -1 0 204)">
   <path fill="currentColor"
d="M37 170q-1 7 -4 10l4 3l9 -9h163l7 10l20 -12q2 -1 2 -2q-1 -1 -4 -1h-185v-141h158l10 11l18 -12q3 -2 3 -3t-3 -1h-183l-9 -11l-13 11q6 5 7 10v137zM156 251l23 -12q2 -2 -1 -2q-4 0 -9 -2q-4 -8 -9 -14h56l9 12l17 -14l2 -2q0 -1 -3 -1h-62q2 -2 5 -4l3 -3
q12 -11 9 -19q0 -7 -6 -7t-6 7q0 12 -5 18q-2 3 -8 8h-14q-18 -24 -37 -37l-3 2q20 21 30 39q12 19 11 22t-4 7zM52 253l23 -12q2 -2 -1 -2q-4 0 -9 -2q-4 -9 -9 -16h51l8 10l17 -12q2 -1 2 -2q-1 -1 -4 -1h-52q2 -2 5 -4l3 -3q12 -11 9 -19q-1 -7 -6 -7q-6 0 -6 7
q0 12 -5 18q-2 3 -8 8h-18q-18 -25 -40 -42l-4 2q22 22 36 45q11 20 10 23q0 1 -2 5l-2 2zM195 146q1 -2 -2 -2t-8 -3q-14 -18 -32 -39q3 -3 9 -7q7 -5 10 -8q43 -38 28 -47q-5 -3 -13 9q-11 18 -42 45q-41 -44 -82 -61l-2 4q37 21 75 64q-17 14 -57 37q-5 3 -7 4l1 3
q31 -10 71 -37q3 4 8 10q6 7 8 10q16 20 14 23q0 4 -2 7l3 2z" />
  </g>

</svg>
