<?xml version="1.0" standalone="no"?>
<!DOCTYPE svg PUBLIC "-//W3C//DTD SVG 1.1//EN" "http://www.w3.org/Graphics/SVG/1.1/DTD/svg11.dtd" >
<svg xmlns="http://www.w3.org/2000/svg" xmlns:xlink="http://www.w3.org/1999/xlink" version="1.1" viewBox="0 -36 256 256">
  <g transform="matrix(1 0 0 -1 0 220)">
   <path fill="currentColor"
d="M22 8q1 20 1 114.5t-1 117.5l14 -9h39l8 9l16 -13l-8 -6q-13 -24 -28 -54q17 -16 24.5 -28.5t5.5 -26t-9 -21t-23 -12.5q-1 14 -22 19v4q14 -2 24.5 -2.5t13 8.5t-0.5 23t-20 35l20 58h-39v-208zM140 131h-26q-6 0 -15 -2l-10 9h51v29h-11q-10 -1 -20 -3l-9 10h40v29h-18
q-11 -1 -20 -3l-10 10h48q0 22 -1 33l22 -11l-8 -8v-95l1 -17l-14 -9v28zM193 113l-15 -9l1 36v79l-1 24l22 -10l-7 -7v-16h22l11 11l15 -18h-48v-28h17l10 11l15 -18h-42v-30h27l12 11l15 -18h-54v-18zM150 84l-7 -6v-41q0 -9 10 -9h33q13 0 12 37h5q-1 -31 11 -33
q-6 -15 -25 -16h-42q-18 0 -18 17v30l-1 30zM211 85l4 2q29 -19 30 -31t-5 -16.5t-10 9t-19 36.5zM161 106q23 -17 23 -26t-6 -14t-8.5 9t-11.5 29zM106 77h4q0 -36 -10 -43.5t-16.5 -2.5t6.5 15t16 31z" />
  </g>

</svg>
