<?xml version="1.0" standalone="no"?>
<!DOCTYPE svg PUBLIC "-//W3C//DTD SVG 1.1//EN" "http://www.w3.org/Graphics/SVG/1.1/DTD/svg11.dtd" >
<svg xmlns="http://www.w3.org/2000/svg" xmlns:xlink="http://www.w3.org/1999/xlink" version="1.1" viewBox="0 0 2048 2048">
  <g transform="matrix(1 0 0 -1 0 2048)">
   <path fill="currentColor"
d="M1709 1458l60 72l72 -50q21 -16 31 -27q11 -11 12 -21q0 -10 -9 -20t-28 -20l-28 -15l-3 -232q-1 -21 2 -73t6 -86q4 -33 2 -49q-2 -11 -6 -19q-4 -7 -17 -14q-13 -8 -32 -8q-17 -1 -29 3t-18 11q-5 6 -5 18l-1 29h-249v-175h327l61 71l72 -49q16 -12 27 -24
q12 -11 14 -22q2 -12 -7 -23q-2 -2 -31 -19l-26 -14l3 -490q0 -37 -11 -65q-10 -28 -30 -48t-38 -30q-19 -10 -41 -16l-35 -11q-3 17 -8 36q-4 19 -18 36q-14 18 -55 32q-41 15 -72 22l-47 10l-2 47q46 -7 70 -11l56 -10q33 -6 63 -7q18 -2 35 3q16 5 26 24t10 46v456h-343
v-231q42 4 47 5l129 19q-12 25 -23 42q-10 17 -27 37l-39 43l30 31l60 -50q32 -27 62 -60q29 -33 49 -71t21 -65q0 -26 -17 -46t-40 -18q-23 3 -35 28l-11 42l-12 34l-94 -19l-213 -47l-121 -21q-1 -28 -11 -46q-9 -18 -24 -19q-15 0 -28 16t-18 33l-37 111q48 -1 72 0
l106 7l78 5v240l-321 -1l1 -613q0 -17 -8 -30q-8 -14 -15 -18q-8 -4 -25 -4q-17 -1 -21 0q-16 2 -24 11q-7 9 -8 29q0 19 5 71q3 38 4 80v57l1 415l-52 -6l-35 81q16 -2 34 -4q18 -3 24 -3l24 -2l-2 59l109 -67l309 1v175h-245v-22q0 -14 -6 -22.5t-22 -14.5q-17 -6 -41 -3
q-12 0 -21 5q-10 4 -14 16q-5 12 -4 32q0 4 4 54l4 63q4 61 4 79v380l118 -66h559zM1128 1015h245v169h-245v-169zM1469 1184v-169h249v169h-249zM1128 1238h245v164h-245v-164zM1469 1402v-164h249v164h-249zM937 1651l-39 86q27 -5 48 -8q22 -3 38 -5q16 -1 51 -4
q35 -2 51 -1l53 1l-34 176l90 -8q48 -5 63 -10q14 -4 18 -11q5 -7 0 -18q-6 -11 -23 -19l-40 -20l14 -90h5l72 71l109 -81q6 -5 9 -17t-4 -23q-8 -10 -18 -9l-158 1l23 -110q3 -16 -3 -26q-6 -9 -25 -17t-32 -6q-13 1 -19 5q-7 5 -9 8t-2 8l-26 137h-63q-30 0 -71 -3l-27 -2
q-24 -2 -26 -2zM1625 1901l87 -13q57 -9 69 -21t11 -19q0 -8 -6 -16q-5 -9 -23 -13l-50 -13l-26 -86h92l80 79l119 -87q8 -7 10 -18q3 -10 -4 -22q-4 -6 -9 -8q-5 -3 -10 -3h-294l-36 -123q-4 -12 -11 -19t-20 -11q-13 -5 -32 -3q-16 1 -24 7q-9 6 -11 12q-2 7 7 36l31 100
h-22q-11 0 -56 -4l-23 -2l-9 -1l-38 89q10 -4 19 -6q10 -3 50 -9t63 -6l32 -1q4 16 8 34q4 19 13 67t11 62zM202 488h38v-52q-1 -32 -4 -80t-10 -94t-20 -79q-14 -33 -33 -57q-19 -23 -37 -34q-18 -10 -34 -11q-15 -2 -28 3q-12 5 -22 16q-9 10 -6 29q1 15 18 34l30 31
q23 24 38 49q16 25 27 51q11 27 23 72q11 46 14 71zM387 503l15 -43q5 -12 18 -54l20 -65q6 -22 11 -51q5 -30 7 -48q2 -19 2 -40q1 -20 -3 -35q-7 -21 -23 -33q-17 -12 -36 -9q-18 3 -28 13q-9 10 -8 33q0 7 2 25q3 18 6 48q4 31 4 53q-1 10 -4 55q-4 46 -5 55l-8 43l-8 42
zM553 519l50 -67q24 -32 41 -62q16 -29 29 -58t19 -52q5 -22 6 -49q0 -27 -14 -43q-15 -17 -35 -18q-20 -2 -31 7q-9 5 -13.5 16.5t-6.5 37.5q-1 26 -4 49q-2 22 -8 48q-5 26 -12 48q-8 23 -17 44q-9 22 -20 46l-15 32zM734 546l62 -59l45 -45q23 -24 40 -46t29 -46
q11 -24 10 -49q0 -25 -16 -44q-15 -19 -38 -18q-16 0 -25 7q-9 8 -13 17t-10 35q-7 25 -10 36q-4 12 -12 32q-9 21 -17 36q-8 16 -27 48q-19 31 -25 40l-23 32zM179 1327l-33 -33l-77 -69l-28 30l49 59l45 54q18 23 41 58q24 34 54 87t47 89q17 35 33 83q17 48 27 89t19 87
l10 52l116 -29q27 -7 40 -15t13 -22q-1 -19 -17 -25q-16 -5 -32 -7l-31 -4l-39 -118h189l65 63l75 -56q28 -22 35 -32q8 -10 8 -19q-1 -17 -10 -23q-10 -6 -44 -15l-29 -8l-69 -115q-34 -57 -41 -68l-42 -65h166l61 72l72 -50q16 -12 28 -23q11 -12 13 -22q2 -11 -7 -23
l-31 -19l-26 -15v-657q0 -16 -9 -26t-23 -15t-32 -5q-18 -1 -25 5q-6 6 -6 18v39h-461v-32q0 -8 -5 -15q-4 -7 -15 -13q-11 -5 -21 -8q-11 -3 -29 -2q-11 0 -17 4q-7 4 -7 18v741zM273 971v-281h186v281h-186zM734 971h-181v-281h181v281zM553 1298v-271h181v271h-181z
M273 1027h186v271h-186v-271zM232 1386l54 -31h205l35 76q15 35 26 64l53 140h-212l-25 -49q-11 -20 -28 -48q-16 -28 -40 -62q-24 -35 -44 -60z" />
  </g>

</svg>
