<?xml version="1.0" standalone="no"?>
<!DOCTYPE svg PUBLIC "-//W3C//DTD SVG 1.1//EN" "http://www.w3.org/Graphics/SVG/1.1/DTD/svg11.dtd" >
<svg xmlns="http://www.w3.org/2000/svg" xmlns:xlink="http://www.w3.org/1999/xlink" version="1.1" viewBox="0 -154 1024 1024">
  <g transform="matrix(1 0 0 -1 0 870)">
   <path fill="currentColor"
d="M426 995q40 -16 64 -31q23 -15 38 -38q15 -24 9 -40q-6 -18 -20 -18q-15 -2 -21 25q-7 25 -21 46q-14 19 -53 43zM288 856l73 -45q8 -9 -3 -10q-14 0 -32 -6q-36 -57 -75 -114l-14 8l28 64q27 62 25 71q-1 9 -10 25zM43 849q47 -26 74 -59q27 -35 28 -66q2 -31 -19 -37
t-26 28q-4 33 -16 61q-12 27 -51 63zM337 850h270l26 34l58 -44q15 -10 -6 -10h-269q-27 0 -45 -13zM583 727h-143v-133h143v133zM655 455q3 -12 -10 -7q-9 1 -21 -5q-12 -7 -27 -22l-53 -53l15 -6q24 -12 8 -17q-17 -3 -26 -13v-27l138 40l6 -14l-144 -52v-169
q-1 -31 -15 -49t-56 -27q-3 24 -33 36t-67 22l2 10l19 -3q61 -14 88 -14q26 0 30 39v144l-14 -5q-62 -23 -74 -29q-12 -8 -20 -27l-44 46l152 43v42q-3 24 -26 43l8 12l36 -17l52 76h-127q-30 -3 -37 -14l-33 34h197l25 33zM772 450q13 -59 32 -111q24 56 39 119
q14 64 22 139t9 137h-126q-6 -20 -12 -38q17 -173 36 -246zM404 773l29 -30h135l31 35l40 -43q14 -13 -6 -13l-18 -9v-82l4 -57q-1 -18 -10 -24q-11 -7 -26 -7v35h-143v-5q-2 -21 -11 -30q-6 -9 -28 -14q4 36 7 80v125q-3 15 -13 31zM157 984l85 -36q14 -6 6 -11
q-21 -9 -30 -21v-277h55l18 26l50 -36q15 -10 -6 -10h-117v-80q39 -23 62 -41q28 -24 40 -50t6 -45q-6 -21 -21 -18q-15 2 -24 32q-9 29 -24 56q-10 18 -39 43v-353l3 -97q0 -21 -12 -31q-12 -9 -38 -15q4 39 7 190v282q-10 -35 -21 -60q-30 -69 -63 -119q-33 -51 -77 -95
l-12 10q51 68 83 140t48 126q14 50 29 125h-71q-27 0 -45 -13l-34 33h163v287q2 15 -30 46zM822 957q12 -10 2 -13q-19 -3 -28 -18q-17 -95 -42 -172h163l26 36l62 -44q15 -12 -6 -12h-87q-2 -165 -32 -287q-21 -84 -55 -157q25 -54 59 -98q38 -51 68 -77q27 -25 53 -34v-13
q-30 1 -37 1q-9 0 -25 -16q-55 53 -109 140q-16 26 -30 55q-13 -24 -27 -45q-72 -110 -213 -182l-6 10q118 81 185 189q23 35 41 73q-18 47 -30 101q-24 95 -33 259q-34 -78 -84 -138l-8 8q42 75 72 174q29 98 42 170q13 71 10 83q-3 11 -15 26l6 7z" />
  </g>

</svg>
