<?xml version="1.0" standalone="no"?>
<!DOCTYPE svg PUBLIC "-//W3C//DTD SVG 1.1//EN" "http://www.w3.org/Graphics/SVG/1.1/DTD/svg11.dtd" >
<svg xmlns="http://www.w3.org/2000/svg" xmlns:xlink="http://www.w3.org/1999/xlink" version="1.1" viewBox="0 -36 256 256">
  <g transform="matrix(1 0 0 -1 0 220)">
   <path fill="currentColor"
d="M147 209l21 -8l-6 -8q2 -55 -15.5 -74.5t-42.5 -27.5l-1 4q18 10 29 22.5t16 36.5q-26 -10 -35 -21l-8 15q4 4 4 13v35q-1 20 -1 30l12 -7q25 11 35 23l11 -16q-10 -1 -23 -5t-22 -8v-61l28 8q0 30 -2 49zM215.5 140q6.5 -1 7.5 8v65h-27v-112l-14 -8q1 18 1 32v54
q0 26 -1 48l14 -7h25l7 10l14 -13l-7 -5v-68q1 -15 -16 -22q0 10 -17 16v4q7 -1 13.5 -2zM120 75l-8 8h49q0 19 -1 39l23 -9l-8 -6v-24h27l13 12l16 -19h-56v-47h40l14 14l17 -21h-122q-10 0 -19 -2l-9 9h65v48q-30 1 -41 -2zM30 58l-7 -8l-11 11l7 6v128l19 -9l-7 -9v-112
h19q0 162 -1 179l20 -10l-6 -7v-162h18q0 109 -1 129l18 -11l-4 -7v-66q0 -30 1 -58l-14 -8v14h-51z" />
  </g>

</svg>
