<?xml version="1.0" standalone="no"?>
<!DOCTYPE svg PUBLIC "-//W3C//DTD SVG 1.1//EN" "http://www.w3.org/Graphics/SVG/1.1/DTD/svg11.dtd" >
<svg xmlns="http://www.w3.org/2000/svg" xmlns:xlink="http://www.w3.org/1999/xlink" version="1.1" viewBox="0 -52 256 256">
  <g transform="matrix(1 0 0 -1 0 204)">
   <path fill="currentColor"
d="M6 27h34v67q0 8 -4 14l4 2l9 -8h66l7 9l15 -10q2 -1 -1 -3l-5 -3v-68h16l8 12l17 -13q1 -1 1 -2t-2 -1h-151q-5 1 -8 -3zM218 248l15 -14q2 -1 2 -3t-2 -2q-5 2 -8 2q-4 0 -16 -4q-10 -4 -18 -6v-53l19 4l7 13l14 -10q3 -1 3 -3l-5 -1l-38 -8v-56l32 7l7 12l15 -10l2 -2
q0 -1 -5 -1l-51 -12v-53q0 -13 1 -15q-2 -7 24 -6q27 -5 23 31q1 8 1 12h4v-21q1 -12 8 -15q-4 -9 -7 -11q-1 0 -2 -1q-6 -4 -22 -4h-13q-31 -5 -27 29v52l-25 -6q-3 0 -8 -5l-8 7l41 9v57l-24 -5q-5 -2 -6 -5l-10 7l40 8v52q-16 -3 -35 -6l-1 4q78 19 71 31zM114 232h-60
q-4 0 -9 -3h-1l-6 7h74l8 6l12 -11l1 -2q-1 -1 -2 -1q-4 2 -15 -8q-2 -1 -5 -4q-4 -3 -6 -5q9 -3 16 -8q10 -6 7 -11q-3 -6 -11 0q-5 5 -21 13q-24 -12 -57 -16l-1 3q26 6 47 18q-15 6 -34 10l1 3q23 -3 41 -8q12 7 21 17zM121 47h-70v-20h70v20zM121 73h-70v-22h70v22z
M51 77h70v21h-70v-21zM135 178h-32q-8 0 -11 -2l-6 6h47l7 6l11 -10q2 -2 0 -3q-5 0 -8 -3q-7 -10 -15 -18q10 -4 16 -10q7 -6 4 -11q-4 -5 -10 2q-8 7 -17 13q-17 -13 -48 -18l-1 3q21 6 40 20l-15 6q-6 3 -10 4l1 3q18 -2 30 -8q10 9 17 20zM21 134v-8h126l5 6l13 -10
q3 -2 -1 -2q-9 1 -19 -18l-3 1l6 18h-127q0 -3 -1 -7q0 -3 -1 -7q-5 -13 -13 -8q-4 3 1 9q8 6 10 26h4zM67 178h-31q-6 0 -10 -3l-5 7h45l6 5l9 -9q2 -2 0 -3q-5 0 -8 -4q-2 -5 -8 -12l-3 -3q7 -3 10 -8q5 -5 1 -10q-4 -2 -8 3l-3 3q-3 4 -6 6q-13 -13 -32 -19l-1 2
q17 11 27 21q-13 8 -25 12l2 3q16 -3 28 -9z" />
  </g>

</svg>
