<?xml version="1.0" standalone="no"?>
<!DOCTYPE svg PUBLIC "-//W3C//DTD SVG 1.1//EN" "http://www.w3.org/Graphics/SVG/1.1/DTD/svg11.dtd" >
<svg xmlns="http://www.w3.org/2000/svg" xmlns:xlink="http://www.w3.org/1999/xlink" version="1.1" viewBox="0 -200 1000 1000">
  <g transform="matrix(1 0 0 -1 0 800)">
   <path fill="currentColor"
d="M664 999l63 -31l-15 -64v-121h19l46 41l46 -44q13 42 23.5 75t17.5 64l61 -68l-31 -28q-16 -42 -32 -77.5t-31.5 -67t-30.5 -60.5l-30 -58h79l47 40l62 -62h-199q-14 -23 -24.5 -39t-20.5 -30t-21.5 -29t-27.5 -35l20 -17l-19 -49v-184q27 27 52.5 62.5t47.5 72t39 72.5
t28 65l50 -81l-32 -14q-15 -14 -37 -41.5t-47 -57.5t-51 -56t-50 -37v-18q0 -19 4.5 -38t17.5 -19l9 2h126q38 4 48.5 22.5t10.5 60.5q0 12 -0.5 27t-0.5 31v20v11t1 11l10 -3v-25q0 -65 8.5 -96.5t18 -45.5t18 -18t8.5 -13q0 -10 -18 -19t-63 -9h-200q-27 0 -37 14.5
t-10 50.5v257q-23 -29 -48.5 -59.5t-69.5 -60.5l-18 -8q26 30 45.5 53t34.5 43t28 40t26 44l2 42l24 -17q10 12 18 23t15.5 24.5t17 30.5t22.5 40h-160l-37 -9l-14 31h161v203h-61l-40 -13l-15 33h116v216zM712 763v-203h13q16 34 28.5 61t23.5 50.5t20.5 45.5t19.5 46h-105
zM200 971l64 -38l-16 -62v-86h122v186l66 -33l-18 -66v-85h21l37 39l53 -63h-111v-461h32l34 43l57 -65h-387l-48 -13l-17 35h111v464h-32l-44 -13l-18 34h94v184zM248 765v-134h122v134h-122zM248 608v-134h122v134h-122zM248 452v-151h122v151h-122zM250 255l51 -68
l-31 -19q-16 -19 -41 -46.5t-53 -53t-57 -45.5t-54 -24l-18 -1q41 30 70.5 60.5t52.5 62.5t42 65.5t38 68.5zM367 265q33 -29 60.5 -52.5t47.5 -46t31.5 -46.5t11.5 -54q0 -22 -8.5 -31.5t-16.5 -9.5q-20 0 -31 38q-5 36 -15 64.5t-23 52.5t-27.5 44.5t-29.5 40.5z" />
  </g>

</svg>
