<?xml version="1.0" standalone="no"?>
<!DOCTYPE svg PUBLIC "-//W3C//DTD SVG 1.1//EN" "http://www.w3.org/Graphics/SVG/1.1/DTD/svg11.dtd" >
<svg xmlns="http://www.w3.org/2000/svg" xmlns:xlink="http://www.w3.org/1999/xlink" version="1.1" viewBox="0 -36 256 256">
  <g transform="matrix(1 0 0 -1 0 220)">
   <path fill="currentColor"
d="M79 120h30v47h-27q-1 -19 -3 -47zM41 120h25q2 23 3 47h-28v-47zM85 205h-37q-7 -13 -14 -23l8 -8h30q7 17 13 31zM29 133v42q-8 -11 -18 -20l-2 2q24 34 42 88l20 -11l-8 -4q-6 -8 -12 -18h35l8 9l14 -15q-7 -3 -13.5 -10t-16.5 -22h30l5 8l13 -11l-6 -5v-28
q0 -16 1 -29l-12 -6v10h-31q-5 -32 -18 -57.5t-44 -45.5l-2 3q20 17 32 39t19 61h-24v-6l-13 -5q1 19 1 31zM84 115h12v-74q-1 -16 18 -14h101q14 -1 16.5 7t2.5 17h4q0 -9 2.5 -15t7.5 -7q-6 -11 -24 -12h-119q-22 -1 -21 21v77zM132 185q0 18 -1 37l14 -7h18q0 14 -1 28
l19 -7l-6 -6v-15h17q0 12 -1 28l18 -7l-5 -9v-12h16l6 8l14 -11l-6 -7q0 -27 1 -50l-14 -4v5h-76v-5l-14 -4q1 20 1 38zM145 189h18v19h-18v-19zM145 163h18v19h-18v-19zM175 189h17v19h-17v-19zM175 163h17v19h-17v-19zM204 189h17v19h-17v-19zM204 163h17v19h-17v-19z
M219 141l11 9l14 -16h-92q-16 1 -21 -2l-8 9h96zM140 105q0 12 -1 24l14 -6h58l8 7l14 -11l-8 -4q0 -14 1 -27l-14 -4v4h-59v-2l-14 -4q1 11 1 23zM169 72q2 -5 0.5 -9t-5 -5.5t-5 5t-11.5 19.5l3 2q16 -7 18 -12zM193 57q7 15 12 30l16 -10q-7 -2 -22 -20h22l12 10l14 -17
h-95q-12 0 -22 -2l-11 9h74zM153 95h59v21h-59v-21z" />
  </g>

</svg>
