<?xml version="1.0" standalone="no"?>
<!DOCTYPE svg PUBLIC "-//W3C//DTD SVG 1.1//EN" "http://www.w3.org/Graphics/SVG/1.1/DTD/svg11.dtd" >
<svg xmlns="http://www.w3.org/2000/svg" xmlns:xlink="http://www.w3.org/1999/xlink" version="1.1" viewBox="0 -205 1024 1024">
  <g transform="matrix(1 0 0 -1 0 819)">
   <path fill="currentColor"
d="M474 446l50 -34h270l28 28l56 -42q6 -4 6 -8q0 -6 -30 -24v-136l4 -82q0 -11 -14 -23q-16 -13 -40 -14v53h-280v-35q0 -7 -18 -20t-36 -14l4 103v248v0v0zM524 190h280v86h-280v-86v0v0zM524 302h280v84h-280v-84v0v0zM614 944q12 -11 -6 -16q-20 -9 -28 -18
q-7 -6 -32 -30h162l26 30l60 -40q10 -7 0 -16q-33 0 -92 -54l-16 -14h152l30 34l56 -42q7 -7 -4 -16l-20 -14v-126l6 -66q0 -12 -20 -20q-21 -6 -32 -6v20h-364v-2q-3 -7 -18 -10q-15 -4 -32 -4l2 52v184q-31 -39 -88 -80l-12 10q81 93 120 144t88 130l62 -30v0v0zM492 576
h156v78h-156v-78v0v0zM696 654v-78h160v78h-160v0v0zM492 680h156v80h-156v-80v0v0zM696 760v-80h160v80h-160v0v0zM482 804l12 -18h160l50 70h-174q-21 -19 -48 -52v0v0zM340 854q-34 -7 -106 -32v-222l64 10l28 44l60 -42q7 -4 8 -10q0 -3 -8 -8l-152 -22v-200l84 12
l28 42l58 -38q12 -7 10 -16q0 -3 -12 -6l-168 -22v-255q-1 -22 34 -20h610q41 -1 52 34q9 36 18 149h20l4 -102q3 -47 30 -57q-4 -31 -22 -48q-19 -19 -86 -18h-632q-25 -1 -40 4q-15 4 -26 16q-12 15 -12 54v237l-106 -12q-18 -6 -32 -14l-24 36l162 18v200l-104 -14
q-15 -3 -30 -12l-26 34l160 20v216q-80 -21 -142 -32l-2 18q93 32 184 68q87 33 138 60l54 -50q4 -9 -6 -12q-35 0 -70 -8v0v0zM438 528h20q-4 -48 -10 -62t-14 -28q-9 -11 -30 -16q-19 -4 -28 2q-9 7 -8 20q-1 12 14 18q12 6 30 18q16 12 26 48v0v0zM830 520l8 12
q75 -30 100 -48q24 -18 30 -42q3 -24 -8 -36q-12 -11 -26 -6q-12 6 -18 22q-4 17 -22 40q-17 24 -64 58v0v0zM532 538l6 8q45 -15 64 -36q18 -17 22 -34q1 -15 -6 -26q-6 -13 -24 -10q-15 -1 -18 14q-3 12 -12 36q-9 21 -32 48v0v0zM688 532l8 8q51 -18 72 -38
q19 -19 20 -34q3 -15 -6 -26q-7 -13 -22 -10q-15 -1 -20 14q-3 12 -12 36q-7 22 -40 50v0v0z" />
  </g>

</svg>
