<?xml version="1.0" standalone="no"?>
<!DOCTYPE svg PUBLIC "-//W3C//DTD SVG 1.1//EN" "http://www.w3.org/Graphics/SVG/1.1/DTD/svg11.dtd" >
<svg xmlns="http://www.w3.org/2000/svg" xmlns:xlink="http://www.w3.org/1999/xlink" version="1.1" viewBox="0 0 2048 2048">
  <g transform="matrix(1 0 0 -1 0 2048)">
   <path fill="currentColor"
d="M258 854v-47q-2 -63 -3 -87q-1 -25 -3 -46q-1 -20 -4 -64q-4 -45 -10 -92q-5 -48 -15 -102q-10 -53 -23 -104q-13 -50 -30 -98q-16 -48 -32 -84l-34 -77l-16 -35l-36 13q10 34 23 74t19 64q7 24 20 83q12 59 16 92q5 34 12 99q8 65 9 83l6 106l4 74q4 75 4 133v837
q0 27 -3 76q-4 48 -5 57l-5 40l110 -78h312l57 76l77 -54q27 -20 34 -27q7 -8 8 -22q0 -14 -11 -26q-13 -14 -30 -19l-33 -11v-1507q0 -29 -12 -57q-11 -27 -26 -46q-16 -18 -43 -35t-41 -19l-35 -8q-1 17 -4 36q-3 18 -17 37t-40 31q-26 11 -70 20l-72 14l8 41
q49 -8 76 -12l59 -9q32 -4 63 -6q31 -1 46 12q14 14 14 46v628h-324zM257 1365l325 1v348l-325 -1v-348zM257 1316l1 -413l324 1v412h-325zM1200 1932l48 -34q21 -15 48 -38q26 -22 53 -52q27 -31 37 -54q11 -23 11 -42q-1 -28 -9 -34l-28 -28h330l97 96l116 -92
q17 -15 23 -30q7 -14 0 -23t-22 -9h-873q-11 0 -94 -3t-86 -3l-14 -2l-38 88q14 -4 29 -7q14 -3 66 -9t137 -6h285q-2 1 -6 4q-3 4 -10 32q-6 27 -22 63q-15 36 -30 61q-16 26 -34 50q-18 23 -31 37l-9 9zM987 1493l122 -64l483 1l61 68l79 -49q19 -13 28 -25q8 -12 6 -24
q-4 -18 -15 -23l-50 -29v-177l39 -30q5 -5 8 -14q4 -9 -4 -19q-7 -9 -12 -9h-647v-26q0 -10 -13 -19q-12 -10 -33 -11q-27 -2 -41 7q-13 8 -16 16q-4 8 -2 28l3 54q4 70 4 82v263zM1085 1153h521v226h-521v-226zM1449 747l109 -27q48 -13 61 -25t11 -23q-2 -10 -11 -20
t-33 -18l-38 -13v-374q0 -50 16 -68q15 -18 41 -23q26 -6 103 -5q49 0 68 3q18 4 32 14t22 22q8 11 15 42q7 32 14 116l7 86h43v-197q2 -20 7 -33q5 -12 33 -33t33 -42t-40 -46q-17 -9 -67 -14t-88 -5h-83q-114 -2 -148 4q-33 5 -56 22q-24 16 -34 40q-9 23 -9 57v424
q0 28 -3 68l-4 52zM868 1035h40v-118h882l56 69l103 -69q36 -25 37 -35q2 -11 -8 -23q-11 -12 -33 -17l-60 -14l-16 -22q-10 -14 -15 -20q-6 -7 -62 -67q-55 -60 -63 -67l-12 -10l-32 26q51 77 59 94l49 99h-888q-4 -37 -9 -61q-4 -25 -15 -60q-11 -36 -24 -60
q-13 -23 -39 -38q-27 -15 -55 -3.5t-25 39.5q4 28 30 62q26 35 39 55t28 61q15 40 20 67l7 61zM1063 748l108 -18q33 -6 53 -14q20 -7 26 -18q7 -10 1 -25t-35 -25l-41 -14q-5 -58 -9 -99q-5 -41 -14 -85q-9 -43 -22 -82q-14 -40 -40 -84q-25 -45 -58 -80t-78 -68
q-46 -32 -85 -52q-39 -19 -100 -42l-56 -21l-12 38q38 16 62 28t63 37q40 26 80 61q39 35 71 82t51 97q20 51 28 94q8 44 12 114t0 121l-4 40z" />
  </g>

</svg>
