<?xml version="1.0" standalone="no"?>
<!DOCTYPE svg PUBLIC "-//W3C//DTD SVG 1.1//EN" "http://www.w3.org/Graphics/SVG/1.1/DTD/svg11.dtd" >
<svg xmlns="http://www.w3.org/2000/svg" xmlns:xlink="http://www.w3.org/1999/xlink" version="1.1" viewBox="0 -36 256 256">
  <g transform="matrix(1 0 0 -1 0 220)">
   <path fill="currentColor"
d="M48 247l23 -9l-8 -8v-43h8l10 12l15 -19h-33v-49l31 13l2 -5l-33 -19v-82q2 -24 -20 -31q1 10 -24 18v6q14 -1 22 -1t8 12v69q-27 -16 -26 -19l-14 17q12 3 40 16v55h-20l-8 -3l-10 10h38q0 35 -1 60zM158 214q2 11 -15 29l2 3q21 -7 25.5 -16t-6.5 -16h45l11 11l15 -18
h-105q-15 0 -27 -4l-11 11h66zM147.5 184q4.5 -8 0.5 -14t-7.5 -6t-6 11t-18.5 26l2 3q25 -12 29.5 -20zM206 191q-14 -15 -30 -31l-3 4q21 32 22 42l20 -13zM79 160h138l14 13l15 -20h-129q-13 0 -25 -4zM128 26h19q6 1 7 5.5t2 18.5h4q2 -22 10 -27q-5 -8 -18 -9h-37
q-10 7 -9 17v28l-23 -3l-5 -4l-8 9l36 5v22l-19 -3l-4 -2l-10 8l33 3v22q-9 -2 -30 -6l-1 5q21 6 37 12.5t26 13.5l12 -18l-7 1l-24 -5v-23l15 2l7 8l12 -12l-34 -5v-21l21 3l7 9l14 -13l-42 -6v-21q0 -16 9 -14zM184.5 132q18.5 7 29.5 17l13 -18l-8 1q-12 -4 -25 -7v-21
l20 3l8 10l14 -15l-42 -5v-26l29 5l7 10l16 -14l-52 -8v-25q-1 -12 13 -11h16q8 0 9 8.5t1 22.5h4q0 -11 2 -19.5t8 -9.5q-4 -13 -19 -14h-29q-19 0 -18 15v31l-17 -3l-4 -4l-9 9l30 5v26l-10 -1l-6 -4l-10 9l26 3v20q-9 -2 -31 -6v5q16 4 34.5 11z" />
  </g>

</svg>
