<?xml version="1.0" standalone="no"?>
<!DOCTYPE svg PUBLIC "-//W3C//DTD SVG 1.1//EN" "http://www.w3.org/Graphics/SVG/1.1/DTD/svg11.dtd" >
<svg xmlns="http://www.w3.org/2000/svg" xmlns:xlink="http://www.w3.org/1999/xlink" version="1.1" viewBox="0 -36 256 256">
  <g transform="matrix(1 0 0 -1 0 220)">
   <path fill="currentColor"
d="M75 118h29v17h-29v-17zM73 111q-11 0 -20 -2l-10 9h20v67q0 13 -1 27l13 -7h29l8 7l11 -12l-7 -4v-78h2l9 8l11 -15h-65zM75 181h29v17h-29v-17zM75 142h29v12h-29v-12zM75 161h29v13h-29v-13zM102 101q14 -8 20 -13.5t5.5 -10.5t-5 -9.5t-5.5 0.5t-4 12.5t-12 17.5z
M80.5 66q5.5 0 4.5 5v41h12v-42q1 -16 -12 -22q-4 12 -21 15v4q11 -1 16.5 -1zM81 94l-7 -5q-14 -18 -31 -31l-1 3q11 14 16.5 23.5t9.5 18.5zM159.5 58.5q4.5 0.5 4.5 10.5v52q-13 -2 -24 -6l-7 16q8 -3 39 31q-11 -2 -20 -4t-13 -6l-6 14q9 3 17 11t15 22q-13 -1 -34 -2
l-1 4q11 0 32.5 5t32.5 13l10 -16q-10 1 -38 -3l12 -11q-8 -3 -33 -23l29 1q11 10 14 19l13 -13q-9 -6 -22 -17t-33 -28l48 3q-3 6 -10 17l2 2q22 -15 22 -24.5t-4.5 -13.5t-5.5 1t-3 12l-21 -3v-54q3 -18 -12 -25q-5 12 -19 14v3q11 -2 15.5 -1.5zM159 95q-5 -5 -15.5 -18
t-18.5 -22l-2 2q7 13 14 26.5t8 22.5zM204 84q6 -7 4.5 -15t-5.5 -10t-7.5 12t-15.5 30l1 3q17 -13 23 -20zM227 15l-15 -6v19h-170v-15l-15 -5q1 31 1 123.5t-1 110.5l16 -8h168l7 10l16 -11l-8 -9v-155q0 -35 1 -54zM42 35h170v192h-170v-192z" />
  </g>

</svg>
