<?xml version="1.0" standalone="no"?>
<!DOCTYPE svg PUBLIC "-//W3C//DTD SVG 1.1//EN" "http://www.w3.org/Graphics/SVG/1.1/DTD/svg11.dtd" >
<svg xmlns="http://www.w3.org/2000/svg" xmlns:xlink="http://www.w3.org/1999/xlink" version="1.1" viewBox="0 -205 1024 1024">
  <g transform="matrix(1 0 0 -1 0 819)">
   <path fill="currentColor"
d="M434 680l54 -42h140v90h-186q-22 -3 -40 -12l-24 38h250v126l80 -30q6 -2 4 -10q0 -3 -6 -6l-28 -14v-66h166l34 44l58 -54q6 -13 -8 -16h-250v-90h140l30 36l56 -42l4 -8q0 -6 -26 -26v-192l4 -52q-1 -12 -16 -24q-15 -9 -36 -12v44h-156v-102h202l34 46l54 -50
q15 -16 0 -22h-290v-125l4 -46q-1 -15 -22 -30q-21 -14 -36 -14l4 86v129h-228q-25 -4 -44 -10l-24 36h296v102h-144v-14q1 -13 -16 -22q-16 -10 -38 -10l4 58v306v0v0zM484 388h144v102h-144v-102v0v0zM678 490v-102h156v102h-156v0v0zM484 516h144v96h-144v-96v0v0z
M678 612v-96h156v96h-156v0v0zM880 924l30 36l62 -54q21 -15 -2 -24q-33 -2 -60 -28l-66 -66l-14 10l58 100h-402q-2 -36 -10 -62t-28 -40q-18 -12 -36 -6q-15 3 -18 22q-1 16 16 26q17 9 32 36q14 27 22 88h20l2 -38h394v0v0zM52 880h246l42 50l56 -56q3 -3 4 -6
q0 -12 -12 -12h-142v-244h52l36 46l50 -52q2 -4 8 -10q6 -8 -12 -10h-134v-258l150 58l8 -18q-244 -114 -268 -132q-22 -15 -50 -44l-54 58l164 62v274h-70q-30 0 -54 -8l-16 34h140v244h-60q-19 0 -62 -8l-22 32v0v0z" />
  </g>

</svg>
