<?xml version="1.0" standalone="no"?>
<!DOCTYPE svg PUBLIC "-//W3C//DTD SVG 1.1//EN" "http://www.w3.org/Graphics/SVG/1.1/DTD/svg11.dtd" >
<svg xmlns="http://www.w3.org/2000/svg" xmlns:xlink="http://www.w3.org/1999/xlink" version="1.1" viewBox="0 -36 256 256">
  <g transform="matrix(1 0 0 -1 0 220)">
   <path fill="currentColor"
d="M44 171q2 37 0 58l15 -6h89q-1 11 -2 24l21 -8l-6 -5l1 -11h28q0 1 -1 4.5t-13 16.5l2 2q13 -4 20 -9t-3 -14h14l13 10l15 -17h-75q3 -32 16 -49q11 12 17 22t12 21l15 -14l-8 -3q-15 -22 -29 -36q13 -15 40 -24q4 15 9 31l4 -1q-2 -13 -2 -24.5t5.5 -19t-6.5 -5.5
t-30.5 12.5t-29.5 22.5q-12 -8 -26.5 -13.5t-35.5 -9.5l-1 4q20 7 34 14t21 14q-15 26 -18 58h-90q1 -49 -7 -71t-38 -43l-2 3q30 29 32 66zM87 163q7 0 22 -3q11 11 14 18h-24zM123 204l11 8l14 -15h-47l13 -5q-8 -4 -10 -7h19l8 7l14 -11l-9 -4q-6 -11 -15 -20
q16 -3 17.5 -7t0.5 -6.5t-3 -3.5t-8.5 3t-13.5 6q-24 -14 -62 -20l-1 4q15 4 26 8t25 13q-13 4 -30 6q10 11 14 18h-10l-7 -2l-7 9h28q7 9 7 12h-6q-14 0 -20 -2l-9 9h61zM42 70q0 31 -1 47l14 -6h65q3 12 2 18l18 -8q-5 -3 -6 -10h68l9 8l13 -12l-7 -6v-69q0 -10 -5 -16
t-18 -8q-1 12 -29 18v4q28 -3 33.5 -3t5.5 6v71h-71q-2 -4 -4 -7q18 -4 27 -6.5t16.5 -6.5t7.5 -14t-14.5 1t-40.5 21q-6 -8 -20 -16.5t-41 -14.5l-1 4q22 7 36.5 17.5t18.5 21.5h-63v-90l-14 -7q1 32 1 63zM144 72q-8 -4 -14 -11q22 -5 31 -7.5t15.5 -7t3.5 -11.5
t-16.5 3.5t-38.5 17.5q-8 -8 -21 -15t-41 -14v4q29 11 43 23t18 26z" />
  </g>

</svg>
