<?xml version="1.0" standalone="no"?>
<!DOCTYPE svg PUBLIC "-//W3C//DTD SVG 1.1//EN" "http://www.w3.org/Graphics/SVG/1.1/DTD/svg11.dtd" >
<svg xmlns="http://www.w3.org/2000/svg" xmlns:xlink="http://www.w3.org/1999/xlink" version="1.1" viewBox="0 -36 256 256">
  <g transform="matrix(1 0 0 -1 0 220)">
   <path fill="currentColor"
d="M95 36v27q0 13 -1 26l20 -8l-6 -7v-29q0 -16 1 -25l-14 -5v16q-51 -12 -62 -18l-9 12q4 3 4 10q0 38 -1 51l19 -10l-5 -6v-43l20 3v72h-21q-10 0 -19 -2l-9 9h49v44h-17q-12 -18 -28 -33l-2 2q15 21 22.5 41.5t9.5 33.5l18 -10l-6 -5q-7 -14 -10 -22h41l11 11l14 -18h-40
v-44h23l12 13l13 -20h-48v-69zM109 199h-81q-1 -20 -12 -19.5t-2.5 13t10.5 25.5h4v-12h39q-2 8 -4 18t-11 17l2 4q36 -18 18 -39h37l9 9l12 -15q-10 -2 -27 -22l-2 1zM111 147q41 43 59 100l16 -11l-7 -6q22 -47 69 -59v-3q-13 -1 -16 -12q-41 23 -55 69q-13 -30 -38 -59
l7 -9h54l7 9l13 -13l-7 -6v-28q0 -15 1 -30l-14 -5v8h-53v-60l31 17l2 -3q-35 -26 -42 -38l-9 14q5 4 5 15v124q-7 -7 -21 -16zM147 129h53v21h-53v-21zM147 122v-23h53v23h-53zM235 20.5q-2 -14.5 -12.5 1t-27.5 29t-38 23.5l1 4q18 -6 33 -13q24 11 31 22l12 -16
q-16 0 -38 -9q17 -10 29 -18.5t10 -23zM178.5 179.5q5.5 -7.5 2 -15t-6.5 -7.5t-5.5 11t-11.5 26l2 2q14 -9 19.5 -16.5z" />
  </g>

</svg>
