<?xml version="1.0" standalone="no"?>
<!DOCTYPE svg PUBLIC "-//W3C//DTD SVG 1.1//EN" "http://www.w3.org/Graphics/SVG/1.1/DTD/svg11.dtd" >
<svg xmlns="http://www.w3.org/2000/svg" xmlns:xlink="http://www.w3.org/1999/xlink" version="1.1" viewBox="0 -339 2048 2048">
  <g transform="matrix(1 0 0 -1 0 1709)">
   <path fill="currentColor"
d="M268 920q-115 -3 -161 -8l-37 89q29 -8 50 -11q71 -13 171 -13h256v266h-133q-111 0 -185 -8l-37 88q92 -22 222 -22h133v263h-231q-113 0 -185 -8l-37 88q30 -7 50 -11q64 -12 172 -12h595l76 80l110 -86q16 -12 16 -26q0 -9 -6 -15q-8 -10 -19 -10h-448v-263h190l77 81
l110 -86q16 -13 16 -26q0 -10 -6 -17q-8 -10 -20 -10h-367v-266h309l77 81l109 -86q12 -10 15 -16q2 -5 2 -10q0 -9 -6 -16q-8 -10 -20 -10h-858zM887 730l58 72l70 -50q41 -29 41 -50q0 -5 -4 -12q-5 -10 -27 -22q-30 -17 -32 -18v-361l28 -23q22 -17 22 -32q0 -11 -10 -17
q-5 -4 -12 -4h-709v-22q0 -41 -60 -41q-27 0 -39 9q-6 5 -9 13q-3 9 -3 25q0 13 3 61q10 136 10 194l-1 340l106 -62h568zM903 673h-591v-402h591v402zM291 1928q69 -40 101 -61q42 -29 64 -49q35 -32 48 -62q8 -18 8 -39q0 -28 -16 -47q-13 -15 -37 -15q-17 0 -31 10
q-11 7 -26 48q-14 38 -49 90q-20 30 -43 53q-13 13 -41 36zM817 1935l76 -31q46 -19 58 -30q9 -10 9 -19t-8 -16q-7 -7 -18 -8l-51 -4q-53 -66 -86 -99q-30 -31 -88 -78l-30 26q38 49 57 79q33 53 60 121q8 20 21 59zM1502 1008q59 -294 169 -506q86 -165 185 -244
q35 -28 75 -50q14 -8 43 -22v-33q-34 1 -52 -2q-35 -6 -56 -26q-12 -11 -29 -38q-46 48 -69 79q-72 94 -116 178q-39 74 -77 174q-32 83 -58 184q-11 43 -33 137q-12 -71 -21 -112.5t-23 -87.5q-78 -268 -236 -433q-76 -80 -163 -137l-24 29q84 77 131 135q88 106 143 243
q79 197 106 463q15 149 15 339q0 31 -5 75l149 -23q19 -3 29 -14q7 -6 7 -15t-5 -15q-10 -13 -31 -19l-46 -13q-1 -114 -8 -246zM1344 1534h457l61 73l108 -86q21 -17 22 -31q0 -8 -8 -17q-12 -11 -34 -15l-47 -8q-48 -83 -70 -120q-68 -111 -145 -198l-33 24q15 31 54 105
q20 38 61 134q13 33 31 86h-476q-7 -16 -29 -69q-27 -66 -61 -123q-45 -75 -68 -109q-11 -17 -36 -48l-34 24q57 103 87 178q67 161 100 348q17 99 22 145q3 20 10 91l121 -31q53 -13 63 -19q8 -4 12 -16q1 -3 1 -6q0 -4 -3 -10q-7 -14 -35 -21l-60 -16q-38 -175 -71 -265z
" />
  </g>

</svg>
