<?xml version="1.0" standalone="no"?>
<!DOCTYPE svg PUBLIC "-//W3C//DTD SVG 1.1//EN" "http://www.w3.org/Graphics/SVG/1.1/DTD/svg11.dtd" >
<svg xmlns="http://www.w3.org/2000/svg" xmlns:xlink="http://www.w3.org/1999/xlink" version="1.1" viewBox="0 -143 1024 1024">
  <g transform="matrix(1 0 0 -1 0 881)">
   <path fill="currentColor"
d="M676 980l52 -28q11 -6 13 -9.5t0 -9.5q-17 -4 -26.5 -10.5t-58.5 -74.5h228l28 32l51 -44q6 -5 6 -8q0 -7 -26 -26v-242l5 -82q0 -11 -16 -22.5t-38 -13.5v49h-185q-41 -68 -93.5 -107.5t-92.5 -53.5l-4 10q38 25 74 61.5t67 89.5h-93v-17q0 -14 -10 -19q-15 -15 -44 -15
l5 91v354l55 -37h58q31 78 45 132zM567 518h105q22 39 36 142h-141v-142zM758 660q-17 -103 -36 -142h172v142h-136zM567 686h143v136h-143v-136zM760 822v-136h134v136h-134zM445 318h283v147l75 -27q6 -4 6 -5q7 -6 0 -11l-32 -16v-88h143l30 42l49 -50q4 -3 4 -4
q2 -14 -10 -14h-216v-157l4 -75q0 -13 -20 -23q-14 -9 -37 -11l4 104v162h-215q-21 0 -53 -8zM48 826h195v152l76 -29q9 -4 9 -7q4 -7 -3 -11l-31 -15v-90h102l30 40l54 -51q3 -1 3 -5q0 -12 -12 -12h-177v-97h79l26 37l55 -46q4 -2 4 -6q4 -12 -9 -12h-155v-102h113l30 36
l47 -46q4 -3 4 -6q0 -12 -9 -12h-384q-20 0 -52 -8l-16 36h216v102h-80q-20 0 -63 -10l-17 37h160v97h-123q-21 0 -57 -8zM251 507q7 -4 7 -7q0 -7 -10 -11q-13 -4 -18.5 -11.5t-26.5 -38.5h158l25 34l59 -45q6 -5 4 -11q0 -2 -13 -9q-7 -2 -20 -18q-36 -73 -82 -141
q60 -44 67 -73t-4 -43t-25 -12t-19 18t-15 33t-32 41q-54 -60 -123 -108t-142 -76l-3 14q56 32 117 79t119 119q-64 50 -116 84l6 14q48 -16 134 -68q44 68 71 142h-181q-63 -89 -132 -154l-11 9q97 133 151 263z" />
  </g>

</svg>
