<?xml version="1.0" standalone="no"?>
<!DOCTYPE svg PUBLIC "-//W3C//DTD SVG 1.1//EN" "http://www.w3.org/Graphics/SVG/1.1/DTD/svg11.dtd" >
<svg xmlns="http://www.w3.org/2000/svg" xmlns:xlink="http://www.w3.org/1999/xlink" version="1.1" viewBox="0 -205 1024 1024">
  <g transform="matrix(1 0 0 -1 0 819)">
   <path fill="currentColor"
d="M204 774h280v108l78 -34q6 -3 4 -8q0 -3 -32 -18v-48h200l32 38l54 -46l4 -4q10 -12 -4 -14h-286v-48h134l22 20l52 -26q12 -6 12 -14q0 -6 -24 -24v-138l4 -46q0 -11 -20 -22q-19 -10 -34 -10v48h-146v-18l4 -28q0 -13 -20 -26q-21 -13 -38 -10l4 54v28h-146v-44
q0 -13 -18 -26q-19 -10 -34 -10l4 72v240l58 -20h136v48h-200q-21 0 -56 -8l-24 34v0v0zM338 514h146v60h-146v-60v0v0zM534 574v-60h146v60h-146v0v0zM338 600h146v74h-146v-74v0v0zM534 674v-74h146v74h-146v0v0zM194 370h422v78l70 -20q12 -3 10 -14q-4 -6 -32 -18v-26
h74l38 44l50 -52q3 -4 4 -10q0 -7 -12 -8h-154v-130q-3 -28 -24 -46q-21 -19 -48 -29q-9 29 -36 45q-27 14 -72 28l4 18q80 -20 104 -18q24 -1 24 20v112h-350q-10 0 -58 -8l-14 34v0v0zM330 320q35 -12 62 -24q24 -12 36 -26q12 -13 12 -28t-8 -26q-10 -13 -26 -10
q-16 2 -20 22q-2 18 -16 36q-13 17 -46 44l6 12v0v0zM592 878q43 -7 68 -20q24 -12 30 -30q5 -16 -4 -28q-9 -13 -24 -10q-15 -1 -20 14q-4 14 -14 28q-8 12 -40 34l4 12v0v0zM106 966l66 -34h678l30 34l66 -48l4 -8q-1 -7 -34 -28v-720l4 -83q0 -17 -18 -28
q-17 -11 -40 -14v64h-702v-22q1 -12 -16 -24q-15 -12 -42 -16l4 111v816v0v0zM160 129h702v773h-702v-773v0v0z" />
  </g>

</svg>
