<?xml version="1.0" standalone="no"?>
<!DOCTYPE svg PUBLIC "-//W3C//DTD SVG 1.1//EN" "http://www.w3.org/Graphics/SVG/1.1/DTD/svg11.dtd" >
<svg xmlns="http://www.w3.org/2000/svg" xmlns:xlink="http://www.w3.org/1999/xlink" version="1.1" viewBox="0 -36 256 256">
  <g transform="matrix(1 0 0 -1 0 220)">
   <path fill="currentColor"
d="M76 240l24 -11l-8 -8v-31h76q0 26 -1 55l25 -12l-9 -7v-36h28l16 13l18 -21h-62v-142q1 -23 -23 -31q-1 16 -37 24v5q30 -4 37 -4t8 8v140h-76v-35l-16 -6q1 13 1 41h-38q-10 0 -19 -2l-9 10h66q0 29 -1 50zM128.5 108q10.5 -7 11.5 -13.5t-2 -14t-10 1.5t-18 19t-40 26
l2 4q46 -16 56.5 -23z" />
  </g>

</svg>
