<?xml version="1.0" standalone="no"?>
<!DOCTYPE svg PUBLIC "-//W3C//DTD SVG 1.1//EN" "http://www.w3.org/Graphics/SVG/1.1/DTD/svg11.dtd" >
<svg xmlns="http://www.w3.org/2000/svg" xmlns:xlink="http://www.w3.org/1999/xlink" version="1.1" viewBox="0 -36 256 256">
  <g transform="matrix(1 0 0 -1 0 220)">
   <path fill="currentColor"
d="M85 154l-13 -6v10h-13v-46h12l8 12l13 -19h-33v-59l30 11v-4q-30 -14 -62 -32l-10 -9l-10 17l14 5q0 77 -1 99l18 -14l-6 -7v-74l15 5v115h-18v-7l-14 -7q1 14 1 44t-1 46l15 -8h40l8 9l13 -14l-7 -5q0 -41 1 -62zM29 165h43v54h-43v-54zM117 107h24l8 8l13 -15l-8 -4
q-9 -24 -18 -41q9 -11 11.5 -19.5t-3.5 -16.5t-8.5 3.5t-7.5 22.5q-21 -24 -52 -38l-2 3q29 18 47 46q-6 10 -19 25l2 4q16 -12 23 -20q8 15 14 35h-29q-12 -18 -27 -31l-3 2q22 30 31 64l17 -11q-7 -4 -13 -17zM109 133q-8 0 -17 -2l-9 9h37v26h-3q-8 1 -17 -2l-7 9h27v26
h-2q-10 0 -20 -2l-9 9h31q0 23 -1 38l21 -9l-7 -7v-22h10l11 9l12 -16h-33v-26h10l9 9l13 -16h-32v-26h15l9 9l14 -16h-62zM193 190q0 44 -2 57l21 -11l-6 -8v-38h12l9 10l13 -17h-34v-58h18l11 11l14 -18h-66q-10 -1 -19 -3l-9 10h38v58h-3q-10 0 -19 -2l-9 9h31z
M235.5 40.5q6.5 -11.5 5.5 -19.5t-5.5 -11.5t-6.5 4.5t-5 18q-32 -6 -43 -11t-14 -8l-11 16q9 3 20.5 33t16.5 56l18 -15q-4 0 -14 -21t-24 -49l49 6q-6 15 -14 28l2 4q19 -19 25.5 -30.5z" />
  </g>

</svg>
