<?xml version="1.0" standalone="no"?>
<!DOCTYPE svg PUBLIC "-//W3C//DTD SVG 1.1//EN" "http://www.w3.org/Graphics/SVG/1.1/DTD/svg11.dtd" >
<svg xmlns="http://www.w3.org/2000/svg" xmlns:xlink="http://www.w3.org/1999/xlink" version="1.1" viewBox="0 -140 1000 1000">
  <g transform="matrix(1 0 0 -1 0 860)">
   <path fill="currentColor"
d="M667 201l8 8q27 0 70 -55q-47 -8 -132 -57q-68 -39 -102 -50q26 29 71 69q60 52 85 85zM121 349l148 430l8 -8v-8l-101 -429q-8 -35 -8 -71q0 -28 16 -73t16 -73q0 -63 -40 -63q-26 1 -31 24l-16 154q-4 33 -78 71q71 5 86 46zM379 463h-117v15h218q37 23 47 51l55 -66
h-149v-400q-1 -7 -54 -10v410zM965 85v-2q0 -21 -25 -21q-26 0 -61 54q-15 23 -24 32q-2 1 -31.5 26t-31.5 27q2 0 4 1q6 0 77 -13q72 -14 92 -104zM371 388l-24 -23q-1 -38 -7 -133q-31 -92 -98 -147h-2q-1 1 -2 1q28 55 41 112t15 98t2 125q20 0 75 -33zM488 412h8l16 -6
l30 -14t15 -10q0 -1 -22 -25v-232h-47v287zM662 746l37 1q32 39 30 129h-186v24h320l46 43l63 -67h-180l-62 -129h133l23 24q43 -35 47 -39v-8q-5 -6 -24 -23v-476q-1 -1 -22 -5t-28 -4v32h-215q1 -4 1 -12q0 -25 -9.5 -34.5t-36.5 -9.5q-8 0 -10 1q10 182 10 386
q0 58 -2 192q26 -25 65 -25zM644 412v-141h211v141h-211zM644 568v-133h211v133h-211zM308 548h102l47 51l62 -62h-211v11zM35 693v9q63 -7 98.5 -34t35.5 -69q0 -16 -8 -24.5t-20 -8.5q-14 0 -26.5 11.5t-18.5 33.5q-7 26 -17 39t-44 43zM644 716v-125h211v125h-211z
M347 872v-86q8 6 32.5 31t46 47.5t23.5 23.5q18 -8 62 -47q-8 -5 -48.5 -24t-75 -36.5t-40.5 -23.5q4 -58 20.5 -77t62.5 -19q16 0 26.5 2.5t26 13t24.5 39t11 73.5q1 6 1 13q14 -68 26 -91q13 -20 13 -36v-6q-3 -41 -70 -54l-83 -1q-53 0 -79 15.5t-25 47.5v251
q15 0 78 -32q-32 -19 -32 -24zM129 901l-8 10v2l-1 2q0 2 1 4q128 -34 133 -117q-3 -27 -44 -32q-28 0 -43 60l-4 16t-3.5 11t-3 8t-4 7t-5 7t-8 9t-10.5 13z" />
  </g>

</svg>
