<?xml version="1.0" standalone="no"?>
<!DOCTYPE svg PUBLIC "-//W3C//DTD SVG 1.1//EN" "http://www.w3.org/Graphics/SVG/1.1/DTD/svg11.dtd" >
<svg xmlns="http://www.w3.org/2000/svg" xmlns:xlink="http://www.w3.org/1999/xlink" version="1.1" viewBox="0 -205 1024 1024">
  <g transform="matrix(1 0 0 -1 0 819)">
   <path fill="currentColor"
d="M438 576l62 -24h218q33 72 66 168l62 -32q9 -5 6 -10q-1 -5 -8 -10q-6 -3 -18 -6q-9 -1 -30 -32q-21 -30 -54 -78h48l20 24l48 -32q9 -10 -2 -16l-20 -14l-28 -72h18l22 18l46 -42q8 -10 -4 -16l-24 -8l-30 -56h58l22 30l56 -38q10 -12 -6 -20l-18 -14q-1 -73 -4 -116
q-1 -42 -10 -81q-7 -37 -32 -62q-24 -23 -60 -32q-3 27 -38 42q-33 14 -84 28l6 18q56 -11 94 -16q35 -3 50 6q12 9 16 30q4 18 8 63q2 44 4 136h-420q-7 -88 -44 -166q-36 -77 -108 -129l-12 12q79 89 104 199q23 110 20 242v106v0v0zM490 526q3 -36 0 -84h272l28 84h-300
v0v0zM490 414q-3 -43 -6 -76h304l36 76h-334v0v0zM864 740q-27 2 -38 2q-12 0 -146 -12q-133 -12 -280 -18v18q136 18 248 34q112 15 176 40l50 -50q8 -16 -10 -14v0v0zM442 684q23 -31 32 -50q5 -18 8 -36q2 -19 22 -16q20 0 26 22q7 21 -10 42q-18 22 -68 50l-10 -12v0v0z
M592 702q48 -25 70 -50q21 -24 12 -44q-9 -22 -30 -20q-18 -1 -20 20q-1 18 -10 40q-9 20 -30 46l8 8v0v0zM512 226h20q3 -64 0 -89q0 -27 -12 -48q-9 -19 -24 -26t-30 -2q-13 3 -16 18t12 30q14 15 28 31q14 17 22 86v0v0zM766 272l10 10q54 -43 70 -68q16 -24 14 -42
q-1 -17 -14 -28q-12 -10 -24 -5q-13 4 -14 29q-1 22 -8 44q-7 21 -34 60v0v0zM666 254l10 10q45 -43 64 -68q15 -25 16 -44q-1 -17 -14 -29q-13 -9 -28 -4q-14 7 -12 27q0 20 -8 46q-10 23 -28 62v0v0zM572 240l12 8q41 -47 56 -76q14 -29 14 -45q0 -17 -12 -28
q-13 -12 -28 -6q-16 4 -14 26q3 21 -2 47q-6 26 -26 74v0v0zM234 684q-18 -31 -36 -64h94l28 36l56 -38q6 -7 6 -10q0 -6 -26 -24v-326l4 -64q1 -14 -16 -28q-15 -13 -38 -14v60h-150v-58q0 -15 -18 -27t-36 -10l4 113v420l48 -30h20q24 83 40 154q69 -24 70 -32
q0 -8 -6 -10q-5 -2 -16 -10q-11 -6 -28 -38v0v0zM156 240h150v172h-150v-172v0v0zM156 438h150v158h-150v-158v0v0zM350 986l76 -28q7 -4 2 -10q1 0 -28 -20v-66h212v116l76 -28q3 -3 4 -8q-4 -6 -28 -18v-62h210l40 48l60 -62q3 -1 4 -8q-1 -6 -16 -6h-298v-26
q0 -12 -12 -20q-10 -6 -20 -8q-7 -3 -20 -2v56h-212v-54q0 -12 -8 -18l-18 -10q-9 -3 -24 -2v84h-210q-22 -1 -70 -10l-18 38h298v124v0v0z" />
  </g>

</svg>
