<?xml version="1.0" standalone="no"?>
<!DOCTYPE svg PUBLIC "-//W3C//DTD SVG 1.1//EN" "http://www.w3.org/Graphics/SVG/1.1/DTD/svg11.dtd" >
<svg xmlns="http://www.w3.org/2000/svg" xmlns:xlink="http://www.w3.org/1999/xlink" version="1.1" viewBox="0 -36 256 256">
  <g transform="matrix(1 0 0 -1 0 220)">
   <path fill="currentColor"
d="M39 238l15 -8h156l12 12l20 -19h-188v-91q0 -29 -8.5 -59.5t-34.5 -63.5l-3 2q17 27 24.5 59t7.5 61v74q0 14 -1 33zM79 36h49v35h-49v-35zM77 216q14 -11 19 -19.5t-4 -17.5h19q7 23 8 37l17 -8q-9 -8 -21 -29h15l10 9l15 -16h-43v-19h13l8 9l15 -16h-36v-20h18l8 8
l15 -15h-41v-43h-14v43h-30h-1l-4 -2l-9 9h44v20h-4q-11 0 -20 -2l-9 9h33v19h-13q-10 -1 -20 -3l-8 10h30q-2 9 -4 17t-8 19zM142 24l-14 -6v11h-49v-7l-14 -6v69l14 -7h49l5 8l15 -11l-6 -8v-43zM203 204l-5 -5q6 -21 19 -42t31 -32v-4q-11 0 -18 -7q-13 17 -22 36t-14 43
q-7 -26 -20 -48t-27 -34l-3 2q11 15 21.5 38.5t18.5 62.5zM183 150q16 -13 20 -20.5t-2.5 -15.5t-8 4.5t-11.5 30.5zM212 102l6 10l15 -15q-5 -2 -14.5 -16t-23.5 -34q10 -9 13 -14t-2 -13.5t-9.5 1.5t-12 20.5t-19.5 22.5l2 3q12 -7 24 -16q10 20 21 44h-27q-10 0 -20 -2
l-10 9h57zM68 115q18 -9 21.5 -15t-2 -13.5t-8.5 3t-13 24.5zM116 83q9 19 13 32l14 -11q-10 -5 -25 -22z" />
  </g>

</svg>
