<?xml version="1.0" standalone="no"?>
<!DOCTYPE svg PUBLIC "-//W3C//DTD SVG 1.1//EN" "http://www.w3.org/Graphics/SVG/1.1/DTD/svg11.dtd" >
<svg xmlns="http://www.w3.org/2000/svg" xmlns:xlink="http://www.w3.org/1999/xlink" version="1.1" viewBox="0 -36 256 256">
  <g transform="matrix(1 0 0 -1 0 220)">
   <path fill="currentColor"
d="M174 130h29v23h-29v-23zM184 61q15 15 26 35h-50q11 -21 24 -35zM211 103l8 10l14 -17l-9 -4q-16 -24 -32 -40q26 -24 56 -26v-5q-12 0 -20 -12q-25 14 -45 34q-26 -22 -69 -34l-1 5q36 13 62 38q-13 20 -20 43l-11 -2l-8 10h75zM216 121l-13 -5v7h-29v-4l-13 -5
q1 25 1 39h-14l-7 -2l-6 7v-47q-1 -64 -39 -105l-3 3q28 39 30 102q0 64 -1 102l14 -9h81l12 13l18 -20h-112v-37h27q0 18 -1 32l19 -8l-6 -6v-18h29q0 17 -1 34l20 -9l-7 -7v-18h3l11 11l17 -18h-31q0 -19 1 -32zM188.5 232q9.5 -7 3.5 -19t-11 0.5t-23 30.5l2 3
q19 -8 28.5 -15zM58 219q0 14 -1 28l21 -8l-7 -7v-25h19l12 11l15 -18h-46v-21h23l8 10l13 -14l-8 -6v-27q0 -20 1 -39l-14 -5v6h-23v-28h21l14 12l14 -19h-49v-22q0 -17 1 -34l-15 -6q1 18 1 39v23h-21q-10 0 -19 -2l-9 9h49v28h-23v-5l-15 -6q1 16 1 31v32q0 16 -1 32
l17 -9h21v21h-19q-10 0 -19 -2l-9 9h47v12zM35 172v-27h23v27h-23zM71 172v-27h23v27h-23zM71 138v-27h23v27h-23zM35 138v-27h23v27h-23z" />
  </g>

</svg>
