<?xml version="1.0" standalone="no"?>
<!DOCTYPE svg PUBLIC "-//W3C//DTD SVG 1.1//EN" "http://www.w3.org/Graphics/SVG/1.1/DTD/svg11.dtd" >
<svg xmlns="http://www.w3.org/2000/svg" xmlns:xlink="http://www.w3.org/1999/xlink" version="1.1" viewBox="0 -205 1024 1024">
  <g transform="matrix(1 0 0 -1 0 819)">
   <path fill="currentColor"
d="M488 771q-30 -46 -73 -98q-10 -10 -17 -4q-8 7 1 17q48 68 85 165q37 96 38 127q2 17 18 7q38 -23 53 -33q12 -9 11 -13q0 -5 -13 -6q-12 -3 -16 -7q-7 -6 -25 -43q-1 -1 -1 -2h277q8 1 14 2q4 3 11 10l28 39q8 9 15 0q32 -26 57 -54q11 -12 10 -19q-3 -8 -15 -9h-413
q-20 -39 -45 -79zM817 775l18 22q8 12 17 3q21 -18 40 -39q6 -8 6 -9t-4 -4q-20 -11 -21 -15t-1 -7v-212q0 -11 4 -32q0 -9 -4 -12q-35 -19 -42 -19t-6 10v29h-225q28 -10 70 -32q10 -6 9 -10q-3 -6 -19 -7q-17 -1 -24 -5q-6 -3 -16 -21q-7 -9 -13 -18h180q11 1 15 5l27 27
q4 4 7 4t7 -4q32 -29 51 -54q7 -9 3 -13q-4 -3 -13 -2q-11 4 -23 1q-7 -3 -28 -31q-58 -80 -113 -129q39 -26 88 -44q56 -23 144 -32q16 -2 26 -3q7 -1 7 -8t-6 -8q-21 -5 -40 -20q-21 -15 -31 -31q-7 -8 -17 -4q-99 43 -156 82q-28 20 -50 39q-46 -35 -115 -63
q-103 -42 -227 -60q-16 -4 -19 11q-3 14 13 18q104 15 177 46q76 32 137 81q-4 5 -8 9q-40 46 -79 128q-14 -17 -27 -33q-50 -52 -111 -98q-13 -9 -17 0q-5 8 2 15q49 44 98 111q43 55 77 146q1 6 5 7h-26v-23q0 -8 -6 -9q-20 -8 -39 -17q-9 -3 -8 12q4 63 5 210v52
q-1 36 -5 82q-2 12 2 13q3 1 10 -6q12 -13 36 -31h247q8 -1 11 2zM564 618v-97h260v97h-260zM824 649v93h-260v-93h260zM583 366l-3 -3q46 -85 101 -133q58 54 115 136h-213zM393 303q14 10 18 0q6 -11 -7 -18q-105 -78 -198 -210q-8 -11 -14 1q-12 24 -34 42q-9 7 -2 13
q30 26 30 48v273h-37q-42 -1 -73 -7q-8 -3 -11 6q-4 18 -19 30q-7 7 -4 11q4 3 11 -1q38 -8 84 -8h49v149h-92q-14 -26 -30 -54q-9 -11 -16 -7q-9 5 -2 17q49 89 73 213q31 123 27 160q-1 18 17 11q42 -16 58 -26q13 -5 13 -11t-9 -6q-9 -1 -18 -11q-20 -23 -30 -75h85
q13 0 23 12l35 41q9 8 16 1q26 -28 45 -53q11 -15 8 -24q-3 -7 -18 -8h-204q-21 -71 -57 -149h156q13 0 23 12l35 41q9 8 16 1q26 -28 45 -53q11 -15 8 -24q-3 -7 -18 -8h-141v-149h68q6 0 12 7l36 41q7 7 14 0q26 -26 44 -48q11 -14 4 -24q-5 -6 -18 -7h-160v-267
q81 70 159 118z" />
  </g>

</svg>
