<?xml version="1.0" standalone="no"?>
<!DOCTYPE svg PUBLIC "-//W3C//DTD SVG 1.1//EN" "http://www.w3.org/Graphics/SVG/1.1/DTD/svg11.dtd" >
<svg xmlns="http://www.w3.org/2000/svg" xmlns:xlink="http://www.w3.org/1999/xlink" version="1.1" viewBox="0 -205 1024 1024">
  <g transform="matrix(1 0 0 -1 0 819)">
   <path fill="currentColor"
d="M386 984l56 -36h110l30 36l50 -38q6 -2 6 -10q0 -3 -26 -24v-84l4 -50q3 -15 -18 -24q-21 -10 -32 -10v46h-132v-14q0 -13 -18 -22q-17 -10 -34 -8l4 60v178v0v0zM434 814h132v108h-132v-108v0v0zM678 984l56 -36h116l30 36l50 -38q6 -2 6 -10q0 -3 -26 -24v-110l4 -22
q3 -15 -18 -24q-21 -10 -32 -10v44h-138v-20q0 -13 -18 -20q-17 -7 -34 -4l4 50v188v0v0zM726 814h138v108h-138v-108v0v0zM912 718l32 36l52 -48l2 -4q0 -10 -8 -10h-604v-202q0 -178 -24 -274q-25 -95 -130 -199l-10 12q76 89 98 193q22 102 20 282v252l54 -38h518v0v0z
M590 654l50 -38q9 -6 -6 -14l-24 -12l-28 -68h58l24 28l46 -36q3 -4 4 -4q0 -12 -12 -12h-60v-290l82 12l4 -18l-86 -20v-77l4 -36q0 -12 -14 -28q-14 -15 -40 -18l6 82v65q-127 -24 -154 -37q-25 -11 -40 -26l-36 55l76 12v324h-18q-9 -1 -20 -4l-14 28h146l28 82h-90
q-18 0 -36 -8l-20 32h146l24 26v0v0zM490 184l108 16v86h-108v-102v0v0zM490 310h108v86h-108v-86v0v0zM490 418h108v80h-108v-80v0v0zM718 468q32 81 62 196l60 -24q15 -9 4 -18q-26 -4 -34 -28q-9 -21 -24 -60h136l32 32l48 -44q9 -9 -8 -12h-88q-9 -101 -24 -166
q-15 -63 -42 -120q30 -50 70 -85q38 -37 100 -50v-16q-24 1 -42 -2q-19 -3 -40 -24q-30 25 -54 58q-25 32 -56 79q-60 -85 -152 -151l-10 14q81 72 138 173q-43 70 -64 200q-27 -54 -56 -90l-12 8q23 48 56 130v0v0zM748 452q27 -118 64 -190q17 40 32 110q15 68 18 136h-86
l-28 -56v0v0zM62 902l50 -36h100l32 40l54 -44q6 -4 6 -8q1 -6 -28 -32v-476l4 -92q-1 -12 -14 -24q-13 -9 -38 -12v60h-118v-56q1 -12 -16 -26q-15 -13 -36 -16l4 130v592v0v0zM110 302h118v264h-118v-264v0v0zM110 590h118v252h-118v-252v0v0z" />
  </g>

</svg>
