<?xml version="1.0" standalone="no"?>
<!DOCTYPE svg PUBLIC "-//W3C//DTD SVG 1.1//EN" "http://www.w3.org/Graphics/SVG/1.1/DTD/svg11.dtd" >
<svg xmlns="http://www.w3.org/2000/svg" xmlns:xlink="http://www.w3.org/1999/xlink" version="1.1" viewBox="0 -205 1048 1024">
  <g transform="matrix(1 0 0 -1 0 819)">
   <path fill="currentColor"
d="M958 725q26 -20 22 -26q-5 -7 -45 -5l-83 -72l-10 4l44 84h-193l27 -19q17 -12 14 -17q-5 -6 -41 -2l-102 -109q26 -22 40 -38q13 -20 17 -45q0 -22 -12 -30q-14 -9 -25 19q-9 24 -34 56q-28 34 -75 80l7 7q18 -9 37 -21q17 -10 32 -20q20 34 39 69l37 70h-145
q-5 -53 -15 -83q-13 -32 -41 -62q-26 -22 -38 -15q-13 8 -6 56q1 8 7 15q5 4 15 13q27 21 39 41q23 35 28 95h14l-3 -45h162v126h-133l-88 -5l-16 23l69 -1h168v74l-5 46l70 -18q29 -6 24 -13q-5 -5 -39 -16v-73h113l43 47l64 -44q13 -9 8 -14q-5 -6 -22 -6h-206v-126h151
l37 36zM966 141q3 -24 -11 -34q-16 -11 -33 21l-7 9q-23 40 -46 67q-42 50 -95 87l5 11q75 -31 119 -65q56 -44 68 -96zM932 365q-4 -33 -17 -39t-28 18l-16 27q-8 15 -13 22q-7 13 -13 22l-38 -9q-26 -7 -42 -10q-26 -6 -54 -10l20 -7q25 -6 12 -16q-8 -6 -25 -13v-229v-16
q2 -15 -2 -22q-6 -8 -29 -13q-17 -3 -20 0q-2 3 -2 18l1 13v277q-22 -4 -56 -9q-19 -3 -61 -9l-35 -6l-1 -2q-12 -33 -18 -36q-10 -6 -22 32l-17 51l90 6l92 5l70 121q34 62 62 123l47 -28q23 -12 22 -19q-1 -8 -41 -6l-134 -189l78 7q50 5 96 10l-10 11q-16 25 -23 36
l-25 29l6 12q63 -38 105 -82q40 -43 41 -70zM597 281q29 -19 16 -23q-9 -4 -46 2q-38 -41 -96 -88q-61 -50 -121 -85l-5 8q68 62 107 102q57 63 90 118zM246 967q26 -6 26 -14q-1 -7 -31 -23v-781v-21q1 -6 2 -15q2 -17 -1 -22q-3 -8 -19 -15q-22 -9 -26 -4q-3 4 -1 30
q1 14 2 22q1 16 1 30v823zM127 767q19 -73 5 -172q-14 -98 -45 -110q-18 -4 -27 34q-7 38 7 50l5 10q23 37 31 66q14 46 11 122h13zM392 705q1 -21 -3 -39q-5 -15 -12 -20q-8 -6 -16 3q-8 8 -11 30q-6 36 -20 76q-21 54 -47 81l10 6q42 -27 68 -64q27 -37 31 -73z" />
  </g>

</svg>
