<?xml version="1.0" standalone="no"?>
<!DOCTYPE svg PUBLIC "-//W3C//DTD SVG 1.1//EN" "http://www.w3.org/Graphics/SVG/1.1/DTD/svg11.dtd" >
<svg xmlns="http://www.w3.org/2000/svg" xmlns:xlink="http://www.w3.org/1999/xlink" version="1.1" viewBox="0 -52 256 256">
  <g transform="matrix(1 0 0 -1 0 204)">
   <path fill="currentColor"
d="M164 250l18 -8q4 -3 1 -4q-5 1 -8 -1q-2 -3 -7 -10q-6 -6 -8 -9h45l9 10l11 -12q2 -1 1 -2l-2 -1l-5 -2v-33l1 -22q1 -7 -10 -9v10h-66v-24h80l7 9l16 -11q3 -2 -2 -2h-101v-23h79l7 10l12 -9q2 -1 2 -3q0 -1 -2 -2l-5 -3v-28q0 -26 -3 -33q-3 -10 -9 -16q-5 -6 -25 -10
q1 11 -11 13q-2 0 -10 2q-6 1 -10 2l1 4q6 -1 15 -3q12 -2 16 -2q5 0 10 1q6 0 11 8q5 7 5 29v36h-83v-1q1 -10 -12 -12q2 9 2 19v107q-1 5 -5 9l3 2l9 -8h12l7 11q6 11 5 13l-3 6zM73 240q2 -1 -1 -2q-3 0 -7 -3q-1 -3 -4 -8q-1 -4 -7 -14h43l6 8l12 -11l2 -1q0 -1 -2 -2
q-5 1 -7 -8q-21 -60 -93 -85l-2 3q74 36 87 92h-49q-3 -5 -5 -8q24 -4 28 -18q1 -7 -2 -9q-4 -3 -7 2q-1 6 -6 11q-4 6 -16 11q-3 -5 -6 -8t-5 -7q23 -7 25 -21q2 -7 -3 -9q-4 -2 -6 4t-5 11q-3 6 -14 12q-10 -11 -19 -17l-2 2q28 29 42 62q0 1 1 3q4 9 4 12t-3 6l2 2z
M64 136l19 -8q4 -1 2 -2q-5 -3 -8 -6v-13h28l7 8l14 -11q4 -2 -1 -2h-48v-10q13 -3 23 -7q12 -6 17 -11q4 -6 4 -10q0 -6 -3 -6q-4 -1 -7 5q-3 7 -13 14q-11 8 -21 11v-53l1 -14q0 -6 -3 -8q-2 -2 -8 -3v9q1 16 1 26v54q-7 -18 -21 -34q-21 -23 -39 -30l-1 3q19 13 34 32
q12 17 18 32h-28q-7 0 -11 -3l-9 8h57v16q1 3 -6 10zM144 189h66v25h-66v-25zM210 185h-66v-24h66v24zM133 79v-27q-1 -6 -3 -12q-8 -8 -14 -1q0 3 3 5q5 4 6 11q3 8 4 24h4zM146 81l3 2q16 -18 13 -32q-2 -6 -6 -6t-3 7q1 13 -5 26q-1 2 -2 3zM168 85l2 2q20 -11 20 -27
q0 -6 -4 -7t-5 6q0 6 -3 12t-10 14zM191 92l2 2q31 -17 19 -33q-3 0 -5 5q0 6 -4 12q-3 6 -12 14z" />
  </g>

</svg>
