<?xml version="1.0" standalone="no"?>
<!DOCTYPE svg PUBLIC "-//W3C//DTD SVG 1.1//EN" "http://www.w3.org/Graphics/SVG/1.1/DTD/svg11.dtd" >
<svg xmlns="http://www.w3.org/2000/svg" xmlns:xlink="http://www.w3.org/1999/xlink" version="1.1" viewBox="0 -154 1024 1024">
  <g transform="matrix(1 0 0 -1 0 870)">
   <path fill="currentColor"
d="M469 719q17 -10 8 -13q-21 -3 -32 -18q-13 -41 -29 -77q37 -26 59 -49q25 -28 34 -55q8 -27 0 -44q-8 -18 -23 -15t-17 33t-17 60q-13 23 -43 53q-11 -24 -23 -45q-27 -49 -64 -102l-8 6q23 54 46 112q21 51 33 94q12 44 9 56t-15 27l6 7zM190 709q17 -10 8 -13
q-21 -3 -30 -18q-12 -41 -24 -76q31 -23 49 -44q24 -28 32 -55t0 -44q-8 -18 -23 -15t-17 33q-1 30 -15 60q-11 21 -33 46q-15 -37 -30 -67q-34 -68 -76 -117l-10 6q36 66 59 126q21 59 35 107q13 48 10 61q-3 12 -15 27l6 7zM246 983l87 -36q14 -6 6 -11q-21 -9 -30 -21
v-108h104l32 40l68 -50q15 -10 -6 -10h-198v-353q75 -43 116 -76q43 -36 61 -69q16 -33 10 -51q-6 -19 -22 -19q-15 0 -26 37q-10 37 -45 76q-31 32 -94 80v-254l3 -97q0 -21 -13 -31q-13 -9 -39 -15q4 39 7 190v172q-24 -41 -50 -72q-39 -50 -80 -92q-42 -43 -109 -91
l-8 12q45 47 83 89q36 42 81 104q38 51 83 137v323h-139q-27 0 -45 -13l-34 33h218v118q2 15 -30 46zM591 928l43 -44q157 42 200 58q43 15 46 24t-4 18l10 8l74 -59q14 -12 0 -14q-36 14 -77 2q-15 -6 -32 -10q2 -119 6 -216q3 -104 20 -249q16 -147 37 -208t43 -100
q22 -37 51 -53l-5 -14q-14 6 -32 9q-19 4 -37 -20q-60 75 -85 264q-26 189 -29 310q-4 114 -1 268q-16 -4 -33 -8q-14 -4 -32 -8v-711l2 -97q0 -21 -13 -31q-15 -9 -39 -14q4 39 7 190v655q-31 -4 -68 -10v-326q0 -115 -36 -268q-36 -154 -178 -250l-13 14q99 81 137 207
q37 126 40 275q3 147 3 348q0 24 -22 48z" />
  </g>

</svg>
