<?xml version="1.0" standalone="no"?>
<!DOCTYPE svg PUBLIC "-//W3C//DTD SVG 1.1//EN" "http://www.w3.org/Graphics/SVG/1.1/DTD/svg11.dtd" >
<svg xmlns="http://www.w3.org/2000/svg" xmlns:xlink="http://www.w3.org/1999/xlink" version="1.1" viewBox="0 -205 1024 1024">
  <g transform="matrix(1 0 0 -1 0 819)">
   <path fill="currentColor"
d="M52 862h304v122l80 -26q15 -6 0 -18l-28 -16v-62h236v118l84 -28q11 -5 2 -16l-34 -16v-58h186l44 50l62 -60q3 -3 4 -6q1 -10 -12 -10h-284v-26l4 -42q3 -15 -18 -26q-21 -12 -42 -12l4 76v30h-236v-30l4 -42q3 -15 -20 -26q-22 -12 -40 -12l4 82v28h-220q-24 0 -60 -8
l-24 34v0v0zM56 466h148l30 42l52 -42q12 -7 12 -14q0 -2 -36 -28v-244q57 -61 102 -83q44 -18 116 -22q71 -3 380 14l142 18v-20q-33 -5 -54 -16q-21 -12 -38 -40h-344q-93 -2 -146 4q-51 5 -92 36q-39 33 -60 60q-19 26 -38 25q-18 -2 -44 -31q-24 -31 -66 -90l-56 48
q60 39 150 101v256h-84q-27 1 -50 -10l-24 36v0v0zM172 758q56 -31 82 -52q26 -19 38 -40t12 -42q0 -19 -12 -32q-11 -13 -28 -8q-17 3 -22 30q-3 27 -14 54q-10 30 -64 78l8 12v0v0zM440 234q27 63 24 214v208l52 -38q111 26 172 50q60 21 118 52q47 -48 50 -56t-2 -10
q-3 -3 -18 0t-110 -14q-93 -18 -212 -44v-134h316l38 44l60 -58l2 -8q-3 -4 -12 -4h-178v-210l4 -70q0 -17 -20 -31t-40 -14l4 109v216h-174v-48q0 -100 -36 -166q-35 -65 -106 -109l-10 12q51 46 78 109v0v0z" />
  </g>

</svg>
