<?xml version="1.0" standalone="no"?>
<!DOCTYPE svg PUBLIC "-//W3C//DTD SVG 1.1//EN" "http://www.w3.org/Graphics/SVG/1.1/DTD/svg11.dtd" >
<svg xmlns="http://www.w3.org/2000/svg" xmlns:xlink="http://www.w3.org/1999/xlink" version="1.1" viewBox="0 -36 256 256">
  <g transform="matrix(1 0 0 -1 0 220)">
   <path fill="currentColor"
d="M34 204v-121h29v121h-29zM20 78v96q0 24 -1 46l16 -9h28l11 10l13 -16l-10 -6v-108q0 -17 1 -34l-15 -8v27h-29v-22l-15 -7q1 15 1 31zM180 135l14 12l18 -19h-53v-45h22l14 11l17 -18h-53v-51h49l15 13l18 -20h-141q-10 0 -19 -2l-9 9h73v51h-19q-10 0 -19 -2l-9 9h47
v45h-22q-10 0 -19 -2l-9 9h85zM171 231l-8 -5q22 -38 44.5 -56t40.5 -21v-4q-19 -1 -23 -10q-12 7 -30 26.5t-35 59.5q-15 -28 -38.5 -53t-48.5 -39l-2 3q24 21 46 49t34 64z" />
  </g>

</svg>
