<?xml version="1.0" standalone="no"?>
<!DOCTYPE svg PUBLIC "-//W3C//DTD SVG 1.1//EN" "http://www.w3.org/Graphics/SVG/1.1/DTD/svg11.dtd" >
<svg xmlns="http://www.w3.org/2000/svg" xmlns:xlink="http://www.w3.org/1999/xlink" version="1.1" viewBox="0 -205 1024 1024">
  <g transform="matrix(1 0 0 -1 0 819)">
   <path fill="currentColor"
d="M418 520l50 -38h378l32 34l56 -46q6 -6 6 -8q0 -7 -26 -22v-270l4 -111q1 -15 -16 -24q-18 -9 -38 -12v82h-394v-40q0 -12 -20 -24q-18 -12 -36 -12l4 113v378v0v0zM470 131h394v325h-394v-325v0v0zM408 844h232v128l82 -32q6 -4 6 -8q0 -3 -6 -6l-32 -22v-60h156l36 46
l66 -52q3 -4 4 -10q0 -10 -12 -10h-250v-224h206l36 50l68 -56q2 -3 2 -8q1 -12 -10 -12h-546q-21 0 -68 -8l-16 34h278v224h-148q-18 0 -66 -8l-18 34v0v0zM552 400l46 -28h124l26 30l40 -32q12 -6 12 -14q0 -3 -24 -20v-60l4 -48q0 -18 -20 -30q-18 -10 -30 -8v40h-132
v-16q2 -13 -16 -22q-16 -10 -34 -10l4 90v128v0v0zM598 252h132v96h-132v-96v0v0zM446 774l8 10q66 -36 90 -60q23 -25 26 -46q0 -21 -8 -36q-10 -14 -26 -12t-20 26q-4 21 -22 54q-15 30 -48 64v0v0zM750 614q53 89 98 176l64 -34q10 -9 -4 -18q-16 3 -28 -6t-36 -36
t-80 -92l-14 10v0v0zM258 936q15 -6 4 -18q-36 -10 -44 -58q-6 -48 -20 -140h86l28 40l54 -38q15 -7 12 -10q1 -7 -34 -34q-6 -132 -24 -218q-15 -85 -56 -178q39 -28 66 -56q27 -27 30 -48q4 -20 -4 -34q-7 -13 -22 -13q-13 1 -26 25q-11 24 -28 48q-18 21 -38 40
q-43 -66 -92 -109q-48 -41 -126 -92l-8 14q66 52 118 105q50 54 80 112q-42 31 -126 86q39 155 60 334h-54q-24 0 -50 -6l-18 32h126q18 135 28 246l78 -30v0v0zM230 304q35 81 50 178q14 97 20 212h-106q-25 -154 -68 -332q44 -26 104 -58v0v0z" />
  </g>

</svg>
