<?xml version="1.0" standalone="no"?>
<!DOCTYPE svg PUBLIC "-//W3C//DTD SVG 1.1//EN" "http://www.w3.org/Graphics/SVG/1.1/DTD/svg11.dtd" >
<svg xmlns="http://www.w3.org/2000/svg" xmlns:xlink="http://www.w3.org/1999/xlink" version="1.1" viewBox="0 -36 256 256">
  <g transform="matrix(1 0 0 -1 0 220)">
   <path fill="currentColor"
d="M32 45h60v63h-60v-63zM42 115q8 24 9 39l21 -8l-9 -5q-6 -14 -12 -26h40l7 9l15 -13l-8 -6v-59q0 -9 1 -17l-14 -8v17h-60v-17l-15 -6q1 30 1 60.5t-1 46.5l12 -7h13zM27 183q0 29 -1 42l15 -8h47l7 9l14 -12l-8 -7q0 -46 1 -60l-14 -7v11h-48v-8l-14 -6q1 17 1 46z
M40 158h48v52h-48v-52zM127 220l14 -7h13q6 24 6 33l21 -8l-7 -5l-12 -20h42l8 10l13 -13l-7 -6v-35l1 -17l-15 -6v8h-63v-19h80l10 11l14 -18h-104v-19h84l8 10l14 -13l-8 -6q-2 -44 -4.5 -57.5t-9.5 -22.5t-19 -12q-1 13 -27 17v5q20 -2 28 -2t11 7.5t5 25.5t2 41h-84v-5
l-14 -5q1 20 1 34v66q0 13 -1 28zM204 206h-63v-20h63v20zM204 179h-63v-18h63v18zM190 67.5q3 -8.5 -0.5 -13.5t-7 -5t-4 7.5t-3.5 16t-8 16.5l3 2q17 -15 20 -23.5zM214 75.5q5 -7.5 2.5 -14.5t-7.5 -7.5t-5 6.5t-4 17t-7 15l3 2q13 -11 18 -18.5zM163 66q4 -9 1 -15.5
t-7.5 -6.5t-4.5 9.5t-2.5 17t-4.5 14.5l2 2q12 -12 16 -21zM134 53q-2 -9 -9 -12.5t-10.5 1t3 12.5t9 15t3.5 16h4q2 -23 0 -32z" />
  </g>

</svg>
