<?xml version="1.0" standalone="no"?>
<!DOCTYPE svg PUBLIC "-//W3C//DTD SVG 1.1//EN" "http://www.w3.org/Graphics/SVG/1.1/DTD/svg11.dtd" >
<svg xmlns="http://www.w3.org/2000/svg" xmlns:xlink="http://www.w3.org/1999/xlink" version="1.1" viewBox="0 -205 1024 1024">
  <g transform="matrix(1 0 0 -1 0 819)">
   <path fill="currentColor"
d="M912 498l70 -44q6 -6 6 -12q-1 -7 -22 -10l-168 -36v-216l4 -107q0 -12 -24 -28t-36 -14l4 129v226l-230 -52q-23 -8 -46 -22l-32 36l308 68v562l84 -36q7 -12 2 -14q-5 -3 -34 -18v-484l86 20l28 52v0v0zM526 858q116 -54 140 -84q22 -29 18 -52q-3 -22 -14 -28
q-11 -7 -28 -4q-16 2 -22 28q-7 24 -26 52q-19 26 -76 74l8 14v0v0zM514 646q99 -52 124 -82q22 -31 20 -56q-3 -24 -14 -30q-11 -8 -28 -6t-22 28q-6 26 -26 58q-18 29 -66 74l12 14v0v0zM316 916q10 -9 0 -14q-19 -6 -26 -12t-20 -38q-12 -33 -38 -102h178l30 44l64 -46
q9 -3 10 -14q0 -4 -20 -16q-15 -6 -24 -26q-60 -287 -186 -436q-124 -150 -254 -213l-8 12q177 127 270 281q92 153 124 390h-196q-33 -78 -84 -174q-49 -95 -94 -142l-14 8q77 134 128 266q50 130 86 272l74 -40v0v0zM184 600q86 -45 110 -80q24 -34 22 -58q-4 -24 -16 -30
q-13 -7 -26 -2q-11 6 -16 30q-6 23 -24 56q-16 31 -58 74l8 10v0v0z" />
  </g>

</svg>
