<?xml version="1.0" standalone="no"?>
<!DOCTYPE svg PUBLIC "-//W3C//DTD SVG 1.1//EN" "http://www.w3.org/Graphics/SVG/1.1/DTD/svg11.dtd" >
<svg xmlns="http://www.w3.org/2000/svg" xmlns:xlink="http://www.w3.org/1999/xlink" version="1.1" viewBox="0 -36 256 256">
  <g transform="matrix(1 0 0 -1 0 220)">
   <path fill="currentColor"
d="M181 203h30l12 10l13 -17h-36v-14q0 -8 11 -7h7q11 0 11.5 7t0.5 10h4q1 -7 1.5 -11t8.5 -8q-3 -4 -6.5 -6t-10.5 -3h-21q-17 -1 -18 9v23h-8q-4 -11 -19.5 -23t-48.5 -19l-2 4q20 7 34.5 16.5t21.5 21.5h-19l-5 -4l-13 9l5 5q3 11 4 20l19 -8l-7 -2l-3 -13h21q3 16 3 25
h-17q-10 0 -19 -2l-9 9h79l10 10l15 -17h-46q0 -7 -3 -25zM31 227l19 -8l-7 -3l-2 -13h21q2 15 2 25h-3q-13 1 -24 -2l-9 9h66l9 10l14 -17h-39q-1 -10 -3 -25h29l9 10l12 -17h-30v-20l36 11l1 -3q-38 -19 -44 -26l-9 11q4 3 4 11v16h-9q-3 -10 -17 -22t-45 -19l-1 5
q20 7 32 16.5t17 19.5h-21l-7 -3l-12 10l8 3zM37 79h24l4 8l15 -10l-7 -5q-3 -25 -6 -37t-7.5 -17.5t-15.5 -8.5q-1 11 -20 14v5q11 -1 17.5 -1.5t9 1.5t5 12.5t5.5 31.5h-25l-7 -4l-10 12l6 3q4 24 6 39l10 -6h21v27h-11q-10 0 -19 -2l-9 9h39l5 9l13 -10l-6 -4v-37l-12 -3
v4h-20zM192 79h24l6 9l14 -12l-7 -5q-3 -23 -6.5 -35t-8 -18t-13.5 -9q0 8 -21 14v4q19 -2 22.5 -1t7 11t6.5 35h-25l-5 -3l-11 11l5 3q5 23 6 39l11 -6h19v30h-4q-13 1 -24 -2l-9 9h37l7 8l12 -10l-6 -4v-39l-13 -3v4h-19zM82 149h67l12 10l14 -17h-73q-6 0 -12 -2zM98 137
l10 -6h38l6 7l11 -8l-6 -4v-24l-11 -3v3h-37v-2l-11 -3v40zM109 109h37v15h-37v-15zM82 98l12 -8h66l7 9l11 -11l-6 -6v-48q0 -17 -15 -23q-1 13 -18 15v5q11 -1 16 -1.5t5 7.5v46h-15l7 -3l-5 -3l-15 -18h11l7 8l10 -15h-27v-27l-12 -6v33q-9 0 -19 -2l-8 9h33l11 24h-44
v-66l-12 -7v88zM102 82l3 2q14 -5 16.5 -10t-1 -11t-6.5 2.5t-12 16.5z" />
  </g>

</svg>
