<?xml version="1.0" standalone="no"?>
<!DOCTYPE svg PUBLIC "-//W3C//DTD SVG 1.1//EN" "http://www.w3.org/Graphics/SVG/1.1/DTD/svg11.dtd" >
<svg xmlns="http://www.w3.org/2000/svg" xmlns:xlink="http://www.w3.org/1999/xlink" version="1.1" viewBox="0 -120 1000 1000">
  <g transform="matrix(1 0 0 -1 0 880)">
   <path fill="currentColor"
d="M61 50l-17 13q75 94 114 229q22 80 25 207l5 215h-138l-12 28h174v209l76 -10q20 -3 20 -15q0 -9 -14 -15l-15 -6v-163h72l41 48l68 -56v-20h-207q-1 -68 -4 -141h95l18 38l63 -43q12 -8 12 -16q0 -10 -16 -14l-12 -3q-4 -181 -10 -248q-14 -157 -69 -193
q-40 -26 -67 -26q-8 0 -11 5q-2 4 -3 24q-1 12 -6 16q-4 3 -20 6l-35 8v19h111q22 52 36 150q8 45 11 249h-97q-6 -111 -19.5 -177t-44.5 -130q-56 -116 -124 -188zM351 54l-7 20q115 37 201 118q46 44 70 94q11 22 23 65h-184l-12 28h201q8 49 8 153h-76q-55 -81 -103 -131
l-16 13q73 105 123 275l67 -27q17 -7 17 -19q0 -11 -17 -11h-19q-13 -29 -35 -72h207l40 56l76 -65v-19h-204q0 -90 -8 -153h127l42 57l82 -68v-17h-239q64 -145 249 -242l-8 -14q-23 -2 -33 -9q-17 -12 -29 -28q-151 121 -197 278q-31 -106 -122 -177q-102 -78 -224 -105z
M632 951l75 -28q18 -6 18 -15t-25 -14l-18 -4l-104 -131q109 0 272 6q-30 43 -66 71l16 16q55 -28 85 -52q55 -43 55 -95q0 -22 -15 -33q-9 -7 -19 -7q-8 0 -12 4q-5 4 -14 30q-8 21 -19 42q-159 -29 -329 -51q-12 -30 -26 -30q-13 0 -17 14l-27 86h87z" />
  </g>

</svg>
