<?xml version="1.0" standalone="no"?>
<!DOCTYPE svg PUBLIC "-//W3C//DTD SVG 1.1//EN" "http://www.w3.org/Graphics/SVG/1.1/DTD/svg11.dtd" >
<svg xmlns="http://www.w3.org/2000/svg" xmlns:xlink="http://www.w3.org/1999/xlink" version="1.1" viewBox="0 -205 1024 1024">
  <g transform="matrix(1 0 0 -1 0 819)">
   <path fill="currentColor"
d="M282 936q9 -9 -2 -14q-21 -8 -30 -16q-9 -7 -42 -76q-32 -69 -82 -156h120q27 60 48 114l66 -44q1 -10 -10 -10q-15 -6 -24 -18q-10 -10 -50 -82q-39 -72 -122 -192l162 18q-12 47 -50 92l10 12q57 -40 78 -70t24 -50q1 -18 -4 -30q-6 -13 -18 -16q-10 -3 -20 6
q-8 6 -10 16q0 6 -6 18q-87 -18 -128 -30q-40 -9 -74 -36l-48 68q29 4 58 20q50 69 110 190q-64 -9 -94 -18q-30 -7 -60 -26l-40 62q42 9 54 18q13 8 56 116q41 107 58 176l70 -42v0v0zM118 340h22q7 -87 6 -138q0 -52 -18 -83q-19 -30 -34 -34q-15 -3 -30 6q-12 7 -12 22
q0 16 18 35q17 18 26 42q9 20 16 50q6 27 6 100v0v0zM182 340l16 6q39 -63 52 -108q13 -42 8 -72q-4 -29 -22 -37q-15 -7 -30 4q-13 10 -4 47q7 35 0 80q-9 43 -20 80v0v0zM276 368l16 6q48 -58 66 -100q17 -40 14 -68q-3 -27 -18 -36q-14 -7 -28 2q-15 9 -12 46q3 35 -8 74
q-9 36 -30 76v0v0zM366 784h116v196l80 -32q18 -11 -8 -22l-24 -8v-134h50l32 38l48 -48l4 -6q1 -12 -10 -12h-124v-166h60l30 42l48 -50q2 -3 2 -6q1 -12 -10 -12h-130q1 -106 -4 -178h62l36 42l50 -50q2 -3 2 -6q1 -12 -10 -12h-144q-8 -138 -70 -212q-62 -72 -166 -129
l-10 16q101 69 146 139q42 69 52 186h-54q-18 0 -48 -8l-18 34h122q7 71 6 178h-70q-12 -1 -36 -10l-18 36h124v166h-38q-31 -1 -62 -10l-16 38v0v0zM894 908l62 -50q9 -9 6 -14q0 -6 -18 -12q-18 -3 -32 -24q-45 -82 -104 -200q62 -58 104 -112q39 -55 48 -100
q10 -45 2 -80q-9 -33 -30 -60q-22 -25 -68 -40q-10 30 -34 48q-22 14 -70 32l4 18q42 -10 66 -14t46 -2q18 3 28 24q9 18 6 60q-4 39 -26 82q-22 42 -100 142l86 234h-130v-648l4 -113q-1 -14 -22 -28q-18 -13 -36 -14l4 157v716l52 -42h120l32 40v0v0z" />
  </g>

</svg>
