<?xml version="1.0" standalone="no"?>
<!DOCTYPE svg PUBLIC "-//W3C//DTD SVG 1.1//EN" "http://www.w3.org/Graphics/SVG/1.1/DTD/svg11.dtd" >
<svg xmlns="http://www.w3.org/2000/svg" xmlns:xlink="http://www.w3.org/1999/xlink" version="1.1" viewBox="0 -205 1048 1024">
  <g transform="matrix(1 0 0 -1 0 819)">
   <path fill="currentColor"
d="M632 932q14 -16 7 -20q-7 -5 -40 4q-26 -7 -43 -11q-25 -6 -45 -11q29 -7 20 -16q-6 -6 -32 -13v-159h62l38 35l43 -31q13 -9 8 -14q-4 -5 -19 -5h-132v-89q59 -50 85 -78q33 -39 33 -70q-1 -34 -19 -36q-17 -3 -24 26q-7 30 -24 63q-20 35 -52 75v-440l1 -17
q2 -14 -1 -19q-4 -7 -24 -12q-17 -3 -21 0q-3 2 -2 15v18v419q-32 -80 -76 -151q-37 -61 -86 -124l-11 8q47 78 93 178q54 118 82 214v20h-75l-97 -4l17 21l66 -2h89v175l-63 -11q-40 -7 -67 -10l-4 11q62 13 135 38q81 27 139 59zM718 764q4 -95 -1 -146q-6 -54 -29 -109
q-12 -20 -20 -13q-11 7 -18 48q0 17 4 27q2 7 10 17q12 22 19 47q12 45 19 129h16zM828 940q27 -4 29 -12q1 -8 -27 -15l-1 -66q-2 -88 -3 -128q-2 -66 -5 -119l46 81l63 119l47 -21q16 -8 12 -15t-34 -8q-25 -40 -66 -95q-38 -52 -70 -90l-6 -60v-3q43 -149 79 -224
q51 -106 124 -161l1 -14q-23 2 -42 -4q-17 -5 -26 -14q-48 78 -79 159q-36 95 -62 219q-21 -133 -79 -227q-57 -94 -160 -161l-7 11q102 82 147 170q45 90 65 253q7 61 8 166q2 119 -4 267zM178 523q-24 -29 -55 -59t-66 -59l-6 7q53 53 109 137q63 98 107 203l47 -27
q29 -14 20 -20q-6 -4 -35 -4l-38 -63q-21 -34 -36 -53q34 -13 27 -20q-5 -6 -27 -6v-431v-27q1 -22 -2 -26q-4 -7 -23 -10q-18 -2 -22 2q-3 3 -1 20l1 20v416zM289 962q35 -18 28 -25q-4 -6 -35 -2q-62 -66 -109 -112q-70 -66 -123 -98l-8 7q59 54 113 115q64 75 97 136z
" />
  </g>

</svg>
