<?xml version="1.0" standalone="no"?>
<!DOCTYPE svg PUBLIC "-//W3C//DTD SVG 1.1//EN" "http://www.w3.org/Graphics/SVG/1.1/DTD/svg11.dtd" >
<svg xmlns="http://www.w3.org/2000/svg" xmlns:xlink="http://www.w3.org/1999/xlink" version="1.1" viewBox="0 -36 256 256">
  <g transform="matrix(1 0 0 -1 0 220)">
   <path fill="currentColor"
d="M235 99h3q-3 -26 -2.5 -34t3 -14t-4.5 -3t-17.5 11.5t-22.5 30.5q-20 -25 -50 -40l-1 3q27 20 46 48q-7 16 -10.5 44t-3.5 47h-31v-55h12l8 9l12 -16h-32q-1 -26 -10 -47t-28 -40l-3 2q18 25 23.5 49t5 51t-1.5 62l13 -8h32q-1 22 -2 45l21 -9l-7 -6v-30h29l9 9l15 -16
h-53q0 -15 2 -37.5t8 -39.5q12 21 23 60l18 -16l-8 -3q-12 -32 -28 -56q10 -19 23 -30zM224.5 226.5q4.5 -7.5 -1 -15t-9.5 3.5t-15 22l2 2q19 -5 23.5 -12.5zM69 198q0 29 -1 48l21 -11l-7 -7v-30h12l11 10l14 -17h-37v-40h19l13 12l15 -19h-52l17 -8l-7 -6v-28h10l10 11
l14 -18h-34v-49q23 -15 62.5 -17t98.5 4v-4q-14 -4 -17 -16q-34 -1 -71 0.5t-65.5 15.5t-47.5 37q-7 -30 -35 -58l-3 2q19 27 25.5 56.5t5.5 57.5l20 -9l-6 -7q-1 -17 -4 -36q10 -11 24 -19v58v18l-1 15h-30q-10 0 -18 -2l-9 9h53v40h-13q-9 0 -18 -2l-8 9h39z" />
  </g>

</svg>
