<?xml version="1.0" standalone="no"?>
<!DOCTYPE svg PUBLIC "-//W3C//DTD SVG 1.1//EN" "http://www.w3.org/Graphics/SVG/1.1/DTD/svg11.dtd" >
<svg xmlns="http://www.w3.org/2000/svg" xmlns:xlink="http://www.w3.org/1999/xlink" version="1.1" viewBox="0 -36 256 256">
  <g transform="matrix(1 0 0 -1 0 220)">
   <path fill="currentColor"
d="M20 118l-11 9h207l14 10l16 -17h-204q-17 0 -22 -2zM58 114l15 -3h112l7 6l16 -9l-8 -5v-18l-14 -4v3h-114v-2l-14 -2v34zM72 104v-13h114v13h-114zM43 74h169l7 9l17 -11l-8 -6v-34q0 -16 -22 -22q0 11 -30 14v5q38 -4 38 3v35h-58l17 -4q-11 -4 -29 -16h31l13 10
l18 -17h-72v-26l-16 -2v28h-34q-11 0 -21 -2l-10 9h48q-6 12 -18 20h-40v-53l-14 -4v71zM91 67q32 -5 14 -20h31q15 15 18 20h-63zM34 182h21l6 6l11 -9l-4 -5q-5 -19 -6.5 -23t-5 -9t-14.5 -9q-6 12 -20 15v4q10 -1 16 -1.5t8 1t4.5 8t4.5 15.5h-21l-7 -5l-9 8l5 6
q2 16 3 31l10 -7h22l2 21h-10q-11 0 -20 -2l-10 9h39l7 7l11 -10l-6 -3l-2 -22l3 -7h-16h-20zM199 182h25l7 7l12 -9l-7 -6q-3 -15 -4.5 -20.5t-4 -9.5t-13.5 -9q-3 11 -21 14v4q15 -1 19.5 -1t6.5 2.5t5 20.5h-25l-6 -4l-11 10l6 5q4 17 5 26l11 -4h18l3 21h-14
q-3 0 -13 -2l-10 9h36l6 7l12 -9l-6 -4l-3 -22l6 -7h-14h-21zM81 239q8 -5 13.5 -9.5t4 -10t-4.5 -5.5t-5.5 6.5t-10.5 16.5zM72 211q7 -3 13 -7.5t5 -9.5t-4 -7t-5.5 5.5t-9.5 16.5zM81.5 167.5q2.5 1.5 8 11.5t10.5 28l4 -1q-6 -20 -10.5 -33t-5 -23.5t-1.5 -15t-7 -1
t-2 13.5t1.5 12.5t-11.5 4.5l1 4q10 -2 12.5 -0.5zM133 203h10v14h-10v-14zM154 203h10v14h-10v-14zM133 182h10v14h-10v-14zM112 182h10v14h-8q-1 -6 -2 -14zM121 244l17 -7l-5 -4v-9h10q0 9 -1 20l17 -7l-5 -5v-8h9l7 7l11 -10l-6 -4q0 -16 1 -21l-12 -4v4h-10v-14h13l6 7
l12 -8l-5 -4q0 -17 -3 -23.5t-13 -10.5q0 7 -10 10v4q12 -4 13 4.5t1 13.5h-14q0 -29 1 -39l-13 -6q1 10 1 45h-10q0 -12 -8.5 -24t-26.5 -22l-1 3q14 11 19 22t6 21h-10l-4 -5l-10 7q3 4 4 11t2 20l11 -5h7v14q-7 0 -13 -1l-9 8h22q0 10 -1 20z" />
  </g>

</svg>
