<?xml version="1.0" standalone="no"?>
<!DOCTYPE svg PUBLIC "-//W3C//DTD SVG 1.1//EN" "http://www.w3.org/Graphics/SVG/1.1/DTD/svg11.dtd" >
<svg xmlns="http://www.w3.org/2000/svg" xmlns:xlink="http://www.w3.org/1999/xlink" version="1.1" viewBox="0 0 2048 2048">
  <g transform="matrix(1 0 0 -1 0 2048)">
   <path fill="currentColor"
d="M179 1872q17 -8 53 -22q35 -15 69 -32q34 -16 76.5 -44.5t66.5 -55.5t36 -54q11 -27 12 -50q0 -22 -12 -35q-11 -13 -34 -15q-22 -1 -43 20q-9 8 -32 50q-23 43 -59 80q-37 38 -69 64q-32 25 -49 36l-36 22zM79 1363q19 -9 54 -24t65 -29q30 -15 71 -44t69 -56
q27 -27 40 -50q14 -23 16 -48q3 -25 -8 -42q-12 -16 -33 -22q-21 -5 -46 19q-10 9 -31 47q-20 39 -60 84q-39 44 -57 58q-18 15 -67 50l-33 23zM463 870l32 -19q-12 -37 -18 -54l-61 -156l-53 -137q-14 -33 -121 -259l-34 -68q3 -24 4 -38q0 -14 -4 -35q-4 -22 -12 -26
t-20 6q-11 9 -24 30l-71 108l45 61l51 71q21 29 52 79t72 124l75 139l70 140zM724 97l-39 85q26 -6 42 -8t45 -4l51 -4q35 -3 50 -3h400v185h-263q-24 0 -57 -2q-33 -3 -39 -3.5t-28 -2.5l-25 -3l-39 85q27 -5 44 -7t42 -5q24 -2 54 -4q29 -1 48 -1h263v40q0 6 -2 57t-3 56
l-3 13l110 -24q49 -11 67 -21q17 -9 18 -23q0 -14 -14 -25q-13 -12 -35 -18l-41 -11v-44h283l80 80l114 -86q10 -8 15 -14q4 -6 1 -19q-4 -10 -11 -14q-8 -4 -15 -4h-467v-185h405l80 81l114 -86q8 -7 13 -14q6 -8 3 -19t-11 -15q-9 -5 -15 -4l-1086 1q-30 0 -71 -3l-27 -2
q-24 -2 -26 -2zM1403 1687l71 -17q31 -8 51 -18q20 -9 21 -26q2 -17 -12 -26q-14 -10 -37 -16l-23 -6v-39h236l61 72l72 -50q16 -12 27 -23q12 -12 14 -22q2 -11 -7 -23q-4 -5 -31 -20l-26 -14v-154q0 -21 -1 -29q-1 -7 -7 -16q-6 -8 -29 -14q-23 -7 -39 -2q-9 2 -16 7t-7 8
v8v12h-318l53 -13q33 -9 52 -18q20 -8 20 -24q1 -17 -14 -28q-14 -11 -33 -17l-29 -10v-63h190l79 79l91 -84l11 -10q8 -12 4 -23q-3 -7 -11 -11t-22 -4l-342 -1v-100q0 -25 10 -36q11 -12 25 -12q14 -1 62 -1h201q27 0 51 9t29 20q6 12 11 51l10 92h32l2 -79q0 -22 7 -38
q6 -17 26 -32q20 -14 22 -20q3 -7 0 -20q-5 -16 -24 -32q-19 -15 -57 -23t-84 -8h-221h-72q-18 0 -46 5q-27 5 -44.5 21t-23.5 34q-7 18 -6 34l1 214q0 67 -3 99q-2 32 -2 34l-2 15h-344q-111 0 -153 -2l-22 -1l71 -17q35 -9 52.5 -18t17.5 -25q1 -16 -14 -28
q-16 -12 -31 -16l-26 -7l-1 -66l189 -1l70 71l92 -75q7 -7 13 -16q7 -8 3 -18q-3 -7 -12 -11t-22 -4h-333l-1 -124q28 4 75 11q47 8 96 18q50 9 102 24l47 13l13 -30l-58 -29q-30 -14 -97 -42q-67 -27 -105 -39l-67 -22q-4 -17 -8 -31q-4 -15 -11 -20q-8 -4 -18 0
q-9 3 -14 13l-63 116l17 2v218q0 73 -2 103q-2 29 -2 31l-3 17q-35 -2 -46 -2l-13 -1l-29 67v-113q0 -97 -7 -231q-6 -133 -16 -242q-11 -108 -30 -196q-18 -88 -52 -172q-34 -85 -84 -166q-51 -81 -85 -117l-37 -40l-31 26l45 63q25 34 60 100t62 148q27 81 42 176
q16 94 24 200q9 106 12 214q2 109 3 222l1 409q0 12 -2 81q-2 68 -2 69l-2 36l109 -63h529q-10 5 -14 10q-3 4 -7 19t-14 37t-21 39t-30 37l-30 30l25 27q21 -14 45 -28t40 -25q15 -10 36 -29q20 -19 29 -33q9 -13 9 -40q1 -28 -16 -35l-17 -9h424l95 89l115 -94
q8 -7 13 -15q5 -7 2 -19q-3 -8 -8.5 -12t-18.5 -4h-512zM1374 1687h-326l73 -17q30 -8 51 -18q20 -9 22 -26q1 -17 -12 -26q-14 -9 -39 -16l-22 -6v-39h257v84q-1 21 -2 35q0 15 -1 23zM719 1357q7 -3 20 -6t62 -9t139 -6h87v149h-87q-41 0 -108 -3q-67 -4 -70 -4l-13 -1
l-29 65zM720 1563q7 -3 19 -5q12 -3 71 -11q58 -8 122 -8h95q0 22 -1 39q0 17 -2 57q-1 39 -2 46l-1 6h-300zM1474 1485v-150h248v150h-248zM1378 1335v150h-257v-149zM1710 795l30 -20l34 -25l41 -32q23 -19 38 -34t23 -32q9 -17 10 -40q0 -24 -12 -38q-12 -15 -30 -16
q-18 0 -32 13q-11 9 -18 29l-12 37q-7 17 -18 35q-11 19 -28 42q-18 23 -28 33l-20 20zM932 787l35 -11q-7 -39 -15 -72q-7 -34 -22 -72t-37 -64t-42 -35t-41 -9q-20 -1 -32 10q-13 12 -14 31q0 19 9 29q9 11 45 30q35 20 60 52q25 33 37 66zM1170 804l44 -60q19 -26 31 -52
q12 -25 17 -56q6 -31 -6 -56q-12 -26 -42 -24q-30 1 -40 30q-4 8 -3 33t-2 55q-7 48 -14 68l-16 44zM1408 800l26 -20q11 -9 35.5 -30t43.5 -40t33 -41t20 -49q5 -28 -14 -46t-39 -16q-19 1 -31 14q-11 12 -15 30l-8 40q-4 13 -13 32q-8 20 -18 37q-11 17 -27 39l-18 23z
" />
  </g>

</svg>
