<?xml version="1.0" standalone="no"?>
<!DOCTYPE svg PUBLIC "-//W3C//DTD SVG 1.1//EN" "http://www.w3.org/Graphics/SVG/1.1/DTD/svg11.dtd" >
<svg xmlns="http://www.w3.org/2000/svg" xmlns:xlink="http://www.w3.org/1999/xlink" version="1.1" viewBox="0 -200 999 1000">
  <g transform="matrix(1 0 0 -1 0 800)">
   <path fill="currentColor"
d="M528 302l165 49q-3 18 -6 35t-9 39l9 4q27 -40 46.5 -76t19.5 -69q0 -10 -5.5 -18t-13 -14t-14.5 -9.5t-10 -3.5q-9 0 -10 26.5t-6 71.5l-207 -105l-31 57l53 12q10 22 24.5 54.5t30.5 71t32.5 81.5t31.5 87l-130 -52l-24 51l44 1q9 33 19.5 84.5t19.5 109t16.5 114
t10.5 99.5l57 -52q-13 -21 -25.5 -63t-25 -92.5t-25 -102.5t-25.5 -94l97 14q5 19 12 36t15 37.5t15.5 45.5t13.5 60l61 -64l-37 -46zM861 951l55 -48l-26 -36q-5 -272 -5 -434.5t-7 -199.5q-5 -22 -10.5 -39.5t-14.5 -32t-23.5 -26t-38.5 -22.5v8q0 11 -6 19t-17 15.5
t-28 15.5t-39 20l2 12q17 -5 38 -8.5t34 -3.5h4q18 2 28 9.5t15.5 21t8 32.5t5.5 43q3 25 3.5 66.5t1 110t1 169t3.5 243.5h-89l-53 -11l-22 31h153zM899 191v-13q0 -40 9 -58t20.5 -25.5t20.5 -11t9 -14.5v-3q-1 -7 -9 -13t-20 -10.5t-27 -7t-31 -2.5h-517q-10 4 -19.5 6
t-16.5 8t-11.5 19.5t-4.5 40.5v286h-24l-56 -10l-19 36h99v203h-19l-58 -8l-18 34h95v246h-109l-11 -38q-4 -49 -4 -104t-2 -121q-3 -57 -5.5 -110.5t-7.5 -95.5l-5 -32q-20 -146 -47.5 -241.5t-68.5 -151.5l-14 5q35 90 54.5 183.5t29 205t12.5 248.5t4 313l68 -37h100
l39 40l54 -53l-38 -37v-219h31l39 39l55 -66h-125v-203h34l39 41l57 -67h-130v-262q1 -3 3 -11t5 -16.5t6.5 -15.5t8.5 -9h468q16 1 25 9.5t13.5 21.5t5.5 29.5t1 34.5v17h12z" />
  </g>

</svg>
