<?xml version="1.0" standalone="no"?>
<!DOCTYPE svg PUBLIC "-//W3C//DTD SVG 1.1//EN" "http://www.w3.org/Graphics/SVG/1.1/DTD/svg11.dtd" >
<svg xmlns="http://www.w3.org/2000/svg" xmlns:xlink="http://www.w3.org/1999/xlink" version="1.1" viewBox="0 -205 1024 1024">
  <g transform="matrix(1 0 0 -1 0 819)">
   <path fill="currentColor"
d="M188 974l56 -34q9 -5 4 -16q1 -1 -16 -4q-18 -3 -74 -72q-57 -70 -122 -124l-10 12q81 101 162 238v0v0v0zM252 690q9 -6 6 -12q1 -3 -10 -8q-19 -7 -40 -40q-22 -33 -40 -62v-402l4 -93q0 -15 -20 -28q-21 -12 -36 -12l4 133v338q-45 -69 -90 -108l-10 8q53 82 98 164
q44 81 74 154l60 -32v0v0zM632 628h280l32 42l52 -48q3 -4 4 -10q1 -12 -16 -12h-122v-475q3 -41 -18 -74q-20 -30 -64 -42q-12 30 -26 38q-15 9 -92 36l4 20l100 -16q24 -1 36 4q10 6 8 44v465h-94q-18 0 -66 -8l-18 36v0v0zM872 888l34 40l48 -46q3 -3 4 -8q0 -12 -12 -12
h-222q-18 -1 -66 -10l-18 36h232v0v0zM288 900l56 -32h38q18 48 36 114l62 -24q10 -8 0 -16q-19 -9 -32 -24q-12 -12 -36 -50h116l18 32l66 -38q6 -4 6 -8q0 -6 -32 -26v-134l4 -76q-1 -16 -14 -28q-13 -10 -40 -14v36h-200v-84h240l36 44l58 -56q6 -15 -8 -14h-326v-82h252
l34 34l58 -46q3 -8 -2 -16l-26 -16q-3 -75 -8 -144q-4 -69 -10 -105q-7 -35 -28 -62q-19 -23 -62 -40q-12 40 -42 52q-31 12 -80 30l6 18q63 -15 96 -18q29 -2 44 4q12 7 18 29q4 24 8 88q3 61 6 164h-264q3 -31 -14 -38q-16 -7 -38 -10l4 130v426v0v0zM336 640h200v86h-200
v-86v0v0zM336 756h200v84h-200v-84v0v0zM280 298h18q5 -51 8 -90q2 -37 -10 -58q-11 -20 -28 -25q-18 -4 -30 4q-12 6 -8 21q3 13 18 26q14 12 20 34q6 18 12 88v0v0zM338 304l12 8q33 -43 46 -64q9 -20 10 -40q0 -18 -12 -32q-12 -13 -26 -8q-15 5 -12 32q4 24 0 48
q-6 23 -18 56v0v0zM486 366l12 8q48 -42 64 -62q14 -21 16 -42q3 -20 -8 -34q-12 -13 -26 -8q-13 6 -14 30q0 25 -12 50q-9 23 -32 58v0v0zM408 332l12 8q44 -39 58 -62q14 -21 16 -42q0 -18 -12 -32q-12 -13 -26 -8q-14 6 -12 36q0 30 -8 48q-7 18 -28 52v0v0z" />
  </g>

</svg>
