<?xml version="1.0" standalone="no"?>
<!DOCTYPE svg PUBLIC "-//W3C//DTD SVG 1.1//EN" "http://www.w3.org/Graphics/SVG/1.1/DTD/svg11.dtd" >
<svg xmlns="http://www.w3.org/2000/svg" xmlns:xlink="http://www.w3.org/1999/xlink" version="1.1" viewBox="0 -154 1024 1024">
  <g transform="matrix(1 0 0 -1 0 870)">
   <path fill="currentColor"
d="M202 614l26 -24q11 15 21 29q38 55 72 127h-230q-25 1 -36 -14l-31 34h285l30 39l65 -49q14 -11 0 -14q-22 -4 -30 -10t-34 -49q-25 -42 -63 -94q-9 -14 -20 -28q71 -33 96 -55q45 -35 50 -71t-23 -46q-18 -4 -26 25q-8 30 -25 62q-15 28 -76 66v-361l4 -97
q-2 -39 -57 -46q5 39 7 189v275q-11 -11 -22 -23q-55 -58 -159 -127l-10 10q105 90 190 198q-5 24 -19 43zM661 922v-758q-8 -84 70 -87q23 -2 64 -2q41 -1 54 0q70 6 82 50q2 22 4 47q3 25 6 78h17l1 -72q2 -59 33 -69q-27 -67 -132 -70q-20 -1 -71 0q-50 1 -94 5
q-75 1 -76 123v765q-2 23 -30 44l7 12l99 -40q6 -6 -1 -9q-16 -5 -33 -17zM603 366l1 -14l-160 -60q-74 -30 -85 -50l-36 54l126 31v284h-42q-22 1 -36 -10l-28 30h106v195q0 13 -22 34l6 9l73 -28q11 -3 5 -9q-13 -3 -24 -14v-187h30l26 36l54 -49q6 -7 -9 -7h-101v-274z
M699 630h106v176q2 14 -22 38l7 10l72 -31q12 -4 5 -10q-15 -4 -24 -17v-166h26l29 36l62 -46q15 -10 -5 -10h-112v-277h43l29 35l59 -46q15 -9 -6 -9h-199q-24 1 -41 -12l-31 32h108v277h-34q-24 1 -41 -11zM130 976l4 13q86 -24 111 -43q26 -18 37 -37q22 -48 -15 -65
q-17 -4 -23 20q-6 25 -26 52q-19 27 -88 60z" />
  </g>

</svg>
