<?xml version="1.0" standalone="no"?>
<!DOCTYPE svg PUBLIC "-//W3C//DTD SVG 1.1//EN" "http://www.w3.org/Graphics/SVG/1.1/DTD/svg11.dtd" >
<svg xmlns="http://www.w3.org/2000/svg" xmlns:xlink="http://www.w3.org/1999/xlink" version="1.1" viewBox="0 -36 256 256">
  <g transform="matrix(1 0 0 -1 0 220)">
   <path fill="currentColor"
d="M34 207v-121h27v121h-27zM20 81v96q0 24 -1 46l15 -9h26l8 8l13 -13l-7 -7v-108q0 -17 1 -34l-14 -8v27h-27v-22l-15 -7q1 15 1 31zM144 246q15 -5 23.5 -12t-1.5 -18h48l13 10l17 -17h-132q-11 0 -20 -2l-10 9h76q-2 15 -16 26zM226 143q0 -16 1 -25l-15 -7v10h-100v-6
l-15 -7q1 22 1 47t-1 45l15 -7h101l7 8l14 -13l-8 -7v-38zM212 186h-100v-58h100v58zM192 142l-14 -4v7h-30v-5l-14 -5q1 12 1 23t-1 21l14 -6h31l7 7l12 -13l-7 -5q0 -9 1 -20zM178 166h-30v-14h30v14zM189 105l13 10l17 -17h-88q-13 1 -22 -3l-9 10h89zM140 53l-10 -5
q-29 -27 -49 -38l-2 3q13 10 25.5 25t19.5 28zM237 35q4 -8 0 -16.5t-12 4t-40 35.5l2 2q46 -17 50 -25zM211 82l13 11l18 -18h-74v-46q1 -18 1 -17l-16 -5q1 17 1 26v42h-43q-11 0 -20 -2l-10 9h130z" />
  </g>

</svg>
