<?xml version="1.0" standalone="no"?>
<!DOCTYPE svg PUBLIC "-//W3C//DTD SVG 1.1//EN" "http://www.w3.org/Graphics/SVG/1.1/DTD/svg11.dtd" >
<svg xmlns="http://www.w3.org/2000/svg" xmlns:xlink="http://www.w3.org/1999/xlink" version="1.1" viewBox="0 -205 1024 1024">
  <g transform="matrix(1 0 0 -1 0 819)">
   <path fill="currentColor"
d="M448 530h356l28 34l52 -42q6 0 6 -8q1 -3 -28 -24q-15 -269 -18 -310q-4 -40 -16 -73q-21 -44 -96 -70q-4 35 -40 52q-36 16 -80 34l4 16q71 -18 100 -24q39 -4 58 16q17 20 20 57q2 34 16 314h-178q-10 -148 -38 -230q-27 -82 -84 -137q-54 -56 -170 -116l-8 16
q123 81 168 153q45 71 60 140q12 69 18 174h-66q-19 0 -40 -8l-24 36v0v0zM746 910q17 -56 56 -130q39 -75 88 -116q48 -42 114 -60v-18q-30 -1 -54 -4q-24 -1 -48 -28q-46 47 -80 98q-32 48 -58 108q-24 57 -62 202q78 -18 78 -26q0 -6 -6 -12q-7 -6 -28 -14v0v0zM544 932
q75 -30 82 -36q6 -6 -2 -14q-8 -6 -22 -14q-15 -9 -36 -60q-22 -50 -64 -136q-43 -84 -112 -182l-14 10q53 103 98 218q45 113 70 214v0v0zM258 942q5 -3 8 -6q0 -10 -18 -16q-18 -7 -26 -50q-7 -43 -22 -136h106l30 42l56 -36q13 -9 12 -12q0 -7 -32 -28q-21 -180 -38 -258
q-18 -76 -62 -166q65 -34 92 -64q26 -28 32 -50q3 -21 -6 -35q-9 -15 -24 -12q-14 1 -28 27q-15 24 -30 46q-16 21 -56 54q-49 -67 -100 -113q-51 -48 -126 -96l-8 14q65 54 118 111q53 60 80 108q-33 29 -120 76q24 150 54 366h-60q-21 0 -48 -6l-16 32h128q15 123 28 240
l76 -32v0v0zM236 296q33 72 52 166q18 93 30 246h-122q-28 -190 -58 -358q43 -24 98 -54v0v0z" />
  </g>

</svg>
