<?xml version="1.0" standalone="no"?>
<!DOCTYPE svg PUBLIC "-//W3C//DTD SVG 1.1//EN" "http://www.w3.org/Graphics/SVG/1.1/DTD/svg11.dtd" >
<svg xmlns="http://www.w3.org/2000/svg" xmlns:xlink="http://www.w3.org/1999/xlink" version="1.1" viewBox="0 -36 256 256">
  <g transform="matrix(1 0 0 -1 0 220)">
   <path fill="currentColor"
d="M87 187v-132q0 -20 1 -39l-15 -6q1 19 1 37v42h-21q-4 -55 -39 -80l-2 3q26 29 27 77l-13 -3l-9 10h8h49v33h-33l-7 -6l-11 10l7 6v27q0 4 -1 15l20 -7l-6 -7v-31h31v24q0 15 -1 42l21 -7zM215 209h-177q4 -11 -1 -18t-15.5 -6t-5.5 8t9 12t8 22h4l1 -11h85q0 12 -16 28
l2 2q27 -10 29 -16.5t-7 -13.5h86l6 9l18 -15q-15 -2 -33 -21l-4 2zM108 124q1 12 1 23.5t-1 21.5l16 -5h76l7 5l15 -8l-6 -4q0 -17 1 -27l-14 -4v3h-81v-3zM122 136h20v21h-20v-21zM106 123h3v-5h112l6 8l14 -15q-11 -2 -24 -16l-3 2l6 14h-111q0 -7 -3 -13.5t-12 -5
t-0.5 8.5t12.5 22zM171 157h-18v-21h18v21zM203 157h-20v-21h20v21zM219 74.5q6 -4.5 5.5 -12t-5.5 -3.5t-16 9t-30 9l1 3q39 -1 45 -5.5zM139.5 72q9.5 7 12 14.5t2.5 22.5l18 -7l-5 -5q0 -4 -2 -10q23 8 35 17l14 -11q-1 1 -51 -12q-4 -8 -16 -15t-47 -12v4q30 7 39.5 14z
M120 20q15 6 24.5 17.5t12.5 35.5l17 -8l-5 -5q6 -9 13 -13q20 8 28 15l13 -11q-8 0 -37 -7q12 -9 24 -13t29 -6v-4q-13 1 -19 -10q-9 3 -19 9.5t-18.5 14t-15.5 17.5q-5 -13 -13 -21t-20.5 -14t-41.5 -8v3q13 2 28 8zM147 170l-13 -3v10h-13q-11 -1 -20 -3l-10 10h43
q0 9 -1 19l20 -6l-6 -7v-20zM173 201l20 -5l-6 -6v-6h23l10 9l15 -16h-48q0 -4 1 -8l-14 -2q0 23 -1 34zM113 100q24 -7 25.5 -13t-3.5 -11t-8 3.5t-15 18.5zM111 55q22 -8 23 -14t-3 -10.5t-7.5 3.5t-13.5 18z" />
  </g>

</svg>
