<?xml version="1.0" standalone="no"?>
<!DOCTYPE svg PUBLIC "-//W3C//DTD SVG 1.1//EN" "http://www.w3.org/Graphics/SVG/1.1/DTD/svg11.dtd" >
<svg xmlns="http://www.w3.org/2000/svg" xmlns:xlink="http://www.w3.org/1999/xlink" version="1.1" viewBox="0 -36 256 256">
  <g transform="matrix(1 0 0 -1 0 220)">
   <path fill="currentColor"
d="M127 203h-39q0 -10 1 -23l-17 -7q1 16 1 30h-27q-11 0 -21 -2l-9 9h57q0 25 -1 37l24 -9l-8 -9v-19h12l13 14zM138 203l-10 9h35q0 20 -1 35l24 -9l-8 -6v-20h32l12 12l16 -19h-60q0 -7 1 -21l-17 -7q1 22 1 28h-12q-2 1 -13 -2zM14 114l-1 4q25 11 42 25q-8 10 -31 25
l2 3q23 -10 39 -21q18 13 32 30l15 -15l-10 -2q-14 -11 -29 -21q30 -35 26 -77.5t-38 -54.5q-2 15 -26 18v6q28 -4 33 -1t9 9.5t7 18t-1 38.5q-27 -22 -71 -41l-2 5q46 27 67 50q-6 13 -14 21q-23 -13 -49 -20zM133 108h65v26h-65v-26zM133 141h65v22h-65v-22zM133 170h63
l9 11l14 -13l-7 -7v-29q0 -13 1 -29l-15 -6v4h-42q10 -24 22 -36q29 20 40 36l15 -16l-9 -1q-13 -9 -42 -24q24 -26 66 -29v-4q-16 -3 -19 -13q-60 19 -80 87h-16v-68l35 17l2 -3q-27 -19 -44 -38l-11 15q5 2 4 20v94q0 22 -1 41z" />
  </g>

</svg>
