<?xml version="1.0" standalone="no"?>
<!DOCTYPE svg PUBLIC "-//W3C//DTD SVG 1.1//EN" "http://www.w3.org/Graphics/SVG/1.1/DTD/svg11.dtd" >
<svg xmlns="http://www.w3.org/2000/svg" xmlns:xlink="http://www.w3.org/1999/xlink" version="1.1" viewBox="0 -205 1024 1024">
  <g transform="matrix(1 0 0 -1 0 819)">
   <path fill="currentColor"
d="M658 990l86 -38q9 -4 6 -10q0 -3 -6 -8l-32 -12v-160h164l38 56l70 -66q6 -4 6 -8q0 -9 -6 -8h-272v-246h140l36 44l54 -46q9 -3 10 -12q0 -7 -32 -28v-268l4 -101q0 -12 -18 -24t-36 -12v90h-330v-68q0 -14 -20 -26q-18 -12 -36 -12l4 147v358l62 -42h108v500v0v0z
M540 156h330v308h-330v-308v0v0zM182 972q92 -51 116 -78q21 -28 18 -52q-3 -22 -14 -32q-12 -10 -26 -4q-12 3 -18 30t-20 52q-14 24 -64 72l8 12v0v0zM70 760h252l28 38l54 -50q9 -7 10 -14q1 -6 -16 -8q-21 -3 -42 -36q-39 -55 -84 -122v-108l26 -8l88 130q53 -33 56 -42
q1 -7 -4 -10q-6 -3 -20 -2q-15 1 -102 -82q54 -24 76 -44q18 -21 22 -36q3 -16 -2 -32q-7 -14 -22 -16q-15 -3 -24 12q-9 14 -18 32t-26 36q-18 18 -50 40v-288l4 -83q1 -12 -18 -30q-20 -18 -40 -18l4 120v365q-54 -84 -176 -182l-12 12q110 120 146 172q32 51 62 94
q27 41 78 134h-180q-24 0 -50 -8l-20 34v0v0z" />
  </g>

</svg>
