<?xml version="1.0" standalone="no"?>
<!DOCTYPE svg PUBLIC "-//W3C//DTD SVG 1.1//EN" "http://www.w3.org/Graphics/SVG/1.1/DTD/svg11.dtd" >
<svg xmlns="http://www.w3.org/2000/svg" xmlns:xlink="http://www.w3.org/1999/xlink" version="1.1" viewBox="0 -205 1024 1024">
  <g transform="matrix(1 0 0 -1 0 819)">
   <path fill="currentColor"
d="M880 618l42 54l58 -58q6 -6 6 -12q-1 -13 -16 -10h-170v-438q0 -34 6 -47q8 -12 20 -12q12 -2 22 -2h42q33 1 42 26q9 21 12 59q1 36 2 90h20q2 -70 8 -100q5 -32 32 -43q-12 -41 -36 -58q-23 -17 -58 -20h-76q-37 0 -52 8q-12 8 -24 28q-10 19 -10 71v438h-110
q3 -96 -6 -224q-7 -127 -64 -208q-57 -79 -188 -151l-8 14q135 97 174 181q36 84 40 192t2 196h-60q-31 0 -56 -8l-14 34h420v0v0zM488 878h326l44 52l62 -60q3 -3 4 -8q0 -12 -12 -12h-348q-30 0 -54 -8l-22 36v0v0zM286 936q6 -6 4 -12q-3 -6 -18 -8q-11 -7 -22 -20
q-9 -9 -30 -54h114l30 34l62 -50q6 -7 4 -10q-1 -6 -32 -12q-21 -11 -42 -34q-21 -24 -60 -78h74l28 34l56 -38l4 -8q0 -6 -24 -24v-242l4 -68q0 -15 -18 -26q-17 -12 -34 -12v34h-234v-18q1 -12 -18 -26q-17 -12 -34 -12l4 104v250q-30 -52 -68 -88l-12 10q42 72 102 196
q60 122 90 212l70 -34v0v0zM152 368h92v138h-92v-138v0v0zM292 368h94v138h-94v-138v0v0zM152 532h92v134h-92v-134v0v0zM292 666v-134h94v134h-94v0v0zM150 692h116l68 124h-126q-34 -63 -64 -114l6 -10v0v0zM114 264h18q3 -69 -6 -108q-10 -34 -22 -59q-12 -22 -36 -26
q-21 -4 -32 6q-9 12 -6 26q2 12 20 24q16 12 32 35q16 24 32 102v0v0zM176 274l14 8q39 -61 48 -94q8 -33 8 -51q-1 -17 -14 -32q-12 -12 -30 -6q-18 5 -12 34q3 28 4 61q0 32 -18 80v0v0zM262 292l12 10q51 -49 66 -88q15 -38 16 -58q-1 -17 -14 -31q-11 -12 -28 -6
q-18 6 -14 33q2 29 -4 64q-7 33 -34 76v0v0zM352 298l12 10q58 -48 80 -78q21 -28 24 -52q0 -24 -12 -38q-12 -11 -30 -7q-18 6 -18 35q0 30 -14 60q-12 30 -42 70v0v0z" />
  </g>

</svg>
