<?xml version="1.0" standalone="no"?>
<!DOCTYPE svg PUBLIC "-//W3C//DTD SVG 1.1//EN" "http://www.w3.org/Graphics/SVG/1.1/DTD/svg11.dtd" >
<svg xmlns="http://www.w3.org/2000/svg" xmlns:xlink="http://www.w3.org/1999/xlink" version="1.1" viewBox="0 -36 256 256">
  <g transform="matrix(1 0 0 -1 0 220)">
   <path fill="currentColor"
d="M113.5 79.5q5.5 37.5 5.5 81t-1 70.5l14 -9q33 5 57 10.5t39 13.5l12 -17q-10 1 -37.5 -4t-70.5 -9q0 -45 -0.5 -77t-7.5 -67t-33 -64l-3 2q20 32 25.5 69.5zM181 221l20 -9l-6 -6v-10h19l11 10l15 -17h-45v-17h33l7 9l13 -13q-13 -6 -24 -19l-3 2l7 14h-71v-31l26 4
q0 19 -1 29l21 -10l-8 -6v-11l17 3l7 9l13 -12l-37 -6v-14q0 -9 10 -8q20 0 23.5 1t5.5 2.5t8 -2.5t2.5 -7t-8 -4t-13.5 -1h-22q-18 1 -18 17v14l-17 -3l-3 -4l-6 4q-1 -40 -8.5 -65t-31.5 -48l-3 2q21 29 26 56.5t5 53t-1 53.5l13 -9h25q0 25 -1 49zM180 80
q0 -32 -11 -47.5t-30 -25.5l-2 4q18 15 23.5 28.5t6.5 27.5t0 29l19 -8zM204 29v52l-1 14l19 -9l-6 -9v-43q0 -9 8 -9h3q6 1 6.5 8.5t0.5 23.5h4q0 -11 2 -19.5t8 -10.5q-4 -8 -8.5 -10t-12.5 -2h-6q-17 0 -17 14zM32 60.5q-4 15.5 -16 36.5l2 3q16 -13 24.5 -23t1 -21
t-11.5 4.5zM90 167l16 -17h-37v-29h13l13 10l14 -17h-40v-53q10 13 25 47l15 -15l-9 -6q-13 -14 -31 -33v-11l35 9l1 -4q-51 -18 -80 -31l-11 17q17 1 42 8v72h-13q-12 0 -21 -2l-9 9h43v29h-8q-4 0 -10 -2l-6 5q-11 -14 -22 -24l-3 2q34 53 53 116l19 -10l-7 -5
q-4 -9 -6 -13q23 -8 33 -14t6 -18.5t-12 0t-28 28.5q-17 -37 -30 -58h43z" />
  </g>

</svg>
