<?xml version="1.0" standalone="no"?>
<!DOCTYPE svg PUBLIC "-//W3C//DTD SVG 1.1//EN" "http://www.w3.org/Graphics/SVG/1.1/DTD/svg11.dtd" >
<svg xmlns="http://www.w3.org/2000/svg" xmlns:xlink="http://www.w3.org/1999/xlink" version="1.1" viewBox="0 -36 256 256">
  <g transform="matrix(1 0 0 -1 0 220)">
   <path fill="currentColor"
d="M99 192h31v-7h-31v7zM98 174h33v-7h-33v7zM31 174h33v-7h-33v7zM34 192h30v-7h-30v7zM43 144h-13v-22h13v22zM75 122h13v22h-13v-22zM119 145v-23h17v23h-17zM43 92q-11 0 -20 -2l-10 9h114l10 10l15 -17h-37l16 -8l-8 -3l-5 -8q24 -9 20.5 -20.5t-9 -2t-13.5 17.5
q-4 -11 -21 -26l-2 2q15 23 20 48h-25v-56l62 6l1 -4q-68 -11 -121 -20q-2 -1 -10 -6l-10 16q32 3 65 6v58h-32zM120 152h15l6 8l11 -11l-6 -5v-14l1 -16l-11 -4v5h-17v-4l-11 -4l1 21v18l-1 13zM93 159l10 -8l-5 -5v-16l1 -16l-11 -4v5h-13v-4l-11 -3l1 12v20l-1 17l11 -6
h12zM53 130l1 -15l-11 -4v4h-13v-4l-11 -5l1 19v14l-1 19l11 -7h13l6 7l9 -9l-5 -5v-14zM46 68q24 -10 19 -22t-10 -0.5t-11 17.5q-12 -15 -26 -26l-2 3q19 24 26 49l16 -10l-8 -4zM63 225q-11 0 -20 -2l-10 9h82l11 10l14 -17h-52v-14h52l8 8l11 -13q-10 -5 -23 -23l-3 1
q4 11 7 20h-52v-9q0 -13 1 -26l-15 -7q1 15 1 30v12h-47q1 -16 -4.5 -20.5t-11.5 -2t1 10t10 27.5h4l1 -8h47v14h-12zM160 66v115q0 31 -1 55l15 -9h46l9 10l14 -14l-9 -6q-11 -25 -30 -65q48 -43 42.5 -73t-37.5 -37q-5 18 -29 23v6q44 -16 49.5 10.5t-33.5 69.5
q14 36 23 69h-46v-153q0 -27 1 -51l-15 -9q1 29 1 59z" />
  </g>

</svg>
