<?xml version="1.0" standalone="no"?>
<!DOCTYPE svg PUBLIC "-//W3C//DTD SVG 1.1//EN" "http://www.w3.org/Graphics/SVG/1.1/DTD/svg11.dtd" >
<svg xmlns="http://www.w3.org/2000/svg" xmlns:xlink="http://www.w3.org/1999/xlink" version="1.1" viewBox="0 -205 1024 1024">
  <g transform="matrix(1 0 0 -1 0 819)">
   <path fill="currentColor"
d="M220 716v-30q-1 -49 10 -52q12 -3 36 -6h48q31 0 44 4q11 3 16 22q3 15 4 28q0 12 6 52h16q4 -30 2 -54q0 -22 28 -40q-6 -25 -24 -38q-16 -13 -68 -16h-102q-30 3 -44 18q-13 14 -16 56v102l64 -24q6 -5 0 -10q-4 -6 -20 -12v0v0zM468 838l22 36l54 -34q8 -7 8 -14
q0 -6 -8 -8q-28 -12 -44 -26q-15 -15 -42 -48l-14 10l26 60h-354q-4 -53 -16 -76q-13 -22 -32 -28q-18 -7 -30 2q-13 8 -10 20q2 12 16 22q15 10 30 32q14 21 20 84h20v-32h354v0v0zM222 950l6 12q45 -13 66 -28q22 -12 26 -30t-4 -32q-6 -13 -24 -14q-18 0 -20 18
q-3 15 -14 34q-9 18 -36 40v0v0zM104 580l54 -26h266l24 28l44 -34q9 -6 10 -8q-1 -6 -28 -24v-130h10l32 42l42 -50q3 -3 4 -8q4 -9 -10 -8h-460q-25 0 -46 -8l-20 32h78v194v0v0zM150 386h72v144h-72v-144v0v0zM266 386h60v144h-60v-144v0v0zM370 386h58v144h-58v-144v0v0
zM86 286h326l32 44l54 -48q3 -3 4 -12q1 -10 -16 -10h-166v-145q3 -42 -12 -66q-14 -21 -64 -40q-7 31 -34 46q-28 15 -88 36l6 18q68 -16 98 -20q26 -3 38 2q10 6 8 48v121h-102q-18 0 -66 -8l-18 34v0v0zM148 756q0 -52 -6 -80q-4 -27 -16 -48q-10 -18 -28 -26
q-18 -7 -30 -4t-18 18q-5 12 6 24q8 9 26 18q17 9 26 28q9 18 24 72l16 -2v0v0zM246 798q39 -21 58 -36q18 -14 24 -34q5 -20 -4 -34q-9 -12 -24 -12t-18 22q-2 19 -10 38q-8 18 -34 48l8 8v0v0zM422 750q38 -25 62 -40q21 -16 30 -38q7 -22 -4 -38q-10 -15 -26 -12
q-16 0 -20 24q-3 21 -14 40l-36 54l8 10v0v0zM634 858h38q9 42 42 120l56 -34q9 -6 -2 -14q-15 -5 -30 -16q-16 -24 -40 -56h122l26 32l60 -40q9 -7 4 -16l-26 -18v-166l4 -66q-8 -18 -22 -24q-15 -6 -30 -6v34h-200v-84h256l36 44l56 -52q3 -5 4 -10q0 -7 -8 -8h-346v-82
h274l28 32l50 -38q9 -6 10 -12q0 -6 -36 -26q-6 -131 -14 -202q-9 -68 -32 -93q-24 -24 -56 -36q-10 31 -32 46t-92 36l6 18q89 -23 122 -20q30 5 36 61q5 56 14 208h-280q3 -13 -14 -22q-15 -7 -36 -8l6 92v466l46 -40v0v0zM636 614h198v96h-198v-96v0v0zM636 736h198v96
h-198v-96v0v0zM578 298h18q6 -46 6 -82q0 -37 -14 -62q-12 -22 -32 -25q-19 -4 -28 10q-9 10 -2 25q6 12 18 22q9 9 18 30q9 20 16 82v0v0zM636 298l10 8q38 -47 50 -70q12 -24 12 -42q0 -19 -12 -32q-13 -13 -28 -8q-16 3 -14 30q3 26 0 50q-3 21 -18 64v0v0zM786 346l12 8
q48 -33 66 -54q15 -22 18 -40q1 -19 -10 -32q-10 -13 -26 -10q-15 3 -14 28q-1 24 -10 46q-9 21 -36 54v0v0zM714 326l12 8q49 -42 62 -66q13 -22 14 -40q0 -19 -8 -32t-28 -10q-18 2 -18 34q1 29 -4 50q-6 17 -30 56v0v0z" />
  </g>

</svg>
