<?xml version="1.0" standalone="no"?>
<!DOCTYPE svg PUBLIC "-//W3C//DTD SVG 1.1//EN" "http://www.w3.org/Graphics/SVG/1.1/DTD/svg11.dtd" >
<svg xmlns="http://www.w3.org/2000/svg" xmlns:xlink="http://www.w3.org/1999/xlink" version="1.1" viewBox="0 -205 1024 1024">
  <g transform="matrix(1 0 0 -1 0 819)">
   <path fill="currentColor"
d="M580 726l60 -46h174l30 42l58 -44q6 -6 6 -12q0 -3 -30 -26v-519q0 -37 -14 -62q-16 -21 -62 -34q-9 32 -38 46q-28 14 -82 28l4 20q44 -12 76 -18t50 0q18 4 16 34v169h-220q-27 -99 -98 -169q-72 -70 -182 -116l-6 14q98 56 158 121q58 63 80 150q20 83 20 188v234v0v0
zM616 330h212v156h-200q3 -78 -12 -156v0v0v0zM628 512h200v142h-200v-142v0v0zM342 980l84 -30q6 -2 4 -10q-3 -6 -36 -24v-76h232v140l82 -34q6 -3 6 -8q-1 -3 -34 -20v-78h184l42 54l66 -64q3 -3 4 -8q-1 -7 -16 -8h-280v-52q-1 -14 -26 -22q-19 -6 -28 -6v80h-232v-44
q-3 -15 -24 -20q-7 -6 -28 -6v70h-202q-22 1 -58 -10l-30 36h290v140v0v0zM50 598h200v158l74 -32q7 -3 8 -6q6 -6 -6 -12l-28 -14v-94h114l38 44l56 -52q6 -3 6 -8q0 -13 -14 -10h-200v-142h70l34 36l44 -34q9 -6 10 -14q0 -3 -26 -24v-122l4 -78q-1 -15 -16 -26
q-15 -12 -38 -12v44h-210v-42q0 -18 -14 -31q-13 -12 -38 -12l4 117v238l56 -40h72v142h-120q-20 0 -64 -8l-16 34v0v0zM170 226h210v178h-210v-178v0v0z" />
  </g>

</svg>
