<?xml version="1.0" standalone="no"?>
<!DOCTYPE svg PUBLIC "-//W3C//DTD SVG 1.1//EN" "http://www.w3.org/Graphics/SVG/1.1/DTD/svg11.dtd" >
<svg xmlns="http://www.w3.org/2000/svg" xmlns:xlink="http://www.w3.org/1999/xlink" version="1.1" viewBox="0 -36 256 256">
  <g transform="matrix(1 0 0 -1 0 220)">
   <path fill="currentColor"
d="M27 183q23 -7 29.5 -11.5t6.5 -10t-4 -9.5t-9.5 6t-23.5 23zM73 141q-6 -7 -6 -13.5t0.5 -15.5t-6 -8.5t-9 5t0 12.5t-1.5 10.5t-31 9.5l1 4q20 -3 27.5 -3t16.5 5.5t41 39.5l3 -3q-30 -36 -36 -43zM117 190l16 -6h61l9 8l14 -11l-7 -5q-2 -20 -7 -29t-19 -11
q-5 7 -11.5 9.5t-18.5 4.5v5q28 -3 32.5 -2t6 4.5t4.5 19.5h-64v-41q0 -8 13 -8h61q6 0 7.5 5t2.5 20h4q1 -16 4.5 -20t6.5 -5q-8 -12 -24 -12h-68q-22 -2 -22 17v40q0 9 -1 17zM47 198q25 -5 30.5 -9.5t5 -9t-3 -8t-9 6t-24.5 18.5zM134 86v-26h54v26h-53h-1v0zM68 60h52
v26h-52v-26zM120 53h-52v-6l-15 -6v59l15 -7h52v25l22 -8l-8 -6v-11h53l8 8l14 -11l-6 -5v-32l-15 -4v4h-54v-25l67 3q-14 9 -28 16l2 2q52 -14 58 -22.5t2.5 -15t-11.5 1t-17 13.5q-172 -12 -182 -18l-10 16q35 1 105 4v25zM126 213h-38q0 -6 1 -15l-17 -6q1 11 1 21h-22
q-15 0 -26 -2l-9 9h57q0 17 -1 26l23 -7l-7 -6v-13h12l13 9zM129 221h34q0 14 -1 25l23 -8l-7 -6v-11h35l12 8l14 -15h-61q0 -5 1 -15l-17 -5q1 16 1 20h-11q-7 1 -15 -3z" />
  </g>

</svg>
