<?xml version="1.0" standalone="no"?>
<!DOCTYPE svg PUBLIC "-//W3C//DTD SVG 1.1//EN" "http://www.w3.org/Graphics/SVG/1.1/DTD/svg11.dtd" >
<svg xmlns="http://www.w3.org/2000/svg" xmlns:xlink="http://www.w3.org/1999/xlink" version="1.1" viewBox="0 -36 256 256">
  <g transform="matrix(1 0 0 -1 0 220)">
   <path fill="currentColor"
d="M141 169h23v37h-23v-37zM108 162v-2l-14 -5q1 18 1 32t-1 34l14 -8h21q11 16 16 34l18 -11l-8 -4q-10 -11 -19 -19h64l8 10l15 -12l-8 -5v-31q0 -9 1 -15l-15 -6v8h-93zM108 169h21v37h-21v-37zM176 169h25v37h-25v-37zM164 69q0 -16 1 -31l-15 -7q1 16 1 33v67
q-29 -2 -66 -4v5q53 5 82 10.5t45 11.5l11 -15q-14 -1 -27 -3t-32 -4v-63zM167 94q19 12 29 19.5t15 14.5l13 -15q-12 -3 -24 -8.5t-31 -13.5zM212 70.5q11 -5.5 9 -17.5t-10 -3t-17 16t-25 17l2 3q30 -10 41 -15.5zM81 82q23 12 36 22.5t16 16.5l12 -16q-9 -2 -23.5 -10.5
t-39.5 -16.5zM83 51q28 16 39.5 24t14.5 14l11 -16q-11 -3 -21.5 -8.5t-41.5 -17.5zM34 238q26 -16 30 -26.5t-3.5 -20.5t-10.5 6.5t-19 37.5zM48 153l8 10l15 -13l-8 -7v-83q15 -16 32 -22.5t62.5 -7.5t90.5 5v-5q-18 -4 -19 -16q-81 0 -107 4.5t-39.5 14t-20.5 17
t-18.5 -4t-19.5 -24.5l-15 13q13 11 40 26v86h-10q-9 0 -20 -3l-10 10h39z" />
  </g>

</svg>
