<?xml version="1.0" standalone="no"?>
<!DOCTYPE svg PUBLIC "-//W3C//DTD SVG 1.1//EN" "http://www.w3.org/Graphics/SVG/1.1/DTD/svg11.dtd" >
<svg xmlns="http://www.w3.org/2000/svg" xmlns:xlink="http://www.w3.org/1999/xlink" version="1.1" viewBox="0 -205 1024 1024">
  <g transform="matrix(1 0 0 -1 0 819)">
   <path fill="currentColor"
d="M794 690l32 36l56 -42q6 -4 6 -8q0 -6 -26 -26v-166l4 -72q1 -15 -16 -26q-16 -12 -38 -14v52h-48v-284q-1 -34 8 -41t30 -8h102q21 4 30 14q6 9 10 43q3 33 6 106h18q2 -57 4 -92q2 -33 32 -49q-9 -37 -30 -50q-21 -12 -54 -16h-118q-22 1 -40 4q-15 3 -32 18
q-16 15 -16 60v295h-72q1 -102 -24 -186q-24 -81 -92 -133q-66 -52 -180 -90l-6 12q114 58 166 106q48 46 70 125q18 77 16 166h-52v-24q0 -13 -20 -26q-18 -13 -36 -14l4 122v234l56 -26h250v0v0zM540 448h272v218h-272v-218v0v0zM732 968q69 -21 72 -24t0 -6t-24 -18
q33 -67 72 -106q37 -38 74 -58q36 -18 90 -30v-16q-24 0 -44 -6q-21 -4 -36 -26q-28 15 -56 40q-26 23 -64 74q-36 49 -84 176v0v0zM590 952l68 -36q12 -6 4 -14q-21 -6 -38 -14q-15 -9 -80 -84q-63 -75 -144 -138l-10 10q57 63 108 132q50 69 92 144v0v0zM350 790l34 46
l58 -52q3 -3 4 -8q0 -12 -12 -12h-354q-18 1 -42 -10l-24 36h336v0v0zM62 658h250l32 44l58 -50q2 -3 2 -8q0 -12 -12 -12h-240q-37 0 -68 -8l-22 34v0v0zM90 438l60 -44h152l28 34l58 -40q6 -6 6 -8q0 -6 -32 -30v-150l4 -81q1 -12 -16 -24q-15 -12 -36 -16v81h-174v-61
q0 -18 -18 -30q-18 -14 -36 -14l4 119v264v0v0zM140 186h174v182h-174v-182v0v0zM144 972l10 10q84 -55 102 -82q19 -27 18 -48q0 -22 -12 -32q-13 -11 -28 -6q-16 3 -20 22q-2 19 -10 44q-6 25 -60 92v0v0zM62 526h250l30 46l60 -52q2 -3 2 -8q0 -12 -12 -12h-254
q-34 0 -58 -8l-18 34v0v0z" />
  </g>

</svg>
