<?xml version="1.0" standalone="no"?>
<!DOCTYPE svg PUBLIC "-//W3C//DTD SVG 1.1//EN" "http://www.w3.org/Graphics/SVG/1.1/DTD/svg11.dtd" >
<svg xmlns="http://www.w3.org/2000/svg" xmlns:xlink="http://www.w3.org/1999/xlink" version="1.1" viewBox="0 -36 256 256">
  <g transform="matrix(1 0 0 -1 0 220)">
   <path fill="currentColor"
d="M242 84l4 -1q-5 -31 -5.5 -44.5t2.5 -30.5q-21 7 -34 30t-21.5 67.5t-3.5 121.5h-131q-13 0 -22 -3l-10 10h163l7 11l17 -14l-9 -7q-3 -29 -2.5 -62t6.5 -65t22 -56zM146 196q-18 -3 -40 -6v-42h36l10 11l18 -18h-64v-41h52l10 11l18 -18h-80v-55q0 -22 -24 -30
q-3 17 -33 22v4q23 -2 33 -1.5t10 8.5v52h-49q-13 0 -22 -3l-10 10h81v41h-34q-13 0 -22 -3l-10 10h66v40q-27 -4 -55 -4v6q35 3 64 10t43 15l14 -21z" />
  </g>

</svg>
