<?xml version="1.0" standalone="no"?>
<!DOCTYPE svg PUBLIC "-//W3C//DTD SVG 1.1//EN" "http://www.w3.org/Graphics/SVG/1.1/DTD/svg11.dtd" >
<svg xmlns="http://www.w3.org/2000/svg" xmlns:xlink="http://www.w3.org/1999/xlink" version="1.1" viewBox="0 -52 256 256">
  <g transform="matrix(1 0 0 -1 0 204)">
   <path fill="currentColor"
d="M105 201l14 -11q2 -2 2 -4t-2 -1q-8 2 -26 -3q-27 -7 -48 -9v-18h52l9 10l13 -12q1 -1 1 -2q-1 -1 -3 -1l-5 -2v-30l1 -16q1 -7 -11 -9v8h-58q-1 -12 -3 -22h54l8 10l12 -9q2 -1 2 -3q0 -1 -2 -2l-5 -3v-15q2 -21 -7 -28q-8 -7 -20 -8q0 4 -8 9q-3 1 -11 4q-7 2 -11 3
l1 3q17 -4 33 -6q13 1 13 17v23h-59q-6 -43 -37 -65l-2 2q32 38 32 128v9v27q-1 5 -7 10l2 3l13 -11q30 7 49 13q2 1 5 2q2 1 5 2q2 3 2 7h2zM250 29v-4q-17 0 -19 -7q-30 9 -53 29q-34 -25 -75 -34v3q36 13 69 39q-17 22 -27 51q-2 -1 -5 -4l-7 9h69l8 8l11 -11q2 -1 2 -2
t-2 -1q-7 -2 -9 -8t-14 -27q-1 -2 -4 -5q-2 -3 -9 -11q23 -22 65 -25zM143 196l13 -10h40l8 9l14 -11q1 -1 1 -3q-1 -1 -3 -1l-6 -4v-27q0 -13 3 -15q4 -2 10 -1t11 4h1q1 -1 5 -3q8 -5 5 -7q-12 -3 -24 -3q-11 -2 -18 4q-3 5 -4 17v36h-41v-11q3 -48 -40 -61l-1 3
q34 17 30 59v12q-1 6 -6 11zM249 214q1 -2 -2 -1q-6 -1 -12 -6l-3 -3t-4 -5q-6 -7 -9 -11l-3 1l14 26h-193q0 -3 -1 -9q1 4 -1 -2q-8 -28 -23 -19q-1 4 3 8q5 3 10 13q6 9 8 28h4v-14h192l8 7zM178 62q5 5 9 11q13 19 16 33h-53q13 -27 28 -44zM45 130h57v21h-57v-21z
M45 126v-10q-1 -7 -1 -11h58v21h-57zM106 254l1 2q26 -6 32 -18q4 -11 -5 -13q-4 0 -5 6q-1 7 -7 13q-5 6 -16 10z" />
  </g>

</svg>
