<?xml version="1.0" standalone="no"?>
<!DOCTYPE svg PUBLIC "-//W3C//DTD SVG 1.1//EN" "http://www.w3.org/Graphics/SVG/1.1/DTD/svg11.dtd" >
<svg xmlns="http://www.w3.org/2000/svg" xmlns:xlink="http://www.w3.org/1999/xlink" version="1.1" viewBox="0 -205 1024 1024">
  <g transform="matrix(1 0 0 -1 0 819)">
   <path fill="currentColor"
d="M770 986q62 -34 64 -40q1 -7 -10 -10q-9 -3 -14 -6q-6 -1 -26 -20q-21 -18 -72 -78h126l34 44l54 -50q14 -15 -4 -18h-238v-100h104l38 44l56 -52q10 -16 -4 -16h-194v-92h186l38 44l58 -52q6 -15 -8 -18h-510q-21 0 -68 -8l-16 34h270v92h-112q-19 0 -68 -8l-16 32h196
v100h-162q-21 1 -44 -10l-24 34h278q44 69 88 154v0v0zM490 970l8 12q63 -30 90 -48q26 -19 32 -40q4 -19 -6 -34q-10 -14 -28 -12q-18 3 -24 24q-5 20 -16 38q-9 15 -56 60v0v0zM566 488v-98h126v166l68 -20q16 -4 6 -14l-26 -12v-120h160l34 44l54 -52q16 -15 -10 -18
h-234q2 -48 32 -126q43 44 80 104l64 -34q3 -9 -2 -12q-4 -1 -20 -2q-14 0 -28 -18q-15 -15 -72 -78q24 -40 48 -59q23 -21 46 -36q21 -15 30 -10q7 6 14 36q7 26 20 105l20 -2q-6 -67 -8 -113q-3 -47 12 -64q13 -15 14 -24t-10 -12q-10 -3 -44 6q-33 7 -86 44
q-51 39 -90 99q-69 -62 -168 -105l-6 18q78 45 156 119q-33 56 -50 164h-130v-70l94 30l6 -18l-100 -42v-147q-3 -45 -24 -64q-21 -17 -44 -26q-7 36 -38 48q-31 13 -70 26l4 18q51 -14 88 -22q36 -6 36 30v117l-76 -28q-17 -13 -40 -34l-34 50l150 48v84h-110q-19 0 -44 -8
l-20 34h174v90q-60 -13 -138 -26l-2 16q135 39 222 84l50 -42q6 -9 -8 -12q-18 3 -38 -2l-38 -10v0v0zM790 540l6 8q48 -18 72 -36q22 -15 26 -36q4 -18 -4 -30t-22 -12q-12 0 -20 18q-6 14 -14 32q-6 16 -44 56v0v0zM158 792l-26 -78h80v262l78 -32q9 -6 10 -8q1 -5 -6 -10
l-34 -12v-200h66l30 46l56 -54q3 -5 4 -10q0 -9 -8 -8h-148v-212l134 66l12 -14l-146 -88v-286l4 -97q0 -12 -20 -24q-18 -12 -36 -12l4 135v258q-53 -31 -76 -52q-24 -18 -48 -50l-50 56l174 86v234h-90q-28 -89 -70 -172l-18 4q27 87 52 184q21 96 34 168q75 -30 76 -36
q1 -7 -4 -10q-4 -1 -16 -8t-18 -26v0v0z" />
  </g>

</svg>
