<?xml version="1.0" standalone="no"?>
<!DOCTYPE svg PUBLIC "-//W3C//DTD SVG 1.1//EN" "http://www.w3.org/Graphics/SVG/1.1/DTD/svg11.dtd" >
<svg xmlns="http://www.w3.org/2000/svg" xmlns:xlink="http://www.w3.org/1999/xlink" version="1.1" viewBox="0 -205 1024 1024">
  <g transform="matrix(1 0 0 -1 0 819)">
   <path fill="currentColor"
d="M832 554l18 34l62 -38q6 -5 6 -10q0 -6 -6 -8l-24 -16v-144h34l32 38l46 -48q3 -3 4 -6q1 -10 -10 -10h-560q-20 0 -52 -8l-16 34h468v156h-336l-32 -32l-54 52l32 24v294l78 -30q8 -6 2 -14l-28 -10v-258h336v0v0zM594 956l58 -34h174l32 36l50 -38q12 -6 12 -14
q0 -6 -30 -24v-128l4 -84q0 -13 -20 -28q-18 -15 -36 -14v48h-192v-28q0 -14 -18 -28q-18 -13 -38 -14l4 100v250v0v0zM646 704h192v190h-192v-190v0v0zM520 154q-65 -53 -202 -129l-8 16q88 61 164 131t104 110q66 -48 64 -56q0 -10 -12 -10q-10 1 -28 -4q-17 -5 -82 -58v0
v0zM752 270q68 -31 128 -68q57 -38 84 -67q25 -30 20 -54q-3 -24 -26 -30q-22 -3 -34 24q-13 28 -56 75q-41 45 -124 106l8 14v0v0zM258 942q5 -3 8 -6q1 -10 -16 -16q-18 -7 -26 -50q-9 -43 -24 -136h102l30 42l56 -36q13 -9 12 -12q0 -7 -32 -28q-24 -180 -48 -272
q-21 -93 -48 -150q53 -30 76 -56q23 -25 28 -46q5 -20 -4 -34q-10 -13 -26 -11q-16 3 -26 23q-9 20 -20 38q-9 15 -48 52q-48 -67 -102 -117t-116 -94l-10 14q50 46 104 105q53 60 88 114q-33 27 -120 76q25 150 50 366h-52q-21 0 -48 -6l-16 32h120q15 111 28 240l80 -32v0
v0zM234 298q23 66 44 162q20 95 38 248h-120q-28 -190 -58 -358q42 -22 96 -52v0v0z" />
  </g>

</svg>
