<?xml version="1.0" standalone="no"?>
<!DOCTYPE svg PUBLIC "-//W3C//DTD SVG 1.1//EN" "http://www.w3.org/Graphics/SVG/1.1/DTD/svg11.dtd" >
<svg xmlns="http://www.w3.org/2000/svg" xmlns:xlink="http://www.w3.org/1999/xlink" version="1.1" viewBox="0 -339 2048 2048">
  <g transform="matrix(1 0 0 -1 0 1709)">
   <path fill="currentColor"
d="M1070 744q70 -45 110 -76q72 -57 110 -111q36 -50 36 -95q0 -30 -18 -53q-14 -18 -33 -18q-13 0 -25 10q-13 10 -18 24q-5 11 -13 36q-9 30 -31 82q-20 47 -59 96q-24 30 -68 68q-26 -76 -50 -123q-41 -82 -95 -146q-53 -63 -142 -134q-34 -27 -96 -68l-22 31
q35 28 53.5 44t41.5 41q82 88 129 167q59 99 86 208q25 98 32 217q10 171 10 180l1 89q1 53 -3 122q-1 21 -5 38l109 -24q60 -13 73 -23t13 -22q0 -11 -10 -21q-12 -13 -40 -21l-38 -11q-3 -133 -6 -186q-3 -68 -13 -180q59 92 80 129q28 50 58 122l112 -61q21 -12 29 -17
q13 -10 13 -26q0 -11 -6 -18q-5 -6 -11 -8q-10 -2 -25 -1l-47 2q-57 -56 -100 -94q-37 -33 -109 -91q-6 -40 -13 -78zM792 1121q61 -69 95 -123q57 -88 57 -157q0 -24 -12 -44q-9 -14 -25 -21q-8 -3 -14 -3q-9 0 -18 8q-14 12 -20 38q-1 6 -7 52q-8 63 -31 124
q-17 43 -52 102zM1391 1498h-394q-101 0 -171 -5q-10 -1 -21 -2l-38 88q29 -8 52 -12q73 -12 178 -12h393v57v56q0 27 -4 142q-2 40 -4 121l158 -32q53 -11 53 -35q0 -9 -6 -16q-9 -12 -25 -17l-71 -26q0 -25 -3 -137v-55q0 -31 1 -58h234l99 100l120 -107q10 -9 11.5 -10.5
t3.5 -4.5q2 -6 2 -10q0 -9 -7 -16q-7 -9 -20 -9h-442l2 -28q3 -79 12 -201q12 -185 20 -249q15 -125 38 -221q4 -17 17 -69l6 -22q33 75 56 143q34 104 54 180q25 101 43 219l145 -45q17 -6 29 -17q6 -6 6 -15q0 -8 -10 -17t-22 -11l-56 -9q-30 -123 -71 -241
q-52 -150 -136 -305q27 -69 48 -113q49 -106 100 -170q12 -14 26 -22q5 -3 10 -3q15 0 27 39q14 45 48 172l20 80l39 -11q-37 -190 -37 -293q0 -49 11 -88l16 -53q4 -14 4 -30q0 -38 -36 -38q-26 0 -56 19q-47 31 -106 96q-67 74 -118 173q-25 47 -63 136q-47 -65 -84 -107
q-101 -117 -256 -222q-48 -33 -122 -78l-23 38q64 43 107 77q127 100 234 231q37 46 66 90q15 24 42 67q-29 92 -40.5 134.5t-21.5 91.5q-28 140 -51 409q-9 98 -15 261zM1660 1905q30 -15 44 -23q52 -26 75 -42q80 -54 80 -106q0 -26 -19 -43q-14 -12 -31 -12q-23 0 -35 18
q-3 4 -8 24l-7 22q-8 30 -42 68q-19 22 -76 71zM473 1437h110l80 81l114 -86q17 -13 17 -26q0 -9 -6 -16q-8 -10 -21 -10h-294v-430q100 32 120 39q101 38 128 48l14 -36q-67 -36 -126 -64q-46 -21 -136 -61v-645q0 -61 -26 -97q-23 -31 -72 -56q-17 -8 -32 -12
q-8 -3 -25 -6q-6 37 -14 55q-12 28 -42 43q-31 16 -89 27q-23 5 -61 12l8 45q52 -8 127 -19q60 -8 74 -8q29 0 42 12q15 15 15 46v564l-27 -10q-113 -41 -152 -56l-6 -46q-2 -19 -10 -27q-5 -5 -10 -5q-16 0 -38 32l-77 115q150 32 320 80v460h-69q-54 0 -161 -6
q-16 -1 -31 -3l-38 87q31 -6 52 -10q72 -11 178 -11h68v325q0 39 -3 122q-1 21 -4 38l109 -24q59 -13 72 -24q13 -10 13 -22q0 -10 -10 -21q-12 -13 -39 -21l-42 -11v-362z" />
  </g>

</svg>
