<?xml version="1.0" standalone="no"?>
<!DOCTYPE svg PUBLIC "-//W3C//DTD SVG 1.1//EN" "http://www.w3.org/Graphics/SVG/1.1/DTD/svg11.dtd" >
<svg xmlns="http://www.w3.org/2000/svg" xmlns:xlink="http://www.w3.org/1999/xlink" version="1.1" viewBox="0 -36 256 256">
  <g transform="matrix(1 0 0 -1 0 220)">
   <path fill="currentColor"
d="M63.5 209q-2.5 15 -13.5 35l2 2q19 -14 24 -23t-2.5 -19t-10 5zM83 195l12 -14l-7 -5q-8 -20 -20 -40v-17l5 -2q10 12 19 34l13 -12q-10 -3 -28 -24q13 -5 19 -12.5t2 -17.5t-10 3.5t-20 26.5v-100l-12 -6v109q-18 -26 -46 -45l-2 3q18 17 36 42.5t31 60.5h-28
q-10 0 -19 -2l-9 9h55zM143 203q11 -14 28 -26q15 12 31 27h-57zM159.5 226q-3.5 -5 -11.5 -15h54l11 9l14 -19l-12 -3q-19 -17 -35 -28q31 -21 67 -20v-4q-12 -2 -15 -13q-30 6 -61 30q-27 -19 -69 -30l-1 5q33 11 62 33q-14 13 -24 28q-14 -14 -31 -25l-2 3q32 30 44 70
l21 -11q-8 -5 -11.5 -10zM164 150l22 -12l-7 -7v-9h25l12 10l16 -17h-53v-26h24l13 12l15 -19h-52v-25h40l14 12l15 -19h-69q0 -16 1 -37l-16 -6q1 19 1 43h-34q-11 0 -20 -2l-9 9h63v25h-17q-10 0 -19 -2l-10 9h46v26h-24q-10 0 -20 -2l-9 9h53q0 8 -1 28z" />
  </g>

</svg>
