<?xml version="1.0" standalone="no"?>
<!DOCTYPE svg PUBLIC "-//W3C//DTD SVG 1.1//EN" "http://www.w3.org/Graphics/SVG/1.1/DTD/svg11.dtd" >
<svg xmlns="http://www.w3.org/2000/svg" xmlns:xlink="http://www.w3.org/1999/xlink" version="1.1" viewBox="0 -205 1024 1024">
  <g transform="matrix(1 0 0 -1 0 819)">
   <path fill="currentColor"
d="M192 724h264l28 36l52 -44l4 -6q0 -10 -8 -10h-268q-20 0 -52 -8l-20 32v0v0zM100 616l46 -26h122l28 32l44 -34q9 -3 12 -12q-1 -6 -28 -24v-421q4 -43 -10 -62q-13 -16 -46 -30q-5 24 -22 36q-18 10 -56 22l4 18q38 -9 62 -12q24 0 22 26v155h-132v-134l4 -81
q0 -11 -20 -26q-19 -14 -34 -14l4 125v462v0v0zM146 308h132v118h-132v-118v0v0zM146 450h132v114h-132v-114v0v0zM402 564l66 -30q6 -4 6 -8q4 -6 -28 -20v-210l4 -94q-3 -15 -18 -24q-16 -12 -34 -12l4 118v280v0v0zM534 640l68 -28q16 -9 0 -18l-24 -10v-459
q2 -45 -16 -66q-19 -19 -52 -32q-6 32 -30 42q-24 12 -66 24l4 16q72 -15 94 -12q21 3 22 20v523v0v0zM340 1002q72 -30 72 -36q0 -3 -2 -6q-1 -3 -10 -6q-9 -1 -18 -8q-7 -6 -34 -32q183 -69 222 -96q40 -27 50 -48q9 -18 4 -36q-6 -18 -26 -20q-18 -2 -36 24
q-15 27 -74 72q-58 46 -154 86q-61 -81 -140 -150q-79 -66 -152 -108l-8 12q75 57 166 156q89 98 140 196v0v0zM696 842l86 -34q12 -9 0 -18l-36 -12v-366l4 -98q-2 -16 -22 -28q-21 -12 -36 -12l4 134v434v0v0zM868 974l88 -38q9 -10 -2 -16l-38 -14v-742q3 -67 -20 -95
q-24 -27 -62 -36q-16 32 -40 46q-22 16 -110 40l4 20q93 -18 120 -24q27 -5 42 4q18 10 18 35v820v0v0z" />
  </g>

</svg>
