<?xml version="1.0" standalone="no"?>
<!DOCTYPE svg PUBLIC "-//W3C//DTD SVG 1.1//EN" "http://www.w3.org/Graphics/SVG/1.1/DTD/svg11.dtd" >
<svg xmlns="http://www.w3.org/2000/svg" xmlns:xlink="http://www.w3.org/1999/xlink" version="1.1" viewBox="0 -205 1024 1024">
  <g transform="matrix(1 0 0 -1 0 819)">
   <path fill="currentColor"
d="M364 806h148v156l82 -26q6 -3 6 -6q7 -3 -36 -24v-100h190v154l84 -26q6 -3 4 -12q0 -3 -36 -18v-98h82l34 48l60 -56q2 -3 2 -8q0 -10 -12 -10h-166v-42l4 -48q-6 -15 -26 -26q-20 -10 -34 -10l4 80v46h-190v-52l4 -44q-1 -12 -22 -24t-38 -12l4 76v56h-64q-18 0 -66 -8
l-18 34v0v0zM358 552h206q34 62 68 172q75 -34 78 -40q3 -7 -2 -10q-4 0 -14 -6t-20 -14q-9 -6 -54 -102h260l32 42l60 -50q2 -3 2 -6q1 -12 -10 -12h-356q-31 -66 -76 -138h278l36 34l42 -36q12 -6 12 -14q-1 -4 -28 -26v-190l4 -73q1 -12 -22 -22q-21 -9 -32 -10v70h-280
v-44q1 -12 -16 -24q-16 -11 -38 -14l4 86v209q-60 -87 -162 -168l-10 12q78 81 144 184q66 101 90 164h-112q-22 0 -70 -8l-14 34v0v0zM542 146h280v216h-280v-216v0v0zM40 750h154v232l86 -32q9 -5 4 -10q-4 -5 -40 -22v-168h60l34 40l54 -52q8 -14 -10 -16h-138v-186
l120 68l10 -16l-130 -90v-371q2 -36 -16 -60q-18 -23 -62 -38q-4 34 -34 50q-29 15 -82 30l4 18q96 -24 118 -18q21 6 22 31v324q-51 -33 -72 -54q-21 -18 -32 -42l-52 54l156 92v208h-78q-34 -1 -52 -10l-24 38v0v0z" />
  </g>

</svg>
