<?xml version="1.0" standalone="no"?>
<!DOCTYPE svg PUBLIC "-//W3C//DTD SVG 1.1//EN" "http://www.w3.org/Graphics/SVG/1.1/DTD/svg11.dtd" >
<svg xmlns="http://www.w3.org/2000/svg" xmlns:xlink="http://www.w3.org/1999/xlink" version="1.1" viewBox="0 -205 1024 1024">
  <g transform="matrix(1 0 0 -1 0 819)">
   <path fill="currentColor"
d="M694 960q70 -30 86 -38q4 -9 -6 -14l-30 -14v-336q100 108 152 196l66 -50q3 -9 -2 -12q-6 -1 -20 -4q-15 0 -60 -42q-46 -39 -136 -120v-389q0 -32 12 -34q12 -3 28 -4h68q27 3 40 6q14 4 20 47q5 45 10 156h22q3 -108 12 -140q9 -33 30 -45q-6 -24 -26 -42
q-19 -18 -34 -22q-15 -3 -42 -6h-104q-27 0 -48 6q-18 4 -30 22q-9 21 -8 54v825v0v0zM462 948l82 -34q3 -3 4 -8q3 -4 -8 -10l-26 -12v-284h70l30 40l54 -48q2 -3 2 -8q1 -7 -4 -8h-152v-439l142 97l10 -16q-108 -94 -132 -117q-21 -23 -44 -62l-60 50q17 13 32 34v825v0v0
zM306 912q8 -6 -4 -14q-21 -3 -30 -12q-10 -7 -52 -80q-42 -72 -102 -162l148 4q42 70 72 134l68 -42q6 -13 -14 -14q-13 -7 -26 -16q-12 -6 -68 -96q-57 -89 -152 -202l214 10q-18 48 -54 106l12 12q57 -58 82 -88q22 -31 26 -58q4 -25 -6 -38q-12 -13 -24 -14t-18 8
q-7 8 -8 20q0 9 -6 30q-84 -6 -150 -18q-67 -13 -104 -38l-42 66q28 3 56 16q54 68 132 200q-75 -9 -108 -18q-34 -6 -64 -24l-34 64q24 5 40 14q14 6 68 114q51 107 78 182l70 -46v0v0zM120 304h22q9 -82 0 -142q-7 -58 -28 -83q-18 -24 -36 -28q-16 -4 -28 4q-12 9 -12 24
q-1 15 20 32q17 17 32 43q11 27 20 54q6 27 10 96v0v0zM208 302l16 6q39 -72 52 -114q10 -39 6 -67q-6 -27 -24 -34q-18 -5 -30 4q-14 10 -6 38q9 26 4 75q-6 46 -18 92v0v0zM300 326l14 8q69 -79 84 -116q16 -37 12 -62q-3 -23 -20 -31q-15 -6 -30 2q-16 9 -10 35
q4 27 -10 72q-16 46 -40 92v0v0z" />
  </g>

</svg>
