<?xml version="1.0" standalone="no"?>
<!DOCTYPE svg PUBLIC "-//W3C//DTD SVG 1.1//EN" "http://www.w3.org/Graphics/SVG/1.1/DTD/svg11.dtd" >
<svg xmlns="http://www.w3.org/2000/svg" xmlns:xlink="http://www.w3.org/1999/xlink" version="1.1" viewBox="0 -205 1024 1024">
  <g transform="matrix(1 0 0 -1 0 819)">
   <path fill="currentColor"
d="M750 974q9 -3 4 -12q0 -3 -6 -6l-24 -10v-46h152l32 42l58 -50q3 -3 4 -6q0 -10 -12 -10h-234v-80h118l34 38l52 -46q3 -3 4 -6q2 -10 -10 -10h-378q-16 0 -52 -8l-16 32h200v80h-170q-21 0 -54 -8l-16 32h240v98l74 -24v0v0zM510 628h272l30 34l46 -40q6 -3 6 -8
q3 -10 -8 -10h-134v-70h134l26 38l52 -42q3 -4 4 -8q3 -12 -12 -12h-396q-19 0 -50 -8l-24 32h218v70h-96q-19 0 -44 -8l-24 32v0v0zM918 708l32 32l42 -42q15 -9 16 -18q0 -6 -14 -8q-30 -3 -54 -30q-21 -25 -36 -44l-16 10l32 76h-414q-25 0 -46 -8l-26 32h484v0v0z
M918 442l32 34l46 -40q3 -3 4 -6q0 -12 -12 -12h-472q-21 0 -68 -8l-16 32h486v0v0zM706 318h150v82l66 -22q13 -6 2 -14l-22 -10v-36h28l30 26l40 -36q3 -4 4 -4q0 -10 -12 -10h-90v-193q-4 -27 -20 -42q-15 -12 -42 -24q-16 33 -40 44q-23 9 -70 24l4 18q81 -19 102 -14
q22 3 20 20v167h-86q-21 0 -44 -8l-20 32v0v0zM716 244l8 8q48 -19 66 -38q16 -17 14 -34q-3 -16 -12 -22q-7 -6 -20 -2q-12 0 -14 16q-2 12 -10 30q-6 18 -32 42v0v0zM464 362l48 -30h102l22 30l50 -36q7 -4 8 -10q0 -4 -24 -20v-116l2 -51q-1 -6 -16 -18q-16 -9 -34 -10
v49h-110v-29q0 -8 -20 -16q-19 -10 -32 -8l4 77v188v0v0zM512 174h110v134h-110v-134v0v0zM260 956q6 -6 4 -12q0 -4 -18 -10q-12 -6 -20 -24q-9 -15 -32 -62h118l28 32l54 -44q7 -6 2 -12q0 -3 -30 -18q-20 -15 -34 -36q-12 -21 -54 -74h70l24 28l48 -38q6 -4 6 -8
q0 -6 -26 -24v-246l4 -68q0 -12 -18 -24q-16 -10 -34 -10v38h-212v-16q0 -12 -18 -26q-19 -12 -34 -12l4 104v282q-27 -45 -60 -86l-12 12q45 84 96 186q48 99 78 198l66 -30v0v0zM140 370h82v144h-82v-144v0v0zM270 370h82v144h-82v-144v0v0zM140 540h82v130h-82v-130v0v0z
M270 670v-130h82v130h-82v0v0zM138 696h112l64 126h-132q-34 -52 -62 -106l18 -20v0v0zM96 270h20q0 -69 4 -110q1 -38 -16 -63q-16 -23 -34 -26q-19 -3 -28 6q-11 9 -6 24q3 15 18 30q14 14 26 37q9 21 16 102v0v0zM162 272l14 8q33 -51 42 -80q9 -27 10 -50q1 -19 -12 -35
q-13 -13 -28 -6q-17 9 -12 32q3 22 4 53q0 27 -18 78v0v0zM248 282l10 10q32 -36 50 -68q15 -30 18 -54q3 -23 -8 -35q-13 -13 -28 -8q-15 4 -14 35q0 32 -6 56q-4 24 -22 64v0v0zM336 280l10 10q48 -36 66 -66q19 -29 20 -52q1 -20 -10 -31q-10 -9 -26 -4q-15 3 -18 35
q-3 30 -12 54t-30 54v0v0z" />
  </g>

</svg>
