<?xml version="1.0" standalone="no"?>
<!DOCTYPE svg PUBLIC "-//W3C//DTD SVG 1.1//EN" "http://www.w3.org/Graphics/SVG/1.1/DTD/svg11.dtd" >
<svg xmlns="http://www.w3.org/2000/svg" xmlns:xlink="http://www.w3.org/1999/xlink" version="1.1" viewBox="0 -200 999 1000">
  <g transform="matrix(1 0 0 -1 0 800)">
   <path fill="currentColor"
d="M310 54v20q0 13 -1.5 25.5t-7.5 24.5q-20 -17 -48 -35.5t-55.5 -35.5t-50 -31t-29.5 -21l-75 46l93 34v802l67 -37q29 14 56 28t53.5 31t54 40t57.5 55l43 -77l-38 -15l-60 -32q-6 -72 -6 -133q0 -30 0.5 -59.5t0.5 -59.5v-37t-1 -39h67l57 46l68 -70h-190
q3 -110 13.5 -175t24 -99.5t29 -45.5t29.5 -12q6 0 11.5 6t13 22t17 45t23.5 75l14 -6q-12 -48 -20 -78.5t-12.5 -50t-6 -30.5t-1.5 -20q0 -12 3.5 -27t3.5 -30q0 -24 -18 -24h-4q-27 18 -49.5 34.5t-40.5 37.5t-32 50.5t-23.5 73.5t-16 106t-9.5 148h-123v-421l104 36
q-8 17 -25 39t-30 33l4 7q27 -11 51 -27.5t42 -35t28.5 -39t10.5 -38.5q-21 -47 -40 -47q-12 0 -26 23zM310 857l-105 -34l-14 -48v-227h120q0 61 -1 114t-1 108v42.5t1 44.5zM458 14q54 51 91 119t60.5 155t35 193t14.5 233v56v40v32t-2 34h-54l-75 -14l-25 37h342l40 50
l60 -53l-37 -44q1 -67 1.5 -124t0.5 -111q0 -164 -6.5 -274.5t-23 -181.5t-45 -108.5t-72.5 -54.5q1 1 1 7v8q0 18 -7.5 30.5t-22 22t-35.5 18t-49 19.5l4 10q23 -8 44 -12t41 -5h4q25 0 42 12t27.5 30.5t16 41t8.5 44.5q5 39 8.5 76.5t6 76t3.5 80t1 89.5v61t-1 71.5t-2 88
t-3 110.5h-134q0 -101 -3.5 -189.5t-10.5 -162t-16.5 -130t-21.5 -92.5q-18 -55 -34.5 -97.5t-37.5 -77.5t-51 -66t-75 -62z" />
  </g>

</svg>
