<?xml version="1.0" standalone="no"?>
<!DOCTYPE svg PUBLIC "-//W3C//DTD SVG 1.1//EN" "http://www.w3.org/Graphics/SVG/1.1/DTD/svg11.dtd" >
<svg xmlns="http://www.w3.org/2000/svg" xmlns:xlink="http://www.w3.org/1999/xlink" version="1.1" viewBox="0 -205 1024 1024">
  <g transform="matrix(1 0 0 -1 0 819)">
   <path fill="currentColor"
d="M356 976l88 -30q6 -2 4 -10q0 -4 -38 -22v-74h216v134l88 -30q13 -3 8 -12q-6 -6 -42 -24v-68h170l40 52l64 -64q3 -3 4 -8q-1 -7 -16 -8h-262v-100q-1 -14 -22 -22q-22 -6 -32 -6v128h-216v-100q-2 -14 -22 -22q-7 -6 -32 -6v128h-144q-22 0 -70 -8l-18 36h232v136v0v0z
M178 642h588l40 52l66 -60q3 -3 4 -8q0 -12 -12 -12h-312v-172h320l40 56l68 -66q3 -4 4 -10q0 -10 -12 -10h-420v-279q0 -47 -20 -70q-21 -23 -68 -34q-10 28 -28 46q-17 15 -112 42l4 20q82 -17 116 -20q32 0 44 8q12 10 10 43v244h-366q-20 0 -64 -8l-20 38h450v172h-236
q-21 0 -68 -8l-16 36v0v0z" />
  </g>

</svg>
