<?xml version="1.0" standalone="no"?>
<!DOCTYPE svg PUBLIC "-//W3C//DTD SVG 1.1//EN" "http://www.w3.org/Graphics/SVG/1.1/DTD/svg11.dtd" >
<svg xmlns="http://www.w3.org/2000/svg" xmlns:xlink="http://www.w3.org/1999/xlink" version="1.1" viewBox="0 -36 256 256">
  <g transform="matrix(1 0 0 -1 0 220)">
   <path fill="currentColor"
d="M157 63v112q0 30 -1 54l15 -10h48l8 10l15 -15l-7 -5q-12 -23 -34 -62q50 -35 44 -64t-39 -36q-5 16 -29 22v5q45 -16 52 8.5t-37 62.5q17 37 26 67h-47v-147q0 -27 1 -51l-16 -7q1 27 1 56zM88 208h35l13 12l16 -19h-64v-26h20l12 13l18 -20h-84q-11 -1 -21 -3l-9 10h50
v26h-31q-11 0 -20 -2l-10 9h61v21q0 8 -1 18l24 -10l-9 -7v-22zM19 34v100q0 6 -1 24l14 -9h94l8 10l13 -12l-7 -7v-102q1 -25 -18 -30q-3 15 -28 19v4q16 -2 24.5 -2t8.5 7v106h-95v-127l-14 -7q1 23 1 26zM86 129.5q3 -5.5 -1 -12.5t-8.5 3t-13.5 19l1 2q19 -6 22 -11.5z
M76 92h24l8 7l11 -9l-6 -4q-3 -31 -6.5 -37t-7.5 -9t-12 -6q0 12 -17 15v4q16 -3 21 -2t6.5 10t2.5 24h-25q-8 -32 -40 -52l-2 3q29 30 33 70h-7q-9 -1 -16 -2l-8 9h71l7 9l13 -16h-47q-2 -7 -3 -14z" />
  </g>

</svg>
