<?xml version="1.0" standalone="no"?>
<!DOCTYPE svg PUBLIC "-//W3C//DTD SVG 1.1//EN" "http://www.w3.org/Graphics/SVG/1.1/DTD/svg11.dtd" >
<svg xmlns="http://www.w3.org/2000/svg" xmlns:xlink="http://www.w3.org/1999/xlink" version="1.1" viewBox="0 -36 256 256">
  <g transform="matrix(1 0 0 -1 0 220)">
   <path fill="currentColor"
d="M97 236l11 8l14 -15h-74q-11 0 -20 -2l-10 9h79zM50 201h42v13h-42v-13zM38 226l14 -5h39l5 6l14 -8l-6 -5v-19l-12 -5v4h-42v-2l-12 -4v38zM78 157h6l7 6l12 -13h-27v-21l-12 -5v26q-10 0 -18 -2l-9 9h36q8 15 9 22l14 -7q-6 -2 -18 -15zM50 177q13 -6 15.5 -10t-2.5 -8
t-6.5 3t-8.5 14zM21 155.5q0 16.5 -1 34.5l16 -6h72l5 8l12 -8l-5 -7v-38q0 -8 -4.5 -11.5t-10.5 -5.5q-1 8 -17 13l1 3q19 -3 19 1v38h-74v-51l-14 -6q1 19 1 35.5zM36 102l-9 9h56q0 7 -1 16l20 -7l-5 -4v-5h61q0 7 -1 16l22 -6l-7 -4v-6h33l13 11l17 -18h-63q0 -7 1 -18
l-15 -2v3h-23v-8h51l8 8l14 -11l-7 -6q0 -10 1 -20l-14 -3v4h-53v-11h80l13 10l17 -17h-110q0 -10 1 -21l-16 -4q1 13 1 25h-77q-10 0 -19 -2l-10 9h106v11h-51v-2l-14 -3q1 11 1 20.5t-1 19.5l17 -7h48v8h-24v-2l-15 -2q1 13 1 21h-17q-19 0 -30 -2zM97 94h61v10h-61v-10z
M135 58h53v14h-53v-14zM70 58h51v14h-51v-14zM211 235l11 9l17 -16h-82q-18 0 -19 -2l-10 9h83zM143 183q0 20 -1 36l13 -5h52l7 8l12 -9l-5 -6v-28q0 -12 1 -28l-14 -3v5h-53v-3l-13 -3q1 16 1 36zM155 188h53v19h-53v-19zM155 160h53v21h-53v-21zM217 138l12 10l16 -17
h-95q-12 0 -17 -2l-9 9h93z" />
  </g>

</svg>
