<?xml version="1.0" standalone="no"?>
<!DOCTYPE svg PUBLIC "-//W3C//DTD SVG 1.1//EN" "http://www.w3.org/Graphics/SVG/1.1/DTD/svg11.dtd" >
<svg xmlns="http://www.w3.org/2000/svg" xmlns:xlink="http://www.w3.org/1999/xlink" version="1.1" viewBox="0 -154 1024 1024">
  <g transform="matrix(1 0 0 -1 0 870)">
   <path fill="currentColor"
d="M937 504q13 -12 1 -14q-21 -2 -28 -14q-7 -13 -19 -52t-58 -122q-26 -47 -59 -84q24 -21 49 -40q48 -38 87 -53t95 -24v-14q-39 1 -55 -2q-18 -4 -27 -28q-71 30 -146 96q-18 15 -35 32q-11 -10 -23 -19q-69 -51 -153 -87q-85 -36 -171 -42v12q75 24 146 58q70 34 136 83
q18 13 34 29q-35 39 -62 86q-49 83 -78 193q-21 0 -38 -12l-33 32h351l28 36zM139 424q115 -60 169 -98l17 -13q38 59 78 183h-270q-21 0 -38 -12l-33 32h329l32 36l52 -44q16 -15 1 -20q-22 -1 -28 -13q-5 -12 -17 -47q-12 -34 -40 -91q-15 -29 -30 -53l43 -42
q42 -45 54 -81t-8 -46q-21 -9 -40 30q-21 41 -49 77l-24 27l-8 -10q-35 -41 -104 -99q-71 -57 -200 -102l-4 14q75 40 126 75q50 36 90 75q32 32 67 79l-21 20q-50 42 -152 109zM734 257l6 -7q27 30 49 68q45 78 72 180h-267q41 -92 69 -144q30 -55 71 -97zM143 883h16
q0 -17 -1 -35h704l46 46l64 -69q3 -12 -10 -7q-29 -3 -41 -8q-14 -6 -26 -18q-16 -12 -72 -68l-12 10l61 93h-715l-3 -23q-8 -45 -20 -71q-12 -27 -34 -36q-20 -11 -32 6q-15 15 6 35q17 18 39 46q18 27 30 99zM329 783l85 -55q14 -12 0 -14q-30 4 -64 -18q-31 -24 -102 -67
q-62 -40 -194 -79l-2 14q144 66 207 115q67 51 67 68t-8 26zM566 750l7 11q121 -29 184 -59q61 -31 91 -58q27 -29 29 -53q0 -26 -19 -32q-19 -7 -42 32q-24 39 -73 75q-49 34 -177 84zM392 989l4 13q75 -21 100 -37q22 -17 34 -35q13 -18 10 -41q-4 -21 -21 -23
q-16 -3 -22 18q-8 22 -26 49q-19 26 -79 56z" />
  </g>

</svg>
