<?xml version="1.0" standalone="no"?>
<!DOCTYPE svg PUBLIC "-//W3C//DTD SVG 1.1//EN" "http://www.w3.org/Graphics/SVG/1.1/DTD/svg11.dtd" >
<svg xmlns="http://www.w3.org/2000/svg" xmlns:xlink="http://www.w3.org/1999/xlink" version="1.1" viewBox="0 -339 2048 2048">
  <g transform="matrix(1 0 0 -1 0 1709)">
   <path fill="currentColor"
d="M460 938q-16 5 -20 8q-16 9 -38 38q-49 65 -114 119q-30 26 -74 54q-33 -20 -49 -30q-20 -11 -58 -28l-24 33q88 62 114 83q88 71 165 176q37 50 60 94q13 23 35 72l102 -36q54 -19 54 -41q0 -10 -10 -18q-9 -6 -36 -10l-34 -4l-32 -38h305l73 72l73 -53q28 -20 45 -42
q8 -10 8 -20t-10 -17q-21 -15 -90 -19q-15 -25 -23 -37q-42 -71 -61 -100t-44 -61q-59 -77 -133 -144q-18 -16 -48 -43q85 -15 199 -15h437l98 102l121 -107q13 -11 15 -16q2 -4 2 -10q0 -9 -7 -17q-8 -9 -20 -9h-395q-24 -145 -31 -181q-8 -41 -26 -107h618l99 102
l120 -107q13 -12 15 -17q2 -4 2 -9q0 -10 -6 -17q-8 -10 -21 -10l-846 -2q-18 -41 -30 -61.5t-33 -46.5q-72 -94 -148 -150q-124 -93 -345 -160q-71 -21 -154 -39q-23 -5 -115 -23l-12 43q145 36 203 54q208 66 348 172q55 42 90 82q27 32 56 80q14 22 30 51h-430
q-10 0 -132 -4q-34 -1 -59 -4l-39 88q52 -10 83 -14q61 -8 147 -8h455q26 89 37 143q9 42 23 145h-150q-142 -3 -192 -9l-28 64q-51 -40 -89 -65q-71 -47 -165 -89q-97 -42 -136 -57q-22 -8 -64 -19l-12 41q66 29 90 40q49 22 112 60q79 48 149 98zM506 974q56 51 103 101
q-22 3 -29 7q-16 9 -38 38q-67 90 -164 158q-39 -35 -69 -56q-22 -17 -61 -43q47 -18 67 -29q74 -39 89.5 -47.5t32.5 -20.5q55 -37 65 -62q4 -12 4 -31v-15zM410 1306q24 -9 40 -17q17 -8 56 -29t48 -26q82 -49 90 -83q2 -12 2 -34q89 116 153 236h-342q-25 -24 -47 -47z
M1267 1282q46 39 70 65q28 31 51 64q21 31 75 124l103 -71q33 -23 33 -41q0 -6 -5 -11q-11 -13 -30 -11q-3 0 -9 1l-46 8q-55 -49 -96 -81q-35 -26 -63 -43q-19 -12 -59 -34q49 -55 86 -89t96 -76q51 39 79 68q64 66 110 129q18 24 46 70l96 -66q36 -24 36 -44
q0 -11 -11 -18q-6 -3 -17 -5h-8l-60 7q-75 -63 -108 -87q-50 -36 -127 -79q47 -30 75 -45.5t63 -31.5q149 -69 333 -100v-35q-43 -2 -60.5 -4t-33.5 -9q-25 -10 -41 -27q-9 -10 -21 -30q-129 55 -213 101q-133 74 -230 164q-111 103 -190 238q-25 44 -62 121q-5 10 -40 85
l38 20q38 -70 68 -117q24 -38 72 -110zM1099 445q208 -50 332 -89q123 -38 231 -87q68 -30 104 -55q56 -37 74 -75q8 -17 8 -31q0 -21 -14 -35q-9 -9 -25 -14q-8 -2 -15 -2q-17 0 -41 13q-15 8 -77 55q-68 53 -159 107q-84 49 -169 83q-110 43 -190 70q-26 9 -74 23z
M669 1767h89l83 86l120 -90q17 -12 17 -27q0 -8 -5 -15q-9 -11 -22 -11h-277l12 -126q1 -4 1 -9q0 -9 -2 -13q-3 -6 -12 -11q-19 -12 -42 -12q-18 0 -28 8q-6 5 -8 25l-14 138h-325q-38 0 -98 -5q-18 -1 -51 -6l-39 86q123 -18 188 -18h319l-19 183l98 -14q65 -8 79 -22
q6 -6 6 -14q0 -7 -7 -14q-10 -12 -27 -19q-19 -7 -44 -14zM1401 1706l-19 -118q-5 -32 -9 -37q-14 -17 -46 -17q-24 0 -36 9q-7 6 -8 16v12l19 135h-48q-38 0 -98 -5q-18 -1 -51 -6l-39 86q123 -18 188 -18h56l26 185l138 -32q22 -6 34 -17q4 -4 4 -11q0 -13 -12 -22
q-10 -8 -25 -13q-22 -7 -52 -15l-12 -75h321l95 98l120 -102q9 -8 11 -10q6 -7 6 -16q0 -10 -6 -17q-8 -10 -21 -10h-536z" />
  </g>

</svg>
