<?xml version="1.0" standalone="no"?>
<!DOCTYPE svg PUBLIC "-//W3C//DTD SVG 1.1//EN" "http://www.w3.org/Graphics/SVG/1.1/DTD/svg11.dtd" >
<svg xmlns="http://www.w3.org/2000/svg" xmlns:xlink="http://www.w3.org/1999/xlink" version="1.1" viewBox="0 -200 1000 1000">
  <g transform="matrix(1 0 0 -1 0 800)">
   <path fill="currentColor"
d="M423 962l58 -50q10 -8 10 -13t-9 -6q-29 5 -41 4q-67 -22 -135 -39v-200h89l33 42l63 -49q11 -8 9 -11t-19 -2h-175v-188h128l35 43l64 -49q11 -8 9 -11q-2 -4 -18 -3h-218v-302q-2 -33 -17 -54q-16 -23 -80 -35q-3 30 -25 40q-13 5 -73 23q-6 2 -10 3l4 16l40 -8
q68 -16 91 -6q26 9 26 51v272h-144q-23 1 -42 -12l-33 32h219v188h-116q-26 1 -43 -13l-33 33h192v190q-104 -23 -193 -30l-3 17q191 34 284 73q50 21 56 28t7 24zM463 868h387l31 39l67 -49q7 -5 6 -8q-1 -2 -12 -2h-253v-205q90 -57 139 -95q70 -52 97 -112
q27 -71 -16 -74q-22 0 -30 43q-9 42 -66 104q-45 50 -124 108v-452l2 -95q1 -35 -54 -44q5 37 7 184v638h-104q-24 1 -44 -12z" />
  </g>

</svg>
