<?xml version="1.0" standalone="no"?>
<!DOCTYPE svg PUBLIC "-//W3C//DTD SVG 1.1//EN" "http://www.w3.org/Graphics/SVG/1.1/DTD/svg11.dtd" >
<svg xmlns="http://www.w3.org/2000/svg" xmlns:xlink="http://www.w3.org/1999/xlink" version="1.1" viewBox="0 -205 1024 1024">
  <g transform="matrix(1 0 0 -1 0 819)">
   <path fill="currentColor"
d="M326 866h526l44 52l74 -60q3 -3 4 -6q0 -12 -12 -12h-434l-20 -168h220l32 40l56 -40q12 -7 12 -16q1 -9 -34 -26l-10 -488q3 -22 24 -29h76q30 3 40 24q9 20 12 49q2 26 8 122h20q0 -91 4 -122q3 -30 30 -42q-7 -21 -20 -39q-10 -18 -22 -24q-10 -6 -34 -12h-98
q-60 2 -72 16q-11 15 -16 30q-4 16 -2 35l12 496h-242l-52 -474l218 90l10 -18q-192 -99 -216 -119q-24 -18 -44 -48l-58 60q35 19 40 37l74 666h-80q-21 0 -54 -8l-16 34v0v0zM508 548l6 14q60 -24 112 -60q51 -36 60 -68q10 -34 -4 -52q-16 -19 -34 -14q-19 4 -22 32
q-1 26 -26 62q-24 35 -92 86v0v0zM358 938q9 -6 6 -8q4 -5 -10 -10q-32 -10 -46 -38q-45 -105 -84 -174l38 -16q12 -4 10 -14q0 -3 -24 -18v-468l4 -105q0 -14 -24 -28q-21 -12 -36 -12l4 141v466q-67 -131 -152 -226l-10 10q99 160 162 314q63 153 84 228l78 -42v0v0z" />
  </g>

</svg>
