<?xml version="1.0" standalone="no"?>
<!DOCTYPE svg PUBLIC "-//W3C//DTD SVG 1.1//EN" "http://www.w3.org/Graphics/SVG/1.1/DTD/svg11.dtd" >
<svg xmlns="http://www.w3.org/2000/svg" xmlns:xlink="http://www.w3.org/1999/xlink" version="1.1" viewBox="0 -36 256 256">
  <g transform="matrix(1 0 0 -1 0 220)">
   <path fill="currentColor"
d="M67 32.5q8 -0.5 8 12.5v61h-37q-1 -28 -5.5 -52t-21.5 -47l-3 2q11 25 14.5 54.5t3 94.5t-1.5 78l14 -8h36l8 10l13 -13l-7 -7v-174q0 -16 -5 -22.5t-17 -11.5q0 14 -25 22v4q18 -3 26 -3.5zM38 170h37v51h-37v-51zM38 113h37v50h-37v-50zM199 174h21l13 11l15 -18h-49
q1 -46 9 -88q7 19 11 39t5 34l18 -12q-6 -3 -11 -25t-17 -52q10 -19 19 -25l10 32l4 -1q-6 -40 -2 -60q-25 14 -39 41q-21 -25 -54 -41l-2 3q40 29 50 52q-11 36 -13 103h-70q-10 0 -19 -2l-9 9h45v25h-2q-14 1 -25 -2l-9 9h36q0 28 -1 38l20 -11l-7 -6v-21h13l9 9l14 -16
h-36v-25h41q-1 52 -2 72l21 -11l-7 -8v-53zM237 207q4 -7 -1 -15t-10 4t-19 28l2 3q24 -13 28 -20zM146 51v119h12v-31h8l8 10l13 -17h-29v-22h7l9 10l14 -17h-30v-20h9l8 9l14 -16h-31v-23l28 5l1 -4q-32 -9 -56 -17t-29 -13l-9 17l27 5v31v-1q-8 0 -19 -3l-9 10h28v22
q-7 0 -18 -3l-9 10h27v21v-1q-9 0 -20 -3l-9 10h29v31h12v-121z" />
  </g>

</svg>
