<?xml version="1.0" standalone="no"?>
<!DOCTYPE svg PUBLIC "-//W3C//DTD SVG 1.1//EN" "http://www.w3.org/Graphics/SVG/1.1/DTD/svg11.dtd" >
<svg xmlns="http://www.w3.org/2000/svg" xmlns:xlink="http://www.w3.org/1999/xlink" version="1.1" viewBox="0 -36 256 256">
  <g transform="matrix(1 0 0 -1 0 220)">
   <path fill="currentColor"
d="M46 216q0 14 -1 31l19 -9l-7 -7v-27h16l9 11l11 -18h-36v-21h18l6 10l12 -11l-6 -6v-30q0 -19 1 -37l-12 -7v7h-19v-28h21l9 10l12 -17h-42v-15q0 -17 1 -39l-13 -6q1 22 1 41v19h-8q-10 0 -19 -2l-9 9h36v28h-17v-6l-13 -6q1 17 1 32v32q0 15 -1 30l14 -8h16v21h-4
q-10 0 -19 -2l-9 9h32v12zM29 169v-27h17v27h-17zM57 169v-27h19v27h-19zM57 135v-26h19v26h-19zM29 135v-26h17v26h-17zM197 217q0 15 -1 30l19 -10l-7 -7v-25h17l10 8l12 -15h-39v-21h20l7 9l11 -11l-6 -7v-28q0 -19 1 -37l-12 -7v7h-21v-28h17l10 9l13 -16h-40v-15
q0 -19 1 -40l-13 -6q1 21 1 42v19h-9q-10 0 -19 -2l-9 9h37v28h-20v-6l-12 -6q1 17 1 32v32q0 15 -1 31l13 -9h19v21h-7q-10 0 -19 -2l-9 9h35v12zM177 170v-26h20v26h-20zM208 170v-26h21v26h-21zM208 137v-27h21v27h-21zM177 137v-27h20v27h-20zM116 125h30v31h-30v-31z
M102.5 64.5q3.5 29.5 2.5 86.5q-9 -15 -18 -24l-1 2q14 28 24 69h-3l-8 -2l-6 9h19q8 33 7 42l17 -7l-6 -6q-4 -19 -7 -29h17l9 8l12 -15h-39q-4 -13 -11 -32l5 -3h29l7 9l12 -11l-7 -6v-123q1 -18 -16 -23q0 13 -16 18v4q13 -3 17.5 -1.5t3.5 9.5v41h-30q-3 -24 -9 -41
t-25 -33l-1 2q18 27 21.5 56.5zM116 87h30v31h-30v-31z" />
  </g>

</svg>
