<?xml version="1.0" standalone="no"?>
<!DOCTYPE svg PUBLIC "-//W3C//DTD SVG 1.1//EN" "http://www.w3.org/Graphics/SVG/1.1/DTD/svg11.dtd" >
<svg xmlns="http://www.w3.org/2000/svg" xmlns:xlink="http://www.w3.org/1999/xlink" version="1.1" viewBox="0 -140 1000 1000">
  <g transform="matrix(1 0 0 -1 0 860)">
   <path fill="currentColor"
d="M292 857l-34 -203l14 9q90 -56 98 -93l63 303l29 -14l-22 -139h52v173l-5 49l61 -12q40 -7 40 -19q0 -3 -29 -17q-1 0 -5 -1.5t-7 -3.5l6 1v-170h31q14 20 23 29l-2 -1l5 5h-1q6 7 17 7q15 0 27 -14l23 -26h55v173l-6 49l63 -12q39 -8 39 -19q0 -7 -39 -22l6 1v-170h48
l17 26l-2 -1q0 1 1 2q1 0 5 4h-1q6 9 18 9q16 0 26 -13h-1l32 -35l-6 -14h-137v-36q1 -5 23 -100l10 -34l1 -6l4 -10q40 -127 59.5 -172.5t51.5 -79.5l-11 -17q-22 17 -24 17q-4 -2 -9 -8q-6 -8 -16 -8q-18 0 -33 47q-2 7 -11.5 32.5t-17.5 48t-8 25.5l-2 8q-13 63 -17 83
v-358q0 -6 1 -12v-26q0 -14 -6.5 -19.5t-28.5 -12.5h1q-7 -4 -13 -4q-18 0 -18 39l1 15v-1v346q-55 -118 -137 -236l-21 17q71 111 105 210t53 252h-178v-125l-5 1q67 -38 96 -67t29 -60t-28 -31q-22 0 -32 28q-18 46 -60 93v-409q0 -6 1 -11v-29q0 -19 -34 -33h1
q-6 -2 -13 -2q-11 0 -14 6.5t-3 20.5l1 26v325q-53 -125 -112 -208h-1q1 -4 16 -53t15 -58q0 -42 -36 -42q-37 0 -39 44l-5 149q-1 0 -1 1h1q-13 37 -40 43l-52 12l1 13l45 -3q13 0 19.5 1.5t15 13t13.5 33.5l33 165q-6 -9 -19 -9q-21 0 -30 24q-18 48 -58 93l-48 -294
q-7 -41 -7 -77q0 -46 22 -106q17 -49 17 -62q0 -20 -10.5 -31.5t-28.5 -11.5q-37 0 -39 44l-2 46l-1 48q0 24 -3 58l2 -1q-3 3 -4 5q-12 33 -37 37l-51 10l1 15l44 -4q12 0 18.5 1.5t15 13t13.5 33.5l101 495zM492 698h-55l-55 -340q-8 -53 -8 -90q83 161 118 430zM95 914
l8 14q125 -56 125 -97q0 -14 -5.5 -21.5t-10 -8.5t-12.5 -1q-17 0 -30 25q-32 62 -75 89zM276 914l8 14q124 -55 124 -97q0 -31 -27 -31q-19 0 -31 25q-29 60 -74 89zM61 663l9 13q44 -21 64.5 -33t38 -30.5t17.5 -39.5q0 -27 -25 -27q-21 0 -30 26q-16 47 -74 91zM605 748
q-1 -1 -1 0h1z" />
  </g>

</svg>
