<?xml version="1.0" standalone="no"?>
<!DOCTYPE svg PUBLIC "-//W3C//DTD SVG 1.1//EN" "http://www.w3.org/Graphics/SVG/1.1/DTD/svg11.dtd" >
<svg xmlns="http://www.w3.org/2000/svg" xmlns:xlink="http://www.w3.org/1999/xlink" version="1.1" viewBox="0 -36 256 256">
  <g transform="matrix(1 0 0 -1 0 220)">
   <path fill="currentColor"
d="M41 238l18 -9h149l14 13l20 -20h-184v-88q0 -40 -10 -69t-35 -56l-3 2q17 25 24.5 52.5t7.5 69.5v71q0 14 -1 34zM92 192l23 -9l-7 -8v-37l35 11v28q0 10 -1 33l24 -9l-8 -7v-41l34 12l7 14l17 -11l-6 -9v-69q0 -21 -21 -28q-2 7 -7 11t-18 8v5q18 -3 24.5 -1.5t6.5 10.5
v64l-37 -13v-38q0 -7 1 -29l-17 -8q1 22 1 29v42l-35 -11v-78q0 -14 12 -14h89q11 0 12.5 14t2.5 33h5q1 -16 3 -29t10 -15q-10 -16 -28 -16h-100q-21 0 -21 23v78l-17 -6l-4 -6l-10 9l31 9v25q0 15 -1 34z" />
  </g>

</svg>
