<?xml version="1.0" standalone="no"?>
<!DOCTYPE svg PUBLIC "-//W3C//DTD SVG 1.1//EN" "http://www.w3.org/Graphics/SVG/1.1/DTD/svg11.dtd" >
<svg xmlns="http://www.w3.org/2000/svg" xmlns:xlink="http://www.w3.org/1999/xlink" version="1.1" viewBox="0 -36 256 256">
  <g transform="matrix(1 0 0 -1 0 220)">
   <path fill="currentColor"
d="M87 108q2 -59 -11.5 -77t-26.5 -21q1 13 -22 21v4q28 -7 38 10.5t8 66.5q-22 -33 -64 -58l-2 2q53 49 62 78q-1 9 -7 23q-11 -23 -52 -54l-1 3q30 29 47 66q-4 7 -8 13q-13 -16 -34 -32l-2 3q30 32 39 59h-12q-13 0 -22 -3l-10 10h84l13 12l16 -19h-53q-4 -9 -15 -25
q18 -15 26 -37q14 16 27 42l15 -17l-6 -1q-17 -14 -34 -31q4 -13 5 -26q30 -27 34 -40.5t-2 -23t-9.5 8t-20.5 43.5zM168 174v-54l47 3l13 14l16 -19l-76 -5v-71q-1 -16 14 -14h35q11 0 12 15t1 32h4q0 -13 2 -28t11 -17q-10 -14 -23 -14h-50q-21 -1 -19 22v74l-43 -4l-6 -4
l-9 11l58 4v51q-22 -6 -45 -12l-1 4q23 8 46 17q0 40 -1 68l23 -11l-9 -8v-44q33 14 44 25l15 -19l-13 -1q-24 -8 -46 -15z" />
  </g>

</svg>
