<?xml version="1.0" standalone="no"?>
<!DOCTYPE svg PUBLIC "-//W3C//DTD SVG 1.1//EN" "http://www.w3.org/Graphics/SVG/1.1/DTD/svg11.dtd" >
<svg xmlns="http://www.w3.org/2000/svg" xmlns:xlink="http://www.w3.org/1999/xlink" version="1.1" viewBox="0 -200 1000 1000">
  <g transform="matrix(1 0 0 -1 0 800)">
   <path fill="currentColor"
d="M815 970l68 -34q16 -11 7 -14q-25 1 -42 -17q-43 -74 -76 -119h72l37 36l40 -42q8 -6 7 -10q-2 -4 -11 -5l-18 -8v-118l6 -48q0 -1 -1 -3q-5 -18 -12 -21q-15 -6 -31 -7v37h-125v-165h144l33 38l41 -37q9 -6 9 -11t-9 -8l-19 -11v-19q0 -105 -9 -142q-11 -38 -31 -59
t-71 -31q-4 27 -19 31q-5 2 -23 7q-20 6 -32 10l4 15q10 -2 27 -6q18 -3 39 -7q21 -3 36 4q17 7 30 35q11 23 10 118v55h-160v-248l2 -95q0 -18 -12 -30q-7 -5 -30 -12q-5 -1 -7 -2q5 38 8 185v202h-4q-59 -218 -278 -351l-8 11q190 151 244 340h-79l-24 -26l-42 34
q14 9 18 23l25 149q-1 23 -20 46l16 10l34 -35h118v153h-109q-19 2 -38 -13l-33 31h234l23 49q45 90 43 101v2q-4 15 -10 25zM285 917q-1 -2 -2 -7q-3 -11 -6 -27q-10 -46 -24 -90h154l30 42l60 -48q9 -8 7 -12q-3 -3 -17 -2h-240q-30 -101 -85 -207l16 -15h102v106
q2 17 -21 40l8 12l74 -31q12 -5 5 -10q-20 -10 -27 -20v-97h82l27 36l46 -36q8 -5 8 -10t-8 -8l-19 -11v-259q0 -26 -11 -44q-11 -21 -68 -31q1 25 -18 34q-13 6 -39 13v-73l3 -95q1 -20 -11 -30q-12 -8 -36 -15q2 22 4 146q1 25 1 38v326h-95v-314q0 -19 -11 -30
q-13 -10 -33 -15q3 23 5 131q1 15 1 23v171q0 26 -2 37q-47 -85 -113 -165l-11 11q121 183 184 392h-63q-25 0 -40 -12l-31 32h140q14 45 24 93q1 7 5 22q7 30 5 32q-2 13 -17 26l8 9l73 -31q10 -5 10 -8q1 -3 -8 -6q-16 -3 -26 -13zM319 532v-282q53 -7 68 -6t23 7
q7 6 7 70v211h-98zM588 597l-27 -165h136v165h-109zM861 768h-125v-153h125v153zM559 954l9 8q60 -47 77 -65q21 -24 30 -47q6 -23 -1 -37t-21 -13q-15 1 -18 29q-3 27 -17 50q-14 24 -59 75z" />
  </g>

</svg>
