<?xml version="1.0" standalone="no"?>
<!DOCTYPE svg PUBLIC "-//W3C//DTD SVG 1.1//EN" "http://www.w3.org/Graphics/SVG/1.1/DTD/svg11.dtd" >
<svg xmlns="http://www.w3.org/2000/svg" xmlns:xlink="http://www.w3.org/1999/xlink" version="1.1" viewBox="0 -205 1024 1024">
  <g transform="matrix(1 0 0 -1 0 819)">
   <path fill="currentColor"
d="M394 894h472l38 50l56 -54q3 -4 4 -10q0 -12 -12 -12h-256v-140h136l28 36l58 -46q6 -4 6 -8q0 -6 -30 -26v-214l4 -70q0 -10 -18 -22q-15 -9 -36 -12v38h-156q-6 -139 -60 -208q65 -37 110 -52q45 -10 108 -23q62 -12 140 -10v-20q-37 -3 -56 -10q-18 -7 -36 -38
q-45 10 -92 26q-45 14 -90 34q-42 19 -108 63q-60 -55 -144 -97q-81 -36 -186 -58l-6 14q117 43 180 76q62 33 122 95q-63 62 -104 160l16 10q53 -96 110 -144q39 59 46 182h-140v-8q-2 -6 -22 -18q-17 -10 -34 -10l4 106v292l58 -38h140v140h-166q-21 0 -68 -8l-16 34v0v0z
M498 432h142l2 58l2 60h-146v-118v0v0zM696 550l-2 -54l-2 -64h152v118h-148v0v0zM498 578h146v120h-146v-120v0v0zM696 698v-120h148v120h-148v0v0zM316 924q15 -12 0 -18q-21 -3 -30 -12q-9 -7 -50 -64q-42 -54 -134 -180l182 10q38 62 64 118l64 -42q16 -9 -4 -20
q-23 -1 -34 -14q-12 -13 -72 -98q-61 -84 -164 -204l248 38l4 -20q-180 -39 -210 -48q-29 -9 -64 -36l-42 68q21 6 48 18q27 34 60 80q30 44 94 140q-103 -19 -136 -28q-31 -9 -62 -26l-34 70q27 5 48 20q62 100 94 158q33 58 66 128l64 -38v0v0zM404 270l6 -18l-258 -92
q-43 -24 -68 -45l-42 63l362 92v0v0z" />
  </g>

</svg>
