<?xml version="1.0" standalone="no"?>
<!DOCTYPE svg PUBLIC "-//W3C//DTD SVG 1.1//EN" "http://www.w3.org/Graphics/SVG/1.1/DTD/svg11.dtd" >
<svg xmlns="http://www.w3.org/2000/svg" xmlns:xlink="http://www.w3.org/1999/xlink" version="1.1" viewBox="0 -246 2048 2048">
  <g transform="matrix(1 0 0 -1 0 1802)">
   <path fill="currentColor"
d="M1483 496q-13 -25 -19 -35q-71 -125 -273 -221q-192 -91 -466 -135l-29 47q575 126 695 414q68 168 71 491q98 -3 152 -19q43 -13 43 -28q0 -30 -76 -49q-13 -256 -74 -412q202 -110 305 -223q66 -68 66 -118q0 -72 -63 -72q-46 0 -84 74q-74 140 -248 286zM1104 1592
q328 -313 850 -457q-65 -55 -93 -129q-517 202 -788 539v-555h-117v489q-329 -350 -842 -540l-28 45q510 231 804 608h-702l-20 51h788v291q201 -13 201 -55q0 -26 -84 -54v-182h563l109 135q87 -78 143 -145l-24 -41h-760zM416 367v647q201 -3 201 -41q0 -25 -84 -53v-524
q271 71 625 200l20 -51q-476 -210 -871 -323q-2 -70 -32 -70q-32 0 -103 162q164 32 244 53z" />
  </g>

</svg>
