<?xml version="1.0" standalone="no"?>
<!DOCTYPE svg PUBLIC "-//W3C//DTD SVG 1.1//EN" "http://www.w3.org/Graphics/SVG/1.1/DTD/svg11.dtd" >
<svg xmlns="http://www.w3.org/2000/svg" xmlns:xlink="http://www.w3.org/1999/xlink" version="1.1" viewBox="0 -36 256 256">
  <g transform="matrix(1 0 0 -1 0 220)">
   <path fill="currentColor"
d="M79 234l-13 -20h47l8 10l17 -17h-58q17 -6 23 -10.5t6.5 -6.5t-3.5 -8t-8 -0.5t-10 12t-16 13.5h-10q-12 -19 -38 -36l-2 2q16 17 27.5 35.5t16.5 38.5l21 -10zM172 233l-11 -19h46l12 10l17 -17h-57q21 -6 27.5 -11t6 -10.5t-5 -8.5t-10 6t-25.5 24h-14q-15 -18 -33 -31
l-2 2q17 20 26 37.5t13 31.5l20 -9zM52 183l14 -8h121l5 7l16 -11l-7 -5v-29q0 -8 1 -16l-14 -5v52h-122v-48l-14 -5q1 18 1 36t-1 32zM82 118l-1 3q34 20 45 47l20 -12l-9 -1l-10 -9q19 -4 30.5 -7.5t10.5 -14t-10.5 -2t-33.5 19.5q-16 -16 -42 -24zM154 120q24 -2 30.5 -6
t6 -11.5t-9.5 -1t-27 15.5v3zM147 114l-8 -5l1 -14h62l14 12l18 -19h-93q4 -18 16 -32q21 15 30 32l15 -13l-8 -2q-15 -14 -29 -24q20 -21 51 -27l9 28l3 -1q-2 -30 6 -44q-27 2 -46.5 12t-33.5 21q-33 -22 -87 -30l-1 3q57 15 78 38q-11 19 -15 39h-70q1 -35 -9 -51.5
t-37 -29.5l-2 3q24 16 29 31t5.5 27.5t-1.5 33.5l14 -7h69q-1 16 -2 26zM57 76q34 -8 42 -14t4 -17t-11.5 1t-35.5 27z" />
  </g>

</svg>
