<?xml version="1.0" standalone="no"?>
<!DOCTYPE svg PUBLIC "-//W3C//DTD SVG 1.1//EN" "http://www.w3.org/Graphics/SVG/1.1/DTD/svg11.dtd" >
<svg xmlns="http://www.w3.org/2000/svg" xmlns:xlink="http://www.w3.org/1999/xlink" version="1.1" viewBox="0 -154 1024 1024">
  <g transform="matrix(1 0 0 -1 0 870)">
   <path fill="currentColor"
d="M634 349l6 11q93 -62 99 -118q6 -55 -28 -55q-14 3 -15 33q0 30 -11 60q-12 30 -51 69zM469 250q-2 -35 -3 -78q-2 -45 -16 -72q-38 -59 -68 -30q-11 16 10 36q22 19 37 46q14 27 23 98h17zM843 281l8 11q101 -66 121 -134t-23 -68q-17 1 -22 39q-3 36 -21 71
q-17 34 -63 81zM369 419h527l33 40l71 -48q18 -10 -6 -10h-542q-29 1 -47 -13zM770 532h108v172h-108v-172zM733 704h-111v-172h111v172zM584 704h-110v-172h110v172zM606 291q9 -6 -1 -9q-14 -6 -32 -17v-124q0 -35 9 -47q12 -13 72 -13q62 0 105 1q44 0 54 37q7 44 7 107
h11l6 -59q2 -58 27 -68q-30 -48 -80 -50q-27 -3 -97 -3q-71 0 -91 3q-67 0 -65 98v134q-1 19 -21 34l9 11zM639 989l71 -29q14 -5 6 -11q-17 -4 -28 -19l-21 -89h223l27 37l67 -45q17 -10 -7 -10h-314l-23 -104h216l39 38l48 -46q14 -9 -6 -14l-19 -9v-101l2 -71
q-2 -33 -42 -31v32h-404v-7q4 -39 -47 -45q5 39 7 123v124q-3 22 -11 28l12 12l31 -33h134l21 104h-161q-29 0 -47 -14l-34 32h245l22 100q2 16 -15 37zM142 688v-111q2 -47 0 -91h148v202h-148zM142 707h148v215h-148v-215zM82 978l45 -36h147l30 41l48 -43q18 -12 0 -19
l-20 -14v-733q13 -113 -68 -123q-4 44 -102 65l2 15q86 -21 106 -20t20 50v308h-148q-3 -127 -19 -228q-22 -132 -102 -206l-8 9q58 94 74 212q17 127 13 348v313q-6 23 -27 51z" />
  </g>

</svg>
