<?xml version="1.0" standalone="no"?>
<!DOCTYPE svg PUBLIC "-//W3C//DTD SVG 1.1//EN" "http://www.w3.org/Graphics/SVG/1.1/DTD/svg11.dtd" >
<svg xmlns="http://www.w3.org/2000/svg" xmlns:xlink="http://www.w3.org/1999/xlink" version="1.1" viewBox="0 -205 1024 1024">
  <g transform="matrix(1 0 0 -1 0 819)">
   <path fill="currentColor"
d="M630 654l56 -42h158l32 40q57 -42 60 -50q0 -9 -2 -12q-3 -3 -26 -20v-184q-1 -48 -22 -68q-19 -21 -56 -32q-5 31 -34 44q-27 12 -80 24l4 18q57 -12 82 -14q23 -3 40 6q18 10 18 56v164h-178v-424q0 -41 12 -45q14 -2 26 -2h154q33 0 42 18q11 17 14 61q2 42 8 100h16
q5 -66 8 -104q3 -39 34 -51q-10 -32 -28 -50q-19 -15 -62 -22h-186q-29 0 -52 6q-21 7 -30 32q-7 16 -8 63v488v0v0zM772 900q-123 -23 -218 -40v-102h338l36 42l62 -50q6 -4 6 -10q0 -7 -8 -8h-434q2 -141 -4 -258q-7 -117 -40 -228q-32 -108 -136 -207l-10 14
q74 94 104 199q26 106 32 224q3 116 4 248v206l56 -46q79 15 182 42q101 27 178 64q57 -48 58 -54q0 -7 -6 -10q-4 -2 -16 0q-10 0 -34 -2q-24 0 -150 -24v0v0zM22 916h364l38 42l58 -52q3 -4 4 -10q1 -7 -16 -8h-166q-58 -73 -106 -128q82 -84 110 -144q32 45 86 144
q62 -40 62 -46t-8 -8q-9 -1 -18 -4t-36 -32q-28 -27 -76 -78l18 -58q56 -37 82 -64q26 -25 38 -46t16 -42q2 -19 -10 -34q-11 -13 -28 -8q-15 6 -20 30q-6 24 -20 60q-13 34 -50 68q12 -115 12 -164q-1 -48 -14 -114q-12 -63 -42 -101q-30 -39 -84 -58q-7 37 -38 52
q-30 17 -90 37l6 18q84 -23 108 -25q24 -1 42 4q18 4 30 25t22 66q8 45 10 96q3 51 -6 144q-69 -95 -138 -160q-67 -63 -130 -108l-12 14q68 62 124 124q54 60 142 192q-6 38 -30 88q-58 -78 -112 -128q-51 -49 -114 -98l-10 14q60 57 106 112q44 54 106 142q-34 50 -52 70
q-79 -73 -140 -116l-12 12q69 69 120 126q48 57 96 126h-158q-20 0 -40 -8l-24 36v0v0z" />
  </g>

</svg>
