<?xml version="1.0" standalone="no"?>
<!DOCTYPE svg PUBLIC "-//W3C//DTD SVG 1.1//EN" "http://www.w3.org/Graphics/SVG/1.1/DTD/svg11.dtd" >
<svg xmlns="http://www.w3.org/2000/svg" xmlns:xlink="http://www.w3.org/1999/xlink" version="1.1" viewBox="0 -36 256 256">
  <g transform="matrix(1 0 0 -1 0 220)">
   <path fill="currentColor"
d="M87.5 230.5q6.5 -7.5 4 -14t-7.5 -7t-7.5 9.5t-15.5 23l2 3q18 -7 24.5 -14.5zM44 155h60v41h-60v-41zM24.5 70q6.5 30 6.5 74.5t-1 68.5l15 -10h58l9 10l14 -14l-9 -5q0 -36 1 -49l-14 -6v9h-60q1 -86 -36 -133l-4 3q14 22 20.5 52zM114 100.5q-10 -7.5 -19 -12.5v-59
q-2 -17 -18 -19q0 9 -16 14v4q14 -2 18 -2t4 9v61q0 20 -1 45l20 -11l-7 -7v-29q18 17 24 28l11 -13q-6 -1 -16 -8.5zM121 64.5q6 -4.5 7 -10.5t-3 -11t-8.5 5t-25.5 28l1 3q23 -10 29 -14.5zM64 101l6 8l12 -14l-5 -5q-17 -46 -50 -65l-3 3q27 24 41 66q-5 0 -14 -2l-9 9
h22zM216 215q2 -163 32 -194l-1 -3q-14 1 -19 -6q-22 50 -19 201q-14 -3 -21 -5v-154q0 -8 1 -35l-14 -5q1 37 1 60v133q-14 -2 -22 -3q1 -78 -1 -107t-10 -50.5t-24 -33.5l-3 2q17 21 21.5 53.5t4.5 76.5t-1 69l13 -7q55 14 70 29l11 -18q-10 0 -19 -3z" />
  </g>

</svg>
