<?xml version="1.0" standalone="no"?>
<!DOCTYPE svg PUBLIC "-//W3C//DTD SVG 1.1//EN" "http://www.w3.org/Graphics/SVG/1.1/DTD/svg11.dtd" >
<svg xmlns="http://www.w3.org/2000/svg" xmlns:xlink="http://www.w3.org/1999/xlink" version="1.1" viewBox="0 -205 1024 1024">
  <g transform="matrix(1 0 0 -1 0 819)">
   <path fill="currentColor"
d="M886 884l32 44l60 -58q3 -4 4 -4q0 -6 -8 -6h-782v-168q-1 -248 -32 -394q-28 -143 -110 -265l-14 8q60 124 84 261q24 135 24 366v250l56 -34h686v0v0zM210 768h158v78l64 -20q7 -4 8 -4q1 -7 -4 -10l-24 -10v-34h48l28 36l44 -46q3 0 4 -6q0 -9 -8 -8h-116v-28
q45 -9 72 -18q25 -10 38 -26t8 -32q-7 -14 -22 -16q-15 -4 -24 14q-7 15 -22 30q-16 15 -50 30v-38l4 -42q0 -15 -18 -26q-16 -9 -34 -12l4 80v42q-34 -29 -70 -58q-34 -28 -74 -56l-10 10q41 39 70 70q30 29 66 76h-80q-19 0 -44 -8l-16 32v0v0zM562 772h148v70l62 -20
q7 -4 8 -4q1 -6 -4 -8l-22 -10v-28h78l30 38l52 -50q3 1 4 -4q0 -9 -8 -8h-156v-18q56 -15 86 -30q29 -12 46 -30q15 -15 12 -36q-4 -19 -20 -22q-15 -3 -24 10l-18 24q-9 13 -30 32q-22 18 -52 34v-60l2 -26q1 -10 -16 -22q-16 -12 -34 -12l4 64v62q-49 -46 -88 -76
t-80 -56l-10 12q42 33 72 64q31 31 80 86h-56q-24 0 -42 -8l-24 32v0v0zM472 978l6 12q47 -6 76 -18q27 -10 36 -28q6 -15 -2 -30q-10 -12 -26 -12q-15 -1 -20 14q-6 12 -20 28q-15 12 -50 34v0v0zM454 602l66 -24l6 -4q-1 -5 -4 -10l-20 -16v-146l4 -32q1 -15 -16 -26
q-15 -12 -36 -12v46h-186q-25 0 -50 -8l-16 32h252v44h-158q-25 0 -40 -8l-20 32h218v50h-162q-24 0 -50 -8l-20 32h232v58v0v0zM614 606l72 -26q6 -4 6 -8q-3 -6 -12 -8l-18 -8v-20h156l34 40q56 -52 56 -58q1 -6 -4 -6h-242v-46h148l22 22l48 -32q3 -3 4 -6q0 -9 -6 -8
h-216v-52h216l28 40l52 -48q3 -4 4 -8q-1 -9 -4 -8h-296v-18q-6 -6 -18 -12q-13 -6 -34 -8l4 86v192v0v0zM368 316h16q-1 -57 -16 -92q-12 -33 -36 -50q-22 -18 -40 -20q-17 -1 -28 10q-10 11 -4 26q6 11 34 26q28 12 44 34q15 21 30 66v0v0zM530 352q63 -24 64 -30v-6
q-1 -4 -20 -16q45 -63 82 -98q45 36 118 114q57 -35 60 -40q4 -3 2 -6q-4 -3 -22 -6q-17 -1 -40 -14q-22 -13 -100 -62q33 -33 72 -51q36 -17 84 -32t144 -18v-20q-30 0 -54 -6q-25 -6 -46 -36q-94 35 -130 64q-37 30 -76 60q-40 28 -106 121q-29 -70 -94 -125
q-65 -54 -124 -82q-60 -23 -170 -44l-2 18q105 29 162 60q57 34 102 77q45 46 66 86q18 40 28 92v0v0z" />
  </g>

</svg>
