<?xml version="1.0" standalone="no"?>
<!DOCTYPE svg PUBLIC "-//W3C//DTD SVG 1.1//EN" "http://www.w3.org/Graphics/SVG/1.1/DTD/svg11.dtd" >
<svg xmlns="http://www.w3.org/2000/svg" xmlns:xlink="http://www.w3.org/1999/xlink" version="1.1" viewBox="0 -205 1024 1024">
  <g transform="matrix(1 0 0 -1 0 819)">
   <path fill="currentColor"
d="M503 678h-68v-161h68v161zM551 517h70v161h-70v-161zM805 608q54 -17 72 -27q14 -8 1 -14q-19 -11 -23 -20q-7 -18 -7 -79q0 -129 -15 -187q-17 -70 -60 -116q-51 -55 -146 -115q-17 -9 -23 1q-5 11 7 17q60 48 112 99q2 3 6 6q93 107 66 422q-2 16 10 13zM839 237
q6 9 18 0q127 -89 127 -134q-1 -25 -14 -38q-14 -14 -19 -14q-7 0 -13 21q-38 102 -96 150q-7 8 -3 15zM381 213q36 63 54 126q29 65 50 147h-50v-51q0 -8 -6 -9q-20 -8 -39 -17q-9 -3 -8 12q4 63 5 210v20q-1 36 -5 82q-1 6 1 12q5 1 11 -5q12 -13 36 -31h73v113h-48
q-27 0 -61 -7q-5 -1 -6 2q-13 19 -23 35q-6 10 7 7q61 -5 68 -6h63v3q-1 80 -5 128q-1 18 9 14q56 -18 77 -30q11 -8 1 -12q-31 -17 -32 -21q-2 -4 -2 -79v-3h52q6 0 12 7l36 41q7 7 14 0q26 -26 44 -48q11 -14 4 -24q-5 -6 -18 -7h-144v-113h52q8 -1 11 2l18 22q8 12 17 3
q9 -7 17 -15q38 59 69 136q32 89 33 117q2 17 18 7q38 -22 53 -34q12 -7 11 -13q-1 -5 -10 -4t-19 -8q-16 -12 -26 -45h81q10 0 14 6l28 30q3 4 7 4q11 0 56 -60q8 -12 -7 -13q-10 0 -17 -3q-49 -9 -124 -136h53q6 0 9 4l18 28q7 8 14 1q29 -19 57 -41q6 -6 5 -12
q-3 -6 -13 -7q-12 -2 -18 -12q-4 -9 -4 -22v-276q0 -32 6 -87q2 -12 -7 -16q-35 -20 -42 -20q-5 1 -5 11v418h-144v-415q-1 -8 -5 -9q-10 -4 -32 -13q-15 -6 -14 4q2 26 3 51v390q-1 26 -2 45q0 9 4 10q4 3 13 -6q13 -13 31 -26h49q3 8 63 141h-94q-37 -68 -96 -141
q2 -3 5 -6l2 -2q6 -8 6 -9t-4 -4q-20 -11 -21 -15t-1 -7v-168q0 -11 4 -32q0 -9 -4 -12q-35 -19 -42 -19t-6 10v45h-70v-91q71 -37 108 -65q25 -20 28 -33q2 -24 -8 -37q-12 -15 -18 -16q-5 -1 -15 17q-21 35 -43 60q-21 24 -52 49v-93q0 -125 4 -210q0 -9 -7 -10l-44 -18
q-9 -2 -8 14q6 133 7 224v93q11 41 18 80q1 3 -2 4q-4 2 -5 -2q-11 -43 -24 -86q-12 -32 -31 -60q-33 -71 -63 -109q-8 -6 -17 -1q-4 7 2 17zM141 314v-47q-1 -8 -5 -9q-10 -4 -32 -13q-15 -6 -14 4q2 26 3 51v362q0 8 -1 14q-18 -27 -37 -57q-9 -12 -16 -6q-8 7 -1 17
q48 78 79 187q30 107 29 141q-1 18 17 9q40 -19 56 -29q13 -6 12 -12q0 -6 -9 -5q-9 0 -19 -10q-8 -9 -21 -49q-1 0 -1 -1h66q10 0 14 6l28 30q3 4 7 4q11 0 56 -60q8 -12 -7 -13q-8 -1 -14 -2q-53 -9 -104 -141h38q6 0 9 4l18 28q7 8 14 1q29 -19 57 -41q6 -6 5 -12
q-3 -6 -13 -7q-12 -2 -18 -12q-4 -9 -4 -22v-244q0 -32 6 -87q2 -12 -7 -16q-35 -20 -42 -20q-5 1 -5 11v46h-144zM141 345h46v141h-46v-141zM235 345h50v141h-50v-141zM187 654h-46v-137h46v137zM235 517h50v137h-50v-137zM139 685h64q0 2 1 3q27 75 39 142h-74
q-29 -65 -59 -122q13 -11 29 -23zM368 182q15 4 16 -5q2 -12 -14 -16q-113 -40 -201 -67q-42 -10 -55 -28q-7 -9 -11 -9q-4 -1 -7 8q-10 26 -31 45q-12 11 -11 14q2 3 12 4q75 7 302 54z" />
  </g>

</svg>
