<?xml version="1.0" standalone="no"?>
<!DOCTYPE svg PUBLIC "-//W3C//DTD SVG 1.1//EN" "http://www.w3.org/Graphics/SVG/1.1/DTD/svg11.dtd" >
<svg xmlns="http://www.w3.org/2000/svg" xmlns:xlink="http://www.w3.org/1999/xlink" version="1.1" viewBox="0 -36 256 256">
  <g transform="matrix(1 0 0 -1 0 220)">
   <path fill="currentColor"
d="M72 181h22l6 10l16 -13l-8 -6q0 -64 1 -77l-13 -6v8h-58v-8l-13 -6q1 22 1 92q-5 -8 -16 -18l-2 3q21 31 31.5 54.5t10.5 32.5l20 -10q-7 -1 -18 -20h31l8 9l15 -13q-9 0 -34 -32zM34 185l7 -4h25l17 29h-33q-8 -13 -16 -25zM38 141h23v33h-23v-33zM73 141h23v33h-23v-33
zM38 104h23v30h-23v-30zM73 104h23v30h-23v-30zM32.5 44q-1.5 -8 -5.5 -11.5t-12.5 -3.5t1 11.5t13.5 34.5h4q1 -23 -0.5 -31zM48 78q17 -18 17.5 -28t-6.5 -15.5t-7.5 9t-6.5 33.5zM69 81q25 -16 25.5 -25.5t-5.5 -14t-8 6t-14 31.5zM94 88q21 -11 26 -18t-1 -16.5t-9 2
t-20 30.5zM125 189q0 23 -1 47l15 -9h84l8 10l15 -13l-8 -5q0 -54 1 -66l-14 -7v8h-86v-5l-15 -7q1 24 1 47zM139 220v-24h36v24h-36zM188 196h37v24h-37v-24zM139 161h36v28h-36v-28zM188 161h37v28h-37v-28zM190 29q20 -2 26 -1.5t6 10.5v27h-77v-51l-14 -7q1 39 1 72.5
t-1 59.5l13 -6h76l8 9l16 -13l-9 -5v-93q-3 -19 -22 -24q-1 14 -23 18v4zM145 105h77v21h-77v-21zM145 72h77v26h-77v-26z" />
  </g>

</svg>
