<?xml version="1.0" standalone="no"?>
<!DOCTYPE svg PUBLIC "-//W3C//DTD SVG 1.1//EN" "http://www.w3.org/Graphics/SVG/1.1/DTD/svg11.dtd" >
<svg xmlns="http://www.w3.org/2000/svg" xmlns:xlink="http://www.w3.org/1999/xlink" version="1.1" viewBox="0 -36 256 256">
  <g transform="matrix(1 0 0 -1 0 220)">
   <path fill="currentColor"
d="M195 122h-24v-33h24v33zM146 238l13 -9h46l7 9l13 -11l-7 -6v-63h4l7 9l12 -13l-6 -5v-82q1 -19 -18 -25q-3 15 -22 18v4l18 -2t9 6v83h-78v-96l-13 -6q1 32 1 62t-1 55l12 -8h4q0 52 -1 80zM205 201v21h-46v-64h15v48l11 -5h20zM205 194h-20v-36h20v36zM159 102.5
q0 18.5 -1 32.5l13 -6h25l6 8l11 -12l-6 -4v-31l6 -8h-42v-6l-13 -5q1 13 1 31.5zM43 222q0 12 -1 24l20 -9l-7 -8v-37h12l7 10l14 -11l-7 -7v-90q2 -21 -14 -27q-1 12 -12 15v4q5 -1 10 -0.5t4 11.5v88h-14v-138q0 -14 2 -30l-16 -8q2 24 2 44v132h-14v-110l-14 -7
q1 33 1 70t-1 62l14 -8h14v30zM116.5 207q6.5 -9 -1 -18.5t-10 6.5t-12.5 29l3 3q14 -11 20.5 -20zM98 54q7 25 13 47h-8l-7 -8l-10 8q8 10 17 44h-5l-8 -2l-7 9h21l7 10l13 -12l-8 -6q-5 -12 -13 -36h9l5 6l13 -10l-8 -9q-7 -18 -14 -42q23 -16 52.5 -19.5t87.5 2.5v-4
q-15 -4 -18 -14q-41 -2 -69.5 2.5t-59.5 27.5q-12 -16 -17 -28l-12 10q17 20 26 24z" />
  </g>

</svg>
