<?xml version="1.0" standalone="no"?>
<!DOCTYPE svg PUBLIC "-//W3C//DTD SVG 1.1//EN" "http://www.w3.org/Graphics/SVG/1.1/DTD/svg11.dtd" >
<svg xmlns="http://www.w3.org/2000/svg" xmlns:xlink="http://www.w3.org/1999/xlink" version="1.1" viewBox="0 -154 1024 1024">
  <g transform="matrix(1 0 0 -1 0 870)">
   <path fill="currentColor"
d="M412 910h461l32 40l68 -49q17 -12 -6 -10h-475q-27 1 -45 -13zM434 122h473l32 40l68 -50q17 -12 -6 -11h-488q-27 1 -45 -12zM840 516h-276v-190h276v190zM564 534h276v190h-276v-190zM515 794l43 -50h265l35 40l52 -49q14 -11 -6 -16l-18 -9v-328l4 -100q4 -42 -50 -44
v67h-276v-24q0 -39 -52 -46q4 38 6 158v346q-4 25 -18 42zM127 975l4 10q136 -59 127 -126q-1 -32 -24 -35q-22 -3 -24 30q-1 33 -21 62q-19 29 -62 59zM65 504h226l24 34l62 -44q17 -11 -6 -10h-235q-19 1 -37 -13zM65 648h228l24 34l62 -44q17 -10 -6 -10h-229
q-27 1 -45 -14zM19 798h334l28 36l62 -46q12 -10 -6 -10h-339q-27 1 -45 -13zM139 164h161v179h-161v-179zM90 405l39 -42h154l35 41l52 -49q14 -12 -6 -17l-18 -9v-177l4 -20q4 -42 -50 -44v56h-161v-45q0 -40 -53 -46q5 39 7 125v173q-4 24 -18 42z" />
  </g>

</svg>
