<?xml version="1.0" standalone="no"?>
<!DOCTYPE svg PUBLIC "-//W3C//DTD SVG 1.1//EN" "http://www.w3.org/Graphics/SVG/1.1/DTD/svg11.dtd" >
<svg xmlns="http://www.w3.org/2000/svg" xmlns:xlink="http://www.w3.org/1999/xlink" version="1.1" viewBox="0 0 2048 2048">
  <g transform="matrix(1 0 0 -1 0 2048)">
   <path fill="currentColor"
d="M1607 504q11 -17 39 -56t74 -86q46 -46 107 -92q61 -47 114 -67l52 -21v-32q-17 -1 -37 -2q-21 -2 -45 -14q-24 -11 -35 -28l-18 -26q-26 16 -57 38q-31 21 -98 94q-67 74 -117 160l-17 29l-12 19q-5 -9 -19 -31q-13 -22 -67 -81q-54 -60 -140 -132t-145 -106l-47 -28
l-26 33l69 51q45 33 112 102q68 69 122 142q55 72 82 117l13 22l-15 29q-8 15 -32 72q-25 58 -66 192q-42 133 -60 228l-15 74l43 16q11 -49 30 -124q18 -76 51 -163t61 -147q27 -60 35 -73l11 -19l10 24l30 70q26 60 56 166q30 105 52 246q21 141 27 212l6 75h-338l-7 -23
q-4 -12 -16 -47l-26 -71q-13 -37 -31 -74q-18 -38 -53 -104q-36 -67 -46 -81l-32 -46l-27 22l29 59q14 29 32 72t32 88l28 90l24 84q11 38 20 79t18 91l18 97q9 48 13 74l6 46l9 64q6 43 7 58l4 52l135 -42q28 -9 40 -19q11 -11 12 -24q0 -13 -12 -20q-13 -7 -36 -10l-48 -7
l-14 -69q-6 -32 -13 -72t-10 -54l-14 -60q-11 -47 -14 -59l-11 -37h336l99 101l120 -107q10 -10 15 -16q4 -5 1 -17q-3 -10 -11 -14t-15 -4h-121q-6 -60 -18 -171t-39 -231t-68 -242t-91 -212zM869 1624l104 -40q30 -12 39 -24q10 -11 8 -21q-3 -11 -20 -19q-16 -8 -52 -8
h-31l-51 -83l-69 -102l-43 -64h249l61 72l68 -50q18 -14 28 -25q11 -10 13 -20q2 -11 -7 -23q-5 -6 -30 -20l-26 -14v-964q0 -40 -10 -67q-10 -26 -28 -43q-17 -17 -44 -35q-28 -17 -37 -18l-31 -7l-6 35q-4 19 -18 36q-14 18 -42 30q-27 13 -83 24l-61 11l8 46
q49 -9 74 -12l53 -7q49 -8 76 -10q27 -1 39 12.5t12 46.5v946h-227v-181q0 -29 7 -39q6 -10 18 -15q11 -6 29 -5q17 0 51 9q33 8 50 6q14 -3 24 -11q11 -8 22 -25q10 -17 9 -28q-2 -15 -18 -26q-16 -10 -50 -15t-64 -5q-12 -1 -53 0q-42 2 -70 13t-41 33t-13 40q-1 18 -1 64
v185h-126q-4 -41 -9 -79q-4 -37 -18 -85q-15 -48 -40 -86q-26 -38 -74 -77q-49 -39 -92 -57l-40 -18l-17 34l43 32q24 19 53 51t47 69t30 86q11 49 15 89l4 41h-205v-1105q0 -18 -9 -30q-9 -13 -44 -12q-31 0 -43 12q-11 12 -11 46l4 68v68l4 79v865q-4 56 -4 68l-4 69
l111 -72h232q-10 4 -18 9q-7 5 -12 15q-6 10 -9 28l-14 69q-11 44 -31 88q-21 43 -46 77l-42 58l20 17h-58q-24 0 -56 -2q-33 -3 -42 -4q-9 0 -26 -2l-24 -3l-39 86l51 -8l42 -7q17 -2 44 -4q28 -1 50 -1h319q-6 6 -9 10q-2 4 -4 10t-10 33q-8 26 -16 46q-7 19 -18 40
q-10 20 -38 57l-31 39l26 26l46 -34q21 -15 55.5 -43t52.5 -52.5t23 -43.5t2 -43t-11 -31l-14 -14h267l103 105l134 -105q12 -10 16 -22t-1 -21q-3 -5 -10 -8q-7 -4 -16 -4h-279zM841 1624h-487q16 -16 25 -24l23 -22q14 -13 40 -42t52 -62q25 -34 40 -68q15 -33 17 -62
q2 -28 -1 -40q-4 -12 -12 -23t-14 -13l-10 -5h182l40 84q18 39 44 106q27 67 37 98zM502 735h232l57 76l84 -61q16 -13 21 -20q6 -6 5 -18q-2 -12 -13 -24q-10 -12 -29 -22l-21 -11v-201l29 -23q25 -20 25 -37q-1 -17 -20 -17h-386v-50q0 -10 -12 -20t-33 -11q-24 -2 -38 6
t-17 16q-4 8 -2 22l4 33l1 31l3 49l1 348zM486 435h256v244h-256v-244z" />
  </g>

</svg>
