<?xml version="1.0" standalone="no"?>
<!DOCTYPE svg PUBLIC "-//W3C//DTD SVG 1.1//EN" "http://www.w3.org/Graphics/SVG/1.1/DTD/svg11.dtd" >
<svg xmlns="http://www.w3.org/2000/svg" xmlns:xlink="http://www.w3.org/1999/xlink" version="1.1" viewBox="0 -205 1024 1024">
  <g transform="matrix(1 0 0 -1 0 819)">
   <path fill="currentColor"
d="M116 616h650l36 40q66 -48 66 -54q1 -6 -4 -8q-5 -3 -34 -26v-60q2 -126 -4 -186t-30 -90q-24 -29 -78 -46q-3 27 -30 46q-27 18 -104 36l4 20q88 -15 110 -18q21 -4 48 2q24 6 28 70q6 63 4 174v72h-290v-422l4 -99q1 -14 -16 -26q-15 -12 -42 -16l4 141v422h-234
q-17 2 -58 -10l-30 38v0v0zM370 974l84 -28q6 -2 6 -10q-3 -7 -38 -22v-88h206v146l86 -34q11 -6 2 -14q0 -4 -36 -16v-82h190l40 54l64 -64q3 -3 4 -8q-1 -7 -16 -8h-282v-40l4 -60q-1 -18 -22 -30q-21 -10 -38 -10l4 108v32h-206v-30l4 -70q0 -15 -18 -26q-18 -12 -42 -14
l4 112v28h-234q-22 0 -70 -6l-18 32h322v148v0v0z" />
  </g>

</svg>
