<?xml version="1.0" standalone="no"?>
<!DOCTYPE svg PUBLIC "-//W3C//DTD SVG 1.1//EN" "http://www.w3.org/Graphics/SVG/1.1/DTD/svg11.dtd" >
<svg xmlns="http://www.w3.org/2000/svg" xmlns:xlink="http://www.w3.org/1999/xlink" version="1.1" viewBox="0 -144 1024 1024">
  <g transform="matrix(1 0 0 -1 0 880)">
   <path fill="currentColor"
d="M740 505l-4 -71h147v223h-143v-152zM947 135l-1 -13l-2 -14l-4 -13l-7 -12l-9 -11l-11 -9l-12 -6l-13 -5l-13 -2l-14 -1v32l-107 16v17h107h7l4 1l4 1l1 1l2 2l2 5l1 5l1 6h64zM110 88l64 -4l-11 -22l-23 -8l-22 11zM284 701l9 -4l-114 -351l-18 -64l-5 -22l-2 -15l-4 1
l5 -12l9 -33l6 -36l4 -39v-42l-64 4l2 38l1 35l-2 32l-4 28l-7 25l-4 13l-5 1l2 5l-12 23l-13 18l-16 16l-20 16l4 8l26 -6l24 -12l22 -17l2 -2l110 255zM318 957l64 -33h129l32 27l60 -48l-27 -22v-742l-65 -32v22h-150l-43 -22v850zM511 408h-129v-258h129v258zM511 655
h-129v-225h129v225zM116 602l-4 10l-6 11l-7 10l-8 11l-22 22l-27 22l-17 9l3 10l20 -6l18 -4l18 -6l16 -7l16 -8l15 -9l13 -10l12 -11l12 -13l9 -14l1 -24l-16 -19h-25l-18 16zM511 903h-129v-226h129v226zM883 902h-143v-223h143v223zM180 848l-4 11l-6 11l-7 11l-9 11
l-10 11l-22 21l-13 12l-16 9l4 9l18 -6l18 -4l16 -6l16 -7l15 -8l14 -9l13 -10l13 -11l11 -12l10 -13l2 -25l-16 -19l-24 -2l-19 16zM676 505v450l64 -32h143l32 27l59 -48l-27 -22v-745h-64v278h-149l-5 -48l-11 -61l-16 -56l-19 -50l-24 -44l-28 -38l-32 -31l-35 -24
l-39 -16l-4 8l31 25l27 27l24 32l20 36l17 42l14 47l10 52l8 58l3 64z" />
  </g>

</svg>
