<?xml version="1.0" standalone="no"?>
<!DOCTYPE svg PUBLIC "-//W3C//DTD SVG 1.1//EN" "http://www.w3.org/Graphics/SVG/1.1/DTD/svg11.dtd" >
<svg xmlns="http://www.w3.org/2000/svg" xmlns:xlink="http://www.w3.org/1999/xlink" version="1.1" viewBox="0 -36 256 256">
  <g transform="matrix(1 0 0 -1 0 220)">
   <path fill="currentColor"
d="M42.5 193q6.5 -12 -1 -22t-10.5 7t-13 38l3 2q15 -13 21.5 -25zM55 244l23 -9l-9 -10v-70h18l10 13l15 -20h-43v-18q20 -12 28 -19.5t3 -20t-11 2.5t-20 31v-77q0 -13 1 -31l-15 -7q1 42 1 108q-16 -35 -42 -63l-3 2q31 46 42 92h-9q-13 0 -22 -3l-10 10h44q0 58 -1 89z
M103 205q-13 -25 -28 -41l-2 2q12 21 20 54l18 -11zM141 230q-4 -14 -9 -28h23l10 11l15 -18h-39q14 -8 18 -15t-3 -16t-9 4.5t-11 26.5h-7q-4 -20 -25 -42l-2 3q24 46 26 89l22 -12zM227.5 177.5q5.5 -8.5 -2 -17t-9 3t-12.5 33.5h-11q-7 -23 -23 -42l-3 3q10 20 16.5 44.5
t6.5 42.5l23 -11l-10 -5l-7 -25h28l10 11l14 -18h-40q14 -11 19.5 -19.5zM150 160q13 -6 21.5 -11t9 -10t-5 -11t-8.5 4t-19 26zM207 124l14 12l17 -19h-104q-10 1 -19 -1l-9 8h101zM127 110q15 -18 23.5 -31t8.5 -22t-6 -15.5t-8.5 11t-21.5 56.5zM177 26h38l13 13l18 -20
h-116q-13 1 -24 -2l-9 9h73q25 52 27 89l23 -13l-10 -5q-15 -46 -33 -71z" />
  </g>

</svg>
