<?xml version="1.0" standalone="no"?>
<!DOCTYPE svg PUBLIC "-//W3C//DTD SVG 1.1//EN" "http://www.w3.org/Graphics/SVG/1.1/DTD/svg11.dtd" >
<svg xmlns="http://www.w3.org/2000/svg" xmlns:xlink="http://www.w3.org/1999/xlink" version="1.1" viewBox="0 -36 256 256">
  <g transform="matrix(1 0 0 -1 0 220)">
   <path fill="currentColor"
d="M76 220q25 -10 36 -16.5t8 -19.5t-12.5 1t-34.5 31q-22 -42 -62 -74l-3 3q24 25 42.5 58.5t19.5 42.5l19 -12q-6 -1 -13 -14zM109 117q0 -22 1 -35l-14 -9v8h-50v-47l40 19q-4 8 -13 22l3 3q22 -18 28.5 -28t0 -19t-10 0t-6.5 18q-45 -30 -48 -39l-11 16q4 6 4 13v77
q0 25 -1 44l15 -10h49l8 9l13 -15l-8 -5v-22zM46 119h50v24h-50v-24zM46 88h50v24h-50v-24zM131 193.5q0 34.5 -1 47.5l15 -9h65l8 10l13 -14l-7 -6q0 -53 1 -65l-14 -7v11h-67v-8l-14 -6q1 12 1 46.5zM151 127h74l9 11l13 -16l-8 -5q-5 -79 -13.5 -92.5t-20.5 -16.5
q-4 16 -25 23v4q18 -4 26.5 -3.5t11 11.5t8.5 77h-14q-23 -83 -96 -106l-1 4q63 32 83 102h-18q-17 -49 -66 -73l-2 4q43 32 54 69h-18q-16 -20 -36 -34l-2 3q13 14 24 32t16 37l18 -11l-6 -4q-6 -10 -11 -16zM144 200h67v25h-67v-25zM144 168h67v25h-67v-25zM81 178l12 11
l13 -18h-43q-11 0 -13 -2l-4 9h35z" />
  </g>

</svg>
