<?xml version="1.0" standalone="no"?>
<!DOCTYPE svg PUBLIC "-//W3C//DTD SVG 1.1//EN" "http://www.w3.org/Graphics/SVG/1.1/DTD/svg11.dtd" >
<svg xmlns="http://www.w3.org/2000/svg" xmlns:xlink="http://www.w3.org/1999/xlink" version="1.1" viewBox="0 -205 1024 1024">
  <g transform="matrix(1 0 0 -1 0 819)">
   <path fill="currentColor"
d="M906 956l52 -54q3 -4 4 -8q-1 -9 -8 -8h-458v-204h404l34 42l56 -52q3 -4 4 -8q0 -9 -8 -8h-280q24 -57 72 -108q53 42 100 88q53 -38 56 -46q0 -6 -2 -8q-3 -3 -18 -2q-15 0 -44 -8q-28 -10 -74 -38q30 -28 64 -44q30 -14 58 -22q27 -7 90 -14v-18q-24 0 -48 -8
q-21 -6 -36 -30q-46 23 -88 52q-40 27 -80 72q-39 45 -72 132h-62v-196q37 18 116 54l10 -14q-79 -51 -106 -72q-27 -22 -48 -50l-54 52l32 18v210h-74q-3 -219 -30 -360q-28 -141 -148 -263l-12 10q86 119 116 245q27 126 24 348v320l64 -44h356l38 44v0v0zM516 796h308
l36 42l52 -50q2 -1 8 -8q-1 -10 -10 -10h-332q-22 0 -40 -8l-22 34v0v0zM480 310h306v98l74 -28q9 0 4 -14q0 3 -30 -14v-42h82l36 42l50 -50q3 -3 4 -8q0 -10 -12 -10h-160v-199q-3 -30 -26 -48q-21 -18 -48 -24q-6 36 -38 48q-30 12 -78 24l4 18q93 -21 114 -16
q24 3 24 24v173h-248q-18 0 -36 -8l-22 34v0v0zM560 258l8 10q72 -36 90 -60q15 -24 12 -44q-3 -18 -14 -24q-12 -5 -26 -1q-12 2 -14 21q-2 17 -10 40q-8 21 -46 58v0v0zM126 670h160l34 46l56 -56q6 -12 -2 -18h-128v-138h80l38 38l44 -46q15 -12 0 -20h-162v-282l136 24
l4 -18q-211 -57 -254 -75q-41 -18 -64 -42l-42 71l172 32v290h-88q-21 0 -56 -8l-16 36h160v138h-34l-18 -6l-20 34v0v0zM24 578q51 77 102 170q47 90 104 228l68 -34q4 -6 0 -12q-5 -3 -16 -6q-9 -3 -26 -26q69 -36 102 -62q34 -24 44 -48q10 -21 0 -38q-12 -18 -26 -14
q-15 2 -26 26q-12 23 -32 50q-21 27 -72 72q-40 -82 -88 -160t-122 -156l-12 10v0v0zM60 408l12 8q51 -46 66 -76q14 -30 16 -56q1 -27 -16 -38q-15 -10 -30 -4q-13 6 -14 28v54q-1 30 -34 84v0v0zM264 254q45 87 88 168l54 -38q3 -9 -2 -12q-7 -3 -20 -6q-12 -4 -30 -28
q-19 -23 -76 -94l-14 10v0v0z" />
  </g>

</svg>
