<?xml version="1.0" standalone="no"?>
<!DOCTYPE svg PUBLIC "-//W3C//DTD SVG 1.1//EN" "http://www.w3.org/Graphics/SVG/1.1/DTD/svg11.dtd" >
<svg xmlns="http://www.w3.org/2000/svg" xmlns:xlink="http://www.w3.org/1999/xlink" version="1.1" viewBox="0 -205 1024 1024">
  <g transform="matrix(1 0 0 -1 0 819)">
   <path fill="currentColor"
d="M56 716h216v246l72 -24q10 0 8 -14q0 3 -32 -18v-58h92l36 36q47 -39 52 -48q5 -8 2 -10q-3 -3 -12 -2h-170v-108h138l36 40l56 -48q3 0 4 -6q0 -10 -12 -10h-420q-21 -1 -44 -10l-22 34v0v0zM160 530q-33 -36 -122 -108l-8 12q64 62 146 196l58 -38q1 -12 -10 -14
q-13 0 -22 -6q-9 -3 -42 -42v0v0zM386 610q62 -27 98 -48q33 -21 42 -42q7 -22 0 -38q-6 -14 -24 -16q-18 0 -30 24q-10 24 -26 48q-16 23 -68 58l8 14v0v0zM318 622v-160q2 -35 -16 -58t-56 -34q-6 30 -38 48q-33 17 -74 28l4 18q107 -25 122 -20q12 5 10 44v190
q80 -24 82 -30q3 -5 0 -10q-4 -4 -34 -16v0v0zM472 392q167 99 236 184q-82 108 -106 288h-20q-19 1 -46 -4l-20 30h308l28 34q62 -49 62 -52t-2 -6q0 -3 -30 -18q-48 -181 -122 -268q38 -41 80 -70q41 -30 74 -42q29 -12 92 -26v-16q-28 3 -52 -6q-24 -6 -36 -30
q-43 26 -88 64q-45 36 -96 94q-58 -75 -254 -170l-8 14v0v0zM628 864q23 -141 104 -254q57 83 100 254h-204v0v0zM188 288h18q-5 -93 -16 -128q-12 -32 -30 -57q-19 -24 -44 -34q-24 -7 -36 -2q-13 7 -16 22q-3 14 12 28q15 13 34 23q15 10 36 32q18 22 42 116v0v0v0z
M470 368q80 -45 106 -78q24 -31 22 -52q-1 -21 -14 -32q-12 -9 -26 -6q-15 2 -20 28t-16 50q-12 22 -62 80l10 10v0v0zM796 298q92 -53 122 -82q30 -28 42 -52q12 -23 10 -39q-1 -18 -10 -30q-10 -13 -28 -12q-18 0 -26 30q-6 27 -24 65q-17 38 -94 106l8 14v0v0zM356 248
v-115q0 -42 12 -48t40 -6h248q30 0 42 8q9 6 16 20q5 16 8 41q3 24 6 106h22q3 -72 10 -104q5 -30 34 -45q-16 -35 -40 -52q-21 -13 -74 -18h-306q-27 -1 -48 16q-21 15 -20 68v195l80 -32q12 -7 6 -14q-6 -6 -36 -20v0v0z" />
  </g>

</svg>
