<?xml version="1.0" standalone="no"?>
<!DOCTYPE svg PUBLIC "-//W3C//DTD SVG 1.1//EN" "http://www.w3.org/Graphics/SVG/1.1/DTD/svg11.dtd" >
<svg xmlns="http://www.w3.org/2000/svg" xmlns:xlink="http://www.w3.org/1999/xlink" version="1.1" viewBox="0 -144 1024 1024">
  <g transform="matrix(1 0 0 -1 0 880)">
   <path fill="currentColor"
d="M843 59l-14 2l-13 2l-13 4l-12 6l-11 10l-9 10l-7 12l-4 13l-3 14l-1 13l-4 323h-28l-4 -45l-8 -53l-10 -50l-13 -49l-17 -45l-18 -43l-21 -40l-24 -38l-27 -34l-25 -24v-19h-536v22h96v385l65 -32h216l32 27l59 -49l-27 -21v-310h19l33 37l36 -30l34 63l17 38l16 41
l12 41l11 44l9 46l6 48l4 50l1 40h-40v-64l-59 -30v613l59 -30h223l33 27l59 -48l-27 -22v-478l-65 -32v64h-26l4 -322v-6l1 -5l2 -3l1 -4l3 -1l4 -1l4 -1l7 -1h77l31 134h11l-11 -134l19 -13l13 -19l-13 -20l-19 -13h-108zM398 149h-216v-99h216v99zM398 265h-216v-94h216
v94zM398 381h-216v-94h216v94zM467 791l54 -49l-27 -16v-253l-54 -26v26h-301l-54 -26v344l54 -27h301zM843 629h-223v-139h223v139zM440 742h-301v-247h301v247zM370 721l57 -49l-27 -18v-95l-59 -29v29h-110l-54 -26v188l54 -27h110zM341 672h-110v-91h110v91zM843 785
h-223v-134h223v134zM843 936h-223v-129h223v129zM26 823v21h231v140l65 -11l16 -10l-16 -10v-109h133l44 49l54 -49v-21h-527z" />
  </g>

</svg>
