<?xml version="1.0" standalone="no"?>
<!DOCTYPE svg PUBLIC "-//W3C//DTD SVG 1.1//EN" "http://www.w3.org/Graphics/SVG/1.1/DTD/svg11.dtd" >
<svg xmlns="http://www.w3.org/2000/svg" xmlns:xlink="http://www.w3.org/1999/xlink" version="1.1" viewBox="0 -36 256 256">
  <g transform="matrix(1 0 0 -1 0 220)">
   <path fill="currentColor"
d="M115 103q-4 -2 -12 -16t-12 -20l26 4q-4 9 -7 14l3 2q14 -10 17.5 -16t-0.5 -13t-6 -3.5t-5 11.5q-26 -9 -30 -15l-9 16q5 0 12 18.5t8 28.5zM39 172h23v28h-23v-28zM75 172h23v28h-23v-28zM39 131h23v34h-23v-34zM75 131h23v34h-23v-34zM213.5 209q-8.5 -11 -28.5 -29
q23 -15 58 -20v-4q-13 -2 -15 -10q-30 9 -51 26q-22 -16 -57 -27l-2 4q31 13 52 31q-17 19 -27 41h-3l-5 -3l-8 10h79l6 7l14 -14q-4 -1 -12.5 -12zM177 186q18 19 28 35h-56q13 -22 28 -35zM173 108v23h-17l-16 -2l-8 9h41v12l-1 12l21 -9l-8 -6v-9h19l10 7l13 -14h-42v-23
h28l10 8l14 -15h-45q26 -32 53 -39v-4q-13 0 -16 -8q-30 19 -42 51h-2v-33l1 -33l-14 -5l1 29v30q-17 -27 -54 -48l-1 4q32 26 48 56h-17q-9 -1 -17 -3l-9 10h50zM84 127v-87q-1 -16 11 -16h125q6 0 8.5 5.5t3.5 22.5h4l2.5 -12t9.5 -14q-8 -13 -25 -13h-131q-20 0 -20 20
v94h12zM10 7l-2 3q40 51 47 114h-16v-6l-14 -5q1 19 1 53.5t-1 47.5l14 -7h14q8 22 12 39l16 -11q-3 -2 -7.5 -7t-14.5 -21h38l7 11l15 -12l-8 -8q0 -56 1 -75l-14 -8v9h-30q-10 -77 -58 -117z" />
  </g>

</svg>
