<?xml version="1.0" standalone="no"?>
<!DOCTYPE svg PUBLIC "-//W3C//DTD SVG 1.1//EN" "http://www.w3.org/Graphics/SVG/1.1/DTD/svg11.dtd" >
<svg xmlns="http://www.w3.org/2000/svg" xmlns:xlink="http://www.w3.org/1999/xlink" version="1.1" viewBox="0 -36 256 256">
  <g transform="matrix(1 0 0 -1 0 220)">
   <path fill="currentColor"
d="M130 231q-5 -11 -9 -19h79l15 12l17 -19h-86q18 -23 47 -36.5t55 -15.5v-4q-16 -2 -20 -13q-27 9 -52.5 29.5t-34.5 39.5h-23q-15 -26 -42 -42t-66 -27l-2 4q33 13 57 28.5t37 36.5h-50q-11 0 -20 -2l-9 9h82q8 16 11 35l20 -11zM52 161l15 -5h97l12 10l17 -17h-63v-17
h36l11 11l15 -18h-62v-18h36l12 11l15 -18h-63v-17l77 1l11 9l14 -15l-9 -5q-4 -34 -11 -48.5t-27 -16.5q0 3 -3 6.5t-24 10.5l1 4q20 -5 27.5 -5t10 3t5.5 13.5t6 36.5l-141 -2v-5l-15 -5q1 21 1 38v39q0 12 -1 19zM48 65q0 -20 -3.5 -27t-8.5 -9.5t-10 -3t-5.5 3t5.5 8.5
t11 9.5t8 18.5h3zM77 64q14 -8 20 -15t5.5 -11.5t-3 -7.5t-8 -3t-5 6t-2.5 13.5t-10 16.5zM67 132h49v17h-49v-17zM67 107h49v18h-49v-18zM67 82l49 1v17h-49v-18zM151 66q20 -8 25 -12t6 -9.5t-4.5 -10t-8.5 3t-7.5 13t-12.5 12.5zM114 65q15 -9 21 -15.5t5 -11t-3.5 -7.5
t-7 -3t-5 6.5t-4 14t-9.5 14.5z" />
  </g>

</svg>
