<?xml version="1.0" standalone="no"?>
<!DOCTYPE svg PUBLIC "-//W3C//DTD SVG 1.1//EN" "http://www.w3.org/Graphics/SVG/1.1/DTD/svg11.dtd" >
<svg xmlns="http://www.w3.org/2000/svg" xmlns:xlink="http://www.w3.org/1999/xlink" version="1.1" viewBox="0 -52 256 256">
  <g transform="matrix(1 0 0 -1 0 204)">
   <path fill="currentColor"
d="M164 209v-93q0 -16 -22 -17q0 11 -21 15l1 3q24 -4 27 -4q4 0 4 1q2 2 2 17v16h-56v-24l1 -14q0 -7 -10 -11h-1v9q1 16 1 27v81q0 7 -4 10l3 2l8 -11h25v17q0 4 -6 10l1 2l19 -5q2 -1 1 -3q-3 0 -6 -4v-17h20l6 9l11 -9q3 -3 0 -4zM38 69h82v21q0 4 -6 10l2 3l20 -8l3 -2
q0 -1 -6 -5q-1 -1 -2 -1v-18h57l9 11l17 -12l1 -2q0 -2 -5 -2h-79v-38h86l8 12l18 -13q3 -2 2 -3q0 -1 -3 -1h-216q-6 0 -10 -3l-8 8h112v38h-63q-6 0 -11 -3zM33 231l12 -9q21 10 23 16v2v3l2 1l15 -11l1 -1v-2t-1 -1q-8 0 -16 -3q-10 -5 -22 -9v-37h11l8 9l14 -11
q2 0 2 -1q0 -2 -3 -2h-32v-42h12l8 9l14 -11l1 -1q1 0 1 -1l-3 -1h-33v-31q-2 -7 -12 -9v15q1 17 1 22v92q1 5 -5 12zM205 96v32h-11q-7 0 -12 -4l-9 9h32v42h-11q-7 1 -11 -2l-9 7h31v42h-22q-4 0 -9 -3l-8 8h37l9 8l10 -11l1 -2q1 -2 -2 -2l-6 -4v-78q0 -3 1 -21v-14
q-3 -7 -11 -7zM155 179h-24v-28h24v28zM122 211h-23v-28h23v28zM131 183h24v28h-24v-28zM122 179h-23v-28h23v28z" />
  </g>

</svg>
