<?xml version="1.0" standalone="no"?>
<!DOCTYPE svg PUBLIC "-//W3C//DTD SVG 1.1//EN" "http://www.w3.org/Graphics/SVG/1.1/DTD/svg11.dtd" >
<svg xmlns="http://www.w3.org/2000/svg" xmlns:xlink="http://www.w3.org/1999/xlink" version="1.1" viewBox="0 -205 1024 1024">
  <g transform="matrix(1 0 0 -1 0 819)">
   <path fill="currentColor"
d="M402 862h252v120l78 -28q9 -4 10 -8q3 -7 -6 -10l-28 -14v-60h150l36 50l62 -58q3 -4 4 -8q0 -12 -12 -12h-240v-92h108l36 42l56 -52q3 -3 4 -6q0 -12 -12 -12h-192v-94h182l38 46l62 -52q3 -4 4 -10q-1 -12 -16 -12h-512q-21 0 -68 -8l-16 36h272v94h-124q-21 0 -68 -8
l-16 36h208v92h-168q-21 0 -68 -8l-16 36v0v0zM478 540l54 -38h284l34 36l52 -38q8 -3 8 -12q1 -7 -28 -26v-367q0 -33 -14 -48q-12 -17 -56 -34q-7 34 -34 46q-25 12 -76 26l4 18q57 -9 72 -12l36 -2q18 0 18 26v121h-304v-88l4 -89q0 -14 -20 -26q-21 -14 -38 -14l4 127
v394v0v0zM528 262h304v90h-304v-90v0v0zM528 378h304v98h-304v-98v0v0zM112 280h20q6 -84 4 -126q-1 -37 -20 -65q-19 -24 -34 -28q-13 -4 -26 4q-13 7 -14 22t20 36q17 20 26 37q8 15 14 36t10 84v0v0zM194 302l16 6q36 -51 52 -90q15 -39 16 -66q0 -23 -14 -37
q-12 -11 -30 -2q-15 9 -12 43q3 36 -2 66q-6 29 -26 80v0v0zM310 324l12 8q54 -39 82 -78q26 -37 26 -64q1 -28 -16 -40q-15 -12 -30 -6q-16 3 -16 36q-1 33 -14 66q-12 33 -44 78v0v0zM312 906q8 -6 -4 -14q-17 -3 -28 -14q-12 -12 -56 -78q-43 -67 -112 -158h150
q33 51 70 132l74 -40q7 -13 -10 -16q-19 -7 -32 -20q-13 -9 -68 -90q-54 -79 -156 -194l202 14q-13 50 -46 94l12 12q51 -43 72 -74q22 -31 26 -58q4 -28 -6 -40q-12 -12 -24 -12q-12 -1 -18 8q-7 8 -8 20q-1 9 -4 28q-81 -7 -146 -22q-64 -12 -100 -36l-36 70q24 0 52 12
q62 69 134 192q-78 -12 -114 -18q-34 -6 -64 -24l-32 66q27 3 48 16q18 9 72 108q52 99 80 174l72 -38v0v0z" />
  </g>

</svg>
