<?xml version="1.0" standalone="no"?>
<!DOCTYPE svg PUBLIC "-//W3C//DTD SVG 1.1//EN" "http://www.w3.org/Graphics/SVG/1.1/DTD/svg11.dtd" >
<svg xmlns="http://www.w3.org/2000/svg" xmlns:xlink="http://www.w3.org/1999/xlink" version="1.1" viewBox="0 -36 256 256">
  <g transform="matrix(1 0 0 -1 0 220)">
   <path fill="currentColor"
d="M22 73q6 -30 3 -39t-8 -12t-9.5 1t2 13t8.5 36zM143 246q18 -6 27 -12.5t-2 -17.5h52l12 12l15 -19h-132q-10 0 -19 -2l-9 9h74q-4 15 -20 27zM136 174q9 8 14 16h-21q-13 0 -22 -3l-10 10h53l7 6l16 -12l-9 -3q-13 -16 -19 -19q18 -9 18 -14t-4.5 -8.5t-8 2.5t-13.5 14
q-15 -11 -49 -19l-2 4q30 11 42 21l-20 13l4 3zM213 169q18 -8 20.5 -13.5t-1.5 -10.5t-9.5 2.5t-17.5 15.5q-17 -13 -40 -20l-2 3q20 11 32 22l-24 13l2 4l30 -11q6 5 12 14h-9q-13 0 -22 -3l-10 10h44l7 8l14 -13l-8 -3zM215 131h-12q-13 0 -22 -3l-10 10h45l7 6l15 -13
l-8 -3q-7 -9 -16 -17q15 -7 20 -10.5t2 -13t-11 0.5t-19 15q-14 -11 -45 -20l-2 4q25 12 37 23l-23 11l2 4l28 -9q10 10 12 15zM132 116q10 8 14 15h-23q-13 0 -22 -3l-10 10h57l7 6l14 -12l-8 -4q-7 -8 -19 -17q16 -7 17.5 -12.5t-3.5 -9t-9 2.5t-12 11q-22 -14 -44 -19
l-2 4q25 11 36 22l-22 13l2 4zM165 64q-19 -46 -84 -56l-1 4q54 15 71 52h-27q-13 0 -22 -3l-10 10h61q2 7 4 18l19 -9l-8 -4l-2 -5h55l11 10l16 -17h-71q20 -34 70 -43v-4q-15 0 -19 -10q-46 22 -57 57h-6zM38 76l3 2q20 -23 20.5 -33t-7 -13.5t-7.5 6.5t-9 38zM67 85
q23 -20 24.5 -28t-4.5 -14.5t-8 4.5t-16 35zM62 225q-19 -34 -37 -57l39 1q7 12 13 23l16 -14l-9 -2q-37 -51 -61 -72l53 5q-5 13 -14 27l2 3q30 -26 30 -35.5t-6 -13.5t-7 1.5t-4 12.5q-23 -5 -37 -9t-24 -9l-7 19q7 -1 21.5 16t29.5 42q-32 -6 -41 -13l-8 19q7 -2 20 22
t21 50l20 -11z" />
  </g>

</svg>
