<?xml version="1.0" standalone="no"?>
<!DOCTYPE svg PUBLIC "-//W3C//DTD SVG 1.1//EN" "http://www.w3.org/Graphics/SVG/1.1/DTD/svg11.dtd" >
<svg xmlns="http://www.w3.org/2000/svg" xmlns:xlink="http://www.w3.org/1999/xlink" version="1.1" viewBox="0 -205 1024 1024">
  <g transform="matrix(1 0 0 -1 0 819)">
   <path fill="currentColor"
d="M339 850q-6 8 -2 15q6 8 18 -1q102 -44 183 -100q59 60 81 127q2 10 5 11q7 2 71 -44q7 -6 6 -10q-2 -6 -14 -3q-13 2 -26 -5q-9 -4 -25 -28q-27 -40 -62 -80q7 -4 13 -10q64 -48 96 -84q16 -20 10 -45q-7 -24 -14 -34q-7 -9 -14 -9q-8 2 -12 15q-48 76 -114 132
q-86 -78 -260 -155q-21 -11 -27 -1q-6 13 6 20q112 59 167 101q50 33 81 70q-70 63 -167 118zM706 958q7 1 11 4l32 36q3 3 7 3t8 -3q37 -32 59 -49l3 -3q0 -2 -3 -3q-35 -14 -38 -18q-4 -5 -3 -19q8 -175 24 -219q19 -56 58 -91q21 -21 25 -20q8 1 15 15q15 32 36 102
q3 8 13 7q8 -3 7 -11q-18 -63 -17 -106q1 -40 11 -72q4 -8 -2 -11q-6 -4 -25 6q-37 9 -93 56q-57 57 -75 126q-22 66 -26 239h-450v-50q-1 -86 -14 -151q-15 -56 -55 -111q-43 -56 -155 -104q-10 -6 -16 0q-7 6 2 14q106 53 137 103q29 54 42 109q11 67 11 140v59
q0 31 -4 52q-3 9 3 10q5 2 12 -6q18 -17 43 -34h417zM567 462v-64q0 -94 -7 -150q-6 -58 -26 -101q-19 -42 -67 -97q-11 -7 -20 -3q-11 5 -3 12q15 22 26 41q16 28 22 43q19 48 25 110q5 60 5 145v80q0 25 -4 38q-3 7 0 9q5 1 16 -5q17 -12 38 -25h216q11 1 14 3l23 27l8 6
l8 -6q21 -17 44 -39q3 -2 -1 -3q-21 -6 -24 -8q-7 -4 -8 -42q-2 -160 10 -227q9 -42 38 -80q11 -14 17 -14q8 -1 14 5q11 9 37 71q3 5 11 4q7 -1 6 -7q-18 -41 -19 -73q-2 -30 6 -51q5 -8 0 -11t-25 5q-48 18 -83 54q-37 40 -45 93q-16 79 -10 260h-242zM148 462v-64
q0 -94 -7 -150q-7 -58 -26 -101q-18 -46 -47 -91q-6 -11 -22 -9q-13 2 -6 13q11 18 22 46q9 22 17 48q13 37 18 99q6 60 6 145v80q0 25 -4 38q-4 7 0 9q5 1 16 -5q17 -12 37 -25h216q12 1 14 3l24 27q3 3 7 6q5 -3 9 -6q21 -17 43 -39q3 -2 -1 -3q-20 -6 -24 -8
q-6 -4 -7 -42q-2 -110 -6 -177q-4 -42 2 -80q0 -13 11 -14q13 -2 17 5q7 7 16 19q3 5 11 5q7 -1 7 -7q-9 -8 -12 -21q-3 -29 -19 -55q-3 -7 -10 -8q-12 2 -15 5q-30 18 -42 54q-13 40 -10 93q0 79 7 210h-242zM585 407q-4 9 3 13q8 4 15 -6q46 -47 87 -108q24 60 21 109
q-1 17 18 10q40 -17 56 -26q13 -6 13 -12t-9 -6t-18 -10q-12 -14 -20 -40q-11 -20 -34 -71q34 -43 69 -130q7 -25 -6 -44t-23 -26q-8 -6 -15 -3q-6 4 -6 17q-1 25 -41 145q-68 -113 -102 -165q-9 -12 -16 -6q-8 5 -1 17q41 67 94 196q-38 87 -85 146zM165 407q-4 9 3 13
q8 4 15 -6q46 -47 87 -108q24 60 21 109q-1 17 18 10q40 -17 56 -26q13 -6 13 -12t-9 -6t-18 -10q-12 -14 -20 -40q-11 -20 -34 -71q34 -43 69 -130q7 -25 -6 -44t-23 -26q-8 -6 -15 -3q-6 4 -6 17q-1 25 -41 145q-68 -113 -102 -165q-9 -12 -16 -6q-8 5 -1 17q41 67 94 196
q-38 87 -85 146z" />
  </g>

</svg>
