<?xml version="1.0" standalone="no"?>
<!DOCTYPE svg PUBLIC "-//W3C//DTD SVG 1.1//EN" "http://www.w3.org/Graphics/SVG/1.1/DTD/svg11.dtd" >
<svg xmlns="http://www.w3.org/2000/svg" xmlns:xlink="http://www.w3.org/1999/xlink" version="1.1" viewBox="0 -205 1024 1024">
  <g transform="matrix(1 0 0 -1 0 819)">
   <path fill="currentColor"
d="M502 976l58 -40q8 -4 8 -10q1 -3 -34 -24v-104l4 -62q1 -15 -16 -24q-17 -10 -40 -14v34h-312q2 -194 -4 -316q-7 -123 -44 -224q-35 -100 -88 -163l-16 10q42 69 70 171q27 102 30 216q4 114 0 306v238l66 -28h286l32 34v0v0zM170 916v-158h312v158h-312v0v0zM190 570
q78 27 148 52q66 24 138 54l54 -40q3 -4 4 -8q-1 -7 -10 -8h-38q-63 -12 -108 -24v-116l76 12l30 48l66 -46q9 -12 -2 -18l-170 -22v-116l134 22l22 44l64 -40q13 -15 -16 -20l-204 -32v-160q0 -25 6 -35q6 -9 22 -12q15 -3 46 -4h400q54 0 66 12q12 13 16 45q3 31 6 104h20
q0 -90 6 -108q6 -17 30 -29q-14 -41 -34 -56q-21 -13 -68 -14h-456q-40 0 -62 6q-21 3 -36 24q-13 21 -14 61v158l-96 -16q-22 -6 -34 -20l-30 36l162 28v114l-64 -8q-42 -6 -54 -18l-24 34l142 18v112q-63 -12 -134 -30l-4 16v0v0zM908 974l54 -48q12 -9 4 -18q1 -3 -16 -6
q-15 -3 -32 -18l-128 -142l26 -14q7 -6 2 -12l-30 -12v-120h100l34 42l64 -50q3 -3 4 -8q0 -12 -12 -12h-190v-310q0 -42 -20 -62q-22 -20 -68 -34q-7 33 -32 48q-23 15 -82 30l4 20q80 -15 104 -18q21 0 34 6q10 5 8 28v292h-124q-19 0 -68 -8l-16 36h208v186l38 -18
l100 164h-212q-16 0 -52 -8l-20 34h286l32 32v0v0z" />
  </g>

</svg>
