<?xml version="1.0" standalone="no"?>
<!DOCTYPE svg PUBLIC "-//W3C//DTD SVG 1.1//EN" "http://www.w3.org/Graphics/SVG/1.1/DTD/svg11.dtd" >
<svg xmlns="http://www.w3.org/2000/svg" xmlns:xlink="http://www.w3.org/1999/xlink" version="1.1" viewBox="0 -205 1024 1024">
  <g transform="matrix(1 0 0 -1 0 819)">
   <path fill="currentColor"
d="M402 648h140v176q-48 -16 -126 -34l-4 16q165 63 244 114q41 -51 44 -56q3 -6 -2 -8q-4 -2 -22 0q-15 2 -84 -22v-186h148v312l78 -28q15 -6 -2 -18l-28 -18v-248h116l38 44l58 -54q3 -3 4 -8q-1 -7 -4 -8h-212q1 -88 2 -136q1 -49 14 -122q48 84 96 198q72 -36 72 -44
q0 -10 -6 -10q-7 -1 -22 -4t-38 -44q-22 -39 -88 -144q18 -57 48 -108t48 -68q18 -14 24 -13q5 2 16 37q8 36 26 120l20 -4q-9 -72 -14 -120q-7 -45 2 -69q6 -21 16 -34q6 -10 4 -18q-4 -6 -14 -6q-10 1 -38 14q-27 15 -60 44q-33 31 -60 75q-28 44 -52 112
q-60 -73 -156 -149l-12 10q92 95 152 177q-21 84 -24 150q-2 63 -4 156h-148v-176l112 48l10 -14l-124 -68v-275q4 -54 -16 -76q-18 -20 -56 -28q-12 34 -38 46q-24 12 -72 26l4 18q71 -15 100 -18q30 0 30 39v240q-46 -27 -62 -42q-15 -12 -32 -38l-40 56l134 64v198h-72
q-22 2 -46 -10l-22 36v0v0zM832 886q60 -25 90 -50q26 -24 32 -44q3 -21 -6 -36q-10 -14 -28 -12q-16 2 -22 22q-4 17 -16 44q-10 26 -56 64l6 12v0v0zM302 926q13 -7 8 -14q0 -6 -12 -8q-14 -3 -28 -14q-12 -12 -68 -134h104l30 38l58 -44q6 -6 6 -8q1 -7 -34 -34v-458
l4 -82q0 -13 -18 -28q-18 -12 -36 -15v75h-160v-79q0 -15 -20 -30q-19 -14 -34 -14l4 123v598l58 -42h8q39 107 58 202l72 -32v0v0zM156 228h160v244h-160v-244v0v0zM156 500h160v228h-160v-228v0v0z" />
  </g>

</svg>
