<?xml version="1.0" standalone="no"?>
<!DOCTYPE svg PUBLIC "-//W3C//DTD SVG 1.1//EN" "http://www.w3.org/Graphics/SVG/1.1/DTD/svg11.dtd" >
<svg xmlns="http://www.w3.org/2000/svg" xmlns:xlink="http://www.w3.org/1999/xlink" version="1.1" viewBox="0 -200 1000 1000">
  <g transform="matrix(1 0 0 -1 0 800)">
   <path fill="currentColor"
d="M362 928l37 -33h486l34 40l51 -48q7 -6 5 -10q-1 -5 -11 -7l-18 -9v-671l4 -107q6 -39 -45 -43v78h-493v-46q2 -37 -48 -45q5 39 7 183v668q1 16 -20 35zM412 138h493v737h-493v-737zM669 865l86 -28q9 -5 10 -8t-6 -5q-22 -5 -34 -17q0 -19 1 -54q0 -38 1 -54h80l23 30
l55 -41q8 -5 7 -7q-2 -3 -13 -2h-152q0 -141 28 -261q9 19 16 41q33 93 29 101q-3 8 -11 19l7 9l74 -36q2 -4 1 -6t-6 -2q-16 2 -29 -21q-32 -94 -65 -157q23 -64 58 -99q14 -13 31 47l12 45l14 -4q-8 -68 -13 -91q-4 -24 6 -39q11 -16 4 -23q-64 -15 -115 72q-15 23 -26 46
q-55 -77 -149 -128l-10 11q107 87 145 158q-39 146 -41 318h-178q-26 1 -44 -13l-33 33h255v14q1 90 -2 107q-1 14 -24 32zM79 200l-45 47l131 57v302h-54q-29 0 -37 -12l-33 32h124v252h-58q-27 0 -44 -14l-33 34h219l32 39l58 -49q8 -6 6 -9q-2 -2 -12 -1h-127v-252h30
l21 34l67 -44q7 -6 5 -9q-1 -2 -11 -1h-112v-285l142 64l6 -17l-151 -78q-17 -10 -45 -25q-39 -22 -45 -26q-21 -12 -34 -39zM472 625l29 -35h83l26 28l47 -36q7 -4 5 -7q-1 -4 -11 -6l-17 -8v-102l4 -43q5 -38 -39 -43v39h-93v-26q3 -35 -42 -43q5 36 7 101v137
q2 12 -11 32zM506 428h93v146h-93v-146zM503 260q-25 -12 -37 -35l-31 46l216 61l6 -14q-113 -40 -154 -58zM767 816l4 12q54 -13 81 -41q25 -36 -7 -46q-12 -1 -27 22q-9 15 -16 22q-11 13 -35 31z" />
  </g>

</svg>
