<?xml version="1.0" standalone="no"?>
<!DOCTYPE svg PUBLIC "-//W3C//DTD SVG 1.1//EN" "http://www.w3.org/Graphics/SVG/1.1/DTD/svg11.dtd" >
<svg xmlns="http://www.w3.org/2000/svg" xmlns:xlink="http://www.w3.org/1999/xlink" version="1.1" viewBox="0 -154 1024 1024">
  <g transform="matrix(1 0 0 -1 0 870)">
   <path fill="currentColor"
d="M653 997l82 -30q14 -5 6 -11q-17 -5 -29 -18v-69h147l32 39l70 -46q16 -13 -10 -13h-239v-110h125l30 25l50 -46q11 -10 -5 -13q-21 4 -49 -29q-55 -63 -122 -107q112 -44 265 -44l-2 -14q-60 -3 -78 -35q-141 30 -224 70q-80 -44 -199 -73l35 -25h286l29 32l53 -33
q12 -8 -6 -17l-17 -12v-278l3 -70q-2 -34 -44 -34v70h-303v-34q2 -43 -49 -47q5 40 7 84v328q0 11 -13 32q-39 -9 -82 -17l-6 16q151 41 262 101q-87 52 -151 148h-9q-14 -1 -31 -10l-37 32h240v110h-184q-29 -1 -47 -13l-34 33h265v79q3 16 -26 38zM139 748q18 -5 10 -13
q-14 -4 -25 -16v-466l90 18v661q3 16 -26 42l8 11l82 -34q14 -5 6 -11q-17 -5 -26 -18v-642l90 21v417q6 17 -31 47l13 12l81 -36q14 -5 6 -11q-21 -8 -30 -21v-375l4 -101q0 -39 -43 -46v91l-227 -69q-9 -4 -23 -26l-44 48q20 8 30 25v469q-1 24 -24 43l7 11zM842 216h-303
v-92h303v92zM539 339h303v91h-303v-91zM842 323h-303v-91h303v91zM532 717q67 -80 163 -127q91 55 142 127h-305z" />
  </g>

</svg>
