<?xml version="1.0" standalone="no"?>
<!DOCTYPE svg PUBLIC "-//W3C//DTD SVG 1.1//EN" "http://www.w3.org/Graphics/SVG/1.1/DTD/svg11.dtd" >
<svg xmlns="http://www.w3.org/2000/svg" xmlns:xlink="http://www.w3.org/1999/xlink" version="1.1" viewBox="0 -36 256 256">
  <g transform="matrix(1 0 0 -1 0 220)">
   <path fill="currentColor"
d="M52 137q-16 1 -26 -2l-9 9h40v7q0 13 -1 36l22 -12l-7 -7v-24h11l11 11l14 -18h-36v-33q16 7 35 17l1 -4q-22 -13 -36 -21v-66q-1 -18 -21 -21q1 11 -21 20v4q29 -5 28 5v50q-11 -5 -28 -14l-4 -7l-12 15q15 5 44 18v37h-5zM124 132l2 4q9 -2 17 -3q7 11 9 22h-18
q-17 -25 -31 -33l-3 2q14 18 23 34.5t13 29.5l19 -11l-9 -2q-4 -7 -8 -13h74l8 10l15 -13l-9 -6l-2 -53q-2 -17 -24 -25q-1 11 -23 14v3q18 0 24.5 0.5t9.5 8.5l2 54h-15q-5 -18 -14 -34q11 -4 15 -8.5t1.5 -10.5t-8.5 -0.5t-14 9.5q-19 -25 -60 -38l-1 3q33 18 49 40
q-8 4 -16 7q-13 -16 -44 -30l-2 3q26 17 35 31q-7 2 -15 5zM113 65q0 -29 -7 -36t-15.5 -3.5t3 13t15.5 26.5h4zM153 79q23 -11 26 -17.5t-2.5 -15.5t-10 4.5t-16.5 26.5zM209 71q24 -13 31.5 -22.5t2 -19.5t-12 4.5t-24.5 34.5zM127 72l23 -8l-9 -6v-27q4 -5 14 -6h33
q11 -1 12.5 6.5t1.5 20.5h4q1 -14 2.5 -19.5t9.5 -8.5q-7 -11 -22 -11h-49q-17 0 -19 16v22q0 15 -1 21zM154 130q11 -2 19 -4q9 13 12 29h-20q-3 -12 -11 -25zM68 229l-10 -14h53l10 12l16 -19h-55q19 -11 20 -19t-5 -14t-9 7t-15 26h-19q-18 -24 -39 -40l-4 2q16 18 27 35
t19 41l21 -14zM172 230l-11 -15h57l11 11l16 -18h-62q14 -8 18.5 -13.5t3 -12t-6 -7.5t-8 9.5t-16.5 23.5h-17q-13 -15 -30 -31l-3 2q19 27 26.5 42t10.5 25l22 -14z" />
  </g>

</svg>
