<?xml version="1.0" standalone="no"?>
<!DOCTYPE svg PUBLIC "-//W3C//DTD SVG 1.1//EN" "http://www.w3.org/Graphics/SVG/1.1/DTD/svg11.dtd" >
<svg xmlns="http://www.w3.org/2000/svg" xmlns:xlink="http://www.w3.org/1999/xlink" version="1.1" viewBox="0 -36 256 256">
  <g transform="matrix(1 0 0 -1 0 220)">
   <path fill="currentColor"
d="M9 74q11 1 69 18l2 -5q-58 -22 -60 -29l-11 16v0zM97 113q-6 -71 -15.5 -83.5t-19.5 -16.5q-6 15 -27 22l1 4q20 -4 27 -4t11.5 10t9.5 69h-50l-6 -7l-13 11l9 7l6 75l18 -11l-6 -5l-6 -63h29l9 93h-35q-10 0 -19 -2l-7 9h60l8 9l13 -12l-7 -5l-9 -92h7l6 9l13 -12z
M192 186h18v24h-18v-24zM192 152h18v27h-18v-27zM193 48l-15 -6q1 21 1 38h-8q-10 0 -19 -2l-9 9h36v25h-3q-10 0 -19 -2l-9 9h31v26q-7 0 -16 -2l-9 9h25v27h-11q-10 0 -19 -2l-9 9h39v24q-9 0 -18 -2l-9 9h27q0 11 -1 30l20 -9l-6 -6v-15h17l8 9l13 -13l-7 -5v-22h3l10 9
l12 -16h-25q0 -21 1 -33l-14 -6v5h-18v-26h14l10 10l14 -17h-38v-25h22l10 11l16 -18h-48q0 -13 1 -32zM127 210h-4q-10 0 -19 -2l-9 9h32l8 7l12 -13l-8 -4l-17 -67h10l8 11l14 -14l-8 -5q-3 -48 -14 -74q38 -33 116 -26v-4q-16 -3 -18 -14q-77 4 -103 34q-19 -27 -48 -41
l-1 3q25 17 41 47q-11 17 -17 44l3 2q10 -27 18 -37q9 31 11 67h-14l-6 -6l-11 11l8 5z" />
  </g>

</svg>
