<?xml version="1.0" standalone="no"?>
<!DOCTYPE svg PUBLIC "-//W3C//DTD SVG 1.1//EN" "http://www.w3.org/Graphics/SVG/1.1/DTD/svg11.dtd" >
<svg xmlns="http://www.w3.org/2000/svg" xmlns:xlink="http://www.w3.org/1999/xlink" version="1.1" viewBox="0 -205 1024 1024">
  <g transform="matrix(1 0 0 -1 0 819)">
   <path fill="currentColor"
d="M412 940h414l32 44l64 -52l2 -4q0 -12 -12 -12h-232v-84h230l30 32q60 -45 60 -54q0 -7 -14 -10q-16 -2 -34 -16q-16 -13 -50 -58l-14 8l26 74h-234v-76l4 -82q-1 -11 -22 -22q-20 -10 -40 -10l4 106v84h-222q-1 -46 -16 -70t-36 -30q-22 -4 -34 14q-11 17 12 34
q24 15 36 42q11 24 20 78h16l4 -44h220v84h-170q20 0 -28 -8l-16 32v0v0zM402 716h166v-26h-166v26v0v0zM402 622h170v-26h-170v26v0v0zM728 716h178v-26h-178v26v0v0zM728 622h174v-26h-174v26v0v0zM680 578q9 -6 10 -8q1 -6 -28 -14q46 -42 98 -74q50 -33 104 -50
q52 -16 146 -22v-16q-51 -6 -66 -12q-13 -6 -38 -32q-55 22 -98 50q-42 28 -80 62q-37 33 -86 84q-60 -54 -150 -116q-90 -61 -222 -112l-8 14q117 58 210 134q93 74 150 140l58 -28v0v0zM814 352q66 -55 66 -64t-14 -8q-12 0 -42 -20q-28 -18 -148 -110q32 -15 46 -33
t16 -36q3 -15 -8 -30q-9 -13 -26 -14t-28 22q-9 24 -30 48q-22 24 -58 45t-102 58l10 14q62 -21 158 -62l134 132h-348q-25 0 -52 -8l-20 34h414l32 32v0v0zM596 462l10 10q51 -27 72 -48q20 -21 20 -38q0 -18 -14 -30q-12 -13 -30 -8q-16 3 -14 22q0 18 -8 40q-9 21 -36 52
v0v0zM102 948l10 12q57 -27 88 -48q31 -18 38 -42q6 -21 -2 -38q-10 -19 -26 -16q-15 0 -24 22q-6 21 -20 46q-14 24 -64 64v0v0zM46 714l8 14q65 -24 92 -42t34 -42q6 -23 -6 -40q-10 -18 -26 -14t-22 26q-4 22 -16 44q-10 21 -64 54v0v0zM156 408q-12 -38 -36 -40
q-24 -3 -66 0l-2 -22q15 -2 48 -10q33 -6 42 -20q9 -13 10 -50q3 -37 -6 -92q-10 -52 -8 -79q2 -26 20 -34q19 -7 32 4q12 12 16 38q3 25 -6 79q-9 51 -12 102q-1 50 2 68q0 15 10 52l106 432l-22 8l-128 -436v0v0z" />
  </g>

</svg>
