<?xml version="1.0" standalone="no"?>
<!DOCTYPE svg PUBLIC "-//W3C//DTD SVG 1.1//EN" "http://www.w3.org/Graphics/SVG/1.1/DTD/svg11.dtd" >
<svg xmlns="http://www.w3.org/2000/svg" xmlns:xlink="http://www.w3.org/1999/xlink" version="1.1" viewBox="0 0 2048 2048">
  <g transform="matrix(1 0 0 -1 0 2048)">
   <path fill="currentColor"
d="M528 874h146l68 76l83 -54q22 -15 31 -25q8 -10 8 -23q1 -14 -10 -26q-9 -10 -30 -19l-36 -16v-442q0 -23 3 -75q3 -53 4.5 -93.5t2.5 -55.5q2 -15 1 -20q-3 -13 -17 -25q-15 -11 -46 -13q-19 -2 -28 2q-8 4 -11 10t-3 13v84h-406v-74q0 -18 -5 -24q-5 -7 -17 -10
q-13 -4 -31 -3q-22 0 -33 7q-10 6 -16 19t-6 27q-1 15 4 64l4 79q4 70 4 76v454l-5 75l-3 58l-6 45l122 -91h179q-8 3 -14 7t-13 14t-7 32v413q-8 -13 -28 -42q-20 -30 -51 -70q-32 -41 -72 -82t-94 -90q-53 -50 -73 -62l-49 -32l-21 30l57 58l58 64q30 33 73 90
q43 58 74 116l41 84l12 24h-94q-24 0 -57 -2q-33 -3 -39 -4q-5 0 -28 -2l-25 -3l-39 86q26 -4 40 -5l42 -6q47 -6 106 -6h167v211q-31 -5 -69 -11q-38 -5 -90 -10q-52 -6 -101 -8l-54 -3l-3 40q38 5 68 11l88 16q57 10 107 22q50 13 100 30t100 39t93 52l44 30l96 -101
q16 -17 13 -28q-3 -10 -14 -14q-11 -3 -32 2l-51 11l-99 -31q-54 -18 -79 -23l-22 -5v-230h147l88 91l116 -97q9 -8 13 -14q5 -7 2 -19q-4 -11 -12 -15q-7 -4 -13 -4h-341v-55q61 -36 93 -57t75 -52.5t68 -53.5q26 -23 46 -48q20 -24 26 -45t4 -40q-4 -23 -19 -39t-36 -14
q-18 1 -29 14q-11 12 -24 38q-13 25 -33 55t-57 74q-38 44 -66 70l-48 43v-136q0 -58 2 -115t6 -95t5 -49q0 -23 -4 -26zM288 494v-262h406v262h-406zM288 550h406v267h-406v-267zM1444 892l72 -16q52 -12 68 -20q16 -9 18 -23q1 -14 -13 -26t-37 -18l-41 -11v-117h221
l100 105l140 -107q15 -12 16 -26q0 -14 -9 -21q-9 -8 -25 -8h-443v-394q0 -52 1 -63l2 -21q0 -2 1 -27t1 -32q-1 -13 -4 -20q-4 -7 -12 -13q-9 -5 -22 -8q-13 -2 -24 -1q-11 0 -20 4t-15 11q-6 8 -5 21l1 543h-326l-71 -4l-27 -1l-26 -3l-25 -3l-39 86q27 -5 49 -8
q21 -3 38 -5q18 -1 51 -3t50 -2h326v80l-3 102q0 34 -2 44l-1 5h-270v-64q0 -11 -11 -20q-12 -9 -38 -11q-25 -2 -40 10q-9 6 -13 15q-4 10 -3 27q0 5 2 31q3 27 6 63q2 36 2 52l-1 489l-32 -49q-22 -33 -48 -65l-47 -59l-32 25l28 44q10 14 32 55q23 41 38 72q16 31 34 75
q18 43 32 84q15 42 26 76q10 33 20 74l18 69l9 41l142 -57q29 -12 28 -27t-11 -22q-10 -8 -22 -9l-52 -8l-31 -75q-10 -24 -27 -61l-6 -13h355q-12 5 -19 10q-6 6 -10 24l-6 25q-2 6 -6 16q-5 10 -16 27q-10 17 -14 22l-31 37l-22 25l-27 25l21 30l45 -27l42 -25
q21 -13 42 -28q22 -15 36 -29q15 -15 26 -34q11 -18 10 -39q0 -21 -9 -36t-18 -18l-12 -5h196l94 92l123 -98q14 -12 14 -24q1 -13 -6 -21t-19 -8h-424v-167h175l83 83l114 -84q20 -16 21 -31q0 -14 -10 -19q-9 -5 -16 -5h-367v-176h175l85 87l119 -91q12 -10 14 -24
q3 -15 -8 -20q-10 -6 -18 -6h-367v-192h244l88 89l120 -96q15 -13 17 -25q2 -13 -6 -20q-9 -6 -17 -6h-509zM1411 1595h-272v-167h272v167zM1139 1196h272v176h-272v-176zM1411 1142h-272v-192h272v192zM1609 499l57 -31q26 -13 72 -42l84 -54q40 -25 65 -46t43.5 -42
t27.5 -42q8 -21 6 -43t-18 -37q-17 -15 -36 -12q-20 2 -31 16q-11 13 -24 35t-33 49q-20 28 -53 62t-70 67t-73 60l-39 29zM1184 528l121 -66q27 -16 25 -38t-40 -22h-54l-40 -53q-19 -24 -49 -55t-69 -64q-39 -32 -86 -63q-48 -31 -84 -50l-19 -10l-19 33l44 36l54 46
q27 25 58 60q32 34 53 62t47 72q27 45 36 65z" />
  </g>

</svg>
