<?xml version="1.0" standalone="no"?>
<!DOCTYPE svg PUBLIC "-//W3C//DTD SVG 1.1//EN" "http://www.w3.org/Graphics/SVG/1.1/DTD/svg11.dtd" >
<svg xmlns="http://www.w3.org/2000/svg" xmlns:xlink="http://www.w3.org/1999/xlink" version="1.1" viewBox="0 -205 1048 1024">
  <g transform="matrix(1 0 0 -1 0 819)">
   <path fill="currentColor"
d="M553 884h268l34 32l48 -37q30 -20 25 -28q-5 -9 -48 -9q-23 -46 -59 -95q-41 -56 -91 -103q49 -41 112 -69q66 -28 149 -43l4 -12q-24 0 -49 -12q-24 -11 -33 -25q-69 35 -117 67q-54 34 -91 71q-37 -29 -75 -53q-42 -26 -84 -45l-6 8q39 24 75 50q37 28 72 60
q-40 44 -67 99q-28 55 -47 128l-76 -4l-18 25zM587 868q16 -58 45 -107q32 -55 77 -98q39 43 70 93q33 53 58 112h-250zM152 834h77l41 102l16 44l46 -26q23 -13 18 -18q-4 -5 -36 -6l-41 -96h121l38 36l47 -36q20 -22 18 -25q-1 -3 -37 -6q-19 -63 -39 -114
q-24 -55 -51 -100q37 -20 59 -39q28 -23 39 -45q9 -32 -6 -41q-15 -10 -33 17q-15 23 -35 42q-19 20 -43 38q-47 -65 -111 -114q-66 -51 -155 -90l-6 6q80 42 134 88q66 56 112 129q-28 19 -62 35q-33 18 -70 33l-6 -14l-6 -14q-7 -20 -12 -24q-5 -5 -21 -6q-20 0 -22 5
q-2 3 4 14l8 13l85 196h-71l-74 -3l-10 23zM266 818l-68 -159l10 -3q42 -15 64 -23q37 -15 66 -28q23 45 41 96q19 54 33 117h-146zM324 338h479v68h-479v-68zM275 450l50 -27h467l28 23l39 -25q21 -16 13 -24q-6 -6 -26 -7v-43l1 -11q2 -17 -1 -23q-4 -9 -22 -13
q-16 -4 -20 1q-2 4 -1 14l1 7h-181q12 -7 11 -12q-3 -7 -26 -10v-56h216l39 36l44 -31q14 -10 8 -15q-5 -6 -20 -6h-287v-101h68q84 4 140 9q70 6 145 17l2 -15q-21 -8 -34 -24q-11 -11 -15 -22l-95 1q-76 1 -111 2q-61 1 -109 5q-72 5 -130 30q-65 26 -101 71
q-34 -55 -95 -91q-60 -35 -157 -57l-7 12q107 34 163 83q67 58 89 156l42 -12q22 -7 23 -16q1 -10 -29 -12l-20 -48q29 -35 75 -56q46 -20 114 -28v189h-242v-10q0 -8 -2 -12q-4 -5 -15 -11q-21 -7 -26 2q-5 5 -3 21l1 9v74z" />
  </g>

</svg>
