<?xml version="1.0" standalone="no"?>
<!DOCTYPE svg PUBLIC "-//W3C//DTD SVG 1.1//EN" "http://www.w3.org/Graphics/SVG/1.1/DTD/svg11.dtd" >
<svg xmlns="http://www.w3.org/2000/svg" xmlns:xlink="http://www.w3.org/1999/xlink" version="1.1" viewBox="0 -205 1024 1024">
  <g transform="matrix(1 0 0 -1 0 819)">
   <path fill="currentColor"
d="M520 834h126v148l72 -28q7 -3 6 -8q-1 0 -4 -6l-26 -16v-90h108v142l70 -30q9 -3 4 -12q0 -1 -6 -4l-20 -12v-84h32l32 38l60 -56q1 0 2 -2q4 -9 -4 -8h-122v-132h54l28 40l54 -48q3 -3 4 -12q0 -7 -12 -8h-206v-86h102l20 26l58 -38q6 -4 6 -8q0 -6 -24 -24v-180l4 -72
q-1 -4 -16 -14q-13 -8 -38 -16v32h-278v-8q-3 -16 -20 -26q-18 -7 -32 -8l4 116v254l58 -34h106v86h-134q-21 0 -68 -8l-16 36h142v132h-54q-9 0 -56 -8l-16 36v0v0zM694 674h108v132h-108v-132v0v0zM606 292h116v112h-116v-112v0v0zM772 404v-112h112v112h-112v0v0z
M606 430h116v104h-116v-104v0v0zM772 534v-104h112v104h-112v0v0zM602 117q-42 -25 -152 -80l-6 14q96 66 138 98q39 31 90 79q57 -42 58 -48q-1 -7 -8 -8q-6 -1 -18 -2q-11 -1 -34 -14q-24 -11 -68 -39v0v0zM776 230q90 -36 132 -60q42 -23 64 -47q21 -24 16 -48
q-6 -20 -26 -22q-19 -3 -34 24q-13 27 -40 54q-28 26 -118 85l6 14v0v0zM236 734h132v248l78 -32q12 -4 10 -10q-1 -5 -38 -22v-184h42l30 44l54 -52q3 -4 4 -8q0 -12 -14 -12h-116v-112q55 -24 80 -42q23 -19 32 -40q7 -21 -4 -38q-10 -19 -26 -16q-16 0 -20 22
q-4 18 -16 42q-13 21 -46 48v-400l4 -93q-1 -14 -22 -26q-18 -13 -36 -14l4 137v418q-37 -99 -76 -176q-39 -75 -86 -150l-14 8q32 72 62 138q27 66 54 144t46 150h-34q-22 0 -64 -8l-20 36v0v0zM82 972l6 16q44 -15 76 -30q30 -12 46 -30t20 -38q3 -22 -8 -34
q-12 -14 -26 -12q-13 3 -20 18l-14 32q-6 15 -24 36q-19 18 -56 42v0v0zM130 418q-21 -54 -50 -56q-30 0 -54 6l-2 -20q24 -7 46 -16q21 -6 30 -18t12 -42q5 -30 -4 -86q-10 -56 -8 -85q0 -27 16 -36t32 0t20 36q3 25 -6 87q-10 60 -10 96q-1 37 2 62q2 25 14 68l80 270
l-20 8l-98 -274v0v0zM14 732l10 12q54 -24 78 -38q24 -13 40 -32q14 -18 16 -42q3 -22 -8 -34q-9 -13 -24 -10q-16 3 -22 18l-12 32q-5 15 -16 36q-12 18 -62 58v0v0z" />
  </g>

</svg>
