<?xml version="1.0" standalone="no"?>
<!DOCTYPE svg PUBLIC "-//W3C//DTD SVG 1.1//EN" "http://www.w3.org/Graphics/SVG/1.1/DTD/svg11.dtd" >
<svg xmlns="http://www.w3.org/2000/svg" xmlns:xlink="http://www.w3.org/1999/xlink" version="1.1" viewBox="0 -36 256 256">
  <g transform="matrix(1 0 0 -1 0 220)">
   <path fill="currentColor"
d="M33 129l-13 18q15 2 42 10v62h-8q-11 -1 -20 -3l-10 10h62l11 11l17 -18h-37v-60l35 9l1 -4q-70 -26 -80 -35zM199 143h10q8 0 9 13t1 27h5q-1 -33 12 -38q-7 -13 -22 -13h-20q-18 0 -18 17v75h-35q1 -43 -8.5 -63t-51.5 -40l-2 4q41 21 45 56t1 59l16 -9h35l8 10l15 -12
l-8 -7v-67q0 -12 8 -12zM119 40v48h-80q-10 0 -20 -3l-9 10h109q0 12 -1 41l24 -8l-8 -8v-25h80l14 13l19 -20h-113v-38q0 -14 1 -33l-17 -8q1 14 1 31z" />
  </g>

</svg>
