<?xml version="1.0" standalone="no"?>
<!DOCTYPE svg PUBLIC "-//W3C//DTD SVG 1.1//EN" "http://www.w3.org/Graphics/SVG/1.1/DTD/svg11.dtd" >
<svg xmlns="http://www.w3.org/2000/svg" xmlns:xlink="http://www.w3.org/1999/xlink" version="1.1" viewBox="0 -205 1024 1024">
  <g transform="matrix(1 0 0 -1 0 819)">
   <path fill="currentColor"
d="M354 696l58 -42h210l32 38l64 -42q3 -4 4 -8q1 -6 -28 -30v-194l4 -86q0 -13 -20 -28q-22 -13 -34 -14v68h-238v-48q0 -13 -20 -26q-18 -12 -36 -12l4 112v312v0v0zM406 382h238v248h-238v-248v0v0zM132 808l78 -34q8 -3 8 -6q0 -9 -6 -12l-30 -14v-562l2 -89
q1 -12 -22 -28q-20 -14 -34 -14l4 127v632v0v0zM884 896l64 -46q6 -6 6 -12q0 -3 -12 -12l-24 -14v-666q1 -34 -18 -65q-19 -28 -80 -42q-5 30 -34 50q-29 18 -94 36l4 19q62 -17 128 -25q44 3 44 31v678h-388q-18 0 -56 -8l-26 34h452l34 42v0v0zM208 960q57 -25 90 -56
q32 -30 38 -54q3 -25 -8 -38q-9 -14 -24 -12q-14 0 -22 30t-28 58q-18 27 -56 60l10 12v0v0z" />
  </g>

</svg>
