<?xml version="1.0" standalone="no"?>
<!DOCTYPE svg PUBLIC "-//W3C//DTD SVG 1.1//EN" "http://www.w3.org/Graphics/SVG/1.1/DTD/svg11.dtd" >
<svg xmlns="http://www.w3.org/2000/svg" xmlns:xlink="http://www.w3.org/1999/xlink" version="1.1" viewBox="0 -36 256 256">
  <g transform="matrix(1 0 0 -1 0 220)">
   <path fill="currentColor"
d="M184 216.5q9 -11.5 0.5 -22t-12 5t-20.5 39.5l3 3q20 -14 29 -25.5zM144 38h67l14 13l17 -20h-98l-9 -9l-13 15l8 5v125q-10 -1 -15 -3l-9 10h109l13 13l17 -20h-101v-129zM53 243l23 -10l-9 -8v-34h19l8 11l15 -13l-8 -7v-88q2 -22 -16 -28q0 13 -16 16v4q10 -1 15 -0.5
t4 10.5v88h-21v-137q0 -14 1 -30l-15 -8q1 24 1 44v131h-20v-109l-14 -7q1 32 1 68.5t-1 61.5l15 -7h19q0 29 -1 52z" />
  </g>

</svg>
