<?xml version="1.0" standalone="no"?>
<!DOCTYPE svg PUBLIC "-//W3C//DTD SVG 1.1//EN" "http://www.w3.org/Graphics/SVG/1.1/DTD/svg11.dtd" >
<svg xmlns="http://www.w3.org/2000/svg" xmlns:xlink="http://www.w3.org/1999/xlink" version="1.1" viewBox="0 -36 256 256">
  <g transform="matrix(1 0 0 -1 0 220)">
   <path fill="currentColor"
d="M22 89l-14 19q12 3 41 18v50h-21l-8 -1l-8 8h37q0 38 -1 62l23 -11l-8 -7v-44h11l12 13l15 -20h-38v-43l30 16l2 -4l-32 -23v-80q1 -25 -19 -33q1 14 -27 21v5q20 -3 26.5 -2t5.5 14v64q-19 -12 -27 -22zM223 179q0 -11 2 -19l-16 -5v6h-87l-10 -7l-12 14l8 3v38
q0 9 -1 19l23 -11l-8 -9v-40h36v48q0 15 -1 29l23 -11l-8 -9v-57h37v39q0 9 -1 20l23 -12l-8 -6v-30zM154 34q5 1 4 19v115h14v-16q12 -40 32.5 -67t42.5 -36v-4q-11 1 -23 -10q-16 16 -29.5 41t-22.5 54v-89q0 -28 -25 -33q0 10 -4.5 14t-19.5 9v5q26 -3 31 -2zM129 125
l9 9l12 -13l-6 -4q-16 -59 -68 -92l-3 3q43 37 56 90h-18l-11 -3l-11 10h40z" />
  </g>

</svg>
