<?xml version="1.0" standalone="no"?>
<!DOCTYPE svg PUBLIC "-//W3C//DTD SVG 1.1//EN" "http://www.w3.org/Graphics/SVG/1.1/DTD/svg11.dtd" >
<svg xmlns="http://www.w3.org/2000/svg" xmlns:xlink="http://www.w3.org/1999/xlink" version="1.1" viewBox="0 -205 1024 1024">
  <g transform="matrix(1 0 0 -1 0 819)">
   <path fill="currentColor"
d="M558 944q8 -7 -4 -16q-24 -3 -42 -42q-54 -111 -102 -200l40 -16q9 -3 10 -8q9 -6 -20 -20v-464l4 -91q0 -12 -20 -28q-21 -12 -36 -12l4 127v476q-60 -99 -114 -170l-14 8q51 82 126 248q75 165 96 246l72 -38v0v0zM492 710h210v266l70 -32q12 -6 12 -8q3 -9 -6 -12
l-28 -14v-200h112l34 48l54 -56q3 -3 4 -8q4 -12 -10 -12h-148q18 -85 36 -142q17 -54 40 -102q21 -48 48 -90q24 -42 82 -78l-2 -12q-24 0 -44 -2q-18 -1 -36 -20q-45 69 -60 108q-16 38 -34 94q-16 53 -26 110q-10 53 -28 134h-22v-514l4 -81q0 -14 -18 -28t-38 -14l4 127
v480q-54 -159 -104 -258q-51 -97 -114 -178l-16 6q60 104 102 208q42 105 90 252h-106q-21 0 -38 -8l-24 36v0v0zM284 750l18 -6l-106 -354q-18 -63 -20 -98q-4 -34 2 -76q4 -44 8 -79t-12 -50q-18 -15 -36 -6t-14 42q2 32 8 77q3 45 4 64q0 15 -6 30q-6 12 -26 24
q-21 12 -78 18v16q69 -1 94 2q24 3 42 54l122 342v0v0zM116 966q72 -30 108 -56q35 -28 38 -52q1 -25 -10 -38q-13 -13 -28 -10q-16 4 -20 26q-3 20 -24 50t-72 66l8 14v0v0zM50 736q68 -24 104 -54q33 -29 34 -58q1 -28 -10 -40q-13 -13 -28 -10q-15 4 -18 26q-2 22 -22 56
q-18 33 -68 66l8 14v0v0z" />
  </g>

</svg>
