<?xml version="1.0" standalone="no"?>
<!DOCTYPE svg PUBLIC "-//W3C//DTD SVG 1.1//EN" "http://www.w3.org/Graphics/SVG/1.1/DTD/svg11.dtd" >
<svg xmlns="http://www.w3.org/2000/svg" xmlns:xlink="http://www.w3.org/1999/xlink" version="1.1" viewBox="0 -36 256 256">
  <g transform="matrix(1 0 0 -1 0 220)">
   <path fill="currentColor"
d="M112 158l-14 -11h67l8 9l17 -15q-8 0 -42 -30h-5l20 29h-72q-29 -23 -74 -41l-2 4q22 11 47.5 30t41.5 42l16 -16zM48 59q0 33 -1 54l28 -9l-13 -5q0 -78 1 -85l-16 -7q1 19 1 52zM119 32h86v34h-86v-34zM124 111h76l11 10l15 -12l-7 -8q0 -75 1 -87l-15 -5v16h-86v-12
l-15 -6q1 23 1.5 55t-1.5 55zM119 73h86v31h-86v-31zM222 204h-183q0 -19 -9 -23.5t-14.5 0.5t5.5 12.5t13 30.5h5v-13h87q-3 10 -6 16.5t-13 15.5l2 3q21 -7 28.5 -15t-3.5 -20h86l8 10l17 -16q-12 -2 -31 -23l-3 2zM93 211h14q5 -50 -82 -58l-1 3q73 13 69 55zM168 211
v-29q0 -13 18 -11h4q26 0 31 4t11.5 -3t3.5 -10t-29 -3h-28q-24 -2 -24 23v29h13z" />
  </g>

</svg>
