<?xml version="1.0" standalone="no"?>
<!DOCTYPE svg PUBLIC "-//W3C//DTD SVG 1.1//EN" "http://www.w3.org/Graphics/SVG/1.1/DTD/svg11.dtd" >
<svg xmlns="http://www.w3.org/2000/svg" xmlns:xlink="http://www.w3.org/1999/xlink" version="1.1" viewBox="0 -36 256 256">
  <g transform="matrix(1 0 0 -1 0 220)">
   <path fill="currentColor"
d="M42 224l-6 -9v-18h25v19q0 16 -1 30l22 -9l-8 -6v-34h23q0 13 -1 28l21 -8l-7 -7q0 -11 1 -25l-14 -3v8h-23v-39h23q0 13 -1 27l18 -6l-4 -5q0 -14 1 -27l-14 -3v7h-61l-5 -7l-15 11l6 5q0 15 -1 30l19 -6l-5 -7v-19h26v39h-24l-7 -7l-13 10l7 6q0 14 -1 30zM76.5 128
q4.5 -7 -2.5 -15.5t-9.5 3.5t-13.5 26l2 3q19 -10 23.5 -17zM62 83h32l9 7l11 -12l-6 -4q-5 -39 -12 -48.5t-19 -13.5q-2 15 -20 18l1 4q16 -3 22.5 -1.5t8.5 10.5t5 33h-33q-10 -44 -50 -69l-2 3q39 38 41 91h-10q-11 0 -21 -3l-9 10h88l13 12l14 -19h-61q-1 -11 -2 -18z
M176 170q14 16 20 35h-43l-2 -2q14 -25 25 -33zM119 170q28 36 34 77l19 -9l-7 -6q-3 -9 -9 -20h55l14 12l14 -19h-29q-10 -26 -24 -42q22 -17 62 -21v-5q-14 0 -20 -10q-33 12 -52 26q-26 -19 -68 -33l-1 4q40 19 61 39q-10 11 -20 35q-9 -17 -27 -30zM165 144l23 -8l-8 -7
v-16h25l7 8l16 -11l-8 -6v-43l-14 -7v8h-26v-31l32 3q-7 8 -19 18l2 2q49 -19 45 -35.5t-10 -8t-14 18.5q-86 -11 -100 -20l-8 17q26 1 58 4v32h-27v-9l-14 -4q1 18 1 33t-1 38l14 -7h27q0 17 -1 31zM166 106h-27v-37h27v37zM206 106h-26v-37h26v37z" />
  </g>

</svg>
