<?xml version="1.0" standalone="no"?>
<!DOCTYPE svg PUBLIC "-//W3C//DTD SVG 1.1//EN" "http://www.w3.org/Graphics/SVG/1.1/DTD/svg11.dtd" >
<svg xmlns="http://www.w3.org/2000/svg" xmlns:xlink="http://www.w3.org/1999/xlink" version="1.1" viewBox="0 -120 1000 1000">
  <g transform="matrix(1 0 0 -1 0 880)">
   <path fill="currentColor"
d="M196 947l78 -10q25 -3 25 -15t-19 -18l-18 -6v-170h24l41 50l68 -63v-15h-133v-143q65 -23 99 -66q129 60 161 156l-107 -41l-12 -21q-6 -11 -12 -11t-15 15l-33 61q100 9 181 25h4q4 28 4 56v5h-133l-11 28h144v63h-171l-10 27h181v96l61 -3q27 -1 27 -12q0 -6 -14 -16
l-13 -9v-172q-1 -79 -22 -118q-50 -94 -198 -146q9 -16 9 -30t-10 -24q-8 -9 -20 -9t-21 9q-7 6 -21 40q-21 50 -48 74v-468l-66 -13v435q-44 -78 -68 -113q-29 -43 -75 -97l-13 15q126 193 156 407h-125l-16 28h141v219zM716 647v-56q0 -17 3 -21q3 -6 21 -6h127
q30 -1 37 36l8 32h23l2 -25q2 -24 7 -31q6 -7 23 -12q-9 -56 -75 -56h-170q-65 -2 -66 49v392l66 -7q29 -3 29 -11t-13 -14l-22 -13v-48h96l35 47l67 -52v-23h-198v-60h70l37 48l66 -54l-2 -22h-171v-65h99l36 50l67 -56v-22h-202zM339 278l-16 28h274v73l64 -10l76 69h-298
l-14 28h333l32 34l64 -46q18 -12 18 -17q0 -12 -25 -12h-39l-126 -68q1 -4 1 -6q0 -5 -11 -11l-9 -6v-28h178l38 43l75 -51v-20h-291v-153q0 -36 -34 -55q-31 -17 -57 -17q-7 0 -9 4q-1 2 -4 28q-1 6 -28 13l-58 12v18h124v150h-258z" />
  </g>

</svg>
