<?xml version="1.0" standalone="no"?>
<!DOCTYPE svg PUBLIC "-//W3C//DTD SVG 1.1//EN" "http://www.w3.org/Graphics/SVG/1.1/DTD/svg11.dtd" >
<svg xmlns="http://www.w3.org/2000/svg" xmlns:xlink="http://www.w3.org/1999/xlink" version="1.1" viewBox="0 -205 1024 1024">
  <g transform="matrix(1 0 0 -1 0 819)">
   <path fill="currentColor"
d="M372 938q8 -5 8 -10q1 -5 -16 -10q-18 0 -36 -24q-15 -23 -60 -94v-316l4 -92q2 -18 -22 -30q-24 -13 -36 -14l4 130v246q-61 -81 -148 -156l-12 10q105 120 168 238q60 116 76 160l70 -38v0v0zM506 828h346l38 46l66 -54q2 -4 2 -10q0 -7 -8 -8h-338v-124h198l38 44
l60 -52q2 -4 2 -10q0 -9 -8 -8h-290v-120h208l36 42l62 -50q2 -4 2 -10q0 -7 -6 -8h-302v-42l4 -70q1 -13 -16 -28q-18 -13 -42 -14l4 112v338h-72q-59 -100 -142 -184l-12 10q64 87 116 196q52 108 74 162l74 -40q3 -6 -2 -12q-5 -3 -16 -6q-12 -3 -18 -8q-7 -3 -58 -92v0
v0zM172 286h18q-5 -93 -16 -128q-12 -32 -30 -57q-19 -24 -44 -34q-24 -7 -36 -2q-13 7 -16 22q-3 14 12 28q15 12 34 24q15 10 36 31q18 22 42 116v0v0v0zM446 366q80 -45 106 -78q24 -31 22 -52q-1 -21 -14 -32q-12 -9 -26 -6q-15 2 -20 28t-16 50q-12 22 -62 80l10 10v0
v0zM788 328q92 -53 122 -82q27 -28 40 -52q12 -23 10 -40q-1 -16 -10 -29t-26 -12q-18 0 -26 30q-6 25 -24 65q-17 38 -94 106l8 14v0v0zM340 266v-127q0 -42 12 -48t40 -6h268q30 0 42 8q9 6 16 20q5 16 8 41q3 24 6 106h22q3 -72 10 -104q5 -30 34 -45q-16 -35 -40 -52
q-21 -13 -74 -18h-326q-27 -1 -48 16q-21 15 -20 68v207l80 -32q12 -7 6 -14q-6 -6 -36 -20v0v0z" />
  </g>

</svg>
