<?xml version="1.0" standalone="no"?>
<!DOCTYPE svg PUBLIC "-//W3C//DTD SVG 1.1//EN" "http://www.w3.org/Graphics/SVG/1.1/DTD/svg11.dtd" >
<svg xmlns="http://www.w3.org/2000/svg" xmlns:xlink="http://www.w3.org/1999/xlink" version="1.1" viewBox="0 -144 1024 1024">
  <g transform="matrix(1 0 0 -1 0 880)">
   <path fill="currentColor"
d="M891 61l-67 34l-32 19l-59 41l-52 46l-24 25l-22 25l-5 8v-200l-65 -32v202l-17 -18l-29 -26l-31 -23l-33 -23l-35 -20l-37 -19l-38 -16l-41 -14l-43 -12l-4 10l75 42l66 44l59 46l26 25l23 26l21 25h-256v21h294v56l65 -11l16 -11l-16 -9v-25h176l50 50l-14 8l-7 13
l-8 13l-19 25l-11 13l-25 24l-30 25l-16 10l3 9l20 -6l20 -5l18 -7l18 -8l17 -10l32 -21l15 -11l26 -27l5 -24l-13 -21l-18 -4l55 -46v-21h-285l66 -45l56 -34l60 -31l32 -14l100 -40zM222 383l5 23l3 23v24l-3 25l-5 24l-8 26l-10 26l-14 27l-16 28l-18 29l1 2l-5 3l66 170
l16 49l6 23l1 2h-140v-822l-65 -32v908l65 -32h144l32 27l59 -49l-27 -16l-10 -4l-11 -25l-24 -49l-29 -51l-34 -52l-20 -26l-17 -20l26 -22l24 -24l20 -26l17 -27l14 -27l11 -29l7 -29l5 -30v-30l-3 -31zM222 383l63 -14l-3 -13l-5 -13l-7 -12l-8 -10l-10 -10l-11 -7
l-12 -6l-13 -4l-13 -2l-14 -1v32l-54 16v16h54l7 1l6 1l4 1l3 1l3 2l4 5l2 4l2 6zM449 958l55 -34l10 -16l-20 -2l-33 -57l-47 -72l-25 -35v-1l25 -4l17 -11l-17 -10v-350l-64 -32v358l-43 -48l-30 -30l-32 -28l-7 7l92 139l42 71l39 74l33 71h-1zM612 501l45 -46l5 -20
l-22 5l-34 -26l-37 -24l-20 -11l-42 -21l-45 -17l-5 8l70 61l45 45l27 29l8 11zM867 585l65 -54v-22h-481v22h362zM529 943l65 -33h195l32 27l59 -48l-27 -22v-272l-64 -32v32h-195l-65 -32v380zM789 697h-195v-81h195v81zM789 793h-195v-74h195v74zM789 889h-195v-74h195
v74z" />
  </g>

</svg>
