<?xml version="1.0" standalone="no"?>
<!DOCTYPE svg PUBLIC "-//W3C//DTD SVG 1.1//EN" "http://www.w3.org/Graphics/SVG/1.1/DTD/svg11.dtd" >
<svg xmlns="http://www.w3.org/2000/svg" xmlns:xlink="http://www.w3.org/1999/xlink" version="1.1" viewBox="0 -205 1024 1024">
  <g transform="matrix(1 0 0 -1 0 819)">
   <path fill="currentColor"
d="M459 895q-1 12 3 13q5 2 12 -7q12 -14 40 -38q133 29 215 56q74 26 123 51q12 6 16 -1q19 -32 46 -57q9 -10 5 -14q-3 -5 -16 -1q-23 5 -45 2q-40 -4 -116 -20q-3 0 -4 -1v-16q-4 -120 2 -225h86l14 2l12 12l30 42q7 9 16 0q33 -28 61 -59q10 -10 9 -19q-2 -8 -15 -9
h-211q3 -35 7 -69q14 -129 45 -226q26 -80 68 -122q25 -25 37 -25q11 1 17 16q12 34 34 149q4 14 16 11q14 -4 10 -17q-24 -94 -27 -151q-3 -59 7 -92q6 -17 0 -23q-7 -6 -31 7q-60 28 -112 103q-54 78 -84 193q-22 81 -32 199q-3 23 -4 47h-179v-437q81 87 163 151
q12 10 18 1t-6 -19q-33 -27 -64 -63q64 -35 95 -69q22 -21 23 -40q3 -21 -12 -49q-13 -23 -23 -23q-10 1 -13 20q-10 48 -31 82q-21 32 -52 66q-7 -8 -13 -15q-44 -51 -108 -154q-7 -12 -14 1q-14 25 -38 41q-10 8 -3 14q24 20 27 27q3 8 3 21v633q0 55 -7 101zM514 637h178
q-5 96 -2 225v6q-94 -17 -176 -27v-204zM321 920l25 26q5 7 14 1q31 -23 53 -42q7 -8 -2 -9q-17 -3 -26 -12q-8 -9 -8 -19v-344q1 -68 8 -167q0 -13 -10 -19q-45 -26 -49 -25q-4 2 -3 18q5 58 6 164v390h-204v-359q-1 -107 0 -182q-1 -15 -38 -40q-8 -4 -12 -4q-6 1 -5 20
q4 100 7 206v332q-1 32 -7 78q-2 10 1 11q1 0 40 -31h191q12 0 19 7zM70 58q-14 -11 -20 -4q-7 10 2 17q95 104 128 236q40 230 18 488q-1 16 9 12q52 -16 68 -25q14 -7 1 -14q-4 -1 -7 -4q-21 -11 -21 -96q-1 -258 -26 -363q95 -55 147 -107q37 -36 38 -58q1 -24 -12 -39
q-14 -15 -20 -15q-6 1 -15 20q-65 123 -143 177q-35 -117 -147 -225z" />
  </g>

</svg>
