<?xml version="1.0" standalone="no"?>
<!DOCTYPE svg PUBLIC "-//W3C//DTD SVG 1.1//EN" "http://www.w3.org/Graphics/SVG/1.1/DTD/svg11.dtd" >
<svg xmlns="http://www.w3.org/2000/svg" xmlns:xlink="http://www.w3.org/1999/xlink" version="1.1" viewBox="0 -52 256 256">
  <g transform="matrix(1 0 0 -1 0 204)">
   <path fill="currentColor"
d="M97 208v-174q0 -5 -3 -11q-3 -5 -17 -7q-1 8 -12 11q-4 1 -12 2q-5 2 -8 2v4q6 -1 15 -2q14 -3 18 -3q6 0 7 2q2 2 2 16v84h-41q-1 -54 -7 -79q-7 -26 -24 -43l-3 2q26 36 24 120h-10q-7 0 -11 -3l-9 8h30v75q-1 6 -7 11l3 2l11 -10h8l7 14q6 12 6 15l-1 2t-2 3l3 1
l14 -7q4 -3 2 -4q-4 0 -7 -1q-2 -4 -7 -11q-5 -8 -8 -12h25l7 11l12 -10q2 -1 2 -3q0 -1 -2 -2zM181 246l24 -9q2 -1 0 -2q-6 -3 -7 -6v-45q-1 -3 -1 -6h24l8 11l18 -13q2 -1 2 -2q-1 -1 -5 -1h-47q0 -25 -3 -45q17 -10 26 -19q9 -7 18 -21q6 -12 5 -19q0 -8 -5 -9
q-6 0 -9 11q-3 12 -13 28q-10 13 -23 24q-7 -44 -42 -71l-3 3q38 39 38 118h-21q-7 0 -12 -4l-8 9h41q0 3 1 6v48q-2 8 -7 11zM46 164q2 -13 0 -27h41v73h-41v-46zM110 122l-8 8h25l7 10l13 -12q3 -3 -1 -4l-5 -2v-75q4 -6 22 -13q12 -5 33 -6h10q7 1 23 1q16 1 24 1v-3
q-7 -2 -10 -3t-5 -7h-33q-25 1 -39 7q-18 7 -26 15q-7 6 -10 3l-2 -2q-1 0 -5 -4q-3 -6 -9 -15l-8 14q5 4 13 9q3 1 4 2q4 3 7 3v76h-11q-6 0 -9 -3zM106 228l2 3q15 -6 24 -14q8 -6 9 -13q2 -7 0 -11q-4 -4 -7 -3q-3 0 -5 8q-2 6 -5 14q-4 6 -18 16zM52 190l2 3
q23 -13 22 -31q-1 -8 -6 -8t-5 7q1 7 -2 14q-2 8 -11 15zM53 110l2 2q24 -13 22 -31q-1 -7 -6 -8q-5 1 -5 7q1 8 -2 15q-2 6 -11 15z" />
  </g>

</svg>
