<?xml version="1.0" standalone="no"?>
<!DOCTYPE svg PUBLIC "-//W3C//DTD SVG 1.1//EN" "http://www.w3.org/Graphics/SVG/1.1/DTD/svg11.dtd" >
<svg xmlns="http://www.w3.org/2000/svg" xmlns:xlink="http://www.w3.org/1999/xlink" version="1.1" viewBox="0 0 2048 2048">
  <g transform="matrix(1 0 0 -1 0 2048)">
   <path fill="currentColor"
d="M631 1594q9 -8 15 -11l18 -12q23 -17 81 -66l83 -71q25 -22 47 -46q22 -23 49 -58q28 -34 44 -64q17 -29 18 -64q2 -34 -13 -50.5t-37 -14.5q-23 1 -36 17q-13 17 -24 42.5t-28 57.5q-18 33 -36 61q-17 28 -44 62q-26 34 -58 71t-68 74q-35 36 -67 63l-11 9h-64l-22 -44
q-16 -31 -45 -82t-65 -102q-35 -50 -63 -80l-21 -23q68 -11 116 -16q49 -5 103 -5h114l80 80l114 -87q10 -8 15 -14q4 -6 1 -18q-4 -10 -11 -14q-8 -4 -15 -4h-298l-93 -5l-65 -3l-30 -4l-38 82q-14 -17 -31 -36q-18 -19 -54 -52t-67 -55l-51 -38l-27 34l47 42q24 23 60 60
q36 38 70 80q33 43 67 98q34 54 59 100q26 47 39 78l12 28h-102q-116 0 -178 -7l-14 -1l-38 88q14 -4 29 -8q16 -3 67 -10t134 -6l123 1l16 49q8 22 20 77q13 55 19 86l12 64l111 -26q30 -8 46 -17q17 -10 18 -24q2 -13 -12 -22q-14 -8 -42 -13l-31 -6l-22 -73
q-10 -32 -21 -61l-13 -35h243l98 102l121 -107l15 -15q4 -6 0 -19q-4 -11 -11 -14t-20 -3h-338zM444 884l-86 -230l379 -2l63 66l73 -50q13 -10 27 -25t15 -33t-34 -30l-39 -14l-14 -102q-8 -66 -14 -102q-5 -36 -22 -101q-16 -65 -49 -114t-85 -77q-52 -27 -81 -32l-33 -7
q-2 27 -7 42t-17 28t-38 27q-27 15 -52 26l-83 34l13 42l100 -32q42 -14 70 -21q27 -7 47 -6q46 1 73 28q28 27 42 75q15 49 28 120q13 72 21 152l5 50h-407q-14 -4 -25 -6q-11 -3 -18 -3q-9 -1 -23 3t-19 10t-4 18q0 12 5 26l19 49l65 191l-49 2q-23 0 -56 -2
q-32 -3 -49 -4t-19 -1l-24 -3l-39 85q26 -4 40 -5l42 -6q44 -6 105 -6l461 -3l84 84l114 -86q8 -7 13 -14t2 -20q-3 -8 -10 -15q-7 -6 -18 -6h-492zM1174 1900l114 -86h300l68 76l84 -54q20 -13 30 -24q10 -12 10 -25q-1 -14 -12 -25q-10 -12 -30 -20l-36 -16l-1 -420
q-1 -34 9 -48q9 -13 30 -21q20 -8 61 -4q14 1 35 4q20 3 31 6t26 10t27 9q12 1 36 -16q15 -12 26 -28q10 -16 5 -33q-4 -14 -19 -23q-16 -10 -38 -14q-21 -3 -44 -4l-52 -4q-27 -3 -38 -2q-7 0 -43 2q-36 3 -55 6t-38 14q-20 10 -32 26q-12 15 -18 36q-6 22 -6 68v466h-324
l-1 -118q-1 -44 -5 -90q-3 -46 -8 -87t-14 -83q-10 -42 -30 -86q-20 -43 -44 -76q-24 -32 -59 -68t-58 -52l-55 -41l-24 30q15 13 28 25q12 12 37 42q25 31 44 62q19 30 36 70q17 39 27 72q9 33 16 77t10 89q4 45 4 108v119q0 28 -2 57q-2 28 -4 53zM1520 375q14 -12 39 -31
q25 -18 69 -45t95 -51q51 -25 109 -46q57 -21 92 -27l61 -13l-3 -39q-31 -3 -51 -7q-20 -3 -37 -14q-18 -11 -23 -23l-15 -31q-31 12 -45 18q-14 7 -63 34l-78 42q-44 24 -98 63q-55 39 -98 79l-23 21l-17 -13l-20 -16q-30 -24 -76 -54t-98 -56q-51 -27 -124 -59t-111 -44
l-100 -34l-11 40l106 45q50 22 103 50q53 29 95 57q43 28 70 47q26 20 58 46q33 27 36 30l28 27q-7 7 -28 33q-21 27 -60 83q-40 56 -66 103q-25 47 -56 112q-30 64 -40 92l-28 74l-5 12q-27 -2 -32 -2l-30 -4l-29 80q13 -3 24 -5q10 -2 48 -5q37 -3 62 -4q25 -2 79 -2h458
l69 78l85 -63l30 -20q14 -14 14 -29q-1 -17 -14 -26q-13 -8 -37 -14l-36 -9l-32 -79q-18 -44 -32 -74q-15 -29 -49 -90q-34 -62 -53 -90q-18 -29 -54 -78q-37 -48 -48 -59zM1156 882q2 -9 4 -16q3 -6 17 -31l53 -108q23 -45 58 -95q36 -51 69 -94q33 -42 71 -79l24 -24
l21 23q13 15 55 80l55 86q12 19 35 64q22 44 30 64t29 77l19 53h-540z" />
  </g>

</svg>
