<?xml version="1.0" standalone="no"?>
<!DOCTYPE svg PUBLIC "-//W3C//DTD SVG 1.1//EN" "http://www.w3.org/Graphics/SVG/1.1/DTD/svg11.dtd" >
<svg xmlns="http://www.w3.org/2000/svg" xmlns:xlink="http://www.w3.org/1999/xlink" version="1.1" viewBox="0 -36 256 256">
  <g transform="matrix(1 0 0 -1 0 220)">
   <path fill="currentColor"
d="M79 232l-14 -25h46l10 12l18 -19h-60q17 -7 23.5 -11.5t7 -8t-4 -10.5t-8.5 -0.5t-10 14.5t-15 16h-10q-13 -23 -39 -42l-2 3q15 17 27.5 40.5t17.5 45.5l22 -13zM175 232l-13 -24h49l13 12l16 -19h-62q21 -7 27.5 -13.5t6 -12.5t-5 -9.5t-10 7.5t-25.5 28h-11
q-16 -23 -34 -38l-2 2q17 26 26 46.5t12 35.5l24 -13zM93 160l-11 -1q-9 -15 -19 -29l13 -6l-8 -6v-63q0 -21 1 -40l-15 -7q1 21 1 40v70q-19 -26 -40 -40l-3 2q45 50 57 94zM121 131q-13 2 -23 -2l-9 9h61v14q0 7 -1 21l24 -8l-10 -7v-20h42l14 12l17 -19h-63
q26 -61 72 -79v-4q-10 1 -21 -10q-44 39 -57 93h-4v-74h12l12 11l16 -18h-40v-10q0 -14 1 -28l-15 -4q1 16 1 31v11h-17q-10 2 -18 -1l-8 8h43v61q-26 -50 -77 -79l-2 3q53 42 68 89h-18z" />
  </g>

</svg>
