<?xml version="1.0" standalone="no"?>
<!DOCTYPE svg PUBLIC "-//W3C//DTD SVG 1.1//EN" "http://www.w3.org/Graphics/SVG/1.1/DTD/svg11.dtd" >
<svg xmlns="http://www.w3.org/2000/svg" xmlns:xlink="http://www.w3.org/1999/xlink" version="1.1" viewBox="0 -205 1048 1024">
  <g transform="matrix(1 0 0 -1 0 819)">
   <path fill="currentColor"
d="M582 634h68l37 31l41 -29q11 -9 8 -16q-6 -4 -21 -4h-129l-43 -4l-12 24zM932 808l49 -36q12 -7 8 -14q-7 -5 -20 -5h-191q2 -96 10 -176q11 -94 31 -169q21 49 41 111q21 56 40 128l50 -18q23 -11 23 -17t-32 -11q-28 -75 -50 -131q-27 -67 -55 -119q19 -55 47 -109
q26 -48 41 -59q6 -10 24 16q21 34 47 111l13 -4l-19 -69q-12 -47 -16 -66q-6 -29 -4 -39q10 -39 2 -47q-10 -8 -37 17q-41 49 -74 99q-29 52 -50 107q-58 -86 -131 -145q-78 -64 -183 -104l-8 10q107 51 182 121q71 67 123 165q-24 80 -39 179q-13 93 -17 219h-224
q0 -169 -4 -253q-4 -110 -19 -184q-16 -78 -51 -139q-32 -60 -92 -121l-10 9q51 65 80 125q28 63 40 143q13 75 13 195q2 92 -2 283l43 -41h226q-1 47 -1 96v100l41 -8q30 -6 30 -12q3 -6 -27 -13q-2 -36 -2 -81v-82h117zM552 519l43 -28h47l28 26l37 -30q23 -15 12 -21
q-6 -7 -23 -7v-149v-10q2 -19 -1 -24q-4 -11 -23 -17q-15 -4 -18 2q-2 4 0 22v21h-55v-21q0 -16 -2 -22q-4 -8 -17 -12q-18 -7 -22 0q-4 4 -4 20l2 12v185zM599 320h55v156h-55v-156zM831 915q52 -29 70 -45q21 -16 21 -39q-4 -20 -15 -20q-12 -1 -20 18q-8 16 -21 31
q-20 26 -41 49zM398 911q13 -10 9 -18q-7 -7 -21 -7h-217l-70 -2l-12 25l68 -2h142l41 41zM394 622q28 -10 22 -19q-5 -4 -26 -12q-5 -5 -7 -5q-2 -2 -2 -4v-262v-22q2 -15 0 -22q-6 -9 -24 -15q-19 -4 -25 -2q-2 2 -2 17l2 14v299q0 10 -2 25q-3 8 -5 24v4zM427 755
q16 -10 12 -16t-23 -6h-135q19 -15 15 -25q-4 -4 -29 -6v-566v-14q0 -23 -4 -29q-4 -10 -23 -16q-14 -6 -18 0q-2 2 -2 18v27v611h-80l-67 -4l-13 26l74 -4h191l43 45zM167 642q28 -8 20 -20q-6 -8 -30 -14q-11 -164 -27 -251q-19 -106 -70 -188l-10 4q33 86 47 196
q14 107 14 286z" />
  </g>

</svg>
