<?xml version="1.0" standalone="no"?>
<!DOCTYPE svg PUBLIC "-//W3C//DTD SVG 1.1//EN" "http://www.w3.org/Graphics/SVG/1.1/DTD/svg11.dtd" >
<svg xmlns="http://www.w3.org/2000/svg" xmlns:xlink="http://www.w3.org/1999/xlink" version="1.1" viewBox="0 -205 1024 1024">
  <g transform="matrix(1 0 0 -1 0 819)">
   <path fill="currentColor"
d="M880 644l30 28l52 -50q19 -15 -4 -20q-18 -1 -48 -16q-24 -18 -48 -44l-14 10l36 66h-516q0 -22 -6 -52q-6 -27 -24 -42q-18 -12 -36 -8t-18 20q-2 15 12 28q12 9 28 30q18 20 24 80h18l2 -30h512v0v0zM392 476l50 -32h150v62h-162q-34 -3 -38 -12l-28 36h228v76l76 -26
q6 0 6 -6q0 -4 -6 -8l-24 -14v-22h146l30 34l50 -42q6 -14 -8 -16h-218v-62h142l30 30l50 -40q6 -6 6 -8q0 -7 -30 -22v-106l4 -44q1 -12 -16 -24q-15 -12 -36 -12v22h-150v-58h222l34 38l54 -42q12 -15 -2 -20h-308v-83l4 -24q0 -15 -24 -28q-20 -13 -34 -14l4 66v83h-260
q-27 -4 -38 -10l-24 34h320v58h-152v-6q-12 -13 -24 -16q-11 -3 -28 -6l4 52v212v0v0zM440 264h152v62h-152v-62v0v0zM644 326v-62h150v62h-150v0v0zM440 352h152v68h-152v-68v0v0zM644 420v-68h150v68h-150v0v0zM338 930h196l30 34l46 -36q9 -10 10 -16q-1 -6 -28 -20v-146
l4 -50q0 -12 -18 -24q-15 -10 -36 -10v78q-64 -12 -110 -30q-44 -17 -52 -34l-40 52l202 36v140h-150q-19 -4 -32 -10l-22 36v0v0zM366 876q60 -16 84 -32q23 -12 28 -30q4 -15 -4 -26q-8 -10 -22 -10q-15 -1 -20 14q-6 12 -18 28q-9 14 -54 46l6 10v0v0zM630 938h196l30 34
l46 -34q9 -10 10 -16q-1 -7 -28 -22v-146l4 -50q0 -12 -18 -24q-15 -10 -36 -10v102q-93 -24 -128 -44q-33 -18 -42 -36l-38 56l208 48v116h-150q-19 -4 -32 -10l-22 36v0v0zM174 434q-19 -58 -52 -58q-33 -1 -74 2l-2 -20q29 -3 56 -12q24 -6 34 -18q9 -12 12 -48t-6 -90
q-10 -54 -8 -81q0 -27 18 -36q16 -9 32 0q15 9 18 36q3 24 -6 77q-10 51 -8 100q-1 48 8 72q8 25 14 56l108 404l-20 8l-124 -392v0v0zM100 904l6 16q44 -16 76 -34q30 -18 46 -36t20 -38q3 -22 -8 -34q-12 -14 -26 -12q-13 3 -20 18l-14 32q-6 15 -24 40q-19 24 -56 48v0v0
zM34 700l10 12q50 -19 74 -34q24 -13 40 -32q14 -18 16 -42q3 -22 -8 -34q-9 -13 -24 -10q-16 3 -22 18l-10 32q-6 15 -18 36q-11 18 -58 54v0v0zM644 888q54 -16 78 -32q23 -12 28 -30q4 -15 -4 -26q-8 -10 -22 -10q-15 -1 -20 14q-6 12 -18 28q-9 15 -48 46l6 10v0v0z" />
  </g>

</svg>
