<?xml version="1.0" standalone="no"?>
<!DOCTYPE svg PUBLIC "-//W3C//DTD SVG 1.1//EN" "http://www.w3.org/Graphics/SVG/1.1/DTD/svg11.dtd" >
<svg xmlns="http://www.w3.org/2000/svg" xmlns:xlink="http://www.w3.org/1999/xlink" version="1.1" viewBox="0 -36 256 256">
  <g transform="matrix(1 0 0 -1 0 220)">
   <path fill="currentColor"
d="M211 214l14 12l17 -19h-199q-10 0 -19 -2l-9 9h114q-1 15 -15 28l2 3q20 -8 25.5 -14t-4.5 -17h74zM88 103h30v38h-26q-2 -21 -4 -38zM53 103h22q2 19 3 38h-25v-38zM95 172h-38q-6 -8 -15 -18l12 -6h27q9 15 14 24zM87 96q-5 -27 -21.5 -48.5t-48.5 -38.5l-2 3
q21 15 36.5 34.5t22.5 49.5h-21v-6l-14 -5q1 18 1 29v38q-12 -13 -25 -21l-2 3q30 30 47 73l17 -9l-7 -5q-4 -7 -9 -14h35l7 9l14 -13q-4 -1 -12.5 -9t-17.5 -18h30l7 9l13 -11l-6 -6v-21q0 -13 1 -26l-14 -4v7h-31zM90 98h13v-58q-1 -13 18 -12h92q8 2 10 9.5t3 28.5h4
q0 -15 3 -24.5t9 -12.5q-7 -11 -26 -12h-105q-22 -1 -21 17v64zM227 149l-6 -8q-1 -47 -5 -72.5t-25 -32.5q-4 13 -26 17v5q20 -3 26 -3t9 5.5t4.5 19t3.5 63.5h-30q-2 -72 -58 -109l-3 3q46 40 48 106q-7 0 -16 -3l-9 10h25q0 25 -1 52l20 -8l-6 -7v-37h29l6 9z" />
  </g>

</svg>
