<?xml version="1.0" standalone="no"?>
<!DOCTYPE svg PUBLIC "-//W3C//DTD SVG 1.1//EN" "http://www.w3.org/Graphics/SVG/1.1/DTD/svg11.dtd" >
<svg xmlns="http://www.w3.org/2000/svg" xmlns:xlink="http://www.w3.org/1999/xlink" version="1.1" viewBox="0 -205 1024 1024">
  <g transform="matrix(1 0 0 -1 0 819)">
   <path fill="currentColor"
d="M882 936l64 -42q6 -4 6 -8q1 -6 -34 -30v-146l4 -62q0 -12 -20 -26q-17 -12 -34 -14v44h-136q3 -87 12 -168h142l32 48l70 -58q2 -6 2 -12q-1 -4 -10 -4h-234q9 -91 30 -146q20 -55 50 -98q29 -44 62 -67q30 -24 42 -28q10 -1 14 28q2 28 14 131h18q-1 -71 2 -112
q-1 -38 8 -69q8 -29 16 -38q6 -8 4 -16q-1 -6 -14 -6q-12 0 -36 6q-25 6 -74 38q-47 34 -82 77q-33 45 -62 114q-30 69 -44 186h-166v-331l168 91l12 -14q-105 -70 -150 -99t-74 -68l-54 54q45 33 46 54v799l68 -48h314l24 40v0v0zM692 484q-7 81 -10 168h-154v-168h164v0v0
zM528 870v-192h340v192h-340v0v0zM358 796l34 46l58 -52q3 -3 4 -8q0 -12 -12 -12h-358q-18 1 -42 -10l-24 36h340v0v0zM66 652h250l32 44l58 -50q2 -3 2 -8q0 -12 -12 -12h-240q-37 0 -68 -8l-22 34v0v0zM94 432l62 -44h150l28 34l60 -40q6 -6 6 -8q0 -6 -32 -30v-150
l4 -81q1 -12 -16 -24q-16 -12 -38 -16v81h-172v-61q0 -18 -20 -30q-18 -13 -36 -14l4 119v264v0v0zM146 180h172v182h-172v-182v0v0zM148 978l10 10q84 -55 102 -82q19 -27 18 -48q0 -22 -12 -32q-13 -11 -28 -6q-16 3 -20 22q-2 19 -10 44q-6 25 -60 92v0v0zM66 520h250
l34 42l56 -48q2 -3 2 -8q0 -12 -12 -12h-254q-34 0 -58 -8l-18 34v0v0z" />
  </g>

</svg>
