<?xml version="1.0" standalone="no"?>
<!DOCTYPE svg PUBLIC "-//W3C//DTD SVG 1.1//EN" "http://www.w3.org/Graphics/SVG/1.1/DTD/svg11.dtd" >
<svg xmlns="http://www.w3.org/2000/svg" xmlns:xlink="http://www.w3.org/1999/xlink" version="1.1" viewBox="0 -36 256 256">
  <g transform="matrix(1 0 0 -1 0 220)">
   <path fill="currentColor"
d="M65.5 211q-2.5 15 -14.5 35l3 2q19 -14 24 -24.5t-2.5 -19t-10 6.5zM85 198l15 -14l-8 -5q-8 -21 -21 -41v-19l5 -2q11 12 21 35l14 -13q-11 -3 -31 -24q14 -5 20.5 -12.5t2.5 -17.5t-10.5 3.5t-21.5 26.5v-101l-12 -7v115q-21 -28 -49 -47l-1 3q16 15 35.5 41t33.5 62
h-32q-11 -1 -20 -3l-9 10h62zM229 233l17 -21h-124q-10 0 -19 -2l-9 9h119zM169 201l-6 -4q-15 -15 -35 -44l58 1l-3 -6q-49 -3 -63 -15l-11 22q6 1 14.5 10t15 19t12.5 29zM179 59l3 -3q-37 -33 -44 -47l-10 15q6 9 5 19v43q-25 -18 -49 -26l-2 4q19 9 42 29t43.5 47
t33.5 60l17 -14l-9 -6q-20 -32 -39 -57q3 -12 20 -36q18 32 22 58l19 -14l-7 -7q-13 -14 -30 -41q9 -15 24 -28.5t30 -17.5v-4q-13 -1 -20 -12q-17 14 -34 38t-30 58q-11 -13 -19 -21v-60z" />
  </g>

</svg>
