<?xml version="1.0" standalone="no"?>
<!DOCTYPE svg PUBLIC "-//W3C//DTD SVG 1.1//EN" "http://www.w3.org/Graphics/SVG/1.1/DTD/svg11.dtd" >
<svg xmlns="http://www.w3.org/2000/svg" xmlns:xlink="http://www.w3.org/1999/xlink" version="1.1" viewBox="0 -205 1024 1024">
  <g transform="matrix(1 0 0 -1 0 819)">
   <path fill="currentColor"
d="M458 770q9 36 18 90l72 -30q6 -2 4 -10q-1 -3 -16 -8q-15 -3 -20 -18l-10 -30q-3 -15 -24 -72h80q48 82 84 152q54 -33 60 -38q5 -5 2 -10q-3 -3 -18 -6q-15 0 -26 -12q-12 -9 -74 -86h90l38 48l56 -54q6 -3 6 -6q5 -9 -10 -12h-296q-18 -48 -44 -90h284l36 48l52 -52
q3 -3 4 -8q0 -12 -12 -12h-176q35 -43 64 -68q30 -25 66 -40q35 -16 94 -22v-18q-25 0 -40 -6q-16 -7 -38 -28q-57 38 -78 58q-20 20 -46 50q-27 29 -48 74h-172q-51 -75 -102 -126q-48 -49 -122 -92l-8 14q59 45 98 88q37 40 86 116h-94q-16 0 -68 -8l-14 32h190
q23 45 38 90h-112q-18 0 -66 -8l-18 32h206q12 42 24 78v0v0zM362 476l52 -20h162l24 30q55 -36 56 -42q0 -6 -6 -8q-4 -3 -20 -14q0 -72 -12 -92q-10 -19 -26 -32q-14 -12 -46 -24q-6 33 -26 42q-21 9 -44 18l4 16q50 -13 68 -10q14 -1 26 14t10 78h-174v-168
q-1 -28 14 -32t28 -4h168q33 0 48 16q12 15 16 34q3 20 6 68h16q2 -36 4 -60q0 -22 28 -40q-6 -21 -30 -38q-22 -18 -70 -20h-188q-34 -1 -52 8q-19 6 -28 28q-7 14 -8 50v202v0v0zM122 958l56 -36h658l38 42l58 -46q6 -4 6 -8q-1 -6 -34 -36v-702l4 -97q2 -12 -16 -24
q-18 -10 -38 -14v74h-680v-36q0 -14 -18 -28t-38 -14l4 153v772v0v0zM174 139h680v755h-680v-755v0v0zM270 824l6 12q53 -18 82 -36q30 -19 36 -38q7 -18 0 -32q-7 -16 -22 -16q-15 -2 -24 18t-20 40q-13 20 -58 52v0v0z" />
  </g>

</svg>
