<?xml version="1.0" standalone="no"?>
<!DOCTYPE svg PUBLIC "-//W3C//DTD SVG 1.1//EN" "http://www.w3.org/Graphics/SVG/1.1/DTD/svg11.dtd" >
<svg xmlns="http://www.w3.org/2000/svg" xmlns:xlink="http://www.w3.org/1999/xlink" version="1.1" viewBox="0 -205 1024 1024">
  <g transform="matrix(1 0 0 -1 0 819)">
   <path fill="currentColor"
d="M324 830h150v156l80 -28q7 -4 6 -10q-1 0 -4 -6l-32 -16v-96h202v154l80 -30q9 -3 4 -14q0 -1 -6 -4l-28 -12v-94h68l40 42l56 -54q7 -12 -4 -14h-160v-114h114l40 46l58 -58q3 -4 4 -8q0 -9 -12 -8h-330v-104h154l34 40l56 -46q6 -6 6 -8q-1 -7 -28 -26v-172l4 -82
q0 -16 -14 -28q-15 -10 -42 -14v38h-398v-16q0 -15 -18 -26q-18 -12 -36 -12l4 120v276l62 -44h164v104h-250q-21 0 -56 -8l-16 36h198v114h-66q-21 0 -68 -6l-16 32v0v0zM524 690h202v114h-202v-114v0v0zM422 286h176v108h-176v-108v0v0zM650 394v-108h170v108h-170v0v0z
M422 420h176v112h-176v-112v0v0zM650 532v-112h170v112h-170v0v0zM434 101q-54 -29 -174 -80l-4 14q107 64 158 100q51 34 102 83q60 -44 60 -52q-1 -8 -8 -10h-20q-12 1 -36 -12q-24 -10 -78 -43v0v0zM702 206q92 -28 146 -52q53 -21 80 -45q24 -21 22 -46q-1 -23 -20 -28
q-18 -3 -36 20q-19 25 -58 56q-39 29 -140 81l6 14v0v0zM338 934q12 -8 -2 -16q-27 -2 -42 -34q-51 -96 -108 -198l50 -24q12 -6 -2 -18l-18 -8v-490l4 -93q1 -17 -22 -32q-21 -13 -36 -12l4 131v506q-75 -126 -134 -182l-12 8q56 81 140 252q83 171 104 250l74 -40v0v0z
" />
  </g>

</svg>
