<?xml version="1.0" standalone="no"?>
<!DOCTYPE svg PUBLIC "-//W3C//DTD SVG 1.1//EN" "http://www.w3.org/Graphics/SVG/1.1/DTD/svg11.dtd" >
<svg xmlns="http://www.w3.org/2000/svg" xmlns:xlink="http://www.w3.org/1999/xlink" version="1.1" viewBox="0 -205 1024 1024">
  <g transform="matrix(1 0 0 -1 0 819)">
   <path fill="currentColor"
d="M52 858h296v122l80 -26q15 -6 0 -18l-28 -16v-62h232v118l84 -28q11 -5 2 -16l-34 -16v-58h190l44 50l62 -60q3 -3 4 -6q1 -10 -12 -10h-288v-30l4 -42q3 -15 -18 -26q-21 -12 -42 -12l4 76v34h-232v-34l4 -42q3 -15 -20 -26q-22 -12 -40 -12l4 82v32h-212q-24 0 -60 -8
l-24 34v0v0zM150 732l52 -40h608l32 40l56 -38q12 -6 12 -14q-1 -3 -34 -30v-531l4 -64q1 -11 -16 -22q-17 -9 -40 -12v72h-624v-44q0 -9 -20 -22q-19 -10 -34 -8l4 84v629v0v0zM200 119h146v313l44 -32h216l34 36l54 -42q6 -9 -2 -14l-24 -12v-249h156v547h-624v-547v0v0z
M396 119h222v255h-222v-255v0v0zM226 420q102 105 172 210l60 -40q9 -7 -2 -16q-19 -1 -32 -8q-12 -5 -50 -40q-36 -36 -138 -116l-10 10v0v0zM566 618l8 12q92 -37 142 -76q50 -37 62 -62t6 -44q-7 -19 -28 -20q-19 0 -38 34q-18 33 -42 66q-24 30 -110 90v0v0z" />
  </g>

</svg>
