<?xml version="1.0" standalone="no"?>
<!DOCTYPE svg PUBLIC "-//W3C//DTD SVG 1.1//EN" "http://www.w3.org/Graphics/SVG/1.1/DTD/svg11.dtd" >
<svg xmlns="http://www.w3.org/2000/svg" xmlns:xlink="http://www.w3.org/1999/xlink" version="1.1" viewBox="0 -205 1024 1024">
  <g transform="matrix(1 0 0 -1 0 819)">
   <path fill="currentColor"
d="M370 938h480l22 32q62 -40 64 -46q0 -6 -6 -8q-6 -1 -24 -8q-18 -6 -86 -78l-12 10l38 70h-162v-134h138l30 38q56 -48 58 -54q3 -6 -2 -8q-6 -4 -24 -4h-200v-118q160 -12 308 12l2 -18q-31 -9 -46 -18t-20 -30q-103 -2 -196 6q-90 8 -144 34q-52 24 -106 88
q-54 -139 -150 -214l-10 12q51 66 88 144q36 76 60 194q80 -31 82 -38q0 -7 -2 -10q-3 -3 -20 -6q-15 -1 -38 -64q75 -71 144 -82v272h-190q-22 -4 -52 -10l-24 36v0v0zM458 546l52 -40h298l30 34l54 -36q8 -3 8 -12q1 -7 -28 -28v-359q1 -33 -16 -54q-15 -19 -68 -38
q-6 36 -36 50q-27 13 -74 28l4 18q45 -11 72 -16q27 -4 46 -2q20 2 20 28v119h-310v-99l4 -80q1 -11 -22 -26q-21 -13 -38 -14l4 118v409v0v0zM510 264h310v94h-310v-94v0v0zM510 384h310v96h-310v-96v0v0zM36 694h160v272l80 -36l10 -6q4 -4 -4 -8l-38 -16v-206h70l30 42
l44 -50q4 -2 8 -16l-10 -2h-142v-316l122 52l8 -16q-205 -109 -244 -148l-32 -30l-46 60l144 62v336h-76q-21 0 -68 -8l-16 34v0v0z" />
  </g>

</svg>
