<?xml version="1.0" standalone="no"?>
<!DOCTYPE svg PUBLIC "-//W3C//DTD SVG 1.1//EN" "http://www.w3.org/Graphics/SVG/1.1/DTD/svg11.dtd" >
<svg xmlns="http://www.w3.org/2000/svg" xmlns:xlink="http://www.w3.org/1999/xlink" version="1.1" viewBox="0 -36 256 256">
  <g transform="matrix(1 0 0 -1 0 220)">
   <path fill="currentColor"
d="M60 246l19 -12q-11 -7 -46 -47q33 3 64 6q-9 12 -18 23l3 3q26 -14 34.5 -23t3.5 -21.5t-10 -4t-10 16.5q-46 -5 -83 -19l-8 17q12 1 26 17.5t25 43.5zM21 71v72q0 12 -2 23l15 -8h65l10 10l12 -13l-7 -6v-67q0 -14 1 -25l-15 -6v8h-66v-6l-15 -5q2 12 2 23zM100 151h-66
v-25h66v25zM100 119h-66v-20h66v20zM100 92h-66v-26h66v26zM111 35.5q7 -7.5 3.5 -18t-10.5 2.5t-29 35l2 3q27 -15 34 -22.5zM55 44q-11 -10 -24 -21t-22 -15l-1 3q27 23 39 49l15 -13zM204 218l13 13l19 -20h-74q-10 1 -20 -2l-7 9h69zM174.5 104.5
q-10.5 -21.5 -35.5 -65.5q61 2 81 2q-9 22 -20 39l2 3q19 -19 31 -35t4.5 -27t-10 -3.5t-5.5 18.5q-43 -5 -64.5 -8.5t-26.5 -10.5l-10 22q12 -1 29.5 38t22.5 63h-25q-10 0 -19 -2l-9 9h96l14 12l18 -19h-72l18 -13q-9 -1 -19.5 -22.5z" />
  </g>

</svg>
