<?xml version="1.0" standalone="no"?>
<!DOCTYPE svg PUBLIC "-//W3C//DTD SVG 1.1//EN" "http://www.w3.org/Graphics/SVG/1.1/DTD/svg11.dtd" >
<svg xmlns="http://www.w3.org/2000/svg" xmlns:xlink="http://www.w3.org/1999/xlink" version="1.1" viewBox="0 -205 1024 1024">
  <g transform="matrix(1 0 0 -1 0 819)">
   <path fill="currentColor"
d="M416 814l72 -32q8 -4 8 -8q1 -4 -4 -10l-26 -14v-582l4 -97q0 -15 -20 -28q-21 -13 -38 -14l4 129v656v0v0zM454 962q95 -54 110 -80q15 -25 12 -44q-3 -18 -12 -26q-9 -10 -24 -8q-16 0 -22 28q-4 28 -20 56q-14 26 -52 62l8 12v0v0zM754 706l62 -34q6 -6 6 -8
q-3 -9 -32 -32v-302l4 -52q1 -9 -18 -24q-17 -12 -34 -14v42h-140v-34q0 -15 -18 -26q-17 -9 -34 -12l4 80v422l54 -44h122l24 38v0v0zM602 310h140v160h-140v-160v0v0zM602 496h140v146h-140v-146v0v0zM904 904l60 -44q8 -4 8 -10q1 -5 -34 -28v-693q4 -39 -10 -70
q-13 -27 -62 -46q-13 30 -32 42q-19 13 -94 38l6 16q81 -15 96 -18q12 -1 30 0t16 38v711h-196q-18 0 -56 -8l-22 34h264l26 38v0v0zM124 638h160l34 46l42 -42q19 -15 14 -24q-3 -6 -8 -6h-126v-156h60l36 46l52 -52q9 -12 -6 -20h-142v-252l128 88l12 -14
q-99 -84 -126 -110q-25 -25 -46 -67l-58 52q18 8 42 31v272h-74q-31 0 -58 -8l-18 34h150v156h-26l-24 -6l-18 32v0v0zM270 938q7 -3 8 -6q3 -9 -8 -14q-24 -7 -36 -28q-18 -45 -38 -86h108l40 46l58 -58q2 -3 2 -6q0 -9 -6 -8h-212q-33 -75 -66 -134q-31 -57 -88 -134
l-14 10q48 85 108 230q56 143 74 224l70 -36v0v0z" />
  </g>

</svg>
