<?xml version="1.0" standalone="no"?>
<!DOCTYPE svg PUBLIC "-//W3C//DTD SVG 1.1//EN" "http://www.w3.org/Graphics/SVG/1.1/DTD/svg11.dtd" >
<svg xmlns="http://www.w3.org/2000/svg" xmlns:xlink="http://www.w3.org/1999/xlink" version="1.1" viewBox="0 -154 1024 1024">
  <g transform="matrix(1 0 0 -1 0 870)">
   <path fill="currentColor"
d="M660 980l94 -37q14 -6 6 -12q-16 -5 -36 -15v-118q-1 -42 -3 -80h165l41 40l46 -49q14 -12 -6 -17l-23 -10v-171q-5 -260 -29 -327q-22 -69 -65 -97q-43 -29 -107 -36q1 45 -110 76l4 16q82 -24 124 -28q75 -6 110 87q22 48 28 326v170h-178q-13 -279 -75 -426
q-70 -168 -240 -245l-12 15q153 95 216 257q54 145 66 399h-93q-22 1 -39 -13l-33 33h165q1 18 2 38v174q-7 26 -27 37zM55 774h229v169q-5 18 -22 28l8 11l80 -26q17 -3 6 -11q-14 -3 -29 -20v-151h120l33 40l70 -50q17 -10 -6 -10h-217v-84q-4 -126 -22 -223h166l33 40
l71 -50q17 -10 -7 -10h-267q-4 -24 -10 -45q128 -93 162 -173q31 -82 -11 -84q-17 0 -26 39q-7 38 -37 91q-27 50 -92 111q-12 -42 -27 -77q-59 -138 -215 -233l-8 12q145 122 193 245q19 48 31 114h-145q-29 1 -47 -13l-35 33h230q17 95 20 223v84h-148q-27 0 -46 -14z
M429 704l70 -36q18 -11 8 -15q-25 1 -43 -21q-48 -92 -93 -164l-12 6l33 76q43 105 40 118q-3 14 -11 29zM101 681l10 9q85 -81 100 -144q9 -63 -27 -63q-16 2 -17 38q0 37 -14 73q-15 36 -52 87z" />
  </g>

</svg>
