<?xml version="1.0" standalone="no"?>
<!DOCTYPE svg PUBLIC "-//W3C//DTD SVG 1.1//EN" "http://www.w3.org/Graphics/SVG/1.1/DTD/svg11.dtd" >
<svg xmlns="http://www.w3.org/2000/svg" xmlns:xlink="http://www.w3.org/1999/xlink" version="1.1" viewBox="0 -36 256 256">
  <g transform="matrix(1 0 0 -1 0 220)">
   <path fill="currentColor"
d="M225 225l19 -19h-197q-10 0 -19 -2l-10 9h109q-2 19 -21 30l2 3q24 -7 32 -15t-5 -18h76zM38 162.5q0 16.5 -1 30.5l14 -7h48l7 8l16 -11l-8 -5q0 -35 1 -43l-14 -4v8h-50v-4l-14 -4q1 15 1 31.5zM51 146h50v33h-50v-33zM144 165q0 18 -1 28l13 -7h52l7 8l15 -11l-8 -5
q0 -26 1 -41l-13 -5v7h-53v-5l-14 -3q1 16 1 34zM157 146h53v33h-53v-33zM99 77v-46l45 16l2 -3q-49 -26 -55 -36l-10 16q4 4 3 16v27q-28 -24 -75 -38l-1 3q30 13 53 30t38 33h-52q-10 0 -19 -2l-10 9h190l15 12l18 -19h-106q12 -20 27 -33q27 15 38 31l16 -19h-11
q-19 -8 -40 -16q16 -15 37.5 -21t44.5 -6v-5q-20 -4 -21 -15q-31 9 -55.5 28t-40.5 56h-11q-9 -7 -20 -18zM139 122q5 -8 -1.5 -16t-10 3t-17.5 25l2 2q22 -6 27 -14z" />
  </g>

</svg>
