<?xml version="1.0" standalone="no"?>
<!DOCTYPE svg PUBLIC "-//W3C//DTD SVG 1.1//EN" "http://www.w3.org/Graphics/SVG/1.1/DTD/svg11.dtd" >
<svg xmlns="http://www.w3.org/2000/svg" xmlns:xlink="http://www.w3.org/1999/xlink" version="1.1" viewBox="0 -205 1048 1024">
  <g transform="matrix(1 0 0 -1 0 819)">
   <path fill="currentColor"
d="M454 681q29 39 53 93q30 67 36 132l48 -33q60 4 125 27q70 23 120 60l45 -35q18 -14 13 -19q-4 -5 -34 -5q-52 -16 -131 -30q-90 -17 -144 -18q-28 -54 -54 -92q-33 -51 -71 -86zM499 670q27 -6 53 -14q20 -7 42 -16l3 10q13 29 21 47q14 33 22 57l47 -24q19 -11 12 -19
q-6 -7 -32 -2l-57 -76q28 -12 45 -26q30 -23 33 -50q27 35 49 67q16 23 53 78l24 37l39 -37q24 -21 21 -26q-2 -7 -37 -4l-166 -168l207 15q-12 17 -39 43q-24 23 -45 40l8 7q69 -32 112 -67q48 -38 51 -74q0 -36 -13 -44q-13 -9 -25 17q-7 13 -19 31q-9 14 -19 28l-175 -23
q40 -18 45 -24q4 -4 -9 -12l-13 -7q-1 -21 -3 -39q-3 -19 -6 -37h159l32 39l51 -37q12 -8 7 -13q-4 -5 -19 -5h-224q41 -63 107 -121q68 -63 130 -85l1 -10q-30 -6 -46 -21q-16 -14 -15 -31q-33 24 -91 96q-71 88 -98 159q-25 -98 -92 -159q-74 -67 -208 -100l-5 10
q128 52 192 119q55 59 71 143h-156l-59 -3l-16 23l61 -4h172q4 27 6 56q2 28 2 60l-161 -22l-1 -2q-6 -24 -11 -27q-8 -5 -21 27l-19 45l170 7l32 40q-14 1 -34 15q-12 8 -39 30q-32 27 -50 40q-30 22 -58 34zM686 856q40 -15 67 -42q27 -29 22 -52q-5 -10 -14 -13
q-13 -5 -24 17q-4 13 -21 39q-21 30 -36 45zM857 862q59 -31 79 -46q31 -23 40 -55q2 -29 -11 -33q-13 -5 -29 18q-5 12 -33 44q-26 32 -66 72l6 7zM444 684q23 -17 12 -25q-7 -4 -28 -6v-243l1 -10q2 -21 -1 -29q-2 -10 -17 -16q-14 -4 -18 1q-3 3 -4 17v9h-216v-4
q1 -14 -2 -20q-4 -10 -17 -17q-14 -3 -18 1q-2 2 -2 14l1 12v288l-4 52l41 -21h82l72 153h-121q-29 -54 -55 -94q-24 -37 -65 -89l-7 5q41 65 83 163q33 82 52 149l36 -13q36 -11 26 -20q-7 -8 -30 -9l-33 -73h107l30 26l32 -28q26 -24 19 -31q-3 -5 -27 -5h-4l-98 -134h114
l26 22zM447 207q-3 -21 -14 -31t-17 15q-5 25 -21 57q-18 38 -44 74l6 7q47 -36 69 -63q25 -32 21 -59zM336 160q-8 -17 -19 -18q-10 0 -10 30q-3 26 -11 53q-10 32 -33 74l8 8q44 -47 59 -79q15 -34 6 -68zM240 113q-11 -16 -22 -13q-11 4 -10 26q3 29 -5 73q-9 45 -26 84
l7 4q30 -31 48 -81q23 -59 8 -93zM132 283q9 -63 2 -121t-29 -90q-8 -15 -23 0q-14 16 -5 42q0 11 4 21q3 6 10 18q13 26 19 46q10 34 12 82zM390 667h-82q5 -7 1 -12q-3 -5 -12 -5v-102h93v119zM262 667h-90v-119h90v119zM390 529h-93v-129h93v129zM262 529h-90v-129h90
v129z" />
  </g>

</svg>
