<?xml version="1.0" standalone="no"?>
<!DOCTYPE svg PUBLIC "-//W3C//DTD SVG 1.1//EN" "http://www.w3.org/Graphics/SVG/1.1/DTD/svg11.dtd" >
<svg xmlns="http://www.w3.org/2000/svg" xmlns:xlink="http://www.w3.org/1999/xlink" version="1.1" viewBox="0 -36 256 256">
  <g transform="matrix(1 0 0 -1 0 220)">
   <path fill="currentColor"
d="M40 235l22 -8l-7 -4v-21h66v23q0 9 -1 21l22 -7l-7 -5v-32h67v15q0 7 -1 17l23 -9l-8 -4v-12q0 -8 1 -16l-15 -5v7h-147l-7 -4l-12 9l5 4v13q0 8 -1 18zM163 162h-118q-11 0 -20 -2l-10 9h110q-2 10 -20 23l2 3q21 -4 28 -9.5t-2 -16.5h79l13 13l18 -20h-77l13 -10
q-13 -2 -33 -10q25 -9 29.5 -16t-2.5 -15h23q0 33 -1 41l22 -9l-7 -8q0 -23 1 -31l-15 -6v6h-55q-5 -3 -18 -18h92l8 11l16 -13l-7 -6v-44q1 -18 -20 -26q-3 13 -33 20v4q26 -2 32.5 -1.5t5.5 7.5v41h-99q-17 -15 -27 -22h36.5h37.5q-5 4 -17 16l3 2q27 -12 32.5 -18.5
t3.5 -13t-5.5 -8.5t-6.5 5t-7 13q-78 -5 -87 -15l-10 19q10 2 15.5 7t17.5 15h-57v-65l-15 -6q1 27 1 49.5t-1 37.5l15 -9h62q6 8 13 18h-55l-7 -6l-14 11l7 6q0 34 -2 38l25 -9l-9 -6v-27h100q-6 8 -13.5 13t-17.5 10q-30 -10 -65 -16l-1 3q36 9 54 19q-24 10 -42 15l1 3
q28 -5 50 -12q21 9 30 16z" />
  </g>

</svg>
