<?xml version="1.0" standalone="no"?>
<!DOCTYPE svg PUBLIC "-//W3C//DTD SVG 1.1//EN" "http://www.w3.org/Graphics/SVG/1.1/DTD/svg11.dtd" >
<svg xmlns="http://www.w3.org/2000/svg" xmlns:xlink="http://www.w3.org/1999/xlink" version="1.1" viewBox="0 -36 256 256">
  <g transform="matrix(1 0 0 -1 0 220)">
   <path fill="currentColor"
d="M50 238l21 -10l-8 -5q-3 -21 -6 -47h22l7 11l14 -11l-7 -8q-4 -66 -17 -96q13 -11 17.5 -19.5t0 -16t-10 3.5t-14.5 20q-18 -28 -55 -52l-2 4q32 26 48 56q-9 10 -31 24q9 37 14 79v-2q-12 0 -22 -3l-8 10h31q5 35 6 62zM56 169q-5 -39 -14 -77q13 -7 23 -14q12 28 15 91
h-24zM159 233l-7 -5l-10 -22h80l7 11l15 -12l-8 -8q-4 -57 -7.5 -75.5t-22.5 -24.5q-2 13 -24 19v4q21 -3 26.5 -3t8 16t6.5 66h-16q-21 -76 -89 -103l-2 3q55 30 77 100h-18q-22 -49 -65 -74l-2 3q35 28 52 71h-20q-19 -33 -36 -47l-2 3q8 12 16 27t13.5 31.5t7.5 30.5z
M121 82q0 -27 -3.5 -36t-9.5 -10.5t-10 2.5t5 12t14 32h4zM129 92l20 -10l-7 -8v-32q0 -14 11 -13h47q4 1 5.5 12t2.5 30h4q0 -14 2 -26.5t11 -15.5q-9 -13 -21 -12h-61q-14 0 -13 21q0 36 -1 54zM179 87q7 -8 5.5 -15t-5.5 -10t-7.5 9.5t-17.5 30.5l2 2q16 -9 23 -17z
M239 68.5q8 -7.5 7.5 -15t-4.5 -13.5t-9 9t-22 34l2 3q18 -10 26 -17.5z" />
  </g>

</svg>
