<?xml version="1.0" standalone="no"?>
<!DOCTYPE svg PUBLIC "-//W3C//DTD SVG 1.1//EN" "http://www.w3.org/Graphics/SVG/1.1/DTD/svg11.dtd" >
<svg xmlns="http://www.w3.org/2000/svg" xmlns:xlink="http://www.w3.org/1999/xlink" version="1.1" viewBox="0 -36 256 256">
  <g transform="matrix(1 0 0 -1 0 220)">
   <path fill="currentColor"
d="M81 157l-13 -8v12h-10v-45h10l8 11l12 -18h-30v-57l25 9l1 -4q-27 -12 -58 -29l-8 -8l-10 16l12 4q0 75 -1 97l19 -14l-6 -7v-72l14 5v112h-17v-7l-13 -7q1 14 1 43t-1 46l13 -9h37l8 10l12 -15l-6 -5q0 -39 1 -60zM29 168h39v52h-39v-52zM155 149q0 -9 1 -22l-13 -6v10
h-20q-2 -11 -6 -26l5 -5h22l7 8l12 -12l-7 -6v-37q0 -17 1 -32l-13 -5v13h-22v-14l-13 -5q1 23 1 77q-10 -25 -28 -41l-2 3q10 13 18.5 34t12.5 48q-7 0 -12 -3l-7 10h19l2 36q-8 0 -17 -2l-10 9h27v36q-10 1 -15 -2l-7 9h52l7 8l12 -13l-7 -4v-33v-33zM125 181h18v36h-18
v-36zM123 138h20v36h-18q-1 -17 -2 -36zM122 36h22v57h-22v-57zM197 213q2 -10 -3 -17t-9 10t-13 34l2 2q21 -19 23 -29zM221 246l18 -13q-9 -6 -25 -46h6l10 11l14 -18h-37v-39h11l9 8l12 -15h-32v-43h20l9 9l12 -16h-41v-44q0 -13 1 -25l-14 -8q1 25 1 77h-6q-10 0 -19 -2
l-9 9h34v43q-10 0 -19 -2l-9 9h28v39q-15 0 -24 -2l-9 9h47q9 30 12 59z" />
  </g>

</svg>
