<?xml version="1.0" standalone="no"?>
<!DOCTYPE svg PUBLIC "-//W3C//DTD SVG 1.1//EN" "http://www.w3.org/Graphics/SVG/1.1/DTD/svg11.dtd" >
<svg xmlns="http://www.w3.org/2000/svg" xmlns:xlink="http://www.w3.org/1999/xlink" version="1.1" viewBox="0 -144 1024 1024">
  <g transform="matrix(1 0 0 -1 0 880)">
   <path fill="currentColor"
d="M431 333l-1 1zM543 290l55 -34l10 -18l-21 -1l-31 -43l-33 -39l-38 -37l-21 -18l-45 -33l-7 7l62 88l37 61l20 41l9 20zM52 145l-1 2zM876 123l-9 20l-20 38l-23 37l-38 54l-15 17l7 8l39 -25l36 -29l33 -34l30 -37l14 -20l13 -20l1 -25l-16 -19l-25 -1l-18 15zM453 952
l65 -32h333l32 27l60 -49l-27 -21v-258l-65 -33v54h-129v-11h-64v11h-140v-16l-65 -32v360zM658 769h-140v-107h140v107zM851 769h-129v-107h129v107zM658 898h-140v-107h140v107zM851 898h-129v-107h129v107zM435 297l-1 2zM56 124v-2v2zM435 292l-18 63l11 1l57 4l70 39
l16 9l-2 5l-4 11l-11 22l-15 23l-9 11l-9 12l-11 13l-12 10l5 8l15 -8l16 -6l5 -2l37 31l28 28l13 13l11 13l16 24l3 6h-1l6 9l51 -40l7 -18l-23 1l-9 -8l-14 -11l-33 -22l-19 -11l-40 -19l-16 -5l19 -13l25 -19l21 -21l2 -3l36 27l30 25l27 27l25 27l25 31l48 -44l5 -19
l-20 4l-13 -14l-31 -28l-32 -25l-35 -24l-37 -23l-39 -20l-39 -18l93 8l49 3l48 5l48 3l49 3l25 1l-30 64l-10 19l-10 19l7 7l34 -30l16 -16l29 -36l13 -20l12 -21l12 -21l21 -45l-3 -25l-18 -16l-25 2l-16 19l-6 22l-12 42l-9 22l-74 -18l-96 -20l-3 -1v-273l-65 -32v294
l-74 -13l-121 -19l-10 -18zM61 93l-11 32l-5 1l2 6l-8 23l11 2h6l54 150l27 80l6 22h-120v21h81v468l64 -32h146l53 54l65 -54v-22h-264v-118h112l44 48l54 -48v-21h-210v-129h123l44 48l54 -48v-22h-221v-124h178l54 54l64 -54v-21h-255l-8 -20l-35 -73l-48 -89l-39 -66
l35 5l28 6l67 14l124 29l32 7l-6 15l-9 20l-22 42l-15 22l8 7l38 -36l16 -18l28 -34l12 -17l10 -17l8 -17l7 -17l5 -17l-6 -23l-22 -13l-23 7l-13 21v11l-1 14l-3 14l-4 16l-3 8l-73 -32l-110 -43l-84 -29l-20 -6l-9 -21z" />
  </g>

</svg>
