<?xml version="1.0" standalone="no"?>
<!DOCTYPE svg PUBLIC "-//W3C//DTD SVG 1.1//EN" "http://www.w3.org/Graphics/SVG/1.1/DTD/svg11.dtd" >
<svg xmlns="http://www.w3.org/2000/svg" xmlns:xlink="http://www.w3.org/1999/xlink" version="1.1" viewBox="0 -205 1024 1024">
  <g transform="matrix(1 0 0 -1 0 819)">
   <path fill="currentColor"
d="M424 868h446l42 56l66 -66q3 -3 4 -8q0 -10 -12 -10h-226v-737q-4 -33 -26 -52q-22 -18 -58 -30q-6 33 -36 50q-30 18 -108 42l4 20q126 -33 148 -28q22 4 20 22v713h-180q-21 0 -68 -8l-16 36v0v0zM222 984l88 -40q6 -5 4 -10q0 -5 -38 -22v-296q79 90 134 174
q69 -45 70 -54q0 -8 -8 -10q-9 -3 -24 -2q-13 0 -64 -44q-49 -42 -110 -98q0 -99 -8 -186q50 -30 104 -72q51 -40 66 -70q12 -27 10 -48q-3 -19 -14 -28q-9 -12 -26 -6q-15 2 -26 44q-12 42 -44 84q-34 41 -76 68q-19 -111 -62 -188q-41 -77 -142 -165l-12 12
q96 102 132 197q33 95 40 170q7 74 6 188v402v0v0zM134 732h20q10 -97 0 -148q-9 -51 -32 -74q-24 -25 -44 -22q-21 0 -26 18q-6 18 12 36q18 17 40 52q21 33 30 138v0v0v0z" />
  </g>

</svg>
