<?xml version="1.0" standalone="no"?>
<!DOCTYPE svg PUBLIC "-//W3C//DTD SVG 1.1//EN" "http://www.w3.org/Graphics/SVG/1.1/DTD/svg11.dtd" >
<svg xmlns="http://www.w3.org/2000/svg" xmlns:xlink="http://www.w3.org/1999/xlink" version="1.1" viewBox="0 -205 1024 1024">
  <g transform="matrix(1 0 0 -1 0 819)">
   <path fill="currentColor"
d="M506 952l56 -36h270l30 34l60 -40l4 -8q1 -7 -34 -28v-188l4 -64q0 -11 -20 -22q-18 -9 -36 -8v52h-118v-148h144l32 36l54 -48q9 -6 10 -12q0 -6 -36 -24v-278q0 -27 -20 -45q-19 -18 -52 -30q-10 34 -34 45q-24 12 -72 28l6 20q78 -22 106 -16q18 6 18 36v258h-156
v-335l6 -64q1 -12 -22 -28q-24 -15 -38 -16l4 106v337h-158v-246l4 -76q1 -11 -22 -25q-20 -15 -34 -12l4 111v324l54 -46h152v148h-116v-30q0 -10 -20 -20t-34 -10l4 104v264v0v0zM556 674h284v214h-284v-214v0v0zM152 680h176l34 44l54 -54q7 -15 -4 -18h-136v-138h64
l34 44l54 -52q12 -12 -2 -20h-150v-298l154 30l6 -18q-111 -33 -174 -50q-63 -16 -108 -37q-42 -18 -66 -40l-48 66l186 39v308h-96q-18 0 -54 -8l-18 36h168v138h-32l-20 -6l-22 34v0v0zM48 580q51 78 100 168q48 91 106 230l68 -34q3 -9 -2 -12q-4 -4 -14 -8
q-10 -3 -26 -24q78 -33 114 -60q35 -25 46 -46q9 -22 -2 -40q-10 -16 -26 -14q-15 3 -26 28q-10 24 -32 48q-21 24 -84 70q-40 -82 -88 -160t-122 -156l-12 10v0v0zM90 406l12 8q48 -46 64 -76q15 -31 16 -58q0 -27 -14 -36q-15 -10 -30 -4q-15 5 -14 28q0 21 -2 52
q0 31 -32 86v0v0zM290 262q45 87 88 168l54 -38q4 -10 -4 -14q-6 -3 -18 -6t-32 -26q-18 -25 -74 -94l-14 10v0v0z" />
  </g>

</svg>
