<?xml version="1.0" standalone="no"?>
<!DOCTYPE svg PUBLIC "-//W3C//DTD SVG 1.1//EN" "http://www.w3.org/Graphics/SVG/1.1/DTD/svg11.dtd" >
<svg xmlns="http://www.w3.org/2000/svg" xmlns:xlink="http://www.w3.org/1999/xlink" version="1.1" viewBox="0 -200 1000 1000">
  <g transform="matrix(1 0 0 -1 0 800)">
   <path fill="currentColor"
d="M99 817q16 0 32 -8t35 -22h73l30 39q17 -5 32 -16.5t21 -23.5l-28 -28v-393q-22 -22 -45 -22v40h-104v-18q-22 -22 -46 -22v474zM405 898q17 0 34.5 -9.5t39.5 -26.5l-29 -20v-165l18 24q22 -9 35.5 -23.5t18.5 -23.5h-72v-165l52 21v-11l-52 -38v-291q0 -17 -15 -31
t-32 -14q0 8 -18 34t-50 52l6 5q20 -16 34 -22t22 -6t8 5v236l-64 -45q-1 1 -4.5 3.5t-8 9t-10 18t-9.5 30.5l16 -5l80 31v183h-47l-17 -4l-12 16h76v232zM600 510l-17 -4l-12 16h169l31 39q16 -10 31 -30t21 -42l-28 -16l-167 -147q-17 -15 -26.5 -27.5t-14 -23.5t-5 -21
t-0.5 -20q0 -18 15.5 -30.5t37.5 -12.5h175q9 0 16.5 3t13.5 13.5t10.5 30t8.5 53.5l5 5q2 -25 8 -42.5t12 -30t11 -22.5t5 -20q0 -31 -61 -31h-204q-41 0 -69.5 24.5t-28.5 59.5q0 13 0.5 26.5t5 27.5t14 29t26.5 32l167 161h-150zM145 395h104v380h-84l-20 -13v-367z
M583 814l6 -52h225l30 53q30 -28 38.5 -44.5t8.5 -28.5q-11 -1 -20 -11t-16.5 -22t-14.5 -23t-15 -14l-6 -6v98h-229q3 -27 3 -46q0 -22 -3.5 -35t-10 -19.5t-14.5 -8t-17 -1.5q-24 0 -24 15q0 8 10 17q14 14 25 50.5t19 79.5zM621 716q20 -5 38 -13.5t26 -17.5l-25 -17
q-18 -51 -56 -87.5t-81 -55.5l-3 3q32 24 60 73t41 115zM737 713q40 -28 66 -49.5t41.5 -38.5t21.5 -29.5t6 -22.5q0 -16 -11.5 -26.5t-18.5 -10.5q-15 0 -19 27q-4 24 -30 64t-61 83zM674 906q39 -35 54 -56t15 -34q0 -8 -4.5 -14.5t-11 -11.5t-13.5 -8t-11 -3
q-12 0 -12 12q0 5 2 10.5t2 13.5q0 17 -7.5 40.5t-18.5 49.5z" />
  </g>

</svg>
