<?xml version="1.0" standalone="no"?>
<!DOCTYPE svg PUBLIC "-//W3C//DTD SVG 1.1//EN" "http://www.w3.org/Graphics/SVG/1.1/DTD/svg11.dtd" >
<svg xmlns="http://www.w3.org/2000/svg" xmlns:xlink="http://www.w3.org/1999/xlink" version="1.1" viewBox="0 -36 256 256">
  <g transform="matrix(1 0 0 -1 0 220)">
   <path fill="currentColor"
d="M161 166l-4 2q12 20 17.5 38.5t7.5 38.5l16 -10l-5 -7l-8 -23h33l11 9l14 -16h-16q-8 -37 -20 -58q15 -18 38 -24v-3q-13 0 -16 -8q-17 10 -30 25q-18 -17 -53 -28l-2 3q31 14 48 35q-11 20 -16 47q-4 -9 -15 -21zM180 191q11 -29 19 -42q9 18 15 49h-31zM119 142
q-20 -28 -44 -39l-2 3q25 20 39 49h-10v-3l-14 -3q1 11 1 24.5t-1 25.5l15 -6h16v13h-11q-10 0 -20 -2l-9 9h40q0 15 -1 31l18 -10l-6 -8v-13h16l9 8l15 -15h-40v-13h14l7 7l12 -12l-7 -3q0 -18 1 -30l-13 -4v4h-14v-7q26 -8 29 -13.5t-0.5 -12.5t-9.5 2.5t-19 19.5
q0 -25 1 -36l-13 -4q1 24 1 38zM102 162h17v24h-17v-24zM130 162h14v24h-14v-24zM87 89l1 -5q-60 -29 -68 -40l-11 20q11 1 34 9v76h-3q-11 0 -20 -2l-9 9h32v44q0 21 -1 42l22 -10l-8 -9v-67h8l9 10l13 -17h-30v-73q17 6 31 13zM120 87q-10 0 -19 -2l-10 9h116l12 10
l15 -17h-66v-22h31l13 11l17 -18h-61v-34h50l13 11l14 -18h-142q-11 0 -20 -2l-9 9h36v25q0 10 -1 23l22 -9l-9 -7v-32h32v63h-34z" />
  </g>

</svg>
