<?xml version="1.0" standalone="no"?>
<!DOCTYPE svg PUBLIC "-//W3C//DTD SVG 1.1//EN" "http://www.w3.org/Graphics/SVG/1.1/DTD/svg11.dtd" >
<svg xmlns="http://www.w3.org/2000/svg" xmlns:xlink="http://www.w3.org/1999/xlink" version="1.1" viewBox="0 -205 1042 1024">
  <g transform="matrix(1 0 0 -1 0 819)">
   <path fill="currentColor"
d="M465 676q10 3 14 -10q91 -175 88 -259q-1 -35 -20 -51q-17 -18 -30 -22q-10 -4 -17 0q-5 4 -2 19q24 109 -40 310q-3 9 7 13zM915 689q5 3 21 -7q59 -40 59 -49q0 -5 -9 -8q-25 -10 -41 -67q-39 -119 -91 -225q-8 -16 -18 -12q-10 6 -3 22q64 177 76 328q2 15 6 18z
M903 132l36 41q7 7 14 0q26 -26 44 -48q11 -14 4 -24q-5 -6 -18 -7h-519q-42 -1 -73 -7q-8 -3 -11 6q-4 18 -19 30q-7 7 -4 11q4 3 11 -1q38 -8 84 -8h163v745h-63q-42 -1 -73 -7q-8 -3 -11 6q-4 18 -19 30q-7 7 -4 11q4 3 11 -1q38 -8 84 -8h331q6 0 12 7l36 41q7 7 14 0
q26 -26 44 -48q11 -14 4 -24q-5 -6 -18 -7h-158v-745h86q6 0 12 7zM663 125h94v745h-94v-745zM217 210q0 -50 3 -90q-1 -9 -46 -39q-14 -9 -13 12q7 133 7 224v212q-41 -80 -92 -164q-8 -12 -15 -6q-6 6 1 19q120 235 165 452h-64q-42 -1 -73 -7q-8 -3 -11 6q-4 18 -19 30
q-7 7 -4 11q4 3 11 -1q38 -8 84 -8h179q6 0 12 7l36 41q7 7 14 0q26 -26 44 -48q11 -14 4 -24q-5 -6 -18 -7h-143q-29 -115 -71 -217q-4 -4 -5 -8h110q12 0 19 7l25 26q5 7 14 1q31 -23 43 -42q17 -8 8 -9q-17 -3 -26 -12q-8 -9 -8 -19v-200q1 -68 8 -157q0 -13 -10 -19
q-45 -26 -49 -25q-4 2 -3 18q1 21 2 36h-119zM216 241h122q1 39 2 87v246h-124v-333z" />
  </g>

</svg>
