<?xml version="1.0" standalone="no"?>
<!DOCTYPE svg PUBLIC "-//W3C//DTD SVG 1.1//EN" "http://www.w3.org/Graphics/SVG/1.1/DTD/svg11.dtd" >
<svg xmlns="http://www.w3.org/2000/svg" xmlns:xlink="http://www.w3.org/1999/xlink" version="1.1" viewBox="0 -36 256 256">
  <g transform="matrix(1 0 0 -1 0 220)">
   <path fill="currentColor"
d="M115 176l-16 -7v12h-50v-7l-16 -8q2 18 2 39t-2 36l16 -8h48l8 10l16 -12l-7 -6q0 -37 1 -49zM49 188h50v38h-50v-38zM223 176l-16 -6v11h-51v-6l-16 -7q1 15 1 36t-1 36l16 -8h49l7 9l17 -11l-7 -6q0 -36 1 -48zM156 188h51v37h-51v-37zM120 76l-14 -7v6h-62v-33
q0 -12 12 -12h38q14 8 22.5 -1t-6.5 -11h-66q-17 2 -14 23v21q0 18 -1 27l16 -7h61v68h-49q-10 0 -19 -2l-10 9h76l8 9l14 -12l-7 -3q0 -52 1 -75zM76 135l9 7l14 -14h-28v-21h13l8 9l13 -16h-52q-10 0 -19 -2l-10 9h34v21h-1q-10 -1 -19 -3l-10 10h48zM151 95
q10 -21 23 -35q13 18 16 41l19 -11l-7 -4q-8 -21 -18 -35q24 -24 55 -28v-4q-13 -2 -18 -12q-26 13 -45 35q-26 -25 -65 -34l-1 5q37 14 57 38q-15 21 -20 43zM178 141q12 15 19 33l20 -17l-11 -2l-16 -19q19 -10 26 -17t4.5 -19t-11 0t-28.5 24q-24 -22 -51 -31l-2 6
q26 15 42 32q-16 12 -33 23l1 4q21 -8 40 -17z" />
  </g>

</svg>
