<?xml version="1.0" standalone="no"?>
<!DOCTYPE svg PUBLIC "-//W3C//DTD SVG 1.1//EN" "http://www.w3.org/Graphics/SVG/1.1/DTD/svg11.dtd" >
<svg xmlns="http://www.w3.org/2000/svg" xmlns:xlink="http://www.w3.org/1999/xlink" version="1.1" viewBox="0 -205 1024 1024">
  <g transform="matrix(1 0 0 -1 0 819)">
   <path fill="currentColor"
d="M438 894l8 10q65 -36 86 -60q18 -21 30 -42q10 -21 2 -42q-9 -21 -30 -20q-21 -1 -24 26q-4 24 -16 52q-10 24 -56 76v0v0zM616 814l22 -4q-84 -295 -90 -326q-4 -31 -4 -44t10 -62q10 -48 8 -66q-1 -18 -14 -30q-12 -9 -26 -6q-16 3 -22 22q-7 16 2 74q9 60 4 78
q-6 17 -24 22q-18 6 -66 12v20q56 -1 74 2q15 3 28 24q11 20 98 284v0v0zM788 902q15 -7 6 -14l-20 -12q-18 -15 -48 -116h132l28 38q69 -48 70 -56q0 -6 -14 -12q-24 -6 -38 -26q-16 -21 -58 -108l-18 6l38 132h-148q-51 -148 -104 -224l-18 6q41 87 70 198q29 110 50 218
l72 -30v0v0zM488 172q99 56 144 106q44 50 64 106q18 56 28 158v112l76 -28q9 -10 -2 -16l-24 -8q-1 -54 -14 -128q74 -58 112 -94q35 -36 50 -72q15 -33 6 -56q-7 -24 -26 -20q-18 2 -30 38q-9 33 -32 78q-24 42 -84 102q-24 -123 -90 -188q-65 -63 -172 -108l-6 18v0v0z
M64 762h162v196l78 -32q3 -3 4 -6q3 0 0 -6l-32 -16v-136h78l32 46l58 -52q2 -3 2 -8q1 -12 -10 -12h-160v-146h102l36 44l56 -52q3 -3 6 -8q1 -4 -6 -10h-178v-174h80l32 38l54 -52q7 -12 -6 -14h-160v-198q73 -38 200 -51q126 -12 276 -12q132 9 234 20l4 -16
q-63 -18 -72 -30q-9 -9 -18 -28q-324 -1 -498 30q-122 30 -172 73q-49 44 -94 124q-19 -94 -46 -153q-27 -60 -56 -102l-14 6q38 90 62 195q23 104 32 286l74 -24q6 -3 6 -8q3 -4 -6 -10l-24 -14q-6 -49 -20 -142q43 -72 86 -108v364h-124q-18 0 -66 -8l-18 34h188v146h-78
q-22 0 -70 -8l-14 34v0v0z" />
  </g>

</svg>
