<?xml version="1.0" standalone="no"?>
<!DOCTYPE svg PUBLIC "-//W3C//DTD SVG 1.1//EN" "http://www.w3.org/Graphics/SVG/1.1/DTD/svg11.dtd" >
<svg xmlns="http://www.w3.org/2000/svg" xmlns:xlink="http://www.w3.org/1999/xlink" version="1.1" viewBox="0 -205 1024 1024">
  <g transform="matrix(1 0 0 -1 0 819)">
   <path fill="currentColor"
d="M86 892h286l40 46l56 -50q3 -3 4 -8q0 -12 -12 -12h-290q-21 0 -68 -8l-16 32v0v0zM42 674h362l42 48l54 -54q3 -3 4 -8q0 -12 -12 -12h-114v-386l100 84l10 -12q-123 -130 -146 -188l-52 56q42 24 40 52v394h-106v-188q0 -145 -44 -242q-42 -96 -132 -163l-8 12
q78 84 108 177q30 94 28 224v180h-68q-18 0 -48 -8l-18 34v0v0zM478 912h398l44 52l62 -54q3 -4 4 -10q0 -12 -12 -12h-234l-56 -160h152l28 40l64 -36q9 -6 10 -8q-2 -10 -34 -34v-262l4 -90q0 -12 -20 -24q-18 -9 -36 -12l4 118v282h-274v-304l4 -88q-1 -15 -22 -30
q-18 -14 -36 -12l4 126v380l50 -46h76l24 160h-120q-21 0 -62 -8l-22 32v0v0zM686 636l80 -30q6 -3 4 -6q1 -3 -4 -8l-32 -20v-154q-4 -183 -118 -272q-114 -86 -224 -111l-4 12q138 63 222 147q81 85 76 290v152v0v0zM732 276q78 -30 148 -78q69 -45 78 -79q9 -33 -6 -46
q-13 -13 -26 -8q-13 4 -28 32q-12 28 -48 65q-36 36 -126 102l8 12v0v0z" />
  </g>

</svg>
