<?xml version="1.0" standalone="no"?>
<!DOCTYPE svg PUBLIC "-//W3C//DTD SVG 1.1//EN" "http://www.w3.org/Graphics/SVG/1.1/DTD/svg11.dtd" >
<svg xmlns="http://www.w3.org/2000/svg" xmlns:xlink="http://www.w3.org/1999/xlink" version="1.1" viewBox="0 -36 256 256">
  <g transform="matrix(1 0 0 -1 0 220)">
   <path fill="currentColor"
d="M21 203l-1 5q21 4 43 12.5t33 17.5l14 -19q-9 0 -33 -6v-48h14l11 12l16 -19h-41v-24q22 -8 27.5 -17t0 -18t-11.5 5.5t-16 24.5q0 -98 1 -115l-16 -8q1 42 1 119q-19 -40 -49 -70l-2 3q35 53 49 100h-18q-10 0 -19 -2l-9 9h48v45q-11 -2 -42 -7zM184 235l-8 -6
q27 -77 67 -95v-4q-13 1 -20 -11q-34 38 -50 102q-18 -71 -60 -109l-2 3q37 47 51 132zM187 121.5q12 -5.5 10 -21.5t-12.5 -1.5t-37.5 29.5l1 4q27 -5 39 -10.5zM198 44q13 -7 12 -23.5t-11 -5.5t-28 23t-43 24l1 4q56 -15 69 -22z" />
  </g>

</svg>
