<?xml version="1.0" standalone="no"?>
<!DOCTYPE svg PUBLIC "-//W3C//DTD SVG 1.1//EN" "http://www.w3.org/Graphics/SVG/1.1/DTD/svg11.dtd" >
<svg xmlns="http://www.w3.org/2000/svg" xmlns:xlink="http://www.w3.org/1999/xlink" version="1.1" viewBox="0 -52 256 256">
  <g transform="matrix(1 0 0 -1 0 204)">
   <path fill="currentColor"
d="M164 233l20 -9q3 -1 1 -3q-4 -2 -7 -5v-66h20l6 10l18 -12q2 -2 1 -2q0 -1 -3 -1h-42v-9q18 -15 24 -24q7 -10 10 -21q4 -9 1 -16q-1 -6 -6 -6q-4 1 -5 11q0 8 -7 24q-5 11 -17 26v-80l1 -13q0 -5 -3 -7q-2 -3 -8 -4q1 4 1 18q1 11 1 18v61q-20 -44 -52 -71l-2 2
q38 44 51 91h-23q-6 0 -10 -3l-8 8h44v69q0 3 -8 11zM222 250l21 -9q3 -1 1 -2q-4 -3 -7 -6v-194l1 -14q0 -6 -3 -8q-1 0 -2 -1l-8 -2q1 4 1 18q1 10 1 17v187q0 3 -7 11zM108 246l21 -6q4 -1 2 -3l-6 -3l-2 -2v-48q2 -76 -11 -117q-12 -39 -40 -58l-1 3q23 24 33 59
q11 38 9 105v57q-1 5 -7 10zM203 211l15 -10q4 -3 1 -4q-2 0 -6 -1q2 1 -2 -1q-12 -22 -25 -39l-3 1l8 16q14 27 12 30q0 3 -2 6zM134 207l2 2q9 -8 15 -17q4 -6 6 -15q2 -7 0 -12q-3 -4 -6 -3q-3 0 -4 8q0 7 -2 16q-2 6 -10 19q1 -1 -1 2zM45 252l20 -9q3 -1 1 -2
q-4 -2 -7 -5v-44h13l11 10l10 -12q2 -2 1 -2q0 -1 -3 -2l-4 -2v-41l1 -28q0 -4 -3 -6q-2 -2 -8 -2v9h-18v-49l20 7h2q-3 8 -11 15l2 3q12 -7 17 -15q6 -9 6 -16q0 -6 -5 -8q-5 0 -5 6q0 5 -2 9l-28 -10q-21 -8 -25 -10q-3 -2 -8 -8l-10 12l37 12v52h-20v-3q1 -5 -2 -8l-1 -1
q-4 -2 -8 -2q2 9 2 23v63q0 6 -4 10l3 2l7 -8h23v46q0 5 -6 11zM29 187v-66h20v66h-20zM77 187h-18v-66h18v66z" />
  </g>

</svg>
