<?xml version="1.0" standalone="no"?>
<!DOCTYPE svg PUBLIC "-//W3C//DTD SVG 1.1//EN" "http://www.w3.org/Graphics/SVG/1.1/DTD/svg11.dtd" >
<svg xmlns="http://www.w3.org/2000/svg" xmlns:xlink="http://www.w3.org/1999/xlink" version="1.1" viewBox="0 -205 1024 1024">
  <g transform="matrix(1 0 0 -1 0 819)">
   <path fill="currentColor"
d="M550 800l76 -24q19 -6 6 -18l-28 -12v-40h182l30 36l48 -40q8 -3 8 -14q0 -6 -24 -20v-86h54l36 46l60 -60q2 -4 2 -2q0 -10 -8 -10h-144v-72l4 -58q1 -15 -16 -30q-19 -13 -40 -14v40h-192v-74q0 -13 -18 -22q-18 -10 -36 -10v106h-196q-23 1 -52 -4l-18 30h266v108
h-240q-21 0 -42 -6l-24 32h306v96h-172q-21 -1 -50 -10l-28 38h250v94v0v0zM604 556v-108h192v108h-192v0v0zM604 680v-98h192v98h-192v0v0zM332 346l56 -42h388l32 36l54 -44q6 -4 6 -8q0 -7 -24 -22v-116l4 -81q0 -11 -18 -22q-19 -12 -40 -12v52h-404v-22q1 -12 -16 -24
q-18 -15 -42 -16l4 121v200v0v0zM386 115h404v163h-404v-163v0v0zM176 888l58 -46h626l34 50l62 -60q6 -18 -8 -18h-722v-230q0 -118 -8 -220t-52 -186q-43 -84 -118 -149l-10 12q60 77 90 151q30 72 40 168q10 94 8 230v298v0v0zM478 990q75 -31 100 -52q25 -19 24 -44
q0 -23 -12 -34q-13 -9 -28 -6t-18 24t-18 42q-12 23 -56 58l8 12v0v0z" />
  </g>

</svg>
