<?xml version="1.0" standalone="no"?>
<!DOCTYPE svg PUBLIC "-//W3C//DTD SVG 1.1//EN" "http://www.w3.org/Graphics/SVG/1.1/DTD/svg11.dtd" >
<svg xmlns="http://www.w3.org/2000/svg" xmlns:xlink="http://www.w3.org/1999/xlink" version="1.1" viewBox="0 -205 1024 1024">
  <g transform="matrix(1 0 0 -1 0 819)">
   <path fill="currentColor"
d="M374 658h232v100l80 -30q8 -3 8 -8q0 -3 -6 -8l-30 -14v-40h148l38 44l58 -52q3 -3 4 -6q3 -12 -8 -12h-240v-106h228l34 44l60 -50q6 -3 6 -8q0 -12 -12 -12h-590q-21 0 -68 -8l-16 34h306v106h-148q-21 0 -68 -8l-16 34v0v0zM614 382l2 -8q-1 -3 -10 -8q-31 -4 -50 -26
h206l24 30l52 -40q9 -6 10 -14q-3 -6 -18 -14q-15 -7 -30 -26q-13 -18 -50 -60q-36 -41 -66 -64q17 -14 74 -35q54 -18 108 -30q53 -11 110 -8v-20q-21 0 -42 -12q-22 -9 -40 -34q-61 22 -94 34q-30 9 -66 30q-34 18 -82 50q-89 -49 -178 -74q-87 -23 -198 -44l-4 16
q117 32 204 64q86 31 140 65q-79 83 -100 146q-96 -93 -176 -144l-10 14q48 42 112 112q62 69 110 138l62 -38v0v0zM536 316q44 -84 112 -138q50 33 112 138h-224v0v0zM434 384q-51 -33 -114 -66l-8 14q51 40 94 74q39 32 88 82q60 -33 60 -36q-1 -3 -2 -8q0 -3 -18 -6
q-15 -3 -30 -12q-16 -6 -70 -42v0v0zM708 486q81 -13 138 -32q56 -18 80 -38q25 -18 20 -42q-3 -21 -24 -24q-19 -4 -38 22q-18 26 -56 46q-37 21 -124 54l4 14v0v0zM294 628l20 -6q-131 -349 -136 -374q-7 -25 -4 -64t6 -65l4 -50q1 -24 -16 -34q-15 -9 -30 -4
q-15 6 -20 20q-3 15 6 54q9 38 12 71q2 30 -4 42q-5 9 -28 16q-23 6 -70 12l2 16q62 -4 80 4q15 8 30 28q12 20 148 334v0v0zM140 754l8 12q47 -13 80 -32q33 -18 42 -36q8 -19 -4 -38q-13 -19 -32 -16q-17 0 -22 24q-5 23 -22 44q-18 21 -50 42v0v0zM52 558l8 12
q53 -18 80 -36q26 -16 34 -34q7 -19 -4 -34q-10 -16 -28 -16q-17 0 -22 22t-22 44q-17 21 -46 42v0v0zM354 984l84 -28q6 -3 6 -8q-1 -3 -40 -26v-48h216v108l82 -34q3 -5 4 -10q1 -2 -34 -22v-42h198l40 48l60 -62q3 -1 4 -8q-1 -6 -16 -6h-286v-46q0 -12 -12 -20
q-9 -6 -18 -8q-10 -3 -22 -2v76h-216v-54q0 -12 -8 -18l-18 -10q-9 -3 -24 -2v84h-226q-22 -1 -70 -10l-18 38h314v110v0v0z" />
  </g>

</svg>
