<?xml version="1.0" standalone="no"?>
<!DOCTYPE svg PUBLIC "-//W3C//DTD SVG 1.1//EN" "http://www.w3.org/Graphics/SVG/1.1/DTD/svg11.dtd" >
<svg xmlns="http://www.w3.org/2000/svg" xmlns:xlink="http://www.w3.org/1999/xlink" version="1.1" viewBox="0 -36 256 256">
  <g transform="matrix(1 0 0 -1 0 220)">
   <path fill="currentColor"
d="M183.5 139q-5.5 4 -19.5 7v5q27 -5 31.5 -5t10 7t8.5 58h-36q-3 -20 -13.5 -37.5t-25 -28t-24.5 -15.5l-2 3q12 8 23 20.5t18 27.5t10 30h-7q-11 0 -20 -2l-10 10h38l1 27l21 -6l-7 -6l-1 -15h34l7 9l16 -10l-8 -8q-3 -58 -12.5 -68.5t-22.5 -13.5q-4 7 -9.5 11zM39 238
l17 -8h44l6 9l17 -10l-8 -7v-66l22 4v-4q-35 -9 -63.5 -15t-43.5 -12l-10 15q13 1 20 2v66q0 11 -1 26zM54 203h47v20h-47v-20zM54 178h47v18h-47v-18zM54 148l47 7v16h-47v-23zM83 68v-32q0 -20 -20 -27q-3 13 -28 17v4q19 -1 26.5 -0.5t7.5 12.5v22q-42 -14 -48 -19
l-11 16q13 2 59 12v22h-21q-11 0 -20 -2l-10 9h51v11q0 9 -1 23l22 -8l-7 -6v-20h11l10 10l18 -17h-39v-19l33 7l1 -5zM238 68l4 -2q-3 -10 -4 -24.5t1 -33.5q-19 6 -32.5 25t-11.5 66l-27 -1q-4 -21 -9 -30q14 -9 20 -15.5t2.5 -17t-10.5 0.5t-16 21q-23 -33 -55 -48l-2 3
q27 18 46 52q-11 8 -21 14l2 4q12 -4 22 -9q5 13 7 24l-17 -1l-6 -3l-9 9l33 1q2 21 2 34l23 -7l-9 -7q-1 -10 -2 -19l26 1l6 8l14 -9l-7 -8q-1 -23 2.5 -38.5t15.5 -24.5z" />
  </g>

</svg>
