<?xml version="1.0" standalone="no"?>
<!DOCTYPE svg PUBLIC "-//W3C//DTD SVG 1.1//EN" "http://www.w3.org/Graphics/SVG/1.1/DTD/svg11.dtd" >
<svg xmlns="http://www.w3.org/2000/svg" xmlns:xlink="http://www.w3.org/1999/xlink" version="1.1" viewBox="0 -36 256 256">
  <g transform="matrix(1 0 0 -1 0 220)">
   <path fill="currentColor"
d="M30 140h44v64h-44v-64zM30 66h44v67h-44v-67zM16 126q0 59 -1 93l16 -8h42l7 10l16 -14l-8 -7v-149l-14 -9v17h-44v-15l-15 -8q1 31 1 90zM117 177l9 -6h44l14 34h-45q-10 -13 -22 -28zM122 129h41v35h-41v-35zM177 129h39v35h-39v-35zM122 86h41v36h-41v-36zM177 86h39
v36h-39v-36zM200 201.5q-6 -3.5 -24 -30.5h39l7 10l15 -13l-8 -7q0 -69 1 -84l-14 -8v10h-94v-7l-14 -7q1 24 1 49v53q-3 -4 -18 -15l-2 4q14 13 31.5 42.5t21.5 47.5l18 -12q-5 -2 -18 -22h43l5 10l20 -15q-4 -2 -10 -5.5zM241.5 39q6.5 -9 3.5 -16t-6 -9t-10 13.5
t-24 33.5l3 3q27 -16 33.5 -25zM109 60q-1 -31 -4 -39t-10.5 -10t-12 0t5.5 13t17 36h4zM157.5 33.5q2.5 -8.5 -0.5 -14t-8 -8t-5.5 11.5t-10.5 39l4 1q18 -21 20.5 -29.5zM197 38q6 -9 3 -15.5t-7 -9t-7.5 12t-17.5 35.5l2 3q21 -17 27 -26z" />
  </g>

</svg>
