<?xml version="1.0" standalone="no"?>
<!DOCTYPE svg PUBLIC "-//W3C//DTD SVG 1.1//EN" "http://www.w3.org/Graphics/SVG/1.1/DTD/svg11.dtd" >
<svg xmlns="http://www.w3.org/2000/svg" xmlns:xlink="http://www.w3.org/1999/xlink" version="1.1" viewBox="0 -205 1024 1024">
  <g transform="matrix(1 0 0 -1 0 819)">
   <path fill="currentColor"
d="M498 686q45 96 108 292l78 -38q6 -4 6 -10q0 -4 -12 -8q-27 -9 -38 -32q-30 -69 -56 -114h302l32 36l52 -46q18 -15 18 -26q-3 -6 -18 -8q-32 -12 -64 -42q-30 -31 -86 -94l-12 8l84 144h-318q-71 -138 -136 -206l-12 12q24 36 72 132v0v0zM662 684l86 -28q9 -3 6 -12
q0 -4 -38 -22v-515q3 -30 -18 -52q-21 -21 -62 -34q-7 30 -34 44q-27 15 -98 38l6 20q125 -30 140 -22q13 10 12 26v557v0v0zM542 524l76 -40q7 -3 6 -12q-1 -6 -22 -12q-22 -1 -82 -106q-58 -105 -146 -212l-12 10q61 102 110 204q48 99 70 168v0v0v0zM772 504
q102 -85 150 -154q49 -69 56 -104q7 -33 -4 -50q-12 -18 -32 -14q-20 2 -28 34q-6 33 -20 66q-13 32 -34 76q-22 41 -98 134l10 12v0v0zM294 854v-190h60l32 48l62 -56q2 -3 2 -8q1 -12 -10 -12h-146v-88q45 -19 82 -38q36 -18 48 -36t12 -38q0 -19 -12 -28q-9 -9 -24 -6
q-14 3 -22 28q-7 21 -28 48q-22 23 -56 44v-356l4 -101q0 -14 -24 -26t-38 -12l6 139v364q-30 -69 -66 -138q-35 -69 -124 -174l-14 8q80 128 116 212q37 81 74 198h-94q-22 0 -70 -8l-14 36h192v180q-79 -18 -184 -26l-2 16q226 51 350 114q63 -54 66 -60q3 -7 -2 -10
q-5 -4 -28 2q-23 3 -148 -26v0v0z" />
  </g>

</svg>
