<?xml version="1.0" standalone="no"?>
<!DOCTYPE svg PUBLIC "-//W3C//DTD SVG 1.1//EN" "http://www.w3.org/Graphics/SVG/1.1/DTD/svg11.dtd" >
<svg xmlns="http://www.w3.org/2000/svg" xmlns:xlink="http://www.w3.org/1999/xlink" version="1.1" viewBox="0 -205 1024 1024">
  <g transform="matrix(1 0 0 -1 0 819)">
   <path fill="currentColor"
d="M66 793q8 7 18 -6q51 -55 73 -100q17 -31 13 -46q-7 -23 -25 -32t-24 -8q-6 2 -7 24q-5 43 -15 79q-13 43 -34 73q-6 9 1 16zM252 570q0 -159 -36 -283q-33 -118 -142 -238q-12 -14 -22 -4q-9 7 3 22q78 89 109 189q30 103 37 233q-45 -29 -70 -51q-33 -28 -42 -41
q-8 -11 -15 2q-15 26 -30 41q-14 13 4 14q18 2 55 15q47 16 99 41q2 30 2 60v201q0 48 -6 124q-2 10 2 13q5 2 12 -5q17 -18 45 -34h324q-2 5 -3 11q-8 35 -21 60q-14 22 -38 49q-5 7 -1 13t16 -1q46 -20 71 -41q15 -13 18 -26q3 -19 -10 -49q-6 -10 -10 -16h241l14 2l12 12
l30 42q7 9 16 0q33 -28 61 -59q10 -10 9 -19q-2 -8 -15 -9h-719v-268zM374 765q4 4 16 -2q108 -45 115 -81q3 -16 -12 -40q-11 -19 -23 -18q-10 0 -13 15q-16 60 -82 115q-5 6 -1 11zM674 432q6 4 16 -3q113 -70 113 -110q0 -16 -18 -38q-14 -17 -26 -16q-10 2 -10 17
q-9 69 -76 140q-5 5 1 10zM588 561q4 59 4 120q-1 36 -8 90q-2 13 2 16q3 3 12 -1q43 -18 74 -34q7 -5 7 -9q0 -7 -6 -8q-15 -5 -22 -18q-8 -15 -11 -36q0 -62 -4 -120h220q11 1 15 5l23 32q6 10 15 0q37 -30 59 -52q5 -7 -2 -11q-20 -9 -29 -16q-3 -6 -4 -19
q-8 -194 -20 -296q-15 -101 -108 -140q-8 -4 -9 2q-5 24 -18 34q-17 13 -78 23q-15 2 -14 12q2 10 14 7q121 -10 136 6q17 18 26 49q13 54 16 121q4 75 8 212h-252q-15 -124 -63 -219q-69 -138 -264 -242q-15 -9 -19 -2q-5 10 4 16q76 48 130 101q154 155 163 346h-174
q-42 -1 -73 -7q-9 -3 -10 6q-5 18 -20 31q-8 7 -4 11q4 3 11 -1q38 -9 84 -9h189z" />
  </g>

</svg>
