<?xml version="1.0" standalone="no"?>
<!DOCTYPE svg PUBLIC "-//W3C//DTD SVG 1.1//EN" "http://www.w3.org/Graphics/SVG/1.1/DTD/svg11.dtd" >
<svg xmlns="http://www.w3.org/2000/svg" xmlns:xlink="http://www.w3.org/1999/xlink" version="1.1" viewBox="0 -205 1024 1024">
  <g transform="matrix(1 0 0 -1 0 819)">
   <path fill="currentColor"
d="M348 850h274v128l80 -28q8 -3 8 -8v-8l-38 -14v-70h178l36 40l60 -48q3 -4 4 -10q1 -7 -16 -8h-262v-92h134l32 38l58 -44q3 -4 4 -10q1 -7 -16 -8h-398q-22 1 -70 -10l-18 34h224v92h-186q-21 0 -68 -8l-20 34v0v0zM410 668h20v-40h464l26 34q59 -48 62 -54t-2 -8
q-4 -3 -22 -8q-18 -3 -36 -18t-54 -54l-16 10q21 32 42 74h-464q0 -43 -12 -68q-12 -24 -30 -36q-17 -10 -34 -4q-16 3 -16 22q0 16 24 32q21 15 34 48q10 32 14 70v0v0zM440 512h328l30 40l54 -48q3 -4 4 -10q1 -7 -16 -8h-312q-21 0 -68 -8l-20 34v0v0zM442 436l54 -38
h300l24 34l52 -34q9 -6 10 -14q0 -6 -30 -24v-64l4 -62q1 -10 -16 -20q-18 -10 -36 -10v34h-314v-8q0 -12 -20 -24q-19 -9 -32 -8l4 92v146v0v0zM490 262h314v112h-314v-112v0v0zM760 141q-15 -18 -54 -76h186l38 46l58 -52q3 -6 6 -6q0 -12 -12 -12h-586q-33 1 -68 -10
l-16 34h366q29 54 58 141q62 -24 68 -30q4 -5 2 -10q-4 -3 -16 -6q-12 -2 -30 -19v0v0zM496 198l8 12q44 -23 70 -46q23 -21 26 -39t-6 -30q-10 -13 -28 -12q-18 3 -20 24q-3 22 -14 45q-12 21 -36 46v0v0zM36 672h144v302l78 -34q8 -4 8 -8q3 -1 -2 -10l-32 -16v-234h78
l30 40l48 -48q12 -15 -6 -20h-150v-318l134 60l10 -16q-159 -90 -216 -126q-55 -35 -82 -70l-54 58l156 72v340h-62q-21 0 -66 -8l-16 36v0v0z" />
  </g>

</svg>
