<?xml version="1.0" standalone="no"?>
<!DOCTYPE svg PUBLIC "-//W3C//DTD SVG 1.1//EN" "http://www.w3.org/Graphics/SVG/1.1/DTD/svg11.dtd" >
<svg xmlns="http://www.w3.org/2000/svg" xmlns:xlink="http://www.w3.org/1999/xlink" version="1.1" viewBox="0 -36 256 256">
  <g transform="matrix(1 0 0 -1 0 220)">
   <path fill="currentColor"
d="M159 216q-23 -47 -51 -64l-2 2q19 22 27.5 40.5t14.5 39.5l19 -13zM196 155l14 10l16 -17h-72q-10 0 -19 -2l-9 9h70zM153 83h59l10 11l13 -14l-7 -5q-7 -29 -12 -40.5t-12.5 -18t-22.5 -8.5q0 14 -29 23v4q28 -6 39.5 -5.5t21.5 46.5h-63l-8 -7l-11 15l9 5q3 10 6 21
h-13q-10 0 -19 -2l-9 9h111l14 11l16 -18h-86q-4 -16 -7 -27zM41 177h46v30h-46v-30zM41 143h46v27h-46v-27zM87 117v19h-46v-28l41 3zM49 214h37l8 10l13 -13l-7 -7v-70q8 12 9 18l14 -13l-6 -4q-8 -10 -17 -22v-83q0 -18 -16 -22q-2 13 -26 19v5q18 -2 24 -2t5 10v56
q-33 -45 -78 -70l-1 4q34 26 71 75q-53 -12 -61 -16l-9 16l19 2v81t-1 33l13 -7h4q8 22 10 33l15 -10q-10 -8 -20 -23zM184 242l16 -6l-5 -6q2 -15 18.5 -36t33.5 -23v-5q-8 1 -17 -10q-21 13 -33.5 42.5t-12.5 43.5z" />
  </g>

</svg>
