<?xml version="1.0" standalone="no"?>
<!DOCTYPE svg PUBLIC "-//W3C//DTD SVG 1.1//EN" "http://www.w3.org/Graphics/SVG/1.1/DTD/svg11.dtd" >
<svg xmlns="http://www.w3.org/2000/svg" xmlns:xlink="http://www.w3.org/1999/xlink" version="1.1" viewBox="0 -36 256 256">
  <g transform="matrix(1 0 0 -1 0 220)">
   <path fill="currentColor"
d="M32 236q22 -10 26.5 -17.5t0.5 -16t-9 3.5t-19 27zM15 180q27 -12 29 -21.5t-3 -15t-9.5 6t-17.5 27.5zM38.5 84q5.5 4 27.5 109l5 -1q-16 -89 -19 -101.5t-3.5 -23.5t0 -35t-9.5 -18.5t-6.5 22t3.5 27t-20 15.5v4q17 -2 22.5 2zM101 223l-7 -7q-2 -10 -5 -24h18
q0 37 -1 54l19 -11l-6 -6v-37h6l10 11l18 -18h-34v-51h8l10 11l18 -18h-27v-86q0 -15 7 -15h6q4 0 5.5 9.5t2.5 34.5h5q0 -27 1.5 -33t7.5 -10q-5 -11 -13 -12h-20q-15 0 -14 23v89h-11q-1 -50 -13.5 -76.5t-38.5 -44.5l-2 3q26 27 33.5 53.5t7.5 64.5h-3l-11 -3l-10 10h39
v51h-20q-7 -21 -17 -40l-3 1q8 26 11 45t5 41zM166 126l10 -4q14 15 21 27h-15q-13 0 -22 -3l-10 10h35v37h-8l-11 -3l-10 10h29q0 29 -1 46l20 -11l-7 -7v-28h5l7 10l12 -14q6 11 9 23l15 -11q-4 -2 -11 -16.5t-21 -35.5h6l10 11l18 -18h-37q-11 -17 -25 -32h29l7 10
l14 -14l-7 -6q0 -67 1 -88l-14 -8v18h-36v-17l-13 -6q1 13 1 92q-12 -10 -28 -19l-1 4q19 16 29 28q0 4 -1 15zM220 193h-23v-37h4q8 12 19 37zM179 76h36v34h-34l-2 -1v-33zM179 36h36v33h-36v-33z" />
  </g>

</svg>
