<?xml version="1.0" standalone="no"?>
<!DOCTYPE svg PUBLIC "-//W3C//DTD SVG 1.1//EN" "http://www.w3.org/Graphics/SVG/1.1/DTD/svg11.dtd" >
<svg xmlns="http://www.w3.org/2000/svg" xmlns:xlink="http://www.w3.org/1999/xlink" version="1.1" viewBox="0 -143 1024 1024">
  <g transform="matrix(1 0 0 -1 0 881)">
   <path fill="currentColor"
d="M124 635h188l27 36l65 -45q12 -14 -6 -19h-142v-168h67l28 36l60 -42q9 -11 -5 -20h-150v-252l137 97l12 -17q-91 -77 -129.5 -114t-53.5 -68l-57 56q20 12 42 34v264h-71q-32 2 -59 -8l-17 34h147v168h-42l-24 -6zM269 948q8 -4 8 -7q4 -8 -8 -14q-29 -6 -37 -27
q-25 -53 -40 -91h122l31 40l63 -50q6 -12 -5 -16h-222q-32 -67 -66.5 -132t-79.5 -126l-12 8q50 104 92 210t84 234zM732 943q4 -5 4 -7q0 -6 -24 -12q24 -48 65 -109t100 -114t124 -61v-18q-31 0 -50 -4t-41 -28q-48 44 -88 94t-73 108t-57 124q-56 -112 -134 -216
t-148 -154l-10 10q58 62 128 168t134 258zM480 308q4 -128 -11 -164t-35 -49t-36 -8t-20 21t16 32t36.5 42t29.5 126h20zM843 316q65 -38 97 -68t40 -52t5 -37t-12 -24t-24 -6t-21 32t-24 60t-70 83zM607 420q85 -50 109 -82t20 -55t-14 -32t-27 -6t-19 32t-18 56t-59 77z
M584 274v-147q0 -27 8.5 -34t38.5 -7h107q30 4 39 12t13.5 23t7 40.5t4.5 81.5h19l7 -78q1 -40 33 -56q-10 -29 -30.5 -45.5t-52.5 -21.5h-178q-26 -1 -45.5 15t-19.5 63v208l75 -26q4 -8 3 -11t-5 -5zM809 567l51 -43q4 -5 4 -12q-3 -5 -10 -8l-23 -12l-38 -120
q-3 -10 -18 -14q-19 -6 -36 -4l46 154h-258q-26 -2 -42 -10l-29 36h327zM622 722l8 10q66 -40 86 -67t18 -48t-13 -30t-26 -5t-17 24t-9 43t-47 73z" />
  </g>

</svg>
