<?xml version="1.0" standalone="no"?>
<!DOCTYPE svg PUBLIC "-//W3C//DTD SVG 1.1//EN" "http://www.w3.org/Graphics/SVG/1.1/DTD/svg11.dtd" >
<svg xmlns="http://www.w3.org/2000/svg" xmlns:xlink="http://www.w3.org/1999/xlink" version="1.1" viewBox="0 -144 1024 1024">
  <g transform="matrix(1 0 0 -1 0 880)">
   <path fill="currentColor"
d="M843 109l5 2l3 1l2 1h1l1 1l1 2v3l1 5l1 7h64l-1 -14l-2 -13l-4 -13l-7 -13l-9 -10l-10 -9l-13 -7l-13 -4l-13 -3h-14v32l-86 16v16h93zM392 708l64 -32h402l32 27l59 -48l-27 -22v-502h-64v185h-168v-200l-65 -32v232h-169v-238l-64 -33v663zM37 893l65 -33h151l32 27
l59 -48l-27 -22v-642l-64 -32v64h-151v-64l-65 -32v782zM253 427h-151v-198h151v198zM625 487h-169v-150h169v150zM858 487h-168v-150h168v150zM253 633h-151v-184h151v184zM625 655h-169v-146h169v146zM858 655h-168v-146h168v146zM253 839h-151v-184h151v184zM807 920l5 7
l2 -1l25 21l59 -49l-27 -16l-22 -9l-22 -22l-36 -29l-67 -49l-41 -25l17 -24l3 -24l-14 -20l-25 -3l-19 15l-9 18l-20 34l-23 32l-12 15l-44 44l-17 14l5 8l41 -16l20 -10l19 -12l18 -13l17 -14l16 -15l16 -17l2 -2l70 77l31 36l13 16l7 11h-393v22h405z" />
  </g>

</svg>
