<?xml version="1.0" standalone="no"?>
<!DOCTYPE svg PUBLIC "-//W3C//DTD SVG 1.1//EN" "http://www.w3.org/Graphics/SVG/1.1/DTD/svg11.dtd" >
<svg xmlns="http://www.w3.org/2000/svg" xmlns:xlink="http://www.w3.org/1999/xlink" version="1.1" viewBox="0 -205 1024 1024">
  <g transform="matrix(1 0 0 -1 0 819)">
   <path fill="currentColor"
d="M804 966l48 -34q9 -7 10 -10q-1 -3 -28 -24v-64q0 -30 18 -30h52q21 -1 30 8q6 9 10 6q3 -1 12 -10l16 -18q8 -7 8 -10t-12 -8q-10 -6 -34 -8h-94q-30 0 -42 12q-10 18 -8 48v88h-152v-44q-7 -57 -40 -92q-33 -33 -90 -62l-10 12q39 30 66 70q28 39 26 84v92l52 -36h136
l26 30v0v0zM478 474q63 21 106 40q42 15 106 52q-61 48 -98 120h-10l-30 -4l-20 30h272l24 32q60 -43 60 -50q-1 -6 -8 -8q-5 0 -16 -6q-11 -5 -34 -34q-20 -28 -76 -82q46 -25 80 -34q33 -6 60 -12q24 -3 94 -6v-18q-40 -3 -56 -12q-16 -10 -28 -34q-31 12 -70 28
q-36 16 -114 62q-70 -30 -118 -48t-120 -32l-4 16v0v0zM616 688q45 -64 102 -100q39 35 84 100h-186v0v0zM56 890h220v102l72 -26q6 -3 6 -8q0 -3 -6 -8l-24 -12v-48h108l28 38l46 -44q3 -1 6 -8q0 -10 -12 -10h-176v-82h68l30 30q46 -35 50 -40q4 -13 -12 -14h-274
q-22 0 -58 -6l-16 30h164v82h-142q-37 0 -62 -8l-16 32v0v0zM438 688l34 22l44 -40q9 -9 10 -18q0 -3 -14 -6q-27 -4 -50 -28q-24 -23 -44 -46l-14 10l46 82h-324q0 -50 -12 -76q-12 -27 -38 -36q-24 -9 -36 6q-10 13 -2 26q6 12 22 24q12 11 28 38q12 26 18 74h18l4 -32
h310v0v0zM364 520l34 40l48 -46q3 -3 4 -8q0 -12 -12 -12h-226q-18 -1 -66 -10l-18 36h236v0v0zM254 360h230v86l80 -30q3 -3 4 -6q0 -3 -6 -6l-28 -14v-30h228l24 36l62 -44q6 -4 6 -8q0 -3 -32 -24v-62l4 -60q0 -13 -14 -22q-13 -7 -38 -10v36h-240v-109l242 2
q-58 34 -118 63l8 16q89 -30 136 -47q48 -17 72 -34q23 -17 28 -38q3 -21 -8 -30q-12 -10 -26 -8q-12 1 -30 22q-15 21 -42 36q-603 -29 -632 -38q-28 -7 -58 -20l-30 66l408 8v111h-232v-28q0 -10 -18 -20q-18 -9 -36 -8l4 92v160l52 -38v0v0zM252 228h232v106h-232v-106v0
v0zM534 334v-106h240v106h-240v0v0z" />
  </g>

</svg>
