<?xml version="1.0" standalone="no"?>
<!DOCTYPE svg PUBLIC "-//W3C//DTD SVG 1.1//EN" "http://www.w3.org/Graphics/SVG/1.1/DTD/svg11.dtd" >
<svg xmlns="http://www.w3.org/2000/svg" xmlns:xlink="http://www.w3.org/1999/xlink" version="1.1" viewBox="0 -205 1024 1024">
  <g transform="matrix(1 0 0 -1 0 819)">
   <path fill="currentColor"
d="M458 814q-40 57 -94 150l98 -8q8 -6 2 -12t-20 -18q39 -60 72 -104l344 28l28 52q69 -51 72 -56q3 -3 0 -8q0 -6 -18 -8l-402 -34q44 -33 88 -60q44 -24 106 -42q59 -16 110 -22q48 -6 66 -2q16 3 20 36q3 30 12 90h20v-96q-1 -22 8 -34q6 -12 18 -24q10 -12 2 -18
q-9 -5 -30 -10q-21 -3 -92 6q-69 9 -146 30q-76 20 -136 58t-108 82l-368 -30q-25 -5 -46 -16l-28 38l422 32v0v0zM596 964l6 16q75 -12 108 -24t42 -32q8 -19 2 -34q-6 -13 -24 -14q-18 -2 -26 12q-7 11 -28 32q-19 20 -80 44v0v0zM218 638l60 -44h478l20 22l72 -32
q6 -6 6 -8q0 -7 -32 -26v-266l4 -58q0 -14 -20 -28q-21 -12 -38 -12v32h-496v-20q0 -7 -20 -14q-18 -9 -38 -8l4 98v364v0v0zM272 246h496v90h-496v-90v0v0zM272 364h496v84h-496v-84v0v0zM272 476h496v90h-496v-90v0v0zM48 35q176 61 326 165l54 -42q9 -7 -2 -16
q-42 -2 -54 -7q-12 -6 -78 -36q-67 -30 -238 -82l-8 18v0v0zM590 174l6 16q135 -38 210 -61q74 -25 94 -50q18 -25 12 -44q-7 -17 -26 -20q-18 -1 -36 22q-18 22 -74 52q-57 29 -186 85v0v0z" />
  </g>

</svg>
