<?xml version="1.0" standalone="no"?>
<!DOCTYPE svg PUBLIC "-//W3C//DTD SVG 1.1//EN" "http://www.w3.org/Graphics/SVG/1.1/DTD/svg11.dtd" >
<svg xmlns="http://www.w3.org/2000/svg" xmlns:xlink="http://www.w3.org/1999/xlink" version="1.1" viewBox="0 -36 256 256">
  <g transform="matrix(1 0 0 -1 0 220)">
   <path fill="currentColor"
d="M125 209h-38q0 -3 1 -17l-17 -7q1 13 1 24h-28q-10 0 -19 -2l-10 9h57q0 23 -1 31l23 -9l-7 -6v-16h11l11 10zM159 210q-10 0 -19 -2l-9 9h33q0 17 -1 30l23 -10l-8 -5v-15h32l13 11l17 -18h-62v-13l-14 -4v17h-5zM82 118h74v29h-74v-29zM67 182l14 -7q25 3 51.5 8
t46.5 13l14 -15l-13 -1q-64 -10 -98 -11v-15h106l13 10l14 -17h-45v-29h36l15 11l15 -18h-191q-10 0 -19 -2l-10 9h52q0 49 -1 64zM104 113q-31 -33 -96 -46v4q56 20 77 42h19zM152 113l11 1l1 -5q33 -24 84 -24v-5q-16 -1 -21 -13q-45 11 -75 46zM50 66q58 18 87 42l15 -15
h-9q-53 -26 -92 -31zM39 40q76 17 119 47l12 -16h-8q-54 -27 -122 -35zM30 12q96 14 150 51l15 -18l-12 -2q-65 -27 -153 -35v4z" />
  </g>

</svg>
