<?xml version="1.0" standalone="no"?>
<!DOCTYPE svg PUBLIC "-//W3C//DTD SVG 1.1//EN" "http://www.w3.org/Graphics/SVG/1.1/DTD/svg11.dtd" >
<svg xmlns="http://www.w3.org/2000/svg" xmlns:xlink="http://www.w3.org/1999/xlink" version="1.1" viewBox="0 -154 1024 1024">
  <g transform="matrix(1 0 0 -1 0 870)">
   <path fill="currentColor"
d="M210 400l40 -30h468l32 35l48 -41q18 -12 0 -19l-20 -13v-187q2 -62 -11 -89t-69 -39q-2 33 -34 44q-31 10 -90 25l2 16q110 -23 134 -21t24 50v51h-475v-39l4 -85q-1 -39 -55 -46q5 39 7 138v198q-4 28 -20 41zM389 605l35 -30h151q3 18 5 43v18h-209q-23 0 -38 -10
l-29 26h276v51h-169q-24 0 -40 -10l-28 26h237v51h-137q-22 0 -40 -11l-28 25h205v55h-171q-22 0 -39 -11l-28 27h238v55h-131q-15 0 -32 -11l-31 25h194v33q1 13 -26 36l9 10l78 -28q11 -5 6 -9q-19 -7 -27 -17v-25h158l32 30l43 -38q11 -7 -3 -10l-18 -6v-45h22l28 37
l44 -35q18 -17 -9 -18h-85v-19l4 -38q0 -15 -13 -20q-12 -6 -31 -6v14h-172v-51h158l31 36l59 -40q18 -14 -10 -12h-238v-51h211l30 34l58 -38q19 -14 -9 -12h-290v-15q4 -28 -12 -36q-11 -6 -29 -10h176l37 37l42 -45q14 -8 -6 -13l-14 -9v-42q4 -45 -40 -41v26h-342v-10
q-2 -10 -43 -13q3 17 3 68v23q-3 22 -17 38zM259 284h475v70h-475v-70zM734 268h-475v-70h475v70zM858 441l39 45l72 -49q19 -14 -14 -12h-832q-26 1 -44 -10l-34 26h193v117q5 13 -17 37l6 11l75 -28q12 -6 6 -10q-24 -9 -28 -19v-108h578zM432 504h342v55h-342v-55z
M352 922l11 -10l-163 -219q-10 -23 0 -82q11 -59 -22 -61q-32 -2 -20 64q12 67 -4 76q-14 10 -77 14v15q55 -4 77 -2q22 1 56 42zM792 910h-172v-55h172v55zM620 839v-55h172v55h-172zM72 892l6 8q102 -30 116 -73q15 -43 -14 -49q-16 -3 -21 18t-23 47q-20 26 -64 49z
M152 985l6 9q102 -31 116 -74q15 -43 -14 -49q-16 -2 -21 19q-5 20 -23 47q-20 26 -64 48z" />
  </g>

</svg>
