<?xml version="1.0" standalone="no"?>
<!DOCTYPE svg PUBLIC "-//W3C//DTD SVG 1.1//EN" "http://www.w3.org/Graphics/SVG/1.1/DTD/svg11.dtd" >
<svg xmlns="http://www.w3.org/2000/svg" xmlns:xlink="http://www.w3.org/1999/xlink" version="1.1" viewBox="0 -200 999 1000">
  <g transform="matrix(1 0 0 -1 0 800)">
   <path fill="currentColor"
d="M533 729l56 -33l-18 -55l1 -442q-12 -9 -19.5 -16t-26.5 -10v111l-86 -58l-29 41l115 37v192h-45l-44 -13l-18 36h107v210h-66l-45 -12l-18 35h244v134l65 -34l-16 -59v-41h150l42 45l61 -68h-253v-695q-9 -11 -23.5 -20.5t-25.5 -14.5v730h-108zM906 371
q0 -47 5.5 -70.5t12.5 -35t12.5 -16.5t5.5 -14q0 -12 -19.5 -17.5t-42.5 -9.5h-82q-25 0 -34.5 15t-13.5 42v461l61 -36l-15 -56v-325q0 -19 5 -34t24 -17l46 4q8 0 13 5t7.5 17.5t3 34t0.5 54.5zM854 928h-49q-33 -7 -81 -16t-98 -16.5t-95.5 -12.5t-73.5 -5q-4 0 -7.5 0.5
t-6.5 0.5l-2 4v6q65 12 126 27t111.5 30t87.5 29.5t55 25.5zM882 502q-20 -15 -42 -37t-42 -38v11q26 45 44.5 83.5t23.5 59.5l42 -60zM401 156q-28 -15 -68 -33.5t-83 -38t-84.5 -39t-71.5 -37.5l-49 56l74 23v389l66 -38l-18 -63v-274l61 22v470h-49v-39q-3 -4 -10 -9
t-14.5 -9t-14 -6.5t-7.5 -2.5v418l56 -34h127l35 38l51 -58l-29 -28v-270h-99v-202h50l38 42l53 -67h-141v-228l122 32zM325 614v274h-134l-12 -48v-226h146z" />
  </g>

</svg>
