<?xml version="1.0" standalone="no"?>
<!DOCTYPE svg PUBLIC "-//W3C//DTD SVG 1.1//EN" "http://www.w3.org/Graphics/SVG/1.1/DTD/svg11.dtd" >
<svg xmlns="http://www.w3.org/2000/svg" xmlns:xlink="http://www.w3.org/1999/xlink" version="1.1" viewBox="0 -36 256 256">
  <g transform="matrix(1 0 0 -1 0 220)">
   <path fill="currentColor"
d="M125 238h84l8 8l13 -12l-7 -6v-21q0 -8 1 -17l-14 -4v6h-85v-3l-13 -2v56zM125 218h85v13h-85v-13zM125 199h85v12h-85v-12zM128 176l-6 -5v-11h39q0 20 -1 28l21 -8l-7 -7v-13h39q0 15 -1 22l20 -7l-6 -6q0 -8 1 -17l-14 -3v4h-39v-22h47q0 13 -1 20l20 -7l-7 -7
q0 -7 1 -15l-13 -3v5h-106l-5 -6l-13 9l6 5q0 16 -1 21l19 -7l-5 -5v-10h45v22h-40l-4 -4l-13 9l6 6q0 11 -1 19zM146 116q-28 -37 -58 -45l-2 3q13 8 24 18.5t22 29.5l1 6l21 -8zM188 126q22 -30 59 -40v-4q-10 0 -13 -9q-35 18 -52 53h6zM68 231l-6 -7v-63q18 24 22 39
l15 -13q-7 -3 -15 -11l-22 -22q0 -24 -3 -59q20 -11 27.5 -21.5t5 -19.5t-5.5 -8t-8 14t-20 30q-10 -53 -48 -79l-2 2q27 33 34 64t6.5 72t-1.5 94zM29.5 139q-4.5 -9 -10 -11t-9 3t4.5 13t15 35h4q0 -31 -4.5 -40zM173 12l-15 -3q1 11 1 27h-25q-13 0 -22 -3l-10 10h57v15
h-9q-13 0 -22 -3l-10 10h41v15h-10q-13 0 -22 -3l-10 10h42q0 14 -1 24l23 -7l-9 -6v-11h13l10 11l18 -18h-41v-15h16l10 11l18 -18h-44v-15h33l10 11l18 -18h-61q0 -6 1 -24z" />
  </g>

</svg>
