<?xml version="1.0" standalone="no"?>
<!DOCTYPE svg PUBLIC "-//W3C//DTD SVG 1.1//EN" "http://www.w3.org/Graphics/SVG/1.1/DTD/svg11.dtd" >
<svg xmlns="http://www.w3.org/2000/svg" xmlns:xlink="http://www.w3.org/1999/xlink" version="1.1" viewBox="0 -36 256 256">
  <g transform="matrix(1 0 0 -1 0 220)">
   <path fill="currentColor"
d="M174 233.5q5 -5.5 -1 -13.5t-9.5 2t-14.5 22l1 3q19 -8 24 -13.5zM218 216l13 11l16 -18h-130q-11 0 -16 -3l-9 10h126zM134 179q9 -6 12 -12.5t-3 -11.5t-7.5 5.5t-6.5 15.5q-10 -6 -27 -11l-1 4q13 7 27 18t23 24l14 -14q-6 0 -15 -7h43l8 7l12 -14l-9 -4
q-26 -19 -53 -30t-49 -15l-1 4q25 8 46.5 18.5t41.5 26.5h-46q-2 1 -9 -4zM146 126q18 -9 9.5 -17t-8 -1t-6.5 17q-16 -5 -32 -8v4q27 9 50.5 21.5t34.5 22.5l11 -14q-6 1 -10.5 -1.5t-12.5 -6.5h36l8 6l13 -15l-8 -3q-32 -20 -65.5 -31.5t-69.5 -15.5v4q39 9 66 20.5
t52 27.5h-43q-11 -5 -25 -10zM48 222q0 12 -1 24l22 -9l-8 -8v-37h15l6 11l15 -12l-7 -7v-90q2 -21 -14 -27q-1 12 -13 15v4q6 -1 10.5 -0.5t3.5 11.5v88h-16v-138q0 -14 1 -30l-15 -8q1 24 1 44v132h-16v-110l-15 -7q1 33 1 70t-1 62l15 -8h16v30zM176 89q4 -11 14 -25
q17 15 28 31l14 -17l-9 -1l-30 -18q12 -14 25 -21t28 -10v-3q-11 -2 -17 -12q-42 21 -57 74zM141 60v-31l35 17l1 -4q-30 -21 -43 -34l-10 13q5 4 4 12v18q-14 -10 -45 -22l-2 3q29 16 48.5 34t26.5 31l14 -14l-7 -3q-9 -9 -22 -20z" />
  </g>

</svg>
