<?xml version="1.0" standalone="no"?>
<!DOCTYPE svg PUBLIC "-//W3C//DTD SVG 1.1//EN" "http://www.w3.org/Graphics/SVG/1.1/DTD/svg11.dtd" >
<svg xmlns="http://www.w3.org/2000/svg" xmlns:xlink="http://www.w3.org/1999/xlink" version="1.1" viewBox="0 -205 1024 1024">
  <g transform="matrix(1 0 0 -1 0 819)">
   <path fill="currentColor"
d="M878 886q-112 -9 -202 -24q-3 -115 -6 -256h182l40 54l66 -58q3 -4 4 -10q7 -12 -10 -12h-246q13 -118 56 -224q42 -102 102 -168q62 -62 146 -79v-18q-35 1 -58 -2q-22 -2 -46 -28q-79 69 -124 141q-45 74 -68 164q-21 89 -32 212h-14q-13 -124 -38 -208
q-24 -84 -102 -176q-76 -92 -238 -169l-8 16q122 70 200 163q77 93 104 198q24 104 30 178h-124q-21 0 -68 -8l-16 34h208q6 122 6 250q-112 -13 -226 -22l-2 18q324 48 486 102l46 -62q4 -12 -6 -14q-15 5 -42 8v0v0zM208 950l78 -34q17 -6 -4 -18l-26 -14v-632l88 18v460
l78 -30q3 -2 4 -10q0 -4 -36 -20v-396l4 -76q0 -12 -14 -24q-15 -13 -36 -14v88q-144 -38 -188 -58q-43 -21 -64 -42l-44 50q26 15 28 34v506l74 -32q7 -3 8 -8q-3 -5 -36 -22v-456l86 22v708v0v0z" />
  </g>

</svg>
