<?xml version="1.0" standalone="no"?>
<!DOCTYPE svg PUBLIC "-//W3C//DTD SVG 1.1//EN" "http://www.w3.org/Graphics/SVG/1.1/DTD/svg11.dtd" >
<svg xmlns="http://www.w3.org/2000/svg" xmlns:xlink="http://www.w3.org/1999/xlink" version="1.1" viewBox="0 -144 1024 1024">
  <g transform="matrix(1 0 0 -1 0 880)">
   <path fill="currentColor"
d="M598 236l42 -49l3 -19l-20 6l-30 -21l-55 -31l-30 -15l-65 -28l-37 -13l-37 -12l-40 -10l-4 9l133 76l54 36l25 17l42 36l18 18h1zM250 143l57 -31l-8 -12l-8 -10l-9 -10l-10 -8l-11 -7l-11 -6l-12 -5l-13 -3l-14 -2l-13 -1v32l-86 16v16h86l7 1l7 1l12 3l5 3l4 3l5 4
l4 4zM866 94l-27 31l-32 30l-37 28l-63 42l3 8l27 -5l25 -7l24 -9l23 -9l22 -11l22 -13l20 -13l37 -30l17 -17l7 -24l-10 -22l-24 -7l-22 12zM250 143l54 -30l3 -1l11 24l11 26l9 30l7 33l7 35l6 38l4 42l4 44l3 48v24l28 17l-59 48l-32 -27h-187l25 188h157v-64l64 32v231
l27 22l-59 48l-32 -27h-264v-21h264v-199h-161l-54 36l-46 -359l68 24l8 68h189l-1 -38l-2 -46l-4 -43l-4 -39l-6 -36l-6 -33l-7 -29l-8 -26l-8 -22zM887 973l64 -54v-22h-227l-25 -35l-25 -30l-26 -28l-29 -25l-13 -11h205l33 27l59 -48l-27 -22v-440l-65 -33v33h-268v-38
l-65 -32v586l65 -33h44l40 75l24 48l2 6h-240v22h420zM811 440h-268v-134h268v134zM811 591h-268v-129h268v129zM811 747h-268v-135h268v135z" />
  </g>

</svg>
