<?xml version="1.0" standalone="no"?>
<!DOCTYPE svg PUBLIC "-//W3C//DTD SVG 1.1//EN" "http://www.w3.org/Graphics/SVG/1.1/DTD/svg11.dtd" >
<svg xmlns="http://www.w3.org/2000/svg" xmlns:xlink="http://www.w3.org/1999/xlink" version="1.1" viewBox="0 -205 1024 1024">
  <g transform="matrix(1 0 0 -1 0 819)">
   <path fill="currentColor"
d="M434 404l54 -28h272l30 26l50 -36q2 0 2 -6t-18 -18v-202l4 -73q1 -15 -18 -24q-18 -9 -38 -10v72h-286v-42q1 -14 -16 -26q-17 -11 -40 -14l4 100v281v0v0zM486 131h286v219h-286v-219v0v0zM678 628q11 -6 8 -12q0 -7 -32 -16q51 -58 108 -104q54 -44 112 -76
q54 -30 120 -36v-20q-50 -1 -64 -10q-12 -8 -24 -22q-51 31 -96 68q-42 36 -84 78q-40 42 -92 108q-51 -60 -138 -134q-87 -72 -242 -170l-10 12q127 98 212 176t158 186l64 -28v0v0zM470 630q-54 -45 -150 -120l-10 12q84 83 130 134q43 49 80 98q61 -46 60 -52q0 -6 -8 -8
q-7 -1 -16 -4t-20 -8q-12 -7 -66 -52v0v0zM674 726l8 14q115 -54 164 -86q48 -31 60 -58q11 -28 2 -46q-10 -16 -28 -16q-16 1 -28 26q-10 24 -38 60q-28 33 -140 106v0v0zM862 820l30 38l54 -46q15 -9 16 -18q0 -4 -14 -8q-31 -4 -52 -22q-19 -19 -50 -58l-16 8l36 82h-444
q-6 -51 -26 -74q-18 -25 -36 -28q-19 -4 -28 4q-10 6 -8 22q0 14 18 26q15 9 34 36q18 25 28 92h16l2 -54h440v0v0zM540 960l8 14q60 -27 90 -48q30 -22 36 -40q6 -19 0 -34q-3 -15 -18 -18q-15 -4 -26 2q-10 7 -14 26q-3 18 -14 40q-10 18 -62 58v0v0zM288 758l18 -6
l-92 -382q-13 -42 -16 -86q-1 -56 2 -76q1 -22 8 -71q7 -51 0 -72q-9 -20 -30 -20t-30 20q-7 19 2 70q9 47 12 73q0 23 -2 44q-2 20 -10 28q-9 9 -50 18l-62 10v18q72 -4 94 -2q20 3 38 52l118 382v0v0zM78 912l6 14q53 -16 92 -32q37 -14 56 -34q18 -19 18 -40
q-1 -21 -10 -32q-9 -12 -24 -12q-15 1 -18 14q-4 11 -14 32t-28 36q-15 15 -78 54v0v0zM32 704l6 14q57 -28 88 -46q29 -18 44 -38q13 -20 12 -40q-3 -20 -12 -28q-9 -9 -24 -6q-12 1 -20 26q-6 24 -14 36q-9 13 -24 32q-16 19 -56 50v0v0z" />
  </g>

</svg>
