<?xml version="1.0" standalone="no"?>
<!DOCTYPE svg PUBLIC "-//W3C//DTD SVG 1.1//EN" "http://www.w3.org/Graphics/SVG/1.1/DTD/svg11.dtd" >
<svg xmlns="http://www.w3.org/2000/svg" xmlns:xlink="http://www.w3.org/1999/xlink" version="1.1" viewBox="0 -205 1024 1024">
  <g transform="matrix(1 0 0 -1 0 819)">
   <path fill="currentColor"
d="M390 362h474l36 42l52 -50q6 -3 6 -8q3 -10 -8 -10h-252v-227h188l38 51l70 -57q3 -4 4 -8q0 -12 -14 -12h-538q-18 1 -66 -8l-24 34h290v227h-172q-18 0 -60 -8l-24 34v0v0zM394 886h488l40 50l62 -58q6 -3 6 -8q3 -10 -8 -10h-504q-18 0 -60 -8l-24 34v0v0zM396 610
q44 63 116 228q60 -33 64 -38q4 -7 2 -10q-3 -4 -18 -10q-16 -4 -52 -56t-84 -116q38 -36 74 -74q36 -36 42 -68q7 -31 -4 -46q-12 -15 -32 -12q-19 0 -22 36q-4 36 -22 72q-19 35 -64 94v0v0zM578 620q42 63 106 214q66 -30 70 -36q4 -7 2 -10q-3 -4 -20 -8q-18 -3 -50 -54
q-33 -48 -78 -108q41 -39 74 -66q29 -27 44 -60q13 -33 2 -50q-12 -19 -32 -16q-21 1 -26 32q-6 30 -24 66t-68 96v0v0zM752 630q46 66 110 196q63 -33 66 -38q4 -7 2 -10q-3 -4 -20 -8q-18 -4 -54 -50q-35 -45 -76 -90q56 -39 98 -78q39 -39 46 -66q6 -27 -6 -42
q-13 -15 -32 -12t-26 34q-6 29 -30 70t-78 94v0v0zM54 896h232l24 32l62 -38q6 -6 6 -14q0 -6 -32 -26v-98l4 -90q1 -18 -22 -30q-22 -10 -34 -10v42h-152l-20 -172h144l26 36l54 -46q12 -5 12 -10q0 -6 -32 -26q-15 -213 -32 -270q-16 -54 -52 -81q-37 -26 -82 -40
q-13 36 -40 50q-28 16 -92 35l4 18q115 -26 152 -23q35 2 56 49q20 47 32 280h-148l-24 -30l-58 44l36 24l22 230l48 -40h146v178h-172q-22 0 -38 -8l-30 34v0v0z" />
  </g>

</svg>
