<?xml version="1.0" standalone="no"?>
<!DOCTYPE svg PUBLIC "-//W3C//DTD SVG 1.1//EN" "http://www.w3.org/Graphics/SVG/1.1/DTD/svg11.dtd" >
<svg xmlns="http://www.w3.org/2000/svg" xmlns:xlink="http://www.w3.org/1999/xlink" version="1.1" viewBox="0 -143 1024 1024">
  <g transform="matrix(1 0 0 -1 0 881)">
   <path fill="currentColor"
d="M201 693l52 -38q7 -4 7 -10.5t-12 -14.5l-18 -15v-378l133 100l12 -14q-89 -82 -123.5 -116.5t-60.5 -77.5l-59 52q28 16 50 46v404h-95q-15 -2 -36 -10l-19 35h143zM139 973q97 -62 123 -92t27 -55t-8 -37t-19 -15t-20 2t-14 34t-20.5 59.5t-77.5 91.5zM526 503l79 -29
q4 -2 7 -7q0 -5 -5 -8l-32 -16v-78q-6 -144 -63 -211t-171 -129l-7 16q105 72 147 138t45 177v147zM731 491l81 -31q3 -7 3 -8.5t-5 -6.5l-30 -16v-248l4 -100q0 -15 -19 -27.5t-38 -12.5l4 138v312zM661 868q-26 -109 -60 -181h240l38 52l66 -58q4 -3 4 -8q0 -12 -12 -12
h-210q32 -52 70 -87t79 -58t120 -35v-18q-28 0 -45 -7t-37 -29q-61 38 -91 65t-57.5 61.5t-63.5 107.5h-109q-56 -104 -123 -180t-151 -132l-8 12q68 62 125 134t107 166h-110q-21 0 -69 -8l-15 34h204q29 66 53 175q-113 -11 -222 -17l-1 18q156 20 280 46t186 48
q56 -54 52 -61t-11 -5t-17 4t-49 -2t-163 -25z" />
  </g>

</svg>
