<?xml version="1.0" standalone="no"?>
<!DOCTYPE svg PUBLIC "-//W3C//DTD SVG 1.1//EN" "http://www.w3.org/Graphics/SVG/1.1/DTD/svg11.dtd" >
<svg xmlns="http://www.w3.org/2000/svg" xmlns:xlink="http://www.w3.org/1999/xlink" version="1.1" viewBox="0 -120 1000 1000">
  <g transform="matrix(1 0 0 -1 0 880)">
   <path fill="currentColor"
d="M242 496l65 -26q13 -5 13 -13q0 -9 -14 -12l-24 -4l-20 -41h153l41 48l68 -58v-16h-94q-34 -94 -68 -144q49 -26 68 -45q15 -16 15 -35q0 -13 -9 -22q-6 -7 -14 -7q-12 0 -34 20q-30 27 -58 49q-97 -111 -257 -143l-8 19q149 55 226 152q-34 22 -102 50l-34 -63l-52 28
q34 47 86 141h-123l-14 26h149q23 49 41 96zM368 374h-120l-46 -84q68 -21 112 -39q28 44 54 123zM451 70q106 68 191 179l58 -43q11 -8 11 -17q0 -8 -13 -8q-5 0 -12 2l-15 5q-116 -99 -208 -134zM516 862l-11 27h324l38 46l82 -52v-21h-193l-75 -140h151l20 35l70 -44
q11 -7 11 -14q0 -9 -17 -13l-17 -3v-428l-63 -9v29h-227v-37l-62 -11v535l66 -40h42q15 61 31 140h-170zM609 422v-119h227v119h-227zM609 561v-112h227v112h-227zM609 694v-105h227v105h-227zM766 236q66 -22 130 -64q63 -41 63 -80q0 -13 -9 -22q-9 -10 -21 -10
q-14 0 -28 21q-47 73 -141 139zM37 536q127 103 204 257h-177l-9 28h211v128l67 -7q19 -2 19 -13q0 -7 -13 -14l-13 -6v-88h105l31 48l68 -59v-17h-187q69 -119 177 -172l-3 -14q-24 -5 -36 -16q-8 -6 -19 -23q-41 32 -82 101q-35 59 -54 118v-266l-60 -10v229
q-66 -129 -217 -218z" />
  </g>

</svg>
