<?xml version="1.0" standalone="no"?>
<!DOCTYPE svg PUBLIC "-//W3C//DTD SVG 1.1//EN" "http://www.w3.org/Graphics/SVG/1.1/DTD/svg11.dtd" >
<svg xmlns="http://www.w3.org/2000/svg" xmlns:xlink="http://www.w3.org/1999/xlink" version="1.1" viewBox="0 -36 256 256">
  <g transform="matrix(1 0 0 -1 0 220)">
   <path fill="currentColor"
d="M84 157q0 -12 1 -35l-15 -5q1 12 1 32v37q-23 -36 -56 -56l-1 4q31 29 49 65h-12q-14 1 -25 -2l-9 9h54q0 19 -1 39l21 -9l-7 -7v-23h16l11 11l16 -18h-43v-12q20 -8 29 -14.5t4 -16.5t-12 2.5t-21 24.5v-26zM165 245l21 -9l-7 -6v-24h29l14 12l16 -19h-58
q11 -19 27.5 -33t34.5 -19v-3q-14 1 -19 -11q-18 13 -27.5 26.5t-16.5 31.5v-36q0 -17 1 -32l-15 -5q1 21 1 30v36q-22 -32 -54 -51l-2 3q33 28 50 63h-2q-13 1 -24 -2l-10 9h42q0 15 -1 39zM57 39.5q16 15.5 19.5 36.5t1.5 44l15 -10h60l7 10l16 -12l-8 -8v-53
q-1 -14 15 -13h30q8 0 9.5 15t2.5 33h4q1 -23 3 -32.5t11 -13.5q-8 -15 -25 -15h-43q-22 0 -21 22v60h-61q1 -45 -20.5 -65t-58.5 -31l-2 3q29 14 45 29.5z" />
  </g>

</svg>
