<?xml version="1.0" standalone="no"?>
<!DOCTYPE svg PUBLIC "-//W3C//DTD SVG 1.1//EN" "http://www.w3.org/Graphics/SVG/1.1/DTD/svg11.dtd" >
<svg xmlns="http://www.w3.org/2000/svg" xmlns:xlink="http://www.w3.org/1999/xlink" version="1.1" viewBox="0 -205 1024 1024">
  <g transform="matrix(1 0 0 -1 0 819)">
   <path fill="currentColor"
d="M160 746h226v76h-226v-76v0v0zM160 848h226v76h-226v-76v0v0zM644 744h226v76h-226v-76v0v0zM644 846h226v74h-226v-74v0v0zM108 986l60 -36h208l30 34l58 -44q6 -6 6 -8q0 -6 -32 -30v-132l4 -62q-1 -10 -16 -20q-16 -9 -40 -12v44h-226v-544l6 -101q1 -15 -18 -30
q-21 -17 -44 -20l4 147v814v0v0zM226 606h262v98l74 -26q12 -9 -6 -18l-22 -10v-44h184l32 40l54 -44q3 -3 4 -6q4 -13 -10 -14h-264v-62h132l28 28l56 -32q6 -6 6 -8q0 -6 -30 -26v-92l4 -74q0 -10 -14 -22q-15 -10 -36 -10v38h-146v-24q84 -18 150 -44q65 -25 82 -46
q15 -21 10 -38q-4 -15 -20 -18t-38 20t-64 50q-39 24 -120 54v-114l4 -63q1 -11 -18 -26q-18 -13 -36 -12l4 105v128q-48 -60 -110 -108q-63 -44 -146 -91l-6 12q73 50 134 107q59 57 94 108h-102v-10q1 -10 -16 -22q-16 -10 -34 -10l4 98v168l46 -26h136v62h-190
q-22 0 -58 -8l-14 32v0v0zM352 346h136v66h-136v-66v0v0zM534 412v-66h146v66h-146v0v0zM352 436h136v60h-136v-60v0v0zM534 496v-60h146v60h-146v0v0zM594 982l58 -36h202l32 40l62 -44q6 -6 6 -8q0 -7 -30 -32v-773q2 -47 -16 -70q-17 -21 -58 -40q-9 35 -38 48
q-30 13 -86 28l4 18q58 -9 86 -12q27 -3 42 0t12 67v550h-226v-14q1 -6 -10 -14q-12 -8 -44 -10l4 94v208v0v0z" />
  </g>

</svg>
