<?xml version="1.0" standalone="no"?>
<!DOCTYPE svg PUBLIC "-//W3C//DTD SVG 1.1//EN" "http://www.w3.org/Graphics/SVG/1.1/DTD/svg11.dtd" >
<svg xmlns="http://www.w3.org/2000/svg" xmlns:xlink="http://www.w3.org/1999/xlink" version="1.1" viewBox="0 -204 1024 1024">
  <g transform="matrix(1 0 0 -1 0 820)">
   <path fill="currentColor"
d="M603 578v-30q0 -8 1 -23t2 -34.5t1.5 -36t0.5 -20.5q-1 -11 -6 -15.5t-17 -5.5q-19 -2 -24 3t-5 21v141h-192v-16q0 -23 -35 -20q-14 1 -17 8.5t-2 17.5q3 45 3.5 60.5t1.5 28.5v94q0 19 -1 55l-2 34l58 -34h186v67q0 36 -1.5 53.5t-2.5 26.5l55 -12q25 -6 33 -10.5
t9 -11.5t-6 -13t-18 -9l-22 -5v-86h203l31 39l42 -27q15 -10 19 -15t4 -11q-1 -7 -6.5 -11.5t-34.5 -17.5v-145l11 -7q5 -4 11.5 -12t5.5 -12q-1 -9 -17 -9h-269zM603 607h209v172h-209v-172zM556 607v172h-192v-172h192zM324 87v285q-1 27 -3 40.5t-5 28.5l61 -44h412
l34 38l43 -27q15 -10 19 -15t3 -11q-1 -7 -5 -10t-36 -19v-266h21l40 55l68 -55q4 -4 7 -9.5t2 -9.5q-3 -9 -16 -9h-671q-31 0 -74 -5l-20 43q65 -10 94 -10h26zM371 88l106 -1v281h-106v-280zM525 87h116v281h-116v-281zM689 87h110v281h-110v-281zM248 424l17 -11
q-6 -17 -11.5 -30.5t-33 -71.5t-49 -102t-60.5 -110q1 -12 2 -20.5t1 -18t-6 -13t-17 6.5l-11 13l-42 48q70 71 122 154.5t88 154.5zM105 936q3 -1 57 -25t81 -52.5t25 -46.5t-10.5 -24t-17.5 -4q-9 1 -16 7.5t-19 28t-35 44t-75 53.5zM48 688q126 -54 146 -79t24 -42
t-4.5 -29t-20.5 -11q-10 0 -17.5 7.5t-20.5 31t-34 43.5t-83 60z" />
  </g>

</svg>
