<?xml version="1.0" standalone="no"?>
<!DOCTYPE svg PUBLIC "-//W3C//DTD SVG 1.1//EN" "http://www.w3.org/Graphics/SVG/1.1/DTD/svg11.dtd" >
<svg xmlns="http://www.w3.org/2000/svg" xmlns:xlink="http://www.w3.org/1999/xlink" version="1.1" viewBox="0 -205 1024 1024">
  <g transform="matrix(1 0 0 -1 0 819)">
   <path fill="currentColor"
d="M740 922l4 -8q0 -4 -32 -16q40 -87 86 -150q45 -61 100 -98q51 -36 102 -42v-20q-43 0 -58 -8q-16 -7 -34 -22q-54 38 -92 92q-39 54 -62 96q-21 39 -62 138q-58 -103 -130 -206q-73 -103 -172 -188l-10 12q83 96 152 204q65 105 128 252l80 -36v0v0zM526 604l58 -34h192
l24 34q63 -45 64 -50q1 -6 -4 -8q-4 -1 -28 -16q2 -135 -4 -182q-5 -45 -28 -68q-22 -21 -64 -38q-6 27 -30 42q-24 16 -78 32l6 16q44 -10 80 -16q33 -6 52 10q18 15 18 84v134h-208v-431q-1 -30 14 -34q14 -3 26 -4h214q38 1 50 20q10 20 14 55q3 35 4 98h20q2 -75 8 -102
q5 -24 32 -45q-7 -26 -34 -50q-26 -22 -76 -20h-236q-30 0 -50 6q-18 6 -30 32q-6 15 -6 50v485v0v0zM132 912l56 -42h168l28 38l58 -40q7 -6 2 -14l-28 -20v-154l4 -50q-1 -17 -16 -28q-16 -10 -40 -10v20h-60v-196h84l34 44l56 -54q9 -10 -2 -16h-172v-200l144 40l6 -18
q-254 -88 -298 -105q-42 -15 -78 -52l-46 64l80 21v368l80 -34q9 -7 0 -14l-30 -14v-292l92 22v436h-72v-18q1 -13 -16 -22q-16 -9 -38 -12l4 96v256v0v0zM182 638h182v206h-182v-206v0v0z" />
  </g>

</svg>
