<?xml version="1.0" standalone="no"?>
<!DOCTYPE svg PUBLIC "-//W3C//DTD SVG 1.1//EN" "http://www.w3.org/Graphics/SVG/1.1/DTD/svg11.dtd" >
<svg xmlns="http://www.w3.org/2000/svg" xmlns:xlink="http://www.w3.org/1999/xlink" version="1.1" viewBox="0 -36 256 256">
  <g transform="matrix(1 0 0 -1 0 220)">
   <path fill="currentColor"
d="M107 232q-13 0 -22 -3l-10 10h48l8 7l18 -12l-9 -4l-4 -3q21 -18 49 -30t61 -12v-4q-17 -2 -22 -12q-25 5 -49 17.5t-42 34.5q-27 -27 -56.5 -39.5t-66.5 -18.5v5q32 7 61.5 22.5t51.5 41.5h-16zM179 100l-15 -6q1 33 1 45q-17 -24 -53 -44l-2 3q36 29 50 55h-8l-11 -3
l-10 10h34q0 10 -1 26l21 -8l-7 -7v-11h23l10 12l19 -19h-52v-8q31 -9 42.5 -15.5t9 -18.5t-13.5 1.5t-38 27.5q0 -18 1 -40zM77 181l21 -6l-7 -7v-13h11l10 12l19 -19h-40v-10q23 -6 28 -10.5t2 -13.5t-10 1t-20 18q0 -20 1 -38l-15 -7q1 28 1 44q-21 -31 -56 -49l-2 3
q36 28 53 62h-15q-13 0 -23 -3l-10 10h53q0 14 -1 26zM42 73q0 -22 -4.5 -32t-13 -14.5t-14 0t8 15.5t20.5 31h3zM113 93q25 -10 32.5 -18.5t4 -15.5t-8.5 -7.5t-9 12t-21 27.5zM201 75q25 -11 34.5 -19t9.5 -15.5t-5 -11.5t-12.5 10t-29.5 33zM68 79l25 -10l-10 -7v-22
q0 -12 16 -12h55q18 -1 20 10.5t2 25.5h6q1 -17 4 -23.5t11 -10.5q-9 -14 -32 -14h-71q-25 -1 -25 17q0 30 -1 46z" />
  </g>

</svg>
