<?xml version="1.0" standalone="no"?>
<!DOCTYPE svg PUBLIC "-//W3C//DTD SVG 1.1//EN" "http://www.w3.org/Graphics/SVG/1.1/DTD/svg11.dtd" >
<svg xmlns="http://www.w3.org/2000/svg" xmlns:xlink="http://www.w3.org/1999/xlink" version="1.1" viewBox="0 -36 256 256">
  <g transform="matrix(1 0 0 -1 0 220)">
   <path fill="currentColor"
d="M177 145q14 13 22 29h-45q12 -19 23 -29zM188 137q20 -16 57 -20v-5q-19 0 -22 -10q-23 8 -46 26q-28 -17 -62 -24l-3 4q36 12 56 29q-14 20 -19 37l-5 -4l-8 11h63l11 10l13 -15l-9 -4q-11 -20 -26 -35zM76 197l22 -8l-8 -8v-6h22l11 11l15 -18h-48v-13h16l8 8l13 -14
l-10 -5q-16 -21 -39.5 -35.5t-67.5 -22.5l-1 4q69 20 93 58h-49q-15 -23 -37 -37l-2 4q25 25 35 61l18 -10l-6 -5l-4 -6h20q0 29 -1 42zM117 104l-6 -6v-75h33v90l26 -9l-12 -6v-8h48l12 8l18 -15h-78v-14h47l11 9l18 -16h-76v-16h45l13 12l18 -19h-76v-16h58l13 11l18 -18
h-208q-10 0 -20 -2l-10 9h88v16h-36q-11 0 -21 -2l-9 9h66v16h-31q-11 0 -20 -2l-10 9h61v14h-34q-13 3 -23 -1l-9 8h66v21zM45 143q27 -11 27.5 -17.5t-4.5 -11t-8.5 4.5t-15.5 22zM126 211h-38q0 -6 1 -15l-16 -4q1 9 1 19h-26q-11 0 -20 -2l-11 9h57q0 19 -1 29l23 -8
l-8 -5v-16h12l12 9zM129 219h34q0 17 -1 27l24 -8l-9 -5v-14h37l11 8l16 -15h-64q0 -4 1 -14l-16 -5q1 15 1 19h-11q-7 1 -15 -2z" />
  </g>

</svg>
