<?xml version="1.0" standalone="no"?>
<!DOCTYPE svg PUBLIC "-//W3C//DTD SVG 1.1//EN" "http://www.w3.org/Graphics/SVG/1.1/DTD/svg11.dtd" >
<svg xmlns="http://www.w3.org/2000/svg" xmlns:xlink="http://www.w3.org/1999/xlink" version="1.1" viewBox="0 -36 256 256">
  <g transform="matrix(1 0 0 -1 0 220)">
   <path fill="currentColor"
d="M86 80q0 -25 1 -43l-14 -6v15h-38v-17l-15 -6q1 51 1 104t-1 102l15 -10h37l8 10l14 -14l-8 -6v-129zM35 163h38v49h-38v-49zM35 109h38v47h-38v-47zM35 53h38v49h-38v-49zM111 105.5q0 18.5 -1 37.5l14 -6h36v17h-37q-10 0 -19 -2l-9 9h65v16q-28 -2 -52 -3v4
q43 5 70 10.5t32 9.5l11 -16q-16 0 -49 -4v-17h47l11 11l14 -18h-72v-17h36l8 7l13 -13l-8 -4q0 -29 2 -50l-14 -6v6h-37v-22h35l10 10l15 -17h-60v-21h51l9 10l15 -17h-130q-10 0 -19 -2l-10 9h72v21h-29q-9 0 -18 -3l-9 10h56v22h-36v-3l-14 -3q1 16 1 34.5zM124 109h36
v21h-36v-21zM172 109h37v21h-37v-21zM124 84h36v18h-36v-18zM172 84h37v18h-37v-18zM187 247l20 -9l-7 -7v-10h21l12 11l14 -18h-47q0 -6 1 -15l-13 -4v19h-41v-18l-13 -6q1 10 1 24h-13q-10 0 -19 -2l-9 9h41q0 15 -1 26l20 -9l-7 -7v-10h41q0 14 -1 26z" />
  </g>

</svg>
