<?xml version="1.0" standalone="no"?>
<!DOCTYPE svg PUBLIC "-//W3C//DTD SVG 1.1//EN" "http://www.w3.org/Graphics/SVG/1.1/DTD/svg11.dtd" >
<svg xmlns="http://www.w3.org/2000/svg" xmlns:xlink="http://www.w3.org/1999/xlink" version="1.1" viewBox="0 -36 256 256">
  <g transform="matrix(1 0 0 -1 0 220)">
   <path fill="currentColor"
d="M64 209q0 -19 1 -19l-15 -3q1 7 1 21h-10q-10 0 -19 -2l-9 9h38q0 14 -1 29l20 -8l-6 -7v-20zM91 216q0 6 -1 28l20 -9l-7 -7v-12h16l10 10l14 -17h-40q0 -7 1 -15l-14 -6q1 16 1 28zM86 131l-15 -4q1 19 1 23h-29q-13 0 -22 -2l-9 9h60v20h-23q-10 0 -19 -2l-9 9h92l9 9
l14 -16h-51v-20h35l8 11l14 -18h-57q0 -12 1 -19zM116 109h-71q-18 -24 -34 -37l-3 3q20 27 27 41t13 31l19 -13l-8 -2l-10 -16h64l6 11l18 -12l-8 -8q0 -61 -3 -75.5t-24 -21.5q2 11 -22 15v5q31 -4 33.5 5.5t2.5 73.5zM78 81h-31v-31h31v31zM78 34v9h-31v-10l-12 -6v66
l15 -5h28l5 9l16 -13l-8 -5v-41zM174 216q0 15 -1 29l25 -7l-11 -8v-26h30l9 10l13 -17h-52v-44h20l7 11l16 -13l-8 -6q-9 -47 -30 -82q26 -29 56 -36v-4q-11 -2 -14 -12q-27 13 -50 42q-26 -31 -71 -46l-1 5q44 22 64 53q-17 34 -23 81l-8 -3l-8 10h37v63zM185 75
q16 31 23 71h-48q6 -38 25 -71z" />
  </g>

</svg>
