<?xml version="1.0" standalone="no"?>
<!DOCTYPE svg PUBLIC "-//W3C//DTD SVG 1.1//EN" "http://www.w3.org/Graphics/SVG/1.1/DTD/svg11.dtd" >
<svg xmlns="http://www.w3.org/2000/svg" xmlns:xlink="http://www.w3.org/1999/xlink" version="1.1" viewBox="0 -36 256 256">
  <g transform="matrix(1 0 0 -1 0 220)">
   <path fill="currentColor"
d="M96 127q0 61 -1 108l13 -10h15l8 10l10 -13l-7 -6l-16 -59q20 -19 22.5 -46.5t-17.5 -38.5q-2 12 -14 20v4q13 -3 17 -1t4.5 9.5t-3.5 22.5t-15 30l11 61h-16v-203l-12 -7q1 58 1 119zM194.5 229q18.5 6 28.5 13l10 -16q-11 -2 -35.5 -6.5t-59.5 -8.5v5q38 7 56.5 13z
M218 218l13 -13q-9 -5 -27 -25l-2 2q13 22 16 36zM164 138q-10 0 -19 -2l-9 9h44v20h-8q-10 0 -19 -3l-9 10h66l10 9l11 -16h-39v-20h28l8 8l12 -15h-76zM224 103h3l8 7l9 -14h-20v-20l-13 -5v4h-42q-9 0 -16 -2l-8 9h66v14h-46q-8 0 -16 -2l-8 9h70v14h-41q-8 0 -15 -1
l-7 8h62l9 10l11 -13l-6 -6v-12zM156 71l16 -10l-4 -7v-16q0 -12 9 -11h25q8 1 8.5 10t0.5 21h5q1 -11 2.5 -17.5t6.5 -11.5q-4 -8 -9 -10t-11 -2h-34q-14 0 -14 14q0 27 -1 40zM244.5 41.5q1.5 -7.5 -2.5 -14.5t-7 6.5t-11 25.5l1 3q18 -13 19.5 -20.5zM160.5 190.5
q2.5 -7.5 -3 -14t-7.5 5.5t-7 22l1 3q14 -9 16.5 -16.5zM188 196q5 -8 -1 -16t-7.5 3.5t-8.5 24.5l1 3q11 -7 16 -15zM194 61.5q4 -5.5 0 -14.5t-7 2.5t-11 21.5l2 2q12 -6 16 -11.5zM138.5 38q-2.5 -10 -8.5 -13.5t-10.5 2t4.5 12t15 25.5h3q-1 -16 -3.5 -26zM45 216
q0 16 -1 31l18 -9l-6 -7v-27h15l10 10l11 -17h-36v-21h17l6 10l11 -11l-5 -6v-39q0 -17 1 -29l-12 -5v5h-18v-27h18l10 10l12 -17h-40v-14q0 -18 1 -41l-13 -5q1 22 1 41v19h-8q-10 0 -19 -2l-9 9h36v27h-17v-4l-12 -6q1 15 1 30v32q0 16 -1 32l13 -9h16v21h-2
q-14 -1 -23 -3l-9 10h34v12zM28 169v-27h17v27h-17zM56 169v-27h18v27h-18zM56 135v-27h18v27h-18zM28 135v-27h17v27h-17z" />
  </g>

</svg>
