<?xml version="1.0" standalone="no"?>
<!DOCTYPE svg PUBLIC "-//W3C//DTD SVG 1.1//EN" "http://www.w3.org/Graphics/SVG/1.1/DTD/svg11.dtd" >
<svg xmlns="http://www.w3.org/2000/svg" xmlns:xlink="http://www.w3.org/1999/xlink" version="1.1" viewBox="0 -205 1024 1024">
  <g transform="matrix(1 0 0 -1 0 819)">
   <path fill="currentColor"
d="M430 738l54 -34h158v96h-212q-34 -3 -40 -12l-28 38h280v156l80 -30q6 -2 4 -10q0 -3 -6 -6l-28 -14v-96h200l40 50l62 -60q6 -13 -8 -16h-294v-96h148l28 34l58 -42l4 -8q0 -6 -24 -24v-212l4 -60q-1 -16 -16 -26q-16 -9 -38 -12v56h-134q29 -81 62 -128q33 -48 90 -90
q57 -43 142 -57v-18q-42 3 -62 -6q-21 -9 -38 -28q-64 50 -100 87q-36 38 -66 94q-30 53 -50 146h-8v-291l4 -46q-1 -15 -22 -30q-21 -14 -36 -14l4 90v275q-85 -126 -164 -200q-77 -72 -214 -141l-6 16q118 75 194 153q75 76 138 188h-110v-24q1 -12 -16 -18
q-16 -7 -38 -10l4 94v286v0v0zM480 436h162v106h-162v-106v0v0zM692 542v-106h164v106h-164v0v0zM480 568h162v110h-162v-110v0v0zM692 678v-110h164v110h-164v0v0zM192 974l78 -34q17 -6 -4 -18l-26 -14v-588l84 18v412l78 -30q3 -2 4 -10q0 -4 -36 -20v-348l4 -76
q0 -7 -14 -20q-15 -12 -36 -18v88q-139 -38 -182 -58q-42 -21 -62 -42l-44 50q26 15 28 34v458l74 -32q7 -3 8 -8q-3 -5 -36 -22v-408l82 22v664v0v0z" />
  </g>

</svg>
