<?xml version="1.0" standalone="no"?>
<!DOCTYPE svg PUBLIC "-//W3C//DTD SVG 1.1//EN" "http://www.w3.org/Graphics/SVG/1.1/DTD/svg11.dtd" >
<svg xmlns="http://www.w3.org/2000/svg" xmlns:xlink="http://www.w3.org/1999/xlink" version="1.1" viewBox="0 -120 1000 1000">
  <g transform="matrix(1 0 0 -1 0 880)">
   <path fill="currentColor"
d="M669 283v-17l-51 -16v363l57 -33h167l26 33l46 -40q11 -11 11 -17q0 -9 -15 -13l-15 -3v-262l-50 -16v21h-176zM669 311h176v69h-176v-69zM669 466v-58h176v58h-176zM669 552v-58h176v58h-176zM712 273l38 -43q6 -7 6 -14q0 -9 -13 -8q-1 0 -5 1l-14 3q-41 -31 -117 -56
l-8 14q55 37 113 103zM266 736l16 -40q66 87 105 156l44 -50q19 -21 19 -28q0 -13 -20 -14h-6l-18 2l-115 -85q45 -74 91 -103q28 -17 85 -38l-6 -20q-26 -6 -38 -19q-8 -8 -16 -30q-48 29 -83 76q-26 35 -41 77q-8 21 -26 86q-22 -89 -51 -130q-55 -76 -145 -123l-11 16
q70 51 109 110q63 98 63 255l-1 108q0 3 1 21l46 -10q41 -9 41 -20q0 -13 -34 -24q-2 -81 -9 -173zM162 849q5 -45 5 -67q0 -78 -30 -117q-16 -22 -35 -22q-14 0 -24 10q-8 9 -8 25q0 20 20 39q46 40 54 132h18zM553 665h174v64h-67v-24l-49 -12v197l49 -30h67v96l53 -10
q18 -3 18 -13q0 -5 -12 -14l-6 -4v-55h65l20 32l45 -32q14 -10 14 -18t-11 -13l-13 -7v-104l-51 -17v28h-69v-64h101l29 40l56 -54v-14h-403zM660 832v-75h67v75h-67zM780 832v-75h69v75h-69zM782 274q133 -42 133 -95q0 -27 -23 -27q-8 0 -18 5q-8 4 -36 44q-18 25 -65 60z
M468 91l-1 -12q-3 -18 -10 -18q-6 0 -14 12l-33 57l98 46v240h-75l-10 26h80l22 30l52 -34q19 -12 19 -19q0 -9 -18 -14l-13 -3v-224q59 -56 181 -54h212v-12q-25 -11 -37 -45h-147q-164 5 -229 105zM446 673q44 -13 73 -41q30 -28 30 -55q0 -14 -9 -23q-7 -6 -16 -6
q-12 0 -19 10q-2 3 -17 41q-13 30 -49 61zM460 894q115 -47 115 -99q0 -14 -10 -23q-8 -7 -17 -7q-17 0 -32 30q-19 39 -23 45q-6 12 -40 43zM94 46v409l66 -32h176l21 35l65 -45q10 -7 10 -12q0 -6 -13 -10l-19 -5v-298l-56 -13v47h-194v-68zM150 264v-114h74v114h-74z
M150 395v-103h74v103h-74zM275 264v-114h69v114h-69zM275 395v-103h69v103h-69z" />
  </g>

</svg>
