<?xml version="1.0" standalone="no"?>
<!DOCTYPE svg PUBLIC "-//W3C//DTD SVG 1.1//EN" "http://www.w3.org/Graphics/SVG/1.1/DTD/svg11.dtd" >
<svg xmlns="http://www.w3.org/2000/svg" xmlns:xlink="http://www.w3.org/1999/xlink" version="1.1" viewBox="0 -246 2048 2048">
  <g transform="matrix(1 0 0 -1 0 1802)">
   <path fill="currentColor"
d="M1417 1651q-106 -283 -324 -426l-39 35q196 168 244 391h-117q-93 -171 -243 -303l-37 33q176 207 256 546q180 -36 180 -78q0 -27 -84 -36q-29 -74 -45 -111h498l75 88q121 -96 121 -119q0 -12 -18 -24l-43 -29q-9 -444 -92 -530q-64 -67 -170 -64q-3 84 -160 109v53
q76 -12 174 -12q75 0 96 76q40 138 37 401h-82q-78 -338 -364 -539l-39 35q232 213 280 504h-104zM1120 500q351 -203 791 -286q-67 -60 -91 -113q-444 130 -743 370v-409h-113v371q-327 -240 -805 -359l-24 47q445 133 753 379h-712l-23 51h811v352q185 -9 185 -37
q0 -23 -72 -43v-272h184q105 112 179 254q161 -55 161 -88q0 -20 -84 -23q-77 -74 -182 -143h328l100 98q61 -42 135 -108l-22 -41h-756zM1013 1096q-346 -312 -888 -475l-25 49q568 200 885 566q147 -46 147 -76q0 -23 -80 -29q375 -241 914 -319q-63 -57 -88 -121
q-551 137 -865 405zM522 1338v264h-195q-47 -131 -127 -240l-43 25q91 197 107 495q178 -15 178 -53q0 -16 -63 -37q-15 -82 -35 -139h178v266q191 -3 191 -45q0 -28 -76 -55v-166h119l84 109q70 -68 108 -119l-24 -41h-287v-238q126 31 240 68l10 -51q-82 -33 -250 -91
v-305h-115v268q-172 -49 -260 -71q-13 -78 -35 -78q-36 0 -92 170q224 30 387 64zM526 754l39 27q190 -78 190 -164q0 -60 -65 -60q-43 0 -58 47q-24 78 -106 150z" />
  </g>

</svg>
