<?xml version="1.0" standalone="no"?>
<!DOCTYPE svg PUBLIC "-//W3C//DTD SVG 1.1//EN" "http://www.w3.org/Graphics/SVG/1.1/DTD/svg11.dtd" >
<svg xmlns="http://www.w3.org/2000/svg" xmlns:xlink="http://www.w3.org/1999/xlink" version="1.1" viewBox="0 -36 256 256">
  <g transform="matrix(1 0 0 -1 0 220)">
   <path fill="currentColor"
d="M92.5 218.5q-7.5 -2.5 -22.5 -6.5v-50l20 4l10 13l15 -15l-45 -9v-46l24 5l8 12l16 -14l-48 -11v-57q0 -14 14 -14h133q9 0 11 10.5t2 18.5h4q0 -7 2.5 -16.5t9.5 -10.5q-6 -10 -11.5 -12.5t-15.5 -2.5h-140q-23 0 -23 22v60l-27 -5l-11 -4l-10 7l48 9v46l-26 -5l-8 -4
l-8 8l42 9v49q-20 -4 -38 -7v5q23 5 45 13.5t30 16.5l14 -15q-7 -1 -14.5 -3.5zM212.5 224.5q5.5 -5.5 4.5 -11t-6 -8.5t-7.5 8t-10.5 23l3 2q11 -8 16.5 -13.5zM230 115h4q0 -14 1.5 -28t4 -20.5t-6.5 -5.5t-22.5 11t-23.5 27q-25 -29 -51 -39l-2 3q30 20 47 49
q-3 7 -7.5 27.5t-5.5 53.5h-33q1 -59 -5 -89.5t-30 -56.5l-3 2q19 32 22 58t3 49t-1 53l14 -9h33q0 28 -1 44l20 -7l-5 -6v-31h30l10 11l18 -18h-58q1 -42 8 -67q11 21 15 32t7 20l16 -13l-6 -5q-14 -25 -27 -48q13 -23 30 -32z" />
  </g>

</svg>
