<?xml version="1.0" standalone="no"?>
<!DOCTYPE svg PUBLIC "-//W3C//DTD SVG 1.1//EN" "http://www.w3.org/Graphics/SVG/1.1/DTD/svg11.dtd" >
<svg xmlns="http://www.w3.org/2000/svg" xmlns:xlink="http://www.w3.org/1999/xlink" version="1.1" viewBox="0 -205 1024 1024">
  <g transform="matrix(1 0 0 -1 0 819)">
   <path fill="currentColor"
d="M46 340h316v150l80 -28q9 -5 4 -16l-30 -14v-92h224v146l80 -30q7 -2 8 -4q3 -7 0 -10l-34 -16v-86h176l40 56l68 -60q3 -4 4 -10q1 -12 -16 -12h-272v-156l4 -91q0 -14 -24 -28q-25 -14 -38 -14l4 131v158h-226q-7 -63 -38 -126q-30 -60 -108 -105q-77 -45 -166 -66
l-4 16q64 25 134 70q69 45 96 97q26 51 34 114h-232q-21 0 -68 -8l-16 34v0v0zM418 890q-55 -16 -166 -46v-116h184l32 36l54 -48q2 0 2 -6q0 -7 -8 -8h-264v-148h550v148h-170q-21 0 -48 -8l-24 34h242v138h-180q-19 0 -44 -6l-22 34h242l32 34l52 -38q7 -6 8 -12
q-1 -7 -34 -28v-268l4 -72q0 -16 -18 -28q-19 -12 -40 -12v58h-550v-30q0 -7 -18 -20q-16 -12 -40 -12l4 134v310l58 -44q132 56 196 104q64 -51 68 -56q3 -5 0 -10q-3 -3 -24 0t-78 -14v0v0z" />
  </g>

</svg>
