<?xml version="1.0" standalone="no"?>
<!DOCTYPE svg PUBLIC "-//W3C//DTD SVG 1.1//EN" "http://www.w3.org/Graphics/SVG/1.1/DTD/svg11.dtd" >
<svg xmlns="http://www.w3.org/2000/svg" xmlns:xlink="http://www.w3.org/1999/xlink" version="1.1" viewBox="0 -205 1024 1024">
  <g transform="matrix(1 0 0 -1 0 819)">
   <path fill="currentColor"
d="M88 704h706l50 60l74 -66q3 -4 4 -10q0 -12 -14 -12h-736q-22 0 -70 -8l-14 36v0v0zM404 980l10 16q87 -45 126 -84q38 -36 40 -72q0 -34 -18 -52q-18 -19 -38 -10q-18 8 -24 44q-5 36 -22 70q-15 32 -74 88v0v0z" />
  </g>

</svg>
