<?xml version="1.0" standalone="no"?>
<!DOCTYPE svg PUBLIC "-//W3C//DTD SVG 1.1//EN" "http://www.w3.org/Graphics/SVG/1.1/DTD/svg11.dtd" >
<svg xmlns="http://www.w3.org/2000/svg" xmlns:xlink="http://www.w3.org/1999/xlink" version="1.1" viewBox="0 -36 256 256">
  <g transform="matrix(1 0 0 -1 0 220)">
   <path fill="currentColor"
d="M38 17.5q-2 6.5 0 18t0 18t-23 15.5v6q27 -8 32 -4t40 78l4 -2q-25 -63 -31.5 -78.5t-4.5 -36t-6.5 -21t-10.5 6zM20 142q23 -9 32.5 -17t2.5 -18.5t-12 3.5t-24 28zM44 187q31 -13 34 -23.5t-3 -16t-11 8.5t-22 27zM157 89h60l7 9l14 -13l-7 -5q-6 -21 -10.5 -26.5
t-17.5 -7.5q0 10 -22 16v5q20 -3 26 -3t9 18h-56q13 -24 33 -39.5t54 -17.5v-4q-15 -2 -21 -13q-32 11 -48 30.5t-23 44.5q-8 -28 -30 -47.5t-55 -27.5l-1 5q29 11 46 28.5t26 40.5h-33l-8 -7l-12 13l7 4q4 18 5 34l13 -8h33q1 12 1 20h-23q-11 0 -20 -2l-9 9h52v18h-33
q-10 -1 -19 -3l-10 10h62v22l23 -8l-8 -5v-9h47l11 11l16 -18h-74v-18h39l7 8l16 -12l-8 -4v-27l-15 -4v5h-41q-1 -8 -3 -22zM160 118h41v20h-39q0 -9 -2 -20zM109 89h34q2 12 3 22h-33zM124 209h-39q0 -7 1 -17l-16 -6q1 13 1 23h-26q-10 0 -20 -2l-9 9h55q0 20 -1 31
l22 -8l-7 -7v-16h13l12 11zM156 211q-10 0 -20 -2l-9 9h35q0 15 -1 28l22 -9l-7 -7v-12h29l13 11l16 -18h-58q-1 -3 1 -20l-16 -5q1 21 1 25h-6z" />
  </g>

</svg>
