<?xml version="1.0" standalone="no"?>
<!DOCTYPE svg PUBLIC "-//W3C//DTD SVG 1.1//EN" "http://www.w3.org/Graphics/SVG/1.1/DTD/svg11.dtd" >
<svg xmlns="http://www.w3.org/2000/svg" xmlns:xlink="http://www.w3.org/1999/xlink" version="1.1" viewBox="0 -143 1024 1024">
  <g transform="matrix(1 0 0 -1 0 881)">
   <path fill="currentColor"
d="M638 682q20 -132 46 -216t56 -144q34 74 52 158t28 251h-165zM755 947q7 -4 9 -7q2 -7 -7 -12q-14 -3 -21.5 -8t-25.5 -55.5t-41 -106.5h225l33 41l60 -52q3 -9 -5 -12h-113q-11 -179 -36 -280t-65 -173q40 -64 72 -100t65 -57t85 -31v-18q-28 0 -50 -2t-40 -28
q-36 28 -74 73t-86 127q-56 -74 -143 -136t-162 -86l-4 14q69 36 157 109t126 137q-76 150 -98 362q-25 -47 -51 -80l-12 9q27 61 67 175t65 228zM158 793l54 -27h214l25 29l49 -35q11 -9 -7 -20l-10 -8l1 -107q-6 -17 -18 -23t-30 -9v34h-231q2 -23 -7 -27q-13 -11 -40 -15
v208zM205 651h231v90h-231v-90zM504 849l32 45l59 -53q5 -4 5 -6q0 -12 -17 -12h-480q-20 0 -39 -12l-29 38h469zM216 975l6 12q66 -22 89 -38t28 -32t-3 -30t-25 -15t-23 20t-21 39t-51 44zM103 396q84 22 172 51t142 55l48 -45q5 -4 5 -7q-2 -8 -10 -8h-28q-41 -2 -95 -17
v-100l159 29l24 37l45 -31q25 -14 4 -22l-232 -43v-93q0 -27 7 -37t15 -13.5t31 -3.5h66q22 -2 36 8t18 42.5t7 71.5h17q5 -52 8 -70t24 -34q-17 -31 -34 -46.5t-44 -17.5h-121q-14 2 -33.5 6.5t-32.5 22.5t-13 59l-1 98l-158 -24q-36 -10 -46 -24l-32 42l236 36v96
q-104 -26 -184 -34v16zM497 555l25 30l47 -44q5 -3 -7 -14q-19 -3 -36 -22t-33 -48l-12 8l16 64h-384q-3 -32 -12 -53t-30 -29t-33 -1t-11 22t23 29t33 39t17 67h17l-1 -48h381z" />
  </g>

</svg>
