<?xml version="1.0" standalone="no"?>
<!DOCTYPE svg PUBLIC "-//W3C//DTD SVG 1.1//EN" "http://www.w3.org/Graphics/SVG/1.1/DTD/svg11.dtd" >
<svg xmlns="http://www.w3.org/2000/svg" xmlns:xlink="http://www.w3.org/1999/xlink" version="1.1" viewBox="0 -154 1024 1024">
  <g transform="matrix(1 0 0 -1 0 870)">
   <path fill="currentColor"
d="M415 982l8 8q78 -37 96 -82q16 -57 -20 -58q-16 2 -15 22q1 21 -13 48q-13 26 -56 62zM377 768l10 6q49 -48 61 -77q14 -29 18 -57q5 -31 -2 -47q-22 -31 -31 9q0 18 -5 61q-6 40 -51 105zM340 827h205l24 32l58 -42q17 -10 -6 -10h-200q-29 1 -47 -13zM704 640v-194h78
v194h-78zM903 640h-83v-194h83v194zM294 751h-75v-274h75v274zM100 751v-274h82v274h-82zM555 333l24 32l58 -42q17 -10 -6 -10h-127q-2 -16 -2 -28q-8 -78 -39 -146q-28 -69 -102 -137l-10 6q23 29 49 71q25 41 38 75q25 64 31 117q1 14 2 42h-38q-29 1 -47 -13l-34 33h120
q1 64 1 183h-60q-27 1 -45 -12l-34 33h157l44 129q26 69 24 81q-2 13 -10 28l8 7l64 -30q17 -11 7 -15q-18 1 -30 -10q-40 -71 -89 -190h47l24 32l58 -42q17 -11 -6 -11h-125q1 -114 -2 -183h50zM247 204q-113 -48 -132 -58q-20 -9 -44 -38l-38 46l149 53v250h-82v-32
q0 -21 -10 -30q-9 -9 -31 -14q4 36 7 148v236q0 18 -7 34l14 11l25 -39h84v171q2 15 -22 42l7 11l70 -34q12 -6 5 -11q-15 -6 -23 -18v-161h56l37 37l40 -45q14 -12 -6 -17l-18 -9v-231l2 -69q-1 -18 -10 -24q-9 -7 -26 -7v51h-75v-237l96 35q-12 27 -43 66l8 11
q56 -48 75 -81q18 -34 16 -61q-3 -27 -18 -30q-17 -3 -20 24q-5 24 -11 53zM761 989l83 -36q14 -6 6 -11q-21 -9 -30 -21v-110h79l32 38l58 -48q15 -13 -6 -10h-163v-135h72l27 29l44 -37q9 -12 -6 -17l-18 -9v-142l2 -57q-1 -18 -9 -24q-8 -7 -29 -7v34h-64q22 -69 43 -122
q18 -44 34 -73q18 -30 33 -47q15 -18 31 -31q11 -13 29 -22v-13q-17 2 -29 -1q-11 -1 -21 -16q-25 25 -54 75q-28 50 -46 98q-31 78 -38 152h-1v-274l2 -97q0 -21 -11 -31q-10 -9 -36 -15q4 39 7 190v165q-81 -190 -240 -309l-9 10q160 152 232 361h-61v-21q0 -21 -11 -30
t-32 -14q4 36 7 70v217q-3 18 -21 34l14 11l38 -37h83v135h-60q-27 0 -45 -13l-34 33h139v120q2 15 -30 46z" />
  </g>

</svg>
