<?xml version="1.0" standalone="no"?>
<!DOCTYPE svg PUBLIC "-//W3C//DTD SVG 1.1//EN" "http://www.w3.org/Graphics/SVG/1.1/DTD/svg11.dtd" >
<svg xmlns="http://www.w3.org/2000/svg" xmlns:xlink="http://www.w3.org/1999/xlink" version="1.1" viewBox="0 -144 1024 1024">
  <g transform="matrix(1 0 0 -1 0 880)">
   <path fill="currentColor"
d="M382 501v-171h235v171h-235zM108 660l-1 11v4l-1 4v2l40 1l116 99l108 100l100 106l5 5l45 -46l4 -20l-19 5l-60 -56l-78 -65l-40 -31l-80 -57l-40 -27l-20 -11l47 2l201 8l140 4l73 2l73 1h31l-70 54l-103 70l4 8l42 -15l39 -16l36 -17l63 -34l27 -18l25 -18l22 -18
l19 -18l17 -19l5 -24l-13 -21l-24 -5l-21 13l-10 16l-14 18l-17 18l-12 11l-117 -15l-143 -16l-269 -26l-106 -10l-9 -18l-12 16l-1 12l-1 6v6l-1 14v2v3zM106 681l5 -64l-16 63zM317 330v171h-222v21h661l54 54l65 -54v-21h-193v-171h114l54 53l65 -53v-22h-233v-247
l-65 -32v279h-237l-3 -25l-11 -45l-18 -41l-24 -37l-30 -32l-36 -28l-42 -24l-47 -18l-51 -14l-57 -9l-2 9l53 19l47 21l40 23l34 25l28 28l22 29l17 32l10 33l7 37v17h-262v22h262z" />
  </g>

</svg>
