<?xml version="1.0" standalone="no"?>
<!DOCTYPE svg PUBLIC "-//W3C//DTD SVG 1.1//EN" "http://www.w3.org/Graphics/SVG/1.1/DTD/svg11.dtd" >
<svg xmlns="http://www.w3.org/2000/svg" xmlns:xlink="http://www.w3.org/1999/xlink" version="1.1" viewBox="0 -36 256 256">
  <g transform="matrix(1 0 0 -1 0 220)">
   <path fill="currentColor"
d="M187.5 233.5q5.5 -6.5 -1.5 -16.5h31l11 11l14 -18h-42v-32h17l8 11l13 -12l-7 -6v-40l-12 -6v5h-78q-1 -29 -7 -64t-24 -58l-3 2q14 31 17.5 66t3.5 84t-2 67l15 -10h37q-4 16 -14 29l2 3q16 -9 21.5 -15.5zM141 178h18v32h-18v-32zM171 178h17v32h-17v-32zM200 137h19
v34h-19v-34zM171 137h17v34h-17v-34zM141 137h18v34h-18v-34zM187 47l1 -3q-27 -20 -35 -30l-10 14q4 5 5 10v82l18 -10l-6 -5v-21h9l8 9l12 -16h-29v-43zM209 111l-6 -5v-26q22 16 30 31l13 -15q-10 -3 -19.5 -9t-23.5 -13v-35q0 -10 8 -10h15q6 0 7 10t1 29h5
q0 -18 1.5 -25.5t7.5 -10.5q-3 -8 -6.5 -10.5t-8.5 -2.5h-26q-16 -1 -16 12q0 80 -1 91zM110 21l-13 -6v16h-67v-11l-13 -9q1 48 1 103.5t-1 71.5l13 -10h15v41h-8q-10 0 -18 -2l-10 9h85l12 10l14 -17h-36v-41h12l8 11l12 -13l-7 -6v-109q0 -23 1 -38zM56 176h17v41h-17
v-41zM73 123v46h-17q0 -22 -3.5 -39.5t-21.5 -36.5l-2 2q11 19 13.5 35.5t2.5 38.5h-15v-89h67v30h-11q-13 0 -13 13zM84 130q0 -10 4.5 -10h8.5v49h-13v-39zM97 73h-67v-35h67v35z" />
  </g>

</svg>
