<?xml version="1.0" standalone="no"?>
<!DOCTYPE svg PUBLIC "-//W3C//DTD SVG 1.1//EN" "http://www.w3.org/Graphics/SVG/1.1/DTD/svg11.dtd" >
<svg xmlns="http://www.w3.org/2000/svg" xmlns:xlink="http://www.w3.org/1999/xlink" version="1.1" viewBox="0 -205 1024 1024">
  <g transform="matrix(1 0 0 -1 0 819)">
   <path fill="currentColor"
d="M524 936l36 41q7 7 14 0q26 -26 44 -48q11 -14 4 -24q-5 -6 -18 -7h-449q-42 -1 -73 -7q-8 -3 -11 6q-4 18 -19 30q-7 7 -4 11q4 3 11 -1q38 -8 84 -8h369q6 0 12 7zM286 89q-18 -25 -45 -35q-9 -2 -10 5q-12 42 -78 57q-11 2 -10 12q1 9 14 8q86 -5 92 -2q7 4 7 25v583
h-128v-671q-1 -8 -5 -9q-10 -4 -32 -13q-15 -6 -14 4q2 26 3 51v646q-1 26 -2 45q0 9 4 10q4 3 13 -6q13 -13 31 -26h113q9 0 10 1l25 33q2 4 6 4t8 -4q31 -25 55 -50q7 -8 -9 -14q-24 -10 -27 -14q-3 -6 -3 -13v-568q0 -34 -18 -59zM574 85q-18 -25 -45 -35q-9 -2 -10 5
q-12 42 -78 57q-11 2 -10 12q1 9 14 8q86 -5 92 -2q7 4 7 25v587h-132v-667q-1 -8 -5 -9q-10 -4 -32 -13q-15 -6 -14 4q2 26 3 51v642q-1 26 -2 45q0 9 4 10q4 3 13 -6q13 -13 31 -26h117q9 0 10 1l25 33q2 4 6 4t8 -4q31 -25 55 -50q7 -8 -9 -14q-24 -10 -27 -14
q-3 -6 -3 -13v-572q0 -34 -18 -59zM154 560q9 6 16 -7q77 -110 65 -149q-10 -21 -26 -28q-19 -5 -23 -4q-5 2 -4 23q-1 93 -31 151q-4 10 3 14zM446 556q9 6 16 -7q70 -110 58 -146q-9 -21 -27 -27q-19 -6 -23 -3q-5 2 -4 23q2 92 -23 146q-4 10 3 14zM692 864q5 3 15 -1
q38 -16 62 -28q5 -3 5 -7q-2 -5 -6 -6q-15 -3 -19 -10q-4 -8 -5 -21v-424q1 -18 2 -45q1 -9 -6 -13q-44 -21 -47 -20q-4 3 -1 13q3 25 4 65v424q-1 30 -4 55q-4 14 0 18zM922 100q-25 -37 -50 -50q-8 -7 -12 -7q-3 1 -9 20q-10 29 -20 39q-10 13 -68 19q-16 2 -15 15
q1 14 17 13q91 -15 112 -5q14 6 15 28v676q-1 80 -4 129q-3 16 7 13q57 -20 76 -30q12 -8 -3 -15q-18 -8 -22 -17q-6 -19 -6 -80v-686q-2 -37 -18 -62z" />
  </g>

</svg>
