<?xml version="1.0" standalone="no"?>
<!DOCTYPE svg PUBLIC "-//W3C//DTD SVG 1.1//EN" "http://www.w3.org/Graphics/SVG/1.1/DTD/svg11.dtd" >
<svg xmlns="http://www.w3.org/2000/svg" xmlns:xlink="http://www.w3.org/1999/xlink" version="1.1" viewBox="0 -36 256 256">
  <g transform="matrix(1 0 0 -1 0 220)">
   <path fill="currentColor"
d="M214 134l-3 1l12 38h-35q-12 -24 -24 -43l-3 1q23 51 31 113l19 -11l-6 -5q-6 -24 -15 -48h33l7 8l13 -15q-11 -3 -29 -39zM101 127h18v36h-18v-36zM131 127h15v36h-15v-36zM226 11q-25 42 -26 95q-8 -66 -56 -98l-2 3q21 18 34.5 50t12.5 87l20 -9l-7 -8q4 -50 17 -76.5
t28 -31.5v-5q-15 -1 -21 -7zM118 243l21 -9l-8 -8v-24h19l13 11l14 -18h-46v-25h14l7 8l12 -10l-6 -5q0 -32 1 -47l-13 -5v9h-15v-17q19 -9 26 -16.5t2.5 -17.5t-9 1.5t-19.5 27.5q0 -53 1 -80l-14 -8q1 28 1 91q-20 -47 -49 -73l-3 2q33 43 47 90h-13v-6l-12 -6q1 16 1 34
t-1 36l12 -8h18v25h-13q-10 0 -19 -2l-10 9h42q0 25 -1 41zM56 203q14 18 22 40l15 -13l-7 -4q-16 -22 -25 -35q14 -35 13.5 -89.5t-8 -70.5t-22.5 -20q-3 12 -24 17v5q19 -3 29 -0.5t12 25.5t1 78q-19 -44 -52 -70l-1 5q28 31 49 86q-2 15 -5 25q-17 -20 -42 -34l-1 3
q21 17 38 40q-9 20 -30 39l2 3q23 -14 36 -30z" />
  </g>

</svg>
