<?xml version="1.0" standalone="no"?>
<!DOCTYPE svg PUBLIC "-//W3C//DTD SVG 1.1//EN" "http://www.w3.org/Graphics/SVG/1.1/DTD/svg11.dtd" >
<svg xmlns="http://www.w3.org/2000/svg" xmlns:xlink="http://www.w3.org/1999/xlink" version="1.1" viewBox="0 -36 256 256">
  <g transform="matrix(1 0 0 -1 0 220)">
   <path fill="currentColor"
d="M32 227l19 -8l-5 -6q-5 -14 -9 -26h21q0 37 -1 56l21 -10l-7 -8v-38h11l12 10l13 -17h-36v-47h24l12 11l13 -18h-38v-78q12 11 27 23l3 -3q-27 -31 -37 -44l-10 11q4 7 4 17v74h-12q-1 -72 -46 -109l-2 2q34 41 34 107h-7q-10 -1 -19 -3l-9 10h50v47h-23q-9 -19 -18 -32
l-3 2q15 35 18 77zM126 181.5q0 40.5 -1 61.5l16 -8h68l13 11l15 -18h-50v-30h20l13 11l14 -18h-47v-31h18l13 10l14 -17h-45v-31l39 1l9 10l13 -14l-8 -7q-6 -68 -10.5 -78.5t-10.5 -16t-21 -9.5q-6 15 -30 23v4q32 -7 40.5 -4t12.5 33t6 52l-87 -2v-5l-15 -4q1 36 1 76.5z
M131 92q-2 -28 -6 -37.5t-11 -11t-9 3t6.5 12t15.5 33.5h4zM189 103q14 -10 22.5 -19t1.5 -19.5t-10.5 5t-15.5 31.5zM140 198h34v30h-34v-30zM140 160h34v31h-34v-31zM140 121l34 1v31h-34v-32zM166 97q13 -12 18.5 -21t-1.5 -17.5t-9 6.5t-10 30zM145 92q13 -18 15 -27
t-5 -15.5t-7.5 9t-4.5 31.5z" />
  </g>

</svg>
