<?xml version="1.0" standalone="no"?>
<!DOCTYPE svg PUBLIC "-//W3C//DTD SVG 1.1//EN" "http://www.w3.org/Graphics/SVG/1.1/DTD/svg11.dtd" >
<svg xmlns="http://www.w3.org/2000/svg" xmlns:xlink="http://www.w3.org/1999/xlink" version="1.1" viewBox="0 -36 256 256">
  <g transform="matrix(1 0 0 -1 0 220)">
   <path fill="currentColor"
d="M127 180q0 41 -1 62l14 -9h69l11 12l16 -19h-49v-30h20l12 11l14 -18h-46v-30h18l12 11l14 -18h-44v-31l38 1l9 10l14 -14l-8 -7q-8 -68 -12.5 -78.5t-10 -16t-19.5 -9.5q-6 15 -30 23v4q32 -7 40 -4t12 33t6 52l-86 -2v-3l-14 -4q1 33 1 74zM136 91q-1 -27 -4 -37.5
t-10.5 -12t-9.5 2.5t6.5 12.5t14.5 33.5zM189 102q14 -10 22 -19t1.5 -19t-10 4.5t-15.5 31.5zM140 196h34v30h-34v-30zM140 159h34v30h-34v-30zM140 120l34 1v31h-34v-32zM166 96q13 -13 18.5 -21t-1.5 -17t-9 6t-10 30zM145 91q12 -18 14 -26.5t-4.5 -15.5t-7 8.5
t-4.5 31.5zM69 223q-24 -4 -59 -7v4q42 6 62 12t29 15l8 -19q-16 -1 -40 -5zM16 203q12 -10 19 -19.5t3.5 -17.5t-7 -8t-6 14t-11.5 27zM49 215q14 -12 19.5 -21t2.5 -18t-6.5 -9t-5 12t-12.5 33zM117 200q-9 -7 -15.5 -17t-21.5 -28l-3 2q7 12 14 27t11 31zM59 149
q-11 0 -30 -9v-41h10l9 10l11 -17h-30v-46h65v46q-9 0 -18 -2l-9 9h27v42h-1q-11 0 -20 -2l-9 9h31l7 9l12 -14l-7 -5v-82q0 -9 1 -26l-14 -8v17h-65v-14l-14 -6q1 25 1 68t-1 66l14 -8q13 11 20 22z" />
  </g>

</svg>
