<?xml version="1.0" standalone="no"?>
<!DOCTYPE svg PUBLIC "-//W3C//DTD SVG 1.1//EN" "http://www.w3.org/Graphics/SVG/1.1/DTD/svg11.dtd" >
<svg xmlns="http://www.w3.org/2000/svg" xmlns:xlink="http://www.w3.org/1999/xlink" version="1.1" viewBox="0 -205 1024 1024">
  <g transform="matrix(1 0 0 -1 0 819)">
   <path fill="currentColor"
d="M436 422h390l42 50l62 -58q3 -3 4 -8q0 -12 -14 -12h-214v-283h170l44 57l68 -63q3 -3 4 -10q1 -12 -10 -12h-534q-18 1 -66 -8l-18 36h290v283h-134q-22 0 -64 -8l-20 36v0v0zM436 878h324l38 38l64 -54q6 -3 6 -8q3 -10 -14 -14q-24 0 -48 -24l-46 -48l-74 -74
q62 -24 124 -50q62 -25 100 -50q36 -24 42 -54q6 -27 -6 -42q-11 -15 -28 -12q-15 3 -26 30q-9 23 -44 56q-36 30 -74 52q-37 21 -104 54q-117 -111 -260 -186l-8 16q126 83 210 170q84 84 150 174h-250q-24 1 -48 -10l-28 36v0v0zM358 942l60 -58q7 -6 8 -12q-2 -6 -16 -12
q-21 -3 -42 -26q-37 -76 -100 -202q47 -48 80 -96q30 -45 40 -84q10 -37 6 -62q-3 -23 -14 -46q-9 -21 -38 -48q-30 -27 -68 -44q-5 33 -28 48q-24 15 -72 30l2 18q39 -9 72 -12q32 -4 50 2q16 6 32 28q15 21 12 66q-3 44 -24 86t-78 112l92 244h-168v-702l4 -93
q1 -12 -22 -28q-21 -13 -36 -14l4 133v778l54 -48h156l34 42v0v0z" />
  </g>

</svg>
