<?xml version="1.0" standalone="no"?>
<!DOCTYPE svg PUBLIC "-//W3C//DTD SVG 1.1//EN" "http://www.w3.org/Graphics/SVG/1.1/DTD/svg11.dtd" >
<svg xmlns="http://www.w3.org/2000/svg" xmlns:xlink="http://www.w3.org/1999/xlink" version="1.1" viewBox="0 -36 256 256">
  <g transform="matrix(1 0 0 -1 0 220)">
   <path fill="currentColor"
d="M145.5 44.5q15.5 20.5 23 48.5t8.5 88l22 -12l-8 -6l-1 -17q3 -19 10 -45q21 24 29 44l14 -16q-11 -3 -41 -34q6 -21 20 -42.5t26 -26.5v-4q-10 0 -20 -10q-22 30 -30 58t-11 58q0 -20 -7.5 -45.5t-27.5 -46.5t-42 -29l-1 2q21 15 36.5 35.5zM157.5 93.5
q-6.5 -8.5 -14.5 -8t0.5 12t12.5 38.5h3q5 -34 -1.5 -42.5zM150 246l21 -10l-7 -5q-2 -16 -4 -31h56l16 13l15 -20h-88q-8 -57 -24 -98.5t-49 -72.5l-2 3q25 31 41 77.5t21 90.5h-12l-17 -2l-8 9h38q4 31 3 46zM32 62.5q-4 15.5 -16 36.5l2 2q16 -12 24 -22t1 -21t-11 4.5z
M90 168l15 -17h-38v-29h17l11 10l14 -17h-42v-51q10 14 24 45l15 -14l-9 -6q-12 -13 -30 -32v-11l32 9l1 -4q-49 -19 -75 -32l-11 17q16 2 40 8v71h-12q-11 0 -20 -3l-9 10h41v29h-23q-10 -13 -21 -22l-2 2q34 57 50 116l18 -12l-7 -4l-4 -11q19 -5 30.5 -11t8 -18.5
t-12.5 0t-28 25.5q-14 -35 -27 -58h42z" />
  </g>

</svg>
