<?xml version="1.0" standalone="no"?>
<!DOCTYPE svg PUBLIC "-//W3C//DTD SVG 1.1//EN" "http://www.w3.org/Graphics/SVG/1.1/DTD/svg11.dtd" >
<svg xmlns="http://www.w3.org/2000/svg" xmlns:xlink="http://www.w3.org/1999/xlink" version="1.1" viewBox="0 -246 2048 2048">
  <g transform="matrix(1 0 0 -1 0 1802)">
   <path fill="currentColor"
d="M733 1571q31 117 78 336q201 -34 201 -76q0 -29 -92 -53q-33 -139 -51 -207h751l117 152q85 -82 150 -162l-25 -41h-1008q-65 -220 -102 -332h721l86 96q129 -101 129 -133q0 -16 -27 -30l-61 -33q-215 -340 -471 -565q296 -180 784 -271q-67 -64 -100 -127
q-283 79 -443 145q-186 78 -325 183q-170 -128 -428 -231q-215 -85 -428 -127l-31 47q460 126 801 383q-170 151 -309 385l63 12q135 -200 324 -336q267 229 442 551h-746q-11 -33 -59 -158l-125 31q96 235 170 510h-534l-23 51h571zM1196 1809l9 47q131 -10 247 -57
q136 -54 136 -132q0 -30 -22 -49q-19 -16 -44 -16q-33 0 -73 43q-106 117 -253 164z" />
  </g>

</svg>
