<?xml version="1.0" standalone="no"?>
<!DOCTYPE svg PUBLIC "-//W3C//DTD SVG 1.1//EN" "http://www.w3.org/Graphics/SVG/1.1/DTD/svg11.dtd" >
<svg xmlns="http://www.w3.org/2000/svg" xmlns:xlink="http://www.w3.org/1999/xlink" version="1.1" viewBox="0 -36 256 256">
  <g transform="matrix(1 0 0 -1 0 220)">
   <path fill="currentColor"
d="M96 157l-14 -9v12h-13v-46h12l10 12l15 -19h-37v-61l33 11l1 -4q-35 -14 -72 -32l-10 -9l-12 17l15 5q0 79 -1 101l21 -14l-7 -7v-76l19 5v117h-23v-7l-14 -7q1 15 1 45t-1 48l15 -9h47l10 9l11 -15l-7 -5q0 -41 1 -62zM33 167h49v56h-49v-56zM204 116l-14 -5q1 22 1 51
t-1 48l19 -7l-6 -8v-55q0 -7 1 -24zM222 246l20 -9l-6 -9v-133q0 -22 -20 -26q-1 14 -25 19v4q16 -2 24 -2t8 13v117q0 1 -1 26zM132 163q11 -5 15 -10t-0.5 -13.5t-7.5 1.5t-9 18q-11 -16 -23 -26l-2 3q22 28 33 82h-2q-13 0 -22 -2l-9 9h58l13 11l14 -18h-38
q-4 -15 -8 -29h22l8 8l12 -13l-8 -5q-12 -82 -75 -111l-1 2q51 35 63 112h-24q-5 -13 -9 -19zM118 23.5q-4 -8.5 -9 -11.5t-10.5 2t4.5 14.5t15 33.5h4q0 -30 -4 -38.5zM161 34q2 -10 -4.5 -17.5t-7.5 7t-7 40.5l3 1q14 -21 16 -31zM198 37q4 -10 -3 -18.5t-8.5 7.5
t-10.5 36l2 3q16 -18 20 -28zM237.5 41.5q6.5 -10.5 0.5 -22t-10 5t-17 39.5l2 2q18 -14 24.5 -24.5z" />
  </g>

</svg>
