<?xml version="1.0" standalone="no"?>
<!DOCTYPE svg PUBLIC "-//W3C//DTD SVG 1.1//EN" "http://www.w3.org/Graphics/SVG/1.1/DTD/svg11.dtd" >
<svg xmlns="http://www.w3.org/2000/svg" xmlns:xlink="http://www.w3.org/1999/xlink" version="1.1" viewBox="0 -205 1024 1024">
  <g transform="matrix(1 0 0 -1 0 819)">
   <path fill="currentColor"
d="M440 822h202q20 68 34 152l78 -32l8 -8q0 -6 -6 -12q-27 -3 -36 -24q-6 -20 -24 -76h168l38 46q51 -52 58 -56q6 -6 4 -12q0 -4 -14 -4h-264q-16 -57 -38 -114h170l38 48l64 -56q3 -3 4 -8q0 -10 -12 -10h-272q-25 -67 -44 -110h282l38 54l58 -60q2 -4 2 -8
q1 -12 -10 -12h-382q-28 -60 -68 -126q-38 -64 -124 -140l-10 12q48 59 88 124q36 63 66 130h-42q-24 0 -72 -8l-14 34h138q18 35 42 110h-46q-22 0 -70 -8l-14 34h140l36 114h-118q-12 0 -60 -8l-16 34v0v0zM552 332q60 -34 84 -64q23 -30 20 -54q-3 -21 -14 -30
q-10 -9 -22 -6q-13 3 -16 16q-4 11 -8 32q-3 21 -12 40q-10 18 -44 58l12 8v0v0zM514 380h262v122l72 -28q10 0 8 -14q0 1 -32 -18v-62h64l34 50l58 -58q3 -4 4 -10q0 -10 -12 -10h-148v-257q-3 -33 -30 -48q-24 -17 -56 -22q-4 36 -34 50q-27 13 -72 28l2 16
q96 -22 118 -18q24 6 24 20v231h-182q-21 -1 -60 -10l-20 38v0v0zM146 926l58 -46h146l32 42l52 -40q9 -6 10 -12q0 -3 -30 -24v-136l4 -74q0 -12 -18 -24q-18 -9 -38 -8v28h-56v-166h54l30 38l60 -54q2 -1 2 -4q1 -9 -4 -8h-142v-236l138 40l4 -18q-279 -100 -312 -117
q-30 -18 -50 -42l-44 68l82 21v378q76 -30 80 -36q3 -3 0 -8t-30 -16v-306l82 26v440h-60v-16q1 -15 -22 -24q-21 -9 -32 -8l4 106v236v0v0zM196 660h166v192h-166v-192v0v0z" />
  </g>

</svg>
