<?xml version="1.0" standalone="no"?>
<!DOCTYPE svg PUBLIC "-//W3C//DTD SVG 1.1//EN" "http://www.w3.org/Graphics/SVG/1.1/DTD/svg11.dtd" >
<svg xmlns="http://www.w3.org/2000/svg" xmlns:xlink="http://www.w3.org/1999/xlink" version="1.1" viewBox="0 -52 256 256">
  <g transform="matrix(1 0 0 -1 0 204)">
   <path fill="currentColor"
d="M81 88l8 -6h109l9 10l11 -11q2 -1 2 -2t-3 -2l-5 -2v-49h10l7 8l17 -11q4 -2 -1 -2h-174q-6 0 -11 -4l-9 9h31v51q0 5 -4 9zM84 253l22 -8l1 -1q2 0 1 -1q-5 -3 -8 -6v-15h57v17q1 4 -8 10l3 3l22 -8q3 -1 1 -3q-5 -2 -7 -5v-14h53l8 10l17 -13q4 -2 -1 -2h-77v-7v-9
q0 -5 -3 -8q-4 -1 -10 -3q1 3 1 11q1 8 1 12v4h-57v-10l1 -10q0 -5 -4 -7q-3 -3 -10 -4q1 3 1 11q1 7 1 11v9h-56q-6 0 -11 -4l-9 9h76v18q0 4 -7 10zM92 77v-51h31v51h-31zM202 77h-31v-51h31v51zM132 77v-51h30v51h-30zM77 160l3 -2l-16 -44q-4 -11 -3 -7q-12 -31 -14 -35
q-3 -9 0 -30t-6 -21t-6 19q3 18 0 23q-4 3 -18 6v4q2 0 5 -1q13 -1 13 0q3 0 11 17q2 4 6 14q15 31 25 57zM156 112l-3 1q17 28 23 55q4 15 4 18l-3 6l2 1l20 -8q0 -3 -2 -3q-4 -1 -8 -5l-3 -9q-2 -7 -3 -10h31l7 9l16 -11q2 -1 2 -2q-1 -1 -3 -1h-55q-11 -27 -25 -41z
M128 191l21 -9q4 0 1 -2q-5 -2 -7 -5v-63v-13q1 -7 -12 -10q2 9 2 34v54q1 4 -8 11zM91 175l21 -8q2 -1 3 -2l-1 -1q-6 -1 -8 -4v-37v-12q1 -8 -11 -10v9q1 11 1 18v34q1 4 -7 10zM187 145l3 3q13 -11 19 -23q5 -6 5 -11q2 -6 -1 -10q-1 -5 -6 -4t-4 8t-2 13q-5 13 -14 24z
M11 153l1 3q12 -3 20 -8q7 -4 10 -10q3 -5 2 -11q0 -5 -5 -5q-4 0 -5 5q0 6 -5 12q-4 6 -18 14zM34 194l1 3l15 -5q3 -2 4 -2q3 -2 7 -7l3 -3q3 -6 3 -12q-1 -5 -6 -5q-4 0 -5 5q0 6 -5 12q-4 6 -17 14z" />
  </g>

</svg>
