<?xml version="1.0" standalone="no"?>
<!DOCTYPE svg PUBLIC "-//W3C//DTD SVG 1.1//EN" "http://www.w3.org/Graphics/SVG/1.1/DTD/svg11.dtd" >
<svg xmlns="http://www.w3.org/2000/svg" xmlns:xlink="http://www.w3.org/1999/xlink" version="1.1" viewBox="0 -154 1024 1024">
  <g transform="matrix(1 0 0 -1 0 870)">
   <path fill="currentColor"
d="M167 906h15q0 -22 -1 -41h718l27 28l52 -48q8 -9 -7 -10q-19 1 -33 -9q-10 -8 -24 -21q-18 -18 -46 -48l-13 6l47 82h-723q-5 -49 -35 -88q-20 -21 -37 -23q-18 -3 -25 13q-9 15 12 27t43 52q21 39 30 80zM416 993l4 11q60 -11 89 -27q30 -16 39 -34t4 -36
q-6 -19 -21 -19q-17 0 -20 23q-5 22 -26 45q-22 21 -69 37zM176 758l91 -36q14 -5 6 -11q-21 -8 -30 -21v-562l3 -71q-2 -39 -56 -46q5 39 7 159v530q2 16 -30 46zM127 563q-1 -34 -1 -76q0 -64 -25 -95q-26 -32 -47 -10q-12 15 6 37t30 47t20 97h17zM258 586l6 11
q95 -40 114 -86q18 -54 -21 -57q-16 2 -22 26q-5 25 -20 50t-57 56zM446 339l40 -51h327l37 46l52 -53q14 -12 -6 -17l-17 -8v-128l4 -69q-1 -17 -12 -23q-10 -5 -36 -11v71h-341v-30q0 -20 -13 -30q-13 -8 -37 -14q5 38 6 113v135q-1 30 -21 58zM835 270h-341v-156h341v156
zM342 632h528l40 52l80 -59q18 -14 -13 -11h-560q-25 -1 -45 -13zM424 518h355l39 48l71 -53q16 -13 -11 -13h-378q-25 0 -43 -14zM430 403h353l39 48l71 -53q16 -12 -11 -13h-377q-25 0 -43 -13zM561 760l6 13q52 -21 81 -39q28 -21 43 -42q13 -21 9 -37q-9 -20 -24 -20
q-17 -2 -24 25q-5 24 -24 46q-18 23 -67 54z" />
  </g>

</svg>
