<?xml version="1.0" standalone="no"?>
<!DOCTYPE svg PUBLIC "-//W3C//DTD SVG 1.1//EN" "http://www.w3.org/Graphics/SVG/1.1/DTD/svg11.dtd" >
<svg xmlns="http://www.w3.org/2000/svg" xmlns:xlink="http://www.w3.org/1999/xlink" version="1.1" viewBox="0 -36 256 256">
  <g transform="matrix(1 0 0 -1 0 220)">
   <path fill="currentColor"
d="M58 178h44l7 9l13 -13l-7 -6v-85q0 -15 1 -57l-13 -8v13h-70v-11l-13 -7q1 44 1 92.5t-1 81.5l13 -9h20q8 26 10 35h-24q-10 0 -19 -2l-10 9h94l12 13l15 -20h-51q-5 -2 -22 -35zM33 38h14v133h-14v-133zM87 38h16v133h-16v-133zM60 133h15v38h-15v-38zM60 87h15v39h-15
v-39zM60 38h15v42h-15v-42zM217 131q-25 -27 -39 -42l-4 3q16 21 28 42h-38q-10 -1 -19 -3l-9 10h69l7 8l14 -14zM154 202q13 28 17 45l18 -11l-6 -3q14 -28 30.5 -46t34.5 -24v-4q-11 2 -19 -8q-13 12 -26 31t-23 47q-8 -21 -22.5 -44t-38.5 -43l-2 3q24 29 37 57zM149 31
h59v51h-59v-51zM137 54q0 20 -1 42l14 -7h58l7 9l13 -11l-7 -6q0 -40 1 -63l-14 -5v11h-59v-10l-13 -5q1 25 1 45zM184 172l10 10l13 -17h-40q-11 0 -12 -2l-4 9h33z" />
  </g>

</svg>
