<?xml version="1.0" standalone="no"?>
<!DOCTYPE svg PUBLIC "-//W3C//DTD SVG 1.1//EN" "http://www.w3.org/Graphics/SVG/1.1/DTD/svg11.dtd" >
<svg xmlns="http://www.w3.org/2000/svg" xmlns:xlink="http://www.w3.org/1999/xlink" version="1.1" viewBox="0 -205 1024 1024">
  <g transform="matrix(1 0 0 -1 0 819)">
   <path fill="currentColor"
d="M822 972l56 -44q6 -4 6 -8q1 -6 -34 -30v-116l4 -72q-1 -13 -10 -20q-9 -6 -44 -12v30h-52v-92h84l32 32l60 -46q3 -3 4 -6q0 -9 -12 -8h-168v-104h132l38 44l54 -54q3 0 4 -8q1 -7 -10 -8h-216q26 -39 64 -74q39 -36 78 -60q40 -24 98 -30v-18q-43 1 -58 -6
q-16 -8 -34 -22q-60 42 -102 94q-43 50 -76 116h-214q-33 -66 -98 -134q-63 -66 -162 -116l-8 12q82 60 134 120q51 60 78 118h-114q-21 -1 -56 -10l-18 36h214v104h-84q-22 -1 -58 -10l-18 38h160v92h-52v-8q0 -15 -18 -26q-18 -10 -36 -10l4 92v224l50 -38h360l38 38v0v0z
M524 476h176v104h-176v-104v0v0zM524 608h176v92h-176v-92v0v0zM424 728h376v76h-376v-76v0v0zM424 830h376v76h-376v-76v0v0zM428 326q48 -16 70 -28q20 -13 26 -28q6 -16 -2 -28q-10 -13 -22 -10q-13 3 -28 30q-12 27 -48 54l4 10v0v0zM594 418l70 -24q12 -3 12 -8
q1 -4 -34 -22v-136q92 75 110 106l54 -38q3 -5 -2 -10q-20 0 -46 -14q-25 -15 -92 -54q87 -22 124 -38q33 -15 54 -32q20 -14 22 -37q1 -21 -16 -30q-16 -9 -28 6q-13 12 -26 30q-12 16 -38 33q-25 19 -92 50l-24 10v-121q1 -56 -64 -68q-3 32 -32 42q-28 9 -64 18l4 16
q52 -9 80 -12q27 -3 28 26v101q-177 -81 -192 -123l-46 50l238 99v180v0v0zM334 934q12 -8 -2 -16q-27 -2 -42 -34q-51 -94 -108 -200l50 -22q12 -6 -2 -18l-18 -8v-490l4 -93q1 -17 -22 -32q-21 -13 -36 -12l4 131v504q-72 -112 -122 -160l-12 8q48 68 130 236
q81 168 102 246l74 -40v0v0z" />
  </g>

</svg>
