<?xml version="1.0" standalone="no"?>
<!DOCTYPE svg PUBLIC "-//W3C//DTD SVG 1.1//EN" "http://www.w3.org/Graphics/SVG/1.1/DTD/svg11.dtd" >
<svg xmlns="http://www.w3.org/2000/svg" xmlns:xlink="http://www.w3.org/1999/xlink" version="1.1" viewBox="0 -150 1000 1000">
  <g transform="matrix(1 0 0 -1 0 850)">
   <path fill="currentColor"
d="M263 221q-24 -11 -61 -29q-70 -33 -76 -37q-23 -14 -46 -41l-50 55l342 124l6 -16zM723 812l78 -35q8 -2 10 -6q2 -2 -4 -4q-21 -8 -30 -21v-409l2 -56q2 -34 -42 -43q5 36 7 145v373q2 15 -29 45zM881 902q-1 23 -26 45l8 11l80 -37q10 -2 11.5 -5.5t-4.5 -8.5
q-17 -5 -30 -15v-759q-1 -29 -15 -51q-12 -22 -79 -38q-3 32 -20 40q-23 9 -71 20l4 18l32 -8q113 -33 110 45v743zM378 716q5 -4 5 -7.5t-5 -5.5q-24 3 -34 -13q-46 -72 -226 -281l210 31l2 -17q-42 -10 -91 -24q-22 -5 -33 -8q-25 -5 -63 -17q-7 -2 -10 -3q-26 -8 -42 -31
l-41 64q18 5 47 17q4 5 12 16q74 90 118 155q7 9 21 29l6 9q-9 -1 -26 -4q-37 -7 -48 -8q-92 -10 -108 -44l-41 60q27 11 37 18q10 9 28 36q9 12 39 55q15 24 24 36q41 62 73 134q-3 22 -12 32l8 8l79 -51q6 -4 6 -6q0 -4 -6 -6q-21 2 -38 -8q-82 -135 -170 -238l170 10
q31 48 39 76q-1 18 -12 27l10 10zM690 640q-10 -1 -15.5 -6.5t-11 -45.5t-28.5 -129q-64 -283 -310 -415l-8 12q142 105 211 237q74 140 106 352h-144q-4 -13 -11 -39l-6 -15q-8 -23 -26 -64q-1 -3 -2 -4q5 -2 15 -8q51 -32 57 -39q27 -25 33 -61q4 -34 -20 -34
q-17 2 -19 23q-3 28 -15 43q-13 17 -58 61q-38 -82 -97 -153l-11 8q65 111 106 236q41 118 55 257h-54q-25 1 -44 -12l-33 32h271l31 39l66 -49q8 -5 6.5 -7.5t-11.5 -2.5h-189q-11 -91 -38 -191h123l28 30l46 -44q5 -4 4 -6q0 -4 -7 -5z" />
  </g>

</svg>
