<?xml version="1.0" standalone="no"?>
<!DOCTYPE svg PUBLIC "-//W3C//DTD SVG 1.1//EN" "http://www.w3.org/Graphics/SVG/1.1/DTD/svg11.dtd" >
<svg xmlns="http://www.w3.org/2000/svg" xmlns:xlink="http://www.w3.org/1999/xlink" version="1.1" viewBox="0 -205 1024 1024">
  <g transform="matrix(1 0 0 -1 0 819)">
   <path fill="currentColor"
d="M470 776h298l36 46l56 -54q3 -4 4 -10q1 -7 -16 -8h-140q-34 -43 -76 -88q60 -64 82 -118q39 45 90 114l52 -44q7 -9 -4 -14q-24 0 -48 -14q-23 -16 -82 -64l8 -30q77 -49 104 -76q26 -27 34 -56q8 -27 -4 -44q-11 -18 -28 -14q-17 3 -22 34q-4 30 -22 66q-19 33 -58 64
q12 -108 6 -162q-6 -52 -30 -82q-24 -31 -72 -52q-10 34 -34 44q-24 9 -72 24l4 18q53 -9 80 -12q24 -2 42 6q15 5 22 26q6 21 12 60q4 39 0 102q-51 -52 -104 -94q-53 -43 -124 -86l-6 14q63 57 108 96q44 39 118 120q0 35 -18 68q-72 -65 -194 -148l-8 12q95 80 182 176
l-32 50q-72 -65 -138 -106l-10 12q56 48 104 100q47 50 80 98h-92q-33 1 -60 -10l-28 36v0v0zM388 946l60 -38h430l30 44l64 -46q6 -6 6 -8q-1 -7 -34 -34v-684l4 -101q-1 -12 -16 -24q-12 -9 -36 -12v72h-460v-44q0 -11 -18 -22q-16 -12 -34 -12l4 125v784v0v0zM436 141
h460v741h-460v-741v0v0zM20 758h170v228l66 -30q22 -8 12 -22l-28 -14v-162h46l30 40l50 -48q3 -3 4 -8q0 -12 -14 -12h-116v-96q59 -37 88 -64q29 -24 34 -48q4 -21 -4 -38q-6 -16 -26 -16q-19 -1 -22 22q-4 24 -22 54q-15 30 -48 66v-432l4 -107q0 -14 -20 -26
q-18 -12 -38 -12l4 147v368q-27 -84 -72 -164q-44 -81 -94 -138l-10 10q38 65 68 128q27 62 58 152q30 89 48 194h-102q-6 0 -48 -8l-18 36v0v0z" />
  </g>

</svg>
