<?xml version="1.0" standalone="no"?>
<!DOCTYPE svg PUBLIC "-//W3C//DTD SVG 1.1//EN" "http://www.w3.org/Graphics/SVG/1.1/DTD/svg11.dtd" >
<svg xmlns="http://www.w3.org/2000/svg" xmlns:xlink="http://www.w3.org/1999/xlink" version="1.1" viewBox="0 -205 1024 1024">
  <g transform="matrix(1 0 0 -1 0 819)">
   <path fill="currentColor"
d="M582 948l56 -38h188l28 40l56 -38q12 -6 12 -14q0 -5 -30 -22v-208l4 -50q0 -11 -18 -22q-19 -12 -34 -12v46h-78v-144h124l38 52l60 -60q3 -3 4 -8q0 -12 -14 -12h-164q19 -78 50 -140q29 -63 62 -96t72 -44v-16h-42q-18 -1 -48 -23q-36 47 -60 105q-25 58 -34 98
t-24 116h-24v-304l4 -75q0 -16 -20 -30q-21 -15 -36 -16l4 125v300h-14q-36 -102 -86 -188q-50 -84 -118 -151l-12 12q57 79 102 173q44 93 62 154h-84q-6 0 -44 -8l-16 36h210v144h-86v-30q0 -9 -20 -20q-19 -9 -34 -12l4 118v262v0v0zM632 658h212v224h-212v-224v0v0z
M554 932l6 -10q0 -8 -6 -10q-19 -3 -34 -24q-33 -56 -54 -106v-604l4 -101q1 -14 -18 -32q-20 -18 -40 -22l4 135v540q-43 -76 -106 -142l-12 8q104 164 194 404l62 -36v0v0zM40 752h146v232l84 -32q9 -5 4 -10q-4 -5 -40 -22v-168h46l34 38l52 -50q8 -14 -10 -16h-122v-234
l112 64l10 -20l-122 -82v-319q3 -36 -14 -60q-18 -23 -62 -38q-4 34 -34 50q-30 15 -74 30l4 18q88 -24 110 -18q21 6 22 32v271q-43 -30 -62 -48q-18 -18 -30 -44l-52 54l144 88v256h-70q-34 -1 -52 -10l-24 38v0v0z" />
  </g>

</svg>
