<?xml version="1.0" standalone="no"?>
<!DOCTYPE svg PUBLIC "-//W3C//DTD SVG 1.1//EN" "http://www.w3.org/Graphics/SVG/1.1/DTD/svg11.dtd" >
<svg xmlns="http://www.w3.org/2000/svg" xmlns:xlink="http://www.w3.org/1999/xlink" version="1.1" viewBox="0 -205 1024 1024">
  <g transform="matrix(1 0 0 -1 0 819)">
   <path fill="currentColor"
d="M176 952l10 12q81 -41 102 -64q21 -21 28 -44q4 -21 -6 -38q-12 -19 -30 -16q-18 0 -24 28q-5 27 -16 48q-11 20 -64 74v0v0zM648 746l56 -38q12 -6 12 -14q-1 -6 -28 -24v-118l4 -66q2 -15 -16 -30q-19 -12 -40 -14v24h-254v-246l154 92l10 -16q-82 -61 -122 -94
q-40 -34 -68 -71l-56 49l32 26v544l54 -42h232l30 38v0v0zM382 682v-80h254v80h-254v0v0zM382 574v-80h254v80h-254v0v0zM436 844q66 -21 90 -48q26 -25 20 -50q-7 -25 -28 -26q-21 0 -26 18q-3 18 -14 40q-9 20 -50 56l8 10v0v0zM438 390l6 16q87 -24 148 -54
q81 57 132 102l50 -44q3 -12 -2 -12q-7 -2 -20 0q-12 2 -44 -10q-33 -11 -90 -46q76 -36 110 -62q33 -27 42 -50t0 -40q-6 -16 -24 -16q-17 0 -28 24q-12 21 -42 52q-31 29 -80 62q-49 30 -158 78v0v0zM118 856l80 -44q8 -3 8 -6q1 -4 -4 -10l-30 -18v-596l4 -103
q0 -15 -24 -30q-24 -10 -38 -12l4 139v680v0v0zM870 942l64 -48q8 -3 8 -12q0 -6 -12 -12l-22 -16v-715q3 -38 -18 -64q-21 -25 -60 -42q-13 25 -32 40q-17 13 -94 40l6 18q79 -17 104 -20q23 0 32 8t10 31v724h-410q-18 0 -56 -8l-22 34h470l32 42v0v0z" />
  </g>

</svg>
