<?xml version="1.0" standalone="no"?>
<!DOCTYPE svg PUBLIC "-//W3C//DTD SVG 1.1//EN" "http://www.w3.org/Graphics/SVG/1.1/DTD/svg11.dtd" >
<svg xmlns="http://www.w3.org/2000/svg" xmlns:xlink="http://www.w3.org/1999/xlink" version="1.1" viewBox="0 -36 256 256">
  <g transform="matrix(1 0 0 -1 0 220)">
   <path fill="currentColor"
d="M91 139h40v29h-40v-29zM91 104h40v28h-40v-28zM86.5 53q-5.5 -10 -21.5 -31l-3 3q10 16 16 32t8 26l13 -16q-7 -4 -12.5 -14zM144 52q4 -10 -1 -18.5t-7 4.5t-16 40l1 4q19 -20 23 -30zM94 206.5q-3 -6.5 -19 -31.5l-3 4q12 23 15 47l15 -11q-5 -2 -8 -8.5zM147 205
q4 -7 0 -17.5t-6.5 0.5t-16.5 36l2 2q17 -14 21 -21zM190 182l18 -9l-6 -7v-9l9 2l7 10l5 -4l9 17h-63q0 -31 -1.5 -85.5t-26.5 -87.5l-3 2q17 36 18 91t0 95l14 -8h22q0 42 -1 57l20 -8l-7 -7v-14h22l8 9l12 -16h-42v-21h26l8 9l11 -14q-5 -2 -10.5 -7t-12.5 -14l7 -6
l-31 -7v-18q0 -8 7 -8h9q6 0 7.5 5.5t2.5 22.5h3q1 -14 2.5 -18.5t7.5 -8.5q-7 -10 -11.5 -10.5t-11.5 -0.5h-14q-13 0 -13 17v17l-8 -2l-7 -5l-7 9l22 5q0 15 -1 27zM227 30h2q4 1 5 10.5t2 30.5h3q0 -15 1.5 -25t7.5 -14q-5 -11 -8.5 -12t-9.5 -1h-4q-17 0 -16 17v53h-19
q-1 -34 -8.5 -50.5t-23.5 -28.5l-3 3q15 16 19.5 37t2.5 56l13 -10h21l7 8l8 -11l-5 -6v-44q0 -13 5 -13zM26 205v-128h28v128h-28zM14 72v105q0 20 -1 45l14 -10h24l9 11l12 -13l-6 -6v-110q0 -20 1 -37l-13 -9v22h-28v-25l-13 -7q1 17 1 34zM105 181q0 46 -1 63l19 -10
l-7 -7v-42zM131 175l7 9l11 -12l-7 -6q0 -52 1 -68l-12 -7v6h-15v-67q0 -15 -15 -23q-1 12 -17 20v4l15 -3t5 10v59h-13v-4l-12 -5q1 20 1 46.5t-1 48.5l11 -8h41z" />
  </g>

</svg>
