<?xml version="1.0" standalone="no"?>
<!DOCTYPE svg PUBLIC "-//W3C//DTD SVG 1.1//EN" "http://www.w3.org/Graphics/SVG/1.1/DTD/svg11.dtd" >
<svg xmlns="http://www.w3.org/2000/svg" xmlns:xlink="http://www.w3.org/1999/xlink" version="1.1" viewBox="0 -205 1024 1024">
  <g transform="matrix(1 0 0 -1 0 819)">
   <path fill="currentColor"
d="M334 988l88 -28q9 -7 -2 -16l-34 -10v-62h240v118l86 -28q7 -6 2 -14l-36 -12v-64h206l40 50l64 -60q3 -3 4 -8q-1 -7 -16 -8h-298v-46q-3 -14 -20 -22q-16 -8 -32 -10v78h-240v-42q0 -15 -18 -24q-16 -7 -34 -8v74h-214q-21 0 -68 -8l-20 34h302v116v0v0zM356 648
q-21 38 -44 110l82 -8q12 -8 0 -16l-16 -14q9 -33 30 -66l398 38l32 54q71 -51 74 -54q3 -4 0 -10q-1 -3 -26 -6l-460 -46q21 -39 72 -74q110 38 172 80q69 -26 72 -34q2 -8 -4 -10q-7 0 -26 -2q-18 -3 -54 -18q-34 -14 -118 -46q46 -21 92 -30t104 -12q56 -1 70 8
q14 7 22 32q6 25 16 98h20q-4 -102 8 -120q9 -15 22 -24t2 -18q-12 -10 -48 -16t-96 -6q-61 1 -128 14q-67 12 -140 54q-102 -39 -198 -60q-95 -22 -226 -38l-4 18q135 29 220 52q81 23 168 58q-39 39 -72 88l-264 -28q-25 -7 -46 -16l-24 36l318 32v0v0zM522 774l6 14
q51 -12 78 -24q26 -11 38 -28q12 -16 4 -34q-6 -18 -26 -20q-18 0 -24 18q-7 17 -20 34q-12 15 -56 40v0v0zM390 314q-28 62 -46 122l82 -8q12 -8 0 -16l-18 -14q9 -33 30 -78l388 36l32 54q71 -51 74 -54q3 -4 0 -10q-1 -3 -26 -6l-452 -44q33 -52 78 -92q106 48 164 100
q65 -36 68 -44q2 -8 -4 -10q-7 0 -26 -2q-19 -3 -50 -20q-30 -16 -114 -56q40 -30 86 -45t116 -28q70 -10 86 -2q15 8 22 43q6 37 12 104h20q0 -123 12 -141q9 -15 22 -24t2 -18q-12 -9 -48 -16q-37 -5 -110 2q-73 9 -140 32q-67 24 -136 73q-105 -41 -204 -63
q-99 -21 -242 -42l-4 18q148 34 236 58q86 23 182 61q-39 39 -78 106l-290 -28q-25 -7 -46 -16l-24 36l346 32v0v0zM480 438l6 14q50 -15 76 -26t38 -28q12 -16 4 -34q-6 -18 -26 -20q-18 0 -24 18q-7 17 -20 34q-12 15 -54 42v0v0z" />
  </g>

</svg>
