<?xml version="1.0" standalone="no"?>
<!DOCTYPE svg PUBLIC "-//W3C//DTD SVG 1.1//EN" "http://www.w3.org/Graphics/SVG/1.1/DTD/svg11.dtd" >
<svg xmlns="http://www.w3.org/2000/svg" xmlns:xlink="http://www.w3.org/1999/xlink" version="1.1" viewBox="0 -36 256 256">
  <g transform="matrix(1 0 0 -1 0 220)">
   <path fill="currentColor"
d="M75 220q26 -10 37 -17t8 -20t-12.5 1.5t-34.5 31.5q-24 -43 -62 -75l-3 3q24 26 42 59.5t18 43.5l20 -13q-4 -1 -13 -14zM109 116q0 -22 1 -36l-14 -8v7h-50v-47l40 19q-4 8 -13 23l3 2q22 -18 28.5 -28t0 -19.5t-10 0t-6.5 18.5q-45 -31 -48 -39l-11 16q4 6 4 13v78
q0 25 -1 42l15 -8h49l6 11l15 -16l-8 -6v-22zM46 118h50v24h-50v-24zM46 86h50v25h-50v-25zM147 191h58v29h-58v-29zM147 157h58v27h-58v-27zM147 122h58v28h-58v-28zM147 85h58v30h-58v-30zM133 236l14 -9h57l8 10l14 -13l-8 -7v-132h4l11 13l15 -20h-109q-10 0 -19 -3
l-9 10h23v107q0 34 -1 44zM166 55l-9 -3q-25 -31 -50 -44l-2 3q30 25 46 60zM226 42.5q11 -9.5 7 -23.5t-8.5 -4t-14.5 23t-24 25l2 4q27 -15 38 -24.5zM81 177l12 11l13 -18h-43q-11 -1 -13 -3l-4 10h35z" />
  </g>

</svg>
