<?xml version="1.0" standalone="no"?>
<!DOCTYPE svg PUBLIC "-//W3C//DTD SVG 1.1//EN" "http://www.w3.org/Graphics/SVG/1.1/DTD/svg11.dtd" >
<svg xmlns="http://www.w3.org/2000/svg" xmlns:xlink="http://www.w3.org/1999/xlink" version="1.1" viewBox="0 -36 256 256">
  <g transform="matrix(1 0 0 -1 0 220)">
   <path fill="currentColor"
d="M171 229h6q13 -49 70 -63v-4q-16 0 -21 -11q-47 27 -55 78zM70 146l-2 3q31 24 55 78l19 -11l-8 -5q-31 -47 -64 -65zM116 71h69l8 41h-64zM189 158l12 8l16 -15h-75l-11 -32h61l9 11l14 -14l-7 -7l-17 -80h23l15 13l17 -20h-148q-10 0 -19 -2l-9 9h106l8 35h-70l-6 -8
l-13 13q5 3 8.5 9.5t22.5 72.5h-5q-10 0 -19 -2l-9 9h96zM50 64v98q-21 -27 -38 -42l-2 3q13 16 22.5 31t24.5 43t22 48l18 -15q-4 -2 -14 -16t-23 -37l12 -8l-8 -7v-146l-15 -7q1 27 1 55zM136 234h31l6 8l12 -9l-7 -6h-25l-8 -2z" />
  </g>

</svg>
