<?xml version="1.0" standalone="no"?>
<!DOCTYPE svg PUBLIC "-//W3C//DTD SVG 1.1//EN" "http://www.w3.org/Graphics/SVG/1.1/DTD/svg11.dtd" >
<svg xmlns="http://www.w3.org/2000/svg" xmlns:xlink="http://www.w3.org/1999/xlink" version="1.1" viewBox="0 -36 256 256">
  <g transform="matrix(1 0 0 -1 0 220)">
   <path fill="currentColor"
d="M148 232l-9 -3q-14 -16 -29 -30q19 -9 26 -16.5t6 -14.5t-4.5 -9.5t-9 8.5t-28.5 32q21 23 29 45zM80 231l-10 -5q-13 -15 -29 -29q17 -9 25 -16t4.5 -15t-6.5 -8t-8.5 10.5t-24.5 28.5q18 20 30 46zM219 230l-7 -4q-18 -16 -31 -27q25 -14 30.5 -23t-0.5 -16.5t-11.5 5
t-27.5 35.5q22 25 29 43zM78 114l9 10l17 -12l-8 -5q-30 -61 -85 -87l-2 3q49 34 70 84h-22q-13 0 -22 -3l-10 10h53zM109.5 31.5q11.5 -0.5 11.5 8.5v88q0 19 -1 32l24 -11l-8 -7v-10q12 -22 29 -42q23 21 36 40l18 -16q-9 -2 -18.5 -7t-32.5 -21q36 -40 78 -46v-4
q-19 -1 -24 -12q-60 31 -86 97v-88q0 -19 -23 -26q-1 16 -34 22v5q19 -2 30.5 -2.5z" />
  </g>

</svg>
