<?xml version="1.0" standalone="no"?>
<!DOCTYPE svg PUBLIC "-//W3C//DTD SVG 1.1//EN" "http://www.w3.org/Graphics/SVG/1.1/DTD/svg11.dtd" >
<svg xmlns="http://www.w3.org/2000/svg" xmlns:xlink="http://www.w3.org/1999/xlink" version="1.1" viewBox="0 -205 1024 1024">
  <g transform="matrix(1 0 0 -1 0 819)">
   <path fill="currentColor"
d="M40 870h390l38 48l56 -56q3 -3 4 -8q0 -12 -12 -12h-210l-58 -166h150l28 38l60 -40q7 -6 8 -12q0 -6 -32 -26v-484q3 -37 -12 -61t-56 -42q-10 33 -32 48t-68 30l4 15q72 -10 96 -11q22 0 20 25v492h-66v-348l4 -70q1 -13 -18 -28q-18 -13 -38 -14l4 110v352h-58v-382
l4 -66q0 -14 -20 -28q-21 -16 -36 -16l4 114v378h-66v-462l4 -85q0 -13 -20 -26q-21 -12 -36 -12l4 121v532l58 -42h82l24 166h-120q-22 0 -70 -8l-14 36v0v0zM560 904l60 -44h40q21 57 40 118l66 -28q10 -8 0 -16q-24 -6 -36 -20q-12 -15 -42 -54h142l24 36l64 -40
q6 -4 6 -8q0 -7 -30 -28v-142l4 -70q-1 -15 -16 -24q-13 -9 -40 -12v32h-232v-84h274l38 48l58 -60q6 -15 -8 -14h-362v-80h262l34 36l60 -42q3 -8 -2 -16l-30 -18q0 -75 -6 -146q-4 -73 -10 -113q-7 -40 -32 -62q-24 -19 -60 -32q-17 40 -46 52q-27 13 -84 32l6 18
q72 -16 102 -20q30 -2 46 4q15 6 18 30q3 22 6 67q3 43 10 182h-274v-22q-3 -12 -18 -18q-12 -3 -36 -6l4 102v462v0v0zM610 632h232v82h-232v-82v0v0zM610 744h232v88h-232v-88v0v0zM554 320h20q3 -49 0 -94t-18 -66q-13 -21 -34 -25q-19 -2 -28 5q-10 9 -8 24q0 12 18 24
q15 11 28 40q12 26 22 92v0v0zM602 306l12 8q33 -43 46 -64q9 -20 10 -40q0 -18 -12 -32q-11 -13 -28 -8q-15 5 -12 32q3 24 -2 48q-3 23 -14 56v0v0zM758 346l12 8q51 -40 70 -62q15 -22 18 -44q1 -20 -10 -34q-11 -12 -28 -6q-18 6 -18 30t-8 48q-9 24 -36 60v0v0z
M682 332l12 8q44 -39 58 -62q14 -21 14 -42q0 -18 -12 -32q-11 -13 -28 -8q-16 6 -14 36t-4 48t-26 52v0v0z" />
  </g>

</svg>
