<?xml version="1.0" standalone="no"?>
<!DOCTYPE svg PUBLIC "-//W3C//DTD SVG 1.1//EN" "http://www.w3.org/Graphics/SVG/1.1/DTD/svg11.dtd" >
<svg xmlns="http://www.w3.org/2000/svg" xmlns:xlink="http://www.w3.org/1999/xlink" version="1.1" viewBox="0 -36 256 256">
  <g transform="matrix(1 0 0 -1 0 220)">
   <path fill="currentColor"
d="M72 221l9 12l15 -17h-34q-6 -39 -13 -64h24l6 10l13 -12l-6 -8q0 -82 1 -102l-13 -8v19h-25v-26l-13 -7q1 38 1 100q-7 -24 -24 -48l-3 2q29 61 39 142h-2q-10 0 -19 -3l-9 10h53zM49 58h25v87h-25v-87zM122 215q-10 0 -19 -2l-9 9h70q-2 4 -4 9t-9 12l2 2
q19 -7 22.5 -11.5t-1.5 -11.5h44l13 9l15 -16h-124zM139 205l-5 -2q-18 -26 -25 -30l20 1q6 10 9 17l15 -9l-7 -3q-20 -25 -35 -36l23 2q2 6 2 14l17 -8l-7 -6q-13 -41 -57 -53l-1 3q30 13 44 45q-22 -7 -29 -12l-7 14q6 2 15.5 10.5t14.5 16.5q-18 -6 -24 -11l-8 13
q7 2 17 16t13 27zM207 202q3 -6 -2 -10.5t-7.5 3.5t-8.5 15l2 2q13 -4 16 -10zM159 141v35q-7 -9 -13 -15l-2 2q11 19 16.5 30.5t7.5 19.5l16 -11q-5 -1 -15 -14h50l11 9l12 -16h-38v-14h13l8 7l13 -14h-34v-17h12l9 7l13 -14h-34v-16h19l10 8l12 -15h-75v-9l-12 -4
q1 20 1 41zM170 167h23v14h-23v-14zM170 143h23v17h-23v-17zM170 120h23v16h-23v-16zM127 90q-10 0 -19 -2l-9 9h115l13 8l13 -15h-97l-4 -14h45l9 7l12 -10l-7 -6q-4 -26 -4 -36t12 -9h15q7 0 9 9.5t3 26.5h3q0 -31 11 -32q-7 -10 -14 -12t-14 -2h-14q-26 -2 -24 13.5
t4 43.5h-48l-14 -44l47 6v-3q-27 -6 -68 -21l-5 15l14 2l20 66h-4zM142 61l1 1q19 -4 23 -9q4 -4 0 -15q-5 -4 -8 4q-5 11 -16 19v0z" />
  </g>

</svg>
