<?xml version="1.0" standalone="no"?>
<!DOCTYPE svg PUBLIC "-//W3C//DTD SVG 1.1//EN" "http://www.w3.org/Graphics/SVG/1.1/DTD/svg11.dtd" >
<svg xmlns="http://www.w3.org/2000/svg" xmlns:xlink="http://www.w3.org/1999/xlink" version="1.1" viewBox="0 -205 1024 1024">
  <g transform="matrix(1 0 0 -1 0 819)">
   <path fill="currentColor"
d="M770 854l78 -36q6 -4 4 -10q-1 -3 -34 -20v-372l4 -90q-1 -14 -20 -28q-15 -12 -36 -12l4 130v438v0v0zM910 966l82 -32q3 -4 4 -8l-2 -6l-34 -16v-769q3 -38 -20 -64q-22 -24 -58 -34q-4 31 -28 46q-23 16 -100 40l4 18q71 -18 98 -24q27 -3 40 6q14 9 14 24v819v0v0z
M658 872q-30 -7 -72 -22v-180h68l40 46l56 -52q2 -3 2 -8q3 -12 -8 -12h-158v-92q62 -27 98 -50q35 -24 46 -42q10 -18 8 -36q-2 -16 -16 -22q-12 -8 -26 0q-12 5 -18 26q-6 17 -26 44q-18 24 -66 58v-350l4 -97q0 -14 -20 -28q-21 -13 -38 -14l4 129v338q-30 -78 -74 -150
q-45 -72 -92 -126l-12 8q47 78 76 138q26 60 50 126q23 64 40 140h-86q-21 0 -56 -8l-14 34h168v172q-97 -15 -160 -24l-2 16q204 49 310 110q49 -58 50 -64q0 -7 -6 -8q-4 -1 -22 2t-48 -2v0v0zM42 878h262l38 46l60 -54q12 -15 -8 -18h-134q-36 -154 -86 -280h110l32 36
l54 -46q6 -6 6 -8q0 -6 -32 -26v-332l4 -44q2 -14 -16 -27q-18 -14 -36 -16v77h-124v-73q0 -18 -20 -28q-21 -12 -32 -12l4 101v282q-33 -79 -98 -154l-10 8q57 105 102 228q46 122 86 314h-74q-22 0 -70 -8l-18 34v0v0zM172 212h124v334h-124v-334v0v0z" />
  </g>

</svg>
