<?xml version="1.0" standalone="no"?>
<!DOCTYPE svg PUBLIC "-//W3C//DTD SVG 1.1//EN" "http://www.w3.org/Graphics/SVG/1.1/DTD/svg11.dtd" >
<svg xmlns="http://www.w3.org/2000/svg" xmlns:xlink="http://www.w3.org/1999/xlink" version="1.1" viewBox="0 -205 1024 1024">
  <g transform="matrix(1 0 0 -1 0 819)">
   <path fill="currentColor"
d="M884 948q16 -9 -6 -18q-12 -2 -24 -16q-33 -108 -54 -192h118l26 42l48 -44q15 -15 -2 -20h-66q-3 -273 -66 -416q23 -70 56 -122q32 -49 86 -73v-14q-33 1 -48 -2t-36 -18q-54 78 -84 183q-42 -70 -90 -117q-46 -48 -100 -90l-8 12q47 51 98 115q49 63 80 126
q-27 75 -38 144q-13 66 -22 162q-15 -46 -54 -94l-12 8q45 108 72 222q26 114 56 262l70 -40v0v0zM878 698h-86q-12 -28 -20 -62q7 -81 26 -164q18 -84 36 -144q12 56 28 158q15 101 16 212v0v0zM550 982l68 -32q15 -7 -2 -16l-22 -10v-232h52v180l72 -30q3 -6 4 -6
q0 -3 -6 -8l-26 -14v-76l4 -62q0 -11 -18 -22q-15 -9 -30 -12v26h-146l-24 -32l-52 40q25 17 26 38v168l66 -28q6 -3 6 -8q1 -6 -28 -20v-134h56v290v0v0zM432 568h182l30 36l34 -38q19 -15 2 -24h-174q-18 0 -54 -8l-20 34v0v0zM484 496l54 -40h74l24 38l50 -32q7 -6 8 -12
q-1 -7 -26 -28v-198l102 84l10 -14q-118 -112 -136 -159l-46 43q25 11 26 38v216h-96v-100q0 -42 -8 -84q-9 -39 -38 -90q-27 -49 -84 -95l-8 12q36 51 58 93q21 41 28 86t8 88v154v0v0zM436 922q9 -4 4 -14q1 0 -16 -6q-18 -4 -62 -76q-46 -72 -88 -122l-10 10
q68 126 118 246l54 -38v0v0zM428 656q9 -4 6 -10q0 -3 -12 -8q-18 -3 -32 -20q-12 -18 -26 -44v-396l4 -85q0 -15 -20 -28q-19 -9 -34 -10l4 127v334q-55 -78 -116 -138l-10 10q47 66 98 150q48 83 84 158l54 -40v0v0zM86 960l6 16q44 -15 76 -30q30 -12 46 -30t20 -38
q3 -22 -8 -34q-12 -14 -26 -12q-13 3 -20 18l-14 32q-6 15 -24 36q-19 18 -56 42v0v0zM138 430q-21 -54 -50 -56q-31 -1 -58 2l-2 -20q28 -3 50 -12q21 -6 30 -18t12 -42q5 -30 -4 -92q-10 -63 -8 -91q0 -27 16 -36t32 0t20 36q3 25 -6 93q-10 66 -10 102q-2 37 0 62
q0 25 12 68l96 370l-20 8l-110 -374v0v0zM22 732l10 12q54 -24 76 -38q22 -13 38 -32q15 -18 18 -42q4 -22 -6 -34q-9 -13 -24 -10q-16 3 -22 18l-12 32q-5 15 -16 36q-12 18 -62 58v0v0z" />
  </g>

</svg>
