<?xml version="1.0" standalone="no"?>
<!DOCTYPE svg PUBLIC "-//W3C//DTD SVG 1.1//EN" "http://www.w3.org/Graphics/SVG/1.1/DTD/svg11.dtd" >
<svg xmlns="http://www.w3.org/2000/svg" xmlns:xlink="http://www.w3.org/1999/xlink" version="1.1" viewBox="0 -52 256 256">
  <g transform="matrix(1 0 0 -1 0 204)">
   <path fill="currentColor"
d="M61 183l10 -9h105l10 9l12 -12q2 -1 1 -2l-3 -1l-4 -2v-16l1 -10q-1 -8 -12 -8v6h-107q-1 -5 -13 -8q0 2 1 5q1 7 1 12v22q1 4 -5 10zM243 195q1 -1 0 -2h-3q-6 0 -12 -6q-3 -3 -19 -22l-3 2l15 29h-184q0 -5 -1 -6q-3 -20 -13 -26q-6 -3 -8 2q-3 4 1 8q5 5 9 11
q5 7 8 26h5q-1 -6 -1 -10h86v39q0 4 -7 10l2 3l21 -8q3 -1 2 -3q-4 -2 -7 -5v-36h22l8 10q16 21 16 23q0 1 -1 5q1 -2 -1 2l2 2l18 -11q4 -3 2 -4q-6 0 -11 -3q-5 -4 -13 -12q-9 -9 -13 -12h56l10 10zM74 142h107v27h-107v-27zM58 236l1 4q3 -1 8 -3q10 -4 17 -8t10 -10
q5 -12 -3 -14q-4 -1 -6 5q-3 6 -7 12q-5 6 -20 14zM11 83h209l8 10l17 -12q2 -1 2 -2q-1 -1 -4 -1h-110v-46q0 -9 -3 -13t-21 -8q0 7 -7 9q-3 2 -16 5l1 5l8 -2q28 -8 27 11v39h-91q-6 0 -11 -3zM70 71l18 -11q2 -2 2 -3h-2q-8 0 -11 -3q-34 -24 -61 -34l-2 3q32 16 55 41
q0 3 -1 5zM40 113h151l8 10l17 -12q2 -2 1 -2q0 -1 -3 -1h-154q-7 0 -11 -3zM158 66l2 3q25 -7 37 -14q14 -7 21 -14q12 -12 1 -17q-3 -1 -10 8q-6 7 -16 15t-35 19z" />
  </g>

</svg>
