<?xml version="1.0" standalone="no"?>
<!DOCTYPE svg PUBLIC "-//W3C//DTD SVG 1.1//EN" "http://www.w3.org/Graphics/SVG/1.1/DTD/svg11.dtd" >
<svg xmlns="http://www.w3.org/2000/svg" xmlns:xlink="http://www.w3.org/1999/xlink" version="1.1" viewBox="0 -36 256 256">
  <g transform="matrix(1 0 0 -1 0 220)">
   <path fill="currentColor"
d="M103 190l15 -22h-39v-50l39 16l2 -4l-41 -25v-46q0 -23 1 -46l-16 -5q1 22 1 45v45l-36 -20l-6 -7l-13 19q23 6 55 22v56h-25q-10 -32 -26 -50l-3 1q19 44 22 98l23 -11l-8 -6l-6 -25h23q0 35 -1 71l24 -10l-9 -9v-52h11zM209 183l7 13l18 -14l-8 -9q1 -65 -3 -76.5
t-21 -14.5q-2 13 -24 17v4q26 -2 30 -0.5t4 72.5l-37 -10l-24 -6v-110q1 -19 20 -19h49q6 4 7.5 20t1.5 29h5q0 -8 1.5 -26t10.5 -20q-4 -15 -25 -16h-60q-20 2 -24 23v115l-14 -4l-5 -6l-10 10l29 8q0 62 -1 83l23 -9l-8 -7v-63z" />
  </g>

</svg>
