<?xml version="1.0" standalone="no"?>
<!DOCTYPE svg PUBLIC "-//W3C//DTD SVG 1.1//EN" "http://www.w3.org/Graphics/SVG/1.1/DTD/svg11.dtd" >
<svg xmlns="http://www.w3.org/2000/svg" xmlns:xlink="http://www.w3.org/1999/xlink" version="1.1" viewBox="0 -36 256 256">
  <g transform="matrix(1 0 0 -1 0 220)">
   <path fill="currentColor"
d="M201 138l-15 -8q1 38 1 50q-14 -23 -47 -42l-2 3q36 33 44 59q-9 1 -15 -2l-7 9h27q0 19 -1 38l23 -10l-9 -6v-22h18l11 9l14 -16h-40q22 -40 43 -46v-4q-13 0 -19 -6q-17 21 -27 46q0 -29 1 -52zM54 246l22 -10l-8 -7v-20h7l8 9l13 -16h-28v-14q17 -6 22 -11.5t1 -15
t-9 1.5t-14 20q0 -26 1 -45l-15 -9q1 31 1 53q-15 -28 -41 -45l-2 3q30 35 37 62h-3q-10 0 -20 -2l-10 9h39q0 21 -1 37zM111 201q11 -7 14.5 -13t-2.5 -13.5t-7.5 3t-7.5 19.5q-9 -9 -19 -16l-2 3q22 25 32 60l17 -10q-5 -3 -8 -7t-7 -12h23l9 10l13 -12l-9 -7
q-20 -52 -77 -73l-2 3q47 23 66 72h-27zM149 83q-24 -12 -42 -16h89l9 9l16 -12l-9 -6v-20q0 -14 1 -26l-16 -4v9h-110v-7l-16 -2q1 20 1 32v14q-23 -6 -61 -12v5q40 8 61 16v10l15 -5q23 8 46 20t42 24h-86q-28 -18 -62 -27l-2 3q21 9 38 20.5t34 28.5l20 -9l-9 -1
q-6 -5 -13 -8h84l10 9l19 -14l-13 -5q-22 -14 -46 -26zM100 88q4 -8 -1 -14t-9 2.5t-25 22.5l5 3q26 -6 30 -14zM87 57v-33h110v36h-101z" />
  </g>

</svg>
