<?xml version="1.0" standalone="no"?>
<!DOCTYPE svg PUBLIC "-//W3C//DTD SVG 1.1//EN" "http://www.w3.org/Graphics/SVG/1.1/DTD/svg11.dtd" >
<svg xmlns="http://www.w3.org/2000/svg" xmlns:xlink="http://www.w3.org/1999/xlink" version="1.1" viewBox="0 -36 256 256">
  <g transform="matrix(1 0 0 -1 0 220)">
   <path fill="currentColor"
d="M97 48q-5 14 -12 26l3 2q28 -28 28 -39.5t-6 -16.5t-7.5 4t-4.5 20q-65 -15 -74 -23l-9 20q8 1 15.5 11.5t21.5 49.5h-16q-10 0 -20 -2l-9 9h27q0 109 -1 133l15 -11h41l12 11l16 -18h-69v-33h36l12 11l16 -18h-64v-33h36l12 12l16 -19h-64v-35h48l13 12l15 -19h-66
l15 -9l-8 -5q-20 -32 -33 -47zM175 47q-28 -26 -70 -40l-2 3q44 24 64 49q-21 33 -30 74h-4l-7 -2l-8 9h89l9 11l15 -15l-10 -8q-16 -41 -37 -69q27 -26 64 -30v-4q-16 -1 -20 -13q-32 14 -53 35zM144 133q7 -28 31 -63q16 22 32 63h-63zM145 179h62v46h-62v-46zM221 166
l-14 -8v14h-62v-9l-14 -8q1 21 1 42.5t-1 44.5l13 -10h62l7 11l14 -14l-7 -7q0 -46 1 -56z" />
  </g>

</svg>
