<?xml version="1.0" standalone="no"?>
<!DOCTYPE svg PUBLIC "-//W3C//DTD SVG 1.1//EN" "http://www.w3.org/Graphics/SVG/1.1/DTD/svg11.dtd" >
<svg xmlns="http://www.w3.org/2000/svg" xmlns:xlink="http://www.w3.org/1999/xlink" version="1.1" viewBox="0 -205 1024 1024">
  <g transform="matrix(1 0 0 -1 0 819)">
   <path fill="currentColor"
d="M748 494l34 42l58 -46q6 -6 6 -12q-1 -6 -34 -26v-294q0 -34 6 -41q6 -6 28 -10h44q21 3 34 18q9 14 12 55q-1 40 2 86h18q3 -61 10 -88q9 -28 36 -39q-12 -33 -32 -52q-19 -18 -52 -24h-78q-37 -1 -58 12q-19 13 -20 62v331l-146 -6q-12 -105 -36 -188q-25 -84 -70 -139
t-134 -108l-8 16q68 50 110 109q39 60 60 142q20 80 28 164l-54 -2q-24 0 -48 -12l-22 34l126 8q9 111 6 168q82 -30 86 -36q3 -7 -2 -10q-6 -4 -32 -16l-8 -104l130 6v0v0zM858 962l60 -46q8 -4 8 -10q1 -3 -34 -24v-120l4 -90q1 -14 -16 -22q-17 -9 -40 -12v72h-400
q-1 -166 -22 -290q-18 -124 -66 -220q-45 -92 -114 -153l-14 10q56 69 94 161q36 90 54 214q15 121 16 278v248l54 -36h386l30 40v0v0zM440 896v-160h400v160h-400v0v0zM170 440q-18 -49 -38 -52t-94 -2l-2 -20q54 -6 78 -14q25 -7 32 -22q8 -13 8 -44t-8 -82
q-10 -49 -8 -75q1 -28 20 -38q18 -9 36 0q16 9 20 36q3 23 -8 79q-9 54 -12 96q-1 42 4 64q6 21 16 54l144 402l-22 6l-166 -388v0v0zM138 958l6 14q48 -17 84 -34q34 -17 50 -34q15 -15 18 -36q2 -19 -10 -32q-11 -12 -28 -12q-18 0 -24 16q-6 14 -12 32q-7 17 -20 32
q-13 12 -64 54v0v0zM40 714l6 14q42 -15 78 -32q35 -15 52 -36q15 -18 18 -38q1 -20 -10 -34q-12 -15 -26 -14q-15 0 -20 16q-6 15 -14 34q-10 18 -28 40q-18 20 -56 50v0v0z" />
  </g>

</svg>
