<?xml version="1.0" standalone="no"?>
<!DOCTYPE svg PUBLIC "-//W3C//DTD SVG 1.1//EN" "http://www.w3.org/Graphics/SVG/1.1/DTD/svg11.dtd" >
<svg xmlns="http://www.w3.org/2000/svg" xmlns:xlink="http://www.w3.org/1999/xlink" version="1.1" viewBox="0 -36 256 256">
  <g transform="matrix(1 0 0 -1 0 220)">
   <path fill="currentColor"
d="M67 179h21l8 9l12 -12l-7 -6v-66l1 -13l-13 -7v9h-55v-9l-13 -6q1 23 1 94q-2 -6 -13 -17l-1 4q19 28 27.5 52t9.5 35l19 -11q-7 -1 -16 -20h29l7 8l14 -13q-9 1 -31 -31zM31 183l7 -4h21l18 29h-31q-7 -11 -15 -25zM34 138h21v34h-21v-34zM67 138h22v34h-22v-34zM34 100
h21v31h-21v-31zM67 100h22v31h-22v-31zM31 39q-1 -8 -5.5 -12t-12 -4t0.5 12.5t12 34.5h4q2 -23 1 -31zM44 73q15 -18 15 -28t-5.5 -16t-6 9t-6.5 34zM63 76q23 -16 23.5 -25.5t-4.5 -14t-7.5 6t-14.5 31.5zM86 83q21 -11 25.5 -18t-2 -16.5t-8.5 1.5t-18 31zM117 132
q0 87 -1 100l14 -9h95l9 10l13 -13l-8 -6v-166q0 -16 1 -29l-13 -7v17h-98v-14l-13 -7q1 37 1 124zM129 36h98v180h-98v-180zM212 197l12 -14h-41v-12h21l7 7l11 -10l-6 -4v-20l1 -20l-13 -5v5h-21v-16l23 1q-3 6 -7 10l2 3q19 -10 19.5 -16t-3.5 -9.5t-5 0t-3 8.5
q-51 -7 -65 -12l-8 12l36 2v17h-20v-5l-12 -4q2 32 0 61l13 -5h19v12h-16q-11 0 -13 -3l-10 10h39q0 9 -1 22l19 -7l-7 -6v-9h21zM192 103l17 -5l-5 -5v-7h8l6 7l11 -14h-25v-21q0 -16 -13 -20q1 10 -15 15v3q17 -4 17 4v19h-36q18 -12 10.5 -21t-8.5 2t-6 19h-5
q-6 1 -11 -1l-6 8h62q0 8 -1 17zM152 164v-13h20v13h-20zM152 144v-13h20v13h-20zM183 164v-13h21v13h-21zM183 144v-13h21v13h-21z" />
  </g>

</svg>
