<?xml version="1.0" standalone="no"?>
<!DOCTYPE svg PUBLIC "-//W3C//DTD SVG 1.1//EN" "http://www.w3.org/Graphics/SVG/1.1/DTD/svg11.dtd" >
<svg xmlns="http://www.w3.org/2000/svg" xmlns:xlink="http://www.w3.org/1999/xlink" version="1.1" viewBox="0 -205 1024 1024">
  <g transform="matrix(1 0 0 -1 0 819)">
   <path fill="currentColor"
d="M472 352q9 115 6 248v202l40 -30h150v210l80 -30q9 -4 6 -4q3 -6 -2 -12l-36 -16v-42h136l32 46l64 -56q3 -4 4 -8q-1 -9 -10 -8h-226v-80h184l26 36l52 -36q15 -9 12 -18q0 -3 -12 -6q-20 -7 -40 -22q-18 -16 -50 -52l-16 8l34 64h-378v-134q5 -166 -10 -292
q-16 -125 -64 -193q-46 -68 -98 -112l-10 14q57 74 88 139q31 66 38 184v0v0zM662 456l68 -32q21 -6 4 -18l-24 -10v-315h74v371l72 -26q11 -7 2 -16l-26 -12v-192q47 64 82 152l60 -40q10 -8 0 -16q-15 0 -26 -6q-9 -3 -38 -36q-27 -29 -78 -88v-91h64l32 40l48 -46
q3 -2 4 -8q1 -13 -10 -14h-384q-21 0 -66 -6l-14 34h156v375v0v0zM556 344q54 -55 70 -88q15 -33 10 -54q-3 -18 -18 -26q-12 -6 -26 0q-15 5 -12 28q1 24 -6 54q-6 33 -30 78l12 8v0v0zM740 710q7 -3 8 -6q0 -4 -2 -8l-28 -14v-46l82 18l20 40l56 -40q12 -9 -2 -14
l-156 -26v-46q0 -24 12 -26q12 -3 42 -2h84q24 -1 36 10q11 9 16 24t10 64h16q-1 -24 4 -48q5 -21 28 -36q-9 -21 -30 -36q-21 -16 -54 -16h-168q-30 5 -36 22q-7 17 -8 44v34l-66 -24q-15 0 -26 -8l-22 30l114 26v106l70 -22v0v0zM264 950q6 -6 4 -12q0 -4 -18 -10
q-12 -6 -20 -24q-9 -15 -32 -62h118l28 32l54 -44q7 -6 2 -12q0 -3 -30 -18q-21 -15 -38 -36q-18 -21 -50 -74h70l24 28l48 -38q6 -4 6 -8q0 -6 -26 -24v-246l4 -68q0 -12 -18 -24q-16 -10 -34 -10v38h-212v-16q0 -12 -18 -26q-19 -12 -34 -12l4 104v274q-19 -37 -52 -76
l-12 10q44 84 92 186q44 99 74 198l66 -30v0v0zM144 364h82v144h-82v-144v0v0zM274 364h82v144h-82v-144v0v0zM144 534h82v130h-82v-130v0v0zM274 664v-130h82v130h-82v0v0zM142 690h112l64 126h-132q-27 -52 -62 -106l18 -20v0v0zM100 258h20q0 -63 4 -104q1 -38 -16 -63
q-16 -23 -34 -26q-19 -3 -28 6q-11 9 -6 24q3 15 18 30q14 14 26 37q9 21 16 96v0v0zM166 266l14 8q33 -53 42 -82q9 -27 10 -48q1 -19 -12 -35q-13 -13 -28 -6q-17 9 -12 32q4 20 2 49q-1 27 -16 82v0v0zM254 270l10 10q30 -33 48 -62q17 -28 20 -52q1 -25 -10 -37
q-13 -13 -28 -8q-15 4 -14 33q1 27 -4 54q-7 23 -22 62v0v0zM340 274l10 10q29 -28 46 -46t22 -42q4 -24 -10 -36q-13 -13 -28 -8q-15 4 -14 26q1 20 -6 46q-9 23 -20 50v0v0z" />
  </g>

</svg>
