<?xml version="1.0" standalone="no"?>
<!DOCTYPE svg PUBLIC "-//W3C//DTD SVG 1.1//EN" "http://www.w3.org/Graphics/SVG/1.1/DTD/svg11.dtd" >
<svg xmlns="http://www.w3.org/2000/svg" xmlns:xlink="http://www.w3.org/1999/xlink" version="1.1" viewBox="0 -205 1024 1024">
  <g transform="matrix(1 0 0 -1 0 819)">
   <path fill="currentColor"
d="M446 192q44 84 58 192q13 108 12 228v286l62 -34q208 44 302 98q67 -67 54 -76q-4 -4 -22 2q-15 6 -80 -6q-63 -9 -264 -48v-222h314l38 52l68 -66q1 -12 -6 -12h-170v-394l2 -113q1 -15 -22 -28q-21 -13 -36 -14l4 149v400h-192q0 -87 -14 -198q-12 -110 -66 -202
q-54 -88 -162 -163l-10 12q86 75 130 157v0v0zM172 976q93 -51 114 -80q21 -28 22 -52q-1 -25 -14 -34q-12 -10 -26 -8q-13 2 -20 32q-5 27 -16 52q-10 24 -70 78l10 12v0v0zM58 750h262l30 44l66 -54q3 -3 4 -8q-1 -2 -16 -10q-33 -10 -54 -46q-21 -33 -66 -98v-18
q99 -30 126 -54q27 -21 34 -42q6 -21 -2 -36q-6 -16 -24 -16q-15 -1 -26 26q-9 26 -38 56q-29 26 -70 44v-378l4 -85q3 -14 -18 -28q-19 -11 -38 -14l4 129v358q-72 -94 -186 -184l-10 10q96 102 142 166q46 60 74 106q27 45 64 108h-190q-24 0 -48 -12l-24 36v0v0z" />
  </g>

</svg>
