<?xml version="1.0" standalone="no"?>
<!DOCTYPE svg PUBLIC "-//W3C//DTD SVG 1.1//EN" "http://www.w3.org/Graphics/SVG/1.1/DTD/svg11.dtd" >
<svg xmlns="http://www.w3.org/2000/svg" xmlns:xlink="http://www.w3.org/1999/xlink" version="1.1" viewBox="0 -36 256 256">
  <g transform="matrix(1 0 0 -1 0 220)">
   <path fill="currentColor"
d="M163 68h33v35h-33v-35zM172 212l20 -10l-6 -6v-20h10l7 10l12 -17h-29v-30h13l10 11l13 -18h-54q-10 -1 -19 -3l-9 10h33v30l-19 -2l-8 9h27v16q0 8 -1 20zM151 82q0 18 -1 36l13 -8h31l5 10l16 -11l-6 -7v-24q0 -9 1 -24l-14 -5v12h-33v-9l-13 -7q1 19 1 37zM118.5 62
q4.5 31 4.5 82t-1 86l14 -11h87l8 13l13 -14l-6 -6v-164q2 -32 -19 -40q-4 10 -12.5 14t-17.5 6v4q16 -1 26 -1t10 15v166h-88q0 -83 -0.5 -105.5t-7.5 -50t-28 -50.5l-3 2q16 23 20.5 54zM46 173h47v29h-47v-29zM46 139h47v27h-47v-27zM46 103h47v29h-47v-29zM84 236
q-9 -3 -20 -27h28l6 11l13 -12l-6 -6v-166q1 -18 -19 -26q0 13 -24 21v4q19 -2 25 -2t6 7v51q-17 -28 -38 -46.5t-44 -29.5l-2 3q22 15 39 33.5t31 44.5h-37q-10 0 -20 -2l-10 9h21v115l13 -9h12q6 23 9 38z" />
  </g>

</svg>
