<?xml version="1.0" standalone="no"?>
<!DOCTYPE svg PUBLIC "-//W3C//DTD SVG 1.1//EN" "http://www.w3.org/Graphics/SVG/1.1/DTD/svg11.dtd" >
<svg xmlns="http://www.w3.org/2000/svg" xmlns:xlink="http://www.w3.org/1999/xlink" version="1.1" viewBox="0 -36 256 256">
  <g transform="matrix(1 0 0 -1 0 220)">
   <path fill="currentColor"
d="M19 229l13 -7q24 12 32 23l15 -15h-10q-18 -9 -36 -15v-32l25 13l-11 14l2 2q20 -12 24.5 -20t-1.5 -15t-7 -0.5t-5 13.5q-27 -18 -34 -30l-9 14q3 4 3 9v24q0 9 -1 22zM125 226l7 10l14 -13l-8 -5q0 -28 -2.5 -42t-15.5 -20q-1 5 -5.5 9t-15.5 5v5q13 -1 18 -1t7 6.5
t2 38.5h-21q-5 -46 -45 -68l-4 4q33 24 36 64q-7 0 -16 -2l-9 9h58zM125 147l10 11l14 -18h-115q-5 1 -16 -2l-9 9h116zM43 124h65l8 7l12 -12l-7 -4v-33l-13 -4v3h-65v-3l-13 -6v56zM43 88h65v29h-65v-29zM66.5 55.5q0.5 -7.5 -4.5 -13t-8 5t-16 23.5l3 3
q25 -11 25.5 -18.5zM111 65l-16 -22l41 4l1 -5q-107 -16 -118 -23l-8 19q35 0 77 5q9 24 12 38l20 -14zM207.5 233q18.5 6 23.5 11l12 -21l-9 3q-34 -8 -66 -12v-57h56l10 15l14 -22h-32v-104q0 -17 1 -31l-15 -8q1 32 1 50v93h-35q0 -15 -0.5 -42.5t-9 -53.5t-28.5 -47
l-3 5q8 9 17 33.5t10 61t1 69.5t-1 56l11 -11q24 6 42.5 12z" />
  </g>

</svg>
