<?xml version="1.0" standalone="no"?>
<!DOCTYPE svg PUBLIC "-//W3C//DTD SVG 1.1//EN" "http://www.w3.org/Graphics/SVG/1.1/DTD/svg11.dtd" >
<svg xmlns="http://www.w3.org/2000/svg" xmlns:xlink="http://www.w3.org/1999/xlink" version="1.1" viewBox="0 -205 1024 1024">
  <g transform="matrix(1 0 0 -1 0 819)">
   <path fill="currentColor"
d="M440 774h198v210l86 -34q3 -3 4 -8q0 -5 -38 -22v-146h168l36 46l58 -54q3 -3 4 -6q3 -12 -8 -12h-258v-152q30 -156 52 -224q21 -68 60 -130q39 -60 84 -98q44 -36 110 -57v-16q-47 0 -64 -6q-18 -6 -36 -22q-61 64 -100 119q-40 57 -70 142q-30 84 -48 226
q-16 -188 -58 -274q-43 -84 -118 -145q-75 -59 -180 -100l-8 16q94 52 158 106q62 53 104 139q41 85 62 320v156h-126q-21 0 -56 -8l-16 34v0v0zM86 792l50 -40h90v236l80 -34q12 -6 4 -12l-34 -20v-170h76l26 36l50 -38q12 -7 6 -14l-20 -20v-204l4 -52q0 -13 -14 -26
q-14 -10 -40 -14v38h-88v-230l112 16q-19 53 -62 116l12 10q95 -88 110 -118q13 -30 14 -50q0 -18 -8 -30t-22 -14q-12 -1 -20 4q-6 5 -8 20q-2 14 -10 40q-166 -40 -230 -58t-94 -39l-40 67l196 28v238h-90v-28q1 -13 -18 -26q-18 -12 -36 -12l4 92v308v0v0zM136 482h90
v246h-90v-246v0v0zM276 728v-246h88v246h-88v0v0zM408 340q42 113 66 196q21 80 40 158l76 -28q9 -10 -2 -16q-25 -4 -34 -26q-9 -21 -30 -74q39 -31 66 -58q25 -27 24 -54q-3 -24 -14 -32q-9 -7 -24 -2q-13 3 -16 24q-4 21 -10 46q-6 23 -36 58q-42 -136 -92 -200l-14 8v0
v0zM746 386q21 72 42 148q21 73 34 158l74 -28q6 -13 -2 -16q-28 -9 -32 -26q-4 -18 -28 -84q66 -34 100 -68t32 -58q0 -25 -12 -34q-12 -10 -26 -4q-15 6 -18 24q-4 18 -26 58q-22 38 -58 62q-27 -78 -66 -140l-14 8v0v0z" />
  </g>

</svg>
