<?xml version="1.0" standalone="no"?>
<!DOCTYPE svg PUBLIC "-//W3C//DTD SVG 1.1//EN" "http://www.w3.org/Graphics/SVG/1.1/DTD/svg11.dtd" >
<svg xmlns="http://www.w3.org/2000/svg" xmlns:xlink="http://www.w3.org/1999/xlink" version="1.1" viewBox="0 -205 1024 1024">
  <g transform="matrix(1 0 0 -1 0 819)">
   <path fill="currentColor"
d="M823 743q1 -18 2 -45q1 -9 -6 -13q-44 -21 -47 -20q-4 3 -1 13q3 25 4 65v83h-112v-79q1 -18 2 -45q1 -9 -6 -13q-44 -21 -47 -20q-4 3 -1 13q3 25 4 65v79h-112v-83q1 -18 2 -45q1 -9 -6 -13q-44 -21 -47 -20q-4 3 -1 13q3 25 4 65v83h-25q-42 -1 -73 -7q-8 -3 -11 6
q-4 18 -19 30q-7 7 -4 11q4 3 11 -1q38 -8 84 -8h37v46q-1 30 -4 55q-4 14 0 18q5 3 15 -1q38 -16 62 -28q5 -3 5 -7q-2 -5 -6 -6q-15 -3 -19 -10q-4 -8 -5 -21v-46h112v50q-1 30 -4 55q-4 14 0 18q5 3 15 -1q38 -16 62 -28q5 -3 5 -7q-2 -5 -6 -6q-15 -3 -19 -10
q-4 -8 -5 -21v-50h112v42q-1 30 -4 55q-4 14 0 18q5 3 15 -1q38 -16 62 -28q5 -3 5 -7q-2 -5 -6 -6q-15 -3 -19 -10q-4 -8 -5 -21v-42h32q6 0 12 7l36 41q7 7 14 0q26 -26 44 -48q11 -14 4 -24q-5 -6 -18 -7h-124v-83zM615 586h-210q-8 -76 -39 -110q-15 -15 -30 -14
q-14 3 -21 10q-23 24 10 49q54 47 61 137q1 9 8 9q8 0 9 -10q2 -21 3 -40h471q10 0 14 6l28 30q3 4 7 4q11 0 56 -60q8 -12 -7 -13q-3 0 -4 -1q-49 -6 -115 -70q-9 -12 -16 -6q-10 7 0 22q18 30 33 57h-210v-125h122q8 0 12 4l26 35q8 8 15 1q32 -27 47 -52q7 -10 0 -11
q-10 -2 -16 -9t-6 -23v-181q0 -29 -16 -48q-15 -19 -54 -31q-11 -4 -12 2q-4 23 -13 33q-10 13 -54 23q-10 2 -9 14q2 12 49 2q45 -6 52 -2q9 6 9 21v191h-152v-149q0 -118 4 -197q-1 -9 -46 -39q-14 -9 -13 12q7 133 7 224v149h-148v-67q-1 -189 -5 -195q-35 -27 -41 -28
q-8 1 -7 20q4 61 5 203v40q-1 36 -5 82q-2 12 2 13q3 1 10 -6q12 -13 36 -31h153v125zM219 70q-20 -22 -45 -29q-10 -4 -14 5q-7 14 -29 27q-26 17 -77 27q-12 3 -11 13q1 8 14 7q33 -1 78 -4t54 3q3 4 3 17v323q-18 -13 -34 -25q-18 -12 -43 -49q-4 -6 -7 -7q-4 -2 -10 5
q-19 22 -44 34q-15 7 -15 10q0 4 10 7q56 25 119 62q11 8 24 14v236h-54q-27 0 -61 -7q-5 -1 -6 2q-13 19 -23 35q-6 10 7 7q61 -5 68 -6h69v75q-1 80 -5 128q-1 18 9 14q56 -18 77 -30q11 -8 1 -12q-31 -17 -32 -21q-2 -4 -2 -79v-75h12q6 0 12 7l36 41q7 7 14 0
q26 -26 44 -48q11 -14 4 -24q-5 -6 -18 -7h-104v-208q50 31 93 56q13 9 17 0q5 -9 -8 -19q-57 -44 -102 -80v-370q-2 -33 -21 -55z" />
  </g>

</svg>
