<?xml version="1.0" standalone="no"?>
<!DOCTYPE svg PUBLIC "-//W3C//DTD SVG 1.1//EN" "http://www.w3.org/Graphics/SVG/1.1/DTD/svg11.dtd" >
<svg xmlns="http://www.w3.org/2000/svg" xmlns:xlink="http://www.w3.org/1999/xlink" version="1.1" viewBox="0 -205 1024 1024">
  <g transform="matrix(1 0 0 -1 0 819)">
   <path fill="currentColor"
d="M466 918q15 -5 0 -16q-7 0 -22 -14l-16 -40h60v136l60 -20q19 -9 2 -20l-18 -12v-84h28l26 30l38 -34q9 -12 -2 -20h-90v-104h52l26 28l38 -34q3 -6 4 -12q0 -7 -12 -8h-60v-90l80 38l12 -12q-93 -60 -110 -102l-50 40l24 20v106h-62q-4 -66 -28 -114q-25 -48 -86 -86
l-12 12q47 45 62 88q16 39 20 100h-50q-17 0 -34 -6l-14 32h156v104h-70q-16 -33 -46 -86l-14 4q36 122 52 200l56 -24v0v0zM722 928q15 -10 -2 -16q-9 -3 -20 -26l-14 -38h76v136l62 -22q12 -9 -2 -20l-16 -10v-84h54l28 40l46 -44q9 -12 -2 -20h-126v-106h100l28 34
l46 -44q3 -3 4 -8q0 -7 -12 -8h-116v-78q-1 -25 2 -34q4 -10 26 -10h20q21 3 28 28q3 23 6 74h18q0 -48 6 -66t24 -26q-10 -19 -22 -32q-13 -12 -50 -14h-38q-21 0 -42 6q-22 15 -22 48v104h-56q-4 -63 -34 -108q-31 -45 -106 -74l-8 14q59 39 80 78q21 36 24 90h-26l-12 -6
l-16 32h104v106h-82q-11 -33 -34 -80l-18 4q29 119 38 202l56 -22v0v0zM440 534l56 -36h328l24 30l52 -40q6 -4 6 -8q0 -6 -24 -20v-184l4 -86q0 -15 -18 -26q-17 -12 -34 -14v38h-346v-6q1 -12 -16 -24q-18 -13 -36 -14l4 100v290v0v0zM488 212h346v76h-346v-76v0v0z
M488 312h346v68h-346v-68v0v0zM488 404h346v70h-346v-70v0v0zM302 31q131 54 280 151l52 -36q6 -12 -8 -15q-28 1 -98 -32t-220 -84l-6 16v0v0zM694 154l4 14q93 -19 156 -39q62 -20 86 -40t22 -40q-3 -18 -20 -24q-18 -4 -44 22q-25 23 -70 48t-134 59v0v0zM44 740h178
l30 38l58 -44q12 -13 -2 -20q-22 -4 -34 -32q-12 -27 -48 -86q24 -15 58 -36q32 -20 44 -40q13 -21 8 -42q-6 -22 -26 -26q-21 -3 -26 22q-4 24 -16 48q-12 21 -42 48v-418l4 -81q0 -15 -20 -28q-20 -15 -34 -16l4 129v366q-73 -120 -148 -186l-10 12q78 102 132 202
q54 99 78 166h-116q-25 0 -52 -8l-20 32v0v0zM116 980q92 -49 118 -76q27 -27 24 -54q-1 -25 -14 -34q-12 -11 -26 -6q-16 2 -22 32q-7 27 -26 54q-18 27 -62 72l8 12v0v0z" />
  </g>

</svg>
