<?xml version="1.0" standalone="no"?>
<!DOCTYPE svg PUBLIC "-//W3C//DTD SVG 1.1//EN" "http://www.w3.org/Graphics/SVG/1.1/DTD/svg11.dtd" >
<svg xmlns="http://www.w3.org/2000/svg" xmlns:xlink="http://www.w3.org/1999/xlink" version="1.1" viewBox="0 -36 256 256">
  <g transform="matrix(1 0 0 -1 0 220)">
   <path fill="currentColor"
d="M41 235l18 -9h155l13 13l19 -20h-188v-86q0 -39 -10 -68t-35 -55l-3 3q19 28 26 53.5t6 65.5v70q0 14 -1 33zM177 140l9 9l15 -14l-8 -3q-27 -23 -39 -35l-14 6q13 12 31 30h-51q-11 0 -19 -2l-11 9h87zM65 142l-1 5q48 23 78 73l18 -12l-8 -4q39 -36 87 -45v-3
q-13 -1 -19 -11q-21 9 -39 23.5t-33 32.5q-35 -43 -83 -59zM145 97l24 -8l-8 -6v-18h29l13 12l18 -19h-60v-30h50l13 12l19 -19h-173q-11 0 -20 -2l-10 9h50q0 40 -1 55l24 -6l-9 -9v-40h42q0 55 -1 69zM116 164h37l11 9l16 -16h-49l-6 -3z" />
  </g>

</svg>
