<?xml version="1.0" standalone="no"?>
<!DOCTYPE svg PUBLIC "-//W3C//DTD SVG 1.1//EN" "http://www.w3.org/Graphics/SVG/1.1/DTD/svg11.dtd" >
<svg xmlns="http://www.w3.org/2000/svg" xmlns:xlink="http://www.w3.org/1999/xlink" version="1.1" viewBox="0 -205 1024 1024">
  <g transform="matrix(1 0 0 -1 0 819)">
   <path fill="currentColor"
d="M870 932l38 46l58 -58q3 -3 4 -2q-1 -10 -10 -10h-750v-240q-2 -267 -28 -402q-24 -134 -126 -241l-10 12q78 114 96 247t16 398v302l62 -52h650v0v0zM692 720v62h-152v-62h152v0v0zM654 882l4 12q51 -7 76 -20q23 -12 26 -30q0 -15 -8 -26q-7 -10 -22 -8q-12 0 -18 12
q-4 12 -16 28t-42 32v0v0zM340 482l46 -20h380l28 32l60 -38q6 -6 6 -8q0 -7 -26 -20v-198l4 -54q0 -13 -18 -22q-17 -7 -34 -8v34h-398v-18q1 -13 -16 -22q-18 -8 -36 -13l4 109v246v0v0zM388 204h398v64h-398v-64v0v0zM388 294h398v60h-398v-60v0v0zM388 378h398v60h-398
v-60v0v0zM540 552h152v58h-152v-58v0v0zM692 634v62h-152v-62h152v0v0zM976 528h-436v-22q-3 -11 -18 -22q-16 -9 -34 -8l4 100v150q-39 -44 -90 -94l-14 10q54 69 96 138q41 68 70 122l54 -20q15 -7 6 -16q-19 -3 -28 -12q-9 -6 -38 -48h320l36 38l56 -44q3 -7 4 -10
q-1 -9 -10 -8h-214v-62h112l26 32l44 -42q3 -3 4 -8q-4 -6 -8 -6h-178v-62h112l26 32l46 -40q0 -1 4 -4q-1 -12 -4 -12h-184v-58h152l34 34l50 -44q3 -5 4 -10l-4 -4v0v0zM440 874q12 -9 -8 -14q-19 -10 -28 -22q-9 -9 -42 -60v-162l6 -92q1 -18 -22 -32q-22 -12 -34 -12
l6 130v112q-43 -54 -94 -108l-12 12q47 65 92 136q42 72 76 138l60 -26v0v0zM158 33q144 39 310 127l50 -37q9 -8 -2 -16q-48 -2 -60 -8q-12 -3 -78 -28q-66 -23 -216 -56l-4 18v0v0zM638 125l2 17q137 -6 212 -21q73 -11 92 -32q17 -17 14 -38q-3 -16 -18 -20
q-16 -1 -40 16q-22 15 -80 36q-57 21 -182 42v0v0z" />
  </g>

</svg>
