<?xml version="1.0" standalone="no"?>
<!DOCTYPE svg PUBLIC "-//W3C//DTD SVG 1.1//EN" "http://www.w3.org/Graphics/SVG/1.1/DTD/svg11.dtd" >
<svg xmlns="http://www.w3.org/2000/svg" xmlns:xlink="http://www.w3.org/1999/xlink" version="1.1" viewBox="0 -410 2048 2048">
  <g transform="matrix(1 0 0 -1 0 1638)">
   <path fill="currentColor"
d="M1344 204h391l109 114l131 -112q12 -12 18 -22q6 -9 3 -18q-3 -10 -12 -16q-8 -5 -13 -4l-1041 2q-49 0 -112 -4q-63 -3 -66 -3l-13 -1l-43 87q15 -4 32 -7q16 -4 67 -10t135 -6h371q-13 4 -20 10q-7 7 -6 23l1 1056l-76 -107q-38 -54 -94 -116q-55 -63 -144 -144
q-89 -82 -136 -111l-68 -44l-22 34l76 61q40 33 105 101t129 149q65 82 122 173q56 91 86 157q30 65 77 178l25 61h-319q-117 0 -179 -7l-13 -1l-42 88q14 -5 29 -9q14 -3 73 -9t132 -6h653l108 114l131 -112q12 -11 18 -21t3 -20q-2 -10 -10 -14q-8 -5 -15 -4l-457 1
q-35 -90 -42 -106l-53 -120v-145l36 -18q15 -8 83 -46l90 -52q21 -12 83 -52q62 -39 111 -74q48 -34 87 -70q39 -37 52.5 -60.5t14.5 -53.5q2 -31 -8 -49t-30 -24t-38 3q-17 8 -35 32l-49 71q-21 28 -62 75q-41 46 -80 82q-38 35 -100 82q-61 47 -78 59l-77 52v-767
q0 -15 8 -125l4 -55q4 -52 3 -69q-3 -25 -12 -35t-19 -12zM333 462v601h-54q-102 0 -164 -7l-13 -1l-38 88q13 -4 28 -7q16 -4 62 -10q47 -6 125 -6h54v524h-58l-161 -5q-15 -1 -18 -1l-13 -2l-38 89q13 -4 29 -7q15 -4 62 -10q46 -6 131 -6h264l99 101l115 -99
q21 -19 18 -40q-3 -20 -23 -20h-310v-524h76l99 102l120 -107l15 -15q4 -6 1 -18q-3 -11 -11 -15q-9 -4 -15 -4h-285v-573q12 3 39 10q27 8 110 38q83 29 108 40l60 24l19 -36l-75 -40l-89 -46q-42 -22 -110 -51t-135 -53l-137 -47l-37 -13l-11 -41q-5 -17 -12 -25
q-6 -7 -13 -8q-7 0 -11 4q-5 4 -17 27l-70 130q25 3 34 5q9 1 105 20q95 18 115 25z" />
  </g>

</svg>
