<?xml version="1.0" standalone="no"?>
<!DOCTYPE svg PUBLIC "-//W3C//DTD SVG 1.1//EN" "http://www.w3.org/Graphics/SVG/1.1/DTD/svg11.dtd" >
<svg xmlns="http://www.w3.org/2000/svg" xmlns:xlink="http://www.w3.org/1999/xlink" version="1.1" viewBox="0 -205 1024 1024">
  <g transform="matrix(1 0 0 -1 0 819)">
   <path fill="currentColor"
d="M750 946q7 -4 6 -10q-1 -3 -10 -8l-20 -12q3 -63 34 -146q30 -81 66 -134q34 -54 74 -86q38 -30 100 -54v-16q-45 2 -62 -4q-18 -6 -38 -26q-51 54 -90 114q-37 60 -76 166q-39 105 -48 238l64 -22v0v0zM700 546q6 -4 4 -8q3 -5 -8 -10q-19 -3 -32 -14q-12 -9 -74 -128
q-63 -120 -152 -249l360 37q-30 75 -96 162l12 12q86 -73 130 -134q42 -62 46 -97q2 -35 -10 -56q-13 -20 -32 -14q-18 7 -24 40t-14 61q-207 -31 -282 -49q-75 -14 -116 -38l-50 79q40 4 62 26q65 111 116 222t72 198l88 -40v0v0zM594 844q-19 -7 -34 -50q-15 -41 -72 -160
t-144 -238l-12 12q78 150 130 274q50 124 70 224q86 -37 88 -44q1 -7 -4 -10q-4 -1 -22 -8v0v0zM190 974l78 -30q5 -4 8 -10q0 -3 -6 -8l-30 -18v-148q60 -23 90 -46q29 -22 38 -46t-2 -42q-11 -19 -28 -16q-16 3 -22 24t-18 46q-10 24 -58 58v-574l4 -107q0 -12 -20 -24
q-21 -12 -38 -10l4 135v816v0v0zM118 736h20q3 -107 -2 -148q-4 -39 -22 -66q-18 -28 -42 -28t-30 16q-7 14 4 28q11 15 26 30q11 15 26 48q11 30 20 120v0v0z" />
  </g>

</svg>
