<?xml version="1.0" standalone="no"?>
<!DOCTYPE svg PUBLIC "-//W3C//DTD SVG 1.1//EN" "http://www.w3.org/Graphics/SVG/1.1/DTD/svg11.dtd" >
<svg xmlns="http://www.w3.org/2000/svg" xmlns:xlink="http://www.w3.org/1999/xlink" version="1.1" viewBox="0 -205 1024 1024">
  <g transform="matrix(1 0 0 -1 0 819)">
   <path fill="currentColor"
d="M640 848q57 -24 64 -30q3 -5 4 -10q-1 -5 -16 -10q-13 -3 -56 -54q-43 -49 -116 -146l340 18q-39 61 -96 122l10 12q57 -40 88 -64q29 -24 50 -50q20 -24 26 -48q7 -23 -4 -40q-10 -19 -28 -16q-18 0 -24 18q-3 16 -14 44q-203 -21 -268 -30q-66 -9 -110 -32l-42 68
q21 0 46 12q71 95 146 236v0v0zM432 884h418l38 48l62 -56q3 -4 4 -10q-1 -7 -16 -8h-422q-21 0 -68 -8l-16 34v0v0zM456 354h200v202l84 -28q9 -3 10 -12q0 -3 -8 -6l-36 -18v-138h120l36 48l60 -58q3 -4 4 -10q1 -7 -16 -8h-204v-217h174l40 51l62 -63q6 -3 6 -10
q-1 -6 -16 -6h-504q-21 1 -66 -10l-18 38h272v217h-112q-21 0 -68 -8l-20 36v0v0zM20 538q81 122 138 236q54 111 70 160l72 -30q4 -6 0 -12q-5 -3 -16 -6q-9 -4 -24 -22q71 -33 116 -60q42 -25 54 -50q12 -24 4 -42q-9 -18 -26 -18q-15 -1 -30 26q-13 27 -44 60
q-29 33 -82 66q-42 -78 -90 -150q-45 -72 -128 -168l-14 10v0v0zM126 622h178l34 46l56 -56q6 -12 -2 -18h-132v-138h60l36 44l52 -52q15 -12 0 -20h-148v-286l168 32l6 -20q-120 -31 -198 -53q-78 -18 -114 -36q-36 -17 -60 -38l-38 72l188 36v293h-90q-21 0 -56 -8l-16 36
h162v138h-46l-20 -6l-20 34v0v0zM56 364l12 10q57 -49 78 -80q20 -30 22 -60q1 -29 -16 -40q-16 -10 -28 -4q-13 6 -14 28q0 22 -8 56q-7 33 -46 90v0v0zM272 200q50 72 100 168l60 -42q3 -9 -2 -12q-7 -4 -20 -4q-13 -1 -46 -38q-31 -37 -80 -82l-12 10v0v0z" />
  </g>

</svg>
