<?xml version="1.0" standalone="no"?>
<!DOCTYPE svg PUBLIC "-//W3C//DTD SVG 1.1//EN" "http://www.w3.org/Graphics/SVG/1.1/DTD/svg11.dtd" >
<svg xmlns="http://www.w3.org/2000/svg" xmlns:xlink="http://www.w3.org/1999/xlink" version="1.1" viewBox="0 -143 1024 1024">
  <g transform="matrix(1 0 0 -1 0 881)">
   <path fill="currentColor"
d="M73 747h241v203q2 15 -30 44l8 11l100 -34q14 -6 6 -11q-19 -8 -31 -20v-193h272v210q2 15 -30 44l8 11l100 -34q14 -6 6 -11q-19 -8 -31 -20v-200h127l35 47l77 -56q18 -15 -13 -17h-226v-299h181l38 48l76 -59q17 -14 -9 -15h-874q-27 0 -47 -13l-32 39h289v299h-161
q-27 0 -48 -13zM367 422h272v299h-272v-299zM635 329q108 -46 196.5 -115t107.5 -114q18 -43 -3 -61q-26 -18 -50 27q-24 48 -91 115q-65 67 -168 132z" />
  </g>

</svg>
