<?xml version="1.0" standalone="no"?>
<!DOCTYPE svg PUBLIC "-//W3C//DTD SVG 1.1//EN" "http://www.w3.org/Graphics/SVG/1.1/DTD/svg11.dtd" >
<svg xmlns="http://www.w3.org/2000/svg" xmlns:xlink="http://www.w3.org/1999/xlink" version="1.1" viewBox="0 -36 256 256">
  <g transform="matrix(1 0 0 -1 0 220)">
   <path fill="currentColor"
d="M73 247l20 -9l-6 -9v-9h20l10 10l13 -16h-43v-17h25l12 11l13 -17h-85q-15 -1 -24 -3l-9 9h55v16h-16q-10 -1 -19 -3l-9 10h44q0 16 -1 27zM101.5 175q-3.5 -4 -8.5 -10h12l9 10l13 -17h-40v-16h25l10 10l13 -17h-48q0 -11 1 -24l-15 -7q1 16 1 31h-26q-10 -1 -19 -2
l-9 9h54v16h-16q-10 -1 -19 -3l-9 10h33q-4 14 -11 24l3 3q15 -8 16 -13.5t-3 -13.5h19q8 15 11 27l12 -11q-5 -2 -8.5 -6zM220 136l12 27l4 -1q-6 -31 -8 -49q-17 7 -25.5 23.5t-7.5 64.5h-20q0 -14 -7 -42q14 -5 18.5 -11t2.5 -13t-8.5 0t-16.5 14q-9 -22 -37 -41l-2 2
q19 20 29 46q-7 5 -20 13l1 3q15 -4 21 -7q6 21 6 36h-6q-10 -1 -18 -3l-9 9h33q0 25 -1 38l19 -8l-5 -7v-22h18l9 11l12 -14l-7 -7q-4 -47 13 -62zM216 113l13 -13q-13 -1 -32 -17l-3 2l10 14h-71v-28h44l13 10l15 -17h-72v-34q44 -4 109 2v-3q-22 -5 -24 -16
q-76 0 -105 7.5t-46 23.5q-15 -24 -51 -38l-2 5q42 20 54 79l17 -10q-8 -8 -15 -28q28 -16 50 -20v67h-66q-11 0 -20 -2l-9 9h181z" />
  </g>

</svg>
