<?xml version="1.0" standalone="no"?>
<!DOCTYPE svg PUBLIC "-//W3C//DTD SVG 1.1//EN" "http://www.w3.org/Graphics/SVG/1.1/DTD/svg11.dtd" >
<svg xmlns="http://www.w3.org/2000/svg" xmlns:xlink="http://www.w3.org/1999/xlink" version="1.1" viewBox="0 -200 1000 1000">
  <g transform="matrix(1 0 0 -1 0 800)">
   <path fill="currentColor"
d="M579 993l69 -36l-22 -66v-86h130v188l68 -32l-20 -69v-87h32l41 45l58 -69h-131v-461h49l45 47l57 -72h-428l-49 -11l-13 35h114v462h-40l-44 -12l-18 36h102v188zM626 781v-129h130v129h-130zM626 627v-133h130v133h-130zM626 470v-151h130v151h-130zM628 269l60 -54
l-31 -22q-24 -24 -54.5 -52.5t-63.5 -55.5t-67 -49t-64 -32l-3 4q32 26 66 57.5t64 65.5t54.5 69t38.5 69zM750 267q35 -29 66 -54t53.5 -49.5t35.5 -49.5t13 -53q0 -15 -1 -16v-2q-6 -15 -14 -20.5t-14 -5.5q-22 0 -35 39q-12 73 -41 122.5t-63 88.5zM126 548l62 -38h170
l39 48l49 -54l-28 -44v-376q-1 -27 -15 -53t-37 -32q-2 8 -5 18.5t-10.5 22t-22.5 22t-41 18.5l2 10q10 -9 23 -11t25 -2q4 0 8.5 0.5t8.5 0.5q9 0 11 9t2 20v103h-191v-164q-3 -12 -17.5 -21t-28.5 -9h-4v532zM176 234h191v116h-191v-116zM367 374v113h-181l-10 -26v-87
h191zM181 680l-99 -75l-36 42l135 43v124h-53l-41 -12l-21 35h115v163l62 -31l-15 -67v-313q-12 -11 -21 -15t-26 -4v110zM350 575q-36 0 -47 18.5t-12 51.5v355l60 -34l-12 -62v-122q38 51 56.5 89.5t30.5 62.5l38 -78l-34 -13l-91 -78v-95q0 -15 1 -24t4 -13.5t7 -6
t10 -2.5h60q17 0 25 10t11.5 23.5t4 28t2.5 24.5l6 -15v-11q0 -28 7 -42t16 -20t16 -7.5t7 -5.5v-1q-6 -21 -25.5 -27.5t-36.5 -6.5q-14 0 -15 1h-89z" />
  </g>

</svg>
