<?xml version="1.0" standalone="no"?>
<!DOCTYPE svg PUBLIC "-//W3C//DTD SVG 1.1//EN" "http://www.w3.org/Graphics/SVG/1.1/DTD/svg11.dtd" >
<svg xmlns="http://www.w3.org/2000/svg" xmlns:xlink="http://www.w3.org/1999/xlink" version="1.1" viewBox="0 -205 1024 1024">
  <g transform="matrix(1 0 0 -1 0 819)">
   <path fill="currentColor"
d="M360 920h450l38 46l58 -54l2 -4q0 -12 -12 -12h-246v-90h210l26 34q63 -46 64 -52q0 -4 -14 -8q-12 -3 -32 -14q-20 -13 -52 -46l-12 8l26 54h-216v-116l4 -78q0 -16 -20 -28t-40 -12l4 126v108h-196q-3 -36 -18 -62q-12 -24 -38 -32q-24 -6 -32 12q-9 18 16 36
q23 17 34 40q9 20 18 74h16l2 -44h198v90h-178q-19 0 -44 -8l-16 32v0v0zM402 710h150v-26h-150v26v0v0zM402 616h154v-26h-154v26v0v0zM696 714h142v-26h-142v26v0v0zM696 616h142v-26h-142v26v0v0zM390 546l54 -38h354l30 38l58 -42q6 -3 6 -6q0 -6 -30 -30v-188l4 -82
q0 -10 -14 -22q-15 -13 -38 -16v60h-376v-28q0 -13 -14 -26q-15 -12 -38 -12l4 124v268v0v0zM438 244h158v114h-158v-114v0v0zM648 244h166v114h-166v-114v0v0zM438 384h158v98h-158v-98v0v0zM648 482v-98h166v98h-166v0v0zM102 946q65 -33 98 -56q32 -21 46 -42
q12 -21 12 -38q-1 -18 -14 -30q-12 -13 -30 -10q-17 3 -22 30q-4 26 -28 56q-21 30 -72 78l10 12v0v0zM38 564h140l34 42l54 -42q12 -7 12 -14q0 -3 -36 -32v-296q39 -61 94 -83q52 -24 116 -28h92h274q87 4 180 16v-24q-33 -6 -56 -12q-24 -5 -36 -34h-348q-89 4 -136 14
q-48 10 -96 32t-74 59q-25 38 -40 38q-12 -2 -54 -55q-39 -54 -62 -100l-60 40q66 66 154 141v310h-74q-28 1 -52 -10l-26 38v0v0z" />
  </g>

</svg>
