<?xml version="1.0" standalone="no"?>
<!DOCTYPE svg PUBLIC "-//W3C//DTD SVG 1.1//EN" "http://www.w3.org/Graphics/SVG/1.1/DTD/svg11.dtd" >
<svg xmlns="http://www.w3.org/2000/svg" xmlns:xlink="http://www.w3.org/1999/xlink" version="1.1" viewBox="0 -205 1024 1024">
  <g transform="matrix(1 0 0 -1 0 819)">
   <path fill="currentColor"
d="M388 976l64 -46h426l30 44l64 -46q6 -6 6 -8q-1 -7 -34 -34v-700l4 -109q-1 -12 -16 -24q-16 -9 -40 -12v80h-452v-52q0 -14 -20 -26q-18 -12 -36 -12l4 137v808v0v0zM440 146h452v758h-452v-758v0v0zM462 772h306l30 34l56 -40q3 -3 4 -8q0 -10 -12 -10h-170v-184h68
l36 44l54 -54q2 -3 2 -8q4 -7 -4 -8h-156v-248h98l36 40q60 -48 64 -56q2 -10 -10 -10h-324q-21 0 -68 -8l-16 34h174v248h-50q-21 0 -68 -8l-16 34h134v184h-96q-21 1 -54 -10l-18 34v0v0zM700 494l10 12q65 -37 86 -62q20 -25 20 -44t-8 -32q-9 -13 -26 -10q-15 2 -20 26
q-4 24 -16 52q-13 27 -46 58v0v0zM74 912l56 -40h114l32 40l54 -38q12 -6 12 -14q-1 -3 -34 -30v-394l4 -100q0 -12 -14 -24q-16 -13 -40 -16v68h-134v-88q0 -12 -20 -24q-19 -12 -34 -12l4 150v522v0v0zM124 394h134v448h-134v-448v0v0z" />
  </g>

</svg>
