<?xml version="1.0" standalone="no"?>
<!DOCTYPE svg PUBLIC "-//W3C//DTD SVG 1.1//EN" "http://www.w3.org/Graphics/SVG/1.1/DTD/svg11.dtd" >
<svg xmlns="http://www.w3.org/2000/svg" xmlns:xlink="http://www.w3.org/1999/xlink" version="1.1" viewBox="0 -154 1024 1024">
  <g transform="matrix(1 0 0 -1 0 870)">
   <path fill="currentColor"
d="M503 962l40 -40h350l39 39l46 -47q14 -12 -6 -17l-18 -9v-208l5 -59q-2 -19 -14 -25q-12 -8 -33 -8v30h-360v-3q0 -21 -12 -30t-37 -14q4 36 7 132v206q2 15 -19 37zM552 552l33 -31h275l26 35l52 -34q18 -13 0 -19l-20 -13v-401q0 -23 -12 -44t-71 -30q-4 35 -46 44
l-81 17l2 14q113 -17 132 -17q20 0 27 6t7 68v103h-281v-90l5 -97q0 -21 -14 -31q-15 -9 -40 -15q4 39 7 208v288q-8 21 -17 27zM168 716q77 -32 133 -63q14 19 28 40q37 57 64 123h-195q-72 -120 -144 -177l-9 11q53 61 93 127q41 64 60 117q20 51 20 63t-10 25l9 8l70 -32
q15 -12 7 -15q-22 -3 -34 -14q-26 -51 -50 -93h169l27 34l52 -47q9 -9 -2 -12q-11 -1 -17 -7q-5 -6 -19 -35q-15 -30 -51 -85q-16 -27 -35 -51l4 -2q64 -44 103 -84q39 -42 41 -66q2 -25 -15 -31q-16 -6 -51 49q-35 54 -98 102l-6 4l-23 -24q-45 -48 -112 -94
q-66 -48 -147 -77l-8 14q63 30 119 73q57 42 103 91l36 40q-51 35 -118 74zM876 501h-281v-111h281v111zM595 374v-108h281v108h-281zM552 902v-124h161v124h-161zM552 762v-124h161v124h-161zM912 902h-161v-124h161v124zM751 762v-124h161v124h-161zM162 220
q68 -4 137 -31q69 -26 101 -68q32 -43 14 -67q-19 -24 -47 21q-28 46 -84 81q-57 37 -124 50zM197 447q61 -14 106 -47q44 -36 53 -73q8 -39 -14 -47q-21 -9 -29 25q-10 31 -38 70q-29 40 -80 60z" />
  </g>

</svg>
