<?xml version="1.0" standalone="no"?>
<!DOCTYPE svg PUBLIC "-//W3C//DTD SVG 1.1//EN" "http://www.w3.org/Graphics/SVG/1.1/DTD/svg11.dtd" >
<svg xmlns="http://www.w3.org/2000/svg" xmlns:xlink="http://www.w3.org/1999/xlink" version="1.1" viewBox="0 -36 256 256">
  <g transform="matrix(1 0 0 -1 0 220)">
   <path fill="currentColor"
d="M99 227h-46q-11 0 -21 -2l-9 9h78l11 9l12 -17q-8 1 -40 -18q10 -8 2 -16h24l6 9l15 -15q-9 -2 -29 -24l-3 2l11 21h-23v-39q-1 -16 -19 -21q1 11 -24 16l1 5q15 -3 22 -3t7 8v29q-31 -33 -64 -49l-2 3q35 26 53 51h-20q-11 0 -20 -2l-10 9h63q0 10 -20 27l2 3
q15 -5 24 -11zM59 51h20v22h-20v-22zM20 69.5q0 42.5 -1 60.5l12 -7h75l7 9l13 -12l-7 -6v-85q-1 -17 -20 -22q2 12 -21 17v4q19 -2 24 -1.5t5 7.5v82h-19v-12t1.5 -8t19.5 -3l-1 -10q-18 0 -23.5 3.5t-6 10.5t-0.5 19h-46v-34q12 6 17 16t4 21h11q-1 -24 -13 -32l7 -7h21
l7 9l10 -13l-6 -5q0 -17 1 -29l-12 -5v7h-20v-8l-12 -5q1 17 1 31t-1 22q-8 -4 -15 -7v-61l-13 -6q1 17 1 59.5zM243 78l3 -1q-4 -52 -1 -72q-32 20 -46 70q-25 -35 -51 -59l-3 5q29 29 49 67q-7 31 -8 93h-37q0 -52 -2.5 -94.5t-24.5 -79.5l-3 2q14 36 16 90.5t0 96.5
l15 -8h36q0 43 -1 59l20 -10l-6 -7v-42h21l13 11l15 -18h-49q1 -40 5 -75q8 17 12 28.5t7 27.5l17 -14l-7 -5q-10 -24 -25 -52q6 -33 24 -58zM228.5 231q5.5 -4 8.5 -10t-2.5 -14t-7.5 1t-15 29l1 3q10 -5 15.5 -9zM154 137q25 -12 26 -24t-4.5 -16t-8.5 10t-14 28z" />
  </g>

</svg>
