<?xml version="1.0" standalone="no"?>
<!DOCTYPE svg PUBLIC "-//W3C//DTD SVG 1.1//EN" "http://www.w3.org/Graphics/SVG/1.1/DTD/svg11.dtd" >
<svg xmlns="http://www.w3.org/2000/svg" xmlns:xlink="http://www.w3.org/1999/xlink" version="1.1" viewBox="0 -205 1024 1024">
  <g transform="matrix(1 0 0 -1 0 819)">
   <path fill="currentColor"
d="M310 676h440v306l76 -30q9 -9 0 -14q-7 -6 -28 -18v-244h78l38 48l62 -58q2 -3 2 -6q0 -12 -12 -12h-166q3 -100 6 -148q4 -49 14 -134q20 44 40 112q17 68 26 122q75 -31 76 -38q1 -6 -4 -8q-4 0 -16 -6q-13 -6 -34 -72q-22 -67 -70 -172q18 -60 36 -90q15 -30 36 -56
q21 -23 30 8q8 32 26 124l20 -4q-6 -73 -12 -118q-6 -44 4 -69q8 -24 16 -36q6 -10 -2 -20q-7 -8 -32 4q-23 11 -52 40t-58 73q-27 46 -42 86q-24 -39 -72 -96q-49 -55 -134 -113l-12 12q69 64 114 117q44 52 82 134q-18 118 -24 182q-5 63 -10 166h-124v-102h32l30 34
q45 -40 48 -46q4 -6 2 -8q-3 -4 -14 -4h-98v-84h48l26 36q42 -42 46 -48q3 -5 0 -10q-3 -4 -14 -2h-106v-82h54l32 38q45 -43 48 -52q3 -7 -2 -8q-6 -1 -20 -2h-112v-90l90 14l2 -18q-225 -55 -282 -71q-55 -14 -88 -44l-36 65l146 24v104h-64q-22 0 -34 -6l-22 32h120v90
h-38q-24 0 -42 -6l-18 30h98v88h-62q-21 2 -42 -4l-16 28h120v104h-82q-21 0 -44 -8l-24 36v0v0zM508 196l72 12v440h-72v-452v0v0zM824 890l6 14q63 -28 94 -52q27 -23 30 -46q3 -24 -8 -36q-12 -13 -26 -10q-12 2 -18 20q-5 15 -16 42q-12 23 -62 68v0v0zM448 980
q65 -30 68 -36q0 -6 -2 -8q-1 -3 -14 -8q-13 -3 -22 -20q-7 -15 -26 -54q39 -25 58 -50q16 -24 14 -42q-1 -15 -10 -24t-24 -6q-15 4 -18 38q0 32 -30 68q-29 -70 -88 -148l-16 8q77 159 110 282v0v0zM622 974q71 -30 74 -36q3 -3 0 -6t-20 -8q-16 -6 -22 -18
q-7 -12 -32 -66q50 -31 68 -52q15 -19 16 -38q0 -17 -8 -28q-9 -10 -24 -8q-15 3 -20 36q-6 33 -44 72q-22 -54 -82 -138l-16 8q80 165 110 282v0v0zM360 904q5 -6 2 -12q-1 -2 -16 -4q-21 -3 -48 -30q-45 -45 -74 -78q37 -69 56 -158q18 -87 24 -158q6 -69 4 -156t-22 -158
q-21 -70 -102 -103q-3 38 -42 54q-36 13 -78 26l4 18q101 -27 136 -16q33 9 46 83t14 184q-1 111 -16 192q-63 -147 -198 -290l-12 8q126 172 192 356q-16 57 -34 94q-76 -76 -158 -118l-10 10q53 50 154 140q-57 84 -120 144l10 10q75 -51 132 -126q54 62 96 134l60 -46v0
v0z" />
  </g>

</svg>
