<?xml version="1.0" standalone="no"?>
<!DOCTYPE svg PUBLIC "-//W3C//DTD SVG 1.1//EN" "http://www.w3.org/Graphics/SVG/1.1/DTD/svg11.dtd" >
<svg xmlns="http://www.w3.org/2000/svg" xmlns:xlink="http://www.w3.org/1999/xlink" version="1.1" viewBox="0 -205 1024 1024">
  <g transform="matrix(1 0 0 -1 0 819)">
   <path fill="currentColor"
d="M436 952l46 -34q6 -6 6 -8q0 -9 -24 -24v-114l4 -84q1 -13 -16 -26q-15 -12 -36 -14v34h-252v-8q1 -13 -16 -22q-18 -7 -36 -8l4 94v220l54 -36h236l30 30v0v0zM164 708h252v82h-252v-82v0v0zM164 814h252v84h-252v-84v0v0zM46 594h408l24 36l48 -44q3 -4 4 -10
q1 -7 -16 -8h-380q-21 0 -68 -8l-20 34v0v0zM232 666l4 10q49 -7 68 -20q18 -9 22 -24t-4 -24q-6 -10 -20 -10q-12 1 -18 14q-3 12 -12 24q-7 12 -40 30v0v0zM458 464v-56l4 -62q2 -10 -16 -22q-16 -10 -34 -10v44h-94v-219q3 -38 -12 -58q-13 -22 -52 -38q-7 30 -38 48
q-28 16 -64 28l6 18q42 -11 64 -16q21 -4 36 -2q16 0 14 21v218h-104v-16q0 -12 -18 -20q-16 -10 -34 -10l4 94v132l52 -34h232l22 26q56 -30 58 -36q0 -5 -2 -10q-3 -3 -24 -20v0v0zM166 386h246v92h-246v-92v0v0zM354 276l8 12q74 -35 104 -58q30 -21 36 -44q4 -24 -6 -36
q-12 -11 -26 -8q-13 3 -22 28q-6 23 -24 44q-17 20 -70 62v0v0zM168 294q54 -28 58 -34q4 -5 0 -10q-3 -3 -18 -6q-13 0 -56 -54q-42 -53 -108 -121l-12 10q86 112 136 215v0v0zM708 642q83 -28 86 -34q0 -6 -2 -8q-3 0 -32 -18v-138q-6 -151 -54 -224q-45 -73 -108 -115
q-62 -42 -148 -76l-6 16q73 36 134 90q59 50 94 117q33 64 36 170v220v0v0v0zM574 766l52 -34h50l40 150h-104q-21 0 -60 -8l-20 36h332l38 46l54 -52q2 -3 8 -8q4 -13 -6 -14h-182l-78 -150h132l24 40l66 -40l4 -8q1 -6 -28 -32v-262l4 -90q0 -15 -18 -24q-15 -9 -42 -12
l4 122v280h-220v-292l4 -86q3 -15 -20 -30q-21 -12 -38 -12l4 124v356v0v0zM736 242l8 14q45 -17 100 -52q54 -37 76 -65q21 -30 16 -54q-4 -23 -22 -26q-18 0 -32 20q-15 21 -30 48q-15 24 -38 51q-24 26 -78 64v0v0z" />
  </g>

</svg>
