<?xml version="1.0" standalone="no"?>
<!DOCTYPE svg PUBLIC "-//W3C//DTD SVG 1.1//EN" "http://www.w3.org/Graphics/SVG/1.1/DTD/svg11.dtd" >
<svg xmlns="http://www.w3.org/2000/svg" xmlns:xlink="http://www.w3.org/1999/xlink" version="1.1" viewBox="0 -205 1024 1024">
  <g transform="matrix(1 0 0 -1 0 819)">
   <path fill="currentColor"
d="M320 636q75 87 132 172q53 84 98 166q69 -31 72 -40q3 -7 -6 -8t-30 -14q-19 -13 -38 -40h196l28 36q65 -48 68 -54q0 -7 -6 -10l-24 -4q-19 -1 -88 -80h170l40 46q60 -49 66 -58q4 -6 -6 -12h-540v-156q0 -156 -12 -246q-12 -88 -54 -166q-40 -77 -130 -153l-10 14
q82 93 110 165q28 70 38 158q10 87 8 214v122q-36 -35 -72 -64l-10 12v0v0zM464 760h232l48 88h-212q-30 -41 -68 -88v0v0zM466 546h444l36 38q57 -48 60 -54t-8 -8h-454q-20 1 -52 -10l-26 34v0v0zM528 312l56 -38h270l28 34l54 -40q8 -6 8 -14q1 -4 -28 -26v-101l4 -66
q0 -11 -14 -20q-15 -10 -42 -14v58h-284v-32q0 -12 -20 -24q-21 -12 -36 -12l4 114v181v0v0zM580 109h284v141h-284v-141v0v0zM532 456h302l34 34q52 -39 56 -48q3 -7 -8 -10h-312q-21 0 -44 -12l-28 36v0v0zM530 364h306l32 34q53 -43 56 -50q3 -6 -8 -8h-314
q-21 3 -48 -12l-24 36v0v0zM592 726q63 -24 64 -32q-1 -7 -8 -8t-20 -4q-11 -3 -40 -30q-29 -28 -100 -82l-12 12q74 78 116 144v0v0zM768 708l6 12q53 -21 86 -38q33 -15 48 -36q14 -19 8 -40q-5 -21 -22 -24q-17 -1 -28 22q-9 23 -24 44t-74 60v0v0zM662 662l6 10
q57 -21 78 -38q18 -17 22 -34q3 -17 -6 -28q-9 -13 -26 -10q-15 2 -20 22q-5 17 -16 38q-9 18 -38 40v0v0zM86 856l56 -40h98l32 40l54 -38q12 -6 12 -14q-1 -3 -34 -30v-390l4 -100q0 -12 -14 -24q-16 -13 -40 -16v88h-118v-92q0 -12 -20 -24q-19 -12 -34 -12l4 134v518v0
v0zM136 362h118v424h-118v-424v0v0z" />
  </g>

</svg>
