<?xml version="1.0" standalone="no"?>
<!DOCTYPE svg PUBLIC "-//W3C//DTD SVG 1.1//EN" "http://www.w3.org/Graphics/SVG/1.1/DTD/svg11.dtd" >
<svg xmlns="http://www.w3.org/2000/svg" xmlns:xlink="http://www.w3.org/1999/xlink" version="1.1" viewBox="0 -200 1000 1000">
  <g transform="matrix(1 0 0 -1 0 800)">
   <path fill="currentColor"
d="M529 538q-12 -4 -52 -16l-3 11q104 44 188 120q-44 47 -70 88q-37 -55 -104 -104l-7 3q45 54 85 122q35 63 52 126l55 -33l-18 -14l-19 -26l-11 -21h152l30 27l37 -50l-24 -7l-100 -111q46 -29 87 -47q44 -20 97 -24v-9q-38 -3 -54 -40q-42 18 -85 44q-31 18 -73 49
q-50 -41 -104 -63l-7 -7q-23 -9 -52 -18zM142 529v231l43 -26h51v87h-17q-46 0 -80 -10l-30 30h291l37 37l58 -57h-125v-87h40l27 30l47 -41l-19 -12v-145l-41 -24v24h-241v-17zM273 821v-87h60v87h-60zM770 771h-155l-13 -14q23 -25 45 -45q28 -26 42 -38q47 50 81 97z
M183 714v-128h53v128h-53zM273 714v-128h60v128h-60zM370 714v-128h54v128h-54zM685 488q-9 20 -43 64l6 7q48 -21 63 -32q18 -13 18 -28q0 -5 -3 -11q-4 -8 -7 -11l-8 -10q-4 -4 -9 -4q-7 0 -17 25zM803 442l41 33l43 -50h-161v-70h61l30 30l46 -47h-137v-74h61l33 30
l47 -50h-141v-71h91l40 27l50 -47h-342v-17l-44 -13l3 52q1 19 1 62v137q-16 -19 -57 -60l-7 7q32 51 57 105q22 47 44 114l67 -31l-34 -13l-13 -28l-13 -26h234zM148 489h219l43 40l55 -61h-206q-43 0 -80 -9zM192 193q62 -9 77 -9q14 0 14 23v171h-64q-46 0 -80 -10
l-30 30h285l40 37l54 -57h-164v-185q0 -13 -2 -27q-3 -11 -10 -18q-7 -8 -18 -12q-9 -5 -31 -13q0 15 -16 30q-15 13 -55 30v10zM683 355v70h-118v-70h118zM122 191q11 17 31 55q13 25 28 58q14 30 21 57l57 -40q-16 -8 -34 -30q-17 -19 -39 -47l-41 -53q-25 -30 -43 -48
l-10 3zM361 341q37 -26 53 -39q19 -16 32 -29q13 -16 16 -24q4 -9 4 -23q0 -19 -9 -27q-11 -9 -13 -9q-7 0 -14 13q-5 8 -9 16.5t-8 15.5l-26 46q-17 29 -37 53zM683 264v74h-118v-74h118zM683 173v71h-118v-71h118z" />
  </g>

</svg>
