<?xml version="1.0" standalone="no"?>
<!DOCTYPE svg PUBLIC "-//W3C//DTD SVG 1.1//EN" "http://www.w3.org/Graphics/SVG/1.1/DTD/svg11.dtd" >
<svg xmlns="http://www.w3.org/2000/svg" xmlns:xlink="http://www.w3.org/1999/xlink" version="1.1" viewBox="0 -205 1024 1024">
  <g transform="matrix(1 0 0 -1 0 819)">
   <path fill="currentColor"
d="M292 736h286v78l82 -24q6 -4 6 -10q1 -3 -34 -18v-26h250l38 40l60 -48q3 -4 4 -10q3 -10 -8 -10h-344l-4 -86h176l30 36l54 -42q9 -6 10 -12q-1 -7 -34 -28v-40l4 -60q0 -17 -20 -28q-22 -10 -34 -10v40h-196q-5 -45 -16 -96h260l28 32q63 -46 64 -52q1 -7 -4 -10
q-3 -1 -32 -16q-7 -55 -16 -82q-7 -24 -28 -42q-19 -17 -52 -28q-9 33 -26 42q-15 8 -62 26l6 18q44 -13 68 -16q22 -3 38 6q15 8 24 94h-240q36 -93 88 -146q50 -55 116 -77q65 -23 170 -26v-20q-51 0 -72 -12q-18 -12 -30 -30q-66 16 -128 58q-61 39 -104 101
q-40 59 -64 152h-10q-27 -112 -92 -172q-66 -59 -138 -101q-71 -40 -172 -66l-6 18q89 30 158 74q65 41 122 101q57 58 78 146h-170l-28 -30l-52 54l36 18l52 160l36 -50h148l6 88h-164q-30 0 -54 -8l-26 36h244l6 86h-204q-18 0 -66 -8l-18 36v0v0zM626 594l-6 -88h194v88
h-188v0v0zM550 382l10 46l6 50h-156l-36 -96h176v0v0zM878 850l42 54l64 -62q3 -9 4 -8q-1 -10 -10 -10h-724v-236q-4 -246 -56 -368q-51 -119 -138 -187l-8 12q73 84 110 185q36 98 42 278q-114 -97 -132 -136l-44 46l176 120v358l52 -46h622v0v0zM490 984l8 12
q42 -20 70 -34q27 -14 42 -34q16 -21 8 -42q-9 -22 -30 -22t-26 24q-6 24 -20 46q-14 19 -52 50v0v0zM46 762l10 8q54 -45 78 -74q23 -28 28 -52t-4 -42q-10 -18 -22 -20q-13 -1 -22 8t-8 36q0 27 -12 58q-12 30 -48 78v0v0z" />
  </g>

</svg>
