<?xml version="1.0" standalone="no"?>
<!DOCTYPE svg PUBLIC "-//W3C//DTD SVG 1.1//EN" "http://www.w3.org/Graphics/SVG/1.1/DTD/svg11.dtd" >
<svg xmlns="http://www.w3.org/2000/svg" xmlns:xlink="http://www.w3.org/1999/xlink" version="1.1" viewBox="0 -205 1024 1024">
  <g transform="matrix(1 0 0 -1 0 819)">
   <path fill="currentColor"
d="M674 588q27 -141 60 -210q31 -69 68 -122q36 -51 84 -90q45 -37 90 -51v-16q-32 2 -52 -6q-21 -6 -44 -24q-72 78 -116 151q-45 72 -72 154q-28 81 -44 208l-142 -22v-439l140 69q-19 30 -52 78l10 10q72 -57 102 -90q29 -33 32 -61q1 -27 -16 -42q-15 -12 -30 -6
q-14 7 -16 32q0 24 -18 59q-46 -26 -100 -61q-55 -33 -76 -72l-54 50q12 6 30 24v439l-154 -20v-52q3 -88 -14 -178q-15 -88 -66 -158q-48 -66 -164 -129l-10 14q99 72 138 133q38 60 52 138q15 78 12 180v112l58 -38q270 54 408 108q48 -46 52 -52q4 -5 0 -10q-6 -3 -18 -2
t-26 0q-14 -3 -52 -8v0v0zM440 714v-10q-3 -7 -24 -2q-19 3 -92 -30q-73 -34 -238 -88l-6 16q135 61 198 98q64 35 104 70l58 -54v0v0zM580 760q146 -24 214 -48q65 -24 86 -42q20 -18 20 -38q0 -21 -18 -26q-18 -6 -32 6q-13 13 -38 32t-76 44q-51 23 -162 56l6 16v0v0z
M866 846l36 38l54 -46q14 -10 14 -20q0 -4 -12 -8q-27 -1 -54 -22t-60 -56l-16 12l44 78h-684q-3 -64 -26 -92q-24 -26 -44 -28q-19 0 -28 12q-7 12 -2 24t26 24q17 13 32 38q14 24 22 82h18v-36h680v0v0zM422 974l8 14q72 -24 100 -38q27 -15 34 -38q7 -21 -4 -38
q-12 -16 -30 -14q-16 3 -22 18q-3 15 -12 28q-7 10 -22 26q-14 15 -52 42v0v0z" />
  </g>

</svg>
