<?xml version="1.0" standalone="no"?>
<!DOCTYPE svg PUBLIC "-//W3C//DTD SVG 1.1//EN" "http://www.w3.org/Graphics/SVG/1.1/DTD/svg11.dtd" >
<svg xmlns="http://www.w3.org/2000/svg" xmlns:xlink="http://www.w3.org/1999/xlink" version="1.1" viewBox="0 -36 256 256">
  <g transform="matrix(1 0 0 -1 0 220)">
   <path fill="currentColor"
d="M129 103l-14 -3v3h-20v-19h20l10 10l15 -17h-90l-6 -5l-16 11l8 5v47q0 22 -1 36l17 -9h54l13 11l18 -18h-43v-17h20l6 8l15 -11l-7 -6v-13q0 -8 1 -13zM115 131h-67v-21h67v21zM83 103h-35v-19h35v19zM81 155h-33v-17h33v17zM145 152l-8 9h70l7 6l18 -15l-9 -3
q-12 -20 -30 -38q19 -12 47 -18v-4q-17 -1 -20 -10q-22 12 -36 23q-21 -14 -48 -22l-2 5q24 9 42 26q-18 23 -24 44zM184 119q18 19 25 35h-51q8 -18 26 -35zM120 77l25 -8l-10 -6v-8h67l11 10l16 -17h-94v-26h79l12 10l16 -17h-194q-11 0 -21 -2l-10 9h105v26h-62
q-11 0 -21 -2l-10 9h93q0 17 -2 22zM220 208h-181q0 -16 -8.5 -20.5t-14 0t5 11.5t12.5 28h5v-12h86q-1 9 -5.5 15.5t-13.5 14.5l2 3q23 -8 29.5 -15t-4.5 -18h85l8 9l17 -16q-13 -2 -31 -19l-3 2zM91 215h14q5 -44 -83 -51v4q73 12 69 47zM166 215v-24q0 -12 18 -11h4
q25 -1 30.5 2.5t12 -1.5t3.5 -8.5t-29 -3.5h-28q-24 -2 -24 22v24h13z" />
  </g>

</svg>
