<?xml version="1.0" standalone="no"?>
<!DOCTYPE svg PUBLIC "-//W3C//DTD SVG 1.1//EN" "http://www.w3.org/Graphics/SVG/1.1/DTD/svg11.dtd" >
<svg xmlns="http://www.w3.org/2000/svg" xmlns:xlink="http://www.w3.org/1999/xlink" version="1.1" viewBox="0 -205 1024 1024">
  <g transform="matrix(1 0 0 -1 0 819)">
   <path fill="currentColor"
d="M404 944l54 -38h414l30 34l54 -40q15 -12 -2 -24l-18 -12v-82l4 -60q0 -12 -14 -18q-14 -7 -40 -10v36h-432v-16q-4 -9 -22 -18q-18 -7 -32 -8l4 86v170v0v0zM454 754h110v128h-110v-128v0v0zM612 754h112v128h-112v-128v0v0zM772 754h114v128h-114v-128v0v0zM762 678
q14 -6 2 -18q-20 -3 -34 -20q-12 -15 -36 -66h216l34 42l50 -50q3 -3 4 -8q0 -9 -8 -8h-138v-108h48l28 38l48 -48q3 -3 4 -8q-1 -7 -10 -8h-118v-112h48l34 40l48 -50q3 -3 4 -8q-1 -7 -10 -8h-124v-136h58l32 42l50 -49q3 -3 4 -10q-1 -7 -10 -8h-282v-48q3 -21 -14 -30
q-18 -14 -36 -14l4 131v368q-21 -37 -68 -92l-14 10q48 81 78 148q31 63 50 120l58 -32v0v0zM704 142h100v136h-100v-136v0v0zM704 304h100v112h-100v-112v0v0zM804 442v108h-100v-108h100v0v0zM782 710l6 10q63 -31 78 -50q14 -18 16 -36q0 -15 -8 -26q-10 -10 -26 -8
q-15 2 -18 20q-1 17 -10 34q-6 17 -38 56v0v0zM354 534l34 16q56 92 88 172l58 -30q9 -9 -2 -14q-18 -1 -36 -22q-15 -21 -84 -120l88 4q26 40 58 104l60 -40q5 -12 -10 -14q-12 -1 -24 -10q-12 -6 -62 -78q-49 -72 -98 -132l136 14q-13 28 -38 62l10 10q50 -35 70 -58
q21 -22 24 -44q5 -21 -4 -36q-6 -15 -24 -14q-16 0 -20 16q-3 14 -8 44q-66 -12 -108 -24q-41 -11 -70 -28l-28 52q23 6 38 18q26 42 86 136q-48 -7 -62 -16q-16 -7 -34 -20l-38 52v0v0zM404 274h22q3 -82 0 -118q-4 -35 -16 -61q-12 -24 -30 -30q-17 -6 -28 2q-12 9 -8 26
q2 19 20 34q16 13 26 51q10 36 14 96v0v0zM530 300l14 6q48 -43 66 -74q18 -30 18 -50q1 -19 -10 -34q-12 -12 -30 -8q-18 5 -18 32q0 23 -6 50q-5 27 -34 78v0v0zM454 288l14 4q34 -54 44 -80q9 -27 10 -48q1 -19 -10 -33q-10 -12 -28 -10q-18 4 -14 29q2 23 2 50
q0 24 -18 88v0v0zM286 694l40 -34q21 -10 4 -22l-12 -10v-192l4 -76q1 -13 -16 -26q-18 -12 -32 -14v36h-130v-219l128 71q-24 45 -60 90l10 10q60 -41 88 -76q27 -33 34 -54q6 -22 0 -39q-7 -19 -26 -20q-17 -1 -22 16q-6 14 -8 27q-1 12 -8 28q-97 -74 -118 -95
q-22 -19 -46 -50l-56 50q32 20 38 34v545q-30 -61 -74 -110l-14 8q57 98 90 176q34 77 92 236l64 -32q12 -7 4 -16q-27 -1 -42 -32q66 -30 90 -44q24 -15 36 -36q12 -19 6 -38q-5 -19 -22 -20q-18 -1 -26 20q-9 21 -26 42q-18 21 -68 60q-42 -102 -90 -188l34 -38h110l24 32
v0v0zM144 634v-112h130v112h-130v0v0zM144 496v-114h130v114h-130v0v0zM172 796l10 10q54 -33 70 -56q15 -21 10 -42q-7 -21 -20 -24q-12 -3 -20 0q-7 4 -10 26q-1 21 -10 42q-9 20 -30 44v0v0z" />
  </g>

</svg>
