<?xml version="1.0" standalone="no"?>
<!DOCTYPE svg PUBLIC "-//W3C//DTD SVG 1.1//EN" "http://www.w3.org/Graphics/SVG/1.1/DTD/svg11.dtd" >
<svg xmlns="http://www.w3.org/2000/svg" xmlns:xlink="http://www.w3.org/1999/xlink" version="1.1" viewBox="0 -36 256 256">
  <g transform="matrix(1 0 0 -1 0 220)">
   <path fill="currentColor"
d="M201 206l14 13l19 -20h-185q-10 0 -19 -2l-9 9h108q-3 21 -22 34l2 3q23 -7 30.5 -16t-4.5 -21h66zM138 17l-17 -7q1 24 1 38v89h-82q-10 0 -19 -2l-10 9h111v16q0 10 -1 28l24 -11l-8 -7v-26h72l14 13l20 -20h-106v-85q0 -11 1 -35zM210.5 55q-13.5 22 -61.5 54l3 4
q51 -23 66.5 -38.5t10.5 -28.5t-18.5 9zM102 104l-8 -4q-31 -41 -78 -67l-2 5q46 36 70 81z" />
  </g>

</svg>
