<?xml version="1.0" standalone="no"?>
<!DOCTYPE svg PUBLIC "-//W3C//DTD SVG 1.1//EN" "http://www.w3.org/Graphics/SVG/1.1/DTD/svg11.dtd" >
<svg xmlns="http://www.w3.org/2000/svg" xmlns:xlink="http://www.w3.org/1999/xlink" version="1.1" viewBox="0 -205 1024 1024">
  <g transform="matrix(1 0 0 -1 0 819)">
   <path fill="currentColor"
d="M492 582q15 -3 4 -18l-30 -14v-106h74l30 42l54 -50q3 -3 4 -8q0 -12 -12 -12h-150v-182l172 28l4 -20l-264 -66q-81 -24 -110 -51l-40 67l188 32v192h-80q-30 0 -56 -8l-20 36h156v164l76 -26v0v0zM806 940q9 -9 -2 -14q-13 -9 -20 -14q-5 -6 -22 -48q-15 -42 -42 -132
h192l32 48l56 -58q1 0 2 -6q0 -7 -8 -8h-96q-11 -125 -40 -244q-27 -118 -66 -184q23 -41 50 -70q26 -30 64 -56q38 -25 88 -37v-16q-40 -1 -58 -8q-19 -5 -38 -22q-42 45 -66 74q-25 28 -68 89q-41 -55 -118 -107q-75 -54 -186 -96l-8 14q99 52 168 104q69 49 120 131
q-33 80 -48 160q-12 78 -18 172q-42 -79 -66 -112l-12 8q46 105 80 232q33 126 54 234l76 -34v0v0zM846 706h-136q-9 -30 -18 -56q15 -105 34 -194q18 -87 42 -128q24 56 46 154q20 95 32 224v0v0zM252 902h318l36 42l44 -48q18 -19 -8 -22h-180q-64 -145 -118 -226l210 20
q-19 48 -52 96l14 10q48 -36 72 -66q26 -29 28 -58q2 -28 -10 -40q-13 -12 -26 -8q-12 2 -18 14q-4 9 -4 30l-140 -22q-61 -12 -98 -38l-44 62q27 7 48 20q43 76 80 206h-80q-21 -1 -50 -10l-22 38v0v0zM84 970l8 10q49 -16 80 -34q29 -18 46 -38q15 -21 18 -42
q3 -20 -8 -34q-9 -13 -24 -10q-14 3 -22 18q-6 14 -12 32q-6 17 -24 40q-18 24 -62 58v0v0zM148 424q-18 -55 -48 -58q-27 -4 -62 4l-2 -22q36 -6 54 -12q20 -6 28 -18q8 -10 14 -40q4 -30 -6 -90q-10 -57 -8 -87q3 -27 18 -36q14 -6 32 2q15 8 18 34q3 28 -6 89
q-8 63 -10 100q-1 35 2 62q3 23 16 68l106 394l-20 8l-126 -398v0v0zM34 728l8 16q55 -27 80 -42q24 -15 36 -30t16 -36q0 -22 -8 -34q-10 -13 -26 -10q-14 3 -22 18q-6 14 -12 32q-4 15 -14 30q-8 16 -58 56v0v0z" />
  </g>

</svg>
