<?xml version="1.0" standalone="no"?>
<!DOCTYPE svg PUBLIC "-//W3C//DTD SVG 1.1//EN" "http://www.w3.org/Graphics/SVG/1.1/DTD/svg11.dtd" >
<svg xmlns="http://www.w3.org/2000/svg" xmlns:xlink="http://www.w3.org/1999/xlink" version="1.1" viewBox="0 -205 1024 1024">
  <g transform="matrix(1 0 0 -1 0 819)">
   <path fill="currentColor"
d="M364 566h20v-28h512l28 32q62 -43 64 -50q3 -6 -2 -8q-4 -3 -22 -6q-19 -4 -40 -22q-18 -19 -48 -50l-14 8l40 72h-516q0 -43 -6 -64q-7 -19 -22 -28q-16 -7 -28 -4q-13 3 -16 18q-4 14 16 32q17 16 26 44q8 27 8 54v0v0zM338 574q80 45 112 96q32 50 32 136v170l70 -22
q10 -7 2 -14l-26 -12v-124q71 57 98 88l42 -38q7 -7 -4 -10q-22 -3 -34 -8q-13 -6 -104 -60q-4 -31 -10 -62q82 -31 98 -46q16 -13 20 -28q3 -16 -2 -28q-7 -12 -22 -12q-13 -2 -20 12q-6 14 -18 34q-9 20 -62 50q-13 -36 -44 -66q-30 -30 -122 -68l-6 12v0v0zM426 874
q2 -42 2 -72t-8 -54q-7 -24 -26 -30q-18 -6 -30 4q-12 9 -6 24q5 15 20 30q14 14 20 32q6 15 10 66h18v0v0zM716 868v-68q0 -30 -8 -50q-7 -19 -22 -26q-16 -7 -28 2q-13 9 -8 24q3 14 16 26q9 12 18 30q8 17 14 62h18v0v0zM628 566q46 30 86 82q38 52 44 158v170l70 -22
q10 -7 2 -14l-26 -16v-120q76 60 98 94l48 -42q7 -7 -4 -10q-21 -1 -36 -8q-12 -5 -108 -58q0 -21 -6 -42q69 -27 100 -50q28 -21 38 -44q9 -21 0 -36q-9 -16 -24 -14q-13 2 -22 20q-7 16 -34 50q-25 34 -64 56q-12 -57 -50 -96q-39 -40 -102 -70l-10 12v0v0zM316 374h294
v118l84 -24q3 -3 4 -8q0 -6 -38 -20v-66h216l34 38l60 -48q9 -16 -8 -16h-274q33 -58 72 -100q39 -41 88 -76q48 -35 132 -43v-18q-46 1 -64 -8t-36 -28q-33 24 -66 54q-33 28 -78 89q-43 59 -70 128h-6v-207l4 -86q-3 -14 -20 -26q-15 -12 -38 -12l4 122v193
q-52 -94 -128 -160q-76 -63 -194 -123l-8 16q91 57 158 119q66 62 130 166h-174q-18 0 -60 -8l-18 34v0v0zM362 934q12 -8 -2 -16q-27 -2 -42 -34q-52 -99 -106 -204l50 -20q15 -9 -2 -18l-18 -10v-470l4 -113q0 -17 -24 -32q-21 -13 -36 -12l4 151v484q-75 -127 -146 -196
l-12 8q66 96 150 270q81 174 102 252l78 -40v0v0z" />
  </g>

</svg>
