<?xml version="1.0" standalone="no"?>
<!DOCTYPE svg PUBLIC "-//W3C//DTD SVG 1.1//EN" "http://www.w3.org/Graphics/SVG/1.1/DTD/svg11.dtd" >
<svg xmlns="http://www.w3.org/2000/svg" xmlns:xlink="http://www.w3.org/1999/xlink" version="1.1" viewBox="0 -205 1024 1024">
  <g transform="matrix(1 0 0 -1 0 819)">
   <path fill="currentColor"
d="M620 768q6 -4 4 -10q0 -3 -6 -6h-18q-21 -4 -68 -50h250l26 26l58 -52q9 -6 4 -14q0 -3 -18 -6q-25 -7 -70 -40q-126 -103 -246 -154q-120 -52 -290 -82l-4 16q164 44 284 100q117 53 252 182h-270q-120 -97 -236 -148l-6 14q93 57 168 130q75 71 118 134l68 -40v0v0z
M756 454q7 -7 -4 -14l-22 -2q-49 -27 -64 -42h224l30 30l48 -48q16 -15 0 -20q-24 -6 -42 -18q-81 -106 -176 -166q-96 -59 -218 -97q-123 -36 -312 -42l-2 16q194 19 304 58q110 38 208 105q98 68 154 158h-250q-160 -108 -322 -162l-4 16q158 75 254 150q94 75 134 120
l60 -42v0v0zM448 614l8 10q50 -24 68 -36q18 -11 22 -28q4 -15 -4 -26q-6 -12 -24 -12q-15 0 -20 18q-3 15 -14 34q-9 15 -36 40v0v0zM524 286l8 10q63 -30 84 -44q21 -13 24 -32q4 -19 -4 -32q-9 -14 -26 -12q-17 0 -22 18q-3 16 -14 38q-12 21 -50 54v0v0zM870 858l42 50
l74 -66l2 -4q0 -9 -8 -8h-784v-200q4 -231 -34 -366q-36 -131 -140 -239l-12 10q78 111 108 233t28 338v298l66 -46h658v0v0zM466 992l8 12q54 -21 82 -36q27 -14 40 -34q10 -20 2 -40q-7 -18 -28 -20q-19 0 -28 24t-20 42q-12 17 -56 52v0v0z" />
  </g>

</svg>
