<?xml version="1.0" standalone="no"?>
<!DOCTYPE svg PUBLIC "-//W3C//DTD SVG 1.1//EN" "http://www.w3.org/Graphics/SVG/1.1/DTD/svg11.dtd" >
<svg xmlns="http://www.w3.org/2000/svg" xmlns:xlink="http://www.w3.org/1999/xlink" version="1.1" viewBox="0 -144 1024 1024">
  <g transform="matrix(1 0 0 -1 0 880)">
   <path fill="currentColor"
d="M28 262h92v190h-47v22h226v120l65 -11l16 -10l-16 -10v-89h16l54 54l64 -54v-22h-134v-190h62l54 54l64 -54v-21h-180v-195l-65 -32v227h-271v21zM760 112h107l7 1l5 1l3 1l2 1l1 1l1 1l1 1l1 4v5l1 6v849l64 -10l16 -11l-16 -10v-818v-13l-3 -14l-4 -13l-7 -12l-9 -11
l-11 -9l-11 -7l-13 -4l-14 -2l-14 -1v32l-107 16v16zM714 892l16 -11l-16 -9v-614l-65 -33v678zM185 452v-190h114v190h-114zM426 645l-29 40l-35 39l-20 20l-50 44l-12 -40l-23 -49l-28 -45l-33 -41l-38 -36l-44 -30l-49 -25l-4 9l41 33l36 34l31 38l26 40l21 42l16 47
l12 49l2 16h-183v21h186l2 15l2 56l-2 60l-1 13l65 -9l17 -10l-17 -12v-44l-7 -61l-1 -8h117l54 54l65 -54v-21h-241l-4 -25l39 -18l26 -15l25 -17l23 -17l22 -19l21 -19l35 -41l16 -23l3 -24l-15 -20l-25 -3l-19 15z" />
  </g>

</svg>
