<?xml version="1.0" standalone="no"?>
<!DOCTYPE svg PUBLIC "-//W3C//DTD SVG 1.1//EN" "http://www.w3.org/Graphics/SVG/1.1/DTD/svg11.dtd" >
<svg xmlns="http://www.w3.org/2000/svg" xmlns:xlink="http://www.w3.org/1999/xlink" version="1.1" viewBox="0 -36 256 256">
  <g transform="matrix(1 0 0 -1 0 220)">
   <path fill="currentColor"
d="M172 207h-23q0 -18 1 -24l-15 -5q1 8 1 16v13h-4q-10 0 -19 -2l-9 9h32v12q0 7 -1 20l18 -6l-4 -6v-20h4l8 8zM246 209h-34v-11q0 -7 1 -13l-15 -5q1 8 1 16v14v-1q-8 0 -15 -2l-7 9h22v12q0 11 -1 18l19 -8l-5 -5v-17h11l11 8zM209 20h-64v-7l-13 -5q1 17 1 49
q-15 -29 -43 -46l-1 3q23 22 31.5 43t10 41.5t0.5 38.5l14 -7h60l8 8l13 -12l-7 -5v-24q0 -4 1 -18l-14 -5v3h-66q-1 -5 -3 -10l7 -5h64l7 9l13 -11l-6 -5q0 -33 1 -40l-14 -7v12zM144 107h62v16h-62v-16zM209 55h-64v-28h64v28zM142 84h64v16h-62zM180 190q26 -27 45 -35.5
t23 -8.5v-4q-13 -1 -15 -10q-31 16 -57 54q-31 -42 -72 -58l-2 3q18 11 32 24t21.5 25t13.5 25l15 -11zM178 153l12 9l12 -16h-40q-11 -1 -12 -3l-4 10h32zM33 60.5q-4 15.5 -16 36.5l2 3q16 -13 24 -23t1 -21t-11 4.5zM89 167l15 -18h-35v-29h13l13 10l13 -17h-39v-53
q9 13 24 47l14 -15l-9 -6q-12 -14 -29 -33v-8l39 9v-4q-57 -21 -83 -32l-10 17q17 2 41 8v70h-13q-11 0 -20 -2l-8 9h41v29h-8q-4 0 -9 -2l-6 5q-11 -14 -21 -24l-3 2q33 54 51 117l17 -11l-6 -5q-3 -8 -5 -13q22 -8 31.5 -14t5.5 -18.5t-11.5 0t-26.5 28.5q-17 -36 -29 -58
h41z" />
  </g>

</svg>
