<?xml version="1.0" standalone="no"?>
<!DOCTYPE svg PUBLIC "-//W3C//DTD SVG 1.1//EN" "http://www.w3.org/Graphics/SVG/1.1/DTD/svg11.dtd" >
<svg xmlns="http://www.w3.org/2000/svg" xmlns:xlink="http://www.w3.org/1999/xlink" version="1.1" viewBox="0 -205 1024 1024">
  <g transform="matrix(1 0 0 -1 0 819)">
   <path fill="currentColor"
d="M578 652l58 -42h184l36 38l54 -44q9 -3 10 -12q0 -7 -32 -28v-274q3 -42 -20 -68q-22 -26 -70 -40q-9 41 -42 56q-30 14 -78 28l4 20q51 -12 82 -18q29 -7 52 -4q24 4 22 32v286h-210v-436l4 -91q1 -14 -22 -28q-21 -13 -36 -14l4 131v508v0v0zM400 622q-45 -9 -182 -44
v-278l186 72v196l78 -26q10 -6 0 -14l-28 -16v-102q-1 -138 -52 -216q-49 -74 -122 -113q-72 -38 -206 -70l-4 16q123 38 190 84q65 44 98 99q32 54 44 136q-69 -30 -126 -60t-92 -72l-58 60l40 24v348l60 -46q171 63 226 100q45 -48 48 -60q0 -13 -14 -10q-16 2 -28 2
q-13 1 -58 -10v0v0zM320 956q10 -9 0 -18q-24 -6 -32 -12l-14 -14q-4 -6 -32 -54h200l42 52l60 -62q9 -16 -8 -16h-212q41 -32 58 -52q18 -19 24 -40q7 -22 -4 -40q-12 -19 -32 -14q-21 6 -24 36q-3 29 -12 52q-9 21 -38 58h-68q-75 -112 -150 -184l-14 12q65 90 110 174
t70 160l76 -38v0v0zM706 952q10 -9 0 -18q-24 -6 -30 -14l-14 -12q-3 -6 -30 -50h232l42 52l60 -62q9 -16 -8 -16h-234q42 -32 60 -52q18 -21 28 -42q7 -22 -4 -40q-12 -19 -32 -14q-21 6 -24 36q-3 29 -14 52q-12 24 -42 60h-76q-57 -88 -114 -154l-16 12q51 83 84 154
q30 69 52 138l80 -30v0v0z" />
  </g>

</svg>
