<?xml version="1.0" standalone="no"?>
<!DOCTYPE svg PUBLIC "-//W3C//DTD SVG 1.1//EN" "http://www.w3.org/Graphics/SVG/1.1/DTD/svg11.dtd" >
<svg xmlns="http://www.w3.org/2000/svg" xmlns:xlink="http://www.w3.org/1999/xlink" version="1.1" viewBox="0 -205 1048 1024">
  <g transform="matrix(1 0 0 -1 0 819)">
   <path fill="currentColor"
d="M516 924l39 -37q24 -23 19 -34q-3 -9 -35 -9v-565l1 -11q2 -10 -1 -16q-5 -8 -22 -16t-21 -3q-2 3 -1 17l2 15v33h-91v-62l1 -11q1 -13 -3 -18q-3 -8 -19 -15q-19 -7 -24 -4q-2 2 -1 15l1 15v653l-4 52l53 -38h70zM406 618h90v251h-90v-251zM496 316v286h-90v-286h90z
M863 457h29l45 49l52 -45q10 -9 6 -14q-5 -5 -18 -5h-114v-258q0 -61 -23 -89q-25 -31 -84 -34q-5 27 -28 42q-10 14 -57 30v12q83 -18 115 -9q31 8 31 49v257h-202l-51 -2l-12 21l53 -4h212v135l-3 33h-187l-62 -1l-12 20l55 -2h117v161h-78l-45 -3l-8 21l45 -1h86v121
l-3 44l46 -16q28 -8 29 -17q0 -10 -29 -15v-117h81l37 43l45 -36q12 -10 10 -18q-2 -6 -15 -6h-158v-161h124l39 44l48 -38q9 -9 6 -16q-5 -7 -18 -7h-101q26 -7 25 -15q-2 -8 -28 -15v-138zM617 416q36 -21 71 -58q35 -40 50 -76q7 -21 4 -39q-3 -15 -12 -21q-9 -5 -19 2
q-11 7 -16 26q-8 39 -31 81q-23 41 -53 76zM218 967q27 -6 27 -14q-1 -7 -32 -23v-781v-21q1 -6 2 -15q2 -17 -1 -22q-3 -8 -18 -15q-23 -9 -27 -4q-3 4 -1 30q1 14 2 22q1 16 1 30v823zM127 767q19 -73 5 -172q-14 -98 -45 -110q-18 -4 -27 34q-7 38 7 50l5 10q23 37 31 66
q14 46 11 122h13zM324 705q1 -21 -3 -39q-6 -15 -13 -20q-8 -6 -15 3q-8 8 -11 30q-7 36 -21 76q-20 54 -47 81l10 6q42 -27 69 -64q26 -37 31 -73z" />
  </g>

</svg>
