<?xml version="1.0" standalone="no"?>
<!DOCTYPE svg PUBLIC "-//W3C//DTD SVG 1.1//EN" "http://www.w3.org/Graphics/SVG/1.1/DTD/svg11.dtd" >
<svg xmlns="http://www.w3.org/2000/svg" xmlns:xlink="http://www.w3.org/1999/xlink" version="1.1" viewBox="0 -205 1024 1024">
  <g transform="matrix(1 0 0 -1 0 819)">
   <path fill="currentColor"
d="M500 478h376v234h-376v-234v0v0zM576 678l42 -28h120l28 30l40 -28q8 -6 8 -12q0 -4 -20 -20v-92q0 -6 -8 -12q-15 -9 -38 -8v28h-126q-1 -14 -10 -22q-15 -9 -36 -8v172v0v0zM622 558h126v70h-126v-70v0v0zM496 406l50 -30h280l26 28l46 -28q12 -3 12 -12q0 -6 -30 -30
v-132l4 -65q1 -12 -18 -24q-19 -9 -34 -10v32h-288v-18q0 -12 -18 -22q-19 -8 -34 -8l4 85v234v0v0zM544 158h288v82h-288v-82v0v0zM544 264h288v88h-288v-88v0v0zM370 63h526l36 50l66 -56q6 0 6 -6q0 -12 -12 -12h-542q-15 1 -62 -8l-18 32v0v0zM884 824l38 48l64 -52
q3 -4 4 -10q1 -10 -10 -10h-508q-22 0 -70 -8l-14 32h496v0v0zM580 976l6 12q54 -16 84 -34q30 -16 42 -38q10 -21 2 -38q-9 -16 -30 -16q-21 -1 -26 20q-4 20 -20 44q-16 23 -58 50v0v0zM450 770l42 -34h374l22 30l54 -32q9 -4 10 -14q0 -4 -26 -26v-172l4 -62
q0 -15 -20 -26q-17 -9 -34 -12v32h-376q0 -15 -12 -26q-18 -12 -42 -12l4 110v244v0v0zM26 870h288l36 42l52 -50q12 -15 -8 -18h-152q-28 -136 -70 -268h108l32 36l52 -46q6 -6 6 -8q0 -6 -32 -30v-320l4 -44q3 -15 -14 -27q-18 -14 -36 -16v77h-122v-73q0 -18 -20 -28
q-18 -12 -30 -12l4 101v270q-35 -78 -94 -150l-10 8q51 104 96 230q42 123 76 300h-78q-22 0 -70 -8l-18 34v0v0zM170 224h122v326h-122v-326v0v0z" />
  </g>

</svg>
