<?xml version="1.0" standalone="no"?>
<!DOCTYPE svg PUBLIC "-//W3C//DTD SVG 1.1//EN" "http://www.w3.org/Graphics/SVG/1.1/DTD/svg11.dtd" >
<svg xmlns="http://www.w3.org/2000/svg" xmlns:xlink="http://www.w3.org/1999/xlink" version="1.1" viewBox="0 -154 1024 1024">
  <g transform="matrix(1 0 0 -1 0 870)">
   <path fill="currentColor"
d="M754 352q83 -44 89 -87q13 -49 -18 -54q-14 1 -16 24q-1 23 -14 50q-12 27 -49 58zM642 322l6 8q86 -44 92 -85q13 -52 -17 -59q-15 3 -19 45q-5 43 -62 91zM554 300l8 6q67 -55 64 -101q2 -53 -30 -51q-14 3 -10 28q5 25 -2 54t-30 64zM500 290q2 -73 -31 -128
q-12 -25 -37 -39q-24 -14 -36 5t13 36t46 44q21 28 32 83zM833 730h-303v-100h303v100zM530 746h303v103h-303v-103zM642 992l66 -30q17 -11 7 -15q-18 -2 -32 -12q-21 -23 -55 -66h186l39 39l46 -47q14 -12 -6 -17l-19 -9v-122l4 -99q-2 -34 -45 -33v29h-303v-94h356l32 40
l68 -46q17 -12 -6 -10h-450v-95h360l34 41l48 -40q18 -12 0 -19l-20 -13l-6 -61q-12 -220 -83 -259q-32 -24 -82 -36q-2 18 -26 38q-54 19 -133 36l2 16q121 -23 172 -21q102 1 104 204l6 94h-376v-15q2 -38 -49 -44q5 37 7 188v340q2 16 -19 37l12 16l38 -38h85l18 37
q23 46 21 55q-1 9 -9 24zM162 556l77 -35q11 -5 5 -10q-17 -9 -26 -12v-83q76 -19 132 -58t72 -78q15 -39 -1 -56q-18 -16 -34 26q-14 41 -60 82q-42 40 -109 72v-284l3 -69q1 -20 -12 -30q-13 -9 -36 -14q4 36 6 154v339q2 15 -25 44zM162 978l75 -33q11 -5 4 -11
q-13 -4 -24 -16v-138h121l22 37l58 -45q13 -11 -6 -12h-195v-173h167l23 34l52 -44q14 -12 -4 -11h-379q-22 0 -38 -12l-29 33h169v341q1 14 -23 40z" />
  </g>

</svg>
