<?xml version="1.0" standalone="no"?>
<!DOCTYPE svg PUBLIC "-//W3C//DTD SVG 1.1//EN" "http://www.w3.org/Graphics/SVG/1.1/DTD/svg11.dtd" >
<svg xmlns="http://www.w3.org/2000/svg" xmlns:xlink="http://www.w3.org/1999/xlink" version="1.1" viewBox="0 -36 256 256">
  <g transform="matrix(1 0 0 -1 0 220)">
   <path fill="currentColor"
d="M96 220q3 -103 14 -143.5t23 -47.5v-3q-12 1 -17 -6q-17 31 -21.5 77.5t-4.5 120.5l-18 -6v-165l14 7q-3 8 -8 17l3 2q15 -15 19 -23.5t-1.5 -16.5t-7 -0.5t-3.5 16.5q-13 -8 -23 -23l-9 13q5 6 4 14v156l-17 -5q1 -101 -7 -134t-27 -55l-2 2q11 22 18 59t4 142l14 -8
q47 16 60 30l13 -16q-7 0 -20 -4zM172.5 32q2.5 2 2.5 8v70h-24q-13 1 -24 -2l-9 9h57v33q-13 0 -24 -3l-9 10h56l11 10l15 -17h-36v-33h29l13 11l15 -18h-57v-74q1 -20 -17 -24q-5 13 -26 18l1 4q24 -4 26.5 -2zM167 88l-7 -5q-25 -35 -32 -41l-2 3q12 17 25 54zM238.5 56
q3.5 -11 -2 -19t-10 4t-10.5 23.5t-21 28.5l3 3q37 -29 40.5 -40zM183 228q14 -25 29 -39.5t35 -21.5v-3q-10 0 -16 -10q-32 22 -50 69q-21 -53 -66 -78l-1 2q25 23 39 47t20 51l17 -10z" />
  </g>

</svg>
