<?xml version="1.0" standalone="no"?>
<!DOCTYPE svg PUBLIC "-//W3C//DTD SVG 1.1//EN" "http://www.w3.org/Graphics/SVG/1.1/DTD/svg11.dtd" >
<svg xmlns="http://www.w3.org/2000/svg" xmlns:xlink="http://www.w3.org/1999/xlink" version="1.1" viewBox="0 -36 256 256">
  <g transform="matrix(1 0 0 -1 0 220)">
   <path fill="currentColor"
d="M48 244l24 -10l-9 -6v-41h30q0 27 -1 56l24 -9l-9 -7v-40h3l11 10l16 -17h-30v-66h4l12 13l18 -20h-34v-39q0 -23 1 -45l-16 -7q1 24 1 49v42h-30q-1 -27 -12.5 -52t-36.5 -47l-3 3q35 37 38 96h-10q-10 0 -19 -2l-9 9h38v66h-2q-13 -1 -20 -3l-9 10h31q0 29 -1 57z
M63 114h30v66h-30v-66zM220 227l8 10l15 -12l-7 -8q-6 -149 -14 -174t-27 -30q-2 16 -27 23l1 4q14 -2 25 -3t16 18t12 165h-38q-3 -84 -20 -131.5t-55 -80.5l-3 3q33 37 47 81.5t17 127.5h-5q-9 -1 -17 -3l-9 10h81zM145 171h4q2 -45 -14.5 -45t-5.5 11t16 34z" />
  </g>

</svg>
