<?xml version="1.0" standalone="no"?>
<!DOCTYPE svg PUBLIC "-//W3C//DTD SVG 1.1//EN" "http://www.w3.org/Graphics/SVG/1.1/DTD/svg11.dtd" >
<svg xmlns="http://www.w3.org/2000/svg" xmlns:xlink="http://www.w3.org/1999/xlink" version="1.1" viewBox="0 -36 256 256">
  <g transform="matrix(1 0 0 -1 0 220)">
   <path fill="currentColor"
d="M85 233q-19 -17 -39 -27l42 -1q10 8 22 23l15 -18l-9 1q-30 -23 -75 -44l70 5l-13 14l1 3q21 -10 29 -17.5t3 -17.5t-9 -1.5t-8 14.5q-73 -11 -84 -16l-7 19q10 -1 21.5 5t38.5 25q-36 -4 -47 -10l-7 18q6 -2 22.5 11.5t25.5 28.5l16 -15h-8zM66 158l20 -7l-6 -5v-12h20
l11 9l12 -16h-43v-17h31l9 8l14 -15h-100q-6 1 -16 -2l-9 9h58v17h-20q-6 1 -17 -2l-9 9h46q0 9 -1 24zM80 12l-14 -3v33h-32q-6 1 -16 -2l-9 9h57v19h-23q-5 1 -15 -2l-9 9h34q-2 12 -15 24l3 3q22 -10 24 -16t-6 -11h23q10 16 13 28l15 -11q-7 0 -22 -17h19l11 8l14 -15
h-53v-19h33l11 9l13 -16h-57q0 -18 1 -30zM157 169q11 -53 25 -83q15 38 19 92h-41zM182 235l-8 -4q-7 -26 -11 -46h54l9 14l15 -21h-26q-5 -58 -26 -107q28 -35 57 -45v-4q-12 0 -16 -12q-28 22 -48 51q-29 -40 -70 -54l-1 4q43 26 64 62q-17 44 -21 86q-6 -23 -22 -46
l-4 4q23 51 32 129z" />
  </g>

</svg>
