<?xml version="1.0" standalone="no"?>
<!DOCTYPE svg PUBLIC "-//W3C//DTD SVG 1.1//EN" "http://www.w3.org/Graphics/SVG/1.1/DTD/svg11.dtd" >
<svg xmlns="http://www.w3.org/2000/svg" xmlns:xlink="http://www.w3.org/1999/xlink" version="1.1" viewBox="0 -36 256 256">
  <g transform="matrix(1 0 0 -1 0 220)">
   <path fill="currentColor"
d="M89 159l-13 -8v11h-11v-44h11l9 11l13 -18h-33v-56l29 10l1 -4q-31 -13 -64 -30l-9 -8l-11 16l14 4q0 74 -1 96l18 -14l-6 -7v-71l17 5v110h-20v-6l-13 -7q1 14 1 42.5t-1 45.5l14 -9h40l9 10l11 -15l-6 -5q0 -39 1 -59zM33 169h43v52h-43v-52zM152 120l20 -12l-7 -6v-43
q1 -37 -40 -51l-2 3q25 20 28 33q-25 -7 -32 -10l-9 12l42 4l1 18h-6q-10 0 -19 -3l-9 10h34v18h-9q-10 0 -19 -2l-9 9h37q0 10 -1 20zM200 13l-14 -6q1 19 1 59.5t-1 54.5l20 -10l-7 -5v-6h20l10 9l14 -16h-44v-18h19l9 9l13 -16h-41v-20h23l11 10l15 -17h-49q0 -19 1 -28z
M175 234q6 -6 0 -15t-9.5 2t-16.5 24l2 3q18 -8 24 -14zM116 133q-1 -45 -9.5 -73t-33.5 -52l-3 2q22 31 28 61t6 70.5t-1 79.5l14 -8h97l13 10l15 -17h-126v-73zM141 143v33h-13l-6 -2l-7 9h26v5q0 5 -1 18l18 -6l-6 -6v-11h8l8 6l11 -13h-27v-40q0 -6 1 -13l-13 -4
q1 17 1 24zM158 167l16 -6l-5 -4v-18q-1 -5 8 -4q-4 0 -1.5 1.5t7.5 -3.5q6 -7 -6 -8h-10q-9 0 -9 14v28zM135 159v-8q-1 -17 -18 -32l-3 3q9 12 10 27v12q0 3 -1 9l16 -6zM203 143v33h-13l-6 -2l-7 9h26v5q0 5 -1 18l18 -6l-6 -6v-11h8l8 6l11 -13h-27v-40q0 -6 1 -13
l-13 -4q1 17 1 24zM220 167l16 -6l-5 -4v-18q-1 -5 8 -4q-4 0 -1.5 1.5t7.5 -3.5q6 -7 -6 -8h-10q-9 0 -9 14v28zM197 159v-8q-1 -17 -18 -32l-3 3q9 12 10 27v12q0 3 -1 9l16 -6z" />
  </g>

</svg>
