<?xml version="1.0" standalone="no"?>
<!DOCTYPE svg PUBLIC "-//W3C//DTD SVG 1.1//EN" "http://www.w3.org/Graphics/SVG/1.1/DTD/svg11.dtd" >
<svg xmlns="http://www.w3.org/2000/svg" xmlns:xlink="http://www.w3.org/1999/xlink" version="1.1" viewBox="0 -205 1024 1024">
  <g transform="matrix(1 0 0 -1 0 819)">
   <path fill="currentColor"
d="M486 726l60 -34h56l44 188h-148q-31 -3 -46 -12l-28 38h436l40 50l64 -58q12 -15 -8 -18h-246l-84 -188h202l26 40l66 -44q6 -6 6 -8q0 -6 -32 -30v-488l4 -79q0 -12 -20 -22q-18 -9 -38 -10v82h-302v-64q1 -16 -22 -24q-22 -9 -34 -10l4 115v576v0v0zM538 158h302v156
h-302v-156v0v0zM538 340h302v150h-302v-150v0v0zM538 516h302v150h-302v-150v0v0zM114 952l60 -46h138l30 38l52 -42q9 -6 10 -12q0 -6 -32 -24v-722q3 -41 -8 -67q-9 -26 -62 -44q-4 25 -26 40q-22 16 -86 34l6 18q65 -15 86 -18q18 -1 30 6q12 6 10 31v294h-158
q-3 -112 -18 -170q-12 -57 -42 -128q-30 -67 -80 -125l-12 10q45 79 64 141q17 61 28 164q12 102 10 216v406v0v0zM322 464v190h-156v-190h156v0v0zM166 680h156v200h-156v-200v0v0z" />
  </g>

</svg>
