<?xml version="1.0" standalone="no"?>
<!DOCTYPE svg PUBLIC "-//W3C//DTD SVG 1.1//EN" "http://www.w3.org/Graphics/SVG/1.1/DTD/svg11.dtd" >
<svg xmlns="http://www.w3.org/2000/svg" xmlns:xlink="http://www.w3.org/1999/xlink" version="1.1" viewBox="0 -36 256 256">
  <g transform="matrix(1 0 0 -1 0 220)">
   <path fill="currentColor"
d="M65 132.5q0 53.5 -1 79.5l12 -8h1q7 22 9 40l14 -10q-6 -2 -19 -30h31l7 8l12 -11l-7 -7q0 -24 1 -38l-13 -4v6h-36v-31h40l6 9l10 -14l-7 -6q0 -37 1 -51l-13 -6v15h-37v-16l-12 -5q1 26 1 79.5zM76 165h36v32h-36v-32zM76 81h37v39h-37v-39zM158 158h64v29h-64v-29z
M158 119h64v32h-64v-32zM158 80h64v32h-64v-32zM178 227h-22q-10 0 -19 -2l-9 9h93l13 11l14 -18h-56q-5 -6 -19 -33h48l8 11l13 -16l-7 -7v-66q0 -29 1 -49l-14 -6v12h-64v-10l-13 -5q1 22 1 74.5t-1 69.5l13 -8h10q8 24 10 33zM129 7l-3 2q34 39 39 59l17 -15l-8 -2
q-32 -34 -45 -44zM232 40q10 -11 5 -24.5t-11.5 4.5t-28.5 44l2 3q23 -16 33 -27zM19 235q14 -10 20 -18.5t-1.5 -19t-9.5 2.5t-12 32zM124 21q-33 -1 -52 5.5t-32 21.5q-12 -16 -19 -29l-13 8q12 10 25 26v99h-11l-6 -4l-7 11h26l7 7l12 -10l-8 -7v-96q9 -10 22.5 -14
t30.5 -4t41 3v-3q-11 -4 -16 -14z" />
  </g>

</svg>
