<?xml version="1.0" standalone="no"?>
<!DOCTYPE svg PUBLIC "-//W3C//DTD SVG 1.1//EN" "http://www.w3.org/Graphics/SVG/1.1/DTD/svg11.dtd" >
<svg xmlns="http://www.w3.org/2000/svg" xmlns:xlink="http://www.w3.org/1999/xlink" version="1.1" viewBox="0 -36 256 256">
  <g transform="matrix(1 0 0 -1 0 220)">
   <path fill="currentColor"
d="M104 124h51v22h-51v-22zM105 153h48l7 5l15 -8l-7 -3v-31l-13 -4v5h-51v-4l-13 -4v49zM83 218q26 -8 26 -13t-6 -9.5t-9 3t-14 16.5zM112 249q20 -5 25 -11t-4 -14h75l16 9l17 -16h-197q-10 0 -19 -2l-9 9h108q-2 9 -14 23zM195 115q9 0 8 2v70h-149v-91l-14 -3
q1 24 1 57t-1 48l14 -4h96q16 17 19 24l17 -11q-8 0 -28 -13h44l6 9l16 -11l-8 -8v-62q3 -22 -16 -27q-5 14 -29 17v5q15 -2 24 -2zM140 49l2 -3q-47 -25 -56 -38l-11 15q5 5 4 12v24q-28 -17 -69 -30l-1 3q33 14 63 36t48 46l17 -13q-5 0 -11 -5q10 -18 30 -36q24 25 36 42
l17 -18h-10q-13 -8 -39 -27q12 -9 35 -17t53 -8v-4q-19 -4 -23 -14q-20 3 -52 21t-51 58q-14 -14 -29 -25v-37zM68 150l-2 3q9 6 20 15.5t16 18.5l16 -12l-9 -3q-27 -18 -41 -22zM145 189h13v-12q0 -8 13 -7q2 0 7 1t9 -5.5t-5 -6.5h-12q-24 -3 -25 13v17z" />
  </g>

</svg>
