<?xml version="1.0" standalone="no"?>
<!DOCTYPE svg PUBLIC "-//W3C//DTD SVG 1.1//EN" "http://www.w3.org/Graphics/SVG/1.1/DTD/svg11.dtd" >
<svg xmlns="http://www.w3.org/2000/svg" xmlns:xlink="http://www.w3.org/1999/xlink" version="1.1" viewBox="0 -205 1024 1024">
  <g transform="matrix(1 0 0 -1 0 819)">
   <path fill="currentColor"
d="M128 886l54 -42h48q27 74 42 136l68 -28q10 -7 0 -16q-24 -6 -36 -18q-12 -13 -48 -74h132l32 40l60 -44q6 -6 6 -8q-1 -7 -34 -28v-152l4 -66q-1 -17 -16 -28q-13 -12 -40 -14v38h-222v-74h296l38 44l58 -56q6 -13 -8 -14h-384v-84h260l32 38l60 -44q3 -7 -2 -16
l-30 -18q0 -71 -6 -124q-6 -55 -14 -101q-7 -47 -26 -74q-19 -26 -64 -40q-17 38 -40 52q-21 12 -78 30l6 18q59 -15 86 -18q23 -3 44 2q17 6 26 43q6 38 10 82q4 42 8 142h-272q0 -9 -18 -18q-18 -6 -36 -8l4 124v418v0v0zM178 610h222v90h-222v-90v0v0zM178 728h222v88
h-222v-88v0v0zM104 312h20q5 -52 8 -100t-12 -68q-16 -19 -34 -23q-19 -3 -28 6q-7 9 -2 21q3 12 18 30q11 15 20 42q6 23 10 92v0v0zM160 312l12 8q38 -48 50 -72q9 -24 10 -42q0 -19 -12 -32q-11 -13 -28 -8q-15 3 -12 30q3 26 -2 50q-3 21 -18 66v0v0zM332 342l12 8
q51 -39 70 -60q15 -19 18 -38t-8 -32t-28 -10q-16 3 -16 28q1 24 -10 46q-12 21 -38 58v0v0zM244 328l12 8q53 -42 68 -66q14 -24 14 -42q0 -19 -12 -32q-11 -13 -28 -8q-16 3 -14 34q0 29 -6 50q-5 17 -34 56v0v0zM662 970l8 12q54 -27 78 -50q21 -22 30 -46q7 -23 -4 -40
q-12 -19 -30 -16q-19 2 -22 28q-4 26 -10 50q-7 22 -50 62v0v0zM554 858h22l6 -52h318l28 36q65 -58 68 -64t-2 -8q-3 -3 -26 -6q-21 -3 -44 -24q-21 -19 -74 -82l-14 10q33 63 64 114h-316q3 -42 -6 -72q-10 -28 -28 -40t-36 -8q-19 3 -20 22q0 15 22 36q21 20 30 50
q8 30 8 88v0v0zM620 666q81 -31 84 -38q2 -5 -4 -10l-32 -16v-210q86 69 130 114l84 90q64 -49 60 -58q-3 -8 -8 -6q-3 0 -20 -2q-17 -3 -64 -38q-48 -33 -182 -128v-216q0 -30 12 -33t24 -4h132q24 3 36 6q14 3 20 31q6 27 12 154h20q1 -85 8 -118q8 -33 34 -45
q-6 -21 -26 -42q-19 -21 -34 -24q-16 0 -50 -6h-150q-28 0 -50 6q-18 6 -30 26q-6 15 -6 49v518v0v0z" />
  </g>

</svg>
