<?xml version="1.0" standalone="no"?>
<!DOCTYPE svg PUBLIC "-//W3C//DTD SVG 1.1//EN" "http://www.w3.org/Graphics/SVG/1.1/DTD/svg11.dtd" >
<svg xmlns="http://www.w3.org/2000/svg" xmlns:xlink="http://www.w3.org/1999/xlink" version="1.1" viewBox="0 -205 1024 1024">
  <g transform="matrix(1 0 0 -1 0 819)">
   <path fill="currentColor"
d="M858 452l58 -54q3 -4 4 -10q0 -7 -14 -8h-198v-273h180l40 53l66 -61q3 -3 4 -10q-1 -7 -16 -8h-516q-22 1 -70 -8l-18 34h278v273h-122q-22 0 -70 -8l-18 34h374l38 46v0v0zM564 682q69 -36 72 -44q0 -9 -8 -12q-6 0 -24 -6q-16 -3 -70 -56q-54 -51 -146 -138l-14 12
q132 146 190 244v0v0zM904 788l30 36l56 -50q8 -7 8 -14q0 -6 -14 -6q-27 -9 -50 -24q-22 -16 -68 -74l-16 8l56 100h-426q-7 -60 -22 -84q-13 -24 -34 -32q-19 -7 -32 2q-13 10 -8 26q5 15 26 30q20 15 32 48q9 32 16 80h18l2 -46h426v0v0zM584 960l6 12q59 -29 86 -52
q27 -21 36 -42q8 -22 2 -40t-20 -24q-12 -4 -24 4q-12 6 -14 28q-3 20 -18 46q-12 26 -54 68v0v0zM740 658l8 12q68 -37 112 -70q44 -34 64 -64q20 -31 14 -52q-7 -21 -26 -24q-18 -4 -30 22q-11 26 -28 52q-15 23 -38 50q-22 26 -76 74v0v0zM190 972l88 -34q7 -9 -4 -14
l-36 -16v-296q45 56 96 152q69 -39 66 -48q-3 -7 -8 -8q-7 1 -22 -4t-48 -40q-33 -33 -86 -84q0 -114 -8 -198q54 -27 102 -68q45 -41 58 -70q12 -27 10 -48q-3 -19 -12 -28q-10 -9 -28 -6q-16 2 -26 44q-10 39 -34 76q-22 35 -74 80q-13 -102 -56 -186q-43 -82 -130 -157
l-10 10q66 79 96 147t46 140t20 252v404v0v0zM120 740q7 -94 2 -158q-7 -61 -28 -82t-42 -18t-26 18q-5 16 12 32q17 15 38 58q19 42 26 150h18v0v0z" />
  </g>

</svg>
