<?xml version="1.0" standalone="no"?>
<!DOCTYPE svg PUBLIC "-//W3C//DTD SVG 1.1//EN" "http://www.w3.org/Graphics/SVG/1.1/DTD/svg11.dtd" >
<svg xmlns="http://www.w3.org/2000/svg" xmlns:xlink="http://www.w3.org/1999/xlink" version="1.1" viewBox="0 -36 256 256">
  <g transform="matrix(1 0 0 -1 0 220)">
   <path fill="currentColor"
d="M58 191v-64q0 -48 -10.5 -74.5t-28.5 -45.5l-4 3q19 29 24.5 61t5 66.5t-1.5 69.5l15 -9h61q0 34 -1 48l22 -9l-7 -6v-8h53l13 11l15 -18h-81v-18h84l8 11l18 -15q-11 -3 -31 -24l-3 2l10 19h-100h-61zM196 184l18 -18h-106q-13 0 -22 -3l-10 10h107zM130 147l-10 -1
q-30 -20 -51 -27l-2 4q36 25 45 40zM167 159q44 -11 50 -17.5t2 -15t-10 -1t-14.5 13t-28.5 15.5zM160 141l-8 -6q50 -33 96 -30v-5q-20 -3 -20 -15q-23 6 -42.5 17.5t-35.5 30.5q-21 -22 -44.5 -33t-50.5 -17v5q26 9 50.5 25.5t38.5 37.5zM104 24h87v18h-87v-18zM206 11
l-15 -4v10h-87v-7l-15 -4q1 16 1 49t-1 45l17 -6h82l8 6l16 -12l-7 -5v-38q0 -19 1 -34zM104 72h87v15h-87v-15zM104 49h87v16h-87v-16z" />
  </g>

</svg>
