<?xml version="1.0" standalone="no"?>
<!DOCTYPE svg PUBLIC "-//W3C//DTD SVG 1.1//EN" "http://www.w3.org/Graphics/SVG/1.1/DTD/svg11.dtd" >
<svg xmlns="http://www.w3.org/2000/svg" xmlns:xlink="http://www.w3.org/1999/xlink" version="1.1" viewBox="0 -36 256 256">
  <g transform="matrix(1 0 0 -1 0 220)">
   <path fill="currentColor"
d="M227 33q6 0 7 15.5t2 33.5h3q1 -21 2.5 -31.5t6.5 -15.5q-5 -14 -16 -15h-16q-18 -2 -18 24v171h-42q1 -105 -3.5 -131.5t-15 -47t-21.5 -29.5l-3 2q11 12 20.5 44.5t9.5 91.5t-1 87l14 -10h41l8 11l14 -13l-7 -7v-171q-1 -8 4 -9h11zM186.5 145.5q4.5 -10.5 3 -18.5
t-6.5 -12t-7.5 14t-14.5 39l3 3q18 -15 22.5 -25.5zM51 178h47v30h-47v-30zM51 143h47v28h-47v-28zM98 117v19h-47v-28l42 3zM61 215h36l9 11l13 -13l-8 -7v-69q6 8 9 16l15 -12q-5 -3 -9.5 -9t-14.5 -19v-76q0 -10 -3 -16.5t-12 -12.5q-4 8 -9 12t-19 8v4q18 -2 24 -2t6 8
v57q-33 -44 -89 -70l-1 4q44 27 82 76q-58 -12 -66 -16l-9 17l22 1v81q0 17 -1 33l13 -6h6q10 20 12 32l16 -12q-7 -3 -22 -20z" />
  </g>

</svg>
