<?xml version="1.0" standalone="no"?>
<!DOCTYPE svg PUBLIC "-//W3C//DTD SVG 1.1//EN" "http://www.w3.org/Graphics/SVG/1.1/DTD/svg11.dtd" >
<svg xmlns="http://www.w3.org/2000/svg" xmlns:xlink="http://www.w3.org/1999/xlink" version="1.1" viewBox="0 -36 256 256">
  <g transform="matrix(1 0 0 -1 0 220)">
   <path fill="currentColor"
d="M30 203v-121h24v121h-24zM17 77v96q0 24 -1 46l14 -9h24l8 8l12 -14l-7 -5v-109q0 -17 1 -34l-14 -8v27h-24v-22l-14 -7q1 15 1 31zM115 175q-15 -28 -43 -46l-2 2q24 24 38 58h-6q-10 0 -19 -2l-9 9h41v23q-11 -1 -32 -2v4q18 2 36 7.5t27 12.5l10 -17q-7 1 -28 -3v-25
h11l11 9l14 -16h-36v-10q15 -7 21 -12t2.5 -15t-9 1.5t-14.5 21.5q0 -36 1 -41l-15 -6q1 10 1 47zM190 214h36l8 10l14 -14l-8 -5q-3 -52 -7.5 -63t-16.5 -17q-2 10 -20 16v4q13 -3 17.5 -2.5t7.5 8.5t6 56h-13q-9 -53 -50 -78l-2 3q32 31 39 75h-13q-10 -24 -28 -41l-2 3
q11 16 17 38t7 38l18 -10l-5 -6q-2 -5 -5 -15zM83 74l-2 3q18 16 28 30t11 22l16 -12q-5 -2 -14 -12h31q0 8 -1 27l21 -9l-7 -7v-11h31l13 10l16 -17h-60v-32h46l14 11l17 -18h-77q0 -36 1 -44l-15 -8q1 17 1 52h-50q-10 0 -19 -2l-9 9h78v32h-37q-18 -16 -33 -24z" />
  </g>

</svg>
