<?xml version="1.0" standalone="no"?>
<!DOCTYPE svg PUBLIC "-//W3C//DTD SVG 1.1//EN" "http://www.w3.org/Graphics/SVG/1.1/DTD/svg11.dtd" >
<svg xmlns="http://www.w3.org/2000/svg" xmlns:xlink="http://www.w3.org/1999/xlink" version="1.1" viewBox="0 -36 256 256">
  <g transform="matrix(1 0 0 -1 0 220)">
   <path fill="currentColor"
d="M153 184l1 12v13h-53v-9l1 -9l-16 -7l1 12v13h-47q-13 0 -22 -3l-10 10h79v14q0 7 -2 16l25 -9l-9 -6v-15h53v13q0 6 -1 17l24 -10l-9 -6v-14h48l15 14l18 -21h-81v-9l1 -9zM33.5 17q-2.5 7 0 18.5t0 18.5t-25.5 17v6q30 -8 35 -4t45 81l4 -2q-28 -66 -35.5 -82
t-5.5 -37.5t-6.5 -22t-11 6.5zM14 149q44 -13 38.5 -31.5t-13.5 -3t-26 29.5zM43 190q46 -16 37.5 -32.5t-14 -1t-25.5 29.5zM131 27h67v26h-67v-26zM213 34q0 -15 1 -20l-16 -5v11h-67v-7l-16 -5q1 28 1 70q-16 -11 -50 -26l-3 5q29 15 53 32v11l8 -4q13 10 28 23h-41
q-11 0 -21 -2l-10 9h54v33h-9q-11 0 -21 -2l-10 9h40q0 15 -1 29l22 -7l-6 -6v-16h21l9 11l12 -14q7 7 14 20l18 -13q-6 -3 -12.5 -8t-36.5 -36h43l14 13l16 -20h-77q-16 -13 -35 -27h63l8 9l15 -12l-8 -6v-49zM187 159h-38v-33h9q19 20 29 33zM131 60h67v25h-67v-25z" />
  </g>

</svg>
