<?xml version="1.0" standalone="no"?>
<!DOCTYPE svg PUBLIC "-//W3C//DTD SVG 1.1//EN" "http://www.w3.org/Graphics/SVG/1.1/DTD/svg11.dtd" >
<svg xmlns="http://www.w3.org/2000/svg" xmlns:xlink="http://www.w3.org/1999/xlink" version="1.1" viewBox="0 -36 256 256">
  <g transform="matrix(1 0 0 -1 0 220)">
   <path fill="currentColor"
d="M138 230q1 -7 -4 -12t-8.5 4t-19.5 22l2 2q29 -9 30 -16zM205 212l16 13l19 -20h-194q-11 0 -20 -2l-9 9h188zM54 145h-11q-13 1 -24 -2l-10 9h46l5 45l13 -8h109l7 8l16 -13l-9 -4l-1 -28h22l13 11l17 -18h-52l-1 -28h17l12 11l18 -18h-47q-1 -11 -4.5 -17t-20.5 -10
q-3 12 -23 16v4q25 -4 29 -3t5 10h-116l-8 -5l-15 11l8 5zM69 152h112l1 30h-109zM64 117h61q-1 6 -4 12t-10 13l2 2q18 -7 23.5 -13.5t-6.5 -13.5h50l1 28h-113zM133 169q7 -5 -0.5 -12t-10 2t-13.5 20l3 2q14 -7 21 -12zM65 28h118v44h-118v-44zM198 14l-15 -6v13h-118v-8
l-16 -5q1 16 1 37.5t-1 39.5l16 -6h117l7 9l15 -12l-7 -8v-19q0 -14 1 -35z" />
  </g>

</svg>
