<?xml version="1.0" standalone="no"?>
<!DOCTYPE svg PUBLIC "-//W3C//DTD SVG 1.1//EN" "http://www.w3.org/Graphics/SVG/1.1/DTD/svg11.dtd" >
<svg xmlns="http://www.w3.org/2000/svg" xmlns:xlink="http://www.w3.org/1999/xlink" version="1.1" viewBox="0 -154 1024 1024">
  <g transform="matrix(1 0 0 -1 0 870)">
   <path fill="currentColor"
d="M160 978l82 -38q17 -11 7 -15q-28 1 -43 -23q-31 -60 -60 -112h113l35 41l48 -49q14 -12 -6 -17l-18 -9v-438l4 -129q4 -42 -46 -44v91h-163v-78q2 -39 -49 -46q5 39 7 195v475q-3 24 -19 44l16 12l39 -48h16l15 40q34 97 28 111q-6 15 -14 30zM997 142v-16q-34 0 -52 -7
q-18 -6 -32 -24q-55 25 -94 54t-73 77q-33 45 -53 99h-17v-209l2 -57q0 -21 -13 -30q-12 -9 -39 -14q6 37 8 149v161h-20q-32 -63 -65 -106q-35 -45 -98 -84q-63 -40 -133 -62l-3 12q64 36 116 72q51 36 83 81q30 40 54 87h-129q-27 0 -45 -13l-35 33h275v89h-147
q-27 0 -45 -13l-34 29h226v88h-179q-27 0 -45 -13l-34 33h314q34 56 50 86q15 30 14 42q-3 12 -6 13l5 6l59 -33q15 -9 5 -15q-13 0 -31 -9q-26 -33 -73 -90h142l26 36l61 -46q15 -13 -6 -10h-260v-88h154l24 34l61 -40q15 -13 -6 -10h-233v-89h222l25 35l60 -45
q15 -13 -6 -10h-258q21 -36 38 -59q17 -27 39 -45q22 -19 55 -38q34 -19 67 -28t79 -13zM351 733h165q3 31 5 73v35h-94q-27 1 -45 -13l-34 33h173v78q2 16 -30 46l9 12l83 -36q14 -5 6 -11q-21 -8 -30 -21v-68h176v76q2 16 -30 46l9 12l83 -36q14 -5 6 -11q-21 -8 -30 -21
v-66h79l32 40l68 -50q17 -12 -6 -10h-173v-29l3 -47q1 -24 -14 -32h127l32 40l68 -50q17 -12 -6 -10h-553q-27 1 -45 -13zM276 510h-163v-254h163v254zM113 528h163v242h-163v-242zM562 760q0 -18 -10 -27h177q5 33 6 78v30h-176v-34zM490 685l4 11q40 -11 67 -27
q25 -18 37 -40q11 -22 5 -40t-20 -18t-17 21q-2 21 -20 46q-17 23 -56 47z" />
  </g>

</svg>
