<?xml version="1.0" standalone="no"?>
<!DOCTYPE svg PUBLIC "-//W3C//DTD SVG 1.1//EN" "http://www.w3.org/Graphics/SVG/1.1/DTD/svg11.dtd" >
<svg xmlns="http://www.w3.org/2000/svg" xmlns:xlink="http://www.w3.org/1999/xlink" version="1.1" viewBox="0 -154 1024 1024">
  <g transform="matrix(1 0 0 -1 0 870)">
   <path fill="currentColor"
d="M380 955l53 -55q15 -17 0 -19q-28 6 -39 5q-9 -2 -42 -12q-33 -11 -68 -19v-191h71l29 38l57 -44q20 -16 -9 -14h-148v-182h91l29 42l59 -48q19 -17 -8 -15h-171v-309q-1 -34 -16 -55q-13 -23 -70 -36q-4 31 -23 41q-19 8 -75 27l3 16l36 -8q110 -36 105 46v278h-149
q-21 1 -38 -12l-28 33h215v182h-111q-23 1 -39 -13l-28 33h178v183q-112 -25 -182 -28l2 18q168 28 249 63q45 21 51 28q5 6 8 25zM865 481h-271v-330h271v330zM426 763h206q24 80 31 119q9 48 5 63q-3 15 -14 28l8 8l96 -38q6 -9 -6 -11q-16 -3 -28 -12q-19 -79 -43 -157
h198l37 46l70 -52q22 -17 -11 -14h-300l-9 -27q-29 -90 -86 -205l9 -10h259l35 41l52 -49q14 -12 -6 -17l-18 -9v-300l4 -64q1 -23 -11 -32t-39 -12v72h-271v-64q0 -21 -14 -31q-13 -9 -39 -15q4 39 7 137v292q-69 -119 -188 -210l-6 12q102 108 167 237q9 17 17 35
q-3 8 -8 16l15 12l4 -5q45 95 72 179q3 8 5 17h-121q-27 0 -45 -13z" />
  </g>

</svg>
