<?xml version="1.0" standalone="no"?>
<!DOCTYPE svg PUBLIC "-//W3C//DTD SVG 1.1//EN" "http://www.w3.org/Graphics/SVG/1.1/DTD/svg11.dtd" >
<svg xmlns="http://www.w3.org/2000/svg" xmlns:xlink="http://www.w3.org/1999/xlink" version="1.1" viewBox="0 -200 1000 1000">
  <g transform="matrix(1 0 0 -1 0 800)">
   <path fill="currentColor"
d="M90 796l-34 32h230v89q2 14 -29 45l8 12l85 -35q14 -5 6 -11q-20 -7 -29 -21v-79h155l26 33l56 -43q8 -6 7 -8q-1 -3 -12 -2h-232v-79h121l27 33l48 -30q7 -6 5 -11t-12 -9l-12 -9v-198l3 -81q-2 -30 -42 -32v109h-138v-13l3 -48q2 -36 -51 -45q5 47 7 106h-135v-49
l3 -44q3 -37 -49 -45q5 38 7 134v218q-8 22 -20 34l15 12l35 -32h144v79h-152q-25 1 -44 -12zM541 612l-11 10q33 49 71 130q31 70 46 116q12 47 8 59q-2 7 -13 19q-1 2 -2 3l8 11l76 -32q10 -2 12 -5q2 -4 -4 -10q-21 -6 -34 -19q-8 -31 -34 -91q-3 -8 -5 -12h222l25 32
l60 -43q7 -6 6 -8t-11 -1h-86q-15 -84 -58 -167q-15 -31 -44 -67q3 -3 5 -4q45 -48 85 -77q44 -30 111 -48l-2 -13q-32 1 -50 -2q-20 -3 -29 -22q-70 49 -120 105l-3 3q-9 11 -23 27q-79 -97 -243 -154l-4 13q141 75 222 174q-20 29 -37 60q-31 48 -57 128q-34 -61 -87 -115
zM322 251v-110q0 -49 17 -61q16 -12 58 -14q32 -2 108 -4q94 1 140 7q52 9 56 39q7 52 10 130h15l2 -76q0 -54 32 -67q-19 -36 -33 -44q-15 -9 -44 -16q-32 -6 -166 -8q-86 1 -149 4q-86 3 -89 102v127q-2 21 -29 45l8 9l99 -38q3 -3 3 -5t-4 -3q-16 -2 -34 -17zM649 769
l-7 -14q18 -47 57 -114q26 -45 46 -71q11 15 20 31q37 69 61 170h-176q0 -2 -1 -2zM465 711h-138v-89h138v89zM327 606v-89h138v89h-138zM151 711v-89h135v89h-135zM151 606v-89h135v89h-135zM757 297l8 12q76 -33 115 -75q37 -41 40 -77q3 -35 -20 -40q-21 -5 -28 29
q-6 31 -31 70q-27 38 -84 81zM146 276h18q3 -82 -5 -123q-9 -46 -43 -71q-33 -26 -52 -5q-18 21 11 39q26 18 46 48q18 29 25 112zM436 322l3 14q79 -33 104 -63q23 -29 30 -67q4 -35 -16 -41q-23 -4 -29 35q-5 40 -26 67q-21 26 -66 55zM377 940l4 13q71 -9 96 -44
q18 -39 -12 -48q-12 -2 -20 18q-19 44 -68 61z" />
  </g>

</svg>
