<?xml version="1.0" standalone="no"?>
<!DOCTYPE svg PUBLIC "-//W3C//DTD SVG 1.1//EN" "http://www.w3.org/Graphics/SVG/1.1/DTD/svg11.dtd" >
<svg xmlns="http://www.w3.org/2000/svg" xmlns:xlink="http://www.w3.org/1999/xlink" version="1.1" viewBox="0 -205 1024 1024">
  <g transform="matrix(1 0 0 -1 0 819)">
   <path fill="currentColor"
d="M842 960l58 -42q12 -6 12 -14q0 -6 -36 -30v-106l4 -96q0 -19 -20 -28q-17 -7 -34 -8v40h-144q33 -91 82 -148q45 -55 96 -88q48 -31 130 -46v-16q-28 0 -52 -6q-21 -7 -48 -28q-39 29 -80 68q-39 35 -80 98q-40 60 -74 166h-182q0 -72 -26 -150q-27 -75 -66 -132
q-37 -58 -122 -130l-12 14q75 77 108 146q33 68 52 152q19 83 18 176v210l60 -40h328l28 38v0v0zM476 896v-194h350v194h-350v0v0zM514 500l6 12q70 -24 110 -48q38 -24 50 -48t4 -44q-7 -19 -26 -20t-26 22q-7 22 -26 50q-18 27 -92 76v0v0zM442 246l4 16q84 -24 136 -48
t86 -48t50 -47q15 -25 10 -50q-5 -22 -28 -24q-24 -3 -38 20q-13 24 -32 54q-18 26 -60 59q-43 32 -128 68v0v0zM184 432q-19 -49 -40 -52q-20 -3 -106 -2l-2 -20q66 -6 90 -14q25 -7 32 -22q8 -13 8 -44q1 -31 -6 -88q-9 -57 -6 -85q0 -28 16 -38q16 -9 32 0t20 36
q3 24 -6 87q-10 62 -10 104q-1 42 4 64q4 21 14 54l138 418l-22 6l-156 -404v0v0zM126 954l6 14q48 -18 82 -36q33 -15 52 -36q17 -19 20 -40q3 -19 -8 -34q-9 -13 -26 -14q-16 0 -22 16q-6 14 -14 34q-6 20 -24 38q-15 18 -66 58v0v0zM32 714l6 14q42 -16 78 -34
q35 -16 50 -34t18 -38q1 -18 -10 -32q-9 -12 -24 -12t-20 16q-6 13 -14 32q-10 17 -28 40q-18 21 -56 48v0v0z" />
  </g>

</svg>
