<?xml version="1.0" standalone="no"?>
<!DOCTYPE svg PUBLIC "-//W3C//DTD SVG 1.1//EN" "http://www.w3.org/Graphics/SVG/1.1/DTD/svg11.dtd" >
<svg xmlns="http://www.w3.org/2000/svg" xmlns:xlink="http://www.w3.org/1999/xlink" version="1.1" viewBox="0 -205 1024 1024">
  <g transform="matrix(1 0 0 -1 0 819)">
   <path fill="currentColor"
d="M442 980l6 12q56 -18 80 -30q24 -11 34 -28q9 -15 -2 -32q-9 -16 -26 -14q-18 2 -24 20q-7 16 -20 32q-12 15 -48 40v0v0zM172 904h20v-40h682l30 34q63 -51 66 -56v-10q0 -4 -18 -4q-17 -1 -34 -10q-17 -7 -64 -58l-16 10q20 32 40 70h-686q-3 -45 -20 -72
q-18 -28 -36 -34t-30 -2q-11 2 -16 16q-7 12 8 24q12 11 30 26q15 12 28 36q12 24 16 70v0v0zM192 742h176v90l72 -24q7 -4 6 -10q0 -3 -6 -6l-24 -10v-40h210v90l74 -28q8 -3 8 -6q0 -7 -6 -10l-26 -10v-36h86l32 40l54 -50q2 -3 2 -8q1 -9 -10 -8h-164v-66h84l30 38
l52 -48q3 -3 4 -8q0 -9 -14 -8h-156v-74h192l36 44l58 -54q3 -3 4 -8q0 -9 -14 -8h-282q29 -39 68 -74q36 -34 100 -62q62 -27 164 -26v-18q-45 -3 -62 -14q-16 -13 -26 -28q-73 30 -118 60q-46 30 -70 54l-8 -6v-54l4 -46q-1 -12 -14 -18q-12 -7 -32 -10v18h-134v-90h154
l32 44l58 -54q6 -13 -8 -14h-236v-93q114 -4 204 -2q88 3 230 14l2 -14q-39 -12 -54 -18q-13 -7 -22 -32q-81 0 -150 2q-67 2 -158 6q-89 5 -154 34q-66 28 -128 101q-45 -56 -92 -95q-45 -38 -122 -74l-6 14q69 43 120 98q51 52 90 131l58 -26q10 -7 2 -14l-18 -4l-20 -16
q47 -42 80 -61t90 -38v201h-138v-8q1 -10 -16 -16q-15 -7 -30 -8l2 76v88q-42 -36 -86 -68q-43 -33 -184 -96l-8 12q135 77 198 130q63 54 114 114h-220q-18 1 -42 -6l-18 32h302v74h-82q-20 1 -46 -6l-18 32h146v66h-116q-18 1 -42 -6l-18 32v0v0zM416 550h210v74h-210v-74
v0v0zM626 650v66h-210v-66h210v0v0zM398 524q-27 -36 -60 -68l12 -12h326l14 10q-28 39 -46 70h-246v0v0zM356 324h318v96h-318v-96v0v0z" />
  </g>

</svg>
