<?xml version="1.0" standalone="no"?>
<!DOCTYPE svg PUBLIC "-//W3C//DTD SVG 1.1//EN" "http://www.w3.org/Graphics/SVG/1.1/DTD/svg11.dtd" >
<svg xmlns="http://www.w3.org/2000/svg" xmlns:xlink="http://www.w3.org/1999/xlink" version="1.1" viewBox="0 -36 256 256">
  <g transform="matrix(1 0 0 -1 0 220)">
   <path fill="currentColor"
d="M66 14l-15 -7q1 46 1 119q-12 -36 -42 -69l-3 3q35 52 43 115h-10q-10 0 -19 -2l-9 9h40q0 29 -1 64l24 -10l-10 -7v-47h8l11 12l13 -19h-32v-26q16 -10 24.5 -18t2.5 -20.5t-11 2t-16 30.5q0 -109 1 -129zM126 213h25l13 12l14 -19h-41q11 -5 16.5 -9.5t4 -9.5t-6.5 -10
t-7 4t-5 14.5t-7 10.5h-9q-12 -21 -28 -35l-2 3q12 17 18 32.5t10 39.5l19 -10l-6 -4q-7 -14 -8 -19zM193 213h28l14 11l13 -18h-39q13 -5 18.5 -10t4.5 -11.5t-6 -9t-8 6t-14 24.5h-12q-9 -13 -24 -27l-3 2q12 19 17 32.5t7 31.5l18 -11l-6 -4q-4 -9 -8 -17zM131 168
q2 -28 -5 -33t-15 -3.5t1.5 9t14.5 27.5h4zM172 139q53 -16 59.5 -22.5t5.5 -16t-13.5 2.5t-53.5 32zM115 50.5q-10 -4.5 -17 -2t2.5 8.5t20.5 32l4 -1q0 -33 -10 -37.5zM226 91l15 -17q-11 -1 -51 -19q13 -14 27 -21.5t30 -9.5v-4q-14 -1 -20 -11q-13 6 -31 23t-26 50
q-10 -61 -89 -73l-1 4q31 9 48.5 22.5t24 33t5.5 42.5l23 -9q-7 -4 -7.5 -11t13.5 -31q32 19 39 31zM187 133q22 22 28 36l17 -13q-12 -4 -20 -10t-22 -16zM174 140q-17 -35 -80 -49l-2 4q27 10 43 20t23 23.5t4 40.5l22 -7q-7 -4 -7 -9.5t-2 -16.5z" />
  </g>

</svg>
