<?xml version="1.0" standalone="no"?>
<!DOCTYPE svg PUBLIC "-//W3C//DTD SVG 1.1//EN" "http://www.w3.org/Graphics/SVG/1.1/DTD/svg11.dtd" >
<svg xmlns="http://www.w3.org/2000/svg" xmlns:xlink="http://www.w3.org/1999/xlink" version="1.1" viewBox="0 -205 1024 1024">
  <g transform="matrix(1 0 0 -1 0 819)">
   <path fill="currentColor"
d="M295 235q8 -1 7 -11q-1 -59 -14 -105q-16 -39 -37 -55q-19 -11 -32 -7t-19 14q-5 11 -1 24q3 13 21 22q26 20 42 42q13 22 23 69q3 8 10 7zM527 317q6 10 19 0q51 -25 79 -54q17 -16 18 -36q0 -25 -13 -38q-14 -14 -21 -14q-7 1 -14 20q-9 26 -22 47q-14 25 -42 60
q-8 8 -4 15zM831 231q6 9 19 0q70 -43 98 -74q21 -21 22 -34q0 -25 -15 -38q-20 -14 -26 -14q-7 2 -14 21q-12 34 -28 61q-29 44 -53 63q-7 8 -3 15zM392 851q1 -18 2 -45q1 -9 -6 -13q-44 -21 -48 -20q-3 3 0 13q3 25 4 65v43h-210q-27 0 -61 -7q-5 -1 -6 2q-13 20 -23 36
q-6 10 7 7q61 -6 68 -7h225v2q-1 30 -4 55q-3 15 0 18q4 4 13 0q39 -17 63 -30q6 -3 6 -6q-1 -5 -4 -6q-18 -9 -22 -15t-4 -16v-2h243q-2 29 -3 53q-3 15 0 18q4 4 13 0q39 -17 63 -30q6 -3 6 -6q-1 -5 -4 -6q-18 -9 -22 -15q-4 -5 -4 -14h156q12 0 16 4q5 5 14 15l26 37
q7 9 16 0q31 -28 61 -59q10 -10 9 -19q-2 -8 -15 -9h-283v-7q1 -18 2 -45q1 -9 -6 -13q-44 -21 -48 -20q-3 3 0 13q3 25 4 65v7h-244v-43zM440 54q-20 0 -36 16q-16 15 -16 58v88q-1 53 -5 78q-1 5 2 8t12 0q28 -14 49 -26q9 -6 9 -9q-1 -5 -8 -12q-8 -7 -11 -26v-90
q1 -21 8 -28q8 -9 21 -9h210q17 1 26 5q7 4 14 22q12 34 25 127q1 13 11 12q10 -3 9 -13q0 -86 10 -114q6 -17 16 -21q3 -2 2 -6q-10 -30 -28 -43q-22 -17 -56 -17h-264zM180 646v-82q0 -89 -9 -186q-10 -108 -35 -190q-26 -83 -63 -138q-9 -9 -16 -2q-6 9 1 19
q29 61 45 139q16 79 23 187q6 102 6 171v79q0 42 -4 69q-3 13 3 14q5 2 12 -8q16 -22 38 -41h287v105q-1 63 -5 88q-1 5 2 8t12 0q28 -14 49 -26q9 -6 9 -9q-1 -5 -8 -12q-10 -7 -11 -48h225q13 0 23 7l18 29q9 10 18 3q23 -18 54 -47q12 -7 11 -14q-3 -8 -16 -9h-333v-75
h338q10 0 14 6l28 30q3 4 7 4t7 -4q31 -32 49 -56q8 -12 -7 -13q-27 -4 -43 -11q-11 -4 -26 -17q-23 -18 -50 -43q-9 -12 -16 -6q-10 7 0 22q18 30 33 57h-670zM450 546q-1 53 -5 78q-1 5 2 8t12 0q28 -14 49 -26q13 -9 1 -21q-10 -8 -11 -39v-45l153 17q12 1 16 7l31 50
q8 16 20 3q31 -26 61 -56q6 -8 5 -15q-3 -9 -21 -10l-265 -30v-66q1 -12 2 -16q2 -4 17 -4h288q17 2 24 6q29 13 47 136q2 14 14 13q12 -2 11 -17q-8 -76 -4 -101q6 -18 19 -28q6 -5 2 -9q-23 -39 -92 -42h-314q-43 0 -52 12q-10 12 -10 37v73l-113 -12q-32 -5 -51 -15
q-6 -5 -12 7q-7 15 -20 25q-9 7 -8 11q3 4 10 3q22 -2 59 2l135 14v50z" />
  </g>

</svg>
