<?xml version="1.0" standalone="no"?>
<!DOCTYPE svg PUBLIC "-//W3C//DTD SVG 1.1//EN" "http://www.w3.org/Graphics/SVG/1.1/DTD/svg11.dtd" >
<svg xmlns="http://www.w3.org/2000/svg" xmlns:xlink="http://www.w3.org/1999/xlink" version="1.1" viewBox="0 -205 1024 1024">
  <g transform="matrix(1 0 0 -1 0 819)">
   <path fill="currentColor"
d="M518 764h132v218l78 -22q6 -2 6 -10q0 -3 -6 -6l-28 -18v-162h122l36 46l64 -58q1 -3 2 -8q0 -7 -8 -8h-216v-188h166l40 50l64 -58l6 -8q0 -12 -12 -12h-218q21 -90 60 -156q38 -66 86 -108q45 -42 108 -60v-14q-42 0 -62 -6q-21 -5 -38 -22q-58 65 -88 116t-54 114
q-24 62 -36 136h-22v-342l4 -103q-1 -11 -22 -26q-21 -13 -36 -12l4 133v334q-66 -135 -132 -218q-66 -84 -186 -163l-10 12q99 85 168 185q69 98 108 200h-106q-21 0 -68 -8l-16 36h242v188h-142q-33 -81 -84 -156l-16 8q50 114 98 312q80 -30 82 -36q1 -6 -10 -12
q-12 -6 -24 -14q-12 -7 -36 -74v0v0zM34 748h164v238l82 -32q12 -6 4 -14l-34 -16v-176h44l36 44l54 -54q12 -15 -8 -18h-126v-204l138 82l10 -16l-148 -110v-339q2 -36 -16 -64q-19 -24 -64 -40q-6 36 -36 50q-28 15 -76 32l4 16q94 -26 116 -20q20 6 20 32v303
q-69 -53 -84 -70q-12 -16 -30 -38l-54 56l168 100v230h-92q-21 -1 -50 -10l-22 38v0v0z" />
  </g>

</svg>
