<?xml version="1.0" standalone="no"?>
<!DOCTYPE svg PUBLIC "-//W3C//DTD SVG 1.1//EN" "http://www.w3.org/Graphics/SVG/1.1/DTD/svg11.dtd" >
<svg xmlns="http://www.w3.org/2000/svg" xmlns:xlink="http://www.w3.org/1999/xlink" version="1.1" viewBox="0 -36 256 256">
  <g transform="matrix(1 0 0 -1 0 220)">
   <path fill="currentColor"
d="M40 187h23v30h-23v-30zM77 187h23v30h-23v-30zM40 147h23v33h-23v-33zM77 147h23v33h-23v-33zM75 46l3 -4q-30 -23 -42 -37l-10 15q5 5 5 13v74q-6 0 -17 -3l-10 10h97l12 9l14 -16h-61q7 -21 19 -40q22 23 28 36l13 -15q-11 -4 -37 -24q14 -21 43 -29v-4q-11 -1 -17 -12
q-16 9 -31.5 27.5t-22.5 60.5h-16v-77zM114 164q0 -8 1 -26l-15 -5v7h-60v-8l-15 -4q1 14 1 43.5t-1 60.5l15 -8h61l8 8l13 -13l-8 -8v-47zM218 105l14 -13q-7 -3 -14.5 -10.5t-21.5 -20.5q16 -23 37 -30l8 33l4 -1q-3 -29 2 -56q-22 8 -37 19t-25 26q-29 -20 -60 -27l-1 3
q35 15 55 35q-7 22 -8 50h-27v-7l-14 -7q1 30 1 63t-1 48l14 -9h27q0 27 -1 45l19 -10l-5 -6v-29h27l8 9l14 -14l-8 -6v-51q0 -15 1 -26l-14 -7v7h-28q2 -32 6 -42q17 17 28 34zM144 161h27v33h-27v-33zM184 161h28v33h-28v-33zM184 120h28v34h-28v-34zM171 154h-27v-34h27
v34z" />
  </g>

</svg>
