<?xml version="1.0" standalone="no"?>
<!DOCTYPE svg PUBLIC "-//W3C//DTD SVG 1.1//EN" "http://www.w3.org/Graphics/SVG/1.1/DTD/svg11.dtd" >
<svg xmlns="http://www.w3.org/2000/svg" xmlns:xlink="http://www.w3.org/1999/xlink" version="1.1" viewBox="0 -36 256 256">
  <g transform="matrix(1 0 0 -1 0 220)">
   <path fill="currentColor"
d="M107 192.5q0 22.5 -1 44.5l17 -9h81l9 12l17 -13l-9 -9q0 -42 2 -60l-16 -6v8h-85v-6l-16 -6q1 22 1 44.5zM122 198h85v23h-85v-23zM122 167h85v23h-85v-23zM139 123q5 -7 2 -14t-7.5 -7.5t-8.5 12t-15 24.5l3 3q21 -11 26 -18zM157 160l23 -11l-8 -7v-46h6q4 6 13 19
t14 24l19 -13l-8 -1q-17 -15 -31 -29h29l16 10l15 -17h-56v-54q0 -11 9 -11h18q8 -1 10.5 8t2.5 28h5q-2 -30 13 -34q-7 -13 -21 -14h-31q-20 0 -20 22v55h-29q-6 -66 -72 -83l-1 3q54 23 58 80h-8q-12 0 -22 -2l-9 9h66q0 44 -1 64zM99 82l1 -4q-79 -37 -79 -45l-14 19
q28 7 41 12v67h-6q-10 0 -20 -2l-9 9h35v65h-9q-11 0 -20 -2l-9 10h62l13 11l16 -19h-38v-65h12l12 12l15 -19h-39v-63z" />
  </g>

</svg>
