<?xml version="1.0" standalone="no"?>
<!DOCTYPE svg PUBLIC "-//W3C//DTD SVG 1.1//EN" "http://www.w3.org/Graphics/SVG/1.1/DTD/svg11.dtd" >
<svg xmlns="http://www.w3.org/2000/svg" xmlns:xlink="http://www.w3.org/1999/xlink" version="1.1" viewBox="0 -36 256 256">
  <g transform="matrix(1 0 0 -1 0 220)">
   <path fill="currentColor"
d="M54 221q10 -7 3.5 -19t-11.5 2.5t-18 27.5l2 2q14 -6 24 -13zM37 160q7 -9 0.5 -18.5t-10 3t-16.5 31.5l2 2q17 -9 24 -18zM24.5 83q5.5 1 8 5t32.5 87l4 -2q-28 -92 -30 -102t-3 -29.5t-10 -15t-5.5 14.5t5.5 19.5t-2.5 12.5t-13.5 7v4q9 -2 14.5 -1zM89 243l19 -9
l-6 -8v-36h9l8 9l11 -16h-28v-48h12l9 10l12 -17h-51q-10 0 -19 -2l-10 9h35v49h1q-11 0 -22 -3l-10 9h31q0 40 -1 53zM106 62q-3 10 -9 22l2 2q18 -19 21 -28t-2 -16.5t-6.5 -1t-3.5 15.5q-35 -12 -42 -21l-11 18q9 0 20.5 30t14.5 45l15 -12l-7 -7q-18 -42 -28 -55z
M140.5 64.5q-8.5 -33.5 -31.5 -56.5l-3 1q15 22 22 50.5t7.5 70.5t-0.5 73l13 -8h25q0 39 -1 51l19 -9l-6 -7v-10h20l10 9l13 -16h-43v-18h39l8 8l11 -15q-7 -3 -11.5 -6.5t-13.5 -14.5l-3 2l9 19h-52l17 -8l-5 -6v-14l13 2l8 10l12 -14l-33 -5v-14q0 -10 5 -9h23q6 0 8.5 2
t11.5 -2q-4 -11 -18 -11h-30q-12 -1 -12 13v20l-12 -2l-6 -3l-7 8l25 3q0 18 -1 30h-23q1 -90 -7.5 -123.5zM179 100l-5 -7q1 -32 -8 -53t-34 -32l-1 2q24 21 28 46.5t2 51.5zM198 100l-1 8l19 -11l-6 -6v-58q0 -10 4 -9h12q5 0 5.5 9t0.5 26h4q0 -15 2 -22.5t8 -10.5
q-4 -12 -18 -13h-20q-11 2 -10 26v61z" />
  </g>

</svg>
