<?xml version="1.0" standalone="no"?>
<!DOCTYPE svg PUBLIC "-//W3C//DTD SVG 1.1//EN" "http://www.w3.org/Graphics/SVG/1.1/DTD/svg11.dtd" >
<svg xmlns="http://www.w3.org/2000/svg" xmlns:xlink="http://www.w3.org/1999/xlink" version="1.1" viewBox="0 -200 999 1000">
  <g transform="matrix(1 0 0 -1 0 800)">
   <path fill="currentColor"
d="M631 545q9 45 18.5 104.5t17.5 120.5t13.5 118.5t6.5 99.5l52 -36l-12 -47q-3 -20 -5 -33.5t-4.5 -25.5t-5 -25.5t-6.5 -32.5h38l23 34l41 -53l-26 -38q-8 -72 -20.5 -153t-30 -157.5t-39.5 -141.5t-49 -106l-8 9q21 63 39 133.5t32.5 145.5t25 152t16.5 152h-47
q-13 -63 -19.5 -96t-10.5 -35q15 -30 23.5 -50t12 -34t4.5 -24.5t1 -21.5v-9q0 -10 -4.5 -16t-10 -9.5t-10.5 -4.5t-6 -1q-6 0 -6 19v37q0 18 -1 42.5t-6 56.5q-6 -21 -11.5 -38.5t-13.5 -39.5zM907 384q-7 10 -12.5 18t-10 16t-9.5 17.5t-11 23.5v-259q-3 -11 -16.5 -20
t-23.5 -12v384q-11 34 -18 73t-12 87l10 10q3 -32 7.5 -61t12.5 -53v376l50 -29l-10 -58v-373q11 -23 22 -38t21.5 -26t21.5 -19t22 -17q-9 -8 -22.5 -15t-21.5 -25zM385 957l52 -39h80l20 36l46 -44l-25 -35v-246l26 27l32 -42l-24 -26v-343q0 -24 -10 -45t-30 -29
q0 15 -6.5 24.5t-17 16t-25 11.5t-30.5 10l1 15q14 -5 32.5 -6t25.5 -1q11 0 15 8t6 19v342h-159l-7 -35v-375q-2 -9 -15.5 -16t-23.5 -13v493l37 -35v328zM418 533l43 -38h27l23 32l36 -38l-22 -27v-106h-71v-30q-3 -5 -14.5 -10.5t-21.5 -10.5v228zM423 866v-72h26l26 27
l36 -44l-23 -29v-119h33v267h-87zM454 444l-20 -68h55v101h-30zM423 630h36v142h-36v-142zM117 776q16 -8 29 -15.5t24.5 -17t22.5 -23t24 -34.5v-8q0 -33 -11 -47.5t-23 -14.5t-21 11.5t-9 32.5q0 4 0.5 6t0.5 5q-4 18 -8 30.5t-8.5 22t-11.5 19t-17 21.5zM948 108
q-19 -18 -38.5 -32t-34.5 -34q-26 -1 -57.5 -2t-64 -1.5t-63 -1t-53.5 -0.5q-157 0 -252 36t-138 126h-22q-27 -37 -58.5 -74.5t-58.5 -72.5l-56 39q48 35 90.5 66.5t78.5 58.5v275h-74l-63 -14l-27 36h153l42 37l54 -65l-35 -18v-265q27 -40 64.5 -62t80 -32.5t88.5 -12.5
t91 -2h26q28 0 66.5 0.5t81.5 3t88 8t87 15.5zM106 1002q40 -19 68.5 -40t45.5 -54v-11q0 -29 -9 -43t-20 -14q-14 0 -24.5 14t-12.5 39q-5 18 -9.5 31.5t-10 25t-13 21.5t-19.5 22z" />
  </g>

</svg>
