<?xml version="1.0" standalone="no"?>
<!DOCTYPE svg PUBLIC "-//W3C//DTD SVG 1.1//EN" "http://www.w3.org/Graphics/SVG/1.1/DTD/svg11.dtd" >
<svg xmlns="http://www.w3.org/2000/svg" xmlns:xlink="http://www.w3.org/1999/xlink" version="1.1" viewBox="0 -36 256 256">
  <g transform="matrix(1 0 0 -1 0 220)">
   <path fill="currentColor"
d="M75 231l-12 -23h45l11 11l16 -18h-58q16 -7 22.5 -11.5t7 -7.5t-3.5 -10t-8.5 -0.5t-10 14t-15.5 15.5h-9q-11 -19 -38 -41l-4 2q16 19 27.5 39.5t16.5 44.5l22 -12zM175 232l-13 -24h47l12 12l18 -19h-64q21 -7 27.5 -13t6 -12t-5 -9.5t-10 7t-25.5 27.5h-9
q-12 -18 -28 -31l-3 2q18 25 24.5 42t9.5 32l22 -10zM141 166l-10 -5q55 -32 115 -35v-4q-16 -3 -18 -14q-56 13 -100 49q-41 -40 -117 -60l-1 5q84 30 114 75zM94.5 53q7.5 -8 0 -18.5t-9.5 1t-14 32.5l3 2q13 -9 20.5 -17zM184 57q-10 -16 -20 -29h43l14 13l18 -20h-189
q-11 1 -21 -1l-8 8h100v46h-43q-12 2 -21 -1l-8 8h72v27h-17q-17 2 -27 0l-7 8h86l12 12l17 -20h-50v-27h44l11 13l18 -20h-73v-46h21q13 23 20 46l18 -13z" />
  </g>

</svg>
