<?xml version="1.0" standalone="no"?>
<!DOCTYPE svg PUBLIC "-//W3C//DTD SVG 1.1//EN" "http://www.w3.org/Graphics/SVG/1.1/DTD/svg11.dtd" >
<svg xmlns="http://www.w3.org/2000/svg" xmlns:xlink="http://www.w3.org/1999/xlink" version="1.1" viewBox="0 -205 1024 1024">
  <g transform="matrix(1 0 0 -1 0 819)">
   <path fill="currentColor"
d="M186 970q83 -43 106 -70q24 -27 24 -50q0 -22 -14 -34q-12 -11 -26 -6q-12 2 -18 32q-7 29 -22 52q-16 23 -58 64l8 12v0v0zM78 752h224l28 40l58 -44q9 -6 10 -12q-3 -10 -20 -10q-21 0 -44 -38q-25 -36 -64 -102v-118l20 -8l90 152q57 -34 58 -40q0 -6 -2 -8
q-3 -2 -20 -4q-16 -3 -110 -108q41 -16 62 -34q18 -19 24 -34q4 -15 -4 -30q-6 -12 -20 -12q-15 -1 -26 22q-10 24 -28 42q-16 18 -44 40v-272l4 -89q-1 -18 -16 -30q-16 -12 -40 -18l4 139v346q-97 -117 -160 -174l-12 12q51 59 88 106q36 44 84 122q48 74 78 140h-152
q-24 -1 -48 -10l-22 34v0v0zM498 952l66 -46h258l34 40l62 -42q6 -6 6 -8q-1 -6 -34 -32v-142l6 -82q1 -12 -12 -24t-44 -20v36h-292v-4q3 -9 -8 -20q-10 -9 -46 -18l4 134v228v0v0zM548 656h292v102h-292v-102v0v0zM678 472q63 -24 70 -32q5 -7 2 -10q-3 -2 -18 -4
q-13 -1 -40 -46q59 -21 88 -36q30 -15 48 -32q18 -18 16 -38q-3 -21 -20 -26q-16 -5 -32 18l-30 42q-16 19 -80 56q-64 -99 -122 -144l-10 10q53 72 82 132q29 56 46 110v0v0zM548 782h292v100h-292v-100v0v0zM470 416q66 -22 72 -26t4 -8q-2 -3 -28 -18v-170h234l36 42
q47 -48 52 -54q3 -7 0 -10t-18 -2h-288l-28 -30l-66 40l30 22v214v0v0zM560 514h326l24 36q66 -51 64 -54q0 -3 -2 -6t-34 -20v-194q0 -103 -8 -137q-6 -36 -32 -64q-24 -26 -84 -46q-20 35 -40 46q-21 12 -84 30l6 18q75 -18 114 -22q36 -3 58 18q21 20 22 127v244h-348
q-63 -63 -126 -116l-12 10q49 54 98 114q47 60 68 124q69 -24 72 -32q1 -8 -6 -10q-7 -3 -16 -6t-60 -60v0v0z" />
  </g>

</svg>
