<?xml version="1.0" standalone="no"?>
<!DOCTYPE svg PUBLIC "-//W3C//DTD SVG 1.1//EN" "http://www.w3.org/Graphics/SVG/1.1/DTD/svg11.dtd" >
<svg xmlns="http://www.w3.org/2000/svg" xmlns:xlink="http://www.w3.org/1999/xlink" version="1.1" viewBox="0 -36 256 256">
  <g transform="matrix(1 0 0 -1 0 220)">
   <path fill="currentColor"
d="M40 230l23 -8l-7 -7v-27h66v34q0 12 -1 22l26 -10l-11 -7v-39h67q0 30 -1 42l24 -9l-8 -6v-16q0 -12 1 -23l-16 -5v10h-146l-7 -6l-16 11l7 5q0 29 -1 39zM226 163l19 -20h-106q48 -36 107 -41v-4q-18 -2 -19 -14q-51 15 -91 56v-24q0 -8 1 -23l-17 -6q1 13 1 30v21
q-45 -42 -109 -59l-1 4q63 26 93 60h-56q-12 0 -21 -2l-10 9h104v30l23 -9l-8 -7v-14h77zM43 74l23 -9l-7 -7v-31h63v35q0 10 -1 23l23 -10l-8 -7v-41h62q0 33 -1 47l24 -10l-8 -6v-18q0 -13 1 -25l-16 -6v11h-138l-7 -7l-16 12l7 6q0 31 -1 43z" />
  </g>

</svg>
