<?xml version="1.0" standalone="no"?>
<!DOCTYPE svg PUBLIC "-//W3C//DTD SVG 1.1//EN" "http://www.w3.org/Graphics/SVG/1.1/DTD/svg11.dtd" >
<svg xmlns="http://www.w3.org/2000/svg" xmlns:xlink="http://www.w3.org/1999/xlink" version="1.1" viewBox="0 -36 256 256">
  <g transform="matrix(1 0 0 -1 0 220)">
   <path fill="currentColor"
d="M48.5 114.5q-1.5 4.5 1 13t1.5 14t-21 12.5l1 4q24 -7 28.5 -4.5t40.5 58.5l3 -2q-26 -48 -33 -58.5t-6.5 -26t-6.5 -15.5t-8.5 4.5zM30 206q38 -10 31.5 -23.5t-12 -2.5t-20.5 23zM55 238q36 -13 28 -25.5t-12 -1t-18 23.5zM122 218l16 -11l-8 -8q-15 -21 -36 -42l-3 2
q24 35 31 59zM194 178l15 -20l-12 -3q-55 -42 -120 -48v4q73 18 117 67zM166 225v-31q0 -15 1 -31l-16 -7q1 22 1 45.5t-1 43.5l23 -11zM232 170.5q-5 -11.5 -17 7.5t-33 36l2 3q30 -11 41.5 -23t6.5 -23.5zM157 26h33v65h-33v-65zM47 108l16 -10h126l8 10l15 -14l-8 -6v-62
h11l15 14l16 -21h-207q-13 0 -22 -2l-9 9h40q0 62 -1 82zM62 26h34v65h-34v-65zM109 26h35v65h-35v-65z" />
  </g>

</svg>
