<?xml version="1.0" standalone="no"?>
<!DOCTYPE svg PUBLIC "-//W3C//DTD SVG 1.1//EN" "http://www.w3.org/Graphics/SVG/1.1/DTD/svg11.dtd" >
<svg xmlns="http://www.w3.org/2000/svg" xmlns:xlink="http://www.w3.org/1999/xlink" version="1.1" viewBox="0 -200 995 1000">
  <g transform="matrix(1 0 0 -1 0 800)">
   <path fill="currentColor"
d="M894 330l49 -66h-342l-43 -10l-14 33h96v299h-23l-46 -11l-16 32h85v133l58 -39l-13 -48v-46h108v130l55 -29l-11 -53v-48h17l33 41l44 -62h-94v-299h24zM78 460l55 -42h81l37 42l52 -63l-30 -39v-255h-149v-76q-11 -14 -46 -28v461zM532 251q2 -50 7.5 -78.5t12.5 -42.5
t14 -17.5t12 -3.5h5q2 0 2 -1q0 -2 -1 -3q4 -3 4 -6v-1q-4 -12 -16 -19.5t-28 -12t-34 -6t-34 -1.5h-64q-24 8 -46.5 35.5t-22.5 68.5q0 2 0.5 5.5t0.5 6.5v445l49 -31h71v284h-64l-46 -19l-19 41h126l33 40l49 -45l-33 -39v-288h-121v-394q2 -14 4 -25t7 -19t14 -12.5
t24 -4.5h37q26 10 34.5 45t8.5 98h14zM136 394l-13 -17v-249h101v266h-88zM689 973l-18 -25l-23 -51h47l32 34l44 -56h-115l28 -28t14.5 -17.5t6 -15t3.5 -21.5q-2 -15 -14 -21.5t-16 -6.5q-8 0 -9 9t-2.5 24.5t-6.5 35.5t-20 43l-1 -7q-20 -43 -42.5 -78.5t-53.5 -56.5
l-9 6q38 54 60.5 118.5t39.5 140.5zM867 964l-16 -14q-9 -14 -12.5 -26t-13.5 -26h31l36 35l48 -56h-104q18 -14 28 -24.5t15 -19t6.5 -16.5t2.5 -17q0 -12 -13.5 -20t-19.5 -8q-3 0 -4.5 10.5t-4.5 26t-8.5 34t-15.5 34.5h-2q-5 -11 -13 -26.5t-18.5 -32t-23.5 -32.5
t-28 -28l-10 3q32 46 52 106.5t37 129.5zM254 926l52 -62h-201l-34 -13l-23 39h103v26l-11 86l69 -27l-14 -66v-19h19zM571 23q23 32 40.5 59.5t31 54t24 54t20.5 59.5l50 -53l-24 -23q-11 -16 -25 -37.5t-31 -44t-36.5 -43.5t-40.5 -36zM685 287h108v91h-108v-91zM685 504
h108v82h-108v-82zM685 399h108v81h-108v-81zM792 222q36 -38 56.5 -66t28.5 -53v-7q0 -8 -2 -17.5t-6 -17.5t-10 -13.5t-14 -5.5q-9 0 -14.5 15.5t-11.5 40.5t-15 56t-25 62zM128 555l-42 -16l-17 35h131l39 50l56 -69h-167zM239 779l56 -68h-171l-38 -15l-17 38h137z" />
  </g>

</svg>
