<?xml version="1.0" standalone="no"?>
<!DOCTYPE svg PUBLIC "-//W3C//DTD SVG 1.1//EN" "http://www.w3.org/Graphics/SVG/1.1/DTD/svg11.dtd" >
<svg xmlns="http://www.w3.org/2000/svg" xmlns:xlink="http://www.w3.org/1999/xlink" version="1.1" viewBox="0 -36 256 256">
  <g transform="matrix(1 0 0 -1 0 220)">
   <path fill="currentColor"
d="M146 219l14 -6h8q6 25 6 34l18 -8l-6 -5l-10 -21h33l7 10l13 -11l-6 -7v-36q0 -8 1 -15l-14 -6v6h-50v-19h61l10 10l13 -17h-84v-19h69l8 9l11 -12l-6 -5q-2 -47 -4 -60t-8 -21t-15 -12q0 12 -22 16v5q16 -2 22 -1t8.5 6.5t3.5 25.5t2 42h-69v-8l-14 -5q1 23 1 37v66
q0 13 -1 27zM210 206h-50v-20h50v20zM210 179h-50v-18h50v18zM71 147v-42q0 -6 1 -11l-12 -5v5h-36v-3l-12 -4q1 14 1 37.5t-1 36.5l14 -6h33l7 8l10 -12zM24 128h12v20h-12v-20zM47 128h13v20h-13v-20zM24 101h12v20h-12v-20zM47 101h13v20h-13v-20zM48 202h23v18h-23v-18z
M82 202h23v18h-23v-18zM48 178h23v17h-23v-17zM82 178h23v17h-23v-17zM118 184l1 -13l-14 -5v5h-57v-3l-14 -4q1 21 1 35.5t-1 34.5l14 -7h57l7 8l12 -12l-6 -4v-35zM138 105q0 -6 1 -11l-12 -6v7h-35v-4l-12 -5q1 19 1 40.5t-1 34.5l12 -7h34l6 8l12 -11l-6 -4v-42zM92 128
h12v19h-12v-19zM114 128h13v19h-13v-19zM92 102h12v19h-12v-19zM114 102h13v19h-13v-19zM48 59q-7 0 -17 -2l-9 9h45v13l-1 11l19 -8l-6 -5v-11h21l10 10l14 -17h-45v-28h24h9l9 9l13 -16h-103l-11 -2l-7 9h54v28h-19zM200.5 64.5q2.5 -7.5 -0.5 -12.5t-7 -5t-4.5 7t-4 15
t-7.5 15l2 2q19 -14 21.5 -21.5zM221 71.5q5 -7.5 2 -14t-7 -6.5t-4.5 6.5t-4.5 15.5t-7 14l3 2q13 -10 18 -17.5zM175 63q4 -8 1 -14t-8 -6t-5 8t-2 15t-5 15l2 2q13 -12 17 -20zM147 51.5q-2 -8.5 -9 -12t-10.5 1t3.5 11.5t9.5 13.5t3.5 15.5h4q1 -21 -1 -29.5z" />
  </g>

</svg>
