<?xml version="1.0" standalone="no"?>
<!DOCTYPE svg PUBLIC "-//W3C//DTD SVG 1.1//EN" "http://www.w3.org/Graphics/SVG/1.1/DTD/svg11.dtd" >
<svg xmlns="http://www.w3.org/2000/svg" xmlns:xlink="http://www.w3.org/1999/xlink" version="1.1" viewBox="0 -205 1024 1024">
  <g transform="matrix(1 0 0 -1 0 819)">
   <path fill="currentColor"
d="M850 864q75 -36 78 -44q1 -8 -4 -10q-6 -1 -20 -4q-13 -2 -40 -40q-24 -39 -96 -132l-16 10q50 96 98 220v0v0zM420 610h230v366l88 -36q6 -1 4 -10q0 -3 -6 -6l-32 -18v-296h138l36 40l60 -50q3 0 4 -8q1 -9 -10 -8h-228v-202h188l44 50l62 -56l4 -8q1 -12 -16 -12h-282
v-194l4 -93q-1 -14 -22 -26q-19 -13 -40 -14l4 139v188h-224q-21 0 -44 -8l-22 34h290v202h-164q-21 -1 -44 -10l-22 36v0v0zM434 856l14 10q52 -43 86 -76q32 -32 46 -64q13 -31 2 -52q-12 -22 -32 -22q-21 1 -26 20q-4 18 -10 46q-6 26 -24 56q-15 29 -56 82v0v0zM38 734
h186v244l80 -34q21 -7 -2 -20l-28 -12v-178h72l34 50l58 -58q3 -4 4 -8q0 -12 -14 -12h-154v-108q65 -34 94 -56t38 -46q9 -21 0 -42q-9 -19 -26 -16q-15 1 -24 26q-6 25 -24 50q-19 25 -58 62v-406l4 -107q-1 -15 -22 -28q-18 -14 -36 -16l4 147v392q-28 -76 -82 -164
q-54 -86 -110 -142l-12 10q51 72 90 148q36 75 66 150q29 73 46 146h-112q-22 0 -52 -8l-20 36v0v0z" />
  </g>

</svg>
