<?xml version="1.0" standalone="no"?>
<!DOCTYPE svg PUBLIC "-//W3C//DTD SVG 1.1//EN" "http://www.w3.org/Graphics/SVG/1.1/DTD/svg11.dtd" >
<svg xmlns="http://www.w3.org/2000/svg" xmlns:xlink="http://www.w3.org/1999/xlink" version="1.1" viewBox="0 -36 256 256">
  <g transform="matrix(1 0 0 -1 0 220)">
   <path fill="currentColor"
d="M191 181l-16 -6v11h-96v-8l-16 -4q1 18 1 36t-1 33l15 -8h97l9 10l14 -15l-8 -5q0 -21 1 -44zM114 109l-15 -5v9h-53v-8l-16 -6q1 20 1 38t-1 34l16 -8h52l8 10l14 -13l-7 -7q0 -26 1 -44zM223 109l-15 -5v9h-53v-6l-15 -5q1 20 1 35t-1 34l15 -8h51l9 10l14 -15l-7 -6
q0 -29 1 -43zM79 193h96v35h-96v-35zM46 120h53v36h-53v-36zM155 120h53v36h-53v-36zM133 13l-16 -6q1 21 1 27v37h-78q-11 0 -20 -2l-10 9h108q0 20 -1 32l23 -11l-8 -7v-14h85l14 13l17 -20h-116v-26q0 -13 1 -32z" />
  </g>

</svg>
