<?xml version="1.0" standalone="no"?>
<!DOCTYPE svg PUBLIC "-//W3C//DTD SVG 1.1//EN" "http://www.w3.org/Graphics/SVG/1.1/DTD/svg11.dtd" >
<svg xmlns="http://www.w3.org/2000/svg" xmlns:xlink="http://www.w3.org/1999/xlink" version="1.1" viewBox="0 -140 1000 1000">
  <g transform="matrix(1 0 0 -1 0 860)">
   <path fill="currentColor"
d="M504 293v16q-1 7 -15.5 70.5t-16.5 70.5q-19 115 -23 148l15 8q3 -11 19.5 -85t20.5 -87q4 -18 15.5 -50t15.5 -36q58 154 70 301h-180l-7 15h179q8 13 9 15q2 3 3.5 6l2.5 5l1 2q50 -20 62 -39q-6 -10 -23 -16l-8 -54l1 -16h81v321q60 -4 74 -24l-31 -16v-281h70
q24 24 27 24q55 -15 63 -44h-160v-339h94q22 24 29 24l9 -4q9 -4 19.5 -9t19 -10.5t8.5 -8.5l-7 -12h-305q56 -65 102 -95q-3 -7 -10 -7h-7q-6 0 -54 -24q-52 46 -123 149q-15 20 -17 20q-146 -173 -199 -185h-4q62 62 94 101q86 93 86 146zM234 469h-136l-8 16h140v121
h-101q-43 -55 -70 -78h-8q14 32 64 134q88 171 115 264q64 -27 64 -43q0 -8 -14 -10q-18 -3 -18 -17q0 -6 41 -27q53 -27 80.5 -51t31 -35t3.5 -26q0 -18 -12 -18q-6 0 -20 18q-83 90 -132 115l-110 -203h172l24 39q0 1 3 1q58 -19 70 -59h-136v-121h63q5 3 23 39
q57 -24 78 -59h-168v-407l-39 -8v415zM215 364l-24 -16q-1 -1 -10 -22q-53 -118 -99 -173l-8 -6h-8q58 132 78 240q1 1 14 1q46 0 57 -24zM613 208h109v336h-86q-33 -165 -78 -258q5 -11 25 -41.5t30 -36.5zM308 372q3 6 8 8q77 -41 102 -121q-3 -37 -17 -37q-17 0 -43 63
q-32 73 -50 87z" />
  </g>

</svg>
