<?xml version="1.0" standalone="no"?>
<!DOCTYPE svg PUBLIC "-//W3C//DTD SVG 1.1//EN" "http://www.w3.org/Graphics/SVG/1.1/DTD/svg11.dtd" >
<svg xmlns="http://www.w3.org/2000/svg" xmlns:xlink="http://www.w3.org/1999/xlink" version="1.1" viewBox="0 -205 1024 1024">
  <g transform="matrix(1 0 0 -1 0 819)">
   <path fill="currentColor"
d="M376 774l38 -24h164l28 28l40 -32q12 -6 12 -12q0 -4 -26 -20v-92l4 -44q0 -16 -18 -26t-32 -8v38h-164v-32q0 -13 -12 -22t-38 -8l4 96v158v0v0zM422 606h164v120h-164v-120v0v0zM916 938l56 -46q8 -6 8 -12t-18 -12l-20 -10q-38 -99 -100 -270q47 -48 82 -86
q36 -39 54 -72q19 -34 20 -70q-1 -36 -10 -60q-10 -21 -32 -42q-21 -18 -60 -36q-13 29 -34 44q-21 12 -66 22l2 16q39 -7 70 -10t50 10q19 11 26 32q5 18 -4 60q-10 41 -38 82q-28 42 -82 108l74 290h-130v-706l4 -105q0 -14 -20 -26q-18 -13 -36 -14l4 167v744l48 -36h124
l28 38v0v0zM610 522l42 -36q13 -9 14 -14q0 -4 -18 -8q-16 -9 -28 -14q-10 -3 -76 -78v-50l128 26l6 -18l-136 -36v-148q1 -35 -12 -57q-15 -20 -56 -34q-8 27 -34 42q-27 12 -68 24l4 18q80 -22 100 -20q19 1 18 39v126q-81 -21 -108 -30q-27 -8 -54 -28l-38 50l200 38v94
l36 -20l50 80h-180q-7 0 -28 -8l-24 32h240l22 30v0v0zM602 848l34 40l46 -46q6 -3 6 -6q3 -12 -6 -12h-292q-18 0 -60 -8l-18 32h290v0v0zM424 976l6 10q44 -21 68 -36q23 -14 32 -34q6 -21 -2 -36q-10 -15 -28 -14q-18 0 -20 24q-2 21 -16 40q-13 18 -40 46v0v0zM26 750
h146v238l76 -28l6 -4q4 -10 -12 -16l-22 -14v-176h40l30 38q46 -46 50 -52q3 -7 -2 -10q-6 -3 -18 -2h-100v-112q48 -22 76 -44q26 -21 32 -42q6 -22 -2 -38q-6 -15 -24 -14q-15 -1 -20 22q-6 23 -18 46q-13 20 -44 50v-422l4 -85q1 -15 -16 -30q-16 -12 -40 -16l4 137v386
q-18 -58 -56 -146q-40 -87 -82 -138l-10 8q30 54 58 130q26 74 52 158t38 150h-86q-12 0 -36 -8l-24 34v0v0z" />
  </g>

</svg>
