<?xml version="1.0" standalone="no"?>
<!DOCTYPE svg PUBLIC "-//W3C//DTD SVG 1.1//EN" "http://www.w3.org/Graphics/SVG/1.1/DTD/svg11.dtd" >
<svg xmlns="http://www.w3.org/2000/svg" xmlns:xlink="http://www.w3.org/1999/xlink" version="1.1" viewBox="0 -205 1024 1024">
  <g transform="matrix(1 0 0 -1 0 819)">
   <path fill="currentColor"
d="M568 454v-157h166v157h-166zM568 638v-153h166v153h-166zM421 586q61 93 106 223q46 132 46 175q0 17 18 8q39 -20 55 -30q12 -7 12 -13q-1 -4 -13 -7q-12 -2 -16 -8q-10 -9 -29 -60q-9 -23 -19 -45h289q11 1 15 5l23 32q6 10 15 0q37 -30 59 -52q6 -6 -1 -10
q-28 -16 -29 -17q-5 -4 -5 -13q-2 -103 -3 -290q-2 -172 -14 -275q-9 -73 -40 -110q-32 -37 -75 -55q-11 -7 -15 0q-10 12 -29 25q-28 21 -109 34q-15 5 -14 12q2 8 14 7q104 -12 149 -8q25 2 35 14q22 23 31 63q17 71 18 258q2 223 5 349h-333q-20 -41 -42 -86q-3 -3 -4 -7
q2 -1 6 -5q12 -13 36 -31h151q6 0 9 4l18 28q7 8 14 1q29 -19 57 -41q9 -8 8 -12q-2 -5 -9 -9q-26 -12 -27 -19q-2 -6 -2 -13v-280q0 -36 6 -97q1 -11 -5 -12q-43 -15 -47 -14q-2 1 -2 11v50h-166v-63q0 -8 -6 -9q-20 -8 -39 -17q-9 -3 -8 12q4 63 5 210v212q-1 36 -5 82
l-1 1q-32 -57 -80 -124q9 -10 16 -21q11 -16 8 -23q-4 -7 -17 -8h-150v-161q71 19 135 35q15 4 16 -5q2 -12 -14 -16q-76 -29 -137 -51v-35q0 -117 4 -196q1 -8 -5 -12l-42 -27q-13 -10 -12 11q6 133 7 224v18q-122 -38 -131 -53q-7 -8 -11 -9t-7 8q-10 26 -31 45
q-12 11 -11 14q2 3 12 4q69 8 150 27q13 4 29 7v172h-120q-7 -12 -11 -16q-6 -7 -10 -1q-13 18 -41 34q-7 6 0 10q6 6 15 10q24 21 84 255h-14q-42 -1 -73 -7q-8 -3 -11 6q-4 18 -19 30q-7 7 -4 11q4 3 11 -1q38 -8 84 -8h34q25 108 26 147q0 11 7 8q31 -14 68 -36
q9 -5 9 -12q0 -5 -12 -8q-25 -10 -46 -91q-2 -4 -3 -8h118q6 0 12 7l36 41q7 7 14 0q26 -26 44 -48q11 -14 4 -24q-5 -6 -18 -7h-218q-18 -60 -75 -261h109v19q-1 80 -5 128q-2 17 10 13q54 -17 72 -27q14 -7 -2 -16q-16 -8 -20 -18q-7 -19 -7 -80v-19h49q11 0 21 10l33 38
q7 8 14 1q7 -6 13 -12z" />
  </g>

</svg>
