<?xml version="1.0" standalone="no"?>
<!DOCTYPE svg PUBLIC "-//W3C//DTD SVG 1.1//EN" "http://www.w3.org/Graphics/SVG/1.1/DTD/svg11.dtd" >
<svg xmlns="http://www.w3.org/2000/svg" xmlns:xlink="http://www.w3.org/1999/xlink" version="1.1" viewBox="0 -154 1024 1024">
  <g transform="matrix(1 0 0 -1 0 870)">
   <path fill="currentColor"
d="M562 950q4 -12 -5 -12q-20 -4 -29 -25q-40 -93 -82 -174q-5 -10 -10 -19l51 -21q14 -6 6 -11q-21 -9 -30 -21v-508l2 -97q0 -21 -13 -31q-12 -9 -38 -15q4 39 7 190v471q1 7 -2 15q-35 -54 -80 -101l-12 12q42 60 89 157q46 96 61 143t12 53t-13 21l8 6zM156 1009l87 -36
q14 -6 6 -11q-21 -9 -30 -21v-182h71l26 32l50 -42q15 -13 -6 -10h-141v-126q44 -19 62 -31q21 -17 35 -42q13 -27 7 -50q-8 -25 -23 -22q-16 2 -21 35t-26 57q-15 16 -34 31v-430l2 -97q0 -21 -13 -31q-12 -9 -38 -15q4 39 7 190v361q-9 -30 -18 -56q-32 -86 -59 -134
t-74 -108l-14 10q46 77 79 161q32 82 48 147q14 63 26 150h-60q-27 0 -45 -13l-34 33h151v192q0 21 -27 49zM610 863q-20 0 -31 -12l-27 32h305l27 35l46 -50q7 -11 -2 -12q-16 -6 -22 -14q-4 -9 -16 -87t-33 -216h71l23 33l51 -50q8 -11 -4 -15q-12 -3 -22 -15l-6 -121
l-5 -88q-5 -85 -26 -136q-17 -37 -44 -67q-20 -22 -46 -37q-23 -15 -77 -20q-1 24 -15 39q-21 22 -79 54l3 13q80 -32 111 -36q28 -3 61 17q29 20 45 65q19 49 24 137l11 207h-78l-35 -34l-36 55q24 12 36 43l21 128l19 152h-148q9 -332 -36 -506q-46 -174 -166 -313l-14 10
q100 152 141 325q41 172 34 484h-61z" />
  </g>

</svg>
