<?xml version="1.0" standalone="no"?>
<!DOCTYPE svg PUBLIC "-//W3C//DTD SVG 1.1//EN" "http://www.w3.org/Graphics/SVG/1.1/DTD/svg11.dtd" >
<svg xmlns="http://www.w3.org/2000/svg" xmlns:xlink="http://www.w3.org/1999/xlink" version="1.1" viewBox="0 -154 1024 1024">
  <g transform="matrix(1 0 0 -1 0 870)">
   <path fill="currentColor"
d="M77 946l30 -33h245l28 36l57 -44q15 -12 -6 -12h-157v-135h52l29 35l52 -39q15 -12 -6 -12h-127v-135h54l31 41l50 -45q15 -13 -6 -12h-129v-136h80l24 31l45 -30q18 -13 0 -19l-16 -13v-146q-1 -98 -20 -138q-19 -44 -52 -68t-87 -35q0 18 -16 32q-27 15 -80 32l2 20
q78 -30 120 -29q27 0 60 32q34 37 34 132v179h-250v-8q-3 -18 -13 -26q-6 -9 -32 -14q7 22 7 56v458q2 15 -15 33zM1009 84v-15q-43 -1 -60 -4q-17 -4 -25 -28q-126 36 -216 113q-123 -96 -293 -128l-6 12q155 50 272 140q-91 89 -134 215h-8q-21 0 -31 -13l-31 33h358
l28 31l50 -44q9 -9 -2 -12q-14 -1 -20 -8q-62 -121 -152 -201q109 -83 270 -91zM483 893q0 19 -19 34l5 7l79 -32q19 -8 -2 -15q-14 -8 -23 -15v-201h371v208q0 16 -30 36l9 8l85 -24q16 -7 -1 -14q-15 -10 -23 -18v-129l4 -73q-3 -39 -44 -46v32h-208l68 -19q12 -5 5 -11
q-19 -7 -32 -19v-101l3 -42q2 -35 -45 -41q5 34 6 105v88q2 15 -24 32l6 8h-141l-27 -30l-44 34q18 12 22 30v208zM566 389q58 -115 143 -191q84 75 137 191h-280zM787 993l69 -40q13 -14 -8 -12q-23 -4 -54 -39t-53 -59q115 -93 109 -131q-11 -31 -35 -4q-29 43 -98 111
q-90 -86 -174 -128l-9 9q90 69 158 139q-46 37 -141 95l6 14q92 -41 157 -86q53 61 69 84q15 21 -4 39zM118 591v-136h118v136h-118zM118 742v-135h118v135h-118zM118 893v-135h118v135h-118zM583 611l64 -40q19 -12 1 -15q-19 0 -35 -9q-90 -103 -178 -147l-8 11
q40 35 81 79q40 44 62 76q18 17 3 38zM771 574l6 13q201 -75 200 -153q0 -23 -19 -27q-25 5 -33 32q-33 68 -154 135zM71 347h13q1 -48 1 -77q-1 -31 -9 -55q-7 -24 -24 -35q-20 -9 -25 6q-5 16 10 31q17 15 23 45q6 28 11 85zM256 384l6 8q40 -35 58 -62q16 -28 16 -52
q-2 -27 -17 -26q-15 -1 -16 23q-3 21 -10 42t-37 67zM181 367l6 8q29 -24 48 -54q17 -31 17 -56q-1 -27 -15 -29q-15 -3 -17 24q-1 26 -9 50q-7 24 -30 57zM117 352l10 6q27 -41 36 -74q11 -32 6 -55q-7 -24 -22 -22q-16 2 -9 26q5 24 2 45q0 17 -8 32q-4 13 -15 42z" />
  </g>

</svg>
