<?xml version="1.0" standalone="no"?>
<!DOCTYPE svg PUBLIC "-//W3C//DTD SVG 1.1//EN" "http://www.w3.org/Graphics/SVG/1.1/DTD/svg11.dtd" >
<svg xmlns="http://www.w3.org/2000/svg" xmlns:xlink="http://www.w3.org/1999/xlink" version="1.1" viewBox="0 -36 256 256">
  <g transform="matrix(1 0 0 -1 0 220)">
   <path fill="currentColor"
d="M117 107q-4 -5 -11 -15.5t-14 -19.5l27 3q-4 10 -6 14l2 2q13 -11 17.5 -18t-0.5 -13.5t-6.5 -1.5t-4.5 13q-28 -9 -31 -15l-8 16q6 0 12 17t7 28zM25 168q0 34 -1 47l13 -6h16q9 21 12 38l17 -9q-6 -5 -11.5 -13t-11.5 -16h44l6 9l14 -9l-6 -9q0 -56 1 -76l-14 -5v7h-33
l-1 -5l20 -10l-7 -6v-61q0 -19 14 -19h121q7 0 10 5t4 33h4q0 -9 2 -21t10 -14q-6 -14 -22 -14h-135q-21 0 -21 25v82q-15 -70 -60 -112l-2 3q39 50 51 114h-22v-6l-13 -5q1 19 1 53zM37 173h26v29h-26v-29zM75 173h29v29h-29v-29zM37 133h23q2 13 3 33h-26v-33zM72 133h32
v33h-29q-1 -17 -3 -33zM226 221q4 -6 -1 -13.5t-9 4.5t-14 21l2 3q18 -9 22 -15zM166.5 150.5q4.5 -8.5 -1.5 -16t-9 5t-13 27.5l3 2q16 -10 20.5 -18.5zM180 245l20 -7l-7 -8v-36h25l9 9l15 -16h-49v-49q21 28 24 39l15 -14q-7 -3 -39 -31v-9q27 -13 36 -21.5t5.5 -18
t-12.5 4.5t-29 31v-59q0 -7 -3 -12t-14 -9q-4 12 -24 19v4q22 -3 25.5 -2.5t3.5 4.5v51q-31 -30 -36 -39l-14 14q12 4 50 33v64h-18q-10 -1 -20 -3l-9 10h47q0 37 -1 51z" />
  </g>

</svg>
