<?xml version="1.0" standalone="no"?>
<!DOCTYPE svg PUBLIC "-//W3C//DTD SVG 1.1//EN" "http://www.w3.org/Graphics/SVG/1.1/DTD/svg11.dtd" >
<svg xmlns="http://www.w3.org/2000/svg" xmlns:xlink="http://www.w3.org/1999/xlink" version="1.1" viewBox="0 -205 1048 1024">
  <g transform="matrix(1 0 0 -1 0 819)">
   <path fill="currentColor"
d="M292 786l43 -37q11 -9 8 -13q-4 -3 -13 -3h-107v-121q35 -11 66 -33q30 -21 48 -46q12 -21 11 -41q-1 -18 -10 -27q-10 -8 -22 0q-13 11 -21 38q-8 21 -24 42q-19 26 -47 45v-463l2 -16q2 -13 -1 -18q-4 -8 -22 -17q-22 -7 -27 -3q-3 3 -1 19l2 17v437l-57 -129
q-35 -71 -64 -120l-9 8q44 103 76 202q40 124 54 226h-40l-68 -3l-13 22l69 -4h52v171l-3 61l49 -12q35 -11 32 -20q-3 -8 -33 -14v-186h30zM978 131q10 -8 10 -15q0 -20 -74 -29q-68 -8 -116 -2q-42 6 -52 28q-6 12 -6 60v460l-5 43l58 -22h100l19 21q8 14 13 14
q4 0 18 -12l33 -33q11 -12 11 -19q0 -13 -36 -17v-257q0 -50 -3 -63.5t-18 -22.5q-22 -18 -61 -23q-15 0 -14.5 18t-9.5 21l-32 9l1 8h37q10 -1 19 -1q37 0 37 52v284h-122v-454q0 -36 9.5 -47t24.5 -15h41q61 0 77 50l31 88l8 -4l-15 -89q-5 -24 17 -31zM726 207l-4 -15
h-186v-78q0 -35 -2.5 -39.5t-18.5 -10.5q-10 -4 -15 -4q-10 0 -10 13q0 -6 0 45v74h-155v20h155v86h-74q0 -20 -3 -23q-11 -4 -20.5 -9.5t-14.5 -5.5q-7 0 -8 14q1 -19 1 41v215l-3 41l54 -28h68v90h-152v21h152v54l-2 43l33 -9q45 -11 45 -22q0 -8 -30 -14v-52h76l21 28
q12 17 21 17q6 0 18 -11l40 -39l-5 -16h-171v-90h66l21 21q8 9 15 9q5 0 14 -8l25 -25q11 -13 11 -19q0 -7 -30 -15v-182q0 -32 -2.5 -38.5t-15 -13.5t-17.5 -7q-8 0 -10 33h-77v-86h106l16 28q8 12 14 12q7 0 21 -12zM613 429v93h-77v-93h77zM613 320v88h-77v-88h77z
M490 429v93h-74v-93h74zM490 320v88h-74v-88h74zM987 884l-9 -16h-145q48 -33 60 -44q23 -19 39 -44q2 -10 2 -20q0 -33 -19 -33q-16 0 -25 38q-24 62 -75 103h-35q-37 -62 -130 -135l-9 12q103 100 143 226l36 -14q27 -10 27 -19q0 -11 -33 -15l-22 -34h102l22 28
q8 15 15 15q8 0 20 -15zM720 879l-5 -16h-185q51 -33 59 -40q28 -22 35 -38.5t7 -28.5q0 -23 -17 -23q-19 0 -26 30q-25 37 -35 51q-21 26 -44 49h-33q-62 -73 -118 -106l-10 10q40 34 74 80q43 66 68 126l33 -14q26 -10 26 -17q0 -10 -34 -14q-3 -6 -28 -44h149l17 27
q5 12 13 12q7 0 17 -12z" />
  </g>

</svg>
