<?xml version="1.0" standalone="no"?>
<!DOCTYPE svg PUBLIC "-//W3C//DTD SVG 1.1//EN" "http://www.w3.org/Graphics/SVG/1.1/DTD/svg11.dtd" >
<svg xmlns="http://www.w3.org/2000/svg" xmlns:xlink="http://www.w3.org/1999/xlink" version="1.1" viewBox="0 -143 1024 1024">
  <g transform="matrix(1 0 0 -1 0 881)">
   <path fill="currentColor"
d="M515 781l54 -51q6 -9 6 -13q-1 -8 -10 -8h-222q5 -134 14.5 -219t25.5 -147q17 36 40 106t42 152q73 -34 75 -38t-2 -8t-17.5 -7t-19.5 -20q-57 -171 -97 -239q17 -46 35 -75t31 -46t22 -23t16 19t39 161l18 -4q-16 -114 -20 -163t6 -71t0 -30t-47 11t-76 73.5t-59 105.5
q-113 -147 -230 -212l-6 14q106 78 218 241q-25 65 -39.5 179t-16.5 240h-164v-454l109 88l10 -14q-105 -110 -121 -137t-30 -53l-58 42q24 21 40 52v544l56 -40h157v234q81 -26 84 -31t0 -9t-35 -15v-179h141zM411 915l8 12q76 -22 98 -40t22 -39t-12 -30t-24 -6t-17 19
t-20 37t-55 47zM913 960l55 -48q9 -6 9 -14q2 -4 -12 -11q-26 -5 -43 -34q-54 -89 -120 -203q84 -80 118 -128t43 -82t9 -65t-10 -59t-35 -55t-91 -55q-6 34 -31 51t-93 39l4 16q70 -16 97 -19t50 3t37 27t17 49t-4 61t-31 74t-110 139l112 244h-215v-720l4 -96
q0 -15 -20 -30t-38 -16l4 148v786l56 -44h202z" />
  </g>

</svg>
