<?xml version="1.0" standalone="no"?>
<!DOCTYPE svg PUBLIC "-//W3C//DTD SVG 1.1//EN" "http://www.w3.org/Graphics/SVG/1.1/DTD/svg11.dtd" >
<svg xmlns="http://www.w3.org/2000/svg" xmlns:xlink="http://www.w3.org/1999/xlink" version="1.1" viewBox="0 -205 1024 1024">
  <g transform="matrix(1 0 0 -1 0 819)">
   <path fill="currentColor"
d="M474 744l56 -40h234l28 42l62 -44q3 -4 4 -8q1 -6 -28 -30v-158l4 -68q0 -13 -18 -22q-18 -10 -36 -10v40h-256v-22q0 -10 -18 -22q-18 -9 -36 -12l4 108v246v0v0zM524 472h256v92h-256v-92v0v0zM524 590h256v88h-256v-88v0v0zM434 378l52 -38h322l28 42l56 -40
q12 -6 12 -14q0 -6 -36 -32v-221h18l36 48l56 -54q3 -2 4 -8q0 -12 -12 -12h-568q-28 0 -52 -6l-24 32h108v303v0v0zM484 75h82v239h-82v-239v0v0zM610 75h80v239h-80v-239v0v0zM736 75h84v239h-84v-239v0v0zM282 732q8 -6 -4 -14q-21 -6 -32 -14q-9 -7 -36 -46
q-25 -40 -80 -124l132 2q51 75 76 124l68 -42q6 -13 -8 -16q-18 -3 -32 -12q-15 -9 -60 -68q-42 -57 -144 -170l184 8q-23 47 -52 80l12 12q51 -37 78 -64q24 -27 28 -50q3 -24 -8 -36t-22 -12q-12 -1 -18 8q-6 5 -6 14q0 5 -6 26q-117 -13 -158 -22q-40 -9 -76 -32l-40 62
q27 6 54 18q63 69 118 148q-59 -6 -94 -12q-34 -6 -64 -24l-38 62q32 9 44 12q11 2 44 62t72 160l68 -40v0v0zM142 270h20q6 -72 0 -120q-5 -46 -22 -71q-17 -24 -34 -30q-16 -4 -28 4q-13 7 -14 22t20 32q17 19 32 41q12 21 16 42q3 17 10 80v0v0zM206 280l16 6
q33 -47 48 -82q15 -33 16 -60q0 -23 -14 -37q-12 -11 -30 -2q-15 9 -12 43q3 35 -2 62q-5 24 -22 70v0v0zM342 954l84 -32q5 -3 2 -8q-1 -3 -34 -24v-56h192v122l80 -32q6 -2 6 -10q0 -3 -36 -20v-60h212l40 50l64 -60q3 -3 4 -8q-1 -7 -16 -8h-304v-60q-1 -14 -20 -22
q-21 -6 -30 -6v88h-192v-74q-3 -14 -24 -22q-7 -6 -28 -6v102h-210q-21 0 -68 -8l-20 34h298v120v0v0zM290 290l14 10q50 -42 74 -74q21 -31 24 -58q0 -25 -14 -37q-12 -12 -30 -4q-16 5 -14 37q0 30 -12 60t-42 66v0v0z" />
  </g>

</svg>
