<?xml version="1.0" standalone="no"?>
<!DOCTYPE svg PUBLIC "-//W3C//DTD SVG 1.1//EN" "http://www.w3.org/Graphics/SVG/1.1/DTD/svg11.dtd" >
<svg xmlns="http://www.w3.org/2000/svg" xmlns:xlink="http://www.w3.org/1999/xlink" version="1.1" viewBox="0 -205 1024 1024">
  <g transform="matrix(1 0 0 -1 0 819)">
   <path fill="currentColor"
d="M446 634l54 -36h138v122l84 -32q9 -6 6 -12q0 -3 -38 -24v-54h136l32 36l56 -38q8 -6 8 -14q0 -4 -32 -28v-190h22l32 46l54 -54q3 -3 4 -8q3 -12 -8 -12h-286q24 -60 70 -114q44 -52 100 -82q53 -28 128 -43v-18h-44q-36 -9 -48 -34q-55 28 -104 74q-48 44 -78 103
q-31 57 -46 114h-20q-19 -78 -76 -140q-54 -62 -132 -101q-78 -36 -170 -72l-6 18q72 31 148 76q76 43 122 101q45 56 64 118h-174q-55 0 -74 -8l-20 36h98v270v0v0zM496 364h126q15 103 16 206h-142v-206v0v0zM690 570q1 -81 -16 -206h166v206h-150v0v0zM534 970l82 -34
q5 -4 2 -10q0 -3 -32 -18v-98h172v158l82 -32q6 -1 4 -10q-1 -3 -34 -18v-98h70l40 46l62 -58q3 -1 4 -8q-1 -6 -16 -6h-160v-80q-3 -15 -20 -26q-21 -6 -32 -6v112h-172v-76q-2 -16 -16 -22q-12 -6 -36 -6v104h-62q-22 -1 -70 -10l-18 36h150v160v0v0zM14 872h304l36 42
l52 -50q12 -15 -8 -18h-158q-28 -136 -70 -268h110l32 36l54 -46q6 -6 6 -8q0 -6 -32 -30v-328l4 -44q2 -15 -16 -27q-18 -14 -36 -16v77h-124v-73q0 -18 -20 -28q-21 -12 -32 -12l4 101v278q-34 -78 -94 -150l-10 8q51 104 96 230q42 123 76 300h-86q-22 0 -70 -8l-18 34v0
v0zM168 218h124v334h-124v-334v0v0z" />
  </g>

</svg>
