<?xml version="1.0" standalone="no"?>
<!DOCTYPE svg PUBLIC "-//W3C//DTD SVG 1.1//EN" "http://www.w3.org/Graphics/SVG/1.1/DTD/svg11.dtd" >
<svg xmlns="http://www.w3.org/2000/svg" xmlns:xlink="http://www.w3.org/1999/xlink" version="1.1" viewBox="0 -144 1024 1024">
  <g transform="matrix(1 0 0 -1 0 880)">
   <path fill="currentColor"
d="M509 80l-38 23l-33 26l-30 29l-23 32l-20 34l-13 36l-2 8l-18 -38l-25 -37l-31 -33l-38 -30l-43 -26l-50 -22l-55 -18l-62 -15l-2 9l57 25l50 25l43 27l37 28l30 29l24 31l17 31l12 34l1 7h-266v22h270l1 6l1 37v489h-237v21h237v113l64 -10l16 -11l-16 -10v-82h115
l54 54l64 -54v-21h-233v-489l-1 -1l-3 -42h154l46 45l-11 -1l-20 14l-5 13l-10 23l-13 23l-21 33l-11 -19l-15 -22l-16 -22l-18 -21l-20 -20l-22 -18l-7 6l38 72l10 23l10 23l9 23l13 47l5 23l4 25l2 9l61 -23l14 -13l-20 -7l-11 -31l-11 -26l-6 -11l17 -8l12 -8l12 -8
l12 -9l22 -20l21 -24l3 -24l-14 -19l58 -48v-22h-266l12 -23l18 -29l21 -26l25 -23l27 -22l31 -19l34 -16l38 -15l85 -26l-63 -55l-46 18zM763 112h108l6 1l5 1l3 1l2 1l2 1v1l1 1l1 4l1 5v6v849l65 -10l16 -11l-16 -10v-818l-1 -13l-2 -14l-5 -13l-6 -12l-9 -11l-11 -9
l-12 -7l-13 -4l-13 -2l-14 -1v32l-108 16v16zM764 892l16 -11l-16 -9v-614l-65 -33v678zM233 392l-9 22l-12 22l-13 21l-7 10l-14 -25l-15 -23l-18 -23l-19 -21l-21 -18l-24 -18l-7 7l29 47l25 46l10 24l9 24l7 23l6 25l4 25l3 20l2 16l63 -21l14 -14l-20 -7l-11 -35
l-10 -27l-4 -7l4 -2l13 -6l23 -15l12 -8l10 -9l11 -10l19 -22l3 -24l-15 -20l-24 -3l-20 15zM522 642l-3 10l-5 10l-6 10l-6 10l-15 20l-2 2l-16 -28l-15 -22l-16 -21l-17 -19l-19 -19l-21 -18l-7 6l36 69l19 44l8 22l7 23l6 23l5 22l3 23l3 10l60 -24l14 -13l-20 -7
l-11 -29l-10 -24l-1 -2l5 -2l14 -5l12 -6l12 -7l12 -9l10 -9l11 -10l9 -12l8 -12l1 -24l-17 -18l-24 -1l-18 17l-2 10zM226 639l-9 20l-12 21l-13 20l-1 1l-14 -25l-15 -22l-17 -21l-18 -20l-20 -18l-21 -18l-7 6l38 69l10 22l19 45l7 22l6 23l5 22l4 23l2 10l61 -24l14 -13
l-20 -7l-12 -29l-10 -24l-2 -4l4 -2l12 -6l23 -14l11 -8l10 -8l10 -9l9 -10l9 -11l2 -24l-15 -19l-24 -3l-19 15l-4 10z" />
  </g>

</svg>
