<?xml version="1.0" standalone="no"?>
<!DOCTYPE svg PUBLIC "-//W3C//DTD SVG 1.1//EN" "http://www.w3.org/Graphics/SVG/1.1/DTD/svg11.dtd" >
<svg xmlns="http://www.w3.org/2000/svg" xmlns:xlink="http://www.w3.org/1999/xlink" version="1.1" viewBox="0 0 2048 2048">
  <g transform="matrix(1 0 0 -1 0 2048)">
   <path fill="currentColor"
d="M1104 1390h-14l-20 -6l-33 -3l-37 82q45 -8 82 -12q38 -4 130 -4h106v207l-125 -1q-86 -1 -105 -2q-20 -1 -28 -2q-9 -1 -30 -3l-25 -3l-39 86l48 -7q21 -4 52 -8q31 -3 127 -3h125v71q-1 75 -2 104t-2 35l-3 13l110 -24q49 -11 66 -20q17 -10 19 -24q1 -14 -11 -24
t-38 -19l-44 -16v-95h239l81 81l114 -86q8 -7 13 -15q6 -7 2 -19q-4 -11 -12 -15q-7 -3 -14 -3l-423 -1l-1 -208h228l61 73l73 -50q15 -11 27 -23t14 -22q2 -11 -8 -23q-8 -10 -30 -19l-38 -16l-53 -72q-26 -36 -60 -76q-33 -41 -70 -75q-38 -34 -54 -45l-16 -11
q12 -8 26 -16q15 -8 61 -29q46 -20 93 -36q48 -15 92 -24q43 -10 115 -22l62 -11l-4 -45q-16 0 -42 -1t-45 -17q-18 -16 -24 -30l-6 -13l-76 25q-36 11 -68 24q-31 14 -94 45q-64 31 -94 48t-58 37l-18 12l-38 -21q-21 -11 -54 -26q-34 -15 -98 -37q-65 -23 -120 -38
t-140 -32l-84 -17l-11 43l111 30q54 15 108 32q53 17 105 39t93 43q40 21 52 29l12 8q-12 9 -18 15q-5 5 -34 38q-30 33 -70 82q-39 50 -68 91t-42 66zM1156 1390q6 -7 9 -10l40 -49q25 -32 74 -83q49 -50 76 -72t38 -29l18 -13q8 5 17 12t41 35t75 79q44 51 69 93l23 38z
M972 672q-2 81 -4 110q-2 30 -2 36l-2 13l109 -24q53 -12 68 -21q15 -8 17 -22q1 -14 -13 -26q-14 -13 -36 -18l-42 -11l-1 -512l554 1v312q0 48 -3 94.5t-3 52.5l-2 13l109 -24q49 -11 67 -20q17 -10 18 -24q2 -13 -13 -26q-15 -12 -36 -17l-41 -11v-298q0 -19 2 -52
q1 -34 4 -60q3 -25 3 -36q-2 -20 -11 -32q-9 -13 -45 -17q-23 -3 -35 4q-13 7 -13 20l-1 64h-1195q-6 -4 -13 -7q-6 -3 -16 -4q-11 -2 -20 0q-10 1 -19 4q-9 4 -15 10q-6 7 -8 15t-2 24v359q0 48 -3 94.5t-3 52.5l-2 13l109 -24q49 -11 67 -20q18 -10 18 -24q1 -14 -13 -26
q-14 -11 -36 -17l-41 -12v-381h544v474zM596 1674h134l80 80l114 -86q8 -7 14 -14q5 -8 2 -19q-3 -9 -12 -14t-14 -5h-318v-243q13 2 72 14t74 16l155 38l14 -36q-109 -39 -152 -53q-43 -13 -142 -41l-21 -6v-272q0 -39 -10 -67q-11 -27 -30 -44q-18 -18 -45 -35t-38 -18
l-32 -7l-7 36q-3 18 -18 36q-14 18 -40 30q-26 13 -80 23l-61 11l8 46q48 -8 81 -13l59 -9q25 -3 56 -4q31 -2 45 12q15 13 15 45v206q-15 -5 -22 -6l-56 -13l-170 -44l-12 -45q-5 -16 -11 -23q-6 -6 -14 -5q-7 0 -16 9q-9 10 -16 27l-53 122q22 1 50 4t77 9q48 6 101 14
q53 7 104 17l38 7v262h-162q-30 0 -71 -3l-27 -2q-24 -2 -26 -2l-25 -3l-39 86q26 -5 47 -8q20 -3 40 -5q19 -2 50 -3q32 -2 51 -2h162v84q0 31 -3 86q-2 55 -3 60l-3 14l110 -24q49 -11 66 -20q17 -10 18 -24t-12 -25t-36 -18l-40 -12v-121z" />
  </g>

</svg>
