<?xml version="1.0" standalone="no"?>
<!DOCTYPE svg PUBLIC "-//W3C//DTD SVG 1.1//EN" "http://www.w3.org/Graphics/SVG/1.1/DTD/svg11.dtd" >
<svg xmlns="http://www.w3.org/2000/svg" xmlns:xlink="http://www.w3.org/1999/xlink" version="1.1" viewBox="0 -205 1024 1024">
  <g transform="matrix(1 0 0 -1 0 819)">
   <path fill="currentColor"
d="M484 572h260l36 42l52 -50q3 -4 4 -10q0 -7 -12 -8h-256q-21 1 -62 -10l-22 36v0v0zM474 442l60 -38h244l34 40l52 -42q9 -6 10 -14q0 -6 -30 -26v-202l4 -77q1 -14 -18 -28q-21 -14 -38 -14v72h-268v-52q0 -12 -18 -24q-18 -14 -36 -14l4 117v302v0v0zM524 137h268v243
h-268v-243v0v0zM134 624h190l36 46l42 -40q19 -15 14 -24q-3 -9 -8 -8h-166v-164h102l36 44l54 -50q9 -12 -6 -20h-186v-250l160 120l12 -12q-114 -112 -150 -147q-36 -36 -56 -70l-58 52q19 13 44 34v273h-82q-31 0 -58 -8l-18 34h158v164h-18l-24 -6l-18 32v0v0zM714 942
q9 -6 10 -8q9 -7 -26 -20q36 -93 76 -150q38 -55 94 -104t128 -68v-16q-37 0 -56 -2q-18 -1 -38 -22q-51 44 -84 86q-33 39 -72 102q-39 62 -68 158q-45 -89 -110 -184q-65 -94 -190 -208l-10 14q111 128 172 230q60 102 106 220l68 -28v0v0zM290 938q7 -3 8 -6q3 -9 -8 -14
q-24 -7 -36 -28q-18 -45 -38 -86h132l40 46l58 -58q2 -3 2 -6q0 -9 -6 -8h-236q-33 -75 -68 -138q-33 -64 -92 -142l-14 10q54 97 114 242q56 143 74 224l70 -36v0v0z" />
  </g>

</svg>
