<?xml version="1.0" standalone="no"?>
<!DOCTYPE svg PUBLIC "-//W3C//DTD SVG 1.1//EN" "http://www.w3.org/Graphics/SVG/1.1/DTD/svg11.dtd" >
<svg xmlns="http://www.w3.org/2000/svg" xmlns:xlink="http://www.w3.org/1999/xlink" version="1.1" viewBox="0 -246 2048 2048">
  <g transform="matrix(1 0 0 -1 0 1802)">
   <path fill="currentColor"
d="M950 1039v-72h-94v313q-23 -30 -72 -84l-33 23v-586h-100v62h-353v-90h-106v749q-31 -43 -96 -121l-39 31q203 301 276 676q177 -19 177 -56q0 -21 -76 -43q-12 -41 -20 -61h137l73 86q113 -94 113 -119q0 -12 -23 -22l-53 -25q-55 -108 -159 -258h139l61 74
q103 -78 103 -107q0 -11 -15 -22l-39 -31v-133q118 169 166 410q150 -24 150 -52q0 -24 -66 -37q-3 -12 -22 -59h273l63 78q110 -85 110 -107q0 -12 -20 -24l-35 -23v-80q0 -326 -28 -423q-18 -66 -56 -93q-39 -27 -109 -26q-1 39 -33 57q-27 15 -98 27v51q84 -12 123 -12
q67 0 76 55q21 103 21 387v82h-312q-24 -49 -55 -92q9 -5 33 -15q18 -8 32 -14h101l51 60q98 -65 98 -95q0 -12 -14 -20l-29 -21v-249h-94v51h-127zM950 1090h127v174h-127v-174zM446 1442q73 164 107 287h-158q-58 -149 -128 -260q30 -12 54 -27h125zM298 1391v-287h126
v287h-126zM522 1391v-287h129v287h-129zM651 1053h-129v-307h129v307zM424 1053h-126v-307h126v307zM1517 1417q-36 -78 -82 -151l-41 20q106 270 140 639q170 -32 170 -65q0 -28 -72 -41q-22 -125 -43 -195h186l82 107q71 -59 117 -117l-19 -41h-90q-30 -262 -139 -449
q115 -146 262 -245q-54 -48 -80 -101q-142 117 -237 260q-115 -160 -295 -258l-31 43q168 115 273 304q-78 152 -101 290zM1548 1497q40 -160 115 -280q67 147 88 356h-176q-20 -59 -27 -76zM1067 494h-227l-21 51h252v229q199 -9 199 -51q0 -23 -78 -51v-127h321v223
q199 -12 199 -53q0 -21 -80 -49v-121h133l92 123q74 -65 129 -133l-24 -41h-330v-406h-119v406h-325q-20 -187 -152 -293q-102 -83 -293 -131l-28 49q316 108 352 375zM956 1711h-166l-20 51h186v158q160 -6 160 -39q0 -21 -62 -45v-199h-98v74zM1265 1762h70l57 96
q43 -40 94 -112l-22 -35h-199v-95h-98v304q159 -6 159 -39q0 -21 -61 -45v-74zM323 531l45 12q90 -159 90 -286q0 -115 -82 -115q-49 0 -49 51q0 18 8 47q10 53 10 111q0 73 -22 180zM467 549l41 23q141 -142 141 -277q0 -78 -66 -78q-47 0 -47 72q-3 133 -69 260zM196 541
l49 -8q11 -61 11 -133q0 -136 -43 -221q-36 -70 -84 -70q-66 0 -66 59q0 31 29 60q95 104 104 313zM602 584l33 31q100 -58 154 -128q44 -56 44 -101q0 -76 -55 -76q-43 0 -58 63q-24 123 -118 211z" />
  </g>

</svg>
