<?xml version="1.0" standalone="no"?>
<!DOCTYPE svg PUBLIC "-//W3C//DTD SVG 1.1//EN" "http://www.w3.org/Graphics/SVG/1.1/DTD/svg11.dtd" >
<svg xmlns="http://www.w3.org/2000/svg" xmlns:xlink="http://www.w3.org/1999/xlink" version="1.1" viewBox="0 -205 1024 1024">
  <g transform="matrix(1 0 0 -1 0 819)">
   <path fill="currentColor"
d="M68 832h212v146l72 -24q8 -3 8 -6q0 -7 -6 -10l-26 -16v-90h134l32 40l54 -46q3 -3 4 -8q0 -10 -12 -10h-212v-120h96l28 34l52 -42q3 -4 4 -4q0 -12 -12 -12h-310q-21 0 -68 -8l-16 32h178v120h-128q-21 0 -68 -8l-16 32v0v0zM134 610l50 -38h218l26 36l46 -32
q12 -6 12 -14q0 -6 -24 -20v-76l6 -66q3 -12 -14 -24q-15 -12 -42 -14v30h-228v-10q3 -15 -12 -26q-15 -10 -44 -16l6 102v168v0v0zM184 416h228v132h-228v-132v0v0zM436 332q13 -5 14 -10q1 -8 -12 -10q-14 -1 -40 -38q-24 -36 -54 -96l190 26l2 -18q-369 -63 -404 -75
q-36 -11 -54 -26l-38 61l280 30q24 54 64 180l52 -24v0v0zM494 764h210v218l76 -30q7 -2 8 -10q-3 0 -6 -6l-28 -16v-156h134l34 44l50 -52q3 -3 4 -6q3 -12 -8 -12h-214v-178h68l34 36l58 -46q3 -1 4 -8q0 -4 -12 -10q-24 -9 -30 -32q-27 -84 -56 -144q-30 -57 -72 -110
q51 -59 106 -88q54 -28 84 -35q27 -5 64 -14v-18q-36 4 -54 -8q-18 -9 -36 -24q-54 33 -98 66q-43 31 -92 91q-39 -42 -126 -97q-87 -57 -224 -102l-6 16q118 49 200 106q81 53 130 111q-42 69 -60 126q-18 56 -38 158h-28l-22 -8l-22 34h178v178h-122q-21 0 -68 -8l-20 34
v0v0zM624 534q27 -102 42 -146q14 -43 56 -112q33 48 66 120q32 72 46 138h-194h-16v0v0zM178 334l10 8q42 -36 60 -66q15 -31 16 -52q0 -19 -12 -26q-12 -6 -24 -2t-12 20q0 15 -6 46q-6 30 -32 72v0v0z" />
  </g>

</svg>
