<?xml version="1.0" standalone="no"?>
<!DOCTYPE svg PUBLIC "-//W3C//DTD SVG 1.1//EN" "http://www.w3.org/Graphics/SVG/1.1/DTD/svg11.dtd" >
<svg xmlns="http://www.w3.org/2000/svg" xmlns:xlink="http://www.w3.org/1999/xlink" version="1.1" viewBox="0 -36 256 256">
  <g transform="matrix(1 0 0 -1 0 220)">
   <path fill="currentColor"
d="M202 167v-7h-51v7h51zM121 201h-78q0 -9 -3.5 -14t-8 -6t-9.5 1.5t4 10.5t13 25h4v-10h78v18h-49q-10 0 -20 -2l-9 9h149l11 10l16 -17h-84v-18h83l8 9l16 -13q-11 -2 -29 -21l-3 2l9 16h-84q0 -30 1 -43l-16 -5q1 23 1 48zM106 189v-7h-50v7h50zM200 189v-7h-49v7h49z
M106 167v-7h-52v7h52zM107 146q-8 -2 -30.5 -14t-61.5 -22l-1 4q24 8 46.5 21.5t31.5 23.5zM163 156l-5 -4q16 -12 34.5 -19t47.5 -9v-3q-14 -2 -18 -11q-24 7 -44.5 19.5t-29.5 28.5zM150 121l1 3q24 -7 32 -12t4 -12.5t-7.5 -3t-10.5 11.5q-47 -3 -68 -5t-26 -5l-8 16
q9 2 14.5 4.5t20 11t20.5 17.5l14 -13q-6 -2 -22 -9.5t-31 -12.5h81q-8 5 -14 9zM90 27.5q8 -0.5 8 5.5v16q-21 -9 -39.5 -16.5t-24.5 -12.5l-11 14q17 3 75 21v28h-41q-11 0 -21 -2l-9 9h71l5 11l16 -11l-7 -7v-52q0 -16 -21 -21q-4 10 -24 15v4q15 -1 23 -1.5zM202 27
q5 0 5 6v19q-19 -9 -38 -16t-27 -13l-12 13q15 2 36.5 9t40.5 13v25h-42q-11 0 -20 -2l-11 9h72l6 11l14 -10l-5 -7v-54q0 -16 -23 -21q-5 12 -27 16v3q26 -1 31 -1zM66 69q7 -5 7 -9.5t-4 -9t-8.5 4.5t-18.5 21l1 3q16 -5 23 -10zM171.5 70q7.5 -4 7 -9.5t-5.5 -9t-9 5
t-18 22.5l2 1q16 -6 23.5 -10z" />
  </g>

</svg>
