<?xml version="1.0" standalone="no"?>
<!DOCTYPE svg PUBLIC "-//W3C//DTD SVG 1.1//EN" "http://www.w3.org/Graphics/SVG/1.1/DTD/svg11.dtd" >
<svg xmlns="http://www.w3.org/2000/svg" xmlns:xlink="http://www.w3.org/1999/xlink" version="1.1" viewBox="0 -205 1024 1024">
  <g transform="matrix(1 0 0 -1 0 819)">
   <path fill="currentColor"
d="M356 754h542l40 50l68 -56q3 -3 4 -8q0 -12 -14 -12h-134q-28 -171 -76 -282q-48 -108 -86 -156q24 -33 70 -74q44 -40 100 -76q56 -35 140 -55v-18q-49 2 -70 -6t-36 -28q-70 51 -130 109q-60 57 -102 108q-37 -43 -88 -82t-120 -81t-156 -70l-4 16q96 45 150 84
q55 37 98 73q42 36 90 96q-42 57 -84 166q-42 108 -60 274h-60q-33 -1 -60 -10l-22 38v0v0zM524 728q18 -139 60 -242q41 -103 86 -160q42 69 84 186q40 117 50 216h-280v0v0zM566 980q83 -45 116 -80q33 -34 30 -62q-3 -26 -18 -34q-14 -7 -28 -2q-15 5 -18 28
q-2 20 -22 56q-19 33 -70 84l10 10v0v0zM94 864l58 -40h120l32 40l60 -38q12 -6 12 -14q-1 -3 -34 -30v-406l4 -92q1 -12 -16 -24q-16 -13 -40 -16v88h-144v-92q0 -12 -20 -24q-21 -12 -36 -12l4 126v534v0v0zM146 362h144v432h-144v-432v0v0z" />
  </g>

</svg>
