<?xml version="1.0" standalone="no"?>
<!DOCTYPE svg PUBLIC "-//W3C//DTD SVG 1.1//EN" "http://www.w3.org/Graphics/SVG/1.1/DTD/svg11.dtd" >
<svg xmlns="http://www.w3.org/2000/svg" xmlns:xlink="http://www.w3.org/1999/xlink" version="1.1" viewBox="0 -205 1024 1024">
  <g transform="matrix(1 0 0 -1 0 819)">
   <path fill="currentColor"
d="M820 918l54 -44q12 -6 12 -14q0 -5 -32 -28v-228l4 -90q3 -16 -18 -32q-19 -15 -40 -18v30h-192q45 -129 96 -194q103 87 170 168q58 -49 56 -56q-1 -7 -4 -8t-18 -4q-15 -1 -50 -22q-36 -19 -140 -94q29 -39 68 -72q39 -31 82 -52q41 -21 112 -33v-20q-32 3 -58 -4
q-24 -5 -48 -32q-51 37 -102 83q-51 48 -102 124q-51 75 -90 216h-74v-373l168 71l8 -16q-102 -57 -150 -87q-45 -28 -78 -62l-48 60q29 10 50 34v803l58 -48h274l32 42v0v0zM506 850v-150h294v150h-294v0v0zM506 672v-150h294v150h-294v0v0zM64 728h160v244l72 -32
q22 -9 8 -20l-30 -18v-174h62l30 48l60 -56q3 -3 4 -8q0 -12 -14 -12h-142v-122q60 -25 90 -44q29 -18 40 -42q9 -24 0 -42q-10 -19 -28 -16q-15 2 -24 26q-7 24 -22 46t-56 50v-380l4 -97q0 -15 -20 -30q-18 -12 -38 -16l4 129v406q-33 -84 -68 -152q-36 -66 -96 -156
l-16 8q45 86 76 152q30 63 54 136q25 72 44 144h-70q-22 0 -64 -8l-20 36v0v0z" />
  </g>

</svg>
