<?xml version="1.0" standalone="no"?>
<!DOCTYPE svg PUBLIC "-//W3C//DTD SVG 1.1//EN" "http://www.w3.org/Graphics/SVG/1.1/DTD/svg11.dtd" >
<svg xmlns="http://www.w3.org/2000/svg" xmlns:xlink="http://www.w3.org/1999/xlink" version="1.1" viewBox="0 -36 256 256">
  <g transform="matrix(1 0 0 -1 0 220)">
   <path fill="currentColor"
d="M23 60v136q0 15 -1 36l21 -10l-8 -7v-59h7l9 9l13 -16h-29v-94l26 15l2 -4q-12 -10 -20 -17.5t-14 -14.5l-11 13q5 4 5 13zM79 149v-87q0 -11 9 -11h8q5 0 6.5 13t1.5 26h4q0 -11 2.5 -23.5t7.5 -14.5q-6 -13 -19 -13h-18q-14 0 -14 17v146q0 16 -1 33l20 -8l-7 -8v-63
h15l9 8l12 -15h-36zM191 74q5 11 10 33l15 -8q-8 -8 -23 -36q6 1 22 2q-1 9 -6 17l4 2q11 -14 13.5 -21t-2.5 -12.5t-6 -1.5t-2 11q-19 -6 -26 -11l-7 14q3 0 8 11zM183 126v-87q0 -13 12 -13h28q8 0 9 11.5t1 26.5h4q1 -13 3 -23.5t8 -11.5q-7 -15 -20 -15h-38
q-19 0 -19 20v92h12zM135 171h29v34h-29v-34zM176 171h31v34h-31v-34zM135 130h29v34h-29v-34zM176 130h31v34h-31v-34zM169 234l-12 -22h49l8 8l12 -9l-6 -8q0 -69 1 -85l-14 -7v12h-40q-5 -33 -21.5 -62t-55.5 -53l-1 4q23 17 40.5 43t25.5 68h-20v-9l-14 -5q1 29 1 59.5
t-1 50.5l14 -7h16q8 25 8 34l16 -7z" />
  </g>

</svg>
