<?xml version="1.0" standalone="no"?>
<!DOCTYPE svg PUBLIC "-//W3C//DTD SVG 1.1//EN" "http://www.w3.org/Graphics/SVG/1.1/DTD/svg11.dtd" >
<svg xmlns="http://www.w3.org/2000/svg" xmlns:xlink="http://www.w3.org/1999/xlink" version="1.1" viewBox="0 -36 256 256">
  <g transform="matrix(1 0 0 -1 0 220)">
   <path fill="currentColor"
d="M57 195h52v28h-52v-28zM57 160h52v28h-52v-28zM43 192.5q0 27.5 -1 45.5l14 -8h53l6 10l16 -13l-8 -8q0 -47 1 -67l-15 -6v7h-52v-5l-15 -5q1 22 1 49.5zM75 44v78h-33q-10 0 -19 -2l-9 9h102l13 12l16 -19h-56v-34h22l12 14l17 -21h-51v-43q19 -8 60.5 -9t96.5 6v-4
q-19 -6 -19 -17q-43 -1 -73.5 0.5t-50.5 6.5t-33.5 14.5t-24.5 23.5q-12 -31 -33 -51l-3 3q15 24 22 48.5t8 46.5l23 -12l-8 -5l-7 -23q17 -17 28 -22zM164 220h40l6 11l17 -12l-7 -7v-42q0 -19 1 -38l-15 -6v14h-43v-52q-2 -20 15 -21h31q8 0 10 6t2 36h6q0 -18 3 -29
t9 -12q-6 -14 -24 -14h-42q-24 0 -24 26v114q0 18 -1 35zM163 213v-66h43v66h-43z" />
  </g>

</svg>
