<?xml version="1.0" standalone="no"?>
<!DOCTYPE svg PUBLIC "-//W3C//DTD SVG 1.1//EN" "http://www.w3.org/Graphics/SVG/1.1/DTD/svg11.dtd" >
<svg xmlns="http://www.w3.org/2000/svg" xmlns:xlink="http://www.w3.org/1999/xlink" version="1.1" viewBox="0 -36 256 256">
  <g transform="matrix(1 0 0 -1 0 220)">
   <path fill="currentColor"
d="M79 123l-13 -6v92h-23q-10 -1 -19 -3l-9 10h51q0 13 -1 31l21 -9l-7 -6v-16h23l13 9l13 -16h-49v-86zM101 205l16 -9l-8 -4l-5 -9q15 -7 20 -12.5t0.5 -12.5t-7.5 1.5t-15 19.5q-5 -10 -16 -20l-3 2q12 19 18 44zM68 153q-25 -27 -58 -45l-1 4q36 26 59 59v-18zM101 37.5
q4 -7.5 0 -15.5t-8.5 2.5t-11.5 19.5q-28 -24 -64 -35l-1 3q39 19 58 42q-12 13 -28 27l2 4q23 -14 33 -23q10 13 19 36h-44q-15 -19 -42 -36l-2 3q36 33 44 60l16 -11l-5 -2l-7 -7h39l8 8l13 -12l-8 -6q-12 -30 -22 -42q7 -8 11 -15.5zM115.5 142q10.5 -8 6.5 -19.5t-12 3
t-34 32.5v3q29 -11 39.5 -19zM35 203l16 -10l-7 -4l-5 -8q10 -6 13.5 -10.5t-0.5 -10t-6.5 2.5t-7.5 15q-8 -14 -20 -25l-3 2q14 20 20 48zM125 200q17 -13 24 -23t2 -22t-10 5t-18 37zM134 99l-3 -5l-14 13q15 6 40 30q0 58 -1 106l21 -11l-7 -7v-105q1 -68 -58 -111l-3 3
q49 48 48 108v8q-15 -19 -23 -29zM231.5 183q-4.5 -5 -30.5 -27v-19q27 -13 34.5 -21t4 -19.5t-11.5 3.5t-27 32v-85q0 -13 9 -13h15q3 0 4.5 9t3.5 35h5q0 -17 0.5 -28.5t9.5 -13.5q-5 -11 -8.5 -13t-11.5 -2h-21q-19 2 -19 18v152q0 22 -1 51l21 -12l-7 -6v-61
q22 26 28 42l15 -14q-8 -3 -12.5 -8z" />
  </g>

</svg>
