<?xml version="1.0" standalone="no"?>
<!DOCTYPE svg PUBLIC "-//W3C//DTD SVG 1.1//EN" "http://www.w3.org/Graphics/SVG/1.1/DTD/svg11.dtd" >
<svg xmlns="http://www.w3.org/2000/svg" xmlns:xlink="http://www.w3.org/1999/xlink" version="1.1" viewBox="0 -36 256 256">
  <g transform="matrix(1 0 0 -1 0 220)">
   <path fill="currentColor"
d="M171.5 232.5q5.5 -5.5 -0.5 -14.5t-9.5 1t-16.5 25l2 3q19 -9 24.5 -14.5zM214 212l15 12l17 -19h-123q-10 0 -19 -2l-10 9h120zM140 176q10 -5 13 -8.5t-2 -9.5t-7.5 2t-8.5 13q-15 -6 -30 -10l-1 4q13 5 28.5 16t24.5 23l14 -11q-6 -2 -16 -8h45l10 5l11 -14l-10 -2
q-25 -15 -48.5 -23.5t-63.5 -12.5l-1 4q32 5 55 14.5t42 21.5h-46q-5 -2 -9 -4zM150 126q18 -9 9.5 -18t-9 -1t-5.5 17q-21 -8 -37 -10l-1 3q28 10 48 21.5t32 23.5l14 -11q-6 -2 -10.5 -4t-11.5 -6h34l11 6l10 -15l-8 -1q-33 -23 -63.5 -34.5t-65.5 -14.5v4q36 8 62 19
t49 29h-39q-12 -6 -19 -8zM177 40l2 -4q-33 -17 -45 -28l-10 14q6 3 6 10v20q-11 -9 -41 -20l-1 3q32 18 47.5 35t20.5 26l16 -9l-5 -3q5 -8 13 -18q26 22 31 31l15 -15q-14 -1 -43 -21q18 -16 33.5 -22.5t30.5 -6.5v-4q-12 -1 -17 -12q-45 17 -67 64q-11 -10 -21 -19v-34z
M69 34q8 0 8 11v61h-38q-1 -28 -4.5 -50t-23.5 -48l-3 2q12 26 15.5 54.5t3 93t-1.5 78.5l14 -9h37l8 10l13 -13l-7 -6v-178q0 -23 -20 -30q-1 16 -26 24v4q17 -4 25 -4zM39 169h38v51h-38v-51zM39 113h38v50h-38v-50z" />
  </g>

</svg>
