<?xml version="1.0" standalone="no"?>
<!DOCTYPE svg PUBLIC "-//W3C//DTD SVG 1.1//EN" "http://www.w3.org/Graphics/SVG/1.1/DTD/svg11.dtd" >
<svg xmlns="http://www.w3.org/2000/svg" xmlns:xlink="http://www.w3.org/1999/xlink" version="1.1" viewBox="0 -36 256 256">
  <g transform="matrix(1 0 0 -1 0 220)">
   <path fill="currentColor"
d="M78 121l-13 -6v92h-20q-12 0 -21 -2l-9 9h50q0 13 -1 32l20 -9l-6 -6v-17h22l10 9l13 -16h-45v-86zM99 204l15 -9l-9 -4l-4 -10q14 -6 18.5 -12t0.5 -13t-7 2t-13 20q-5 -10 -16 -21l-3 2q11 19 18 45zM67 151q-24 -27 -58 -43l-1 3q37 26 59 61v-21zM104 36
q4 -7 0.5 -14t-9 3t-14.5 18q-28 -25 -66 -36l-1 3q41 19 59 41q-12 14 -26 26l1 3q22 -12 33 -20q8 12 17 37h-42q-17 -19 -43 -37l-2 3q36 33 43 60l17 -10l-5 -2l-6 -7h37l8 8l14 -12l-8 -6q-13 -30 -21 -43q10 -8 14 -15zM110.5 140q9.5 -8 6 -19t-11 3t-30.5 30v3
q26 -9 35.5 -17zM34 202l17 -10l-6 -4l-6 -6q16 -8 16.5 -12.5t-3.5 -10.5t-6 2.5t-10 15.5q-7 -15 -19 -26l-3 2q14 21 20 49zM141 194h79v27h-79v-27zM141 157h79v30h-79v-30zM129 191q0 18 -3 46l15 -9h77l6 10l15 -13l-6 -6q0 -46 1 -71l-14 -8v10h-79v-3l-15 -7
q3 33 3 51zM135 8l-14 17q5 6 5 13v56q0 17 -1 39l22 -10l-7 -8v-26h22l9 12l15 -19h-46v-51l39 23l3 -4q-44 -33 -47 -42zM200 72v-37q0 -10 11 -10h11q7 0 8.5 9t2.5 32h4q1 -24 2.5 -30.5t8.5 -9.5q-8 -13 -19 -13h-22q-19 0 -19 18v69q0 20 -1 36l20 -11l-7 -6v-40
q28 28 36 43l12 -17q-10 -3 -48 -33z" />
  </g>

</svg>
