<?xml version="1.0" standalone="no"?>
<!DOCTYPE svg PUBLIC "-//W3C//DTD SVG 1.1//EN" "http://www.w3.org/Graphics/SVG/1.1/DTD/svg11.dtd" >
<svg xmlns="http://www.w3.org/2000/svg" xmlns:xlink="http://www.w3.org/1999/xlink" version="1.1" viewBox="0 -52 256 256">
  <g transform="matrix(1 0 0 -1 0 204)">
   <path fill="currentColor"
d="M180 252l18 -11q2 -1 0 -3q-4 1 -9 -2q-13 -11 -25 -23h49l8 10l17 -13q4 -2 -2 -2h-83q41 -30 98 -31l-1 -4q-15 1 -19 -8q-61 14 -85 43h-11v-20l1 -10q1 -8 -13 -12q2 10 2 25v17h-6q-22 -20 -47 -32l11 -4q2 -1 0 -3q-5 0 -8 -2q-1 -1 -2 -3q-2 -4 -3 -5h30l7 7
l13 -10q2 -2 1 -2l-2 -1q-3 0 -7 -6q-18 -43 -62 -60l10 -9h122l10 10l12 -11q2 -2 1 -3q0 -1 -2 -1l-5 -3v-37l1 -13q1 -7 -12 -9v15h-124v-7q0 -10 -13 -11q2 9 2 27v40q-1 6 -5 10l1 1q-11 -5 -23 -8l-3 3q66 25 81 73h-37q-6 -8 -13 -14q21 -9 22 -18q0 -8 -4 -9t-6 4
q-2 10 -16 19q-13 -12 -33 -22l-2 3q36 24 50 56q-23 -10 -55 -16l-1 4q65 19 96 47h-70q-7 0 -12 -4l-8 9h111v28q0 4 -6 11l3 3l19 -8q4 -1 2 -3q-5 -2 -8 -5v-26h23q9 12 15 21q7 9 7 10q1 2 -2 6zM63 73v-42h124v42h-124zM126 153h44v16q2 3 -5 9l2 3l20 -7q3 -1 1 -2
q-4 -1 -7 -4v-15h24l6 8l16 -10q3 -2 2 -3h-5h-43v-32h30l8 9l15 -10q2 -2 2 -3t-3 -1h-52v-10l1 -14q0 -7 -13 -8v8q1 12 1 21v3h-33l-8 -7l-10 11q5 2 7 5l6 16l-1 1q0 1 -3 3l2 3l16 -7l2 -1q0 -2 -1 -2q-4 -1 -6 -3l-6 -14h35v32h-25q-7 0 -11 -3zM56 247l1 3
q28 -10 32 -20q5 -11 -4 -14q-3 -1 -6 6q-2 6 -5 11q-4 6 -18 14z" />
  </g>

</svg>
