<?xml version="1.0" standalone="no"?>
<!DOCTYPE svg PUBLIC "-//W3C//DTD SVG 1.1//EN" "http://www.w3.org/Graphics/SVG/1.1/DTD/svg11.dtd" >
<svg xmlns="http://www.w3.org/2000/svg" xmlns:xlink="http://www.w3.org/1999/xlink" version="1.1" viewBox="0 -205 1024 1024">
  <g transform="matrix(1 0 0 -1 0 819)">
   <path fill="currentColor"
d="M842 942q12 -7 10 -14q-3 -4 -14 -8q-22 -3 -50 -30q-27 -27 -84 -96h138l32 38l50 -36q8 -6 8 -12t-24 -24v-94l4 -78q-1 -13 -22 -22q-19 -10 -34 -10v32h-186v-136h216l28 34l58 -40q10 -6 2 -14l-28 -22l-8 -98q-6 -63 -32 -96q-25 -30 -76 -42q-12 41 -42 56t-78 30
l6 18q57 -16 96 -22q36 -6 52 4q15 9 24 60l8 104h-226v-260l4 -93q2 -12 -22 -28q-22 -16 -34 -14l4 135v204q-70 -86 -160 -166q-87 -78 -180 -123l-6 14q84 59 162 133q75 72 166 198h-166l-28 -30l-54 46l32 26l30 190l44 -40h160v150h-166q-19 0 -38 -8l-28 36h284
q59 96 110 186l58 -38v0v0zM670 766v-150h186v150h-186v0v0zM622 452v136h-166l-22 -136h188v0v0zM454 978q69 -31 100 -56q30 -25 36 -46q3 -18 -6 -36q-8 -16 -28 -16q-18 0 -24 24q-4 23 -20 50q-15 25 -68 68l10 12v0v0zM364 864l20 -8l-142 -476q-13 -31 -20 -88
q-7 -42 2 -102q8 -59 8 -95q0 -35 -18 -44q-18 -8 -30 -2q-12 7 -18 22q-7 16 2 58q6 37 12 77q6 38 0 80q-12 21 -56 28l-60 12v20l68 -6q48 4 66 56l166 468v0v0zM136 930l6 14q45 -16 84 -34q36 -18 54 -36q17 -18 20 -38q3 -19 -8 -34q-9 -14 -24 -12q-13 2 -20 14
q-6 11 -14 32q-9 20 -26 40q-18 18 -72 54v0v0zM48 694l6 14q57 -21 90 -38q30 -18 48 -36q15 -18 18 -36q3 -19 -8 -34q-9 -16 -24 -14q-13 2 -20 16q-6 11 -14 32q-6 18 -18 34t-78 62v0v0z" />
  </g>

</svg>
