<?xml version="1.0" standalone="no"?>
<!DOCTYPE svg PUBLIC "-//W3C//DTD SVG 1.1//EN" "http://www.w3.org/Graphics/SVG/1.1/DTD/svg11.dtd" >
<svg xmlns="http://www.w3.org/2000/svg" xmlns:xlink="http://www.w3.org/1999/xlink" version="1.1" viewBox="0 -246 2048 2048">
  <g transform="matrix(1 0 0 -1 0 1802)">
   <path fill="currentColor"
d="M1305 273v-137h-117v825q70 -24 135 -53h369l74 88q123 -92 123 -117q0 -14 -16 -24l-45 -31v-676h-117v125h-406zM1305 324h406v533h-406v-533zM630 1529l-463 -56l-21 49l484 58v317q201 -9 201 -47q0 -25 -82 -61v-195l710 84l90 135q84 -45 187 -114l-15 -41
l-972 -115v-219q0 -59 43 -68q45 -12 219 -12q117 0 325 8q68 3 86 45q22 47 43 219l45 -12q0 -148 19 -195q16 -38 63 -40q-3 -84 -82 -103q-89 -18 -454 -18q-321 0 -375 29q-51 30 -51 130v222zM581 793q-18 -486 -457 -700l-29 41q347 235 365 653h-310l-22 51h334v280
q201 -3 201 -47q0 -25 -80 -53v-174h276l72 92q117 -89 117 -118q0 -15 -17 -25l-47 -29q0 -468 -66 -565q-51 -76 -176 -76q0 52 -49 74q-43 17 -149 35v53q82 -12 186 -12q94 0 113 76q28 121 28 444h-290z" />
  </g>

</svg>
