<?xml version="1.0" standalone="no"?>
<!DOCTYPE svg PUBLIC "-//W3C//DTD SVG 1.1//EN" "http://www.w3.org/Graphics/SVG/1.1/DTD/svg11.dtd" >
<svg xmlns="http://www.w3.org/2000/svg" xmlns:xlink="http://www.w3.org/1999/xlink" version="1.1" viewBox="0 0 2048 2048">
  <g transform="matrix(1 0 0 -1 0 2048)">
   <path fill="currentColor"
d="M184 1406q-42 -53 -55 -66l-30 -31l-27 24l45 65q24 35 49 79q24 44 48 101q25 57 44 115l26 88l20 70l14 69l149 -39q23 -7 23 -28q1 -21 -27 -28l-57 -14q-9 -19 -32 -78l-10 -19h224l58 63l85 -63q16 -13 26 -25t7 -25q-5 -22 -34 -26l-54 -12q-17 -37 -22 -46
l-49 -85l-47 -81l-24 -36h191l61 72l72 -50q18 -14 29 -24q11 -11 13 -22t-8 -23q-4 -4 -30 -19l-26 -14v-1064q0 -39 -10 -66q-11 -28 -30 -46q-18 -18 -45 -34t-38 -18l-35 -8q-1 17 -4 36q-3 18 -16 36q-14 19 -42 32q-28 12 -80 22l-61 11l8 46q49 -8 74 -11l53 -8
q39 -6 70.5 -7.5t45.5 11.5q15 14 15 46v334h-466q-3 -30 -4 -44l-7 -86q-6 -54 -18 -106t-33 -110q-21 -59 -47 -108q-27 -48 -55 -84l-28 -37l-30 21l20 38q12 23 26 54q14 30 27 70q14 39 26 101q13 62 20 129q6 68 9 129t4.5 126t1.5 103v504q0 20 -1 46t-1 33z
M203 1430l82 -52h194l25 52q13 27 34 80q20 53 30 83l20 63h-249l-17 -36q-9 -18 -28 -51l-39 -63l-24 -37zM741 669v299h-189v-299h189zM741 1320h-189v-295h189v295zM279 669h179v299h-175v-148q0 -62 -2 -105zM283 1025h175v295h-175v-295zM1202 1630h-32q-30 0 -71 -3
l-27 -2q-24 -2 -26 -2l-25 -3l-39 85q27 -4 54 -7q28 -4 39 -5t45 -3q33 -2 50 -2h46l15 74l10 52q10 52 11 59l6 43l128 -32q16 -5 26 -14q9 -10 10 -22q1 -11 -10 -19t-31 -11l-40 -7l-32 -123h290l68 76l84 -55q22 -15 31 -25t9 -23q-1 -14 -11 -25q-9 -10 -31 -20
l-35 -17v-179l29 -2l90 89l114 -93q8 -8 13 -14q6 -7 3 -19q-3 -11 -11 -15t-15 -4h-835q-31 0 -64 -2q-34 -3 -46 -4t-14 -1l-25 -4l-39 86q27 -4 55 -7q28 -4 39 -5t44 -3q32 -2 50 -2h48zM1295 1630l-54 -210h378v210h-324zM1395 878l-270 2v-30q0 -12 -12 -21t-32 -8
q-23 0 -37 8q-13 8 -18 18q-6 10 -6 21q-1 12 2 39l4 64q4 56 4 63v91q0 20 -2 57q-3 37 -4 59l-4 51l112 -83h558l61 72l73 -50q15 -11 27 -23t14 -22q2 -11 -8 -23q-1 -1 -30 -19l-26 -15v-173l30 -28l14 -12q6 -9 6 -19q-1 -10 -7 -15q-5 -4 -10 -4h-342v-173h210l97 94
l122 -99q9 -8 13 -14q5 -7 2 -19q-4 -11 -12 -15q-7 -4 -14 -4h-418v-271h255l101 97l118 -101l12 -10q7 -9 4 -22q-4 -11 -12 -15q-7 -4 -14 -4h-464q0 -13 1 -28t3 -75t7 -97q5 -38 4 -51q-1 -10 -5 -19q-5 -10 -14 -16q-10 -7 -30 -7q-22 -1 -34 3q-13 5 -21 14
q-8 10 -8 25v251h-339q-14 -6 -23 -8t-31 -4q-23 -1 -30.5 6.5t-7.5 13.5q-1 6 2 15l74 301l-32 -2q-16 -1 -25 -1l-18 -2l-14 -1l-38 88q13 -4 28.5 -7.5t63.5 -9.5t138 -6h252v173zM1395 648h-261l-69 -271h330v271zM1125 937h581v214h-581v-214z" />
  </g>

</svg>
