<?xml version="1.0" standalone="no"?>
<!DOCTYPE svg PUBLIC "-//W3C//DTD SVG 1.1//EN" "http://www.w3.org/Graphics/SVG/1.1/DTD/svg11.dtd" >
<svg xmlns="http://www.w3.org/2000/svg" xmlns:xlink="http://www.w3.org/1999/xlink" version="1.1" viewBox="0 0 2048 2048">
  <g transform="matrix(1 0 0 -1 0 2048)">
   <path fill="currentColor"
d="M1046 1523l-22 -48q-10 -23 -36 -73q-27 -50 -82 -125q-54 -75 -89 -110l-43 -44l-28 26l54 76q27 39 62 107q34 69 74 164q40 96 62 180q23 83 34 143l13 74l149 -54q27 -10 28 -31q0 -21 -36 -30l-56 -14l-25 -82q-13 -41 -28 -80l-8 -21h555l99 101l121 -107
q10 -10 14 -15q4 -6 1 -18q-4 -11 -11 -15q-8 -4 -15 -4h-430q0 -30 -1 -60q0 -30 -6 -161q-6 -132 -12 -196q-7 -65 -17 -146l-3 -24h370l99 101l120 -107l12 -10q8 -10 4 -23q-4 -11 -11 -14t-15 -3h-589q-4 -17 -13 -62t-37 -130q-28 -86 -78 -181q-49 -95 -117 -177
q-68 -81 -147 -146q-78 -64 -158 -109l-86 -49l-22 38q53 33 97 64q44 30 118 96t137 153q64 87 120 217q55 129 79 264l4 22h-230q-43 0 -110 -4q-67 -3 -70 -3l-13 -1l-38 88q13 -5 27 -8q14 -4 67 -10t137 -6h238q2 14 5 36q2 20 10 104q9 84 17 189t8 190v68h-253z
M1400 701l88 -61q33 -25 104 -84q72 -60 113 -98t86 -88t81 -101t48 -81q12 -31 12 -55q1 -24 -16 -44q-16 -20 -42 -19q-28 0 -46 20q-17 20 -34 60q-17 39 -46 90q-28 51 -46 79q-19 28 -69 90t-93 109q-43 46 -93 92l-70 64zM170 1772l124 -88h286l68 76l80 -54
q21 -15 30 -26q10 -10 10 -23q-1 -14 -12 -25q-10 -12 -30 -20l-36 -16v-918q0 -57 3 -150q3 -94 4 -123t-3 -40q-7 -14 -20 -21q-14 -8 -38 -8q-24 -1 -31 6t-7 17v87h-320v-87q0 -9 -10 -17q-9 -9 -33 -7q-33 1 -41 11q-8 9 -12 18q-4 10 -4 27q-1 17 2 56q2 39 4 95
q2 57 2 136v960q-1 54 -4 70q-2 16 -9 50zM278 1092h320v538h-320v-538zM278 500h320v538h-320v-538z" />
  </g>

</svg>
