<?xml version="1.0" standalone="no"?>
<!DOCTYPE svg PUBLIC "-//W3C//DTD SVG 1.1//EN" "http://www.w3.org/Graphics/SVG/1.1/DTD/svg11.dtd" >
<svg xmlns="http://www.w3.org/2000/svg" xmlns:xlink="http://www.w3.org/1999/xlink" version="1.1" viewBox="0 -205 1024 1024">
  <g transform="matrix(1 0 0 -1 0 819)">
   <path fill="currentColor"
d="M360 640v-140h128l36 48l66 -58q3 -3 4 -6q0 -10 -12 -10h-222v-80q80 -21 130 -50q51 -27 60 -50q9 -22 4 -40q-6 -19 -24 -22q-18 -1 -32 26q-16 27 -52 60q-37 33 -86 54v-212l4 -95q0 -12 -20 -24q-21 -13 -38 -14l4 131v248q-57 -81 -120 -144q-64 -61 -142 -123
l-12 11q63 63 126 132q59 69 140 192h-168q-21 0 -68 -8l-16 34h260v136q-114 -9 -218 -14l-2 20q140 15 250 36q110 20 172 46q51 -64 46 -70q-3 -8 -14 -6t-28 4q-18 3 -156 -12v0v0zM646 670l80 -30q6 -1 6 -10q1 -3 -34 -24v-212l4 -100q-3 -15 -24 -26q-18 -12 -36 -12
l4 130v284v0v0zM844 742l80 -34q3 -4 4 -8q1 -3 -34 -24v-559q3 -45 -14 -66q-14 -21 -58 -36q-12 36 -38 48t-100 32l6 18q80 -15 106 -18q24 -3 36 2q13 6 12 24v621v0v0zM368 984l88 -30q3 -4 4 -8q0 -3 -38 -26v-60h204v122l84 -28q5 -2 8 -10q0 -3 -38 -20v-64h202
l40 54l64 -64q3 -3 4 -8q-1 -7 -16 -8h-294v-34l4 -48q-1 -15 -22 -24q-22 -10 -40 -10l4 86v30h-204v-22l4 -50q-3 -14 -20 -28q-15 -12 -42 -12l4 76v36h-232q-22 0 -70 -8l-18 34h320v124v0v0z" />
  </g>

</svg>
