<?xml version="1.0" standalone="no"?>
<!DOCTYPE svg PUBLIC "-//W3C//DTD SVG 1.1//EN" "http://www.w3.org/Graphics/SVG/1.1/DTD/svg11.dtd" >
<svg xmlns="http://www.w3.org/2000/svg" xmlns:xlink="http://www.w3.org/1999/xlink" version="1.1" viewBox="0 -205 1024 1024">
  <g transform="matrix(1 0 0 -1 0 819)">
   <path fill="currentColor"
d="M312 724q12 -11 -6 -16q-24 0 -42 -14q-48 -39 -108 -86l160 4q75 64 106 104q63 -36 64 -44q0 -7 -8 -8q-6 0 -20 -2q-15 -3 -90 -62q-76 -60 -206 -140l272 22q-24 36 -54 64l10 12q52 -30 80 -54q30 -22 36 -46t-6 -38q-10 -15 -26 -14q-16 0 -20 18q-3 17 -12 38
l-234 -32q-54 -10 -98 -32l-38 62q30 6 66 18q108 69 156 114q-80 -9 -118 -18q-36 -9 -62 -24l-36 60l48 8q80 67 130 146l56 -40v0v0zM428 914q-213 -32 -384 -46v16q174 32 268 52q93 21 196 48l46 -52q7 -12 -10 -14q-2 1 -22 2q-19 3 -94 -6v0v0zM534 862
q15 -12 -6 -18l-18 -6q-6 0 -30 -24q-22 -24 -86 -86l-14 8q51 80 96 164l58 -38v0v0zM258 868l10 10q53 -36 70 -60q16 -24 14 -44t-16 -28q-15 -6 -24 0q-9 5 -12 22q-2 14 -10 44q-6 26 -32 56v0v0zM92 842l10 10q57 -33 78 -60q19 -25 18 -46q-2 -21 -16 -30
q-15 -6 -26 0q-9 6 -12 24q0 17 -12 44q-10 27 -40 58v0v0zM44 324h206q7 32 14 98l66 -22q14 -9 -4 -18l-12 -6l-8 -28l-6 -24h158l32 36l50 -44q3 -3 4 -6q0 -12 -12 -12h-238l-16 -48q80 -30 128 -60q47 -30 62 -55q12 -25 4 -44q-10 -19 -28 -18q-18 0 -26 24
q-10 25 -52 63q-42 40 -98 68q-18 -43 -72 -99q-55 -54 -148 -106l-6 14q72 56 124 115q51 59 78 146h-128q-19 0 -46 -8l-26 34v0v0zM730 960q6 -3 6 -6q3 -6 -8 -12q-31 -10 -40 -34q-27 -73 -50 -142h240l42 44l52 -52q18 -12 18 -18q-1 -7 -16 -10q-30 -9 -56 -36
q-24 -27 -84 -108l-18 10l74 144h-264q-53 -132 -118 -228l-14 8q63 147 100 264q36 115 54 212l82 -36v0v0zM760 658q6 -1 4 -10q-3 -3 -8 -6l-18 -6q35 -171 62 -264q24 -93 72 -174q47 -76 124 -101v-18q-33 1 -54 -2q-22 -3 -46 -22q-51 55 -80 129q-27 72 -48 154
q-19 81 -46 250q-12 -150 -36 -246q-21 -94 -72 -172q-49 -76 -160 -151l-8 16q75 67 120 137q42 72 70 166q24 90 46 346l78 -26v0v0z" />
  </g>

</svg>
