<?xml version="1.0" standalone="no"?>
<!DOCTYPE svg PUBLIC "-//W3C//DTD SVG 1.1//EN" "http://www.w3.org/Graphics/SVG/1.1/DTD/svg11.dtd" >
<svg xmlns="http://www.w3.org/2000/svg" xmlns:xlink="http://www.w3.org/1999/xlink" version="1.1" viewBox="0 -205 1024 1024">
  <g transform="matrix(1 0 0 -1 0 819)">
   <path fill="currentColor"
d="M934 804l72 -64q2 -4 2 -10q0 -7 -8 -8h-444v-583h318l46 53l68 -63q2 -3 2 -10t-8 -8h-420l-38 -34l-58 50l36 29v566h-22q-34 0 -52 -8l-24 36h484l46 54v0v0zM596 968l10 14q81 -48 118 -80q36 -33 42 -62q4 -30 -10 -44q-13 -16 -34 -10q-19 4 -26 32q-6 27 -24 64
q-19 35 -76 86v0v0zM108 928l58 -44h140l30 40l62 -42q9 -10 -2 -22l-22 -18v-568l4 -130q0 -10 -18 -25q-15 -15 -36 -18v71h-168v-67q0 -12 -20 -28q-19 -13 -32 -14l4 189v676v0v0zM156 198h168v202h-168v-202v0v0zM156 426h168v208h-168v-208v0v0zM156 660h168v198h-168
v-198v0v0z" />
  </g>

</svg>
