<?xml version="1.0" standalone="no"?>
<!DOCTYPE svg PUBLIC "-//W3C//DTD SVG 1.1//EN" "http://www.w3.org/Graphics/SVG/1.1/DTD/svg11.dtd" >
<svg xmlns="http://www.w3.org/2000/svg" xmlns:xlink="http://www.w3.org/1999/xlink" version="1.1" viewBox="0 -205 1024 1024">
  <g transform="matrix(1 0 0 -1 0 819)">
   <path fill="currentColor"
d="M884 410l52 -46q6 -7 6 -10q0 -9 -8 -8h-718v-64l-6 -56h664l38 44l58 -52q2 -4 2 -8q0 -9 -8 -8h-400q40 -45 110 -85q57 30 130 73l56 -42q4 -11 -6 -11h-24q-16 1 -40 -4q-24 -6 -96 -30q47 -19 80 -26q32 -9 76 -12q44 -2 98 -2l2 -18q-36 -3 -60 -12q-22 -6 -34 -30
q-99 22 -156 52q-55 31 -92 64q-35 31 -70 83h-190v-133l204 48l4 -16q-174 -56 -198 -68q-22 -11 -44 -32l-40 48q12 6 24 18v135h-90q-16 -68 -64 -119q-47 -51 -106 -84l-8 14q71 61 104 118q32 55 32 139v124l42 -22h642l34 38v0v0zM254 300h508l32 32q49 -39 50 -44
q9 -15 -8 -14h-510q-21 -1 -48 -10l-24 36v0v0zM402 644l62 -22l8 -2q6 -4 4 -10q0 -3 -26 -12v-10h156v62l66 -22q8 0 10 -8q0 -2 -6 -10l-22 -6v-14v-26v24h140l24 32l56 -40q6 -6 6 -8q-1 -6 -28 -24v-92l4 -34q1 -13 -16 -22q-16 -8 -34 -6v20h-562v-6q-10 -5 -22 -10
q-12 -4 -30 -2l4 62v168l50 -38h156v56v0v0zM244 440h158v48h-158v-48v0v0zM450 488v-48h156v48h-156v0v0zM654 488v-48h152v48h-152v0v0zM244 516h158v44h-158v-44v0v0zM450 560v-44h156v44h-156v0v0zM654 560v-44h152v44h-152v0v0zM490 990l56 -44q6 -9 -6 -12h-338v-44
h224l24 24l40 -32q6 -8 -2 -16h-286v-42h236l24 30l42 -40q7 -9 -4 -12h-298v-42h316l28 36l44 -46q9 -9 -2 -14h-324q-46 -33 -88 -54l286 6q-33 18 -50 24l4 14q47 -8 70 -16q22 -7 38 -22q16 -12 12 -30q-3 -18 -18 -18q-12 0 -24 12q-10 12 -16 18q-100 -3 -206 -14
q-106 -9 -130 -24l-30 48q12 1 42 14q8 6 50 42h-116q-18 0 -42 -8l-18 32h124v230l46 -30h262l30 30v0v0zM542 856q79 29 152 58q71 26 140 68l50 -36q7 -10 2 -14q-6 -4 -20 -4q-15 0 -60 -14q-45 -15 -110 -36q-66 -18 -144 -38l-10 16v0v0zM596 776q84 33 148 58
q62 23 128 62l50 -38q6 -10 4 -14q-4 -3 -22 -2q-18 0 -42 -8q-24 -9 -98 -30q-75 -22 -158 -44l-10 16v0v0zM564 680q96 24 196 60q96 35 160 64l50 -40q7 -10 2 -14q-6 -4 -20 -2q-15 3 -56 -8q-40 -9 -134 -36q-92 -24 -190 -42l-8 18v0v0z" />
  </g>

</svg>
