<?xml version="1.0" standalone="no"?>
<!DOCTYPE svg PUBLIC "-//W3C//DTD SVG 1.1//EN" "http://www.w3.org/Graphics/SVG/1.1/DTD/svg11.dtd" >
<svg xmlns="http://www.w3.org/2000/svg" xmlns:xlink="http://www.w3.org/1999/xlink" version="1.1" viewBox="0 -205 1024 1024">
  <g transform="matrix(1 0 0 -1 0 819)">
   <path fill="currentColor"
d="M675 636q4 4 13 0q39 -17 63 -30q6 -3 6 -6q-1 -5 -4 -6q-18 -9 -22 -15t-4 -16v-272q1 -18 2 -45q1 -9 -6 -13q-44 -21 -48 -20q-3 3 0 13q3 25 4 65v272q-1 30 -4 55q-3 15 0 18zM890 70q-20 -22 -45 -29q-12 -4 -16 5q-8 12 -39 28q-32 17 -93 27q-12 1 -11 13
q0 7 13 7q41 -2 96 -6q55 -3 65 4q3 4 3 17v432q-1 80 -4 129q-3 16 7 13q57 -20 76 -30q12 -8 -3 -15q-18 -8 -22 -17q-6 -19 -6 -80v-443q-2 -33 -21 -55zM235 760q-3 -8 -10 -4q-25 23 -41 30q-10 5 -1 14q11 12 15 19q4 8 5 27v40q-1 51 -5 82q-1 17 9 13q56 -20 74 -30
q13 -9 6 -13q-30 -19 -33 -22q-3 -5 -3 -30v-61h264v91q-1 39 -4 70q-1 16 9 13q54 -17 76 -29q9 -5 0 -11q-22 -16 -26 -20q-7 -7 -7 -23v-91h268v78q-1 30 -4 55q-3 15 0 18q4 4 13 0q39 -17 63 -30q6 -3 6 -6q-1 -5 -4 -6q-18 -9 -22 -15t-4 -16v-96q1 -18 2 -45
q1 -9 -6 -13q-44 -21 -48 -20q-3 3 0 13q2 21 3 52h-567q-21 -16 -28 -34zM492 681l18 22q8 12 17 3q21 -18 40 -39q6 -7 5 -11q-1 -5 -11 -6q-8 -1 -11 -7q-3 -7 -3 -11v-357q0 -11 4 -32q1 -9 -3 -12q-36 -19 -43 -19t-6 10v426h-277v-420q-1 -8 -5 -9q-10 -4 -32 -13
q-15 -6 -14 4q2 26 3 51v395q-1 26 -2 45q0 9 4 10q4 3 13 -6q13 -13 31 -26h261q8 -1 11 2zM298 163q-48 -44 -197 -100q-19 -7 -23 3q-3 13 9 17q189 82 219 151q26 118 11 317q-2 16 10 13q54 -17 72 -27q14 -8 1 -14q-19 -11 -23 -20q-7 -18 -7 -104q-1 -116 -14 -163
q91 -33 145 -70q40 -28 44 -47q5 -24 -5 -40q-11 -18 -17 -19t-18 17q-80 103 -158 139q-18 -31 -49 -53z" />
  </g>

</svg>
