<?xml version="1.0" standalone="no"?>
<!DOCTYPE svg PUBLIC "-//W3C//DTD SVG 1.1//EN" "http://www.w3.org/Graphics/SVG/1.1/DTD/svg11.dtd" >
<svg xmlns="http://www.w3.org/2000/svg" xmlns:xlink="http://www.w3.org/1999/xlink" version="1.1" viewBox="0 -205 1024 1024">
  <g transform="matrix(1 0 0 -1 0 819)">
   <path fill="currentColor"
d="M524 502h336l26 32l58 -38q6 -1 6 -10q-1 -7 -28 -22v-365q0 -27 -14 -48q-15 -20 -50 -32q-6 27 -24 38t-62 22l2 18q49 -5 68 -8q18 -1 24 4q9 6 6 18v179h-86v-92l4 -58q0 -13 -18 -23q-18 -9 -36 -10l4 91v92h-86v-132l4 -51q0 -15 -18 -24t-36 -10l4 79v138h-90
v-171l4 -64q0 -14 -20 -26q-21 -12 -36 -12l4 106v417l54 -38v0v0zM518 316h90v160h-90v-160v0v0zM654 476v-160h86v160h-86v0v0zM786 476v-160h86v160h-86v0v0zM518 630h272l28 32l46 -42q2 0 2 -6q0 -10 -12 -10h-272q-22 0 -46 -8l-18 34v0v0zM728 942q6 -3 6 -6
q3 -7 -24 -22q39 -67 90 -122q51 -54 94 -78q40 -24 104 -42v-16q-31 0 -44 -6q-12 -6 -36 -30q-47 36 -76 66t-70 84q-39 51 -78 126q-55 -93 -122 -176q-67 -81 -134 -138l-12 10q63 76 124 164q57 87 114 208l64 -22v0v0zM268 940q6 -6 4 -12q0 -4 -18 -8q-13 -6 -22 -18
q-10 -12 -32 -56h118l26 34l62 -48q7 -6 2 -12q0 -6 -30 -12q-21 -10 -42 -34q-18 -21 -56 -78h70l28 34l54 -38q6 -4 6 -8q0 -6 -26 -24v-242l4 -68q0 -13 -18 -26q-16 -10 -34 -10v32h-224v-16q0 -12 -18 -26q-19 -13 -34 -14l4 106v256q-18 -36 -56 -78l-12 8
q37 66 92 186q54 118 82 206l70 -34v0v0zM140 372h88v138h-88v-138v0v0zM276 372h88v138h-88v-138v0v0zM140 536h88v134h-88v-134v0v0zM276 670v-134h88v134h-88v0v0zM138 696h112l68 124h-130q-26 -54 -58 -108l8 -16v0v0zM98 262h20q1 -70 0 -112q0 -39 -18 -63
q-19 -23 -40 -28q-22 -3 -32 6t-8 24t20 26q17 10 34 39q18 27 24 108v0v0zM142 262l14 8q44 -51 56 -78t12 -50q1 -20 -10 -33q-13 -13 -28 -8q-16 6 -14 32q3 25 -2 59q-7 32 -28 70v0v0zM240 280l12 10q42 -36 60 -68q18 -34 18 -52q0 -20 -8 -31q-10 -13 -26 -8
q-16 3 -16 33t-12 58q-10 27 -28 58v0v0zM328 300l12 10q48 -30 72 -56q21 -28 24 -46q1 -18 -10 -30q-13 -13 -28 -8q-16 3 -20 34q-3 27 -14 48q-12 18 -36 48v0v0z" />
  </g>

</svg>
