<?xml version="1.0" standalone="no"?>
<!DOCTYPE svg PUBLIC "-//W3C//DTD SVG 1.1//EN" "http://www.w3.org/Graphics/SVG/1.1/DTD/svg11.dtd" >
<svg xmlns="http://www.w3.org/2000/svg" xmlns:xlink="http://www.w3.org/1999/xlink" version="1.1" viewBox="0 -36 256 256">
  <g transform="matrix(1 0 0 -1 0 220)">
   <path fill="currentColor"
d="M33 245l21 -8l-7 -6v-19h34q0 19 -1 32l21 -6l-7 -7v-19h2l10 10l14 -17h-26q0 -16 1 -33l-14 -5v8h-10v-27h22l7 10l13 -11l-6 -8q0 -22 1 -39l-14 -7v9h-23v-29h23l10 10l15 -17h-48q0 -40 1 -52l-15 -7q1 26 1 59h-21q-10 -1 -19 -3l-10 10h50v29h-25v-9l-14 -4
q1 11 1 31.5t-1 35.5l15 -8h24v27h-11v-4l-14 -5q1 21 1 39q-9 0 -14 -3l-8 10h22q0 17 -1 33zM47 182h34v23h-34v-23zM33 109h25v32h-25v-32zM71 109h23v32h-23v-32zM212 75l-14 -9q1 23 1 69.5t-1 63.5l20 -7l-7 -8q0 -95 1 -109zM226 243l22 -7l-8 -9v-194q0 -18 -18 -25
q-3 13 -28 20v4q22 -2 27.5 -1.5t5.5 6.5v173q0 14 -1 33zM136 140q15 -9 18.5 -15.5t1 -12t-5.5 -7.5t-5.5 8.5t-10.5 22.5q-9 -16 -18 -28l-3 2q11 22 18.5 49t10.5 53h-3q-10 0 -16 -2l-9 9h57l9 9l16 -16h-41q-2 -16 -8 -40h26l6 10l14 -12l-6 -6q-11 -58 -29.5 -92.5
t-54.5 -60.5l-2 3q32 32 48.5 67t23.5 84h-27q-5 -14 -10 -25z" />
  </g>

</svg>
