<?xml version="1.0" standalone="no"?>
<!DOCTYPE svg PUBLIC "-//W3C//DTD SVG 1.1//EN" "http://www.w3.org/Graphics/SVG/1.1/DTD/svg11.dtd" >
<svg xmlns="http://www.w3.org/2000/svg" xmlns:xlink="http://www.w3.org/1999/xlink" version="1.1" viewBox="0 -36 256 256">
  <g transform="matrix(1 0 0 -1 0 220)">
   <path fill="currentColor"
d="M172 168q7 12 10 26l17 -12l-7 -4q-2 -4 -6 -10h31l11 9l17 -16h-63q-5 -9 -9 -15h40l9 7l15 -14h-34v-14h19l11 8l14 -15h-68q-11 1 -23 -2l-8 9h43v14h-24q-15 -13 -30 -21l-2 2q20 19 33 41h-3q-11 -2 -20 -4l-9 11h36zM46 171h29l8 9l11 -14l-7 -9v-125
q-1 -16 -16 -22q-3 13 -18 18v4q11 -2 16.5 -2.5t5.5 10.5v51q-14 -12 -24 -24l-6 9q-4 -45 -35 -69l-2 2q25 33 25 78q2 58 0 90zM46 164v-23q24 -9 29 -16v39h-29zM46 136q0 -21 -1 -53q10 3 30 13v26q-3 -20 -10.5 -8.5t-18.5 22.5zM178 108h34l8 8l12 -12l-7 -6v-59
q-2 -14 -16 -17q-3 10 -21 12v4q12 -1 18 -1t6 3v26q-17 -7 -30 -15l-6 8q-5 -24 -28 -33l-2 2q16 14 18 38q2 29 0 47zM178 101v-8q28 -5 34 -8v16h-34zM178 90q0 -10 -1 -25q11 0 35 5v13q-4 -12 -12.5 -5t-21.5 12zM99 217l14 11l14 -18h-39q0 -7 2 -17l-15 -5q0 8 -1 22
h-26q-15 1 -24 -3l-10 10h59q-2 21 -4 30l21 -7l-4 -6l1 -17h12zM153 212l-11 -2l-10 9h37q3 17 3 28l20 -9l-6 -6l-3 -13h31l13 11l17 -18h-62q-1 -7 -4 -24l-15 -1q5 21 5 25h-15zM127 166q4 -8 -2 -16t-8.5 4t-15.5 28l3 3q19 -11 23 -19zM233 9q-52 -1 -75.5 6.5
t-39.5 20.5q-14 -18 -18 -28l-10 11q4 6 15 17q10 6 14.5 22t7.5 24h-18l-7 -6l-8 13l7 4q9 13 17 31h-14l-9 -3l-8 10h34l7 7l11 -14l-9 -4l-18 -31h15l8 6l9 -13l-7 -6q-11 -27 -13 -34q14 -10 35.5 -14.5t50 -4t39.5 4.5v-5q-11 -3 -16 -14z" />
  </g>

</svg>
