<?xml version="1.0" standalone="no"?>
<!DOCTYPE svg PUBLIC "-//W3C//DTD SVG 1.1//EN" "http://www.w3.org/Graphics/SVG/1.1/DTD/svg11.dtd" >
<svg xmlns="http://www.w3.org/2000/svg" xmlns:xlink="http://www.w3.org/1999/xlink" version="1.1" viewBox="0 -205 1024 1024">
  <g transform="matrix(1 0 0 -1 0 819)">
   <path fill="currentColor"
d="M838 898l60 -48q7 -4 8 -10q0 -10 -36 -28l-28 -731h50l38 52l56 -60q3 -3 4 -12q1 -8 -10 -8h-604q-28 1 -50 -8l-22 36h230l26 407h-54q-36 1 -48 -10l-32 36h134l18 322h-110q-22 0 -40 -8l-24 34h402l32 36v0v0zM586 81h202l16 407h-192l-26 -407v0v0zM614 514h192
l10 322h-184l-18 -322v0v0zM308 906q9 -9 -6 -14q-19 -3 -28 -12q-10 -6 -58 -74q-47 -66 -118 -152l176 -2q63 93 90 148l70 -52q3 -9 -14 -12q-15 -7 -30 -16q-13 -7 -82 -100q-69 -90 -174 -204l236 24q-30 57 -68 102l10 12q70 -45 98 -78q27 -33 30 -60q4 -27 -6 -38
q-11 -12 -22 -14q-12 -1 -18 8q-7 8 -10 20q-1 11 -8 22q-117 -13 -180 -28t-102 -36l-36 68q27 4 58 20q56 60 148 196q-97 -14 -128 -22q-30 -6 -60 -24l-42 64q24 0 46 24q20 20 76 116q54 96 82 162l70 -48v0v0zM120 314h22q9 -78 4 -138q-6 -58 -26 -85
q-21 -27 -38 -30q-16 -3 -28 6q-13 7 -14 22t20 38q20 21 32 45q12 20 18 50q6 26 10 92v0v0zM204 332l16 6q47 -68 62 -112q13 -42 8 -72q-5 -28 -22 -37q-18 -7 -32 4q-16 12 -8 47q6 35 0 80q-6 42 -24 84v0v0zM316 340l14 10q65 -51 92 -90q24 -36 24 -66q0 -31 -18 -40
t-32 0q-13 9 -14 40q-1 29 -16 64q-15 33 -50 82v0v0z" />
  </g>

</svg>
