<?xml version="1.0" standalone="no"?>
<!DOCTYPE svg PUBLIC "-//W3C//DTD SVG 1.1//EN" "http://www.w3.org/Graphics/SVG/1.1/DTD/svg11.dtd" >
<svg xmlns="http://www.w3.org/2000/svg" xmlns:xlink="http://www.w3.org/1999/xlink" version="1.1" viewBox="0 -205 1024 1024">
  <g transform="matrix(1 0 0 -1 0 819)">
   <path fill="currentColor"
d="M482 958l54 -34h338l30 32l54 -40q6 -4 6 -8q0 -5 -30 -22v-94l4 -62q3 -15 -14 -24q-15 -9 -38 -12v34h-356v-20q1 -9 -16 -20q-18 -12 -36 -12l4 84v198v0v0zM530 754h90v144h-90v-144v0v0zM668 754h84v144h-84v-144v0v0zM800 754h86v144h-86v-144v0v0zM756 702
q9 -3 4 -12q0 -3 -6 -6l-18 -8v-50h114l28 38l52 -46q3 -3 4 -6q0 -12 -12 -12h-186v-88h154l32 38l46 -46q3 -3 4 -6q0 -12 -12 -12h-432q-21 0 -56 -8l-16 34h232v88h-110q-21 0 -68 -8l-16 34h194v96l68 -20v0v0zM848 438q13 -6 8 -12q-5 -7 -16 -10q-12 0 -30 -20
q-33 -32 -56 -58h108l32 40l46 -46q3 -4 4 -8q2 -10 -10 -10h-202v-96h168l36 48l54 -56q3 -4 4 -10q0 -7 -14 -8h-248v-75l4 -54q4 -13 -16 -26q-18 -13 -38 -12l4 94v73h-156q-22 0 -70 -8l-18 34h244v96h-124q-21 -1 -68 -10l-18 34h252q39 59 70 122l50 -22v0v0z
M560 448l8 10q50 -25 68 -38q18 -12 24 -30q5 -15 -4 -30q-10 -14 -26 -12q-15 3 -18 18q-3 14 -12 32q-8 17 -40 50v0v0zM378 698l48 -34q16 -7 2 -22l-22 -20v-186l4 -88q-1 -13 -16 -26q-16 -12 -34 -14v36h-178v-213l178 85q-31 39 -70 72l8 12q59 -30 94 -56
q35 -28 46 -52q12 -25 4 -45q-9 -19 -24 -20t-24 18q-6 19 -12 29q-3 9 -12 24q-146 -82 -166 -101q-19 -18 -52 -54l-54 58q33 20 40 34v539q-45 -65 -90 -106l-10 10q65 93 122 204q56 107 92 206l64 -34q12 -5 4 -16q-28 0 -40 -24q62 -25 104 -50q42 -24 54 -48
q13 -24 8 -42q-6 -19 -24 -20q-18 -2 -30 24q-10 24 -40 58q-27 33 -84 60q-22 -42 -52 -96q-31 -54 -64 -104l36 -32h160l30 34v0v0zM182 636v-120h178v120h-178v0v0zM182 490v-120h178v120h-178v0v0zM232 810l8 10q53 -30 70 -54q15 -21 12 -44q-4 -21 -16 -26
q-13 -3 -22 0q-9 4 -12 26t-12 44q-8 20 -28 44v0v0z" />
  </g>

</svg>
