<?xml version="1.0" standalone="no"?>
<!DOCTYPE svg PUBLIC "-//W3C//DTD SVG 1.1//EN" "http://www.w3.org/Graphics/SVG/1.1/DTD/svg11.dtd" >
<svg xmlns="http://www.w3.org/2000/svg" xmlns:xlink="http://www.w3.org/1999/xlink" version="1.1" viewBox="0 -205 1024 1024">
  <g transform="matrix(1 0 0 -1 0 819)">
   <path fill="currentColor"
d="M436 798l72 -32q8 -4 8 -8q1 -4 -4 -10l-26 -14v-560l4 -97q0 -15 -20 -28q-21 -13 -38 -14l4 129v634v0v0zM918 916l54 -44q8 -4 8 -10q0 -5 -14 -16l-20 -16v-681q4 -39 -10 -72q-13 -29 -76 -44q-12 30 -30 44q-15 15 -120 50l4 18q113 -24 128 -28q15 -3 36 2
q19 6 18 37v694h-184q-18 0 -56 -8l-22 36h246l38 38v0v0zM460 984q83 -47 106 -76q24 -29 24 -52q0 -21 -12 -32q-13 -12 -28 -8q-15 2 -18 28q-3 23 -18 50q-15 26 -62 80l8 10v0v0zM576 694l56 -36h116l32 40l58 -42q6 -4 6 -8q0 -6 -32 -26v-200l4 -86q0 -12 -14 -24
q-15 -12 -38 -14v64h-140v-66q3 -16 -14 -28q-18 -13 -38 -14l4 158v282v0v0zM624 388h140v244h-140v-244v0v0zM36 758h170v228l66 -30q22 -8 12 -22l-28 -14v-162h66l30 40l50 -48q3 -3 4 -8q0 -12 -14 -12h-136v-96q71 -37 100 -64q29 -24 34 -48q4 -21 -4 -38
q-6 -16 -26 -16q-19 -1 -22 22q-4 24 -22 54q-15 30 -60 66v-432l4 -107q0 -14 -20 -26q-18 -12 -38 -12l4 147v368q-27 -84 -72 -164q-44 -81 -94 -138l-10 10q38 65 68 128q27 62 58 152q30 89 48 194h-102q-6 0 -48 -8l-18 36v0v0z" />
  </g>

</svg>
