<?xml version="1.0" standalone="no"?>
<!DOCTYPE svg PUBLIC "-//W3C//DTD SVG 1.1//EN" "http://www.w3.org/Graphics/SVG/1.1/DTD/svg11.dtd" >
<svg xmlns="http://www.w3.org/2000/svg" xmlns:xlink="http://www.w3.org/1999/xlink" version="1.1" viewBox="0 -36 256 256">
  <g transform="matrix(1 0 0 -1 0 220)">
   <path fill="currentColor"
d="M121 248l25 -9l-10 -6v-15h60l13 11l16 -18h-89v-27h75l12 12l17 -19h-195q-11 0 -20 -2l-10 9h107v27h-54q-11 0 -20 -2l-10 9h84q0 17 -1 30zM184 146q-9 10 -21 20l3 3q37 -18 42.5 -27t0 -16.5t-9 0.5t-11.5 15q-126 -10 -135 -15l-10 20q10 -2 36.5 10.5t37.5 23.5
l18 -16l-12 1q-30 -14 -57 -22zM206 110l17 -19h-87v-28h77l13 13l17 -20h-107q0 -20 1 -44l-16 -6q1 27 1 50h-78q-13 0 -22 -3l-10 10h110v28h-56q-11 -12 -29 -24l-3 3q26 25 42 58l19 -13l-11 -3l-11 -14h49q0 16 -1 34l23 -11l-8 -6v-17h58z" />
  </g>

</svg>
