<?xml version="1.0" standalone="no"?>
<!DOCTYPE svg PUBLIC "-//W3C//DTD SVG 1.1//EN" "http://www.w3.org/Graphics/SVG/1.1/DTD/svg11.dtd" >
<svg xmlns="http://www.w3.org/2000/svg" xmlns:xlink="http://www.w3.org/1999/xlink" version="1.1" viewBox="0 -120 1000 1000">
  <g transform="matrix(1 0 0 -1 0 880)">
   <path fill="currentColor"
d="M465 242v90l80 -9q23 -2 23 -15q0 -11 -14 -16l-23 -9v-41h200l47 55l77 -62v-20h-324v-102h289l47 60l84 -67v-20h-891l-12 27h417v102h-299l-15 27h314zM445 718l-190 -238q-3 -5 -3 -13q0 -11 22 -82q7 -22 7 -40q0 -21 -16 -33q-11 -8 -27 -8q-18 0 -30 9
q-13 10 -13 25q0 12 5 41q2 14 2 29q0 38 -8 52q-16 25 -83 27v19h92l228 226zM107 699q59 -9 92 -29q44 -25 44 -53q0 -17 -16 -27q-9 -5 -18 -5q-20 0 -34 27q-28 52 -73 75zM354 861h44l38 48l65 -57v-19h-147v-55l-63 -8v63h-210l-11 28h221v101l74 -8q19 -2 19 -13
q0 -7 -9 -12l-21 -10v-58zM531 861h104v102l80 -10q15 -1 15 -13q0 -9 -9 -12l-23 -9v-58h110l47 58l91 -67v-19h-248v-57l-63 -9v66h-97zM198 783q128 -24 128 -80q0 -14 -12 -22q-11 -8 -23 -8q-9 0 -17 6q-5 4 -20 33q-19 34 -64 59zM383 329v233l82 -29h118v221l73 -8
q30 -3 30 -12q0 -8 -15 -13l-22 -7v-58h162l41 45l81 -52v-17h-284v-99h148l27 36l72 -43q11 -6 11 -13q0 -6 -12 -9l-22 -6v-161l-65 -10v41h-360v-29zM448 508v-112h360v112h-360z" />
  </g>

</svg>
