<?xml version="1.0" standalone="no"?>
<!DOCTYPE svg PUBLIC "-//W3C//DTD SVG 1.1//EN" "http://www.w3.org/Graphics/SVG/1.1/DTD/svg11.dtd" >
<svg xmlns="http://www.w3.org/2000/svg" xmlns:xlink="http://www.w3.org/1999/xlink" version="1.1" viewBox="0 -410 2048 2048">
  <g transform="matrix(1 0 0 -1 0 1638)">
   <path fill="currentColor"
d="M1208 1254h-212q-12 -30 -60 -30q-31 0 -31 23v311q-50 -30 -117 -67l-21 34q157 112 228 194q80 91 161 227l127 -53q31 -13 31 -29q0 -26 -38 -30l-51 -6l-50 -42h302l66 60l85 -69q27 -22 27 -41q0 -25 -38 -31l-44 -8l-99 -76l-99 -77h331l63 72l83 -50
q44 -26 44 -50q0 -16 -69 -52v-142l33 -22q17 -11 17 -25q0 -21 -28 -21h-345v-252h265l61 72l73 -50q42 -29 42 -49q0 -16 -67 -52v-404q0 -61 8 -114q1 -3 1 -8q0 -38 -65 -38q-39 0 -39 18v21h-279v-16q0 -34 -55 -34q-37 0 -37 23v1116h-111v-1244q0 -44 43.5 -58.5
t174.5 -14.5h147q90 0 148 15q49 13 64 84l17 83l40 -8v-72q0 -41 26 -67q29 -28 29 -44q0 -31 -38 -51q-35 -18 -173 -23l-97 -4h-200q-150 0 -202 23q-72 31 -72 121v1027zM1504 734h279v211h-279v-211zM1504 676v-219h279v219h-279zM1121 1728q-82 -86 -178 -150l53 -34
h310q84 90 159 184h-344zM1208 1309v178h-212v-178h212zM1504 1487v-178h225v178h-225zM1108 551v-267l32 -26q16 -14 16 -24q0 -20 -16 -20h-174q-45 0 -125 -11l-38 86q114 -17 183 -17h34v126h-127q-64 0 -144 -10l-38 87q119 -18 218 -18h91v116h-77l-41 -3
q-39 -3 -75 -7l-38 85q73 -10 134 -15l20 -2h59l58 71l70 -50q42 -29 42 -49q0 -16 -64 -52zM1108 1078v-232l32 -26q16 -14 16 -24q0 -20 -16 -20h-195l-37 -3q-35 -3 -75 -8l-38 86q27 -4 40 -5q32 -5 95 -10l15 -2h75v111h-100q-74 0 -144 -12l-38 86q26 -3 40 -5
q84 -12 197 -12h45v99h-62l-38 -3q-43 -3 -74 -8l-38 86q71 -10 133 -15l17 -3h44l48 61l82 -46q39 -22 39 -41q0 -13 -8 -20t-55 -34zM465 1135q265 -102 265 -207q0 -54 -47 -54q-27 0 -47 23q-4 5 -33 55q-35 59 -138 132v-755q0 -101 11 -209q3 -32 3 -50q0 -46 -57 -46
q-55 0 -55 42v943q-12 -27 -18 -40q-112 -248 -274 -440l-29 23q208 357 275 690h-79q-63 0 -149 -11l-39 86q120 -17 188 -17h125v388q-151 -23 -292 -33l-4 36q29 7 43 10q377 82 521 186l99 -90q17 -15 17 -30q0 -21 -32 -21h-5l-66 12q-46 -16 -123 -36l-60 -15v-407
h107l92 91l102 -91q21 -19 21 -36q0 -22 -28 -22h-294v-107z" />
  </g>

</svg>
