<?xml version="1.0" standalone="no"?>
<!DOCTYPE svg PUBLIC "-//W3C//DTD SVG 1.1//EN" "http://www.w3.org/Graphics/SVG/1.1/DTD/svg11.dtd" >
<svg xmlns="http://www.w3.org/2000/svg" xmlns:xlink="http://www.w3.org/1999/xlink" version="1.1" viewBox="0 -36 256 256">
  <g transform="matrix(1 0 0 -1 0 220)">
   <path fill="currentColor"
d="M61 218q6 -8 0.5 -17t-12 4.5t-20.5 26.5l1 3q25 -9 31 -17zM11 180q30 -12 32 -21.5t-3.5 -15t-10 6t-19.5 27.5zM37 85q6 4 32 107l5 -1q-18 -88 -21.5 -100t-4.5 -23t1 -35.5t-9 -18.5t-8 22.5t3 27t-23 15.5v4q19 -2 25 2zM162 63h45l10 11l18 -18h-73v-32h57l10 11
l18 -18h-151q-13 0 -22 -3l-10 10h84v32h-34q-16 0 -25 -3l-10 10h69v123h-42q-13 0 -22 -3l-10 10h74v28q-28 -2 -59 -4v5q41 4 78.5 11t44.5 13l13 -18q-18 -1 -63 -6v-29h51l10 11l18 -18h-79v-123zM124 99l13 1l1 -3q-56 -15 -60 -21l-9 16q16 2 41 5v39h-15l-11 -3
l-10 10h36q0 19 -1 37l23 -11l-8 -7v-63zM183 179l24 -8l-9 -7v-21h14l10 11l18 -18h-42v-28q0 -9 9 -10h11q5 0 8.5 1.5t6 0.5t5.5 -5.5t-0.5 -6.5t-16.5 -2h-18q-19 0 -19 19v48q0 10 -1 26z" />
  </g>

</svg>
