<?xml version="1.0" standalone="no"?>
<!DOCTYPE svg PUBLIC "-//W3C//DTD SVG 1.1//EN" "http://www.w3.org/Graphics/SVG/1.1/DTD/svg11.dtd" >
<svg xmlns="http://www.w3.org/2000/svg" xmlns:xlink="http://www.w3.org/1999/xlink" version="1.1" viewBox="0 -205 1024 1024">
  <g transform="matrix(1 0 0 -1 0 819)">
   <path fill="currentColor"
d="M838 914l66 -64q3 -4 4 -10q0 -7 -8 -8h-272v-436q-1 -39 20 -50h154q20 5 28 26q9 20 12 52q2 29 4 104h18q2 -47 4 -76q3 -30 6 -48q2 -17 28 -34q-5 -22 -22 -40q-16 -17 -58 -28h-160q-48 0 -66 18q-18 17 -20 62v450h-148v-126q2 -114 -10 -198q-12 -83 -50 -154
q-36 -71 -162 -148l-10 12q94 71 128 134q33 62 46 142q10 77 8 200v138h-202v-688h638l44 56l78 -65l6 -6q0 -6 -8 -10h-752l-34 -36l-64 48l40 31v750l68 -56h598l48 58v0v0z" />
  </g>

</svg>
