<?xml version="1.0" standalone="no"?>
<!DOCTYPE svg PUBLIC "-//W3C//DTD SVG 1.1//EN" "http://www.w3.org/Graphics/SVG/1.1/DTD/svg11.dtd" >
<svg xmlns="http://www.w3.org/2000/svg" xmlns:xlink="http://www.w3.org/1999/xlink" version="1.1" viewBox="0 -36 256 256">
  <g transform="matrix(1 0 0 -1 0 220)">
   <path fill="currentColor"
d="M140 127l-12 -15h83l12 8l16 -15h-58v-21h29l10 10l17 -18h-56v-19h29l10 10l17 -18h-56v-20h35l12 10l14 -18h-114v-10l-14 -4q1 21 1 85q-12 -12 -31 -27l-2 3q14 15 28 37t20 37l18 -13zM68 17l-15 -8v107q-17 -44 -40 -77l-5 2q29 53 40 101h-13q-8 2 -17 -2l-9 8h44
q0 39 -1 42l23 -10l-8 -5v-27h8l12 11l17 -17h-37v-20q17 -9 23.5 -15t6 -13t-5.5 -11.5t-9.5 7.5t-14.5 24q0 -72 1 -97zM128 84h40v21h-40v-21zM128 57h40v19h-40v-19zM128 29h40v20h-40v-20zM165 142q14 -7 19.5 -12.5t-2 -13.5t-10.5 4t-10 20zM114 181l21 -6l-8 -7v-18
h38q0 25 -1 38l23 -5l-9 -6v-27h38q0 19 -1 32l20 -7l-6 -6q0 -20 1 -27l-14 -4v5h-88l-6 -4l-14 8l6 5v29zM69 234l-11 -16h54l12 13l14 -19h-56q20 -10 21 -17.5t-5 -13.5t-9.5 6.5t-14.5 24.5h-20q-17 -23 -38 -40l-4 3q14 18 25.5 35t19.5 39l23 -12zM174 233l-12 -16
h60l9 11l15 -17h-62q16 -7 20 -12.5t3 -11t-6 -7.5t-8.5 7.5t-16.5 23.5h-18q-12 -14 -30 -29l-3 3q20 26 27 39.5t10 23.5l22 -12z" />
  </g>

</svg>
