<?xml version="1.0" standalone="no"?>
<!DOCTYPE svg PUBLIC "-//W3C//DTD SVG 1.1//EN" "http://www.w3.org/Graphics/SVG/1.1/DTD/svg11.dtd" >
<svg xmlns="http://www.w3.org/2000/svg" xmlns:xlink="http://www.w3.org/1999/xlink" version="1.1" viewBox="0 -205 1024 1024">
  <g transform="matrix(1 0 0 -1 0 819)">
   <path fill="currentColor"
d="M444 834h126v146l76 -30l8 -6q0 -5 -6 -10l-30 -16v-84h202v142l74 -26l6 -4q6 -7 -2 -10l-32 -18v-84h44l32 44l52 -50q3 -4 4 -10q0 -10 -12 -10h-120v-222l4 -64q0 -15 -14 -26q-15 -12 -36 -12v40h-202v-28q-1 -16 -16 -28q-15 -10 -36 -10l4 132v218h-48
q-28 0 -58 -8l-20 34v0v0zM618 552h202v114h-202v-114v0v0zM618 692h202v116h-202v-116v0v0zM448 392h246v110l76 -26q6 -1 6 -8q-1 -4 -34 -20v-56h162l34 40l60 -50q3 -3 4 -8q2 -9 -10 -8h-224q23 -51 56 -96q32 -42 76 -74q45 -30 114 -38v-15q-39 -2 -60 -8
q-18 -5 -36 -26q-43 32 -74 67q-30 33 -54 78q-21 45 -48 114v-214l4 -93q-3 -15 -20 -24q-18 -9 -36 -10l4 122v205q-37 -79 -100 -148q-60 -67 -150 -123l-8 12q68 60 118 123q50 60 92 148h-116q-21 0 -66 -8l-16 34v0v0zM42 896h330l30 34l54 -42q3 -3 4 -8q0 -7 -14 -8
h-130v-152h50l28 36l58 -40q3 -3 4 -6q0 -7 -32 -26v-478l4 -91q0 -12 -14 -22q-12 -10 -36 -14v64h-250v-62q1 -12 -16 -24q-16 -14 -34 -16l4 123v596l50 -40h54v152h-88q-22 0 -38 -8l-18 32v0v0zM128 314v-146h250v146h-250v0v0zM128 378v-38h250v98h-32q-10 0 -28 4
q-16 3 -28 18q-12 12 -12 34v202h-52q3 -162 -24 -222q-27 -57 -74 -96v0v0v0zM378 696h-62v-188q0 -18 10 -24q8 -6 20 -6h32v218v0v0zM226 720h52v152h-52v-152v0v0zM186 696h-58v-290q32 40 46 98q13 57 12 192v0v0z" />
  </g>

</svg>
