<?xml version="1.0" standalone="no"?>
<!DOCTYPE svg PUBLIC "-//W3C//DTD SVG 1.1//EN" "http://www.w3.org/Graphics/SVG/1.1/DTD/svg11.dtd" >
<svg xmlns="http://www.w3.org/2000/svg" xmlns:xlink="http://www.w3.org/1999/xlink" version="1.1" viewBox="0 -36 256 256">
  <g transform="matrix(1 0 0 -1 0 220)">
   <path fill="currentColor"
d="M55 222q17 6 32 20l13 -15h-9q-16 -6 -33 -11l1 -18h15l9 9l10 -16h-34l1 -21h13l10 8l11 -15h-34l1 -21h40q5 21 5 37l18 -8l-6 -6l-6 -23h23q-2 9 -13 10v5q7 -1 11 -0.5t5 6t2 25.5h-21l-7 -5l-12 11l7 3q4 28 5 48l18 -8l-6 -4l-2 -13h15l9 10l13 -17h-38l-2 -18h19
l8 8l12 -11l-6 -5q-1 -31 -5.5 -38.5t-13.5 -6.5h60l2 22h-4q-10 0 -19 -2l-9 9h33l2 25h-3q-10 0 -19 -2l-9 9h32l2 21h-10q-10 0 -19 -2l-9 9h37l7 7l13 -12l-7 -6l-7 -78h12l10 12l15 -19h-77q42 -25 81 -24v-5q-15 -1 -20 -12q-42 12 -71 41h-59q-39 -39 -88 -49v5
q40 15 68 44h-33q-10 0 -19 -2l-9 9h32q-1 47 -4 86zM218 65q-27 4 -51.5 16.5t-35.5 28.5q-41 -39 -106 -47l-1 4q36 9 61 23.5t36 26.5h-12l-8 -2l-6 9h32l4 4l12 -12q-6 -2 -7 -2q14 -17 39.5 -24t57.5 -7v-5q-12 -1 -15 -13zM155 77l9 9l17 -16h-46v-21h37l11 8l15 -15
h-63v-22h60l12 10l17 -17h-158q-6 1 -17 -2l-9 9h82v22h-31q-5 1 -16 -2l-9 9h56v21h-23q-10 0 -19 -2l-9 9h84z" />
  </g>

</svg>
