<?xml version="1.0" standalone="no"?>
<!DOCTYPE svg PUBLIC "-//W3C//DTD SVG 1.1//EN" "http://www.w3.org/Graphics/SVG/1.1/DTD/svg11.dtd" >
<svg xmlns="http://www.w3.org/2000/svg" xmlns:xlink="http://www.w3.org/1999/xlink" version="1.1" viewBox="0 -205 1024 1024">
  <g transform="matrix(1 0 0 -1 0 819)">
   <path fill="currentColor"
d="M496 512h350l26 38l70 -42q6 -1 6 -10q0 -6 -30 -26v-373q4 -35 -12 -56q-15 -21 -48 -36q-5 21 -22 36q-15 10 -86 32l4 16q68 -8 82 -10q15 0 24 6q10 5 8 28v185h-88v-78l4 -76q-4 -17 -22 -25q-16 -5 -34 -8l4 109v78h-96v-84l4 -72q0 -13 -18 -25t-36 -12l2 103v90
h-96v-185l4 -64q-1 -14 -22 -26t-38 -12l4 90v447l56 -38v0v0zM492 326h96v160h-96v-160v0v0zM636 486v-160h96v160h-96v0v0zM780 486v-160h88v160h-88v0v0zM748 642l34 42l50 -48q3 -3 4 -8q0 -12 -12 -12h-222q-21 0 -68 -8l-16 34h230v0v0zM730 942q6 -6 6 -8
q0 -6 -26 -14q32 -75 74 -126q39 -48 96 -90q54 -42 126 -48v-20q-31 0 -52 -8q-21 -7 -38 -26q-45 32 -84 70q-36 36 -74 94q-38 57 -76 144q-51 -93 -122 -182q-73 -87 -166 -158l-10 12q81 84 148 180q66 93 120 216l78 -36v0v0zM22 868h308l36 42l52 -50q12 -15 -8 -18
h-162q-28 -136 -70 -268h114l32 36l54 -46q6 -6 6 -8q0 -6 -32 -30v-328l4 -44q2 -15 -16 -27q-18 -14 -36 -16v77h-128v-73q0 -18 -20 -28q-21 -12 -32 -12l4 101v278q-34 -78 -94 -150l-10 8q51 104 96 230q42 123 76 300h-86q-22 0 -70 -8l-18 34v0v0zM176 214h128v334
h-128v-334v0v0z" />
  </g>

</svg>
