<?xml version="1.0" standalone="no"?>
<!DOCTYPE svg PUBLIC "-//W3C//DTD SVG 1.1//EN" "http://www.w3.org/Graphics/SVG/1.1/DTD/svg11.dtd" >
<svg xmlns="http://www.w3.org/2000/svg" xmlns:xlink="http://www.w3.org/1999/xlink" version="1.1" viewBox="0 -205 1024 1024">
  <g transform="matrix(1 0 0 -1 0 819)">
   <path fill="currentColor"
d="M348 874h192v118l72 -24q12 -9 0 -18l-22 -12v-64h144v114l64 -22q9 -3 12 -8q-1 -5 -4 -10l-22 -10v-64h118l36 44l54 -54q6 -10 -2 -14h-206v-38q0 -13 -18 -22q-13 -6 -32 -6v66h-144v-42q1 -12 -16 -20q-16 -9 -34 -6v68h-120q-22 0 -58 -8l-14 32v0v0zM414 804
l56 -40h378l30 36l60 -46q6 -6 6 -8q-1 -6 -34 -32v-60l4 -54q3 -16 -14 -28q-16 -13 -40 -14v32h-396v-4q1 -12 -16 -20q-15 -9 -38 -8l4 100v146v0v0zM464 616h98v120h-98v-120v0v0zM608 616h102v120h-102v-120v0v0zM756 616h104v120h-104v-120v0v0zM450 464l56 -38h304
l28 34l54 -38l4 -8q0 -6 -26 -24v-245l4 -74q0 -14 -18 -26q-18 -11 -36 -14v60h-320v-30q0 -12 -18 -24q-15 -13 -36 -14l4 120v321v0v0zM500 115h320v83h-320v-83v0v0zM500 222h320v74h-320v-74v0v0zM500 320h320v82h-320v-82v0v0zM926 520l26 34l54 -38q13 -10 0 -16
q-21 -5 -42 -22q-19 -17 -50 -52l-12 8l28 62h-528q0 -39 -8 -62q-8 -22 -28 -28q-21 -5 -30 6q-11 9 -6 22q3 12 16 24q12 9 22 28q9 18 16 66h18l2 -32h522v0v0zM242 954q5 -3 8 -6q1 -10 -16 -16q-18 -7 -26 -50q-9 -43 -24 -136h100l28 42l46 -36q13 -9 12 -12
q0 -7 -26 -28q-25 -180 -46 -254q-22 -75 -50 -134q41 -22 68 -50q24 -27 30 -50q5 -24 -4 -38q-10 -15 -26 -12q-14 2 -22 26q-8 21 -22 42q-15 18 -44 48q-36 -70 -96 -134q-57 -61 -108 -95l-8 12q41 36 98 109q56 75 80 132q-36 27 -114 78q25 113 56 328h-62
q-21 0 -42 -6l-16 32h124q15 110 28 238l74 -30v0v0zM212 346q24 60 46 142q21 78 36 232h-116q-28 -190 -64 -322q43 -20 98 -52v0v0z" />
  </g>

</svg>
