<?xml version="1.0" standalone="no"?>
<!DOCTYPE svg PUBLIC "-//W3C//DTD SVG 1.1//EN" "http://www.w3.org/Graphics/SVG/1.1/DTD/svg11.dtd" >
<svg xmlns="http://www.w3.org/2000/svg" xmlns:xlink="http://www.w3.org/1999/xlink" version="1.1" viewBox="0 -36 256 256">
  <g transform="matrix(1 0 0 -1 0 220)">
   <path fill="currentColor"
d="M39 239l17 -9h159l11 11l17 -18h-188v-90q0 -29 -8 -59t-35 -64l-3 2q18 30 24.5 59t6.5 61v74q0 14 -1 33zM110 188h-22q-11 -1 -20 -3l-9 10h51q0 11 -1 25l22 -7l-7 -6v-12h42q0 11 -1 25l24 -8l-9 -6v-11h29l12 10l16 -17h-57q0 -4 1 -11l-15 -8v19h-42v-10l-15 -6
q1 9 1 16zM139 66l-13 -4v3h-41v-2l-14 -4q1 20 1 29v35q-5 -5 -12 -11l-2 2q9 12 20 30t16 36l17 -10q-5 -3 -13 -15h23l6 9l13 -14q-10 -3 -29 -23h15l5 8l13 -9l-6 -8q0 -34 1 -52zM85 100h14v20h-14v-20zM111 100h15v20h-15v-20zM85 72h14v21h-14v-21zM111 72h15v21h-15
v-21zM77 129l6 -2h23l14 21h-26q-8 -11 -17 -19zM72 50q0 -25 -8 -31t-14.5 -2.5t3.5 11t16 22.5h3zM85 52q14 -11 15.5 -18t-4.5 -13.5t-7.5 6t-5.5 23.5zM107 55q18 -12 18.5 -19.5t-5 -12t-6.5 5.5t-10 25zM127 60q25 -17 22.5 -24.5t-6.5 -10t-6 7t-12 25.5zM192 157
v-38h24l9 9l14 -16h-40q6 -23 20 -42.5t26 -24.5l-2 -3q-12 1 -19 -7q-22 30 -29 77h-3v-56q0 -28 1 -41l-16 -6q2 21 2 45v36q-11 -23 -37 -46l-3 3q24 31 33 65q-12 0 -19 -2l-10 9h36v36q-14 -3 -27 -4l-1 4q62 16 65 22l12 -15q-14 -1 -36 -5z" />
  </g>

</svg>
