<?xml version="1.0" standalone="no"?>
<!DOCTYPE svg PUBLIC "-//W3C//DTD SVG 1.1//EN" "http://www.w3.org/Graphics/SVG/1.1/DTD/svg11.dtd" >
<svg xmlns="http://www.w3.org/2000/svg" xmlns:xlink="http://www.w3.org/1999/xlink" version="1.1" viewBox="0 -144 1024 1024">
  <g transform="matrix(1 0 0 -1 0 880)">
   <path fill="currentColor"
d="M775 80l-39 29l-41 26l-45 25l-47 23l-38 15l-43 -32l-68 -36l-78 -30l-90 -24l-100 -17l-110 -10l-1 9l108 21l96 25l85 29l72 34l61 37l16 14l-70 23l-59 17l-54 14l-30 -62l-73 -1l114 231h-308v22h319l57 116l53 -38l10 -17l-19 -3l-29 -58h415l54 54l64 -54v-22
h-265l-8 -59l-23 -64l-35 -57l-26 -29l71 -26l50 -23l46 -25l44 -27l42 -30l11 -22l-8 -24l-21 -11l-24 7zM628 440h-215l-78 -158l52 -4l62 -9l60 -12l38 -10l35 44l26 49l15 54zM761 579l33 -55l-22 -12l-11 -5l-11 -4l-12 -4l-12 -3l-12 -2l-12 -1l-12 -2h-12v32l-108 16
v16h108l18 2l8 1l8 1l9 2l16 6l16 7zM794 524l-10 15v1l-9 15l-2 2v1l-1 1l-11 19v1l15 11l14 12l13 15l11 17l9 20l9 22l7 25l5 27l4 30l1 20h-164l-10 -44l-71 -15l53 198h-212l-11 -62l-19 -64l-24 -59l-30 -52l-37 -47l-42 -41l-48 -35l-52 -28l-58 -21l-63 -14l-3 9
l59 24l51 28l46 31l41 36l34 40l29 44l24 49l19 53l13 59l6 50h-240v21h522l32 27l59 -48l-27 -16l-11 -5l-24 -96h159l32 26l59 -48l-27 -16l-1 -1l-1 -9l-4 -34l-7 -32l-8 -30l-10 -28l-13 -26l-16 -23l-18 -21l-20 -19z" />
  </g>

</svg>
