<?xml version="1.0" standalone="no"?>
<!DOCTYPE svg PUBLIC "-//W3C//DTD SVG 1.1//EN" "http://www.w3.org/Graphics/SVG/1.1/DTD/svg11.dtd" >
<svg xmlns="http://www.w3.org/2000/svg" xmlns:xlink="http://www.w3.org/1999/xlink" version="1.1" viewBox="0 -36 256 256">
  <g transform="matrix(1 0 0 -1 0 220)">
   <path fill="currentColor"
d="M211 192h-141q-24 -38 -58 -62l-2 3q45 46 68 114l22 -12l-10 -6q-4 -8 -17 -30h138l11 12l20 -18q-17 -3 -46 -34l-3 2zM113.5 32q9.5 0 8.5 13v149h15v-160q0 -21 -21 -27q-5 19 -34 23l1 4q21 -2 30.5 -2zM186 132q-13 -8 -38 -25l-2 4q17 15 28 26.5t17 21.5l17 -17
q-9 -2 -22 -10zM208 65q22 -14 18 -28t-15 0t-28.5 28.5t-35.5 25.5l1 4q38 -16 60 -30zM69 70q18 11 43 27l2 -6q-26 -20 -44.5 -32.5t-31.5 -25.5l-14 17q27 9 45 20zM97 134.5q8 -8.5 3.5 -19t-11 0.5t-17 22t-17.5 15l2 4q32 -14 40 -22.5z" />
  </g>

</svg>
