<?xml version="1.0" standalone="no"?>
<!DOCTYPE svg PUBLIC "-//W3C//DTD SVG 1.1//EN" "http://www.w3.org/Graphics/SVG/1.1/DTD/svg11.dtd" >
<svg xmlns="http://www.w3.org/2000/svg" xmlns:xlink="http://www.w3.org/1999/xlink" version="1.1" viewBox="0 -36 256 256">
  <g transform="matrix(1 0 0 -1 0 220)">
   <path fill="currentColor"
d="M74 122q-2 -21 -6 -34t-12 -15.5t-13 0.5t7.5 14.5t19.5 34.5h4zM80 45q20 17 28 46.5t6 56.5l23 -10l-8 -10q4 -18 20 -46q30 31 37 47l17 -15q-10 -3 -23.5 -14.5t-26.5 -21.5q35 -44 93 -49v-3q-22 -5 -23 -14q-71 21 -95 100q-10 -55 -40 -75.5t-72 -26.5v4
q44 14 64 31zM130.5 227.5q49.5 7.5 67.5 15.5l17 -18q-48 -4 -86.5 -7.5t-94.5 -4.5v5q47 2 96.5 9.5zM184 216l24 -15l-12 -4q-17 -22 -29 -37h47l9 11l21 -20q-19 -2 -40 -30l-3 2l14 30h-174q2 -20 -4.5 -26.5t-16.5 -4.5t0.5 14.5t14.5 36.5h4l2 -13h23q-1 6 -4 16.5
t-14 26.5l3 2q15 -10 24.5 -21t-2.5 -24h48q-2 14 -5 23t-12 24l3 2q11 -8 22.5 -21.5t-2.5 -27.5h35q14 23 24 56z" />
  </g>

</svg>
