<?xml version="1.0" standalone="no"?>
<!DOCTYPE svg PUBLIC "-//W3C//DTD SVG 1.1//EN" "http://www.w3.org/Graphics/SVG/1.1/DTD/svg11.dtd" >
<svg xmlns="http://www.w3.org/2000/svg" xmlns:xlink="http://www.w3.org/1999/xlink" version="1.1" viewBox="0 -36 256 256">
  <g transform="matrix(1 0 0 -1 0 220)">
   <path fill="currentColor"
d="M33 246l19 -7l-6 -7v-20h32q0 21 -1 34l19 -8l-6 -6v-20h2l9 10l15 -17h-26q0 -15 1 -32l-13 -5v6h-10v-26h23l6 9l12 -12l-6 -6q0 -22 1 -40l-13 -6v8h-23v-30h20l10 10l16 -17h-46q0 -39 1 -50l-14 -6q1 24 1 56h-19q-10 0 -20 -3l-9 10h48v30h-23v-8l-14 -4q1 10 1 31
t-1 36l15 -8h22v26h-10v-4l-13 -5q1 23 1 40h-8l-7 -3l-9 10h24q0 19 -1 34zM46 181h32v24h-32v-24zM33 108h23v33h-23v-33zM68 108h23v33h-23v-33zM160 219.5q4 -6.5 -2 -15t-10 5.5t-16 28l2 3q22 -15 26 -21.5zM146 86h58l12 11l15 -18h-44v-54h32l12 11l17 -18h-109
q-11 -1 -20 -3l-9 10h64v54h-16l-8 -3l-6 5q-23 -33 -50 -52l-2 3q39 36 55 87h-14q-11 -1 -20 -3l-9 10h61v28h-19q-10 0 -20 -2l-9 9h48v30h-25q-10 0 -20 -2l-9 9h68q7 12 11.5 24t6.5 22l18 -10q-8 -4 -29 -36h28l10 11l17 -18h-63v-30h26l11 11l15 -18h-52v-28h37
l13 10l16 -17h-82q-3 -10 -16 -33z" />
  </g>

</svg>
