<?xml version="1.0" standalone="no"?>
<!DOCTYPE svg PUBLIC "-//W3C//DTD SVG 1.1//EN" "http://www.w3.org/Graphics/SVG/1.1/DTD/svg11.dtd" >
<svg xmlns="http://www.w3.org/2000/svg" xmlns:xlink="http://www.w3.org/1999/xlink" version="1.1" viewBox="0 -205 1024 1024">
  <g transform="matrix(1 0 0 -1 0 819)">
   <path fill="currentColor"
d="M904 900l72 -64q2 -4 2 -10q0 -7 -8 -8h-678v-130h460l46 54l68 -62q2 -4 2 -10q0 -7 -8 -8h-562l-36 -36l-58 50l36 30v112h-116q-34 0 -52 -8l-24 34h810l46 56v0v0zM238 606l56 -36h446l32 42l58 -42q9 -6 10 -14q0 -7 -32 -28v-419q-1 -31 -16 -50q-13 -17 -64 -34
q-9 37 -38 52q-27 13 -90 28l4 20q66 -15 96 -18t42 0q13 1 14 28v137h-466v-106l4 -93q-1 -14 -22 -26t-38 -12l4 123v448v0v0zM290 298h466v110h-466v-110v0v0zM290 434h466v110h-466v-110v0v0zM416 974l6 14q81 -22 114 -40q32 -18 38 -42q7 -21 -4 -38q-9 -19 -30 -16
q-19 2 -26 26q-6 23 -32 50q-24 24 -66 46v0v0z" />
  </g>

</svg>
