<?xml version="1.0" standalone="no"?>
<!DOCTYPE svg PUBLIC "-//W3C//DTD SVG 1.1//EN" "http://www.w3.org/Graphics/SVG/1.1/DTD/svg11.dtd" >
<svg xmlns="http://www.w3.org/2000/svg" xmlns:xlink="http://www.w3.org/1999/xlink" version="1.1" viewBox="0 -205 1024 1024">
  <g transform="matrix(1 0 0 -1 0 819)">
   <path fill="currentColor"
d="M732 538l6 -4q4 -9 -10 -14q-12 -3 -20 -12q-7 -6 -44 -66h198l36 36l46 -40q9 -6 10 -12q0 -6 -30 -26v-244l4 -75q0 -14 -18 -26q-15 -12 -36 -12v60h-294v-36q0 -9 -18 -22q-18 -12 -36 -12l4 113v336l58 -40h54q21 69 30 114l60 -18v0v0zM580 127h294v139h-294v-139
v0v0zM580 292h294v124h-294v-124v0v0zM736 860q48 -22 72 -44q23 -21 26 -42q4 -18 -4 -32q-9 -12 -24 -12q-16 0 -20 22q-4 20 -16 44t-42 54l8 10v0v0zM728 918h164l32 38l54 -44q8 -6 8 -12q1 -7 -28 -20v-210l4 -66q-1 -17 -20 -28q-17 -9 -34 -8v142q-93 -75 -108 -98
q-12 -21 -24 -36l-44 38l176 122v156h-122q-21 -3 -36 -8l-22 34v0v0zM480 860q48 -22 72 -44q23 -21 26 -42q4 -18 -4 -32q-9 -12 -24 -12q-16 0 -20 22q-4 20 -16 44t-42 54l8 10v0v0zM448 918h188l32 38l50 -40q8 -6 8 -12t-24 -24v-210l4 -66q-1 -17 -20 -28
q-17 -9 -34 -8v142q-93 -75 -108 -98q-12 -21 -24 -36l-52 34l184 126v156h-146q-21 -3 -36 -8l-22 34v0v0zM146 904h206l38 44l56 -56q2 0 2 -6q0 -10 -8 -10h-142v-116h36l36 40l54 -50q3 -4 4 -8q0 -9 -8 -8h-122v-108h42l34 40l50 -50q2 -4 2 -8q0 -9 -8 -8h-120v-124
h86l20 28l54 -36q12 -10 -6 -22l-14 -10q1 -120 -4 -206q-3 -84 -12 -111q-10 -26 -28 -44t-56 -34q-6 27 -26 42q-20 13 -94 34l4 20q44 -9 74 -16q30 -4 48 -2q18 4 30 33q12 30 12 102q2 71 2 194h-240v-12q1 -9 -16 -18q-20 -15 -40 -14l4 136v404l50 -40v0v0zM148 476
h100v124h-100v-124v0v0zM148 626h100v108h-100v-108v0v0zM248 760v116h-100v-116h100v0v0zM94 380h18q7 -102 2 -140q-4 -39 -20 -56q-14 -15 -34 -18q-21 -4 -26 14q-7 17 10 34q17 18 28 42t22 124v0v0zM198 392l12 8q55 -60 68 -90q11 -28 8 -44q-3 -15 -14 -24
q-12 -10 -24 -4t-12 24t-6 48q-4 27 -32 82v0v0zM274 410l10 10q42 -44 60 -76q17 -31 14 -52q-3 -20 -14 -28q-12 -10 -24 -4q-12 5 -12 28q1 21 -4 46q-6 24 -30 76v0v0zM134 372l14 6q38 -57 50 -90q9 -33 6 -50q-3 -19 -18 -28t-26 -2q-13 6 -10 30q1 21 2 48
q0 25 -18 86v0v0z" />
  </g>

</svg>
