<?xml version="1.0" standalone="no"?>
<!DOCTYPE svg PUBLIC "-//W3C//DTD SVG 1.1//EN" "http://www.w3.org/Graphics/SVG/1.1/DTD/svg11.dtd" >
<svg xmlns="http://www.w3.org/2000/svg" xmlns:xlink="http://www.w3.org/1999/xlink" version="1.1" viewBox="0 -36 256 256">
  <g transform="matrix(1 0 0 -1 0 220)">
   <path fill="currentColor"
d="M108 164h37q1 13 1 27h-38v-27zM159 164h38v27h-37q0 -6 -1 -27zM211 177q0 -14 1 -26l-15 -4v10h-39q-1 -12 -11 -25q14 -7 39 -12t62 -3v-4q-15 -1 -20 -13q-59 6 -89 24q-12 -7 -31 -12.5t-34 -7.5v4q19 5 34 11.5t20 11.5q-7 8 -19 25l3 2q13 -14 24 -20q6 8 8 19
h-36v-5l-14 -4q1 15 1 29.5t-1 25.5l14 -5h38v13h-43q-10 0 -20 -2l-9 9h72q0 17 -1 27l21 -7l-6 -7v-13h46l13 11l15 -18h-74v-13h37l8 8l13 -12l-7 -5v-12zM70 104l-15 -4q1 12 1 30v63q-19 -20 -46 -36l-2 3q26 22 43 47.5t23 40.5l18 -13l-8 -3q-14 -22 -22 -31l13 -7
l-5 -6v-84zM135 87v-27h55v26h-54h-1v1zM68 60h53v26h-53v-26zM121 53h-53v-7l-15 -5l1 15v24l-1 19l15 -6h53v12l-1 12l21 -8l-6 -7v-9h54l7 9l15 -12l-7 -6v-13v-11l1 -8l-15 -5v6h-55v-25q42 1 63 3q-13 9 -27 15l2 3q55 -15 59.5 -22.5t2 -15t-10.5 0t-18 13.5
q-83 -7 -124.5 -10t-51.5 -7l-11 17q32 0 102 3v25z" />
  </g>

</svg>
