<?xml version="1.0" standalone="no"?>
<!DOCTYPE svg PUBLIC "-//W3C//DTD SVG 1.1//EN" "http://www.w3.org/Graphics/SVG/1.1/DTD/svg11.dtd" >
<svg xmlns="http://www.w3.org/2000/svg" xmlns:xlink="http://www.w3.org/1999/xlink" version="1.1" viewBox="0 -205 1024 1024">
  <g transform="matrix(1 0 0 -1 0 819)">
   <path fill="currentColor"
d="M841 901q12 -11 12 -16t-27 -12v-125q0 -43 0 -42q-1 -4 -22 -15q-10 -6 -16 -6q-7 0 -5 39h-334q2 -28 1 -31q-3 -2 -23 -13q-13 -6 -17 -6t-6 4v16q2 18 2 27v171l-5 36l51 -25h319l14 15q14 13 16 14t13 -8zM939 652q7 -9 7 -14q0 -4 -23 -11v-153q0 -33 -0.5 -34
t-23.5 -12q-12 -5 -14 -5q-9 0 -6 44h-187q0 -30 -1 -32t-22 -13q-12 -5 -15 -5q-6 0 -7 15q1 -21 1 50l-3 199l46 -21h176l16 20q9 11 11 11q3 0 15 -10zM604 655q9 -9 9 -15q0 -5 -21 -13v-139v-38q-1 -2 -25 -13q-9 -4 -14 -4q-6 0 -6 9q0 -4 1 29h-194q0 -33 -1 -35.5
t-23 -13.5q-11 -4 -14 -4q-5 0 -6 6t-1 21q1 28 1 39l-2 194l45 -18h184l15 20q10 12 11 12q3 0 14 -11zM783 823v61h-147v-61h147zM783 745v57h-147v-57h147zM592 823v61h-143v-61h143zM879 570v69h-72v-69h72zM592 745v57h-143v-57h143zM763 570v69h-71v-69h71zM879 488
v61h-72v-61h72zM763 488v61h-71v-61h71zM548 573v66h-75v-66h75zM430 573v66h-76v-66h76zM548 491v61h-75v-61h75zM430 491v61h-76v-61h76zM825 376q-1 -36 -16 -36q-10 0 -23 19q-32 47 -77 72l8 11q48 -16 68 -27q34 -12 40 -39zM952 107l-3 -13q-29 7 -43 -11
q-10 -13 -13 -13q-10 0 -45 19q-168 81 -228 212q-37 -93 -110 -150t-210 -80l-10 11q120 26 183.5 81.5t100.5 149.5h-257v18h263q7 36 1 92l56 -10q19 -3 19 -13q0 -12 -25 -23q0 -12 -0.5 -22t-2.5 -24h216l21 26q12 13 15 13t14 -10l40 -33l-7 -14h-293
q77 -153 318 -206zM259 840q2 -10 2 -18q0 -25 -12 -25q-10 0 -20 16q-36 60 -102 106l6 9q60 -23 84 -39q32 -19 42 -49zM196 634q2 -35 -15 -35q-11 0 -21 19q-26 48 -97 97l9 12q69 -33 88 -46q31 -18 36 -47zM325 826l-121 -427q-17 -48 -17 -90q0 -40 19 -93
q20 -57 22 -81q4 -52 -28 -52q-24 0 -35 36q-5 18 -5 46q0 12 1 35.5t1 35.5q0 57 -20 88q-17 23 -74 36l3 15q53 -2 69 5t35 38l136 413z" />
  </g>

</svg>
