<?xml version="1.0" standalone="no"?>
<!DOCTYPE svg PUBLIC "-//W3C//DTD SVG 1.1//EN" "http://www.w3.org/Graphics/SVG/1.1/DTD/svg11.dtd" >
<svg xmlns="http://www.w3.org/2000/svg" xmlns:xlink="http://www.w3.org/1999/xlink" version="1.1" viewBox="0 -36 256 256">
  <g transform="matrix(1 0 0 -1 0 220)">
   <path fill="currentColor"
d="M58 102h76l23 13h-71q-20 -10 -28 -13zM59 80h63v15h-63v-15zM137 80h66v15h-66v-15zM59 58h63v15h-63v-15zM137 58h66v15h-66v-15zM111 130q-12 -5 -17 -8h66l8 6l19 -13q-11 1 -44 -13h59l9 9l15 -11l-8 -6q0 -33 1 -45l-16 -5v7h-144v-4l-16 -3q1 11 1 50
q-14 -6 -31 -12l-1 4q20 9 42 23.5t37 30.5zM208 44q22 -7 32 -13t4.5 -15.5t-11.5 1t-28 25.5zM41 44q0 -20 -8 -28t-19.5 -6t1.5 10t22 24h4zM102.5 28q5.5 -9 -2 -16.5t-10.5 4.5t-13 27l3 1q17 -7 22.5 -16zM172.5 27q5.5 -6 -1.5 -14t-12 4.5t-19 25.5l3 2
q24 -12 29.5 -18zM90 242l13 -10l-7 -6v-68q1 -15 -18 -21q-1 10 -19 13v4q24 -4 24 5v18h-33q-4 -27 -38 -49l-2 2q20 20 25 38t2 75l14 -8h32zM51 211h32v17h-32v-17zM51 184h32v20h-32v-20zM135 197h17v30h-17v-30zM212 146.5q5 -0.5 4 11.5q0 75 -1 87l20 -9l-6 -6v-82
q0 -12 -19 -19q-2 10 -23 15v4q20 -1 25 -1.5zM189 195q0 17 -1 29l20 -8l-7 -6q0 -35 1 -46l-14 -4q1 14 1 33v2zM188 190h-24q0 -44 1 -51l-14 -4q1 11 1 55h-17q0 -18 -7.5 -30.5t-31.5 -25.5l-3 3q15 11 22 22.5t8 30.5h-8l-7 -3l-9 10h24v30h-2l-7 -3l-8 10h54l11 10
l13 -17h-20v-30h2l11 9z" />
  </g>

</svg>
