<?xml version="1.0" standalone="no"?>
<!DOCTYPE svg PUBLIC "-//W3C//DTD SVG 1.1//EN" "http://www.w3.org/Graphics/SVG/1.1/DTD/svg11.dtd" >
<svg xmlns="http://www.w3.org/2000/svg" xmlns:xlink="http://www.w3.org/1999/xlink" version="1.1" viewBox="0 -36 256 256">
  <g transform="matrix(1 0 0 -1 0 220)">
   <path fill="currentColor"
d="M128 110v39q-10 -10 -23 -17l-2 3q31 31 48 67h-11q-10 0 -20 -2l-9 9h43q10 24 12 39l18 -13l-7 -4q-4 -13 -9 -22h42l14 11l16 -18h-54q26 -40 62 -48v-4q-11 0 -18 -10q-8 5 -13 9l-4 -5v-31q0 -17 1 -32l-14 -6v7h-24v-23q0 -9 10 -9h20q12 0 17 1.5t6.5 2t6.5 -4
t2.5 -7.5t-18.5 -4h-39q-18 0 -18 14v30h-22v-5l-14 -5q1 19 1 38zM176 114v-25h24v25h-24zM176 146v-25h24v25h-24zM141 121h22v25h-22v-25zM141 114v-25h22v25h-22zM162 182l20 -8l-6 -6v-15h24l7 8l6 -6q-18 16 -31 47h-17q-11 -22 -28 -43l3 -6h23q0 15 -1 29zM61 198
q0 29 -1 48l20 -10l-6 -8v-30h14l10 10l13 -17h-37v-40h17l11 12l14 -19h-47l17 -8l-7 -6v-28h13l11 11l13 -18h-37v-49q20 -14 58 -18t111 4v-4q-15 -3 -17 -15q-51 -1 -85 0.5t-60.5 15.5t-44.5 37q-7 -30 -31 -58l-3 3q16 26 22 55.5t5 57.5l19 -9l-5 -7q-1 -17 -4 -36
q9 -11 22 -19v58v18l-1 15h-28q-9 0 -17 -2l-8 9h49v40h-11q-9 0 -18 -2l-7 9h36z" />
  </g>

</svg>
