<?xml version="1.0" standalone="no"?>
<!DOCTYPE svg PUBLIC "-//W3C//DTD SVG 1.1//EN" "http://www.w3.org/Graphics/SVG/1.1/DTD/svg11.dtd" >
<svg xmlns="http://www.w3.org/2000/svg" xmlns:xlink="http://www.w3.org/1999/xlink" version="1.1" viewBox="0 -36 256 256">
  <g transform="matrix(1 0 0 -1 0 220)">
   <path fill="currentColor"
d="M217 225l17 -19h-79q36 -38 93 -45v-4q-17 -2 -19 -11q-50 14 -80 60h-42q-31 -41 -98 -71l-1 5q54 30 84 66h-44q-11 0 -20 -2l-9 9h77q11 16 17 34l21 -12l-10 -3q-6 -9 -12 -19h93zM131 184l-11 -3l-10 -14h57l5 8l17 -11l-7 -8v-14q0 -16 1 -31l-15 -5v7h-92v-16h127
l11 13l17 -20h-155v-17h128l6 11l17 -14l-7 -5q-4 -32 -10 -42t-21 -16q-1 10 -22 14v6q26 -4 30.5 3.5t7.5 35.5h-129v-3l-15 -5q1 17 1 37v44q0 19 -1 37l16 -9h24q6 15 9 28zM76 160v-17h92v17h-92zM76 136v-16h92v16h-92zM55 59h4q-1 -32 -9.5 -38.5t-14 -1.5t4.5 12.5
t15 27.5zM81 60q20 -17 17 -26.5t-8.5 -9.5t-5 9.5t-7.5 24.5zM117 62q18 -13 20.5 -21t-5 -14.5t-8.5 6t-10 27.5zM151 61l3 4q21 -12 22.5 -20t-4 -13t-7 2.5t-4.5 12.5t-10 14z" />
  </g>

</svg>
