<?xml version="1.0" standalone="no"?>
<!DOCTYPE svg PUBLIC "-//W3C//DTD SVG 1.1//EN" "http://www.w3.org/Graphics/SVG/1.1/DTD/svg11.dtd" >
<svg xmlns="http://www.w3.org/2000/svg" xmlns:xlink="http://www.w3.org/1999/xlink" version="1.1" viewBox="0 -205 1024 1024">
  <g transform="matrix(1 0 0 -1 0 819)">
   <path fill="currentColor"
d="M762 834v-670q-1 -41 14 -49q14 -5 44 -8h52q24 4 40 16q14 9 20 41q6 29 10 140h18q5 -109 14 -130q6 -22 28 -35q-18 -42 -42 -58q-21 -15 -60 -18h-110q-42 0 -60 18q-16 19 -16 63v690h-136v-284q-1 -232 -74 -346q-72 -113 -218 -181l-6 16q141 88 192 193
q50 105 56 294v308h-122q-12 -1 -30 -8l-24 34h514l38 48l64 -60q3 -13 -6 -14h-200v0v0zM32 742h174v238l82 -32q12 -6 4 -14l-34 -16v-176h84l40 44l50 -54q12 -15 -8 -18h-166v-180l138 82l10 -16l-148 -108v-365q2 -36 -16 -64q-19 -24 -64 -40q-6 36 -36 50
q-28 15 -76 32l4 16q94 -26 116 -20q20 6 20 32v329q-81 -63 -96 -80q-12 -15 -30 -36l-54 54l180 108v206h-102q-21 -1 -50 -10l-22 38v0v0z" />
  </g>

</svg>
