<?xml version="1.0" standalone="no"?>
<!DOCTYPE svg PUBLIC "-//W3C//DTD SVG 1.1//EN" "http://www.w3.org/Graphics/SVG/1.1/DTD/svg11.dtd" >
<svg xmlns="http://www.w3.org/2000/svg" xmlns:xlink="http://www.w3.org/1999/xlink" version="1.1" viewBox="0 -205 1024 1024">
  <g transform="matrix(1 0 0 -1 0 819)">
   <path fill="currentColor"
d="M442 704l52 -42h264l30 44l60 -40q12 -3 12 -12q0 -3 -32 -30v-503h52l38 55l72 -61q3 -3 4 -10q1 -12 -10 -12h-614q-18 1 -54 -8l-18 36h144v583v0v0zM496 121h280v167h-280v-167v0v0zM496 314h280v152h-280v-152v0v0zM496 492h280v144h-280v-144v0v0zM62 836h288v130
l84 -30q18 -7 0 -16l-32 -14v-70h218v126l82 -30q19 -7 2 -16l-32 -14v-66h190l42 54l70 -64q3 -3 4 -6q1 -10 -12 -10h-294v-22l4 -38q1 -15 -18 -26q-21 -12 -42 -12l4 64v34h-218v-26l4 -44q0 -15 -20 -26q-22 -12 -40 -12l4 84v24h-204q-24 0 -60 -8l-24 34v0v0z
M366 644l20 -8q-143 -325 -154 -352q-10 -27 -8 -54q0 -25 6 -68q3 -40 4 -59q0 -18 -12 -30t-30 -10q-19 4 -26 22q-6 17 4 55q9 39 12 72q2 33 -4 46q-7 12 -26 18t-80 16l2 20q83 -7 100 2q15 5 30 26q15 18 162 304v0v0zM152 724l8 12q66 -24 94 -42q26 -18 38 -38
q10 -19 2 -40q-7 -22 -28 -22q-19 0 -26 22q-6 22 -20 44q-15 21 -68 64v0v0zM62 578l8 12q66 -25 94 -40q26 -15 40 -36q12 -18 4 -42q-10 -22 -28 -22q-19 0 -26 22q-6 22 -20 44q-15 22 -72 62v0v0z" />
  </g>

</svg>
