<?xml version="1.0" standalone="no"?>
<!DOCTYPE svg PUBLIC "-//W3C//DTD SVG 1.1//EN" "http://www.w3.org/Graphics/SVG/1.1/DTD/svg11.dtd" >
<svg xmlns="http://www.w3.org/2000/svg" xmlns:xlink="http://www.w3.org/1999/xlink" version="1.1" viewBox="0 -205 1024 1024">
  <g transform="matrix(1 0 0 -1 0 819)">
   <path fill="currentColor"
d="M888 968l60 -58q2 -6 2 -8q0 -7 -8 -8h-750v-524h652l36 50l60 -60q3 -4 4 -8q0 -9 -8 -8h-738l-32 -32l-58 48l36 28v578l64 -46h640l40 48v0v0zM248 794h156v88l66 -22q6 -3 6 -6q7 -4 -24 -22v-38h214v90l76 -26q6 -3 4 -12q0 -3 -32 -14v-38h88l34 40l50 -50
q2 0 2 -6q0 -7 -12 -8h-162v-28l4 -26q-1 -13 -20 -20q-15 -7 -36 -8l4 50v32h-214v-20l4 -34q-1 -13 -20 -22q-18 -10 -36 -10l4 62v24h-72q-18 0 -66 -8l-18 32v0v0zM360 244v-76q0 -43 24 -49q25 -6 68 -10h170q30 0 42 6q12 4 18 16q6 11 12 37q3 24 6 88h22
q3 -63 6 -92q5 -26 28 -35q-12 -29 -36 -46q-21 -15 -74 -18h-220q-52 4 -82 16q-30 13 -32 69v160l68 -32q16 -7 8 -14q-7 -7 -28 -20v0v0zM216 282q-3 -66 -18 -102q-12 -35 -32 -57q-20 -21 -40 -28q-21 -7 -36 -6q-15 3 -18 20q-4 18 14 30q15 8 36 21q19 12 38 34
q20 21 38 88h18v0v0zM464 322q75 -25 102 -44q26 -18 32 -42q6 -22 -6 -34q-9 -14 -24 -12t-24 28q-10 23 -26 44q-15 18 -60 48l6 12v0v0zM792 276q60 -36 94 -60q33 -25 46 -46q13 -19 14 -35q0 -15 -8 -30q-9 -12 -26 -10q-18 3 -24 30q-7 26 -28 57q-21 27 -74 82l6 12
v0v0zM216 664h234q42 39 72 84l56 -30q3 -7 -2 -10q-5 -1 -16 -4q-12 -3 -26 -18l-28 -22h356l38 44l52 -50q3 -3 4 -6q0 -12 -12 -12h-458q-36 -30 -56 -48l18 -12h276l22 24l48 -32q9 -6 10 -14q0 -4 -24 -20v-80l4 -22q0 -15 -20 -24q-19 -6 -32 -6v42h-280v-16
q0 -12 -12 -20q-12 -7 -38 -10l4 84v86q-111 -85 -180 -118l-8 12q78 58 120 92q40 32 92 82h-142q-21 0 -56 -8l-16 32v0v0zM452 472h280v84h-280v-84v0v0z" />
  </g>

</svg>
