<?xml version="1.0" standalone="no"?>
<!DOCTYPE svg PUBLIC "-//W3C//DTD SVG 1.1//EN" "http://www.w3.org/Graphics/SVG/1.1/DTD/svg11.dtd" >
<svg xmlns="http://www.w3.org/2000/svg" xmlns:xlink="http://www.w3.org/1999/xlink" version="1.1" viewBox="0 -205 1024 1024">
  <g transform="matrix(1 0 0 -1 0 819)">
   <path fill="currentColor"
d="M124 852l82 -34q7 -3 8 -6q1 -6 -4 -12l-34 -20v-616l4 -87q0 -14 -24 -26q-21 -12 -36 -10l4 121v690v0v0zM872 944l64 -48q7 -4 8 -10q0 -6 -14 -14q-22 -10 -22 -34v-703q3 -44 -18 -68q-18 -21 -62 -36q-10 31 -28 40q-15 9 -96 36l4 18q71 -15 98 -18q24 -3 36 6
q12 8 12 28v733h-366q-18 -1 -48 -10l-32 38h434l30 42v0v0zM200 988q87 -45 114 -72q26 -28 28 -50q1 -22 -10 -34q-9 -10 -26 -8q-15 0 -24 28q-7 24 -22 52q-15 24 -68 72l8 12v0v0zM570 788q9 -3 4 -12q0 -1 -6 -4l-28 -14v-360h122l34 36l58 -44q3 0 4 -6
q0 -12 -12 -12h-206v-142h188l34 40l66 -46q3 -4 4 -8q0 -12 -12 -12h-528q-21 0 -68 -8l-16 34h284v142h-118q-21 0 -68 -8l-16 34h202v418l78 -28v0v0zM232 442q78 114 130 286l66 -28q7 -6 2 -14q-13 -4 -20 -8q-6 -4 -18 -22q-9 -18 -24 -42q47 -31 74 -58
q26 -28 26 -50q0 -20 -12 -28q-12 -7 -24 -4q-11 3 -16 24q-4 18 -16 46q-11 24 -40 52q-49 -94 -118 -164l-10 10v0v0zM554 458q70 123 116 264l68 -28q7 -6 2 -14q-13 -4 -20 -8q-6 -4 -18 -16q-10 -10 -22 -34q68 -48 94 -80q26 -31 26 -52q-1 -20 -14 -28
q-12 -10 -24 -4q-11 3 -16 24q-6 19 -18 50q-11 30 -58 72q-30 -63 -102 -152l-14 6v0v0z" />
  </g>

</svg>
