<?xml version="1.0" standalone="no"?>
<!DOCTYPE svg PUBLIC "-//W3C//DTD SVG 1.1//EN" "http://www.w3.org/Graphics/SVG/1.1/DTD/svg11.dtd" >
<svg xmlns="http://www.w3.org/2000/svg" xmlns:xlink="http://www.w3.org/1999/xlink" version="1.1" viewBox="0 -205 1024 1024">
  <g transform="matrix(1 0 0 -1 0 819)">
   <path fill="currentColor"
d="M406 360q6 -3 6 -6q1 -7 -10 -10q-22 -4 -38 -40q-63 -125 -104 -181l-14 8q35 71 100 259l60 -30v0v0zM514 372q44 -36 68 -54q21 -19 36 -40q12 -19 18 -38q3 -19 -2 -32q-4 -12 -16 -18t-26 0q-13 3 -16 34q-2 30 -22 64q-19 33 -50 76l10 8v0v0zM578 898q8 -3 8 -12
q0 -3 -12 -8q-13 -4 -22 -10q-39 -55 -68 -100q42 -30 66 -56q24 -24 30 -48q3 -24 -8 -36q-10 -14 -26 -12q-16 3 -26 30q-9 26 -24 46q-13 20 -34 44q-82 -103 -134 -148l-12 10q44 60 116 162q-49 47 -110 110l10 10q63 -42 118 -86q36 60 70 136l58 -32v0v0zM844 932
l48 -36q9 -6 10 -12q-1 -1 -34 -26v-194q0 -28 18 -28h42q9 2 18 8q6 6 10 6q35 -37 38 -38q-3 -6 -18 -14q-16 -6 -44 -6h-48q-21 0 -32 6q-12 3 -20 16q-10 12 -10 40v220h-100v-120q-9 -147 -102 -210l-12 10q64 72 68 210v174l50 -38h94l24 32v0v0zM872 538l60 -44
q7 -3 2 -8q-3 -6 -14 -14l-18 -12q-29 -108 -52 -164q-24 -54 -42 -80q33 -52 84 -89q48 -35 106 -50v-18q-40 1 -58 -2q-17 -2 -34 -26q-36 34 -66 70q-29 35 -58 79q-42 -49 -108 -99q-66 -49 -134 -78l-8 16q66 39 124 86q57 47 102 113q-21 42 -44 114q-24 72 -38 148
h-32l-12 -6l-22 32h236l26 32v0v0zM704 480q36 -165 78 -228q26 39 74 228h-152v0v0zM302 484h132v124l68 -26q7 -4 6 -10q0 -6 -26 -18v-70h50l30 44l44 -50q3 -4 4 -10q0 -10 -12 -10h-116v-331q3 -45 -14 -66q-16 -20 -52 -32q-7 24 -28 42t-62 32l4 14q45 -9 66 -12
q18 -3 30 0q10 5 8 55v298h-66q-21 0 -42 -8l-24 34v0v0zM28 718h136v234l78 -32q9 -7 10 -10q3 -6 -12 -12l-28 -16v-164h38l26 40l52 -48q2 -3 2 -8q0 -12 -12 -12h-106v-64q39 -19 60 -34q21 -16 30 -34q9 -19 4 -34q-6 -15 -20 -20q-13 -3 -22 6q-7 8 -14 38
q-6 28 -38 56v-456l4 -99q0 -12 -18 -24t-38 -12l4 139v370q-16 -71 -58 -160q-41 -90 -76 -126l-12 8q22 45 56 132q33 87 54 162q18 74 28 152h-44q-21 0 -68 -8l-16 36v0v0z" />
  </g>

</svg>
