<?xml version="1.0" standalone="no"?>
<!DOCTYPE svg PUBLIC "-//W3C//DTD SVG 1.1//EN" "http://www.w3.org/Graphics/SVG/1.1/DTD/svg11.dtd" >
<svg xmlns="http://www.w3.org/2000/svg" xmlns:xlink="http://www.w3.org/1999/xlink" version="1.1" viewBox="0 -205 1024 1024">
  <g transform="matrix(1 0 0 -1 0 819)">
   <path fill="currentColor"
d="M570 784l32 42l58 -46q3 -4 4 -10q0 -12 -12 -12h-304q-21 0 -56 -8l-16 34h294v0v0zM342 702l48 -36h148l28 34l48 -36q6 -4 6 -8q-1 -6 -22 -26v-114l4 -78q-1 -9 -16 -20q-12 -10 -36 -14v46h-58v-302q2 -42 -16 -69q-17 -25 -52 -32q-10 36 -34 48q-21 10 -72 28
l4 16l72 -18q25 -5 38 -2q15 4 12 33v298h-54v-10q0 -13 -18 -26q-19 -10 -34 -10l4 110v188v0v0zM390 474h160v168h-160v-168v0v0zM390 962l8 10q62 -37 86 -64t28 -48q3 -19 -6 -34q-10 -14 -28 -12q-19 0 -22 22q-4 20 -10 44q-6 21 -56 82v0v0zM414 328q3 -4 4 -10
q0 -3 -12 -6q-16 -3 -26 -18l-40 -60q-30 -46 -96 -123l-10 12q69 98 120 237l60 -32v0v0zM508 360l8 12q68 -34 94 -58q23 -24 26 -42q3 -19 -8 -32q-9 -13 -24 -10q-16 2 -22 28q-6 23 -18 44q-12 20 -56 58v0v0zM628 670h86v72v224l80 -30q6 -4 6 -10q0 -4 -36 -20v-164
v-72h116l38 48l58 -52q3 -3 4 -8q0 -12 -12 -12h-136v-504q-1 -22 26 -23h38q27 0 34 18q5 13 8 35q0 17 4 116h18q5 -82 10 -106q2 -27 32 -43q-11 -29 -28 -44q-16 -15 -52 -22h-68q-37 1 -52 16t-18 51v506h-22q-3 -135 -26 -266q-21 -132 -74 -210q-52 -78 -142 -155
l-10 16q95 102 130 173q36 72 54 180q15 108 22 262h-30q-18 0 -42 -8l-16 32v0v0zM820 894l8 10q66 -29 90 -52q24 -24 28 -44q4 -21 -6 -36q-9 -14 -26 -12q-15 3 -20 24q-5 20 -16 44q-10 21 -58 66v0v0zM150 972l76 -30q5 -4 8 -10q0 -3 -6 -8l-30 -18v-134
q48 -24 76 -44q27 -21 36 -44t0 -40q-9 -16 -26 -16q-16 -1 -22 26q-6 23 -18 44q-10 18 -46 52v-588l4 -107q0 -12 -20 -24q-18 -12 -36 -10l4 135v816v0v0zM84 722h20q3 -63 0 -114q-1 -48 -20 -72q-17 -24 -40 -26q-22 -2 -28 12q-6 12 6 28q10 16 20 26q9 9 22 36
q11 28 20 110v0v0z" />
  </g>

</svg>
