<?xml version="1.0" standalone="no"?>
<!DOCTYPE svg PUBLIC "-//W3C//DTD SVG 1.1//EN" "http://www.w3.org/Graphics/SVG/1.1/DTD/svg11.dtd" >
<svg xmlns="http://www.w3.org/2000/svg" xmlns:xlink="http://www.w3.org/1999/xlink" version="1.1" viewBox="0 -205 1024 1024">
  <g transform="matrix(1 0 0 -1 0 819)">
   <path fill="currentColor"
d="M308 774h116l38 40l50 -48q3 -3 4 -8q2 -10 -10 -10h-198v-22q65 -23 116 -46q50 -24 64 -48q12 -24 4 -42q-7 -16 -22 -16q-15 -1 -30 22q-15 22 -36 44q-21 21 -96 64v-42l4 -36q0 -13 -18 -28q-19 -12 -34 -14l4 76v56q-41 -51 -88 -96q-48 -43 -120 -92l-8 12
q60 57 108 108q45 51 78 100h-108q-21 0 -56 -8l-16 34h210v186l68 -28q3 -1 4 -2q9 -6 0 -12l-28 -16v-128v0v0zM332 792q38 68 68 134l50 -22q9 -6 4 -12q-3 -3 -20 -14q-17 -9 -88 -92l-14 6v0v0zM114 920q56 -28 80 -46q21 -18 22 -38q0 -22 -8 -34q-9 -13 -24 -10
q-15 2 -20 28q-3 23 -18 44q-13 18 -40 46l8 10v0v0zM552 768l58 -26h44l38 138h-118q-31 -3 -46 -12l-34 38h398l36 50l58 -58q12 -12 -8 -18h-232l-66 -138h166l28 34l62 -38q6 -6 6 -8q0 -6 -36 -30v-370l4 -82q0 -13 -18 -22q-15 -8 -36 -10v58h-256v-12q0 -25 -20 -34
q-19 -10 -32 -10l4 106v444v0v0zM600 300h256v124h-256v-124v0v0zM600 450h256v118h-256v-118v0v0zM600 594h256v122h-256v-122v0v0zM420 31q124 78 230 189l56 -40q9 -7 -2 -16q-28 -1 -40 -8q-11 -5 -64 -43q-51 -37 -170 -98l-10 16v0v0zM758 204l8 14q87 -37 136 -64
q45 -23 64 -51q16 -25 8 -44q-9 -18 -26 -18q-15 -1 -30 22q-13 22 -46 56q-30 31 -114 85v0v0zM286 530q-9 0 -18 -6q-7 -4 -32 -22q-24 -18 -84 -62l138 6q41 31 94 86q57 -40 58 -46t-4 -6t-16 -2q-12 0 -32 -12q-18 -9 -84 -54q-63 -43 -156 -92l264 2q-22 36 -62 66
l8 12q54 -22 88 -46q32 -24 38 -50q3 -25 -8 -38q-10 -10 -22 -10q-12 2 -18 16q-4 12 -14 30l-118 -8v-191q4 -39 -10 -58q-13 -20 -50 -32q-11 30 -40 44q-27 12 -72 24l4 18q69 -15 96 -18q26 -1 26 22v187q-55 -3 -94 -8q-39 -6 -62 -18l-28 64q32 -1 52 10
q53 26 140 88q-59 -5 -94 -10q-35 -3 -64 -20l-18 58q27 -1 48 10q54 45 100 106l58 -26q6 -4 0 -8q-3 -3 -12 -6v0v0zM24 83q80 80 136 173l54 -30q9 -7 -2 -16q-6 0 -18 -2q-10 -4 -46 -40t-114 -97l-10 12v0v0zM348 252l8 12q56 -27 88 -48q32 -18 44 -42q9 -25 4 -41
q-6 -18 -24 -22q-19 -1 -28 22q-6 19 -24 47q-18 27 -68 72v0v0z" />
  </g>

</svg>
