<?xml version="1.0" standalone="no"?>
<!DOCTYPE svg PUBLIC "-//W3C//DTD SVG 1.1//EN" "http://www.w3.org/Graphics/SVG/1.1/DTD/svg11.dtd" >
<svg xmlns="http://www.w3.org/2000/svg" xmlns:xlink="http://www.w3.org/1999/xlink" version="1.1" viewBox="0 -205 1024 1024">
  <g transform="matrix(1 0 0 -1 0 819)">
   <path fill="currentColor"
d="M24 518q62 26 118 70q56 42 80 96q23 52 26 188v100q78 -24 84 -30q4 -6 -4 -12q-9 -4 -32 -16q2 -82 -10 -176q77 57 146 132q64 -51 62 -60q-1 -7 -8 -8h-24q-15 0 -50 -18q-33 -18 -128 -72l-6 -12q74 -19 118 -40q45 -18 66 -42t22 -48q-1 -23 -22 -28q-19 -4 -32 16
q-12 18 -30 42q-17 24 -40 40q-24 15 -90 42q-28 -72 -94 -116q-65 -42 -148 -66l-4 18v0v0zM142 858h20q3 -84 -8 -120q-11 -35 -28 -52q-17 -16 -40 -16q-22 -2 -28 18q-7 18 20 34q24 15 42 48q18 30 22 88v0v0v0zM18 85q92 53 136 109q41 53 62 110q20 56 28 202v80
l82 -30q6 -9 0 -14q-7 -3 -32 -18q3 -40 -14 -154q94 63 146 126q64 -49 62 -56q-1 -7 -8 -8h-24q-15 0 -50 -18q-33 -17 -132 -70l-4 -20q50 -24 100 -54q47 -30 68 -56q18 -25 16 -50q-3 -24 -24 -29q-19 -2 -32 17l-22 44q-10 20 -40 50q-31 30 -70 58q-24 -71 -78 -130
q-54 -56 -164 -105l-6 16v0v0zM134 472h20q-1 -97 -14 -134q-12 -37 -32 -56q-18 -18 -42 -18q-21 -2 -30 18q-7 17 20 32q28 14 50 50q20 33 28 108v0v0v0zM528 960l64 -46h248l34 46l66 -50q6 -6 6 -8q1 -7 -34 -28v-368l4 -116q0 -20 -18 -28q-19 -8 -38 -10v54h-50v-264
q0 -28 6 -35q4 -8 32 -8h60q21 0 28 18q3 16 6 29q3 14 6 122h20q0 -83 10 -112q9 -25 30 -35q-3 -21 -20 -42q-15 -20 -56 -26h-106q-36 0 -50 12q-13 12 -16 56v285h-84q4 -102 -22 -180q-28 -77 -94 -127q-66 -47 -186 -82l-8 18q93 33 154 80q60 46 84 113q22 65 20 178
h-42v-38q-4 -12 -26 -20q-19 -9 -32 -8l4 158v462v0v0zM580 432h280v138h-280v-138v0v0zM580 598h280v134h-280v-134v0v0zM580 758h280v130h-280v-130v0v0z" />
  </g>

</svg>
