<?xml version="1.0" standalone="no"?>
<!DOCTYPE svg PUBLIC "-//W3C//DTD SVG 1.1//EN" "http://www.w3.org/Graphics/SVG/1.1/DTD/svg11.dtd" >
<svg xmlns="http://www.w3.org/2000/svg" xmlns:xlink="http://www.w3.org/1999/xlink" version="1.1" viewBox="0 -36 256 256">
  <g transform="matrix(1 0 0 -1 0 220)">
   <path fill="currentColor"
d="M39 95h65v19h-65v-19zM67 214q-1 15 -12 29l2 2q20 -8 22.5 -15.5t-4.5 -15.5h30l12 12l14 -19h-89q-9 2 -18 -1l-7 8h50zM50 171q-1 16 -12 31l2 2q19 -10 22 -17t-5 -16h22q10 25 12 37l16 -10q-9 -6 -23 -27h22l13 12l15 -19h-98q-10 2 -19 -2l-8 9h41zM79 14l-14 -5
q1 20 1 49h-31q-11 2 -19 -2l-8 9h58v23h-27v-5l-14 -4q1 18 1 37t-1 40l14 -8h63l7 10l14 -11l-6 -6q0 -36 1 -56l-14 -5v8h-25v-23h22l13 13l16 -20h-51v-44zM39 121h65v20h-65v-20zM161 207q8 -17 24 -33q14 16 26 37h-47zM167 218h43l9 10l16 -17l-10 -4
q-15 -22 -31 -42q19 -18 53 -22v-4q-12 0 -16 -11q-24 9 -45 30q-27 -24 -62 -34l-1 4q30 14 53 38q-12 19 -18 36q-12 -21 -24 -32l-3 2q23 34 31 74l17 -13q-6 -4 -12 -15zM182 64h-38l-8 -8l-10 13q5 1 10 12t8 21l14 -13q-6 -2 -14 -18h38v36h-14q-13 1 -24 -2l-9 9h47
q0 18 -1 32l22 -10l-8 -7v-15h15l14 11l16 -18h-45v-36h26l13 13l14 -20h-53q0 -35 1 -48l-15 -6q1 24 1 54z" />
  </g>

</svg>
