<?xml version="1.0" standalone="no"?>
<!DOCTYPE svg PUBLIC "-//W3C//DTD SVG 1.1//EN" "http://www.w3.org/Graphics/SVG/1.1/DTD/svg11.dtd" >
<svg xmlns="http://www.w3.org/2000/svg" xmlns:xlink="http://www.w3.org/1999/xlink" version="1.1" viewBox="0 -36 256 256">
  <g transform="matrix(1 0 0 -1 0 220)">
   <path fill="currentColor"
d="M88 239l-9 -5v-4h30l10 7l16 -14h-56v-12h25l11 6l11 -13h-75q-9 1 -21 -2l-10 9h46v12h-23q-11 0 -21 -2l-9 9h53q0 5 -1 15zM105 176l-3 1l5 7h-78q-1 -5 -3 -8t-7.5 -4t-8.5 2t4.5 9t10.5 13h3l1 -5h79l7 6l14 -12q-11 0 -24 -9zM143 184l-9 9h71l9 7l13 -14l-9 -2
q-11 -10 -20.5 -18.5t-28 -17t-43.5 -12.5l-2 4q27 7 44 18.5t33 27.5h-53zM219 213q12 -1 15.5 1t8.5 -2t3.5 -6.5t-12.5 -2.5h-24q-16 -1 -15 12v14h-33q0 -12 -8.5 -21.5t-24.5 -14.5l-2 2q17 10 20.5 22.5t1.5 23.5l14 -5h30l6 8l15 -9l-7 -5v-12q0 -6 12 -5zM105 152
l1 -12l-14 -5v5h-45v-4l-14 -4q1 13 1 24t-1 21l13 -4h45l7 5l13 -9l-6 -4v-13zM47 147h45v19h-45v-19zM44 95.5q0 21.5 -1 35.5l15 -4h43q5 7 8 16l16 -8l-7 -2l-9 -6h72l7 7l16 -9l-6 -5q0 -19 1 -27l-15 -5v2h-126v-6h150l12 11l17 -18h-179v-9h149l8 7l15 -9l-7 -6
q-4 -17 -7.5 -27t-11.5 -16t-25 -9q-2 6 -7.5 8.5t-20.5 4.5v4q33 -4 39 -0.5t8 6.5t4.5 8.5t6.5 21.5h-151v-3l-15 -3q1 19 1 40.5zM184 120h-126v-8h126v8zM184 105h-126v-8h126v8zM181 45q4 -5 2 -9.5t-6.5 -6.5t-6 3t-6 12t-10.5 13l1 2q22 -9 26 -14zM93 32
q1 -5 -2.5 -9t-7 -3.5t-4 5t-3 10t-8.5 14.5l5 1q19 -13 20 -18zM138 40q4 -5 1 -10t-7 -6.5t-6.5 6t-5.5 12.5t-7 11l3 1q18 -9 22 -14zM39 26.5q-3 -4.5 -9 -7.5t-12 -0.5t-1.5 5.5t10 7.5t10.5 17.5h5q0 -18 -3 -22.5zM221 128q-37 14 -72 61h6q43 -44 85 -46v-5
q-17 -1 -19 -10z" />
  </g>

</svg>
