<?xml version="1.0" standalone="no"?>
<!DOCTYPE svg PUBLIC "-//W3C//DTD SVG 1.1//EN" "http://www.w3.org/Graphics/SVG/1.1/DTD/svg11.dtd" >
<svg xmlns="http://www.w3.org/2000/svg" xmlns:xlink="http://www.w3.org/1999/xlink" version="1.1" viewBox="0 -36 256 256">
  <g transform="matrix(1 0 0 -1 0 220)">
   <path fill="currentColor"
d="M188 103h31v43h-31v-43zM223 197q0 -10 1 -19l-14 -6v9h-57v-7l-14 -4q1 18 1 36.5t-1 34.5l14 -9h55l8 10l15 -12l-8 -7v-26zM153 188h57v37h-57v-37zM233 115q0 -10 1 -25l-15 -6v12h-76v-45q-2 -25 13 -23h61q10 -1 11.5 12t1.5 33h5q0 -7 1.5 -22t11.5 -19
q-7 -17 -25 -16h-71q-26 -2 -23 33v74q0 20 -1 39l15 -9h75l9 11l13 -14l-7 -7v-28zM143 103h32v43h-32v-43zM94 119q5 -59 -2.5 -79.5t-33.5 -26.5q-1 14 -25 21v4q34 -6 40 -0.5t8 20t0 58.5q-22 -30 -70 -55l-2 4q53 36 69 72q-1 11 -7 25q-19 -28 -55 -53l-2 3
q31 28 51 64q-5 8 -8 12q-14 -19 -41 -35l-2 3q32 27 45 62h-11q-13 0 -22 -3l-10 10h87l13 12l16 -19h-56q-5 -7 -16 -24q14 -13 26 -35q17 16 31 41l15 -16l-10 -3q-18 -15 -35 -27q5 -17 6 -27q27 -27 31.5 -39.5t-0.5 -23t-9.5 7t-20.5 47.5z" />
  </g>

</svg>
