<?xml version="1.0" standalone="no"?>
<!DOCTYPE svg PUBLIC "-//W3C//DTD SVG 1.1//EN" "http://www.w3.org/Graphics/SVG/1.1/DTD/svg11.dtd" >
<svg xmlns="http://www.w3.org/2000/svg" xmlns:xlink="http://www.w3.org/1999/xlink" version="1.1" viewBox="0 -205 1024 1024">
  <g transform="matrix(1 0 0 -1 0 819)">
   <path fill="currentColor"
d="M442 622q69 188 108 350q76 -29 80 -34q3 -5 0 -10q-3 -3 -20 -8q-17 -3 -40 -66q-24 -63 -102 -246l110 6q45 111 76 216q69 -33 72 -38q3 -6 -2 -8q-3 -3 -18 -8q-13 -4 -28 -40q-15 -37 -66 -160t-134 -266l142 30q-6 40 -36 86l14 8q57 -61 72 -98t10 -56
q-3 -19 -12 -28q-10 -8 -22 -6q-13 2 -16 22q0 18 -6 52q-69 -19 -104 -34q-33 -13 -62 -38l-46 56q26 3 44 24q65 130 116 266q-60 -9 -84 -18q-24 -6 -44 -24l-36 52l34 18v0v0zM942 758l52 -40q8 -3 8 -12q1 -3 -28 -26q-15 -336 -18 -398q-4 -63 -10 -102
q-5 -38 -28 -71q-21 -30 -72 -46q-9 33 -32 48q-22 15 -82 32l6 17q81 -20 108 -21q27 0 42 25q12 24 18 106q4 84 20 426h-100q-6 -214 -30 -328q-25 -115 -98 -190q-71 -72 -220 -149l-8 14q122 80 188 149q63 70 90 182q24 112 28 320h-36q-7 0 -28 -8l-20 36h84v250
l74 -26q9 -4 10 -10q4 -6 -34 -20v-194h84l32 36v0v0zM264 948q6 -6 4 -12q-1 -5 -20 -10q-12 -7 -18 -16t-36 -72h94l22 32l62 -46q7 -7 2 -10q-1 -6 -22 -14q-22 -9 -46 -42q-21 -31 -48 -76h82l28 28l48 -38q6 -6 6 -8q1 -7 -30 -26v-226l4 -68q0 -15 -18 -26
q-15 -12 -36 -12v34h-212v-18q0 -12 -20 -26q-19 -12 -34 -12l4 104v256q-16 -36 -46 -66l-12 10q23 41 74 142q48 102 100 252l68 -34v0v0zM130 366h84v138h-84v-138v0v0zM264 366h78v138h-78v-138v0v0zM130 530h84v126h-84v-126v0v0zM264 656v-126h78v126h-78v0v0z
M126 682h106l54 130h-104q-34 -63 -68 -120l12 -10v0v0zM98 260h22q1 -70 0 -111q-3 -42 -20 -66q-16 -22 -38 -26q-22 -3 -32 6t-8 24q2 12 20 24q14 12 32 39q18 29 24 110v0v0zM152 268l14 8q45 -64 54 -92t10 -49t-10 -36q-12 -12 -30 -6q-19 6 -16 32q3 24 0 59
q-4 33 -22 84v0v0zM234 272l12 10q50 -56 68 -88q15 -30 16 -49q1 -17 -10 -32q-12 -13 -30 -8q-16 6 -16 36q0 28 -8 55q-9 24 -32 76v0v0zM304 290l12 10q66 -52 84 -80q17 -26 20 -46q0 -21 -8 -33q-9 -12 -30 -10q-18 4 -24 35q-4 33 -10 54q-6 18 -44 70v0v0z" />
  </g>

</svg>
