<?xml version="1.0" standalone="no"?>
<!DOCTYPE svg PUBLIC "-//W3C//DTD SVG 1.1//EN" "http://www.w3.org/Graphics/SVG/1.1/DTD/svg11.dtd" >
<svg xmlns="http://www.w3.org/2000/svg" xmlns:xlink="http://www.w3.org/1999/xlink" version="1.1" viewBox="0 -36 256 256">
  <g transform="matrix(1 0 0 -1 0 220)">
   <path fill="currentColor"
d="M89 90l1 -4q-60 -30 -68 -42l-11 18q11 3 32 11v85h-3q-10 0 -19 -2l-9 9h31v44q0 10 -1 29l21 -10l-7 -7v-56h7l10 10l14 -17h-31v-81zM117 222q-9 -3 -30 -27q23 -15 23 -22.5t-4 -10.5t-7.5 7t-17.5 26q15 24 19 39zM147 220q-9 -2 -31 -26q20 -10 22 -18t-2.5 -12.5
t-8.5 6.5t-17 24q18 27 21 38zM175 220q-9 -2 -28 -25q20 -9 23 -15.5t-1.5 -13.5t-7.5 2.5t-21 26.5q15 26 20 37zM156 154l11 9l13 -16h-51q-3 -14 -9 -28h32l8 9l13 -13l-7 -6q-8 -27 -17.5 -44t-24.5 -31.5t-49 -26.5l-2 3q33 16 50.5 39t28.5 63h-34l-7 -14
q19 -19 18 -25.5t-5.5 -9.5t-6.5 6.5t-10 24.5q-11 -17 -28 -30l-3 3q17 20 26 40.5t12 39.5h-5q-10 -1 -19 -3l-9 10h75zM243 230l-9 -7v-184q2 -23 -21 -31q-2 14 -29 21v4q18 -2 28 -2t9 12v158q0 22 -1 39zM184 138.5q0 45.5 -1 70.5l20 -9l-6 -7v-97q0 -17 2 -30
l-16 -5q1 32 1 77.5z" />
  </g>

</svg>
