<?xml version="1.0" standalone="no"?>
<!DOCTYPE svg PUBLIC "-//W3C//DTD SVG 1.1//EN" "http://www.w3.org/Graphics/SVG/1.1/DTD/svg11.dtd" >
<svg xmlns="http://www.w3.org/2000/svg" xmlns:xlink="http://www.w3.org/1999/xlink" version="1.1" viewBox="0 -36 256 256">
  <g transform="matrix(1 0 0 -1 0 220)">
   <path fill="currentColor"
d="M180 245l18 -9l-5 -6v-18h26l11 9l13 -16h-50v-17h18l10 9l13 -16h-41v-20h31l10 10l14 -17h-89q-10 0 -19 -2l-9 9h50v20h-7q-10 0 -19 -2l-9 9h35v17h-19q-10 0 -19 -2l-9 9h47q0 14 -1 33zM155 68h64v16h-64v-16zM143 97.5q0 28.5 -1 49.5l13 -7h63l6 8l13 -12l-6 -5
v-74l-12 -4v8h-64v-6l-13 -4q1 18 1 46.5zM155 116h64v17h-64v-17zM155 91h64v18h-64v-18zM172 38q-25 -19 -46 -29l-2 3q30 22 43 43l14 -15zM235 30.5q5 -8.5 0.5 -16t-11 5t-30.5 32.5l2 3q34 -16 39 -24.5zM119 18l-13 -6q1 22 1 56v89q-11 -21 -18 -28l-3 2
q14 25 22 53t13 51l19 -12q-8 -6 -13 -18.5t-10 -27.5l8 -8l-6 -3v-148zM46 239l21 -11l-7 -7q-4 -21 -7 -42h22l7 10l13 -13l-7 -6q-3 -63 -15 -93q16 -11 20 -15.5t0.5 -14t-10 2t-14.5 16.5q-22 -33 -57 -54l-2 4q31 27 49 57q-8 6 -34 20q10 39 14 79h-8q-4 0 -10 -2
l-8 9h27q4 33 6 60zM53 172q-6 -39 -15 -76q14 -7 25 -13q10 27 12 89h-22z" />
  </g>

</svg>
