<?xml version="1.0" standalone="no"?>
<!DOCTYPE svg PUBLIC "-//W3C//DTD SVG 1.1//EN" "http://www.w3.org/Graphics/SVG/1.1/DTD/svg11.dtd" >
<svg xmlns="http://www.w3.org/2000/svg" xmlns:xlink="http://www.w3.org/1999/xlink" version="1.1" viewBox="0 -36 256 256">
  <g transform="matrix(1 0 0 -1 0 220)">
   <path fill="currentColor"
d="M23 45l-10 15q4 5 4 13q0 100 -1 121l22 -11l-8 -7v-111l19 4q0 157 -1 174l20 -10l-6 -7v-155l20 3q0 99 -1 119l19 -11l-6 -7v-66q0 -24 1 -52l-13 -8v20q-53 -15 -59 -24zM96 131l-3 1q14 33 22 64t8 46l21 -11l-7 -7l-16 -45l10 -7l-7 -6v-146l-13 -8q1 28 1 146
q-8 -15 -16 -27zM203 226l7 9l15 -12l-8 -6l-2 -33h9l11 11l14 -18h-88q-10 0 -19 -2l-9 9h70l2 35h-29q-10 0 -19 -2l-9 9h55zM180 139h-20q-11 -18 -25 -33l-3 2q20 35 25 67l21 -10l-9 -5l-8 -14h47l13 12l15 -19h-43q0 -15 -2 -38h25l13 12l16 -19h-48q9 -31 22 -47.5
t28 -20.5v-4q-16 -2 -20 -9q-26 27 -35 81h-2q-9 -56 -62 -83l-1 3q42 33 50 80h-20q-10 0 -19 -2l-9 9h49q2 22 2 38z" />
  </g>

</svg>
