<?xml version="1.0" standalone="no"?>
<!DOCTYPE svg PUBLIC "-//W3C//DTD SVG 1.1//EN" "http://www.w3.org/Graphics/SVG/1.1/DTD/svg11.dtd" >
<svg xmlns="http://www.w3.org/2000/svg" xmlns:xlink="http://www.w3.org/1999/xlink" version="1.1" viewBox="0 -205 1024 1024">
  <g transform="matrix(1 0 0 -1 0 819)">
   <path fill="currentColor"
d="M298 27q99 49 264 159l54 -40q6 -11 -8 -15q-26 4 -106 -38q-80 -38 -196 -82l-8 16v0v0zM690 162l8 16q73 -19 140 -41q65 -23 92 -44q25 -21 24 -46q-1 -21 -22 -28q-21 -6 -42 20t-72 58q-51 31 -128 65v0v0zM490 238h334v86h-334v-86v0v0zM490 348h334v80h-334v-80v0
v0zM442 580l56 -26h312l22 24l58 -30q6 -6 6 -8q0 -7 -24 -22v-210l4 -82q0 -14 -18 -28q-17 -12 -34 -12v28h-334v-16q1 -3 -16 -14q-18 -10 -36 -10l4 112v294v0v0zM490 452h332v78h-332v-78v0v0zM350 850h108v116l68 -28q12 -3 12 -12q1 -1 -34 -16v-60h52l26 32l44 -42
q2 -3 2 -6q0 -10 -8 -10h-118l-4 -78h70l24 34q49 -43 50 -46q0 -12 -8 -12h-140l-4 -22q59 -18 86 -32q24 -14 30 -34t-2 -34q-7 -15 -22 -14q-15 -1 -30 34q-15 33 -68 60q-18 -51 -54 -92q-37 -39 -116 -84l-8 12q64 52 98 98q33 48 46 108q-84 0 -90 -2q-5 0 -22 -6
l-16 32h132l2 80h-2q-44 0 -58 -2q-12 -3 -30 -6l-16 32v0v0zM648 854h100v112l64 -30q12 -3 12 -12q0 -1 -30 -14v-56h74l26 34q48 -43 52 -52q0 -7 -8 -8h-146l-4 -70h82l28 38q57 -47 60 -52q-2 -10 -10 -10h-142q24 -45 54 -72q29 -26 68 -40q39 -15 72 -18v-16
q-43 -2 -52 -10q-9 -9 -36 -18q-36 30 -54 48q-16 14 -34 44q-17 27 -40 82q-16 -57 -58 -98q-42 -40 -98 -70l-10 14q45 33 76 70q27 36 46 84q-48 0 -56 -2q-6 0 -24 -6l-16 32h98l4 72h-2q-36 0 -50 -2q-12 -3 -30 -6l-16 32v0v0zM94 952l6 14q57 -18 90 -32
q33 -12 48 -30t18 -38q3 -22 -8 -34q-12 -14 -26 -12q-13 3 -20 18t-16 34q-9 18 -26 34q-15 15 -66 46v0v0zM36 716l6 14q48 -16 82 -32q32 -15 50 -30q17 -16 20 -38q3 -20 -6 -34q-9 -15 -26 -14q-16 0 -22 16q-6 12 -14 30q-7 17 -26 40q-19 21 -64 48v0v0zM176 408
q-22 -57 -52 -60h-72l-2 -20q36 -2 60 -10q23 -6 32 -18q8 -12 10 -42q0 -30 -8 -84q-9 -53 -6 -81q0 -27 18 -36t34 0q15 9 18 36q3 25 -6 83q-7 57 -8 94q-2 37 6 62t14 56l104 406l-20 8l-122 -394v0v0z" />
  </g>

</svg>
