<?xml version="1.0" standalone="no"?>
<!DOCTYPE svg PUBLIC "-//W3C//DTD SVG 1.1//EN" "http://www.w3.org/Graphics/SVG/1.1/DTD/svg11.dtd" >
<svg xmlns="http://www.w3.org/2000/svg" xmlns:xlink="http://www.w3.org/1999/xlink" version="1.1" viewBox="0 -205 1024 1024">
  <g transform="matrix(1 0 0 -1 0 819)">
   <path fill="currentColor"
d="M370 780h206l32 40l46 -48q9 -14 -2 -16h-194q-18 0 -66 -8l-22 32v0v0zM400 636l52 -36h128l26 30l52 -36q8 -3 8 -12q1 -1 -28 -22v-70l4 -34q3 -14 -14 -22q-18 -7 -38 -10v38h-140v-2q3 -18 -14 -26q-16 -9 -40 -12l4 66v148v0v0zM450 488h140v86h-140v-86v0v0z
M370 684h216l30 40l50 -48q9 -16 -2 -16h-204q-21 0 -68 -8l-22 32v0v0zM342 876h280l36 42l52 -54q8 -13 -4 -14h-274q-21 0 -68 -8l-22 34v0v0zM62 786l46 12q48 75 94 190l62 -34q9 -10 -2 -16q-24 -1 -50 -38q-24 -37 -84 -116l100 -4q30 44 58 92l58 -38q7 -12 -10 -14
q-28 -9 -62 -54q-34 -42 -106 -120h146q-12 33 -38 72l10 10q51 -42 70 -66q18 -21 18 -42q3 -18 -6 -30q-9 -13 -24 -10q-13 0 -16 18t-8 30q-82 -6 -122 -14q-40 -7 -80 -28l-30 60q24 4 52 14q30 24 78 96q-51 0 -72 -6q-22 -6 -52 -20l-30 56v0v0zM122 556h18
q0 -70 -8 -100q-7 -30 -26 -48q-19 -16 -38 -16q-18 3 -24 18q-4 15 14 30q19 12 38 34q17 21 26 82v0v0zM184 566l12 6q39 -49 48 -80q6 -30 0 -48q-3 -17 -18 -22q-13 -4 -22 4q-10 6 -8 30q1 21 0 46q0 26 -12 64v0v0zM272 574l10 10q48 -42 64 -72q15 -27 10 -48
q-6 -18 -20 -24q-11 -4 -22 2q-10 7 -10 26q1 17 -4 40q-5 21 -28 66v0v0zM448 984l8 10q70 -28 86 -46q15 -18 10 -36q-2 -17 -16 -22q-11 -5 -22 0q-12 5 -14 16t-10 28q-6 16 -42 50v0v0zM676 788l34 10q57 104 88 188l66 -38q9 -10 -2 -16q-26 -1 -46 -28
q-20 -28 -82 -118l100 2q24 39 58 96l54 -42q7 -12 -10 -14q-25 -7 -64 -58q-39 -48 -114 -126l166 2q-16 30 -50 72l10 10q63 -42 84 -66t22 -42q3 -18 -8 -30q-9 -13 -24 -10q-13 0 -16 16q-3 15 -12 30q-105 -11 -138 -16q-30 -3 -72 -24l-38 58q27 3 52 16q35 32 88 106
q-50 -9 -64 -12q-12 -1 -48 -22l-34 56v0v0zM726 566h18q3 -54 -2 -90q-3 -33 -20 -48q-17 -12 -34 -12q-16 2 -22 16q-6 12 10 28q18 15 30 36q11 18 20 70v0v0zM792 572l14 6q40 -48 50 -78q10 -31 2 -50q-6 -17 -20 -22q-11 -4 -22 2q-13 6 -10 30q4 24 2 48
q-1 24 -16 64v0v0zM886 582l10 8q57 -49 72 -74t10 -46q-3 -21 -18 -26q-12 -4 -24 2q-12 7 -12 26q0 18 -8 40q-6 21 -30 70v0v0zM904 276l66 -48q6 -6 6 -12q-1 -7 -22 -10l-272 -24v-59l4 -64q0 -10 -24 -26q-24 -15 -36 -12l4 74v83l-510 -45q-28 -8 -46 -20l-32 41
l588 52v202l84 -36q7 -9 2 -12t-34 -18v-130l194 16l28 48v0v0zM302 418q75 -10 120 -26q48 -13 66 -34q17 -22 8 -40q-9 -19 -26 -20q-18 -1 -30 20q-12 20 -42 40q-31 20 -100 44l4 16v0v0zM208 342q75 -12 126 -30q51 -15 72 -38q18 -21 10 -42q-9 -20 -30 -18
q-18 3 -32 24q-13 21 -46 42q-34 18 -104 46l4 16v0v0z" />
  </g>

</svg>
