<?xml version="1.0" standalone="no"?>
<!DOCTYPE svg PUBLIC "-//W3C//DTD SVG 1.1//EN" "http://www.w3.org/Graphics/SVG/1.1/DTD/svg11.dtd" >
<svg xmlns="http://www.w3.org/2000/svg" xmlns:xlink="http://www.w3.org/1999/xlink" version="1.1" viewBox="0 -36 256 256">
  <g transform="matrix(1 0 0 -1 0 220)">
   <path fill="currentColor"
d="M133 204v5q29 7 51 18t30 18l14 -16q-8 -1 -17.5 -4t-26.5 -10v-55l27 10l8 13l16 -13l-51 -16v-49l36 11l10 13l15 -13l-61 -17v-61q0 -9 8 -9h26q8 0 9.5 8.5t2.5 41.5h5q1 -23 3.5 -34.5t8.5 -14.5q-7 -14 -23 -14h-37q-17 0 -17 21v59l-31 -8l-7 -5l-11 7l49 12v49
l-24 -7l-6 -5l-8 7l38 11v55q-18 -4 -37 -8zM99 237l9 8l14 -16q-12 -1 -39 -20q6 -8 -1 -17h27l8 10l16 -15q-12 -1 -32 -26l-3 2l11 22h-23v-38q0 -15 -19 -19q-1 12 -18 16v3q14 -2 18.5 -1.5t4.5 6.5v26q-25 -27 -64 -39l-1 3q38 21 54 43h-14q-13 0 -22 -3l-10 10h59
q-3 9 -7 15.5t-11 13.5l1 3q18 -8 23 -12l18 18h-35q-13 0 -22 -3l-10 10h68zM83 15l-15 -7q1 37 1 69q-19 -29 -60 -53l-2 4q40 32 56 66h-18q-13 0 -22 -3l-10 10h56q0 11 -1 25l21 -8l-7 -7v-10h23l10 11l18 -18h-51v-10q20 -10 31 -19.5t7 -21.5t-11 2t-27 32
q0 -44 1 -62z" />
  </g>

</svg>
