<?xml version="1.0" standalone="no"?>
<!DOCTYPE svg PUBLIC "-//W3C//DTD SVG 1.1//EN" "http://www.w3.org/Graphics/SVG/1.1/DTD/svg11.dtd" >
<svg xmlns="http://www.w3.org/2000/svg" xmlns:xlink="http://www.w3.org/1999/xlink" version="1.1" viewBox="0 -36 256 256">
  <g transform="matrix(1 0 0 -1 0 220)">
   <path fill="currentColor"
d="M139 184h38v20h-38v-20zM139 157h38v20h-38v-20zM115 96h36v25h-36v-25zM165 96h37v25h-37v-25zM115 65h36v24h-36v-24zM165 65h37v24h-37v-24zM115 42q0 -16 1 -28l-15 -7q1 22 1 34v17q-13 0 -23 -3l-7 10h30v48q0 11 -1 23l15 -8h35v22h-38q-10 0 -20 -2l-9 9h41v20
h-3q-10 0 -19 -2l-10 9h32v20h-14q-10 0 -20 -2l-9 9h43q0 14 -1 34l23 -9l-8 -8v-17h38q0 20 -1 35l24 -10l-9 -7v-18h21l12 12l17 -19h-50v-20h9l12 11l15 -18h-36v-20h24l15 13l16 -20h-81v-22h35l8 9l14 -12l-7 -5v-55h6l14 12l14 -19h-34v-23q0 -21 -21 -28
q-3 8 -8.5 11t-21.5 7v5q28 -4 33 -2t5 17v13h-87v-16zM32.5 138.5q-3.5 -11.5 -12 -14t-10.5 2.5t7 16t14 43h4q1 -36 -2.5 -47.5zM45 245l22 -13l-8 -9v-170q0 -22 1 -36l-15 -10q1 36 1 58v126q0 29 -1 54zM82 171q6 -9 4 -17t-8 -8.5t-7.5 12.5t-9.5 34l3 2
q12 -14 18 -23z" />
  </g>

</svg>
