<?xml version="1.0" standalone="no"?>
<!DOCTYPE svg PUBLIC "-//W3C//DTD SVG 1.1//EN" "http://www.w3.org/Graphics/SVG/1.1/DTD/svg11.dtd" >
<svg xmlns="http://www.w3.org/2000/svg" xmlns:xlink="http://www.w3.org/1999/xlink" version="1.1" viewBox="0 -205 1024 1024">
  <g transform="matrix(1 0 0 -1 0 819)">
   <path fill="currentColor"
d="M358 190q0 -9 -4 -12q-35 -19 -42 -19t-6 10v45h-128q1 -64 4 -115q0 -9 -7 -10l-44 -18q-9 -2 -8 14q6 133 7 224v200q-30 -64 -64 -131q-6 -11 -15 -7q-7 5 0 18q39 92 73 201q42 135 58 252h-34q-27 0 -61 -7q-5 -1 -6 2q-13 20 -23 36q-6 10 7 7q61 -6 68 -7h129
q12 0 16 3q6 4 13 13l24 35q8 9 15 0q29 -26 57 -54q11 -12 10 -19q-2 -8 -15 -9h-148q-22 -115 -56 -215q-7 -13 -11 -26h121q8 -1 11 2l18 22q8 12 17 3q21 -18 40 -39q6 -8 6 -9t-4 -4q-20 -11 -21 -15t-1 -7v-332q0 -11 4 -32zM306 570h-128v-325h128v325zM918 81
q-18 -25 -45 -35q-9 -4 -12 5q-8 21 -30 36q-23 17 -69 21q-12 2 -11 12q1 9 14 8q110 -5 116 -2q7 4 7 25v739h-145q-42 -1 -73 -7q-9 -3 -10 6q-5 18 -20 31q-8 7 -4 11q4 3 11 -1q38 -9 84 -9h140q9 0 10 1l25 33q2 4 6 4t8 -4q31 -25 55 -50q7 -8 -9 -14
q-24 -10 -27 -14q-3 -6 -3 -13v-724q0 -34 -18 -59zM433 817q54 -17 72 -27q14 -7 -2 -16q-16 -8 -20 -18q-7 -19 -7 -80v-395q0 -117 4 -196q1 -8 -5 -12l-42 -27q-13 -10 -12 11q6 133 7 224v395q-1 80 -5 128q-2 17 10 13zM465 969q6 9 19 0q104 -62 108 -98
q-1 -25 -14 -38q-15 -14 -21 -14q-7 0 -14 21q-32 80 -74 114q-8 8 -4 15zM604 275q-1 -8 -5 -9q-10 -4 -32 -13q-15 -6 -14 4q2 26 3 51v370q-1 26 -2 45q0 9 4 10q4 3 13 -6q13 -13 31 -26h130q6 0 9 4l18 28q7 8 14 1q29 -19 57 -41q6 -6 5 -12q-3 -6 -13 -7
q-12 -2 -18 -12q-4 -9 -4 -22v-260q0 -32 6 -87q2 -12 -7 -16q-35 -20 -42 -20q-5 1 -5 11v58h-148v-51zM604 670v-141h148v141h-148zM604 498v-141h148v141h-148z" />
  </g>

</svg>
