<?xml version="1.0" standalone="no"?>
<!DOCTYPE svg PUBLIC "-//W3C//DTD SVG 1.1//EN" "http://www.w3.org/Graphics/SVG/1.1/DTD/svg11.dtd" >
<svg xmlns="http://www.w3.org/2000/svg" xmlns:xlink="http://www.w3.org/1999/xlink" version="1.1" viewBox="0 -205 1024 1024">
  <g transform="matrix(1 0 0 -1 0 819)">
   <path fill="currentColor"
d="M760 900q12 -12 -2 -20l-20 -8q-15 -6 -30 -24q-82 -163 -152 -268q56 -66 92 -110q35 -43 58 -82q23 -40 20 -68q-2 -27 -16 -36q-15 -10 -26 -4q-10 6 -28 54q-18 47 -54 100q-33 54 -72 102q-61 -88 -124 -160q-60 -72 -144 -140l-12 14q77 79 136 158q59 78 116 162
q-112 138 -274 300l16 12q159 -136 282 -268q79 129 152 330l82 -44v0v0zM136 812l82 -42q16 -7 2 -16l-32 -22v-568h648v644l86 -40q15 -9 4 -18l-38 -20v-540l4 -99q0 -15 -20 -30q-18 -13 -36 -18v94h-640l-38 -42l-60 59q37 24 38 48v610v0v0z" />
  </g>

</svg>
