<?xml version="1.0" standalone="no"?>
<!DOCTYPE svg PUBLIC "-//W3C//DTD SVG 1.1//EN" "http://www.w3.org/Graphics/SVG/1.1/DTD/svg11.dtd" >
<svg xmlns="http://www.w3.org/2000/svg" xmlns:xlink="http://www.w3.org/1999/xlink" version="1.1" viewBox="0 -205 1024 1024">
  <g transform="matrix(1 0 0 -1 0 819)">
   <path fill="currentColor"
d="M554 722h326l40 48l62 -56q3 -3 4 -6q0 -12 -12 -12h-246q-4 -76 -10 -154h144l30 36l52 -40q9 -6 10 -14q0 -4 -14 -14l-20 -12q-10 -159 -16 -234q-6 -74 -12 -106q-6 -28 -24 -53q-18 -21 -66 -46q-12 40 -42 52q-30 13 -84 29l6 16q94 -20 116 -19q21 1 34 13
q12 13 18 44q4 30 8 84q3 53 16 236h-156q-10 -123 -28 -194q-17 -72 -70 -140q-53 -67 -190 -139l-8 14q125 84 170 155q44 69 58 138q11 69 20 162q6 93 6 186h-60q-16 0 -46 -8l-16 34v0v0zM886 896l40 50l60 -62l2 -4q0 -10 -8 -10h-432v-196q-7 -246 -46 -380
t-204 -261l-10 16q129 117 168 249t42 366v272l62 -40h326v0v0zM64 892h308l38 48l58 -54q3 -3 4 -8q0 -12 -12 -12h-162q-48 -146 -86 -238h112l28 36l56 -40q6 -6 6 -8q-1 -6 -28 -26v-280l4 -72q1 -16 -18 -28q-17 -9 -34 -12v64h-122v-84q0 -18 -18 -30q-19 -12 -34 -13
l4 141v256q-59 -114 -118 -182l-12 12q60 105 112 226q52 119 92 278h-94q-22 0 -70 -8l-14 34v0v0zM216 288h122v314h-122v-314v0v0z" />
  </g>

</svg>
