<?xml version="1.0" standalone="no"?>
<!DOCTYPE svg PUBLIC "-//W3C//DTD SVG 1.1//EN" "http://www.w3.org/Graphics/SVG/1.1/DTD/svg11.dtd" >
<svg xmlns="http://www.w3.org/2000/svg" xmlns:xlink="http://www.w3.org/1999/xlink" version="1.1" viewBox="0 -36 256 256">
  <g transform="matrix(1 0 0 -1 0 220)">
   <path fill="currentColor"
d="M177.5 226.5q6.5 -7.5 -1 -18t-11 2t-18.5 30.5l2 3q22 -10 28.5 -17.5zM126 196h93l8 11l18 -17q-14 -2 -31 -28l-4 1l10 26h-94q0 -20 -8 -25t-13 -1.5t4.5 14.5t11.5 31h5v-12zM213 140l14 13l16 -20h-64v-94q1 -20 -19 -28q-2 13 -32 21l1 5q18 -3 27 -3t9 10v89h-32
q-10 0 -19 -2l-9 9h108zM52 245l22 -9l-7 -7v-37h18l6 10l14 -11l-6 -7v-92q1 -20 -15 -25q-2 11 -16 15v4q9 -1 14 -0.5t4 10.5v89h-19v-139q0 -14 1 -30l-16 -8q1 24 1 44v133h-19v-111l-15 -7q1 33 1 70t-1 62l16 -7h18q0 29 -1 53z" />
  </g>

</svg>
