<?xml version="1.0" standalone="no"?>
<!DOCTYPE svg PUBLIC "-//W3C//DTD SVG 1.1//EN" "http://www.w3.org/Graphics/SVG/1.1/DTD/svg11.dtd" >
<svg xmlns="http://www.w3.org/2000/svg" xmlns:xlink="http://www.w3.org/1999/xlink" version="1.1" viewBox="0 -200 1000 1000">
  <g transform="matrix(1 0 0 -1 0 800)">
   <path fill="currentColor"
d="M452 282h207v156h-136v-20q4 -36 -46 -43q5 36 7 74v322q2 16 -19 37l12 15l36 -36h311l40 37l42 -46q7 -6 5 -10t-12 -6l-18 -9v-244l3 -91q1 -32 -42 -32v52h-140v-156h124l32 38l68 -48q8 -5 7 -8q-2 -2 -13 -2h-218v-171h180l33 39l68 -49q8 -5 7 -8q-2 -2 -13 -2
h-520q-25 1 -45 -12l-34 32h281v171h-127q-27 1 -46 -13zM355 962l43 -42h480l33 39l68 -47q8 -6 7 -9q-2 -3 -13 -3h-568v-345q-9 -327 -212 -513l-11 11q179 207 182 511v339q0 26 -21 47zM58 201l-46 47l133 57v301h-55q-29 0 -38 -12l-33 32h126v252h-59q-28 0 -45 -14
l-33 34h221l33 39l58 -49q8 -6 7 -9q-2 -2 -13 -1h-128v-252h30l22 34l67 -44q7 -6 5 -9q-1 -2 -11 -1h-113v-284l122 56l6 -17l-222 -121q-21 -12 -34 -39zM702 619h140v148h-140v-148zM842 603h-140v-145h140v145zM659 767h-136v-148h136v148zM659 603h-136v-145h136v145z
" />
  </g>

</svg>
