<?xml version="1.0" standalone="no"?>
<!DOCTYPE svg PUBLIC "-//W3C//DTD SVG 1.1//EN" "http://www.w3.org/Graphics/SVG/1.1/DTD/svg11.dtd" >
<svg xmlns="http://www.w3.org/2000/svg" xmlns:xlink="http://www.w3.org/1999/xlink" version="1.1" viewBox="0 -205 1024 1024">
  <g transform="matrix(1 0 0 -1 0 819)">
   <path fill="currentColor"
d="M232 986l52 -36h424l32 36l60 -40q6 -7 6 -10q1 -6 -28 -24v-122l4 -44q-1 -5 -14 -16q-11 -9 -40 -12v32h-446v-8q1 -13 -16 -22q-16 -10 -38 -14l4 76v204v0v0zM282 776h446v60h-446v-60v0v0zM282 862h446v62h-446v-62v0v0zM88 732l52 -38h226l26 34l60 -38q6 -7 6 -10
q1 -6 -28 -24v-126l4 -44q-1 -6 -14 -14q-11 -7 -40 -14v32h-242v-8q1 -13 -16 -22q-16 -10 -38 -14l4 76v210v0v0zM138 516h242v64h-242v-64v0v0zM138 606h242v62h-242v-62v0v0zM576 730l52 -36h240l30 36l58 -40q6 -7 6 -10q1 -6 -28 -24v-126l4 -44q-1 -5 -14 -16
q-11 -9 -40 -12v32h-258v-8q1 -4 -16 -10q-16 -4 -38 -8l4 58v208v0v0zM626 516h258v60h-258v-60v0v0zM626 602h258v66h-258v-66v0v0zM494 324q-60 -27 -144 -60q-81 -30 -176 -48l-4 14q117 42 202 78q81 35 174 98q48 -45 46 -50q0 -6 -6 -6h-18q-13 0 -74 -26v0v0z
M552 520q15 -9 10 -14q-3 -3 -12 -6q-7 0 -26 -12q114 -81 190 -104q74 -24 128 -36q51 -12 168 -14v-18q-40 0 -58 -8q-19 -8 -32 -34q-60 12 -120 34q-60 21 -126 54q-67 30 -166 114q-66 -62 -138 -106q-73 -43 -154 -70q-79 -28 -164 -50l-4 16q89 32 164 64
q72 30 154 84q80 54 130 132l56 -26v0v0zM592 238q-59 -28 -172 -68q-111 -39 -236 -51l-2 16q138 27 250 75q110 47 208 116q52 -48 50 -54q0 -6 -6 -6h-20q-12 -1 -72 -28v0v0zM738 168q-42 -21 -138 -59q-94 -36 -202 -60q-108 -20 -270 -32v18q158 18 268 48
q108 30 198 67q90 36 180 102q52 -51 50 -56q0 -6 -6 -6h-20q-15 1 -60 -22v0v0z" />
  </g>

</svg>
