<?xml version="1.0" standalone="no"?>
<!DOCTYPE svg PUBLIC "-//W3C//DTD SVG 1.1//EN" "http://www.w3.org/Graphics/SVG/1.1/DTD/svg11.dtd" >
<svg xmlns="http://www.w3.org/2000/svg" xmlns:xlink="http://www.w3.org/1999/xlink" version="1.1" viewBox="0 -36 256 256">
  <g transform="matrix(1 0 0 -1 0 220)">
   <path fill="currentColor"
d="M32 107h18v70h-18v-70zM63 107h18v70h-18v-70zM31 184h19q0 41 -1 58l21 -9l-7 -6v-43h17l8 10l12 -12l-7 -7q0 -58 1 -78l-13 -5v8h-18v-44l20 4q-3 11 -9 24l3 2q17 -19 20 -28.5t-3.5 -16.5t-7.5 -0.5t-2 13.5q-21 -7 -40 -13.5t-25 -11.5l-10 18q7 -1 41 7v46h-18v-6
l-14 -7q1 21 1 52t-1 53zM127 209h3q6 26 6 37l16 -10q-7 -3 -17 -27h16l7 9l11 -13l-6 -5v-160q0 -14 -16 -20q-3 12 -21 17v4q18 -2 22 -1t4 6v82l-25 -5q-1 -40 -12 -68.5t-31 -46.5l-2 3q17 21 25 50.5t9 58.5q-12 -3 -14 -5l-7 14l21 2q0 68 -1 86zM127 132l25 2v68
h-25v-70zM145 91q3 -9 0.5 -13.5t-6 -6t-4 10.5t-6.5 27l3 3q10 -12 13 -21zM145 166.5q3 -7.5 0.5 -14t-5.5 -6.5t-3.5 9.5t-7.5 27.5l2 2q11 -11 14 -18.5zM194 220h17l6 9l13 -11l-5 -7v-39q-1 -10 4.5 -10t8.5 2.5t8 -3t0 -8.5t-20 -2q-13 -2 -13 16v46h-19
q0 -33 -6 -48t-20 -28l-2 3q10 15 12.5 31.5t2.5 31t-1 26.5zM233 122q-11 -43 -24 -67q9 -12 18 -19.5t21 -13.5v-3q-11 -2 -16 -11q-21 20 -31 36q-12 -12 -25.5 -21.5t-28.5 -14.5l-1 4q19 11 29.5 21t19.5 23q-5 8 -10 26t-8 42l-4 -2l-7 9h53l8 10l13 -14zM190 94
q6 -18 11 -26q9 18 18 56h-37q2 -12 8 -30z" />
  </g>

</svg>
