<?xml version="1.0" standalone="no"?>
<!DOCTYPE svg PUBLIC "-//W3C//DTD SVG 1.1//EN" "http://www.w3.org/Graphics/SVG/1.1/DTD/svg11.dtd" >
<svg xmlns="http://www.w3.org/2000/svg" xmlns:xlink="http://www.w3.org/1999/xlink" version="1.1" viewBox="0 -205 1024 1024">
  <g transform="matrix(1 0 0 -1 0 819)">
   <path fill="currentColor"
d="M634 882q-19 -33 -56 -114h308l32 54l66 -64q3 -5 4 -10q0 -9 -8 -8h-416q-45 -84 -98 -150l-14 8q48 90 84 180q33 89 72 202q78 -36 82 -42q0 -6 -2 -8q-3 -3 -18 -8q-15 -4 -36 -40v0v0zM512 570h234l32 32l54 -52q19 -15 -6 -24q-28 -5 -40 -16q-13 -9 -34 -42
q-22 -32 -86 -136q-63 -105 -78 -128q-12 -24 -20 -48q-7 -22 2 -35q6 -11 18 -14t64 -4h172q44 0 62 6q18 4 28 28q9 23 18 163h20q2 -124 14 -142q9 -16 28 -29q-12 -34 -36 -50t-48 -20q-21 -2 -78 -2h-196q-55 -1 -76 6q-21 6 -30 18q-9 11 -14 34q-5 21 6 49
q8 30 26 60q14 31 74 128q57 95 118 190h-156q-19 0 -52 -8l-20 36v0v0zM26 808h134q25 81 44 184q76 -33 80 -38q3 -7 -2 -10q-3 -3 -18 -6q-13 -4 -22 -34q-7 -27 -28 -96h176l40 52l60 -56q3 -3 4 -8q0 -12 -12 -12h-274q-51 -166 -80 -244h120v172l76 -28q7 -3 8 -6
q0 -7 -6 -10l-26 -14v-114h84l34 44l54 -52q3 -4 4 -8q-2 -9 -10 -8h-166v-164l190 50l6 -18l-196 -62v-150l4 -99q2 -17 -16 -32q-19 -15 -44 -18l4 139v140q-108 -36 -128 -50q-19 -12 -52 -36l-44 66l224 58v176h-112l-30 -32l-60 52q36 17 48 46l60 202h-48
q-16 0 -64 -8l-16 32v0v0z" />
  </g>

</svg>
