<?xml version="1.0" standalone="no"?>
<!DOCTYPE svg PUBLIC "-//W3C//DTD SVG 1.1//EN" "http://www.w3.org/Graphics/SVG/1.1/DTD/svg11.dtd" >
<svg xmlns="http://www.w3.org/2000/svg" xmlns:xlink="http://www.w3.org/1999/xlink" version="1.1" viewBox="0 -205 1024 1024">
  <g transform="matrix(1 0 0 -1 0 819)">
   <path fill="currentColor"
d="M406 846h238l6 134l74 -30q19 -9 2 -20l-26 -14l-6 -70h164l38 50l56 -54q2 -3 2 -8q1 -12 -10 -12h-252l-6 -96h114l30 36l52 -38q8 -6 10 -14q1 -3 -28 -26v-410h48l36 48l58 -58l2 -4q1 -12 -10 -12h-578q-22 1 -40 -10l-16 36h114v488l56 -36h102l6 96h-152
q-18 0 -66 -8l-18 32v0v0zM530 274h282v86h-282v-86v0v0zM530 384h282v92h-282v-92v0v0zM530 500h282v90h-282v-90v0v0zM530 614h282v88h-282v-88v0v0zM624 188q16 -19 -10 -20q-30 0 -60 -20q-134 -80 -250 -133l-8 16q186 108 264 197l64 -40v0v0zM708 208q89 -25 158 -58
q68 -31 86 -59q16 -27 8 -46q-8 -18 -28 -18q-21 0 -36 24q-14 27 -52 60q-38 29 -142 83l6 14v0v0zM96 936l60 -44h126l30 40l62 -42q9 -10 -2 -22l-22 -18v-552l4 -130q0 -12 -18 -26q-18 -13 -38 -17v75h-152v-71q0 -12 -20 -28q-22 -13 -34 -14l4 189v660v0v0zM146 226
h152v198h-152v-198v0v0zM146 450h152v200h-152v-200v0v0zM146 676h152v190h-152v-190v0v0z" />
  </g>

</svg>
