<?xml version="1.0" standalone="no"?>
<!DOCTYPE svg PUBLIC "-//W3C//DTD SVG 1.1//EN" "http://www.w3.org/Graphics/SVG/1.1/DTD/svg11.dtd" >
<svg xmlns="http://www.w3.org/2000/svg" xmlns:xlink="http://www.w3.org/1999/xlink" version="1.1" viewBox="0 -246 2048 2048">
  <g transform="matrix(1 0 0 -1 0 1802)">
   <path fill="currentColor"
d="M283 1330q-77 -98 -166 -185l-39 33q132 148 234 368q87 185 135 385q176 -19 176 -59q0 -22 -80 -47q-20 -60 -27 -76h221l72 90q124 -113 124 -133q0 -11 -19 -20l-47 -21q-81 -137 -171 -247h208l76 92q113 -91 113 -121q0 -12 -17 -22l-51 -31v-1071
q0 -161 -203 -158q0 61 -50 84q-48 22 -156 39v53q128 -16 232 -16q66 0 66 59v367h-205v-334h-111v334h-202q-18 -359 -222 -600l-47 30q156 247 156 650v557zM357 1434l28 -9q13 -5 21 -7h223q79 161 117 280h-250q-66 -155 -139 -264zM709 1035v-291h205v291h-205z
M598 1035h-200v-291h200v291zM398 1086h200v281h-200v-281zM709 1086h205v281h-205v-281zM1474 574h-365l-22 51h387v334q183 -3 183 -47q0 -24 -68 -51v-236h164l102 135q75 -72 133 -149l-22 -37h-377v-481h-115v481zM1318 1776h393l68 84q123 -95 123 -125q0 -7 -12 -16
l-49 -33v-203q0 -159 -179 -159q-5 50 -39 68q-38 21 -159 44v51q103 -14 200 -14q62 0 62 59v193h-434v-502q0 -53 28 -66q38 -14 246 -14q152 0 199 8q42 6 59 27q42 48 58 205l51 -19v-65q-2 -83 11 -108q11 -22 42 -23q-3 -92 -84 -107q-86 -18 -320 -18q-344 0 -381 51
q-24 34 -24 113v630q93 -37 141 -61z" />
  </g>

</svg>
