<?xml version="1.0" standalone="no"?>
<!DOCTYPE svg PUBLIC "-//W3C//DTD SVG 1.1//EN" "http://www.w3.org/Graphics/SVG/1.1/DTD/svg11.dtd" >
<svg xmlns="http://www.w3.org/2000/svg" xmlns:xlink="http://www.w3.org/1999/xlink" version="1.1" viewBox="0 -36 256 256">
  <g transform="matrix(1 0 0 -1 0 220)">
   <path fill="currentColor"
d="M36 231l23 -9l-8 -6v-25h71v29q0 10 -1 26l22 -10l-7 -6v-39h72v18q0 9 -1 21l23 -10l-8 -6v-15q0 -8 1 -16l-15 -7v8h-156l-7 -5l-13 11l5 5v14q0 10 -1 22zM94 17l-13 -7v50q-33 -10 -54 -24l-10 18l19 4v100l-12 -3l-9 10h70l11 11l18 -18h-20v-89l16 4v-3l-16 -6v-47
zM49 132h32v26h-32v-26zM49 96h32v29h-32v-29zM49 60l32 6v23h-32v-29zM190 17l-14 -7q1 21 1 78t-1 77l14 -6h27l7 9l13 -11l-6 -6v-85q0 -10 -5.5 -14t-12.5 -7q-2 6 -6 9.5t-15 7.5v4q17 -2 21.5 -1.5t4.5 4.5v83h-28v-135zM117 84v81l12 -7q15 9 26 23l13 -14
q-8 -2 -38 -15v-75l18 5v63l19 -9l-6 -6v-48q-1 -25 -16.5 -43.5t-45.5 -28.5l-1 3q25 14 36.5 30t13.5 35q-10 -5 -26 -19l-9 12q4 6 4 13z" />
  </g>

</svg>
