<?xml version="1.0" standalone="no"?>
<!DOCTYPE svg PUBLIC "-//W3C//DTD SVG 1.1//EN" "http://www.w3.org/Graphics/SVG/1.1/DTD/svg11.dtd" >
<svg xmlns="http://www.w3.org/2000/svg" xmlns:xlink="http://www.w3.org/1999/xlink" version="1.1" viewBox="0 -205 1024 1024">
  <g transform="matrix(1 0 0 -1 0 819)">
   <path fill="currentColor"
d="M474 822h204v154l82 -32q6 -3 6 -6t-6 -8l-30 -16v-92h90l40 50l60 -58q2 -3 2 -8q0 -10 -12 -10h-180v-132h166l38 50l60 -58q3 0 4 -6q0 -12 -12 -12h-502q-21 0 -38 -8l-16 34h248v132h-144q-18 0 -42 -8l-18 34v0v0zM560 514q-44 -37 -124 -88l-10 12q77 74 164 178
l66 -34q9 -12 0 -14q-9 -1 -18 -4q-8 0 -22 -6q-12 -6 -56 -44v0v0zM762 608q56 -30 104 -54q44 -24 68 -50q21 -25 16 -46q-4 -22 -22 -26q-18 -3 -36 24q-15 24 -42 52q-24 26 -96 86l8 14v0v0zM684 488q15 -11 -6 -16q-18 -3 -30 -14q-12 -9 -32 -42h172l26 30l60 -46
q9 -7 6 -10q1 -6 -22 -12q-21 -16 -48 -68t-80 -116q24 -22 70 -44q42 -19 90 -35q48 -12 108 -16v-20q-33 1 -54 -8q-21 -6 -42 -36q-48 24 -102 54q-54 31 -102 77q-58 -49 -140 -89q-81 -38 -198 -62l-4 18q115 39 188 80q72 38 124 83q-57 79 -84 176q-68 -96 -124 -150
l-14 10q44 65 86 134q41 66 76 154l76 -32v0v0zM606 392q17 -76 92 -166q42 45 94 166h-186v0v0zM76 730l52 -30h84v100h-98q-34 -3 -52 -12l-28 38h178v144l78 -30q6 -2 4 -10q-1 -3 -4 -6l-28 -14v-84h84l30 42l54 -52q6 -13 -8 -16h-160v-100h74l28 32l56 -40l4 -8
q0 -6 -24 -24v-226l4 -48q-1 -15 -16 -24q-15 -8 -36 -10v38h-90v-106h90l30 38l48 -44q15 -16 0 -22h-168v-143l4 -46q-1 -14 -22 -32q-21 -15 -36 -16l4 90v147h-110q-25 -4 -56 -10l-24 38h190v106h-88v-12q1 -12 -16 -18q-15 -7 -36 -10l4 84v296v0v0zM124 416h88v120
h-88v-120v0v0zM262 536v-120h90v120h-90v0v0zM124 562h88v112h-88v-112v0v0zM262 674v-112h90v112h-90v0v0z" />
  </g>

</svg>
