<?xml version="1.0" standalone="no"?>
<!DOCTYPE svg PUBLIC "-//W3C//DTD SVG 1.1//EN" "http://www.w3.org/Graphics/SVG/1.1/DTD/svg11.dtd" >
<svg xmlns="http://www.w3.org/2000/svg" xmlns:xlink="http://www.w3.org/1999/xlink" version="1.1" viewBox="0 -36 256 256">
  <g transform="matrix(1 0 0 -1 0 220)">
   <path fill="currentColor"
d="M218 106.5q-4 8.5 -22 21.5l1 2q19 -3 28 -9t3 -14.5t-10 0zM144 133q31 -11 22 -20t-11 -0.5t-14 18.5zM111 106.5q-7 -2.5 -7.5 6t-9.5 18.5l3 1q22 -10 21.5 -16.5t-7.5 -9zM30.5 107q-3.5 6 8 9t22.5 15l3 -1q-5 -20 -17.5 -24.5t-16 1.5zM61 60v33q0 11 -1 20l20 -5
h106l6 9l16 -11l-7 -5v-35q0 -11 2 -25l-16 -5v5h-113v-3l-14 -3q1 13 1 25zM74 101v-13h113v13h-113zM187 81h-113v-13h113v13zM74 61v-13h113v13h-113zM212.5 12.5q-14.5 9.5 -66.5 22.5v5q81 -9 81 -23t-14.5 -4.5zM100 43l16 -13h-12q-34 -14 -80 -22l-2 5q54 14 78 30z
M137 170h53v10h-53v-10zM137 187h53v11h-53v-11zM44 130q-11 0 -20 -2l-10 9h109v8h-65q-11 0 -21 -2l-9 9h95v11h-51q-10 0 -20 -1l-9 8h80v10h-85q-10 0 -20 -1l-9 8h114v11h-53q-10 0 -20 -2l-9 9h82v14l20 -7l-6 -5v-2h51l7 8l15 -10l-6 -5v-11h14l12 10l16 -17h-42v-17
l-14 -4v4h-53v-11h64l13 9l16 -16h-93v-8h75l13 6l15 -13h-196zM126 222h-38q0 -5 1 -12l-15 -3q1 7 1 15h-26q-11 0 -21 -1l-10 8h57q0 10 -1 18l20 -7l-6 -5v-6h12l13 7zM130 230h33q0 9 -1 17l23 -6l-8 -5v-6h37l11 8l15 -15h-63q0 -3 1 -11l-16 -4q1 12 1 15h-11
q-8 1 -15 -2z" />
  </g>

</svg>
