<?xml version="1.0" standalone="no"?>
<!DOCTYPE svg PUBLIC "-//W3C//DTD SVG 1.1//EN" "http://www.w3.org/Graphics/SVG/1.1/DTD/svg11.dtd" >
<svg xmlns="http://www.w3.org/2000/svg" xmlns:xlink="http://www.w3.org/1999/xlink" version="1.1" viewBox="0 -205 1024 1024">
  <g transform="matrix(1 0 0 -1 0 819)">
   <path fill="currentColor"
d="M640 852q10 -3 8 -12q-2 -7 -16 -10q-13 0 -22 -12q-10 -9 -50 -78h214l30 40l72 -44q6 -6 6 -8q0 -7 -36 -32v-204l4 -76q0 -12 -14 -24q-12 -10 -42 -16v48h-162v-276q3 -46 -24 -71q-25 -23 -68 -38q-9 47 -48 64q-36 17 -80 34l4 17q80 -17 104 -23q23 -4 38 0
q14 5 20 33v260h-164v-18q0 -12 -20 -24q-21 -12 -36 -12l4 110v304l60 -44h110q12 47 34 142l74 -30v0v0zM414 450h380v120h-380v-120v0v0zM414 596h380v118h-380v-118v0v0zM462 310q11 -6 2 -18q-33 -4 -60 -34q-120 -125 -228 -199l-10 12q156 140 226 273l70 -34v0v0z
M856 916l46 54l68 -66q15 -12 -8 -14h-746v-234q3 -244 -32 -370q-36 -126 -150 -239l-12 14q99 124 124 253q24 126 22 342v308l60 -48h628v0v0zM732 320q76 -33 146 -78q72 -42 84 -78t-2 -51q-15 -15 -32 -10q-16 7 -28 34q-12 25 -56 71q-45 46 -120 98l8 14v0v0z" />
  </g>

</svg>
