<?xml version="1.0" standalone="no"?>
<!DOCTYPE svg PUBLIC "-//W3C//DTD SVG 1.1//EN" "http://www.w3.org/Graphics/SVG/1.1/DTD/svg11.dtd" >
<svg xmlns="http://www.w3.org/2000/svg" xmlns:xlink="http://www.w3.org/1999/xlink" version="1.1" viewBox="0 -205 1024 1024">
  <g transform="matrix(1 0 0 -1 0 819)">
   <path fill="currentColor"
d="M326 856h172q24 53 48 122q74 -31 76 -40q3 -7 -2 -10q-6 -3 -18 -6q-11 0 -22 -18q-12 -18 -26 -48h282l36 50l64 -56q3 0 4 -8q0 -12 -12 -12h-390q-21 -36 -50 -78h296l34 42l50 -46q2 1 8 -10q9 -6 0 -12h-184v-102h158l38 44l58 -50q3 -3 4 -8q0 -12 -12 -12h-448
q-21 0 -62 -8l-20 34h236v102h-172q-79 -103 -140 -164l-14 12q57 72 96 132t70 124h-82q-21 0 -56 -8l-20 34v0v0zM446 560l50 -36h306l30 40l54 -40q9 -3 10 -12q0 -6 -24 -24v-302q0 -34 -14 -53q-13 -21 -62 -36q-7 37 -32 47q-23 12 -70 28l4 16q51 -12 70 -12
q18 -2 36 0q18 -1 18 26v90h-328v-68l4 -76q0 -13 -18 -29q-19 -15 -38 -16l4 115v342v0v0zM494 316h328v82h-328v-82v0v0zM494 422h328v78h-328v-78v0v0zM110 940q71 -36 104 -60q32 -21 46 -42t14 -42q-1 -22 -14 -34q-13 -13 -32 -10q-17 2 -22 34q-4 30 -28 60
q-21 30 -78 82l10 12v0v0zM30 550h148l34 42l54 -42q12 -7 12 -14q0 -3 -36 -32v-284q40 -66 92 -99q50 -35 116 -44l94 -2h290q63 4 156 16v-24q-33 -6 -56 -12q-24 -5 -36 -32h-340q-90 3 -138 14t-96 42q-45 31 -72 75q-25 44 -40 44q-13 0 -46 -48q-33 -47 -78 -123
l-62 42q57 54 166 155v298h-84q-28 1 -52 -10l-26 38v0v0z" />
  </g>

</svg>
