<?xml version="1.0" standalone="no"?>
<!DOCTYPE svg PUBLIC "-//W3C//DTD SVG 1.1//EN" "http://www.w3.org/Graphics/SVG/1.1/DTD/svg11.dtd" >
<svg xmlns="http://www.w3.org/2000/svg" xmlns:xlink="http://www.w3.org/1999/xlink" version="1.1" viewBox="0 -205 1024 1024">
  <g transform="matrix(1 0 0 -1 0 819)">
   <path fill="currentColor"
d="M408 830l34 36l50 -44q3 -4 4 -8q0 -10 -12 -10h-74q-45 -72 -96 -132q45 -18 78 -36q33 -17 60 -46q26 -28 26 -46t-18 -24q-15 -7 -36 16q-19 22 -58 56q-37 33 -80 52q-39 -42 -90 -72q-49 -31 -176 -82l-4 18q93 45 144 78t90 78q-85 42 -164 70l6 16q83 -18 182 -62
q52 64 80 116h-254q-21 0 -56 -8l-28 34h392v0v0zM184 972l8 12q65 -28 92 -52q24 -24 28 -42q3 -18 -8 -30q-12 -14 -26 -12q-15 3 -20 24q-6 20 -18 46q-12 24 -56 54v0v0zM318 544q4 -3 2 -8q0 -1 -2 -2l-22 -14v-66h92l24 32l44 -34q9 -6 10 -14q0 -4 -24 -20v-98l4 -44
q0 -9 -14 -18q-12 -7 -36 -8v32h-100v-132l116 8q-25 33 -62 76l8 12q71 -46 98 -70q23 -24 32 -43q6 -21 -6 -36q-12 -16 -24 -14t-14 16q-3 13 -18 40q-255 -19 -300 -38q-45 -18 -72 -36l-26 62l220 21v134h-100v-30q1 -8 -16 -28q-15 -19 -36 -20l4 92v188l50 -30h98
v114l70 -24v0v0zM148 306h100v124h-100v-124v0v0zM296 306h100v124h-100v-124v0v0zM616 798q-24 -6 -48 -24v-146h20l34 42l52 -54q2 0 2 -6q0 -7 -8 -8h-100v-154h120q15 128 10 278v260q90 -35 90 -40q0 -3 -2 -8q-1 -6 -38 -20v-208q3 -155 -12 -262h154v152h-48
q-30 0 -56 -8l-24 34h128v152h-52q-27 0 -50 -8l-24 36h118l28 38l56 -42q7 -6 8 -12q-1 -7 -34 -28v-272l4 -64q-1 -15 -22 -26q-19 -12 -32 -12v34h-118q20 -105 52 -170q30 -63 76 -108q44 -41 110 -57v-18q-43 3 -64 -4q-18 -6 -42 -24q-42 52 -66 92q-23 37 -46 91
q-21 52 -44 194h-16q-17 -175 -118 -274q-99 -94 -206 -137l-6 16q89 50 176 143q87 92 108 256h-118v-26q-1 -15 -20 -24t-34 -8l4 124v352l50 -40q30 32 64 62q45 -40 48 -46q2 -7 -4 -10q-5 -1 -22 -2q-15 0 -38 -6v0v0z" />
  </g>

</svg>
