<?xml version="1.0" standalone="no"?>
<!DOCTYPE svg PUBLIC "-//W3C//DTD SVG 1.1//EN" "http://www.w3.org/Graphics/SVG/1.1/DTD/svg11.dtd" >
<svg xmlns="http://www.w3.org/2000/svg" xmlns:xlink="http://www.w3.org/1999/xlink" version="1.1" viewBox="0 -36 256 256">
  <g transform="matrix(1 0 0 -1 0 220)">
   <path fill="currentColor"
d="M60 47v62q-17 -42 -47 -75l-3 2q19 31 28.5 55t14.5 42h-12q-11 -1 -20 -2l-8 9h47q0 33 -1 44l22 -11l-7 -6v-27h11l11 11l16 -18h-38v-17q26 -14 28 -19t1.5 -10.5t-5 -10t-9.5 8.5t-15 23v-74q0 -6 1 -18l-16 -7q1 27 1 38zM114 138q0 17 -1 34l14 -5h86l11 10l16 -17
h-113v-134h90l11 11l17 -18h-117l-9 -7l-10 12l5 3v111zM145 64.5q4 15.5 4 42t-1 39.5l12 -7q47 8 55 17l12 -18l-8 3q-41 -6 -58 -7v-28h53l12 10l15 -17h-33v-33q0 -10 1 -31l-15 -6q1 19 1 37v33h-34q0 -25 -7.5 -41.5t-21.5 -29.5l-1 4q10 17 14 32.5zM69 231l-10 -17
h51l12 11l16 -18h-63q26 -12 27.5 -18t-4 -12.5t-9.5 4.5t-22 26h-12q-18 -25 -38 -41l-3 2q13 17 24.5 36.5t19.5 43.5l22 -13zM173 233l-11 -19h51l12 12l16 -19h-60q21 -8 26.5 -12.5t3.5 -11t-6.5 -7t-8.5 7.5t-22 23h-16q-11 -16 -27 -33l-5 2q19 28 25.5 44.5
t10.5 27.5l20 -12z" />
  </g>

</svg>
