<?xml version="1.0" standalone="no"?>
<!DOCTYPE svg PUBLIC "-//W3C//DTD SVG 1.1//EN" "http://www.w3.org/Graphics/SVG/1.1/DTD/svg11.dtd" >
<svg xmlns="http://www.w3.org/2000/svg" xmlns:xlink="http://www.w3.org/1999/xlink" version="1.1" viewBox="0 -205 1024 1024">
  <g transform="matrix(1 0 0 -1 0 819)">
   <path fill="currentColor"
d="M704 832h80l30 36l54 -40q6 -3 4 -12q-1 -6 -28 -20v-20q-2 -73 6 -124q9 -51 30 -86q20 -36 32 -42q11 -7 20 22q6 30 22 114l18 -2q-7 -77 -10 -106q-2 -27 0 -48q0 -22 10 -34q9 -12 4 -18q-6 -7 -26 -4q-18 3 -42 18q-23 15 -52 48q-27 33 -44 90q-15 54 -18 144v58
h-90q-1 -54 -20 -128q56 -37 74 -68q18 -30 12 -54t-30 -24q-22 -1 -28 32q-7 33 -44 72q-30 -57 -78 -98q-48 -42 -126 -84l-6 12q62 50 104 94q39 42 70 106q-41 38 -82 68l12 12q35 -15 80 -42q9 60 10 102h-74q-30 -6 -42 -12l-22 38h138v154q76 -27 80 -32q3 -5 0 -10
q-4 -3 -28 -14v-98v0v0zM400 754q9 -11 -2 -16l-18 -8l-42 -46h60l32 36l48 -44q3 -4 4 -8q1 -10 -10 -10h-168v-72h138l36 38q58 -49 56 -56q0 -6 -2 -8q0 -1 -18 -2h-210v-48l4 -28q-1 -16 -22 -28t-36 -12l4 70v46h-144q-24 0 -44 -8l-22 36h210v72h-104q-31 3 -62 -8
l-18 34h242q15 30 36 88l52 -18v0v0zM84 902h174v92l68 -26q7 -3 8 -8q1 -6 -6 -8l-20 -18v-32h94l34 36l46 -44q6 -4 6 -10q-1 -7 -16 -8h-164v-62h124l32 36l46 -44q6 -4 6 -10q-1 -7 -16 -8h-362q-43 1 -82 -10l-18 36h220v62h-98q-30 0 -56 -8l-20 34v0v0zM152 766l8 10
q39 -9 58 -18q18 -9 24 -24q6 -13 -2 -26t-22 -14q-15 0 -18 12q-3 9 -12 24t-36 36v0v0zM226 436l54 -16h424l30 34l48 -34q9 -7 10 -14q1 -6 -22 -24v-36l4 -58q0 -14 -18 -22q-15 -6 -36 -6v30h-194v-98h252l28 42l56 -50l2 -8q0 -9 -8 -8h-330v-97q84 -3 226 2
q140 3 230 14l4 -20q-52 -8 -70 -20q-19 -9 -22 -28q-114 1 -248 4q-135 3 -192 18t-98 38q-40 24 -88 66q-34 -42 -86 -78q-51 -35 -116 -58l-8 16q69 38 106 70q36 34 64 77q27 45 36 82l66 -28q3 -9 -2 -12q-4 -3 -14 -6q-9 -4 -32 -44q48 -34 96 -59q45 -21 100 -28v213
h-204v-2q-7 -9 -22 -14q-15 -4 -30 -2l4 58v106v0v0zM274 318h446v78h-446v-78v0v0z" />
  </g>

</svg>
