<?xml version="1.0" standalone="no"?>
<!DOCTYPE svg PUBLIC "-//W3C//DTD SVG 1.1//EN" "http://www.w3.org/Graphics/SVG/1.1/DTD/svg11.dtd" >
<svg xmlns="http://www.w3.org/2000/svg" xmlns:xlink="http://www.w3.org/1999/xlink" version="1.1" viewBox="0 -36 256 256">
  <g transform="matrix(1 0 0 -1 0 220)">
   <path fill="currentColor"
d="M45.5 180.5q3.5 -9.5 -3 -19t-10 6.5t-19.5 39l2 2q27 -19 30.5 -28.5zM54 242l20 -8l-7 -8v-62q24 31 30 53l16 -15q-8 -3 -17 -14t-29 -31v-17h16l11 11l16 -18h-29v-86l26 22l2 -4q-7 -9 -17.5 -20t-17.5 -22l-11 13q5 7 5 20v77h-17q0 -42 -6 -70.5t-34 -54.5l-3 2
q21 26 26 56t4 67q-10 0 -20 -3l-8 10h45v71q0 11 -1 31zM130 151l33 4q0 15 -1 30l20 -10l-7 -6v-12l17 2l10 12l14 -16l-41 -5v-13q-1 -10 11 -9h22q9 -1 11 2.5t7 1.5t8 -5t-1 -6.5t-17 -3.5h-35q-18 -2 -18 14v18q-21 -3 -25 -7l-8 6q1 -99 -40 -140l-2 2q20 34 24 71
t4.5 66t-0.5 54l14 -8h33q0 40 -1 54l21 -8l-7 -8v-12h31l11 12l15 -19h-57v-19h50l8 7l13 -15q-12 -2 -26 -19l-3 2l8 18h-96v-35zM149.5 58q2.5 -12 0 -18.5t-6.5 -5t-5 15t-8 37.5l2 2q15 -19 17.5 -31zM221.5 64q-8.5 -11 -21.5 -25v-18h19l12 11l15 -18h-97
q-10 0 -19 -2l-10 9h40v50q0 16 -1 42l20 -13l-7 -7v-72h16v49q0 18 -1 38l20 -12l-7 -7v-43q6 9 13 22.5t10 24.5l15 -13q-8 -5 -16.5 -16z" />
  </g>

</svg>
