<?xml version="1.0" standalone="no"?>
<!DOCTYPE svg PUBLIC "-//W3C//DTD SVG 1.1//EN" "http://www.w3.org/Graphics/SVG/1.1/DTD/svg11.dtd" >
<svg xmlns="http://www.w3.org/2000/svg" xmlns:xlink="http://www.w3.org/1999/xlink" version="1.1" viewBox="0 -205 1024 1024">
  <g transform="matrix(1 0 0 -1 0 819)">
   <path fill="currentColor"
d="M146 944l46 -36h268l30 40l54 -34q22 -12 6 -26l-24 -18v-200l4 -68q0 -15 -14 -26q-13 -10 -38 -10v36h-120v-106h110l26 40l52 -46q10 -15 -4 -20h-184v-84l202 12l2 -18q-345 -39 -378 -44q-32 -4 -76 -22l-32 54l236 14v88h-126q-18 0 -54 -6l-20 32h200v106h-120
v-10q0 -19 -18 -28q-16 -10 -32 -8l4 120v268v0v0zM192 628h120v254h-120v-254v0v0zM358 628h122v254h-122v-254v0v0zM434 310l8 12q51 -36 76 -66q24 -30 28 -50q4 -18 -4 -36q-6 -16 -24 -14q-18 0 -20 24q-3 22 -12 50q-10 26 -52 80v0v0zM326 298l12 8q42 -41 60 -64
q16 -23 20 -46t-4 -40q-6 -16 -24 -14q-18 0 -20 24q-3 21 -8 48q-3 24 -36 84v0v0zM220 284l12 8q42 -51 54 -74q11 -23 14 -46q3 -24 -6 -39q-6 -16 -24 -14q-18 1 -18 23q-1 21 -4 52q-1 30 -28 90v0v0zM158 290h16q2 -69 -4 -108q-6 -36 -18 -57q-12 -20 -26 -32
q-15 -12 -30 -6q-15 4 -18 20q-2 14 12 28q14 13 34 41q20 27 34 114v0v0zM210 820l12 8q30 -33 46 -68q14 -35 16 -58q0 -24 -8 -32q-10 -9 -22 -6q-13 2 -16 26q-1 22 -4 56q-3 32 -24 74v0v0zM364 668q33 93 54 162q51 -24 54 -30t-6 -8q-7 -3 -20 -18q-12 -13 -68 -110
l-14 4v0v0zM778 938q6 -3 6 -6q-1 -9 -14 -8q-9 0 -18 -8q-9 -7 -54 -64h184l24 28l58 -44q9 -6 6 -12q0 -4 -18 -10q-27 -12 -36 -30q-54 -75 -86 -108q-33 -34 -104 -86q-69 -52 -168 -88l-8 12q101 59 160 106q57 44 94 86q35 42 80 120h-198q-18 -20 -38 -46
q53 -33 70 -54q16 -21 14 -36q0 -15 -12 -24q-13 -7 -22 -2q-10 5 -14 22q-4 15 -14 36q-9 18 -36 42q-45 -50 -90 -88l-10 12q43 54 92 126q48 72 90 162l62 -38v0v0zM780 540q-15 -3 -30 -24q-13 -19 -44 -58h188l22 36l62 -46q9 -6 6 -12q0 -3 -18 -12q-27 -4 -30 -22
q-42 -72 -86 -134q-44 -61 -148 -137q-105 -77 -260 -128l-6 14q149 72 238 139q90 66 138 136q47 67 82 140h-204q-21 -28 -38 -50q59 -40 80 -68q19 -27 14 -44q-4 -16 -14 -22q-9 -7 -20 -2q-13 5 -16 22q-2 17 -16 46q-15 30 -38 54q-42 -45 -86 -84l-10 12
q67 84 110 156q42 71 78 134q54 -27 58 -32l4 -8q-1 -3 -16 -6v0v0z" />
  </g>

</svg>
