<?xml version="1.0" standalone="no"?>
<!DOCTYPE svg PUBLIC "-//W3C//DTD SVG 1.1//EN" "http://www.w3.org/Graphics/SVG/1.1/DTD/svg11.dtd" >
<svg xmlns="http://www.w3.org/2000/svg" xmlns:xlink="http://www.w3.org/1999/xlink" version="1.1" viewBox="0 -205 1024 1024">
  <g transform="matrix(1 0 0 -1 0 819)">
   <path fill="currentColor"
d="M848 878q48 -27 70 -44q18 -15 30 -32q10 -18 2 -38q-8 -19 -28 -20q-19 -1 -22 20q-3 20 -18 46t-44 58l10 10v0v0zM476 970l68 -28q9 -4 10 -8q1 -7 -6 -10l-28 -18v-100h72l36 40l54 -52q3 -3 4 -8q0 -6 -12 -6h-154v-94h64l22 28l46 -32q12 -6 12 -14q0 -6 -30 -26
v-176l4 -78q0 -13 -18 -26q-16 -10 -32 -10v44h-66v-118h84l34 44l58 -54q3 -3 4 -8q0 -10 -14 -10h-166v-98l4 -89q0 -14 -18 -26t-36 -16l4 135v94h-112q-18 3 -60 -8l-18 36h190v118h-70v-26q0 -15 -18 -26q-19 -12 -34 -12l4 108v270l42 -24h76v94h-78q-16 -1 -58 -10
l-26 36h162v164v0v0zM406 420h182v108h-182v-108v0v0zM406 554h182v106h-182v-106v0v0zM910 710l70 -38q6 -4 6 -10q-1 -6 -22 -12l-166 -38q5 -83 8 -142q3 -60 16 -150q19 32 50 116q29 82 40 134q66 -30 72 -38q6 -7 -2 -10q-9 -3 -20 -8q-10 -6 -22 -38
q-12 -31 -42 -100q-28 -67 -58 -112q23 -57 46 -96q20 -36 32 -49t18 -14q5 -1 10 30q6 28 18 115l18 -2q-3 -54 -2 -86v-63q-1 -30 8 -46q9 -15 10 -24q0 -8 -8 -10q-9 0 -26 6q-16 7 -50 32q-33 26 -62 76q-27 47 -42 87q-57 -69 -108 -111q-52 -43 -106 -74l-8 12
q59 52 106 101q48 48 96 118q-22 62 -28 134q-3 72 -12 202l-42 -10q-19 -7 -28 -16l-30 32l98 22v334l72 -28q15 -6 12 -12q1 -6 -34 -18v-266l98 22l14 48v0v0zM26 736h154v238l84 -34q11 -7 2 -16l-38 -18v-170h36l32 40l44 -48q2 -4 2 -8q3 -12 -8 -12h-106v-96
q44 -21 70 -42t32 -42q7 -21 -4 -36q-9 -15 -24 -12q-15 2 -20 26q-6 23 -18 44q-12 18 -36 40v-444l4 -87q0 -14 -20 -28q-18 -15 -36 -16l4 133v402q-24 -84 -66 -164q-42 -79 -84 -130l-12 8q32 59 58 116q23 57 56 150q30 90 46 178h-84q-16 0 -46 -8l-22 36v0v0z" />
  </g>

</svg>
