<?xml version="1.0" standalone="no"?>
<!DOCTYPE svg PUBLIC "-//W3C//DTD SVG 1.1//EN" "http://www.w3.org/Graphics/SVG/1.1/DTD/svg11.dtd" >
<svg xmlns="http://www.w3.org/2000/svg" xmlns:xlink="http://www.w3.org/1999/xlink" version="1.1" viewBox="0 0 2048 2048">
  <g transform="matrix(1 0 0 -1 0 2048)">
   <path fill="currentColor"
d="M543 689l33 -20l-20 -41q-9 -21 -50 -102l-68 -128q-25 -49 -45 -83l-75 -121l-28 -50l3 -33q2 -27 1 -39q-2 -11 -13 -16t-25 2q-13 8 -32 32l-81 98l36 34q20 18 67 68q48 51 110 128t108 147l53 84zM93 1045q47 -12 71 -19q25 -7 71 -22t76.5 -28.5t58.5 -33.5
q29 -20 46 -41t22 -45q4 -25 -6 -46t-32 -28q-21 -6 -48 20q-9 7 -25 31t-32 41q-16 18 -38 37t-46 36t-47 29q-24 12 -61 29l-23 10zM201 1429q47 -11 77 -19t64 -20q34 -11 74 -28q39 -17 64 -34q26 -18 43 -39t22 -45t-5 -46q-11 -21 -32 -28q-22 -6 -49 19q-9 7 -25 30
t-32 41q-16 17 -38 36q-22 18 -46 35q-25 17 -49 30l-57 26l-24 11zM1422 1648l-22 -127q-5 -24 -12 -35q-8 -10 -20 -14q-11 -4 -27 -2q-24 2 -33 12q-10 10 -11 19t1 20l21 127q-15 -1 -22 -1l-124 -5q-13 -1 -17 -1l-14 -1l-38 88q13 -4 28 -8q15 -3 64 -10q49 -6 111 -5
h22l13 73l9 65l13 83l117 -28q18 -5 36 -12q18 -8 22 -22t-9 -24t-40 -17l-39 -10l-19 -108h310l101 102l120 -107q8 -8 13 -16q6 -7 3 -18q-3 -10 -12 -14t-14 -4h-531zM675 1648l10 -130q1 -20 -3 -30q-3 -10 -14 -17q-12 -7 -32 -10t-32 5q-10 5 -14 14q-5 10 -5 19
l-9 149h-253q-41 0 -108 -4q-67 -3 -70 -3l-13 -1l-39 88q14 -4 30 -8q16 -3 61 -9q46 -6 139 -6h249l-14 219l122 -21q32 -6 48 -15q17 -8 18 -22q0 -13 -12 -22t-30 -16l-41 -16l7 -107h83l98 102l121 -107q8 -8 13 -16q5 -7 2 -18q-4 -10 -11 -14q-8 -4 -15 -4h-286z
M1326 1270v-225h399l61 71l73 -49q16 -11 27 -23q12 -12 14 -23t-8 -23q-4 -5 -30 -19l-27 -14l4 -746q0 -37 -10 -67q-10 -29 -27 -46q-18 -18 -44 -32q-25 -14 -43 -18l-31 -8q-3 17 -8 36q-4 19 -17 36t-43 31t-78 23l-61 11l8 46q49 -9 78 -13q29 -5 58 -9t61 -5
q32 0 46 12t14 45v730h-416v-654q0 -22 2 -72q3 -50 6 -85q4 -35 2 -51q-2 -11 -6 -19q-4 -7 -17 -14q-13 -8 -32 -8q-17 -1 -29 3t-18 11q-5 6 -5 18v871h-390v-907q0 -13 -7 -22q-6 -9 -22 -14q-16 -6 -40 -4q-13 0 -22 5q-10 5 -14 16q-5 11 -3 32q0 12 2 52t6 83
q4 44 4 61v818l112 -66h374v225h-337q-109 1 -144 -3t-36 -4l-14 -1l-37 88q13 -4 29 -8q16 -3 60 -8q45 -6 142 -6h809l102 102l125 -102q16 -14 15 -36t-20 -22h-597zM909 913l65 -29q32 -13 72 -35q39 -22 64 -45q26 -23 39 -50q13 -26 2 -49t-32 -27t-40 11q-9 6 -31 41
q-21 36 -59 72t-55 47l-42 26zM1157 608l21 -33l-72 -78l-75 -74l-44 -45q2 -22 3 -51q0 -29 -13 -32t-26 7q-13 9 -28 31l-68 90q63 33 93 51l115 73zM1633 796l-49 -28q-31 -19 -64 -37q-34 -18 -65 -30l-49 -20l-21 32l55 42q26 21 68 63q43 41 68 71l27 32l97 -79
q20 -17 16 -36q-5 -18 -33 -15zM1384 596l86 -33q39 -16 91 -45q52 -28 81 -56q29 -27 34 -54q6 -28 -8 -44q-15 -17 -33.5 -18.5t-34.5 10.5q-13 7 -38 42q-26 34 -46 56q-19 22 -62 52q-42 31 -67 45l-19 10z" />
  </g>

</svg>
