<?xml version="1.0" standalone="no"?>
<!DOCTYPE svg PUBLIC "-//W3C//DTD SVG 1.1//EN" "http://www.w3.org/Graphics/SVG/1.1/DTD/svg11.dtd" >
<svg xmlns="http://www.w3.org/2000/svg" xmlns:xlink="http://www.w3.org/1999/xlink" version="1.1" viewBox="0 -205 1024 1024">
  <g transform="matrix(1 0 0 -1 0 819)">
   <path fill="currentColor"
d="M380 678l50 -38q18 -6 4 -20l-20 -16v-200l4 -76q0 -12 -18 -24q-17 -9 -34 -12v44h-164v-205l158 75q-25 38 -56 68l10 14q57 -30 90 -60q34 -30 44 -56q8 -27 2 -45q-7 -20 -26 -20q-18 -1 -24 16q-5 17 -10 29q-4 11 -16 34q-132 -77 -152 -93q-19 -16 -56 -56l-56 56
q36 21 42 36v511q-59 -92 -106 -142l-14 12q82 129 134 234q50 103 94 236l68 -30q12 -8 4 -16q-22 -3 -34 -20q86 -45 118 -68q30 -25 40 -46q8 -21 2 -42q-6 -18 -24 -20q-17 -1 -28 20q-11 18 -28 52q-18 31 -90 86q-30 -60 -54 -110q-23 -48 -64 -114l28 -26h158l24 32
v0v0zM202 618v-114h164v114h-164v0v0zM202 478v-116h164v116h-164v0v0zM248 796l10 10q48 -31 66 -58q15 -28 10 -50q-7 -20 -20 -22q-12 -3 -20 4q-7 5 -10 22q-1 17 -8 40q-5 24 -28 54v0v0zM872 808l44 48l60 -60q9 -15 -12 -14h-408q-21 0 -68 -8l-16 34h400v0v0z
M620 646q-22 -31 -58 -82q-37 -52 -104 -118l-12 10q62 87 100 154q36 66 66 136q78 -37 76 -46q-1 -9 -10 -8q-10 0 -22 -8q-12 -9 -36 -38v0v0zM768 730q105 -67 144 -100q35 -33 50 -60q14 -28 8 -52q-6 -22 -26 -26q-18 -3 -30 22q-9 24 -36 70q-25 42 -118 132l8 14v0
v0zM614 966l10 12q68 -34 94 -58t32 -44q4 -21 -6 -36q-12 -15 -32 -14q-19 0 -26 30q-7 26 -20 50q-11 24 -52 60v0v0zM882 482q4 -3 2 -6q0 -7 -8 -10q-22 -6 -34 -24q-9 -16 -42 -76q-34 -58 -82 -116q30 -34 78 -68q45 -34 88 -47q39 -17 118 -32v-18q-48 0 -66 -6
q-18 -8 -36 -32q-55 35 -100 70q-45 33 -110 105q-60 -66 -150 -117q-88 -50 -184 -86l-8 16q74 34 166 94q90 58 150 125q-39 60 -66 120q-24 59 -42 136l18 4q32 -82 58 -134q26 -50 58 -94q36 45 66 106q29 59 56 134l70 -44v0v0z" />
  </g>

</svg>
