<?xml version="1.0" standalone="no"?>
<!DOCTYPE svg PUBLIC "-//W3C//DTD SVG 1.1//EN" "http://www.w3.org/Graphics/SVG/1.1/DTD/svg11.dtd" >
<svg xmlns="http://www.w3.org/2000/svg" xmlns:xlink="http://www.w3.org/1999/xlink" version="1.1" viewBox="0 0 2048 2048">
  <g transform="matrix(1 0 0 -1 0 2048)">
   <path fill="currentColor"
d="M1408 411q10 -11 30 -29q19 -17 86 -61t140 -79q74 -36 143 -56q69 -21 139 -34l45 -9l-2 -35h-35q-16 1 -36 -4q-21 -5 -41 -18t-26 -23l-17 -25q-46 19 -88 38q-41 19 -108 56t-136 85q-68 48 -114 96l-28 28l-27 -33q-13 -16 -63 -62q-49 -45 -98 -78
q-48 -34 -114 -65q-67 -31 -124 -51l-59 -21l-13 36l74 31q40 17 96 48q55 32 104 70t91 84q42 47 66 82l12 18q-11 11 -24 26q-13 16 -45 62q-32 47 -59 98q-27 50 -54 114l-34 79l40 22l43 -89q20 -41 52 -90q33 -49 64 -86q30 -37 41 -48l15 -16q12 26 22 52q11 26 22 76
t16 88t8 94q4 55 4 87v48h-271v-39q0 -13 -11 -21q-10 -8 -32 -7q-25 0 -37.5 7.5t-18.5 17.5q-5 10 -6 22q0 12 3 38q0 4 3.5 59.5t3.5 67.5v380q0 37 -1 56l-5 61l-3 50l112 -83h263v218q0 48 -3 94.5t-3 52.5l-2 13l109 -24q50 -12 67 -21q16 -9 17 -23t-11 -24t-38 -19
l-41 -14v-253h242l68 77l83 -53q21 -14 30 -25t10 -25q0 -14 -11 -26q-3 -4 -30 -19l-36 -20v-434l52 -32q9 -6 15 -17q7 -10 7 -17q-1 -9 -7 -13q-6 -5 -11 -5h-412v-48l-5 -99q-2 -42 -7 -84t-17 -94q-13 -53 -32 -96q-18 -42 -34 -71zM1416 1469h-271v-496h271v496z
M1511 1469v-496h262v496h-262zM533 486q12 -8 17 -10q5 -3 38 -22q32 -18 74 -45t92 -66t82 -77q33 -38 42 -77q10 -39 -4 -63q-13 -25 -44 -26q-30 -2 -59 44q-5 7 -22 42q-17 36 -35 62q-17 27 -47 64q-30 36 -59 62l-58 48l-29 24q-6 -17 -21 -54q-14 -38 -48 -95
q-35 -57 -88 -110t-106 -89q-53 -35 -98 -54l-45 -20l-15 33l52 39q28 21 74 60q47 40 86 86q39 47 66 101q26 54 40 101l17 56l6 23h-148q-118 0 -180 -7l-13 -1l-37 88q13 -4 29 -7q15 -4 63 -10t138 -6h162q4 19 13 64q8 46 10 73l5 82l116 -26q31 -8 44 -17t13 -23
q-1 -14 -12 -21q-12 -7 -29 -11l-36 -10q-10 -55 -12 -68l-9 -43h225l98 102l121 -107q10 -10 14 -15q5 -6 2 -18q-3 -11 -12 -15q-8 -4 -14 -4h-450q-4 -19 -5 -23zM781 1416l61 73l72 -48q14 -10 26 -23q13 -14 15 -24q2 -11 -7 -23q-5 -6 -31 -20l-27 -14v-322
q0 -20 2 -72q3 -52 6 -86q4 -34 2 -50q-2 -11 -6 -19q-5 -9 -14 -14q-10 -6 -30 -5q-22 0 -33 3q-11 4 -17 12q-6 7 -6 19v31h-505v-31q0 -13 -5 -21q-6 -8 -24 -13t-40 -3q-12 0 -22 4q-9 5 -14 17q-4 12 -3 31q0 3 4 55l4 63q5 67 5 79v368q-14 -15 -33 -33t-43 -36
l-47 -36l-24 31l56 62q31 34 51 59t52 76q33 50 51 83t39 81q21 47 40 98q20 51 32 94l15 54l104 -34q29 -10 46 -18q17 -9 17 -24q-1 -16 -12 -22q-11 -5 -44 -12l-28 -6l-46 -96h214l56 62l98 -69q28 -21 31 -33t-8 -24q-7 -8 -34 -15l-57 -15q-25 -37 -48 -68
q-23 -30 -58 -69l-51 -57h218zM289 1153h205v208h-205v-208zM258 1446l31 -30h222l57 98q29 50 38 69l30 65h-244l-37 -65q-19 -33 -41 -62zM587 1361v-208h207v208h-207zM587 890h207v207h-207v-207zM289 890h205v207h-205v-207z" />
  </g>

</svg>
