<?xml version="1.0" standalone="no"?>
<!DOCTYPE svg PUBLIC "-//W3C//DTD SVG 1.1//EN" "http://www.w3.org/Graphics/SVG/1.1/DTD/svg11.dtd" >
<svg xmlns="http://www.w3.org/2000/svg" xmlns:xlink="http://www.w3.org/1999/xlink" version="1.1" viewBox="0 -36 256 256">
  <g transform="matrix(1 0 0 -1 0 220)">
   <path fill="currentColor"
d="M31 102h16v72h-16v-72zM59 102h16v72h-16v-72zM47 48v47h-16v-6l-14 -7q1 21 1 52.5t-1 54.5l13 -8h17q0 44 -1 60l21 -10l-8 -8v-42h17l6 7l12 -11l-7 -6v-53v-24l-12 -7v8h-16v-45l19 6q-2 9 -8 30l3 2q21 -24 21 -33t-5 -15t-7 -3t-3 13q-22 -8 -38 -15t-23 -13
l-10 17q12 0 39 9zM162 247l20 -8l-7 -7v-8h40l11 10l16 -17h-67v-10h34l8 7l12 -10l-6 -4q0 -10 1 -20l-13 -5v5h-36v-9h56l8 9l13 -13q-8 -2 -15 -8t-12 -11l-2 3l7 13h-120q1 -8 -1 -12.5t-7.5 -5.5t-10 0.5t2.5 10t10 25.5h5l1 -11h53v9h-33v-1l-13 -3q1 12 1 20.5
t-1 16.5l13 -6h33v10h-35q-10 0 -19 -2l-10 9h64q0 10 -1 23zM130 200v-13h33v13h-33zM175 187h36v13h-36v-13zM146 97h56v23h-56v-23zM134 116q-16 -8 -40 -14l-1 2q21 9 37 20.5t24 19.5h-16q-10 0 -19 -2l-9 9h90l12 8l14 -15h-54q-10 -8 -21 -17h51l7 6l11 -10l-6 -5
q0 -20 1 -28l-13 -4v4h-56v-3l-13 -3q1 12 1 32zM163 69q0 11 -1 23l18 -7l-5 -7v-9h41l11 10l16 -17h-62q17 -15 32 -22t35 -11v-3q-14 -3 -18 -10q-19 9 -33 21t-21 25h-1q0 -38 1 -51l-14 -4q1 17 1 50q-17 -17 -33 -27t-38 -16l-1 3q23 11 36 22.5t24 22.5h-21
q-10 0 -19 -2l-10 9h62z" />
  </g>

</svg>
