<?xml version="1.0" standalone="no"?>
<!DOCTYPE svg PUBLIC "-//W3C//DTD SVG 1.1//EN" "http://www.w3.org/Graphics/SVG/1.1/DTD/svg11.dtd" >
<svg xmlns="http://www.w3.org/2000/svg" xmlns:xlink="http://www.w3.org/1999/xlink" version="1.1" viewBox="0 -36 256 256">
  <g transform="matrix(1 0 0 -1 0 220)">
   <path fill="currentColor"
d="M40 241l16 -7h55l11 10l15 -17h-82v-11h51l9 9l14 -16h-74v-10h50l9 9l14 -16h-73v-10h65l10 9l16 -16h-77l9 -7q-7 0 -16 -6t-21 -11l70 3q-6 5 -18 13l2 2q28 -8 32.5 -13.5t0.5 -12.5t-7 -2t-7 9q-20 -3 -48 -7t-34 -7l-10 15q10 1 21 9.5t15 14.5h-20q-11 0 -20 -2
l-10 9h33q0 40 -1 59zM224 231q-9 -1 -32.5 -11t-56.5 -19l-1 4q26 9 48.5 22t26.5 19zM234 198q-4 2 -32 -9t-56 -16l-1 4q28 9 48.5 19t28.5 17zM240 166q-8 0 -35 -9.5t-69 -16.5l-1 4q41 10 63.5 20.5t28.5 16.5zM152 140q22 -5 28 -11t1.5 -13t-10 1t-20.5 20zM138 41
q56 15 78 29l11 -15l-12 -1q-30 -9 -77 -18v5zM138 60q42 12 70 29l11 -13l-9 -1q-31 -12 -72 -20v5zM138 80q35 10 60 27l12 -14h-7q-24 -9 -65 -18v5zM131 75v-15v-5v-14v-5v-2q0 -7 13 -7h78q8 1 8 27h5q0 -24 11 -26q-4 -12 -23 -12h-88q-17 0 -17 15v74h-14
q-6 -63 -88 -95l-1 4q68 35 75 91h-41q-11 0 -21 -2l-9 9h72q0 15 -1 30l22 -6l-7 -7v-17h101l11 11l19 -18h-117l18 -8l-6 -5v-17z" />
  </g>

</svg>
