<?xml version="1.0" standalone="no"?>
<!DOCTYPE svg PUBLIC "-//W3C//DTD SVG 1.1//EN" "http://www.w3.org/Graphics/SVG/1.1/DTD/svg11.dtd" >
<svg xmlns="http://www.w3.org/2000/svg" xmlns:xlink="http://www.w3.org/1999/xlink" version="1.1" viewBox="0 -200 999 1000">
  <g transform="matrix(1 0 0 -1 0 800)">
   <path fill="currentColor"
d="M671 903l52 -32l2 1q9 38 11.5 63t6.5 48l49 -37l-16 -16l-34 -58h89l25 34l48 -41l-21 -27v-167h-168v-79h96l32 34l51 -54h-179v-71h155l28 34l52 -45l-29 -29q0 -21 -2.5 -55.5t-8 -71t-13 -69.5t-16.5 -49q-10 -18 -29 -36t-52 -31q1 2 5 6.5t4 8.5q0 20 -17 32.5
t-47 26.5v11q7 -2 16.5 -4t19.5 -4t18 -3t12 -1q29 0 46 61.5t20 194.5h-206v425zM715 761v-71h124v71h-124zM724 852l-9 -12v-60h124v72h-115zM817 422q4 -9 9.5 -19.5t10 -20.5t8 -17l4.5 -9q1 -5 1.5 -9t0.5 -6q0 -19 -8.5 -32t-14.5 -13q-8 0 -11 10.5t-3 23.5
q0 9 1 17.5t3 13.5q-2 15 -3 29.5t-4 27.5zM654 402q12 -31 18.5 -49.5t6.5 -36.5q0 -20 -12 -33.5t-18 -13.5t-5.5 9t-0.5 30q3 13 4 26t1 26q0 10 -0.5 19.5t-0.5 20.5zM707 332q0 14 -1 32t-4 37l9 1q11 -22 19 -46t8 -35q0 -18 -8 -29.5t-15 -11.5q-11 0 -11 29z
M762 332q0 17 -2 38t-7 41l6 2q14 -21 24.5 -37.5t10.5 -31.5q0 -20 -8 -38.5t-17 -18.5q-8 0 -8 33zM385 677v-110h59v120h-54zM489 567h59v121h-59v-121zM280 227q51 58 88.5 140t61.5 179h-45v-31q-4 -8 -20 -16.5t-28 -10.5v246l57 -27h50v108h-77l-37 -9l-15 28h129
v150l59 -29l-14 -52v-69h48l37 36l53 -55h-138v-108h47l28 34l54 -42l-23 -27v-149q-6 -11 -20.5 -16t-26.5 -8v47h-59v-71q63 -30 93 -63t35 -68v-4q0 -13 -9 -20.5t-20 -7.5q-14 0 -21 13.5t-15.5 34.5t-22 46.5t-40.5 49.5v-277q-8 -14 -19.5 -18.5t-25.5 -10.5v290
q-7 -24 -23 -55t-37.5 -62t-46 -59t-46.5 -44zM111 774q16 -8 29.5 -15.5t25 -17t22.5 -23t23 -34.5v-8q0 -33 -11 -47.5t-22 -14.5q-12 0 -21.5 11.5t-9.5 32.5q0 4 0.5 6t0.5 5q-4 18 -7.5 30t-8.5 22t-12 19.5t-18 21.5zM957 106q-20 -18 -39.5 -32t-35.5 -34
q-26 -1 -58.5 -2t-65.5 -1.5t-63.5 -1t-54.5 -0.5q-159 0 -257 36t-141 126h-23q-29 -35 -58.5 -76t-52.5 -71l-57 39q48 29 88.5 63.5t75.5 61.5v275h-67l-64 -14l-28 36h148l45 46l55 -61l-38 -31v-265q28 -40 66 -62t81.5 -32.5t90.5 -12.5t94 -2h26q29 0 68 0.5t82.5 3
t89.5 8t89 15.5zM99 1000q42 -19 70 -40t45 -54v-11q0 -29 -9.5 -43t-20.5 -14q-12 0 -22.5 14t-13.5 39q-5 18 -9.5 31.5t-10 25t-13.5 21.5t-20 22z" />
  </g>

</svg>
