<?xml version="1.0" standalone="no"?>
<!DOCTYPE svg PUBLIC "-//W3C//DTD SVG 1.1//EN" "http://www.w3.org/Graphics/SVG/1.1/DTD/svg11.dtd" >
<svg xmlns="http://www.w3.org/2000/svg" xmlns:xlink="http://www.w3.org/1999/xlink" version="1.1" viewBox="0 -205 1024 1024">
  <g transform="matrix(1 0 0 -1 0 819)">
   <path fill="currentColor"
d="M388 834h130v146l80 -30l8 -6q0 -5 -6 -10l-30 -16v-84h222v142l74 -32q9 -6 10 -6q6 -7 -2 -10l-32 -18v-76h64l32 44l52 -50q3 -4 4 -10q0 -10 -12 -10h-140v-222l4 -64q1 -15 -16 -26q-18 -12 -38 -12v40h-222v-28q0 -16 -18 -28q-18 -10 -38 -10l4 132v218h-52
q-28 0 -58 -8l-20 34v0v0zM570 552h222v114h-222v-114v0v0zM570 692h222v116h-222v-116v0v0zM396 384h256v120l78 -28q6 -1 6 -8q-1 -4 -34 -20v-64h190l34 48l60 -58q3 -3 4 -8q2 -9 -10 -8h-252q27 -39 66 -84q35 -43 86 -76q47 -34 116 -46v-17q-39 -2 -60 -10
q-19 -5 -32 -26q-43 33 -80 73q-36 41 -66 86q-27 45 -56 102v-206l4 -89q-2 -15 -22 -24q-18 -9 -36 -10l4 118v193q-60 -76 -138 -146q-79 -69 -182 -127l-8 14q81 60 148 123q66 62 132 152h-126q-21 0 -66 -8l-16 34v0v0zM70 786l50 -28h78v228l78 -34q10 -6 2 -18
l-26 -16v-160h66l26 34l56 -40q7 -9 0 -14l-20 -22v-240l4 -58q3 -15 -12 -26q-15 -12 -44 -14v46h-76v-204l98 28q-12 26 -42 82l14 10q47 -51 68 -72q20 -20 26 -40q4 -21 0 -38q-5 -16 -22 -20q-15 -4 -24 4q-7 6 -8 22q0 12 -6 30q-207 -71 -234 -85q-24 -16 -54 -38
l-38 59l168 46v216h-76v-36q0 -12 -20 -24q-18 -12 -36 -12l4 72v362v0v0zM122 450h76v282h-76v-282v0v0zM252 732v-282h76v282h-76v0v0z" />
  </g>

</svg>
