<?xml version="1.0" standalone="no"?>
<!DOCTYPE svg PUBLIC "-//W3C//DTD SVG 1.1//EN" "http://www.w3.org/Graphics/SVG/1.1/DTD/svg11.dtd" >
<svg xmlns="http://www.w3.org/2000/svg" xmlns:xlink="http://www.w3.org/1999/xlink" version="1.1" viewBox="0 -36 256 256">
  <g transform="matrix(1 0 0 -1 0 220)">
   <path fill="currentColor"
d="M136 90h52v22h-52v-22zM75 57v-37h47v63h-41q-11 0 -20 -2l-9 9h70v22h-75q-10 0 -20 -2l-9 9h104v18h-43q-11 -1 -20 -3l-10 10h73v20h-58q-10 0 -20 -2l-9 9h87q0 17 -1 27l23 -11l-8 -8v-8h65l11 11l15 -18h-91v-20h51l10 10l14 -15l-8 -5v-15h15l12 13l15 -20h-42
q0 -17 1 -30l-16 -6v7h-52v-26h53l12 13l18 -20h-83v-30h82l13 13l16 -20h-209q-11 0 -20 -2l-9 9h52v30l-1 23l22 -10zM136 119h52v18h-52v-18zM128 204h-38q0 -7 1 -22l-16 -4q1 15 1 26h-28q-13 0 -22 -3l-10 10h60q0 23 -1 36l24 -10l-9 -7v-19h10l14 9zM158 205
q-10 0 -21 -2l-9 9h34q0 23 -1 34l24 -9l-8 -7v-18h33l15 10l16 -17h-64q0 -5 1 -20l-16 -7v27h-4z" />
  </g>

</svg>
