<?xml version="1.0" standalone="no"?>
<!DOCTYPE svg PUBLIC "-//W3C//DTD SVG 1.1//EN" "http://www.w3.org/Graphics/SVG/1.1/DTD/svg11.dtd" >
<svg xmlns="http://www.w3.org/2000/svg" xmlns:xlink="http://www.w3.org/1999/xlink" version="1.1" viewBox="0 -205 1024 1024">
  <g transform="matrix(1 0 0 -1 0 819)">
   <path fill="currentColor"
d="M656 774l12 10q62 -60 82 -92q21 -34 18 -58q-1 -25 -14 -38q-12 -12 -30 -8q-19 4 -20 32q0 27 -8 64q-10 36 -40 90v0v0zM582 832q33 -210 58 -290q24 -81 84 -198q39 63 76 168q37 104 74 320h-292v0v0zM866 860l32 40q69 -55 70 -58t0 -8q-3 -3 -18 -12
q-16 -6 -20 -12t-22 -102q-18 -95 -56 -202q-36 -108 -98 -200q33 -57 100 -122q67 -61 152 -85v-18q-52 1 -68 -10l-30 -22q-62 58 -100 101q-36 44 -84 110q-63 -67 -140 -131q-75 -64 -162 -102l-6 14q78 53 150 121q71 68 130 140q-51 93 -84 202q-34 108 -58 328h-26
q-33 2 -48 -10l-26 38h412v0v0zM250 988l60 -20q19 -8 8 -16q0 -4 -8 -4q-12 -6 -26 -24q-27 -43 -42 -76h108l30 40l52 -36q9 -4 10 -14q0 -3 -30 -20v-668q1 -32 -16 -49q-13 -15 -70 -36q-15 42 -38 48q-10 10 -74 28l6 17q67 -13 86 -17q17 0 38 2q19 3 20 21v352h-182
q6 -223 -44 -328q-49 -102 -118 -167l-8 12q66 84 96 195q29 112 26 290h-40q-24 -1 -50 -8l-20 34h110v344l50 -40h34q20 80 32 140v0v0v0zM184 542h180v280h-180v-278v-2v0v0v0zM222 768q65 -66 74 -98q7 -30 0 -44q-6 -13 -18 -16q-10 -4 -20 2q-8 6 -10 30q0 23 -8 50
q-6 27 -30 72l12 4v0v0zM220 466q50 -54 64 -84q13 -29 14 -46q-1 -15 -10 -32q-9 -16 -26 -14q-16 2 -16 32t-6 60q-6 29 -30 80l10 4v0v0z" />
  </g>

</svg>
