<?xml version="1.0" standalone="no"?>
<!DOCTYPE svg PUBLIC "-//W3C//DTD SVG 1.1//EN" "http://www.w3.org/Graphics/SVG/1.1/DTD/svg11.dtd" >
<svg xmlns="http://www.w3.org/2000/svg" xmlns:xlink="http://www.w3.org/1999/xlink" version="1.1" viewBox="0 -205 1024 1024">
  <g transform="matrix(1 0 0 -1 0 819)">
   <path fill="currentColor"
d="M356 492l44 6q54 39 120 156l56 -30q9 -9 -2 -14q-24 1 -60 -40q-37 -39 -82 -80l120 2q39 58 70 104l64 -40q4 -12 -12 -12q-21 3 -86 -72q-63 -73 -144 -158l164 8q-17 44 -40 80l10 10q50 -42 68 -66q15 -25 22 -46q6 -21 -2 -36q-10 -16 -28 -14q-16 0 -20 18l-6 34
q-111 -13 -144 -22q-31 -7 -74 -28l-38 58q27 3 60 18q68 74 118 142q-55 -7 -82 -14q-25 -6 -62 -26l-34 62v0v0zM652 478l40 12q54 54 102 156l60 -32q9 -9 -2 -14q-24 1 -54 -34q-30 -33 -68 -78l124 4q38 54 62 100l60 -46q4 -12 -12 -12q-21 2 -74 -64
q-52 -67 -118 -148l134 8q-18 34 -44 62l10 10q53 -33 74 -56q20 -22 28 -46q9 -24 0 -42q-9 -16 -26 -14q-16 3 -20 16q-3 13 -12 50q-108 -18 -140 -26q-34 -9 -52 -30l-40 62q30 3 60 18q38 45 98 136q-55 -6 -86 -14q-31 -6 -68 -30l-36 52v0v0zM422 232h20
q1 -61 -4 -95q-6 -35 -20 -62q-15 -24 -38 -30q-23 -7 -34 4q-12 9 -8 26q2 16 22 28q20 10 38 38q15 25 24 91v0v0zM838 230l10 12q87 -54 120 -90q30 -33 30 -63q0 -29 -12 -38q-13 -8 -28 -2q-16 6 -22 32q-6 27 -24 60q-18 31 -74 89v0v0zM442 982l60 -44h326l32 44
l66 -44q6 -6 6 -8q-1 -7 -34 -32v-140l4 -84q-1 -13 -16 -26q-12 -12 -42 -14v36h-350v-8q0 -19 -20 -28q-18 -10 -36 -10l4 112v246v0v0zM494 698h350v86h-350v-86v0v0zM494 812h350v98h-350v-98v0v0zM710 218l12 10q57 -48 76 -78q17 -28 20 -53q2 -21 -10 -34
q-12 -12 -32 -6q-20 3 -18 36q1 34 -10 59q-12 27 -38 66v0v0zM534 222l12 10q57 -48 76 -78q18 -28 18 -53q0 -21 -12 -34q-12 -11 -32 -8q-19 6 -16 38q3 34 -8 59q-12 27 -38 66v0v0zM32 670h150v300l80 -36q9 -4 10 -8q3 -1 -2 -10l-36 -16v-230h52l34 42l48 -48
q4 -3 8 -14q2 -7 -10 -8h-132v-310l158 60l8 -18q-187 -90 -244 -116q-57 -27 -80 -62l-50 62l156 58v326h-70q-16 0 -64 -8l-16 36v0v0z" />
  </g>

</svg>
