<?xml version="1.0" standalone="no"?>
<!DOCTYPE svg PUBLIC "-//W3C//DTD SVG 1.1//EN" "http://www.w3.org/Graphics/SVG/1.1/DTD/svg11.dtd" >
<svg xmlns="http://www.w3.org/2000/svg" xmlns:xlink="http://www.w3.org/1999/xlink" version="1.1" viewBox="0 -205 1024 1024">
  <g transform="matrix(1 0 0 -1 0 819)">
   <path fill="currentColor"
d="M458 912q13 -7 0 -16q-7 0 -22 -12l-22 -44h68v136l62 -22q26 -9 2 -18l-18 -12v-84h36l26 34l40 -40q10 -12 -4 -18h-98v-98h64l24 32l40 -38q2 -7 2 -10q1 -9 -10 -8h-70v-94l68 46l12 -14q-79 -67 -98 -106l-50 40l26 22v106h-70q-3 -72 -24 -120q-22 -48 -94 -86
l-6 14q47 42 62 82q12 38 18 110h-34q-19 0 -34 -6l-16 30h144v98h-78q-13 -30 -46 -78l-14 4q42 111 60 192l54 -22v0v0zM736 926q12 -10 -2 -16q-9 -3 -20 -20l-16 -44h62v136l68 -24q12 -9 -2 -18l-20 -14v-80h54l28 38l46 -44q10 -12 -4 -18h-124v-104h92l30 36l44 -46
q2 -3 2 -6q1 -9 -10 -8h-110v-82q0 -25 4 -34q2 -9 26 -8h32q23 3 28 28q6 23 6 68h18q0 -45 6 -62q5 -15 22 -24q-8 -21 -22 -32q-12 -12 -48 -14h-50q-21 0 -44 6q-21 15 -20 48v106h-62q-2 -57 -28 -104q-24 -48 -104 -80l-6 14q63 42 78 84q15 38 16 86h-16q-1 0 -10 -6
l-18 30h98v104h-68q-19 -48 -40 -78l-16 2q33 113 42 200l58 -20v0v0zM442 534l56 -32h340l22 22l56 -38q6 -6 6 -8q0 -6 -26 -18v-230l4 -48q-1 -12 -20 -20q-17 -8 -34 -10v36h-354v-14q0 -11 -18 -22q-18 -9 -36 -12l4 104v290v0v0zM492 214h354v70h-354v-70v0v0z
M492 310h354v72h-354v-72v0v0zM492 408h354v68h-354v-68v0v0zM310 35q119 40 278 141l56 -30q7 -5 0 -15q-25 -3 -34 -6q-9 0 -86 -36q-78 -35 -206 -70l-8 16v0v0zM708 152l6 16q97 -19 164 -39q66 -18 84 -40q18 -21 12 -42q-6 -18 -26 -18q-18 2 -32 18q-15 19 -78 52
q-62 34 -130 53v0v0zM76 962l58 -38h130l32 36l54 -40q12 -6 0 -18l-24 -18v-142l4 -76q0 -15 -20 -26q-19 -10 -34 -8v26h-50v-214h88l30 38q50 -44 52 -52q3 -6 0 -8q0 -1 -8 -4h-162v-222l136 48l8 -20q-229 -99 -254 -115q-24 -14 -44 -38l-42 56l44 17v396l64 -30
q7 -1 8 -10q-1 0 -4 -6l-20 -14v-320l54 20v478h-52v-24q2 -6 -16 -18q-18 -8 -38 -10l6 114v242v0v0zM124 686h152v210h-152v-210v0v0z" />
  </g>

</svg>
