<?xml version="1.0" standalone="no"?>
<!DOCTYPE svg PUBLIC "-//W3C//DTD SVG 1.1//EN" "http://www.w3.org/Graphics/SVG/1.1/DTD/svg11.dtd" >
<svg xmlns="http://www.w3.org/2000/svg" xmlns:xlink="http://www.w3.org/1999/xlink" version="1.1" viewBox="0 -36 256 256">
  <g transform="matrix(1 0 0 -1 0 220)">
   <path fill="currentColor"
d="M123 247l23 -7l-9 -6v-16h74l13 11l18 -18h-103q67 -16 81.5 -22.5t15.5 -18.5t-13 -1.5t-39.5 21t-46.5 17.5q0 -7 1 -30l-14 -6v36q-35 -30 -113 -47l-1 4q70 21 100 47h-56q-10 0 -20 -2l-11 9h101q0 16 -1 29zM37 155l23 -8l-9 -6v-47h46l7 10l16 -12l-9 -7
q0 -53 1 -73l-15 -4q1 15 1 49h-25q-8 -39 -60 -49l-2 3q42 15 47 46h-13q-11 0 -22 -2l-9 9h84v23h-46l-7 -4l-14 10l7 4q0 45 -1 58zM165 14l-16 -6q2 45 0 95l16 -6h42q0 43 -1 61l23 -8l-8 -7q0 -44 1 -54l-15 -6v7h-43v-23h51l9 8l16 -12l-11 -4q0 -32 1 -44l-16 -5
q1 14 1 50h-51q0 -33 1 -46zM94 143h77v19h-77v-19zM94 119h77v17h-77v-17zM187 108l-16 -5v9h-77v-4l-15 -5q1 16 1 33.5t-1 37.5l16 -5h74l9 8l18 -11l-10 -6q0 -43 1 -52z" />
  </g>

</svg>
