<?xml version="1.0" standalone="no"?>
<!DOCTYPE svg PUBLIC "-//W3C//DTD SVG 1.1//EN" "http://www.w3.org/Graphics/SVG/1.1/DTD/svg11.dtd" >
<svg xmlns="http://www.w3.org/2000/svg" xmlns:xlink="http://www.w3.org/1999/xlink" version="1.1" viewBox="0 -339 2048 2048">
  <g transform="matrix(1 0 0 -1 0 1709)">
   <path fill="currentColor"
d="M1336 1954l131 -55q34 -14 41 -26q3 -5 3 -11q0 -9 -9 -17q-13 -13 -35 -13h-58q-84 -107 -130 -154q-84 -85 -177 -140q-57 -35 -64 -40q-17 -12 -36 -22q345 19 388 22q132 10 331 30q-51 62 -86 94q-22 21 -92 76l27 31q119 -72 181 -114q69 -47 110 -89
q53 -52 72 -81q12 -17 16 -31q4 -15 4 -30q0 -30 -16 -50q-6 -8 -18 -14q-10 -5 -22 -5q-17 0 -27 8q-13 10 -26 35q-21 43 -42 73q-15 22 -46 58q-289 -51 -314 -55q-79 -12 -431 -50l-9 -32q-5 -20 -15 -27q-5 -3 -8 -3q-8 0 -17 8q-10 9 -16 22l-53 119q38 19 61 33
q86 56 150 115q95 88 178 225q27 45 41 77q5 12 13 33zM1037 1326l140 -56q16 -7 22 -20q3 -5 3 -8q0 -6 -6 -14q-11 -13 -30 -15l-44 -4q-26 -51 -54 -101h558l98 101l121 -106q10 -9 11.5 -11t3.5 -5q2 -5 2 -9q0 -10 -7 -17q-7 -9 -20 -9h-395l-4 -53q-12 -157 -17 -191
q-3 -30 -16 -115h357l98 101l121 -106q13 -12 15 -16q2 -5 2 -10q0 -9 -6 -16q-9 -10 -21 -10h-576q-15 -62 -29 -100q-42 -111 -114 -193q-62 -69 -163 -136q-92 -61 -198 -105q-50 -20 -140 -51l-13 40q126 57 195 98q138 82 225 179q71 79 106 172q14 39 27 96h-251
q-115 0 -171 -4q-10 -1 -21 -2l-42 87q30 -8 53 -11q74 -13 181 -13h262q11 64 16 104q4 38 13 156q4 49 5 99h-297q-16 -21 -24 -32q-41 -54 -61 -77t-49 -51q-31 -31 -88 -78l-27 29q42 46 73 90q73 103 115 202q32 77 61 191zM1500 564q74 -53 99 -72q19 -14 125 -103
q200 -165 200 -277q0 -21 -11 -39q-16 -25 -43 -25q-15 0 -27 9q-8 6 -13 13q-11 19 -25 56q-17 47 -42 87q-23 36 -67 94q-36 47 -74 86q-59 61 -152 143zM397 1451v332q0 116 -8 160l109 -24q59 -13 73 -23q13 -11 13 -22q0 -12 -10 -21q-13 -14 -40 -21l-39 -11v-370h60
l98 102l121 -107q13 -12 15 -16t2 -10q0 -9 -6 -16q-8 -10 -21 -10h-270v-177q35 -24 123 -95q58 -48 99 -97q26 -31 37 -53q16 -31 16 -61q0 -31 -20 -50q-12 -12 -26 -12q-20 0 -38 21q-10 12 -30 57q-52 117 -161 225v-788q0 -36 4 -106q4 -68 7 -103q4 -34 4 -50
q0 -46 -56 -46q-27 0 -41 11q-15 12 -15 31v1047q-27 -95 -50 -154q-57 -152 -151 -321q-44 -79 -80 -130q-7 -11 -22 -32l-32 23q37 58 64 115q47 99 97 235q47 131 77 266q32 142 42 209q4 23 6 35h-56q-115 0 -192 -8l-38 88q30 -7 52 -11q73 -12 178 -12h105z" />
  </g>

</svg>
