<?xml version="1.0" standalone="no"?>
<!DOCTYPE svg PUBLIC "-//W3C//DTD SVG 1.1//EN" "http://www.w3.org/Graphics/SVG/1.1/DTD/svg11.dtd" >
<svg xmlns="http://www.w3.org/2000/svg" xmlns:xlink="http://www.w3.org/1999/xlink" version="1.1" viewBox="0 -36 256 256">
  <g transform="matrix(1 0 0 -1 0 220)">
   <path fill="currentColor"
d="M120 196h-77q0 -10 -4 -17t-10.5 -8.5t-9 2.5t6 12t12.5 25h4l1 -7h77v23h-48q-10 -1 -19 -3l-9 10h142l13 11l17 -18h-81v-23h80l10 8l14 -15q-14 -2 -30 -20l-3 2l9 18h-80q0 -29 1 -30l-17 -7q1 6 1 37zM138 159l-5 -4q17 -14 47 -21.5t67 -7.5v-4q-16 -3 -20 -12
q-24 3 -53.5 14t-44.5 27q-42 -37 -119 -47v4q38 8 69.5 24.5t41.5 36.5zM120 135l22 -9l-6 -5v-11h43l12 10l16 -17h-71v-20h66l14 11l18 -18h-182q-10 0 -19 -2l-9 9h97v20h-42q-10 0 -20 -2l-9 9h71q0 12 -1 25zM197 14l-15 -5v9h-111v-5l-15 -5q1 18 1 27.5t-1 31.5
l14 -8h112l5 9l15 -11l-6 -6q0 -25 1 -37zM71 25h111v27h-111v-27zM176 176l14 11l17 -18h-123q-23 1 -29 -2l-10 9h131z" />
  </g>

</svg>
