<?xml version="1.0" standalone="no"?>
<!DOCTYPE svg PUBLIC "-//W3C//DTD SVG 1.1//EN" "http://www.w3.org/Graphics/SVG/1.1/DTD/svg11.dtd" >
<svg xmlns="http://www.w3.org/2000/svg" xmlns:xlink="http://www.w3.org/1999/xlink" version="1.1" viewBox="0 -205 1024 1024">
  <g transform="matrix(1 0 0 -1 0 819)">
   <path fill="currentColor"
d="M784 938q3 -4 4 -8q0 -4 -12 -10l-18 -12q3 -43 30 -128q26 -85 58 -136q30 -52 66 -88t90 -50v-16q-33 -3 -54 -6q-19 0 -44 -24q-45 56 -84 130q-37 71 -62 158q-25 83 -38 212l64 -22v0v0zM700 522q6 -4 4 -8q7 -1 -4 -8q-15 -3 -30 -12q-13 -9 -74 -150
q-60 -142 -108 -213l358 17q-30 87 -90 184l14 10q87 -108 118 -164q29 -56 32 -85q0 -27 -12 -42t-30 -12q-15 3 -18 24q-4 21 -10 66q-205 -21 -280 -34q-73 -13 -110 -44l-40 72q33 5 46 19q57 116 96 224q35 106 56 188l82 -32v0v0zM624 822q-15 -5 -36 -58
q-18 -54 -66 -156q-45 -102 -120 -194l-14 8q72 128 112 242q39 112 60 212q78 -30 82 -36q4 -5 2 -10q-3 -3 -20 -8v0v0zM218 980l68 -30q20 -6 20 -12q1 -6 -40 -30v-294q64 75 116 174q72 -39 70 -48q-3 -7 -8 -8q-6 1 -24 -4q-16 -6 -58 -50q-40 -43 -98 -94
q0 -114 -8 -198q54 -28 102 -70q47 -43 58 -70q10 -25 8 -46q-3 -19 -12 -28t-26 -6q-16 2 -26 44q-10 39 -34 78q-22 36 -74 78q-12 -102 -60 -186q-44 -82 -148 -161l-10 10q80 83 116 151q33 68 48 140q16 72 20 252v408v0v0zM126 736h16q12 -93 4 -156q-9 -61 -30 -82
q-20 -22 -40 -20q-21 3 -26 18q-5 16 12 32q17 15 38 58q20 42 26 150v0v0v0z" />
  </g>

</svg>
