<?xml version="1.0" standalone="no"?>
<!DOCTYPE svg PUBLIC "-//W3C//DTD SVG 1.1//EN" "http://www.w3.org/Graphics/SVG/1.1/DTD/svg11.dtd" >
<svg xmlns="http://www.w3.org/2000/svg" xmlns:xlink="http://www.w3.org/1999/xlink" version="1.1" viewBox="0 -36 256 256">
  <g transform="matrix(1 0 0 -1 0 220)">
   <path fill="currentColor"
d="M91 87l1 -5q-59 -32 -69 -41l-13 16q13 3 35 12v84h-2q-10 0 -19 -2l-9 9h30v43q0 13 -1 31l21 -10l-7 -6v-58h6l11 10l14 -17h-31v-80zM119 222q-10 0 -19 -2l-9 9h41l8 10l14 -13l-8 -5q-7 -29 -25 -52t-42 -36l-2 3q45 38 55 86h-13zM162 242q7 -21 13 -29
q14 11 25 30l13 -14l-7 -2q-14 -8 -29 -18q5 -11 12 -19q14 11 29 32l13 -14l-8 -2q-15 -9 -31 -20q20 -24 52 -28v-4q-15 1 -22 -10q-26 12 -42.5 39.5t-20.5 57.5zM101.5 187q-4.5 9 -16.5 21l2 2q17 -6 23.5 -11.5t1 -13t-10 1.5zM212 130.5q5 2.5 10.5 -6t-14.5 -8.5
h-26q-15 0 -15 17v25h-29q-1 -30 -15 -43t-39 -20l-1 3q22 10 33 24t8 53l13 -10h30l8 9l13 -14l-8 -5v-17q0 -10 8 -10q19 0 24 2.5zM153 55q18 15 34 36h-70q14 -19 36 -36zM162 47q16 -9 36.5 -14.5t43.5 -5.5v-4q-17 -1 -20 -13q-14 3 -32.5 10t-37.5 20
q-22 -15 -46 -22t-42 -8v4q14 3 36 11t43 23q-19 19 -32 43h-1l-7 -2l-8 9h95l9 8l11 -15l-9 -5q-20 -25 -39 -39z" />
  </g>

</svg>
