<?xml version="1.0" standalone="no"?>
<!DOCTYPE svg PUBLIC "-//W3C//DTD SVG 1.1//EN" "http://www.w3.org/Graphics/SVG/1.1/DTD/svg11.dtd" >
<svg xmlns="http://www.w3.org/2000/svg" xmlns:xlink="http://www.w3.org/1999/xlink" version="1.1" viewBox="0 -205 1024 1024">
  <g transform="matrix(1 0 0 -1 0 819)">
   <path fill="currentColor"
d="M414 618h100l20 26l38 -30q6 -3 6 -8q6 -12 -8 -12h-104q-18 0 -36 -8l-16 32v0v0zM430 542l40 -20h40l22 28l40 -28q7 -4 8 -10q-1 -6 -22 -20v-66l2 -38q0 -6 -12 -14q-10 -6 -28 -6v20h-52v-10q-1 -7 -16 -16q-13 -9 -26 -6l4 52v134v0v0zM468 410h52v90h-52v-90v0v0z
M38 292h110l-12 440l50 -34q42 23 94 68l42 -44q3 -10 -12 -10q-16 6 -124 -36l2 -104h60l30 36l36 -44q6 -9 -6 -14h-120l2 -114h68l24 32l32 -38q9 -7 0 -16h-122l4 -122h148v470l52 -26h188l32 30l56 -38q7 -7 2 -14l-30 -22v-398h156l4 112h-70q-25 -1 -38 -10l-20 32
h128l2 118h-76q-22 -4 -28 -10l-24 34h128l2 108h-72q-23 -1 -34 -8l-24 32h122l30 38l52 -44q9 -9 4 -18l-30 -24l-8 -362h54l30 40q52 -46 56 -52q3 -7 -8 -14h-868q-33 0 -48 -12l-26 38v0v0zM388 294h212v416h-212v-416v0v0zM248 109q-61 -36 -182 -90l-6 16
q113 64 176 112q60 43 94 83q63 -46 64 -52q0 -6 -8 -6q-6 0 -24 -6t-36 -14q-15 -5 -78 -43v0v0zM656 216q108 -41 154 -64q42 -20 64 -45q21 -24 18 -48q-3 -22 -24 -26q-20 -3 -40 26q-20 31 -52 58q-33 28 -126 85l6 14v0v0zM342 982l74 -28q7 -4 2 -10q1 0 -28 -20v-44
h252v98l74 -28q3 -3 4 -8q-4 -6 -28 -18v-44h194l40 48l60 -62q3 -1 4 -8q-1 -6 -16 -6h-282v-38q0 -12 -12 -20q-9 -6 -18 -8q-7 -3 -20 -2v68h-252v-38q0 -12 -8 -18q-7 -5 -16 -10q-9 -3 -24 -2v68h-202q-22 -1 -70 -10l-18 38h290v102v0v0z" />
  </g>

</svg>
