<?xml version="1.0" standalone="no"?>
<!DOCTYPE svg PUBLIC "-//W3C//DTD SVG 1.1//EN" "http://www.w3.org/Graphics/SVG/1.1/DTD/svg11.dtd" >
<svg xmlns="http://www.w3.org/2000/svg" xmlns:xlink="http://www.w3.org/1999/xlink" version="1.1" viewBox="0 -205 1024 1024">
  <g transform="matrix(1 0 0 -1 0 819)">
   <path fill="currentColor"
d="M38 946h234l32 44l50 -54q3 -3 4 -6q0 -10 -12 -10h-232q-19 0 -56 -8l-20 34v0v0zM374 944h200l32 40q63 -52 64 -56q0 -10 -12 -10h-198q-19 0 -68 -8l-18 34v0v0zM84 892l46 -32h134l24 28l46 -34q6 -4 6 -8q0 -7 -24 -22v-104l4 -30q0 -12 -18 -24q-18 -9 -36 -12
l4 68v112h-140v-94l4 -40q-1 -16 -22 -28q-21 -10 -32 -10l4 78v152v0v0zM396 886l46 -30h104l22 30l54 -36q6 -4 6 -8q0 -6 -26 -24v-74l4 -44q0 -12 -18 -24q-18 -9 -36 -12l4 82v84h-114v-88l4 -40q-1 -16 -22 -28q-21 -10 -32 -10l4 78v144v0v0zM566 618l32 42l56 -50
q3 -3 4 -8q-1 -7 -4 -8h-206v-82h92l30 30l48 -32q7 -6 8 -12q0 -3 -26 -20v-68l4 -42q0 -12 -12 -20q-10 -6 -38 -12v34h-414q1 -100 -24 -178q-27 -77 -80 -143l-12 10q41 78 56 159q15 80 16 176v254l54 -30h416v0v0zM142 394h108v94h-108v-94v0v0v0zM294 394h104v94
h-104v-94v0v0zM448 394h106v94h-106v-94v0v0zM398 512v82h-104v-82h104v0v0zM250 512v82h-106v-82h106v0v0zM392 356l74 -26q9 -9 -2 -14l-24 -12v-64q66 36 132 82q45 -36 46 -42q1 -7 -6 -8h-16q-8 1 -52 -16q-42 -15 -104 -38v-46q0 -32 12 -33q12 -3 24 -4h74
q18 -1 24 25q5 23 10 80h16q4 -48 8 -62q3 -14 30 -28q-7 -23 -22 -37q-12 -14 -48 -20h-92q-30 0 -48 6q-19 4 -28 20q-7 14 -8 55v182v0v0zM198 356l66 -24q15 -6 6 -14l-26 -12v-34h56l30 36l44 -46q7 -9 0 -14h-130v-106l118 54l12 -14q-93 -53 -120 -77
q-28 -23 -46 -46l-48 50q23 13 38 28v219v0v0zM448 794l8 10q45 -28 60 -46q16 -16 14 -34q1 -16 -10 -22q-8 -7 -22 -4q-12 2 -14 16q-3 12 -8 30q-4 17 -28 50v0v0zM320 718l8 6q36 -25 48 -40q13 -16 12 -32q-1 -15 -10 -24q-9 -7 -20 -4q-12 3 -14 16q-3 12 -6 30
q0 15 -18 48v0v0zM156 802l8 8q45 -27 60 -44q16 -17 14 -34q1 -15 -10 -24q-8 -7 -22 -4q-12 3 -14 16q-3 13 -8 32q-4 17 -28 50v0v0zM930 926q13 -9 12 -14q-2 -3 -22 -6q-13 -3 -38 -30q-108 -115 -216 -194l-12 12q78 84 132 148q53 64 80 128l64 -44v0v0zM992 354
q6 -9 4 -12q-3 -4 -18 -4q-24 -3 -54 -44q-31 -39 -124 -128q-91 -85 -250 -149l-6 16q117 58 222 161q102 102 162 208l64 -48v0v0zM888 672q78 -48 72 -56q-6 -9 -12 -8q-23 -3 -52 -30q-105 -113 -224 -196l-10 16q86 88 140 146q53 58 86 128v0v0z" />
  </g>

</svg>
