<?xml version="1.0" standalone="no"?>
<!DOCTYPE svg PUBLIC "-//W3C//DTD SVG 1.1//EN" "http://www.w3.org/Graphics/SVG/1.1/DTD/svg11.dtd" >
<svg xmlns="http://www.w3.org/2000/svg" xmlns:xlink="http://www.w3.org/1999/xlink" version="1.1" viewBox="0 -205 1024 1024">
  <g transform="matrix(1 0 0 -1 0 819)">
   <path fill="currentColor"
d="M834 930q70 -64 68 -70q-1 -6 -4 -8q-4 0 -28 -6q-21 -6 -60 -36q-36 -30 -108 -102q24 -30 22 -50q0 -18 -8 -30q-6 -12 -26 -12q-21 -1 -30 34q-10 34 -38 68q-28 33 -76 72l8 12q39 -17 76 -40t56 -40l112 148h-302q-16 0 -38 -8l-32 36h374l34 32v0v0zM398 594h482
l28 32q73 -53 74 -58q-1 -3 -4 -6t-26 -8q-22 -3 -50 -32q-28 -27 -80 -90l-18 8l74 126h-172v-439q3 -49 -18 -74q-18 -24 -60 -36q-10 33 -34 50q-24 16 -108 40l4 18q132 -30 150 -22q19 7 18 45v418h-186q-22 0 -44 -8l-30 36v0v0zM332 938q9 -6 -2 -14q-22 -1 -34 -14
t-62 -80q-51 -67 -108 -146l160 -6q59 84 86 136l64 -50q5 -13 -10 -16q-19 -3 -28 -8q-10 -4 -80 -94q-70 -87 -170 -198l238 8q-15 48 -62 106l10 12q69 -55 94 -88q24 -31 28 -58q1 -24 -10 -36q-10 -12 -22 -12q-9 -1 -18 8q-6 9 -8 18q0 8 -6 28q-117 -12 -180 -24
q-60 -11 -96 -34l-40 72q29 5 50 16q54 63 150 192q-93 -3 -126 -12q-31 -9 -64 -26l-34 66q24 2 42 10q15 9 78 114q61 105 92 174l68 -44v0v0zM126 332h22q6 -85 0 -146q-6 -59 -26 -83q-21 -24 -36 -28t-30 4q-12 7 -12 22q-1 15 20 32q19 17 32 45q12 27 18 54t12 100v0
v0zM216 344l16 6q54 -75 66 -114q13 -39 8 -68q-4 -27 -22 -33q-18 -5 -32 4q-15 8 -8 37q6 27 0 72q-7 45 -28 96v0v0zM336 364l14 8q74 -78 92 -114q15 -36 12 -60t-18 -32q-16 -7 -32 2q-15 9 -14 36q1 26 -10 62q-10 34 -44 98v0v0z" />
  </g>

</svg>
