<?xml version="1.0" standalone="no"?>
<!DOCTYPE svg PUBLIC "-//W3C//DTD SVG 1.1//EN" "http://www.w3.org/Graphics/SVG/1.1/DTD/svg11.dtd" >
<svg xmlns="http://www.w3.org/2000/svg" xmlns:xlink="http://www.w3.org/1999/xlink" version="1.1" viewBox="0 -205 1024 1024">
  <g transform="matrix(1 0 0 -1 0 819)">
   <path fill="currentColor"
d="M908 636l28 28q61 -62 62 -70q0 -10 -14 -10q-29 -3 -46 -14q-16 -9 -88 -74l-14 12l74 102h-428q0 -54 -14 -78q-13 -24 -34 -32q-21 -7 -32 4q-12 9 -6 24q6 12 24 30q15 14 24 38q6 21 16 90h18l2 -50h428v0v0zM576 972l76 -32q6 0 6 -6q0 -3 -32 -18v-98h128v148
l78 -30q6 -1 6 -8q1 -3 -34 -20v-90h76l42 48l58 -60q3 -1 4 -8q0 -6 -14 -6h-166v-32l2 -64q-1 -15 -22 -24q-21 -6 -32 -6l2 94v32h-128v-38l2 -52q-1 -13 -16 -22q-12 -9 -38 -8l2 84v36h-72q-21 -1 -68 -10l-18 36h158v154v0v0zM620 584l78 -28q6 -3 6 -6q-1 -9 -34 -26
l-6 -94h142l38 42l56 -50q6 -4 6 -10q1 -4 -34 -20v-150q-6 -96 -24 -137q-18 -39 -80 -64q-8 33 -40 50q-31 15 -94 38l6 17q92 -24 122 -27q31 1 44 23q15 24 18 106v156h-164q-6 -69 -32 -140q-25 -72 -100 -139q-72 -70 -200 -92l-4 12q119 46 178 107q59 60 80 126
q21 63 28 126h-100q-32 0 -52 -8l-22 34h178l6 154v0v0v0zM196 960l76 -34q9 -4 4 -10q0 -1 -6 -4l-26 -16v-588l82 14v450l74 -30q8 -3 8 -6q0 -4 -6 -10l-28 -16v-392l4 -66q1 -13 -16 -26q-18 -10 -36 -10v84q-138 -31 -170 -44q-30 -12 -66 -44l-50 56q36 18 36 36v488
l68 -34q14 -6 14 -12q1 -3 -34 -18v-440l72 14v658v0v0z" />
  </g>

</svg>
