<?xml version="1.0" standalone="no"?>
<!DOCTYPE svg PUBLIC "-//W3C//DTD SVG 1.1//EN" "http://www.w3.org/Graphics/SVG/1.1/DTD/svg11.dtd" >
<svg xmlns="http://www.w3.org/2000/svg" xmlns:xlink="http://www.w3.org/1999/xlink" version="1.1" viewBox="0 0 2048 2048">
  <g transform="matrix(1 0 0 -1 0 2048)">
   <path fill="currentColor"
d="M781 1579l61 72l72 -49q18 -13 29 -24t13 -22t-8 -23q-4 -4 -30 -19l-26 -14v-239l31 -21q14 -10 23 -22q8 -12 4 -25q-5 -13 -21 -13h-352v-288h249l61 71l72 -49q18 -13 29 -24t13 -22t-8 -23q-4 -5 -30 -19l-27 -14q-9 -77 -13 -114l-8 -64q-5 -41 -10 -70t-26 -80
q-21 -52 -49 -76q-27 -23 -54 -35q-26 -12 -34 -13l-34 -6v18q-1 11 -6 30q-4 19 -22 34t-44 26l-36 15l15 42q22 -7 34 -10l47 -12q28 -9 44 -9q16 1 34 17q19 16 30 65q12 50 14 62q1 13 8 77l8 72l4 55h-261v-482q0 -35 5 -112q4 -77 8 -112q4 -34 3 -49q-2 -11 -5 -19
q-4 -9 -14 -16q-11 -6 -31 -6q-22 -1 -35 4q-13 4 -21 14q-8 9 -8 23v615l-55 -92l-57 -94q-24 -37 -67 -90q-43 -54 -86 -100q-42 -45 -78 -77l-46 -42l-22 29l53 64l51 66q27 35 64 92q36 58 70 118q33 60 60 120q28 59 44 103l15 43h-210q-18 -7 -28 -10q-10 -2 -23 -1
q-15 0 -24 6q-10 6 -12 15t2 26l11 63l27 153q3 18 11 88t9 73l4 52l104 -64h183v284h-189q-28 0 -58 -3q-32 -2 -42 -3t-25 -2l-24 -3l-38 85q26 -4 52 -7q26 -4 34 -4q9 -1 49 -3q42 -2 52 -2h491zM798 1521h-221v-284h221v284zM479 892v288h-200q-8 -48 -10.5 -66
t-26.5 -154l-12 -68h249zM727 1911l105 -52q19 -10 31 -19q12 -10 13 -22q0 -11 -13 -17t-37 -8l-35 -3l-27 -36q-13 -17 -46 -53q-34 -36 -45 -46l-52 -46l-30 27l37 60q18 28 42 72q24 45 38 87zM251 1906l48 -34l40 -31q21 -17 39 -37q19 -19 32 -36t24 -42q10 -26 6 -50
q-4 -23 -19 -36t-36 -14q-21 0 -35 24q-5 8 -11 35t-14 51t-27 56q-18 31 -31 47l-36 43zM1117 1882l118 -64h479l61 72l72 -50q20 -15 29 -24q10 -10 12 -22q2 -11 -7 -22q-1 -1 -31 -19l-27 -15v-172q0 -12 3 -54q3 -43 5 -64q2 -20 2 -30q-2 -19 -11 -32q-10 -13 -45 -17
q-22 -3 -35 5q-14 7 -13 20l1 35h-517v-22q0 -14 -5 -22q-6 -8 -24 -13q-17 -6 -40 -4q-12 0 -22 5q-9 5 -14 16q-4 11 -2 31q0 11 2 52q3 41 6 84q4 44 4 61zM1213 1487h517v273h-517v-273zM1068 1295l118 -61h580l61 71l72 -49q18 -13 29 -24t13 -22t-8 -23l-30 -19
l-32 -19l1 -613q0 -11 3 -54t5 -64q3 -20 2 -30q-2 -19 -12 -30q-10 -12 -40 -16q-29 -5 -40 2q-10 8 -10 29l-2 44h-445l69 -40q28 -17 42 -30q13 -13 8 -26q-5 -12 -18 -13.5t-54 -1.5h-19q-57 -59 -103 -100q-46 -40 -122 -86q-76 -47 -123 -65l-61 -25l-15 34l77 46
q40 24 91 65t103 99q53 59 75 96l28 47h-149v-36q0 -14 -6 -22t-22 -14q-17 -6 -41 -3q-12 0 -21 5q-10 5 -14 15q-5 11 -3 32q0 8 2 49t5 85q4 44 5 63zM1162 475h616v194h-616v-194zM1162 727h616v198h-616v-198zM1162 982h616v195h-616v-195zM1543 359l77 -23
q43 -13 100 -34q58 -20 108 -46t84 -54q33 -29 48 -59q16 -30 8 -55q-9 -25 -26 -32q-17 -6 -32 0q-14 4 -30 23l-42 49q-22 23 -58 52q-35 28 -88 60q-52 33 -112 62l-46 22z" />
  </g>

</svg>
