<?xml version="1.0" standalone="no"?>
<!DOCTYPE svg PUBLIC "-//W3C//DTD SVG 1.1//EN" "http://www.w3.org/Graphics/SVG/1.1/DTD/svg11.dtd" >
<svg xmlns="http://www.w3.org/2000/svg" xmlns:xlink="http://www.w3.org/1999/xlink" version="1.1" viewBox="0 -36 256 256">
  <g transform="matrix(1 0 0 -1 0 220)">
   <path fill="currentColor"
d="M72 234l-11 -18h47l12 11l16 -18h-61q17 -6 22.5 -10t6 -7t-4.5 -10.5t-8.5 -0.5t-8.5 13t-14 15h-12q-13 -20 -39 -36l-2 2q15 15 27 33t18 38l22 -10zM169 233l-11 -16h53l11 10l16 -17h-60q19 -9 23.5 -13t4 -8t-6 -9t-9.5 5.5t-19 24.5h-16q-10 -16 -26 -30l-3 3
q16 23 23 40t9 26l22 -13zM100 97h58v20h-58v-20zM41 178l14 -7h143l9 12l16 -14l-8 -7v-75l-13 -5v82h-145v-33q29 4 36.5 13.5t6.5 22.5h15q-1 -12 -4.5 -20.5t-15 -14.5t-38.5 -8v-38l-16 -7q5 80 0 99zM155 149.5q3 -5.5 19 -6t31 -0.5v-12q-24 0 -40.5 1.5t-20.5 7
t-4 11v16.5h13q-1 -12 2 -17.5zM172 89l-14 -4v5h-58v-4l-14 -4q1 12 1 24.5t-1 24.5l14 -7h58l6 10l15 -14l-8 -7q0 -17 1 -24zM139 79q-7 -4 -10 -11h82l14 12l16 -19h-114q-10 -21 -37 -35t-75 -19v5q42 7 65 20t32 29h-65q-13 0 -22 -3l-10 10h100q3 9 5 21zM140 54
q72 -17 79.5 -24.5t5.5 -18t-16.5 3.5t-69.5 35z" />
  </g>

</svg>
