<?xml version="1.0" standalone="no"?>
<!DOCTYPE svg PUBLIC "-//W3C//DTD SVG 1.1//EN" "http://www.w3.org/Graphics/SVG/1.1/DTD/svg11.dtd" >
<svg xmlns="http://www.w3.org/2000/svg" xmlns:xlink="http://www.w3.org/1999/xlink" version="1.1" viewBox="0 -36 256 256">
  <g transform="matrix(1 0 0 -1 0 220)">
   <path fill="currentColor"
d="M33.5 141.5q-2.5 -8.5 -11 -11t-10.5 1.5t6 13t13 42h4q1 -37 -1.5 -45.5zM44 246l22 -13l-8 -9v-171q0 -22 1 -36l-15 -10q1 36 1 58v127q0 29 -1 54zM81.5 178.5q5.5 -7.5 3.5 -15t-7.5 -10t-7 11t-9.5 32.5l3 2q12 -13 17.5 -20.5zM107 167h30v18h-30v-18zM84.5 70
q8.5 30 9 80.5t-1.5 72.5l15 -9h55q-3 18 -19 31l2 2q23 -8 28 -16t-4 -17h40l13 11l18 -18h-55v-15h26l9 8l13 -13l-8 -4q0 -10 2 -22l-14 -6v5h-37l15 -4l-7 -7v-13q23 11 30 18l8 -14q-12 -1 -38 -8v-5q0 -8 11 -7h20q9 0 11 6t2 17h4q0 -10 2.5 -16t8.5 -8
q-7 -9 -21 -10h-33q-19 -2 -17 17v34h-47l15 -4l-7 -5v-6h13l8 7l11 -14h-32v-15l32 10l1 -4q-30 -13 -39 -24l-11 13q6 5 5 14v28h-14q-1 -63 -12 -94t-31 -53l-3 2q15 25 23.5 55zM107 192h30v15h-30v-15zM149 192h24v15h-24v-15zM185 167h28v18h-28v-18zM149 167h24v18
h-24v-18zM143.5 94.5q6.5 -4.5 5.5 -10.5t-5 -8.5t-7.5 5.5t-16.5 20l1 3q16 -5 22.5 -9.5zM176 15l-16 -6q2 26 2 53q-18 -21 -36.5 -32.5t-38.5 -17.5l-1 3q29 15 42.5 29t21.5 24h-13q-16 0 -25 -2l-9 9h59q0 18 -1 38l21 -9l-7 -8v-21h14q13 21 16 31l17 -12
q-10 -2 -28 -19h22l12 10l16 -17h-60q9 -11 23 -22t38 -17v-4q-12 -1 -20 -9q-11 7 -24.5 20t-22.5 32h-3q0 -38 1 -53z" />
  </g>

</svg>
