<?xml version="1.0" standalone="no"?>
<!DOCTYPE svg PUBLIC "-//W3C//DTD SVG 1.1//EN" "http://www.w3.org/Graphics/SVG/1.1/DTD/svg11.dtd" >
<svg xmlns="http://www.w3.org/2000/svg" xmlns:xlink="http://www.w3.org/1999/xlink" version="1.1" viewBox="0 -200 1000 1000">
  <g transform="matrix(1 0 0 -1 0 800)">
   <path fill="currentColor"
d="M132 747h350l25 37l61 -43q8 -5 6 -8q-1 -2 -12 -2h-195l-49 -71h143l35 35l43 -47q4 -5 4 -8q-1 -4 -7 -5l-20 -8v-245h68l32 39l66 -49q8 -5 7 -8q-2 -2 -13 -2h-214q33 -42 71 -70q42 -33 76 -46q36 -15 82 -19l2 -15q-52 -1 -60 -28q-72 32 -129 90q-38 39 -68 88
h-140q-108 -126 -282 -164v11q144 56 229 153h-121q-27 1 -44 -13l-33 33h149v257q3 21 -18 42l15 12l32 -33h66l33 71h-112q-27 1 -44 -13zM869 898q-2 24 -25 44l8 11l84 -37q18 -8 7 -14q-18 -4 -31 -15v-735q1 -68 -14 -87q-17 -20 -83 -36q-3 29 -26 40q-21 11 -85 31
l4 15l41 -9q127 -34 120 44v748zM498 234q-4 -79 -12 -118q-10 -42 -35 -62q-29 -23 -77 -25q1 32 -72 55l2 14q37 -11 84 -16q43 -7 53 37q13 45 14 128h-121q-31 -89 -86 -136q-63 -55 -194 -71v13q123 35 171 86q38 36 64 108h-31q-24 -3 -35 -15l-30 35h251l24 22
l42 -27q9 -6 9 -11q0 -4 -9 -8zM694 806l83 -35q12 -5 5 -11q-20 -7 -29 -21v-407l2 -56q3 -35 -48 -43q5 37 7 133v383q2 14 -29 45zM674 828q2 -6 -1 -7q-3 -2 -9 0q-24 7 -86 -60l-13 6l35 65h-465q-1 -20 -6 -34q-8 -45 -37 -68q-33 -24 -46 1q-5 12 15 31q52 48 60 132
h15v-42h467l27 24zM233 549v-76h244v76h-244zM233 640v-75h244v75h-244zM233 457v-75h244v75h-244zM246 966l4 10q93 -15 120 -53q26 -44 -10 -56q-17 -1 -22 20q-4 23 -28 43q-24 21 -64 36z" />
  </g>

</svg>
