<?xml version="1.0" standalone="no"?>
<!DOCTYPE svg PUBLIC "-//W3C//DTD SVG 1.1//EN" "http://www.w3.org/Graphics/SVG/1.1/DTD/svg11.dtd" >
<svg xmlns="http://www.w3.org/2000/svg" xmlns:xlink="http://www.w3.org/1999/xlink" version="1.1" viewBox="0 -154 1024 1024">
  <g transform="matrix(1 0 0 -1 0 870)">
   <path fill="currentColor"
d="M561 856l36 -40h239l25 31l39 -33q12 -11 -5 -15l-11 -13v-138l3 -63q-2 -34 -41 -33v37h-241v-8q1 -38 -44 -44q4 37 6 124v142q2 16 -17 37zM112 856l36 -40h238l25 31l39 -33q12 -11 -5 -15l-11 -13v-138l3 -63q-2 -34 -41 -33v37h-240v-8q1 -38 -44 -44q4 37 6 124
v142q2 16 -17 37zM138 510l38 -32h604l33 32l46 -33q15 -14 -2 -17l-22 -13v-71q6 -151 33 -205q27 -55 57 -78q30 -25 37 38l17 92l16 -2q-15 -129 -15 -149q1 -19 11 -32q19 -25 -18 -22q-45 0 -121 101q-59 116 -57 276v65h-603v-44q3 -142 -31 -245q-35 -103 -146 -164
l-8 11q100 80 125 168q24 87 20 236v35q-6 23 -23 44zM237 271h235v110q2 16 -25 42l8 11l82 -34q14 -5 6 -11q-16 -5 -27 -18v-100h139l26 34l62 -40q17 -10 -6 -10h-221v-171h236l28 36l54 -40q18 -12 -6 -12h-597q-27 1 -45 -13l-34 29h320v171h-156q-27 1 -45 -13z
M846 699h-241v-94h241v94zM396 699h-240v-94h240v94zM605 800v-87h241v87h-241zM156 800v-87h240v87h-240zM64 932h751l45 51l87 -55q20 -15 -13 -14h-790q-28 0 -48 -12z" />
  </g>

</svg>
