<?xml version="1.0" standalone="no"?>
<!DOCTYPE svg PUBLIC "-//W3C//DTD SVG 1.1//EN" "http://www.w3.org/Graphics/SVG/1.1/DTD/svg11.dtd" >
<svg xmlns="http://www.w3.org/2000/svg" xmlns:xlink="http://www.w3.org/1999/xlink" version="1.1" viewBox="0 -205 1024 1024">
  <g transform="matrix(1 0 0 -1 0 819)">
   <path fill="currentColor"
d="M570 754l56 -40q8 -6 8 -12q0 -3 -12 -8q-4 -3 -28 -18q-63 -110 -114 -166q-52 -56 -130 -112l-10 12q75 75 118 132q41 55 92 158h-110q-33 0 -50 -8l-24 34h186l18 28v0v0zM664 732l16 4q16 -30 38 -60q51 44 96 98l50 -38q8 -7 -4 -14q-18 2 -54 -16q-33 -18 -78 -48
q27 -42 60 -74q48 51 90 102l46 -42q7 -9 -4 -12q-15 0 -30 -6q-13 -5 -88 -58q47 -42 86 -60q36 -18 94 -26v-16q-36 -1 -54 -8q-15 -6 -30 -24q-49 33 -86 66q-36 29 -80 92q-45 62 -68 140v0v0zM362 664l8 10q57 -24 72 -42q15 -19 16 -34t-10 -26q-9 -9 -24 -6
q-13 2 -16 20q-1 15 -10 34q-6 16 -36 44v0v0zM712 468l30 42l56 -50q2 -3 2 -8q0 -12 -8 -12h-140q-3 -75 -14 -132h158l42 48l64 -58q3 -3 4 -6q0 -10 -12 -10h-262q-37 -100 -116 -165t-200 -106l-6 16q119 58 182 117q60 60 90 138h-130q-21 0 -68 -8l-16 34h220
q11 57 14 132h-56q-15 0 -54 -8l-22 36h242v0v0zM674 228l8 14q80 -40 128 -70q47 -30 74 -57q24 -27 22 -54q-3 -24 -26 -28q-21 -2 -38 28q-15 33 -56 74q-40 41 -112 93v0v0zM100 740l56 -32h108l20 30l58 -32q6 -6 6 -8q0 -6 -26 -32v-452l4 -77q0 -12 -18 -22
q-15 -8 -36 -10v59h-124v-73q0 -12 -20 -24q-19 -12 -32 -12l4 117v568v0v0zM148 190h124v154h-124v-154v0v0zM148 370h124v140h-124v-140v0v0zM148 536h124v146h-124v-146v0v0zM346 984l74 -28q7 -4 2 -10q1 0 -28 -20v-56h224v110l74 -28q3 -3 4 -8q-4 -6 -28 -18v-56h202
l40 48l60 -62q3 -1 4 -8q-1 -6 -16 -6h-290v-54q0 -12 -12 -20q-9 -6 -18 -8q-7 -3 -20 -2v84h-224v-54q0 -12 -8 -18q-7 -5 -16 -10q-9 -3 -24 -2v84h-214q-22 -1 -70 -10l-18 38h302v114v0v0z" />
  </g>

</svg>
