<?xml version="1.0" standalone="no"?>
<!DOCTYPE svg PUBLIC "-//W3C//DTD SVG 1.1//EN" "http://www.w3.org/Graphics/SVG/1.1/DTD/svg11.dtd" >
<svg xmlns="http://www.w3.org/2000/svg" xmlns:xlink="http://www.w3.org/1999/xlink" version="1.1" viewBox="0 -36 256 256">
  <g transform="matrix(1 0 0 -1 0 220)">
   <path fill="currentColor"
d="M166 212l23 -9l-8 -8v-90q0 -14 1 -32l-16 -6l1 25q0 104 -1 120zM216 247l23 -11l-8 -8v-186q0 -25 -24 -34q-2 8 -8.5 12t-24.5 6v6q22 -2 33 -1.5t10 15.5v165q0 18 -1 36zM45 198v-81h83l6 10l16 -14l-8 -6q-2 -54 -6.5 -73t-28.5 -26q-2 8 -9.5 12t-25.5 7v6
q41 -6 45.5 -0.5t6.5 19.5t4 58h-83l-8 -9l-14 12l8 7v58q0 17 -1 35l16 -8h11q10 27 12 41l19 -10l-7 -5l-17 -26h47l7 12l17 -12l-8 -8q-2 -42 -6.5 -51.5t-18.5 -15.5q-3 14 -30 19v4q32 -4 35.5 0t5.5 45h-68zM115 89l2 -5q-81 -27 -95 -37l-13 18q25 2 106 24z" />
  </g>

</svg>
