<?xml version="1.0" standalone="no"?>
<!DOCTYPE svg PUBLIC "-//W3C//DTD SVG 1.1//EN" "http://www.w3.org/Graphics/SVG/1.1/DTD/svg11.dtd" >
<svg xmlns="http://www.w3.org/2000/svg" xmlns:xlink="http://www.w3.org/1999/xlink" version="1.1" viewBox="0 -205 1048 1024">
  <g transform="matrix(1 0 0 -1 0 819)">
   <path fill="currentColor"
d="M456 753l72 5l11 14q21 28 61.5 88t64.5 114l42 -21q26 -12 23 -18q-4 -10 -37 -3q-36 -54 -77.5 -103t-61.5 -71l301 22l-34 31l-43 31l5 11q81 -37 131 -73q34 -27 38 -56q1 -26 -8 -32q-10 -6 -26 13l-21 30q-15 16 -31 32l-362 -48q-17 -32 -23 -33q-7 -2 -16 35z
M866 578l49 48l62 -48q12 -10 7 -14q-6 -3 -20 -3h-298q-26 -57 -61 -114l-3 -4h224l39 32l46 -37q19 -17 17 -23q-3 -8 -47 -8q-39 -63 -72.5 -103.5t-70.5 -69.5q55 -50 118.5 -79t136.5 -41l2 -12q-25 -4 -43 -15q-19 -12 -24 -28q-60 24 -111 60.5t-104 92.5
q-66 -49 -138.5 -87.5t-164.5 -62.5l-4 9q64 23 142 69t137 100q-30 33 -61 85q-27 45 -46 84q-60 -85 -144 -152l-6 9q78 77 140 188q28 50 52 107h-88l-99 -3l-12 24l106 -4h100q24 65 46 141l46 -21q25 -12 25 -20q0 -11 -36 -8q-15 -47 -35 -92h193zM597 428
q20 -42 52 -89.5t59 -79.5q30 27 59.5 67t60.5 102h-231zM100 822q15 -7 31 -16q12 -8 25 -18q16 30 33 70q11 24 33 77l17 38l40 -23q35 -22 20 -28q-11 -5 -34 -1q-13 -16 -29 -39q-9 -13 -28 -42l-40 -60q28 -26 39 -38q12 -15 15 -32q-1 -29 -14 -32q-14 -3 -23 17
q-15 31 -31 52q-23 33 -60 65zM386 815q24 -19 21 -25q-5 -6 -46 -1l-48 -62q-58 -76 -81 -107q-38 -50 -47 -65l143 10l-16 36q-11 24 -24 51l7 4q44 -43 71 -90q26 -45 23 -71q-4 -29 -21 -34q-16 -5 -19 26l-8 29l-9 37l-23 -4l-42 -10q11 -8 11 -14q-1 -7 -20 -7v-411
q1 -18 -3 -25q-5 -11 -30 -20q-12 -2 -15 1q-2 3 -1 18l1 16v434l-106 -18q-7 -26 -12 -30q-8 -6 -17 24l-14 45l107 3l51 85q42 68 63 103q37 60 63 98zM299 444q62 -90 82 -147q12 -37 7 -64q-8 -27 -23 -25q-13 2 -16 25l-4 21q-5 33 -13 61q-14 50 -43 122zM51 104
q22 75 37 148q15 74 27 181l52 -21q28 -13 21 -20q-3 -3 -24 -5l-8 -1q-17 -75 -40 -144t-55 -141z" />
  </g>

</svg>
