<?xml version="1.0" standalone="no"?>
<!DOCTYPE svg PUBLIC "-//W3C//DTD SVG 1.1//EN" "http://www.w3.org/Graphics/SVG/1.1/DTD/svg11.dtd" >
<svg xmlns="http://www.w3.org/2000/svg" xmlns:xlink="http://www.w3.org/1999/xlink" version="1.1" viewBox="0 -205 1024 1024">
  <g transform="matrix(1 0 0 -1 0 819)">
   <path fill="currentColor"
d="M668 634q-18 -24 -44 -62h146l42 46l58 -52q4 -3 8 -12q2 -10 -10 -10h-336v-104h188l36 48l56 -54q3 -2 4 -10q0 -10 -12 -10h-272v-114h294l36 50l60 -58q3 -3 4 -6q0 -13 -12 -14h-752q-21 0 -68 -6l-16 34h402v114h-200q-19 0 -68 -8l-16 34h284v104h-258
q-21 0 -68 -8l-16 36h458q26 66 50 150q78 -36 78 -42q1 -7 -4 -10q-3 -3 -18 -8q-16 -2 -34 -28v0v0zM306 696l10 8q50 -18 70 -32q21 -12 30 -30t-2 -36q-12 -18 -30 -18q-19 -1 -22 22t-14 40q-12 15 -42 46v0v0zM190 232h18q-9 -91 -24 -127t-36 -54t-42 -22t-32 4
q-13 9 -10 26q0 18 30 30q27 12 54 42q24 28 42 101v0v0zM338 216l12 8q57 -57 78 -85q21 -30 24 -54q1 -23 -12 -38q-15 -15 -32 -10q-18 5 -18 30q1 24 -10 62q-12 35 -42 87v0v0zM764 228l10 12q107 -57 142 -90q33 -31 36 -61q4 -30 -10 -42q-15 -12 -32 -10
q-18 3 -24 32q-6 30 -30 66q-24 35 -92 93v0v0zM566 214l12 10q66 -60 84 -84q17 -22 20 -47q4 -23 -10 -38q-12 -13 -32 -8q-18 1 -20 26q-1 24 -10 56q-10 28 -44 85v0v0zM460 772v-6q-4 -6 -26 -8q-22 0 -122 -38q-100 -37 -262 -82l-6 16q152 60 230 96t120 66l66 -44v0
v0zM574 796q162 -22 234 -44q72 -20 96 -40q23 -20 20 -40q-3 -21 -14 -24q-12 -4 -26 4q-14 7 -40 26q-25 17 -76 40q-51 20 -198 62l4 16v0v0zM860 864l34 36l62 -48q12 -8 10 -16q0 -3 -14 -6q-30 -1 -60 -22q-31 -22 -62 -46l-14 10l42 66h-670q-9 -51 -32 -78
q-25 -25 -46 -28q-21 -4 -32 8q-12 11 -6 28q6 15 30 30q24 13 42 38q18 24 24 96h20l2 -68h670v0v0zM410 970l6 14q77 -19 106 -34t32 -36q3 -18 -6 -30q-10 -10 -26 -10q-14 0 -22 12q-9 8 -14 20q-4 11 -20 26q-15 13 -56 38v0v0z" />
  </g>

</svg>
