<?xml version="1.0" standalone="no"?>
<!DOCTYPE svg PUBLIC "-//W3C//DTD SVG 1.1//EN" "http://www.w3.org/Graphics/SVG/1.1/DTD/svg11.dtd" >
<svg xmlns="http://www.w3.org/2000/svg" xmlns:xlink="http://www.w3.org/1999/xlink" version="1.1" viewBox="0 -200 1000 1000">
  <g transform="matrix(1 0 0 -1 0 800)">
   <path fill="currentColor"
d="M830 692q25 -5 24 -12q-2 -8 -24 -13l-7 -133q35 -182 57 -255q35 -117 86 -163v-10q-23 4 -41 1q-24 -4 -30 -19q-30 67 -48 159q-12 56 -28 186l-9 72l-6 -26q-30 -158 -56 -228q-40 -114 -113 -181l-6 10q66 74 103 228q33 134 56 386h-56l-8 -26q-11 -38 -18 -58
q-11 -33 -23 -58l-6 11q22 89 35.5 192.5t17.5 206.5l52 -10q30 -5 26 -15q-3 -8 -31 -19q-10 -61 -19 -105q-11 -58 -22 -90h155l26 18l30 -29q20 -19 18 -38q-2 -11 -35 -10l-49 -130h-11l26 160h-76zM102 364h92v435h-92v-435zM240 356q1 -18 -2 -24q-4 -9 -21 -15
q-17 -5 -22 3q-2 4 -2 20l1 -2h-92v-27q1 -27 -1 -34q-4 -8 -19 -12q-17 -7 -22 0q-2 4 -1 20l1 12v486l-4 68l45 -27h82l26 27l41 -28q27 -18 16 -28q-7 -5 -26 -7v-414v-18zM659 715l-53 35l-40 -39h-63v115v1q30 12 31 16q1 5 -24 16l18 8l61 22q33 -4 41 -1q10 3 -8 17
l-39 42q-47 -33 -105 -54q-85 -32 -189 -53l3 -22q55 3 90 13q47 7 75 14v-134h-117l-65 3l14 -31l66 3h102v-521h-97v171h68q17 0 19 7q1 16 -10 23l-36 29l-27 -34h-14v118q20 0 24 4t-7 11q14 20 40 46q18 -1 28 5q-4 20 -39 32q-20 -20 -44 -62l-49 22l4 -67v-348
l-2 -14q-1 -13 2 -16q4 -4 23 1q17 5 21 11q2 5 0 18l-1 18h236v5l-1 -14q-2 -15 2 -19q5 -5 25 2q13 7 17 17q2 7 1 30l-1 20v306q31 1 33 9q1 8 -24 24l-35 25l-31 -25h-33l-38 4l10 -30h38h37v-133h-48l-26 4l11 -31l31 2h32v-171h-93v521h144q15 0 19 5q5 5 -7 24z" />
  </g>

</svg>
