<?xml version="1.0" standalone="no"?>
<!DOCTYPE svg PUBLIC "-//W3C//DTD SVG 1.1//EN" "http://www.w3.org/Graphics/SVG/1.1/DTD/svg11.dtd" >
<svg xmlns="http://www.w3.org/2000/svg" xmlns:xlink="http://www.w3.org/1999/xlink" version="1.1" viewBox="0 -205 1024 1024">
  <g transform="matrix(1 0 0 -1 0 819)">
   <path fill="currentColor"
d="M782 662l34 36l58 -44q3 -3 4 -6q1 -12 -10 -12h-640q-21 0 -68 -8l-16 34h638v0v0zM710 602q9 -7 0 -14q-25 -4 -32 -10q-7 -5 -58 -58h238l36 38l62 -44q3 -4 4 -8q0 -12 -12 -12h-816q-33 3 -68 -8l-20 34h546q31 53 50 106l70 -24v0v0zM306 618l6 10q59 -19 76 -32
q17 -11 20 -28q4 -17 -4 -28q-9 -10 -24 -10q-13 -1 -20 14q-4 12 -10 28q-6 15 -44 46v0v0zM746 438l26 34l58 -38q6 -4 6 -8q0 -7 -26 -22v-166l4 -60q0 -13 -20 -22q-18 -10 -36 -10v28h-230v-81q0 -24 28 -24h280q46 0 62 14q15 12 18 42q4 27 8 117h20q3 -84 6 -105
q3 -24 36 -42q-16 -30 -28 -42q-13 -12 -26 -18q-13 -5 -40 -8h-330q-43 0 -64 14q-19 13 -22 56v77h-222v-30q0 -8 -18 -19q-18 -12 -38 -12l4 79v276l56 -30h488v0v0zM254 200h222v94h-222v-94v0v0zM528 294v-94h230v94h-230v0v0zM254 320h222v92h-222v-92v0v0zM528 412
v-92h230v92h-230v0v0zM298 930q10 -9 0 -18q-21 -4 -30 -10l-14 -14l-20 -30h204l40 44l62 -54q9 -16 -8 -16h-212q41 -27 58 -42q14 -15 20 -30q5 -16 -4 -32q-8 -16 -28 -14q-19 2 -22 26q-3 21 -12 40q-10 18 -40 52h-72q-68 -99 -130 -162l-14 12q51 75 88 142t62 140
l72 -34v0v0zM688 926q10 -9 0 -18q-23 -5 -28 -10q-5 -4 -10 -10q-4 -6 -22 -30h232l40 46l62 -56q9 -16 -8 -16h-234q38 -27 56 -42t24 -36q7 -19 -4 -34q-12 -16 -30 -10q-19 6 -22 30q-4 24 -14 42q-10 19 -38 50h-76q-46 -66 -82 -110l-16 10q30 57 52 108q20 50 38 116
l80 -30v0v0zM414 750l8 12q51 -13 72 -26q20 -12 26 -26q6 -13 -2 -26q-6 -13 -24 -14q-18 0 -24 18q-7 15 -14 28q-6 12 -42 34v0v0z" />
  </g>

</svg>
