<?xml version="1.0" standalone="no"?>
<!DOCTYPE svg PUBLIC "-//W3C//DTD SVG 1.1//EN" "http://www.w3.org/Graphics/SVG/1.1/DTD/svg11.dtd" >
<svg xmlns="http://www.w3.org/2000/svg" xmlns:xlink="http://www.w3.org/1999/xlink" version="1.1" viewBox="0 0 2048 2048">
  <g transform="matrix(1 0 0 -1 0 2048)">
   <path fill="currentColor"
d="M661 1343q1 38 1 42l-4 141l145 -29q22 -5 32 -11t13 -19q2 -13 -8 -22t-27 -14l-49 -15l-4 -44l-2 -22q53 3 67 5l41 4l7 -37l-120 -26q-3 -22 -4 -33l-18 -156q-12 -85 -28 -160t-41 -153t-48 -129l-27 -60l57 -49q27 -22 55 -52q28 -29 46 -61t22 -55q4 -24 -1 -40
q-5 -17 -21 -28q-16 -10 -35 -5t-42 37l-63 87q-27 36 -40 49l-26 26l-45 -74q-30 -47 -103 -128q-73 -82 -132 -134t-126 -97l-41 -28l-28 35l68 56q41 33 99 95t116 139q58 78 87 132l37 67l-33 30q-16 15 -59.5 43.5t-86.5 51.5q-42 24 -82 42l-66 29l56 179
q25 81 48 172l28 110q-31 -4 -34 -4l-66 -10q-3 -11 -7 -28q-4 -16 -11 -29q-8 -13 -18 -15q-9 -2 -18 6q-8 9 -30 60l-43 97q22 0 34 1l106 2q39 0 84 3l22 1l15 75q10 45 26 161q16 115 24 182q9 67 10 86l3 79l129 -34q41 -11 56 -21q14 -10 16 -24q1 -13 -8 -24t-38 -15
l-57 -8q-11 -88 -17 -123q-6 -34 -28 -150q-21 -116 -28 -142l-10 -38q131 9 164 12zM658 1279q-160 -23 -211 -27l-80 -8l-21 -70q-11 -39 -40 -121q-28 -82 -54 -144l-45 -109q24 -11 37 -16l91 -36q74 -31 116 -55l59 -34l30 67q15 34 36 104q20 71 36 145q15 74 26 140
q10 66 16 125zM1715 172l98 102l121 -107q10 -10 15 -16t1.5 -16.5t-13.5 -16.5t-18 -5l-907 1l-161 -5q-15 -1 -18 -1l-13 -2l-35 88q45 -10 87 -16t140 -6h279v391h-199l-161 -5q-15 -1 -18 -1l-13 -2l-35 88q45 -10 84 -15q39 -6 148 -6h194v237l-56 -1l-161 -5
q-15 -1 -18 -1l-13 -2l-35 87q45 -9 88 -15q42 -6 139 -6l276 -1l73 72l92 -74q19 -16 24 -23q4 -8 -3 -20q-7 -11 -18 -11h-292v-237h270l95 93l111 -89q17 -15 23 -23t4 -19q-3 -12 -11 -16q-8 -5 -19 -5h-473v-391h328zM1632 533l114 -40q22 -8 32 -17q9 -10 8 -21
q-2 -12 -12 -17q-10 -6 -32 -9l-40 -6l-36 -57q-14 -24 -25 -40q-11 -17 -39 -53q-27 -36 -35 -44l-39 -39l-27 23q16 25 25 41q9 17 27 59l27 63q8 21 22 61q15 40 18 51zM994 529l44 -43q20 -19 40 -44q20 -24 34 -46q15 -23 23 -42t11 -44q4 -26 1 -45q-5 -21 -18 -35
t-34 -13q-16 0 -27 9q-12 10 -15 24q-3 15 -5 36q-1 21 -5 40t-15 49q-10 30 -22 56q-11 26 -19 39l-23 37zM1735 1778q-43 -11 -89 -21t-111 -19q-65 -10 -151 -18t-164 -13q-79 -5 -134 -7q-55 -1 -128 0h-49l1 39q71 3 118 7q46 3 112 12q65 8 152 23q88 15 156 31
q67 15 131 36q64 22 104 40l50 22l75 -79q22 -24 28 -34q5 -10 4 -21q-2 -10 -15 -13t-29 1zM1769 1711l110 -57q30 -16 40 -25t6 -22q-4 -12 -16 -15q-12 -2 -41 -2h-29q-28 -34 -45 -54q-18 -19 -41 -42t-61 -54t-54 -40l-39 -24l-26 22l47 56q25 28 44 54t44 72
q26 47 36 72zM1296 1685l31 -29q13 -12 40 -42t41 -50q14 -21 28 -50q15 -29 16 -52q0 -22 -8 -38q-9 -16 -26 -26q-18 -9 -37 2q-13 6 -20 20t-12 46q-5 33 -13 58t-23 57t-21 43l-24 41zM907 1660q37 -28 57 -44l47 -41q28 -25 46 -45q18 -21 31 -47t11 -51
q-3 -23 -15 -36q-13 -12 -32 -14q-18 -2 -33 14q-10 9 -20 44q-10 34 -14 44q-4 9 -17 34q-14 25 -28 46q-15 20 -30 39l-25 29zM1362 1295q5 -7 10 -12q4 -5 26 -23l66 -59q22 -19 84 -61q61 -43 108 -71t130 -61q82 -32 136 -43l65 -15l-2 -38q-26 0 -41 -3
q-14 -3 -33 -15q-19 -11 -21 -18l-12 -29q-39 14 -76 30q-36 16 -104 59q-69 42 -129 88q-60 47 -113 100q-52 54 -77 86l-45 55l-49 -71q-24 -35 -66 -80q-42 -46 -107 -97t-134 -92t-143 -73l-59 -26l-19 38l86 49q49 28 99 63q51 34 112 90q61 57 106 118q46 62 81 124
l53 94l86 -27q41 -14 56 -23q16 -8 16 -22q-1 -24 -45 -28z" />
  </g>

</svg>
