<?xml version="1.0" standalone="no"?>
<!DOCTYPE svg PUBLIC "-//W3C//DTD SVG 1.1//EN" "http://www.w3.org/Graphics/SVG/1.1/DTD/svg11.dtd" >
<svg xmlns="http://www.w3.org/2000/svg" xmlns:xlink="http://www.w3.org/1999/xlink" version="1.1" viewBox="0 -36 256 256">
  <g transform="matrix(1 0 0 -1 0 220)">
   <path fill="currentColor"
d="M120 247l22 -9l-8 -7v-24h24l10 11l14 -18h-48v-33h21l5 9l15 -8l-5 -7v-46l-13 -6v10h-23v-15q27 -13 34 -23t1 -20t-11.5 5.5t-23.5 30.5v-60q0 -10 1 -20l-15 -8q1 10 1 21v71q-20 -41 -57 -69l-1 4q34 40 52 83h-17v-8l-13 -7q1 17 1 34.5t-1 35.5l13 -7h23v33h-18
q-10 0 -19 -3l-9 10h46q0 30 -1 40zM98 126h23v34h-23v-34zM134 126h23v34h-23v-34zM14 171l-4 3q11 14 23 31.5t21 40.5l19 -13l-9 -3q-26 -39 -50 -59zM61 152v-137l-15 -7q1 21 1 38v84q-18 -24 -36 -39l-3 4q10 12 26 37t32 63l21 -14l-11 -3q-8 -14 -15 -26zM245 236
l-9 -7v-191q2 -23 -20 -30q-3 13 -30 16v5q18 -1 28 -0.5t9 13.5v165q0 20 -1 39zM188 141.5q0 45.5 -1 71.5l21 -9l-7 -8v-97q0 -15 1 -30l-15 -5q1 32 1 77.5z" />
  </g>

</svg>
