<?xml version="1.0" standalone="no"?>
<!DOCTYPE svg PUBLIC "-//W3C//DTD SVG 1.1//EN" "http://www.w3.org/Graphics/SVG/1.1/DTD/svg11.dtd" >
<svg xmlns="http://www.w3.org/2000/svg" xmlns:xlink="http://www.w3.org/1999/xlink" version="1.1" viewBox="0 -205 1024 1024">
  <g transform="matrix(1 0 0 -1 0 819)">
   <path fill="currentColor"
d="M502 924l58 -32h266l32 40l52 -38q12 -6 12 -14q0 -5 -30 -28v-166l4 -76q0 -13 -18 -26t-36 -14v46h-124v-202h120l40 50l66 -62q2 -3 2 -8q0 -7 -6 -8h-222v-265q57 -21 126 -24q69 -4 142 -2v-20q-39 -5 -54 -16t-24 -34q-102 13 -158 32q-55 20 -92 40q-36 21 -62 51
q-27 29 -66 92q-25 -76 -74 -129q-49 -54 -110 -100l-12 14q63 61 100 117q36 57 54 132q16 75 26 192q77 -34 80 -40q3 -7 -2 -10q-5 0 -16 -6q-9 -3 -18 -42q-7 -37 -20 -98q45 -57 72 -84q26 -28 56 -46v476h-112v-26q0 -13 -20 -26q-21 -12 -36 -12l4 136v236v0v0z
M554 644h288v220h-288v-220v0v0zM40 554q81 122 138 236q54 111 70 160l72 -30q4 -6 0 -12q-5 -3 -16 -6q-9 -4 -24 -22q71 -31 116 -58q44 -27 56 -54q12 -24 4 -42q-9 -18 -26 -18q-18 -1 -32 26q-13 27 -44 60q-30 33 -84 66q-41 -76 -88 -148q-45 -72 -128 -168l-14 10
v0v0zM146 650h178l34 46l56 -56q6 -12 -2 -18h-130v-138h58l36 44l52 -52q15 -12 0 -20h-146v-262l150 40l6 -20q-103 -37 -182 -64q-78 -22 -110 -41q-33 -14 -56 -38l-46 64l188 49v272h-90q-21 0 -56 -8l-16 36h162v138h-46l-20 -6l-20 34v0v0zM76 404l12 10
q57 -49 78 -80q20 -30 22 -60q1 -29 -16 -40q-16 -10 -28 -4q-13 6 -14 28q0 22 -8 56q-7 33 -46 90v0v0zM292 240q50 72 100 168l60 -42q3 -9 -2 -12q-7 -4 -20 -4q-13 -1 -46 -38q-31 -37 -80 -82l-12 10v0v0z" />
  </g>

</svg>
