<?xml version="1.0" standalone="no"?>
<!DOCTYPE svg PUBLIC "-//W3C//DTD SVG 1.1//EN" "http://www.w3.org/Graphics/SVG/1.1/DTD/svg11.dtd" >
<svg xmlns="http://www.w3.org/2000/svg" xmlns:xlink="http://www.w3.org/1999/xlink" version="1.1" viewBox="0 -52 256 256">
  <g transform="matrix(1 0 0 -1 0 204)">
   <path fill="currentColor"
d="M65 252l22 -11q4 -1 1 -4q-4 0 -9 -3q-1 -2 -2 -5q-8 -22 -18 -42v-144v-22q0 -8 -13 -12v11q1 21 1 38v107q-18 -33 -36 -48l-3 1q24 33 43 76q18 44 17 48q-1 1 -2 3q-2 4 -3 5zM69 145l-2 2q50 34 74 76q9 17 8 19q0 1 -1 4q-2 2 -2 3l2 2l22 -10q4 -3 2 -4
q-8 0 -11 -4l-1 -1q40 -65 90 -72v-4q-3 1 -9 0h-4q-6 -2 -9 -5q-42 20 -71 74q-35 -53 -88 -80zM69 13l-1 4q83 22 126 56q17 13 18 16q1 2 -2 6l2 2l18 -11q4 -2 1 -4q-8 0 -11 -3q-68 -54 -151 -66zM178 135l18 -11q2 -1 2 -2t-2 -1q-5 0 -8 -1q-36 -38 -94 -54l-1 3
q41 19 72 45q11 10 12 13q0 3 -1 7zM160 178l17 -10q2 -1 1 -2l-2 -1q-4 0 -7 -2q-42 -37 -79 -49l-1 3q27 12 58 40q8 7 12 14q0 2 -1 6z" />
  </g>

</svg>
