<?xml version="1.0" standalone="no"?>
<!DOCTYPE svg PUBLIC "-//W3C//DTD SVG 1.1//EN" "http://www.w3.org/Graphics/SVG/1.1/DTD/svg11.dtd" >
<svg xmlns="http://www.w3.org/2000/svg" xmlns:xlink="http://www.w3.org/1999/xlink" version="1.1" viewBox="0 -205 1024 1024">
  <g transform="matrix(1 0 0 -1 0 819)">
   <path fill="currentColor"
d="M606 784q-9 -4 -18 -16t-26 -42h324l32 38l58 -48q2 -3 2 -8q0 -10 -8 -10h-212v-78h92l36 34l56 -44q3 -4 4 -8q0 -9 -8 -8h-180v-76h100l36 34l52 -44q2 -4 2 -8q0 -9 -8 -8h-182v-86h132l32 40l62 -48q3 -5 4 -10q0 -9 -8 -8h-432v-20q1 -17 -18 -28q-18 -8 -38 -10
l4 114v196q-36 -57 -86 -108l-12 10q36 56 78 128q39 69 84 172q65 -27 68 -36q2 -6 -4 -8q-6 -3 -18 -6v0v0zM548 406h156v86h-156v-86v0v0zM548 518h156v76h-156v-76v0v0zM704 620v78h-156v-78h156v0v0zM662 830l6 12q47 -12 70 -24q20 -11 32 -28q10 -18 2 -32
q-8 -16 -28 -14q-18 0 -24 18q-4 18 -16 34q-12 14 -42 34v0v0zM330 310l54 -28h440l32 32l50 -34q12 -6 12 -14q-1 -4 -28 -22v-121l4 -64q1 -11 -16 -22q-15 -9 -36 -12v48h-464v-26q0 -12 -18 -24q-19 -10 -34 -8l4 104v191v0v0zM378 99h464v157h-464v-157v0v0zM898 880
l38 46l56 -54l6 -6q0 -10 -8 -10h-796v-240q-2 -213 -28 -354q-24 -137 -126 -245l-10 6q78 119 96 257q18 137 16 350v302l62 -52h694v0v0zM468 984l4 12q63 -12 90 -24q25 -11 38 -28q12 -16 4 -34q-6 -18 -26 -18t-28 16q-7 15 -22 34q-15 18 -60 42v0v0zM456 808
q8 -5 8 -10q1 -5 -16 -10q-18 -1 -30 -16l-48 -80v-254l4 -68q2 -18 -22 -30q-22 -13 -34 -14l4 106v194q-37 -54 -110 -126l-12 10q68 86 124 190q54 101 70 146l62 -38v0v0z" />
  </g>

</svg>
