<?xml version="1.0" standalone="no"?>
<!DOCTYPE svg PUBLIC "-//W3C//DTD SVG 1.1//EN" "http://www.w3.org/Graphics/SVG/1.1/DTD/svg11.dtd" >
<svg xmlns="http://www.w3.org/2000/svg" xmlns:xlink="http://www.w3.org/1999/xlink" version="1.1" viewBox="0 -154 1024 1024">
  <g transform="matrix(1 0 0 -1 0 870)">
   <path fill="currentColor"
d="M226 452l36 -40h446l40 40l48 -48q14 -8 -6 -13l-18 -9v-94l6 -34q3 -42 -52 -44v40h-457v-21q0 -38 -53 -45q5 37 7 66v160q3 16 -14 32zM269 268h457v126h-457v-126zM603 962q5 -8 -5 -8q-16 1 -27 -17q-12 -27 -22 -49h305l28 36l64 -44q17 -12 -6 -12h-313v-87h173
l28 36l64 -44q17 -10 -6 -10h-259v-87h173l28 36l65 -42q17 -12 -6 -12h-260v-54l2 -37q0 -38 -53 -44q5 37 7 128v217h-44q-39 -78 -112 -161l-13 8q51 75 83 147q31 73 31 106q-4 8 -16 23l8 6zM257 994l84 -34q14 -5 6 -11q-17 -5 -29 -18v-101h51l33 40l60 -46
q18 -11 -11 -12h-133v-147l141 28l6 -14l-289 -84q-27 -12 -51 -40l-40 58l191 41v158h-103q-27 1 -45 -13l-34 31h182v111q2 16 -27 42zM633 232l84 -39q11 -11 1 -15q-22 1 -39 -11q-39 -54 -77 -103h247l37 51l76 -56q20 -15 -13 -15h-840q-27 1 -47 -13l-32 33h543
q29 46 49 83q21 40 16 52q-4 11 -13 26zM101 520h709l38 40l68 -46q16 -12 -14 -14h-722q-27 3 -47 -11zM289 208l8 12q104 -50 105 -94q7 -49 -25 -47q-14 1 -19 27q-4 24 -18 48q-13 24 -51 54z" />
  </g>

</svg>
