<?xml version="1.0" standalone="no"?>
<!DOCTYPE svg PUBLIC "-//W3C//DTD SVG 1.1//EN" "http://www.w3.org/Graphics/SVG/1.1/DTD/svg11.dtd" >
<svg xmlns="http://www.w3.org/2000/svg" xmlns:xlink="http://www.w3.org/1999/xlink" version="1.1" viewBox="0 -52 256 256">
  <g transform="matrix(1 0 0 -1 0 204)">
   <path fill="currentColor"
d="M123 119l9 -10h79l6 8l13 -9q3 -3 -1 -5l-5 -2v-66l1 -12q0 -5 -3 -6q-3 -2 -8 -2v14h-79v-6q0 -6 -3 -8t-9 -3v9q1 8 1 12v72q1 4 -4 10zM202 254l16 -8q4 -3 1 -4q-6 0 -9 -3q-1 -1 -2 -4q-10 -16 -17 -25h24l7 9l16 -12q4 -2 -2 -2h-41v-57l13 16q12 17 13 20
q0 4 -2 7l2 1l17 -11q2 -3 -1 -3q-5 1 -9 -3q-19 -21 -33 -34v-4h33l8 10l15 -12q2 -2 1 -2q0 -1 -3 -1h-122q-6 0 -11 -3l-8 8h43v68h-21q-6 0 -11 -4l-8 9h74l4 7q3 5 7 13q7 14 7 16q0 3 -2 6zM135 67v-33h79v33h-79zM214 104h-79v-33h79v33zM160 205v-68h26v68h-26z
M128 250l1 2q17 -7 25 -15q7 -9 7 -16t-6 -8q-5 0 -5 6v1q-1 5 -5 13q-5 9 -17 17zM111 187l3 2q14 -9 20 -16q7 -8 7 -16t-4 -9q-6 -1 -6 6q-1 8 -6 15q-4 8 -14 18zM6 150l-3 3q12 15 23 34q11 18 18 37q6 19 5 22t-4 7l2 1l21 -10q1 -2 -1 -2q-5 1 -8 -5q-4 -12 -9 -22
h31l7 8l15 -14q1 -2 -2 -2q-4 1 -9 -2q-3 -1 -8 -9q-6 -6 -16 -21h23l9 10l11 -12q2 -1 2 -2t-3 -2l-5 -2v-67l1 -14q0 -4 -3 -6t-7 -2v7h-59v-5q0 -5 -3 -8l-9 -3q1 4 1 19q1 11 1 18v68q-6 -9 -21 -24zM81 210h-33l-6 -12q-4 -6 -5 -9q-3 -6 -7 -10l4 -4h28l6 9
q7 12 13 26zM71 128v-38h25v38h-25zM37 128v-38h24v38h-24zM96 170h-25v-38h25v38zM37 170v-38h24v38h-24zM21 30l-9 12l98 26l1 -3l-39 -14q-34 -10 -39 -11q-6 -2 -12 -10z" />
  </g>

</svg>
