<?xml version="1.0" standalone="no"?>
<!DOCTYPE svg PUBLIC "-//W3C//DTD SVG 1.1//EN" "http://www.w3.org/Graphics/SVG/1.1/DTD/svg11.dtd" >
<svg xmlns="http://www.w3.org/2000/svg" xmlns:xlink="http://www.w3.org/1999/xlink" version="1.1" viewBox="0 -205 1024 1024">
  <g transform="matrix(1 0 0 -1 0 819)">
   <path fill="currentColor"
d="M526 482l52 -30h98l28 34l48 -34q12 -6 12 -14q0 -3 -26 -24v-134l4 -62q1 -15 -16 -26q-15 -10 -36 -10v62h-114v-50q0 -15 -18 -26q-18 -12 -36 -12l4 126v200v0v0zM576 426v-158h114v158h-114v0v0zM768 942q3 -4 4 -10q-1 -4 -32 -16l-14 -78h132l38 48l58 -58
q2 0 2 -6q1 -13 -10 -10h-224q-5 -20 -16 -46q93 -30 136 -56q40 -27 44 -48q3 -21 -6 -32q-7 -10 -22 -10q-16 1 -28 20q-12 18 -42 48t-90 60q-46 -93 -184 -150l-8 14q69 45 108 90q38 43 56 110h-98q-21 0 -62 -8l-22 34h188q12 71 12 134l80 -30v0v0zM484 590h408
l34 44l58 -52q3 -3 4 -6q2 -12 -10 -12h-94v-427q3 -36 -14 -66q-14 -26 -64 -44q-9 28 -38 46q-28 17 -80 34l4 20q62 -16 92 -20q30 -2 42 4q12 8 10 49v404h-278q-21 0 -54 -8l-20 34v0v0zM176 892h230l32 42l58 -54q3 0 4 -6q0 -10 -8 -10h-168v-112h64l36 38l50 -48
q3 -4 4 -8q-1 -9 -10 -8h-144v-118h58l30 42l46 -52q3 -4 4 -8q-1 -9 -10 -8h-128v-120h66l26 32l52 -42q15 -14 -6 -22l-18 -16q-6 -123 -8 -194q-4 -70 -16 -95q-12 -26 -30 -46q-18 -17 -56 -38q-6 28 -26 46q-21 18 -86 36l4 19q36 -7 66 -11q28 -3 50 0q20 2 32 19
q10 18 14 84q3 67 6 200h-226v-12q2 -15 -16 -24q-18 -15 -36 -14l4 134v420l56 -46v0v0zM168 462h108v120h-108v-120v0v0zM168 608h108v118h-108v-118v0v0zM276 752v112h-108v-112h108v0v0zM110 362h20q6 -117 -2 -156q-9 -39 -26 -54q-17 -12 -34 -12q-15 0 -24 14
q-9 15 6 30q14 15 34 40q17 24 26 138v0v0zM146 366l12 8q46 -69 56 -102q9 -33 4 -54q-3 -18 -14 -26q-12 -9 -24 -2q-13 7 -14 26v54q0 33 -20 96v0v0zM206 382l12 6q57 -58 72 -88q12 -28 10 -44q0 -15 -12 -24q-12 -10 -24 -4t-14 24q-1 18 -8 48q-6 27 -36 82v0v0z
M276 396l10 10q56 -39 76 -72q18 -31 16 -52q-1 -20 -14 -28q-12 -9 -24 0q-12 7 -14 26q-1 17 -10 46q-10 27 -40 70v0v0z" />
  </g>

</svg>
