<?xml version="1.0" standalone="no"?>
<!DOCTYPE svg PUBLIC "-//W3C//DTD SVG 1.1//EN" "http://www.w3.org/Graphics/SVG/1.1/DTD/svg11.dtd" >
<svg xmlns="http://www.w3.org/2000/svg" xmlns:xlink="http://www.w3.org/1999/xlink" version="1.1" viewBox="0 -36 256 256">
  <g transform="matrix(1 0 0 -1 0 220)">
   <path fill="currentColor"
d="M75 236q-7 -4 -17 -26h27l8 8l14 -14q-6 -1 -12 -6.5t-18 -24.5h22l8 9l13 -12l-8 -7v-133q0 -16 -16 -21q-1 13 -25 18v4q18 -2 23.5 -2t5.5 6v52h-57q-2 -47 -32 -79l-3 3q12 20 16 38t5 34.5t1 82.5q-6 -7 -19 -17l-2 3q16 18 31 50t16 45zM43 94h22v33h-22v-33z
M43 134h22v32h-22v-32zM77 134h23v32h-23v-32zM77 94h23v33h-23v-33zM39 177l6 -4h26l14 30h-29q-7 -11 -17 -26zM167 247l20 -10l-6 -8v-100h37l13 11l15 -18h-50v-82q-1 -14 11 -13h15q7 1 8 11.5t1 30.5h5q0 -18 2 -27.5t10 -11.5q-5 -14 -17 -14h-30q-19 -1 -18 19v87
h-21q0 -41 -12 -68.5t-43 -47.5l-2 3q21 20 32.5 47t11.5 66h-8q-10 0 -20 -2l-9 9h56v93q0 13 -1 25zM215 192q14 -8 22 -15t4 -17.5t-9 0t-18 26.5q-3 -11 -11 -21.5t-20 -18.5l-2 2q14 16 19.5 35t6.5 40l18 -8l-5 -5q-3 -13 -5 -18zM148 192q8 -9 15 -16t2.5 -18
t-8.5 2.5t-11 23.5q-4 -10 -11.5 -21.5t-19.5 -19.5l-2 2q14 20 20 39t8 38l17 -10l-5 -4q-2 -6 -5 -16z" />
  </g>

</svg>
