<?xml version="1.0" standalone="no"?>
<!DOCTYPE svg PUBLIC "-//W3C//DTD SVG 1.1//EN" "http://www.w3.org/Graphics/SVG/1.1/DTD/svg11.dtd" >
<svg xmlns="http://www.w3.org/2000/svg" xmlns:xlink="http://www.w3.org/1999/xlink" version="1.1" viewBox="0 -144 1024 1024">
  <g transform="matrix(1 0 0 -1 0 880)">
   <path fill="currentColor"
d="M906 76l-7 12l-9 13l-19 22l-29 -7l-48 -9l-49 -9l-101 -13l-52 -6l-106 -11l-55 -5l-34 -2l-11 -18l-11 16v5l-1 4v8v3v9l-1 4v10v3v11l-1 2v5l110 2l106 4l45 1v85h-140l-64 -32v184l64 -32h140v55l65 -10l16 -11l-16 -10v-24h139l32 26l59 -48l-27 -22v-76l-61 -30
l35 -16l19 -9l17 -11l31 -24l13 -14l11 -14l4 -24l-15 -20l-24 -3l-20 14zM166 434l-72 -40l-13 -7l-2 -20l-17 9l-7 14l-1 4l-1 2l-2 2l-3 7l-11 24l-1 1l-2 4l132 59v259h-126v22h126v209l64 -10l16 -11l-16 -10v-178h12l53 53l65 -53v-22h-130v-231l62 27l65 26l5 -8
l-27 -22l-88 -60l-17 -10v-335l-1 -13l-2 -14l-4 -12l-7 -13l-9 -11l-11 -8l-12 -7l-13 -4l-13 -3l-14 -1v33l-75 16v16h75h7l5 1l4 2l3 2l1 5l1 5l1 6v295zM372 123l3 -64l-13 64h10zM837 215h-139v-83l44 2l49 2l48 1h19l-34 28l-17 14l-20 11l4 10l45 -14h1v29zM633 313
h-140v-76h140v76zM837 313h-139v-76h139v76zM34 434l28 -58l-38 54zM641 870l59 -10l1 -1l69 44l62 37h-371v22h410l33 19l1 -3l13 11l59 -49l-27 -16l-64 -27v7l-124 -46l-26 -9l-36 -10v-361l-1 -13l-1 -12l-4 -13l-6 -11l-7 -11l-10 -8l-11 -7l-11 -5l-13 -2l-13 -1v29
l-82 15v15h82h6l3 1l2 1l2 1v1l1 1l1 2l1 4l2 6v7v392zM376 851l65 -33h75l29 27l57 -48l-27 -19v-275l-59 -29v62h-75v-65l-65 -32v412zM905 536l-24 43l-15 23l-2 3l-23 -32l-24 -28l-26 -26l-28 -21l-31 -18l-5 8l43 51l19 28l18 29l17 31l10 21l-93 113l7 8l32 -22
l29 -23l42 -36l15 44l11 40l5 23h-152v22h156l32 27l59 -49l-27 -16l-8 -3l-6 -21l-16 -42l-17 -39l-13 -24l16 -17l36 -44l16 -22l14 -22l1 -24l-16 -19l-25 -2l-18 16zM516 797h-75v-240h75v240z" />
  </g>

</svg>
