<?xml version="1.0" standalone="no"?>
<!DOCTYPE svg PUBLIC "-//W3C//DTD SVG 1.1//EN" "http://www.w3.org/Graphics/SVG/1.1/DTD/svg11.dtd" >
<svg xmlns="http://www.w3.org/2000/svg" xmlns:xlink="http://www.w3.org/1999/xlink" version="1.1" viewBox="0 -205 1024 1024">
  <g transform="matrix(1 0 0 -1 0 819)">
   <path fill="currentColor"
d="M598 954q6 -3 6 -8q0 -6 -8 -8l-20 -10q-19 -30 -34 -60h98l32 38l52 -50q3 -1 4 -4q0 -9 -8 -8h-146q36 -33 46 -60q9 -25 6 -40q-4 -15 -16 -24q-12 -7 -24 -2q-12 6 -12 30q1 24 -6 48t-22 48h-14q-57 -97 -102 -154l-16 10q35 62 64 128q26 63 56 154l64 -28v0v0z
M854 952q6 -3 6 -8q0 -6 -8 -8l-20 -10q-19 -24 -40 -60h120l32 40l52 -52q3 -1 4 -4q0 -9 -8 -8h-156q39 -33 54 -56q13 -21 8 -42q-4 -18 -16 -24q-10 -7 -22 -2q-12 3 -14 28q-3 25 -12 50q-9 23 -30 46h-22q-33 -52 -62 -88l-16 8l38 86q18 42 48 130l64 -26v0v0z
M522 564l56 -34h226l26 32l58 -44l4 -8q1 -7 -28 -26v-66l4 -50q0 -13 -14 -22q-15 -7 -42 -10v24h-242v-76h266l34 32l48 -42q3 -3 4 -6q1 -7 -28 -28v-119l6 -54q0 -12 -14 -24q-16 -12 -40 -16v62h-276v-42q1 -15 -16 -28q-16 -13 -40 -14l8 118v441v0v0zM570 115h276
v145h-276v-145v0v0zM570 384h242v124h-242v-124v0v0zM920 640l24 30l44 -32q13 -6 14 -14q-1 -6 -16 -12q-23 -13 -40 -32q-16 -18 -40 -48l-16 8l28 76h-422q1 -50 -12 -70q-14 -21 -34 -24t-28 12q-7 12 2 24q6 12 18 24t18 34q7 19 14 62h20l2 -38h424v0v0zM640 758
l10 12q39 -19 58 -34q18 -16 28 -32q7 -15 2 -30q-6 -16 -20 -22q-13 -4 -22 2q-9 5 -12 22q-3 15 -12 36t-32 46v0v0zM260 938q6 -1 4 -10q0 -6 -12 -8q-15 -3 -30 -26q-15 -21 -32 -60h114l24 34l58 -48q7 -7 2 -10q0 -7 -26 -16q-18 -7 -38 -38q-18 -31 -62 -98h92l22 30
l52 -36q6 -6 6 -8q0 -6 -32 -30v-240l4 -76q1 -12 -16 -24q-18 -9 -36 -12v50h-208v-32q0 -16 -20 -28q-18 -13 -32 -10l4 102v312q-40 -63 -64 -90l-12 10q54 96 100 210q43 114 62 180l76 -28v0v0zM146 338h82v138h-82v-138v0v0zM276 338h78v138h-78v-138v0v0zM146 502h82
v130h-82v-130v0v0zM276 632v-130h78v130h-78v0v0zM142 658h100l58 150h-122q-33 -75 -62 -126l26 -24v0v0zM426 210l6 -18q-264 -91 -296 -109q-33 -15 -50 -36l-40 66l380 97v0v0z" />
  </g>

</svg>
