<?xml version="1.0" standalone="no"?>
<!DOCTYPE svg PUBLIC "-//W3C//DTD SVG 1.1//EN" "http://www.w3.org/Graphics/SVG/1.1/DTD/svg11.dtd" >
<svg xmlns="http://www.w3.org/2000/svg" xmlns:xlink="http://www.w3.org/1999/xlink" version="1.1" viewBox="0 -200 1000 1000">
  <g transform="matrix(1 0 0 -1 0 800)">
   <path fill="currentColor"
d="M104 843q14 0 27.5 -7.5t30.5 -19.5h48l27 35q14 -5 28 -15t19 -21l-25 -25v-451q-20 -20 -40 -20v36h-75v-16q-20 -20 -40 -20v524zM380 912q16 0 31.5 -8.5t35.5 -24.5l-26 -17v-175l17 23q20 -8 32.5 -21.5t17.5 -22.5h-67v-173l49 24v-11l-49 -39v-305
q0 -15 -13.5 -27.5t-29.5 -12.5q0 8 -16.5 33t-46.5 51l5 5q21 -19 34.5 -26t20.5 -7q5 0 5 4v252l-60 -47q-2 2 -11 11.5t-17 42.5l14 -4l74 36v193h-43l-17 -4l-12 16h72v234zM565 912q15 0 30.5 -8.5t35.5 -24.5l-26 -17v-94q8 11 15 29.5t11 43.5q17 -4 33.5 -12
t23.5 -16l-23 -15q-8 -14 -24 -24t-36 -16q-1 -15 -1.5 -28t-2.5 -24q40 -6 52.5 -14t12.5 -19q0 -18 -9.5 -29t-14.5 -11q-3 0 -4.5 5t-6 13t-12 18.5t-22.5 21.5q-7 -28 -23.5 -46t-46.5 -35l3 -42h291l27 35q27 -24 34.5 -39t7.5 -26q-10 -1 -19.5 -14.5t-18.5 -29.5
t-17 -30t-14 -17l-5 -5l9 115h-294q0 -8 0.5 -15.5t0.5 -14.5q0 -34 -4 -53t-10.5 -28.5t-14.5 -12t-17 -2.5q-21 0 -21 14q0 9 10 20q13 16 25 56t21 86q-8 -4 -16.5 -8t-17.5 -8l-3 3q25 19 40.5 37t24.5 41t12.5 55.5t3.5 79.5v105zM640 508q15 0 30.5 -8.5t35.5 -23.5
l-26 -17q0 -42 -3 -75h121l27 35q14 -5 27.5 -15t18.5 -21l-24 -25q0 -60 -2 -98.5t-14 -59.5q-6 -10 -16.5 -21t-23 -20t-24.5 -14.5t-21 -5.5h-21q0 8 -14.5 21.5t-37.5 29.5l10 10q23 -16 30.5 -18.5t12.5 -2.5q15 0 30 9t31 23q15 14 17.5 52.5t2.5 108.5h-131
q-4 -50 -17 -86.5t-37 -65t-61.5 -52.5t-90.5 -49l-3 3q40 26 69 51t48.5 53.5t31 63.5t17.5 82h-88l-18 -4l-11 16h119q2 26 3.5 57t1.5 67zM144 367h75v437h-58l-17 -11v-426zM761 912q15 0 30.5 -8.5t35.5 -24.5l-26 -17v-96q12 11 22 30t15 45q17 -4 33.5 -12t23.5 -16
l-22 -15q-10 -14 -29.5 -24.5t-42.5 -15.5q-1 -15 -2 -28.5t-3 -24.5q46 -3 61 -12.5t15 -22.5q0 -17 -8 -27t-13 -10q-3 0 -6 5.5t-9.5 13.5t-17 18.5t-26.5 21.5q-10 -36 -39.5 -57.5t-87.5 -43.5l-2 3q30 19 49 37t30 41.5t15 55.5t4 79v105zM720 829q7 -35 7 -57
q0 -23 -8 -30.5t-19 -7.5q-17 0 -25.5 5.5t-8.5 10.5q0 1 5.5 6t13.5 14.5t16.5 24.5t13.5 36zM534 829q7 -22 9.5 -37.5t2.5 -25.5q0 -21 -9.5 -25.5t-22.5 -4.5q-27 0 -27 13q0 5 9 10q11 5 19.5 26t13.5 46z" />
  </g>

</svg>
