<?xml version="1.0" standalone="no"?>
<!DOCTYPE svg PUBLIC "-//W3C//DTD SVG 1.1//EN" "http://www.w3.org/Graphics/SVG/1.1/DTD/svg11.dtd" >
<svg xmlns="http://www.w3.org/2000/svg" xmlns:xlink="http://www.w3.org/1999/xlink" version="1.1" viewBox="0 -36 256 256">
  <g transform="matrix(1 0 0 -1 0 220)">
   <path fill="currentColor"
d="M120 195h24v18h-24v-18zM156 195h22v18h-22v-18zM190 195h23v18h-23v-18zM120 169h24v19h-24v-19zM156 169h22v19h-22v-19zM190 169h23v19h-23v-19zM107 191q0 17 -1 37l13 -8h25q0 15 -1 26l19 -7l-6 -6v-13h22q0 12 -1 26l20 -8l-7 -5v-13h22l6 9l15 -12l-7 -5v-26
l1 -26l-14 -6v8h-93v-5l-14 -4q1 21 1 38zM100 57q6 22 6 43.5t-1 49.5l14 -8h90l10 11l18 -18h-118v-40h95l10 11l18 -18h-73q9 -22 21 -34q27 18 32 28l11 -16q-7 0 -20.5 -6t-19.5 -10q24 -23 53 -27v-4q-14 1 -21 -9q-24 12 -39.5 30.5t-23.5 47.5h-17v-55l25 14l2 -3
q-26 -22 -34 -33l-11 14q5 5 5 15v48h-13q-3 -27 -14.5 -47.5t-27.5 -31.5l-3 3q20 23 26 45zM194 118l10 11l18 -18h-61q-13 0 -22 -3l-10 10h65zM33 117h36l7 12l18 -13l-8 -6q-2 -33 -6 -54t-10.5 -31.5t-20.5 -14.5q0 7 -3.5 11.5t-18.5 9.5l1 5q20 -6 26 -5t10.5 17
t7.5 62h-40l-8 -8l-11 17l6 2q5 34 7 60l12 -9h35v46h-27q-13 0 -22 -3l-10 10h58l6 13l16 -12l-7 -7v-41q0 -11 1 -18l-15 -6v11h-34z" />
  </g>

</svg>
