<?xml version="1.0" standalone="no"?>
<!DOCTYPE svg PUBLIC "-//W3C//DTD SVG 1.1//EN" "http://www.w3.org/Graphics/SVG/1.1/DTD/svg11.dtd" >
<svg xmlns="http://www.w3.org/2000/svg" xmlns:xlink="http://www.w3.org/1999/xlink" version="1.1" viewBox="0 -36 256 256">
  <g transform="matrix(1 0 0 -1 0 220)">
   <path fill="currentColor"
d="M107 209l-8 -5l-2 -24h3l10 11l12 -18h-84q-10 0 -19 -2l-9 9h30l4 26h-3q-9 0 -15 -2l-8 9h27l4 31l17 -10l-6 -4l-3 -17h29l8 9zM87 206h-31l-4 -26h33zM74 15l-14 -7q1 37 1 47h-30l-5 -5l-11 11q5 3 7 10l4 16l15 -11l-6 -3l-4 -11h30v27h-20q-10 0 -19 -2l-9 9h48
v22h-22v-1l-13 -6q1 12 1 25t-1 28l15 -9h48l6 10l13 -12l-6 -6q0 -22 1 -29l-13 -5v5h-17v-22h20l10 10l15 -17h-45v-27h22l10 11l15 -18h-47q0 -21 1 -40zM39 148v-23h51v23h-51zM141 103h68v45h-68v-45zM128 121.5q0 23.5 -1 39.5l14 -6h67l7 10l14 -13l-7 -7
q0 -42 1 -52l-14 -6v9h-14v-55q0 -10 7 -10h20q7 0 8 8.5t2 26.5h4q1 -15 3 -23t7 -11q-5 -12 -20 -12h-28q-16 0 -16 17v59h-14q-6 -67 -65 -87l-1 4q48 26 52 83h-13v-6l-14 -6q1 14 1 37.5zM172 210q-3 17 -15 32l2 2q18 -9 23 -17.5t-4 -16.5h38l12 10l15 -17h-102
q-10 0 -19 -2l-9 9h59zM151 173.5q-12 -13.5 -39 -21.5l-1 4q35 17 41 50h14q-3 -19 -15 -32.5zM199 185q0 -9 8 -9q16 0 20.5 0.5t6 2.5t10.5 -6q2 -6 -12 -7h-29q-16 -1 -17 13v27h13v-21z" />
  </g>

</svg>
