<?xml version="1.0" standalone="no"?>
<!DOCTYPE svg PUBLIC "-//W3C//DTD SVG 1.1//EN" "http://www.w3.org/Graphics/SVG/1.1/DTD/svg11.dtd" >
<svg xmlns="http://www.w3.org/2000/svg" xmlns:xlink="http://www.w3.org/1999/xlink" version="1.1" viewBox="0 -36 256 256">
  <g transform="matrix(1 0 0 -1 0 220)">
   <path fill="currentColor"
d="M92 158l-13 -8v12h-12v-46h11l10 11l14 -18h-35v-59l31 11l1 -4q-33 -15 -67 -32l-9 -8l-12 16l14 4q0 78 -1 100l20 -14l-7 -7v-75l18 6v115h-21v-7l-13 -7q1 15 1 44.5t-1 47.5l15 -10h41l9 11l12 -16l-7 -6q0 -40 1 -61zM34 169h45v54h-45v-54zM155.5 204
q2.5 -9 -3.5 -14.5t-8 5t-10 29.5l3 2q16 -13 18.5 -22zM172 149q0 -8 -4.5 -11t-7.5 6.5t-11 21.5l3 2q20 -11 20 -19zM161 245l18 -9l-5 -6v-50h17v39q0 14 -1 27l19 -11l-6 -5v-50h16l10 12l14 -19h-90q-10 0 -19 -2l-9 9h37v32q0 21 -1 33zM220 234l15 -11
q-7 -5 -12.5 -16t-11.5 -20l-3 1q9 28 12 46zM205 172l17 -10q-15 -16 -24 -30h16l10 10l14 -17h-48q0 -5 -1 -19h19l10 9l15 -16h-45l-3 -21h35l11 11l15 -18h-63q-7 -23 -22 -38.5t-41 -25.5l-1 3q22 14 33.5 29t16.5 32h-20q-10 0 -19 -2l-9 9h50q2 6 3 21h-6
q-10 0 -19 -3l-9 10h35q1 10 1 19h-18q-10 0 -19 -2l-9 9h63q8 22 12 40zM119 15l-13 -8q1 28 1 51v106q-8 -15 -19 -26l-2 2q12 23 20 50.5t13 56.5l17 -12l-7 -9q-8 -30 -17 -52l12 -6l-5 -6v-147zM188 71q9 -18 25 -32t35 -16v-5q-13 1 -21 -10q-16 12 -27.5 29t-16.5 34
h5z" />
  </g>

</svg>
