<?xml version="1.0" standalone="no"?>
<!DOCTYPE svg PUBLIC "-//W3C//DTD SVG 1.1//EN" "http://www.w3.org/Graphics/SVG/1.1/DTD/svg11.dtd" >
<svg xmlns="http://www.w3.org/2000/svg" xmlns:xlink="http://www.w3.org/1999/xlink" version="1.1" viewBox="0 -205 1024 1024">
  <g transform="matrix(1 0 0 -1 0 819)">
   <path fill="currentColor"
d="M530 980q105 -55 132 -88q25 -34 20 -58q-6 -24 -20 -32q-12 -10 -30 -2q-15 6 -18 30q-3 21 -20 52q-15 29 -74 86l10 12v0v0zM308 778h550l44 56l64 -60q3 -4 4 -10q0 -12 -12 -12h-150q-19 -136 -58 -256q-36 -120 -108 -200q42 -45 96 -80q53 -35 116 -58
q62 -20 136 -31v-18q-34 0 -62 -6t-52 -40q-34 19 -88 52q-55 32 -98 65q-41 33 -76 76q-61 -68 -154 -127q-91 -60 -220 -102l-8 18q126 53 210 115q83 64 140 134q-55 78 -88 174q-33 95 -54 284h-50q-30 1 -56 -10l-26 36v0v0zM468 752q26 -177 64 -270q35 -90 80 -150
q35 45 74 136q39 88 66 284h-284v0v0zM114 926l6 16q72 -23 106 -40q32 -18 50 -38q15 -21 18 -44q0 -22 -12 -34q-12 -14 -26 -12q-16 0 -22 18q-7 18 -16 36q-6 15 -24 36q-15 19 -80 62v0v0zM22 696l6 16q59 -18 92 -32q33 -12 52 -32q18 -21 22 -42q1 -21 -10 -36
t-28 -12q-16 0 -22 16q-6 14 -14 32q-6 18 -24 36q-16 18 -74 54v0v0zM186 410q-18 -51 -42 -56q-22 -5 -86 0l-2 -20q39 -7 66 -16q25 -10 32 -22q8 -12 10 -42q0 -30 -8 -84q-10 -53 -8 -81q1 -27 20 -36q18 -9 34 0q15 9 18 36q3 25 -6 83q-10 57 -10 94q-1 36 8 66
q6 27 12 58l110 330l-20 8l-128 -318v0v0z" />
  </g>

</svg>
