<?xml version="1.0" standalone="no"?>
<!DOCTYPE svg PUBLIC "-//W3C//DTD SVG 1.1//EN" "http://www.w3.org/Graphics/SVG/1.1/DTD/svg11.dtd" >
<svg xmlns="http://www.w3.org/2000/svg" xmlns:xlink="http://www.w3.org/1999/xlink" version="1.1" viewBox="0 -36 256 256">
  <g transform="matrix(1 0 0 -1 0 220)">
   <path fill="currentColor"
d="M40 245l17 -6h57l11 7l14 -14h-84v-9h54l8 7l14 -14h-76v-7h53l8 6l14 -13h-75v-7h68l12 7l14 -14h-79l9 -7q-6 -1 -15.5 -5.5t-20.5 -9.5l71 2q-9 6 -19 12l2 3q27 -7 32.5 -12t1.5 -11t-7 -2t-7 6q-22 -2 -50.5 -5t-34.5 -5l-10 13q11 0 22 7.5t15 13.5h-21
q-11 -1 -21 -4l-9 11h33q0 33 -1 50zM229 236q-6 0 -30.5 -9t-58.5 -14v3q25 6 48.5 16.5t27.5 14.5zM238 208q-6 0 -33.5 -8.5t-55.5 -12.5l-1 3q28 8 49 16.5t29 14.5zM247 183q-10 -1 -37.5 -9t-69.5 -12v3q38 8 63 17t29 15zM73 159l22 -5l-7 -5v-6h9l9 6l15 -13h-33
q-1 -8 -3 -15h15l10 6l15 -13h-42l-2 -2q23 -5 29.5 -8t4.5 -11.5t-13 -0.5t-25 16q-7 -9 -19.5 -16t-42.5 -12l-1 4q25 8 37.5 16.5t15.5 13.5h-6q-22 0 -32 -2l-9 9h51q2 6 3 15h-12q-11 -1 -21 -3l-9 10h42q0 6 -1 16zM164 160l22 -6l-7 -5v-5h23l9 8l15 -15h-47
q-1 -10 -3 -16h33l9 9l17 -16h-50q8 -6 24 -12.5t31 -6.5v-4q-11 -1 -15 -10q-14 4 -27 13t-22 20h-2q-10 -12 -22.5 -18t-29.5 -9l-1 3q16 7 24 12.5t14 11.5h-3q-16 0 -23 -2l-11 9h40q3 9 3 16h-9q-10 -1 -18 -3l-10 10h37q0 3 -1 16zM77 87h101l7 7l15 -10l-7 -5v-18
q0 -18 1 -21l-15 -4v44h-103v-40l-15 -4q1 14 1 28t-1 27zM192 31q17 -3 22 -8t3.5 -12t-12.5 0.5t-56 22.5l1 4q25 -4 42 -7zM141 66l-8 -5q-5 -23 -23.5 -35t-73.5 -17v4q53 9 67 23t15 37z" />
  </g>

</svg>
