<?xml version="1.0" standalone="no"?>
<!DOCTYPE svg PUBLIC "-//W3C//DTD SVG 1.1//EN" "http://www.w3.org/Graphics/SVG/1.1/DTD/svg11.dtd" >
<svg xmlns="http://www.w3.org/2000/svg" xmlns:xlink="http://www.w3.org/1999/xlink" version="1.1" viewBox="0 -36 256 256">
  <g transform="matrix(1 0 0 -1 0 220)">
   <path fill="currentColor"
d="M40 234l21 -9l-6 -5v-23h69v26q0 10 -1 24l22 -9l-8 -5v-36h70v17q0 7 -2 19l23 -10l-8 -4v-14q0 -8 1 -15l-14 -7v7h-151l-8 -4l-13 10l6 4v14q0 8 -1 20zM151 113h63v20h-63v-20zM151 87h63v19h-63v-19zM151 60h63v20h-63v-20zM172 162h-16q-8 0 -18 -2l-9 9h87l12 9
l14 -16h-54q-5 -5 -19 -22h45l6 8l14 -11l-7 -6q0 -61 1 -81l-14 -4v7h-63l-1 -5l-13 -3q1 16 1 52t-1 48l14 -5h13q6 15 8 22zM176 38l-13 -4q-21 -17 -47 -26l-2 3q35 21 45 40zM229 32q10 -7 5.5 -18.5t-12 1t-31.5 31.5l2 3q26 -10 36 -17zM54 30h46v34h-46v-34z
M112 154h-71q-1 -9 -8.5 -13t-12 -0.5t4 11t11.5 22.5h5l1 -13h34q-2 12 -17 22l3 2q27 -8 25.5 -15t-4.5 -9h30l7 9l15 -14q-15 -1 -30 -18l-3 2zM24 89l-3 2q12 14 23 32.5t14 27.5l19 -8q-7 -1 -15 -14h40l8 7l12 -13l-7 -3q-11 -11 -22 -20q18 -5 25.5 -9t6 -13
t-8.5 -2.5t-32 17.5q-14 -10 -31 -20l5 -2h42l8 6l13 -10l-7 -4q0 -31 1 -42l-15 -6v8h-46v-7l-12 -7q1 16 1 60q-14 -5 -31 -9l-1 4q38 14 60 33q-13 6 -26 11q-9 -9 -21 -19zM49 112q15 -4 31 -9q12 10 19 19h-40q-5 -3 -10 -10z" />
  </g>

</svg>
