<?xml version="1.0" standalone="no"?>
<!DOCTYPE svg PUBLIC "-//W3C//DTD SVG 1.1//EN" "http://www.w3.org/Graphics/SVG/1.1/DTD/svg11.dtd" >
<svg xmlns="http://www.w3.org/2000/svg" xmlns:xlink="http://www.w3.org/1999/xlink" version="1.1" viewBox="0 -36 256 256">
  <g transform="matrix(1 0 0 -1 0 220)">
   <path fill="currentColor"
d="M220 202h-175q2 -17 -3 -24t-16.5 -6t-5 8t11.5 15t8 25h4l1 -11h83q0 16 -17 34l2 2q29 -10 31 -18.5t-7 -17.5h77l10 12l21 -18q-16 -3 -35 -28l-3 2zM123 173q-34 -2 -75 -2l-1 4q48 4 88.5 8.5t57.5 12.5l15 -18zM188.5 145.5q-12.5 -10.5 -25.5 -19.5l-2 3
q24 27 30 45l19 -16q-9 -2 -21.5 -12.5zM132 153.5q7 -6.5 5.5 -13.5t-7 -10t-9 10t-14.5 26l2 3q16 -9 23 -15.5zM46 71l21 -12l-6 -7v-24h59v46h-79q-11 0 -20 -2l-10 9h109v29h-47q-17 -14 -33 -23l-2 3q28 26 41 53l18 -12q-9 -4 -20 -14h105l14 12l19 -19h-81v-29h73
l14 13l21 -20h-108v-46h64v43l21 -13l-7 -6q0 -17 1 -33l-15 -7v9h-136l-6 -7l-16 13l7 7q0 21 -1 37zM46 166q21 -13 24.5 -20t-3 -16t-9.5 3.5t-15 30.5z" />
  </g>

</svg>
