<?xml version="1.0" standalone="no"?>
<!DOCTYPE svg PUBLIC "-//W3C//DTD SVG 1.1//EN" "http://www.w3.org/Graphics/SVG/1.1/DTD/svg11.dtd" >
<svg xmlns="http://www.w3.org/2000/svg" xmlns:xlink="http://www.w3.org/1999/xlink" version="1.1" viewBox="0 -36 256 256">
  <g transform="matrix(1 0 0 -1 0 220)">
   <path fill="currentColor"
d="M22 86l-12 13q12 6 32 22v38h-2q-13 0 -23 -2l-8 9h33v43q-14 -4 -28 -7v4q11 4 25.5 12t21.5 15l11 -13q-9 -3 -18 -7v-47h24q0 61 -1 77l20 -8l-7 -7v-62h11l12 10l15 -17h-38q0 -22 3 -55q18 31 21 42l16 -12q-8 -4 -35 -44q2 -26 13 -52l11 30l3 -1
q-3 -25 -4.5 -34.5t-1.5 -16.5t-8 1.5t-14 25t-10 37.5q-10 -10 -24 -22l-3 4q13 13 25 29q-2 19 -4 68h-24v-29l17 17l2 -3l-19 -23v-84q0 -6 -2.5 -11t-14.5 -10q-3 12 -20 17v4q12 -2 18.5 -2t6.5 6v69q-13 -14 -20 -24zM120.5 198q1.5 -8 -3.5 -15t-9 9t-12 28l2 2
q21 -16 22.5 -24zM176 212q-2 17 -16 30l2 3q21 -10 25.5 -17t-3.5 -16h31l13 11l17 -18h-100q-9 0 -17 -2l-9 9h57zM140 164.5q0 13.5 -1 31.5l15 -8h53l6 9l15 -11l-7 -6q0 -21 1 -40l-14 -4v9h-55v-7l-14 -5q1 18 1 31.5zM153 152h55v29h-55v-29zM173 30.5q5 -0.5 4 11.5
v28h-29q-9 0 -18 -2l-8 9h55q0 6 -1 21l11 -6q12 12 21 23h-48q-9 0 -17 -2l-9 9h77l9 8l13 -17q-12 -1 -43 -24l8 -5l-8 -4v-3h28l13 12l16 -19h-57v-33q1 -21 -18 -29q-2 15 -27 22v4q23 -3 28 -3.5z" />
  </g>

</svg>
