<?xml version="1.0" standalone="no"?>
<!DOCTYPE svg PUBLIC "-//W3C//DTD SVG 1.1//EN" "http://www.w3.org/Graphics/SVG/1.1/DTD/svg11.dtd" >
<svg xmlns="http://www.w3.org/2000/svg" xmlns:xlink="http://www.w3.org/1999/xlink" version="1.1" viewBox="0 -205 1024 1024">
  <g transform="matrix(1 0 0 -1 0 819)">
   <path fill="currentColor"
d="M346 658h408v306l76 -30q9 -9 0 -14q-7 -6 -28 -18v-244h82l36 44l60 -54q2 -3 2 -6q0 -12 -12 -12h-166q3 -100 6 -148q4 -49 14 -134q20 44 40 112q18 69 28 120q74 -30 74 -36q1 -6 -4 -8q-4 0 -16 -6q-13 -6 -34 -74q-22 -69 -70 -170q18 -60 36 -90q15 -30 36 -56
q21 -23 30 8q8 32 26 124l20 -4q-9 -73 -14 -118q-3 -44 6 -69q8 -24 16 -36q6 -10 -2 -20q-7 -8 -32 4q-23 11 -52 40t-58 73q-27 46 -42 86q-24 -40 -72 -95q-49 -57 -134 -114l-12 12q69 64 114 117q44 52 82 134q-18 118 -24 182q-5 63 -10 166h-130v-102h38l30 34
q45 -40 48 -46q4 -6 2 -8q-3 -4 -14 -4h-104v-84h54l28 34q40 -40 44 -46q3 -5 0 -10q-3 -4 -14 -2h-112v-82h54l32 38q45 -43 48 -52q3 -7 -2 -8q-6 -1 -20 -2h-112v-90l102 16l2 -18q-232 -56 -286 -73q-54 -14 -86 -44l-36 65l142 24v120h-52q-33 1 -44 -10l-24 36h120
v74h-50q-24 0 -42 -6l-18 30h110v88h-62q-10 3 -40 -6l-18 30h120v104h-50q-21 0 -44 -8l-24 36v0v0zM512 178l66 12v440h-66v-452v0v0zM816 872l6 14q63 -28 94 -52q27 -23 30 -46q3 -24 -8 -36q-12 -13 -26 -10q-12 2 -18 20q-5 15 -16 42q-12 23 -62 68v0v0zM460 962
q65 -30 68 -36q0 -6 -2 -8q-1 -3 -14 -8q-13 -3 -22 -20q-7 -15 -26 -54q39 -25 58 -50q16 -24 14 -42q-1 -15 -10 -24t-24 -6q-15 4 -18 38q0 32 -30 68q-29 -70 -88 -148l-16 8q77 159 110 282v0v0zM626 956q71 -30 74 -36q3 -3 0 -6t-20 -8q-16 -6 -22 -18
q-7 -12 -32 -66q50 -31 68 -52q15 -19 16 -38q0 -17 -8 -28q-9 -10 -24 -8q-15 3 -20 36q-6 33 -44 72q-22 -54 -82 -138l-16 8q80 165 110 282v0v0zM114 972q90 -51 114 -78q22 -28 20 -52q-3 -22 -14 -32q-9 -10 -24 -4q-15 3 -20 30q-6 27 -20 52q-14 24 -64 72l8 12v0v0
zM18 760h232l32 38l52 -48q9 -7 10 -14q1 -6 -16 -8q-21 -3 -42 -36q-37 -57 -82 -134v-74l16 -8l74 126l54 -36q6 -10 0 -14q-6 -3 -20 -2q-15 0 -90 -80q48 -27 66 -44q17 -15 22 -36q6 -18 0 -32q-7 -14 -22 -16q-15 -1 -24 14q-6 12 -12 30q-6 17 -24 38q-19 20 -40 38
v-312l4 -83q1 -12 -18 -30q-21 -18 -38 -18l4 120v351q-60 -80 -132 -142l-12 12q63 78 102 136q39 55 64 98q23 41 74 140h-164q-24 0 -50 -8l-20 34v0v0z" />
  </g>

</svg>
