<?xml version="1.0" standalone="no"?>
<!DOCTYPE svg PUBLIC "-//W3C//DTD SVG 1.1//EN" "http://www.w3.org/Graphics/SVG/1.1/DTD/svg11.dtd" >
<svg xmlns="http://www.w3.org/2000/svg" xmlns:xlink="http://www.w3.org/1999/xlink" version="1.1" viewBox="0 -200 1000 1000">
  <g transform="matrix(1 0 0 -1 0 800)">
   <path fill="currentColor"
d="M333 121h534v213h-413q-26 1 -44 -13l-33 31h490v191h-459q-18 2 -37 -14l-34 34h263v353q2 16 -26 41l8 11l86 -33q14 -5 6 -11q-17 -4 -29 -18v-343h206l36 38l48 -46q7 -6 6 -10t-10 -6l-19 -8v-337l6 -130q0 -30 -51 -32v69h-457q-26 1 -44 -13zM303 758l20 -6
l-68 -253q-33 -125 -67 -222q-13 -43 3 -141q16 -99 -23 -105q-40 -4 -27 93q12 99 -3 114q-16 15 -69 21v18q49 0 64 8t28 38q12 31 39 112q4 12 15 44q48 137 88 279zM824 883l79 -49q16 -11 6 -15q-30 -1 -44 -16q-65 -112 -130 -195l-17 6l46 85q66 130 63 148
q-4 13 -11 28zM355 851l8 9q119 -79 140 -153q18 -71 -23 -76q-20 1 -23 42q-4 40 -28 85q-23 44 -74 93zM36 704l4 13q73 -21 100 -38q21 -16 36 -36q12 -20 7 -40q-6 -21 -22 -24q-16 -4 -22 21q-8 27 -27 51q-18 27 -76 53zM135 930l4 12q74 -20 98 -38q26 -17 36 -37
q12 -18 7 -39t-21 -23q-17 -3 -23 20q-6 24 -25 52q-19 27 -76 53z" />
  </g>

</svg>
