<?xml version="1.0" standalone="no"?>
<!DOCTYPE svg PUBLIC "-//W3C//DTD SVG 1.1//EN" "http://www.w3.org/Graphics/SVG/1.1/DTD/svg11.dtd" >
<svg xmlns="http://www.w3.org/2000/svg" xmlns:xlink="http://www.w3.org/1999/xlink" version="1.1" viewBox="0 -36 256 256">
  <g transform="matrix(1 0 0 -1 0 220)">
   <path fill="currentColor"
d="M106 225q0 -56 0.5 -91t-11 -66t-57.5 -59l-2 4q36 30 46.5 57t10 83t-1.5 89l24 -9zM155 57v143l-1 40l25 -9l-10 -9v-179l1 -26l-16 -5zM95 179v-5q-57 -20 -71 -29l-14 16q18 1 85 18zM63 208q11 -6 6 -17t-12.5 1.5t-28.5 25.5l1 3q23 -7 34 -13zM223 165
q19 -6 17.5 -18t-17.5 0t-58 24v9q51 23 64 37l17 -15q-7 -1 -23.5 -7t-54.5 -20q36 -4 55 -10zM92 93l1 -5q-56 -21 -69 -30l-14 17q17 1 82 18zM62.5 124.5q11.5 -5.5 6.5 -17t-13 1t-29 24.5l1 3q23 -6 34.5 -11.5zM223 86.5q18 -4.5 17 -18t-15.5 -1.5t-58.5 25v9
q48 22 63 37l17 -15q-7 -2 -21 -6.5t-57 -20.5q37 -5 55 -9.5z" />
  </g>

</svg>
