<?xml version="1.0" standalone="no"?>
<!DOCTYPE svg PUBLIC "-//W3C//DTD SVG 1.1//EN" "http://www.w3.org/Graphics/SVG/1.1/DTD/svg11.dtd" >
<svg xmlns="http://www.w3.org/2000/svg" xmlns:xlink="http://www.w3.org/1999/xlink" version="1.1" viewBox="0 -205 1024 1024">
  <g transform="matrix(1 0 0 -1 0 819)">
   <path fill="currentColor"
d="M76 218h562l34 42l58 -48q3 -4 10 -10q1 -10 -12 -10h-574q-19 -1 -56 -10l-22 36v0v0zM710 522l56 -44q6 -6 4 -12q-3 -6 -36 -20l-32 -110h108l30 38l58 -50q12 -9 -2 -18l-30 -18q-3 -54 -12 -114q-8 -58 -40 -89q-30 -30 -90 -52q-9 27 -36 44t-84 34l4 18
q99 -20 126 -20q29 1 46 16q15 14 24 57q8 41 14 128h-482l-24 -24l-58 42l28 18q17 46 28 92l64 -26q9 -7 0 -14q-17 -4 -28 -8l-16 -54h320l36 130h-452q-18 -1 -48 -10l-18 36h518l24 30v0v0zM478 766l24 24l56 -50q12 -10 4 -16q-24 -3 -44 -14q-22 -9 -82 -66l-14 8
l58 88h-122v-140q0 -31 -18 -50q-17 -18 -52 -26q-10 24 -28 36q-19 11 -64 28l4 16q54 -14 84 -16q30 -4 28 20v120q-54 -58 -128 -106q-75 -47 -146 -70l-6 14q72 35 130 80q59 44 100 94h-160q-12 0 -38 -8l-22 34h436v0v0zM468 940q63 -50 66 -58q1 -6 -4 -8
q-4 -1 -16 -2q-11 0 -46 -8q-34 -7 -112 -56q9 -14 0 -28q-7 -13 -22 -10q-12 0 -20 16q-9 13 -24 32q-14 17 -46 38l8 12q72 -28 94 -46l76 64h-270q-15 0 -36 -8l-26 34h350l28 28v0v0zM446 530q71 24 140 60q65 33 104 66q-42 50 -80 154l-50 -52l-14 8q26 34 58 92
q32 56 58 122q68 -30 70 -36q3 -6 -2 -8q-5 -3 -16 -6q-12 -1 -24 -16q-13 -16 -46 -64h238l34 46q60 -52 64 -62q3 -9 -12 -12h-104q-46 -102 -116 -170q33 -27 78 -44q42 -18 78 -24t90 -8v-18q-22 2 -44 -4q-19 -6 -38 -36q-42 15 -96 42t-98 66q-54 -36 -114 -62
q-58 -28 -154 -52l-4 18v0v0zM632 824q45 -101 84 -142q39 36 96 142h-180v0v0z" />
  </g>

</svg>
