<?xml version="1.0" standalone="no"?>
<!DOCTYPE svg PUBLIC "-//W3C//DTD SVG 1.1//EN" "http://www.w3.org/Graphics/SVG/1.1/DTD/svg11.dtd" >
<svg xmlns="http://www.w3.org/2000/svg" xmlns:xlink="http://www.w3.org/1999/xlink" version="1.1" viewBox="0 -205 1024 1024">
  <g transform="matrix(1 0 0 -1 0 819)">
   <path fill="currentColor"
d="M118 960l60 -42h224l36 46l62 -46q6 -6 6 -8q-1 -6 -34 -36v-158l4 -78q0 -17 -14 -28q-16 -12 -40 -12v40h-254v-12q1 -21 -22 -30q-21 -11 -32 -6l4 116v254v0v0zM168 664h254v230h-254v-230v0v0zM74 520l56 -42h310l32 40l66 -40q6 -6 6 -8q-1 -9 -34 -38v-216l4 -91
q2 -14 -16 -28q-16 -11 -40 -14v85h-330v-57q0 -18 -20 -30q-19 -13 -38 -12l4 115v336v0v0zM128 194h330v260h-330v-260v0v0zM904 962l62 -54q9 -6 10 -14q1 -4 -10 -10q-27 -6 -50 -36q-61 -103 -124 -212q78 -66 112 -108q32 -43 46 -76q12 -34 18 -64q4 -30 -6 -60
q-12 -30 -36 -56q-25 -25 -92 -56q-12 32 -36 50q-23 15 -82 36l6 20q59 -19 86 -22q26 -4 50 2t40 28q14 20 14 52q1 32 -10 64q-12 30 -36 66q-23 35 -106 122l118 254h-208v-710l4 -97q0 -14 -20 -28q-20 -12 -40 -12l4 137v782l64 -44h186l36 46v0v0z" />
  </g>

</svg>
