<?xml version="1.0" standalone="no"?>
<!DOCTYPE svg PUBLIC "-//W3C//DTD SVG 1.1//EN" "http://www.w3.org/Graphics/SVG/1.1/DTD/svg11.dtd" >
<svg xmlns="http://www.w3.org/2000/svg" xmlns:xlink="http://www.w3.org/1999/xlink" version="1.1" viewBox="0 -36 256 256">
  <g transform="matrix(1 0 0 -1 0 220)">
   <path fill="currentColor"
d="M37 236l14 -9h51l8 10l14 -13l-8 -5v-61l9 11l14 -17h-55v-28q0 -17 -17 -20q-2 11 -23 17v3q19 -2 23 -2.5t4 5.5v25h-32q-11 0 -21 -2l-10 9h30v36q0 27 -1 41zM51 211h52v9h-52v-9zM51 194h52v10h-52v-10zM51 178h52v9h-52v-9zM51 159h52v12h-52v-12zM58 136
q-6 0 -18.5 -10t-28.5 -19l-3 3q23 18 34 38zM120.5 130q2.5 -6 -2.5 -14t-9 3t-16 24l2 2q23 -9 25.5 -15zM195 159v-33q0 -16 -18 -22q-1 12 -22 15v5q20 -1 23.5 -0.5t3.5 5.5v28q-14 -2 -23.5 -3.5t-12.5 -4.5l-9 15q11 2 23.5 10.5t31.5 21.5q-13 -2 -26 -3.5t-22 -5.5
l-7 15q7 0 16 7t18 16q-29 -2 -43 -3v4q33 4 59.5 9t35.5 12l14 -16q-24 0 -62 -6l12 -9q-10 -2 -17 -6t-19 -10l46 1q16 12 22 22l16 -15q-10 -1 -30.5 -15t-47.5 -29l67 5q-6 8 -13 17l2 2q30 -17 32 -25t-3 -15t-7.5 -0.5t-7.5 14.5q-13 -1 -32 -3zM170 137
q-7 -1 -19.5 -10.5t-20.5 -12.5l-2 2q18 14 29 33zM239 131.5q10 -6.5 6 -18.5t-11 -0.5t-31 30.5l1 3q25 -8 35 -14.5zM135 86v-27h56v26h-55h-1v1zM65 59h55v26h-55v-26zM120 52h-55v-6l-15 -5v58l15 -7h55v27l24 -9l-9 -5v-13h55l8 8l17 -10l-9 -5v-32l-15 -4v3h-56v-24
q43 0 65 2q-14 9 -28 16l2 2q56 -14 61.5 -22.5t2.5 -15t-11.5 1t-20.5 14.5q-170 -11 -180 -18l-11 16q32 0 105 4v24z" />
  </g>

</svg>
