<?xml version="1.0" standalone="no"?>
<!DOCTYPE svg PUBLIC "-//W3C//DTD SVG 1.1//EN" "http://www.w3.org/Graphics/SVG/1.1/DTD/svg11.dtd" >
<svg xmlns="http://www.w3.org/2000/svg" xmlns:xlink="http://www.w3.org/1999/xlink" version="1.1" viewBox="0 -36 256 256">
  <g transform="matrix(1 0 0 -1 0 220)">
   <path fill="currentColor"
d="M42 164h49l6 10l14 -10l-7 -8q0 -15 1 -28l-13 -5v5h-50v-6l-14 -7l7 -6h64l6 10l14 -10l-6 -8v-12q0 -12 1 -24l-13 -5v7h-68v-36l81 14l1 -4q-77 -20 -94 -30l-8 17l7 1v54q0 19 -1 39l9 -7q2 30 1 57zM42 135h50v22h-50v-22zM33 102v-28h28v28h-28zM73 74h28v28h-28
v-28zM25 205q9 -6 14.5 -13t-1 -16t-8.5 2t-13 28q7 9 19 37l15 -10q-9 -5 -26 -28zM83 207q11 15 19 32l14 -9q-8 -6 -24 -23q13 -8 17.5 -15t-1.5 -15t-9.5 5.5t-15.5 24.5zM76.5 191q3.5 -6 -3 -13.5t-9 4.5t-13.5 26q14 21 19 34l15 -10q-9 -5 -27 -25q15 -10 18.5 -16z
M143 193q-10 0 -19 -2l-9 9h54q0 24 -1 47l21 -11l-7 -7v-29h29l13 11l15 -18h-57v-60q3 -7 6 -11q12 28 16 60l18 -10l-6 -4q-5 -15 -9 -24q20 -12 24.5 -18.5t-1 -15.5t-10 4.5t-15.5 24.5q-7 -11 -15 -21q24 -47 58 -61v-4q-13 0 -20 -11q-27 27 -46 77v-68q0 -13 1 -35
l-15 -8q1 22 1 41v50q-15 -34 -63 -72l-2 3q52 54 65 110v53h-26zM147 146q10 -7 14 -13t-0.5 -15.5t-8.5 4.5t-8 18q-9 -20 -23 -37l-3 2q20 38 22 75l19 -10l-6 -5q-3 -8 -6 -19z" />
  </g>

</svg>
