<?xml version="1.0" standalone="no"?>
<!DOCTYPE svg PUBLIC "-//W3C//DTD SVG 1.1//EN" "http://www.w3.org/Graphics/SVG/1.1/DTD/svg11.dtd" >
<svg xmlns="http://www.w3.org/2000/svg" xmlns:xlink="http://www.w3.org/1999/xlink" version="1.1" viewBox="0 -36 256 256">
  <g transform="matrix(1 0 0 -1 0 220)">
   <path fill="currentColor"
d="M176.5 179.5q-22.5 15.5 -44.5 46.5q-54 -57 -120 -75l-1 4q28 12 50 26.5t39 32.5t24 31l18 -13l-7 -3q31 -32 58.5 -43.5t54.5 -13.5v-4q-15 -2 -19 -13q-30 9 -52.5 24.5zM79 147h93l7 10l16 -12l-6 -6q0 -32 1 -47l-16 -6v9h-96v-8l-16 -6q1 22 1 41t-1 32zM78 102
h96v38h-96v-38zM149 176l12 11l17 -18h-72q-13 1 -23 -2l-9 9h75zM141 83l-8 -5q26 -28 55 -39.5t57 -11.5v-4q-17 -3 -22 -14q-61 17 -93 64q-17 -27 -43 -42.5t-72 -21.5v4q33 9 52 19t33.5 26.5t19.5 36.5z" />
  </g>

</svg>
