<?xml version="1.0" standalone="no"?>
<!DOCTYPE svg PUBLIC "-//W3C//DTD SVG 1.1//EN" "http://www.w3.org/Graphics/SVG/1.1/DTD/svg11.dtd" >
<svg xmlns="http://www.w3.org/2000/svg" xmlns:xlink="http://www.w3.org/1999/xlink" version="1.1" viewBox="0 -36 256 256">
  <g transform="matrix(1 0 0 -1 0 220)">
   <path fill="currentColor"
d="M219 187l10 11l18 -18h-207q-13 0 -22 -3l-10 10h211zM161 246l24 -10l-9 -8q0 -30 2.5 -76.5t11.5 -72.5q18 38 23 76l20 -12l-7 -4q-17 -55 -30 -74q15 -22 34 -32l8 43h5q-1 -53 4 -69q-33 13 -59 45q-26 -26 -65 -42l-1 3q40 24 59 51q-12 34 -15.5 94.5t-4.5 87.5z
M218 224.5q8 -6.5 7.5 -12.5t-6.5 -12t-8.5 7t-21.5 30l3 3q18 -9 26 -15.5zM91 185h-14v24h-26q-13 0 -22 -3l-10 10h58v17q0 9 -1 14l22 -9l-7 -7v-15h28l10 11l18 -18h-56v-24zM43 83h80l10 8l15 -14l-8 -5v-47l-15 -4v8h-83v-8l-14 -4v73zM42 58h83v18h-83v-18zM42 36
h83v15h-83v-15zM73 159q0 9 -1 18l21 -5l-7 -6v-7h44l10 11l18 -18h-72v-28h36v8q0 8 -1 16l22 -6l-6 -5v-19l-15 -6v5h-36v-7q0 -5 12 -8h38q11 1 8 24h5q0 -19 9 -22q-2 -11 -19 -12h-50q-16 1 -16 16v9h-31l-4 -7l-14 11l5 4v7q0 8 -1 17l21 -6l-7 -3v-16h31v28h-28
q-13 0 -22 -3l-10 10h60z" />
  </g>

</svg>
