<?xml version="1.0" standalone="no"?>
<!DOCTYPE svg PUBLIC "-//W3C//DTD SVG 1.1//EN" "http://www.w3.org/Graphics/SVG/1.1/DTD/svg11.dtd" >
<svg xmlns="http://www.w3.org/2000/svg" xmlns:xlink="http://www.w3.org/1999/xlink" version="1.1" viewBox="0 -205 1024 1024">
  <g transform="matrix(1 0 0 -1 0 819)">
   <path fill="currentColor"
d="M870 660l38 48l60 -58q4 -4 2 -10q0 -6 -14 -6h-534q-21 0 -66 -8l-14 34h528v0v0zM466 606l56 -32h240l36 36l50 -40q10 -9 6 -14q-6 -4 -32 -22v-54l4 -44q-1 -12 -20 -24q-16 -10 -34 -10v38h-258v-12q0 -8 -12 -16q-10 -6 -40 -12l4 88v118v0v0zM514 464h258v86h-258
v-86v0v0zM502 324l56 -28h160l30 32l44 -36q9 -6 10 -14q1 -4 -22 -20v-56l4 -42q0 -13 -18 -23q-15 -9 -36 -12v31h-178v-8q1 -8 -10 -13q-15 -13 -44 -14l4 69v134v0v0zM552 180h178v92h-178v-92v0v0zM362 428l60 -46h452l28 36l54 -46q9 -3 10 -12q0 -6 -32 -26v-231
q1 -43 -18 -62q-20 -18 -64 -34q-10 39 -40 50q-30 10 -78 22l4 18q78 -13 96 -14q21 -1 36 4q15 3 12 36v235h-468v-204l4 -89q-1 -14 -22 -28q-22 -14 -38 -16l4 112v295v0v0zM568 782l8 10q42 -18 66 -32q24 -13 34 -32q6 -17 -2 -34q-8 -16 -28 -16q-21 0 -24 24
q-4 22 -16 38q-10 15 -38 42v0v0zM334 576l20 -8q-147 -292 -156 -316q-8 -25 -6 -64t8 -67q3 -29 4 -52q0 -21 -12 -30q-13 -10 -32 -6q-17 4 -22 20q-3 18 6 56t12 71q2 30 -4 40q-5 7 -28 14q-24 6 -74 12l2 20q66 -3 84 6q16 8 32 28q17 21 166 276v0v0zM144 754l8 12
q54 -21 84 -38q30 -18 40 -38q9 -18 -2 -36q-10 -18 -28 -18q-18 -1 -24 20q-3 20 -20 44t-58 54v0v0zM52 570l8 12q60 -24 90 -38q27 -15 36 -36q6 -19 -2 -34q-9 -15 -26 -18q-18 -1 -24 22t-24 44q-17 18 -58 48v0v0zM354 984l84 -28q6 -3 6 -8q-1 -3 -40 -26v-44h224
v104l82 -34q3 -5 4 -10q1 -2 -34 -22v-38h194l40 48l60 -62q3 -1 4 -8q-1 -6 -16 -6h-282v-34q0 -12 -12 -20q-9 -6 -18 -8q-10 -3 -22 -2v64h-224v-42q0 -12 -8 -18l-18 -10q-9 -3 -24 -2v72h-218q-22 -1 -70 -10l-18 38h306v106v0v0z" />
  </g>

</svg>
