<?xml version="1.0" standalone="no"?>
<!DOCTYPE svg PUBLIC "-//W3C//DTD SVG 1.1//EN" "http://www.w3.org/Graphics/SVG/1.1/DTD/svg11.dtd" >
<svg xmlns="http://www.w3.org/2000/svg" xmlns:xlink="http://www.w3.org/1999/xlink" version="1.1" viewBox="0 -36 256 256">
  <g transform="matrix(1 0 0 -1 0 220)">
   <path fill="currentColor"
d="M26 199v-120h29v120h-29zM14 74v98q0 20 -1 43l13 -9h27l7 10l14 -11l-7 -7v-111q0 -17 1 -34l-13 -8v27h-29v-24l-13 -7q1 16 1 33zM95.5 81q-0.5 -10 -0.5 -27v-24t-10.5 -2t-5 25t0.5 24.5t-12 6.5l1 4q9 -1 11 -0.5t7.5 8.5t24.5 84l4 -1q-20 -88 -20.5 -98z
M96.5 155q0.5 -9 -4.5 -14t-8.5 6.5t-15.5 26.5l2 2q26 -12 26.5 -21zM108 212q3 -7 -2 -15.5t-8.5 3.5t-15.5 29l1 2q22 -12 25 -19zM225 205h-94q0 -10 -3.5 -17.5t-12 -3.5t-3.5 9t9 12.5t6 18.5h4v-12h37v32l22 -9l-9 -6v-17h43l6 11l17 -15q-8 -1 -26 -22l-4 1z
M127 145q0 26 -1 37l13 -7q14 12 19 19l14 -10q-12 -2 -32 -13v-23h13l9 8l12 -15h-34v-23h70v24h-7q-10 0 -18 -2l-9 9h34v23h-9q-9 0 -17 -2l-10 9h36l6 7l14 -11l-8 -6q0 -47 1 -62l-13 -3v7h-70v-5l-14 -3q1 16 1 42zM229 39q-2 -10 -9 -19.5t-24 -12.5q-3 13 -22 19
l1 3q27 -6 33 -2.5t8 13t6 45.5h-77q-14 -10 -37 -20l-2 3q29 20 44 45l16 -12q-8 -3 -15 -9h70l8 8l15 -12l-9 -6q-4 -33 -6 -43zM208 58.5q7 -6.5 0 -13.5t-9 4.5t-12 20.5l3 1q11 -6 18 -12.5zM131 65q0 -24 -6 -30.5t-14 -3t1.5 9.5t15.5 24h3zM182 57.5
q7 -6.5 -0.5 -13t-9 5t-10.5 19.5l1 1q12 -6 19 -12.5zM158 52q6 -8 -2 -14t-8.5 4.5t-8.5 22.5l2 2q11 -7 17 -15z" />
  </g>

</svg>
