<?xml version="1.0" standalone="no"?>
<!DOCTYPE svg PUBLIC "-//W3C//DTD SVG 1.1//EN" "http://www.w3.org/Graphics/SVG/1.1/DTD/svg11.dtd" >
<svg xmlns="http://www.w3.org/2000/svg" xmlns:xlink="http://www.w3.org/1999/xlink" version="1.1" viewBox="0 -36 256 256">
  <g transform="matrix(1 0 0 -1 0 220)">
   <path fill="currentColor"
d="M116 163h32q5 12 5 25h-37v-25zM162 163h45v25h-39q-1 -10 -6 -25zM175 216h-47q-14 -13 -20 -18l7 -3h45zM174 110q17 -10 36 -22.5t19.5 -23t-3.5 -13t-13 12t-39 41.5v5zM182 122q-8 -3 -11 -5q9 -16 11.5 -36t-5.5 -32t-28 -16q0 11 -27 18v4q28 -4 36.5 -1t9.5 15.5
t-1 21.5q-36 -31 -90 -41l-1 4q19 4 44.5 18.5t41.5 34.5q-3 8 -5 11q-19 -18 -34.5 -25.5t-43.5 -14.5l-2 3q24 9 39 18.5t35 29.5q-3 7 -5 10q-30 -22 -63 -31l-2 3q44 18 64 45h-29v-5l-14 -4q1 18 1 43q-12 -9 -25 -17l-2 3q23 22 35.5 39.5t18.5 32.5l17 -12
q-5 -1 -15 -13h46l11 9l14 -14q-10 -2 -20 -9t-16 -14h39l7 9l15 -10l-7 -6q0 -23 1 -33l-15 -5v6h-47q-5 -8 -11 -13q9 -9 19 -21q25 13 38 26l12 -16q-11 -2 -31 -9zM34 238q26 -16 30 -26.5t-3.5 -20.5t-10.5 6.5t-19 37.5zM48 153l8 10l15 -13l-8 -7v-83
q15 -16 32 -22.5t62.5 -7.5t90.5 5v-5q-18 -4 -19 -16q-81 0 -107 4.5t-39.5 14t-20.5 17t-18.5 -4t-19.5 -24.5l-15 13q13 11 40 26v86h-10q-9 0 -20 -3l-10 10h39z" />
  </g>

</svg>
