<?xml version="1.0" standalone="no"?>
<!DOCTYPE svg PUBLIC "-//W3C//DTD SVG 1.1//EN" "http://www.w3.org/Graphics/SVG/1.1/DTD/svg11.dtd" >
<svg xmlns="http://www.w3.org/2000/svg" xmlns:xlink="http://www.w3.org/1999/xlink" version="1.1" viewBox="0 -246 2048 2048">
  <g transform="matrix(1 0 0 -1 0 1802)">
   <path fill="currentColor"
d="M1542 1107h-433q100 -262 273 -435q188 161 326 348q152 -102 152 -141q0 -28 -105 -16q-112 -97 -328 -232q194 -172 508 -289q-64 -52 -98 -129q-306 155 -487 357q-180 200 -261 467v-768q0 -94 -49 -133q-51 -41 -168 -41q0 56 -62 84q-52 22 -194 47v55
q144 -21 293 -21q63 0 63 62v785h-474v-99h-115v846q39 -13 133 -64h1010l78 94q127 -96 127 -123q0 -16 -23 -32l-49 -37v-672h-117v87zM1542 1158v276h-1044v-276h1044zM1542 1485v254h-1044v-254h1044zM129 191l-31 45q406 187 604 569h-514l-20 51h530l68 88
q127 -105 127 -139q0 -11 -19 -21l-49 -20q-241 -409 -696 -573z" />
  </g>

</svg>
