<?xml version="1.0" standalone="no"?>
<!DOCTYPE svg PUBLIC "-//W3C//DTD SVG 1.1//EN" "http://www.w3.org/Graphics/SVG/1.1/DTD/svg11.dtd" >
<svg xmlns="http://www.w3.org/2000/svg" xmlns:xlink="http://www.w3.org/1999/xlink" version="1.1" viewBox="0 -339 2048 2048">
  <g transform="matrix(1 0 0 -1 0 1709)">
   <path fill="currentColor"
d="M1460 701q36 54 61 94q66 103 127 238q25 55 43 104q15 39 39 108l144 -80q28 -15 28 -29q0 -8 -6 -14q-11 -11 -39 -12l-60 -2q-79 -167 -101 -206q-32 -56 -103 -161q-53 -79 -94 -131q32 -68 88 -147q73 -101 146 -157q42 -32 60 -32q11 0 23 20q12 21 27 88
q22 99 41 196q6 29 29 145l37 -12q-5 -72 -8 -90l-15 -135q-15 -154 -16 -163q-4 -40 -4 -55q0 -33 8 -51q4 -7 29 -42q15 -22 15 -39q0 -13 -12 -24q-8 -7 -21 -12q-12 -4 -25 -4q-85 0 -194 77q-77 54 -140 133q-61 76 -107 155q-13 24 -34 64q-92 -100 -200 -194
q-78 -68 -158 -125q-31 -23 -87 -61l-18 30q79 69 126 112q175 161 301 319q-52 127 -83 249q-66 254 -88 611h-946q-15 0 -82 -4q-18 -1 -67 -8l-39 86q62 -9 87 -11q57 -6 101 -6h943q-10 195 -16 430l148 -35q31 -7 38 -17q6 -8 6 -17t-6 -18q-10 -14 -36 -23l-46 -15
q1 -132 4 -215q2 -27 5 -90h431l95 104l121 -107q13 -12 16 -18q2 -4 2 -11q0 -12 -8 -19q-4 -4 -8 -5t-14 -1h-632q15 -244 46 -416q22 -120 67 -262q14 -44 31 -87zM268 1022h49q0 -125 -5 -184q-10 -122 -47 -197q-22 -43 -51 -70q-36 -33 -72 -33q-17 0 -32 9t-21 26
q-3 8 -3 16q0 13 9 29q5 10 25 29l26 26q56 53 86 135q17 45 25 106q5 33 11 108zM929 734l41 -5l-4 -156q-2 -43 9 -62q6 -12 18 -22q2 -1 32 -22q17 -12 17 -28t-13 -32q-53 -63 -303 -63q-103 0 -160 8q-106 15 -132 65q-15 28 -15 82v450q0 74 -5 137q0 9 -2 23l109 -24
q59 -13 73 -24q13 -10 13 -22q0 -10 -10 -21q-13 -13 -40 -20l-42 -12v-466q0 -27 14 -44q13 -15 45 -23q23 -5 68 -8q46 -4 94 -4q69 0 103 9q33 10 46 29q16 22 24 88zM1502 1927q122 -33 189 -68q62 -31 92 -67q16 -19 21 -36q3 -11 3 -23q0 -27 -19 -43q-14 -12 -34 -12
q-15 0 -30 9q-9 5 -21 22q-7 9 -13 19q-21 30 -58 67q-55 55 -146 97zM613 1400q62 -52 94 -87q62 -66 93 -128q24 -45 24 -80q0 -33 -19 -54q-14 -16 -37 -16q-20 0 -30 14q-7 10 -11 28l-8 32q-17 72 -49 142q-16 35 -38 68q-13 20 -42 58zM979 1021q60 -65 93 -110
q52 -70 78 -140q21 -54 21 -96q0 -31 -12 -54q-7 -12 -19 -19.5t-25 -7.5q-18 0 -28 13q-11 14 -15 32q-2 13 -8 54q-10 74 -44 166q-17 48 -34 81q-12 22 -36 59z" />
  </g>

</svg>
