<?xml version="1.0" standalone="no"?>
<!DOCTYPE svg PUBLIC "-//W3C//DTD SVG 1.1//EN" "http://www.w3.org/Graphics/SVG/1.1/DTD/svg11.dtd" >
<svg xmlns="http://www.w3.org/2000/svg" xmlns:xlink="http://www.w3.org/1999/xlink" version="1.1" viewBox="0 -36 256 256">
  <g transform="matrix(1 0 0 -1 0 220)">
   <path fill="currentColor"
d="M224 226h-186q0 -12 -4 -17.5t-10.5 -6.5t-7.5 4t6 12t11 25h4l1 -10h185l8 9l15 -15q-9 -3 -13 -6.5t-15 -13.5l-3 2zM92 133l-15 -5q1 23 1 48q-22 -27 -56 -43l-3 3q33 23 54 56h-13q-11 0 -20 -2l-10 9h48q0 9 -1 26l23 -9l-9 -5v-12h11l12 12l14 -19h-37v-9
q21 -5 29 -11t4 -17t-10.5 -0.5t-22.5 23.5q0 -17 1 -45zM169 178q-19 -31 -52 -49l-3 3q35 29 48 60h-3q-11 0 -21 -2l-10 9h41q0 13 -1 26l21 -9l-7 -7v-10h15l12 11l16 -18h-38q22 -32 56 -42v-4q-11 1 -18 -8q-32 20 -43 54v-42l1 -16l-15 -4q1 22 1 48zM213 79l-15 -4
v3h-63v-14h62l12 8l16 -15h-90v-11h81l14 8l17 -15h-207q-11 0 -21 -2l-10 9h111v11h-56q-11 0 -21 -2l-10 9h87v14h-62v-2l-15 -4q1 11 1 28t-1 29l14 -4h140l9 8l15 -11l-9 -5v-21q0 -7 1 -17zM58 85h62v33h-62v-33zM135 85h63v33h-63v-33zM99 101.5q3 -4.5 -1 -11.5
t-9.5 2.5t-17.5 20.5l1 3q24 -10 27 -14.5zM185 105q-8 0 -35 -18l-3 2q15 14 20 27zM41.5 14.5q-6.5 -8.5 -19 -6t1 10t23.5 20.5l3 -1q-2 -15 -8.5 -23.5zM168 23.5q6 -6.5 -1 -13t-10.5 3.5t-16.5 23l3 2q19 -9 25 -15.5zM227 27.5q10 -5.5 4 -15t-11 -0.5t-25 25l2 2
q20 -6 30 -11.5zM106 23.5q4 -5.5 -4 -12.5t-9 2.5t-12 24.5l3 1q18 -10 22 -15.5z" />
  </g>

</svg>
