<?xml version="1.0" standalone="no"?>
<!DOCTYPE svg PUBLIC "-//W3C//DTD SVG 1.1//EN" "http://www.w3.org/Graphics/SVG/1.1/DTD/svg11.dtd" >
<svg xmlns="http://www.w3.org/2000/svg" xmlns:xlink="http://www.w3.org/1999/xlink" version="1.1" viewBox="0 -205 1024 1024">
  <g transform="matrix(1 0 0 -1 0 819)">
   <path fill="currentColor"
d="M816 566l26 34l58 -38q6 -5 6 -10q0 -6 -6 -8l-24 -16v-164h38l32 38l58 -48q3 -3 4 -6q1 -10 -10 -10h-312q32 -76 76 -130q45 -56 102 -91t130 -38v-20q-43 0 -62 -6q-19 -5 -38 -28q-51 31 -98 76q-45 44 -78 101q-31 54 -56 136h-22q-24 -151 -126 -221
q-99 -72 -218 -100l-6 16q110 37 194 107q81 69 106 198h-204q-21 0 -56 -8l-16 34h278q8 58 14 176h-140l-32 -32l-54 52l34 24v302l76 -30q8 -6 2 -14l-28 -10v-266h352v0v0zM554 968l58 -34h186l32 36l50 -38q12 -6 12 -14q0 -6 -30 -24v-132l4 -84q0 -13 -20 -28
q-18 -15 -36 -14v46h-204v-14q0 -9 -18 -24q-18 -13 -38 -14l4 120v218v0v0zM606 710h204v196h-204v-196v0v0zM654 540q0 -93 -12 -176h182v176h-170v0v0zM184 984l78 -28q14 -5 2 -16l-30 -14v-144q65 -27 98 -48q29 -21 38 -44t0 -40q-9 -19 -26 -16q-18 -1 -26 20
q-6 20 -18 44q-12 22 -66 62v-600l4 -107q0 -10 -20 -24q-21 -12 -38 -10l4 135v830v0v0zM106 758h18q7 -97 2 -142q-3 -45 -24 -74q-18 -28 -42 -28q-22 0 -28 16q-7 14 4 28q11 15 26 30q12 15 24 48q11 32 20 122v0v0z" />
  </g>

</svg>
