<?xml version="1.0" standalone="no"?>
<!DOCTYPE svg PUBLIC "-//W3C//DTD SVG 1.1//EN" "http://www.w3.org/Graphics/SVG/1.1/DTD/svg11.dtd" >
<svg xmlns="http://www.w3.org/2000/svg" xmlns:xlink="http://www.w3.org/1999/xlink" version="1.1" viewBox="0 -205 1024 1024">
  <g transform="matrix(1 0 0 -1 0 819)">
   <path fill="currentColor"
d="M698 536q3 -1 4 -2q4 -10 -10 -14q-13 -4 -22 -10t-60 -74h210l34 40l50 -46q9 -6 10 -12q0 -6 -26 -24v-242l4 -85q0 -14 -20 -26q-18 -12 -36 -12v70h-312v-40q0 -14 -18 -26q-15 -12 -36 -12l4 121v330l58 -36h52q33 81 48 130l66 -30v0v0zM524 123h312v135h-312v-135
v0v0zM524 284h312v126h-312v-126v0v0zM716 974q66 -30 82 -38q9 -10 -2 -16l-30 -10v-172q84 60 150 142q61 -45 60 -54q0 -9 -6 -8q-4 -1 -28 -4q-22 -4 -58 -28q-37 -21 -118 -72v-98q0 -33 12 -36t24 -2h82l22 2q24 6 30 22q6 17 12 122h16q3 -81 12 -96q8 -11 26 -22
q-6 -24 -24 -44q-18 -17 -44 -22l-32 -4h-102q-30 0 -50 6q-18 5 -26 22q-7 15 -8 52v358v0v0zM458 964l76 -32q7 -4 8 -8q3 -7 -36 -22v-116h86l34 44l54 -56q3 -3 4 -6q-1 -9 -4 -8h-174v-166l158 64l12 -14q-102 -52 -138 -74q-34 -22 -58 -56l-56 48q29 14 34 38v364v0
v0zM364 894q-18 -2 -114 -28v-186h72l34 44l54 -56q3 -3 4 -6q0 -9 -14 -8h-150v-62q49 -28 86 -50q36 -21 52 -48q16 -25 8 -46q-8 -20 -28 -22q-18 0 -26 24q-6 23 -32 58q-27 33 -60 60v-404l4 -87q0 -15 -20 -30q-21 -11 -38 -14l4 137v352q-34 -84 -76 -152
q-42 -69 -90 -120l-12 10q39 62 72 128q32 66 56 126q24 59 42 140h-96q-19 0 -44 -8l-16 34h164v174q-78 -14 -152 -28l-4 18q204 56 324 116q42 -52 42 -58q1 -6 -4 -8q-4 -3 -14 0q-10 1 -28 0v0v0z" />
  </g>

</svg>
