<?xml version="1.0" standalone="no"?>
<!DOCTYPE svg PUBLIC "-//W3C//DTD SVG 1.1//EN" "http://www.w3.org/Graphics/SVG/1.1/DTD/svg11.dtd" >
<svg xmlns="http://www.w3.org/2000/svg" xmlns:xlink="http://www.w3.org/1999/xlink" version="1.1" viewBox="0 -154 1024 1024">
  <g transform="matrix(1 0 0 -1 0 870)">
   <path fill="currentColor"
d="M524 108l2 -37q0 -38 -53 -44q5 37 7 128v521q-25 -35 -55 -72l-13 13q122 204 143 309q-1 13 -12 27l6 8l64 -26q26 -14 9 -21q-18 -1 -27 -13q-24 -60 -45 -104h345l26 34l62 -42q17 -12 -6 -12h-226v-196h112l26 34l62 -38q17 -14 -6 -16h-194v-196h121l26 34l62 -38
q17 -14 -6 -16h-203v-195h156l26 34l62 -42q17 -12 -6 -12h-465v-22zM154 879l42 97q0 10 -8 23l8 7l74 -36q11 -11 1 -17q-18 -1 -37 -11q-24 -35 -48 -63h132l37 39l50 -47q14 -12 -6 -17l-18 -9v-73l5 -63q0 -30 -49 -36v20h-225v-101h238l37 39l50 -47q14 -12 -6 -17
l-18 -9v-101l5 -55q0 -30 -49 -36v38h-108v-115h73l33 46l74 -52q22 -14 -11 -14h-169v-157l2 -57q0 -38 -53 -44q5 37 7 114v144h-122q-27 1 -45 -13l-34 33h201v115h-105v-16q1 -38 -51 -44q5 26 7 125v397q-3 24 -22 54l17 13l38 -54h53zM369 572h-257v-148h257v148z
M524 561v-196h183v196h-183zM524 345v-195h183v195h-183zM707 777h-167q-8 -19 -16 -30v-166h183v196zM337 859h-225v-146h225v146zM639 976l9 11q125 -61 120 -132q-3 -35 -25 -36q-22 -2 -22 32q-1 66 -82 125z" />
  </g>

</svg>
