<?xml version="1.0" standalone="no"?>
<!DOCTYPE svg PUBLIC "-//W3C//DTD SVG 1.1//EN" "http://www.w3.org/Graphics/SVG/1.1/DTD/svg11.dtd" >
<svg xmlns="http://www.w3.org/2000/svg" xmlns:xlink="http://www.w3.org/1999/xlink" version="1.1" viewBox="0 0 2048 2048">
  <g transform="matrix(1 0 0 -1 0 2048)">
   <path fill="currentColor"
d="M1378 1486h333l61 71l72 -49q18 -13 29 -24t13 -27q3 -16 -8 -18l-58 -28l1 -75q0 -14 2 -68t7 -90q4 -36 2 -50q-2 -11 -7 -18q-5 -8 -17 -16q-13 -7 -36 -6q-26 0 -32 8q-7 8 -7 16l-2 17h-353v-111h232l80 81l114 -86q8 -7 14 -14q5 -7 2 -19q-3 -11 -11 -15t-14 -4
h-417v-124h325l99 101l120 -107q10 -10 14 -15q5 -6 2 -18q-3 -9 -12 -14q-8 -5 -14 -5h-889l-161 -5q-15 -1 -18 -1l-13 -2l-39 89q14 -4 30 -7.5t62 -9.5q45 -6 139 -6h259v124h-229q-24 0 -57 -3q-33 -2 -39 -2q-6 -1 -28 -3l-25 -3l-39 86q26 -5 43 -7q16 -2 41.5 -4.5
t60.5 -4.5t62 -2h210v111h-322l-1 -13q-1 -6 -9 -13q-7 -7 -22 -12q-14 -5 -36 -3q-12 0 -22 5q-9 5 -12 19q-4 13 -3 31q0 11 3 46t5 69q2 33 2 61l-1 209l96 -42h322v105h-327l-71 -3q-24 -1 -26 -2q-2 0 -27 -2l-25 -3l-39 86q27 -5 49 -8q21 -3 38 -5q18 -1 50 -3
q33 -2 51 -2h327v94l-42 -3l-102 -6q-74 -4 -82 -4q-8 -1 -125 -4l-62 -2l-1 36q34 3 68 8l86 11l111 15q79 10 113 17l125 28l125 26q68 16 104 31l75 30l77 -72q18 -18 23 -25t3 -17q-3 -11 -13 -16q-10 -6 -30 2l-43 16q-30 -8 -50 -12q-20 -5 -95 -18l-119 -21l-50 -8
v-106h376l80 80l115 -85q5 -5 11 -15q7 -10 4 -19t-12 -14t-14 -5h-560v-105zM1378 1429v-84h353v84h-353zM1282 1429h-322v-84h322v84zM1378 1189h353v96h-353v-96zM1282 1189v96h-322v-96h322zM509 1524h89l80 81l114 -86q8 -7 14 -15q5 -7 2 -18t-12 -16q-8 -4 -14 -3
l-273 1v-503q76 11 115 18l135 24l35 6l8 -38l-76 -25q-52 -16 -97 -27l-211 -50l-143 -41l-59 -15q-4 -37 -13 -52t-18 -17q-9 -1 -21 10q-11 10 -29 55l-46 107q26 1 40 3l121 12l161 15v518h-50q-42 0 -109 -4q-67 -3 -70 -3l-13 -1l-39 88q14 -4 30 -8q16 -3 64 -10
q49 -6 137 -6h50v223q0 57 -3 99q-3 41 -3 47l-2 14l113 -24q48 -11 66 -21q18 -9 20 -23q1 -14 -13 -27q-14 -12 -37 -17l-43 -11v-260zM1008 490l-19 -45q-11 -26 -40 -65t-75 -82q-47 -42 -114 -83q-68 -41 -155 -75q-87 -35 -165 -58q-77 -22 -159 -38l-118 -22l-58 -11
l-8 41q34 7 83 19t111 29q62 18 145 48t141 58t117 66q60 38 100 74t61.5 66t34.5 55l12 23h-571q-120 0 -178 -7l-14 -1l-38 88q13 -4 29 -8q15 -3 63 -9t138 -6h585l12 80q7 40 10 61l8 64l124 -30q29 -8 46 -20q16 -11 15 -26q-2 -16 -11 -20q-8 -3 -28 -8l-44 -11
q-11 -32 -12 -37l-13 -53h691l81 113l142 -117q10 -9 12 -17t1 -14q-2 -9 -10 -16q-7 -6 -23 -6h-909zM1138 428l164 -43q74 -19 132 -37q58 -19 119 -44q61 -26 101 -44q39 -19 92 -55t74 -61t30 -56q8 -30 -4 -48q-13 -19 -34 -24q-22 -6 -69 29q-23 16 -73 56
q-51 40 -96 73q-46 32 -110 66q-63 34 -132 66l-106 47l-98 39z" />
  </g>

</svg>
