<?xml version="1.0" standalone="no"?>
<!DOCTYPE svg PUBLIC "-//W3C//DTD SVG 1.1//EN" "http://www.w3.org/Graphics/SVG/1.1/DTD/svg11.dtd" >
<svg xmlns="http://www.w3.org/2000/svg" xmlns:xlink="http://www.w3.org/1999/xlink" version="1.1" viewBox="0 -144 1024 1024">
  <g transform="matrix(1 0 0 -1 0 880)">
   <path fill="currentColor"
d="M475 408l-2 -56l-2 -19h128v150h-124v-75zM51 198l-4 9l-1 3l-1 4l-1 2l-11 27l-1 4l50 17l57 22l16 7v379h-116v21h116v274l65 -10l16 -11l-16 -10v-243h27l44 48l54 -48v-21h-125v-354l87 36l39 15l5 -8l-68 -47l-94 -57l-84 -46l-25 -13l-4 -1l-4 -21l-16 11zM32 247
l24 -60l-34 56zM813 483h-149v-150h152l-3 58v92zM599 661h-124v-156h124v156zM818 661h-154v-156h149v13zM829 747l-9 28l-6 15l-15 31l-29 50l-13 17l7 7l17 -14l17 -12l29 -26l26 -28l12 -14l19 -31l9 -15l-2 -24l-18 -17l-24 2l-17 17zM624 758l-1 11l-4 24l-2 11l-3 12
l-14 37l-8 11l7 7l11 -10l12 -8l10 -10l10 -10l10 -11l8 -11l15 -25l12 -27l-5 -24l-20 -14l-24 5l-14 21v11zM411 408v302l-24 -23l-8 6l10 20l26 61l15 43l6 22l6 23l9 42h-1l4 15l42 -18l150 39l104 30l60 20h1l5 1l2 -7l51 -44l2 -16l-23 10l-14 -4l-34 -8l-71 -15
l-36 -6l-38 -6l-37 -5l-38 -3l-39 -4h-16l3 -3l-21 -6l-11 -30l-10 -23l-11 -23l-25 -41l-15 -20l-15 -18l-6 -6l61 -31h344l33 27l59 -48l-27 -16l-2 -1l-5 -127v-124l6 -97l10 -75l11 -54l14 -35l5 -10l25 109h11l-10 -134l4 -1l21 -13l6 -23l-13 -21l-23 -7l-19 5l-23 13
l-23 22l-20 32l-16 46l-14 60l-10 80l-1 21h-154v-252l-65 -33v285h-130l-1 -11l-7 -48l-8 -45l-11 -41l-13 -36l-15 -33l-17 -28l-20 -23l-22 -17l-7 7l13 22l11 25l10 28l8 32l8 35l6 38l4 42l2 46l1 50v54z" />
  </g>

</svg>
