<?xml version="1.0" standalone="no"?>
<!DOCTYPE svg PUBLIC "-//W3C//DTD SVG 1.1//EN" "http://www.w3.org/Graphics/SVG/1.1/DTD/svg11.dtd" >
<svg xmlns="http://www.w3.org/2000/svg" xmlns:xlink="http://www.w3.org/1999/xlink" version="1.1" viewBox="0 -36 256 256">
  <g transform="matrix(1 0 0 -1 0 220)">
   <path fill="currentColor"
d="M139 236l-6 -4q25 -23 57 -35t56 -13v-5q-19 -3 -19 -13q-25 5 -51.5 21t-45.5 41q-57 -54 -119 -70l-1 4q30 13 62 35.5t51 49.5zM75 185q10 -3 18 -8t7.5 -10.5t-4.5 -10.5t-9 6.5t-13 19.5zM120 175q0 13 -1 25l21 -8l-6 -7v-32h13q17 20 22 35l18 -14q-9 -1 -33 -21
h38l10 11l14 -18h-82v-32q1 -16 -15 -21q-4 12 -24 13l1 5q12 -1 18.5 -1t5.5 7q0 -2 0 29h-48q-13 0 -22 -3l-10 10h80v22zM132 27h54v27h-54v-27zM49 96l16 -7h117l10 9l16 -15l-9 -6v-40q0 -8 1 -26l-14 -3v12h-122v-8l-15 -4q1 20 1 28q0 35 -1 60zM64 61h54v21h-54v-21
zM132 61h54v21h-54v-21zM64 27h54v27h-54v-27zM143 138q49 -13 59.5 -18.5t13 -11.5t-0.5 -12t-16 6.5t-58 30.5zM104 124l-12 1q-35 -21 -69 -30l-1 3q39 20 67 45z" />
  </g>

</svg>
