<?xml version="1.0" standalone="no"?>
<!DOCTYPE svg PUBLIC "-//W3C//DTD SVG 1.1//EN" "http://www.w3.org/Graphics/SVG/1.1/DTD/svg11.dtd" >
<svg xmlns="http://www.w3.org/2000/svg" xmlns:xlink="http://www.w3.org/1999/xlink" version="1.1" viewBox="0 -205 1024 1024">
  <g transform="matrix(1 0 0 -1 0 819)">
   <path fill="currentColor"
d="M126 942h296l28 34l52 -42q9 -6 10 -12q-1 -6 -28 -20v-100l4 -74q-2 -16 -22 -26q-21 -10 -36 -10v88q-145 -60 -184 -84q-40 -21 -68 -56l-44 54l296 112v108h-246q-19 -3 -34 -8l-24 36v0v0zM200 892q72 -28 90 -46q17 -17 20 -34q1 -17 -4 -28q-7 -12 -22 -12
q-15 -2 -20 18q-6 18 -18 40q-9 20 -50 50l4 12v0v0zM530 938h278l26 36l54 -40q9 -6 10 -12q-1 -6 -28 -20v-126l4 -82q-3 -16 -20 -26q-18 -7 -38 -8v126q-145 -69 -178 -90q-32 -18 -40 -36l-46 50l264 102v98h-228q-19 -3 -34 -8l-24 36v0v0zM586 896q51 -18 76 -38
q23 -18 28 -36t-4 -30q-8 -14 -22 -12t-22 20q-7 18 -16 36q-7 18 -46 48l6 12v0v0zM352 542l62 -30q11 -13 -10 -16q-15 -4 -24 -8q-6 -2 -36 -34q51 -12 88 -26q35 -13 46 -34q9 -19 0 -34q-10 -14 -22 -12q-13 0 -22 16q-10 14 -34 34q-22 18 -70 46q-87 -87 -162 -138
l-10 12q69 66 120 124q49 57 74 100v0v0v0zM572 332q15 -4 4 -14l-28 -18v-34h320l36 50l60 -54q3 -7 4 -10q1 -12 -10 -12h-410v-94q4 -70 2 -83q-1 -12 -22 -22q-19 -9 -40 -10l4 115v94h-350q-21 0 -68 -8l-16 34h434v94l80 -28v0v0zM824 574l38 50l58 -56q6 -3 6 -6
q0 -12 -8 -12h-710q-18 0 -66 -8l-18 32h700v0v0zM454 674l8 12q38 -13 62 -28q21 -13 28 -32q5 -19 -4 -34q-9 -14 -24 -12q-16 3 -20 24t-14 36q-9 14 -36 34v0v0zM728 496q-13 0 -22 -6t-32 -32q51 -12 108 -36q56 -23 68 -46q11 -24 2 -38q-8 -14 -22 -12q-15 0 -30 22
q-15 21 -54 48q-37 28 -86 50q-46 -51 -106 -98l-12 10q54 62 84 104t52 82q65 -30 68 -36t-2 -8q-4 -4 -16 -4v0v0z" />
  </g>

</svg>
