<?xml version="1.0" standalone="no"?>
<!DOCTYPE svg PUBLIC "-//W3C//DTD SVG 1.1//EN" "http://www.w3.org/Graphics/SVG/1.1/DTD/svg11.dtd" >
<svg xmlns="http://www.w3.org/2000/svg" xmlns:xlink="http://www.w3.org/1999/xlink" version="1.1" viewBox="0 -36 256 256">
  <g transform="matrix(1 0 0 -1 0 220)">
   <path fill="currentColor"
d="M88 184h86v13h-86v-13zM98 127h64v14h-64v-14zM126 220q-2 7 -5 12.5t-10 12.5l2 3q18 -6 24 -11.5t-3 -16.5h72l14 11l20 -18h-190q-12 0 -21 -2l-10 9h107zM75 190q0 3 -1 20l14 -6h87l7 7l13 -12l-8 -6q0 -5 1 -17l-14 -5v6h-86v-2l-14 -5q1 17 1 20zM197.5 117
q7.5 0 7.5 7v34h-147v-55l-14 -6v36v40l15 -8h146l8 8l13 -13l-8 -6v-35q0 -15 -15 -19q0 11 -22 14v4q9 -1 16.5 -1zM176 117l-14 -6v9h-64v-8l-13 -5q1 18 1 24.5t-1 23.5l14 -7h62l8 8l14 -11l-8 -5q0 -11 1 -23zM100 68v-41l44 16l2 -3q-48 -25 -54 -34l-11 14q5 4 4 15
v23q-28 -21 -75 -33l-1 3q30 12 53 27.5t37 28.5h-54q-10 0 -20 -2l-9 9h194l15 12l17 -19h-107q12 -17 30 -30q25 15 36 28l13 -14l-9 -2q-19 -8 -37 -16q17 -12 36.5 -18.5t42.5 -6.5v-4q-20 -3 -21 -12q-30 8 -55 25t-41 50h-11q-8 -7 -19 -16zM139 109q5 -7 -1.5 -14.5
t-9.5 3t-17 22.5l2 2q21 -6 26 -13z" />
  </g>

</svg>
