<?xml version="1.0" standalone="no"?>
<!DOCTYPE svg PUBLIC "-//W3C//DTD SVG 1.1//EN" "http://www.w3.org/Graphics/SVG/1.1/DTD/svg11.dtd" >
<svg xmlns="http://www.w3.org/2000/svg" xmlns:xlink="http://www.w3.org/1999/xlink" version="1.1" viewBox="0 -205 1024 1024">
  <g transform="matrix(1 0 0 -1 0 819)">
   <path fill="currentColor"
d="M488 762q51 -25 54 -32q0 -4 -2 -8l-16 -4q-10 -3 -28 -24q-19 -21 -58 -72l124 4q-9 33 -36 60l10 10q26 -15 44 -30q17 -13 22 -28q6 -16 -2 -28q-9 -12 -18 -12q-10 0 -14 6l-2 6q-51 -7 -86 -14q-36 -6 -66 -24l-38 54q18 0 42 12q47 80 70 124v0v0zM824 768
q54 -22 58 -28q4 -3 0 -6q-3 -3 -14 -6q-8 -4 -22 -20q-13 -14 -58 -88l128 2q-16 29 -50 68l12 10q38 -25 58 -40t32 -30q12 -16 12 -34q1 -15 -10 -24q-10 -9 -22 -6q-10 4 -14 14q-4 9 -10 22q-60 -4 -92 -8q-31 -3 -64 -18l-26 50q11 0 26 10q37 63 56 132v0v0zM458 828
q18 2 40 10q87 84 130 150l68 -30q5 -7 2 -10t-18 -6t-60 -38q-45 -34 -96 -76q157 3 308 6q-28 39 -68 72l10 12q50 -25 86 -46q33 -22 42 -44q10 -22 2 -38q-7 -16 -22 -16q-16 -1 -22 14q-3 13 -12 26q-212 -15 -268 -20q-54 -6 -80 -24l-42 58v0v0zM436 282
q83 48 152 102q69 51 114 106l58 -34q5 -9 2 -12q-3 -2 -12 -4q-10 -1 -26 -10q-14 -8 -40 -28q-25 -18 -82 -56q-58 -36 -160 -80l-6 16v0v0zM434 166q99 45 186 102q84 56 150 128l62 -36q5 -9 2 -12q-3 -2 -12 -4q-10 0 -26 -6q-15 -7 -50 -34q-37 -27 -112 -72
q-76 -44 -194 -82l-6 16v0v0zM390 41q121 31 242 86q119 53 248 165l56 -40q5 -9 2 -12q-3 -2 -12 -4q-10 -1 -26 -4q-15 -4 -72 -44q-56 -38 -172 -89q-115 -50 -262 -76l-4 18v0v0zM728 672q6 -6 -2 -12q-12 -1 -32 -16q36 -60 76 -98q39 -38 96 -70q56 -32 146 -40v-16
q-45 -3 -60 -12q-13 -6 -32 -26q-67 37 -110 74q-41 35 -70 70q-27 36 -62 100q-48 -79 -128 -152q-78 -70 -180 -118l-8 12q83 59 164 136t138 200l64 -32v0v0zM184 972l76 -34q16 -6 -4 -18l-26 -14v-640l80 18v456l76 -30q3 -2 4 -10q0 -4 -36 -20v-392l4 -76
q0 -12 -14 -24q-13 -13 -34 -14v88q-132 -38 -174 -58q-39 -21 -60 -42l-44 50q26 15 28 34v502l72 -32q7 -3 8 -8q-3 -5 -36 -22v-452l80 22v716v0v0z" />
  </g>

</svg>
