<?xml version="1.0" standalone="no"?>
<!DOCTYPE svg PUBLIC "-//W3C//DTD SVG 1.1//EN" "http://www.w3.org/Graphics/SVG/1.1/DTD/svg11.dtd" >
<svg xmlns="http://www.w3.org/2000/svg" xmlns:xlink="http://www.w3.org/1999/xlink" version="1.1" viewBox="0 -36 256 256">
  <g transform="matrix(1 0 0 -1 0 220)">
   <path fill="currentColor"
d="M73 184l22 -8l-7 -8v-11h22l11 10l13 -17h-46v-19h37l10 8l15 -15h-107q-10 0 -20 -1l-9 8h60v19h-15q-11 0 -20 -2l-9 9h44q0 17 -1 27zM70.5 103.5q3.5 -6.5 -3.5 -13t-10.5 5.5t-18.5 24l2 3q27 -13 30.5 -19.5zM74 50h-35q-10 0 -20 -2l-9 9h64v24h-20q-11 0 -20 -2
l-10 9h61q15 21 20 37l18 -14l-8 -2q-12 -11 -23 -21h21l11 8l16 -15h-52v-24h27l13 8l15 -15h-55q0 -28 1 -37l-16 -6q1 17 1 43zM181 133q22 -86 67 -107v-4q-16 0 -19 -11q-41 44 -51 111q1 -37 -16 -66.5t-56 -47.5l-2 4q35 24 48.5 53t13.5 78v16q0 5 -1 24l23 -7
l-7 -10v-33zM124 208h-39q0 -9 1 -17l-17 -7q1 14 1 24h-25l-20 -2l-9 9h54q0 21 -1 32l23 -8l-7 -8v-16h13l12 11zM154 210q-6 0 -16 -4l-9 11h35q0 15 -1 29l22 -9l-7 -8v-12h29l13 11l16 -18h-58q-1 -4 1 -23l-16 -6q1 25 1 29h-10z" />
  </g>

</svg>
