<?xml version="1.0" standalone="no"?>
<!DOCTYPE svg PUBLIC "-//W3C//DTD SVG 1.1//EN" "http://www.w3.org/Graphics/SVG/1.1/DTD/svg11.dtd" >
<svg xmlns="http://www.w3.org/2000/svg" xmlns:xlink="http://www.w3.org/1999/xlink" version="1.1" viewBox="0 -36 256 256">
  <g transform="matrix(1 0 0 -1 0 220)">
   <path fill="currentColor"
d="M85 158l-13 -8v11h-10v-45h10l10 10l12 -17h-32v-54l27 10l1 -4q-30 -13 -62 -30l-9 -8l-10 16l13 4q0 74 -1 95l19 -13l-6 -7v-71l16 5v109h-17v-6l-13 -7q1 14 1 42t-1 46l14 -10h37l8 9l11 -13l-6 -6q0 -38 1 -58zM33 168h39v51h-39v-51zM111 178h18v20h-18v-20z
M111 151h18v20h-18v-20zM111 125h18v19h-18v-19zM147 226.5q2 -5.5 -4 -12.5t-7.5 2.5t-14.5 26.5l3 2q21 -13 23 -18.5zM86 165l-2 2q17 31 25 70l15 -11q-6 -6 -13 -21h35l9 9l12 -16h-26v-20h4l7 8l9 -15h-20v-20h4l8 8l10 -15h-22v-19h7l8 9l11 -16h-56v-9l-13 -4
q1 13 1 76q-3 -7 -13 -16zM188 125h17v19h-17v-19zM188 151h17v20h-17v-20zM188 178h17v20h-17v-20zM161 162l-4 2q11 17 17.5 37.5t7.5 33.5l17 -12l-5 -5l-6 -13h33l9 10l14 -17h-27v-20h3l8 9l12 -16h-23v-20h3l7 9l13 -16h-23v-19h3l9 9l14 -16h-55v-9l-13 -4q1 16 1 75
q-5 -7 -15 -18zM221 228q4 -6 -1.5 -14.5t-8.5 4t-14 25.5l3 2q17 -11 21 -17zM128 60q10 16 15 33h-27q-10 -1 -18 -3l-9 10h56l6 9l12 -12l-6 -6q-10 -22 -19 -36q20 -13 22.5 -20t-1 -12t-9 2.5t-18.5 19.5q-19 -20 -53 -37l-1 4q26 16 44 40q-17 11 -31 19l2 3
q17 -6 35 -14zM151 10q32 18 44 35q-12 17 -19 46l-5 -2l-6 10h51l8 8l13 -13l-8 -6q-10 -30 -20 -44q21 -19 39 -23v-4q-7 1 -15 -9q-18 11 -31 26q-20 -18 -49 -27zM182 92q6 -23 19 -39q10 17 15 39h-34z" />
  </g>

</svg>
