<?xml version="1.0" standalone="no"?>
<!DOCTYPE svg PUBLIC "-//W3C//DTD SVG 1.1//EN" "http://www.w3.org/Graphics/SVG/1.1/DTD/svg11.dtd" >
<svg xmlns="http://www.w3.org/2000/svg" xmlns:xlink="http://www.w3.org/1999/xlink" version="1.1" viewBox="0 -36 256 256">
  <g transform="matrix(1 0 0 -1 0 220)">
   <path fill="currentColor"
d="M143 229q41 2 84 17l11 -16q-46 -4 -94 -9v-28h77l8 7l13 -12l-7 -4q0 -34 1 -38l-14 -6v8h-78v-20q-1 -93 -38 -120l-1 2q26 33 26 118v42q0 14 -1 67zM144 155h78v31h-78v-31zM205 131l12 8l16 -15h-55q-13 -1 -19 -3l-9 10h55zM172 25h52q8 2 8.5 8.5t0.5 22.5h4
q0 -24 10 -30q-7 -12 -26 -12h-53q-19 0 -19 14v20v11l-1 11l18 -5l-4 -6v-3h46v23h-31q-13 0 -22 -3l-10 10h63l8 8l12 -14l-7 -4v-12q0 -7 1 -16l-14 -4v5h-46v-16q0 -7 10 -8zM217 106l13 9l14 -16h-63h-13q-10 0 -19 -1l-9 8h77zM48 169h17q0 26 -1 45l12 -8h24v-7h-24
v-30h18v59h-46v-59zM113 162h-86q-1 -14 -5.5 -19t-7.5 -4.5t-3.5 5.5t4 10.5t8.5 27.5h3l1 -13h9v34q0 23 -1 42l12 -10h46l7 10l13 -14l-7 -5v-57h8l6 6l10 -14q-8 -2 -22 -19l-3 1zM85 32.5q7 0.5 7 8.5v91h-45v-54q-1 -27 -7.5 -42t-25.5 -28l-2 1q15 20 18.5 32t4 22
t0.5 41t-1 40l13 -5h46l5 7l12 -12l-6 -7v-90q-1 -10 -3.5 -14.5t-13.5 -11.5q0 14 -23 19v5q14 -3 21 -2.5zM75.5 110.5q3.5 -2.5 3.5 -8t-5 -11t-7 5.5t-12 21l1 3q16 -8 19.5 -10.5zM85 88l3 -1l-16.5 -22.5t-7.5 -12.5l-13 7q18 13 34 29z" />
  </g>

</svg>
