<?xml version="1.0" standalone="no"?>
<!DOCTYPE svg PUBLIC "-//W3C//DTD SVG 1.1//EN" "http://www.w3.org/Graphics/SVG/1.1/DTD/svg11.dtd" >
<svg xmlns="http://www.w3.org/2000/svg" xmlns:xlink="http://www.w3.org/1999/xlink" version="1.1" viewBox="0 -36 256 256">
  <g transform="matrix(1 0 0 -1 0 220)">
   <path fill="currentColor"
d="M23 83l-14 14q23 11 49 27v51h-7q-15 0 -27 -4l-11 11h45q0 48 -1 64l26 -11l-10 -7v-46h17l12 13l14 -20h-43v-45l36 21l3 -4l-39 -28v-77q1 -26 -23 -34q-2 18 -31 25v5q27 -4 33.5 -3.5t5.5 12.5v62q-31 -21 -35 -26zM141 170q13 -53 30 -83q18 38 25 92h-51zM171 235
l-11 -4q-7 -25 -13 -45h67l12 13l18 -20h-32q-7 -58 -32 -107q32 -34 67 -45v-4q-14 0 -19 -12q-33 22 -57 51q-35 -40 -84 -54l-1 4q51 26 77 62q-21 44 -26 86q-9 -26 -27 -48l-4 2q27 55 39 133z" />
  </g>

</svg>
