<?xml version="1.0" standalone="no"?>
<!DOCTYPE svg PUBLIC "-//W3C//DTD SVG 1.1//EN" "http://www.w3.org/Graphics/SVG/1.1/DTD/svg11.dtd" >
<svg xmlns="http://www.w3.org/2000/svg" xmlns:xlink="http://www.w3.org/1999/xlink" version="1.1" viewBox="0 -200 999 1000">
  <g transform="matrix(1 0 0 -1 0 800)">
   <path fill="currentColor"
d="M622 212q52 57 77 116t38 130h-42l-54 -12l-14 31h115l15 111l43 -37l-18 -74h73l40 37l54 -56h-128q14 -46 27 -81t28 -60t33.5 -41.5t44.5 -25.5l-3 -9q-14 -6 -25 -15.5t-20 -21.5q-35 23 -57.5 84t-43.5 170h-27q-9 -49 -25 -91t-36.5 -75t-44 -56t-47.5 -34z
M796 840q11 24 18 44t12 37.5t8.5 33.5t8.5 33l46 -43l-19 -19l-59 -86h49l36 34l50 -55h-147v-101h40l37 34l43 -54h-120v-102h63l35 37l50 -56h-263l-42 -8l-19 27h133v102h-51l-42 -5l-19 24h112v102h-62l-50 -8l-14 28zM676 989q26 -23 43 -50.5t20 -50.5v-5
q0 -14 -8 -24.5t-17 -10.5q-8 0 -13.5 9.5t-5.5 32.5v6q-8 27 -13.5 51t-16.5 35zM434 320q11 -5 29.5 -11t28.5 -6q2 0 2.5 0.5t1.5 0.5q10 2 16 20t9.5 54.5t5 94t3.5 139.5q1 30 1 63.5t1 70.5h-82q-6 -89 -14.5 -175t-22.5 -160t-36.5 -131t-55.5 -88l-14 6
q27 49 43.5 111t26.5 132.5t15.5 148t10.5 157.5h-47l-41 -11l-23 35l111 -1q2 22 3 52.5t1 70.5q0 12 0.5 25.5t0.5 27.5q0 11 -0.5 21.5t-1.5 21.5l60 -34l-10 -62v-123h72l34 35l45 -50l-28 -27q-5 -115 -8 -213.5t-8 -165.5q-5 -30 -12 -50t-16 -34.5t-20.5 -26.5
t-24.5 -25v9q0 33 -18 52t-41 33zM122 776q16 -8 29 -15.5t24.5 -17t22.5 -23t24 -34.5v-8q0 -33 -11 -47.5t-23 -14.5t-21 11.5t-9 32.5q0 4 0.5 6t0.5 5q-4 18 -8 30.5t-8.5 22t-11.5 19t-17 21.5zM953 108q-19 -18 -38.5 -32t-34.5 -34q-26 -1 -57.5 -2t-64 -1.5t-63 -1
t-53.5 -0.5q-157 0 -252 36t-138 126h-18q-37 -33 -68 -69t-58 -66l-56 45q48 26 93 54t81 53v275h-79l-63 -14l-27 36h158l42 45l56 -56l-37 -35v-265q27 -40 64.5 -62t80 -32.5t88.5 -12.5t91 -2h26q28 0 66.5 0.5t81.5 3t88 8t87 15.5zM111 1002q40 -19 68.5 -40
t45.5 -54v-11q0 -29 -9 -43t-20 -14q-14 0 -24.5 14t-12.5 39q-5 18 -9.5 31.5t-10 25t-13 21.5t-19.5 22z" />
  </g>

</svg>
