<?xml version="1.0" standalone="no"?>
<!DOCTYPE svg PUBLIC "-//W3C//DTD SVG 1.1//EN" "http://www.w3.org/Graphics/SVG/1.1/DTD/svg11.dtd" >
<svg xmlns="http://www.w3.org/2000/svg" xmlns:xlink="http://www.w3.org/1999/xlink" version="1.1" viewBox="0 -36 256 256">
  <g transform="matrix(1 0 0 -1 0 220)">
   <path fill="currentColor"
d="M139.5 137.5q8.5 18.5 7.5 42.5l20 -10l-6 -6q-2 -17 -11 -32.5t-35 -27.5l-2 2q18 13 26.5 31.5zM205 100l13 12l17 -19h-55v-67h36l16 11l16 -18h-120q-11 -1 -20 -3l-9 10h67v67h-16q-10 -1 -19 -3l-10 10h84zM179 231.5q7 -5.5 7 -13.5t-5 -14t-9.5 7t-21.5 31l2 3
q20 -8 27 -13.5zM129 197h93l9 12l15 -17q-8 -2 -13.5 -9t-15.5 -21l-3 2l10 26h-95q2 -14 -2.5 -22t-14.5 -7t-0.5 13.5t12.5 35.5h5v-13zM187 157v7l-1 15l20 -10l-6 -6v-22q-1 -10 5 -12q16 0 21.5 2t10 -3t2 -7.5t-14.5 -2.5h-19q-19 -1 -18 17v22zM139.5 137.5
q8.5 18.5 7.5 42.5l20 -10l-6 -6q-2 -17 -11 -32.5t-35 -27.5l-2 2q18 13 26.5 31.5zM179 231.5q7 -5.5 7 -13.5t-5 -14t-9.5 7t-21.5 31l2 3q20 -8 27 -13.5zM129 197h93l9 12l15 -17q-8 -2 -13.5 -9t-15.5 -21l-3 2l10 26h-95q2 -14 -2.5 -22t-14.5 -7t-0.5 13.5
t12.5 35.5h5v-13zM187 157v7l-1 15l20 -10l-6 -6v-22q-1 -10 5 -12q16 0 21.5 2t10 -3t2 -7.5t-14.5 -2.5h-19q-19 -1 -18 17v22zM32 60.5q-4 15.5 -16 36.5l2 3q16 -13 24.5 -23t1 -21t-11.5 4.5zM90 167l16 -17h-37v-29h13l13 10l14 -17h-40v-53q10 13 25 47l15 -15l-9 -6
q-13 -14 -31 -33v-11l44 9l1 -4q-60 -18 -89 -31l-11 17q17 1 42 8v72h-13q-12 0 -21 -2l-9 9h43v29h-8q-4 0 -10 -2l-7 5q-10 -14 -22 -24l-2 1q37 63 53 117l18 -11l-6 -4q-3 -7 -6 -13q25 -8 35 -14.5t6 -18t-12 0.5t-30 28q-17 -35 -31 -58h44z" />
  </g>

</svg>
