<?xml version="1.0" standalone="no"?>
<!DOCTYPE svg PUBLIC "-//W3C//DTD SVG 1.1//EN" "http://www.w3.org/Graphics/SVG/1.1/DTD/svg11.dtd" >
<svg xmlns="http://www.w3.org/2000/svg" xmlns:xlink="http://www.w3.org/1999/xlink" version="1.1" viewBox="0 -36 256 256">
  <g transform="matrix(1 0 0 -1 0 220)">
   <path fill="currentColor"
d="M22 171.5q0 31.5 -1 64.5l14 -8h47l12 9l12 -16h-37v-28h10l11 10l11 -17h-32v-27h9l10 10l12 -17h-31v-29l20 1l8 9l11 -14l-6 -4q-4 -63 -7 -75t-9 -19t-15 -10q-1 13 -23 19v4q20 -4 26 -4t9.5 15t5.5 72l-54 -2v-5l-14 -3q1 33 1 64.5zM35 193h22v28h-22v-28zM35 159
h22v27h-22v-27zM35 122l22 1v29h-22v-30zM18 92h4q4 -20 2 -29t-6 -12.5t-7.5 -0.5t2 12.5t5.5 29.5zM31 95q9 -10 12.5 -17.5t2 -13.5t-6.5 -8t-4.5 10t-5.5 28zM46 100q18 -15 20 -21.5t0 -11t-6 -5t-4.5 8.5t-10.5 27zM65 105q12 -9 15 -16t2.5 -11.5t-5 -7t-6 6.5
t-9.5 26zM163 151h27v62h-27v-62zM173 183q-4 6 -11 17l2 3q9 -10 12 -13q5 11 7 21l10 -11q-4 -4 -10 -17q7 -8 7.5 -14t-3 -11t-5 2t-4.5 15q-8 -12 -15 -18l-2 3q6 10 12 23zM152 182q0 23 -1 45l12 -7h3q5 16 5 27l14 -10q-4 -2 -14 -17h17l7 8l11 -12l-5 -4v-45
q0 -10 1 -26l-12 -5v8h-27v-5l-12 -4q1 24 1 47zM127 100q0 -18 -3 -30t-9 -13t-9.5 3t5 11t14.5 29h2zM209 72q-12 -10 -17 -14q28 -31 56 -34v-4q-11 -1 -18 -10q-44 22 -61 76q-14 -65 -77 -78v3q25 11 39 26t21 35t7 48l21 -9l-6 -6l-2 -10q10 -23 17 -33q22 24 28 39
l16 -15q-12 -4 -24 -14zM112 134l1 25v25v25l-1 25l13 -7q10 8 17 19l10 -16q-8 0 -27 -8v-29h6l8 9l11 -16h-25v-35h8l7 8l10 -15h-25v-6zM222 137v8h-6l-5 -2l-7 9h18v34h-7l-6 -2l-6 9h19v29h-9l-6 -2l-7 9h21l8 9l12 -14l-7 -4v-79zM222 127l13 10l13 -17h-109
q-18 0 -29 -3l-7 10h15h13h62h22h7z" />
  </g>

</svg>
