<?xml version="1.0" standalone="no"?>
<!DOCTYPE svg PUBLIC "-//W3C//DTD SVG 1.1//EN" "http://www.w3.org/Graphics/SVG/1.1/DTD/svg11.dtd" >
<svg xmlns="http://www.w3.org/2000/svg" xmlns:xlink="http://www.w3.org/1999/xlink" version="1.1" viewBox="0 -205 1024 1024">
  <g transform="matrix(1 0 0 -1 0 819)">
   <path fill="currentColor"
d="M845 694v36h-125q-1 -1 -1 -2q-2 -207 28 -325q13 -50 32 -93q26 67 42 143q24 115 24 241zM424 253q24 6 51 13q41 12 81 22v114h-132v-149zM424 433h132v157h-132v-157zM424 621h132v137h-132v-137zM351 340q12 10 18 1q6 -11 -6 -18q-96 -81 -180 -214q-8 -12 -14 1
q-13 24 -37 42q-9 7 -2 13q30 26 30 48v257h-13q-42 -1 -73 -7q-8 -3 -11 6q-4 18 -19 30q-7 7 -4 11q4 3 11 -1q38 -8 84 -8h25v149h-74q-12 -25 -25 -50q-6 -11 -15 -7t-3 17q41 90 63 211q20 120 14 156q-2 17 17 11q69 -24 72 -33q0 -6 -9 -6q-10 -2 -17 -12
q-2 -3 -23 -76h44q13 0 23 12l35 41q9 8 16 1q26 -28 45 -53q11 -15 8 -24q-3 -7 -18 -8h-161q-12 -38 -52 -149h108q13 0 23 12l35 41q9 8 16 1q26 -28 45 -53q11 -15 8 -24q-3 -7 -18 -8h-109v-149h20q6 0 12 7l36 41q7 7 14 0q27 -27 46 -51l4 -13l-2 -8q-5 -6 -18 -7
h-112v-250q73 71 143 120zM475 789l26 109h-71q-27 0 -61 -7q-5 -1 -6 2q-13 19 -23 35q-6 10 7 7q61 -5 68 -6h80q7 1 11 5l14 21q6 9 15 2q23 -19 45 -41q6 -7 6 -8l-2 -2q-35 -14 -36 -18q-2 -3 -3 -10l-19 -89h34q13 0 23 12l35 41q9 8 16 1q26 -28 45 -53q11 -15 8 -24
q-3 -7 -18 -8h-65v-457q37 12 74 22q14 5 17 -4q2 -11 -13 -17q-42 -17 -78 -32q0 -112 3 -193q84 69 129 144q12 21 22 43q-14 34 -23 68q-37 130 -34 350q-27 -61 -67 -134q-8 -11 -17 -7q-8 5 -1 17q52 98 83 234q29 133 25 175q-1 17 17 10q42 -15 58 -24q13 -7 13 -11
t-12 -8q-11 -4 -15 -10q-9 -10 -22 -62q-14 -49 -32 -101h117q13 0 23 12l35 41q9 8 16 1q26 -28 45 -53q11 -15 8 -24q-3 -7 -18 -8h-66v-36q0 -145 -30 -266q-23 -89 -59 -164q14 -24 32 -46q67 -86 140 -125q14 -8 11 -12q-2 -5 -11 -6q-15 0 -31 -7q-18 -8 -28 -18
q-5 -4 -18 9q-75 80 -118 162q-6 -8 -10 -17q-66 -104 -162 -162q-18 -10 -22 3l-1 1q-14 -5 -27 -11q-9 -2 -8 14q5 117 6 201q-68 -25 -119 -44q-20 -8 -54 -36q-5 -4 -9 -5t-8 8q-12 25 -34 44q-12 10 -11 13q2 4 12 5q22 4 44 7v515q-20 -1 -43 -6q-5 -1 -6 2
q-13 19 -23 35q-6 10 7 7q61 -5 68 -6h96z" />
  </g>

</svg>
