<?xml version="1.0" standalone="no"?>
<!DOCTYPE svg PUBLIC "-//W3C//DTD SVG 1.1//EN" "http://www.w3.org/Graphics/SVG/1.1/DTD/svg11.dtd" >
<svg xmlns="http://www.w3.org/2000/svg" xmlns:xlink="http://www.w3.org/1999/xlink" version="1.1" viewBox="0 -205 1024 1024">
  <g transform="matrix(1 0 0 -1 0 819)">
   <path fill="currentColor"
d="M708 372q9 -3 4 -12q0 -1 -6 -4l-22 -12v-60h152l40 42l52 -50q3 0 4 -6q0 -12 -12 -12h-236v-173h212l40 52l56 -62l4 -4q0 -12 -12 -12h-568q-21 1 -68 -8l-16 34h302v173h-156q-21 0 -68 -8l-16 34h240v110l74 -22v0v0zM618 948l56 -46q2 -4 2 -10q0 -7 -8 -8h-128
v-132h64l26 28l44 -30q12 -6 12 -14q0 -6 -26 -24v-90l4 -24q0 -17 -20 -28q-20 -10 -34 -10v30h-70v-138h48l32 40l48 -48l2 -8q0 -7 -8 -8h-248l-20 -20l-50 42l32 24v474l52 -38l4 -2h154l32 40v0v0zM492 452v138h-68v-138h68v0v0zM424 614h186v114h-186v-114v0v0z
M424 752h68v132h-68v-132v0v0zM674 432q62 51 130 148q-52 102 -64 282h-20l-16 -4l-20 30h200l28 34l50 -40q13 -12 8 -18q-4 -5 -32 -16q-33 -182 -90 -268q26 -39 44 -56q16 -16 44 -34q27 -16 72 -28v-14q-10 3 -38 -2q-27 -4 -42 -28q-27 26 -50 52q-21 23 -54 74
q-72 -82 -140 -124l-10 12v0v0zM762 862q24 -150 64 -242q30 56 70 242h-134v0v0zM170 958l78 -32q12 -7 -6 -16l-24 -14v-250q44 53 92 134q55 -42 56 -50q1 -7 -4 -8q-3 -1 -18 -2q-12 -1 -42 -28q-28 -27 -86 -78q3 -163 -6 -242q43 -30 74 -60q29 -29 40 -58
q11 -30 8 -48q-3 -19 -12 -28t-24 -6t-24 46q-6 39 -18 66q-10 24 -46 66q-13 -99 -56 -180q-39 -77 -120 -147l-10 10q48 61 84 129q35 69 50 144q16 75 14 298v354v0v0zM110 696q11 -97 8 -142t-24 -68q-20 -22 -40 -20q-18 3 -24 18q-4 14 14 34t30 50q11 31 20 128h16v0
v0z" />
  </g>

</svg>
