<?xml version="1.0" standalone="no"?>
<!DOCTYPE svg PUBLIC "-//W3C//DTD SVG 1.1//EN" "http://www.w3.org/Graphics/SVG/1.1/DTD/svg11.dtd" >
<svg xmlns="http://www.w3.org/2000/svg" xmlns:xlink="http://www.w3.org/1999/xlink" version="1.1" viewBox="0 -36 256 256">
  <g transform="matrix(1 0 0 -1 0 220)">
   <path fill="currentColor"
d="M145 106l10 7l13 -14h-45q-13 0 -22 -3l-10 10h54zM122 41v33h-30q-10 0 -19 -2l-9 9h108l10 8l14 -15h-60v-38l1 -14l-16 -8q1 23 1 27zM108 53l-8 -2q-21 -15 -46 -24l-2 4q28 17 42 35zM183 53.5q10 -4.5 7.5 -15.5t-8 -4.5t-12.5 13t-23 15.5l2 3q24 -7 34 -11.5z
M116.5 134q-6.5 -11 -22 -25t-50.5 -25l-2 4q47 18 65 56h-19q-12 0 -19 -2l-8 9h46l7 8l13 -12q-4 -2 -10.5 -13zM84 130q5 -4 1 -12.5t-8 0t-16 16.5l1 3q17 -3 22 -7zM149 141q16 12 21 20l13 -12q-9 -2 -31 -13q6 -9 13 -14q15 12 22 20l12 -12q-6 0 -31 -12
q22 -16 49 -17v-4q-13 -1 -19 -10q-30 13 -43.5 32t-19.5 42l4 1q4 -11 10 -21zM141 240l15 -8h62l8 11l15 -11l-8 -9v-190q0 -20 -22 -26q-3 15 -24 20v4q19 -2 25.5 -1.5t6.5 10.5v125h-64v-4l-14 -4v83zM155 202h64v23h-64v-23zM155 195v-23h64v23h-64zM38 232h61l7 11
l16 -13l-7 -8v-26q0 -15 1 -33l-15 -6v8h-64v-150l-15 -8q1 20 1 43v145q0 23 -1 45zM37 195v-23h64v23h-64zM37 225v-23h64v23h-64z" />
  </g>

</svg>
