<?xml version="1.0" standalone="no"?>
<!DOCTYPE svg PUBLIC "-//W3C//DTD SVG 1.1//EN" "http://www.w3.org/Graphics/SVG/1.1/DTD/svg11.dtd" >
<svg xmlns="http://www.w3.org/2000/svg" xmlns:xlink="http://www.w3.org/1999/xlink" version="1.1" viewBox="0 -140 1000 1000">
  <g transform="matrix(1 0 0 -1 0 860)">
   <path fill="currentColor"
d="M207 388v110q-127 -250 -164 -250q3 4 10 19t12 24q136 252 132 382h-131v24h141v253q13 -4 70 -23q5 -3 8 -8l-23 -23v-195h23l47 46l54 -74h-124v-58q125 -58 125 -121q0 -10 -0.5 -14.5t-5 -9t-12.5 -4.5q-38 0 -69 64q-23 44 -38 54v-537l-63 -8q8 247 8 349z
M621 174v4q-72 24 -88 24q-3 0 -6 -1l-39 -53l-55 22q93 98 92 152h-178v24h196q13 0 24 38q11 45 36 45q17 0 57 -25q-42 -15 -46 -55h124l15 32q19 -34 64 -34q3 0 23 1t23 1q36 23 54 47q33 -28 55 -74h-172l-55 -85q-2 -3 -15.5 -22t-15.5 -22q7 -3 61 -22.5t64 -22.5
q53 -19 55 -55q-2 -23 -32 -24q-14 0 -16 2l-11 7q-11 8 -22 15.5t-13 8.5q-106 53 -117 53q-8 0 -33.5 -14.5t-50.5 -30.5l-25 -16q-86 -46 -195 -48l-39 1q111 33 159.5 52.5t113.5 62.5q8 8 8 12zM543 232l7 -7q12 -3 50.5 -10t48.5 -7q33 0 77 102l4 8h-133
q-8 -6 -29.5 -41.5t-24.5 -44.5zM363 587h84l150 309v-16l-117 -328q-1 -11 -1 -23q0 -9 5 -54t5 -52q0 -51 -35 -51q-25 0 -25 9v156q-14 26 -66 50zM740 955l-2 11q20 0 74 -19l11 -4q-22 -6 -22 -32q0 -3 3.5 -23t3.5 -23h39q4 5 10 20t6 19l85 -47q-25 -31 -125 -78
q16 40 16 48q0 2 -1 7t-1 7h-37v-105q6 0 21.5 -2t21.5 -2q3 0 11.5 4t15.5 8l8 3q0 1 4 1t4 -1l47 -46q-39 -15 -39 -16l-63 -94q-1 -3 -1 -7q2 -46 150 -78q-20 -13 -47 -32q-3 -2 -16.5 -12.5t-16.5 -10.5q-2 -1 -6 0l-102 94q-101 -79 -174 -79h-21l8 8q119 44 156 102
q-1 4 -6 12q-45 85 -56 120h-16q-43 -232 -148 -265q98 101 98 318q0 11 -2.5 68.5t-2.5 66.5l2 -1l5 -2.5t6 -3.5q2 -1 4 -1q0 -1 11 -7q28 -17 34 -17q4 0 27 4t27 4q0 3 1 18t1 17q0 3 -6 48zM855 708h-133q35 -82 70 -109q9 7 16 16q2 3 10 19t19 38.5t18 35.5zM371 810
q33 0 58 -10.5t37 -25.5t17.5 -28t5.5 -22q-1 -24 -32 -25l-16 2q-10 58 -70 109zM683 841v-109h62v109h-62zM425 935v8q111 -17 111 -83q-2 -26 -24 -27q-8 0 -44 48.5t-43 53.5z" />
  </g>

</svg>
