<?xml version="1.0" standalone="no"?>
<!DOCTYPE svg PUBLIC "-//W3C//DTD SVG 1.1//EN" "http://www.w3.org/Graphics/SVG/1.1/DTD/svg11.dtd" >
<svg xmlns="http://www.w3.org/2000/svg" xmlns:xlink="http://www.w3.org/1999/xlink" version="1.1" viewBox="0 -205 1024 1024">
  <g transform="matrix(1 0 0 -1 0 819)">
   <path fill="currentColor"
d="M792 516q-63 -16 -194 -44v-102h300l40 50l58 -58q2 -5 2 -10q0 -10 -8 -10h-166v-190l4 -79q1 -15 -22 -28q-22 -12 -38 -12l4 114v195h-176q0 -31 -8 -88q-9 -56 -50 -115q-40 -61 -112 -110l-10 14q51 50 84 107q30 56 40 104q7 48 6 162v124l62 -44q109 33 164 58
q53 24 100 48q60 -49 58 -58q-3 -7 -8 -8h-20q-15 0 -30 -2q-16 0 -80 -18v0v0zM42 446h202v154l72 -30q9 -3 10 -6q1 -10 -6 -14l-24 -10v-94h112l40 46l56 -54q3 -3 4 -6q0 -12 -8 -12h-204v-42q71 -27 106 -48q35 -19 46 -40t2 -38q-9 -18 -26 -18q-19 -1 -28 20
q-9 20 -30 46q-22 26 -70 56v-207l4 -84q-1 -11 -22 -26q-19 -12 -38 -12l4 118v199q-33 -54 -90 -116q-54 -60 -108 -103l-12 10q60 67 102 125q41 54 106 160h-120q-19 0 -62 -8l-18 34v0v0zM146 956h634l34 36l58 -42q3 0 4 -6q0 -12 -14 -12h-320v-94h340l34 36l52 -50
q9 -9 10 -14q-1 -6 -16 -8q-24 -7 -42 -22q-18 -12 -66 -72l-18 8l54 98h-348v-120l4 -80q0 -19 -20 -34q-21 -15 -42 -14l4 130v118h-332q-4 -65 -22 -88q-18 -24 -38 -30q-20 -7 -34 -2q-15 6 -14 22q-1 14 22 28q24 14 42 40t24 88h16l2 -34h334v94h-258q-21 0 -68 -8
l-16 32v0v0zM208 746h198v-24h-198v24v0v0zM206 654h200v-24h-200v24v0v0zM622 746h196v-24h-196v24v0v0zM624 652h194v-24h-194v24v0v0z" />
  </g>

</svg>
