<?xml version="1.0" standalone="no"?>
<!DOCTYPE svg PUBLIC "-//W3C//DTD SVG 1.1//EN" "http://www.w3.org/Graphics/SVG/1.1/DTD/svg11.dtd" >
<svg xmlns="http://www.w3.org/2000/svg" xmlns:xlink="http://www.w3.org/1999/xlink" version="1.1" viewBox="0 -36 256 256">
  <g transform="matrix(1 0 0 -1 0 220)">
   <path fill="currentColor"
d="M189 125q0 -15 1 -31l-16 -7q1 17 1 34v89q0 14 -1 32l24 -11l-9 -7v-99zM158 176q-13 -46 -39 -78l-3 2q11 21 19.5 47.5t10.5 46.5l22 -12zM240.5 161q7.5 -10 1 -23.5t-12 6t-30.5 43.5l3 3q31 -19 38.5 -29zM239 115l-10 -2q-34 -55 -71 -77t-63 -27l-2 4
q53 22 82.5 53.5t43.5 64.5zM69 154.5q-1 15.5 -13 35.5l4 2q32 -25 21 -39t-12 1.5zM91 234l-10 -3q-8 -11 -17 -21h30l8 11l14 -12l-8 -8v-151q2 -29 -21 -35q0 11 -25 18v4q19 -2 25.5 -2t7.5 11v157h-46v-47q1 -47 -6.5 -82.5t-31.5 -63.5l-2 2q16 33 21 59t6 64v58
q0 14 -2 26l16 -9h8q7 15 12 36zM79.5 94.5q4.5 -8.5 2.5 -16t-7.5 -7.5t-6 11t-12.5 31l3 3q16 -13 20.5 -21.5zM21 105l-13 17q18 0 117 28l1 -5q-94 -32 -105 -40z" />
  </g>

</svg>
