<?xml version="1.0" standalone="no"?>
<!DOCTYPE svg PUBLIC "-//W3C//DTD SVG 1.1//EN" "http://www.w3.org/Graphics/SVG/1.1/DTD/svg11.dtd" >
<svg xmlns="http://www.w3.org/2000/svg" xmlns:xlink="http://www.w3.org/1999/xlink" version="1.1" viewBox="0 -36 256 256">
  <g transform="matrix(1 0 0 -1 0 220)">
   <path fill="currentColor"
d="M192 163l25 4l12 13l18 -15l-54 -8q3 -45 12.5 -76.5t24.5 -46.5l11 39l4 -1q-3 -26 -2.5 -37.5t3.5 -19.5t-13.5 0t-27.5 30t-16.5 48t-8.5 62l-19 -4l-5 -3l-10 8l33 5q-2 43 -2 84l21 -11l-7 -6q-2 -18 1 -65zM146 13l-15 -6q1 21 1 50v98q-11 -22 -21 -30l-2 1
q22 41 38 121l18 -11l-7 -6q-9 -34 -19 -62l11 -7l-5 -6v-88q0 -41 1 -54zM201 227q17 -8 27.5 -16t4 -21t-12 2.5t-21.5 31.5zM36.5 63.5q-1.5 15.5 -12.5 39.5l3 2q32 -29 21.5 -43t-12 1.5zM98 169l15 -18h-40v-33h16l13 12l15 -19h-44v-49q13 14 28 45l15 -16l-10 -4
q-14 -16 -33 -31v-12l45 9v-4q-84 -25 -94 -33l-10 18q19 3 46 9v68h-18q-10 -1 -20 -3l-8 10h46v33h-26q-12 -13 -23 -22l-2 3q33 46 57 115l18 -11l-6 -4l-6 -12q26 -9 36 -15.5t7 -19.5t-12.5 0t-32.5 30q-16 -34 -31 -57h47z" />
  </g>

</svg>
