<?xml version="1.0" standalone="no"?>
<!DOCTYPE svg PUBLIC "-//W3C//DTD SVG 1.1//EN" "http://www.w3.org/Graphics/SVG/1.1/DTD/svg11.dtd" >
<svg xmlns="http://www.w3.org/2000/svg" xmlns:xlink="http://www.w3.org/1999/xlink" version="1.1" viewBox="0 -36 256 256">
  <g transform="matrix(1 0 0 -1 0 220)">
   <path fill="currentColor"
d="M117.5 27.5q8.5 -0.5 8.5 5.5v27q-20 -3 -35.5 -4.5t-30.5 -4.5l-12 15q16 1 34 7.5t52 20.5q-18 -1 -37.5 -3.5t-28.5 -8.5l-13 17q9 0 30 8t35 20l18 -10q-11 -2 -31.5 -8.5t-33.5 -11.5l69 1q19 8 33 20l19 -11q-14 -3 -37.5 -13t-78.5 -29q60 3 112 6q-8 9 -23 19
l3 3q10 -3 28 -12t19 -16.5t-3 -12.5t-8.5 2.5t-9.5 11.5l-56 -4v-32q0 -6 -4.5 -12.5t-17.5 -9.5q-3 15 -33 18l-1 4q25 -2 33.5 -2.5zM103 38q-11 -1 -33 -10t-50 -15l-1 5q20 5 37.5 14t29.5 20zM156 49q29 -3 48 -8.5t22 -12.5t1.5 -13.5t-12.5 3.5t-61 28zM68 234
q-1 -25 -4.5 -31t-9.5 -8.5t-13.5 0t3.5 10.5t20 29h4zM81 202q0 24 -1 36l23 -8l-8 -7v-15q0 -9 13 -11h54q8 2 9 8.5t3 17.5h4q1 -9 2 -15.5t10 -9.5q-7 -13 -29 -12h-59q-21 0 -21 16zM107 247q28 -7 34.5 -14.5t1.5 -17.5t-9 -2t-11.5 16t-16.5 15zM179 236
q13 -5 23 -8.5t15.5 -9.5t2 -16.5t-11.5 1.5t-31 30zM65 173q-1 -23 -4.5 -29t-9.5 -8.5t-13.5 0t3.5 10.5t20 27h4zM79 143q0 24 -1 34l23 -6l-8 -7v-15q0 -9 13 -11h54q8 2 9 8.5t3 17.5h4q1 -9 2 -15.5t10 -9.5q-7 -12 -29 -11h-59q-21 0 -21 15zM106 183
q28 -7 34.5 -13.5t1.5 -17t-9 -2t-11.5 15.5t-16.5 14zM180 175q13 -3 23 -7t15.5 -9.5t2 -16t-11.5 1.5t-31 29z" />
  </g>

</svg>
