<?xml version="1.0" standalone="no"?>
<!DOCTYPE svg PUBLIC "-//W3C//DTD SVG 1.1//EN" "http://www.w3.org/Graphics/SVG/1.1/DTD/svg11.dtd" >
<svg xmlns="http://www.w3.org/2000/svg" xmlns:xlink="http://www.w3.org/1999/xlink" version="1.1" viewBox="0 0 2048 2048">
  <g transform="matrix(1 0 0 -1 0 2048)">
   <path fill="currentColor"
d="M1337 709h-220l-71 -4l-27 -1q-15 -1 -26 -3l-24 -4l-40 86q27 -4 53 -7q27 -4 35 -4l51 -3q44 -3 49 -3h227q6 41 9 66q3 24 9 102t7 96l4 76l-151 -2l-72 -3q-22 -1 -28 -1q-5 -1 -25 -3l-24 -3l-39 86q26 -5 47 -8t40 -4l51 -4q37 -3 50 -3h154v310h-244q-44 0 -71 -3
l-26 -3l-27 -2l-24 -3l-39 86q26 -5 46 -8q19 -2 43 -4q24 -3 47 -4t51 -1h610l98 102l121 -107q10 -10 14 -16q4 -5 1 -18q-4 -11 -12 -15q-7 -4 -14 -4h-474l-1 -310h180l99 101l120 -106q8 -8 14 -16q5 -7 2 -16q-3 -10 -12 -16q-9 -5 -14 -4l-393 2l-5 -97l-6 -103
q-4 -58 -8 -87l-7 -53h306l98 102l121 -107q10 -10 14 -15t1 -18q-3 -11 -10.5 -15t-13.5 -4h-526q-7 -43 -16 -89q-9 -45 -34 -112q-25 -68 -65 -136q-39 -69 -78 -116q-40 -47 -74 -78q-35 -31 -99 -75t-99 -59l-40 -18l-19 34l59 39q34 22 78 59t80 80q35 43 72 102
q37 58 62 114q26 57 42 116q17 60 22 83zM817 1914l112 -35q46 -15 63 -29q16 -13 12 -28q-3 -11 -18 -18q-14 -8 -42 -12l-46 -7l-28 -79q-13 -37 -46 -116q-34 -79 -59 -125l-33 -62l78 -33q40 -18 38 -30q-2 -13 -14 -22q-12 -8 -32 -16l-30 -12l1 -1017v-49q0 -11 3 -53
l3 -53q0 -15 1 -29t-4 -25q-7 -14 -24 -24q-17 -9 -46 -7q-13 0 -18 3q-5 4 -8 10q-4 7 -4 19v1235l-58 -87q-29 -42 -56 -75q-27 -34 -78 -87l-40 -42l-32 25l35 44q20 26 70 102t77 122q27 47 72 148q44 101 68 165q23 64 46 141q22 76 27 105zM235 1876l45 -21
q26 -12 71 -38t81 -51q37 -24 61 -48q24 -23 41 -52q17 -30 14 -56q-4 -27 -23 -40q-19 -14 -37 -10q-18 3 -31 18t-33 50q-21 35 -50 72q-29 36 -55 59t-71 56l-36 26zM89 1387l41 -17q20 -8 78 -37q57 -29 91 -51q34 -23 67 -54q34 -32 46 -65q13 -33 2 -58.5t-34 -30.5
q-24 -6 -45 12q-12 9 -29 39t-42 63t-50 57q-26 24 -52 44q-27 20 -74 51l-20 13zM529 880l34 -20l-30 -80q-15 -38 -77 -154l-96 -180q-34 -62 -85 -146l-46 -76l9 -44q3 -19 2 -38q0 -19 -11 -28q-11 -10 -25 -2q-14 7 -39 40l-74 94l89 102q41 48 100 132q58 85 117 180
l91 152zM1510 560l70 -44l80 -50q48 -32 80 -57l78 -62q44 -37 71 -67q27 -29 40 -66q13 -38 7 -66q-6 -27 -27 -39t-41 -4q-15 5 -32 29l-59 93q-13 18 -53 69t-62 74q-22 24 -61 60t-62 55l-55 45zM1081 1828l47 -22q22 -9 64 -31q41 -22 70 -42q30 -20 48 -45t24 -54
q5 -30 -8 -52q-13 -23 -36 -26t-42 18q-10 9 -22 40q-13 31 -32 61t-40 51q-20 22 -63 53l-30 21zM1697 1841l94 -59q22 -14 31 -26q8 -12 5 -23q-5 -15 -48 -16l-44 -2q-26 -29 -48 -51t-53 -48q-32 -26 -58 -42l-33 -21l-24 28l47 59q26 32 52 73l53 84z" />
  </g>

</svg>
