<?xml version="1.0" standalone="no"?>
<!DOCTYPE svg PUBLIC "-//W3C//DTD SVG 1.1//EN" "http://www.w3.org/Graphics/SVG/1.1/DTD/svg11.dtd" >
<svg xmlns="http://www.w3.org/2000/svg" xmlns:xlink="http://www.w3.org/1999/xlink" version="1.1" viewBox="0 -36 256 256">
  <g transform="matrix(1 0 0 -1 0 220)">
   <path fill="currentColor"
d="M68 29.5q8 -0.5 8 12.5v65h-37q-1 -27 -6 -50.5t-22 -46.5l-3 1q12 26 16 55t3.5 92.5t-2.5 76.5l14 -8h35l7 10l14 -12l-6 -6v-178q2 -26 -22 -34q0 14 -25 22v4q18 -3 26 -3.5zM39 170h37v50h-37v-50zM39 114h37v49h-37v-49zM157 244l20 -10l-7 -6v-13h42l13 11l15 -18
h-70v-58h58l4 9l16 -13q-8 -2 -23 -29l-3 1l6 25h-121q3 -13 -1.5 -18t-11.5 -5t-1 12.5t8 29.5h4q1 -2 1 -12h52v58h-35q-10 0 -19 -2l-9 9h63q0 15 -1 29zM122 196h87l7 9l13 -12l-7 -5v-11q0 -7 1 -14l-13 -5v6h-88v-4l-13 -3q1 5 1 12v22q-1 6 -1 12zM122 189v-18h88v18
h-88zM147 132q-3 -2 -10 -12h66l7 10l12 -10l-5 -7q-1 -43 -3 -57t-16 -20q-2 12 -17 15v4q7 -1 14 -1.5t8 11t2 48.5h-72q-5 -5 -10 -12l7 -7h38l6 7l13 -10l-7 -4q0 -20 1 -32l-13 -4v5h-37v-20q0 -9 11 -9h66q7 -1 11 1.5t5 30.5h4q1 -14 2.5 -22.5t8.5 -10.5
q-6 -10 -21 -10h-86q-14 1 -13 18v62q-9 -11 -24 -22l-2 3q18 20 28 37.5t11 26.5zM131 63h37v24h-37v-24z" />
  </g>

</svg>
