<?xml version="1.0" standalone="no"?>
<!DOCTYPE svg PUBLIC "-//W3C//DTD SVG 1.1//EN" "http://www.w3.org/Graphics/SVG/1.1/DTD/svg11.dtd" >
<svg xmlns="http://www.w3.org/2000/svg" xmlns:xlink="http://www.w3.org/1999/xlink" version="1.1" viewBox="0 -36 256 256">
  <g transform="matrix(1 0 0 -1 0 220)">
   <path fill="currentColor"
d="M116 213h44v32l23 -9l-9 -7v-16h52l8 8l15 -15q-11 -1 -30 -21l-2 2l10 19h-111q0 -15 -8.5 -19t-12 1.5t4.5 12.5t11 25h5v-13zM114 166l15 -10h81l9 10l14 -15l-8 -6v-42h1l10 10l13 -17h-119q-14 0 -25 -4l-7 11h18q0 41 -2 63zM128 103h20v46h-20v-46zM160 103h20v46
h-20v-46zM191 103h22v46h-22v-46zM157.5 26q9.5 0 8.5 15v32h-31q-10 -1 -21 -3l-9 10h105l13 11l16 -18h-59v-44q0 -17 -21 -23q1 11 -28 18v4q17 -2 26.5 -2zM149 153l9 26h16l-19 -26h-6zM201 183l10 10l16 -17h-80q-22 -1 -25 -3l-10 10h89zM73 230l-10 -3
q-16 -28 -32 -48q17 -6 21.5 -12t0.5 -16q21 34 23 46l18 -15l-9 -2q-27 -43 -58 -78l52 6q-6 13 -14 26l3 3q20 -18 26.5 -28.5t-0.5 -19t-8.5 -1t-5.5 13.5q-51 -11 -59 -19l-10 17l7 2q21 24 34 48q-11 9 -18 15t-25 16v5l16 -5q17 25 27 61zM32 74q4 -33 1 -42t-9 -12
t-10.5 0t2.5 12t12 42h4zM46 75l3 2q21 -26 21 -35t-7 -15.5t-7.5 6t-9.5 42.5zM69 87q25 -21 27.5 -29t-3 -17.5t-9 4.5t-18.5 40z" />
  </g>

</svg>
