<?xml version="1.0" standalone="no"?>
<!DOCTYPE svg PUBLIC "-//W3C//DTD SVG 1.1//EN" "http://www.w3.org/Graphics/SVG/1.1/DTD/svg11.dtd" >
<svg xmlns="http://www.w3.org/2000/svg" xmlns:xlink="http://www.w3.org/1999/xlink" version="1.1" viewBox="0 -36 256 256">
  <g transform="matrix(1 0 0 -1 0 220)">
   <path fill="currentColor"
d="M67 218h35l8 9l13 -14l-6 -3q-12 -9 -20 -21h29l12 11l15 -18h-68q-9 -29 -31 -38l-3 2q19 19 20 36h-22v-42h47q-3 9 -5.5 12t-8.5 10l2 5q17 -8 21 -13.5t-4 -13.5h24l12 10l14 -17h-102q0 -42 -10 -72t-28 -51l-3 2q16 33 22.5 63t5.5 105q-8 -11 -21 -23l-3 3
q16 21 30 42.5t21 44.5l19 -13l-7 -4zM102 211h-40l-15 -20l2 -2h41zM112 89l12 10l15 -17h-51q-9 1 -24 -3l-6 10h54zM136 19l-14 -7v11h-47v-7l-13 -6q1 29 0 63l15 -8h44l10 8l11 -12l-7 -5q0 -18 1 -37zM75 30h47v27h-47v-27zM113 114l10 10l16 -17h-50q-10 1 -22 -3
l-7 10h53zM153 149l-6 -3l-8 9l30 3q-3 68 -3 86l20 -12l-6 -6q0 -32 1 -66l36 5l10 11l15 -17l-60 -6q3 -51 11 -78q17 36 21 68l18 -11l-5 -4q-16 -47 -29 -67q13 -20 31 -30l8 48h4q-1 -23 -0.5 -41t4 -26.5t-15.5 1t-40 36.5q-24 -26 -57 -40l-1 3q34 23 52 49
q-11 34 -14 90zM217.5 205.5q8.5 -6.5 8 -13.5t-4 -11.5t-9.5 8t-22 29.5l2 3q17 -9 25.5 -15.5zM122 184v-9q0 -6 5.5 -6.5t11 1.5t8.5 -3t2.5 -7.5t-12 -2.5t-20 0.5t-8.5 13.5v13h13z" />
  </g>

</svg>
