<?xml version="1.0" standalone="no"?>
<!DOCTYPE svg PUBLIC "-//W3C//DTD SVG 1.1//EN" "http://www.w3.org/Graphics/SVG/1.1/DTD/svg11.dtd" >
<svg xmlns="http://www.w3.org/2000/svg" xmlns:xlink="http://www.w3.org/1999/xlink" version="1.1" viewBox="0 -205 1024 1024">
  <g transform="matrix(1 0 0 -1 0 819)">
   <path fill="currentColor"
d="M680 552l4 -8q1 -3 -4 -6q-28 -11 -40 -28q-12 -15 -32 -48h184l22 30l60 -38q7 -6 6 -6q1 -8 -16 -16q-17 -7 -28 -28q-12 -21 -42 -80q-31 -58 -86 -116q38 -36 76 -56q35 -18 74 -33q35 -15 134 -28v-18q-37 1 -58 -10q-18 -9 -36 -28q-43 18 -94 48q-48 30 -126 97
q-60 -53 -138 -91q-79 -38 -202 -76l-8 18q122 47 194 88q71 37 128 89q-58 83 -88 184q-61 -94 -140 -176l-12 8q54 75 112 178q56 101 86 178l70 -28v0v0zM596 438l-18 -24q39 -106 102 -178q63 71 114 202h-198v0v0zM558 578q-39 -33 -146 -110l-12 10q114 108 180 196
q66 -38 64 -46q-4 -6 -10 -6q-7 0 -22 -6q-12 -4 -54 -38v0v0zM762 664q74 -28 124 -52t70 -50q21 -25 16 -46q-5 -20 -22 -22q-18 -3 -32 24q-13 24 -44 54q-30 27 -120 78l8 14v0v0zM662 982q59 -30 68 -36q6 -4 4 -10q-4 -7 -22 -10q-19 -3 -50 -32q-30 -31 -150 -142
l354 10q-48 67 -110 116l10 12q96 -57 132 -90q35 -34 44 -58q9 -25 0 -40q-6 -15 -24 -14q-15 -1 -24 14q-7 15 -20 40q-239 -18 -298 -26q-59 -6 -94 -26l-36 68q45 0 60 22q87 90 156 202v0v0zM102 940l56 -40h154l28 38l48 -38q12 -6 12 -14q0 -6 -30 -26v-124l4 -86
q1 -21 -16 -32q-18 -10 -38 -10v36h-54v-188h54l30 40l44 -46q16 -18 0 -20h-128v-224l124 40l6 -18q-264 -102 -284 -115q-21 -11 -44 -38l-44 56l58 19v378l72 -32q3 -3 4 -8q0 -1 -2 -4l-26 -16v-302l88 28v450h-64v-22q0 -13 -20 -22q-18 -10 -36 -10l4 130v220v0v0z
M154 670h166v204h-166v-204v0v0z" />
  </g>

</svg>
