<?xml version="1.0" standalone="no"?>
<!DOCTYPE svg PUBLIC "-//W3C//DTD SVG 1.1//EN" "http://www.w3.org/Graphics/SVG/1.1/DTD/svg11.dtd" >
<svg xmlns="http://www.w3.org/2000/svg" xmlns:xlink="http://www.w3.org/1999/xlink" version="1.1" viewBox="0 -205 1024 1024">
  <g transform="matrix(1 0 0 -1 0 819)">
   <path fill="currentColor"
d="M949 677q12 -13 12 -21q0 -11 -20 -11q-11 0 -26 3l-61 -70l-10 7l35 94h-461q-6 -77 -38 -108q-14 -14 -25 -14t-11 18q0 8 2 18q5 21 22 39t22 32q11 28 10 82l13 3q2 -17 5 -49h197v119h-232v20h232v86l-3 31l51 -12q27 -11 27 -18q0 -8 -32 -20v-67h165l26 31
q13 17 15 17q3 0 17 -13l47 -41l-10 -14h-260v-119h213l16 18q10 11 12 11q4 0 14 -11zM963 337l-11 -12h-305v-173q0 -31 -2 -40q-5 -22 -24 -29l-47 -10q-13 -3 -18 -3q-7 0 -3 7q6 13 6 17q0 10 -15 17l-92 30l1 9l96 -19q21 -5 31 -5q15 0 19 10.5t4 40.5v148h-292v19
h292v63l-2 40l46 -12l99 97h-323v20h334l19 20q11 11 16 11t15 -11l29 -32q11 -12 11 -19q0 -13 -30 -13q-10 0 -25 2l-128 -77q15 -10 15 -15q0 -8 -32 -21v-53h208l23 36q13 18 15 18q3 0 16 -14zM317 929q19 -13 19 -21t-25 -4q-113 -170 -235 -267l-9 8q124 115 216 310
zM340 725q20 -14 20 -22q0 -9 -27 -13q-29 -56 -92 -149q20 -14 20 -22q0 -5 -21 -20v-383q0 -7 1 -15t1 -10q0 -12 -27 -19q-7 -3 -11 -3q-8 0 -9 13q1 -9 1 34v370q-57 -68 -133 -131l-8 10q175 188 249 386z" />
  </g>

</svg>
