<?xml version="1.0" standalone="no"?>
<!DOCTYPE svg PUBLIC "-//W3C//DTD SVG 1.1//EN" "http://www.w3.org/Graphics/SVG/1.1/DTD/svg11.dtd" >
<svg xmlns="http://www.w3.org/2000/svg" xmlns:xlink="http://www.w3.org/1999/xlink" version="1.1" viewBox="0 -144 1024 1024">
  <g transform="matrix(1 0 0 -1 0 880)">
   <path fill="currentColor"
d="M811 662l65 -53v-22h-197v-205h138l54 54l65 -54v-22h-257v-306l-64 -32v338h-246v22h246v205h-200v22h343zM174 436l-91 -50l-3 -20l-16 10l-9 18l-5 10l-11 25l-1 1l-2 4l136 57l2 2v259h-133v22h133v209l65 -10l16 -11l-16 -10v-178h18l54 53l64 -53v-22h-136v-231
l66 27l68 26l4 -8l-58 -43l-80 -50v-334l-1 -13l-2 -14l-5 -12l-7 -13l-8 -11l-11 -8l-12 -7l-13 -4l-14 -3l-13 -1v33l-75 16v16h75h6l5 1l5 2l2 2l2 5l1 5v6v297zM36 434l28 -58l-38 54zM878 639l-32 26l-30 27l-30 31l-28 32l-26 36l-25 38l-25 41l-22 46l-30 -53
l-30 -46l-32 -42l-34 -40l-35 -37l-37 -33l-39 -31l-41 -26l-43 -22l-5 8l37 30l34 33l33 33l31 36l30 38l28 40l27 43l26 45l46 98l3 6l55 -33l11 -16l-20 -2l-4 -8l67 -85l29 -33l29 -30l29 -27l29 -25l30 -22l31 -20l56 -31l-60 -47z" />
  </g>

</svg>
