<?xml version="1.0" standalone="no"?>
<!DOCTYPE svg PUBLIC "-//W3C//DTD SVG 1.1//EN" "http://www.w3.org/Graphics/SVG/1.1/DTD/svg11.dtd" >
<svg xmlns="http://www.w3.org/2000/svg" xmlns:xlink="http://www.w3.org/1999/xlink" version="1.1" viewBox="0 -52 256 256">
  <g transform="matrix(1 0 0 -1 0 204)">
   <path fill="currentColor"
d="M117 248l20 -9q3 -1 2 -3q-5 -1 -7 -4v-38h16l9 9l12 -12q1 -1 1 -2t-3 -2l-4 -2v-63v-11q0 -5 -3 -7t-7 -2v8h-21v-55l28 9q-3 9 -12 20l2 3q11 -9 18 -18q6 -9 8 -16t-1 -12q-2 -3 -7 -3q-4 1 -4 8t-2 13l-53 -19q-11 -4 -14 -7q-4 -1 -8 -7l-10 14l44 12v58h-21v-4
q0 -5 -3 -7q-1 -3 -9 -4q2 10 2 37v57q1 3 -5 9l3 4l9 -8h24v40q2 4 -6 11zM157 28h39v183h-16q-6 0 -11 -4l-9 9h58l8 10l17 -13q4 -3 -1 -2h-36v-183h18l7 12l18 -14q2 -2 1 -2q0 -1 -3 -1h-70q-7 1 -12 -3zM100 189v-74h21v74h-21zM153 189h-21v-74h21v74zM16 229l10 -10
h30l10 10l11 -12q2 -1 2 -3q-1 -1 -3 -1l-5 -3v-126l2 -30q-1 -7 -12 -8v15h-33v-15q1 -6 -12 -9v7q1 15 1 28v144q1 3 -4 9zM61 138h-33v-72h33v72zM28 143h33v71h-33v-71z" />
  </g>

</svg>
