<?xml version="1.0" standalone="no"?>
<!DOCTYPE svg PUBLIC "-//W3C//DTD SVG 1.1//EN" "http://www.w3.org/Graphics/SVG/1.1/DTD/svg11.dtd" >
<svg xmlns="http://www.w3.org/2000/svg" xmlns:xlink="http://www.w3.org/1999/xlink" version="1.1" viewBox="0 -36 256 256">
  <g transform="matrix(1 0 0 -1 0 220)">
   <path fill="currentColor"
d="M143 127h25v46h-25v-46zM181 127h25v46h-25v-46zM143 71h25v49h-25v-49zM181 71h25v49h-25v-49zM181 219v-39h35l12 12l14 -19h-23v-46h4l12 12l14 -19h-30v-49h1l11 11l14 -18h-64v-40h27l12 11l16 -18h-90q-10 0 -19 -2l-9 9h50v40h-29q-10 0 -21 -2l-10 9h22v49
q-9 0 -17 -3l-9 10h26v46h-5l-6 -2l-8 9h57v38q-23 -2 -50 -4v5q84 13 98 24l16 -19q-36 -3 -51 -5zM45 172h47v29h-47v-29zM45 138h47v27h-47v-27zM45 102h47v29h-47v-29zM83 235q-7 -3 -21 -27h29l7 11l14 -12l-7 -6v-167q0 -18 -20 -26q0 13 -24 21v4q19 -2 25 -2t6 7v51
q-17 -27 -38 -46t-44 -29l-2 3q21 14 39.5 34.5t30.5 43.5h-37q-10 0 -20 -2l-10 9h21v79q0 17 -1 36l14 -9h12q6 23 9 38z" />
  </g>

</svg>
