<?xml version="1.0" standalone="no"?>
<!DOCTYPE svg PUBLIC "-//W3C//DTD SVG 1.1//EN" "http://www.w3.org/Graphics/SVG/1.1/DTD/svg11.dtd" >
<svg xmlns="http://www.w3.org/2000/svg" xmlns:xlink="http://www.w3.org/1999/xlink" version="1.1" viewBox="0 -36 256 256">
  <g transform="matrix(1 0 0 -1 0 220)">
   <path fill="currentColor"
d="M118 95q-3 8 -11 19l3 2q25 -19 26.5 -28.5t-4 -14t-7 0.5t-5.5 16q-16 -2 -37 -6v-50q0 -11 -4 -16t-14 -9q-2 12 -24 19v4q19 -2 24 -1.5t5 6.5v46q-17 -2 -28 -4.5t-18 -5.5l-7 19q9 0 23 7.5t37 25.5q-20 -3 -28.5 -4.5t-19.5 -6.5l-5 17q6 1 17 10t19 21h-22v-5
l-14 -5q1 28 1 51t-1 39l14 -8h73l8 9l12 -13l-7 -5v-43q0 -10 1 -20l-14 -7v7h-47l12 -9q-6 -3 -17.5 -10.5t-19.5 -12.5h43q14 12 22 22l13 -15q-6 -1 -25.5 -14.5t-55.5 -33.5q46 3 82 6zM38 201h31v26h-31v-26zM82 201h29v26h-29v-26zM38 169h31v25h-31v-25zM82 169h29
v25h-29v-25zM46 72l14 -12q-6 -3 -18 -15.5t-30 -25.5l-2 4q25 26 36 49zM125 50q8 -8 3.5 -20t-12.5 4t-28 35l2 2q27 -13 35 -21zM161 157h58v30h-58v-30zM161 119h58v31h-58v-31zM161 80h58v32h-58v-32zM175 226h-13q-10 0 -19 -2l-9 9h85l12 11l16 -18h-54
q-6 -11 -18 -32h43l7 7l14 -12l-7 -7v-66q0 -29 1 -48l-14 -6v11h-58v-9l-14 -5q1 21 1 73.5t-1 68.5l14 -7h9q5 22 5 32zM130 8l-4 2q34 34 41 59l17 -14l-7 -5q-31 -33 -47 -42zM234.5 41q9.5 -11 3 -25t-12.5 3.5t-26 43.5l2 3q24 -14 33.5 -25z" />
  </g>

</svg>
