<?xml version="1.0" standalone="no"?>
<!DOCTYPE svg PUBLIC "-//W3C//DTD SVG 1.1//EN" "http://www.w3.org/Graphics/SVG/1.1/DTD/svg11.dtd" >
<svg xmlns="http://www.w3.org/2000/svg" xmlns:xlink="http://www.w3.org/1999/xlink" version="1.1" viewBox="0 -205 1024 1024">
  <g transform="matrix(1 0 0 -1 0 819)">
   <path fill="currentColor"
d="M140 990l58 -32h592l34 34l58 -50q7 -9 -4 -14l-28 -20v-124l4 -70q3 -12 -14 -24q-15 -9 -38 -12v46h-614v-22q0 -15 -18 -24q-16 -10 -34 -10l4 120v202v0v0zM188 750h172v180h-172v-180v0v0zM408 750h166v180h-166v-180v0v0zM622 750h180v180h-180v-180v0v0zM348 712
l78 -28q3 -4 4 -8q-1 -4 -34 -22q0 -42 -24 -102t-102 -96q-79 -37 -190 -46l-4 16q92 16 158 50q65 33 92 84q24 50 22 152v0v0zM582 708l80 -24q6 -3 6 -8q0 -3 -6 -8l-32 -12v-126q-1 -33 14 -36l24 -2h172q20 -1 26 14q3 14 6 34q2 20 2 94h20q5 -69 10 -90
q3 -21 34 -32q-12 -31 -30 -46q-19 -15 -58 -18h-190q-28 -1 -46 8t-26 24q-6 17 -6 52v176v0v0zM62 350h614v84l76 -24q8 -4 8 -10q-1 -6 -32 -18v-32h160l38 46l70 -54q3 -4 4 -10q0 -10 -12 -10h-260v-209q1 -33 -24 -60q-24 -26 -68 -34q-3 30 -32 44q-27 15 -104 38
l4 18q87 -18 118 -22q28 -3 44 2q15 7 10 51v172h-530q-20 0 -64 -8l-20 36v0v0zM270 286l8 12q62 -30 92 -54q29 -25 38 -50q9 -24 -2 -42q-10 -16 -28 -13t-24 25q-6 24 -20 52q-13 27 -64 70v0v0z" />
  </g>

</svg>
