<?xml version="1.0" standalone="no"?>
<!DOCTYPE svg PUBLIC "-//W3C//DTD SVG 1.1//EN" "http://www.w3.org/Graphics/SVG/1.1/DTD/svg11.dtd" >
<svg xmlns="http://www.w3.org/2000/svg" xmlns:xlink="http://www.w3.org/1999/xlink" version="1.1" viewBox="0 -36 256 256">
  <g transform="matrix(1 0 0 -1 0 220)">
   <path fill="currentColor"
d="M100 78v-50l44 16l2 -3q-49 -25 -54 -34l-10 15q4 4 3 15v31q-28 -22 -74 -36l-2 3q31 13 53.5 29t37.5 30h-55q-11 0 -20 -2l-9 9h193l16 12l17 -19h-106q11 -18 26 -31q27 15 38 29l15 -17h-10l-40 -16q16 -13 37.5 -19t44.5 -6v-4q-20 -4 -21 -14q-31 8 -55.5 25.5
t-39.5 52.5h-12q-8 -6 -19 -16zM139.5 120q4.5 -7 -1.5 -15t-10 2.5t-17 23.5l2 2q22 -6 26.5 -13zM21 129q19 8 72 66l4 -4q-38 -48 -59 -75zM19 207q45 -9 38 -23.5t-14 -2.5t-26 22zM48 242q43 -13 34 -25.5t-14.5 -0.5t-22.5 24zM135 189q-12 0 -23 -2l-12 9h54
q4 17 3 50l23 -12l-7 -8q0 3 -4 -30h44l17 11l19 -18h-70q11 -43 67 -54v-3q-19 -1 -25 -8q-45 27 -48 65h-4q-13 -50 -82 -65l-2 3q52 19 67 62h-17zM187 233q29 -7 33 -12.5t-1.5 -13.5t-10 1t-24.5 22z" />
  </g>

</svg>
