<?xml version="1.0" standalone="no"?>
<!DOCTYPE svg PUBLIC "-//W3C//DTD SVG 1.1//EN" "http://www.w3.org/Graphics/SVG/1.1/DTD/svg11.dtd" >
<svg xmlns="http://www.w3.org/2000/svg" xmlns:xlink="http://www.w3.org/1999/xlink" version="1.1" viewBox="0 -36 256 256">
  <g transform="matrix(1 0 0 -1 0 220)">
   <path fill="currentColor"
d="M57 47h27v61h-27v-61zM36 109.5q13 23.5 23 55.5h-12h-8q-1 1 -13 -2l-10 9h75l11 11l15 -18h-50l14 -8l-9 -2q-10 -19 -20 -40h31l7 8l14 -11l-7 -5q0 -65 1 -78l-14 -6v17h-27v-24l-14 -5v87q-15 -22 -32 -35l-3 2q15 21 28 44.5zM127 187l15 -8h60l7 11l15 -12l-6 -5
v-35q0 -8 1 -14l-16 -4v7h-62v-6l-14 -3q1 18 1 36t-1 33zM141 158h62v14h-62v-14zM141 134h62v17h-62v-17zM233 121l14 -17h-86l-14 -14h70l8 9l17 -15l-9 -4q-6 -48 -15 -57.5t-21 -13.5q0 10 -26 13l1 6q15 -2 23.5 -2t13 9t7 21.5t3.5 26.5h-12q-24 -55 -98 -76l-2 4
q69 31 84 72h-16q-23 -38 -73 -56l-1 4q44 25 58 52h-17q-16 -14 -45 -30v5q32 26 44 46h-5q-11 0 -21 -2l-10 9h117zM130 209h-39q0 -8 1 -20l-16 -6q1 15 1 26h-29q-11 0 -21 -2l-10 9h60q0 22 -1 30l25 -7l-10 -6v-17h14l11 9zM133 216h35q0 17 -1 29l23 -7l-7 -6v-16h34
l14 11l16 -18h-64q0 -3 1 -15l-17 -7q1 19 1 22h-13q-6 0 -14 -1z" />
  </g>

</svg>
