<?xml version="1.0" standalone="no"?>
<!DOCTYPE svg PUBLIC "-//W3C//DTD SVG 1.1//EN" "http://www.w3.org/Graphics/SVG/1.1/DTD/svg11.dtd" >
<svg xmlns="http://www.w3.org/2000/svg" xmlns:xlink="http://www.w3.org/1999/xlink" version="1.1" viewBox="0 -205 1024 1024">
  <g transform="matrix(1 0 0 -1 0 819)">
   <path fill="currentColor"
d="M504 770h276l32 38q63 -43 64 -50q0 -7 -30 -28v-186l4 -88q0 -19 -20 -28q-18 -10 -36 -10v50h-298v-30q0 -15 -20 -24q-19 -9 -34 -8l4 122v282l58 -40v0v0zM496 490h298v112h-298v-112v0v0zM496 626h298v118h-298v-118v0v0zM712 248q98 -40 146 -70q46 -30 68 -59
q21 -30 16 -54q-6 -21 -24 -24q-18 -1 -32 22q-12 24 -42 62q-27 35 -140 111l8 12v0v0zM898 906l22 36l66 -54q7 -7 -4 -14q-34 -3 -56 -24q-21 -18 -48 -54l-16 8l36 76h-454q-9 -46 -24 -68q-16 -21 -34 -30q-19 -7 -34 4q-13 9 -10 24q3 12 28 28q23 14 38 44
q11 27 20 72h18v-48h452v0v0zM872 328l40 48l62 -56q3 -3 4 -6q1 -12 -16 -12h-562q-45 0 -68 -8l-16 34h556v0v0zM574 446l8 10q57 -21 82 -36q21 -14 30 -34q6 -19 -2 -34q-7 -16 -26 -14q-18 0 -24 22q-3 20 -14 38q-12 15 -54 48v0v0zM502 152q-45 -37 -200 -131l-10 14
q145 105 248 225q64 -48 62 -56q-4 -9 -16 -8q-12 -1 -24 -4q-12 -2 -60 -40v0v0zM126 920l8 18q56 -22 86 -40q27 -18 42 -36q15 -19 18 -40q3 -18 -8 -36t-28 -14q-15 2 -20 20q-3 16 -12 38q-7 20 -20 40q-12 20 -66 50v0v0zM44 694l6 14q48 -15 84 -30q33 -15 52 -36
q17 -20 20 -40q1 -20 -10 -34q-12 -15 -26 -12q-12 0 -18 16q-6 15 -14 34q-9 19 -30 38q-20 19 -64 50v0v0zM200 410q-21 -54 -48 -60q-25 -7 -100 -2l-2 -20q52 -6 80 -14q27 -6 34 -18q8 -10 10 -40q3 -31 -6 -86q-10 -53 -8 -81q0 -27 18 -36t34 2q15 10 18 34
q3 25 -6 83q-7 57 -8 94q-1 36 8 66q6 27 16 58l120 366l-20 8l-140 -354v0v0z" />
  </g>

</svg>
