<?xml version="1.0" standalone="no"?>
<!DOCTYPE svg PUBLIC "-//W3C//DTD SVG 1.1//EN" "http://www.w3.org/Graphics/SVG/1.1/DTD/svg11.dtd" >
<svg xmlns="http://www.w3.org/2000/svg" xmlns:xlink="http://www.w3.org/1999/xlink" version="1.1" viewBox="0 -205 1024 1024">
  <g transform="matrix(1 0 0 -1 0 819)">
   <path fill="currentColor"
d="M456 856l40 50l58 -56q3 -4 4 -8q0 -10 -12 -10h-452q-21 0 -56 -8l-16 32h434v0v0zM106 778l70 -28q11 -6 2 -14l-24 -14v-172h282v238l74 -30q6 -4 6 -8q0 -3 -32 -20v-130l4 -76q3 -10 -14 -22q-18 -10 -38 -10v34h-274l-22 -34l-62 42q27 16 28 38v206v0v0zM198 970
l4 14q50 -9 82 -24q32 -14 44 -34q10 -18 2 -38q-7 -18 -28 -18q-19 0 -26 22q-6 21 -24 40t-54 38v0v0zM74 462l52 -38h122q15 51 24 96q66 -18 70 -24q3 -4 0 -8q-4 -2 -10 -4q-7 -2 -14 -10q-6 -6 -24 -50h148l32 34l52 -36q12 -6 10 -14q0 -6 -30 -26v-238
q3 -40 -12 -67q-16 -24 -58 -40q-12 33 -32 44q-18 11 -72 34l4 16q47 -10 74 -14q25 -3 38 2q12 7 10 35v244h-174q-24 -63 -60 -132l146 10q-9 35 -38 76l12 8q46 -33 68 -66q21 -31 24 -52t-6 -32q-9 -12 -26 -12q-15 1 -20 20q-3 18 -8 36q-81 -9 -120 -20
q-36 -9 -66 -30l-38 60q22 6 38 12q14 5 52 122h-120v-269l4 -62q0 -16 -20 -26q-18 -12 -36 -12l4 98v335v0v0zM710 944q12 -11 0 -16q-22 -3 -38 -48q-16 -42 -40 -110h264l36 52l54 -56q13 -16 -4 -22h-160v-174h56l32 46l56 -50q18 -16 -2 -22h-142v-176h60l34 46
l50 -50q19 -19 -4 -22h-140v-194h76l36 52l54 -56q16 -17 -4 -21h-344v-62q0 -14 -18 -26q-17 -11 -34 -14l4 110v537q-43 -117 -82 -176l-16 4q51 141 84 252q33 112 58 224l74 -28v0v0zM640 148h134v194h-134v-194v0v0zM640 368h134v176h-134v-176v0v0zM640 570h134v174
h-134v-174v0v0zM734 948l6 14q78 -37 102 -62t28 -46q3 -19 -8 -34q-10 -16 -28 -14q-16 2 -22 26q-7 21 -22 52q-16 27 -56 64v0v0zM298 722q36 51 58 96l58 -36q4 -6 0 -8q-3 -2 -12 -4q-8 -1 -22 -16q-14 -13 -52 -56q42 -40 60 -64q18 -25 18 -40q0 -14 -8 -22
q-7 -9 -20 -6q-12 2 -24 20q-9 18 -20 34q-8 15 -34 46q-72 -79 -114 -106l-8 12q56 66 98 120q-48 45 -98 94l10 10q56 -36 110 -74v0v0z" />
  </g>

</svg>
