<?xml version="1.0" standalone="no"?>
<!DOCTYPE svg PUBLIC "-//W3C//DTD SVG 1.1//EN" "http://www.w3.org/Graphics/SVG/1.1/DTD/svg11.dtd" >
<svg xmlns="http://www.w3.org/2000/svg" xmlns:xlink="http://www.w3.org/1999/xlink" version="1.1" viewBox="0 -144 1024 1024">
  <g transform="matrix(1 0 0 -1 0 880)">
   <path fill="currentColor"
d="M335 423l-15 26l-10 13l-21 24l-34 34v-452l-64 -33v446l-11 -30l-20 -47l-21 -46l-23 -43l-25 -41l-28 -39l-30 -36l-8 6l40 83l37 86l16 46l15 47l13 48l11 50l10 51l6 37h-144v21h162v188l-22 -6l-41 -9l-42 -9l-46 -7l-3 10l187 77l56 27l44 26l17 12l15 -24l25 -27
l2 -18l-20 8l-34 -16l-57 -21l-17 -5v-206h29l53 54l65 -54v-21h-147v-115l21 -7l18 -8l17 -8l16 -9l30 -22l14 -13l13 -13l12 -14l4 -24l-14 -20l-24 -5l-20 14zM703 133l60 -27l-7 -12l-7 -11l-8 -11l-10 -9l-11 -7l-11 -7l-13 -5l-12 -3l-13 -2l-14 -1v32l-97 16v16h97
l7 1l7 1l5 2l5 1l8 6l4 3l4 5l3 5zM756 887l5 8l2 -2l25 21l59 -48l-27 -16l-22 -9l-17 -18l-36 -35l-26 -22l-11 -8h158l32 27l59 -48l-27 -22v-129l-64 -32v32h-124l40 -109l21 -52l12 -27l31 38l67 79l-1 1l5 5l44 -47l3 -19l-21 5l-89 -62l-17 -10l-14 -8l24 -47l23 -41
l23 -36l24 -33l25 -28l33 -32l-58 -43l-26 31l-25 35l-23 39l-22 41l-20 45l-18 49l-17 52l-15 56l-12 60l-9 57l-24 -35l-24 -29l-26 -27l-7 -6l26 -32l30 -42l25 -42l19 -41l15 -39l10 -40l5 -38v-37l-6 -36l-10 -35l-3 1l-29 13l-28 13l11 24l8 27l3 30l-1 27l-1 -1
l-30 -20l-68 -37l-36 -17l-38 -16l-39 -15l-42 -14l-43 -13l-46 -10l-2 9l119 60l70 39l63 41l29 21l53 43l-15 46l-4 9l-35 -26l-28 -19l-29 -17l-31 -17l-33 -15l-34 -14l-35 -12l-38 -10l-38 -9l-4 9l100 54l59 37l52 38l46 41l20 21l2 -2l-29 55l-12 -11l-32 -24
l-33 -22l-36 -20l-38 -18l-41 -15l-43 -14l-4 9l74 46l34 22l30 24l29 24l26 25l23 25l21 27l19 27v1h-111v-37l-65 -33v216l-21 -17l-29 -20l-31 -16l-5 8l45 49l41 50v5l2 -1l19 25l35 60l30 66l12 30l4 12l57 -32l11 -16l-20 -3l-23 -45h149zM673 737h-128v-129h128v129z
M866 737h-129v-129h129v129zM746 866h-152l-34 -50l-23 -28l-16 -17l24 -13h145l4 7l23 45z" />
  </g>

</svg>
