<?xml version="1.0" standalone="no"?>
<!DOCTYPE svg PUBLIC "-//W3C//DTD SVG 1.1//EN" "http://www.w3.org/Graphics/SVG/1.1/DTD/svg11.dtd" >
<svg xmlns="http://www.w3.org/2000/svg" xmlns:xlink="http://www.w3.org/1999/xlink" version="1.1" viewBox="0 -36 256 256">
  <g transform="matrix(1 0 0 -1 0 220)">
   <path fill="currentColor"
d="M34 211v-124h36v124h-36zM20 82v101q0 22 -1 45l15 -10h36l10 11l14 -17l-10 -6v-110q0 -18 1 -36l-15 -8v28h-36v-23l-15 -7q1 15 1 32zM230 222l-14 -1q-18 -5 -53 -10.5t-59 -5.5v4q72 9 112 34zM156 211l15 2v-80h46l13 14l18 -21h-77v-95h37l15 13l17 -20h-117
q-10 0 -19 -3l-9 10h61v95h-42q-10 0 -19 -2l-9 9h70v78z" />
  </g>

</svg>
