<?xml version="1.0" standalone="no"?>
<!DOCTYPE svg PUBLIC "-//W3C//DTD SVG 1.1//EN" "http://www.w3.org/Graphics/SVG/1.1/DTD/svg11.dtd" >
<svg xmlns="http://www.w3.org/2000/svg" xmlns:xlink="http://www.w3.org/1999/xlink" version="1.1" viewBox="0 -205 1024 1024">
  <g transform="matrix(1 0 0 -1 0 819)">
   <path fill="currentColor"
d="M456 752l60 -44h296l30 40l58 -46q6 -6 6 -8q0 -7 -30 -32v-334l4 -84q0 -18 -18 -30q-16 -12 -40 -14v66h-314v-34q0 -22 -20 -34q-18 -10 -36 -10l4 124v440v0v0zM508 292h314v180h-314v-180v0v0zM508 498h314v184h-314v-184v0v0zM352 87h522l44 52l64 -62q3 -3 4 -10
t-16 -8h-530q-21 1 -68 -8l-20 36v0v0zM376 878h478l38 46l70 -56q3 -4 4 -10q1 -7 -16 -8h-486q-21 0 -68 -8l-20 36v0v0zM202 976l68 -30q20 -6 20 -12q1 -6 -40 -30v-294q64 75 116 174q72 -39 70 -48q-3 -7 -8 -8q-6 1 -24 -4q-16 -6 -58 -50q-40 -43 -98 -94
q0 -114 -8 -198q54 -28 102 -70q47 -43 58 -70q10 -25 8 -46q-3 -19 -12 -28t-26 -6q-16 2 -26 44q-10 39 -34 78q-22 36 -74 78q-12 -102 -60 -186q-44 -82 -148 -161l-10 10q80 83 116 151q33 68 48 140q16 72 20 252v408v0v0zM110 732h16q12 -93 4 -156q-9 -61 -30 -82
q-20 -22 -40 -20q-21 3 -26 18q-5 16 12 32q17 15 38 58q20 42 26 150v0v0v0z" />
  </g>

</svg>
