<?xml version="1.0" standalone="no"?>
<!DOCTYPE svg PUBLIC "-//W3C//DTD SVG 1.1//EN" "http://www.w3.org/Graphics/SVG/1.1/DTD/svg11.dtd" >
<svg xmlns="http://www.w3.org/2000/svg" xmlns:xlink="http://www.w3.org/1999/xlink" version="1.1" viewBox="0 -205 1024 1024">
  <g transform="matrix(1 0 0 -1 0 819)">
   <path fill="currentColor"
d="M350 866q48 -70 166 -142q87 54 162 142h-328v0v0zM262 564l52 -16h400l26 22l52 -28q12 -6 12 -14q0 -3 -24 -18v-110l4 -60q1 -13 -16 -22q-16 -9 -40 -12v46h-414v-22q0 -13 -20 -22q-21 -10 -36 -10l4 98v168v0v0zM314 380h414v140h-414v-140v0v0zM436 956
q9 -9 -2 -14q-5 0 -16 -2q-12 -3 -54 -50h316l30 32l66 -52q8 -9 -4 -14q-22 -3 -28 -6q-5 -4 -58 -52q-51 -49 -126 -98q69 -36 132 -54q62 -18 134 -30q70 -10 170 -10v-18q-41 -3 -64 -14q-21 -9 -30 -32q-61 10 -116 26q-55 15 -116 36q-59 20 -148 70q-96 -60 -216 -96
q-117 -36 -258 -60l-4 16q141 36 264 84q122 45 172 84q-103 75 -148 156q-84 -86 -198 -154l-10 12q81 66 148 144q65 76 98 128l66 -32v0v0zM172 274h18q-5 -93 -16 -127q-12 -33 -30 -58q-19 -25 -44 -32q-24 -8 -36 -2q-13 4 -16 20q-3 14 12 28q15 12 34 24
q15 11 36 31q18 22 42 116v0v0v0zM434 338q80 -45 106 -78q24 -31 22 -52q-1 -21 -14 -32q-12 -9 -26 -6q-15 2 -20 28t-16 50q-12 22 -62 80l10 10v0v0zM784 300q87 -48 118 -78q30 -28 42 -52q12 -22 10 -39q-1 -18 -10 -30q-10 -13 -28 -12q-18 0 -26 30q-6 27 -24 65
q-18 39 -90 102l8 14v0v0zM332 218v-87q0 -42 12 -48t40 -6h248q30 0 42 8q9 6 16 18q5 12 8 36q3 19 6 101h22q3 -73 10 -99q5 -28 34 -38q-16 -35 -40 -50q-21 -16 -74 -20h-306q-27 -1 -48 16q-21 15 -20 68v167l80 -32q12 -7 6 -14q-6 -6 -36 -20v0v0z" />
  </g>

</svg>
