<?xml version="1.0" standalone="no"?>
<!DOCTYPE svg PUBLIC "-//W3C//DTD SVG 1.1//EN" "http://www.w3.org/Graphics/SVG/1.1/DTD/svg11.dtd" >
<svg xmlns="http://www.w3.org/2000/svg" xmlns:xlink="http://www.w3.org/1999/xlink" version="1.1" viewBox="0 -36 256 256">
  <g transform="matrix(1 0 0 -1 0 220)">
   <path fill="currentColor"
d="M42 245q17 -13 25 -23t-3 -24h19l13 13l16 -20h-74q-11 -1 -20 -3l-9 10h49q-5 22 -19 45zM38 38h38v45h-38v-45zM69 161l12 11l17 -18h-48q-11 1 -20 -2l-9 9h48zM68 123l12 12l17 -19h-45q-11 1 -20 -2l-9 9h45zM90 49q0 -11 1 -26l-15 -6v14h-38v-13l-16 -8
q1 22 1 44.5t-1 44.5l17 -9h36l8 9l15 -13l-8 -6v-31zM190 236q21 -10 27 -17t1.5 -17.5t-11 2.5t-19.5 29zM117 161q23 -20 25.5 -29.5t-4 -17t-10.5 8.5t-14 35zM192 118q26 28 30 41l15 -18q-12 -2 -43 -28q24 -45 54 -60v-4q-14 2 -19 -11q-42 46 -54 108v-108
q0 -6 -3 -14.5t-18 -15.5q-4 11 -11 14t-18 5v4q20 -2 28 -1.5t8 14.5v60q-41 -40 -54 -56l-13 15q13 4 67 50v63h-36q-10 0 -19 -2l-9 9h64q0 31 -1 63l23 -9l-8 -7v-47h34l16 12l16 -19h-66v-5q0 -16 17 -53z" />
  </g>

</svg>
