<?xml version="1.0" standalone="no"?>
<!DOCTYPE svg PUBLIC "-//W3C//DTD SVG 1.1//EN" "http://www.w3.org/Graphics/SVG/1.1/DTD/svg11.dtd" >
<svg xmlns="http://www.w3.org/2000/svg" xmlns:xlink="http://www.w3.org/1999/xlink" version="1.1" viewBox="0 -205 1024 1024">
  <g transform="matrix(1 0 0 -1 0 819)">
   <path fill="currentColor"
d="M490 856h336l40 48l56 -56q3 -6 6 -8q0 -12 -12 -12h-350q-21 0 -56 -8l-20 36v0v0zM720 510q7 -9 0 -14q-8 -4 -22 -10q-15 -5 -50 -88q-36 -82 -126 -261l350 19q-21 63 -38 100q-18 35 -62 104l14 12q66 -75 96 -116t48 -82q18 -39 18 -75q-1 -35 -16 -46
q-15 -9 -30 -4q-13 4 -16 26q-2 22 -10 58q-196 -23 -272 -34q-75 -11 -114 -40l-40 76q18 3 40 9q20 21 74 162q51 137 78 236l78 -32v0v0zM432 578h454l42 50l56 -56q3 -5 4 -10q0 -12 -12 -12h-468q-21 0 -56 -8l-20 36v0v0zM16 896h370l36 44l52 -52q3 -6 4 -6
q3 -12 -8 -12h-92v-542l114 26l4 -18l-118 -36v-150l4 -97q1 -16 -16 -32q-18 -18 -44 -18l4 126v161q-207 -63 -228 -74q-20 -11 -46 -40l-40 70l96 24v600h-36q-22 -1 -40 -8l-16 34v0v0zM158 278l168 40v158h-168v-198v0v0zM158 502h168v164h-168v-164v0v0zM158 692h168
v178h-168v-178v0v0z" />
  </g>

</svg>
