<?xml version="1.0" standalone="no"?>
<!DOCTYPE svg PUBLIC "-//W3C//DTD SVG 1.1//EN" "http://www.w3.org/Graphics/SVG/1.1/DTD/svg11.dtd" >
<svg xmlns="http://www.w3.org/2000/svg" xmlns:xlink="http://www.w3.org/1999/xlink" version="1.1" viewBox="0 -120 1000 1000">
  <g transform="matrix(1 0 0 -1 0 880)">
   <path fill="currentColor"
d="M666 648l54 -14q20 -5 23 -7q3 -4 3 -7q0 -7 -13 -11l-9 -3v-91h122l30 44l62 -53v-18h-445l-10 27h183v101v32zM756 786q-57 -103 -127 -159l-13 9q28 35 59 92q40 73 72 252l62 -36q18 -10 18 -18t-14 -12l-12 -3q-15 -52 -34 -99h88l31 44l63 -49v-21h-160q6 -5 12 -9
q59 -44 59 -92q0 -16 -11 -26q-10 -10 -25 -10q-25 0 -29 37q-4 39 -28 100h-11zM685 786h-129q64 -58 64 -99q0 -17 -12 -26q-9 -6 -20 -6q-25 0 -31 37q-11 61 -22 94h-8q-37 -97 -105 -160l-15 8q36 57 61 134q20 63 43 202l60 -34q24 -12 24 -22q0 -2 -1 -4
q-8 -7 -28 -7h-2q-13 -47 -27 -91h66l26 40l56 -51v-15zM457 139h260q43 188 59 321l65 -35q20 -11 20 -17q0 -11 -15 -13l-10 -1q-61 -184 -90 -255h103l34 53l81 -62v-18h-499zM555 444q90 -106 90 -212q0 -54 -34 -54q-13 0 -21 9q-8 11 -8 45q-3 109 -42 201zM36 597
q126 156 194 373l72 -39q12 -6 12 -13q0 -11 -16 -11h-21l-2 -4q74 -31 119 -74q31 -30 31 -61q0 -28 -24 -28q-21 0 -38 29q-46 81 -97 111q-11 -19 -27 -48q-49 -85 -97 -142h153l40 47l71 -56v-19h-121v-149h46l42 53l71 -59v-22h-159v-292l144 27l6 -18l-304 -102
l-2 -14q-3 -16 -11 -16q-6 0 -14 11l-47 67l166 33v304h-157l-13 28h170v149h-102q-39 -46 -68 -76zM84 430q89 -101 89 -161q0 -19 -13 -31q-8 -8 -18 -8q-13 0 -20 10q-6 8 -13 57q-11 75 -40 121zM309 240q46 137 65 223l65 -33q13 -6 13 -13q0 -9 -9 -10l-20 -3
l-99 -172z" />
  </g>

</svg>
