<?xml version="1.0" standalone="no"?>
<!DOCTYPE svg PUBLIC "-//W3C//DTD SVG 1.1//EN" "http://www.w3.org/Graphics/SVG/1.1/DTD/svg11.dtd" >
<svg xmlns="http://www.w3.org/2000/svg" xmlns:xlink="http://www.w3.org/1999/xlink" version="1.1" viewBox="0 -36 256 256">
  <g transform="matrix(1 0 0 -1 0 220)">
   <path fill="currentColor"
d="M111 201q19 -7 27.5 -14.5t-8.5 -17.5h83l16 13l18 -20h-168v-34h110l13 13l18 -20h-141l-9 -9l-14 14l8 6v30h-24q-11 0 -21 -2l-9 9h117q-4 15 -19 29zM72 95v-18h121v18h-121zM72 53h121v17h-121v-17zM72 29h121v17h-121v-17zM201 114l16 -15l-9 -5v-81l-15 -4v13
h-121v-9l-16 -5v100l17 -6h119zM126 206h-34q0 -8 1 -24l-16 -5q1 16 1 29h-27q-10 0 -20 -2l-9 9h56q0 20 -1 34l22 -10l-7 -8v-16h8l13 10zM155 207q-10 0 -20 -2l-9 9h33v33l21 -9l-7 -8v-16h31l13 11l15 -18h-59q0 -6 1 -22l-16 -8q1 25 1 30h-4z" />
  </g>

</svg>
