<?xml version="1.0" standalone="no"?>
<!DOCTYPE svg PUBLIC "-//W3C//DTD SVG 1.1//EN" "http://www.w3.org/Graphics/SVG/1.1/DTD/svg11.dtd" >
<svg xmlns="http://www.w3.org/2000/svg" xmlns:xlink="http://www.w3.org/1999/xlink" version="1.1" viewBox="0 -52 256 256">
  <g transform="matrix(1 0 0 -1 0 204)">
   <path fill="currentColor"
d="M92 145l30 1v80h-12q-5 1 -11 -3l-9 8h122l9 11l16 -12q3 -2 2 -3q0 -1 -4 -1h-30v-76l21 1l7 12l17 -12q3 -1 2 -2q0 -1 -5 -1l-42 -2l1 -9q1 -9 -13 -11v3q2 7 2 16l-83 -3q-7 -2 -10 -5zM80 10l-1 4q48 14 76 34q-21 24 -34 66q-12 0 -15 -3l-7 8h99l8 8l16 -13
q2 -1 -1 -3q-7 0 -12 -11q-16 -33 -37 -52q30 -21 74 -25l-1 -4q-14 2 -19 -7q-40 10 -63 29q-30 -21 -83 -31zM10 69l-3 2q11 20 21 41q9 21 14 36q2 6 5 21q2 9 3 14h-20q-6 0 -11 -3l-8 8h44v51q0 6 -7 13l1 2l23 -9q3 -1 1 -3q-5 -2 -7 -5v-49h13l7 10l16 -11q2 -2 2 -3
q-1 -1 -5 -1h-33v-27q5 -3 12 -9q2 -1 3 -2q7 -5 10 -11t2 -12q-1 -7 -5 -7q-5 0 -5 8q-1 8 -7 16q-3 8 -10 12v-109v-23q0 -5 -3 -8q-4 -2 -10 -3q1 4 1 23q1 14 1 23v100q-4 -14 -9 -25q-3 -5 -7 -14q-3 -7 -10 -20q-1 -2 -4 -5q-3 -6 -15 -21zM128 114q14 -37 36 -59
q25 24 37 59h-73zM133 173v-26l62 3v23h-62zM195 226h-62v-23h62v23zM195 199h-62v-22h62v22z" />
  </g>

</svg>
