<?xml version="1.0" standalone="no"?>
<!DOCTYPE svg PUBLIC "-//W3C//DTD SVG 1.1//EN" "http://www.w3.org/Graphics/SVG/1.1/DTD/svg11.dtd" >
<svg xmlns="http://www.w3.org/2000/svg" xmlns:xlink="http://www.w3.org/1999/xlink" version="1.1" viewBox="0 -36 256 256">
  <g transform="matrix(1 0 0 -1 0 220)">
   <path fill="currentColor"
d="M113 144l-3 2q10 19 20 46.5t15 52.5l20 -10l-7 -5q-7 -16 -13 -30h71l11 11l18 -18h-49v-43h16l11 11l17 -18h-44v-44h16l12 13l17 -20h-45v-50h22l12 13l18 -20h-102v-19l-14 -7q1 19 1 48v117q-11 -19 -20 -30zM146 193v-43h37v43h-37zM146 99h37v44h-37v-44zM146 42
h37v50h-37v-50zM177 245q19 -10 25 -17.5t0 -17.5t-10.5 4t-16.5 29zM37.5 180.5q6.5 -6.5 6 -15t-4.5 -12.5t-7.5 9t-17.5 33l2 2q15 -10 21.5 -16.5zM113 209l13 -12q-5 -5 -15.5 -17t-20.5 -24v-19q20 -14 25.5 -19.5t6.5 -13.5t-4 -14t-9.5 9t-18.5 33v-90q0 -11 9 -11
h9q7 0 8.5 10t2.5 30h3q0 -20 1 -29t8 -10q-5 -8 -7.5 -10.5t-10.5 -2.5h-19q-17 0 -17 16q0 199 -1 210l21 -10l-7 -7v-66q15 23 23 47zM31 91q-8 -11 -11 -19l-11 14q19 12 40 43v64q0 24 -1 51l20 -12l-6 -6v-99t-9.5 -63t-42.5 -55l-2 3q21 20 30.5 45.5t10.5 61.5
q-10 -17 -18 -28z" />
  </g>

</svg>
