<?xml version="1.0" standalone="no"?>
<!DOCTYPE svg PUBLIC "-//W3C//DTD SVG 1.1//EN" "http://www.w3.org/Graphics/SVG/1.1/DTD/svg11.dtd" >
<svg xmlns="http://www.w3.org/2000/svg" xmlns:xlink="http://www.w3.org/1999/xlink" version="1.1" viewBox="0 -205 1024 1024">
  <g transform="matrix(1 0 0 -1 0 819)">
   <path fill="currentColor"
d="M346 856h216v120l76 -24l8 -4q6 -3 4 -8q0 -4 -38 -22v-62h100v120l76 -26q8 -1 10 -10q0 -1 -6 -8l-30 -12v-64h138l34 44l56 -52q3 -3 4 -8q0 -10 -12 -10h-220v-90h94l24 36l58 -38q6 -7 6 -10q-1 -6 -28 -24v-174l4 -70q0 -10 -18 -22q-18 -10 -36 -10v40h-400v-16
q0 -13 -20 -22q-18 -10 -36 -10l4 94v258l50 -32h98v90h-132q-21 0 -68 -8l-16 34v0v0zM712 740v90h-100v-90h100v0v0zM466 494h96v94h-96v-94v0v0zM612 588v-94h100v94h-100v0v0zM762 588v-94h104v94h-104v0v0zM466 616h96v96h-96v-96v0v0zM612 712v-96h100v96h-100v0v0z
M762 712v-96h104v96h-104v0v0zM468 412l56 -36h280l28 34l58 -38q6 -4 6 -8q0 -6 -30 -32v-192l4 -73q1 -12 -22 -22q-20 -9 -34 -10v62h-292v-42q0 -11 -18 -20q-17 -9 -40 -10l4 100v287v0v0zM522 123h292v105h-292v-105v0v0zM522 254h292v96h-292v-96v0v0zM126 972
q92 -51 116 -78q22 -28 20 -52q-3 -22 -14 -32q-12 -10 -26 -4q-15 3 -20 30q-6 27 -20 52q-14 24 -64 72l8 12v0v0zM26 760h236l32 38l54 -50q9 -7 10 -14q1 -6 -16 -8q-21 -3 -42 -36q-39 -54 -84 -126v-104l26 -8l80 130l60 -38q6 -10 0 -14q-6 -3 -20 -2q-15 1 -102 -82
q55 -24 74 -44q18 -21 24 -36q4 -15 -4 -30q-7 -15 -22 -18t-24 12q-9 14 -18 32q-6 18 -24 36t-50 40v-288l4 -83q1 -12 -18 -30q-20 -18 -40 -18l4 120v361q-54 -81 -140 -152l-12 12q74 92 110 146q35 51 62 94q27 41 78 134h-168q-24 0 -50 -8l-20 34v0v0z" />
  </g>

</svg>
