<?xml version="1.0" standalone="no"?>
<!DOCTYPE svg PUBLIC "-//W3C//DTD SVG 1.1//EN" "http://www.w3.org/Graphics/SVG/1.1/DTD/svg11.dtd" >
<svg xmlns="http://www.w3.org/2000/svg" xmlns:xlink="http://www.w3.org/1999/xlink" version="1.1" viewBox="0 -205 1024 1024">
  <g transform="matrix(1 0 0 -1 0 819)">
   <path fill="currentColor"
d="M894 946l54 -40q7 -3 8 -12q-1 -3 -28 -24v-76l4 -62q0 -12 -20 -24q-18 -10 -32 -10v24h-408v-104q-1 -220 -26 -322q-24 -103 -66 -165q-40 -63 -92 -112l-12 12q60 78 90 151q29 72 44 174q14 99 14 262v326l56 -38h382l32 40v0v0zM472 882v-136h408v136h-408v0v0z
M496 630h360l32 44l58 -48q10 -7 8 -14q0 -6 -14 -6h-214l-132 -162l270 6q-30 50 -84 98l12 12q89 -51 116 -78q24 -28 28 -52q3 -25 -6 -38q-9 -14 -24 -12q-15 3 -18 18q-4 15 -16 36l-130 -16v-140h88l38 46l56 -50q2 -3 2 -8q1 -12 -10 -12h-174v-143h148l32 51l58 -55
q2 -2 2 -8q1 -12 -10 -12h-468q-21 1 -68 -8l-16 32h274v143h-106q-21 0 -68 -8l-16 32h190v136q-102 -8 -140 -28l-32 58q43 6 56 24q36 45 84 138h-86q-17 0 -64 -8l-16 32v0v0zM246 938q5 -3 8 -6q1 -10 -16 -16q-18 -7 -26 -46q-9 -39 -24 -132h106l30 42l56 -36
q13 -9 12 -12q0 -7 -32 -28q-27 -180 -50 -254q-22 -75 -50 -134q41 -22 62 -46q18 -22 24 -46q5 -24 -4 -38q-10 -15 -26 -12q-16 2 -26 26q-9 20 -18 38q-10 14 -34 44q-39 -68 -96 -136q-58 -67 -116 -109l-10 14q47 48 104 123q57 78 84 132q-33 27 -120 76
q25 114 50 330h-40q-21 0 -48 -6l-16 32h108q15 102 28 232l80 -32v0v0zM222 338q24 60 46 142q21 78 36 232h-120q-28 -190 -58 -322q42 -20 96 -52v0v0z" />
  </g>

</svg>
