<?xml version="1.0" standalone="no"?>
<!DOCTYPE svg PUBLIC "-//W3C//DTD SVG 1.1//EN" "http://www.w3.org/Graphics/SVG/1.1/DTD/svg11.dtd" >
<svg xmlns="http://www.w3.org/2000/svg" xmlns:xlink="http://www.w3.org/1999/xlink" version="1.1" viewBox="0 -205 1024 1024">
  <g transform="matrix(1 0 0 -1 0 819)">
   <path fill="currentColor"
d="M862 706l60 -44q7 -3 8 -12q-1 -2 -34 -28v-112l4 -98q3 -17 -18 -28q-18 -9 -36 -12v58h-324q-6 -85 -24 -158q-16 -72 -58 -132q-42 -59 -134 -129l-8 14q68 68 104 125t54 144t16 270v142l64 -44h108v310q84 -27 84 -32v-6q-1 -3 -34 -18v-96h190l36 50q63 -54 66 -60
q4 -5 2 -10q-1 -3 -10 -6h-284v-130h140l28 42v0v0zM524 636v-178h322v178h-322v0v0zM38 742h186v244l80 -34q21 -7 -2 -20l-28 -12v-178h76l34 54l62 -62q3 -4 4 -8q0 -12 -14 -12h-162v-108q65 -34 94 -56t38 -46q9 -21 0 -42q-9 -19 -26 -16q-15 1 -24 26q-6 25 -24 50
q-19 25 -58 62v-394l4 -107q-1 -15 -22 -30q-18 -11 -36 -14l4 147v380q-28 -76 -82 -164q-54 -86 -110 -142l-12 10q51 72 90 148q36 75 66 150q29 73 46 146h-112q-22 0 -52 -8l-20 36v0v0z" />
  </g>

</svg>
