<?xml version="1.0" standalone="no"?>
<!DOCTYPE svg PUBLIC "-//W3C//DTD SVG 1.1//EN" "http://www.w3.org/Graphics/SVG/1.1/DTD/svg11.dtd" >
<svg xmlns="http://www.w3.org/2000/svg" xmlns:xlink="http://www.w3.org/1999/xlink" version="1.1" viewBox="0 -205 1024 1024">
  <g transform="matrix(1 0 0 -1 0 819)">
   <path fill="currentColor"
d="M882 798l56 -42q12 -8 0 -16l-24 -12v-611q6 -39 -12 -64q-19 -22 -58 -38q-11 31 -28 46q-18 16 -78 38l4 16q50 -10 74 -14q21 -4 36 -2q13 3 14 20v435h-160v-10q-6 -9 -18 -14q-11 -4 -34 -4l4 66v208l52 -38h144l28 36v0v0zM706 736v-68h160v68h-160v0v0zM706 644
v-64h160v64h-160v0v0zM360 738v-66h164v66h-164v0v0zM478 516l52 -36h146l22 28l50 -34q8 -6 8 -12t-26 -24v-262q3 -42 -12 -69q-12 -27 -54 -40q-6 28 -24 40q-16 11 -58 28l4 17q42 -12 60 -13q15 0 28 3q10 3 8 28v82h-162q-5 -65 -34 -115q-27 -51 -92 -108l-12 12
q52 67 74 123q21 56 22 164v188v0v0zM522 276h160v76h-160v-76v0v0v0zM522 376h160v76h-160v-76v0v0zM310 808l54 -46h146l28 36l58 -46q7 -6 -4 -14l-20 -16v-116l4 -56q-12 -18 -24 -24q-11 -6 -28 -8v38h-164v-416l4 -73q-1 -16 -22 -30q-21 -12 -36 -12l4 112v671v0v0z
M360 648v-68h164v68h-164v0v0zM882 864l42 56l68 -66l2 -4q0 -10 -8 -10h-756v-266q4 -237 -30 -354q-34 -116 -136 -211l-14 12q84 108 106 209q21 98 24 260q-76 -54 -100 -98l-50 50l150 76v390l62 -44h640v0v0zM498 978l8 12q44 -12 76 -26q30 -14 42 -34q10 -18 2 -38
q-7 -18 -28 -18q-21 -1 -26 20q-6 19 -20 38q-15 17 -54 46v0v0zM52 764l12 8q47 -49 68 -76q18 -27 22 -54q3 -25 -6 -40q-10 -14 -22 -16q-13 -1 -22 8q-10 9 -10 36q0 25 -6 56q-6 30 -36 78v0v0z" />
  </g>

</svg>
