<?xml version="1.0" standalone="no"?>
<!DOCTYPE svg PUBLIC "-//W3C//DTD SVG 1.1//EN" "http://www.w3.org/Graphics/SVG/1.1/DTD/svg11.dtd" >
<svg xmlns="http://www.w3.org/2000/svg" xmlns:xlink="http://www.w3.org/1999/xlink" version="1.1" viewBox="0 -36 256 256">
  <g transform="matrix(1 0 0 -1 0 220)">
   <path fill="currentColor"
d="M125 183h98l9 9l12 -13l-7 -5v-62q1 -22 -6 -30t-17 -9q3 9 -28 14v4q21 -1 24.5 -1t9 4.5t5.5 25.5v56h-103l-2 -6l-14 10l7 3l5 32l11 -8h86v19h-88q-11 -1 -20 -3l-10 10h117l8 9l13 -12l-6 -5v-10q0 -8 1 -19l-15 -4v8h-87zM205 95l-14 -4v7h-74v-6l-14 -5q1 21 1 41
q0 19 -1 40l15 -5h72l8 6l12 -11l-6 -3q0 -30 1 -60zM118 105h74v51h-74v-51zM126 56q-11 0 -21 -2l-8 9h58q0 15 -1 32l22 -8l-8 -5v-19h41l11 10l17 -17h-69v-29h49l14 9l17 -16h-137q-11 0 -19 -2l-10 9h73v29h-29zM39 244q23 -12 27.5 -20.5t-3 -17.5t-11 5.5
t-16.5 29.5zM49 121q-20 -26 -45 -48l-2 3q24 27 41 54t29 52h-36q-9 0 -18 -2l-9 9h64l8 12l14 -16l-6 -5q-15 -20 -26 -40q26 -11 30 -19t-0.5 -17t-10 4t-20.5 26q0 -99 1 -118l-15 -6q1 41 1 111zM129 124l-2 2q16 14 24 31l14 -8l-9 -6q-16 -13 -27 -19zM174 153
l13 -13l-8 -2q-9 -10 -21 -20t-30 -18l-1 3q17 13 26 22.5t21 27.5zM133 150q28 -14 35 -22.5t2.5 -17.5t-10.5 4.5t-29 33.5z" />
  </g>

</svg>
