<?xml version="1.0" standalone="no"?>
<!DOCTYPE svg PUBLIC "-//W3C//DTD SVG 1.1//EN" "http://www.w3.org/Graphics/SVG/1.1/DTD/svg11.dtd" >
<svg xmlns="http://www.w3.org/2000/svg" xmlns:xlink="http://www.w3.org/1999/xlink" version="1.1" viewBox="0 -36 256 256">
  <g transform="matrix(1 0 0 -1 0 220)">
   <path fill="currentColor"
d="M171 247l21 -9l-7 -6v-19h35l10 11l18 -18h-63q1 -13 3.5 -30t10.5 -36q10 16 14 29t6 21l19 -11l-8 -5q-16 -34 -25 -44q14 -17 26 -22q9 22 11 29l4 -2q-3 -13 -3.5 -24t2.5 -18.5t-6 -4.5t-20 11t-22 21q-20 -19 -55 -32l-2 4q32 16 49 37q-6 14 -11 34t-6 43h-49
q-12 0 -21 -3l-10 10h80q0 13 -1 34zM219.5 233q5.5 -5 0 -12.5t-8.5 0.5t-18 23l2 3q19 -9 24.5 -14zM120 188h25l7 8l13 -10l-6 -6v-27q0 -7 1 -13l-13 -4v6h-27v-7l-13 -4q1 10 1 31t-1 33zM120 149h27v32h-27v-32zM134.5 113.5q-19.5 -7.5 -29.5 -16.5l-10 17
q19 2 37.5 6.5t36.5 10.5l1 -5q-16 -5 -35.5 -12.5zM115 39q-3 -9 -11 -10.5t-10 2t7 13.5t14 34h4q-1 -30 -4 -39zM240 58q7 -9 4.5 -16t-5.5 -9t-7.5 11t-21.5 33l2 3q21 -13 28 -22zM134 88l21 -11l-7 -6v-33q-1 -12 13 -11h30q8 0 10.5 10.5t3.5 26.5h4q0 -11 2 -22.5
t12 -13.5q-11 -13 -29 -13h-39q-22 -2 -20 18q0 42 -1 55zM183 79.5q8 -6.5 8 -12t-4 -12t-9.5 8t-17.5 26.5l2 3q13 -7 21 -13.5zM71 231l-7 -7v-64q18 25 22 40l16 -13q-9 -3 -16.5 -11t-21.5 -23q0 -24 -3 -59q22 -12 30.5 -22t5.5 -20.5t-6 -8.5t-8 14t-23 32
q-11 -54 -49 -80l-2 3q27 32 34.5 63.5t7 73t-0.5 94.5zM30.5 139q-3.5 -9 -9.5 -10.5t-10 2t4.5 12.5t14.5 39h4q0 -34 -3.5 -43z" />
  </g>

</svg>
