<?xml version="1.0" standalone="no"?>
<!DOCTYPE svg PUBLIC "-//W3C//DTD SVG 1.1//EN" "http://www.w3.org/Graphics/SVG/1.1/DTD/svg11.dtd" >
<svg xmlns="http://www.w3.org/2000/svg" xmlns:xlink="http://www.w3.org/1999/xlink" version="1.1" viewBox="0 -205 1024 1024">
  <g transform="matrix(1 0 0 -1 0 819)">
   <path fill="currentColor"
d="M704 878q1 -93 14 -156h154l38 50l62 -62q3 -6 4 -6q0 -7 -8 -8h-244q12 -49 42 -88q29 -39 64 -66q35 -28 56 -34q20 -7 26 -4q5 3 10 30q5 23 14 80h18v-100q0 -34 10 -46q9 -13 10 -22q1 -7 -6 -10q-9 -2 -26 0q-18 3 -56 18q-39 14 -80 44q-40 30 -74 76t-56 122
h-166v-148l130 62l10 -14q-100 -60 -122 -78q-22 -15 -44 -50l-56 44q25 15 32 36v368l64 -40q92 14 158 34q66 17 168 56q53 -46 56 -52q3 -7 -2 -10t-22 0q-16 2 -58 -4q-39 -5 -120 -22v0v0zM668 722q-9 59 -12 146q-58 -6 -146 -18v-128h158v0v0zM488 460l56 -32h246
l28 34l62 -36q6 -4 6 -8q0 -6 -26 -30v-232l4 -79q-1 -17 -16 -28q-15 -9 -38 -12v66h-272v-44q0 -11 -12 -20q-12 -10 -42 -20l4 108v333v0v0zM538 129h272v125h-272v-125v0v0zM538 280h272v122h-272v-122v0v0zM280 946q6 -3 6 -8q0 -6 -20 -14q-19 -8 -26 -58
q-4 -51 -20 -144h86l34 42l50 -38q13 -6 14 -12q0 -6 -30 -26q-12 -142 -26 -226q-13 -84 -46 -164q48 -27 78 -56q29 -30 34 -54q3 -25 -6 -40q-9 -13 -24 -11t-24 27q-10 24 -26 48q-15 22 -50 50q-50 -72 -100 -120q-48 -46 -126 -97l-8 12q65 55 118 113q51 57 84 118
q-45 33 -132 78q29 153 52 330h-56q-22 0 -50 -8l-16 34h126q18 134 28 254l76 -30v0v0zM266 320q30 80 42 172q12 90 18 204h-110q-24 -153 -56 -320q45 -25 106 -56v0v0z" />
  </g>

</svg>
