<?xml version="1.0" standalone="no"?>
<!DOCTYPE svg PUBLIC "-//W3C//DTD SVG 1.1//EN" "http://www.w3.org/Graphics/SVG/1.1/DTD/svg11.dtd" >
<svg xmlns="http://www.w3.org/2000/svg" xmlns:xlink="http://www.w3.org/1999/xlink" version="1.1" viewBox="0 -205 1024 1024">
  <g transform="matrix(1 0 0 -1 0 819)">
   <path fill="currentColor"
d="M32 844h328v136l84 -30q18 -7 0 -16l-32 -14v-76h212v132l82 -30q19 -7 2 -16l-32 -14v-72h196l42 54l70 -64q3 -3 4 -6q1 -10 -12 -10h-300v-26l4 -38q1 -15 -18 -26q-21 -12 -42 -12l4 64v38h-212v-30l4 -44q0 -15 -20 -26q-22 -12 -40 -12l4 84v28h-244q-24 0 -60 -8
l-24 34v0v0zM796 650q-108 -7 -218 -22q4 -123 14 -186h270l44 56l70 -68l2 -6q0 -7 -8 -8h-374q15 -90 58 -152q41 -60 98 -102q53 -39 92 -57q38 -15 56 -10q18 4 24 44q3 37 12 127h20q-1 -97 2 -131q3 -36 6 -54q3 -14 16 -26q12 -8 12 -16q1 -6 -10 -12q-9 -4 -36 -2
q-27 3 -66 14t-80 30q-39 21 -96 68q-58 44 -100 115q-41 70 -58 164h-290v-303l250 99l10 -16q-197 -95 -232 -115q-33 -19 -78 -60l-54 52q30 14 52 46v555l58 -46q159 15 306 36q147 20 240 52l50 -62q3 -9 -8 -12q-24 8 -54 8v0v0zM542 442q-7 60 -14 180
q-156 -12 -272 -18v-162h286v0v0z" />
  </g>

</svg>
