<?xml version="1.0" standalone="no"?>
<!DOCTYPE svg PUBLIC "-//W3C//DTD SVG 1.1//EN" "http://www.w3.org/Graphics/SVG/1.1/DTD/svg11.dtd" >
<svg xmlns="http://www.w3.org/2000/svg" xmlns:xlink="http://www.w3.org/1999/xlink" version="1.1" viewBox="0 -52 256 256">
  <g transform="matrix(1 0 0 -1 0 204)">
   <path fill="currentColor"
d="M140 133l-5 2q19 39 28 89q3 18 2 20q-1 3 -4 6l1 2l23 -6q2 -3 -2 -4t-7 -3q-3 -27 -12 -52h58l9 13l17 -14q3 -2 2 -3t-5 -1h-20q-6 -69 -30 -111q21 -32 54 -49v-4q-8 1 -13 1q-4 0 -7 -5q-25 19 -41 45q-22 -29 -58 -49l-2 4q37 27 53 56q-20 41 -26 93q-2 -3 -5 -10
zM25 92l9 -10h79l10 10l11 -12q2 -2 1 -2q0 -1 -3 -2l-4 -2v-13l1 -28q0 -9 -12 -8v10h-81v-12q1 -9 -12 -11q1 3 1 15q1 10 1 14v39q-1 5 -5 9zM37 163l6 -6h59l10 9l11 -11q2 -1 2 -3q-1 -1 -3 -1l-5 -3v-11l2 -28q0 -8 -12 -8v13h-59v-6q1 -9 -12 -11v9q1 9 1 14v31
q0 6 -4 10zM163 182q-1 -3 -3 -6q9 -55 28 -93q19 35 26 99h-51zM36 77v-37h81v37h-81zM68 256l21 -8q3 -2 -1 -5q-3 1 -7 -1l-3 -4q46 -16 55 -33q6 -9 1 -13q-6 -5 -10 4q-8 18 -48 38q-18 -25 -40 -44h61l5 8l17 -10q2 -2 1 -2q0 -1 -3 -1h-64q-6 0 -11 -3l-8 7
q-14 -11 -31 -20l-2 4q38 27 58 55q2 3 5 8q6 10 6 12q0 1 -1 1q0 2 -2 4zM48 152v-33h59v33h-59z" />
  </g>

</svg>
