<?xml version="1.0" standalone="no"?>
<!DOCTYPE svg PUBLIC "-//W3C//DTD SVG 1.1//EN" "http://www.w3.org/Graphics/SVG/1.1/DTD/svg11.dtd" >
<svg xmlns="http://www.w3.org/2000/svg" xmlns:xlink="http://www.w3.org/1999/xlink" version="1.1" viewBox="0 -52 256 256">
  <g transform="matrix(1 0 0 -1 0 204)">
   <path fill="currentColor"
d="M120 136q2 3 -6 12l2 3l22 -10q4 0 1 -2q-6 -3 -8 -5v-14h75l7 11l16 -13q3 -2 2 -3q0 -1 -4 0h-96v-27h49l7 7l13 -11q2 -1 2 -2t-2 -1q-6 0 -14 -8q-24 -23 -53 -34q40 -16 109 -14v-4q-17 -1 -19 -8q-66 3 -102 21q-48 -21 -113 -24l-1 3q67 11 103 26q-29 15 -51 44
h-8q-5 1 -9 -3l-8 8h86v48zM141 245l11 -10h51l10 10l11 -11q2 -2 1 -3q0 -1 -2 -1l-5 -3v-56l1 -16q1 -9 -11 -10v10h-55v-3q1 -9 -12 -11q2 10 2 19v73q1 3 -5 8zM32 246l11 -11h50l10 10l11 -11q1 -1 1 -2t-3 -2l-4 -3v-56v-16q1 -9 -10 -10v10h-55v-4q1 -9 -11 -11v9
q1 8 1 12v73q1 3 -4 8zM66 83q27 -28 55 -41q32 15 58 41h-113zM98 206h-55v-23h55v23zM153 209h55v22h-55v-22zM208 206h-55v-22h55v22zM43 209h55v22h-55v-22zM208 180h-55v-21h55v21zM98 180h-55v-21h55v21z" />
  </g>

</svg>
