<?xml version="1.0" standalone="no"?>
<!DOCTYPE svg PUBLIC "-//W3C//DTD SVG 1.1//EN" "http://www.w3.org/Graphics/SVG/1.1/DTD/svg11.dtd" >
<svg xmlns="http://www.w3.org/2000/svg" xmlns:xlink="http://www.w3.org/1999/xlink" version="1.1" viewBox="0 -144 1024 1024">
  <g transform="matrix(1 0 0 -1 0 880)">
   <path fill="currentColor"
d="M27 941l65 -32h132l32 27l60 -49l-27 -16l-11 -4v-1l-9 -24l-23 -49l-28 -50l-33 -52l-34 -48l24 -21l23 -25l19 -25l17 -27l13 -27l10 -29l7 -29l4 -30l1 -30l-3 -30l-30 6l-33 6l5 24l2 23l1 25l-2 24l-5 25l-8 25l-9 27l-28 54l-17 29l1 2l-5 3l53 144l16 50l13 48v2
h-128v-822l-65 -32v908zM643 812h173l32 27l59 -48l-26 -22v-129l-53 -26l36 -29l-27 -22v-208l-64 -32v32h-230l29 -21l8 -18h-21l-6 -8l-6 -7h174l8 10l3 -2l23 19l59 -48l-27 -16l-22 -9l-22 -24l-39 -35l-41 -31l47 -18l45 -13l49 -11l52 -7l114 -10l-64 -65l-60 8
l-56 13l-52 15l-48 19l-43 22l-29 19l-52 -26l-52 -21l-55 -18l-58 -14l-61 -9l-64 -5l-1 10l62 15l57 17l54 20l50 21l48 24l30 19l-33 35l-24 35l-10 23l-31 -26l-30 -22l-66 -40l-38 -18l-40 -17l-42 -15l-5 9l106 71l30 23l27 23l25 24l22 23l20 23l16 23l7 11h-90v-37
l-64 -33v334l-23 -11v169l-53 -37l-38 -23l-5 8l85 87l46 52l38 47l15 22l13 21l8 16h-1l6 9l53 -37l9 -17l-21 -1l-17 -21h211l4 4l5 8l2 -2l21 17l59 -48l-27 -16l-39 -16l-24 -16l-24 -14zM704 280h-177l-8 -7l18 -19l29 -27l32 -25l13 -8l18 13l37 32l33 35zM203 382
l63 -12l-3 -14l-5 -12l-6 -12l-8 -11l-10 -9l-11 -8l-13 -6l-13 -4l-13 -2l-14 -1v32l-53 16v16h53l7 1l6 1l4 1l3 1l3 2l2 2l2 3l4 10zM773 435h-353v-58h353v58zM773 510h-353v-54h353v54zM773 585h-353v-54h353v54zM754 651l-23 6l-7 7l-8 7l-10 8l-23 15l-15 9l-51 26
l-1 1l-12 -11l-21 -14l-24 -13l-27 -9l-30 -9l-34 -7l-37 -4l-2 9l34 13l30 14l26 14l21 13l17 14l13 14l8 13l5 12l2 11l-188 1v-151l-22 -11l45 -23h353l32 27l11 -9v167h-169l-2 -14l-10 -22l-9 -13h15l39 -6l34 -7l15 -5l14 -4l14 -6l12 -6l13 -21l-6 -24zM378 812h242
l4 4l8 13l16 23l21 30h-217l-27 -28l-24 -23z" />
  </g>

</svg>
