<?xml version="1.0" standalone="no"?>
<!DOCTYPE svg PUBLIC "-//W3C//DTD SVG 1.1//EN" "http://www.w3.org/Graphics/SVG/1.1/DTD/svg11.dtd" >
<svg xmlns="http://www.w3.org/2000/svg" xmlns:xlink="http://www.w3.org/1999/xlink" version="1.1" viewBox="0 -205 1024 1024">
  <g transform="matrix(1 0 0 -1 0 819)">
   <path fill="currentColor"
d="M332 974l6 12q65 -24 92 -42q27 -17 36 -34q8 -15 2 -32q-7 -18 -26 -20q-18 -2 -24 18q-7 17 -22 38q-13 21 -64 60v0v0zM522 564q10 -11 -10 -16q-16 -4 -40 -20h172l28 24l46 -36q15 -9 4 -18q-35 -4 -82 -40l-30 -26h186l26 34l60 -44q10 -9 -4 -18l-22 -12v-114
l4 -80q0 -13 -20 -22q-18 -9 -32 -8v18h-462v-8q0 -6 -18 -14q-17 -10 -34 -10l2 92v134q-36 -24 -122 -72l-8 14q90 62 166 130q75 68 126 140l64 -28v0v0zM346 212h206v82h-206v-82v0v0zM602 294v-82h206v82h-206v0v0zM346 320h206v86h-206v-86v0v0zM602 406v-86h206v86
h-206v0v0zM370 432h202l62 72h-178q-39 -33 -86 -72v0v0zM270 142h18q-7 -53 -20 -81q-13 -27 -34 -42q-18 -14 -36 -16q-17 -3 -28 6q-13 7 -10 22q0 14 18 18q15 6 30 14q11 6 32 30q21 23 30 49v0v0zM460 160l14 8q36 -46 46 -73q10 -25 8 -48q-1 -24 -14 -36
q-13 -10 -32 -2q-18 7 -12 32q3 25 4 46q0 23 -14 73v0v0zM790 148l8 14q78 -26 118 -49q38 -20 50 -44q10 -23 2 -40q-9 -16 -26 -14q-18 0 -30 24q-12 19 -42 50q-30 28 -80 59v0v0zM626 154l10 10q54 -34 76 -63q20 -26 22 -50q3 -19 -8 -32q-10 -10 -28 -8q-19 1 -22 28
q-3 25 -14 52q-9 27 -36 63v0v0zM590 840q35 53 80 146q69 -31 72 -40q3 -7 -6 -10q-10 -3 -22 -8q-12 -4 -32 -22l-66 -66h198l40 44l56 -50q3 -4 4 -8q0 -12 -12 -12h-374q-16 -36 -34 -78h268l36 40l50 -42q9 -9 12 -14q0 -10 -12 -10h-366q-31 -52 -52 -76h450l36 42
l56 -48q3 -3 4 -8q0 -12 -12 -12h-550q-84 -97 -170 -170q-88 -72 -208 -140l-6 16q118 86 194 154q75 68 132 140h-214q-21 0 -68 -8l-16 34h318q26 36 50 76h-186q-21 0 -68 -8l-16 34h282q20 39 34 78h-284q-21 0 -68 -8l-16 34h486v0v0z" />
  </g>

</svg>
