<?xml version="1.0" standalone="no"?>
<!DOCTYPE svg PUBLIC "-//W3C//DTD SVG 1.1//EN" "http://www.w3.org/Graphics/SVG/1.1/DTD/svg11.dtd" >
<svg xmlns="http://www.w3.org/2000/svg" xmlns:xlink="http://www.w3.org/1999/xlink" version="1.1" viewBox="0 -36 256 256">
  <g transform="matrix(1 0 0 -1 0 220)">
   <path fill="currentColor"
d="M61 215l15 -11h70q-1 8 -5 15.5t-16 18.5l2 3q24 -8 30.5 -17t-4.5 -21h57l14 13l17 -20h-165q0 -42 -0.5 -72t-11.5 -60t-42 -56l-3 4q38 38 43 108q-28 -20 -37 -34l-13 15q17 5 50 24q0 67 -1 90zM44.5 167.5q5.5 -8.5 -2 -17t-10 6.5t-11.5 29l2 3q16 -13 21.5 -21.5
zM81 112l-3 1q37 40 46 81l26 -9l-10 -6q-9 -14 -16 -23h82l10 11l15 -14l-8 -9q-3 -93 -4 -102t-8 -19t-25 -16q-7 15 -39 23v3q33 -3 39.5 -3t10.5 3t6 12.5t5 103.5h-89q-16 -22 -38 -37zM169 71q-6 13 -15 23l3 2q29 -19 32.5 -28t-4 -14.5t-9.5 -1t-5 11.5
q-18 0 -71 -12l-9 17q12 2 26.5 25.5t16.5 36.5l22 -10l-9 -5q-24 -33 -40 -47z" />
  </g>

</svg>
