<?xml version="1.0" standalone="no"?>
<!DOCTYPE svg PUBLIC "-//W3C//DTD SVG 1.1//EN" "http://www.w3.org/Graphics/SVG/1.1/DTD/svg11.dtd" >
<svg xmlns="http://www.w3.org/2000/svg" xmlns:xlink="http://www.w3.org/1999/xlink" version="1.1" viewBox="0 -36 256 256">
  <g transform="matrix(1 0 0 -1 0 220)">
   <path fill="currentColor"
d="M40 238l16 -8h157l14 12l18 -19h-188v-87q0 -33 -8.5 -64t-36.5 -63l-3 2q17 28 24.5 59.5t7.5 60.5v74q0 14 -1 33zM209 84l18 -20h-74v-34h60l14 14l21 -21h-174q-11 -1 -21 -3l-9 10h94v34h-40q-11 0 -21 -2l-10 9h71v119q-26 -3 -76 -4v6q99 7 153 27l12 -20l-12 2
q-27 -5 -62 -9v-121h41zM184 191l20 -10q-4 -1 -13 -13q22 -5 29.5 -10.5t2.5 -14t-10.5 1t-22.5 20.5q-11 -15 -32 -28l-2 3q23 23 28 51zM101 187l19 -7q-5 -4 -14 -16q17 -3 24.5 -9t2 -14.5t-11 1.5t-16.5 19q-13 -19 -37 -29l-2 3q27 19 35 52zM97 137l19 -8
q-4 -3 -12 -15q16 -5 21.5 -11t1 -15t-10 2.5t-14.5 20.5q-14 -18 -38 -31l-2 3q30 27 35 54zM190 138l21 -9q-6 -3 -13 -14q20 -6 27.5 -12t1 -16t-12 3t-18.5 21q-13 -20 -36 -29l-2 3q28 22 32 53z" />
  </g>

</svg>
