<?xml version="1.0" standalone="no"?>
<!DOCTYPE svg PUBLIC "-//W3C//DTD SVG 1.1//EN" "http://www.w3.org/Graphics/SVG/1.1/DTD/svg11.dtd" >
<svg xmlns="http://www.w3.org/2000/svg" xmlns:xlink="http://www.w3.org/1999/xlink" version="1.1" viewBox="0 -36 256 256">
  <g transform="matrix(1 0 0 -1 0 220)">
   <path fill="currentColor"
d="M32 205v-124h23v124h-23zM19 76v107q0 18 -1 38l14 -9h22l8 9l14 -14l-8 -6v-112q0 -17 1 -35l-14 -8v28h-23v-28l-14 -6q1 20 1 36zM110 102h20v23h-20v-23zM110 71h20v24h-20v-24zM110 40h20v24h-20v-24zM125 161q-4 -3 -9 -12t-9 -17h25q3 15 4 34l19 -8l-7 -5
q-6 -12 -10 -21h15l9 10l14 -17h-34v-23h9l9 9l14 -16h-32v-24h9l9 10l14 -17h-32v-24h11l10 10l12 -13q10 15 17 30q-7 17 -10 44.5t-4 56.5h-67zM228 216.5q7 -5.5 5.5 -13.5t-5.5 -10.5t-7.5 8.5t-16.5 27l2 4q15 -10 22 -15.5zM206 65q4 -9 10.5 -17.5t12.5 -12.5l8 39
h4q-1 -20 0 -35.5t4 -23.5t-7.5 -3t-21 15.5t-17.5 24.5q-7 -10 -19 -23.5t-26 -21.5l-2 3q9 9 21 23h-63v-10l-14 -6q1 31 1 98q-11 -18 -28 -33l-2 2q9 12 16.5 25t14.5 29.5t10 29.5h-8q-10 0 -19 -2l-9 9h53v28h-7q-10 0 -20 -2l-9 9h36q0 12 -1 36l20 -10l-7 -6v-20h15
l10 10l13 -17h-38v-28h41q0 38 -1 69l20 -11l-7 -9v-49h31l11 10l16 -17h-58q0 -15 2.5 -42.5t7.5 -41.5q6 13 11 31.5t8 36.5l18 -11l-7 -7q-14 -46 -24 -69z" />
  </g>

</svg>
