<?xml version="1.0" standalone="no"?>
<!DOCTYPE svg PUBLIC "-//W3C//DTD SVG 1.1//EN" "http://www.w3.org/Graphics/SVG/1.1/DTD/svg11.dtd" >
<svg xmlns="http://www.w3.org/2000/svg" xmlns:xlink="http://www.w3.org/1999/xlink" version="1.1" viewBox="0 -205 1024 1024">
  <g transform="matrix(1 0 0 -1 0 819)">
   <path fill="currentColor"
d="M602 970l84 -28q7 -3 8 -6q3 -7 -2 -10l-36 -16v-280h176l30 40l60 -40q8 -6 8 -12q0 -7 -32 -32v-477q-1 -39 -22 -60q-21 -20 -50 -32q-16 45 -46 56q-30 12 -98 32l4 18q94 -15 116 -18q20 -1 34 6q15 7 12 41v450h-434v-440l4 -95q0 -12 -18 -28q-18 -14 -42 -16
l4 139v508l54 -40h186v340v0v0zM374 874l10 12q86 -57 116 -96q27 -37 28 -62q-1 -24 -14 -36q-12 -12 -30 -8q-18 3 -20 34q-3 27 -20 64q-16 34 -70 92v0v0zM706 680q99 135 138 222q69 -49 72 -56q3 -6 -2 -8q-3 -4 -20 -4t-40 -26q-22 -25 -136 -140l-12 12v0v0z
M512 520l42 -30h138l24 30l44 -30q12 -6 12 -14q0 -3 -26 -24v-132l4 -80q1 -13 -16 -22q-15 -9 -36 -12v44h-138v-28q0 -13 -18 -22q-19 -10 -34 -10l4 114v216v0v0zM560 276h138v188h-138v-188v0v0zM176 974l78 -30q5 -4 8 -10q0 -3 -6 -8l-30 -18v-150q62 -24 88 -44
q24 -18 30 -42q4 -24 -6 -38q-9 -16 -24 -14q-16 -1 -22 20t-18 48t-48 48v-572l4 -107q0 -12 -20 -24q-21 -12 -38 -10l4 135v816v0v0zM110 720h20q3 -95 -2 -136q-3 -39 -24 -68q-18 -28 -42 -28t-32 16q-10 15 4 30q12 15 28 30q14 15 28 48q11 30 20 108v0v0z" />
  </g>

</svg>
