<?xml version="1.0" standalone="no"?>
<!DOCTYPE svg PUBLIC "-//W3C//DTD SVG 1.1//EN" "http://www.w3.org/Graphics/SVG/1.1/DTD/svg11.dtd" >
<svg xmlns="http://www.w3.org/2000/svg" xmlns:xlink="http://www.w3.org/1999/xlink" version="1.1" viewBox="0 -143 1024 1024">
  <g transform="matrix(1 0 0 -1 0 881)">
   <path fill="currentColor"
d="M898 735l32 32q46 -50 50 -57t2 -10t-22 -4t-48 -20.5t-76 -60.5l-13 8l72 88h-149v-166q2 -33 -19 -49.5t-45 -20.5q-6 22 -27 36t-79 30l4 16q56 -10 87.5 -13t29.5 17v149h-13q-50 -63 -126 -121t-148 -92l-6 12q72 50 126 101t94 101h-156q-25 0 -46 -8l-27 32h503z
M858 935q54 -54 56 -59t-1 -9t-17 -4t-31 -4t-136 -72q10 -15 2 -29.5t-22 -14.5t-22.5 13t-17 23.5t-26 25t-56.5 37.5l6 12q83 -19 127 -51l104 80h-282q-12 0 -33 -8l-26 34h351zM399 379h250v92l79 -31q7 -5 5 -10t-35 -18v-33h173l34 48l58 -54q5 -3 5 -8
q0 -12 -12 -12h-214q32 -44 65 -81t77 -69t114 -44v-18q-48 0 -61 -8t-27 -28q-36 32 -68 66t-62.5 76.5t-61.5 105.5h-20v-219l4 -69q-3 -15 -23.5 -27.5t-33.5 -10.5l4 112v215q-57 -91 -123 -156t-164 -123l-8 12q80 62 135 122t105 144h-127q-26 2 -51 -8zM112 631h184
l27 36l57 -45q12 -14 -6 -19h-130v-168h63l28 36l62 -42q9 -11 -5 -20h-148v-252l137 97l12 -17q-91 -77 -129.5 -114t-53.5 -68l-57 56q20 12 42 34v264h-71q-32 2 -59 -8l-17 34h147v168h-42l-24 -6zM251 942q8 -4 8 -5q4 -8 -8 -14q-27 -2 -35 -23q-25 -53 -40 -91h126
l31 40l63 -50q6 -12 -1 -16h-228q-71 -175 -134 -258l-12 8q48 104 84 210t72 230z" />
  </g>

</svg>
