<?xml version="1.0" standalone="no"?>
<!DOCTYPE svg PUBLIC "-//W3C//DTD SVG 1.1//EN" "http://www.w3.org/Graphics/SVG/1.1/DTD/svg11.dtd" >
<svg xmlns="http://www.w3.org/2000/svg" xmlns:xlink="http://www.w3.org/1999/xlink" version="1.1" viewBox="0 -205 1024 1024">
  <g transform="matrix(1 0 0 -1 0 819)">
   <path fill="currentColor"
d="M44 892h816l44 58l74 -64q3 -4 4 -10q0 -13 -18 -14h-430v-166h276l38 42l56 -44q9 -4 10 -10q-1 -9 -34 -32v-498q3 -34 -14 -59q-15 -24 -66 -46q-12 42 -42 56q-28 16 -112 41l4 18q101 -21 124 -24q23 -2 38 2q15 3 16 30v498h-296q-2 -78 -10 -116q66 -38 102 -64
t72 -58q35 -33 46 -60q12 -27 6 -44q-4 -18 -16 -26q-10 -10 -26 -4q-14 5 -28 44t-52 88q-39 48 -110 100q-18 -92 -86 -166q-69 -74 -192 -130l-6 16q74 42 158 132q83 87 92 288h-272v-476l4 -103q1 -12 -22 -22q-24 -9 -38 -10l4 139v544l56 -46h268v166h-354
q-18 0 -66 -6l-18 36v0v0z" />
  </g>

</svg>
