<?xml version="1.0" standalone="no"?>
<!DOCTYPE svg PUBLIC "-//W3C//DTD SVG 1.1//EN" "http://www.w3.org/Graphics/SVG/1.1/DTD/svg11.dtd" >
<svg xmlns="http://www.w3.org/2000/svg" xmlns:xlink="http://www.w3.org/1999/xlink" version="1.1" viewBox="0 -205 1024 1024">
  <g transform="matrix(1 0 0 -1 0 819)">
   <path fill="currentColor"
d="M576 940l62 -52q3 -3 4 -6q0 -7 -8 -8h-504v-761h432l36 41l62 -49q3 -6 4 -12q-1 -7 -10 -8h-512l-36 -36l-60 54l36 24v815l60 -40h398l36 38v0v0zM250 816l56 -36h180l28 32l52 -40q6 -3 6 -12q0 -3 -32 -24v-86l4 -64q3 -12 -18 -24q-21 -10 -32 -10v38h-196v-14
q0 -13 -18 -22q-17 -10 -34 -10l4 98v174v0v0zM298 614h196v144h-196v-144v0v0zM188 522l54 -34h70l22 30l50 -32q6 -3 6 -12q0 -3 -26 -20v-160l4 -40q3 -17 -18 -28q-18 -10 -30 -10v42h-86v-34q0 -13 -18 -22q-15 -10 -32 -10l4 74v256v0v0zM234 282h86v184h-86v-184v0v0
zM422 520l54 -34h84l22 30l50 -32q6 -3 6 -12q0 -3 -26 -20v-160l4 -46q3 -9 -18 -20q-18 -10 -30 -10v40h-100v-30q-1 -13 -10 -22q-10 -8 -40 -10l4 62v264v0v0zM468 280h100v184h-100v-184v0v0zM708 820l86 -34q12 -9 0 -18l-36 -12v-366l4 -98q-2 -16 -22 -28
q-21 -12 -36 -12l4 134v434v0v0zM872 956l88 -38q9 -10 -2 -16l-38 -14v-742q3 -67 -20 -95q-24 -27 -62 -36q-16 32 -40 46q-22 16 -110 40l4 20q93 -18 120 -24q27 -5 42 4q18 9 18 36v819v0v0z" />
  </g>

</svg>
