<?xml version="1.0" standalone="no"?>
<!DOCTYPE svg PUBLIC "-//W3C//DTD SVG 1.1//EN" "http://www.w3.org/Graphics/SVG/1.1/DTD/svg11.dtd" >
<svg xmlns="http://www.w3.org/2000/svg" xmlns:xlink="http://www.w3.org/1999/xlink" version="1.1" viewBox="0 -205 1024 1024">
  <g transform="matrix(1 0 0 -1 0 819)">
   <path fill="currentColor"
d="M314 402h118l38 40l50 -48q3 -3 4 -8q2 -10 -10 -10h-200v-50q68 -24 116 -48q45 -24 54 -48q9 -23 0 -40q-9 -16 -26 -14q-17 0 -28 24q-10 24 -34 48q-25 23 -82 56v-154l4 -79q0 -13 -20 -26q-21 -13 -36 -14l4 119v194q-46 -78 -100 -140q-54 -60 -120 -113l-10 10
q54 58 106 131q52 69 92 144h-100q-21 0 -56 -8l-36 34h224v182l70 -28q3 -1 4 -2q9 -6 0 -12l-26 -16v-124v0v0zM344 428q39 64 84 134l50 -36q9 -6 4 -12q-3 -4 -18 -4q-16 1 -106 -88l-14 6v0v0zM122 556q57 -28 78 -46q21 -19 24 -38t-8 -32q-10 -14 -26 -12
q-15 2 -18 28q-3 23 -18 44q-13 18 -40 46l8 10v0v0zM238 978l46 -34q6 -7 6 -10q2 -10 -16 -8q-31 3 -142 -48v-100h62l26 40q50 -51 50 -56q-1 -3 -4 -6t-134 -2v-114h298v114h-70q-24 -1 -38 -10l-24 34h130v104h-68q-21 0 -38 -8l-22 34h120l28 34l56 -40q6 -6 6 -12
t-30 -24v-176l4 -70q-1 -15 -20 -26q-17 -12 -34 -12v32h-300v-14q-1 -16 -16 -22q-12 -6 -36 -6l4 102v264l54 -34q60 34 102 74v0v0zM808 946l52 -38q9 -7 10 -10q0 -3 -38 -30v-172q0 -28 18 -28h40q15 -1 30 8q6 7 12 6q33 -33 36 -32q-3 -12 -18 -18q-16 -6 -44 -6h-70
q-9 -1 -30 8q-18 16 -18 44v208h-146v-74q0 -78 -20 -138q-20 -57 -106 -108l-8 12q62 60 74 114q13 54 12 132v122l52 -36h132l30 36v0v0zM836 570l62 -42q16 -12 -4 -20q-18 -3 -30 -24q-57 -163 -120 -244q51 -59 108 -94q57 -33 136 -45v-18q-36 1 -54 -4
q-19 -7 -40 -32q-48 31 -92 70q-43 37 -88 91q-59 -59 -130 -103q-69 -46 -156 -80l-6 14q78 45 150 98q71 52 116 103q-39 62 -66 124q-26 62 -46 142q-39 -1 -42 -4l-24 30h294l32 38v0v0zM600 508q48 -147 114 -234q57 72 100 234h-214v0v0v0z" />
  </g>

</svg>
