<?xml version="1.0" standalone="no"?>
<!DOCTYPE svg PUBLIC "-//W3C//DTD SVG 1.1//EN" "http://www.w3.org/Graphics/SVG/1.1/DTD/svg11.dtd" >
<svg xmlns="http://www.w3.org/2000/svg" xmlns:xlink="http://www.w3.org/1999/xlink" version="1.1" viewBox="0 -36 256 256">
  <g transform="matrix(1 0 0 -1 0 220)">
   <path fill="currentColor"
d="M61 33.5q7 -0.5 7 12.5v59h-31q0 -29 -4.5 -52.5t-20.5 -43.5l-3 1q10 24 13.5 53.5t3 93t-2.5 76.5l14 -8h30l7 9l13 -11l-7 -6v-172q0 -16 -4 -22.5t-14 -11.5q0 15 -22 22v4q14 -3 21 -3.5zM37 169h31v49h-31v-49zM37 112h31v50h-31v-50zM125 180l8 -6l-6 -5v-39h6
l10 9l12 -16h-28v-66l24 9l1 -4q-18 -9 -35.5 -19.5t-24.5 -17.5l-9 16l11 4q0 91 -1 116l18 -11l-6 -7v-95l11 5v113l-1 20l6 -4l12 32h-17q-10 -1 -19 -3l-9 10h46l8 9l12 -13q-10 -3 -29 -37zM219 160q-3 9 -14 26l2 2q16 -12 24.5 -22t3.5 -20.5t-7.5 -4t-5.5 13.5
q-30 -4 -44.5 -7.5t-19.5 -8.5l-8 19q7 2 16 14.5t16 31.5h-2q-13 1 -24 -2l-9 9h42q0 8 -2.5 15t-10.5 17l3 2q15 -8 21 -15.5t-4 -18.5h23l11 10l14 -17h-58l12 -8q-4 -2 -13 -13t-21 -27q15 1 55 4zM181 127l-6 -5q-2 -42 -5.5 -59.5t-12.5 -31t-23 -23.5l-2 3
q16 18 22 36t7.5 41t0.5 49zM188 76q0 25 -1 59l17 -9l-5 -6v-70q0 -9 1 -26l-13 -10q1 37 1 62zM212 135l18 -10l-6 -5v-84q0 -8 5 -8h2q3 0 4 9t1 30h4q0 -19 1.5 -27.5t5.5 -10.5q-4 -13 -14 -11h-10q-10 0 -10 14v73q0 13 -1 30z" />
  </g>

</svg>
