<?xml version="1.0" standalone="no"?>
<!DOCTYPE svg PUBLIC "-//W3C//DTD SVG 1.1//EN" "http://www.w3.org/Graphics/SVG/1.1/DTD/svg11.dtd" >
<svg xmlns="http://www.w3.org/2000/svg" xmlns:xlink="http://www.w3.org/1999/xlink" version="1.1" viewBox="0 -36 256 256">
  <g transform="matrix(1 0 0 -1 0 220)">
   <path fill="currentColor"
d="M122 246q18 -4 23 -10t-4 -14h71l13 12l18 -19h-199q1 -69 -3 -115.5t-26 -89.5l-5 2q15 48 17 91.5t2 74t-1 52.5l15 -8h90q0 10 -13 21zM154 153l22 -5l-7 -6v-7h38l10 8l10 -15h-58v-7q0 -7 12 -9h41q6 3 7 9.5t1 13.5h4q1 -9 3 -14.5t10 -6.5q-7 -10 -21 -11h-56
q-15 3 -15 16v18q0 8 -1 16zM72 153l21 -5l-6 -5v-7h28l10 9l15 -16h-53v-15l48 12l1 -4q-46 -16 -55 -22l-11 10q3 4 3 12v19q0 3 -1 12zM84 46h117v8h-117v-8zM216 41l-15 -6v4h-117v-2l-15 -5q1 18 1 37.5t-1 33.5l17 -6h114l7 7l15 -10l-7 -5v-24q1 -13 1 -24zM84 80
h117v10h-117v-10zM84 61h117v12h-117v-12zM94.5 21.5q-19.5 -5.5 -59.5 -11.5l-1 4q15 3 38 11t34 15l15 -12q-7 -1 -26.5 -6.5zM212.5 30q18.5 -5 19 -13.5t-2.5 -8t-15.5 7t-50.5 19.5l1 3q30 -3 48.5 -8zM87 215l21 -6l-7 -6v-7h16l9 7l12 -13h-37v-21q0 -5 1 -12l-15 -6
q1 8 1 19v20h-15q-10 0 -15 -2l-7 8h37q0 10 -1 19zM178 205l-1 11l20 -7l-6 -4v-8h19l10 9l13 -15h-42v-21l1 -18l-15 -4l1 22v21h-11q-13 0 -18 -2l-10 8h39v8zM70 155.5q-5 -6.5 -19 -13.5l-2 2q8 7 13 14.5t4 24.5l17 -4l-5 -3q-3 -14 -8 -20.5zM129 180l-5 -5v-9
q-1 -7 7 -8q2 0 4 1t5 -3t1 -5t-15 -1t-13 10v18q0 2 -1 8zM220 180l-5 -5v-10q0 -6 6 -7q6 0 10 1.5t6 -1t2 -5t-2 -3.5t-15 -1q-19 0 -19 10q0 16 -1 24zM159 156.5q-6 -7.5 -19 -13.5l-3 2q9 6 14 16t4 22l17 -4l-4 -4q-3 -11 -9 -18.5z" />
  </g>

</svg>
