<?xml version="1.0" standalone="no"?>
<!DOCTYPE svg PUBLIC "-//W3C//DTD SVG 1.1//EN" "http://www.w3.org/Graphics/SVG/1.1/DTD/svg11.dtd" >
<svg xmlns="http://www.w3.org/2000/svg" xmlns:xlink="http://www.w3.org/1999/xlink" version="1.1" viewBox="0 -36 256 256">
  <g transform="matrix(1 0 0 -1 0 220)">
   <path fill="currentColor"
d="M71 239h105l6 7l14 -10l-7 -5v-16q0 -8 1 -14l-14 -4v2h-105v-3l-13 -2v51zM71 232v-9h105v9h-105zM71 206h105v10h-105v-10zM58 184h128l8 6l14 -9l-7 -6v-27h14l11 10l15 -17h-209q-2 1 -14 -2l-10 9h38q0 20 -1 41zM188 148v29h-35v-29h35zM140 148v29h-32v-29h32z
M95 148v29h-36v-29h36zM138 122h-28v-86q0 -8 11 -9h17h82q10 0 11.5 8t1.5 17h4q0 -9 2.5 -15.5t8.5 -9.5q-6 -10 -27 -10h-100q-24 -1 -25 16v9h-49v-3l-13 -4v60l13 -5h49v12h-37v-1l-14 -4v36l14 -4h130l8 7l14 -9l-6 -5v-19l-14 -5v4h-39v-11h45l8 8l13 -11l-6 -5
q0 -29 1 -40l-14 -4v3h-47v-19h-14v99zM96 122h-37v-13h37v13zM191 122h-39v-13h39v13zM96 83h-49v-14h49v14zM199 84h-47v-13h47v13zM96 62h-49v-13h49v13zM199 64h-47v-15h47v15z" />
  </g>

</svg>
