<?xml version="1.0" standalone="no"?>
<!DOCTYPE svg PUBLIC "-//W3C//DTD SVG 1.1//EN" "http://www.w3.org/Graphics/SVG/1.1/DTD/svg11.dtd" >
<svg xmlns="http://www.w3.org/2000/svg" xmlns:xlink="http://www.w3.org/1999/xlink" version="1.1" viewBox="0 -205 1024 1024">
  <g transform="matrix(1 0 0 -1 0 819)">
   <path fill="currentColor"
d="M556 484h112v114l68 -24q9 -3 10 -6q3 -7 -2 -10l-28 -14v-60h110l28 34l52 -42q6 -4 6 -8t-32 -22v-94l4 -70q3 -12 -14 -20q-16 -7 -38 -8v54h-116v-150l122 10q-27 30 -56 66l8 12q35 -18 80 -54q42 -37 58 -59q13 -23 14 -44q0 -18 -14 -30q-13 -12 -28 -6
q-16 3 -20 30q-3 25 -24 63q-280 -34 -314 -47q-30 -9 -66 -34l-36 72l228 17v154h-112v-24q0 -9 -14 -20q-13 -9 -40 -12l4 100v170l50 -38v0v0zM556 332h112v128h-112v-128v0v0zM716 460v-128h116v128h-116v0v0zM412 532q71 33 134 70q63 36 108 70q-76 60 -130 210h-16
l-20 -4l-14 30h352l28 30l58 -42q10 -7 8 -16q0 -2 -12 -10q-15 -3 -32 -12q-28 -43 -70 -94q-40 -49 -86 -92q42 -27 96 -42q53 -13 94 -20q42 -6 90 -8v-20q-42 0 -60 -12q-15 -11 -24 -28q-58 20 -110 40q-51 20 -116 64q-54 -37 -120 -70t-152 -60l-6 16v0v0zM552 882
q36 -110 130 -184q85 81 146 184h-276v0v0zM622 862l8 8q45 -18 70 -38q25 -19 26 -40q1 -18 -12 -30q-12 -12 -24 -6q-13 4 -16 26q-3 20 -18 40q-13 18 -34 40v0v0zM168 910h202l34 42l56 -52q2 -3 2 -8q0 -9 -8 -8h-138v-126h52l34 46l56 -56q3 -3 4 -8q0 -7 -8 -8h-138
v-118h64l30 42l56 -52q2 -3 2 -8q0 -7 -8 -8h-144v-126h60l24 30l52 -36q13 -13 -6 -22l-16 -14q-4 -113 -10 -184q-7 -72 -16 -97q-9 -27 -26 -46q-18 -18 -56 -40q-7 27 -28 42q-21 16 -90 34l4 17q41 -6 70 -9q30 -3 48 2q18 2 30 19q9 15 16 88q5 70 10 188h-222v-10
q1 -12 -12 -24q-21 -13 -42 -14l4 142v424l58 -42v0v0zM160 462h108v126h-108v-126v0v0zM160 614h108v118h-108v-118v0v0zM268 758v126h-108v-126h108v0v0zM84 370h20q9 -101 4 -142q-7 -42 -22 -54q-15 -14 -30 -12q-14 -1 -22 14q-9 12 6 30q13 15 26 40q12 24 18 124v0v0
zM142 364l12 8q36 -63 46 -96q6 -34 4 -52q-4 -18 -16 -26q-9 -7 -24 -4q-15 4 -14 26q1 21 2 54t-10 90v0v0zM202 380l12 8q49 -57 62 -86q12 -29 10 -46q-3 -18 -14 -26q-10 -7 -22 -2q-12 3 -14 24q0 21 -6 48q-7 28 -28 80v0v0zM268 396l10 10q48 -48 66 -78t16 -50
q-3 -21 -14 -30q-12 -8 -24 0q-9 8 -12 26q-2 18 -10 46q-6 26 -32 76v0v0z" />
  </g>

</svg>
