<?xml version="1.0" standalone="no"?>
<!DOCTYPE svg PUBLIC "-//W3C//DTD SVG 1.1//EN" "http://www.w3.org/Graphics/SVG/1.1/DTD/svg11.dtd" >
<svg xmlns="http://www.w3.org/2000/svg" xmlns:xlink="http://www.w3.org/1999/xlink" version="1.1" viewBox="0 -36 256 256">
  <g transform="matrix(1 0 0 -1 0 220)">
   <path fill="currentColor"
d="M94 225l11 11l14 -18h-78q-14 0 -21 -2l-9 9h83zM45 194v-29h39v29h-39zM32 208l14 -7h37l6 9l13 -10l-6 -7v-36l-12 -4v5h-39v-4l-13 -5v59zM48.5 96q-1.5 11 -7.5 26l2 1q13 -10 15.5 -17t-3 -14t-7 4zM77 125l15 -9l-5 -4q-10 -17 -16 -26h7l9 9l12 -12v46h-69v-111
l-12 -6v133l13 -9h68l6 10l12 -10l-6 -8v-98q0 -11 -16 -18q-2 11 -18 17v4q22 -6 22 3v43h-28v-48l-12 -6v54q-9 0 -18 -2l-10 9h34q9 22 12 39zM198 211q12 -4 17 -7t5 -7t-3.5 -7t-7.5 4t-12 14zM174 100q-4 10 -24 15v3q15 -1 20 -1t5 4v24q-34 -22 -41 -28l-14 12
q11 0 55 21v31h-22q-10 -1 -19 -3l-10 10h51q0 15 -1 24l21 -7l-7 -5v-12h30l10 8l14 -15h-54v-27q21 15 28 25l13 -12q-7 -2 -40 -17q33 -7 40 -12.5t9 -10.5t-1 -10t-13 5t-36 24v-28q0 -13 -14 -18zM139 175q18 -5 24 -10t5 -9t-3.5 -7.5t-9 5.5t-18.5 19zM165 77v-48
l29 11l2 -3q-32 -19 -38 -26l-11 12q5 3 5 11v32q-14 -15 -38 -25l-1 4q20 13 34 29.5t19 29.5l17 -7l-4 -2q10 -16 20 -29q6 4 14.5 11.5t13.5 13.5l12 -13q-12 -3 -37 -16q19 -21 46 -25v-4q-13 -2 -18 -10q-16 10 -26 20.5t-17 23.5t-11 24q-7 -8 -11 -14zM188 237
q4 -4 3 -9t-5.5 -7t-7.5 6t-13 17l1 3q18 -6 22 -10zM152 213q-18 0 -21 -2l-10 9h98l12 10l15 -17h-94z" />
  </g>

</svg>
