<?xml version="1.0" standalone="no"?>
<!DOCTYPE svg PUBLIC "-//W3C//DTD SVG 1.1//EN" "http://www.w3.org/Graphics/SVG/1.1/DTD/svg11.dtd" >
<svg xmlns="http://www.w3.org/2000/svg" xmlns:xlink="http://www.w3.org/1999/xlink" version="1.1" viewBox="0 -36 256 256">
  <g transform="matrix(1 0 0 -1 0 220)">
   <path fill="currentColor"
d="M42 245l21 -11l-7 -8v-19h41q0 17 -1 37l22 -12l-8 -8v-17h8l10 9l13 -16h-31v-84h12l12 11l14 -18h-105v-52q-3 -16 18 -15h43q5 1 8 3t11.5 -5.5t-2.5 -8.5h-77q-14 3 -14 21v57l-15 -3l-8 10h36v84q-10 0 -19 -3l-8 10h27q0 29 -1 38zM78 111q-2 -25 -11.5 -39
t-21.5 -22l-2 3q11 14 16 28t5 30h14zM56 178h41v22h-41v-22zM56 148h41v23h-41v-23zM56 116h41v24h-41v-24zM127 127l-4 2q23 46 36 118l20 -11q-7 -4 -9 -10.5t-11 -33.5h62l10 11l15 -19h-29q-7 -73 -30 -110q27 -36 59 -48v-4q-10 3 -18 -10q-28 21 -48 51
q-29 -38 -74 -55l-1 4q41 24 68 62q-19 42 -24 90q-11 -24 -22 -37zM153 171q10 -52 27 -86q17 37 23 99h-46zM90 111h13v-29q0 -11 8 -11h7q4 0 7.5 2t8 -4t3 -8t-19.5 -2h-10q-17 -1 -17 19v33z" />
  </g>

</svg>
