<?xml version="1.0" standalone="no"?>
<!DOCTYPE svg PUBLIC "-//W3C//DTD SVG 1.1//EN" "http://www.w3.org/Graphics/SVG/1.1/DTD/svg11.dtd" >
<svg xmlns="http://www.w3.org/2000/svg" xmlns:xlink="http://www.w3.org/1999/xlink" version="1.1" viewBox="0 -205 1024 1024">
  <g transform="matrix(1 0 0 -1 0 819)">
   <path fill="currentColor"
d="M744 818q47 62 92 148l68 -38q3 -12 -2 -12q-7 -1 -22 -8q-15 -5 -30 -28q-16 -22 -70 -88q58 -52 86 -88q27 -36 30 -60t-8 -36q-12 -12 -26 -8q-13 2 -26 34q-12 30 -32 60q-19 27 -52 64q-31 -39 -70 -74q-36 -35 -120 -94l-10 12q57 54 90 90t78 94q-81 70 -156 128
l10 12q77 -42 170 -108v0v0zM892 500q-16 -3 -46 -36q-27 -30 -72 -84q78 -75 96 -102q14 -26 20 -46q6 -21 0 -36t-26 -18q-18 -1 -32 32q-12 30 -32 64q-19 31 -52 74q-45 -46 -96 -92q-49 -45 -142 -108l-12 12q61 51 122 112q59 60 98 108q-101 87 -160 132l8 12
q73 -36 176 -114q45 53 108 152q67 -45 68 -50q-1 -6 -4 -8q-4 -1 -22 -4v0v0zM128 960l62 -50h254l34 46l66 -50q6 -6 6 -8q1 -7 -34 -28v-380l4 -106q0 -12 -18 -24q-19 -12 -38 -14v42h-58v-248q0 -34 6 -43q4 -7 32 -8h452q22 3 26 18q3 16 6 33q3 18 6 138h20
q3 -93 12 -126q9 -32 34 -39q-6 -23 -24 -44q-15 -18 -56 -24h-498q-36 0 -50 12q-13 12 -16 56v275h-72q2 -99 -28 -176t-80 -121q-48 -41 -138 -80l-6 16q60 33 106 78q44 44 70 109q26 63 26 174h-52v-26q-4 -12 -26 -20q-19 -7 -32 -8l4 146v480v0v0zM180 414h284v136
h-284v-136v0v0zM180 576h284v138h-284v-138v0v0zM180 740h284v144h-284v-144v0v0z" />
  </g>

</svg>
