<?xml version="1.0" standalone="no"?>
<!DOCTYPE svg PUBLIC "-//W3C//DTD SVG 1.1//EN" "http://www.w3.org/Graphics/SVG/1.1/DTD/svg11.dtd" >
<svg xmlns="http://www.w3.org/2000/svg" xmlns:xlink="http://www.w3.org/1999/xlink" version="1.1" viewBox="0 -36 256 256">
  <g transform="matrix(1 0 0 -1 0 220)">
   <path fill="currentColor"
d="M132 226q10 -8 5 -20.5t-10 1t-21 30.5l2 3q14 -6 24 -14zM93 196q20 -7 25 -16t1 -18.5t-9 3.5t-19 29zM115 142q4 4 36 68l3 -3q-26 -61 -29 -67t-4 -32t-9.5 -18t-3.5 20t1.5 16.5t-16.5 9.5v5q18 -3 22 1zM174 200q-15 -38 -32 -59l-3 4q16 28 23 72l19 -12zM210 216
q17 -11 26 -22.5t3.5 -22.5t-10.5 3.5t-21 38.5zM197 155l1 -20l-15 -9q1 14 1 29v63q0 15 -1 28l23 -11l-9 -6v-74zM231 142q-53 -50 -107 -57v5q68 20 99 71l19 -15zM42 108h34v40h-34v-40zM91 93l-15 -8v16h-34v-13l-14 -7q1 26 1 86t-1 73l15 -7h32l7 8l14 -11l-6 -6
v-75q0 -32 1 -56zM42 195h34v31h-34v-31zM42 155h34v33h-34v-33zM50 78q-3 -28 -8.5 -37t-12.5 -12.5t-14.5 1t6 13t24.5 35.5h5zM108 87q25 -9 33.5 -15.5t7 -14.5t-5.5 -10t-10.5 9.5t-25.5 26.5zM199 82q27 -12 33.5 -17.5t7.5 -13t-3.5 -13t-11.5 8t-28 32.5zM71 74
l25 -8l-10 -6v-22q0 -12 16 -11h60q18 -1 20 10.5t2 24.5h5q2 -16 5 -22.5t11 -10.5q-9 -14 -32 -14h-75q-26 -1 -26 17q0 23 -1 42z" />
  </g>

</svg>
