<?xml version="1.0" standalone="no"?>
<!DOCTYPE svg PUBLIC "-//W3C//DTD SVG 1.1//EN" "http://www.w3.org/Graphics/SVG/1.1/DTD/svg11.dtd" >
<svg xmlns="http://www.w3.org/2000/svg" xmlns:xlink="http://www.w3.org/1999/xlink" version="1.1" viewBox="0 -36 256 256">
  <g transform="matrix(1 0 0 -1 0 220)">
   <path fill="currentColor"
d="M83 105q-15 -1 -26 -4l-13 11h137l18 13l18 -20h-80v-36h66l16 14l19 -21h-101v-39h57l15 12l20 -19h-166q-10 -1 -20 -3l-9 10h88v39h-69q-11 0 -21 -2l-10 9h100v36h-39zM44 243l16 -9h54l11 12l14 -19h-80v-15h50l10 10l13 -17h-73v-14h49l10 10l13 -17h-72v-13h64
l11 10l15 -17h-77l14 -7q-7 0 -39 -28l66 7q-6 7 -17 15l2 3q26 -9 31.5 -16.5t0.5 -14.5t-8.5 -1t-5.5 10q-19 -3 -43.5 -8.5t-31.5 -11.5l-14 17q7 0 20 12.5t19 22.5h-23q-12 0 -19 -2l-11 9h32q0 50 -1 72zM226 228q-9 1 -33 -11t-55 -23l-2 5q24 11 46.5 26.5
t27.5 21.5zM236 191q-4 2 -31.5 -10t-52.5 -18l-2 3q23 10 42.5 22t27.5 22zM244 150q-9 0 -35.5 -9.5t-68.5 -19.5l-1 5q35 11 58.5 23.5t30.5 19.5z" />
  </g>

</svg>
