<?xml version="1.0" standalone="no"?>
<!DOCTYPE svg PUBLIC "-//W3C//DTD SVG 1.1//EN" "http://www.w3.org/Graphics/SVG/1.1/DTD/svg11.dtd" >
<svg xmlns="http://www.w3.org/2000/svg" xmlns:xlink="http://www.w3.org/1999/xlink" version="1.1" viewBox="0 -144 1024 1024">
  <g transform="matrix(1 0 0 -1 0 880)">
   <path fill="currentColor"
d="M913 73l-94 35l-87 38l-79 43l-36 24l-35 25l-32 27l-25 25h-4v-212l-54 -27v213l-16 -14l-36 -27l-39 -25l-42 -23l-44 -21l-47 -19l-50 -17l-53 -15l-55 -12l-58 -10l-3 9l107 41l50 20l45 22l43 22l40 23l37 25l34 26l24 21h-351v21h414v86l54 -10l13 -11l-13 -9v-56
h295l54 54l64 -54v-21h-383l85 -43l78 -35l40 -16l43 -15l89 -27l90 -25zM178 414l-1 8v3l-1 4v6v1v6l-1 2v5v2v6l-1 1v6v2v2l77 1h26l26 1h26l26 1l26 -1l20 -1l1 2v12v17h-188v21h188v43h-183v22h183v43l65 -11l16 -11l-16 -10v-114l-6 -28l-13 -26l-19 -22l-24 -18
l-29 -15l-33 -13l-38 -10l-43 -8l-48 -6l-53 -3l-2 9l51 14l45 14l40 13l33 15l27 15l21 15l13 14l-30 -7l-51 -11l-78 -14l-26 -3l-3 -1l-10 -19l-12 15l-1 4v7zM736 634l53 -48v-22h-188v-43h74l34 38l43 -38v-16l53 -48v-22h-204v-56l-54 -27v277l54 -11l14 -11l-14 -9
v-12h90zM174 468l5 -65l-16 64zM747 500h-146v-43h107zM915 552l-1 -14l-2 -13l-4 -13l-7 -12l-9 -11l-11 -9l-12 -7l-13 -4l-13 -2l-14 -1v32l-64 16v16h64l7 1l4 1l5 1l2 3l2 4l1 5l1 7h64zM83 693l64 -33h704l32 27l59 -48l-27 -22v-65h-64v87h-704v-129l-64 -32v215z
M246 695l-64 -33v206l64 -32h70v77h-285v22h285v74l65 -11l16 -11l-16 -10v-42h236v74l65 -11l16 -11l-16 -10v-42h166l54 54l65 -54v-22h-285v-48l-57 -29h132l32 27l59 -48l-27 -22v-98l-64 -33v33h-511zM373 815h-127v-99h127v99zM565 815h-127v-99h127v99zM757 815h-127
v-99h127v99zM617 913h-236v-48l-57 -29h293v77z" />
  </g>

</svg>
