<?xml version="1.0" standalone="no"?>
<!DOCTYPE svg PUBLIC "-//W3C//DTD SVG 1.1//EN" "http://www.w3.org/Graphics/SVG/1.1/DTD/svg11.dtd" >
<svg xmlns="http://www.w3.org/2000/svg" xmlns:xlink="http://www.w3.org/1999/xlink" version="1.1" viewBox="0 -36 256 256">
  <g transform="matrix(1 0 0 -1 0 220)">
   <path fill="currentColor"
d="M24 118l-11 9h203l14 10l16 -17h-201q-16 0 -21 -2zM62 115l13 -4h111l6 7l15 -10l-7 -5v-18l-13 -4v3h-112v-2l-13 -3v36zM75 104v-13h112v13h-112zM46 74h167l8 9l13 -11l-6 -6v-34q0 -16 -21 -22q0 11 -30 14v5q37 -4 37 3v35h-56l16 -4q-10 -4 -28 -16h34l10 9
l17 -16h-72v-25l-14 -3v28h-34q-11 0 -21 -2l-10 9h47q-6 12 -17 20h-40v-55l-14 -4v73zM93 67q32 -5 15 -20h29q14 14 17 20h-61zM39 179h19l7 6l11 -8l-6 -6q-3 -19 -4.5 -23.5t-5 -9.5t-15.5 -9q-4 12 -20 15v4q11 -1 17 -1.5t8.5 0t4.5 8.5t3 17h-21l-6 -2l-10 10l6 3
q2 14 3 29l11 -7h21v22h-8q-11 0 -21 -2l-10 9h38l7 5l11 -6l-5 -5v-15v-9l3 -6h-15h-21zM192 180h29l5 7l13 -8l-6 -7q-2 -18 -4 -24t-5.5 -10.5t-12.5 -8.5q-3 11 -21 14v4q15 -1 19.5 -1t7 3t4.5 24h-29l-5 -4l-11 9l5 4q6 16 6 26l11 -5h21v22h-7q-11 0 -21 -2l-10 9h37
l5 8l14 -9l-6 -5v-15v-9l4 -6h-16h-21zM113 246l15 -7l-6 -2l-9 -7h49l6 7l12 -10l-6 -3q-1 -20 -4 -28.5t-16 -12.5q-2 7 -19 9l1 4q20 -3 23 1.5t4 25.5h-56l-7 -4l10 -3l-5 -4v-6h12q2 7 2 17l15 -4l-4 -3q-1 -3 -3 -10h15v14l14 -5l-4 -4q0 -3 1 -12l-11 -2v2h-18
q-10 -11 -42 -16l-2 3q25 6 33 13h-10l-5 -3l-9 7l6 4v9l-13 -7l-2 3q21 15 33 34zM117 195l14 -7l-7 -2l-7 -4h43l6 5l11 -7l-5 -5q-1 -22 -3.5 -33t-17.5 -14q-3 9 -20 10v4q22 -3 25 0.5t4 32.5h-52l-9 -4l9 -3l-5 -4v-7h11q1 11 1 18l16 -4l-6 -5q0 -2 -1 -9h16v16
l14 -5l-4 -3q0 -7 1 -16l-11 -3v4h-17q-9 -17 -47 -23l-1 2q27 9 37 21h-9l-5 -3l-10 7l5 4v10l-15 -6l-1 3q24 13 40 30zM39 179h19l7 6l11 -8l-6 -6q-3 -19 -4.5 -23.5t-5 -9.5t-15.5 -9q-4 12 -20 15v4q11 -1 17 -1.5t8.5 0t4.5 8.5t3 17h-21l-6 -2l-10 10l6 3q2 14 3 29
l11 -7h21v22h-8q-11 0 -21 -2l-10 9h38l7 5l11 -6l-5 -5v-15v-9l3 -6h-15h-21z" />
  </g>

</svg>
