<?xml version="1.0" standalone="no"?>
<!DOCTYPE svg PUBLIC "-//W3C//DTD SVG 1.1//EN" "http://www.w3.org/Graphics/SVG/1.1/DTD/svg11.dtd" >
<svg xmlns="http://www.w3.org/2000/svg" xmlns:xlink="http://www.w3.org/1999/xlink" version="1.1" viewBox="0 -36 256 256">
  <g transform="matrix(1 0 0 -1 0 220)">
   <path fill="currentColor"
d="M77 222q25 -11 36 -17.5t8 -19t-12.5 1t-34.5 31.5q-22 -42 -63 -74l-3 3q24 25 42.5 58t18.5 42l21 -12q-6 -1 -13 -13zM110 120q0 -22 1 -35l-14 -8v7h-49v-46l44 17q-4 9 -13 23l3 2q22 -17 28.5 -27t0 -19t-10 0t-6.5 17q-50 -28 -54 -37l-11 16q5 6 5 13v76
q0 24 -1 43l15 -9h49l6 9l15 -15l-8 -6v-21zM48 122h49v24h-49v-24zM48 91h49v24h-49v-24zM176 95q21 43 31 116h-60q7 -75 29 -116zM207 218l10 9l13 -16l-8 -6q-13 -77 -38 -123q29 -43 64 -51v-4q-13 -2 -19 -14q-34 24 -54 57q-33 -42 -75 -62l-2 3q44 30 70 73
q-21 48 -26 127q-4 0 -11 -3l-8 10h84zM83 179l12 12l13 -19h-43q-11 0 -13 -2l-4 9h35z" />
  </g>

</svg>
