<?xml version="1.0" standalone="no"?>
<!DOCTYPE svg PUBLIC "-//W3C//DTD SVG 1.1//EN" "http://www.w3.org/Graphics/SVG/1.1/DTD/svg11.dtd" >
<svg xmlns="http://www.w3.org/2000/svg" xmlns:xlink="http://www.w3.org/1999/xlink" version="1.1" viewBox="0 -200 1000 1000">
  <g transform="matrix(1 0 0 -1 0 800)">
   <path fill="currentColor"
d="M266 974l84 -52q16 -11 6 -15q-21 1 -42 -14q-42 -102 -87 -184v-542l2 -95q2 -36 -52 -45q5 38 7 185v427q-63 -95 -134 -155l-12 7q99 128 173 277q72 142 66 166q-7 18 -17 32zM982 566v-13q-40 3 -52 -5q-12 -7 -23 -21q-118 58 -226 210q-40 55 -74 130
q-65 -124 -143 -209q-89 -95 -213 -168l-8 14q88 65 170 157q83 93 123 169q41 76 37 92q-3 16 -11 26l8 8l79 -41q7 -5 7 -9t-7 -6q-14 3 -29 -7l-1 -2q40 -67 75 -113q83 -103 145 -145q25 -19 57 -38q30 -17 86 -29zM710 369q-16 -92 -87 -192q-64 -87 -188 -147l-7 9
q111 75 162 151q52 74 78 182q20 62 20 190q-4 26 -22 39l5 8l83 -28q5 -4 0 -8q-14 -1 -24 -11q-1 -70 -4 -96q40 -180 106 -288q47 -84 137 -111v-15q-48 5 -59 3q-17 -2 -26 -14q-121 129 -169 355l-3 -15q-1 -8 -2 -12zM433 608l81 -32q4 -2 4 -4t-4 -3q-14 -1 -23 -12
q-2 -69 -18 -139q36 -23 59 -45q42 -40 53 -80q8 -43 -23 -46q-17 0 -24 36q-9 42 -27 65q-13 19 -43 46q-5 -15 -8 -30q-54 -192 -216 -315l-7 8q138 135 183 311q26 90 30 191q-6 27 -22 41z" />
  </g>

</svg>
