<?xml version="1.0" standalone="no"?>
<!DOCTYPE svg PUBLIC "-//W3C//DTD SVG 1.1//EN" "http://www.w3.org/Graphics/SVG/1.1/DTD/svg11.dtd" >
<svg xmlns="http://www.w3.org/2000/svg" xmlns:xlink="http://www.w3.org/1999/xlink" version="1.1" viewBox="0 -36 256 256">
  <g transform="matrix(1 0 0 -1 0 220)">
   <path fill="currentColor"
d="M22 78q14 -29 14.5 -38t-4.5 -14t-10.5 -4t-2 11.5t-1.5 42.5zM53 82q22 -24 22 -32.5t-7.5 -15t-8 5t-9.5 41.5zM77 92q26 -17 28.5 -24t-4 -16t-9 2.5t-18.5 35.5zM58.5 209q-13.5 -20 -28.5 -40l40 2q6 11 11 24l17 -15q-4 0 -25.5 -27.5t-42.5 -46.5l55 6
q-5 13 -13 27l3 2q29 -23 29 -33t-5 -16t-7 0.5t-5 14.5q-30 -6 -43.5 -10.5t-19.5 -10.5l-11 21q5 0 21 16t33 40q-15 -2 -25 -4.5t-20 -8.5l-9 19q8 2 22 24.5t22 50.5l20 -14q-5 -1 -18.5 -21zM162 143q-9 -34 -27.5 -63t-42.5 -48l-3 3q26 28 39.5 57.5t22.5 62.5h-27
q-10 0 -19 -2l-9 9h66v56q-29 -2 -52 -4v5q24 1 58 8.5t43 15.5l15 -20q-18 1 -50 -4v-57h35l14 15l16 -22h-56q8 -32 22.5 -59t37.5 -41v-5q-17 0 -21 -9q-17 24 -27.5 50t-16.5 64h-4q0 -113 1 -137l-16 -11q1 23 1 136z" />
  </g>

</svg>
