<?xml version="1.0" standalone="no"?>
<!DOCTYPE svg PUBLIC "-//W3C//DTD SVG 1.1//EN" "http://www.w3.org/Graphics/SVG/1.1/DTD/svg11.dtd" >
<svg xmlns="http://www.w3.org/2000/svg" xmlns:xlink="http://www.w3.org/1999/xlink" version="1.1" viewBox="0 -120 1000 1000">
  <g transform="matrix(1 0 0 -1 0 880)">
   <path fill="currentColor"
d="M330 554v-417q0 -30 -10 -41q-13 -14 -50 -26q-21 -7 -26 -7q-9 0 -11 23q-2 21 -7 22q-4 5 -21 8l-74 16v14h135v794l70 -4q27 -2 27 -13q0 -9 -20 -20l-13 -7v-341q60 53 138 169q34 51 70 125q33 70 45 115l88 -30q19 -7 19 -16q0 -8 -13 -15l-14 -7q42 -86 111 -160
q72 -73 184 -146l-7 -11q-26 -4 -38 -8q-18 -8 -34 -27q-191 178 -239 348q-47 -98 -129 -196q-87 -102 -172 -164zM369 459l-10 27h410l33 38l59 -41q17 -12 17 -20t-17 -15l-14 -5v-222q0 -41 -52 -62q-26 -10 -37 -10q-17 0 -17 22q-1 14 -3 18q-1 3 -24 8l-62 14v15h135
v233h-176v-388l-61 -8v396h-181zM478 636h174l39 45l70 -52v-19h-273zM100 300v556l69 -6q23 -2 23 -11q0 -8 -16 -16l-12 -7v-508z" />
  </g>

</svg>
