<?xml version="1.0" standalone="no"?>
<!DOCTYPE svg PUBLIC "-//W3C//DTD SVG 1.1//EN" "http://www.w3.org/Graphics/SVG/1.1/DTD/svg11.dtd" >
<svg xmlns="http://www.w3.org/2000/svg" xmlns:xlink="http://www.w3.org/1999/xlink" version="1.1" viewBox="0 -36 256 256">
  <g transform="matrix(1 0 0 -1 0 220)">
   <path fill="currentColor"
d="M182 68h32v88h-32v-88zM227 95q0 -23 1 -46l-14 -6v18h-32v-18l-14 -5q1 25 1 65t-1 67l13 -7h32l8 9l13 -13l-7 -6v-58zM102 188l20 -10l-6 -6v-18h27l8 10l13 -13l-7 -6q-3 -76 -4.5 -84.5t-8 -14.5t-17.5 -9q0 13 -24 20l1 3q23 -3 29 -2t7 14t4 75h-28
q-2 -45 -14 -67.5t-27 -37.5l-3 2q11 15 20 39.5t11 63.5q-8 0 -17 -3l-7 10h24q0 11 -1 34zM158 203h-26q0 -6 1 -16l-15 -5q1 13 1 21h-22q-7 0 -12 -2l-7 9h41v9q0 1 -1 27l20 -8l-6 -7v-21h2l11 10zM243 203h-42v-7q0 -1 1 -13l-15 -4q1 7 1 17v7h-13q-4 0 -8 -2l-8 9
h29v12q0 12 -1 24l20 -9l-6 -6v-21h15l12 10zM36 243q24 -14 29 -23t-1.5 -19.5t-11 6.5t-18.5 33zM39 54q11 25 22 52h-18l-8 -9l-13 12l9 6l22 44h-17l-11 -3l-10 10h39l9 11l13 -16l-10 -5q-6 -10 -22 -43h18l8 8l12 -14l-8 -6q-10 -20 -20 -46q26 -22 84.5 -24t109.5 6
v-4q-18 -5 -22 -17q-92 -2 -121.5 4.5t-58.5 29.5q-19 -21 -26 -37l-12 12q16 17 31 29z" />
  </g>

</svg>
