<?xml version="1.0" standalone="no"?>
<!DOCTYPE svg PUBLIC "-//W3C//DTD SVG 1.1//EN" "http://www.w3.org/Graphics/SVG/1.1/DTD/svg11.dtd" >
<svg xmlns="http://www.w3.org/2000/svg" xmlns:xlink="http://www.w3.org/1999/xlink" version="1.1" viewBox="0 -205 1024 1024">
  <g transform="matrix(1 0 0 -1 0 819)">
   <path fill="currentColor"
d="M334 648h254l30 38l50 -48q3 -3 4 -8q1 -7 -16 -8h-258q-21 0 -44 -8l-20 34v0v0zM168 358l44 -22h602l26 32l52 -30q8 -2 8 -10q0 -6 -26 -24v-215q3 -20 -12 -40q-15 -19 -56 -32q-9 22 -20 34q-12 12 -66 30l4 16q44 -9 68 -12t30 6t4 36v61h-180v-36l4 -65
q2 -18 -16 -30q-18 -11 -38 -10l4 99v42h-164v-55l4 -48q0 -15 -18 -24t-36 -10l4 84v53h-172v-59l2 -68q0 -12 -18 -24q-16 -12 -38 -12l4 110v223v0v0zM218 212h172v100h-172v-100v0v0zM436 312v-100h164v100h-164v0v0zM646 312v-100h180v100h-180v0v0zM180 582l36 -18h96
l24 28q48 -27 48 -36q3 -2 -18 -22v-68l4 -48q0 -12 -14 -24q-13 -9 -34 -12v28h-100v-6q1 -13 -16 -20q-15 -8 -30 -6l4 68v136v0v0zM222 434h100v106h-100v-106v0v0zM426 588l48 -28h92l24 26q45 -31 46 -38q0 -3 -20 -18v-62l4 -50q0 -12 -14 -24q-13 -12 -34 -14v30
h-104v-8q1 -12 -16 -20q-15 -6 -30 -6l4 68v144v0v0zM468 432h104v106h-104v-106v0v0zM680 590l48 -26h94l16 20q51 -26 52 -34q3 -2 -20 -16v-66l4 -50q0 -12 -14 -20q-12 -8 -32 -10v22h-106v-6q1 -13 -16 -20q-15 -8 -30 -6l4 68v144v0v0zM722 434h106v106h-106v-106v0v0
zM578 804v-8q1 -3 -16 -6l-12 -6q57 -40 124 -70q65 -30 146 -48q77 -16 170 -16v-18q-47 -7 -64 -16q-15 -6 -24 -30q-64 15 -124 40q-61 21 -122 58q-60 36 -126 90q-67 -43 -152 -88q-85 -46 -178 -82q-93 -35 -158 -52l-6 12q106 47 170 76t152 80q86 50 152 110l68 -26
v0v0zM342 988l74 -28q7 -4 2 -10q1 0 -28 -20v-40h248v94l74 -28q3 -3 4 -8q-4 -6 -28 -18v-40h186l40 48l60 -62q3 -1 4 -8q-1 -6 -16 -6h-274v-50q0 -12 -12 -20q-9 -6 -18 -8q-7 -3 -20 -2v80h-248v-50q0 -12 -8 -18q-7 -5 -16 -10q-9 -3 -24 -2v80h-202q-22 -1 -70 -10
l-18 38h290v98v0v0z" />
  </g>

</svg>
