<?xml version="1.0" standalone="no"?>
<!DOCTYPE svg PUBLIC "-//W3C//DTD SVG 1.1//EN" "http://www.w3.org/Graphics/SVG/1.1/DTD/svg11.dtd" >
<svg xmlns="http://www.w3.org/2000/svg" xmlns:xlink="http://www.w3.org/1999/xlink" version="1.1" viewBox="0 -205 1024 1024">
  <g transform="matrix(1 0 0 -1 0 819)">
   <path fill="currentColor"
d="M406 824h212v144l74 -30q8 -4 8 -8q2 -6 -4 -8l-26 -14v-84h132l38 48l58 -58q3 -3 4 -6q3 -7 -12 -10h-220v-114h202l38 50l58 -56q3 -4 4 -10q0 -10 -14 -10h-514q-21 0 -62 -8l-22 34h258v114h-128q-22 0 -70 -8l-14 34v0v0zM596 652q54 -15 66 -24t6 -14
q-6 -4 -18 -4q-10 -1 -52 -28q-40 -27 -134 -98l356 4q-42 52 -110 98l8 12q86 -34 134 -70q47 -35 52 -64q5 -28 -4 -40q-9 -14 -24 -12q-14 3 -22 18q-8 16 -22 38q-260 -17 -316 -22q-54 -6 -104 -26l-34 62q23 2 62 16q99 75 156 154v0v0zM396 408l62 -40h368l28 34
l50 -38q12 -8 12 -16q0 -6 -36 -30v-229h32l34 42l50 -50q3 -3 4 -10q4 -7 -10 -8h-616q-21 1 -60 -8l-24 34h106v319v0v0zM446 89h96v253h-96v-253v0v0zM588 89h98v253h-98v-253v0v0zM732 89h98v253h-98v-253v0v0zM120 904l6 14q47 -17 86 -34q38 -18 58 -38q18 -21 22 -42
q2 -19 -10 -34q-11 -16 -28 -14q-18 3 -24 22q-5 20 -16 38q-12 16 -26 32q-13 14 -68 56v0v0zM46 690l6 14q63 -22 94 -40q30 -18 48 -38q15 -21 18 -42q1 -21 -12 -36q-12 -15 -26 -14q-15 0 -20 16q-6 14 -14 38q-10 20 -28 44q-18 23 -66 58v0v0zM210 406
q-18 -54 -44 -60q-25 -7 -100 -2l-2 -20q52 -7 80 -16q27 -9 34 -20q8 -9 10 -38q0 -30 -8 -84q-10 -53 -8 -81q1 -27 20 -36q18 -6 34 2q15 10 18 34q3 25 -6 83q-7 57 -8 94q-1 36 8 66q6 27 12 58l122 416l-20 8l-142 -404v0v0z" />
  </g>

</svg>
