<?xml version="1.0" standalone="no"?>
<!DOCTYPE svg PUBLIC "-//W3C//DTD SVG 1.1//EN" "http://www.w3.org/Graphics/SVG/1.1/DTD/svg11.dtd" >
<svg xmlns="http://www.w3.org/2000/svg" xmlns:xlink="http://www.w3.org/1999/xlink" version="1.1" viewBox="0 -36 256 256">
  <g transform="matrix(1 0 0 -1 0 220)">
   <path fill="currentColor"
d="M67 16l-16 -7q1 46 1 117q-10 -35 -40 -67l-3 3q33 50 41 114h-10q-10 0 -19 -2l-9 9h40q0 27 -1 61l25 -10l-10 -7v-44h8l11 12l19 -19h-38v-27q15 -8 23 -15t2 -19t-10 0t-15 28q0 -107 1 -127zM132 196q13 -5 18.5 -11t0.5 -13.5t-8.5 2.5t-12.5 20zM205 188
q-9 -4 -23 -20l-3 1q10 18 13 28zM160 205l19 -8l-6 -7v-24h16l8 8l13 -15h-37v-5q15 -4 23 -8.5t5.5 -13.5t-9 -0.5t-19.5 18.5v-29l-12 -4v30q-17 -19 -35 -27l-2 3q18 14 34 36h-4q-10 0 -19 -2l-9 9h35q0 26 -1 39zM227 123l-13 -6v90h-94v-89l-13 -4q1 22 1 57.5
t-1 49.5l15 -7h21q9 18 11 31l18 -8q-8 -3 -22 -23h62l7 9l15 -13l-8 -5q0 -73 1 -82zM139 76h69l10 10l14 -13l-9 -6q-5 -24 -11.5 -39t-26.5 -20q-2 14 -32 23v4q33 -7 41 -4t15 38h-70l-8 -8l-12 12q7 4 10 10.5t5 15.5h-14q-10 0 -19 -2l-9 9h129l12 12l16 -19h-101z
" />
  </g>

</svg>
