<?xml version="1.0" standalone="no"?>
<!DOCTYPE svg PUBLIC "-//W3C//DTD SVG 1.1//EN" "http://www.w3.org/Graphics/SVG/1.1/DTD/svg11.dtd" >
<svg xmlns="http://www.w3.org/2000/svg" xmlns:xlink="http://www.w3.org/1999/xlink" version="1.1" viewBox="0 -36 256 256">
  <g transform="matrix(1 0 0 -1 0 220)">
   <path fill="currentColor"
d="M190 228l-8 -4q-20 -45 -44 -76l78 7q-9 22 -19 34l3 2q21 -16 30.5 -30t3 -26.5t-9 -3.5t-5.5 18q-36 -5 -60 -10t-30 -8l-8 19q11 1 26 31.5t22 59.5zM168 127l-7 -8q-1 -48 -17 -72.5t-41 -34.5l-1 3q30 21 39 54.5t6 68.5zM186 145l21 -11l-8 -8v-81q0 -11 8 -13h15
q7 0 7 12.5v30.5h5q0 -12 2 -25t12 -16q-6 -13 -21 -14h-25q-16 0 -16 20v64v41zM71 211v-47h24l12 12l14 -19h-50v-48h19l8 11l15 -13l-8 -8v-59q0 -9 1 -17l-14 -7v20h-52v-16l-14 -6q1 15 1 51.5t-1 52.5l13 -9h19v48h-24q-4 1 -15 -2l-9 9h48v47h-12q-13 0 -20 -3l-8 10
h67l15 11l13 -18h-42zM39 43h52v59h-52v-59z" />
  </g>

</svg>
