<?xml version="1.0" standalone="no"?>
<!DOCTYPE svg PUBLIC "-//W3C//DTD SVG 1.1//EN" "http://www.w3.org/Graphics/SVG/1.1/DTD/svg11.dtd" >
<svg xmlns="http://www.w3.org/2000/svg" xmlns:xlink="http://www.w3.org/1999/xlink" version="1.1" viewBox="0 -36 256 256">
  <g transform="matrix(1 0 0 -1 0 220)">
   <path fill="currentColor"
d="M34 209v-122h32v122h-32zM20 86v105q0 16 -1 34l15 -9h32l6 10l14 -10l-6 -8v-113q0 -12 1 -26l-15 -8v19h-32v-22l-15 -7q1 18 1 35zM179 173q1 14 1 28h-37q0 -12 1 -25l-16 -6q1 16 1 31h-13q-10 0 -19 -2l-9 9h41v15q0 12 -1 22l22 -8l-7 -7v-22h37v15q0 10 -1 21
l22 -8l-7 -8v-20h20l12 10l16 -17h-48q0 -10 1 -21zM177 121q46 -29 55 -40.5t3.5 -22t-15.5 9t-45 50.5zM164 50q0 -20 1 -36l-16 -6q1 19 1 42v64q-31 -41 -77 -66l-1 4q35 27 57 56t29 50h-48q-10 0 -19 -2l-9 9h134l14 12l16 -19h-71q-7 -15 -17 -31l12 -6l-6 -7v-64z
" />
  </g>

</svg>
