<?xml version="1.0" standalone="no"?>
<!DOCTYPE svg PUBLIC "-//W3C//DTD SVG 1.1//EN" "http://www.w3.org/Graphics/SVG/1.1/DTD/svg11.dtd" >
<svg xmlns="http://www.w3.org/2000/svg" xmlns:xlink="http://www.w3.org/1999/xlink" version="1.1" viewBox="0 -36 256 256">
  <g transform="matrix(1 0 0 -1 0 220)">
   <path fill="currentColor"
d="M60 221l15 -10h71q-1 7 -4.5 16t-8.5 15l2 2q15 -9 21.5 -16.5t-3.5 -16.5h56l13 12l17 -19h-164q0 -45 -1 -76t-13 -59.5t-44 -54.5l-2 3q40 38 46 108q-28 -20 -37 -34l-13 15q17 5 50 24q0 67 -1 91zM43.5 172.5q5.5 -8.5 -2 -17t-10 6.5t-11.5 29l2 3
q16 -13 21.5 -21.5zM106 203q19 -10 21.5 -15t-4.5 -11t-9 3.5t-11 20.5zM129 134h11l11 9l13 -16h-59q-10 0 -19 -2l-9 9h46q13 27 12 33h-28q-10 0 -19 -2l-9 9h59l10 9l12 -15h-19l12 -9q-10 -3 -24 -25zM94 164q17 -9 20 -15.5t-3.5 -11.5t-8 3t-11.5 22zM131.5 29
q6.5 0 7.5 5v21h-37v-37l-14 -4q1 14 1 30v53q0 10 -1 23l15 -6h35l8 8l13 -12l-7 -7v-67q1 -18 -16 -24q-3 11 -23 14v4q12 -1 18.5 -1zM102 88h37v19h-37v-19zM225 163l13 -11l-6 -6q0 -14 1 -28l-14 -4v6h-36v-18h31l10 8l13 -15h-54v-14h30l11 8l12 -15h-53v-16h30l11 9
l13 -16h-54v-14q-1 -10 12 -9h27q8 0 9.5 5t1.5 15h4q1 -12 3 -16t7 -6q-5 -9 -17 -10h-45q-15 0 -15 17v77q0 11 -1 24l14 -7h36v21h-36l-7 -6l-12 12l6 5q0 23 -1 42l20 -7l-6 -6v-10h28l12 10l14 -17h-54v-16h35zM102 62h37v19h-37v-19z" />
  </g>

</svg>
