<?xml version="1.0" standalone="no"?>
<!DOCTYPE svg PUBLIC "-//W3C//DTD SVG 1.1//EN" "http://www.w3.org/Graphics/SVG/1.1/DTD/svg11.dtd" >
<svg xmlns="http://www.w3.org/2000/svg" xmlns:xlink="http://www.w3.org/1999/xlink" version="1.1" viewBox="-4 -36 256 256">
  <g transform="matrix(1 0 0 -1 0 220)">
   <path fill="currentColor"
d="M122 246q21 -12 25.5 -19t-2 -14.5t-9.5 3.5t-17 27zM211 232q-15 -17 -26 -26l-5 1q16 23 22 40l17 -13zM221 177l14 -15l-9 -1q-23 -20 -42 -34q14 0 33 1q-2 7 -7 12l3 2q15 -10 18.5 -17.5t-2.5 -13t-8 0t-3 12.5q-32 -6 -39 -12l-9 16q9 2 16.5 8.5t20.5 21.5
q-24 -3 -30 -10l-8 15q7 1 15.5 14t14.5 25h-59l12 -7q-8 -2 -17 -11.5t-20 -19.5l27 -1q6 8 7 13l15 -13l-8 -2q-28 -26 -41 -34q11 0 34 1q-2 7 -6 11l3 2q15 -9 18.5 -15.5t-3.5 -12t-8.5 -1t-2.5 11.5q-32 -5 -41 -12l-9 17q8 1 17 8t21 22q-23 -5 -27 -8l-9 14
q8 0 18.5 13t15.5 24h-15q-10 0 -19 -2l-9 9h125l13 12l15 -19h-44l15 -8q-7 -1 -13.5 -8t-23.5 -24l29 -1zM133 84h-26q-7 0 -17 -3l-9 10h54q4 12 6 24l19 -12q-9 -4 -12 -12h45q2 8 3 16l18 -8q-5 -4 -6 -8h14l13 12l14 -19h-43q-12 -25 -20 -33q28 -7 41 -14t13.5 -19
t-9.5 -4.5t-21.5 13.5t-33.5 13q-40 -25 -92 -31v5q49 10 81 32q-14 4 -47 8q5 9 15 30zM133 60q22 -2 40 -7q12 15 18 31h-46zM73 216l10 10l14 -17h-38q-8 -35 -15 -58h29l9 9l13 -15l-8 -6q0 -75 1 -94l-14 -7v17h-31v-24l-14 -6q1 35 1 96q-12 -26 -31 -48l-3 2
q36 60 48 134h-9q-10 -1 -19 -3l-9 10h66zM43 62h31v82h-31v-82z" />
  </g>

</svg>
