<?xml version="1.0" standalone="no"?>
<!DOCTYPE svg PUBLIC "-//W3C//DTD SVG 1.1//EN" "http://www.w3.org/Graphics/SVG/1.1/DTD/svg11.dtd" >
<svg xmlns="http://www.w3.org/2000/svg" xmlns:xlink="http://www.w3.org/1999/xlink" version="1.1" viewBox="0 -36 256 256">
  <g transform="matrix(1 0 0 -1 0 220)">
   <path fill="currentColor"
d="M81.5 219q7.5 -6 5 -13.5t-5.5 -9t-8 9t-25 26.5l3 2q23 -9 30.5 -15zM211 224q-7 -1 -18 -7t-34 -19l-6 1q35 26 39 39zM143 238l-8 -5q-1 -16 -4 -25q31 -7 48.5 -12t33.5 -10.5t17 -18t-17 0t-83 34.5q-11 -17 -36 -28t-72 -18l-1 4q49 14 70 26.5t25 25t4 34.5z
M226 106q-14 2 -34.5 13.5t-43.5 34.5h-33q-20 -20 -44 -33t-59 -19l-1 5q25 6 46.5 18.5t38.5 28.5h-17q-13 0 -22 -3l-10 10h53q9 11 12 21l20 -10l-7 -3l-7 -8h70l10 11l18 -18h-59q18 -14 42.5 -23.5t46.5 -7.5v-4q-15 -2 -20 -13zM97 80h-14q-13 0 -22 -3l-10 10h49
q4 7 8 17h-35q-13 0 -22 -3l-10 10h69q4 14 5 28l21 -10l-5 -4l-4 -14h47l10 11l18 -18h-77q-5 -11 -8 -17h55l10 11l18 -18h-88q-5 -10 -11 -17h108l10 11l18 -18h-81q34 -19 55.5 -22.5t31.5 -3.5v-4q-15 -2 -21 -14q-23 8 -39.5 17.5t-36.5 26.5h-48q-7 -8 -15.5 -15
t-23.5 -15t-46 -17l-1 4q25 10 41 21t27 22h-31q-13 0 -22 -3l-10 10h68q9 12 12 17z" />
  </g>

</svg>
