<?xml version="1.0" standalone="no"?>
<!DOCTYPE svg PUBLIC "-//W3C//DTD SVG 1.1//EN" "http://www.w3.org/Graphics/SVG/1.1/DTD/svg11.dtd" >
<svg xmlns="http://www.w3.org/2000/svg" xmlns:xlink="http://www.w3.org/1999/xlink" version="1.1" viewBox="0 -205 1024 1024">
  <g transform="matrix(1 0 0 -1 0 819)">
   <path fill="currentColor"
d="M390 944l78 -30q27 -6 10 -18l-36 -22v-787h148v855l84 -38q8 -3 8 -12q0 -3 -6 -6l-34 -16v-154h180l44 54l66 -64q2 -4 2 -10q0 -9 -8 -8h-284v-178h168l36 52l68 -62q5 -6 2 -8q0 -7 -8 -8h-266v-186h174l40 56l66 -66q2 -3 2 -8q0 -7 -8 -8h-274v-185h232l44 57
l66 -61q3 -3 4 -10q1 -12 -16 -12h-850q-21 1 -68 -8l-16 34h352v185h-188q-25 1 -58 -10l-26 36h272v186h-190q-24 0 -62 -6l-22 32h274v178h-230q-29 1 -58 -10l-26 38h314v228v0v0z" />
  </g>

</svg>
