<?xml version="1.0" standalone="no"?>
<!DOCTYPE svg PUBLIC "-//W3C//DTD SVG 1.1//EN" "http://www.w3.org/Graphics/SVG/1.1/DTD/svg11.dtd" >
<svg xmlns="http://www.w3.org/2000/svg" xmlns:xlink="http://www.w3.org/1999/xlink" version="1.1" viewBox="0 -205 1024 1024">
  <g transform="matrix(1 0 0 -1 0 819)">
   <path fill="currentColor"
d="M342 667h194v109h-194v-109zM342 807h194v111h-194v-111zM342 636v-43q-1 -8 -5 -9q-10 -4 -32 -13q-15 -16 -14 -6q2 36 3 61v300q-1 26 -2 45q0 9 4 10q4 3 13 -6q13 -13 31 -26h176q6 0 9 4l18 28q7 8 14 1q29 -19 57 -41q6 -6 5 -12q-3 -6 -13 -7q-12 -2 -18 -12
q-4 -9 -4 -22v-190q0 -32 6 -87q2 -12 -7 -16q-35 -20 -42 -20q-5 1 -5 11v50h-194zM352 131v353q-1 39 -4 70q-1 16 9 13q53 -17 61 -26q14 -9 -2 -16q-5 -8 -9 -18q-7 -13 -7 -23v-349q24 2 50 5v344q-1 39 -4 70q-1 16 9 13q53 -17 71 -26q14 -9 -2 -16q-15 -8 -19 -18
q-7 -13 -7 -23v-338q64 8 126 19q15 3 16 -6q2 -11 -13 -14q-161 -44 -264 -60q-54 -6 -76 -24q-7 -6 -11 6q-9 24 -30 48q-10 10 6 9q22 0 100 7zM696 178q101 119 73 461q-2 16 10 13q54 -17 72 -27q14 -8 1 -14q-4 -1 -7 -4q-23 -13 -23 -95q-1 -161 -23 -237
q76 -50 137 -102q33 -36 36 -60q4 -24 -8 -39q-12 -16 -19 -17q-6 -1 -16 18q-70 124 -137 179q-17 -43 -45 -77q-51 -60 -186 -126q-17 -10 -23 0q-5 11 7 17q42 23 75 46q56 43 76 64zM119 962q4 6 16 -1q59 -31 90 -59q20 -18 23 -36q3 -19 -10 -49q-12 -24 -22 -24
t-13 19q-12 44 -31 75q-19 29 -52 62q-5 7 -1 13zM54 754q4 7 16 1q62 -24 96 -51q22 -15 26 -33q4 -19 -6 -49q-8 -26 -20 -27q-11 -1 -15 18q-15 44 -37 72q-21 27 -57 57q-7 6 -3 12zM275 795q10 -3 6 -15q-31 -129 -84 -321q-24 -87 -28 -145q-11 -114 -1 -201
q2 -29 -8 -41q-9 -9 -28 -5q-22 6 -34 25q-12 20 -3 47q17 50 21 105q3 40 -1 58q-8 14 -24 24q-18 12 -40 13q-12 -1 -13 15q1 16 17 15q50 -9 63 -3q14 8 33 69q39 125 110 350q4 13 14 10zM882 768l25 26q5 7 14 1q31 -23 53 -42q7 -8 -2 -9q-17 -3 -26 -12q-8 -9 -8 -19
v-248q1 -68 8 -167q0 -13 -10 -19q-45 -26 -49 -25q-4 2 -3 18q5 58 6 164v294h-172v-259q-1 -107 0 -182q-1 -15 -38 -40q-8 -4 -12 -4q-6 1 -5 20q4 100 7 206v232q-1 32 -7 78q-2 10 1 11q1 0 40 -31h75q11 82 11 137h-41q-42 -1 -73 -7q-8 -3 -11 6q-4 18 -19 30
q-7 7 -4 11q4 3 11 -1q38 -8 84 -8h135q6 0 12 7l36 41q7 7 14 0q26 -26 44 -48q11 -14 4 -24q-5 -6 -18 -7h-119q-14 -58 -42 -137h60q12 0 19 7zM242 481q6 5 16 -5q87 -131 78 -195q-2 -19 -23 -44q-18 -20 -28 -17q-9 3 -8 22q-4 112 -37 227q-4 8 2 12zM567 479
q9 4 75 -33q13 -6 12 -12q-2 -5 -9 -5q-31 -10 -42 -52q-30 -66 -64 -160q-8 -14 -20 -7q-11 7 -1 23q31 111 45 237q1 8 4 9z" />
  </g>

</svg>
