<?xml version="1.0" standalone="no"?>
<!DOCTYPE svg PUBLIC "-//W3C//DTD SVG 1.1//EN" "http://www.w3.org/Graphics/SVG/1.1/DTD/svg11.dtd" >
<svg xmlns="http://www.w3.org/2000/svg" xmlns:xlink="http://www.w3.org/1999/xlink" version="1.1" viewBox="0 -205 1024 1024">
  <g transform="matrix(1 0 0 -1 0 819)">
   <path fill="currentColor"
d="M176 906h20v-44h674l36 38q65 -55 68 -62q1 -6 -4 -8q-3 -4 -20 -4q-18 -1 -38 -14q-21 -13 -54 -52l-16 10q21 41 36 68h-682q-5 -42 -22 -68q-18 -28 -36 -34q-19 -6 -32 -2q-12 2 -18 16q-6 12 10 24q14 11 32 26q15 12 30 34q12 21 16 72v0v0zM420 980l6 12
q68 -18 94 -30q23 -12 32 -30q9 -17 -2 -34q-9 -16 -26 -14q-18 2 -24 20q-7 16 -20 32q-12 16 -60 44v0v0zM186 758h186v74l70 -22q7 -4 6 -10q0 -3 -6 -6l-22 -8v-28h196v74l70 -26q8 -3 8 -6q0 -7 -6 -10l-22 -8v-24h82l32 40l54 -50q2 -3 2 -8q1 -9 -10 -8h-160v-54h88
l30 32l52 -42q3 -3 4 -8q0 -9 -14 -8h-160v-58h184l40 46l60 -56q3 -3 4 -8q0 -9 -14 -8h-276q32 -37 74 -70q38 -33 104 -62q63 -28 154 -28v-18q-45 0 -62 -14q-16 -13 -26 -28q-82 35 -128 70t-76 64q-27 29 -66 86h-232q-64 -88 -160 -170q-93 -80 -204 -118l-8 12
q102 55 174 122q72 65 142 154h-230q-18 1 -42 -6l-18 32h312v58h-92q-20 1 -46 -6l-18 32h156v54h-126q-18 1 -42 -6l-18 32v0v0zM420 594h196v58h-196v-58v0v0zM616 678v54h-196v-54h196v0v0zM288 284h382l30 34l50 -42l6 -6q0 -10 -12 -10h-396q-21 0 -44 -8l-16 32v0v0z
M280 234l48 -30h374l26 36l58 -38q6 -4 4 -10q0 -3 -26 -20v-53l4 -54q0 -12 -14 -22q-15 -12 -38 -12v50h-388v-26q1 -12 -16 -22q-18 -8 -36 -10l4 106v105v0v0zM328 105h388v77h-388v-77v0v0zM282 364h366l30 32l50 -40l6 -6q0 -10 -12 -10h-380q-21 0 -44 -8l-16 32v0v0
zM300 442h346l28 36l50 -42q3 -3 6 -8q0 -10 -12 -10h-358q-21 0 -44 -8l-16 32v0v0zM460 546q49 -15 68 -30q21 -12 24 -30q4 -16 -6 -28q-12 -12 -24 -8q-12 3 -18 18q-4 14 -14 32q-7 15 -38 36l8 10v0v0z" />
  </g>

</svg>
