<?xml version="1.0" standalone="no"?>
<!DOCTYPE svg PUBLIC "-//W3C//DTD SVG 1.1//EN" "http://www.w3.org/Graphics/SVG/1.1/DTD/svg11.dtd" >
<svg xmlns="http://www.w3.org/2000/svg" xmlns:xlink="http://www.w3.org/1999/xlink" version="1.1" viewBox="0 -205 1024 1024">
  <g transform="matrix(1 0 0 -1 0 819)">
   <path fill="currentColor"
d="M488 622h296l34 48l60 -54q3 -4 4 -10q0 -10 -12 -10h-310q-24 0 -48 -12l-24 38v0v0zM860 450l46 50l58 -56q3 -4 4 -10q1 -7 -16 -8h-184v-274q-1 -32 8 -45q7 -12 20 -12q11 -2 32 -2h60q30 0 40 24q6 22 10 67q2 43 2 80h22q2 -67 8 -100q5 -32 34 -47
q-9 -30 -30 -48q-19 -18 -64 -18h-106q-35 0 -52 8q-15 6 -24 24q-10 16 -10 65v278h-110q4 -97 -16 -176q-18 -79 -78 -141q-60 -59 -174 -104l-6 14q105 63 150 120q46 55 62 125q15 69 10 162h-74q-46 0 -58 -8l-16 32h452v0v0zM882 808l32 40l68 -54q11 -12 -10 -18
q-27 -5 -50 -28q-21 -23 -60 -76l-16 8l44 104h-372q1 -25 -4 -56q-5 -30 -22 -50q-15 -20 -36 -22q-19 -3 -28 16q-10 18 10 36q18 15 34 40q15 27 22 102h18q3 -21 4 -42h366v0v0zM586 982q84 -32 112 -58q28 -25 32 -46q3 -22 -8 -38q-12 -15 -30 -12t-24 28
q-6 23 -24 50q-19 27 -68 64l10 12v0v0zM140 936l56 -46h124l30 38l54 -42q9 -6 10 -12q-1 -6 -34 -24v-694q3 -41 -8 -67q-9 -26 -62 -44q-4 25 -26 40q-22 16 -86 34l6 18q65 -15 86 -18q20 -1 32 6q12 6 10 31v266h-144q-4 -93 -16 -150t-42 -122q-30 -62 -86 -115
l-12 10q49 76 68 131q18 54 30 130q12 73 10 224v406v0v0zM190 448h142v190h-142v-190v0v0v0zM190 664h142v196h-142v-196v0v0z" />
  </g>

</svg>
