<?xml version="1.0" standalone="no"?>
<!DOCTYPE svg PUBLIC "-//W3C//DTD SVG 1.1//EN" "http://www.w3.org/Graphics/SVG/1.1/DTD/svg11.dtd" >
<svg xmlns="http://www.w3.org/2000/svg" xmlns:xlink="http://www.w3.org/1999/xlink" version="1.1" viewBox="0 -205 1024 1024">
  <g transform="matrix(1 0 0 -1 0 819)">
   <path fill="currentColor"
d="M350 396q4 -6 2 -8q-1 -4 -14 -8q-10 0 -20 -12t-28 -36h182l24 28q54 -41 54 -46q0 -4 -2 -10q-27 -9 -48 -30q-18 -21 -66 -74q56 -19 86 -38q30 -16 30 -39t-18 -28q-16 -4 -32 10t-38 28q-21 15 -62 35q-46 -37 -136 -73q-90 -34 -192 -54l-6 16q107 31 176 64
q69 29 118 67q-90 20 -186 38l54 80h-120q-18 0 -42 -8l-18 34h192q18 29 46 80l64 -16v0v0zM232 242q92 -16 158 -28q49 53 74 92h-188l-44 -64v0v0zM128 896l58 -34h124v130l68 -30l8 -4q10 -4 0 -10l-26 -18v-68h128l36 36l44 -36q12 -6 12 -14q1 -6 -28 -24v-70h36
l22 38l40 -40q15 -16 0 -22h-98v-48l4 -36q-1 -15 -16 -26q-15 -9 -38 -12l2 22h-144v-72h134l22 28l44 -28q12 -7 12 -14q1 -7 -22 -22v-58l4 -32q1 -15 -16 -26q-15 -12 -36 -14v30h-338v-10q-1 -10 -10 -16q-12 -12 -42 -12l4 62v142l54 -30h140v72h-134v-10
q-1 -1 -10 -8q-18 -9 -42 -12l4 68v62h-36q-25 0 -46 -8l-18 32h100v142v0v0zM176 654h134v76h-134v-76v0v0zM360 730v-76h144v76h-144v0v0zM164 446h146v90h-146v-90v0v0zM360 536v-90h142v90h-142v0v0zM176 754h134v84h-134v-84v0v0zM360 838v-84h144v84h-144v0v0z
M914 948l62 -50q9 -6 10 -14q1 -1 -10 -8q-22 -7 -50 -52q-40 -85 -94 -218q66 -63 100 -108q32 -46 44 -94q12 -47 6 -82q-7 -33 -32 -62q-23 -30 -88 -62q-13 32 -32 44q-18 12 -78 30l6 20q52 -13 80 -16q27 -1 52 8q21 9 34 42q10 29 2 74q-7 42 -32 84q-23 42 -94 120
l92 272h-170v-696l4 -113q-1 -14 -22 -28t-36 -16l4 147v778l64 -44h144l34 44v0v0z" />
  </g>

</svg>
