<?xml version="1.0" standalone="no"?>
<!DOCTYPE svg PUBLIC "-//W3C//DTD SVG 1.1//EN" "http://www.w3.org/Graphics/SVG/1.1/DTD/svg11.dtd" >
<svg xmlns="http://www.w3.org/2000/svg" xmlns:xlink="http://www.w3.org/1999/xlink" version="1.1" viewBox="0 -36 256 256">
  <g transform="matrix(1 0 0 -1 0 220)">
   <path fill="currentColor"
d="M216 225l11 10l17 -19q-16 -5 -36 -30l-4 1l15 31h-176q0 -20 -10 -27.5t-16 -1.5t3.5 14.5t15.5 37.5h5v-16h175zM21 129l-3 4q44 35 71 76l19 -20l-11 1q-38 -42 -76 -61zM205 181.5q16 -7.5 23 -15.5t2.5 -19.5t-15 4.5t-68.5 47l1 4q41 -13 57 -20.5zM131 110h85
l12 12l16 -19h-101q16 -37 41.5 -55t62.5 -20v-4q-21 -2 -24 -16q-36 13 -57.5 40t-27.5 55h-9q-8 -41 -37 -63.5t-82 -30.5v4q49 12 73.5 36t30.5 54h-73q-10 0 -19 -3l-10 10h103q3 29 2 58l24 -9l-8 -6q-1 -27 -2 -43zM194.5 144q7.5 -8 1 -20.5t-15 4.5t-27.5 33l2 3
q32 -12 39.5 -20z" />
  </g>

</svg>
