<?xml version="1.0" standalone="no"?>
<!DOCTYPE svg PUBLIC "-//W3C//DTD SVG 1.1//EN" "http://www.w3.org/Graphics/SVG/1.1/DTD/svg11.dtd" >
<svg xmlns="http://www.w3.org/2000/svg" xmlns:xlink="http://www.w3.org/1999/xlink" version="1.1" viewBox="0 -205 1024 1024">
  <g transform="matrix(1 0 0 -1 0 819)">
   <path fill="currentColor"
d="M412 982l52 -40h120l22 30l48 -32q6 -6 6 -8q0 -6 -24 -24v-274l4 -52q-1 -12 -16 -24q-16 -12 -34 -14v26h-132v-8q-1 -12 -16 -18q-16 -7 -34 -10l4 88v360v0v0zM458 594h132v92h-132v-92v0v0zM458 710h132v98h-132v-98v0v0zM458 832h132v86h-132v-86v0v0zM716 978
l52 -40h124l22 30l48 -32q6 -6 6 -8q0 -6 -24 -24v-286l4 -52q-1 -13 -16 -22q-16 -9 -34 -12v34h-136v-8q-1 -7 -16 -14q-16 -7 -34 -10l4 84v360v0v0zM762 590h136v92h-136v-92v0v0zM762 706h136v98h-136v-98v0v0zM762 828h136v86h-136v-86v0v0zM608 390q-9 -2 -30 -34
h348l24 34l54 -38q3 -4 6 -10q0 -12 -12 -12h-182q-35 -84 -94 -138q96 -31 132 -47q35 -17 62 -38q24 -20 22 -44q-3 -21 -24 -24q-18 -3 -42 20q-24 22 -68 50q-45 28 -114 53q-57 -37 -164 -71q-105 -30 -242 -42l-2 16q148 31 230 58q81 27 132 61q-87 30 -176 64
q24 45 46 82h-102q-21 0 -48 -8l-16 34h176q20 38 44 86l50 -28q14 -7 8 -14q-6 -5 -18 -10v0v0zM518 256q114 -36 156 -48q45 46 82 122h-192l-46 -74v0v0zM506 500l2 -6q2 -4 -10 -8q-12 -3 -18 -6q-7 -2 -40 -34q-33 -30 -84 -74l-10 12q48 54 114 148l46 -32v0v0z
M538 542q35 -13 68 -28q29 -13 44 -32t10 -34t-22 -20q-15 -3 -26 18q-12 21 -32 42q-19 20 -50 44l8 10v0v0zM816 502q10 -9 -4 -12q-15 -4 -20 -8q-6 -3 -38 -30q-31 -24 -98 -78l-12 12q57 54 130 148l42 -32v0v0zM848 530q39 -22 70 -40q27 -18 40 -38q12 -18 6 -36
q-7 -16 -26 -16q-18 -1 -24 20q-6 20 -24 44q-15 22 -50 56l8 10v0v0zM118 982q90 -51 114 -78q22 -28 20 -52q-3 -22 -14 -32q-9 -10 -24 -4q-15 3 -20 30q-6 27 -20 52q-14 24 -64 72l8 12v0v0zM22 770h232l32 38l52 -48q9 -7 10 -14q1 -6 -16 -8q-21 -3 -42 -36
q-37 -57 -82 -134v-98l16 -8l74 126l58 -38q6 -10 0 -14q-6 -3 -20 -2t-94 -78q48 -27 66 -44q17 -15 22 -36q6 -18 0 -32q-7 -14 -22 -16q-15 -1 -24 14q-6 12 -12 30q-6 17 -24 38q-19 20 -40 38v-288l4 -83q1 -12 -18 -30q-21 -18 -38 -18l4 120v351q-60 -80 -132 -142
l-12 12q63 78 102 136q39 55 64 98q23 41 74 140h-164q-24 0 -50 -8l-20 34v0v0z" />
  </g>

</svg>
