<?xml version="1.0" standalone="no"?>
<!DOCTYPE svg PUBLIC "-//W3C//DTD SVG 1.1//EN" "http://www.w3.org/Graphics/SVG/1.1/DTD/svg11.dtd" >
<svg xmlns="http://www.w3.org/2000/svg" xmlns:xlink="http://www.w3.org/1999/xlink" version="1.1" viewBox="0 -36 256 256">
  <g transform="matrix(1 0 0 -1 0 220)">
   <path fill="currentColor"
d="M66 13l-16 -7q1 46 1 118q-13 -35 -41 -68l-3 3q31 50 42 116h-18l-11 -3l-10 10h41q0 29 -1 63l25 -10l-10 -7v-46h10l10 11l18 -18h-38v-28q20 -11 29 -19.5t3.5 -20.5t-12 3t-20.5 31q0 -108 1 -128zM107 216l13 -9h36q0 18 -1 38l22 -10l-8 -6v-22h33l7 9l15 -13
l-8 -7v-41h2l10 11l18 -18h-69q16 -17 32.5 -27t37.5 -13v-4q-14 -6 -14 -13q-21 10 -37.5 25.5t-25.5 31.5h-7q-21 -41 -85 -60l-1 4q50 20 71 56h-36q-13 0 -22 -3l-10 10h28q0 38 -1 61zM156 200h-36v-45h31q4 17 5 45zM165 155h38v45h-34q-1 -26 -4 -45zM124 87v-63h17
v63h-17zM154 24h19v63h-19v-63zM186 24h18v63h-18v-63zM111 62q0 22 -1 39l14 -7h79l7 8l16 -13l-9 -6v-60l14 14l17 -20h-138q-13 0 -22 -3l-10 10h33v38z" />
  </g>

</svg>
