<?xml version="1.0" standalone="no"?>
<!DOCTYPE svg PUBLIC "-//W3C//DTD SVG 1.1//EN" "http://www.w3.org/Graphics/SVG/1.1/DTD/svg11.dtd" >
<svg xmlns="http://www.w3.org/2000/svg" xmlns:xlink="http://www.w3.org/1999/xlink" version="1.1" viewBox="0 -36 256 256">
  <g transform="matrix(1 0 0 -1 0 220)">
   <path fill="currentColor"
d="M90 227q-9 -2 -28 -23.5t-44 -39.5l-3 3q12 11 28.5 32t26.5 43zM103 177l-9 -4q-13 -16 -24 -28v-129l-15 -7q1 25 1 42v78q-20 -20 -43 -35l-2 4q21 20 43 47t30 47zM218 23h-84q-19 0 -28.5 8t-7 26.5t32 60t61.5 88.5h-62q-12 0 -21 -2l-9 9h93l10 12l18 -16l-11 -5
q-37 -50 -68.5 -94.5t-29 -59.5t34.5 -15h64q11 2 12 10t3 55h5q1 -18 2.5 -37t12.5 -24q-7 -15 -28 -16z" />
  </g>

</svg>
