<?xml version="1.0" standalone="no"?>
<!DOCTYPE svg PUBLIC "-//W3C//DTD SVG 1.1//EN" "http://www.w3.org/Graphics/SVG/1.1/DTD/svg11.dtd" >
<svg xmlns="http://www.w3.org/2000/svg" xmlns:xlink="http://www.w3.org/1999/xlink" version="1.1" viewBox="0 -205 1024 1024">
  <g transform="matrix(1 0 0 -1 0 819)">
   <path fill="currentColor"
d="M418 838l54 -38h144v188l92 -32q3 -4 4 -8q0 -3 -6 -8l-38 -14q-1 -81 2 -126h154l36 40l56 -46q6 -4 6 -8q0 -6 -32 -32v-232l4 -92q1 -9 -16 -24q-16 -13 -40 -16v38h-160q10 -84 38 -152q69 48 114 96q64 -31 68 -40q2 -7 -4 -10t-24 -6q-18 -1 -38 -14
q-21 -13 -96 -64q38 -55 88 -89q47 -32 68 -38q20 -4 28 4q5 7 14 39q8 34 26 110l18 -2q-16 -122 -14 -145q2 -24 10 -36q9 -11 12 -20q4 -6 0 -12q-6 -3 -26 -6q-19 0 -62 12q-42 9 -96 48q-54 38 -108 109q-78 -43 -156 -71q-77 -30 -202 -64l-4 18q119 45 188 75
q68 30 154 78q-34 78 -46 180h-160v-28q0 -15 -18 -30t-36 -14l4 144v338v0v0zM670 600q-2 -78 6 -144h162v144h-168v0v0zM668 772v-144h170v144h-170v0v0zM468 456h156q-6 60 -6 144h-150v-144v0v0zM468 628h148v144h-148v-144v0v0zM400 900q7 -3 2 -12q-1 -3 -16 -2
q-15 -9 -42 -32q-27 -22 -90 -88q60 -93 78 -182q18 -90 18 -152q3 -61 -2 -136q-3 -76 -18 -124q-15 -46 -42 -73t-78 -52q-10 28 -32 44q-19 12 -88 36l4 16q93 -24 132 -16q39 9 54 51q14 41 20 104q6 60 4 136q0 74 -18 176q-99 -180 -252 -324l-12 10q123 136 246 374
q-4 22 -38 86q-104 -91 -196 -152l-10 12q77 64 184 170q-51 72 -132 138l12 12q93 -66 142 -126q78 87 108 154l62 -48v0v0z" />
  </g>

</svg>
