<?xml version="1.0" standalone="no"?>
<!DOCTYPE svg PUBLIC "-//W3C//DTD SVG 1.1//EN" "http://www.w3.org/Graphics/SVG/1.1/DTD/svg11.dtd" >
<svg xmlns="http://www.w3.org/2000/svg" xmlns:xlink="http://www.w3.org/1999/xlink" version="1.1" viewBox="0 -36 256 256">
  <g transform="matrix(1 0 0 -1 0 220)">
   <path fill="currentColor"
d="M40 244q16 -12 24 -22.5t-3 -23.5h18l12 12l18 -19h-70q-10 0 -19 -2l-10 9h45q-4 21 -17 44zM37 41h36v43h-36v-43zM64 162l13 10l16 -17h-45q-10 1 -19 -2l-7 9h42zM64 125l12 11l16 -18h-42q-11 1 -19 -2l-7 9h40zM86 51q0 -11 1 -26l-14 -6v15h-36v-13l-14 -7
q1 21 1 43t-1 44l15 -10h34l7 10l13 -13l-6 -6v-31zM173 110q30 -31 75 -37v-4q-15 -1 -18 -12q-42 19 -59 49q-24 -36 -83 -52l-1 3q36 16 56 36t21 41h-33v-2l-15 -5q1 11 1 23.5t-1 25.5l15 -6h33v18h-16v-4l-14 -5q1 14 1 34h-11q-9 0 -19 -2l-11 9h41q0 15 -1 27l21 -8
l-7 -7v-12h43q0 12 -1 27l22 -9l-7 -6v-12h15l12 10l16 -17h-43q0 -17 1 -26l-15 -6v7h-13v-18h32l9 9l12 -13l-7 -5q0 -15 1 -28l-14 -5v6h-33q-2 -18 -5 -24zM148 195h43v18h-43v-18zM131 141h33v22h-33v-22zM178 141h33v22h-33v-22zM144 113l-7 -2q-27 -20 -40 -23l-2 2
q28 21 36 36zM196 122q14 -3 27.5 -8t15 -10.5t-0.5 -13t-11.5 3.5t-31.5 25zM138 51q-10 -1 -19 -3l-9 10h48q0 14 -1 30l21 -8l-6 -5v-17h21l11 8l16 -15h-48v-29h44l12 11l18 -18h-127q-10 0 -19 -2l-10 9h68v29h-20z" />
  </g>

</svg>
