<?xml version="1.0" standalone="no"?>
<!DOCTYPE svg PUBLIC "-//W3C//DTD SVG 1.1//EN" "http://www.w3.org/Graphics/SVG/1.1/DTD/svg11.dtd" >
<svg xmlns="http://www.w3.org/2000/svg" xmlns:xlink="http://www.w3.org/1999/xlink" version="1.1" viewBox="0 0 2048 2048">
  <g transform="matrix(1 0 0 -1 0 2048)">
   <path fill="currentColor"
d="M1178 641h449l72 76l76 -60q25 -21 35 -33q10 -13 7 -28q-3 -10 -15 -20t-27 -15l-45 -16l-74 -91q-39 -46 -90 -96t-113 -90l-17 -11l28 -12q13 -5 62 -21q48 -16 114 -33q67 -17 106 -23q39 -7 161 -22l62 -8l-1 -41q-27 -1 -48 -3q-21 -3 -48 -18q-28 -14 -36 -36
l-7 -16q-41 9 -84 20t-133 40q-90 30 -146 52q-55 22 -104 46l-30 14l-24 -12q-11 -5 -56 -23q-44 -18 -158 -55q-113 -37 -185 -50q-72 -14 -153 -23l-94 -11l-7 47q44 8 103 20q58 12 128 30t174 55q105 37 166 68l10 5q-13 8 -19 12l-52 32q-33 20 -69 48q-37 28 -65 57
t-38 41l-15 16l-14 -11q-8 -5 -58 -36q-51 -30 -59 -33l-68 -29l-24 32l49 32q22 15 57 42l62 49l11 9q-12 15 -22 28l-20 31l-32 48l36 31l43 -48q18 -20 33 -34l9 -9l15 15q9 10 44 58q35 47 55 84q20 36 32 68l5 13h-197v-15q0 -17 -19.5 -31t-41.5 -11q-18 1 -26 11
t-8 23l-1 736l124 -71h738l63 73l75 -49q15 -11 28 -23t15 -23t-8 -23q-5 -6 -31 -19l-27 -13v-554l1 -22q-3 -15 -18 -22q-15 -6 -47 -6q-22 -1 -26 2q-5 3 -8 6q-2 4 -2 8v23h-479l42 -14q37 -13 35 -37q-1 -24 -37 -29l-51 -8q-27 -35 -34 -45zM1130 586l-27 -28l-54 -49
l-12 -11q6 -5 9 -7l39 -34q32 -29 74 -55l93 -57q52 -30 61 -33l20 -9q12 7 21 14l47 35q37 28 105 94q69 65 95 105l24 36zM1716 991h-781v-144h781v144zM1716 1043v143h-781v-143h781zM1716 1240v144h-781v-144h781zM122 1511l41 -53q17 -22 35 -47q17 -25 40 -63
q22 -39 36 -70t23 -63t9 -63q1 -31 -10 -50q-9 -16 -24 -24q-16 -8 -32 -3q-13 3 -20 13q-8 11 -10 34q-3 24 -6 44q-3 21 -8 53q-6 32 -16 65q-10 32 -27 74t-29 67l-33 67zM1608 1840l60 71l75 -50q17 -12 29 -23q11 -12 13 -22q2 -11 -8 -23q-5 -5 -31 -19l-24 -12v-127
l52 -40q11 -10 12 -26q0 -16 -22 -16h-768q-1 -12 -2 -19q0 -7 -2 -10l-12 -8q-10 -6 -38 -8q-29 -2 -34 7q-4 9 -4 19v370l114 -64h590zM996 1611h634v175h-634v-175zM687 1396q-31 -45 -47 -66q-17 -20 -52 -57q-36 -37 -50 -48l-60 -51q-2 -77 -4 -140q-2 -64 -5 -115
l-12 -137l-7 -81l55 -40q23 -17 59 -47q35 -30 57 -52q22 -23 41 -50t30 -52q12 -24 12 -50q1 -25 -11 -39t-29 -19q-16 -4 -30 5t-23 32l-25 65q-12 26 -32 58q-21 33 -42 58l-36 43l-35 36q-15 -56 -29 -101t-43.5 -115.5t-64.5 -131.5q-34 -61 -85 -131q-51 -69 -84 -102
l-40 -40l-29 26l44 58q25 34 67 102q42 67 69 128q27 60 54 144q27 85 40 142q12 58 21 140q9 83 12 140t6 151.5t3 126.5v445q0 120 -6 177q-5 57 -6 68l-4 28l107 -19q53 -10 69 -18q17 -8 22 -17q4 -10 -4 -24q-7 -13 -33 -22l-49 -18v-548l54 86q24 39 42 72
q17 33 38 78l25 55l89 -56q39 -25 48 -37q10 -11 10 -22q-1 -12 -14 -18q-12 -6 -34 -4z" />
  </g>

</svg>
