<?xml version="1.0" standalone="no"?>
<!DOCTYPE svg PUBLIC "-//W3C//DTD SVG 1.1//EN" "http://www.w3.org/Graphics/SVG/1.1/DTD/svg11.dtd" >
<svg xmlns="http://www.w3.org/2000/svg" xmlns:xlink="http://www.w3.org/1999/xlink" version="1.1" viewBox="0 -205 1024 1024">
  <g transform="matrix(1 0 0 -1 0 819)">
   <path fill="currentColor"
d="M424 862h148v134l84 -28q18 -9 0 -18l-32 -14v-74h162v130l82 -30q19 -7 2 -16l-32 -14v-70h66l34 40l52 -50q3 -3 4 -6q1 -10 -12 -10h-144v-44l4 -38q1 -14 -18 -28q-21 -12 -42 -12l4 66v56h-162v-46l4 -42q0 -14 -20 -28q-22 -12 -40 -12l4 84v44h-64q-24 0 -60 -8
l-24 34v0v0zM438 686h462l32 40l60 -50q6 -3 6 -8q0 -9 -18 -8h-120v-408l56 8l30 48l60 -42q6 -3 6 -6q9 -10 -20 -16l-132 -20v-87l4 -56q3 -15 -20 -30q-22 -15 -40 -18l6 104v85l-324 -42q-18 -7 -36 -16l-24 36l124 16v444h-40q-9 -1 -50 -10l-22 36v0v0zM600 222
l210 26v104h-210v-130v0v0zM600 376h210v128h-210v-128v0v0zM600 530h210v130h-210v-130v0v0zM30 908h330l30 34l54 -42q3 -3 4 -8q0 -7 -14 -8h-130v-152h50l28 36l56 -36q3 -3 4 -6q0 -6 -30 -30v-478l4 -91q0 -12 -14 -22q-12 -10 -36 -14v63h-250v-61q1 -11 -16 -26
q-16 -11 -34 -14l4 123v596l50 -40h54v152h-82q-19 0 -44 -8l-18 32v0v0zM116 326v-146h250v146h-250v0v0zM116 390v-38h250v98h-32q-10 0 -28 4q-16 3 -28 18q-12 12 -12 34v202h-52q3 -162 -24 -222q-27 -57 -74 -96v0v0v0zM366 708h-62v-188q0 -18 10 -24q8 -6 20 -6h32
v218v0v0zM214 732h52v152h-52v-152v0v0zM174 708h-58v-290q32 40 46 98q13 57 12 192v0v0z" />
  </g>

</svg>
