<?xml version="1.0" standalone="no"?>
<!DOCTYPE svg PUBLIC "-//W3C//DTD SVG 1.1//EN" "http://www.w3.org/Graphics/SVG/1.1/DTD/svg11.dtd" >
<svg xmlns="http://www.w3.org/2000/svg" xmlns:xlink="http://www.w3.org/1999/xlink" version="1.1" viewBox="0 -36 256 256">
  <g transform="matrix(1 0 0 -1 0 220)">
   <path fill="currentColor"
d="M137 39h77v68h-77v-68zM124 155l100 3q-10 19 -25 37l3 3q34 -27 40.5 -40t0.5 -22.5t-8.5 -1.5t-7.5 19q-46 -4 -71 -7.5t-38 -9.5l-10 22q12 1 31.5 28t26.5 53l22 -15l-10 -6q-30 -39 -54 -63zM229 20l-15 -7v19h-77v-14l-14 -6q1 28 1 56t-1 55l14 -9h76l7 10l15 -13
l-7 -5q0 -69 1 -86zM58 214h34l9 10l14 -16l-8 -4q-14 -25 -32.5 -46t-55.5 -35l-2 5q25 12 44.5 32.5t29.5 46.5h-37l-9 -9q11 -9 14 -14t2.5 -10.5t-5.5 -8t-6.5 7t-8.5 21.5q-11 -10 -24 -20l-3 4q16 16 27.5 31.5t18.5 35.5l18 -11q-8 -2 -20 -20zM18 75l-3 4
q17 13 30 30t23 40l17 -11q-7 -2 -20 -20h34l7 9l16 -12l-8 -8q-10 -37 -33 -61t-68 -37l-1 4q36 15 57 37.5t31 60.5h-40l-11 -12q17 -12 20 -18t1.5 -11t-6 -7.5t-7.5 9t-12 23.5q-16 -13 -27 -20z" />
  </g>

</svg>
