<?xml version="1.0" standalone="no"?>
<!DOCTYPE svg PUBLIC "-//W3C//DTD SVG 1.1//EN" "http://www.w3.org/Graphics/SVG/1.1/DTD/svg11.dtd" >
<svg xmlns="http://www.w3.org/2000/svg" xmlns:xlink="http://www.w3.org/1999/xlink" version="1.1" viewBox="0 -205 1024 1024">
  <g transform="matrix(1 0 0 -1 0 819)">
   <path fill="currentColor"
d="M564 762h122v216l84 -28q6 -2 6 -10q-4 -3 -10 -6l-30 -12v-160h120l36 46l64 -56q1 -3 2 -8q0 -7 -8 -8h-214v-206h154l40 46l52 -54l6 -8q0 -12 -12 -12h-206q20 -83 58 -160q36 -78 76 -122q39 -45 106 -66v-15q-41 2 -58 -2q-18 -5 -38 -20q-48 54 -78 111
q-30 53 -54 128q-24 71 -36 146h-10v-360l4 -79q1 -12 -22 -28q-21 -14 -36 -14l4 119v326q-43 -118 -110 -220q-65 -102 -160 -179l-10 12q89 98 146 205q53 104 86 218h-106q-21 0 -60 -8l-18 36h232v206h-134q-40 -84 -88 -150l-14 8q63 138 108 300l76 -32q8 -12 -4 -18
l-24 -12q-9 -5 -42 -70v0v0zM122 902h220l42 46l58 -56q2 -3 2 -8q0 -9 -8 -8h-170v-122h68l32 38l56 -48q3 -3 4 -8q0 -7 -8 -8h-152v-112h64l32 42l52 -52q2 -3 2 -8q0 -7 -8 -8h-142v-122h116l26 36l60 -42q13 -13 -6 -22l-22 -12q-6 -120 -18 -204q-10 -84 -20 -113
q-10 -30 -28 -48q-19 -17 -58 -38q-7 30 -28 44q-21 15 -98 36l4 20q48 -8 78 -14q29 -6 52 -4q20 0 32 26q8 22 20 103q11 81 16 204h-274v-10q1 -15 -16 -26q-15 -13 -36 -14l4 142v418l52 -48v0v0zM118 468h102v122h-102v-122v0v0zM118 616h102v112h-102v-112v0v0z
M220 754v122h-102v-122h102v0v0zM78 362h18q9 -115 -2 -154q-8 -37 -22 -50t-28 -14q-14 0 -22 16q-9 15 4 30q11 15 26 36q14 21 26 136v0v0zM122 352l12 8q47 -59 58 -88q9 -30 6 -48q-4 -19 -16 -28q-10 -8 -22 0q-12 5 -12 26q0 18 -2 48q0 27 -24 82v0v0zM200 372l12 8
q51 -59 64 -88q12 -29 10 -46q-3 -15 -12 -24q-10 -7 -22 -2q-9 3 -12 24q-3 18 -8 46q-6 27 -32 82v0v0zM268 398l10 10q53 -42 74 -68q19 -27 18 -48q-3 -21 -14 -30q-12 -8 -24 0q-9 8 -12 26q0 17 -12 44q-10 24 -40 66v0v0z" />
  </g>

</svg>
