<?xml version="1.0" standalone="no"?>
<!DOCTYPE svg PUBLIC "-//W3C//DTD SVG 1.1//EN" "http://www.w3.org/Graphics/SVG/1.1/DTD/svg11.dtd" >
<svg xmlns="http://www.w3.org/2000/svg" xmlns:xlink="http://www.w3.org/1999/xlink" version="1.1" viewBox="0 -36 256 256">
  <g transform="matrix(1 0 0 -1 0 220)">
   <path fill="currentColor"
d="M127 210h-39q0 -8 1 -15l-16 -6q1 11 1 21h-30q-10 0 -20 -2l-9 9h59q0 20 -1 30l22 -9l-7 -5v-16h13l12 10zM159 211q-10 0 -20 -2l-9 9h35q0 16 -1 28l23 -9l-8 -5v-14h36l12 10l15 -17h-63q0 -5 1 -15l-16 -7q1 17 1 22h-6zM54 185h50l5 8l14 -11l-8 -6q0 -12 1 -27
l-13 -5v7h-48v-17h36l11 9l13 -16h-60v-20h37l11 8l14 -15h-62v-28l-15 -5q1 22 1 25v35.5v48.5l-1 17zM55 158h48v20h-48v-20zM199 184l9 10l13 -13l-8 -6q0 -15 1 -29l-14 -3v6h-37q-11 0 -20 -2l-10 9h67v21h-37q-11 0 -20 -2l-10 9h66zM168 107q15 11 24 21h-45
q11 -15 21 -21zM133 125l-7 10h70l8 7l13 -14l-8 -2q-17 -16 -31 -27q24 -15 67 -14v-4q-13 -1 -18 -12q-35 5 -59 22q-32 -16 -65 -19l-1 4q33 9 56 24q-10 13 -17 27zM130 47h-39q-8 -33 -74 -39l1 4q54 14 59 35h-38q-10 0 -20 -2l-9 9h68v28l21 -8l-7 -6v-14h13l10 9z
M136 46l-6 9h37q0 6 -1 25l23 -9l-8 -8v-8h36l14 11l15 -18h-65q0 -20 1 -35l-16 -6q1 21 1 41h-17z" />
  </g>

</svg>
