<?xml version="1.0" standalone="no"?>
<!DOCTYPE svg PUBLIC "-//W3C//DTD SVG 1.1//EN" "http://www.w3.org/Graphics/SVG/1.1/DTD/svg11.dtd" >
<svg xmlns="http://www.w3.org/2000/svg" xmlns:xlink="http://www.w3.org/1999/xlink" version="1.1" viewBox="0 -154 1024 1024">
  <g transform="matrix(1 0 0 -1 0 870)">
   <path fill="currentColor"
d="M162 902q-27 -2 -40 -13l-33 33h663l32 37l46 -43q17 -15 -6 -20l-19 -9v-316q2 -103 12 -196q11 -93 31 -146q20 -52 46 -88t38 2q20 61 38 139l14 -4q-14 -109 -20 -148t6 -62q19 -56 -71 -5q-93 70 -126 282q-13 101 -13 224v333h-598zM174 482l38 -44h333l35 41
l52 -49q14 -12 -6 -17l-18 -9v-176l4 -112q4 -40 -50 -43v73h-339v-39q0 -39 -53 -46q5 39 7 154v213q-4 24 -18 42zM223 166h339v252h-339v-252zM461 719l12 12q181 -94 208 -173q24 -75 -19 -77q-20 0 -26 29q-4 24 -32 68q-326 -20 -362 -26q-87 -11 -123 -38l-47 61
q30 12 41 20q13 8 42 43q70 79 155 208q-4 22 -14 33l9 8l89 -52q14 -8 0 -13q-24 2 -42 -8q-89 -115 -205 -231l440 19q-40 55 -126 117z" />
  </g>

</svg>
