<?xml version="1.0" standalone="no"?>
<!DOCTYPE svg PUBLIC "-//W3C//DTD SVG 1.1//EN" "http://www.w3.org/Graphics/SVG/1.1/DTD/svg11.dtd" >
<svg xmlns="http://www.w3.org/2000/svg" xmlns:xlink="http://www.w3.org/1999/xlink" version="1.1" viewBox="0 -200 999 1000">
  <g transform="matrix(1 0 0 -1 0 800)">
   <path fill="currentColor"
d="M696 983q43 -30 63.5 -55t20.5 -52v-1q-1 -26 -11.5 -38t-18.5 -12q-9 0 -12.5 11.5t-8 32t-13.5 47.5t-29 57zM597 800h228l43 42l58 -66h-142v-313h30l39 40l58 -62h-127v-370h68l43 42l64 -65h-320l-52 -12l-18 35h167v370h-59l-49 -14l-12 36h120v313h-75l-49 -15z
M394 347q51 109 90 208.5t59 184.5l53 -62l-27 -42q-4 -8 -7 -14.5t-6.5 -13.5t-7.5 -16t-10 -24v-540q-9 -13 -22 -20t-25 -9v472q-6 -12 -16 -30t-21.5 -36.5t-23 -35.5t-21.5 -28zM400 695q19 37 37 79t34 82.5t28 76.5t18 62l57 -63l-29 -29q-11 -24 -25.5 -54
t-31.5 -60t-36 -57.5t-38 -46.5zM292 488q35 -34 54.5 -64t19.5 -65q0 -22 -9.5 -38t-25.5 -16q-10 0 -12 10t-2 25v16q0 27 -4 40q-31 -5 -65.5 -16.5t-65.5 -25t-54.5 -26t-32.5 -19.5l-41 67l95 15q10 22 24 55t28.5 68t27.5 68.5t21 58.5q-24 -8 -48.5 -17t-45.5 -17.5
t-37.5 -16.5t-25.5 -14l-39 60l73 4q14 32 31 75.5t32.5 92t27.5 99t17 97.5l67 -70l-38 -46q-22 -48 -47.5 -107.5t-65.5 -137.5q22 0 51 3.5t54 6.5l61 160l48 -72l-33 -31q-22 -48 -41.5 -88t-38.5 -77t-38.5 -73.5t-40.5 -76.5q32 2 70.5 7t65.5 9q-3 11 -11 32.5
t-16 39.5zM133 230q0 -18 1 -34.5t1 -29.5q0 -27 -5 -56.5t-14.5 -54t-23.5 -40.5t-32 -16h-5q-5 5 -7.5 15t-2.5 17q0 11 6.5 25t17.5 32t20 34t15.5 32t10 33.5t3.5 39.5zM218 249q6 -15 11.5 -34t9 -38t6 -35.5t2.5 -26.5q0 -35 -11 -52.5t-26 -23.5q-11 0 -14.5 9.5
t-3.5 23.5q0 29 9 56.5t9 47.5q0 8 0.5 17.5t0.5 20.5q0 8 -0.5 15.5t-1.5 15.5zM309 269q17 -24 32 -54t15 -56q0 -30 -12 -51t-24 -21q-5 0 -9.5 6.5t-4.5 23.5v11q2 14 2.5 29t0.5 29q0 18 -3 37.5t-10 38.5z" />
  </g>

</svg>
