<?xml version="1.0" standalone="no"?>
<!DOCTYPE svg PUBLIC "-//W3C//DTD SVG 1.1//EN" "http://www.w3.org/Graphics/SVG/1.1/DTD/svg11.dtd" >
<svg xmlns="http://www.w3.org/2000/svg" xmlns:xlink="http://www.w3.org/1999/xlink" version="1.1" viewBox="0 -36 256 256">
  <g transform="matrix(1 0 0 -1 0 220)">
   <path fill="currentColor"
d="M60 216h-25v-127q18 -2 23.5 2t3.5 23.5t-19 40.5zM23 51v145q0 17 -1 37l14 -10h23l6 11l16 -13l-8 -8l-22 -57q22 -24 24.5 -42.5t-3.5 -28.5t-19 -16q-2 12 -18 15v-71l-13 -6q1 19 1 44zM153 195h-59q-1 -21 -7.5 -24.5t-11 1t3.5 12t10 29.5h5v-11h61l5 9l14 -14
q-13 -5 -27 -25l-3 3zM127 160l12 10l12 -17h-34q-10 0 -19 -2l-9 9h38zM221 16h-70q-25 0 -26 30v68h-12q-1 -41 -14.5 -65.5t-36.5 -40.5l-3 4q20 18 30 42t11 60q-2 0 -11 -2l-9 9h61l8 10l14 -17h-26v-60q0 -27 19 -27h67q7 0 8 8t2 35h4q0 -14 2.5 -25t8.5 -15
q-8 -14 -27 -14zM131 228.5q6 -9.5 -1 -18t-9 4.5t-12 28l2 3q14 -8 20 -17.5zM184.5 140q3.5 -19 8.5 -30q6 29 7 40t2 30h-23q2 -21 5.5 -40zM205 230l-6 -5q-8 -16 -16 -38h28l10 11l13 -19h-19q-2 -33 -6 -52t-10 -34q5 -11 13 -21t19 -15v-4q-15 0 -18 -8
q-12 15 -22 35q-17 -23 -50 -42l-2 4q31 25 47 53q-9 31 -13 70q-7 -17 -16 -30l-3 2q12 31 20 58t10 48z" />
  </g>

</svg>
