<?xml version="1.0" standalone="no"?>
<!DOCTYPE svg PUBLIC "-//W3C//DTD SVG 1.1//EN" "http://www.w3.org/Graphics/SVG/1.1/DTD/svg11.dtd" >
<svg xmlns="http://www.w3.org/2000/svg" xmlns:xlink="http://www.w3.org/1999/xlink" version="1.1" viewBox="0 -205 1024 1024">
  <g transform="matrix(1 0 0 -1 0 819)">
   <path fill="currentColor"
d="M368 812h172l28 36q52 -42 56 -48q3 -7 -2 -10q-4 -3 -16 -8q-11 -3 -34 -48q-21 -45 -84 -128q-60 -84 -138 -132l-8 12q60 60 108 130q48 68 96 172h-106q-25 0 -52 -8l-20 32v0v0zM428 480l48 -34h346l30 40l60 -40q6 -7 6 -10q0 -7 -30 -28v-259l4 -64q0 -12 -18 -22
q-15 -10 -36 -14v66h-358v-48q0 -12 -20 -24q-18 -12 -36 -12l4 114v335v0v0zM480 141h358v131h-358v-131v0v0zM480 298h358v122h-358v-122v0v0zM650 968l74 -30q7 -3 8 -8q-1 -7 -34 -22v-2v-50q27 -66 60 -128q75 68 138 148q60 -46 58 -52q-1 -7 -8 -8h-18
q-12 -1 -48 -26q-36 -24 -108 -80q54 -75 90 -102q33 -24 60 -36q26 -12 68 -20v-16q-33 3 -50 -2q-15 -5 -42 -28q-41 36 -70 70q-30 33 -62 84q-31 48 -68 142v-234q4 -43 -22 -64q-24 -21 -54 -26q-5 32 -28 44q-21 12 -66 24l4 16q80 -19 100 -16q19 2 18 20v402v0v0z
M392 908q11 -6 8 -14q0 -3 -8 -6q-21 -1 -50 -26q-36 -43 -96 -98q44 -87 62 -174q18 -88 18 -152q3 -63 0 -138q0 -75 -18 -126q-18 -46 -48 -79q-28 -29 -70 -50q-15 41 -38 52q-22 9 -82 36l4 16q101 -30 134 -16q32 15 50 59q17 45 20 100t4 128q0 72 -14 150
q-88 -150 -224 -278l-12 12q108 119 220 320q-8 57 -34 108q-80 -76 -166 -130l-10 12q81 63 156 150q-36 72 -126 156l12 14q104 -84 140 -144q69 83 114 160l54 -42v0v0z" />
  </g>

</svg>
