<?xml version="1.0" standalone="no"?>
<!DOCTYPE svg PUBLIC "-//W3C//DTD SVG 1.1//EN" "http://www.w3.org/Graphics/SVG/1.1/DTD/svg11.dtd" >
<svg xmlns="http://www.w3.org/2000/svg" xmlns:xlink="http://www.w3.org/1999/xlink" version="1.1" viewBox="0 -144 1024 1024">
  <g transform="matrix(1 0 0 -1 0 880)">
   <path fill="currentColor"
d="M567 426l65 -32h196l32 27l59 -49l-26 -21v-266l-65 -33v43h-196v-16l-65 -32v379zM316 247l60 -25l13 -14l-21 -6l-20 -42l-25 -47l-9 -16l-11 -15l-2 -3h79l54 54l64 -54v-21h-456v21h245l2 9l3 18l6 34l3 18l3 16l3 16l2 17l3 16l1 10h-1l2 3v2zM188 135l-4 49l-5 34
l-1 12l-4 9l8 5l7 -8l8 -8l8 -10l16 -20l7 -11l12 -25l6 -12l6 -14l-5 -24l-19 -15l-25 5l-14 20zM828 372h-196v-255h196v255zM115 463l65 -32h181l32 27l59 -49l-27 -21v-120l-64 -32v32h-181l-65 -32v227zM361 409h-181v-119h181v119zM899 502l-23 53l-13 27l-15 27
l-35 53l-51 70v-271l-64 -32v250l-27 -42l-31 -44l-33 -42l-34 -41l-37 -38l-38 -36l-8 7l60 85l56 88l52 91l45 95l21 50l10 27h-218v22h309l54 53l65 -53v-22h-140l-43 -91h1v-38l26 -19l28 -22l24 -24l46 -50l19 -26l19 -27l16 -28l28 -57l-1 -25l-17 -17l-25 2l-17 17z
M35 521l50 -41l-21 -11l-24 6l-12 22zM36 519l-1 2l4 3l6 8l6 11l6 15l5 17l6 20l5 23l9 54l3 31h10l3 -31l3 -20h344l32 27l60 -49l-27 -16l-14 -5l-21 -38l-27 -43l-10 -16l-9 -17l-10 3l6 19l9 52l6 31l4 26l1 4h-342l1 -14l1 -25v-22l-2 -21l-2 -19l-3 -18l-5 -16
l-8 -15zM368 589l54 -48v-22h-304v22h206zM75 732v22h163v104h-196v22h196v101l65 -11l16 -10l-16 -10v-70h77l54 53l64 -53v-22h-195v-104h65l44 48l54 -48v-22h-391z" />
  </g>

</svg>
