<?xml version="1.0" standalone="no"?>
<!DOCTYPE svg PUBLIC "-//W3C//DTD SVG 1.1//EN" "http://www.w3.org/Graphics/SVG/1.1/DTD/svg11.dtd" >
<svg xmlns="http://www.w3.org/2000/svg" xmlns:xlink="http://www.w3.org/1999/xlink" version="1.1" viewBox="0 -36 256 256">
  <g transform="matrix(1 0 0 -1 0 220)">
   <path fill="currentColor"
d="M101 90l1 -5q-72 -29 -81 -40l-11 17q11 3 37 11v82h-7q-11 0 -20 -2l-9 9h36v43q0 9 -1 28l23 -10l-8 -7v-54h11l11 10l16 -17h-38v-78zM132 173h61v25h-61v-25zM132 141h61v25h-61v-25zM117 243l24 -10l-9 -8v-20h61q0 21 -1 38l23 -9l-8 -8v-21h8l13 12l16 -19h-37
v-35q0 -22 1 -34l-15 -6v11h-61v-11l-15 -6q1 24 1 45v36h-3q-11 0 -20 -2l-10 9h33q0 18 -1 38zM154 130l24 -10l-9 -7v-13h48l13 12l17 -19h-73q9 -18 27.5 -34.5t41.5 -20.5v-4q-12 0 -19 -11q-19 11 -33 29.5t-22 41.5v-47q0 -17 1 -32l-16 -7q1 19 1 36v41
q-17 -24 -38 -41.5t-48 -28.5l-2 3q26 15 44.5 34t31.5 41h-27q-11 0 -20 -2l-9 9h68q0 15 -1 30z" />
  </g>

</svg>
