<?xml version="1.0" standalone="no"?>
<!DOCTYPE svg PUBLIC "-//W3C//DTD SVG 1.1//EN" "http://www.w3.org/Graphics/SVG/1.1/DTD/svg11.dtd" >
<svg xmlns="http://www.w3.org/2000/svg" xmlns:xlink="http://www.w3.org/1999/xlink" version="1.1" viewBox="0 -36 256 256">
  <g transform="matrix(1 0 0 -1 0 220)">
   <path fill="currentColor"
d="M82 178v-126q0 -19 1 -38l-15 -4q1 17 1 35v40h-18q-5 -52 -35 -73l-2 3q23 26 24 71l-12 -3l-8 9h8h43v32h-29l-4 -4l-12 10l6 5v25q0 4 -2 15l19 -7l-5 -6v-31h27v23q0 15 -1 41l19 -10zM217 206h-177q4 -11 -1 -18t-15.5 -6t-5.5 8t9 12t8 22h4l1 -11h85q0 16 -18 34
l2 2q29 -10 32 -18.5t-7 -17.5h81l7 11l22 -17q-14 -5 -34 -25l-3 2zM107 111q1 11 1 23t-1 24l15 -6h77l6 6l14 -9l-6 -5q0 -18 1 -29l-14 -6v5h-79v-2zM121 121h20v24h-20v-24zM102 108h4v-6h114l9 8l13 -13q-9 -2 -26 -18l-3 2l7 14h-114q0 -8 -4 -15.5t-13 -6.5t0.5 11
t12.5 24zM170 145h-18v-24h18v24zM200 145h-18v-24h18v24zM168 41q9 9 17 24h-38q-7 -10 -14 -18q19 -1 35 -6zM122 65q-8 0 -17 -2l-9 9h40q7 9 9 21l18 -10l-7 -4l-6 -7h29h8q2 6 1 12l16 -5l-3 -4l-1 -3h4l12 8l15 -15h-33q-9 -19 -17 -27q13 -4 24.5 -8t13.5 -14.5
t-11 -2.5t-37 16q-23 -17 -72 -21v3q36 7 59 23q-17 6 -38 10q7 9 13 21h-11zM147 158l-15 -4q1 8 1 14h-12q-11 0 -20 -2l-10 9h42q0 10 -1 21l23 -7l-8 -6v-25zM172 194l21 -6l-7 -6v-7h25l11 9l13 -16h-49q0 -4 1 -10l-14 -3q0 27 -1 39z" />
  </g>

</svg>
