<?xml version="1.0" standalone="no"?>
<!DOCTYPE svg PUBLIC "-//W3C//DTD SVG 1.1//EN" "http://www.w3.org/Graphics/SVG/1.1/DTD/svg11.dtd" >
<svg xmlns="http://www.w3.org/2000/svg" xmlns:xlink="http://www.w3.org/1999/xlink" version="1.1" viewBox="0 -205 1024 1024">
  <g transform="matrix(1 0 0 -1 0 819)">
   <path fill="currentColor"
d="M876 474l50 -36l4 -8q0 -7 -8 -8h-594q3 -87 -6 -150h566l34 40q57 -46 60 -52q3 -7 -2 -14h-396q42 -67 114 -111q78 37 126 79q60 -36 60 -42q0 -7 -6 -8q-4 -1 -22 -2t-54 -14q-37 -11 -80 -29q35 -14 68 -26q32 -11 80 -20q46 -9 104 -10v-16q-24 -2 -48 -8
q-21 -5 -38 -32q-97 27 -158 60q-59 33 -106 81q-45 50 -68 98h-126v-163l162 56l8 -16q-138 -66 -156 -78q-18 -9 -44 -40l-50 54l30 18v169h-62q-7 -36 -28 -74q-22 -38 -58 -79q-35 -41 -82 -64l-8 12q35 32 68 78q30 44 48 91q15 45 18 130v130l52 -22h516l32 26v0v0z
M374 360h392l38 44l60 -54q3 -4 4 -10q0 -6 -12 -6h-398q-21 0 -68 -8l-16 34v0v0zM866 898l42 50l64 -62l2 -4q1 -7 -4 -8h-292v-60h192l20 34l56 -42q8 -4 8 -10q1 -3 -22 -18v-76q0 -12 -12 -14q-24 -10 -42 -10v16h-684q3 -58 -2 -196t-40 -258q-33 -120 -98 -201l-14 8
q51 105 78 241q29 136 26 368v280l62 -38h660v0v0zM196 718h196v72h-196v-72v0v0v0zM444 718h182v72h-182v-72v0v0zM678 718h200v72h-200v-72v0v0zM626 814v60h-182v-60h182v0v0zM392 814v60h-196v-60h196v0v0zM626 680q63 -12 70 -20q4 -3 -6 -8l-16 -12v-40q69 27 150 72
q59 -30 62 -36q2 -6 -4 -6h-22q-12 1 -66 -16q-54 -16 -120 -34v-26q-1 -25 14 -28q12 -1 22 -2h176l30 4q18 5 24 20q7 14 14 98h16l4 -48q3 -46 30 -52q-7 -23 -22 -40q-12 -15 -42 -20l-28 -4h-202q-27 0 -44 4q-18 3 -32 22q-9 21 -8 52v120v0v0zM298 684l56 -14
q9 0 10 -6t-16 -14v-26h160l28 34l46 -44q2 0 2 -6q1 -7 -4 -8h-232v-70l220 42l6 -18q-172 -42 -206 -56q-31 -13 -50 -34l-48 48q15 8 28 16v156v0v0zM450 978l6 14q47 -4 80 -14q30 -9 42 -26q9 -15 4 -30q-7 -13 -26 -14q-18 -2 -24 12q-6 12 -24 28q-17 15 -58 30v0v0z
" />
  </g>

</svg>
