<?xml version="1.0" standalone="no"?>
<!DOCTYPE svg PUBLIC "-//W3C//DTD SVG 1.1//EN" "http://www.w3.org/Graphics/SVG/1.1/DTD/svg11.dtd" >
<svg xmlns="http://www.w3.org/2000/svg" xmlns:xlink="http://www.w3.org/1999/xlink" version="1.1" viewBox="0 -36 256 256">
  <g transform="matrix(1 0 0 -1 0 220)">
   <path fill="currentColor"
d="M126 245l20 -9l-6 -8v-21h3l9 9l15 -15h-27v-9q17 -6 22 -12t0.5 -16t-8.5 1t-14 23v-29q0 -8 1 -23l-15 -5q1 15 1 26v31q-15 -32 -38 -51l-2 3q22 31 32 60h-1l-11 -3l-10 10h30q0 16 -1 38zM205 141l-15 -6q1 15 1 25v23q-12 -26 -37 -45l-2 3q23 30 35 60h-3l-9 -3
l-10 10h26q0 15 -1 38l19 -9l-5 -6v-23h12l10 10l15 -17h-32q8 -18 18.5 -30.5t20.5 -16.5v-4q-10 0 -16 -9q-11 14 -18 29.5t-9 30.5h-1v-32q0 -14 1 -28zM198 126l11 11l17 -18h-80q-13 0 -22 -3l-10 10h84zM218 94l10 11l18 -18h-69v-54q2 -17 -20 -26q-1 14 -25 20v3
q15 -1 23 -1.5t8 11.5v47h-31q-13 0 -22 -3l-10 10h118zM148 60q-10 -3 -24.5 -16.5t-38.5 -25.5l-2 3q29 21 48 55zM234 47q8 -9 3 -22t-12 2.5t-33 40.5l2 4q32 -16 40 -25zM74 232l-8 -7v-65q18 24 23 39l16 -14q-9 -2 -17 -10l-22 -22q0 -24 -3 -59q21 -12 29 -22.5
t5.5 -20t-6 -8t-9 14.5t-20.5 31q-11 -54 -52 -79l-2 3q29 28 37 61t8 75t-1 95zM34.5 134q-4.5 -9 -10 -11t-9 3t5 13t15.5 38h3q0 -34 -4.5 -43z" />
  </g>

</svg>
