<?xml version="1.0" standalone="no"?>
<!DOCTYPE svg PUBLIC "-//W3C//DTD SVG 1.1//EN" "http://www.w3.org/Graphics/SVG/1.1/DTD/svg11.dtd" >
<svg xmlns="http://www.w3.org/2000/svg" xmlns:xlink="http://www.w3.org/1999/xlink" version="1.1" viewBox="0 -36 256 256">
  <g transform="matrix(1 0 0 -1 0 220)">
   <path fill="currentColor"
d="M64 178h19l5 10l16 -13l-7 -6q0 -64 1 -77l-13 -6v8h-52v-8l-13 -6q1 22 1 90q-3 -8 -12 -16l-2 3q18 32 26.5 55t8.5 32l20 -10q-7 -1 -16 -20h28l7 9l14 -13q-9 0 -31 -32zM30 182l6 -4h22l16 29h-30q-6 -10 -14 -25zM33 138h20v33h-20v-33zM64 138h21v33h-21v-33z
M33 101h20v30h-20v-30zM64 101h21v30h-21v-30zM28.5 41q-1.5 -8 -5 -11.5t-11 -3.5t0.5 12t12 34h4q1 -23 -0.5 -31zM42 75q15 -18 15.5 -28t-5.5 -15.5t-6.5 8.5t-5.5 34zM61 78q22 -16 22.5 -25.5t-4.5 -14t-7 5.5t-13 32zM82 84q18 -11 23 -18t0 -16.5t-8 2t-18 30.5z
M129 16l-12 -9q1 38 1 43v99q-7 -21 -18 -36l-2 3q13 33 20.5 62.5t11.5 67.5l20 -13l-8 -6q-8 -32 -14 -51l8 -8l-7 -4v-148zM235 88q-32 21 -42 53h-15q-13 -33 -45 -54l-1 3q24 26 34 51h-2q-13 0 -24 -3l-9 10h37q4 12 6 23q-8 0 -19 -3l-9 9h29q2 8 4 23h-11
q-10 0 -19 -2l-9 9h40q1 25 1 40l18 -8l-5 -5q-1 -16 -2 -27h23l8 11l14 -18h-46q-2 -13 -4 -23h19l9 11l12 -18h-41q-2 -7 -6 -22h44l10 11l12 -18h-48q18 -32 50 -38v-3q-9 -3 -13 -12zM179 53h-17q-10 -1 -19 -3l-9 10h45v30q-7 0 -18 -3l-9 10h27q0 16 -1 31l18 -9
l-5 -6v-16h8l9 10l11 -17h-28v-30h27l10 12l14 -19h-51q0 -31 1 -38l-14 -7q1 22 1 45z" />
  </g>

</svg>
