<?xml version="1.0" standalone="no"?>
<!DOCTYPE svg PUBLIC "-//W3C//DTD SVG 1.1//EN" "http://www.w3.org/Graphics/SVG/1.1/DTD/svg11.dtd" >
<svg xmlns="http://www.w3.org/2000/svg" xmlns:xlink="http://www.w3.org/1999/xlink" version="1.1" viewBox="0 -36 256 256">
  <g transform="matrix(1 0 0 -1 0 220)">
   <path fill="currentColor"
d="M127 234l-9 -2l-12 -12h81l9 9l16 -15l-10 -6q-57 -72 -185 -92v6q116 23 168 91h-85l-10 -9q26 -8 34 -13t2.5 -16t-11.5 0t-29 25q-13 -10 -24 -18q22 -7 27 -14t-2 -16t-10.5 2.5t-18.5 25.5q-17 -12 -34 -18l-1 4q35 22 56 45t28 36zM179 52q0 -24 1 -38l-17 -6
q1 21 1 36v43h-70q-1 -26 -20.5 -46.5t-53.5 -31.5l-1 4q29 14 44 33t16 41h-38q-10 0 -19 -2l-9 9h66v38l22 -8l-7 -6v-24h70q0 32 -1 44l24 -9l-8 -7v-28h34l14 13l17 -20h-65v-35z" />
  </g>

</svg>
