<?xml version="1.0" standalone="no"?>
<!DOCTYPE svg PUBLIC "-//W3C//DTD SVG 1.1//EN" "http://www.w3.org/Graphics/SVG/1.1/DTD/svg11.dtd" >
<svg xmlns="http://www.w3.org/2000/svg" xmlns:xlink="http://www.w3.org/1999/xlink" version="1.1" viewBox="0 -36 256 256">
  <g transform="matrix(1 0 0 -1 0 220)">
   <path fill="currentColor"
d="M136 227v-27h52l13 10l14 -17h-79v-33h74l15 12l15 -19h-191q-10 0 -19 -2l-9 9h101v33h-41q-10 0 -19 -2l-9 9h69v27h-60q-10 0 -19 -2l-9 9h168l14 10l15 -17h-95zM86 128v-27h17l13 11l14 -18h-44v-11q21 -9 29 -15.5t3 -19t-11 0.5t-21 30v-48l1 -17l-16 -8l1 21v52
q-23 -35 -59 -58l-3 2q35 33 52 71h-17q-10 -1 -20 -3l-9 10h56v27q-17 -2 -41 -4v4q18 2 38.5 6.5t36.5 12.5l15 -15q-16 -1 -35 -4zM153.5 92q3.5 -12 -5 -18t-9.5 8.5t-15 33.5l3 3q23 -15 26.5 -27zM223 105l-38 -25q21 -49 58 -61v-4q-16 0 -20 -9q-17 13 -30 36.5
t-17 50.5q-5 -33 -19.5 -52.5t-50.5 -34.5l-2 4q34 22 44.5 41.5t13.5 40t2 54.5l22 -10l-6 -7q0 -13 1 -26.5t3 -17.5q25 22 32 40l17 -17zM167 188q25 -9 25.5 -15t-4 -10t-7.5 3.5t-16 18.5z" />
  </g>

</svg>
