<?xml version="1.0" standalone="no"?>
<!DOCTYPE svg PUBLIC "-//W3C//DTD SVG 1.1//EN" "http://www.w3.org/Graphics/SVG/1.1/DTD/svg11.dtd" >
<svg xmlns="http://www.w3.org/2000/svg" xmlns:xlink="http://www.w3.org/1999/xlink" version="1.1" viewBox="0 -205 1024 1024">
  <g transform="matrix(1 0 0 -1 0 819)">
   <path fill="currentColor"
d="M624 734q6 -3 6 -6q6 -9 -8 -14q-15 -2 -30 -16q-12 -18 -32 -54h284l42 56l66 -66q6 -4 6 -8q0 -9 -8 -8h-406q-69 -107 -120 -154l-12 10q93 143 148 296l64 -36v0v0zM868 476l64 -38q9 -7 4 -14q-3 -6 -36 -26v-124q0 -15 -2 -36q-3 -19 -18 -38q-12 -19 -54 -38
q-4 16 -22 32q-15 17 -62 32l4 16q57 -10 78 -8q20 0 26 18q4 18 2 42v116l-136 -26v-124l2 -76q0 -16 -14 -28q-13 -16 -40 -17l4 121v116l-112 -24v-223q0 -41 18 -50q18 -7 66 -8h234q38 4 50 20q11 15 14 42q0 23 6 109h20q3 -58 6 -88q3 -29 36 -45q-16 -34 -40 -56
q-22 -19 -68 -26h-290q-48 3 -62 12q-13 6 -26 26q-12 18 -12 66v209l-50 -14l-20 -12l-26 30l96 24v122l74 -30q8 -1 8 -8q0 -3 -6 -8l-28 -16v-50l112 24v186l80 -32l6 -6q1 0 -4 -6l-34 -20v-114l124 24l28 42v0v0zM348 614l30 40l52 -50q3 -3 4 -2q1 -12 -10 -12h-204
v-148h118l28 34l52 -38q9 -7 10 -10q1 -6 -28 -26l-20 -188q-16 -110 -40 -143q-21 -31 -72 -48q-8 32 -28 46q-21 13 -78 34l6 16l76 -18q44 -9 62 12q14 20 26 121l16 186h-130q-13 -129 -62 -228q-48 -94 -116 -163l-12 10q53 75 88 159t46 150q12 62 10 242h-54
q-21 0 -60 -8l-16 32h306v0v0zM164 770l8 12q59 -28 86 -50q24 -21 30 -42q4 -18 -4 -30q-9 -13 -20 -16q-13 -3 -22 4q-10 6 -14 28q-3 18 -18 42q-14 21 -46 52v0v0zM334 976l80 -32q6 -3 6 -8q0 -2 -36 -22v-56h248v112l82 -34q3 -5 4 -10q1 -2 -34 -22v-46h194l40 48
l60 -62q3 -1 4 -8q-1 -6 -16 -6h-282v-48q-1 -16 -20 -22q-22 -6 -32 -6v76h-248v-56q-1 -16 -20 -22q-9 -6 -30 -6v84h-206q-22 -1 -70 -10l-18 38h294v118v0v0z" />
  </g>

</svg>
