<?xml version="1.0" standalone="no"?>
<!DOCTYPE svg PUBLIC "-//W3C//DTD SVG 1.1//EN" "http://www.w3.org/Graphics/SVG/1.1/DTD/svg11.dtd" >
<svg xmlns="http://www.w3.org/2000/svg" xmlns:xlink="http://www.w3.org/1999/xlink" version="1.1" viewBox="0 -205 1024 1024">
  <g transform="matrix(1 0 0 -1 0 819)">
   <path fill="currentColor"
d="M912 934l58 -40q8 -4 8 -10q1 -3 -28 -26v-96l4 -58q1 -15 -16 -24q-15 -9 -38 -12v28h-324q0 -177 -8 -288q-9 -108 -42 -198q-33 -87 -108 -169l-12 12q59 87 86 177q24 89 30 188q6 98 4 278v244l64 -42h298l24 36v0v0zM576 872v-150h324v150h-324v0v0zM588 560
q72 18 136 40q62 21 134 60l52 -46q3 -4 4 -8q-1 -7 -10 -8l-28 2q-81 -15 -92 -20v-120l82 12l34 40l58 -38q9 -12 -2 -18l-172 -22v-128l108 14l34 46l66 -42q10 -15 -16 -20l-192 -24v-120q0 -28 6 -43q5 -12 22 -12h44h54q27 0 36 20q5 18 8 45q2 26 2 80h18
q5 -66 10 -86q3 -18 28 -31q-15 -41 -32 -56q-18 -13 -54 -14h-96q-40 -1 -56 4q-15 5 -26 22q-12 18 -12 61v126l-116 -12q-24 -8 -38 -16l-24 36l178 18v126l-76 -10q-39 -3 -50 -14l-24 32l150 18v116q-78 -18 -144 -24l-4 14v0v0zM92 808h168v178l72 -30q7 -3 8 -6
q6 -2 -2 -10l-30 -18v-114h64l34 38l58 -46q3 -3 4 -6q0 -12 -12 -12h-148v-164h108l36 42l56 -50q3 -3 4 -8q0 -12 -12 -12h-126v-432q1 -50 -12 -75q-13 -26 -56 -40q-3 24 -26 42q-21 16 -72 32l4 18q57 -12 78 -16q22 -1 32 12q9 12 6 47v412h-88v-78q-1 -181 -22 -250
q-19 -70 -56 -123q-36 -55 -108 -116l-10 14q58 62 92 125q33 62 46 124q9 62 12 206v98h-74q-21 0 -60 -8l-16 36h216v164h-92q-21 0 -60 -8l-16 34v0v0zM392 500l12 8q45 -48 66 -84q22 -36 26 -66q2 -28 -10 -40q-13 -13 -28 -10q-16 2 -16 28q0 23 -12 68t-38 96v0v0z
M108 506q64 -22 68 -28q3 -6 -2 -8l-12 -6q-7 -1 -16 -16q-7 -16 -32 -76t-74 -144l-14 6q56 131 82 272v0v0z" />
  </g>

</svg>
