<?xml version="1.0" standalone="no"?>
<!DOCTYPE svg PUBLIC "-//W3C//DTD SVG 1.1//EN" "http://www.w3.org/Graphics/SVG/1.1/DTD/svg11.dtd" >
<svg xmlns="http://www.w3.org/2000/svg" xmlns:xlink="http://www.w3.org/1999/xlink" version="1.1" viewBox="0 -36 256 256">
  <g transform="matrix(1 0 0 -1 0 220)">
   <path fill="currentColor"
d="M181 205h-2l-11 -3l-10 10h27q0 17 -1 34l19 -8l-6 -8v-18h11l10 11l18 -18h-39v-10q15 -9 22.5 -16t9.5 -13t-2.5 -13.5t-10 6.5t-19.5 30q0 -42 1 -57l-14 -6q1 25 1 58q-9 -27 -39 -49l-2 3q26 29 37 67zM41 200l-11 -3l-10 10h38q0 19 -1 40l19 -11l-6 -7v-22h5l8 8
l15 -15h-28v-13q7 -3 14.5 -8t8 -11t-3 -12t-7 3.5t-12.5 21.5q0 -36 1 -55l-14 -6q1 30 1 60q-17 -34 -41 -52l-2 3q26 29 37 69h-11zM164 64l10 9l15 -16l-10 -3q-26 -23 -54 -48l-4 3q25 30 42 48h-77q-13 0 -22 -3l-10 10h110zM12 79v4q73 16 110 52l18 -11l-8 -2
q36 -23 114 -30v-4q-16 1 -22 -12q-28 7 -52.5 16.5t-44.5 25.5q-53 -31 -115 -39zM143 87l10 11l18 -18h-66q-13 0 -22 -3l-10 10h70zM147 176l-3 3l8 16h-13v-46q0 -16 -14 -19q-3 10 -18 15v3q15 -2 18 -2t3 4v39q-15 -35 -42 -56l-2 3q23 27 34 60h1l-11 -3l-10 10h33
q-1 10 -18 21l2 2q10 -2 20 -8l11 13h-14q-13 0 -22 -3l-10 10h47l5 7l13 -15l-8 -1q-9 -5 -18 -13q5 -7 -1 -14h14l5 6l11 -12q-9 -3 -21 -20z" />
  </g>

</svg>
