<?xml version="1.0" standalone="no"?>
<!DOCTYPE svg PUBLIC "-//W3C//DTD SVG 1.1//EN" "http://www.w3.org/Graphics/SVG/1.1/DTD/svg11.dtd" >
<svg xmlns="http://www.w3.org/2000/svg" xmlns:xlink="http://www.w3.org/1999/xlink" version="1.1" viewBox="0 -36 256 256">
  <g transform="matrix(1 0 0 -1 0 220)">
   <path fill="currentColor"
d="M198.5 211q-4.5 12 -17.5 28l1 3q19 -8 26.5 -17t1 -17.5t-11 3.5zM149 247l25 -10l-7 -8q-1 -21 0 -34h49l12 11l18 -18h-79q4 -63 19 -99q17 30 25 76l23 -13l-9 -6q-12 -41 -32 -72q17 -30 31 -39l11 43h6q-2 -44 4 -61t-19.5 -2.5t-43.5 47.5q-32 -37 -91 -54l-2 5
q51 19 86 62q-18 45 -22 113h-109q-16 0 -25 -3l-10 10h143q-1 25 -3 52zM51 154q-13 0 -22 -3l-10 10h96l10 11l18 -18h-55v-47h36l10 11l18 -18h-111q-13 0 -22 -3l-10 10h64v47h-22zM122 49q-5 14 -29 41l2 3q32 -18 39.5 -29t0 -20t-12.5 5zM74 79l-11 -6
q-21 -29 -48 -48l-3 3q30 33 38 64z" />
  </g>

</svg>
