<?xml version="1.0" standalone="no"?>
<!DOCTYPE svg PUBLIC "-//W3C//DTD SVG 1.1//EN" "http://www.w3.org/Graphics/SVG/1.1/DTD/svg11.dtd" >
<svg xmlns="http://www.w3.org/2000/svg" xmlns:xlink="http://www.w3.org/1999/xlink" version="1.1" viewBox="0 -36 256 256">
  <g transform="matrix(1 0 0 -1 0 220)">
   <path fill="currentColor"
d="M41 244q20 -11 27.5 -19.5t0.5 -19.5t-10.5 2.5t-19.5 33.5zM56 117q-15 -24 -49 -43l-1 3q24 22 41.5 47.5t26.5 44.5h-35q-10 0 -19 -2l-9 9h64l9 11l15 -16l-10 -4q-9 -14 -21 -34v-4q20 -10 27.5 -17.5t2 -19.5t-10 1.5t-19.5 30.5q0 -91 1 -109l-14 -10q1 41 1 112z
M113 170q-7 -9 -20 -18l-2 3q25 27 38 51t17 40l20 -13l-8 -3l-14 -22h47l9 10l18 -17q-15 0 -46 -33h39l8 10l14 -11l-7 -7q0 -35 1 -54l-15 -7v11h-27v-68q-2 -17 13 -16h18q12 -1 13 15t1 30h4q0 -13 2 -26t11 -15q-3 -15 -25 -15h-32q-19 -1 -18 23v72h-4
q-14 -73 -90 -102l-1 4q65 35 78 97h-29v-7l-14 -8q1 24 1 76zM192 201h-51q-10 -12 -24 -28l13 -5h35zM126 116h30q3 22 3 45h-33v-45zM169 117h43v44h-40q-1 -20 -3 -44z" />
  </g>

</svg>
