<?xml version="1.0" standalone="no"?>
<!DOCTYPE svg PUBLIC "-//W3C//DTD SVG 1.1//EN" "http://www.w3.org/Graphics/SVG/1.1/DTD/svg11.dtd" >
<svg xmlns="http://www.w3.org/2000/svg" xmlns:xlink="http://www.w3.org/1999/xlink" version="1.1" viewBox="0 -36 256 256">
  <g transform="matrix(1 0 0 -1 0 220)">
   <path fill="currentColor"
d="M76.5 224q-3.5 6 -12.5 16l2 4q23 -8 25.5 -16t-6.5 -14h26l10 11l15 -18h-64l-1 -20h28l9 12l14 -14l-8 -5q-1 -34 -4.5 -47.5t-24.5 -17.5q0 12 -20 15v5q15 -2 23.5 -3.5t10.5 19t1 29.5h-31q-5 -44 -51 -73l-3 3q28 23 35.5 48t7.5 49h-7q-12 0 -24 -2l-9 9h63
q-1 4 -4.5 10zM171 239q-4 -3 -9 -9t-8 -15h47l13 12l19 -19h-26q-7 -31 -25 -57q19 -16 55 -21v-3q-15 -3 -15 -12q-30 11 -49 28q-21 -18 -62 -25l-2 3q36 12 55 30q-12 18 -17 51q-10 -21 -24 -32l-3 2q9 9 17.5 29t11.5 45zM173 160q16 24 20 48h-41q5 -30 21 -48z
M118 28.5q6 0.5 6 6.5v30h-84q-11 -1 -20 -3l-9 10h113q0 8 -1 22l11 -6l36 18h-82q-10 0 -19 -2l-9 9h113l13 11l16 -20q-20 1 -64 -19l6 -4l-7 -4v-5h77l14 11l18 -18h-109v-37q0 -7 -5 -11.5t-16 -8.5q-3 13 -33 21v5q29 -6 35 -5.5z" />
  </g>

</svg>
