<?xml version="1.0" standalone="no"?>
<!DOCTYPE svg PUBLIC "-//W3C//DTD SVG 1.1//EN" "http://www.w3.org/Graphics/SVG/1.1/DTD/svg11.dtd" >
<svg xmlns="http://www.w3.org/2000/svg" xmlns:xlink="http://www.w3.org/1999/xlink" version="1.1" viewBox="0 -205 1024 1024">
  <g transform="matrix(1 0 0 -1 0 819)">
   <path fill="currentColor"
d="M348 526l48 -36h40v294l52 -34h256l28 34l56 -40q10 -9 0 -18l-28 -14v-222h46l28 34l60 -38q9 -6 10 -12q0 -7 -30 -26v-234q1 -54 -10 -74q-11 -16 -52 -35q-9 20 -26 34q-18 11 -80 33l4 16q48 -9 76 -12q30 -4 36 8q6 11 4 40v242h-470v-240l4 -70q1 -14 -22 -31
q-22 -15 -34 -16l4 113v304v0v0zM484 430l48 -24h170l34 32l38 -32q9 -7 10 -14q0 -7 -24 -22v-68l4 -52q1 -13 -16 -22l-34 -12v32h-184v-30q0 -12 -18 -20q-15 -6 -32 -6l4 102v136v0v0zM530 272h184v108h-184v-108v0v0zM484 726v-92h102l22 28l56 -40q8 -9 -4 -18
l-18 -14v-100h110v236h-268v0v0zM484 490h112v120h-112v-120v0v0zM138 756q51 -24 78 -38q24 -12 40 -30q14 -15 16 -36q2 -18 -10 -30t-30 -12t-20 24q0 23 -24 52q-21 30 -60 60l10 10v0v0zM40 426h132l28 34l46 -34q12 -9 12 -14q0 -3 -30 -24v-246q46 -37 86 -53
q39 -14 100 -16q310 -2 470 4l116 14v-16q-31 -4 -52 -20q-19 -13 -28 -32l-172 2q-311 0 -358 8q-47 7 -82 22q-33 18 -62 44q-27 26 -44 24q-18 1 -32 -20q-15 -21 -50 -78l-54 40q41 31 116 83v252h-88q-16 0 -34 -8l-20 34v0v0zM350 984l74 -28q7 -4 2 -10q1 0 -28 -20
v-44h228v98l74 -28q3 -3 4 -8q-4 -6 -28 -18v-44h194l40 48l60 -62q3 -1 4 -8q-1 -6 -16 -6h-282v-46q0 -12 -12 -20q-9 -6 -18 -8q-7 -3 -20 -2v76h-228v-46q0 -12 -8 -18q-7 -5 -16 -10q-9 -3 -24 -2v76h-202q-22 -1 -70 -10l-18 38h290v102v0v0z" />
  </g>

</svg>
