<?xml version="1.0" standalone="no"?>
<!DOCTYPE svg PUBLIC "-//W3C//DTD SVG 1.1//EN" "http://www.w3.org/Graphics/SVG/1.1/DTD/svg11.dtd" >
<svg xmlns="http://www.w3.org/2000/svg" xmlns:xlink="http://www.w3.org/1999/xlink" version="1.1" viewBox="0 -36 256 256">
  <g transform="matrix(1 0 0 -1 0 220)">
   <path fill="currentColor"
d="M22 227q31 -19 32 -30.5t-4 -16t-10 10t-21 33.5zM32 97.5q8 1.5 29 96.5l5 -2q-19 -97 -20 -104.5t-0.5 -22.5t1 -26.5t-5 -11.5t-10 5t-1.5 16.5t3.5 20.5t-4.5 15t-19 9l1 6q13 -3 21 -1.5zM85 215h8q7 19 9 32l17 -9l-7 -4q-4 -7 -12 -19h34l7 9l13 -10l-7 -7v-19
q0 -17 1 -32l-13 -5v6h-50v-21h58l10 11l17 -18h-85v-18h60l6 9l16 -10l-8 -7q-3 -66 -11 -76t-22 -14q-4 13 -26 20l1 4q25 -5 29.5 -4t8.5 7.5t8 63.5h-62v-3l-13 -6q1 16 1 32v65q0 15 -1 30zM85 183v-19h50v19h-50zM85 208v-18h50v18h-50zM138.5 77q1.5 -7 -5 -12.5
t-7.5 6t-7 24.5l3 2q15 -13 16.5 -20zM69 86h3q1 -20 -3 -28.5t-13.5 -6.5t-0.5 10t14 25zM81 87l3 1q12 -15 13 -22.5t-6 -12.5t-7 6.5t-3 27.5zM99 90l3 2q11 -11 15 -18.5t-2.5 -15t-8 5.5t-7.5 26zM179 171q5 -33 9.5 -51.5t9.5 -34.5q7 18 12 42t8 53h-35zM203 233
q-3 -3 -5.5 -9.5t-12.5 -36.5h38l10 9l15 -17h-16q-4 -28 -9.5 -53.5t-17.5 -54.5q8 -17 20.5 -29t23.5 -18v-3q-9 2 -19 -7q-8 8 -17.5 21.5t-14.5 24.5q-12 -19 -24 -30.5t-28 -21.5l-2 5q11 8 25.5 25.5t22.5 34.5q-7 23 -11 42.5t-7 47.5q-8 -17 -16 -25l-3 3
q10 16 18.5 44.5t11.5 58.5z" />
  </g>

</svg>
