<?xml version="1.0" standalone="no"?>
<!DOCTYPE svg PUBLIC "-//W3C//DTD SVG 1.1//EN" "http://www.w3.org/Graphics/SVG/1.1/DTD/svg11.dtd" >
<svg xmlns="http://www.w3.org/2000/svg" xmlns:xlink="http://www.w3.org/1999/xlink" version="1.1" viewBox="0 -144 1024 1024">
  <g transform="matrix(1 0 0 -1 0 880)">
   <path fill="currentColor"
d="M258 408l-3 -45l-7 -46l-12 -44l-17 -43l-20 -40l-25 -38l-30 -36l-34 -33l-38 -31l-42 -29l-6 9l35 35l31 35l27 36l22 37l19 37l15 37l11 38l7 40l3 40v41v1v296l64 -33l351 60l250 51h1l4 1l2 -6l58 -48l2 -16l-24 12l-25 -5l-130 -21l-65 -9l-65 -8l-131 -14l-65 -5
l-65 -4l-65 -3h-33v-248v-1zM186 83l-3 18v2l150 20v442l61 -30l274 66l150 39l45 13l5 1l2 -6l55 -46l1 -16l-23 11l-19 -5l-103 -21l-103 -19l-103 -16l-52 -7l-52 -5l-19 -2l35 -46l45 -57l45 -53l7 -7l163 62l58 24l51 23l19 10l5 2l4 -11l43 -39l1 -17l-20 8l-56 -19
l-29 -8l-62 -16l-34 -8l-35 -8l-37 -6l-38 -6l-22 -2l30 -32l49 -46l50 -42l53 -38l54 -35l56 -30l89 -42l-61 -50l-60 32l-58 37l-56 40l-27 23l2 -8l-54 -15l-107 -26l-260 -56l-80 -16l-9 -18l-13 14l-2 10v2l-1 8v1l-1 4v2l-1 4l-2 11v1zM183 103l10 -63l-21 61z
M439 521l-21 -1l-20 -1v-387l151 19l54 6l56 5l53 4l-23 20l-50 48l-47 52l-45 55l-41 59l-38 64zM618 977l65 -11l16 -11l-16 -10v-64h166l54 54l65 -54v-22h-285v-71l-65 -32v103h-236v-71l-65 -32v103h-285v22h285v96l65 -11l16 -11l-16 -10v-64h236v96z" />
  </g>

</svg>
