<?xml version="1.0" standalone="no"?>
<!DOCTYPE svg PUBLIC "-//W3C//DTD SVG 1.1//EN" "http://www.w3.org/Graphics/SVG/1.1/DTD/svg11.dtd" >
<svg xmlns="http://www.w3.org/2000/svg" xmlns:xlink="http://www.w3.org/1999/xlink" version="1.1" viewBox="0 -36 256 256">
  <g transform="matrix(1 0 0 -1 0 220)">
   <path fill="currentColor"
d="M61 216l15 -10h66q-1 7 -4.5 16t-12.5 21l2 2q19 -11 25.5 -20.5t-3.5 -18.5h60l13 12l18 -19h-164q0 -45 -1 -76t-13 -59.5t-44 -54.5l-2 3q40 38 46 108q-28 -20 -37 -34l-13 15q17 5 50 24q0 67 -1 91zM44.5 167.5q5.5 -8.5 -2 -17t-10 6.5t-11.5 29l2 3
q16 -13 21.5 -21.5zM139 125l-15 -7q1 19 1 33h-19q-10 -1 -19 -3l-9 10h47q0 17 -1 35l21 -11l-7 -7v-17q0 -26 1 -33zM170 165q0 15 -1 28l20 -11l-6 -6v-17h30l13 11l13 -18h-56q0 -11 1 -25l-15 -6q1 22 1 44zM160 66h52l13 12l17 -19h-82v-12q0 -18 1 -36l-16 -5
q1 19 1 38v15h-44q-10 0 -19 -2l-9 9h72v31h-34q-12 0 -21 -2l-9 9h64q0 21 -1 30l22 -8l-7 -7v-15h43l13 11l16 -18h-72v-31z" />
  </g>

</svg>
