<?xml version="1.0" standalone="no"?>
<!DOCTYPE svg PUBLIC "-//W3C//DTD SVG 1.1//EN" "http://www.w3.org/Graphics/SVG/1.1/DTD/svg11.dtd" >
<svg xmlns="http://www.w3.org/2000/svg" xmlns:xlink="http://www.w3.org/1999/xlink" version="1.1" viewBox="0 -205 1024 1024">
  <g transform="matrix(1 0 0 -1 0 819)">
   <path fill="currentColor"
d="M458 582h316l32 38l60 -46l4 -8q0 -12 -12 -12h-312q-22 0 -70 -8l-18 36v0v0zM364 412h506l38 46l60 -52q3 -4 4 -10q1 -12 -10 -12h-276v-259q3 -46 -18 -68q-21 -23 -62 -32q-6 33 -36 44q-28 13 -82 34l6 16q89 -24 116 -22t24 46v241h-204q-18 0 -42 -8l-24 36v0v0z
M496 322q72 -35 72 -40q0 -6 -2 -8q-2 -3 -22 -6q-21 -4 -78 -70q-57 -65 -144 -137l-10 12q72 83 108 133q35 47 76 116v0v0zM748 310l8 12q65 -30 106 -60q39 -30 66 -60q27 -32 24 -61q-3 -30 -26 -34q-24 0 -36 32q-9 30 -42 75q-32 42 -100 96v0v0zM370 842h210
q36 75 52 130l76 -30q15 -12 -6 -18q-18 -6 -30 -20q-10 -13 -34 -62h228l40 44l56 -50l6 -8q4 -12 -12 -12h-232q21 -39 66 -86q42 -48 90 -80q45 -33 132 -44v-18q-36 3 -54 -6t-36 -30q-36 26 -74 58q-37 29 -80 86q-42 54 -68 120h-74q-45 -87 -126 -162
q-78 -75 -162 -114l-6 14q57 35 126 110q69 74 112 152h-116q-19 1 -62 -10l-22 36v0v0zM94 906l54 -40h104l32 40l50 -38q12 -6 12 -14q0 -3 -32 -30v-410l4 -88q0 -12 -14 -24q-13 -13 -38 -16v84h-124v-96q0 -12 -18 -24q-19 -12 -34 -12l4 130v538v0v0zM142 400h124v436
h-124v-436v0v0z" />
  </g>

</svg>
