<?xml version="1.0" standalone="no"?>
<!DOCTYPE svg PUBLIC "-//W3C//DTD SVG 1.1//EN" "http://www.w3.org/Graphics/SVG/1.1/DTD/svg11.dtd" >
<svg xmlns="http://www.w3.org/2000/svg" xmlns:xlink="http://www.w3.org/1999/xlink" version="1.1" viewBox="0 -205 1024 1024">
  <g transform="matrix(1 0 0 -1 0 819)">
   <path fill="currentColor"
d="M232 558v198h-118q-23 0 -46 -6l-24 36h188v186l84 -28l6 -6q0 -5 -6 -10l-34 -16v-756l4 -87q0 -13 -18 -24q-17 -13 -40 -14l4 129v142h-122q-23 -1 -52 -10l-18 38h192v200h-112q-25 0 -40 -6l-20 34h172v0v0zM402 970l84 -34q3 -6 4 -6q0 -5 -8 -10l-30 -16v-116h102
l42 42l62 -54v-8q-1 -10 -8 -10h-198v-200h88l32 40l60 -52q2 -4 2 -8q0 -9 -8 -8h-174v-198h98l38 44l60 -56q2 -3 2 -8q-1 -9 -10 -8h-188v-154l4 -75q1 -15 -16 -30q-18 -13 -42 -14l4 129v810v0v0zM708 848l86 -34q12 -9 0 -18l-36 -12v-382l4 -98q-2 -16 -22 -28
q-21 -12 -36 -12l4 134v450v0v0zM880 976l88 -38q9 -10 -2 -16l-38 -14v-758q3 -67 -20 -95q-24 -27 -62 -36q-16 32 -40 46q-22 16 -110 40l4 20q93 -18 120 -24q27 -5 42 4q18 10 18 35v836v0v0z" />
  </g>

</svg>
