<?xml version="1.0" standalone="no"?>
<!DOCTYPE svg PUBLIC "-//W3C//DTD SVG 1.1//EN" "http://www.w3.org/Graphics/SVG/1.1/DTD/svg11.dtd" >
<svg xmlns="http://www.w3.org/2000/svg" xmlns:xlink="http://www.w3.org/1999/xlink" version="1.1" viewBox="0 -36 256 256">
  <g transform="matrix(1 0 0 -1 0 220)">
   <path fill="currentColor"
d="M10 108l-2 3q27 24 40 48l14 -14l-9 -4q-22 -21 -43 -33zM89 160q27 -11 34.5 -18t4 -19.5t-10.5 1.5t-30 33zM53 101q9 -24 21 -38q12 17 20 38h-39h-2zM67 122q-5 -9 -9 -14h37l9 9l11 -15l-8 -4q-13 -30 -24 -44q22 -22 42 -24v-4q-15 -2 -17 -11q-18 9 -35 28
q-27 -24 -64 -34l-1 3q37 18 57 41q-10 21 -16 41q-17 -23 -39 -37l-2 3q32 33 50 79l16 -13zM66 246l21 -9l-7 -7v-25h16l12 11l15 -18h-43v-27h25l11 10l14 -17h-86q-17 -1 -26 -3l-9 10h58v27h-15q-10 0 -20 -2l-9 9h44q0 19 -1 41zM208 207h-45q-7 -12 -18 -28l8 -6h37
q12 24 18 34zM218 29.5q10 -0.5 10 8.5v46h-75q0 -19 -6.5 -39t-33.5 -38l-2 2q22 21 26 43t4 47v75q-8 -12 -21 -21l-2 2q20 26 31.5 52t14.5 40l19 -12q-8 -4 -17 -21h41l10 8l13 -15q-8 -4 -16.5 -12.5t-18.5 -21.5h32l7 9l13 -12l-6 -5v-132q1 -18 -18 -26q-2 15 -26 20
v4q11 -1 21 -1.5zM153 131h31v35h-31v-35zM197 131h31v35h-31v-35zM153 91h31v33h-31v-33zM197 91h31v33h-31v-33z" />
  </g>

</svg>
