<?xml version="1.0" standalone="no"?>
<!DOCTYPE svg PUBLIC "-//W3C//DTD SVG 1.1//EN" "http://www.w3.org/Graphics/SVG/1.1/DTD/svg11.dtd" >
<svg xmlns="http://www.w3.org/2000/svg" xmlns:xlink="http://www.w3.org/1999/xlink" version="1.1" viewBox="0 -205 1024 1024">
  <g transform="matrix(1 0 0 -1 0 819)">
   <path fill="currentColor"
d="M452 690h228l36 46l56 -52q3 -3 4 -8q0 -12 -12 -12h-228q-21 0 -68 -8l-16 34v0v0zM682 948q11 -9 -4 -14q-6 -3 -14 -8q44 -67 86 -110q41 -43 98 -74q54 -31 144 -40v-18q-42 -1 -60 -10q-18 -7 -32 -28q-36 18 -92 64q-55 44 -94 94q-36 48 -74 118
q-63 -81 -134 -156q-72 -76 -180 -154l-10 14q84 72 160 162q74 89 140 194l66 -34v0v0zM380 606l46 -38h132l28 36l54 -36q8 -3 8 -12q0 -7 -26 -20v-421q0 -32 -14 -50q-15 -17 -56 -32q-6 28 -32 44q-27 12 -54 20l4 16q33 -6 54 -10q24 -1 36 0q14 3 14 30v149h-146
v-120l4 -93q0 -12 -20 -24q-18 -12 -36 -12l4 123v450v0v0zM428 306h146v112h-146v-112v0v0zM428 442h146v100h-146v-100v0v0zM702 558l76 -32q6 0 6 -6q7 -6 -34 -24v-168l4 -80q0 -13 -18 -28q-19 -12 -38 -14l4 122v230v0v0zM832 598l72 -28q10 -4 8 -10q0 -4 -32 -20
v-429q3 -42 -18 -64q-21 -19 -60 -32q-5 32 -34 46q-28 15 -74 30l6 18q52 -12 80 -18q27 -3 40 2q13 7 12 22v483v0v0zM50 744h154v220l78 -34q9 -6 6 -12q-3 -5 -36 -16v-158h52l32 46l54 -54q2 -4 2 -8q1 -10 -10 -10h-130v-208l88 48l10 -16l-98 -66v-351q2 -36 -16 -60
q-15 -23 -60 -38q-6 34 -36 50q-28 14 -76 28l4 18q93 -22 114 -18q21 3 22 32v309l-60 -40q-43 -34 -52 -58l-54 52l166 86v232h-76q-24 0 -54 -8l-24 34v0v0z" />
  </g>

</svg>
