<?xml version="1.0" standalone="no"?>
<!DOCTYPE svg PUBLIC "-//W3C//DTD SVG 1.1//EN" "http://www.w3.org/Graphics/SVG/1.1/DTD/svg11.dtd" >
<svg xmlns="http://www.w3.org/2000/svg" xmlns:xlink="http://www.w3.org/1999/xlink" version="1.1" viewBox="0 -36 256 256">
  <g transform="matrix(1 0 0 -1 0 220)">
   <path fill="currentColor"
d="M44 73l40 9v34h-40v-43zM98 79q0 -42 1 -60l-16 -9q1 28 1 65q-56 -19 -65 -28l-10 18q11 2 21 5v146v-1q-4 0 -14 -3l-9 10h88l11 12l17 -19h-25v-136zM44 173h40v42h-40v-42zM44 166v-43h40v43h-40zM181 120v-91q-1 -18 -21 -22q-2 13 -27 19v5q24 -3 29 -2.5t5 7.5v83
q-13 -1 -26.5 -4.5t-20.5 -7.5l-10 20q8 0 25.5 13t42.5 35q-22 -4 -33 -7t-19 -6l-10 18q12 4 27 23.5t23 40.5l20 -12q-10 -7 -22.5 -21.5t-31.5 -31.5l51 2q15 16 24 30l17 -14q-12 -7 -32 -25t-64 -46l90 4q-4 10 -18 27l3 3q22 -17 29 -23.5t8.5 -15t-5 -15t-8 0
t-6.5 16.5q-12 -1 -40 -3zM148 79q-21 -37 -43 -54l-3 2q25 34 34 70l20 -13zM236.5 56.5q6.5 -12.5 0 -22.5t-13.5 8.5t-32 48.5l4 3q35 -25 41.5 -37.5z" />
  </g>

</svg>
