<?xml version="1.0" standalone="no"?>
<!DOCTYPE svg PUBLIC "-//W3C//DTD SVG 1.1//EN" "http://www.w3.org/Graphics/SVG/1.1/DTD/svg11.dtd" >
<svg xmlns="http://www.w3.org/2000/svg" xmlns:xlink="http://www.w3.org/1999/xlink" version="1.1" viewBox="0 -205 1024 1024">
  <g transform="matrix(1 0 0 -1 0 819)">
   <path fill="currentColor"
d="M530 942q12 -8 -2 -16q-27 -8 -42 -52q-32 -74 -82 -172l44 -16q13 -4 14 -10q12 -10 -26 -20v-506l4 -85q1 -13 -22 -26q-20 -13 -34 -12l4 117v518q-39 -64 -72 -94l-12 8q42 69 88 192q45 123 66 204l72 -30v0v0zM496 748l70 -32q6 -3 6 -6q1 -6 -4 -8l-24 -12v-384
l4 -78q0 -16 -20 -28q-18 -14 -36 -12l4 118v442v0v0zM638 534l50 -24h170l28 28l44 -34q8 -3 8 -12q1 -3 -22 -20v-373q0 -27 -12 -48q-13 -18 -58 -34q-7 40 -34 52q-25 10 -70 22l4 18q50 -9 70 -10q21 -1 36 0q14 2 14 28v107h-178v-94l4 -79q0 -14 -20 -26
q-19 -12 -38 -12l4 102v409v0v0zM688 260h178v98h-178v-98v0v0zM688 384h178v100h-178v-100v0v0zM766 958q15 -11 -2 -16q-16 -5 -26 -16q-10 -10 -28 -44h148l26 34l60 -48q9 -7 6 -8q3 -9 -12 -12q-15 -4 -24 -10q-9 -4 -36 -50t-78 -106q29 -27 64 -44q32 -18 56 -26
q20 -6 74 -12v-18q-36 -2 -50 -10q-13 -9 -22 -24q-38 19 -76 44q-36 24 -74 60q-94 -81 -200 -126l-8 14q115 69 182 144q-40 54 -76 130q-27 -66 -66 -108l-12 6q26 54 56 132q29 78 50 144l68 -30v0v0zM696 858l-10 -18q24 -52 84 -128q48 56 90 146h-164v0v0zM22 742
h154v238l84 -34q11 -7 2 -16l-38 -18v-170h36l32 40l44 -48q2 -4 2 -8q3 -12 -8 -12h-106v-108q45 -21 72 -42q24 -21 30 -42q7 -21 -4 -36q-9 -15 -26 -12q-15 2 -20 26q-4 23 -16 44q-12 18 -36 40v-432l4 -87q0 -14 -20 -28q-18 -15 -36 -16l4 133v378q-22 -68 -58 -142
q-37 -73 -88 -130l-10 8q33 63 58 114q21 48 52 136q27 87 46 196h-86q-16 0 -46 -8l-22 36v0v0z" />
  </g>

</svg>
