<?xml version="1.0" standalone="no"?>
<!DOCTYPE svg PUBLIC "-//W3C//DTD SVG 1.1//EN" "http://www.w3.org/Graphics/SVG/1.1/DTD/svg11.dtd" >
<svg xmlns="http://www.w3.org/2000/svg" xmlns:xlink="http://www.w3.org/1999/xlink" version="1.1" viewBox="0 -205 1024 1024">
  <g transform="matrix(1 0 0 -1 0 819)">
   <path fill="currentColor"
d="M708 460q6 -9 -8 -8h-84v-162l4 -88q-1 -13 -22 -28q-21 -16 -32 -14l4 130v162h-90q1 -69 -10 -138q-13 -67 -52 -130t-108 -111l-8 12q63 63 90 123q26 60 34 114q10 53 8 130h-30q-21 0 -32 -8l-16 34h78v204l70 -24l6 -4q3 -8 0 -10l-30 -18v-144v-4h90v200l74 -32
l6 -6q-1 -6 -4 -8l-30 -14v-140h28l22 28q36 -35 42 -46v0v0zM936 796l56 -56q2 -4 2 -8q0 -9 -8 -8h-232q2 -124 10 -218q8 -92 28 -160q30 54 54 144q21 89 34 160l66 -36q8 -3 8 -12q1 -3 -10 -12q-21 0 -32 -36q-9 -34 -36 -116q-24 -82 -66 -140q15 -40 40 -80
q24 -39 48 -68q24 -26 30 -27q6 1 12 41q5 39 20 126l18 -2q-7 -99 -4 -140q3 -38 12 -63q9 -23 12 -32q4 -8 2 -16q-4 -7 -16 -6q-13 0 -38 14q-23 13 -46 34q-21 19 -60 71q-39 51 -56 102q-51 -70 -104 -113q-54 -45 -132 -90l-8 16q63 46 124 107q58 61 98 122
q-37 113 -44 212q-7 98 -14 218h-230q-17 -2 -40 -10l-16 36h284v236q86 -31 86 -34v-8t-36 -20v-174h150l34 46v0v0zM794 924l6 12q60 -21 90 -42t34 -42q4 -19 -6 -34q-12 -17 -26 -12q-15 2 -24 26q-10 21 -22 42q-13 19 -52 50v0v0zM24 718h162v264l82 -34q17 -9 2 -18
l-34 -12v-200h62l30 38l50 -46q13 -15 -4 -20h-138v-66q42 -31 66 -52q23 -18 34 -42q9 -23 0 -40q-10 -19 -28 -16q-16 -1 -22 26q-7 24 -16 48q-10 21 -34 54v-452l2 -89q0 -14 -18 -28q-19 -14 -38 -14l4 131v354q-33 -89 -74 -172q-42 -84 -78 -134l-12 10q26 57 62 142
q33 82 60 170q24 86 40 170h-104q-6 0 -36 -8l-20 36v0v0z" />
  </g>

</svg>
