<?xml version="1.0" standalone="no"?>
<!DOCTYPE svg PUBLIC "-//W3C//DTD SVG 1.1//EN" "http://www.w3.org/Graphics/SVG/1.1/DTD/svg11.dtd" >
<svg xmlns="http://www.w3.org/2000/svg" xmlns:xlink="http://www.w3.org/1999/xlink" version="1.1" viewBox="0 -36 256 256">
  <g transform="matrix(1 0 0 -1 0 220)">
   <path fill="currentColor"
d="M41 241l16 -8h57l11 11l15 -18h-84v-12h52l10 9l14 -16h-76v-12h51l10 10l14 -17h-75v-9h67l10 9l17 -16h-80l10 -9q-8 0 -17 -6.5t-21 -11.5l72 2q-8 7 -19 15l2 2q28 -8 33.5 -14t1 -13t-8 -2.5t-6.5 8.5q-21 -2 -49.5 -6t-35.5 -7l-11 15q11 2 23 11t16 16h-22
q-11 -1 -20 -3l-10 10h34q0 41 -1 62zM230 231q-8 -2 -33 -13t-59 -21l-1 4q27 11 50 24.5t27 20.5zM241 195q-6 0 -34.5 -10t-56.5 -16l-1 4q28 10 49 20t30 18zM247 161q-10 -1 -36.5 -10.5t-71.5 -16.5l-1 4q40 10 64 21t31 17zM104 120l8 10l14 -11l-7 -8v-75
q0 -20 -19 -26q-5 14 -32 20v4q25 -2 31 -2t6 7v25q-21 -9 -42 -19.5t-29 -15.5l-14 16q10 1 36 9t49 16v43h-47q-11 0 -21 -2l-10 9h77zM209 120l9 11l15 -13l-8 -7v-79q0 -18 -19 -24q-4 14 -34 20v4q26 -2 32.5 -2t6.5 7v29q-16 -8 -38.5 -18.5t-29.5 -16.5l-13 16
q12 2 36 9.5t45 16.5v40h-46q-11 0 -21 -2l-9 9h74zM169 94.5q7 -3.5 9.5 -7.5t-0.5 -12.5t-11 2t-25 20.5l1 3q19 -2 26 -5.5zM67.5 95.5q8.5 -3.5 10.5 -9t-1.5 -13t-10.5 2.5t-26 23l2 2q17 -2 25.5 -5.5z" />
  </g>

</svg>
