<?xml version="1.0" standalone="no"?>
<!DOCTYPE svg PUBLIC "-//W3C//DTD SVG 1.1//EN" "http://www.w3.org/Graphics/SVG/1.1/DTD/svg11.dtd" >
<svg xmlns="http://www.w3.org/2000/svg" xmlns:xlink="http://www.w3.org/1999/xlink" version="1.1" viewBox="0 -52 256 256">
  <g transform="matrix(1 0 0 -1 0 204)">
   <path fill="currentColor"
d="M40 179l10 -12h153l9 10l13 -12q2 -2 1 -3q0 -1 -2 -1l-5 -3v-117l1 -20q2 -10 -12 -11v16h-156v-8q0 -10 -13 -11v9q1 17 1 29v120q0 6 -4 11zM52 31h156v131h-156v-131zM47 253l23 -12q2 -2 -1 -2q-4 0 -9 -2q-4 -10 -9 -19h61l8 10l17 -12l2 -2q0 -1 -3 -1h-60
q8 -3 12 -8q20 -19 4 -27q-4 0 -5 6q-1 8 -4 12q-1 5 -6 9q-2 3 -8 8h-21q-18 -30 -40 -51l-4 2q26 33 36 54q11 23 9 26q0 1 -2 5l-2 2zM156 252l23 -11q2 -1 -1 -3q-6 1 -9 -2q-4 -9 -9 -16h63l9 11l17 -14q5 -3 -1 -2h-68q6 -5 11 -8q20 -19 5 -28q-4 0 -6 7q0 6 -3 11
q-3 6 -6 9l-9 9h-15q-18 -26 -37 -41l-3 3q18 18 31 42q11 21 10 24q-1 4 -4 7z" />
  </g>

</svg>
