<?xml version="1.0" standalone="no"?>
<!DOCTYPE svg PUBLIC "-//W3C//DTD SVG 1.1//EN" "http://www.w3.org/Graphics/SVG/1.1/DTD/svg11.dtd" >
<svg xmlns="http://www.w3.org/2000/svg" xmlns:xlink="http://www.w3.org/1999/xlink" version="1.1" viewBox="0 -36 256 256">
  <g transform="matrix(1 0 0 -1 0 220)">
   <path fill="currentColor"
d="M130 119h48l13 11l16 -18h-77v-20h78l11 10l16 -17h-92v-55q0 -8 14 -7h61q9 2 10 11.5t1 18.5h5q0 -10 1 -18t9 -11q-7 -11 -25 -11h-65q-24 -1 -24 16v56h-24q-4 -61 -84 -78l-2 3q72 23 73 75h-39q-13 0 -22 -3l-11 10h96v20h-34q-13 0 -22 -3l-10 10h66v24h-51
q-16 1 -27 -2l-9 9h114q13 16 19 32l20 -10q-9 -2 -17.5 -10t-15.5 -12h42l14 12l17 -19h-93v-24zM196 77q-7 -3 -36 -28l42 2q-3 6 -11 13l2 3q13 -7 20.5 -12.5t3.5 -17t-12 9.5q-12 -2 -25.5 -4.5t-24.5 -7.5l-10 15q10 1 21 14.5t13 21.5zM70 179q31 -10 34 -16.5
t-5 -11t-11.5 4t-20.5 21.5zM70 230l-10 -17h51l12 11l15 -18h-62q26 -12 27.5 -18t-4 -12.5t-9.5 4.5t-22 26h-12q-18 -25 -38 -41l-3 2q13 17 24.5 36.5t19.5 43.5l22 -13zM170 232l-11 -19h51l12 12l16 -19h-60q21 -8 26.5 -12.5t3.5 -11t-6.5 -7t-8.5 7.5t-22 23h-16
q-11 -16 -27 -33l-4 2q18 28 24.5 44.5t10.5 27.5l20 -12z" />
  </g>

</svg>
