<?xml version="1.0" standalone="no"?>
<!DOCTYPE svg PUBLIC "-//W3C//DTD SVG 1.1//EN" "http://www.w3.org/Graphics/SVG/1.1/DTD/svg11.dtd" >
<svg xmlns="http://www.w3.org/2000/svg" xmlns:xlink="http://www.w3.org/1999/xlink" version="1.1" viewBox="0 -36 256 256">
  <g transform="matrix(1 0 0 -1 0 220)">
   <path fill="currentColor"
d="M34 205l14 -8h34v28h-28q-11 0 -21 -2l-9 9h57l7 9l16 -10l-9 -7q0 -18 1 -36l-14 -4v6h-36l-4 -29h40l7 8l16 -10l-8 -7q-6 -30 -12 -40t-24 -16q0 11 -24 18l1 4q16 -3 23 -3.5t12 4.5t10 35h-41l-8 -8l-13 11l7 5q3 14 6 43zM202 236l12 10l17 -17h-97q-11 0 -20 -1
l-8 8h96zM118 204q0 11 -1 22l14 -6h70l6 8l14 -8l-5 -6v-14q0 -11 1 -18l-15 -4v3h-71v-1l-14 -4q1 17 1 28zM214 174l10 8l13 -15h-110q-12 0 -18 -2l-10 9h115zM216 117l-14 -5v4h-72v-3l-14 -2q1 18 1 28.5t-1 23.5l14 -4h71l6 7l14 -8l-6 -7v-14q0 -13 1 -20zM131 205
h29v8h-29v-8zM173 205h29v8h-29v-8zM131 188h29v10h-29v-10zM173 188h29v10h-29v-10zM130 141h30v11h-30v-11zM173 141h29v11h-29v-11zM173 123h29v11h-29v-11zM130 123h30v11h-30v-11zM212 107l11 10l15 -17h-111q-11 0 -18 -2l-10 9h113zM120 79h78l6 10l18 -12l-7 -5
q-7 -37 -13 -48.5t-28 -16.5q0 11 -35 16v5q38 -4 47 -1t14 45h-81q-6 -24 -22 -36t-34.5 -18t-42.5 -10l-1 4q42 10 60.5 24.5t23.5 35.5h-50q-11 0 -22 -2l-10 9h83q2 13 2 19l24 -6l-9 -5z" />
  </g>

</svg>
