<?xml version="1.0" standalone="no"?>
<!DOCTYPE svg PUBLIC "-//W3C//DTD SVG 1.1//EN" "http://www.w3.org/Graphics/SVG/1.1/DTD/svg11.dtd" >
<svg xmlns="http://www.w3.org/2000/svg" xmlns:xlink="http://www.w3.org/1999/xlink" version="1.1" viewBox="0 -205 1024 1024">
  <g transform="matrix(1 0 0 -1 0 819)">
   <path fill="currentColor"
d="M640 948q17 -12 -16 -20q-16 -7 -32 -22q-24 -36 -42 -62h186l32 34q57 -52 60 -52q6 -6 6 -12q-1 -6 -26 -14q-21 -3 -50 -32q-52 -48 -82 -92h146l26 38l58 -38q7 -4 8 -10q0 -4 -30 -22v-150l4 -76q0 -16 -18 -28q-18 -13 -36 -14v54h-108v-264q-1 -35 4 -47
q6 -12 18 -12q12 -2 36 -2h72q29 0 44 18q12 14 18 37q5 21 10 144h20q0 -93 6 -120q6 -28 30 -38q-13 -35 -34 -57q-21 -20 -78 -26h-114q-39 0 -54 6q-12 7 -20 22q-6 14 -6 46v293h-26q-18 -84 -60 -150q-40 -66 -112 -138q-73 -67 -188 -131l-8 16q110 76 166 135
q57 60 96 126q42 66 60 142h-132v-30q0 -14 -18 -28q-15 -14 -36 -16l4 112v202q-24 -31 -62 -64l-14 10q47 60 104 148q54 89 114 224l74 -40v0v0zM474 456h136q12 68 18 194h-154v-194v0v0zM658 456h176v194h-158q-6 -121 -18 -194v0v0v0zM448 696l24 -20h170l98 142h-206
q-45 -66 -86 -122v0v0v0zM60 744h158v230l80 -36q10 -7 2 -10q-1 -5 -34 -22v-162h44l36 50l52 -54q2 -3 2 -8q1 -12 -10 -12h-124v-192l112 64l10 -16l-122 -82v-363q0 -39 -20 -58q-21 -20 -56 -34q-9 40 -36 52q-24 11 -80 28l4 20q56 -12 80 -16t42 -2q15 4 18 29v316
l-56 -42q-51 -36 -68 -72l-52 58l176 94v216h-78q-20 0 -64 -8l-16 32v0v0z" />
  </g>

</svg>
