<?xml version="1.0" standalone="no"?>
<!DOCTYPE svg PUBLIC "-//W3C//DTD SVG 1.1//EN" "http://www.w3.org/Graphics/SVG/1.1/DTD/svg11.dtd" >
<svg xmlns="http://www.w3.org/2000/svg" xmlns:xlink="http://www.w3.org/1999/xlink" version="1.1" viewBox="0 -36 256 256">
  <g transform="matrix(1 0 0 -1 0 220)">
   <path fill="currentColor"
d="M99 87q0 46 -1 70l15 -7h48v23h-18v-6l-15 -6q1 20 1 43h-14q-10 0 -18 -2l-9 9h41v36l23 -10l-9 -6v-20h51v35l23 -11l-10 -6v-18h15l12 11l14 -18h-41q0 -22 1 -33l-14 -8v10h-21v-23h48l7 10l17 -14l-9 -6v-111q0 -16 -21 -21q0 11 -26 15v5q16 -1 25.5 -1t9.5 12v104
h-51v-119l-12 -8v127h-49v-125l-14 -9q1 32 1 78zM194 204h-51v-24h51v24zM146.5 89q-9.5 -15 -19.5 -31l22 2q-1 10 -4 17l2 2q8 -9 11.5 -17.5t1.5 -14t-6 -5.5t-4 13q-12 -3 -19 -5t-9 -7l-8 16q7 0 11.5 8t10.5 21q-14 -3 -18 -7l-6 14q6 0 11.5 12t8.5 30l14 -12l-6 -3
q-4 -8 -8 -14l-10 -15h17q6 13 9 22l11 -10q-3 -1 -12.5 -16zM208.5 91q-7.5 -13 -22.5 -29l25 1l-9 18l3 1q6 -6 12 -14t5 -13.5t-4 -8t-4 3t-2 9.5q-10 -3 -17 -5t-13 -6l-7 15q5 1 10.5 7t14.5 22q-9 -2 -13.5 -4t-7.5 -5l-6 14q5 -1 12 14t10 29l13 -11l-6 -4
q-10 -18 -18 -29l18 1q4 8 7 19l13 -10q-6 -2 -13.5 -15zM15 69l3 2q19 -29 18.5 -36.5t-8 -13.5t-7 5.5t-6.5 42.5zM37 75l2 3q22 -21 24 -31.5t-4.5 -14t-8.5 6t-13 36.5zM63 86q25 -19 27.5 -27t-4 -15t-9 4.5t-16.5 34.5zM61 227q-16 -32 -36 -57l38 1q7 12 12 25
l18 -15l-9 -2q-38 -51 -60 -72l50 4q-4 13 -13 27l2 3q30 -26 30 -35.5t-6 -13.5t-7.5 1.5t-4.5 12.5q-22 -5 -35.5 -9t-23.5 -9l-7 19q7 -1 21 16t29 42q-31 -6 -40 -13l-8 19q7 -2 19.5 22t20.5 50l20 -11z" />
  </g>

</svg>
