<?xml version="1.0" standalone="no"?>
<!DOCTYPE svg PUBLIC "-//W3C//DTD SVG 1.1//EN" "http://www.w3.org/Graphics/SVG/1.1/DTD/svg11.dtd" >
<svg xmlns="http://www.w3.org/2000/svg" xmlns:xlink="http://www.w3.org/1999/xlink" version="1.1" viewBox="0 -205 1024 1024">
  <g transform="matrix(1 0 0 -1 0 819)">
   <path fill="currentColor"
d="M356 744h178v242l84 -30q7 -4 8 -10q0 -2 -42 -22v-180h258l36 44l62 -52q3 -3 4 -8q0 -12 -12 -12h-240v-166q110 62 166 122l48 -44q10 -12 6 -14l-10 -2h-10q-6 0 -42 -14q-36 -13 -158 -76v-128q119 78 176 136l52 -48q3 -6 -2 -8q-3 -4 -14 -4h-18q-9 -1 -32 -14
q-21 -12 -162 -86v-130q75 51 192 160q51 -45 54 -50q3 -6 0 -8q-1 -4 -16 -4q-15 1 -26 -4q-12 -5 -60 -40q-48 -36 -144 -90v-95q-1 -24 28 -24h160q26 1 38 16q11 15 14 36q2 17 10 135h20q3 -102 10 -126q5 -22 28 -35q-6 -24 -20 -42q-15 -20 -60 -26h-206
q-39 0 -54 12q-15 15 -18 50v77q-73 -31 -130 -47l-4 15q41 16 134 68v498h-58q-6 -213 -24 -314q-15 -99 -78 -204q-61 -101 -190 -183l-10 16q105 79 160 179q52 99 68 186q16 88 26 320h-104q-18 0 -54 -8l-22 36v0v0zM690 938l8 12q45 -19 76 -38q29 -17 44 -40
q15 -24 10 -44q-5 -19 -16 -26q-12 -6 -24 -2q-12 3 -20 30q-7 24 -22 48q-13 21 -56 60v0v0zM38 860h306l38 50l60 -58q12 -15 -8 -18h-170q-28 -124 -70 -256h122l32 36l54 -46q6 -6 6 -8q0 -6 -32 -30v-300l4 -44q2 -16 -16 -28q-18 -14 -36 -16v78h-136v-74
q0 -17 -20 -27q-21 -12 -32 -12l4 101v250q-34 -78 -94 -150l-10 8q51 104 96 230q42 123 76 288h-86q-22 0 -70 -8l-18 34v0v0zM192 246h136v306h-136v-306v0v0z" />
  </g>

</svg>
