<?xml version="1.0" standalone="no"?>
<!DOCTYPE svg PUBLIC "-//W3C//DTD SVG 1.1//EN" "http://www.w3.org/Graphics/SVG/1.1/DTD/svg11.dtd" >
<svg xmlns="http://www.w3.org/2000/svg" xmlns:xlink="http://www.w3.org/1999/xlink" version="1.1" viewBox="0 -144 1024 1024">
  <g transform="matrix(1 0 0 -1 0 880)">
   <path fill="currentColor"
d="M176 490l26 -2l-5 -62l-7 -58l-10 -55l-13 -50l-15 -47l-19 -41l-20 -38l-24 -32l-26 -27l-30 -22l-6 7l20 28l19 30l16 33l14 37l12 40l10 44l8 48l6 51l5 57l1 59h-43l-43 -22v382l65 -33h37l6 26l22 73l20 62l4 10l56 -33l10 -17l-22 -2l-46 -72l-22 -31l-12 -16h151
l32 27l59 -48l-27 -22v-274l-64 -32v22h-32v-339h-65v339h-48zM310 65l-14 1l-13 2l-13 4l-12 7l-11 9l-9 11l-7 12l-4 13l-2 13l-1 14h65v-7l1 -4l1 -5l3 -2l4 -2l5 -1l7 -1h598l31 135h11l-10 -135l19 -13l12 -19l-12 -19l-20 -13h-629zM611 843l-45 -4l-43 -3l-43 -1h-46
l-1 9l44 11l161 37l106 28l63 19l2 -7l54 -45l1 -16l-22 10l-18 -4l-33 -7l-70 -12l-37 -6l-8 -1v-211l-1 -16h98l53 54l65 -54v-22h-217l-3 -30l-6 -52l2 2l26 -20l24 -19l43 -43l20 -21l33 -44l29 -45l13 -22v-25l-17 -18h-25l-17 17l-8 21l-20 44l-26 45l-30 47l-49 70
v-1l-12 -60l-18 -57l-21 -53l-27 -48l-30 -45l-35 -39l-40 -35l-43 -29l-6 8l36 36l31 39l28 41l24 43l20 47l16 50l12 53l8 57l5 61v25h-177v22h177v219zM187 651h-70v-140h70v140zM321 651h-70v-140h70v140zM187 796h-70v-124h70v124zM321 796h-70v-124h70v124z" />
  </g>

</svg>
