<?xml version="1.0" standalone="no"?>
<!DOCTYPE svg PUBLIC "-//W3C//DTD SVG 1.1//EN" "http://www.w3.org/Graphics/SVG/1.1/DTD/svg11.dtd" >
<svg xmlns="http://www.w3.org/2000/svg" xmlns:xlink="http://www.w3.org/1999/xlink" version="1.1" viewBox="0 -205 1024 1024">
  <g transform="matrix(1 0 0 -1 0 819)">
   <path fill="currentColor"
d="M710 916l78 -34q3 -5 4 -10q0 -3 -32 -20v-610l4 -98q-2 -14 -22 -27q-21 -12 -36 -12l4 133v678v0v0zM902 960l86 -34q3 -5 4 -10q1 -3 -40 -24v-734l4 -97q-2 -14 -22 -26q-21 -12 -36 -12l4 131v806v0v0zM536 964l76 -32q13 -6 8 -12q2 -6 -34 -18v-304
q-1 -286 -46 -392q-46 -104 -190 -193l-10 14q113 87 154 189q42 99 42 382v366v0v0zM474 698h18q10 -94 2 -134q-7 -38 -22 -52q-12 -15 -30 -14q-16 -1 -22 14q-8 12 6 30q11 15 26 40q14 23 22 116v0v0zM772 666l12 8q69 -64 82 -94q12 -30 10 -48q-1 -15 -14 -24
q-12 -10 -24 -4q-12 3 -14 24q-1 18 -8 46q-6 28 -44 92v0v0zM594 680l12 8q62 -64 74 -94t10 -48q-1 -15 -14 -24q-12 -10 -24 -4q-12 3 -14 24q0 18 -6 46q-3 28 -38 92v0v0zM350 794l34 46l58 -52q3 -3 4 -8q0 -12 -12 -12h-350q-18 1 -42 -10l-24 36h332v0v0zM66 662
h242l32 44l58 -50q2 -3 2 -8q0 -12 -12 -12h-232q-37 0 -68 -8l-22 34v0v0zM94 442l60 -44h146l28 34l58 -44q6 -6 6 -8q0 -6 -32 -30v-146l4 -81q1 -12 -16 -24q-15 -12 -36 -16v81h-168v-61q0 -18 -18 -30q-18 -14 -36 -14l4 119v264v0v0zM144 190h168v182h-168v-182v0v0z
M140 976l10 10q84 -55 102 -82q19 -27 18 -48q0 -22 -12 -32q-13 -11 -28 -6q-16 3 -20 22q-2 19 -10 44q-6 25 -60 92v0v0zM66 530h242l30 46l60 -52q2 -3 2 -8q0 -12 -12 -12h-246q-34 0 -58 -8l-18 34v0v0z" />
  </g>

</svg>
