<?xml version="1.0" standalone="no"?>
<!DOCTYPE svg PUBLIC "-//W3C//DTD SVG 1.1//EN" "http://www.w3.org/Graphics/SVG/1.1/DTD/svg11.dtd" >
<svg xmlns="http://www.w3.org/2000/svg" xmlns:xlink="http://www.w3.org/1999/xlink" version="1.1" viewBox="0 -205 1024 1024">
  <g transform="matrix(1 0 0 -1 0 819)">
   <path fill="currentColor"
d="M734 666q2 -6 2 -8l-6 -8l-30 -18v-66h186l36 46l54 -54q3 -3 4 -8q-1 -12 -16 -12h-264v-144h118l36 42l54 -40q12 -7 12 -14q1 -7 -34 -28v-202l4 -87q2 -10 -16 -20q-18 -12 -36 -12v72h-314v-48q0 -13 -14 -24q-15 -11 -38 -14l4 121v298l56 -44h118v144h-182
q-21 0 -68 -8l-16 36h266v132l84 -32v0v0zM524 133h314v235h-314v-235v0v0zM374 820h154v150l80 -26q6 -3 6 -6q7 -4 -34 -22v-96h196v154l80 -28q6 -3 4 -12q0 -3 -32 -18v-96h62l36 48l58 -54q2 -3 2 -8q0 -12 -12 -12h-146v-48l4 -42q-6 -19 -26 -28q-20 -10 -34 -10
l4 80v48h-196v-56l4 -44q-1 -12 -22 -24q-21 -9 -38 -12l4 76v60h-76q-19 0 -56 -8l-22 34v0v0zM28 748h172v228l64 -30q22 -8 12 -22l-28 -14v-162h64l30 40l50 -48q3 -3 4 -8q0 -12 -14 -12h-134v-96q69 -37 96 -62q27 -23 34 -46q7 -22 0 -40q-9 -19 -26 -20
q-18 0 -24 24q-4 24 -22 54q-16 30 -58 66v-426l4 -107q0 -14 -18 -26t-38 -12l4 147v360q-30 -84 -74 -164q-44 -79 -94 -136l-10 10q38 63 68 126q27 62 58 152t50 196h-102q-6 0 -48 -8l-20 36v0v0z" />
  </g>

</svg>
