<?xml version="1.0" standalone="no"?>
<!DOCTYPE svg PUBLIC "-//W3C//DTD SVG 1.1//EN" "http://www.w3.org/Graphics/SVG/1.1/DTD/svg11.dtd" >
<svg xmlns="http://www.w3.org/2000/svg" xmlns:xlink="http://www.w3.org/1999/xlink" version="1.1" viewBox="0 -205 1024 1024">
  <g transform="matrix(1 0 0 -1 0 819)">
   <path fill="currentColor"
d="M406 534h480l38 48l56 -56q6 -7 6 -10q-3 -6 -8 -6h-298q-35 -30 -64 -54q63 -49 96 -100q92 57 164 118q54 -42 54 -48q1 -7 -4 -8q-6 -1 -20 2q-15 1 -48 -16q-31 -18 -80 -38q36 -69 66 -104q29 -36 62 -56q33 -21 108 -38v-16q-15 -1 -38 -4q-21 -3 -48 -29
q-31 23 -56 49q-25 24 -52 64q-24 39 -60 124l-36 -18q27 -60 34 -104q7 -43 2 -94q-5 -49 -40 -83q-36 -29 -80 -44q-4 27 -28 42q-24 16 -74 32l4 16q53 -12 80 -16q27 -1 48 6q22 7 32 40q9 30 10 75q-1 44 -14 76q-72 -71 -138 -118q-63 -44 -168 -99l-6 14
q96 63 156 115q60 51 138 136q-6 27 -24 46q-57 -54 -116 -96q-57 -42 -144 -84l-8 12q75 51 120 88q44 35 122 116l-30 28q-54 -39 -96 -62q-39 -23 -84 -40l-8 12q66 40 108 74q39 33 90 84h-108q-33 0 -80 -8l-16 32v0v0zM898 728l30 32q65 -50 62 -58q-3 -6 -18 -8
q-30 -12 -44 -24q-12 -10 -48 -44l-14 8l40 70h-418q0 -45 -12 -68q-11 -22 -28 -28q-18 -7 -30 -2q-14 5 -12 20q0 15 18 30q17 15 26 42q9 26 12 74h22l2 -44h412v0v0zM516 634h234l36 40q58 -52 56 -58q0 -6 -12 -6h-254q-21 0 -44 -8l-16 32v0v0zM426 850h158v120
l68 -22q8 -2 8 -4q2 -9 -4 -14l-22 -14v-66h120v118l74 -26q6 -6 6 -8q-1 -3 -4 -6l-28 -18v-60h92l32 42l56 -50l6 -4q6 -12 -8 -14h-178v-40q1 -12 -16 -20q-13 -7 -32 -8v68h-120v-40q-1 -12 -16 -20q-13 -7 -34 -8v68h-86q-33 0 -56 -8l-16 34v0v0zM334 682l50 -38
q15 -9 4 -20l-20 -16v-200l4 -76q0 -12 -18 -24q-18 -9 -32 -12v44h-166v-205l144 75q-24 38 -54 68l10 14q51 -30 84 -60t42 -56q8 -27 2 -45q-7 -20 -26 -20q-17 -1 -22 16t-10 29q-4 11 -16 34q-111 -77 -132 -93q-19 -16 -56 -56l-56 56q36 21 42 36v511
q-48 -84 -90 -126l-12 10q68 114 118 220q47 103 92 236l68 -30q12 -8 4 -16q-22 -3 -34 -20q71 -39 104 -66q30 -27 40 -48q8 -21 2 -42q-6 -18 -24 -20q-17 0 -28 24t-28 60q-17 32 -76 74q-30 -60 -54 -110q-24 -48 -62 -114l26 -26h156l24 32v0v0zM156 622v-114h166v114
h-166v0v0zM156 482v-116h166v116h-166v0v0zM204 800l10 10q48 -31 66 -58q15 -28 10 -50q-7 -20 -20 -22q-12 -3 -20 4q-7 5 -10 22q-1 17 -8 40q-5 24 -28 54v0v0z" />
  </g>

</svg>
