<?xml version="1.0" standalone="no"?>
<!DOCTYPE svg PUBLIC "-//W3C//DTD SVG 1.1//EN" "http://www.w3.org/Graphics/SVG/1.1/DTD/svg11.dtd" >
<svg xmlns="http://www.w3.org/2000/svg" xmlns:xlink="http://www.w3.org/1999/xlink" version="1.1" viewBox="0 -205 1024 1024">
  <g transform="matrix(1 0 0 -1 0 819)">
   <path fill="currentColor"
d="M64 808h224v160l86 -34q1 -4 2 -4q0 -5 -8 -10l-30 -14v-98h94l36 44q54 -50 60 -58q3 -12 -12 -12h-178v-52q67 -18 104 -36q35 -18 46 -42q9 -22 0 -38t-26 -16q-18 0 -26 24q-9 23 -30 44q-22 19 -68 44v-154l4 -122q0 -18 -20 -30q-21 -12 -38 -12l4 166v144
q-69 -81 -120 -128q-51 -46 -108 -88l-10 12q54 57 100 106q42 47 82 100q39 51 54 78h-156q-19 0 -44 -8l-22 34v0v0zM800 896q-66 -12 -186 -30v-120h276l36 50l58 -58q2 -5 2 -10q0 -10 -8 -10h-148v-170l4 -80q1 -16 -22 -28q-21 -12 -36 -12l4 114v176h-170
q-4 -102 -56 -180q-52 -75 -130 -122l-8 14q75 70 114 152q37 81 32 210v138l64 -38q84 17 144 38q59 18 118 42q55 -45 56 -54q0 -7 -2 -8q-3 -2 -18 0q-13 3 -34 0q-21 -1 -90 -14v0v0zM52 338h420v90l72 -26q18 -5 6 -16l-26 -12v-36h330l32 44l60 -54q3 -3 4 -6
q-1 -10 -16 -10h-368q62 -63 124 -98q63 -34 126 -56q64 -21 146 -25v-18q-33 -2 -56 -14q-21 -11 -38 -32q-99 43 -150 77q-48 36 -84 66q-36 29 -96 100h-14v-168l4 -73q0 -15 -18 -28t-42 -14l4 98v183h-12q-67 -75 -166 -138q-97 -61 -248 -113l-8 14q126 57 216 117
q88 61 140 122h-260q-21 0 -66 -8l-16 34v0v0z" />
  </g>

</svg>
