<?xml version="1.0" standalone="no"?>
<!DOCTYPE svg PUBLIC "-//W3C//DTD SVG 1.1//EN" "http://www.w3.org/Graphics/SVG/1.1/DTD/svg11.dtd" >
<svg xmlns="http://www.w3.org/2000/svg" xmlns:xlink="http://www.w3.org/1999/xlink" version="1.1" viewBox="0 -36 256 256">
  <g transform="matrix(1 0 0 -1 0 220)">
   <path fill="currentColor"
d="M61 224.5q-4 12.5 -12 20.5l2 2q16 -5 20 -12t-1 -15t-9 4.5zM111 225l15 -18h-90q-10 1 -21 -3l-7 10h92zM34 159h16v27h-16v-27zM35 193h14l7 7l11 -11l-6 -5q0 -26 1 -33l-12 -5v6h-16v-4l-12 -4q1 9 1 26.5t-1 28.5zM84 193h14l7 9l10 -14l-7 -5v-15q0 -10 1 -18
l-11 -3v5h-14v-4l-13 -3q1 13 1 24t-1 29zM84 159h14v27h-14v-27zM39.5 119.5q4.5 -4.5 -1 -11t-7.5 1.5t-7 18l2 2q9 -6 13.5 -10.5zM52 108l1 -4q-23 -11 -32 -20l-8 12q11 1 39 12zM67 96l-13 -4v38h-15q-16 1 -21 -2l-5 9h42l8 6l8 -11l-5 -4q0 -23 1 -32zM93.5 120.5
q3.5 -3.5 -1.5 -9.5t-8 2.5t-9 14.5l3 2q12 -6 15.5 -9.5zM107 130h-3q-12 1 -23 -2l-10 9h36l6 7l11 -11l-6 -5v-14q0 -9 1 -23l-12 -6v23q-24 -12 -28 -18l-9 11q9 1 37 13v16zM41 53h54v13h-54v-13zM41 29h54v17h-54v-17zM27 77l14 -4h11q7 12 7 21l14 -9q-7 -4 -15 -12
h37l7 8l11 -10l-6 -6v-27q0 -11 1 -20l-13 -6v10h-54v-6l-14 -7q1 12 1 22v19q0 18 -1 27zM139 233l13 -6q30 2 63 18l11 -16q-19 0 -40 -5v-74l11 6q-1 6 -5 15l1 2q12 -8 18 -18.5t0 -18t-7 -3.5t-5 17q-13 -9 -22 -18l-9 12q5 3 5 21v58l-21 -2q1 -28 -2 -56.5t-27 -48.5
l-2 2q18 23 19 61.5t-1 53.5zM237 170q3 -11 -3 -21t-9.5 5t-9 30.5t-18.5 37.5l2 2q19 -17 27 -30t11 -24zM180 109q-4 9 -15 21l1 3q18 -6 23 -12t0 -13.5t-9 1.5zM177 95q-5 -9 -17 -24v-44q8 5 32 18l1 -3q-21 -16 -39 -36l-8 12q4 9 3 26v18q-15 -16 -39 -25l-1 3
q39 28 52 55h-9q-9 0 -18 -2l-10 9h96l12 10l13 -17h-58q4 -15 15 -34q19 16 24 32l13 -15l-6 -3q-12 -9 -27 -19q13 -22 40 -30v-3q-12 0 -19 -9q-36 26 -45 81h-5z" />
  </g>

</svg>
