<?xml version="1.0" standalone="no"?>
<!DOCTYPE svg PUBLIC "-//W3C//DTD SVG 1.1//EN" "http://www.w3.org/Graphics/SVG/1.1/DTD/svg11.dtd" >
<svg xmlns="http://www.w3.org/2000/svg" xmlns:xlink="http://www.w3.org/1999/xlink" version="1.1" viewBox="0 -36 256 256">
  <g transform="matrix(1 0 0 -1 0 220)">
   <path fill="currentColor"
d="M119 244l23 -8l-7 -7v-21h59l15 13l18 -20h-92v-39h74l17 14l20 -21h-207q-10 0 -20 -2l-9 9h110v39h-59q-10 0 -20 -2l-9 9h88v27q0 -6 -1 9zM48 59v50q0 15 -1 34l17 -10h128l8 10l16 -12l-7 -7v-87q0 -21 -28 -27q0 7 -7 12t-22 8v4q26 -3 34.5 -2.5t7.5 9.5v40h-131
v-64l-16 -7q1 35 1 49zM63 88h131v38h-131v-38z" />
  </g>

</svg>
