<?xml version="1.0" standalone="no"?>
<!DOCTYPE svg PUBLIC "-//W3C//DTD SVG 1.1//EN" "http://www.w3.org/Graphics/SVG/1.1/DTD/svg11.dtd" >
<svg xmlns="http://www.w3.org/2000/svg" xmlns:xlink="http://www.w3.org/1999/xlink" version="1.1" viewBox="0 -205 1024 1024">
  <g transform="matrix(1 0 0 -1 0 819)">
   <path fill="currentColor"
d="M419 805q-15 -44 -34 -65q-18 -13 -31 -12q-14 3 -21 12q-6 8 -5 23q2 15 18 25q23 15 39 42q16 29 23 72q1 10 8 9q8 0 8 -10q2 -18 2 -36h223q-1 5 -1 11q-2 31 -12 56q-9 22 -27 49q-4 7 0 13q6 4 16 -3q39 -21 60 -42q14 -12 15 -24q0 -20 -16 -48q-5 -8 -9 -12h169
q9 1 13 5l31 31q3 4 6 4q4 -1 8 -5q45 -35 67 -59q5 -8 -8 -9q-28 -3 -52 -21q-20 -15 -56 -52q-8 -11 -17 -7q-8 5 -1 18q18 37 27 64h-438q-2 -16 -5 -29zM467 243q0 -8 -6 -9q-20 -8 -39 -17q-9 -3 -8 12q4 63 5 210v88q-1 36 -5 82q-2 12 2 13q3 1 10 -6q10 -12 31 -27
h142v85h-118q-27 0 -61 -7q-5 -1 -6 2q-13 20 -23 36q-6 10 7 7q61 -6 68 -7h269q12 0 16 3q6 4 13 13l24 35q8 9 15 0q29 -26 57 -54q11 -12 10 -19q-2 -8 -15 -9h-208v-85h120q6 0 9 4l18 28q7 8 14 1q29 -19 57 -41q9 -8 8 -12q-2 -5 -9 -9q-26 -12 -27 -19q-2 -6 -2 -13
v-184q0 -36 6 -97q1 -11 -5 -12q-43 -15 -47 -14q-2 1 -2 11v38h-320v-27zM599 410h-132v-109h132v109zM647 301h140v109h-140v-109zM599 558h-132v-117h132v117zM647 441h140v117h-140v-117zM535 230q27 -22 45 -43q4 -6 1 -10q-4 -3 -11 -2q-10 2 -31 -4q-32 -11 -96 -42
q-92 -44 -204 -74q-13 -3 -14 7q-3 11 10 15q78 24 150 64q73 39 136 88q7 7 14 1zM703 202q2 10 18 6q102 -24 165 -55q44 -23 51 -42q9 -23 0 -41q-9 -19 -15 -20q-5 -2 -20 14q-44 44 -87 74q-54 36 -103 51q-10 3 -9 13zM201 290q-4 21 -19 36q-18 16 -43 23
q-16 5 -13 18q4 13 23 6q49 -10 80 -6q24 1 37 26q49 96 -95 250q-9 7 -2 23q47 116 84 222q0 5 -1 6q-2 1 -8 0h-133v-627q-1 -107 0 -182q-1 -15 -38 -40q-8 -4 -12 -4q-6 1 -5 20q4 100 7 206v600q-1 32 -7 78q-2 10 1 11q1 0 40 -31h149q8 1 17 11l18 21q7 8 14 1
q28 -22 49 -43q9 -8 -3 -12q-20 -8 -33 -27q-36 -52 -64 -106q-62 -113 -49 -126q140 -115 134 -229q-5 -50 -30 -78q-26 -31 -75 -47q-22 -9 -23 0z" />
  </g>

</svg>
