<?xml version="1.0" standalone="no"?>
<!DOCTYPE svg PUBLIC "-//W3C//DTD SVG 1.1//EN" "http://www.w3.org/Graphics/SVG/1.1/DTD/svg11.dtd" >
<svg xmlns="http://www.w3.org/2000/svg" xmlns:xlink="http://www.w3.org/1999/xlink" version="1.1" viewBox="0 -36 256 256">
  <g transform="matrix(1 0 0 -1 0 220)">
   <path fill="currentColor"
d="M36 213h13q7 19 9 32l20 -9l-10 -4l-11 -19h29l8 10l15 -13l-8 -6v-31q0 -10 1 -19l-15 -6v6h-50v-21h58l9 11l14 -18h-81v-20h58l6 10l15 -11l-7 -7q-2 -65 -11.5 -76t-22.5 -14q-2 14 -26 17l1 5q25 -4 30 -2.5t9 8.5t7 63h-59v-7l-15 -5q1 20 1 37v65q0 16 -1 31z
M37 180v-19h50v19h-50zM37 206v-19h50v19h-50zM218 154l19 -14l-7 -5q-16 -49 -28 -68q12 -23 30 -33l7 43l4 -1q-2 -24 -1 -36.5t5 -23t-17 1t-37 36.5q-22 -24 -54 -39l-2 3q39 29 50 50q-10 43 -10 108h-29q-10 0 -19 -2l-9 9h57q0 27 -1 63l21 -9l-7 -7v-47h34l10 11
l14 -18h-58q0 -50 7 -93q16 34 21 71zM137 134.5q0 7.5 -1 26.5l21 -9l-7 -7v-30h7l10 11l12 -18h-29q-1 -28 -11 -49.5t-32 -40.5l-2 4q30 32 32 86q-8 0 -17 -2l-9 9h26v19.5zM226 219q8 -8 0 -18.5t-10 1.5t-17 31l2 3q17 -9 25 -17zM64 49.5q-5 -2.5 -6.5 9t-8.5 23.5
l3 2q17 -16 17 -24t-5 -10.5zM69 89q14 -11 17.5 -16.5t1.5 -10.5t-6 -6.5t-6 8.5t-10 23zM20.5 40.5q-7.5 -5.5 -11 -1.5t3 12.5t7.5 25.5h3q5 -31 -2.5 -36.5zM32 78l4 2q15 -22 13.5 -29.5t-7 -8.5t-5.5 11t-5 25z" />
  </g>

</svg>
