<?xml version="1.0" standalone="no"?>
<!DOCTYPE svg PUBLIC "-//W3C//DTD SVG 1.1//EN" "http://www.w3.org/Graphics/SVG/1.1/DTD/svg11.dtd" >
<svg xmlns="http://www.w3.org/2000/svg" xmlns:xlink="http://www.w3.org/1999/xlink" version="1.1" viewBox="0 -36 256 256">
  <g transform="matrix(1 0 0 -1 0 220)">
   <path fill="currentColor"
d="M222 16l-14 -7v17h-162v-11l-15 -7q1 32 1 92.5t-1 78.5l16 -8h159l9 9l14 -12l-8 -7v-99q0 -24 1 -46zM46 33h162v131h-162v-131zM96 134h63v13h-63v-13zM96 127v-2l-14 -4q1 12 1 19t-1 21l13 -7h64l5 8l14 -11l-6 -5q0 -9 1 -20l-14 -4v5h-63zM80 96v-9h93v9h-93z
M80 80v-8h93v8h-93zM80 103h93v8h-93v-8zM67 90.5q0 13.5 -1 34.5l14 -7h93l6 8l14 -10l-7 -7v-46l-13 -3v5h-93v-5l-14 -4q1 21 1 34.5zM114 51l-7 -1q-23 -12 -43 -17l-1 4q26 13 39 27l14 -13h-2zM141 60l1 4q32 -6 39.5 -11t6.5 -15t-11.5 0.5t-35.5 21.5zM132 176
l-15 -4q1 13 1 43q-9 -5 -36 -16t-72 -19l-1 4q42 12 68.5 23.5t37.5 20.5h-66q-11 0 -21 -2l-9 9h190l15 10l17 -17h-100q-5 -3 -21 -11l18 -7l-7 -6q0 -18 1 -28zM207.5 207.5q28.5 -5.5 31 -19.5t-14.5 -2.5t-84 29.5l1 4q38 -6 66.5 -11.5z" />
  </g>

</svg>
