<?xml version="1.0" standalone="no"?>
<!DOCTYPE svg PUBLIC "-//W3C//DTD SVG 1.1//EN" "http://www.w3.org/Graphics/SVG/1.1/DTD/svg11.dtd" >
<svg xmlns="http://www.w3.org/2000/svg" xmlns:xlink="http://www.w3.org/1999/xlink" version="1.1" viewBox="0 -36 256 256">
  <g transform="matrix(1 0 0 -1 0 220)">
   <path fill="currentColor"
d="M83 81q0 -24 1 -41l-14 -6v14h-36v-16l-13 -6q1 50 1 101t-1 98l13 -9h35l7 9l13 -13l-6 -6v-125zM35 162h36v47h-36v-47zM34 109h36v46h-36v-46zM34 55h36v47h-36v-47zM136 91l8 -4l-8 -5v-3l33 8l1 -4l-34 -12v-41q0 -16 -18 -23q0 12 -23 17v4q23 -2 26 -0.5t3 6.5v33
q-26 -9 -30 -14l-10 14q11 1 40 9q0 10 -1 22l9 -4l13 19h-26q-10 0 -20 -2l-9 9h59l8 7l11 -13q-8 -2 -32 -23zM150 204l11 10l13 -17h-60q-10 0 -20 -2l-10 9h66zM110 146h35v28h-35v-28zM163 118l-2 2q10 27 17.5 63t9.5 63l20 -10l-7 -6q-4 -19 -12 -48h31l13 12l14 -19
h-25q-4 -63 -19 -101q5 -14 18 -28.5t26 -21.5v-4q-13 0 -18 -8q-19 19 -32 47q-26 -36 -61 -51l-2 3q38 25 55 62q-9 30 -12 74q-8 -23 -14 -29zM181 155q5 -44 14 -67q12 34 14 87h-22q-2 -10 -6 -20zM157 136l-12 -5v8h-35v-6l-12 -5q1 14 1 31.5t-1 28.5l14 -7h32l7 9
l13 -12l-8 -6q0 -27 1 -36zM137 231q4 -6 -2 -14.5t-9.5 3.5t-14.5 25l2 2q20 -10 24 -16z" />
  </g>

</svg>
