<?xml version="1.0" standalone="no"?>
<!DOCTYPE svg PUBLIC "-//W3C//DTD SVG 1.1//EN" "http://www.w3.org/Graphics/SVG/1.1/DTD/svg11.dtd" >
<svg xmlns="http://www.w3.org/2000/svg" xmlns:xlink="http://www.w3.org/1999/xlink" version="1.1" viewBox="0 -36 256 256">
  <g transform="matrix(1 0 0 -1 0 220)">
   <path fill="currentColor"
d="M50 126h57v55h-57v-55zM28 55.5q8 23.5 8 72t-1 90.5l15 -7v-22h56l7 8l13 -13l-6 -5q0 -49 1 -63l-14 -7v10h-57q1 -73 -40 -110l-2 3q12 20 20 43.5zM239 112l-14 -6v13h-72q-1 -41 -13.5 -67t-41.5 -45l-2 3q22 21 32.5 44.5t10.5 75t-1 85.5l15 -4v-24h69l9 11
l13 -14l-6 -6q0 -52 1 -66zM153 126h72v54h-72v-54zM116 228l-36 -14q-24 -8 -32 -9v6q2 0 25.5 11.5t37.5 24.5l17 -19h-12zM222 225q-34 -11 -50 -15.5t-23 -4.5l2 5q7 2 30.5 13t37.5 22l16 -22z" />
  </g>

</svg>
