<?xml version="1.0" standalone="no"?>
<!DOCTYPE svg PUBLIC "-//W3C//DTD SVG 1.1//EN" "http://www.w3.org/Graphics/SVG/1.1/DTD/svg11.dtd" >
<svg xmlns="http://www.w3.org/2000/svg" xmlns:xlink="http://www.w3.org/1999/xlink" version="1.1" viewBox="0 -205 1024 1024">
  <g transform="matrix(1 0 0 -1 0 819)">
   <path fill="currentColor"
d="M496 966q63 -24 96 -48q29 -23 32 -46q3 -24 -8 -36q-9 -13 -24 -10q-13 3 -20 18q-6 15 -18 42q-12 23 -66 68l8 12v0v0zM796 974q66 -36 66 -42q3 -9 -14 -12t-34 -18q-15 -13 -78 -88h130l28 38l56 -38q6 -6 6 -8q0 -6 -26 -26v-184l4 -78q1 -21 -18 -32
q-18 -9 -38 -12v56h-408v-36q0 -6 -18 -18q-18 -10 -36 -10l4 138v250l54 -40h232q51 80 90 160v0v0zM470 556h172v232h-172v-232v0v0zM692 556h186v232h-186v-232v0v0zM476 460l54 -32h272l26 40l60 -44q6 -6 6 -8q0 -7 -32 -28v-240l4 -79q-1 -11 -16 -22q-16 -11 -40 -16
v74h-284v-42q0 -12 -20 -24q-19 -12 -34 -12l4 121v312v0v0zM526 131h284v123h-284v-123v0v0zM526 280h284v122h-284v-122v0v0zM490 732l10 10q57 -36 82 -62q22 -24 18 -48q-3 -24 -14 -30q-12 -6 -24 -2q-12 3 -14 24q0 20 -12 46q-11 23 -46 62v0v0zM712 596
q50 81 80 154q63 -30 66 -36q1 -7 -4 -10q-3 -3 -18 -6q-15 -4 -38 -28q-24 -24 -72 -84l-14 10v0v0zM308 930q15 -12 0 -18q-21 -3 -30 -12q-9 -7 -44 -68q-33 -59 -132 -196l160 8q44 77 68 140l68 -36q16 -9 -4 -20q-22 -1 -34 -16q-12 -16 -74 -112q-60 -96 -156 -210
l248 38l4 -22q-168 -36 -204 -48q-35 -13 -70 -40l-52 74q30 6 52 18q32 36 64 84q32 45 80 124q-71 -9 -106 -20q-33 -9 -66 -26l-42 70q29 6 50 24q51 76 88 152q33 75 58 142l74 -30v0v0zM406 272l6 -18l-238 -92q-34 -18 -64 -45l-46 65l342 90v0v0z" />
  </g>

</svg>
