<?xml version="1.0" standalone="no"?>
<!DOCTYPE svg PUBLIC "-//W3C//DTD SVG 1.1//EN" "http://www.w3.org/Graphics/SVG/1.1/DTD/svg11.dtd" >
<svg xmlns="http://www.w3.org/2000/svg" xmlns:xlink="http://www.w3.org/1999/xlink" version="1.1" viewBox="0 -205 1024 1024">
  <g transform="matrix(1 0 0 -1 0 819)">
   <path fill="currentColor"
d="M48 854h242l38 52l62 -60q3 -3 4 -8q0 -12 -12 -12h-140v-236h56l40 46l56 -58q3 -2 4 -4q0 -12 -8 -12h-148v-254l126 34l6 -18q-165 -63 -212 -80q-46 -17 -82 -46l-44 52l156 46v266h-56q-21 0 -56 -8l-16 36h128v236h-72q-21 0 -56 -8l-16 36v0v0zM906 420
q9 -10 -2 -16q-27 4 -66 -16q-40 -21 -118 -74q32 -75 82 -122q50 -45 88 -61q36 -18 100 -30v-20q-45 3 -68 -10q-21 -11 -32 -26q-45 24 -90 72q-43 46 -86 121q-42 72 -62 222l-4 -10q-15 -151 -66 -226q-52 -75 -136 -123q-84 -47 -212 -74l-4 14q131 46 194 86
q60 38 102 93q40 53 62 158q20 104 22 200l86 -30q6 -7 6 -10q0 -1 -30 -16l4 -30q9 -91 36 -158q84 69 136 132l58 -46v0v0zM350 484q72 33 136 84q63 47 96 104q29 53 32 122v180q86 -25 86 -34q0 -7 -6 -10t-30 -18q3 -83 -8 -172q90 50 132 82l84 64q57 -58 54 -64
q-1 -7 -8 -8q-7 0 -20 4q-12 3 -68 -24q-55 -24 -178 -78l-8 -18q129 -39 192 -68q62 -30 86 -54t22 -48q0 -24 -18 -30q-15 -6 -36 18q-18 23 -72 68q-54 44 -180 94q-43 -82 -118 -130q-73 -48 -166 -80l-4 16v0v0zM476 864h20q0 -73 -12 -116q-9 -42 -32 -62
q-24 -19 -42 -20q-18 -2 -30 12q-10 14 2 28q12 12 36 28q21 16 34 44q12 28 24 86v0v0v0zM472 472h20q-3 -76 -14 -118q-12 -42 -32 -62q-19 -19 -38 -20q-17 -2 -28 12q-10 14 2 28q11 12 32 28q20 16 34 44q12 27 24 88v0v0v0z" />
  </g>

</svg>
