<?xml version="1.0" standalone="no"?>
<!DOCTYPE svg PUBLIC "-//W3C//DTD SVG 1.1//EN" "http://www.w3.org/Graphics/SVG/1.1/DTD/svg11.dtd" >
<svg xmlns="http://www.w3.org/2000/svg" xmlns:xlink="http://www.w3.org/1999/xlink" version="1.1" viewBox="0 -205 1024 1024">
  <g transform="matrix(1 0 0 -1 0 819)">
   <path fill="currentColor"
d="M62 832h300v138l84 -30q18 -7 0 -16l-32 -14v-78h202v134l82 -30q19 -7 2 -16l-32 -14v-74h190l42 54l70 -64q3 -3 4 -6q1 -10 -12 -10h-294v-22l4 -38q1 -15 -18 -26q-21 -12 -42 -12l4 64v34h-202v-26l4 -22q0 -15 -20 -26q-22 -12 -40 -12l4 62v24h-216q-24 0 -60 -8
l-24 34v0v0zM98 616h180v126l74 -30q8 -3 8 -12q2 -3 -4 -6l-28 -14v-64h90l36 46l60 -56q3 -4 4 -10q1 -7 -16 -8h-174v-120h122l40 46l62 -56q6 -4 4 -10q-1 -6 -16 -6h-390q-22 1 -70 -10l-18 36h216v120h-92q-21 0 -68 -8l-20 36v0v0zM90 312h188v122l76 -28q6 -3 6 -6
q3 -1 -2 -8l-28 -18v-62h100l30 42l56 -50q3 -4 4 -10q2 -10 -10 -10h-180v-124l202 38l6 -20q-366 -82 -392 -101q-25 -17 -46 -32l-48 66l226 41v132h-104q-21 0 -68 -8l-16 36v0v0zM518 556h272v206l82 -32q8 -4 8 -10q-1 -6 -38 -24v-140h44l34 52l64 -60q3 -4 4 -10
q0 -10 -12 -10h-134v-411q1 -38 -22 -64q-21 -27 -60 -30q-4 33 -40 48t-90 32l4 18q66 -12 96 -18q27 -3 46 2q19 7 14 51v372h-188q-20 0 -64 -8l-20 36v0v0zM584 448l12 10q56 -36 82 -66q26 -27 28 -56q3 -30 -12 -42q-15 -13 -32 -8q-16 3 -16 34q0 27 -12 54
q-13 26 -50 74v0v0z" />
  </g>

</svg>
