<?xml version="1.0" standalone="no"?>
<!DOCTYPE svg PUBLIC "-//W3C//DTD SVG 1.1//EN" "http://www.w3.org/Graphics/SVG/1.1/DTD/svg11.dtd" >
<svg xmlns="http://www.w3.org/2000/svg" xmlns:xlink="http://www.w3.org/1999/xlink" version="1.1" viewBox="0 -36 256 256">
  <g transform="matrix(1 0 0 -1 0 220)">
   <path fill="currentColor"
d="M55 138h-13q-9 0 -18 -3l-10 10h41v5q0 29 -1 42l22 -11l-8 -7v-29h13l10 12l14 -19h-37v-36l32 11l2 -4l-34 -16v-61q1 -17 -19 -24q1 12 -30 20v4q37 -7 36 4v50q-23 -11 -30 -19l-14 17q15 2 44 14v40v0zM179 193q19 -5 22.5 -9.5t-1.5 -11.5t-8.5 2t-14.5 16z
M144 43.5q6 -6.5 -1 -16t-11 4t-14 24.5l3 2q17 -8 23 -14.5zM121 122h35v20h-35v-20zM169 122h40v20h-40v-20zM121 99h35v16h-35v-16zM169 99h40v16h-40v-16zM155 194l22 -7l-8 -8v-10h47l11 8l15 -15h-73v-13h40l8 6l11 -12l-7 -5q0 -32 1 -54l-13 -3v11h-40v-15l-13 -4
v19h-35v-18l-14 -3q1 15 1 40t-1 42l15 -4h34v13h-27q-8 1 -20 -3l-10 10h57q0 16 -1 25zM191 84l22 -6l-8 -5v-8h18l11 10l14 -17h-43v-32q-3 -15 -21 -19q-2 13 -28 15v5q29 -4 33 -1t3 12v20h-74q-15 1 -24 -1l-9 8h107q0 11 -1 19zM69 233l-11 -13h54l10 11l16 -18h-56
q20 -9 21 -16t-5 -12.5t-9.5 6t-14.5 22.5h-20q-17 -21 -39 -35l-3 2q15 16 26 31.5t19 36.5l22 -12zM174 234l-12 -14h57l12 10l15 -17h-56q15 -6 20.5 -10.5t4 -10.5t-5 -6.5t-9 8t-18.5 19.5h-24q-14 -16 -30 -29l-3 3q19 23 26.5 37.5t11.5 23.5l20 -13z" />
  </g>

</svg>
