<?xml version="1.0" standalone="no"?>
<!DOCTYPE svg PUBLIC "-//W3C//DTD SVG 1.1//EN" "http://www.w3.org/Graphics/SVG/1.1/DTD/svg11.dtd" >
<svg xmlns="http://www.w3.org/2000/svg" xmlns:xlink="http://www.w3.org/1999/xlink" version="1.1" viewBox="0 -36 256 256">
  <g transform="matrix(1 0 0 -1 0 220)">
   <path fill="currentColor"
d="M175 184l11 9l14 -16h-50q-10 1 -22 -3l-5 10h52zM119 133h77v18h-77v-18zM210 124l-14 -7v9h-77v-5l-14 -5q1 13 1 22.5t-1 26.5l14 -7h75l7 9l14 -12l-6 -5q0 -19 1 -26zM114.5 80.5q6.5 -6.5 2 -16.5t-9 2t-17.5 26l3 3q15 -8 21.5 -14.5zM192 80q7 -8 0.5 -17
t-10 3.5t-13.5 26.5l2 3q14 -8 21 -16zM88 24l-13 16q17 3 65 23v37h-24q-10 0 -19 -2l-9 9h51l6 8l14 -11l-6 -5v-64q1 -22 -20 -29q-3 11 -24 18v4q15 -2 22.5 -2.5t8.5 8.5v24q-43 -22 -52 -34zM213 64v36h-23q-10 0 -19 -2l-9 9h49l6 8l16 -11l-7 -6v-63q1 -19 -20 -27
q-2 14 -27 19v4q17 -2 25.5 -2t8.5 7v22q-41 -19 -46 -27l-10 14q35 9 56 19zM233 160q-44 25 -72 68q-10 -18 -28.5 -36t-47.5 -34l-2 4q27 19 44 40.5t26 44.5l21 -12l-9 -4q33 -41 84 -52v-4q-13 -3 -16 -15zM31.5 139.5q-3.5 -11.5 -12 -14t-10.5 2.5t7 16t14 43h4
q1 -36 -2.5 -47.5zM44 246l22 -13l-8 -9v-170q0 -22 1 -36l-15 -10q1 36 1 58v126q0 29 -1 54zM81.5 178.5q5.5 -7.5 3.5 -14.5t-7.5 -9.5t-7 10.5t-9.5 32l3 2q12 -13 17.5 -20.5z" />
  </g>

</svg>
