<?xml version="1.0" standalone="no"?>
<!DOCTYPE svg PUBLIC "-//W3C//DTD SVG 1.1//EN" "http://www.w3.org/Graphics/SVG/1.1/DTD/svg11.dtd" >
<svg xmlns="http://www.w3.org/2000/svg" xmlns:xlink="http://www.w3.org/1999/xlink" version="1.1" viewBox="0 -120 1000 1000">
  <g transform="matrix(1 0 0 -1 0 880)">
   <path fill="currentColor"
d="M97 55v873l70 -37h214l21 35l67 -44q9 -6 9 -12t-9 -9l-22 -8v-255l-63 -9v49h-226v-572zM158 752v-87h226v87h-226zM158 779h226v85h-226v-85zM550 588v338l66 -35h205l24 35l64 -40q16 -9 16 -17t-11 -12l-17 -5v-716q0 -42 -32 -60q-10 -6 -36 -15q-16 -6 -23 -6
q-6 0 -12 21q-7 24 -31 29l-40 9v19h110v505h-225v-41zM608 752v-87h225v87h-225zM608 864v-85h225v85h-225zM278 74v409l80 -47h108v126l77 -9q19 -2 19 -13q0 -8 -12 -13l-21 -7v-84h113l22 38l56 -38q20 -14 20 -22t-15 -13l-11 -4v-294l-60 -10v46h-317v-56zM337 165
h129v121h-129v-121zM337 312h129v97h-129v-97zM529 286v-121h125v121h-125zM529 409v-97h125v97h-125z" />
  </g>

</svg>
