<?xml version="1.0" standalone="no"?>
<!DOCTYPE svg PUBLIC "-//W3C//DTD SVG 1.1//EN" "http://www.w3.org/Graphics/SVG/1.1/DTD/svg11.dtd" >
<svg xmlns="http://www.w3.org/2000/svg" xmlns:xlink="http://www.w3.org/1999/xlink" version="1.1" viewBox="0 -36 256 256">
  <g transform="matrix(1 0 0 -1 0 220)">
   <path fill="currentColor"
d="M37 195h20v30h-20v-30zM69 195h20v30h-20v-30zM37 154h20v34h-20v-34zM69 154h20v34h-20v-34zM102 167q0 -9 1 -22l-14 -6v8h-52v-5l-14 -6q1 24 1 51.5t-1 51.5l15 -7h51l7 9l14 -12l-8 -7v-55zM116 150q8 5 7 13v45q0 21 -2 38l21 -10l-6 -7v-28h17l10 10l13 -17h-40
v-38l37 12l1 -3q-33 -16 -48 -28zM176 211q0 20 -1 35l20 -9l-6 -8v-28q28 16 39 34l13 -17q-25 -11 -52 -24v-30q0 -10 6 -10h26q9 2 9 26h4q0 -22 10 -27q-8 -11 -21 -11h-29q-18 0 -18 15v54zM42.5 17.5q-20.5 -5.5 -28.5 -9.5l-5 16q12 1 37 5v33h-17v-5l-12 -4
q1 12 1 31.5t-1 30.5l13 -7h16q0 25 -1 34l19 -9l-7 -7v-18h14l7 8l11 -12l-6 -6q0 -24 1 -39l-13 -6v9h-14v-33l15 2q-3 12 -6 21l1 2q18 -20 19.5 -26.5t-2.5 -14.5t-6 -3t-4 17q-11 -4 -31.5 -9.5zM29 69h17v32h-17v-32zM57 69h14v32h-14v-32zM119.5 17.5
q-19.5 -5.5 -26.5 -9.5l-5 16q10 1 34 4v34h-16v-5l-12 -4q1 12 1 31.5t-1 30.5l12 -7h16q0 25 -1 34l18 -10l-5 -6v-18h15l5 8l12 -12l-7 -6q0 -24 1 -39l-11 -6v9h-15v-33l15 2q-3 12 -7 21l2 2q17 -20 18.5 -26.5t-2.5 -14.5t-5.5 -3t-3.5 17q-12 -4 -31.5 -9.5zM106 69
h16v32h-16v-32zM134 69h15v32h-15v-32zM199 18q-20 -5 -25 -10l-6 16q9 0 33 4v34h-15v-5l-13 -4q1 12 1 31.5t-1 30.5l13 -7h15q0 25 -2 34l21 -10l-8 -6v-18h16l5 8l12 -12l-5 -6q0 -24 1 -39l-12 -6v9h-17v-33l17 2q-3 12 -7 21l2 2q17 -20 18.5 -26.5t-2.5 -14.5t-6 -3
t-3 16zM186 69h15v32h-15v-32zM212 69h17v32h-17v-32z" />
  </g>

</svg>
