<?xml version="1.0" standalone="no"?>
<!DOCTYPE svg PUBLIC "-//W3C//DTD SVG 1.1//EN" "http://www.w3.org/Graphics/SVG/1.1/DTD/svg11.dtd" >
<svg xmlns="http://www.w3.org/2000/svg" xmlns:xlink="http://www.w3.org/1999/xlink" version="1.1" viewBox="0 -205 1024 1024">
  <g transform="matrix(1 0 0 -1 0 819)">
   <path fill="currentColor"
d="M782 996q62 -34 64 -40q1 -7 -10 -10q-9 -3 -14 -6q-6 -1 -26 -20q-21 -18 -72 -78h126l34 44l54 -50q14 -15 -4 -18h-238v-100h104l38 44l56 -52q10 -16 -4 -16h-194v-92h186l38 44l58 -52q6 -15 -8 -18h-510q-21 0 -68 -8l-16 34h270v92h-112q-19 0 -68 -8l-16 32h196
v100h-162q-21 1 -44 -10l-24 34h278q44 69 88 154v0v0zM502 980l8 12q63 -30 90 -48q26 -19 32 -40q4 -19 -6 -34q-10 -14 -28 -12q-18 3 -24 24q-5 20 -16 38q-9 15 -56 60v0v0zM578 498v-98h126v166l68 -20q16 -4 6 -14l-26 -12v-120h160l34 44l54 -52q16 -15 -10 -18
h-234q2 -48 32 -126q43 44 80 104l64 -34q3 -9 -2 -12q-4 -1 -20 -2q-14 0 -28 -18q-15 -15 -72 -78q24 -40 48 -59q23 -21 46 -36q21 -15 30 -10q7 6 14 36q7 26 20 105l20 -2q-6 -67 -8 -113q-3 -47 12 -64q13 -15 14 -24t-10 -12q-10 -3 -44 6q-33 7 -86 44
q-51 39 -90 99q-69 -62 -168 -105l-6 18q78 45 156 119q-33 56 -50 164h-130v-70l94 30l6 -18l-100 -42v-147q-3 -45 -24 -64q-21 -17 -44 -26q-7 36 -38 48q-31 13 -70 26l4 18q51 -14 88 -22q36 -6 36 30v117l-76 -28q-17 -13 -40 -34l-34 50l150 48v84h-98q-19 0 -44 -8
l-20 34h162v90q-60 -13 -138 -26l-2 16q135 39 222 84l50 -42q6 -9 -8 -12q-18 3 -38 -2l-38 -10v0v0zM802 550l6 8q48 -18 72 -36q22 -15 26 -36q4 -18 -4 -30t-22 -12q-12 0 -20 18q-6 14 -14 32q-6 16 -44 56v0v0zM306 962l62 -50q7 -6 8 -12q0 -5 -14 -10
q-15 -4 -30 -22q-43 -97 -92 -226q47 -45 74 -86q26 -41 34 -82t8 -64q-1 -21 -8 -42t-28 -42q-19 -18 -64 -36q-3 29 -24 44q-21 14 -66 28l4 18q32 -7 52 -10q18 -2 42 0t34 22q10 21 6 66q-6 45 -24 84t-66 100l70 254h-126v-732l4 -105q0 -15 -20 -28q-18 -14 -36 -14
l4 143v806l58 -42h112l26 38v0v0z" />
  </g>

</svg>
