<?xml version="1.0" standalone="no"?>
<!DOCTYPE svg PUBLIC "-//W3C//DTD SVG 1.1//EN" "http://www.w3.org/Graphics/SVG/1.1/DTD/svg11.dtd" >
<svg xmlns="http://www.w3.org/2000/svg" xmlns:xlink="http://www.w3.org/1999/xlink" version="1.1" viewBox="0 -52 256 256">
  <g transform="matrix(1 0 0 -1 0 204)">
   <path fill="currentColor"
d="M181 240l18 -12q5 -3 2 -3q-6 0 -11 -3q-8 -8 -21 -20l-15 -15h48l9 11l18 -13q4 -2 -2 -2h-111q-8 -19 -17 -35h119l10 11l18 -13l2 -2q0 -1 -3 -1h-76q37 -48 80 -51v-4q-18 1 -19 -8q-43 18 -67 63h-67q-31 -46 -83 -72l-3 4q49 32 73 68h-56q-6 2 -11 -3l-8 8h78
q9 11 18 35h-54q-7 0 -11 -3l-9 7h76l3 9q1 4 2 7q9 36 7 39q-1 1 -2 4l-3 3l2 2l25 -9q2 -2 -2 -2q-6 -1 -8 -6q-4 -25 -13 -47h30l13 17q20 21 20 26q2 3 -1 8zM51 236l2 3q26 -12 32 -27q6 -16 -3 -17q-6 -1 -7 8q-1 8 -7 16q-4 6 -16 16q10 -7 -1 1zM106 91q2 -1 -1 -2
q-4 0 -9 -4v-33q0 -17 5 -19q4 -3 13 -3q26 0 45 1q14 2 15 9q0 7 1 25q1 5 1 7h4l1 -19q0 -13 9 -14q-8 -17 -22 -17q-33 -2 -62 0q-19 0 -21 20v45q0 6 -8 12l2 2zM179 90l3 3q38 -19 39 -37q1 -9 -5 -10q-5 -1 -8 8q-2 8 -7 16q-6 9 -22 20zM109 124l3 3q33 -15 35 -33
q2 -9 -5 -11q-6 -2 -7 7q-1 8 -6 16t-20 18zM60 87q0 -21 -6 -31q-6 -9 -13 -13q-6 -3 -10 2q-3 4 4 10q7 5 13 11q5 6 8 21h4z" />
  </g>

</svg>
