<?xml version="1.0" standalone="no"?>
<!DOCTYPE svg PUBLIC "-//W3C//DTD SVG 1.1//EN" "http://www.w3.org/Graphics/SVG/1.1/DTD/svg11.dtd" >
<svg xmlns="http://www.w3.org/2000/svg" xmlns:xlink="http://www.w3.org/1999/xlink" version="1.1" viewBox="0 -339 2048 2048">
  <g transform="matrix(1 0 0 -1 0 1709)">
   <path fill="currentColor"
d="M744 1727l-39 86q123 -18 187 -18h874l69 73l79 -52q29 -20 37 -31t8 -21q0 -21 -29 -38q-9 -5 -48 -22q-8 -79 -28 -328q-14 -176 -46 -274q-30 -92 -110 -122q-32 -12 -72 -19q-18 -3 -49 -7q-4 42 -11 57q-12 24 -39 38q-32 16 -79 30l-92 27q-9 2 -51 13l9 40
q39 -6 59 -10q28 -5 120 -28q104 -25 150 -25q30 0 49 15q11 9 18 21.5t14 35.5q9 33 18 87q8 50 11.5 78t7.5 83l9 130l12 151v41h-553q-8 -67 -14 -104.5t-17 -82.5q-37 -156 -91 -254q-80 -143 -243 -258q-47 -33 -104 -65q-27 -15 -55 -30l-22 33q64 41 99 67.5t72 63.5
q112 107 170 219q44 85 66 189q15 70 23 148q3 25 8 76l-229 -3q-72 0 -148 -10zM774 900l115 -79h811l68 76l83 -54q28 -18 35 -29q6 -10 6 -20q0 -16 -12 -26t-30 -18l-16 -8l-20 -8l3 -470l40 -35q13 -11 20 -25q2 -4 3 -7q1 -7 -5 -13q-8 -8 -22 -8h-976v-38
q0 -16 -3 -22q-2 -4 -8 -8q-15 -8 -34 -8q-24 0 -41 11q-12 8 -15 29q-1 7 -1 25q0 22 4 75q3 35 4 66v59l-1 399q-3 70 -8 136zM877 230h844v534h-843zM109 1846q99 -60 121 -74q88 -56 140 -109q40 -42 56 -88q5 -14 5 -31q0 -26 -12 -47q-14 -24 -39 -24q-17 0 -32 11
q-12 8 -26 38q-9 21 -18 43q-26 69 -110 154q-32 33 -107 93zM521 994l28 -24q-106 -212 -158 -310q-94 -178 -190 -328q6 -39 6 -62q0 -24 -13 -38q-7 -7 -12 -7q-16 0 -35 27q-46 63 -57 79t-31 47q60 61 107 115q170 195 355 501z" />
  </g>

</svg>
