<?xml version="1.0" standalone="no"?>
<!DOCTYPE svg PUBLIC "-//W3C//DTD SVG 1.1//EN" "http://www.w3.org/Graphics/SVG/1.1/DTD/svg11.dtd" >
<svg xmlns="http://www.w3.org/2000/svg" xmlns:xlink="http://www.w3.org/1999/xlink" version="1.1" viewBox="0 -52 256 256">
  <g transform="matrix(1 0 0 -1 0 204)">
   <path fill="currentColor"
d="M37 200h148l8 11l14 -13q5 -2 -1 -2h-77v-21h57l10 11l12 -13q3 -2 -2 -4l-4 -2v-33v-19q0 -9 -11 -9v8h-98l13 -9q2 -1 2 -2t-2 -1q-7 0 -15 -4q-1 -1 -3 -2q-39 -19 -65 -27l-2 4q29 12 47 23t20 14v4h-29v-4q1 -9 -13 -11q2 9 2 30v45q1 3 -5 9l3 4l11 -12h61v21h-61
q-6 0 -11 -3zM88 70q2 -2 0 -3q-4 0 -9 -4v-23q-2 -15 19 -14q10 -1 31 0q23 0 34 1q14 1 14 9q3 10 3 28h4l1 -18q0 -11 7 -14q-7 -12 -18 -13q-10 -2 -41 -2q-27 0 -43 2q-22 1 -22 21v26q0 6 -6 9l1 2zM244 220q1 -1 0 -2h-3q-8 -1 -20 -11l-5 -5l-4 1l13 18h-188v-3
q-1 -2 -1 -3q-8 -25 -23 -16q-1 3 3 6q6 3 10 11q6 8 8 19h4v-10h186l9 6zM129 147h62v24h-62v-24zM191 142h-62v-23h62v23zM118 171h-59v-24h59v24zM118 142h-59v-23h59v23zM141 104l1 3q50 -5 66 -17q14 -9 4 -15q-5 -1 -11 5q-6 7 -21 13t-39 11zM194 67l1 2
q24 -9 33 -17q10 -9 11 -15q2 -9 -4 -10q-7 0 -7 6q-5 18 -34 34zM44 67q-1 -32 -16 -40q-7 -3 -12 1q-3 3 3 7q3 1 8 5q2 1 3 2q5 6 10 25h4zM105 82l1 3q49 -17 33 -36q-5 -2 -6 6q-5 15 -28 27zM102 253l1 3q24 -8 30 -18q5 -11 -5 -12q-4 0 -5 5q0 4 -6 12q-6 6 -15 10z
" />
  </g>

</svg>
