<?xml version="1.0" standalone="no"?>
<!DOCTYPE svg PUBLIC "-//W3C//DTD SVG 1.1//EN" "http://www.w3.org/Graphics/SVG/1.1/DTD/svg11.dtd" >
<svg xmlns="http://www.w3.org/2000/svg" xmlns:xlink="http://www.w3.org/1999/xlink" version="1.1" viewBox="0 -36 256 256">
  <g transform="matrix(1 0 0 -1 0 220)">
   <path fill="currentColor"
d="M70 181h20l6 10l16 -13l-8 -6q0 -65 1 -77l-13 -6v7h-56v-7l-13 -7q1 22 1 93q-4 -7 -14 -17l-3 3q19 30 29.5 53.5t9.5 32.5l21 -10q-7 -1 -17 -19h30l8 9l16 -14q-10 0 -34 -32zM32 186l7 -5h24l17 30h-32q-7 -11 -16 -25zM36 141h22v33h-22v-33zM70 141h22v33h-22v-33
zM36 103h22v31h-22v-31zM70 103h22v31h-22v-31zM30.5 44.5q-1.5 -7.5 -5 -11t-11.5 -3.5t0.5 11.5t12.5 31.5h4q1 -21 -0.5 -28.5zM46 76q16 -17 16.5 -26t-6 -14.5t-7 8t-6.5 31.5zM67 79q22 -16 22.5 -24.5t-5.5 -13.5t-7.5 5.5t-12.5 30.5zM86 85q19 -10 24.5 -17
t0 -15.5t-8.5 2t-19 27.5zM121 240l15 -9h83l6 8l15 -12l-7 -6v-35q0 -11 1 -19l-14 -7v64h-86v-60l-13 -7q1 22 1 44.5t-1 38.5zM142 169l-2 3q28 26 35 51l17 -11l-6 -3l-8 -9q19 -5 26.5 -9.5t4.5 -14t-10 -0.5t-23 21q-18 -20 -34 -28zM150 169l20 -9l-7 -7v-67
q1 -28 -7.5 -46t-38.5 -33l-3 3q31 20 36 51q-22 -12 -29 -19l-10 13q19 4 40 11v26h-5q-10 0 -20 -2l-9 9h34v29h-12q-8 0 -18 -3l-9 10h39v16q0 8 -1 18zM188 43v105q0 10 -1 20l19 -8l-6 -6v-19h21l9 9l14 -16h-44v-29h21l10 9l12 -16h-43v-30h26l10 9l12 -16h-48v-19
q0 -9 1 -21l-14 -7z" />
  </g>

</svg>
