<?xml version="1.0" standalone="no"?>
<!DOCTYPE svg PUBLIC "-//W3C//DTD SVG 1.1//EN" "http://www.w3.org/Graphics/SVG/1.1/DTD/svg11.dtd" >
<svg xmlns="http://www.w3.org/2000/svg" xmlns:xlink="http://www.w3.org/1999/xlink" version="1.1" viewBox="0 -205 1024 1024">
  <g transform="matrix(1 0 0 -1 0 819)">
   <path fill="currentColor"
d="M546 954q12 -7 0 -14q-15 -5 -18 -10q-3 -3 -18 -32h294l36 40l58 -46q3 -3 4 -2q7 -18 -4 -18h-398q-14 -41 -34 -82h280l32 38l62 -48q6 -10 -6 -16h-378q-21 -42 -44 -78h434l36 40l66 -56q0 1 0 -4q1 -8 -10 -6h-290q47 -47 98 -82q50 -33 104 -54q52 -21 134 -30
v-18q-45 -1 -62 -10q-17 -7 -28 -32q-42 20 -72 38q-31 18 -80 54v-142l4 -68q-3 -15 -24 -26q-19 -10 -34 -10v44h-364v-6q2 -24 -16 -36t-38 -12l2 84v188q-37 -30 -98 -66q-60 -36 -138 -66l-8 14q90 47 166 104q74 54 142 132h-202q-20 0 -70 -8l-18 34h306q27 39 48 78
h-166q-22 1 -70 -10l-18 36h264q17 39 32 82h-260q-20 1 -70 -10l-18 36h358q8 23 20 80l74 -24v0v0zM324 350h364v76h-364v-76v0v0zM324 452h364v80h-364v-80v0v0zM296 558h416q-34 27 -94 102h-220q-54 -66 -102 -102v0v0zM272 264l78 -30q15 -6 -2 -18l-26 -10v-93
q-1 -32 16 -38q15 -3 48 -4h230q33 0 48 6q18 5 24 28q9 21 12 119h20q3 -78 10 -99t32 -34q-15 -36 -38 -48q-25 -11 -88 -14h-294q-39 2 -50 16q-11 10 -16 26q-4 14 -4 34v159v0v0zM784 254q79 -37 122 -70q42 -34 48 -63q4 -27 -10 -40q-12 -13 -26 -8q-15 3 -24 32
q-9 27 -38 63q-29 34 -82 74l10 12v0v0zM176 244q-1 -78 -16 -121q-16 -46 -44 -68q-28 -21 -52 -16q-22 4 -26 22q-4 19 26 32q27 14 54 49q27 33 40 102h18v0v0zM430 290q77 -28 110 -56q31 -26 30 -52q-3 -24 -18 -32q-16 -6 -28 0q-9 5 -18 26q-7 19 -22 44
q-13 26 -62 56l8 14v0v0z" />
  </g>

</svg>
