<?xml version="1.0" standalone="no"?>
<!DOCTYPE svg PUBLIC "-//W3C//DTD SVG 1.1//EN" "http://www.w3.org/Graphics/SVG/1.1/DTD/svg11.dtd" >
<svg xmlns="http://www.w3.org/2000/svg" xmlns:xlink="http://www.w3.org/1999/xlink" version="1.1" viewBox="0 -144 1024 1024">
  <g transform="matrix(1 0 0 -1 0 880)">
   <path fill="currentColor"
d="M278 817l54 -36l10 -16l-20 -2l-39 -62l-55 -78l-25 -33l28 -4l16 -11l-16 -10v-485l-65 -32v500l-32 -34l-34 -34l-37 -33l-38 -31l-7 7l89 114l55 76l49 78l44 79zM362 140v-2v2zM262 991l49 -42l6 -18l-20 2l-51 -54l-49 -46l-53 -44l-59 -42l-31 -20l-7 7l139 156
l56 74l17 24zM365 86v5v-5zM365 81l-7 31l-4 4l3 3l-6 26l22 1l140 223l73 126l5 9h-285v22h298l6 12l4 -2v240h-257v22h257v192l64 -10l16 -11l-16 -10v-161h138l54 54l64 -54v-22h-256v-250h190l53 54l65 -54v-22h-321l-53 -81l-57 -82l-92 -118l-32 -39l-34 -38l70 2
l54 3l56 1l114 5l119 3l61 1h21l-25 47l-18 30l-39 57l-64 79l7 8l29 -19l28 -22l26 -23l26 -26l46 -56l43 -64l19 -34l19 -35v-24l-17 -19h-24l-19 17l-14 34l-15 34l-88 -14l-118 -15l-57 -7l-219 -23l-31 -3l-10 -17z" />
  </g>

</svg>
