<?xml version="1.0" standalone="no"?>
<!DOCTYPE svg PUBLIC "-//W3C//DTD SVG 1.1//EN" "http://www.w3.org/Graphics/SVG/1.1/DTD/svg11.dtd" >
<svg xmlns="http://www.w3.org/2000/svg" xmlns:xlink="http://www.w3.org/1999/xlink" version="1.1" viewBox="0 -36 256 256">
  <g transform="matrix(1 0 0 -1 0 220)">
   <path fill="currentColor"
d="M59 199q0 29 -1 47l22 -10l-8 -5v-32h13l10 10l15 -18h-38v-39h23l10 11l15 -18h-53l17 -8l-8 -7v-25h12l9 11l14 -18h-35v-54q26 -14 66.5 -16t104.5 5v-4q-14 -5 -15 -16q-35 0 -76 1.5t-70.5 14.5t-46.5 38q-9 -32 -30 -58l-2 2q12 25 19 54.5t6 57.5l22 -9l-6 -5
q-3 -18 -7 -36q10 -11 22 -20v91h-26q-10 0 -19 -2l-9 9h50v40h-10q-10 1 -19 -2l-8 10h37zM235 229q-18 0 -44 -2t-73 -6v5q48 6 64.5 9t39.5 11zM147.5 193.5q0.5 -9.5 -5 -13.5t-8 8t-15.5 27l3 1q25 -13 25.5 -22.5zM199 179l-3 1q16 27 21 41l16 -12q-10 -5 -34 -30z
M136 128h30v25h-30v-25zM178 128h32v25h-32v-25zM136 95h30v26h-30v-26zM178 95h32v26h-32v-26zM224 95l8 8l12 -15h-21v-35q0 -9 -3.5 -13.5t-14.5 -8.5q-5 13 -25 19v4q19 -3 24.5 -3.5t5.5 5.5v32h-74v-50l-14 -7q1 19 1 57q-4 0 -13 -2l-9 9h22q0 55 -1 73l15 -8h29
q0 13 -1 26l20 -8l-7 -6v-12h30l9 10l12 -13l-6 -5v-57h1zM185 199.5q2 -7.5 -3.5 -13t-9 6t-15.5 24.5l2 2q24 -12 26 -19.5z" />
  </g>

</svg>
