<?xml version="1.0" standalone="no"?>
<!DOCTYPE svg PUBLIC "-//W3C//DTD SVG 1.1//EN" "http://www.w3.org/Graphics/SVG/1.1/DTD/svg11.dtd" >
<svg xmlns="http://www.w3.org/2000/svg" xmlns:xlink="http://www.w3.org/1999/xlink" version="1.1" viewBox="0 -36 256 256">
  <g transform="matrix(1 0 0 -1 0 220)">
   <path fill="currentColor"
d="M143 201q20 -5 41.5 -13.5t24 -23.5t-11 -4.5t-29 18t-38.5 17.5q-46 -25 -103 -33l-1 5q56 14 89 34q-32 12 -73 25l3 4q22 -5 46.5 -11t36.5 -11q37 20 57 38l17 -18h-11q-27 -15 -48 -27zM213 146l14 13l19 -20h-197q-23 1 -29 -2l-10 9h203zM60 72h135v33h-135v-33z
M60 30h135v35h-135v-35zM61 112h132l9 10l16 -14l-9 -7q0 -58 1 -87l-15 -7v16h-135v-10l-15 -6q1 24 1 54t-1 59z" />
  </g>

</svg>
