<?xml version="1.0" standalone="no"?>
<!DOCTYPE svg PUBLIC "-//W3C//DTD SVG 1.1//EN" "http://www.w3.org/Graphics/SVG/1.1/DTD/svg11.dtd" >
<svg xmlns="http://www.w3.org/2000/svg" xmlns:xlink="http://www.w3.org/1999/xlink" version="1.1" viewBox="0 -339 2048 2048">
  <g transform="matrix(1 0 0 -1 0 1709)">
   <path fill="currentColor"
d="M921 488h-502v-26q0 -8 -7 -16q-7 -6 -20 -10q-12 -4 -25 -4q-21 0 -38 9q-10 6 -13 16q-3 7 -3 20l8 142v221l110 -68h544v119h-645q-115 0 -191 -8l-39 88q30 -7 52 -11q73 -12 178 -12h645l1 71q0 23 -6 90q-1 10 -3 23l109 -24q59 -13 72 -23t13 -22q0 -11 -9 -21
q-13 -13 -40 -21l-40 -11v-62h665l98 102l121 -107q13 -12 15 -16q2 -5 2 -10q0 -9 -6 -16q-9 -10 -21 -10h-873v-119h584l53 66l80 -50q34 -21 34 -44q0 -10 -8 -20q-13 -17 -57 -36v-128l38 -30q12 -8 10 -23q-1 -9 -10 -16q-3 -3 -8 -3h-713q105 -56 178 -89
q264 -119 494 -157q40 -6 62 -8.5t96 -8.5q33 -3 41 -3q11 -1 33 0v-31q-43 -8 -59 -13t-30 -13q-18 -12 -27 -36q-3 -7 -6 -17q-127 28 -178 43q-159 46 -305 113q-90 40 -134 67l-72 42q-66 39 -95 58v-215q0 -28 4 -65t4 -51q0 -33 -18 -50q-15 -15 -40 -15q-27 0 -41 11
q-8 5 -8 15v335q-166 -96 -390 -171q-149 -50 -319 -80q-50 -10 -178 -27l-10 36q97 19 166 37q92 24 216 66q130 44 260 109q79 40 129 71q24 15 72 47zM975 718h-556v-176h556v176zM1074 718v-176h589v176h-589zM1072 1330v-153q0 -7 -8 -15q-14 -15 -40 -15q-27 0 -41 11
q-8 6 -8 15v149q-86 -61 -156 -98q-85 -45 -212 -93q-84 -32 -224 -67q-29 -8 -166 -35l-9 34q63 14 115 30q106 34 157 54q124 48 188 83q60 33 141 87q71 49 118 89q18 16 48 44v92h-68v0h-458v-208q0 -18 -6 -25q-16 -17 -53 -17q-31 0 -40 16q-4 9 -4 23q0 2 3 86l4 46
v51l-4 73l1 50q0 10 -4 39l114 -77h413v0h102v120h-603q-83 0 -171 -6q-8 -1 -21 -2l-38 88q30 -7 52 -11q73 -12 178 -12h603l1 42q0 23 -5 97q-1 21 -4 38l109 -24q59 -13 72 -23q13 -11 13 -23q0 -11 -9 -21q-13 -13 -40 -20l-40 -11v-55h619l99 102l121 -107
q12 -11 14 -16q2 -4 2 -10q0 -9 -6 -16q-8 -10 -21 -10h-828v-120h519l69 77l84 -55q26 -18 33 -29q6 -10 6 -20q0 -12 -7 -22q-10 -12 -41 -26q-4 -2 -29 -13v-65q0 -50 -23 -85q-18 -26 -66 -44q-20 -8 -54 -14q0 21 -2 33q-5 40 -53 61q-26 12 -80 23l8 42q40 -9 75 -14
q57 -9 66 -9q20 0 29 13q5 5 5 11q1 6 1 18l-2 61h-538v-172q101 -18 136 -27q69 -17 179 -50q94 -28 183 -67q51 -23 79 -44q38 -27 56 -56q11 -19 11 -36q0 -23 -19 -38q-14 -10 -32 -10q-16 0 -36 11q-12 5 -75 50q-47 34 -120 80q-37 23 -76 41q-101 47 -182 74
q-34 11 -104 32z" />
  </g>

</svg>
