<?xml version="1.0" standalone="no"?>
<!DOCTYPE svg PUBLIC "-//W3C//DTD SVG 1.1//EN" "http://www.w3.org/Graphics/SVG/1.1/DTD/svg11.dtd" >
<svg xmlns="http://www.w3.org/2000/svg" xmlns:xlink="http://www.w3.org/1999/xlink" version="1.1" viewBox="0 -36 256 256">
  <g transform="matrix(1 0 0 -1 0 220)">
   <path fill="currentColor"
d="M63 178l23 -9l-8 -6v-13h32l14 13l15 -20h-61v-23h-14q0 54 -1 58zM94 86h20v28h-20v-28zM21 75.5q0 33.5 -1 50.5l16 -6h76l6 9l16 -12l-7 -5v-80q-3 -18 -21 -23q-1 11 -23 15v4q18 -2 24 -2t7 9v43h-20v-41l-12 -5v46h-18v-45l-13 -4v49h-17v-62l-14 -5q1 31 1 64.5z
M34 85h17v28h-17v-28zM64 85h18v28h-18v-28zM184 62q13 22 22 70h-42q-2 -5 -5 -12q6 -30 25 -58zM155 115l-16 -32l-4 1q20 51 28 97l22 -10l-10 -6q-4 -11 -11 -26h49l11 12l18 -18h-23q-9 -52 -27 -80q18 -23 54 -32l-1 -3q-14 1 -22 -8q-25 16 -38 34q-21 -24 -64 -35
l-1 4q37 14 56 39q-15 27 -21 63zM68 229l-10 -18h54l11 14l14 -21h-55q19 -11 20 -19.5t-5 -15.5t-9 7t-15 28h-19q-18 -26 -38 -45l-5 3q15 20 26.5 39.5t19.5 44.5l23 -14zM172 228l-11 -18h57l12 12l15 -19h-62q15 -8 19 -14t3 -12.5t-6 -9t-8 8.5t-17 27h-17
q-12 -16 -30 -33l-3 3q19 30 26.5 45.5t10.5 26.5l22 -14z" />
  </g>

</svg>
