<?xml version="1.0" standalone="no"?>
<!DOCTYPE svg PUBLIC "-//W3C//DTD SVG 1.1//EN" "http://www.w3.org/Graphics/SVG/1.1/DTD/svg11.dtd" >
<svg xmlns="http://www.w3.org/2000/svg" xmlns:xlink="http://www.w3.org/1999/xlink" version="1.1" viewBox="0 -205 1024 1024">
  <g transform="matrix(1 0 0 -1 0 819)">
   <path fill="currentColor"
d="M308 974l80 -26q15 -9 0 -18l-32 -12v-104h88l34 42l52 -50q2 -3 2 -8q1 -7 -4 -8h-172v-132l172 30l6 -18l-360 -90q-68 -21 -94 -42l-40 60l96 18v268l76 -30q22 -12 2 -20l-30 -14v-196l124 24v326v0v0zM896 864q6 -9 4 -12q-4 -1 -16 -2q-24 -3 -50 -12
q-135 -55 -206 -88v-74q-1 -31 10 -40q9 -7 34 -8h166q27 0 42 10q11 9 20 30q8 18 14 112h18q2 -58 8 -86q5 -24 28 -36q-15 -36 -38 -54q-22 -15 -76 -20h-192q-28 3 -44 6q-13 2 -28 20q-12 16 -14 50v318l80 -34q7 -3 8 -8q0 -4 -6 -8l-30 -12v-142q103 59 212 136
l56 -46v0v0zM450 590q9 -7 -2 -14q-13 -4 -58 -20h190l28 20l48 -40q18 -10 6 -20q-37 -3 -82 -24l-42 -34h226l32 34l56 -44q9 -10 -2 -16l-24 -14v-104l2 -110q0 -12 -18 -20q-18 -10 -36 -8v34h-494v-10q1 -22 -18 -28q-18 -6 -36 -6l4 108v140q-57 -45 -128 -80l-10 14
q78 60 138 108t162 162l58 -28v0v0zM280 236h214v88h-214v-88v0v0zM548 324v-88h226v88h-226v0v0zM280 348h214v84h-214v-84v0v0zM548 432v-84h226v84h-226v0v0zM280 458h226l72 74h-210q-38 -46 -88 -74v0v0zM196 166h18q-4 -61 -22 -95q-15 -31 -36 -48q-20 -15 -40 -18
q-21 -4 -32 4q-10 8 -10 22q0 13 18 20q14 9 32 18q15 6 36 30t36 67v0v0zM358 148l10 10q49 -26 74 -53q23 -24 26 -46q0 -19 -8 -32q-10 -12 -28 -10q-16 3 -20 26q-3 24 -14 48q-13 25 -40 57v0v0zM790 148l8 14q72 -25 108 -45t48 -44q11 -20 2 -38t-26 -16
q-16 3 -28 24q-13 21 -40 48q-27 28 -72 57v0v0zM582 146l10 10q59 -29 82 -51t26 -44q0 -19 -8 -30q-10 -11 -28 -8q-16 3 -22 26q-3 24 -18 44q-12 19 -42 53v0v0z" />
  </g>

</svg>
