<?xml version="1.0" standalone="no"?>
<!DOCTYPE svg PUBLIC "-//W3C//DTD SVG 1.1//EN" "http://www.w3.org/Graphics/SVG/1.1/DTD/svg11.dtd" >
<svg xmlns="http://www.w3.org/2000/svg" xmlns:xlink="http://www.w3.org/1999/xlink" version="1.1" viewBox="0 -150 1000 1000">
  <g transform="matrix(1 0 0 -1 0 850)">
   <path fill="currentColor"
d="M320 394l6 12q48 -36 58 -52q21 -23 30 -47q7 -21 5 -48q-4 -24 -21 -23q-18 -1 -17 29q0 32 -16 64q-20 41 -45 65zM109 852v-196h121v196h-121zM109 639v-197h121v197h-121zM109 427v-199h121v199h-121zM606 596h148v318q1 18 -29 45l9 11l86 -35q14 -6 6 -10
q-21 -9 -31 -21v-308h72l35 47l72 -55q10 -7 7.5 -10t-18.5 -2h-168v-411l4 -96q0 -17 -13 -30q-14 -9 -39 -14q4 37 7 186v365h-70q-25 0 -47 -13zM299 566l-6 10q32 45 81 128q39 69 64 140q27 79 22 88q-2 5 -9 17q-3 4 -4 6l8 6l79 -34q2 -4 1 -6t-6 -2q-18 -2 -30 -22
q-3 -9 -6 -16q4 -2 13 -7q31 -15 45 -23q35 -22 62 -54q24 -29 23.5 -55.5t-16.5 -29.5q-19 -3 -29.5 29.5t-42.5 67.5q-17 18 -63 51q-33 -83 -69 -147q-17 -27 -36 -51h147l25 30l55 -37q8 -5 5.5 -7.5t-11.5 -1.5h-101v-150h44l27 36l55 -47q7 -6 5.5 -8t-10.5 -1h-121
v-216l11 19q10 18 27 46q40 66 37 65q0 4 -7 19q-1 3 -2 4l9 7l54 -36q15 -13 6 -16q-31 -2 -44 -24q-4 -6 -13 -17q-50 -68 -78 -97v-44l144 35l4 -18l-137 -45q-105 -29 -134 -46q-31 -12 -37 -37l-49 58l173 43v300h-51q-28 0 -45 -13l-33 33h129v150h-6q-31 0 -48 -13
l-31 25q-32 -47 -80 -92zM69 906l32 -35h111l37 36l41 -44q7 -5 5.5 -9.5t-10.5 -7.5l-18 -8v-530l2 -124q1 -32 -39 -31v55h-121v-56q3 -36 -43 -43q4 25 5 144v605q-3 24 -15 37z" />
  </g>

</svg>
