<?xml version="1.0" standalone="no"?>
<!DOCTYPE svg PUBLIC "-//W3C//DTD SVG 1.1//EN" "http://www.w3.org/Graphics/SVG/1.1/DTD/svg11.dtd" >
<svg xmlns="http://www.w3.org/2000/svg" xmlns:xlink="http://www.w3.org/1999/xlink" version="1.1" viewBox="0 -52 256 256">
  <g transform="matrix(1 0 0 -1 0 204)">
   <path fill="currentColor"
d="M184 57l7 9l15 -11q2 -2 1 -2q0 -1 -3 -1h-36v-20l1 -14q1 -8 -13 -11v9q1 16 1 26v10h-17q-7 0 -12 -3l-8 8h37v57h-3q-8 -16 -20 -30q-23 -30 -59 -44l-2 3q32 20 50 44q6 7 15 23q1 3 2 4h-29q-6 1 -12 -3l-8 8h66v25q1 5 -7 12l2 3l22 -9q4 -1 2 -3q-5 -2 -8 -5v-23
h49l6 9l16 -11l2 -2q0 -1 -3 -1h-62q2 -3 5 -8l9 -12q16 -18 29 -25q9 -6 29 -11q2 -1 3 -1v-3h-12q-3 0 -9 -7q-30 16 -45 42q-8 11 -13 25h-4v-57h16zM5 94l-2 2q24 23 34 38q5 6 8 11v10q-1 7 -5 11l4 2l9 -10q0 1 1 2q6 11 12 27h-47q-7 0 -9 -4l-8 9h62l7 9l15 -12
q2 -1 2 -2t-2 -1q-6 -1 -7 -3q-3 -1 -7 -10q-5 -9 -11 -20q-2 -3 -5 -7v-20q1 0 2 -1q1 0 2 -1l7 9q9 11 10 15q1 3 -1 7q2 -3 0 1l2 2l16 -14l2 -1q0 -1 -2 -2q-4 1 -10 -2q-3 -3 -10 -9q-7 -5 -10 -8q8 -3 12 -6q7 -6 10 -11t2 -10q-1 -4 -5 -6q-4 0 -6 6t-7 14
q-3 5 -14 12v-78l1 -23q0 -5 -4 -7q-3 -3 -10 -4q2 9 2 46v75q-11 -13 -40 -36zM97 216h63v19q0 3 -8 11l2 3l21 -9q4 -1 2 -3q-5 -2 -8 -5v-16h38l7 9l15 -11q3 -2 2 -2q-1 -1 -5 0h-57v-5l1 -14q0 -5 -3 -8l-1 -1q-4 -2 -8 -2v8q1 12 1 22h-42q-6 0 -11 -4zM143 170l7 9
l13 -12q4 -2 -2 -2h-31v-7v-13q0 -5 -2 -8q-3 -1 -10 -3q2 8 2 31h-14q-6 0 -11 -4l-9 9h34v13q1 5 -8 12l3 3l21 -9l2 -1q1 -1 -1 -2q-5 -2 -7 -5v-11h13zM177 162l-8 8h33v13q2 3 -6 10l2 3l20 -7q2 -1 2 -2l-1 -1q-5 -2 -7 -5v-11h13l8 10l15 -12q2 -2 1 -3t-4 0h-33
l1 -16q0 -6 -3 -8q-3 -3 -9 -4q1 8 1 28h-14q-6 0 -11 -3zM29 245l1 4q22 -6 28 -11q6 -4 9 -9q3 -6 2 -10q-2 -6 -5 -6q-4 -2 -6 4q-1 7 -6 13q-5 8 -23 15z" />
  </g>

</svg>
