<?xml version="1.0" standalone="no"?>
<!DOCTYPE svg PUBLIC "-//W3C//DTD SVG 1.1//EN" "http://www.w3.org/Graphics/SVG/1.1/DTD/svg11.dtd" >
<svg xmlns="http://www.w3.org/2000/svg" xmlns:xlink="http://www.w3.org/1999/xlink" version="1.1" viewBox="0 -36 256 256">
  <g transform="matrix(1 0 0 -1 0 220)">
   <path fill="currentColor"
d="M32 242q25 -10 30 -17.5t0.5 -15.5t-10 4t-21.5 26zM12 183q30 -12 32 -21.5t-4 -15t-10 6t-19 27.5zM36.5 87q6.5 4 33.5 109l5 -1q-20 -90 -23.5 -102t-4.5 -23t1 -35.5t-9 -18.5t-8 22.5t3 27t-22 15.5v4q18 -2 24.5 2zM206 181l10 11l18 -18h-91l-8 -25h15l6 9
l15 -11l-7 -5v-90q0 -17 -17 -22q-3 14 -27 18v4q19 -2 25 -2t6 5v87h-17l-7 -5l-11 12l7 5l6 20h-18q-13 0 -22 -3l-10 10h127zM78 134l16 -7h17l6 9l15 -11l-7 -6v-27q0 -12 2 -29l-15 -5v8h-21v-10l-13 -5q1 17 1 41.5t-1 41.5zM98 19q-13 0 -22 -3l-10 10h154l10 11
l18 -18h-150zM191 129l-11 -3l-10 11h37l7 9l16 -14l-8 -5q-8 -24 -14 -37q13 -10 19 -19t2 -18.5t-9.5 2t-15.5 24.5q-17 -28 -38 -42l-2 3q21 23 30 48q-12 13 -25 26l3 3q13 -8 26 -19q8 18 10 31h-17zM91 120v-47h21v47h-21zM130 217l10 11l16 -18h-30q0 -15 1 -21
l-15 -4q1 7 1 25h-19l-11 -3l-10 10h40q0 11 -1 27l21 -6l-7 -5v-16h4zM210 220l10 11l18 -18h-38q0 -13 1 -23l-15 -5q1 7 1 28h-12l-11 -3l-10 10h33q0 15 -1 24l21 -7l-7 -5v-12h10z" />
  </g>

</svg>
