<?xml version="1.0" standalone="no"?>
<!DOCTYPE svg PUBLIC "-//W3C//DTD SVG 1.1//EN" "http://www.w3.org/Graphics/SVG/1.1/DTD/svg11.dtd" >
<svg xmlns="http://www.w3.org/2000/svg" xmlns:xlink="http://www.w3.org/1999/xlink" version="1.1" viewBox="0 -36 256 256">
  <g transform="matrix(1 0 0 -1 0 220)">
   <path fill="currentColor"
d="M29 234q24 -9 29 -16.5t0 -16t-10.5 3.5t-19.5 26zM12 181q28 -12 30.5 -21.5t-3.5 -14.5t-9.5 6t-18.5 27zM36 88q6 4 31 104l5 -1q-19 -86 -22 -97.5t-3.5 -22.5t1 -34.5t-9 -18t-7.5 22t3 26.5t-21 15v4q17 -2 23 2zM88 221q13 7 23 17l10 -13q-7 0 -32 -10v-25h14
l9 8l13 -15h-36v-27h15l10 9l12 -16h-37v-4l-13 -4q1 18 1 43.5t-1 41.5zM226 216q-9 0 -18 -2l-9 10h26l6 7l13 -9l-6 -8v-66l-12 -6v6q-11 0 -20 -2l-9 10h29v27q-9 0 -18 -2l-9 8h27v27v0zM188 108l11 11l15 -18h-79q-12 0 -20 -1l-9 8h82zM94 85h118l13 11l17 -18h-81
q8 -15 19 -24q29 13 35 22l15 -14q-9 -1 -21.5 -4.5t-25.5 -8.5q28 -22 60 -24v-4q-12 -2 -20 -10q-20 8 -38 22t-30 45h-37l16 -5l-7 -5v-41l32 12l2 -4q-33 -17 -42 -25l-9 11q4 4 4 11v46h-20q0 -18 -7.5 -34.5t-30.5 -34.5l-2 3q15 17 21 32t6.5 32.5t-0.5 61.5l13 -8
h112l10 11l17 -18h-139v-38zM139 155h41v61h-41v-61zM156 186q-5 9 -16 21l2 2q9 -6 18 -14q7 10 9 17l11 -9q-4 -1 -5.5 -3.5t-7.5 -11.5q9 -10 10.5 -14.5t-1.5 -9.5t-6 1.5t-8 13.5q-10 -11 -22 -18l-2 2q12 13 18 23zM128 185.5q0 22.5 -1 43.5l12 -6h8q6 15 6 23l16 -7
l-7 -4q-3 -3 -9 -12h26l6 7l13 -8l-7 -6v-52q0 -9 1 -20l-12 -2v6h-41v-4l-12 -3q1 22 1 44.5z" />
  </g>

</svg>
