<?xml version="1.0" standalone="no"?>
<!DOCTYPE svg PUBLIC "-//W3C//DTD SVG 1.1//EN" "http://www.w3.org/Graphics/SVG/1.1/DTD/svg11.dtd" >
<svg xmlns="http://www.w3.org/2000/svg" xmlns:xlink="http://www.w3.org/1999/xlink" version="1.1" viewBox="0 -52 256 256">
  <g transform="matrix(1 0 0 -1 0 204)">
   <path fill="currentColor"
d="M92 248l21 -9q3 -1 1 -3q-4 0 -7 -4v-26h6l7 9l14 -11q3 -1 2 -2q0 -1 -4 -1h-25v-112h10l6 8l13 -11q3 -2 -1 -2h-110q-6 0 -10 -3l-8 8h33v112h-10q-6 0 -11 -3l-8 8h29v27q0 5 -6 11l1 3l21 -9q3 -1 2 -3q-4 0 -7 -4v-25h45v28q1 4 -6 11zM96 163h-45v-35h45v35z
M96 124h-45v-35h45v35zM96 201h-45v-34h45v34zM46 80l15 -10q4 -3 1 -4q-5 0 -8 -2q-21 -31 -46 -50l-2 2q20 24 27 34q12 18 12 22q0 3 -1 6zM84 76l2 3q18 -12 26 -28q8 -17 -1 -21q-6 -1 -6 8q-1 7 -7 17q-5 11 -14 21zM118 230h105l8 10l17 -13q5 -2 -1 -2h-60l-20 -41
h45l11 11l12 -13q1 -1 1 -3q-1 -1 -3 -1l-4 -3v-66v-34q0 -7 -13 -11l1 24l1 21v70h-68v-82l1 -24q0 -10 -14 -11q2 9 2 47v73q-1 7 -5 10l4 3l9 -11h13l13 41h-35q-6 0 -11 -4zM174 162l20 -6l2 -1q1 -1 -1 -2q-3 -1 -6 -5v-41q2 -45 -25 -67q-27 -21 -67 -30l-1 4
q36 13 60 32q24 21 21 64v42q-2 4 -5 7zM191 61l2 4q23 -9 34 -17q11 -7 17 -15q11 -16 0 -21q-5 1 -9 11q-5 10 -14 17q-7 8 -30 21z" />
  </g>

</svg>
