<?xml version="1.0" standalone="no"?>
<!DOCTYPE svg PUBLIC "-//W3C//DTD SVG 1.1//EN" "http://www.w3.org/Graphics/SVG/1.1/DTD/svg11.dtd" >
<svg xmlns="http://www.w3.org/2000/svg" xmlns:xlink="http://www.w3.org/1999/xlink" version="1.1" viewBox="0 -205 1024 1024">
  <g transform="matrix(1 0 0 -1 0 819)">
   <path fill="currentColor"
d="M348 788l34 48l60 -54q3 -3 4 -8q0 -12 -12 -12h-308q-21 0 -68 -8l-16 34h306v0v0zM78 658h244l32 44l58 -50q3 -3 4 -8q0 -12 -12 -12h-236q-33 0 -66 -8l-24 34v0v0zM112 436l62 -44h128l28 36l56 -46q6 -4 6 -8q1 -6 -28 -30v-174l4 -55q0 -12 -20 -24
q-18 -11 -36 -14v62h-150v-48q0 -15 -18 -30q-18 -13 -36 -14l4 84v305v0v0zM162 164h150v202h-150v-202v0v0zM76 526h250l36 46l54 -52q3 -3 4 -8q0 -12 -12 -12h-254q-20 0 -58 -8l-20 34v0v0zM474 700l60 -38h120l30 34l50 -34q9 -6 10 -14q0 -3 -30 -24v-242l4 -62
q1 -15 -16 -26q-15 -12 -36 -12v66h-142v-52q0 -13 -18 -26q-18 -12 -36 -12l4 148v294v0v0zM524 374h142v262h-142v-262v0v0zM422 860h482l36 44l62 -52q3 -4 6 -10q-2 -7 -4 -8h-128v-719q-4 -32 -26 -50q-19 -17 -58 -32q-3 30 -30 48q-25 19 -104 40l6 18
q126 -25 144 -18q18 6 16 25v688h-314q-21 0 -68 -8l-20 34v0v0zM148 976l10 10q84 -55 102 -82q19 -27 18 -48q0 -22 -12 -32q-13 -11 -28 -6q-16 3 -20 22q-2 19 -10 44q-6 25 -60 92v0v0z" />
  </g>

</svg>
