<?xml version="1.0" standalone="no"?>
<!DOCTYPE svg PUBLIC "-//W3C//DTD SVG 1.1//EN" "http://www.w3.org/Graphics/SVG/1.1/DTD/svg11.dtd" >
<svg xmlns="http://www.w3.org/2000/svg" xmlns:xlink="http://www.w3.org/1999/xlink" version="1.1" viewBox="0 -36 256 256">
  <g transform="matrix(1 0 0 -1 0 220)">
   <path fill="currentColor"
d="M61 216l15 -10h69q-1 7 -4.5 16t-12.5 21l2 2q19 -11 25.5 -20.5t-3.5 -18.5h57l15 12l16 -19h-164q0 -45 -1 -76t-13 -59.5t-44 -54.5l-2 3q40 38 46 108q-28 -20 -37 -34l-13 15q17 5 50 24q0 67 -1 91zM44.5 167.5q5.5 -8.5 -2 -17t-10 6.5t-11.5 29l2 3
q16 -13 21.5 -21.5zM109 170v-32h18l13 9l13 -16h-44v-32h89v32h-4q-13 1 -24 -2l-9 9h37v30h-9q-13 1 -24 -2l-9 9h42l7 10l15 -13l-8 -7v-56q0 -14 1 -19l-15 -6v8h-21v-57q0 -9 14 -8h15q7 -1 9.5 4t2.5 30h5q1 -24 4 -28t9 -7q-7 -11 -20 -12h-36q-15 1 -17 15v63h-21
q-3 -32 -21.5 -52.5t-65.5 -31.5l-2 3q37 15 54 31.5t20 49.5h-18v-6l-14 -5q1 16 1 50.5t-1 49.5l14 -6q25 11 35 21l13 -14q-13 -1 -48 -12z" />
  </g>

</svg>
