<?xml version="1.0" standalone="no"?>
<!DOCTYPE svg PUBLIC "-//W3C//DTD SVG 1.1//EN" "http://www.w3.org/Graphics/SVG/1.1/DTD/svg11.dtd" >
<svg xmlns="http://www.w3.org/2000/svg" xmlns:xlink="http://www.w3.org/1999/xlink" version="1.1" viewBox="0 -205 1024 1024">
  <g transform="matrix(1 0 0 -1 0 819)">
   <path fill="currentColor"
d="M560 884q-12 -7 -24 -34q-10 -28 -22 -64h94l28 40l58 -44q6 -4 6 -10q0 -5 -12 -10q-21 -3 -26 -20l-16 -72q-9 -55 -48 -146q-36 -91 -92 -160q-55 -70 -118 -118l-12 12q68 75 104 130q35 51 74 138q36 83 58 236h-108q-56 -147 -154 -288l-14 8q60 116 102 230
q39 111 70 234q72 -36 76 -42q1 -6 -4 -8q-6 -3 -20 -12v0v0zM756 688v258q84 -34 84 -40q0 -7 -2 -8q-2 0 -34 -20v-190h98l32 42q54 -49 54 -56q0 -6 -6 -12h-180q19 -85 38 -134q17 -49 40 -92q24 -42 48 -72t72 -44v-14q-24 0 -42 -2q-16 -1 -44 -20q-33 36 -50 72
q-18 33 -38 88q-19 54 -34 148q-21 -99 -50 -152q-30 -54 -84 -108q-52 -53 -124 -88l-10 14q66 48 102 90q37 39 68 94q30 52 42 110q13 56 20 112h-42q-14 -1 -28 -8l-24 32h94v0v0zM828 860l4 12q42 -13 70 -28q24 -13 36 -32q9 -18 0 -36q-9 -19 -24 -16q-14 -1 -22 20
q-6 20 -20 40q-15 18 -44 40v0v0zM464 220h18q-3 -78 -18 -119q-14 -42 -34 -60q-18 -18 -38 -22q-21 -4 -32 4q-10 7 -8 22q3 14 18 22q15 9 30 24t30 36q12 20 34 93v0v0zM684 218l12 12q77 -60 94 -90q15 -27 12 -51q-3 -20 -14 -32q-13 -9 -28 -4q-14 7 -16 34
q0 27 -8 50q-7 23 -52 81v0v0zM824 226l10 12q85 -64 116 -101q31 -38 30 -68q-2 -27 -16 -36q-13 -9 -28 -4q-15 6 -18 32t-24 70q-22 43 -70 95v0v0zM538 210l12 8q65 -70 80 -95q12 -26 10 -50q-4 -21 -16 -30q-13 -9 -28 -4q-15 6 -14 32q0 26 -6 52q-6 24 -38 87v0v0z
M478 666l6 10q39 -12 60 -26q19 -16 20 -34q1 -19 -10 -28q-12 -10 -24 -4q-13 3 -16 28q-3 24 -36 54v0v0zM412 544l8 10q42 -25 58 -44q16 -18 14 -38q-3 -19 -18 -26t-24 2q-10 8 -10 34q-1 23 -28 62v0v0zM82 914l54 -42h164l26 34l56 -38q7 -4 2 -14l-26 -18v-144
l4 -64q0 -18 -18 -30q-15 -10 -36 -8v34h-56v-204h42l32 44l50 -56q9 -9 -2 -14h-122v-220l158 44l6 -20q-224 -78 -280 -99q-54 -23 -74 -46l-40 66l48 12v373l74 -32q9 -6 0 -14l-24 -14v-304l82 20v464h-72v-12q1 -9 -16 -18q-15 -6 -36 -8l4 80v248v0v0zM130 650h178
v196h-178v-196v0v0z" />
  </g>

</svg>
