<?xml version="1.0" standalone="no"?>
<!DOCTYPE svg PUBLIC "-//W3C//DTD SVG 1.1//EN" "http://www.w3.org/Graphics/SVG/1.1/DTD/svg11.dtd" >
<svg xmlns="http://www.w3.org/2000/svg" xmlns:xlink="http://www.w3.org/1999/xlink" version="1.1" viewBox="0 -36 256 256">
  <g transform="matrix(1 0 0 -1 0 220)">
   <path fill="currentColor"
d="M112 152l-30 -21h30l7 8l14 -13l-9 -6q0 -47 1 -57l-13 -4v5h-70v-6l-15 -5q2 18 2 74q-9 -7 -20 -14l-2 5q34 29 56 64l19 -12h-9l-11 -10h35l8 7l16 -13zM37 135l10 -4h27l20 22h-38q-9 -9 -19 -18zM42 100h28v24h-28v-24zM82 100h29v24h-29v-24zM42 71h28v22h-28v-22z
M82 71h29v22h-29v-22zM39.5 25q-2.5 -7 -8.5 -9.5t-14 -2t1 9t14 27.5h6q4 -18 1.5 -25zM54 51q16 -12 19.5 -20.5t-5 -13.5t-10 6.5t-3.5 16.5l-4 10zM77 54q25 -14 26 -21t-4.5 -12.5t-9.5 5.5t-14 26zM103 56q20 -8 25 -13.5t-0.5 -13.5t-9 0t-7.5 13.5t-10 11.5z
M214 130h-52q-10 -20 -30 -40l-4 2q27 40 36 88l23 -11l-11 -4q-7 -19 -12 -28h49l7 9l16 -13q-12 -4 -30 -30l-3 2zM195 48q-11 24 -12 52q-5 -38 -21.5 -59.5t-44.5 -33.5l-2 4q30 19 42.5 45.5t13.5 68.5l22 -8l-8 -5q5 -35 21.5 -59.5t40.5 -30.5v-4q-15 -1 -20 -9
q-21 15 -32 39zM228 180l-16 -3v6h-169v-5l-16 -4q1 18 1 38t-1 32l17 -7h164l10 9l17 -10l-8 -6v-25q0 -19 1 -25zM43 190h44v40h-44v-40zM102 190h49v40h-49v-40zM166 190h46v40h-46v-40z" />
  </g>

</svg>
