<?xml version="1.0" standalone="no"?>
<!DOCTYPE svg PUBLIC "-//W3C//DTD SVG 1.1//EN" "http://www.w3.org/Graphics/SVG/1.1/DTD/svg11.dtd" >
<svg xmlns="http://www.w3.org/2000/svg" xmlns:xlink="http://www.w3.org/1999/xlink" version="1.1" viewBox="0 -205 1024 1024">
  <g transform="matrix(1 0 0 -1 0 819)">
   <path fill="currentColor"
d="M476 900h408l32 46l60 -54q3 -3 6 -8q0 -12 -14 -12h-120v-334h60l36 46l58 -54q2 -3 2 -8q1 -12 -10 -12h-146v-373l4 -74q1 -15 -22 -30q-21 -15 -36 -16l4 118v375h-150q-3 -123 -30 -210q-28 -88 -82 -160q-52 -71 -142 -123l-8 12q72 65 118 133q44 68 68 148
q20 79 26 200h-82q-18 0 -66 -8l-14 36h162v334h-42q-17 0 -58 -8l-22 36v0v0zM798 538v334h-150v-334h150v0v0zM30 894h346l30 44l60 -54q3 -4 4 -10q1 -7 -16 -8h-152q-57 -73 -102 -124q69 -81 102 -152q33 45 88 148q66 -37 66 -44q0 -6 -8 -8q-9 -1 -18 -4t-38 -32
q-30 -28 -80 -82l18 -56q63 -35 88 -58q24 -21 42 -48q15 -25 18 -50q0 -24 -14 -36q-13 -13 -32 -10q-18 3 -20 30q0 27 -18 66q-16 39 -58 70q20 -169 8 -256q-13 -83 -50 -125q-36 -39 -90 -58q-18 42 -42 54t-84 36l6 17q84 -22 108 -23t42 6q15 6 30 25q14 20 26 82
q10 59 0 218q-69 -87 -132 -150t-126 -114l-8 14q63 68 114 128q52 60 140 184q-6 39 -30 84q-54 -65 -108 -118q-53 -53 -106 -100l-10 14q51 57 96 112q44 51 106 136q-17 35 -46 80q-76 -73 -136 -122l-12 14q51 59 106 122q54 60 102 130h-146q-20 0 -40 -8l-24 36v0v0z
" />
  </g>

</svg>
