<?xml version="1.0" standalone="no"?>
<!DOCTYPE svg PUBLIC "-//W3C//DTD SVG 1.1//EN" "http://www.w3.org/Graphics/SVG/1.1/DTD/svg11.dtd" >
<svg xmlns="http://www.w3.org/2000/svg" xmlns:xlink="http://www.w3.org/1999/xlink" version="1.1" viewBox="0 -36 256 256">
  <g transform="matrix(1 0 0 -1 0 220)">
   <path fill="currentColor"
d="M181 244l22 -9l-7 -7v-59h26l5 11l16 -11l-7 -9q-4 -81 -7.5 -104t-9.5 -31.5t-20 -12.5q-2 15 -29 21v5q29 -6 35.5 -3.5t10 27.5t6.5 100h-26q-4 -112 -75 -152l-1 4q58 44 62 147h-1q-6 0 -13 -3l-9 10h23q0 57 -1 76zM155.5 165q-1.5 -4 -14 -27.5t-35.5 -61.5l40 9
q-4 11 -12 23l2 3q14 -13 20 -20t6 -13t-5 -12t-6.5 -0.5t-2.5 13.5q-16 -6 -28 -11t-21 -11l-10 16q8 1 17 18t25 52q-7 -1 -16 -4.5t-15 -7.5l-9 18q8 -1 21 33.5t15 49.5l20 -9q-6 -1 -17 -27t-24 -48q16 2 28 2q10 23 12 33l18 -12q-7 -2 -8.5 -6zM49 247l19 -10l-6 -8
v-35h15l5 10l15 -11l-7 -8v-90q1 -22 -12 -27q-2 12 -14 15v4q6 -1 10.5 -0.5t3.5 11.5v89h-16v-139q0 -15 1 -31l-14 -8q1 25 1 45v133h-16v-111l-14 -7q1 33 1 70t-1 62l15 -7h15q0 29 -1 53z" />
  </g>

</svg>
