<?xml version="1.0" standalone="no"?>
<!DOCTYPE svg PUBLIC "-//W3C//DTD SVG 1.1//EN" "http://www.w3.org/Graphics/SVG/1.1/DTD/svg11.dtd" >
<svg xmlns="http://www.w3.org/2000/svg" xmlns:xlink="http://www.w3.org/1999/xlink" version="1.1" viewBox="0 -205 1024 1024">
  <g transform="matrix(1 0 0 -1 0 819)">
   <path fill="currentColor"
d="M846 480l64 -58q9 -9 10 -14q-1 -9 -16 -12q-24 -7 -42 -16q-18 -8 -164 -202q51 -41 64 -71q12 -30 4 -54q-7 -24 -28 -24q-18 1 -30 22q-9 21 -24 48q-12 28 -48 65t-138 110l8 12q101 -43 170 -94l134 220h-326q-16 0 -52 -8l-24 36h400l38 40v0v0zM702 940v-8
q0 -7 -24 -16q27 -69 78 -138q47 -70 98 -110q50 -40 140 -64v-18q-48 3 -66 -8q-18 -10 -36 -26q-51 36 -90 82q-37 45 -74 108q-36 61 -74 164q-63 -129 -146 -246q-81 -114 -162 -176l-10 10q75 89 150 208q71 119 128 268l88 -30v0v0zM594 678l12 8q69 -50 94 -82
q23 -31 26 -52q0 -21 -12 -36q-13 -13 -32 -8q-18 6 -20 30q-3 23 -14 52q-12 27 -54 88v0v0zM40 668h156v300l84 -36q8 -4 8 -8q3 -1 -2 -10l-38 -16v-230h54l34 42l48 -48q4 -3 8 -14q2 -7 -10 -8h-134v-322l152 54l8 -18q-174 -82 -240 -112q-65 -29 -94 -70l-48 64
l170 66v338h-72q-21 0 -68 -8l-16 36v0v0z" />
  </g>

</svg>
