<?xml version="1.0" standalone="no"?>
<!DOCTYPE svg PUBLIC "-//W3C//DTD SVG 1.1//EN" "http://www.w3.org/Graphics/SVG/1.1/DTD/svg11.dtd" >
<svg xmlns="http://www.w3.org/2000/svg" xmlns:xlink="http://www.w3.org/1999/xlink" version="1.1" viewBox="0 -205 1024 1024">
  <g transform="matrix(1 0 0 -1 0 819)">
   <path fill="currentColor"
d="M178 716h20v-48h680l30 38q68 -60 70 -66q3 -6 -2 -8q-3 -3 -26 -8q-21 -4 -44 -22t-58 -56l-16 10q18 36 52 84h-684q-5 -48 -22 -78q-18 -29 -44 -40q-25 -9 -40 6q-16 15 -4 30q9 15 34 30q21 15 34 46q11 27 20 82v0v0zM370 980l86 -32q6 -3 6 -6q9 -9 -38 -26v-76
h202v138l94 -32q6 -3 4 -12q0 -3 -44 -20v-74h184l40 52l64 -64q3 -3 4 -8q-1 -7 -16 -8h-276v-74q-1 -14 -22 -22q-22 -6 -32 -6v102h-202v-74q-2 -14 -22 -22q-7 -6 -32 -6v102h-184q-22 0 -70 -8l-18 36h272v140v0v0zM312 498h190v132l84 -28q8 -4 10 -10q0 -3 -2 -6
l-38 -18v-70h196l28 38l64 -44q3 -4 4 -8q0 -4 -30 -26v-104l4 -74q0 -12 -20 -24q-19 -12 -38 -12v36h-208v-149l252 13q-42 36 -86 66l8 16q57 -24 114 -60q56 -36 74 -63q16 -27 14 -48q-3 -18 -12 -28q-9 -9 -20 -6q-9 1 -18 10t-20 30t-40 60q-593 -49 -622 -56
q-27 -9 -54 -22l-40 68l396 16v153h-198v-36q0 -9 -18 -20q-16 -13 -38 -16l4 114v216l60 -40v0v0zM304 306h198v166h-198v-166v0v0zM556 472v-166h208v166h-208v0v0z" />
  </g>

</svg>
