<?xml version="1.0" standalone="no"?>
<!DOCTYPE svg PUBLIC "-//W3C//DTD SVG 1.1//EN" "http://www.w3.org/Graphics/SVG/1.1/DTD/svg11.dtd" >
<svg xmlns="http://www.w3.org/2000/svg" xmlns:xlink="http://www.w3.org/1999/xlink" version="1.1" viewBox="0 -36 256 256">
  <g transform="matrix(1 0 0 -1 0 220)">
   <path fill="currentColor"
d="M34 206v-121h39v121h-39zM19 80v98q0 22 -1 44l16 -9h39l10 10l15 -16l-11 -6v-108q0 -17 1 -34l-15 -9v28h-39v-22l-16 -8q1 16 1 32zM195 228l14 12l18 -19h-87q-12 1 -23 -3l-9 10h87zM210 164l14 13l21 -20h-55v-112q-1 -12 14 -11h11q10 0 12 9.5t3 41.5h5
q0 -25 2.5 -36.5t9.5 -13.5q-6 -14 -19 -14h-26q-26 -2 -26 18v118h-27q-1 -41 -8.5 -69t-28 -46.5t-46.5 -32.5l-2 4q44 28 56.5 60.5t13.5 83.5h-8q-14 0 -25 -2l-9 9h118z" />
  </g>

</svg>
