<?xml version="1.0" standalone="no"?>
<!DOCTYPE svg PUBLIC "-//W3C//DTD SVG 1.1//EN" "http://www.w3.org/Graphics/SVG/1.1/DTD/svg11.dtd" >
<svg xmlns="http://www.w3.org/2000/svg" xmlns:xlink="http://www.w3.org/1999/xlink" version="1.1" viewBox="0 -205 1024 1024">
  <g transform="matrix(1 0 0 -1 0 819)">
   <path fill="currentColor"
d="M54 632q44 65 92 146q47 77 104 206q71 -31 74 -38q1 -7 -4 -8q-6 -1 -20 -8q-12 -6 -60 -78h210l30 38q62 -48 64 -54q0 -3 -2 -8q-4 -4 -34 -22q-52 -97 -106 -170q-54 -72 -140 -132q-88 -59 -196 -100l-6 16q111 62 184 116q70 53 122 128q50 71 92 164h-230
q-21 -27 -38 -54q62 -33 86 -56q23 -23 32 -46q7 -22 -4 -40q-12 -19 -30 -16q-18 2 -18 22q-1 18 -20 52q-19 33 -58 66q-54 -73 -110 -134l-14 10v0v0zM610 968q84 -33 88 -38q0 -3 -2 -8q-2 -3 -34 -18v-108q104 -30 158 -54q50 -24 80 -48q29 -24 38 -48q6 -23 -2 -40
q-9 -16 -26 -16q-18 -1 -32 26q-12 23 -38 50q-27 24 -68 52q-40 26 -110 56v-170l4 -114q0 -18 -20 -32q-19 -12 -40 -14l4 164v360v0v0zM100 396l58 -36h216l30 36l62 -38q6 -4 6 -8q0 -5 -32 -28v-170l4 -81q1 -12 -16 -24q-15 -9 -38 -12v58h-240v-34q2 -10 -16 -24
q-18 -12 -38 -12l4 119v254v0v0zM150 119h240v215h-240v-215v0v0zM560 424l78 -24q9 -6 -2 -14l-24 -12v-142q174 86 234 136q60 -49 60 -56q0 -6 -6 -6q-6 -1 -24 -2q-19 0 -98 -30t-166 -66v-83q0 -32 12 -34q12 -3 24 -4h224l24 4q27 6 36 61l8 84h20l2 -48q0 -73 30 -83
q-6 -23 -24 -38q-16 -14 -44 -20l-34 -2h-246q-27 1 -48 4q-18 7 -30 22q-6 15 -6 50v303v0v0z" />
  </g>

</svg>
