<?xml version="1.0" standalone="no"?>
<!DOCTYPE svg PUBLIC "-//W3C//DTD SVG 1.1//EN" "http://www.w3.org/Graphics/SVG/1.1/DTD/svg11.dtd" >
<svg xmlns="http://www.w3.org/2000/svg" xmlns:xlink="http://www.w3.org/1999/xlink" version="1.1" viewBox="0 -200 999 1000">
  <g transform="matrix(1 0 0 -1 0 800)">
   <path fill="currentColor"
d="M830 971l67 -63h-184l-10 -10v-83h56l41 39l62 -62h-159v-96h123l46 42l67 -66h-434l-62 -12l-18 36h229v96h-82l-55 -12l-20 35h157v93h-109l-60 -13l-23 34h328zM457 315q16 13 30.5 27t25.5 33t18.5 45.5t9.5 64.5h-69l-53 -14l-21 39h146v123l66 -27l-17 -66v-30h164
v121l64 -27l-16 -64v-30h37l43 42l64 -67h-144v-144q-6 -12 -20 -19.5t-22 -7.5h-6v171h-164q-5 -42 -14 -70t-23.5 -48t-36 -34.5t-51.5 -29.5zM626 361q19 -9 36.5 -19t31 -21t22 -24t8.5 -28q0 -14 -9.5 -22.5t-21.5 -8.5q-8 0 -15.5 5t-9.5 17q-5 29 -19 53t-31 39z
M870 243q30 -36 51.5 -72t21.5 -67q0 -23 -12 -39.5t-25 -16.5q-15 0 -21 25q-3 45 -8 87t-18 79zM771 236q19 -69 32 -112t36 -55q8 -5 8 -11q0 -24 -81 -30h-167q-20 5 -29 28.5t-9 51.5v176l64 -30l-14 -52v-74q0 -21 8 -40t22 -19h110q14 0 19 14t5 37t-4.5 52t-11.5 61
zM487 237q2 -23 3.5 -44t1.5 -39q0 -48 -13 -73.5t-46 -27.5q-16 0 -22 4.5t-6 11.5q0 8 4.5 17t10.5 18q21 31 32 61t20 72h15zM314 209q-10 26 -20 48t-23 46l4 11q16 -14 34.5 -31t34.5 -34.5t27 -34t11 -29.5q1 -5 1.5 -8.5t0.5 -8.5q0 -21 -10 -37t-21 -16
q-10 0 -18 14q-5 14 -8 28.5t-9 29.5q-54 -24 -98 -46t-75 -39.5t-48.5 -30.5t-18.5 -19l-33 88q25 3 58.5 10t81.5 17v246h-70v-65q-11 -11 -24 -16t-28 -12v465l63 -37h59v252l62 -32l-17 -58v-162h67l29 41l58 -56l-32 -33v-287h-122v-233zM230 436h72v288h-72v-288z
M115 436h70v288h-58l-12 -41v-247z" />
  </g>

</svg>
