<?xml version="1.0" standalone="no"?>
<!DOCTYPE svg PUBLIC "-//W3C//DTD SVG 1.1//EN" "http://www.w3.org/Graphics/SVG/1.1/DTD/svg11.dtd" >
<svg xmlns="http://www.w3.org/2000/svg" xmlns:xlink="http://www.w3.org/1999/xlink" version="1.1" viewBox="0 -205 1024 1024">
  <g transform="matrix(1 0 0 -1 0 819)">
   <path fill="currentColor"
d="M290 820h180v148l88 -32q3 -4 4 -8q0 -3 -42 -24v-84h188v150l88 -34q4 -9 2 -12q-1 -4 -40 -16v-88h100l38 54l64 -58q3 -4 4 -10q0 -12 -12 -12h-194v-84q0 -14 -20 -22q-9 -6 -30 -6v112h-188v-90q-1 -14 -20 -22q-12 -6 -30 -6v118h-96q-21 0 -66 -8l-18 34v0v0z
M416 460h288l36 50l54 -54q3 -3 4 -8q0 -12 -12 -12h-286q-21 0 -62 -8l-22 32v0v0zM406 374l54 -44h288l32 42l64 -40q6 -6 6 -8q-1 -6 -28 -32v-157l4 -70q0 -11 -18 -20q-15 -10 -36 -14v62h-316v-38q0 -11 -18 -20q-18 -10 -36 -8l4 108v239v0v0zM456 119h316v185h-316
v-185v0v0zM668 714q3 -7 4 -10q-4 -6 -34 -12q36 -43 90 -88q53 -43 116 -74q60 -30 148 -36v-18q-39 -3 -56 -14q-15 -9 -30 -32q-42 24 -96 60q-54 34 -102 86q-49 51 -86 106q-67 -78 -146 -144q-78 -66 -224 -156l-10 14q147 110 234 200q88 88 122 152l70 -34v0v0z
M182 420q-19 -49 -40 -52q-22 -3 -88 -2l-2 -20q45 -6 70 -14q25 -7 32 -22q8 -13 10 -44q1 -31 -6 -88q-9 -57 -6 -85q0 -28 16 -38q15 -9 30 0t18 36q3 25 -6 87q-10 62 -10 104t4 64q4 21 14 54l140 366l-22 6l-154 -352v0v0zM98 950l6 14q48 -18 82 -36q33 -15 52 -36
q17 -19 20 -40q3 -19 -8 -32q-12 -13 -26 -14q-16 1 -22 14q-6 14 -14 34q-6 20 -24 38q-15 18 -66 58v0v0zM36 678l6 14q42 -16 78 -34q35 -16 50 -34q15 -15 18 -36q1 -18 -10 -30q-9 -12 -24 -12t-20 12q-6 13 -14 32q-10 17 -28 40q-18 21 -56 48v0v0z" />
  </g>

</svg>
