<?xml version="1.0" standalone="no"?>
<!DOCTYPE svg PUBLIC "-//W3C//DTD SVG 1.1//EN" "http://www.w3.org/Graphics/SVG/1.1/DTD/svg11.dtd" >
<svg xmlns="http://www.w3.org/2000/svg" xmlns:xlink="http://www.w3.org/1999/xlink" version="1.1" viewBox="0 -36 256 256">
  <g transform="matrix(1 0 0 -1 0 220)">
   <path fill="currentColor"
d="M117.5 208q3.5 -5 -1.5 -11t-6.5 -0.5t-6.5 11t-11 10.5q14 20 18 27l13 -10l-8 -2l-15 -14q14 -6 17.5 -11zM141 207q3 -5 -2 -11.5t-7 1t-5.5 12t-10.5 9.5q12 18 15 26l13 -10l-6 -2l-14 -14q14 -6 17 -11zM164.5 208q3.5 -5 -1 -10.5t-6 -1t-6.5 10.5t-13 12
q15 17 19 26l13 -12l-8 -1l-14 -13q13 -6 16.5 -11zM85 89q-51 -12 -48 -14l-12 15q11 -1 60 4v11h-29q-11 0 -20 -2l-10 9h59v14l19 -7l-6 -5v-26l-14 -6zM155 112v12l18 -6l-6 -5v-3h29l11 9l14 -15h-54v-5q0 -7 9 -7h39q5 1 6.5 5.5t2.5 14.5h3q0 -5 1 -11t8 -9
q-4 -11 -19 -10h-50q-12 0 -12 13v17zM144 60l8 8l15 -11l-6 -5v-21q0 -7 13 -7h34q11 0 12 7.5t1 16.5h6q-1 -20 11 -26q-6 -10 -24 -10h-45q-23 2 -23 13v28h-46q-1 -23 -22 -32t-61 -12v4q48 7 59.5 19.5t8.5 35.5l15 -8h44zM149 174l-5 -1l-9 -12q8 -6 11.5 -10.5
t0 -9.5t-5.5 -0.5t-10 14.5q-7 -9 -19 -18l-2 3q8 8 16 21l-13 14l2 2l14 -11q9 15 7 17zM110 134h40v49h-40v-49zM149 190l6 7l12 -10l-6 -6v-35v-18l-11 -5v4h-40v-1l-11 -3v37.5v37.5l13 -8h37zM54 245l14 -11l-7 -2q-12 -12 -23 -20l25 1q7 8 13 20l14 -12l-7 -2
q-28 -29 -41 -37l36 4q-3 6 -7 11l3 2q24 -16 17.5 -26.5t-8 -5t-3.5 13.5l-14 -4v-36q1 -11 -13 -17q-2 9 -17 12v4q6 -1 12 -1t7 3v33q-14 -3 -22 -6l-8 13q13 1 34 25q-12 0 -26 -7l-6 12q17 10 27 33zM75 167q14 -12 16.5 -18t-4 -12t-7 4t-8.5 25zM141 96l-8 -2
q10 -11 43.5 -20t66.5 -9v-4q-18 -2 -20 -10q-21 2 -50.5 12.5t-44.5 26.5q-41 -29 -113 -41l-1 4q35 7 67 22.5t46 34.5zM32 167l14 -9l-5 -2q-8 -11 -24 -22l-2 3q15 16 17 30zM192 246l15 -11l-7 -3q-8 -9 -22 -22l26 1q6 7 12 19l14 -12l-6 -2l-35 -35l29 3q-2 6 -5 10
l1 3q27 -18 19.5 -27.5t-10 -2t-3.5 11.5l-13 -4v-38q1 -11 -12 -15q-3 9 -18 13v4q6 -1 12.5 -1.5t6.5 2.5v33q-11 -3 -19 -6l-7 13q11 1 30 25q-11 0 -25 -7l-8 12q10 3 25 36zM213 163q21 -9 24.5 -14.5t-1 -13t-8.5 2.5t-18 23zM179 165l14 -7l-6 -3q-7 -11 -23 -21
l-2 3q15 16 17 28z" />
  </g>

</svg>
