<?xml version="1.0" standalone="no"?>
<!DOCTYPE svg PUBLIC "-//W3C//DTD SVG 1.1//EN" "http://www.w3.org/Graphics/SVG/1.1/DTD/svg11.dtd" >
<svg xmlns="http://www.w3.org/2000/svg" xmlns:xlink="http://www.w3.org/1999/xlink" version="1.1" viewBox="0 -205 1024 1024">
  <g transform="matrix(1 0 0 -1 0 819)">
   <path fill="currentColor"
d="M390 598h470l32 44l58 -48q10 -7 8 -14q0 -6 -14 -6h-286q-87 -81 -152 -146l292 24q-35 35 -82 68l10 14q93 -42 130 -72q35 -31 40 -52q3 -22 -6 -34q-9 -14 -24 -12q-14 2 -22 16q-6 15 -32 52l-130 -18v-142h108l38 46l56 -50q2 -3 2 -8q1 -12 -10 -12h-194v-139h194
l32 51l66 -55q2 -2 2 -8q1 -12 -10 -12h-520q-21 1 -68 -8l-16 32h272v139h-120q-21 0 -68 -8l-16 32h204v136q-72 -7 -102 -16q-31 -6 -64 -24l-36 62q41 5 62 22q57 67 94 122h-114q-21 0 -68 -8l-16 32v0v0zM700 760q63 -15 96 -32q33 -18 46 -36q10 -18 6 -36
q-5 -19 -22 -22q-18 -2 -32 24q-12 26 -36 46q-23 17 -64 44l6 12v0v0zM878 842l34 38l48 -42q16 -12 14 -20q0 -6 -12 -8q-27 -2 -60 -40l-36 -46l-16 6l34 88h-426q0 -39 -6 -60t-20 -36q-13 -15 -28 -18q-15 -4 -26 4q-10 5 -10 20q0 12 18 30q18 15 30 36q9 18 18 84h20
l2 -36h422v0v0zM570 972l6 14q69 -24 90 -42q20 -17 28 -34q6 -15 0 -32q-6 -15 -18 -20q-12 -6 -24 4q-9 8 -14 26q-4 18 -16 36q-11 18 -52 48v0v0zM576 782q56 -37 58 -46q0 -9 -6 -8h-20q-9 -1 -42 -26q-31 -25 -128 -92l-14 12q94 86 152 160v0v0zM124 940l44 -46h108
l30 38l54 -42q9 -6 10 -12q-1 -6 -34 -24v-706q3 -41 -8 -67q-9 -26 -62 -44q-4 25 -26 40q-22 16 -86 34l6 18q65 -15 86 -18q20 -1 32 6q12 6 10 31v274h-116q-4 -88 -16 -152q-12 -63 -42 -128q-31 -62 -82 -115l-12 10q45 76 64 131q18 54 30 136q12 79 10 230v406v0v0z
M174 448h114v194h-114v-194v0v0v0zM174 668h114v196h-114v-196v0v0z" />
  </g>

</svg>
