<?xml version="1.0" standalone="no"?>
<!DOCTYPE svg PUBLIC "-//W3C//DTD SVG 1.1//EN" "http://www.w3.org/Graphics/SVG/1.1/DTD/svg11.dtd" >
<svg xmlns="http://www.w3.org/2000/svg" xmlns:xlink="http://www.w3.org/1999/xlink" version="1.1" viewBox="0 -120 1000 1000">
  <g transform="matrix(1 0 0 -1 0 880)">
   <path fill="currentColor"
d="M129 260q14 -58 14 -102q0 -58 -25 -81q-16 -15 -34 -15q-14 0 -24 10q-8 7 -8 19q0 11 6 20q2 4 18 27q27 38 39 122h14zM45 552q90 151 148 397l88 -32q14 -5 14 -15q0 -9 -14 -13l-32 -8q-10 -25 -21 -52h94l22 40l73 -49q11 -7 11 -16q0 -8 -14 -12l-30 -7l-77 -108
h62l18 33l57 -42q14 -10 14 -17q0 -5 -8 -9l-21 -11v-317l-60 -13v28h-193v-36l-58 -12v341q-26 -44 -57 -83zM165 693l26 -16h81q5 13 10 24q27 72 37 101h-102q-29 -63 -52 -109zM176 492v-140h67v140h-67zM176 652v-133h67v133h-67zM298 492v-140h71v140h-71zM298 652
v-133h71v133h-71zM200 266q60 -76 60 -140q0 -27 -16 -41q-12 -10 -24 -10q-23 0 -23 26q0 8 3 36q1 12 1 26q0 39 -18 101zM294 273q34 -34 51 -57q33 -43 33 -83q0 -24 -16 -38q-8 -8 -19 -8q-21 0 -23 26q-5 68 -39 155zM378 285q92 -71 92 -136q0 -21 -14 -35
q-8 -8 -18 -8q-16 0 -19 19q-10 70 -50 151zM495 51v864l65 -35h297l21 35l58 -30q26 -14 26 -23t-19 -16l-20 -8v-707q0 -36 -16 -48q-39 -31 -61 -31q-12 0 -14 19t-8 26q-7 9 -29 13l-55 10v19l123 2v712h-309v-797zM560 226q102 147 144 281q-49 59 -104 97l8 18
q70 -33 112 -63q17 57 31 137h-157l-8 27h169l23 31l39 -34q25 -21 25 -28q0 -11 -12 -15l-22 -5q-24 -92 -41 -146q68 -74 68 -119q0 -23 -14 -34q-6 -5 -13 -5q-15 0 -24 18q-25 47 -43 76q-71 -159 -166 -249z" />
  </g>

</svg>
