<?xml version="1.0" standalone="no"?>
<!DOCTYPE svg PUBLIC "-//W3C//DTD SVG 1.1//EN" "http://www.w3.org/Graphics/SVG/1.1/DTD/svg11.dtd" >
<svg xmlns="http://www.w3.org/2000/svg" xmlns:xlink="http://www.w3.org/1999/xlink" version="1.1" viewBox="0 -36 256 256">
  <g transform="matrix(1 0 0 -1 0 220)">
   <path fill="currentColor"
d="M99 170q0 -15 1 -24l-14 -7v8h-56v-1l-12 -6q1 45 0 88l11 -6q11 12 16 20l12 -13q-6 0 -27 -12v-26h9l7 6l12 -13h-28v-30h56v30h-8l-9 -2l-7 9h24v27q-7 0 -16 -2l-9 9h25l7 8l12 -10l-6 -6v-47zM14 134l17 -8l-4 -6v-86l18 17l1 -3q-17 -24 -22 -35l-12 13q4 5 4 14
q0 74 -2 94zM101 127l-5 -5q0 -59 5 -71l10 15l2 -1q-8 -22 -11 -45q-11 14 -14.5 44.5t-3.5 71.5zM51 134l18 -8l-5 -6v-84l17 17l2 -3q-17 -22 -23 -34l-10 11q3 5 3 14q0 72 -2 93zM137 231q-2 -9 -5 -18q12 -6 15 -11t-1.5 -12.5t-7 2t-8.5 15.5q-7 -17 -24 -34l-2 3
q9 12 14.5 30.5t5.5 35.5l19 -7zM172 231l-4 -21q14 -12 16.5 -17.5t-3 -12.5t-7 4.5t-7.5 21.5q-9 -19 -23 -34l-2 2q8 14 13 31.5t5 36.5l19 -7zM232 205.5q5 -6.5 -1.5 -14t-8.5 3t-14 26.5l3 2q16 -11 21 -17.5zM192 55v-5q-58 -15 -77 -22l-10 13l27 4v28h-9l-9 -4
l-9 11h27v23h-9l-7 -2l-9 9h25v23h-8l-9 -2l-9 9h26v27h11v-121l13 2v119h12v-27h6l6 6l10 -13h-22v-22h7l6 7l11 -14h-24v-23h8l7 7l12 -14h-27v-24zM242 74h3q-4 -33 3 -66q-23 16 -39 45q-17 -23 -48 -41l-3 3q32 27 44 51q-11 43 -13 99h-54q-11 0 -20 -4l-9 11h83
q0 17 -0.5 33.5t-1.5 40.5l21 -8l-8 -5q0 -26 1 -61h22l11 11l14 -18h-47q1 -46 10 -82q5 11 9.5 30t4.5 31l20 -9l-7 -4q-11 -46 -21 -66q7 -16 16 -25zM36 106l5 5l9 -12h-29v7h15zM37 82l5 5l9 -12h-19h-11v7h16zM71 103l4 5l9 -12h-25v7h12zM73 81l5 4l7 -11h-25v7h13z
" />
  </g>

</svg>
