<?xml version="1.0" standalone="no"?>
<!DOCTYPE svg PUBLIC "-//W3C//DTD SVG 1.1//EN" "http://www.w3.org/Graphics/SVG/1.1/DTD/svg11.dtd" >
<svg xmlns="http://www.w3.org/2000/svg" xmlns:xlink="http://www.w3.org/1999/xlink" version="1.1" viewBox="0 -36 256 256">
  <g transform="matrix(1 0 0 -1 0 220)">
   <path fill="currentColor"
d="M141 104l-6 -3q27 -21 81 -23v-4q-12 -1 -16 -11q-42 10 -70 33q-25 -23 -85 -33l-2 4q38 9 56.5 22t25.5 25zM112 41q-10 0 -20 -2l-9 9h77v12h-57q-11 0 -20 -2l-10 9h87l6 7l14 -10l-7 -6v-16q0 -9 1 -23l-14 -4v5h-59q-10 0 -19 -2l-10 9h88v14h-48zM133 143
q19 -2 23 -5t0.5 -9t-7.5 -0.5t-17 11.5zM60 143q17 -3 23 -5t3 -8.5t-6.5 -2.5t-20.5 14zM59 102l-11 14q19 2 55 13v18h-18q-14 0 -23 -3l-10 10h49l8 7l13 -12l-6 -4v-35q-1 -10 -17 -17q-4 10 -21 13v4q14 -1 19.5 -1t5.5 6v8q-29 -10 -44 -21zM140 107l-11 14
q14 0 52 12v14h-16q-14 0 -23 -3l-10 10h49l7 7l13 -11l-7 -5v-40q1 -11 -16 -18q-6 12 -22 14v5q13 -2 19 -2t6 6v17q-32 -13 -41 -20zM141 242l15 -8h62l8 11l15 -11l-8 -9v-192q0 -20 -22 -26q-3 15 -29 20v4q24 -2 30.5 -1.5t6.5 10.5v127h-64v-4l-14 -4v83zM155 204h64
v23h-64v-23zM155 197v-23h64v23h-64zM38 234h61l7 11l16 -13l-7 -8v-26q0 -15 1 -33l-15 -6v8h-64v-151l-15 -8q1 21 1 44v145q0 23 -1 45zM37 197v-23h64v23h-64zM37 227v-23h64v23h-64z" />
  </g>

</svg>
