<?xml version="1.0" standalone="no"?>
<!DOCTYPE svg PUBLIC "-//W3C//DTD SVG 1.1//EN" "http://www.w3.org/Graphics/SVG/1.1/DTD/svg11.dtd" >
<svg xmlns="http://www.w3.org/2000/svg" xmlns:xlink="http://www.w3.org/1999/xlink" version="1.1" viewBox="0 -205 1024 1024">
  <g transform="matrix(1 0 0 -1 0 819)">
   <path fill="currentColor"
d="M192 918h550l36 48l64 -54q3 -3 4 -8q0 -12 -14 -12h-292v-72h332l26 32l62 -48q10 -9 8 -18q-1 -6 -16 -8q-28 -6 -50 -18q-20 -13 -64 -62l-18 8l54 88h-334v-94l4 -76q-1 -18 -22 -32q-22 -12 -40 -12l4 118v96h-306q-6 -66 -26 -98q-18 -31 -38 -40q-20 -7 -34 -2
q-15 6 -18 22q-4 14 20 34t46 52q18 30 28 96h18l2 -38h308v72h-210q-21 0 -68 -8l-16 34v0v0zM228 722h194v-26h-194v26v0v0zM226 632h196v-26h-196v26v0v0zM592 718h196v-26h-196v26v0v0zM594 630h194v-26h-194v26v0v0zM76 440h210v148l72 -26q9 -3 10 -6q1 -9 -6 -12
l-26 -14v-90h70l34 44l52 -50q3 -3 4 -8q0 -12 -8 -12h-152v-52q60 -18 90 -32q29 -15 40 -38q12 -21 4 -36q-9 -16 -24 -16q-15 -1 -24 20q-10 18 -32 40q-21 21 -54 42v-158l2 -93q1 -15 -16 -28q-17 -14 -40 -16l4 137v164q-26 -42 -94 -116q-69 -73 -146 -125l-10 12
q66 62 118 123q48 60 78 100q26 39 44 72h-116q-18 0 -66 -8l-18 34v0v0zM522 440h124v142l78 -28q9 -2 10 -4q1 -10 -6 -14l-32 -12v-84h166l34 48l62 -56q3 -3 4 -6q0 -12 -8 -12h-218q19 -53 56 -106q36 -54 90 -90q53 -37 110 -50v-16q-40 -3 -56 -6q-15 -2 -32 -25
q-56 44 -82 75q-24 30 -54 78q-28 46 -56 140h-16v-244l4 -99q-2 -12 -22 -24q-18 -9 -36 -10l4 123v180q-50 -72 -100 -126q-49 -50 -154 -133l-12 12q96 92 130 135q31 41 62 86q30 42 64 100h-38q-19 0 -58 -8l-18 34v0v0z" />
  </g>

</svg>
