<?xml version="1.0" standalone="no"?>
<!DOCTYPE svg PUBLIC "-//W3C//DTD SVG 1.1//EN" "http://www.w3.org/Graphics/SVG/1.1/DTD/svg11.dtd" >
<svg xmlns="http://www.w3.org/2000/svg" xmlns:xlink="http://www.w3.org/1999/xlink" version="1.1" viewBox="0 -205 1024 1024">
  <g transform="matrix(1 0 0 -1 0 819)">
   <path fill="currentColor"
d="M164 464q65 69 134 198l64 -30q4 -6 -4 -12q-11 0 -22 -6q-11 -7 -28 -28q66 -31 94 -46q26 -16 32 -34t-2 -32q-9 -12 -24 -12q-14 1 -22 14q-6 14 -24 38q-16 23 -70 56q-57 -70 -114 -118l-14 12v0v0zM276 304l54 -14h358l30 30l50 -32q12 -6 12 -14q0 -4 -30 -22
v-110l4 -75q1 -12 -16 -22q-15 -9 -36 -12v48h-378v-28q0 -9 -18 -22q-19 -10 -34 -8l4 104v177v0v0zM324 107h378v157h-378v-157v0v0zM132 696h658l36 40l54 -48q3 0 4 -6q2 -12 -10 -12h-330v-226h342l36 42l50 -46q16 -19 -4 -22h-266q54 -55 114 -86q60 -30 102 -38
q39 -10 94 -16v-20q-42 0 -60 -6q-19 -6 -34 -30q-49 23 -82 44q-31 20 -68 50q-35 30 -94 102h-292q-78 -85 -120 -118q-42 -34 -96 -64q-54 -31 -134 -64l-8 14q74 38 118 70q44 33 86 66t90 96h-188q-20 0 -58 -8l-18 34h438v226h-288q-21 0 -54 -8l-18 34v0v0zM290 960
q10 -9 0 -18q-24 -6 -32 -12q-7 -7 -14 -16q-3 -7 -30 -44h204l40 44l62 -54q9 -16 -8 -16h-212q41 -27 58 -42q14 -15 20 -30q5 -16 -4 -32q-8 -16 -28 -14q-19 2 -22 26q-3 21 -12 40q-10 18 -40 52h-72q-68 -99 -130 -162l-14 12q51 74 94 152q42 75 66 150l74 -36v0v0z
M676 950q10 -9 0 -18q-23 -5 -28 -10q-5 -4 -10 -10q-3 -6 -30 -42h232l40 46l62 -56q9 -16 -8 -16h-234q38 -27 56 -42q18 -16 24 -34q7 -19 -4 -34q-12 -16 -30 -10q-19 3 -22 28q-4 24 -14 42q-10 19 -38 50h-76q-49 -75 -100 -134l-18 10q48 78 76 138q24 56 42 122
l80 -30v0v0zM566 468q56 68 122 194l66 -30q4 -6 -4 -12q-11 0 -22 -6q-11 -7 -28 -28q66 -31 94 -46q26 -16 32 -34t-2 -32q-9 -12 -24 -12q-14 1 -22 14q-6 14 -24 38q-16 23 -70 56q-57 -69 -104 -114l-14 12v0v0z" />
  </g>

</svg>
