<?xml version="1.0" standalone="no"?>
<!DOCTYPE svg PUBLIC "-//W3C//DTD SVG 1.1//EN" "http://www.w3.org/Graphics/SVG/1.1/DTD/svg11.dtd" >
<svg xmlns="http://www.w3.org/2000/svg" xmlns:xlink="http://www.w3.org/1999/xlink" version="1.1" viewBox="0 -52 256 256">
  <g transform="matrix(1 0 0 -1 0 204)">
   <path fill="currentColor"
d="M155 129l-4 2q16 41 26 89q3 21 3 24l-1 2q-2 3 -3 4l2 2l20 -10q2 -1 -1 -3q-3 2 -6 -3q0 -1 -1 -4q-6 -27 -12 -48h48l6 10l16 -12q3 -2 2 -3q0 -1 -4 0h-24q-2 -65 -23 -107l1 -1q14 -34 51 -50v-4q-6 1 -12 1q-3 0 -7 -6q-27 25 -39 50q-22 -35 -59 -52l-2 3
q35 21 56 60q-16 40 -21 82q-2 -4 -6 -13q-4 -8 -6 -13zM151 94q-1 0 -3 -1q-1 0 -2 -1q-1 -2 -6 -11q-6 -15 -17 -28q1 -1 4 -3l3 -3q19 -12 10 -22q-5 -2 -9 5q-2 4 -10 11q-4 3 -5 4q-31 -29 -59 -37l-1 4q29 15 52 39q-17 13 -33 20q1 3 4 8q4 6 9 16h-16q-3 0 -8 -4
l-10 8h37l5 10q6 12 5 14q0 2 -3 6l2 2l20 -9l1 -1q0 -1 -2 -2q-5 0 -11 -9l-7 -11h30l8 10l13 -12q2 -2 1 -2q0 -1 -2 -1zM54 256l20 -11q5 -3 2 -3q-6 0 -9 -5q-10 -30 -22 -54v-142l1 -22q0 -6 -4 -8q-3 -3 -9 -4q1 4 1 23q1 14 1 23v110q-15 -26 -32 -41l-3 2
q24 31 42 75q17 40 15 46q-2 5 -5 9zM101 253l22 -9q3 -1 2 -3q-6 -2 -9 -5v-42h25l8 9l14 -11l2 -2q0 -1 -3 -1h-46v-8q10 -5 16 -10q23 -18 11 -29q-4 0 -6 7q-3 11 -21 26v-16l1 -14q1 -8 -12 -11q1 4 1 17q1 10 1 16v22h-4q-17 -40 -48 -61l-2 3q28 26 39 58h-11
q-7 0 -12 -3l-9 8h47v44q0 5 -8 12zM176 179q0 -2 -2 -6q-1 -4 -2 -6q9 -52 21 -82q16 37 19 94h-36zM98 95l-14 -22l30 -15v1q11 12 20 36h-36zM138 238l18 -8q2 -1 2 -2t-2 -1q-7 0 -10 -6q-4 -4 -15 -21h-4q7 18 10 22q0 2 1 4q0 2 1 4q0 3 -3 6zM69 233l2 2
q15 -8 20 -20q4 -11 -4 -13q-4 0 -4 6t-4 12q-3 7 -10 13z" />
  </g>

</svg>
