<?xml version="1.0" standalone="no"?>
<!DOCTYPE svg PUBLIC "-//W3C//DTD SVG 1.1//EN" "http://www.w3.org/Graphics/SVG/1.1/DTD/svg11.dtd" >
<svg xmlns="http://www.w3.org/2000/svg" xmlns:xlink="http://www.w3.org/1999/xlink" version="1.1" viewBox="0 -36 256 256">
  <g transform="matrix(1 0 0 -1 0 220)">
   <path fill="currentColor"
d="M223 228l18 -20h-188q-11 0 -22 -2l-10 9h105q-1 15 -17 29l3 2q20 -7 27 -13.5t-5 -17.5h71zM117.5 128.5q4.5 0.5 4.5 3.5v18h-81q-11 0 -20 -2l-9 9h110v26h-51q-11 0 -20 -2l-9 9h145l16 11l16 -18h-82v-26h77l16 12l16 -19h-109v-22q0 -13 -19 -20q-3 14 -31 18v4
q26 -2 30.5 -1.5zM99 76v-45q22 8 47 18l2 -5q-51 -28 -59 -36l-11 13q7 4 7 17v31q-30 -21 -75 -34l-1 5q29 12 55.5 28t57.5 49l13 -14l-6 -3q12 -14 28 -26q23 17 46 46l15 -18l-10 -1q-33 -23 -45 -32q15 -13 39.5 -21t45.5 -8v-4q-20 -5 -21 -15q-30 7 -56.5 26.5
t-46.5 49.5q-14 -13 -25 -21z" />
  </g>

</svg>
