<?xml version="1.0" standalone="no"?>
<!DOCTYPE svg PUBLIC "-//W3C//DTD SVG 1.1//EN" "http://www.w3.org/Graphics/SVG/1.1/DTD/svg11.dtd" >
<svg xmlns="http://www.w3.org/2000/svg" xmlns:xlink="http://www.w3.org/1999/xlink" version="1.1" viewBox="0 -140 1000 1000">
  <g transform="matrix(1 0 0 -1 0 860)">
   <path fill="currentColor"
d="M502 968l28 -28h-1q21 -16 21 -20q0 -7 -27 -7q-15 0 -25 3q-46 -17 -118 -33l10 1v-66h122l22 27l-2 -1l6 5l-2 -1l5 5h-1q4 6 16 6q10 0 27 -15l38 -36l-4 -11h-227v-14l-9 1q124 -40 172 -70t48 -69q0 -29 -25 -29q-21 0 -29 17l1 -1q-54 82 -158 131v-92l1 -23
q0 -7 -15 -14.5t-22 -7.5h3q-7 -4 -17 -4q-11 0 -13.5 4.5t-2.5 17.5q1 4 1 14v83q-103 -105 -257 -172l-8 18q151 73 235 210h-229v21h259v53q-126 -24 -246 -30l-6 13q216 32 429 114zM390 424v-133l-10 1q2 -1 6 -1l8 -3q9 -3 22 -7.5t19 -6.5q41 63 66 129l51 -29
q23 -14 23 -19q0 -8 -34 -8q-43 -53 -76 -86q104 -57 104 -111q0 -14 -8.5 -26t-21.5 -12q-23 0 -28 21q-27 95 -121 137v-111q0 -37 -3.5 -48t-19.5 -21q-28 -19 -53 -19q-18 0 -20 14q0 11 -6 21l-69 19l3 13l81 -12q2 -1 5 -1l6 -1h1q10 0 10 39v157q-7 -5 -27 -5
q-75 -157 -231 -234l-8 13q127 84 181 244h-99v22h93q11 12 17 21h-1q3 6 15 6q16 0 25 -12l24 -25q1 -1 11 -13v86l-5 45l60 -13q39 -7 39 -16t-39 -16zM812 954l58 -13q38 -9 38 -18q0 -5 -33 -18l7 1v-731q0 -31 -12 -54.5t-30 -35t-33.5 -17t-26.5 -5.5q-14 0 -16.5 3.5
t-0.5 14.5q0 21 -7 25l-99 30l4 12l113 -19q10 -3 21 -3q23 0 23 63zM648 897l56 -10q40 -7 40 -19q0 -4 -33 -21l5 1v-528l1 -31q0 -14 -22 -23h1q-20 -7 -27 -7q-19 0 -19 18q0 5 1 28.5t1 27.5zM338 620l52 -22q30 -14 30 -17q0 -10 -34 -16q-2 -2 -6 -7.5t-6 -7.5
q185 -65 216 -92q43 -36 43 -74q0 -27 -24 -27q-19 0 -35 25q-56 84 -213 150q-118 -127 -295 -183l-6 14q91 34 167 102.5t111 154.5zM376 552q1 1 2 1z" />
  </g>

</svg>
