<?xml version="1.0" standalone="no"?>
<!DOCTYPE svg PUBLIC "-//W3C//DTD SVG 1.1//EN" "http://www.w3.org/Graphics/SVG/1.1/DTD/svg11.dtd" >
<svg xmlns="http://www.w3.org/2000/svg" xmlns:xlink="http://www.w3.org/1999/xlink" version="1.1" viewBox="0 -36 256 256">
  <g transform="matrix(1 0 0 -1 0 220)">
   <path fill="currentColor"
d="M91.5 34q-5.5 -10 -17 -8t-0.5 11t18 29h5q0 -22 -5.5 -32zM112 44q0 13 -1 29l22 -8l-7 -7v-22q0 -11 17 -10h44q10 0 11.5 5t1.5 26h5q2 -19 5 -24t8 -8q-8 -11 -29 -11h-58q-19 -2 -19 14v16zM172 69q7 -7 1.5 -15.5t-10.5 2t-22 25.5l2 4q22 -9 29 -16zM242.5 48
q5.5 -8 -0.5 -16.5t-9.5 2t-22.5 30.5l2 3q25 -11 30.5 -19zM96 181l15 -6h99l8 9l15 -12l-8 -7v-57q0 -10 1 -20l-14 -6v6h-102v-3l-14 -4q1 13 1 20v52q0 10 -1 28zM212 95v73h-102v-73h102zM141 172l-6 1q9 14 13 32l20 -10l-8 -3q-16 -15 -19 -20zM193 157l13 -10l-5 -3
q-10 -9 -18 -17q17 -8 17.5 -11.5t-1.5 -9t-9.5 1.5t-15.5 11q-19 -12 -48 -18l-1 4q30 12 38 20q-4 3 -7.5 5t-33.5 15l2 4q15 -3 24 -5.5t25 -9.5q8 5 20 23zM170 167l13 -10l-7 -3q-4 -7 -20 -19.5t-40 -18.5l-2 3q22 11 34 21t22 27zM131 209v-17l-13 -6v23h-11
q-10 0 -19 -2l-9 9h39v16q0 4 -1 11l21 -7l-7 -7v-13h9l10 10l15 -17h-34zM192 188v22h-3q-10 0 -19 -2l-9 9h31v17q0 1 -1 9l23 -8l-8 -7v-11h14l12 11l16 -18h-42v-15zM33.5 141.5q-2.5 -8.5 -11 -11t-10.5 1.5t6 13t13 42h4q1 -37 -1.5 -45.5zM44 246l22 -13l-8 -9v-171
q0 -22 1 -36l-15 -10q1 36 1 58v127q0 29 -1 54zM81.5 178.5q5.5 -7.5 3.5 -15t-7.5 -10t-7 11t-9.5 32.5l3 2q12 -13 17.5 -20.5z" />
  </g>

</svg>
