<?xml version="1.0" standalone="no"?>
<!DOCTYPE svg PUBLIC "-//W3C//DTD SVG 1.1//EN" "http://www.w3.org/Graphics/SVG/1.1/DTD/svg11.dtd" >
<svg xmlns="http://www.w3.org/2000/svg" xmlns:xlink="http://www.w3.org/1999/xlink" version="1.1" viewBox="0 -200 1000 1000">
  <g transform="matrix(1 0 0 -1 0 800)">
   <path fill="currentColor"
d="M667 965l73 -33q14 -5 6 -11q-14 -4 -25 -18v-127h88l29 38l63 -48q7 -5 5 -8q-1 -2 -11 -2h-174v-172h146l29 39l62 -49q8 -5 7 -8q-1 -2 -12 -2h-229v-196h97l30 38l62 -47q7 -6 6 -8q-1 -3 -11 -3h-184v-223q44 -17 102 -21q57 -4 119 -3q28 1 40 0l2 -14q-1 0 -4 -1
q-41 -4 -50 -32q-122 -2 -195 26q-83 32 -132 82q-35 36 -55 83q-4 -20 -12 -41q-29 -90 -109 -177l-8 10q64 91 87 172q19 80 23 147q3 64 -1 80q-4 11 -13 26l7 6l80 -36q4 -8 -4 -8q-16 2 -29 -21q-3 -63 -14 -121q32 -61 66 -95q24 -24 62 -44v421h-144q-25 2 -41 -12
l-31 32h213v172h-106q-23 2 -42 -13l-30 33h178v137q0 17 -24 41zM95 354l36 -37h228l34 36l42 -44q6 -4 5 -7q-2 -3 -11 -5l-15 -9v-110l2 -73q-1 -18 -11 -23q-11 -6 -29 -8v56h-238v-37q1 -19 -10 -28q-8 -6 -33 -13q0 5 1 16q2 59 4 113v127q2 12 -16 31zM112 556
q-23 0 -40 -12l-30 27h196v100h-95q-25 0 -41 -12l-31 27h167v104h-130q-24 0 -41 -13l-30 32h260l33 52q5 8 13 21q24 40 22 42q0 11 -6 22l6 6l53 -32q14 -10 6 -13q-20 3 -32 -11q-51 -64 -76 -87h93l25 33l52 -44q7 -5 5 -7q-1 -2 -10 -1h-205v-104h86l24 38l57 -44
q7 -4 5 -6q-1 -2 -11 -3h-161v-100h109l22 33l54 -39q7 -6 5 -8q-1 -2 -11 -1h-179v-149h35l21 41q25 54 25 63q0 6 -6 21l8 6l52 -27q15 -12 6 -15q-20 0 -32 -14q-32 -48 -56 -75h91l26 35l54 -45q7 -5 6 -8q-1 -2 -10 -1h-407q-25 1 -40 -14l-31 33h220v149h-126z
M138 302v-157h238v157h-238zM102 935l2 10q32 -6 63 -22q34 -20 43 -36q15 -21 10 -43t-20 -22q-17 -1 -19 22q-2 18 -19 45q-17 20 -60 46zM92 530l7 8q36 -14 62 -37q24 -26 24 -50q0 -27 -18 -31q-17 -5 -19 17q-4 21 -11 42q-15 27 -45 51z" />
  </g>

</svg>
