<?xml version="1.0" standalone="no"?>
<!DOCTYPE svg PUBLIC "-//W3C//DTD SVG 1.1//EN" "http://www.w3.org/Graphics/SVG/1.1/DTD/svg11.dtd" >
<svg xmlns="http://www.w3.org/2000/svg" xmlns:xlink="http://www.w3.org/1999/xlink" version="1.1" viewBox="0 -36 256 256">
  <g transform="matrix(1 0 0 -1 0 220)">
   <path fill="currentColor"
d="M69 180h21l6 9l16 -12l-8 -6q0 -65 1 -77l-13 -7v8h-57v-8l-13 -6q1 22 1 91q-2 -4 -13 -17l-2 3q18 31 28 54.5t10 33.5l21 -11q-8 -1 -18 -19h31l8 9l15 -13q-10 0 -34 -32zM31 184l7 -4h24l18 29h-33q-7 -11 -16 -25zM35 140h22v33h-22v-33zM70 140h22v33h-22v-33z
M35 102h22v31h-22v-31zM70 102h22v31h-22v-31zM29.5 42q-1.5 -8 -5.5 -11.5t-12 -3.5t1 12t13 34h4q1 -23 -0.5 -31zM43 73q15 -19 15 -29t-7 -14.5t-6.5 9.5t-4.5 34h3zM64 75q21 -19 21 -28t-5.5 -13t-7 6.5t-11.5 32.5zM85 80q20 -13 24.5 -20.5t-2 -17t-9.5 3t-16 32.5z
M161 90h34v19h-34v-19zM194.5 59q0.5 1 0.5 5v19h-35q-2 -29 -21 -49l-3 2q9 21 11 38t2 38.5t-1 37.5l14 -8h32l7 8l13 -12l-7 -5v-69q0 -9 -3 -14.5t-14 -10.5q-2 14 -20 19v4q24 -4 24.5 -3zM161 116h34v19h-34v-19zM116 127.5q0 89.5 -1 113.5l14 -9h26l7 9l14 -13
l-7 -5q0 -38 1 -62l-14 -5v9h-28v-154l-13 -5q1 32 1 121.5zM128 203h28v22h-28v-22zM198 172h26v24h-26v-24zM185 200q0 23 -1 42l14 -10h25l7 10l13 -12l-6 -5v-193q-1 -20 -18 -24q-6 15 -25 20v4q24 -4 27 -3t3 7v129h-26v-4l-14 -5q1 21 1 44zM198 203h26v22h-26v-22z
M128 172h28v24h-28v-24z" />
  </g>

</svg>
