<?xml version="1.0" standalone="no"?>
<!DOCTYPE svg PUBLIC "-//W3C//DTD SVG 1.1//EN" "http://www.w3.org/Graphics/SVG/1.1/DTD/svg11.dtd" >
<svg xmlns="http://www.w3.org/2000/svg" xmlns:xlink="http://www.w3.org/1999/xlink" version="1.1" viewBox="0 -36 256 256">
  <g transform="matrix(1 0 0 -1 0 220)">
   <path fill="currentColor"
d="M31 180h21v43h-21v-43zM91 178h19v45h-19v-45zM65 170l-13 -7v10h-21v-5l-13 -8q1 13 1 38t-1 41l14 -9h19l7 10l13 -11l-7 -7q0 -33 1 -52zM79 201q0 15 -1 38l14 -9h17l6 9l14 -11l-7 -8q0 -30 1 -49l-13 -7v7h-19v-4l-13 -6q1 25 1 40zM91 146l12 11l15 -18h-68
q-12 0 -20 -4l-9 11h70zM43 25v5q22 -3 30.5 -2.5t13 11.5t7.5 41h-41l-7 -7l-14 14l8 3l10 19h-14q-10 0 -19 -3l-9 10h93l12 11l16 -18h-64l-11 -22h40l7 9l14 -12l-8 -7q-4 -31 -8 -41.5t-8.5 -16.5t-17.5 -12q-4 13 -30 18zM189 103h31v43h-31v-43zM226 178l-15 -7v9
h-57v-8l-14 -4q1 19 1 37t-1 34l15 -8h55l7 10l14 -11l-6 -7q0 -37 1 -45zM154 187h57v37h-57v-37zM233 111q0 -9 1 -17l-14 -6v8h-75v-45q-2 -22 14 -22h58q12 0 13.5 13t1.5 28h4q0 -4 1.5 -20.5t9.5 -18.5q-7 -14 -24 -15h-69q-24 -1 -22 32v75q0 20 -1 38l14 -8h75l6 9
l14 -11l-7 -8v-32zM145 103h31v43h-31v-43z" />
  </g>

</svg>
