<?xml version="1.0" standalone="no"?>
<!DOCTYPE svg PUBLIC "-//W3C//DTD SVG 1.1//EN" "http://www.w3.org/Graphics/SVG/1.1/DTD/svg11.dtd" >
<svg xmlns="http://www.w3.org/2000/svg" xmlns:xlink="http://www.w3.org/1999/xlink" version="1.1" viewBox="0 -36 256 256">
  <g transform="matrix(1 0 0 -1 0 220)">
   <path fill="currentColor"
d="M76 130h26v15h-26v-15zM62 157l15 -5h24l7 7l12 -9l-6 -5q0 -13 1 -20l-13 -5v3h-26v-5q0 -9 10 -9h21q7 0 9 2.5t3 12.5h4q0 -8 1.5 -11.5t5.5 -4.5q-3 -6 -7.5 -7.5t-11.5 -1.5h-30q-18 0 -18 13q0 32 -1 45zM148 130h26v15h-26v-15zM135 158l15 -6h23l8 7l12 -9l-7 -6
q0 -15 1 -18l-13 -5v2h-26v-6q0 -8 8 -8h23q8 0 9.5 4t1.5 12h5q0 -10 1.5 -13t6.5 -5q-5 -5 -10 -6.5t-12 -1.5h-30q-16 0 -16 17v42zM90 82q-11 0 -22 -2l-10 9h113l11 9l17 -16h-39v-22h26l12 10l16 -17h-54v-6q0 -21 1 -31l-16 -6q1 10 1 32v11h-39q-2 -26 -51 -42l-2 4
q37 20 39 38h-19q-12 0 -22 -2l-10 9h52v22h-4zM108 82v-22h38v22h-38zM141 240l15 -8h62l8 11l15 -11l-8 -9v-190q0 -20 -22 -25q-3 14 -25 18v5q20 -2 26.5 -1.5t6.5 10.5v125h-64v-4l-14 -4v83zM155 202h64v23h-64v-23zM155 195v-23h64v23h-64zM38 232h61l7 11l16 -13
l-7 -8v-26q0 -15 1 -33l-15 -6v8h-64v-150l-15 -8q1 20 1 43v145q0 23 -1 45zM37 195v-23h64v23h-64zM37 225v-23h64v23h-64z" />
  </g>

</svg>
