<?xml version="1.0" standalone="no"?>
<!DOCTYPE svg PUBLIC "-//W3C//DTD SVG 1.1//EN" "http://www.w3.org/Graphics/SVG/1.1/DTD/svg11.dtd" >
<svg xmlns="http://www.w3.org/2000/svg" xmlns:xlink="http://www.w3.org/1999/xlink" version="1.1" viewBox="0 -205 1024 1024">
  <g transform="matrix(1 0 0 -1 0 819)">
   <path fill="currentColor"
d="M882 722q60 -54 60 -56q0 -3 -6 -8q-6 -6 -18 -8q-12 0 -42 -18q-30 -15 -120 -90q11 -15 14 -30q0 -15 -6 -26q-6 -12 -24 -12q-15 -1 -26 22q-9 24 -26 42q-15 15 -74 58l8 12q44 -16 70 -28t50 -26l92 112h-268q-15 0 -36 -8l-22 36h340l34 28v0v0zM480 460h422l26 28
q68 -48 68 -54q0 -3 -2 -6q-3 -4 -24 -10q-22 -6 -46 -36q-25 -27 -58 -78l-16 8l56 120h-156v-299q6 -57 -18 -82q-24 -23 -56 -32q-12 33 -38 48q-25 15 -92 36l4 18q113 -28 134 -20q21 7 16 41v290h-148q-23 0 -52 -6l-20 34v0v0zM878 816l44 54l70 -66l2 -6q0 -7 -8 -8
h-520v-158q0 -270 -48 -402q-47 -132 -130 -213l-16 10q62 85 104 209q42 123 40 372v250l60 -42h402v0v0zM598 974l8 12q57 -29 84 -46q26 -17 38 -40q10 -22 2 -40q-6 -19 -30 -20q-23 -1 -28 26q-3 27 -18 48q-13 21 -56 60v0v0zM32 692h154v276l86 -36q8 -4 8 -8
q3 -1 -2 -10l-38 -16v-206h46l34 42l48 -48q4 -3 8 -14q2 -7 -10 -8h-126v-322l136 58l8 -18q-168 -88 -230 -118q-64 -31 -88 -68l-48 64l168 66v338h-70q-21 0 -68 -8l-16 36v0v0z" />
  </g>

</svg>
