<?xml version="1.0" standalone="no"?>
<!DOCTYPE svg PUBLIC "-//W3C//DTD SVG 1.1//EN" "http://www.w3.org/Graphics/SVG/1.1/DTD/svg11.dtd" >
<svg xmlns="http://www.w3.org/2000/svg" xmlns:xlink="http://www.w3.org/1999/xlink" version="1.1" viewBox="0 -205 1024 1024">
  <g transform="matrix(1 0 0 -1 0 819)">
   <path fill="currentColor"
d="M660 926q9 -7 10 -14q3 -4 -6 -10q-39 -4 -90 -46q-50 -42 -166 -134l412 18q-34 45 -106 96l10 16q77 -39 104 -56q27 -15 58 -42q30 -27 36 -54t-6 -44q-12 -16 -30 -14q-16 2 -22 20q-3 18 -24 54q-201 -13 -312 -22q-109 -7 -158 -34l-38 70q40 2 74 28
q114 94 190 206l64 -38v0v0zM540 630q3 -4 4 -8q0 -6 -12 -12l-20 -6q-25 -23 -50 -58h314l40 48l58 -52q10 -7 8 -16q-2 -6 -10 -6h-230q-3 -87 -20 -174h230l40 52l62 -56q3 -4 4 -10q1 -12 -16 -12h-282q31 -84 80 -128q48 -45 106 -71q56 -24 130 -30v-20q-33 1 -54 -4
q-21 -7 -42 -36q-70 31 -112 68q-40 36 -76 89q-37 54 -58 132h-16q-36 -133 -126 -203q-89 -72 -262 -106l-2 18q147 36 228 110q81 70 112 181h-168q-21 0 -68 -6l-16 32h256q16 84 20 174h-150q-79 -96 -134 -132l-10 12q99 113 172 268l70 -38v0v0zM130 934
q102 -57 124 -90q20 -30 20 -54q-1 -23 -10 -34q-9 -12 -18 -14q-10 -4 -22 2q-11 4 -16 32q-4 28 -16 56q-12 30 -72 90l10 12v0v0zM192 656l62 -48q3 -4 4 -10q0 -6 -14 -14l-22 -20v-374l130 90l12 -18q-101 -81 -124 -108q-21 -25 -60 -77l-56 63q33 20 48 46v400h-96
q-15 -1 -36 -10l-20 36h142l30 44v0v0z" />
  </g>

</svg>
