<?xml version="1.0" standalone="no"?>
<!DOCTYPE svg PUBLIC "-//W3C//DTD SVG 1.1//EN" "http://www.w3.org/Graphics/SVG/1.1/DTD/svg11.dtd" >
<svg xmlns="http://www.w3.org/2000/svg" xmlns:xlink="http://www.w3.org/1999/xlink" version="1.1" viewBox="0 -36 256 256">
  <g transform="matrix(1 0 0 -1 0 220)">
   <path fill="currentColor"
d="M96 125h15q0 -63 -24 -85t-72 -32l-1 3q56 18 69.5 42.5t12.5 71.5zM159 125v-84q0 -11 18 -10h29q16 -1 17.5 7.5t2.5 36.5h5q-2 -38 13 -41q-5 -15 -30 -15h-45q-24 -2 -24 18v88h14zM205 178h-44l-7 -6l-14 11l7 5q0 27 -1 54l16 -8h41l13 9l12 -14l-9 -6v-72
q0 -15 1 -35l-15 -7v14h-155v-9l-15 -5q1 26 1 90q0 17 -1 42l17 -7h40l11 9l13 -14l-8 -4q0 -28 1 -49l-14 -6v8h-45v-48h155v48zM95 185v42h-45v-42h45zM205 185v42h-45v-42h45z" />
  </g>

</svg>
