<?xml version="1.0" standalone="no"?>
<!DOCTYPE svg PUBLIC "-//W3C//DTD SVG 1.1//EN" "http://www.w3.org/Graphics/SVG/1.1/DTD/svg11.dtd" >
<svg xmlns="http://www.w3.org/2000/svg" xmlns:xlink="http://www.w3.org/1999/xlink" version="1.1" viewBox="0 -36 256 256">
  <g transform="matrix(1 0 0 -1 0 220)">
   <path fill="currentColor"
d="M16 173l20 -10l-7 -7v-55h17v92h-3q-13 0 -24 -4l-9 11h36q0 22 -1 46l20 -8l-7 -7v-31h16l10 11l14 -18h-40v-92h18q0 46 -1 71l19 -9l-6 -5v-41q0 -19 1 -30l-13 -7v14h-18v-53q0 -12 12 -14h148q9 2 10.5 20.5t1.5 27.5h4q0 -13 1.5 -25.5t10.5 -18.5q-7 -14 -26 -15
h-156q-20 3 -18 22v56h-19l-4 -7l-12 13l6 6q0 43 -1 67zM112 179h22v43h-22v-43zM112 229h22l5 9l14 -12l-7 -6v-153q-2 -25 -17 -30q-3 7 -7.5 10t-14.5 7l1 4q16 -3 21 -2t5 11v56h-22q0 -27 -8.5 -48.5t-25.5 -36.5l-2 2q10 13 17.5 36.5t6.5 49.5v63q0 20 -1 48z
M112 130h22v42h-22v-42zM149 168l-2 2q10 21 17 41.5t7 33.5l17 -8q-3 -2 -11 -21h23l7 9l13 -13q-8 0 -23 -27h16l12 10l13 -17h-66q0 -49 -3 -80.5t-27 -59.5l-2 2q16 27 18 58.5t2 83.5q-4 -7 -11 -14zM166 190l5 -5h21l8 24h-25q-5 -10 -9 -19zM177 166l12 -9h20l6 9
l13 -11l-6 -5q0 -27 -1.5 -40t-12.5 -19q-2 12 -15 15v5q7 -2 11 -1.5t5 6.5t1 34h-21v-77q0 -12 6 -13h14q6 0 6 9v26h4q0 -26 9 -30q-3 -17 -21 -16h-17q-12 0 -12 21q0 83 -1 96z" />
  </g>

</svg>
