<?xml version="1.0" standalone="no"?>
<!DOCTYPE svg PUBLIC "-//W3C//DTD SVG 1.1//EN" "http://www.w3.org/Graphics/SVG/1.1/DTD/svg11.dtd" >
<svg xmlns="http://www.w3.org/2000/svg" xmlns:xlink="http://www.w3.org/1999/xlink" version="1.1" viewBox="0 -36 256 256">
  <g transform="matrix(1 0 0 -1 0 220)">
   <path fill="currentColor"
d="M43 138q15 -14 20 -23.5t-1 -20.5t-9 5.5t-12 34.5q-10 -19 -27 -38l-2 3q20 34 28 69t9 53h-15l-11 -3l-10 10h71l10 11l18 -18h-47q-5 -27 -10 -48h35l7 10l15 -12l-8 -9q-6 -31 -14.5 -56t-25 -49t-52.5 -46l-2 4q29 24 44 47.5t24 51.5t12 52h-37q-5 -16 -10 -28z
M215 179l7 -4l-6 -7v-135q0 -17 -15 -25q-4 14 -24 21v4q25 -5 25 3v150l8 -5q10 24 17 44h-17q-13 0 -22 -3l-10 10h50l6 9l14 -13l-7 -7q-8 -12 -26 -42zM147 179l8 -4l-6 -7v-136q0 -16 -17 -24q-3 16 -24 21v4q27 -5 27 3v150l8 -5q11 27 16 44h-17q-13 0 -22 -3l-10 10
h50l6 9l14 -13l-7 -7q-7 -10 -26 -42z" />
  </g>

</svg>
