<?xml version="1.0" standalone="no"?>
<!DOCTYPE svg PUBLIC "-//W3C//DTD SVG 1.1//EN" "http://www.w3.org/Graphics/SVG/1.1/DTD/svg11.dtd" >
<svg xmlns="http://www.w3.org/2000/svg" xmlns:xlink="http://www.w3.org/1999/xlink" version="1.1" viewBox="0 -205 1024 1024">
  <g transform="matrix(1 0 0 -1 0 819)">
   <path fill="currentColor"
d="M838 840l40 54l68 -62q3 -4 4 -10q1 -10 -16 -10h-204q-34 -43 -76 -76t-90 -66q57 -28 130 -46q72 -18 124 -26q51 -7 174 -14v-18q-42 0 -60 -6q-18 -3 -36 -36q-87 20 -146 38q-57 18 -104 34q-48 15 -122 54q-144 -66 -266 -96q-123 -26 -218 -34l-2 16q89 15 212 52
q123 33 240 88q-99 60 -162 136h-154q-21 0 -68 -8l-16 36h748v0v0zM362 812q65 -63 158 -116q33 21 66 46q33 24 72 70h-296v0v0zM408 970l6 14q60 -16 100 -40q39 -23 46 -46q4 -21 -6 -36q-11 -14 -28 -12q-15 3 -24 24q-7 20 -20 40t-74 56v0v0zM220 514h458l36 42
l62 -50q3 -3 4 -8q0 -10 -12 -10h-246l-92 -118h338l36 44l58 -40q8 -6 8 -12t-30 -26v-227q1 -38 -12 -62q-11 -19 -58 -36q-10 32 -34 46q-25 15 -62 24l4 20q62 -13 88 -14q24 0 22 32v223h-148v-142l4 -75q1 -16 -22 -32q-21 -15 -36 -16l4 119v148h-152v-148l4 -89
q1 -11 -22 -26q-21 -15 -36 -16l4 133v146h-140v-188l4 -93q1 -14 -22 -28q-21 -16 -38 -14l4 125v266l58 -42h146l58 118h-154q-21 0 -68 -8l-16 34v0v0z" />
  </g>

</svg>
