<?xml version="1.0" standalone="no"?>
<!DOCTYPE svg PUBLIC "-//W3C//DTD SVG 1.1//EN" "http://www.w3.org/Graphics/SVG/1.1/DTD/svg11.dtd" >
<svg xmlns="http://www.w3.org/2000/svg" xmlns:xlink="http://www.w3.org/1999/xlink" version="1.1" viewBox="0 -205 1024 1024">
  <g transform="matrix(1 0 0 -1 0 819)">
   <path fill="currentColor"
d="M38 830h254l24 38l48 -42q3 -3 4 -8q0 -12 -12 -12h-258q-21 0 -44 -8l-16 32v0v0zM328 746l8 -6q0 -6 -14 -12q-13 -4 -28 -34q-13 -27 -28 -62q-15 -33 -32 -66h52l28 38q51 -42 54 -54q1 -9 -10 -8h-134v-156h52l30 40l44 -46q2 0 2 -6q0 -13 -12 -14h-116
q-13 -103 -52 -178q-37 -74 -124 -147l-10 14q56 54 94 139q38 84 44 172h-80q-21 0 -44 -6l-16 32h142v156h-90q-21 -1 -44 -10l-16 34h184q28 87 56 204l60 -24v0v0zM122 984l10 12q41 -28 68 -56q24 -27 28 -48q3 -18 -6 -32q-7 -12 -20 -14q-12 -1 -20 10q-7 9 -8 30
q-1 20 -16 50q-15 27 -36 48v0v0zM88 758l10 8q39 -43 60 -70q17 -27 20 -48t-6 -36q-7 -12 -20 -14q-12 -1 -18 8t-6 34q-1 24 -14 60q-12 33 -26 58v0v0zM644 834h246l30 42l52 -46q3 -3 4 -8q0 -12 -12 -12h-240q-20 0 -64 -8l-16 32v0v0zM734 986l10 12q41 -28 68 -56
q24 -27 28 -48q4 -18 -4 -32q-7 -12 -20 -14q-12 -4 -20 8q-7 8 -10 32q-1 20 -16 50q-15 27 -36 48v0v0zM700 758l10 8q39 -43 60 -70q17 -26 20 -52q3 -24 -6 -38q-6 -12 -18 -14q-12 -1 -18 8q-7 8 -8 38q-1 26 -10 56q-6 27 -30 64v0v0zM486 588v-330q0 -19 6 -26
q5 -7 22 -10h34q11 -1 20 8q9 5 12 32q3 24 4 106h16q3 -62 6 -88q2 -24 26 -36q-12 -43 -30 -52q-15 -8 -36 -10h-58q-37 0 -52 18q-16 15 -16 46v402l68 -28q8 -3 10 -8q0 -6 -6 -8q-6 -4 -26 -16v0v0zM412 612q1 -75 0 -110q-3 -34 -12 -56t-18 -34q-10 -10 -26 -10
t-22 18q-7 15 14 34q18 18 30 48q9 29 16 110h18v0v0zM942 750l8 -6q4 -12 -12 -14q-14 -2 -28 -34q-13 -33 -62 -128h64l30 40l56 -48q3 -4 4 -4q0 -12 -12 -12h-148v-174h56l30 40l54 -48q3 -3 4 -8q0 -9 -12 -8h-132v-199l4 -86q1 -9 -16 -22q-15 -13 -38 -14l4 122v199
h-68q-21 0 -38 -8l-16 32h122v174h-80q-32 -1 -52 -10l-20 34h180q27 65 60 206l58 -24v0v0zM560 622l10 8q51 -63 72 -98q17 -33 20 -60q3 -24 -6 -38q-6 -12 -18 -14q-12 -1 -18 8q-7 8 -8 38q-1 27 -14 66q-12 36 -38 90v0v0zM448 910l10 8q59 -54 80 -92q20 -36 22 -62
q3 -24 -6 -38q-7 -12 -20 -14q-12 -1 -18 8q-7 8 -8 38q-1 26 -16 68q-13 39 -44 84v0v0z" />
  </g>

</svg>
