<?xml version="1.0" standalone="no"?>
<!DOCTYPE svg PUBLIC "-//W3C//DTD SVG 1.1//EN" "http://www.w3.org/Graphics/SVG/1.1/DTD/svg11.dtd" >
<svg xmlns="http://www.w3.org/2000/svg" xmlns:xlink="http://www.w3.org/1999/xlink" version="1.1" viewBox="0 -205 1024 1024">
  <g transform="matrix(1 0 0 -1 0 819)">
   <path fill="currentColor"
d="M568 950q9 -6 4 -12q1 -3 -28 -8q45 -37 114 -76q68 -36 146 -66q75 -30 180 -26v-22q-42 0 -66 -8q-24 -9 -42 -36q-72 30 -132 64q-57 33 -116 72t-112 88q-42 -34 -108 -76q-66 -43 -156 -92q-89 -48 -208 -92l-6 14q108 56 186 104q75 46 150 98q72 53 126 104
l68 -30v0v0zM154 658h324v92h-56q-18 0 -72 -8l-14 34h252l28 40l56 -50q16 -13 -4 -16h-140v-92h210l38 40l62 -52q3 -3 4 -8q0 -9 -8 -8h-306v-122q4 -42 -16 -60q-19 -17 -52 -28q-13 30 -34 42t-66 24l4 16q78 -18 96 -18q18 -1 18 26v120h-246q-30 3 -62 -8l-16 36v0v0
zM188 428l54 -24h498l26 34l62 -42q6 -6 6 -8q0 -7 -32 -32v-204l4 -71q0 -10 -14 -20q-12 -10 -42 -14v52h-512v-40q0 -12 -18 -24t-36 -12l4 147v258v0v0zM238 123h230v117h-230v-117v0v0zM518 123h232v117h-232v-117v0v0zM238 266h230v112h-230v-112v0v0zM518 378v-112
h232v112h-232v0v0zM38 406q102 63 168 114q65 48 98 78l64 -42q3 -7 -8 -14q-24 0 -38 -6q-12 -7 -90 -52q-76 -43 -184 -94l-10 16v0v0zM618 568l4 16q90 -18 150 -32q58 -16 98 -40q38 -23 38 -52q-1 -28 -22 -34q-22 -7 -34 14q-12 18 -44 42q-33 24 -74 42
q-39 16 -116 44v0v0z" />
  </g>

</svg>
