<?xml version="1.0" standalone="no"?>
<!DOCTYPE svg PUBLIC "-//W3C//DTD SVG 1.1//EN" "http://www.w3.org/Graphics/SVG/1.1/DTD/svg11.dtd" >
<svg xmlns="http://www.w3.org/2000/svg" xmlns:xlink="http://www.w3.org/1999/xlink" version="1.1" viewBox="0 -143 1024 1024">
  <g transform="matrix(1 0 0 -1 0 881)">
   <path fill="currentColor"
d="M426 863h412l34 48l62 -53q4 -3 4 -9q0 -12 -11 -12h-229v-306h195l36 48l59 -56q4 -1 4 -6q0 -12 -12 -12h-282v-334l4 -97q0 -17 -20.5 -28.5t-40.5 -10.5l4 138v332h-193q-24 0 -59 -8l-17 34h269v306h-135q-20 0 -67 -8zM263 934q6 -4 6 -7q4 -9 -7 -12
q-23 -2 -35.5 -32t-39.5 -108h175l35 42l61 -47q9 -7 9 -11q6 -8 -9 -12q-33 -13 -44 -23.5t-79 -123.5l-17 7l54 142h-195q-63 -155 -136 -250l-11 10q63 130 101 249t56 205zM189 631l77 -25q6 -4 8 -11q-2 -2 -4 -5l-32 -18v-399l173 132l14 -16q-201 -176 -223 -234
l-60 54q47 34 47 52v470z" />
  </g>

</svg>
