<?xml version="1.0" standalone="no"?>
<!DOCTYPE svg PUBLIC "-//W3C//DTD SVG 1.1//EN" "http://www.w3.org/Graphics/SVG/1.1/DTD/svg11.dtd" >
<svg xmlns="http://www.w3.org/2000/svg" xmlns:xlink="http://www.w3.org/1999/xlink" version="1.1" viewBox="0 -205 1024 1024">
  <g transform="matrix(1 0 0 -1 0 819)">
   <path fill="currentColor"
d="M536 566q15 -3 4 -18l-30 -14v-106h58l38 42l46 -50q3 -3 4 -8q0 -12 -12 -12h-134v-186l156 24l4 -20l-248 -62q-60 -16 -90 -43l-40 67l168 24v196h-66q-33 0 -62 -8l-16 36h144v164l76 -26v0v0zM828 936q9 -9 -2 -14q-16 -9 -22 -14q-6 -6 -18 -48t-42 -132h156l32 48
l60 -58q1 0 2 -6q0 -7 -8 -8h-100q-7 -127 -26 -244q-18 -118 -60 -184q24 -42 52 -72q26 -30 62 -55q33 -25 84 -38v-16q-37 1 -56 -8q-19 -6 -38 -24q-46 45 -70 78q-24 31 -62 89q-36 -49 -114 -105q-78 -54 -192 -94l-8 14q98 49 170 104q69 52 120 127q-33 80 -44 160
q-9 78 -14 172q-36 -79 -66 -112l-12 8q69 159 96 258t42 208l78 -34v0v0zM834 702h-102q-9 -25 -24 -56q15 -105 30 -194q14 -87 38 -128q24 56 40 154q15 95 18 224v0v0zM292 886h298l28 42l52 -48q18 -19 -8 -22h-156q-64 -145 -118 -226l194 20q-19 48 -52 96l14 10
q48 -36 72 -66q26 -29 28 -58q2 -28 -10 -40q-13 -12 -26 -8q-12 2 -18 14q-4 9 -4 30l-124 -22q-61 -12 -98 -38l-44 62q27 7 48 20q43 76 80 206h-84q-21 -1 -50 -10l-22 38v0v0zM28 736h142v236l84 -32q9 -5 4 -10q-4 -5 -40 -22v-172h60l34 40l54 -52q8 -14 -10 -16
h-138v-186l116 60l10 -16l-126 -82v-349q3 -36 -14 -60q-18 -21 -62 -36q-4 33 -34 48q-29 15 -82 30l4 18q96 -24 118 -18q21 6 22 32v301q-39 -25 -60 -46q-21 -18 -32 -42l-52 52l144 86v208h-66q-34 -1 -52 -10l-24 38v0v0z" />
  </g>

</svg>
