<?xml version="1.0" standalone="no"?>
<!DOCTYPE svg PUBLIC "-//W3C//DTD SVG 1.1//EN" "http://www.w3.org/Graphics/SVG/1.1/DTD/svg11.dtd" >
<svg xmlns="http://www.w3.org/2000/svg" xmlns:xlink="http://www.w3.org/1999/xlink" version="1.1" viewBox="0 -36 256 256">
  <g transform="matrix(1 0 0 -1 0 220)">
   <path fill="currentColor"
d="M160 122h61v32h-61v-32zM160 85h61v30h-61v-30zM157 163l6 -2h56l8 11l17 -14l-9 -8v-114q0 -14 -4.5 -19t-15.5 -9q-1 14 -27 18v5q23 -3 28 -2.5t5 10.5v39h-61v-64l-15 -8l1 41v33v67q-6 -12 -22 -29l-3 3q18 24 39 72h-7q-10 0 -18 -3l-10 10h37q7 22 11 47l21 -10
l-8 -5q-6 -17 -11 -32h44l12 13l17 -20h-75q-6 -13 -16 -30zM87 234l-8 -6v-27h18l10 11l15 -18h-43v-30h21l10 11l15 -18h-86q-14 0 -23 -3l-8 10h25q0 47 -1 62l21 -10l-7 -6v-46h20v61l-1 19zM59 148q-5 -4 -8 -12q13 -7 14.5 -13t-3 -10t-6 2.5t-6.5 18.5
q-4 -13 -17 -24l-2 1q11 20 15 44zM107 102v-7h-83v7h83zM15 94l-1 47l22 -8l-8 -7v-88l76 8v48l-1 49l21 -9l-7 -6v-77q0 -10 1 -21l-14 -6v16q-72 -10 -82 -22l-11 17q4 4 4 12v47zM96 148q-6 -4 -10 -13q14 -9 14 -15t-5 -7.5t-6 4.5t-5 15q-6 -12 -17 -24l-2 2
q12 22 16 45zM62 84q-5 -4 -9 -11q12 -9 13 -14t-3.5 -8t-5.5 3t-5 15q-7 -12 -19 -23l-2 1q13 22 17 43zM97 83q-6 -3 -10 -12q12 -6 14 -11.5t-3.5 -9t-6.5 3t-5 15.5q-7 -11 -19 -25l-2 3q13 20 17 42z" />
  </g>

</svg>
