<?xml version="1.0" standalone="no"?>
<!DOCTYPE svg PUBLIC "-//W3C//DTD SVG 1.1//EN" "http://www.w3.org/Graphics/SVG/1.1/DTD/svg11.dtd" >
<svg xmlns="http://www.w3.org/2000/svg" xmlns:xlink="http://www.w3.org/1999/xlink" version="1.1" viewBox="0 -339 2048 2048">
  <g transform="matrix(1 0 0 -1 0 1709)">
   <path fill="currentColor"
d="M264 1236q-56 -6 -104 -12q-3 -11 -5 -16q-11 -42 -21 -51q-5 -4 -12 -4q-8 0 -16 7q-8 8 -31 58l-43 97q140 2 249 7q27 135 40 209q22 128 34 248q6 54 9 133l138 -37q40 -11 53 -21t13 -22q0 -10 -11 -20q-10 -8 -22 -12q-13 -3 -35 -7l-37 -7q-14 -109 -27 -178
q-27 -148 -41 -213q-6 -26 -17 -67q127 8 252 17q3 70 3 99q0 45 -3 119l134 -27q36 -7 45 -13q11 -8 11 -21q0 -23 -35 -34l-49 -15l-9 -100l77 6l6 -37l-88 -24q-14 -141 -21 -192q-25 -170 -81 -335q-25 -75 -53 -133q-6 -14 -19 -40q46 -35 73 -56q110 -87 143 -152
q17 -32 20 -60v-6q0 -18 -11 -34q-13 -21 -38 -21q-24 0 -47 19q-9 8 -25 32q-10 15 -20 31q-20 33 -87 110q-21 25 -53 58q-90 -143 -195 -252q-56 -59 -136 -120q-23 -18 -71 -53l-26 34q61 53 106 102q97 106 186 235q37 54 71 115q-65 58 -133 110q-63 48 -165 109
l30 90q27 85 36 115q25 80 58 232zM201 814q31 -19 90 -52q96 -51 182 -111q34 75 56 141q33 99 58 222q18 86 30 194q1 12 8 74q-123 -18 -269 -36q-59 -186 -77 -239q-26 -75 -78 -193zM1143 201v521h-187v-20q0 -8 -8 -15q-7 -6 -19.5 -10.5t-24.5 -4.5q-21 0 -38 10
q-16 10 -16 34q0 3 5 49q6 97 6 104l-1 447q-2 69 -9 104q-2 12 -7 30l120 -86l179 -2v394h-104q-113 0 -192 -8l-38 88q94 -22 230 -22h683l98 102l121 -107q13 -12 15 -16q2 -5 2 -10q0 -9 -6 -16q-8 -10 -21 -10h-363v-395h177l68 76l84 -54q28 -18 34 -29q6 -10 6 -20
q0 -15 -11 -26q-12 -11 -31 -19q-16 -8 -36 -16l-1 -465l46 -36q18 -14 18 -27q0 -10 -7 -17q-6 -7 -11 -7h-336v-521h199l99 102l121 -107q10 -9 12 -11t3 -5q2 -5 2 -10q0 -9 -6 -17q-9 -10 -22 -10h-978q-114 0 -193 -8l-38 88q94 -22 231 -22h145zM1236 201h239v521
h-239v-521zM1475 1757h-239v-395h239v395zM1143 779v527h-187v-527h187zM1236 779h239v527h-239v-527zM1568 779h196v527h-196v-527z" />
  </g>

</svg>
