<?xml version="1.0" standalone="no"?>
<!DOCTYPE svg PUBLIC "-//W3C//DTD SVG 1.1//EN" "http://www.w3.org/Graphics/SVG/1.1/DTD/svg11.dtd" >
<svg xmlns="http://www.w3.org/2000/svg" xmlns:xlink="http://www.w3.org/1999/xlink" version="1.1" viewBox="0 -200 1000 1000">
  <g transform="matrix(1 0 0 -1 0 800)">
   <path fill="currentColor"
d="M412 586q18 -4 35.5 -12t24.5 -17l-24 -15q-21 -60 -54 -114v-255q0 -16 -15 -29.5t-32 -13.5q0 4 -5 13.5t-14 22t-22.5 27t-30.5 28.5l6 5q26 -20 42 -27.5t23 -7.5q6 0 6 3v175q-51 -63 -112.5 -109.5t-127.5 -74.5l-2 3q66 35 125.5 94t107.5 140h-183l-18 -4l-11 16
h53v374q14 0 27.5 -7t30.5 -18q14 19 26 51t18 75q18 -5 35 -12.5t24 -16.5l-23 -16q-10 -28 -28 -49t-40 -35h88l29 36q15 -5 29 -15.5t20 -22.5l-26 -26v-222q5 14 9 28t9 28zM593 410h2q25 60 40 139h-106l-18 -4l-12 16h305l28 36q23 -9 37.5 -24t19.5 -24h-206
q-10 -42 -24 -79t-31 -70q7 -4 13.5 -8.5t14.5 -9.5h124l28 37q15 -5 29.5 -16t20.5 -22l-26 -26v-226q-22 -22 -43 -22v39h-153v-17q-22 -22 -43 -22v232q-28 -42 -59.5 -73t-63.5 -52l-3 3q35 29 67.5 76t58.5 111v6zM636 157h153v213h-135l-18 -12v-201zM801 860
q16 0 32.5 -9t37.5 -25l-28 -19v-137q-21 -21 -42 -21v38h-234l-21 -28q-24 7 -43 34l21 21v146q17 0 33.5 -9t36.5 -25l-27 -19v-108h96v224q16 0 32.5 -9t37.5 -25l-28 -18v-172h96v161zM227 434h123q1 0 1 1t1 3v111h-125v-115zM227 664h125v104h-106l-19 -13v-91z
M227 561h125v92h-125v-92z" />
  </g>

</svg>
