<?xml version="1.0" standalone="no"?>
<!DOCTYPE svg PUBLIC "-//W3C//DTD SVG 1.1//EN" "http://www.w3.org/Graphics/SVG/1.1/DTD/svg11.dtd" >
<svg xmlns="http://www.w3.org/2000/svg" xmlns:xlink="http://www.w3.org/1999/xlink" version="1.1" viewBox="0 -205 1024 1024">
  <g transform="matrix(1 0 0 -1 0 819)">
   <path fill="currentColor"
d="M430 888q6 -3 6 -8q0 -4 -6 -10q-33 2 -66 -28q-39 -37 -90 -92q47 -92 64 -184q14 -90 20 -140q3 -51 -2 -126q-6 -76 -30 -142q-25 -64 -116 -101q-16 40 -40 52q-22 13 -82 33l4 20q105 -26 142 -22q34 5 50 52q14 45 20 100t4 128q-1 72 -14 132q-89 -135 -244 -260
l-12 12q155 164 242 314q-13 54 -40 106q-101 -87 -184 -138l-8 12q77 60 170 162q-42 65 -126 140l10 14q101 -73 142 -130q78 84 126 156l60 -52v0v0zM486 634q9 41 12 116h18q16 -135 8 -182q-9 -45 -30 -66q-19 -21 -40 -18q-21 0 -26 16q-7 12 2 28q8 13 28 38t28 68v0
v0zM620 974q93 -33 96 -38q4 -7 0 -10q-5 -4 -34 -20q0 -123 12 -194q12 -73 22 -160q56 64 92 110q33 44 58 98q68 -55 70 -64q1 -9 -4 -12q-5 0 -22 -2q-15 0 -56 -36q-42 -36 -132 -122q39 -159 72 -222q33 -62 78 -112q44 -50 118 -71v-20q-45 1 -60 -2q-13 -3 -44 -24
q-60 59 -102 133q-42 75 -68 166q-25 90 -44 306q-7 -238 -56 -352q-49 -112 -110 -170q-60 -55 -186 -131l-10 16q111 78 168 143t96 170q38 105 46 334v286v0v0z" />
  </g>

</svg>
