<?xml version="1.0" standalone="no"?>
<!DOCTYPE svg PUBLIC "-//W3C//DTD SVG 1.1//EN" "http://www.w3.org/Graphics/SVG/1.1/DTD/svg11.dtd" >
<svg xmlns="http://www.w3.org/2000/svg" xmlns:xlink="http://www.w3.org/1999/xlink" version="1.1" viewBox="0 -36 256 256">
  <g transform="matrix(1 0 0 -1 0 220)">
   <path fill="currentColor"
d="M163 158h40v25h-40v-25zM217 149l-14 -6v8h-150v-4l-14 -5q1 28 0 55l16 -7h145l8 9l17 -12l-9 -6q0 -14 1 -32zM53 158h41v25h-41v-25zM108 158h40v25h-40v-25zM72 132h134l9 9l16 -13l-8 -7q-4 -54 -7 -75t-16 -31.5t-29 -10.5q-2 14 -35 19l1 6q25 -5 37 -5.5t21 8
t12 93.5h-142q-27 -22 -54 -33l-2 2q26 18 40 32t20 27l19 -11q-10 -5 -16 -10zM157 104l8 10l16 -12l-7 -5v-59l-15 -5v5h-97v-2l-15 -4v80l15 -8h95zM62 97v-13h97v13h-97zM62 77v-13h97v13h-97zM62 45h97v12h-97v-12zM153 217q0 15 -1 27l25 -8l-10 -5v-14h47l14 14
l17 -21h-78v-11l-14 -5v16v7zM106 210v-11l-14 -6v17h-49q-12 0 -22 -2l-10 9h81q0 14 -1 27l21 -7l-6 -6v-21z" />
  </g>

</svg>
