<?xml version="1.0" standalone="no"?>
<!DOCTYPE svg PUBLIC "-//W3C//DTD SVG 1.1//EN" "http://www.w3.org/Graphics/SVG/1.1/DTD/svg11.dtd" >
<svg xmlns="http://www.w3.org/2000/svg" xmlns:xlink="http://www.w3.org/1999/xlink" version="1.1" viewBox="0 -36 256 256">
  <g transform="matrix(1 0 0 -1 0 220)">
   <path fill="currentColor"
d="M52 134h59q0 12 -1 23l25 -7l-10 -6v-10h71l9 9l17 -13l-10 -5q1 -46 2 -53l-16 -4v6h-67q5 -16 15 -24q27 10 43 22l18 -14h-11q-16 -7 -39 -18q33 -16 72 -17l4 29l4 -1q4 -31 10 -43q-35 2 -60 7.5t-45 19.5q-30 -11 -58.5 -15.5t-64.5 -6.5l-1 4q26 2 56.5 9t57.5 18
q-10 10 -16 30h-66v-8l-15 -4q1 19 1 39t-1 38zM111 127h-61v-19h61q-1 9 0 19zM125 108h73v19h-73q-1 -11 0 -19zM49 101v-20h64q-2 13 -2 20h-62zM128 81h70v20h-73q1 -10 3 -20zM109 235l7 10l16 -12l-8 -6v-54q0 -18 -21 -21q-1 10 -29 16v4q24 -2 30 -2t6 7v51h-52
q-13 0 -22 -3l-10 10h83zM207 235l8 10l15 -14l-8 -5v-56q1 -18 -20 -23q-1 11 -31 16v4q25 -1 31 -1t6 8v54h-40q-13 0 -22 -3l-10 10h71zM68 216q8 -5 8.5 -10t-5 -11t-9 4t-16.5 25l2 2q12 -5 20 -10zM172.5 215.5q6.5 -3.5 7 -9t-4.5 -11.5t-9 4.5t-16 22.5l2 4
q14 -7 20.5 -10.5zM112 198l1 -4q-75 -26 -83 -34l-12 16q15 1 94 22zM212 197l1 -4q-62 -24 -71 -32l-13 18q15 0 83 18z" />
  </g>

</svg>
