<?xml version="1.0" standalone="no"?>
<!DOCTYPE svg PUBLIC "-//W3C//DTD SVG 1.1//EN" "http://www.w3.org/Graphics/SVG/1.1/DTD/svg11.dtd" >
<svg xmlns="http://www.w3.org/2000/svg" xmlns:xlink="http://www.w3.org/1999/xlink" version="1.1" viewBox="0 -36 256 256">
  <g transform="matrix(1 0 0 -1 0 220)">
   <path fill="currentColor"
d="M37.5 183.5q0.5 -10.5 -4.5 -15t-6.5 9t-11.5 36.5l3 2q19 -22 19.5 -32.5zM80 112.5q3 -6.5 2.5 -11.5t-4.5 -10t-7.5 8.5t-14.5 30.5v-89q0 -14 1 -23l-14 -8q1 15 1 31v75q-15 -41 -34 -67l-3 2q23 50 34 99h-9l-9 -2l-10 9h31v59q0 12 -1 27l20 -11l-7 -6v-69h8l8 11
l12 -18h-28v-13q21 -18 24 -24.5zM83 207q-10 -22 -22 -42l-4 1q12 33 15 55l18 -10zM112 245l19 -8l-6 -7v-23h12l8 9l12 -16h-32v-18h8l7 8l11 -15h-26v-24h14l8 9l11 -16h-49q-10 0 -20 -2l-9 9h33v24h-5q-8 0 -12 -3l-8 10h25v18h-6q-9 0 -12 -2l-8 9h26q0 19 -1 38z
M105 100h27v20h-27v-20zM105 71h27v22h-27v-22zM92 8q1 33 1 64.5t-1 61.5l12 -7h29l6 8l11 -11l-6 -5v-88q0 -14 -17 -20q0 13 -15 14v5q20 -3 20 2.5v8.5v23h-27v-50zM207 63q4 -9 1.5 -13.5t-6.5 -5t-4.5 6.5t-3 14.5t-7.5 18.5l2 2q14 -14 18 -23zM224 74q4 -7 2 -14
t-5 -8t-4 5.5t-4.5 15t-8.5 16.5l3 3q13 -11 17 -18zM160 222l12 -7h8q4 22 4 31l17 -8l-5 -5l-11 -18h30l7 8l12 -12l-7 -5v-37q0 -8 1 -14l-13 -6v7h-42v-20h55l8 10l12 -17h-75v-20h57l6 9l12 -12l-6 -5q-1 -47 -3.5 -61.5t-7.5 -21t-13 -10.5q-1 12 -22 16v5
q16 -2 21.5 -2t7.5 7.5t3 26t1 41.5h-56v-5l-13 -5q1 20 1 34v67q0 14 -1 29zM215 208h-42v-21h42v21zM215 180h-42v-17h42v17zM186 57.5q3 -9.5 0 -14t-6 -5t-3.5 7.5t-2.5 17t-5 17l2 2q12 -15 15 -24.5zM161 49q-1 -10 -5 -14.5t-8.5 -1.5t-0.5 9.5t6 14t3 23.5h3
q3 -21 2 -31z" />
  </g>

</svg>
