<?xml version="1.0" standalone="no"?>
<!DOCTYPE svg PUBLIC "-//W3C//DTD SVG 1.1//EN" "http://www.w3.org/Graphics/SVG/1.1/DTD/svg11.dtd" >
<svg xmlns="http://www.w3.org/2000/svg" xmlns:xlink="http://www.w3.org/1999/xlink" version="1.1" viewBox="0 -36 256 256">
  <g transform="matrix(1 0 0 -1 0 220)">
   <path fill="currentColor"
d="M90 78q0 -23 1 -37l-15 -6v15h-41v-17l-15 -6q1 20 1 30v139q0 19 -1 35l15 -7h41l7 8l13 -12l-6 -6v-136zM35 168h41v49h-41v-49zM35 113h41v48h-41v-48zM35 57h41v49h-41v-49zM171 213q6 -7 0 -15t-9.5 2.5t-14.5 25.5l1 2q17 -8 23 -15zM155 184v-149q0 -9 10 -8h55
q12 -1 13 12t1 28h4q1 -20 3 -27.5t10 -11.5q-7 -9 -12.5 -11.5t-16.5 -2.5h-63q-18 0 -18 19v151h14zM138 179q-2 -61 -17 -106t-51 -67l-2 3q27 24 40 64t17 107h-6q-9 1 -19 -3l-8 10h33q1 39 -1 60l23 -9l-8 -8q0 -22 -1 -43h26l10 9l12 -17h-48zM210 196.5
q-17 -24.5 -34 -36.5l-2 3q33 41 43 77l20 -15q-10 -4 -27 -28.5zM236 164q-40 -51 -64 -62l-1 3q46 44 56 79l16 -16zM237 101q-44 -49 -72 -58l-1 3q21 17 38.5 36t29.5 42l15 -17z" />
  </g>

</svg>
