<?xml version="1.0" standalone="no"?>
<!DOCTYPE svg PUBLIC "-//W3C//DTD SVG 1.1//EN" "http://www.w3.org/Graphics/SVG/1.1/DTD/svg11.dtd" >
<svg xmlns="http://www.w3.org/2000/svg" xmlns:xlink="http://www.w3.org/1999/xlink" version="1.1" viewBox="0 -205 1024 1024">
  <g transform="matrix(1 0 0 -1 0 819)">
   <path fill="currentColor"
d="M872 896l40 48l64 -58l2 -6q0 -10 -8 -10h-504v-214q4 -240 -36 -378q-41 -135 -190 -251l-10 12q128 125 160 257q31 130 26 350v292l60 -42h396v0v0zM540 794l58 -34h252l28 44l62 -44q6 -7 6 -10q0 -6 -32 -26v-206l4 -84q0 -12 -14 -24q-13 -12 -38 -14v38h-114v-152
h106l36 46l60 -54q3 -3 4 -6q0 -12 -12 -12h-194v-137h134l38 51l66 -59q3 -4 4 -8q0 -9 -12 -10h-454q-21 1 -68 -8l-16 34h258v137h-100q-21 0 -68 -8l-16 34h184v152h-114v-18q-1 -13 -16 -22q-12 -10 -36 -10l4 116v294v0v0zM588 460h114v126h-114v-126v0v0zM752 586
v-126h114v126h-114v0v0zM588 612h114v122h-114v-122v0v0zM752 734v-118h114v118h-114v0v0zM338 800l52 -56q2 -3 2 -8q0 -7 -12 -8h-256q-21 0 -68 -8l-18 36h268l32 44v0v0zM286 684l76 -30q8 -6 8 -8q4 -10 -18 -16t-38 -62q-15 -55 -36 -124q-21 -67 -44 -154l140 38
l6 -18q-228 -87 -258 -102q-30 -13 -56 -34l-36 60l174 48q32 126 82 402v0v0v0zM94 666q61 -103 80 -160q17 -55 14 -92q-3 -36 -18 -48q-15 -13 -30 -4q-16 5 -10 44q3 35 -6 98q-9 60 -44 156l14 6v0v0zM124 958l10 12q48 -33 72 -56q24 -22 36 -40q9 -18 10 -36t-10 -32
q-10 -14 -28 -12t-24 38q-4 33 -22 66q-16 30 -44 60v0v0z" />
  </g>

</svg>
