<?xml version="1.0" standalone="no"?>
<!DOCTYPE svg PUBLIC "-//W3C//DTD SVG 1.1//EN" "http://www.w3.org/Graphics/SVG/1.1/DTD/svg11.dtd" >
<svg xmlns="http://www.w3.org/2000/svg" xmlns:xlink="http://www.w3.org/1999/xlink" version="1.1" viewBox="0 -205 1024 1024">
  <g transform="matrix(1 0 0 -1 0 819)">
   <path fill="currentColor"
d="M632 952q7 -3 8 -6q6 -6 0 -12q-31 -7 -46 -34q-12 -25 -48 -82h350l38 46l58 -50q8 -4 8 -10q1 -6 -34 -32v-330q3 -244 -14 -293q-18 -50 -42 -76q-24 -25 -80 -50q-6 27 -30 44q-21 18 -96 48l6 18q72 -20 94 -26q21 -6 42 -4q18 3 34 18q15 14 28 55q10 42 8 268v346
h-386q-46 -85 -112 -164l-14 12q54 89 94 178q39 87 66 168l68 -32v0v0zM478 664q75 -51 84 -74q10 -22 8 -40q-3 -18 -14 -26q-12 -9 -26 -6q-13 2 -14 32q0 30 -12 54q-12 22 -36 50l10 10v0v0zM670 486h102l42 50q62 -60 62 -66q2 -10 -10 -10h-196v-38q63 -36 102 -62
q36 -25 48 -52q13 -28 2 -46q-9 -19 -26 -16q-15 2 -26 26q-10 22 -34 56q-24 33 -66 70v-206l4 -95q0 -13 -20 -26q-21 -14 -38 -14l4 135v250q-55 -119 -100 -190q-46 -72 -106 -141l-10 12q48 73 88 149q38 74 80 188h-86q-4 0 -40 -8l-16 34h190v266l70 -28q3 -1 4 -2
q9 -6 0 -12l-24 -16v-208v0v0zM686 514q62 108 88 178q66 -40 66 -46q1 -7 -4 -8q-6 -1 -24 -8q-17 -6 -112 -126l-14 10v0v0zM80 782l48 -28h74v228l76 -34q12 -6 4 -18l-28 -16v-160h64l26 34l54 -40q12 -9 4 -14l-24 -22v-204l4 -74q3 -15 -12 -20q-15 -6 -42 -8v30h-74
v-228l96 26q-24 44 -54 88l14 10q62 -49 80 -70q17 -21 26 -44q6 -24 -2 -42q-7 -18 -22 -20q-16 -3 -22 6q-6 6 -8 22q-1 14 -2 26q-215 -63 -238 -75q-21 -10 -50 -32l-38 59l168 36v238h-72v-28q0 -12 -18 -20q-18 -9 -36 -8l4 104v298v0v0zM130 462h72v266h-72v-266v0v0
zM254 728v-266h74v266h-74v0v0z" />
  </g>

</svg>
