<?xml version="1.0" standalone="no"?>
<!DOCTYPE svg PUBLIC "-//W3C//DTD SVG 1.1//EN" "http://www.w3.org/Graphics/SVG/1.1/DTD/svg11.dtd" >
<svg xmlns="http://www.w3.org/2000/svg" xmlns:xlink="http://www.w3.org/1999/xlink" version="1.1" viewBox="0 -205 1024 1024">
  <g transform="matrix(1 0 0 -1 0 819)">
   <path fill="currentColor"
d="M416 938h272l30 36l52 -42q3 -3 4 -6q0 -12 -12 -12h-72v-240l54 14l6 -16l-60 -20v-90q0 -15 -14 -24q-20 -12 -34 -12v112q-130 -43 -148 -56q-18 -12 -42 -26l-40 58l72 16v284h-20q-10 0 -32 -8l-16 32v0v0zM530 638l112 26v48h-112v-74v0v0zM530 736h112v78h-112
v-78v0v0zM530 838h112v76h-112v-76v0v0zM894 868h-108q-21 0 -42 -8l-22 34h172l24 30q56 -36 56 -42q1 -7 -4 -8q-6 -1 -18 -10q-12 -7 -24 -38q-9 -30 -42 -90q56 -49 76 -76q18 -28 16 -46q0 -18 -12 -26q-10 -7 -22 -2q-11 3 -16 18l-20 40q-15 27 -42 58
q-21 -31 -54 -62q-31 -31 -98 -68l-6 12q59 50 80 74q20 24 50 72q-40 34 -106 80l6 12q62 -25 116 -62q24 42 40 108v0v0zM690 484q-103 -12 -230 -24l-4 18q113 14 242 38q125 24 194 48q45 -45 48 -54q0 -10 -8 -8q-9 -1 -26 2t-58 0q-39 -3 -90 -12q20 -73 46 -130
q84 56 120 88q45 -48 46 -54q0 -6 -6 -6q-4 -1 -16 2q-12 0 -38 -6q-27 -7 -98 -40q32 -65 62 -100q27 -36 58 -54q30 -19 76 -28v-15q-39 0 -56 -6q-15 -5 -32 -22q-46 39 -76 85q-30 44 -54 100t-54 182v-334l4 -77q0 -14 -20 -28q-19 -14 -34 -14l4 119v330v0v0zM402 250
q118 82 206 182q57 -36 58 -42t-4 -8q-3 -1 -20 -2q-17 0 -70 -42q-53 -41 -160 -100l-10 12v0v0zM376 95q129 94 250 215q54 -36 54 -42q1 -6 -4 -8q-3 -1 -18 -2q-12 -1 -84 -52q-69 -51 -186 -125l-12 14v0v0zM26 904h312l38 42l56 -54q7 -13 -10 -16h-142
q-57 -73 -104 -130q78 -83 106 -142q33 44 88 142q60 -37 60 -44q0 -6 -8 -8q-9 -1 -18 -4t-36 -32q-28 -27 -76 -78l18 -58q56 -37 82 -64q26 -25 38 -44t16 -38q3 -18 -8 -30q-10 -13 -28 -10q-18 2 -20 26q-3 24 -20 58q-16 33 -52 66q12 -115 12 -164q-1 -48 -14 -114
q-12 -62 -42 -101q-29 -40 -82 -56q-7 34 -34 50t-86 38l6 17q75 -22 100 -25q24 -4 42 4q18 6 30 25q12 21 22 66q8 45 10 96q3 51 -6 144q-57 -81 -116 -138q-57 -57 -120 -102l-12 12q69 63 114 118q45 54 120 172q-6 38 -30 88q-58 -77 -104 -118q-43 -42 -106 -90
l-10 14q59 58 98 104q38 45 98 132q-34 50 -52 70q-60 -60 -132 -110l-10 12q72 68 118 122q44 54 86 124h-128q-20 0 -40 -8l-24 36v0v0z" />
  </g>

</svg>
