<?xml version="1.0" standalone="no"?>
<!DOCTYPE svg PUBLIC "-//W3C//DTD SVG 1.1//EN" "http://www.w3.org/Graphics/SVG/1.1/DTD/svg11.dtd" >
<svg xmlns="http://www.w3.org/2000/svg" xmlns:xlink="http://www.w3.org/1999/xlink" version="1.1" viewBox="0 -36 256 256">
  <g transform="matrix(1 0 0 -1 0 220)">
   <path fill="currentColor"
d="M66 179h18l6 9l14 -11l-6 -7v-55l1 -21l-13 -6v7h-51v-7l-13 -6q1 21 1 90q-5 -7 -13 -17l-2 3q18 30 27.5 53.5t9.5 32.5l19 -10q-8 -1 -16 -19h27l8 9l13 -13q-9 0 -30 -32zM31 183l6 -4h22l16 29h-29q-7 -10 -15 -25zM35 140h19v32h-19v-32zM67 140h19v32h-19v-32z
M35 102h19v31h-19v-31zM67 102h19v31h-19v-31zM30 43q-1 -8 -4.5 -11.5t-11.5 -3.5t0.5 12t12.5 34h4q0 -23 -1 -31zM44 77q14 -19 14.5 -28.5t-5 -15t-6 8.5t-6.5 34zM62 80q22 -17 22.5 -26t-4.5 -13.5t-7 5.5t-13 32zM83 86q18 -11 23.5 -18.5t0 -16.5t-8.5 2t-17 31z
M222 240l20 -9l-7 -5q0 -20 1 -26l-13 -7v7h-97l-4 -6l-13 10l5 4q0 24 -1 33l18 -9l-5 -6v-19h42q0 30 -1 39l19 -9l-6 -6v-24h43q0 24 -1 33zM128 200l15 -11q-7 -2 -12 -11h44q-2 8 -14 20l3 2q14 -5 19.5 -9.5t-1.5 -12.5h35l11 7l14 -14h-57v-11h23l10 8l15 -15h-48
v-13h23l10 7l14 -14h-47v-15h33l12 8l16 -15h-114v-2l-13 -4q1 15 1 62q-8 -11 -20 -19l-1 4q19 21 29 48zM132 160h40v11h-40v-11zM132 140h40v13h-40v-13zM132 118h40v15h-40v-15zM160 41h30v19h-30v-19zM161 67h28l7 7l13 -11l-6 -4v-25l-13 -5v5h-30v-3l-12 -4v45z
M126 17l-13 -7q1 27 1 57t-1 41l13 -8h98l8 9l14 -12l-7 -5v-64q0 -10 -5 -13.5t-15 -6.5q0 10 -28 16v3q22 -2 28.5 -1.5t6.5 6.5v61h-100v-76zM197 98v-11q-1 -8 10 -8q3 0 7.5 2t9.5 -9q-6 -2 -14 -2h-9q-16 0 -16 15v13h12zM161 98v-9q-3 -17 -30 -33l-3 3
q14 13 17.5 20t2.5 19h13z" />
  </g>

</svg>
