<?xml version="1.0" standalone="no"?>
<!DOCTYPE svg PUBLIC "-//W3C//DTD SVG 1.1//EN" "http://www.w3.org/Graphics/SVG/1.1/DTD/svg11.dtd" >
<svg xmlns="http://www.w3.org/2000/svg" xmlns:xlink="http://www.w3.org/1999/xlink" version="1.1" viewBox="0 -205 1024 1024">
  <g transform="matrix(1 0 0 -1 0 819)">
   <path fill="currentColor"
d="M484 720q-17 0 -64 -14v-148h36l30 34l48 -46l4 -6q0 -9 -14 -8h-104v-60q45 -24 70 -42q23 -18 38 -42q14 -24 8 -44q-7 -18 -26 -20q-19 -1 -26 26q-7 24 -20 48q-13 23 -44 50v-308l4 -87q0 -15 -20 -28q-18 -14 -36 -16l4 137v254q-27 -57 -60 -108q-34 -51 -82 -104
l-14 10q44 59 82 140q38 79 74 194h-56q-21 0 -44 -8l-16 34h116v142q-54 -10 -116 -22l-4 16q186 56 234 88q44 -48 46 -54q1 -6 -4 -8q-5 -3 -16 0q-10 1 -28 0v0v0zM546 714h184v96l78 -28q3 -4 4 -8q1 0 -4 -6l-28 -12v-42h102l28 34l52 -40q3 0 4 -6q0 -12 -12 -12
h-174v-66h68l28 30l54 -40q3 0 6 -6q0 -7 -8 -8h-148v-66h118l30 32l50 -40q3 -3 4 -6q0 -12 -12 -12h-342q-21 0 -68 -8l-16 34h186v66h-72q-21 0 -68 -8l-16 32h156v66h-100q-21 0 -68 -8l-16 32v0v0zM572 480l56 -26h242l28 28l50 -36q7 -4 8 -8q-1 -6 -28 -24v-164
l4 -58q0 -12 -20 -24q-20 -9 -34 -12v34h-256v-16q0 -4 -18 -16q-15 -13 -36 -14l4 102v234v0v0zM622 214h256v54h-256v-54v0v0zM622 292h256v56h-256v-56v0v0zM622 372h256v56h-256v-56v0v0zM814 168q89 -29 124 -55q33 -26 40 -50q9 -23 -2 -38q-10 -15 -28 -12
q-16 3 -28 30q-10 24 -32 50q-21 27 -80 63l6 12v0v0zM488 19q99 73 180 155l50 -32q9 -5 -2 -15q-18 0 -30 -6q-12 -5 -54 -34q-39 -29 -134 -82l-10 14v0v0zM870 856l42 54l72 -64q3 -6 4 -6q-1 -10 -10 -10h-748v-278q6 -229 -42 -338q-46 -109 -134 -185l-12 12
q75 93 108 185q30 89 34 260q-80 -67 -100 -110l-54 44l152 92v386l64 -42h624v0v0zM490 972l8 12q45 -15 76 -30q29 -16 40 -34q12 -18 4 -36q-8 -20 -28 -18q-21 -1 -26 20q-4 20 -20 38q-15 18 -54 48v0v0zM62 746l14 10q42 -49 60 -74q15 -25 18 -50q3 -24 -6 -38
q-9 -16 -24 -16q-13 -1 -22 8q-9 8 -6 34q1 24 -4 52q-3 26 -30 74v0v0z" />
  </g>

</svg>
