<?xml version="1.0" standalone="no"?>
<!DOCTYPE svg PUBLIC "-//W3C//DTD SVG 1.1//EN" "http://www.w3.org/Graphics/SVG/1.1/DTD/svg11.dtd" >
<svg xmlns="http://www.w3.org/2000/svg" xmlns:xlink="http://www.w3.org/1999/xlink" version="1.1" viewBox="0 -36 256 256">
  <g transform="matrix(1 0 0 -1 0 220)">
   <path fill="currentColor"
d="M59 161.5q-5 10.5 -21 24.5l2 3q20 -7 27.5 -13t2 -15.5t-10.5 1zM79 156l15 -12l-7 -3q-11 -16 -24 -33v-15l3 -2q10 11 17 27l15 -11h-6l-19 -17q10 -4 16 -9.5t1.5 -14t-8.5 1t-19 20.5v-75l-12 -6v86q-18 -19 -44 -34l-2 3q39 33 64 79h-37l-9 -2l-9 8h56zM135 167
h78l12 11l15 -18h-113q-13 -13 -33 -27l-3 2q37 36 49 58l17 -12l-8 -2zM229 8q-36 9 -59 22q-34 -17 -86 -21l-2 4q46 7 78 24q-17 13 -31 26q-11 -11 -34 -22l-3 2q29 23 31 28l-8 10l2 2l12 -6q6 8 11 16h-12v-1l-14 -4q1 10 1 25.5t-1 35.5l15 -5h78l8 7l16 -11l-10 -5
v-22q0 -9 1 -20l-14 -5v5h-52q-6 -7 -15 -16h59l8 8l17 -14l-10 -4q-17 -18 -33 -30q30 -14 67 -15v-4q-14 0 -20 -10zM128 123h80v14h-80v-14zM128 101h80v14h-80v-14zM171 43q20 15 29 27h-63l-2 -2q14 -11 36 -25zM65 231l-11 -12h54l10 10l16 -16h-56q20 -12 21 -19
t-5 -12.5t-9.5 6.5t-14.5 25h-20q-17 -23 -39 -37l-3 1q15 17 26 32.5t19 36.5l22 -11zM170 233l-12 -14h57l12 10l15 -16h-62q15 -8 19.5 -13t3 -11t-6 -7t-8.5 8.5t-16 22.5h-18q-12 -15 -30 -30l-3 2q20 25 27 38.5t10 22.5l22 -11z" />
  </g>

</svg>
