<?xml version="1.0" standalone="no"?>
<!DOCTYPE svg PUBLIC "-//W3C//DTD SVG 1.1//EN" "http://www.w3.org/Graphics/SVG/1.1/DTD/svg11.dtd" >
<svg xmlns="http://www.w3.org/2000/svg" xmlns:xlink="http://www.w3.org/1999/xlink" version="1.1" viewBox="0 -36 256 256">
  <g transform="matrix(1 0 0 -1 0 220)">
   <path fill="currentColor"
d="M224 43.5q0 -12.5 1 -25.5l-14 -8v15h-66v-11l-14 -7q1 23 1 45t-1 33l14 -8h66l7 9l13 -13l-7 -5v-24.5zM145 32h66v38h-66v-38zM173 214q-2 16 -14 30l1 3q25 -11 25.5 -18.5t-5.5 -14.5h30l12 10l14 -17h-85q-10 -1 -19 -3l-9 10h50zM206.5 185.5
q-5.5 -6.5 -10.5 -14.5h24l12 13l16 -20h-104q-10 0 -19 -2l-9 9h41q-5 17 -16 29l2 3q18 -9 22.5 -14.5t-3.5 -17.5h27q9 20 12 35l17 -10q-6 -4 -11.5 -10.5zM169 165l20 -8l-6 -6v-9h33l7 9l13 -13l-7 -6v-17q0 -10 1 -19l-14 -4v5h-33v-23h-13v23h-32v-4l-13 -5
q1 15 1 27t-1 34l14 -7h31q0 12 -1 23zM138 104h32v31h-32v-31zM183 104h33v31h-33v-31zM27 165h9q0 53 -1 74l14 -7h36l8 9l13 -14l-8 -7v-55h7l8 7l12 -16q-6 0 -12.5 -6t-10.5 -11l-3 2l7 17h-79q1 -16 -4.5 -21.5t-11 -2t0 10.5t7.5 14.5t4 16.5h3zM48 205h13l7 8
l11 -12l-6 -5v-31h13v60h-38v-20zM48 165h14v33h-14v-33zM50 137h37l6 9l14 -15l-8 -6v-93q0 -17 -17 -23q-1 14 -24 19l1 4q14 -2 20.5 -2t6.5 8v28h-38v-49l-14 -8q1 19 1 68.5t-1 66.5zM48 105h38v25h-38v-25zM48 73h38v25h-38v-25z" />
  </g>

</svg>
