<?xml version="1.0" standalone="no"?>
<!DOCTYPE svg PUBLIC "-//W3C//DTD SVG 1.1//EN" "http://www.w3.org/Graphics/SVG/1.1/DTD/svg11.dtd" >
<svg xmlns="http://www.w3.org/2000/svg" xmlns:xlink="http://www.w3.org/1999/xlink" version="1.1" viewBox="0 -140 1000 1000">
  <g transform="matrix(1 0 0 -1 0 860)">
   <path fill="currentColor"
d="M591 732h99v165l-4 51l62 -18q37 -10 37 -20q0 -6 -28 -15l-7 -3h1q-3 0 -5 -2l5 1v-159h70q24 26 31 29t22 -7l35 -36q13 -15 13 -16q0 -6 -26 -11h2l-15 -4l8 1v-315q-3 -7 -19.5 -17t-26.5 -10q-16 0 -16 26v32h-78v-272q0 -7 1 -14q0 -27 -2 -34t-14 -12
q-26 -12 -31 -12q-11 0 -13 11t-2 61v272h-97l1 -24l-3 -17q-19 -21 -45 -23q-10 0 -13 3h2q-3 3 -3 366l-8 49zM497 947l46 -27q15 -7 26 -18h-1q7 -7 7 -8q0 -6 -27 -11h2q-1 -1 -6 -1q-20 -46 -48 -108l-37 -83h1v-548l1 -40q0 -5 -0.5 -8t-3 -6.5t-3.5 -4.5t-7 -5t-8 -6
q-16 -10 -26 -10q-9 0 -14 6h1q-2 8 -2 85v424q-51 -90 -99 -155l-19 21q84 149 133.5 264t83.5 239zM302 748l44 -28q30 -20 30 -25q0 -10 -42 -13h5q-49 -80 -99 -138q15 -3 15 -6q0 -4 -19 -12l6 1v-366q0 -5 1 -32.5t1 -31.5q0 -16 -15.5 -25t-31.5 -9q-18 0 -18 20
q0 6 1 39.5t1 38.5v320q-35 -32 -112 -89l-13 15q77 67 127.5 136.5t118.5 204.5zM593 709v-282h97v282h-97zM751 709v-282h78v282h-78zM266 950l43 -19q28 -13 28 -20q0 -8 -43 -14h7q-80 -119 -228 -242l-16 16q72 70 113.5 126t95.5 153zM540 882h4h-4zM911 716v1
q-1 1 -2 1zM533 345h-2q1 0 1 1q0 -1 1 -1zM439 75q-1 1 0 1v-1zM457 86l-1 -1l1 2v-1zM736 73h-1q1 0 1 1v-1z" />
  </g>

</svg>
