<?xml version="1.0" standalone="no"?>
<!DOCTYPE svg PUBLIC "-//W3C//DTD SVG 1.1//EN" "http://www.w3.org/Graphics/SVG/1.1/DTD/svg11.dtd" >
<svg xmlns="http://www.w3.org/2000/svg" xmlns:xlink="http://www.w3.org/1999/xlink" version="1.1" viewBox="0 -205 1024 1024">
  <g transform="matrix(1 0 0 -1 0 819)">
   <path fill="currentColor"
d="M88 486l52 -36h86l26 34l46 -28q12 -6 12 -14q0 -3 -24 -24v-128l4 -64q0 -15 -20 -24q-18 -10 -32 -10v58h-104v-34q1 -15 -16 -26q-17 -10 -34 -10l4 98v208v0v0zM134 424v-150h104v150h-104v0v0zM308 956q3 -3 4 -6q7 -7 -34 -20l-8 -104h102l36 46l60 -54q3 0 4 -6
q0 -10 -12 -10h-194l-12 -42q82 -28 122 -52q39 -24 48 -48q9 -23 0 -40q-6 -18 -24 -18q-17 -1 -28 26q-12 26 -32 52q-21 24 -92 64q-19 -42 -68 -86q-48 -42 -120 -72l-8 14q60 35 106 86q45 49 60 116h-88q-21 0 -56 -12l-22 36h170q7 94 8 158l78 -28v0v0zM20 568h412
l32 46l52 -54q3 -3 4 -6q0 -10 -12 -10h-94v-429q0 -35 -14 -56q-13 -20 -58 -38q-3 27 -32 44q-30 15 -84 30l4 18q66 -12 90 -16q21 -2 36 4q15 8 12 49v394h-276q-21 0 -56 -8l-16 32v0v0zM590 852h56q20 57 40 130l66 -28q15 -8 4 -16q-15 -6 -32 -14q-29 -36 -52 -72
h138l28 38l66 -44q9 -8 4 -16l-32 -22v-158l4 -70q-7 -18 -22 -24q-15 -4 -32 -4v46h-236v-92h296l32 46l62 -56q2 -4 2 -8q0 -9 -8 -8h-384v-80h300l30 34l46 -40q9 -5 10 -10q0 -7 -30 -28q3 -171 -8 -225q-12 -55 -36 -80q-25 -21 -64 -34q-9 26 -32 42q-21 15 -92 38
l6 18q90 -22 124 -18q34 6 44 45q10 41 8 232h-308q5 -34 -16 -44q-18 -9 -36 -8l4 108v468l50 -46v0v0zM590 624h236v86h-236v-86v0v0zM590 738h236v86h-236v-86v0v0zM530 302h20q5 -52 8 -100q3 -49 -12 -69q-16 -21 -34 -24q-19 -3 -28 8q-7 10 -2 22q3 9 18 27
q11 18 20 42q6 24 10 94v0v0zM586 302l12 8q38 -51 50 -74q9 -21 10 -42q0 -18 -12 -32q-11 -13 -28 -8q-15 5 -12 32q3 24 -2 48q-3 23 -18 68v0v0zM758 332l12 8q51 -39 70 -60q15 -20 18 -40q3 -18 -8 -32q-11 -13 -28 -8q-16 3 -16 28q1 23 -10 46q-12 21 -38 58v0v0z
M670 318l12 8q53 -45 68 -68q14 -21 14 -42q0 -18 -12 -32q-11 -13 -28 -8q-16 6 -14 36q0 30 -6 48q-5 18 -34 58v0v0z" />
  </g>

</svg>
