<?xml version="1.0" standalone="no"?>
<!DOCTYPE svg PUBLIC "-//W3C//DTD SVG 1.1//EN" "http://www.w3.org/Graphics/SVG/1.1/DTD/svg11.dtd" >
<svg xmlns="http://www.w3.org/2000/svg" xmlns:xlink="http://www.w3.org/1999/xlink" version="1.1" viewBox="0 -144 1024 1024">
  <g transform="matrix(1 0 0 -1 0 880)">
   <path fill="currentColor"
d="M453 717l-12 -1l-18 -30l-32 -45l-35 -43l-39 -40l-41 -37l-43 -35l-21 -14v-7h96l2 5l4 14l13 39l22 58h-1l5 10l53 -38l8 -18h-23l-20 -22l-10 -10l-19 -20l-18 -18h59l54 54l64 -54v-22h-154v-98h45l44 48l53 -48v-22h-142v-98h45l44 48l53 -48v-21h-142v-116h51
l54 54l64 -54v-21h-304v-44l-65 -32v441l-63 -32l-56 -21l-4 8l50 32l73 51v50l52 -9l46 43l36 39l33 40l30 41l27 45l24 46l3 5l46 -30l-9 24l-30 62l-21 39l-12 19l7 6l19 -13l17 -15l17 -17l31 -37l28 -42l14 -23l24 -50l-1 -24l-18 -17l-24 1l-17 18zM860 133l55 -35
l-8 -11l-8 -10l-10 -9l-10 -8l-11 -6l-12 -6l-12 -5l-13 -2l-13 -2l-13 -1v32l-108 16v16h108l8 1l7 1l11 3l6 3l5 3l5 4l9 10zM282 204h-70v-116h70v116zM915 98l-55 35l4 8l4 11l5 17l4 21l2 24l3 28l2 33l1 35v29l-1 43h-274l-65 -32v537l65 -32h73l2 4l2 14l2 13l6 27
l2 13l3 13l4 26l1 8h-1l4 14l59 -28l12 -15l-23 -6l-25 -40l-8 -12l-17 -22l-8 -9h133l32 27l59 -48l-27 -22v-226l-64 -32v43h-221v-86h253l44 48l54 -48v-21h-351v-86h274l32 26l59 -48l-26 -16v-57l-1 -37l-2 -34l-2 -31l-4 -27l-4 -24l-6 -22l-7 -19zM508 158l45 -45
l-22 -9l-23 9l-9 22zM531 135l-1 1l-22 22l7 6l7 7l7 11l7 12l6 15l5 17l5 19l4 23l3 23l1 27h10l4 -26l5 -24l3 -24l2 -22l-1 -21l-2 -19l-4 -19l-5 -18l-8 -17l-11 -15zM617 175l63 -17l-16 -19l-24 -3l-19 15zM633 304l-9 -4l5 -17l1 -17l1 -16v-15v-13l-2 -12l-2 -11
l-3 -9l-3 -8l-4 -7l10 -3h2l49 -14h2v14v14l-2 14l-4 14l-4 14l-5 14l-7 15l-8 15l-9 15zM710 205l4 21v10v9l-1 10l-1 10l-3 11l-3 10l-4 11l-8 8l7 8l9 -8l11 -7l10 -7l10 -10l8 -10l7 -12l7 -12l5 -13l4 -14l3 -15l-10 -23l-22 -10l-23 10zM799 255v7v7l-1 7l-2 7l-4 8
l-5 8l-6 8l-7 9l-11 6l4 9l12 -5l12 -3l12 -3l11 -5l10 -7l10 -7l9 -9l7 -11l7 -11l4 -13l-6 -23l-21 -13l-24 7l-12 21zM282 323h-70v-98h70v98zM282 443h-70v-98h70v98zM165 849l58 -28l12 -16l-20 -4l-28 -55l-30 -47l-34 -43l-18 -21l-21 -19l-21 -18l-8 7l52 94l21 46
l19 48l8 24l7 25zM262 984l64 -11l16 -11l-16 -10v-259v-13l-3 -14l-4 -12l-7 -13l-9 -11l-11 -9l-12 -6l-13 -4l-13 -3l-14 -1v33l-86 16v16h86h6l5 1l4 1l2 1v1l1 1l1 2l1 3l1 5l1 6v291zM831 715h-221v-96h221v96zM831 834h-221v-97h221v97z" />
  </g>

</svg>
