<?xml version="1.0" standalone="no"?>
<!DOCTYPE svg PUBLIC "-//W3C//DTD SVG 1.1//EN" "http://www.w3.org/Graphics/SVG/1.1/DTD/svg11.dtd" >
<svg xmlns="http://www.w3.org/2000/svg" xmlns:xlink="http://www.w3.org/1999/xlink" version="1.1" viewBox="0 -36 256 256">
  <g transform="matrix(1 0 0 -1 0 220)">
   <path fill="currentColor"
d="M91 145l-8 -5l-8 -12h114l15 12l16 -19h-83q-2 -15 -6 -34h85l14 13l17 -20h-120q1 0 3 1v-1q-14 -35 -45 -51.5t-70 -22.5l-1 3q36 10 62 26t39 45h-73q-11 0 -20 -2l-10 9h104q4 18 6 34h-50q-15 -22 -32 -34l-3 3q25 31 35 67zM169 224l14 -19h-101q-10 0 -20 -2l-9 9
h104zM198 248l22 -8l-7 -6v-50q0 -13 1 -26l-15 -6v9h-125q-11 0 -20 -2l-11 9h156q0 59 -1 80zM154 72q73 -29 79.5 -41t2.5 -20.5t-17 8t-68 50.5z" />
  </g>

</svg>
