<?xml version="1.0" standalone="no"?>
<!DOCTYPE svg PUBLIC "-//W3C//DTD SVG 1.1//EN" "http://www.w3.org/Graphics/SVG/1.1/DTD/svg11.dtd" >
<svg xmlns="http://www.w3.org/2000/svg" xmlns:xlink="http://www.w3.org/1999/xlink" version="1.1" viewBox="0 -36 256 256">
  <g transform="matrix(1 0 0 -1 0 220)">
   <path fill="currentColor"
d="M33 59l-9 -10l-12 12l7 8v3q0 102 -1 124l22 -12l-8 -7v-111h19q0 162 -1 180l21 -10l-7 -8v-162h20q0 108 -1 129l20 -12l-6 -7v-67q0 -25 1 -54l-14 -8v12h-51zM175 168h27v27h-27v-27zM140 168h23v41l12 -7h27v25h-62v-59zM229 161h-113q2 -9 1.5 -17.5t-5 -11.5
t-11 -2t0.5 13t8 34h5l1 -9h11q0 55 -1 75l16 -9h58l8 9l15 -14l-8 -6v-55h14l6 7l13 -15q-10 -3 -22 -24l-4 1zM137 137h66l7 9l15 -14l-7 -4v-90q-1 -19 -19 -28q-1 13 -25 19v5q17 -2 24 -2t7 9v89h-68v-64q-4 -36 -33 -56l-2 5q22 22 22 65.5t-1 65.5zM185 109.5
q8 -6.5 4 -16.5t-12 1.5t-30 22.5l2 4q28 -5 36 -11.5zM201 88l3 -4q-28 -16 -52 -35l-13 16q30 8 62 23z" />
  </g>

</svg>
