<?xml version="1.0" standalone="no"?>
<!DOCTYPE svg PUBLIC "-//W3C//DTD SVG 1.1//EN" "http://www.w3.org/Graphics/SVG/1.1/DTD/svg11.dtd" >
<svg xmlns="http://www.w3.org/2000/svg" xmlns:xlink="http://www.w3.org/1999/xlink" version="1.1" viewBox="0 -36 256 256">
  <g transform="matrix(1 0 0 -1 0 220)">
   <path fill="currentColor"
d="M84 218h-42q-10 0 -19 -2l-9 9h72l8 9l15 -14q-7 -4 -17 -12t-22 -21q6 -6 7.5 -10t-3.5 -12t-9.5 2.5t-12.5 20t-14 14.5l2 3q13 -6 26 -15zM94 160l7 11l16 -14q-12 -5 -34 -36l-3 2l13 30h-22v-114q0 -21 -18 -27q-5 15 -30 20v5q25 -3 29.5 -2t4.5 8v110h-20
q-10 0 -19 -2l-9 9h85zM106 175l-2 3q30 29 45 67l17 -11q-4 -2 -11 -11h38l8 8l15 -14q-12 -3 -31 -23h33l7 9l13 -10l-6 -8v-47l-13 -5v54h-85v-48l-14 -5q1 19 1 51q-8 -6 -15 -10zM192 216h-41q-10 -12 -20 -22h47zM160.5 166.5q6.5 9.5 9.5 20.5l17 -9q-3 -1 -9 -8
q16 -4 26.5 -8.5t8.5 -15.5t-12.5 0.5t-25.5 19.5q-9 -13 -36 -25l-1 4q16 12 22.5 21.5zM99 77l-3 3q33 31 44 63l17 -12q-4 -2 -14 -15h81l8 10l14 -12l-7 -8q-1 -60 -7.5 -75.5t-32.5 -22.5q-1 14 -32 19v5q23 -4 34.5 -3.5t17 9t6.5 71.5h-87q-19 -20 -39 -32zM116 78h3
q2 -24 -1.5 -32t-10.5 -9.5t-8 3.5t5.5 11.5t11.5 26.5zM137 82q15 -12 18 -21t-4 -15t-8 6.5t-8 27.5zM160 85l2 2q19 -12 22 -19t-2.5 -14t-8.5 4t-13 27zM188 92q22 -10 26.5 -17t0 -15t-9.5 3.5t-19 25.5z" />
  </g>

</svg>
