<?xml version="1.0" standalone="no"?>
<!DOCTYPE svg PUBLIC "-//W3C//DTD SVG 1.1//EN" "http://www.w3.org/Graphics/SVG/1.1/DTD/svg11.dtd" >
<svg xmlns="http://www.w3.org/2000/svg" xmlns:xlink="http://www.w3.org/1999/xlink" version="1.1" viewBox="0 -205 1024 1024">
  <g transform="matrix(1 0 0 -1 0 819)">
   <path fill="currentColor"
d="M362 360h282v132l80 -28q7 -6 2 -12q-6 -4 -32 -16v-76h200l36 56l62 -60q2 -4 8 -10q3 -12 -8 -12h-298v-178l4 -93q-1 -13 -22 -26q-18 -12 -36 -12l4 127v182h-210q-21 0 -56 -8l-16 34v0v0zM866 830l36 56l70 -64q3 -3 4 -6q3 -12 -6 -12h-500q-21 0 -68 -8l-16 34
h480v0v0zM588 976l10 12q71 -31 98 -52q24 -19 28 -38q4 -18 -4 -32q-7 -16 -28 -16t-26 22q-3 20 -18 44q-12 21 -60 60v0v0zM616 752q10 -6 8 -14q-1 -3 -10 -6q-15 -3 -24 -12q-9 -6 -44 -78q62 -25 86 -50q24 -24 22 -44q0 -19 -12 -28q-10 -9 -22 -6q-12 2 -18 14
q-3 12 -8 28q-6 14 -18 32q-11 18 -40 36q-50 -84 -136 -188l-12 10q58 95 98 182q39 83 60 152l70 -28v0v0zM866 750q18 -9 6 -20q-30 -6 -38 -18q-7 -12 -32 -56q90 -48 118 -78q27 -30 30 -54q3 -23 -8 -40q-13 -18 -28 -12q-15 3 -20 18q-4 15 -10 36q-6 20 -30 52
q-21 29 -66 56q-45 -81 -102 -144l-14 10q63 104 130 280l64 -30v0v0zM246 968l78 -30q7 -3 8 -6q9 -6 -2 -12l-32 -16v-258h56l36 46l56 -58q1 0 2 -6q0 -7 -8 -8h-142v-352l130 36l6 -18q-255 -90 -300 -108q-43 -18 -68 -39l-46 59l72 20v530l82 -30q2 -4 2 -8l-6 -6
l-26 -16v-458l102 26v712v0v0z" />
  </g>

</svg>
