<?xml version="1.0" standalone="no"?>
<!DOCTYPE svg PUBLIC "-//W3C//DTD SVG 1.1//EN" "http://www.w3.org/Graphics/SVG/1.1/DTD/svg11.dtd" >
<svg xmlns="http://www.w3.org/2000/svg" xmlns:xlink="http://www.w3.org/1999/xlink" version="1.1" viewBox="0 -205 1024 1024">
  <g transform="matrix(1 0 0 -1 0 819)">
   <path fill="currentColor"
d="M462 266h194v134l80 -26q3 -3 4 -8q1 -3 -34 -20v-80h108l26 32l60 -40q3 -3 4 -8q0 -12 -12 -12h-186v-95l4 -76q-3 -11 -18 -20q-16 -9 -40 -16l4 110v97h-122q-22 0 -58 -8l-14 36v0v0zM682 968l6 -4q3 -10 -14 -14q-18 -4 -26 -16q-7 -9 -40 -54h216l34 38
q62 -49 62 -56q0 -6 -32 -26v-174l4 -58q0 -16 -20 -28q-18 -10 -36 -10v42h-324v-22q0 -15 -18 -26q-15 -12 -36 -12l4 104v266l54 -38h62q24 57 34 114l70 -26v0v0zM512 632h324v98h-324v-98v0v0zM512 756h324v98h-324v-98v0v0zM378 504h222q23 45 38 96l78 -22
q15 -12 -6 -18q-21 -4 -30 -16q-7 -13 -20 -40h218l36 42l62 -48l6 -8q4 -12 -12 -12h-230q33 -46 72 -76q36 -30 78 -54q39 -24 124 -30v-18q-41 -1 -58 -8q-15 -7 -30 -28q-39 22 -72 50q-33 27 -66 60q-31 34 -76 104h-68q-55 -87 -122 -146q-66 -59 -152 -100l-6 14
q78 51 130 108q51 54 94 124h-126q-19 0 -68 -8l-16 34v0v0zM176 960l78 -34q17 -6 -4 -18l-26 -14v-640l76 18v468l78 -30q3 -2 4 -10q0 -4 -36 -20v-404l4 -76q0 -12 -14 -24q-15 -13 -36 -14v88q-132 -38 -174 -58q-42 -21 -62 -42l-44 50q26 15 28 34v514l74 -32
q7 -3 8 -8q-3 -5 -36 -22v-464l82 22v716v0v0z" />
  </g>

</svg>
