<?xml version="1.0" standalone="no"?>
<!DOCTYPE svg PUBLIC "-//W3C//DTD SVG 1.1//EN" "http://www.w3.org/Graphics/SVG/1.1/DTD/svg11.dtd" >
<svg xmlns="http://www.w3.org/2000/svg" xmlns:xlink="http://www.w3.org/1999/xlink" version="1.1" viewBox="0 -154 1024 1024">
  <g transform="matrix(1 0 0 -1 0 870)">
   <path fill="currentColor"
d="M75 909l13 13q101 -57 124 -108q18 -59 -16 -70q-15 -2 -19 23q-4 23 -22 57q-20 36 -80 85zM693 822l87 -36q14 -5 6 -11q-21 -8 -30 -21v-331l3 -71q0 -39 -52 -46q5 39 7 159v299q2 16 -30 46zM61 41l-32 39q41 36 86 71q30 23 49 28v358h-67q-16 2 -34 -13l-29 33
h116l29 37l46 -45q12 -12 -4 -16l-18 -9v-356q12 -8 24 -21q25 -26 55 -42q31 -17 106 -25q78 -7 290 5l2 -15q-59 -10 -59 -34q-234 5 -275 10q-40 4 -73 24q-32 17 -60 51q-28 32 -42 27q-16 -7 -45 -30q-30 -24 -65 -77zM884 921q-2 23 -26 46l8 11l88 -38q19 -8 7 -14
q-18 -5 -31 -16v-756q2 -69 -16 -89q-18 -21 -86 -37q-3 29 -26 41q-22 11 -87 31l4 16l42 -10q127 -36 123 46v769zM400 970l86 -32q6 -4 0 -8q-16 -2 -28 -16v-125q0 -38 -1 -73h124l29 40l64 -50q16 -12 -5 -11h-212q-4 -75 -15 -145q76 -69 115 -128q87 -138 71 -188
q-7 -21 -23 -18t-24 46q-6 43 -39 112q-30 61 -104 150q-7 -40 -16 -82q-38 -159 -162 -270l-8 13q102 118 133 273q26 116 30 237h-109q-24 1 -43 -12l-32 33h185v203q-1 27 -21 43z" />
  </g>

</svg>
