<?xml version="1.0" standalone="no"?>
<!DOCTYPE svg PUBLIC "-//W3C//DTD SVG 1.1//EN" "http://www.w3.org/Graphics/SVG/1.1/DTD/svg11.dtd" >
<svg xmlns="http://www.w3.org/2000/svg" xmlns:xlink="http://www.w3.org/1999/xlink" version="1.1" viewBox="0 -36 256 256">
  <g transform="matrix(1 0 0 -1 0 220)">
   <path fill="currentColor"
d="M48 105h27v23h-27v-23zM47 77h28v21h-27q0 -8 -1 -21zM70 28q5 0 5 6v36h-28q-1 -10 -8 -27t-29 -35l-2 2q14 16 20 33t7 44.5t-1 54.5l14 -7h26l7 8l12 -12l-6 -4v-98q-1 -16 -18 -21q0 11 -21 19v3q17 -2 22 -2zM180 133h25l6 8l13 -10l-6 -7v-86q-1 -13 6 -12h4
q4 1 5 11t1 29h5q0 -16 2 -25.5t7 -11.5q-4 -14 -16 -14h-10q-16 -1 -16 15v96h-25v-26q16 -7 20.5 -13.5t0 -16t-8 1t-12.5 24.5q0 -39 -9 -57t-29 -31l-2 2q16 16 22 35t6.5 45.5t-1.5 49.5zM65 154h127v14h-127v-14zM113 247q18 -4 24 -10.5t-3 -16.5h74l16 13l18 -20
h-171v-19h112l13 12l17 -19h-141l-7 -6l-13 11l6 5v16h-16q-10 0 -19 -2l-9 9h112q-2 14 -15 25zM52 157.5q0 5.5 -1 23.5l14 -6h126l7 9l14 -11l-7 -6q0 -12 1 -22l-14 -6v8h-127v-4l-14 -4q1 13 1 18.5zM107 129q6 3 10 11l7 -8v7l-1 8l17 -8l-5 -5v-48h15v15q-4 0 -9 -2
l-7 9h16v14h-5l-7 -1l-4 8h15l7 7l9 -10l-4 -3v-22q0 -12 1 -22l-12 -4v4h-15v-11h6l6 6l11 -10l-7 -4q-5 -11 -11 -18q10 -6 12 -9t-2 -10t-8 0t-10 11q-21 -17 -42 -23l-1 3q26 15 35 26q-8 7 -20 13l2 3q12 -3 24 -9q7 7 9 14h-18q-10 0 -19 -2l-10 9h32v11h-17v-3
l-12 -4q1 9 1 16v30q0 6 -1 16zM107 108h3l6 6l8 -10v25q-4 -1 -17 -6v-15zM107 101v-15h17v15h-17z" />
  </g>

</svg>
