<?xml version="1.0" standalone="no"?>
<!DOCTYPE svg PUBLIC "-//W3C//DTD SVG 1.1//EN" "http://www.w3.org/Graphics/SVG/1.1/DTD/svg11.dtd" >
<svg xmlns="http://www.w3.org/2000/svg" xmlns:xlink="http://www.w3.org/1999/xlink" version="1.1" viewBox="0 -144 1024 1024">
  <g transform="matrix(1 0 0 -1 0 880)">
   <path fill="currentColor"
d="M389 723l54 -36l10 -17l-21 -1l-34 -53l-50 -69l-23 -26l26 -5l16 -11l-16 -9v-425l-65 -32v438l-24 -26l-32 -30l-34 -28l-35 -27l-7 7l81 102l49 68l45 68l39 71l18 35zM810 332l5 6h1l26 21l59 -48l-26 -16l-17 -7l-19 -28l-35 -40l-39 -37l-11 -9l11 -7l36 -15
l38 -14l43 -11l95 -18l-63 -60l-50 13l-46 16l-42 19l-39 23l-28 22l-32 -20l-48 -25l-52 -21l-55 -16l-59 -12l-61 -7l-2 9l58 18l55 19l50 22l47 24l43 27l20 15l-24 30l-20 34l-15 37l-3 11l-13 -15l-23 -23l-25 -21l-27 -20l-27 -19l-29 -15l-31 -14l-6 9l49 43l43 45
l38 47l16 25l15 25l25 48l5 11l55 -34l9 -18l-21 -1l-6 -10l-11 -18h163zM156 887v-318v-1l-3 -68l-6 -67l-7 -62l-9 -59l-12 -54l-13 -51l-15 -47l-17 -43l-20 -38l-23 -33l-8 5l12 37l12 40l10 42l10 46l8 50l6 53l5 57l4 61l1 65l1 68v370l64 -32h334v86l64 -11l16 -10
l-16 -10v-55h296l54 54l64 -54v-21h-812zM798 311h-167l-7 -9l10 -16l22 -29l23 -27l26 -23l3 -3l20 19l33 35l28 38zM573 876l60 -26l12 -16l-20 -4l-19 -45l-11 -20h269l44 49l54 -49v-21h-379l-11 -18l-19 -28l-9 -11l45 -22h226l32 26l59 -48l-27 -21v-217l-64 -32v43
h-226v-16l-64 -32v296l-15 -17l-24 -23l-26 -21l-28 -19l-6 7l57 78l32 54l14 27l12 29l12 29l9 29l9 31zM815 533h-226v-95h226v95zM815 643h-226v-89h226v89zM375 878l48 -43l6 -18l-21 2l-24 -25l-42 -41l-72 -58l-26 -19l-28 -18l-29 -17l-6 8l106 117l37 44l33 43
l15 22z" />
  </g>

</svg>
