<?xml version="1.0" standalone="no"?>
<!DOCTYPE svg PUBLIC "-//W3C//DTD SVG 1.1//EN" "http://www.w3.org/Graphics/SVG/1.1/DTD/svg11.dtd" >
<svg xmlns="http://www.w3.org/2000/svg" xmlns:xlink="http://www.w3.org/1999/xlink" version="1.1" viewBox="0 -200 999 1000">
  <g transform="matrix(1 0 0 -1 0 800)">
   <path fill="currentColor"
d="M371 200l-36 47l144 37q-1 16 -2.5 45t-5.5 67q11 -5 19.5 -9.5t22.5 -9.5l42 89h-135l-38 -11l-17 33h190l31 39l55 -78q-24 -3 -54 -22t-62 -57l19 -17l-20 -56l112 25l8 -8l-120 -49q3 -26 5 -53.5t2 -55.5q0 -75 -23.5 -112.5t-68.5 -44.5q-2 12 -4.5 21t-9.5 17.5
t-20 16t-37 15.5l7 12q21 -8 35 -11t26 -3q18 0 28 8.5t15 21t6.5 27.5t1.5 28v17q0 18 -1 36.5t-3 40.5q-26 -6 -55 -19t-57 -27zM548 740h-105l-6 -11v-141h111v152zM354 837l-19 33h134v36l-10 96l73 -35l-16 -64v-33h50l42 37l60 -60h-260zM594 715v-147h-157v-30
q-13 -8 -24.5 -14.5t-21.5 -12.5v283l50 -33h100l32 36l55 -50zM648 505q11 21 24 52t21 60q4 -100 15.5 -182t36.5 -158q-22 -66 -58.5 -139.5t-85.5 -136.5l6 -3q28 20 51.5 46.5t43.5 56.5t35.5 60.5t27.5 59.5q21 -51 41.5 -99t61.5 -93q23 17 43 21.5t43 9.5l1 11
q-30 12 -57 36.5t-48.5 53.5t-38 58.5t-25.5 52.5q15 40 26 83t19.5 92.5t13.5 108t8 130.5h78l-54 60l-39 -39h-117q10 51 17 101.5t20 104.5l21 42l-61 47q-2 -42 -8.5 -98.5t-17.5 -121.5t-25 -135.5t-31 -141.5h12zM714 686h89v-46q0 -106 -12.5 -185t-30.5 -136
q-10 44 -18.5 81.5t-15 75.5t-12 80.5t-9.5 96.5zM264 483q7 -18 14 -39.5t10 -32.5q-23 -4 -58.5 -9t-64.5 -7q19 40 36.5 76.5t35 73.5t35.5 77t38 88l30 31l-44 72l-55 -160q-23 -3 -49 -6.5t-46 -3.5q36 78 59.5 137.5t43.5 107.5l32 46l-59 68q-5 -47 -16 -97t-25 -98
t-29 -91.5t-28 -75.5l-65 -4l36 -60q7 6 22 14t34 17t41 17.5t44 16.5q-8 -25 -20 -58.5t-25 -68.5t-25.5 -68t-21.5 -55l-85 -15l38 -67q8 7 29 19.5t48.5 26t58 25t58.5 16.5q4 -14 4 -29.5t0.5 -29.5t3 -23t10.5 -9q14 0 23 16t9 38q0 35 -17.5 65t-50.5 64zM117 227
q0 -22 -3 -39.5t-9 -33.5t-14.5 -32t-19.5 -34q-8 -17 -14.5 -31.5t-6.5 -25.5q0 -15 10 -25h4q17 0 29.5 15t21 38t12.5 51.5t4 55.5q0 13 -0.5 29.5t-0.5 34.5zM197 245q1 -8 1.5 -15.5t0.5 -15.5q0 -11 -0.5 -20.5t-0.5 -17.5q0 -20 -7.5 -47.5t-7.5 -56.5q0 -14 3 -23.5
t12 -9.5q14 6 24.5 23.5t10.5 52.5q0 10 -2.5 26.5t-6 35t-8.5 38t-10 34.5zM277 262q11 -46 11 -76q0 -14 -0.5 -29t-2.5 -29v-11q0 -17 4 -23.5t10 -6.5q11 0 21.5 21t10.5 51q0 26 -13 56t-30 54z" />
  </g>

</svg>
