<?xml version="1.0" standalone="no"?>
<!DOCTYPE svg PUBLIC "-//W3C//DTD SVG 1.1//EN" "http://www.w3.org/Graphics/SVG/1.1/DTD/svg11.dtd" >
<svg xmlns="http://www.w3.org/2000/svg" xmlns:xlink="http://www.w3.org/1999/xlink" version="1.1" viewBox="0 -205 1024 1024">
  <g transform="matrix(1 0 0 -1 0 819)">
   <path fill="currentColor"
d="M740 780q8 -3 8 -6q4 -9 -34 -24v-44h124l24 36l54 -34q7 -4 8 -10q0 -6 -30 -30v-82h20l36 42q51 -48 54 -56q2 -8 -10 -10h-100v-52l4 -76q0 -15 -20 -24q-20 -6 -34 -6v34h-94q21 -79 54 -148q51 42 96 96q50 -38 52 -46q3 -7 0 -10t-18 0q-12 1 -48 -16
q-33 -18 -72 -42q28 -42 50 -66q21 -25 54 -40q33 -16 78 -22v-17q-39 -4 -50 -8q-9 -2 -42 -22q-42 35 -84 93q-39 57 -60 114q-19 56 -32 134h-14v-323q4 -52 -22 -72t-58 -32q-6 30 -26 44q-22 13 -82 32l4 18q32 -8 68 -16q36 -6 52 -4q16 4 14 40v145
q-102 -72 -132 -96q-29 -23 -52 -49l-48 39l232 132v142h-98q-25 0 -52 -6l-20 30h170v100h-106q-21 0 -68 -8l-16 32h190v96h-102q-21 0 -48 -8l-20 32h170v98l76 -24v0v0zM714 682v-96h130v96h-130v0v0zM714 562v-100h130v100h-130v0v0zM478 390l8 10q51 -15 78 -30
q24 -12 36 -30q9 -18 4 -38q-7 -18 -26 -20q-19 -1 -26 22q-5 21 -22 40q-17 18 -52 46v0v0zM880 844l38 48l60 -60l2 -4q0 -9 -8 -8h-518v-212q-7 -238 -40 -364q-30 -126 -132 -225l-12 12q75 103 100 217q24 114 36 336v290l58 -30h416v0v0zM584 976l6 12q65 -20 92 -34
q24 -13 36 -34q13 -21 2 -38q-9 -18 -26 -18q-17 -1 -22 16q-5 15 -22 40q-15 25 -66 56v0v0zM24 748h168v228l64 -30q22 -8 12 -22l-28 -14v-162h56l30 40l50 -48q3 -3 4 -8q0 -12 -14 -12h-126v-96q60 -34 88 -58q27 -23 34 -46q7 -22 0 -40q-9 -19 -26 -20q-18 0 -24 24
q-4 24 -22 54q-16 29 -50 62v-426l4 -107q0 -14 -18 -26t-38 -12l4 147v360q-31 -84 -70 -164q-39 -79 -90 -136l-10 10q35 56 62 122q25 66 56 156t50 196h-102q-1 0 -44 -8l-20 36v0v0z" />
  </g>

</svg>
