<?xml version="1.0" standalone="no"?>
<!DOCTYPE svg PUBLIC "-//W3C//DTD SVG 1.1//EN" "http://www.w3.org/Graphics/SVG/1.1/DTD/svg11.dtd" >
<svg xmlns="http://www.w3.org/2000/svg" xmlns:xlink="http://www.w3.org/1999/xlink" version="1.1" viewBox="0 -52 256 256">
  <g transform="matrix(1 0 0 -1 0 204)">
   <path fill="currentColor"
d="M191 104l1 3q41 -15 41 -35q-1 -5 -5 -5q-3 1 -6 7q-1 5 -6 9l-28 -2h-7q-5 -1 -8 -1q2 -42 0 -50q0 -8 -4 -12q-3 -5 -18 -9q0 7 -5 10q-2 0 -6 2q-7 2 -12 3l1 5l7 -2q29 -9 28 11v42q-3 0 -9 -1q-34 -2 -39 -3q-6 -1 -10 -6l-5 15q8 -1 17 3q4 2 11 7q10 5 27 15l1 1
l-10 -1q-5 0 -12 -1q-10 0 -12 -1q-6 0 -9 -4l-6 13q7 0 17 6q9 6 16 13q4 3 7 7l1 1q1 1 0 5q1 -3 -1 1l2 2l15 -10q3 -3 -2 -2q-4 0 -9 -3q-15 -12 -30 -22l42 1q4 2 9 7q4 2 5 3q11 7 6 13l2 2l18 -13q2 -2 0 -2q-8 0 -14 -4q-33 -22 -69 -37l89 3q-1 1 -3 2q-4 5 -18 14
zM117 250l20 -8q3 -1 2 -3q-6 -2 -7 -5v-15h17l7 8l14 -10q4 -3 -2 -2h-36v-20h16l7 8l14 -10q4 -3 -2 -2h-35v-23h18l7 8l14 -9q2 -2 1 -2q0 -1 -3 -1h-37v-4v-14q0 -9 -12 -11q2 8 2 29h-19q-6 0 -11 -3l-8 7h38v3v20h-12q-6 0 -10 -4l-8 8h30v20h-19q-6 0 -11 -5l-8 9h38
v18q0 4 -7 10zM240 219v-30q5 -42 -28 -47q-1 7 -10 11q-5 1 -7 3v4q17 -4 25 -2q10 3 10 26v37h-26q-1 -7 -3 -20q-1 -6 -2 -9q-4 -18 -9 -26q-5 -9 -20 -21l-3 2q14 15 17 24q3 8 6 21q3 12 3 29h-8q-5 1 -9 -3l-9 8h59l8 10l9 -9q2 -1 2 -3q0 -1 -2 -2zM124 70l15 -11
l2 -2q-1 -1 -2 -1q-5 0 -11 -5q-4 -5 -18 -13q-13 -10 -32 -19l-2 4q8 5 22 16q7 4 11 7q15 13 14 16q0 5 -1 6zM189 63l1 3q34 -12 47 -26q9 -15 -1 -18q-3 0 -7 7q-3 6 -12 13q-8 9 -28 21zM18 160h44l6 8l15 -10q2 -1 2 -2q-1 -1 -3 -1h-30v-42h17l6 8l15 -11q4 -2 -1 -2
h-37v-64q26 18 38 26l3 -3q-11 -9 -30 -24q-8 -6 -10 -7q-1 -2 -4 -9q3 5 -2 -2l-14 11l1 1q6 3 8 7v64h-17q-7 0 -11 -4l-9 9h37v42h-5q-6 0 -11 -3zM58 244l1 -1q0 -1 -2 -2q-3 1 -6 -5q-5 -17 -11 -31h31l6 8l14 -10q2 -2 1 -2q0 -1 -3 -1h-51q-1 -2 -3 -7q-2 -4 -3 -7
q-10 -21 -28 -43l-2 3q15 24 22 41t13 35q6 15 6 22q0 2 -3 4l2 2z" />
  </g>

</svg>
