<?xml version="1.0" standalone="no"?>
<!DOCTYPE svg PUBLIC "-//W3C//DTD SVG 1.1//EN" "http://www.w3.org/Graphics/SVG/1.1/DTD/svg11.dtd" >
<svg xmlns="http://www.w3.org/2000/svg" xmlns:xlink="http://www.w3.org/1999/xlink" version="1.1" viewBox="0 -200 1000 1000">
  <g transform="matrix(1 0 0 -1 0 800)">
   <path fill="currentColor"
d="M394 679h462l38 37l51 -34q13 -8 8 -23q-5 -10 -19 -10h-297q17 -6 12 -14q-5 -7 -22 -8v-502v-12q1 -13 -2 -18q-4 -8 -20 -14t-20 1q-3 4 -2 20l1 6v129l-222 -78q-2 -31 -9 -36q-8 -5 -22 24l-20 49l102 25v428h-16l-39 -2l-12 35zM453 542h131v107h-111q10 -5 0 -12
q-6 -4 -20 -9v-86zM453 516v-119h131v119h-131zM453 370v-137l131 32v105h-131zM721 568h117l29 36l36 -36q15 -19 12 -28q-3 -14 -30 -15q-13 -67 -37 -139t-56 -139q26 -39 61 -70q37 -30 82 -52l1 -19q-22 -6 -33 -15q-11 -8 -18 -28q-37 35 -64 70q-27 36 -49 77
q-27 -46 -58 -85q-31 -40 -65 -73l-6 15q33 38 61 84q30 42 47 89q-28 60 -46 133q-18 75 -26 162l-28 -2l-9 39zM733 537l-21 -2q5 -72 25 -141q19 -67 37 -117q25 64 45 135q16 66 28 125h-114zM417 850h187v77l-5 46l62 -16q40 -9 28 -18q-7 -6 -38 -13v-76h205l38 31
l50 -36q29 -20 19 -27q-7 -4 -49 -4l-98 -82l-11 5l62 85h-451q-4 -23 -13 -50q-11 -30 -32 -60q-19 -18 -29 -16q-13 3 -17 40q-1 7 4 15q3 5 14 16q25 27 36 49q19 37 17 85h16zM131 927q55 -24 84 -45q29 -22 35 -45q4 -23 -10 -32t-28 17q-14 19 -35 42q-23 25 -52 52z
M72 719q58 -26 78 -40q29 -21 35 -51q1 -28 -12 -32q-13 -5 -27 18q-12 22 -32 45q-17 19 -49 49zM345 872q-65 -216 -96 -322q-46 -156 -60 -214q-5 -25 -1 -66q5 -44 19 -82q10 -32 6 -59q-4 -37 -35 -41q-18 0 -25 18q-7 15 -7 45l4 35q4 30 5 47q1 29 -1 64
q-3 17 -23 31q-23 17 -76 37l2 9q14 -3 34 -5q17 -2 29 -2q13 0 21 7q10 7 20 28q10 22 40 106q19 53 72 202l59 165z" />
  </g>

</svg>
