<?xml version="1.0" standalone="no"?>
<!DOCTYPE svg PUBLIC "-//W3C//DTD SVG 1.1//EN" "http://www.w3.org/Graphics/SVG/1.1/DTD/svg11.dtd" >
<svg xmlns="http://www.w3.org/2000/svg" xmlns:xlink="http://www.w3.org/1999/xlink" version="1.1" viewBox="0 -205 1048 1024">
  <g transform="matrix(1 0 0 -1 0 819)">
   <path fill="currentColor"
d="M961 860l-10 -15h-866v21h430v60l-5 43l44 -9q45 -10 45 -20t-40 -27v-47h302l23 32q10 14 14 14q3 0 21 -14zM412 777q15 -11 15 -20q0 -6 -10.5 -11.5t-19.5 -19.5v-302q0 -30 -2 -39q-6 -18 -24 -31l-25 -10q-16 -7 -22 -7q-7 0 -10 16t-23 21l-28 12l4 11l32 1
q12 -1 20 -1q33 0 33 32v121h-146q-16 -154 -64 -242l-12 6q33 133 33 236v199l-5 58l59 -27h129l15 18q5 9 11 9t14 -9zM352 672v88h-144v-88h144zM352 576v71h-144q0 -27 -2 -71h146zM979 115q-28 9 -47 -7q-5 -4 -10 -16q-4 -9 -12 -9q-14 0 -59 21q-250 118 -347 280
q-32 -26 -114 -86v-143l246 43l2 -16q-222 -57 -405 -96q-5 -37 -20 -37q-14 0 -22 25l-12 44q82 14 166 29v122q-48 -34 -134 -71q-77 -32 -134 -47l-7 16q113 38 229 116q120 82 172 161l45 -29q24 -14 24 -22q0 -6 -12 -9q41 -62 139 -129q50 48 155 114l37 -27
q12 -14 12 -23q0 -11 -18 -11q-10 0 -22 3q-63 -17 -146 -70q103 -72 294 -109v-17zM897 690q4 -35 -11 -35q-9 0 -25 19q-27 39 -116 142l5 10q86 -59 105 -76q34 -29 42 -60zM956 581l-4 -10q-12 0 -40 -10q-11 -9 -15 -9q-6 0 -25 12q-124 86 -181 171q-74 -81 -143 -140
t-105 -71l-11 12q124 87 239 254l37 -23q20 -12 20 -20q0 -7 -18 -11q83 -93 246 -155zM613 804q16 -10 16 -18q0 -11 -33 -14q-61 -81 -172 -144l-5 14q104 75 161 183zM838 579q10 -8 10 -15q0 -9 -21 -13v-125q0 -38 1 -36q-2 -7 -24 -17q-10 -2 -14 -2q-5 0 -6 3.5
t-1 13.5q1 18 1 26h-178q-2 -41 -2 -42q-3 -8 -23 -18q-9 -3 -12 -3q-5 0 -6 5t-1 19q1 25 1 37v147l-4 40l50 -17h164l13 17q9 12 11 12q3 0 15 -10zM784 434v128h-178v-128h178z" />
  </g>

</svg>
