<?xml version="1.0" standalone="no"?>
<!DOCTYPE svg PUBLIC "-//W3C//DTD SVG 1.1//EN" "http://www.w3.org/Graphics/SVG/1.1/DTD/svg11.dtd" >
<svg xmlns="http://www.w3.org/2000/svg" xmlns:xlink="http://www.w3.org/1999/xlink" version="1.1" viewBox="0 -36 256 256">
  <g transform="matrix(1 0 0 -1 0 220)">
   <path fill="currentColor"
d="M161 230l-36 -23l77 1q-10 10 -22 19l2 3q32 -15 38.5 -24t2 -16.5t-7.5 -2t-10 15.5q-77 -4 -93 -12l-6 16q10 2 25 14.5t22 26.5l19 -15zM138 158q-3 8 -7 14l2 2q14 -9 17 -15t-0.5 -11.5t-5.5 -2.5t-4 9q-32 -6 -38 -14l-9 16q8 3 17 16.5t11 21.5l15 -13
q-9 -1 -31 -26zM165 138q33 -32 79 -32v-3q-15 -2 -16 -12q-41 9 -66 44q-37 -34 -82 -47l-1 4q26 10 49.5 29t29.5 35l15 -14zM166 100q-35 -24 -60 -30l-1 4q20 10 37 23.5t21 21.5l15 -16zM189 76q-45 -29 -82 -34v4q20 7 45.5 21.5t33.5 27.5l15 -17zM209 51
q-61 -32 -120 -40v4q32 7 70 24t51 32l15 -18zM215 159q-4 8 -10 14l2 3q14 -8 20.5 -15t4.5 -13t-5 -8t-4.5 3t-5.5 12q-28 -5 -38 -13l-9 16q7 4 14 16t9 21l16 -12q-10 -3 -30 -27zM71 229l-7 -7v-62q18 23 22 38l18 -13q-9 -3 -17.5 -11t-22.5 -21q0 -24 -3 -59
q22 -11 31.5 -21.5t7 -20.5t-6.5 -9t-9 13.5t-24 32.5q-10 -52 -50 -78l-2 3q28 32 35.5 62.5t7 71t-1.5 93.5zM31 145.5q-2 -9.5 -9 -12.5t-10.5 0.5t2.5 13.5t10 37h5q4 -29 2 -38.5z" />
  </g>

</svg>
