<?xml version="1.0" standalone="no"?>
<!DOCTYPE svg PUBLIC "-//W3C//DTD SVG 1.1//EN" "http://www.w3.org/Graphics/SVG/1.1/DTD/svg11.dtd" >
<svg xmlns="http://www.w3.org/2000/svg" xmlns:xlink="http://www.w3.org/1999/xlink" version="1.1" viewBox="0 -205 1024 1024">
  <g transform="matrix(1 0 0 -1 0 819)">
   <path fill="currentColor"
d="M556 986l80 -26q12 -7 0 -14l-32 -12v-136h88v184l76 -28q9 -9 -2 -14l-26 -8v-134h26q50 66 88 148l60 -32q8 -6 2 -12l-14 -6q-21 -3 -48 -32q-25 -30 -56 -66h72l36 34l50 -42q10 -16 -6 -16h-544q-21 0 -44 -8l-16 32h210v188v0v0zM452 154l110 28v76h-110v-104v0v0z
M452 284h110v76h-110v-76v0v0zM452 386h110v78h-110v-78v0v0zM300 488h326v68h-154q-21 -3 -42 -8l-20 32h216v66h-212q-30 -4 -42 -10l-20 34h368q21 45 46 90l58 -26q3 -8 -2 -10l-12 -4q-7 -1 -22 -10q-15 -10 -42 -40h108l34 34l56 -44q7 -6 0 -14h-268v-66h124l36 34
l52 -40q6 -9 -2 -18h-210v-68h230l38 40l56 -44q3 -3 4 -12q0 -9 -12 -8h-384v-272l108 24l6 -16l-114 -32v-67l4 -50q0 -11 -20 -26q-20 -13 -34 -14l4 86v61q-141 -43 -170 -61q-30 -17 -50 -38l-42 60l106 29v316h-38q-20 0 -52 -8l-16 32v0v0zM380 932l8 12
q59 -28 82 -44q21 -15 28 -36q5 -20 -4 -34q-10 -15 -26 -14q-15 1 -24 26q-6 24 -20 42q-12 18 -44 48v0v0zM484 756l6 10q40 -10 62 -26q21 -15 24 -30q0 -16 -8 -26q-7 -8 -22 -6q-12 0 -18 16q-3 15 -12 30q-9 13 -32 32v0v0zM624 25q60 46 94 82q32 36 52 69
q-60 99 -80 180h-22l-16 -4l-20 30h226l28 34l46 -40q10 -3 8 -14q0 -3 -12 -8q-10 0 -22 -12q-33 -84 -90 -164q32 -35 62 -57q29 -23 56 -34q24 -11 76 -26v-14q-27 3 -48 -4q-19 -6 -32 -22q-43 31 -70 58q-27 28 -66 65l-28 -31q-60 -60 -134 -100l-8 12v0v0zM710 356
q27 -75 82 -150q44 69 74 150h-156v0v0zM170 970l88 -32q12 -7 -6 -16l-34 -14v-250q44 53 92 134q55 -42 56 -50q1 -7 -4 -8q-3 -1 -18 -2q-12 -1 -42 -28q-28 -27 -86 -78q3 -163 -6 -242q43 -30 74 -60q29 -29 40 -58q11 -30 8 -48q-3 -19 -12 -28t-24 -6t-24 46
q-6 39 -18 66q-10 24 -46 66q-12 -99 -54 -180q-39 -78 -122 -155l-10 10q53 68 86 137t48 144q16 75 14 298v354v0v0zM110 708q11 -97 8 -142t-24 -68q-20 -22 -40 -20q-18 3 -24 18q-4 14 14 34t30 50q11 31 20 128h16v0v0z" />
  </g>

</svg>
