<?xml version="1.0" standalone="no"?>
<!DOCTYPE svg PUBLIC "-//W3C//DTD SVG 1.1//EN" "http://www.w3.org/Graphics/SVG/1.1/DTD/svg11.dtd" >
<svg xmlns="http://www.w3.org/2000/svg" xmlns:xlink="http://www.w3.org/1999/xlink" version="1.1" viewBox="0 -36 256 256">
  <g transform="matrix(1 0 0 -1 0 220)">
   <path fill="currentColor"
d="M97 138l-3 2q35 45 48 105l22 -12l-8 -4q-10 -21 -17 -35h82l9 10l15 -14l-9 -8q-3 -122 -4.5 -132.5t-4.5 -16.5t-9 -12t-24 -11q-2 14 -32 23v4q31 -6 38 -6t11 5t6.5 17t4.5 134h-85q-19 -30 -40 -49zM105 78l1 -5q-74 -31 -83 -43l-13 18q13 3 40 12v90h-10
q-10 0 -19 -2l-10 9h39v46q0 14 -1 35l23 -12l-8 -7v-62h11l11 11l16 -18h-38v-86zM158 79q-21 -20 -57 -34l-1 4q32 18 50 39q-17 29 -24 59h-2l-6 -2l-6 9h68l8 10l15 -14l-9 -7q-12 -29 -28 -55q19 -18 49 -27v-4q-12 1 -21 -9q-19 12 -36 31zM132 147q8 -28 25 -49
q10 16 23 49h-48z" />
  </g>

</svg>
