<?xml version="1.0" standalone="no"?>
<!DOCTYPE svg PUBLIC "-//W3C//DTD SVG 1.1//EN" "http://www.w3.org/Graphics/SVG/1.1/DTD/svg11.dtd" >
<svg xmlns="http://www.w3.org/2000/svg" xmlns:xlink="http://www.w3.org/1999/xlink" version="1.1" viewBox="0 -36 256 256">
  <g transform="matrix(1 0 0 -1 0 220)">
   <path fill="currentColor"
d="M61 217l15 -10h66q-1 7 -4.5 16t-12.5 21l2 2q19 -11 25.5 -20.5t-3.5 -18.5h60l14 13l17 -20h-164q0 -45 -1 -76t-12 -60t-42 -55l-3 4q38 38 44 108q-28 -20 -37 -34l-13 15q17 5 50 24q0 67 -1 91zM44.5 168.5q5.5 -8.5 -2 -17t-10 6.5t-11.5 29l2 3
q16 -13 21.5 -21.5zM151 198l20 -9l-6 -7v-44h42q0 31 -1 41l20 -9l-6 -6v-14q0 -14 1 -22l-14 -4v7h-42v-31h-13v31h-39l-7 -6l-12 10l6 5q0 29 -1 40l20 -9l-6 -5v-28h39q0 43 -1 60zM156 54q22 14 41 42h-82q20 -27 41 -42zM200 103l10 8l12 -15l-10 -3q-21 -29 -45 -47
q14 -9 36.5 -15t41.5 -6v-4q-20 -2 -24 -12q-31 7 -67 29q-34 -25 -91 -30l-1 4q59 14 82 35q-15 14 -35 49q-3 0 -14 -3l-8 10h113z" />
  </g>

</svg>
