<?xml version="1.0" standalone="no"?>
<!DOCTYPE svg PUBLIC "-//W3C//DTD SVG 1.1//EN" "http://www.w3.org/Graphics/SVG/1.1/DTD/svg11.dtd" >
<svg xmlns="http://www.w3.org/2000/svg" xmlns:xlink="http://www.w3.org/1999/xlink" version="1.1" viewBox="0 -154 1024 1024">
  <g transform="matrix(1 0 0 -1 0 870)">
   <path fill="currentColor"
d="M641 640q-21 1 -43 -14l-39 34h157l89 162h-138q-21 -43 -36 -67q-33 -50 -91 -111l-12 8q48 65 72 113q24 47 52 113q26 66 20 78q-6 11 -15 26l8 6l91 -35q4 -9 -5 -8q-20 0 -38 -21l-36 -82h118l40 37l57 -56q3 -12 -10 -7q-20 -3 -29 -12q-12 -10 -40 -49
q-26 -36 -68 -95h98l42 37l44 -45q13 -13 -5 -16l-22 -8v-118h27l26 29l56 -42q11 -10 -10 -7h-99v-76l4 -101q-2 -18 -14 -24q-12 -7 -31 -7v50h-110v-213q-2 -30 -17 -50q-15 -18 -64 -33q-3 21 -27 32q-25 10 -81 22l4 14l36 -4q67 -12 85 -4q18 9 23 51v185h-71
q-29 0 -50 -13l-38 33h159v138h-95q-30 0 -50 -13l-38 33h183v130h-69zM283 96q-122 -23 -143 -31q-32 -9 -41 -24l-43 50l219 31v184h-61q-27 0 -45 -13l-18 16q-45 -54 -115 -112l-8 13q104 105 143 198q16 38 28 71h-83q-27 0 -45 -13l-34 33h168l2 4q12 38 18 68
q3 26 11 68h-74q-27 0 -45 -13l-34 33h156l16 124h-123q-27 0 -45 -13l-34 33h268l34 47q45 65 44 80q-3 15 -10 31l8 7l68 -36q16 -12 7 -15q-22 0 -30 -8q-53 -61 -95 -106h63l32 40l68 -50q15 -10 -6 -10h-202q-9 -70 -18 -124h94l32 40l68 -50q15 -10 -6 -10h-191
q-6 -33 -10 -58q-8 -38 -20 -78l-2 -4h165l32 40l68 -50q15 -10 -6 -10h-266q-12 -36 -30 -75q-10 -22 -25 -46l-12 -18l-10 -14h205l32 40l68 -50q15 -10 -6 -10h-149v-179l178 25l1 -16zM751 490v-138h110v138h-110zM861 640h-110v-130h110v130zM150 965q39 -21 62 -41
q22 -21 31 -44q9 -24 4 -40q-5 -18 -23 -16q-18 0 -20 28q-3 27 -18 52q-16 24 -46 51z" />
  </g>

</svg>
