<?xml version="1.0" standalone="no"?>
<!DOCTYPE svg PUBLIC "-//W3C//DTD SVG 1.1//EN" "http://www.w3.org/Graphics/SVG/1.1/DTD/svg11.dtd" >
<svg xmlns="http://www.w3.org/2000/svg" xmlns:xlink="http://www.w3.org/1999/xlink" version="1.1" viewBox="0 -36 256 256">
  <g transform="matrix(1 0 0 -1 0 220)">
   <path fill="currentColor"
d="M58 16l-14 -7q1 46 1 117q-11 -35 -35 -67l-2 3q26 49 35 114h-5q-10 0 -19 -2l-9 9h35q0 29 -1 63l21 -10l-8 -7v-46h8l10 12l14 -19h-32v-27q17 -11 24.5 -19.5t3 -20.5t-10 3t-17.5 31q0 -107 1 -127zM104 123h42v51h-42v-51zM84 56.5q9 31.5 8.5 78.5t-2.5 84l14 -5
v-33h42l7 10l14 -12l-8 -7q0 -46 1 -59l-14 -7v10h-42q-1 -67 -37 -109l-3 3q11 15 20 46.5zM183 123h42v51h-42v-51zM160.5 55q9.5 29 9.5 53t0.5 48.5t-1.5 62.5l14 -8v-30h42l7 10l14 -12l-8 -7q0 -46 1 -62l-14 -7v13h-42q-1 -67 -41 -109l-4 3q13 16 22.5 45zM165 225
h-11q-9 -5 -54 -14l-1 4q34 9 52 28zM245 221l-12 -1q-10 -3 -34.5 -7.5t-27.5 -4.5l10 5q30 10 52 26z" />
  </g>

</svg>
