<?xml version="1.0" standalone="no"?>
<!DOCTYPE svg PUBLIC "-//W3C//DTD SVG 1.1//EN" "http://www.w3.org/Graphics/SVG/1.1/DTD/svg11.dtd" >
<svg xmlns="http://www.w3.org/2000/svg" xmlns:xlink="http://www.w3.org/1999/xlink" version="1.1" viewBox="0 -36 256 256">
  <g transform="matrix(1 0 0 -1 0 220)">
   <path fill="currentColor"
d="M25.5 117.5q0.5 55.5 -0.5 104.5l14 -8h37q-1 18 -12 31l2 2q19 -10 23 -17t-5 -16h26l11 10l14 -17h-35v-28h15l7 8l12 -11l-6 -5q0 -35 1 -43l-13 -5v6h-78q0 -71 -28 -111l-3 2q18 42 18.5 97.5zM39 179h18v28h-18v-28zM69 179h19v28h-19v-28zM39 136h18v36h-18v-36z
M69 136h19v36h-19v-36zM100 136h16v36h-16v-36zM46 125l21 -9l-8 -6v-22h6l9 8l13 -15h-28v-40l25 14l2 -3q-24 -18 -32 -32l-10 13q3 6 3 12q0 66 -1 80zM90 126l23 -10l-9 -6v-23h7l9 9l13 -16h-29v-37l29 17l2 -3q-27 -22 -35 -37l-13 14q4 3 4 15q0 67 -1 77zM204 33
v105h-28q-1 -55 -12.5 -81t-40.5 -49l-2 3q30 34 36 63t6 64h-6q-10 0 -19 -2l-9 9h91h4l11 11l14 -18h-32v-103q1 -10 1 -19l-15 -7q1 13 1 24zM211 212l12 12l17 -19h-69q-21 0 -24 -2l-8 9h72z" />
  </g>

</svg>
