<?xml version="1.0" standalone="no"?>
<!DOCTYPE svg PUBLIC "-//W3C//DTD SVG 1.1//EN" "http://www.w3.org/Graphics/SVG/1.1/DTD/svg11.dtd" >
<svg xmlns="http://www.w3.org/2000/svg" xmlns:xlink="http://www.w3.org/1999/xlink" version="1.1" viewBox="0 -36 256 256">
  <g transform="matrix(1 0 0 -1 0 220)">
   <path fill="currentColor"
d="M213 232l13 10l15 -17h-105q-10 0 -19 -3l-9 10h105zM127 182q0 19 -1 35l14 -10h68l8 11l14 -14l-7 -4v-23q0 -17 1 -29l-14 -5v4h-71v-2l-13 -5q1 23 1 42zM218 132l12 13l17 -20h-113q-10 0 -19 -2l-9 9h112zM224 44l-14 -7v8h-72v-4l-13 -5q1 27 1 44.5t-1 36.5
l13 -8h70l6 10l16 -15l-7 -5v-21q0 -24 1 -34zM139 181h29v19h-29v-19zM180 181h30v19h-30v-19zM139 154h29v20h-29v-20zM180 154h30v20h-30v-20zM138 81h30v21h-30v-21zM180 81h30v21h-30v-21zM180 52h30v22h-30v-22zM138 52h30v22h-30v-22zM218 25l13 11l17 -18h-118
q-10 0 -19 -3l-9 10h116zM45 172h47v29h-47v-29zM45 138h47v27h-47v-27zM45 102h47v29h-47v-29zM83 235q-9 -3 -20 -27h28l7 11l14 -12l-7 -6v-166q0 -18 -20 -26q0 13 -24 21v4q19 -2 25 -2t6 7v48q-19 -26 -39.5 -43.5t-42.5 -29.5l-2 3q21 16 38.5 34.5t33.5 43.5h-39
q-10 0 -20 -2l-10 9h21v115l13 -9h12q6 23 9 38z" />
  </g>

</svg>
