<?xml version="1.0" standalone="no"?>
<!DOCTYPE svg PUBLIC "-//W3C//DTD SVG 1.1//EN" "http://www.w3.org/Graphics/SVG/1.1/DTD/svg11.dtd" >
<svg xmlns="http://www.w3.org/2000/svg" xmlns:xlink="http://www.w3.org/1999/xlink" version="1.1" viewBox="0 -36 256 256">
  <g transform="matrix(1 0 0 -1 0 220)">
   <path fill="currentColor"
d="M26 227q23 -8 28.5 -16t-0.5 -16t-9.5 2.5t-20.5 25.5zM12 167q28 -11 29.5 -21t-4 -14.5t-8.5 6.5t-19 26zM31.5 81q6.5 4 33.5 94l4 -1q-25 -87 -26.5 -103.5t2.5 -36.5t-7.5 -16.5t-8.5 19t2.5 25.5t-22.5 14v4q16 -3 22.5 1zM66 212v5q25 4 42 10t24 10l13 -19l-9 2
q-34 -5 -70 -8zM65 199q25 -21 24.5 -31t-5.5 -12t-7 9t-14 31zM94 206q20 -25 18.5 -34.5t-6.5 -12t-5.5 10t-9.5 34.5zM150 198l-7 -2q-11 -23 -24 -43l-3 2q13 32 17 55zM120 141h-23q-10 -1 -19 -3l-9 10h55l7 8l12 -18q-8 -2 -14 -5.5t-23 -19.5l10 -7l-5 -5v-8l30 15
l1 -3l-31 -21v-48q1 -20 -16 -29q-2 15 -24 20v4q19 -2 24 -1.5t4 10.5v37q-21 -12 -32 -24l-14 16q23 7 46 19v29l3 -2zM199 65.5q4 -8.5 1 -14.5t-6 -5.5t-4.5 8t-4.5 15t-9 17.5l3 2q16 -14 20 -22.5zM217.5 76q4.5 -7 3 -13.5t-5 -8t-5 5.5t-5 15t-9.5 16l3 3
q14 -11 18.5 -18zM149 222l15 -8h6q5 24 5 33l21 -8l-8 -5l-10 -20h32l7 10l14 -12l-7 -6q0 -37 1 -52l-14 -6v7h-48v-19h61l10 10l13 -17h-84v-19h64l7 9l13 -12l-7 -5q-2 -45 -3.5 -59.5t-6 -21.5t-15.5 -12q0 13 -22 17v5q15 -1 21 -1t8 6.5t3 25t2 41.5h-64v-6l-14 -5
q1 21 1 35v66q0 13 -1 29zM211 207h-48v-20h48v20zM211 180h-48v-18h48v18zM176 59.5q2 -9.5 0 -14t-5.5 -5.5t-4 8.5t-3 18.5t-5.5 16l3 2q13 -16 15 -25.5zM149.5 51.5q-1.5 -10.5 -6.5 -14.5t-10 -1t0 9.5t7.5 15t4.5 23.5h3q3 -22 1.5 -32.5z" />
  </g>

</svg>
