<?xml version="1.0" standalone="no"?>
<!DOCTYPE svg PUBLIC "-//W3C//DTD SVG 1.1//EN" "http://www.w3.org/Graphics/SVG/1.1/DTD/svg11.dtd" >
<svg xmlns="http://www.w3.org/2000/svg" xmlns:xlink="http://www.w3.org/1999/xlink" version="1.1" viewBox="0 -36 256 256">
  <g transform="matrix(1 0 0 -1 0 220)">
   <path fill="currentColor"
d="M128 195h77v12h-77v-12zM128 177h77v11h-77v-11zM128 158h77v12h-77v-12zM213 237l11 8l14 -15h-72l-13 -16h50l8 7l14 -11l-7 -5q0 -46 1 -57l-14 -3v6h-77v-6l-12 -4q1 17 1 39t-1 38l12 -4h21l4 16h-26q-10 0 -19 -2l-10 9h115zM158 136q-11 -1 -24 -6t-43 -12l-1 4
q42 15 54 29zM217.5 139.5q13.5 -5.5 13.5 -17.5t-11.5 -1t-38.5 24l2 3q21 -3 34.5 -8.5zM86 232q-10 -5 -26 -17.5t-39 -21.5l-1 4q40 27 51 50zM98 199q-5 0 -27 -16t-48 -28l-2 4q52 33 61 55zM107 162q-6 -1 -31.5 -19t-53.5 -26l-1 3q53 28 70 58zM118 24.5
q9 -0.5 9 3.5v35q-19 -2 -37 -4t-35 -6l-11 16q17 1 35.5 6t56.5 18q-62 -2 -74 -6l-6 14q10 -1 32 7t38 20l16 -12l-13 -1q-31 -12 -53 -16h71q15 4 30 14l21 -13l-14 1q-52 -19 -107 -32l120 5q-10 8 -27 15l4 4q12 -4 31 -11t21 -14.5t-1.5 -12t-8.5 2t-12 11.5l-64 -4
v-40q0 -4 -4 -10t-17 -8q-3 13 -36 16v3q26 -1 35 -1.5zM104 40q-12 -1 -36 -9.5t-55 -16.5l-1 5q29 9 45.5 16.5t28.5 16.5zM158 54q30 -8 50 -14.5t23 -13t1 -12.5t-12.5 4.5t-63.5 33.5z" />
  </g>

</svg>
