<?xml version="1.0" standalone="no"?>
<!DOCTYPE svg PUBLIC "-//W3C//DTD SVG 1.1//EN" "http://www.w3.org/Graphics/SVG/1.1/DTD/svg11.dtd" >
<svg xmlns="http://www.w3.org/2000/svg" xmlns:xlink="http://www.w3.org/1999/xlink" version="1.1" viewBox="0 -143 1024 1024">
  <g transform="matrix(1 0 0 -1 0 881)">
   <path fill="currentColor"
d="M673 721q-18 -2 -54.5 -39.5t-98.5 -113.5l214 2q30 44 74 132q72 -42 72 -46t-1 -7t-22 -7t-53 -55t-132 -171q-144 -149 -311 -218l-8 13q119 75 177 126t104 104t84 105q-98 -4 -154 -13t-84 -33l-42 62q30 6 45 16t52.5 60.5t90.5 137.5q66 -36 67 -41t0 -9t-20 -5z
M845 387q-26 -37 -87 -107q94 -44 139 -82t58 -69t3 -55t-31 -23t-31 35t-43 82t-107 96q-76 -74 -154 -125t-220 -107l-7 16q97 46 187 108t140 115t91 113t76 138q79 -46 80 -52t-1 -9t-19 -7t-32 -17t-42 -50zM608 972l8 12q84 -34 110 -61t25 -51t-14 -36t-29 -8t-20 31
t-23 55t-57 58zM405 808h488l34 48l62 -57q4 -3 4 -9q0 -8 -15 -8h-489q-20 0 -67 -8zM33 887h277l32 42l57 -47q13 -17 -6 -21h-146v-276h59l32 42l56 -51q10 -15 -4 -17h-143v-292l150 53l8 -15q-263 -120 -290.5 -139.5t-46.5 -40.5l-46 69l174 57v308h-85q-20 0 -43 -8
l-23 34h151v276h-85q-28 2 -56 -8z" />
  </g>

</svg>
