<?xml version="1.0" standalone="no"?>
<!DOCTYPE svg PUBLIC "-//W3C//DTD SVG 1.1//EN" "http://www.w3.org/Graphics/SVG/1.1/DTD/svg11.dtd" >
<svg xmlns="http://www.w3.org/2000/svg" xmlns:xlink="http://www.w3.org/1999/xlink" version="1.1" viewBox="0 -205 1024 1024">
  <g transform="matrix(1 0 0 -1 0 819)">
   <path fill="currentColor"
d="M362 890h516l40 46l62 -54q6 -1 6 -8q6 -12 -8 -12h-294v-206h176l36 40l60 -46q9 -6 10 -14q0 -7 -36 -28v-501q1 -32 -22 -56q-24 -20 -66 -32q-3 31 -30 46q-25 14 -92 34l4 20q87 -18 112 -18q23 0 32 2q9 3 10 24v501h-194q-3 -78 -24 -144q77 -54 110 -86
q33 -33 46 -62q11 -30 8 -48t-12 -24q-8 -7 -22 -8q-14 0 -22 22l-12 44q-3 21 -30 60q-26 38 -70 82q-22 -81 -70 -150q-46 -70 -130 -142v-30l4 -81q0 -12 -24 -24q-24 -13 -38 -8l4 102v563l60 -38h172v206h-190q-18 0 -66 -8l-16 36v0v0zM456 204q81 90 124 180
q42 90 54 244h-178v-424v0v0zM184 984l78 -28q14 -5 2 -16l-30 -14v-144q65 -27 98 -48q29 -21 38 -44t0 -40q-9 -19 -26 -16q-18 -1 -26 20q-6 20 -18 44q-12 22 -66 62v-592l4 -107q0 -12 -20 -24q-21 -12 -38 -10l4 135v822v0v0zM106 758h18q7 -97 2 -142q-3 -45 -24 -74
q-18 -28 -42 -28q-22 0 -28 16q-7 14 4 28q11 15 26 30q12 15 24 48q11 32 20 122v0v0z" />
  </g>

</svg>
