<?xml version="1.0" standalone="no"?>
<!DOCTYPE svg PUBLIC "-//W3C//DTD SVG 1.1//EN" "http://www.w3.org/Graphics/SVG/1.1/DTD/svg11.dtd" >
<svg xmlns="http://www.w3.org/2000/svg" xmlns:xlink="http://www.w3.org/1999/xlink" version="1.1" viewBox="0 -339 2048 2048">
  <g transform="matrix(1 0 0 -1 0 1709)">
   <path fill="currentColor"
d="M1194 1294h-77q-84 0 -172 -7q-8 0 -20 -1l-39 88q30 -7 52 -11q73 -12 179 -12h86q11 67 17 133q16 162 16 176q0 23 1 34q-104 -11 -129 -12q-7 -1 -164 -6l-1 37q210 29 239 33q214 34 390 95q78 28 137 57q26 13 76 41l90 -86q21 -20 21 -39q0 -14 -13 -20
q-7 -4 -16 -3q-8 0 -18 3l-59 12q-73 -25 -137 -42q-169 -44 -284 -57q-5 0 -32 -3q-8 -1 -29 -3l33 -8q33 -8 59 -21q10 -6 17 -15q5 -7 5 -14q0 -12 -12 -22q-12 -11 -41 -18l-36 -8q-7 -55 -10 -83q-13 -111 -21 -161h437l99 102l120 -107q12 -11 15 -16q2 -6 2 -10
q0 -9 -7 -17q-7 -9 -20 -9h-655q-28 -159 -53 -262h487l57 76l76 -48q36 -23 46 -39q4 -7 4 -16q0 -16 -13 -25q-6 -5 -48 -28q-21 -65 -34.5 -101.5t-33.5 -79.5q-68 -151 -148 -256q-25 -32 -59 -70q40 -39 62 -58t57 -44q109 -77 183 -107q37 -15 102 -33v-35
q-35 -4 -52 -11q-33 -13 -52 -48q-6 -10 -15 -32q-83 52 -121 79q-20 15 -32 25t-40 35q-57 54 -112 106q-19 18 -51 54q-82 -71 -187 -134q-113 -67 -227 -112q-43 -17 -122 -44l-17 40q95 40 151 68q124 63 241 153q57 44 114 99q-32 43 -46.5 67.5t-34.5 65.5
q-63 134 -90 238q-10 40 -37 156h-24q-15 -49 -21 -65q-67 -210 -159 -357q-101 -161 -234 -274q-31 -27 -84 -66l-28 32q50 44 82 77.5t70 82.5q131 170 215 394q84 222 129 497zM1521 518q62 72 116 171q44 80 81 189q11 31 30 95h-447q21 -73 38 -122q27 -76 75 -169
q45 -86 75 -126q10 -13 32 -38zM432 973q-118 -98 -149 -122q-61 -46 -184 -120l-22 36q79 58 132 105q106 91 215 220q54 63 97 129q58 89 102 175q22 43 51 109h-345q-115 0 -191 -8l-35 87q46 -10 69 -13q60 -9 157 -9h345l59 71l85 -59q24 -17 32 -31q5 -8 5 -17
q0 -11 -12 -21q-8 -7 -31 -16q-2 -1 -21 -8q-11 -4 -21 -7q-33 -71 -59 -118q-45 -79 -92 -152q-29 -43 -72 -100q93 -45 177 -103q54 -37 77 -68q29 -37 29 -74q0 -23 -13 -40q-15 -21 -42 -21q-19 0 -33 11q-8 7 -19 30q-37 76 -95 138q-30 33 -60 58q-14 11 -40 30v-720
q0 -15 4 -139q5 -71 5 -99q0 -37 -6 -47q-5 -7 -17 -13q-17 -7 -35 -7q-26 0 -38 12q-9 10 -9 22v899zM321 1950q65 -36 100 -59q66 -43 101 -82q48 -52 48 -101q0 -35 -24 -54q-15 -11 -32 -11q-20 0 -34 14q-10 10 -16 24q-6 16 -15 42q-13 41 -31 68q-24 38 -66 79
q-18 18 -56 50z" />
  </g>

</svg>
