<?xml version="1.0" standalone="no"?>
<!DOCTYPE svg PUBLIC "-//W3C//DTD SVG 1.1//EN" "http://www.w3.org/Graphics/SVG/1.1/DTD/svg11.dtd" >
<svg xmlns="http://www.w3.org/2000/svg" xmlns:xlink="http://www.w3.org/1999/xlink" version="1.1" viewBox="0 -36 256 256">
  <g transform="matrix(1 0 0 -1 0 220)">
   <path fill="currentColor"
d="M38 214h8q6 17 8 31l19 -10l-6 -3l-15 -18h34l7 8l12 -12l-6 -5v-20q0 -17 1 -31l-14 -6v7h-48v-21h58l10 10l15 -17h-83v-20h59l6 9l15 -10l-7 -8q-1 -64 -10.5 -75t-24.5 -14q-1 14 -25 19v5q26 -4 31.5 -3.5t10 7.5t5.5 63h-60v-7l-14 -4q1 18 1 35v65q0 16 -1 32z
M38 181v-19h48v19h-48zM38 207v-19h48v19h-48zM145 242l22 -9l-8 -9v-17h35v8q0 14 -1 27l22 -9l-8 -9v-17h15l10 11l15 -18h-40v-20l-13 -4v24h-35v-22l-13 -5v27h-9q-11 0 -19 -3l-9 10h37v9q0 11 -1 26zM113 113q41 24 63 71l16 -12l-8 -6q33 -41 64 -46v-4
q-11 -2 -15 -11q-32 17 -53 57q-25 -38 -66 -53zM170 106q0 14 -1 27l21 -11l-7 -6v-16h23l10 9l15 -16h-48v-61q1 -17 -16 -23q-3 13 -21 14v5q12 -1 18 -1t6 8v58h-17q-10 -1 -19 -3l-9 10h45v6zM139 81l19 -10l-8 -5q-17 -29 -37 -50l-4 2q21 30 30 63zM237.5 32
q-5.5 -17 -14.5 2t-29 41l3 3q46 -29 40.5 -46zM70 51q-5 -3 -7 8.5t-8 24.5l2 2q19 -15 18.5 -23.5t-5.5 -11.5zM77 92q13 -11 16.5 -17.5t2 -11.5t-5.5 -7t-5.5 9t-9.5 25zM22.5 41.5q-6.5 -6.5 -11.5 -2t2.5 13t9.5 26.5h4q2 -31 -4.5 -37.5zM35 80l3 2q16 -18 15 -27.5
t-6.5 -11.5t-6 11t-5.5 26z" />
  </g>

</svg>
