<?xml version="1.0" standalone="no"?>
<!DOCTYPE svg PUBLIC "-//W3C//DTD SVG 1.1//EN" "http://www.w3.org/Graphics/SVG/1.1/DTD/svg11.dtd" >
<svg xmlns="http://www.w3.org/2000/svg" xmlns:xlink="http://www.w3.org/1999/xlink" version="1.1" viewBox="0 -144 1024 1024">
  <g transform="matrix(1 0 0 -1 0 880)">
   <path fill="currentColor"
d="M378 700l55 -34l10 -16l-21 -2l-9 -14l-25 -30l-28 -27l-33 -23l-37 -20l-40 -16l-44 -13l-16 -4l58 -29h484l32 27l59 -48l-27 -22v-111l-64 -32v43h-221v-95h242l54 53l64 -53v-22h-360v-95l58 -3h102l114 4l127 8l4 -71l-129 -4h-116l-104 4l-92 9l-78 13l-67 18
l-53 23l-41 28l-22 29l-17 -23l-23 -24l-25 -23l-27 -21l-28 -19l-31 -16l-34 -14l-4 9l52 44l23 23l21 23l19 24l17 24l14 25l13 27l12 27l8 28h1l2 8l58 -29l12 -16l-21 -4l-5 -11l-16 -30l-8 -13l1 -2l27 -21l38 -17l50 -16l62 -11l42 -5v207h-199l-65 -32v203l-24 -6
l-52 -6l-54 -2l-2 9l53 13l48 14l44 16l38 18l35 18l29 21l26 22l20 24l18 26zM913 111l1 -23v-4l1 -7v-11v-2l1 -9l55 74l-59 -3l1 -7v-8zM732 451h-484v-101h484v101zM650 602l7 -13l39 -37v-17l-20 8l-18 -7l-22 -7l-50 -14l-27 -7l-29 -6l-30 -5l-33 -5l-34 -4l-36 -2
l-2 9l33 13l118 44l25 10l43 21l19 9l13 7zM872 518l-29 17l-35 17l-38 18l-22 8l2 9l23 -2l23 -1l21 -3l20 -3h4v28h-244l-64 -33v322l64 -32h44l2 2l42 49l3 5h-212v21h399l44 48l54 -48v-21h-198l-50 -33l-36 -18l-13 -5h165l32 27l60 -48l-27 -22v-214l-59 -29l29 -7
l18 -5l17 -6l16 -7l15 -7l14 -20l-5 -24l-20 -14l-24 5zM237 781h-211v22h78v126l65 -11l16 -11l-16 -9v-95h68v170l65 -11l16 -11l-16 -9v-46h69l33 38l43 -38v-22h-145v-71h99l45 48l53 -48v-22h-193l12 -8l-16 -9v-94l-1 -13l-2 -14l-5 -13l-6 -12l-9 -11l-11 -9l-12 -6
l-13 -5l-13 -2l-14 -1v32l-86 17v16h86h6l9 2l2 1l1 1v1l1 2l1 3l1 5v6v111zM136 765l57 -31l11 -17l-23 -3l-10 -13l-12 -15l-14 -15l-16 -14l-16 -13l-18 -12l-19 -12l-42 -21l-5 8l17 15l41 49l11 15l10 15l9 15l7 14l5 14zM841 685h-244v-58h244v58zM437 684l-6 8
l-16 16l-9 9l-10 9l-24 17l-15 7l4 9l15 -4l16 -1l15 -4l14 -3l14 -5l26 -10l12 -6l22 -16l8 -23l-11 -22l-23 -8l-22 10zM841 762h-244v-55h244v55zM841 842h-244v-58h244v58z" />
  </g>

</svg>
