<?xml version="1.0" standalone="no"?>
<!DOCTYPE svg PUBLIC "-//W3C//DTD SVG 1.1//EN" "http://www.w3.org/Graphics/SVG/1.1/DTD/svg11.dtd" >
<svg xmlns="http://www.w3.org/2000/svg" xmlns:xlink="http://www.w3.org/1999/xlink" version="1.1" viewBox="0 -36 256 256">
  <g transform="matrix(1 0 0 -1 0 220)">
   <path fill="currentColor"
d="M82 78q20 -9 22 -15.5t-3.5 -13.5t-8 3t-12.5 24zM167 61.5q-7 -6.5 -15 -16.5h23l11 10l16 -17h-116q-10 -1 -20 -3l-10 10h65v37h-21q-10 0 -20 -2l-10 9h51v21h-22l-13 -2l-9 9h75l12 9l15 -16h-45v-21h28l11 9l15 -16h-54v-37h12q14 26 16 36l17 -11q-5 -2 -12 -8.5z
M125 169l16 -11l-7 -4q33 -25 81 -29v-5q-15 0 -20 -10q-38 14 -65 40q-27 -28 -88 -47v5q62 26 83 61zM22 8q1 25 1 48v155q0 26 -1 33l22 -9l-7 -6v-214zM218 245l22 -8l-7 -7v-193q0 -22 -20 -28q0 14 -27 19v4q14 -1 24 -1t9 15v160q0 27 -1 39zM60 164q-4 0 -15 -2
l-9 9h35v23h-15l-9 -3l-8 10h32v22h-16l-10 -2l-9 9h59l10 9l13 -16h-34v-22h12l10 7l12 -14h-34v-23h14l9 8l14 -15h-61zM159 164q-4 0 -15 -2l-9 9h35v23h-15l-9 -3l-8 10h32v22h-15l-10 -2l-9 9h61l10 9l13 -16h-37v-22h12l10 7l12 -14h-34v-23h14l9 8l14 -15h-61z" />
  </g>

</svg>
