<?xml version="1.0" standalone="no"?>
<!DOCTYPE svg PUBLIC "-//W3C//DTD SVG 1.1//EN" "http://www.w3.org/Graphics/SVG/1.1/DTD/svg11.dtd" >
<svg xmlns="http://www.w3.org/2000/svg" xmlns:xlink="http://www.w3.org/1999/xlink" version="1.1" viewBox="0 -205 1024 1024">
  <g transform="matrix(1 0 0 -1 0 819)">
   <path fill="currentColor"
d="M380 830h268v160l80 -26q5 0 8 -6q2 -6 -4 -8l-32 -16v-104h190l40 50l58 -56q3 -3 4 -8q0 -12 -12 -12h-280v-124h138l32 40l64 -46l4 -8q1 -6 -34 -30v-110l4 -92q1 -11 -16 -22q-15 -12 -38 -14v60h-120q36 -90 84 -152q46 -64 92 -94q45 -30 102 -44v-16
q-36 0 -54 -3q-19 -3 -38 -28q-37 28 -70 67q-33 38 -68 98q-36 60 -72 168h-10v-296l4 -95q0 -12 -20 -24q-19 -9 -40 -10l4 135v216q-26 -38 -76 -94q-49 -54 -116 -110q-66 -56 -144 -103l-10 12q81 65 132 115q50 50 104 116q54 63 100 142h-140v-40q2 -12 -16 -24
q-19 -12 -38 -12l4 128v208l54 -38h146v124h-194q-21 1 -54 -10l-20 36v0v0zM498 482h150v174h-150v-174v0v0zM700 656v-174h154v174h-154v0v0zM96 938l60 -44h126l30 40l62 -42q9 -10 -2 -22l-22 -18v-532l4 -150q0 -12 -18 -25q-18 -15 -38 -18v75h-152v-71q0 -12 -20 -28
q-22 -13 -34 -14l4 137v712v0v0zM146 228h152v202h-152v-202v0v0zM146 456h152v196h-152v-196v0v0zM146 678h152v190h-152v-190v0v0z" />
  </g>

</svg>
