<?xml version="1.0" standalone="no"?>
<!DOCTYPE svg PUBLIC "-//W3C//DTD SVG 1.1//EN" "http://www.w3.org/Graphics/SVG/1.1/DTD/svg11.dtd" >
<svg xmlns="http://www.w3.org/2000/svg" xmlns:xlink="http://www.w3.org/1999/xlink" version="1.1" viewBox="0 -140 996 1000">
  <g transform="matrix(1 0 0 -1 0 860)">
   <path fill="currentColor"
d="M726 724l24 -21q12 -11 12 -14q0 -9 -30 -17l10 1v-124q0 -7 1 -12h-1q2 -6 2 -8q0 -10 -15.5 -17.5t-36.5 -8.5q-15 0 -15 7v39h-110q0 -27 -3 -34t-20 -15q-14 -7 -25 -7q-16 0 -16 13l-1 202q-38 -56 -96 -114l-19 18q39 52 61 88l-147 -59l7 1v-134q0 -28 -10 -40
t-44 -27q-34 -14 -51 -14q-19 0 -20 13q-2 23 -17 28l-57 24l5 14l85 -21l17 -2q28 0 28 46v89l-123 -47l8 1v1l-2 -3q-1 -4 -2 -6q0 -15 -7 -23.5t-17 -8.5q-14 0 -28 26l-20 39l191 59v140h-182v22h182v85l-3 52l56 -13q46 -10 46 -19q0 -7 -43 -20l8 1v-86h69l18 27
l-1 -1l2 3h-1q1 0 3 2h-1q4 7 16 7q14 0 22 -7l39 -40l-11 -13h-155v-125l148 45l1 -2q73 120 107 258l48 -18q40 -13 40 -23q0 -9 -32 -15l-13 -4l7 1q-21 -52 -44 -88h258q20 24 25.5 29.5t14.5 5.5q15 0 28 -13l31 -28q21 -19 21 -23q0 -7 -47 -22l9 1q0 -187 -23.5 -255
t-107.5 -90q-47 -12 -51 -12q-15 0 -15 8q1 1 1 8q0 20 -34 29l-72 19l5 14l96 -17q17 -3 35 -3q54 0 77 41l-1 -1q12 26 15 39q12 66 12 193v55h-285l-45 -71l48 -20h107q1 1 8 11.5t6 10.5q5 5 15 5q9 0 25 -15zM740 390l32 23h-1l-1 -1l1 1h-1l1 1v-1q14 10 24 10
q14 0 33 -13l24 -19h-1q21 -15 21 -18q0 -11 -37 -11q-14 0 -38 3l-176 -56l-258 -78q-4 0 -7 -3l1 1q-95 -31 -120 -43q-33 -16 -33 -30q0 -22 112 -22h454q35 0 50 0.5t32 5t24 13.5t10 26l21 119l32 -8l-6 -120q0 -21 16 -30t16 -15q0 -16 -16 -20q-15 -4 -81 -4h-587
q-157 0 -157 45q0 22 35.5 44.5t76.5 36.5q74 25 273 87l166 53h-484v23h549zM567 690v-119h110v119h-110zM365 231h-2h2zM394 844q-1 -1 -1 0h1z" />
  </g>

</svg>
