<?xml version="1.0" standalone="no"?>
<!DOCTYPE svg PUBLIC "-//W3C//DTD SVG 1.1//EN" "http://www.w3.org/Graphics/SVG/1.1/DTD/svg11.dtd" >
<svg xmlns="http://www.w3.org/2000/svg" xmlns:xlink="http://www.w3.org/1999/xlink" version="1.1" viewBox="0 -205 1024 1024">
  <g transform="matrix(1 0 0 -1 0 819)">
   <path fill="currentColor"
d="M906 883q14 -11 14 -17q0 -4 -29 -18v-259q0 -36 1 -32q-2 -8 -22 -17q-11 -3 -16 -3q-9 0 -9 10q1 15 1 29h-336q0 -12 1 -24q-1 -8 -23 -16q-10 -4 -15 -4q-9 0 -9 15q0 3 1 18.5t1 26.5v281l-3 42l56 -22h316l10 13q10 12 17 12q4 0 19 -12zM957 123q-5 -14 -28 -17
h-36h-331q-41 0 -64 24.5t-23 72.5l-1 295l44 -11q27 -6 27 -14q0 -9 -27 -20v-138q193 36 327 134l33 -36q17 -19 9 -25q-9 -8 -37 5q-140 -69 -332 -95v-91q0 -29 11 -46t45 -17h273q27 0 35 9t15 38l31 93l10 -3l-13 -105q-2 -23 14.5 -32.5t17.5 -20.5zM432 739l-5 -12
h-157v-135q59 -27 80 -45q32 -26 39 -62q0 -46 -20 -46q-14 0 -22 29q-28 75 -77 105v-443q0 -38 0 -37q-1 -6 -20 -18q-11 -7 -17 -7q-7 0 -7 14q0 -8 0 44v408q-16 -56 -57 -123q-38 -62 -85 -104l-10 8q119 148 152 412h-141v20h141v163l-2 44l48 -13q29 -9 29 -17
t-31 -20v-157h62l23 29q16 18 20 18q3 0 21 -18zM847 743v130h-337v-130h337zM847 596v126h-337v-126h337z" />
  </g>

</svg>
