<?xml version="1.0" standalone="no"?>
<!DOCTYPE svg PUBLIC "-//W3C//DTD SVG 1.1//EN" "http://www.w3.org/Graphics/SVG/1.1/DTD/svg11.dtd" >
<svg xmlns="http://www.w3.org/2000/svg" xmlns:xlink="http://www.w3.org/1999/xlink" version="1.1" viewBox="0 -36 256 256">
  <g transform="matrix(1 0 0 -1 0 220)">
   <path fill="currentColor"
d="M98 210h-16q-10 0 -20 -2l-9 9h50q5 6 7 9h-42q-11 0 -20 -2l-9 9h74q5 9 6 15l17 -8q-4 -2 -7 -7h56l15 8l16 -15h-92q-1 -3 -6 -9h57l12 7l16 -14h-89q-5 -5 -9 -7h102l14 9l16 -16h-73q8 -4 25 -9t32 -6t26 -1v-3q-15 -2 -17 -10q-28 5 -45 13t-29 16h-57
q-20 -14 -38 -20.5t-50 -10.5v3q23 5 40.5 12.5t28.5 15.5h-33q-10 0 -19 -2l-10 9h71q6 4 9 7zM193 126l-14 -4v8h-104v-3l-15 -3q1 13 1 30.5t-1 22.5l15 -2q21 5 35 14l12 -12q-9 -1 -19 -2.5t-28 -4.5v-14h23l12 8l12 -15h-47v-12h104v12h-16q-10 0 -20 -2l-9 9h45v13
h-25q-11 0 -20 -2l-9 9h53l6 5l15 -9l-7 -4v-26q0 -9 1 -16zM199 73q0 -10 1 -21l-15 -5v6h-28v-23q1 -7 13 -6h50q10 -1 10.5 6.5t0.5 22.5h4q0 -14 3 -20t10 -9q-7 -12 -23 -11h-57q-25 -1 -25 17v23h-31q-7 -20 -31 -32.5t-73 -13.5v3q37 5 59 14.5t29 28.5h-28v-5
l-15 -5q1 24 1 45t-1 34l15 -6h117l8 8l13 -13l-7 -5v-33zM185 109h-117v-11h117v11zM185 91h-117v-11h117v11zM185 73h-117v-13h117v13z" />
  </g>

</svg>
