<?xml version="1.0" standalone="no"?>
<!DOCTYPE svg PUBLIC "-//W3C//DTD SVG 1.1//EN" "http://www.w3.org/Graphics/SVG/1.1/DTD/svg11.dtd" >
<svg xmlns="http://www.w3.org/2000/svg" xmlns:xlink="http://www.w3.org/1999/xlink" version="1.1" viewBox="0 0 2048 2048">
  <g transform="matrix(1 0 0 -1 0 2048)">
   <path fill="currentColor"
d="M536 705q-9 -4 -20 -6q-12 -2 -29 12q-10 7 -16 17q-6 11 -19.5 44t-37.5 74q-23 40 -49 74q-26 33 -46 53l-44 41l-11 12l-30 -54q-19 -33 -43 -70q-24 -38 -57 -81l-40 -53l-28 23l43 73q21 36 47 89q27 53 54 121q26 68 48 139q23 71 36 125q13 55 29 136
q16 80 21 116q6 37 14 98l3 25h-50q-117 0 -179 -7l-13 -1l-38 88q13 -4 29 -7q15 -4 62 -10q46 -6 139 -6h357l98 102l121 -107l15 -15q4 -6 1 -18q-3 -11 -11 -15q-9 -4 -15 -4h-415q-2 -17 -5 -37t-10 -59l-19 -101q-12 -62 -22 -99l-8 -30h292l63 81l91 -71
q24 -20 24 -38q1 -18 -22 -29l-55 -26q-6 -32 -11 -65q-6 -33 -27 -135t-39 -172q-19 -71 -52 -158q-32 -87 -80 -180q-47 -94 -92 -164t-107 -144t-122 -132t-106 -90l-50 -36l-24 31l53 47q30 27 80 82t90 110q41 54 80 118q40 63 84 144q44 82 63 132zM285 1068
q18 -12 29 -18q11 -7 56 -38t73 -54q28 -24 52 -49t41 -51t23 -43l10 -31l9 25q5 12 20 55q14 43 32 114q17 72 36 166q18 95 24 141l6 45h-313l-21 -65q-13 -43 -22 -69q-10 -26 -43 -101zM1314 1595h-253l-71 -4l-26 -1q-7 -1 -27 -3l-24 -3l-39 86q26 -5 46 -8
q21 -3 40 -4q20 -2 52 -4q31 -2 49 -2h260l18 146l7 78l3 40l123 -23q26 -5 38 -14q13 -9 13 -22q-1 -15 -10 -21q-9 -5 -36 -13l-34 -10l-24 -161h276l98 101l121 -107q10 -10 14 -16q4 -5 1 -17q-4 -11 -11 -15q-8 -3 -15 -3h-492l-32 -209h262l68 76l84 -54
q19 -13 29 -24q10 -12 10 -25q1 -13 -11 -26q-9 -10 -30 -19l-35 -16v-809h25l86 86l103 -91q10 -10 15 -16t1 -18q-4 -10 -12 -14q-9 -4 -14 -4l-757 -2l121 -62q24 -12 24 -28q-1 -17 -15.5 -23t-43.5 -6h-48q-27 -32 -48 -55q-21 -22 -63 -58t-76 -60q-33 -24 -81 -50
q-48 -25 -87 -42l-58 -26l-13 32l70 48q39 27 61 44q21 16 69 64q48 47 83 90q34 42 50 71l35 63h-156q-24 0 -57 -2q-33 -3 -39 -3.5t-28 -2.5l-25 -3l-39 86q27 -5 48 -7l46 -6q25 -3 45 -3l50 -2v853q0 38 -4 73l-7 50l-3 15l114 -94h161zM1122 1332v-161h536v161h-536z
M1122 1115v-169h536v169h-536zM1122 891v-169h536v169h-536zM1122 667v-178h536v178h-536zM1547 370q31 -13 51 -23l68 -33q46 -24 88 -50t72 -54q31 -28 55 -58t31 -58q8 -27 -4 -50t-33 -26q-21 -2 -38 13q-10 8 -32 43l-37 58q-15 22 -36 47t-50 50q-30 25 -62 47l-65 43
l-29 18z" />
  </g>

</svg>
