<?xml version="1.0" standalone="no"?>
<!DOCTYPE svg PUBLIC "-//W3C//DTD SVG 1.1//EN" "http://www.w3.org/Graphics/SVG/1.1/DTD/svg11.dtd" >
<svg xmlns="http://www.w3.org/2000/svg" xmlns:xlink="http://www.w3.org/1999/xlink" version="1.1" viewBox="0 -36 256 256">
  <g transform="matrix(1 0 0 -1 0 220)">
   <path fill="currentColor"
d="M66 14l-16 -7q1 46 1 117q-12 -35 -40 -67l-3 3q31 49 41 114h-10q-10 0 -19 -2l-9 9h40q0 30 -1 64l25 -10l-10 -7v-47h10l12 11l15 -18h-37v-27q20 -11 29 -19.5t3.5 -20.5t-12 3t-20.5 31q0 -107 1 -127zM133 144h39v18h-39v-18zM97 185l-3 3q11 12 21.5 26t16.5 32
l20 -12l-9 -4q-4 -4 -9 -10h81l7 10l17 -11l-8 -6q-1 -43 -1.5 -62t-3 -23.5t-7 -9t-20.5 -9.5q1 12 -27 16v4q26 -2 31 -2t8 4t4 23t2 59h-88q-8 -10 -32 -28zM133 196h37l8 8l16 -11l-8 -5q0 -40 1 -50l-15 -6v5h-39v-6l-14 -5q1 14 1 36t-1 39zM133 169h39v20h-39v-20z
M124 99q-10 0 -19 -2l-9 9h123l12 11l15 -18h-94l-8 -23h65l8 9l17 -12l-10 -5q-4 -36 -13 -46.5t-32 -13.5q1 13 -32 17v5q31 -3 39 -3.5t13.5 4t10.5 38.5h-67l-10 -8l-13 14l12 5l7 19h-15z" />
  </g>

</svg>
