<?xml version="1.0" standalone="no"?>
<!DOCTYPE svg PUBLIC "-//W3C//DTD SVG 1.1//EN" "http://www.w3.org/Graphics/SVG/1.1/DTD/svg11.dtd" >
<svg xmlns="http://www.w3.org/2000/svg" xmlns:xlink="http://www.w3.org/1999/xlink" version="1.1" viewBox="0 -36 256 256">
  <g transform="matrix(1 0 0 -1 0 220)">
   <path fill="currentColor"
d="M67 182l20 -9l-7 -7v-9l12 2l6 10l5 -4l11 17h-73q1 -31 -1.5 -86t-28.5 -88l-3 2q18 36 20 91.5t0 96.5l13 -9h31q0 43 -1 58l19 -10l-6 -6v-13h21l11 11l14 -18h-46v-22h30l9 9l11 -16q-16 -6 -28 -19l6 -6l-32 -7v-18q0 -9 8 -8h15q9 0 11.5 2t5.5 0t5 -5.5t-0.5 -5.5
t-8 -2h-13.5h-19q-16 0 -16 17v18l-10 -2l-6 -3l-9 7l25 5q0 15 -1 27zM119 28h103q10 1 11 10t1 27h4q0 -12 1.5 -22t9.5 -14q-6 -11 -12 -12t-16 -1h-106q-17 0 -18 17v54h-24q0 -35 -10 -52t-31 -28l-1 3q19 16 24.5 37.5t4.5 56.5l13 -10h24l7 8l12 -12l-7 -6v-44
q0 -13 10 -12zM230 87q0 -10 1 -28l-12 -7v23h-20v-19l-12 -5q1 26 1 36v83q0 10 -1 39l11 -7h20l7 8l12 -11l-7 -7v-105zM199 82h20v113h-20v-113zM154 70v63q-14 -34 -36 -57l-2 2q26 42 35 88q-5 0 -16 -3l-9 9h28v43q-9 -1 -23 -3v4q17 4 28 8.5t19 9.5l8 -14
q-5 0 -10 -1t-11 -3v-44h4l8 9l11 -16h-23v-15q19 -16 19.5 -25t-3.5 -13t-7 8t-9 25v-68q0 -22 1 -35l-13 -8q1 23 1 36z" />
  </g>

</svg>
