<?xml version="1.0" standalone="no"?>
<!DOCTYPE svg PUBLIC "-//W3C//DTD SVG 1.1//EN" "http://www.w3.org/Graphics/SVG/1.1/DTD/svg11.dtd" >
<svg xmlns="http://www.w3.org/2000/svg" xmlns:xlink="http://www.w3.org/1999/xlink" version="1.1" viewBox="0 -154 1024 1024">
  <g transform="matrix(1 0 0 -1 0 870)">
   <path fill="currentColor"
d="M671 113l2 -57q0 -21 -10 -30q-10 -8 -38 -15q5 38 8 149v71l-92 -34q-69 -26 -85 -36q-17 -10 -35 -34l-53 49l96 28v472h-10q-27 0 -45 -13l-34 33h295l32 41l68 -50q15 -12 -6 -11h-93v-410l64 19l6 -13l-70 -27v-132zM892 726l-15 4l43 112h-458q-1 -19 -3 -35
q-6 -42 -18 -66q-13 -26 -34 -33q-22 -9 -33 10q-5 7 -5 15h-107v-96q36 -20 63 -42q30 -27 44 -51q12 -24 6 -48q-7 -24 -25 -24t-21 33t-26 64q-18 22 -41 45v-452l2 -98q0 -21 -14 -31q-13 -9 -39 -15q4 39 7 191v372q-11 -37 -23 -66q-36 -84 -70 -137q-33 -52 -79 -112
l-14 10q46 78 85 162q39 83 57 149q17 61 29 146h-100q-27 0 -45 -13l-34 33h194v187q0 21 -27 49l6 9l89 -36q14 -6 6 -11q-21 -9 -30 -21v-177h27l28 38l59 -47q24 16 39 41q15 24 31 118h15q1 -21 1 -41h456l28 33l58 -58q3 -12 -10 -9q-15 -3 -25 -7q-10 -6 -21 -15
q-11 -11 -56 -80zM1011 81v-13q-65 3 -76 -20q-55 63 -105 178q-48 -95 -124 -170l-10 12q67 94 102 185q5 14 11 28q-48 135 -65 337q-14 -2 -26 -14l-36 34h201l36 35l45 -48q9 -12 -3 -12q-12 -2 -19 -7q-32 -186 -84 -319q41 -94 93 -157q31 -34 60 -49zM897 618h-132
q19 -137 68 -270q47 135 64 270zM502 676v-152h131v152h-131zM502 372v-156l131 39v117h-131zM502 508v-120h131v120h-131zM563 996l4 10q122 -29 142 -105q0 -28 -19 -35q-19 -8 -28 19q-13 65 -99 111z" />
  </g>

</svg>
