<?xml version="1.0" standalone="no"?>
<!DOCTYPE svg PUBLIC "-//W3C//DTD SVG 1.1//EN" "http://www.w3.org/Graphics/SVG/1.1/DTD/svg11.dtd" >
<svg xmlns="http://www.w3.org/2000/svg" xmlns:xlink="http://www.w3.org/1999/xlink" version="1.1" viewBox="0 -36 256 256">
  <g transform="matrix(1 0 0 -1 0 220)">
   <path fill="currentColor"
d="M140 237l-7 -5q-4 -9 -9 -19h77l15 12l18 -19h-86q23 -21 49 -30t49 -9v-5q-14 -2 -21 -13q-54 15 -84 57h-20q-16 -25 -43.5 -40t-65.5 -21l-1 4q69 19 93 57h-49q-11 0 -20 -2l-10 9h82q9 17 12 33zM89 163l23 -10l-7 -7q0 -37 0.5 -63.5t-13 -45.5t-56.5 -29l-1 4
q47 21 53 48l-26 -7q-29 -8 -37 -14l-11 16q30 3 75 13q1 13 1 27h-23q-18 1 -34 -3l-8 10h65v27h-30q-13 -1 -29 -3l-9 10h68q0 18 -1 27zM147 89.5q0 57.5 -1 74.5l24 -11l-8 -7v-10h39l16 11l17 -18h-72v-28h35l16 10l16 -17h-67v-36h47l15 11l16 -18h-78q0 -15 0 -14.5
t1 -21.5l-17 -6q1 23 1 80.5z" />
  </g>

</svg>
