<?xml version="1.0" standalone="no"?>
<!DOCTYPE svg PUBLIC "-//W3C//DTD SVG 1.1//EN" "http://www.w3.org/Graphics/SVG/1.1/DTD/svg11.dtd" >
<svg xmlns="http://www.w3.org/2000/svg" xmlns:xlink="http://www.w3.org/1999/xlink" version="1.1" viewBox="0 -36 256 256">
  <g transform="matrix(1 0 0 -1 0 220)">
   <path fill="currentColor"
d="M98 97l1 -5q-66 -29 -75 -40l-11 17q10 2 36 12v81h-6q-10 0 -19 -2l-9 9h34v43q0 9 -1 28l23 -10l-8 -7v-54h10l11 10l15 -17h-36v-77zM127 143v-54h30q4 27 4 54h-34zM170 89h38v54h-34q0 -23 -4 -54zM133 198h-8q-10 0 -19 -2l-9 9h36q0 22 -1 37l20 -8l-6 -8v-21h42
q0 18 -1 36l22 -9l-7 -5v-22h17l10 11l14 -18h-41q0 -8 1 -21l-15 -6v27h-42v-22l-14 -7q1 23 1 29zM113 158l14 -8h34q0 18 -1 32l21 -10l-7 -7v-15h33l6 8l16 -12l-8 -6v-50l10 10l16 -18h-72q8 -14 26 -32t44 -22v-4q-12 -1 -18 -11q-16 8 -32 26.5t-25 44.5h-1
q-10 -31 -32.5 -48.5t-48.5 -26.5l-2 4q26 12 43.5 29t26.5 40h-35q-10 0 -19 -2l-9 9h21q0 49 -1 69z" />
  </g>

</svg>
