<?xml version="1.0" standalone="no"?>
<!DOCTYPE svg PUBLIC "-//W3C//DTD SVG 1.1//EN" "http://www.w3.org/Graphics/SVG/1.1/DTD/svg11.dtd" >
<svg xmlns="http://www.w3.org/2000/svg" xmlns:xlink="http://www.w3.org/1999/xlink" version="1.1" viewBox="0 0 2048 2048">
  <g transform="matrix(1 0 0 -1 0 2048)">
   <path fill="currentColor"
d="M1285 1675q-6 -33 -8 -46t-13 -77q-10 -63 -24 -123q-13 -60 -40 -129q-26 -70 -64 -132t-94 -119t-125 -106t-112 -71l-66 -35l-21 35q32 19 54 34q23 16 73 56t80 70t67 80q38 50 50 75l19 39q-22 0 -31 5q-10 5 -17 17t-17 38q-10 25 -20 44q-11 19 -27 43t-29 39
q-14 14 -44 42q-31 29 -41 36l-19 13l20 29l61 -33l55 -33q32 -19 56 -38q25 -20 50 -48q26 -28 30 -41l8 -27l14 42q10 28 22 80l21 117q13 71 15 90l2 20l2 14h-161q-117 0 -179 -7l-13 -1l-39 88q14 -4 28 -7q15 -3 67 -9t136 -6h646l68 76l79 -48q30 -19 40 -33
q11 -13 11 -24q-1 -14 -15 -25q-13 -11 -28 -17l-39 -17q-2 -15 -2 -22l-16 -148l-23 -216q-15 -113 -36 -187t-44 -118q-24 -44 -62 -75t-76 -34l-54 -7q-2 17 -6 33q-3 16 -20 35q-18 18 -61 35l-76 29l-38 16l8 38l61 -15l72 -19q50 -13 83 -12t67 21q33 20 55 113
q22 94 33 164q10 71 23 214l16 184zM530 1929l139 -58q12 -6 20 -14t10 -21q2 -12 -14 -20q-16 -9 -39 -10l-45 -3q-29 -50 -50 -83t-44 -64l-47 -65q31 -7 48 -17q16 -11 20 -33t-26 -27l-39 -13l1 -412q0 -36 4 -106q3 -70 6 -106q4 -36 4 -51q-1 -11 -4.5 -19.5
t-27.5 -24.5q-23 -17 -58 8q-15 10 -17 18t-2 50v634l-53 -52q-22 -20 -64 -52q-41 -32 -66 -48l-53 -34l-23 39l39 33q24 20 50 46q26 25 65 70q38 45 71 89t61 87q28 44 62 105q33 61 42 82zM1482 530l42 -8q-3 -43 -4 -60q0 -15 -2 -60q-1 -44 1 -60q1 -17 5 -38
q5 -21 20 -37l40 -32q18 -18 18 -37q1 -20 -34 -43q-26 -17 -64 -26q-37 -9 -96 -17t-96 -10q-38 -2 -138 -4t-116 -1q-74 0 -160 5q-87 5 -138 11q-50 6 -80 19q-29 13 -44 31t-20 39q-6 22 -6 45v328q0 80 -3 122l-2 25l-1 13l109 -24q50 -12 67 -21q16 -9 17 -23t-13 -25
q-13 -12 -35 -18l-43 -12v-312q0 -42 15 -62t45 -27t78 -11q48 -3 90 -5t142 0q79 0 140 2t112 9q51 6 74 22q23 15 34 42t17 65zM1645 682l69 -48q34 -24 62 -47q29 -23 66 -59q36 -36 69 -78q33 -41 48 -74q15 -34 15 -68q1 -33 -10 -52q-12 -18 -33 -24q-21 -7 -38 2
q-16 7 -24 22t-16 46q-8 30 -21 64q-13 33 -29 64q-16 30 -41 66q-25 35 -52 64q-26 30 -51 54l-41 38zM353 679l42 -8q-6 -52 -10 -94t-10 -81q-6 -38 -21 -91q-14 -53 -30 -87q-15 -34 -36 -62q-22 -29 -40 -46q-19 -17 -42 -29t-49 -13q-26 -2 -43 12t-17 40t12 41t45 35
q32 21 56 42q24 22 44 50q21 27 37 60t29 76q13 44 19 78zM957 754q29 -11 40 -16t63 -30q53 -26 72 -36q18 -11 54 -38q35 -26 55 -48t33 -50q14 -27 12 -52q-2 -22 -15 -38q-13 -15 -36 -18t-45 18q-12 10 -30 50q-19 40 -40 69q-22 29 -46 53q-24 23 -54 45l-44 31
l-38 24z" />
  </g>

</svg>
