<?xml version="1.0" standalone="no"?>
<!DOCTYPE svg PUBLIC "-//W3C//DTD SVG 1.1//EN" "http://www.w3.org/Graphics/SVG/1.1/DTD/svg11.dtd" >
<svg xmlns="http://www.w3.org/2000/svg" xmlns:xlink="http://www.w3.org/1999/xlink" version="1.1" viewBox="0 -205 1024 1024">
  <g transform="matrix(1 0 0 -1 0 819)">
   <path fill="currentColor"
d="M860 860l54 -40q12 -6 12 -14q0 -6 -32 -26v-212l4 -98q0 -15 -18 -26q-17 -9 -40 -12v24h-168q39 -120 78 -176q80 72 136 144q60 -46 60 -52q1 -6 -4 -6q-3 -1 -18 -2q-13 0 -58 -30q-43 -28 -104 -70q29 -43 62 -70q32 -24 70 -48q38 -19 112 -37v-18q-30 3 -54 -4
q-20 -9 -46 -30q-61 49 -112 99q-49 50 -86 118q-36 68 -62 182h-74v-349l142 79l12 -14q-101 -71 -130 -97q-29 -23 -52 -56l-62 48q24 15 36 36v757l56 -38h256l30 38v0v0zM572 794v-148h268v148h-268v0v0zM572 620v-140h268v140h-268v0v0zM614 972l8 12q66 -31 90 -50
q22 -18 32 -36q9 -19 -2 -38q-9 -19 -30 -16q-18 2 -24 20t-14 40q-6 20 -60 68v0v0zM144 888h218l42 46l56 -56q3 -3 4 -8q0 -9 -8 -8h-156v-126h66l32 38l56 -48q3 -3 4 -8q-1 -7 -10 -8h-148v-112h74l32 42l58 -52q3 -3 4 -8q-1 -7 -10 -8h-158v-122h92l28 36l58 -42
q15 -13 -6 -22l-20 -12q-5 -121 -10 -194q-6 -71 -14 -103q-10 -31 -28 -50q-18 -17 -60 -38q-6 29 -26 46q-22 18 -100 38l4 20q50 -8 80 -14q28 -4 50 -2q22 0 32 26q9 22 12 91q4 69 8 192h-260v-10q2 -15 -16 -26q-18 -13 -36 -14l4 142v422l52 -48v0v0zM140 450h110
v122h-110v-122v0v0zM140 598h110v112h-110v-112v0v0zM250 736v126h-110v-126h110v0v0zM82 358h20q10 -115 2 -152q-6 -36 -24 -48q-18 -13 -32 -14q-13 0 -22 16q-9 15 6 30q14 14 28 34q12 20 22 134v0v0zM134 350l12 8q42 -59 52 -94q9 -34 4 -52q-3 -19 -14 -28
q-12 -8 -24 0q-13 5 -14 26v52q1 33 -16 88v0v0zM206 368l12 8q53 -59 68 -88q12 -29 10 -46q0 -15 -12 -24q-12 -7 -24 -2q-12 3 -14 24q-1 18 -8 46q-6 27 -32 82v0v0zM284 388l10 10q57 -51 72 -80q15 -27 12 -48q-1 -21 -14 -30q-12 -8 -24 0t-12 26q0 17 -6 44
q-6 24 -38 78v0v0z" />
  </g>

</svg>
