<?xml version="1.0" standalone="no"?>
<!DOCTYPE svg PUBLIC "-//W3C//DTD SVG 1.1//EN" "http://www.w3.org/Graphics/SVG/1.1/DTD/svg11.dtd" >
<svg xmlns="http://www.w3.org/2000/svg" xmlns:xlink="http://www.w3.org/1999/xlink" version="1.1" viewBox="0 -52 256 256">
  <g transform="matrix(1 0 0 -1 0 204)">
   <path fill="currentColor"
d="M44 249l1 2q14 -4 27 -15q10 -11 11 -20q0 -9 -6 -10q-6 0 -6 7q-2 9 -8 19q-7 10 -19 17zM229 225v-181q1 -14 -2 -20q-3 -7 -17 -10q-1 9 -9 11q-7 3 -22 6l1 4q9 -1 21 -4q10 -2 12 -2q6 1 5 11v189h-103q-6 0 -10 -4l-8 9h118l8 9l11 -10q2 -1 2 -3q0 -1 -2 -2z
M27 219l21 -9q3 -1 2 -3q-6 -2 -7 -5v-154l1 -23q0 -5 -4 -8q-3 -2 -10 -3q1 4 1 23q1 14 1 23v145q1 3 -8 11zM77 203l10 -8h76l9 11l12 -13q2 -1 2 -2q-1 -1 -3 -1l-5 -2v-29l2 -13q-1 -4 -3 -6l-9 -3v12h-80v-2q0 -5 -3 -8t-9 -4q1 5 1 20q1 9 1 16v20q0 1 -1 2q0 6 -3 8
zM61 129l9 -10h34l9 11l11 -13q2 -2 1 -2q0 -1 -3 -2l-4 -2v-34l1 -22q0 -4 -2 -6l-9 -3v16h-36v-7q0 -6 -2 -8t-7 -4h-2q0 6 1 17q1 4 1 7v49q-2 5 -5 10zM142 128l9 -8h33l8 10l12 -13l2 -1q0 -1 -3 -2l-4 -3v-34l2 -20q0 -6 -3 -7t-8 -3v16h-36v-6q0 -6 -3 -8
q-1 -3 -9 -4q2 10 2 32v38q0 6 -5 10zM168 191h-80v-37h80v37zM190 115h-36v-48h36v48zM108 114h-36v-47h36v47z" />
  </g>

</svg>
