<?xml version="1.0" standalone="no"?>
<!DOCTYPE svg PUBLIC "-//W3C//DTD SVG 1.1//EN" "http://www.w3.org/Graphics/SVG/1.1/DTD/svg11.dtd" >
<svg xmlns="http://www.w3.org/2000/svg" xmlns:xlink="http://www.w3.org/1999/xlink" version="1.1" viewBox="0 -205 1024 1024">
  <g transform="matrix(1 0 0 -1 0 819)">
   <path fill="currentColor"
d="M416 716h228v252l74 -30q9 -4 10 -10q-1 -7 -32 -20v-192h190l34 48q56 -49 64 -58q7 -10 -4 -16h-252q18 -79 30 -124q10 -43 26 -98q51 71 102 158q66 -46 66 -52q1 -7 -4 -8q-3 -1 -20 -4q-17 0 -46 -30q-30 -28 -90 -88q26 -60 52 -102q24 -42 66 -84q40 -43 92 -62
v-16q-30 3 -54 -2q-23 -5 -46 -22q-34 39 -64 90q-30 50 -50 98q-21 46 -42 128t-42 218h-8v-548q1 -67 -22 -91q-21 -21 -66 -36q-7 30 -32 44q-24 16 -102 40l6 18q98 -24 122 -24q21 0 34 8q10 10 8 59v244q-95 -118 -118 -142q-21 -25 -48 -76l-60 44q81 64 226 212v248
h-158q-20 0 -46 -8l-24 34v0v0zM444 602l10 12q64 -39 92 -66q28 -25 32 -52q3 -27 -8 -38q-10 -13 -28 -10q-18 -1 -24 26q-3 26 -18 56q-13 30 -56 72v0v0zM760 894l6 12q62 -19 88 -34q24 -15 36 -36q12 -22 4 -40q-10 -18 -28 -18q-19 0 -26 22q-6 21 -20 42
q-12 20 -60 52v0v0zM70 766l50 -34h78v226l76 -28q12 -6 4 -18l-26 -16v-164h62l26 36l56 -38q12 -9 4 -14l-24 -22v-238l4 -60q3 -15 -14 -26q-15 -12 -42 -14v50h-72v-212l94 24q-20 41 -52 86l12 12q71 -64 92 -92q18 -27 24 -48q4 -21 -4 -36q-7 -12 -22 -15
q-16 -3 -22 6q-7 7 -8 19q0 12 -12 48q-153 -52 -204 -71q-52 -22 -82 -44l-38 59l168 42v222h-76v-44q0 -12 -18 -24q-19 -12 -38 -12l4 76v364v0v0zM122 430h76v278h-76v-278v0v0zM252 708v-278h72v278h-72v0v0z" />
  </g>

</svg>
