<?xml version="1.0" standalone="no"?>
<!DOCTYPE svg PUBLIC "-//W3C//DTD SVG 1.1//EN" "http://www.w3.org/Graphics/SVG/1.1/DTD/svg11.dtd" >
<svg xmlns="http://www.w3.org/2000/svg" xmlns:xlink="http://www.w3.org/1999/xlink" version="1.1" viewBox="0 -205 1024 1024">
  <g transform="matrix(1 0 0 -1 0 819)">
   <path fill="currentColor"
d="M798 864q-51 -12 -140 -38v-304l180 38l36 56l72 -46q11 -7 8 -16q0 -4 -8 -4l-288 -54v-350q0 -28 10 -37q12 -9 48 -10h176q30 3 36 20q9 18 12 45t10 120h18q3 -87 6 -116q3 -28 28 -37q-13 -48 -56 -70l-42 -6h-202q-34 0 -52 6q-18 3 -30 20t-12 58v345l-168 -24
q-18 -4 -24 -14l-30 32l222 36v302q-88 -16 -190 -32l-4 16q330 87 418 142l60 -60q6 -9 -6 -14q-37 10 -88 -4v0v0zM292 944q15 -12 -2 -20q-27 -12 -36 -38q-6 -28 -26 -142h112l34 44l60 -46q10 -7 8 -10q0 -6 -36 -24q-17 -159 -40 -254q-21 -93 -62 -164q66 -39 96 -66
q27 -27 34 -48t-4 -36q-9 -14 -24 -13t-26 23q-12 21 -42 54q-30 31 -56 50q-52 -72 -106 -121q-54 -50 -144 -98l-10 16q77 52 134 111q56 59 94 116q-43 29 -146 86q38 144 70 354h-70q-19 0 -46 -6l-22 32h142q18 111 34 232l80 -32v0v0zM266 310q38 72 58 168
q17 96 32 240h-132q-37 -183 -76 -348q62 -33 118 -60v0v0z" />
  </g>

</svg>
