<?xml version="1.0" standalone="no"?>
<!DOCTYPE svg PUBLIC "-//W3C//DTD SVG 1.1//EN" "http://www.w3.org/Graphics/SVG/1.1/DTD/svg11.dtd" >
<svg xmlns="http://www.w3.org/2000/svg" xmlns:xlink="http://www.w3.org/1999/xlink" version="1.1" viewBox="0 -154 1024 1024">
  <g transform="matrix(1 0 0 -1 0 870)">
   <path fill="currentColor"
d="M495 969l35 -43h368l35 41l48 -49q14 -12 -6 -17l-18 -9v-676l4 -103q3 -42 -46 -44v77h-375v-51q2 -39 -49 -46q5 39 7 181v683q-3 24 -19 44zM540 166h375v740h-375v-229h207l37 39l50 -47q6 -5 6 -8q0 -4 -12 -7l-18 -9v-141l5 -112q0 -30 -49 -36v49h-226v-239z
M91 951l33 -33h248l24 32l60 -40q17 -12 -6 -12h-160v-134h56l22 30l58 -34q17 -12 -6 -12h-130v-134h64l24 32l56 -36q17 -12 -6 -12h-138v-132h97l30 29l40 -28q18 -12 0 -19l-16 -13v-145q-2 -95 -20 -137q-18 -43 -51 -67t-87 -35q0 18 -16 32q-27 17 -80 32l2 16
q78 -24 120 -23q27 0 57 29q31 28 37 131v178h-271v-12q4 -38 -45 -44q5 37 7 60v456q2 16 -15 33zM766 659h-226v-236h226v236zM252 898h-120v-134h120v134zM252 748h-120v-134h120v134zM252 598h-120v-132h120v132zM95 356q3 -89 -10 -133q-23 -54 -49 -28q-8 15 7 30
q16 16 25 45t14 86h13zM284 392l8 8q74 -64 72 -114q-2 -26 -17 -26t-17 23t-10 43q-7 21 -36 66zM134 361l10 6q55 -82 43 -130q-7 -23 -23 -22q-16 2 -11 26q7 51 -5 78q-3 13 -14 42zM206 376l8 8q47 -36 60 -84q14 -48 -12 -56q-15 -3 -17 24q-1 28 -9 51q-7 24 -30 57z
" />
  </g>

</svg>
