<?xml version="1.0" standalone="no"?>
<!DOCTYPE svg PUBLIC "-//W3C//DTD SVG 1.1//EN" "http://www.w3.org/Graphics/SVG/1.1/DTD/svg11.dtd" >
<svg xmlns="http://www.w3.org/2000/svg" xmlns:xlink="http://www.w3.org/1999/xlink" version="1.1" viewBox="0 -52 256 256">
  <g transform="matrix(1 0 0 -1 0 204)">
   <path fill="currentColor"
d="M92 186l2 -2q-1 -1 -2 -1q-6 0 -9 -3q-28 -46 -56 -78l57 6v-4l-25 -5q-9 -2 -11 -2q-2 -1 -7 -2q-4 0 -10 -3q-6 -2 -10 -8l-9 16l6 3q3 1 5 2q8 10 22 34q7 11 11 17l2 2l1 2q-12 -3 -20 -3q-20 -3 -24 -12l-10 15q8 3 9 5q2 2 6 9q5 6 15 27q11 20 17 37q0 6 -2 9l1 2
l19 -12q3 -3 0 -4q-4 1 -9 -2q-21 -40 -40 -68l41 2q9 12 12 24q0 5 -3 7l2 3zM66 57q-30 -14 -34 -17q-5 -2 -11 -10l-11 14l81 30l1 -5zM209 240q2 -2 -1 -2q-3 1 -7 -4q1 -32 -2 -56h20l7 8l16 -11q5 -3 -1 -2h-34l3 -18q1 -4 1 -6q13 -55 41 -63v-4h-4q-11 1 -16 -4
q-18 21 -27 57q-3 16 -4 38h-2q-1 -12 -3 -21q-12 -63 -59 -82l-1 2q42 26 50 80q2 9 3 21h-11q-7 0 -11 -4l-8 9h30q2 24 2 59q-2 5 -5 8l2 2zM140 238q2 -1 0 -2q-5 1 -10 -5q-3 -12 -6 -22h24l7 8l11 -11q2 -2 1 -2q0 -1 -2 -1q-5 1 -6 -10v-2q-3 -16 -9 -33
q-17 -59 -66 -80l-2 2q43 28 57 76q10 27 11 48h-27l-3 -9q-3 -6 -4 -9q5 -2 8 -5q16 -11 12 -22q-2 -4 -6 -4q-3 1 -3 6q0 6 -4 12l-3 3q-3 4 -6 6q-1 -3 -3 -8q-1 -2 -2 -3l-3 -6q-3 -6 -5 -8q5 -3 9 -6q16 -19 5 -26q-4 0 -4 6t-3 12q-3 5 -9 11q-9 -14 -18 -20l-1 2
q9 12 20 33q12 27 15 43q7 26 6 27q0 4 -3 8l2 2zM207 64l2 3q25 -17 33 -29q3 -8 2 -15q-1 -6 -7 -6q-5 0 -5 8q2 8 -6 16q-6 11 -19 23zM110 62q0 -5 -2 -18q2 9 0 -3q-2 -11 -7 -19q-12 -13 -18 -4q-2 4 4 8q5 3 10 10q6 7 9 26h4zM174 61l2 3q19 -16 23 -28
q2 -15 -7 -17q-5 1 -5 8q0 8 -2 13q-2 8 -11 21zM136 59l3 1q29 -31 10 -43q-5 0 -4 9t-1 15q-2 8 -8 18zM208 222l1 3q20 -8 24 -16q6 -13 -2 -15q-4 0 -6 6q-1 6 -4 11q-4 6 -13 11z" />
  </g>

</svg>
