<?xml version="1.0" standalone="no"?>
<!DOCTYPE svg PUBLIC "-//W3C//DTD SVG 1.1//EN" "http://www.w3.org/Graphics/SVG/1.1/DTD/svg11.dtd" >
<svg xmlns="http://www.w3.org/2000/svg" xmlns:xlink="http://www.w3.org/1999/xlink" version="1.1" viewBox="0 -144 1024 1024">
  <g transform="matrix(1 0 0 -1 0 880)">
   <path fill="currentColor"
d="M570 506l-4 -59l-8 -56l-10 -53l-15 -51l-19 -47l-22 -45l-27 -41l-30 -39l-34 -34l-38 -30l-7 7l30 37l26 38l23 39l20 41l17 43l13 45l10 48l6 50l4 52v55h65zM644 934l17 -26l24 -25v-19l-19 8l-39 -20l-28 -12l-29 -13v-268h156v393l64 -11l16 -11l-16 -9v-362h43
l54 54l64 -54v-21h-161v-452l-64 -32v484h-156v-32h-65v32h-145v21h145v244l-33 -11l-34 -10l-38 -9l-39 -8l-3 9l147 75v1h1l69 37l47 31l18 12zM193 970l60 -26l13 -15l-21 -6l-16 -38l-18 -40l-21 -39l-31 -49h122l32 27l59 -49l-26 -21v-534l-65 -32v53h-181v-64
l-64 -32v684l64 -32h45l4 16l5 22l25 106l5 21l6 34zM281 476h-181v-253h181v253zM847 287l-2 18l-3 18l-4 18l-4 16l-6 17l-6 16l-14 32l-9 15l7 7l29 -24l13 -14l12 -15l11 -16l11 -17l9 -18l8 -20l7 -20l6 -21l-6 -24l-20 -13l-24 6l-13 20zM281 735h-181v-237h181v237z
" />
  </g>

</svg>
