<?xml version="1.0" standalone="no"?>
<!DOCTYPE svg PUBLIC "-//W3C//DTD SVG 1.1//EN" "http://www.w3.org/Graphics/SVG/1.1/DTD/svg11.dtd" >
<svg xmlns="http://www.w3.org/2000/svg" xmlns:xlink="http://www.w3.org/1999/xlink" version="1.1" viewBox="0 -200 999 1000">
  <g transform="matrix(1 0 0 -1 0 800)">
   <path fill="currentColor"
d="M238 91q8 -2 18 -4t19.5 -4t18 -3.5t12.5 -1.5q10 0 16 7t8.5 16t3 18t0.5 13v172h-145q-7 -65 -19.5 -114t-29 -85t-37.5 -61.5t-46 -43.5l-9 7q19 29 34.5 59.5t27.5 67t20 82.5t13 106l7 387l63 -32h111l32 37l58 -46l-31 -36v-527q0 -11 -4 -26.5t-13 -29.5
t-24.5 -24t-38.5 -10q-5 17 -18 34t-49 31zM189 325h145v158h-141zM192 503h142v153h-134l-2 -13zM709 282h135l45 40l60 -61h-240v-226q-6 -14 -19.5 -25.5t-25.5 -11.5v263h-159l-59 -9l-17 30h235v226l62 -29l-17 -62v-135zM540 610l-57 -9l-24 29h201v127l65 -30
l-16 -61v-36h113l39 39l58 -59h-379zM443 352q25 37 41.5 66t28.5 56t22 54.5t21 60.5l48 -48l-24 -30l-29 -53q29 -17 43 -35.5t24 -49.5q0 -21 -9.5 -32.5t-17.5 -11.5t-13.5 10.5t-5.5 23.5q0 2 0.5 3.5t0.5 3.5q-5 16 -7.5 26.5t-5 18.5t-6 15.5t-10.5 18.5
q-21 -30 -40.5 -56t-51.5 -49zM761 369q15 30 25.5 58t19 56t15.5 56t15 58l48 -48l-22 -27l-22 -50q32 -22 55 -41.5t23 -46.5q0 -15 -8 -22t-16 -7q-11 0 -15.5 8.5t-8.5 23t-11 33.5t-23 39q-6 -12 -13.5 -25.5t-16 -27t-17.5 -25.5t-17 -20zM590 853h-178v-70
q-8 -11 -24 -19t-25 -8v96h-171l-66 -10l-17 32h254v123l73 -32l-24 -57v-33h178v117l65 -30l-14 -55v-32h131l48 40l62 -62h-241v-62q-7 -9 -21.5 -16.5t-29.5 -11.5v90z" />
  </g>

</svg>
