<?xml version="1.0" standalone="no"?>
<!DOCTYPE svg PUBLIC "-//W3C//DTD SVG 1.1//EN" "http://www.w3.org/Graphics/SVG/1.1/DTD/svg11.dtd" >
<svg xmlns="http://www.w3.org/2000/svg" xmlns:xlink="http://www.w3.org/1999/xlink" version="1.1" viewBox="0 -36 256 256">
  <g transform="matrix(1 0 0 -1 0 220)">
   <path fill="currentColor"
d="M98 100l-15 -6q1 17 1 27v34h-26q-5 -45 -43 -65l-1 3q27 23 31 62h-7l-11 -3l-10 10h67v23h-30l-6 -5l-14 10l7 7v13v24l20 -8l-7 -4v-30h30v28q0 11 -1 25l21 -8l-7 -7v-104q0 -12 1 -26zM132 203l-3 -2q-14 -7 -25 -12l-1 3q19 11 36 26t24 28l17 -11q-7 -2 -11 -5
t-7 -5h50l7 6l16 -14l-10 -4q-53 -47 -124 -56l-1 4q42 9 68.5 25.5t41.5 31.5h-54q-3 -1 -7 -4q15 -4 19.5 -9.5t1 -13t-8.5 2t-16 17.5q-7 -5 -13 -8zM180.5 114.5q11.5 -0.5 11.5 5.5v29h-53q-16 0 -25 -3l-10 10h88q0 9 -1 25l22 -7l-8 -6v-12h11l10 11l18 -18h-39v-29
q1 -20 -20 -25q-1 12 -24 18v3q8 -1 19.5 -1.5zM151.5 122.5q-1.5 -7.5 -5.5 -11.5t-6.5 5.5t-15.5 29.5l3 1q26 -17 24.5 -24.5zM38 88q17 -7 27 -13t10.5 -12.5t-3 -12t-10 6t-25.5 28.5zM75.5 32q20.5 12 30 32.5t8.5 40.5l22 -9l-8 -5q4 -13 20 -32q30 23 37 33l18 -12
q-14 -2 -26 -9t-25 -16q37 -32 95 -32v-4q-22 -4 -22 -11q-74 13 -99 69q-11 -36 -41 -50.5t-73 -18.5v4q43 8 63.5 20zM151 195v-4q-14 -7 -21 -11.5t-9 -8.5l-8 13q18 4 38 11z" />
  </g>

</svg>
