<?xml version="1.0" standalone="no"?>
<!DOCTYPE svg PUBLIC "-//W3C//DTD SVG 1.1//EN" "http://www.w3.org/Graphics/SVG/1.1/DTD/svg11.dtd" >
<svg xmlns="http://www.w3.org/2000/svg" xmlns:xlink="http://www.w3.org/1999/xlink" version="1.1" viewBox="0 -36 256 256">
  <g transform="matrix(1 0 0 -1 0 220)">
   <path fill="currentColor"
d="M209 230l15 14l18 -21h-187q-22 1 -28 -3l-13 10h195zM53 204l18 -9h109l11 11l16 -14l-9 -6v-43h10l12 11l17 -18h-39v-39h15l13 12l19 -19h-47v-54q2 -18 -19 -28q-2 18 -30 20v4q27 -1 31 1t3 12v45h-115v-72l-15 -10q1 46 1 82h-15q-12 1 -19 -3l-11 10h45v39h-24
l-9 -2l-11 9h44q0 47 -1 61zM68 143h115v45h-115v-45zM183 136h-115v-39h115v39z" />
  </g>

</svg>
