<?xml version="1.0" standalone="no"?>
<!DOCTYPE svg PUBLIC "-//W3C//DTD SVG 1.1//EN" "http://www.w3.org/Graphics/SVG/1.1/DTD/svg11.dtd" >
<svg xmlns="http://www.w3.org/2000/svg" xmlns:xlink="http://www.w3.org/1999/xlink" version="1.1" viewBox="0 -205 1024 1024">
  <g transform="matrix(1 0 0 -1 0 819)">
   <path fill="currentColor"
d="M864 840l38 48l62 -56q3 -3 4 -8q0 -12 -12 -12h-196v-244q1 -46 -16 -64q-15 -19 -60 -28q-6 24 -24 36q-19 12 -70 24l4 20q39 -7 64 -10q22 -5 38 0q16 6 14 42v224h-132v-64q-1 -100 -44 -182q-41 -81 -148 -144l-8 14q78 63 114 138q33 72 34 174v64h-140
q-21 -1 -48 -10l-26 38h552v0v0zM538 970l6 14q65 -21 92 -38q26 -15 34 -36q7 -19 -4 -34q-9 -15 -26 -14q-18 -1 -24 20q-6 18 -24 42q-18 23 -54 46v0v0zM402 652q-28 -48 -86 -132l-16 8q53 105 98 234q69 -27 70 -36q0 -8 -6 -10q-6 0 -18 -8q-12 -9 -42 -56v0v0z
M814 748q93 -69 114 -102q20 -32 20 -52q-1 -21 -14 -30q-13 -11 -28 -6t-18 26q-1 18 -14 52q-13 33 -70 102l10 10v0v0zM258 328h212v130l72 -26q13 -4 8 -14q1 0 -28 -18v-72h196v126l76 -24q3 -3 4 -6q4 -4 -4 -10l-22 -12v-74h120l32 46l52 -52q10 -9 8 -14q0 -6 -8 -6
h-204v-144l4 -77q3 -15 -18 -28q-19 -14 -44 -16l4 104v161h-196l-10 -56q-18 -68 -72 -121q-52 -53 -154 -98l-8 14q84 55 120 94q33 37 52 77q17 39 20 90h-128q-19 0 -64 -8l-20 34v0v0zM158 426q-19 -49 -40 -52t-84 -2l-2 -20q42 -6 66 -14q25 -7 32 -22q8 -13 10 -44
q1 -31 -6 -88q-9 -56 -6 -85q0 -28 16 -38q15 -6 30 0q15 9 18 36q3 25 -6 87q-10 62 -10 104t4 64q4 21 14 54l136 370l-22 6l-150 -356v0v0zM114 964l6 14q48 -18 82 -36q33 -15 52 -36q17 -19 20 -40q3 -19 -8 -32q-12 -13 -26 -14q-16 1 -22 14q-6 14 -14 34
q-6 20 -24 38q-15 18 -66 58v0v0zM32 720l6 14q42 -16 78 -34q35 -16 50 -34q15 -15 18 -36q1 -18 -10 -30q-9 -12 -24 -12t-20 12q-6 13 -14 32q-10 17 -28 40q-18 21 -56 48v0v0z" />
  </g>

</svg>
