<?xml version="1.0" standalone="no"?>
<!DOCTYPE svg PUBLIC "-//W3C//DTD SVG 1.1//EN" "http://www.w3.org/Graphics/SVG/1.1/DTD/svg11.dtd" >
<svg xmlns="http://www.w3.org/2000/svg" xmlns:xlink="http://www.w3.org/1999/xlink" version="1.1" viewBox="0 -205 1024 1024">
  <g transform="matrix(1 0 0 -1 0 819)">
   <path fill="currentColor"
d="M921 81q-18 -25 -45 -35q-9 -5 -13 5q-9 21 -33 37t-73 20q-12 2 -11 12q1 9 14 8q118 -5 124 -2q7 4 7 25v739h-125q-42 -1 -73 -7q-9 -3 -10 6q-5 18 -20 31q-8 7 -4 11q4 3 11 -1q38 -9 84 -9h120q9 0 10 1l25 33q2 4 6 4t8 -4q31 -25 55 -50q7 -8 -9 -14
q-24 -10 -27 -14q-3 -6 -3 -13v-724q0 -34 -18 -59zM637 275q-1 -8 -5 -9q-10 -4 -32 -13q-15 -6 -14 4q2 26 3 51v370q-1 26 -2 45q0 9 4 10q4 3 13 -6q13 -13 31 -26h120q6 0 9 4l18 28q7 8 14 1q29 -19 57 -41q6 -6 5 -12q-3 -6 -13 -7q-12 -2 -18 -12q-4 -9 -4 -22v-260
q0 -32 6 -87q2 -12 -7 -16q-35 -20 -42 -20q-5 1 -5 11v58h-138v-51zM637 670v-141h138v141h-138zM637 498v-141h138v141h-138zM399 84q-20 -24 -45 -33q-8 -1 -9 2q-6 17 -22 36q-11 10 -33 23q-1 -6 -7 -7l-44 -18q-9 -2 -8 14q6 133 7 224v33h-82q-5 -73 -15 -134
q-15 -84 -66 -169q-9 -15 -21 -6q-9 6 0 22q29 63 41 133q15 92 15 222v201q0 39 -4 94q-19 -23 -41 -48q-10 -11 -17 -4t2 17q52 68 92 165q41 97 42 128q3 17 19 7q37 -23 52 -35q11 -8 10 -14q0 -4 -13 -5q-12 -3 -16 -7q-8 -6 -26 -40h102q10 0 14 6l28 30q3 4 7 4t7 -4
q31 -32 49 -56q8 -12 -7 -13q-27 -4 -43 -11q-14 -11 -32 -36q-27 -31 -52 -76h70q9 0 10 1l25 33q2 4 6 4t8 -4q31 -25 55 -50q7 -9 0 -12q-33 -16 -36 -20q-3 -5 -3 -9v-531q0 -35 -19 -57zM238 530h-80v-104q0 -18 -1 -37h81v141zM286 358v-33q1 -105 2 -184q17 -2 41 -6
q26 -4 32 -1q9 3 9 21v203h-84zM370 389v141h-84v-141h84zM238 698h-80v-137h80v137zM286 561h84v137h-84v-137zM308 854h-115q-23 -41 -51 -84q-8 -11 -15 -21q13 -10 29 -20h102q1 2 2 3q26 64 48 122zM476 817q54 -17 72 -27q14 -7 -2 -16q-16 -8 -20 -18q-7 -19 -7 -80
v-395q0 -117 4 -196q1 -8 -5 -12l-42 -27q-13 -10 -12 11q6 133 7 224v395q-1 80 -5 128q-2 17 10 13zM508 969q6 9 19 0q104 -62 108 -98q-1 -25 -14 -38q-15 -14 -21 -14q-7 0 -14 21q-32 80 -74 114q-8 8 -4 15z" />
  </g>

</svg>
