<?xml version="1.0" standalone="no"?>
<!DOCTYPE svg PUBLIC "-//W3C//DTD SVG 1.1//EN" "http://www.w3.org/Graphics/SVG/1.1/DTD/svg11.dtd" >
<svg xmlns="http://www.w3.org/2000/svg" xmlns:xlink="http://www.w3.org/1999/xlink" version="1.1" viewBox="0 -36 256 256">
  <g transform="matrix(1 0 0 -1 0 220)">
   <path fill="currentColor"
d="M47 166h59l6 11l15 -10l-7 -7q-3 -97 -7 -114.5t-10.5 -23.5t-17.5 -10q-3 12 -24 19l1 4q20 -4 26 -4t10.5 12.5t8.5 116.5h-9q-9 -65 -30.5 -94t-50.5 -47l-2 3q26 22 43.5 51t26.5 87h-14q-8 -39 -21.5 -60.5t-35.5 -37.5l-3 3q16 13 28.5 38.5t17.5 56.5h-12
q-12 -26 -30 -44l-3 2q13 19 20 42t9 39l21 -8l-7 -5zM157 166h62l9 9l15 -13l-9 -3q-3 -97 -6 -113t-9 -22.5t-19 -11.5q-1 11 -25 19l1 4q23 -4 27.5 -4t9 12.5t8.5 116.5h-11q-10 -66 -33 -95t-51 -46l-3 3q24 18 44.5 49t28.5 89h-14q-7 -39 -21.5 -60.5t-37.5 -37.5
l-4 3q17 13 30.5 38.5t18.5 56.5h-13q-12 -25 -30 -44l-3 2q11 18 19 41.5t10 37.5l22 -10l-8 -3q-4 -8 -8 -18zM69 244l23 -7l-8 -8v-24h27l11 11l17 -18h-55v-34h-14q0 68 -1 80zM178 244l24 -8l-9 -8v-22h25l11 11l17 -18h-53v-35h-14q0 68 -1 80z" />
  </g>

</svg>
