<?xml version="1.0" standalone="no"?>
<!DOCTYPE svg PUBLIC "-//W3C//DTD SVG 1.1//EN" "http://www.w3.org/Graphics/SVG/1.1/DTD/svg11.dtd" >
<svg xmlns="http://www.w3.org/2000/svg" xmlns:xlink="http://www.w3.org/1999/xlink" version="1.1" viewBox="0 -205 1024 1024">
  <g transform="matrix(1 0 0 -1 0 819)">
   <path fill="currentColor"
d="M390 830h120v136l78 -28q6 -1 4 -8q-1 -4 -34 -20v-80h212v132l80 -28q6 -5 4 -10q0 -3 -36 -18v-76h80l34 46l54 -56l6 -8q1 -9 -12 -8h-162v-62l4 -64q-3 -15 -18 -24q-14 -7 -34 -8v40h-82v-86h160l30 34l48 -40q9 -6 10 -12q0 -4 -30 -26v-68l4 -50q-1 -19 -16 -28
q-15 -10 -36 -10v30h-170v-90h178l32 38l50 -48q2 -2 2 -4q3 -12 -8 -12h-254v-92h122l34 48l58 -56q2 -3 2 -6q0 -12 -12 -12h-204v-107h212l34 46l60 -54q3 -3 4 -6q0 -12 -12 -12h-606q-22 1 -46 -8l-14 34h318v107h-156q-22 0 -46 -8l-18 34h220v92h-172q-30 0 -54 -8
l-18 34h244v90h-164v-12q0 -13 -12 -22q-10 -10 -40 -10l4 92v158l58 -36h154v86h-80v-18q-6 -13 -18 -20q-13 -4 -34 -4l4 98v62h-40q-19 0 -62 -8l-18 34v0v0zM558 714h212v90h-212v-90v0v0zM474 456h164v118h-164v-118v0v0zM688 574v-118h170v118h-170v0v0zM44 834h242
l32 44l56 -52q3 -3 4 -8q0 -12 -12 -12h-122v-236h34l36 42l52 -54q3 -2 4 -4q0 -12 -8 -12h-118v-258l114 34l10 -18q-180 -74 -222 -94q-40 -19 -70 -46l-46 56l166 52v274h-58q-21 0 -68 -8l-16 36h142v236h-80q-21 0 -56 -8l-16 36v0v0z" />
  </g>

</svg>
