<?xml version="1.0" standalone="no"?>
<!DOCTYPE svg PUBLIC "-//W3C//DTD SVG 1.1//EN" "http://www.w3.org/Graphics/SVG/1.1/DTD/svg11.dtd" >
<svg xmlns="http://www.w3.org/2000/svg" xmlns:xlink="http://www.w3.org/1999/xlink" version="1.1" viewBox="0 -144 1024 1024">
  <g transform="matrix(1 0 0 -1 0 880)">
   <path fill="currentColor"
d="M123 897l65 -32h301v124l65 -11l16 -11l-16 -9v-93h252l54 54l64 -54v-21h-736v-377l-3 -59l-6 -56l-8 -54l-10 -49l-13 -46l-16 -42l-18 -38l-22 -34l-24 -30l-27 -25l-7 7l17 30l16 32l14 35l13 37l10 41l8 43l6 47l4 51l1 53v487zM834 69l-78 29l-69 45l-27 26
l-27 -13l-67 -27l-68 -25l-70 -21l-72 -17l-75 -13l-76 -9l-2 9l145 41l69 23l67 26l65 28l61 30l13 7l-43 65l-38 85l-22 77h-246v22h240l-17 109l-2 14h-296v22h295l-6 86v27h-214v21h214v88l1 12l64 -15l16 -11l-16 -9l-1 -65h211l32 27l60 -48l-27 -22v-91h31l44 48
l54 -48v-22h-129v-156l-65 -32v43h-176l16 -55l34 -76l41 -62l2 -2l48 30l55 39l53 41l40 -51l1 -19l-19 7l-40 -28l-60 -38l-38 -21l8 -7l57 -37l66 -25l44 -7l29 128h11l-10 -134h2l22 -11l7 -24l-11 -22l-24 -7zM763 580h-203l17 -111l4 -12h182v123zM763 715h-211v-25
l6 -88h205v113z" />
  </g>

</svg>
