<?xml version="1.0" standalone="no"?>
<!DOCTYPE svg PUBLIC "-//W3C//DTD SVG 1.1//EN" "http://www.w3.org/Graphics/SVG/1.1/DTD/svg11.dtd" >
<svg xmlns="http://www.w3.org/2000/svg" xmlns:xlink="http://www.w3.org/1999/xlink" version="1.1" viewBox="0 -36 256 256">
  <g transform="matrix(1 0 0 -1 0 220)">
   <path fill="currentColor"
d="M32 208v-121h29v121h-29zM33 215h27l6 10l16 -11l-8 -8v-100q0 -17 1 -35l-14 -5v14h-29v-18l-14 -5q1 10 1 26v96q0 24 -1 43zM104 208h47q0 27 -1 39l20 -7l-6 -5v-7h56l11 9l13 -16h-80v-13h54l6 7l15 -11l-7 -5v-28q0 -14 1 -27l-15 -5v3h-114v-3l-14 -3q1 13 1 27
v24q0 13 -1 27zM104 188q35 -7 29 -14.5t-11 -1t-18 12.5v-36h54q-1 5 -8 15l3 1q24 -8 12 -16h53v52h-25l13 -5l-9 -2q-13 -8 -27 -16q29 -14 25 -22t-11.5 0t-21.5 17q-26 -13 -46 -20l-3 2q23 11 40 22q-14 7 -33 16l2 2q20 -6 37 -14q15 8 31 20h-40q18 -5 13.5 -12
t-9 0.5t-12.5 11.5h-38v-13zM191 187q24 -10 15.5 -15.5t-9 -0.5t-9.5 14zM118 131h87l7 7l13 -9l-6 -7q0 -14 1 -31l-15 -3v3h-86v-4l-15 -4q1 14 1 24.5t-1 29.5zM119 98h86v10h-86v-10zM119 115h86v9h-86v-9zM188 72h-51v-13h51v13zM195 84l12 -8l-6 -4v-7q0 -5 1 -14
l-14 -3v4h-51v-4l-14 -3q1 14 1 22t-1 17l14 -5h51zM170 34q0 -11 1 -23l-16 -3q1 12 1 26h-1h-54l-7 -5l-13 10l7 4v18q0 9 -1 24l21 -7l-7 -7v-30h119v18q0 9 -1 25l21 -8l-6 -6v-18q0 -9 1 -18l-15 -5v5h-50z" />
  </g>

</svg>
