<?xml version="1.0" standalone="no"?>
<!DOCTYPE svg PUBLIC "-//W3C//DTD SVG 1.1//EN" "http://www.w3.org/Graphics/SVG/1.1/DTD/svg11.dtd" >
<svg xmlns="http://www.w3.org/2000/svg" xmlns:xlink="http://www.w3.org/1999/xlink" version="1.1" viewBox="0 -205 1024 1024">
  <g transform="matrix(1 0 0 -1 0 819)">
   <path fill="currentColor"
d="M494 582h250l34 44l52 -50q2 -3 2 -8q1 -12 -10 -12h-252q-21 0 -62 -8l-14 34v0v0zM892 430q-15 -7 -36 -46q-19 -39 -46 -102q-27 -61 -78 -171h134l34 51l64 -55q3 -3 4 -10q0 -12 -14 -12h-512q-22 1 -70 -8l-14 34h346q63 148 136 383q70 -40 74 -46t0 -8
q-5 -4 -22 -10v0v0zM444 466q71 -67 100 -130q30 -60 24 -90q-4 -30 -20 -38q-16 -10 -32 -4q-15 3 -14 46q0 42 -14 90q-13 49 -56 116l12 10v0v0zM608 504q66 -81 88 -138q22 -58 14 -82q-8 -25 -22 -34q-13 -8 -28 0t-12 34q0 27 -8 78q-7 50 -46 134l14 8v0v0zM44 854
h306l44 50l60 -58q3 -4 4 -8q0 -12 -12 -12h-186q-25 -85 -52 -160h118l36 40l54 -48q9 -12 -2 -18l-26 -16q-28 -163 -70 -260q-43 -97 -112 -176q-69 -77 -168 -135l-6 16q99 77 160 163q59 83 92 170q33 86 54 238h-136q-11 -27 -34 -78q50 -24 74 -48t30 -48t0 -38
q-5 -12 -16 -18q-9 -6 -20 -2q-12 2 -18 34q-6 29 -18 56q-13 23 -40 44q-44 -109 -118 -196l-12 10q54 99 96 208q42 108 78 262h-88q-21 0 -56 -8l-16 36v0v0zM718 936q12 -8 4 -16q-10 -2 -26 -10q35 -79 74 -124q35 -45 92 -86q56 -40 134 -52v-20q-25 1 -50 -4
q-24 -6 -48 -30q-54 45 -102 96q-45 52 -72 98q-27 45 -48 108q-69 -127 -132 -218q-63 -90 -138 -150l-10 14q75 88 144 206q68 118 106 218l72 -30v0v0z" />
  </g>

</svg>
