<?xml version="1.0" standalone="no"?>
<!DOCTYPE svg PUBLIC "-//W3C//DTD SVG 1.1//EN" "http://www.w3.org/Graphics/SVG/1.1/DTD/svg11.dtd" >
<svg xmlns="http://www.w3.org/2000/svg" xmlns:xlink="http://www.w3.org/1999/xlink" version="1.1" viewBox="0 -36 256 256">
  <g transform="matrix(1 0 0 -1 0 220)">
   <path fill="currentColor"
d="M59 241q17 -4 24 -10t6.5 -12t-4.5 -10t-8 7.5t-19 22.5zM195.5 197.5q12.5 -5.5 12.5 -15.5t-17.5 1.5t-70.5 31.5l3 4q60 -16 72.5 -21.5zM97 192.5q-26 -10.5 -65 -13.5v4q45 8 64 20.5t24 41.5l20 -9l-8 -6q-9 -27 -35 -37.5zM34 175q15 -4 23 -9.5t3 -14.5t-10 1.5
t-18 19.5zM126.5 139.5q5.5 -4.5 2.5 -12.5t-16.5 3.5t-29.5 16.5q-17 -25 -59 -33l-1 3q32 11 43 26.5t11 39.5l21 -6l-7 -6q-2 -8 -5 -18l5 -1q21 16 29 25l12 -14q-10 -1 -35 -12q24 -7 29.5 -11.5zM141 214q33 17 40 26l15 -14q-8 0 -14 -2t-40 -12zM106 27h40v12h-40
v-12zM216 17l-15 -5v8h-147v-5l-15 -5q1 21 1 28v31q0 8 -1 23l15 -6h44q3 5 9 18h-65q-11 0 -20 -2l-10 9h205l12 10l17 -17h-118q-8 -1 -23 -18h95l7 9l15 -9l-7 -7v-44q0 -6 1 -18zM54 27h38v52h-38v-52zM160 27h41v52h-41v-52zM106 65h40v14h-40v-14zM106 46h40v12h-40
v-12zM131 174q15 -4 23 -9.5t3 -14.5t-10 1.5t-18 19.5zM223.5 139.5q5.5 -4.5 2.5 -12.5t-16.5 3.5t-29.5 16.5q-17 -25 -59 -33l-1 3q32 11 43 26.5t11 39.5l21 -6l-7 -6q-2 -8 -5 -18l5 -1q21 16 29 25l12 -14q-10 -1 -35 -12q24 -7 29.5 -11.5z" />
  </g>

</svg>
