<?xml version="1.0" standalone="no"?>
<!DOCTYPE svg PUBLIC "-//W3C//DTD SVG 1.1//EN" "http://www.w3.org/Graphics/SVG/1.1/DTD/svg11.dtd" >
<svg xmlns="http://www.w3.org/2000/svg" xmlns:xlink="http://www.w3.org/1999/xlink" version="1.1" viewBox="0 -205 1024 1024">
  <g transform="matrix(1 0 0 -1 0 819)">
   <path fill="currentColor"
d="M416 786h250v194l72 -34q7 -3 8 -6q4 -9 -4 -12l-26 -16v-126h178l32 46l56 -52q6 -3 6 -8q0 -10 -12 -10h-260v-114h144l30 40l54 -38q8 -6 8 -12t-24 -24v-501q1 -34 -12 -56q-13 -20 -58 -38q-7 36 -26 44q-18 9 -72 24l4 16q50 -9 70 -12q20 -1 32 4q12 4 10 40v177
h-160v-136l4 -95q0 -13 -20 -26q-21 -13 -38 -14l4 131v140h-152v-136l4 -107q-1 -14 -22 -26q-22 -13 -38 -12l4 143v516l58 -42h146v114h-166q-22 0 -64 -8l-20 32v0v0zM514 336h152v132h-152v-132v0v0zM716 468v-132h160v132h-160v0v0zM514 490h152v134h-152v-134v0v0z
M716 624v-134h160v134h-160v0v0zM770 948q65 -21 86 -36q21 -14 30 -28t6 -28q-4 -15 -14 -20q-9 -7 -20 -2q-12 3 -24 34q-10 30 -68 66l4 14v0v0zM134 628h172l32 44l58 -56q2 -3 2 -8q1 -6 -4 -6h-140v-158h62l36 44l54 -50q3 -1 4 -8q0 -13 -14 -10h-142v-258l146 104
l12 -12q-165 -138 -192 -199l-54 56q21 12 42 33v276h-76q-18 0 -66 -8l-18 32h160v158h-32l-18 -8l-24 34v0v0zM280 934q7 -3 8 -6q3 -9 -8 -14q-24 -6 -36 -30q-24 -60 -38 -96h102l36 44l56 -54q2 -3 2 -6q0 -9 -6 -8h-200q-32 -73 -70 -148q-36 -75 -80 -138l-12 8
q69 150 114 276q45 125 66 206l66 -34v0v0z" />
  </g>

</svg>
