<?xml version="1.0" standalone="no"?>
<!DOCTYPE svg PUBLIC "-//W3C//DTD SVG 1.1//EN" "http://www.w3.org/Graphics/SVG/1.1/DTD/svg11.dtd" >
<svg xmlns="http://www.w3.org/2000/svg" xmlns:xlink="http://www.w3.org/1999/xlink" version="1.1" viewBox="0 -205 1024 1024">
  <g transform="matrix(1 0 0 -1 0 819)">
   <path fill="currentColor"
d="M960 95h-538v-48q0 -20 -18 -32q-17 -12 -34 -12l4 86v249q-58 -75 -128 -134l-10 12q87 108 132 178q45 67 70 116l58 -30q7 -5 2 -10q0 -3 -12 -6q-15 -4 -26 -16q-10 -11 -28 -34h414l32 42l60 -50q3 -7 4 -10q-1 -9 -10 -8h-256v-76h132l36 40l44 -42q12 -9 12 -18
q-7 -6 -10 -6h-214v-64h132l28 34l50 -46l4 -6q-7 -9 -10 -8h-204v-75h194l34 37l56 -49q3 -5 4 -10l-4 -4v0v0zM422 121h204v75h-204v-75v0v0zM626 222v64h-204v-64h204v0v0zM626 312v76h-204v-76h204v0v0zM590 500l8 10q36 -15 58 -26q19 -10 26 -28q6 -16 -2 -28
q-9 -10 -24 -8t-18 14q-2 9 -10 24q-6 15 -38 42v0v0zM338 824l50 -36h138l30 32l40 -36q8 -6 8 -14q1 -3 -22 -18v-144l4 -76q1 -15 -16 -26q-17 -12 -34 -12v26h-154v-22q0 -6 -14 -12q-11 -6 -34 -8l4 102v244v0v0zM382 542h154v60h-154v-60v0v0zM382 626h154v58h-154
v-58v0v0zM382 708h154v56h-154v-56v0v0zM666 820l50 -36h142l28 32l44 -36q8 -6 8 -14q0 -3 -26 -18v-162l4 -70q1 -15 -18 -26q-18 -10 -32 -10v36h-156v-16q0 -5 -14 -10q-13 -2 -34 -4l4 90v244v0v0zM710 538h156v60h-156v-60v0v0zM710 622h156v58h-156v-58v0v0zM710 704
h156v56h-156v-56v0v0zM880 880l42 54l64 -62q3 -9 4 -8q-1 -10 -10 -10h-730v-274q-3 -258 -54 -366q-48 -107 -138 -175l-8 12q74 90 110 175q33 83 40 262q-100 -85 -118 -124l-44 46l162 108v404l52 -42h628v0v0zM490 980l8 12q42 -15 70 -26q27 -10 40 -26t8 -34
q-6 -18 -26 -20q-21 0 -26 18q-6 18 -20 34q-12 12 -54 42v0v0zM54 744l12 8q44 -42 68 -74q23 -30 28 -54t-4 -42q-10 -18 -22 -20q-13 -1 -22 8t-8 36q0 27 -12 60q-13 30 -40 78v0v0z" />
  </g>

</svg>
