<?xml version="1.0" standalone="no"?>
<!DOCTYPE svg PUBLIC "-//W3C//DTD SVG 1.1//EN" "http://www.w3.org/Graphics/SVG/1.1/DTD/svg11.dtd" >
<svg xmlns="http://www.w3.org/2000/svg" xmlns:xlink="http://www.w3.org/1999/xlink" version="1.1" viewBox="0 0 2048 2048">
  <g transform="matrix(1 0 0 -1 0 2048)">
   <path fill="currentColor"
d="M559 562v238l-94 -16l-92 -21l-50 66l117 16l119 21v203q-19 -5 -58 -13t-75 -13l-64 -10l-7 38l91 29q50 16 112 41q63 25 137 66t108 71l47 40l109 -88q18 -16 13 -34q-4 -18 -29 -15l-66 7l-53 -25q-21 -10 -74 -31q-53 -22 -72 -28l-21 -7v-214l104 18l70 100
l131 -76q20 -12 20 -24q1 -12 -6 -21t-19 -11l-236 -45l-64 -9l-1 -237l183 30l62 101l132 -85q8 -6 9 -17q0 -11 -4 -20t-19 -11l-363 -62v-217q0 -27 7 -43t26 -28q19 -11 70 -11l68 -1h800q74 0 101 7q26 7 38 24q13 17 18 32q4 15 12 54l24 119l36 -4l1 -82q0 -54 7 -76
q8 -22 27 -37l30 -22q17 -16 17 -29q-1 -14 -22 -32q-20 -18 -52 -26q-31 -8 -86 -13t-110 -5h-856q-20 0 -66 2q-45 2 -80 6q-35 5 -58 20q-24 16 -36 44q-13 27 -13 55v246l-127 -22l-85 -21l-53 68l127 17zM1761 1439q41 -34 60 -51t47 -44q27 -28 42 -46q15 -19 30 -44
t22 -45q6 -20 6 -38q-1 -26 -14 -41q-12 -16 -30 -18q-17 -3 -27 8q-6 5 -10 15t-11 34q-6 24 -14 45q-8 20 -24 48l-30 54q-14 24 -22 35l-39 49l-23 -54q-10 -24 -24 -52q-15 -29 -31 -57t-35 -58t-31 -44l-26 -32l-29 21l26 48q9 18 20 44q11 25 26 63q14 38 25 72t25 85
q13 50 27 108q14 59 20 89l16 78l123 -34q25 -8 34 -15t10 -20t-12 -20q-12 -7 -40 -13l-35 -8l-15 -49q-3 -12 -16 -50q-12 -38 -13 -42zM1202 1712l133 -31q28 -7 39 -15q11 -7 11 -19q-1 -10 -12 -19t-38 -15l-41 -10q-12 -40 -17 -59l-16 -62l-18 -60l38 -36
q16 -15 41 -40q24 -26 41 -48q17 -21 33 -50t18 -55q3 -26 -6 -43q-10 -18 -27 -23t-29 4t-16 19q-4 9 -10 34t-18 54t-26 54q-13 26 -21 38l-35 48q-18 -50 -28 -76q-11 -26 -30 -67t-36 -74q-18 -33 -34 -58l-38 -59l-32 22l14 26q6 11 23 54l24 60q7 19 23 72
q16 52 26 90q10 37 21 92t20 106q9 52 14 84zM807 1806l68 76l84 -55q24 -17 32 -25q8 -9 8 -23q-1 -14 -11 -25q-10 -12 -31 -21l-36 -16v-256l50 -35q13 -10 12 -22q-1 -13 -7 -19q-7 -6 -17 -5l-643 1q1 -157 0 -210l-2 -135q-2 -83 -4 -157q-3 -74 -12 -180t-31 -226
t-55 -217q-34 -96 -68 -146l-47 -72l-34 10l36 90q20 50 43 132q22 81 41 223t25 255q7 112 10 200q2 89 2 193v560q0 14 -2 65t-2 53l-4 59l112 -72h483zM316 1751v-313h508v313h-508zM1425 1898l109 -24q49 -11 66 -20q18 -10 20 -24q1 -13 -12.5 -25t-37.5 -18l-40 -11
v-817h164l99 101l120 -107l15 -15q4 -6 1 -18q-4 -12 -11 -14q-6 -3 -25 -3h-363v-349h207l98 101l121 -107q10 -10 14 -16q5 -6 2 -18q-4 -12 -10 -14q-7 -2 -24 -2h-669q-41 0 -108 -3.5t-70 -3.5l-13 -1l-35 87q45 -11 85 -17t141 -6h165v349h-106q-42 0 -109 -3.5
t-70 -3.5l-13 -1l-35 87q45 -10 89 -16q45 -7 138 -7h106v779q0 8 -2 74q-3 67 -4 73z" />
  </g>

</svg>
