<?xml version="1.0" standalone="no"?>
<!DOCTYPE svg PUBLIC "-//W3C//DTD SVG 1.1//EN" "http://www.w3.org/Graphics/SVG/1.1/DTD/svg11.dtd" >
<svg xmlns="http://www.w3.org/2000/svg" xmlns:xlink="http://www.w3.org/1999/xlink" version="1.1" viewBox="0 -36 256 256">
  <g transform="matrix(1 0 0 -1 0 220)">
   <path fill="currentColor"
d="M87 177q32 -11 37 -18.5t1.5 -16t-11 3t-27.5 26.5q0 -31 1 -46l-16 -5q1 14 1 48q-20 -24 -59 -40l-1 4q34 20 53 49h-15q-13 0 -23 -2l-9 9h54v22h-10q-11 0 -20 -2l-10 9h40q0 15 -1 29l23 -7l-8 -6v-16h17l11 8l14 -15h-42v-22h29l9 9l16 -16h-54v-5zM175 227
q-3 -5 -12 -17h52l11 10l17 -17h-27q-10 -20 -19 -31q24 -13 31 -21.5t4.5 -18.5t-12 2t-30.5 29q-21 -23 -65 -33l-1 4q33 11 55 36q-10 7 -28 15l2 4q15 -4 32 -11q9 12 15 25h-41q-8 -10 -19 -19l-4 2q18 22 28 59l18 -10q-4 -3 -7 -8zM121 97q0 17 -1 34l24 -7l-7 -5
q7 -15 25 -35q27 16 45 36l16 -18h-11q-17 -9 -45 -23q27 -28 75 -33v-5q-16 0 -25 -12q-27 11 -47 30t-34 50v-79q0 -16 -20 -22q-5 13 -31 19v5q36 -7 36 1v64zM85 93h-35q-10 0 -20 -2l-9 10h65l9 9l14 -14l-8 -5q-28 -46 -85 -68l-1 4q49 27 70 66z" />
  </g>

</svg>
