<?xml version="1.0" standalone="no"?>
<!DOCTYPE svg PUBLIC "-//W3C//DTD SVG 1.1//EN" "http://www.w3.org/Graphics/SVG/1.1/DTD/svg11.dtd" >
<svg xmlns="http://www.w3.org/2000/svg" xmlns:xlink="http://www.w3.org/1999/xlink" version="1.1" viewBox="0 -154 1024 1024">
  <g transform="matrix(1 0 0 -1 0 870)">
   <path fill="currentColor"
d="M69 921l38 -47h123l37 40l50 -48q14 -12 -6 -17l-20 -9v-514l4 -142q3 -18 -10 -24q-12 -6 -36 -12v89h-135v-87q1 -21 -11 -31q-12 -9 -38 -15q4 39 7 159v603q-6 24 -18 43zM114 552v-295h135v295h-135zM249 854h-135v-282h135v282zM804 941q5 -8 -5 -8q-13 5 -30 -13
q-13 -65 -45 -156q-6 -18 -13 -35h208l27 34l54 -42q17 -12 -6 -12h-96q-4 -122 -30 -252q-18 -92 -58 -171q75 -157 184 -190l-5 -14q-56 9 -81 -14q-72 80 -121 175q-10 -16 -21 -31q-75 -110 -214 -186l-6 10q136 105 196 207q14 22 24 45q-71 186 -80 388
q-25 -50 -64 -100l-8 10q96 207 107 302q11 48 6 58q-3 10 -13 23l11 5zM315 818h146v119q2 16 -19 34l8 11l70 -26q14 -5 6 -11q-16 -5 -27 -18v-109h48l24 32l60 -42q17 -10 -6 -10h-126v-120h39l20 28l56 -38q17 -6 -6 -6h-109v-128h71l20 28l56 -38q17 -10 -6 -10h-192
q2 -57 -3 -108h97l26 37l48 -36q18 -12 0 -19l-20 -17v-65q-4 -89 -15 -129q-11 -41 -38 -69q-27 -29 -73 -36q-4 22 -28 34q-19 12 -54 19l2 15q40 -12 80 -16q81 3 83 124q5 57 3 138h-112q-5 -108 -51 -205q-37 -81 -147 -159l-4 14q83 70 114 140q32 69 43 147
q10 75 11 191h-28q-27 1 -45 -13l-34 33h158v128h-37q-27 1 -45 -13l-34 29h116v120h-67q-27 1 -45 -13zM705 709q17 -132 34 -207q18 -85 50 -166q25 64 38 135q23 119 27 238h-149z" />
  </g>

</svg>
