<?xml version="1.0" standalone="no"?>
<!DOCTYPE svg PUBLIC "-//W3C//DTD SVG 1.1//EN" "http://www.w3.org/Graphics/SVG/1.1/DTD/svg11.dtd" >
<svg xmlns="http://www.w3.org/2000/svg" xmlns:xlink="http://www.w3.org/1999/xlink" version="1.1" viewBox="0 -205 1024 1024">
  <g transform="matrix(1 0 0 -1 0 819)">
   <path fill="currentColor"
d="M680 990l74 -34q7 -6 8 -8q3 -7 -6 -10l-26 -16v-258h156l36 42l56 -44q9 -6 10 -12q0 -7 -30 -26v-503q-1 -36 -22 -58q-19 -21 -50 -30q-10 35 -34 48q-25 15 -98 36l4 18q80 -15 100 -18q20 -1 34 6q16 7 14 45v468h-388v-470l4 -95q0 -9 -18 -24q-16 -14 -40 -16
l4 133v540l52 -40h160v326v0v0zM602 546l52 -36h96l24 32l48 -32q12 -6 12 -14q0 -3 -26 -24v-154l4 -78q1 -12 -16 -24q-16 -12 -32 -12v62h-116v-44q0 -12 -14 -24q-15 -12 -36 -14l4 126v236v0v0zM648 292h116v192h-116v-192v0v0zM474 892l10 12q81 -54 102 -84
q20 -30 22 -54t-10 -36q-11 -12 -28 -8q-17 3 -22 34q-3 30 -14 54q-12 24 -60 82v0v0zM770 702q80 119 116 200q64 -36 68 -42q3 -6 -2 -8q-3 -3 -20 -8q-16 -6 -40 -32q-24 -27 -108 -122l-14 12v0v0zM110 918l56 -40h154l32 38l48 -38q12 -6 12 -14q0 -6 -30 -26v-124
l4 -86q1 -21 -16 -32q-18 -10 -38 -10v36h-50v-188h62l34 46l48 -52q16 -18 0 -20h-144v-226l156 38l6 -18q-303 -89 -332 -109q-28 -18 -52 -36l-42 64l72 18v367l72 -32q3 -3 4 -8q0 -1 -2 -4l-26 -16v-296l96 24v448h-72v-22q0 -13 -20 -22q-18 -10 -36 -10l4 130v220v0
v0zM162 648h170v204h-170v-204v0v0z" />
  </g>

</svg>
