<?xml version="1.0" standalone="no"?>
<!DOCTYPE svg PUBLIC "-//W3C//DTD SVG 1.1//EN" "http://www.w3.org/Graphics/SVG/1.1/DTD/svg11.dtd" >
<svg xmlns="http://www.w3.org/2000/svg" xmlns:xlink="http://www.w3.org/1999/xlink" version="1.1" viewBox="0 -36 256 256">
  <g transform="matrix(1 0 0 -1 0 220)">
   <path fill="currentColor"
d="M65.5 121.5q5.5 -9.5 -3 -17t-9 6t-7.5 28.5l3 2q11 -10 16.5 -19.5zM64 59v-3q-35 -23 -41 -34l-10 15q4 5 6 16l17 164q-10 0 -18 -3l-8 10h82l13 12l14 -19h-69l-6 -47h37l8 8l13 -14l-8 -5l-9 -112q-1 -13 9 -12h8q5 1 6.5 8.5t2.5 34.5h4q0 -21 2 -28t9 -12
q-4 -15 -26 -15h-12q-17 0 -16 18l9 122h-37l-13 -118zM146 38h66v51h-66v-51zM133 57q0 26 -1 47l14 -8h65l9 9l13 -15l-8 -5v-35q0 -12 1 -30l-14 -7v18h-66v-13l-14 -7q1 20 1 46zM149.5 200q-2.5 -6 -6.5 -16h31v28q0 17 -1 31l22 -10l-8 -8v-41h23l12 12l16 -19h-51
v-46h32l13 12l16 -19h-108q-10 0 -19 -2l-9 9h62v46h-34q-9 -20 -23 -36l-3 2q11 19 17.5 43t6.5 38l20 -12q-6 -6 -8.5 -12z" />
  </g>

</svg>
