<?xml version="1.0" standalone="no"?>
<!DOCTYPE svg PUBLIC "-//W3C//DTD SVG 1.1//EN" "http://www.w3.org/Graphics/SVG/1.1/DTD/svg11.dtd" >
<svg xmlns="http://www.w3.org/2000/svg" xmlns:xlink="http://www.w3.org/1999/xlink" version="1.1" viewBox="0 -52 256 256">
  <g transform="matrix(1 0 0 -1 0 204)">
   <path fill="currentColor"
d="M177 40q-4 0 -5 8q-2 5 -5 9q-33 -2 -76 -9q-10 -2 -17 -7l-8 15q12 0 19 7q18 20 28 44v2l-1 2l2 1h-68v-81l1 -12q0 -9 -14 -12q2 10 2 33v75q-1 5 -5 9l4 3l10 -10h25v66q0 5 -4 9l3 2l9 -8h93l8 9l13 -11q2 -2 1 -2q0 -1 -2 -2l-5 -2v-61h19l8 14l12 -11l2 -2
q0 -1 -2 -3l-5 -3v-84q0 -6 -3 -12q-3 -4 -18 -7q-1 8 -11 11t-21 5l1 4q6 -1 15 -2q14 -3 18 -3t7 2q1 2 1 16v70h-94l17 -8l1 -1q2 -1 0 -2q-8 0 -16 -11q-1 -1 -2 -3q-18 -22 -25 -29l74 4q-7 9 -22 19l2 3q41 -18 40 -38q0 -6 -6 -6zM80 181v-64h94v64h-94zM125 177
l13 -8q4 -3 1 -4q-3 0 -7 -1l-4 -6q26 -10 38 -21q4 -7 1 -13q-5 -3 -10 6q-6 13 -33 23q-15 -19 -39 -33l-1 4q19 15 29 29q2 2 4 6q7 9 7 11t-1 6zM203 252l17 -11q3 -3 0 -5q-3 1 -7 1q-3 1 -18 -8l-19 -10q41 -5 46 -18q3 -6 -2 -8q-4 -2 -9 4t-14 10q-10 5 -32 11
q8 5 19 13q7 5 9 6l2 2q6 4 6 6q2 2 0 6zM59 253l17 -11q2 -3 -1 -3h-6q-4 0 -16 -6l-19 -10q36 -5 39 -17q3 -6 -1 -7q-3 -1 -8 3q-3 6 -11 9t-29 11q7 5 18 12q6 4 8 5q7 4 8 7q1 2 0 4q1 -1 -1 1zM126 255l17 -12q1 -1 -1 -3h-3q-2 1 -4 1q-3 0 -17 -8l-18 -10
q37 -6 40 -18q2 -6 -3 -7q-3 0 -7 5q-3 5 -11 8q-3 2 -16 7q-8 2 -12 4q44 28 33 31z" />
  </g>

</svg>
