<?xml version="1.0" standalone="no"?>
<!DOCTYPE svg PUBLIC "-//W3C//DTD SVG 1.1//EN" "http://www.w3.org/Graphics/SVG/1.1/DTD/svg11.dtd" >
<svg xmlns="http://www.w3.org/2000/svg" xmlns:xlink="http://www.w3.org/1999/xlink" version="1.1" viewBox="0 -52 256 256">
  <g transform="matrix(1 0 0 -1 0 204)">
   <path fill="currentColor"
d="M35 231l8 -9l18 12q4 2 7 6l1 1q2 2 0 5l2 2l13 -12q3 -3 0 -4q-4 1 -12 -2q-4 -3 -27 -14v-33h22l7 10l13 -11q2 -2 1 -3q0 -1 -3 -1h-40v-38h22l7 10l13 -11q2 -2 2 -4q-1 -1 -4 -1h-40l1 -5q0 -8 -12 -9v10q1 9 1 14v70q0 7 -4 13zM219 147l1 -15q1 -8 -12 -10
q0 8 1 12v3h-18q-8 0 -12 -4l-8 9h38v40h-17q-7 0 -11 -4l-8 9h36v35h-21q-5 0 -10 -4l-8 9h35l9 9l11 -11q2 -2 1 -2q0 -1 -2 -2l-5 -4v-70zM204 104q1 -2 -2 -2q-6 0 -10 -1q-2 -1 -8 -3q-5 -2 -8 -3q-9 -5 -37 -17h2q2 -1 2 -2q1 -1 -1 -2q-4 -1 -7 -4v-3h80l10 13
l19 -15q3 -1 2 -2q0 -1 -5 -1h-106v-32q-1 -9 -5 -13q-2 -4 -21 -9q0 7 -6 11q-2 0 -6 2q-9 3 -16 5l1 4l10 -3q33 -8 31 12v23h-89q-5 1 -11 -3l-9 8h109v6q0 6 -6 11l2 3l14 -6l44 24h-109q-6 0 -9 -3l-8 8h130l9 7zM98 193l9 -8h38l10 10l10 -11q2 -2 2 -3t-3 -2l-5 -2
v-16l1 -16q0 -8 -10 -8v9h-40v-2q1 -8 -11 -10q1 3 1 9q1 6 1 9v29q0 5 -5 9zM110 151h40v30h-40v-30zM86 212h66l6 9l14 -11q3 -2 3 -3h-4h-66q-5 1 -11 -3zM109 245q31 -9 31 -23q0 -4 -5 -6q-5 0 -5 5q-1 9 -21 20v4z" />
  </g>

</svg>
