<?xml version="1.0" standalone="no"?>
<!DOCTYPE svg PUBLIC "-//W3C//DTD SVG 1.1//EN" "http://www.w3.org/Graphics/SVG/1.1/DTD/svg11.dtd" >
<svg xmlns="http://www.w3.org/2000/svg" xmlns:xlink="http://www.w3.org/1999/xlink" version="1.1" viewBox="0 -205 1024 1024">
  <g transform="matrix(1 0 0 -1 0 819)">
   <path fill="currentColor"
d="M716 940l10 -6q6 -7 -12 -14q-15 -1 -30 -14l-52 -66h228l32 36l60 -52q8 -6 8 -12q1 -6 -16 -12q-31 -11 -52 -40q-87 -105 -150 -152q-60 -47 -126 -88t-176 -82l-6 16q98 54 160 94q60 39 126 100q65 60 140 166h-246l-38 -46q72 -35 94 -58q22 -21 20 -42
q-4 -22 -16 -28q-12 -7 -24 -4q-13 3 -16 22q-3 18 -18 42q-13 22 -50 50q-71 -75 -112 -110l-12 12q44 54 106 148q62 92 104 178l64 -38v0v0zM710 568q72 -31 72 -38q1 -7 -4 -10q-3 -3 -20 -6q-15 -1 -30 -16q-16 -13 -40 -44h210l34 34l50 -54q8 -6 8 -12q1 -5 -16 -10
q-21 -12 -50 -48q-93 -130 -170 -190q-75 -59 -162 -93q-88 -33 -220 -60l-4 18q110 31 200 70q88 37 164 105q75 68 168 214h-236l-44 -42q57 -45 78 -78t18 -56q-3 -21 -18 -30q-16 -8 -28 0q-13 5 -14 26q1 20 -10 52q-10 29 -40 68q-77 -69 -154 -120l-10 14
q74 69 146 150q71 81 122 156v0v0zM90 774l50 -34h82v234l76 -24q12 -6 4 -18l-26 -16v-176h70l26 36l56 -38q12 -9 4 -14l-24 -22v-238l4 -60q3 -15 -14 -26q-15 -12 -42 -14v50h-80v-216l102 24q-20 45 -52 90l12 12q71 -64 92 -92q18 -27 24 -48q4 -21 -4 -36
q-7 -12 -22 -15q-16 -3 -22 6q-7 5 -8 19q0 13 -12 44q-162 -51 -216 -75q-55 -27 -86 -48l-38 58l176 47v230h-80v-44q0 -12 -18 -24q-19 -12 -38 -12l4 76v364v0v0zM142 438h80v278h-80v-278v0v0zM276 716v-278h80v278h-80v0v0z" />
  </g>

</svg>
