<?xml version="1.0" standalone="no"?>
<!DOCTYPE svg PUBLIC "-//W3C//DTD SVG 1.1//EN" "http://www.w3.org/Graphics/SVG/1.1/DTD/svg11.dtd" >
<svg xmlns="http://www.w3.org/2000/svg" xmlns:xlink="http://www.w3.org/1999/xlink" version="1.1" viewBox="0 -36 256 256">
  <g transform="matrix(1 0 0 -1 0 220)">
   <path fill="currentColor"
d="M61 216l15 -10h71q-1 7 -4.5 16t-12.5 21l2 2q19 -11 25.5 -20.5t-3.5 -18.5h55l13 12l18 -19h-164q0 -45 -1 -76t-13 -59.5t-44 -54.5l-2 3q40 38 46 108q-28 -20 -37 -34l-12 14q16 6 49 25q0 67 -1 91zM44.5 167.5q5.5 -8.5 -2 -17t-10 6.5t-11.5 29l2 3
q16 -13 21.5 -21.5zM102 193q11 -6 18.5 -13.5t3.5 -14.5t-8 -8.5t-5.5 9.5t-11.5 25zM119 43q0 -16 1 -25l-14 -9q1 20 1 31v48q-18 -20 -37 -30l-1 3q12 11 21 21.5t17 23t16 31.5h-15q-10 0 -19 -2l-9 9h44l8 6l11 -14l-7 -3q-8 -15 -12 -23q16 -9 20.5 -16t-1.5 -15.5
t-8.5 2.5t-12.5 25l-3 -6v-57zM163 110h48v56h-48v-56zM223 127q0 -17 1 -25l-13 -5v6h-8v-67q0 -8 4 -8h18q5 -1 6 8.5t1 23.5h4q0 -13 1.5 -21.5t8.5 -11.5q-5 -11 -16 -11h-28q-10 1 -11 14v73h-11q1 -77 -58 -94l-1 2q48 24 47 92h-5v-6l-13 -5q1 17 1 42.5t-1 46.5
l13 -8h47l8 8l12 -12l-7 -5v-37z" />
  </g>

</svg>
