<?xml version="1.0" standalone="no"?>
<!DOCTYPE svg PUBLIC "-//W3C//DTD SVG 1.1//EN" "http://www.w3.org/Graphics/SVG/1.1/DTD/svg11.dtd" >
<svg xmlns="http://www.w3.org/2000/svg" xmlns:xlink="http://www.w3.org/1999/xlink" version="1.1" viewBox="0 -205 1024 1024">
  <g transform="matrix(1 0 0 -1 0 819)">
   <path fill="currentColor"
d="M868 902l58 -42q6 -4 6 -8q0 -6 -32 -32v-262l4 -64q1 -18 -4 -26q-10 -19 -52 -26v50h-334v-352q-1 -40 14 -47q14 -3 40 -4h284q42 0 54 14q14 16 16 47q3 30 6 144h20q3 -87 10 -126q5 -37 38 -45q-19 -51 -52 -66q-33 -14 -74 -14h-344q-34 -1 -50 24q-15 25 -14 75
v766l62 -44h312l32 38v0v0zM514 838v-320h144v320h-144v0v0zM706 518h142v320h-142v-320v0v0zM140 594h200l38 48l42 -44q19 -15 14 -24q-3 -9 -8 -8h-158v-156h82l38 52l58 -58q9 -12 -6 -20h-172v-249l148 121l14 -14q-102 -104 -138 -145q-33 -39 -50 -70l-64 52
q17 9 40 32v273h-80q-31 0 -58 -8l-18 34h156v156h-36l-24 -6l-18 34v0v0zM300 918q7 -3 8 -6q3 -9 -8 -14q-25 -6 -38 -30q-26 -60 -40 -92h116l36 46l62 -58q2 -3 2 -6q0 -9 -6 -8h-222q-32 -73 -70 -142q-36 -67 -84 -130l-16 6q73 138 122 264q47 125 70 206l68 -36v0v0
z" />
  </g>

</svg>
