<?xml version="1.0" standalone="no"?>
<!DOCTYPE svg PUBLIC "-//W3C//DTD SVG 1.1//EN" "http://www.w3.org/Graphics/SVG/1.1/DTD/svg11.dtd" >
<svg xmlns="http://www.w3.org/2000/svg" xmlns:xlink="http://www.w3.org/1999/xlink" version="1.1" viewBox="0 -205 1024 1024">
  <g transform="matrix(1 0 0 -1 0 819)">
   <path fill="currentColor"
d="M728 802l58 -36h100l30 38l50 -34q12 -6 12 -14q1 -5 -28 -28v-566l4 -61q1 -14 -18 -26q-19 -9 -34 -10v107h-124v-89q0 -12 -18 -24t-36 -12l4 107v648v0v0zM778 198h124v542h-124v-542v0v0zM628 786l60 -38q8 -3 8 -12q1 -3 -34 -30v-344q-4 -144 -10 -182t-26 -67
q-22 -27 -70 -46q-7 31 -32 46q-24 17 -78 31l6 18q80 -19 106 -16q26 2 38 26q12 23 16 188v362h-88q4 -124 -16 -274q-17 -151 -64 -250q-45 -98 -174 -187l-8 14q102 89 144 187q40 96 56 244q15 146 12 266h-40q-7 0 -28 -8l-20 34h88v212l78 -32q10 -6 8 -14
q0 -1 -36 -16v-150h72l32 38v0v0zM48 726h166v256l84 -32q9 -5 4 -10q-4 -5 -40 -22v-192h46l34 40l54 -52q8 -14 -10 -16h-124v-194l122 68l10 -16l-132 -90v-339q3 -36 -14 -60q-18 -23 -62 -38q-4 34 -34 50q-29 15 -82 30l4 18q96 -24 118 -18q21 6 22 31v292
q-67 -42 -88 -62q-21 -18 -32 -44l-52 56l172 100v216h-90q-34 -1 -52 -10l-24 38v0v0z" />
  </g>

</svg>
