<?xml version="1.0" standalone="no"?>
<!DOCTYPE svg PUBLIC "-//W3C//DTD SVG 1.1//EN" "http://www.w3.org/Graphics/SVG/1.1/DTD/svg11.dtd" >
<svg xmlns="http://www.w3.org/2000/svg" xmlns:xlink="http://www.w3.org/1999/xlink" version="1.1" viewBox="0 -36 256 256">
  <g transform="matrix(1 0 0 -1 0 220)">
   <path fill="currentColor"
d="M154 48l-12 -7q1 29 1 70t-1 64l12 -7h42q8 19 11 35h-48q-8 0 -17 -2l-9 9h87l11 10l14 -17h-35l16 -8l-7 -3q-10 -12 -18 -24h22l8 9l12 -13l-7 -5v-98q0 -10 -3.5 -15.5t-12.5 -9.5q-4 13 -24 17v4q13 -2 21 -2t7 8v98h-37l12 -7l-5 -5v-13h8l11 7l11 -14h-30v-16h6
l7 8l11 -11l-6 -5q0 -17 1 -37l-12 -6v11h-25v-10l-12 -5q2 33 0 60l11 -5h8v16h-5q-8 0 -15 -2l-7 9h27v25h-29v-113zM194.5 232q6.5 -6 0 -14.5t-10 0t-16.5 24.5l2 3q18 -7 24.5 -13zM179.5 186.5q3.5 -7.5 -3 -14.5t-8.5 5.5t-10 23.5l2 2q16 -9 19.5 -16.5zM176 80h25
v26h-25v-26zM100 226q17 -11 23.5 -19.5t-1 -18.5t-10 3t-15.5 32zM234 12q-46 -1 -72.5 5t-41.5 22q-15 -18 -24 -30l-12 10q12 10 29 25v91h-5q-4 0 -11 -2l-7 9h22l6 9l14 -11l-7 -6v-91q10 -8 30.5 -12.5t41 -4.5t51.5 4v-3q-13 -4 -14 -15zM30 62.5q-1 16.5 -9 38.5
l2 2q28 -30 18 -43.5t-11 3zM82 165l12 -17h-32v-27h12l11 9l14 -16h-37v-51q12 19 21 42l15 -13l-6 -2q-16 -19 -30 -34v-10l37 9l1 -4q-57 -20 -78 -31l-9 17q18 2 37 8v69q-19 1 -29 -3l-8 10h37v27h-3q-8 0 -17 -2l-6 9h46zM11 141l-2 2q30 53 45 104l16 -12l-6 -4
l-5 -13q24 -11 30.5 -16.5t2.5 -16.5t-10.5 0.5t-23.5 29.5q-10 -23 -23.5 -44.5t-23.5 -29.5z" />
  </g>

</svg>
