<?xml version="1.0" standalone="no"?>
<!DOCTYPE svg PUBLIC "-//W3C//DTD SVG 1.1//EN" "http://www.w3.org/Graphics/SVG/1.1/DTD/svg11.dtd" >
<svg xmlns="http://www.w3.org/2000/svg" xmlns:xlink="http://www.w3.org/1999/xlink" version="1.1" viewBox="0 -205 1024 1024">
  <g transform="matrix(1 0 0 -1 0 819)">
   <path fill="currentColor"
d="M392 866h446l42 50l62 -58q2 -3 2 -8q1 -12 -10 -12h-248v-292h194l42 56l68 -66q2 -3 2 -8q1 -10 -10 -10h-296v-320l4 -119q-1 -15 -22 -30q-21 -13 -38 -14l4 163v320h-212q-21 0 -56 -12l-28 40h296v292h-158q-18 0 -66 -8l-18 36v0v0zM152 938q102 -57 124 -90
q20 -30 20 -54q-1 -23 -10 -34q-9 -12 -18 -14q-10 -4 -22 2q-11 4 -16 32q-4 28 -16 56q-12 30 -72 90l10 12v0v0zM218 672l62 -48q3 -4 4 -10q0 -6 -12 -14l-24 -20v-372l182 152l16 -16q-136 -127 -172 -172q-34 -45 -50 -85l-68 61q27 21 42 48v406h-96q-15 -1 -36 -10
l-20 36h142l30 44v0v0z" />
  </g>

</svg>
