<?xml version="1.0" standalone="no"?>
<!DOCTYPE svg PUBLIC "-//W3C//DTD SVG 1.1//EN" "http://www.w3.org/Graphics/SVG/1.1/DTD/svg11.dtd" >
<svg xmlns="http://www.w3.org/2000/svg" xmlns:xlink="http://www.w3.org/1999/xlink" version="1.1" viewBox="0 -205 1024 1024">
  <g transform="matrix(1 0 0 -1 0 819)">
   <path fill="currentColor"
d="M548 740h116v50h-116v-50v0v0zM712 740h116v50h-116v-50v0v0zM618 276h132v58h-132v-58v0v0zM664 986l74 -30q8 -6 -4 -14l-22 -12v-52h152l32 44l58 -54q3 -3 4 -6q0 -9 -14 -8h-232v-42h106l28 24q48 -31 48 -38q1 -5 -22 -22v-56q1 -10 -10 -16q-22 -10 -34 -10v22
h-116v-42h224l20 18l46 -44q11 -7 2 -14q-32 -6 -46 -12q-12 -6 -32 -26l-14 10l22 44h-458q-6 -40 -18 -58q-12 -15 -26 -18q-13 -1 -22 4q-9 6 -8 16q-1 9 14 22q12 12 24 30t18 60h18v-32h188v42h-116q1 -9 -16 -18q-16 -9 -28 -8v146l46 -24h114v42h-166q-22 -1 -46 -10
l-18 34h230v108v0v0zM490 630l34 -22h84l20 20l36 -22q7 -4 8 -10q0 -5 -18 -16v-32l2 -32q0 -6 -12 -14q-10 -6 -28 -6v12h-88v-8q-1 -7 -16 -16q-13 -9 -26 -6l4 50v102v0v0zM528 530h88v56h-88v-56v0v0zM758 528h88v60h-88v-60v0v0zM812 478q8 -6 -4 -12l-12 -4v-18h80
l26 30l48 -38q3 -3 4 -2q5 -13 -4 -14h-154v-62h60l30 30l46 -40q2 0 4 -8q3 -6 -8 -6h-132v-58h112l30 34l48 -42q3 -1 4 -8q-1 -7 -10 -8h-278q38 -60 88 -96q48 42 84 82q47 -30 50 -36q3 -3 0 -6q-4 -4 -16 -4q-12 -1 -30 -8q-18 -6 -66 -42q24 -17 52 -31
q27 -12 64 -18q36 -6 84 -6v-20q-24 0 -48 -6t-38 -30q-48 14 -96 46q-45 31 -86 75q-42 44 -62 100q-27 -25 -66 -64v-103l114 44l10 -14q-89 -48 -112 -66q-23 -13 -40 -36l-46 44l28 18v81q-87 -59 -194 -103l-8 16q86 45 148 91q62 47 106 92h-128q-20 1 -58 -10l-18 34
h156v58h-46q-20 1 -58 -10l-18 34h122v62h-70q-22 1 -46 -10l-18 34h134v54l60 -16q7 -6 -4 -12l-12 -4v-22h132v46l62 -12v0v0zM618 358h132v62h-132v-62v0v0zM720 630l34 -20h82l18 20q49 -33 50 -38q0 -5 -20 -16v-40l2 -26q0 -6 -12 -14q-10 -6 -28 -6v16h-88v-6
q-1 -1 -16 -8q-13 -4 -26 -2l4 46v94v0v0zM268 956q3 -3 4 -6q4 -6 -12 -12q-22 -5 -58 -52h110l22 36l48 -30q9 -6 10 -14q0 -3 -26 -26v-146l4 -76q0 -13 -14 -22q-15 -9 -38 -12v26h-166q-1 -15 -20 -26q-19 -9 -32 -6l4 120v204l48 -28h24q23 59 34 92l58 -22v0v0z
M152 646h166v56h-166v-56v0v0zM152 726h166v52h-166v-52v0v0zM152 802h166v60h-166v-60v0v0zM68 586l42 -22h234l18 20l50 -26q6 -5 6 -10q0 -3 -24 -24v-112l4 -54q1 -12 -16 -24q-17 -10 -34 -10v30h-232v-4q0 -12 -18 -24q-16 -10 -34 -10l4 110v160v0v0zM116 378h92v66
h-92v-66v0v0zM254 378h94v66h-94v-66v0v0zM116 468h92v72h-92v-72v0v0zM254 540v-72h94v72h-94v0v0zM30 280h314l26 36l42 -44q3 0 4 -6q0 -12 -8 -12h-92v-127l4 -72q1 -12 -16 -24q-18 -13 -38 -14l4 112v125h-92q-10 -105 -40 -155q-30 -48 -98 -94l-10 10q52 49 74 98
q20 44 28 141h-42q-18 0 -36 -8l-24 34v0v0z" />
  </g>

</svg>
