<?xml version="1.0" standalone="no"?>
<!DOCTYPE svg PUBLIC "-//W3C//DTD SVG 1.1//EN" "http://www.w3.org/Graphics/SVG/1.1/DTD/svg11.dtd" >
<svg xmlns="http://www.w3.org/2000/svg" xmlns:xlink="http://www.w3.org/1999/xlink" version="1.1" viewBox="0 -144 1024 1024">
  <g transform="matrix(1 0 0 -1 0 880)">
   <path fill="currentColor"
d="M292 132l61 -23l-6 -12l-6 -12l-8 -10l-9 -10l-11 -8l-11 -7l-12 -6l-13 -3l-13 -2l-14 -1v32l-86 16v16h86l7 1l6 1l6 2l4 1l4 2l3 3l3 4l3 4l4 6zM394 43v21h253v108h-198v22h198v101h-122v-16l-64 -32v361l64 -32h308l32 27l60 -48l-27 -22v-248l-65 -33v43h-121v-101
h100l44 48l54 -48v-22h-198v-108h134l53 54l65 -54v-21h-570zM353 109l-61 23l18 48l12 49l9 49l-34 -30l-32 -25l-34 -23l-35 -22l-38 -20l-40 -18l-42 -17l-43 -14l-5 9l77 47l68 47l31 25l29 25l27 26l25 26l23 28l21 28l4 -4v12l-6 51l-7 39l-50 -49l-27 -24l-58 -43
l-63 -37l-34 -15l-35 -13l-4 8l85 67l51 46l47 49l22 25l39 54l11 -8l-21 60l-5 12l-43 -35l-79 -56l-41 -23l-40 -21l-42 -17l-5 8l107 82l36 30l70 66l69 74l34 41l30 38l6 7l47 -44l6 -19l-20 4l-61 -66l-61 -57l10 -15l28 -53l22 -53l16 -54l11 -54l6 -55v-55l-5 -54
l-10 -55zM647 425h-122v-108h122v108zM833 425h-121v-108h121v108zM647 555h-122v-108h122v108zM833 555h-121v-108h121v108zM157 657l-1 10l-1 11l-3 12l-4 11l-5 12l-5 12l-16 26l-11 11l6 8l14 -10l14 -7l13 -9l24 -21l10 -12l9 -12l7 -14l7 -14l6 -15l-6 -24l-21 -13
l-24 6l-13 21v11zM785 848l58 -29l12 -16l-23 -4l-12 -20l-30 -46l-25 -34l-14 -18l-4 -6h102l54 54l64 -54v-21h-576v21h342l5 13l25 79l10 33l7 28l2 7h-2zM562 721l-2 13l-2 13l-7 25l-8 26l-11 26l-8 12l6 7l12 -10l12 -9l12 -10l11 -11l10 -12l9 -12l9 -14l7 -13l7 -15
l7 -15l-5 -24l-20 -14l-24 4l-14 19zM251 736l-2 13l-3 13l-4 12l-5 12l-13 23l-16 21l-36 -19l-32 -14l-34 -13l-34 -11l-34 -8l-4 9l90 54l55 38l53 40l49 43l24 24l42 -48l3 -19l-19 6l-39 -30l-58 -38l-9 -5l3 -1l15 -8l13 -9l13 -11l12 -11l10 -14l9 -14l8 -15l8 -17
l-4 -24l-20 -15l-24 4l-15 19zM428 854v22h219v99l65 -11l16 -11l-16 -9v-68h100l53 53l65 -53v-22h-502z" />
  </g>

</svg>
