<?xml version="1.0" standalone="no"?>
<!DOCTYPE svg PUBLIC "-//W3C//DTD SVG 1.1//EN" "http://www.w3.org/Graphics/SVG/1.1/DTD/svg11.dtd" >
<svg xmlns="http://www.w3.org/2000/svg" xmlns:xlink="http://www.w3.org/1999/xlink" version="1.1" viewBox="0 -120 1000 1000">
  <g transform="matrix(1 0 0 -1 0 880)">
   <path fill="currentColor"
d="M331 459q-8 -17 -25 -17q-14 0 -24 15q-4 7 -13 40q-13 48 -38 74v-499l-57 -11v443q-37 -73 -70 -122q-22 -31 -62 -84l-14 9q55 95 99 219q33 94 44 182h-116l-12 28h131v222l74 -9q22 -2 22 -13q0 -8 -15 -16l-24 -12v-172h32l38 51l79 -58v-21h-149v-117
q59 -24 88 -69q11 -19 15 -35h50q-5 7 -9 21q-14 57 -21 71q-6 13 -20 32l11 10q31 -19 50 -41q32 -35 32 -67q0 -14 -12 -26h68q21 54 37 131v4h-203l-11 28h118v108l66 -6q25 -2 25 -12q0 -7 -15 -15l-15 -9v-66h49l39 41l55 -47v-22h-103l58 -24q18 -8 18 -16
q0 -9 -18 -12l-20 -3l-53 -80h39l38 47l63 -49v-26h-165v-79h47l38 47l68 -55v-20h-153v-49q76 -19 101 -53q14 -18 14 -35q0 -30 -26 -30q-11 0 -17 8q-2 2 -28 47q-13 21 -44 45v-213l-59 -13v187q-30 -34 -69 -68q-54 -47 -96 -75l-13 13q125 121 172 236h-117l-12 28
h135v79h-95zM720 462q-8 -258 -175 -400l-13 14q67 86 97 173q32 90 32 238v214l58 -24q19 9 55 26q39 19 90 50l48 -45q16 -15 16 -17q0 -10 -16 -8l-36 5q-40 -9 -60 -14q-63 -15 -90 -21l-6 -1v-153v-6v-3h115l45 53l78 -60v-21h-89v-384l-63 -16v400h-86zM520 856h10
l34 48l62 -55v-21h-106v-58l-60 -11v69h-133l-16 28h149v100l70 -6q22 -2 22 -16q0 -13 -14 -15l-18 -3v-60zM732 856v99l65 -6q30 -2 30 -15q0 -11 -14 -14l-22 -5v-59h44l40 51l74 -58v-21h-158v-65l-59 -9v74h-76l-16 28h92z" />
  </g>

</svg>
