<?xml version="1.0" standalone="no"?>
<!DOCTYPE svg PUBLIC "-//W3C//DTD SVG 1.1//EN" "http://www.w3.org/Graphics/SVG/1.1/DTD/svg11.dtd" >
<svg xmlns="http://www.w3.org/2000/svg" xmlns:xlink="http://www.w3.org/1999/xlink" version="1.1" viewBox="0 -205 1024 1024">
  <g transform="matrix(1 0 0 -1 0 819)">
   <path fill="currentColor"
d="M138 698h228v198h-228v-198v0v0zM490 922h290l30 36l58 -44q7 -6 8 -12q0 -6 -32 -24v-166l4 -58q-1 -15 -22 -24q-19 -10 -32 -10v48h-228q-25 0 -50 -6l-24 34h302v198h-242q-22 0 -34 -8l-28 36v0v0zM86 970l60 -48h208l30 38l62 -46q3 0 4 -8q0 -9 -36 -26v-176
l4 -54q1 -12 -16 -24q-15 -10 -36 -10v56h-228v-172h190l36 38l48 -48q3 -4 4 -10q0 -7 -8 -8h-270v-170h200l36 44l56 -54q3 -3 4 -8q-1 -7 -10 -8h-286v-132l4 -91q0 -10 -26 -24q-23 -12 -34 -10l4 125v826v0v0zM822 574l66 -46q7 -3 8 -12q-3 -5 -14 -10
q-22 -11 -32 -28q-24 -66 -60 -126q-36 -58 -86 -112q50 -42 106 -72q54 -29 108 -41q51 -9 84 -10v-20q-25 2 -56 -6q-31 -7 -44 -38q-60 27 -116 66q-54 34 -114 91q-78 -60 -156 -99q-77 -40 -208 -74l-6 16q114 43 198 89q83 47 140 98q-40 45 -76 112q-37 63 -56 156
q-52 1 -64 -6l-28 34h380l26 38v0v0zM534 510q26 -90 62 -146q35 -55 74 -94q39 40 78 110q39 69 54 130h-268v0v0v0z" />
  </g>

</svg>
