<?xml version="1.0" standalone="no"?>
<!DOCTYPE svg PUBLIC "-//W3C//DTD SVG 1.1//EN" "http://www.w3.org/Graphics/SVG/1.1/DTD/svg11.dtd" >
<svg xmlns="http://www.w3.org/2000/svg" xmlns:xlink="http://www.w3.org/1999/xlink" version="1.1" viewBox="0 -36 256 256">
  <g transform="matrix(1 0 0 -1 0 220)">
   <path fill="currentColor"
d="M23 8q1 22 1 115t-1 116l13 -10h38l8 10l14 -14l-6 -5q-14 -26 -28 -53q18 -16 24 -27.5t5 -25.5t-8 -21.5t-22 -12.5q-2 14 -22 19v4q13 -2 23.5 -2.5t13 8.5t-0.5 22.5t-20 34.5l20 56h-38v-206zM220 117l-14 -7v7h-32v-84q0 -18 -18 -25q-3 14 -27 20v4
q21 -3 26.5 -1.5t5.5 8.5v78h-8q-11 0 -20 -3l-9 10h37v23h-20q-10 0 -19 -2l-9 9h48v23h-8q-11 0 -20 -2l-9 9h37q0 13 -1 25h-43q0 -54 -1 -85.5t-10 -59.5t-28 -52l-3 2q12 21 19.5 48t9 75.5t-0.5 87.5l14 -9h50q-3 15 -14 28l2 3q18 -10 22.5 -16.5t-4.5 -14.5h39
l11 11l18 -18h-81l21 -8l-7 -7v-10h31l7 9l13 -12l-6 -6v-21h3l10 11l15 -18h-28q0 -15 1 -30zM146.5 93.5q7.5 -6.5 2.5 -16.5t-8 -2.5t-6.5 13.5t-11.5 16l2 2q14 -6 21.5 -12.5zM164 78v-6q-26 -21 -43 -37l-5 -6l-13 17q16 4 61 32zM174 154h32v23h-32v-23zM174 124h32
v23h-32v-23zM214 107l14 -15l-8 -2q-16 -13 -30 -22l-4 3q15 15 28 36zM167 99l4 3q23 -36 42 -52t34 -19v-4q-14 -1 -21 -10q-9 6 -26 25.5t-33 56.5z" />
  </g>

</svg>
