<?xml version="1.0" standalone="no"?>
<!DOCTYPE svg PUBLIC "-//W3C//DTD SVG 1.1//EN" "http://www.w3.org/Graphics/SVG/1.1/DTD/svg11.dtd" >
<svg xmlns="http://www.w3.org/2000/svg" xmlns:xlink="http://www.w3.org/1999/xlink" version="1.1" viewBox="0 -154 1024 1024">
  <g transform="matrix(1 0 0 -1 0 870)">
   <path fill="currentColor"
d="M811 925h-231q30 -72 88 -125q18 -18 35 -32q66 66 108 157zM393 925h-241q30 -75 90 -128q19 -19 37 -34q65 61 114 162zM525 355l6 8q99 -55 124 -113q16 -30 11 -57q-5 -26 -26 -27q-20 -2 -22 27q-1 16 -7 35l-159 -14q-105 -11 -142 -18t-62 -24l-39 53q36 2 58 25
q78 88 140 205q6 16 -9 32l7 7l79 -37q10 -7 -2 -11q-14 1 -34 -12q-52 -85 -156 -205q49 1 312 17q-2 6 -5 12q-16 40 -74 97zM869 511v-121q-1 -197 -19 -243q-19 -48 -51 -80q-34 -32 -98 -48q-6 21 -31 36q-49 20 -114 32l2 14q56 -9 122 -19q82 -6 115 55q33 59 28 233
v153h-540q-99 -116 -235 -184l-8 12q134 98 221 209q42 58 43 69q0 12 -8 22l11 8l64 -44q14 -11 -2 -12q-14 -1 -29 -12q-18 -24 -38 -47l-3 -3h509l32 38l50 -38q18 -10 0 -16zM506 635q103 48 169 106q-13 14 -27 29q-58 59 -92 155q-18 -1 -33 -10l-33 29h311l28 30
l60 -47q13 -11 1 -12q-37 -2 -56 -48q-43 -68 -102 -122q28 -20 56 -32q57 -27 92 -35q33 -9 77 -11l-1 -16q-28 1 -47 -5q-18 -7 -31 -22q-52 19 -110 51q-33 17 -66 44q-82 -66 -194 -98zM33 616q135 54 218 121q-14 13 -29 30q-60 60 -94 157q-14 -2 -25 -9l-33 29h309
l34 34l56 -45q13 -12 1 -13q-30 -1 -41 -26q-12 -26 -61 -97q-25 -33 -54 -60q24 -16 48 -26q43 -23 64 -26q33 -9 77 -11l-1 -15q-28 1 -47 -5q-18 -7 -31 -22q-24 9 -39 18q-16 9 -43 23q-29 15 -59 37q-94 -72 -246 -109z" />
  </g>

</svg>
