<?xml version="1.0" standalone="no"?>
<!DOCTYPE svg PUBLIC "-//W3C//DTD SVG 1.1//EN" "http://www.w3.org/Graphics/SVG/1.1/DTD/svg11.dtd" >
<svg xmlns="http://www.w3.org/2000/svg" xmlns:xlink="http://www.w3.org/1999/xlink" version="1.1" viewBox="0 -205 1048 1024">
  <g transform="matrix(1 0 0 -1 0 819)">
   <path fill="currentColor"
d="M135 925q50 -17 81 -39q33 -23 41 -50q6 -27 -8 -33q-16 -8 -34 18l-4 6q-21 30 -33 45q-23 29 -48 47zM77 706q56 -25 79 -42q27 -21 32 -48q6 -27 -10 -34q-14 -5 -26 19q-15 27 -33 50q-23 28 -50 48zM377 893q-22 -91 -69 -251l-76 -242l-23 -78q-5 -25 -1 -66
q4 -44 17 -85q11 -34 8 -60q-4 -37 -35 -41q-18 0 -26 17q-8 16 -6 47l3 40q4 28 4 45q2 29 0 61q-4 19 -26 34q-23 17 -78 39l5 6q12 -3 34 -4q11 -1 28 -1q12 0 21 7q10 8 21 30q21 44 81 205q71 188 103 299zM535 962q25 -8 25 -13q0 -7 -38 -7q-11 -19 -22 -39l-23 -36
h105l42 38l52 -37q13 -9 9 -13q-3 -3 -19 -3h-126q38 -28 56 -50q26 -30 21 -55q-6 -29 -20 -30q-12 0 -20 21q-12 32 -22 53q-15 34 -37 61h-48q-19 -30 -48 -63q-28 -33 -55 -57l-11 6q35 44 65 101q20 40 66 144zM821 967q27 -7 26 -14q0 -7 -34 -11q-9 -20 -20 -39
l-22 -35h105l40 41l54 -38q13 -8 7 -13q-5 -5 -20 -5h-123q36 -26 58 -49q23 -28 26 -52q-6 -26 -18 -30q-11 -3 -20 19q-11 27 -27 54q-18 32 -40 58h-53q-19 -25 -42 -51l-42 -45l-16 12q29 36 55 82q31 56 61 133zM612 515q0 14 -3 28q-1 12 -3 20l70 -17q30 -9 17 -18
q-6 -4 -28 -10l-5 -2v-70h205l37 44l57 -41q14 -9 9 -15q-5 -5 -20 -5h-282q64 -114 129 -174q77 -85 176 -123v-11q-28 0 -49 -14q-17 -8 -23 -19q-63 43 -123 125q-62 74 -116 189v-294l2 -15q2 -15 -2 -21q-5 -8 -25 -12q-18 -4 -22 -1q-3 2 -2 15l1 15v271
q-73 -96 -146 -156.5t-171 -114.5l-5 9q100 66 172.5 142.5t130.5 189.5h-195l-70 -2l-14 21l68 -3h230v69zM404 662q0 -11 3 -24q1 -6 3 -16l1 -3h202v60l-5 40l68 -15q40 -8 29 -15q-8 -4 -39 -10v-60h229l23 26l48 -30q29 -17 21 -25q-6 -6 -38 -6q-22 -14 -43 -30
q-23 -18 -50 -44l-11 3l19 35l31 55h-484q-3 -39 -10 -61q-5 -20 -18 -41q-13 -17 -29 -15q-15 3 -18 28q0 12 5 24q4 10 14 26q17 26 23 41q11 28 11 57h15z" />
  </g>

</svg>
