<?xml version="1.0" standalone="no"?>
<!DOCTYPE svg PUBLIC "-//W3C//DTD SVG 1.1//EN" "http://www.w3.org/Graphics/SVG/1.1/DTD/svg11.dtd" >
<svg xmlns="http://www.w3.org/2000/svg" xmlns:xlink="http://www.w3.org/1999/xlink" version="1.1" viewBox="0 -205 1024 1024">
  <g transform="matrix(1 0 0 -1 0 819)">
   <path fill="currentColor"
d="M466 812l54 -38h148v208l86 -40q6 -1 4 -8q0 -4 -6 -8l-30 -12v-140h140l34 42l62 -52q6 -6 6 -8q0 -7 -38 -28v-340l4 -78q1 -13 -16 -26q-15 -12 -38 -12v82h-154v-186l4 -105q0 -16 -24 -30q-24 -15 -38 -16l4 133v204h-150v-54q0 -15 -18 -26q-18 -9 -38 -12l4 102
v448v0v0zM518 380h150v168h-150v-168v0v0zM722 548v-168h154v168h-154v0v0zM518 576h150v172h-150v-172v0v0zM722 748v-172h154v172h-154v0v0zM330 924q9 -3 -2 -12q-22 -3 -34 -12q-10 -8 -52 -70q-42 -60 -108 -150l172 2q54 90 78 138l68 -44q5 -14 -10 -16
q-18 -4 -32 -14q-13 -7 -76 -98q-64 -88 -164 -200l198 14q-15 47 -48 86l12 12q51 -38 76 -70q23 -31 28 -58q3 -27 -8 -38q-10 -12 -22 -14q-9 -1 -18 8q-6 8 -8 20q-3 11 -8 32q-82 -9 -146 -24t-100 -36l-44 66q30 2 60 16q60 66 154 202q-99 -12 -132 -24
q-34 -9 -64 -26l-38 64q30 0 54 24q21 20 70 110q48 89 76 160l68 -48v0v0zM142 320h20q6 -90 -2 -138q-6 -47 -26 -73q-18 -27 -32 -30q-14 -2 -28 4q-12 7 -12 22q0 16 18 35q19 21 32 46q13 24 20 54q5 26 10 80v0v0zM222 344l16 6q35 -52 52 -92q15 -38 16 -64
q0 -27 -14 -38q-15 -13 -30 -4q-16 9 -14 46q3 36 -2 66q-3 29 -24 80v0v0zM336 352l16 6q42 -50 60 -88q19 -37 20 -64q0 -27 -14 -38q-15 -13 -30 -4q-16 9 -14 46q1 36 -6 66q-9 27 -32 76v0v0z" />
  </g>

</svg>
