<?xml version="1.0" standalone="no"?>
<!DOCTYPE svg PUBLIC "-//W3C//DTD SVG 1.1//EN" "http://www.w3.org/Graphics/SVG/1.1/DTD/svg11.dtd" >
<svg xmlns="http://www.w3.org/2000/svg" xmlns:xlink="http://www.w3.org/1999/xlink" version="1.1" viewBox="0 -205 1024 1024">
  <g transform="matrix(1 0 0 -1 0 819)">
   <path fill="currentColor"
d="M520 968l64 -38q3 -2 4 -10q0 -6 -30 -30v-86l4 -54q-1 -16 -20 -28q-18 -10 -36 -10v42h-332q2 -153 -10 -302q-12 -150 -42 -242q-27 -89 -80 -157l-12 10q54 119 72 245q15 123 18 226q4 102 2 228v208l56 -36h316l26 34v0v0zM174 906v-124h332v124h-332v0v0zM206 674
h242l32 44l50 -48q3 -3 4 -8q0 -12 -12 -12h-208q-21 0 -92 -8l-16 32v0v0zM182 544h306l28 42l54 -46q3 -3 4 -8q0 -12 -12 -12h-166h-48h-102q-15 0 -48 -8l-16 32v0v0zM574 718h244v256l84 -32q9 -12 0 -14q-1 -4 -34 -14v-196h36l32 46l56 -52q3 -4 4 -10q0 -12 -12 -12
h-116v-553q0 -50 -26 -70q-24 -18 -60 -28q-7 30 -34 48q-25 16 -94 34l4 18l68 -14q54 -10 72 -6q19 4 20 22v549h-178q-21 0 -50 -8l-16 36v0v0zM624 590q78 -73 102 -118q22 -45 14 -68q-7 -24 -20 -30q-13 -5 -28 0q-13 6 -14 30q0 24 -12 66q-9 42 -54 112l12 8v0v0z
M114 53q106 61 146 105t62 94q21 50 30 176v72q84 -25 84 -34q1 -9 -4 -12q-6 -1 -30 -16q3 -30 -14 -126q87 62 138 118q57 -49 54 -56q0 -7 -6 -8h-22q-16 0 -46 -14q-31 -15 -124 -66l-4 -20q53 -24 110 -56q54 -31 76 -58q21 -26 16 -51q-3 -24 -26 -28q-24 -3 -32 20
q-6 24 -30 50q-21 24 -48 51q-28 24 -70 52q-29 -61 -82 -107q-52 -49 -172 -102l-6 16v0v0zM258 426h20q-5 -90 -16 -126q-9 -36 -26 -54q-17 -15 -40 -18q-22 -2 -28 18q-7 20 20 38q28 15 44 46q14 30 26 96v0v0v0z" />
  </g>

</svg>
