<?xml version="1.0" standalone="no"?>
<!DOCTYPE svg PUBLIC "-//W3C//DTD SVG 1.1//EN" "http://www.w3.org/Graphics/SVG/1.1/DTD/svg11.dtd" >
<svg xmlns="http://www.w3.org/2000/svg" xmlns:xlink="http://www.w3.org/1999/xlink" version="1.1" viewBox="0 -36 256 256">
  <g transform="matrix(1 0 0 -1 0 220)">
   <path fill="currentColor"
d="M83 232l-9 -15q35 -17 45.5 -25.5t7.5 -21t-11 -1t-18 21.5t-26 21q-23 -48 -62 -77l-2 4q49 52 60 106l23 -11zM95 149l10 11l18 -18h-61q-13 0 -22 -3l-10 10h65zM34 64q0 26 -1 53l14 -10h53l7 9l15 -13l-8 -7q0 -56 1 -71l-15 -7v15h-52v-12l-15 -7q1 24 1 50zM48 40
h52v60h-52v-60zM168.5 206q8.5 -8 3.5 -20t-11 2t-27 34l3 3q23 -11 31.5 -19zM167 132q2 -9 -3 -17t-10 5.5t-24 36.5l3 3q32 -19 34 -28zM189 247l23 -12l-9 -7v-125l19 3l7 13l17 -16l-43 -7v-39q0 -19 1 -42l-15 -7q1 15 1 29v56l-55 -9l-6 -4l-11 8l72 12v93
q0 18 -1 54z" />
  </g>

</svg>
