<?xml version="1.0" standalone="no"?>
<!DOCTYPE svg PUBLIC "-//W3C//DTD SVG 1.1//EN" "http://www.w3.org/Graphics/SVG/1.1/DTD/svg11.dtd" >
<svg xmlns="http://www.w3.org/2000/svg" xmlns:xlink="http://www.w3.org/1999/xlink" version="1.1" viewBox="0 -36 256 256">
  <g transform="matrix(1 0 0 -1 0 220)">
   <path fill="currentColor"
d="M30 243l19 -7l-6 -8v-19h30q0 21 -1 34l19 -6l-6 -7v-21h1l8 10l14 -17h-23q0 -14 1 -31l-13 -5v6h-9v-25h20l6 9l12 -11l-6 -7q0 -21 1 -38l-13 -7v8h-20v-29h17l10 10l16 -17h-43q0 -38 1 -50l-14 -7q1 26 1 57h-15q-10 0 -19 -2l-10 9h44v29h-21v-8l-13 -4q1 11 1 31
t-1 35l14 -8h20v25h-9v-4l-13 -5q1 22 1 39h-6l-7 -2l-10 9h23q0 18 -1 34zM43 179h30v23h-30v-23zM31 108h21v32h-21v-32zM64 108h20v32h-20v-32zM161.5 204q1.5 -7 -4 -13.5t-7.5 5t-11 27.5l2 2q19 -14 20.5 -21zM177.5 148.5q-0.5 -7.5 -4.5 -11t-6.5 5.5t-12.5 23l2 2
q22 -12 21.5 -19.5zM165 245l19 -7l-6 -6v-52h17v39q0 14 -1 27l18 -7l-5 -6v-53h13l13 12l15 -19h-87q-11 0 -20 -2l-9 9h34v32q0 21 -1 33zM222 232l16 -9q-5 -4 -11 -14t-14 -22l-3 1q10 28 12 44zM208 172l17 -10q-5 -3 -12 -12t-13 -18h14l10 9l15 -16h-44
q-1 -12 -2 -19h13l10 9l16 -16h-40q-1 -13 -4 -21h27l11 10l16 -17h-56q-11 -27 -25.5 -40t-37.5 -23l-2 4q22 13 34.5 28.5t17.5 30.5h-11q-11 0 -20 -2l-9 9h42q2 6 4 21h-4q-10 0 -20 -3l-9 10h34q1 10 1 19h-15q-11 0 -20 -2l-9 9h57q11 25 14 40zM127 24l-13 -10
q1 21 1 44v111q-8 -18 -19 -31l-2 2q11 23 18.5 50t9.5 52l20 -10l-7 -7q-8 -25 -16 -47l13 -6l-5 -6v-142zM192 74q21 -37 56 -49v-3q-10 -1 -17 -10q-31 23 -45 62h6z" />
  </g>

</svg>
