<?xml version="1.0" standalone="no"?>
<!DOCTYPE svg PUBLIC "-//W3C//DTD SVG 1.1//EN" "http://www.w3.org/Graphics/SVG/1.1/DTD/svg11.dtd" >
<svg xmlns="http://www.w3.org/2000/svg" xmlns:xlink="http://www.w3.org/1999/xlink" version="1.1" viewBox="0 -120 1000 1000">
  <g transform="matrix(1 0 0 -1 0 880)">
   <path fill="currentColor"
d="M556 555v-46l-58 -7v439l61 -27h244l27 35l62 -41q12 -7 12 -18q0 -8 -14 -13l-13 -4v-350l-58 -7v39h-263zM556 583h103v141h-103v-141zM556 887v-134h103v134h-103zM718 583h101v141h-101v-141zM718 887v-134h101v134h-101zM37 469q35 35 50 55q78 114 106 266h-129
l-12 28h144q9 95 9 150l80 -19q20 -4 20 -13q0 -7 -16 -13l-18 -7l-10 -98h93l26 37l56 -46q14 -12 14 -19q0 -8 -14 -12l-13 -4q-13 -153 -30 -210q-14 -45 -39 -69q-29 -29 -59 -29q-8 0 -14 3q-5 3 -7 29q-1 6 -4 11q-3 6 -22 11l-41 11v16h111q42 67 44 243h-106
q-30 -157 -120 -260q-26 -31 -84 -76zM460 347h-393l-13 28h406v119l70 -10q26 -4 26 -14q0 -8 -18 -17l-11 -6v-72h296l47 59l85 -70v-17h-430q0 -48 -11 -99q-18 -82 -83 -130q-54 -38 -143 -62l-9 21q107 36 149 110q33 55 32 160z" />
  </g>

</svg>
