<?xml version="1.0" standalone="no"?>
<!DOCTYPE svg PUBLIC "-//W3C//DTD SVG 1.1//EN" "http://www.w3.org/Graphics/SVG/1.1/DTD/svg11.dtd" >
<svg xmlns="http://www.w3.org/2000/svg" xmlns:xlink="http://www.w3.org/1999/xlink" version="1.1" viewBox="0 -36 256 256">
  <g transform="matrix(1 0 0 -1 0 220)">
   <path fill="currentColor"
d="M31 104h13v73h-13v-73zM56 104h15v73h-15v-73zM44 48v49h-13v-7l-14 -7q0 7 1 22v54q0 21 -1 34l12 -9h15q0 45 -1 62l19 -10l-6 -9v-43h15l5 8l13 -12l-6 -6v-54q0 -19 1 -25l-13 -7v9h-15v-46l17 6q-1 13 -8 30l3 2q19 -24 19 -33.5t-4.5 -15.5t-6.5 -3t-2 13
q-21 -8 -35.5 -15t-20.5 -13l-10 17q11 0 36 9zM90 173l-3 3q9 15 15 35.5t8 33.5l16 -8q-4 -5 -6.5 -10t-5.5 -12h21q-2 14 -8 25l2 2q12 -8 15 -13t-5 -14h9l10 9l12 -16h-29v-19h4l8 7l11 -14h-23v-26h4l9 9l12 -16h-25v-25h7l10 9l12 -16h-56v-4l-12 -4q1 16 1 81
q-2 -4 -13 -17zM114 188h16v20h-16v-20zM114 155h16v26h-16v-26zM114 124h16v24h-16v-24zM159 172l-2 3q9 17 16 37.5t8 33.5l17 -10q-5 -4 -8 -10t-5 -11h22q-3 13 -9 24l2 2q13 -9 15.5 -14t-5.5 -12h7l10 9l13 -16h-26v-19h3l8 8l13 -15h-24v-26h2l9 9l11 -16h-22v-25h3
l10 9l15 -16h-56v-4l-12 -4q1 14 1 31v53q-5 -11 -16 -21zM186 188h17v20h-17v-20zM186 155h17v26h-17v-26zM186 124h17v24h-17v-24zM197 95l-8 -6v-54q0 -8 7 -9h22q9 1 10 9t2 27h4q-1 -33 12 -35q-10 -14 -26 -13h-31q-13 1 -13 13v66h-40q0 -44 -14.5 -61.5t-48.5 -23.5
l-1 4q31 10 41.5 30.5t7.5 64.5l16 -7h39l8 10zM143 81q16 -7 23 -14t1 -16.5t-10.5 3t-15.5 24.5z" />
  </g>

</svg>
