<?xml version="1.0" standalone="no"?>
<!DOCTYPE svg PUBLIC "-//W3C//DTD SVG 1.1//EN" "http://www.w3.org/Graphics/SVG/1.1/DTD/svg11.dtd" >
<svg xmlns="http://www.w3.org/2000/svg" xmlns:xlink="http://www.w3.org/1999/xlink" version="1.1" viewBox="0 -36 256 256">
  <g transform="matrix(1 0 0 -1 0 220)">
   <path fill="currentColor"
d="M153 104l1 -4q-56 -40 -61 -48l-13 14q16 7 32 17v118h-3q-10 0 -19 -3l-9 10h47l12 11l13 -18h-28v-112zM90 81l1 -4q-69 -36 -70 -44l-13 18q24 7 35 13v72h-5q-13 2 -19 -1l-7 8h31v66h-2q-11 0 -20 -2l-9 9h53l10 10l13 -17h-32v-66h9l9 12l13 -19h-31v-69zM155 109
v93q0 15 -1 31l14 -11h31l8 10l15 -12l-8 -7v-167q0 -9 1 -11.5t6 -2.5h4q8 2 8 40h4q0 -34 10 -41q-5 -10 -17 -10h-17q-12 0 -12 18v176h-33v-120q0 -53 -45 -88l-2 4q34 36 34 98z" />
  </g>

</svg>
