<?xml version="1.0" standalone="no"?>
<!DOCTYPE svg PUBLIC "-//W3C//DTD SVG 1.1//EN" "http://www.w3.org/Graphics/SVG/1.1/DTD/svg11.dtd" >
<svg xmlns="http://www.w3.org/2000/svg" xmlns:xlink="http://www.w3.org/1999/xlink" version="1.1" viewBox="0 -36 256 256">
  <g transform="matrix(1 0 0 -1 0 220)">
   <path fill="currentColor"
d="M201 242q9 -2 15.5 -6t4.5 -9.5t-4.5 -7.5t-5.5 5t-12 15zM135 121q5 0 5 8v34q-5 0 -16 -3l-9 10h23q0 26 -1 40l19 -5l-6 -5v-7h9l6 5l9 -12h-24v-16h14l7 6l10 -13h-37l12 -4l-5 -6v-30q-1 -13 -14 -17q-2 10 -15 13v3q8 -1 13 -1zM137 146q-6 -4 -12.5 -13t-22.5 -22
l-2 3q9 11 16 22t8 17zM172 141.5q5 -4.5 4.5 -9t-4.5 -6.5t-6 5t-10 19l1 2q10 -6 15 -10.5zM230 174q-9 -16 -22 -32q7 -15 24 -24l6 27h4q-1 -37 2 -49q-16 7 -27 15.5t-17 19.5q-16 -14 -42 -24l-1 3q19 11 37 31q-14 29 -17 71h-62q-1 -48 -7 -73.5t-26 -54.5l-4 2
q17 35 19.5 55.5t3.5 39t-1 44.5l15 -7h61q0 14 -1 30l19 -8l-5 -5v-17h31l11 9l14 -16h-55q2 -36 12 -58q19 30 20 36l17 -13zM123 79h74v19h-74v-19zM110 88.5q0 9.5 -1 19.5l14 -3h73l5 7l16 -10l-7 -4v-27l-13 -2v3h-29v-17h33l14 8l13 -15h-60v-21q14 -2 32 -2t48 2v-3
q-15 -2 -19 -12q-47 1 -64 4t-29.5 8.5t-20.5 14.5q-11 -18 -43 -30l-1 4q22 11 29 24t6 26l19 -6l-6 -5l-2 -9q13 -11 39 -14v43h-33v-3l-14 -1q1 11 1 20.5zM34 204v-121h29v121h-29zM20 78v96q0 24 -1 46l15 -9h29l9 10l14 -16l-9 -6v-108q0 -17 1 -34l-15 -8v27h-29v-22
l-15 -7q1 15 1 31z" />
  </g>

</svg>
