<?xml version="1.0" standalone="no"?>
<!DOCTYPE svg PUBLIC "-//W3C//DTD SVG 1.1//EN" "http://www.w3.org/Graphics/SVG/1.1/DTD/svg11.dtd" >
<svg xmlns="http://www.w3.org/2000/svg" xmlns:xlink="http://www.w3.org/1999/xlink" version="1.1" viewBox="0 -143 1024 1024">
  <g transform="matrix(1 0 0 -1 0 881)">
   <path fill="currentColor"
d="M112 635h184l25 34l51 -43q12 -14 -6 -19h-124v-168h65l28 36l62 -42q9 -11 -5 -20h-150v-252l139 97l12 -17q-91 -77 -129.5 -114t-53.5 -68l-57 56q20 12 42 34v264h-71q-32 2 -59 -8l-17 34h147v168h-42l-24 -6zM253 942q8 -4 8 -5q4 -8 -8 -14q-27 -2 -35 -23
q-23 -53 -38 -91h126l31 40l63 -50q6 -12 -5 -16h-224q-71 -175 -134 -258l-12 8q48 104 84 210t72 230zM438 942l69 -20q8 -3 8 -4q4 -5 -2 -10l-31 -16v-154l4 -72q0 -13 -16 -25t-36 -12l4 104v209zM574 986l73 -26q7 -5 7 -6q0 -5 -5 -8l-29 -16v-208l4 -88
q1 -15 -16 -27.5t-38 -12.5l4 119v273zM825 957q8 -4 8 -7q2 -7 -10 -12q-14 -2 -26 -22t-37 -74h137l29 46l59 -56q3 -3 3 -6q0 -9 -7 -9h-233q-47 -85 -87 -133l-12 8q30 56 64 137t54 157zM759 758l6 12q60 -28 92 -50t42 -45t1 -39t-25 -15t-24 23t-21 44t-71 70z
M446 580l53 -30h334l26 32l56 -42q5 -5 5 -8.5t-27 -21.5v-134l4 -73q0 -11 -16 -24.5t-41 -16.5l4 105v158h-349v-150l4 -72q0 -16 -19 -29.5t-38 -13.5l4 104v216zM625 484l76 -28q7 -2 7 -7.5t-33 -16.5q-8 -88 -27 -150t-52 -107t-101 -81t-200 -66l-5 16q113 38 175 74
t93 78t45 96t18 100t4 92zM680 336l72 -19q6 -1 8 -9q0 -4 -6 -7l-27 -13v-146q2 -37 14.5 -40.5t23.5 -3.5h130q38 10 44 32t7 51t1 69h17q6 -76 12.5 -94.5t23.5 -29.5q-8 -27 -25 -44.5t-66 -25.5h-144q-29 0 -47.5 7t-30.5 28q-7 16 -7 51v194z" />
  </g>

</svg>
