<?xml version="1.0" standalone="no"?>
<!DOCTYPE svg PUBLIC "-//W3C//DTD SVG 1.1//EN" "http://www.w3.org/Graphics/SVG/1.1/DTD/svg11.dtd" >
<svg xmlns="http://www.w3.org/2000/svg" xmlns:xlink="http://www.w3.org/1999/xlink" version="1.1" viewBox="0 -246 2048 2048">
  <g transform="matrix(1 0 0 -1 0 1802)">
   <path fill="currentColor"
d="M349 1811h179l78 98q115 -93 115 -122q0 -17 -20 -29l-45 -27v-1460q0 -156 -185 -156q-3 60 -45 84q-38 21 -116 35v53q74 -14 171 -14q64 0 64 53v522h-219q-25 -473 -217 -751l-43 26q150 342 150 924v832q71 -33 133 -68zM330 1760v-387h215v387h-215zM328 899h217
v423h-215v-267q0 -105 -2 -156zM838 326v799q177 -15 177 -53q0 -24 -72 -52v-678q123 23 170 33v912q170 -15 170 -55q0 -26 -68 -50v-295h85l74 119q65 -68 106 -133l-18 -37h-247v-438q170 43 312 90v-64q-356 -144 -681 -229q-16 -80 -37 -80q-38 0 -90 193q41 6 119 18
zM1479 1416q-12 181 -15 520q183 -8 183 -53q0 -28 -70 -49q0 -174 8 -408h158l86 88q56 -45 114 -100l-18 -39h-338q28 -584 123 -883q53 -164 72 -164q32 0 86 355l49 -27q-24 -260 -24 -335q0 -102 46 -121q-30 -95 -92 -95q-97 0 -186 209q-130 291 -180 1051h-762
l-21 51h781zM1829 1547q-44 0 -59 53q-35 136 -115 213l28 31q108 -52 164 -119q46 -53 46 -102q0 -76 -64 -76zM836 1657l-19 51h385l88 129q69 -75 115 -145l-23 -35h-546z" />
  </g>

</svg>
