<?xml version="1.0" standalone="no"?>
<!DOCTYPE svg PUBLIC "-//W3C//DTD SVG 1.1//EN" "http://www.w3.org/Graphics/SVG/1.1/DTD/svg11.dtd" >
<svg xmlns="http://www.w3.org/2000/svg" xmlns:xlink="http://www.w3.org/1999/xlink" version="1.1" viewBox="0 -36 256 256">
  <g transform="matrix(1 0 0 -1 0 220)">
   <path fill="currentColor"
d="M69 226l-7 -6q-14 -40 -29 -71h58l7 11l15 -12l-8 -10q0 -91 -8.5 -107t-22.5 -21q-4 15 -25 21v6q20 -3 27 -3t10.5 18t4.5 91h-27q-3 -55 -15.5 -83.5t-36.5 -47.5l-2 3q39 50 39 128h-8l-7 -4l-3 7q-11 -18 -21 -28l-2 2q29 46 41 116zM81 243q26 -28 37.5 -47.5
t5 -32.5t-12.5 9t-33 69zM120 196l-1 4q35 11 59.5 23t32.5 19l17 -17q-12 -1 -23.5 -5t-28.5 -11v-52l33 10l8 13l17 -14l-58 -15v-50l44 12l9 14l17 -15l-70 -18v-53q0 -12 10 -12h30q9 0 11.5 8.5t4.5 40.5h4q0 -23 2.5 -34t9.5 -15q-7 -13 -26 -13h-42q-18 0 -18 19v55
l-37 -8l-7 -4l-9 7l53 12v50l-29 -8l-8 -5l-9 7l46 12v52q-12 -3 -42 -9z" />
  </g>

</svg>
