<?xml version="1.0" standalone="no"?>
<!DOCTYPE svg PUBLIC "-//W3C//DTD SVG 1.1//EN" "http://www.w3.org/Graphics/SVG/1.1/DTD/svg11.dtd" >
<svg xmlns="http://www.w3.org/2000/svg" xmlns:xlink="http://www.w3.org/1999/xlink" version="1.1" viewBox="0 -205 1024 1024">
  <g transform="matrix(1 0 0 -1 0 819)">
   <path fill="currentColor"
d="M971 474l-7 -15h-256q31 -117 87 -207q72 -112 168 -147l-5 -11q-25 3 -35 -2t-13 -13.5t-6 -8.5q-5 0 -22 14q-60 46 -111 141.5t-77 207.5q-70 -286 -297 -374l-7 10q207 99 267 390h-208v21h68v264l-5 42l50 -21h108v141l-4 44l33 -6q40 -7 40 -19q0 -9 -26 -22v-138
h99l11 17q10 10 11 10q4 0 15 -9l28 -23q14 -13 14 -20q0 -9 -30 -19v-241h24l20 31q11 16 17 16q3 0 15 -15zM818 480v264h-105q-2 -193 -10 -264h115zM670 744h-109v-264h101q10 98 8 264zM484 626q12 -11 12 -18q0 -10 -39 -12l-56 -52l-13 8l34 61h-302q1 -53 -21 -87
q-15 -16 -22 -16q-8 0 -14 26q0 22 18.5 52t18.5 65q0 10 -1 22l13 1q3 -16 8 -43h32v277l58 -26h136l13 16q11 14 15 14q3 0 16 -11l27 -23q13 -11 13 -18q0 -5 -28 -14v-215h16l14 17q12 12 14 12q3 0 13 -10zM409 509q19 -13 19 -22q0 -6 -30 -21v-313q0 -47 -2 -52
q-2 -8 -24 -17l-31 -14q-14 -6 -20 -6q-7 0 -8 18t-18 24l-38 15l-2 15l41 -6q20 -3 32 -3q19 0 24 10q3 7 3 35v96h-169v-148v-43q-2 -9 -23 -21q-10 -4 -13 -4q-8 0 -8 13q0 -5 0 47v418l54 -20h143l8 14q10 14 12 14q3 0 16 -8zM359 776v88h-163v-231h61v119l-3 40
l44 -16h61zM359 633v122h-61v-122h61zM355 397v92h-169v-92h169zM355 288v89h-169v-89h169z" />
  </g>

</svg>
