<?xml version="1.0" standalone="no"?>
<!DOCTYPE svg PUBLIC "-//W3C//DTD SVG 1.1//EN" "http://www.w3.org/Graphics/SVG/1.1/DTD/svg11.dtd" >
<svg xmlns="http://www.w3.org/2000/svg" xmlns:xlink="http://www.w3.org/1999/xlink" version="1.1" viewBox="0 -36 256 256">
  <g transform="matrix(1 0 0 -1 0 220)">
   <path fill="currentColor"
d="M76 221q0 -54 -0.5 -90t-9 -64t-27.5 -52l-4 1q15 29 20.5 55t6.5 49h-19q-4 -53 -30 -85l-3 2q19 35 20 82l-8 -2l-9 10h49v37h-25l-6 -7l-12 12l6 6v52l19 -8l-6 -7v-41h24v31q0 17 -1 35l16 -9h136l11 11l18 -18h-166zM75 135q10 20 18 41t12 39l19 -10q-3 -2 -8 -8.5
t-16 -31.5l14 -5l-7 -7v-131l-14 -8q1 22 1 35v108q-4 -10 -16 -23zM146 132h31v32h-31v-32zM146 89h31v36h-31v-36zM146 41h31v41h-31v-41zM155 198.5q-3 -6.5 -11 -27.5h66l10 10l17 -17h-46v-32h17l9 9l16 -16h-42v-36h15l10 9l16 -16h-41v-41h22l10 10l17 -17h-94v-12
l-14 -7q1 27 1 133q-4 -9 -20 -29l-3 3q14 26 21.5 49t12.5 46l19 -8q-5 -4 -8 -10.5zM195 193q3 -7 -2.5 -13t-9.5 3.5t-15 22.5l2 3q22 -9 25 -16z" />
  </g>

</svg>
