<?xml version="1.0" standalone="no"?>
<!DOCTYPE svg PUBLIC "-//W3C//DTD SVG 1.1//EN" "http://www.w3.org/Graphics/SVG/1.1/DTD/svg11.dtd" >
<svg xmlns="http://www.w3.org/2000/svg" xmlns:xlink="http://www.w3.org/1999/xlink" version="1.1" viewBox="0 -36 256 256">
  <g transform="matrix(1 0 0 -1 0 220)">
   <path fill="currentColor"
d="M157 168q0 65 -1 79l22 -11l-8 -7v-20h28l11 11l17 -18h-56v-34h39l14 12l16 -19h-125q-13 0 -22 -3l-10 10h31q0 43 -1 55l21 -10l-7 -8v-37h31zM105 70.5q4 13.5 4 40t-1 41.5l15 -9h68l8 10l14 -12l-7 -7v-78q-1 -13 -20 -20q1 15 -25 20v5q31 -5 31 1v74h-69
q1 -55 -9 -70.5t-27 -26.5l-1 3q15 15 19 28.5zM130 126l1 3q30 -3 40.5 -8t6.5 -14.5t-12.5 0.5t-35.5 19zM131 67l-10 15q24 3 67 14l1 -3q-41 -17 -58 -26zM36 243q24 -14 29 -23t-1.5 -19.5t-11 6.5t-18.5 33zM39 54q11 25 22 52h-18l-8 -9l-13 12l9 6l22 44h-17l-11 -3
l-10 10h39l9 11l13 -16l-10 -5q-6 -10 -22 -43h18l8 8l12 -14l-8 -6q-10 -20 -20 -46q26 -22 84.5 -24t109.5 6v-4q-18 -5 -22 -17q-92 -2 -121.5 4.5t-58.5 29.5q-19 -21 -26 -37l-12 12q16 17 31 29z" />
  </g>

</svg>
