<?xml version="1.0" standalone="no"?>
<!DOCTYPE svg PUBLIC "-//W3C//DTD SVG 1.1//EN" "http://www.w3.org/Graphics/SVG/1.1/DTD/svg11.dtd" >
<svg xmlns="http://www.w3.org/2000/svg" xmlns:xlink="http://www.w3.org/1999/xlink" version="1.1" viewBox="0 -205 1024 1024">
  <g transform="matrix(1 0 0 -1 0 819)">
   <path fill="currentColor"
d="M892 892l36 44l68 -54l2 -6q0 -10 -8 -10h-494v-206q3 -240 -24 -378q-24 -135 -150 -249l-10 14q102 119 120 251q16 132 12 352v286l66 -44h382v0v0zM556 796l58 -40h252l28 44l62 -44q6 -7 6 -10q0 -6 -32 -26v-222l4 -84q0 -12 -14 -24q-13 -12 -38 -14v38h-114v-148
h82l32 38l64 -46q3 -3 4 -6q0 -12 -12 -12h-170v-141h138l34 43l58 -51q3 -4 4 -8q0 -9 -12 -10h-434q-21 1 -68 -8l-16 34h246v141h-100q-21 0 -68 -8l-16 34h184v148h-114v-18q-1 -13 -16 -22q-12 -10 -36 -10l4 116v316v0v0zM604 440h114v126h-114v-126v0v0zM768 566
v-126h114v126h-114v0v0zM604 592h114v138h-114v-138v0v0zM768 730v-134h114v134h-114v0v0zM62 864q75 -78 94 -108q16 -30 14 -54q-1 -24 -14 -32q-13 -10 -26 -4q-13 4 -16 32q-1 27 -14 64q-13 33 -50 94l12 8v0v0zM250 620h86l32 46l52 -54q3 -3 4 -8q0 -10 -12 -10h-162
v-76q44 -21 86 -56q42 -34 48 -58t-2 -42q-6 -16 -24 -14q-18 0 -24 22q-5 20 -28 58q-21 38 -56 68v-346l4 -91q0 -14 -18 -26q-18 -14 -36 -14l4 129v342q-30 -96 -72 -174q-43 -78 -92 -144l-12 10q39 74 72 152q33 77 54 146q17 66 32 114h-82q-21 0 -56 -8l-16 34h172
v360l74 -36q3 -1 4 -2q9 -6 0 -12l-32 -18v-292v0v0zM280 664q57 132 78 210q69 -36 72 -42q1 -7 -10 -10q-9 -4 -26 -16t-100 -150l-14 8v0v0z" />
  </g>

</svg>
