<?xml version="1.0" standalone="no"?>
<!DOCTYPE svg PUBLIC "-//W3C//DTD SVG 1.1//EN" "http://www.w3.org/Graphics/SVG/1.1/DTD/svg11.dtd" >
<svg xmlns="http://www.w3.org/2000/svg" xmlns:xlink="http://www.w3.org/1999/xlink" version="1.1" viewBox="0 -144 1024 1024">
  <g transform="matrix(1 0 0 -1 0 880)">
   <path fill="currentColor"
d="M859 252l-20 7l36 -30l-27 -21v-132l-64 -33v43h-287v-16l-65 -32v225l-59 -14l-73 -14l-2 9l136 48l62 25l57 26l54 27l6 3l-26 22l-30 32l-25 34l-10 20l-24 -26l-45 -41l-25 -17l-26 -17l-28 -14l-30 -12l-5 9l67 61l37 41l32 44l14 24l13 23l14 30l55 -35l10 -16
l-21 -2l-12 -18h252l11 11l2 -2l21 18l59 -49l-27 -16l-25 -11l-21 -19l-43 -33l-46 -30l-21 -12l18 -8l46 -17l49 -16l54 -14l105 -23l-63 -58zM188 45l-24 -7l-21 13l-6 24l3 17l1 15l-2 13l-4 13l-7 13l-11 13l-14 12l-19 12l-22 12l-27 9l1 9l29 -3l28 -4l24 -7l14 -7
l55 62l83 86l75 73l7 -6l-146 -207l-13 -21l-10 -16l-4 -9l9 -14l9 -23l5 -25v-26zM784 229h-287v-121h287v121zM655 343l-28 -14l-57 -23l-62 -22l-49 -14l38 -19h287l23 19l-55 21l-47 23l-44 25zM148 342l-6 7l-7 7l-10 7l-26 14l-33 16l-19 8l-21 6l1 10l23 -2l21 -1
l20 -1l36 -5l16 -3l14 -4l14 -4l13 -6l11 -7l10 -23l-9 -23l-23 -10l-23 9zM779 493h-248l18 -18l30 -25l32 -24l36 -22l9 -5l45 30l41 31zM226 481l-6 7l-8 7l-10 7l-24 15l-31 16l-18 8l-20 6l2 9l21 -2h20l19 -2l17 -2l17 -2l16 -4l27 -8l13 -6l12 -6l11 -22l-9 -24
l-22 -10l-23 8zM43 715l-2 2l-3 5l-1 2l-2 3l9 6l10 7l10 9l8 11l9 14l7 17l7 19l6 21l5 24l3 26l10 1l4 -41h335v78h-323v22h613l54 53l64 -53v-22h-344v-78h360l3 2l1 3l2 -1l27 22l59 -48l-27 -16l-22 -9l-29 -31l-32 -28l-11 -8l-10 -10l-7 7l7 11l34 84h-355v-220
l-64 -33v253h-333l1 -13l-2 -23l-3 -22l-6 -20l-8 -19l-10 -18l-12 -16l-16 -14zM802 690l54 -49v-21h-280v21h182zM339 695l65 -54v-21h-280v21h162zM34 728l35 -54l-24 -4l-21 13l-3 24zM764 785l54 -49v-21h-242v21h144zM350 785l54 -49v-21h-253v21h155z" />
  </g>

</svg>
