<?xml version="1.0" standalone="no"?>
<!DOCTYPE svg PUBLIC "-//W3C//DTD SVG 1.1//EN" "http://www.w3.org/Graphics/SVG/1.1/DTD/svg11.dtd" >
<svg xmlns="http://www.w3.org/2000/svg" xmlns:xlink="http://www.w3.org/1999/xlink" version="1.1" viewBox="0 -52 256 256">
  <g transform="matrix(1 0 0 -1 0 204)">
   <path fill="currentColor"
d="M40 123l11 -12h144l11 11l12 -13q2 -2 1 -3q0 -1 -3 -1l-4 -3v-61l1 -16q-2 -9 -14 -11l1 14l1 13v28h-149v-31l1 -11q0 -9 -14 -12q2 10 2 33v62q-1 7 -5 10zM52 106v-32h149v32h-149zM174 249l22 -8q2 -1 2 -2l-1 -1q-5 -1 -8 -4v-37h19l7 11l17 -13l2 -2q0 -1 -3 -1
h-42v-49h26l8 11l17 -14q4 -2 -1 -2h-95q-7 0 -11 -4l-9 9h15v69q1 3 -6 10l2 3l21 -9q3 0 1 -2q-4 -2 -7 -5v-66h29v93q0 4 -7 11zM61 249l22 -8q3 -1 2 -3q-6 -1 -9 -4v-37h21l7 11l17 -13l2 -2q0 -1 -3 -1h-44v-49h18l8 11l17 -14q4 -2 -1 -2h-76l-10 -10l-11 11l8 6v67
q0 4 -7 11l2 2l21 -8q4 -1 2 -3q-4 -1 -7 -4v-67h26v93q0 4 -7 11z" />
  </g>

</svg>
