<?xml version="1.0" standalone="no"?>
<!DOCTYPE svg PUBLIC "-//W3C//DTD SVG 1.1//EN" "http://www.w3.org/Graphics/SVG/1.1/DTD/svg11.dtd" >
<svg xmlns="http://www.w3.org/2000/svg" xmlns:xlink="http://www.w3.org/1999/xlink" version="1.1" viewBox="0 -36 256 256">
  <g transform="matrix(1 0 0 -1 0 220)">
   <path fill="currentColor"
d="M206 231l12 10l15 -17h-46v-23h30l12 10l16 -17h-96q-11 0 -20 -2l-9 9h53v23h-14q-10 -1 -20 -3l-9 10h76zM152 122h60v11h-60v-11zM139 145q0 19 -1 40l15 -6h57l6 9l15 -11l-6 -7q0 -41 1 -56l-14 -6v7h-60v-5l-14 -6q1 22 1 41zM152 160h60v12h-60v-12zM152 140h60
v13h-60v-13zM158 88q-10 -8 -20 -14l-2 2q7 8 15 18t12 20l16 -11q-11 -7 -21 -15zM218 96.5q10 -7.5 8 -15t-5 -9.5t-8.5 9t-22.5 25l2 3q16 -5 26 -12.5zM71 220q-3 12 -12 23l2 2q17 -6 20.5 -12t-4.5 -13h23l10 9l14 -16h-71q-11 0 -20 -2l-9 9h47zM63.5 203.5
q3.5 -4.5 2 -9.5t-5 -5.5t-6 6t-12.5 16.5l2 2q16 -5 19.5 -9.5zM91 214l16 -10q-7 -2 -21 -17h18l12 9l13 -16h-83q-11 -1 -20 -2l-9 9h63q10 19 11 27zM36 146q0 11 -1 27l15 -7h45l8 8l13 -13l-8 -4q0 -24 1 -32l-13 -6v5h-18v-17h28l11 10l14 -17h-53q0 -16 1 -27
l-15 -6q1 20 1 33h-23q-10 0 -19 -3l-9 10h51v17h-16v-1l-14 -6q1 18 1 29zM49 151h47v8h-47v-8zM49 131h47v13h-47v-13zM135 61h48l14 11l18 -18h-80v-29h75l15 12l17 -19h-201q-10 0 -19 -2l-10 9h109v29h-51q-10 -1 -19 -3l-10 10h80q0 10 -1 23l21 -11l-6 -6v-6z" />
  </g>

</svg>
