<?xml version="1.0" standalone="no"?>
<!DOCTYPE svg PUBLIC "-//W3C//DTD SVG 1.1//EN" "http://www.w3.org/Graphics/SVG/1.1/DTD/svg11.dtd" >
<svg xmlns="http://www.w3.org/2000/svg" xmlns:xlink="http://www.w3.org/1999/xlink" version="1.1" viewBox="0 -205 1024 1024">
  <g transform="matrix(1 0 0 -1 0 819)">
   <path fill="currentColor"
d="M178 532h180l32 40l56 -54q2 -4 2 -8t-6 -4h-152q0 -78 -8 -128h110l30 36l52 -46q2 -3 2 -6q0 -10 -12 -10h-184q-6 -30 -14 -54q72 -24 106 -54q33 -28 40 -52q4 -25 -6 -38q-9 -14 -24 -12q-12 3 -24 30q-11 27 -34 58q-22 28 -64 50q-27 -86 -84 -145
q-55 -60 -136 -106l-8 16q86 65 134 139q48 75 66 168h-96q-21 1 -68 -10l-18 36h186q6 47 6 128h-82q-35 -62 -76 -106l-16 8q66 110 96 220q69 -34 70 -40t-4 -8q-5 -3 -16 -6q-9 -3 -36 -42v0v0zM140 956q81 -27 78 -32q7 -5 -4 -10l-26 -14v-94q93 38 202 116
q52 -49 48 -58q-3 -8 -8 -6h-22t-72 -24q-55 -22 -148 -52v-58q0 -33 12 -36l24 -2h114q23 3 38 6q14 2 22 32q6 30 10 88h20q3 -51 4 -74q3 -22 24 -34q-7 -22 -20 -34q-10 -12 -28 -18q-16 -6 -50 -8h-134q-27 0 -48 6q-18 5 -30 26q-6 17 -6 52v228v0v0zM844 934
q62 -59 64 -64q3 -6 -2 -8q-3 -1 -24 -10q-21 -7 -36 -16t-114 -110q15 -26 16 -46q-1 -21 -10 -30t-24 -6q-12 2 -18 28q-3 26 -26 56q-24 27 -60 60l10 10q35 -17 52 -28q15 -9 46 -30q26 38 94 134h-278q-15 0 -36 -8l-26 34h338l34 34v0v0zM466 632h418l24 38
q63 -51 64 -60q0 -7 -6 -8q-6 0 -30 -6t-96 -86l-16 10l56 86h-152v-196h118l38 48l60 -60q2 0 2 -6q0 -7 -8 -8h-210v-255q82 -9 182 -4l84 4v-20q-49 -6 -62 -22q-12 -12 -18 -30q-150 15 -206 32q-57 19 -102 69q-46 50 -76 124q-27 -103 -72 -159q-45 -58 -134 -110
l-10 14q75 52 114 117q39 64 58 152q18 87 24 220l78 -24q6 -3 6 -8q0 -6 -8 -8q-25 -12 -28 -38q-3 -27 -20 -122q52 -108 140 -168v458h-128q-21 0 -68 -8l-16 34v0v0z" />
  </g>

</svg>
