<?xml version="1.0" standalone="no"?>
<!DOCTYPE svg PUBLIC "-//W3C//DTD SVG 1.1//EN" "http://www.w3.org/Graphics/SVG/1.1/DTD/svg11.dtd" >
<svg xmlns="http://www.w3.org/2000/svg" xmlns:xlink="http://www.w3.org/1999/xlink" version="1.1" viewBox="0 -205 1024 1024">
  <g transform="matrix(1 0 0 -1 0 819)">
   <path fill="currentColor"
d="M674 664q7 -2 2 -10q0 -3 -8 -6q-21 -7 -30 -22t-30 -56h222l34 42l56 -50q6 -4 6 -10q1 -7 -6 -8h-180q0 -81 -8 -152h144l38 44l56 -52q3 -4 4 -10q1 -9 -16 -8h-182q23 -67 56 -128q32 -61 80 -99q48 -39 100 -48v-18q-43 1 -58 -8q-13 -6 -32 -22q-40 31 -70 74
q-30 37 -56 107q-27 66 -42 142h-26q-19 -111 -76 -198q-57 -83 -168 -147l-8 14q90 67 138 149t66 182h-118q-21 0 -56 -8l-16 34h194q10 70 8 152h-96q-36 -60 -72 -108l-16 8q54 105 96 250l70 -30v0v0zM806 958l48 -38q9 -7 10 -16q0 -5 -36 -22l-18 -142h74l36 42
l60 -54q3 -3 4 -6q0 -10 -12 -10h-408q-29 -4 -40 -10l-20 38h256l20 156h-124q-18 0 -44 -8l-24 36h184l34 34v0v0zM570 940q19 -12 0 -18q-22 -3 -46 -48q-42 -88 -84 -166l34 -22q13 -6 14 -12q0 -6 -26 -18v-496l4 -95q0 -15 -14 -28q-15 -13 -42 -14l4 139v504
q-39 -72 -84 -120l-10 10q45 80 100 208q54 126 78 210l72 -34v0v0zM90 932l58 -44h98l30 40l60 -42q9 -10 -2 -22l-22 -18v-572l4 -130q0 -10 -18 -25q-15 -15 -36 -18v75h-124v-71q0 -12 -20 -28q-19 -13 -32 -14l4 189v680v0v0zM138 202h124v198h-124v-198v0v0zM138 426
h124v208h-124v-208v0v0zM138 660h124v202h-124v-202v0v0z" />
  </g>

</svg>
