<?xml version="1.0" standalone="no"?>
<!DOCTYPE svg PUBLIC "-//W3C//DTD SVG 1.1//EN" "http://www.w3.org/Graphics/SVG/1.1/DTD/svg11.dtd" >
<svg xmlns="http://www.w3.org/2000/svg" xmlns:xlink="http://www.w3.org/1999/xlink" version="1.1" viewBox="0 -36 256 256">
  <g transform="matrix(1 0 0 -1 0 220)">
   <path fill="currentColor"
d="M68 226q6 -8 1 -17.5t-11.5 4.5t-22.5 28l1 3q26 -10 32 -18zM16 186q32 -12 34 -22t-3.5 -15t-9 5.5t-22.5 28.5zM41.5 88q6.5 4 36.5 111l5 -1q-22 -91 -26 -103.5t-5 -24t0.5 -37.5t-9.5 -20.5t-8 23.5t3 29t-23 17v4q20 -2 26.5 2zM220 219h-110q0 -18 -6 -23
t-14.5 -3.5t1 12t15.5 33.5h4v-12h109l9 10l17 -19q-14 -2 -32 -26l-4 2zM142 182q-29 -29 -55 -44l-2 4q17 14 29.5 29.5t18.5 30.5l18 -17zM228 166.5q6 -9.5 1.5 -18t-15 6.5t-40.5 37l2 4q46 -20 52 -29.5zM150 163l24 -10l-8 -6q0 -2 -4 -30h50l12 13l20 -20h-72
q4 -18 23 -44.5t51 -38.5v-4q-16 -1 -23 -12q-19 15 -34.5 40.5t-22.5 58.5h-5q-11 -44 -34.5 -67t-57.5 -35l-2 4q26 13 47.5 35.5t30.5 62.5h-30q-17 -1 -26 -3l-10 10h67q4 25 4 46z" />
  </g>

</svg>
