<?xml version="1.0" standalone="no"?>
<!DOCTYPE svg PUBLIC "-//W3C//DTD SVG 1.1//EN" "http://www.w3.org/Graphics/SVG/1.1/DTD/svg11.dtd" >
<svg xmlns="http://www.w3.org/2000/svg" xmlns:xlink="http://www.w3.org/1999/xlink" version="1.1" viewBox="0 -144 1024 1024">
  <g transform="matrix(1 0 0 -1 0 880)">
   <path fill="currentColor"
d="M295 214l-1 -9h399v71h-398v-62zM569 412l-1 4l25 3l40 5v150l60 -9l64 23l121 41h1l4 2l2 -7l54 -45l1 -16l-23 10l-17 -4l-22 -4l-21 -3l-46 -7l-21 -3l19 -37l13 -21l13 -19l15 -17l15 -15l15 -12l17 -11l17 -9l19 -7l32 -14l-62 -51l-22 14l-21 16l-19 18l-17 21
l-14 21l-35 -15l-24 -9l-48 -17l-74 -22l-27 -7l-8 -20l-14 14l-1 4v2v1l-2 5v1v2l-1 1v2v2v1l-2 6v3l-1 3v2v2v2l-1 1v1l-2 10v1l-1 6v1zM422 541l-8 18l-5 10l-26 39l-7 10l-10 9l3 4h-305v21h403v104l64 -11l16 -11l-16 -10v-72h285l54 54l64 -54v-21h-337l41 -39l5 -18
l-23 4l-30 -23l-25 -17l-14 -9l-15 -8l6 -5l-16 -9v-136l-65 -32v183l-15 -3l-21 14zM568 416l12 -63l-22 61zM359 423l-7 -11l-8 -11l-8 -9l-11 -9l-10 -7l-12 -6l-12 -5l-13 -3l-13 -2l-14 -1l1 33l-86 16v7l-32 -21l-31 -15l-33 -11l-38 -9l-2 9l31 18l29 19l24 18l20 19
l16 19l11 19l9 20l5 21l2 21l-1 12h-86v22h221l32 26l59 -48l-27 -16v-12l-1 -18l-1 -16l-1 -14l-3 -24l-2 -11l-3 -10zM776 551l-35 -3l-24 -2l-16 -1l-3 -2v-110l45 5l25 3l26 2l9 1l-5 9l-10 25l-7 27l-4 28zM586 631h-208l5 -3l13 -5l23 -11l12 -6l20 -14l10 -7l18 -17
l4 -24l-6 -9l39 -6l15 22l36 49l19 30v1zM854 754l-1 -13l-2 -14l-4 -13l-7 -12l-9 -11l-11 -8l-12 -7l-13 -5l-13 -2l-14 -1v32l-75 16v17h75h7l5 1l4 2l3 2l1 2v3l1 5l1 6h64zM545 922l-20 -12l-1 -7v-1l5 -9l11 -15l13 -14l16 -11l19 -11l22 -9l26 -9l30 -8l33 -6l49 -10
l-64 -59l-37 11l-33 13l-30 15l-25 17l-22 18l-17 21l-12 23l-1 3l-6 -11l-19 -22l-23 -18l-27 -15l-30 -12l-33 -10l-37 -6l-41 -3l-1 9l37 13l33 14l28 15l24 15l19 16l14 16l10 16l6 17l3 18v29h-224v-233l-65 -32v319l65 -32h550l32 27l59 -49l-27 -21v-168h-64v189
h-315l54 -10zM230 214v143l65 -11l16 -11l-16 -9v-28h398v59l64 -11l16 -11l-16 -9v-253l-64 -32v142h-402l-7 -28l-10 -26l-14 -23l-18 -20l-20 -16l-23 -12l-25 -8l-27 -4l-29 -2l-2 10l27 9l22 11l18 12l15 14l12 15l8 16l7 17l4 20l2 22zM303 455l2 10l2 8l1 11l1 13
l1 14v16v27h-71l-1 -19l-7 -29l-12 -28l-15 -24l-20 -23l-8 -7h76l14 1l6 2l5 2l5 2l4 3l4 4l5 5l4 5zM305 454v-1v1z" />
  </g>

</svg>
