<?xml version="1.0" standalone="no"?>
<!DOCTYPE svg PUBLIC "-//W3C//DTD SVG 1.1//EN" "http://www.w3.org/Graphics/SVG/1.1/DTD/svg11.dtd" >
<svg xmlns="http://www.w3.org/2000/svg" xmlns:xlink="http://www.w3.org/1999/xlink" version="1.1" viewBox="0 -36 256 256">
  <g transform="matrix(1 0 0 -1 0 220)">
   <path fill="currentColor"
d="M48 141q-13 0 -22 -3l-10 10h43v5q0 21 -1 42l22 -11l-8 -6v-30h8l12 12l15 -19h-35v-37l30 12l2 -4l-32 -17v-61q0 -16 -21 -25q-2 16 -24 20v4q16 -1 23.5 -1.5t8.5 9.5v47q-24 -11 -33 -21l-12 16q12 4 45 16v42h-11zM167 133q21 16 31 30h-58l-5 -6q18 -16 32 -24z
M100 127l-1 4q10 10 21.5 25.5t20.5 35.5l17 -11q-5 -2 -13 -11h53l10 8l15 -14l-8 -4q-16 -17 -38 -33q15 -7 31 -12.5t40 -5.5v-4q-17 -4 -17 -14q-30 7 -64 29q-32 -18 -81 -28l-1 5q43 12 70 30q-15 12 -24 25q-13 -14 -31 -25zM125 66q-5 -11 -7 -12h42v26h-21
q-13 1 -23 -1l-9 8h53v23l19 -7l-5 -5v-11h25l11 9l16 -16h-52v-26h33l11 8l18 -15h-62v-17q0 -12 1 -19l-16 -6q1 18 1 33v9h-40l-9 -6l-12 12q7 3 9.5 8t5.5 15l18 -7zM72 234l-13 -15h51l12 10l14 -17h-61q17 -5 23 -9t5.5 -8.5t-6.5 -8.5t-9 4.5t-20 21.5h-12
q-15 -17 -39 -32l-3 4q14 13 25.5 28t19.5 35l23 -11zM175 232l-13 -13h54l12 11l16 -18h-68q22 -7 27 -11t3 -11t-7 -8t-9 8.5t-21 21.5h-12q-17 -20 -33 -29l-2 3q16 19 26 35t14 25l22 -11z" />
  </g>

</svg>
