<?xml version="1.0" standalone="no"?>
<!DOCTYPE svg PUBLIC "-//W3C//DTD SVG 1.1//EN" "http://www.w3.org/Graphics/SVG/1.1/DTD/svg11.dtd" >
<svg xmlns="http://www.w3.org/2000/svg" xmlns:xlink="http://www.w3.org/1999/xlink" version="1.1" viewBox="0 -3 2048 2048">
  <g transform="matrix(1 0 0 -1 0 2048)">
   <path fill="currentColor"
d="M729 927q-12 10 -17 15l-8 12q-4 7 -16 36q-11 29 -26 52q-14 23 -38 48q-24 26 -45 42l-37 27l22 26h-11l-51 -3l-27 -1l-26 -3l-25 -3l-39 86q26 -5 47 -8q20 -3 40 -5q19 -2 50 -4q32 -1 51 -1h400v177h-135q-24 0 -57 -2q-33 -3 -39 -4q-5 0 -28 -2l-25 -3l-38 86
q27 -4 55 -7q27 -4 32 -4l51 -4q38 -3 49 -3h348l80 81l114 -86q10 -8 14 -14q5 -7 2 -19q-4 -11 -12 -15t-14 -4h-302v-177h413l98 101l121 -106q8 -8 13 -16q5 -7 2 -18q-3 -9 -11 -14q-9 -5 -14 -5h-304l90 -39q33 -15 30 -36q-2 -20 -35 -24l-48 -6l-62 -69
q-20 -22 -32 -34l-33 -33l-9 -9l-9 -8h362l98 102l121 -107q10 -10 15 -16q4 -6 1 -18q-3 -10 -11 -14t-14 -4h-1498q-24 0 -56 -2q-33 -3 -42 -4q-9 0 -26 -2l-24 -3l-39 86q26 -5 47 -8q20 -3 40 -5q19 -1 50 -3q32 -2 50 -2h377zM766 927h207v258h-404q15 -7 21 -11
l21 -12l48 -30q33 -21 57 -40.5t46 -45.5q22 -25 27 -52q5 -26 -1 -38q-5 -13 -8 -15zM1364 1185h-296v-258h158q5 9 9 15l19 31l30 47q14 23 30 55l35 74q6 13 7 15zM442 771q0 19 -1 25l-3 13l109 -24q49 -11 67 -21q17 -9 18 -22q2 -14 -12 -27q-15 -13 -36 -17l-40 -9
l-2 -157h168l88 98l130 -98q10 -8 12 -13t2 -13q1 -9 -3 -17q-3 -6 -7 -9q-5 -2 -12 -2h-378v-257l84 14q40 7 94 18q53 11 116 27l84 21l8 -42l-58 -21q-26 -9 -56 -18l-142 -41q-111 -32 -138 -39q-26 -7 -108 -26q-81 -19 -190 -41l-45 -12q-7 -41 -18 -51
q-11 -11 -20 -12t-18 8q-9 10 -26 50l-45 99q24 1 60 5q36 3 82 8q45 5 111 14q66 10 77 12l52 7v277h-161q-24 0 -57 -2q-32 -3 -41 -4q-9 0 -26 -2l-24 -3l-40 86q27 -5 45 -7q17 -2 43 -4l51 -4q35 -3 49 -3h43l118 -3v126v38q-1 15 -4 75zM1112 1827q8 -9 30 -29
q22 -19 59 -49t102 -75q65 -44 107 -68q42 -23 113 -57t121 -54t119 -41q69 -20 105 -28q37 -8 83 -15l43 -7v-34q-22 0 -39 -1t-37 -12q-21 -11 -30 -25l-19 -28l-92 34q-51 20 -113 47t-134 67q-73 40 -135 80q-62 41 -115 82q-53 42 -111 98l-78 75l-20 19l-16 -16
l-18 -20q-30 -33 -104 -92q-74 -58 -133 -96q-60 -38 -149 -82t-151 -72q-61 -27 -136 -52q-74 -25 -140 -42l-89 -24l-13 34l104 36q49 18 117 46q68 27 137 61q70 34 136 71q66 38 126 80q61 41 112 88q52 47 90.5 94.5t59.5 82.5l27 45l112 -68q13 -9 21 -18q7 -10 5 -19
q-3 -10 -12 -13t-21 -3h-24zM1375 543v97q0 42 -4 98t-4 61l-2 14l109 -24q50 -12 67 -21t17 -22q1 -14 -14 -27q-14 -13 -34 -18l-37 -9l-2 -149h216l101 100l123 -100q8 -7 11 -12q2 -5 3 -14t-4 -18q-4 -5 -7 -7q-4 -2 -11 -2h-432v-360h275l102 114l144 -114
q12 -10 14 -14q1 -3 2 -12q0 -10 -4 -16t-10 -9q-5 -3 -16 -3h-944q-28 0 -58 -2q-31 -3 -42 -4t-25 -2l-24 -3l-39 86q26 -4 52 -7q26 -4 30 -4q5 -1 50 -4q44 -3 56 -3h42l299 -3v360h-181l-71 -4l-27 -1q-4 -1 -26 -3l-24 -3l-40 86q27 -5 48 -8t40 -5q18 -1 50 -3t50 -2
h43z" />
  </g>

</svg>
