<?xml version="1.0" standalone="no"?>
<!DOCTYPE svg PUBLIC "-//W3C//DTD SVG 1.1//EN" "http://www.w3.org/Graphics/SVG/1.1/DTD/svg11.dtd" >
<svg xmlns="http://www.w3.org/2000/svg" xmlns:xlink="http://www.w3.org/1999/xlink" version="1.1" viewBox="0 -36 256 256">
  <g transform="matrix(1 0 0 -1 0 220)">
   <path fill="currentColor"
d="M39.5 195q6.5 -12 -1 -22.5t-10.5 7t-13 38.5l3 2q15 -13 21.5 -25zM52 245l23 -9l-9 -9v-71h18l10 14l15 -21h-43v-18q20 -12 28 -19.5t3 -19.5t-11 2.5t-20 30.5v-79q0 -13 1 -31l-15 -7q1 45 1 110q-16 -34 -42 -62l-3 2q31 45 42 91h-9q-13 0 -22 -3l-10 10h44
q0 59 -1 89zM100 207q-13 -25 -28 -41l-2 2q12 21 20 54l18 -11zM229 145l-14 -5v9h-86v-8l-14 -6q1 25 1 51t-1 53l15 -8h85l8 9l14 -12l-9 -6q0 -59 1 -77zM129 194h37v30h-37v-30zM179 194h36v30h-36v-30zM129 156h37v31h-37v-31zM179 156h36v31h-36v-31zM119 132
q14 -6 25.5 -14.5t5 -19t-10.5 1t-22 30.5zM166 49v36h-29q-19 1 -30 -2l-9 9h68q0 38 -1 50l21 -11l-7 -7v-32h13q20 28 24 42l18 -12l-8 -3q-14 -14 -28 -27h22l14 12l14 -19h-69v-22q0 -34 1 -49l-15 -6q1 18 1 41zM156 65l-11 -4q-22 -27 -50 -42l-3 3q34 26 47 57z
M187 74q16 -7 32 -16t18.5 -16t-0.5 -15t-11 4t-41 40z" />
  </g>

</svg>
