<?xml version="1.0" standalone="no"?>
<!DOCTYPE svg PUBLIC "-//W3C//DTD SVG 1.1//EN" "http://www.w3.org/Graphics/SVG/1.1/DTD/svg11.dtd" >
<svg xmlns="http://www.w3.org/2000/svg" xmlns:xlink="http://www.w3.org/1999/xlink" version="1.1" viewBox="0 -36 256 256">
  <g transform="matrix(1 0 0 -1 0 220)">
   <path fill="currentColor"
d="M127 212h-37q0 -4 1 -16l-16 -6q1 15 1 22h-30q-11 1 -22 -2l-10 9h62q0 19 -1 28l21 -8l-6 -6v-14h14l10 10zM143 211l-10 9h33q0 17 -1 26l21 -8l-6 -5v-13h34l12 11l16 -18h-62v-18l-15 -5q1 13 1 23h-13q1 1 -10 -2zM59 154h41v26h-41v-26zM112 154h36v26h-36v-26z
M161 154h40v26h-40v-26zM46 170q0 10 -1 24l14 -7h141l8 9l14 -12l-8 -6q0 -16 1 -30l-14 -3v2h-142v-3l-14 -4q1 20 1 30zM46 140l15 -5h119l13 9l18 -16h-81v-14h46l12 10l17 -17h-75v-13h45l13 9l18 -16h-76v-14h83l9 9l14 -13l-7 -4q-6 -29 -13 -42t-28 -15
q2 4 -4.5 8.5t-23.5 6.5v5q22 -2 31 -2t11.5 4t4.5 8.5t7 27.5h-152v-3l-16 -4q1 15 1 28v34q0 12 -1 19zM46 55q-1 -18 -5 -25t-10 -10.5t-11 -1.5t-5.5 6.5t6.5 7.5t10.5 7t10.5 17zM71 59q15 -7 20 -12.5t5.5 -9.5t-2.5 -8.5t-7 -4t-5 7t-5 13t-10 13.5zM62 114h54v14
h-54v-14zM62 94h54v13h-54v-13zM62 73h54v14h-54v-14zM158 63q23 -9 27 -13.5t3.5 -10t-5.5 -8.5t-8.5 5t-8.5 14t-11 10zM114 61q16 -8 22 -13.5t6 -9.5t-3 -7t-7 -3.5t-5 5.5t-5.5 12.5t-10.5 13.5z" />
  </g>

</svg>
