<?xml version="1.0" standalone="no"?>
<!DOCTYPE svg PUBLIC "-//W3C//DTD SVG 1.1//EN" "http://www.w3.org/Graphics/SVG/1.1/DTD/svg11.dtd" >
<svg xmlns="http://www.w3.org/2000/svg" xmlns:xlink="http://www.w3.org/1999/xlink" version="1.1" viewBox="0 -36 256 256">
  <g transform="matrix(1 0 0 -1 0 220)">
   <path fill="currentColor"
d="M135 205q63 -17 81 -26t15 -22t-21 4.5t-76 38.5v-19q0 -18 1 -24l-17 -7q1 11 1 28v24q-41 -38 -106 -56l-3 4q54 21 94 59h-52q-13 0 -22 -3l-10 10h99q0 14 -1 29l25 -9l-8 -6v-14h75l13 13l20 -20h-108v-4zM193 17l-16 -8q1 25 1 39l-143 -3l-11 -3l-11 10l47 1v86
q-8 0 -17 -2l-9 9h158l13 12l20 -19h-33v-83l23 1l11 13l20 -19l-54 -3q0 -22 1 -31zM74 116h104v23h-104v-23zM74 86h104v23h-104v-23zM74 53l104 2v24h-104v-26z" />
  </g>

</svg>
