<?xml version="1.0" standalone="no"?>
<!DOCTYPE svg PUBLIC "-//W3C//DTD SVG 1.1//EN" "http://www.w3.org/Graphics/SVG/1.1/DTD/svg11.dtd" >
<svg xmlns="http://www.w3.org/2000/svg" xmlns:xlink="http://www.w3.org/1999/xlink" version="1.1" viewBox="0 -143 1024 1024">
  <g transform="matrix(1 0 0 -1 0 881)">
   <path fill="currentColor"
d="M183 567l55 -30h238v74h-319q-28 -4 -42 -12l-26 38h387v100l80 -25q6 -2 4 -9q0 -4 -6 -7l-25 -13v-46h304l32 42l66 -52q6 -14 -8 -16h-394v-74h234l31 30l58 -40q5 -6 5 -8q0 -7 -29 -28v-150l4 -48q0 -13 -16 -24t-38 -12v40h-249v-82h354l38 44l56 -50q14 -16 0 -22
h-448v-84l4 -46q-1 -17 -23.5 -27.5t-36.5 -10.5l4 87v81h-362q-26 -4 -56 -10l-24 38h441v82h-241v-8q0 -14 -17.5 -24t-38.5 -12l4 55v259zM235 323h241v81h-241v-81zM529 404v-81h249v81h-249zM235 431h241v80h-241v-80zM529 511v-80h249v80h-249zM291 964q11 -10 0 -18
q-23 -6 -31 -13t-13.5 -14t-32.5 -44h212l32 44l62 -53q8 -16 -9 -17h-211q41 -28 58 -46t22 -34t-4 -33t-28 -14t-22 25t-14 44t-40 58h-73q-74 -94 -128 -147l-11 11q41 62 86 138t70 146zM695 962q11 -10 0 -18q-23 -6 -30 -14t-9.5 -12t-27.5 -43h240l36 46l66 -55
q8 -16 -9 -17h-237q43 -32 60 -48t22 -37t-7 -35t-29 -11t-19 29t-15 49t-40 53h-81q-36 -56 -80 -115l-13 9q35 72 56 126t42 122z" />
  </g>

</svg>
