<?xml version="1.0" standalone="no"?>
<!DOCTYPE svg PUBLIC "-//W3C//DTD SVG 1.1//EN" "http://www.w3.org/Graphics/SVG/1.1/DTD/svg11.dtd" >
<svg xmlns="http://www.w3.org/2000/svg" xmlns:xlink="http://www.w3.org/1999/xlink" version="1.1" viewBox="0 -36 256 256">
  <g transform="matrix(1 0 0 -1 0 220)">
   <path fill="currentColor"
d="M81 210q-28 -23 -68 -33l-1 3q40 17 61 39h-22q-12 0 -23 -2l-8 9h61q0 14 -1 21l21 -7l-7 -5v-9h26l9 9l14 -16h-49v-6q38 -6 44 -10.5t3 -12t-10.5 -0.5t-36.5 19v-11v-17l-14 -2q1 10 1 31zM108 178l9 9l13 -16h-58q-13 0 -22 -3l-10 10h68zM93 119q0 -7 2 -13l-16 -3
q1 9 1 18v29h-34q-13 0 -22 -3l-10 10h120l10 9l13 -16h-64v-31zM71 129h-11q-31 -20 -47 -23l-2 3q12 6 27 17.5t17 17.5zM134.5 132q6.5 -5 2.5 -12.5t-12 2t-23 17.5l1 4q25 -6 31.5 -11zM185 162q16 26 26 62h-52q10 -40 26 -62zM210 231l9 9l14 -15l-9 -4
q-11 -40 -32 -69q27 -27 53 -30v-5q-15 -1 -19 -10q-21 11 -41 36q-29 -29 -65 -39l-1 3q37 17 58 45q-18 34 -22 71l-11 -2l-6 10h72zM64 28h134v17h-134v-17zM211 49q0 -16 1 -34l-14 -6v12h-134v-9l-14 -5q2 16 2 48.5t-2 53.5l14 -8h132l7 10l16 -13l-8 -7v-42zM64 78
h134v16h-134v-16zM64 52h134v19h-134v-19z" />
  </g>

</svg>
