<?xml version="1.0" standalone="no"?>
<!DOCTYPE svg PUBLIC "-//W3C//DTD SVG 1.1//EN" "http://www.w3.org/Graphics/SVG/1.1/DTD/svg11.dtd" >
<svg xmlns="http://www.w3.org/2000/svg" xmlns:xlink="http://www.w3.org/1999/xlink" version="1.1" viewBox="0 -205 1024 1024">
  <g transform="matrix(1 0 0 -1 0 819)">
   <path fill="currentColor"
d="M516 720h204l12 136l66 -24q19 -9 2 -20l-24 -10l-8 -82h128l38 40l62 -52q3 -3 4 -6q0 -7 -8 -8h-226l-10 -126h104l28 42l56 -44q6 -5 6 -10t-32 -28v-354l4 -95q0 -12 -18 -24q-19 -12 -34 -12v68h-258v-36q0 -14 -20 -26q-18 -13 -32 -14l4 133v446l62 -46h82l12 126
h-134q-24 -6 -42 -12l-28 38v0v0zM612 137h258v123h-258v-123v0v0zM612 286h258v116h-258v-116v0v0zM612 428h258v114h-258v-114v0v0zM910 912q-243 -33 -408 -54v-244q3 -127 -6 -236q-7 -105 -46 -192q-38 -83 -136 -157l-10 8q83 96 110 165q26 69 34 178q7 108 6 222
v332l52 -52q237 35 396 92l52 -54q7 -12 -10 -12q-20 3 -34 4v0v0v0zM162 986q92 -51 116 -78q22 -28 20 -52q-3 -22 -14 -32q-12 -10 -26 -4q-15 3 -20 30q-6 27 -20 52q-14 24 -64 72l8 12v0v0zM62 774h236l32 38l54 -50q9 -7 10 -14q1 -6 -16 -8q-21 -3 -42 -36
q-39 -54 -84 -126v-104l26 -8l80 130l60 -38q6 -10 0 -14q-6 -3 -20 -2q-15 1 -102 -82q55 -24 74 -44q18 -21 24 -36q4 -15 -4 -30q-7 -15 -22 -18t-24 12q-9 14 -18 32q-6 18 -24 36t-50 40v-288l4 -83q1 -12 -18 -30q-20 -18 -40 -18l4 119v362q-54 -80 -152 -160l-12 12
q86 101 122 154q35 51 62 94q27 41 78 134h-168q-24 0 -50 -8l-20 34v0v0z" />
  </g>

</svg>
