<?xml version="1.0" standalone="no"?>
<!DOCTYPE svg PUBLIC "-//W3C//DTD SVG 1.1//EN" "http://www.w3.org/Graphics/SVG/1.1/DTD/svg11.dtd" >
<svg xmlns="http://www.w3.org/2000/svg" xmlns:xlink="http://www.w3.org/1999/xlink" version="1.1" viewBox="0 -36 256 256">
  <g transform="matrix(1 0 0 -1 0 220)">
   <path fill="currentColor"
d="M87 157l-13 -8v13h-12v-48h12l10 9l12 -16h-34v-56l30 9l1 -4q-32 -14 -65 -30l-10 -8l-11 16l15 4q0 77 -1 99l19 -14l-6 -7v-74l16 5v115h-17v-8l-13 -7q1 14 1 44t-1 48l14 -10h39l9 10l11 -15l-7 -5q0 -40 1 -62zM33 169h41v53h-41v-53zM100 109.5q0 60.5 -1 89.5
l13 -6h30l6 8l13 -12l-7 -4v-30l1 -16l-13 -4v6h-30v-128l-13 -6q1 42 1 102.5zM112 171h30v15h-30v-15zM188 148h34v16h-34v-16zM112 148h30v16h-30v-16zM128 83q0 13 -1 26l12 -4h21v10h-16q-10 0 -19 -2l-9 9h44q0 7 -1 20l16 -8l-4 -6v-6h24l10 7l12 -14h-46v-10h20l7 7
l10 -11l-6 -5q0 -17 1 -33l-13 -5v5h-19v-5q23 -5 29.5 -10.5t3.5 -11.5t-12 3.5t-21 14.5q0 -20 1 -32l-13 -8q1 14 1 42q-23 -26 -41 -34l-2 2q23 21 35 39h-13v-3l-12 -5q1 15 1 28zM180 93l10 -8q-7 -2 -19 -13v-2h19v28h-19v-20q5 7 9 15zM139 70h21v28h-21v-28z
M141 94q15 -8 15 -13.5t-4 -7t-5.5 4.5t-7.5 14zM197 25v4q20 -3 22.5 -1t2.5 13v100h-34v-2l-13 -5q1 15 1 32t-1 33l12 -6h36l8 9l12 -13l-8 -5v-151q0 -11 -3.5 -16.5t-14.5 -8.5q-1 14 -20 17zM188 171h34v15h-34v-15zM134 216h-11q-10 -1 -20 -3l-9 10h40q0 12 -1 24
l20 -8l-7 -7v-9h43q0 12 -1 23l21 -7l-7 -7v-9h19l11 9l15 -16h-45q0 -4 1 -13l-14 -5v18h-43v-12l-13 -5q1 11 1 17z" />
  </g>

</svg>
