<?xml version="1.0" standalone="no"?>
<!DOCTYPE svg PUBLIC "-//W3C//DTD SVG 1.1//EN" "http://www.w3.org/Graphics/SVG/1.1/DTD/svg11.dtd" >
<svg xmlns="http://www.w3.org/2000/svg" xmlns:xlink="http://www.w3.org/1999/xlink" version="1.1" viewBox="0 -36 256 256">
  <g transform="matrix(1 0 0 -1 0 220)">
   <path fill="currentColor"
d="M67 145h-17q-7 -19 -13 -28l6 -5h34l4 6l13 -11l-5 -5q0 -66 1 -84l-13 -8v15h-36v-11l-13 -8q1 19 1 97q-6 -9 -19 -24l-3 3q17 22 32 63h-10l-11 -3l-10 10h33q3 11 5 20h-9l-11 -3l-10 10h32q2 15 3 21h-18l-11 -3l-10 10h40q1 30 0 40l19 -9q-4 -5 -5.5 -12t-2.5 -19
h14l10 11l18 -18h-42q-2 -7 -4 -21h12l10 11l18 -18h-41q-3 -9 -6 -20h22l10 11l18 -18h-29q20 -26 42 -37v-4q-11 0 -15 -6q-18 21 -33 47zM41 73h36v32h-36v-32zM41 32h36v34h-36v-34zM130 46q0 -12 1 -28l-14 -9q1 38 1 43v109q-7 -13 -19 -29l-3 3q18 32 25.5 57.5
t11.5 51.5l19 -12l-9 -6q-8 -29 -15 -47l10 -10l-8 -4v-119zM188 66q13 19 22 43h-44q11 -28 22 -43zM213 228l7 8l12 -12l-6 -5q0 -49 1 -54l-13 -7v6h-33q-13 0 -22 -3l-10 10h65v23h-30q-13 0 -22 -3l-10 10h62v20h-34q-13 0 -22 -3l-10 10h65zM150 142q2 -18 -3.5 -22.5
t-11.5 -2t0.5 11t9.5 29.5l4 -1l1 -8h79l6 8l12 -15q-6 -3 -10 -7t-11 -13l-2 2l7 18h-81zM162 110l-9 -2l-9 8h67l7 9l14 -14l-8 -4q-13 -29 -30 -51q11 -11 25.5 -19t27.5 -10v-3q-10 -2 -13 -14q-17 10 -28 19.5t-17 17.5q-27 -28 -58 -39l-1 3q30 18 51 45
q-13 25 -20 54h1z" />
  </g>

</svg>
