<?xml version="1.0" standalone="no"?>
<!DOCTYPE svg PUBLIC "-//W3C//DTD SVG 1.1//EN" "http://www.w3.org/Graphics/SVG/1.1/DTD/svg11.dtd" >
<svg xmlns="http://www.w3.org/2000/svg" xmlns:xlink="http://www.w3.org/1999/xlink" version="1.1" viewBox="0 -200 999 1000">
  <g transform="matrix(1 0 0 -1 0 800)">
   <path fill="currentColor"
d="M916 264q0 -64 3 -95t8.5 -44.5t12 -16.5t13.5 -11q5 -8 5 -13q0 -10 -10.5 -16t-26.5 -9.5t-33.5 -4.5t-30.5 -1h-54q-18 0 -29.5 10.5t-13.5 32.5v673l62 -25l-15 -72l-1 -527q1 -23 3.5 -32.5t17.5 -9.5h17q16 0 27 3t17.5 19t9 49t2.5 92zM512 6q26 48 42 104t28 123
q17 109 22 240.5t5 296.5l64 -29l-15 -55q-6 -138 -13 -243.5t-20.5 -187.5t-36.5 -143.5t-62 -112.5zM856 914l57 -56h-295l-65 -14l-19 33h165v32l-7 90l69 -27l-16 -66v-29h75zM72 10q17 57 32 141t23 181q6 97 8.5 196.5t2.5 190.5v63.5t-1 58.5h-18l-46 -14l-23 35h226
v36l-16 104l78 -28l-17 -78v-34h86l32 43l52 -45l-21 -38v-171h-284q-2 -43 -4 -96t-5.5 -109.5t-9 -114.5t-14.5 -111q-9 -64 -26.5 -118.5t-38.5 -96.5zM350 105q31 -6 49 -6q20 0 28 9.5t15 32.5v105h-167v-188q-11 -11 -24 -17.5t-23 -8.5v562l59 -34h149l32 39l47 -49
l-27 -36v-407q-3 -12 -7 -25.5t-12 -25t-21 -20t-35 -10.5q-7 32 -23 43.5t-42 20.5zM419 673v169h-217l-13 -26v-143h230zM275 268h167v120h-167v-120zM275 409h167v127h-153l-14 -38v-89z" />
  </g>

</svg>
