<?xml version="1.0" standalone="no"?>
<!DOCTYPE svg PUBLIC "-//W3C//DTD SVG 1.1//EN" "http://www.w3.org/Graphics/SVG/1.1/DTD/svg11.dtd" >
<svg xmlns="http://www.w3.org/2000/svg" xmlns:xlink="http://www.w3.org/1999/xlink" version="1.1" viewBox="0 -205 1024 1024">
  <g transform="matrix(1 0 0 -1 0 819)">
   <path fill="currentColor"
d="M474 555h20q6 1 10 5l23 26q6 8 13 2q33 -24 61 -49q7 -5 1 -9q-29 -19 -30 -22q-3 -6 -3 -22v-275q0 -13 6 -20q25 -22 62 -38q54 -23 123 -27q76 -5 196 5l20 2q8 0 9 -7q1 -9 -15 -12q-16 -4 -29 -14q-17 -12 -21 -31q-3 -8 -13 -7q-52 5 -88 4q-42 0 -88 7
q-43 10 -71 23q-30 13 -85 64q-17 15 -24 15q-9 2 -16 -5q-26 -20 -54 -45q-29 -28 -45 -56q-4 -10 -11 -1q-16 24 -37 39q-10 7 -1 11q66 26 114 62q17 14 20 33v311h-32q-17 0 -51 -7q-5 -1 -6 2q-13 19 -23 35q-6 10 7 7q41 -5 58 -6zM348 608l22 25q3 5 6 5
q15 -1 57 -55q7 -8 -3 -9q-23 -1 -35 -13q-7 -6 -17 -46q-16 -92 -53 -170q3 -2 6 -5q43 -38 59 -75q14 -30 7 -55q-8 -23 -15 -33q-6 -10 -15 -9q-13 4 -13 23q-33 88 -55 108q-51 -114 -172 -250q-14 -9 -21 1q-8 12 5 22q104 118 158 258q1 3 2 4q-55 65 -108 112
q-8 8 -1 15q7 8 17 -2q55 -34 112 -83q32 79 49 194h-192q-11 -304 -89 -470q-9 -9 -16 -2q-6 8 1 18q60 204 60 612v79q0 42 -4 69q-3 13 3 14q5 2 12 -8q18 -23 43 -45h78v71q-1 39 -4 70q-1 16 9 13q53 -17 71 -26q14 -9 -2 -16q-15 -8 -19 -18q-7 -13 -7 -23v-71h102
q10 0 14 6l28 30q3 4 7 4q11 0 56 -60q8 -12 -7 -13q-14 -1 -23 -4q-36 -9 -97 -108q-6 -13 -16 -9q-9 5 -2 21q20 54 36 102h-98v-205h52q8 0 12 7zM150 601h86v205h-84v-78q-1 -67 -2 -127zM491 933q8 6 18 -7q43 -53 62 -93q13 -28 9 -41q-7 -23 -26 -32q-18 -7 -24 -6
q-6 2 -6 24q-2 39 -9 72q-10 39 -26 67q-5 9 2 16zM791 522q182 -178 170 -250q-4 -25 -20 -35q-17 -12 -24 -11q-6 2 -10 23q-40 151 -122 247q-12 -66 -33 -117q-35 -81 -126 -169q-16 -13 -23 -4q-7 10 3 19q51 59 84 119q50 99 62 318h-54q-42 -1 -73 -7q-8 -3 -11 6
q-4 18 -19 30q-7 7 -4 11q4 3 11 -1q38 -8 84 -8h67q3 184 -3 262q-2 16 10 13q54 -17 72 -27q14 -8 1 -14q-19 -11 -23 -20q-5 -10 -9 -214h66q6 0 12 7l36 41q7 7 14 0q26 -26 44 -48q11 -14 4 -24q-5 -6 -18 -7h-159q-4 -67 -11 -139q1 0 2 -1z" />
  </g>

</svg>
