<?xml version="1.0" standalone="no"?>
<!DOCTYPE svg PUBLIC "-//W3C//DTD SVG 1.1//EN" "http://www.w3.org/Graphics/SVG/1.1/DTD/svg11.dtd" >
<svg xmlns="http://www.w3.org/2000/svg" xmlns:xlink="http://www.w3.org/1999/xlink" version="1.1" viewBox="0 -200 1000 1000">
  <g transform="matrix(1 0 0 -1 0 800)">
   <path fill="currentColor"
d="M547 524l11 -3q0 2 1 5q6 23 7 49v11h-207v-34l5 -31q1 -38 -61 -46q7 60 8 124v179q-1 2 -2 5q-8 21 -14 23l15 13l41 -32h215v76h-233q-31 2 -54 -12l-39 29h326v63q2 17 -35 37l11 12l102 -28q8 -1 10 -4q2 -2 -2 -5q-25 -7 -37 -22v-53h234l34 52l83 -52
q12 -11 11 -14t-16 -3h-346v-76h200l35 36l60 -44q7 -5 6 -9t-12 -7l-23 -10v-199q1 -62 -85 -82q-3 27 -27 33q-4 1 -12 4q-31 13 -64 20l2 17q68 -12 118 -14q20 -2 21 21v33h-219v-10l3 -16q4 -26 -55 -41l63 -16q8 -4 8 -7q0 -2 -9 -4q-18 0 -25 -3q176 -123 394 -135
v-15q-40 0 -56 -4t-31 -21q-178 38 -321 162q-111 -93 -241 -143q73 -25 108 -61q15 -19 10 -35q-6 -17 -23 -17q-18 -2 -26 22q-18 48 -88 83q-66 -22 -135 -36l-4 12q248 81 350 194q9 12 -2 24zM532 413l8 10l94 -31q11 -4 13 -7t-4 -5q-21 -4 -34 -14v-140
q115 62 150 90q6 6 0 21l9 7l60 -38q6 -5 6 -8q-1 -4 -8 -6q-21 4 -50 -10q-64 -34 -167 -71v-126q-2 -25 -20 -42q-15 -17 -73 -29q-3 26 -27 34q-25 7 -85 18l4 20q24 -6 77 -11q40 -4 50 -1q25 6 26 44v258q-2 18 -29 37zM248 773l19 -7q-99 -371 -127 -491
q-10 -51 6 -130q18 -100 -22 -105q-42 -4 -29 94q12 95 -6 111q-17 15 -68 21v18q48 0 62 6q14 8 26 42q8 24 23 72q54 169 116 369zM615 681v-80h219v80h-219zM566 681h-207v-80h207v80zM615 770v-74h219v74h-219zM359 770v-74h207v74h-207zM282 83l-53 37l312 112l8 -14
q-170 -68 -236 -104q-12 -9 -31 -31zM633 205l5 10q125 -26 203 -79q23 -19 23 -41q0 -20 -17 -20q-19 -2 -45 28q-51 57 -169 102zM4 695l4 13q102 -30 138 -77q13 -21 9 -44q-6 -18 -20 -20q-16 -3 -23 22q-21 53 -108 106zM66 946l8 12q103 -32 137 -77q14 -22 10 -47
q-4 -16 -20 -18q-18 -4 -25 23q-17 58 -110 107zM689 962l1 10q4 -1 11 -2q75 -12 95 -39q22 -34 -12 -42q-12 0 -23 18q-8 13 -15 19q-7 11 -57 36z" />
  </g>

</svg>
