<?xml version="1.0" standalone="no"?>
<!DOCTYPE svg PUBLIC "-//W3C//DTD SVG 1.1//EN" "http://www.w3.org/Graphics/SVG/1.1/DTD/svg11.dtd" >
<svg xmlns="http://www.w3.org/2000/svg" xmlns:xlink="http://www.w3.org/1999/xlink" version="1.1" viewBox="0 -52 256 256">
  <g transform="matrix(1 0 0 -1 0 204)">
   <path fill="currentColor"
d="M11 37h53v42h-27q-6 0 -10 -3l-8 8h45v28q0 5 -6 11l2 3l19 -9q3 -1 2 -3q-4 -1 -7 -4v-26h19l8 10l15 -12q2 -1 2 -2q-1 -1 -3 -1h-41v-42h27l8 9l16 -11q2 -2 1 -2q0 -1 -3 -1h-94q-6 0 -10 -3zM12 210h53v28q0 6 -6 12l1 2l21 -9q4 0 1 -2l-1 -1q-4 -2 -6 -5v-25h27
l6 9l12 -11q3 -2 2 -3h-4h-43v-13q32 -13 39 -30q1 -11 -5 -11q-3 0 -6 7q1 0 0 1q-6 15 -28 28v-34l1 -14q1 -8 -13 -11q2 9 2 29v48h-5q-10 -49 -49 -73l-2 3q33 33 41 70h-20q-6 0 -10 -3zM117 232h103l8 11l17 -13q2 -1 2 -2q-1 -1 -3 -1h-59q-11 -22 -26 -36
q18 -21 25 -41q6 5 17 15q5 5 8 7q12 14 13 17q2 3 0 6l2 1l14 -13l2 -2q0 -1 -2 -2q-6 3 -19 -8q-6 -6 -16 -13q10 -51 35 -78q6 -4 15 -9v-3q-11 2 -17 -6q-30 30 -38 92l-12 -9l3 -6q1 -4 2 -6q13 -49 2 -89q-8 -23 -32 -29q0 10 -27 18l1 3q8 -2 19 -4q2 -1 3 -1
q8 -2 15 2q8 3 12 18q7 35 0 66q-21 -36 -74 -65l-1 3q47 33 72 76q-5 18 -8 26q-22 -31 -64 -52l-2 3q40 27 60 60q-5 8 -11 19q-15 -14 -36 -23l-2 3q39 25 54 60h-36q-5 1 -11 -3z" />
  </g>

</svg>
