<?xml version="1.0" standalone="no"?>
<!DOCTYPE svg PUBLIC "-//W3C//DTD SVG 1.1//EN" "http://www.w3.org/Graphics/SVG/1.1/DTD/svg11.dtd" >
<svg xmlns="http://www.w3.org/2000/svg" xmlns:xlink="http://www.w3.org/1999/xlink" version="1.1" viewBox="0 -205 1024 1024">
  <g transform="matrix(1 0 0 -1 0 819)">
   <path fill="currentColor"
d="M428 836l80 -34q8 -4 8 -10q-1 -6 -40 -26v-502q83 69 164 144l16 -16q-136 -142 -158 -166q-20 -25 -40 -70l-70 54l40 32v594v0v0zM530 946l12 10q63 -63 90 -108q26 -43 32 -74t-8 -50q-14 -18 -34 -12q-18 3 -20 30q0 27 -8 60q-6 32 -18 64q-13 29 -46 80v0v0z
M792 938q90 -36 88 -42q-1 -6 -4 -8q-3 -3 -30 -14q-3 -157 -6 -218q-2 -60 -10 -156q-8 -93 -34 -170q95 -63 136 -104q39 -41 52 -76q13 -32 6 -57q-7 -24 -28 -24q-20 -1 -28 28q-9 30 -20 55q-10 24 -34 60q-22 36 -94 94q-39 -81 -90 -128q-48 -45 -108 -81
q-58 -32 -160 -76l-8 16q107 54 154 86q45 31 84 75q39 42 66 94q27 51 40 114q11 60 20 172q10 111 8 360v0v0zM100 870l56 -40h98l32 40l58 -38q12 -6 12 -14q-1 -3 -34 -30v-418l4 -100q1 -12 -16 -24q-15 -13 -38 -16v88h-122v-92q0 -12 -20 -24q-19 -12 -34 -12l4 134
v546v0v0zM150 348h122v452h-122v-452v0v0z" />
  </g>

</svg>
