<?xml version="1.0" standalone="no"?>
<!DOCTYPE svg PUBLIC "-//W3C//DTD SVG 1.1//EN" "http://www.w3.org/Graphics/SVG/1.1/DTD/svg11.dtd" >
<svg xmlns="http://www.w3.org/2000/svg" xmlns:xlink="http://www.w3.org/1999/xlink" version="1.1" viewBox="0 -205 1024 1024">
  <g transform="matrix(1 0 0 -1 0 819)">
   <path fill="currentColor"
d="M564 426l46 -36h226l32 32l56 -38q6 -4 6 -8q0 -6 -30 -26v-225l4 -68q0 -13 -18 -24t-38 -14v62h-232v-36q0 -12 -18 -22q-18 -9 -38 -12l4 106v309v0v0zM616 107h232v113h-232v-113v0v0zM616 246h232v118h-232v-118v0v0zM640 720v110h-64q-22 -1 -56 -10l-20 36h140
v128q78 -24 78 -30t-2 -8q-4 -4 -28 -16v-76h46l28 36q45 -43 48 -50q3 -5 -8 -10h-114v-110h40q41 42 80 90q39 45 84 106l56 -42q3 -12 0 -12q-4 0 -16 -6q-13 -3 -22 -8q-10 -6 -38 -36q-27 -31 -90 -92h110l36 40l52 -50q6 -13 -6 -14h-214q-75 -66 -140 -110v-38
q120 45 238 108q49 -42 48 -48q-3 -6 -8 -6h-20q-15 -1 -48 -10q-33 -6 -210 -66v-14q0 -17 12 -22q9 -3 46 -6h202q24 3 36 18q8 14 14 34q2 21 8 66h18q3 -46 4 -64q0 -19 30 -38q-18 -31 -42 -44q-24 -12 -62 -12h-214q-38 0 -58 4q-19 3 -28 18q-9 12 -12 40v46
q-40 -29 -104 -58l-8 12q48 32 108 82v68l44 -36q45 33 88 76h-154q-27 -1 -54 -10l-20 34h166v0v0zM296 954q6 -6 4 -12q0 -4 -18 -8q-13 -6 -22 -18q-9 -9 -36 -60h110l28 32l58 -42q7 -6 2 -12q0 -6 -30 -14q-34 -26 -52 -52q-15 -27 -44 -74h92l28 34l54 -38q6 -4 6 -8
q0 -6 -26 -24v-250l4 -62q0 -12 -18 -24q-16 -9 -34 -8v22h-232v-16q0 -12 -18 -26q-19 -13 -34 -14l4 106v296q-27 -35 -72 -82l-14 10q61 89 110 188q48 98 82 190l68 -34v0v0zM170 362h92v142h-92v-142v0v0zM310 362h92v142h-92v-142v0v0zM170 530h92v138h-92v-138v0v0z
M310 668v-138h92v138h-92v0v0zM172 694h96l62 136h-120q-42 -76 -62 -106l24 -30v0v0zM124 266h22q1 -70 0 -112q-3 -39 -20 -63q-16 -23 -38 -28q-22 -3 -32 6t-8 24t20 26q14 10 32 39q18 27 24 108v0v0zM182 278l14 8q45 -63 54 -92q9 -27 10 -50q1 -20 -10 -33
q-12 -13 -30 -8q-19 6 -16 32q3 25 0 59q-4 33 -22 84v0v0zM280 286l12 10q50 -55 68 -86q15 -31 16 -50t-10 -31q-12 -13 -30 -8q-16 4 -16 33t-8 56q-9 26 -32 76v0v0zM380 290l12 10q66 -51 84 -78q17 -27 20 -48q0 -19 -8 -32q-9 -11 -30 -9q-18 3 -24 35q-4 32 -10 52
t-44 70v0v0z" />
  </g>

</svg>
