<?xml version="1.0" standalone="no"?>
<!DOCTYPE svg PUBLIC "-//W3C//DTD SVG 1.1//EN" "http://www.w3.org/Graphics/SVG/1.1/DTD/svg11.dtd" >
<svg xmlns="http://www.w3.org/2000/svg" xmlns:xlink="http://www.w3.org/1999/xlink" version="1.1" viewBox="0 -143 1024 1024">
  <g transform="matrix(1 0 0 -1 0 881)">
   <path fill="currentColor"
d="M276 729h117v250l84 -32q9 -5 5 -10t-40 -22v-186h53l24 34l50 -42q3 -4 5 -8q-12 -10 -7 -10h-125v-206l105 64l10 -16l-116 -85v-333q6 -35 -13 -56.5t-61 -37.5q-1 31 -19.5 46t-70.5 32l4 16q78 -22 95.5 -17t17.5 31v288l-48 -33q-23 -23 -33 -49l-52 44l132 83v229
h-63q-4 2 -35 -8zM608 979q84 -52 106 -86t15 -60t-25 -28t-24 7t-9 33t-22 56t-51 66zM911 944q9 -6 9 -7q6 -10 -18 -17t-53.5 -54.5t-55.5 -90.5h90l36 42l53 -49q4 -4 4 -9q0 -10 -12 -10h-109v-238h53l32 42l52 -49q4 -4 4 -9q0 -12 -13 -12h-128v-301l3 -97
q0 -17 -23.5 -30.5t-36.5 -13.5l6 143v299h-106q4 -178 -55 -285t-173 -165l-9 12q113 88 152 190t33 248h-41q-20 0 -43 -9l-17 37h101v238h-30q-5 2 -33 -8l-23 34h205q29 61 83 206zM804 511v238h-107v-238h107zM122 968l6 12q58 -16 84 -27t41 -26t17 -35t-9 -30
t-25 -10.5t-19 14t-13 28.5t-23 31.5t-59 42.5zM27 729l6 14q42 -8 73 -22t48 -29t20 -36t-6.5 -35t-25.5 -13t-22 15t-14 31t-24.5 37t-54.5 38zM147 414q-18 -59 -35 -60t-80 0l-2 -21q40 -2 59.5 -8.5t28 -18.5t10 -42t-7.5 -84.5t-7 -82.5t19.5 -36t32.5 1t18 35
t-5 84.5t-9 95t7 61.5t14 56l87 394l-20 8z" />
  </g>

</svg>
