<?xml version="1.0" standalone="no"?>
<!DOCTYPE svg PUBLIC "-//W3C//DTD SVG 1.1//EN" "http://www.w3.org/Graphics/SVG/1.1/DTD/svg11.dtd" >
<svg xmlns="http://www.w3.org/2000/svg" xmlns:xlink="http://www.w3.org/1999/xlink" version="1.1" viewBox="0 -154 1024 1024">
  <g transform="matrix(1 0 0 -1 0 870)">
   <path fill="currentColor"
d="M473 623l-12 12q165 142 242 310q-1 16 -14 36l8 9l78 -44q18 -8 7 -12q-15 4 -40 -12q-48 -93 -108 -161q67 -78 103 -171q49 43 97 91q47 49 55 70q3 13 -3 27l8 6l67 -52q14 -11 0 -11q-33 6 -82 -41q-63 -59 -133 -108q172 -98 207 -192q18 -51 -7 -63
q-24 -13 -40 38q-24 50 -58 94q-33 44 -97 99q46 -143 13 -291q-16 -49 -48 -81t-97 -45q-3 17 -18 26t-88 39l4 13q63 -14 88 -18q24 -3 50 3q28 6 46 33q19 28 28 69q9 42 5 112q-1 26 -4 50q-26 -27 -59 -59q-52 -49 -114 -94q-63 -44 -160 -86l-8 13q91 52 142 94
q51 41 95 83q41 37 96 104q-10 49 -29 96q-25 -27 -51 -53q-37 -38 -87 -72q-50 -35 -113 -63l-7 13q54 37 92 67q38 31 72 64q31 29 76 87q-19 43 -55 93q-66 -70 -147 -122zM227 540l88 -34q14 -6 6 -11q-17 -6 -29 -18v-110h66l33 41l68 -49q15 -12 -6 -12h-161v-214
q77 -42 175 -46q102 -4 224 -4h190q71 0 126 -1v-14q-52 -1 -66 -7q-13 -6 -27 -26q-380 -1 -450 5q-71 8 -120 23q-49 16 -109 65q-52 42 -109 114q-6 -30 -13 -53q-24 -85 -96 -163l-8 6q53 96 69 171q15 75 24 153q8 80 5 92t-15 27l6 7l79 -24q17 -10 8 -13
q-21 -3 -32 -18q-9 -93 -21 -159q57 -66 114 -106v325q2 15 -27 42zM223 994l88 -34q14 -6 6 -11q-17 -6 -29 -18v-136h70l33 40l68 -50q15 -10 -6 -10h-165v-193h108l32 40l68 -50q15 -10 -6 -10h-383q-27 0 -45 -13l-34 33h214v193h-93q-27 0 -46 -13l-34 33h173v146
q2 15 -27 42z" />
  </g>

</svg>
