<?xml version="1.0" standalone="no"?>
<!DOCTYPE svg PUBLIC "-//W3C//DTD SVG 1.1//EN" "http://www.w3.org/Graphics/SVG/1.1/DTD/svg11.dtd" >
<svg xmlns="http://www.w3.org/2000/svg" xmlns:xlink="http://www.w3.org/1999/xlink" version="1.1" viewBox="0 -150 1000 1000">
  <g transform="matrix(1 0 0 -1 0 850)">
   <path fill="currentColor"
d="M435 737l-5 10q21 27 55 76q8 11 12 16q26 41 39.5 68t13.5 36.5t-9 21.5l8 6l62 -38q2 -4 1 -6t-6 -2q-15 3 -30 -23q-24 -38 -54 -78.5t-87 -86.5zM419 439l-7 10q39 44 79 111q38 61 61 111q22 46 23 58q0 9 -10 24l8 5l68 -34q5 -4 4 -6.5t-9 -3.5q-21 3 -34 -26
q-34 -68 -57 -102v-421l3 -96q0 -20 -13 -30q-10 -9 -38 -15q4 38 7 187v317q-34 -45 -85 -89zM643 846h197l31 38l67 -49q8 -5 6.5 -7t-12.5 -2h-211q-27 1 -44 -13zM607 586h265l31 38l67 -49q8 -5 6.5 -7t-12.5 -2h-136v-452q-1 -38 -17 -51q-14 -17 -79 -33
q-3 31 -26 40t-86 25l4 16l41 -8q69 -16 94 -5q26 8 26 50v418h-101q-23 2 -44 -13zM258 344l6 8q75 -39 81 -92v-5q-3 -23 -16 -23q-6 0 -16 25q-21 57 -55 87zM205 320l6 8q65 -44 70 -100q0 -27 -13 -30h-3q-12 0 -13 24q-5 48 -47 98zM141 306l9 6q47 -43 47 -101
q-1 -38 -20 -40q-12 0 -12 20q0 6 1 17.5t1 15.5q2 33 -26 82zM95 299h16q-4 -103 -14 -133q-11 -37 -37 -37q-15 2 -16 17q0 10 13 21q30 29 38 132zM135 722v-95h191v95h-191zM326 835h-191v-99h191v99zM95 880l29 -29h52l24 42q20 37 20 48l-12 27l8 7l68 -30
q10 -8 10 -10.5t-3 -3.5q-1 0 -4 0.5t-5 0.5q-21 0 -61 -55q-14 -18 -21 -26h113l25 29l38 -33q7 -7 7 -10q0 -6 -7 -7l-19 -9v-128l5 -87q0 -27 -36 -35v40h-191v-94h217l21 31l56 -39q5 -3 5 -5.5t-11 -2.5h-288v-88h212l27 34l38 -31q9 -6 9 -11t-9 -8l-16 -14v-108
q0 -82 -11 -129q-11 -86 -126 -106q2 26 -19 35q-13 9 -102 24l4 15q86 -15 104 -18q22 -3 41 -3q75 -3 75 161v143h-227v-5q4 -43 -41 -48q2 12 4 39q2 23 3 36v418q-3 19 -18 31z" />
  </g>

</svg>
