<?xml version="1.0" standalone="no"?>
<!DOCTYPE svg PUBLIC "-//W3C//DTD SVG 1.1//EN" "http://www.w3.org/Graphics/SVG/1.1/DTD/svg11.dtd" >
<svg xmlns="http://www.w3.org/2000/svg" xmlns:xlink="http://www.w3.org/1999/xlink" version="1.1" viewBox="0 -205 1024 1024">
  <g transform="matrix(1 0 0 -1 0 819)">
   <path fill="currentColor"
d="M442 928l48 -36h122l30 32l46 -40q9 -3 10 -12q1 -4 -34 -20v-598l30 8l6 -16q-186 -57 -234 -72t-102 -49l-34 59l112 24v720v0v0zM492 220l120 26v200h-120v-226v0v0zM492 474h120v188h-120v-188v0v0zM492 690h120v174h-120v-174v0v0zM916 724l56 -44q8 -4 8 -10
q3 -4 -32 -28q-7 -292 -10 -362q-1 -69 -8 -108q-6 -38 -24 -73t-78 -62q-11 33 -28 48q-18 12 -78 36l4 18q53 -15 92 -22q36 -4 48 16q12 19 18 59q5 36 8 102q2 64 10 368h-90l-8 -170q-13 -234 -104 -326q-90 -90 -210 -141l-6 16q107 61 176 137q68 77 86 208
q18 129 16 276h-32q-15 0 -36 -8l-20 36h90l-2 260l84 -26q6 -9 -6 -14l-30 -18v-202h84l22 34v0v0zM44 582q65 90 118 198q53 109 80 194l70 -30q3 -9 -2 -12q-4 -4 -14 -8q-10 -2 -16 -16q63 -39 88 -60q24 -22 36 -46q9 -24 0 -42q-9 -19 -26 -16q-18 3 -26 24
q-6 20 -20 50q-14 27 -64 72q-33 -68 -90 -160q-54 -90 -122 -158l-12 10v0v0zM148 680h168l28 42l56 -50q7 -15 -4 -18h-138v-140h70l30 42l50 -48q12 -12 -2 -20h-148v-260l162 34l6 -16q-111 -33 -186 -60q-73 -24 -94 -38q-21 -12 -48 -33l-42 63l156 38v272h-90
q-18 0 -54 -8l-18 34h162v140h-22l-20 -6l-22 32v0v0zM84 426l12 10q48 -45 70 -78q21 -30 22 -60q0 -28 -14 -38q-16 -10 -28 -4q-12 5 -12 28q-1 21 -10 58q-8 36 -40 84v0v0zM270 302q42 75 88 156l56 -36q4 -10 -4 -14q-6 -3 -20 -6q-12 -3 -44 -38q-30 -36 -62 -72
l-14 10v0v0z" />
  </g>

</svg>
