<?xml version="1.0" standalone="no"?>
<!DOCTYPE svg PUBLIC "-//W3C//DTD SVG 1.1//EN" "http://www.w3.org/Graphics/SVG/1.1/DTD/svg11.dtd" >
<svg xmlns="http://www.w3.org/2000/svg" xmlns:xlink="http://www.w3.org/1999/xlink" version="1.1" viewBox="0 -205 1024 1024">
  <g transform="matrix(1 0 0 -1 0 819)">
   <path fill="currentColor"
d="M684 411h-159v-21h159v-66h-144v-21h47q33 -55 90 -109q-102 -40 -204 -66l6 -11q115 20 219 55q71 -27 179 -62q10 -3 15 -3q7 0 14.5 16t37.5 16l4 14q-134 5 -222 39q85 59 123 91q37 9 37 17q0 7 -14 20l-23 19q-15 15 -17 15q-4 0 -11 -11l-14 -19h-79v66h197l8 11
l-38 35q-14 16 -18 16q-3 0 -18 -18l-23 -23h-108v56q31 19 31 26q0 10 -40 18l-41 9l6 -40v-69zM608 303h203q-56 -55 -111 -91q-65 54 -92 91zM326 513l-35 7l4 -41v-25h-189v-21h189v-45h-161v-21h380l6 13l-47 32q-12 12 -14 12q-5 0 -15 -15l-25 -21h-80v45h195l6 14
l-48 27q-15 13 -18 13q-4 0 -15 -16l-22 -17h-98v19q26 14 26 23q0 11 -39 17zM417 325h-217l-51 31l3 -41v-54q0 -44 -1 -32q1 -9 6 -9t14 3q21 8 24 13q1 1 1 15h232q-1 -25 6 -25q4 0 13 4q22 8 24 12q1 2 1 17v29q28 12 28 17t-12 16l-24 23q-14 12 -17 12q-2 0 -14 -11
zM428 305v-34h-232v34h232zM370 233l-34 -74l-246 -39l14 -36q11 -27 20 -27q6 0 17 32l388 92l-5 14l-166 -37l45 36q29 12 29 20t-25 13zM207 221l-9 -9q24 -18 30 -42q6 -20 27 -14q13 0 16 22q3 21 -64 43zM894 920l-7 -17h-342v-6q2 -6 2 -9q0 -9 -26 -15
q-13 -2 -16 -2q-8 0 -8 6q0 4 3 20v6h-369v20h369v25l-2 18l43 -6q36 -5 36 -11q0 -4 -32 -9v-17h257l24 20q11 7 14 7q4 0 18 -7zM959 853l-6 -17h-229v-2q3 -11 0 -13t-24 -7q-9 -1 -13 -1q-8 0 -8 21v2h-315v2q3 -5 3 -7q0 -4 -21 -10q-17 -4 -21 -4q-7 0 -7 7q0 4 2 11
v1h-253v21h254v17l-2 20l45 -5q31 -4 31 -8q0 -5 -31 -13v-11h315v20l-2 19l39 -4q39 -5 39 -9t-31 -10v-16h128l32 25q10 5 12 5q3 0 13 -5zM878 548q18 -8 18 -16q-2 -19 -17 -19q-10 0 -27 4q-123 32 -232 44l6 18q210 -11 252 -31zM820 806q14 -16 14 -20q0 -5 -27 -7
v-168q3 -13 2 -14q-1 -4 -20 -10q-11 -3 -16 -3q-9 0 -9 17h-499q0 -9 -1.5 -11t-21.5 -6q-7 -2 -11 -2q-8 0 -9 7v23v181l-3 30l48 -22h487l12 6q12 16 14 16q3 0 15 -5zM398 577q24 -8 24 -26q0 -5 -45 -5q-116 -29 -264 -27v11q165 18 256 58zM764 742v39h-499v-39h499z
M764 683v38h-499v-38h499zM764 621v42h-499v-42h499z" />
  </g>

</svg>
