<?xml version="1.0" standalone="no"?>
<!DOCTYPE svg PUBLIC "-//W3C//DTD SVG 1.1//EN" "http://www.w3.org/Graphics/SVG/1.1/DTD/svg11.dtd" >
<svg xmlns="http://www.w3.org/2000/svg" xmlns:xlink="http://www.w3.org/1999/xlink" version="1.1" viewBox="0 -205 1024 1024">
  <g transform="matrix(1 0 0 -1 0 819)">
   <path fill="currentColor"
d="M848 724l54 -40q9 -5 10 -10q0 -7 -36 -28v-182h40l22 38l52 -48q3 -3 4 -8q-1 -9 -16 -8h-102l-2 -212h28l28 36l52 -50q3 -5 0 -10q0 -3 -6 -2h-102q-4 -57 -14 -83t-34 -50q-24 -20 -72 -38q-9 27 -26 38q-18 13 -96 38l6 16q90 -22 114 -26q23 -2 46 16q21 18 28 89
h-254l-28 -30l-56 46l28 28l24 194h-28q-20 0 -40 -8l-22 34h94l22 258l50 -34h208l24 36v0v0zM830 664h-226l-16 -202h242v202v0v0v0zM830 438h-246l-24 -214h268l2 214v0v0v0zM658 604l8 10q37 -21 62 -42q23 -22 28 -40q4 -16 -4 -28q-9 -12 -24 -12q-15 1 -18 20t-14 44
q-12 24 -38 48v0v0zM712 934q2 -2 2 -4q3 -7 -8 -10q-16 -3 -32 -18t-50 -78h250l36 48l60 -60q3 -4 4 -4q0 -9 -8 -8h-358q-68 -114 -130 -176l-10 10q54 80 100 172q47 92 74 164l70 -36v0v0zM642 396l10 10q49 -39 68 -60q17 -21 20 -38q0 -18 -8 -30q-9 -10 -24 -10
t-18 24q-4 21 -10 42q-4 19 -38 62v0v0zM56 886h350l32 40l50 -48q3 -3 4 -8q0 -9 -14 -8h-144v-146h48l28 38l54 -42q3 -4 4 -8q0 -6 -30 -24v-502l4 -77q0 -14 -12 -22q-12 -9 -36 -12v66h-266v-58q-1 -12 -16 -24q-16 -12 -32 -12l4 117v598l48 -38h62v146h-52
q-21 -1 -68 -10l-18 34v0v0zM128 294v-136h266v136h-266v0v0zM128 354v-34h266v90q-39 -1 -60 2q-17 3 -28 18q-10 14 -10 44v218h-62q3 -120 -20 -200q-22 -78 -86 -138v0v0v0zM394 692h-60v-216q-1 -21 8 -26q8 -6 14 -6h38v248v0v0zM234 716h62v146h-62v-146v0v0z
M194 692h-66v-310q35 49 52 116q17 65 14 194v0v0z" />
  </g>

</svg>
