<?xml version="1.0" standalone="no"?>
<!DOCTYPE svg PUBLIC "-//W3C//DTD SVG 1.1//EN" "http://www.w3.org/Graphics/SVG/1.1/DTD/svg11.dtd" >
<svg xmlns="http://www.w3.org/2000/svg" xmlns:xlink="http://www.w3.org/1999/xlink" version="1.1" viewBox="0 -144 1024 1024">
  <g transform="matrix(1 0 0 -1 0 880)">
   <path fill="currentColor"
d="M656 193v22h60v172h-10v2l-4 -2l-5 -3l-7 -29l-16 -50l-17 -47l-21 -43l-23 -40l-26 -36l-28 -31l-31 -28l-34 -23l-36 -18l-5 8l28 26l27 28l24 30l22 32l19 35l18 38l4 12h-21l-18 16l-1 12l-3 14l-3 8l-7 16l-4 8l-1 1l-23 -33l-20 -23l-21 -23l-8 6l47 109l10 27
l18 54l8 28l6 28l5 28l3 9l60 -24l13 -15l-20 -6l-13 -38l-10 -26h45l33 27l52 -43h90v113l54 -11l13 -10l-13 -10v-82h17l24 32l32 -32v-21h-73v-172h30l25 32l32 -32v-22h-87v-126l-54 -27v153h-156zM483 381l-64 10l4 25l3 24l1 24l-2 25l-4 25l-6 25l-8 27l-21 54
l-14 28l2 2l-6 2l9 31l33 112l13 51l6 24l5 24v3h-104v-825l-53 -27v901l53 -27h107l32 27l59 -49l-27 -16l-8 -4l-19 -47l-21 -50l-12 -26l-29 -53l-31 -48l21 -22l20 -25l18 -26l14 -26l11 -28l9 -28l6 -29l4 -29l1 -29zM812 387h-42v-172h42v172zM36 867l65 -33h80l27 27
l54 -48l-27 -16v-492l-54 -27v59h-80v-64l-65 -33v627zM601 306l11 -11l7 26l11 47l5 35h-53l-18 -36l-16 -27l-2 -3l4 -1l9 -4l10 -4l8 -5l16 -11zM419 391l64 -10l-3 -14l-5 -12l-6 -12l-8 -12l-9 -9l-11 -8l-13 -6l-13 -4l-13 -2l-14 -1v32l-43 16v16h43l7 1l6 1l4 1l3 1
l2 2l2 2l4 7l1 4zM181 813h-80v-454h80v454zM893 540l-40 32l-36 36l-34 40l-15 21l-15 22l-13 24l-2 3v-208l-64 -32v199l-17 -20l-22 -24l-23 -22l-25 -20l-26 -19l-28 -19l-30 -16l-31 -14l-6 8l72 67l41 46l19 22l16 24l15 24l13 22h-155v22h187v215l64 -11l17 -11
l-17 -10v-183h83l54 53l64 -53v-22h-191l67 -58l38 -30l39 -26l19 -12l20 -10l21 -14zM838 946l54 -36l9 -17l-22 -1l-41 -48l-37 -38l-14 -12l-13 -12l-8 6l10 15l14 33l7 15l20 45l6 15l7 15l4 10h-1zM579 810l-4 22l-8 22l-4 12l-13 23l-7 12l-8 11l-10 11l6 8l13 -8
l13 -7l13 -8l13 -8l11 -10l11 -10l10 -11l9 -11l16 -26l-2 -24l-17 -17l-25 2z" />
  </g>

</svg>
