<?xml version="1.0" standalone="no"?>
<!DOCTYPE svg PUBLIC "-//W3C//DTD SVG 1.1//EN" "http://www.w3.org/Graphics/SVG/1.1/DTD/svg11.dtd" >
<svg xmlns="http://www.w3.org/2000/svg" xmlns:xlink="http://www.w3.org/1999/xlink" version="1.1" viewBox="0 -36 256 256">
  <g transform="matrix(1 0 0 -1 0 220)">
   <path fill="currentColor"
d="M92 142q18 -11 18 -17.5t-4.5 -10t-6 5t-9.5 18.5q-6 -15 -20 -29l-3 3q7 11 11.5 22t8.5 31l15 -7l-5 -4q-3 -6 -5 -12zM83 46l-9 14q20 3 36 7v31h-8q-11 0 -20 -3l-9 10h37v55q0 42 -1 60l17 -7l-5 -8v-100h15l8 9l11 -16h-34v-29q13 3 30 7l1 -4q-59 -20 -69 -26z
M149 161l-3 -4q-2 -5 -4 -11q16 -11 16.5 -16t-3.5 -10t-6 2.5t-9 19.5q-6 -16 -17 -26l-3 2q6 9 9.5 21t5.5 29zM144 244l10 -15l-9 -1q-1 -1 -31 -7.5t-38 -7.5l-1 5q50 13 69 26zM93 186q17 -9 17 -14t-2.5 -9.5t-5.5 1.5t-12 16q-6 -12 -21 -25l-3 2q9 12 13.5 22.5
t8.5 30.5l15 -9l-5 -3q-3 -7 -5 -12zM144 190q15 -10 15 -17t-4 -11t-5.5 4t-7.5 19q-7 -14 -18 -27l-3 2q6 11 10 22t8 33l15 -9l-5 -4q-3 -6 -5 -12zM165 178.5q0 30.5 -1 60.5l12 -7h47l10 9l11 -16h-35v-27h11l9 9l12 -16h-32v-25h10l10 8l10 -15h-30v-24h18l8 8l11 -12
l-6 -5q-3 -62 -8.5 -74.5t-19.5 -17.5q-1 11 -21 16v4q19 -3 23.5 -2t8 13t5.5 63h-52v-7l-12 -5q1 32 1 62.5zM176 198h22v27h-22v-27zM176 166h22v25h-22v-25zM176 135h22v24h-22v-24zM164 102q3 -19 1.5 -27t-5.5 -12t-8 0t1.5 12t7.5 27h3zM175 105q6 -9 9.5 -17
t1.5 -13.5t-6 -6.5t-3.5 9.5t-4.5 26.5zM189 110q14 -14 17 -20.5t0 -10.5t-6 -4.5t-3.5 8t-9.5 25.5zM206 116q11 -8 15.5 -14t2 -12t-5.5 -7t-3.5 6.5t-11.5 24.5zM32 235q26 -14 29.5 -22t-2.5 -18t-10.5 5.5t-18.5 31.5zM45 152l9 11l15 -14l-9 -6v-85
q15 -17 31.5 -22.5t61 -6.5t95.5 4v-4q-16 -4 -18 -16q-86 0 -112 4t-39 13.5t-19.5 17.5t-18 -3.5t-19.5 -24.5l-14 13q12 10 38 25v87h-9q-11 0 -20 -2l-9 9h37z" />
  </g>

</svg>
