<?xml version="1.0" standalone="no"?>
<!DOCTYPE svg PUBLIC "-//W3C//DTD SVG 1.1//EN" "http://www.w3.org/Graphics/SVG/1.1/DTD/svg11.dtd" >
<svg xmlns="http://www.w3.org/2000/svg" xmlns:xlink="http://www.w3.org/1999/xlink" version="1.1" viewBox="0 -36 256 256">
  <g transform="matrix(1 0 0 -1 0 220)">
   <path fill="currentColor"
d="M125 186q0 12 -1 23l19 -9l-6 -5v-9h35q0 11 -1 22l19 -8l-6 -5v-9h17l11 9l15 -16h-43v-11h17l11 8l14 -15h-42v-13h28l12 9l14 -16h-55q15 -13 32 -20.5t32 -9.5v-3q-13 -2 -17 -11q-23 11 -34.5 22t-18.5 22h-40q-11 -13 -25.5 -23.5t-33.5 -18.5l-1 3q13 8 23.5 17
t20.5 22h-11q-11 0 -20 -2l-9 9h44v13q-13 0 -23 -2l-9 9h32v11h-6q-10 0 -20 -2l-9 9h35zM137 168h35v11h-35v-11zM137 148h35v13h-35v-13zM99 218h56q0 12 -15 27l2 2q24 -8 26.5 -14t-4.5 -15h49l8 9l16 -15q-7 0 -14 -3.5t-13 -11.5l-3 1l7 13h-114q0 -2 -1 -9t-8 -10
t-10 2t5 12t9 22h4v-10zM184 122l7 6l11 -10l-4 -4v-20q0 -14 1 -27l-14 -5v3h-58v-1l-13 -5q1 32 0 68l13 -5h57zM185 115h-58v-11h58v11zM127 97v-9h58v9h-58zM185 81h-58v-9h58v9zM205.5 37.5q-4.5 -12.5 -13 -1t-26.5 22.5l1 4q43 -13 38.5 -25.5zM135 65l13 -14l-8 -1
q-18 -12 -41 -20l-2 3q27 16 38 32zM36 243q24 -14 29 -23t-1.5 -19.5t-11 6.5t-18.5 33zM39 54q11 25 22 52h-18l-8 -9l-13 12l9 6l22 44h-17l-11 -3l-10 10h39l9 11l13 -16l-10 -5q-6 -10 -22 -43h18l8 8l12 -14l-8 -6q-10 -20 -20 -46q26 -22 84.5 -24t109.5 6v-4
q-18 -5 -22 -17q-92 -2 -121.5 4.5t-58.5 29.5q-19 -21 -26 -37l-12 12q16 17 31 29z" />
  </g>

</svg>
