<?xml version="1.0" standalone="no"?>
<!DOCTYPE svg PUBLIC "-//W3C//DTD SVG 1.1//EN" "http://www.w3.org/Graphics/SVG/1.1/DTD/svg11.dtd" >
<svg xmlns="http://www.w3.org/2000/svg" xmlns:xlink="http://www.w3.org/1999/xlink" version="1.1" viewBox="0 -36 256 256">
  <g transform="matrix(1 0 0 -1 0 220)">
   <path fill="currentColor"
d="M41 245l18 -11l-6 -4l-11 -23h35q-2 21 -13 34l3 2q36 -20 13 -36h26l11 11l13 -18h-45v-18h15l8 9l14 -16h-37v-20h16l8 11l14 -18h-38v-20h23l9 11l14 -18h-87v-6l-14 -7q1 18 1 36v42q-8 -15 -20 -29l-4 3q21 37 34 85zM72 200h-28v-18h28v18zM44 175v-20h28v20h-28z
M72 148h-28v-20h28v20zM70 55q11 14 20 31h-41l-6 -7q12 -12 27 -24zM80 48q17 -13 47 -18v-4q-12 -3 -15 -12q-21 8 -41 25q-27 -22 -61 -30l-1 3q31 13 53 35q-14 15 -23 28q-11 -13 -23 -24l-3 4q27 33 40 66l18 -12l-6 -3l-12 -13h39l7 10l14 -14l-7 -4q-14 -23 -26 -37
zM139 220l14 -7h8q7 25 8 34l18 -8l-7 -5q-5 -10 -11 -21h40l7 10l13 -12l-7 -6v-36l1 -16l-14 -6v7h-56v-19h70l11 11l14 -18h-95v-20h74l7 10l13 -12l-7 -6q-2 -47 -4 -60t-8.5 -21t-16.5 -12q-1 13 -25 16v6q19 -2 25.5 -2t9.5 8t4 25.5t2 40.5h-74v-5l-14 -5q1 21 1 35
v66q0 13 -1 28zM209 206h-56v-20h56v20zM209 179h-56v-18h56v18zM195.5 67q2.5 -9 -1 -14t-7.5 -5t-4.5 8t-3.5 16.5t-7 16.5l2 2q19 -15 21.5 -24zM216 75.5q5 -7.5 2 -15t-7.5 -8t-4.5 7t-4 17.5t-7 15l3 2q13 -11 18 -18.5zM169 65.5q4 -9.5 1 -16t-7.5 -6.5t-4.5 10
t-2 17.5t-5 14.5l3 2q11 -12 15 -21.5zM141 52.5q-2 -9.5 -8.5 -13t-10.5 1t3 13t9 15.5t3 16h4q2 -23 0 -32.5z" />
  </g>

</svg>
