<?xml version="1.0" standalone="no"?>
<!DOCTYPE svg PUBLIC "-//W3C//DTD SVG 1.1//EN" "http://www.w3.org/Graphics/SVG/1.1/DTD/svg11.dtd" >
<svg xmlns="http://www.w3.org/2000/svg" xmlns:xlink="http://www.w3.org/1999/xlink" version="1.1" viewBox="0 -36 256 256">
  <g transform="matrix(1 0 0 -1 0 220)">
   <path fill="currentColor"
d="M59 180h44l6 10l13 -11l-6 -7v-85q0 -32 1 -57l-13 -8v12h-69v-9l-14 -8q1 43 1 91.5t-1 81.5l14 -10h19q8 26 10 35h-23q-10 0 -20 -2l-9 9h93l10 11l16 -18h-50q-4 -2 -22 -35zM35 41h14v132h-14v-132zM88 41h16v132h-16v-132zM61 136h15v37h-15v-37zM61 91h15v38h-15
v-38zM61 41h15v43h-15v-43zM167 158h29v37h-29v-37zM158 74h40v34h-40v-34zM231 82q-26 30 -34 69h-25q-8 -16 -18 -33l3 -3h40l8 9l11 -12l-6 -5v-16q0 -15 1 -28l-13 -6v10h-40v-27q0 -11 10 -11h47q7 1 9 11.5t2 27.5h4q1 -15 3 -25t10 -12q-11 -14 -22 -14h-59
q-16 0 -16 18v70q-12 -17 -28 -30l-2 3q12 14 23 35t17 38h-8q-10 0 -19 -2l-9 9h34v37h-3q-10 0 -14 -2l-9 9h26v20q0 9 -1 23l20 -9l-6 -7v-27h29v19q0 8 -1 23l21 -9l-7 -6v-27h6l11 11l14 -18h-31v-37h11l11 11l16 -18h-45q9 -21 21 -36t25 -22v-3q-12 -1 -17 -8z" />
  </g>

</svg>
