<?xml version="1.0" standalone="no"?>
<!DOCTYPE svg PUBLIC "-//W3C//DTD SVG 1.1//EN" "http://www.w3.org/Graphics/SVG/1.1/DTD/svg11.dtd" >
<svg xmlns="http://www.w3.org/2000/svg" xmlns:xlink="http://www.w3.org/1999/xlink" version="1.1" viewBox="0 -205 1024 1024">
  <g transform="matrix(1 0 0 -1 0 819)">
   <path fill="currentColor"
d="M816 594l58 -58l4 -8q-1 -6 -10 -6q-27 -2 -48 -16l-118 -94q38 -18 38 -24q1 -4 -22 -14v-20h168l34 50l64 -60q3 -3 4 -6q0 -12 -12 -12h-258v-207q4 -48 -24 -70q-27 -24 -54 -24q-6 36 -30 48q-22 13 -92 34l4 20q117 -31 132 -20q12 9 12 36v183h-196q-21 0 -68 -8
l-16 36h280v82l22 -12l90 106h-220q-15 -2 -36 -10l-32 38h294l32 36v0v0zM452 834h214v156l80 -36q8 -3 8 -8q0 -8 -6 -10l-30 -10v-92h138l30 44l56 -52q3 -3 4 -8q0 -12 -12 -12h-216v-108h186l24 30l46 -38q18 -14 18 -22q0 -3 -18 -6q-22 -10 -44 -28q-21 -19 -50 -56
l-14 8v-2l40 86h-418q-3 -40 -12 -64q-7 -22 -22 -34q-15 -9 -24 -12q-6 -3 -18 0q-9 0 -14 12q-7 12 2 24q5 11 32 34q26 24 38 114h16v-46h180v108h-144q-18 -1 -54 -10l-16 38v0v0zM162 798l-26 -78h96v262l78 -32q9 -6 10 -8q1 -5 -6 -10l-34 -12v-200h66l34 44l52 -52
q3 -5 4 -10q0 -9 -8 -8h-148v-234l126 52l8 -16l-134 -72v-264l4 -97q0 -10 -20 -24q-18 -12 -36 -12l4 135v240q-53 -24 -82 -42q-27 -15 -66 -56l-50 64l198 76v250h-106q-28 -89 -70 -172l-18 4q27 87 52 184q21 96 34 168q75 -30 76 -38q1 -7 -4 -10q-4 -1 -16 -8
q-12 -6 -18 -24v0v0z" />
  </g>

</svg>
