<?xml version="1.0" standalone="no"?>
<!DOCTYPE svg PUBLIC "-//W3C//DTD SVG 1.1//EN" "http://www.w3.org/Graphics/SVG/1.1/DTD/svg11.dtd" >
<svg xmlns="http://www.w3.org/2000/svg" xmlns:xlink="http://www.w3.org/1999/xlink" version="1.1" viewBox="0 -205 1024 1024">
  <g transform="matrix(1 0 0 -1 0 819)">
   <path fill="currentColor"
d="M480 724l52 -36q7 -5 8 -10q-1 -7 -28 -28l-6 -176h36l26 36l48 -46q3 -3 4 -8q1 -9 -16 -8h-100l-10 -212h40l28 36l56 -48q1 -5 0 -10q0 -3 -8 -2h-120q-3 -63 -12 -87q-6 -23 -24 -50q-17 -23 -58 -40q-7 24 -26 38q-18 13 -90 38l4 14q69 -15 96 -18q28 -1 44 16
q15 17 22 89h-272l-28 -28l-52 46l36 24l26 194h-20q-21 0 -42 -8l-30 34h96l34 252l48 -34h216l22 32v0v0zM466 668h-236l-26 -196h256l6 196v0v0v0zM288 634l8 10q42 -33 58 -54q15 -21 18 -38q3 -15 -6 -30q-7 -15 -22 -12q-15 1 -18 20q0 18 -6 42q-3 20 -32 62v0v0z
M316 944q6 -4 4 -8q3 -7 -8 -10q-18 -3 -30 -18q-13 -15 -52 -78h262l40 44l56 -56l2 -4q0 -9 -8 -8h-366q-72 -117 -158 -212l-14 10q83 117 130 210q47 91 80 170l62 -40v0v0zM278 414l8 8q46 -43 62 -64q14 -21 16 -38q0 -16 -8 -32q-9 -15 -24 -12q-13 0 -14 22
q0 18 -6 42q-4 20 -34 74v0v0zM460 448h-260l-30 -212h278l12 212v0v0v0zM660 686q16 -160 32 -236q15 -75 54 -156q32 72 52 162q18 91 30 254h-160l-8 -24v0v0zM788 932q6 -3 6 -6q1 -5 -10 -10q-28 -12 -38 -36q-35 -76 -64 -142h194l34 48l68 -66q2 0 2 -6q-1 -4 -10 -4
h-92q-21 -208 -44 -296q-23 -87 -64 -162q35 -51 86 -92q50 -38 124 -63v-16q-31 1 -52 -2t-42 -24q-30 28 -66 64q-34 34 -76 101q-61 -77 -130 -127q-70 -48 -136 -78l-8 16q59 34 140 100q78 64 112 125q-45 86 -60 176q-13 86 -20 236q-40 -87 -80 -138l-14 8
q33 62 84 182q50 117 82 250l74 -38v0v0z" />
  </g>

</svg>
