<?xml version="1.0" standalone="no"?>
<!DOCTYPE svg PUBLIC "-//W3C//DTD SVG 1.1//EN" "http://www.w3.org/Graphics/SVG/1.1/DTD/svg11.dtd" >
<svg xmlns="http://www.w3.org/2000/svg" xmlns:xlink="http://www.w3.org/1999/xlink" version="1.1" viewBox="0 -36 256 256">
  <g transform="matrix(1 0 0 -1 0 220)">
   <path fill="currentColor"
d="M143.5 228.5q6.5 -6.5 7.5 -12.5t-5.5 -12.5t-9.5 8t-13 29.5l2 2q12 -8 18.5 -14.5zM174 200q12 32 14 47l19 -12q-12 -6 -28 -35h27l13 12l17 -19h-65v-27h24l12 11l15 -18h-51v-30h42l14 12l15 -19h-118q-10 0 -19 -2l-9 8h61v31h-18q-10 -1 -19 -3l-9 10h46v27h-32
q-10 -1 -19 -3l-9 10h77zM152 90q5 14 5 32l22 -11q-8 -6 -12 -21h48l15 12l15 -19h-70q10 -25 28.5 -41.5t42.5 -20.5l-1 -5q-14 2 -23 -10q-20 13 -33 33t-19 44h-4q-14 -34 -36 -51.5t-51 -24.5l-1 3q33 16 49 33.5t24 39.5h-25q-10 0 -19 -2l-9 9h54zM104 81l1 -4
q-82 -35 -84 -42l-11 18q25 6 40 12v69h-6q-10 -1 -20 -3l-9 10h35v61h-9q-10 0 -20 -2l-9 9h64l13 12l15 -19h-41v-61h12l13 10l14 -16h-39v-67z" />
  </g>

</svg>
