<?xml version="1.0" standalone="no"?>
<!DOCTYPE svg PUBLIC "-//W3C//DTD SVG 1.1//EN" "http://www.w3.org/Graphics/SVG/1.1/DTD/svg11.dtd" >
<svg xmlns="http://www.w3.org/2000/svg" xmlns:xlink="http://www.w3.org/1999/xlink" version="1.1" viewBox="0 0 2048 2048">
  <g transform="matrix(1 0 0 -1 0 2048)">
   <path fill="currentColor"
d="M1725 1823l136 -74q22 -13 23 -30q0 -17 -15 -22t-38 -5l-57 -1l-46 -57q-22 -27 -42 -48q-20 -22 -57 -54t-73 -58q-35 -25 -72 -46q-38 -20 -74 -35l-70 -31l-19 38q33 18 59 34q27 17 64 46q37 28 74 64q36 35 67 72q31 38 61 80q30 43 46 70zM1796 1369l134 -72
q22 -13 24 -30q1 -17 -14 -24t-28 -7l-68 -2l-44 -50q-14 -16 -44 -45q-29 -29 -58 -55q-30 -25 -69 -52t-78 -49t-78 -39q-39 -16 -76 -28l-62 -21l-16 42q20 7 38 15q18 7 64 34t79 48q32 22 69 54t73 71q37 39 68 79t45 63zM1829 917l106 -65q19 -12 27 -20q7 -9 4 -22
q-2 -12 -12 -18q-11 -6 -36 -5l-45 1l-70 -80q-29 -32 -69 -68q-40 -37 -80 -66q-41 -29 -82 -52q-41 -24 -81 -41t-91 -34q-50 -17 -71 -22l-55 -14l-11 38q25 10 45 19l55 25q34 16 67 33q34 18 70 42q37 24 78 58q41 33 74 66q34 33 76 84q42 52 61 81zM1044 1591h125
l85 90l124 -95q7 -6 13 -15t3 -19t-12 -14t-14 -4h-468q-53 0 -114 -4q-61 -3 -64 -3l-14 -1l-38 88q13 -4 28 -8q16 -3 64 -9t138 -6h87q-8 8 -11 13q-2 5 -3 17l-2 21q-2 18 -7 42q-6 25 -10 36q-3 12 -16 42q-12 29 -20 44t-35 53l-20 27l23 21q17 -16 52.5 -46.5
t44.5 -38.5q9 -9 29 -34q21 -25 35 -49t20 -45t4 -51t-14 -40zM1106 1223l61 72l72 -49q15 -11 27 -24q13 -12 15 -22q2 -11 -8 -23q-5 -5 -30 -19l-27 -14v-876q0 -21 4 -38t11 -24t25 -14q19 -8 89 -7l361 1q68 0 90 6q23 5 38 18q15 12 24 36q10 25 17 81l13 91l8 60
l34 -7l-5 -183q-1 -26 5 -42q6 -15 19 -27l27 -25q13 -15 13 -24q-1 -9 -13 -21q-11 -12 -28 -21q-18 -10 -42 -16q-24 -7 -50 -10q-25 -3 -54 -4h-109h-340q-74 0 -117.5 4.5t-67.5 21.5q-24 16 -36 41t-11 60l1 939h-258v-317q-5 -89 -9 -152t-11 -121q-6 -58 -17 -112
t-31 -108q-19 -55 -46 -102q-27 -46 -56 -80q-28 -34 -60 -64q-32 -29 -65 -51l-18 -12l-18 30q7 6 19 18q13 12 46 55q33 42 53 74t38 78t31 98q14 51 21 93t12 103t9 126q3 66 4 127l1 312q0 41 -4 83l-5 53l114 -72h234zM697 1317l-93 -26l-6 -63q-3 -32 -12 -112
q-10 -79 -20 -139q-9 -60 -26 -135q-17 -74 -34 -132q-17 -59 -31 -95l-8 -21l61 -48q30 -23 66 -59t54 -73q17 -36 12 -68q-6 -32 -31 -41t-41 1q-16 9 -31 35t-47 71q-31 44 -38 51l-40 39l-22 -44q-12 -24 -37 -68q-25 -45 -65 -106q-41 -62 -80 -108q-38 -45 -84 -90
l-38 -37l-30 32l47 55q28 34 68 94t75 126q36 67 57 116t26 63l9 26l-48 43q-32 28 -58 43l-138 81l44 186q22 85 31 126q9 42 28 157l5 31l-11 -2l-35 -5l-8 -29q-4 -17 -11 -29t-17 -13q-9 -2 -17 6t-30 59l-44 98q18 0 28 1l88 2l70 3l19 131q10 65 16 116q6 50 14 138
q7 89 8 105l3 78l122 -32q34 -9 51 -21q16 -12 17.5 -24t-7.5 -22q-10 -11 -36 -15l-46 -8q-9 -87 -15 -129l-24 -152q-18 -126 -21 -141l-4 -17q71 4 86 6l89 8q-1 17 0 27l2 93l-2 74l144 -29q22 -5 32 -11t13 -19q2 -13 -8 -23q-10 -9 -26 -13l-49 -15q-3 -40 -4 -51
l-2 -23q36 4 44 5l42 4zM505 1272q-82 -13 -99 -16l-92 -16l-8 -38q-5 -21 -43 -164t-44 -161l-41 -124l88 -38q39 -17 85 -43l39 -22q5 16 8 24l24 70q13 44 26 111q14 67 27 147q13 81 18 125t10 115z" />
  </g>

</svg>
