<?xml version="1.0" standalone="no"?>
<!DOCTYPE svg PUBLIC "-//W3C//DTD SVG 1.1//EN" "http://www.w3.org/Graphics/SVG/1.1/DTD/svg11.dtd" >
<svg xmlns="http://www.w3.org/2000/svg" xmlns:xlink="http://www.w3.org/1999/xlink" version="1.1" viewBox="0 -205 1024 1024">
  <g transform="matrix(1 0 0 -1 0 819)">
   <path fill="currentColor"
d="M802 800q23 -10 56 -28q14 -9 14 -14q0 -3 -6 -6q-22 -3 -44 -24q-36 -50 -66 -88h154l30 34l50 -44q12 -8 12 -16q1 -3 -10 -6q-23 0 -46 -18q-34 -33 -58 -62l-14 8l36 76h-456q0 -47 -14 -70q-15 -24 -32 -24q-17 -2 -28 12q-12 14 6 34q18 18 30 42q9 24 16 84h18
l2 -50h276q43 81 74 160v0v0zM520 792q66 -34 90 -58q22 -24 18 -50q-3 -25 -26 -28q-22 -1 -28 22q-7 24 -14 46q-6 20 -48 58l8 10v0v0zM854 452l36 42l64 -54q3 -3 4 -8q0 -7 -14 -8h-320q-3 -55 -12 -100h194l26 34l50 -40q9 -7 10 -16q-1 -3 -28 -20q-5 -108 -16 -151
q-9 -44 -32 -68q-21 -18 -74 -40q-9 22 -18 32q-9 9 -30 20q-21 10 -78 28l6 18q93 -28 142 -20q27 9 36 44q8 32 14 151h-206q-9 -49 -38 -100q-28 -51 -76 -93q-49 -41 -166 -86l-4 14q99 51 150 108q51 52 72 125q21 69 24 160h-68q-20 0 -70 -8l-18 36h440v0v0zM406 842
h476l38 46l56 -54q3 -4 4 -10q0 -7 -12 -8h-478q-21 0 -68 -8l-16 34v0v0zM596 996q66 -27 96 -54q31 -25 26 -52t-28 -30q-24 -1 -30 22t-18 44t-54 60l8 10v0v0zM608 598q65 -27 92 -48q28 -21 24 -48t-28 -30q-24 -1 -30 22q-5 23 -16 44q-12 17 -50 50l8 10v0v0z
M332 948l62 -52q8 -6 8 -12t-18 -12q-17 -6 -34 -30q-48 -82 -110 -202q48 -37 90 -80q38 -43 50 -86q11 -42 8 -68q-3 -27 -12 -44t-32 -40q-21 -23 -84 -46q-9 30 -32 46q-22 16 -62 32l4 16q54 -12 78 -18q21 -4 40 2q18 6 34 28q15 21 12 66q-4 44 -32 88
q-28 41 -88 104l94 236h-158v-726l4 -87q0 -19 -24 -32q-24 -12 -38 -12l4 130v801l58 -46h148l30 44v0v0z" />
  </g>

</svg>
