<?xml version="1.0" standalone="no"?>
<!DOCTYPE svg PUBLIC "-//W3C//DTD SVG 1.1//EN" "http://www.w3.org/Graphics/SVG/1.1/DTD/svg11.dtd" >
<svg xmlns="http://www.w3.org/2000/svg" xmlns:xlink="http://www.w3.org/1999/xlink" version="1.1" viewBox="0 -200 999 1000">
  <g transform="matrix(1 0 0 -1 0 800)">
   <path fill="currentColor"
d="M370 156q-26 -15 -63 -33t-77.5 -37.5t-79.5 -39.5t-67 -38l-44 56l64 23v389l64 -38l-18 -63v-274l62 19v473h-43v-39q-3 -5 -10.5 -10t-15.5 -8.5t-14 -6t-7 -2.5v418l55 -34h110l33 43l56 -58l-30 -33v-270h-88v-202h34l35 42l49 -67h-118v-231l108 35zM294 614v274
h-116l-10 -48v-226h126zM936 111q0 -43 -14.5 -69t-52.5 -44q-8 31 -24.5 51t-61.5 33v15q26 -8 44.5 -11t31.5 -3q10 0 11 1q12 2 15.5 13t3.5 27l-2 879h1l63 -33l-16 -67zM530 578l62 -30l-15 -62v-129h41l41 38l50 -61h-132v-203l112 39l4 -12q-28 -18 -61 -37.5
t-65.5 -40t-61.5 -41t-48 -40.5l-35 72l108 42v221h-56l-56 -10l-18 33h130v221zM628 771q12 -17 26.5 -38t27.5 -43t21.5 -43t8.5 -37q0 -22 -5.5 -34t-13 -18t-14.5 -7t-10 -1h-1q-11 0 -11 27.5t-9 75.5q-15 -3 -39 -13.5t-52 -25t-56.5 -30.5t-52.5 -30l-32 66l44 9
q16 46 29 111t29 162h-37l-47 -15l-21 32h194l40 46l55 -63h-127q-12 -36 -25 -75.5t-26 -76t-24.5 -67t-20.5 -49.5q19 2 42 6.5t45.5 10.5t43 12t34.5 10q-4 19 -9.5 42t-16.5 49zM836 829l-15 -60v-474q-11 -14 -24 -19t-24 -10v599z" />
  </g>

</svg>
