<?xml version="1.0" standalone="no"?>
<!DOCTYPE svg PUBLIC "-//W3C//DTD SVG 1.1//EN" "http://www.w3.org/Graphics/SVG/1.1/DTD/svg11.dtd" >
<svg xmlns="http://www.w3.org/2000/svg" xmlns:xlink="http://www.w3.org/1999/xlink" version="1.1" viewBox="0 -36 256 256">
  <g transform="matrix(1 0 0 -1 0 220)">
   <path fill="currentColor"
d="M154 178v27h-52v-20l-15 -7v27h-35q-13 0 -23 -3l-10 10h68v15q0 10 -1 19l24 -9l-8 -8v-17h52v13q0 9 -1 20l25 -11l-9 -6v-16h42l10 11l19 -18h-71v-22zM177 108l16 15l18 -22h-74v-33h78l13 15l19 -22h-110v-39h56l15 12l18 -19h-159q-13 0 -22 -3l-10 10h87v39h-79
q-13 0 -23 -3l-10 10h112v33h-44q-13 -1 -22 -4l-10 11h131zM80.5 134.5q4.5 -7.5 -3 -15.5t-11 4t-17.5 30l3 1q24 -12 28.5 -19.5zM134.5 136q4.5 -7 -4.5 -15t-10 5.5t-11 28.5l3 2q18 -14 22.5 -21zM158 114l-4 3q11 11 19 23.5t14 25.5l19 -14l-8 -1q-21 -23 -40 -37z
M142.5 174.5q50.5 6.5 60.5 12.5l16 -20l-15 3q-100 -12 -168 -11v6q56 3 106.5 9.5z" />
  </g>

</svg>
