<?xml version="1.0" standalone="no"?>
<!DOCTYPE svg PUBLIC "-//W3C//DTD SVG 1.1//EN" "http://www.w3.org/Graphics/SVG/1.1/DTD/svg11.dtd" >
<svg xmlns="http://www.w3.org/2000/svg" xmlns:xlink="http://www.w3.org/1999/xlink" version="1.1" viewBox="0 -36 256 256">
  <g transform="matrix(1 0 0 -1 0 220)">
   <path fill="currentColor"
d="M40 68l32 10v35h-32v-45zM86 17l-14 -9v62q-48 -18 -52 -28l-9 17q9 2 16 5v149l-9 -3l-9 10h64l14 13l16 -20h-18v-132q0 -47 1 -64zM40 172h32v41h-32v-41zM40 165v-45h32v45h-32zM116 178h32v19h-32v-19zM103 238l14 -7h30l7 9l12 -12l-6 -6v-11q0 -19 1 -39l-13 -6v5
h-32q0 -131 1 -155l-13 -6q0 207 -1 228zM116 204h32v20h-32v-20zM193 178h33v19h-33v-19zM181 207q0 19 -1 32l14 -8h32l7 8l12 -11l-7 -5v-190q0 -8 -4 -14t-13 -9q-3 7 -8 10.5t-18 7.5v4q27 -3 29 -1.5t2 7.5v133h-33v-2l-13 -4q1 23 1 42zM193 204h33v20h-33v-20z
M181 80v-4l-13 -5q0 -14 1 -31l-12 -6q1 21 1 34q-23 -9 -29 -16l-10 13l12 3v62l-6 -2l-8 9h26v13h-6l-6 -2l-7 9h31l7 6l10 -13h-19v-13h10l7 7l10 -14h-12v-53zM141 116h17v14h-17v-14zM141 95h17v14h-17v-14zM158 75v13h-17v-17zM214 44q-11 11 -18 21q-12 -16 -25 -25
l-2 3q14 15 22 32q-6 23 -7 44q-3 -8 -10 -17l-2 2q10 25 14 59l15 -7q-4 -4 -5 -7l-5 -15h17l7 8l11 -15h-11q-3 -30 -13 -53q10 -15 24 -20v-2q-9 -1 -12 -8zM196 85q6 14 9 42h-17l-1 -4q2 -18 9 -38z" />
  </g>

</svg>
