<?xml version="1.0" standalone="no"?>
<!DOCTYPE svg PUBLIC "-//W3C//DTD SVG 1.1//EN" "http://www.w3.org/Graphics/SVG/1.1/DTD/svg11.dtd" >
<svg xmlns="http://www.w3.org/2000/svg" xmlns:xlink="http://www.w3.org/1999/xlink" version="1.1" viewBox="0 -36 256 256">
  <g transform="matrix(1 0 0 -1 0 220)">
   <path fill="currentColor"
d="M62 220q6 -8 1 -16.5t-11 4t-20 26.5l2 3q22 -9 28 -17zM14 181q30 -14 31 -23t-4 -15.5t-8 3.5t-21 32zM35 88.5q6 3.5 36 105.5l4 -2q-20 -85 -23.5 -97t-4.5 -23t-0.5 -32t-9 -16t-7 19t2.5 24.5t-21 15.5v4q17 -2 23 1.5zM123 246l22 -8l-7 -7v-33h26l7 9l14 -14
q-9 -2 -26 -28l-3 2l9 23h-27v-52h16l6 9l15 -14l-6 -5q-15 -43 -29 -66q24 -30 47 -35v-4q-10 0 -19 -11q-19 15 -36 42q-12 -16 -30 -28.5t-33 -18.5l-1 4q37 25 56 53q-12 31 -17 66h-9q-4 -43 -16.5 -73t-31.5 -49l-2 3q12 20 21 44t13.5 57t1.5 95l14 -9h26v17
q0 17 -1 31zM98 138h26v52h-26v-52zM133 74q15 30 21 56h-43q9 -35 22 -56zM191 65v148q0 12 -1 30l22 -8l-7 -7v-65q28 -18 36.5 -28.5t4 -21t-13 7t-27.5 36.5v-144l-15 -6q1 37 1 58z" />
  </g>

</svg>
