<?xml version="1.0" standalone="no"?>
<!DOCTYPE svg PUBLIC "-//W3C//DTD SVG 1.1//EN" "http://www.w3.org/Graphics/SVG/1.1/DTD/svg11.dtd" >
<svg xmlns="http://www.w3.org/2000/svg" xmlns:xlink="http://www.w3.org/1999/xlink" version="1.1" viewBox="0 -205 1024 1024">
  <g transform="matrix(1 0 0 -1 0 819)">
   <path fill="currentColor"
d="M398 33q87 29 162 70t132 91q-75 81 -104 180h-36l-18 -4l-22 32h296l30 36l56 -38q10 -4 8 -14q-1 -1 -16 -8l-18 -12q-54 -111 -120 -174q57 -43 94 -57q35 -15 68 -24q33 -6 94 -10v-20q-35 0 -58 -12q-22 -9 -34 -28q-45 19 -86 44q-42 24 -104 79q-74 -55 -142 -89
q-67 -30 -176 -60l-6 18v0v0zM610 376q36 -88 108 -154q66 72 94 154h-202v0v0zM514 664h92v118l82 -32q-1 0 2 -6q1 -4 -34 -22v-58h132v116l72 -28q4 -1 8 -10q0 -4 -30 -20v-58h52l34 44l56 -54q3 -4 4 -8q-1 -10 -4 -10h-142v-92l2 -56q-1 -13 -16 -22t-36 -8v36h-132
v-14q-2 -12 -16 -20q-15 -6 -38 -6l4 76v106h-28q-25 1 -40 -6l-24 34v0v0zM656 520h132v116h-132v-116v0v0zM886 830l36 48l58 -60q1 -6 2 -6q-1 -9 -10 -8h-468v-240q1 -207 -40 -330q-40 -119 -148 -215l-10 12q83 96 118 207q34 111 30 384v254l60 -46h372v0v0zM634 980
l8 10q79 -38 104 -64q24 -27 22 -48t-16 -30q-15 -6 -30 0t-20 36q-4 30 -68 96v0v0zM274 956q6 -3 6 -6q2 -9 -10 -12q-13 0 -22 -12q-9 -8 -42 -100h84l26 36l52 -38q6 -3 6 -12q1 -4 -22 -26v-634q0 -31 -14 -53q-15 -21 -62 -36q-9 33 -30 44q-22 10 -76 26l2 15
q78 -12 90 -13q10 0 26 2q15 0 16 15v360h-150q0 -213 -32 -320q-31 -107 -100 -177l-12 8q45 74 72 169t22 320h-20q-25 0 -52 -6l-20 32h92v330l50 -42h26q21 108 24 154l70 -24v0v0zM154 538h150v262h-150v-262v0v0zM194 752q45 -42 60 -72q12 -30 12 -54t-12 -32
q-12 -10 -24 -2q-14 6 -12 30q1 23 -4 46q-6 21 -30 78l10 6v0v0zM190 460q45 -42 60 -72q12 -30 12 -54t-12 -32q-12 -10 -24 -2q-14 6 -12 30q1 23 -4 46q-6 21 -30 78l10 6v0v0z" />
  </g>

</svg>
