<?xml version="1.0" standalone="no"?>
<!DOCTYPE svg PUBLIC "-//W3C//DTD SVG 1.1//EN" "http://www.w3.org/Graphics/SVG/1.1/DTD/svg11.dtd" >
<svg xmlns="http://www.w3.org/2000/svg" xmlns:xlink="http://www.w3.org/1999/xlink" version="1.1" viewBox="0 -205 1024 1024">
  <g transform="matrix(1 0 0 -1 0 819)">
   <path fill="currentColor"
d="M402 938q64 -53 62 -58q0 -7 -14 -8q-12 -1 -36 -16t-102 -98l18 -10q6 -6 -2 -12l-24 -10v-78l134 50l10 -16l-144 -68v-176q4 -49 -16 -74q-19 -25 -64 -40q-6 35 -36 50t-78 30l4 16q48 -12 82 -18q33 -8 48 0t12 44v148q-91 -43 -110 -56q-18 -13 -38 -34l-40 58
l188 70v150l38 -16l76 110h-250q-15 0 -36 -8l-24 36h312l30 34v0v0zM864 904q-18 -1 -132 -26t-258 -46l-2 18q122 27 226 58q104 29 172 62q45 -54 46 -60q0 -3 -2 -6q-1 -4 -16 -2q-16 2 -34 2v0v0zM710 808q-19 -1 -148 -80l178 2q54 47 88 80q67 -25 68 -32q0 -6 -2 -8
q-2 -4 -16 -4q-13 -1 -28 -10q-15 -6 -72 -48q-58 -42 -208 -114l310 10q-24 39 -56 76l10 10q77 -49 100 -76q21 -24 24 -48q3 -23 -8 -34q-12 -12 -26 -8q-15 4 -18 20q-3 15 -18 40l-156 -10v-162q4 -40 -16 -64q-18 -21 -56 -30q-6 27 -30 40q-25 13 -88 32l6 18
q78 -20 106 -18q27 0 28 18v160q-75 -6 -102 -12t-48 -26l-46 66q42 2 78 22q71 41 152 92q-117 -13 -138 -16t-54 -18l-38 58l54 8q90 62 136 112q66 -28 66 -34q0 -7 -6 -8t-26 -4v0v0zM382 374q85 53 194 154l56 -36q7 -3 -4 -12q-21 0 -32 -6q-12 -6 -62 -36
q-48 -30 -144 -78l-8 14v0v0zM790 520q89 -36 122 -60q32 -21 44 -44q12 -22 4 -40q-9 -16 -24 -14q-16 0 -32 28q-14 26 -40 52q-24 27 -80 66l6 12v0v0zM352 252v-121q0 -38 12 -46q12 -5 40 -8h232q32 0 44 8q10 6 14 20q5 15 8 37q4 23 8 92h20q2 -60 8 -92
q5 -29 32 -45q-12 -29 -36 -46q-21 -13 -74 -18h-270q-40 0 -64 14q-21 17 -24 70v195l78 -32q10 -6 2 -12q-9 -5 -30 -16v0v0zM202 274q-6 -79 -18 -116q-12 -33 -32 -57q-21 -21 -42 -28q-20 -6 -34 -4q-12 4 -18 20q-7 16 10 28q17 13 38 23q19 12 38 34q18 20 40 100h18
v0v0zM454 320q75 -30 106 -50q31 -21 38 -44q6 -24 -8 -36q-12 -13 -30 -10q-15 2 -24 26q-6 24 -26 48q-18 21 -62 54l6 12v0v0zM802 276q66 -33 102 -60q35 -28 50 -52t16 -43q-1 -17 -10 -32q-9 -12 -26 -10q-18 3 -24 30q-6 28 -32 67q-25 39 -82 88l6 12v0v0z" />
  </g>

</svg>
