<?xml version="1.0" standalone="no"?>
<!DOCTYPE svg PUBLIC "-//W3C//DTD SVG 1.1//EN" "http://www.w3.org/Graphics/SVG/1.1/DTD/svg11.dtd" >
<svg xmlns="http://www.w3.org/2000/svg" xmlns:xlink="http://www.w3.org/1999/xlink" version="1.1" viewBox="0 -36 256 256">
  <g transform="matrix(1 0 0 -1 0 220)">
   <path fill="currentColor"
d="M142 186h39l11 26h-33q-8 -14 -17 -26zM220 169v-10h3l10 10l12 -17h-25v-15q0 -7 1 -16l-14 -5v8h-49q-10 -1 -18 -3l-9 10h76v21h-62q-10 -1 -19 -3l-9 10h90v20h-70q-4 -4 -13 -12l-2 3q10 13 20.5 34.5t16.5 41.5l18 -9l-7 -6l-8 -12h30l6 7l13 -12q-7 -3 -25 -28h20
l8 10l12 -11l-6 -6v-10zM139 62.5q-2 -6.5 -6 -9.5t-8.5 1t2 12t10.5 29h4q0 -26 -2 -32.5zM170 57h29q5 0 6.5 9t1.5 24h5q0 -12 1.5 -20t8.5 -11q-5 -9 -11.5 -11t-10.5 -2h-35q-15 0 -15 17q0 32 -1 43l19 -8l-6 -7v-23q0 -11 8 -11zM197.5 101q1.5 -7 -2 -12.5t-9 5
t-16.5 21.5l2 3q24 -10 25.5 -17zM242 87q3 -7 -1.5 -15.5t-9.5 4t-19 27.5l2 3q25 -12 28 -19zM114 104q-4 -2 -10 -13.5t-10 -20.5l18 3q-4 9 -6 13l3 2q10 -9 14 -14t-0.5 -11.5t-5.5 -3.5t-4 10q-19 -9 -21 -13l-8 14q5 3 9.5 17.5t5.5 25.5zM85 128v-24v-63
q0 -18 12 -18h120q8 0 11.5 5t4.5 30h4q0 -11 2 -21t9 -12q-5 -14 -27 -14h-129q-20 0 -20 26v91h13zM35 172h24v29h-24v-29zM71 172h26v29h-26v-29zM35 132h24v33h-24v-33zM71 132h26v33h-26v-33zM10 9l-2 2q40 46 47 114h-20v-6l-14 -5q1 19 1 53t-1 47l14 -6h14
q9 21 12 38l16 -10q-3 -2 -8.5 -9t-13.5 -19h41l8 10l12 -12l-7 -6q0 -57 1 -77l-13 -5v7h-30q-8 -79 -57 -116z" />
  </g>

</svg>
