<?xml version="1.0" standalone="no"?>
<!DOCTYPE svg PUBLIC "-//W3C//DTD SVG 1.1//EN" "http://www.w3.org/Graphics/SVG/1.1/DTD/svg11.dtd" >
<svg xmlns="http://www.w3.org/2000/svg" xmlns:xlink="http://www.w3.org/1999/xlink" version="1.1" viewBox="0 -36 256 256">
  <g transform="matrix(1 0 0 -1 0 220)">
   <path fill="currentColor"
d="M219 109l14 12l14 -19h-85q-6 -31 -28 -54t-65 -39l-3 5q70 33 82 87h-37q-10 0 -21 -2l-9 9h28v43q0 29 -1 49l15 -8h30v23q0 14 -1 33l24 -10l-9 -7v-39h30l12 11l14 -14l-9 -5v-75h5zM122 108h27q5 39 4 77h-31v-77zM163 108h37v77h-33q0 -31 -4 -77zM154 86
q79 -35 84.5 -45.5t2.5 -20.5t-15.5 7t-73.5 54zM104 77l1 -4q-80 -35 -80 -43l-15 22q28 5 40 10v71h-6q-10 -1 -19 -3l-9 10h34v64h-9q-10 0 -19 -3l-9 10h65l13 14l16 -21h-43v-64h12l12 12l14 -19h-38v-68z" />
  </g>

</svg>
