<?xml version="1.0" standalone="no"?>
<!DOCTYPE svg PUBLIC "-//W3C//DTD SVG 1.1//EN" "http://www.w3.org/Graphics/SVG/1.1/DTD/svg11.dtd" >
<svg xmlns="http://www.w3.org/2000/svg" xmlns:xlink="http://www.w3.org/1999/xlink" version="1.1" viewBox="0 -205 1024 1024">
  <g transform="matrix(1 0 0 -1 0 819)">
   <path fill="currentColor"
d="M336 980l84 -32q6 -2 4 -10q0 -3 -36 -20v-46h244v110l80 -32q6 -2 6 -10q0 -3 -36 -20v-48h160l40 50l64 -60q3 -3 4 -8q-1 -7 -16 -8h-252v-60q-1 -14 -20 -22q-21 -6 -30 -6v88h-244v-62q-3 -14 -24 -22q-7 -6 -28 -6v90h-190q-21 0 -68 -8l-20 34h278v108v0v0z
M858 708l38 46l64 -56q3 -4 4 -10q0 -7 -14 -8h-824q-21 1 -60 -10l-24 38h816v0v0zM264 654l60 -34h374l26 32q69 -39 64 -50q-1 -4 -28 -22v-44l6 -46q-3 -19 -18 -28q-14 -9 -40 -12v36h-392v-6q0 -9 -8 -18q-18 -13 -50 -16l6 86v122v0v0zM316 512h392v82h-392v-82v0v0z
M332 356l58 -38h224l24 36l58 -36q12 -7 12 -16q0 -3 -32 -24v-56l4 -54q0 -13 -20 -22q-18 -10 -36 -11v39h-240v-12q0 -13 -14 -23q-12 -10 -44 -14l6 85v146v0v0zM384 198h240v96h-240v-96v0v0zM434 814l6 12q43 -12 74 -30q30 -16 36 -34q7 -18 0 -32q-9 -13 -26 -14
q-18 0 -24 18q-6 17 -14 32t-52 48v0v0zM138 458l60 -40h612l30 42l60 -46q9 -3 10 -12q-1 -6 -34 -24v-241q3 -42 -14 -72q-14 -27 -64 -40q-11 39 -40 50q-28 10 -82 26l4 18q68 -12 92 -16q23 -1 38 0q13 3 12 32v257h-630v-236l4 -79q-2 -15 -22 -28q-18 -9 -42 -16
l6 131v294v0v0z" />
  </g>

</svg>
