<?xml version="1.0" standalone="no"?>
<!DOCTYPE svg PUBLIC "-//W3C//DTD SVG 1.1//EN" "http://www.w3.org/Graphics/SVG/1.1/DTD/svg11.dtd" >
<svg xmlns="http://www.w3.org/2000/svg" xmlns:xlink="http://www.w3.org/1999/xlink" version="1.1" viewBox="0 -36 256 256">
  <g transform="matrix(1 0 0 -1 0 220)">
   <path fill="currentColor"
d="M144 233l-9 -3q19 -15 46 -27t66 -14v-4q-13 0 -19 -13q-32 6 -59.5 23.5t-37.5 32.5q-33 -28 -60.5 -41t-55.5 -20l-1 3q28 10 59.5 30t51.5 47zM154 189l13 11l17 -18h-83q-11 1 -19 -2l-9 9h81zM59 58h62v23h-62v-23zM134 58h64v23h-64v-23zM59 26h62v25h-62v-25z
M134 26h64v25h-64v-25zM46 57.5q0 15.5 -1 36.5l16 -6h137l8 7l14 -12l-9 -6q0 -40 1 -61l-14 -5v8h-139v-5l-14 -5q1 33 1 48.5zM120 118v66h13v-59q0 -12 1 -26l-15 -6q1 14 1 25zM46 112l46 2q-5 6 -8 11l2 2q30 -13 23 -22.5t-10 -4.5t-5 10q-44 -6 -55 -11l-10 13
q16 4 40 24q-20 -3 -35 -7l-7 11q17 3 36 39l21 -9l-8 -4q-18 -15 -32 -26l30 1q10 8 18 19l19 -12l-10 -2q-24 -16 -55 -34zM162 112l44 2q-4 6 -8 11l2 2q32 -15 24.5 -24.5t-11 -3.5t-5.5 10q-44 -5 -55 -10l-9 13q16 4 38 23q-19 -1 -32 -6l-8 12q17 2 36 38l20 -9
l-9 -4q-17 -15 -30 -26l29 1q10 8 19 20l18 -12l-12 -3q-22 -16 -51 -34z" />
  </g>

</svg>
