<?xml version="1.0" standalone="no"?>
<!DOCTYPE svg PUBLIC "-//W3C//DTD SVG 1.1//EN" "http://www.w3.org/Graphics/SVG/1.1/DTD/svg11.dtd" >
<svg xmlns="http://www.w3.org/2000/svg" xmlns:xlink="http://www.w3.org/1999/xlink" version="1.1" viewBox="0 -36 256 256">
  <g transform="matrix(1 0 0 -1 0 220)">
   <path fill="currentColor"
d="M174 225q23 -19 38.5 -27.5t35.5 -9.5v-4q-13 -1 -19 -11q-17 7 -33 22t-26 28q-13 -16 -31 -29.5t-43 -24.5l-3 3q26 15 45 34t29 40l18 -15zM175 183l14 11l16 -18h-50q-10 1 -17 -2l-8 9h45zM169 152l-7 -5q0 -23 1 -43l-14 -5v8h-20v-6l-15 -5q2 33 0 67l14 -8h21
l9 9zM232 152l-7 -5q0 -22 1 -43l-14 -5v8h-21v-5l-15 -5q2 32 0 66l15 -8h21l9 9zM149 148h-20v-34h20v34zM212 148h-21v-34h21v34zM137 78q22 -15 23 -21.5t-3 -15.5t-7.5 3.5t-15.5 29.5q-16 -21 -35 -37l-2 3q13 15 22.5 30.5t14.5 32.5l16 -14q-8 -4 -13 -11zM199 74
q22 -10 26 -17t1 -17t-8.5 1.5t-20.5 29.5q-15 -22 -32 -38l-3 2q11 14 20.5 31t14.5 37l16 -13q-6 -4 -14 -16zM57 198q0 29 -1 48l19 -10l-5 -8v-30h9l11 10l12 -17h-32v-40h14l10 10l14 -17h-44l15 -8l-5 -6v-28h12l10 11l13 -18h-35v-49q18 -13 51.5 -17.5t122.5 3.5v-4
q-12 -3 -14 -15q-69 -1 -100 0.5t-55 15.5t-39 36q-6 -29 -28 -57l-3 2q13 27 18.5 56.5t5.5 57.5l20 -10l-6 -7q-2 -16 -5 -35q8 -11 19 -19v58v18v15h-26q-8 0 -15 -2l-7 9h44v40h-9q-9 0 -17 -2l-7 9h33z" />
  </g>

</svg>
