<?xml version="1.0" standalone="no"?>
<!DOCTYPE svg PUBLIC "-//W3C//DTD SVG 1.1//EN" "http://www.w3.org/Graphics/SVG/1.1/DTD/svg11.dtd" >
<svg xmlns="http://www.w3.org/2000/svg" xmlns:xlink="http://www.w3.org/1999/xlink" version="1.1" viewBox="0 -36 256 256">
  <g transform="matrix(1 0 0 -1 0 220)">
   <path fill="currentColor"
d="M31 200v-118h30v118h-30zM18 77v96q0 21 -1 43l14 -9h30l9 9l13 -15l-9 -6v-105q0 -17 1 -34l-14 -8v27h-30v-22l-14 -7q1 15 1 31zM119 15l-15 -6q1 35 1 47v106q-18 -29 -33 -43l-2 2q17 26 28.5 55t20.5 69l19 -13l-7 -6q-5 -15 -18 -48l12 -9l-7 -8v-106q0 -20 1 -40
zM204 220l9 9l14 -14l-10 -6l-9 -62h16l8 11l14 -14l-7 -6q-6 -87 -14.5 -101.5t-29.5 -19.5q3 16 -29 25v4q18 -3 29.5 -5t17.5 6.5t13 92.5h-19l-6 -7l-13 13l7 6l9 61h-32q-1 -56 -3 -89.5t-11 -64.5t-33 -50l-2 2q14 18 21.5 43.5t11 65t2.5 93.5h-3q-7 1 -15 -3l-6 10
h70z" />
  </g>

</svg>
