<?xml version="1.0" standalone="no"?>
<!DOCTYPE svg PUBLIC "-//W3C//DTD SVG 1.1//EN" "http://www.w3.org/Graphics/SVG/1.1/DTD/svg11.dtd" >
<svg xmlns="http://www.w3.org/2000/svg" xmlns:xlink="http://www.w3.org/1999/xlink" version="1.1" viewBox="0 -36 256 256">
  <g transform="matrix(1 0 0 -1 0 220)">
   <path fill="currentColor"
d="M58 221q7 -8 2.5 -18t-12.5 4t-24 28l2 3q25 -9 32 -17zM11 183q27 -14 30.5 -23t-2 -17t-11 6.5t-19.5 31.5zM35 89q7 4 37 107l5 -1q-22 -88 -26 -100t-5 -23t0.5 -35.5t-9 -19t-8 22.5t2.5 27.5t-22 15.5v4q18 -2 25 2zM133 219l11 12l17 -19h-58v-50h27l6 11l14 -11
l-6 -8q-3 -96 -8.5 -112t-20.5 -20q-1 13 -22 19v4q22 -3 26 -1.5t6.5 21.5t4.5 89h-27q0 -44 -13 -83.5t-35 -62.5l-3 2q17 29 26 61.5t10.5 54.5t1.5 86q-8 0 -17 -2l-9 9h69zM174 176q4 -34 9.5 -58t9.5 -34q6 15 10.5 37.5t8.5 56.5h-37zM201 236l-8 -5q-10 -29 -16 -46
h42l10 11l17 -18h-19q-6 -42 -11.5 -64.5t-16.5 -45.5q8 -13 21 -25t28 -18v-3q-14 -2 -22 -11q-6 6 -17 19.5t-18 26.5q-12 -16 -28 -28.5t-35 -21.5l-2 4q20 13 35 29t23 31q-7 23 -10.5 50.5t-4.5 46.5q-8 -18 -20 -35l-3 2q10 20 19.5 50.5t12.5 60.5z" />
  </g>

</svg>
