<?xml version="1.0" standalone="no"?>
<!DOCTYPE svg PUBLIC "-//W3C//DTD SVG 1.1//EN" "http://www.w3.org/Graphics/SVG/1.1/DTD/svg11.dtd" >
<svg xmlns="http://www.w3.org/2000/svg" xmlns:xlink="http://www.w3.org/1999/xlink" version="1.1" viewBox="0 -36 256 256">
  <g transform="matrix(1 0 0 -1 0 220)">
   <path fill="currentColor"
d="M32 238q24 -10 29 -17.5t0.5 -16t-10 3.5t-20.5 27zM12 183q31 -12 33 -21.5t-3.5 -15t-10.5 6t-20 27.5zM39 88q6 4 31 107l5 -1q-18 -88 -21.5 -100t-4 -23t1 -35.5t-9 -18.5t-7.5 22.5t3 27t-24 15.5v4q20 -2 26 2zM85 237l20 -7l-6 -6v-16h53v15q0 8 -1 23l22 -8
l-8 -6v-24h56v8q0 9 -1 19l20 -8l-6 -7v-4q0 -8 1 -17l-14 -5v7h-122l-8 -7l-10 11l5 5v7q0 10 -1 20zM105 184h105l6 7l16 -10l-7 -7v-16q0 -10 1 -19l-14 -3v2h-107v-2l-13 -3q1 18 1 31t-1 27zM105 177v-12h107v12h-107zM105 145h107v13h-107v-13zM155 134l20 -7l-5 -5
l1 -8h35l10 9l15 -16h-59q5 -31 14 -50q12 14 17 24.5t9 21.5l15 -12q-3 0 -12.5 -15.5t-22.5 -28.5q7 -9 17 -15t19 -7l8 30l4 -1q-1 -14 -1 -23.5t3 -16.5t-7.5 -5.5t-24 7.5t-27.5 21q-26 -19 -56 -26l-1 4q29 12 50 33q-4 7 -9 22.5t-9 36.5h-58v-22h33l6 9l12 -11
l-6 -7q-2 -26 -6 -38t-19 -17q-1 4 -4.5 8.5t-12.5 7.5l1 4q12 -3 17.5 -2.5t7.5 11t3 28.5h-32q-1 -22 -10 -40t-27 -31l-1 3q15 18 20 38t4.5 37.5t-1.5 34.5l15 -6h57q-1 16 -2 20zM202 129q5 -6 0 -12.5t-8 2t-10 17.5l1 3q12 -4 17 -10z" />
  </g>

</svg>
