<?xml version="1.0" standalone="no"?>
<!DOCTYPE svg PUBLIC "-//W3C//DTD SVG 1.1//EN" "http://www.w3.org/Graphics/SVG/1.1/DTD/svg11.dtd" >
<svg xmlns="http://www.w3.org/2000/svg" xmlns:xlink="http://www.w3.org/1999/xlink" version="1.1" viewBox="0 -36 256 256">
  <g transform="matrix(1 0 0 -1 0 220)">
   <path fill="currentColor"
d="M32 210v-122h23v122h-23zM20 83v97q0 25 -1 47l13 -10h22l8 10l13 -15l-8 -6v-102q0 -17 1 -35l-13 -7v19h-23v-23l-13 -6q1 14 1 31zM104.5 219.5q5.5 -7.5 -1 -17t-10 3t-15.5 29.5l2 3q19 -11 24.5 -18.5zM89 55v99q-8 0 -15 -3l-8 9h22l8 9l13 -14l-8 -5v-98
q18 -15 30.5 -18t43 -4t73.5 4v-4q-15 -3 -18 -13q-36 0 -58.5 0.5t-41.5 7t-27.5 18t-18 0.5t-13.5 -21l-12 15q14 9 30 18zM120.5 104q5.5 24 6 67.5t-1.5 67.5l16 -8h78l7 9l14 -12l-6 -7q0 -22 1 -35l-14 -6v9h-82q0 -49 -5.5 -79t-28.5 -53l-2 2q12 21 17.5 45z
M139 196h82v28h-82v-28zM183 159q-2 11 -11 24l3 3q27 -14 14 -27h22l9 9l12 -16h-61q-10 0 -19 -2l-9 9h40zM173 139.5q5 -6.5 3.5 -12.5t-5.5 -6.5t-5.5 6.5t-9.5 24l3 1q9 -6 14 -12.5zM195 40l-15 -6q1 22 1 44h-15q-10 0 -19 -3l-9 10h43v27h-20q-10 -1 -19 -4l-9 11
h57q12 28 13 33l14 -10q-4 0 -22 -23h28l11 10l13 -17h-53v-27h23l10 11l14 -18h-47q0 -24 1 -38z" />
  </g>

</svg>
