<?xml version="1.0" standalone="no"?>
<!DOCTYPE svg PUBLIC "-//W3C//DTD SVG 1.1//EN" "http://www.w3.org/Graphics/SVG/1.1/DTD/svg11.dtd" >
<svg xmlns="http://www.w3.org/2000/svg" xmlns:xlink="http://www.w3.org/1999/xlink" version="1.1" viewBox="0 -200 999 1000">
  <g transform="matrix(1 0 0 -1 0 800)">
   <path fill="currentColor"
d="M952 892h-162l-10 -16v-748q-3 -14 -3.5 -29t-6.5 -30.5t-20.5 -33t-45.5 -36.5q1 1 1 9q0 31 -32 49t-83 28v15q8 -3 14.5 -5t14 -3t17.5 -1.5t25 -0.5q2 0 5 -0.5t5 -0.5q26 0 41.5 11.5t15.5 33.5v758h-71l-55 -12l-21 37h270l43 48zM302 651h-108l-58 -10l-21 34h361
l44 42l58 -59l-39 -34v-77h30l40 44l65 -69h-135v-134h-186v-303q-3 -21 -13 -35.5t-23 -24t-27 -14.5t-24 -6q-4 7 -7.5 17t-15.5 22t-36.5 25.5t-69.5 28.5v12q55 -13 86.5 -17.5t49.5 -4.5q17 0 22.5 5t5.5 13q0 11 1 12v270h-103l-54 -11l-32 36h189v109h-169l-57 -10
l-26 35h252v104zM353 522v-109h133v109h-133zM353 651v-104h133v104h-133zM240 851l-28 -35q-15 -27 -32.5 -53.5t-36 -49.5t-37.5 -41t-37 -27l-10 3q16 21 35 46.5t35 54t27 59t11 61.5v11t-1 10l-18 6q51 14 84 24.5t58 21.5t47 24.5t52 33.5l45 -72l-45 -2
q-24 -4 -39.5 -7t-27.5 -6t-23 -5t-27 -5t-40 -6t-60 -7zM413 888l3 6q12 -7 32 -20t39.5 -30.5t33.5 -38.5t14 -43v-8q-2 -12 -11 -20.5t-25 -10.5h-2q-10 0 -14 14.5t-10.5 38t-19.5 53t-40 59.5zM289 868h8q49 -29 69.5 -55.5t20.5 -56.5q0 -8 -4.5 -15t-11.5 -12t-14 -8
t-11 -3q-9 0 -10.5 11t-4.5 30.5t-11.5 47t-30.5 61.5z" />
  </g>

</svg>
