<?xml version="1.0" standalone="no"?>
<!DOCTYPE svg PUBLIC "-//W3C//DTD SVG 1.1//EN" "http://www.w3.org/Graphics/SVG/1.1/DTD/svg11.dtd" >
<svg xmlns="http://www.w3.org/2000/svg" xmlns:xlink="http://www.w3.org/1999/xlink" version="1.1" viewBox="0 -36 256 256">
  <g transform="matrix(1 0 0 -1 0 220)">
   <path fill="currentColor"
d="M154 152h67v30h-67v-30zM154 113h67v32h-67v-32zM154 75h67v31h-67v-31zM173 222h-19q-10 0 -19 -2l-10 9h93l13 11l16 -18h-58q-4 -6 -20 -33h51l6 10l15 -11l-7 -9v-68q0 -30 1 -47l-14 -5v9h-67v-6l-14 -5q1 18 1 70t-1 69l14 -7h10q7 22 9 33zM178 51l-8 -4
q-35 -30 -51 -39l-3 2q34 31 47 56zM237.5 36.5q9.5 -10.5 4.5 -22t-14 6t-32 39.5l3 4q29 -17 38.5 -27.5zM83 136l2 2q32 -14 26 -28.5t-11 -1t-17 27.5zM77 103v-64q12 9 29 23l3 -4q-31 -31 -39 -43l-11 12q5 3 5 10q0 57 -1 82l20 -9zM91 202h-39q-11 0 -20 -2l-9 9h53
q-2 10 -4 16t-11 19l3 2q21 -12 23.5 -19.5t-5.5 -17.5h26l11 12l16 -19h-36h-8zM110 154l10 10l15 -17h-94v-32q0 -67 -30 -103l-2 2q19 43 19 85t-1 61l14 -6h69zM41 194l2 2q33 -20 26 -32.5t-11 0.5t-17 30zM104 200l15 -10l-6 -5q-17 -20 -26 -30l-4 2q13 20 21 43z
" />
  </g>

</svg>
