<?xml version="1.0" standalone="no"?>
<!DOCTYPE svg PUBLIC "-//W3C//DTD SVG 1.1//EN" "http://www.w3.org/Graphics/SVG/1.1/DTD/svg11.dtd" >
<svg xmlns="http://www.w3.org/2000/svg" xmlns:xlink="http://www.w3.org/1999/xlink" version="1.1" viewBox="0 -36 256 256">
  <g transform="matrix(1 0 0 -1 0 220)">
   <path fill="currentColor"
d="M85 197l15 -13l-8 -5q-8 -22 -22 -41v-19l6 -2q11 12 21 34l14 -12q-11 -3 -31 -24q14 -6 20.5 -13t2.5 -17t-10.5 3t-22.5 27v-101l-12 -6v114q-20 -28 -49 -47l-1 3q17 15 36 40.5t34 61.5h-33q-10 0 -19 -2l-10 9h63zM153 245l24 -11l-9 -8l-2 -60h42l12 12l18 -19
h-64q11 -57 32 -92.5t41 -39.5v-4q-18 0 -21 -11q-45 41 -58 147h-3q-9 -105 -88 -151l-3 3q66 44 77 148h-20q-11 -1 -20 -3l-9 10h50q2 54 1 79zM173 42q8 -8 6 -16t-8 -10.5t-11.5 13t-18.5 33.5l2 3q22 -15 30 -23zM50 245l22 -11l-8 -8v-41h-14v60z" />
  </g>

</svg>
