<?xml version="1.0" standalone="no"?>
<!DOCTYPE svg PUBLIC "-//W3C//DTD SVG 1.1//EN" "http://www.w3.org/Graphics/SVG/1.1/DTD/svg11.dtd" >
<svg xmlns="http://www.w3.org/2000/svg" xmlns:xlink="http://www.w3.org/1999/xlink" version="1.1" viewBox="0 -200 1000 1000">
  <g transform="matrix(1 0 0 -1 0 800)">
   <path fill="currentColor"
d="M425 400q-10 -3 -27 -14q-3 -50 -9 -92q45 -72 74 -102l10 -9v326q1 15 -24 33l8 10l80 -25q14 -5 6 -11q-21 -5 -31 -17v-121h57l25 34l55 -43q8 -6 7 -9q-2 -3 -13 -2h-131v-206q66 -40 155 -49q11 -1 30 -3q63 -5 105 -5q76 0 100 2q22 3 65 4v-15q-31 -3 -48 -9
q-18 -7 -27 -25q-37 -2 -72 -1q-31 1 -103 7q-130 12 -213 57q-61 33 -123 141q-28 -125 -139 -222l-9 11q107 126 119 300q3 63 -1 72q-9 15 -16 22l9 11l86 -36q7 -11 -5 -14zM153 965l6 9l86 -32q9 -5 10 -8q2 -3 -4 -6q-23 -8 -32 -16v-189h29l26 35l55 -41q10 -8 7 -12
q-3 -3 -18 -2h-99v-193l101 53l7 -14l-94 -60q-3 -4 -10 -6q-3 -1 -4 -2v-378q-1 -37 -17 -49q-17 -12 -68 -26q-4 34 -32 39q-27 6 -55 14l2 14l35 -4q48 -8 71 -2q21 5 23 50v314q-57 -34 -73 -47q-16 -18 -28 -43l-45 48l146 76v216h-65q-26 0 -44 -12l-33 32h142v200
q1 15 -25 42zM713 844q-14 2 -32 -13l-29 33h193l29 35l43 -43q6 -6 5 -10q0 -4 -8 -6l-17 -7v-143l5 -103q0 -30 -44 -32v49h-140v-259q1 -48 13 -61q51 -25 115 -12q43 8 47 39q6 32 11 135h15l1 -86q2 -52 29 -66q-23 -52 -66 -58q-74 -15 -140 -1q-70 13 -64 116v258
q0 27 -15 51l9 8l38 -44h147v220h-145zM341 765h130v146q4 15 -22 41l8 11l76 -34q7 -2 8 -5q2 -2 -2 -5q-20 -6 -29 -18v-136h36l23 35l59 -45q7 -6 5 -9q-1 -2 -11 -1h-112v-157h54l27 36l59 -46q8 -6 7 -9q-2 -2 -13 -1h-237q-28 0 -45 -13l-33 33h142v157h-51
q-29 0 -45 -13z" />
  </g>

</svg>
