<?xml version="1.0" standalone="no"?>
<!DOCTYPE svg PUBLIC "-//W3C//DTD SVG 1.1//EN" "http://www.w3.org/Graphics/SVG/1.1/DTD/svg11.dtd" >
<svg xmlns="http://www.w3.org/2000/svg" xmlns:xlink="http://www.w3.org/1999/xlink" version="1.1" viewBox="0 -36 256 256">
  <g transform="matrix(1 0 0 -1 0 220)">
   <path fill="currentColor"
d="M42 230v-7h62v7h-62zM42 216v-7h62v7h-62zM43 237h60l6 8l13 -9l-5 -6q0 -14 1 -27l-14 -4l8 -3l-8 -4q-7 -6 -19 -13h20q7 6 12 13l13 -10l-8 -3q-17 -12 -34 -23l29 1l-8 8l2 2q25 -10 19.5 -17.5t-7.5 -4t-4 7.5q-22 -3 -38 -7l-6 12q10 2 26 16q-13 -1 -22 -4l-5 10
q10 1 24 23l6 -4v3h-62v-2l-13 -2q1 12 1 20.5t-1 23.5zM59 194l-7 -2q-8 -5 -23 -14l22 1q8 8 13 15l13 -9l-7 -2q-17 -14 -39 -29l27 2q-1 3 -5 9l2 2q11 -6 15 -12t-1.5 -11t-6.5 -0.5t-2 8.5q-23 -4 -38 -9l-6 12q5 1 10.5 4t20.5 15q-13 -2 -25 -6l-6 11q12 1 31 24z
M103 143l2 2q24 -8 18 -18t-8 -2t-12 18zM95 125.5q-6 -9.5 -9 0t-9 15.5l2 2q22 -8 16 -17.5zM56 122.5q0 7.5 -4 19.5l2 1q19 -13 10.5 -20.5t-8.5 0zM39 143q-3 -29 -15 -28t-1.5 9.5t12.5 18.5h4zM154 192h58v11h-58v-11zM154 173h58v12h-58v-12zM154 155h58v11h-58v-11
zM142 180.5q0 17.5 -1 33.5l14 -4h13l6 16h-15q-10 0 -20 -2l-9 9h87l10 10l16 -17h-65l10 -4q-6 -3 -14 -12h35l7 7l13 -8l-5 -6v-16q0 -24 1 -39l-13 -5v5h-58v-2l-13 -4q1 21 1 38.5zM159.5 128.5q-12.5 -6.5 -34.5 -13.5l-2 3q27 14 40 29l14 -12q-5 0 -17.5 -6.5z
M229 133q6 -5 1.5 -13.5t-9.5 -1t-27 24.5l2 3q27 -8 33 -13zM56 102q-10 0 -20 -2l-9 9h56q0 6 -1 15l21 -6l-6 -5v-4h61q0 6 -1 15l21 -5l-6 -6v-4h35l11 9l17 -16h-63q0 -7 1 -18l-15 -3v4h-23v-8h53l7 8l14 -10l-7 -6q0 -10 1 -21l-15 -3v5h-53v-11h81l11 11l18 -18
h-110q0 -10 1 -20l-16 -3q1 11 1 23h-77q-10 0 -19 -2l-10 9h106v11h-51v-3l-15 -3q1 12 1 21t-1 16l18 -4h48v8h-24v-2l-15 -2q1 13 1 21h-27zM97 92h61v10h-61v-10zM135 57h53v13h-53v-13zM70 57h51v13h-51v-13z" />
  </g>

</svg>
