<?xml version="1.0" standalone="no"?>
<!DOCTYPE svg PUBLIC "-//W3C//DTD SVG 1.1//EN" "http://www.w3.org/Graphics/SVG/1.1/DTD/svg11.dtd" >
<svg xmlns="http://www.w3.org/2000/svg" xmlns:xlink="http://www.w3.org/1999/xlink" version="1.1" viewBox="0 -36 256 256">
  <g transform="matrix(1 0 0 -1 0 220)">
   <path fill="currentColor"
d="M161 160l1 -5q-28 -12 -53 -26l-10 15q15 3 26 7v65h-14l-5 -2l-9 9h43l10 9l12 -16h-25v-63zM221 139h7q6 1 5 30h4q0 -4 1.5 -15t9.5 -13q-3 -10 -16 -13h-18q-11 1 -11 18v73h-18q0 -43 -9 -64t-39 -39l-2 3q25 23 31.5 43t6.5 57h-3l-5 -2l-6 9h45l7 9l12 -11l-8 -6
v-64q-1 -15 6 -15zM57.5 155.5q-0.5 15.5 -10.5 35.5l4 2q25 -25 16 -39t-9.5 1.5zM75 234l-8 -3q-7 -11 -13 -20h23l8 11l13 -13l-8 -7v-151q1 -29 -18 -35q0 11 -20 18v4q15 -2 19.5 -2t5.5 11v157h-34v-47q1 -47 -5 -82.5t-25 -63.5l-4 2q14 33 17.5 59t3.5 64v58
q0 14 -1 26l13 -9h7q5 14 8 35zM67 95.5q4 -8.5 2 -16t-7 -7.5t-5 11t-10 31l3 3q13 -13 17 -21.5zM18 107l-10 18q16 -1 91 24l2 -6q-74 -28 -83 -36zM172 14l-15 -7l1 17v67h-31q-13 0 -22 -3l-10 10h63q0 7 -1 34l21 -11l-7 -6v-17h43l12 11l15 -18h-70v-46q0 -8 1 -31z
M184 75q31 -14 42 -24.5t7.5 -22.5t-13.5 4t-37 39zM141 59q-23 -25 -51 -39l-2 4q27 21 47 52l15 -13zM154 201q38 -18 42.5 -25.5t0 -17.5t-13 6.5t-31.5 34.5z" />
  </g>

</svg>
