<?xml version="1.0" standalone="no"?>
<!DOCTYPE svg PUBLIC "-//W3C//DTD SVG 1.1//EN" "http://www.w3.org/Graphics/SVG/1.1/DTD/svg11.dtd" >
<svg xmlns="http://www.w3.org/2000/svg" xmlns:xlink="http://www.w3.org/1999/xlink" version="1.1" viewBox="0 -205 1024 1024">
  <g transform="matrix(1 0 0 -1 0 819)">
   <path fill="currentColor"
d="M302 632h126l28 34l50 -36q9 -6 10 -12q0 -6 -26 -24v-479q1 -41 -18 -64q-19 -21 -58 -36q-9 32 -36 46q-28 13 -80 32l4 18q62 -16 92 -20q29 -3 40 6q10 10 6 40v155h-22q-87 -82 -170 -134q-82 -50 -200 -91l-4 16q108 54 168 95t132 112h-236q-22 0 -44 -6l-28 32
h128v342l54 -26h58q26 45 38 78q54 -20 54 -28q0 -6 -2 -8q-4 -2 -14 -4q-9 -3 -20 -12q-12 -9 -30 -26v0v0zM212 316h228v80h-228v-80v0v0zM212 422h228v80h-228v-80v0v0zM212 526h228v78h-228v-78v0v0zM556 640h260l30 30l58 -38q7 -6 8 -14q0 -5 -32 -22v-100l4 -44
q-1 -15 -22 -24q-19 -10 -32 -10v44h-182l-24 -124h222l28 36l64 -46q4 -4 2 -10q0 -5 -30 -22q-10 -94 -22 -154q-13 -58 -46 -85q-33 -25 -62 -38q-12 33 -36 50q-22 15 -92 38l6 20q121 -33 146 -22q24 9 34 55q8 47 20 148h-224l-34 -30l-60 52l40 26l28 178l40 -42h182
v120h-214q-21 0 -36 -8l-24 36v0v0zM496 780v-6q-4 -6 -26 -8q-22 0 -128 -42q-106 -40 -268 -86l-6 16q152 59 236 100t126 70l66 -44v0v0zM598 796q162 -22 234 -44q72 -20 96 -40q23 -20 20 -40q-3 -21 -14 -24q-12 -4 -26 4q-14 7 -40 26q-25 17 -76 40q-51 20 -198 62
l4 16v0v0zM880 864l34 36l62 -48q12 -8 10 -16q0 -3 -14 -6q-30 -1 -60 -22q-31 -22 -62 -46l-14 10l42 66h-670q-9 -51 -32 -78q-25 -25 -46 -28q-21 -4 -32 8q-12 11 -6 28q6 15 30 30q24 13 42 38q18 24 24 96h20l2 -68h670v0v0zM430 970l6 14q77 -19 106 -34t32 -36
q3 -18 -6 -30q-10 -10 -26 -10q-14 0 -22 12q-9 8 -14 20q-4 11 -20 26q-15 13 -56 38v0v0z" />
  </g>

</svg>
