<?xml version="1.0" standalone="no"?>
<!DOCTYPE svg PUBLIC "-//W3C//DTD SVG 1.1//EN" "http://www.w3.org/Graphics/SVG/1.1/DTD/svg11.dtd" >
<svg xmlns="http://www.w3.org/2000/svg" xmlns:xlink="http://www.w3.org/1999/xlink" version="1.1" viewBox="0 -36 256 256">
  <g transform="matrix(1 0 0 -1 0 220)">
   <path fill="currentColor"
d="M70 121l-13 -6v94h-17q-10 -1 -19 -3l-9 10h45q0 12 -1 31l19 -10l-5 -6v-15h20l9 8l12 -15h-41v-88zM89 205l16 -10l-9 -4l-3 -8q12 -7 16 -13.5t0 -13.5t-7 2.5t-12 20.5q-5 -10 -15 -22l-3 2q10 20 17 46zM60 151q-22 -27 -52 -43l-1 3q32 27 53 62v-22zM90 41
q4 -7 0 -16t-9 0t-12 21q-26 -25 -60 -36l-1 3q34 19 54 41q-12 14 -24 24l2 3q18 -9 29 -18q10 12 18 35h-38q-14 -20 -39 -39l-1 4q30 34 38 60l17 -10l-5 -2l-6 -6h34l7 7l14 -12l-8 -5q-11 -29 -21 -40q7 -7 11 -14zM99.5 140.5q9.5 -7.5 6 -19t-10.5 3t-28 29.5v3
q23 -9 32.5 -16.5zM31 203l13 -11l-5 -4l-6 -7q9 -6 12.5 -10.5t-0.5 -11t-5.5 2.5t-7.5 16q-6 -16 -18 -27l-3 2q14 22 20 50zM198 148h21v30h-21v-30zM165 112h21v29h-21v-29zM198 112h21v29h-21v-29zM198 214h23l11 9l14 -16h-48v-22h19l9 6l13 -12l-7 -5v-45
q0 -17 1 -25l-14 -8v9h-21v-25h22l12 13l14 -20h-48q0 -27 1 -34l-14 -8q1 12 1 42h-15l-20 -4l-9 11h44v25h-21v-4l-14 -7q1 29 1 55t-1 41l15 -5h20v22h-18q-11 -1 -20 -3l-9 10h47q0 21 -1 32l20 -11l-7 -5v-16zM165 148h21v30h-21v-30zM112 225q21 -17 22.5 -28
t-5 -15.5t-8.5 8.5t-11 33zM123 147l8 8l13 -14l-7 -4v-89q19 -16 48 -18.5t62 -0.5v-4q-12 -3 -12 -14q-27 2 -46 4.5t-31 8.5t-19.5 13t-17.5 -4.5t-13 -21.5l-12 10q12 16 28 27v92q-7 0 -16 -2l-9 9h24z" />
  </g>

</svg>
