<?xml version="1.0" standalone="no"?>
<!DOCTYPE svg PUBLIC "-//W3C//DTD SVG 1.1//EN" "http://www.w3.org/Graphics/SVG/1.1/DTD/svg11.dtd" >
<svg xmlns="http://www.w3.org/2000/svg" xmlns:xlink="http://www.w3.org/1999/xlink" version="1.1" viewBox="0 -205 1024 1024">
  <g transform="matrix(1 0 0 -1 0 819)">
   <path fill="currentColor"
d="M458 882h354l42 50l64 -58l4 -8q0 -12 -12 -12h-362q-22 0 -70 -8l-20 36v0v0zM376 638h516l42 58l70 -66q3 -4 4 -8q1 -12 -10 -12h-282v-473q1 -42 -22 -66q-22 -24 -70 -36q-6 31 -30 50q-25 15 -94 42l4 15q105 -23 132 -25q28 1 26 41v452h-200q-22 0 -70 -8l-16 36
v0v0zM600 474q6 -4 6 -8q-1 -7 -10 -10q-24 -6 -32 -18q-9 -11 -60 -106q-52 -93 -148 -229l-16 10q57 94 108 211q51 114 78 190l74 -40v0v0zM790 498q78 -75 120 -134q38 -60 50 -96q9 -36 10 -56q0 -21 -12 -36q-12 -13 -30 -8q-16 4 -20 32q-2 27 -16 72q-13 44 -34 88
t-80 128l12 10v0v0zM88 940l60 -44h134l30 40l62 -42q9 -10 -2 -22l-22 -18v-564l4 -114q0 -12 -18 -26t-38 -17v59h-160v-71q0 -12 -20 -28q-22 -13 -34 -14l4 189v672v0v0zM138 218h160v210h-160v-210v0v0zM138 454h160v192h-160v-192v0v0zM138 672h160v198h-160v-198v0v0
z" />
  </g>

</svg>
