<?xml version="1.0" standalone="no"?>
<!DOCTYPE svg PUBLIC "-//W3C//DTD SVG 1.1//EN" "http://www.w3.org/Graphics/SVG/1.1/DTD/svg11.dtd" >
<svg xmlns="http://www.w3.org/2000/svg" xmlns:xlink="http://www.w3.org/1999/xlink" version="1.1" viewBox="0 -36 256 256">
  <g transform="matrix(1 0 0 -1 0 220)">
   <path fill="currentColor"
d="M50 138q0 32 -1 58l16 -8h32q8 19 8 26l19 -10q-8 -1 -21 -16h87l7 10l15 -11l-7 -8v-76q0 -14 -15 -20q-3 9 -19 16v3q13 -1 16.5 -0.5t3.5 6.5v73h-127v-91l-15 -7q1 23 1 55zM120 166l20 -9l-6 -4v-19h4q12 16 17 26l14 -10q-6 -2 -26 -16h19l11 8l13 -15h-52v-3
q26 -7 31.5 -11.5t3 -13t-10 1t-24.5 19.5q0 -13 1 -20l-15 -5q1 13 1 25q-23 -21 -50 -30l-2 3q26 16 41 34h-9q-12 0 -21 -2l-10 9h51q0 19 -1 32zM109 148q6 -4 1.5 -11.5t-8 0t-13.5 17.5l2 1q12 -3 18 -7zM132 77h80l15 13l18 -20h-115q-12 -27 -40 -42t-75 -20l-1 4
q43 10 66 23t34 35h-74q-10 0 -20 -2l-9 9h105q3 9 3 17l19 -8q-3 -4 -6 -9zM204 220l14 12l17 -19h-180q-13 0 -22 -3l-11 10h101q-2 12 -15 25l2 2q21 -6 26 -12t-4 -15h72zM159 181l11 -14q-35 -6 -89 -8v4q57 6 78 18zM135 60q59 -15 77 -24.5t17 -21.5t-20.5 4.5
t-75.5 37.5z" />
  </g>

</svg>
