<?xml version="1.0" standalone="no"?>
<!DOCTYPE svg PUBLIC "-//W3C//DTD SVG 1.1//EN" "http://www.w3.org/Graphics/SVG/1.1/DTD/svg11.dtd" >
<svg xmlns="http://www.w3.org/2000/svg" xmlns:xlink="http://www.w3.org/1999/xlink" version="1.1" viewBox="0 -36 256 256">
  <g transform="matrix(1 0 0 -1 0 220)">
   <path fill="currentColor"
d="M31 240l16 -9h164l8 11l15 -12l-8 -8v-186q0 -21 -21 -27q-4 15 -35 20v5q22 -2 31.5 -2.5t10.5 7.5v185h-165v-207l-16 -8q1 20 1 34v165q0 13 -1 32zM164 194l14 13l18 -20h-101q-13 0 -22 -3l-10 10h101zM86 95v38q0 20 -1 39l16 -9h56l7 10l15 -13l-8 -7v-97
q0 -19 -17 -24q-6 13 -28 18v5q15 -3 23 -3t8 8v27h-57q-3 -36 -37 -60l-2 3q26 29 25 65zM100 120v-25h57v25h-57zM100 128h57v27h-57v-27z" />
  </g>

</svg>
