<?xml version="1.0" standalone="no"?>
<!DOCTYPE svg PUBLIC "-//W3C//DTD SVG 1.1//EN" "http://www.w3.org/Graphics/SVG/1.1/DTD/svg11.dtd" >
<svg xmlns="http://www.w3.org/2000/svg" xmlns:xlink="http://www.w3.org/1999/xlink" version="1.1" viewBox="0 -204 1024 1024">
  <g transform="matrix(1 0 0 -1 0 820)">
   <path fill="currentColor"
d="M821 864v-793h-48v793h48zM658 475l-19 44q47 -11 116 -11h111l49 51l61 -54q5 -5 7 -7.5t0 -8.5q-3 -10 -13 -10h-215q-48 0 -97 -4zM881 93l50 51l60 -53q10 -10 8 -17q-3 -9 -13 -9h-292q-47 0 -96 -4l-20 44q49 -12 116 -12h187zM639 838l-19 44q47 -11 116 -11h140
l49 50l60 -53q10 -9 8 -17q-3 -9 -13 -9h-244q-71 0 -97 -4zM363 576l-13 16q39 46 56 77t27.5 57t15 43t9.5 44t7.5 46.5t8.5 84.5l61 -14q29 -7 30.5 -20t-20.5 -18l-21 -4q-4 -27 -11 -70t-30 -91.5t-52 -82.5t-68 -68zM480 804l5 19q33 -24 50 -36l27 -19
q45 -33 64.5 -60t26 -42t7 -31t-6 -27t-16.5 -11.5t-16 5.5t-13.5 29t-15.5 40.5t-28.5 46t-37.5 44.5l-46 42v0zM209 834v-278h38l49 50l60 -53l6 -5q4 -5 2 -12q-3 -9 -13 -9h-142v-276q90 39 160 81l8 -18q-80 -63 -142.5 -96t-140.5 -66l-4 -17q-4 -19 -13.5 -19
t-20.5 25l-25 54q76 16 132 38v294h-9q-32 0 -96 -4l-19 44q44 -11 115 -11h9v278h-12q-72 0 -97 -4l-19 45q47 -12 116 -12h109l49 51l61 -54q5 -5 7 -7.5t1 -8.5q-3 -10 -13 -10h-156zM508 395q80 -68 108.5 -104t36 -58.5t7 -37.5t-10 -26t-24.5 -8q-12 1 -16.5 8.5
t-12 35t-22 60.5t-73.5 103q-10 -32 -19.5 -53t-44.5 -80.5t-138 -146.5l-13 16q51 57 67 77.5t36 52.5t39 75t27.5 87t13 75.5t12.5 99.5l56 -14q20 -5 27 -8.5t8 -11t-3.5 -11.5t-17.5 -7l-20 -4q-5 -24 -8.5 -47t-6 -37.5t-8.5 -35.5z" />
  </g>

</svg>
