<?xml version="1.0" standalone="no"?>
<!DOCTYPE svg PUBLIC "-//W3C//DTD SVG 1.1//EN" "http://www.w3.org/Graphics/SVG/1.1/DTD/svg11.dtd" >
<svg xmlns="http://www.w3.org/2000/svg" xmlns:xlink="http://www.w3.org/1999/xlink" version="1.1" viewBox="0 -36 256 256">
  <g transform="matrix(1 0 0 -1 0 220)">
   <path fill="currentColor"
d="M21 45l-12 15q7 5 7 13q0 98 -1 120l20 -12l-7 -7v-109l17 4q0 155 -1 172l20 -10l-6 -7v-153l17 3q0 97 -1 118l21 -12l-7 -7v-64q0 -25 1 -48l-14 -8v16q-48 -15 -54 -24zM160 137h24v32h-24v-32zM148 166.5q0 28.5 -1 52.5l11 -5h5q6 18 8 30l15 -9q-7 -5 -18 -21h16
l7 9l11 -13l-6 -5q0 -61 1 -80l-13 -5v10h-24v-8l-13 -6q1 22 1 50.5zM160 176h24v31h-24v-31zM161 120l22 -10l-8 -6v-9h41l14 11l16 -18h-66q14 -23 30 -36t37 -18v-4q-13 -1 -17 -10q-14 8 -30 25.5t-25 43.5q0 -54 1 -76l-15 -5q1 41 1 68q-23 -34 -77 -57l-1 4
q50 31 71 65h-35q-10 0 -19 -2l-9 9h70q0 13 -1 25zM141.5 133.5q3.5 -6.5 2.5 -12t-4.5 -8.5t-5 1t-2.5 12q-21 -5 -29 -13l-8 15q8 3 17.5 23.5t12.5 25.5q-18 -4 -22 -10l-7 14q6 2 14 22t10 32l15 -10q-7 -7 -14 -19.5t-15 -24.5h20q5 14 8 25l13 -12q-7 -7 -14.5 -23
t-24.5 -43l23 2q-3 9 -7 17l2 2q12 -9 15.5 -15.5zM226 183q2 6 7 23l15 -11q-7 -5 -15 -22t-24 -43l25 2q-4 9 -7 16l2 2q15 -14 17 -20t0.5 -10t-5.5 -6t-4.5 3t-1.5 11q-26 -7 -29 -12l-8 14q4 3 12 17.5t15 31.5q-17 -3 -23 -10l-6 15q5 2 13 20t10 31l15 -12
q-8 -5 -14 -16.5t-15 -24.5z" />
  </g>

</svg>
