<?xml version="1.0" standalone="no"?>
<!DOCTYPE svg PUBLIC "-//W3C//DTD SVG 1.1//EN" "http://www.w3.org/Graphics/SVG/1.1/DTD/svg11.dtd" >
<svg xmlns="http://www.w3.org/2000/svg" xmlns:xlink="http://www.w3.org/1999/xlink" version="1.1" viewBox="0 -36 256 256">
  <g transform="matrix(1 0 0 -1 0 220)">
   <path fill="currentColor"
d="M142 118l-10 -6q31 -22 58.5 -31t57.5 -10v-5q-21 -3 -21 -13q-61 14 -98 55q-44 -39 -121 -59v5q44 15 75.5 36t41.5 40zM121 31v34q0 17 -1 30l22 -8l-6 -6v-42q0 -11 1 -27l-17 -5q1 12 1 24zM128 236l-7 -3l-15 -11h87l7 10l17 -12l-7 -6v-56q0 -19 1 -35l-16 -5v9
h-129v-7l-17 -4q1 21 1 56.5t-1 58.5l17 -9h33q10 18 11 25zM65 193h130v22h-130v-22zM65 163h130v23h-130v-23zM65 134h130v22h-130v-22z" />
  </g>

</svg>
