<?xml version="1.0" standalone="no"?>
<!DOCTYPE svg PUBLIC "-//W3C//DTD SVG 1.1//EN" "http://www.w3.org/Graphics/SVG/1.1/DTD/svg11.dtd" >
<svg xmlns="http://www.w3.org/2000/svg" xmlns:xlink="http://www.w3.org/1999/xlink" version="1.1" viewBox="0 -36 256 256">
  <g transform="matrix(1 0 0 -1 0 220)">
   <path fill="currentColor"
d="M128 196h-43q0 -9 1 -24l-16 -7q1 20 1 31h-24q-10 0 -20 -2l-9 9h53q0 28 -1 42l24 -10l-9 -7v-25h14l13 12zM162 197q-10 0 -20 -2l-9 9h33q0 21 -1 42l24 -10l-8 -7v-25h27l14 13l16 -20h-57q0 -12 1 -23l-17 -7q1 20 1 30h-4zM34 160h187l8 10l18 -18q-16 -1 -31 -23
l-4 1l10 23h-187q1 -11 -3 -19t-15 -7t-1.5 12.5t12.5 34.5h5zM119 135.5q12 -5.5 8 -19.5t-13 -0.5t-29 25.5l1 4q21 -4 33 -9.5zM92 101q9 -6 5 -19t-12 0t-30 25l2 4q26 -4 35 -10zM31 55l-9 -5l-10 11l142 12v50.5t-1 28.5l23 -11l-7 -8v-59l41 4l13 16l19 -20l-73 -7
q0 -41 1 -53l-17 -7q1 27 1 59z" />
  </g>

</svg>
