<?xml version="1.0" standalone="no"?>
<!DOCTYPE svg PUBLIC "-//W3C//DTD SVG 1.1//EN" "http://www.w3.org/Graphics/SVG/1.1/DTD/svg11.dtd" >
<svg xmlns="http://www.w3.org/2000/svg" xmlns:xlink="http://www.w3.org/1999/xlink" version="1.1" viewBox="0 -36 256 256">
  <g transform="matrix(1 0 0 -1 0 220)">
   <path fill="currentColor"
d="M32 245l19 -7l-6 -7v-20h32q0 21 -1 34l19 -6l-6 -7v-21h2l9 9l15 -16h-26q0 -15 1 -31l-13 -5v6h-9v-26h22l6 9l12 -10l-6 -7q0 -22 1 -41l-13 -5v8h-22v-30h19l10 11l16 -18h-45q0 -30 1 -51l-15 -6q1 22 1 57h-19q-10 0 -19 -2l-9 9h47v30h-23v-8l-13 -4q1 10 1 31
t-1 35l14 -8h22v26h-10v-2l-13 -5q1 20 1 37q-8 0 -15 -2l-8 9h23q0 19 -1 34zM45 181h32v23h-32v-23zM32 109h23v32h-23v-32zM68 109h22v32h-22v-32zM228 244l17 -18h-47v-23h20l6 9l13 -10l-6 -7v-15q0 -10 1 -27l-13 -4v7h-87v-4l-13 -4q1 18 1 31.5t-1 29.5l13 -6h20v23
h-13q-10 0 -19 -2l-9 9h106zM164 203h21v23h-21v-23zM132 163h20v33h-20v-33zM164 196v-33h21v33h-21zM198 196v-33h21v33h-21zM149 98h46l7 10l13 -12l-6 -7v-25q0 -16 -19 -22q-3 8 -9 11.5t-15 5.5v4q19 -2 24.5 -2t5.5 6v24h-48v-54q0 -12 14 -11h49q6 0 8 7.5t2 22.5h4
q1 -16 3.5 -21.5t7.5 -7.5q-7 -13 -22 -13h-61q-18 0 -18 20v39q0 15 -1 32zM171 142l-8 -3q-16 -19 -30 -29.5t-27 -16.5l-1 3q19 15 32.5 32t18.5 26zM195 150l-7 -5q23 -31 60 -36v-4q-10 -2 -17 -12q-34 19 -53 59z" />
  </g>

</svg>
