<?xml version="1.0" standalone="no"?>
<!DOCTYPE svg PUBLIC "-//W3C//DTD SVG 1.1//EN" "http://www.w3.org/Graphics/SVG/1.1/DTD/svg11.dtd" >
<svg xmlns="http://www.w3.org/2000/svg" xmlns:xlink="http://www.w3.org/1999/xlink" version="1.1" viewBox="0 -205 1024 1024">
  <g transform="matrix(1 0 0 -1 0 819)">
   <path fill="currentColor"
d="M480 978l86 -36q12 -6 6 -12q-1 -3 -40 -24v-298q168 147 304 306q65 -49 68 -58q3 -7 -2 -10q-3 -1 -24 -2q-18 0 -116 -86q-99 -84 -230 -180v-46h336l40 54l70 -62q3 -4 4 -10q0 -7 -14 -8h-320q15 -67 66 -152q49 -84 122 -146q71 -62 164 -79v-18q-54 3 -72 -6
q-16 -8 -28 -26q-52 30 -118 103q-64 74 -104 154q-38 80 -58 170h-88v-399l174 93l10 -16q-135 -90 -164 -117q-26 -24 -52 -58l-62 52q24 16 42 40v405h-102q-20 0 -58 -6l-16 32h176v446v0v0zM210 972l78 -30q5 -4 8 -10q0 -3 -6 -8l-30 -18v-136q60 -23 90 -46
q29 -22 38 -46t-2 -42q-11 -19 -28 -16q-16 3 -22 24t-18 46q-10 24 -58 58v-586l4 -107q0 -12 -20 -24q-21 -12 -38 -10l4 135v816v0v0zM130 730h20q3 -107 -2 -148q-3 -39 -24 -68q-18 -28 -42 -28t-32 16q-10 15 4 30q12 15 28 30q14 15 28 48q11 30 20 120v0v0z" />
  </g>

</svg>
