<?xml version="1.0" standalone="no"?>
<!DOCTYPE svg PUBLIC "-//W3C//DTD SVG 1.1//EN" "http://www.w3.org/Graphics/SVG/1.1/DTD/svg11.dtd" >
<svg xmlns="http://www.w3.org/2000/svg" xmlns:xlink="http://www.w3.org/1999/xlink" version="1.1" viewBox="0 -36 256 256">
  <g transform="matrix(1 0 0 -1 0 220)">
   <path fill="currentColor"
d="M50 235q25 -11 33 -15t9 -10t-4 -14t-11 4.5t-29 31.5zM119 214q0 15 -1 30l25 -10l-10 -8v-37h16q29 34 35 49l19 -15q-10 -2 -23.5 -14l-22.5 -20h49l14 13l20 -20h-95q15 -11 40.5 -23t60.5 -14v-4q-17 -2 -18 -11q-28 6 -52.5 21t-37.5 31h-5v-52h-14v48
q-33 -35 -108 -53v4q65 23 93 53h-51q-13 0 -22 -3l-10 10h98v25zM65 104h122v22h-122v-22zM51 139l14 -6h120l6 9l17 -12l-8 -5q0 -21 1 -29l-14 -4v5h-122q-2 -58 -53 -90l-1 4q48 41 40 128zM207 34.5q1 9.5 1 20.5h5q0 -13 2.5 -20t11.5 -9q-7 -10 -28 -12h-93
q-22 1 -22 18v47q0 5 -1 13l25 -7l-10 -5v-24q62 11 97 32l15 -17h-12q-49 -14 -100 -20v-18q-1 -8 23 -8h72q13 0 14 9.5z" />
  </g>

</svg>
