<?xml version="1.0" standalone="no"?>
<!DOCTYPE svg PUBLIC "-//W3C//DTD SVG 1.1//EN" "http://www.w3.org/Graphics/SVG/1.1/DTD/svg11.dtd" >
<svg xmlns="http://www.w3.org/2000/svg" xmlns:xlink="http://www.w3.org/1999/xlink" version="1.1" viewBox="0 -144 1024 1024">
  <g transform="matrix(1 0 0 -1 0 880)">
   <path fill="currentColor"
d="M915 658l-60 53l-38 38l-18 20l-17 21l-16 23l-13 20h-183l-19 -28l-31 -38l-30 -29l51 -26h208l32 27l60 -48l-27 -22v-210l-54 -27l26 -4l16 -11l-16 -10v-122h76l53 53l65 -53v-22h-194v-186l-65 -32v218h-178l-8 -31l-13 -38l-16 -33l-19 -30l-22 -27l-26 -22
l-28 -17l-30 -13l-33 -8l-3 9l27 18l23 18l21 20l18 22l15 24l12 27l10 30l8 33l2 18h-196v22h199l3 36v110l-10 -5v299l-33 -27l-45 -32l-49 -30l-54 -27l-4 8l47 36l43 36l39 35l34 36l30 37l24 36h-215v21h228l9 16l17 38l11 38l8 34l3 15l61 -23l14 -14l-20 -7l-7 -23
l-18 -43l-16 -31h268l44 49l54 -49v-21h-176l93 -65l64 -42l43 -24l21 -14l-59 -46zM157 435l-73 -41l-13 -7l-2 -20l-17 9l-8 18l-6 11l-3 6l-8 17v1l-1 1l-2 4l131 57l2 2v259h-128v22h128v209l64 -10l16 -11l-16 -10v-178h13l53 53l65 -53v-22h-131v-231l63 27l66 26
l5 -8l-28 -22l-89 -60l-17 -11v-334l-1 -13l-2 -14l-4 -12l-7 -13l-9 -11l-11 -8l-12 -7l-13 -4l-13 -3l-14 -1v33l-64 16v16h64h7l4 1l5 2l2 2l2 5l1 5l1 6v296zM551 407v-89l-1 -2h1l-5 -31h175v153l28 -5v26h-208l-44 -22l54 -9l16 -11zM24 434l28 -58l-38 54zM749 691
h-208v-211h208v211z" />
  </g>

</svg>
