<?xml version="1.0" standalone="no"?>
<!DOCTYPE svg PUBLIC "-//W3C//DTD SVG 1.1//EN" "http://www.w3.org/Graphics/SVG/1.1/DTD/svg11.dtd" >
<svg xmlns="http://www.w3.org/2000/svg" xmlns:xlink="http://www.w3.org/1999/xlink" version="1.1" viewBox="0 -36 256 256">
  <g transform="matrix(1 0 0 -1 0 220)">
   <path fill="currentColor"
d="M22 88l-15 20q12 2 45 16v53h-9q-13 0 -22 -3l-10 10h41q0 38 -1 62l25 -11l-10 -7v-44h8l10 11l18 -18h-36v-48l34 16l2 -5l-36 -22v-77q1 -26 -20 -33q2 13 -29 20v5q22 -3 28 -1.5t7 13.5v65q-25 -15 -30 -22zM167 229q16 -26 36.5 -40t42.5 -17v-4q-16 -2 -20 -14
q-24 14 -38.5 31.5t-22.5 39.5q-13 -26 -31.5 -47t-40.5 -33l-3 5q28 23 43 48t21 48l21 -11q-6 -3 -8 -6zM172 136q12 24 17 42l18 -13l-7 -1q-10 -15 -22 -28h29l10 11l18 -18h-68v-26h29l10 11l18 -18h-57v-27h47l10 11l18 -18h-75q0 -39 1 -47l-16 -6q1 15 1 53h-41
q-13 0 -22 -3l-10 10h73v27h-18q-13 0 -22 -3l-10 10h50v26h-25q-13 0 -22 -3l-10 10h76zM147.5 159.5q7.5 -6.5 0.5 -17t-10 1t-15 27.5l2 2q15 -7 22.5 -13.5z" />
  </g>

</svg>
