<?xml version="1.0" standalone="no"?>
<!DOCTYPE svg PUBLIC "-//W3C//DTD SVG 1.1//EN" "http://www.w3.org/Graphics/SVG/1.1/DTD/svg11.dtd" >
<svg xmlns="http://www.w3.org/2000/svg" xmlns:xlink="http://www.w3.org/1999/xlink" version="1.1" viewBox="0 -36 256 256">
  <g transform="matrix(1 0 0 -1 0 220)">
   <path fill="currentColor"
d="M90 236q-8 -4 -14 -11h108l10 10l17 -15l-11 -4q0 -38 -4 -52t-27 -17q-2 10 -21 14v3q30 -6 33.5 3.5t4.5 50.5h-116q-23 -22 -54 -36l-2 3q45 33 59 62zM145 195v-27l-15 -5v5h-56v-21q0 -11 23 -11h113q8 1 9.5 9.5t1.5 24.5h5q-2 -27 13 -34q-5 -12 -31 -12h-121
q-27 2 -27 17v66l15 -4h54l8 6l15 -9zM130 196h-56v-21h56v21zM100 75v-48l45 15l2 -3q-49 -24 -54 -32l-11 14q4 3 3 17v27q-28 -21 -74 -34l-1 3q30 12 52.5 27t37.5 29h-50q-10 0 -20 -2l-9 9h187l17 12l16 -19h-105q12 -17 26 -29q27 14 39 27l15 -16h-10
q-20 -8 -41 -15q17 -13 38.5 -18.5t43.5 -5.5v-4q-19 -4 -20 -13q-31 7 -55.5 24t-40.5 50h-11q-9 -5 -20 -15zM139 113.5q6 -6.5 0.5 -14.5t-10 1.5t-20.5 19.5l2 2q22 -2 28 -8.5z" />
  </g>

</svg>
