<?xml version="1.0" standalone="no"?>
<!DOCTYPE svg PUBLIC "-//W3C//DTD SVG 1.1//EN" "http://www.w3.org/Graphics/SVG/1.1/DTD/svg11.dtd" >
<svg xmlns="http://www.w3.org/2000/svg" xmlns:xlink="http://www.w3.org/1999/xlink" version="1.1" viewBox="0 -36 256 256">
  <g transform="matrix(1 0 0 -1 0 220)">
   <path fill="currentColor"
d="M42 241l16 -7h56l10 10l15 -17h-82v-12h51l10 10l14 -17h-75v-10h50l10 9l14 -16h-74v-9h65l11 9l16 -16h-78l9 -7q-7 0 -16.5 -6.5t-20.5 -11.5l71 3q-7 5 -19 14l2 2q27 -9 32.5 -14.5t1 -12t-7.5 -2t-6 8.5q-21 -3 -49 -6.5t-35 -6.5l-11 14q10 1 20.5 9t18.5 16h-22
q-10 0 -20 -2l-10 9h34q0 40 -1 59zM226 231q-6 0 -31 -11t-57 -21l-2 5q27 9 49.5 22.5t26.5 19.5zM237 197q-4 1 -32 -9t-57 -15v4q28 9 49 18.5t28 16.5zM246 166q-11 0 -38 -10t-70 -17l-1 4q39 9 64.5 21t31.5 17zM226 23q-45 19 -73 63l-12 -5q9 -10 11.5 -20.5t2 -20
t-7 -17.5t-22.5 -14q-3 12 -32 16v5q33 -3 39.5 -0.5t7 13.5t-3.5 22q-39 -28 -115 -42v5q69 17 109 47q-6 7 -13 12q-35 -23 -89 -35l-1 4q52 17 79 38l-10 6q-31 -12 -72 -20v5q54 12 91 38h-66q-11 0 -20 -2l-10 9h196l12 10l18 -17h-106q-19 -10 -37 -20q24 -10 35 -18
q38 20 50 35l15 -15q-8 -2 -17.5 -6t-25.5 -11q37 -43 87 -49v-3q-15 -4 -20 -13z" />
  </g>

</svg>
