<?xml version="1.0" standalone="no"?>
<!DOCTYPE svg PUBLIC "-//W3C//DTD SVG 1.1//EN" "http://www.w3.org/Graphics/SVG/1.1/DTD/svg11.dtd" >
<svg xmlns="http://www.w3.org/2000/svg" xmlns:xlink="http://www.w3.org/1999/xlink" version="1.1" viewBox="0 0 2048 2048">
  <g transform="matrix(1 0 0 -1 0 2048)">
   <path fill="currentColor"
d="M1624 1792l68 76l84 -54q22 -15 30 -25q9 -10 10 -24q0 -14 -11 -26q-8 -9 -31 -19l-36 -16l1 -532q0 -34 1 -68q2 -33 3 -40l1 -44q1 -23 0 -30q-4 -15 -12 -22q-9 -8 -32 -12q-22 -4 -30 -3q-12 1 -20 9q-9 8 -9 22v46h-687v-37q0 -10 -5 -19t-24 -17t-41 -4
q-20 2 -26 10q-7 8 -8 20t2 44q1 16 2 59l1 75v711l123 -80h646zM954 1561h685v177h-685v-177zM1639 1505l-685 -1v-177h685v178zM1639 1270l-685 -1v-184h685v185zM760 180v643l123 -64h817l68 76l84 -54q19 -13 29 -25q10 -11 11 -24q0 -13 -12 -26q-10 -11 -30 -19
l-39 -17v-484l81 81l97 -89l16 -14q8 -12 5 -24q-4 -11 -14 -16q-11 -4 -31 -3l-1225 1q-92 0 -126 -4q-34 -3 -38 -3l-13 -2l-38 88q13 -4 27 -7t62 -8q49 -6 132 -6h14zM1711 180v525h-224v-525h224zM1389 180v525h-217v-525h217zM1074 180v525h-215v-525h215zM292 1897
l109 -24q49 -11 67 -21q17 -9 18 -22q2 -14 -12 -26q-14 -13 -37 -18l-43 -11v-447h85l98 101l121 -105q10 -9 14 -15q5 -6 1 -19q-3 -7 -10 -14q-7 -6 -8 -6h-301v-656q69 23 103 37l113 48l96 41l20 -39l-94 -60q-35 -22 -98 -58q-64 -36 -106 -57q-43 -22 -98 -48
q-56 -25 -92 -40l-60 -25l-10 -53q-6 -26 -18 -29t-23 7t-25 41l-58 121q28 5 44 9q15 4 68 21l76 24l68 24v692h-78q-24 0 -56 -2q-33 -3 -42 -4q-9 0 -26 -2l-24 -3l-39 86q26 -5 43 -7q18 -2 44 -4l51 -4q24 -2 34 -2h93v410l-4 121q0 20 -1 25z" />
  </g>

</svg>
