<?xml version="1.0" standalone="no"?>
<!DOCTYPE svg PUBLIC "-//W3C//DTD SVG 1.1//EN" "http://www.w3.org/Graphics/SVG/1.1/DTD/svg11.dtd" >
<svg xmlns="http://www.w3.org/2000/svg" xmlns:xlink="http://www.w3.org/1999/xlink" version="1.1" viewBox="0 -205 1024 1024">
  <g transform="matrix(1 0 0 -1 0 819)">
   <path fill="currentColor"
d="M416 724q11 -10 -4 -16q-18 -1 -42 -22q-21 -18 -30 -36h90l32 38l52 -48q3 -3 4 -6q0 -10 -12 -10h-186v-70h132l32 36q54 -48 54 -54q-1 -6 -2 -8q-1 -3 -20 -2h-196v-26l4 -32q0 -15 -20 -26q-21 -12 -36 -12l4 62v34h-162q-24 0 -44 -8l-22 36h228v70h-104
q-33 1 -68 -10l-16 36h228q21 39 48 96l56 -22v0v0zM86 882h184v108l74 -26q9 -3 6 -6q0 -7 -6 -10l-26 -14v-52h90l30 32l54 -40q3 -4 4 -10q0 -6 -12 -6h-166v-74h142l32 34l50 -44q3 -1 4 -8q1 -6 -16 -6h-412q-21 -1 -50 -10l-18 34h220v74h-98q-30 -1 -66 -10l-20 34v0
v0zM686 402l-144 -6v-80h210l36 42l54 -50q2 -4 2 -10q0 -4 -12 -8h-290v-78h316l34 44l60 -56q3 -3 4 -6q0 -9 -12 -8h-402v-67q3 -51 -14 -72q-19 -21 -58 -36q-12 33 -36 48q-25 15 -92 38l4 18q69 -18 96 -24q23 -4 38 0q12 4 12 22v73h-372q-21 0 -68 -8l-16 34h456v78
h-270q-21 0 -68 -8l-16 34h354v76q-153 -6 -332 -8v22q207 12 360 24q150 12 252 36q39 -46 42 -52q4 -7 2 -10q-3 -5 -24 0q-22 6 -106 -2v0v0zM178 742l6 8q44 -17 62 -34q16 -15 14 -32q0 -16 -12 -22q-9 -6 -20 -2q-9 4 -12 14q-3 11 -8 26q-3 15 -30 42v0v0zM720 956
q11 -7 2 -14l-32 -16v-110h82l28 36l52 -34q18 -9 0 -24l-20 -16v-56q2 -102 10 -138q9 -36 24 -62q14 -24 38 -42q23 -17 32 24q9 38 18 110h18q-1 -46 -4 -82q-1 -36 2 -60q2 -24 10 -38q8 -12 10 -20q0 -6 -8 -8q-10 -4 -34 2q-24 5 -54 22q-31 17 -56 50q-25 30 -38 84
t-16 156v70h-94q0 -73 -24 -146q58 -46 74 -68q14 -22 14 -40q1 -19 -10 -28q-9 -10 -24 -4q-12 3 -24 30q-9 27 -48 66q-28 -51 -76 -96q-49 -42 -116 -68l-6 12q41 29 92 76q48 44 72 110q-39 33 -86 66l8 14q48 -20 88 -46q14 42 16 120h-40q-24 0 -48 -8l-24 34h112v170
l80 -28v0v0z" />
  </g>

</svg>
