<?xml version="1.0" standalone="no"?>
<!DOCTYPE svg PUBLIC "-//W3C//DTD SVG 1.1//EN" "http://www.w3.org/Graphics/SVG/1.1/DTD/svg11.dtd" >
<svg xmlns="http://www.w3.org/2000/svg" xmlns:xlink="http://www.w3.org/1999/xlink" version="1.1" viewBox="0 -205 1024 1024">
  <g transform="matrix(1 0 0 -1 0 819)">
   <path fill="currentColor"
d="M860 874l38 46l60 -50q3 -3 4 -8q0 -12 -12 -12h-690v-72h496l34 34l54 -42q2 -4 2 -10q1 -6 -4 -6h-574l-32 -24l-50 40l28 18v62h-92q-9 0 -44 -8l-16 32h798v0v0zM210 720l50 -28h484l22 28l50 -32q6 -3 6 -8q0 -3 -24 -18v-64l4 -40q1 -12 -16 -20q-16 -10 -34 -10
v34h-496v-4q1 -7 -10 -16t-40 -8l4 74v112v0v0zM256 586h496v80h-496v-80v0v0zM122 512l48 -32h104l22 24l40 -26q7 -5 8 -10q0 -6 -20 -26v-319q2 -39 -10 -60q-12 -18 -50 -34q-6 24 -30 36q-21 10 -60 22l4 18q48 -12 60 -16q14 -4 28 0q14 6 14 26v115h-118
q0 -45 -18 -85q-15 -42 -42 -72q-24 -29 -60 -62l-10 12q44 50 64 94q18 41 22 85q3 44 4 128v182v0v0zM162 254h118v90h-114v-28q-1 -31 -4 -62v0v0zM166 368h114v88h-114v-88v0v0zM408 988l6 12q84 -21 106 -42q21 -21 16 -38q-3 -18 -14 -24q-12 -4 -24 -2q-11 1 -16 14
q-4 12 -16 30q-11 19 -58 50v0v0zM528 352h66l30 34l40 -42q3 -3 4 -8q2 -10 -10 -10h-130v-38q30 -16 60 -34t40 -42q9 -23 0 -40q-6 -16 -24 -14q-16 2 -22 22q-5 21 -16 42q-9 20 -38 44v-157l4 -36q0 -11 -18 -26q-19 -13 -34 -14l4 76v197q-21 -61 -54 -112
q-31 -50 -82 -103l-10 10q40 56 68 115q26 59 40 110h-32q-15 0 -50 -8l-16 34h136v186l64 -20q3 -1 4 -2q9 -6 0 -12l-24 -16v-136v0v0zM540 370q35 72 62 136l52 -26q6 -5 4 -10q-3 -6 -18 -6q-13 -1 -86 -100l-14 6v0v0zM372 492q45 -24 66 -44q18 -21 22 -38
q1 -16 -6 -28q-7 -13 -22 -10t-20 24q-4 20 -14 40q-7 18 -34 46l8 10v0v0zM690 510l48 -36h94l26 26l44 -36q6 -5 6 -10q0 -6 -14 -14l-20 -14v-305q0 -14 4 -22q2 -8 22 -8h34q16 4 20 22l6 34q-1 14 2 87h18q3 -45 6 -80q2 -32 26 -43q-7 -24 -20 -40q-12 -14 -36 -20
h-64q-27 0 -38 6q-9 5 -14 16q-6 11 -8 34v345h-100v-102v-18q-1 -73 -10 -118q-9 -46 -42 -101q-30 -54 -108 -100l-8 12q69 57 88 102q18 41 28 79q8 36 10 120v184v0v0z" />
  </g>

</svg>
