<?xml version="1.0" standalone="no"?>
<!DOCTYPE svg PUBLIC "-//W3C//DTD SVG 1.1//EN" "http://www.w3.org/Graphics/SVG/1.1/DTD/svg11.dtd" >
<svg xmlns="http://www.w3.org/2000/svg" xmlns:xlink="http://www.w3.org/1999/xlink" version="1.1" viewBox="0 -205 1024 1024">
  <g transform="matrix(1 0 0 -1 0 819)">
   <path fill="currentColor"
d="M112 574h704l32 44l68 -52q3 -4 4 -10q0 -7 -12 -8h-714q-15 0 -62 -8l-20 34v0v0zM436 676q60 -13 82 -28q20 -13 20 -34q-1 -19 -16 -26t-24 2q-9 8 -18 28q-6 18 -48 48l4 10v0v0zM706 510q14 -6 8 -14q1 -3 -10 -6q-13 -3 -26 -12t-40 -42h266l26 28l52 -42
q5 -6 8 -14q0 -3 -8 -6q-25 -5 -46 -22q-30 -22 -50 -44l-16 8l36 66h-764q0 -33 -24 -60q-22 -25 -46 -28q-24 -1 -30 16q-7 18 20 34q26 15 44 40q15 24 24 72h18v-48h462q18 44 36 94l60 -20v0v0zM328 536q51 -11 72 -28q21 -18 16 -38q-3 -19 -24 -22q-19 -1 -22 10
q-1 11 -10 26q-7 15 -40 42l8 10v0v0zM798 302l26 34l60 -40l4 -8q0 -12 -12 -12h-480q-9 -34 -18 -52h340l32 30l52 -36q9 -9 10 -14q0 -3 -32 -24q-6 -39 -18 -73q-10 -36 -40 -52q-29 -17 -76 -32q-3 35 -30 48q-27 14 -84 34l6 18q62 -15 98 -22q36 -6 54 2q15 9 24 26
q6 17 16 67h-362q-19 -37 -50 -65q-30 -29 -84 -58q-54 -27 -152 -54l-4 18q82 30 134 62q50 33 82 73q30 40 46 104h-160q-21 0 -68 -8l-16 34h702v0v0zM434 398q48 -9 76 -24q26 -12 20 -36q-5 -22 -22 -22q-17 -1 -22 10q-6 11 -18 26q-11 14 -40 34l6 12v0v0zM146 960
h650l34 32l50 -38q3 0 4 -6q0 -12 -14 -12h-328v-82h336l34 36l52 -50q9 -9 10 -14q-1 -6 -16 -8q-24 -6 -36 -18q-12 -9 -60 -68l-18 8l42 90h-344v-68l4 -36q0 -19 -20 -34q-21 -15 -42 -14l4 86v66h-332q-4 -66 -20 -84q-15 -19 -36 -26q-20 -7 -34 -2q-15 6 -14 22
q-1 14 22 28q23 15 40 36q15 21 22 84h16l2 -34h334v82h-258q-21 0 -68 -8l-16 32v0v0zM224 758h174v-24h-174v24v0v0zM222 666h176v-24h-176v24v0v0zM626 758h176v-24h-176v24v0v0zM628 668h178v-24h-178v24v0v0z" />
  </g>

</svg>
