<?xml version="1.0" standalone="no"?>
<!DOCTYPE svg PUBLIC "-//W3C//DTD SVG 1.1//EN" "http://www.w3.org/Graphics/SVG/1.1/DTD/svg11.dtd" >
<svg xmlns="http://www.w3.org/2000/svg" xmlns:xlink="http://www.w3.org/1999/xlink" version="1.1" viewBox="0 -36 256 256">
  <g transform="matrix(1 0 0 -1 0 220)">
   <path fill="currentColor"
d="M121 132h34v24h-34v-24zM122 216q-2 12 -14 26l1 3q20 -5 24.5 -12.5t-3.5 -16.5h82l11 12l19 -19h-185h-19q-9 0 -19 -2l-10 9h113zM77 161.5q0 26.5 -1 37.5l16 -7h90l9 9l15 -13l-9 -6v-83h-14v86h-92v-86h-14v62.5zM109 150.5q0 8.5 -1 18.5l13 -6h34l4 8l14 -11
l-6 -5q0 -19 1 -34l-13 -5v9h-34v-6l-13 -5q1 28 1 36.5zM225 112l16 -18h-193l-10 -8l-13 13l7 6v46q0 9 -1 27l22 -10l-7 -8v-59h167zM45 75q-1 -26 -6 -34.5t-12 -11.5t-14 2.5t6 13.5t21 31zM108 91q23 -8 32 -14.5t6.5 -14.5t-7.5 -9.5t-10.5 10t-21.5 25.5zM197 74
q28 -12 35.5 -18.5t6.5 -14t-7 -10.5t-11.5 9.5t-25.5 30.5zM72 82l24 -9l-8 -7v-26q-3 -13 14 -12h51q16 -1 18 10.5t2 25.5h6q1 -17 4 -24.5t12 -10.5q-11 -13 -31 -13h-67q-24 -1 -24 17q0 34 -1 49z" />
  </g>

</svg>
