<?xml version="1.0" standalone="no"?>
<!DOCTYPE svg PUBLIC "-//W3C//DTD SVG 1.1//EN" "http://www.w3.org/Graphics/SVG/1.1/DTD/svg11.dtd" >
<svg xmlns="http://www.w3.org/2000/svg" xmlns:xlink="http://www.w3.org/1999/xlink" version="1.1" viewBox="0 -36 256 256">
  <g transform="matrix(1 0 0 -1 0 220)">
   <path fill="currentColor"
d="M32 75q4 -32 1 -41t-9.5 -12t-11 0t2.5 12t13 41h4zM47 79l3 2q22 -27 22 -35t-7.5 -14.5t-8 5.5t-9.5 42zM71 89q27 -19 29.5 -27.5t-3.5 -17t-9.5 4.5t-19.5 38zM53.5 206q-12.5 -20 -27.5 -40l38 3q6 9 11 22l15 -15q-4 0 -24 -26.5t-40 -45.5l53 5q-5 13 -13 27l3 2
q29 -23 29 -33t-5.5 -15.5t-6.5 0.5t-5 14q-29 -5 -42 -9.5t-18 -9.5l-11 20q5 0 20 16t32 41q-16 -4 -24 -5.5t-17 -8.5l-9 18q6 2 19 24.5t21 49.5l19 -13q-5 -1 -17.5 -21zM166 208q-1 16 -16 35l2 2q23 -11 27.5 -19.5t-5.5 -17.5h41l13 14l17 -21h-125q-10 0 -19 -2
l-9 9h74zM98 114l-3 2q17 31 22 44.5t11 40.5l18 -12l-7 -5l-15 -34l10 -7l-8 -5v-123l-13 -7q1 21 1 125zM192 191l-8 -5l-8 -21h34l7 11l16 -13l-7 -6q-13 -59 -34 -94q26 -28 54 -33v-4q-14 -1 -18 -11q-15 11 -25 20t-17 19q-28 -34 -56 -43l-2 3q31 20 49 49
q-17 32 -21 60q-8 -13 -21 -29l-3 2q15 26 25.5 53.5t14.5 52.5zM159 129q5 -17 11 -30.5t14 -24.5q11 21 18 43.5t10 40.5h-38zM189.5 125q5.5 -6 4 -12t-5.5 -10.5t-6.5 7t-13.5 28.5l3 2q13 -9 18.5 -15z" />
  </g>

</svg>
