<?xml version="1.0" standalone="no"?>
<!DOCTYPE svg PUBLIC "-//W3C//DTD SVG 1.1//EN" "http://www.w3.org/Graphics/SVG/1.1/DTD/svg11.dtd" >
<svg xmlns="http://www.w3.org/2000/svg" xmlns:xlink="http://www.w3.org/1999/xlink" version="1.1" viewBox="0 -36 256 256">
  <g transform="matrix(1 0 0 -1 0 220)">
   <path fill="currentColor"
d="M37 246q21 -6 25 -9t3.5 -9t-5 -7.5t-7.5 4.5t-8 11t-9 7zM127 161.5q35 -2.5 63 -1.5t52 4v-4q-18 -4 -19 -13q-64 -1 -92.5 2.5t-43 10t-27.5 12.5q-23 -10 -32 -22l-12 10q17 8 35 17v25h-7h-2q-11 0 -22 -2l-10 9h40l8 8l15 -9l-7 -7v-25q26 -12 61 -14.5zM41 103.5
q0 23.5 -1 38.5l16 -4h24q8 12 11 21l18 -7q-9 -4 -20 -14h99l8 9l16 -11l-8 -5v-20l1 -12l-15 -5v4h-134v-8h160l13 11l18 -18h-191v-10h159l9 8l16 -12l-8 -4q-5 -22 -7.5 -29.5t-9 -16t-28.5 -11.5q-2 5 -7.5 9t-20.5 7v4q34 -4 39 -2.5t8 5.5t4.5 9.5t6.5 25.5h-161v-4
l-16 -2q1 20 1 43.5zM190 131h-134v-10h134v10zM190 114h-134v-9h134v9zM187 50.5q4 -5.5 2 -11t-7 -7t-6.5 4t-6.5 13t-11 12.5l1 2q24 -8 28 -13.5zM93.5 36.5q1.5 -5.5 -2.5 -10t-7.5 -4t-4 5.5t-3.5 11t-10 16l6 1q20 -14 21.5 -19.5zM141 43.5q4 -6.5 1 -10.5t-7.5 -6
t-6.5 6.5t-5.5 14t-8.5 11.5l3 1q20 -10 24 -16.5zM36 29.5q-3 -4.5 -10 -7.5t-13.5 -0.5t-1 6t11 8.5t11.5 19h5q0 -21 -3 -25.5zM109 212q21 -7 25 -13.5t-1.5 -12t-9.5 4t-17 19.5zM109 213h-11q0 1 -13 -2l-10 9h96q0 15 -1 25l24 -8l-8 -5v-12h24l13 9l17 -16h-54v-30
q0 -18 -26 -21q3 7 -29 15v4q30 -4 35 -2.5t5 8.5v26h-54h-8z" />
  </g>

</svg>
