<?xml version="1.0" standalone="no"?>
<!DOCTYPE svg PUBLIC "-//W3C//DTD SVG 1.1//EN" "http://www.w3.org/Graphics/SVG/1.1/DTD/svg11.dtd" >
<svg xmlns="http://www.w3.org/2000/svg" xmlns:xlink="http://www.w3.org/1999/xlink" version="1.1" viewBox="0 -36 256 256">
  <g transform="matrix(1 0 0 -1 0 220)">
   <path fill="currentColor"
d="M20 78q15 -29 16.5 -37.5t-4.5 -14t-11.5 -4t-2.5 11.5t-1 42zM54 83q22 -26 22 -34t-7.5 -15t-8.5 5t-9 42zM80 92q28 -20 30.5 -27.5t-3.5 -15.5t-10.5 4.5t-19.5 36.5zM59.5 209.5q-13.5 -19.5 -28.5 -39.5h40q8 13 15 29l16 -15q-4 1 -26.5 -28t-44.5 -49l59 6
q-5 13 -14 26l4 2q31 -22 31 -32t-5.5 -15.5t-7 0.5t-6.5 14q-33 -5 -47 -9.5t-21 -9.5l-11 21q4 0 21.5 15t33.5 39l-25 -5t-21 -8l-10 19q9 2 24.5 24t24.5 49l18 -13q-6 -1 -19.5 -20.5zM137 210h-11q-10 0 -19 -2l-10 9h110l14 13l18 -20h-45v-164q0 -14 10 -13h14
q9 0 10.5 16.5t1.5 35.5h5q0 -24 1.5 -34t9.5 -14q-6 -16 -22 -16h-29q-15 0 -15 22v167h-29q4 -149 -63 -201l-2 3q55 58 51 198z" />
  </g>

</svg>
