<?xml version="1.0" standalone="no"?>
<!DOCTYPE svg PUBLIC "-//W3C//DTD SVG 1.1//EN" "http://www.w3.org/Graphics/SVG/1.1/DTD/svg11.dtd" >
<svg xmlns="http://www.w3.org/2000/svg" xmlns:xlink="http://www.w3.org/1999/xlink" version="1.1" viewBox="0 -36 256 256">
  <g transform="matrix(1 0 0 -1 0 220)">
   <path fill="currentColor"
d="M31 234v-10h82l8 9l15 -13q-11 -2 -28 -23l-3 1l8 19h-82q-1 -24 -14.5 -24t-3 11.5t13.5 29.5h4zM47 174q-11 0 -20 -2l-9 9h46q0 16 -1 29l21 -7l-7 -6v-16h26l10 10l16 -17h-52v-20h23l7 9l15 -11l-7 -6v-28q0 -16 1 -34l-14 -3v6h-25v-27h28l11 12l17 -19h-56v-12
q0 -14 1 -28l-15 -6q1 15 1 32v14h-28q-10 0 -19 -2l-9 9h56v27h-25v-7l-14 -6q1 14 1 29v32q0 14 -1 26l16 -7h23v20h-17zM39 124h25v23h-25v-23zM77 147v-23h25v23h-25zM39 94h25v23h-25v-23zM77 117v-23h25v23h-25zM160 193h64l6 11l17 -15q-15 -5 -31 -32l-4 1l12 28
h-65q-12 -34 -31 -61l-4 2q16 34 23.5 66.5t9.5 51.5l20 -10l-7 -7q-3 -11 -10 -35zM190 153l-6 -7q7 -53 25 -81.5t37 -36.5l-1 -4q-14 1 -20 -9q-24 26 -33 54.5t-12 64.5q-6 -50 -24 -79t-46 -47l-1 4q26 23 41 57.5t18 94.5z" />
  </g>

</svg>
