<?xml version="1.0" standalone="no"?>
<!DOCTYPE svg PUBLIC "-//W3C//DTD SVG 1.1//EN" "http://www.w3.org/Graphics/SVG/1.1/DTD/svg11.dtd" >
<svg xmlns="http://www.w3.org/2000/svg" xmlns:xlink="http://www.w3.org/1999/xlink" version="1.1" viewBox="0 -36 256 256">
  <g transform="matrix(1 0 0 -1 0 220)">
   <path fill="currentColor"
d="M63 163h136v17h-136v-17zM214 154l-15 -5v7h-136v-4l-15 -6q1 21 1 48.5t-1 47.5l17 -9h131l9 12l16 -16l-8 -7v-28q0 -23 1 -40zM63 210h136v16h-136v-16zM63 187h136v16h-136v-16zM99 150l23 -11l-8 -7v-75q0 -30 1 -43l-16 -6q1 12 1 61h-36q-4 -42 -54 -61l-1 3
q40 25 40 58h-17l-12 -4l-10 11h90v25h-51l-5 -6l-15 9l6 6q0 27 -1 37l23 -9l-9 -8v-22h52q0 31 -1 42zM135 44.5q7 21.5 6.5 50t-1.5 44.5l14 -7q51 9 65 18l12 -19l-11 2q-33 -6 -65 -9v-29h64l15 12l14 -19h-41v-41q0 -12 1 -33l-16 -6q1 20 1 37v43h-38q0 -27 -9.5 -48
t-29.5 -33l-2 3q14 13 21 34.5z" />
  </g>

</svg>
