<?xml version="1.0" standalone="no"?>
<!DOCTYPE svg PUBLIC "-//W3C//DTD SVG 1.1//EN" "http://www.w3.org/Graphics/SVG/1.1/DTD/svg11.dtd" >
<svg xmlns="http://www.w3.org/2000/svg" xmlns:xlink="http://www.w3.org/1999/xlink" version="1.1" viewBox="0 -205 1024 1024">
  <g transform="matrix(1 0 0 -1 0 819)">
   <path fill="currentColor"
d="M605 985q8 8 18 -4q82 -72 79 -102q-5 -24 -21 -34q-18 -11 -24 -10t-9 23q-10 66 -43 111q-7 9 0 16zM883 128l36 41q7 7 14 0q26 -26 44 -48q11 -14 4 -24q-5 -6 -18 -7h-357q-42 -1 -73 -7q-8 -3 -11 6q-4 18 -19 30q-7 7 -4 11q4 3 11 -1q38 -8 84 -8h137v217h-118
q-48 -65 -115 -128q-14 -11 -23 -1q-9 11 1 20q113 99 179 273h-43q-42 -1 -73 -7q-8 -3 -11 6q-4 18 -19 30q-7 7 -4 11q4 3 11 -1q38 -8 84 -8h65q13 38 28 113h-55q-42 -1 -73 -7q-8 -3 -11 6q-4 18 -19 30q-7 7 -4 11q4 3 11 -1q38 -8 84 -8h72q9 56 15 117h-97
q-42 -1 -73 -7q-8 -3 -11 6q-4 18 -19 30q-7 7 -4 11q4 3 11 -1q38 -8 84 -8h164q39 84 48 156q0 5 3 6q11 5 69 -28q7 -4 6 -8q-2 -5 -15 -11q-34 -13 -80 -115h50q6 0 12 7l36 41q7 7 14 0q26 -26 44 -48q11 -14 4 -24q-5 -6 -18 -7h-180q-8 -62 -18 -117h80q6 0 12 7
l36 41q7 7 14 0q26 -26 44 -48q11 -14 4 -24q-5 -6 -18 -7h-178q-14 -61 -29 -113h153q6 0 12 7l36 41q7 7 14 0q26 -26 44 -48q11 -14 4 -24q-5 -6 -18 -7h-255q-22 -69 -64 -133h185q13 0 23 12l35 41q9 8 16 1q26 -28 45 -53q11 -15 8 -24q-3 -7 -18 -8h-149v-217h92
q6 0 12 7zM281 908q-1 39 -4 70q-1 16 9 13q53 -17 71 -26q14 -9 -2 -16q-15 -8 -19 -18q-7 -13 -7 -23v-51h41q11 0 21 10l33 38q7 8 14 1q26 -24 42 -49q11 -16 8 -23q-4 -7 -17 -8h-142v-125h72q6 0 12 7l36 41q7 7 14 0q26 -26 44 -48q11 -14 4 -24q-5 -6 -18 -7h-345
q-42 -1 -73 -7q-8 -3 -11 6q-4 18 -19 30q-7 7 -4 11q4 3 11 -1q36 -7 81 -8v139q-1 39 -4 70q-1 16 9 13q53 -17 71 -26q14 -9 -2 -16q-15 -8 -19 -18q-7 -13 -7 -23v-139h100v207zM201 248q-7 -11 -14 -7q-9 4 -3 16q41 88 62 209q20 118 14 155q-1 16 15 10
q65 -23 68 -30q-1 -6 -8 -6q-9 -1 -16 -11q-3 -1 -25 -88q2 -2 5 -6q103 -138 88 -189q-9 -21 -25 -28q-17 -7 -23 -6q-5 2 -5 23q-8 109 -47 181q-34 -118 -86 -223zM398 195q2 66 3 118v139q-1 80 -5 128q-2 17 10 13q54 -17 72 -27q14 -7 -2 -16q-16 -8 -20 -18
q-7 -19 -7 -80v-139q0 -117 4 -196q1 -8 -5 -12l-42 -27q-13 -10 -12 11q2 45 3 84q-145 -33 -310 -121q-8 -6 -9 4q-4 19 -16 35q-6 9 1 10q30 26 30 48v359q-1 39 -4 70q-1 16 9 13q53 -17 71 -26q14 -9 -2 -16q-15 -8 -19 -18q-7 -13 -7 -23v-365q136 39 257 52z" />
  </g>

</svg>
