<?xml version="1.0" standalone="no"?>
<!DOCTYPE svg PUBLIC "-//W3C//DTD SVG 1.1//EN" "http://www.w3.org/Graphics/SVG/1.1/DTD/svg11.dtd" >
<svg xmlns="http://www.w3.org/2000/svg" xmlns:xlink="http://www.w3.org/1999/xlink" version="1.1" viewBox="0 -36 256 256">
  <g transform="matrix(1 0 0 -1 0 220)">
   <path fill="currentColor"
d="M109 155h38v54h-38v-54zM94 75q3 32 3 78t-1 72l15 -9h33l8 10l14 -12l-6 -6q0 -29 1 -61l-14 -6v7h-38q0 -21 -1 -47t-6.5 -48t-26.5 -43l-3 2q19 31 22 63zM61 232l-7 -6q-3 -26 -5 -40h19l7 9l14 -12l-7 -5q-1 -16 -5 -41t-12 -53q16 -9 20 -13.5t1 -13t-8.5 0.5
t-16.5 16q-20 -38 -50 -54l-2 4q28 24 41 56q-12 7 -31 14q14 59 17 85q-8 0 -16 -3l-7 10h24q3 28 4 55zM53 90q5 14 10 40t6 49h-20q-4 -22 -16 -82q6 -2 20 -7zM185 155h41v56h-41v-56zM167 77q5 32 4.5 78t-1.5 72l15 -9h39l7 10l16 -11l-8 -8q0 -29 1 -63l-14 -4v6h-41
q1 -35 -5.5 -70t-33.5 -66l-5 2q21 31 26 63z" />
  </g>

</svg>
