<?xml version="1.0" standalone="no"?>
<!DOCTYPE svg PUBLIC "-//W3C//DTD SVG 1.1//EN" "http://www.w3.org/Graphics/SVG/1.1/DTD/svg11.dtd" >
<svg xmlns="http://www.w3.org/2000/svg" xmlns:xlink="http://www.w3.org/1999/xlink" version="1.1" viewBox="0 -36 256 256">
  <g transform="matrix(1 0 0 -1 0 220)">
   <path fill="currentColor"
d="M67 16l-15 -7q1 46 1 117q-12 -35 -42 -67l-3 3q35 50 43 114h-10q-10 0 -19 -2l-9 9h40q0 29 -1 63l24 -10l-10 -7v-46h8l11 12l13 -19h-32v-27q16 -10 24.5 -18t2.5 -20t-11 2t-16 30q0 -107 1 -127zM130 125h42v23h-42v-23zM117 190q-9 -12 -24 -27l-3 2
q14 18 24.5 42t12.5 37l19 -12q-8 -3 -16 -18h45q0 13 -17 29l2 3q11 -3 23.5 -12.5t-1.5 -19.5h29l13 13l15 -20h-54v-23h22l13 12l13 -19h-48v-22h22l11 12l15 -19h-48v-23h25l13 12l18 -19h-111v-7l-14 -5q1 24 1 84zM130 184h42v23h-42v-23zM130 155h42v22h-42v-22z
M183 107l-9 -6q-1 -19 7 -35q24 16 38 35l17 -17l-13 -2q-13 -9 -40 -21q19 -25 64 -34v-4q-16 -1 -19 -12q-46 19 -58 60q-17 -49 -83 -63l-1 4q42 16 58.5 38.5t14.5 66.5zM99 97l2 3q22 -11 29.5 -20t2 -20.5t-11 3t-22.5 34.5z" />
  </g>

</svg>
