<?xml version="1.0" standalone="no"?>
<!DOCTYPE svg PUBLIC "-//W3C//DTD SVG 1.1//EN" "http://www.w3.org/Graphics/SVG/1.1/DTD/svg11.dtd" >
<svg xmlns="http://www.w3.org/2000/svg" xmlns:xlink="http://www.w3.org/1999/xlink" version="1.1" viewBox="0 -154 1024 1024">
  <g transform="matrix(1 0 0 -1 0 870)">
   <path fill="currentColor"
d="M954 879v-720q4 -45 -3 -81t-78 -51q-6 30 -28 42q-22 11 -81 25l2 16q93 -17 112 -17q20 0 27 6q8 6 7 60v482h-163v-3q4 -35 -45 -38q5 37 7 100v198q2 16 -19 37l12 16l37 -41h155l30 43l48 -42q18 -12 0 -19zM382 953l39 -40h146l31 31l46 -39q14 -12 -6 -17l-18 -9
v-199l3 -47q-4 -34 -41 -33v41h-153v-469l5 -97q-1 -39 -54 -46q5 39 7 189v688q-7 21 -21 35zM208 933q-1 22 -26 48l6 9l86 -38q19 -8 7 -14q-18 -5 -31 -16v-193h35l35 40l50 -46q22 -16 -11 -14h-109v-176l105 67l7 -14l-96 -69q-8 -8 -16 -12v-386q7 -66 -86 -87
q-14 59 -101 68l2 16l47 -8q98 -31 96 46v317q-83 -65 -92 -74q-12 -12 -26 -40l-46 45l164 104v203h-96q-27 1 -45 -13l-34 33h175v204zM741 608l58 -31q13 -8 1 -11q-16 0 -24 -3q-41 -50 -83 -90h65l24 30l54 -35q13 -10 -5 -13h-146v-65q0 -29 -4 -53h95l25 30l51 -35
q14 -11 -4 -13h-168q-2 -13 -5 -24q59 -29 96 -60q46 -38 50 -66q3 -30 -19 -35q-22 -4 -27 19q-3 21 -33 61q-25 31 -72 63q-38 -106 -174 -158l-9 13q55 31 99 79t53 108h-80q-23 1 -38 -8l-30 26h150q2 21 3 46v72h-69q-23 -2 -39 -9l-29 27h161l30 41q47 69 45 73
q-1 4 -9 15zM912 773h-163v-112h163v112zM582 773h-153v-112h153v112zM749 789h163v101h-163v-101zM429 789h153v104h-153v-104zM533 597l5 8q106 -40 100 -85q-1 -23 -21 -27q-18 -3 -23 18q-10 53 -61 86z" />
  </g>

</svg>
