<?xml version="1.0" standalone="no"?>
<!DOCTYPE svg PUBLIC "-//W3C//DTD SVG 1.1//EN" "http://www.w3.org/Graphics/SVG/1.1/DTD/svg11.dtd" >
<svg xmlns="http://www.w3.org/2000/svg" xmlns:xlink="http://www.w3.org/1999/xlink" version="1.1" viewBox="0 -205 1024 1024">
  <g transform="matrix(1 0 0 -1 0 819)">
   <path fill="currentColor"
d="M872 942l58 -52q9 -6 10 -14q1 -4 -10 -10q-27 -6 -48 -48q-41 -87 -88 -200q80 -72 106 -110q26 -39 38 -72q12 -30 16 -66q3 -34 -8 -64q-12 -31 -36 -56q-25 -24 -74 -44q-13 33 -40 46q-27 12 -86 28l6 20q63 -13 94 -14q28 -1 44 2q14 2 32 26q18 21 16 54
q-1 32 -10 62q-10 29 -28 62q-19 32 -100 122l86 252h-172v-694l4 -101q1 -15 -22 -28q-21 -15 -36 -16l4 145v766l64 -44h146l34 48v0v0zM464 894q-28 -3 -94 -18v-268h112l42 52l64 -60q3 -4 4 -10q0 -9 -8 -8h-212q3 -96 18 -152q12 -57 30 -108q18 -52 42 -94
q22 -43 32 -40q8 0 14 24q5 24 20 118l22 -2q-10 -87 -10 -132q-1 -46 4 -59q6 -14 12 -26t4 -18q-3 -7 -14 -8q-9 0 -30 8q-22 10 -58 53q-36 42 -66 112q-27 69 -44 138q-15 69 -24 186h-162v-340l128 114l12 -14q-114 -126 -132 -152q-18 -24 -42 -73l-52 47q30 31 36 56
v694l58 -54q105 26 186 52q80 24 146 54l50 -60q3 -9 -8 -12l-36 4q-15 1 -44 -4v0v0zM322 608v260q-119 -21 -160 -30v-230h160v0v0zM232 222l8 12q63 -30 90 -56q24 -28 28 -51q3 -24 -8 -40q-11 -15 -28 -12q-18 4 -18 26t-12 47q-9 28 -60 74v0v0z" />
  </g>

</svg>
