<?xml version="1.0" standalone="no"?>
<!DOCTYPE svg PUBLIC "-//W3C//DTD SVG 1.1//EN" "http://www.w3.org/Graphics/SVG/1.1/DTD/svg11.dtd" >
<svg xmlns="http://www.w3.org/2000/svg" xmlns:xlink="http://www.w3.org/1999/xlink" version="1.1" viewBox="0 -36 256 256">
  <g transform="matrix(1 0 0 -1 0 220)">
   <path fill="currentColor"
d="M69 35.5q8 -0.5 8 12.5v58h-39q-1 -27 -6.5 -50.5t-21.5 -46.5l-3 1q11 29 14.5 56.5t3 91t-2.5 76.5l16 -8h37l8 10l14 -12l-7 -6v-171q0 -16 -5.5 -22.5t-16.5 -11.5q0 14 -27 22v4q20 -3 28 -3.5zM38 169h39v50h-39v-50zM38 113h39v49h-39v-49zM126 243l23 -11l-9 -7
v-30h12l11 10l14 -17h-37v-37h10l11 10l15 -17h-36q0 -24 -1 -45h13l12 11l13 -18h-39q-8 -52 -56 -82l-2 3q40 35 45 79h-5q-10 0 -21 -3l-10 10h37q1 21 1 45q-9 0 -20 -3l-9 10h29v37h-1q-13 0 -24 -3l-10 10h35q0 36 -1 48zM223 209h-29v-191l-14 -9q1 22 1 41v143
q0 18 -1 32l16 -9h25l10 10l15 -15q-7 0 -17 -25.5t-18 -45.5q17 -11 25 -24t9 -25.5t-4 -25.5t-20 -19q0 15 -21 20v4q15 -2 22 -1.5t9 11.5t-4 28t-21 32z" />
  </g>

</svg>
