<?xml version="1.0" standalone="no"?>
<!DOCTYPE svg PUBLIC "-//W3C//DTD SVG 1.1//EN" "http://www.w3.org/Graphics/SVG/1.1/DTD/svg11.dtd" >
<svg xmlns="http://www.w3.org/2000/svg" xmlns:xlink="http://www.w3.org/1999/xlink" version="1.1" viewBox="0 -36 256 256">
  <g transform="matrix(1 0 0 -1 0 220)">
   <path fill="currentColor"
d="M61 216l15 -10h71q-1 7 -4.5 16t-12.5 21l2 2q19 -11 25.5 -20.5t-3.5 -18.5h55l13 12l18 -19h-164q0 -45 -1 -76t-13 -59.5t-44 -54.5l-2 3q40 38 46 108q-28 -20 -37 -34l-13 15q17 5 50 24q0 67 -1 91zM44.5 167.5q5.5 -8.5 -2 -17t-10 6.5t-11.5 29l2 3
q16 -13 21.5 -21.5zM222 37.5q12 -6.5 8.5 -19t-14 1.5t-38.5 30l1 3q31 -9 43 -15.5zM134 45l-9 -3q-27 -17 -51 -29l-3 3q6 4 22 16.5t24 24.5zM166 129q-9 -3 -19.5 -10t-22.5 -13h46q13 9 19 15l14 -13q-11 -2 -30 -10.5t-50 -24.5q39 1 76 2q-8 10 -16 16l2 2
q21 -8 30.5 -16.5t3.5 -16.5t-8.5 -2.5t-7.5 11.5l-38 -3v-40q1 -16 -20 -20q-1 13 -27 16v3q18 0 26 -1t8 5v36q-35 -4 -48 -7l-5 13q12 2 33 12.5t29 17.5q-34 -3 -48 -10l-6 14q9 1 23 11.5t21 23.5zM101 139q0 -11 -4.5 -15.5t-12 -2t0 9.5t12.5 24h4v-9h51v18h-21
q-12 1 -23 -2l-8 9h52q0 9 -1 24l19 -7l-6 -6v-11h30l13 10l15 -17h-58v-18h51l9 8l13 -15q-9 -1 -30 -20l-3 2l12 18h-115z" />
  </g>

</svg>
