<?xml version="1.0" standalone="no"?>
<!DOCTYPE svg PUBLIC "-//W3C//DTD SVG 1.1//EN" "http://www.w3.org/Graphics/SVG/1.1/DTD/svg11.dtd" >
<svg xmlns="http://www.w3.org/2000/svg" xmlns:xlink="http://www.w3.org/1999/xlink" version="1.1" viewBox="0 -143 1024 1024">
  <g transform="matrix(1 0 0 -1 0 881)">
   <path fill="currentColor"
d="M469 794l31 32l41 -38q17 -14 17 -23q0 -5 -14 -7q-35 -7 -69 -49l-36 -49l-14 6l40 102h-354q1 -56 -17 -84t-39 -32t-30 8t-3 23t23 24t30 44t17 91h19q2 -35 1 -48h357zM198 966l8 12q62 -32 86 -54t30 -42t0 -36t-21 -20t-24 2t-11 31t-19 51t-49 56zM479 455h194
v142l73 -31q13 -5 13 -7q4 -7 -1 -11l-34 -15v-78h92l38 44l51 -45q14 -10 14 -15q0 -10 -12 -10h-183v-137h167l32 43l59 -51q5 -4 5 -5q4 -14 -9 -14h-254v-127l4 -69q0 -14 -22.5 -28.5t-36.5 -13.5l4 111v127h-190q-21 0 -45 -10l-20 37h255v137h-128q-21 0 -50 -8z
M501 929h312l32 36l60 -47q12 -5 4 -17q0 -1 -17 -6q-23 -11 -34 -31.5t-52.5 -78.5t-77.5 -95q37 -29 88 -52t94.5 -32.5t87.5 -10.5l2 -18q-29 0 -51.5 -9t-32.5 -33q-47 18 -106 52t-112 74q-53 -44 -119 -77t-149 -63l-6 16q67 30 132 69t114 85q-68 87 -104 183l14 4
q54 -86 118 -158q24 26 61 80t57 104l-261 -1h-5l-28 -6zM239 726l74 -20q8 -2 10 -11q0 -5 -34 -21v-184q44 44 107 130q62 -36 62 -43t-9 -8t-24 -5t-52 -34t-84 -67l-9 -123q50 -34 97 -71t63 -65t15 -51t-13 -31t-26 -4t-22 35t-48 83t-72 82q-9 -57 -68.5 -140.5
t-164.5 -137.5l-6 12q105 86 144 154t48.5 120.5t11.5 153.5v246zM142 580h17q7 -77 0 -123.5t-27 -68.5t-42 -21t-26 18t19 36t37 48.5t22 110.5z" />
  </g>

</svg>
