<?xml version="1.0" standalone="no"?>
<!DOCTYPE svg PUBLIC "-//W3C//DTD SVG 1.1//EN" "http://www.w3.org/Graphics/SVG/1.1/DTD/svg11.dtd" >
<svg xmlns="http://www.w3.org/2000/svg" xmlns:xlink="http://www.w3.org/1999/xlink" version="1.1" viewBox="0 -36 256 256">
  <g transform="matrix(1 0 0 -1 0 220)">
   <path fill="currentColor"
d="M75 217q0 14 -1 30l22 -7l-8 -8v-14h23l10 9l13 -16h-46v-15h43l7 9l14 -13q-12 -2 -25 -20l-3 2l8 15h-55l15 -7l-6 -4v-11l14 2l8 9l14 -12l-36 -6v-11q0 -6 7 -6h27q7 2 7 24h4q0 -20 8 -23q-5 -12 -19 -12h-30q-17 0 -17 13v13l-13 -2l-6 -4l-8 8l27 5v24h-32v-81
q-1 -64 -32 -101l-2 2q20 39 20 99v65q0 15 -1 32l18 -9h31v21zM173 203q0 24 -1 36l21 -8l-7 -7v-43h35l6 11l16 -11l-6 -6q-2 -70 -6 -96t-28 -32q-2 12 -25 19v5q21 -5 29 -4t11 21.5t4 85.5h-36q-1 -54 -14 -81t-44 -52l-2 4q22 24 33.5 50.5t13.5 78.5h-3q-11 0 -20 -2
l-9 9h32v22zM89 59q13 17 20 40h-38l-3 -5q11 -24 21 -35zM37 59q22 35 30 75l22 -9l-7 -5q-4 -6 -8 -14h47l10 11l16 -18h-24q-10 -29 -24 -48q19 -15 58.5 -19t89.5 0v-4q-17 -2 -21 -14q-56 0 -84.5 5.5t-52.5 22.5q-22 -18 -56 -30l-1 4q31 15 50 36q-11 16 -18 36
q-10 -16 -24 -31z" />
  </g>

</svg>
