<?xml version="1.0" standalone="no"?>
<!DOCTYPE svg PUBLIC "-//W3C//DTD SVG 1.1//EN" "http://www.w3.org/Graphics/SVG/1.1/DTD/svg11.dtd" >
<svg xmlns="http://www.w3.org/2000/svg" xmlns:xlink="http://www.w3.org/1999/xlink" version="1.1" viewBox="0 -205 1024 1024">
  <g transform="matrix(1 0 0 -1 0 819)">
   <path fill="currentColor"
d="M584 978l62 -24q6 -2 6 -10q0 -6 -14 -8q-12 -12 -24 -50h176l28 34l58 -48q7 -3 8 -12q0 -9 -38 -26l-48 -216h98l38 50l58 -56q3 -4 6 -10q0 -12 -12 -12h-276q-45 -35 -92 -70q64 -51 110 -122q116 83 166 140l58 -46q6 -7 6 -10q3 -9 -14 -12q-36 3 -66 -14
q-30 -18 -86 -48q29 -58 62 -106q30 -49 60 -74q29 -23 86 -34v-18q-41 -1 -58 -8q-18 -6 -32 -24q-33 33 -56 72q-22 35 -40 80q-18 42 -38 102l-38 -22q32 -67 38 -106q6 -37 6 -82t-12 -77q-12 -33 -36 -58q-24 -21 -84 -40q-13 35 -38 48t-82 34l4 18q102 -24 126 -24
q21 1 36 10q14 10 20 38q5 25 8 67t-14 114q-69 -66 -158 -134q-90 -65 -180 -107l-6 16q86 54 170 123q82 70 152 158q-10 27 -34 60q-55 -53 -100 -94q-45 -42 -122 -84l-8 12q63 57 102 96t102 108l-30 36q-87 -57 -204 -108l-4 18q158 92 244 172h-152q-8 1 -52 -10
l-26 38h344l20 98h-196l-28 -28l-54 48q21 8 36 26l58 216v0v0zM776 744l24 114h-196q-18 -63 -36 -114h208v0v0zM78 780l54 -28h72v228l76 -34q10 -6 2 -18l-26 -16v-160h58l26 34l54 -40q12 -9 4 -14l-22 -22v-232l4 -58q3 -15 -12 -26q-15 -12 -44 -14v46h-68v-220l94 22
q-24 44 -54 92l14 10q64 -60 86 -86q20 -24 26 -42q3 -16 -2 -34q-6 -16 -24 -20q-15 -4 -24 4q-7 7 -8 20t-4 32q-216 -66 -240 -75q-24 -10 -54 -32l-38 59l176 40v230h-74v-36q0 -12 -20 -24q-18 -12 -36 -12l4 72v354v0v0zM130 452h74v274h-74v-274v0v0zM256 726v-274
h68v274h-68v0v0z" />
  </g>

</svg>
