<?xml version="1.0" standalone="no"?>
<!DOCTYPE svg PUBLIC "-//W3C//DTD SVG 1.1//EN" "http://www.w3.org/Graphics/SVG/1.1/DTD/svg11.dtd" >
<svg xmlns="http://www.w3.org/2000/svg" xmlns:xlink="http://www.w3.org/1999/xlink" version="1.1" viewBox="0 -36 256 256">
  <g transform="matrix(1 0 0 -1 0 220)">
   <path fill="currentColor"
d="M175 17l-15 -7q1 15 1 208l-62 -4v5q45 5 77 11.5t46 14.5l14 -18q-10 0 -30 -3.5t-32 -4.5v-176q0 -18 1 -26zM144 201q-5 -5 -11 -20q15 -13 19 -18t4.5 -11.5t-3.5 -11.5t-7.5 7t-14.5 30q-10 -19 -16.5 -28t-18.5 -21l-2 4q14 19 21 37.5t10 40.5zM225 204
q-5 -3 -12 -21q15 -11 21 -16.5t7.5 -12t-3 -12.5t-9.5 7.5t-18 28.5q-7 -16 -13 -25t-18 -19l-3 2q9 12 17 32.5t11 45.5zM227 120q-6 -3 -13 -25q17 -25 34 -30v-4q-6 -1 -11 -11q-19 16 -27 38q-6 -12 -12.5 -21t-16.5 -18l-3 2q10 14 18.5 34.5t11.5 46.5zM143 122
q-6 -4 -12 -21q16 -12 20 -17.5t4.5 -12t-3.5 -12t-7.5 7t-15.5 30.5q-10 -19 -17 -28.5t-19 -20.5l-3 3q14 18 22 37t11 44zM22 9q1 42 1 119t-1 107l16 -9h38l7 9l15 -13l-6 -5q-13 -23 -28 -52q16 -13 23 -26t5.5 -25.5t-8.5 -19.5t-22 -11q-1 13 -21 18v4q12 -2 23 -2.5
t13 8t-0.5 21.5t-19.5 33l20 54h-40v-202z" />
  </g>

</svg>
