<?xml version="1.0" standalone="no"?>
<!DOCTYPE svg PUBLIC "-//W3C//DTD SVG 1.1//EN" "http://www.w3.org/Graphics/SVG/1.1/DTD/svg11.dtd" >
<svg xmlns="http://www.w3.org/2000/svg" xmlns:xlink="http://www.w3.org/1999/xlink" version="1.1" viewBox="0 -205 1024 1024">
  <g transform="matrix(1 0 0 -1 0 819)">
   <path fill="currentColor"
d="M880 878q-11 4 -34 2q-21 0 -56 -6q-36 -5 -96 -16v-112h180l32 46l56 -52q3 -3 4 -8q-1 -12 -16 -12h-256v-92h136l30 36l54 -44q6 -4 6 -8q0 -6 -30 -24v-178l4 -72q0 -12 -18 -20q-17 -8 -34 -10v32h-148v-114h140l30 46l58 -52q3 -4 4 -8q0 -12 -12 -12h-220v-125
h202l42 46l50 -54q3 -3 4 -6q10 -12 -6 -12h-548q-21 0 -68 -6l-16 32h288v125h-140q-21 0 -68 -8l-18 34h226v114h-136v-4q-1 -19 -16 -28q-15 -10 -38 -10l4 96v266l58 -32h128v92h-166q-19 0 -52 -8l-20 34h238v106q-124 -16 -232 -28l-4 20q134 26 254 52q120 23 196 50
l44 -52q7 -11 0 -16q-6 -3 -20 0v0v0zM506 364h136v106h-136v-106v0v0zM694 470v-106h148v106h-148v0v0zM506 494h136v110h-136v-110v0v0zM694 604v-110h148v110h-148v0v0zM318 790l34 46l58 -52q3 -3 4 -8q0 -12 -12 -12h-326q-18 1 -42 -10l-24 36h308v0v0zM58 634h218
l32 44l58 -50q2 -3 2 -8q0 -12 -12 -12h-208q-37 0 -68 -8l-22 34v0v0zM74 414l60 -44h144l28 34l60 -44q6 -6 6 -8q-1 -6 -34 -30v-146l4 -81q1 -12 -16 -24q-15 -12 -36 -16v82h-166v-62q0 -18 -18 -30q-18 -13 -36 -14l4 119v264v0v0zM124 162h166v182h-166v-182v0v0z
M112 972l10 10q84 -55 102 -82q19 -27 18 -48q0 -22 -12 -32q-13 -11 -28 -6q-16 3 -20 22q-2 19 -10 44q-6 25 -60 92v0v0zM58 502h218l30 46l60 -52q2 -3 2 -8q0 -12 -12 -12h-222q-34 0 -58 -8l-18 34v0v0z" />
  </g>

</svg>
