<?xml version="1.0" standalone="no"?>
<!DOCTYPE svg PUBLIC "-//W3C//DTD SVG 1.1//EN" "http://www.w3.org/Graphics/SVG/1.1/DTD/svg11.dtd" >
<svg xmlns="http://www.w3.org/2000/svg" xmlns:xlink="http://www.w3.org/1999/xlink" version="1.1" viewBox="0 -36 256 256">
  <g transform="matrix(1 0 0 -1 0 220)">
   <path fill="currentColor"
d="M41 191h52l8 9l13 -12l-7 -5v-28l-14 -4v4h-52v-2l-13 -3v47zM149 192h48l7 10l17 -12l-9 -5v-28l-14 -3v2h-49v-1l-14 -4v46zM149 185v-22h49v22h-49zM42 184v-22h51v22h-51zM31 28h74l10 9l14 -16h-97l-8 -6l-14 12l7 4q2 27 3 61l15 -7h70v49h-63q-5 1 -16 -1l-10 8
h88l9 11l13 -14l-8 -5v-31q0 -11 2 -24l-15 -6v6h-71zM53 118q-2 0 -13 -2l-11 9h48l7 6l11 -13h-29v-17h15l8 7l11 -14h-45q-11 0 -22 -2l-11 9h31v19v-2zM68 62q-5 0 -15 -2l-10 9h48l7 6l10 -13h-30v-18h17l9 8l10 -15h-45q-11 0 -22 -2l-11 9h32v18zM147 94
q10 -25 26 -41q12 15 19 46l19 -11l-7 -4q-8 -24 -20 -40q28 -16 64 -20v-4q-13 0 -18 -12q-37 12 -55 26q-30 -20 -70 -26l-2 3q42 15 61 33q-17 24 -21 49zM167 122q-20 11 -36 19l2 4q24 -7 43 -15q12 10 24 26l16 -13l-9 -2q-8 -8 -20 -16q32 -13 37.5 -20t0.5 -14.5
t-11 0t-35 25.5q-19 -12 -51 -22l-2 4q26 12 41 24zM124 214h-39q0 -6 1 -15l-16 -4q1 10 1 19h-26l-22 -2l-10 9h58q0 17 -1 25l21 -7l-6 -3v-15h14l11 8zM128 222h34q0 15 -1 23l22 -7l-7 -6v-10h35l13 9l14 -16h-62q0 -4 1 -15l-16 -5q1 16 1 20h-12q-7 2 -15 -2z" />
  </g>

</svg>
