<?xml version="1.0" standalone="no"?>
<!DOCTYPE svg PUBLIC "-//W3C//DTD SVG 1.1//EN" "http://www.w3.org/Graphics/SVG/1.1/DTD/svg11.dtd" >
<svg xmlns="http://www.w3.org/2000/svg" xmlns:xlink="http://www.w3.org/1999/xlink" version="1.1" viewBox="0 -36 256 256">
  <g transform="matrix(1 0 0 -1 0 220)">
   <path fill="currentColor"
d="M142 227v-26h2l10 11l18 -18h-30v-6q16 -6 21 -11t0 -13.5t-8 1t-13 19.5q0 -21 1 -42l-14 -9q1 22 1 39q-15 -24 -40 -40l-2 4q27 24 39 58h-12l-11 -3l-10 10h36v25l-32 -4v5q15 2 33 7t28 11l11 -15q-14 0 -28 -3zM221.5 156q4.5 2 5.5 9t1 45h-12q-4 -29 -40 -63
l-3 2q27 36 30 61h-14q-8 -19 -18 -35l-4 1q7 20 10.5 35.5t5.5 33.5l18 -7q-3 -3 -6 -8.5t-5 -12.5h38l5 9l13 -12l-6 -5q1 -49 -2.5 -58t-16.5 -15q-1 11 -20 16v4q16 -2 20.5 0zM132 102.5q-19 -13.5 -45 -23.5l-2 5q22 10 44 29t33 43l19 -13l-7 -4q34 -37 73 -41v-4
q-16 -3 -15 -13q-17 9 -34.5 23.5t-28.5 31.5q-18 -20 -37 -33.5zM162 118l21 -9l-7 -8v-31q24 13 33 25l13 -15q-10 -1 -24.5 -6t-20.5 -8q45 -14 52.5 -22t5.5 -16t-13.5 3.5t-45.5 30.5v-29q1 -15 -17 -24q-2 14 -23 19v4q13 -1 19.5 -1t7.5 9v45q0 14 -1 33zM129.5 41.5
q-18.5 -12.5 -23.5 -20.5l-11 17q10 2 30.5 11t32.5 15l2 -4q-12 -6 -30.5 -18.5zM121 96q26 -11 26.5 -19.5t-3.5 -13t-8.5 6.5t-16.5 23zM68 234l-6 -7v-65q16 22 20 38l15 -14q-7 -3 -14 -10l-21 -21q0 -25 -3 -61q20 -11 27.5 -21.5t5 -20t-5.5 -8.5t-8 14.5t-20 30.5
q-10 -54 -48 -81l-2 2q27 34 34 66t6.5 73.5t-1.5 96.5zM29.5 139.5q-4.5 -9.5 -10 -11.5t-9 3.5t4.5 13.5t15 35h4q0 -31 -4.5 -40.5z" />
  </g>

</svg>
