<?xml version="1.0" standalone="no"?>
<!DOCTYPE svg PUBLIC "-//W3C//DTD SVG 1.1//EN" "http://www.w3.org/Graphics/SVG/1.1/DTD/svg11.dtd" >
<svg xmlns="http://www.w3.org/2000/svg" xmlns:xlink="http://www.w3.org/1999/xlink" version="1.1" viewBox="0 -52 256 256">
  <g transform="matrix(1 0 0 -1 0 204)">
   <path fill="currentColor"
d="M100 233l9 -13h26q8 11 11 17q6 12 1 15l2 1l18 -9l1 -2q-1 -1 -2 -1q-2 1 -7 -2q-9 -9 -17 -19h69l8 9l12 -11q2 -1 2 -2t-3 -3l-4 -2v-71v-34q0 -8 -12 -11l1 24l1 21v75h-106v-99l1 -14q1 -9 -13 -11q2 9 2 36v93q-1 4 -3 9l-1 1zM148 100l20 -6q5 -3 2 -4q-3 0 -7 -3
q-1 -6 -3 -11h61l8 11l16 -13q3 -2 3 -3t-4 0h-73q9 -12 15 -21q15 -17 34 -23q8 -2 24 -4h6v-4q-2 0 -5 -1q-9 0 -11 -2q-2 -1 -5 -7q-31 12 -45 32q-9 12 -18 30h-7q-11 -31 -31 -43q-26 -18 -59 -21v4q34 7 55 27q16 12 23 33h-47q-6 0 -11 -4l-8 9h68q2 6 3 13
q-1 5 -5 9zM185 201l16 -6q2 -1 2 -2t-2 -2q-1 0 -3 -1q-2 0 -3 -1q-6 -11 -16 -24h13l4 9l13 -9q3 -1 2 -2q0 -1 -4 -2h-40v-7q18 -6 25 -13q18 -15 9 -23q-5 -1 -8 5q-3 8 -10 14q-5 6 -16 12v-22l1 -14q1 -9 -11 -11q2 9 2 37v22h-5q-6 -18 -13 -30q-9 -12 -26 -25l-2 3
q14 14 21 27q9 13 11 25h-12q-5 1 -11 -3l-8 7h45v34q0 5 -6 9l1 3l20 -6q2 -1 2 -2l-1 -1q-5 -2 -8 -5v-32h7q5 7 9 20l1 1q3 9 3 10q-1 1 -3 4zM127 201q19 -11 21 -24q0 -7 -4 -8t-5 5t-4 12q-2 6 -11 13zM62 142v-98l33 23l2 -3q-3 -3 -10 -9q-20 -17 -23 -21
q-6 -8 -10 -15l-10 12q6 3 8 9v105h-31q-4 -1 -7 -4l-9 9h46l7 9l10 -10q2 -2 1 -2q0 -1 -2 -2zM30 240l2 4q29 -13 37 -27q6 -14 -3 -17q-4 -1 -6 7t-10 17q-7 8 -20 16z" />
  </g>

</svg>
