<?xml version="1.0" standalone="no"?>
<!DOCTYPE svg PUBLIC "-//W3C//DTD SVG 1.1//EN" "http://www.w3.org/Graphics/SVG/1.1/DTD/svg11.dtd" >
<svg xmlns="http://www.w3.org/2000/svg" xmlns:xlink="http://www.w3.org/1999/xlink" version="1.1" viewBox="0 -36 256 256">
  <g transform="matrix(1 0 0 -1 0 220)">
   <path fill="currentColor"
d="M99 198.5q5 -5.5 4.5 -16t-6.5 -3t-33 33.5q-12 -23 -25 -42t-30 -33l-2 4q18 22 35 56.5t17 47.5l20 -12q-6 -2 -14 -17q29 -13 34 -18.5zM76 162l11 9l13 -16h-45q-10 0 -19 -2l-9 9h49zM29 61.5q0 23.5 -1 50.5l14 -8h41l7 8l12 -13l-7 -6v-41q0 -15 1 -27l-14 -6v13
h-41v-12l-13 -8q1 26 1 49.5zM41 39h41v58h-41v-58zM77 132l12 9l13 -16h-50q-10 0 -19 -2l-9 9h53zM156 245l19 -8l-5 -7v-10h27l11 11l14 -18h-52v-20h49l10 10l12 -18q-8 1 -14.5 -3.5t-12.5 -11.5l-3 2l8 14h-62l17 -8l-6 -5v-10l21 5l7 9l13 -12l-41 -8v-10q0 -8 9 -7
h30q8 0 12.5 3t12.5 -2q-4 -11 -19 -11h-41q-16 0 -16 14v11q-15 -3 -19 -7l-8 8l27 5q0 15 -1 25h-28v-70q-1 -72 -37 -109l-2 2q25 39 27 98v32q0 33 -1 60l13 -6h30q0 28 -1 52zM217 128l13 -15q-12 0 -41 -3v-21h20l11 11l14 -18h-45v-18h35l11 9l13 -16h-59v-22
q1 -22 -17 -27q-3 13 -30 18v3q22 -1 28 -1.5t6 8.5v21h-28q-10 0 -19 -2l-9 9h56v18h-19q-10 0 -19 -2l-9 9h47v20q-17 -1 -42 -3v4q63 7 83 18z" />
  </g>

</svg>
