<?xml version="1.0" standalone="no"?>
<!DOCTYPE svg PUBLIC "-//W3C//DTD SVG 1.1//EN" "http://www.w3.org/Graphics/SVG/1.1/DTD/svg11.dtd" >
<svg xmlns="http://www.w3.org/2000/svg" xmlns:xlink="http://www.w3.org/1999/xlink" version="1.1" viewBox="0 -36 256 256">
  <g transform="matrix(1 0 0 -1 0 220)">
   <path fill="currentColor"
d="M76 220q25 -11 36 -17.5t8 -19.5t-12.5 1t-34.5 32q-22 -43 -62 -75l-3 3q24 25 42 58.5t18 43.5l21 -13q-6 -1 -13 -13zM109 115q0 -21 1 -35l-14 -8v7h-50v-47l45 18q-4 8 -13 23l3 2q22 -18 28.5 -28t0 -19.5t-10 0t-6.5 18.5q-50 -30 -53 -38l-11 16q4 6 4 13v77
q0 25 -1 45l15 -10h49l6 10l15 -15l-8 -7v-22zM46 118h50v24h-50v-24zM46 86h50v25h-50v-25zM183.5 225q23.5 8 37.5 17l12 -20q-9 1 -38.5 -5t-71.5 -10v4q37 6 60.5 14zM186.5 184q2.5 -8 -3.5 -17t-8.5 3.5t-13.5 33.5l1 2q22 -14 24.5 -22zM125 22l-11 13
q11 10 18.5 14.5t26.5 33.5t43 67h-45q-10 0 -19 -2l-9 9h76l9 12l13 -17l-10 -4q-41 -60 -69 -97q14 -16 38.5 -18.5t60.5 3.5v-4q-16 -5 -17 -17q-27 0 -48.5 5t-37.5 27q-14 -13 -19 -25zM81 176l12 11l13 -18h-43q-11 0 -13 -2l-4 9h35z" />
  </g>

</svg>
