<?xml version="1.0" standalone="no"?>
<!DOCTYPE svg PUBLIC "-//W3C//DTD SVG 1.1//EN" "http://www.w3.org/Graphics/SVG/1.1/DTD/svg11.dtd" >
<svg xmlns="http://www.w3.org/2000/svg" xmlns:xlink="http://www.w3.org/1999/xlink" version="1.1" viewBox="0 -205 1024 1024">
  <g transform="matrix(1 0 0 -1 0 819)">
   <path fill="currentColor"
d="M160 964l78 -32q6 -3 6 -6q1 -7 -4 -10l-30 -12v-318l4 -78q0 -16 -20 -28q-21 -14 -38 -12l4 118v378v0v0zM412 974l60 -44h320l32 44l66 -44q6 -6 6 -8q-1 -7 -34 -32v-260l4 -96q-1 -18 -16 -30q-12 -12 -42 -14v52h-344v-14q0 -22 -20 -34q-18 -10 -36 -10l4 130v360
v0v0zM464 570h344v144h-344v-144v0v0zM464 742h344v160h-344v-160v0v0zM330 482l84 -28q3 -4 4 -8q-1 -3 -34 -24q-4 -121 -34 -190q-27 -67 -104 -119q-77 -54 -214 -90l-4 16q117 48 180 92q62 40 94 107q30 66 28 244v0v0zM586 482l84 -32q6 -3 6 -8q0 -3 -6 -8l-32 -12
v-274q-1 -30 14 -33q12 -3 24 -4h200q42 12 48 31q3 20 6 46q2 26 4 112h20q5 -84 10 -114q3 -28 34 -47q-12 -29 -36 -50q-24 -19 -74 -26h-224q-28 0 -46 8q-18 6 -26 24q-6 18 -6 51v336v0v0z" />
  </g>

</svg>
