<?xml version="1.0" standalone="no"?>
<!DOCTYPE svg PUBLIC "-//W3C//DTD SVG 1.1//EN" "http://www.w3.org/Graphics/SVG/1.1/DTD/svg11.dtd" >
<svg xmlns="http://www.w3.org/2000/svg" xmlns:xlink="http://www.w3.org/1999/xlink" version="1.1" viewBox="0 -36 256 256">
  <g transform="matrix(1 0 0 -1 0 220)">
   <path fill="currentColor"
d="M66 224.5q7 -8.5 1.5 -17.5t-11.5 2.5t-26 28.5l1 3q28 -8 35 -16.5zM10 184q34 -12 36 -22t-4 -15t-9.5 6t-23.5 28zM39 87q7 4 43 115l6 -1q-28 -95 -32.5 -107.5t-5.5 -24t1 -36.5t-9.5 -20t-8.5 23t3 28.5t-24 16.5v4q20 -2 27 2zM111 128h98v38h-98v-38zM111 82h98
v39h-98v-39zM111 35h98v40h-98v-40zM96 102.5q0 48.5 -1 79.5l16 -9h21q14 28 16 48h-39q-13 0 -22 -3l-10 10h142l10 11l18 -18h-89l13 -5l-9 -6q-14 -24 -23 -37h69l9 12l16 -12l-8 -9v-91v-55l-16 -7v17h-98v-13l-16 -6q1 45 1 93.5z" />
  </g>

</svg>
