<?xml version="1.0" standalone="no"?>
<!DOCTYPE svg PUBLIC "-//W3C//DTD SVG 1.1//EN" "http://www.w3.org/Graphics/SVG/1.1/DTD/svg11.dtd" >
<svg xmlns="http://www.w3.org/2000/svg" xmlns:xlink="http://www.w3.org/1999/xlink" version="1.1" viewBox="0 -154 1024 1024">
  <g transform="matrix(1 0 0 -1 0 870)">
   <path fill="currentColor"
d="M720 815l85 -36q14 -5 6 -11q-21 -8 -30 -21v-381l2 -57q2 -38 -49 -44q5 37 7 148v344q2 16 -30 46zM894 920q-1 22 -26 46l8 11l86 -38q19 -8 7 -14q-18 -5 -31 -17v-763q2 -70 -15 -90t-85 -36q-3 29 -26 41q-22 11 -87 31l4 16l42 -11q127 -34 123 47v777zM71 847
l4 14q80 -37 105 -89q18 -57 -17 -59q-13 1 -20 28q-5 29 -22 54q-16 24 -50 52zM430 677h-88v-122h88v122zM471 555h89v122h-89v-122zM430 541h-88v-125h88v125zM560 541h-89v-125h89v125zM87 40l-42 39q48 37 77 61q10 8 21 11v355h-35q-18 2 -29 -11l-27 31h84l30 28
l34 -36q14 -12 -5 -16l-14 -9v-351q26 -16 39 -28q16 -11 46 -21q32 -12 109 -16h82h125q77 1 128 0v-15q-64 11 -84 -30h-176q-143 4 -192 28q-46 25 -74 51q-26 28 -45 8q-17 -20 -29 -30q-11 -11 -23 -49zM406 990l89 -36q15 -5 7 -11q-22 -8 -31 -21v-94h103l32 44
l63 -53q17 -8 -7 -8h-191v-118h67l42 38l42 -46q15 -8 -6 -13l-19 -10v-208l2 -65q2 -35 -39 -33v43h-89v-122h113l39 47l67 -55q20 -9 -6 -9h-213v-99l2 -25q2 -40 -51 -46q6 39 8 117v53h-114q-29 1 -47 -13l-37 30h198v122h-88v-6q3 -41 -47 -45q5 38 7 134v194
q-3 22 -17 39l14 11l29 -33h102v118h-114q-29 1 -47 -13l-37 30h198v104q1 15 -33 46z" />
  </g>

</svg>
