<?xml version="1.0" standalone="no"?>
<!DOCTYPE svg PUBLIC "-//W3C//DTD SVG 1.1//EN" "http://www.w3.org/Graphics/SVG/1.1/DTD/svg11.dtd" >
<svg xmlns="http://www.w3.org/2000/svg" xmlns:xlink="http://www.w3.org/1999/xlink" version="1.1" viewBox="0 -205 1024 1024">
  <g transform="matrix(1 0 0 -1 0 819)">
   <path fill="currentColor"
d="M392 902q9 -3 10 -8q0 -4 -8 -10q-40 -9 -56 -42q-42 -93 -72 -152l34 -18q7 -3 8 -8q0 -6 -26 -20v-464l4 -97q-1 -15 -22 -28q-22 -11 -40 -10l4 131v444q-72 -133 -186 -244l-10 10q135 186 198 334q62 147 80 226l82 -44v0v0zM892 720l76 -50q6 -5 6 -10
q0 -9 -14 -12l-330 -32q8 -123 28 -192q17 -69 56 -132t84 -96q45 -34 72 -46q28 -11 38 -11t14 29q3 30 18 166h18q-2 -98 0 -136q2 -39 10 -69q6 -30 16 -42q10 -9 8 -18q-1 -8 -10 -10q-9 -1 -38 4q-28 6 -64 20q-37 12 -98 54q-60 39 -110 123q-52 81 -70 166
q-19 84 -26 186l-192 -16q-21 -6 -36 -12l-30 36l254 20v314q90 -36 94 -42q4 -5 2 -10q-4 -3 -40 -18v-240l236 20l28 56v0v0zM722 904q84 -39 112 -62q28 -24 38 -44q8 -21 2 -42q-7 -21 -28 -24q-22 0 -28 18q-6 17 -20 50q-15 33 -84 90l8 14v0v0z" />
  </g>

</svg>
