<?xml version="1.0" standalone="no"?>
<!DOCTYPE svg PUBLIC "-//W3C//DTD SVG 1.1//EN" "http://www.w3.org/Graphics/SVG/1.1/DTD/svg11.dtd" >
<svg xmlns="http://www.w3.org/2000/svg" xmlns:xlink="http://www.w3.org/1999/xlink" version="1.1" viewBox="0 -205 1024 1024">
  <g transform="matrix(1 0 0 -1 0 819)">
   <path fill="currentColor"
d="M548 956q81 -34 84 -40t0 -8q-4 -3 -34 -20v-324h44l28 38l44 -44q3 -6 4 -12q-3 -6 -6 -6h-114v-332l98 44l10 -22q-207 -98 -246 -121q-36 -24 -48 -54l-54 64l68 27v572q68 -31 76 -38q6 -5 4 -10q-4 -6 -34 -18v-494l76 32v766v0v0zM732 966l90 -34q9 -10 -2 -16
l-38 -14v-340q87 59 138 128q57 -51 54 -60q0 -9 -6 -8h-16q-13 -1 -34 -10q-19 -9 -136 -78v-405q0 -33 12 -36q12 -2 28 -2h56q23 2 34 10q12 6 18 32q5 22 8 157h22q1 -116 8 -136q8 -21 28 -33q-7 -27 -26 -48q-18 -18 -32 -22q-14 -3 -40 -6h-76q-27 1 -48 4t-32 20
q-10 16 -10 58v839v0v0zM322 790l34 46l58 -52q3 -3 4 -8q0 -12 -12 -12h-334q-18 1 -42 -10l-24 36h316v0v0zM46 658h242l32 44l58 -50q2 -3 2 -8q0 -12 -12 -12h-232q-37 0 -68 -8l-22 34v0v0zM74 438l60 -44h146l26 34l60 -44q6 -6 6 -8q0 -6 -32 -30v-146l4 -81
q1 -12 -16 -24q-15 -12 -36 -16v81h-168v-61q0 -18 -18 -30q-18 -14 -36 -14l4 119v264v0v0zM124 186h168v182h-168v-182v0v0zM120 972l10 10q84 -55 102 -82q19 -27 18 -48q0 -22 -12 -32q-13 -11 -28 -6q-16 3 -20 22q-2 19 -10 44q-6 25 -60 92v0v0zM46 526h242l30 46
l60 -52q2 -3 2 -8q0 -12 -12 -12h-246q-34 0 -58 -8l-18 34v0v0z" />
  </g>

</svg>
