<?xml version="1.0" standalone="no"?>
<!DOCTYPE svg PUBLIC "-//W3C//DTD SVG 1.1//EN" "http://www.w3.org/Graphics/SVG/1.1/DTD/svg11.dtd" >
<svg xmlns="http://www.w3.org/2000/svg" xmlns:xlink="http://www.w3.org/1999/xlink" version="1.1" viewBox="0 -36 256 256">
  <g transform="matrix(1 0 0 -1 0 220)">
   <path fill="currentColor"
d="M171 30v69h-20v-69h20zM205.5 128.5q3.5 0.5 8 14.5t6.5 44h-26l-5 -5l10 -14l-7 -1q-9 -11 -17 -18q17 -10 15 -18q12 -3 15.5 -2.5zM205 30v69h-21v-69h21zM139 30v69h-21v-69h21zM189 128q-3 -9 -7 -3t-13 15q-13 -13 -41 -24l-1 3q20 12 35 29q-7 7 -17 13l1 3
q10 -3 21 -10q10 11 11 15h-2q-13 0 -25 -3l-9 10h37l6 5l-10 10l6 5q4 11 9 27h-44q-2 -72 -51 -112l-3 2q39 45 41 110q-9 1 -21 -4l-9 11h87l8 8l14 -13l-8 -4q-6 -15 -10 -27h25l9 8l12 -12l-7 -6q-5 -46 -11 -57t-20 -15q-1 10 -13 16zM105 114l14 -8h84l7 8l15 -11
l-7 -6v-67h3l13 10l13 -17h-135q-10 0 -20 -2l-9 9h23q0 66 -1 84zM68 30.5q9 -0.5 8 19.5v62h-34q1 -30 -5.5 -55.5t-25.5 -46.5l-3 2q11 22 16 43.5t5 60.5v73.5t-1 49.5l14 -9h33l7 10l14 -13l-7 -6v-182q0 -12 -5 -20.5t-13 -10.5q-1 14 -26 20v5q14 -2 23 -2.5zM42 173
h34v50h-34v-50zM42 119h34v47h-34v-47z" />
  </g>

</svg>
