<?xml version="1.0" standalone="no"?>
<!DOCTYPE svg PUBLIC "-//W3C//DTD SVG 1.1//EN" "http://www.w3.org/Graphics/SVG/1.1/DTD/svg11.dtd" >
<svg xmlns="http://www.w3.org/2000/svg" xmlns:xlink="http://www.w3.org/1999/xlink" version="1.1" viewBox="0 -36 256 256">
  <g transform="matrix(1 0 0 -1 0 220)">
   <path fill="currentColor"
d="M83 82q0 -23 1 -36l-13 -6v14h-40v-16l-13 -6q1 20 1 29v135q0 18 -1 34l13 -7h40l6 8l13 -12l-7 -6v-131zM31 169h40v47h-40v-47zM31 116h40v46h-40v-46zM31 61h40v48h-40v-48zM168 154l-13 -5v10h-12v-33h13l10 10l13 -17h-68l-8 -6l-10 14l7 4v70q0 22 -1 40l13 -7h42
l10 9l13 -16h-34v-26h11l8 9l12 -13l-7 -5q0 -21 1 -38zM112 166h43v28h-43v-28zM112 126h19v33h-19v-33zM112 201h19v26h-19v-26zM210 232q-6 -23 -13 -41h29l10 11l12 -18h-53q-9 -24 -25 -42l-3 1q13 25 20.5 50.5t11.5 52.5l19 -11zM118 90v-64h19v64h-19zM149 26h21v64
h-21v-64zM182 26h20v64h-20v-64zM106 66q0 22 -1 39l13 -8h84l8 9l13 -14l-9 -7v-59h9l10 12l15 -19h-147q-10 0 -19 -2l-9 9h33v40zM219 139l11 11l13 -18h-40q-8 0 -16 -3l-9 10h41z" />
  </g>

</svg>
