<?xml version="1.0" standalone="no"?>
<!DOCTYPE svg PUBLIC "-//W3C//DTD SVG 1.1//EN" "http://www.w3.org/Graphics/SVG/1.1/DTD/svg11.dtd" >
<svg xmlns="http://www.w3.org/2000/svg" xmlns:xlink="http://www.w3.org/1999/xlink" version="1.1" viewBox="0 -36 256 256">
  <g transform="matrix(1 0 0 -1 0 220)">
   <path fill="currentColor"
d="M38.5 130.5q-5.5 -13.5 -14 -15.5t-11 5t9.5 20.5t16 44.5h4q1 -41 -4.5 -54.5zM52 242l23 -13l-8 -7v-167q0 -22 1 -36l-16 -9q1 35 1 56v124q0 29 -1 52zM91.5 173.5q5.5 -9.5 4 -17.5t-7.5 -8.5t-8 13t-11 33.5l3 2q14 -13 19.5 -22.5zM170.5 86q9.5 38 16.5 83t7 65
l24 -9q-9 -9 -15.5 -43t-15 -72t-17.5 -62l54 7q-4 21 -20 51l3 2q34 -45 36.5 -61.5t-4.5 -21t-9.5 2.5t-4.5 22q-22 -4 -38 -8.5t-24 -11.5l-11 17q9 1 18.5 39zM107 176l15 -7h20v52h-24q-10 0 -19 -2l-8 9h48l9 9l16 -14l-8 -4v-35q0 -15 1 -21l-15 -9v8h-22
q-3 -37 -4 -43h25l8 10l16 -15l-8 -4q-7 -62 -11 -72t-10.5 -13.5t-18.5 -6.5q0 13 -22 23v4q14 -4 24.5 -6.5t14 7t9.5 65.5h-26l-7 -9l-13 14l6 4q3 16 4 56z" />
  </g>

</svg>
