<?xml version="1.0" standalone="no"?>
<!DOCTYPE svg PUBLIC "-//W3C//DTD SVG 1.1//EN" "http://www.w3.org/Graphics/SVG/1.1/DTD/svg11.dtd" >
<svg xmlns="http://www.w3.org/2000/svg" xmlns:xlink="http://www.w3.org/1999/xlink" version="1.1" viewBox="0 -205 1024 1024">
  <g transform="matrix(1 0 0 -1 0 819)">
   <path fill="currentColor"
d="M990 284h-458v-6q0 -11 -18 -22q-17 -10 -34 -10l4 104v346q-50 -81 -100 -144l-14 12q42 68 90 172q47 104 80 224l74 -38l6 -6q1 -7 -10 -10q-15 -3 -26 -14q-9 -9 -54 -108h352l44 48l60 -58l4 -8q-1 -7 -10 -8h-224v-128h112l38 46l60 -58q3 -1 4 -8q-4 -6 -8 -6
h-206v-134h124l34 48l56 -54q0 -4 4 -8q-3 -12 -6 -12h-212v-134h138l34 46l62 -56q3 -4 4 -8l-4 -8v0v0zM532 310h174v134h-174v-134v0v0zM706 470v134h-174v-134h174v0v0zM706 630v128h-174v-128h174v0v0zM658 952l8 12q60 -31 84 -52t30 -44q7 -21 2 -38q-3 -15 -18 -20
q-14 -6 -28 4q-12 9 -14 24q-1 15 -10 42t-54 72v0v0zM462 234h18q7 -72 0 -111q-6 -41 -24 -64q-16 -19 -38 -26q-21 -6 -32 2q-10 7 -14 20q-3 15 16 26q17 13 32 28q12 16 24 41q9 27 18 84v0v0zM834 236l10 12q96 -72 118 -108q22 -34 20 -59q-2 -24 -16 -34
q-15 -9 -30 -4q-15 6 -18 32q-3 27 -20 67q-16 39 -64 94v0v0zM552 236l14 6q54 -52 72 -88q18 -34 12 -59q-6 -23 -20 -34q-12 -10 -30 -2q-19 6 -14 32q6 28 0 59q-7 32 -34 86v0v0zM344 776l38 44l56 -50q3 -3 4 -8q0 -12 -12 -12h-314q-18 0 -66 -8l-18 34h312v0v0z
M64 652h236l32 44l54 -50q2 -3 2 -8q0 -12 -12 -12h-224q-22 0 -70 -8l-18 34v0v0zM100 416l56 -38h146l26 38l58 -46q6 -4 6 -8q0 -6 -30 -26v-140l4 -63q0 -12 -20 -24q-18 -11 -32 -14v59h-164v-61q0 -15 -20 -30q-17 -13 -34 -14l4 121v246v0v0zM150 180h164v172h-164
v-172v0v0zM164 962l10 10q72 -45 90 -72t16 -50q-3 -21 -14 -32q-13 -9 -28 -6t-18 24q0 17 -8 44q-6 24 -48 82v0v0zM72 524h236l32 44l54 -50q2 -3 2 -8q0 -12 -12 -12h-224q-22 0 -70 -8l-18 34v0v0zM692 236l14 6q66 -51 90 -90q21 -35 16 -57q-3 -18 -18 -30
q-13 -10 -28 -2q-16 6 -16 32q-1 24 -10 55q-9 29 -48 86v0v0z" />
  </g>

</svg>
