<?xml version="1.0" standalone="no"?>
<!DOCTYPE svg PUBLIC "-//W3C//DTD SVG 1.1//EN" "http://www.w3.org/Graphics/SVG/1.1/DTD/svg11.dtd" >
<svg xmlns="http://www.w3.org/2000/svg" xmlns:xlink="http://www.w3.org/1999/xlink" version="1.1" viewBox="0 -205 1024 1024">
  <g transform="matrix(1 0 0 -1 0 819)">
   <path fill="currentColor"
d="M264 758q33 -29 45 -44q10 -9 9 -15q-2 -6 -11 -2q-21 4 -51 -41q-74 -98 -168 -174q-11 -8 -17 -1q-6 8 4 17q59 56 111 141t58 115q5 17 20 4zM733 730q5 6 17 -1q182 -103 192 -178q4 -20 -9 -50q-10 -24 -22 -24q-10 0 -13 19q-40 119 -163 221q-6 7 -2 13zM648 709
q0 -118 4 -197q-1 -9 -46 -39q-14 -9 -13 12q7 133 7 224v101h-172v-101q0 -118 4 -197q-1 -9 -46 -39q-14 -9 -13 12q7 133 7 224v101h-201q-42 -1 -73 -7q-9 -3 -10 6q-5 18 -20 31q-8 7 -4 11q4 3 11 -1q38 -9 84 -9h334q-1 70 -52 140q-5 7 1 13q6 5 16 -4
q86 -59 89 -98q0 -30 -21 -51h282q14 1 30 19l26 37q7 9 16 0q71 -63 70 -78q-2 -8 -15 -9h-295v-101zM515 74q-20 -22 -45 -29q-10 -2 -14 5q-5 11 -32 27q-27 15 -78 27q-12 2 -11 14q1 7 14 6q35 -1 81 -4q45 -3 55 3q3 4 3 17v190q-1 80 -4 129q-3 16 7 13
q57 -20 76 -30q12 -8 -3 -15q-11 -4 -17 -10q35 -69 75 -127q50 22 93 52q46 32 85 69q7 6 14 2q29 -22 48 -41q4 -5 1 -9t-10 -3q-10 1 -31 -6q-21 -9 -63 -31q-56 -29 -120 -51q8 -7 15 -14q53 -47 126 -77q68 -28 162 -40q16 -3 26 -4q7 -1 7 -8q-1 -7 -7 -8
q-21 -4 -40 -19q-22 -14 -32 -30q-7 -8 -17 -4q-114 49 -174 92q-55 39 -95 87q-38 46 -71 128l-1 5q-2 5 -6 4q-5 -2 -4 -6q4 -12 8 -28v-221q-2 -33 -21 -55zM348 381q7 0 11 3l24 30q4 4 8 4q4 -1 10 -5q26 -19 48 -41q10 -10 -2 -14q-23 -6 -32 -16q-8 -6 -21 -31
q-31 -64 -70 -104q-40 -42 -103 -78q-78 -43 -156 -67q-12 -3 -15 7q-1 11 9 14q99 41 153 75q65 45 93 85q36 52 52 107h-127q-27 0 -61 -7q-5 -1 -6 2q-13 19 -23 35q-6 10 7 7q61 -5 68 -6h133z" />
  </g>

</svg>
