<?xml version="1.0" standalone="no"?>
<!DOCTYPE svg PUBLIC "-//W3C//DTD SVG 1.1//EN" "http://www.w3.org/Graphics/SVG/1.1/DTD/svg11.dtd" >
<svg xmlns="http://www.w3.org/2000/svg" xmlns:xlink="http://www.w3.org/1999/xlink" version="1.1" viewBox="0 -205 1024 1024">
  <g transform="matrix(1 0 0 -1 0 819)">
   <path fill="currentColor"
d="M166 880h226l30 36l56 -46q6 -6 6 -8q-1 -6 -28 -30v-360l4 -80q-1 -21 -16 -32q-15 -12 -42 -14l2 116v390h-242v-390l4 -94q0 -13 -20 -28q-18 -15 -38 -14l4 122v474l54 -42v0v0zM320 766q18 -7 18 -10q0 -4 -38 -28v-156q-4 -130 -16 -212q100 -63 128 -84
q28 -22 44 -50q16 -26 12 -52q-3 -27 -26 -30q-22 -3 -28 18t-18 46q-12 24 -42 60q-29 35 -76 70q-17 -96 -76 -164q-59 -67 -154 -125l-12 12q63 43 120 111q53 66 74 138q20 71 22 250v232l68 -26v0v0zM602 688q15 -142 52 -244q36 -103 58 -124q39 74 54 158
q15 83 34 250h-180l-18 -40v0v0zM730 938q6 -3 6 -6q6 -12 -12 -14q-18 -9 -32 -18q-34 -90 -58 -144h260l32 42l60 -54q2 -1 2 -4q1 -10 -10 -10h-126q-24 -219 -48 -300t-66 -152q41 -51 98 -92q57 -42 150 -71v-16q-34 1 -58 -2t-44 -22q-112 76 -172 165
q-75 -87 -164 -137q-88 -50 -172 -80l-2 14q75 31 174 105q99 73 138 134q-85 141 -104 372q-54 -107 -90 -154l-12 8q74 158 110 260q35 99 62 214l78 -38v0v0z" />
  </g>

</svg>
