<?xml version="1.0" standalone="no"?>
<!DOCTYPE svg PUBLIC "-//W3C//DTD SVG 1.1//EN" "http://www.w3.org/Graphics/SVG/1.1/DTD/svg11.dtd" >
<svg xmlns="http://www.w3.org/2000/svg" xmlns:xlink="http://www.w3.org/1999/xlink" version="1.1" viewBox="0 -205 1024 1024">
  <g transform="matrix(1 0 0 -1 0 819)">
   <path fill="currentColor"
d="M32 878h288v118l80 -26q15 -6 0 -18l-28 -16v-58h252v114l84 -28q11 -5 2 -16l-34 -16v-54h206l44 50l62 -60q3 -3 4 -6q1 -10 -12 -10h-304v-30l4 -34q3 -15 -18 -26q-21 -12 -42 -12l4 68v34h-252v-38l4 -34q3 -15 -20 -26q-22 -12 -40 -12l4 74v36h-204q-24 0 -60 -8
l-24 34v0v0zM898 676l62 -58q2 -3 2 -8q3 -6 -6 -6h-302q9 -115 24 -182q15 -66 42 -132q69 93 114 204q59 -31 68 -38q6 -6 -2 -12q-7 -4 -14 -4q-6 1 -12 -4q-6 -4 -42 -64q-36 -59 -86 -124q21 -39 58 -80q35 -38 68 -59q30 -21 36 -16q6 4 16 38q8 32 22 115l18 -2
q-6 -78 -8 -109q-4 -30 2 -58q6 -27 16 -36q9 -8 10 -14q0 -4 -6 -8q-7 -3 -32 2q-24 4 -66 22q-39 18 -84 60q-45 41 -86 109q-155 -131 -340 -171l-6 12q191 72 320 197q-36 75 -54 156t-26 198h-446q-30 0 -48 -6l-14 32h504v108l74 -22q9 -6 10 -8l-2 -8l-30 -14v-56
h208l38 46v0v0zM700 752l6 12q63 -18 90 -36t30 -36q3 -17 -8 -28q-9 -13 -26 -10q-18 2 -24 22q-5 17 -22 38q-16 20 -46 38v0v0zM104 388h210v174l86 -24l4 -6q1 -7 -4 -10l-36 -18v-116h100l46 48l58 -52q3 -4 4 -10q0 -12 -12 -12h-196q0 -118 -50 -202
q-49 -80 -202 -147l-6 14q123 74 166 145q43 72 42 190h-132q-27 0 -62 -8l-16 34v0v0z" />
  </g>

</svg>
