<?xml version="1.0" standalone="no"?>
<!DOCTYPE svg PUBLIC "-//W3C//DTD SVG 1.1//EN" "http://www.w3.org/Graphics/SVG/1.1/DTD/svg11.dtd" >
<svg xmlns="http://www.w3.org/2000/svg" xmlns:xlink="http://www.w3.org/1999/xlink" version="1.1" viewBox="0 -120 1000 1000">
  <g transform="matrix(1 0 0 -1 0 880)">
   <path fill="currentColor"
d="M671 536q56 157 88 424l66 -27q19 -8 19 -20q0 -9 -14 -13l-14 -4l-9 -38q-14 -57 -27 -108h79l30 45l67 -53v-20h-185q-32 -110 -83 -197zM938 294l-5 -96v-7q0 -31 9 -41q9 -11 23 -19q-11 -50 -59 -52h-147q-57 0 -57 59q0 24 41 173l60 214h-86l-7 27h98l26 31
l34 -28q22 -18 22 -25q0 -8 -8 -11q-4 -1 -20 -2q-103 -328 -103 -365q0 -17 18 -17h78q24 -3 35 45l23 114h25zM39 568q79 156 131 385l79 -28q11 -4 11 -15q0 -9 -14 -12l-23 -6l-24 -65h69l19 26l62 -36q13 -8 13 -14q0 -8 -14 -13l-26 -10l-72 -103h43l22 31l50 -38
q10 -7 10 -15q0 -7 -12 -11l-14 -5v-327l-56 -12v31h-149v-42l-56 -11v328l-39 -49zM186 799q-13 -34 -52 -116l13 -6h73q22 59 43 122h-77zM144 487v-129h49v129h-49zM144 650v-136h49v136h-49zM245 487v-129h48v129h-48zM245 650v-136h48v136h-48zM107 249q17 -60 17 -117
q0 -75 -45 -75q-14 0 -22 8q-7 7 -7 16q0 6 20 54q16 52 22 113zM160 255q23 -31 37 -67q15 -40 15 -69q0 -34 -21 -46q-8 -4 -17 -4q-20 0 -20 27q0 4 6 43q2 12 2 26q0 35 -15 87zM232 262q70 -76 70 -131q0 -21 -14 -35q-9 -8 -20 -8q-23 0 -23 33v8q1 10 1 15
q0 47 -26 113zM290 270q39 -21 64 -48q34 -38 34 -75q0 -18 -11 -28q-6 -6 -16 -6q-14 0 -19 12q-2 4 -10 39q-10 40 -51 98zM358 276h141v120h-41v-40l-57 -12v361l64 -28h34v92h-110l-16 27h126v154l76 -11q17 -2 17 -11q0 -6 -17 -14l-18 -7v-111h45l32 44l64 -48v-23
h-141v-92h38l21 32l58 -38q11 -8 11 -15t-10 -11l-18 -7v-262l-56 -10v30h-44v-120h38l37 46l70 -50v-21h-145v-191l-58 -8v199h-126zM458 424h143v101h-143v-101zM458 650v-98h143v98h-143z" />
  </g>

</svg>
