<?xml version="1.0" standalone="no"?>
<!DOCTYPE svg PUBLIC "-//W3C//DTD SVG 1.1//EN" "http://www.w3.org/Graphics/SVG/1.1/DTD/svg11.dtd" >
<svg xmlns="http://www.w3.org/2000/svg" xmlns:xlink="http://www.w3.org/1999/xlink" version="1.1" viewBox="0 -205 1024 1024">
  <g transform="matrix(1 0 0 -1 0 819)">
   <path fill="currentColor"
d="M330 700l52 -44q6 -9 4 -12q-1 -7 -34 -14l-134 -180h100l26 34l56 -42q6 -10 -6 -16l-26 -18q-27 -117 -90 -216q81 -47 174 -67q95 -21 364 -12l174 10v-20q-34 -4 -56 -14q-21 -8 -30 -38q-204 0 -408 20q-148 27 -238 97q-88 -103 -208 -155l-8 14q108 64 186 165
q-63 50 -128 166l14 10q75 -105 130 -150q51 92 78 206h-114l-28 -28l-48 50l42 22l126 170h-162q-14 0 -40 -8l-16 34h216l32 36v0v0zM834 654q-21 -1 -134 -26v-172h108l38 46l58 -52q6 -3 6 -8q6 -9 -6 -12h-204v-180h132l42 46l58 -50q3 -4 4 -10q0 -12 -12 -12h-412
q-21 0 -68 -8l-18 34h222v180h-100q-21 0 -62 -8l-20 34h182v164q-97 -16 -206 -22l-4 18q258 41 400 104q53 -51 56 -60q3 -7 -14 -8q-22 4 -46 2v0v0zM294 946q10 -9 0 -18q-21 -4 -30 -10l-14 -14l-20 -30h204l40 44l62 -54q9 -16 -8 -16h-212q41 -27 58 -42
q14 -15 20 -30q5 -16 -4 -32q-8 -16 -28 -14q-19 2 -22 26q-3 21 -12 40q-10 18 -40 52h-72q-68 -99 -130 -162l-14 12q51 75 88 142t62 140l72 -34v0v0zM684 942q10 -9 0 -18q-23 -5 -28 -10q-5 -4 -10 -10q-4 -6 -22 -30h232l40 46l62 -56q9 -16 -8 -16h-234
q38 -27 56 -42t24 -36q7 -19 -4 -34q-12 -16 -30 -10q-19 6 -22 30q-4 24 -14 42q-10 19 -38 50h-76q-57 -88 -114 -152l-18 10q53 83 80 142q26 59 44 124l80 -30v0v0z" />
  </g>

</svg>
