<?xml version="1.0" standalone="no"?>
<!DOCTYPE svg PUBLIC "-//W3C//DTD SVG 1.1//EN" "http://www.w3.org/Graphics/SVG/1.1/DTD/svg11.dtd" >
<svg xmlns="http://www.w3.org/2000/svg" xmlns:xlink="http://www.w3.org/1999/xlink" version="1.1" viewBox="0 -205 1024 1024">
  <g transform="matrix(1 0 0 -1 0 819)">
   <path fill="currentColor"
d="M334 934l60 -58q9 -6 10 -12q-3 -6 -18 -12q-21 -3 -42 -26q-39 -78 -90 -182q51 -42 78 -90q28 -45 38 -86q9 -40 6 -64t-14 -44q-10 -21 -34 -48t-62 -44q-9 30 -30 48q-22 15 -70 28l2 18q39 -5 70 -10q30 -4 46 2q15 6 30 28q12 21 10 66q-4 41 -22 86
q-17 45 -76 108l82 222h-156v-684l4 -101q1 -12 -22 -28q-21 -12 -36 -12l4 135v764l54 -48h144l34 44v0v0zM638 710q-18 0 -56 -38q-36 -36 -98 -114l214 2q29 45 74 132q72 -41 72 -46v-6q-1 -3 -22 -8q-21 -3 -54 -54q-30 -52 -132 -172q-151 -156 -322 -222l-8 14
q122 69 184 126q63 54 108 108q45 52 84 104q-97 -3 -154 -12q-54 -10 -84 -34l-46 62q30 6 48 16q15 9 54 60q36 51 90 138q65 -35 68 -40v-10q-1 -3 -20 -6v0v0zM810 378q-26 -36 -88 -108q94 -43 140 -82q44 -38 58 -67q13 -31 2 -56q-9 -23 -30 -22t-32 34q-9 34 -42 81
q-33 48 -108 96q-75 -73 -162 -125q-84 -53 -228 -104l-6 16q95 41 194 103q98 63 148 118q50 51 92 112q39 60 76 138q77 -46 80 -52q0 -6 -2 -8q0 -3 -18 -8q-18 -4 -32 -16q-15 -13 -42 -50v0v0zM572 962l8 12q83 -33 110 -60q26 -28 26 -52q-1 -24 -14 -36
q-12 -12 -30 -8q-15 4 -20 32q-4 27 -22 54q-19 27 -58 58v0v0zM374 798h480l42 56l66 -64q3 -4 4 -10q-1 -7 -16 -8h-492q-21 0 -68 -8l-16 34v0v0z" />
  </g>

</svg>
