<?xml version="1.0" standalone="no"?>
<!DOCTYPE svg PUBLIC "-//W3C//DTD SVG 1.1//EN" "http://www.w3.org/Graphics/SVG/1.1/DTD/svg11.dtd" >
<svg xmlns="http://www.w3.org/2000/svg" xmlns:xlink="http://www.w3.org/1999/xlink" version="1.1" viewBox="0 -36 256 256">
  <g transform="matrix(1 0 0 -1 0 220)">
   <path fill="currentColor"
d="M207 236q-4 -2 -6 -3.5t-25 -26.5h34l13 11l14 -18h-69v-18h34l12 10l15 -17h-61v-21h46l14 11l13 -18h-73q0 -9 1 -21l-16 -7q1 16 1 28h-29q-16 0 -25 -3l-10 10h64v21h-23q-7 -1 -16 -3l-11 10h50v18h-29q-10 0 -21 -2l-9 9h43q-8 18 -21 31l1 5q22 -9 27.5 -17
t-6.5 -19h29q17 25 22 41zM125 85l-2 -14q30 -14 24.5 -27.5t-11 -2t-15.5 22.5q-7 -33 -50 -57l-2 5q37 27 43 73q-11 0 -21 -2l-9 8h31q0 15 -1 31l21 -7l-6 -5q-1 -6 -1 -18h8l9 7l14 -14h-32zM177 92q2 16 1 32l21 -5l-7 -7l-1 -20h29l12 9l14 -16h-55v-7q29 -48 57 -55
v-4q-18 -3 -20 -11q-28 27 -38 65q-14 -47 -65 -66l-2 4q49 30 54 74h-6q-5 -1 -9 -2l-6 9h21zM140 122q27 -8 21.5 -19t-8.5 -4t-16 21zM216 101.5q-3 7.5 -14 20.5l1 4q27 -9 21.5 -20.5t-8.5 -4zM58 205q16 20 23 39l16 -15l-9 -5q-13 -19 -24 -32q14 -35 14.5 -88
t-7.5 -72t-24 -25q-2 14 -26 21v5q22 -4 30.5 -1.5t12 27t0.5 75.5q-21 -42 -57 -69l-2 5q34 35 55 85q-3 18 -6 29q-18 -21 -43 -36l-2 6q23 18 39 40q-9 19 -29 38l2 3q24 -13 37 -30z" />
  </g>

</svg>
