<?xml version="1.0" standalone="no"?>
<!DOCTYPE svg PUBLIC "-//W3C//DTD SVG 1.1//EN" "http://www.w3.org/Graphics/SVG/1.1/DTD/svg11.dtd" >
<svg xmlns="http://www.w3.org/2000/svg" xmlns:xlink="http://www.w3.org/1999/xlink" version="1.1" viewBox="0 -205 1024 1024">
  <g transform="matrix(1 0 0 -1 0 819)">
   <path fill="currentColor"
d="M486 688l48 -28h126v140l78 -32q6 -3 6 -6q1 -3 -4 -8l-32 -18v-76h122l24 38l56 -42q8 -6 8 -14q0 -6 -30 -26v-300h26l30 38l46 -44q3 -3 4 -8q0 -12 -12 -12h-94v-161q1 -32 -16 -56q-15 -20 -54 -38q-12 37 -38 52q-25 12 -82 36l6 16q55 -11 80 -20q24 -6 40 0
q15 6 16 26v145h-306v-120l4 -99q0 -10 -18 -24q-18 -12 -38 -12l4 129v126h-36q1 0 -34 -8l-16 34h86v372v0v0zM534 316h126v158h-126v-158v0v0zM708 316h132v158h-132v-158v0v0zM534 500h126v134h-126v-134v0v0zM708 500h132v134h-132v-134v0v0zM478 816q42 84 78 174
q80 -37 82 -44q0 -7 -2 -10q-3 0 -20 -6q-17 -3 -34 -26q-18 -21 -42 -66h314l40 52l68 -62q2 -4 2 -8q0 -6 -8 -8h-430q-57 -96 -132 -182l-12 12q54 87 96 174v0v0zM346 788l32 40l48 -48q13 -15 -10 -18h-224v-170h124l32 36l50 -38q12 -10 4 -16l-28 -18
q-6 -264 -14 -330q-6 -65 -30 -105q-24 -41 -72 -56q-6 36 -24 48q-17 10 -70 28l4 15l72 -15q39 -5 54 17q14 24 22 78q6 53 12 332h-136q-1 -218 -46 -340q-46 -119 -106 -193l-12 10q45 79 82 203q34 123 32 312v202h-46q-12 0 -56 -8l-16 34h322v0v0zM136 978l8 12
q66 -33 96 -62q27 -28 34 -52q6 -23 -2 -40q-10 -16 -22 -16q-12 -2 -20 6q-7 6 -14 34q-6 28 -24 56q-18 26 -56 62v0v0z" />
  </g>

</svg>
