<?xml version="1.0" standalone="no"?>
<!DOCTYPE svg PUBLIC "-//W3C//DTD SVG 1.1//EN" "http://www.w3.org/Graphics/SVG/1.1/DTD/svg11.dtd" >
<svg xmlns="http://www.w3.org/2000/svg" xmlns:xlink="http://www.w3.org/1999/xlink" version="1.1" viewBox="0 -144 1024 1024">
  <g transform="matrix(1 0 0 -1 0 880)">
   <path fill="currentColor"
d="M555 293l-7 14l-15 27l-9 13l-12 16v-298l-65 -32v266l-15 -31l-19 -35l-21 -33l-22 -31l-24 -28l-26 -25l-7 6l33 62l30 67l15 36l13 37l12 39l23 84l5 26h-113v22h116v156l65 -11l16 -11l-16 -9v-125h25l34 38l13 -12l12 19l24 48l10 25l8 25l6 25l5 25l3 27l1 27
l-1 27h64l-2 -32l-5 -30l-7 -30l-10 -28l-12 -28l-14 -26l-16 -24l-18 -23l-21 -21l-17 -14l20 -18v-22h-102v-80l7 -3l15 -8l15 -10l28 -22l13 -13l23 -29l11 -15l2 -24l-15 -19l-25 -2l-19 16zM868 78l-40 26l-36 30l-30 35l-28 -32l-40 -36l-44 -29l-47 -23l-49 -15l-4 9
l44 25l40 27l37 33l33 36l30 42l1 2l-24 47l-19 49l-14 54l-9 58l-4 57h-39v22h210l33 27l59 -49l-27 -16l-7 -3l-12 -47l-23 -65l-26 -60l-29 -54l-9 -13l8 -10l29 -27l32 -22l34 -18l77 -26l-63 -54zM260 748l64 -54v-22h-136v-613l-43 -21v634h-118v22h179zM55 586
l53 -10l14 -11l-14 -9v-152l-2 -45l-3 -40l-4 -38l-6 -35l-7 -31l-8 -28l-9 -25l-12 -21l-13 -18l-14 -12l-6 5l6 17l5 18l6 20l4 24l4 27l3 30l2 33l1 36v40v43v182zM232 586l54 -10l13 -11l-13 -9v-343l-54 -27v400zM833 473h-157l15 -53l17 -54l21 -48l22 -43l12 -18
l21 47l21 57l17 62zM528 677l-31 46v1l-17 -24l-30 -37l-31 -35l-32 -31l-33 -28l-35 -24l-6 7l54 64l51 71l24 39l22 39l-44 50l-70 71l6 8l31 -16l29 -18l53 -38l18 -15l24 51l42 101l3 7l57 -31l10 -16l-19 -3l-41 -83l-27 -48l-9 -15l33 -35l37 -48l3 -24l-14 -20
l-24 -4l-20 14zM801 887h-85v-118h-64v172l64 -32h85l32 27l59 -49l-27 -21v-210v-6v-5l1 -4v-2l2 -2l1 -2l2 -1l3 -2l5 -2l8 -1h24l25 92h11l-10 -92l15 -10l11 -17l-11 -16l-16 -10h-49h-14l-12 2l-13 3l-12 6l-10 8l-10 10l-7 12l-4 12l-3 14l-1 13v231zM233 936l53 -49
v-21h-225v21h128z" />
  </g>

</svg>
