<?xml version="1.0" standalone="no"?>
<!DOCTYPE svg PUBLIC "-//W3C//DTD SVG 1.1//EN" "http://www.w3.org/Graphics/SVG/1.1/DTD/svg11.dtd" >
<svg xmlns="http://www.w3.org/2000/svg" xmlns:xlink="http://www.w3.org/1999/xlink" version="1.1" viewBox="0 -52 256 256">
  <g transform="matrix(1 0 0 -1 0 204)">
   <path fill="currentColor"
d="M116 253l23 -9q3 -1 1 -3q-5 -2 -8 -5v-16h76l9 12l18 -13q2 -2 1 -3q0 -1 -5 -1h-99v-22h61l11 11l12 -13q2 -2 1 -3q0 -1 -3 -1l-4 -3v-16l1 -18q-2 -9 -14 -12l1 24l1 6v20h-67v-17q7 -8 20 -17q27 -21 58 -30q7 -2 17 -4q2 -1 3 -1q3 -1 10 -1q6 -1 10 -1v-4
q-16 1 -18 -9q-42 12 -77 38q-13 11 -23 21v-18l2 -16q0 -9 -14 -11v8q1 13 1 26v10q-8 -11 -20 -20q-33 -30 -93 -47l-1 4q53 17 85 47q17 15 29 34v8h-66v-19l1 -24q0 -9 -14 -12q2 11 2 48v8q-1 7 -5 11l4 2l9 -9h69v22h-84q-5 1 -11 -3l-8 8h103v18q1 5 -7 12zM120 115
l22 -8q3 -1 1 -3q-4 -1 -7 -5v-17h64l8 10l17 -12q2 -1 2 -2q-1 -1 -3 -1h-88v-50h85l8 11l16 -12q3 -2 2 -3t-5 -1h-208q-5 1 -11 -3l-9 8h51v66q1 3 -4 9l-2 2l2 2l21 -8q3 -1 1 -3q-4 -1 -7 -4v-64h48v75q2 3 -6 10z" />
  </g>

</svg>
