<?xml version="1.0" standalone="no"?>
<!DOCTYPE svg PUBLIC "-//W3C//DTD SVG 1.1//EN" "http://www.w3.org/Graphics/SVG/1.1/DTD/svg11.dtd" >
<svg xmlns="http://www.w3.org/2000/svg" xmlns:xlink="http://www.w3.org/1999/xlink" version="1.1" viewBox="0 -36 256 256">
  <g transform="matrix(1 0 0 -1 0 220)">
   <path fill="currentColor"
d="M194 230l14 13l19 -20h-148q-26 0 -33 -3l-10 10h158zM86 91l7 -5h100l9 10l15 -14l-7 -6q0 -33 1 -55l-17 -7v14h-102v-11l-17 -5q1 21 1 67q-12 -15 -29 -28.5t-34 -22.5l-2 3q19 15 39.5 36.5t31.5 47.5h-12q-11 0 -21 -2l-9 9h45q6 15 8 28h-50q-11 -1 -20 -3l-10 10
h81q3 16 4 30h-20q-10 0 -20 -2l-10 9h135l10 11l16 -16l-10 -7v-25h16l14 11l18 -18h-48q0 -21 1 -37l-17 -8v10h-85q-4 -9 -12 -24zM110 157h73v30h-69q-2 -16 -4 -30zM100 122h83v28h-74q-3 -15 -9 -28zM92 35h102v44h-102v-44z" />
  </g>

</svg>
