<?xml version="1.0" standalone="no"?>
<!DOCTYPE svg PUBLIC "-//W3C//DTD SVG 1.1//EN" "http://www.w3.org/Graphics/SVG/1.1/DTD/svg11.dtd" >
<svg xmlns="http://www.w3.org/2000/svg" xmlns:xlink="http://www.w3.org/1999/xlink" version="1.1" viewBox="0 -246 2048 2048">
  <g transform="matrix(1 0 0 -1 0 1802)">
   <path fill="currentColor"
d="M947 594q-41 -313 -287 -506l-41 39q219 232 219 637v492q74 -29 139 -62h607l73 87q130 -97 130 -124q0 -6 -11 -16l-55 -43v-831q0 -158 -203 -158q-9 62 -49 82q-44 22 -197 47v53q156 -18 266 -18q64 0 64 65v256h-655zM953 645h649v240h-645v-121q0 -41 -4 -119z
M957 936h645v207h-645v-207zM365 1180q-108 -215 -254 -405l-43 35q288 440 426 1120q205 -40 205 -88q0 -30 -100 -45q-81 -273 -158 -451q119 -22 119 -53q0 -25 -78 -53v-1147h-117v1087zM1225 1454v459q193 0 193 -45q0 -27 -80 -58v-356h375v352q190 -9 190 -51
q0 -23 -78 -51v-381h-112v80h-856v-86h-111v475q187 -3 187 -45q0 -26 -76 -53v-240h368z" />
  </g>

</svg>
