<?xml version="1.0" standalone="no"?>
<!DOCTYPE svg PUBLIC "-//W3C//DTD SVG 1.1//EN" "http://www.w3.org/Graphics/SVG/1.1/DTD/svg11.dtd" >
<svg xmlns="http://www.w3.org/2000/svg" xmlns:xlink="http://www.w3.org/1999/xlink" version="1.1" viewBox="0 -36 256 256">
  <g transform="matrix(1 0 0 -1 0 220)">
   <path fill="currentColor"
d="M77 109h34l8 7l11 -14h-53q-5 -14 -21 -26.5t-46 -20.5l-1 4q45 20 54 43h-17q-11 0 -20 -2l-10 9h49q1 5 1 6h-6q-11 0 -20 -2l-10 9h37v9h-22v-1l-13 -5q1 13 1 20t-1 15l14 -7h21v8h-9v-1l-12 -4v18h-4q-11 0 -20 -2l-10 9h34q0 9 -1 17l20 -8l-7 -5v-4h32q0 8 -1 16
l21 -6l-8 -4v-6h15l8 9l12 -16h-35v-11l-12 -5v3h-11v-8h21l7 8l13 -11l-5 -3v-14l-12 -4v2h-24v-9h25l8 6l11 -13h-45zM58 168h32v6h-32v-6zM45 138h22v8h-22v-8zM79 138h24v8h-24v-8zM103.5 87.5q8.5 -5.5 9.5 -10t-3 -11.5t-10 4.5t-24 26.5l2 2q17 -6 25.5 -11.5z
M122 127l-4 2q20 28 35 70l16 -13l-7 -4l-7 -12h27q-1 13 -13 22l1 3q22 -7 25 -13t-6 -12h21l13 9l13 -16h-45v-16h15l10 9l14 -16h-39v-17h15l9 8l14 -15h-38v-18h20l14 10l16 -17h-89v-10l-13 -5v69q-8 -9 -17 -18zM152 147h26v16h-26v-16zM152 123h26v17h-26v-17z
M152 98h26v18h-26v-18zM51 69q14 -3 22.5 -8t10 -11t-3 -12t-10.5 6t-20 22zM77.5 31q21.5 10 29.5 25.5t9 33.5l18 -10l-6 -6q4 -8 20 -20q31 17 39 31l15 -17l-9 -1q-18 -10 -39 -18q35 -24 94 -25v-4q-19 -4 -22 -12q-75 13 -99 58q-8 -30 -39 -43t-80 -16v4
q48 10 69.5 20zM98 222l14 8l15 -15h-39q0 -6 2 -17l-15 -3q0 13 -1 20h-28q-13 -1 -22 -4l-10 11h59q-2 16 -5 25l23 -7l-5 -6l1 -12h11zM150 216l-9 -3l-9 10h36q3 14 3 23l22 -6l-7 -6l-3 -11h31l13 9l17 -16h-62q-1 -4 -4 -18l-15 -3q5 19 5 21h-18z" />
  </g>

</svg>
