<?xml version="1.0" standalone="no"?>
<!DOCTYPE svg PUBLIC "-//W3C//DTD SVG 1.1//EN" "http://www.w3.org/Graphics/SVG/1.1/DTD/svg11.dtd" >
<svg xmlns="http://www.w3.org/2000/svg" xmlns:xlink="http://www.w3.org/1999/xlink" version="1.1" viewBox="0 -144 1024 1024">
  <g transform="matrix(1 0 0 -1 0 880)">
   <path fill="currentColor"
d="M732 770l-16 -10l-4 -96l-3 -31l13 -100l15 -79l7 -25l88 130l39 64l2 4l51 -40l8 -18l-21 2l-36 -45l-36 -39l-59 -55l-31 -24l7 -25l22 -64l26 -55l30 -48l33 -41l37 -33l40 -26l24 -14l-60 -48l-47 36l-41 43l-35 50l-30 56l-24 63l-19 70l-13 75l-6 54l-7 -44
l-21 -89l-27 -79l-33 -70l-39 -60l-44 -49l-51 -38l-55 -27l-4 9l47 34l42 42l36 50l32 57l26 67l22 77l17 85l11 95l6 105l1 115v13l64 -13zM363 916l64 -33h414l53 54l65 -54v-21h-532v-311l-2 -72l-4 -67l-6 -62l-8 -59l-9 -52l-12 -49l-14 -43l-15 -39l-18 -33l-20 -27
l-9 5l11 31l9 34l8 38l8 42l6 48l5 51l4 57l2 61l1 66l-1 70v365zM53 211l-1 4l-1 1l-1 3l-8 18v2l-2 4l-1 3l-1 1l100 38l15 6v381h-107v21h107v274l64 -10l17 -11l-17 -10v-243h17l44 48l54 -48v-21h-115v-352l117 49l4 -8l-62 -47l-88 -57l-53 -32l-49 -26l-2 -1l-5 -22
l-16 11zM38 247l25 -60l-35 56zM452 393l43 -48l-24 -8l-22 11l-7 23zM495 345l-32 36l-1 2l-10 10l12 10l11 13l11 15l10 20l9 22l8 26l7 30l6 32l5 35l5 39l10 1l6 -40l3 -37v-35l-2 -32l-3 -30l-7 -28l-8 -25l-11 -24l-13 -21z" />
  </g>

</svg>
