<?xml version="1.0" standalone="no"?>
<!DOCTYPE svg PUBLIC "-//W3C//DTD SVG 1.1//EN" "http://www.w3.org/Graphics/SVG/1.1/DTD/svg11.dtd" >
<svg xmlns="http://www.w3.org/2000/svg" xmlns:xlink="http://www.w3.org/1999/xlink" version="1.1" viewBox="0 -205 1024 1024">
  <g transform="matrix(1 0 0 -1 0 819)">
   <path fill="currentColor"
d="M452 890h368l40 42l54 -46q2 -3 8 -8q1 -13 -10 -14h-384q-12 0 -48 -8l-28 34v0v0zM408 632h474l44 50l64 -54q3 -4 4 -10q0 -12 -12 -12h-178v-442q0 -37 6 -49q3 -9 30 -12h52q36 1 46 16q9 16 12 47q3 33 6 132h20q5 -93 10 -126q5 -29 32 -37q-12 -40 -36 -56
q-21 -16 -60 -20h-86q-40 2 -52 10q-11 8 -22 22q-9 15 -8 54v461h-132v-130q-6 -226 -96 -320q-90 -91 -194 -133l-4 16q92 52 166 143q75 90 78 294v130h-84q-20 0 -58 -8l-22 34v0v0zM350 804l36 44l58 -50q3 -3 4 -8q0 -12 -12 -12h-344q-21 -1 -68 -10l-16 36h342v0v0z
M44 672h266l36 44l54 -52q3 -3 4 -6q0 -12 -12 -12h-260q-21 0 -68 -8l-20 34v0v0zM86 432l58 -38h158l30 36l54 -44q6 -6 6 -8q1 -7 -28 -26v-154l4 -67q0 -13 -20 -26q-18 -12 -36 -12v65h-176v-57q0 -18 -18 -30q-18 -14 -36 -14l4 115v260v0v0zM136 184h176v184h-176
v-184v0v0zM48 536h266l36 44l54 -50q3 -3 4 -8q0 -12 -12 -12h-260q-21 0 -68 -8l-20 34v0v0zM136 986l10 10q84 -55 102 -82q19 -27 18 -48q0 -22 -12 -32q-13 -11 -28 -6q-16 3 -20 22q-2 19 -10 44q-6 25 -60 92v0v0z" />
  </g>

</svg>
