<?xml version="1.0" standalone="no"?>
<!DOCTYPE svg PUBLIC "-//W3C//DTD SVG 1.1//EN" "http://www.w3.org/Graphics/SVG/1.1/DTD/svg11.dtd" >
<svg xmlns="http://www.w3.org/2000/svg" xmlns:xlink="http://www.w3.org/1999/xlink" version="1.1" viewBox="0 -36 256 256">
  <g transform="matrix(1 0 0 -1 0 220)">
   <path fill="currentColor"
d="M143 156l-17 -5q2 27 2 39q-48 -40 -117 -50l-2 3q63 17 95 44h-47q-11 0 -21 -2l-10 9h56q0 6 -3 13t-12 14l3 2q19 -8 24.5 -14.5t-5.5 -14.5h39v30q-31 -2 -81 -2v4q30 1 53 3.5t47 5.5t53 12l15 -15q-20 0 -73 -7v-31h22q12 19 18 34l21 -11q-12 -3 -31 -23h37l14 11
l18 -18h-99q0 -29 1 -31zM141 188q76 -15 87.5 -21.5t10.5 -17t-18 3t-80 31.5v4zM175 117h42l15 10l16 -17h-106q-20 -10 -35 -17q22 -8 33 -15q40 17 51 30l19 -14h-11q-21 -9 -37 -14q38 -38 82 -41v-4q-19 -3 -22 -11q-39 15 -65 53l-12 -4q11 -11 13.5 -23t1 -19
t-8 -12.5t-26.5 -10.5q1 9 -32 16v4q33 -4 42 -1.5t9.5 13t-5.5 20.5q-47 -32 -123 -37l-1 4q76 11 117 43q-6 6 -13 9q-35 -26 -101 -34v5q57 11 91 36l-8 4q-35 -15 -85 -21l-1 4q59 12 101 37h-69q-11 0 -21 -2l-10 9h73v19h-29q-12 0 -22 -2l-10 9h61v16q0 -10 -1 7
l21 -8l-6 -7v-8h58v16q0 -1 -1 8l21 -8l-6 -7v-9h25l13 9l16 -16h-54v-19v0zM103 117h58v6v13h-58v-19z" />
  </g>

</svg>
