<?xml version="1.0" standalone="no"?>
<!DOCTYPE svg PUBLIC "-//W3C//DTD SVG 1.1//EN" "http://www.w3.org/Graphics/SVG/1.1/DTD/svg11.dtd" >
<svg xmlns="http://www.w3.org/2000/svg" xmlns:xlink="http://www.w3.org/1999/xlink" version="1.1" viewBox="0 -36 256 256">
  <g transform="matrix(1 0 0 -1 0 220)">
   <path fill="currentColor"
d="M45 243l23 -8l-8 -8v-49h28l12 11l16 -18h-26v-126q0 -18 19 -16h107q9 -1 11.5 6t3.5 31h4q0 -21 3 -27t9 -8q-7 -13 -22 -13h-123q-25 -1 -25 24v129h-17q-1 -55 -11.5 -93t-36.5 -69l-3 2q20 36 27.5 70.5t9.5 89.5h-5q-10 0 -19 -2l-9 9h33q0 48 -1 65zM197 243
q19 -8 23.5 -13.5t-0.5 -14t-10 3t-15 22.5zM195 96q8 -17 20 -27l10 28l3 -1q-3 -17 -3 -26t1 -17t-6 -5t-17 13.5t-15 22.5q-22 -29 -46 -42l-1 3q23 20 41 53q-6 16 -8.5 43.5t-3.5 54.5h-44q-10 0 -19 -2l-9 9h71q0 24 -1 40l21 -8l-7 -8v-24h28l12 11l16 -18h-56
q0 -20 2 -42.5t6 -40.5q12 37 14 63l20 -10l-8 -6q-9 -40 -21 -64zM108 129l-9 10h20q0 37 -1 47l19 -10l-6 -5v-32h14q0 34 -1 45l18 -10l-6 -4v-31h1l9 9l12 -16h-22q0 -56 1 -64l-13 -5q1 16 1 69h-14q0 -26 -8 -44.5t-28 -34.5l-2 3q15 16 20.5 34.5t5.5 41.5z" />
  </g>

</svg>
