<?xml version="1.0" standalone="no"?>
<!DOCTYPE svg PUBLIC "-//W3C//DTD SVG 1.1//EN" "http://www.w3.org/Graphics/SVG/1.1/DTD/svg11.dtd" >
<svg xmlns="http://www.w3.org/2000/svg" xmlns:xlink="http://www.w3.org/1999/xlink" version="1.1" viewBox="0 -36 256 256">
  <g transform="matrix(1 0 0 -1 0 220)">
   <path fill="currentColor"
d="M204 174v-7h-53v7h53zM121 205h-81q0 -10 -4 -14t-10.5 -6.5t-10.5 1t5.5 11t13.5 23.5h6v-8h81v17h-51q-11 -1 -20 -3l-10 10h149l15 9l19 -16h-87v-17h86l8 8l18 -12q-13 -1 -35 -23l-3 4l13 16h-87q0 -32 1 -41l-17 -4q1 10 1 45zM105 195v-7h-51v7h51zM202 195v-7
h-51v7h51zM105 174v-7h-53v7h53zM111 150l15 -14h-44q27 -13 34.5 -19.5t3.5 -16t-12.5 3t-31.5 32.5h-3q-4 -12 -16.5 -22.5t-41.5 -20.5l-2 4q37 16 46 39h-12q-10 -1 -20 -3l-10 10h43q1 10 1 21l21 -9l-7 -4l-1 -8h26zM76 49h28l9 10l16 -17h-53v-10q0 -7 1 -22l-16 -3
q2 16 2 24v11h-21q-11 0 -21 -2l-9 9h51v21h-16q-10 0 -20 -2l-10 9h35q-2 12 -14 23l2 2q15 -5 20.5 -10t-4.5 -15h17q12 14 17 29l15 -11q-6 -3 -10.5 -6.5t-14.5 -11.5h15l11 8l15 -15h-45v-21zM136 107l-9 9h28v30q-14 0 -21 -2l-9 9h73l8 8l15 -12l-9 -6v-108
q0 -11 7 -10q10 -1 12 5.5t2 28.5h4q1 -27 11 -33q-2 -12 -18 -12h-18q-13 0 -13 14v43h-34q-4 -37 -44 -63l-2 2q26 23 33 61q-18 0 -22 -2l-9 9h32q2 21 2 31q-12 0 -19 -2zM166 78h33v68h-31v-30h33v-7h-33q0 -19 -2 -31z" />
  </g>

</svg>
