<?xml version="1.0" standalone="no"?>
<!DOCTYPE svg PUBLIC "-//W3C//DTD SVG 1.1//EN" "http://www.w3.org/Graphics/SVG/1.1/DTD/svg11.dtd" >
<svg xmlns="http://www.w3.org/2000/svg" xmlns:xlink="http://www.w3.org/1999/xlink" version="1.1" viewBox="0 0 2048 2048">
  <g transform="matrix(1 0 0 -1 0 2048)">
   <path fill="currentColor"
d="M892 1506l-26 -38l-34 -50q-22 -30 -54 -68q-33 -39 -66 -72q-34 -34 -53 -48l-40 -31l-23 22l44 53l38 46q18 24 46 66l53 87q26 44 43 79l36 78q20 44 28 64q8 21 34 97l31 87l11 38l144 -54q31 -12 30 -36q-2 -23 -42 -28l-56 -8l-27 -62q-13 -29 -36 -76t-29 -58
l-17 -31h810l99 101l120 -107q10 -10 14 -15q5 -6 2 -18q-3 -10 -11 -14t-15 -4h-576v-385h362l68 76l84 -54q20 -13 30 -25q10 -11 10 -24q-1 -14 -12 -25q-10 -11 -30 -20l-35 -16v-543q0 -36 -10 -66q-10 -29 -27 -46q-18 -17 -45 -32q-27 -16 -42 -18l-31 -7
q-4 17 -8 36t-17 35t-44 30q-31 15 -76 23l-61 11l8 46q49 -9 74 -12l53 -7q47 -7 75 -7q27 -1 40 11t13 44l-1 536h-378v-719q0 -35 4 -106q3 -71 6 -106q4 -36 4 -51q-1 -12 -4 -20q-4 -8 -16 -15q-11 -6 -29 -7q-20 -2 -33 3q-14 5 -22 14q-7 10 -7 25v982h-360v-716
q0 -15 -9 -25q-8 -9 -20 -14q-13 -4 -35 -3q-21 0 -31 7q-11 6 -14 15q-4 9 -4 22q-1 13 3 51q4 42 8 104q4 63 4 105v462q0 32 -5 70t-8 50l-4 14l122 -88h353v385h-381zM115 1353l48 -19q28 -12 70 -34q42 -23 93 -54q50 -32 76 -59q25 -27 37 -60t1 -57q-10 -25 -34 -30
q-24 -6 -45 11q-12 8 -29 38q-16 30 -42 65q-26 34 -50 58q-25 23 -52 43l-74 51l-20 13zM257 1872l48 -22q29 -14 63 -33q35 -19 80 -50t68 -53q24 -23 40 -52q16 -28 13 -54q-3 -27 -22 -44q-19 -16 -43 -8q-15 4 -28 20q-12 15 -35 56q-23 40 -45 66q-23 26 -72 70
q-48 43 -70 57l-20 12zM555 896l34 -25q-13 -26 -18 -39l-73 -163q-25 -52 -103 -203q-78 -150 -100 -187l-58 -97q0 -23 1 -40q0 -17 -5 -36t-17 -24q-12 -4 -37 29l-81 104l90 107q42 50 103 136q61 87 110 167t97 167z" />
  </g>

</svg>
