<?xml version="1.0" standalone="no"?>
<!DOCTYPE svg PUBLIC "-//W3C//DTD SVG 1.1//EN" "http://www.w3.org/Graphics/SVG/1.1/DTD/svg11.dtd" >
<svg xmlns="http://www.w3.org/2000/svg" xmlns:xlink="http://www.w3.org/1999/xlink" version="1.1" viewBox="0 -36 256 256">
  <g transform="matrix(1 0 0 -1 0 220)">
   <path fill="currentColor"
d="M221 147l-14 -5v9h-66v-6l-14 -5q1 23 1 46t-1 47l14 -9h65l8 10l14 -13l-8 -6v-44q0 -12 1 -24zM216.5 28q9.5 0 8.5 12v79h-81q-6 -7 -16 -17l10 -6l-4 -5v-47h54l12 10l15 -17h-80l-7 -7l-11 12l5 5v49q-8 -7 -14 -10l-2 2q30 35 42 64l16 -11q-4 -2 -7 -5t-9 -10h75
l8 11l14 -12l-7 -6v-81q0 -26 -23 -30q-2 13 -26 19v4q18 -3 27.5 -3zM188 107q-5 -2 -12 -13q19 -9 26 -15t4 -17t-8.5 -0.5t-23.5 27.5q-13 -20 -33 -36l-3 2q25 30 33 62zM141 158h66v27h-66v-27zM141 192h66v25h-66v-25zM47 173h48v29h-48v-29zM47 139h48v27h-48v-27z
M47 103h48v29h-48v-29zM85 236q-8 -2 -21 -27h30l7 11l14 -13l-7 -5v-167q1 -19 -20 -27q0 14 -25 22v4q20 -2 26 -2t6 7v51q-18 -27 -39.5 -46t-44.5 -30l-2 3q21 16 38 33t35 46h-39q-10 -1 -20 -3l-11 10h22q0 93 -1 115l14 -9h12q7 24 10 38z" />
  </g>

</svg>
