<?xml version="1.0" standalone="no"?>
<!DOCTYPE svg PUBLIC "-//W3C//DTD SVG 1.1//EN" "http://www.w3.org/Graphics/SVG/1.1/DTD/svg11.dtd" >
<svg xmlns="http://www.w3.org/2000/svg" xmlns:xlink="http://www.w3.org/1999/xlink" version="1.1" viewBox="0 -205 1048 1024">
  <g transform="matrix(1 0 0 -1 0 819)">
   <path fill="currentColor"
d="M964 906l-7 -15h-246v-78h142l19 17q13 10 14.5 10t14.5 -12l26 -28q14 -13 14 -20q0 -5 -10 -10q-16 -8 -20 -11v-182q0 -11 1 -23.5t1 -14.5q0 -10 -23 -22q-10 -6 -16 -6q-7 0 -7 13v28h-443q0 -4 1 -9.5t1 -7.5q0 -8 -26 -21q-11 -6 -14 -6q-6 0 -6 15v52l1 267
l47 -29h110v78h-216v21h527l30 32q13 15 16 15q5 0 23 -15zM380 404q17 -18 17 -27q0 -10 -26 -12v-203q0 -53 2 -49q-3 -9 -24 -12q-12 -4 -16 -4t-5.5 4.5t-1.5 17.5q1 24 1 35v13h-169v-84q-1 -7 -24 -13q-12 -4 -15 -4q-5 0 -6 6q-1 3 0 20q1 21 1 38l-5 314l53 -32h152
l13 16q12 14 13.5 14t13.5 -13zM982 126q-2 -25 -46 -32q-15 -2 -64 -2h-146q-62 0 -83 31q-16 26 -16 87v55l-234 -33l-2 19l236 34v122q-47 -8 -187 -27l-1 17q138 22 238.5 52t162.5 69l30 -30q34 -34 8 -34q-12 0 -35 7q-118 -37 -171 -46v-123l185 25l23 40
q13 18 14 18q6 0 22 -13l48 -39l-5 -12l-287 -39v-59q0 -38 10 -57q12 -25 49 -25h131q29 0 42.5 10t21.5 39l31 101l11 -6l-18 -105q-4 -22 13 -26.5t19 -17.5zM867 574v88q-10 -19 -57 -19h-81q-43 0 -54 20q-9 16 -9 72v57h-84q-4 -115 -158 -185v-33h443zM327 189v203
h-169v-203h169zM344 855l-127 -198q-27 -35 -27 -66q0 -11 7.5 -31.5t5.5 -42.5q-3 -46 -34 -46q-25 0 -27 40q-1 14 7 36.5t8 37.5q0 40 -38 50l-58 16l4 11l50 -2q28 -1 44 4.5t39 26.5l135 172zM867 792h-156v-46q0 -44 4 -51q5 -9 40 -9q29 0 41.5 6t20.5 26l12 42
l14 -2l-2 -40q1 -24 10 -30q15 -11 16 -13v117zM424 792v-169q118 74 114 169h-114zM666 813v78h-84v-78h84zM290 887q0 -29 -14 -29q-10 0 -21 21q-31 54 -98 86l5 9q128 -38 128 -87zM202 783q2 -21 -12 -21q-8 0 -17 16q-37 51 -98 83l4 7q77 -22 100 -38t23 -47z" />
  </g>

</svg>
