<?xml version="1.0" standalone="no"?>
<!DOCTYPE svg PUBLIC "-//W3C//DTD SVG 1.1//EN" "http://www.w3.org/Graphics/SVG/1.1/DTD/svg11.dtd" >
<svg xmlns="http://www.w3.org/2000/svg" xmlns:xlink="http://www.w3.org/1999/xlink" version="1.1" viewBox="0 -205 1024 1024">
  <g transform="matrix(1 0 0 -1 0 819)">
   <path fill="currentColor"
d="M792 654q21 -27 20 -52q-1 -24 -7 -36q-5 -11 -12 -12q-7 0 -14 12q-65 98 -257 170v-79q0 -98 4 -157q-1 -9 -46 -39q-14 -9 -13 12q7 113 7 184v184h-293q-42 -1 -73 -7q-9 -3 -10 6q-5 18 -20 31q-8 7 -4 11q4 3 11 -1q38 -9 84 -9h346q-12 71 -56 121q-4 7 0 13
q6 5 16 -4q83 -35 83 -75q1 -19 -13 -55h261q14 1 30 19l26 37q7 9 16 0q71 -63 70 -78q-2 -8 -15 -9h-411v-81q219 -50 270 -106zM684 433q11 1 15 5l27 27q4 4 7 4q13 -1 58 -58q6 -8 3 -12q-3 -3 -10 -2q-21 5 -57 -40q-94 -82 -179 -149q165 -94 409 -94q5 0 6 -7
q0 -9 -13 -10q-42 -4 -54 -43q-3 -6 -19 -2q-264 53 -363 132q-158 -103 -434 -139q-18 -4 -19 11q-3 14 13 17q225 33 400 145q-84 79 -154 175q-3 6 -3 9h-44q-42 -1 -73 -7q-9 -3 -10 6q-5 18 -20 31q-8 7 -4 11q4 3 11 -1q38 -9 84 -9h423zM338 402q62 -74 164 -164
q101 77 192 164h-356z" />
  </g>

</svg>
