<?xml version="1.0" standalone="no"?>
<!DOCTYPE svg PUBLIC "-//W3C//DTD SVG 1.1//EN" "http://www.w3.org/Graphics/SVG/1.1/DTD/svg11.dtd" >
<svg xmlns="http://www.w3.org/2000/svg" xmlns:xlink="http://www.w3.org/1999/xlink" version="1.1" viewBox="0 -246 2048 2048">
  <g transform="matrix(1 0 0 -1 0 1802)">
   <path fill="currentColor"
d="M399 734q-121 -158 -260 -275l-39 39q279 305 453 752q174 -63 174 -102q0 -29 -90 -29q-55 -115 -141 -250q100 -25 100 -51q0 -24 -80 -52v-676h-117v644zM958 1678v260q207 -3 207 -45q0 -24 -90 -55v-160h611l81 94q148 -147 148 -180q0 -17 -29 -20l-69 -8l-80 -39
l43 -13q0 -129 76 -135q-7 -90 -86 -103q-44 -8 -259 -8q-287 0 -330 16q-57 22 -57 111v234h-744q-3 -104 -41 -183q-49 -102 -116 -102q-76 0 -76 70q0 26 49 69q108 96 129 285l51 -10q6 -37 6 -78h576zM1237 1627v-195q0 -44 29 -53q31 -15 192 -15q129 0 171 5
q36 5 55 20q38 38 47 133q-75 -33 -131 -53l-31 37q84 69 121 121h-453zM1169 217v226h-465l-22 51h487v211q193 -21 193 -57q0 -23 -78 -48v-106h313l95 113q77 -68 127 -129l-25 -35h-510v-226h418l104 121q84 -70 140 -135l-23 -37h-1346l-22 51h614zM1169 777v198h-393
l-23 51h416v201q193 -6 193 -47q0 -23 -78 -51v-103h283l92 111q73 -59 131 -123l-23 -39h-483v-198h369l100 110q77 -64 131 -124l-24 -37h-1209l-23 51h541zM157 1174l-22 49q408 101 663 369q158 -71 158 -108q0 -25 -55 -25q-31 0 -49 2q-294 -211 -695 -287z" />
  </g>

</svg>
