<?xml version="1.0" standalone="no"?>
<!DOCTYPE svg PUBLIC "-//W3C//DTD SVG 1.1//EN" "http://www.w3.org/Graphics/SVG/1.1/DTD/svg11.dtd" >
<svg xmlns="http://www.w3.org/2000/svg" xmlns:xlink="http://www.w3.org/1999/xlink" version="1.1" viewBox="0 -205 1024 1024">
  <g transform="matrix(1 0 0 -1 0 819)">
   <path fill="currentColor"
d="M446 716h412l38 52l72 -62q3 0 4 -6q-1 -10 -16 -10h-426q-21 0 -68 -8l-16 34v0v0zM814 640q76 -31 80 -34t2 -8q-1 -3 -10 -6q-7 -3 -16 -14q-6 -10 -24 -58q-16 -48 -76 -240l-44 -151h170l38 55l70 -61q3 -2 4 -8q1 -12 -16 -12h-520q-21 1 -68 -8l-16 34h310
q43 166 74 301q33 135 42 210v0v0zM588 964l10 10q78 -55 102 -88q23 -31 32 -58q6 -28 -6 -46t-30 -14q-18 3 -24 36q-5 30 -16 64q-12 33 -68 96v0v0zM512 616l14 6q75 -112 96 -172q20 -61 28 -110q6 -49 0 -76q-7 -25 -20 -32t-26 -2q-14 4 -12 32v58q1 29 -4 68
q-6 38 -14 82q-9 41 -62 146v0v0zM90 864q75 -78 94 -108q16 -30 14 -54q-1 -24 -14 -32q-13 -10 -26 -4q-12 4 -14 32q-1 27 -14 64q-13 33 -52 94l12 8v0v0zM282 620h94l32 46l60 -54q3 -3 4 -8q0 -10 -12 -10h-178v-76q59 -24 104 -60q44 -33 52 -56q6 -23 -2 -40
q-6 -16 -24 -14t-24 20q-7 17 -32 56q-24 39 -74 72v-346l4 -91q0 -14 -18 -26q-18 -14 -36 -14l4 129v352q-48 -118 -96 -190t-104 -138l-12 10q50 75 86 138q33 64 66 146q32 80 44 128h-100q-21 0 -56 -8l-16 34h188v360l74 -36q3 -1 4 -2q9 -6 0 -12l-32 -18v-292v0v0z
M312 664q69 134 90 212q71 -36 74 -42q1 -7 -10 -10q-10 -4 -28 -16q-19 -12 -112 -152l-14 8v0v0z" />
  </g>

</svg>
