<?xml version="1.0" standalone="no"?>
<!DOCTYPE svg PUBLIC "-//W3C//DTD SVG 1.1//EN" "http://www.w3.org/Graphics/SVG/1.1/DTD/svg11.dtd" >
<svg xmlns="http://www.w3.org/2000/svg" xmlns:xlink="http://www.w3.org/1999/xlink" version="1.1" viewBox="0 -36 256 256">
  <g transform="matrix(1 0 0 -1 0 220)">
   <path fill="currentColor"
d="M101 107q0 -27 1 -45l-14 -5v13h-56v-14l-14 -7q1 24 1 94t-1 86l14 -9h55l7 9l15 -12l-8 -6v-104zM67 150h21v63h-21v-63zM32 77h22v66h-22v-66zM67 77h21v66h-21v-66zM32 150h22v63h-22v-63zM168 185l36 37h-66q-10 0 -19 -2l-9 9h93l10 11l20 -22q-16 1 -61 -36
q15 -10 8 -20t-11 -3.5t-12 18t-20 21.5l2 3q15 -8 29 -16zM155 31q8 0 8 15v101h-31q-10 0 -19 -2l-9 9h115l11 10l17 -20q-16 0 -39 -31l-2 3l16 31h-45v-110q0 -20 -22 -30q-5 17 -31 24v4q23 -4 31 -4z" />
  </g>

</svg>
