<?xml version="1.0" standalone="no"?>
<!DOCTYPE svg PUBLIC "-//W3C//DTD SVG 1.1//EN" "http://www.w3.org/Graphics/SVG/1.1/DTD/svg11.dtd" >
<svg xmlns="http://www.w3.org/2000/svg" xmlns:xlink="http://www.w3.org/1999/xlink" version="1.1" viewBox="0 -36 256 256">
  <g transform="matrix(1 0 0 -1 0 220)">
   <path fill="currentColor"
d="M11 74q28 -7 36 1t36 71l3 -1q-13 -33 -23.5 -58t-12.5 -34.5t-0.5 -28t-9 -10.5t-8 17t4.5 19t-27 21zM16 128q25 -4 31 -10.5t2 -17t-10.5 2t-23.5 22.5zM33 168q21 -3 27.5 -9t4 -17t-12 2.5t-20.5 20.5zM100 140h42v17h-42v-17zM100 119h42v14h-42v-14zM124 172.5
q-4 -5.5 -6 -8.5h23l8 8l12 -13l-7 -5q0 -22 1 -44l-13 -5v7h-42v-6l-14 -5q1 10 1 32.5t-1 36.5l15 -6h11l4 12t2 16l18 -8q-8 -6 -12 -11.5zM140.5 20q-5.5 -7 -13.5 -10q-2 7 -4.5 10t-14.5 4l1 7q9 -3 16.5 -3t8.5 8t2 24h-31q-1 -18 -12 -30t-29 -22l-2 3q22 17 28 35
t5 33h1q-13 1 -20 -3l-8 10h75l10 10l14 -17h-60l-1 -12h31l6 6l12 -12l-7 -4q-2 -30 -7.5 -37zM231 9q-16 12 -35 43q-17 -24 -56 -45l-2 4q36 25 52 54q-11 22 -17 52q-4 -10 -16 -25l-3 2q12 21 19.5 46t7.5 40l22 -11l-9 -3l-11 -27h40l9 9l13 -16h-22q-9 -46 -21 -68
q6 -12 18.5 -24t27.5 -18v-3q-9 0 -17 -10zM181 132l-5 -9q9 -29 19 -48q10 21 15 57h-31h2zM109 107q17 -2 20 -7.5t-2.5 -11.5t-8 3.5t-9.5 12.5v3zM224 211h-186q0 -13 -8.5 -17.5t-15 0t4.5 12t14 26.5l5 -1v-13h88q-5 15 -20 25l1 4q25 -6 31.5 -12t-3.5 -17h87l9 10
l17 -16q-14 -1 -32 -22l-3 2zM94 218h13q3 -24 -16.5 -32t-66.5 -8v6q42 3 57 9.5t13 24.5zM160 218v-15q-1 -12 18 -11q36 0 37.5 3t11.5 -9q-2 -4 -29 -4h-26q-25 -1 -25 13v23h13z" />
  </g>

</svg>
