<?xml version="1.0" standalone="no"?>
<!DOCTYPE svg PUBLIC "-//W3C//DTD SVG 1.1//EN" "http://www.w3.org/Graphics/SVG/1.1/DTD/svg11.dtd" >
<svg xmlns="http://www.w3.org/2000/svg" xmlns:xlink="http://www.w3.org/1999/xlink" version="1.1" viewBox="0 -205 1048 1024">
  <g transform="matrix(1 0 0 -1 0 819)">
   <path fill="currentColor"
d="M400 563q19 -8 19 -14t-28 -10q-22 -31 -76 -96q21 -10 58 -38q14 -24 14 -45q0 -19 -12 -19q-15 0 -30 23q-34 54 -88 80v-320q0 -24 -1 -26q-2 -6 -19 -9q-10 -2 -14 -2q-7 0 -8 8v33v377q-66 -69 -137 -119l-9 14q94 81 165 180q68 94 96 175h-252v20h136v144l-5 39
l45 -8q32 -6 32 -15q0 -7 -30 -25v-135h76l10 15q10 11 14 11q3 0 14 -9l30 -28q12 -12 12 -17q0 -8 -36 -15q-16 -34 -55 -93q-37 -55 -64 -86v-89q17 -2 42 -14q31 51 66 130zM529 392q-23 -14 -49 -28q-18 -9 -62 -30l-7 12q43 24 67 41q26 16 49 36l-1 22l22 -10
q37 24 68 51q34 27 65 56h-166l-68 -4l-13 23l67 -2h103v108h-65l-69 -3l-12 22l65 -2h81v64l-3 45l65 -14q27 -7 22 -14q-4 -8 -38 -15v-66h55l28 35l50 -32l10 -7q14 22 26 43q14 22 25 44l50 -26q19 -8 15 -16q-5 -8 -37 -8q-26 -42 -58 -82q-31 -39 -64 -76h103l43 44
l59 -40q13 -9 8 -15q-6 -6 -21 -6h-209q-39 -35 -77 -65q-41 -32 -81 -57l11 -5h251l31 26l40 -30q28 -19 17 -27q-7 -6 -28 -6v-251v-13q1 -14 -2 -18q-4 -7 -22 -13q-17 -3 -21 3q-3 5 -2 21l1 11h-273v-15q0 -14 -3 -19q-4 -7 -18 -14q-20 -6 -27 1q-3 6 -1 23l1 10v272z
M577 284h274v114h-274v-114zM577 135h274v134h-274v-134zM650 667v-108h47q24 26 45 52q24 30 43 57l-13 -1h-122zM742 526q44 -24 64 -49q16 -21 13 -40q-5 -15 -17 -15q-12 -1 -21 16l-1 1q-8 22 -14 34q-12 20 -34 46zM569 818v-16q2 -16 -2 -21q-4 -8 -24 -13
q-18 -4 -21 -2t-1 14l2 18v61h-46l-68 -4l-14 23l67 -4h61v45l-6 52l55 -12q32 -5 29 -14q-3 -8 -32 -15v-56h35l38 40l39 -32q16 -12 10 -19q-5 -6 -22 -6h-100v-39zM793 914q-1 13 -3 31q-3 19 -4 25l61 -11q30 -6 24 -15q-5 -9 -32 -16v-54h49l39 38l46 -34q13 -9 8 -14
q-4 -5 -20 -5h-122v-41l1 -20q2 -14 0 -19q-5 -8 -24 -13q-19 -4 -23 0q-3 3 -1 17l1 15v61h-59l-8 17h67v38z" />
  </g>

</svg>
