<?xml version="1.0" standalone="no"?>
<!DOCTYPE svg PUBLIC "-//W3C//DTD SVG 1.1//EN" "http://www.w3.org/Graphics/SVG/1.1/DTD/svg11.dtd" >
<svg xmlns="http://www.w3.org/2000/svg" xmlns:xlink="http://www.w3.org/1999/xlink" version="1.1" viewBox="0 -205 1024 1024">
  <g transform="matrix(1 0 0 -1 0 819)">
   <path fill="currentColor"
d="M48 870h308v112l78 -28q10 -3 8 -12q0 -3 -36 -18v-54h228v110l80 -24q7 -4 8 -8q4 -8 -34 -22v-56h180l42 58l68 -68q6 -3 6 -8q-1 -10 -16 -10h-280v-18l2 -28q-1 -14 -22 -22q-21 -6 -36 -6l2 46v28h-228v-10l4 -38q-3 -15 -24 -24q-19 -8 -34 -6l4 56v22h-224
q-19 0 -68 -12l-16 40v0v0zM228 538l50 -40q8 -3 8 -12q1 -3 -34 -26v-294l100 74l12 -14q-135 -113 -138 -155l-64 52q39 23 40 55v296h-92q-12 0 -30 -8l-26 34h144l30 38v0v0zM470 534h338v78h-338v-78v0v0zM470 638h338v70h-338v-70v0v0zM158 748l8 14q66 -33 96 -62
q30 -28 30 -52q1 -22 -10 -32q-13 -10 -28 -8q-15 1 -18 20q-4 19 -20 50q-16 29 -58 70v0v0zM478 736h318l26 38l58 -42q9 -3 10 -12q1 -6 -28 -24v-128l4 -58q-1 -15 -22 -26q-21 -12 -36 -12v36h-240l20 -18q8 -7 8 -10q0 -4 -8 -8l-26 -6q-27 -22 -50 -44h354l26 32
l52 -34q12 -9 12 -14t-30 -34l-8 -182q-2 -69 -16 -103q-24 -44 -90 -70q-9 29 -24 42q-18 14 -86 34l2 18l102 -14q49 3 56 36q5 38 8 63l4 200h-220l58 -26q9 -5 4 -10l-12 -6q-42 -9 -60 -36q72 -20 90 -28q18 -6 42 -20q22 -15 26 -36q3 -19 -12 -28q-13 -8 -32 12
q-19 18 -40 36t-90 48q-68 -75 -130 -120l-8 8q132 157 148 206h-156q-40 -33 -82 -66q-39 -31 -102 -64l-10 12q144 103 240 230h-58v-2q1 -14 -10 -22q-28 -13 -46 -10l4 100v194l60 -32v0v0zM482 306q13 -4 14 -10q0 -6 -14 -14q-27 -9 -26 -18v-104h226l30 40l54 -56
q2 -4 2 -2q1 -7 -4 -7h-304l-32 -32l-44 39q25 14 26 44v148l72 -28v0v0z" />
  </g>

</svg>
