<?xml version="1.0" standalone="no"?>
<!DOCTYPE svg PUBLIC "-//W3C//DTD SVG 1.1//EN" "http://www.w3.org/Graphics/SVG/1.1/DTD/svg11.dtd" >
<svg xmlns="http://www.w3.org/2000/svg" xmlns:xlink="http://www.w3.org/1999/xlink" version="1.1" viewBox="0 -36 256 256">
  <g transform="matrix(1 0 0 -1 0 220)">
   <path fill="currentColor"
d="M67 125h20v27h-20v-27zM100 115l-13 -5v8h-20v-8l-13 -4q1 9 1 29.5t-1 32.5l13 -9h19l7 8l13 -11l-7 -5q0 -25 1 -36zM52 214q8 -11 0.5 -21t-10 4.5t-14.5 32.5l2 3q14 -8 22 -19zM95 186l-5 2q16 25 23 47l18 -13l-7 -3q-18 -20 -29 -33zM26 137.5q0 35.5 -1 52.5
l13 -8h32q0 49 -1 62l22 -10l-9 -8v-44h32l7 11l15 -13l-9 -7v-58q1 -22 -16 -28q0 12 -20 16v5q16 -1 20 -1t4 9v59h-76v-85l-14 -9q1 21 1 56.5zM183 146q14 24 19 46h-43q12 -33 24 -46zM161 199h52l12 13l14 -20h-22q-10 -33 -26 -56q27 -25 52 -29v-5q-16 0 -19 -10
q-20 11 -40 34q-22 -28 -57 -40l-1 4q32 20 50 46q-14 25 -21 49q-9 -20 -19 -32l-3 2q22 42 27 91l20 -11l-7 -7q-6 -12 -12 -29zM43 75q-1 -26 -5 -35t-11.5 -12t-14.5 1.5t6.5 13t20.5 32.5h4zM101 87q24 -9 31 -15.5t6.5 -14t-4 -10.5t-8.5 6.5t-26 30.5zM194 74
q28 -12 36 -17.5t8 -12.5t-4 -12t-10.5 6.5t-30.5 32.5zM71 80l25 -10l-10 -7v-24q0 -12 15 -12h49q17 -1 19 10.5t2 25.5h5q1 -17 4.5 -23.5t10.5 -10.5q-8 -14 -30 -14h-64q-25 -1 -25 17q0 24 -1 48z" />
  </g>

</svg>
