<?xml version="1.0" standalone="no"?>
<!DOCTYPE svg PUBLIC "-//W3C//DTD SVG 1.1//EN" "http://www.w3.org/Graphics/SVG/1.1/DTD/svg11.dtd" >
<svg xmlns="http://www.w3.org/2000/svg" xmlns:xlink="http://www.w3.org/1999/xlink" version="1.1" viewBox="0 -205 1024 1024">
  <g transform="matrix(1 0 0 -1 0 819)">
   <path fill="currentColor"
d="M492 972l86 -36q12 -6 6 -12q-1 -3 -40 -24v-344h324l40 54l70 -62q3 -4 4 -10q0 -7 -14 -8h-306q12 -66 54 -156q39 -87 114 -150q72 -61 168 -76v-17q-51 3 -72 -6q-19 -9 -34 -30q-55 40 -118 109t-92 154q-30 83 -50 172h-88v-409l170 89l10 -16q-133 -85 -166 -109
q-32 -24 -58 -66l-50 60q18 12 42 36v415h-48q-8 0 -46 -6l-16 32h110v416v0v0zM562 614q144 153 244 306l74 -40q8 -10 2 -16q-19 -3 -34 -8q-15 -3 -68 -60q-54 -54 -204 -198l-14 16v0v0zM26 740h172v232l66 -30q22 -8 12 -22l-28 -18v-162h68l30 40l50 -48q3 -3 4 -8
q0 -12 -14 -12h-138v-92q71 -37 98 -62q27 -23 34 -46q7 -22 0 -40q-8 -19 -28 -20q-18 0 -24 24q-4 24 -22 54q-16 30 -58 66v-426l4 -107q0 -14 -20 -26q-18 -12 -38 -12l4 147v360q-31 -84 -76 -164q-44 -79 -94 -136l-10 10q38 63 68 126q30 62 60 152q31 90 50 192
h-102q-6 0 -48 -8l-20 36v0v0z" />
  </g>

</svg>
