<?xml version="1.0" standalone="no"?>
<!DOCTYPE svg PUBLIC "-//W3C//DTD SVG 1.1//EN" "http://www.w3.org/Graphics/SVG/1.1/DTD/svg11.dtd" >
<svg xmlns="http://www.w3.org/2000/svg" xmlns:xlink="http://www.w3.org/1999/xlink" version="1.1" viewBox="0 -36 256 256">
  <g transform="matrix(1 0 0 -1 0 220)">
   <path fill="currentColor"
d="M161 168q16 14 28 34h-59l-2 -2q18 -24 33 -32zM85 167q34 36 47 79l21 -13l-9 -5q-5 -8 -13 -19h74l13 13l18 -20h-28q-20 -27 -36 -40q28 -16 74 -16l-1 -5q-18 -1 -18 -14q-39 8 -66 26q-35 -21 -89 -30l-1 6q55 14 79 32q-16 15 -27 35q-14 -18 -36 -32zM174 129
l-9 -7q-1 -22 3 -38q30 13 50 32l15 -19l-10 1q-16 -7 -54 -19q18 -45 78 -52v-4q-17 -2 -20 -13q-53 22 -67 72q-10 -50 -87 -73l-2 5q51 20 66 48t11 78zM88 107l2 4q27 -12 32.5 -20t-1 -17.5t-11.5 4.5t-22 29zM50 64v98q-21 -27 -38 -42l-2 3q13 16 22.5 31t24.5 43
t22 48l18 -15q-4 -2 -14 -16t-23 -37l12 -8l-8 -7v-146l-15 -7q1 27 1 55z" />
  </g>

</svg>
