<?xml version="1.0" standalone="no"?>
<!DOCTYPE svg PUBLIC "-//W3C//DTD SVG 1.1//EN" "http://www.w3.org/Graphics/SVG/1.1/DTD/svg11.dtd" >
<svg xmlns="http://www.w3.org/2000/svg" xmlns:xlink="http://www.w3.org/1999/xlink" version="1.1" viewBox="0 -339 2048 2048">
  <g transform="matrix(1 0 0 -1 0 1709)">
   <path fill="currentColor"
d="M1287 925v-217h440l101 101l122 -106q14 -12 16 -16q2 -5 2 -10q0 -10 -7 -17q-8 -10 -21 -10h-653v-270q0 -8 6 -101q5 -69 7 -94q3 -42 3 -64q0 -23 -8 -35q-8 -11 -25 -17q-17 -7 -36 -7q-23 0 -36 8q-12 7 -12 42v538h-397q-117 0 -196 -8l-39 88q31 -7 53 -10
q71 -12 182 -12h397v217h-239v-19q0 -22 -18 -31q-17 -9 -41 -9q-25 0 -38 9q-7 5 -10 13t-3 24l12 203v253l115 -72h527l69 76l84 -54q31 -20 37 -29q6 -8 6 -19q0 -16 -12 -27t-30 -19q-16 -7 -37 -16v-202l36 -23q22 -14 22 -36q0 -13 -11 -19q-4 -3 -11 -3h-357z
M947 983h561v257h-561v-257zM750 1490q-1 -31 -7 -74q-6 -49 -14 -72q-16 -43 -42 -70q-30 -31 -64 -31q-27 0 -40 17q-9 12 -9 28t16 35q5 6 46 46q31 29 49 75q16 41 21 104q2 22 4 71h40v-45v-28h437v243q-3 133 -3 136q0 10 -2 24l110 -25q55 -12 69 -20q17 -11 17 -24
q0 -12 -10 -22q-12 -13 -40 -21l-40 -11v-280h481l62 73l103 -78q12 -10 20 -22q7 -10 7 -21t-10 -19q-7 -6 -32 -10l-50 -10q-63 -68 -127 -130l-32 23q21 45 31 68t28 70h-1019zM1613 1905l135 -58q23 -9 29 -19q4 -6 3 -13q-1 -8 -8 -15q-11 -10 -28 -11l-57 -3
q-66 -80 -110 -121q-33 -30 -92 -74l-29 28q40 51 61 84q43 65 69 128q11 26 27 74zM814 1886q56 -26 89 -48q74 -48 105 -85q35 -41 35 -81q0 -29 -18 -45q-15 -12 -34 -12q-27 0 -44 27q-4 7 -30 68q-22 51 -65 94q-18 18 -58 51zM1486 539q135 -70 187 -104
q76 -50 138 -106q66 -60 66 -120q0 -42 -28 -60q-14 -9 -31 -9q-20 0 -37 15q-9 7 -24 35l-20 38q-24 47 -75 109q-35 42 -80 78q-9 7 -121 90zM875 564l120 -58q27 -14 34 -33q1 -4 1 -5q1 -6 -8 -13q-12 -12 -32 -13l-48 -4q-63 -70 -101 -107q-41 -39 -92 -81
q-40 -32 -72 -53q-24 -16 -115 -69l-26 32q67 52 110 94q77 75 136 154q36 49 64 100q10 18 29 56zM206 1885q130 -48 204 -95q64 -41 95 -88q24 -36 24 -69q0 -20 -11 -33q-14 -15 -39 -15q-20 0 -36 11q-14 9 -37 51q-47 83 -136 148q-33 24 -86 54zM99 1387
q78 -30 101.5 -40t50.5 -25q75 -41 130 -90q59 -54 59 -103q0 -28 -18 -44q-15 -13 -35 -13q-17 0 -34 11q-13 9 -44 61q-29 48 -91 107q-29 28 -56 47q-17 12 -85 55zM484 909l31 -21q-13 -44 -20.5 -63.5t-31.5 -76.5q-12 -29 -88 -208q-31 -73 -101 -217
q-21 -44 -58 -112q5 -26 5 -38q0 -34 -11 -56q-3 -6 -10 -6t-15 6q-10 7 -27 31l-73 108q76 97 117 156q70 101 176 294q47 85 106 203z" />
  </g>

</svg>
