<?xml version="1.0" standalone="no"?>
<!DOCTYPE svg PUBLIC "-//W3C//DTD SVG 1.1//EN" "http://www.w3.org/Graphics/SVG/1.1/DTD/svg11.dtd" >
<svg xmlns="http://www.w3.org/2000/svg" xmlns:xlink="http://www.w3.org/1999/xlink" version="1.1" viewBox="0 -36 256 256">
  <g transform="matrix(1 0 0 -1 0 220)">
   <path fill="currentColor"
d="M73 176l21 -10l-7 -7v-12l14 3l6 10l13 -6l11 23h-86v-58q-1 -74 -34 -112l-4 3q15 27 19.5 55t5 62t-1.5 67l16 -10h32q0 45 -1 62l23 -9l-9 -8v-15h28l10 12l15 -19h-53v-23h40l8 9l14 -15q-9 -2 -28 -26l-2 -4l-36 -8v-14q0 -8 8 -8h18q8 0 12 2.5t9 -5.5t-3.5 -8
h-17.5h-23q-15 0 -15 18v12l-12 -2l-7 -4l-9 8l28 6q0 18 -2 31zM72 38h43v45h-43v-45zM58 56q0 21 -1 40l15 -6h43l8 8l14 -12l-8 -4q0 -42 1 -56l-15 -4v9h-43v-11l-15 -5q1 20 1 41zM225.5 201q4.5 -8 -2.5 -17t-10 4t-13 28l2 3q19 -10 23.5 -18zM174 247l22 -12l-8 -8
v-65h31l13 13l13 -20h-50q14 -110 52 -132v-4q-14 -2 -19 -9q-36 45 -37 145h-3q-4 -109 -67 -148l-3 4q55 51 56 144h-10q-6 0 -14 -2l-8 9h32v85z" />
  </g>

</svg>
