<?xml version="1.0" standalone="no"?>
<!DOCTYPE svg PUBLIC "-//W3C//DTD SVG 1.1//EN" "http://www.w3.org/Graphics/SVG/1.1/DTD/svg11.dtd" >
<svg xmlns="http://www.w3.org/2000/svg" xmlns:xlink="http://www.w3.org/1999/xlink" version="1.1" viewBox="0 0 2048 2048">
  <g transform="matrix(1 0 0 -1 0 2048)">
   <path fill="currentColor"
d="M269 803v-17q0 -13 -5 -22q-6 -9 -20 -15t-42 -3q-13 1 -22 5t-14 17q-5 12 -3 31l5 51q1 14 2 30l1 37l4 79v379q-39 -33 -47 -38l-49 -33l-22 36l57 55q33 32 62 63q30 31 71 88q41 56 72 106t53 91q21 41 40 88t27 74l14 47l123 -46q38 -15 42 -31t-3 -24t-32 -14
l-41 -11q-27 -43 -31 -49l-45 -72l312 -1l64 72l113 -79q16 -12 19 -27q4 -16 -5 -27t-34 -15q-25 -5 -27 -5l-23 -7l-73 -94q-37 -46 -65 -76l-73 -79h261l51 68l91 -57q21 -14 19 -34q-2 -21 -7 -23l-51 -31v-340l6 -74q3 -53 6 -69q2 -16 2 -22q-2 -16 -12 -27t-29 -16
q-19 -6 -39 1q-19 5 -24 15q-5 9 -5 20v23l-155 2v-515q0 -40 17 -58t43 -25t88 -13q63 -5 94 -5h439q108 0 169 4q60 4 97 9q37 6 60 18q23 13 33 27q9 14 25 77l48 190l34 -8l-13 -142q-5 -44 -4 -66q0 -23 11 -40q11 -18 31 -35q19 -17 24 -33q6 -16 -32 -41
q-17 -12 -62 -20t-68 -11q-22 -4 -67 -8t-125 -7q-79 -3 -151 -3h-387q-103 0 -182 6q-80 6 -110 16q-31 9 -52 22q-20 13 -30 28q-11 14 -18 38q-7 25 -7 62v533l-128 -1q-4 -39 -7 -57t-14 -61q-10 -43 -20 -76q-9 -34 -32 -92q-22 -57 -56 -113t-70 -102q-37 -46 -74 -85
q-37 -40 -78 -77q-40 -37 -66 -57l-39 -30l-22 32l55 55q25 26 51 57q26 30 61 79t60 89q26 41 46 80q19 38 31 69t27 78t20 68l13 60q6 30 7 31l6 53h-195zM943 1118l-1 197h-285v-197h286zM943 1062h-286v-204h286v204zM562 858v204h-293v-204h293zM266 1367l348 -2
l76 130l88 155l-347 1l-89 -113q-44 -54 -75 -80l-64 -56zM269 1316v-198h293l-1 198h-292zM1722 1478l64 72l83 -55q23 -16 31 -25q8 -10 8 -24q1 -14 -10 -26q-10 -11 -30 -19l-26 -11q-6 -115 -8 -172l-6 -170q-5 -136 -12 -239q-8 -103 -18 -187q-11 -83 -22 -120
q-12 -37 -24 -62q-13 -24 -30 -44q-18 -20 -40 -37t-45 -27q-23 -9 -41 -14l-39 -11q0 28 -5 45q-6 16 -26 34t-79 38l-70 24l-43 14l8 46l44 -14q18 -6 78 -21q59 -15 89.5 -19.5t48 1.5t34.5 20t26 29q10 16 18 39q9 23 16 49q6 27 16 102q11 74 16 144q4 69 8 175l7 186
l4 114l4 110l-303 -1q-2 -49 -3 -86q-1 -36 -4 -93t-9 -123q-7 -65 -22 -140q-16 -74 -33 -126t-45 -109q-27 -57 -55 -101q-28 -43 -69 -94q-42 -51 -108 -113q-67 -62 -97 -84l-30 -23l-24 30q27 24 58 54q31 31 75 86q44 56 83 114t59 96q20 39 44 102t39 130
q15 68 23 130t12 102q3 41 6 108q4 68 5 97l1 43h-65q-24 0 -57 -2q-32 -3 -41 -4q-9 0 -26 -2l-24 -3l-40 86q27 -5 37 -6q11 -1 52 -5q41 -5 56 -6t43 -1l65 -1q-1 14 0 30q0 17 2 115q1 98 -1 173l-3 80l-1 31l101 -16q53 -9 67 -21t13 -29q0 -17 -25 -26l-54 -20
l-3 -216l-1 -50l-1 -51h274z" />
  </g>

</svg>
