<?xml version="1.0" standalone="no"?>
<!DOCTYPE svg PUBLIC "-//W3C//DTD SVG 1.1//EN" "http://www.w3.org/Graphics/SVG/1.1/DTD/svg11.dtd" >
<svg xmlns="http://www.w3.org/2000/svg" xmlns:xlink="http://www.w3.org/1999/xlink" version="1.1" viewBox="0 -36 256 256">
  <g transform="matrix(1 0 0 -1 0 220)">
   <path fill="currentColor"
d="M121 145q0 -11 1 -25l-13 -6v12h-77l-6 -7l-13 10l5 5q0 67 -1 79l19 -7l-5 -6v-67h78v50q0 19 -1 30l21 -8l-8 -8v-52zM105 221q-4 -3 -10 -11.5t-15 -21.5q15 -16 19 -23t0 -14.5t-9.5 4t-15.5 24.5q-7 -8 -17.5 -18t-22.5 -18l-1 3q11 11 18.5 20.5t14.5 20.5
q-4 6 -24 28l2 2q15 -11 27 -21q15 20 21 36zM64 163q16 -8 16 -13.5t-4.5 -9t-6 3.5t-7.5 18zM39 200q12 -8 15 -13t-1.5 -11.5t-6.5 2t-9 20.5zM92 200q11 -7 14.5 -12t-1 -11t-6.5 2t-9 19zM57 237q13 -5 17.5 -11t-1 -12t-7.5 2.5t-11 18.5zM149 134h30v54h-30v-54z
M191 134h29v54h-29v-54zM151 195h28v29q0 6 -2 23l19 -7l-5 -6v-39h28l6 9l14 -11l-6 -8v-39q0 -9 1 -23l-14 -6v10h-29q-1 -40 -9 -65q10 -10 26 -19t40 -14v-4q-15 -3 -20 -14q-14 8 -26 16.5t-27 23.5q-15 -20 -34.5 -29.5t-37.5 -12.5l-1 4q15 5 35 17t30 30
q-12 23 -21 52l4 2q12 -26 22 -42q5 21 7 55h-30v-7l-13 -6q1 16 1 27q0 46 -1 63zM29 120l20 -7l-6 -8v-13h41l12 10l14 -17h-67v-51l70 21l1 -4q-66 -26 -77 -38l-11 15q4 4 4 12v52q0 5 -1 28z" />
  </g>

</svg>
