<?xml version="1.0" standalone="no"?>
<!DOCTYPE svg PUBLIC "-//W3C//DTD SVG 1.1//EN" "http://www.w3.org/Graphics/SVG/1.1/DTD/svg11.dtd" >
<svg xmlns="http://www.w3.org/2000/svg" xmlns:xlink="http://www.w3.org/1999/xlink" version="1.1" viewBox="0 -36 256 256">
  <g transform="matrix(1 0 0 -1 0 220)">
   <path fill="currentColor"
d="M24 46l-12 15q7 5 7 13q0 101 -1 123l20 -12l-7 -7v-112l16 4q0 159 -1 176l18 -10l-5 -7v-157l16 3q0 100 -1 121l20 -12l-7 -7v-66q0 -25 1 -49l-13 -8v16q-46 -15 -51 -24zM224 193h-110q1 -9 -2.5 -15t-9.5 -7t-8.5 3t4 10t10.5 26h4l1 -10h46q0 19 -1 45l21 -10
l-8 -6v-29h51l8 9l16 -16q-13 0 -29 -20l-3 2zM138 158h54v18h-54v-18zM205 151l-13 -7v7h-54v-3l-13 -4q1 14 1 22.5t-1 22.5l13 -6h53l6 6l12 -10l-5 -5q0 -12 1 -23zM113 114q0 19 -1 30l13 -6h82l6 7l14 -10l-7 -6q0 -19 1 -38l-13 -3v3h-37v-12h32l10 8l12 -15h-54v-13
h48l11 11l15 -18h-129q-10 0 -19 -2l-9 9h71v13h-23q-10 0 -19 -2l-9 9h51v12h-35v-2l-13 -4q2 10 2 29zM125 98h34v33h-34v-33zM171 98h37v33h-37v-33zM150.5 118q5.5 -6 3 -11t-5.5 -7t-6.5 7.5t-11.5 19.5l2 2q13 -5 18.5 -11zM204 119q-12 -4 -26 -18l-3 2q10 16 13 27z
M110.5 26q-2.5 -9 -9 -12.5t-13.5 -0.5t5.5 12.5t14.5 21.5h4q1 -12 -1.5 -21zM156.5 30q2.5 -5 0.5 -11.5t-7 -7.5t-6.5 9t-11.5 26l3 2q19 -13 21.5 -18zM194 35q6 -5 5 -12t-6 -10.5t-8.5 8t-14.5 25.5l2 2q16 -8 22 -13zM236 34.5q7 -7.5 6 -13.5t-6 -8.5t-8.5 8
t-16.5 25.5l2 3q16 -7 23 -14.5zM143.5 224q5.5 -5 4 -11t-5.5 -8t-8.5 7.5t-19.5 21.5l2 3q22 -8 27.5 -13zM204.5 217q-7.5 -6 -16.5 -13l-3 2q16 19 22 35l17 -13q-12 -5 -19.5 -11z" />
  </g>

</svg>
