<?xml version="1.0" standalone="no"?>
<!DOCTYPE svg PUBLIC "-//W3C//DTD SVG 1.1//EN" "http://www.w3.org/Graphics/SVG/1.1/DTD/svg11.dtd" >
<svg xmlns="http://www.w3.org/2000/svg" xmlns:xlink="http://www.w3.org/1999/xlink" version="1.1" viewBox="0 -36 256 256">
  <g transform="matrix(1 0 0 -1 0 220)">
   <path fill="currentColor"
d="M90 159l-13 -9v12h-12v-45h11l9 11l13 -18h-33v-58l30 10l1 -4q-32 -13 -66 -31l-9 -9l-12 17l14 4q0 77 -1 99l19 -14l-6 -7v-73l17 5v113h-21v-6l-14 -8q2 15 2 44.5t-2 46.5l16 -9h41l9 10l12 -15l-6 -6q0 -39 1 -60zM31 169h46v54h-46v-54zM164 137h30v19h-30v-19z
M152 156h-20v-45h69l11 10l15 -17h-53v-21h45l10 11l16 -18h-65q10 -17 29.5 -29.5t37.5 -14.5v-4q-13 -3 -16 -11q-20 10 -33.5 24t-22.5 35h-1v-31q0 -9 1 -31l-15 -6q1 24 1 30v31q-20 -25 -38.5 -36.5t-37.5 -18.5l-2 3q28 14 44.5 31t24.5 28h-27q-10 0 -19 -2l-10 9
h65v21h-29l-7 -7l-12 12l7 6v41q-7 0 -17 -2l-9 9h26q0 9 -1 23l19 -9l-6 -7v-7h20q0 11 -1 26l20 -9l-7 -7v-10h30q0 11 -1 27l20 -9l-7 -7v-11h10l10 10l15 -17h-35q0 -20 1 -31l-13 -6v11h-30v-6l-13 -6q1 14 1 38zM182 189v21h-32v-17l-14 -6v23h-13q-10 0 -20 -2l-9 9
h42v14q0 8 -1 16l21 -8l-6 -6v-16h32v14q0 7 -1 15l22 -8l-7 -6v-15h21l11 12l16 -19h-48v-15z" />
  </g>

</svg>
