<?xml version="1.0" standalone="no"?>
<!DOCTYPE svg PUBLIC "-//W3C//DTD SVG 1.1//EN" "http://www.w3.org/Graphics/SVG/1.1/DTD/svg11.dtd" >
<svg xmlns="http://www.w3.org/2000/svg" xmlns:xlink="http://www.w3.org/1999/xlink" version="1.1" viewBox="0 -36 256 256">
  <g transform="matrix(1 0 0 -1 0 220)">
   <path fill="currentColor"
d="M95.5 81q-16.5 -33 -52.5 -57l-2 4q34 31 52 77q6 16 9 34h-33l-16 -3l-9 10h58l8 10l15 -16l-8 -5q-5 -21 -21.5 -54zM141 240l15 -8h62l8 11l15 -11l-8 -9v-190q0 -20 -22 -26q-3 15 -29 20v4q24 -2 30.5 -1.5t6.5 10.5v125h-64v-4l-14 -4v83zM155 202h64v23h-64v-23z
M155 195v-23h64v23h-64zM38 232h61l7 11l16 -13l-7 -8v-26q0 -15 1 -33l-15 -6v8h-64v-150l-15 -8q1 20 1 43v145q0 23 -1 45zM37 195v-23h64v23h-64zM37 225v-23h64v23h-64zM114 31q-39 39 -50 111h5q26 -86 63 -95v-4q-13 -1 -18 -12zM178 82q-16 -32 -54 -58l-2 4
q34 30 52 77q6 18 9 34h-33l-16 -3l-9 10h58l8 10l16 -15l-9 -6q-4 -21 -20 -53zM197 33q-38 32 -53 109h5q27 -81 65 -95v-4q-14 -1 -17 -10z" />
  </g>

</svg>
