<?xml version="1.0" standalone="no"?>
<!DOCTYPE svg PUBLIC "-//W3C//DTD SVG 1.1//EN" "http://www.w3.org/Graphics/SVG/1.1/DTD/svg11.dtd" >
<svg xmlns="http://www.w3.org/2000/svg" xmlns:xlink="http://www.w3.org/1999/xlink" version="1.1" viewBox="0 -205 1024 1024">
  <g transform="matrix(1 0 0 -1 0 819)">
   <path fill="currentColor"
d="M68 782h414v98q-137 -9 -334 -14v18q196 15 344 36q148 18 266 46q57 -51 58 -56q1 -6 -4 -8q-3 -3 -24 0q-19 3 -38 4q-18 1 -62 -4q-45 -5 -156 -16v-104h308l42 52l66 -60q3 -3 4 -8q-1 -10 -16 -10h-404v-34q100 -21 188 -48q88 -25 146 -58q57 -33 60 -60
q2 -27 -16 -32q-18 -6 -42 16q-23 21 -70 54q-47 30 -106 54q-58 24 -160 54v-40q0 -14 -20 -22q-9 -8 -30 -6v120h-28q-99 -99 -198 -162q-99 -60 -218 -108l-8 14q104 56 194 116q87 57 166 142h-240q-21 0 -66 -8l-16 34v0v0zM544 612q6 -6 6 -8q0 -3 -8 -6l-10 -2
q60 -48 142 -92q82 -45 152 -66q70 -22 164 -22v-18q-47 -3 -64 -12q-16 -10 -34 -34q-97 38 -152 68q-53 30 -112 72q-57 39 -116 96q-71 -66 -136 -114q-63 -49 -150 -100q-87 -49 -186 -82l-6 12q99 52 174 98q74 45 140 102q66 54 130 126l66 -18v0v0zM488 496l80 -26
q9 -3 6 -12q0 -1 -38 -20v-150l62 -18q69 68 108 116q57 -43 58 -50t-4 -8q-3 -1 -20 -2q-17 1 -40 -10q-21 -12 -78 -54q66 -21 124 -50q56 -30 76 -54q19 -23 14 -41q-4 -18 -22 -22q-19 -3 -38 24q-18 27 -68 63q-52 36 -172 88v-157q0 -42 -18 -60q-18 -17 -60 -26
q-4 34 -38 50q-30 15 -78 30l8 16q57 -14 82 -20q24 -5 42 -2q16 3 14 36v155q-229 -127 -248 -142q-18 -14 -48 -41l-42 45l338 160v182v0v0zM284 384l6 12q63 -24 88 -44q21 -19 22 -38q-1 -19 -14 -26q-11 -8 -22 0q-9 6 -14 24q-6 17 -20 32q-13 14 -46 40v0v0z" />
  </g>

</svg>
