<?xml version="1.0" standalone="no"?>
<!DOCTYPE svg PUBLIC "-//W3C//DTD SVG 1.1//EN" "http://www.w3.org/Graphics/SVG/1.1/DTD/svg11.dtd" >
<svg xmlns="http://www.w3.org/2000/svg" xmlns:xlink="http://www.w3.org/1999/xlink" version="1.1" viewBox="0 -200 1003 1000">
  <g transform="matrix(1 0 0 -1 0 800)">
   <path fill="currentColor"
d="M143 596l-46 -16l-8 10q61 23 121 59q57 34 118 82l41 -30q20 -13 17 -17q-3 -8 -44 -2q-55 -27 -91 -42q-50 -23 -94 -38zM487 632v112h-222q-24 0 -41 -1q-12 -1 -25 -3l-12 30l63 -2h445l45 39l55 -36q12 -18 7 -23q-3 -4 -19 -4h-231q21 -6 8 -14q-7 -4 -28 -9l-3 -2
v-42l1 -40q1 -14 -3 -18q-4 -7 -20 -11q-14 -3 -18 0q-3 3 -2 14v10zM640 723q92 -21 137 -41q46 -22 51 -47q3 -20 -7 -25q-10 -6 -33 11q-19 20 -60 45q-44 27 -93 47zM551 945q34 -10 35 -19q0 -8 -33 -17v-37h282l35 36l41 -36q33 -28 30 -36t-45 -5q-14 -17 -37 -37
q-15 -14 -41 -35l-10 6l14 32l28 50h-655q-5 -18 -15 -50q-11 -34 -21 -53q-13 -21 -27 -25q-12 -4 -20 6q-8 9 -7 26q0 18 13 35q25 37 42 73q18 40 19 69h16q3 -15 3 -27q-1 -13 -3 -29h307v42l-2 47zM271 495h214v-73h-214v73zM485 392v-77h-214v77h214zM753 495v-73
h-219v73h219zM753 392v-77h-219v77h219zM221 491v-69h-94l-69 2l14 -36l70 4h79v-77h-93l-65 4l14 -39l66 4h78v-160l-1 -13q-2 -15 1 -19q4 -5 20 -3q22 5 28 18q4 8 2 27v11v139h482v-108q-1 -14 -5 -19q-4 -4 -15 -4q-37 0 -69 1q-41 2 -65 4v-17q70 -12 90 -23
q18 -10 26 -39q49 12 69 35q19 20 19 56v114h139q15 0 20 6q5 10 -9 29l-60 46l-45 -50h-45v77h139q16 0 20 5q4 10 -10 30l-56 41l-45 -46h-48v66q32 3 36 12q3 9 -20 26l-46 31l-39 -32h-200v27q23 3 33 12q12 11 -26 18l-56 15v-72h-215l-53 30z" />
  </g>

</svg>
