<?xml version="1.0" standalone="no"?>
<!DOCTYPE svg PUBLIC "-//W3C//DTD SVG 1.1//EN" "http://www.w3.org/Graphics/SVG/1.1/DTD/svg11.dtd" >
<svg xmlns="http://www.w3.org/2000/svg" xmlns:xlink="http://www.w3.org/1999/xlink" version="1.1" viewBox="0 -36 256 256">
  <g transform="matrix(1 0 0 -1 0 220)">
   <path fill="currentColor"
d="M50 154q14 34 15 47l17 -9q-5 -5 -15.5 -30.5t-42.5 -85.5l36 5q-4 15 -10 30l3 2q13 -16 18 -25t3 -16t-6 -10.5t-5 3t-2 11.5q-19 -7 -28 -10t-16 -8l-9 16q6 1 17 22.5t23 51.5q-17 -4 -21 -6t-9 -6l-9 16q6 2 11 14.5t11 32.5t9 39l20 -8q-7 -10 -17 -33.5t-21 -43.5
zM104 173h17l6 10l15 -10l-6 -7q-3 -85 -6.5 -108.5t-9.5 -29t-15 -10.5q-3 13 -23 21l1 4q21 -4 25.5 -3t7.5 21t6 105h-18q-1 -62 -14.5 -94t-49.5 -58l-3 3q32 29 42.5 61.5t11.5 87.5q-6 0 -10 -2l-8 9h18q1 51 0 70l21 -7l-7 -9q-1 -34 -1 -54zM166 185h57l7 11l16 -15
q-14 -5 -30 -32l-3 1l10 28h-58q-12 -31 -28 -54l-3 2q14 31 21.5 65t9.5 55l21 -9l-8 -9q-3 -12 -12 -43zM198 156l-7 -8q8 -57 22.5 -85t31.5 -37l-1 -3q-16 -1 -18 -8q-19 24 -27.5 53t-10.5 65q-5 -50 -22 -79t-45 -47l-1 3q25 23 39.5 58t17.5 96z" />
  </g>

</svg>
