<?xml version="1.0" standalone="no"?>
<!DOCTYPE svg PUBLIC "-//W3C//DTD SVG 1.1//EN" "http://www.w3.org/Graphics/SVG/1.1/DTD/svg11.dtd" >
<svg xmlns="http://www.w3.org/2000/svg" xmlns:xlink="http://www.w3.org/1999/xlink" version="1.1" viewBox="0 -36 256 256">
  <g transform="matrix(1 0 0 -1 0 220)">
   <path fill="currentColor"
d="M59 246l19 -9l-6 -7v-31h21l9 9l11 -15q-9 0 -26 -26l-2 2l9 23h-22v-53h13l7 7l11 -11l-6 -5q-12 -42 -25 -65q13 -27 32 -35l-1 -4q-11 0 -15 -8q-11 10 -24 35q-18 -29 -41 -47l-3 3q21 22 39 57q-11 33 -15 66h-7q0 -36 -8 -66.5t-23 -51.5l-1 2q8 21 13 45.5t6.5 60
t-0.5 86.5l13 -9h23v18q0 16 -1 29zM37 139h23v53h-23v-53zM66 78q13 28 18 54h-35q7 -34 17 -54zM153 243q16 -8 24 -15t-1 -22h40l14 11l14 -18h-104q-11 0 -20 -2l-10 9h60q-2 15 -19 33zM147 161l15 -11q-6 -9 -19 -34.5t-24 -38.5l23 3q4 13 4 24l17 -9l-5 -5
q-10 -36 -22 -53.5t-39 -28.5l-1 2q33 25 44 64q-25 -8 -30 -14l-7 15q8 -1 32 48q-23 -6 -26 -11l-8 15q6 1 18.5 26.5t14.5 40.5l15 -12q-7 -7 -16.5 -24t-20.5 -31q13 1 25 2q9 21 10 32zM181 117h19v29h-19v-29zM181 81h19v29h-19v-29zM181 38h19v36h-19v-36zM218.5 179
q4.5 -7 -2 -14.5t-8.5 2t-12 26.5l2 3q16 -10 20.5 -17zM169 46v84q-4 -11 -17 -24l-1 3q11 21 18.5 46t7.5 37l17 -11q-4 -3 -7 -11t-6 -17h37l10 9l13 -16h-29v-29h5l10 9l12 -16h-27v-29h5l10 9l12 -16h-28v-36h8l10 10l13 -17h-61v-16l-13 -6q1 20 1 37z" />
  </g>

</svg>
