<?xml version="1.0" standalone="no"?>
<!DOCTYPE svg PUBLIC "-//W3C//DTD SVG 1.1//EN" "http://www.w3.org/Graphics/SVG/1.1/DTD/svg11.dtd" >
<svg xmlns="http://www.w3.org/2000/svg" xmlns:xlink="http://www.w3.org/1999/xlink" version="1.1" viewBox="0 -205 1024 1024">
  <g transform="matrix(1 0 0 -1 0 819)">
   <path fill="currentColor"
d="M260 594h152v192l80 -32l6 -4q1 -10 -4 -10l-34 -20v-126h52l30 40l46 -48q2 -4 2 -8q0 -12 -12 -12h-118v-82q44 -25 76 -46q30 -22 36 -46q7 -25 -4 -40q-12 -16 -30 -16q-19 0 -22 28q-4 26 -16 50q-11 21 -40 46v-300l4 -99q1 -15 -22 -30q-22 -14 -34 -14l4 141v288
q-45 -92 -90 -154q-43 -63 -112 -128l-12 10q39 54 76 108q33 53 72 134q38 81 62 150h-80q-20 0 -52 -8l-16 36v0v0zM606 596h110v186l74 -30q9 -6 10 -6q0 -9 -8 -12l-28 -12v-126h78l36 46l58 -58l2 -4q0 -12 -12 -12h-136q30 -117 46 -156t38 -78q21 -39 54 -66
q30 -28 66 -40v-14q-34 0 -52 -6q-18 -3 -38 -24q-35 48 -58 96q-21 45 -38 96q-18 48 -38 190h-6v-410l4 -93q0 -14 -18 -26q-19 -12 -38 -12l4 127v320q-35 -78 -88 -158q-53 -78 -118 -146l-12 12q48 72 84 132q34 60 62 120q28 59 56 136h-44q-12 0 -30 -8l-20 36v0v0z
M858 844l44 54l66 -62l2 -4q0 -12 -8 -12h-726v-238q-6 -235 -44 -346q-37 -111 -148 -217l-12 12q80 102 112 203q32 99 38 262q-91 -85 -110 -124l-50 54l162 98v372l60 -52h614v0v0zM468 962l6 14q66 -16 94 -28q26 -9 40 -30q12 -20 4 -40q-9 -18 -32 -20q-22 -1 -28 22
q-7 20 -22 38q-13 14 -62 44v0v0zM44 758l12 8q45 -39 70 -74q21 -34 24 -64q3 -28 -8 -44q-10 -14 -22 -16q-11 -1 -22 8q-13 9 -10 36q0 27 -8 66q-6 37 -36 80v0v0z" />
  </g>

</svg>
