<?xml version="1.0" standalone="no"?>
<!DOCTYPE svg PUBLIC "-//W3C//DTD SVG 1.1//EN" "http://www.w3.org/Graphics/SVG/1.1/DTD/svg11.dtd" >
<svg xmlns="http://www.w3.org/2000/svg" xmlns:xlink="http://www.w3.org/1999/xlink" version="1.1" viewBox="0 -246 2048 2048">
  <g transform="matrix(1 0 0 -1 0 1802)">
   <path fill="currentColor"
d="M461 967v324h-338l-14 51h352v250q-109 -113 -254 -193l-29 41q240 183 398 506q147 -59 147 -97q0 -28 -84 -34q-28 -47 -71 -105h1052l92 119q90 -76 133 -129l-22 -41h-240v-317h145l97 117q83 -73 123 -125l-23 -43h-342v-324h104l89 123q91 -81 129 -127l-23 -47
h-1706l-14 51h299zM576 1659v-317h214v317h-214zM576 1291v-324h214v324h-214zM901 1659v-317h223v317h-223zM901 1291v-324h223v324h-223zM1235 1659v-317h233v317h-233zM1235 1291v-324h233v324h-233zM1057 553q-107 -430 -951 -475l-18 49q445 39 675 208
q191 140 191 339v197q199 -3 199 -43q0 -24 -82 -51v-103q15 -125 154 -233q203 136 358 321q147 -80 147 -114q0 -25 -59 -25q-25 0 -41 2q-148 -114 -356 -217q134 -84 333 -138q179 -48 355 -57q-64 -46 -102 -112q-459 61 -680 276q-85 85 -123 176zM359 330
q-70 0 -70 68q0 34 61 65q170 81 225 262l50 -16q-22 -174 -111 -285q-79 -94 -155 -94z" />
  </g>

</svg>
