<?xml version="1.0" standalone="no"?>
<!DOCTYPE svg PUBLIC "-//W3C//DTD SVG 1.1//EN" "http://www.w3.org/Graphics/SVG/1.1/DTD/svg11.dtd" >
<svg xmlns="http://www.w3.org/2000/svg" xmlns:xlink="http://www.w3.org/1999/xlink" version="1.1" viewBox="0 -52 256 256">
  <g transform="matrix(1 0 0 -1 0 204)">
   <path fill="currentColor"
d="M19 194h39v34h-26q-5 1 -10 -3l-8 8h74l6 9l15 -10q3 -2 2 -3q0 -1 -4 -1h-39v-34h16l6 10l14 -12l3 -2q-1 -1 -5 -1h-34v-36h23l8 11l12 -12q3 -2 2 -3q0 -1 -4 -1h-78q-5 1 -11 -3l-7 8h45v36h-21q-6 0 -10 -3zM21 110q0 4 -5 10l2 2l18 -9q4 -1 2 -3q-5 -2 -7 -5v-61
h27v90q0 4 -6 10l2 3l19 -9q3 0 1 -2h-1q-2 -1 -6 -5v-87h29v62q1 3 -7 12l2 3l19 -10q3 0 2 -2l-1 -1q-4 -2 -6 -5v-46l1 -23q0 -8 -10 -12v18h-62l-8 -9l-13 9q9 5 8 10v60zM130 156l10 -10h75l9 9l11 -10q2 -2 1 -3q0 -1 -3 -1l-4 -3v-33l1 -18q0 -8 -11 -8v9h-33v-28h41
l8 10l17 -12q2 -1 2 -2q-1 -1 -3 -1h-65v-22l1 -11q1 -9 -13 -11q1 4 1 15q1 10 1 15v14h-47q-7 0 -11 -3l-9 8h67v28h-33v-3q1 -9 -12 -11q2 9 2 29v40q0 6 -5 11zM143 119h76v23h-76v-23zM219 115h-76v-23h76v23zM203 211l16 -8q5 -2 2 -3q-5 0 -8 -2q-3 -3 -7 -10
q-7 -10 -11 -15h31l8 11l17 -13q4 -2 -1 -2h-120q-7 0 -11 -4l-9 8h81l5 11q7 16 7 19q1 3 -2 7zM123 221h90l8 10l17 -12q2 -2 1 -2q0 -1 -3 -1h-94q-5 1 -11 -3zM154 252v2q26 -8 30 -17q5 -12 -4 -14q-3 -1 -5 6q-1 7 -6 10q-3 4 -15 13zM140 207l1 3q36 -19 22 -32
q-3 0 -5 5q-1 5 -6 11q-4 7 -12 13z" />
  </g>

</svg>
