<?xml version="1.0" standalone="no"?>
<!DOCTYPE svg PUBLIC "-//W3C//DTD SVG 1.1//EN" "http://www.w3.org/Graphics/SVG/1.1/DTD/svg11.dtd" >
<svg xmlns="http://www.w3.org/2000/svg" xmlns:xlink="http://www.w3.org/1999/xlink" version="1.1" viewBox="0 -205 1024 1024">
  <g transform="matrix(1 0 0 -1 0 819)">
   <path fill="currentColor"
d="M548 360h124v198h-124v-198v0v0zM724 360h120v198h-120v-198v0v0zM548 584h124v190h-124v-190v0v0zM724 584h120v190h-120v-190v0v0zM494 836l48 -36h130v180l82 -32q6 -3 6 -6q1 -3 -4 -8l-32 -18v-116h114l28 32l52 -36q8 -6 8 -14q0 -6 -30 -26v-396h26l30 38l46 -44
q3 -3 4 -8q0 -12 -12 -12h-94v-213q1 -32 -16 -56q-15 -19 -54 -38q-13 38 -40 52q-27 12 -84 36l6 16q54 -11 82 -20q27 -6 40 0t14 26v197h-296v-172l4 -99q-1 -9 -22 -24q-20 -12 -40 -12l4 129v178h-40q1 0 -34 -8l-16 34h90v476v0v0zM26 560q74 123 124 234
q48 110 78 200l68 -32q4 -6 0 -12q-5 -3 -16 -6q-9 -3 -24 -32q80 -36 118 -60q38 -23 50 -46q10 -24 2 -42q-9 -19 -26 -16q-16 2 -28 26q-13 24 -44 58q-29 32 -82 62q-31 -73 -76 -152q-42 -78 -132 -192l-12 10v0v0zM144 686h190l34 46l56 -56q6 -12 -2 -18h-148v-142
h86l36 44l52 -52q15 -12 0 -20h-174v-282l162 28l6 -20q-115 -29 -196 -52q-81 -22 -114 -37q-33 -12 -56 -36l-40 71l188 36v292h-102q-21 0 -56 -8l-16 36h174v142h-44l-16 -6l-20 34v0v0zM90 416l12 10q51 -46 72 -76q20 -30 22 -60q1 -29 -16 -40q-16 -10 -28 -4
q-13 6 -14 28q0 22 -6 56q-6 32 -42 86v0v0zM288 258q53 94 92 176l60 -34q3 -9 -2 -12q-7 -3 -20 -6t-44 -42q-30 -39 -72 -92l-14 10v0v0z" />
  </g>

</svg>
