<?xml version="1.0" standalone="no"?>
<!DOCTYPE svg PUBLIC "-//W3C//DTD SVG 1.1//EN" "http://www.w3.org/Graphics/SVG/1.1/DTD/svg11.dtd" >
<svg xmlns="http://www.w3.org/2000/svg" xmlns:xlink="http://www.w3.org/1999/xlink" version="1.1" viewBox="0 -205 1024 1024">
  <g transform="matrix(1 0 0 -1 0 819)">
   <path fill="currentColor"
d="M864 902q-91 -10 -178 -22v-218h210l34 40l64 -46q3 -3 4 -8q0 -13 -12 -14h-260q18 -39 60 -78q42 -40 84 -68q43 -27 134 -36v-18q-33 1 -54 -4q-22 -6 -38 -32q-45 23 -84 56t-74 82q-33 50 -54 98h-14v-162l4 -58q-1 -18 -22 -32q-19 -12 -38 -12l4 90v174h-10
q-36 -66 -114 -138q-76 -70 -182 -116l-6 14q107 68 164 134q56 63 80 106h-154q-21 0 -54 -8l-24 36h300v214q-123 -12 -260 -14v16q147 13 282 38t220 50l34 -54l4 -12q-4 -6 -10 -6l-40 8v0v0zM448 828q71 -36 94 -62q21 -24 22 -42q0 -18 -8 -30q-9 -13 -26 -10
q-16 0 -20 22q-4 19 -16 44q-9 25 -54 68l8 10v0v0zM748 686q57 92 88 158q60 -30 64 -38q1 -6 0 -8q-3 -2 -20 -4q-18 -3 -116 -116l-16 8v0v0zM418 298q2 -66 -4 -108q-6 -41 -24 -65q-16 -24 -34 -34q-17 -6 -28 -4q-12 3 -18 14q-6 12 0 26q3 13 30 33q26 21 38 48
q11 27 20 90h20v0v0zM596 372q93 -66 114 -98q18 -31 16 -52q-1 -21 -14 -32q-11 -10 -28 -4q-15 3 -18 22q-3 18 -14 54q-9 34 -66 98l10 12v0v0zM858 316q57 -39 88 -68q30 -29 46 -58q15 -30 12 -43q0 -14 -12 -26q-9 -10 -26 -8q-17 3 -28 39q-9 35 -26 68
q-17 30 -64 82l10 14v0v0zM550 256v-113q0 -44 12 -52q12 -5 40 -8h122q32 0 46 8q12 7 18 22q5 15 8 43q2 27 2 90h20l4 -68q6 -52 36 -67q-6 -27 -24 -48q-15 -18 -68 -24h-182q-45 -1 -66 16q-18 13 -18 62v199q84 -25 88 -32q4 -6 0 -8q-3 -3 -38 -20v0v0zM86 894
l56 -40h106l32 40l54 -38q12 -6 12 -14q-1 -3 -34 -30v-438l4 -84q0 -12 -14 -24q-16 -13 -40 -16v96h-126v-104q0 -12 -20 -24q-19 -12 -34 -12l4 122v566v0v0zM136 376h126v448h-126v-448v0v0z" />
  </g>

</svg>
