<?xml version="1.0" standalone="no"?>
<!DOCTYPE svg PUBLIC "-//W3C//DTD SVG 1.1//EN" "http://www.w3.org/Graphics/SVG/1.1/DTD/svg11.dtd" >
<svg xmlns="http://www.w3.org/2000/svg" xmlns:xlink="http://www.w3.org/1999/xlink" version="1.1" viewBox="0 -36 256 256">
  <g transform="matrix(1 0 0 -1 0 220)">
   <path fill="currentColor"
d="M34 244q18 -10 26.5 -20t-2.5 -23h13l12 12l16 -19h-62q-10 0 -19 -2l-9 9h42q-3 21 -19 40zM34 38h39v46h-39v-46zM65 164l11 9l17 -16h-47q-12 0 -21 -2l-8 9h48zM64 126l11 10l17 -17h-44q-12 0 -20 -2l-9 9h45zM86 45q0 -12 1 -21l-14 -6v13h-39v-12l-14 -8
q1 21 1 43.5t-1 44.5l15 -8h37l7 10l14 -13l-7 -7v-36zM134 16l-16 -9q1 25 1 121q-9 -35 -29 -62l-3 3q12 24 20 52.5t10 58.5q-11 0 -22 -3l-9 11h33q0 43 -1 57l21 -10l-6 -9v-38h7l11 11l14 -18h-32v-29q18 -13 23.5 -20t0 -18t-8 -0.5t-15.5 31.5q0 -110 1 -129z
M180 244q17 -10 25.5 -20t-2.5 -23h15l11 12l16 -19h-62q-10 0 -19 -2l-9 9h41q-3 21 -18 40zM180 37h39v46h-39v-46zM210 164l12 9l17 -16h-48q-11 0 -19 -2l-9 9h47zM210 126l12 10l16 -17h-45q-11 0 -19 -2l-9 9h45zM232 44q0 -12 1 -27l-14 -7v20h-39v-13l-14 -9
q1 23 1 45.5t-1 46.5l15 -10h37l7 10l14 -13l-7 -7v-36z" />
  </g>

</svg>
