<?xml version="1.0" standalone="no"?>
<!DOCTYPE svg PUBLIC "-//W3C//DTD SVG 1.1//EN" "http://www.w3.org/Graphics/SVG/1.1/DTD/svg11.dtd" >
<svg xmlns="http://www.w3.org/2000/svg" xmlns:xlink="http://www.w3.org/1999/xlink" version="1.1" viewBox="0 -205 1024 1024">
  <g transform="matrix(1 0 0 -1 0 819)">
   <path fill="currentColor"
d="M604 836h170v156q71 -27 74 -30q2 -4 2 -10q0 -4 -32 -16v-100h84l30 34l54 -42q3 -3 4 -6q3 -12 -8 -12h-164v-80h82l26 32l54 -36l4 -8q1 -7 -28 -26v-126l4 -72q1 -11 -16 -22q-15 -9 -32 -8v20h-94v-92l116 6q-22 27 -64 54l8 12q86 -34 106 -56q21 -21 18 -42
q-3 -19 -18 -22q-13 -5 -22 6t-18 32q-247 -32 -272 -40q-25 -6 -50 -20l-30 54l182 12v96h-94v-12q3 -12 -14 -24q-17 -10 -34 -10l4 100v222l38 -30h100v80h-98q-21 0 -56 -8l-16 34v0v0zM680 510h94v84h-94v-84v0v0zM818 594v-84h94v84h-94v0v0zM680 620h94v84h-94v-84v0
v0zM818 704v-84h94v84h-94v0v0zM312 762l48 -44h62v88h-72q-34 -3 -40 -12l-20 38h132v144l76 -32q6 -1 4 -8q0 -4 -8 -8l-28 -12v-84h50l34 38l50 -48q6 -14 -8 -16h-126v-88h58l22 26l52 -32l4 -8q0 -6 -24 -24v-206l4 -46q0 -13 -14 -22q-13 -7 -34 -8v32h-68v-120h60
l30 40l48 -44q15 -16 0 -22h-138v-151l4 -70q0 -17 -20 -32q-18 -18 -32 -18l4 114v157h-86q-18 -4 -36 -10l-24 36h146v120h-66v-24q0 -12 -14 -20q-13 -6 -34 -8l4 94v290v0v0zM356 456h66v102h-66v-102v0v0zM466 558v-102h68v102h-68v0v0zM356 586h66v106h-66v-106v0v0z
M466 692v-106h68v106h-68v0v0zM576 270h274v92l64 -20q10 -3 6 -14q0 4 -24 -16v-42h30l34 40l48 -50q3 -4 4 -4q0 -10 -12 -10h-104v-171q-4 -27 -26 -42q-18 -14 -42 -26q-12 34 -42 46q-31 13 -74 28l6 16q90 -21 112 -16q22 6 20 36v129h-190q-21 0 -68 -8l-16 32v0v0z
M638 230l10 10q45 -33 64 -54q15 -20 16 -40q-1 -19 -14 -29q-12 -10 -26 -6q-13 4 -14 28q-1 21 -10 45q-9 21 -26 46v0v0zM62 852l52 -40h86l24 28l44 -30q12 -6 12 -14q-1 -6 -28 -20v-372l4 -78q3 -16 -14 -32t-34 -16v72h-100v-82q0 -15 -12 -24q-10 -9 -38 -12l4 110
v510v0v0zM108 376h100v410h-100v-410v0v0z" />
  </g>

</svg>
