<?xml version="1.0" standalone="no"?>
<!DOCTYPE svg PUBLIC "-//W3C//DTD SVG 1.1//EN" "http://www.w3.org/Graphics/SVG/1.1/DTD/svg11.dtd" >
<svg xmlns="http://www.w3.org/2000/svg" xmlns:xlink="http://www.w3.org/1999/xlink" version="1.1" viewBox="0 -205 1024 1024">
  <g transform="matrix(1 0 0 -1 0 819)">
   <path fill="currentColor"
d="M898 942l62 -52q2 -5 2 -10q0 -7 -8 -8h-484v-466h420l34 42l58 -52q3 -4 4 -8q0 -9 -8 -8h-502l-26 -32l-56 44l28 20v518l46 -32h398l32 44v0v0zM590 756h190l36 38l48 -50q2 -4 2 -8t-6 -4h-136q0 -64 -8 -104h130l30 38l52 -46q2 -3 2 -6q0 -10 -12 -10h-204
q-2 -21 -10 -38q99 -25 138 -44q40 -18 50 -42q10 -20 2 -34q-9 -12 -26 -12q-15 3 -24 18q-9 14 -44 44q-33 29 -104 50q-72 -85 -192 -124l-6 14q72 38 118 82q46 41 50 86h-84q-21 1 -68 -10l-18 34h172q6 38 6 104h-98q-30 -46 -56 -76l-14 8q39 80 70 172
q60 -22 64 -28q3 -6 -2 -8q-3 -3 -14 -6q-11 -1 -34 -38v0v0zM422 282h20q0 -91 -2 -118q-3 -26 -14 -53t-34 -42q-22 -16 -40 -12q-19 3 -22 20q-3 18 12 30t30 26q16 13 26 37q12 23 24 112v0v0v0zM552 268v-153q-1 -26 8 -34q9 -6 40 -6h170q30 3 40 12q9 7 12 22
q5 16 8 45q2 27 4 84h20l6 -84q0 -39 34 -57q-10 -28 -32 -44q-19 -15 -52 -22h-242q-25 -1 -46 16q-21 13 -20 62v213l76 -26l4 -12q0 -2 -6 -4q-3 -3 -24 -12v0v0zM642 356q63 -58 82 -86q18 -27 16 -54q-4 -27 -16 -36t-30 -2q-16 5 -16 34q-1 27 -8 46q-6 18 -42 88
l14 10v0v0zM852 326q74 -58 106 -94q29 -37 38 -58q9 -22 6 -39t-12 -26q-6 -8 -24 -8t-24 30q-7 28 -20 65q-13 35 -80 118l10 12v0v0zM254 938q5 -3 8 -6q1 -10 -16 -16q-18 -7 -26 -50q-9 -43 -24 -140h102l30 42l52 -40q13 -9 12 -12q-1 -6 -28 -24q-27 -176 -48 -250
q-21 -75 -48 -134q36 -21 64 -48q24 -24 30 -48q5 -24 -4 -38q-10 -15 -26 -12q-16 2 -26 26q-9 21 -18 40q-9 17 -42 46q-42 -75 -98 -141q-55 -66 -118 -108l-10 14q51 48 106 123t86 136q-33 27 -120 76q25 115 50 326h-56q-16 0 -44 -6l-16 32h120q15 114 28 244l80 -32
v0v0zM230 330q25 60 44 142q18 78 34 228h-116q-28 -186 -58 -318q42 -20 96 -52v0v0z" />
  </g>

</svg>
