<?xml version="1.0" standalone="no"?>
<!DOCTYPE svg PUBLIC "-//W3C//DTD SVG 1.1//EN" "http://www.w3.org/Graphics/SVG/1.1/DTD/svg11.dtd" >
<svg xmlns="http://www.w3.org/2000/svg" xmlns:xlink="http://www.w3.org/1999/xlink" version="1.1" viewBox="0 -36 256 256">
  <g transform="matrix(1 0 0 -1 0 220)">
   <path fill="currentColor"
d="M153 189l1 9v10h-51v-8l1 -8l-16 -7l1 11v12h-48q-13 0 -22 -3l-10 10h80v16q0 8 -1 16l23 -8l-8 -6v-18h51v14q0 7 -1 18l23 -10l-9 -8v-14h48l16 15l18 -22h-82v-7l1 -8zM121 40v34h-35v-4l-15 -5q1 19 1 28v29q-30 -18 -62 -27l-1 5q35 16 56 31q-8 14 -27 25l1 4
q22 -4 28.5 -7.5t6.5 -8t-5 -10.5q21 19 34 36h-54q-10 0 -20 -2l-9 9h87q8 15 10 26l20 -11l-7 -3l-7 -12h83l15 11l17 -18h-92q13 -16 31 -29q19 18 23 28l17 -17h-9q-13 -8 -26 -15q13 -7 28.5 -11.5t36.5 -6.5v-5q-19 -1 -18 -12q-24 7 -44 20v-21q0 -16 1 -30l-15 -6v9
h-35v-41q0 -19 -20 -27q-2 8 -8 12t-23 9l1 5l27 -3q8 0 8 11zM87 134h80q-17 17 -28 36h-20q-16 -23 -32 -36zM86 108h85v19h-85v-19zM86 81h85v20h-85v-20zM102 50l-10 1q-46 -28 -78 -37l-2 4q20 10 39.5 22.5t33.5 27.5zM154 66q39 -13 54 -21t17.5 -16t0.5 -13t-5.5 -4
t-11.5 10t-20.5 18t-35.5 21z" />
  </g>

</svg>
