<?xml version="1.0" standalone="no"?>
<!DOCTYPE svg PUBLIC "-//W3C//DTD SVG 1.1//EN" "http://www.w3.org/Graphics/SVG/1.1/DTD/svg11.dtd" >
<svg xmlns="http://www.w3.org/2000/svg" xmlns:xlink="http://www.w3.org/1999/xlink" version="1.1" viewBox="0 -205 1024 1024">
  <g transform="matrix(1 0 0 -1 0 819)">
   <path fill="currentColor"
d="M674 788l72 -24q8 -2 8 -4q3 -4 -2 -10l-28 -16v-52h100l26 32l56 -36q7 -6 8 -12q0 -6 -26 -20v-86h22l30 36l50 -48q1 -1 2 -4q3 -4 -2 -10h-102v-68l4 -56q0 -15 -20 -26q-18 -10 -32 -10v28h-116v-54q-1 -12 -16 -20q-16 -7 -34 -8v82h-70q-24 0 -48 -6l-24 32h142
v106h-86q-18 0 -36 -6l-24 32h146v94h-74q-13 0 -40 -6l-22 32h136v108v0v0zM724 534v-106h116v106h-116v0v0zM724 656v-96h116v96h-116v0v0zM550 334l52 -34h222l32 32l44 -36q12 -6 12 -14q0 -5 -30 -28v-127l4 -64q1 -17 -18 -32q-19 -13 -34 -14v64h-236v-26
q0 -12 -18 -24q-16 -12 -34 -12l4 104v211v0v0zM598 107h236v167h-236v-167v0v0zM618 966l8 12q64 -27 92 -48q28 -18 32 -42q3 -24 -8 -36q-12 -13 -30 -10q-17 2 -22 26t-22 48q-18 23 -50 50v0v0zM342 682l50 -38q18 -6 4 -20l-20 -16v-190l4 -76q0 -12 -18 -24
q-17 -9 -34 -12v44h-162v-206l136 74q-29 38 -58 68l10 12q50 -27 80 -54q30 -24 40 -48q10 -22 2 -40q-6 -17 -24 -17q-18 -1 -24 13q-7 15 -10 28q-1 12 -8 18q-103 -75 -124 -91q-19 -16 -56 -56l-56 56q36 22 42 35v504q-47 -82 -94 -124l-10 8q68 113 118 218
q50 103 94 236l68 -30q12 -8 4 -16q-22 -3 -34 -20q71 -45 104 -68q30 -25 40 -46q8 -21 2 -42q-6 -18 -24 -20q-17 0 -28 24t-28 52q-17 27 -76 82q-30 -60 -54 -110q-23 -48 -64 -114l28 -26h156l24 32v0v0zM166 622v-104h162v104h-162v0v0zM166 492v-116h162v116h-162v0
v0zM212 800l10 10q48 -31 66 -58q15 -28 10 -50q-7 -20 -20 -22q-12 -3 -20 4q-7 5 -10 22q-1 17 -8 40q-5 24 -28 54v0v0zM872 820l34 48l62 -60l2 -6q0 -7 -8 -8h-446v-230q5 -222 -40 -342q-42 -120 -168 -219l-12 12q102 102 138 213q35 111 32 312v322l60 -42h346v0v0z
" />
  </g>

</svg>
