<?xml version="1.0" standalone="no"?>
<!DOCTYPE svg PUBLIC "-//W3C//DTD SVG 1.1//EN" "http://www.w3.org/Graphics/SVG/1.1/DTD/svg11.dtd" >
<svg xmlns="http://www.w3.org/2000/svg" xmlns:xlink="http://www.w3.org/1999/xlink" version="1.1" viewBox="0 -205 1024 1024">
  <g transform="matrix(1 0 0 -1 0 819)">
   <path fill="currentColor"
d="M914 780l72 -64q2 -4 2 -10q0 -7 -8 -8h-366v-591h216l42 51l62 -61q2 -3 2 -10t-8 -8h-308l-36 -32l-58 48l36 30v573h-28q-34 0 -52 -8l-24 36h410l46 54v0v0zM636 914l10 14q76 -39 104 -68q27 -27 30 -54q2 -25 -10 -38q-13 -13 -32 -10q-18 4 -20 32q-3 27 -18 54
q-13 27 -64 70v0v0zM82 758l50 -36h98v226l84 -34l2 -4q4 -4 -4 -10l-34 -18v-160h82l26 36l60 -42q6 -4 6 -10q0 -4 -32 -28v-210l4 -78q0 -15 -14 -24q-15 -8 -38 -10v52h-94v-242l116 24q-18 45 -54 96l12 10q45 -36 76 -78q29 -39 34 -72q5 -31 -4 -49q-9 -15 -24 -16
q-15 1 -20 8q-6 6 -6 24q0 17 -6 57q-172 -45 -242 -69q-69 -24 -90 -52l-44 68l204 41v250h-100v-26q0 -16 -18 -28q-19 -10 -34 -10l4 80v334v0v0zM130 434h100v262h-100v-262v0v0zM278 696v-262h94v262h-94v0v0z" />
  </g>

</svg>
