<?xml version="1.0" standalone="no"?>
<!DOCTYPE svg PUBLIC "-//W3C//DTD SVG 1.1//EN" "http://www.w3.org/Graphics/SVG/1.1/DTD/svg11.dtd" >
<svg xmlns="http://www.w3.org/2000/svg" xmlns:xlink="http://www.w3.org/1999/xlink" version="1.1" viewBox="0 -36 256 256">
  <g transform="matrix(1 0 0 -1 0 220)">
   <path fill="currentColor"
d="M230 49q0 -13 1 -30l-15 -7v23h-63v-20l-15 -8q1 42 1 106q-14 -22 -32 -35l-2 2q19 24 32.5 57.5t23.5 79.5h-21q-11 -1 -20 -3l-9 10h106l15 11l16 -18h-71q-12 -44 -24 -76h62l9 11l15 -14l-9 -6v-83zM153 42h63v92h-63v-92zM47 245q18 -11 27.5 -22.5t-3.5 -23.5h24
l15 12l16 -19h-85q-11 0 -22 -2l-11 9h56q-5 23 -20 44zM39 38h49v48h-49v-48zM79 165l15 11l17 -18h-56q-13 1 -23 -2l-10 9h57zM78 128l14 10l17 -17h-52q-12 0 -22 -3l-10 10h53zM102 50q0 -13 1 -29l-15 -7v17h-49v-14l-15 -9q1 24 1 48t-1 48l16 -11h47l8 11l15 -13
l-8 -7v-34z" />
  </g>

</svg>
