<?xml version="1.0" standalone="no"?>
<!DOCTYPE svg PUBLIC "-//W3C//DTD SVG 1.1//EN" "http://www.w3.org/Graphics/SVG/1.1/DTD/svg11.dtd" >
<svg xmlns="http://www.w3.org/2000/svg" xmlns:xlink="http://www.w3.org/1999/xlink" version="1.1" viewBox="0 -36 256 256">
  <g transform="matrix(1 0 0 -1 0 220)">
   <path fill="currentColor"
d="M71 232l8 9l13 -16h-33v-32h9l7 8l13 -15h-29v-34h15l8 8l14 -15h-63l-13 -2l-9 9h36v34h-8l-10 -2l-9 9h27v32h-11l-11 -2l-9 9h55zM62 139l20 -7l-7 -8v-24h1l7 8l15 -15h-23q0 -60 1 -73l-14 -6q1 24 1 79h-20q-2 -32 -11 -49.5t-20 -31.5l-3 3q9 15 14.5 32t7.5 45
q-4 0 -13 -2l-9 10h22q0 21 -1 37l18 -8l-5 -7v-22h20q0 19 -1 39zM148 56q-2 10 -10 31l3 2q29 -39 20.5 -51t-9.5 -4t-3 17q-29 -11 -36 -17l-8 15q6 1 14 29.5t13 79.5l17 -8l-5 -7q-15 -68 -28 -92q19 3 32 5zM81 34l-3 2q26 58 34 139h-10l-11 -2l-9 9h30q3 26 4 62
l19 -9l-6 -5q-2 -13 -5 -48h17l9 10l15 -17h-41q-10 -96 -43 -141zM184 147h19v42h-19v-42zM184 99h19v41h-19v-41zM184 39h19v53h-19v-53zM221.5 220.5q3.5 -8.5 -4 -15.5t-8.5 6.5t-8 32.5l2 1q15 -16 18.5 -24.5zM172 64v106q-13 -27 -21 -38l-3 2q11 24 19.5 51.5
t13.5 60.5l18 -11q-7 -6 -18 -39h41l11 10l13 -17h-31v-42h7l8 9l12 -16h-27v-41h10l8 7l11 -14h-29v-53h11l9 11l12 -18h-63v-17l-13 -7q1 26 1 56z" />
  </g>

</svg>
