<?xml version="1.0" standalone="no"?>
<!DOCTYPE svg PUBLIC "-//W3C//DTD SVG 1.1//EN" "http://www.w3.org/Graphics/SVG/1.1/DTD/svg11.dtd" >
<svg xmlns="http://www.w3.org/2000/svg" xmlns:xlink="http://www.w3.org/1999/xlink" version="1.1" viewBox="0 -205 1024 1024">
  <g transform="matrix(1 0 0 -1 0 819)">
   <path fill="currentColor"
d="M166 968l54 -38h188l28 34l48 -38q8 -6 8 -14q1 -3 -22 -20v-200l4 -84q0 -15 -20 -26q-19 -10 -34 -10v42h-206v-24q0 -13 -14 -20q-12 -7 -38 -10l4 134v274v0v0zM214 636h206v72h-206v-72v0v0zM214 732h206v76h-206v-76v0v0zM214 832h206v74h-206v-74v0v0zM574 966
l54 -38h190l28 34l48 -38q8 -6 8 -14q1 -3 -22 -20v-206l4 -74q0 -18 -20 -30q-19 -12 -34 -12v44h-208v-8q0 -6 -14 -12q-12 -4 -38 -4l4 104v274v0v0zM622 634h208v72h-208v-72v0v0zM622 730h208v76h-208v-76v0v0zM622 830h208v74h-208v-74v0v0zM380 566q15 -12 -2 -18
q-29 -9 -46 -26q-16 -15 -34 -36h526l40 50l68 -60q2 -3 2 -8q0 -9 -8 -8h-340v-86h188l34 46l64 -56q3 -3 4 -8q0 -7 -8 -8h-282v-84h184l38 46l68 -56q2 -3 2 -8q0 -7 -8 -8h-284v-90h284l42 48l64 -54q3 -4 4 -11q0 -7 -8 -8h-698v-56q0 -10 -18 -20q-15 -7 -36 -8l4 127
v242q-78 -84 -174 -152l-12 10q98 98 164 176q63 77 118 158l60 -34v0v0zM274 148h262v90h-262v-90v0v0zM274 264h262v84h-262v-84v0v0zM536 374v86h-262v-86h262v0v0zM500 624q54 -24 76 -48q21 -22 24 -40t-8 -30q-9 -13 -26 -10q-18 2 -20 22q-3 20 -14 44q-10 24 -40 52
l8 10v0v0z" />
  </g>

</svg>
