<?xml version="1.0" standalone="no"?>
<!DOCTYPE svg PUBLIC "-//W3C//DTD SVG 1.1//EN" "http://www.w3.org/Graphics/SVG/1.1/DTD/svg11.dtd" >
<svg xmlns="http://www.w3.org/2000/svg" xmlns:xlink="http://www.w3.org/1999/xlink" version="1.1" viewBox="0 -205 1024 1024">
  <g transform="matrix(1 0 0 -1 0 819)">
   <path fill="currentColor"
d="M724 1000l88 -30q9 -9 -2 -14l-38 -14v-144q69 39 150 106l48 -46q3 -12 -6 -12h-18q-10 0 -58 -20q-48 -21 -116 -54v-88q0 -34 10 -38q8 -1 20 -2h114q17 0 26 12q8 9 10 34q3 24 4 96h18q5 -66 8 -90q3 -22 30 -34q-9 -22 -18 -34q-9 -10 -20 -16q-10 -6 -40 -8h-140
q-31 0 -44 6q-12 6 -20 18q-6 12 -6 48v324v0v0zM532 984l82 -26q3 -4 4 -8l-6 -6l-34 -14v-106h48l30 34l52 -46q2 -3 2 -6q1 -7 -4 -8h-128v-114l120 26l6 -18q-183 -54 -248 -78q-65 -23 -82 -46l-38 66l64 14v234q71 -25 76 -28q6 -3 4 -8q1 -4 -36 -20v-172l88 20v310
v0v0zM666 586q-18 -1 -168 -104l194 6q57 48 96 90q66 -37 66 -44q0 -6 -2 -8q-2 -4 -16 -4q-15 0 -30 -8q-14 -6 -70 -48q-57 -41 -254 -142l382 14q-23 40 -76 92l10 10q93 -55 120 -86q24 -29 28 -52q3 -23 -8 -34q-10 -12 -26 -8q-15 4 -18 20q-3 14 -18 38l-176 -10
v-197q4 -40 -16 -62q-18 -25 -60 -32q-7 30 -28 42q-22 12 -86 30l6 18q78 -19 106 -18q27 0 28 18v195q-97 -7 -136 -14q-38 -5 -82 -28l-44 70q41 3 88 18q116 66 196 120q-117 -12 -150 -18q-31 -6 -82 -26l-30 64l66 8q111 86 162 146q60 -37 60 -44t-6 -8t-26 -4v0v0z
M774 220l6 14q70 -25 128 -56q56 -28 68 -51t4 -40q-6 -18 -24 -18t-32 24q-13 24 -46 56q-33 28 -104 71v0v0zM508 248l56 -38q6 -9 -2 -12q-9 -3 -24 -6q-12 0 -66 -42q-51 -41 -156 -99l-8 12q110 81 200 185v0v0zM90 894l56 -40h98l32 40l54 -38q12 -6 12 -14
q-1 -3 -34 -30v-438l4 -84q0 -12 -14 -24q-16 -13 -40 -16v96h-118v-104q0 -12 -20 -24q-19 -12 -34 -12l4 122v566v0v0zM140 376h118v448h-118v-448v0v0z" />
  </g>

</svg>
