<?xml version="1.0" standalone="no"?>
<!DOCTYPE svg PUBLIC "-//W3C//DTD SVG 1.1//EN" "http://www.w3.org/Graphics/SVG/1.1/DTD/svg11.dtd" >
<svg xmlns="http://www.w3.org/2000/svg" xmlns:xlink="http://www.w3.org/1999/xlink" version="1.1" viewBox="0 -36 256 256">
  <g transform="matrix(1 0 0 -1 0 220)">
   <path fill="currentColor"
d="M59 15l-14 -7q1 46 1 118q-10 -35 -35 -68l-3 3q30 51 37 116h-5q-10 0 -19 -2l-9 9h34q0 29 -2 63l24 -10l-9 -7v-46h6l8 12l13 -19h-27v-28q15 -10 22 -18t2 -20t-9.5 2t-14.5 30v-128zM95 80q2 -33 0 -41t-8 -11t-9 0.5t3.5 13.5t10.5 38h3zM112 83q16 -29 14.5 -39
t-7.5 -11.5t-6 12.5t-4 36zM132 90q18 -21 19 -30.5t-4.5 -14.5t-7.5 8.5t-10 34.5zM115 206q-8 -19 -19 -37h27q6 11 10 27l14 -15q-3 1 -19 -26.5t-31 -45.5l38 5q-3 13 -8 28l2 1q19 -23 20 -33.5t-4 -15t-6 1t-3 13.5q-20 -5 -29.5 -9t-13.5 -9l-10 19q5 0 15.5 14.5
t22.5 37.5q-9 -1 -16.5 -2.5t-12.5 -5.5l-10 15q5 1 15 21.5t15 48.5l17 -13q-6 -1 -14 -20zM187 246l20 -10l-7 -6v-36h25l7 11l13 -13l-7 -7v-149q1 -20 -17 -27q-1 15 -22 19v4q15 -1 21 -1t6 11v145h-26q0 -20 -2 -40q17 -21 23 -33t1 -26t-9 6.5t-16 45.5
q-8 -45 -29 -74l-3 2q23 53 23 119h-24v-171l-13 -7q1 42 1 101.5t-1 92.5l13 -9h24q0 24 -1 52z" />
  </g>

</svg>
