<?xml version="1.0" standalone="no"?>
<!DOCTYPE svg PUBLIC "-//W3C//DTD SVG 1.1//EN" "http://www.w3.org/Graphics/SVG/1.1/DTD/svg11.dtd" >
<svg xmlns="http://www.w3.org/2000/svg" xmlns:xlink="http://www.w3.org/1999/xlink" version="1.1" viewBox="0 -36 256 256">
  <g transform="matrix(1 0 0 -1 0 220)">
   <path fill="currentColor"
d="M73 233l-11 -19h50l10 9l15 -16h-61q16 -5 20.5 -8.5t5.5 -6.5t-4.5 -10t-8.5 -0.5t-7 12t-14 13.5h-9q-15 -20 -40 -37l-2 3q14 14 25.5 32.5t19.5 42.5l20 -11zM169 233l-10 -18h50l11 11l17 -18h-66q22 -6 27.5 -11t5 -9.5t-3.5 -8.5t-10.5 5.5t-25.5 23.5h-8
q-11 -16 -26 -29l-3 3q15 21 21.5 37.5t9.5 27.5l20 -10zM48 104l-12 13q4 2 5 13q0 31 -1 41l14 -6q38 4 53 16l15 -14q-20 -2 -67 -8v-36l51 13q-4 8 -11 18l3 2q22 -15 25 -20t2.5 -11t-4.5 -9t-5 -0.5t-8 16.5q-55 -19 -60 -28zM187.5 120.5q5.5 -0.5 7 5.5t4.5 39h-34
q-4 -22 -14.5 -40t-47.5 -29l-2 3q28 13 38.5 30.5t11.5 35.5h-10l-9 -1l-8 8h75l6 9l16 -12l-8 -4q-4 -39 -6.5 -46t-7.5 -10.5t-15 -6.5q1 12 -21 18l1 5q18 -4 23.5 -4.5zM45 64q0 27 -1 38l14 -7h134l7 9l17 -13l-7 -6v-37q1 -20 2 -32l-16 -8v14h-137v-10l-14 -5
q1 30 1 57zM58 63h62v25h-62v-25zM133 63h62v25h-62v-25zM58 29h62v27h-62v-27zM133 29h62v27h-62v-27z" />
  </g>

</svg>
