<?xml version="1.0" standalone="no"?>
<!DOCTYPE svg PUBLIC "-//W3C//DTD SVG 1.1//EN" "http://www.w3.org/Graphics/SVG/1.1/DTD/svg11.dtd" >
<svg xmlns="http://www.w3.org/2000/svg" xmlns:xlink="http://www.w3.org/1999/xlink" version="1.1" viewBox="0 -52 256 256">
  <g transform="matrix(1 0 0 -1 0 204)">
   <path fill="currentColor"
d="M156 252l22 -9q4 -1 2 -3q-4 -1 -7 -5q1 0 0 -1v-31h42l8 10l17 -12q2 -1 2 -2q-1 -1 -3 -1h-66v-39h31l8 10l17 -12q2 -1 2 -2q-1 -1 -3 -1h-55v-38h48l7 10l13 -10l2 -2q0 -1 -2 -2l-5 -4q-3 -34 -6 -42q-3 -7 -9 -12l-1 -1q-6 -5 -17 -6q0 6 -4 8q-1 0 -2 1
q-5 5 -15 8l1 4q6 -2 14 -4q11 -3 15 -1q6 2 8 10q3 9 5 38h-52v-68l1 -23q1 -8 -14 -11q2 9 2 46v56h-37q-7 0 -9 -4l-8 9h54v38h-28q-6 1 -12 -3l-8 8h48v39h-33q-6 1 -12 -3l-8 8h53v34q2 3 -9 12zM26 161h51l6 9l15 -11l2 -2q0 -1 -3 -1h-32v-43h17l6 9l15 -11l2 -2
q0 -1 -3 -1h-37v-65l39 25l3 -3l-42 -32q-1 -1 -3 -5q-2 -5 -3 -7l-14 12q8 5 9 8v67h-22q-5 1 -11 -3l-9 8h42v43h-8q-7 0 -12 -3zM68 241q2 -1 -1 -3q-5 1 -8 -5q-6 -16 -13 -29h37l7 9l15 -11q2 -1 2 -2q-1 -1 -4 -1h-59q-1 -3 -5 -10q-1 -3 -2 -4q-12 -21 -27 -38l-2 2
q1 1 2 4q10 17 18 33t15 34q6 18 5 21l-1 2l-3 3l2 3z" />
  </g>

</svg>
