<?xml version="1.0" standalone="no"?>
<!DOCTYPE svg PUBLIC "-//W3C//DTD SVG 1.1//EN" "http://www.w3.org/Graphics/SVG/1.1/DTD/svg11.dtd" >
<svg xmlns="http://www.w3.org/2000/svg" xmlns:xlink="http://www.w3.org/1999/xlink" version="1.1" viewBox="0 -36 256 256">
  <g transform="matrix(1 0 0 -1 0 220)">
   <path fill="currentColor"
d="M71 234l-7 -7v-66q19 23 23 39l15 -14q-7 -3 -15 -11t-23 -21q0 -25 -3 -61q20 -12 24.5 -19t1 -17t-8 2t-18.5 29q-10 -53 -49 -80l-2 2q28 34 35.5 65.5t7 73t-1.5 95.5zM32 139.5q-5 -9.5 -10.5 -11.5t-9 3t4.5 13.5t15 34.5h5q0 -30 -5 -39.5zM127 247l19 -9l-6 -6
v-16h41q0 18 -1 31l21 -9l-7 -6v-16h19l13 11l14 -18h-46q0 -4 1 -12l-14 -7v19h-41v-12l-13 -7q1 13 1 19h-12q-10 0 -19 -2l-9 9h40q0 16 -1 31zM135 178.5q6 -3.5 5.5 -8.5t-4.5 -9t-8.5 5t-17.5 20l2 2q17 -6 23 -9.5zM183 156h27l14 10l14 -17h-65q19 -11 37.5 -17
t36.5 -7v-3q-16 -2 -19 -11q-18 6 -31 14.5t-28 21.5v-17q0 -9 1 -16l-15 -6q1 13 1 39q-11 -16 -30.5 -28t-45.5 -20l-1 3q24 12 38.5 24t23.5 23h-23q-10 0 -19 -2l-9 9h66v24q0 10 -1 18l21 -10l-7 -8v-24h9q15 20 21 35l17 -11l-10 -4q-8 -9 -23 -20zM113 75
q10 -9 13 -12t2.5 -9t-4.5 -7.5t-6.5 6.5t-7.5 18q-7 -9 -23 -23l-3 3q11 11 21.5 29t15.5 34l17 -10l-7 -4l-6 -7h21l6 7l14 -10l-8 -6q-9 -30 -26.5 -48t-44.5 -28l-2 4q24 13 39 31t22 43h-23q-5 -5 -10 -11zM171 83l15 -8l-4 -4l-6 -15h21v32h-2q-10 0 -19 -2l-9 9h30
q0 14 -1 23l20 -9l-7 -6v-8h8l10 9l13 -16h-31v-32h13l12 10l13 -17h-38q0 -15 1 -34l-14 -5q1 12 1 27v12h-21l-6 -5l-12 9q6 4 8.5 11.5t4.5 18.5z" />
  </g>

</svg>
