<?xml version="1.0" standalone="no"?>
<!DOCTYPE svg PUBLIC "-//W3C//DTD SVG 1.1//EN" "http://www.w3.org/Graphics/SVG/1.1/DTD/svg11.dtd" >
<svg xmlns="http://www.w3.org/2000/svg" xmlns:xlink="http://www.w3.org/1999/xlink" version="1.1" viewBox="0 -154 1024 1024">
  <g transform="matrix(1 0 0 -1 0 870)">
   <path fill="currentColor"
d="M643 21l-7 11q93 61 153 128q-55 75 -88 218h-8q-20 1 -28 -12l-21 23v-190l80 22l6 -14l-86 -28v-73l3 -29q0 -21 -14 -30q-13 -9 -36 -14q4 47 6 134l-229 -70q-20 -12 -25 -30l-44 56l96 22v335h-13q-23 -1 -38 -15l-26 27q9 -46 11 -82q6 -110 -124 -132q2 40 -70 64
l4 16q89 -38 123 -10q33 29 26 86q-3 59 -30 112q-13 22 -27 39q-13 16 -51 56q49 134 86 269h-149v-749l3 -97q-4 -39 -50 -46q4 39 6 185v714q-5 28 -23 48l12 11l44 -46h147l34 40l50 -42q13 -11 2 -15q-18 -5 -39 -23l-35 -78q-42 -100 -67 -163q56 -56 78 -82t35 -60
q1 -5 2 -8h562l26 36l62 -46q14 -10 -6 -9h-322v-87h244l22 25l44 -31q8 -10 0 -13q-23 -5 -33 -37q-41 -113 -87 -175q77 -77 170 -101l-4 -9q-22 1 -33 -4q-13 -6 -18 -21q-80 40 -139 106q-65 -68 -167 -112zM729 682l6 -14l-79 -19v-48l3 -29q0 -21 -13 -30t-37 -14
q6 36 7 80v31l-215 -51q-20 -12 -26 -30l-43 49l73 14v302h-6q-18 1 -30 -12l-30 30h551l27 36l61 -46q15 -9 -5 -8h-317v-255zM701 778q90 -39 143 -74q3 -3 6 -4q29 46 49 114h-158q-25 -1 -49 -11l-21 27h221l21 26l46 -33q8 -10 0 -13q-23 -4 -34 -35q-19 -58 -46 -98
q72 -64 63 -105q-2 -23 -20 -22q-19 1 -29 42q-8 28 -34 57q-58 -69 -175 -118l-7 10q108 71 156 134q-42 36 -142 91zM722 378q31 -117 88 -188q46 65 84 188h-172zM441 276v-122l163 37v85h-163zM445 923v-84h171v84h-171zM441 480v-88h163v88h-163zM445 726v-98l171 32
v66h-171zM445 823v-81h171v81h-171zM441 376v-84h163v84h-163z" />
  </g>

</svg>
