<?xml version="1.0" standalone="no"?>
<!DOCTYPE svg PUBLIC "-//W3C//DTD SVG 1.1//EN" "http://www.w3.org/Graphics/SVG/1.1/DTD/svg11.dtd" >
<svg xmlns="http://www.w3.org/2000/svg" xmlns:xlink="http://www.w3.org/1999/xlink" version="1.1" viewBox="0 -144 1024 1024">
  <g transform="matrix(1 0 0 -1 0 880)">
   <path fill="currentColor"
d="M437 500l60 -49l-27 -21v-318l-65 -32v65h-130v-65l-54 -27v447l54 -27h130zM594 195l-7 -16l-29 -59l-11 -19l7 -22l-19 1l-39 32l-10 8l-1 1l21 19l55 54v279h-60v21h60l32 27l59 -48l-27 -22v-226l-8 -3l23 -32l16 -18l18 -14l21 -10l26 -8l34 -4l43 -1l53 2l64 6
l7 -71l-68 -3l-58 2l-49 6l-41 11l-34 15l-26 20l-20 24l-14 27l-9 29l-2 9zM918 112l3 -32v-3l1 -5l51 76l-58 -5v-3l1 -2v-3l1 -12l1 -2v-1v-4v-4zM485 121l50 -41l-57 33zM704 621l-1 27l-2 27l-5 40l-4 12l8 5l8 -11l9 -11l9 -12l15 -25l12 -28l5 -14l10 -31l-7 -24
l-9 -5h60l1 6l1 32l5 46l2 16l2 16l4 27h-1l3 13l60 -25l13 -15l-22 -6l-10 -23l-13 -29l-22 -42l-9 -14l-1 -2h35l24 32l32 -32v-21h-102v-110h30l24 33l32 -33v-21h-86v-109h23l45 48l53 -48v-22h-121v-118l-64 -32v150h-114v22h114v109h-86v21h86v110h-97v21h63l-12 21
v29zM405 451h-130v-285h130v285zM446 658l-30 53l-14 28l-25 59l-12 32l-10 33l-2 6l-14 -39l-38 -86l-43 -80l-23 -39l-25 -35l-24 -28v-257l-48 -24v56h-54v-64l-59 -30v621l59 -30h54l24 27l51 -48l-27 -13v-211l41 90l32 82l28 87l13 45l11 46l10 47h1l2 9l60 -24
l14 -14l-20 -6l-8 -28l-5 -15l52 -90l33 -52l16 -25l34 -44l18 -20l1 -1l-57 -42zM138 813h-54v-454h54v454zM389 655l43 -37v-22h-174v22h98zM550 640l-3 13l-8 26l-5 11l-4 12l-5 12l-5 11l-5 11l-8 9l7 8l10 -8l11 -6l12 -8l10 -9l11 -10l19 -22l18 -25l9 -14l-1 -25
l-17 -17h-24l-18 17zM633 733v22h117v109h-95v22h95v105l64 -10l16 -11l-16 -10v-74h21l33 37l43 -37v-22h-97v-109h23l45 48l53 -48v-22h-302zM575 830l-7 26l-7 25l-9 24l-10 24l-7 10l7 7l9 -9l12 -7l11 -8l11 -10l19 -22l9 -12l9 -13l16 -27l-2 -25l-18 -17l-25 2
l-16 18z" />
  </g>

</svg>
