<?xml version="1.0" standalone="no"?>
<!DOCTYPE svg PUBLIC "-//W3C//DTD SVG 1.1//EN" "http://www.w3.org/Graphics/SVG/1.1/DTD/svg11.dtd" >
<svg xmlns="http://www.w3.org/2000/svg" xmlns:xlink="http://www.w3.org/1999/xlink" version="1.1" viewBox="0 -36 256 256">
  <g transform="matrix(1 0 0 -1 0 220)">
   <path fill="currentColor"
d="M71 17l-15 -8q1 13 1 26v109h-23v-87l-14 -7q1 15 1 54.5t-1 54.5l11 -8h26v34h-7q-21 0 -33 -4l-10 11h50v52l21 -9l-8 -8v-35h21l10 11l15 -19h-46v-33h24l5 9l13 -12l-7 -7v-66q1 -22 -14 -25q-1 11 -17 16v4q11 -1 14.5 -1t3.5 7v68h-22v-90q0 -25 1 -37zM165 248
l21 -11l-7 -7v-40h38l11 12l15 -19h-64v-43h23l9 10l15 -14l-10 -7q-7 -20 -15.5 -38t-20.5 -33q10 -10 27 -20t41 -13v-3q-13 -4 -19 -14q-15 6 -30 17t-26 24q-16 -14 -34.5 -23.5t-53.5 -16.5l-1 4q33 11 51 22t29 24q-12 19 -18 37.5t-10 36.5h-7l-8 -3l-8 10h53v43h-13
q-15 0 -28 -4l-11 11h52q0 42 -1 58zM153.5 101.5q6.5 -17.5 18.5 -33.5q8 12 16.5 29.5t13.5 35.5h-60q5 -14 11.5 -31.5z" />
  </g>

</svg>
