<?xml version="1.0" standalone="no"?>
<!DOCTYPE svg PUBLIC "-//W3C//DTD SVG 1.1//EN" "http://www.w3.org/Graphics/SVG/1.1/DTD/svg11.dtd" >
<svg xmlns="http://www.w3.org/2000/svg" xmlns:xlink="http://www.w3.org/1999/xlink" version="1.1" viewBox="0 -36 256 256">
  <g transform="matrix(1 0 0 -1 0 220)">
   <path fill="currentColor"
d="M140 235q7 -7 -4 -17h66l15 12l18 -19h-182q-11 0 -20 -2l-9 9h104q-1 13 -19 26l2 3q22 -5 29 -12zM68 179.5q0 10.5 -1 24.5l15 -8h92l8 10l15 -12l-8 -6q0 -15 1 -28l-15 -5v6h-93v-5l-15 -4q1 17 1 27.5zM82 168h93v21h-93v-21zM28 118q-8 -3 -14.5 -1t5.5 12t15 31
h4l1 -14h182l11 10l13 -15q-13 -4 -28 -23l-3 2l8 19h-183q-3 -18 -11 -21zM58 19.5q-33 -3.5 -37 -9.5l-7 18q23 -1 57 1v30h-26v-5l-13 -4q1 11 1 26t-1 34l14 -7h25q0 22 -1 35l19 -10l-6 -7v-18h22l8 8l12 -12l-7 -6q0 -22 1 -36l-14 -7v9h-22v-30l22 1q-5 11 -10 19
l3 2q22 -18 24.5 -24.5t-3 -13.5t-7 -1.5t-4.5 13.5q-17 -2 -50 -5.5zM174.5 21.5q-28.5 -4.5 -38.5 -10.5l-9 17q18 0 49 2v29h-23v-4l-14 -5q1 14 1 29t-1 31l14 -7h23q0 21 -1 33l22 -10l-9 -6v-17h23l7 9l14 -13l-7 -4q0 -23 1 -34l-13 -7v5h-25v-28l33 2q-5 8 -14 20
l3 2q25 -18 29 -25.5t-1.5 -14.5t-7.5 -1t-6 14q-21 -2 -49.5 -6.5zM45 66h26v30h-26v-30zM83 66h22v30h-22v-30zM153 66h23v30h-23v-30zM188 66h25v30h-25v-30z" />
  </g>

</svg>
