<?xml version="1.0" standalone="no"?>
<!DOCTYPE svg PUBLIC "-//W3C//DTD SVG 1.1//EN" "http://www.w3.org/Graphics/SVG/1.1/DTD/svg11.dtd" >
<svg xmlns="http://www.w3.org/2000/svg" xmlns:xlink="http://www.w3.org/1999/xlink" version="1.1" viewBox="0 -36 256 256">
  <g transform="matrix(1 0 0 -1 0 220)">
   <path fill="currentColor"
d="M62 15l-15 -7q1 46 1 118q-11 -36 -36 -68l-3 3q28 50 38 115h-14l-11 -3l-10 10h36q0 29 -1 64l24 -10l-10 -7v-47h7l10 11l18 -18h-35v-25q19 -12 25 -18t1 -18t-11 3t-15 26q0 -109 1 -129zM93 145l-9 16q7 1 11 8q15 27 26 69l20 -15l-8 -3q-14 -25 -33 -58q9 0 28 1
q8 18 13 35l17 -13l-8 -5q-20 -40 -43 -71q14 1 36 3q-4 10 -9 17l3 2q19 -15 22 -24.5t-3 -16t-7 -0.5t-4 16q-38 -9 -50 -15l-8 16q9 2 17.5 13t21.5 39q-26 -9 -33 -14zM97 78h5q1 -30 -4.5 -40.5t-15.5 -8.5t-0.5 11t15.5 38zM113 78l2 2q17 -20 17.5 -29.5t-7 -13.5
t-7.5 8t-5 33zM134 82l3 2q16 -15 19.5 -22.5t-3.5 -16.5t-9 4.5t-10 32.5zM214 214l10 11l18 -18h-43v-177h20l10 11l18 -18h-78q-13 0 -22 -3l-10 10h49v177h-9q-13 0 -22 -3l-10 10h69z" />
  </g>

</svg>
