<?xml version="1.0" standalone="no"?>
<!DOCTYPE svg PUBLIC "-//W3C//DTD SVG 1.1//EN" "http://www.w3.org/Graphics/SVG/1.1/DTD/svg11.dtd" >
<svg xmlns="http://www.w3.org/2000/svg" xmlns:xlink="http://www.w3.org/1999/xlink" version="1.1" viewBox="0 -36 256 256">
  <g transform="matrix(1 0 0 -1 0 220)">
   <path fill="currentColor"
d="M16 211l-1 4q18 4 38 12.5t29 18.5l13 -19q-8 0 -30 -7v-47h13l10 12l14 -19h-37v-23q20 -8 24.5 -16.5t0 -18t-9 4t-15.5 25.5q0 -97 1 -122l-14 -8q1 50 1 126q-17 -39 -43 -70l-2 4q31 52 43 98h-12q-10 0 -19 -2l-9 9h42v44q-9 -2 -37 -6zM108 206q0 22 -1 36l12 -6
h30l7 6l12 -11l-7 -5q0 -40 1 -50l-13 -5v4h-20l15 -7q-7 -2 -15 -11h38q-2 10 -9 16l3 2q13 -3 16.5 -8t-4.5 -10h41l9 9l15 -16h-59v-12h29l9 8l14 -15h-52v-14h27l9 8l15 -15h-51v-14h38l12 10l15 -17h-116v-4l-13 -5q1 22 1 64q-12 -13 -25 -23l-2 3q7 8 19 23t19 28h-8
v-3l-12 -5q1 17 1 39zM119 219h30v10h-30v-10zM119 200h30v12h-30v-12zM119 182h30v11h-30v-11zM231 177l-13 -5v3h-31v-1l-12 -4q1 13 1 35.5t-1 36.5l13 -6h29l9 7l11 -12l-7 -4q0 -34 1 -50zM187 219h31v10h-31v-10zM187 200h31v12h-31v-12zM187 182h31v11h-31v-11z
M128 138h39v12h-39v-12zM128 117h39v14h-39v-14zM128 96h39v14h-39v-14zM124 69q-7 1 -13 -2l-8 9h97l10 8l12 -16l-7 -1q-23 -17 -40 -28q14 -7 34 -10.5t38 -4.5v-3q-14 -2 -17 -11q-42 7 -66 22q-35 -18 -86 -24l-1 4q49 10 77 27q-15 11 -30 30zM164 45q15 9 34 24h-67
q18 -18 33 -24z" />
  </g>

</svg>
