<?xml version="1.0" standalone="no"?>
<!DOCTYPE svg PUBLIC "-//W3C//DTD SVG 1.1//EN" "http://www.w3.org/Graphics/SVG/1.1/DTD/svg11.dtd" >
<svg xmlns="http://www.w3.org/2000/svg" xmlns:xlink="http://www.w3.org/1999/xlink" version="1.1" viewBox="0 -200 999 1000">
  <g transform="matrix(1 0 0 -1 0 800)">
   <path fill="currentColor"
d="M49 413q18 34 36.5 76.5t34 85.5t26 83.5t12.5 70.5h-49l-34 -10l-12 33h137v118q-35 -16 -70 -25.5t-58 -11.5q-3 1 -3 4q0 1 0.5 1.5t0.5 1.5v-1l-2 4q34 16 71 37.5t69.5 43.5t57 42.5t33.5 34.5l51 -57q-6 0 -18 -6t-17 -8q-9 -3 -15 -6t-13.5 -7.5t-18 -10.5
t-27.5 -14v-140h17l40 41l53 -64h-110v-29q31 -24 51 -46.5t32 -42t16.5 -35t4.5 -24.5q-5 -50 -24 -50q-16 0 -25 41q-5 24 -9 42t-10 34t-14.5 31.5t-21.5 33.5v-212q-9 -11 -21 -17t-20 -6v232q-9 -36 -26 -75.5t-37 -77t-40.5 -69.5t-37.5 -52zM166 278h110v142h-104
l-6 -17v-125zM166 108h110v147h-110v-147zM177 443h92l23 41l52 -57l-24 -27v-339q-3 -5 -16.5 -12.5t-27.5 -12.5v49h-110v-49q-6 -8 -19.5 -14.5t-26.5 -13.5v476zM467 462l74 22l27 16l54 -47l-27 -35v-367q-5 -17 -19.5 -26.5t-25.5 -9.5v81h-97v-61q0 -16 -11.5 -24
t-25.5 -8q-2 0 -3.5 0.5t-3.5 0.5v495zM621 6q38 55 59.5 128t36.5 149q6 51 11.5 120t9.5 154v119l67 -18l-6 -39q-1 -8 -1 -17.5v-20.5q0 -33 2 -80t7.5 -99.5t15 -107t24.5 -102t35.5 -85t48.5 -56.5l3 -15q-22 -5 -36.5 -13.5t-36.5 -19.5q-24 38 -37.5 91t-20.5 122
t-10.5 154.5t-7.5 187.5q-6 -143 -22 -239.5t-37 -160.5t-45 -100.5t-46 -58.5zM646 559q0 1 -5 1q-6 0 -26.5 -0.5t-69.5 -0.5h-57.5t-75.5 1l-39 -11l-15 34h157q13 42 22.5 96.5t17.5 114.5l61 -44l-27 -34q-15 -38 -29.5 -75.5t-30.5 -57.5h39l31 37zM640 582
q36 100 51.5 204t23.5 213l69 -45l-21 -36l-8 -32t-11.5 -45t-13.5 -52.5t-14 -54.5h117l31 48q42 -26 61 -39t19 -30q0 -8 -3 -15q-4 -7 -15.5 -6.5t-26.5 -2.5t-31.5 -15t-29.5 -43h-14q2 12 10.5 32t8.5 34q0 11 -9 13h-124q-8 -30 -25 -66.5t-32 -64.5zM453 119h97v149
h-97v-149zM453 290h97v150h-90l-7 -33v-117zM470 985l74 -35l-19 -60v-46h36l32 41l50 -64h-220l-47 -10l-16 32h121v58zM420 786q7 -11 17.5 -25t21 -30t18 -32.5t7.5 -31.5q1 -5 1.5 -10t0.5 -10q0 -18 -8 -32t-25 -14h-3q-11 7 -12 18.5t-1.5 32t-5 52t-21.5 78.5z" />
  </g>

</svg>
