<?xml version="1.0" standalone="no"?>
<!DOCTYPE svg PUBLIC "-//W3C//DTD SVG 1.1//EN" "http://www.w3.org/Graphics/SVG/1.1/DTD/svg11.dtd" >
<svg xmlns="http://www.w3.org/2000/svg" xmlns:xlink="http://www.w3.org/1999/xlink" version="1.1" viewBox="0 -205 1024 1024">
  <g transform="matrix(1 0 0 -1 0 819)">
   <path fill="currentColor"
d="M546 954l56 -54q3 -4 4 -8q-1 -9 -8 -8h-424v-206h368l30 42l56 -52q3 -4 4 -8q0 -9 -8 -8h-322v-200q33 17 136 62l10 -14q-105 -58 -128 -80q-25 -21 -46 -44l-50 54l28 18v206h-76q-2 -146 -10 -256q-8 -108 -40 -188q-33 -77 -80 -133l-12 8q32 60 56 133
q21 71 30 170q6 96 4 250v306l46 -34h342l34 44v0v0zM208 792h254l36 42l52 -50q2 -1 8 -8q-1 -10 -10 -10h-278q-22 0 -40 -8l-22 34v0v0zM172 338h288v92l70 -28q10 0 8 -14q0 3 -30 -14v-36h60l30 44l56 -52q3 -3 4 -8q0 -10 -12 -10h-138v-213q0 -43 -24 -60
q-22 -18 -52 -30q-4 36 -34 50q-31 15 -76 26l4 18q90 -18 112 -16q21 3 22 24v201h-230q-18 0 -36 -8l-22 34v0v0zM248 272l10 10q66 -33 84 -56q18 -24 16 -44t-16 -28q-12 -7 -24 -2q-9 3 -12 22q-3 17 -12 40q-8 23 -46 58v0v0zM326 610l6 14q63 -21 144 -54
q24 26 48 68l56 -22q10 -7 0 -16q-25 -3 -44 -14q-17 -10 -40 -28q52 -24 74 -42q20 -19 26 -38q4 -19 -6 -34q-9 -14 -26 -12q-15 3 -26 24q-12 21 -38 48q-27 26 -72 52q-42 24 -102 54v0v0zM900 954l56 -48q9 -6 10 -14q1 -4 -10 -10q-22 -3 -40 -48q-40 -84 -82 -222
q57 -52 90 -94q30 -41 48 -88q15 -47 10 -88q-6 -39 -26 -68q-19 -27 -82 -60q-13 32 -32 44q-18 9 -78 24l4 20q54 -10 82 -10q27 -1 48 10q18 10 28 44q9 33 -2 78q-12 44 -36 82t-84 104l76 276h-150v-716l4 -111q1 -14 -22 -26q-21 -14 -36 -14l4 153v786l68 -44h120
l32 40v0v0z" />
  </g>

</svg>
