<?xml version="1.0" standalone="no"?>
<!DOCTYPE svg PUBLIC "-//W3C//DTD SVG 1.1//EN" "http://www.w3.org/Graphics/SVG/1.1/DTD/svg11.dtd" >
<svg xmlns="http://www.w3.org/2000/svg" xmlns:xlink="http://www.w3.org/1999/xlink" version="1.1" viewBox="0 -36 256 256">
  <g transform="matrix(1 0 0 -1 0 220)">
   <path fill="currentColor"
d="M208 187l15 12l18 -19h-106v-17h-14v17h-84q-9 0 -18 -2l-8 9h197zM135 165h54l7 8l13 -11l-6 -4v-14l1 -13l-14 -4v3h-125v-2l-14 -4l1 15v13l-1 18l15 -5h55h14zM65 159v-22h125v21h-125v1zM193 114l7 8l14 -11l-7 -5v-12l1 -11l-15 -4v3h-132v-1l-15 -4l1 16v14l-1 11
l17 -4h58v18h14v-18h58zM61 107v-18h132v18h-132v0zM136 11l-16 -4q1 16 1 50h-69v-34l-16 -4q1 8 1 25.5t-1 23.5l18 -4h67q0 10 -1 19l20 -4l-5 -5v-10h68l7 10l15 -12l-7 -5v-25q-2 -11 -21 -17q-3 12 -34 14v4q15 -1 27 -1t13 5v20h-68q0 -33 1 -46zM126 210h-39
q0 -6 1 -15l-16 -6q1 12 1 21h-25q-11 0 -20 -1l-10 8h55q0 19 -1 29l22 -7l-7 -6v-16h13l12 11zM162 213q-10 -1 -20 -3l-10 10h35q0 14 -1 26l24 -9l-9 -6v-11h30l13 10l16 -17h-59q-1 -3 1 -19l-16 -5q1 20 1 24h-5z" />
  </g>

</svg>
