<?xml version="1.0" standalone="no"?>
<!DOCTYPE svg PUBLIC "-//W3C//DTD SVG 1.1//EN" "http://www.w3.org/Graphics/SVG/1.1/DTD/svg11.dtd" >
<svg xmlns="http://www.w3.org/2000/svg" xmlns:xlink="http://www.w3.org/1999/xlink" version="1.1" viewBox="0 -36 256 256">
  <g transform="matrix(1 0 0 -1 0 220)">
   <path fill="currentColor"
d="M29 238q26 -10 31.5 -17.5t0 -15.5t-11.5 3.5t-21 26.5zM10 183q31 -11 33 -20.5t-4 -15t-10.5 5.5t-19.5 27zM35.5 87.5q6.5 3.5 32.5 109.5l5 -2q-18 -89 -21 -100t-4.5 -23.5t0 -38t-9.5 -19t-8 23.5t3 27.5t-23 16.5v4q19 -2 25.5 1.5zM182 181h24v45h-24v-45z
M221 171l-15 -7v10h-106v-7l-15 -6q1 20 1 40t-1 39l15 -7h105l7 10l17 -11l-9 -7q0 -42 1 -54zM100 181h26v45h-26v-45zM139 181h29v45h-29v-45zM165 94q13 -28 8.5 -53t-26.5 -33q-2 14 -26 21v4q27 -4 31.5 -1t6 13.5t0.5 26.5q-32 -35 -91 -50l-2 4q56 19 88 61
q-2 8 -7 15q-29 -27 -73 -42l-1 4q48 23 64 50l-8 8q-23 -17 -54 -26l-1 4q42 18 58 44h-33q-11 0 -20 -2l-10 9h141l13 11l18 -18h-90q-9 -10 -17 -17q15 -11 30 -28q26 17 39 37l16 -16q-11 -1 -39 -19q9 -22 26.5 -39.5t38.5 -21.5v-4q-12 0 -21 -11q-12 7 -26 26.5
t-24 46.5z" />
  </g>

</svg>
