<?xml version="1.0" standalone="no"?>
<!DOCTYPE svg PUBLIC "-//W3C//DTD SVG 1.1//EN" "http://www.w3.org/Graphics/SVG/1.1/DTD/svg11.dtd" >
<svg xmlns="http://www.w3.org/2000/svg" xmlns:xlink="http://www.w3.org/1999/xlink" version="1.1" viewBox="0 -36 256 256">
  <g transform="matrix(1 0 0 -1 0 220)">
   <path fill="currentColor"
d="M80 165h28v12h-28v-12zM155 137v-4q0 -6 12 -6h16q8 -1 10 6t2 16h3q0 -10 1 -15t8 -7q-5 -10 -17 -9h-31q-16 -1 -16 10v30h-43l12 -4l-6 -4v-4h13l8 4l11 -11h-32v-14l30 9l2 -5q-26 -9 -38 -17l-9 10q4 4 4 12v24h-15q0 -25 -1.5 -41t-9 -36t-28.5 -40l-3 1
q17 24 23 47t6.5 61.5t-1.5 57.5l14 -6h53q0 11 -11 22l2 2q16 -4 20 -11t-2 -13h38l9 8l14 -15h-48v-11h22l7 5l12 -10l-7 -4q0 -9 1 -17l-13 -5v5h-31l14 -5l-5 -4v-9q22 8 28 13l7 -11q-10 0 -35 -5zM80 184h28v11h-28v-11zM119 184h24v11h-24v-11zM155 165h22v12h-22
v-12zM119 165h24v12h-24v-12zM145 60q0 -7 1 -18l-15 -5q1 16 1 23v14q-26 -21 -70 -32l-1 4q43 17 60 34h-14q-10 0 -20 -3l-10 10h55v13q-28 -2 -43 -2v4q49 5 85 15l12 -13q-12 0 -16.5 -0.5t-24.5 -2.5v-14h35l10 8l15 -15h-60v-5q39 -5 45 -13.5t2.5 -14t-10.5 2
t-37 21.5v-11zM229 15l-15 -6v19h-172v-15l-15 -5q1 31 1 123.5t-1 110.5l16 -8h170l7 10l16 -11l-8 -9v-155q0 -35 1 -54zM42 35h172v192h-172v-192z" />
  </g>

</svg>
