<?xml version="1.0" standalone="no"?>
<!DOCTYPE svg PUBLIC "-//W3C//DTD SVG 1.1//EN" "http://www.w3.org/Graphics/SVG/1.1/DTD/svg11.dtd" >
<svg xmlns="http://www.w3.org/2000/svg" xmlns:xlink="http://www.w3.org/1999/xlink" version="1.1" viewBox="0 -36 256 256">
  <g transform="matrix(1 0 0 -1 0 220)">
   <path fill="currentColor"
d="M61 222l15 -10h66q-1 7 -4.5 16t-9.5 17l2 2q17 -8 23.5 -17t-4.5 -18h60l14 13l17 -20h-164q0 -51 -0.5 -81t-12 -60t-45.5 -55l-2 3q40 38 46 108q-28 -20 -37 -34l-13 15q17 5 50 24q0 67 -1 97zM44.5 167.5q5.5 -8.5 -2 -17t-10 6.5t-11.5 29l2 3q16 -13 21.5 -21.5z
M115 160h84v19h-84v-19zM115 137h84v16h-84v-16zM213 148q0 -8 1 -19l-15 -8v9h-84v-4l-15 -6q1 18 1 36.5t-1 36.5l16 -7h81l7 7l16 -11l-7 -4v-30zM86 98q19 -9 25 -15.5t-0.5 -13t-9.5 1.5t-17 23zM217 71v34h-30q-10 -1 -19 -1l-9 8h56l8 6l15 -11l-7 -3v-70
q1 -22 -21 -26q-4 6 -9 9t-20 6v3q22 -2 29 -2t7 11v31q-14 -7 -27 -15.5t-21 -15.5l-12 12q26 6 60 24zM169 96q16 -6 23.5 -12t2 -13t-9 0t-18.5 21zM133 67v38h-26q-10 -1 -19 -1l-9 8h52l9 7l14 -12l-7 -3v-69q1 -22 -21 -27q-4 5 -9 8.5t-21 7.5v3q23 -3 30 -2t7 12v27
q-15 -11 -29 -19.5t-20 -12.5l-11 11q15 3 60 24z" />
  </g>

</svg>
