<?xml version="1.0" standalone="no"?>
<!DOCTYPE svg PUBLIC "-//W3C//DTD SVG 1.1//EN" "http://www.w3.org/Graphics/SVG/1.1/DTD/svg11.dtd" >
<svg xmlns="http://www.w3.org/2000/svg" xmlns:xlink="http://www.w3.org/1999/xlink" version="1.1" viewBox="0 -52 256 256">
  <g transform="matrix(1 0 0 -1 0 204)">
   <path fill="currentColor"
d="M163 62l-3 2q17 23 22 46q6 18 6 61h-30q0 -16 -1 -25q11 -10 13 -15q6 -8 7 -14q2 -5 0 -9q-1 -5 -5 -5q-3 0 -4 7q0 7 -3 16q-1 5 -9 13q-5 -40 -29 -71l-2 1v-23l1 -23q0 -5 -3 -7q-3 -3 -9 -4v9q1 20 1 37v114q-1 6 -5 9l4 4l8 -9h27v48h-24q-7 0 -11 -3l-9 8h114
l8 11l17 -13q2 -2 1 -2q0 -1 -3 -1h-45v-48h23l8 10l11 -11l2 -2q0 -1 -2 -2l-5 -4v-124q0 -14 -3 -21q-3 -6 -17 -9q-1 9 -9 11q-8 1 -22 6v4q28 -6 34 -5q6 0 7 11v131h-27q0 -15 -2 -37q0 1 0 -2q12 -10 16 -18q3 -4 7 -12q1 -1 1 -2q2 -6 0 -11q-2 -4 -5 -4q-4 0 -5 7
q0 8 -3 15t-12 20q-6 -39 -31 -65zM71 249l20 -6h1q3 -1 0 -2q-1 -1 -3 -2q-2 0 -4 -3v-19h7l6 9l15 -11l2 -2q0 -1 -3 -1h-27v-20l1 -12q0 -5 -3 -8l-2 -1q-3 -2 -5 -2v10h-11v-32h19l8 9l12 -10l2 -1q0 -1 -3 -2l-5 -2v-22l1 -20q0 -1 -3 -3q-3 -1 -7 -3v10h-24v-30h22
l6 9l15 -11q2 -1 2 -2q-1 -1 -4 -1h-41v-38l1 -10q0 -6 -4 -8q-4 -3 -9 -4q1 4 1 17q1 10 1 15v28h-29q-7 0 -12 -3l-9 8h50v30h-25v-3q0 -5 -2 -7q-3 -3 -9 -3q1 3 1 11q1 8 1 12v32q-1 5 -4 9l4 3l7 -10h27v32h-12v-1q0 -5 -2 -8l-1 -1q-4 -2 -7 -2q0 3 1 9v8v28h-6
q-6 0 -11 -3l-9 8h26v21q0 4 -6 9l3 3l20 -7l1 -1q2 0 1 -1q-1 0 -2 -1q-5 -1 -8 -4v-19h33v21q0 3 -7 8zM125 171v-99q24 35 24 99h-24zM159 224q0 -24 -1 -48h29v48h-28zM43 212v-28h33v28h-33zM30 143v-36h25v36h-25zM89 143h-24v-36h24v36z" />
  </g>

</svg>
