<?xml version="1.0" standalone="no"?>
<!DOCTYPE svg PUBLIC "-//W3C//DTD SVG 1.1//EN" "http://www.w3.org/Graphics/SVG/1.1/DTD/svg11.dtd" >
<svg xmlns="http://www.w3.org/2000/svg" xmlns:xlink="http://www.w3.org/1999/xlink" version="1.1" viewBox="0 -36 256 256">
  <g transform="matrix(1 0 0 -1 0 220)">
   <path fill="currentColor"
d="M175 155h39v23h-39v-23zM195 108l22 -10l-8 -5v-10h15l11 9l14 -16h-40v-43q1 -9 -2.5 -15.5t-18.5 -10.5q0 14 -26 18l1 4q28 -3 30.5 -1.5t2.5 6.5v42h-78q-8 0 -18 -2l-9 9h105q0 13 -1 25zM16 210l-1 4q19 5 40 13t31 17l13 -18q-8 0 -31 -6v-48h13l11 12l15 -19h-39
v-23q21 -8 25.5 -16.5t0 -18t-9.5 4t-16 25.5q0 -97 1 -122l-15 -8q1 50 1 125q-18 -38 -46 -69l-2 4q33 52 46 98h-15q-10 0 -19 -2l-9 9h45v45q-10 -3 -39 -7zM191 243q19 -4 24.5 -9.5t0.5 -12.5t-10.5 2t-15.5 17zM153 56q4 -9 -3 -17.5t-9 5.5t-13 27l2 2q19 -8 23 -17
zM125 155h37v23h-37v-23zM125 124h37v24h-37v-24zM175 124h39v24h-39v-24zM161 245l22 -8l-8 -8v-16h37l14 11l15 -18h-66v-21h35l9 10l15 -14l-8 -5q0 -40 1 -68l-13 -6v15h-39v-18l-13 -6v24h-37v-23l-13 -4q1 20 1 51t-1 52l16 -8h34v21h-35q-10 0 -20 -2l-9 9h64
q0 19 -1 32z" />
  </g>

</svg>
