<?xml version="1.0" standalone="no"?>
<!DOCTYPE svg PUBLIC "-//W3C//DTD SVG 1.1//EN" "http://www.w3.org/Graphics/SVG/1.1/DTD/svg11.dtd" >
<svg xmlns="http://www.w3.org/2000/svg" xmlns:xlink="http://www.w3.org/1999/xlink" version="1.1" viewBox="0 -205 1024 1024">
  <g transform="matrix(1 0 0 -1 0 819)">
   <path fill="currentColor"
d="M412 630l54 -40h164v138l84 -30q6 -5 4 -10q0 -3 -38 -24v-74h172l30 40l56 -40q9 -3 10 -12q1 -7 -28 -28v-425q2 -41 -16 -64q-18 -24 -66 -36q-12 36 -38 48q-25 12 -82 36l6 18q65 -17 86 -20q21 -1 42 0q21 3 18 26v429h-192q-4 -51 -10 -96q86 -66 116 -96
q28 -27 38 -56q9 -27 -2 -44q-12 -19 -32 -16q-18 3 -24 30q-6 26 -26 64q-19 39 -76 96q-23 -73 -76 -136q-52 -61 -124 -106v-61l4 -62q1 -15 -22 -28q-21 -15 -36 -16l4 108v487v0v0zM462 232q45 34 88 92q42 57 58 108q17 53 20 130h-166v-330v0v0zM318 834h186v140
l80 -28q6 -3 6 -6q7 -4 -34 -22v-84h204v136l84 -26q6 -3 4 -12q0 -3 -36 -18v-80h82l38 50l56 -56q2 -3 2 -8q0 -12 -12 -12h-166v-44l4 -54q-6 -19 -26 -28q-20 -10 -34 -10l4 80v56h-204v-60l4 -46q-1 -12 -22 -24q-21 -9 -38 -12l4 78v64h-102q-18 0 -66 -8l-18 34v0v0z
M22 752h158v228l82 -34q7 -6 -6 -14l-26 -10v-170h78l26 36l52 -44q2 -4 2 -8q1 -10 -10 -10h-148v-194l136 72l10 -16l-146 -96v-359q2 -37 -16 -62q-18 -24 -62 -36q-6 34 -36 50q-27 14 -74 34l4 16q93 -27 114 -22q19 6 20 32v317l-50 -36q-38 -28 -52 -56l-48 60
l150 76v220h-74q-18 0 -66 -8l-18 34v0v0z" />
  </g>

</svg>
