<?xml version="1.0" standalone="no"?>
<!DOCTYPE svg PUBLIC "-//W3C//DTD SVG 1.1//EN" "http://www.w3.org/Graphics/SVG/1.1/DTD/svg11.dtd" >
<svg xmlns="http://www.w3.org/2000/svg" xmlns:xlink="http://www.w3.org/1999/xlink" version="1.1" viewBox="0 -36 256 256">
  <g transform="matrix(1 0 0 -1 0 220)">
   <path fill="currentColor"
d="M89 225l12 12l15 -19h-46q-8 -35 -15 -59h29l7 9l16 -12l-8 -7q0 -78 1 -97l-14 -8v18h-32v-25l-14 -6q1 35 1 95q-10 -23 -31 -46l-3 2q35 59 48 136h-9q-13 -1 -22 -3l-9 10h74zM54 69h32v83h-32v-83zM183 43q0 -14 1 -29l-15 -6q1 28 1 45v57h-36v-12l-14 -6
q1 30 1 78t-1 69l14 -9h85l10 10l13 -14l-8 -6v-86q0 -13 1 -31l-14 -8v15h-38v-67zM134 172h36v51h-36v-51zM183 172h38v51h-38v-51zM134 117h36v48h-36v-48zM183 117h38v48h-38v-48z" />
  </g>

</svg>
