<?xml version="1.0" standalone="no"?>
<!DOCTYPE svg PUBLIC "-//W3C//DTD SVG 1.1//EN" "http://www.w3.org/Graphics/SVG/1.1/DTD/svg11.dtd" >
<svg xmlns="http://www.w3.org/2000/svg" xmlns:xlink="http://www.w3.org/1999/xlink" version="1.1" viewBox="0 -205 1024 1024">
  <g transform="matrix(1 0 0 -1 0 819)">
   <path fill="currentColor"
d="M68 804h166v180l84 -36q2 -3 8 -6q4 -4 -4 -8l-36 -16v-114h76l30 42l44 -50q4 -2 8 -16l-10 -2h-148v-170l158 32l6 -18q-269 -69 -322 -96l-26 -22l-42 60l174 36v178h-82q-21 0 -68 -8l-16 34v0v0zM644 990l86 -34q7 -4 6 -10q0 -3 -6 -8l-34 -12v-56h180l40 52
l60 -62q6 -4 6 -8q0 -9 -8 -8h-278v-98h122l34 32l58 -34q8 -3 8 -12q0 -7 -30 -28v-108l4 -46q0 -13 -18 -26q-18 -10 -38 -10v34h-302v-8q0 -16 -18 -28q-18 -13 -36 -10l4 88v190l60 -34h100v244v0v0zM534 572h302v148h-302v-148v0v0zM32 466h834l32 40l50 -46l6 -8
q0 -12 -12 -12h-610l-28 -94h304l32 38l52 -36q11 -7 14 -14q2 -9 -34 -26l-10 -158q-4 -43 10 -49q12 -3 34 -6h112q24 9 34 24q8 15 10 31q3 17 12 106h18q2 -59 4 -88q3 -27 30 -45q-12 -33 -30 -48q-15 -15 -72 -22h-122q-61 -1 -76 18q-20 21 -18 62l14 187h-326
l-80 -217l334 55l2 -19q-155 -36 -250 -60q-93 -20 -126 -50l-44 64q36 11 42 28l102 319h-172q-21 0 -56 -8l-16 34v0v0zM342 290q54 -7 96 -22q39 -13 54 -32q13 -17 8 -34q-5 -18 -22 -20q-15 -3 -32 18q-18 20 -38 38q-22 16 -70 38l4 14v0v0z" />
  </g>

</svg>
