<?xml version="1.0" standalone="no"?>
<!DOCTYPE svg PUBLIC "-//W3C//DTD SVG 1.1//EN" "http://www.w3.org/Graphics/SVG/1.1/DTD/svg11.dtd" >
<svg xmlns="http://www.w3.org/2000/svg" xmlns:xlink="http://www.w3.org/1999/xlink" version="1.1" viewBox="0 -36 256 256">
  <g transform="matrix(1 0 0 -1 0 220)">
   <path fill="currentColor"
d="M155 154h63v29h-63v-29zM155 116h63v31h-63v-31zM155 79h63v30h-63v-30zM170 222h-18q-10 0 -19 -2l-9 9h94l13 11l16 -18h-58q-6 -10 -19 -32h48l8 9l12 -14l-7 -6v-65q0 -29 1 -47l-14 -7v12h-63v-10l-14 -5q1 22 1 73t-1 68l15 -8h9q5 23 5 32zM119 8l-1 2
q36 33 44 58l17 -15l-7 -2q-32 -34 -53 -43zM232 37.5q9 -10.5 3.5 -22t-12 5.5t-27.5 42l2 4q25 -19 34 -29.5zM89 239l-6 -6v-27h15l11 11l15 -18h-41v-31h21l12 11l15 -18h-94q-10 0 -19 -2l-9 9h26q0 48 -1 63l20 -9l-6 -5v-49h22v51q0 11 -1 28zM62 153q-5 -5 -8 -13
q14 -7 15.5 -13t-3.5 -10.5t-6.5 2.5t-6.5 19q-5 -13 -18 -25l-2 1q11 21 15 45zM110 105v-7h-81v7h81zM20 97q0 23 -1 48l19 -8l-6 -8v-88h75v68q0 18 -1 38l19 -10l-6 -8v-76q0 -9 1 -25l-13 -5v11h-74l-8 -9l-11 11l6 6v55zM100 153q-5 -5 -9 -14q13 -10 13 -16
t-4.5 -7.5t-5.5 5t-5 15.5q-6 -12 -18 -25l-2 2q12 23 17 46zM66 87q-6 -4 -10 -11q13 -8 14 -14t-4 -9t-6 3.5t-5 16.5q-8 -14 -20 -25l-2 1q13 24 18 45zM101 86q-5 -3 -9 -11q11 -6 13 -12.5t-3 -10t-6 3.5t-5 17q-7 -13 -20 -26l-2 2q13 22 18 44z" />
  </g>

</svg>
