<?xml version="1.0" standalone="no"?>
<!DOCTYPE svg PUBLIC "-//W3C//DTD SVG 1.1//EN" "http://www.w3.org/Graphics/SVG/1.1/DTD/svg11.dtd" >
<svg xmlns="http://www.w3.org/2000/svg" xmlns:xlink="http://www.w3.org/1999/xlink" version="1.1" viewBox="0 -205 1024 1024">
  <g transform="matrix(1 0 0 -1 0 819)">
   <path fill="currentColor"
d="M66 948q74 -31 86 -40q7 -6 -4 -14l-30 -12v-138q146 83 220 152q64 -42 60 -50q-3 -10 -8 -8q-3 0 -18 -2q-15 0 -62 -24q-48 -24 -192 -92v-74q0 -33 12 -36l24 -2h184l26 6q14 2 20 32q6 27 12 124h22q0 -55 4 -88q3 -31 30 -46q-6 -31 -24 -46q-16 -12 -32 -18
q-15 -6 -48 -6h-196q-28 0 -50 6q-18 5 -30 26q-6 14 -6 50v300v0v0zM364 516l60 -42l4 -8q0 -9 -30 -26v-260l4 -63q2 -9 -16 -24q-16 -12 -40 -16v62h-216v-62q0 -14 -20 -28q-18 -12 -36 -12l4 131v358l58 -44h200l28 34v0v0zM130 166h216v132h-216v-132v0v0zM130 324
h216v132h-216v-132v0v0zM506 900l58 -46h42q17 48 44 130l66 -28q9 -8 4 -16q-30 -8 -50 -34l-38 -52h166l30 38l58 -44q6 -4 6 -8q0 -7 -36 -28v-170l4 -62q-3 -16 -18 -28q-15 -9 -38 -12v42h-248v-80h328l38 52l60 -64q6 -15 -8 -14h-418v-78h312l28 32l58 -44
q12 -7 -2 -16l-28 -20q-1 -82 -8 -136q-6 -53 -12 -91q-6 -39 -30 -66q-24 -24 -62 -42q-12 45 -48 60q-36 12 -96 30l6 18q75 -15 106 -18q29 -2 50 4q18 6 24 31q3 25 10 68q4 42 8 162h-316q0 -25 -14 -34q-13 -9 -40 -14l4 108v470v0v0zM556 610h248v92h-248v-92v0v0z
M556 732h248v94h-248v-94v0v0zM638 334l12 8q65 -55 80 -82q12 -26 10 -46q-3 -18 -14 -26q-12 -10 -26 -4q-15 3 -18 28q0 23 -6 44t-38 78v0v0zM728 342l10 10q66 -40 88 -70q22 -28 20 -50q-4 -20 -16 -28q-12 -9 -24 -2q-11 6 -16 24q-3 19 -12 44q-7 24 -50 72v0v0z
M496 296h22q6 -105 -6 -138q-10 -31 -22 -43t-32 -12q-22 1 -28 22q-7 17 14 35q18 15 30 34q9 18 22 102v0v0zM550 316l14 8q59 -63 68 -92q9 -27 4 -48q-3 -18 -18 -26q-13 -9 -26 -2t-14 26v50q-1 30 -28 84v0v0z" />
  </g>

</svg>
