<?xml version="1.0" standalone="no"?>
<!DOCTYPE svg PUBLIC "-//W3C//DTD SVG 1.1//EN" "http://www.w3.org/Graphics/SVG/1.1/DTD/svg11.dtd" >
<svg xmlns="http://www.w3.org/2000/svg" xmlns:xlink="http://www.w3.org/1999/xlink" version="1.1" viewBox="0 -36 256 256">
  <g transform="matrix(1 0 0 -1 0 220)">
   <path fill="currentColor"
d="M41 167l-4 -5v-56h67v70l19 -8l-5 -8v-46q0 -5 2 -19l-16 -6v10h-67l-6 -7l-12 12l4 4v50q0 5 -1 20zM98 181q-6 -9 -15 -22q15 -17 16 -24.5t-3.5 -10.5t-8 5t-12.5 21q-15 -17 -35 -28l-1 4q19 19 28 32l-21 26l2 3q14 -10 26 -20q11 16 15 28l16 -11zM156 162l-5 -6
v-50h66v64l19 -7l-5 -6v-44q0 -5 1 -17l-15 -4v7h-66l-7 -6l-12 11l5 4v44v18zM210 183q-7 -12 -16 -24q19 -19 19 -28.5t-4.5 -11.5t-7 6.5t-15.5 23.5q-16 -21 -30 -28l-6 -2q19 23 29 39l-21 23l3 3l24 -17q11 19 15 31l16 -14zM71 81h115l8 9l16 -13l-8 -6v-59l-14 -4
v12h-118v-9l-14 -3v80zM70 53h118v21h-118v-21zM70 27h118v19h-118v-19zM93 128q7 1 3 -7h-60l6 7h51zM210 126v-7h-59l6 7h53zM159 185l1 12v12h-63l1 -10l-16 -8l1 9v9h-43q-13 0 -22 -3l-10 10h75v13q0 9 -1 18l21 -8l-6 -6v-17h63v13q0 6 -1 18l22 -8l-7 -7v-16h43
l14 12l17 -19h-74v-9l1 -9z" />
  </g>

</svg>
