<?xml version="1.0" standalone="no"?>
<!DOCTYPE svg PUBLIC "-//W3C//DTD SVG 1.1//EN" "http://www.w3.org/Graphics/SVG/1.1/DTD/svg11.dtd" >
<svg xmlns="http://www.w3.org/2000/svg" xmlns:xlink="http://www.w3.org/1999/xlink" version="1.1" viewBox="0 -36 256 256">
  <g transform="matrix(1 0 0 -1 0 220)">
   <path fill="currentColor"
d="M71 221q23 -12 33.5 -19t8 -19t-11.5 2t-33 32q-21 -41 -58 -73l-2 2q21 24 39 57.5t17 42.5l17 -12q-5 -2 -10 -13zM104 118q0 -22 1 -35l-14 -8v7h-48v-47q19 9 39 19q-4 8 -12 23l1 2q21 -18 27.5 -27.5t0 -18.5t-9.5 0t-6 17q-43 -29 -46 -37l-11 15q4 6 4 13v76
q0 25 -1 44l14 -10h48l7 7l12 -12l-6 -6v-22zM43 120h48v24h-48v-24zM43 89h48v24h-48v-24zM190 62.5q4 -8.5 0 -15.5t-6.5 -6.5t-4 7.5t-5 16t-9.5 21l2 2q19 -16 23 -24.5zM215 73.5q6 -9.5 3 -17t-6.5 -8t-4.5 6.5t-4 15.5t-12 21.5l3 2q15 -11 21 -20.5zM123 220l14 -7
h12q7 24 8 34l17 -9q-7 -5 -11 -11t-8 -14h51l7 9l14 -12l-7 -6v-22q0 -14 1 -24l-15 -6v8h-69v-21h84l12 11l15 -18h-111v-23h88l8 11l14 -13l-7 -6q-2 -47 -4.5 -60t-9.5 -21t-19 -12q-1 14 -31 20v5q22 -3 31 -3.5t12.5 7.5t5 24.5t1.5 40.5h-89v-5l-14 -5q1 20 1 34v66
q0 14 -1 28zM206 206h-69v-39h69v39zM159 55.5q3 -9.5 0 -15.5t-6.5 -6.5t-4.5 8t-3 17.5t-7 20l3 2q15 -16 18 -25.5zM125.5 45q-1.5 -10 -7 -14.5t-11.5 -2t-1 9.5t8.5 14.5t6.5 25.5h4q2 -23 0.5 -33zM74.5 176.5q5.5 -7.5 2 -14.5t-6.5 -7t-5.5 10.5t-11.5 25.5l2 2
q14 -9 19.5 -16.5z" />
  </g>

</svg>
