<?xml version="1.0" standalone="no"?>
<!DOCTYPE svg PUBLIC "-//W3C//DTD SVG 1.1//EN" "http://www.w3.org/Graphics/SVG/1.1/DTD/svg11.dtd" >
<svg xmlns="http://www.w3.org/2000/svg" xmlns:xlink="http://www.w3.org/1999/xlink" version="1.1" viewBox="0 -205 1024 1024">
  <g transform="matrix(1 0 0 -1 0 819)">
   <path fill="currentColor"
d="M948 806l56 -48q2 -3 2 -8q0 -7 -8 -8h-250q2 -132 10 -222q5 -90 20 -150q35 77 56 146q21 66 36 136l76 -40q9 -3 6 -12q1 -3 -10 -8q-30 -3 -42 -42q-13 -37 -38 -98q-24 -60 -66 -138q21 -45 42 -74t42 -52q20 -21 32 -32q9 -10 18 -7q8 1 16 39q5 38 20 122l20 -2
q-7 -84 -10 -128q-2 -44 6 -67t16 -32q6 -9 4 -18q-4 -6 -16 -6q-12 -1 -38 12q-28 14 -52 34q-25 19 -62 63q-36 44 -66 100q-61 -82 -122 -131q-59 -51 -142 -100l-8 16q68 49 134 111q64 63 116 154q-30 104 -38 202q-7 98 -10 224h-288q-25 0 -44 -6l-26 34h356v210
l84 -32q9 -3 10 -12q0 -1 -6 -8l-36 -14v-144h166l34 36v0v0zM812 926l4 14q66 -18 94 -38q28 -19 32 -38q4 -18 -4 -30q-7 -13 -22 -14q-13 -2 -22 12q-7 15 -16 36t-66 58v0v0zM402 662l48 -38h118l30 36l50 -36q12 -6 12 -14q0 -6 -30 -26v-128l4 -66q0 -12 -18 -26
q-16 -12 -34 -12v48h-132v-32q-1 -13 -16 -26t-36 -14l4 116v218v0v0zM450 426h132v172h-132v-172v0v0zM332 228l332 90l6 -18q-144 -48 -200 -72q-58 -23 -94 -64l-44 64v0v0zM320 952l62 -52q8 -6 8 -12t-18 -12q-17 -6 -34 -30q-48 -82 -110 -202q48 -37 88 -80
q38 -43 50 -86q11 -42 8 -68q-3 -27 -12 -44t-30 -40t-84 -46q-9 30 -32 46q-22 16 -62 32l4 16q54 -12 78 -18q21 -4 40 2q18 6 34 28q15 21 12 66q-4 44 -32 88q-28 41 -88 104l94 236h-158v-718l4 -87q0 -20 -24 -32q-21 -12 -36 -12l4 129v794l56 -46h148l30 44v0v0z
" />
  </g>

</svg>
