<?xml version="1.0" standalone="no"?>
<!DOCTYPE svg PUBLIC "-//W3C//DTD SVG 1.1//EN" "http://www.w3.org/Graphics/SVG/1.1/DTD/svg11.dtd" >
<svg xmlns="http://www.w3.org/2000/svg" xmlns:xlink="http://www.w3.org/1999/xlink" version="1.1" viewBox="0 -36 256 256">
  <g transform="matrix(1 0 0 -1 0 220)">
   <path fill="currentColor"
d="M44 233l22 -6l-7 -4v-18h64v21q0 7 -1 18l22 -7l-7 -4v-28h64v12q0 7 -1 16l23 -7l-8 -5v-11q0 -6 1 -12l-15 -4v4h-142l-7 -7l-12 10l5 5v11q0 8 -1 16zM68.5 170.5q-4.5 -8.5 -10 -10t-14.5 0.5t4 8.5t22 19.5h4q-1 -10 -5.5 -18.5zM139 190q-6 -5 -7.5 -8t-5.5 -9
l32 -6q26 11 47 25l17 -13q-13 -1 -26 -5t-32 -8q44 -9 56.5 -12.5t15.5 -14t-26 2t-86 26.5q-9 -9 -35.5 -18t-74.5 -13v4q47 7 71 17.5t29 20t5 18.5zM180 140l6 8l15 -10l-6 -4v-47l-14 -4v6h-105v-4l-14 -3v62l15 -4h103zM76 133v-16h105v16h-105zM76 96h105v14h-105
v-14zM69 76q-2 -15 -7 -24t-13.5 -11t-13.5 2t8 10.5t21 22.5h5zM72.5 31.5q23.5 10.5 33 25.5t10.5 32l23 -8l-9 -6q5 -9 23 -24q34 19 42 32l17 -15q-14 -4 -26.5 -9.5t-27.5 -11.5q29 -21 88 -22v-3q-19 -5 -20 -14q-70 11 -99 61q-8 -29 -42.5 -42.5t-71.5 -16.5v4
q36 7 59.5 17.5z" />
  </g>

</svg>
