<?xml version="1.0" standalone="no"?>
<!DOCTYPE svg PUBLIC "-//W3C//DTD SVG 1.1//EN" "http://www.w3.org/Graphics/SVG/1.1/DTD/svg11.dtd" >
<svg xmlns="http://www.w3.org/2000/svg" xmlns:xlink="http://www.w3.org/1999/xlink" version="1.1" viewBox="0 -52 256 256">
  <g transform="matrix(1 0 0 -1 0 204)">
   <path fill="currentColor"
d="M50 242l9 -9h139l9 10l13 -12q2 -2 1 -2q0 -1 -3 -2l-4 -2v-39l1 -21q0 -6 -12 -9v9h-142v-4q-1 -7 -13 -9v2q2 9 2 17v61q0 4 -4 7zM40 149l7 -7h38l7 7l8 -8q2 -2 2 -3l-2 -1l-3 -3v-92q0 -13 -4 -17q-3 -5 -12 -8q0 7 -6 9q-2 0 -7 2t-9 3v2q14 -2 22 -2q6 0 6 9v29
h-41q-8 -33 -31 -56l-2 2q28 32 26 92v32l-2 8zM203 197h-142v-27h142v27zM61 201h142v27h-142v-27zM190 160l16 -10q3 -2 1 -3q-6 0 -10 -4q-1 -1 -3 -4q-7 -9 -12 -14h27l6 8l14 -10q4 -2 -1 -2h-54q0 -17 -3 -33h50l6 7l14 -9l2 -2q0 -1 -3 -1h-61q23 -54 65 -57v-3
q-13 -1 -17 -7q-40 19 -53 67h-4q-11 -54 -70 -69l-1 3q51 19 61 66h-36q-6 1 -10 -2l-8 7h55q3 15 3 33h-30q-6 0 -10 -3l-8 7h60q4 5 9 13q2 2 2 3q3 7 3 10q0 4 -1 7zM49 101q0 -15 -3 -28h41v31h-38v-3zM49 108h38v29h-38v-29zM135 157v3q20 -7 24 -17q5 -11 -2 -13
q-4 -1 -5 5q-2 5 -5 10q-1 3 -11 11q1 0 -1 1z" />
  </g>

</svg>
