<?xml version="1.0" standalone="no"?>
<!DOCTYPE svg PUBLIC "-//W3C//DTD SVG 1.1//EN" "http://www.w3.org/Graphics/SVG/1.1/DTD/svg11.dtd" >
<svg xmlns="http://www.w3.org/2000/svg" xmlns:xlink="http://www.w3.org/1999/xlink" version="1.1" viewBox="0 -36 256 256">
  <g transform="matrix(1 0 0 -1 0 220)">
   <path fill="currentColor"
d="M42 208h68v21h-68v-21zM42 181h68v20h-68v-20zM43 236h65l8 9l14 -14l-7 -6q0 -34 1 -51l-14 -7v7h-9v-21h13l11 10l13 -17h-37v-24h17l11 13l14 -20h-49q5 -9 18.5 -21t29.5 -16v-4q-13 -1 -13 -9q-27 15 -41 50h-25q-18 -32 -54 -55l-1 4q31 28 40 51h-12q-10 0 -19 -2
l-9 9h42v24h-5q-11 0 -19 -3l-9 10h33v21h-8v-8l-13 -6q1 19 1 42.5t-1 39.5zM62 153h27v21h-27v-21zM62 122h27v24h-27v-24zM61 75.5q5 -4.5 3.5 -11t-5.5 -8.5t-6 6.5t-12 19.5l2 3q13 -5 18 -9.5zM65 28.5q4 -0.5 4 10.5v14q-33 -21 -37 -29l-12 16q11 0 49 19
q0 36 -1 52l21 -12l-8 -7v-23q13 13 15 20l12 -13q-7 -1 -27 -13v-5q22 -8 27.5 -11t5.5 -11t-3 -9.5t-7 4.5t-23 20v-15q0 -21 -15 -26q-2 13 -16 17v4q11 -2 15 -2.5zM162 106.5q-3 -34.5 -15 -59t-35 -39.5l-2 3q20 19 29 45t11 61t0 124l14 -9h39l8 10l15 -14l-9 -7
v-178q-1 -12 4 -13h8q2 1 2.5 19t0.5 36h4q1 -22 3 -34.5t9 -16.5q-1 -9 -5.5 -12.5t-11.5 -3.5h-6q-22 -1 -21 21v186h-40q1 -84 -2 -118.5zM194.5 134.5q6.5 -11.5 -0.5 -24t-10.5 5t-15.5 43.5l3 2q17 -15 23.5 -26.5z" />
  </g>

</svg>
