<?xml version="1.0" standalone="no"?>
<!DOCTYPE svg PUBLIC "-//W3C//DTD SVG 1.1//EN" "http://www.w3.org/Graphics/SVG/1.1/DTD/svg11.dtd" >
<svg xmlns="http://www.w3.org/2000/svg" xmlns:xlink="http://www.w3.org/1999/xlink" version="1.1" viewBox="0 -36 256 256">
  <g transform="matrix(1 0 0 -1 0 220)">
   <path fill="currentColor"
d="M46 246q23 -12 27.5 -20.5t-3 -17.5t-11 5.5t-16.5 29.5zM53 121q-21 -26 -45 -41l-2 3q21 20 39.5 46.5t30.5 51.5h-40q-10 0 -19 -2l-9 9h69l8 11l18 -16l-10 -4l-26 -40q28 -10 33 -18t0 -18t-11.5 4t-21.5 26q0 -97 1 -118l-16 -6q1 43 1 112zM157 194h24v27h-24v-27
zM123 151h21v36h-21v-36zM157 151h24v36h-24v-36zM193 151h23v36h-23v-36zM109 167q0 17 -1 33l15 -6h21v27h-19q-10 0 -20 -2l-9 9h120l12 11l15 -18h-50v-27h22l9 9l13 -12l-8 -5q0 -34 1 -46l-14 -5v9h-93v-8l-15 -4q1 18 1 35zM202 121l15 11l17 -18h-96q-9 0 -17 -3
l-8 10h89zM230 51q13 -10 8.5 -24t-12 1t-37.5 40l2 3q26 -10 39 -20zM218 93l13 11l18 -18h-71v-50q1 -20 -19 -27q-1 14 -28 19v4q15 -1 24 -1.5t9 9.5v46h-42q-11 0 -20 -2l-9 9h125zM84 19l-2 3q27 20 48 54l18 -15l-12 -3q-28 -28 -52 -39z" />
  </g>

</svg>
