<?xml version="1.0" standalone="no"?>
<!DOCTYPE svg PUBLIC "-//W3C//DTD SVG 1.1//EN" "http://www.w3.org/Graphics/SVG/1.1/DTD/svg11.dtd" >
<svg xmlns="http://www.w3.org/2000/svg" xmlns:xlink="http://www.w3.org/1999/xlink" version="1.1" viewBox="0 -36 256 256">
  <g transform="matrix(1 0 0 -1 0 220)">
   <path fill="currentColor"
d="M165 166h20v26h-20v-26zM165 134h20v25h-20v-25zM165 102h20v25h-20v-25zM197 134h19v25h-19v-25zM197 102h19v25h-19v-25zM110 33l-13 -7v7h-66v-11l-13 -8q1 47 1 100t-1 70l13 -10h14v42h-6q-10 -1 -19 -3l-9 10h83l12 11l14 -18h-36v-42h12l8 12l13 -13l-8 -7v-105
q0 -24 1 -28zM57 174h15v42h-15v-42zM72 123v44h-15q0 -19 -3 -36.5t-22 -37.5l-2 2q11 20 13 36.5t2 35.5h-14v-87h41l12 7l13 -13v36h-12q-13 0 -13 13zM84 130q0 -10 4.5 -10h8.5v47h-13v-37zM97 73h-44q-9 0 -15 -2l-7 7v-38h66v33zM132 220q29 16 39 28l11 -13l-5 -1
q-20 -11 -43 -18zM153 199v25l12 6v-12v-19h20v23l12 4v-27h20l12 9l15 -16h-47v-26h18l8 9l13 -12l-8 -8v-21l9 9l12 -16h-21q0 -19 1 -37l-13 -5v10h-17q9 -21 23 -37t26 -19v-3q-11 -2 -18 -9q-22 25 -33 57q0 -57 1 -69l-14 -7q1 22 1 87h-20q0 -70 1 -81l-14 -7
q1 40 1 72q-18 -42 -56 -64l-2 3q35 30 50 77q-2 0 -14 -3l-8 10h30v25h-3q-13 -1 -25 -3l-9 10h37v24q-7 0 -18 -3l-10 9h28v28h-3l-26 -3l-9 10h38zM169 217q27 16 40 31l12 -13l-12 -5q-18 -8 -37 -16z" />
  </g>

</svg>
