<?xml version="1.0" standalone="no"?>
<!DOCTYPE svg PUBLIC "-//W3C//DTD SVG 1.1//EN" "http://www.w3.org/Graphics/SVG/1.1/DTD/svg11.dtd" >
<svg xmlns="http://www.w3.org/2000/svg" xmlns:xlink="http://www.w3.org/1999/xlink" version="1.1" viewBox="0 -36 256 256">
  <g transform="matrix(1 0 0 -1 0 220)">
   <path fill="currentColor"
d="M89 157q42 -15 50.5 -22t5.5 -18t-12.5 2.5t-45.5 33.5zM49 72h27v31h-27v-31zM89 72h27v31h-27v-31zM49 34h27v31h-27v-31zM89 34h27v31h-27v-31zM174 214q0 15 -1 33l21 -11l-7 -8v-26h30l11 12l11 -19h-52v-43h20l7 10l16 -12l-8 -6q-9 -47 -30 -81q26 -29 56 -36v-4
q-11 -2 -14 -12q-28 12 -50 42q-26 -30 -74 -45l-2 4q49 23 68 53q-17 33 -23 81l-8 -3l-9 9h38v62zM185 75q16 30 24 70h-49q6 -38 25 -70zM10 94l-2 4q41 30 56 64h-21q-12 0 -21 -2l-9 9h38q2 1 -1.5 11t-14.5 22l3 3q25 -13 25.5 -20.5t-5.5 -15.5h19v48q-25 -4 -51 -6
v6q39 6 63 12t34 12l12 -17l-10 1q-17 -3 -35 -7v-49h7q15 32 17 43l20 -12l-10 -4q-9 -13 -21 -27h21l13 11l13 -18h-60v-41l-13 -5v39q-24 -39 -67 -61zM47 110h70l6 7l14 -11l-7 -5v-45q0 -17 1 -29l-15 -7v7h-67v-9l-14 -7q1 16 1 33v69z" />
  </g>

</svg>
