<?xml version="1.0" standalone="no"?>
<!DOCTYPE svg PUBLIC "-//W3C//DTD SVG 1.1//EN" "http://www.w3.org/Graphics/SVG/1.1/DTD/svg11.dtd" >
<svg xmlns="http://www.w3.org/2000/svg" xmlns:xlink="http://www.w3.org/1999/xlink" version="1.1" viewBox="0 -36 256 256">
  <g transform="matrix(1 0 0 -1 0 220)">
   <path fill="currentColor"
d="M76 222q3 -9 -1.5 -15t-11.5 6t-26 25l2 3q34 -10 37 -19zM95 211q-36 -54 -39 -60.5t-2 -25t-8 -12.5t-6.5 14t0.5 16.5t-23 12.5v5q25 -7 35.5 2t38.5 51zM149 235l-8 -3q-5 -7 -10 -15h78l9 10l16 -15q-16 -5 -34 -24l-3 1l13 21h-82q-15 -22 -37 -38l-3 2
q20 23 29 41t11 31zM160 185q32 -42 86 -45v-4q-20 -3 -21 -13q-40 11 -67 55q-21 -45 -88 -58l-1 4q37 13 56.5 31.5t23.5 50.5l20 -7l-6 -4zM54.5 192.5q1.5 -7.5 -2.5 -13.5t-11 5.5t-23 21.5l1 4q34 -10 35.5 -17.5zM120 135l23 -9l-8 -6v-14h79l15 11l17 -18h-111v-57
q0 -11 1 -25l-16 -10q1 29 1 31v61h-80q-10 0 -20 -2l-9 9h109q0 7 -1 29zM13 26q49 32 68 61l19 -14l-11 -3q-47 -38 -74 -48zM154 82q46 -16 61.5 -25.5t14.5 -22.5t-9 -5.5t-18 17t-51 33.5z" />
  </g>

</svg>
