<?xml version="1.0" standalone="no"?>
<!DOCTYPE svg PUBLIC "-//W3C//DTD SVG 1.1//EN" "http://www.w3.org/Graphics/SVG/1.1/DTD/svg11.dtd" >
<svg xmlns="http://www.w3.org/2000/svg" xmlns:xlink="http://www.w3.org/1999/xlink" version="1.1" viewBox="0 -205 1024 1024">
  <g transform="matrix(1 0 0 -1 0 819)">
   <path fill="currentColor"
d="M84 842l54 -42h86l26 36l50 -42q6 -4 6 -10q1 -4 -28 -28v-336l4 -88q0 -15 -18 -26q-18 -10 -32 -10v62h-102v-94q0 -15 -18 -24q-18 -7 -32 -8l4 122v488v0v0zM130 384h102v392h-102v-392v0v0zM674 602h78v170l70 -26q4 -6 2 -6q1 -4 -10 -10l-20 -14v-114h78l28 42
l52 -50q3 -3 4 -6q0 -12 -14 -12h-120q13 -88 32 -136q18 -46 42 -88q21 -42 48 -66q27 -23 52 -34v-12q-28 1 -44 -4q-15 -3 -36 -18q-27 42 -48 90q-18 45 -38 108q-19 61 -28 158h-8v-412l4 -97q0 -14 -20 -26q-18 -13 -30 -12l4 129v316q-34 -94 -70 -158
q-37 -62 -76 -112l-14 8q29 51 58 112q29 59 50 118q18 57 40 136h-14q-18 0 -36 -6l-16 32v0v0zM866 812l32 46l60 -58q3 -4 4 -4q-1 -9 -10 -8h-546v-168q-9 -246 -66 -368q-54 -119 -150 -211l-14 12q78 87 126 203q47 114 56 340v262l68 -46h440v0v0zM422 604h102v172
l68 -28l6 -6q1 -7 -10 -10l-22 -14v-114h30l26 34l40 -42q3 -3 4 -6q0 -12 -14 -12h-86v-70q66 -30 84 -48t22 -36q4 -16 -4 -26q-5 -10 -16 -10q-11 1 -22 20q-9 18 -24 40q-13 18 -40 36v-318l4 -99q0 -16 -18 -26q-18 -12 -32 -12l4 139v284q-43 -98 -82 -166
q-39 -66 -78 -116l-14 8q29 50 62 116q33 62 60 134t48 150h-46q-18 0 -36 -6l-16 32v0v0zM576 960l8 12q45 -22 76 -46q30 -24 36 -48q6 -22 -6 -38q-10 -16 -28 -14q-19 0 -22 24q-2 21 -16 48q-12 26 -48 62v0v0z" />
  </g>

</svg>
