<?xml version="1.0" standalone="no"?>
<!DOCTYPE svg PUBLIC "-//W3C//DTD SVG 1.1//EN" "http://www.w3.org/Graphics/SVG/1.1/DTD/svg11.dtd" >
<svg xmlns="http://www.w3.org/2000/svg" xmlns:xlink="http://www.w3.org/1999/xlink" version="1.1" viewBox="0 -36 256 256">
  <g transform="matrix(1 0 0 -1 0 220)">
   <path fill="currentColor"
d="M67 215q-1 14 -17 26l2 3q22 -7 26 -13.5t-4 -15.5h39l9 10l14 -17h-98q-10 0 -19 -2l-10 9h58zM30 202l11 -5h60l6 7l12 -10l-6 -5v-22l-12 -3v3h-59v-3l-12 -2v40zM42 174h59v16h-59v-16zM23 159l13 -5h70l6 7l12 -10l-6 -4v-26l-12 -3v4h-71v-2l-12 -3v42zM35 129h71
v18h-71v-18zM77 81v-21h31l10 9l13 -16h-54v-19l1 -19l-15 -7l1 22v23h-28q-6 0 -17 -3l-10 10h55v21h-20q-7 1 -18 -2l-10 9h33q-2 14 -18 28l2 2q19 -7 25.5 -14t-1.5 -16h18q10 15 19 34l15 -12l-7 -2q-11 -11 -21 -20h22l9 9l13 -16h-48zM140 220l13 -7h11q6 25 6 34
l19 -8l-7 -5l-10 -21h37l7 10l13 -13l-7 -5q0 -36 1 -51l-14 -6v6h-55v-19h69l11 11l14 -18h-94v-20h75l7 9l12 -11l-7 -6q-2 -47 -4 -60t-8 -21t-17 -12q0 13 -23 17v5q18 -2 24.5 -2t9.5 8t4 25.5t2 40.5h-75v-7l-14 -5q1 23 1 37v66q0 13 -1 28zM209 206h-55v-20h55v20z
M209 179h-55v-18h55v18zM197.5 66q2.5 -9 -0.5 -14t-6.5 -5t-4 8t-3.5 16.5t-7 16.5l2 2q17 -15 19.5 -24zM218.5 74.5q4.5 -7.5 2 -15t-7 -8t-4.5 7t-4.5 17.5t-7.5 15l3 2q14 -11 18.5 -18.5zM173 64.5q4 -9.5 1 -16t-8 -6.5t-5 10t-2 17.5t-4 14.5l2 2q12 -12 16 -21.5z
M145 51.5q-2 -9.5 -8.5 -13t-10.5 1t3 13t9 15.5t3 16h4q2 -23 0 -32.5z" />
  </g>

</svg>
