<?xml version="1.0" standalone="no"?>
<!DOCTYPE svg PUBLIC "-//W3C//DTD SVG 1.1//EN" "http://www.w3.org/Graphics/SVG/1.1/DTD/svg11.dtd" >
<svg xmlns="http://www.w3.org/2000/svg" xmlns:xlink="http://www.w3.org/1999/xlink" version="1.1" viewBox="0 -205 1024 1024">
  <g transform="matrix(1 0 0 -1 0 819)">
   <path fill="currentColor"
d="M244 348h106l-20 562l48 -36q41 21 92 66l40 -42q10 -10 -12 -10q-34 0 -118 -36l6 -124h36l28 34l46 -46q6 -9 -6 -14h-104l4 -162h34l28 32l40 -38q9 -9 0 -18h-100l6 -168h134v268l70 -24q12 -7 0 -14l-24 -14v-216h76v314h-72l-30 -24l-48 40l22 20v290l70 -20
q18 -9 10 -18l-32 -14v-84h74l26 32l50 -40q10 -11 -4 -16h-148v-140h76l28 28l48 -36q9 -10 -2 -16l-20 -14v-302h122l6 166h-34q-28 -1 -40 -10l-20 34h94l4 166h-46q-22 -4 -28 -10l-24 36h98l4 138h-48q-24 1 -42 -10l-24 36h102l30 34l56 -38q8 -9 2 -18l-28 -18
l-14 -506h24l32 40q54 -42 58 -54q4 -9 -12 -12h-650q-31 2 -58 -10l-22 36v0v0zM240 53q140 93 260 215l60 -40q9 -7 -2 -16q-28 -1 -40 -8q-11 -5 -70 -46q-60 -40 -200 -119l-8 14v0v0zM674 234l6 16q99 -34 168 -70q69 -35 84 -61q15 -25 6 -44q-6 -18 -24 -18
q-18 -1 -38 28q-21 31 -66 65q-43 33 -136 84v0v0zM326 944q12 -8 -2 -16q-27 -2 -42 -34q-51 -96 -108 -198l50 -24q12 -6 -2 -18l-18 -8v-490l4 -93q1 -17 -22 -32q-20 -13 -34 -12l4 131v506q-71 -120 -130 -176l-12 8q57 80 138 248t102 246l72 -38v0v0z" />
  </g>

</svg>
