<?xml version="1.0" standalone="no"?>
<!DOCTYPE svg PUBLIC "-//W3C//DTD SVG 1.1//EN" "http://www.w3.org/Graphics/SVG/1.1/DTD/svg11.dtd" >
<svg xmlns="http://www.w3.org/2000/svg" xmlns:xlink="http://www.w3.org/1999/xlink" version="1.1" viewBox="0 -120 1000 1000">
  <g transform="matrix(1 0 0 -1 0 880)">
   <path fill="currentColor"
d="M308 108q33 88 53 183q15 73 15 111l48 -27q25 -14 25 -22q0 -6 -14 -10l-6 -3q-17 -57 -41 -118q-34 -83 -64 -123zM371 460l-5 -18q-3 -13 -12 -13q-10 0 -15 18l-20 70h96l145 318l55 -46q8 -6 8 -12q0 -11 -15 -11h-13l-155 -249h113q-16 47 -39 86l11 15
q25 -17 41 -33q57 -57 57 -124q0 -23 -12 -36q-8 -9 -18 -9q-12 0 -16 8q-6 11 -17 67l-50 -10v-432l-54 -5v430zM456 954l65 -40q20 -12 20 -22t-17 -10h-12l-87 -150l5 -9q23 -46 23 -70q0 -40 -28 -40q-10 0 -16 6q-5 6 -22 69q-17 55 -58 104l10 16q37 -21 69 -56z
M535 409q22 -23 41 -54q29 -47 41 -107q5 -27 5 -43q0 -24 -13 -38q-10 -11 -23 -11q-21 0 -22 43q-5 122 -42 197zM601 897h226l30 43l61 -52q9 -8 9 -13q0 -8 -13 -12l-20 -8v-365l-62 -9v64h-123v-371q0 -25 7 -30q6 -4 22 -4h82q34 0 38 2q7 3 13 15q7 9 25 73l19 67h21
l-12 -86q-2 -16 -2 -26q0 -28 32 -48q-5 -52 -67 -51h-169q-34 0 -49 14q-17 14 -18 56v462l63 -45h118v296h-217zM34 87q110 106 157 226q-30 27 -68 48l-17 -59l-56 1q59 230 83 384h-83l-10 28h98q25 160 29 235l84 -16q14 -3 14 -11q0 -10 -14 -15l-24 -9
q-10 -56 -16 -92q-9 -56 -16 -92h56l19 34l66 -47q16 -11 16 -20q0 -8 -14 -14l-20 -8q-16 -119 -27 -184q-14 -77 -44 -153q54 -39 68 -57q18 -21 18 -42q0 -15 -7.5 -25t-18.5 -10q-12 0 -23 10q-5 5 -20 30q-12 22 -39 46q-67 -124 -182 -201zM129 387l74 -36
q21 59 35 141q17 105 22 195h-70q-30 -175 -61 -300z" />
  </g>

</svg>
