<?xml version="1.0" standalone="no"?>
<!DOCTYPE svg PUBLIC "-//W3C//DTD SVG 1.1//EN" "http://www.w3.org/Graphics/SVG/1.1/DTD/svg11.dtd" >
<svg xmlns="http://www.w3.org/2000/svg" xmlns:xlink="http://www.w3.org/1999/xlink" version="1.1" viewBox="0 -36 256 256">
  <g transform="matrix(1 0 0 -1 0 220)">
   <path fill="currentColor"
d="M106 141l-3 3q16 22 29 52.5t18 50.5l19 -14l-8 -5q-5 -9 -11 -21h47l10 10l14 -15q-9 -4 -17.5 -14t-19.5 -28h31l7 11l14 -12l-6 -7v-35q0 -12 1 -25l-15 -6v9h-79v-54q0 -15 15 -16h64q8 1 10 11t3 37h5q0 -17 2.5 -29.5t11.5 -15.5q-3 -6 -7.5 -9.5t-12.5 -4.5h-84
q-20 2 -20 22v124q-5 -7 -18 -19zM128 166l9 -6h42q4 11 17 40h-48q-6 -12 -20 -34zM137 102h79v51h-79v-51zM33.5 63.5q-1.5 15.5 -11.5 39.5l3 2q30 -29 20 -43t-11.5 1.5zM92 170l13 -19h-37v-33h15l12 12l14 -19h-41v-49q12 14 26 45l14 -16l-9 -4q-13 -16 -31 -31v-13
l42 9v-4q-78 -24 -86 -31l-11 17q18 2 42 8v69h-11q-12 0 -21 -3l-10 10h42v33h-23q-10 -11 -21 -21l-2 3q30 46 52 114l17 -11l-6 -5l-5 -11q24 -9 33 -15.5t6 -19.5t-11.5 0.5t-29.5 30.5q-13 -29 -30 -58h45z" />
  </g>

</svg>
