<?xml version="1.0" standalone="no"?>
<!DOCTYPE svg PUBLIC "-//W3C//DTD SVG 1.1//EN" "http://www.w3.org/Graphics/SVG/1.1/DTD/svg11.dtd" >
<svg xmlns="http://www.w3.org/2000/svg" xmlns:xlink="http://www.w3.org/1999/xlink" version="1.1" viewBox="0 -36 256 256">
  <g transform="matrix(1 0 0 -1 0 220)">
   <path fill="currentColor"
d="M122 246l19 -8l-5 -3l-5 -5h69l11 8l18 -15h-102l-8 -9h58l11 5l15 -12h-89q-6 -5 -13 -10h111l13 8l16 -15h-74q49 -16 81 -16v-4q-13 -1 -18 -10q-29 4 -74 30h-62q-29 -18 -85 -30l-1 4q36 10 65 25h-31q-10 0 -20 -2l-9 9h69q9 6 14 11h-16q-11 0 -20 -2l-10 9h52
q4 4 8 9h-56q-11 0 -20 -2l-10 9h90q6 9 8 16zM63 154.5q0 11.5 -1 23.5l14 -3q22 5 30 11l15 -11q-12 0 -45 -4v-13h20l10 6l15 -13h-45v-12h101v12h-11q-10 0 -20 -2l-10 9h41v11h-16q-10 0 -20 -2l-10 9h44l9 7l13 -12l-7 -3v-25l1 -12l-14 -5v6h-101v-3l-14 -3
q1 17 1 28.5zM49 88q0 20 -1 32l15 -3h34q7 8 10 16l16 -6q-8 -3 -17 -10h77l6 5l16 -7l-6 -4q0 -17 1 -25l-15 -5v3h-122v-7h146l11 10l17 -17h-174v-9h146l7 7l14 -10l-6 -4q-5 -14 -8.5 -23t-10 -14.5t-23.5 -9.5q-1 7 -7.5 9.5t-20.5 3.5v5q33 -3 38 -0.5t7 4.5t4.5 7.5
t6.5 17.5h-147v-3l-15 -3q1 20 1 40zM185 110h-122v-6h122v6zM185 97h-122v-6h122v6zM182.5 42.5q3.5 -4.5 2 -9t-6.5 -6t-6.5 3.5t-5.5 11t-12 12l3 2q22 -9 25.5 -13.5zM94.5 32q1.5 -6 -1.5 -9.5t-6.5 -3t-4 5.5t-2.5 10t-8 14l4 1q17 -12 18.5 -18zM140 38.5
q3 -5.5 -0.5 -10.5t-6 -5t-4.5 7t-6 11.5t-8 8.5l2 3q20 -9 23 -14.5zM43.5 26q-3.5 -6 -9 -8t-10.5 2.5t0.5 7t10 7t8.5 15.5h4q0 -18 -3.5 -24z" />
  </g>

</svg>
