<?xml version="1.0" standalone="no"?>
<!DOCTYPE svg PUBLIC "-//W3C//DTD SVG 1.1//EN" "http://www.w3.org/Graphics/SVG/1.1/DTD/svg11.dtd" >
<svg xmlns="http://www.w3.org/2000/svg" xmlns:xlink="http://www.w3.org/1999/xlink" version="1.1" viewBox="0 -205 1024 1024">
  <g transform="matrix(1 0 0 -1 0 819)">
   <path fill="currentColor"
d="M222 410l54 -36h212v88l72 -24q9 -6 6 -12q0 -3 -26 -18v-34h200l28 32l54 -38q6 -6 6 -14q1 -3 -28 -24v-112h102l32 46l54 -54q3 -3 4 -8q3 -12 -8 -12h-392q54 -45 106 -69q50 -23 128 -38q78 -13 162 -12v-18l-42 -8q-37 -11 -46 -38q-69 12 -132 38q-63 27 -116 62
q-51 33 -90 83h-62q-43 -59 -110 -91q-66 -34 -138 -56q-69 -24 -194 -40v18q98 21 172 48q71 26 128 58q56 30 80 63h-322q-37 0 -52 -8l-24 36h182v192v0v0zM272 218h184q23 47 32 128h-216v-128v0v0zM538 346q-5 -81 -28 -128h240v128h-212v0v0zM334 594l80 -34
q5 -4 2 -10q0 -3 -32 -18v-22h252v86l82 -32q4 -1 2 -10q0 -3 -32 -18v-26h148l44 50l62 -62q3 -1 4 -8q-1 -6 -16 -6h-242v-48q-1 -15 -22 -26q-21 -6 -30 -6v80h-252v-50q-2 -16 -16 -22q-13 -6 -34 -6v78h-172q-33 1 -66 -10l-18 36h256v84v0v0zM158 956h636l42 54
l70 -60q3 -3 4 -8q-1 -12 -16 -12h-352v-76h346l34 36l54 -48q12 -9 12 -14q-3 -6 -18 -8q-25 -9 -44 -24q-18 -15 -66 -72l-16 8l52 96h-354v-124l4 -90q0 -15 -18 -30t-42 -14l4 128v130h-336q-6 -65 -20 -88q-15 -23 -32 -34q-18 -10 -32 -4q-13 5 -16 20q-4 14 16 34
q18 17 36 44q16 26 26 100h18l2 -46h338v76h-248q-21 0 -68 -8l-16 34v0v0zM208 752h210v-26h-210v26v0v0zM206 654h212v-26h-212v26v0v0zM614 752h202v-26h-202v26v0v0zM618 656h198v-26h-198v26v0v0z" />
  </g>

</svg>
