<?xml version="1.0" standalone="no"?>
<!DOCTYPE svg PUBLIC "-//W3C//DTD SVG 1.1//EN" "http://www.w3.org/Graphics/SVG/1.1/DTD/svg11.dtd" >
<svg xmlns="http://www.w3.org/2000/svg" xmlns:xlink="http://www.w3.org/1999/xlink" version="1.1" viewBox="0 -205 1024 1024">
  <g transform="matrix(1 0 0 -1 0 819)">
   <path fill="currentColor"
d="M454 914l60 -38h304l30 46l66 -44q6 -7 6 -10q0 -6 -32 -32v-236l4 -92q3 -11 -14 -22q-15 -11 -42 -16v36h-330v-20q0 -13 -18 -26q-18 -12 -38 -12l4 150v316v0v0zM506 532h330v152h-330v-152v0v0zM506 710h330v140h-330v-140v0v0zM390 346h246v148l78 -24q8 -4 10 -10
q0 -3 -6 -6l-30 -18v-90h146l36 50l64 -58q3 -3 4 -8q0 -12 -12 -12h-238v-199h208l40 51l66 -57q3 -3 4 -10q0 -12 -12 -12h-574q-21 1 -68 -8l-16 36h300v199h-162q-21 0 -68 -8l-16 36v0v0zM48 740h158v226l74 -32q9 -7 10 -10q-1 -4 -34 -22v-162h58l32 46l58 -54
q3 -3 4 -8q0 -10 -12 -10h-140v-196l134 68l10 -16l-144 -86v-357q2 -36 -16 -58q-19 -22 -64 -36q-6 34 -36 46q-27 13 -72 28l4 16q93 -19 114 -14q20 4 20 28v317l-64 -38q-41 -34 -58 -58l-48 60l170 78v218h-74q-21 0 -68 -8l-16 34v0v0z" />
  </g>

</svg>
