<?xml version="1.0" standalone="no"?>
<!DOCTYPE svg PUBLIC "-//W3C//DTD SVG 1.1//EN" "http://www.w3.org/Graphics/SVG/1.1/DTD/svg11.dtd" >
<svg xmlns="http://www.w3.org/2000/svg" xmlns:xlink="http://www.w3.org/1999/xlink" version="1.1" viewBox="0 -36 256 256">
  <g transform="matrix(1 0 0 -1 0 220)">
   <path fill="currentColor"
d="M94 91l1 -5q-65 -33 -72 -42l-13 16q11 2 37 13v81h-5q-10 0 -19 -2l-10 9h34v43q0 12 -1 31l22 -10l-8 -7v-57h9l11 10l14 -17h-34v-77zM179 65l2 -3q-35 -26 -45 -40l-11 14q6 5 7 17v84q0 25 -1 41l14 -8q15 2 35.5 8t31.5 14l14 -17q-13 -1 -41 -6q1 -24 3 -50h25
l13 12l16 -19h-53q3 -27 12.5 -45t21.5 -28l11 35l4 -1q-3 -20 -3 -33.5t2.5 -20.5t-13 1.5t-29.5 30.5t-19 61h-31v-64zM145 164v-45h30q-2 25 -3 48zM105 69.5q-10 -34.5 -35 -60.5l-3 2q21 32 27 64.5t6 73.5t-1 67l15 -9h99l13 11l17 -18h-129q1 -96 -9 -130.5zM180 31
l10 9l15 -16h-43l-7 -3l-9 10h34zM174 233.5q7 -4.5 7.5 -11t-4.5 -11t-8.5 5t-19.5 26.5l2 2q16 -7 23 -11.5z" />
  </g>

</svg>
