<?xml version="1.0" standalone="no"?>
<!DOCTYPE svg PUBLIC "-//W3C//DTD SVG 1.1//EN" "http://www.w3.org/Graphics/SVG/1.1/DTD/svg11.dtd" >
<svg xmlns="http://www.w3.org/2000/svg" xmlns:xlink="http://www.w3.org/1999/xlink" version="1.1" viewBox="0 -36 256 256">
  <g transform="matrix(1 0 0 -1 0 220)">
   <path fill="currentColor"
d="M183.5 227q3.5 -6 -1.5 -15t-9.5 2.5t-19.5 25.5l1 4q26 -11 29.5 -17zM154 156l27 1q7 10 11 22l16 -13l-8 -3q-25 -33 -41 -46q18 1 37 2q-4 11 -6 17l2 2q16 -14 19.5 -22t-2.5 -15t-7 -1t-4 15q-44 -8 -47 -15l-10 17q6 0 17 10t21 25q-26 -5 -29 -11l-8 17
q6 1 15.5 13t15.5 27h-33q-10 0 -19 -2l-9 9h101l12 12l17 -19h-67l15 -8l-8 -4q-11 -15 -28 -30zM117 191q21 -9 25 -15t-2 -15t-8.5 1.5t-16.5 26.5zM148 137l3 -3q-17 -15 -23 -23t-7 -12l-11 14q9 4 38 24zM209 152l-2 2q16 19 24 37l15 -15l-8 -1q-11 -11 -29 -23z
M240.5 125.5q7.5 -6.5 2.5 -17t-10 1t-23 28.5l2 3q21 -9 28.5 -15.5zM184 49q0 -19 1 -32l-15 -9q1 19 1 64h-37q-10 0 -19 -2l-9 9h65q0 14 -1 28l21 -10l-7 -7v-11h33l13 11l17 -18h-63v-23zM33 59.5q-4 15.5 -16 36.5l2 3q16 -13 24.5 -23t1 -21t-11.5 4.5zM91 166
l14 -17h-35v-29h13l12 10l13 -17h-38v-53q10 13 25 47l15 -15l-9 -6q-13 -14 -31 -33v-10l45 10v-4q-62 -20 -89 -32l-11 17q17 2 42 8v71h-13q-12 0 -21 -2l-9 9h43v29h-8q-4 0 -10 -2l-7 5q-10 -14 -22 -24l-2 2q34 54 53 117l18 -11l-7 -5q-3 -7 -6 -13q25 -8 33.5 -13.5
t5.5 -18t-11 -0.5t-29 28q-16 -35 -30 -58h44z" />
  </g>

</svg>
