<?xml version="1.0" standalone="no"?>
<!DOCTYPE svg PUBLIC "-//W3C//DTD SVG 1.1//EN" "http://www.w3.org/Graphics/SVG/1.1/DTD/svg11.dtd" >
<svg xmlns="http://www.w3.org/2000/svg" xmlns:xlink="http://www.w3.org/1999/xlink" version="1.1" viewBox="0 -205 1024 1024">
  <g transform="matrix(1 0 0 -1 0 819)">
   <path fill="currentColor"
d="M712 974q9 -3 6 -12q0 -3 -6 -6l-24 -10v-56h156l32 42l60 -48q3 -3 4 -6q0 -12 -12 -12h-240v-72h122l32 38l54 -44q3 -3 4 -6q0 -12 -14 -12h-362q-15 0 -62 -8l-18 32h196v72h-150q-18 0 -66 -8l-18 32h234v108l72 -24v0v0zM460 614h308l34 34l44 -40q3 -3 4 -8
q3 -10 -8 -10h-156v-76h142l34 40l54 -44q3 -4 4 -8q0 -12 -14 -12h-420q-20 0 -52 -8l-22 32h224v76h-108q-21 0 -44 -8l-24 32v0v0zM904 702l24 32l44 -38q15 -9 16 -18q0 -6 -12 -8q-30 -1 -50 -16q-18 -15 -48 -50l-16 10l38 64h-450q-25 0 -50 -8l-22 32h526v0v0z
M894 430l34 38l58 -44q3 -3 4 -6q0 -12 -12 -12h-514q-18 0 -66 -8l-18 32h514v0v0zM422 360l44 -32h96l26 32l46 -30q6 -4 6 -10q1 -4 -22 -20v-153l4 -32q0 -6 -18 -18q-15 -9 -32 -10v54h-102v-50q0 -8 -20 -16q-18 -10 -32 -8l4 97v196v0v0zM470 164h100v140h-100v-140
v0v0zM650 318h176v76l66 -24q9 -3 6 -14q-1 4 -28 -16v-22h52l32 36l48 -46q3 -4 4 -4q0 -10 -12 -10h-124v-197q-3 -24 -18 -40q-12 -12 -42 -24q-10 32 -38 42q-27 12 -68 24l4 18q76 -16 98 -14q22 3 20 24v167h-104q-22 0 -58 -8l-14 32v0v0zM672 260l8 12
q57 -27 78 -42q18 -15 22 -32q4 -15 -4 -30q-9 -12 -24 -12q-15 -1 -18 20q-3 18 -18 40q-15 20 -44 44v0v0zM46 874q75 -78 94 -108q16 -30 14 -54q-1 -24 -14 -32q-13 -10 -26 -4q-13 4 -16 32q-1 27 -14 64q-13 33 -50 94l12 8v0v0zM234 630h86l32 46l52 -54q3 -3 4 -8
q0 -10 -12 -10h-162v-76q44 -21 86 -56q42 -34 48 -58t-2 -42q-6 -16 -24 -14q-18 0 -24 24q-6 21 -26 60q-22 36 -58 64v-346l4 -91q0 -14 -18 -26q-18 -14 -36 -14l4 129v342q-30 -96 -72 -174q-43 -78 -92 -144l-12 10q39 74 72 152q33 77 54 146q17 66 32 114h-82
q-21 0 -56 -8l-16 34h172v360l74 -36q3 -1 4 -2q9 -6 0 -12l-32 -18v-292v0v0zM264 674q52 128 74 206q65 -34 68 -40q1 -7 -10 -10q-9 -4 -26 -16q-18 -13 -92 -148l-14 8v0v0z" />
  </g>

</svg>
