<?xml version="1.0" standalone="no"?>
<!DOCTYPE svg PUBLIC "-//W3C//DTD SVG 1.1//EN" "http://www.w3.org/Graphics/SVG/1.1/DTD/svg11.dtd" >
<svg xmlns="http://www.w3.org/2000/svg" xmlns:xlink="http://www.w3.org/1999/xlink" version="1.1" viewBox="0 0 2048 2048">
  <g transform="matrix(1 0 0 -1 0 2048)">
   <path fill="currentColor"
d="M1089 1131h-93q-33 0 -73 -3l-27 -2q-24 -2 -26 -2l-25 -4l-35 86q26 -4 40 -5l41 -6q45 -6 105 -6h118q6 13 9 21q3 7 15 40q13 34 43 126l10 31h-128q-31 0 -65 -3q-36 -2 -47 -3q-12 -1 -14 -1l-25 -4l-35 86q26 -4 40 -5l42 -6q46 -6 104 -6h143q6 27 18 79
q13 51 19 95l7 51q-42 -4 -58 -5t-46 -3q-30 -1 -126 -5l-81 -4l-4 46q80 7 133 13q54 6 138 18q83 12 135 22q52 9 121 25q68 16 98 25t79 26q49 18 60 24l46 23l91 -78q17 -16 24 -29q7 -12 1 -20q-6 -9 -17 -12t-34 2l-41 8q-80 -16 -128 -24q-47 -9 -124 -20
q-77 -12 -91 -13l-58 -5q-3 -15 -4 -22l-18 -79q-26 -117 -29 -126l-4 -12h336l98 95l125 -100q8 -8 13 -14q5 -7 2 -20q-4 -11 -11 -15q-8 -4 -15 -4h-565q-4 -15 -6 -22l-10 -28l-37 -106l-17 -42l-9 -20h508l98 95l125 -100q8 -8 13 -14q5 -7 2 -20q-4 -11 -11 -15
q-8 -4 -14 -4h-748l-38 -71q-24 -45 -48 -79l-21 -30l29 -31h625l60 73l73 -48q14 -10 26 -23q13 -14 15 -24t-7 -22q-10 -13 -26 -18l-30 -11l-1 -616q-1 -31 0 -45t3 -40q2 -25 2 -36q-2 -20 -11 -34q-9 -13 -40 -15q-19 -2 -29 3t-16 11q-5 6 -5 35v55h-663v-76
q0 -23 -6 -34t-18 -15q-13 -5 -30 -4q-21 0 -31.5 6t-14.5 16q-4 11 -2 29q1 18 2 31l3 37q2 27 2 52v632l-24 -25l-41 -40l-78 -70q-45 -40 -90 -73l-63 -47l-25 32l82 74q38 35 94 94q55 59 114 135q58 76 102 162l15 30zM1751 673v187h-663v-187h663zM1751 618h-663v-157
h663v157zM1751 405h-663v-186h663v186zM484 954q20 10 31 15l123 55l85 43l35 17l17 -37l-31 -21l-86 -59q-18 -12 -138 -82l-36 -21v-619q0 -39 -10 -67q-11 -27 -30 -45q-18 -18 -45 -34t-39 -18l-31 -7q-3 17 -7 36q-5 19 -18 36q-13 18 -39 30q-26 11 -82 23l-61 12
l8 45q49 -8 76 -12l59 -8q32 -5 63 -6q31 -2 46 12q14 13 14 45v524l-85 -45l-46 -26l-3 -49q-2 -18 -6 -26q-5 -8 -13 -9q-8 -2 -18 5t-23 25l-90 117q20 6 33 11q13 4 90 33t95 36l52 22l14 6v466h-64l-161 -6q-15 -1 -18 -1l-13 -2l-38 92q13 -3 34 -7t56 -9
q36 -5 140 -5h64v325q0 57 -3 98q-3 42 -3 48l-2 14l109 -24q49 -11 67 -20q17 -10 18 -24q2 -14 -12 -26t-37 -18l-41 -11v-362h94l80 80l114 -90q10 -9 14 -15q5 -5 2 -18q-4 -11 -12 -15q-7 -4 -14 -4h-278v-423z" />
  </g>

</svg>
