<?xml version="1.0" standalone="no"?>
<!DOCTYPE svg PUBLIC "-//W3C//DTD SVG 1.1//EN" "http://www.w3.org/Graphics/SVG/1.1/DTD/svg11.dtd" >
<svg xmlns="http://www.w3.org/2000/svg" xmlns:xlink="http://www.w3.org/1999/xlink" version="1.1" viewBox="0 -205 1024 1024">
  <g transform="matrix(1 0 0 -1 0 819)">
   <path fill="currentColor"
d="M410 314q0 -81 -2 -114q-2 -32 -16 -58q-12 -23 -30 -33q-16 -9 -32 -10q-16 1 -22 20q-7 17 14 33q21 14 40 44q18 30 28 118h20v0v0zM596 420q74 -49 98 -82q22 -33 20 -54q0 -22 -14 -32q-13 -11 -28 -6q-16 3 -20 30q-3 26 -12 56t-54 78l10 10v0v0zM850 328
q63 -45 94 -74q30 -28 40 -52q10 -22 8 -38q-3 -17 -12 -25q-9 -10 -24 -8q-15 0 -24 33t-26 64q-16 30 -64 88l8 12v0v0zM550 294v-177q0 -17 6 -26q5 -8 34 -10h156q24 -2 34 10q9 10 12 44q1 28 0 101h20q5 -76 10 -99q2 -24 32 -40q-17 -43 -40 -50q-22 -9 -44 -10h-200
q-40 1 -56 16t-16 48v253l74 -28q8 -3 10 -8q0 -6 -6 -8q-6 -4 -26 -16v0v0zM700 962q69 -19 72 -22t0 -6t-24 -18q17 -61 58 -112t80 -78t106 -36v-16q-27 -3 -50 -8q-25 -4 -40 -26q-30 20 -60 50q-27 27 -66 90q-38 61 -76 182v0v0zM544 946l70 -38q12 -6 4 -14
q-23 -3 -34 -14q-12 -9 -68 -90q-55 -81 -148 -174l-12 10q69 90 114 168q41 76 74 152v0v0zM606 744l72 -38q9 -7 -2 -14q-25 -6 -34 -12q-6 -6 -24 -30q-15 -23 -104 -154q102 3 280 12q-18 48 -74 108l10 12q82 -60 110 -92q27 -30 34 -60q4 -30 -6 -48q-12 -18 -30 -14
q-18 3 -24 30q-3 23 -12 44q-100 -7 -196 -22q-96 -12 -132 -48l-44 70l42 14q24 12 64 88q38 75 70 154v0v0zM26 742h164v238l82 -32q12 -6 4 -14l-34 -16v-176h64l40 44l50 -54q12 -15 -8 -18h-146v-192l134 74l10 -16l-144 -102v-351q2 -36 -16 -64q-19 -24 -64 -40
q-6 36 -36 50q-28 15 -76 32l4 16q94 -26 116 -20q20 6 20 32v315q-69 -53 -84 -70q-12 -16 -30 -38l-54 56l168 100v218h-92q-21 -1 -50 -10l-22 38v0v0z" />
  </g>

</svg>
