<?xml version="1.0" standalone="no"?>
<!DOCTYPE svg PUBLIC "-//W3C//DTD SVG 1.1//EN" "http://www.w3.org/Graphics/SVG/1.1/DTD/svg11.dtd" >
<svg xmlns="http://www.w3.org/2000/svg" xmlns:xlink="http://www.w3.org/1999/xlink" version="1.1" viewBox="0 -143 1024 1024">
  <g transform="matrix(1 0 0 -1 0 881)">
   <path fill="currentColor"
d="M229 736l97 8l30 34q70 -38 70.5 -44t-5 -11t-34.5 -25v-550q0 -44 6.5 -52.5t14.5 -7.5h509q15 2 20 19t6 55t1 100h20q3 -74 7.5 -108.5t33.5 -55.5q-17 -32 -33 -44t-49 -14h-510q-35 0 -55 16.5t-20 67.5v594l-111 -10q3 -124 -7 -251t-56 -243t-124 -188l-12 8
q58 78 98 193t47 222t5 255l-80 -8q-16 -4 -34 -16l-26 38l140 14v256q83 -28 86 -35t-3 -11t-32 -16v-190zM594 976l75 -31q14 -5 4 -15l-30 -16v-180h72v244l76 -33q12 -5 3 -16l-30 -9v-186h73l28 34l54 -41q5 -7 5 -9q0 -7 -27 -24v-416l4 -62q0 -11 -16.5 -25
t-38.5 -15v60h-331v-48q-2 -17 -20 -26t-35 -8l4 102v516l53 -38h77v242zM515 262h79v210h-79v-210zM643 472v-210h72v210h-72zM764 472v-210h82v210h-82zM515 500h79v206h-79v-206zM643 706v-206h72v206h-72zM764 706v-206h82v206h-82z" />
  </g>

</svg>
