<?xml version="1.0" standalone="no"?>
<!DOCTYPE svg PUBLIC "-//W3C//DTD SVG 1.1//EN" "http://www.w3.org/Graphics/SVG/1.1/DTD/svg11.dtd" >
<svg xmlns="http://www.w3.org/2000/svg" xmlns:xlink="http://www.w3.org/1999/xlink" version="1.1" viewBox="0 -36 256 256">
  <g transform="matrix(1 0 0 -1 0 220)">
   <path fill="currentColor"
d="M30 238q25 -10 30 -17.5t0.5 -16t-10.5 3.5t-21 27zM11 183q30 -12 32 -21.5t-3.5 -15t-10 6t-19.5 27.5zM37 87q6 4 32 107l4 -1q-19 -88 -23 -111t-1.5 -47.5t-8.5 -18.5t-8 22.5t3 27t-23 15.5v4q19 -2 25 2zM80 237l14 -7h120l10 11l18 -18h-149v-94q-1 -81 -30 -118
l-4 2q22 43 22 128q0 69 -1 96zM93 130q15 20 24.5 44.5t12.5 42.5l18 -10q-2 0 -6 -7t-15 -34l9 -6l-5 -7v-135l-13 -8q1 27 1 41v102q-9 -12 -23 -26zM164 192h8q5 17 7 30l18 -9l-7 -4q-4 -6 -13 -17h36l7 8l12 -11l-5 -6v-17q0 -14 1 -28l-14 -4v5h-49v-19h54l10 11
l18 -18h-82v-16h59l7 9l13 -10l-6 -7q-2 -57 -9 -67.5t-21 -13.5q-5 10 -31 18v4q26 -5 32 -4.5t10 6.5t6 58h-60v-4l-14 -4q1 15 1 30v58q0 15 -1 29zM165 161v-15h49v15h-49zM165 185v-17h49v17h-49zM214.5 66.5q1.5 -7.5 -4 -12.5t-7 5.5t-7.5 23.5l2 2
q15 -11 16.5 -18.5zM152 75h3q0 -21 -3.5 -27.5t-10.5 -4t0.5 9.5t10.5 22zM162 76l2 1q12 -15 12 -21t-5 -9.5t-5 5.5t-4 24zM177 79l2 2q13 -11 16 -18t-2.5 -12.5t-7.5 6t-8 22.5z" />
  </g>

</svg>
