<?xml version="1.0" standalone="no"?>
<!DOCTYPE svg PUBLIC "-//W3C//DTD SVG 1.1//EN" "http://www.w3.org/Graphics/SVG/1.1/DTD/svg11.dtd" >
<svg xmlns="http://www.w3.org/2000/svg" xmlns:xlink="http://www.w3.org/1999/xlink" version="1.1" viewBox="0 -205 1024 1024">
  <g transform="matrix(1 0 0 -1 0 819)">
   <path fill="currentColor"
d="M450 665q9 -9 9 -13q0 -7 -28 -20v-249q0 -14 1 -27.5t1 -15.5q0 -12 -23 -20q-14 -4 -17 -4q-5 0 -5 26h-226q1 -23 0 -26q-2 -3 -22 -14q-11 -3 -14 -3q-7 0 -8 14q1 -25 1 60v267l-4 58l52 -22h93l67 142h-131q-51 -89 -123 -155l-8 9q86 104 138 275l35 -15
q24 -12 24 -21q0 -11 -28 -12q-10 -22 -28 -61h119l8 11q9 11 12 11q4 0 16 -11l27 -25q12 -11 12 -17q0 -10 -36 -17l-88 -114h101l13 19q10 11 11 11q3 0 17 -10zM465 164q1 -26 -18 -26q-12 0 -18 19q-11 37 -18 52q-14 23 -49 64l8 7q94 -67 95 -116zM342 107
q-14 0 -17 21q-6 34 -12 51q-10 30 -35 75l11 7q40 -48 50 -63q21 -32 21 -56q0 -35 -18 -35zM255 106q-5 -18 -19 -18q-15 0 -16 23q-4 86 -32 149l11 5q60 -89 60 -131q0 -14 -4 -28zM141 269q1 -26 1 -48q0 -109 -37 -151q-12 -11 -22 -11q-17 0 -14 28q3 22 17 42
q19 24 26 41q13 36 13 100zM388 520v135h-91v-135h91zM254 520v135h-92v-135h92zM388 362v137h-91v-137h91zM254 362v137h-92v-137h92zM651 807q-4 -27 -20 -27q-10 0 -17 13q-13 43 -15 46q-26 47 -71 84l11 10q61 -35 93.5 -66.5t18.5 -59.5zM967 761l-6 -15h-225
l-70 -125h163l20 19q10 10 13 10q4 0 17 -12l25 -26q15 -14 15 -21q0 -10 -28 -16v-455q0 -18 -1 -35q-1 -5 -24 -16q-9 -7 -13 -7q-5 0 -5 13q1 25 0 30h-266q1 -32 -1 -35.5t-23 -10.5q-9 -5 -13 -5q-7 0 -8 18q1 -27 1 61v473l-6 42l58 -27h55l34 125h-218v21h276l73 174
l49 -26q23 -13 23 -18q-10 -15 -39 -15l-87 -115h107l21 30q14 19 16 19q1 0 20 -16zM848 454v147h-266v-147h266zM848 291v143h-266v-143h266zM848 126v144h-266v-144h266z" />
  </g>

</svg>
