<?xml version="1.0" standalone="no"?>
<!DOCTYPE svg PUBLIC "-//W3C//DTD SVG 1.1//EN" "http://www.w3.org/Graphics/SVG/1.1/DTD/svg11.dtd" >
<svg xmlns="http://www.w3.org/2000/svg" xmlns:xlink="http://www.w3.org/1999/xlink" version="1.1" viewBox="0 -144 1024 1024">
  <g transform="matrix(1 0 0 -1 0 880)">
   <path fill="currentColor"
d="M377 85l-7 37v2l-1 2l19 3l84 180l65 153h-224v22h233l72 192l58 -30l11 -16l-19 -3l-46 -108l-16 -35h236l54 54l64 -54v-22h-365l-58 -117l-58 -106l-30 -50l-40 -57l142 19l97 11l101 11l52 5l23 1l-21 49l-37 69l-66 111l8 6l31 -32l30 -32l27 -33l47 -67l38 -67
l16 -33l14 -34l12 -34l-3 -24l-19 -15l-25 3l-15 19l-8 31l-10 32l-12 33l-1 4l-77 -20l-193 -44l-158 -34l-8 -19l-14 15v2l-3 18v2zM119 88l64 -5l-11 -21l-24 -8l-21 11zM369 126l11 -61l-22 59zM303 701l10 -4l-110 -309l-25 -78l-14 -51l-2 -14l-4 1l5 -11l10 -33
l6 -36l4 -40v-43l-64 5l2 38l1 35l-2 31l-5 29l-7 24l-6 14l-3 1l1 4l-13 24l-15 17l-18 17l-21 16l3 9l28 -7l25 -12l24 -17l4 -4l119 257zM880 596l-34 28l-32 30l-32 34l-29 36l-29 40l-27 41l-25 45l-24 48l-2 5l-33 -59l-32 -51l-33 -48l-36 -44l-38 -41l-39 -38
l-42 -34l-43 -29l-46 -26l-5 8l38 34l37 35l36 37l34 40l32 42l31 45l29 48l27 50l25 53l24 56l3 7l57 -33l10 -16l-19 -2l-6 -12l72 -98l30 -36l32 -34l31 -31l32 -28l32 -25l33 -21l56 -34l-59 -46zM126 601l-5 10l-7 11l-7 11l-10 11l-11 11l-13 11l-30 22l-18 10l3 9
l41 -10l18 -6l18 -7l32 -16l14 -10l13 -12l12 -12l10 -13l2 -25l-16 -19l-24 -2l-19 16zM194 847l-5 11l-6 11l-18 22l-22 22l-13 11l-15 12l-16 9l3 9l19 -6l18 -4l18 -6l17 -7l16 -7l15 -9l14 -10l13 -11l12 -12l11 -14l2 -24l-14 -20l-25 -2l-19 15z" />
  </g>

</svg>
