<?xml version="1.0" standalone="no"?>
<!DOCTYPE svg PUBLIC "-//W3C//DTD SVG 1.1//EN" "http://www.w3.org/Graphics/SVG/1.1/DTD/svg11.dtd" >
<svg xmlns="http://www.w3.org/2000/svg" xmlns:xlink="http://www.w3.org/1999/xlink" version="1.1" viewBox="0 -205 1024 1024">
  <g transform="matrix(1 0 0 -1 0 819)">
   <path fill="currentColor"
d="M102 850q59 -70 74 -104q15 -33 12 -56q-3 -21 -14 -30q-10 -7 -22 -4q-11 0 -16 18q-4 17 -4 40q1 21 -10 54q-9 31 -32 74l12 8v0v0zM256 630v-6h76l30 38l52 -46q3 -3 4 -8q0 -12 -12 -12h-150v-92q56 -33 82 -60q23 -26 26 -46q0 -21 -6 -30q-6 -8 -14 -10
q-7 -4 -16 2q-9 3 -14 18q-3 12 -14 42q-9 27 -44 60v-334l4 -97q-1 -12 -22 -22q-19 -9 -34 -10l4 135v326q-27 -76 -66 -148q-36 -72 -90 -132l-12 8q53 96 86 174t72 216h-78q-21 0 -56 -8l-16 36h160v356l72 -36q6 -2 6 -4q3 -6 -8 -14l-22 -14v-282v0v0zM638 760h92
v202l78 -32q6 -1 10 -10q0 -3 -6 -8l-32 -14v-138h66l30 42l60 -54q2 -4 2 -8q0 -9 -8 -8h-150v-146h110l34 44l52 -54q3 -3 4 -8q0 -10 -12 -10h-350q-21 0 -56 -8l-28 36h196v146h-104q-36 -78 -62 -116l-14 6q34 80 80 272q69 -22 72 -28t0 -8q-4 -3 -16 -8
q-12 -6 -24 -30t-24 -60v0v0zM606 504l54 -40h164l26 34l48 -34q12 -6 12 -12q1 -6 -28 -32v-134l4 -70q1 -15 -22 -24q-21 -10 -32 -8v48h-176v-26q0 -13 -20 -22q-21 -10 -36 -10l6 92v238v0v0zM656 260h176v176h-176v-176v0v0zM274 660q51 150 60 192q63 -27 66 -36v-8
l-18 -8q-18 -6 -92 -146l-16 6v0v0zM404 898q39 -33 60 -54q20 -21 32 -48q10 -26 8 -46q0 -18 -12 -30q-12 -10 -26 -8q-15 3 -18 36q-1 31 -10 56q-6 27 -44 84l10 10v0v0zM318 536h116l22 32l50 -34q12 -9 12 -14q0 -3 -32 -26v-324q50 -52 92 -65q41 -12 104 -16
q94 -4 140 -2l176 16v-20q-43 -3 -62 -16q-18 -12 -26 -34h-168q-78 10 -114 16q-35 10 -64 22q-28 12 -58 42q-30 29 -44 31q-15 2 -44 -29q-27 -29 -62 -80l-38 54q39 31 120 83v336h-42q-27 0 -50 -12l-28 40v0v0z" />
  </g>

</svg>
