<?xml version="1.0" standalone="no"?>
<!DOCTYPE svg PUBLIC "-//W3C//DTD SVG 1.1//EN" "http://www.w3.org/Graphics/SVG/1.1/DTD/svg11.dtd" >
<svg xmlns="http://www.w3.org/2000/svg" xmlns:xlink="http://www.w3.org/1999/xlink" version="1.1" viewBox="0 -36 256 256">
  <g transform="matrix(1 0 0 -1 0 220)">
   <path fill="currentColor"
d="M33 246l19 -7l-6 -8v-20h31q0 21 -1 35l19 -6l-6 -8v-21h2l9 11l15 -18h-26q0 -14 1 -31l-13 -5v6h-9v-26h22l6 9l12 -11l-6 -7q0 -21 1 -39l-13 -6v7h-22v-29h19l10 10l16 -17h-45q0 -39 1 -52l-14 -6q1 26 1 58h-19q-10 -1 -19 -3l-9 10h47v29h-23v-7l-13 -5q1 11 1 32
t-1 35l14 -8h22v26h-10v-2l-13 -5q1 20 1 37q-8 0 -15 -2l-8 9h23q0 19 -1 35zM46 181h31v23h-31v-23zM33 108h23v33h-23v-33zM68 108h22v33h-22v-33zM163 198h23v26h-23v-26zM131 155h21v36h-21v-36zM163 155h23v36h-23v-36zM197 155h22v36h-22v-36zM119 170.5
q0 16.5 -1 33.5l13 -6h21v26h-16q-10 0 -19 -2l-9 9h111l11 11l15 -18h-48v-26h21l5 8l14 -10l-6 -6q0 -34 1 -44l-13 -5v7h-88v-7l-13 -4q1 17 1 33.5zM135 120q-8 0 -17 -2l-9 9h105l9 10l14 -17h-89l-4 -22h50l7 10l13 -10l-7 -9q-3 -40 -3.5 -52.5t7.5 -12.5h13
q4 0 5.5 10t2.5 32h4q1 -35 10 -40q-5 -10 -9.5 -12t-11.5 -2h-18q-18 0 -16.5 20.5t4.5 58.5h-52l-12 -62l42 11l1 -3q-41 -20 -54 -29l-9 17l9 3q13 74 15 92v0zM152 81q16 -9 21.5 -16t0 -15.5t-9.5 3.5t-14 25z" />
  </g>

</svg>
