<?xml version="1.0" standalone="no"?>
<!DOCTYPE svg PUBLIC "-//W3C//DTD SVG 1.1//EN" "http://www.w3.org/Graphics/SVG/1.1/DTD/svg11.dtd" >
<svg xmlns="http://www.w3.org/2000/svg" xmlns:xlink="http://www.w3.org/1999/xlink" version="1.1" viewBox="0 -205 1024 1024">
  <g transform="matrix(1 0 0 -1 0 819)">
   <path fill="currentColor"
d="M90 814h146v166l80 -36l10 -6q4 -4 -4 -8l-38 -16v-100h74l30 42l44 -52l2 -8l-4 -8h-146v-148l148 42l6 -18q-241 -85 -284 -118l-30 -24l-50 58l162 46v162h-76q-6 0 -54 -8l-16 34v0v0zM624 942l6 -6q3 -6 -6 -12q-21 -10 -30 -22t-26 -36h270l30 40l58 -42
q9 -3 10 -12q0 -1 -12 -10l-16 -14v-32q3 -76 -6 -136q-6 -59 -36 -88q-27 -28 -90 -50q-9 27 -32 42q-22 12 -76 30l4 18q59 -12 82 -14q24 -2 54 6q30 6 36 30q6 23 10 58q4 32 2 98v50h-298q-52 -82 -106 -142l-14 10q39 66 72 136q30 68 52 130l62 -32v0v0zM788 710
l6 -18q-177 -48 -210 -60q-30 -10 -48 -32l-48 48l300 62v0v0zM584 818q53 -21 74 -36q20 -13 26 -34q5 -19 -4 -32q-10 -14 -26 -12q-15 3 -18 18t-14 36q-13 21 -46 48l8 12v0v0zM286 380h300l42 44l56 -50q3 -3 4 -6q0 -12 -12 -12h-158v-100h194l40 52l64 -60q6 -3 4 -6
q-3 -10 -14 -10h-288v-167h94q43 99 62 141q72 -31 72 -38t-6 -8q-6 0 -18 -6q-12 -4 -24 -15q-12 -13 -56 -74h166l50 56l58 -62q3 -4 4 -8q5 -9 -10 -10h-744q-21 1 -68 -8l-16 32h388v167h-226q-21 0 -68 -8l-16 32h310v100h-116q-20 0 -52 -8l-16 32v0v0zM542 586
q9 -6 10 -8q0 -3 -14 -8l-6 -4q51 -46 120 -82q68 -36 154 -60q83 -21 182 -24v-18q-36 0 -60 -12q-21 -9 -36 -32q-89 26 -154 56q-63 28 -120 68q-57 39 -110 94q-81 -60 -144 -98q-63 -39 -150 -84q-88 -45 -178 -78l-4 14q75 37 156 86q81 48 156 100q72 51 142 114
l56 -24v0v0zM264 202l6 12q60 -25 88 -46q27 -19 30 -39q3 -18 -2 -30q-6 -11 -24 -14q-15 0 -24 20q-7 22 -20 41q-12 20 -54 56v0v0z" />
  </g>

</svg>
