<?xml version="1.0" standalone="no"?>
<!DOCTYPE svg PUBLIC "-//W3C//DTD SVG 1.1//EN" "http://www.w3.org/Graphics/SVG/1.1/DTD/svg11.dtd" >
<svg xmlns="http://www.w3.org/2000/svg" xmlns:xlink="http://www.w3.org/1999/xlink" version="1.1" viewBox="0 -36 256 256">
  <g transform="matrix(1 0 0 -1 0 220)">
   <path fill="currentColor"
d="M42 43h45v67h-45v-67zM100 46q0 -12 1 -22l-14 -8v20h-45v-18l-15 -6q1 20 1 31v135q-8 0 -14 -3l-6 10h20q0 32 -1 59l22 -11l-7 -7v-41h45q0 32 -1 57l21 -10l-7 -8v-39h3l10 12l16 -19h-29v-132zM42 117h45v61h-45v-61zM184 101h35v42h-35v-42zM223 175l-14 -6v9h-61
v-8l-14 -5q1 21 1 35.5t-1 36.5l14 -8h60l8 10l15 -13l-9 -7q0 -35 1 -44zM148 185h61v37h-61v-37zM232 115q0 -14 1 -26l-14 -7v12h-82v-44q-2 -23 15 -22h65q11 0 12 13.5t1 29.5h5q0 -16 1.5 -26t11.5 -13q-4 -14 -25 -15h-76q-25 -2 -23 25v79q0 18 -1 38l14 -9h81l9 10
l13 -13l-8 -6v-26zM137 101h34v42h-34v-42z" />
  </g>

</svg>
