<?xml version="1.0" standalone="no"?>
<!DOCTYPE svg PUBLIC "-//W3C//DTD SVG 1.1//EN" "http://www.w3.org/Graphics/SVG/1.1/DTD/svg11.dtd" >
<svg xmlns="http://www.w3.org/2000/svg" xmlns:xlink="http://www.w3.org/1999/xlink" version="1.1" viewBox="0 -144 1024 1024">
  <g transform="matrix(1 0 0 -1 0 880)">
   <path fill="currentColor"
d="M285 381l-64 13l6 25l2 25v25l-2 26l-5 26l-8 27l-12 26l-14 29l-16 29l-20 30l2 1l-5 3l59 149l18 52l15 50v3h-146v-852l-64 -33v939l64 -32h150l32 27l59 -49l-27 -16l-9 -4l-24 -52l-27 -52l-32 -53l-18 -28l-37 -48l26 -23l24 -25l21 -27l17 -27l15 -29l11 -30
l7 -30l4 -31v-31zM731 258h-468v22h468v86l64 -11l17 -11l-17 -9v-55h49l54 54l64 -54v-22h-167v-129l-1 -13l-2 -14l-4 -12l-7 -13l-9 -11l-10 -8l-13 -7l-13 -4l-13 -3l-14 -1v33l-107 16v16h107h7l5 1l5 2l2 2l1 5l1 5l1 6v129zM498 121l-5 13l-10 23l-14 23l-26 35
l-12 10l6 8l14 -7l14 -6l14 -7l14 -8l25 -19l22 -23l10 -13l9 -14l2 -24l-17 -19h-24l-19 16zM221 394l64 -13l-4 -13l-5 -12l-6 -12l-8 -11l-10 -10l-11 -7l-13 -6l-13 -4l-13 -2l-14 -1v32l-53 16v17h53h7l6 1l4 1l3 2l3 1l2 3l2 3l3 4l2 5zM455 978l55 -34l10 -16l-20 -2
l-33 -60l-47 -74l-21 -30l20 -4l16 -10l-16 -10v-367l-64 -32v366l-43 -50l-30 -32l-32 -29l-7 6l92 144l42 73l39 76l36 79zM625 511l44 -48l4 -19l-21 5l-35 -26l-38 -24l-41 -23l-22 -11l-46 -19l-5 8l87 80l31 30l37 41zM854 375l-9 13l-9 14l-22 26l-27 24l-30 26
l-18 10l4 10l41 -12l19 -7l36 -18l17 -11l16 -12l15 -12l28 -28l5 -25l-14 -20l-23 -5l-21 13zM887 592l64 -54v-22h-489v22h371zM537 963l65 -33h204l32 27l60 -48l-27 -22v-279l-65 -32v32h-204l-65 -32v387zM806 710h-204v-81h204v81zM806 812h-204v-81h204v81zM806 909
h-204v-75h204v75z" />
  </g>

</svg>
