<?xml version="1.0" standalone="no"?>
<!DOCTYPE svg PUBLIC "-//W3C//DTD SVG 1.1//EN" "http://www.w3.org/Graphics/SVG/1.1/DTD/svg11.dtd" >
<svg xmlns="http://www.w3.org/2000/svg" xmlns:xlink="http://www.w3.org/1999/xlink" version="1.1" viewBox="0 -205 1024 1024">
  <g transform="matrix(1 0 0 -1 0 819)">
   <path fill="currentColor"
d="M436 892q-19 0 -118 -14q-100 -12 -284 -24l-2 18q162 21 246 42q85 20 164 44l50 -64q0 -6 -8 -12q-27 9 -48 10v0v0zM64 814q81 -65 90 -100q9 -34 0 -52q-10 -19 -28 -16q-15 0 -18 22q-3 20 -8 50q-4 27 -50 88l14 8v0v0zM208 838q72 -73 84 -106q11 -31 2 -52
q-9 -20 -30 -18q-18 0 -20 28q-3 26 -8 52q-3 26 -42 88l14 8v0v0zM430 856q72 -39 72 -48q-1 -7 -4 -8t-12 -2q-8 -1 -22 -10q-12 -10 -48 -58q-37 -48 -88 -104l-14 8q33 51 60 102q25 48 56 120v0v0zM382 638q64 -53 62 -58q0 -7 -14 -8q-12 -1 -36 -16t-102 -98l18 -10
q6 -6 -2 -12l-24 -10v-42l158 50l10 -16l-168 -68v-215q4 -49 -16 -74q-19 -23 -64 -38q-6 33 -36 48t-78 30l4 16q48 -12 82 -18q33 -7 48 0q15 9 12 43v188q-112 -48 -130 -60q-18 -13 -38 -34l-40 62l208 70v114l38 -16l76 110h-234q-15 0 -36 -8l-24 36h296l30 34v0v0z
M546 402l50 -30h240l28 32l52 -32q12 -6 12 -14q0 -4 -30 -26v-195l4 -70q1 -15 -16 -24q-15 -10 -38 -14v70h-252v-40q-1 -11 -16 -26q-16 -11 -40 -14l4 100v281l2 2v0v0zM596 123h252v225h-252v-225v0v0zM610 788l-8 -12q42 -93 114 -168q33 39 64 84q28 42 50 96h-220v0
v0zM694 924q6 -1 6 -8q1 -3 -4 -8q-17 -3 -28 -14q-12 -8 -50 -82h214l30 40l64 -48q7 -7 6 -8q1 -9 -16 -14q-18 -3 -26 -12q-9 -9 -30 -42t-44 -68q-24 -34 -68 -82q26 -24 62 -50q34 -24 74 -42q39 -16 126 -26v-18q-40 0 -58 -8q-17 -6 -40 -32q-55 32 -94 62
q-37 26 -98 86q-69 -66 -134 -108q-63 -42 -144 -72l-4 14q63 33 126 82q63 47 126 112q-73 89 -104 178q-61 -108 -118 -162l-14 10q41 61 86 152q44 89 86 206l68 -38v0v0z" />
  </g>

</svg>
