<?xml version="1.0" standalone="no"?>
<!DOCTYPE svg PUBLIC "-//W3C//DTD SVG 1.1//EN" "http://www.w3.org/Graphics/SVG/1.1/DTD/svg11.dtd" >
<svg xmlns="http://www.w3.org/2000/svg" xmlns:xlink="http://www.w3.org/1999/xlink" version="1.1" viewBox="0 -205 1024 1024">
  <g transform="matrix(1 0 0 -1 0 819)">
   <path fill="currentColor"
d="M62 946h350l22 34l62 -40q7 -6 8 -12q-1 -5 -34 -28v-136l4 -56q0 -12 -20 -24q-20 -10 -34 -10v36h-278q-24 0 -54 -8l-18 36h350v76h-256q-24 0 -50 -8l-20 36h326v76h-300q-19 0 -38 -6l-20 34v0v0zM310 668l44 -32h112l22 34l48 -32q7 -4 8 -10q-1 -6 -22 -20v-118
l2 -32q-1 -7 -16 -16q-16 -10 -34 -10v32h-116v-16q0 -7 -20 -16q-19 -9 -32 -6l4 60v182v0v0zM358 488h116v124h-116v-124v0v0zM28 624h184l26 36l44 -42q3 -3 4 -8q0 -12 -12 -12h-96v-114l104 20l6 -18q-176 -45 -190 -54q-14 -6 -28 -24l-38 52l98 16v122h-34
q-15 0 -50 -8l-18 34v0v0zM34 352h346v90l74 -26l4 -8q0 -3 -2 -6q-3 0 -26 -14v-36h46l38 46l54 -56q2 -3 2 -6q1 -10 -10 -10h-130v-185q2 -36 -16 -60q-19 -23 -58 -38q-10 31 -32 46q-21 15 -90 38l4 18q117 -24 130 -18q12 7 12 29v170h-262q-19 0 -58 -8l-26 34v0v0z
M144 292q53 -13 92 -34t36 -50q-3 -27 -24 -32q-20 -4 -28 16q-7 20 -28 44q-21 23 -54 44l6 12v0v0zM594 802l58 -34h56l24 140h-122q-39 -3 -54 -12l-22 38h368l36 46l60 -54q12 -12 -8 -18h-204l-52 -140h144l24 40l66 -44q2 -6 2 -8q3 -6 -30 -30v-358l4 -86
q0 -13 -18 -22q-15 -8 -36 -10v36h-244v-12q-1 -12 -22 -20q-20 -10 -34 -10l4 108v450v0v0zM646 312h244v130h-244v-130v0v0zM646 468h244v124h-244v-124v0v0zM646 618h244v124h-244v-124v0v0zM472 41q111 87 214 209l58 -40q9 -7 -2 -16q-28 -1 -40 -8t-62 -47
q-48 -43 -158 -114l-10 16v0v0zM794 216l8 16q72 -33 118 -60q42 -26 60 -53q15 -27 6 -48q-9 -20 -26 -20q-15 0 -30 24q-13 24 -40 60q-27 32 -96 81v0v0z" />
  </g>

</svg>
