<?xml version="1.0" standalone="no"?>
<!DOCTYPE svg PUBLIC "-//W3C//DTD SVG 1.1//EN" "http://www.w3.org/Graphics/SVG/1.1/DTD/svg11.dtd" >
<svg xmlns="http://www.w3.org/2000/svg" xmlns:xlink="http://www.w3.org/1999/xlink" version="1.1" viewBox="0 -205 1024 1024">
  <g transform="matrix(1 0 0 -1 0 819)">
   <path fill="currentColor"
d="M842 896q-59 0 -112 -6v-128h132l24 36l50 -34q9 -6 10 -12q0 -5 -24 -22v-110l4 -64q0 -12 -18 -24q-18 -10 -36 -10v38h-142v-114h168l30 42l56 -38q8 -4 8 -10t-24 -26v-289q1 -34 -10 -56q-12 -20 -56 -38q-10 31 -34 46q-25 15 -80 32l4 16q54 -12 78 -16
q23 -4 38 0t10 33v278h-188v-144l94 8q-8 23 -34 62l12 8q44 -39 64 -66q18 -24 24 -50q3 -26 -8 -40q-13 -16 -28 -10q-16 3 -16 24q-1 21 -8 52q-171 -27 -200 -38q-27 -13 -72 -28l-30 56l154 16v150h-180v-264l4 -85q0 -12 -20 -24q-18 -14 -38 -14l4 119v332l46 -38
h184v114h-142v-10q1 -10 -18 -22q-18 -12 -36 -12l4 86v198l50 -38h142v124q-109 -4 -236 -10v18q166 17 296 34q129 17 184 34q50 -51 50 -60q0 -6 -6 -8q-5 -1 -16 2q-9 3 -30 4q-22 -1 -82 -4v0v0zM540 586h142v150h-142v-150v0v0zM730 736v-150h142v150h-142v0v0z
M76 784l48 -28h84v228l76 -34q10 -6 2 -18l-26 -16v-160h66l26 34l54 -40q12 -9 4 -14l-24 -22v-232l4 -58q3 -15 -12 -26q-12 -12 -42 -14v46h-76v-220l94 22q-24 44 -54 92l14 10q64 -60 86 -86q20 -25 28 -46q6 -22 0 -40q-5 -19 -22 -22q-18 -2 -26 6q-7 6 -8 24
q-1 14 -8 38q-231 -66 -248 -75q-17 -10 -46 -32l-38 59l176 40v230h-82v-36q0 -12 -18 -24t-36 -12l4 72v354v0v0zM126 456h82v274h-82v-274v0v0zM260 730v-274h76v274h-76v0v0z" />
  </g>

</svg>
