<?xml version="1.0" standalone="no"?>
<!DOCTYPE svg PUBLIC "-//W3C//DTD SVG 1.1//EN" "http://www.w3.org/Graphics/SVG/1.1/DTD/svg11.dtd" >
<svg xmlns="http://www.w3.org/2000/svg" xmlns:xlink="http://www.w3.org/1999/xlink" version="1.1" viewBox="0 -36 256 256">
  <g transform="matrix(1 0 0 -1 0 220)">
   <path fill="currentColor"
d="M182 228h-102q-10 0 -19 -2l-9 9h131l11 7l15 -20q-14 3 -68 -18q4 -6 -1 -14h74l11 11l18 -20q-16 0 -45 -24l-3 2l19 24h-74v-32q1 -15 -20 -24q-2 13 -36 18v4q22 -1 32 -1.5t10 7.5v28h-76q-11 0 -20 -2l-9 9h108q-4 15 -28 27l1 3q21 -3 35 -12q9 5 45 20zM135 15
l-16 -8q1 21 1 35v49q-21 -30 -49 -48.5t-56 -28.5l-2 3q26 14 52 33.5t40 42.5h-66q-10 0 -19 -2l-9 9h109q0 14 -1 25l23 -8l-8 -7v-10h79l14 13l17 -20h-98q24 -31 50.5 -43t44.5 -12v-5q-19 -2 -23 -13q-31 15 -49.5 34t-28.5 39h-6v-48q0 -13 1 -30z" />
  </g>

</svg>
