<?xml version="1.0" standalone="no"?>
<!DOCTYPE svg PUBLIC "-//W3C//DTD SVG 1.1//EN" "http://www.w3.org/Graphics/SVG/1.1/DTD/svg11.dtd" >
<svg xmlns="http://www.w3.org/2000/svg" xmlns:xlink="http://www.w3.org/1999/xlink" version="1.1" viewBox="0 -154 1024 1024">
  <g transform="matrix(1 0 0 -1 0 870)">
   <path fill="currentColor"
d="M243 996l86 -51q17 -9 7 -15q-18 -2 -39 -15q-41 -102 -83 -181v-569l2 -98q-1 -39 -55 -46q5 39 7 190v442q-73 -117 -147 -172l-12 7q112 133 180 288t63 176q-4 22 -15 36zM777 859q4 -15 -10 -13q-30 3 -72 -45l-48 -52h181l40 41l46 -46q14 -14 -7 -19l-18 -10v-153
l6 -88q-4 -37 -50 -35v42h-426v-14q2 -42 -51 -49q5 42 7 151v158q-1 2 -1 4q-37 -36 -78 -65l-6 12q94 97 148 183q55 86 54 101t-12 31l9 8l77 -33q19 -12 7 -17q-25 1 -45 -23q-14 -26 -31 -48h195l22 28zM387 415l35 -35h381l42 40l46 -49q15 -9 -6 -15l-19 -9v-196
l6 -96q-3 -35 -48 -34v81h-392v-38q3 -41 -49 -48q5 41 7 116v233q-3 20 -18 42zM432 251h392v111h-392v-111zM824 233h-392v-113h392v113zM482 860q-40 -61 -84 -106l5 -5h217l76 111h-214zM610 610h-191v-111h191v111zM845 610h-193v-111h193v111zM610 731h-191v-103h191
v103zM652 628h193v103h-193v-103z" />
  </g>

</svg>
