<?xml version="1.0" standalone="no"?>
<!DOCTYPE svg PUBLIC "-//W3C//DTD SVG 1.1//EN" "http://www.w3.org/Graphics/SVG/1.1/DTD/svg11.dtd" >
<svg xmlns="http://www.w3.org/2000/svg" xmlns:xlink="http://www.w3.org/1999/xlink" version="1.1" viewBox="0 -205 1024 1024">
  <g transform="matrix(1 0 0 -1 0 819)">
   <path fill="currentColor"
d="M616 936l42 -42q6 -3 6 -12q0 -6 -24 -26v-288l4 -86q-1 -16 -22 -28q-19 -10 -32 -10v38h-142v-260l126 80q-27 56 -54 94l12 10q69 -64 96 -106t30 -68q0 -27 -8 -42q-10 -16 -28 -14q-19 2 -22 32q-4 28 -16 74q-100 -72 -118 -92q-18 -21 -48 -57l-52 47l34 32v732
l48 -42h138l30 34v0v0zM448 876v-166h142v166h-142v0v0zM448 682v-172h142v172h-142v0v0zM906 944l48 -42q7 -7 8 -14q0 -6 -32 -24v-492q1 -42 -10 -62q-9 -21 -54 -38q-3 28 -24 38q-18 9 -60 28l6 16q57 -13 76 -10q18 2 18 14v50v472h-114v-688l4 -91q-1 -14 -22 -26
q-19 -12 -34 -12l4 135v748l50 -40h98l38 38v0v0zM118 876l58 -40h78l34 44l56 -54q6 -5 6 -10t-32 -28v-360l4 -86q0 -12 -14 -26q-16 -14 -38 -16v72h-104v-106q1 -16 -16 -28q-15 -13 -36 -10l4 146v502v0v0zM166 398h104v412h-104v-412v0v0z" />
  </g>

</svg>
