<?xml version="1.0" standalone="no"?>
<!DOCTYPE svg PUBLIC "-//W3C//DTD SVG 1.1//EN" "http://www.w3.org/Graphics/SVG/1.1/DTD/svg11.dtd" >
<svg xmlns="http://www.w3.org/2000/svg" xmlns:xlink="http://www.w3.org/1999/xlink" version="1.1" viewBox="0 -205 1024 1024">
  <g transform="matrix(1 0 0 -1 0 819)">
   <path fill="currentColor"
d="M888 632l62 -46q12 -13 -2 -20l-24 -14v-98l4 -90q-1 -15 -16 -26q-12 -12 -42 -14v42h-460v-227q-1 -41 10 -46q11 -6 46 -6h394q30 0 42 6t18 24q5 15 8 41q0 24 6 114h20q1 -84 8 -108q6 -23 34 -45q-22 -45 -40 -60q-18 -11 -54 -16h-454q-36 0 -62 12q-25 13 -28 76
v501l58 -40h440l32 40v0v0zM410 392h202v172h-202v-172v0v0zM664 392h208v172h-208v-172v0v0zM404 952l56 -36h348l32 40l58 -42q6 -4 6 -8q0 -6 -32 -26v-108l4 -74q0 -12 -14 -24q-15 -12 -38 -14v52h-372v-22q3 -16 -14 -28q-18 -13 -38 -14l4 114v190v0v0zM452 738h372
v152h-372v-152v0v0zM164 408q-19 -49 -40 -52t-86 -2l-2 -20q65 -6 80 -14q15 -7 22 -22q8 -12 8 -36q1 -24 -6 -80q-9 -57 -6 -85q0 -28 16 -38q16 -9 32 0t20 36q3 24 -6 87q-10 63 -10 96q-1 35 4 56q4 21 14 54l138 418l-22 6l-156 -404v0v0zM118 962l6 14
q48 -18 82 -36q33 -15 52 -36q17 -19 20 -40q3 -19 -8 -34q-9 -13 -26 -14q-16 0 -22 16q-6 14 -14 34q-6 20 -24 38q-15 18 -66 58v0v0zM40 714l6 14q42 -16 78 -34q36 -16 48 -32q12 -15 16 -36q1 -18 -10 -32q-9 -12 -24 -12t-20 16q-6 13 -14 32q-9 17 -26 38
q-15 18 -54 46v0v0z" />
  </g>

</svg>
