<?xml version="1.0" standalone="no"?>
<!DOCTYPE svg PUBLIC "-//W3C//DTD SVG 1.1//EN" "http://www.w3.org/Graphics/SVG/1.1/DTD/svg11.dtd" >
<svg xmlns="http://www.w3.org/2000/svg" xmlns:xlink="http://www.w3.org/1999/xlink" version="1.1" viewBox="0 -36 256 256">
  <g transform="matrix(1 0 0 -1 0 220)">
   <path fill="currentColor"
d="M82 137q-11 -8 -32 -16l-1 3q24 14 35 28h-12l-9 -3l-9 10h55l10 5l11 -12h-30q-6 -4 -14 -12q9 -5 17 -9q10 9 13 17l12 -9q-9 -4 -23 -11q3 -5 5 -10q6 -2 13.5 -5t4.5 -12t-7.5 0t-10.5 13q2 -8 0 -18t-16 -16q-3 7 -18 9l1 3q17 -1 20 2t3 14q-18 -12 -50 -19l-1 1
q30 13 48 27q-1 5 -4 8q-18 -13 -43 -21l-1 3q22 9 38 25q-2 1 -5 5zM180 124q-1 2 11.5 -5t13.5 -13t-2 -10t-6.5 4t-15.5 19q2 -16 -1 -25.5t-18 -11.5q-2 7 -17 10v3q14 -1 19.5 -1t5.5 18q-18 -13 -45 -22l-1 3q28 14 44 29q-1 4 -4 9q-14 -11 -34 -17v3q19 11 29 20
q-1 1 -5 3q-12 -7 -28 -11l-1 2q21 11 28 21h-4l-9 -2l-10 9h56l8 6l12 -13h-39l-7 -7q11 -9 17 -16q12 9 19 18l10 -10l-6 -2q-7 -2 -20 -11zM82.5 49q-6.5 -2 -11.5 2.5t4.5 7.5t20.5 14l4 -3q-11 -19 -17.5 -21zM140 49q15 15 25 32l15 -10l-9 -5q-16 -10 -28 -19z
M126 58l-2 -7q32 -9 45.5 -15t9.5 -16t-11 -1.5t-18 15.5t-28 12q-14 -22 -65 -31l-1 4q31 10 43 20t14 21.5t2 28.5l18 -6l-4 -4zM22 8q1 25 1 48v155q0 26 -1 33l22 -9l-7 -6v-214zM218 245l22 -8l-7 -7v-193q0 -22 -20 -28q0 14 -27 19v4q14 -1 24 -1t9 15v160
q0 27 -1 39zM60 171q-4 0 -15 -2l-9 9h35v18h-15l-9 -2l-8 9h32v19h-16l-10 -2l-9 9h59l10 6l13 -13h-34v-19h12l10 6l12 -13h-34v-18h14l9 6l14 -13h-61zM159 171q-4 0 -15 -2l-9 9h35v18h-15l-9 -2l-8 9h32v19h-15l-10 -2l-9 9h61l10 6l13 -13h-37v-19h12l10 6l12 -13h-34
v-18h14l9 6l14 -13h-61z" />
  </g>

</svg>
