<?xml version="1.0" standalone="no"?>
<!DOCTYPE svg PUBLIC "-//W3C//DTD SVG 1.1//EN" "http://www.w3.org/Graphics/SVG/1.1/DTD/svg11.dtd" >
<svg xmlns="http://www.w3.org/2000/svg" xmlns:xlink="http://www.w3.org/1999/xlink" version="1.1" viewBox="0 -339 2048 2048">
  <g transform="matrix(1 0 0 -1 0 1709)">
   <path fill="currentColor"
d="M474 1010v784q0 39 -4 122q0 21 -4 38l110 -24q58 -13 72 -24q13 -10 13 -22q0 -11 -10 -21q-13 -13 -39 -20l-41 -12v-306h228l98 102l121 -107q10 -9 12 -11t3 -5q2 -5 2 -10q0 -9 -6 -16q-9 -10 -22 -10h-436v-458h274l68 76l83 -54q28 -18 34 -29q6 -10 6 -20
q0 -16 -12 -26q-12 -11 -30 -19q-15 -7 -35 -16v-586l48 -33q17 -11 20 -16q3 -4 3 -14q0 -13 -8 -19q-5 -4 -12 -4l-757 -1v-125q0 -11 -7 -19q-11 -10 -36 -10q-21 0 -39 9q-22 12 -22 42l9 163v617q0 28 -4 92q-3 42 -5 75l112 -83h213zM253 309h612v643h-612v-643z
M1358 1779l2 -1472l5 -73q7 -111 7 -125q0 -22 -12 -35q-18 -19 -52 -19q-20 0 -34 8q-11 7 -11 42v1611q0 82 -12 207l116 -86h379l65 82l104 -76q16 -12 24 -27q3 -7 3 -14q0 -11 -12 -22q-8 -8 -25 -15q-15 -6 -53 -17q-68 -139 -119 -229q-26 -46 -126 -215
q-20 -34 -41 -69q120 -99 188 -174q92 -104 140 -218q42 -100 42 -216q0 -101 -30 -166q-28 -61 -86 -105q-44 -33 -104 -49q-14 -4 -39 -9q-2 34 -13 51q-15 22 -59 43q-52 24 -157 51l9 39q164 -43 237 -43q40 0 71 21q21 14 36 40q20 32 26 78q3 28 3 60q0 120 -36 220
q-29 82 -81 156q-33 49 -88 110q-46 49 -78 73q-13 10 -41 27q85 171 115 236q35 77 65 150q23 57 64 169h-392z" />
  </g>

</svg>
