<?xml version="1.0" standalone="no"?>
<!DOCTYPE svg PUBLIC "-//W3C//DTD SVG 1.1//EN" "http://www.w3.org/Graphics/SVG/1.1/DTD/svg11.dtd" >
<svg xmlns="http://www.w3.org/2000/svg" xmlns:xlink="http://www.w3.org/1999/xlink" version="1.1" viewBox="0 -36 256 256">
  <g transform="matrix(1 0 0 -1 0 220)">
   <path fill="currentColor"
d="M139 64h43v43h-43v-43zM125 82.5q0 19.5 -1 39.5l15 -8h41l10 10l14 -15l-8 -5q0 -29 1 -52l-15 -7v12h-43v-11l-15 -6q1 23 1 42.5zM104 142h9q0 72 -1 95l16 -9h66l9 9l14 -13l-8 -5v-77h8l12 10l14 -13l-8 -5v-92q0 -14 -5.5 -20t-18.5 -11q-2 16 -28 23l1 4
q28 -4 32.5 -3t4.5 6v94h-119v-115l-15 -8q1 16 1 70t-1 70zM195 221h-69v-79h25v21q0 21 -1 38l16 -8h29v28zM165 186v-44h30v44h-30zM50 64v98q-21 -27 -38 -42l-2 3q13 16 22.5 31t24.5 43t22 48l18 -15q-4 -2 -14 -16t-23 -37l12 -8l-8 -7v-146l-15 -7q1 27 1 55z" />
  </g>

</svg>
