<?xml version="1.0" standalone="no"?>
<!DOCTYPE svg PUBLIC "-//W3C//DTD SVG 1.1//EN" "http://www.w3.org/Graphics/SVG/1.1/DTD/svg11.dtd" >
<svg xmlns="http://www.w3.org/2000/svg" xmlns:xlink="http://www.w3.org/1999/xlink" version="1.1" viewBox="0 -36 256 256">
  <g transform="matrix(1 0 0 -1 0 220)">
   <path fill="currentColor"
d="M36 202v-121h27v121h-27zM23 76v96q0 24 -1 46l13 -9h28l8 9l13 -14l-8 -7v-102q0 -17 1 -34l-14 -8v21h-27v-22l-14 -7q1 15 1 31zM209 184l-3 1l9 20h-110q-1 -18 -7 -22t-12.5 -1.5t2.5 11.5t13 28h4v-9h110l8 9l15 -15q-11 -2 -29 -22zM140 246q25 -10 26.5 -16.5
t-3.5 -13t-9.5 5.5t-15.5 21zM118 141v-15h77v15h-77zM118 119v-17h77v17h-77zM118 95v-16h77v16h-77zM118 148h76l6 9l14 -11l-6 -7v-47q0 -11 1 -20l-14 -5v5h-16v-41q1 -7 10 -6h33q6 0 6.5 7.5t1.5 24.5h4q0 -15 2.5 -22t11.5 -11q-6 -11 -28 -11h-36q-20 2 -19 19v40
h-18q-1 -24 -21 -41t-58 -22l-1 4q39 10 52.5 26.5t13.5 32.5h-15v-3l-14 -4q1 11 1 23v42q0 11 -1 23zM168 184q0 7 -1 14l23 -7l-9 -6v-11h28l11 10l14 -17h-53v-11l-13 -6v13v21zM140 155l-13 -5v19h-15q-11 0 -20 -2l-9 9h44q0 11 -1 21l21 -6l-7 -7v-8v-21zM194 66
q24 -12 25.5 -17.5t-3.5 -11.5t-9 4t-15 22z" />
  </g>

</svg>
