<?xml version="1.0" standalone="no"?>
<!DOCTYPE svg PUBLIC "-//W3C//DTD SVG 1.1//EN" "http://www.w3.org/Graphics/SVG/1.1/DTD/svg11.dtd" >
<svg xmlns="http://www.w3.org/2000/svg" xmlns:xlink="http://www.w3.org/1999/xlink" version="1.1" viewBox="0 -36 256 256">
  <g transform="matrix(1 0 0 -1 0 220)">
   <path fill="currentColor"
d="M49 64v98q-21 -27 -38 -42l-2 3q13 16 22.5 31t24.5 43t22 48l18 -16q-4 0 -13 -13.5t-24 -38.5l12 -8l-8 -7v-146l-15 -7q1 27 1 55zM173.5 234q6.5 -6 5 -12.5t-7.5 -8t-9 8.5t-13 22l2 2q16 -6 22.5 -12zM89 68.5q6 28.5 6 81t-1 69.5l13 -8h107l11 11l17 -18h-133
q1 -97 -6 -128.5t-31 -59.5l-3 2q14 22 20 50.5zM148 194l-8 -7v-11h54l12 11l16 -18h-82v-16q1 -8 17 -7h46q10 0 14 2t10.5 -2t2.5 -8.5t-22 -3.5h-64q-18 -1 -18 17v18q0 12 -1 33zM161 123q-10 -5 -20 -20h59l9 9l14 -18q-8 -3 -18 -13.5t-25 -25.5q30 -20 67 -24v-4
q-16 0 -21 -12q-27 9 -55 31q-32 -24 -76 -34l-2 3q48 20 68 40q-15 17 -27 38q-15 -20 -28 -28l-2 2q25 31 38 67zM200 96h-60q12 -19 30 -33q11 9 30 33z" />
  </g>

</svg>
