<?xml version="1.0" standalone="no"?>
<!DOCTYPE svg PUBLIC "-//W3C//DTD SVG 1.1//EN" "http://www.w3.org/Graphics/SVG/1.1/DTD/svg11.dtd" >
<svg xmlns="http://www.w3.org/2000/svg" xmlns:xlink="http://www.w3.org/1999/xlink" version="1.1" viewBox="0 -410 2097 2048">
  <g transform="matrix(1 0 0 -1 0 1638)">
   <path fill="currentColor"
d="M580 1760v6q-1 6 -5 9.5t-14 0.5h-299v-1685q0 -21 -16 -27q-74 -34 -90 -34q8 2 8 40v422v1229q0 39 -4 74t-6 53l-3.5 31.5t-1 18t2.5 5.5q8 5 28 -16l53 -47h328q17 0 35 20l35 46q11 17 28 4q56 -40 105 -86q17 -17 -4 -25q-40 -18 -66 -57q-128 -205 -209 -430
q-6 -21 9 -29q169 -131 237 -272q39 -81 39 -181q0 -94 -50 -159.5t-171 -114.5q-47 -22 -49 -4q-15 38 -50 66t-66.5 40.5t-53 26.5t-15.5 29q9 26 47 12q49 -12 83 -16t73.5 -4t68.5 18t48 51q14 28 22.5 65t0 103.5t-47.5 126.5q-82 123 -168 209q-9 7 -10 16t9 40.5
t25.5 73.5t47.5 139t66 212zM1759 1465h-755q-83 -219 -230 -399q-18 -22 -33 -10q-6 7 -6 14.5t5 18.5q3 -1 68 116q23 40 44 90q22 49 50 115q14 35 52 143q105 298 105 406q0 36 37 18q137 -66 137 -88q0 -10 -21 -10q-20 0 -40 -27q-18 -26 -46 -92q-28 -64 -94 -231
h690q17 0 27 10l63 63q9 9 13 9q31 0 153 -131q11 -19 -16 -19q-128 0 -287 -272q-13 -23 -35 -15q-8 6 -9 14.5t4.5 20.5t18 35t27 50t36 73t42.5 98zM1294 1072v111q-2 12 -8 12q-12 2 -12 -10v-131q-64 -506 -301 -742q-149 -149 -484 -274q-27 -11 -34 14q-9 25 18 37
q472 206 586 516q123 336 123 737q-3 15 6 21q12 8 77.5 -13t110.5 -40q6 -3 11.5 -10t-2 -14t-35.5 -7q-20 0 -27 -6v-3q21 -122 46.5 -226t62.5 -215t87.5 -204t115.5 -178.5t152 -153.5t191 -114l31 -14q12 -6 6 -25q-6 -12 -19.5 -11t-33.5 1t-53 -8q-13 -3 -35 -16
q-15 -10 -22.5 -17t-14.5 -12t-13 -3.5t-14 9.5q-69 57 -114.5 100.5t-113.5 131t-115.5 182.5t-96 245t-76.5 330z" />
  </g>

</svg>
