<?xml version="1.0" standalone="no"?>
<!DOCTYPE svg PUBLIC "-//W3C//DTD SVG 1.1//EN" "http://www.w3.org/Graphics/SVG/1.1/DTD/svg11.dtd" >
<svg xmlns="http://www.w3.org/2000/svg" xmlns:xlink="http://www.w3.org/1999/xlink" version="1.1" viewBox="0 -205 1024 1024">
  <g transform="matrix(1 0 0 -1 0 819)">
   <path fill="currentColor"
d="M174 952h22v-56h666l30 36q68 -67 70 -74q3 -6 -2 -8q-3 -4 -20 -4q-16 -1 -40 -10q-23 -10 -76 -52l-16 10q32 42 56 76h-670q-7 -57 -28 -90q-21 -31 -48 -40q-24 -10 -42 8q-16 16 -2 32q12 15 34 30q21 12 42 46q18 33 24 96v0v0zM206 744h504l48 50l60 -56
q3 -3 4 -8q0 -12 -12 -12h-288q-48 -40 -96 -74q101 -87 128 -158q68 46 130 92q59 45 104 90l62 -46q7 -6 6 -12l-6 -6q-37 -1 -62 -14t-130 -76q39 -108 94 -174q54 -63 108 -92q54 -27 132 -36v-20q-49 0 -68 -8q-18 -6 -44 -30q-70 48 -106 88q-37 39 -70 96
q-34 56 -70 166l-68 -44q27 -82 30 -136q4 -55 -4 -110q-10 -55 -28 -87q-19 -31 -44 -50q-24 -19 -66 -30q-9 33 -32 48q-21 14 -80 34l6 19q54 -13 78 -17q23 -3 44 -4q18 1 36 17t28 68q8 50 8 92t-12 94q-102 -102 -210 -174q-105 -69 -248 -125l-6 16q123 64 232 139
q105 74 220 202q-18 51 -42 78q-69 -63 -122 -102q23 -36 26 -56q0 -19 -8 -34q-9 -13 -24 -14t-20 20q-4 20 -16 56q-103 -69 -244 -128l-8 16q125 68 236 148q-22 35 -52 62l10 14q44 -24 74 -54q45 36 124 114q-23 32 -46 52q-84 -53 -156 -94q-70 -40 -190 -82l-6 18
q140 65 242 134q102 66 150 114h-156q-21 0 -68 -8l-16 34v0v0z" />
  </g>

</svg>
