<?xml version="1.0" standalone="no"?>
<!DOCTYPE svg PUBLIC "-//W3C//DTD SVG 1.1//EN" "http://www.w3.org/Graphics/SVG/1.1/DTD/svg11.dtd" >
<svg xmlns="http://www.w3.org/2000/svg" xmlns:xlink="http://www.w3.org/1999/xlink" version="1.1" viewBox="0 -205 1024 1024">
  <g transform="matrix(1 0 0 -1 0 819)">
   <path fill="currentColor"
d="M538 834q24 -192 54 -288q30 -97 84 -178q47 68 82 176q33 106 64 290h-284v0v0zM810 860l30 42q72 -54 72 -56q1 -3 0 -8q-3 -3 -18 -14q-15 -12 -18 -18q-4 -7 -20 -86q-16 -78 -50 -186q-32 -107 -100 -202q47 -61 122 -116q72 -53 174 -76v-17q-57 -3 -72 -12
t-32 -22q-63 42 -110 83q-49 41 -112 116q-75 -88 -144 -142q-68 -54 -196 -113l-6 14q119 73 184 133q65 58 136 146q-64 96 -94 214q-30 117 -44 294h-22q-21 2 -48 -10l-32 36h400v0v0zM36 746h198v236l82 -34q21 -7 -2 -20l-28 -12v-170h88l32 42l52 -50q3 -4 4 -8
q0 -12 -14 -12h-162v-108q69 -34 100 -58q30 -22 40 -46q6 -24 -2 -42q-10 -16 -28 -14q-18 3 -26 28q-6 23 -24 50q-15 24 -60 60v-422l4 -107q-1 -15 -22 -28q-21 -14 -38 -16l4 147v384q-24 -56 -80 -148t-112 -142l-12 8q50 72 92 150q41 77 70 152q30 74 42 152h-126
q-22 0 -52 -8l-20 36v0v0z" />
  </g>

</svg>
