<?xml version="1.0" standalone="no"?>
<!DOCTYPE svg PUBLIC "-//W3C//DTD SVG 1.1//EN" "http://www.w3.org/Graphics/SVG/1.1/DTD/svg11.dtd" >
<svg xmlns="http://www.w3.org/2000/svg" xmlns:xlink="http://www.w3.org/1999/xlink" version="1.1" viewBox="0 -205 1024 1024">
  <g transform="matrix(1 0 0 -1 0 819)">
   <path fill="currentColor"
d="M480 938l56 -32h326l30 40l60 -48q6 -6 6 -8q0 -7 -32 -26v-290l4 -92q0 -13 -18 -26q-18 -10 -38 -14v52h-344v-30q0 -13 -18 -26q-18 -10 -36 -10l4 114v396v0v0zM530 518h148v170h-148v-170v0v0zM726 518h148v170h-148v-170v0v0zM530 714h148v168h-148v-168v0v0z
M726 882v-168h148v168h-148v0v0zM662 444q63 -63 82 -96q18 -33 16 -60q-4 -27 -16 -36t-30 -2q-16 5 -16 34q-1 27 -8 52q-6 25 -42 98l14 10v0v0zM856 364q80 -68 106 -100q26 -33 34 -54q9 -21 6 -42q0 -22 -12 -29q-9 -9 -26 -6q-17 2 -22 31q-5 26 -16 62
q-9 32 -84 128l14 10v0v0zM458 330h20q3 -91 0 -112q0 -21 -12 -48q-10 -27 -28 -41q-19 -16 -40 -14q-19 4 -22 22q-2 16 12 31q14 13 26 20q10 6 20 30q12 23 24 112v0v0v0zM596 324v-201q-1 -26 8 -34q9 -6 40 -6h126q39 3 48 12q9 7 12 22q5 15 8 45q2 27 4 84h20l6 -84
q0 -39 34 -57q-9 -27 -30 -46q-18 -17 -54 -20h-206q-25 0 -46 14q-21 16 -20 64v261l76 -26q6 -7 6 -10t-6 -6t-26 -12v0v0zM282 938q5 -3 8 -6q1 -10 -16 -16q-18 -7 -26 -50q-9 -43 -24 -136h106l30 42l56 -36q13 -9 12 -12q0 -7 -32 -28q-27 -180 -50 -254
q-22 -75 -50 -134q41 -22 64 -44q20 -21 26 -42q5 -21 -4 -36q-10 -15 -26 -12q-15 2 -24 26q-6 21 -18 40q-13 17 -40 34q-42 -69 -104 -135q-63 -68 -120 -110l-10 14q48 48 108 123q61 78 92 132q-33 27 -120 76q25 114 50 330h-56q-21 0 -48 -6l-16 32h124
q15 111 28 240l80 -32v0v0zM258 330q24 60 46 142q21 78 36 232h-120q-28 -190 -58 -322q42 -20 96 -52v0v0z" />
  </g>

</svg>
