<?xml version="1.0" standalone="no"?>
<!DOCTYPE svg PUBLIC "-//W3C//DTD SVG 1.1//EN" "http://www.w3.org/Graphics/SVG/1.1/DTD/svg11.dtd" >
<svg xmlns="http://www.w3.org/2000/svg" xmlns:xlink="http://www.w3.org/1999/xlink" version="1.1" viewBox="0 -205 1024 1024">
  <g transform="matrix(1 0 0 -1 0 819)">
   <path fill="currentColor"
d="M316 732q24 17 24 32v140l68 -28q6 -3 6 -8q1 -3 -28 -20v-100h80v234l70 -30q15 -6 4 -14l-26 -12v-178h86v152l62 -26q6 0 12 -6q3 -5 -2 -10l-26 -12v-64l2 -52q1 -12 -16 -24q-16 -10 -32 -10v26h-206l-28 -28l-50 38v0v0zM462 568q-19 -5 -100 -76l148 4
q33 31 60 68q57 -37 58 -44t-4 -8q-3 -1 -18 -4q-13 -1 -34 -14q-22 -12 -64 -48q-42 -33 -138 -102l240 18q-18 30 -56 72l10 10q77 -54 98 -80q20 -28 20 -46q-1 -18 -10 -26q-9 -9 -24 -6q-12 2 -18 20q-3 17 -12 38l-114 -16v-195q3 -38 -14 -56q-18 -19 -56 -32
q-6 22 -24 38q-15 12 -72 30l4 16q75 -17 96 -14q20 2 20 16v191q-40 -3 -76 -12q-35 -9 -64 -24l-30 54q33 3 66 18q95 78 140 120q-89 -12 -112 -18t-52 -20l-36 50q30 3 48 12q51 51 90 114q57 -25 60 -32q2 -6 -4 -8q-7 -1 -26 -8v0v0zM352 266q54 -31 52 -38
q-1 -7 -8 -8q-5 0 -16 -6q-11 -3 -46 -38t-88 -87l-12 8q66 86 118 169v0v0zM540 260l8 10q45 -29 72 -52q23 -21 32 -42q6 -19 0 -34q-6 -11 -24 -13q-17 0 -22 21q-5 24 -16 46q-12 20 -50 64v0v0zM296 646h294l26 34l48 -42q3 -3 4 -8q-1 -7 -16 -8h-284q-21 0 -56 -8
l-16 32v0v0zM854 942q6 -3 6 -6q4 -6 -4 -12q-30 -4 -48 -58q-15 -51 -50 -132h138l32 48l64 -58q1 0 2 -6q0 -7 -8 -8h-84q-12 -139 -24 -242q-12 -101 -62 -208q28 -42 50 -66q20 -24 50 -48q29 -21 86 -39v-18q-27 1 -48 -2q-19 0 -40 -24q-33 34 -60 70q-27 32 -60 85
q-49 -66 -110 -117q-59 -48 -136 -84l-6 14q66 44 118 90q51 44 112 135q-33 74 -48 164q-13 90 -20 192q-18 -43 -50 -88l-12 8q93 209 148 446l64 -36v0v0zM854 708h-106q-9 -24 -26 -60q15 -114 30 -198q14 -84 40 -150q27 63 42 168q14 102 20 240v0v0zM306 924
q9 -6 4 -14q1 -1 -16 -4q-18 -3 -74 -74q-57 -70 -164 -166l-14 10q114 125 208 290l56 -42v0v0zM312 708q9 -6 6 -8q3 -5 -8 -10q-26 -1 -46 -26q-18 -24 -50 -72v-422l4 -103q0 -12 -18 -24q-18 -9 -36 -10l4 141v362q-55 -78 -134 -152l-10 10q78 99 136 192
q56 93 92 162l60 -40v0v0z" />
  </g>

</svg>
