<?xml version="1.0" standalone="no"?>
<!DOCTYPE svg PUBLIC "-//W3C//DTD SVG 1.1//EN" "http://www.w3.org/Graphics/SVG/1.1/DTD/svg11.dtd" >
<svg xmlns="http://www.w3.org/2000/svg" xmlns:xlink="http://www.w3.org/1999/xlink" version="1.1" viewBox="0 -205 1024 1024">
  <g transform="matrix(1 0 0 -1 0 819)">
   <path fill="currentColor"
d="M320 628h170v164l84 -30q6 -3 6 -8l-2 -6l-38 -18v-102h176l38 50l64 -60q2 -3 2 -8q0 -7 -8 -8h-272v-164h296l38 54l70 -62q3 -4 4 -10q1 -9 -10 -8h-308v-248q-1 -21 2 -33q3 -11 24 -14h218q29 0 38 43q8 45 10 130h20q2 -84 8 -108q5 -23 32 -34q-13 -33 -28 -51
q-15 -17 -42 -22h-256q-40 0 -58 20t-18 61v256h-140q-7 -117 -44 -186q-35 -69 -118 -115q-81 -48 -212 -84l-8 16q139 55 200 99q62 41 94 98t38 172h-242q-22 0 -64 -8l-20 34h426v164h-188q-40 -66 -104 -132l-14 8q102 159 138 270q72 -39 72 -44t-2 -10q-1 -3 -16 -8
q-15 -3 -24 -12q-9 -10 -32 -46v0v0zM420 960l6 12q47 -12 80 -32q32 -19 40 -40q9 -22 0 -40q-9 -19 -30 -20q-22 0 -28 30q-7 27 -20 48q-12 18 -48 42v0v0zM182 886h20v-56h636l32 42q71 -52 74 -58t-2 -8q-3 -3 -26 -6q-22 -3 -46 -26q-25 -24 -70 -68l-16 10
q27 39 54 90h-636q-3 -33 -24 -68q-18 -36 -48 -42q-28 -8 -40 12q-14 20 6 34q17 12 38 28q17 14 32 40q12 26 16 76v0v0z" />
  </g>

</svg>
