<?xml version="1.0" standalone="no"?>
<!DOCTYPE svg PUBLIC "-//W3C//DTD SVG 1.1//EN" "http://www.w3.org/Graphics/SVG/1.1/DTD/svg11.dtd" >
<svg xmlns="http://www.w3.org/2000/svg" xmlns:xlink="http://www.w3.org/1999/xlink" version="1.1" viewBox="0 -205 1024 1024">
  <g transform="matrix(1 0 0 -1 0 819)">
   <path fill="currentColor"
d="M408 964l52 -46h346l30 44l58 -46q9 -3 10 -12q0 -3 -36 -30v-444q1 -69 8 -134q6 -65 22 -100q12 -36 24 -44q9 -10 16 34q5 42 16 112l18 -2q-1 -63 -4 -108q-4 -43 2 -67t12 -40q6 -14 4 -20q-3 -5 -12 -8q-9 -1 -30 10q-21 13 -44 34q-22 22 -44 65q-19 44 -28 124
q-9 77 -8 170v436h-364v-242q3 -234 -12 -318q-12 -81 -54 -152q-42 -68 -158 -145l-10 12q99 86 132 147q32 63 44 144q12 80 10 284v342v0v0zM502 668l46 -34h62v126q-75 -15 -120 -20l-2 16q65 18 134 42q69 21 112 42l44 -44q3 -9 -2 -12q-4 -1 -20 -2q-15 0 -42 -2
q-25 -2 -58 -10v-136h48l26 36l50 -38q18 -9 6 -14l-24 -22v-128l4 -56q1 -15 -12 -26q-12 -12 -38 -14v44h-60v-186l80 12q-21 45 -42 82l12 8q53 -51 76 -86q24 -36 24 -60q0 -25 -8 -40q-8 -12 -22 -15q-14 0 -22 8q-6 5 -6 25q0 19 -8 56q-132 -26 -182 -40
q-48 -15 -78 -43l-42 59l172 28v192h-62v-16q1 -12 -16 -24q-16 -12 -34 -12l4 72v232v0v0zM548 440h62v170h-62v-170v0v0zM656 610v-170h60v170h-60v0v0zM22 908h284l36 42l52 -50q12 -15 -8 -18h-138q-28 -136 -70 -268h106l32 36l54 -46q6 -6 6 -8q0 -6 -32 -30v-304
l4 -44q2 -16 -16 -28q-18 -14 -36 -16v78h-120v-98q0 -18 -20 -27q-21 -12 -32 -12l4 101v278q-34 -78 -94 -150l-10 8q51 104 96 230q42 123 76 300h-86q-22 0 -70 -8l-18 34v0v0zM176 278h120v310h-120v-310v0v0z" />
  </g>

</svg>
