<?xml version="1.0" standalone="no"?>
<!DOCTYPE svg PUBLIC "-//W3C//DTD SVG 1.1//EN" "http://www.w3.org/Graphics/SVG/1.1/DTD/svg11.dtd" >
<svg xmlns="http://www.w3.org/2000/svg" xmlns:xlink="http://www.w3.org/1999/xlink" version="1.1" viewBox="0 -52 256 256">
  <g transform="matrix(1 0 0 -1 0 204)">
   <path fill="currentColor"
d="M6 10v3q75 8 119 24q-30 12 -52 37h-17q-8 -1 -11 -4l-9 9h155l7 7l12 -12q4 -3 1 -3q-1 0 -3 -1q-2 0 -3 -1t-4 -3q-2 -2 -4 -3q-21 -18 -47 -26q48 -16 101 -15v-3q-9 0 -13 -2q-4 -3 -6 -7q-57 5 -96 22q-51 -18 -130 -22zM40 187q-1 7 -6 9l4 3l10 -9h148l8 12
l18 -14q3 -2 -1 -2h-171v-83h149l10 12l15 -12q3 -2 3 -3q0 -2 -3 -1h-170l-10 -11l-11 10q6 6 7 11v78zM178 180l15 -8q4 -3 1 -3q-3 1 -6 -2q-7 -9 -19 -18h35l8 9l16 -11q2 -1 2 -2q-1 -1 -3 -1h-84v-12v-14q0 -9 -12 -10v9q1 15 1 26v1h-6q-26 -28 -68 -33l-1 3
q36 8 57 30h-38q-5 1 -11 -3l-9 8h76v21q1 5 -7 11l2 3l22 -8q3 -1 1 -3q-5 -2 -7 -5v-19h20l8 10q9 12 8 14t-3 5zM79 74q26 -22 57 -34q32 12 56 34h-113zM207 252l20 -14q2 -4 -1 -4q-8 2 -17 2q-94 -8 -179 -6v4q96 2 144 7h3q21 3 24 5t3 6h3zM148 138l1 2
q33 -2 50 -12q11 -8 5 -14q-3 -2 -8 4q-6 6 -16 10q-11 6 -32 10zM192 233l15 -9q5 -3 2 -3q-5 0 -10 -3q-13 -12 -27 -22l-3 2q21 22 23 28q1 2 -2 6zM41 223l1 3q9 -3 17 -6q6 -3 11 -9t3 -10q-2 -5 -5 -5t-6 6q-2 6 -5 10q-1 2 -10 8zM111 225l1 3q14 -4 23 -15
q2 -4 1 -9t-6 -5q-4 0 -5 5q-1 14 -14 21zM76 176l2 2q33 -12 21 -25q-4 0 -6 5q-1 5 -5 8l-1 1q-5 6 -11 9z" />
  </g>

</svg>
