<?xml version="1.0" standalone="no"?>
<!DOCTYPE svg PUBLIC "-//W3C//DTD SVG 1.1//EN" "http://www.w3.org/Graphics/SVG/1.1/DTD/svg11.dtd" >
<svg xmlns="http://www.w3.org/2000/svg" xmlns:xlink="http://www.w3.org/1999/xlink" version="1.1" viewBox="0 -205 1024 1024">
  <g transform="matrix(1 0 0 -1 0 819)">
   <path fill="currentColor"
d="M380 476h526l38 44l62 -54q2 -4 2 -8q0 -9 -8 -8h-354q23 -76 86 -166q99 66 162 124l52 -48q6 -6 0 -12q0 -7 -18 -4q-39 0 -182 -74q39 -45 70 -68q30 -24 76 -50q43 -22 122 -35v-18q-36 3 -56 -4q-18 -5 -36 -32q-58 30 -130 97q-73 65 -112 136t-60 154h-94v-333
l168 81l8 -16q-120 -68 -158 -97q-37 -26 -56 -56l-54 54q29 16 44 40v327h-30q-24 -4 -42 -10l-26 36v0v0zM466 962l62 -42h310l30 42l64 -46l4 -8q1 -6 -34 -30v-234l4 -66q0 -13 -20 -26q-22 -12 -34 -12v44h-336v-16q0 -15 -18 -26q-18 -10 -36 -10l4 114v316v0v0z
M516 608h142v130h-142v-130v0v0zM706 608h146v130h-146v-130v0v0zM516 762h142v132h-142v-132v0v0zM706 894v-132h146v132h-146v0v0zM188 964l78 -34q17 -6 -4 -18l-26 -14v-624l88 18v452l78 -30q3 -2 4 -10q0 -4 -36 -20v-388l4 -76q0 -12 -14 -24q-15 -13 -36 -14v88
q-144 -38 -188 -58q-43 -21 -64 -42l-44 50q26 15 28 34v498l74 -32q7 -3 8 -8q-3 -5 -36 -22v-448l86 22v700v0v0z" />
  </g>

</svg>
