<?xml version="1.0" standalone="no"?>
<!DOCTYPE svg PUBLIC "-//W3C//DTD SVG 1.1//EN" "http://www.w3.org/Graphics/SVG/1.1/DTD/svg11.dtd" >
<svg xmlns="http://www.w3.org/2000/svg" xmlns:xlink="http://www.w3.org/1999/xlink" version="1.1" viewBox="0 -36 256 256">
  <g transform="matrix(1 0 0 -1 0 220)">
   <path fill="currentColor"
d="M21 77q16 -27 17 -36.5t-4 -15t-10 -4.5t-2 13t-5 41zM54 80q22 -26 22 -34.5t-7.5 -15.5t-8.5 5.5t-9 42.5zM80 89q29 -20 31.5 -28t-4 -16.5t-10.5 4.5t-20 38zM59.5 209q-13.5 -20 -28.5 -41l41 3q5 11 10 24l16 -16q-4 0 -25 -27t-42 -47l55 5q-5 13 -13 27l3 2
q28 -23 28.5 -33.5t-5 -16t-7 0.5t-4.5 15q-30 -5 -43.5 -10t-18.5 -10l-11 21q4 0 20 16t34 42q-17 -3 -26.5 -5.5t-19.5 -9.5l-9 19q8 2 22 25t22 51l20 -13q-5 -2 -18.5 -22zM128.5 108.5q-0.5 -13.5 -6.5 -18.5t-13 -3.5t1 16.5t13 59h4q2 -40 1.5 -53.5zM144 198
l23 -12l-9 -10v-129q-1 -17 15 -16h27q8 1 9.5 12.5t2.5 37.5h4q1 -17 3 -31t12 -17q-10 -16 -28 -14h-34q-25 -3 -24 23v108q0 23 -1 48zM195.5 200q1.5 -12 -5.5 -20.5t-11 10.5t-24 52l3 2q36 -32 37.5 -44zM243.5 106q0.5 -13 -6.5 -21.5t-11 13.5t-22 61l3 2
q36 -42 36.5 -55z" />
  </g>

</svg>
