<?xml version="1.0" standalone="no"?>
<!DOCTYPE svg PUBLIC "-//W3C//DTD SVG 1.1//EN" "http://www.w3.org/Graphics/SVG/1.1/DTD/svg11.dtd" >
<svg xmlns="http://www.w3.org/2000/svg" xmlns:xlink="http://www.w3.org/1999/xlink" version="1.1" viewBox="0 -36 256 256">
  <g transform="matrix(1 0 0 -1 0 220)">
   <path fill="currentColor"
d="M51 158h39v26h-39v-26zM57 244q16 -7 21.5 -15t-4.5 -17h27l12 10l15 -17h-85q-10 0 -19 -2l-9 9h52q0 15 -12 30zM38 171q0 11 -1 26l14 -6h39l6 9l13 -10l-6 -7q0 -23 1 -35l-14 -4v7h-39v-5l-14 -4q1 18 1 29zM27 143v-10h89l6 8l14 -13q-12 -6 -24 -23l-4 1l8 20h-89
q1 -10 -1.5 -15.5t-9 -6.5t-7.5 2.5t5 11t9 25.5h4zM60.5 33q3.5 0 3.5 10v55h-7q-12 0 -20 -3l-10 10h60l12 11l14 -18h-35v-56q2 -23 -17 -29q-3 13 -22 18v4q18 -2 21.5 -2zM217 217l13 11l16 -18h-84q-20 0 -23 -2l-8 9h86zM220 47q-5 12 -17 33l3 2q34 -34 35.5 -45
t-4 -17.5t-8 1t-7.5 21.5q-74 -15 -82 -22l-10 20q10 2 31 29.5t34 51.5q-38 -5 -51 -12l-10 17q9 1 24 30t21 54l22 -12l-8 -4q-8 -14 -17.5 -31t-26.5 -36l50 1q14 25 20 44l18 -14l-7 -5q-59 -94 -82 -113q17 1 72 7z" />
  </g>

</svg>
