<?xml version="1.0" standalone="no"?>
<!DOCTYPE svg PUBLIC "-//W3C//DTD SVG 1.1//EN" "http://www.w3.org/Graphics/SVG/1.1/DTD/svg11.dtd" >
<svg xmlns="http://www.w3.org/2000/svg" xmlns:xlink="http://www.w3.org/1999/xlink" version="1.1" viewBox="0 -36 256 256">
  <g transform="matrix(1 0 0 -1 0 220)">
   <path fill="currentColor"
d="M148 181h35v25h-35v-25zM134 246l21 -8l-7 -8v-17h35q0 12 -1 33l21 -9l-7 -7v-17h23l12 11l15 -18h-50v-15l1 -18l-14 -6v7h-35v-4l-14 -5l1 23v18h-18q-10 0 -19 -3l-10 10h47q0 11 -1 33zM116 173l19 -10l-6 -6v-88l-13 -6q1 21 1 34q-24 -18 -28 -24l-11 13
q14 3 39 17v36h-13l-9 -3l-10 10h32q0 10 -1 27zM201 84v64q0 10 -1 24l21 -10l-8 -6v-31q19 19 23 31l13 -16q-9 -2 -14 -5.5t-22 -14.5v-32q0 -9 7 -8h9q4 1 8 2.5t6.5 -1t3.5 -6t-4.5 -4.5t-14.5 -1h-7q-20 -1 -20 14zM142 113q0 25 -1 48l13 -8h21l6 8l14 -10l-6 -6v-51
l1 -16l-13 -8v10h-23v-7l-13 -7q1 22 1 47zM154 87h23v59h-23v-59zM117 58q0 -22 -1.5 -32t-9 -14t-14 -1t-0.5 8.5t11 12.5t9 26h5zM139 57q17 -19 18 -28t-6.5 -15.5t-8 4t-2 18t-5.5 20.5zM212 60q25 -20 28 -28.5t-3.5 -17.5t-9.5 2.5t-6.5 19.5t-11.5 22zM177 57
q20 -18 22.5 -26.5t-4.5 -16.5t-8.5 2.5t-4.5 19t-8 18.5zM69 235l-7 -7v-66q16 22 21 38l15 -15q-7 -2 -14.5 -9.5t-21.5 -20.5q0 -26 -3 -62q20 -11 28.5 -22.5t5 -20t-6.5 -7.5t-8 15t-20 30q-11 -54 -48 -80l-2 2q26 31 34 64t7.5 84t-1.5 88zM31 141.5
q-3 -10.5 -8.5 -13.5t-9.5 2t2.5 14.5t9.5 36.5l4 1q5 -30 2 -40.5z" />
  </g>

</svg>
