<?xml version="1.0" standalone="no"?>
<!DOCTYPE svg PUBLIC "-//W3C//DTD SVG 1.1//EN" "http://www.w3.org/Graphics/SVG/1.1/DTD/svg11.dtd" >
<svg xmlns="http://www.w3.org/2000/svg" xmlns:xlink="http://www.w3.org/1999/xlink" version="1.1" viewBox="0 -154 1024 1024">
  <g transform="matrix(1 0 0 -1 0 870)">
   <path fill="currentColor"
d="M75 888h756l42 53l74 -58q22 -17 -11 -15h-195q-83 -85 -185 -145q59 -24 116 -37q81 -21 152 -27t103 -5q30 0 89 2v-15q-46 -7 -63 -18t-23 -26q-112 9 -217 36q-96 20 -195 68q-82 -43 -177 -76q-135 -43 -307 -53l-3 12q186 35 282 67q81 26 164 71q-95 52 -174 146
h-148q-27 0 -46 -13zM671 868h-339q80 -77 180 -126q86 52 159 126zM405 998l4 11q34 -3 70 -12q34 -11 55 -29q19 -19 19 -39q-1 -21 -19 -23q-18 -3 -25 16q-7 16 -28 36q-21 18 -76 40zM714 628l65 -60q26 -18 0 -20q-36 6 -86 0q-42 -6 -75 -11q-34 -4 -91 -11v-112h286
l33 42l68 -48q22 -16 -11 -14h-376v-110h354l33 42l68 -48q22 -16 -11 -14h-444v-153q-1 -35 -18 -54q-16 -20 -84 -36q-3 31 -26 41q-22 9 -87 27l2 18l44 -10q127 -36 123 46v121h-381q-27 1 -45 -13l-34 33h460v110h-323q-27 1 -45 -13l-34 33h402v107q-144 -14 -347 -12
v15q484 41 557 74q9 7 14 25z" />
  </g>

</svg>
