<?xml version="1.0" standalone="no"?>
<!DOCTYPE svg PUBLIC "-//W3C//DTD SVG 1.1//EN" "http://www.w3.org/Graphics/SVG/1.1/DTD/svg11.dtd" >
<svg xmlns="http://www.w3.org/2000/svg" xmlns:xlink="http://www.w3.org/1999/xlink" version="1.1" viewBox="0 -36 256 256">
  <g transform="matrix(1 0 0 -1 0 220)">
   <path fill="currentColor"
d="M224 243l16 -16h-61v-22h23l10 9l12 -13l-7 -5v-14q0 -12 1 -23l-15 -5v5h-95v-3l-15 -5q1 17 1 30.5t-1 29.5l15 -6h23v22h-25q-11 0 -19 -2l-9 9h132zM144 205h22v22h-22v-22zM108 166h23v32h-23v-32zM144 198v-32h22v32h-22zM179 198v-32h24v32h-24zM165 99
q-5 -11 -10.5 0t-17.5 21l2 3q14 -3 22 -8.5t4 -15.5zM122 83q-10 -1 -19 -3l-9 10h87l12 7l12 -15q-10 0 -47 -25q12 -4 17.5 -8t4 -14.5t-13.5 1t-48 26.5l1 4q17 -3 33 -8l27 25h-57zM147 138h65l14 12l17 -19h-69q25 -9 40.5 -16t18.5 -14t0 -11.5t-11 3t-24 18
t-32 20.5h-22q-17 -18 -33 -28t-43 -18l-1 3q20 9 34.5 19t25.5 24h-30q-10 0 -18 -2l-10 9h63q9 13 11 23l20 -11l-9 -5zM34 238q26 -16 30 -26.5t-3.5 -20.5t-10.5 6.5t-19 37.5zM48 153l8 10l15 -13l-8 -7v-83q15 -16 32 -22.5t62.5 -7.5t90.5 5v-5q-18 -4 -19 -16
q-81 0 -107 4.5t-39.5 14t-20.5 17t-18.5 -4t-19.5 -24.5l-15 13q13 11 40 26v86h-10q-9 0 -20 -3l-10 10h39z" />
  </g>

</svg>
