<?xml version="1.0" standalone="no"?>
<!DOCTYPE svg PUBLIC "-//W3C//DTD SVG 1.1//EN" "http://www.w3.org/Graphics/SVG/1.1/DTD/svg11.dtd" >
<svg xmlns="http://www.w3.org/2000/svg" xmlns:xlink="http://www.w3.org/1999/xlink" version="1.1" viewBox="0 -36 256 256">
  <g transform="matrix(1 0 0 -1 0 220)">
   <path fill="currentColor"
d="M33 106h18v72h-18v-72zM63 106h17v72h-17v-72zM51 52v47h-18v-6l-14 -7q1 21 1 52.5t-1 54.5l14 -8h18q0 41 -1 57l20 -10l-7 -8v-39h17l6 8l12 -11l-6 -6v-54q0 -19 1 -24l-13 -7v8h-17v-45l16 5q-3 12 -9 27l3 2q20 -20 21.5 -29t-3.5 -15.5t-6.5 -2.5t-3.5 12
q-20 -8 -38.5 -15.5t-24.5 -13.5l-9 18q12 1 42 10zM159 245l21 -9l-7 -7v-10h36l14 12l16 -19h-66v-18h50l7 10l17 -16q-14 -1 -30 -23l-4 2l11 20h-62l19 -8l-8 -6v-13l20 4l9 9l15 -14l-44 -6v-10q0 -9 10 -9h25q10 0 13.5 1.5t8.5 -2.5t3.5 -7t-20.5 -3h-34
q-18 0 -18 16v13l-23 -3l-5 -3l-9 8l37 5v28h-39q1 -85 -7 -119t-37 -59l-3 2q29 38 32.5 87.5t1.5 104.5l14 -9h37q0 34 -1 51zM174 71v20l12 -6q9 10 19 20h-39q-10 0 -19 -2l-9 9h68l9 7l13 -16l-10 -2q-11 -6 -29 -18l4 -3l-6 -4v-5h31l12 11l16 -18h-59v-35
q0 -17 -16 -21q-4 14 -27 19v4q30 -6 30 2v31h-28q-10 0 -19 -2l-10 9h57z" />
  </g>

</svg>
