<?xml version="1.0" standalone="no"?>
<!DOCTYPE svg PUBLIC "-//W3C//DTD SVG 1.1//EN" "http://www.w3.org/Graphics/SVG/1.1/DTD/svg11.dtd" >
<svg xmlns="http://www.w3.org/2000/svg" xmlns:xlink="http://www.w3.org/1999/xlink" version="1.1" viewBox="0 -36 256 256">
  <g transform="matrix(1 0 0 -1 0 220)">
   <path fill="currentColor"
d="M33 210v-121h25v121h-25zM33 217h24l7 10l14 -11l-7 -8v-108q0 -17 1 -34l-14 -8v24h-25v-22l-14 -7q1 15 1 31v96q0 24 -1 46zM86.5 67q-1.5 15 -9.5 34l3 2q25 -25 16.5 -38t-10 2zM132 171l13 -17h-27v-30h12l9 10l11 -17h-32v-50q11 20 16 39l16 -12l-7 -5
q-14 -18 -25 -30v-13l31 7l1 -4q-48 -16 -68 -27l-8 16q17 3 31 6v73h-4q-11 0 -20 -3l-9 10h33v30h-15q-9 -13 -18 -22l-3 2q31 51 41 106l20 -10l-7 -4l-6 -16q16 -6 26 -12t6 -17t-10 1t-23 24q-10 -25 -23 -45h30zM209 31.5q6 0.5 6 9.5v102h13v-106q2 -19 -15 -26
q-2 13 -26 18v4q16 -2 22 -1.5zM156 64v45q0 6 -1 17l13 -8h15l6 8l12 -11l-6 -8v-31q0 -6 1 -22l-13 -8v15h-15v-13l-13 -7q0 13 1 23zM168 68h15v43h-15v-43zM200 226q5 -7 -2 -14.5t-9 2.5t-14 27l2 2q18 -10 23 -17zM186.5 168.5q1.5 -6.5 -4.5 -13t-7.5 6t-7.5 26.5
l2 2q16 -15 17.5 -21.5zM219 202l11 9l14 -16h-65q-16 1 -22 -3l-9 10h71zM220 169q-6 -11 -13 -21h15l11 10l15 -17h-75q-11 0 -20 -2l-10 9h60q11 30 11 45l18 -9q-6 -4 -12 -15z" />
  </g>

</svg>
