<?xml version="1.0" standalone="no"?>
<!DOCTYPE svg PUBLIC "-//W3C//DTD SVG 1.1//EN" "http://www.w3.org/Graphics/SVG/1.1/DTD/svg11.dtd" >
<svg xmlns="http://www.w3.org/2000/svg" xmlns:xlink="http://www.w3.org/1999/xlink" version="1.1" viewBox="0 -36 256 256">
  <g transform="matrix(1 0 0 -1 0 220)">
   <path fill="currentColor"
d="M95 248l22 -9l-8 -7q0 -97 1 -118l-15 -8q1 24 1 55h-23q-8 -49 -51 -67l-2 3q34 23 38 64h-3q-10 -1 -19 -3l-9 10h69v26h-43l-6 -5l-11 11l4 5q0 17 -1 32l21 -8l-7 -7v-21h43q0 32 -1 47zM165 193q0 30 -1 52l24 -8l-9 -7v-37h28l13 14l16 -21h-57v-56h25l12 13
l15 -20h-81q-10 0 -19 -2l-10 9h44v56h-24q-10 0 -20 -2l-9 9h53zM209 86l14 12l18 -19h-102q18 -27 44.5 -38t62.5 -12v-4q-18 -1 -22 -16q-33 9 -55.5 26.5t-34.5 43.5h-9q-10 -30 -39 -47.5t-75 -23.5v5q36 8 61 23.5t39 42.5h-63q-10 -1 -19 -3l-10 10h94q4 14 5 32
l22 -8l-6 -6l-6 -18h81zM177.5 110q7.5 -4 7.5 -11t-4.5 -11t-9 5t-20.5 23l2 3q17 -5 24.5 -9z" />
  </g>

</svg>
