<?xml version="1.0" standalone="no"?>
<!DOCTYPE svg PUBLIC "-//W3C//DTD SVG 1.1//EN" "http://www.w3.org/Graphics/SVG/1.1/DTD/svg11.dtd" >
<svg xmlns="http://www.w3.org/2000/svg" xmlns:xlink="http://www.w3.org/1999/xlink" version="1.1" viewBox="0 -205 1024 1024">
  <g transform="matrix(1 0 0 -1 0 819)">
   <path fill="currentColor"
d="M486 938l56 -42h340l34 42l56 -38q9 -3 10 -12q0 -6 -30 -30v-729q0 -48 -18 -72q-18 -23 -60 -32q-9 29 -36 46q-24 14 -90 34l6 20q50 -15 92 -22q43 -6 50 6q7 10 6 33v728h-366v-708l4 -95q0 -15 -24 -30q-22 -15 -34 -16l4 137v780v0v0zM558 710h208l36 44l56 -52
q3 -4 4 -10q1 -7 -16 -8h-200q-21 0 -68 -8l-20 34v0v0zM604 594l48 -36h104l36 36l40 -36q9 -6 10 -14q0 -6 -24 -20v-162l4 -82q1 -13 -16 -26q-17 -9 -34 -12v72h-122v-64q-1 -10 -16 -22q-16 -10 -34 -10l4 120v256v0v0zM650 340h122v192h-122v-192v0v0zM368 690l50 -38
q18 -6 4 -20l-20 -16v-200l4 -76q0 -12 -18 -24q-17 -9 -34 -12v44h-176v-206l158 76q-25 38 -56 68l10 14q57 -30 90 -60q34 -30 44 -56q8 -27 2 -45q-7 -20 -26 -20q-18 -1 -24 16q-5 16 -10 29q-4 11 -16 34q-132 -78 -152 -93q-19 -16 -56 -56l-56 56q36 22 42 35v512
q-59 -92 -106 -142l-14 12q82 129 134 234q50 103 94 236l68 -30q12 -8 4 -16q-22 -3 -34 -20q86 -45 118 -68q30 -25 40 -46q8 -21 2 -42q-6 -18 -24 -20q-17 -1 -28 20q-11 18 -28 52q-18 31 -90 86q-30 -60 -54 -110q-23 -48 -64 -114l28 -26h170l24 32v0v0zM178 630
v-114h176v114h-176v0v0zM178 490v-116h176v116h-176v0v0zM224 808l10 10q48 -31 66 -58q15 -28 10 -50q-7 -20 -20 -22q-12 -3 -20 4q-7 5 -10 22q-1 17 -8 40q-5 24 -28 54v0v0z" />
  </g>

</svg>
