<?xml version="1.0" standalone="no"?>
<!DOCTYPE svg PUBLIC "-//W3C//DTD SVG 1.1//EN" "http://www.w3.org/Graphics/SVG/1.1/DTD/svg11.dtd" >
<svg xmlns="http://www.w3.org/2000/svg" xmlns:xlink="http://www.w3.org/1999/xlink" version="1.1" viewBox="0 -205 1024 1024">
  <g transform="matrix(1 0 0 -1 0 819)">
   <path fill="currentColor"
d="M284 750h590l40 50l68 -56q3 -3 4 -8q0 -12 -14 -12h-158q-28 -171 -76 -282q-48 -108 -86 -156q24 -33 70 -74q45 -40 102 -75q57 -37 142 -56v-18q-49 2 -70 -6t-36 -28q-75 51 -134 110q-60 55 -102 107q-37 -43 -88 -82q-51 -38 -120 -81q-69 -42 -156 -70l-4 16
q96 45 150 84q55 39 98 75q42 33 90 94q-42 57 -84 166q-42 108 -60 274h-84q-33 -1 -60 -10l-22 38v0v0zM476 724q18 -139 60 -242q41 -103 86 -160q42 69 84 186q40 117 50 216h-280v0v0zM518 976q83 -45 116 -80q33 -34 30 -62q-3 -26 -18 -34q-14 -7 -28 -2
q-15 5 -18 28q-2 20 -22 56q-19 33 -70 84l10 10v0v0zM354 938q12 -8 -2 -16q-27 -2 -42 -34q-52 -99 -106 -204l50 -20q15 -9 -2 -18l-18 -10v-486l4 -93q0 -17 -24 -32q-21 -13 -36 -12l4 131v500q-75 -127 -146 -196l-12 8q66 96 150 270q81 174 102 252l78 -40v0v0z" />
  </g>

</svg>
