<?xml version="1.0" standalone="no"?>
<!DOCTYPE svg PUBLIC "-//W3C//DTD SVG 1.1//EN" "http://www.w3.org/Graphics/SVG/1.1/DTD/svg11.dtd" >
<svg xmlns="http://www.w3.org/2000/svg" xmlns:xlink="http://www.w3.org/1999/xlink" version="1.1" viewBox="0 -205 1024 1024">
  <g transform="matrix(1 0 0 -1 0 819)">
   <path fill="currentColor"
d="M480 990l90 -32q3 0 4 -8q1 -3 -40 -20v-64h224v124l90 -34q3 -4 4 -8q1 -3 -40 -20v-62h60l38 44l56 -52q3 -3 6 -12q1 -7 -10 -8h-150v-86l4 -58q-3 -15 -24 -24q-20 -9 -34 -8v36h-90v-116h154l34 38l52 -38q12 -7 12 -14q0 -9 -32 -26v-112l4 -66q1 -15 -16 -30
q-19 -13 -40 -10v48h-168v-114h224l38 50l60 -60q6 -7 6 -10q-1 -6 -16 -6h-312v-99l4 -84q-1 -14 -22 -26q-22 -12 -38 -10l4 122v97h-236q-22 -1 -62 -10l-18 36h316v114h-164v-30q1 -12 -16 -24q-16 -10 -40 -10l4 102v208l56 -36h160v116h-82v-20q-3 -13 -18 -22
q-14 -6 -40 -6l4 96v92h-76q-30 0 -62 -8l-18 36h156v124v0v0zM452 398h164v158h-164v-158v0v0zM668 398h168v158h-168v-158v0v0zM534 724h224v114h-224v-114v0v0zM186 980l82 -30q12 -7 0 -16l-32 -12v-138q55 -24 86 -44q30 -19 40 -40q7 -22 2 -40q-6 -19 -26 -20
q-18 0 -26 22q-6 20 -20 46q-15 24 -56 54v-594l4 -111q0 -11 -18 -26q-17 -14 -40 -16l4 161v804v0v0zM110 730h18q1 -81 0 -120q0 -39 -18 -66q-16 -25 -38 -26q-22 0 -28 16q-6 14 6 28l22 30t20 46q9 28 18 92v0v0z" />
  </g>

</svg>
