<?xml version="1.0" standalone="no"?>
<!DOCTYPE svg PUBLIC "-//W3C//DTD SVG 1.1//EN" "http://www.w3.org/Graphics/SVG/1.1/DTD/svg11.dtd" >
<svg xmlns="http://www.w3.org/2000/svg" xmlns:xlink="http://www.w3.org/1999/xlink" version="1.1" viewBox="0 -200 999 1000">
  <g transform="matrix(1 0 0 -1 0 800)">
   <path fill="currentColor"
d="M869 965l65 -69h-202l-14 -24v-143h80l43 41l61 -65h-184v-163h129l40 42l62 -67h-436l-54 -14l-17 38h224v164h-108l-58 -15l-19 39h185v167h-134l-60 -15l-23 39h373zM643 456l-17 -61v-55h135v148l65 -24l-16 -55v-69h43l38 39l59 -63h-140v-238q-9 -12 -19.5 -20.5
t-22.5 -8.5q-6 0 -7 1v266h-136q-6 -75 -21.5 -121t-28.5 -61q-6 -13 -19.5 -31t-33.5 -37t-47 -37t-61 -30l-6 12q34 27 65 59.5t54 70.5q21 33 30 75.5t14 99.5h-76l-54 -14l-17 38h148v141zM138 747v209l65 -42h106l35 42l53 -55l-32 -34l-1 -745q-3 -12 -6 -24.5
t-10.5 -25.5t-21 -25t-37.5 -23q-3 21 -9.5 34t-18.5 22t-30 16t-44 15l2 13q23 -4 41.5 -6t29.5 -2q26 0 37.5 8t16.5 26v273h-134q-5 -66 -15 -129.5t-26 -118.5t-38 -99.5t-50 -73.5l-13 2q21 50 35.5 95.5t25 94t17.5 102.5t13 122q6 91 7.5 169.5t1.5 159.5zM184 446
h130v209h-123zM190 846v-169h124v213h-112z" />
  </g>

</svg>
