<?xml version="1.0" standalone="no"?>
<!DOCTYPE svg PUBLIC "-//W3C//DTD SVG 1.1//EN" "http://www.w3.org/Graphics/SVG/1.1/DTD/svg11.dtd" >
<svg xmlns="http://www.w3.org/2000/svg" xmlns:xlink="http://www.w3.org/1999/xlink" version="1.1" viewBox="0 -36 256 256">
  <g transform="matrix(1 0 0 -1 0 220)">
   <path fill="currentColor"
d="M90 92l1 -5q-60 -28 -68 -38l-13 19q13 1 35 9v77h-3q-10 0 -19 -2l-9 9h31v40q0 25 -2 45l23 -12l-8 -7v-66h6l10 10l14 -17h-30v-74zM201 92h-83v-10h83v10zM201 75h-83v-11h83v11zM201 57h-83v-8h83v8zM112.5 26q13.5 8 22.5 18l13 -14l-11 -2q-23 -10 -51 -20l-1 3
q14 7 27.5 15zM105 68.5q0 17.5 -1 34.5l14 -4h82l5 6l14 -10l-5 -5v-28q0 -8 1 -20l-14 -6v6h-83v-3l-14 -5q1 17 1 34.5zM229 107l-13 -5v5h-112v-1l-13 -4q1 12 1 23t-1 23l12 -5h113l7 7l12 -12l-7 -5q0 -10 1 -26zM151 201l19 -8l-6 -6v-7h38l12 8l13 -15h-63v-12h30
l12 8l14 -15h-92q-10 0 -20 -2l-9 9h53v12h-32q-11 0 -20 -2l-9 9h61q0 11 -1 21zM104 114h29v22h-29v-22zM145 114h28v22h-28v-22zM185 114h31v22h-31v-22zM219 30q9 -5 7.5 -15.5t-11.5 0t-36 24.5l1 3q30 -7 39 -12zM221 202l-4 2l7 11h-126q1 -9 -3.5 -14.5t-12 -5.5
t-8.5 3.5t7.5 10.5t11.5 20h5v-7h59q-2 10 -16 20l3 3q23 -6 25.5 -12t-5.5 -11h59l9 7l16 -14q-15 0 -27 -13zM149 201q-11 -2 -27.5 -10t-34.5 -13l-1 3q12 6 26 14.5t24 19.5zM215.5 201q14.5 -4 13 -13t-8.5 -4t-17.5 11t-31.5 12l1 3q29 -5 43.5 -9z" />
  </g>

</svg>
