<?xml version="1.0" standalone="no"?>
<!DOCTYPE svg PUBLIC "-//W3C//DTD SVG 1.1//EN" "http://www.w3.org/Graphics/SVG/1.1/DTD/svg11.dtd" >
<svg xmlns="http://www.w3.org/2000/svg" xmlns:xlink="http://www.w3.org/1999/xlink" version="1.1" viewBox="0 -205 1024 1024">
  <g transform="matrix(1 0 0 -1 0 819)">
   <path fill="currentColor"
d="M538 620l80 -28q5 -3 8 -8q0 -4 -2 -8l-36 -18v-164q3 -167 -68 -250q-70 -81 -148 -131l-8 14q68 58 124 135q55 76 50 266v192v0v0zM766 614l80 -28q9 -5 6 -10q0 -3 -6 -8l-28 -12v-376l4 -111q-4 -15 -22 -28t-38 -14l4 145v442v0v0zM30 864h314l38 50l60 -58
q12 -15 -8 -18h-162q-36 -135 -86 -260h126l32 36l52 -52q6 -6 6 -8q0 -6 -30 -24v-328l4 -44q2 -15 -16 -27q-18 -14 -36 -16v77h-140v-73q0 -18 -20 -28q-21 -12 -32 -12l4 101v282q-33 -79 -98 -154l-10 8q57 105 102 228q46 123 86 294h-98q-22 0 -70 -8l-18 34v0v0z
M184 218h140v334h-140v-334v0v0zM724 946q7 -3 8 -6q3 -9 -12 -12l-22 -4q36 -64 72 -112q33 -47 100 -100q63 -51 136 -62v-20q-68 1 -88 -34q-63 42 -102 90q-40 45 -76 102q-35 53 -58 122q-58 -118 -128 -202q-68 -84 -142 -140l-10 10q66 77 132 172q65 96 112 228
l78 -32v0v0z" />
  </g>

</svg>
