<?xml version="1.0" standalone="no"?>
<!DOCTYPE svg PUBLIC "-//W3C//DTD SVG 1.1//EN" "http://www.w3.org/Graphics/SVG/1.1/DTD/svg11.dtd" >
<svg xmlns="http://www.w3.org/2000/svg" xmlns:xlink="http://www.w3.org/1999/xlink" version="1.1" viewBox="0 -144 1024 1024">
  <g transform="matrix(1 0 0 -1 0 880)">
   <path fill="currentColor"
d="M306 112l-1 -14l-3 -13l-4 -14l-6 -12l-9 -10l-11 -9l-12 -7l-13 -4l-13 -3h-14v32l-86 16v16h86l6 1h5l3 1l2 1l2 2l1 2l1 3l1 5v7h65zM884 476v-350h-65v104h-178v-162l-64 -33v516l64 -32h178l32 27l43 -35l3 23l4 17l3 18l6 31l2 14l1 7h-366l1 -17l1 -27l-1 -25
l-2 -23l-2 -21l-4 -19l-6 -18l-8 -15l-19 14v1h-1l-6 5l-4 2l-10 8l-11 8v1l5 5l7 9l6 13l2 5h-140l11 -10l64 -51l47 -32l30 -18l18 -12l-59 -45l-43 42l-25 32l-25 35l-11 18l-20 40l2 1h-119l-11 -17l-45 -57l-25 -26l-24 -22l7 -4l15 -7l27 -15l11 -8l11 -8l10 -9
l17 -21l7 -11l-2 -25l-18 -16l-25 2l-16 19v7l-2 7l-2 9l-4 10l-5 10l-6 11l-25 35l-8 7l-23 -19l-31 -20l-32 -18l-5 8l71 78l41 54l18 28l11 18h-133v22h144l11 20l14 31l9 24h-54l-64 -32v252l64 -32h1v79h-134v21h134v72l65 -11l16 -11l-16 -10v-40h93v72l64 -11l16 -11
l-16 -10v-40h16l54 54l64 -54v-21h-134v-48l-62 -31h63l32 27l59 -48l-27 -22v-145l-64 -32v32h-138l31 -17l10 -16l-20 -3l-7 -15l-15 -24h142l54 53l64 -53v-13l7 22l5 23l5 25l5 29l5 31l4 34l9 1l5 -35l2 -24h21v318l59 -30h207l32 27l59 -48l-27 -22v-245h18l32 27
l60 -48l-27 -16l-13 -6l-7 -15l-34 -61l-10 -17l-5 -8l-1 -2l-5 -7l-10 -19l-9 4l1 4zM804 104l5 1l4 1l1 1l1 1l1 1l2 5l1 5v7h65l-1 -14l-2 -14l-4 -13l-7 -12l-9 -11l-11 -8l-12 -7l-13 -4l-14 -3h-14v32l-64 16v16h71zM449 121l-13 15l-30 30l-36 29l-41 29l-23 14v1
v-127h-65v135l-30 -26l-140 -108v-21l-18 7v1l-3 4v1l-1 1l-1 1v1l-3 4l-4 7l-4 5l-15 23l-4 6l87 48l68 33l23 10l45 18v208l65 -11l16 -10l-16 -10v-119l29 41l18 23l23 28h-1l5 4l42 -49l2 -19l-22 7l-28 -17l-38 -22l-27 -14l-3 -3v-42l8 -2l26 -7l25 -8l24 -11l24 -11
l21 -12l40 -27l36 -32l7 -23l-11 -22l-24 -8l-22 11zM18 153l35 -54l-44 48zM819 364h-178v-112h178v112zM819 498h-178v-113h178v113zM475 495l51 -39l-21 -13l-24 6l-12 22zM832 909h-207v-267h70v194l59 -29h78v102zM832 785h-78v-143h78v143zM377 710h-224v-65h224v65z
M377 791h-224v-60h224v60zM312 891h-93v-48l-63 -31h156v79z" />
  </g>

</svg>
