<?xml version="1.0" standalone="no"?>
<!DOCTYPE svg PUBLIC "-//W3C//DTD SVG 1.1//EN" "http://www.w3.org/Graphics/SVG/1.1/DTD/svg11.dtd" >
<svg xmlns="http://www.w3.org/2000/svg" xmlns:xlink="http://www.w3.org/1999/xlink" version="1.1" viewBox="0 -205 1024 1024">
  <g transform="matrix(1 0 0 -1 0 819)">
   <path fill="currentColor"
d="M414 438h238v148h-70q-19 0 -68 -8l-14 36h254l36 44l58 -54q3 0 4 -6q0 -12 -8 -12h-140v-148h150l38 48l62 -60q3 -3 4 -8q0 -9 -8 -8h-246v-297q4 -45 -16 -66q-19 -18 -52 -28q-18 33 -38 44q-22 13 -70 28l4 16q81 -18 102 -18q19 0 18 26v295h-160q-30 3 -62 -8
l-16 36v0v0zM584 320q6 -3 6 -6q9 -9 -6 -12t-26 -12q-10 -7 -52 -70q-40 -63 -124 -155l-14 8q66 91 154 279l62 -32v0v0zM794 336q62 -48 104 -90q38 -42 50 -74t0 -53q-9 -22 -30 -20q-19 1 -22 22q-3 20 -12 47q-9 26 -32 64q-21 35 -66 92l8 12v0v0zM724 950
q9 -5 6 -10q-1 -6 -28 -18q36 -63 78 -116q39 -51 94 -92q53 -42 122 -54v-18q-36 -3 -54 -6q-18 -1 -36 -28q-43 33 -82 78t-72 96q-34 52 -68 128q-51 -84 -126 -180q-74 -96 -148 -162l-10 10q75 93 148 208q73 112 104 194l72 -30v0v0zM102 940l58 -44h156l30 40l56 -48
q6 -6 6 -8q0 -6 -30 -24v-460l4 -64q-1 -13 -20 -22q-18 -9 -36 -12v36h-172v-12q0 -12 -18 -24q-18 -11 -38 -16l4 108v550v0v0zM154 360h172v154h-172v-154v0v0zM154 540h172v148h-172v-148v0v0zM154 714h172v156h-172v-156v0v0zM34 47q83 121 134 237l56 -34q7 -6 2 -14
q-22 -9 -28 -14q-7 -6 -58 -72q-52 -65 -94 -115l-12 12v0v0zM258 268l10 12q57 -33 82 -56q23 -24 32 -50q9 -25 0 -41q-10 -18 -28 -16q-18 4 -24 29q-7 26 -22 56q-16 30 -50 66v0v0z" />
  </g>

</svg>
