<?xml version="1.0" standalone="no"?>
<!DOCTYPE svg PUBLIC "-//W3C//DTD SVG 1.1//EN" "http://www.w3.org/Graphics/SVG/1.1/DTD/svg11.dtd" >
<svg xmlns="http://www.w3.org/2000/svg" xmlns:xlink="http://www.w3.org/1999/xlink" version="1.1" viewBox="0 -36 256 256">
  <g transform="matrix(1 0 0 -1 0 220)">
   <path fill="currentColor"
d="M23 174.5q0 33.5 -1 67.5l13 -8h51l9 10l15 -17h-36v-28h9l8 8l14 -15h-31v-31h7l9 10l14 -17h-30v-31l17 1l8 10l12 -14l-7 -6q-4 -64 -7.5 -75.5t-8.5 -18.5t-14 -10q-1 12 -22 18v4q19 -3 24.5 -2t8 12.5t4 28t3.5 46.5l-56 -2v-5l-14 -3q1 34 1 67.5zM36 199h25v28
h-25v-28zM36 161h25v31h-25v-31zM36 122l25 1v31h-25v-32zM24 91q0 -27 -0.5 -31.5t-4.5 -10t-9 -2.5t1.5 13t8.5 31h4zM35 94q7 -10 11 -19.5t2 -16t-7.5 -7.5t-5 8.5t-3.5 33.5zM51 99q16 -15 18 -23t0 -12.5t-5.5 -5t-4.5 10t-10 28.5zM68 105q13 -9 17 -15t2 -13.5
t-5 -8.5t-4.5 8.5t-11.5 26.5zM126 76.5q-8 -40.5 -29 -68.5l-3 2q17 32 21.5 72t4.5 87.5t-1 73.5l15 -9h87l13 11l14 -18h-115q1 -110 -7 -150.5zM160 225l20 -7l-6 -6v-12h28q0 12 -1 25l20 -7l-6 -6v-12h10l10 10l14 -17h-34q0 -6 1 -16l-15 -5q1 13 1 21h-28
q0 -7 1 -19l-15 -5q1 11 1 24h-6q-11 -2 -14 -3l-9 10h29q0 15 -1 25zM242 61l3 -1q-3 -32 0.5 -43t-16 -0.5t-31.5 25.5q-21 -21 -40 -32l-2 3q17 14 35 39q-11 28 -13 77h-24v-87l19 16l2 -3q-19 -23 -27 -37l-11 13q4 6 4 13q0 78 -1 99l16 -7h22q0 13 -1 35l20 -11
l-7 -7v-17h31l12 9l13 -16h-56q2 -39 10 -64q19 33 23 50l16 -14q-6 -4 -13 -16.5t-20 -31.5q10 -15 28 -24zM224.5 157q4.5 -6 -0.5 -13t-9 1.5t-14 23.5l2 2q17 -8 21.5 -14z" />
  </g>

</svg>
