<?xml version="1.0" standalone="no"?>
<!DOCTYPE svg PUBLIC "-//W3C//DTD SVG 1.1//EN" "http://www.w3.org/Graphics/SVG/1.1/DTD/svg11.dtd" >
<svg xmlns="http://www.w3.org/2000/svg" xmlns:xlink="http://www.w3.org/1999/xlink" version="1.1" viewBox="0 -200 1000 1000">
  <g transform="matrix(1 0 0 -1 0 800)">
   <path fill="currentColor"
d="M367 937q31 -15 25 -23q-7 -8 -38 -1q-47 -46 -117 -95q-79 -56 -158 -93l-6 7q76 53 141 110q64 58 112 115zM632 955q73 -15 141 -43q62 -25 96 -52q18 -15 24 -34q6 -17 -1 -27q-6 -10 -21 -6q-17 6 -36 30q-26 25 -80 58q-59 35 -126 64zM381 885q24 -31 58 -61
q30 -27 70 -55q42 31 80 69q29 29 66 71l45 -23q29 -16 25 -23t-42 -4q-31 -30 -64 -58q-34 -30 -72 -58q85 -56 197 -85q102 -26 219 -28v-9q-32 -4 -46 -18q-12 -11 -13 -30q-114 20 -208 56q-94 37 -176 93q-103 -59 -203 -99q-122 -47 -247 -65l-3 11q129 28 233 74
q99 44 182 109q-40 33 -70 67q-25 28 -46 59zM146 508h695l39 41l53 -38q13 -19 8 -24t-20 -5h-173q18 -8 12 -14q-4 -6 -21 -8v-239l114 5l40 47l62 -41q15 -20 11 -26t-20 -6l-207 -9v-79v-14q1 -12 -1 -17q-5 -9 -21 -15q-21 -6 -26 1q-4 5 -3 22l1 5v94l-610 -26l-15 28
l223 11v281h-126l-67 -4l-13 32zM337 407h351v75h-321q3 -5 -9 -12q-9 -4 -21 -8v-55zM688 284h-351v-81l351 15v66zM688 310v71h-351v-71h351z" />
  </g>

</svg>
