<?xml version="1.0" standalone="no"?>
<!DOCTYPE svg PUBLIC "-//W3C//DTD SVG 1.1//EN" "http://www.w3.org/Graphics/SVG/1.1/DTD/svg11.dtd" >
<svg xmlns="http://www.w3.org/2000/svg" xmlns:xlink="http://www.w3.org/1999/xlink" version="1.1" viewBox="0 -143 1024 1024">
  <g transform="matrix(1 0 0 -1 0 881)">
   <path fill="currentColor"
d="M662 517v361h-128q-20 0 -48 -8l-19 31h186l32 38l48 -38q9 -5 7 -13q0 -2 -30 -24v-746q3 -27 -11.5 -52.5t-68.5 -39.5q-8 37 -31 49t-71 27l4 18q81 -18 104.5 -19t25.5 21v358q-90 -89 -99.5 -106.5t-24.5 -51.5l-58 36zM517 736l12 6q46 -42 63 -69t17 -49t-11 -37
t-25 -12t-15 25l-2 44t-7 36t-32 56zM900 531v349h-74q-32 0 -44 -12l-23 35h136l24 40l54 -40q9 -5 7 -13q0 -2 -32 -24v-758q2 -29 -14 -49.5t-56 -32.5q-8 35 -30 47t-78 31l4 18q89 -22 106.5 -21t19.5 21v376q-74 -85 -87.5 -107.5t-30.5 -56.5l-52 28zM761 732l12 6
q40 -38 63 -68t22 -49t-12 -34t-26 -11t-13 23t-5 42t-13 38t-28 53zM242 987q79 -30 84 -36t1 -9t-36 -19v-224h119v176q78 -30 80 -36t-2 -10t-29 -14v-65l4 -69q2 -16 -17 -27t-36 -11v30h-287l-28 -26l-56 48q33 21 33 32v176l75 -31q7 -3 7 -9t-33 -18v-146h121v288z
M40 567h337l33 36l45 -40q8 -6 8 -12t-28 -26v-79l4 -67q2 -16 -15.5 -26t-36.5 -10v38h-253v-236l290 114l8 -17q-217 -101 -262 -128t-74 -59l-53 60q20 7 44 34v294l51 -38h249v136h-280q-22 0 -42 -11z" />
  </g>

</svg>
