<?xml version="1.0" standalone="no"?>
<!DOCTYPE svg PUBLIC "-//W3C//DTD SVG 1.1//EN" "http://www.w3.org/Graphics/SVG/1.1/DTD/svg11.dtd" >
<svg xmlns="http://www.w3.org/2000/svg" xmlns:xlink="http://www.w3.org/1999/xlink" version="1.1" viewBox="0 -205 1024 1024">
  <g transform="matrix(1 0 0 -1 0 819)">
   <path fill="currentColor"
d="M550 902l60 -44h24q20 60 32 124l72 -30q9 -8 -12 -16q-15 -8 -26 -22q-12 -15 -38 -56h164l30 42l60 -44q8 -4 8 -8q0 -6 -36 -30v-144l4 -66q0 -10 -14 -22q-12 -10 -38 -14v30h-240v-84h288l28 42l68 -54q6 -15 -8 -14h-376v-82h288l34 38l62 -46q3 -8 -2 -16l-30 -16
q-4 -84 -10 -150q-7 -65 -10 -97q-4 -34 -28 -62q-22 -25 -64 -38q-19 37 -46 50q-28 12 -82 30l6 18q69 -15 100 -18q30 -2 46 4q15 6 18 30q2 22 8 77q5 54 10 168h-300q6 -24 -14 -32q-17 -10 -40 -10l4 114v448v0v0zM600 630h240v86h-240v-86v0v0zM600 746h240v84h-240
v-84v0v0zM542 310h20q5 -52 10 -100q4 -46 -10 -68q-14 -19 -34 -23q-20 -3 -28 8q-10 9 -4 21q6 11 18 28q12 18 18 42q5 23 10 92v0v0zM604 304l12 8q36 -51 48 -74q12 -21 12 -42q0 -18 -12 -32q-13 -13 -28 -8q-16 5 -14 32q3 24 0 48q-3 23 -18 68v0v0zM774 342l12 8
q50 -39 68 -60q17 -20 20 -40q1 -18 -10 -32q-10 -13 -26 -8q-16 3 -16 28q0 23 -12 46q-9 21 -36 58v0v0zM682 320l12 8q53 -45 68 -68q13 -21 14 -42q0 -18 -12 -32q-13 -13 -28 -8q-16 6 -16 36q1 30 -4 48q-7 18 -34 58v0v0zM276 896h136l28 42l56 -36q12 -7 12 -14
q1 0 -34 -32v-741q1 -23 -16 -46q-15 -22 -60 -36q-12 37 -42 52q-28 13 -74 22l4 18q51 -8 88 -14q35 -4 44 4q10 9 8 31v336q-69 -91 -86 -118q-16 -25 -22 -52l-58 40l166 168v352h-78q-24 0 -50 -8l-22 32v0v0zM292 752q44 -39 68 -72q23 -30 26 -54t-8 -36
q-11 -13 -28 -10q-16 2 -16 20q1 17 -10 56q-9 36 -44 88l12 8v0v0zM16 890h160l28 42l56 -36q12 -7 12 -14l-36 -32v-743q1 -23 -12 -46q-12 -20 -60 -38q-12 33 -42 48q-30 12 -84 26l4 18q60 -9 96 -12q33 -4 42 4q10 9 8 32v347q-66 -99 -84 -120q-17 -21 -28 -60
l-54 40l166 168v352h-100q-24 0 -48 -6l-24 30v0v0zM70 760q38 -41 62 -76q21 -33 24 -60q0 -25 -12 -40q-12 -13 -30 -10q-19 4 -16 32q3 27 -6 60q-7 32 -34 86l12 8v0v0z" />
  </g>

</svg>
