<?xml version="1.0" standalone="no"?>
<!DOCTYPE svg PUBLIC "-//W3C//DTD SVG 1.1//EN" "http://www.w3.org/Graphics/SVG/1.1/DTD/svg11.dtd" >
<svg xmlns="http://www.w3.org/2000/svg" xmlns:xlink="http://www.w3.org/1999/xlink" version="1.1" viewBox="0 -200 999 1000">
  <g transform="matrix(1 0 0 -1 0 800)">
   <path fill="currentColor"
d="M873 67h-259v-41q-3 -5 -10.5 -10t-16 -9t-16 -6.5t-9.5 -2.5v348l66 -29h181l27 45l63 -50l-26 -36v-209zM822 88v207h-195l-13 -37v-170h208zM776 845h-162l43 -96q-2 -5 -9 -10.5t-15 -10t-15 -7t-9 -2.5v125h-37l-56 -16l-19 39h112v134l66 -26l-18 -59v-48h119v128
l62 -24l-14 -61v-43h32l43 41l56 -64h-131v-88q-2 -5 -8.5 -9.5t-14 -9t-15 -7.5t-10.5 -4v118zM801 616q51 -49 83 -93.5t32 -73.5v-5q-2 -16 -10 -30.5t-25 -14.5q-5 0 -6 1q-5 1 -10.5 11.5t-7.5 22.5l-15 49q-41 -10 -91.5 -22.5t-95 -24.5t-75 -22t-32.5 -15l-31 75
l53 1q10 18 25.5 49t31.5 67t31 74t24 71l61 -59l-29 -26q-8 -14 -26.5 -40.5t-38.5 -54.5t-38 -53t-25 -36l251 31q-5 26 -17 53t-27 53zM96 817l-20 36h173v51l-15 96l79 -26l-15 -68v-53h85l38 44l58 -69h-250l58 -59l-34 -36l-98 -172q48 8 106.5 12.5t113.5 11.5
q-5 19 -16.5 40t-33.5 60l6 8q33 -27 58 -55t42.5 -52t26.5 -41.5t10 -24.5v-10q0 -14 -4.5 -24t-11.5 -16t-14 -8.5t-11 -2.5q-3 0 -9 4t-7 12l-30 96q-37 -9 -75.5 -20.5t-75 -23.5t-69 -24t-56.5 -22l-40 72l68 7q34 71 54 135t39 133h-81zM370 453l-15 -70v-242
q0 -30 3.5 -46.5t17.5 -16.5h3l47 -1q8 0 13.5 14.5t8.5 38t4 53t1 59.5q0 11 -0.5 21t-0.5 21l10 3q0 -67 4 -105.5t10 -59t13 -27.5t13 -10t10 -6.5t4 -17.5q0 -12 -8 -18.5t-19 -10t-22.5 -4.5t-18.5 -1h-102q-18 5 -28.5 22t-10.5 53v376zM211 378q0 -6 0.5 -12t0.5 -12
q0 -35 -4.5 -64.5t-10.5 -57.5q-11 -49 -28.5 -87.5t-39 -67.5t-45 -49t-46.5 -32l-6 11q15 15 26.5 30t22 31.5t21 36.5t22.5 45q14 37 21 71t10 72t4.5 83.5t4.5 105.5l67 -33z" />
  </g>

</svg>
