<?xml version="1.0" standalone="no"?>
<!DOCTYPE svg PUBLIC "-//W3C//DTD SVG 1.1//EN" "http://www.w3.org/Graphics/SVG/1.1/DTD/svg11.dtd" >
<svg xmlns="http://www.w3.org/2000/svg" xmlns:xlink="http://www.w3.org/1999/xlink" version="1.1" viewBox="0 -36 256 256">
  <g transform="matrix(1 0 0 -1 0 220)">
   <path fill="currentColor"
d="M68 15l-17 -7q1 46 1 118q-12 -36 -40 -68l-3 3q31 50 41 115h-10q-10 0 -19 -2l-9 9h40q0 29 -1 64l26 -10l-10 -7v-47h10l11 12l17 -19h-38v-27q20 -11 29 -19.5t3.5 -21t-12 3t-20.5 31.5q0 -108 1 -128zM128 67h86v23h-86v-23zM238 148l-15 -6v10h-105v-8l-15 -6
q1 18 1 50t-1 54l15 -9h104l7 9l15 -12l-7 -6v-44q0 -16 1 -32zM118 226v-30h45v30h-45zM176 196h47v30h-47v-30zM118 159h45v30h-45v-30zM176 159h47v30h-47v-30zM115 44v63q0 16 -1 30l14 -8h85l7 9l15 -12l-8 -6v-84q0 -22 -19 -28q-3 15 -32 20v4q23 -1 30.5 -1t7.5 6
v23h-86v-45l-14 -7q1 18 1 36zM128 97h86v25h-86v-25z" />
  </g>

</svg>
