<?xml version="1.0" standalone="no"?>
<!DOCTYPE svg PUBLIC "-//W3C//DTD SVG 1.1//EN" "http://www.w3.org/Graphics/SVG/1.1/DTD/svg11.dtd" >
<svg xmlns="http://www.w3.org/2000/svg" xmlns:xlink="http://www.w3.org/1999/xlink" version="1.1" viewBox="0 0 2048 2048">
  <g transform="matrix(1 0 0 -1 0 2048)">
   <path fill="currentColor"
d="M530 892l98 102l121 -107q8 -8 13 -15t2 -18t-11 -15t-15 -4h-426v-582l74 27q33 12 138 54q104 41 131 54l99 46l16 -29q-32 -26 -72 -55t-146 -87q-105 -58 -166 -86l-67 -31q-2 -24 -6 -43.5t-17 -25.5q-14 -6 -34 21l-15 30l-49 95l19 4v992q0 48 -3 94.5t-3 52.5
l-2 13l110 -24q47 -11 65 -21q19 -9 20 -22q0 -14 -14 -26q-15 -13 -36 -18l-42 -11v-365h218zM1174 329l84 -53q24 -16 20 -34q-4 -19 -31 -19h-61l-62 -38q-36 -22 -102 -54q-65 -32 -143 -61t-150 -47l-72 -19l-16 41q29 9 55 19q25 9 76 34l107 52q55 29 92 53t69 51
q31 27 47 45l27 30h-113l-1 -21q-1 -14 -6 -22q-5 -9 -22 -15t-41 -3q-12 0 -21 4q-10 5 -14 17q-5 12 -4 32q0 2 4 54l4 62q5 66 5 80v411q0 46 -1 70q-1 23 -3 78l-3 63l126 -70h162l13 27q7 15 23 52q15 37 24 65l14 43h-217l-160 -5q-15 -1 -18 -1l-13 -2l-39 88
q14 -4 30 -7.5t61 -9.5q46 -6 139 -6h683l98 101l121 -107q10 -10 15 -16q4 -6 1 -17q-3 -10 -12 -14t-14 -4h-546l-49 -72q-25 -37 -64 -81l-30 -34h457l68 76l84 -54q20 -13 30 -25q10 -11 10 -24q-1 -14 -11 -26q-11 -11 -31 -19l-36 -16v-460q0 -32 1 -75q2 -44 6 -80
q4 -37 3 -52q-2 -12 -6 -20q-4 -7 -17 -14q-13 -8 -32 -8q-16 -1 -28 3q-13 4 -19 11q-6 6 -6 18v25h-545zM1001 843h718v168h-718v-168zM1001 610h718v173h-718v-173zM1001 386h718v166h-718v-166zM1660 1701q-1 81 -2 111q-2 29 -3 36l-2 13l109 -24q49 -11 66 -21
q17 -9 18 -22q2 -14 -12 -26q-14 -13 -36 -18l-42 -11v-127q0 -10 2 -44q3 -33 4 -64q2 -30 -4 -41q-6 -10 -17 -17q-11 -6 -30 -6q-16 -1 -28 3t-17 9q-6 6 -6 38v29h-1280q-8 -6 -16 -10q-7 -4 -24 -4q-18 -1 -30 3q-13 4 -19 10q-6 5 -6 37v146q0 64 -2 102t-3 45l-2 13
l109 -24q49 -11 66 -21q17 -9 19 -22q1 -14 -13 -26q-14 -13 -36 -18l-42 -11l-1 -164h597v198q0 64 -2 102t-3 45l-2 13l109 -24q50 -12 67 -21t18 -23q0 -14 -14 -26q-13 -12 -35 -17l-42 -11l-2 -236h589v126zM1469 282l113 -29q56 -14 96 -26q39 -12 108 -39t98 -44
q29 -16 43 -36q14 -19 15 -46q0 -26 -13 -38t-29 -13q-20 -2 -36 7q-15 10 -56 42q-40 31 -90 58q-49 27 -128 64q-79 38 -107 49l-28 10z" />
  </g>

</svg>
