<?xml version="1.0" standalone="no"?>
<!DOCTYPE svg PUBLIC "-//W3C//DTD SVG 1.1//EN" "http://www.w3.org/Graphics/SVG/1.1/DTD/svg11.dtd" >
<svg xmlns="http://www.w3.org/2000/svg" xmlns:xlink="http://www.w3.org/1999/xlink" version="1.1" viewBox="0 -36 256 256">
  <g transform="matrix(1 0 0 -1 0 220)">
   <path fill="currentColor"
d="M30 226h83l12 13l18 -20h-113v-181h72l12 12l17 -19h-100l-7 -9l-13 11l6 6v138q0 20 -1 58zM61 164h47v31h-47v-31zM49 208l12 -6h45l8 8l15 -13l-9 -5v-43l-12 -5v13h-47v-8l-12 -5v64zM50 75h18v45h-18v-45zM79 63l-11 -6v11h-18v-6l-12 -4v75l13 -6h16l7 8l12 -11
l-7 -6v-55zM90 134l11 -7h17l7 8l13 -12l-7 -6v-53l-12 -6v11h-18v-7l-11 -6v78zM101 76h18v44h-18v-44zM205 233q20 6 25 11l13 -20l-10 2q-36 -7 -71 -11v-56h61l10 14l15 -21h-34v-106q0 -17 1 -30l-16 -8q1 31 1 49v95h-38q0 -15 -0.5 -42t-9 -53t-25.5 -49l-4 3
q9 14 17 40.5t9 60t0.5 66t-1.5 53.5l14 -10q23 6 43 12z" />
  </g>

</svg>
