<?xml version="1.0" standalone="no"?>
<!DOCTYPE svg PUBLIC "-//W3C//DTD SVG 1.1//EN" "http://www.w3.org/Graphics/SVG/1.1/DTD/svg11.dtd" >
<svg xmlns="http://www.w3.org/2000/svg" xmlns:xlink="http://www.w3.org/1999/xlink" version="1.1" viewBox="0 -205 1024 1024">
  <g transform="matrix(1 0 0 -1 0 819)">
   <path fill="currentColor"
d="M180 960l84 -34q6 -3 6 -8q6 -9 -42 -24v-306q-1 -233 -46 -352q-42 -117 -144 -189l-10 10q81 89 118 203q36 114 34 328v372v0v0zM508 922q-19 -6 -148 -134h150q66 73 90 110q72 -42 70 -48q0 -7 -6 -8q-6 0 -18 -2q-12 -3 -44 -26q-31 -23 -70 -58q-37 -34 -164 -136
l276 20q-24 30 -78 70l6 14q71 -28 106 -56q32 -28 38 -52q3 -25 -6 -34q-10 -10 -22 -10q-12 3 -18 12q-3 12 -14 36q-222 -21 -264 -30t-66 -26l-40 58q21 3 60 16q90 69 144 126q-67 -4 -100 -10q-33 -5 -74 -22l-26 60l40 4q48 35 142 182q64 -36 68 -42q3 -7 -6 -8
q-7 0 -26 -6v0v0zM324 546l48 -32h192l30 36l54 -38q8 -3 8 -12q0 -7 -26 -26v-347q0 -32 -14 -50q-12 -16 -66 -32q-6 34 -30 46q-23 12 -70 26l4 16q51 -9 70 -12l38 -2q18 0 18 25v102h-208v-66l4 -93q0 -13 -20 -26q-18 -13 -36 -14l4 129v370v0v0zM372 270h208v98h-208
v-98v0v0zM372 392h208v98h-208v-98v0v0zM756 968l86 -36l4 -8q-1 -3 -4 -6l-38 -16v-756q3 -31 12 -35q8 -3 20 -4h54q27 1 36 22q9 19 12 53v108h22q3 -76 10 -112q6 -36 30 -47q-15 -34 -36 -50q-21 -15 -48 -18h-72q-28 0 -50 8q-21 7 -32 28q-6 21 -6 49v820v0v0z" />
  </g>

</svg>
