<?xml version="1.0" standalone="no"?>
<!DOCTYPE svg PUBLIC "-//W3C//DTD SVG 1.1//EN" "http://www.w3.org/Graphics/SVG/1.1/DTD/svg11.dtd" >
<svg xmlns="http://www.w3.org/2000/svg" xmlns:xlink="http://www.w3.org/1999/xlink" version="1.1" viewBox="0 -36 256 256">
  <g transform="matrix(1 0 0 -1 0 220)">
   <path fill="currentColor"
d="M148 102h25v54h-25v-54zM186 102h27v54h-27v-54zM197 202h-41q-6 -13 -16 -33l9 -6h30zM117 137l-3 2q11 21 24 52.5t20 55.5l18 -13l-7 -2l-10 -23h39l7 10l14 -13q-5 -3 -33 -43h26l5 11l15 -13l-6 -6v-38q0 -12 1 -22l-14 -9v9h-65v-43q0 -25 16 -28h52q12 0 13 15.5
t1 32.5h4q1 -21 3 -31.5t11 -14.5q-5 -6 -9 -9.5t-14 -5.5h-63q-25 0 -26 32v120q-8 -12 -19 -26zM114 34q0 -15 -19 -26q-1 16 -23 18v5q16 -2 23.5 -1.5t6.5 11.5v113h-72v-137l-12 -10v124q0 21 -1 40l16 -10h27v51q0 14 -1 35l21 -11l-8 -10v-65h28l7 10l14 -12l-7 -7
v-118zM117 216q-8 -6 -15 -16.5t-22 -31.5l-3 2q16 32 24 60zM21 226q18 -14 24 -24.5t-1.5 -22t-11 7.5t-15.5 36zM55 125h21l6 9l12 -12l-6 -5v-55l-12 -8v13h-19v-10l-11 -7v82zM77 118h-20v-44h20v44z" />
  </g>

</svg>
