<?xml version="1.0" standalone="no"?>
<!DOCTYPE svg PUBLIC "-//W3C//DTD SVG 1.1//EN" "http://www.w3.org/Graphics/SVG/1.1/DTD/svg11.dtd" >
<svg xmlns="http://www.w3.org/2000/svg" xmlns:xlink="http://www.w3.org/1999/xlink" version="1.1" viewBox="0 0 2048 2048">
  <g transform="matrix(1 0 0 -1 0 2048)">
   <path fill="currentColor"
d="M155 1729l105 -65h403l68 76l82 -56l30 -20q12 -13 12 -27q-1 -14 -11 -25q-10 -10 -31 -21l-33 -17v-940q0 -32 4 -114q5 -81 8 -112q3 -32 3 -47q-1 -10 -5 -19q-3 -8 -14 -14q-10 -7 -30 -8q-21 -2 -34 3q-12 5 -20 15q-8 11 -8 23v70h-436v-63q0 -12 -8 -22
q-9 -11 -22 -18q-14 -6 -36 -4q-12 0 -22 5q-9 5 -14 17q-5 11 -5 27q0 10 3 41q4 32 8 98q3 67 3 91v1126zM248 488h169v543h-169v-543zM512 1031v-543h172v543h-172zM512 1606v-519h172v519h-172zM248 1087h169v519h-169v-519zM974 1559l-39 86q26 -4 53 -7q26 -4 40 -6
q14 -1 44 -2q31 -2 51 -2l181 -2v122q0 8 -2 74q-3 67 -4 73l-3 13l109 -26q59 -15 72 -22q12 -6 13 -20t-12 -26q-13 -11 -36 -17l-41 -12v-159h191l98 102l121 -107q10 -10 14 -15q5 -6 1 -19q-4 -12 -10 -14t-16 -2l-399 -1v-264h297l99 102l120 -107q11 -11 15 -17
q4 -5 1 -17q-4 -11 -12 -15q-7 -3 -14 -3l-324 -1l1 -228q0 -46 17 -64q17 -19 56 -22q39 -4 69 -4q34 -1 62 2t59 10q31 6 44 6q17 -1 30 -9q14 -8 22 -26q9 -18 -2 -37q-10 -16 -31 -22q-21 -5 -78 -7l-79 -6q-13 -1 -29 0q-43 1 -97 7q-54 5 -82 24q-29 19 -43 51t-14 63
v262h-250l-17 -83q-9 -42 -30 -101t-63 -116t-103 -100q-60 -42 -114 -68l-26 -13l-20 33l51 35q25 18 65 55t74 92q35 54 50 104q14 49 26 116l8 46h-118q-30 0 -71 -3l-27 -2q-24 -2 -26 -2l-24 -3l-40 85q27 -4 54 -7q28 -4 40 -5t44 -3t50 -2h284v264h-181q-34 0 -65 -2
l-45 -4q-13 -1 -15 -1zM963 504l-39 86q26 -5 44 -7q17 -2 43 -4l51 -4q36 -4 50 -3l192 1v132l-4 122q0 20 -1 25l-3 13l109 -24q49 -11 67 -21q17 -9 18 -23q2 -14 -12 -25q-13 -11 -37 -18l-41 -12v-169h218l98 101l121 -107q10 -10 14 -15q4 -6 1 -18q-4 -11 -12 -15
q-7 -4 -13 -4h-427v-343h347l99 101l120 -107q10 -10 14 -16q5 -5 2 -17q-3 -11 -11 -15t-15 -4h-995q-27 0 -57 -2q-31 -3 -42 -4t-25 -2l-24 -3l-39 86q26 -5 44 -7q17 -2 43 -4l51 -4q35 -4 49 -3l343 1v343h-192q-28 0 -58 -3q-31 -2 -42 -3t-25 -2z" />
  </g>

</svg>
