<?xml version="1.0" standalone="no"?>
<!DOCTYPE svg PUBLIC "-//W3C//DTD SVG 1.1//EN" "http://www.w3.org/Graphics/SVG/1.1/DTD/svg11.dtd" >
<svg xmlns="http://www.w3.org/2000/svg" xmlns:xlink="http://www.w3.org/1999/xlink" version="1.1" viewBox="0 -205 1024 1024">
  <g transform="matrix(1 0 0 -1 0 819)">
   <path fill="currentColor"
d="M874 940l56 -46q6 -3 6 -6q0 -6 -32 -24v-204l4 -88q0 -12 -20 -26q-19 -12 -34 -12v30h-194v-302l128 64l12 -16q-139 -85 -164 -130l-54 44q20 11 28 26v686l54 -34h178l32 38v0v0zM660 588h194v130h-194v-130v0v0zM660 742h194v136h-194v-136v0v0zM976 498q7 -3 6 -12
q-3 -7 -14 -4q-15 0 -38 -14q-55 -30 -94 -66q45 -43 60 -62q16 -19 26 -44q9 -25 0 -46q-7 -20 -28 -18q-21 -1 -32 38q-10 36 -46 88q-33 50 -114 128l12 10q57 -39 102 -80q55 56 110 116l50 -34v0v0zM412 878q75 -52 96 -82t18 -54q-1 -25 -16 -34q-13 -7 -28 -4
q-13 2 -16 32q-1 27 -16 58q-12 29 -48 74l10 10v0v0zM344 560h104l32 38l48 -36q12 -6 12 -14q0 -3 -32 -24v-320q24 -23 64 -52q40 -27 86 -39q45 -9 138 -6q45 -1 202 12v-20q-36 -5 -56 -16q-18 -9 -24 -30q-222 0 -272 18q-47 16 -82 50q-33 32 -48 45q-16 12 -28 12
q-13 0 -28 -18q-15 -17 -54 -81l-52 38q72 54 106 87v332h-50q-27 0 -48 -8l-18 32v0v0zM100 938l52 -32h152l26 34l54 -38q7 -4 2 -14l-26 -18v-162l4 -64q0 -18 -12 -30q-13 -10 -40 -8v34h-54v-190h46l32 44l58 -56q9 -9 -2 -14h-134v-212l148 42l6 -20
q-258 -87 -290 -105q-30 -20 -50 -44l-46 63l60 18v374l72 -32q9 -6 0 -14l-24 -14v-302l76 20v442h-64v-12q0 -9 -14 -18q-15 -8 -36 -10l4 82v256v0v0zM146 666h166v214h-166v-214v0v0z" />
  </g>

</svg>
