<?xml version="1.0" standalone="no"?>
<!DOCTYPE svg PUBLIC "-//W3C//DTD SVG 1.1//EN" "http://www.w3.org/Graphics/SVG/1.1/DTD/svg11.dtd" >
<svg xmlns="http://www.w3.org/2000/svg" xmlns:xlink="http://www.w3.org/1999/xlink" version="1.1" viewBox="0 -205 1024 1024">
  <g transform="matrix(1 0 0 -1 0 819)">
   <path fill="currentColor"
d="M420 796l44 -34h378l28 34l46 -28q12 -6 12 -14q0 -6 -26 -26v-162l4 -78q0 -15 -20 -26q-18 -12 -32 -12v30h-386v-12q-3 -8 -18 -16q-16 -7 -34 -8l4 110v242v0v0zM468 504h386v234h-386v-234v0v0zM548 714l42 -28h126l26 28l38 -28q9 -3 10 -12q0 -3 -20 -20v-94
q-1 -4 -10 -10q-13 -10 -34 -10v28h-134q0 -30 -8 -36q-15 -10 -36 -10v192v0v0zM592 592h134v70h-134v-70v0v0zM470 442l54 -32h260l24 34l50 -30q9 -6 10 -14q1 -6 -22 -26v-140l4 -78q0 -11 -20 -19q-18 -9 -32 -10v35h-280v-12q1 -15 -16 -21q-18 -7 -36 -8l4 95v226v0
v0zM518 186h280v86h-280v-86v0v0zM518 296h280v90h-280v-90v0v0zM364 87h514l36 52l66 -60q3 -1 4 -8q0 -9 -12 -10h-528q-16 1 -64 -8l-16 34v0v0zM868 854l34 50l64 -54q3 -4 4 -10q0 -10 -12 -10h-496q-21 0 -68 -8l-16 32h490v0v0zM582 968l6 12q41 -11 74 -28
q29 -18 38 -36t0 -36q-7 -18 -26 -18q-18 0 -24 22q-5 21 -22 42q-16 21 -46 42v0v0zM128 952l44 -46h100l30 38l54 -42q9 -6 10 -12q-1 -6 -34 -24v-726q3 -41 -8 -67q-9 -26 -62 -44q-4 26 -26 40q-22 16 -82 34l6 18q62 -15 82 -18q20 -1 32 6q12 6 10 31v282h-108
q-4 -75 -16 -150q-12 -73 -42 -137t-86 -116l-12 10q49 76 68 131q18 55 30 146q12 90 10 240v406v0v0zM178 448h106v206h-106v-206v0v0v0zM178 680h106v196h-106v-196v0v0z" />
  </g>

</svg>
