<?xml version="1.0" standalone="no"?>
<!DOCTYPE svg PUBLIC "-//W3C//DTD SVG 1.1//EN" "http://www.w3.org/Graphics/SVG/1.1/DTD/svg11.dtd" >
<svg xmlns="http://www.w3.org/2000/svg" xmlns:xlink="http://www.w3.org/1999/xlink" version="1.1" viewBox="0 -36 256 256">
  <g transform="matrix(1 0 0 -1 0 220)">
   <path fill="currentColor"
d="M111 228h102l7 11l15 -13l-7 -6q0 -28 1 -35l-13 -5v10h-106q2 -69 -5.5 -106.5t-32.5 -71.5l-3 2q19 32 24.5 69t5 85t-1.5 69zM110 197h106v24h-106v-24zM182 127q0 -8 1 -13l-14 -6q1 11 1 62q0 9 -1 14l21 -7l-8 -8v-42zM129 76q11 -7 11.5 -10.5t-1 -7.5t-4 -6.5
t-4.5 4.5t-5 16q-9 -10 -21 -21l-3 3q10 11 18.5 27t14.5 38l15 -12q-7 -5 -9 -10h15l7 6l11 -12l-7 -5q-8 -30 -26.5 -49t-43.5 -25l-1 2q23 13 37 30t22 46h-18q-4 -8 -8 -14zM177 87l16 -7l-4 -5l-6 -16h20v31h-8q-8 -1 -16 -3l-6 10h30q0 12 -1 25l19 -9l-6 -8v-8h4l9 9
l13 -16h-26v-31h11l9 10l13 -17h-33q0 -26 1 -38l-14 -4q1 10 1 42h-20l-7 -5l-11 10l5 4q7 12 7 26zM12 207v5q19 4 38.5 13t30.5 18l12 -19q-7 0 -30 -7v-47h10l11 11l13 -18h-34v-26q21 -8 25 -16.5t0 -18.5t-9.5 4.5t-15.5 25.5q0 -96 1 -113l-14 -9q1 44 1 118
q-17 -40 -44 -71l-2 3q31 54 44 103h-16q-10 -2 -19 -4l-6 11h43v44q-11 -2 -39 -7zM156.5 163q6.5 -5 4 -12t-6 -5.5t-8 7t-23.5 17.5l1 2q26 -4 32.5 -9zM190 145q31 -5 39 -9t7.5 -12t-3.5 -9.5t-10.5 7t-34.5 20.5zM235 167q-9 -2 -18 -6.5t-27 -12.5l-3 3q12 7 21 15
t14 13zM173 139q-28 -8 -45 -23l-13 15q31 5 58 13v-5z" />
  </g>

</svg>
