<?xml version="1.0" standalone="no"?>
<!DOCTYPE svg PUBLIC "-//W3C//DTD SVG 1.1//EN" "http://www.w3.org/Graphics/SVG/1.1/DTD/svg11.dtd" >
<svg xmlns="http://www.w3.org/2000/svg" xmlns:xlink="http://www.w3.org/1999/xlink" version="1.1" viewBox="0 -205 1024 1024">
  <g transform="matrix(1 0 0 -1 0 819)">
   <path fill="currentColor"
d="M104 954l52 -34h258l26 30l58 -40q3 -3 4 -6q1 -7 -28 -26v-302q0 -18 -8 -24q-6 -8 -42 -16v32h-112v-106h120l34 44l58 -52q7 -9 2 -14l-6 -4h-208v-58q68 -20 112 -40q42 -19 64 -40q21 -22 18 -44t-24 -28q-19 -4 -34 20t-44 52q-30 24 -92 60v-184l4 -89
q0 -17 -18 -28q-19 -12 -38 -12l4 127v202q-48 -70 -104 -134q-54 -62 -120 -109l-10 11q51 59 100 116q45 57 114 178h-124q-33 1 -60 -10l-24 36h228v106h-110v-8q-1 -15 -10 -20q-11 -10 -40 -10v424v0v0zM154 594h110v138h-110v-138v0v0zM312 732v-138h112v138h-112v0v0
zM154 758h110v136h-110v-136v0v0zM312 894v-136h112v136h-112v0v0zM560 798l58 -40h52l32 138h-102q-32 -3 -46 -12l-34 38h364l36 48l62 -56q12 -12 -8 -18h-208l-72 -138h158l24 38l66 -44l4 -8q0 -6 -32 -30v-368l4 -84q0 -15 -18 -24q-15 -8 -36 -10v38h-252v-18
q-1 -15 -22 -24q-20 -7 -34 -8l4 116v466v0v0zM612 292h252v136h-252v-136v0v0zM612 454h252v124h-252v-124v0v0zM612 604h252v128h-252v-128v0v0zM386 45q153 87 268 185l58 -42q9 -7 -2 -16q-28 0 -40 -6q-12 -7 -68 -35q-54 -31 -206 -102l-10 16v0v0zM766 210l8 16
q81 -28 136 -58q54 -29 70 -55q16 -27 8 -46q-6 -19 -24 -20q-15 0 -30 24q-15 21 -54 60q-39 37 -114 79v0v0z" />
  </g>

</svg>
