<?xml version="1.0" standalone="no"?>
<!DOCTYPE svg PUBLIC "-//W3C//DTD SVG 1.1//EN" "http://www.w3.org/Graphics/SVG/1.1/DTD/svg11.dtd" >
<svg xmlns="http://www.w3.org/2000/svg" xmlns:xlink="http://www.w3.org/1999/xlink" version="1.1" viewBox="0 -205 1024 1024">
  <g transform="matrix(1 0 0 -1 0 819)">
   <path fill="currentColor"
d="M764 928q9 -12 -2 -18q-19 -4 -28 -14q-7 -7 -34 -38h98l28 30q59 -45 62 -44q10 -9 0 -20l-20 -4q-22 -7 -46 -34t-44 -56h100l28 26l44 -30q8 -2 8 -10q1 -3 -16 -24v-94l4 -34q0 -12 -14 -24q-15 -9 -36 -12v24h-138q-17 -31 -52 -70q26 -24 50 -50q21 -28 34 -58
q47 45 116 132q57 -39 60 -48q2 -7 -4 -10q-6 -1 -20 -2q-16 -1 -34 -14q-16 -12 -50 -36q29 -94 46 -130q18 -34 42 -62q24 -26 54 -40l-2 -16q-19 3 -38 0q-18 -4 -36 -19q-24 34 -36 67q-11 30 -22 66q-10 36 -28 120l-38 -30q34 -71 32 -154q-3 -87 -36 -123
q-31 -32 -74 -50q-12 33 -50 48q-37 16 -70 26l4 18q44 -12 86 -18t58 8q15 12 24 37q6 27 10 72q3 44 -12 98q-49 -55 -130 -110q-79 -55 -158 -85l-6 14q74 44 152 105q75 60 126 124q-5 18 -16 34q-72 -53 -116 -82q-46 -27 -106 -60l-8 14l108 80q51 40 100 86
q-13 17 -28 34q-51 -42 -90 -66q-37 -21 -94 -48l-8 14q56 29 116 80q59 50 92 104h-76v-4q-1 -12 -16 -20q-14 -8 -34 -10l4 60v138q-24 -24 -60 -54l-10 10q63 77 108 146q45 66 82 144l60 -34v0v0zM630 578h86q17 51 26 126h-112v-126v0v0zM792 704q-9 -72 -26 -126h130
v126h-104v0v0zM606 742l12 -12h128l58 104h-118q-28 -34 -80 -92v0v0v0zM506 942q56 -47 56 -52q0 -6 -6 -8q-7 -3 -16 -6q-7 -1 -26 -20q-18 -17 -86 -112q21 -21 24 -44q2 -24 -10 -36q-11 -13 -28 -10q-18 2 -20 26q-1 21 -20 54q-18 29 -72 74l8 12q35 -17 62 -34
q27 -15 42 -30l60 126h-148q-15 0 -36 -8l-22 36h210l28 32v0v0zM256 628h234l22 24q51 -45 52 -50q0 -3 -2 -6q-3 -4 -20 -10q-15 -6 -36 -30q-19 -24 -40 -54l-16 6l40 92h-62v-463q2 -57 -22 -78q-22 -21 -50 -24q-3 21 -24 32q-19 10 -70 28l4 18q77 -16 98 -8
q21 7 16 41v454h-52q-23 0 -52 -6l-20 34v0v0zM24 744h130v230l84 -30q11 -7 2 -16l-38 -18v-166h36l28 36l44 -44q2 -4 2 -8q3 -12 -8 -12h-102v-116q44 -21 70 -42t32 -42q7 -21 -4 -36q-9 -15 -24 -12t-20 28q-6 23 -18 46q-12 21 -36 36v-424l4 -87q0 -15 -20 -28
q-18 -15 -36 -16l4 133v380q-15 -52 -50 -128q-34 -76 -76 -136l-12 8q30 63 52 118q21 55 42 128q22 71 44 190h-58q-21 0 -50 -8l-22 36v0v0z" />
  </g>

</svg>
