<?xml version="1.0" standalone="no"?>
<!DOCTYPE svg PUBLIC "-//W3C//DTD SVG 1.1//EN" "http://www.w3.org/Graphics/SVG/1.1/DTD/svg11.dtd" >
<svg xmlns="http://www.w3.org/2000/svg" xmlns:xlink="http://www.w3.org/1999/xlink" version="1.1" viewBox="0 -36 256 256">
  <g transform="matrix(1 0 0 -1 0 220)">
   <path fill="currentColor"
d="M69 232l-10 -4q-21 -21 -50 -39l-2 3q36 28 45 53zM29 151l-8 17q6 0 21 13.5t25 31.5l15 -11q-10 -5 -21 -14.5t-26 -20.5l64 2q-5 9 -12 18l3 2q27 -18 26 -27t-5.5 -13t-6 0.5l-4.5 13.5q-63 -5 -71 -12zM16 36l-10 15q9 2 43 27v50h-12q-10 0 -19 -2l-9 9h39l8 9
l12 -13l-7 -4v-92q0 -19 -16 -28q-5 13 -22 19v4q10 -2 18 -2t8 11v33q-22 -20 -33 -36zM76 38l-12 14q13 7 42 27v49h-8q-10 0 -19 -2l-9 9h35l6 8l13 -11l-6 -6v-90q0 -20 -16 -28q-3 7 -7 10.5t-16 6.5v4q19 0 23.5 0.5t3.5 10.5v33q-21 -16 -30 -35zM97 93.5
q0 -7.5 -4 -12.5t-6.5 3.5t-16.5 28.5l3 2q24 -14 24 -21.5zM35 99.5q6 -7.5 0 -17t-7.5 -0.5t-15.5 32l2 3q15 -10 21 -17.5zM123.5 209.5q-0.5 -11.5 -3 -15.5t-9 7.5t-33.5 37.5l1 4q45 -22 44.5 -33.5zM171 85q2 15 3 31l18 -10l-6 -5l-3 -16h29q-5 16 -16 27l1 3
q11 -4 21 -11t-3 -19h8l11 11l13 -18h-55q10 -22 25 -36.5t29 -16.5v-4q-11 -1 -15 -12q-14 10 -26.5 27.5t-16.5 41.5h-6q-10 -34 -28 -49t-36 -19l-2 3q16 8 30 21t23 44h-14q-10 0 -19 -2l-8 9h43zM137 170.5q0 37.5 -1 53.5l14 -8h14q9 21 10 31l15 -9q-6 -5 -10.5 -10
t-8.5 -12h43l8 10l14 -11l-7 -7v-67q0 -11 1 -26l-14 -5v8h-65v-7l-14 -5q1 27 1 64.5zM150 187h65v22h-65v-22zM150 156h65v24h-65v-24zM150 125h65v24h-65v-24z" />
  </g>

</svg>
