<?xml version="1.0" standalone="no"?>
<!DOCTYPE svg PUBLIC "-//W3C//DTD SVG 1.1//EN" "http://www.w3.org/Graphics/SVG/1.1/DTD/svg11.dtd" >
<svg xmlns="http://www.w3.org/2000/svg" xmlns:xlink="http://www.w3.org/1999/xlink" version="1.1" viewBox="0 -205 1024 1024">
  <g transform="matrix(1 0 0 -1 0 819)">
   <path fill="currentColor"
d="M802 868v-236h58l34 40l62 -52q2 -4 2 -8q0 -9 -8 -8h-148v-284h78l34 36l60 -48q2 -4 2 -8q0 -9 -8 -8h-302l-30 -28l-48 42q26 17 26 38v370l84 -32q3 -4 4 -8q1 -6 -40 -20v-334h94v536q-103 -24 -178 -36l-6 18q240 69 348 120q45 -54 46 -60t-4 -6q-3 -2 -18 0
q-13 3 -40 -2q-27 -4 -102 -22v0v0zM508 914l44 -40q9 -6 10 -12q1 -9 -34 -26l-108 -276h80l24 28l50 -36q6 -4 6 -10q-1 -9 -28 -20q-19 -157 -76 -268q44 -63 122 -102q78 -38 274 -33l138 8v-20q-27 0 -48 -10q-21 -12 -36 -36q-145 4 -226 16q-81 13 -140 50
q-57 34 -102 97q-60 -104 -218 -205l-10 14q150 120 204 225q-56 92 -76 194l16 2q33 -93 76 -162q38 89 56 242h-84l-26 -26l-52 44l38 20l102 280h-114q-14 0 -40 -8l-18 34h164l32 36v0v0zM20 742h166v232l82 -30q9 -5 4 -10q-4 -5 -40 -22v-170h64l34 40l54 -52
q8 -14 -10 -16h-142v-178l120 68l10 -16l-130 -90v-379q3 -36 -14 -60q-15 -23 -60 -38q-4 36 -34 50q-29 15 -82 30l4 18q96 -24 118 -18q21 6 22 32v333q-67 -43 -88 -64q-21 -18 -32 -44l-50 54l170 102v200h-90q-34 -1 -52 -10l-24 38v0v0z" />
  </g>

</svg>
