<?xml version="1.0" standalone="no"?>
<!DOCTYPE svg PUBLIC "-//W3C//DTD SVG 1.1//EN" "http://www.w3.org/Graphics/SVG/1.1/DTD/svg11.dtd" >
<svg xmlns="http://www.w3.org/2000/svg" xmlns:xlink="http://www.w3.org/1999/xlink" version="1.1" viewBox="0 -36 256 256">
  <g transform="matrix(1 0 0 -1 0 220)">
   <path fill="currentColor"
d="M165 223q-28 -3 -65 -4v4q43 4 77 10.5t47 12.5l12 -16q-15 0 -58 -6v-119h-13v118zM131 192q12 -3 22 -7t8.5 -15t-10.5 -1t-22 19q-12 -18 -31 -25l-1 3q16 14 21.5 26t7.5 25l18 -9l-7 -3q-1 -5 -6 -13zM131 145q10 -2 19.5 -6t8.5 -15t-9.5 -1.5t-20.5 18.5
q-14 -17 -34 -23l-1 3q16 10 23 23t9 26l18 -9l-7 -3q-1 -5 -6 -13zM212 194q13 -3 23 -7t8.5 -15t-10.5 -1t-23 18q-13 -16 -29 -22l-1 3q12 9 19 22.5t9 26.5l18 -9l-8 -3q-1 -5 -6 -13zM213 148q12 -3 21 -7t8 -15t-9.5 -1t-21.5 18q-8 -16 -29 -24l-1 3q13 10 19.5 24
t8.5 27l17 -9l-8 -3q0 -5 -5 -13zM216 112l13 10l16 -17h-98q-5 -11 -15 -27h70l11 11l17 -18h-49v-44h34l11 13l19 -20h-114q-10 0 -19 -2l-9 9h64v44h-38q-23 -32 -53 -50l-2 4q38 32 58 80q-20 0 -28 -3l-9 10h121zM28 55l-7 -8l-10 11l6 6v128l19 -8l-6 -10v-112h16
q0 162 -1 179l20 -10l-6 -7v-162h17q0 109 -1 129l18 -11l-4 -7v-66q0 -30 1 -58l-14 -8v14h-48z" />
  </g>

</svg>
