<?xml version="1.0" standalone="no"?>
<!DOCTYPE svg PUBLIC "-//W3C//DTD SVG 1.1//EN" "http://www.w3.org/Graphics/SVG/1.1/DTD/svg11.dtd" >
<svg xmlns="http://www.w3.org/2000/svg" xmlns:xlink="http://www.w3.org/1999/xlink" version="1.1" viewBox="0 -36 256 256">
  <g transform="matrix(1 0 0 -1 0 220)">
   <path fill="currentColor"
d="M120 247q46 -19 20 -39h64l14 13l19 -20h-181v-82q0 -60 -45 -111l-3 2q33 46 33 114v46q0 26 -1 49l21 -11h74q-1 17 -17 37zM161 73l3 -1q-2 -29 0 -54q-26 15 -38 37t-14 57h-25v-65l30 14l2 -4q-38 -28 -41 -36l-11 15q7 7 6 16v92q0 13 -1 27l12 -8q15 3 34 9t28 13
l12 -21l-10 3l-25 -6q0 -22 1 -42h19l10 12l14 -19h-42q3 -52 27 -65zM110 159l-23 -3v-37h24q-1 20 -1 40zM174 183l22 -12l-8 -8v-117q2 -13 14 -13h11q9 -1 11.5 3.5t3.5 39.5h5q0 -39 13 -42q-6 -12 -23 -14h-23q-27 0 -26 30v133z" />
  </g>

</svg>
