<?xml version="1.0" standalone="no"?>
<!DOCTYPE svg PUBLIC "-//W3C//DTD SVG 1.1//EN" "http://www.w3.org/Graphics/SVG/1.1/DTD/svg11.dtd" >
<svg xmlns="http://www.w3.org/2000/svg" xmlns:xlink="http://www.w3.org/1999/xlink" version="1.1" viewBox="0 -36 256 256">
  <g transform="matrix(1 0 0 -1 0 220)">
   <path fill="currentColor"
d="M213.5 38.5q17.5 -9.5 15 -24t-14 1t-58.5 40.5l2 4q38 -12 55.5 -21.5zM160 165l24 -11l-9 -8v-19h32l12 13l17 -20h-61v-48h43l13 13l18 -20h-214q-10 0 -19 -2l-9 9h73v48h-38q-4 0 -13 -2l-9 9h60q0 30 -1 38l25 -10l-10 -10v-18h67q0 30 -1 38zM94 72h67v48h-67v-48
zM111 47h-12q-58 -34 -84 -38l-1 3q68 34 79 54zM222 210h-181q0 -20 -8.5 -24.5t-14 0.5t5 12.5t12.5 30.5h5v-12h84q-1 8 -4.5 13t-13.5 13l2 4q24 -8 30 -15t-5 -15h86l9 8l16 -15q-12 -2 -31 -23l-3 2zM90 215h14q5 -51 -82 -59l-1 3q73 13 69 56zM167 215v-28
q0 -13 18 -11h4q26 0 31 4t11 -1t3.5 -9.5t-28.5 -5.5h-28q-24 -2 -24 23v28h13z" />
  </g>

</svg>
