<?xml version="1.0" standalone="no"?>
<!DOCTYPE svg PUBLIC "-//W3C//DTD SVG 1.1//EN" "http://www.w3.org/Graphics/SVG/1.1/DTD/svg11.dtd" >
<svg xmlns="http://www.w3.org/2000/svg" xmlns:xlink="http://www.w3.org/1999/xlink" version="1.1" viewBox="0 -205 1024 1024">
  <g transform="matrix(1 0 0 -1 0 819)">
   <path fill="currentColor"
d="M448 862v-148h90l34 42l52 -52q3 -4 4 -8q0 -9 -8 -8h-172v-152h396v152h-118q-22 0 -38 -8l-22 34h178v152h-128q-27 -3 -44 -8l-22 34h180l30 38l62 -42q6 -6 6 -12q0 -4 -32 -28v-282l4 -82q3 -18 -20 -32q-21 -15 -36 -14v70h-396v-42q0 -16 -18 -28q-19 -10 -38 -10
l4 128v364l50 -34q53 17 140 82q52 -46 50 -52q-3 -6 -8 -8h-24t-54 -12q-36 -13 -102 -34v0v0zM384 364h436l40 46l58 -52q3 -4 4 -10q1 -12 -16 -12h-234v-231h214l44 49l62 -55q3 -3 4 -10q0 -12 -14 -12h-594q-21 1 -66 -8l-18 36h314v231h-152q-22 0 -64 -8l-18 36v0v0
zM28 746h154v232l86 -32q9 -5 4 -10q-4 -5 -40 -22v-168h48l34 40l54 -52q8 -14 -10 -16h-126v-194l120 68l10 -16l-130 -90v-363q2 -36 -16 -60q-18 -23 -62 -38q-4 34 -34 50q-29 15 -82 30l4 18q96 -24 118 -18q21 6 22 32v315q-51 -33 -72 -54q-21 -18 -32 -42l-52 54
l156 92v216h-78q-34 -1 -52 -10l-24 38v0v0z" />
  </g>

</svg>
