<?xml version="1.0" standalone="no"?>
<!DOCTYPE svg PUBLIC "-//W3C//DTD SVG 1.1//EN" "http://www.w3.org/Graphics/SVG/1.1/DTD/svg11.dtd" >
<svg xmlns="http://www.w3.org/2000/svg" xmlns:xlink="http://www.w3.org/1999/xlink" version="1.1" viewBox="0 -205 1024 1024">
  <g transform="matrix(1 0 0 -1 0 819)">
   <path fill="currentColor"
d="M504 936l42 -28h322l26 32l50 -36q9 -3 10 -12q0 -5 -26 -22v-618q3 -30 -14 -60q-15 -27 -62 -42q-9 35 -38 50q-28 14 -88 32l4 18q77 -18 106 -20q29 -3 38 6q10 7 8 32v612h-332v-190q6 -289 -32 -388q-37 -99 -112 -159l-10 13q66 79 90 170q21 89 18 364v246v0v0z
M578 738h112v118l70 -22q3 -3 4 -6v-6l-28 -16v-68h42l28 30l46 -38q3 -3 4 -6q1 -12 -6 -12h-114v-104h50l28 34l52 -42q3 -3 4 -6q0 -12 -14 -12h-226q-18 -1 -48 -10l-18 36h126v104h-40q-34 0 -58 -8l-14 34v0v0zM614 540l50 -32h104l22 30l44 -30q12 -6 12 -14
q-1 -3 -28 -24v-90l4 -52q1 -13 -16 -22q-15 -9 -32 -12v40h-116v-20q-1 -13 -16 -22q-16 -10 -32 -10l4 70v188v0v0zM658 360h116v122h-116v-122v0v0zM60 792h176v186l76 -30q9 -4 6 -10t-8 -8l-26 -14v-124h78l30 44l56 -50q3 -3 4 -8q0 -12 -12 -12h-156v-168h108l36 44
l50 -50q3 -3 6 -8q0 -9 -12 -12h-352q-20 0 -70 -8l-14 34h200v168h-92q-21 0 -68 -8l-16 34v0v0zM304 508v-104h62l26 38l52 -46q6 -4 6 -10t-8 -8h-138v-237q43 -24 146 -36q102 -13 402 -2l152 16v-20q-45 -6 -60 -16q-15 -9 -24 -34q-123 -3 -282 0t-242 18
q-81 16 -138 64q-57 46 -110 139q-21 -90 -54 -147q-30 -60 -66 -102l-14 8q46 79 68 153q20 72 32 142q9 71 16 178l70 -28q16 -6 2 -18q-22 -10 -28 -28q-12 -94 -18 -128q53 -84 100 -126v388l78 -24q9 -7 4 -16l-34 -14v0v0z" />
  </g>

</svg>
