<?xml version="1.0" standalone="no"?>
<!DOCTYPE svg PUBLIC "-//W3C//DTD SVG 1.1//EN" "http://www.w3.org/Graphics/SVG/1.1/DTD/svg11.dtd" >
<svg xmlns="http://www.w3.org/2000/svg" xmlns:xlink="http://www.w3.org/1999/xlink" version="1.1" viewBox="0 -143 1024 1024">
  <g transform="matrix(1 0 0 -1 0 881)">
   <path fill="currentColor"
d="M317 950l53 -43q12 -9 2 -17l-30 -22l-39 -333h35l26 33l51 -39q7 -5 3 -15l-28 -21q-6 -180 -17 -251t-37.5 -108.5t-94.5 -63.5q-9 35 -33 48.5t-94 39.5l6 18q63 -18 105.5 -23.5t66 14.5t32 82t18.5 261h-210l-28 -30l-58 46l37 26q23 215 30 280l74 -30
q12 -10 -4 -15l-28 -14l-25 -238h125l40 357h-179q-25 1 -44 -10l-26 36h244zM305 404l7 -18q-152 -74 -189 -95.5t-56 -41.5l-37 58zM486 832l59 -32h136v184l67 -21q13 -4 13 -7q11 -6 -7 -14l-22 -14v-128h156l32 42l48 -48q16 -10 12 -18q0 -4 -15 -6q-40 -17 -57 -40
q-36 -42 -62 -71l-14 7l56 106h-156v-220h82l31 44l64 -48q4 -7 4 -10q-1 -7 -10 -11q-17 -9 -30 -21q-31 -98 -58 -160t-65 -110q48 -48 108 -80q82 -40 134 -44v-16q-26 -1 -50 -4.5t-46 -31.5q-40 28 -84 58t-92 82q-62 -66 -142 -108t-165 -69l-4 15q91 44 151 80
t134 114q-46 60 -69 120t-44 174h-46q-5 -198 -63 -314t-166 -188l-9 12q83 72 134 185t55 331v280zM603 526q25 -88 47 -142t68 -118q28 34 57 105t49 155h-221zM535 552h146v220h-146v-220z" />
  </g>

</svg>
