<?xml version="1.0" standalone="no"?>
<!DOCTYPE svg PUBLIC "-//W3C//DTD SVG 1.1//EN" "http://www.w3.org/Graphics/SVG/1.1/DTD/svg11.dtd" >
<svg xmlns="http://www.w3.org/2000/svg" xmlns:xlink="http://www.w3.org/1999/xlink" version="1.1" viewBox="0 -36 256 256">
  <g transform="matrix(1 0 0 -1 0 220)">
   <path fill="currentColor"
d="M126.5 63.5q10.5 -5.5 6.5 -16t-12.5 1.5t-25.5 23l2 2q19 -5 29.5 -10.5zM214 115l14 12l16 -19h-156l-6 -22h79l9 9l14 -14l-9 -6l-7 -38q-2 -11 7 -11h45q6 0 7.5 10t2.5 26h4q0 -20 3 -27.5t9 -9.5q-5 -7 -10 -9t-15 -2h-54q-14 0 -14 13l8 52h-81l-14 -48l81 10v-5
q-74 -14 -99 -24l-9 17l14 2l2 10q10 34 18 67h-27q-13 1 -24 -2l-9 9h201zM87 127l-15 -5q1 18 1 58q-21 -29 -56 -51l-3 3q37 34 55 69h-10q-13 1 -24 -2l-9 9h47q0 25 -1 38l23 -10l-9 -7v-21h15l10 11l16 -18h-41v-16q17 -6 24 -10.5t7.5 -11t-4 -10.5t-8.5 4.5
t-19 21.5q0 -39 1 -52zM145 201h57v23h-57v-23zM145 175h57v19h-57v-19zM145 145h57v23h-57v-23zM144 231h58l8 9l15 -14l-9 -7v-58q0 -18 1 -29l-15 -5v11h-57v-9l-14 -3q1 24 1 60.5t-1 53.5z" />
  </g>

</svg>
