<?xml version="1.0" standalone="no"?>
<!DOCTYPE svg PUBLIC "-//W3C//DTD SVG 1.1//EN" "http://www.w3.org/Graphics/SVG/1.1/DTD/svg11.dtd" >
<svg xmlns="http://www.w3.org/2000/svg" xmlns:xlink="http://www.w3.org/1999/xlink" version="1.1" viewBox="0 -36 256 256">
  <g transform="matrix(1 0 0 -1 0 220)">
   <path fill="currentColor"
d="M138 189l-7 -5v-5l34 4l10 9l15 -14l-59 -6v-9t12 -5h47q5 1 7.5 3.5t13.5 -6.5q-7 -8 -23 -7h-51q-19 0 -19 16v7l-27 -3q-14 -2 -17 -6l-9 10l53 6q0 9 -1 17h-59q0 -33 -1 -69.5t-13 -67t-34 -50.5l-3 2q17 20 26 49.5t10 75.5t0 77l18 -10h59q0 30 -1 45l22 -10
l-8 -7v-9h48l13 12l14 -19h-75v-12h82l9 9l14 -16q-14 -2 -29 -22l-3 1l9 21h-97zM214 51l14 11l16 -18h-130l13 -10q-11 -2 -28 -10t-44 -15l-1 3q40 17 58 32h-34q-14 1 -25 -2l-9 9h170zM211.5 28.5q9.5 -5.5 6.5 -15t-13.5 1t-40.5 27.5l1 2q37 -10 46.5 -15.5zM97 119
h40v11h-40v-11zM150 119h41v11h-41v-11zM97 100h40v12h-40v-12zM150 100h41v12h-41v-12zM85 117.5q0 14.5 -1 25.5l13 -6h93l8 8l13 -12l-8 -5v-16q0 -9 1 -18l-13 -5v4h-94v-2l-13 -4q1 16 1 30.5zM142 66h-32v-12l-13 -4q1 9 1 16h-15q-12 1 -21 -3l-6 10h42q0 12 -1 19
l18 -6l-5 -4v-9h10l10 6zM141 73h25q0 9 -1 18l19 -7l-5 -5v-6h19l11 7l14 -14h-44v-11l-13 -4v15h-8q-4 1 -10 -2z" />
  </g>

</svg>
