<?xml version="1.0" standalone="no"?>
<!DOCTYPE svg PUBLIC "-//W3C//DTD SVG 1.1//EN" "http://www.w3.org/Graphics/SVG/1.1/DTD/svg11.dtd" >
<svg xmlns="http://www.w3.org/2000/svg" xmlns:xlink="http://www.w3.org/1999/xlink" version="1.1" viewBox="0 -205 1048 1024">
  <g transform="matrix(1 0 0 -1 0 819)">
   <path fill="currentColor"
d="M968 471l-5 -16h-403q4 -10 1 -17t-20 -19q-16 -8 -25 2v46v204q-4 3 -55 -44l-9 10q86 105 115 200l36 -20q22 -11 22 -19q0 -10 -36 -17q-18 -31 -37 -57h139q14 41 30 100l31 -9q27 -8 27 -17t-31 -15l-37 -59h166l12 18q13 19 14 19q5 0 22 -14l37 -30l-5 -14h-232
v-68h112l16 22q12 17 15 17t15 -12l33 -35l-6 -14h-185v-59h101l20 24q11 16 15 16t18 -13l37 -34l-6 -15h-185v-55h162l18 21q13 15 15 15q1 0 15 -12zM680 635v68h-120v-68h120zM680 554v59h-120v-59h120zM680 477v55h-120v-55h120zM979 318l-5 -14h-401
q60 -73 170.5 -133.5t211.5 -74.5l-2 -11q-43 -2 -51 -19q2 -4 2 -7q0 -6 -8 -6q-13 0 -46 15q-210 101 -301 231v-208q2 -27 1 -32q-3 -9 -24 -13q-11 -5 -15 -5q-6 0 -6 11q0 -6 0 42v185q-159 -148 -422 -231l-9 13q115 40 217 106t158 137h-378v20h434v18l-8 56l52 -11
q32 -10 32 -19.5t-32 -20.5v-23h323l27 28q15 14 19 14q3 0 21 -15zM459 676l-5 -12h-159q-3 -18 -11 -34q93 -59 134 -161q1 -42 -21 -42q-16 0 -21 31q-62 131 -97 155q-27 -75 -78 -138q-60 -74 -132 -107l-9 9q77 41 130 132q48 82 60 155h-173v22h176q4 107 2 134h-80
q-30 -58 -53 -83l-10 6q20 33 40.5 101.5t27.5 132.5l45 -15q22 -7 22 -14q0 -8 -27 -13q-15 -55 -36 -94h170l21 27q10 15 16 15q4 0 18 -15l34 -36l-5 -12h-138q0 -93 -3 -134h79l17 25q7 15 14 15q-4 0 23 -16zM940 902l-2 -20h-112l1 -29q-1 -10 -15 -18q-12 -4 -16 -4
q-5 0 -6 14l1 37h-55v23h55v42l-3 35l38 -9q17 -8 17 -16t-17 -17v-35h47l15 31q9 15 11 15q3 0 13 -13zM726 901l-3 -19h-86q1 -22 1 -25q1 -16 -15 -24q-13 -2 -17 -2q-5 0 -6 4.5t-1 18.5l1 28h-141v23h141v43l-1 37l38 -9q18 -7 18 -17t-18 -21v-33h36l9 26q4 9 5 9
q3 0 10 -8z" />
  </g>

</svg>
