<?xml version="1.0" standalone="no"?>
<!DOCTYPE svg PUBLIC "-//W3C//DTD SVG 1.1//EN" "http://www.w3.org/Graphics/SVG/1.1/DTD/svg11.dtd" >
<svg xmlns="http://www.w3.org/2000/svg" xmlns:xlink="http://www.w3.org/1999/xlink" version="1.1" viewBox="0 -205 1024 1024">
  <g transform="matrix(1 0 0 -1 0 819)">
   <path fill="currentColor"
d="M336 968l52 -36h458l28 34l52 -34q12 -7 12 -14q0 -6 -32 -24v-94l4 -54q0 -12 -14 -20q-12 -7 -38 -10v30h-472v-8q0 -8 -18 -16t-36 -10l4 102v154v0v0zM384 770h126v138h-126v-138v0v0zM558 770h130v138h-130v-138v0v0zM736 770h122v138h-122v-138v0v0zM884 672l38 36
l60 -46l2 -6q0 -10 -8 -10h-618v-206q-3 -171 -42 -270q-36 -95 -126 -157l-10 12q57 52 96 149q36 95 34 266v266l54 -34h520v0v0zM456 590q3 -48 -2 -84q-3 -36 -24 -50q-21 -16 -36 -8q-16 8 -10 22q4 14 20 28q14 14 22 34q6 18 12 58h18v0v0zM520 632q70 -21 74 -26
q4 -6 0 -8q-3 -4 -30 -16q1 -7 -10 -56q44 26 94 74l38 -36q8 -6 2 -12q-13 -1 -26 -4q-11 -1 -22 -8q-12 -6 -90 -38q0 -15 -6 -20q65 -16 92 -28q24 -11 36 -28q9 -15 4 -30q-5 -16 -22 -16q-15 0 -30 24t-36 36q-19 12 -52 24q-12 -31 -48 -62q-37 -30 -110 -56l-6 14
q68 38 98 74q30 33 40 90q9 54 10 108v0v0zM436 318q3 -48 -2 -84q-3 -36 -24 -50q-21 -16 -36 -8t-12 22q4 12 20 28q15 14 24 34q6 18 12 58h18v0v0zM516 372q70 -21 74 -26q4 -6 0 -8q-3 -4 -30 -16q1 -7 -10 -68q33 18 102 66l38 -36q8 -6 2 -12l-24 -2q-10 0 -28 -6
q-19 -5 -94 -34q-4 -16 -10 -28q74 -25 100 -40q24 -16 36 -33q9 -17 4 -32t-22 -16q-15 0 -30 24q-16 25 -40 45q-23 21 -58 34q-17 -39 -64 -77q-48 -37 -144 -74l-6 14q93 50 138 95q44 45 56 112q9 63 10 118v0v0zM740 552l78 -30q4 -6 2 -8q1 -3 -34 -18v-206l4 -62
q-3 -16 -20 -28q-19 -12 -34 -12l4 98v266v0v0zM868 624l70 -24q6 -7 6 -10q1 -4 -34 -20v-453q3 -33 -14 -58q-15 -23 -54 -32q-9 33 -32 42l-78 26l4 18q60 -12 84 -16q21 -4 34 4q13 9 14 24v499v0v0zM142 418q-12 -38 -36 -40q-24 -3 -72 0l-2 -22q16 -2 50 -10
q33 -6 42 -20q8 -13 10 -50q3 -37 -6 -92q-10 -53 -8 -79q1 -26 20 -34q17 -7 32 4q12 12 16 38q3 24 -6 77q-10 53 -10 104q-1 50 2 68q2 15 10 52l84 440l-22 4l-104 -440v0v0zM70 936l10 12q57 -27 90 -48q29 -18 38 -42q7 -21 -4 -38q-9 -19 -26 -16q-16 0 -22 22
q-7 21 -22 46q-13 24 -64 64v0v0zM30 706l8 12q58 -24 86 -42q26 -18 32 -42q7 -23 -4 -40q-11 -18 -28 -14q-15 4 -20 26t-16 44t-58 56v0v0z" />
  </g>

</svg>
