<?xml version="1.0" standalone="no"?>
<!DOCTYPE svg PUBLIC "-//W3C//DTD SVG 1.1//EN" "http://www.w3.org/Graphics/SVG/1.1/DTD/svg11.dtd" >
<svg xmlns="http://www.w3.org/2000/svg" xmlns:xlink="http://www.w3.org/1999/xlink" version="1.1" viewBox="0 -205 1024 1024">
  <g transform="matrix(1 0 0 -1 0 819)">
   <path fill="currentColor"
d="M438 868h106v116l66 -24q12 -3 12 -12q1 -1 -34 -16v-64h20l22 28l48 -38q2 -3 2 -6q0 -10 -8 -10h-84q-3 -30 -6 -78h34l24 30l50 -40q3 -15 -8 -14h-104l-4 -24q48 -18 72 -36q21 -16 30 -34q6 -15 0 -30q-7 -12 -20 -12q-12 -1 -30 34q-17 36 -58 60q-12 -37 -38 -70
q-25 -34 -100 -76l-8 12q57 45 82 88q25 42 32 88q-54 0 -62 -2q-6 0 -24 -6l-16 32h106q2 47 2 80h-2q-42 0 -56 -2q-12 -3 -30 -6l-16 32v0v0zM692 864h84v116l64 -22q12 -3 12 -12q0 -1 -32 -14v-68h56l26 30q48 -39 52 -48q0 -7 -8 -8h-126q-1 -27 -8 -74h86l24 30
l54 -42q3 -9 -6 -12h-140q21 -39 48 -72q27 -30 60 -42q33 -9 66 -12v-16q-41 1 -52 -6q-10 -7 -26 -22q-25 21 -46 42q-18 21 -36 48q-18 29 -36 80q-13 -62 -46 -100t-98 -70l-8 10q51 38 78 76q23 39 32 84q-25 0 -34 -2q-6 0 -24 -6l-16 32h78q3 41 6 76h-2
q-21 0 -36 -2q-12 -3 -30 -6l-16 32v0v0zM510 590l54 -28h260l30 30l46 -36q13 -9 2 -20l-22 -14v-166l4 -60q0 -12 -20 -24q-18 -8 -32 -10v30h-274v-18q-1 -9 -16 -18q-15 -10 -36 -10l4 78v266v0v0zM558 316h274v58h-274v-58v0v0zM558 398h274v56h-274v-56v0v0zM558 478
h274v58h-274v-58v0v0zM754 252l6 14q51 -18 96 -38q45 -21 60 -44q16 -24 8 -39q-7 -18 -22 -18q-16 1 -28 22q-12 20 -36 45q-24 24 -84 58v0v0zM596 284l54 -34q6 -9 -2 -12q-9 -3 -24 -6q-12 0 -48 -30q-36 -28 -134 -87l-10 12q106 82 164 157v0v0zM82 792h156v194
l74 -30q9 -4 6 -10t-8 -8l-26 -14v-132h50l30 38l56 -44q3 -3 4 -8q0 -12 -12 -12h-128v-160h60l34 38l52 -44q3 -3 6 -8q0 -9 -12 -12h-282q-20 0 -70 -8l-14 34h180v160h-72q-21 0 -68 -8l-16 34v0v0zM302 508v-104h62l26 38l52 -46q6 -4 6 -10t-8 -8h-138v-237
q45 -24 148 -36q102 -13 402 -2l152 16v-20q-45 -6 -60 -16q-15 -7 -24 -32q-123 -3 -282 0t-242 18q-81 15 -138 62q-57 46 -110 139q-21 -90 -54 -147q-30 -60 -66 -102l-12 8q46 79 68 153q20 72 32 142q9 71 16 178l68 -28q16 -6 2 -18q-22 -10 -28 -28
q-12 -94 -18 -128q53 -84 100 -126v388l76 -24q9 -7 4 -16l-34 -14v0v0z" />
  </g>

</svg>
