<?xml version="1.0" standalone="no"?>
<!DOCTYPE svg PUBLIC "-//W3C//DTD SVG 1.1//EN" "http://www.w3.org/Graphics/SVG/1.1/DTD/svg11.dtd" >
<svg xmlns="http://www.w3.org/2000/svg" xmlns:xlink="http://www.w3.org/1999/xlink" version="1.1" viewBox="0 -154 1024 1024">
  <g transform="matrix(1 0 0 -1 0 870)">
   <path fill="currentColor"
d="M465 977l92 -34q14 -5 6 -11q-19 -7 -31 -20v-88h315l37 45l76 -50q20 -15 -13 -15h-415v-154h253l33 45l76 -50q20 -15 -13 -15h-684q-27 1 -47 -13l-32 33h368v154h-363q-27 1 -47 -13l-32 33h442v98q2 16 -29 44zM457 273l5 -19l-226 -54q-82 -20 -102 -27
q-21 -7 -45 -31l-46 53l192 36v177h-110q-27 1 -45 -13l-34 33h189v101q2 17 -29 46l8 11l92 -34q14 -5 6 -11q-19 -7 -31 -20v-93h86l37 46l68 -52q20 -16 -11 -14h-180v-169zM683 575l92 -34q14 -5 6 -11q-19 -7 -31 -20v-79h114l37 42l68 -48q22 -16 -11 -14h-208v-185
h96l37 48l72 -54q22 -16 -11 -14h-349q-27 1 -45 -13l-34 33h188v185h-137q-27 1 -45 -13l-34 33h216v89q2 16 -29 44zM20 85h843l45 58l87 -63q20 -15 -13 -15h-883q-27 2 -47 -13z" />
  </g>

</svg>
