<?xml version="1.0" standalone="no"?>
<!DOCTYPE svg PUBLIC "-//W3C//DTD SVG 1.1//EN" "http://www.w3.org/Graphics/SVG/1.1/DTD/svg11.dtd" >
<svg xmlns="http://www.w3.org/2000/svg" xmlns:xlink="http://www.w3.org/1999/xlink" version="1.1" viewBox="0 -36 256 256">
  <g transform="matrix(1 0 0 -1 0 220)">
   <path fill="currentColor"
d="M81 14l-15 -7q1 32 1 84q-20 -35 -57 -62l-2 3q41 44 59 90v42h-24v-63l-15 -7q1 21 1 42t-1 43l15 -8h24v28h-28q-11 0 -20 -2l-9 9h57q0 22 -1 41l21 -9l-7 -7v-25h23l13 11l14 -18h-50v-28h21l8 9l13 -12l-7 -7v-46q0 -16 -15 -20q-3 10 -17 14v4q8 -1 13.5 -1t5.5 5
v47h-22v-67q26 -12 31 -20t0.5 -17t-11 5.5t-20.5 27.5v-35q0 -25 1 -44zM143 117h66v34h-66v-34zM131 170q0 42 -1 67l14 -9h64l9 9l13 -12l-7 -6v-83q0 -14 1 -30l-15 -5v9h-13v-68q0 -11 13 -11h12q9 0 10 9.5t2 30.5h4q0 -20 1.5 -29t9.5 -10q-4 -14 -24 -14h-19
q-22 -1 -22 19v73h-15q-2 -45 -18 -67t-51 -36l-2 3q25 15 40.5 35.5t17.5 64.5h-12v-6l-13 -5q1 29 1 71zM143 194h66v27h-66v-27zM143 158h66v29h-66v-29z" />
  </g>

</svg>
