<?xml version="1.0" standalone="no"?>
<!DOCTYPE svg PUBLIC "-//W3C//DTD SVG 1.1//EN" "http://www.w3.org/Graphics/SVG/1.1/DTD/svg11.dtd" >
<svg xmlns="http://www.w3.org/2000/svg" xmlns:xlink="http://www.w3.org/1999/xlink" version="1.1" viewBox="0 -204 1024 1024">
  <g transform="matrix(1 0 0 -1 0 820)">
   <path fill="currentColor"
d="M634 553v-130h142l34 38l45 -27q19 -11 19 -25q-1 -7 -5.5 -12.5t-32.5 -17.5v-107l24 -18q10 -8 10.5 -15.5t-15.5 -7.5h-221v-137h210l49 51l61 -54q5 -5 7 -7.5t0 -8.5q-3 -10 -13 -10h-764q-73 0 -96 -4l-19 45q47 -12 115 -12h207v137h-151v-4q0 -6 -6 -11.5t-21 -6
t-21 5.5q-8 7 -6 25l2 22v22l2 26l1 145l54 -32h146v130h-109q-47 0 -96 -4l-19 44q47 -12 115 -12h432l50 51l61 -54q9 -8 7 -16q-3 -9 -13 -9h-185zM586 553h-147v-130h147v130zM439 231v-137h147v137h-147zM391 395h-151v-135h151v135zM439 395v-135h147v135h-147z
M634 395v-135h153v135h-153zM31 540l-7 18q87 39 145 78l60 44q22 16 34 27q-6 1 -10.5 4.5t-15 16t-22 25t-32 26t-63.5 35.5l8 17q81 -28 113.5 -44t38.5 -30.5t6 -18.5l-1 -13q38 34 67.5 71t63.5 92h-159q-44 0 -74 -5l-20 42q55 -8 117 -8h136l27 31l37 -23
q10 -7 18 -15t8 -14q0 -18 -35 -23q-56 -76 -87.5 -114t-82 -76t-104.5 -69.5t-166 -73.5zM552 928q20 -31 68 -92q16 11 42.5 33.5t43 41t32.5 46.5l49 -32q21 -14 19 -24q-2 -8 -17 -9l-14 1h-22q-36 -26 -59 -40.5t-62 -33.5q38 -45 76 -75q29 13 58 34t44.5 35t35.5 43
l39 -26q27 -19 23.5 -28t-16.5 -11q-4 0 -31 4q-70 -42 -139 -67q82 -63 143.5 -92t129.5 -48v-20q-9 -2 -19.5 -3t-26 -4t-28.5 -21q-68 36 -116.5 70t-103.5 85t-86 94.5t-80 127.5z" />
  </g>

</svg>
