<?xml version="1.0" standalone="no"?>
<!DOCTYPE svg PUBLIC "-//W3C//DTD SVG 1.1//EN" "http://www.w3.org/Graphics/SVG/1.1/DTD/svg11.dtd" >
<svg xmlns="http://www.w3.org/2000/svg" xmlns:xlink="http://www.w3.org/1999/xlink" version="1.1" viewBox="0 -36 256 256">
  <g transform="matrix(1 0 0 -1 0 220)">
   <path fill="currentColor"
d="M154 244l24 -6l-8 -8v-21h27l12 12l19 -19h-58v-35h35l14 13l19 -20h-68q0 -46 1 -56l-17 -5q1 13 1 61h-57q-5 -23 -21.5 -38t-44.5 -25l-1 4q25 13 37 28.5t15 30.5h-33q-11 0 -20 -2l-9 9h63v35h-24q-10 0 -20 -2l-9 9h53q0 22 -1 34l24 -7l-8 -8v-19h56q0 20 -1 35z
M99 167h56v35h-56v-35zM119 76h-79q-10 0 -19 -2l-10 9h108q0 12 -1 39l23 -7l-7 -8v-24h77l14 14l21 -21h-112q0 -38 1 -60l-17 -8q1 25 1 68z" />
  </g>

</svg>
