<?xml version="1.0" standalone="no"?>
<!DOCTYPE svg PUBLIC "-//W3C//DTD SVG 1.1//EN" "http://www.w3.org/Graphics/SVG/1.1/DTD/svg11.dtd" >
<svg xmlns="http://www.w3.org/2000/svg" xmlns:xlink="http://www.w3.org/1999/xlink" version="1.1" viewBox="0 -143 1024 1024">
  <g transform="matrix(1 0 0 -1 0 881)">
   <path fill="currentColor"
d="M478 292h299l32 44l57 -50q4 -4 4 -8q0 -12 -12 -12h-308q-21 0 -57 -8zM773 953q3 -4 3 -6q-4 -7 -22.5 -10.5t-66.5 -88.5h161l28 36l51 -40q10 -5 10 -14q0 -4 -11 -12l-23 -15q-6 -131 -9 -178.5t-23.5 -76.5t-60.5 -44q-8 22 -26 38t-86 33l4 17q78 -18 101 -16
t32.5 18.5t10 47t4.5 181.5h-258v-365h309l28 38l54 -40q8 -6 6 -12q0 -7 -28 -24q-7 -206 -10 -254t-21 -82t-82 -62q-6 24 -25 39t-105 41l6 18q100 -20 127.5 -18t37.5 22.5t13 61.5t6 246h-306l-26 -41l-58 43l23 26v420l48 -32h71q32 90 42 138zM665 768
q65 -27 87 -42.5t25 -37.5t-8 -32t-25 -7t-20 21t-17 36t-49 50zM50 572h202v190h-168q-28 -4 -36 -8l-26 34h230v194l76 -26q10 -8 2 -16l-26 -12v-140h130l30 40l54 -50q6 -10 0 -16h-214v-190h81l27 34l57 -43q10 -8 -3 -16q-16 -9 -22 -15t-28.5 -60t-83.5 -157
q60 -51 95 -94t46 -73t0 -48t-29 -16t-25 22t-35 70t-80 104q-51 -75 -113.5 -131.5t-157.5 -107.5l-4 13q87 68 138 121t103 133q-93 85 -192 174l8 11q118 -70 208 -147q52 80 93 200h-269q-25 0 -43 -9z" />
  </g>

</svg>
