<?xml version="1.0" standalone="no"?>
<!DOCTYPE svg PUBLIC "-//W3C//DTD SVG 1.1//EN" "http://www.w3.org/Graphics/SVG/1.1/DTD/svg11.dtd" >
<svg xmlns="http://www.w3.org/2000/svg" xmlns:xlink="http://www.w3.org/1999/xlink" version="1.1" viewBox="0 -205 1024 1024">
  <g transform="matrix(1 0 0 -1 0 819)">
   <path fill="currentColor"
d="M154 612h164l38 48l42 -44q19 -15 14 -24q-3 -9 -8 -8h-134v-160h62l38 52l58 -58q9 -12 -6 -20h-152v-214l142 100l12 -14q-113 -100 -142 -130q-26 -28 -46 -65l-58 50q17 12 44 35v238h-70q-31 0 -58 -8l-18 34h146v160h-26l-24 -6l-18 34v0v0zM912 772l60 -52
q3 -3 4 -8q0 -7 -8 -8h-258q0 -117 10 -194q6 -78 46 -194q42 89 66 170q20 78 32 142l70 -40q9 -3 6 -12q0 -1 -12 -8q-21 -1 -30 -26q-9 -24 -36 -110q-28 -85 -74 -158q18 -33 36 -54q17 -21 32 -36t28 -26q12 -12 22 -8q7 2 14 34q5 30 22 114l20 -4q-10 -78 -8 -120
q0 -40 10 -63q7 -21 14 -30q5 -6 2 -16q-3 -7 -14 -8q-12 -1 -36 12q-24 12 -56 36q-33 24 -60 57q-28 32 -50 68q-52 -68 -124 -121q-72 -54 -150 -88l-8 16q63 33 138 102q75 65 118 129q-42 88 -60 194q-16 105 -16 240h-138v-472l124 96l14 -16q-90 -84 -120 -116
q-30 -33 -54 -73l-56 43l44 40v566l48 -40h136v232l82 -40q10 -10 0 -16l-32 -14v-162h172l30 42v0v0zM786 916q77 -23 98 -40t24 -34q3 -18 -6 -30q-8 -14 -22 -12t-22 22q-9 18 -24 36q-12 18 -54 46l6 12v0v0zM310 930q7 -3 8 -6q3 -9 -8 -14q-24 -6 -36 -30
q-38 -78 -52 -110h106l40 46l58 -58q2 -3 2 -6q0 -9 -6 -8h-212q-32 -71 -64 -130q-31 -60 -80 -122l-16 6q48 85 108 236q60 150 82 232l70 -36v0v0z" />
  </g>

</svg>
