<?xml version="1.0" standalone="no"?>
<!DOCTYPE svg PUBLIC "-//W3C//DTD SVG 1.1//EN" "http://www.w3.org/Graphics/SVG/1.1/DTD/svg11.dtd" >
<svg xmlns="http://www.w3.org/2000/svg" xmlns:xlink="http://www.w3.org/1999/xlink" version="1.1" viewBox="0 -144 1024 1024">
  <g transform="matrix(1 0 0 -1 0 880)">
   <path fill="currentColor"
d="M588 639l-3 -83l-6 -78l-10 -74l-12 -68l-16 -63l-19 -58l-22 -53l-26 -47l-30 -41l-32 -34l-7 6l23 40l21 43l18 46l16 52l13 56l11 62l8 66l6 71l2 76v81h65zM362 659l26 -5l17 -10l-17 -10v-560l-64 -32v530l-26 -54l-26 -48l-28 -47l-8 5l89 259l48 167l28 117l3 9
l60 -25l13 -14l-19 -6l-30 -97l-39 -112zM737 870l65 -32h83l32 27l60 -48l-27 -22v-688l-65 -32v64h-83v-64l-65 -32v827zM613 159l59 -24l-5 -13l-7 -12l-8 -10l-10 -10l-10 -8l-11 -6l-13 -5l-13 -4l-13 -2l-14 -1v32l-64 16v17h64h7l7 1l5 2l5 1l4 3l4 3l3 3l3 4l3 6z
M613 159l59 -24l8 24l6 32l5 40l3 48l4 56l2 65l2 74v82l1 91l-1 73l27 16l-59 48l-33 -26h-49v178l16 10l-16 11l-65 10v-209h-81v-22h81v-97h65v97h49v-43h1v-46v-90l-1 -82l-1 -73l-3 -64l-3 -55l-3 -46l-5 -36l-5 -27zM885 817h-83v-656h83v656zM24 850l64 -33h78l32 27
l59 -48l-27 -22v-523l-64 -32v64h-78v-64l-64 -32v663zM166 796h-78v-491h78v491z" />
  </g>

</svg>
