<?xml version="1.0" standalone="no"?>
<!DOCTYPE svg PUBLIC "-//W3C//DTD SVG 1.1//EN" "http://www.w3.org/Graphics/SVG/1.1/DTD/svg11.dtd" >
<svg xmlns="http://www.w3.org/2000/svg" xmlns:xlink="http://www.w3.org/1999/xlink" version="1.1" viewBox="0 -200 1000 1000">
  <g transform="matrix(1 0 0 -1 0 800)">
   <path fill="currentColor"
d="M681 872l27 55l-70 35q-6 -81 -19 -148t-31.5 -127t-41.5 -116t-49 -115l10 11q29 29 53.5 65.5t45.5 85t39.5 111t35.5 143.5zM767 957l-40 20q1 -65 9.5 -137.5t25 -143t42.5 -134.5t62 -113q20 11 40.5 20.5t32.5 9.5l16 2q-47 26 -82.5 76.5t-61 112t-41 128
t-21.5 125.5zM605 200q15 31 48 121.5t82 253.5l27 41l-68 38q-29 -185 -93 -396q-5 -28 -15 -43t-21.5 -22t-23 -8.5t-20.5 -2.5l30 -66l33 15q8 2 26 11.5t48 24t73 32.5t101 36q0 -2 3 -20.5t8 -39.5t11 -38.5t12 -17.5t12 7.5t11 18.5t8.5 24.5t3.5 25.5q0 25 -11 54.5
t-28.5 60.5t-39 61t-42.5 57l-4 5q23 -54 34 -100.5t18 -74.5q-26 -4 -53 -12.5t-55 -17.5t-56.5 -17t-58.5 -11zM133 529l63 -40h182l34 43l57 -52l-29 -33v-364q-1 -27 -16 -53.5t-40 -32.5q-1 8 -4.5 19t-12.5 22.5t-26 22t-45 18.5l2 10q15 -9 32.5 -10.5t29.5 -1.5h13
q11 0 13 9.5t2 19.5v79h-206v-155q-3 -12 -16.5 -21.5t-27.5 -9.5h-5v530zM182 208h206v119h-206v-119zM388 350v116h-194l-12 -26v-90h206zM197 675l-111 -75l-41 43l152 43v126h-62l-45 -13l-23 36h130v166l65 -32l-18 -67v-318q-11 -11 -21 -15t-26 -4v110zM381 570
q-41 0 -53 18.5t-13 52.5v360l65 -36l-16 -61v-125q43 51 64.5 90.5t34.5 64.5l41 -80l-35 -12l-105 -80v-96q0 -32 6 -38.5t18 -8.5h70q15 0 23.5 6t13 15t6 20t1.5 21q0 7 0.5 13.5t1.5 11.5l6 -15v-11q0 -29 8 -43t17.5 -20.5t17.5 -8t8 -4.5v-1q-2 -12 -9 -18.5t-17 -10
t-20.5 -4.5t-18.5 -1q-17 0 -18 1h-97z" />
  </g>

</svg>
