<?xml version="1.0" standalone="no"?>
<!DOCTYPE svg PUBLIC "-//W3C//DTD SVG 1.1//EN" "http://www.w3.org/Graphics/SVG/1.1/DTD/svg11.dtd" >
<svg xmlns="http://www.w3.org/2000/svg" xmlns:xlink="http://www.w3.org/1999/xlink" version="1.1" viewBox="0 -36 256 256">
  <g transform="matrix(1 0 0 -1 0 220)">
   <path fill="currentColor"
d="M109 246q27 -10 28 -17.5t-6 -14.5h83l9 10l17 -16q-17 -3 -35 -25l-3 2l11 22h-166q-1 -13 -4.5 -18.5t-10.5 -7.5t-11.5 1.5t6.5 13t16 29.5h4v-11h76q-2 16 -16 29zM97 204l15 -15l-11 -4q-40 -26 -73 -36l-1 4q48 24 70 51zM143 196l2 4q45 -16 58 -24t9.5 -19.5
t-16 3t-53.5 36.5zM139 171l-8 -6q18 -18 48.5 -29.5t65.5 -11.5v-5q-15 0 -18 -12q-29 5 -55 18.5t-45 35.5q-39 -45 -115 -59v5q36 8 66.5 28.5t44.5 47.5zM59 77l3 3q22 -11 30.5 -19.5t2.5 -20.5t-12 3.5t-24 33.5zM154 84h-100q-10 0 -19 -2l-10 9h129q0 10 -1 28
l24 -9l-8 -7v-12h24l14 13l19 -20h-57v-43q2 -27 -22 -32q-2 14 -35 21v5q42 -8 42 1v48z" />
  </g>

</svg>
