<?xml version="1.0" standalone="no"?>
<!DOCTYPE svg PUBLIC "-//W3C//DTD SVG 1.1//EN" "http://www.w3.org/Graphics/SVG/1.1/DTD/svg11.dtd" >
<svg xmlns="http://www.w3.org/2000/svg" xmlns:xlink="http://www.w3.org/1999/xlink" version="1.1" viewBox="0 -205 1024 1024">
  <g transform="matrix(1 0 0 -1 0 819)">
   <path fill="currentColor"
d="M492 970l64 -42h270l30 40l64 -44q6 -6 6 -8q0 -7 -30 -28v-416l4 -68q0 -20 -18 -28q-19 -8 -38 -10v54h-58v-264q0 -28 6 -35q3 -8 28 -8h72q21 0 28 18q3 15 6 29t6 122h20q0 -83 10 -112q9 -26 30 -35q-3 -21 -20 -42q-15 -20 -56 -26h-114q-36 0 -50 12
q-13 12 -16 56v285h-84q0 -102 -30 -180q-30 -77 -92 -127q-64 -47 -184 -86l-4 16q90 39 148 86q56 46 82 113q26 65 28 178h-54v-38q-4 -12 -26 -20q-19 -9 -32 -8l4 86v530v0v0zM544 446h300v132h-300v-132v0v0zM544 606h300v132h-300v-132v0v0zM544 764h300v138h-300
v-138v0v0zM130 978l60 -46h138l30 38l52 -42q9 -6 10 -12q-1 -6 -34 -24v-722q3 -41 -8 -67q-9 -26 -60 -44q-4 25 -26 40q-22 16 -86 34l6 17q65 -13 86 -17q18 -1 30 6q12 5 10 31v294h-160q-4 -112 -16 -170q-13 -57 -40 -128q-27 -67 -78 -125l-12 10q44 78 62 141
q14 61 26 164q12 102 10 216v406v0v0zM338 490v190h-158v-190h158v0v0zM180 706h158v200h-158v-200v0v0z" />
  </g>

</svg>
