<?xml version="1.0" standalone="no"?>
<!DOCTYPE svg PUBLIC "-//W3C//DTD SVG 1.1//EN" "http://www.w3.org/Graphics/SVG/1.1/DTD/svg11.dtd" >
<svg xmlns="http://www.w3.org/2000/svg" xmlns:xlink="http://www.w3.org/1999/xlink" version="1.1" viewBox="0 -205 1024 1024">
  <g transform="matrix(1 0 0 -1 0 819)">
   <path fill="currentColor"
d="M610 978q2 18 18 8q38 -24 53 -34q12 -8 11 -14q-1 -5 -13 -6q-11 -2 -17 -6q-9 -10 -31 -56q-4 -5 -5 -9h180q10 0 14 6l28 30q3 4 7 4t7 -4q31 -32 49 -56q8 -12 -7 -13q-27 -4 -43 -11q-19 -14 -44 -45q-36 -45 -76 -109q-7 -12 -17 -8q-10 6 -1 22q42 80 79 153h-191
q-27 -53 -61 -108q-37 -60 -95 -129q-10 -11 -17 -4q-8 7 1 17q66 85 117 209q51 123 54 163zM872 577q6 0 9 4l18 28q7 8 14 1q29 -19 57 -41q9 -8 8 -12q-2 -5 -9 -9q-26 -12 -27 -19q-2 -6 -2 -13v-348q0 -36 6 -97q1 -11 -5 -12q-43 -15 -47 -14q-2 1 -2 11v78h-360v-63
q0 -8 -6 -9q-20 -8 -39 -17q-9 -3 -8 12q4 63 5 210v244q-1 36 -5 82q-2 12 2 13q3 1 10 -6q15 -15 43 -36q30 17 58 36q35 27 65 55q6 6 13 2q29 -22 48 -41q4 -5 1 -9t-10 -3q-10 1 -31 -6q-18 -6 -49 -22q-45 -22 -97 -38v-137h57q11 0 21 10l33 38q7 8 14 1
q26 -24 42 -49q11 -16 8 -23q-4 -7 -17 -8h-158v-205h360v209h-54q-27 0 -61 -7q-5 -1 -6 2q-13 19 -23 35q-6 10 7 7q61 -5 68 -6h69v141h-62q-27 0 -61 -7q-5 -1 -6 2q-13 19 -23 35q-6 10 7 7q61 -5 68 -6h57zM156 334v-47q-1 -8 -5 -9q-10 -4 -32 -13q-15 -6 -14 4
q2 26 3 51v362q0 11 -1 18q-19 -24 -40 -51q-10 -10 -17 -4q-8 7 1 17q54 74 96 180t43 140q2 17 18 7q38 -23 53 -33q12 -9 11 -13q-1 -6 -10 -5t-19 -8q-8 -7 -26 -47q-1 -1 -1 -2h112q10 0 14 6l28 30q3 4 7 4q11 0 56 -60q8 -12 -7 -13q-8 -1 -14 -2q-52 -9 -136 -141
h76q6 0 9 4l18 28q7 8 14 1q29 -19 57 -41q6 -6 5 -12q-3 -6 -13 -7q-12 -2 -18 -12q-4 -9 -4 -22v-244q0 -32 6 -87q2 -12 -7 -16q-35 -20 -42 -20q-5 1 -5 11v46h-216zM156 365h86v141h-86v-141zM290 365h82v141h-82v-141zM242 674h-86v-137h86v137zM290 537h82v137h-82
v-137zM154 705h97q1 3 2 4q38 74 71 141h-124q-29 -51 -74 -123q12 -12 28 -22zM403 215q15 4 16 -5q2 -12 -14 -16q-133 -49 -232 -77q-42 -9 -57 -28q-6 -8 -10 -9q-4 0 -8 9q-9 26 -30 45q-11 11 -10 14q2 3 12 4q92 10 333 63z" />
  </g>

</svg>
