<?xml version="1.0" standalone="no"?>
<!DOCTYPE svg PUBLIC "-//W3C//DTD SVG 1.1//EN" "http://www.w3.org/Graphics/SVG/1.1/DTD/svg11.dtd" >
<svg xmlns="http://www.w3.org/2000/svg" xmlns:xlink="http://www.w3.org/1999/xlink" version="1.1" viewBox="0 -200 999 1000">
  <g transform="matrix(1 0 0 -1 0 800)">
   <path fill="currentColor"
d="M94 352q32 -49 51 -88.5t19 -65.5q0 -20 -12.5 -29t-22.5 -17q-2 0 -1.5 -0.5t-0.5 -0.5q-7 0 -9.5 13t-5.5 37.5t-8.5 61t-19.5 84.5zM50 532q46 115 80.5 233t56.5 236l64 -48l-23 -36l-6 -18q54 -38 88.5 -74t34.5 -62q0 -8 -1 -9q-2 -5 -4 -14t-5 -17t-7.5 -14
t-10.5 -6q-7 0 -16 9q-5 24 -12 45t-16.5 41t-23 41.5t-32.5 47.5q-20 -64 -45.5 -131.5t-51.5 -121.5h133l38 40l49 -65h-113v-132h43l39 41l51 -66h-133v-256q10 21 27.5 67.5t38.5 118.5l50 -61l-26 -17q-15 -25 -27 -43t-22.5 -33t-20.5 -29t-20 -30v-50l119 40l5 -12
q-38 -22 -74.5 -41t-70.5 -36.5t-63 -34.5t-52 -35l-47 62q15 3 33.5 7.5t37.5 10t36.5 11t30.5 10.5v351h-68l-31 -12l-17 37h116v132h-74q-12 -25 -24 -46t-22 -35zM702 253v-212q-7 -9 -18.5 -18.5t-22.5 -11.5v788l57 -41h46v237l58 -27l-18 -61v-149h60l28 40l52 -52
l-32 -33v-602q0 -43 -12 -69t-47 -44q-1 27 -16 43t-50 33l3 13q23 -8 36 -11t23 -4h1q11 0 15.5 13.5t4.5 29.5v257q0 -1 -0.5 -2t-0.5 -2q-5 -14 -12.5 -19t-14.5 -5q-11 0 -12 7q-3 22 -4 35.5t-3.5 29t-9 40.5t-20.5 71q-3 -61 -13 -107.5t-23.5 -80t-28 -55.5
t-25.5 -33zM555 486q31 -34 48.5 -64t17.5 -65q0 -22 -10.5 -38t-22.5 -16q-10 0 -11.5 13t-1.5 30q0 12 -0.5 24.5t-2.5 23.5q-26 -5 -55.5 -16.5t-55.5 -25t-45.5 -26t-26.5 -19.5l-34 67l78 15q8 22 19.5 55t23.5 68t23 68.5t18 58.5q-20 -8 -40 -16.5t-37.5 -17.5
t-31.5 -17t-21 -14l-32 60l60 4q11 32 24.5 75.5t26 91.5t22 98t12.5 97l60 -58l-28 -56q-20 -48 -41 -107.5t-54 -137.5q17 0 41 3.5t45 6.5l52 160l45 -61l-31 -42q-19 -48 -35.5 -88t-32.5 -77t-32.5 -73.5t-34.5 -76.5q27 2 59.5 7t55.5 9q-3 11 -9.5 32.5t-14.5 39.5z
M702 276q14 38 25 74.5t18.5 86.5t12 120.5t6.5 176.5h-50l-12 -31v-427zM803 734l-4 -192q35 -54 50.5 -85t20.5 -51v328h-67zM420 198q5 -35 9 -60t4 -45q0 -25 -9 -50q-4 -20 -19.5 -33.5t-32.5 -13.5h-4q-9 12 -9 25q0 11 5 25t14 32q17 30 22.5 58.5t9.5 61.5h10z
M555 258q13 -20 25.5 -46t14.5 -46q7 -13 7 -38q0 -10 -1 -19t-2 -16q-3 -16 -12.5 -26t-18.5 -10q-16 0 -16 28v6.5t1 7.5q1 15 1.5 30.5t0.5 31.5q0 24 -2 48t-8 45zM485 223q15 -30 25 -63t10 -60q0 -3 -0.5 -6t-0.5 -6q-4 -61 -38 -65q-6 0 -9.5 10t-3.5 26q0 14 3 31
q4 24 6.5 42.5t2.5 36.5q0 11 -1 22t-4 25z" />
  </g>

</svg>
