<?xml version="1.0" standalone="no"?>
<!DOCTYPE svg PUBLIC "-//W3C//DTD SVG 1.1//EN" "http://www.w3.org/Graphics/SVG/1.1/DTD/svg11.dtd" >
<svg xmlns="http://www.w3.org/2000/svg" xmlns:xlink="http://www.w3.org/1999/xlink" version="1.1" viewBox="0 -36 256 256">
  <g transform="matrix(1 0 0 -1 0 220)">
   <path fill="currentColor"
d="M40 245l16 -6h57l11 7l14 -14h-83v-9h53l8 7l14 -14h-75v-7h52l8 6l14 -13h-74v-7h67l11 7l14 -14h-78l10 -6q-7 -1 -16 -5.5l-19 -9.5l69 2q-8 6 -19 12l2 3q27 -7 32 -12t2 -11.5t-6 -2.5t-7 7q-24 -3 -51.5 -6t-34.5 -5l-10 13q12 1 23 8.5t16 12.5h-22q-10 0 -20 -3
l-10 10h33q0 33 -1 50zM227 236q-7 0 -31 -9t-57 -14v3q24 6 47 16.5t28 14.5zM235 208q-5 0 -32.5 -8t-55.5 -12l-1 3q28 7 49 15.5t28 14.5zM243 180q-10 -1 -39 -9t-66 -11v3q37 8 61.5 17t29.5 14zM30 36q0 54 -1 72l21 -11l-7 -4v-55l18 4v52l-1 28l8 -5l13 21h-36
q-11 0 -19 -3l-9 10h63l10 8l14 -15q-9 -2 -16 -8t-16 -15l10 -6l-8 -4v-14h10l11 8l13 -15h-34v-39l33 7l1 -4q-13 -4 -46.5 -15.5t-39.5 -16.5l-13 16l21 4v0zM138 81l-6 -5q-1 -22 -6 -34.5t-18 -21.5t-29 -13l-2 3q18 10 27.5 20.5t12 26t0.5 32.5zM154 8q1 19 1 43
t-1 39l19 -7l-5 -6q0 -42 1 -60l-15 -9v0zM211 81l-8 -6v-43q0 -8 10 -8h10q7 1 8 8.5t2 25.5h4q0 -13 2 -22t9 -10q-4 -12 -20 -13h-22q-16 2 -16 16v30l-1 30zM136 136q-12 -1 -20 -3l-9 10h98l12 11l16 -18h-97zM175 155q-7 -3 -20 -20.5t-26 -30.5l70 4q-10 7 -22 13
l3 3q21 -7 35 -14t8.5 -16.5t-9 -4t-12.5 14.5q-18 -3 -47.5 -6.5t-39.5 -8.5l-7 14q13 1 16 6t16 24t17 31z" />
  </g>

</svg>
