<?xml version="1.0" standalone="no"?>
<!DOCTYPE svg PUBLIC "-//W3C//DTD SVG 1.1//EN" "http://www.w3.org/Graphics/SVG/1.1/DTD/svg11.dtd" >
<svg xmlns="http://www.w3.org/2000/svg" xmlns:xlink="http://www.w3.org/1999/xlink" version="1.1" viewBox="0 -52 256 256">
  <g transform="matrix(1 0 0 -1 0 204)">
   <path fill="currentColor"
d="M254 26v-4q-10 1 -15 1q-6 -3 -9 -6q-32 25 -46 46q-33 -36 -81 -52l-2 4q49 21 76 58q-21 34 -30 83q-11 -18 -20 -30l-4 2q22 40 30 72q11 35 9 39q0 4 -5 9l3 3l26 -11q2 -3 0 -3q-6 0 -11 -4q-8 -29 -17 -52h68l7 10l17 -12q3 -2 2 -3t-5 0h-25q-2 -60 -32 -104
q25 -32 64 -46zM28 228l10 -12h11l5 6q11 16 11 19q0 1 -1 2q0 4 -2 6l2 1l21 -9q5 -3 2 -4q-7 0 -13 -5q-9 -7 -17 -16h46l10 11l13 -13q2 -2 1 -2q0 -1 -3 -2l-5 -2v-52l1 -16q1 -6 -2 -7q-4 -3 -11 -3v9h-67v-3q0 -5 -3 -7q-4 -3 -10 -4v9q1 14 1 23v57q0 6 -5 11z
M156 176q0 -2 -2 -5q-1 -4 -2 -6q10 -47 31 -83q26 42 27 94h-54zM12 115h97l8 9l19 -12q5 -3 -1 -2h-55v-31h18l9 10l18 -13q5 -3 -1 -2h-44v-33l51 6l1 -3l-81 -14q-15 -3 -19 -5q-4 -3 -9 -8l-13 16l58 7v34h-24q-7 0 -12 -4l-10 9h46v31h-34q-7 0 -12 -3zM107 211h-67
v-32h67v32zM40 175v-31h67v31h-67z" />
  </g>

</svg>
