<?xml version="1.0" standalone="no"?>
<!DOCTYPE svg PUBLIC "-//W3C//DTD SVG 1.1//EN" "http://www.w3.org/Graphics/SVG/1.1/DTD/svg11.dtd" >
<svg xmlns="http://www.w3.org/2000/svg" xmlns:xlink="http://www.w3.org/1999/xlink" version="1.1" viewBox="0 -205 1024 1024">
  <g transform="matrix(1 0 0 -1 0 819)">
   <path fill="currentColor"
d="M264 712h244v130l74 -28q6 0 6 -6q1 -4 -6 -10l-28 -16v-70h162l32 44l54 -52q3 -4 4 -10q0 -6 -12 -6h-240v-80h140l22 30l44 -32q12 -6 12 -12q0 -4 -24 -20v-102l4 -64q0 -16 -14 -28q-15 -12 -36 -12v32h-148v-42q80 -28 130 -52q48 -24 72 -48q25 -25 20 -46
q-4 -21 -22 -24q-18 -1 -38 28q-22 30 -58 60q-36 29 -104 64v-148l4 -75q0 -12 -18 -28q-15 -13 -36 -14l4 111v190q-69 -96 -122 -150q-51 -54 -140 -115l-10 12q69 55 126 125q57 68 108 152h-106v-12q1 -12 -16 -24q-18 -10 -32 -10l4 106v176l46 -28h142v80h-160
q-21 0 -68 -8l-16 32v0v0zM364 424h144v160h-144v-160v0v0zM554 584v-160h148v160h-148v0v0zM388 554l8 6q38 -27 56 -48t18 -38q0 -15 -8 -24q-7 -7 -20 -4q-11 1 -16 32q-3 30 -38 76v0v0zM630 564q57 -26 54 -34q-1 -7 -16 -10q-13 -3 -34 -26q-19 -22 -52 -56l-12 6
q36 60 60 120v0v0zM146 826l80 -34q2 -3 2 -6q-3 -6 -8 -8l-28 -16v-610l4 -81q-1 -18 -22 -28q-19 -12 -32 -12l4 127v668v0v0zM888 934l56 -42q7 -4 8 -10q0 -6 -14 -14l-16 -14v-721q3 -39 -20 -66q-20 -24 -58 -36q-8 30 -28 42t-100 36l4 16q90 -17 108 -20q17 0 32 8
q14 6 14 26v729h-380q-19 0 -56 -8l-24 34h444l30 40v0v0zM208 968q92 -54 116 -80q23 -24 26 -48q3 -22 -8 -34q-12 -12 -26 -12q-15 0 -20 28q-6 24 -20 52q-13 24 -76 82l8 12v0v0z" />
  </g>

</svg>
