<?xml version="1.0" standalone="no"?>
<!DOCTYPE svg PUBLIC "-//W3C//DTD SVG 1.1//EN" "http://www.w3.org/Graphics/SVG/1.1/DTD/svg11.dtd" >
<svg xmlns="http://www.w3.org/2000/svg" xmlns:xlink="http://www.w3.org/1999/xlink" version="1.1" viewBox="0 -36 256 256">
  <g transform="matrix(1 0 0 -1 0 220)">
   <path fill="currentColor"
d="M46 195.5q0 20.5 -1 34.5l14 -5q30 7 44 16l11 -16q-15 0 -53 -6v-19h22l15 9l13 -16h-50v-17h61v42q0 12 -1 28l22 -9l-7 -6v-55h62v18h-19q-11 0 -20 -2l-10 9h49v17h-24q-11 0 -21 -1l-9 8h52l10 7l14 -10l-7 -5v-28q0 -13 1 -23l-16 -4v7h-62v-17h-14v17h-61v-5
l-16 -3q1 14 1 34.5zM213 154l17 11l17 -18h-199q-23 1 -29 -4l-11 11h205zM53 72v43q0 12 -1 24l19 -7h115l9 9l14 -13l-8 -5v-43q0 -14 1 -31l-16 -5v7h-119v-6l-15 -6q1 18 1 33zM67 125v-16h119v16h-119zM186 102h-119v-19h119v19zM67 76v-18h119v18h-119zM205.5 13
q-18.5 13 -62.5 28l1 4q80 -10 80 -27.5t-18.5 -4.5zM101 49l17 -16h-12q-46 -14 -96 -26l-2 3q55 19 93 39z" />
  </g>

</svg>
