<?xml version="1.0" standalone="no"?>
<!DOCTYPE svg PUBLIC "-//W3C//DTD SVG 1.1//EN" "http://www.w3.org/Graphics/SVG/1.1/DTD/svg11.dtd" >
<svg xmlns="http://www.w3.org/2000/svg" xmlns:xlink="http://www.w3.org/1999/xlink" version="1.1" viewBox="0 -36 256 256">
  <g transform="matrix(1 0 0 -1 0 220)">
   <path fill="currentColor"
d="M95 138h27l10 10l14 -17h-26v-92q0 -13 1 -25l-15 -8q1 17 1 33q-75 -15 -82 -21l-12 15q9 1 31 4v94q-7 0 -20 -3l-11 10h70l3 22h-17q-12 1 -25 -2l-11 9h75l9 10l15 -17h-34zM58 108h49v23h-49v-23zM58 76h49v25h-49v-25zM107 46v23h-49v-30zM159 132q12 -31 27 -58
q11 24 17 68h-39zM184 177l-9 -4l-9 -24h50l10 12l16 -18h-25q-5 -44 -23 -80q7 -10 20 -21t31 -17v-5q-15 2 -19 -8q-21 16 -40 42q-27 -34 -61 -46l-1 3q36 22 55 53q-15 30 -22 62q-7 -15 -23 -36l-4 3q29 54 34 95zM70 232l-10 -17h53l11 13l14 -20h-55q20 -10 21 -17.5
t-5.5 -14t-9.5 6.5t-14 25h-19q-17 -23 -38 -41l-4 3q14 19 25.5 36.5t19.5 41.5l22 -13zM173 231l-11 -17h55l13 11l14 -18h-61q15 -7 19 -12t3 -11.5t-6 -8.5t-8 8t-16 24h-18q-12 -14 -29 -30l-3 3q19 27 26 41.5t11 25.5l21 -13z" />
  </g>

</svg>
