<?xml version="1.0" standalone="no"?>
<!DOCTYPE svg PUBLIC "-//W3C//DTD SVG 1.1//EN" "http://www.w3.org/Graphics/SVG/1.1/DTD/svg11.dtd" >
<svg xmlns="http://www.w3.org/2000/svg" xmlns:xlink="http://www.w3.org/1999/xlink" version="1.1" viewBox="0 -205 1024 1024">
  <g transform="matrix(1 0 0 -1 0 819)">
   <path fill="currentColor"
d="M382 902q-23 -3 -70 -12v-138h66l32 48l54 -54q3 -3 4 -8q1 -12 -10 -12h-146v-36q56 -31 80 -46q23 -15 38 -36q12 -20 10 -40q-4 -18 -16 -26q-12 -7 -24 -2q-11 5 -16 26t-22 46q-15 25 -50 56v-174l6 -78q-1 -16 -22 -28q-21 -13 -38 -8l4 108v164q-39 -64 -96 -128
q-54 -62 -114 -106l-8 12l78 94q36 45 70 96q32 48 58 106h-94q-28 0 -74 -8l-16 34h196v124q-95 -19 -172 -28l-4 16q219 56 316 106q44 -51 44 -60q1 -6 -4 -8q-6 -1 -20 2q-16 0 -40 -2v0v0zM480 754h142q8 84 14 216l84 -34q6 -4 6 -10q0 -4 -38 -22l-6 -76l-8 -74h190
l36 44l64 -50q3 -3 4 -8q0 -12 -12 -12h-186v-228q0 -24 30 -24h74q26 -1 38 14q11 14 14 38q3 22 6 116h18q5 -67 10 -94q2 -24 32 -42q-7 -37 -26 -56q-18 -19 -54 -22h-122q-39 -1 -54 14q-15 14 -18 52v232h-48q-10 -66 -44 -128q-31 -63 -86 -110q-55 -45 -154 -96
l-8 16q65 44 116 86q47 42 80 102q32 60 44 130h-60q-15 0 -62 -8l-16 34v0v0zM748 904l6 14q71 -21 98 -38q23 -16 26 -34t-8 -30q-12 -13 -26 -10q-16 -1 -22 20q-5 20 -22 38q-16 15 -52 40v0v0zM506 416l82 -32q8 -3 8 -12q0 -3 -6 -6l-34 -16v-249h274v213l80 -28
q12 -9 4 -14q0 -3 -32 -20v-135l4 -70q-4 -15 -26 -24q-21 -8 -30 -8v58h-598l-30 -34l-60 46q31 15 32 36v195l78 -28q5 -9 2 -12q-3 -6 -30 -18v-157h282v315v0v0z" />
  </g>

</svg>
