<?xml version="1.0" standalone="no"?>
<!DOCTYPE svg PUBLIC "-//W3C//DTD SVG 1.1//EN" "http://www.w3.org/Graphics/SVG/1.1/DTD/svg11.dtd" >
<svg xmlns="http://www.w3.org/2000/svg" xmlns:xlink="http://www.w3.org/1999/xlink" version="1.1" viewBox="0 -204 1024 1024">
  <g transform="matrix(1 0 0 -1 0 820)">
   <path fill="currentColor"
d="M112 294q1 -20 1.5 -35.5t0.5 -36.5t-2 -40q-6 -40 -21 -53t-28 -14t-19.5 6.5t-6.5 17.5t6 19q2 3 15.5 14.5t19.5 26.5t10 35.5t5 39.5v20h19zM407 842l31 36l36 -24q9 -7 14.5 -12.5t6.5 -11t-4 -11.5q-1 -1 -28 -16v-139q0 -1 1 -24t1 -27t1.5 -13.5t0.5 -13.5
q-5 -16 -28 -15q-23 0 -23 15v4h-270v-86h279l43 44l54 -46q5 -5 7 -8t-0.5 -11t-12.5 -7l-370 1v-89h334l30 36l36 -25q9 -6 14.5 -11.5t6.5 -11t-4 -11.5q-1 -2 -28 -17q-5 -28 -6 -42l-9 -67q-3 -20 -9.5 -53t-11.5 -52.5t-24 -55t-55 -44t-54 -11.5q-2 10 -4.5 17.5
t-11 16t-29.5 18t-63 22.5l6 21q23 -7 36 -10l37 -9q35 -10 56.5 -15t36 17t22.5 47t12 44.5t9 57.5t13 110h-344q-5 -3 -24.5 -7.5t-19.5 18.5v422q0 10 -1 31t-2 26l-4 27l62 -35h36q7 24 10 36t7.5 37t5.5 32l2 19l52 -12q38 -9 38 -23q-1 -12 -23 -15l-21 -4
q-23 -37 -46 -70h193zM416 814h-270v-81h270v81zM146 619h270v86h-270v-86zM360 332q28 -21 58 -48t30.5 -48.5t-4 -29.5t-12 -11.5t-14.5 -1.5q-10 2 -13 7.5t-4.5 16t-12 39t-39.5 66.5zM269 315q42 -38 63.5 -76t15 -51t-16.5 -17.5t-18 -1.5q-9 3 -11.5 8.5t-4 18
t-5.5 29t-11 33t-27 47.5zM189 298q11 -19 15 -27.5t13.5 -35.5t12 -38t2.5 -20q-1 -15 -9 -26.5t-25.5 -10.5t-16.5 27q0 5 1.5 17.5t1.5 22t-1 25.5q-2 21 -4 33l-6 28zM674 847h-38q-22 0 -81 -3l-18 43q73 -9 99 -9h218l50 53l61 -52q6 -6 9 -10t2 -10q-3 -12 -16 -12
h-235l-74 -294l216 1l31 40l38 -27q13 -9 16 -13.5t3 -10.5q-1 -5 -4 -9t-30 -22q-2 -16 -2 -24l-5 -70q-1 -7 -6.5 -71.5t-7 -81.5t-5 -40.5t-11 -61.5t-26 -84.5t-121.5 -57.5q-1 12 -3.5 19t-16.5 18t-75 25l4 23q71 -13 108 -17.5t54 16.5t24 52t13 72.5t8 59t5 63
t6 73.5l6 66l2 33h-218q-38 -6 -48.5 -4t-6.5 19z" />
  </g>

</svg>
