<?xml version="1.0" standalone="no"?>
<!DOCTYPE svg PUBLIC "-//W3C//DTD SVG 1.1//EN" "http://www.w3.org/Graphics/SVG/1.1/DTD/svg11.dtd" >
<svg xmlns="http://www.w3.org/2000/svg" xmlns:xlink="http://www.w3.org/1999/xlink" version="1.1" viewBox="0 -205 1024 1024">
  <g transform="matrix(1 0 0 -1 0 819)">
   <path fill="currentColor"
d="M914 840l46 -34q6 -6 6 -12q0 -9 -14 -8h-180q4 -38 20 -82q14 -45 34 -80q20 -34 52 -58q30 -25 36 -22q6 0 12 28q4 27 20 96l22 -4q-7 -45 -10 -78q-2 -33 0 -56q-1 -22 8 -34q8 -12 10 -20q0 -7 -8 -10q-10 -4 -28 2q-18 3 -60 30q-41 27 -70 66q-30 37 -48 80
q-18 42 -26 76l-12 66h-270q-21 -1 -38 -10l-30 36h332l-20 166l74 -28q7 -3 8 -8q-4 -9 -28 -20l14 -110h122l26 28v0v0zM54 856h290l30 44l56 -52q3 -3 4 -6q0 -10 -12 -10h-72q-24 -82 -68 -160q42 -33 58 -54q14 -21 20 -42q4 -21 -6 -36q-11 -15 -28 -14q-18 1 -24 26
q-5 24 -16 42q-12 18 -30 42q-42 -54 -92 -102q-51 -46 -126 -88l-8 12q62 53 110 100q45 48 88 108q-60 54 -128 114l8 12q78 -47 138 -94q36 65 54 134h-178q-36 -4 -48 -8l-20 32v0v0zM168 966l8 12q51 -21 70 -32q17 -10 26 -26q6 -16 -2 -32q-9 -16 -26 -16t-22 18
q-3 14 -14 32q-10 17 -40 44v0v0zM804 948l6 12q33 -10 60 -22q23 -10 32 -26q9 -15 0 -30q-6 -15 -24 -14q-15 -1 -20 14t-16 30q-9 12 -38 36v0v0zM598 920l34 42l48 -48q3 -3 4 -8q0 -12 -12 -12h-158q-18 0 -66 -8l-18 34h168v0v0zM570 764l68 -28q3 -4 4 -8t-10 -10
l-16 -10v-36h40l28 38l46 -44q2 -5 2 -10q0 -7 -8 -8h-108v-76l138 24l6 -18q-247 -63 -280 -72q-33 -10 -54 -32l-46 58l74 12v190l64 -30q12 -4 12 -8v-8l-30 -14v-124l70 12v202v0v0zM218 474l44 -22h466l28 36l58 -42q6 -4 6 -8q0 -6 -26 -24v-126l4 -80q0 -12 -20 -26
q-18 -13 -42 -16l4 110v150h-474v-146l4 -88q0 -13 -20 -26q-22 -12 -40 -12l4 120v200h4v0v0zM550 358q7 -3 8 -6q5 -6 -4 -12l-26 -10q-14 -55 -46 -118q-31 -60 -82 -99q-50 -36 -136 -66q-84 -24 -198 -34l-2 16q109 24 182 50q72 27 120 61q45 36 70 94q24 56 42 152
l72 -28v0v0zM534 180q153 -25 240 -47q87 -24 114 -48q25 -23 20 -44q-4 -22 -22 -26t-38 16q-18 18 -80 54q-62 34 -238 77l4 18v0v0z" />
  </g>

</svg>
