<?xml version="1.0" standalone="no"?>
<!DOCTYPE svg PUBLIC "-//W3C//DTD SVG 1.1//EN" "http://www.w3.org/Graphics/SVG/1.1/DTD/svg11.dtd" >
<svg xmlns="http://www.w3.org/2000/svg" xmlns:xlink="http://www.w3.org/1999/xlink" version="1.1" viewBox="0 -205 1024 1024">
  <g transform="matrix(1 0 0 -1 0 819)">
   <path fill="currentColor"
d="M396 692h146q36 78 72 190q66 -34 64 -40q-3 -7 -6 -8q-4 1 -14 -4q-10 -4 -34 -40t-60 -98h58l30 36l46 -46q3 -7 4 -10q-3 -6 -8 -6h-128v-272h50v198l56 -18q6 -3 6 -6t-18 -20v-116l4 -66q1 -15 -12 -24q-11 -9 -22 -12q-9 -1 -14 -2v42h-52q-8 -78 -40 -134
q-30 -58 -84 -101q-52 -42 -124 -82l-10 10q66 49 108 89q38 40 68 92q29 51 38 126h-50l-24 -28l-52 30l24 22v208l54 -20q8 -3 8 -8t-18 -16v-164h60v272h-54q-34 1 -52 -10l-20 36v0v0zM434 864q43 -34 62 -58q19 -23 18 -46q-2 -23 -10 -28q-6 -4 -20 -4q-13 0 -16 18
t-8 42q-6 24 -36 70l10 6v0v0zM836 842q6 -3 6 -6q6 -4 -2 -10q-24 -6 -36 -38q-10 -33 -40 -102h142l28 36l44 -44q12 -9 12 -14q0 -3 -6 -8q-17 -3 -28 -12q-8 -6 -28 -30q-21 -24 -44 -62l-18 8l44 100h-156q-33 -70 -50 -104l-12 10q29 87 88 306l56 -30v0v0zM880 940
l36 48l62 -56q3 -6 4 -6q0 -10 -8 -10h-602v-260q1 -245 -30 -370q-30 -125 -126 -229l-12 10q65 89 94 211q29 119 26 392v306l54 -36h502v0v0zM822 480q23 -126 50 -204q27 -79 58 -118q30 -38 66 -57v-16q-33 1 -44 -2q-12 0 -32 -18q-31 49 -46 87q-16 39 -34 102
q-16 66 -34 180q-16 -142 -50 -208q-32 -65 -82 -105q-48 -41 -132 -80l-8 14q80 50 128 101t66 108q18 54 28 112q9 57 18 204q71 -23 74 -28q1 -3 0 -6q-3 -3 -26 -20v-46v0v0zM146 438q-19 -45 -40 -48t-72 -2l-2 -20q34 -6 56 -14q24 -7 30 -22q8 -13 10 -44
q1 -31 -6 -88q-9 -54 -6 -81q0 -28 16 -38q15 -9 30 0t18 36q3 25 -6 85q-10 60 -10 102t4 64q4 20 14 50l120 418l-22 6l-134 -404v0v0zM82 972l6 14q48 -18 82 -36q33 -15 52 -36q17 -19 20 -40q3 -19 -8 -32q-12 -13 -26 -14q-16 1 -22 14q-6 14 -14 34q-6 20 -24 38
q-15 18 -66 58v0v0zM36 732l6 14q42 -16 76 -32q33 -15 48 -32q15 -15 18 -36q1 -18 -10 -30q-9 -12 -24 -12t-20 12q-6 13 -14 32q-9 17 -26 38q-15 18 -54 46v0v0z" />
  </g>

</svg>
