<?xml version="1.0" standalone="no"?>
<!DOCTYPE svg PUBLIC "-//W3C//DTD SVG 1.1//EN" "http://www.w3.org/Graphics/SVG/1.1/DTD/svg11.dtd" >
<svg xmlns="http://www.w3.org/2000/svg" xmlns:xlink="http://www.w3.org/1999/xlink" version="1.1" viewBox="0 -36 256 256">
  <g transform="matrix(1 0 0 -1 0 220)">
   <path fill="currentColor"
d="M68 245l23 -9l-8 -6v-8h26l10 10l14 -17h-50v-14h21l9 9l13 -16h-69h-4q-4 0 -16 -3l-10 10h42v14h-24h-3q-7 1 -19 -2l-10 9h56q0 11 -1 23zM97 153h-49l-14 -3q1 17 0 38l14 -6h56l6 8l14 -12l-6 -3v-22h-14l8 -4q-8 -3 -21 -16l47 8l1 -4q-85 -22 -98.5 -25.5
t-14.5 -5.5l-10 16q8 1 36 4q-3 15 -12 24l3 2q13 -6 18 -10.5t-5 -14.5l30 5q6 12 11 21zM48 160h57v15h-57v-15zM188 148q9 -5 24.5 -10t33.5 -5v-4q-15 -3 -18 -11q-30 8 -49 22q-27 -17 -70 -24l-1 4q39 11 61 28q-12 14 -20 34l-7 -2l-9 9h39v20h-7q-11 0 -20 -2l-10 9
h37q0 13 -1 31l25 -8l-10 -7v-16h28l13 10l16 -17h-57v-20h17l7 9l13 -15l-7 -3q-18 -24 -28 -32zM178 155q13 13 22 27h-44q9 -17 22 -27zM118 7q2 15 2 32h-81q-9 1 -20 -2l-10 9h111v18h-45q-8 1 -20 -2l-10 9h75v16h-56q-9 1 -21 -2l-9 9h68q-4 12 -18 23l1 2
q20 -4 26.5 -10.5t-6.5 -14.5h38q14 19 20 31l19 -12l-10 -2l-21 -17h47l11 11l14 -18h-88v-16h53l11 9l15 -16h-79v-18h82l13 12l18 -19h-113v-11q0 -9 1 -15z" />
  </g>

</svg>
