<?xml version="1.0" standalone="no"?>
<!DOCTYPE svg PUBLIC "-//W3C//DTD SVG 1.1//EN" "http://www.w3.org/Graphics/SVG/1.1/DTD/svg11.dtd" >
<svg xmlns="http://www.w3.org/2000/svg" xmlns:xlink="http://www.w3.org/1999/xlink" version="1.1" viewBox="0 -36 256 256">
  <g transform="matrix(1 0 0 -1 0 220)">
   <path fill="currentColor"
d="M51 231h154l10 8l17 -11l-9 -5v-64q0 -14 -23 -19q-2 12 -27 16v4q23 -3 29.5 -2.5t6.5 9.5v57h-160v-72l-16 -6q1 12 1 24v42q0 12 -1 26zM89 170v55h14v-48q0 -2 1 -16l-16 -5zM150 180v46h15v-47v-17l-16 -5q1 14 1 23zM192 114l25 -8l-10 -7q0 -21 2 -37l-16 -6v8
h-60v-23q-1 -13 16 -14h65q9 2 10 10t3 21h5q0 -7 2.5 -17t12.5 -12q-9 -13 -28 -12h-75q-26 0 -26 20v27h-60l-7 -6l-15 10l9 7q0 24 -2 39l25 -7l-9 -7v-29h59v52h-79q-7 0 -16 -3l-10 10h105q0 21 -1 34l24 -9l-8 -6v-19h83l11 11l16 -18h-110v-52h60q0 31 -1 43z" />
  </g>

</svg>
