<?xml version="1.0" standalone="no"?>
<!DOCTYPE svg PUBLIC "-//W3C//DTD SVG 1.1//EN" "http://www.w3.org/Graphics/SVG/1.1/DTD/svg11.dtd" >
<svg xmlns="http://www.w3.org/2000/svg" xmlns:xlink="http://www.w3.org/1999/xlink" version="1.1" viewBox="0 -205 1024 1024">
  <g transform="matrix(1 0 0 -1 0 819)">
   <path fill="currentColor"
d="M508 972q7 -3 6 -8q0 -6 -8 -8q-9 1 -18 -4q-9 -3 -48 -44h278l26 32l50 -34q6 -6 6 -8q0 -6 -26 -24v-80l4 -42q1 -13 -10 -22q-12 -9 -42 -14v20h-186q48 -49 112 -82q104 45 152 78l46 -38q4 -9 0 -12q-4 -1 -10 -2h-16h-20q-12 -1 -132 -40q58 -18 116 -30
q56 -12 106 -12h90v-18q-46 -5 -64 -10t-30 -34q-46 6 -118 28q-72 20 -132 56q-58 33 -100 84v-104q3 -42 -20 -62q-22 -19 -52 -28q-6 35 -44 50q-36 13 -68 20l4 18q57 -10 82 -14q23 -4 38 4q13 7 12 32v116h-194v-2q0 -11 -18 -22q-19 -9 -34 -8l4 82v156l50 -34h114
q20 50 32 88l62 -24v0v0zM298 760h428v52h-428v-52v0v0zM298 836h428v48h-428v-48v0v0zM74 688h240l32 24l44 -36q8 -6 8 -14q-3 -4 -20 -10q-16 -4 -32 -16q-40 -33 -104 -66q-64 -34 -188 -62l-4 14q103 33 164 70q60 36 96 72h-164q-24 0 -50 -8l-22 32v0v0zM182 306h214
v56h-214v-56v0v0zM182 384h214v60h-214v-60v0v0zM266 280q60 -12 66 -18q4 -5 0 -10l-24 -12v-34l46 -20q51 42 84 78l40 -30q13 -7 2 -14q-21 2 -36 -4q-16 -7 -76 -38q33 -13 52 -26q17 -12 26 -27q7 -15 2 -30q-3 -15 -20 -18q-18 -3 -32 26q-15 28 -36 45q-19 17 -52 38
v-97q3 -36 -12 -52q-15 -18 -54 -30q-6 30 -30 42q-23 9 -52 18l4 16q75 -16 90 -14q15 3 12 36v175v0v0zM56 224h108l22 22l48 -34q4 -13 -6 -16q-22 -9 -26 -20q-14 -27 -58 -77t-106 -82l-8 10q49 37 86 88q37 49 50 85h-38q-24 0 -50 -8l-22 32v0v0zM308 526q6 -5 4 -10
q-3 -3 -14 -6q-12 -1 -42 -44h132l24 26l48 -32q3 -3 4 -6q0 -6 -24 -20v-110l4 -32q0 -10 -14 -20q-13 -10 -34 -16v28h-214v-8q1 -5 -16 -16q-18 -10 -32 -10l4 64v178l44 -26h50q14 45 20 78l56 -18v0v0zM610 306h230v56h-230v-56v0v0zM610 384h230v60h-230v-60v0v0z
M706 276l66 -12q9 -6 4 -12q-5 -3 -28 -12v-14q26 -31 56 -58q60 44 100 82l40 -34q10 -7 0 -14q-19 2 -38 -4t-88 -42l56 -35q22 -12 50 -22q27 -6 72 -10v-20q-24 3 -48 -6q-24 -7 -36 -26q-41 24 -82 62q-41 39 -82 95v-101q3 -35 -12 -56t-54 -30q-6 28 -26 40
q-21 10 -62 22l4 16q81 -18 96 -16q15 3 12 36v171v0v0zM728 526q6 -5 4 -10q-3 -3 -14 -6q-12 -1 -42 -44h156l24 26l48 -32q3 -3 4 -6q0 -6 -24 -20v-110l4 -32q0 -10 -14 -20q-13 -10 -34 -16v28h-230v-8q1 -5 -16 -16q-18 -10 -32 -10l4 64v178l44 -26h42q15 45 24 78
l52 -18v0v0zM494 224h108l22 22l52 -34q4 -13 -6 -16q-21 -9 -30 -20q-15 -26 -68 -75q-55 -49 -118 -78l-8 10q59 43 100 88q41 43 58 79h-38q-24 0 -50 -8l-22 32v0v0z" />
  </g>

</svg>
