<?xml version="1.0" standalone="no"?>
<!DOCTYPE svg PUBLIC "-//W3C//DTD SVG 1.1//EN" "http://www.w3.org/Graphics/SVG/1.1/DTD/svg11.dtd" >
<svg xmlns="http://www.w3.org/2000/svg" xmlns:xlink="http://www.w3.org/1999/xlink" version="1.1" viewBox="0 -205 1024 1024">
  <g transform="matrix(1 0 0 -1 0 819)">
   <path fill="currentColor"
d="M96 978q5 9 18 2q66 -29 103 -57q26 -21 29 -34q3 -24 -9 -39q-12 -16 -19 -17q-6 -1 -16 18q-20 35 -44 62q-27 32 -57 50q-9 5 -5 15zM40 730q5 9 18 2q58 -21 92 -46q24 -16 27 -29q4 -23 -8 -39q-12 -17 -18 -18q-7 -1 -17 18q-19 32 -38 54q-25 27 -50 43
q-10 5 -6 15zM291 791q10 -5 6 -15q-39 -128 -99 -320q-26 -87 -30 -145q-5 -118 11 -208q5 -29 -5 -41q-9 -10 -28 -7q-23 4 -36 23q-12 19 -5 46q14 53 15 111q1 43 -6 61q-7 12 -23 21q-16 10 -37 10q-13 -1 -14 15q0 15 16 16q50 -2 60 5q14 7 35 68q41 126 126 351
q4 12 14 9zM351 886q1 10 17 7q48 -5 78 -15q21 -8 25 -15q9 -22 2 -41q-8 -18 -14 -21q-5 -2 -20 14q-18 21 -36 34q-22 17 -43 24q-10 3 -9 13zM417 930q-27 0 -61 -7q-5 -1 -6 2q-13 19 -23 35q-6 10 7 7q61 -5 68 -6h133q6 0 9 4l18 28q7 8 14 1q29 -19 57 -41
q9 -8 8 -12q-2 -5 -9 -9q-26 -12 -27 -19q-2 -6 -2 -13v-104q0 -36 6 -97q1 -11 -5 -12q-43 -15 -47 -14q-2 1 -2 11v107q-79 -35 -128 -56q-20 -9 -54 -37q-5 -4 -9 -5t-8 8q-12 25 -34 44q-13 10 -12 13q2 4 12 5q46 5 98 18q75 19 135 32v117h-138zM691 894q1 9 17 8
q54 -4 88 -14q25 -8 29 -17q11 -22 4 -41q-7 -20 -13 -21q-5 -3 -21 12q-22 23 -44 36q-26 18 -51 25q-10 2 -9 12zM773 930q-27 0 -61 -7q-5 -1 -6 2q-13 19 -23 35q-6 10 7 7q61 -5 68 -6h121q6 0 9 4l18 28q7 8 14 1q29 -19 57 -41q9 -8 8 -12q-2 -5 -9 -9
q-26 -12 -27 -19q-2 -6 -2 -13v-96q0 -36 6 -97q1 -11 -5 -12q-43 -15 -47 -14q-2 1 -2 11v102q-85 -36 -140 -57q-21 -7 -55 -35q-4 -4 -8 -5t-8 8q-12 25 -34 44q-12 11 -11 14q2 3 12 4q49 5 104 18q77 17 140 33v112h-126zM383 569q-16 -47 -38 -68q-17 -14 -32 -11
q-13 4 -20 11q-5 9 -4 24q2 15 18 25q24 17 42 45q17 30 26 78q2 9 9 8q8 0 8 -10v-28h442q9 1 13 5l31 31q3 4 6 4q4 -1 8 -5q45 -35 67 -59q5 -8 -8 -9q-28 -3 -52 -21q-22 -16 -56 -56q-8 -11 -17 -7q-8 5 -1 18q18 40 27 68h-461q-4 -22 -8 -43zM655 225h190q6 0 12 7
l36 41q7 7 14 0q26 -26 44 -48q11 -14 4 -24q-5 -6 -18 -7h-282v-71q1 -18 2 -45q1 -9 -6 -13q-44 -21 -47 -20q-4 3 -1 13q3 25 4 65v71h-189q-42 -1 -73 -7q-8 -3 -11 6q-4 18 -19 30q-7 7 -4 11q4 3 11 -1q38 -8 84 -8h201v97h-127q-10 -7 -14 -11q-6 -5 -10 2
q-8 22 -30 44q-7 6 2 9q9 5 24 8q13 11 65 104h-21q-32 -1 -63 -7q-8 -3 -11 6q-4 18 -19 30q-7 7 -4 11q4 3 11 -1q38 -8 74 -8h49q34 74 37 89q3 10 9 6q26 -22 56 -53q8 -7 5 -13q-1 -5 -14 -5q-23 -2 -35 -24h106q6 0 12 7l36 41q7 7 14 0q26 -26 44 -48q11 -14 4 -24
q-5 -6 -18 -7h-216q-35 -64 -54 -95q-11 -17 -18 -30h106v26q-1 30 -4 55q-4 14 0 18q5 3 15 -1q38 -16 62 -28q5 -3 5 -7q-2 -5 -6 -6q-15 -3 -19 -10q-4 -8 -5 -21v-26h82q13 0 23 12l35 41q9 8 16 1q26 -28 45 -53q11 -15 8 -24q-3 -7 -18 -8h-191v-97z" />
  </g>

</svg>
