<?xml version="1.0" standalone="no"?>
<!DOCTYPE svg PUBLIC "-//W3C//DTD SVG 1.1//EN" "http://www.w3.org/Graphics/SVG/1.1/DTD/svg11.dtd" >
<svg xmlns="http://www.w3.org/2000/svg" xmlns:xlink="http://www.w3.org/1999/xlink" version="1.1" viewBox="0 -205 1024 1024">
  <g transform="matrix(1 0 0 -1 0 819)">
   <path fill="currentColor"
d="M594 950q7 -6 8 -14l-6 -6l-36 -14v-152h238v172l72 -24q6 -1 16 -10q2 -7 -4 -10l-30 -14v-84l2 -58q0 -13 -20 -26q-18 -14 -36 -12v38h-526l-20 -38l-64 44q24 16 24 38v158q82 -30 86 -36q4 -5 0 -10q-5 -3 -34 -14v-114h240v218l90 -32v0v0zM886 686l72 -64
q2 -4 2 -10t-8 -6h-722v-80q1 -243 -40 -344q-39 -98 -116 -163l-10 10q64 85 92 175q27 90 24 322v160l60 -52h606l40 52v0v0zM294 498h468l42 48l60 -58q3 -3 4 -6q0 -12 -12 -12h-248v-150h238l42 50l66 -58q3 -3 4 -8q0 -10 -12 -10h-338v-128l2 -103q0 -18 -18 -30
q-18 -13 -44 -14l4 137v138h-226q-21 0 -68 -8l-16 34h310v150h-174q-21 0 -68 -8l-16 36v0v0z" />
  </g>

</svg>
