<?xml version="1.0" standalone="no"?>
<!DOCTYPE svg PUBLIC "-//W3C//DTD SVG 1.1//EN" "http://www.w3.org/Graphics/SVG/1.1/DTD/svg11.dtd" >
<svg xmlns="http://www.w3.org/2000/svg" xmlns:xlink="http://www.w3.org/1999/xlink" version="1.1" viewBox="0 -52 256 256">
  <g transform="matrix(1 0 0 -1 0 204)">
   <path fill="currentColor"
d="M179 242l2 -1q0 -1 -2 -2q-4 -1 -7 -4q-1 -31 -4 -63h56l8 11l12 -10q2 -1 2 -3q0 -1 -2 -2l-5 -3l-1 -68q-1 -42 -5 -53q-3 -10 -11 -16q-7 -7 -25 -10q0 6 -6 10q-9 3 -26 8v4q27 -6 38 -5q12 1 16 8q6 9 7 49l2 75h-61q-7 -118 -78 -156l-3 3q64 52 70 153h-35
q-6 1 -10 -3l-9 8h54q3 23 3 39q2 29 0 30q0 3 -4 6l1 4zM167 132l1 3q36 -20 38 -42q2 -10 -4 -12t-7 7t-8 20q-6 12 -20 24zM109 225l2 4q41 -18 30 -42q-5 -1 -7 6q-3 9 -7 15q-4 8 -18 17zM24 160h56l6 10l16 -12q2 -2 1 -2q0 -1 -3 -1h-38v-44h24l7 9l15 -12
q4 -2 -1 -2h-45v-62q4 2 12 8q9 5 36 23l2 -3q-9 -7 -22 -18q-11 -8 -14 -11q-11 -7 -14 -11q-1 -3 -6 -11l-14 12q5 2 9 8v65h-23q-7 0 -11 -3l-9 8h43v44h-7q-7 0 -12 -3zM8 141l-2 2q14 23 22 41q9 18 15 37q6 21 5 23q-1 3 -4 6l2 2l22 -8q2 -2 -1 -2q-5 0 -9 -6
q-1 -3 -3 -8q-5 -17 -9 -25h36l6 9l16 -11q2 -2 1 -2q0 -1 -3 -1h-58q-2 -5 -7 -15q-13 -25 -29 -42z" />
  </g>

</svg>
