<?xml version="1.0" standalone="no"?>
<!DOCTYPE svg PUBLIC "-//W3C//DTD SVG 1.1//EN" "http://www.w3.org/Graphics/SVG/1.1/DTD/svg11.dtd" >
<svg xmlns="http://www.w3.org/2000/svg" xmlns:xlink="http://www.w3.org/1999/xlink" version="1.1" viewBox="0 -36 256 256">
  <g transform="matrix(1 0 0 -1 0 220)">
   <path fill="currentColor"
d="M150 163h59v28h-59v-28zM33 172.5q0 38.5 -1 62.5l15 -7h43l8 10l15 -12l-7 -6q0 -73 1 -93l-15 -7v12h-45v-18l-15 -7q1 27 1 65.5zM47 182h45v39h-45v-39zM47 139h45v36h-45v-36zM173 111v6q17 -3 26.5 -3t9.5 9v33h-59q0 -16 -10.5 -31t-32.5 -28l-2 3
q18 19 24.5 33.5t7 42.5t-1.5 65l15 -9h57l6 8l17 -10l-7 -6v-105q3 -21 -20 -28q-1 15 -30 20zM150 198h59v27h-59v-27zM45 84q0 -30 -5 -40.5t-12.5 -14t-15 2t7 15t20.5 37.5h5zM106 96q25 -9 33.5 -16.5t6.5 -16t-6 -10.5t-11 11t-24 28zM203 82q25 -14 32.5 -22.5
t5.5 -16t-6 -10.5t-9.5 10t-25.5 37zM68 95l25 -10l-8 -7v-36q0 -13 16 -12h57q18 -2 20.5 10t2.5 26h5q1 -18 4.5 -24.5t11.5 -10.5q-9 -15 -33 -15h-72q-28 -1 -28 18q0 45 -1 61z" />
  </g>

</svg>
