<?xml version="1.0" standalone="no"?>
<!DOCTYPE svg PUBLIC "-//W3C//DTD SVG 1.1//EN" "http://www.w3.org/Graphics/SVG/1.1/DTD/svg11.dtd" >
<svg xmlns="http://www.w3.org/2000/svg" xmlns:xlink="http://www.w3.org/1999/xlink" version="1.1" viewBox="0 -200 1000 1000">
  <g transform="matrix(1 0 0 -1 0 800)">
   <path fill="currentColor"
d="M916 292l-16 -140q11 -20 16 -33.5t5 -21.5q0 -11 -8 -15t-16 -4q-25 0 -47.5 22t-41 52.5t-31.5 62t-19 50.5q-39 -54 -89 -100t-116 -81l-8 15q63 42 112 99.5t84 121.5q-11 42 -18.5 84.5t-13.5 90.5q-6 -6 -25 -7q-14 -40 -31 -86.5t-34 -80.5l-17 5q4 19 8.5 43.5
t9 50.5t8.5 53t7 51l74 -18q-4 29 -6.5 58.5t-3.5 59.5h-105v-388l87 17l2 -14q-57 -20 -135.5 -46t-187.5 -58q-2 -9 -7.5 -14.5t-11.5 -7.5l-39 71q22 3 55.5 8.5t75.5 13.5v418h-81l-3 6q-10 -73 -26.5 -147.5t-45.5 -145.5t-72.5 -135.5t-107.5 -117.5l-9 15
q60 63 99 140t63 164q-5 -5 -14 -5q-12 0 -22 9q-7 25 -25 52.5t-39 47.5q-13 -26 -26.5 -51t-30.5 -49l-14 13q42 90 64.5 194t33.5 213h-91l-7 21h230l40 51l76 -53q-5 -11 -14.5 -15t-26.5 -4h-148q-5 -43 -12.5 -83.5t-18.5 -79.5h81l35 35l58 -53h110v126h-115l-7 21
h122v122l93 -7q-1 -11 -9.5 -16t-29.5 -8v-91h40l34 45l66 -47q-5 -11 -14 -15t-26 -4h-100v-126h155q-4 64 -5.5 131t-1.5 139l93 -12q-2 -9 -8.5 -12.5t-25.5 -6.5q-1 -25 -1 -49.5v-50.5q0 -70 3 -139h52l39 51l75 -54q-5 -10 -14 -14.5t-28 -4.5h-123q2 -61 8 -118
t17 -111q16 40 28.5 80.5t20.5 79.5l88 -23q-3 -9 -10.5 -12.5t-25.5 -3.5q-14 -48 -34.5 -97t-49.5 -97q5 -18 14.5 -43t19.5 -47t19.5 -37.5t14.5 -15.5q3 0 8 10t11 26t12.5 37t12.5 42zM545 227v397h-62v-409zM199 641q-9 -31 -19.5 -60.5t-22.5 -57.5q51 -17 74.5 -39
t28.5 -42q12 49 20 98.5t13 100.5h-94zM353 514q37 -43 51.5 -80.5t14.5 -66.5q0 -25 -9.5 -40t-21.5 -15q-11 0 -21 13q1 5 1 11v12q0 40 -8.5 84.5t-19.5 78.5zM793 873q34 -11 56.5 -24t36.5 -27t20 -27.5t6 -24.5q0 -15 -8 -24t-19 -9q-13 0 -23 10q-3 15 -11 31
t-18.5 32t-22.5 30t-24 25z" />
  </g>

</svg>
