<?xml version="1.0" standalone="no"?>
<!DOCTYPE svg PUBLIC "-//W3C//DTD SVG 1.1//EN" "http://www.w3.org/Graphics/SVG/1.1/DTD/svg11.dtd" >
<svg xmlns="http://www.w3.org/2000/svg" xmlns:xlink="http://www.w3.org/1999/xlink" version="1.1" viewBox="0 -205 1024 1024">
  <g transform="matrix(1 0 0 -1 0 819)">
   <path fill="currentColor"
d="M902 912l58 -56q2 -4 2 -8q0 -9 -8 -8h-388v-196h246l30 40l64 -44q6 -6 6 -8q0 -7 -32 -28v-180l4 -80q1 -11 -16 -22q-15 -9 -38 -14v56h-264v-259h298l42 49l64 -59q3 -5 4 -10q0 -9 -8 -10h-394l-32 -36l-60 50l34 32v795l60 -50h286l42 46v0v0zM566 392h264v224
h-264v-224v0v0zM168 666h186l36 46l56 -56q7 -15 -4 -18h-142v-142h84l34 44l54 -52q12 -12 -2 -20h-170v-300l190 36l6 -18q-144 -40 -210 -57q-63 -18 -108 -36t-68 -40l-44 70l184 35v310h-104q-18 0 -54 -8l-18 36h176v142h-40l-20 -6l-22 34v0v0zM94 392l10 10
q54 -39 76 -66q21 -27 30 -54q6 -27 -6 -42q-12 -16 -30 -10q-16 5 -16 26q-1 20 -16 56q-12 35 -48 80v0v0zM310 220q60 102 90 190l66 -38q3 -9 -2 -12q-6 -2 -18 -4q-11 -3 -40 -42q-29 -40 -82 -104l-14 10v0v0zM52 562q57 87 112 178q51 89 108 220l70 -30q4 -9 0 -12
q-5 -4 -16 -8q-9 -3 -26 -24q68 -32 106 -58q38 -27 50 -48q10 -21 2 -38q-7 -18 -26 -18q-18 -1 -30 26q-13 25 -38 56q-25 29 -76 64q-36 -75 -102 -168q-63 -93 -122 -150l-12 10v0v0z" />
  </g>

</svg>
