<?xml version="1.0" standalone="no"?>
<!DOCTYPE svg PUBLIC "-//W3C//DTD SVG 1.1//EN" "http://www.w3.org/Graphics/SVG/1.1/DTD/svg11.dtd" >
<svg xmlns="http://www.w3.org/2000/svg" xmlns:xlink="http://www.w3.org/1999/xlink" version="1.1" viewBox="0 -36 256 256">
  <g transform="matrix(1 0 0 -1 0 220)">
   <path fill="currentColor"
d="M35.5 110q-1.5 5 1.5 14t1.5 14.5t-23.5 13.5l2 4q24 -5 29 -2.5t41 59.5l4 -2q-23 -48 -30.5 -60.5t-7 -29t-8 -16.5t-10 5zM10 208q40 -9 34 -24t-12 -3.5t-23 24.5zM36 241q43 -12 33.5 -26t-14.5 -1.5t-21 24.5zM96 196l-9 9l49 5q-1 22 -2 37l25 -9l-7 -7
q-1 -13 0 -20l50 4l14 10l17 -14l-81 -8q1 -7 2 -16l53 5l14 10l18 -15l-84 -7q1 -9 4 -16l56 6l12 11l19 -15l-85 -10q7 -10 13 -15q16 5 37 22l15 -12l-8 -3q-18 -8 -35 -17q21 -11 46 -15l5 26h3q1 -26 10 -42q-51 4 -79 26q-44 -17 -88 -19l-1 4q49 7 80 23
q-8 13 -12 20l-53 -5l-7 -3l-10 10l67 6q-3 10 -5 15l-41 -3l-7 -3l-10 10l57 4q-1 12 -2 17l-26 -2q-4 0 -14 -4zM171 240l1 2q25 -4 30.5 -10.5t-0.5 -13.5t-12 2t-19 20zM158 23h33v65h-33v-65zM48 105l16 -10h125l7 10l17 -13l-8 -7v-62h10l14 14l18 -21h-211
q-10 0 -19 -2l-9 9h41q0 62 -1 82zM63 23h34v65h-34v-65zM110 23h35v65h-35v-65z" />
  </g>

</svg>
