<?xml version="1.0" standalone="no"?>
<!DOCTYPE svg PUBLIC "-//W3C//DTD SVG 1.1//EN" "http://www.w3.org/Graphics/SVG/1.1/DTD/svg11.dtd" >
<svg xmlns="http://www.w3.org/2000/svg" xmlns:xlink="http://www.w3.org/1999/xlink" version="1.1" viewBox="0 -36 256 256">
  <g transform="matrix(1 0 0 -1 0 220)">
   <path fill="currentColor"
d="M25 40l-11 16q4 5 5 13q0 104 -1 126l23 -10l-9 -8v-116l24 4q0 164 -1 182l23 -11l-8 -7v-162l25 4q0 102 -1 123l22 -10l-7 -8v-70q0 -24 1 -53l-15 -9v21q-62 -15 -70 -25zM228 62q-5 -43 -45 -53q-4 17 -37 26v4q38 -7 46.5 -5.5t14.5 14t8 50.5t5 113h-79
q-11 0 -21 -2l-9 10h106l10 11l17 -14l-9 -7q-2 -104 -7 -147z" />
  </g>

</svg>
