<?xml version="1.0" standalone="no"?>
<!DOCTYPE svg PUBLIC "-//W3C//DTD SVG 1.1//EN" "http://www.w3.org/Graphics/SVG/1.1/DTD/svg11.dtd" >
<svg xmlns="http://www.w3.org/2000/svg" xmlns:xlink="http://www.w3.org/1999/xlink" version="1.1" viewBox="0 -339 2048 2048">
  <g transform="matrix(1 0 0 -1 0 1709)">
   <path fill="currentColor"
d="M930 1078q-119 -3 -155 -8l-38 88q83 -20 193 -22l1 597q-9 155 -10 156q0 10 -3 23l109 -24q56 -12 69 -21q17 -11 17 -23q0 -11 -10 -22q-13 -15 -39 -21l-40 -10l2 -655l264 1v519q0 119 -7 168l109 -24q56 -12 69 -21q17 -10 17 -23q0 -11 -10 -22q-13 -15 -39 -21
l-40 -9v-566l278 1v615q0 51 -4 131q-1 21 -4 38l109 -24q56 -13 69 -21q17 -11 17 -23q0 -11 -10 -23q-13 -14 -40 -21l-39 -9v-663h17l83 99l125 -108q7 -6 10 -9q4 -5 4 -12q0 -13 -12 -22q-9 -8 -23 -8h-204l1 -760q0 -58 1 -80l4 -54q4 -82 4 -87q0 -18 -8 -27
q-21 -22 -57 -22q-24 0 -34 11q-9 9 -9 39v980h-277v-501q0 -57 1 -80l3 -55q5 -82 5 -87q0 -22 -16 -34q-19 -15 -49 -15q-23 0 -34 11q-10 10 -10 39v722h-264q0 -225 -29 -391q-25 -146 -94 -293q-39 -85 -94 -155q-49 -62 -106 -115q-24 -22 -70 -60l-27 34
q60 58 97 105q139 177 189 412q26 120 34 283q4 75 4 179zM355 1302h-58q-89 0 -171 -6q-8 -1 -21 -2l-38 87q31 -7 52 -10q46 -8 183 -8h53v404q0 41 -3 120q-1 21 -4 38l109 -24q55 -12 69 -21q16 -10 16 -23q0 -11 -10 -22q-14 -17 -39 -21l-37 -7l-1 -444h88l83 98
l120 -106q11 -10 13 -17q2 -4 2 -9q0 -11 -5 -18q-2 -4 -3 -5q-5 -3 -23 -3h-275l-1 -656q62 27 173 78l51 23q47 21 99 47l19 -38q-73 -45 -101 -62q-27 -17 -123 -70q-92 -51 -112 -62t-48 -25q-86 -43 -158 -73q-41 -18 -46 -20q-18 -9 -38 -20q-13 -47 -24 -62
q-3 -5 -8 -5q-7 0 -13 5q-10 7 -16 20l-57 129q122 32 303 102v688z" />
  </g>

</svg>
