<?xml version="1.0" standalone="no"?>
<!DOCTYPE svg PUBLIC "-//W3C//DTD SVG 1.1//EN" "http://www.w3.org/Graphics/SVG/1.1/DTD/svg11.dtd" >
<svg xmlns="http://www.w3.org/2000/svg" xmlns:xlink="http://www.w3.org/1999/xlink" version="1.1" viewBox="0 -205 1024 1024">
  <g transform="matrix(1 0 0 -1 0 819)">
   <path fill="currentColor"
d="M348 816h276v166l86 -32q6 -3 6 -8q1 -5 -40 -22v-104h194l36 44l60 -50q7 0 8 -12q1 -9 -10 -8h-288v-118h154l34 34l58 -44l4 -8q0 -7 -30 -26v-150l4 -54q0 -15 -18 -26q-18 -12 -36 -14v54h-170q-7 -78 -22 -134q-16 -54 -38 -90q48 -40 114 -65q65 -23 112 -32
q45 -8 108 -8h40v-18q-50 -4 -70 -14q-20 -9 -34 -36q-70 18 -122 38q-50 21 -94 48q-45 23 -78 53q-45 -48 -126 -93q-81 -44 -194 -68l-6 16q117 42 184 84q65 42 106 91q-60 59 -116 154l16 10q75 -93 120 -132q41 77 46 196h-164v-20q0 -12 -20 -24q-20 -10 -34 -8
l4 100v226l56 -40h160v118h-198q-34 -1 -52 -10l-26 36v0v0zM458 464h166v182h-166v-182v0v0zM678 646v-182h168v182h-168v0v0zM180 990l78 -28q14 -5 2 -16l-30 -14v-144q65 -27 98 -48q29 -21 38 -44t0 -40q-9 -19 -26 -16q-18 -1 -26 20q-6 20 -18 44q-12 22 -66 62v-600
l4 -107q0 -10 -20 -24q-21 -12 -38 -10l4 135v830v0v0zM102 764h18q7 -97 2 -142q-3 -45 -24 -74q-18 -28 -42 -28q-22 0 -28 16q-7 14 4 28q11 15 26 30q12 15 24 48q11 32 20 122v0v0z" />
  </g>

</svg>
