<?xml version="1.0" standalone="no"?>
<!DOCTYPE svg PUBLIC "-//W3C//DTD SVG 1.1//EN" "http://www.w3.org/Graphics/SVG/1.1/DTD/svg11.dtd" >
<svg xmlns="http://www.w3.org/2000/svg" xmlns:xlink="http://www.w3.org/1999/xlink" version="1.1" viewBox="0 -36 256 256">
  <g transform="matrix(1 0 0 -1 0 220)">
   <path fill="currentColor"
d="M83.5 221q-5.5 -2 -20.5 -6v-53l11 2l10 13l15 -14l-36 -8v-47l20 4l8 13l16 -14l-44 -10v-57q0 -15 14 -15h143q8 0 10 8.5t2 22.5h5q0 -11 2 -19t9 -9q-6 -11 -12.5 -13t-13.5 -2h-150q-22 0 -22 23v59l-27 -5l-5 -4l-9 7l41 8v48l-18 -3l-11 -5l-8 7l37 8v52
q-19 -5 -33 -7v6q19 4 40 12.5t29 16.5l14 -16q-11 -1 -16.5 -3zM184 247l20 -9l-7 -5v-21h11l9 8l15 -15h-35v-35h15l10 10l16 -17h-74q-11 0 -20 -2l-9 9h19q0 37 -1 60l19 -7l-6 -8v-45h19q0 63 -1 77zM182 134.5q0 8.5 -1 28.5l18 -8l-5 -7v-28h11l10 10l16 -17h-37v-39
q8 -4 18 -4.5t27 -0.5v-3q-12 -3 -16 -14q-21 2 -32 7t-19.5 15.5t-16.5 29.5q-7 -31 -26 -54l-2 3q8 16 14 40t9 58l19 -8l-6 -7q-4 -16 -6 -26q5 -9 11.5 -17.5t13.5 -13.5v55.5zM100 185l-2 3q20 26 29 57l15 -11l-7 -4q-15 -26 -35 -45zM125 54l-13 -8q1 27 1 92
q-4 -4 -17 -16l-2 3q15 18 22.5 35t15.5 41l15 -12l-7 -5l-16 -30l8 -5l-7 -7v-88z" />
  </g>

</svg>
