<?xml version="1.0" standalone="no"?>
<!DOCTYPE svg PUBLIC "-//W3C//DTD SVG 1.1//EN" "http://www.w3.org/Graphics/SVG/1.1/DTD/svg11.dtd" >
<svg xmlns="http://www.w3.org/2000/svg" xmlns:xlink="http://www.w3.org/1999/xlink" version="1.1" viewBox="0 -36 256 256">
  <g transform="matrix(1 0 0 -1 0 220)">
   <path fill="currentColor"
d="M148 121l-6 -4v-5h49l12 11l17 -18h-78v-12h75l14 10l17 -17h-208q-11 0 -21 -2l-9 9h56q0 18 -1 30l24 -7l-9 -5v-18h48q0 23 -1 35zM108 81l-6 -1l-5 -4q19 -4 20.5 -8t-1 -8t-6.5 1.5t-15 11.5q-5 -4 -12 -8.5t-20 -7.5l-1 2q21 11 29 27zM210 57v-7h-161v7h161z
M219 27q0 -5 1 -14l-15 -6v8h-152l-7 -5l-15 12l8 4q0 33 -1 54l20 -7l-5 -5v-46h152q0 50 -1 58l21 -7l-6 -5v-41zM177 83q-6 -3 -11 -7q19 -5 22 -7t0.5 -8t-7.5 0.5t-17 11.5q-15 -11 -29 -16l-3 2q22 12 29 28zM109 46q-6 -3 -12 -8q18 -2 23.5 -5t1.5 -8t-9.5 1
t-18.5 11q-10 -10 -36 -14l-1 2q29 11 35 27zM177 48l-6 -3l-5 -5q18 -2 22.5 -5.5t2 -9t-8.5 1t-17 11.5q-13 -11 -30 -16l-2 3q19 9 28 28zM112 196q0 11 -1 16l20 -6l-5 -5v-5h21l11 7l17 -14h-49v-13h21q13 4 30 13.5t31 21.5l16 -15l-11 -1q-19 -10 -42 -19h44l13 9
l17 -16h-84q-36 -13 -62 -18h81l12 10l17 -17h-114q-1 -7 2 -8t8 -1h103q10 0 12.5 4t2.5 19h5q1 -12 3 -16.5t10 -5.5q-5 -6 -10.5 -8t-15.5 -3h-117q-16 1 -16 11v10q-38 -8 -71 -13l-1 5q29 4 72 15q0 6 -1 10l13 -6q17 4 41 12h-95q-11 0 -21 -2l-9 9h102v13h-37
q-11 0 -20 -2l-10 9h67zM158 216h-12l-8 -3l-8 10h28v12q0 5 -1 11l23 -7l-8 -6v-11h37l12 10l16 -17h-65v-10l-14 -5v15v1zM133 216h-38v-13l-13 -4v16h-35q-11 0 -20 -2l-10 9h65v13q0 4 -1 12l22 -7l-8 -6v-12h17l8 8z" />
  </g>

</svg>
