<?xml version="1.0" standalone="no"?>
<!DOCTYPE svg PUBLIC "-//W3C//DTD SVG 1.1//EN" "http://www.w3.org/Graphics/SVG/1.1/DTD/svg11.dtd" >
<svg xmlns="http://www.w3.org/2000/svg" xmlns:xlink="http://www.w3.org/1999/xlink" version="1.1" viewBox="0 -120 1000 1000">
  <g transform="matrix(1 0 0 -1 0 880)">
   <path fill="currentColor"
d="M274 402h-183l-14 28h381v102l49 -4q43 -3 43 -17q0 -5 -15 -13l-14 -8v-60h287l46 55l81 -63v-20h-196q-85 -111 -195 -189q173 -63 396 -85v-17q-33 -4 -47 -15q-11 -9 -24 -34q-80 15 -208 54q-76 24 -167 65q-79 -44 -213 -81q-108 -29 -211 -42l-5 18q102 18 223 61
q85 32 159 73q-61 43 -120 115q-30 36 -53 77zM302 402q22 -35 63 -74q60 -55 127 -91q45 34 92 80q48 47 73 85h-355zM227 510v243l72 -27h407l27 38l58 -40q15 -9 15 -16q0 -9 -19 -16l-10 -4v-160l-62 -10v41h-427v-39zM288 698v-112h427v112h-427zM662 838h-130l-9 26
h139v94l79 -8q21 -3 21 -14q0 -8 -12 -13l-28 -11v-48h89l49 57l90 -65v-18h-228v-61l-60 -8v69zM263 838h-206l-10 26h216v94l79 -8q21 -3 21 -14q0 -8 -12 -13l-28 -11v-48h37l48 57l90 -65v-18h-175v-68l-60 -9v77z" />
  </g>

</svg>
