<?xml version="1.0" standalone="no"?>
<!DOCTYPE svg PUBLIC "-//W3C//DTD SVG 1.1//EN" "http://www.w3.org/Graphics/SVG/1.1/DTD/svg11.dtd" >
<svg xmlns="http://www.w3.org/2000/svg" xmlns:xlink="http://www.w3.org/1999/xlink" version="1.1" viewBox="0 -205 1024 1024">
  <g transform="matrix(1 0 0 -1 0 819)">
   <path fill="currentColor"
d="M134 904q60 -33 88 -56q26 -21 40 -42q12 -19 12 -40q-1 -22 -14 -34q-11 -13 -28 -8q-17 3 -22 34q-3 29 -24 62q-18 30 -62 72l10 12v0v0zM42 568h144l36 44l52 -42q12 -7 12 -14q0 -3 -36 -32v-290q17 -64 68 -99q51 -36 150 -46l94 -2h266q71 7 166 20v-24
q-35 -6 -58 -12q-24 -6 -36 -36h-324q-90 4 -156 16t-104 42q-37 28 -62 69q-24 42 -42 42q-16 -1 -52 -52q-37 -48 -62 -105l-54 38q53 49 158 151v306h-80q-30 1 -54 -10l-26 36v0v0zM590 844h220l26 36l60 -46q6 -4 6 -8q0 -6 -32 -30v-118l4 -78q-1 -11 -16 -22
q-15 -9 -38 -12v24h-354v-6q1 -9 -16 -18q-18 -7 -38 -8l4 104v226l58 -44h86q22 62 44 134q78 -27 78 -32v-8q0 -3 -18 -8q-15 -6 -32 -24q-18 -18 -42 -62v0v0zM466 618h354v86h-354v-86v0v0zM466 732h354v84h-354v-84v0v0zM374 506h456l38 48l56 -56q3 -3 4 -8
q0 -10 -12 -10h-250v-108h114l36 44l62 -56q6 -5 6 -10q0 -6 -8 -6h-210v-120h188l38 48l68 -60q3 -16 -8 -16h-536q-21 0 -68 -8l-16 36h284v120h-126q-21 0 -68 -8l-16 36h210v108h-170q-21 0 -56 -8l-16 34v0v0z" />
  </g>

</svg>
