<?xml version="1.0" standalone="no"?>
<!DOCTYPE svg PUBLIC "-//W3C//DTD SVG 1.1//EN" "http://www.w3.org/Graphics/SVG/1.1/DTD/svg11.dtd" >
<svg xmlns="http://www.w3.org/2000/svg" xmlns:xlink="http://www.w3.org/1999/xlink" version="1.1" viewBox="0 -246 2048 2048">
  <g transform="matrix(1 0 0 -1 0 1802)">
   <path fill="currentColor"
d="M359 1424h-222l-20 51h252q46 242 72 455q192 -28 192 -66q0 -25 -86 -49q-24 -156 -61 -340h249l78 102q123 -107 123 -139q0 -14 -16 -24l-53 -31q-48 -448 -162 -739q239 -148 239 -246q0 -68 -63 -68q-31 0 -52 33q-65 90 -167 182q-146 -280 -506 -448l-33 41
q309 184 453 479q-122 89 -266 160q-20 -72 -50 -156l-106 29q128 398 205 774zM475 1424q-18 -94 -63 -279q-53 -213 -86 -315q151 -60 285 -131q100 261 139 725h-275zM1207 1459h292v463q209 -6 209 -53q0 -27 -88 -58v-352h104l91 135q72 -75 124 -149l-20 -37h-299
v-621h115l96 141q75 -78 127 -151l-23 -41h-315v-643h-121v643h-631l-20 51h213v744q73 -30 146 -72zM1499 1408h-317v-621h317v621z" />
  </g>

</svg>
