<?xml version="1.0" standalone="no"?>
<!DOCTYPE svg PUBLIC "-//W3C//DTD SVG 1.1//EN" "http://www.w3.org/Graphics/SVG/1.1/DTD/svg11.dtd" >
<svg xmlns="http://www.w3.org/2000/svg" xmlns:xlink="http://www.w3.org/1999/xlink" version="1.1" viewBox="0 -36 256 256">
  <g transform="matrix(1 0 0 -1 0 220)">
   <path fill="currentColor"
d="M121 159l21 -8l-7 -6v-9h39l5 8l16 -10l-6 -6q0 -19 1 -37l-15 -4v7h-40q0 -5 1 -13l-15 -5q1 10 1 18h-39v-5l-15 -4q1 18 1 28.5t-1 27.5l17 -5h37q0 12 -1 23zM83 101h39v28h-39v-28zM135 101h40v28h-40v-28zM108 68l-6 -5v-23q0 -8 7 -8h44q10 0 11 24h4
q0 -23 10 -24q-6 -11 -22 -11h-52q-16 0 -16 13v20l-1 21zM170 71l2 3q25 -7 27.5 -13.5t-0.5 -13.5t-9 2.5t-20 21.5zM116 77q24 -8 26 -14.5t-3.5 -11t-9 5t-14.5 17.5zM70 68l4 -1q-2 -28 -10 -32.5t-14.5 -0.5t4.5 11t16 23zM141 240l15 -8h62l8 11l15 -11l-8 -9v-190
q0 -20 -22 -26q-3 15 -29 20v4q24 -2 30.5 -1.5t6.5 10.5v125h-64v-4l-14 -4v83zM155 202h64v23h-64v-23zM155 195v-23h64v23h-64zM38 232h61l7 11l16 -13l-7 -8v-26q0 -15 1 -33l-15 -6v8h-64v-150l-15 -8q1 20 1 43v145q0 23 -1 45zM37 195v-23h64v23h-64zM37 225v-23h64
v23h-64z" />
  </g>

</svg>
