<?xml version="1.0" standalone="no"?>
<!DOCTYPE svg PUBLIC "-//W3C//DTD SVG 1.1//EN" "http://www.w3.org/Graphics/SVG/1.1/DTD/svg11.dtd" >
<svg xmlns="http://www.w3.org/2000/svg" xmlns:xlink="http://www.w3.org/1999/xlink" version="1.1" viewBox="0 -120 1000 1000">
  <g transform="matrix(1 0 0 -1 0 880)">
   <path fill="currentColor"
d="M425 691q51 -18 79 -41q38 -31 38 -68q0 -13 -11 -22t-25 -9q-11 0 -18 7q-3 3 -19 46q-21 48 -54 72zM422 901q115 -44 115 -104q0 -15 -10 -23q-9 -8 -21 -8q-9 0 -17 5q-8 6 -21 40q-23 54 -56 75zM563 181q31 67 42 119q17 74 17 222v366l57 -35q60 20 92 36
q31 17 83 53l52 -67q5 -7 5 -11q0 -14 -12 -14q-7 0 -16 3l-18 6q-80 -17 -178 -27v-191h151l38 51l72 -61v-17h-108v-447l-63 -14v461h-90q-2 -195 -25 -282q-23 -81 -83 -163zM414 89v-12q0 -15 -9 -15q-7 0 -16 10l-43 45l125 69v239h-84l-13 28h90l20 36l60 -36
q14 -8 14 -19t-18 -14l-13 -2v-235q57 -59 176 -59h245l-2 -13q-30 -8 -39 -44h-184q-90 0 -153 43q-32 20 -68 65zM39 569q79 155 131 384l79 -28q10 -3 10 -15q0 -9 -13 -12l-23 -6l-24 -65h69l19 26l62 -36q12 -7 12 -14q0 -8 -14 -13l-25 -10l-72 -104h49l23 32l49 -38
q10 -7 10 -15q0 -7 -12 -11l-14 -6v-326l-56 -12v31h-155v-41l-56 -12v328l-39 -49zM186 799q-13 -34 -52 -116l13 -7h73q22 59 42 123h-76zM144 487v-129h50v129h-50zM144 650v-136h50v136h-50zM246 487v-129h53v129h-53zM246 650v-136h53v136h-53zM107 249q17 -60 17 -117
q0 -75 -44 -75q-14 0 -22 8q-7 7 -7 15t5 21q29 64 36 147zM160 246q28 -38 37 -58q16 -33 16 -70q0 -25 -15 -39q-10 -10 -22 -10q-20 0 -20 29q0 7 2 31q2 28 2 39q0 29 -12 76zM225 270q68 -73 68 -126q0 -22 -14 -35q-8 -8 -19 -8q-22 0 -22 34q0 47 -8 79q-4 17 -16 52
zM278 291q40 -22 66 -49q35 -38 35 -76q0 -17 -11 -27q-8 -7 -17 -7q-14 0 -20 13q-2 5 -6 22q-14 58 -57 116z" />
  </g>

</svg>
