<?xml version="1.0" standalone="no"?>
<!DOCTYPE svg PUBLIC "-//W3C//DTD SVG 1.1//EN" "http://www.w3.org/Graphics/SVG/1.1/DTD/svg11.dtd" >
<svg xmlns="http://www.w3.org/2000/svg" xmlns:xlink="http://www.w3.org/1999/xlink" version="1.1" viewBox="0 -205 1024 1024">
  <g transform="matrix(1 0 0 -1 0 819)">
   <path fill="currentColor"
d="M52 914h416l26 34l48 -40q3 -3 4 -8q0 -12 -12 -12h-82v-274l42 2l28 42l46 -40q16 -16 0 -22l-116 -4v-46q3 -12 -14 -24q-16 -12 -34 -12v80l-336 -16q-18 -1 -30 -10l-18 32l136 6v286h-34q-21 0 -56 -8l-14 34v0v0zM204 606l200 6v74h-200v-80v0v0zM204 712h200v80
h-200v-80v0v0zM204 818h200v70h-200v-70v0v0zM44 490h180l26 30l50 -40q3 -3 4 -8q0 -4 -8 -8q-24 -9 -32 -38q-6 -30 -32 -98q35 -30 50 -50q15 -18 18 -36q4 -16 0 -28q-6 -13 -20 -14q-15 -1 -24 22q-9 21 -18 36q-6 15 -24 30q-15 -40 -54 -94q-36 -50 -126 -127l-8 12
q71 80 104 131q32 50 56 106q-42 42 -96 84l8 12q60 -30 102 -62q21 72 30 114h-114q-25 0 -46 -8l-26 34v0v0zM310 486h144l26 30l56 -40q3 -3 4 -8q0 -4 -8 -8q-28 -9 -40 -44q-10 -33 -46 -110q48 -54 66 -84t22 -48q2 -18 -4 -30q-5 -11 -22 -13q-15 -1 -24 23t-20 48
q-10 21 -40 64q-24 -45 -68 -98q-43 -53 -136 -121l-8 12q75 72 114 123q38 51 74 118q-39 38 -90 86l8 12q58 -37 98 -70q29 81 44 132h-78q-25 0 -46 -8l-26 34v0v0zM734 642q83 -28 86 -34q0 -6 -2 -8q-3 0 -32 -18v-138q-6 -151 -54 -224q-45 -73 -108 -115
q-62 -42 -148 -76l-6 16q73 36 134 90q59 50 94 117q33 64 36 170v220v0v0v0zM600 766l52 -34h50l40 150h-104q-21 0 -60 -8l-20 36h332l38 46l54 -52q2 -3 8 -8q4 -13 -6 -14h-182l-78 -150h132l24 40l66 -40l4 -8q1 -6 -28 -32v-262l4 -90q0 -15 -18 -24q-15 -9 -42 -12
l4 122v280h-220v-292l4 -86q3 -15 -20 -30q-21 -12 -38 -12l4 124v356v0v0zM762 242l8 14q45 -17 100 -52q54 -37 76 -65q21 -30 16 -54q-4 -23 -22 -26q-18 0 -32 20q-15 21 -30 48q-15 24 -38 51q-24 26 -78 64v0v0z" />
  </g>

</svg>
