<?xml version="1.0" standalone="no"?>
<!DOCTYPE svg PUBLIC "-//W3C//DTD SVG 1.1//EN" "http://www.w3.org/Graphics/SVG/1.1/DTD/svg11.dtd" >
<svg xmlns="http://www.w3.org/2000/svg" xmlns:xlink="http://www.w3.org/1999/xlink" version="1.1" viewBox="0 -205 1024 1024">
  <g transform="matrix(1 0 0 -1 0 819)">
   <path fill="currentColor"
d="M522 446l58 -44h250l28 38l60 -44q6 -6 6 -8q0 -7 -32 -32v-196l4 -87q-1 -13 -16 -26q-15 -10 -42 -14v82h-264v-48q0 -13 -20 -26q-21 -12 -36 -12l4 125v292v0v0zM574 142h264v232h-264v-232v0v0zM858 818l38 48l58 -54q3 -4 4 -8q4 -12 -12 -12h-392q-21 0 -68 -8
l-16 34h388v0v0zM880 728q13 -7 14 -10q1 -9 -10 -12q-27 -5 -38 -22q-10 -16 -86 -136h124l38 54l62 -62q3 -3 4 -8q0 -10 -12 -10h-456q-21 1 -60 -10l-18 36h288q50 110 86 212l64 -32v0v0zM536 744l12 12q66 -48 88 -72q21 -25 30 -46q7 -21 2 -38q-5 -15 -16 -24
q-11 -7 -28 -2q-16 2 -16 26q-1 23 -14 56t-58 88v0v0zM618 972l10 12q63 -31 90 -52q26 -20 34 -40q6 -18 -2 -38q-6 -21 -30 -20q-21 0 -24 18q-3 19 -18 50q-12 29 -60 70v0v0zM372 682l50 -38q18 -6 4 -20l-20 -16v-200l4 -76q0 -12 -18 -24q-17 -9 -34 -12v44h-172
v-205l158 75q-25 38 -56 68l10 14q57 -30 90 -60q34 -30 44 -56q8 -27 2 -45q-7 -20 -26 -20q-18 -1 -24 16q-5 17 -10 29q-4 11 -16 34q-132 -77 -152 -93q-19 -16 -56 -56l-56 56q36 21 42 36v511q-55 -84 -98 -126l-14 12q75 113 126 218q50 103 94 236l68 -30
q12 -8 4 -16q-22 -3 -34 -20q86 -45 118 -68q30 -25 40 -46q8 -21 2 -42q-6 -18 -24 -20q-17 -1 -28 20q-11 18 -28 52q-18 31 -90 86q-30 -60 -54 -110q-23 -48 -64 -114l28 -26h166l24 32v0v0zM186 622v-114h172v114h-172v0v0zM186 482v-116h172v116h-172v0v0zM232 800
l10 10q48 -31 66 -58q15 -28 10 -50q-7 -20 -20 -22q-12 -3 -20 4q-7 5 -10 22q-1 17 -8 40q-5 24 -28 54v0v0z" />
  </g>

</svg>
