<?xml version="1.0" standalone="no"?>
<!DOCTYPE svg PUBLIC "-//W3C//DTD SVG 1.1//EN" "http://www.w3.org/Graphics/SVG/1.1/DTD/svg11.dtd" >
<svg xmlns="http://www.w3.org/2000/svg" xmlns:xlink="http://www.w3.org/1999/xlink" version="1.1" viewBox="0 -36 256 256">
  <g transform="matrix(1 0 0 -1 0 220)">
   <path fill="currentColor"
d="M105.5 57.5q-4.5 -19.5 -13 2.5t-21.5 45q-22 -46 -60 -82l-2 4q34 41 54 91q-18 27 -38 56l3 3q28 -29 41 -46q11 37 14 77h-37q-11 -1 -20 -3l-9 10h65l8 11l16 -12l-8 -8q-7 -52 -20 -86q32 -43 27.5 -62.5zM179 48q0 -19 13 -19h25q9 3 10.5 17t2.5 30h5q0 -13 2 -27
t9 -19q-7 -15 -28 -15h-30q-23 0 -23 30v160q0 10 -1 41l22 -8l-7 -8v-182zM137 190l-8 -7v-75h81l13 13l17 -20h-111l-9 -9l-12 13l7 6v55q0 11 -1 31z" />
  </g>

</svg>
