<?xml version="1.0" standalone="no"?>
<!DOCTYPE svg PUBLIC "-//W3C//DTD SVG 1.1//EN" "http://www.w3.org/Graphics/SVG/1.1/DTD/svg11.dtd" >
<svg xmlns="http://www.w3.org/2000/svg" xmlns:xlink="http://www.w3.org/1999/xlink" version="1.1" viewBox="0 -36 256 256">
  <g transform="matrix(1 0 0 -1 0 220)">
   <path fill="currentColor"
d="M99 188q31 40 36 60l19 -12l-9 -3q-15 -23 -43 -47zM218 216l11 11l15 -18h-119l3 7h90zM121 161l-13 -3l-9 9h23l4 32l13 -4h70l6 7l14 -10l-7 -5l-1 -20h5l8 7l12 -14h-26l-1 -21h7l8 6l12 -13h-27q-2 -8 -4.5 -12.5t-13.5 -8.5q-3 11 -17 13v4q14 -3 17.5 -2.5
t4.5 6.5h-76l-6 -6l-12 10l6 5zM134 167h75l1 21h-73zM130 139h42q-1 3 -2.5 9t-6.5 12l3 2q12 -6 15.5 -11t-6.5 -12h32l2 21h-76zM179.5 180q4.5 -4 -1 -10t-8 1t-9.5 16l2 2q12 -5 16.5 -9zM201 105l14 10l18 -17h-88q-10 0 -19 -2l-9 9h84zM154 54q-10 -5 -22.5 -16.5
t-30.5 -21.5l-3 3q31 23 39 46zM236.5 36q2.5 -7 -1.5 -15t-10 3.5t-33 35.5l3 2q39 -19 41.5 -26zM217 80l13 10l16 -17h-67v-60l-13 -4v64h-37q-10 0 -19 -2l-9 9h116zM31 58l-7 -8l-11 11l7 6v128l20 -8l-7 -10v-112h18q0 162 -1 179l20 -10l-6 -7v-162h18q0 109 -1 129
l18 -11l-4 -7v-66q0 -30 1 -58l-14 -8v14h-51z" />
  </g>

</svg>
