<?xml version="1.0" standalone="no"?>
<!DOCTYPE svg PUBLIC "-//W3C//DTD SVG 1.1//EN" "http://www.w3.org/Graphics/SVG/1.1/DTD/svg11.dtd" >
<svg xmlns="http://www.w3.org/2000/svg" xmlns:xlink="http://www.w3.org/1999/xlink" version="1.1" viewBox="0 -205 1024 1024">
  <g transform="matrix(1 0 0 -1 0 819)">
   <path fill="currentColor"
d="M662 932l88 -40q6 -6 -2 -14l-36 -12v-356q50 62 92 124q41 62 80 134q75 -43 76 -52q-1 -7 -8 -8h-16q-12 -1 -32 -22q-18 -21 -66 -84q-46 -61 -124 -146v-337q-1 -32 14 -34q12 -3 24 -4h102l24 4q23 6 38 50l6 165h20l6 -110q5 -63 38 -79q-9 -27 -32 -46
q-21 -19 -48 -24l-34 -4h-122q-27 0 -48 6q-19 5 -32 22q-6 18 -6 54v289q-58 -57 -130 -108l-10 14q90 86 138 142v476v0v0zM538 486q15 -10 0 -16l-22 -12v-296l4 -85q0 -15 -18 -30q-15 -13 -36 -14v90q-165 -34 -222 -50q-55 -15 -88 -42l-48 56q20 7 34 22v405l74 -28
q7 -7 2 -14l-26 -12v-355l272 39v372l74 -30v0v0zM320 944l78 -30q10 -6 2 -14l-30 -14v-118h108l32 46l60 -56q6 -13 -6 -16h-194v-142h150l34 46q66 -55 66 -64t-20 -8h-462q-32 -1 -58 -10l-24 36h114v228l72 -32q6 -6 0 -12l-22 -14v-170h100v344v0v0zM216 168
q45 107 72 200q24 92 34 190l74 -20q9 -9 -2 -14q-21 -6 -32 -36q-9 -29 -26 -94q63 -58 84 -88q18 -29 18 -52q-1 -24 -14 -32q-12 -10 -24 -4q-13 3 -16 36q-3 32 -14 58q-12 26 -44 62q-39 -130 -96 -214l-14 8v0v0z" />
  </g>

</svg>
