<?xml version="1.0" standalone="no"?>
<!DOCTYPE svg PUBLIC "-//W3C//DTD SVG 1.1//EN" "http://www.w3.org/Graphics/SVG/1.1/DTD/svg11.dtd" >
<svg xmlns="http://www.w3.org/2000/svg" xmlns:xlink="http://www.w3.org/1999/xlink" version="1.1" viewBox="0 -36 256 256">
  <g transform="matrix(1 0 0 -1 0 220)">
   <path fill="currentColor"
d="M224 102l-14 -6v11h-43l15 -9l-7 -3l-5 -17h49l14 13l14 -20h-79q-17 -47 -85 -64l-1 5q52 18 72 59h-30q-11 -1 -21 -3l-9 10h62q4 17 5 29h-30v-8l-14 -5q1 21 1 45.5t-1 44.5l15 -8h76l10 9l14 -13l-9 -5q0 -51 1 -65zM131 147h79v22h-79v-22zM131 114h79v26h-79v-26z
M75 221l12 13l17 -20h-41q-8 -36 -16 -61h30l8 10l14 -13l-8 -6q0 -82 1 -102l-14 -8v19h-31v-26l-14 -7q1 38 1 101q-11 -26 -29 -48l-3 3q33 59 46 138h-9q-10 0 -19 -2l-9 9h64zM47 60h31v86h-31v-86zM173 64q58 -24 64.5 -34t2 -18t-15.5 8t-52 40zM170 207h-27v-13
q0 -1 1 -11l-15 -5q1 7 1 11v17h-5q-14 0 -24 -2l-10 9h39v8q0 1 -1 25l23 -6l-9 -5v-21h6l10 10zM249 208h-40v-8q0 -1 1 -13l-16 -5q2 6 2 17v9q-9 0 -19 -2l-10 8h29v11q0 11 -1 22l23 -7l-9 -6v-19h17l9 10z" />
  </g>

</svg>
