<?xml version="1.0" standalone="no"?>
<!DOCTYPE svg PUBLIC "-//W3C//DTD SVG 1.1//EN" "http://www.w3.org/Graphics/SVG/1.1/DTD/svg11.dtd" >
<svg xmlns="http://www.w3.org/2000/svg" xmlns:xlink="http://www.w3.org/1999/xlink" version="1.1" viewBox="0 -36 256 256">
  <g transform="matrix(1 0 0 -1 0 220)">
   <path fill="currentColor"
d="M85 215l12 11l16 -18h-43q-8 -36 -16 -60h30l9 10l13 -15l-8 -5q0 -78 1 -96l-14 -8v17h-31v-24l-14 -6q1 46 1 94q-12 -24 -31 -45l-3 2q35 55 48 135h-9q-10 0 -19 -2l-9 10h67zM54 58h31v83h-31v-83zM153 247q24 -12 27 -20t-4 -16t-9.5 4t-15.5 29zM140.5 165
q16.5 17 22.5 30h-30q-10 0 -19 -2l-9 9h105l13 12l17 -19h-72l16 -10q-8 -2 -19 -11.5t-35 -28.5l80 1q-11 13 -22 23l2 3q13 -6 26 -14t16.5 -15t-1 -16t-8 -2.5t-10.5 16.5q-30 -3 -54.5 -6.5t-35.5 -11.5l-13 21q14 4 30.5 21zM161 119l-6 -6q-3 -53 -23 -74.5
t-51 -30.5l-1 3q27 14 41 33t17 37t3 47zM198 119l-8 -7v-62q-2 -23 14 -22h13q7 0 9.5 7.5t2.5 29.5h5q0 -18 2 -26t9 -10q-9 -14 -25 -14h-24q-21 -2 -19 29q0 57 -1 86z" />
  </g>

</svg>
