<?xml version="1.0" standalone="no"?>
<!DOCTYPE svg PUBLIC "-//W3C//DTD SVG 1.1//EN" "http://www.w3.org/Graphics/SVG/1.1/DTD/svg11.dtd" >
<svg xmlns="http://www.w3.org/2000/svg" xmlns:xlink="http://www.w3.org/1999/xlink" version="1.1" viewBox="0 -205 1024 1024">
  <g transform="matrix(1 0 0 -1 0 819)">
   <path fill="currentColor"
d="M352 832h112l38 44l52 -52q3 0 4 -6q0 -12 -12 -12h-176v-108h72l24 32l52 -36q7 -6 8 -12q0 -4 -30 -22v-90h20l24 30l38 -38q3 0 4 -6q0 -12 -12 -12h-74v-76l4 -58q0 -15 -18 -26q-19 -10 -34 -10v34h-78v-62q51 -21 94 -50q39 -28 52 -52q12 -24 6 -42
q-7 -18 -26 -18q-17 -1 -28 22q-10 23 -34 58q-23 34 -64 62v-166l4 -75q0 -15 -20 -28q-17 -13 -34 -14l4 115v250h-84v-259l4 -82q0 -14 -18 -26q-18 -11 -36 -14l4 122v143q-73 -119 -154 -187l-10 10q57 76 100 149q42 72 66 144h-56q-24 0 -48 -6l-24 32h126v110h-88
q-21 0 -50 -8l-22 34h160v102h-56q-25 0 -52 -6l-20 32h128v108h-68q-15 0 -62 -8l-16 34h276q39 75 70 148l64 -34q9 -4 4 -10q-3 -6 -18 -6q-13 -1 -32 -20q-18 -18 -60 -78v0v0zM324 698v108h-84v-108h84v0v0zM240 672v-102h84v102h-84v0v0zM370 672v-102h78v102h-78v0v0
zM240 544v-110h84v110h-84v0v0zM370 544v-110h78v110h-78v0v0zM144 964l8 12q59 -25 86 -46q27 -22 30 -40q4 -19 -6 -34q-9 -14 -26 -12q-16 3 -22 24q-6 20 -18 44q-13 21 -52 52v0v0zM596 792l56 -34h44l22 136h-102q-39 -3 -54 -12l-22 38h358l34 48l62 -56
q12 -12 -8 -18h-204l-60 -136h140l26 40l62 -44l4 -8q1 -6 -30 -30v-362l4 -98q0 -13 -18 -22q-15 -8 -36 -10v48h-230v-12q0 -12 -20 -20q-19 -10 -32 -10l4 108v454v0v0zM644 298h230v130h-230v-130v0v0zM644 454h230v128h-230v-128v0v0zM644 608h230v124h-230v-124v0v0z
M480 45q111 81 210 191l58 -40q9 -7 -2 -16q-28 -4 -40 -10q-11 -7 -58 -41q-48 -36 -158 -100l-10 16v0v0zM780 220l8 16q74 -33 118 -60q45 -26 60 -53q16 -27 8 -48q-9 -20 -26 -20q-18 0 -30 24t-42 60q-27 32 -96 81v0v0z" />
  </g>

</svg>
