<?xml version="1.0" standalone="no"?>
<!DOCTYPE svg PUBLIC "-//W3C//DTD SVG 1.1//EN" "http://www.w3.org/Graphics/SVG/1.1/DTD/svg11.dtd" >
<svg xmlns="http://www.w3.org/2000/svg" xmlns:xlink="http://www.w3.org/1999/xlink" version="1.1" viewBox="0 -205 1024 1024">
  <g transform="matrix(1 0 0 -1 0 819)">
   <path fill="currentColor"
d="M420 714l56 -38q18 -7 4 -22l-28 -20v-186l4 -88q0 -13 -18 -26q-18 -12 -36 -14v36h-200v-221l192 85q-27 38 -68 76l10 12q67 -37 98 -62q30 -24 42 -50q12 -28 4 -46q-9 -16 -24 -17q-15 0 -24 9q-7 9 -10 24q-4 14 -14 34q-165 -84 -192 -105q-26 -18 -52 -52l-56 54
q39 26 46 40v523q-61 -85 -112 -134l-12 10q74 105 146 228q69 120 108 220l66 -36q12 -7 4 -16q-27 -1 -42 -26q66 -21 118 -48q48 -25 64 -50q16 -24 8 -42q-6 -19 -24 -20t-30 22q-13 21 -52 58q-39 33 -96 66q-56 -102 -118 -192l22 -24h188l28 38v0v0zM202 648v-118
h200v118h-200v0v0zM202 504v-122h200v122h-200v0v0zM268 800l10 10q53 -30 70 -54q18 -21 12 -42q-3 -18 -18 -24q-13 -4 -22 2q-9 3 -12 24q-3 18 -12 40q-8 20 -28 44v0v0zM720 944q6 -3 6 -6q3 -6 -8 -12q-16 -5 -26 -16q-9 -9 -18 -36q-9 -28 -48 -130h238l28 38l62 -44
q18 -12 18 -18q0 -7 -12 -10q-12 -1 -24 -8q-13 -7 -34 -32q-21 -23 -78 -112l-18 10l66 150h-256q-55 -141 -122 -240l-14 8q53 119 98 260q43 141 62 228l80 -30v0v0zM756 642q6 -1 6 -10q0 -3 -6 -6l-20 -10q18 -168 42 -252q23 -83 80 -166q57 -80 138 -97v-18
q-32 1 -52 -2t-46 -28q-52 57 -94 133q-40 75 -58 154q-16 76 -38 254q-9 -191 -36 -286q-25 -93 -88 -162q-62 -66 -208 -131l-8 16q108 65 166 121q57 57 88 156t38 366l96 -32v0v0z" />
  </g>

</svg>
