<?xml version="1.0" standalone="no"?>
<!DOCTYPE svg PUBLIC "-//W3C//DTD SVG 1.1//EN" "http://www.w3.org/Graphics/SVG/1.1/DTD/svg11.dtd" >
<svg xmlns="http://www.w3.org/2000/svg" xmlns:xlink="http://www.w3.org/1999/xlink" version="1.1" viewBox="0 -36 256 256">
  <g transform="matrix(1 0 0 -1 0 220)">
   <path fill="currentColor"
d="M68 225q0 9 -1 21l22 -7l-8 -6v-8h25l10 9l16 -16h-51v-9h20l9 8l15 -15h-71q-11 0 -21 -2l-11 9h46v9h-30q-11 1 -21 -2l-8 9h59zM47 192h53l7 8l13 -10l-6 -4v-19l-13 -3v2h-5l7 -5q-6 -1 -16 -9l38 4l1 -3q-99 -18 -107 -22l-10 14q9 0 45 3q-5 9 -11 16l2 1
q13 -4 16 -8t-4 -9l22 2q4 6 8 16h-41v-2l-13 -4q1 22 0 38zM46 173h55v12h-55v-12zM178 246l21 -8l-8 -5v-13h27l7 8l15 -13q-12 -1 -30 -14l-2 3l9 9h-26v-17h16l9 7l11 -12l-9 -5q-11 -12 -19 -19q21 -13 48 -15v-3q-12 -2 -15 -11q-19 5 -42 21q-19 -14 -49 -21l-2 4
q26 10 42 24l-21 19l2 4l26 -17q10 9 17 17h-34q-9 0 -12 -2l-9 9h28v17h-27v-28q0 -28 -32 -51l-3 2q21 20 22 47v43l12 -6h28v26zM43 97q0 22 -1 35l15 -4h24q8 11 11 19l18 -6q-9 -4 -20 -13h99l7 9l15 -11l-7 -5v-15q0 -7 1 -13l-16 -4v2h-132v-6h158l12 10l18 -17h-188
v-9h159l8 8l13 -10l-6 -5q-5 -17 -9 -27t-11 -17t-28 -10q0 5 -6 8t-22 5v4q34 -2 40 0.5t9 5.5t5 8t7 23h-159v-3l-15 -2q1 18 1 40zM189 121h-132v-7h132v7zM189 107h-132v-9h132v9zM185 47.5q3 -5.5 2 -11t-5.5 -6.5t-6.5 5.5t-7 13t-10 9.5l2 3q22 -8 25 -13.5zM92 35.5
q2 -6.5 -1 -11t-6.5 -4t-4 5.5t-3.5 11t-11 15l4 2q20 -12 22 -18.5zM139.5 41.5q3.5 -5.5 1 -10t-6.5 -5.5t-6 6.5t-6 12.5t-8 9l2 3q20 -10 23.5 -15.5zM37.5 27.5q-2.5 -4.5 -9.5 -7t-13 -0.5t-1 5.5t10.5 8t11.5 17.5h4q0 -19 -2.5 -23.5z" />
  </g>

</svg>
