<?xml version="1.0" standalone="no"?>
<!DOCTYPE svg PUBLIC "-//W3C//DTD SVG 1.1//EN" "http://www.w3.org/Graphics/SVG/1.1/DTD/svg11.dtd" >
<svg xmlns="http://www.w3.org/2000/svg" xmlns:xlink="http://www.w3.org/1999/xlink" version="1.1" viewBox="0 -205 1024 1024">
  <g transform="matrix(1 0 0 -1 0 819)">
   <path fill="currentColor"
d="M374 786h266v176l80 -28q9 -5 10 -10q0 -4 -8 -10l-30 -12v-116h172l44 56l68 -66q12 -9 -2 -18h-282v-340h152v248l72 -26q17 -6 14 -14q0 -3 -36 -20v-168l4 -88q-1 -15 -22 -26q-21 -9 -32 -8v74h-152v-240q-1 -31 10 -37q8 -7 32 -8h160q27 9 34 26q5 13 8 23
q2 10 10 134h22q3 -60 4 -92q0 -34 34 -59q-19 -45 -40 -60q-21 -14 -72 -20h-162q-42 0 -56 6q-12 3 -24 24q-12 20 -12 55v248h-134l-30 -28l-60 40q27 20 30 38v230l82 -32q2 -4 2 -8t-32 -20v-192h142v340h-182q-21 0 -68 -8l-16 36v0v0zM110 904l56 -44h128l26 40
l62 -42q6 -6 6 -8q-1 -6 -28 -32v-580l4 -101q0 -12 -18 -22q-18 -8 -38 -10v83h-148v-79q0 -12 -20 -24q-22 -12 -34 -12l4 119v712v0v0zM160 214h148v190h-148v-190v0v0zM160 430h148v188h-148v-188v0v0zM160 644h148v190h-148v-190v0v0z" />
  </g>

</svg>
