<?xml version="1.0" standalone="no"?>
<!DOCTYPE svg PUBLIC "-//W3C//DTD SVG 1.1//EN" "http://www.w3.org/Graphics/SVG/1.1/DTD/svg11.dtd" >
<svg xmlns="http://www.w3.org/2000/svg" xmlns:xlink="http://www.w3.org/1999/xlink" version="1.1" viewBox="0 -36 256 256">
  <g transform="matrix(1 0 0 -1 0 220)">
   <path fill="currentColor"
d="M38 230l22 -8l-7 -5v-22h69v26q0 8 -1 22l23 -8l-8 -6v-34h67v16q0 8 -1 18l23 -8l-8 -6v-13q0 -7 1 -14l-15 -6v6h-148l-7 -4l-14 10l5 4v13q0 9 -1 19zM203 74q-10 9 -19 16l3 3q21 -9 32.5 -16t8 -18.5t-8.5 -4.5t-12 14l-70 -3v-36q2 -18 -26 -21q0 12 -28 19l2 4
q19 -2 28 -3t10 3v33q-61 -4 -87 -8l-7 14q22 2 39.5 6t37.5 9t38 10q-28 -3 -50.5 -4.5t-41.5 -5.5l-8 14q21 1 38.5 7t31.5 13h-52v-3l-15 -3q1 16 1 34.5t-1 32.5l17 -7h131l6 8l16 -10l-7 -5v-29q0 -7 1 -19l-15 -4v5h-80l21 -9q-13 0 -29 -4.5t-34 -7.5l77 1
q14 4 30 12l14 -13q-12 -2 -38.5 -9t-85.5 -18zM62 151h60v15h-60v-15zM136 151h60v15h-60v-15zM62 126h60v18h-60v-18zM136 126h60v18h-60v-18zM98 43q-11 -2 -33.5 -11.5t-49.5 -15.5l-1 4q16 5 36.5 15.5t33.5 22.5zM217 41q12 -6 12.5 -18t-13 -1.5t-59.5 30.5l2 3
q46 -8 58 -14z" />
  </g>

</svg>
