<?xml version="1.0" standalone="no"?>
<!DOCTYPE svg PUBLIC "-//W3C//DTD SVG 1.1//EN" "http://www.w3.org/Graphics/SVG/1.1/DTD/svg11.dtd" >
<svg xmlns="http://www.w3.org/2000/svg" xmlns:xlink="http://www.w3.org/1999/xlink" version="1.1" viewBox="0 -205 1024 1024">
  <g transform="matrix(1 0 0 -1 0 819)">
   <path fill="currentColor"
d="M472 924l60 -46h292l36 42l64 -56q6 -4 6 -8q1 -7 -40 -34v-300l4 -94q1 -13 -16 -28q-15 -13 -42 -16v66h-310v-46q0 -12 -20 -26q-19 -12 -38 -12l4 144v414v0v0zM526 478h310v372h-310v-372v0v0zM304 39q86 79 148 155q60 74 112 158l74 -42q10 -12 0 -14
q-10 -3 -22 -6q-11 -1 -28 -14q-15 -13 -96 -98q-79 -83 -178 -153l-10 14v0v0zM722 328l10 12q84 -54 136 -96q51 -43 82 -86q28 -39 26 -69q-1 -27 -14 -36q-11 -9 -28 -4q-15 4 -24 32q-7 27 -32 69q-24 42 -66 88q-42 45 -90 90v0v0zM40 734h174v246l82 -32q12 -6 4 -14
l-34 -16v-184h84l40 44l50 -54q12 -15 -8 -18h-166v-160l138 82l10 -16l-148 -108v-377q2 -36 -16 -64q-19 -24 -64 -40q-6 36 -36 50q-28 15 -76 32l4 16q94 -26 116 -20q20 6 20 32v341q-81 -63 -96 -80q-12 -15 -30 -36l-54 54l180 108v186h-102q-21 -1 -50 -10l-22 38v0
v0z" />
  </g>

</svg>
