<?xml version="1.0" standalone="no"?>
<!DOCTYPE svg PUBLIC "-//W3C//DTD SVG 1.1//EN" "http://www.w3.org/Graphics/SVG/1.1/DTD/svg11.dtd" >
<svg xmlns="http://www.w3.org/2000/svg" xmlns:xlink="http://www.w3.org/1999/xlink" version="1.1" viewBox="0 -150 1000 1000">
  <g transform="matrix(1 0 0 -1 0 850)">
   <path fill="currentColor"
d="M376 536l4 13q92 -8 136 -44q35 -38 1 -52q-15 0 -30 18q-14 20 -39 36q-30 17 -72 29zM857 841l52 -41q7 -5 6.5 -8.5t-8.5 -4.5q-18 4 -36 0q-127 -67 -284 -97l-2 13q58 15 129 44q61 26 99 46q36 20 38 27t-4 17zM822 976l55 -47q7 -5 6.5 -8.5t-8.5 -4.5
q-13 1 -40 -5q-127 -77 -287 -117l-2 14q66 25 130.5 54.5t102.5 56.5q41 31 39 32q2 5 -5 19zM902 718l57 -51q7 -5 6.5 -8t-8.5 -4q-15 5 -42 -1q-139 -66 -369 -99l-2 14q131 29 211 55q30 12 79 31q16 7 22 10q40 17 41.5 24.5t-4.5 20.5zM172 411q-11 -46 -35 -66
q-29 -20 -45 3q-6 11 10 23q19 12 38.5 41.5t27.5 76.5h13q1 -24 -2 -43h662l26 23l44 -47q2 -5 -0.5 -7t-9.5 0q-34 -4 -81 -46l-5 -5l-13 6l36 56h-663zM135 318h616l27 35l62 -45q8 -5 7 -7.5t-12 -2.5h-312v-203q-1 -33 -14 -49.5t-79 -31.5q-3 30 -22 38q-8 3 -42 11
q-18 4 -29 7l4 18l31 -8q116 -33 112 45v173h-271q-25 1 -44 -12zM150 971l45 -34h265l25 35l61 -41q8 -4 6.5 -6t-12.5 -2h-336v-74h223l23 27l57 -29q8 -6 6.5 -9t-12.5 -3h-297v-68h225l21 31l59 -37q8 -4 6.5 -6t-12.5 -2h-299v-70h291l26 29l56 -35q8 -5 6.5 -7.5
t-12.5 -2.5h-256q-21 -18 -68 -56q-32 -25 -50 -39q116 13 248 30q-12 8 -51 25q-5 2 -7 3l4 12q108 -21 128 -62q17 -37 -13 -41q-15 0 -22 19q-4 13 -15 26q-123 -16 -196 -27q-76 -12 -94 -21q-22 -10 -33 -24l-35 57q32 0 51 11q59 44 99 87h-134q-26 1 -44 -13l-33 29
h109v232q3 21 -19 42z" />
  </g>

</svg>
