<?xml version="1.0" standalone="no"?>
<!DOCTYPE svg PUBLIC "-//W3C//DTD SVG 1.1//EN" "http://www.w3.org/Graphics/SVG/1.1/DTD/svg11.dtd" >
<svg xmlns="http://www.w3.org/2000/svg" xmlns:xlink="http://www.w3.org/1999/xlink" version="1.1" viewBox="0 -339 2048 2048">
  <g transform="matrix(1 0 0 -1 0 1709)">
   <path fill="currentColor"
d="M391 1182q15 88 23 151q9 74 15 167l118 -28q31 -8 41 -15q12 -8 12 -21t-12 -22q-6 -6 -24 -10l-39 -9l-13 -73l-21 -122l-3 -18h208l99 101l120 -107q10 -8 12 -10t3 -5q2 -5 2 -10q0 -9 -6 -16q-8 -10 -21 -10h-427q-23 -124 -48 -213q-38 -128 -120 -305
q-38 -81 -71 -132q-66 -102 -138 -182l-28 25q47 71 66 105q41 69 94 188q70 158 116 363q14 64 32 151h-65q-38 0 -98 -5q-18 -1 -51 -6l-39 86q123 -18 188 -18h75zM761 338q-18 58 -38 95q-27 51 -74 113l29 25q85 -84 136 -153q68 -92 68 -178q0 -36 -16 -56
q-11 -13 -28 -17q-7 -2 -12 -2q-13 0 -25 8q-13 8 -17 28q-3 12 -7 48q-2 21 -4 43q-19 -6 -199 -60l-84 -26q-69 -21 -128 -37l-3 -25q-2 -19 -11 -31q-7 -9 -17 -9q-15 0 -30 28l-57 113q16 13 27 28q21 29 57 96q39 71 105 222q41 94 67 169q35 101 69 235l119 -41
q32 -11 47 -26q10 -10 10 -20q0 -13 -16 -23q-12 -8 -45 -11l-38 -3q-63 -154 -90 -212q-48 -105 -110 -206q-70 -115 -94 -148q-10 -15 -29 -39q172 25 255 37q73 12 115 20q23 5 68 15zM421 1925q59 -35 90 -57q126 -91 126 -162q0 -22 -12 -42q-7 -11 -19 -25h225l61 75
l102 -80q25 -20 23 -38q-2 -12 -13 -21q-6 -5 -18 -8q-8 -3 -25 -7q-20 -5 -39 -11q-25 -31 -38 -47q-41 -51 -59 -70q-11 -13 -37 -37l-29 24q31 59 49 99q11 25 26 66h-587q-9 -96 -38 -161q-11 -22 -21 -36t-25 -23q-20 -14 -40 -14t-34 14q-16 15 -16 34q0 22 16 42
q6 7 26 30q59 68 80 167q10 48 16 123h36v-121h309q-11 11 -14 17q-4 7 -9 27q-10 35 -35 86q-22 41 -55 82q-13 15 -43 49zM1674 1701l61 72l72 -50q42 -28 42 -50q0 -10 -8 -18q-10 -9 -30 -19l-27 -15v-288q0 -15 3 -53q2 -40 4 -52q3 -33 3 -44q0 -20 -10 -29
q-21 -20 -57 -20t-38 25l-2 35h-533v-171h617l80 81l114 -87q12 -9 15 -16q2 -6 2 -9q0 -9 -6 -16q-8 -10 -22 -10h-800v-173h662l61 70l72 -49q42 -29 42 -50q0 -5 -4 -12q-5 -10 -28 -22l-17 -9q-9 -5 -16 -9q-8 -63 -12 -94q-18 -157 -26 -204q-17 -99 -45 -164
q-42 -97 -104 -143q-50 -37 -114 -51q-17 -4 -48 -8q0 22 -3.5 34.5t-11.5 23.5q-16 22 -52 37q-31 13 -84 33q-28 10 -65 20l12 42q48 -13 72 -20q55 -16 124 -33q28 -7 36.5 -8.5t21.5 -1.5q35 0 60 21q48 40 77 128q17 50 29 123q17 109 34 289h-686q-21 -15 -42 -15
q-22 0 -34 10q-7 7 -7 26v844q0 27 -5 92q-2 29 -10 75l121 -68h72q17 62 25 101q14 67 19 94q3 18 6 52l109 -26q43 -10 57 -21q13 -12 12 -23q-2 -11 -13 -19q-9 -7 -32 -11l-42 -8q-32 -53 -49 -79q-14 -21 -42 -60h388zM1154 1252h533v174h-533v-174zM1687 1644h-533
v-162h533v162zM1559 666q60 -45 97 -81q32 -31 50 -58q28 -40 28 -78q0 -27 -15 -45q-14 -15 -35 -15q-20 0 -33 16q-8 8 -12 25q-1 3 -9 39q-9 40 -34 84q-24 40 -63 91zM1380 624q63 -57 103 -105q58 -68 58 -126q0 -25 -17 -44q-14 -17 -37 -17q-16 0 -28 11q-6 6 -8 13
q-5 12 -8 36q-7 53 -32 111q-15 34 -36 67l-24 33zM1237 599q38 -79 53 -117q30 -77 30 -124q0 -35 -19 -59q-7 -10 -20 -16q-9 -4 -19 -4q-19 0 -34 15q-13 14 -13 33q0 13 4 37q5 35 5 72q0 33 -5 69q-4 29 -16 82zM1073 590h40q-1 -104 -4 -146q-6 -76 -20 -121
q-15 -48 -41 -75q-25 -26 -56 -26q-28 0 -43 20q-9 13 -9 26q0 14 11 32q5 9 21 25l16 16q30 30 47 63q28 54 38 186z" />
  </g>

</svg>
