<?xml version="1.0" standalone="no"?>
<!DOCTYPE svg PUBLIC "-//W3C//DTD SVG 1.1//EN" "http://www.w3.org/Graphics/SVG/1.1/DTD/svg11.dtd" >
<svg xmlns="http://www.w3.org/2000/svg" xmlns:xlink="http://www.w3.org/1999/xlink" version="1.1" viewBox="0 0 2048 2048">
  <g transform="matrix(1 0 0 -1 0 2048)">
   <path fill="currentColor"
d="M1529 810l81 -18q50 -12 66 -21q17 -9 18 -23t-12 -26q-14 -11 -36 -17l-42 -12v-155h90l80 80l114 -86q8 -7 13 -14t2 -19q-4 -10 -11 -14q-8 -4 -14 -4h-274v-258q0 -29 14 -45q15 -16 72 -24q57 -7 87 17q22 17 33 49q10 32 23 87l15 67l35 -8q-7 -73 -9 -110
q-1 -37 8 -52q4 -10 11 -16t29 -22q23 -16 26 -31t-26 -37q-22 -17 -57 -23t-59 -7q-23 -1 -104 0q-75 0 -110 6q-34 7 -54 26q-19 18 -24 40t-5 51v465l-4 122q-1 19 -2 25l-2 7h-298l-55 -1l-21 1l-16 -1l72 -17q52 -13 67 -22q16 -8 17 -22t-13 -26q-13 -11 -35 -17
l-42 -12v-155h87l80 80l114 -86q8 -7 13 -14t2 -19q-4 -10 -11 -14q-8 -4 -14 -4h-271v-290q21 2 43 5q23 3 86 16q64 14 96 22l30 7l12 -37q-28 -17 -52 -30q-23 -13 -72 -34q-48 -20 -98 -38l-24 -9l-13 -46q-8 -27 -27 -29q-20 -1 -32 29l-53 127h9v482l-4 122
q-1 14 -1 18l-2 11q-12 -2 -18 -2l-14 -1l-30 -4l-27 53v-43l-2 -42q0 -21 -5 -107t-9 -127q-5 -42 -20 -108q-14 -66 -36 -122t-54 -106q-31 -51 -63 -86l-40 -45l-28 29q19 27 35 53t36 71q21 44 36 92q14 49 22 95q9 46 14 97q6 51 9 110q3 60 7 144q3 83 3 123v482
q0 26 -1 49l-3 51l-3 57l112 -70h436q-10 13 -14 21l-37 80q-8 15 -31 47q-23 33 -45 54l-33 32l26 26l72 -40q33 -19 63 -42t51 -55t20 -64q0 -32 -3 -37l-13 -22h229l99 102l120 -107l12 -10q7 -10 4 -23q-4 -13 -10 -15t-20 -2h-318v-211h145l64 75l84 -54q20 -13 30 -25
q10 -11 10 -24q-1 -14 -11 -26q-11 -11 -31 -19l-36 -16v-146q0 -11 3 -55t5 -64q2 -19 2 -29q-2 -20 -12 -33q-10 -12 -49 -16q-22 -3 -34 4q-13 6 -13 20l-2 34h-230zM986 890q15 -6 20 -7q6 -1 64 -6l72 -8l71 -1l1 259h-68q-46 0 -77 -4.5t-33 -3.5h-19l-31 53v-282z
M986 1395v-189q37 -8 54 -11q16 -3 55 -7t51 -4h67v211h-227zM1508 1395h-199v-211h199v211zM1604 1126v-258h158v258h-158zM1508 1126h-199v-258h199v258zM221 1879q19 -8 47 -19q29 -11 84 -35q56 -24 91 -47q35 -22 62 -50q27 -27 40 -70t-7 -62q-20 -20 -41 -19
q-22 0 -37 14q-14 14 -31 43t-35 54q-19 24 -44 48q-24 23 -62 50q-38 28 -51 36l-38 21zM97 1381l53 -21q31 -12 76 -32q45 -19 87 -43t69 -47q28 -22 45 -54q17 -33 14 -72q-3 -22 -11 -30q-8 -9 -23 -12q-21 -5 -37 0q-15 6 -24 16t-35 52q-26 41 -67 82q-40 40 -64 58
q-25 18 -68 46l-37 23zM521 888l33 -21q-12 -39 -24 -74t-47 -109l-80 -161l-92 -183q-18 -35 -41 -74l-39 -67q4 -23 5 -37q0 -13 -5 -36q-5 -22 -13 -27t-22 5q-13 11 -27 32l-78 107l31 35l70 87q56 70 86 111q29 42 68 109l88 150l68 119zM1820 1894l129 -109
q10 -10 18 -21t3 -22q-3 -5 -9 -8q-6 -4 -17 -4l-1166 -1l-1 -556q-1 -46 -6 -157q-5 -110 -14 -212q-9 -103 -30 -198q-21 -96 -57 -198q-35 -101 -82 -184q-47 -82 -93 -129l-47 -50l-30 28l56 83q26 42 60 116q35 73 62 166q27 94 42 186q16 91 24 198q9 107 14 200
q6 93 6 143v509q0 13 -4 72q-3 58 -3 61l-6 49l117 -71h932z" />
  </g>

</svg>
