<?xml version="1.0" standalone="no"?>
<!DOCTYPE svg PUBLIC "-//W3C//DTD SVG 1.1//EN" "http://www.w3.org/Graphics/SVG/1.1/DTD/svg11.dtd" >
<svg xmlns="http://www.w3.org/2000/svg" xmlns:xlink="http://www.w3.org/1999/xlink" version="1.1" viewBox="0 -205 1024 1024">
  <g transform="matrix(1 0 0 -1 0 819)">
   <path fill="currentColor"
d="M58 554h210q27 80 46 182q82 -27 86 -36q3 -7 -2 -10q-3 -4 -20 -10q-18 -5 -30 -40q-12 -33 -30 -86h210l34 42l62 -50q3 -4 4 -10q1 -7 -16 -8h-302q-51 -133 -122 -238q-69 -106 -144 -173l-12 10q72 91 132 191q57 99 96 210h-114q-21 0 -68 -8l-20 34v0v0zM366 864
q87 81 130 132q60 -45 64 -50q4 -4 2 -10q0 -6 -24 -6q-21 0 -44 -18q-22 -16 -88 -70q78 -42 120 -78q39 -33 46 -56q3 -23 -2 -34q-6 -12 -24 -14q-16 -3 -34 24q-18 26 -54 62q-36 35 -86 68q-93 -78 -246 -152l-8 16q123 70 220 158q-76 48 -184 106l8 16
q120 -47 204 -94v0v0zM410 416q-21 -5 -60 -76q-36 -72 -102 -162l264 30q-24 57 -62 108l12 10q58 -49 92 -92q32 -42 38 -72q4 -25 -6 -41q-12 -16 -32 -14q-18 3 -24 30q-4 24 -10 51q-171 -28 -222 -39q-48 -12 -84 -40l-42 65q44 3 64 34q60 104 118 262q78 -33 78 -38
v-8q-1 -3 -22 -8v0v0zM652 924l60 -46h174l30 36l54 -44q9 -6 10 -14q0 -6 -36 -26v-514q3 -49 -12 -74q-13 -22 -68 -40q-9 36 -36 48q-25 12 -80 28l6 16q54 -9 76 -14q21 -3 42 0q22 2 20 34v538h-188v-660l4 -119q0 -15 -24 -28q-21 -13 -36 -14l4 159v734v0v0z" />
  </g>

</svg>
