<?xml version="1.0" standalone="no"?>
<!DOCTYPE svg PUBLIC "-//W3C//DTD SVG 1.1//EN" "http://www.w3.org/Graphics/SVG/1.1/DTD/svg11.dtd" >
<svg xmlns="http://www.w3.org/2000/svg" xmlns:xlink="http://www.w3.org/1999/xlink" version="1.1" viewBox="0 -36 256 256">
  <g transform="matrix(1 0 0 -1 0 220)">
   <path fill="currentColor"
d="M74 174q-20 -17 -62 -30l-1 4q41 18 63 41v28h-26q-8 1 -20 -2l-9 9h55q0 10 -1 21l22 -7l-8 -5v-9h28l11 9l17 -16h-56v-29q27 -20 50 -26v-3q-15 -3 -16 -7q-20 13 -34 28v-20q0 -6 1 -11l-15 -4q1 15 1 29zM50 207l-4 -7q10 -3 14 -5t5.5 -6t-2 -6.5t-7 2.5t-12.5 11
q-12 -15 -27 -23l-2 2q10 10 16.5 22t7.5 19l18 -6zM190 235l-3 -19h31l5 8l17 -10l-8 -5q-2 -18 -5 -34t-9.5 -22.5t-17.5 -8.5q-2 10 -25 15l1 4q20 -2 26.5 -2.5t10 12t5.5 36.5h-32q-7 -40 -56 -66l-4 3q38 28 46 63h-1q-11 0 -21 -2l-10 9h33q2 14 1 30l24 -7zM123 208
l-6 -8q16 -4 19 -7t3 -6t-3 -6t-6.5 3t-15.5 13q-7 -8 -19 -16l-4 3q7 7 13 17t8 16l18 -7zM37 103q0 23 -1 37l16 -4h29q8 12 12 20l18 -7q-8 -3 -20 -13h95l9 8l18 -9l-8 -5q0 -21 1 -31l-17 -4v3h-137v-8h165l13 11l18 -18h-196v-10h164l7 8l17 -11l-7 -5
q-5 -18 -9.5 -28.5t-11.5 -17.5t-29 -11q-1 8 -7 10t-21 4v5q34 -3 41.5 0.5t9 6t5 9t7.5 23.5h-166v-3l-16 -4q1 21 1 44zM189 129h-137v-8h137v8zM189 114h-137v-9h137v9zM186 51q4 -6 1.5 -10.5t-6 -6.5t-6 4.5t-7 13t-10.5 11.5l1 3q23 -9 27 -15zM90.5 39.5
q1.5 -6.5 -2.5 -10.5t-8 -3.5t-4 5t-2.5 11t-11.5 15.5l5 2q22 -13 23.5 -19.5zM140 46.5q4 -5.5 2 -10.5t-7 -7t-6 5t-5.5 13.5t-10.5 11.5l4 3q19 -10 23 -15.5zM33 29.5q-4 -6.5 -11 -9t-10 3t1.5 8.5l10.5 7t11 19l4 -1q-2 -21 -6 -27.5z" />
  </g>

</svg>
