<?xml version="1.0" standalone="no"?>
<!DOCTYPE svg PUBLIC "-//W3C//DTD SVG 1.1//EN" "http://www.w3.org/Graphics/SVG/1.1/DTD/svg11.dtd" >
<svg xmlns="http://www.w3.org/2000/svg" xmlns:xlink="http://www.w3.org/1999/xlink" version="1.1" viewBox="0 -205 1024 1024">
  <g transform="matrix(1 0 0 -1 0 819)">
   <path fill="currentColor"
d="M404 357q-8 -5 -11 8q-7 25 -26 50q-9 10 7 9q32 -4 158 -4q50 1 99 1v109h-156v-27q0 -8 -6 -9q-20 -8 -39 -17q-9 -3 -8 12q4 63 5 210v8q-1 36 -5 82q-2 12 2 13q3 1 10 -6q12 -13 36 -31h161v77h-186q-27 0 -61 -7q-5 -1 -6 2q-13 20 -23 36q-6 10 7 7q61 -6 68 -7
h201v27q-1 39 -4 70q-1 16 9 13q54 -17 76 -29q9 -5 0 -11q-22 -16 -26 -20q-7 -7 -7 -23v-27h152q12 0 16 4q5 5 14 15l26 37q7 9 16 0q31 -28 61 -59q10 -10 9 -19q-2 -8 -15 -9h-279v-77h144q6 0 9 4l18 28q7 8 14 1q29 -19 57 -41q9 -8 8 -12q-2 -5 -9 -9
q-26 -12 -27 -19q-2 -6 -2 -13v-92q0 -36 6 -97q1 -11 -5 -12q-43 -15 -47 -14q-2 1 -2 11v30h-164v-107q91 4 176 10q-36 33 -73 51q-10 4 -6 14q3 10 18 3q88 -32 137 -68q36 -25 40 -43q4 -24 -6 -40q-11 -17 -18 -18q-7 -2 -17 17q-27 37 -55 65q-179 -29 -342 -36
q-104 -3 -129 -21zM631 630h-156v-69h156v69zM679 561h164v69h-164v-69zM631 734h-156v-73h156v73zM679 661h164v73h-164v-73zM427 292q10 -2 9 -15q-5 -84 -20 -120q-14 -32 -39 -51q-17 -12 -29 -11q-11 1 -18 10q-8 11 -7 21q2 11 18 24q36 30 52 58q19 33 23 72
q1 12 11 12zM559 58q-20 0 -36 16q-16 15 -16 58v108q-1 53 -5 78q-1 5 2 8t12 0q28 -14 49 -26q9 -6 9 -9q-1 -5 -8 -12q-10 -8 -11 -39v-97q1 -21 8 -28q8 -9 21 -9h146q17 1 26 5q9 6 18 28q17 43 33 137q1 12 11 11q10 -2 9 -12q-10 -83 -3 -120q5 -22 17 -29q5 -2 2 -8
q-10 -30 -28 -43q-22 -17 -56 -17h-200zM616 349q6 9 19 -1q50 -30 77 -58q19 -19 20 -31q0 -25 -15 -38q-15 -14 -22 -13q-6 0 -13 21q-10 31 -25 56q-17 30 -38 49q-7 8 -3 15zM857 309q8 8 18 -4q60 -53 88 -98q21 -31 18 -47q-4 -25 -20 -35q-17 -11 -24 -10q-6 1 -9 23
q-10 45 -26 82q-20 43 -45 74q-7 8 0 15zM140 414q78 33 187 57q16 3 17 -6q3 -10 -10 -13q-125 -41 -230 -107q-7 -5 -11 1q-14 22 -33 38q-9 8 0 12q7 6 16 9q68 52 165 248q-84 -22 -157 -62q-6 -5 -9 1q-7 10 -13 16q-21 26 -17 27q78 59 148 314q1 10 8 9
q38 -13 63 -26q7 -4 7 -8q0 -5 -7 -8q-25 -9 -79 -126q-30 -65 -66 -120q-9 -12 -6 -16q1 -3 8 -2q56 19 132 26q23 48 42 97q3 11 10 8q39 -18 64 -36q8 -5 7 -9q-2 -6 -9 -7q-31 -9 -118 -148q-52 -80 -109 -147q-14 -15 -11 -21q1 -5 11 -1zM379 294q13 6 16 -3
q4 -11 -11 -18q-126 -64 -208 -100q-40 -16 -52 -35q-6 -9 -10 -10q-4 0 -8 7q-14 25 -36 41q-12 10 -12 13q2 4 12 5q81 19 309 100z" />
  </g>

</svg>
