<?xml version="1.0" standalone="no"?>
<!DOCTYPE svg PUBLIC "-//W3C//DTD SVG 1.1//EN" "http://www.w3.org/Graphics/SVG/1.1/DTD/svg11.dtd" >
<svg xmlns="http://www.w3.org/2000/svg" xmlns:xlink="http://www.w3.org/1999/xlink" version="1.1" viewBox="0 -36 256 256">
  <g transform="matrix(1 0 0 -1 0 220)">
   <path fill="currentColor"
d="M50 169h48v20h-48v-20zM31.5 82q5.5 36 5 83t-1.5 67l15 -11h83q-6 15 -18 22l2 3q21 -5 26.5 -11t-1.5 -14h76l12 12l17 -19h-82v-18h43l10 10l13 -13l-8 -5q0 -11 1 -27l-14 -5v6h-56l20 -6l-9 -7v-7h33l10 9l15 -16h-58v-8q0 -11 11 -11h40q9 0 11 7.5t2 20.5h5
q0 -13 3 -17.5t10 -7.5q-6 -9 -12.5 -11t-12.5 -2h-49q-23 0 -21 22q0 29 -1 34h-75l18 -5l-8 -5v-7h28l10 9l14 -16h-52v-18l48 10l2 -4q-44 -13 -58 -24l-10 13q5 6 5 8v39h-23q1 -49 -7 -84t-32 -65l-3 3q18 30 23.5 66zM50 196h48v18h-48v-18zM111 196h41v18h-41v-18z
M165 169h45v20h-45v-20zM111 169h41v20h-41v-20zM80 23h138v69h-138v-69zM67 57q0 28 -1 48l13 -6h137l8 7l13 -11l-6 -4v-47q0 -10 1 -30l-14 -6v8h-138v-6l-14 -3q1 22 1 50zM160 29l-15 -4q1 9 1 35q-25 -23 -59 -33l-1 3q32 16 52 38h-19q-11 0 -20 -2l-10 9h57
q0 5 -1 18l21 -6l-7 -4v-8h28l12 8l16 -15h-56v-3q27 -8 34.5 -14t5 -15t-10 0.5t-29.5 22.5q0 -17 1 -30z" />
  </g>

</svg>
