<?xml version="1.0" standalone="no"?>
<!DOCTYPE svg PUBLIC "-//W3C//DTD SVG 1.1//EN" "http://www.w3.org/Graphics/SVG/1.1/DTD/svg11.dtd" >
<svg xmlns="http://www.w3.org/2000/svg" xmlns:xlink="http://www.w3.org/1999/xlink" version="1.1" viewBox="0 -205 1024 1024">
  <g transform="matrix(1 0 0 -1 0 819)">
   <path fill="currentColor"
d="M551 894q11 -12 11 -18t-12 -9q-20 -4 -21 -4v-107q0 -7 1 -16t1 -11q0 -14 -21 -23q-10 -4 -16 -4q-8 0 -8 9q1 -23 1 26h-353q2 -19 0 -23q-2 -5 -18 -13q-13 -4 -18 -4q-7 0 -8 9q1 -10 1 33v144l-5 52l60 -31h338l14 14q8 8 13 8q3 0 15 -10zM553 607q12 -12 12 -19
q0 -4 -24 -15q1 -69 1 -119q0 -161 -13 -228t-49 -100l-20 -14q-14 -9 -22 -9t-16.5 15.5t-18.5 18.5l-71 15l3 9l61 -6q13 -1 21 -1q42 0 63 52q23 117 19 385h-322q-8 -15 -30 -49l34 -39h82v33l-5 41l33 -6q32 -6 32 -18q0 -8 -17 -16v-34h71l10 12q10 11 13 11
q4 0 14 -7l19 -16q13 -10 13 -17q0 -4 -18 -19v-99q3 -20 2 -23q-1 -8 -16 -15q-4 -3 -10 -3q-22 0 -19 31h-79v-103l76 18q-16 28 -28 41l8 7q79 -59 90 -98q3 -35 -17 -35q-11 0 -17.5 17t-26.5 53l-251 -75q-4 -32 -17 -32q-10 0 -21 22l-16 35l177 37v113h-83
q2 -26 1 -29q-3 -10 -20 -17q-11 -5 -17 -5q-7 0 -8 11v1v1v1v1v1v1v1v1v1v1v1v1v1v1v1v1v1v1v1v1v1v1v1v2v1v9v176q-28 -44 -67 -81l-8 10q89 105 126 263l30 -11q31 -11 31 -21q0 -12 -30 -15q-8 -21 -30 -62h291l13 15q13 12 15 12q3 0 19 -12zM485 757v126h-89v-126h89z
M352 757v126h-85v-126h85zM223 757v126h-88v-126h88zM385 378v105h-79v-105h79zM263 378v105h-83v-105h83zM964 657l-9 -15h-106v-555q-1 -10 -22 -18q-10 -3 -15 -3q-6 0 -7 14v562h-136q-3 -233 -20 -328q-24 -144 -111 -238l-14 7q102 129 103 450q-6 124 -17 376l55 -25
q104 12 208 72l31 -23q16 -11 18 -19q0 -6 -21 -7q-7 0 -20 1q-108 -34 -216 -40q-2 -71 2 -206h212l16 31q11 12 14 12q4 0 19 -11z" />
  </g>

</svg>
