<?xml version="1.0" standalone="no"?>
<!DOCTYPE svg PUBLIC "-//W3C//DTD SVG 1.1//EN" "http://www.w3.org/Graphics/SVG/1.1/DTD/svg11.dtd" >
<svg xmlns="http://www.w3.org/2000/svg" xmlns:xlink="http://www.w3.org/1999/xlink" version="1.1" viewBox="0 -205 1024 1024">
  <g transform="matrix(1 0 0 -1 0 819)">
   <path fill="currentColor"
d="M340 984l84 -32q6 -2 4 -10q0 -3 -36 -20v-58h226v122l80 -32q6 -2 6 -10q0 -3 -36 -20v-60h190l40 50l64 -60q3 -3 4 -8q-1 -7 -16 -8h-282v-66q-1 -14 -20 -22q-21 -6 -30 -6v94h-226v-78q-3 -14 -24 -22q-7 -6 -28 -6v106h-214q-21 0 -68 -8l-20 34h302v120v0v0z
M430 764q57 -30 66 -36q6 -6 4 -12q-1 -6 -16 -6q-13 0 -46 -36q-31 -34 -70 -76h114l36 46l58 -52q3 -3 4 -8q0 -12 -14 -12h-226v-216h110v168l84 -30q5 -3 2 -12q0 -2 -36 -16v-84l4 -76q2 -12 -16 -26q-18 -12 -38 -14v62h-118q-17 -114 -88 -186q-69 -73 -188 -121
l-8 16q99 58 156 119q56 62 82 172h-104l-32 -36l-54 44q27 17 28 38v146l68 -28q9 -4 10 -8q7 -6 -28 -20v-108h116v216h-164q-43 0 -62 -8l-22 34h300q60 102 88 166v0v0zM134 740l8 10q41 -15 80 -38q38 -22 44 -46q6 -25 -2 -40q-7 -13 -26 -14q-18 0 -24 24t-24 48
q-18 23 -56 56v0v0zM616 722l56 -40h168l30 44l60 -40q9 -3 10 -12q0 -6 -32 -32v-500q4 -41 -16 -67q-19 -26 -58 -40q-12 31 -36 46q-25 12 -98 38l4 18q113 -27 134 -18q21 10 18 35v156h-200q-12 -66 -36 -108q-23 -43 -76 -95q-54 -53 -162 -100l-8 16q87 52 148 117
q57 65 78 134q21 68 16 256v192v0v0zM660 338h196v146h-190q0 -105 -6 -146v0v0v0zM666 512h190v144h-190v-144v0v0z" />
  </g>

</svg>
