<?xml version="1.0" standalone="no"?>
<!DOCTYPE svg PUBLIC "-//W3C//DTD SVG 1.1//EN" "http://www.w3.org/Graphics/SVG/1.1/DTD/svg11.dtd" >
<svg xmlns="http://www.w3.org/2000/svg" xmlns:xlink="http://www.w3.org/1999/xlink" version="1.1" viewBox="0 -36 256 256">
  <g transform="matrix(1 0 0 -1 0 220)">
   <path fill="currentColor"
d="M41 244l16 -6h58l11 7l14 -14h-84v-8h53l9 6l14 -13h-76v-7h52l9 6l14 -13h-75v-8h68l12 8l14 -15h-80l10 -5q-7 -1 -16 -5.5t-20 -9.5l71 2q-9 6 -20 12l2 3q28 -7 33.5 -12t1.5 -11t-8 -1.5t-6 6.5l-52 -6.5t-35 -6.5l-10 14q12 1 23.5 8.5t14.5 11.5h-21q-11 0 -20 -2
l-10 9h34q0 34 -1 50zM230 235q-6 -1 -32 -9.5t-56 -13.5l-1 4q25 6 49 16.5t28 14.5zM240 208q-6 0 -34 -8.5t-56 -12.5l-1 3q28 8 49.5 16.5t29.5 14.5zM247 181q-10 -1 -37 -9t-70 -12v3q38 8 63.5 16.5t29.5 13.5zM194.5 156.5q5.5 -3.5 1 -10t-9.5 0t-20 13.5l1 3
q22 -3 27.5 -6.5zM226 104h4q0 -13 2 -22t7.5 -13.5t-11 -4t-35.5 7.5t-30 15q-26 -13 -65 -20l-1 4q36 10 57 24q-12 13 -17 40h-70v-15h36l9 9l12 -11l-6 -5q-4 -24 -9.5 -29.5t-14.5 -7.5q-3 10 -24 12v4q14 -1 21 -1t9.5 4.5t3.5 17.5h-38q-1 -14 -11.5 -27.5
t-38.5 -27.5l-2 3q21 16 29 28t9 27.5t0 31.5l16 -6h68q-1 10 -2 19l20 -5l-6 -6l1 -8h53l12 10l16 -17h-80q4 -20 16 -33q20 16 29 30l16 -14q-5 1 -15.5 -7.5t-20.5 -15.5q18 -12 46 -15zM55 69l15 -6h113l6 9l16 -11l-7 -7v-32h9l13 11l17 -18h-189q-11 0 -21 -2l-9 9h38
v30q0 6 -1 17zM70 22h31v34h-31v-34zM114 22h28v34h-28v-34zM155 22h29v34h-29v-34z" />
  </g>

</svg>
