<?xml version="1.0" standalone="no"?>
<!DOCTYPE svg PUBLIC "-//W3C//DTD SVG 1.1//EN" "http://www.w3.org/Graphics/SVG/1.1/DTD/svg11.dtd" >
<svg xmlns="http://www.w3.org/2000/svg" xmlns:xlink="http://www.w3.org/1999/xlink" version="1.1" viewBox="0 -205 1024 1024">
  <g transform="matrix(1 0 0 -1 0 819)">
   <path fill="currentColor"
d="M566 618l54 -38h248l32 30l52 -44q6 -3 6 -12q0 -5 -30 -22v-364l4 -79q0 -15 -20 -28q-18 -12 -36 -12v66h-260v-48q0 -13 -18 -24q-15 -13 -36 -14l4 143v446v0v0zM616 140h260v122h-260v-122v0v0zM616 288h260v122h-260v-122v0v0zM616 434h260v120h-260v-120v0v0z
M906 928l58 -38q7 -4 8 -10q0 -3 -32 -24v-102l4 -62q2 -15 -10 -26q-12 -10 -42 -16v40h-382q2 -169 -10 -292q-12 -121 -60 -206q-49 -82 -142 -151l-10 12q73 68 116 151q41 81 50 202q7 120 6 288v242l62 -42h358l26 34v0v0zM510 866v-148h166v148h-166v0v0zM726 866
v-148h164v148h-164v0v0zM166 648h174l32 44l40 -40q19 -15 14 -24q-3 -6 -8 -6h-152v-150h74l36 46l52 -52q9 -12 -6 -20h-156v-228l130 114l14 -14q-93 -99 -122 -134q-26 -33 -58 -81l-56 49q31 19 44 44v250h-72q-31 0 -58 -8l-18 34h148v150h-14l-20 -6l-18 32v0v0z
M308 946q7 -3 8 -6q3 -9 -8 -14q-24 -7 -36 -28q-18 -45 -38 -86h110l40 46l56 -58q2 -3 2 -6q0 -9 -6 -8h-212q-33 -75 -68 -138q-33 -64 -92 -142l-14 10q54 97 114 242q56 143 74 224l70 -36v0v0z" />
  </g>

</svg>
