<?xml version="1.0" standalone="no"?>
<!DOCTYPE svg PUBLIC "-//W3C//DTD SVG 1.1//EN" "http://www.w3.org/Graphics/SVG/1.1/DTD/svg11.dtd" >
<svg xmlns="http://www.w3.org/2000/svg" xmlns:xlink="http://www.w3.org/1999/xlink" version="1.1" viewBox="0 -205 1024 1024">
  <g transform="matrix(1 0 0 -1 0 819)">
   <path fill="currentColor"
d="M472 930l56 -42h292l38 40l56 -50q6 -4 6 -8q-1 -6 -34 -26v-338l4 -78q0 -13 -20 -28q-19 -13 -38 -16l4 120v356h-314v-356l4 -92q0 -12 -20 -24q-21 -9 -38 -12l4 126v428v0v0zM634 780l86 -34q4 -4 2 -10q0 -4 -38 -20q4 -196 -22 -326q-25 -127 -100 -214
q-75 -84 -248 -161l-6 14q147 85 216 167t90 200q22 116 20 236v148v0v0zM678 432l74 -24q8 -3 10 -6q0 -4 -2 -8l-34 -16v-243q2 -34 14 -38q12 -3 24 -4h110q32 6 40 30q5 23 8 55q2 32 2 128h24q-1 -113 10 -142q9 -29 30 -37q-9 -27 -30 -48q-18 -24 -66 -30h-128
q-28 0 -50 8q-18 6 -30 30q-6 15 -6 50v295v0v0zM38 742h186v236l80 -34q21 -7 -2 -20l-28 -12v-170h76l30 42l50 -50q3 -4 4 -8q0 -12 -14 -12h-146v-80q65 -34 94 -56t38 -46q9 -21 0 -42q-9 -19 -26 -16q-15 1 -24 26q-7 25 -22 50t-60 62v-430l4 -107q-1 -15 -22 -28
q-18 -14 -36 -16l4 147v388q-27 -75 -78 -162q-50 -84 -106 -144l-12 10q50 78 86 150q32 72 62 148q29 73 46 146h-112q-22 0 -52 -8l-20 36v0v0z" />
  </g>

</svg>
