<?xml version="1.0" standalone="no"?>
<!DOCTYPE svg PUBLIC "-//W3C//DTD SVG 1.1//EN" "http://www.w3.org/Graphics/SVG/1.1/DTD/svg11.dtd" >
<svg xmlns="http://www.w3.org/2000/svg" xmlns:xlink="http://www.w3.org/1999/xlink" version="1.1" viewBox="0 -205 1024 1024">
  <g transform="matrix(1 0 0 -1 0 819)">
   <path fill="currentColor"
d="M804 700q-21 5 -60 2q-36 -4 -198 -16v-128h100q38 56 70 122q62 -30 64 -36q3 -3 0 -6t-18 -8q-13 -3 -34 -20q-21 -16 -54 -52h192l36 40l60 -48q12 -15 -8 -18h-348q42 -39 106 -72q62 -33 118 -50q56 -15 166 -18v-20q-31 1 -58 -10q-27 -10 -36 -32q-52 12 -106 40
q-54 26 -110 62q-57 36 -108 100h-32v-78l4 -34q0 -15 -20 -26q-19 -10 -40 -10l6 82v66h-24q-89 -90 -196 -140q-106 -49 -208 -70l-4 14q114 38 198 86q84 47 144 110h-246q-21 0 -56 -6l-18 32h410v124q-171 -6 -324 -6v18q209 12 374 30q164 17 230 38q60 -52 58 -58
q0 -6 -6 -8q-3 -1 -24 4v0v0zM750 356l26 20l52 -34q3 -3 4 -6q0 -7 -20 -22v-199l4 -42q3 -14 -18 -26q-18 -12 -38 -18v54h-476v-22q1 -12 -10 -18q-12 -15 -48 -18l6 90v251l50 -10h468v0v0zM284 109h210v93h-210v-93v0v0zM546 109h214v93h-214v-93v0v0zM284 228h210v102
h-210v-102v0v0zM546 330v-102h214v102h-214v0v0zM292 656l6 10q60 -19 78 -32q17 -12 20 -30q4 -15 -4 -26q-9 -10 -24 -10q-12 2 -18 14q-3 12 -12 28q-7 15 -46 46v0v0zM298 956q10 -9 0 -18q-21 -4 -30 -10l-14 -14l-20 -30h204l40 44l62 -54q9 -16 -8 -16h-212
q41 -27 58 -42q14 -15 20 -30q5 -16 -4 -32q-8 -16 -28 -14q-19 2 -22 26q-3 21 -12 40q-10 18 -40 52h-72q-68 -99 -130 -162l-14 12q51 75 88 142t62 140l72 -34v0v0zM712 956q10 -9 0 -18q-23 -5 -28 -10q-5 -4 -10 -10q-3 -6 -24 -30h214l36 46l62 -56q9 -16 -8 -16
h-202q39 -20 58 -34q18 -15 24 -30q5 -14 -4 -28q-10 -15 -26 -12q-15 3 -24 24q-6 20 -18 38q-10 18 -38 42h-86q-56 -78 -106 -126l-18 10q47 67 74 122q26 53 44 118l80 -30v0v0z" />
  </g>

</svg>
