<?xml version="1.0" standalone="no"?>
<!DOCTYPE svg PUBLIC "-//W3C//DTD SVG 1.1//EN" "http://www.w3.org/Graphics/SVG/1.1/DTD/svg11.dtd" >
<svg xmlns="http://www.w3.org/2000/svg" xmlns:xlink="http://www.w3.org/1999/xlink" version="1.1" viewBox="0 -36 256 256">
  <g transform="matrix(1 0 0 -1 0 220)">
   <path fill="currentColor"
d="M118 216q0 17 -1 31l22 -9l-7 -8v-14h76l14 12l18 -19h-108v-43h60q0 18 -1 35l22 -10l-7 -6q0 -17 1 -27l-15 -6v7h-60v-17q0 -13 8 -13h75q8 0 10 8.5t3 25.5h5q0 -13 2 -22t9 -12q-6 -9 -11.5 -10.5t-7.5 -1.5h-88q-19 1 -19 20v22h-60l-6 -6l-15 11l7 6q0 17 -1 31
l21 -9l-6 -7v-19h60v43h-72q-11 0 -20 -2l-9 9h101zM121 80q0 10 -1 37l23 -12l-8 -7v-17h53l15 13l19 -20h-87v-49h77l15 14l19 -21h-206q-10 -1 -19 -3l-10 10h110v48h-58q-10 0 -20 -2l-9 9h87z" />
  </g>

</svg>
