<?xml version="1.0" standalone="no"?>
<!DOCTYPE svg PUBLIC "-//W3C//DTD SVG 1.1//EN" "http://www.w3.org/Graphics/SVG/1.1/DTD/svg11.dtd" >
<svg xmlns="http://www.w3.org/2000/svg" xmlns:xlink="http://www.w3.org/1999/xlink" version="1.1" viewBox="0 -205 1024 1024">
  <g transform="matrix(1 0 0 -1 0 819)">
   <path fill="currentColor"
d="M648 932l50 -40h170l30 38l56 -38q6 -4 6 -8q1 -6 -28 -32v-246l4 -76q0 -10 -12 -22q-13 -11 -40 -16v46h-188v-16q1 -12 -16 -24q-18 -10 -36 -14l4 114v334v0v0zM696 564h70v138h-70v-138v0v0zM814 702v-138h70v138h-70v0v0zM696 728h70v138h-70v-138v0v0zM814 866
v-138h70v138h-70v0v0zM102 938l50 -40h168l28 38l54 -38q6 -4 6 -8q1 -6 -28 -32v-248l4 -76q0 -10 -12 -22q-13 -9 -40 -14v44h-182v-16q1 -11 -16 -22q-18 -10 -36 -14l4 112v336v0v0zM150 568h70v138h-70v-138v0v0zM268 706v-138h64v138h-64v0v0zM150 732h70v140h-70
v-140v0v0zM268 872v-140h64v140h-64v0v0zM732 392h-50q-18 0 -54 -6l-20 32h128l4 110l66 -20q12 -6 6 -12t-26 -18l-6 -60h80l24 32q52 -37 56 -44q3 -6 0 -8q-3 -4 -30 -22v-104q-6 -149 -26 -185q-19 -35 -74 -50q-6 22 -20 34q-13 13 -74 34l6 16q39 -11 72 -16
q30 -6 48 8q18 15 24 167v112h-88q-18 -145 -72 -232q-54 -83 -198 -147l-8 16q112 67 164 141q52 75 68 222v0v0zM188 392h-68q-18 0 -54 -6l-20 32h144v110l66 -20q12 -6 6 -12q-5 -6 -28 -18v-60h84l24 32q52 -37 56 -44q3 -6 0 -8q-3 -4 -30 -22v-104q-3 -138 -24 -175
q-18 -37 -72 -50q-6 22 -20 34q-13 12 -64 32l6 16q27 -9 60 -16q30 -5 48 10q18 14 22 157v112h-92q-6 -121 -48 -208q-43 -84 -146 -155l-8 16q77 73 116 149q36 75 42 198v0v0zM558 940q6 -3 6 -8q-1 -7 -16 -16q-16 -9 -22 -42q-4 -34 -22 -158h52l26 36l44 -34
q15 -6 12 -12q1 -6 -28 -24q-6 -100 -24 -196q-15 -96 -42 -158q71 -54 80 -78t6 -42q-3 -16 -12 -22q-6 -8 -18 -6t-20 22q-7 21 -16 42t-36 48q-30 -64 -72 -118q-42 -52 -90 -89l-10 12q39 38 78 99q39 63 66 126q-21 21 -92 72q29 148 50 296h-20q-12 0 -30 -8l-20 34
h74q18 135 28 250l68 -26v0v0zM512 352q15 39 30 132q16 92 26 206h-68q-19 -124 -56 -292q40 -29 68 -46v0v0z" />
  </g>

</svg>
