<?xml version="1.0" standalone="no"?>
<!DOCTYPE svg PUBLIC "-//W3C//DTD SVG 1.1//EN" "http://www.w3.org/Graphics/SVG/1.1/DTD/svg11.dtd" >
<svg xmlns="http://www.w3.org/2000/svg" xmlns:xlink="http://www.w3.org/1999/xlink" version="1.1" viewBox="0 -36 256 256">
  <g transform="matrix(1 0 0 -1 0 220)">
   <path fill="currentColor"
d="M113 209l-8 -5l-2 -24h2l10 10l15 -17h-93q-11 0 -20 -2l-9 9h34l4 26h-4q-9 0 -16 -2l-10 9h31l3 32l19 -11l-6 -5l-3 -16h31l9 10zM92 206h-33l-4 -26h35zM77 14l-15 -8q1 22 1 49h-31l-6 -6l-13 12q5 3 7 6l6 19l17 -9l-7 -4l-4 -11h31v26h-23q-11 0 -20 -2l-9 9h52
v23h-23v-2l-14 -6q1 13 1 26t-1 26l14 -7h53l9 10l13 -14l-7 -4q0 -22 1 -28l-13 -6v5h-20v-23h22l11 11l17 -18h-50v-26h24l11 11l17 -18h-52q0 -22 1 -41zM40 148v-23h56v23h-56zM136 169q-7 -16 -17 -32l-3 2q24 53 34 107l21 -12l-8 -6q-9 -22 -17 -42l9 -8l-7 -6
q0 -129 1 -154l-14 -8q1 59 1 159zM206 245l23 -9l-9 -8v-57h2l12 12l13 -19h-27v-132q0 -11 -5.5 -16t-13.5 -7q-3 8 -8.5 12t-18.5 8v4q18 -2 25.5 -2.5t7.5 6.5v127h-24q-10 0 -19 -3l-10 10h53q0 47 -1 74zM192 111q7 -10 0 -18.5t-11 5.5t-15 32l2 2q17 -11 24 -21z
" />
  </g>

</svg>
