<?xml version="1.0" standalone="no"?>
<!DOCTYPE svg PUBLIC "-//W3C//DTD SVG 1.1//EN" "http://www.w3.org/Graphics/SVG/1.1/DTD/svg11.dtd" >
<svg xmlns="http://www.w3.org/2000/svg" xmlns:xlink="http://www.w3.org/1999/xlink" version="1.1" viewBox="0 -36 256 256">
  <g transform="matrix(1 0 0 -1 0 220)">
   <path fill="currentColor"
d="M134 90h59v28h-59v-28zM48 94q1 21 -1 37l16 -6h57v24h-64q-5 -17 -30 -38l-3 3q13 16 18 30.5t2 53.5l15 -6h62v19h-78q-10 0 -20 -2l-9 9h107q0 13 -1 28l25 -9l-10 -6v-13h77l15 12l18 -19h-110v-20h60l7 9l15 -11l-7 -6v-36l-14 -4v5h-61v-23h57l7 9l16 -10l-7 -5
q0 -27 1 -39l-15 -6v9h-48q34 -39 98 -50v-4q-15 0 -23 -13q-59 27 -81 67h-5q0 -58 1 -70l-16 -6q1 30 1 72q-40 -45 -108 -68l-2 3q67 31 96 69h-47q-6 -19 -31 -36l-3 2q22 24 23 45zM61 90h59v28h-59v-28zM57 156h63v29h-63v-29zM134 155h61v29h-61v-29z" />
  </g>

</svg>
