<?xml version="1.0" standalone="no"?>
<!DOCTYPE svg PUBLIC "-//W3C//DTD SVG 1.1//EN" "http://www.w3.org/Graphics/SVG/1.1/DTD/svg11.dtd" >
<svg xmlns="http://www.w3.org/2000/svg" xmlns:xlink="http://www.w3.org/1999/xlink" version="1.1" viewBox="0 -120 1000 1000">
  <g transform="matrix(1 0 0 -1 0 880)">
   <path fill="currentColor"
d="M448 432q-27 -173 -134 -264q-73 -62 -157 -93q-63 -19 -102 -31l-7 18q103 42 120 53q200 116 209 317h-315l-14 26h699l24 32l72 -37q15 -7 15 -15q0 -10 -15 -15l-22 -8q-9 -192 -39 -276q-17 -48 -44 -65q-30 -19 -76 -19q-12 0 -12 14q-1 16 -6 19q-3 3 -42 12
l-51 14v16h152q49 54 58 302h-313zM399 641q51 -1 95 -15q33 -10 53 -35q14 -17 14 -35q0 -30 -35 -30q-11 0 -21 8q-3 2 -43 41q-27 25 -85 48q-74 -53 -153 -83q-71 -27 -171 -46l-7 17q22 8 73 25q121 42 203 111q59 49 84 97q10 20 23 55h-368l-15 28h390q15 62 23 139
l80 -14q21 -3 21 -16q0 -9 -17 -14l-22 -6q-10 -56 -17 -89h299l51 62l94 -69v-21h-410q58 -100 217 -176q73 -35 195 -58v-16q-54 -3 -85 -49l-11 4q-252 98 -352 295h-5q-30 -96 -98 -158z" />
  </g>

</svg>
