<?xml version="1.0" standalone="no"?>
<!DOCTYPE svg PUBLIC "-//W3C//DTD SVG 1.1//EN" "http://www.w3.org/Graphics/SVG/1.1/DTD/svg11.dtd" >
<svg xmlns="http://www.w3.org/2000/svg" xmlns:xlink="http://www.w3.org/1999/xlink" version="1.1" viewBox="0 -36 256 256">
  <g transform="matrix(1 0 0 -1 0 220)">
   <path fill="currentColor"
d="M63 15l-15 -7q1 46 1 118q-11 -36 -36 -68l-3 3q28 50 38 115h-7q-10 0 -19 -2l-9 9h36q0 29 -1 64l24 -10l-10 -7v-47h11l11 12l15 -19h-37v-27q19 -11 27 -19.5t2.5 -20.5t-11 3.5t-18.5 30.5q0 -108 1 -128zM120 75.5q-3 -13.5 -3 -31t0.5 -25.5t-10.5 -2.5t-4.5 24
t-0.5 25t-18 8.5v5q18 -3 24 3.5t37 117.5l4 -1q-26 -110 -29 -123.5zM111.5 144.5q1.5 -9.5 -3 -16t-8.5 7t-19 33.5l2 3q27 -18 28.5 -27.5zM125 213q3 -8 -1 -17.5t-8.5 4t-20.5 34.5l2 2q25 -15 28 -23zM217 218l12 11l15 -18h-51v-176h26l13 14l15 -21h-92
q-10 0 -19 -2l-9 9h52v176h-15q-10 -1 -19 -3l-9 10h81z" />
  </g>

</svg>
