<?xml version="1.0" standalone="no"?>
<!DOCTYPE svg PUBLIC "-//W3C//DTD SVG 1.1//EN" "http://www.w3.org/Graphics/SVG/1.1/DTD/svg11.dtd" >
<svg xmlns="http://www.w3.org/2000/svg" xmlns:xlink="http://www.w3.org/1999/xlink" version="1.1" viewBox="0 -36 256 256">
  <g transform="matrix(1 0 0 -1 0 220)">
   <path fill="currentColor"
d="M142 209h72l10 11l18 -18h-102q-10 -16 -14 -22h71l10 11l18 -18h-53v-28h46l10 11l18 -18h-115q-13 0 -22 -3l-10 10h59v28h-36q-20 -26 -54 -45l-2 4q19 13 34 32t24 38h-16q-13 0 -22 -3l-10 10h51q8 19 13 36l18 -11q-6 -2 -16 -25zM200 8q-3 14 -32 19v5
q16 -1 26.5 -1t12.5 7v20h-90v-44l-15 -6q1 26 1 59.5t-1 60.5l15 -8h88l8 9l16 -12l-7 -6v-76q1 -19 -22 -27zM117 65h90v20h-90v-20zM117 92h90v21h-90v-21zM64 215.5q6 -8.5 1 -18t-11 3.5t-23 29l1 3q26 -9 32 -17.5zM14 179q31 -11 33.5 -21.5t-3 -16t-10.5 6t-21 28.5
zM40 86q7 4 33 107l5 -1q-20 -89 -24 -112t-2.5 -47t-9.5 -19t-7.5 22t3.5 27.5t-24 16.5v4q19 -2 26 2z" />
  </g>

</svg>
