<?xml version="1.0" standalone="no"?>
<!DOCTYPE svg PUBLIC "-//W3C//DTD SVG 1.1//EN" "http://www.w3.org/Graphics/SVG/1.1/DTD/svg11.dtd" >
<svg xmlns="http://www.w3.org/2000/svg" xmlns:xlink="http://www.w3.org/1999/xlink" version="1.1" viewBox="0 -36 256 256">
  <g transform="matrix(1 0 0 -1 0 220)">
   <path fill="currentColor"
d="M49 224q-13 0 -22 -3l-10 10h57l6 9l15 -9l-7 -8v-19q0 -14 1 -27l-14 -5v6h-27q-13 0 -22 -3l-10 10h59v39h-26zM214 238q-3 -1 -5.5 -12.5t-10.5 -43.5h30l7 10l13 -14q-5 -4 -10 -9.5t-16 -21.5l-3 1l9 27h-31q-10 -28 -21 -45l-3 3q10 26 16 60.5t6 52.5zM218 151
l-4 -5q3 -42 8 -61.5t12 -35t15 -23.5v-3q-11 -2 -15 -9q-15 27 -19.5 53.5t-4.5 68.5q-3 -57 -16 -84.5t-36 -46.5l-3 3q25 28 33.5 63.5t10.5 89.5zM54 66q22 -12 29 -21.5t2.5 -18.5t-9.5 2t-11.5 20t-11.5 12q-5 -14 -16 -28t-28 -26l-2 3q13 13 24 31.5t14 44.5h-16
l-11 -3l-10 10h38l1 39h-9q-12 -16 -27 -32l-3 2q11 17 18 36t10 35l20 -9l-7 -5q-4 -9 -9 -20h25l10 11l18 -18h-33l-1 -40h10l10 11l18 -18h-39q-1 -9 -4 -18zM116 224l-11 -3l-10 10h58l10 11l18 -18h-40q-6 -10 -13 -23h32l6 9l13 -10l-6 -8v-66l-13 -5v9h-45v-5l-14 -4
q1 25 1 47.5t-1 40.5l13 -8h8l5 23h-11zM160 180v14h-45v-14h45zM160 173h-45v-14h45v14zM160 152h-45v-15h45v15zM107 107l18 -8l-5 -6v-57l17 3q0 72 -1 89l20 -9l-6 -6v-25h2l10 11l18 -18h-30v-40l27 6v-4q-63 -19 -75 -28l-9 17q9 1 15 2q0 50 -1 73z" />
  </g>

</svg>
