<?xml version="1.0" standalone="no"?>
<!DOCTYPE svg PUBLIC "-//W3C//DTD SVG 1.1//EN" "http://www.w3.org/Graphics/SVG/1.1/DTD/svg11.dtd" >
<svg xmlns="http://www.w3.org/2000/svg" xmlns:xlink="http://www.w3.org/1999/xlink" version="1.1" viewBox="0 -36 256 256">
  <g transform="matrix(1 0 0 -1 0 220)">
   <path fill="currentColor"
d="M57 230h149l8 10l16 -12l-8 -6q0 -27 1 -36l-16 -5v9h-149q0 -69 -8.5 -105.5t-39.5 -74.5l-2 2q23 42 29 75t6 81t-1 70zM58 197h149v26h-149v-26zM151 161q10 -13 26 -24q12 11 25 26h-48zM158 170h45l9 8l15 -14l-10 -5q-14 -15 -32 -29q25 -14 62 -19v-4
q-14 0 -17 -11q-31 11 -53 26q-35 -21 -67 -27l-1 4q35 12 58 31q-13 15 -19 27q-13 -17 -26 -25l-2 3q19 21 31 56l19 -10q-6 -3 -12 -11zM172 49h-39l-8 -5l-11 11q5 0 10 8.5t8 15.5l14 -10q-4 -2 -13 -13h39v26h-20q-10 0 -20 -2l-10 9h50q0 13 -1 25l23 -7l-8 -7v-11
h18l12 10l16 -17h-46v-26h29l13 11l16 -18h-58q0 -25 1 -36l-16 -4q1 19 1 40zM120 176l-9 -3q-29 -31 -53 -46l-2 3q30 29 46 60zM101 144l17 -14l-9 -4l-11 -14v-71q0 -12 1 -24l-16 -7q1 11 1 22v66q-16 -16 -34 -24l-1 3q36 33 52 67z" />
  </g>

</svg>
