<?xml version="1.0" standalone="no"?>
<!DOCTYPE svg PUBLIC "-//W3C//DTD SVG 1.1//EN" "http://www.w3.org/Graphics/SVG/1.1/DTD/svg11.dtd" >
<svg xmlns="http://www.w3.org/2000/svg" xmlns:xlink="http://www.w3.org/1999/xlink" version="1.1" viewBox="0 -205 1024 1024">
  <g transform="matrix(1 0 0 -1 0 819)">
   <path fill="currentColor"
d="M402 700h198v74l68 -20q8 -3 8 -6q0 -4 -6 -10l-24 -14v-24h114l22 32l52 -40q3 -3 4 -8q0 -9 -12 -8h-180v-48h98l28 18l42 -26l6 -6q0 -10 -12 -10h-162v-58h162l28 44l54 -50q3 -3 4 -8q0 -10 -12 -10h-236v-44q0 -15 -12 -14q-13 -10 -34 -10v68h-170q-20 0 -64 -8
l-16 32h250v58h-118q-20 0 -58 -8l-16 32h192v48h-122q-19 -1 -62 -10l-14 34v0v0zM578 966q6 -3 6 -6q1 -3 -4 -8q-18 -4 -24 -8q-6 -1 -24 -14h214l26 20l46 -38q7 -8 6 -10q1 -6 -18 -8q-19 -3 -38 -12q-18 -9 -42 -24t-54 -32q45 -16 102 -28t96 -14q38 -1 100 -2v-16
q-45 -5 -62 -16q-15 -9 -24 -32q-46 14 -82 26q-36 11 -74 26q-40 11 -94 32q-72 -30 -150 -54q-77 -24 -166 -42l-6 14q74 22 154 50q81 27 132 52q-66 27 -116 60q-60 -45 -114 -78l-10 10q42 39 82 78q39 39 84 100l54 -26v0v0zM512 908l-16 -12q44 -21 130 -56
q56 29 106 68h-220v0v0zM46 746h130l28 38l48 -36q12 -7 12 -14q0 -3 -30 -24v-192q82 -49 116 -62q33 -12 84 -14q93 -10 406 2l148 14v-16q-28 -3 -52 -14q-25 -9 -32 -36l-338 2q-118 2 -160 10t-84 26t-72 46q-30 27 -48 28q-17 -1 -40 -26q-21 -24 -56 -78l-46 40
q62 45 130 90v192h-74q-27 1 -50 -10l-20 34v0v0zM150 972q39 -22 60 -34q20 -13 34 -32q12 -19 10 -38q-1 -18 -10 -26q-9 -9 -24 -6q-15 2 -18 28q-3 24 -14 42q-10 19 -46 56l8 10v0v0zM268 328h16q-1 -65 -14 -100q-11 -33 -34 -50q-24 -18 -44 -20q-18 -1 -30 10
q-10 11 -4 26q6 11 36 26q28 12 44 34q15 20 30 74v0v0zM478 382q80 -27 80 -32v-6q0 -4 -36 -16q33 -45 100 -120q54 42 132 124q62 -42 62 -48t-6 -8q-6 -1 -20 -2q-12 1 -36 -10q-21 -12 -116 -72q38 -34 94 -53q53 -18 104 -30q50 -12 146 -10v-20q-30 1 -54 -8
q-25 -8 -46 -38q-97 27 -164 62q-66 35 -114 85q-49 50 -94 122q-22 -63 -82 -126q-59 -62 -154 -99q-94 -35 -220 -56l-2 18q120 27 210 72q89 41 134 95q42 51 58 88q15 33 24 88v0v0z" />
  </g>

</svg>
