<?xml version="1.0" standalone="no"?>
<!DOCTYPE svg PUBLIC "-//W3C//DTD SVG 1.1//EN" "http://www.w3.org/Graphics/SVG/1.1/DTD/svg11.dtd" >
<svg xmlns="http://www.w3.org/2000/svg" xmlns:xlink="http://www.w3.org/1999/xlink" version="1.1" viewBox="0 -205 1024 1024">
  <g transform="matrix(1 0 0 -1 0 819)">
   <path fill="currentColor"
d="M874 942q12 -7 10 -14q-3 -4 -14 -8q-22 -3 -50 -30q-27 -27 -84 -96h130l32 38l50 -36q8 -6 8 -12t-24 -24v-94l4 -78q-1 -13 -22 -22q-19 -10 -34 -10v32h-178v-144h208l28 34l58 -40q10 -6 2 -14l-28 -22l-8 -98q-6 -63 -32 -96q-25 -30 -76 -42q-12 41 -38 56
q-25 15 -74 30l6 18q58 -16 92 -22q33 -6 48 4q15 9 24 60l8 104h-218v-260l4 -101q2 -12 -22 -28q-22 -16 -34 -14l4 143v204q-70 -86 -160 -166q-87 -78 -180 -123l-6 14q84 59 162 133q75 72 166 198h-162l-28 -30l-54 46l32 26l30 198l44 -40h156v150h-166q-19 0 -38 -8
l-28 36h284q59 96 110 186l58 -38v0v0zM702 766v-150h178v150h-178v0v0zM654 444v144h-162l-22 -144h184v0v0zM486 978q69 -31 100 -56q30 -25 36 -46q3 -18 -6 -36q-8 -16 -28 -16q-18 0 -24 24q-4 23 -20 50q-15 25 -68 68l10 12v0v0zM34 862h292l34 50l58 -56q3 -3 4 -8
q0 -12 -12 -12h-162v-260h54l36 44l52 -54q3 -2 4 -4q0 -12 -8 -12h-138v-272l174 50l8 -14q-283 -111 -314 -126q-27 -15 -48 -36l-46 62l176 52v284h-72q-21 0 -68 -8l-16 34h156v260h-92q-21 0 -56 -8l-16 34v0v0z" />
  </g>

</svg>
