<?xml version="1.0" standalone="no"?>
<!DOCTYPE svg PUBLIC "-//W3C//DTD SVG 1.1//EN" "http://www.w3.org/Graphics/SVG/1.1/DTD/svg11.dtd" >
<svg xmlns="http://www.w3.org/2000/svg" xmlns:xlink="http://www.w3.org/1999/xlink" version="1.1" viewBox="0 -36 256 256">
  <g transform="matrix(1 0 0 -1 0 220)">
   <path fill="currentColor"
d="M124 18l-14 -8l1 27v87q-11 -32 -30 -53l-3 2q22 39 33 98h-2q-3 0 -12 -3l-7 10h21q0 27 -1 66l21 -8l-8 -8v-50h4l11 9l12 -16h-27v-29q17 -13 21 -18t0 -16t-8 -0.5t-13 27.5v-73q0 -13 1 -44zM165 177q-10 -17 -21 -28l-3 2q11 19 19 40t14 54l20 -11l-7 -6
q-3 -10 -10 -25h44l12 10l14 -17h-73q-3 -7 -8 -16l10 -10h38l9 9l12 -12l-7 -6l-2 -44h2l9 8l11 -15h-22l-2 -50h3l10 9l11 -16h-24q-1 -24 -9.5 -32t-16.5 -9q0 12 -24 20v4q15 -3 25.5 -4t11.5 21h-48l-7 -7l-11 13l7 5l6 46q-1 0 -7 -3l-5 10h13q4 28 6 60zM202.5 137.5
q2.5 -7.5 -4 -14.5t-7.5 4.5t-8 28.5l2 2q15 -13 17.5 -20.5zM200 81.5q2 -7.5 -5 -14.5t-7.5 6.5t-7.5 28.5l2 2q16 -15 18 -22.5zM171 117h43l2 46h-40zM163 60h49l2 50h-44zM32 96q11 -4 22 -10q11 26 16 82q-13 -2 -23 -4q-3 -15 -15 -68zM56 221q-2 -12 -7 -47
q11 1 21 3q0 11 -1 22l16 -8q-3 -4 -3 -13q7 0 11 1l1 -5q-8 -3 -12 -4q-2 -30 -5.5 -48t-11.5 -42q15 -12 19.5 -19.5t1.5 -16.5t-9 1t-17 23q-17 -36 -49 -58l-1 3q27 29 41 63q-12 9 -32 17q8 32 16 69q-15 -3 -23 -6l-5 15q17 0 29 2q8 47 8 66l18 -10z" />
  </g>

</svg>
