<?xml version="1.0" standalone="no"?>
<!DOCTYPE svg PUBLIC "-//W3C//DTD SVG 1.1//EN" "http://www.w3.org/Graphics/SVG/1.1/DTD/svg11.dtd" >
<svg xmlns="http://www.w3.org/2000/svg" xmlns:xlink="http://www.w3.org/1999/xlink" version="1.1" viewBox="0 -52 256 256">
  <g transform="matrix(1 0 0 -1 0 204)">
   <path fill="currentColor"
d="M92 239l11 -13h120l9 10l13 -12q1 -1 1 -2t-3 -2l-4 -2v-166l1 -26q2 -10 -12 -11v18h-124v-6q0 -10 -13 -11q2 9 2 37v172q-1 6 -5 11zM104 38h124v183h-124v-183zM63 159q3 -2 0 -4l-7 -5v-96q5 6 14 17q11 12 16 18l3 -3q-28 -36 -33 -46q-3 -5 -4 -10l-16 12q6 3 9 7
v108h-25q-7 -1 -9 -4l-9 8h41l7 9zM18 245l1 3q33 -10 42 -27q6 -16 -4 -19q-5 0 -5 8q-1 9 -9 18q-9 9 -25 17zM177 205q0 3 -6 8l2 3l18 -7q4 -2 2 -4q-3 0 -6 -3v-30h15l7 10l15 -12q2 -1 2 -2q-1 -1 -3 -1h-36v-103q0 -7 -4 -12q-5 -5 -17 -7q0 11 -28 14l1 5l10 -2
q30 -8 28 8v97h-8q-10 -81 -62 -110l-2 4q47 37 53 106h-28q-6 1 -11 -3l-9 8h67v33z" />
  </g>

</svg>
