<?xml version="1.0" standalone="no"?>
<!DOCTYPE svg PUBLIC "-//W3C//DTD SVG 1.1//EN" "http://www.w3.org/Graphics/SVG/1.1/DTD/svg11.dtd" >
<svg xmlns="http://www.w3.org/2000/svg" xmlns:xlink="http://www.w3.org/1999/xlink" version="1.1" viewBox="0 -205 1024 1024">
  <g transform="matrix(1 0 0 -1 0 819)">
   <path fill="currentColor"
d="M754 576q7 -4 6 -10q0 -1 -6 -4l-20 -10v-24h114l36 38l50 -46q3 -4 4 -4q5 -12 -4 -12h-200v-74h80l30 34l50 -44q2 -1 4 -8q3 -6 -8 -6h-156v-70h140l34 36l54 -44q3 -3 4 -8q-1 -9 -10 -8h-326q34 -64 80 -112q81 48 132 94q44 -39 46 -44q3 -4 0 -8q-4 -3 -16 -2
q-12 0 -36 -6q-23 -6 -112 -48q38 -37 74 -57q36 -22 90 -32q51 -9 94 -12v-18q-30 0 -54 -6q-21 -5 -44 -32q-85 35 -128 70q-42 35 -74 75q-31 42 -80 138h-26l-70 -70v-145l136 65l10 -14q-112 -66 -136 -87q-24 -20 -42 -44l-46 42l32 26v123q-100 -83 -226 -145l-8 14
q102 68 174 127q70 60 110 108h-182q-20 -1 -46 -10l-18 34h224v70h-86q-20 -1 -46 -10l-18 34h150v74h-106q-34 -1 -58 -10l-18 34h182v74l68 -24q9 -2 6 -10q0 -1 -6 -4l-22 -10v-26h152v66l68 -18v0v0zM534 336h152v70h-152v-70v0v0zM534 430h152v74h-152v-74v0v0z
M844 846l38 46l62 -54q3 -2 4 -4q1 -12 -10 -12h-560q-21 0 -56 -8l-16 32h538v0v0zM372 790l44 -30h110l26 30l46 -32q6 -5 6 -10q1 -4 -22 -16v-54l4 -46q2 -13 -16 -22q-18 -10 -32 -8v22h-122v-14q1 -7 -16 -16q-18 -7 -32 -8l4 92v112v0v0zM416 646h122v92h-122v-92v0
v0zM658 790l44 -30h114l20 30l46 -32q7 -5 8 -10q0 -4 -24 -16v-50l4 -46q2 -12 -16 -24q-18 -10 -32 -8v22h-120v-10q0 -6 -12 -14q-12 -9 -36 -8l4 88v108v0v0zM702 648h120v90h-120v-90v0v0zM532 972l8 10q74 -27 94 -48t20 -38q-1 -19 -14 -28q-12 -11 -26 -6
q-15 2 -20 26q-4 21 -16 40q-11 17 -46 44v0v0zM106 930l6 16q44 -15 76 -30q30 -12 46 -30t20 -38q3 -22 -8 -34q-12 -14 -26 -12q-13 3 -20 18l-14 32q-6 15 -24 36q-19 18 -56 42v0v0zM162 432q-14 -54 -46 -56q-33 0 -72 6l-2 -18q39 -7 64 -16q23 -9 32 -20
q9 -12 12 -42q5 -29 -4 -94q-10 -62 -8 -89q0 -27 16 -36q15 -9 30 0q16 9 20 36q3 25 -6 91q-10 68 -10 104q-1 37 2 62q2 25 10 68l100 370l-20 8l-118 -374v0v0zM34 714l10 12q54 -24 78 -38q24 -13 40 -32q14 -18 16 -42q3 -22 -8 -34q-9 -13 -24 -10q-16 3 -22 18
l-12 32q-5 15 -16 36q-12 18 -62 58v0v0z" />
  </g>

</svg>
