<?xml version="1.0" standalone="no"?>
<!DOCTYPE svg PUBLIC "-//W3C//DTD SVG 1.1//EN" "http://www.w3.org/Graphics/SVG/1.1/DTD/svg11.dtd" >
<svg xmlns="http://www.w3.org/2000/svg" xmlns:xlink="http://www.w3.org/1999/xlink" version="1.1" viewBox="0 -36 256 256">
  <g transform="matrix(1 0 0 -1 0 220)">
   <path fill="currentColor"
d="M108 220h-73v-35h73v35zM115 236l15 -12l-8 -7v-16q0 -13 1 -24l-15 -6v7h-73v-4l-15 -4q1 17 1 33t-1 31l16 -7h70zM163 186h61l6 11l17 -13q-13 -7 -30 -35l-5 1l12 29h-63q-11 -32 -26 -54l-3 3q13 32 19.5 65t8.5 53l21 -11l-7 -7q-2 -8 -11 -42zM194 153l-6 -7
q7 -52 23.5 -80.5t34.5 -38.5l-1 -4q-14 1 -20 -7q-22 27 -30 55t-11 63q-6 -50 -23 -79t-44 -48l-1 4q25 24 39 58.5t17 95.5zM43 82q-8 -3 -28 -25q22 -12 23 -21t-4 -12.5t-8.5 6.5t-17.5 27q15 22 18 38zM87 79q-7 -2 -28 -24q21 -11 22.5 -18.5t-3 -13t-9.5 6.5t-17 25
q17 25 20 37zM131 80q-9 -4 -27 -23q19 -10 23 -16.5t-1.5 -14t-9 3t-19.5 27.5q15 23 19 36zM45 155q-9 -5 -28 -27q22 -11 23.5 -19.5t-4 -12t-9 6.5t-17.5 25q15 23 18 39zM88 152q-7 -2 -29 -24q21 -10 23 -18t-3.5 -12t-9.5 6.5t-16 21.5q16 27 19 39zM128 152
q-9 -4 -28 -24q21 -9 24.5 -15t-1.5 -13t-9.5 3t-20.5 25q16 25 20 37z" />
  </g>

</svg>
