<?xml version="1.0" standalone="no"?>
<!DOCTYPE svg PUBLIC "-//W3C//DTD SVG 1.1//EN" "http://www.w3.org/Graphics/SVG/1.1/DTD/svg11.dtd" >
<svg xmlns="http://www.w3.org/2000/svg" xmlns:xlink="http://www.w3.org/1999/xlink" version="1.1" viewBox="0 -205 1024 1024">
  <g transform="matrix(1 0 0 -1 0 819)">
   <path fill="currentColor"
d="M126 910l48 -44h114l28 34l46 -34q12 -6 12 -12t-26 -32v-604l4 -76q0 -13 -14 -29q-15 -14 -42 -14v61h-120v-47q0 -13 -18 -26q-18 -12 -36 -12l4 133v702v0v0zM176 186h120v218h-120v-218v0v0zM176 430h120v194h-120v-194v0v0zM176 650h120v192h-120v-192v0v0z
M716 508l4 70v62h-96l-6 -132h98v0v0zM376 668h510l40 44l60 -54q3 -4 4 -4q0 -13 -12 -14h-212v-62l-4 -70h96l32 38q61 -54 62 -60q0 -8 -38 -28v-355q3 -27 -12 -48q-16 -21 -64 -40q-9 36 -44 50q-36 13 -74 26l6 16q56 -12 80 -16q23 -4 44 4q18 7 16 26v363h-106
q-7 -44 -16 -88q57 -55 78 -88q20 -33 22 -54q1 -21 -10 -38t-28 -12q-16 3 -16 30q1 27 -10 64q-12 35 -44 76q-24 -87 -54 -144q-31 -57 -70 -99l-14 8q36 58 58 107q21 48 34 96q12 48 24 142h-100q-5 -37 -10 -64q45 -39 58 -60q9 -19 12 -34q2 -15 -4 -30t-24 -14
q-16 0 -16 30q0 26 -8 50q-9 21 -24 40q-18 -64 -38 -110q-21 -45 -72 -114l-14 10q38 69 64 142q24 71 30 154h-98v-326l4 -97q0 -13 -20 -24q-18 -11 -38 -14l4 119v412l60 -46h92l2 132h-122q-13 0 -58 -6l-18 34v0v0zM392 834h152v150l70 -32q7 -3 8 -6q0 -7 -6 -10
l-22 -16v-86h138v148l68 -30q7 -3 8 -6q1 -4 -6 -10l-20 -10v-92h90l34 50l62 -54q3 -3 4 -8q1 -12 -16 -12h-174v-20l4 -58q1 -16 -22 -26q-21 -10 -36 -8l4 88v24h-138v-14l4 -56q3 -18 -20 -30q-24 -10 -38 -10l4 82v28h-70q-19 0 -68 -8l-14 32v0v0z" />
  </g>

</svg>
