<?xml version="1.0" standalone="no"?>
<!DOCTYPE svg PUBLIC "-//W3C//DTD SVG 1.1//EN" "http://www.w3.org/Graphics/SVG/1.1/DTD/svg11.dtd" >
<svg xmlns="http://www.w3.org/2000/svg" xmlns:xlink="http://www.w3.org/1999/xlink" version="1.1" viewBox="0 -205 1024 1024">
  <g transform="matrix(1 0 0 -1 0 819)">
   <path fill="currentColor"
d="M342 982l84 -32q6 -2 4 -10q0 -3 -36 -20v-58h198v122l80 -32q6 -2 6 -10q0 -3 -36 -20v-60h192l40 50l64 -60q3 -3 4 -8q-1 -7 -16 -8h-284v-48q-1 -14 -20 -22q-21 -6 -30 -6v76h-198v-34q-3 -14 -24 -22q-7 -6 -28 -6v62h-202q-21 0 -68 -8l-20 34h290v120v0v0z
M78 670h204v106q78 -21 82 -26t2 -10q-4 -5 -34 -16v-54h122l36 42l56 -50q3 -3 4 -8q-1 -10 -16 -10h-202v-92h108l30 36l52 -36q12 -6 12 -12q0 -4 -30 -26v-78l4 -50q0 -11 -18 -22q-15 -10 -36 -10v32h-122v-50q57 -15 108 -42q51 -24 64 -48t6 -44q-7 -18 -22 -20
q-16 0 -32 24q-15 24 -48 60q-34 34 -76 50v-189l4 -68q1 -12 -22 -24q-21 -12 -36 -12l4 102v239q-78 -155 -230 -289l-12 14q113 123 208 297h-90v-18q0 -13 -20 -22t-34 -8l4 96v158l58 -40h116v92h-144q-20 0 -46 -8l-14 34v0v0zM158 412h124v116h-124v-116v0v0z
M332 528v-116h122v116h-122v0v0zM736 750q14 -7 8 -16l-30 -10q-19 -16 -52 -94h184l30 38q68 -51 68 -60q0 -6 -18 -8q-27 -9 -48 -30q-19 -18 -64 -78l-16 10l52 102h-202q-45 -78 -102 -162l-18 6q65 135 94 204q27 68 48 134l66 -36v0v0zM748 522q6 -5 6 -10q0 -3 -6 -6
l-24 -14q21 -126 60 -210q36 -85 84 -136q47 -46 116 -65v-18q-36 3 -56 -4q-21 -6 -36 -22q-43 32 -86 102q-43 67 -64 143q-19 75 -34 156q-7 -75 -28 -144q-18 -69 -78 -140q-57 -70 -212 -137l-8 14q107 62 170 127q62 66 88 162q26 93 32 234l76 -32v0v0z" />
  </g>

</svg>
