<?xml version="1.0" standalone="no"?>
<!DOCTYPE svg PUBLIC "-//W3C//DTD SVG 1.1//EN" "http://www.w3.org/Graphics/SVG/1.1/DTD/svg11.dtd" >
<svg xmlns="http://www.w3.org/2000/svg" xmlns:xlink="http://www.w3.org/1999/xlink" version="1.1" viewBox="0 -205 1024 1024">
  <g transform="matrix(1 0 0 -1 0 819)">
   <path fill="currentColor"
d="M503 918v-73h410v73h-410zM872 445q8 1 12 5l28 27q3 5 7 5q3 -1 7 -5q41 -34 62 -56q6 -7 -7 -8q-27 -3 -49 -19q-23 -17 -60 -59q7 -4 7 -7q-1 -5 -8 -12q-9 -9 -9 -40v-11h17q6 0 12 7l36 41q7 7 14 0q26 -26 44 -48q11 -14 4 -24q-5 -6 -18 -7h-109v-107
q-2 -31 -21 -53q-19 -21 -44 -28q-9 -3 -13 4q-5 12 -30 28q-20 14 -66 27q-11 1 -10 10t13 8q31 -1 73 -4q41 -1 50 3q3 3 3 16v96h-48q-27 0 -61 -7q-5 -1 -6 2q-10 16 -19 29q-33 -11 -61 -21v-110q-2 -31 -21 -53q-19 -21 -44 -28q-9 -3 -13 4q-5 12 -30 28
q-20 14 -66 27q-11 1 -10 10t13 8q31 -1 73 -4q41 -1 50 3q3 3 3 16v85q-7 -3 -13 -4q-61 -18 -71 -27q-10 -8 -14 1q-13 25 -29 38q-11 11 7 12t88 13q16 5 32 6v10q-1 53 -5 78q-1 4 2 7q4 3 11 0q13 -6 23 -12q20 32 33 57h-56q-27 0 -61 -7q-5 -1 -6 2q-13 19 -23 35
q-6 10 7 7q61 -5 68 -6h54q8 1 12 5l28 27q1 3 5 3q-1 1 -1 2q-5 12 -30 28q-20 14 -66 27q-11 1 -10 10t13 8q31 -1 73 -4q41 -1 50 3q3 3 3 16v36h-80q-27 0 -61 -7q-5 -1 -6 2q-13 19 -23 35q-6 10 7 7q61 -5 68 -6h94q-1 38 -4 57q-1 4 2 7q4 3 11 0q22 -11 38 -21
q32 30 60 58h-162q-27 0 -61 -7q-5 -1 -6 2q-13 19 -23 35q-6 10 7 7q61 -5 68 -6h174q6 0 9 4l32 27q3 4 6 4q4 0 8 -4q33 -27 55 -49q7 -8 -5 -9q-27 -2 -52 -14q-32 -10 -95 -62q-1 -3 -7 -10q-7 -6 -8 -19h112q6 0 12 7l36 41q7 7 14 0q26 -26 44 -48q11 -14 4 -24
q-5 -6 -18 -7h-205v-47q-2 -31 -21 -53q-19 -21 -44 -28h-4l1 -1q41 -34 62 -56q6 -7 -7 -8q-27 -3 -49 -19q-21 -16 -55 -49h1q9 -6 9 -9q-1 -5 -8 -12q-9 -9 -9 -40v-1q61 14 97 23q12 4 15 -6q3 -11 -10 -15q-9 -2 -13 -5q36 -2 43 -3h63v11q-1 53 -5 78q-1 4 2 7
q4 3 11 0q15 -8 28 -15q23 40 36 68h-52q-27 0 -61 -7q-5 -1 -6 2q-13 19 -23 35q-6 10 7 7q61 -5 68 -6h50zM903 952l17 26q5 8 12 2q28 -18 55 -40q8 -7 7 -11q-2 -4 -9 -8q-24 -11 -25 -18q-3 -6 -2 -15v-4q-1 -37 6 -98q1 -11 -5 -12q-41 -14 -44 -13q-2 1 -2 11v42
h-410v-63q0 -190 -12 -302q-11 -115 -47 -202q-35 -85 -120 -194q-12 -13 -22 -4q-11 11 -1 23q68 93 96 169q11 26 20 60q20 74 27 159q11 121 11 290v141q0 49 -4 76q-4 14 0 17q5 3 17 -9q15 -13 34 -26h392q6 0 9 3zM343 559l33 38q7 8 14 1q26 -24 42 -49q11 -16 8 -23
q-4 -7 -17 -8h-150v-161q71 18 135 34q15 4 16 -5q2 -12 -14 -16q-76 -29 -137 -50v-35q0 -117 4 -196q1 -8 -5 -12l-42 -27q-13 -10 -12 11q6 133 7 224v18q-112 -38 -121 -53q-7 -8 -11 -9t-7 8q-10 26 -31 45q-12 11 -11 14q2 3 12 4q69 8 140 27q13 4 29 7v172h-110
q-7 -12 -11 -16q-6 -7 -10 -1q-13 18 -41 34q-7 6 0 10q6 6 15 10q24 21 84 255h-14q-42 -1 -73 -7q-8 -3 -11 6q-4 18 -19 30q-7 7 -4 11q4 3 11 -1q38 -8 84 -8h34q25 108 26 147q0 11 7 8q31 -14 68 -36q9 -5 9 -12q0 -5 -12 -8q-25 -10 -46 -91q-2 -4 -3 -8h108
q6 0 12 7l36 41q7 7 14 0q26 -26 44 -48q11 -14 4 -24q-5 -6 -18 -7h-208q-18 -60 -75 -261h99v19q-1 80 -5 128q-2 17 10 13q54 -17 72 -27q14 -7 -2 -16q-16 -8 -20 -18q-7 -19 -7 -80v-19h49q11 0 21 10z" />
  </g>

</svg>
