<?xml version="1.0" standalone="no"?>
<!DOCTYPE svg PUBLIC "-//W3C//DTD SVG 1.1//EN" "http://www.w3.org/Graphics/SVG/1.1/DTD/svg11.dtd" >
<svg xmlns="http://www.w3.org/2000/svg" xmlns:xlink="http://www.w3.org/1999/xlink" version="1.1" viewBox="0 -36 256 256">
  <g transform="matrix(1 0 0 -1 0 220)">
   <path fill="currentColor"
d="M46 200q-8 -12 -12 -21q13 -3 18.5 -8t3 -14.5t-7.5 -1.5t-16 19q-9 -16 -26 -31l-2 3q12 16 18 31t8 31zM45 149q-5 -5 -12 -19q17 -6 21 -11t1 -12.5t-8.5 1t-15.5 18.5q-7 -14 -24 -26l-3 2q13 14 18.5 28.5t7.5 28.5zM118 204q-8 -10 -12 -18q13 -4 17.5 -9.5t2 -14
t-7 -1.5t-14.5 20q-11 -16 -25 -27l-2 3q10 11 16 25.5t9 30.5zM115 155q-8 -9 -10 -17q15 -6 19.5 -11.5t2 -14.5t-8.5 1t-16 20q-10 -15 -24 -27l-3 2q10 12 16.5 25.5t9.5 31.5zM167 202q-8 -10 -12 -19q12 -3 18 -8t3 -14.5t-8 -1.5t-15 20q-9 -17 -21 -28l-2 4
q9 12 13.5 26.5t6.5 29.5zM164 151q-6 -9 -11 -20q16 -5 19 -10t1 -12.5t-7.5 0.5t-14.5 17q-9 -14 -22 -24l-2 2q10 14 15 28t7 28zM237 203q-5 -4 -11 -17q14 -7 18.5 -11.5t1.5 -12.5t-7.5 -1.5t-15.5 18.5q-9 -15 -25 -27l-2 3q11 13 16.5 27.5t8.5 30.5zM234 152
q-5 -6 -11 -19q18 -7 22.5 -11.5t1 -12.5t-9.5 1t-16 18q-10 -14 -26 -24l-1 4q10 10 16.5 24t8.5 28zM18 104l19 -6l-5 -7v-24h67q0 23 -1 39l21 -8l-7 -8q0 -16 1 -30l-14 -6v6h-26v-44l-13 -6v50h-28l-7 -8l-12 11l6 6q0 21 -1 35zM143 54l-11 12l6 6q0 17 -1 33l19 -9
l-5 -7v-21h75q0 20 -1 35l21 -8l-7 -7q0 -12 1 -26l-14 -6v5h-31q0 -21 1 -49l-15 -5q1 28 1 54h-32zM78 104l-5 -5v-32h-13v43zM60 112v106q-18 -1 -49 -2v5q34 3 63.5 9t40.5 14l12 -17q-13 -1 -54 -8v-100zM200 103l-5 -6v-29h-13v41zM182 113v108q-20 -2 -50 -3v5
q34 3 62.5 9t41.5 15l11 -17q-13 -2 -52 -9v-104z" />
  </g>

</svg>
