<?xml version="1.0" standalone="no"?>
<!DOCTYPE svg PUBLIC "-//W3C//DTD SVG 1.1//EN" "http://www.w3.org/Graphics/SVG/1.1/DTD/svg11.dtd" >
<svg xmlns="http://www.w3.org/2000/svg" xmlns:xlink="http://www.w3.org/1999/xlink" version="1.1" viewBox="0 -205 1048 1024">
  <g transform="matrix(1 0 0 -1 0 819)">
   <path fill="currentColor"
d="M969 878q27 -22 20 -35q-5 -10 -42 -7l-12 -16q-20 -28 -30 -40q-18 -23 -32 -38l-7 1q14 44 21 64q11 31 20 56h-446q-4 -35 -16 -70q-9 -26 -22 -51q-16 -27 -30 -32q-11 -4 -17 8q-5 12 -3 29q3 20 16 32q27 30 43 66q20 39 29 91h8l-4 -38l-1 -20h435l29 37zM988 150
q-18 0 -40 -14q-19 -13 -27 -31q-59 46 -123 143q-70 104 -106 205v-340l1 -18q2 -15 -1 -21q-4 -8 -21 -14q-13 -3 -17 2q-1 3 0 18v12v314q-62 -91 -132.5 -174t-136.5 -129l-3 10q68 67 133 161t122 206h-197l-56 -5l-11 21l54 -1h227v242l-4 57l55 -15q26 -7 13 -21
q-12 -11 -26 -11v-252h17q17 26 150 257l42 -35q23 -18 19 -24q-5 -6 -43 -2l-152 -196h176l43 54l45 -49q11 -10 7 -16q-3 -4 -15 -4h-281q51 -115 116 -194q78 -95 173 -124zM594 574q10 -42 -2 -49q-13 -7 -32 29q-21 44 -50 87q-30 45 -68 92l7 9q63 -49 96 -84
q41 -44 49 -84zM331 884l53 -38q12 -14 2 -18q-7 -3 -25 -3h-123q20 -5 15 -14q-4 -7 -27 -14v-221h55l37 41l49 -36q13 -11 9 -16q-4 -4 -20 -4h-130v-245l54 24q31 14 49 22q29 11 56 22l4 -10l-41 -21q-98 -54 -138 -78q-65 -37 -102 -64q-6 -32 -14 -37q-8 -4 -21 22
l-21 47q17 7 40 17q13 6 41 18l49 23v260h-51l-49 -3l-9 20l58 -2h51v249h-46l-58 -2l-9 19l66 -3h155z" />
  </g>

</svg>
