<?xml version="1.0" standalone="no"?>
<!DOCTYPE svg PUBLIC "-//W3C//DTD SVG 1.1//EN" "http://www.w3.org/Graphics/SVG/1.1/DTD/svg11.dtd" >
<svg xmlns="http://www.w3.org/2000/svg" xmlns:xlink="http://www.w3.org/1999/xlink" version="1.1" viewBox="0 -36 256 256">
  <g transform="matrix(1 0 0 -1 0 220)">
   <path fill="currentColor"
d="M34 119h40l10 10l14 -13l-8 -5q-4 -43 -7.5 -59.5t-11 -26.5t-21.5 -14q0 5 -4.5 10.5t-18.5 11.5l1 4q22 -6 28 -5t11 18t8 62h-40l-10 -8l-12 16l7 2q5 34 6 60l12 -8h36v46h-31q-10 0 -19 -2l-9 9h59l8 10l14 -12l-7 -6v-40q0 -11 1 -18l-16 -6v12h-34zM140 145.5
q-10 -11.5 -36 -21.5l-1 4q33 18 35 51q-13 -2 -21 -6l-11 17q11 1 28 22t22 34l18 -14l-9 -3q-19 -20 -41 -39l83 5q-6 9 -18 22l3 3q28 -18 34 -25.5t1 -17t-8 -3t-8 14.5l-18 -3v-19q-1 -18 9 -18t18.5 2.5t13.5 -6.5t-40 -8q-15 1 -15 17v30l-26 -3q-3 -24 -13 -35.5z
M151 122h43l7 9l16 -15l-9 -5q-12 -32 -31 -54q8 -8 26.5 -16.5t43.5 -10.5v-5q-14 -1 -20 -14q-14 4 -30.5 14t-30.5 22q-33 -28 -83 -38l-1 4q33 11 50 23t24 20q-13 16 -25 39q-12 -16 -32 -30l-3 3q18 18 30 38l-6 17l4 2l7 -13q14 23 17 36l19 -11l-5 -2q-6 -6 -11 -13
zM137 101q10 -19 29 -36q17 19 28 50h-47z" />
  </g>

</svg>
