<?xml version="1.0" standalone="no"?>
<!DOCTYPE svg PUBLIC "-//W3C//DTD SVG 1.1//EN" "http://www.w3.org/Graphics/SVG/1.1/DTD/svg11.dtd" >
<svg xmlns="http://www.w3.org/2000/svg" xmlns:xlink="http://www.w3.org/1999/xlink" version="1.1" viewBox="0 -52 256 256">
  <g transform="matrix(1 0 0 -1 0 204)">
   <path fill="currentColor"
d="M49 92l9 -8h139l8 9l12 -11q2 -2 1 -2l-2 -2l-5 -3v-52h13l8 10l17 -13q4 -3 -1 -2h-218q-7 0 -11 -4l-9 9h41v54q1 6 -5 11zM112 124l1 -18q0 -9 -12 -12v10q1 18 1 32v94q0 6 -4 9l4 3l8 -11h41l7 11l13 -11q4 -3 0 -5l-7 -3v-98q3 -29 -18 -30q-2 8 -13 11q-4 1 -6 2
l1 4l15 -3q4 -1 6 -1q6 0 6 11v36h-43v-31zM15 107l-3 2q29 33 40 70h-19q-8 0 -11 -4l-9 8h41v51q0 5 -6 9l1 2l19 -6q3 -1 1 -3q-4 -1 -5 -4v-49h13l7 9l14 -10q2 -2 1 -2q0 -1 -2 -1h-33v-15q17 -8 23 -18q7 -11 -3 -13q-3 1 -5 7q-3 12 -15 19v-43l1 -15q0 -4 -12 -8v7
q1 14 1 24v34q-12 -28 -39 -51zM198 234q2 -1 1 -2q0 -1 -2 -1q-4 0 -5 -4v-56q30 18 34 23q2 3 0 4l2 2l14 -12q2 -1 2 -2t-2 -1q-4 1 -9 -1h-2l-12 -6q-17 -8 -27 -12v-38q-1 -19 10 -20q8 -1 20 0q10 0 10 11q3 11 3 33h4q0 -23 1 -28q-1 -5 7 -9q-5 -13 -20 -15
q-11 -2 -26 -1q-20 1 -19 30v100q0 5 -7 10l2 3zM153 79h-42v-56h42v56zM102 79h-41v-56h41v56zM162 23h39v56h-39v-56zM155 226h-43v-30h43v30zM155 191h-43v-31h43v31zM21 222l2 2q7 -4 16 -10l1 -1q4 -4 6 -10v-1q1 -6 -5 -7q-5 0 -5 5q-1 6 -4 10q-2 5 -11 12zM83 225
l14 -9q1 -2 -1 -2t-5 -1q-13 -13 -21 -19l-2 2l8 11q5 7 7 13q0 1 -1 2t-1 2z" />
  </g>

</svg>
