<?xml version="1.0" standalone="no"?>
<!DOCTYPE svg PUBLIC "-//W3C//DTD SVG 1.1//EN" "http://www.w3.org/Graphics/SVG/1.1/DTD/svg11.dtd" >
<svg xmlns="http://www.w3.org/2000/svg" xmlns:xlink="http://www.w3.org/1999/xlink" version="1.1" viewBox="0 -36 256 256">
  <g transform="matrix(1 0 0 -1 0 220)">
   <path fill="currentColor"
d="M69 222q1 -20 -0.5 -31.5t-10 -14.5t-13.5 -0.5t5 14t15 32.5h4zM78 149.5q21 18.5 30 45t10 50.5l21 -11q-7 -4 -8 -13q8 -23 25 -45q31 32 37 46l17 -16q-10 -3 -24.5 -14t-26.5 -20q32 -35 86 -39v-4q-18 -3 -22 -14q-71 22 -94 95q-15 -50 -43 -69.5t-75 -28.5v4
q46 15 67 33.5zM79 23h99v27h-99v-27zM64 127l15 -9h98l10 10l14 -13l-9 -6v-86h28l10 11l18 -18h-204q-13 0 -22 -3l-10 10h53v66q0 10 -1 38zM79 87h99v24h-99v-24zM79 57h99v23h-99v-23z" />
  </g>

</svg>
