<?xml version="1.0" standalone="no"?>
<!DOCTYPE svg PUBLIC "-//W3C//DTD SVG 1.1//EN" "http://www.w3.org/Graphics/SVG/1.1/DTD/svg11.dtd" >
<svg xmlns="http://www.w3.org/2000/svg" xmlns:xlink="http://www.w3.org/1999/xlink" version="1.1" viewBox="0 -36 256 256">
  <g transform="matrix(1 0 0 -1 0 220)">
   <path fill="currentColor"
d="M77 220q25 -11 36 -17.5t8 -19.5t-12.5 1t-34.5 32q-22 -43 -62 -75l-3 3q24 25 42 58.5t18 43.5l21 -13q-6 -1 -13 -13zM110 115q0 -21 1 -35l-14 -8v7h-50v-47l45 18q-4 8 -13 23l3 2q22 -18 28.5 -28t0 -19.5t-10 0t-6.5 18.5q-50 -30 -53 -38l-11 16q4 6 4 13v77
q0 25 -1 45l15 -10h49l6 10l15 -15l-8 -7v-22zM47 118h50v24h-50v-24zM47 86h50v25h-50v-25zM193 174v46h-34v-16q0 -32 -10.5 -48.5t-30.5 -23.5l-1 3q29 18 29 68v14q0 2 -1 19l13 -9h34l8 9l15 -13l-9 -7v-35q0 -15 10 -15h12q4 0 8.5 3.5t10 -6t-11.5 -9.5h-25
q-15 -1 -17 20zM194 147l18 -15l-8 -1q-47 -32 -85 -38l-1 3q49 18 76 51zM208 111l14 -16h-9q-41 -33 -84 -40v3q51 20 79 53zM220 74l15 -17l-9 -2q-52 -43 -112 -43l-1 3q68 13 107 59zM82 176l12 11l13 -18h-43q-11 0 -13 -2l-4 9h35z" />
  </g>

</svg>
