<?xml version="1.0" standalone="no"?>
<!DOCTYPE svg PUBLIC "-//W3C//DTD SVG 1.1//EN" "http://www.w3.org/Graphics/SVG/1.1/DTD/svg11.dtd" >
<svg xmlns="http://www.w3.org/2000/svg" xmlns:xlink="http://www.w3.org/1999/xlink" version="1.1" viewBox="0 -36 256 256">
  <g transform="matrix(1 0 0 -1 0 220)">
   <path fill="currentColor"
d="M204 203h-27q0 -10 1 -19l-16 -6q1 12 1 25h-5q-9 1 -14 -2l-9 9h28q0 15 -1 29l20 -9l-5 -5v-15h27q0 15 -1 29l22 -7l-7 -7v-15h7l9 9l14 -16h-30q0 -8 1 -19l-16 -5q1 14 1 24zM183 184l18 -13l-8 -3q-18 -25 -39 -45l67 3q-9 14 -20 26l2 4q25 -17 33 -28.5t4 -21
t-8 -1t-9 15.5q-65 -8 -75 -15l-8 18q7 0 20 18t23 42zM167 94h44l6 9l15 -11l-6 -8v-61l-14 -6v12h-46v-8l-14 -7v88zM166 87v-51h46v51h-46zM30.5 108q3.5 53 1.5 124l15 -7h69l10 10l16 -17h-96q0 -103 -8 -141.5t-25 -64.5l-3 2q17 41 20.5 94zM73 199h40l5 9l14 -11
l-5 -7v-51l-13 -5v8h-41v-6l-13 -4v74zM73 173h41v19h-41v-19zM73 149h41v17h-41v-17zM85 77v20l13 -4q7 8 16 19h-31q-10 0 -19 -2l-9 9h59l8 9l14 -17l-10 -4q-11 -6 -25 -16l4 -1l-6 -6v-7h20l10 11l16 -18h-46v-34q0 -18 -17 -24q-5 14 -23 18v4q14 -2 20 -2t6 6v32h-15
q-10 0 -19 -2l-9 9h43z" />
  </g>

</svg>
