<?xml version="1.0" standalone="no"?>
<!DOCTYPE svg PUBLIC "-//W3C//DTD SVG 1.1//EN" "http://www.w3.org/Graphics/SVG/1.1/DTD/svg11.dtd" >
<svg xmlns="http://www.w3.org/2000/svg" xmlns:xlink="http://www.w3.org/1999/xlink" version="1.1" viewBox="0 -143 1024 1024">
  <g transform="matrix(1 0 0 -1 0 881)">
   <path fill="currentColor"
d="M408 986l8 12q50 -16 84 -38t38 -45t-7 -35t-29 -9t-24 25t-21 44t-49 46zM121 894h21v-44h750l30 42q62 -60 64 -66t-2 -9t-23 -7t-35 -18t-48 -60l-16 10l32 82h-752q-6 -52 -19 -76t-30 -32t-29 -4t-17 18t4 25t25 24t28.5 39t16.5 76zM539 751v-128h96q80 94 116 150
q64 -40 64 -45t-1 -7t-15 -3t-28 -8t-106 -87h213l30 40l67 -48q4 -1 4 -4q0 -13 -12 -13h-428v-59l4 -78q0 -18 -21.5 -32t-39.5 -14l4 128v56l-347 -1q-21 0 -58 -7l-16 32h421v178l89 -20q15 -9 2 -16zM239 763q72 -24 97 -42t30 -36t-4 -31t-23 -13t-24 19t-25 40
t-58 51zM267 466q-64 -34 -177 -78l-8 12q100 52 162 92t108 82q60 -38 60 -45t-7 -8t-26 -4t-33 -10t-79 -41zM604 562q114 -24 180 -47t89 -45t19 -44t-22 -24t-40 22t-63 51t-167 73zM443 435q9 -11 -1 -15l-30 -4q-17 -18 -39 -54h277q12 27 24 66l73 -15q12 -4 5 -16
l-30 -7q-6 -10 -14 -28h173l32 40l66 -44q4 -4 4 -11q0 -11 -15 -11h-269q-33 -69 -80 -125q92 -16 164.5 -42.5t99.5 -52.5t24 -49t-23 -27t-45 23t-85.5 58t-164.5 59q-105 -82 -247.5 -114t-290.5 -36v16q141 16 271.5 54t213.5 96q-110 19 -280 46l54 94h-206
q-13 0 -42 -8l-16 34h275q35 70 47 102zM641 336h-283q-17 -26 -53 -78q132 -17 260 -33q40 37 76 111z" />
  </g>

</svg>
