<?xml version="1.0" standalone="no"?>
<!DOCTYPE svg PUBLIC "-//W3C//DTD SVG 1.1//EN" "http://www.w3.org/Graphics/SVG/1.1/DTD/svg11.dtd" >
<svg xmlns="http://www.w3.org/2000/svg" xmlns:xlink="http://www.w3.org/1999/xlink" version="1.1" viewBox="0 -36 256 256">
  <g transform="matrix(1 0 0 -1 0 220)">
   <path fill="currentColor"
d="M111 157q0 17 -1 37l11 -7h9v38h-26v-137h26v41h-8v-5l-12 -5q1 21 1 38zM122 137h26v43h-26v-43zM147 88l11 10l13 -17h-66l-8 -8l-12 16l7 5v99q0 18 -1 47l12 -8h41l11 9l12 -16h-25v-38h6l6 10l12 -11l-6 -6q-1 -31 0 -54l-12 -7v10h-6v-41h5zM96 18
q-6 -9 -14.5 -5.5t1.5 13.5t18 38h3q-2 -37 -8 -46zM150 35q5 -10 -2 -18t-9.5 6t-12.5 36l3 2q16 -16 21 -26zM194.5 38q3.5 -9 -3 -16.5t-9.5 8.5t-13 32l2 3q20 -18 23.5 -27zM237 37q6 -10 -1 -20t-11.5 7.5t-18.5 39.5l3 3q22 -20 28 -30zM238 112.5q1 -12.5 7 -15.5
q-4 -13 -17 -14h-44q-12 0 -12 21v99q0 11 -1 36l13 -9h34l7 9l13 -11l-7 -8v-41q0 -15 1 -27l-13 -6v9h-35v-44q0 -16 9 -17h31q4 0 6 7.5t3 32.5h4q0 -9 1 -21.5zM184 162h35v60h-35v-60zM63 232l-5 -7v-65q14 24 18 40l15 -14q-7 -3 -14 -11t-19 -22q0 -25 -3 -61
q18 -11 27.5 -21t7.5 -20.5t-6.5 -10t-9 14t-20.5 32.5q-9 -54 -44 -81l-1 4q23 32 29.5 63.5t6 73.5t-1.5 97zM27.5 137.5q-3.5 -9.5 -9 -11.5t-8.5 2t4.5 13.5t13.5 36.5h3q0 -31 -3.5 -40.5z" />
  </g>

</svg>
