<?xml version="1.0" standalone="no"?>
<!DOCTYPE svg PUBLIC "-//W3C//DTD SVG 1.1//EN" "http://www.w3.org/Graphics/SVG/1.1/DTD/svg11.dtd" >
<svg xmlns="http://www.w3.org/2000/svg" xmlns:xlink="http://www.w3.org/1999/xlink" version="1.1" viewBox="0 -36 256 256">
  <g transform="matrix(1 0 0 -1 0 220)">
   <path fill="currentColor"
d="M77 110l-2 -2q4 -66 -4 -80.5t-24 -19.5q0 11 -18 14v4q19 -1 23.5 0.5t7.5 11.5t4 47q-15 -23 -55 -44l-1 5q35 24 53 57q0 11 -3 19q-16 -20 -48 -38l-2 3q28 23 45 48l-7 13q-17 -16 -35 -24l-1 3q26 23 39 46q-14 0 -23 -2l-10 9h60l10 9l14 -16h-36q-7 -10 -15 -21
q15 -13 23 -37q9 14 15 37l15 -12l-8 -4q-5 -11 -14 -22q17 -20 20 -32t-4 -19.5t-8 9.5t-11 38zM153 100q5 -16 -1.5 -26.5t-18.5 -15.5q0 11 -16 13v4q7 -1 14 -1t9.5 9.5t-2.5 22t-19 23.5l17 46h-21v-145q-1 -8 1 -16l-14 -7q1 23 1 97.5t-1 87.5l13 -10h22l7 10l13 -13
l-7 -5l-23 -44q21 -14 26 -30zM172 163q-5 0 -14 -2l-10 9h28q8 15 12 28l16 -12l-6 -3l-8 -13h30l10 8l13 -15h-57q-6 -8 -14 -16h41l9 8l13 -15h-35v-19h25l9 8l13 -15h-72q-11 0 -20 -2l-10 9h42v19h-20q-10 -11 -26 -20l-3 3q20 19 34 40zM126 210h-38q0 -7 1 -15
l-16 -4q1 9 1 19h-24q-11 0 -22 -2l-9 9h55q0 20 -1 29l23 -8l-8 -3v-18h13l11 9zM130 218h33q0 18 -1 29l21 -8l-6 -6v-15h37l11 8l14 -15h-62q0 -4 1 -13l-16 -6q1 15 1 19h-12q-6 1 -13 -2zM179 104h34l7 8l13 -13l-8 -6v-69q-1 -12 -17 -17q-4 12 -17 13v5q10 -2 16 -2
t6 5v27q-18 -7 -29 -16l-7 9q-3 -25 -34 -40l-3 2q25 19 25 44q2 33 0 55zM179 97q0 -27 -1 -45q10 1 35 7v38h-34zM181 88q20 -4 25.5 -8t1.5 -12t-9.5 0.5t-18.5 16.5z" />
  </g>

</svg>
