<?xml version="1.0" standalone="no"?>
<!DOCTYPE svg PUBLIC "-//W3C//DTD SVG 1.1//EN" "http://www.w3.org/Graphics/SVG/1.1/DTD/svg11.dtd" >
<svg xmlns="http://www.w3.org/2000/svg" xmlns:xlink="http://www.w3.org/1999/xlink" version="1.1" viewBox="0 -246 2048 2048">
  <g transform="matrix(1 0 0 -1 0 1802)">
   <path fill="currentColor"
d="M1092 1520q114 90 194 213h-737l-25 51h758l70 88q129 -109 129 -125q0 -26 -21 -32l-55 -19q-110 -141 -209 -215q291 -116 291 -196q0 -31 -21 -52q-19 -18 -45 -18q-23 0 -65 33q-126 95 -262 166q-226 -136 -615 -207l-32 51q370 85 555 199q-174 75 -406 116l27 50
q302 -45 469 -103zM381 811h1180l112 145q87 -80 152 -157l-25 -39h-1419v-184h973l102 123q30 -28 81 -73q43 -39 69 -62l-25 -39h-1200v-113q0 -80 59 -90q69 -10 606 -10q442 0 654 18l71 4q72 0 72 -80q0 -34 -43 -43q-77 -12 -764 -12q-668 0 -727 37q-55 37 -55 158
l2 573h33q188 0 188 -47q0 -26 -96 -60v-49zM373 1141h1288v731q201 -15 201 -59q0 -29 -84 -60v-714h-117v51h-1288v-59h-115v833q189 -6 189 -51q0 -25 -74 -56v-616z" />
  </g>

</svg>
