<?xml version="1.0" standalone="no"?>
<!DOCTYPE svg PUBLIC "-//W3C//DTD SVG 1.1//EN" "http://www.w3.org/Graphics/SVG/1.1/DTD/svg11.dtd" >
<svg xmlns="http://www.w3.org/2000/svg" xmlns:xlink="http://www.w3.org/1999/xlink" version="1.1" viewBox="0 -200 1000 1000">
  <g transform="matrix(1 0 0 -1 0 800)">
   <path fill="currentColor"
d="M376 677q24 -22 11 -24q-8 -4 -29 -6v-235l1 -12q1 -20 -1 -26q-3 -10 -18 -15q-15 -4 -19 0q-3 3 -4 17v5h-157v-3q1 -10 -2 -16q-4 -10 -20 -17q-15 -3 -18 2q-3 2 -2 15l1 9v279l-4 50l44 -20h66l56 143h-89q-31 -50 -57 -86q-28 -38 -71 -85l-7 5q45 62 89 157
q37 79 58 144l39 -13q38 -10 29 -19q-8 -7 -34 -9q-11 -22 -22 -43t-14 -27h76l32 26l35 -28q28 -23 21 -30q-5 -5 -32 -5h-5l-84 -130h66l29 22zM391 215q-3 -19 -16 -30q-13 -10 -17 15q-5 23 -23 55q-20 37 -48 72l6 7q51 -36 73 -61q27 -31 25 -58zM300 170
q-7 -17 -18 -17q-12 -1 -12 28q-4 27 -13 52q-11 32 -34 72l7 7q49 -46 64 -77q17 -32 6 -65zM217 125q-11 -16 -23 -13q-12 4 -11 25q3 28 -6 70q-10 43 -27 82l7 4q32 -30 53 -80q23 -56 7 -88zM116 289q11 -62 3 -119q-8 -55 -31 -86q-11 -14 -26 1q-16 16 -8 42
q2 9 6 19q3 5 10 17q15 24 22 43q11 33 13 81zM318 659h-45q5 -7 1 -12t-14 -6v-96h58v114zM223 659h-64v-114h64v114zM318 523h-58v-121h58v121zM223 523h-64v-121h64v121zM693 803q43 -12 44 -21q1 -8 -41 -16q3 -17 16 -50q14 -55 32 -90q32 22 65 54q27 27 56 63l39 -24
q31 -19 22 -28q-9 -8 -41 3q-32 -20 -69 -44q-39 -24 -63 -39q36 -75 81 -134q55 -73 120 -116l-4 -6q-33 1 -48 -7q-13 -7 -18 -23q-79 108 -127 213q-42 92 -65 190v-230q0 -55 -18 -77q-19 -23 -69 -24q-5 22 -23 36q-18 13 -41 23l3 10q49 -11 74 -6q28 5 28 42v260
l-1 59l28 -12l90 97h-237l-62 -4l-6 30l59 -3h245l26 28l28 -31q17 -21 12 -27q-4 -6 -28 -4zM541 712h-81l-51 2l7 -27l61 2h72q-15 -114 -73 -206q-36 -57 -133 -159l8 -6q92 73 141 135q75 95 108 221q30 0 33 9q4 10 -17 30l-38 36zM931 123q-8 -31 -20 -37
q-15 -9 -27 25q-10 32 -30 70q-26 45 -64 93l6 10q60 -45 96 -83q43 -48 39 -78zM786 125q-9 -22 -21 -23q-14 -1 -21 26q-4 22 -15 48q-18 43 -53 95l7 6q63 -46 86 -79q24 -34 17 -73zM653 130q-10 -30 -26 -32t-22 25l-1 6q0 23 -5 44q-10 39 -37 99l9 6q45 -41 68 -82
q19 -38 14 -66zM520 272q-4 -59 -31 -114q-26 -54 -59 -76q-15 -11 -24 4q-10 16 0 51q2 8 8 12q3 3 13 9q24 12 38 28q24 29 42 87zM523 354h222l37 38l48 -35q13 -18 7 -23q-4 -5 -19 -5h-279l-67 -4l-12 31z" />
  </g>

</svg>
