<?xml version="1.0" standalone="no"?>
<!DOCTYPE svg PUBLIC "-//W3C//DTD SVG 1.1//EN" "http://www.w3.org/Graphics/SVG/1.1/DTD/svg11.dtd" >
<svg xmlns="http://www.w3.org/2000/svg" xmlns:xlink="http://www.w3.org/1999/xlink" version="1.1" viewBox="0 -140 1000 1000">
  <g transform="matrix(1 0 0 -1 0 860)">
   <path fill="currentColor"
d="M192 833h94l15 32q40 -29 63 -55q-44 -11 -102 -109h102l23 23q46 -35 46 -38t-26 -24v-545q-3 -26 -67 -54q0 -1 -4 -1t-28.5 26t-29.5 29q-1 1 -11.5 4.5t-11.5 3.5q84 0 101 23v217h-195q-6 -245 -102 -318q45 98 47 185v422q-15 -21 -54 -70q-3 -6 -6 -6q-2 0 -2 6
l70 163q36 102 48 157q8 37 15 46q44 -15 70 -31q-37 -25 -55 -86zM752 326h-154q-6 0 -9 -22q-6 -57 -46 -57l-23 1l54 199h-70v23h227l46 51q52 -42 55 -74h-203q-23 -75 -23 -82q1 -4 1 -8h147q9 8 31 24h8l39 -39q-33 -27 -55 -127q-6 -133 -128 -153q-2 0 -4 1
q-19 47 -47 78q19 0 35 -4t28 -4q89 2 91 193zM161 521v-133h62v133h-62zM278 521v-133h78v133h-78zM692 763h-63q-3 -2 -8 -8q-89 -197 -195 -234q130 142 149 246h-102v16h102q9 0 22 59t17 93h7q7 -3 54 -27q9 -4 17 -12l-32 -16q-5 -11 -11 -29t-9 -30t-3 -13
q0 -2 1.5 -11t1.5 -11h153q15 5 47 55l70 -74h-195q31 -124 226 -215q-44 -23 -78 -46q-105 82 -171 257zM161 669v-124h62v124h-62zM278 669v-124h78v124h-78zM731 560h-180v16q91 -13 125 54q45 -37 55 -70zM153 701h78q20 14 50 109h-97q-3 -6 -13.5 -28.5t-18 -39
t-7.5 -18.5v-4q0 -3 3.5 -11t4.5 -8z" />
  </g>

</svg>
