<?xml version="1.0" standalone="no"?>
<!DOCTYPE svg PUBLIC "-//W3C//DTD SVG 1.1//EN" "http://www.w3.org/Graphics/SVG/1.1/DTD/svg11.dtd" >
<svg xmlns="http://www.w3.org/2000/svg" xmlns:xlink="http://www.w3.org/1999/xlink" version="1.1" viewBox="0 -36 256 256">
  <g transform="matrix(1 0 0 -1 0 220)">
   <path fill="currentColor"
d="M32 211v-121h28v121h-28zM20 85v96q0 24 -1 45l13 -8h28l8 9l13 -14l-9 -7v-108q0 -17 1 -34l-13 -8v27h-28v-22l-13 -7q1 15 1 31zM113 183q27 13 35 22l14 -12q-15 -3 -49 -14v-17h23l10 8l12 -15h-45v-18h98v19h-16q-10 0 -19 -2l-9 9h44v16h-20q-10 0 -19 -2l-9 9h47
l6 9l14 -10l-6 -7q0 -42 1 -50l-14 -5v7h-98v-2l-14 -5q1 12 1 32.5t-1 33.5zM103 217h60q-4 14 -15 24l2 2q16 -5 22 -11.5t-4 -14.5h56l8 9l14 -13q-6 -2 -11.5 -6.5t-12.5 -12.5l-3 1l6 15h-122q0 -10 -5.5 -16t-12.5 -3.5t1.5 10t13.5 24.5h3v-8zM113 127l16 -7
q-4 -4 -7 -13h80l10 10l15 -17h-106q-4 -8 -6 -18h105l7 10l14 -11l-7 -8q-3 -44 -9 -53t-19 -13q-1 13 -24 17v5q29 -6 33 3t6 43h-108l-6 -4l-10 12q5 3 8 9.5t8 34.5zM116 65q15 -18 15.5 -28.5t-6.5 -13t-6 8.5t-5 31zM98 64q-1 -34 -8.5 -39.5t-11.5 -1t4.5 13
t12.5 27.5h3zM146 66q17 -13 21.5 -22t-2 -15t-8.5 5.5t-13 29.5zM177 73q17 -14 21.5 -22.5t-2 -15t-9 4.5t-12.5 30z" />
  </g>

</svg>
