<?xml version="1.0" standalone="no"?>
<!DOCTYPE svg PUBLIC "-//W3C//DTD SVG 1.1//EN" "http://www.w3.org/Graphics/SVG/1.1/DTD/svg11.dtd" >
<svg xmlns="http://www.w3.org/2000/svg" xmlns:xlink="http://www.w3.org/1999/xlink" version="1.1" viewBox="0 -36 256 256">
  <g transform="matrix(1 0 0 -1 0 220)">
   <path fill="currentColor"
d="M21 165.5q0 32.5 -1 57.5l14 -8h9q11 20 12 32l20 -11l-10 -4q-6 -7 -15 -17h34l8 9l13 -14l-7 -6q0 -63 1 -88l-14 -6v9h-51v-5l-14 -6q1 25 1 57.5zM34 186h51v22h-51v-22zM34 156h51v23h-51v-23zM34 126h51v23h-51v-23zM49 107l3 3q18 -9 24.5 -16t0.5 -16.5t-10 3
t-18 26.5zM10 49q9 13 13 38h5q3 -48 -12 -49.5t-6 11.5zM50 85v-44q0 -11 7 -10h18q10 -2 9 36h5q0 -33 13 -34q-8 -13 -19 -14h-27q-20 0 -20 13v33q0 16 -1 37l21 -10zM85 87l3 3q32 -23 25 -36.5t-10 -2.5t-18 36zM151 234l13 -13l-10 -2q-13 -10 -27 -18v-12
q0 -10 8 -10h14q5 2 5.5 8.5t0.5 17.5h5q0 -7 2 -13t9 -13q-5 -7 -9.5 -8.5t-11.5 -1.5h-21q-14 1 -14 18q0 42 -1 58l20 -10l-7 -7v-22q18 18 24 28zM214 224h-20q-10 0 -19 -2l-9 9h47l9 10l15 -15q-6 -2 -12 -8.5t-22 -31.5q12 -11 6 -21.5t-11.5 4t-22.5 29.5l2 3
q15 -6 22 -12zM133 150l-6 -12h22l9 9l13 -16h-28v-33h7l9 9l10 -13v31l20 -8l-7 -8l-2 -38q8 -10 16 -19v99h-5q-10 0 -19 -3l-9 10h63l7 9l14 -14q-11 -7 -14 -10.5t-12 -13.5l-4 2l9 20h-17v-43h10l10 11l15 -18h-35v-57q15 -14 38 -17v-4q-11 -3 -14 -13
q-16 9 -29.5 20.5t-24.5 32.5q-6 -34 -38 -55l-2 3q17 19 23 37t6 43h-25q-1 -6 -2 -14q17 -11 18.5 -19.5t-3 -14.5t-7 6t-9.5 23q-4 -17 -12.5 -31.5t-31.5 -30.5l-2 4q34 32 36 77q-10 0 -19 -2l-9 9h29v33h-6q-8 -12 -19 -26l-5 2q10 18 14.5 33t4.5 22l21 -8z" />
  </g>

</svg>
