<?xml version="1.0" standalone="no"?>
<!DOCTYPE svg PUBLIC "-//W3C//DTD SVG 1.1//EN" "http://www.w3.org/Graphics/SVG/1.1/DTD/svg11.dtd" >
<svg xmlns="http://www.w3.org/2000/svg" xmlns:xlink="http://www.w3.org/1999/xlink" version="1.1" viewBox="0 -36 256 256">
  <g transform="matrix(1 0 0 -1 0 220)">
   <path fill="currentColor"
d="M61 19l-16 -8q2 24 2 121q-11 -31 -37 -62l-2 3q14 22 23 50.5t14 58.5h-1q-13 1 -25 -2l-10 9h38q0 44 -2 57l23 -9l-8 -7v-41h9l11 11l15 -18h-35v-29q21 -8 27 -15.5t1 -16.5t-11 3.5t-17 22.5q0 -109 1 -128zM182 245l20 -10l-8 -7q-1 -23 -2 -43h24l6 11l16 -12
l-8 -7q-4 -81 -8 -102t-24 -24q1 12 -19 19v5q12 -3 18.5 -4t10 3.5t10.5 103.5h-26q-3 -88 -47 -132v-7q2 -14 14 -14h59q9 1 9.5 16.5t0.5 28.5h5q0 -15 2 -27t12 -13q-9 -17 -27 -17h-62q-28 0 -26 33l3 125l-18 -1q-1 -53 -13 -94.5t-40 -67.5l-3 1q24 33 33 71.5
t10 88.5l-14 -1l-5 -4l-9 9l28 2q1 54 -1 70l23 -11l-8 -8q-1 -22 -1 -50l17 1l6 10l16 -13l-8 -7l-3 -115q32 50 35 126q-8 0 -17 -2l-9 9h26q2 40 2 60z" />
  </g>

</svg>
