<?xml version="1.0" standalone="no"?>
<!DOCTYPE svg PUBLIC "-//W3C//DTD SVG 1.1//EN" "http://www.w3.org/Graphics/SVG/1.1/DTD/svg11.dtd" >
<svg xmlns="http://www.w3.org/2000/svg" xmlns:xlink="http://www.w3.org/1999/xlink" version="1.1" viewBox="0 -205 1024 1024">
  <g transform="matrix(1 0 0 -1 0 819)">
   <path fill="currentColor"
d="M776 840v-232h52l30 48l64 -50q3 -4 4 -10q0 -12 -12 -12h-138v-280h98l38 44l66 -46q3 -4 4 -10q0 -12 -12 -12h-338q-22 0 -70 -8l-14 32h178v280h-50q-20 0 -58 -8l-20 32h128v218q-91 -19 -160 -34l-4 18q234 71 328 128l44 -54q9 -12 -2 -18q-21 2 -30 4
q-6 3 -126 -30v0v0zM500 916l48 -40q9 -6 10 -12q10 -8 -34 -22l-102 -264h66l28 34l50 -42q6 -2 6 -10q0 -9 -30 -20q-33 -210 -84 -306q47 -48 134 -84q85 -34 242 -31l156 14v-16q-31 -6 -52 -18q-24 -14 -32 -34q-165 1 -218 10q-52 9 -124 42q-69 30 -122 81
q-78 -94 -198 -157l-10 12q111 76 178 181q-70 89 -100 256l14 2q42 -150 102 -224q39 80 66 284h-74l-32 -26l-46 46l44 30l90 256h-94q-16 0 -40 -8l-18 32h144l32 34v0v0zM176 440q-18 -49 -36 -52q-15 -3 -90 -2l-2 -20q53 -6 74 -14q21 -7 28 -22q8 -13 8 -44
q1 -31 -6 -86q-9 -52 -6 -79q0 -28 16 -38q16 -9 32 0t20 36q3 23 -6 83q-10 57 -10 100q-1 42 4 64q4 21 14 54l126 386l-22 6l-144 -372v0v0zM122 958l6 14q48 -19 78 -32q28 -13 44 -28q15 -15 18 -36q3 -19 -8 -34q-9 -13 -24 -14q-16 0 -22 16q-6 14 -14 34
q-6 21 -18 30q-9 11 -60 50v0v0zM32 714l6 14q38 -13 74 -28q35 -15 50 -32q15 -18 18 -38q1 -18 -10 -32q-9 -12 -24 -12t-20 16q-6 12 -12 30q-7 18 -26 36q-18 18 -56 46v0v0z" />
  </g>

</svg>
