<?xml version="1.0" standalone="no"?>
<!DOCTYPE svg PUBLIC "-//W3C//DTD SVG 1.1//EN" "http://www.w3.org/Graphics/SVG/1.1/DTD/svg11.dtd" >
<svg xmlns="http://www.w3.org/2000/svg" xmlns:xlink="http://www.w3.org/1999/xlink" version="1.1" viewBox="0 -205 1024 1024">
  <g transform="matrix(1 0 0 -1 0 819)">
   <path fill="currentColor"
d="M166 658h62v118h-62v-118v0v0zM272 658h72v242h-178v-100h54l26 30l42 -32q9 -6 10 -12q0 -3 -26 -20v-108v0v0zM120 568l50 -28h156l30 34l44 -36q8 -6 8 -14q0 -3 -24 -18v-385q3 -33 -12 -54q-15 -18 -54 -34q-11 33 -28 44q-18 10 -66 28l4 18q39 -12 64 -16
q24 -3 36 0q12 4 10 40v123h-172v-100l4 -85q0 -15 -18 -28q-18 -12 -36 -16l4 127v400v0v0zM166 296h172v98h-172v-98v0v0zM166 420h172v96h-172v-96v0v0zM544 440h146v192h-146v-192v0v0zM736 440h142v192h-142v-192v0v0zM774 748l30 28l50 -32q3 -3 4 -8q0 -12 -12 -12
h-210q-22 -1 -56 -10l-16 34h210v0v0zM120 964l58 -38h158l30 34l44 -36q9 -6 10 -14l-30 -24v-228h20l20 24q46 -39 50 -44q3 -7 0 -10q-4 -1 -22 -8t-60 -52l-14 10l26 56h-314q2 -51 -16 -74q-18 -21 -36 -24q-18 0 -26 12q-7 12 8 30t28 36q12 18 24 88h16l2 -44h24v306
v0v0zM552 592l8 12q60 -34 78 -56q19 -21 18 -42q-3 -18 -12 -24q-10 -7 -22 -4q-10 2 -16 20q-3 17 -12 38q-6 20 -42 56v0v0zM752 478q45 83 64 128q54 -26 54 -34q0 -6 -2 -8q-3 -3 -14 -6q-12 -3 -32 -24q-19 -20 -58 -64l-12 8v0v0zM752 960q4 -9 2 -12q-3 -3 -18 -6
q49 -63 92 -102q42 -39 82 -60q36 -22 102 -28v-20q-20 1 -40 -4q-19 -6 -34 -30q-40 23 -74 52q-32 26 -70 74q-39 47 -78 110q-72 -93 -140 -156q-69 -64 -126 -98l-8 12q41 36 106 108q65 71 140 188l64 -28v0v0zM538 372l50 -30h238l32 30l48 -40q6 -4 6 -8
q-1 -5 -28 -28v-193l4 -42q0 -8 -14 -20q-15 -12 -36 -16v62h-252v-34q0 -12 -18 -24q-19 -11 -34 -14l4 118v239v0v0zM586 113h252v85h-252v-85v0v0zM586 224h252v92h-252v-92v0v0zM864 658l22 32l60 -36l4 -8q0 -7 -26 -28v-150l4 -64q3 -10 -14 -22q-15 -12 -36 -14v46
h-334v-22q0 -9 -18 -18q-16 -10 -34 -10l4 118v204l50 -28h318v0v0z" />
  </g>

</svg>
