<?xml version="1.0" standalone="no"?>
<!DOCTYPE svg PUBLIC "-//W3C//DTD SVG 1.1//EN" "http://www.w3.org/Graphics/SVG/1.1/DTD/svg11.dtd" >
<svg xmlns="http://www.w3.org/2000/svg" xmlns:xlink="http://www.w3.org/1999/xlink" version="1.1" viewBox="0 -205 1024 1024">
  <g transform="matrix(1 0 0 -1 0 819)">
   <path fill="currentColor"
d="M928 678q-33 8 -56 8q-21 -1 -234 -40q-211 -39 -566 -74l-2 18q312 51 496 90q182 36 302 88l64 -68q14 -17 -4 -22v0v0zM180 522q61 -39 116 -96q53 -55 68 -100q14 -44 -4 -64q-19 -21 -38 -12t-28 48q-7 39 -32 90q-23 50 -94 122l12 12v0v0zM922 558q12 -10 -2 -16
q-24 -6 -32 -18q-7 -9 -52 -84t-162 -228l-20 6q116 193 188 374l80 -34v0v0z" />
  </g>

</svg>
