<?xml version="1.0" standalone="no"?>
<!DOCTYPE svg PUBLIC "-//W3C//DTD SVG 1.1//EN" "http://www.w3.org/Graphics/SVG/1.1/DTD/svg11.dtd" >
<svg xmlns="http://www.w3.org/2000/svg" xmlns:xlink="http://www.w3.org/1999/xlink" version="1.1" viewBox="0 -205 1024 1024">
  <g transform="matrix(1 0 0 -1 0 819)">
   <path fill="currentColor"
d="M486 666q92 -27 94 -36q3 -6 -2 -8q-3 -3 -38 -18v-200h136l42 54l76 -66q2 0 2 -6q0 -9 -8 -8h-248v-295h284l44 61l76 -69q3 -3 4 -6q5 -12 -10 -12h-810q-21 1 -68 -8l-16 34h206v417l84 -34q7 -3 8 -12l-6 -6l-32 -18v-347h182v583v0v0zM572 922q13 -9 8 -14
q-3 -6 -14 -8q-10 -1 -26 -14q66 -117 124 -182q56 -64 140 -122q83 -57 188 -68v-18q-43 -3 -64 -6t-48 -30q-83 49 -142 104q-60 53 -110 124q-51 71 -110 188q-55 -76 -116 -146t-142 -152q-79 -81 -220 -176l-8 16q141 117 214 198q70 79 128 152q57 75 114 186l84 -32
v0v0z" />
  </g>

</svg>
