<?xml version="1.0" standalone="no"?>
<!DOCTYPE svg PUBLIC "-//W3C//DTD SVG 1.1//EN" "http://www.w3.org/Graphics/SVG/1.1/DTD/svg11.dtd" >
<svg xmlns="http://www.w3.org/2000/svg" xmlns:xlink="http://www.w3.org/1999/xlink" version="1.1" viewBox="0 -36 256 256">
  <g transform="matrix(1 0 0 -1 0 220)">
   <path fill="currentColor"
d="M16 209l-1 4q18 4 39 12.5t31 18.5l12 -19q-7 0 -30 -7v-45h13l11 11l14 -18h-38v-24q21 -8 25 -16t0 -17.5t-9 4t-16 24.5q0 -95 1 -120l-15 -8q1 50 1 124q-18 -38 -45 -68l-2 4q32 51 45 97h-15q-9 -1 -18 -3l-9 10h44v42q-10 -2 -38 -6zM175 133h-12v49h-37
q-10 0 -19 -2l-9 9h65v32l12 1v-33h46l12 9l14 -16h-72v-49zM119 216q18 -4 24.5 -9.5t1 -13.5t-9.5 0.5t-17 19.5zM225 212q-7 -2 -14 -7t-24 -16l-2 2q18 19 25 33zM163 47v59h-41q-10 0 -19 -3l-10 10h32v29q-8 0 -17 -4l-9 11h26q0 20 -1 26l20 -7l-7 -6v-13h5l9 9
l12 -15l12 6h26q0 20 -1 28l20 -10l-7 -5v-13h4l9 8l14 -15h-27q0 -12 1 -24l-11 -5h24l10 8l14 -15h-76v-55q0 -10 1 -37l-14 -5q1 27 1 38zM201 142q-11 0 -19 -3l-7 9v-35h26v29zM163 142h-26q0 -13 1 -24l-12 -5h37v29zM114 63q7 -4 10.5 -8t-1 -11t-6 1t-6.5 16
q-12 -14 -24 -21l-2 2q26 29 35 60l17 -11l-7 -1l-7 -10h20l8 7l10 -14l-6 -4q-18 -43 -67 -61l-1 3q38 20 56 62h-23zM102 221q74 5 121 23l11 -19l-8 3q-83 -12 -122 -11zM233 80q-7 -19 -17 -35q9 -9 17 -14.5t11 -6.5v-3q-10 0 -13 -8q-11 8 -21 23q-14 -19 -35 -27
l-1 2q18 14 29 34q-10 16 -17 32l3 2q11 -17 19 -24q8 13 12 29h-25l-8 -3l-8 10h42l9 7l10 -14z" />
  </g>

</svg>
