<?xml version="1.0" standalone="no"?>
<!DOCTYPE svg PUBLIC "-//W3C//DTD SVG 1.1//EN" "http://www.w3.org/Graphics/SVG/1.1/DTD/svg11.dtd" >
<svg xmlns="http://www.w3.org/2000/svg" xmlns:xlink="http://www.w3.org/1999/xlink" version="1.1" viewBox="0 -36 256 256">
  <g transform="matrix(1 0 0 -1 0 220)">
   <path fill="currentColor"
d="M87 214l10 11l17 -18h-46q-8 -34 -15 -59h29l9 9l15 -13l-9 -7q0 -76 1 -93l-15 -7v15h-30v-24l-15 -7q1 36 1 95q-11 -22 -32 -46l-3 2q36 59 49 135h-9q-10 0 -20 -2l-9 9h72zM53 59h30v82h-30v-82zM150.5 31q8.5 -1 8.5 6v92h-14q-10 0 -19 -2l-9 9h42v31h-27
q-10 0 -19 -2l-9 9h55v28h-17q-10 -1 -19 -3l-9 10h45q0 13 -1 38l25 -13l-10 -7v-18h33l9 10l14 -14l-9 -7v-24h3l11 10l14 -17h-28q0 -28 1 -40l-14 -8v10h-33v-2q2 -14 17 -42q20 19 30 34l15 -17q-6 -1 -13 -3.5t-29 -18.5q22 -35 53 -43v-4q-14 0 -20 -11
q-40 30 -54 90v-75q1 -21 -21 -29q1 14 -26 21v4q16 -1 24.5 -2zM173 174h34v28h-34v-28zM173 136h34v31h-34v-31zM110 117q26 -12 28.5 -20t-3 -17.5t-9.5 4t-18 30.5zM162 87v-6q-52 -49 -53 -61l-17 17q17 7 70 50z" />
  </g>

</svg>
