<?xml version="1.0" standalone="no"?>
<!DOCTYPE svg PUBLIC "-//W3C//DTD SVG 1.1//EN" "http://www.w3.org/Graphics/SVG/1.1/DTD/svg11.dtd" >
<svg xmlns="http://www.w3.org/2000/svg" xmlns:xlink="http://www.w3.org/1999/xlink" version="1.1" viewBox="0 -205 1024 1024">
  <g transform="matrix(1 0 0 -1 0 819)">
   <path fill="currentColor"
d="M894 798l40 50l58 -56q3 -4 4 -10q0 -10 -14 -10h-464q-21 1 -56 -10l-18 36h450v0v0zM502 700l58 -42h288l30 38l56 -46q6 -4 6 -8q0 -6 -30 -32v-114l4 -64q0 -15 -14 -30q-15 -12 -42 -14v46h-128v-315q1 -42 -12 -64q-13 -21 -64 -36q-11 36 -34 48q-24 11 -86 28
l4 18q60 -12 88 -16q27 -4 40 4q15 7 12 34v299h-126v-18q2 -12 -16 -24q-16 -12 -38 -14l4 118v204v0v0zM552 460h306v172h-306v-172v0v0zM600 974l10 12q81 -42 106 -66q24 -23 28 -46q3 -21 -8 -36q-9 -16 -30 -14q-18 2 -24 22q-3 20 -18 50q-14 27 -64 78v0v0zM622 318
q4 -4 2 -8q-1 -3 -10 -6q-19 -4 -32 -16q-12 -10 -60 -68q-48 -57 -152 -155l-12 12q108 116 192 279l72 -38v0v0zM810 336q80 -48 122 -84q42 -34 54 -58q12 -25 12 -40q0 -13 -2 -25q-4 -13 -16 -20q-12 -6 -24 0q-9 7 -18 28q-6 19 -24 59q-17 38 -112 128l8 12v0v0z
M144 684h164l36 42l56 -52q7 -12 -4 -18h-128v-146h70l30 44l58 -52q12 -12 -2 -20h-156v-286l178 38l8 -18q-133 -37 -196 -56q-64 -18 -110 -35q-44 -17 -64 -38l-44 67l182 34v294h-94q-18 0 -54 -8l-18 36h166v146h-36l-20 -6l-22 34v0v0zM70 424l10 10q54 -42 78 -66
q21 -23 28 -52q6 -27 -8 -42q-13 -13 -28 -8q-14 4 -16 26q0 20 -14 52q-15 29 -50 80v0v0zM278 258q66 105 96 192l64 -38q4 -9 -4 -12q-6 -4 -18 -4q-10 0 -38 -42q-28 -40 -86 -106l-14 10v0v0zM20 584q56 84 110 174q53 90 110 220l70 -30q3 -6 -2 -12q-4 -3 -14 -6
t-26 -26q67 -31 104 -56q35 -24 46 -44q11 -22 2 -40q-10 -19 -26 -16q-15 2 -30 26q-12 24 -36 52q-21 28 -72 62q-39 -73 -102 -166q-64 -94 -122 -148l-12 10v0v0z" />
  </g>

</svg>
