<?xml version="1.0" standalone="no"?>
<!DOCTYPE svg PUBLIC "-//W3C//DTD SVG 1.1//EN" "http://www.w3.org/Graphics/SVG/1.1/DTD/svg11.dtd" >
<svg xmlns="http://www.w3.org/2000/svg" xmlns:xlink="http://www.w3.org/1999/xlink" version="1.1" viewBox="0 -36 256 256">
  <g transform="matrix(1 0 0 -1 0 220)">
   <path fill="currentColor"
d="M45 64v98q-17 -27 -33 -45l-2 3q9 15 17 28t21 46.5t16 50.5l20 -13q-5 -2 -11.5 -15.5t-18.5 -39.5l11 -8l-7 -6v-147l-14 -7q1 27 1 55zM130 207q8 -6 16.5 -13t5.5 -18t-9.5 0.5t-20.5 22.5q-28 -23 -44 -31l-1 3q25 20 36 34q-12 10 -32 19l1 4q22 -8 37 -14
q11 12 18 28l16 -17q-9 -1 -23 -18zM101 37l-14 -6q1 30 1 70q-6 -10 -27 -29l-2 3q24 29 41 75h-5q-11 0 -20 -2l-9 9h36q4 15 4 27l20 -10l-7 -6l-4 -11h25l9 9l12 -16h-48q-7 -19 -16 -33l4 -2h16v28l19 -9l-6 -4v-15h17l8 9l13 -13l-8 -5v-53q-1 -10 -4 -14t-10 -8
q-2 13 -16 18v-35l-14 -6q1 30 1 100h-16v-71zM130 53q12 -1 15 -1t3 6v50h-18v-55zM203 231q-3 -3 -6.5 -11t-13.5 -41h38l10 10l15 -17q-8 -1 -13.5 -6t-16.5 -20l-3 1q6 16 10 25h-41q-12 -30 -21 -47l-5 1q15 45 20.5 72t5.5 42zM211 151l-8 -6q4 -34 10 -56t15.5 -39
t19.5 -24v-4q-12 2 -20 -6q-14 28 -20 54.5t-9 67.5q-2 -58 -16.5 -87t-34.5 -42l-3 2q25 27 34 64.5t8 85.5z" />
  </g>

</svg>
