<?xml version="1.0" standalone="no"?>
<!DOCTYPE svg PUBLIC "-//W3C//DTD SVG 1.1//EN" "http://www.w3.org/Graphics/SVG/1.1/DTD/svg11.dtd" >
<svg xmlns="http://www.w3.org/2000/svg" xmlns:xlink="http://www.w3.org/1999/xlink" version="1.1" viewBox="0 -205 1024 1024">
  <g transform="matrix(1 0 0 -1 0 819)">
   <path fill="currentColor"
d="M459 817q8 7 18 -5q50 -48 74 -88q17 -29 14 -42q-6 -23 -22 -33q-18 -10 -24 -9t-9 23q-7 39 -17 72q-15 39 -34 66q-7 9 0 16zM591 503q6 84 6 184v125q-1 80 -5 128q-1 18 9 14q56 -18 77 -30q11 -8 1 -12q-31 -17 -32 -21q-3 -12 -2 -79v-125q0 -141 -10 -238
q-11 -112 -41 -187q-30 -71 -70 -120q-42 -48 -114 -94q-14 -10 -20 0q-5 11 7 20q67 55 106 110q35 49 57 122q21 68 28 168q-26 -28 -56 -56q-29 -29 -33 -36q-8 -12 -15 -5q-23 20 -44 24q-15 5 1 15q12 5 52 30q67 42 98 63zM745 864q-1 39 -4 70q-1 16 9 13
q54 -17 76 -29q9 -5 0 -11q-22 -16 -26 -20q-7 -7 -7 -23v-216q39 41 66 84q25 43 41 98q3 9 12 5q36 -17 61 -32q10 -7 9 -13q-3 -4 -7 -4q-21 -3 -31 -10q-3 -4 -12 -17q-35 -52 -62 -80q-27 -30 -70 -58q-4 -3 -7 -4v-77q2 0 3 -1q87 -42 136 -85q34 -30 37 -49
q3 -24 -10 -39q-13 -16 -19 -17q-6 0 -16 19q-30 49 -61 86q-34 40 -70 62v-361q1 -21 8 -28q8 -9 21 -9h50q17 1 26 5q10 5 17 27q17 40 33 130q2 12 12 11q10 -2 9 -12q-9 -78 -2 -114q6 -21 16 -27q5 -4 2 -8q-10 -30 -28 -43q-22 -17 -56 -17h-104q-20 0 -36 16
q-16 15 -16 58v720zM287 378q15 6 16 -3q4 -10 -12 -17q-81 -43 -135 -67q-40 -15 -53 -34q-5 -9 -9 -10t-8 8q-13 24 -35 42q-13 9 -12 13t11 5q78 14 237 63zM332 941q7 1 11 5l14 21q6 9 15 2q25 -19 47 -41q8 -7 4 -13q-3 -5 -13 -6q-15 -3 -19 -7q-6 -4 -7 -11
l-66 -354h23q11 1 15 5l23 32q6 10 15 0q37 -33 59 -58q5 -7 -4 -10q-33 -9 -34 -27q-29 -237 -45 -315q-22 -78 -106 -111q-8 -4 -8 2q-3 24 -16 34q-15 13 -76 26q-13 2 -12 12t13 7q119 -14 134 4q29 24 47 175q15 124 25 193h-257q-7 -11 -11 -15q-5 -8 -9 -2
q-15 19 -43 32q-8 6 -1 10q23 18 27 24q49 197 46 275q0 11 7 8q32 -13 69 -32q10 -5 10 -12q0 -5 -12 -9q-24 -8 -34 -65q-19 -90 -29 -136q-7 -26 -11 -47h144l71 373h-182q-42 -1 -73 -7q-9 -3 -10 6q-5 18 -20 31q-8 7 -4 11q4 3 11 -1q38 -9 84 -9h188z" />
  </g>

</svg>
