<?xml version="1.0" standalone="no"?>
<!DOCTYPE svg PUBLIC "-//W3C//DTD SVG 1.1//EN" "http://www.w3.org/Graphics/SVG/1.1/DTD/svg11.dtd" >
<svg xmlns="http://www.w3.org/2000/svg" xmlns:xlink="http://www.w3.org/1999/xlink" version="1.1" viewBox="0 -205 1024 1024">
  <g transform="matrix(1 0 0 -1 0 819)">
   <path fill="currentColor"
d="M130 902q-27 0 -61 -7q-5 -1 -6 2q-13 20 -23 36q-6 10 7 7q61 -6 68 -7h285q12 0 16 4q5 5 14 15l26 37q7 9 16 0q31 -28 61 -59q10 -10 9 -19q-2 -8 -15 -9h-127v-565q51 14 99 24q15 3 16 -6q2 -12 -14 -16q-55 -17 -101 -33v-21q0 -125 4 -210q0 -9 -7 -10l-44 -18
q-9 -2 -8 14q6 133 7 224v6q-113 -33 -195 -55q-21 -6 -57 -33q-5 -3 -9 -4q-4 0 -8 9q-9 25 -30 46q-12 11 -11 14q2 3 12 4q41 4 86 10v620h-10zM188 290q25 7 50 11q59 13 114 25v164h-164v-200zM188 521h164v181h-164v-181zM188 733h164v169h-164v-169zM684 782h-111
q-11 -23 -23 -47q-32 -61 -84 -133q-9 -11 -16 -5q-7 7 0 17q57 88 99 214q41 123 40 163q0 18 18 9q39 -20 55 -30q12 -7 12 -13q0 -4 -13 -7q-10 -3 -16 -7q-8 -9 -26 -57q-15 -36 -31 -73h224l14 2l12 12l30 42q7 9 16 0q33 -28 61 -59q10 -10 9 -19q-2 -8 -15 -9h-207
v-269h112q12 0 16 4q5 5 14 15l26 37q7 9 16 0q31 -28 61 -59q10 -10 9 -19q-2 -8 -15 -9h-239v-197q0 -125 4 -210q0 -9 -7 -10l-44 -18q-9 -2 -8 14q6 133 7 224v197h-146q-27 0 -61 -7q-5 -1 -6 2q-13 20 -23 36q-6 10 7 7q61 -6 68 -7h161v269z" />
  </g>

</svg>
