<?xml version="1.0" standalone="no"?>
<!DOCTYPE svg PUBLIC "-//W3C//DTD SVG 1.1//EN" "http://www.w3.org/Graphics/SVG/1.1/DTD/svg11.dtd" >
<svg xmlns="http://www.w3.org/2000/svg" xmlns:xlink="http://www.w3.org/1999/xlink" version="1.1" viewBox="0 -143 1024 1024">
  <g transform="matrix(1 0 0 -1 0 881)">
   <path fill="currentColor"
d="M105 625l49 -28h249l21 30l48 -35q11 -6 11 -13q0 -4 -24 -22v-134l4 -74q-1 -14 -16.5 -23t-36.5 -11v30h-106v-100h144l29 40l52 -49q3 -3 5 -9t-10 -6h-220v-96l4 -71q2 -14 -18 -27t-37 -12l4 106v100h-173q-20 0 -41 -8l-21 32h235v100h-103v-8q0 -14 -11.5 -23
t-42.5 -13l5 98v226zM154 369h256v88h-256v-88zM154 481h256v92h-256v-92zM423 877l28 37l53 -45q5 -4 5 -6q0 -10 -17 -10h-340q-48 0 -73 -10l-23 34h367zM426 810q6 -3 2 -9q-2 -4 -13 -7q-22 -8 -39.5 -29t-47.5 -62h124l29 40l51 -47q4 -2 4 -5q4 -12 -7 -12h-419
q-32 2 -61 -9l-23 33h275q25 43 63 136zM143 831l8 10q58 -28 78 -47t23 -37t-6 -31t-25 -10t-19 24t-16 42t-43 49zM211 989l8 12q50 -18 72 -31t29 -31t-3 -34t-27 -14t-21 23t-18 37t-40 38zM517 289h263l36 48l53 -54q4 -4 4 -8q0 -12 -12 -12h-284q-21 0 -45 -8z
M784 956q1 -4 1 -6q0 -5 -18.5 -8.5t-74.5 -88.5h169l26 34l45 -34q10 -5 10 -14q0 -4 -13 -14l-11 -7q0 -143 -3 -197.5t-28.5 -80.5t-67.5 -41q-8 20 -26 36t-82 31l4 17q76 -12 96 -12t39.5 13.5t20 52t0.5 189.5h-240v-381h269l32 42l54 -40q8 -6 6 -12q0 -7 -28 -26
q-3 -166 -6 -222t-22 -94t-83 -68q-8 26 -29 41t-97 31l4 18q98 -16 124 -10t38.5 24.5t15.5 65.5t8 224h-276l-24 -35l-70 43l35 28v436l46 -38h41q30 88 40 136zM672 773q69 -29 93 -50.5t26 -42.5t-9 -32t-25 -8t-18 23t-19 44t-55 54z" />
  </g>

</svg>
