<?xml version="1.0" standalone="no"?>
<!DOCTYPE svg PUBLIC "-//W3C//DTD SVG 1.1//EN" "http://www.w3.org/Graphics/SVG/1.1/DTD/svg11.dtd" >
<svg xmlns="http://www.w3.org/2000/svg" xmlns:xlink="http://www.w3.org/1999/xlink" version="1.1" viewBox="0 -205 1024 1024">
  <g transform="matrix(1 0 0 -1 0 819)">
   <path fill="currentColor"
d="M322 206q0 -9 -4 -12q-35 -19 -42 -19t-6 10v53h-104q1 -67 4 -119q0 -9 -7 -10l-44 -18q-9 -2 -8 14q6 133 7 224v200q-30 -64 -64 -131q-6 -11 -15 -7q-7 5 0 18q39 92 73 201q43 138 59 256h-39q-27 0 -61 -7q-5 -1 -6 2q-13 20 -23 36q-6 10 7 7q61 -6 68 -7h129
q12 0 16 3q6 4 13 13l24 35q8 9 15 0q29 -26 57 -54q11 -12 10 -19q-2 -8 -15 -9h-143q-23 -116 -57 -219q-5 -10 -9 -22h95q8 -1 11 2l18 22q8 12 17 3q21 -18 40 -39q6 -8 6 -9t-4 -4q-20 -11 -21 -15t-1 -7v-340q0 -11 4 -32zM270 594h-104v-325h104v325zM718 290v-141
h156v141h-156zM718 462v-141h156v141h-156zM774 645h13q49 77 77 140v1h-90v-141zM928 75q1 -11 -5 -12q-43 -15 -47 -14q-2 1 -2 11v58h-156v-43q0 -8 -6 -9q-20 -8 -39 -17q-9 -3 -8 12q4 63 5 210v164q-1 3 -1 6q-38 -38 -71 -70q-10 -8 -17 -4q-5 6 1 16q39 43 85 97
q-1 18 -2 37q-2 12 2 13q3 1 10 -6l14 -14q28 35 53 71q12 17 22 33h-94q-27 0 -61 -7q-5 -1 -6 2q-13 19 -23 35q-6 10 7 7q61 -5 68 -6h69v141h-26q-27 0 -61 -7q-5 -1 -6 2q-13 19 -23 35q-6 10 7 7q61 -5 68 -6h41v83q-1 39 -4 70q-1 16 9 13q54 -17 76 -29q9 -5 0 -11
q-22 -16 -26 -20q-7 -7 -7 -23v-83h4q6 0 12 7l36 41q7 7 14 0q23 -23 39 -42q13 40 19 74q0 10 4 11q6 2 13 -1q39 -18 63 -28q7 -3 6 -7t-10 -8q-26 -14 -30 -21q-5 -7 -8 -14q-46 -103 -98 -184h36q6 0 12 7l36 41q7 7 14 0q26 -26 44 -48q11 -14 4 -24q-5 -6 -18 -7
h-149q-4 -6 -7 -10q-41 -53 -92 -111h136q6 0 9 4l18 28q7 8 14 1q29 -19 57 -41q9 -8 8 -12q-2 -5 -9 -9q-26 -12 -27 -19q-2 -6 -2 -13v-260q0 -36 6 -97zM401 929q6 9 19 0q122 -79 125 -122q0 -25 -15 -38q-15 -14 -21 -14q-7 2 -14 21q-37 93 -91 138q-7 8 -3 15z
M440 633q3 2 7 5l23 26q6 8 13 2q33 -24 61 -49q9 -8 -1 -11q-17 -3 -24 -13t-7 -29v-311q54 51 108 87q13 10 17 1q4 -10 -6 -17q-85 -76 -145 -175q-7 -11 -13 1q-14 22 -36 38q-10 7 -3 13q30 26 30 48v353h-37q-22 -1 -53 -7q-9 -3 -10 6q-5 18 -20 31q-8 7 -4 11
q4 3 11 -1q38 -9 64 -9h25z" />
  </g>

</svg>
