<?xml version="1.0" standalone="no"?>
<!DOCTYPE svg PUBLIC "-//W3C//DTD SVG 1.1//EN" "http://www.w3.org/Graphics/SVG/1.1/DTD/svg11.dtd" >
<svg xmlns="http://www.w3.org/2000/svg" xmlns:xlink="http://www.w3.org/1999/xlink" version="1.1" viewBox="0 -205 1024 1024">
  <g transform="matrix(1 0 0 -1 0 819)">
   <path fill="currentColor"
d="M428 680h158q33 78 60 160q66 -30 64 -36q-3 -7 -6 -8l-12 -4q-8 0 -28 -24q-18 -23 -56 -88h46l30 32l46 -42q3 -7 4 -10q-3 -6 -8 -6h-128v-272h34v198l56 -18q6 -3 6 -6t-18 -20v-116l4 -66q1 -15 -12 -24q-11 -9 -22 -12q-9 -1 -14 -2v42h-36q-9 -77 -38 -136
q-27 -60 -78 -101q-48 -42 -116 -84l-10 12q63 50 100 90q35 37 62 91q27 53 36 128h-34l-24 -28l-52 30l24 22v208l54 -20q8 -3 8 -8t-18 -16v-164h44v272h-54q-34 1 -52 -10l-20 36v0v0zM880 908l36 48l66 -56q3 -6 4 -6q0 -10 -8 -10h-558v-240q1 -245 -30 -370
q-30 -125 -126 -227l-12 10q65 87 94 209q29 119 26 392v294l54 -44h454v0v0zM860 822q6 -3 6 -6q6 -4 -2 -10q-25 -7 -38 -34q-10 -27 -40 -98h124l28 36l50 -44q12 -9 12 -14q0 -3 -6 -8q-21 -3 -32 -12q-10 -7 -34 -38t-48 -70l-16 8l50 116h-138q-30 -64 -56 -104l-14 8
q38 89 98 296l56 -26v0v0zM826 444q14 -112 44 -190q29 -78 64 -115q33 -37 78 -50v-16q-32 1 -46 -4q-14 -3 -34 -18q-31 33 -52 78q-22 40 -40 109q-17 69 -34 184q-10 -126 -44 -200q-33 -72 -84 -111q-49 -37 -136 -78l-8 14q84 46 132 98q48 49 66 107q17 54 26 112
q9 57 16 204q71 -23 74 -28q1 -3 0 -6q-3 -3 -26 -20l4 -70v0v0zM464 832q56 -35 76 -58q18 -24 18 -44q0 -19 -12 -26q-11 -6 -22 -2q-9 2 -14 20q-6 17 -12 38q-6 19 -42 62l8 10v0v0zM114 986q90 -51 114 -78q22 -28 20 -52q-3 -22 -14 -32q-9 -10 -24 -4q-15 3 -20 30
q-6 27 -20 52q-14 24 -64 72l8 12v0v0zM20 774h230l32 38l52 -48q9 -7 10 -14q1 -6 -16 -8q-21 -3 -42 -36q-37 -57 -82 -134v-98l16 -8l74 126l58 -38q6 -10 0 -14q-6 -3 -20 -2t-94 -78q48 -27 66 -44q17 -15 22 -36q6 -18 0 -32q-7 -14 -22 -16q-15 -1 -24 14
q-6 12 -12 30q-6 17 -24 38q-19 20 -40 38v-288l4 -83q1 -12 -18 -30q-21 -18 -38 -18l4 119v352q-60 -80 -132 -142l-12 12q63 78 102 136q39 55 64 98q23 41 74 140h-162q-24 0 -50 -8l-20 34v0v0z" />
  </g>

</svg>
