<?xml version="1.0" standalone="no"?>
<!DOCTYPE svg PUBLIC "-//W3C//DTD SVG 1.1//EN" "http://www.w3.org/Graphics/SVG/1.1/DTD/svg11.dtd" >
<svg xmlns="http://www.w3.org/2000/svg" xmlns:xlink="http://www.w3.org/1999/xlink" version="1.1" viewBox="0 -205 1024 1024">
  <g transform="matrix(1 0 0 -1 0 819)">
   <path fill="currentColor"
d="M158 920h600l46 58l70 -64q3 -3 4 -8q-1 -12 -16 -12h-332v-92h346l34 36l54 -48q12 -9 12 -14q-3 -6 -18 -8q-25 -9 -44 -24q-18 -15 -66 -72l-16 8l52 96h-354v-156l4 -94q0 -15 -18 -30t-42 -14l4 132v162h-324q-6 -65 -20 -88q-15 -23 -32 -34q-18 -10 -32 -4
q-13 5 -16 20q-4 14 16 34q18 17 36 44q16 26 26 100h18l2 -46h326v92h-236q-21 0 -68 -8l-16 34v0v0zM212 680h194v-26h-194v26v0v0zM210 570h196v-26h-196v26v0v0zM602 680h198v-26h-198v26v0v0zM606 572h194v-26h-194v26v0v0zM56 440h802l46 56l66 -62q3 -3 4 -12
q-1 -10 -16 -10h-430v-62q93 -27 168 -60q75 -34 100 -64q25 -27 20 -54q-3 -27 -24 -30q-19 -2 -44 34q-24 35 -86 80q-60 42 -134 72v-191l4 -78q0 -11 -20 -26q-19 -15 -40 -16l4 123v272h-336q-21 0 -68 -8l-16 36v0v0z" />
  </g>

</svg>
