<?xml version="1.0" standalone="no"?>
<!DOCTYPE svg PUBLIC "-//W3C//DTD SVG 1.1//EN" "http://www.w3.org/Graphics/SVG/1.1/DTD/svg11.dtd" >
<svg xmlns="http://www.w3.org/2000/svg" xmlns:xlink="http://www.w3.org/1999/xlink" version="1.1" viewBox="0 -36 256 256">
  <g transform="matrix(1 0 0 -1 0 220)">
   <path fill="currentColor"
d="M30 108h19v71h-19v-71zM61 108h19v71h-19v-71zM30 186h19q0 41 -1 57l19 -7l-6 -7v-43h18l6 9l14 -9l-7 -9q0 -59 1 -79l-13 -5v8h-19v-45l20 4q-2 9 -10 25l3 2q19 -22 21 -30.5t-3.5 -16t-6.5 -0.5t-2 15q-22 -9 -42 -16t-24 -10l-10 18q9 -1 42 7v47h-19v-6l-13 -7
q1 21 1 52t-1 54zM216 228l13 10l17 -17h-118q-11 0 -19 -2l-9 9h116zM146 210q-4 -3 -6.5 -5.5t-7.5 -9.5h20l7 8l12 -11l-5 -5q-13 -28 -28 -42.5t-38 -24.5l-1 3q24 16 35.5 32.5t17.5 32.5h-23l-7 -8q11 -5 13 -9.5t-3 -10.5t-6.5 2t-5.5 16q-13 -13 -21 -18l-2 3
q10 11 19.5 26.5t13.5 30.5zM177 159h25v28h-5q-8 0 -15 -2l-9 9h29q0 14 -1 27l21 -8l-7 -8v-11h5l10 8l15 -15h-30v-28h9l10 10l15 -17h-34q0 -16 1 -25l-15 -5q1 24 1 30h-26l-6 -7l-11 11l6 4q4 9 8 25l16 -8l-7 -5q-1 -3 -5 -13zM225 131l14 -10l-7 -8v-85
q0 -15 -15 -21q-3 12 -22 17v4q13 -1 19 -1.5t6 3.5v85h-95v-101l-12 -6v120l12 -6h94zM155 111l13 -12l-7 -3q-17 -13 -33 -22l-2 3q20 17 29 34zM204.5 83q-7.5 12 -23.5 23l1 3q37 -9 33.5 -23.5t-11 -2.5zM159 68v-22h29v22h-29zM160 75h27l5 9l13 -11l-5 -7v-30l-12 -4
v7h-29v-5l-13 -5v51z" />
  </g>

</svg>
