<?xml version="1.0" standalone="no"?>
<!DOCTYPE svg PUBLIC "-//W3C//DTD SVG 1.1//EN" "http://www.w3.org/Graphics/SVG/1.1/DTD/svg11.dtd" >
<svg xmlns="http://www.w3.org/2000/svg" xmlns:xlink="http://www.w3.org/1999/xlink" version="1.1" viewBox="0 -36 256 256">
  <g transform="matrix(1 0 0 -1 0 220)">
   <path fill="currentColor"
d="M66 227l-7 -5v-19h61q0 26 -1 43l21 -7l-7 -4v-32h61q0 13 -1 27l19 -4l-6 -3v-17t1 -14l-13 -5v8h-134l-6 -6l-13 11l6 3q0 18 -1 28zM61 177l-7 -6v-15h57q8 12 8 36l23 -7l-8 -5q-2 -15 -8 -24h68q0 9 -2 25l25 -5l-8 -6q0 -13 1 -24l-16 -4v7h-70q-12 -8 -32.5 -16
t-66.5 -15l-1 4q54 11 83 27h-53l-6 -4l-15 8l7 4q0 19 -1 25zM108 117l-10 -3q-25 -18 -44 -28.5t-41 -17.5l-2 4q15 6 38 20t40 37zM203.5 96.5q26.5 -9.5 41.5 -11.5v-4q-16 0 -17 -10q-31 12 -54 28.5t-29 27.5h-7l-11 -3l-10 11h27l5 8l13 -10l-8 -6q23 -21 49.5 -30.5
zM177 84l7 7l16 -11l-8 -4q-6 -42 -13 -52.5t-24 -14.5q0 11 -26 20v5q21 -5 30 -5t12.5 12.5t5.5 35.5h-55q-15 -28 -38 -43t-56 -25l-1 4q25 10 46 25.5t32 38.5h-17q-13 0 -22 -3l-10 10h121z" />
  </g>

</svg>
