<?xml version="1.0" standalone="no"?>
<!DOCTYPE svg PUBLIC "-//W3C//DTD SVG 1.1//EN" "http://www.w3.org/Graphics/SVG/1.1/DTD/svg11.dtd" >
<svg xmlns="http://www.w3.org/2000/svg" xmlns:xlink="http://www.w3.org/1999/xlink" version="1.1" viewBox="0 -144 1024 1024">
  <g transform="matrix(1 0 0 -1 0 880)">
   <path fill="currentColor"
d="M48 330l64 -32h161l32 27l59 -49l-27 -21v-193l-64 -33v33h-161l-64 -33v301zM636 849l62 -10l16 -11l-16 -9v-415l23 47l15 35l14 38l13 40l21 88l8 49l7 51l7 64l63 -18l15 -12l-19 -9l-6 -34l-10 -53l-13 -50l-9 -29l21 -14l16 -14l16 -16l28 -36l13 -21l12 -22
l11 -24l11 -24l-3 -25l-19 -16l-24 3l-16 19l-6 23l-6 22l-15 42l-17 37l-10 18l-10 17l-8 11l-15 -41l-18 -41l-20 -38l-21 -34l-25 -31l-24 -25v-53h91l54 54l64 -54v-21h-209v-113h111l45 48l53 -48v-22h-209v-91h145l54 54l64 -54v-22h-602v22h274v91h-236v22h236v113
h-226v21h226v521h-260v22h263v103l64 -10l16 -11l-16 -10v-72h144l54 53l65 -53v-22h-327zM273 276h-161v-193h161v193zM548 465l-3 18l-4 18l-6 18l-6 17l-17 35l-10 17h-1l-15 -42l-17 -42l-20 -40l-21 -37l-24 -34l-25 -30l-8 6l31 71l15 38l13 40l13 42l12 45l18 95
l8 52l6 49h-1l3 16l62 -19l15 -13l-18 -8l-18 -88l-13 -50l-8 -27l11 -8l17 -14l15 -16l13 -17l13 -17l11 -20l9 -20l9 -21l6 -21l-5 -24l-21 -14l-24 6l-13 20zM271 492l64 -54v-21h-285v21h167zM271 639l64 -54v-21h-285v21h167zM326 792l54 -49v-21h-350v21h252zM271 944
l64 -54v-21h-285v21h167z" />
  </g>

</svg>
