<?xml version="1.0" standalone="no"?>
<!DOCTYPE svg PUBLIC "-//W3C//DTD SVG 1.1//EN" "http://www.w3.org/Graphics/SVG/1.1/DTD/svg11.dtd" >
<svg xmlns="http://www.w3.org/2000/svg" xmlns:xlink="http://www.w3.org/1999/xlink" version="1.1" viewBox="0 -205 1024 1024">
  <g transform="matrix(1 0 0 -1 0 819)">
   <path fill="currentColor"
d="M900 920q-210 -39 -362 -66v-208h332l42 50l68 -62q2 -4 2 -8q0 -7 -8 -8h-194v-200q52 -22 86 -40q34 -19 62 -40q26 -21 34 -42q7 -21 0 -36q-8 -16 -22 -14q-12 0 -24 12q-12 10 -30 32q-18 21 -42 42q-23 18 -64 46v-233l4 -56q0 -15 -20 -30q-21 -13 -38 -12l4 129
v228q-67 30 -124 54l4 16q57 -15 120 -36v180h-192q0 -196 -32 -334q-33 -137 -188 -245l-8 12q125 119 152 245q27 123 24 316v320l62 -52q198 41 334 104l54 -56q8 -7 -4 -16q-19 5 -32 8v0v0v0zM62 894h286l38 50l60 -58q12 -15 -8 -18h-158q-36 -142 -86 -268h134l32 36
l54 -46q6 -6 6 -8q0 -6 -32 -26v-320l4 -44q2 -16 -16 -28q-18 -14 -36 -15v77h-148v-74q0 -17 -20 -27q-21 -12 -32 -12l4 101v270q-33 -79 -98 -154l-10 8q57 105 102 228q46 122 86 302h-74q-22 0 -70 -8l-18 34v0v0zM192 252h148v322h-148v-322v0v0z" />
  </g>

</svg>
