<?xml version="1.0" standalone="no"?>
<!DOCTYPE svg PUBLIC "-//W3C//DTD SVG 1.1//EN" "http://www.w3.org/Graphics/SVG/1.1/DTD/svg11.dtd" >
<svg xmlns="http://www.w3.org/2000/svg" xmlns:xlink="http://www.w3.org/1999/xlink" version="1.1" viewBox="0 -205 1024 1024">
  <g transform="matrix(1 0 0 -1 0 819)">
   <path fill="currentColor"
d="M556 966q9 -6 4 -12q0 -3 -18 -8q53 -60 116 -108q62 -47 152 -76q89 -30 194 -26v-22q-42 0 -62 -12q-21 -9 -38 -38q-86 33 -154 70q-66 33 -122 84q-56 47 -106 122q-63 -58 -126 -112q-64 -54 -142 -110q-75 -55 -222 -124l-10 14q114 66 204 136q89 68 148 124
q57 57 114 118l68 -20v0v0zM434 822l8 12q65 -25 92 -44q25 -19 26 -44q0 -24 -14 -32q-12 -9 -26 -6t-16 24q-2 20 -16 40q-15 17 -54 50v0v0zM656 714q55 -39 56 -44q1 -6 0 -8q-3 -3 -14 -6q-11 0 -34 -14l-58 -64q-12 -13 -30 -14q-15 0 -30 10l70 86h-322q-18 0 -48 -8
l-18 36h404l24 26v0v0zM244 590l60 -38h418l28 36l66 -36q6 -6 6 -8q1 -6 -28 -30v-254l4 -48q0 -15 -20 -26q-18 -13 -36 -14v34h-446v-16q0 -13 -18 -20q-19 -9 -38 -8l4 96v332v0v0zM296 232h446v78h-446v-78v0v0zM296 336h446v86h-446v-86v0v0zM296 448h446v78h-446v-78
v0v0zM56 33q167 49 358 153l54 -44q9 -5 -2 -15q-39 1 -48 -2t-98 -36q-87 -32 -258 -76l-6 20v0v0zM600 146l4 18q153 -16 226 -33q71 -17 92 -38q21 -20 18 -44q-3 -21 -20 -24q-16 -2 -38 16q-22 19 -80 46q-58 28 -202 59v0v0z" />
  </g>

</svg>
