<?xml version="1.0" standalone="no"?>
<!DOCTYPE svg PUBLIC "-//W3C//DTD SVG 1.1//EN" "http://www.w3.org/Graphics/SVG/1.1/DTD/svg11.dtd" >
<svg xmlns="http://www.w3.org/2000/svg" xmlns:xlink="http://www.w3.org/1999/xlink" version="1.1" viewBox="0 -154 1024 1024">
  <g transform="matrix(1 0 0 -1 0 870)">
   <path fill="currentColor"
d="M787 751h-201v-152h201v152zM586 583v-154h201v154h-201zM586 413v-172h201v172h-201zM316 862l81 -28q12 -3 5 -9q-19 -6 -28 -16v-161h60l20 26l49 -32q11 -10 -5 -10h-124v-73q60 -27 86 -45q29 -23 37 -42q9 -23 3 -36q-7 -14 -21 -14q-15 0 -19 22q-3 20 -23 47
q-16 22 -63 51v-303l2 -76q0 -17 -11 -24q-11 -8 -37 -12q5 31 6 147v263q-66 -131 -177 -229l-12 6q123 143 185 318h-71q-25 0 -42 -10l-32 26h149v169q4 12 -23 35zM540 796l38 -29h192l35 36l41 -37q11 -9 -3 -14l-17 -11v-445l4 -101q-1 -15 -13 -20q-10 -5 -30 -6v56
h-201v-41q1 -14 -10 -23q-9 -6 -36 -11q5 31 7 147v458q1 12 -18 29zM86 908q-4 24 -23 56l13 12l49 -54h716l33 42l70 -49q19 -11 -10 -13h-802v-797h711l34 50l67 -54q26 -18 0 -16h-798l-36 -43l-54 42q26 22 30 42v782z" />
  </g>

</svg>
