<?xml version="1.0" standalone="no"?>
<!DOCTYPE svg PUBLIC "-//W3C//DTD SVG 1.1//EN" "http://www.w3.org/Graphics/SVG/1.1/DTD/svg11.dtd" >
<svg xmlns="http://www.w3.org/2000/svg" xmlns:xlink="http://www.w3.org/1999/xlink" version="1.1" viewBox="0 -246 2048 2048">
  <g transform="matrix(1 0 0 -1 0 1802)">
   <path fill="currentColor"
d="M985 1213v-103h-119v776q88 -34 135 -57h569l78 90q123 -95 123 -119q0 -10 -16 -26l-47 -35v-616h-117v90h-606zM985 1559h606v219h-606v-219zM985 1508v-244h606v244h-606zM676 942h1005l72 88q127 -99 127 -125q0 -12 -18 -24l-50 -33q-13 -475 -88 -612
q-64 -120 -221 -117q-3 63 -76 90q-52 22 -202 47v51q176 -22 280 -22q114 0 142 102q46 188 49 504h-1065q-211 -223 -514 -371l-29 43q201 124 364 299q150 160 228 322q168 -74 168 -111q0 -33 -96 -33q-23 -32 -76 -98zM338 1086v825q207 -9 207 -53q0 -26 -88 -59v-713
h-119zM1431 463q-43 0 -63 53q-61 161 -178 254l24 37q138 -57 217 -138q66 -67 66 -126q0 -80 -66 -80zM760 254q-66 0 -66 100q0 150 -61 292l41 22q162 -187 162 -316q0 -98 -76 -98zM303 195q-76 0 -76 72q0 39 41 69q133 101 168 303l49 -12q2 -22 2 -47
q0 -185 -76 -303q-51 -82 -108 -82zM1118 357q-47 0 -63 53q-55 182 -168 287l28 32q269 -158 269 -292q0 -80 -66 -80z" />
  </g>

</svg>
