<?xml version="1.0" standalone="no"?>
<!DOCTYPE svg PUBLIC "-//W3C//DTD SVG 1.1//EN" "http://www.w3.org/Graphics/SVG/1.1/DTD/svg11.dtd" >
<svg xmlns="http://www.w3.org/2000/svg" xmlns:xlink="http://www.w3.org/1999/xlink" version="1.1" viewBox="0 -36 256 256">
  <g transform="matrix(1 0 0 -1 0 220)">
   <path fill="currentColor"
d="M140 118q-10 0 -21 -2l-9 9h58q0 19 -1 36l23 -10l-8 -6v-20h36l13 12l16 -19h-65v-84q1 -18 -21 -26q0 14 -29 20v5q36 -6 36 5v80h-28zM197 101q24 -19 37 -34.5t6 -30t-13 6t-33 56.5zM146 87q-19 -43 -46 -65l-3 3q30 37 38 80l20 -12zM113 149l-2 3q38 27 57 48
q-11 9 -47 30l1 3q26 -10 55 -26q23 25 31 40l17 -17l-12 -5q-14 -13 -26 -24q26 -15 34 -24.5t4.5 -19.5t-12.5 3.5t-35 31.5q-27 -25 -65 -43zM32 62.5q-4 15.5 -16 36.5l2 2q16 -12 24 -22t1 -21t-11 4.5zM90 168l15 -17h-38v-29h17l11 10l14 -17h-42v-51q10 14 24 45
l15 -14l-9 -6q-12 -13 -30 -32v-11l43 11l1 -4q-60 -21 -86 -34l-11 17q16 2 40 8v71h-12q-11 0 -20 -3l-9 10h41v29h-23q-10 -13 -21 -22l-2 2q34 57 50 116l18 -12l-7 -4l-4 -11q22 -6 33.5 -12t8 -18.5t-12.5 0t-31 26.5q-14 -35 -27 -58h42z" />
  </g>

</svg>
