<?xml version="1.0" standalone="no"?>
<!DOCTYPE svg PUBLIC "-//W3C//DTD SVG 1.1//EN" "http://www.w3.org/Graphics/SVG/1.1/DTD/svg11.dtd" >
<svg xmlns="http://www.w3.org/2000/svg" xmlns:xlink="http://www.w3.org/1999/xlink" version="1.1" viewBox="0 -36 256 256">
  <g transform="matrix(1 0 0 -1 0 220)">
   <path fill="currentColor"
d="M165 232.5q7 -6.5 4.5 -11.5t-6 -8t-7.5 6.5t-16 22.5l2 2q16 -5 23 -11.5zM146 205q-5 -27 -21 -43.5t-38 -25.5l-2 3q19 13 32 31t14 35h15zM101.5 186q-3.5 -7 -9 -9t-10 1.5t4.5 13.5t13 29h5v-11h113l10 10l14 -15q-13 -4 -30 -25l-3 2l10 21h-114q0 -10 -3.5 -17z
M135 138h67l13 11l18 -18h-77v-27h41l14 11l15 -18h-70v-29h43l14 11l16 -18h-73q0 -18 1 -24l-16 -8q1 10 1 102h-11q-14 -17 -42 -34l-2 3q31 27 51 72l16 -14l-8 -5q-5 -7 -11 -15zM185.5 174q0.5 -4 2.5 -5t8 -1h13.5t13.5 3.5t15 -9.5q-4 -6 -46 -5q-23 -3 -21 22v26
h14q0 -27 0.5 -31zM36 243q24 -14 29 -23t-1.5 -19.5t-11 6.5t-18.5 33zM39 54q11 25 22 52h-18l-8 -9l-13 12l9 6l22 44h-17l-11 -3l-10 10h39l9 11l13 -16l-10 -5q-6 -10 -22 -43h18l8 8l12 -14l-8 -6q-10 -20 -20 -46q26 -22 84.5 -24t109.5 6v-4q-18 -5 -22 -17
q-92 -2 -121.5 4.5t-58.5 29.5q-19 -21 -26 -37l-12 12q16 17 31 29z" />
  </g>

</svg>
