<?xml version="1.0" standalone="no"?>
<!DOCTYPE svg PUBLIC "-//W3C//DTD SVG 1.1//EN" "http://www.w3.org/Graphics/SVG/1.1/DTD/svg11.dtd" >
<svg xmlns="http://www.w3.org/2000/svg" xmlns:xlink="http://www.w3.org/1999/xlink" version="1.1" viewBox="0 -36 256 256">
  <g transform="matrix(1 0 0 -1 0 220)">
   <path fill="currentColor"
d="M202 174v-7h-51v7h51zM121 204h-79q0 -10 -4 -14.5t-10.5 -6t-10 1.5t5.5 10t14 23h5v-7h79v15h-49q-11 0 -20 -2l-10 9h145l12 10l18 -17h-82v-15h87l8 8l14 -13q-12 -3 -32 -21l-3 2l12 17h-86q0 -25 1 -33l-16 -4q1 9 1 37zM105 194v-7h-49v7h49zM200 194v-7h-49v7h49
zM105 174v-7h-51v7h51zM119 94q1 -13 -11 -17q-2 8 -14 11v3q14 -2 14 3v35h-14v-35l-11 -5v40h-13v-38l-11 -5v43h-13v-45l-13 -4v60l13 -4h16l5 12h-18q-11 0 -20 -2l-9 9h81l10 8l14 -15h-45l-12 -12h40l5 7l12 -9l-6 -5v-35zM113 75l12 -15h-46q-1 -4 -2 -9
q30 -11 39.5 -17.5t5.5 -15t-11.5 1.5t-35.5 26q-10 -24 -52 -36l-1 4q39 16 44 46h-15q-11 0 -20 -2l-9 9h45q1 13 1 20l18 -5l-5 -5l-1 -10h23zM220 165l16 -17h-74l-3 -30h40l7 8l14 -10l-8 -6l-5 -73q-1 -11 6 -10q16 -1 17.5 5t2.5 18h4q-1 -22 8 -23q-4 -10 -14 -10
h-24q-15 0 -13 13l6 81h-42l-8 -82l38 17l1 -4q-26 -15 -47 -32l-10 12l6 4l12 122q-9 0 -16 -2l-9 9h83zM167 97q15 -9 19 -15.5t-1.5 -14t-8 3.5t-11.5 24z" />
  </g>

</svg>
