<?xml version="1.0" standalone="no"?>
<!DOCTYPE svg PUBLIC "-//W3C//DTD SVG 1.1//EN" "http://www.w3.org/Graphics/SVG/1.1/DTD/svg11.dtd" >
<svg xmlns="http://www.w3.org/2000/svg" xmlns:xlink="http://www.w3.org/1999/xlink" version="1.1" viewBox="0 -36 256 256">
  <g transform="matrix(1 0 0 -1 0 220)">
   <path fill="currentColor"
d="M218 193h-83v-57l-14 -9v66h-79q-1 -17 -6 -25t-12.5 -9t-9.5 3t4.5 10t12.5 15.5t7 20.5h4v-8h79v23h-53q-11 0 -19 -2l-10 9h151l11 11l18 -18h-84v-23h82l8 10l17 -18q-7 -1 -15 -7.5t-18 -19.5l-4 2zM105 175v-7h-51v7h51zM198 174v-7h-47v7h47zM198 147v-7h-47v7h47
zM105 148v-7h-51v7h51zM191 133l14 -16l-9 -6q-28 -35 -54 -57q44 -23 103 -24v-4q-20 -5 -25 -16q-53 11 -91 35q-47 -29 -110 -37v5q66 18 100 41q-29 23 -52 61h-5q-4 0 -11 -2l-10 9h140zM129 62q27 22 50 53h-104q24 -30 54 -53z" />
  </g>

</svg>
