<?xml version="1.0" standalone="no"?>
<!DOCTYPE svg PUBLIC "-//W3C//DTD SVG 1.1//EN" "http://www.w3.org/Graphics/SVG/1.1/DTD/svg11.dtd" >
<svg xmlns="http://www.w3.org/2000/svg" xmlns:xlink="http://www.w3.org/1999/xlink" version="1.1" viewBox="0 -36 256 256">
  <g transform="matrix(1 0 0 -1 0 220)">
   <path fill="currentColor"
d="M76 226l11 11l17 -18h-40q-8 -37 -15 -61h28l7 9l15 -11l-8 -9q0 -80 1 -100l-14 -7v18h-29v-26l-14 -6q1 37 1 99q-10 -25 -30 -49l-3 2q34 61 46 141h-8q-10 -2 -19 -4l-8 11h62zM49 65h29v86h-29v-86zM231 131l-13 -6v10h-97v-8l-13 -5q1 21 1 41.5t-1 38.5l16 -8h21
v30h-15q-11 0 -22 -2l-9 9h116l15 11l17 -18h-54v-30h23l9 10l15 -15l-10 -5q0 -36 1 -53zM159 194h20v30h-20v-30zM122 142h23v45h-23v-45zM159 142h20v45h-20v-45zM193 142h24v45h-24v-45zM162 118l-10 -18h39l4 20l18 -11l-5 -3l-2 -6h16l12 12l15 -19h-44
q-8 -21 -20 -41q36 -13 43.5 -18t9 -12t-0.5 -12t-14 6.5t-45 25.5q-16 -14 -39.5 -22.5t-54.5 -11.5l-1 3q33 8 53 17.5t30 19.5q-31 10 -47 13l16 32h-13q-11 0 -20 -2l-11 9h47q10 19 13 36l23 -14zM133 65q15 -3 40 -9q12 17 16 37h-40z" />
  </g>

</svg>
