<?xml version="1.0" standalone="no"?>
<!DOCTYPE svg PUBLIC "-//W3C//DTD SVG 1.1//EN" "http://www.w3.org/Graphics/SVG/1.1/DTD/svg11.dtd" >
<svg xmlns="http://www.w3.org/2000/svg" xmlns:xlink="http://www.w3.org/1999/xlink" version="1.1" viewBox="0 -410 2048 2048">
  <g transform="matrix(1 0 0 -1 0 1638)">
   <path fill="currentColor"
d="M1055 462q4 -92 5 -138q4 -103 8 -149q4 -39 4 -57q0 -67 -67 -67q-35 0 -44 18q-3 7 -3 108v133v304h-660q-109 0 -192 -8l-38 88q93 -23 230 -23h660v409h-523q-108 0 -192 -8l-38 88q94 -23 230 -23h523v393q-348 -43 -687 -43q-34 0 -98 1v42q214 9 554 49
q170 20 231 33v196q-1 122 -8 161l109 -24q86 -19 86 -45q0 -29 -50 -42l-40 -11v-221q410 97 596 221l95 -90q24 -23 24 -43t-30 -20q-6 0 -13 2l-47 13q-289 -105 -625 -161v-411h537l104 111l142 -111q19 -15 19 -28q0 -29 -35 -29h-767v-409h683l96 111l143 -111
q15 -11 15 -30q0 -27 -28 -27h-909v-152z" />
  </g>

</svg>
