<?xml version="1.0" standalone="no"?>
<!DOCTYPE svg PUBLIC "-//W3C//DTD SVG 1.1//EN" "http://www.w3.org/Graphics/SVG/1.1/DTD/svg11.dtd" >
<svg xmlns="http://www.w3.org/2000/svg" xmlns:xlink="http://www.w3.org/1999/xlink" version="1.1" viewBox="0 -36 256 256">
  <g transform="matrix(1 0 0 -1 0 220)">
   <path fill="currentColor"
d="M158 237l-6 -4q-2 -3 -6 -13h63l7 10l15 -14q-11 -5 -32 -29l-3 2l14 24h-67q-11 -20 -31 -36l-2 3q22 26 31 66zM177 199l-7 -6q14 -24 31.5 -36t34.5 -13v-4q-12 -2 -16 -12q-13 6 -29 22t-24 36q-11 -31 -26.5 -42.5t-31.5 -17.5l-1 4q22 14 34 32t17 47zM75 136
l22 -8l-8 -6v-10h21l8 10l15 -17h-44v-17h14l9 8l14 -14l-9 -6q-10 -20 -31.5 -38t-75.5 -28l-1 4q41 11 61.5 27t33.5 40h-50q-15 -20 -42 -35l-1 3q19 17 28 32.5t12 30.5l19 -11l-7 -3l-6 -10h19q0 36 -1 48zM68 58.5q5 -5.5 -0.5 -13.5t-9 2t-14.5 23l3 2
q16 -8 21 -13.5zM145 129l14 -9h26l7 9l16 -11l-7 -7v-71q0 -12 10 -12h7q10 0 9 30h5q-1 -25 13 -29q-10 -11 -20 -12h-23q-15 0 -15 16v79h-28q0 -40 -9.5 -64t-43.5 -41l-2 3q26 18 34 40.5t7 78.5zM53 212q-10 0 -19 -2l-9 9h57l11 9l15 -16h-55zM45 150q-9 -1 -18 -3
l-10 10h73l11 10l16 -17h-72z" />
  </g>

</svg>
