<?xml version="1.0" standalone="no"?>
<!DOCTYPE svg PUBLIC "-//W3C//DTD SVG 1.1//EN" "http://www.w3.org/Graphics/SVG/1.1/DTD/svg11.dtd" >
<svg xmlns="http://www.w3.org/2000/svg" xmlns:xlink="http://www.w3.org/1999/xlink" version="1.1" viewBox="0 -154 1024 1024">
  <g transform="matrix(1 0 0 -1 0 870)">
   <path fill="currentColor"
d="M337 827l76 -51q14 -9 0 -14q-31 7 -63 -17q-30 -23 -96 -67q-1 -2 -3 -2l35 -28h428l31 33l56 -41q14 -12 -6 -17l-18 -9v-97l4 -50q3 -42 -48 -44v42h-441v-15q1 -38 -51 -44q5 37 7 76v151q-4 18 -13 32q-62 -37 -160 -76l-2 14q126 68 193 125q68 58 68 71t-5 20z
M476 461l91 -24q14 -5 6 -11q-21 -8 -30 -21v-36h329l33 47l70 -54q20 -15 -13 -13h-374q41 -60 80 -96q87 -79 183 -106q47 -12 74 -16t76 -8v-16q-63 5 -85 -38q-102 30 -144 53t-110 85q-64 60 -96 142h-23v-244l2 -43q-1 -39 -55 -46q5 39 7 136v197h-22
q-72 -110 -177 -175q-109 -68 -271 -116l-4 16q163 65 290 161q57 43 104 114h-281q-27 1 -47 -13l-32 33h440v46q2 16 -30 34zM292 485h441v143h-441v-143zM965 845q4 -11 -10 -7q-51 -3 -70 -26q-13 -12 -77 -62l-13 8l74 90h-717q-1 -11 -2 -23q-5 -63 -32 -92
q-28 -28 -50 -7q-12 16 8 35t36 44t26 97h15v-34h710l41 41zM594 777l3 15q121 -29 173 -48t82 -43q55 -58 18 -80q-15 -6 -43 32q-28 37 -77 63q-48 25 -156 61zM396 996l4 13q72 -16 97 -31q26 -15 37 -34q26 -45 -8 -62q-18 -5 -26 20q-7 25 -27 48q-18 22 -77 46z" />
  </g>

</svg>
