<?xml version="1.0" standalone="no"?>
<!DOCTYPE svg PUBLIC "-//W3C//DTD SVG 1.1//EN" "http://www.w3.org/Graphics/SVG/1.1/DTD/svg11.dtd" >
<svg xmlns="http://www.w3.org/2000/svg" xmlns:xlink="http://www.w3.org/1999/xlink" version="1.1" viewBox="0 -205 1024 1024">
  <g transform="matrix(1 0 0 -1 0 819)">
   <path fill="currentColor"
d="M672 936q6 -3 4 -6q-1 -6 -10 -8q-35 -9 -46 -30q-12 -18 -38 -56h188l30 34q51 -48 54 -48q7 -6 6 -12q0 -4 -18 -8q-17 -3 -40 -24t-46 -44q-21 -25 -62 -70h158l28 36l46 -42q12 -7 12 -14q-1 -7 -28 -22v-116l4 -74q0 -16 -12 -26q-11 -9 -40 -12v38h-110v-290
q0 -28 10 -37q8 -8 38 -8h76q22 4 32 10q9 7 16 28q3 19 6 61q2 41 2 82h18l6 -78q3 -36 12 -50q8 -12 26 -21q-12 -32 -30 -46t-30 -20q-13 -4 -46 -8h-108q-29 0 -46 6q-18 7 -24 26q-8 17 -6 52v293h-26q-17 -90 -64 -170q-45 -79 -134 -143q-87 -66 -192 -96l-4 14
q114 52 178 105q63 55 108 128q45 72 60 162h-126v-18q0 -9 -14 -18q-12 -9 -38 -12l4 112v172q-40 -38 -70 -64l-12 10q66 77 124 166q56 90 106 198l68 -42v0v0zM506 458h128q12 81 18 180h-146v-180v0v0zM698 638q-1 -84 -16 -180h180v180h-164v0v0zM670 664l98 148h-202
q-34 -52 -88 -118l32 -30h160v0v0zM270 932q6 -3 6 -6q0 -9 -18 -14q-18 -4 -26 -52q-6 -48 -20 -140h86l28 40l54 -38q15 -7 12 -10q1 -7 -34 -34q-6 -132 -24 -218q-15 -85 -56 -178q39 -27 58 -48q18 -21 22 -42q4 -20 -4 -34q-7 -15 -22 -14q-13 1 -26 26q-12 25 -20 38
q-9 12 -30 36q-43 -66 -92 -109q-48 -41 -126 -92l-8 14q66 52 118 105q50 54 80 112q-42 31 -126 86q39 155 60 334h-54q-24 0 -50 -6l-18 32h126q18 135 28 246l76 -34v0v0zM244 304q35 81 50 178q14 97 20 212h-106q-25 -154 -68 -332q44 -26 104 -58v0v0z" />
  </g>

</svg>
