<?xml version="1.0" standalone="no"?>
<!DOCTYPE svg PUBLIC "-//W3C//DTD SVG 1.1//EN" "http://www.w3.org/Graphics/SVG/1.1/DTD/svg11.dtd" >
<svg xmlns="http://www.w3.org/2000/svg" xmlns:xlink="http://www.w3.org/1999/xlink" version="1.1" viewBox="0 -246 2048 2048">
  <g transform="matrix(1 0 0 -1 0 1802)">
   <path fill="currentColor"
d="M954 519q-335 -257 -845 -373l-29 45q487 142 808 420h-759l-22 51h847v172h-604l-24 51h628v172h-386v-67h-115v303h-310l-22 51h332v182q191 -9 191 -51q0 -22 -76 -49v-82h386v244q195 -6 195 -45q0 -24 -74 -56v-143h403v182q191 -9 191 -51q0 -22 -76 -49v-82h106
l92 119q80 -65 136 -129l-25 -41h-309v-293h-115v57h-403v-172h528l94 121q77 -70 127 -135l-24 -37h-725v-172h608l108 127q84 -71 146 -139l-23 -39h-794q349 -223 846 -305q-62 -58 -99 -123q-478 123 -792 395v-485h-121v426zM954 1293h-386v-185h386v185zM1075 1293
v-185h403v185h-403zM1212 1674h-437v-152h-113v152h-512l-21 51h533v207q195 -6 195 -45q0 -25 -82 -56v-106h437v207q189 -6 189 -45q0 -23 -78 -51v-111h377l96 131q73 -67 131 -141l-23 -41h-581v-129h-111v129z" />
  </g>

</svg>
