<?xml version="1.0" standalone="no"?>
<!DOCTYPE svg PUBLIC "-//W3C//DTD SVG 1.1//EN" "http://www.w3.org/Graphics/SVG/1.1/DTD/svg11.dtd" >
<svg xmlns="http://www.w3.org/2000/svg" xmlns:xlink="http://www.w3.org/1999/xlink" version="1.1" viewBox="0 -36 256 256">
  <g transform="matrix(1 0 0 -1 0 220)">
   <path fill="currentColor"
d="M76 232l-12 -25h46l12 12l16 -19h-60q18 -8 24 -12.5t6.5 -7.5t-3.5 -10.5t-8.5 -0.5t-10 14.5t-15.5 16.5h-10q-15 -24 -45 -46l-2 3q20 21 32 43t17 46l22 -11zM176 231l-13 -24h52l11 12l16 -19h-66q22 -8 31 -13.5t8.5 -12t-5.5 -10.5t-11 6.5t-30 29.5h-9
q-16 -23 -34 -39l-2 2q18 26 27 47t12 37l22 -11zM63 137h40l8 11l16 -14l-8 -7q-20 -56 -47.5 -81t-57.5 -41l-3 3q27 18 53 46t40 76h-44q-5 -7 -12 -19q14 -8 23 -16.5t1.5 -20t-11 1.5t-16.5 31q-13 -19 -30 -32l-3 2q20 23 32.5 51t14.5 42l22 -10l-9 -5q-3 -7 -9 -18z
M174 174l22 -13l-9 -5v-20h19l13 13l17 -20h-49v-59h29l12 14l18 -21h-59v-51l-13 -7v58h-35l-7 -7l-14 13q7 1 11 15t6 32l21 -9l-8 -6l-9 -31h35v59h-15q-12 1 -24 -2l-9 9h48v38z" />
  </g>

</svg>
