<?xml version="1.0" standalone="no"?>
<!DOCTYPE svg PUBLIC "-//W3C//DTD SVG 1.1//EN" "http://www.w3.org/Graphics/SVG/1.1/DTD/svg11.dtd" >
<svg xmlns="http://www.w3.org/2000/svg" xmlns:xlink="http://www.w3.org/1999/xlink" version="1.1" viewBox="0 -36 256 256">
  <g transform="matrix(1 0 0 -1 0 220)">
   <path fill="currentColor"
d="M65 16l-15 -7q1 46 1 117q-12 -35 -42 -67l-3 3q35 50 43 115h-17l-11 -3l-10 10h40q0 28 -1 62l24 -10l-10 -7v-45h4l10 11l18 -18h-32v-28q16 -10 24.5 -18t2.5 -20t-11 2t-16 30q0 -107 1 -127zM112 201h49v25h-23q-13 0 -22 -3l-10 10h97l10 11l18 -18h-56v-25h50
l7 9l15 -14q-10 -3 -24 -23l-3 1l6 20h-51q0 -33 1 -46l-16 -6q1 14 1 52h-49q1 -13 -0.5 -19t-7 -7.5t-10.5 0t3 12.5t9 30h5zM213 84l-14 -6v11h-68v-8l-13 -5v38q0 11 -1 24l14 -5h67l6 7l15 -11l-6 -5v-40zM91 77l13 -5h36l8 7l14 -10l-8 -5v-47l-13 -5v12h-37v-8
l-13 -5v66zM131 96h68v30h-68v-30zM104 31h37v34h-37v-34zM174 78l12 -6h37l7 6l14 -10l-6 -3v-46l-13 -6v11h-39v-7l-12 -5v66zM186 31h39v34h-39v-34zM118 182l2 3q19 -1 24 -3t5 -11t-8.5 -2.5t-22.5 13.5zM117 145l-6 12q19 1 45 5l1 -3q-38 -11 -40 -14zM181 162v5
q27 -3 34 -6t7 -11.5t-7 -3t-34 15.5zM182 172l-1 4q19 7 28 15l9 -13h-4q-20 -4 -32 -6z" />
  </g>

</svg>
