<?xml version="1.0" standalone="no"?>
<!DOCTYPE svg PUBLIC "-//W3C//DTD SVG 1.1//EN" "http://www.w3.org/Graphics/SVG/1.1/DTD/svg11.dtd" >
<svg xmlns="http://www.w3.org/2000/svg" xmlns:xlink="http://www.w3.org/1999/xlink" version="1.1" viewBox="0 -36 256 256">
  <g transform="matrix(1 0 0 -1 0 220)">
   <path fill="currentColor"
d="M81 32.5q7 1.5 6 7.5v41h-40q-2 -22 -10 -39t-25 -35l-3 4q11 18 17 35.5t6.5 30.5t0.5 47t-1 52l15 -7h38l9 10l16 -14l-9 -4v-114q1 -28 -21 -37q-3 15 -26 20v4q20 -3 27 -1.5zM47 130h40v32h-40v-32zM47 88h40v35h-40v-35zM136 172h77l8 11l17 -14l-9 -5
q-1 -54 1 -70l-14 -5v8h-82l2 -6l-16 -7q1 20 1 49.5t-1 46.5zM134 139h34v26h-34v-26zM134 104h34v28h-34v-28zM182 139h34v26h-34v-26zM182 104h34v28h-34v-28zM128.5 36.5q-3.5 -11.5 -15 -11t-4.5 9.5t15 40h3q5 -27 1.5 -38.5zM202.5 33.5q2.5 4.5 5.5 21.5h4
q0 -14 1 -19.5t11 -7.5q-7 -9 -13.5 -11t-15.5 -2h-35q-18 0 -18 14v29q0 14 -1 27l23 -11l-9 -6v-31q0 -8 12 -11h24q9 3 11.5 7.5zM186 78q7 -6 1 -18t-12 3t-21 29l3 3q22 -11 29 -17zM243.5 53.5q4.5 -6.5 -1 -17t-11 3.5t-22.5 35l2 3q28 -18 32.5 -24.5zM67 234
l-10 -17h54l11 13l14 -20h-55q19 -10 20 -18t-5 -14.5t-9 6.5t-15 26h-19q-18 -24 -38 -42l-5 3q15 19 26.5 37t19.5 42l23 -13zM171 233l-11 -17h57l12 11l15 -18h-62q15 -7 19 -12.5t3 -12t-6 -8.5t-8 8t-17 25h-17q-12 -15 -30 -31l-3 3q19 28 26.5 42.5t10.5 25.5
l22 -13z" />
  </g>

</svg>
