<?xml version="1.0" standalone="no"?>
<!DOCTYPE svg PUBLIC "-//W3C//DTD SVG 1.1//EN" "http://www.w3.org/Graphics/SVG/1.1/DTD/svg11.dtd" >
<svg xmlns="http://www.w3.org/2000/svg" xmlns:xlink="http://www.w3.org/1999/xlink" version="1.1" viewBox="0 0 2048 2048">
  <g transform="matrix(1 0 0 -1 0 2048)">
   <path fill="currentColor"
d="M1336 1457v317q0 53 -3 96.5t-3 49.5l-2 13l109 -24q49 -11 67 -21q17 -9 18 -22q2 -14 -13 -26q-15 -13 -36 -18l-42 -11v-354h295l69 76l83 -54q22 -15 31 -25q9 -11 9 -24q-1 -15 -10 -25t-32 -20l-36 -16v-990q0 -26 4 -103q3 -77 7 -111t3 -48q-2 -11 -6 -19
q-3 -9 -13 -15.5t-30 -7.5q-22 -2 -33 3q-12 5 -20 16q-8 10 -8 23v70h-717v-77q0 -8 -9 -19q-8 -11 -20 -17t-43 -2q-12 1 -21 5t-13.5 15t-3.5 29q0 13 3 51q3 37 7 100q4 62 4 100v1035q-2 54 -5 81q-4 27 -7 42l-4 15l112 -88h309zM1744 245v554h-313v-554h313z
M1027 245h309v554h-309v-554zM1027 856h309v547h-309v-547zM1431 1403v-547h313v547h-313zM305 1731v-1392l7 -126q2 -49 5 -81t2 -44q-3 -23 -15 -38q-12 -14 -45 -15q-18 -1 -28 3t-15 10q-6 5 -6 37v1583q0 19 -3 74t-3 65l-5 68l114 -86h373l64 82l104 -76q12 -9 20 -21
q8 -13 7 -24q-2 -12 -15 -22q-13 -9 -27 -13l-47 -15l-72 -122l-54 -90l-74 -119l-59 -95l57 -49q27 -23 62 -61q36 -37 63 -75t47 -85q19 -47 26 -100q8 -52 4 -102q-4 -51 -12 -80q-7 -29 -20 -58q-14 -28 -38 -55q-23 -27 -54 -47t-50 -26l-49 -17q-1 16 -3 29t-10 27
q-9 14 -26 26t-40 21q-23 8 -42 12l-40 7l6 40l60 -9l58 -8q34 -4 51 -3q24 0 45 10.5t40 39.5q18 29 25 77q7 49 6 91q-3 59 -21 110q-17 51 -41 93q-24 41 -65 90q-40 49 -61 66l-33 27l80 169l54 116l37 84l40 97h-384z" />
  </g>

</svg>
