<?xml version="1.0" standalone="no"?>
<!DOCTYPE svg PUBLIC "-//W3C//DTD SVG 1.1//EN" "http://www.w3.org/Graphics/SVG/1.1/DTD/svg11.dtd" >
<svg xmlns="http://www.w3.org/2000/svg" xmlns:xlink="http://www.w3.org/1999/xlink" version="1.1" viewBox="0 -36 256 256">
  <g transform="matrix(1 0 0 -1 0 220)">
   <path fill="currentColor"
d="M102 32q-2 -9 -7.5 -15.5t-17.5 -9.5q-3 14 -21 21l1 4q16 -3 22 -4t8 5.5t4 27.5h-53l-8 -10l-15 15l8 6l4 70h-5l-8 -2l-6 9h19l6 92l14 -9h53l7 10l14 -11l-7 -10l-4 -72l9 12l14 -20h-23l-4 -73l13 12l16 -19h-29q-2 -20 -4 -29zM41 149h56l4 76h-55zM97 142h-56
l-4 -74h55zM81.5 179q0.5 -10 -6.5 -15.5t-8 7.5t-12 38l3 1q23 -21 23.5 -31zM77 106.5q5 -10.5 -3 -19.5t-9 5.5t-13 38.5l3 1q17 -15 22 -25.5zM188 141h28v78h-28v-78zM230 156q0 -11 1 -25l-15 -8v11h-66v-93q0 -11 12 -11h59q7 0 8.5 12.5t1.5 35.5h5q0 -11 2.5 -26.5
t9.5 -20.5q-6 -10 -12 -12t-12 -2h-68q-19 0 -19 21v166q0 14 -1 31l15 -9h62l8 11l15 -12l-6 -9v-60zM150 141h25v78h-25v-78z" />
  </g>

</svg>
