<?xml version="1.0" standalone="no"?>
<!DOCTYPE svg PUBLIC "-//W3C//DTD SVG 1.1//EN" "http://www.w3.org/Graphics/SVG/1.1/DTD/svg11.dtd" >
<svg xmlns="http://www.w3.org/2000/svg" xmlns:xlink="http://www.w3.org/1999/xlink" version="1.1" viewBox="0 -36 256 256">
  <g transform="matrix(1 0 0 -1 0 220)">
   <path fill="currentColor"
d="M145 233l-11 -6q16 -17 47 -32.5t65 -18.5v-5q-16 3 -19 -11q-19 4 -51 23t-46 41q-45 -49 -122 -67l-1 5q36 11 70 34t49 49zM191 17l-16 -8q1 32 1 43l-141 -9l-7 -6l-10 12l44 3v108v-1q-4 0 -13 -2l-9 10h136l14 12l19 -19h-19v-99l22 2l13 14l18 -19l-53 -4
q0 -35 1 -37zM76 131h100v29h-100v-29zM76 93h100v31h-100v-31zM76 53l100 6v27h-100v-33z" />
  </g>

</svg>
