<?xml version="1.0" standalone="no"?>
<!DOCTYPE svg PUBLIC "-//W3C//DTD SVG 1.1//EN" "http://www.w3.org/Graphics/SVG/1.1/DTD/svg11.dtd" >
<svg xmlns="http://www.w3.org/2000/svg" xmlns:xlink="http://www.w3.org/1999/xlink" version="1.1" viewBox="0 -200 999 1000">
  <g transform="matrix(1 0 0 -1 0 800)">
   <path fill="currentColor"
d="M408 698l-13 28q-6 -12 -10.5 -23t-18.5 -35l44 -34h89l33 40l55 -50l-31 -33v-263q-5 -8 -20 -16.5t-26 -16.5v46h-107v-106h70l36 41l59 -65h-165v-107h73l38 39l53 -61l-2 -3h-165v-62l-46 -19v646q-19 -38 -40 -67t-38 -46l-11 4q27 48 54 111t50.5 128t40 125.5
t22.5 102.5l63 -48l-21 -36l-12 -28q30 -15 55 -28t43.5 -25.5t28.5 -26t10 -29.5v-4q-2 -20 -10 -31.5t-16 -11.5q-9 0 -15 13t-17 33.5t-29.5 45.5t-52.5 50q-9 -21 -16 -38t-14 -33.5t-15 -34t-18 -39.5h110l26 30l42 -53h-132zM510 475h-107v-110h107v110zM403 591v-90
h108v108h-100zM675 512l-8 36h101l34 40l48 -61h-77v-171h58l37 44q18 -26 28 -41t12 -17q4 -5 6 -9h-141l2 -228q-4 -49 -17 -71.5t-30 -35.5q-6 21 -12.5 33t-15.5 19.5t-21 12l-28 10.5v6q22 -5 36 -5q17 0 28.5 9.5t14.5 38.5v211h-93l-26 -11l-22 34h141v171h-31z
M562 44q40 58 66 119.5t46 136.5l55 -39l-12 -15q-15 -27 -29 -53t-30.5 -51.5t-37.5 -52t-49 -53.5zM819 295q17 -21 35.5 -46t34 -50.5t25.5 -50t10 -44.5q0 -8 -3 -18t-7.5 -18.5t-10.5 -14t-13 -5.5q-5 0 -9 3q-3 2 -5 23t-8.5 54t-19.5 75t-37 86zM596 497
q14 32 29.5 67.5t27.5 77.5q24 81 36.5 171.5t22.5 187.5h1l59 -41l-17 -44q40 -147 84.5 -235.5t110.5 -126.5q-6 -2 -25 -18t-37 -39q-23 36 -42 75t-35.5 86.5t-31.5 106.5t-30 134q-9 -53 -21.5 -111t-30 -112.5t-40 -103.5t-51.5 -84zM346 1002l-37 -179
q-28 -151 -56 -280t-55 -247q-4 -27 -12 -84t-8 -162v-33q-5 -13 -11.5 -16.5t-13.5 -3.5q-3 0 -6 0.5t-5 0.5q-18 0 -22.5 8.5t-4.5 20.5q0 15 1 33.5t2.5 37.5t3 36.5t1.5 28.5q0 19 -2.5 34t-10 28.5t-20.5 28t-34 33.5q1 -1 8 -1h11q24 0 34 7t20 18q7 8 16 27t22 53
t29.5 85.5t37.5 123.5l99 402h13zM55 729q57 -27 86.5 -55t29.5 -60t-12.5 -46.5t-22.5 -14.5q-18 0 -22 25q-2 25 -14.5 64t-50.5 78zM129 955q61 -21 96.5 -46.5t38.5 -65.5v-3q0 -17 -10.5 -30.5t-19.5 -13.5q-17 0 -27 24q-8 38 -29.5 69t-51.5 57z" />
  </g>

</svg>
