<?xml version="1.0" standalone="no"?>
<!DOCTYPE svg PUBLIC "-//W3C//DTD SVG 1.1//EN" "http://www.w3.org/Graphics/SVG/1.1/DTD/svg11.dtd" >
<svg xmlns="http://www.w3.org/2000/svg" xmlns:xlink="http://www.w3.org/1999/xlink" version="1.1" viewBox="0 -205 1024 1024">
  <g transform="matrix(1 0 0 -1 0 819)">
   <path fill="currentColor"
d="M502 791q-5 -1 -6 2q-13 20 -23 36q-6 10 7 7q61 -6 68 -7h138q-1 6 0 10q-1 42 -13 75q-11 30 -35 67q-5 7 1 13q6 5 16 -5q50 -37 72 -70q15 -20 15 -36q-1 -21 -20 -46q-4 -4 -7 -8h126q12 0 16 3q6 4 13 13l24 35q8 9 15 0q29 -26 57 -54q11 -12 10 -19q-2 -8 -15 -9
h-398q-27 0 -61 -7zM586 743q36 -25 51 -37q11 -10 10 -14t-13 -5q-11 -2 -17 -6q-8 -5 -24 -35q-26 -45 -63 -94q-27 -37 -70 -80q-10 -10 -17 -3t3 17q46 57 83 141q37 82 38 110q3 16 19 6zM783 734q4 6 16 -1q90 -52 136 -101q30 -30 33 -58q3 -19 -10 -49
q-10 -24 -22 -24q-10 0 -13 19q-20 66 -54 112q-31 43 -85 89q-5 7 -1 13zM800 199q72 -55 160 -80q9 -2 19 -5q6 -2 5 -8q-2 -6 -6 -7q-17 -4 -35 -14q-20 -14 -29 -24q-6 -5 -13 1q-116 68 -168 123q-31 33 -53 67q-47 -58 -108 -104q-86 -64 -189 -103q-18 -7 -21 6
q-4 13 15 20q70 26 140 77q63 47 112 107q12 20 25 39q-4 7 -7 13q-47 91 -83 245q-1 10 6 13q9 3 13 -9q51 -149 93 -222q20 39 41 82q45 95 52 161q0 8 3 9q3 0 13 -4q38 -20 71 -42q10 -8 9 -12q0 -3 -6 -4q-36 -8 -45 -15q-5 -4 -12 -22q-50 -127 -95 -197
q41 -51 93 -91zM286 382q14 6 17 -4q4 -10 -11 -17q-88 -53 -133 -75q-39 -16 -51 -37q-5 -9 -9 -10q-4 0 -8 7q-15 24 -37 40q-14 9 -13 12q1 5 11 6q51 11 234 78zM316 941q7 1 11 5l14 21q6 9 15 2q25 -19 47 -41q8 -7 4 -13q-3 -5 -13 -6q-14 -2 -18 -6q-5 -5 -6 -11
l-45 -355h4q11 1 15 5l23 32q6 10 15 0q37 -32 59 -56q4 -7 -3 -10q-22 -8 -29 -15q-3 -3 -4 -13q-20 -219 -36 -315q-19 -79 -104 -112q-8 -3 -9 1q-5 24 -18 34q-16 13 -77 23q-15 2 -14 12q2 10 14 7q122 -11 137 7q14 12 21 34q12 39 21 142q12 124 19 193h-242
q-5 -9 -9 -15q-5 -6 -9 -2q-16 18 -44 31q-8 4 -1 10q16 13 25 25q43 180 36 273q-1 10 6 9q33 -12 70 -30q10 -4 10 -11q1 -6 -11 -10q-15 -6 -22 -22q-3 -8 -9 -44q-14 -89 -23 -135q-7 -26 -10 -48h149l47 373h-166q-42 -1 -73 -7q-9 -3 -10 6q-5 18 -20 31q-8 7 -4 11
q4 3 11 -1q38 -9 84 -9h172z" />
  </g>

</svg>
