<?xml version="1.0" standalone="no"?>
<!DOCTYPE svg PUBLIC "-//W3C//DTD SVG 1.1//EN" "http://www.w3.org/Graphics/SVG/1.1/DTD/svg11.dtd" >
<svg xmlns="http://www.w3.org/2000/svg" xmlns:xlink="http://www.w3.org/1999/xlink" version="1.1" viewBox="0 -205 1024 1024">
  <g transform="matrix(1 0 0 -1 0 819)">
   <path fill="currentColor"
d="M686 624l36 41q7 7 14 0q26 -26 44 -48q11 -14 4 -24q-5 -6 -18 -7h-145q-42 -1 -73 -7q-8 -3 -11 6q-4 18 -19 30q-7 7 -4 11q4 3 11 -1q38 -8 84 -8h65q6 0 12 7zM344 527q7 11 27 29q179 191 240 425q2 11 11 8q42 -16 75 -32q8 -5 7 -9q-2 -7 -17 -8q-9 0 -10 -3
q52 -124 100 -185q106 -139 205 -160q5 -2 4 -9q-4 -7 -17 -6q-17 2 -35 -8q-16 -11 -23 -27q-3 -6 -10 1q-102 92 -151 174q-45 74 -90 203q-8 -11 -18 -33q-124 -238 -286 -373q-7 -7 -12 -4v-65q0 -125 4 -210q0 -9 -7 -10l-44 -18q-9 -2 -8 14q2 40 3 76
q-42 -12 -84 -30q-52 -22 -137 -77q-7 -6 -10 3q-6 19 -19 34q-7 7 0 10q24 20 27 27q3 8 3 21v439q-1 39 -4 70q-1 16 9 13q54 -17 76 -29q9 -5 0 -11q-22 -16 -26 -20q-7 -7 -7 -23v-446q29 10 60 17v597q-1 39 -4 70q-1 16 9 13q54 -17 76 -29q9 -5 0 -11
q-22 -16 -26 -20q-7 -7 -7 -23v-585q31 9 64 13q3 71 4 125v219q-1 80 -5 128q-1 18 9 14q56 -18 77 -30q11 -8 1 -12q-31 -17 -32 -21q-2 -4 -2 -75v-141zM529 138q158 26 288 26q-24 54 -78 121q-3 7 1 13q6 5 16 -4q144 -116 141 -182q0 -20 -18 -47q-14 -21 -26 -20
q-10 2 -10 21q-8 43 -18 77q-259 -40 -367 -82q-11 -5 -14 2q-3 6 -4 10q-28 51 -16 51q86 30 174 298h-113q-42 -1 -73 -7q-8 -3 -11 6q-4 18 -19 30q-7 7 -4 11q4 3 11 -1q38 -8 84 -8h349q6 0 12 7l36 41q7 7 14 0q26 -26 44 -48q11 -14 4 -24q-5 -6 -18 -7h-282
q27 -13 52 -28q8 -4 7 -10q-2 -5 -9 -5q-37 3 -58 -48q-45 -90 -109 -180q-6 -11 -5 -12q1 -4 19 -1z" />
  </g>

</svg>
