<?xml version="1.0" standalone="no"?>
<!DOCTYPE svg PUBLIC "-//W3C//DTD SVG 1.1//EN" "http://www.w3.org/Graphics/SVG/1.1/DTD/svg11.dtd" >
<svg xmlns="http://www.w3.org/2000/svg" xmlns:xlink="http://www.w3.org/1999/xlink" version="1.1" viewBox="0 0 2048 2048">
  <g transform="matrix(1 0 0 -1 0 2048)">
   <path fill="currentColor"
d="M478 592l-40 34l-70 58q-42 34 -87 65l-44 30l17 27l68 -36q26 -14 82 -50l76 -48l13 -9q3 20 5 35t5 44q3 28 5 81q3 53 3 87v47h-229v-38q0 -13 -10 -21q-11 -8 -33 -7q-25 0 -37.5 7.5t-17.5 17.5q-6 10 -6 22q-1 12 2 38l4 65q4 55 4 62v380q0 26 -2 55l-5 61l-3 51
l112 -83h221v233q0 48 -3 94.5t-3 52.5l-2 13l109 -24q50 -12 66 -21q17 -9 18 -23t-10 -24q-12 -10 -39 -19l-40 -14v-268h195l69 77l83 -53q21 -14 30 -25t10 -25q0 -14 -11 -26l-31 -19l-35 -20v-434l51 -32q10 -7 16 -16q7 -10 7 -18q-1 -9 -7 -14t-11 -5h-366v-47
q-3 -57 -5 -102t-6 -88.5t-12 -78.5l-9 -38l19 -13q13 -9 91 -77t113 -102q36 -34 72 -85q35 -50 33 -94q-2 -26 -15 -42q-13 -15 -40 -18q-26 -4 -58 37q-8 9 -29 47t-53 80q-31 42 -70 88q-38 47 -72 82l-16 16l-10 -26q-5 -12 -21 -49t-43 -73q-28 -37 -66 -82
q-39 -44 -80 -78q-40 -33 -90 -60q-49 -28 -105 -53l-47 -21l-13 35l63 35q35 20 74 47t78 65q38 38 70 82t64 100q32 57 45 112zM511 1510h-229v-496h229v496zM607 1510v-496h215v496h-215zM1404 1199h-29q-28 0 -59 -3q-30 -2 -41 -3t-25 -2l-24 -3l-39 86q26 -5 47 -8
q20 -3 40 -5q19 -2 50 -3q32 -2 51 -2h33q2 25 4 54q2 31 3 99v110q0 78 -2 105l-1 14l116 -16q14 -2 36 -10q23 -8 29 -20t-4 -24q-10 -13 -40 -24l-38 -15q-2 -57 -5 -112q-2 -56 -6 -129l-2 -32h56l81 81l114 -86q8 -7 13 -15q6 -7 2 -19q-4 -11 -12 -15q-7 -3 -14 -3
h-244q-1 -16 -2 -28q0 -12 -7 -81l-3 -29q5 -7 8 -10l17 -18q11 -13 39 -49l56 -74q28 -39 56 -82q28 -44 44 -76q17 -31 32 -68q16 -36 24 -68q9 -32 8 -64q0 -32 -16 -49q-15 -17 -34 -15q-20 1 -30 20q-9 19 -14 41q-4 22 -18 73q-14 52 -22 74q-7 23 -29 73t-39 86
q-18 36 -35 65l-31 52l-23 36q-3 -15 -3 -22l-3 -24q-9 -63 -29 -138q-20 -74 -44 -132q-25 -58 -61 -124q-36 -67 -62 -98l-49 -60l-27 23l39 66q19 32 46 98q28 66 46 119q18 54 34 128q16 75 22 120q5 45 11 120l5 63zM1174 173v-63q0 -22 -7.5 -33.5t-20.5 -17.5
q-14 -6 -41 -3q-13 1 -23 5t-16 16q-5 12 -4 29q0 11 4 46t8 103q3 68 4 105l1 1333q0 18 -5 65q-5 46 -6 61l-4 45l125 -79h578l68 76l84 -54q22 -15 31 -25q9 -11 9 -24q-1 -15 -10 -25t-32 -20l-36 -16l-1 -1337q-1 -16 3 -100t9 -117q4 -33 3 -46q-2 -10 -6 -19t-13 -16
q-10 -6 -30 -6q-22 -1 -34 4q-13 4 -21 14q-8 9 -8 23l-1 76h-608zM1174 231h608v1498h-608v-1498z" />
  </g>

</svg>
