<?xml version="1.0" standalone="no"?>
<!DOCTYPE svg PUBLIC "-//W3C//DTD SVG 1.1//EN" "http://www.w3.org/Graphics/SVG/1.1/DTD/svg11.dtd" >
<svg xmlns="http://www.w3.org/2000/svg" xmlns:xlink="http://www.w3.org/1999/xlink" version="1.1" viewBox="0 -205 1024 1024">
  <g transform="matrix(1 0 0 -1 0 819)">
   <path fill="currentColor"
d="M512 878l62 -44h242l34 48l66 -48q3 -4 4 -8q1 -6 -34 -32v-430l4 -94q0 -11 -18 -22q-15 -10 -38 -14v56h-270v-34q0 -16 -20 -28q-18 -12 -36 -14l4 114v550v0v0zM564 318h270v232h-270v-232v0v0zM564 578h270v228h-270v-228v0v0zM398 85h496l38 54l66 -60q3 -3 4 -10
q0 -12 -12 -12h-508q-18 1 -66 -8l-18 36v0v0zM138 644h214l34 46l56 -56q6 -12 -2 -18h-160v-144h94l36 44l52 -52q15 -12 0 -20h-182v-280l178 36l6 -20q-133 -36 -200 -53q-66 -18 -110 -36q-45 -17 -68 -40l-44 68l186 35v290h-96q-21 0 -56 -8l-16 36h168v144h-50
l-20 -6l-20 34v0v0zM84 380l12 10q54 -47 72 -76t24 -58q3 -27 -8 -42q-12 -13 -30 -10q-18 2 -20 26q0 21 -8 58q-6 34 -42 92v0v0zM304 220q51 104 82 190l66 -34q4 -9 -4 -12q-7 -3 -16 -6q-10 -3 -40 -44q-28 -39 -74 -104l-14 10v0v0zM24 546q66 95 118 188
q51 90 100 214l74 -36q3 -6 -2 -12q-4 -3 -16 -6q-13 -4 -22 -16q66 -27 114 -54q44 -28 56 -52q12 -23 4 -40q-9 -15 -26 -18q-16 -2 -32 24q-15 27 -48 60q-30 32 -80 64q-36 -73 -98 -166q-61 -94 -130 -160l-12 10v0v0z" />
  </g>

</svg>
