<?xml version="1.0" standalone="no"?>
<!DOCTYPE svg PUBLIC "-//W3C//DTD SVG 1.1//EN" "http://www.w3.org/Graphics/SVG/1.1/DTD/svg11.dtd" >
<svg xmlns="http://www.w3.org/2000/svg" xmlns:xlink="http://www.w3.org/1999/xlink" version="1.1" viewBox="0 -36 256 256">
  <g transform="matrix(1 0 0 -1 0 220)">
   <path fill="currentColor"
d="M47 246q29 -10 33.5 -16.5t1 -15.5t-10 2t-26.5 27zM26 217q33 -13 34.5 -20t-2.5 -12.5t-10 4.5t-24 25zM55.5 164q7.5 5 37.5 54l4 -2q-26 -48 -29.5 -54.5t-4.5 -16t-0.5 -21.5t-10.5 -6t-6.5 15t4 15t-22.5 10l1 3q20 -2 27.5 3zM218 197l-15 -6v7h-78q0 -27 -11 -45
t-38 -32l-2 3q20 15 28.5 31t9.5 43t-3 45l16 -8h76l7 10l16 -11l-7 -6q0 -21 1 -31zM125 205h78v23h-78v-23zM208 172q-31 -11 -59 -18v-7q0 -12 15 -14h40q9 1 11 8.5t2 19.5h5q1 -10 2.5 -18.5t10.5 -9.5q-7 -11 -23 -11h-60q-16 5 -17 17v30q0 11 -1 25l23 -7l-8 -7v-20
q40 12 58 30l15 -17zM98 99.5q4 -6.5 -2.5 -15t-10 2t-22.5 30.5l2 3q29 -14 33 -20.5zM180.5 97q-7.5 -7 -17.5 -17h49l13 13l17 -20h-97q41 -39 101 -41v-4q-17 -3 -19 -13q-24 8 -47 21.5t-42 36.5h-4v-35q0 -9 1 -26l-15 -4q1 23 1 57q-21 -18 -45.5 -31t-60.5 -21l-2 3
q28 9 54.5 24.5t41.5 32.5h-57q-17 0 -26 -3l-10 10h105q0 30 -1 46l21 -11l-7 -7v-28h21q20 23 26 39l18 -13q-11 -2 -18.5 -9z" />
  </g>

</svg>
