<?xml version="1.0" standalone="no"?>
<!DOCTYPE svg PUBLIC "-//W3C//DTD SVG 1.1//EN" "http://www.w3.org/Graphics/SVG/1.1/DTD/svg11.dtd" >
<svg xmlns="http://www.w3.org/2000/svg" xmlns:xlink="http://www.w3.org/1999/xlink" version="1.1" viewBox="0 -36 256 256">
  <g transform="matrix(1 0 0 -1 0 220)">
   <path fill="currentColor"
d="M96 191l14 -20h-38v-52l31 13l2 -3l-33 -22v-47q0 -24 1 -47l-15 -6q1 23 1 45v47q-33 -20 -39 -27l-11 20q21 6 50 20v59h-23q-12 -34 -24 -51l-3 1q18 43 21 99l20 -12q-7 -7 -13 -30h22q0 35 -1 70l24 -10l-10 -8v-52h12zM172.5 223.5q-43.5 -5.5 -68.5 -7.5v5
q40 5 68.5 11.5t40.5 13.5l12 -15q-9 -2 -52.5 -7.5zM133 196q5 -6 -0.5 -15t-8.5 2t-14 26l2 2q16 -9 21 -15zM149 75q15 -22 13.5 -29t-7.5 -10t-5.5 10.5t-4.5 26.5zM208 221l16 -11q-6 -3 -36 -37l-3 2q19 30 23 46zM98.5 56.5q8.5 19.5 12 49t1.5 75.5l13 -7h72l5 8
l13 -9l-7 -7l-4 -26h3l7 9l12 -13l-7 -4l-3 -24h9l6 9l14 -11l-6 -7q-5 -69 -11 -77.5t-18 -14.5q-4 15 -24 19v5q25 -3 28.5 -1.5t6 9.5t5.5 62h-104q-1 -17 -11.5 -41.5t-33.5 -48.5l-3 4q16 22 24.5 41.5zM196 167h-71v-27h67zM123 108h81l3 25h-82q-1 -9 -2 -25z
M128.5 43q-3.5 -9 -8 -10t-7.5 3.5t4.5 13t10.5 24.5h4q0 -22 -3.5 -31zM148 216q31 -16 24 -28t-10.5 -0.5t-16.5 26.5zM174 80q18 -19 16 -28t-7.5 -11t-5.5 8.5t-6 28.5zM215.5 59q-0.5 -9 -6 -12.5t-6.5 8.5t-8 28l3 2q18 -17 17.5 -26z" />
  </g>

</svg>
