<?xml version="1.0" standalone="no"?>
<!DOCTYPE svg PUBLIC "-//W3C//DTD SVG 1.1//EN" "http://www.w3.org/Graphics/SVG/1.1/DTD/svg11.dtd" >
<svg xmlns="http://www.w3.org/2000/svg" xmlns:xlink="http://www.w3.org/1999/xlink" version="1.1" viewBox="0 -205 1024 1024">
  <g transform="matrix(1 0 0 -1 0 819)">
   <path fill="currentColor"
d="M474 774l48 -26h308l24 36l58 -36q6 -6 6 -8q0 -6 -26 -24v-106l4 -54q1 -13 -10 -26q-10 -13 -46 -16v20h-314v0q-1 -8 -10 -16q-13 -10 -46 -10l4 84v182v0v0zM526 560h314v68h-314v-68v0v0zM526 654h314v70h-314v-70v0v0zM546 444h346l32 36q53 -45 56 -50
q1 -7 -4 -10q-3 -3 -26 -18q-6 -195 -8 -248q-3 -52 -26 -85q-23 -32 -88 -52q-6 27 -24 38q-18 12 -98 42l4 16q86 -16 116 -20q30 -2 46 10q14 12 20 57q4 48 8 258h-372q-23 -34 -58 -74q-35 -38 -76 -76l-12 10q50 65 86 124q34 57 62 114q59 -22 62 -28q0 -4 -2 -8
q-1 -2 -14 -4q-12 -3 -30 -32v0v0zM670 404q62 -28 64 -34t-4 -8t-18 -4t-32 -28q44 -13 80 -22q34 -10 56 -26q21 -15 18 -36q0 -21 -18 -26q-18 -7 -32 16q-15 21 -42 40q-25 17 -76 38q-45 -52 -122 -116l-12 10q62 73 86 110q24 35 52 86v0v0zM466 322q62 -16 68 -20
t6 -8q0 -3 -26 -18v-96h224l30 38q54 -45 58 -50q4 -7 2 -10q-3 -3 -20 -2h-290l-22 -29l-60 39l30 24v132v0v0zM374 876h188v106l76 -28q6 -3 6 -8q-3 -6 -32 -20v-50h138v98l72 -26q5 -1 8 -10q0 -4 -30 -20v-42h86l36 44l58 -54q3 -4 4 -4q0 -12 -12 -12h-172v-20l4 -24
q0 -11 -18 -22q-16 -10 -40 -10l4 54v22h-138v-16l4 -36q-4 -15 -22 -24q-15 -9 -36 -8l4 56v28h-104q-19 0 -68 -8l-16 34v0v0zM200 966l76 -34q16 -6 -4 -18l-26 -14v-628l76 18v460l76 -30q3 -2 4 -10q0 -4 -36 -20v-396l4 -76q0 -12 -14 -24q-13 -13 -34 -14v88
q-129 -38 -168 -58q-37 -21 -58 -42l-44 50q26 15 28 34v506l72 -32q7 -3 8 -8q-3 -5 -36 -22v-456l76 22v704v0v0z" />
  </g>

</svg>
