<?xml version="1.0" standalone="no"?>
<!DOCTYPE svg PUBLIC "-//W3C//DTD SVG 1.1//EN" "http://www.w3.org/Graphics/SVG/1.1/DTD/svg11.dtd" >
<svg xmlns="http://www.w3.org/2000/svg" xmlns:xlink="http://www.w3.org/1999/xlink" version="1.1" viewBox="0 -36 256 256">
  <g transform="matrix(1 0 0 -1 0 220)">
   <path fill="currentColor"
d="M60 221l15 -10h71q-1 7 -4.5 16t-8.5 15l2 2q15 -9 21.5 -16.5t-3.5 -16.5h55l13 12l18 -19h-164q0 -45 -0.5 -76t-12.5 -61.5t-41 -57.5l-4 4q38 43 44 112q-28 -20 -37 -34l-13 15q17 5 50 24q0 67 -1 91zM43.5 172.5q5.5 -8.5 -2 -17t-10 6.5t-11.5 29l2 3
q16 -13 21.5 -21.5zM131 188q-8 -4 -15 -13h25l11 8l15 -15h-41q14 -4 16.5 -9.5t-3 -12t-8.5 4t-11 17.5h-8q-15 -18 -33 -28l-2 3q25 25 37 56zM203 190q-7 -4 -16 -15h25l12 9l15 -16h-41q22 -9 23 -15.5t-4 -11t-10 7.5t-15 19h-8q-10 -13 -23 -22l-2 2q18 24 27 53z
M124 78h66v20h-66v-20zM124 27h72v22h-72v-22zM101 129h51q0 11 -9 19l1 2q20 -6 22.5 -11t-3.5 -10h52l11 9l14 -14q-10 -1 -31 -19l-2 3l9 14h-115q1 -7 -3.5 -11.5t-14.5 -4.5t0 9.5t12 23.5h5zM210 16l-14 -5v9h-72v-7l-14 -6q1 17 1 51t-1 52l15 -5h63l8 8l13 -13
l-6 -5q0 -17 1 -23l-14 -5v4h-66v-15h71l7 8l13 -12l-6 -6q0 -17 1 -30z" />
  </g>

</svg>
