<?xml version="1.0" standalone="no"?>
<!DOCTYPE svg PUBLIC "-//W3C//DTD SVG 1.1//EN" "http://www.w3.org/Graphics/SVG/1.1/DTD/svg11.dtd" >
<svg xmlns="http://www.w3.org/2000/svg" xmlns:xlink="http://www.w3.org/1999/xlink" version="1.1" viewBox="0 -36 256 256">
  <g transform="matrix(1 0 0 -1 0 220)">
   <path fill="currentColor"
d="M24 43l-11 15q5 5 5 13q0 100 -1 121l22 -11l-8 -7v-111l19 4q0 157 -1 174l21 -10l-7 -7v-155l20 3q0 99 -1 119l21 -11l-7 -7v-66q0 -24 1 -52l-14 -8v20q-53 -15 -59 -24zM163 231q-11 -6 -17 -15t-22 -28l-3 1q18 33 23 54zM141 190l11 10l17 -17h-41q-11 2 -20 -1
l-8 8h41zM127.5 53q-10.5 -26 -37.5 -44l-2 3q21 21 29 45.5t9 56.5q-12 0 -21 -2l-8 9h29v62h13v-62l14 11l15 -18h-29q-1 -35 -11.5 -61zM227 201l16 -18h-32v-61h8l11 13l16 -20h-35v-70t1 -24l-15 -9q1 23 1 103q-15 0 -23 -3l-9 10h32v61q-13 0 -22 -3l-8 10h47z
M231 232q-8 -2 -17 -14t-23 -29l-4 1q15 26 24 53z" />
  </g>

</svg>
