<?xml version="1.0" standalone="no"?>
<!DOCTYPE svg PUBLIC "-//W3C//DTD SVG 1.1//EN" "http://www.w3.org/Graphics/SVG/1.1/DTD/svg11.dtd" >
<svg xmlns="http://www.w3.org/2000/svg" xmlns:xlink="http://www.w3.org/1999/xlink" version="1.1" viewBox="0 -36 256 256">
  <g transform="matrix(1 0 0 -1 0 220)">
   <path fill="currentColor"
d="M50 144h-8q-11 0 -20 -2l-9 9h49v43h-10q-10 -1 -20 -3l-9 10h39v11q0 19 -1 35l22 -12l-8 -7v-27h17l9 9l14 -16h-40v-43h23l10 11l14 -18h-32v-113q-1 -6 -4.5 -12t-14.5 -10q0 11 -21 19v4q15 -3 21 -3.5t6 12.5v103h-15q-1 -67 -15 -91t-34 -43l-2 3q19 23 28.5 46.5
t10.5 84.5zM118 80.5q3 -9.5 -2.5 -17t-8.5 8t-15 43.5l3 2q20 -27 23 -36.5zM29 120l17 -10q-7 -6 -14 -21t-20 -37l-3 2q16 38 20 66zM147 158h63v63h-63v-63zM111.5 43q8.5 16 14 40.5t6.5 43.5l19 -11l-6 -6q-5 -18 -8 -32q14 -22 35 -37v110h-25v-7l-14 -6q1 24 1 50.5
t-1 47.5l13 -8h64l7 10l14 -12l-7 -8q0 -50 1 -70l-15 -7v10h-25v-43h30l11 12l15 -19h-56v-64q22 -6 63 -3v-4q-16 -4 -17 -17q-45 2 -64 17.5t-32 40.5q-18 -41 -42 -60l-2 3q12 13 20.5 29z" />
  </g>

</svg>
