<?xml version="1.0" standalone="no"?>
<!DOCTYPE svg PUBLIC "-//W3C//DTD SVG 1.1//EN" "http://www.w3.org/Graphics/SVG/1.1/DTD/svg11.dtd" >
<svg xmlns="http://www.w3.org/2000/svg" xmlns:xlink="http://www.w3.org/1999/xlink" version="1.1" viewBox="0 -205 1048 1024">
  <g transform="matrix(1 0 0 -1 0 819)">
   <path fill="currentColor"
d="M929 441q15 -15 15 -22q0 -11 -29 -14v-260q0 -51 -1 -53.5t-22 -9.5q-13 -5 -16 -5q-6 0 -6 57h-325v-55q-1 -6 -22 -10q-12 -4 -16 -4q-6 0 -7 5t0 22q1 41 1 56v285l-3 43l42 -25h321l15 19q10 13 11 13q2 0 16 -13zM443 371l-316 -129q1 -32 -12 -32q-11 0 -24 22
l-22 37l152 48v329h-147v21h147v253l-4 56l50 -14q30 -9 30 -18t-32 -21v-256h74l28 37q12 15 13 15q3 0 19 -16l38 -38l-6 -19h-166v-316l175 54zM870 300v129h-325v-129h325zM870 154v124h-325v-124h325zM996 587l-7 -21h-557v20h203v324l-4 49l51 -11q23 -5 23 -17
q0 -11 -26 -20v-138h113l27 27q12 19 13 19q4 0 22 -17l43 -29l-7 -20h-211v-167h210l27 35q12 19 14 19q5 0 24 -19z" />
  </g>

</svg>
