<?xml version="1.0" standalone="no"?>
<!DOCTYPE svg PUBLIC "-//W3C//DTD SVG 1.1//EN" "http://www.w3.org/Graphics/SVG/1.1/DTD/svg11.dtd" >
<svg xmlns="http://www.w3.org/2000/svg" xmlns:xlink="http://www.w3.org/1999/xlink" version="1.1" viewBox="0 -154 1024 1024">
  <g transform="matrix(1 0 0 -1 0 870)">
   <path fill="currentColor"
d="M152 979l48 -37h621l35 41l50 -49q14 -12 -6 -17l-18 -9v-90l4 -56q5 -42 -48 -44v44h-624v-80q4 -172 -23 -344q-27 -171 -149 -303l-10 10q98 140 120 302q23 163 18 363v208q-6 24 -27 51zM838 782v140h-624v-140h624zM216 563h336v89q-91 -15 -259 -19l-4 16
q137 14 253 32t173 36q13 7 19 27l8 2l63 -58q18 -18 0 -20q-35 7 -77 4q-56 -7 -74 -10q-17 -2 -58 -6v-93h232l28 37l65 -47q15 -10 -6 -10h-245q49 -43 108 -88q59 -44 98 -63q25 -13 68 -18v-17q-43 -1 -75 -15q-121 63 -228 201h-45v-73l3 -83q0 -21 -14 -30
q-13 -9 -39 -14q4 50 6 146v54h-9q-41 -57 -126 -123q-84 -66 -176 -102l-4 14q157 92 246 211h-187q-28 0 -46 -13zM796 310l87 -36q14 -5 6 -11q-21 -8 -30 -21v-58l4 -100q-4 -40 -46 -45v46h-474l-31 -44l-54 42q26 24 30 44v126q-2 16 -23 37l7 9l83 -36q16 -5 7 -12
q-20 -5 -32 -18v-128h222v180q2 16 -27 42l8 11l88 -34q14 -5 6 -11q-17 -5 -29 -18v-170h219v147q2 16 -30 46z" />
  </g>

</svg>
