<?xml version="1.0" standalone="no"?>
<!DOCTYPE svg PUBLIC "-//W3C//DTD SVG 1.1//EN" "http://www.w3.org/Graphics/SVG/1.1/DTD/svg11.dtd" >
<svg xmlns="http://www.w3.org/2000/svg" xmlns:xlink="http://www.w3.org/1999/xlink" version="1.1" viewBox="0 -144 1024 1024">
  <g transform="matrix(1 0 0 -1 0 880)">
   <path fill="currentColor"
d="M711 387l64 -10l16 -11l-16 -10v-120h78l54 54l64 -54v-22h-196v-157l-64 -32v189h-273v22h87l7 10l17 36l16 32l14 29l14 33l5 10l53 -38l8 -18h-24l-49 -52l-28 -27l-15 -14l-2 -1h170v151zM47 57v6l-3 12l-2 18l-2 12l-2 11v2l126 17l89 14l7 1l56 128l9 22l7 21
l11 34l4 13l58 -31l11 -16l-21 -3l-22 -41l-27 -43l-31 -45l-18 -23l-9 -11l106 19l99 16l3 -9l-95 -35l-93 -29l-89 -24l-87 -21l-42 -9l-20 -4l-9 -19l-13 15zM38 118l10 -63l-20 61zM142 207l-2 14l-3 15l-4 15l-5 15l-7 16l-8 16l-19 33l-12 16l6 7l33 -25l16 -13
l14 -14l12 -14l12 -16l10 -16l8 -18l8 -17l6 -19l-6 -24l-21 -13l-24 6l-13 21zM562 403v-16l-65 -32v375l65 -32h37l8 10l28 52l25 53h-1l6 9l51 -40l7 -18l-24 1l-12 -11l-21 -19l-36 -27l-14 -9l-1 -1h238l32 27l59 -48l-27 -22v-284l-64 -33v65h-291zM81 651l65 -32h209
l32 26l60 -48l-27 -21v-165l-65 -32v32h-209l-65 -32v272zM675 533h-113v-109h113v109zM853 533h-113v-109h113v109zM355 597h-209v-164h209v164zM675 677h-113v-122h113v122zM853 677h-113v-122h113v122zM404 791l64 -54v-22h-430v22h312zM613 999l65 -11l16 -11l-16 -10
v-53h166l54 53l65 -53v-22h-285v-59l-65 -33v92h-236v-59l-65 -33v92h-285v22h285v85l65 -11l16 -11l-16 -10v-53h236v85z" />
  </g>

</svg>
