<?xml version="1.0" standalone="no"?>
<!DOCTYPE svg PUBLIC "-//W3C//DTD SVG 1.1//EN" "http://www.w3.org/Graphics/SVG/1.1/DTD/svg11.dtd" >
<svg xmlns="http://www.w3.org/2000/svg" xmlns:xlink="http://www.w3.org/1999/xlink" version="1.1" viewBox="0 -205 1024 1024">
  <g transform="matrix(1 0 0 -1 0 819)">
   <path fill="currentColor"
d="M624 724h130l32 42l58 -44q8 -6 8 -12q0 -5 -32 -28v-542q0 -28 6 -41q7 -10 26 -8h54q15 -1 24 18t12 53q3 33 10 124h22q-1 -83 2 -118q3 -33 30 -51q-12 -42 -38 -58q-24 -16 -48 -14h-88q-26 -1 -46 16q-19 18 -16 60v575h-148q0 -171 -26 -296q-26 -126 -100 -222
q-72 -95 -200 -165l-10 14q116 87 176 173q59 86 82 200q20 115 26 296h-38q-40 -1 -58 -14l-30 42h124v262q99 -37 100 -46q0 -7 -6 -8q-4 0 -38 -18v-190v0v0zM38 540q81 129 136 252q54 122 64 170l72 -30q4 -6 0 -12q-5 -3 -16 -6q-9 -4 -20 -22q72 -37 102 -56
q27 -18 40 -42q10 -24 2 -42q-10 -19 -28 -16q-18 2 -26 26q-10 24 -28 48q-19 24 -74 64q-39 -79 -80 -154q-39 -75 -128 -192l-16 12v0v0zM156 656h182l38 40l52 -50q6 -12 -2 -18h-148v-126h70l36 38l48 -46q15 -12 0 -20h-154v-298l160 42l4 -20q-114 -37 -180 -58
q-63 -17 -104 -37q-41 -17 -64 -40l-42 60l176 43v308h-94q-21 0 -56 -8l-16 36h166v126h-32l-20 -6l-20 34v0v0zM84 396l12 10q50 -46 70 -76t22 -60q1 -29 -16 -40q-16 -10 -28 -4q-13 6 -14 28q0 22 -6 56q-7 34 -40 86v0v0zM292 242q56 94 98 176l58 -38q3 -9 -2 -12
q-7 -3 -22 -8q-12 -3 -42 -38q-27 -33 -78 -90l-12 10v0v0z" />
  </g>

</svg>
