<?xml version="1.0" standalone="no"?>
<!DOCTYPE svg PUBLIC "-//W3C//DTD SVG 1.1//EN" "http://www.w3.org/Graphics/SVG/1.1/DTD/svg11.dtd" >
<svg xmlns="http://www.w3.org/2000/svg" xmlns:xlink="http://www.w3.org/1999/xlink" version="1.1" viewBox="0 -205 1024 1024">
  <g transform="matrix(1 0 0 -1 0 819)">
   <path fill="currentColor"
d="M432 608q72 -23 102 -46q31 -23 26 -52q-5 -28 -28 -28q-24 0 -30 22q-7 21 -26 46q-17 24 -52 46l8 12v0v0zM890 470l38 50l62 -56q3 -7 4 -10q0 -10 -12 -10h-570q-7 -54 -20 -104h366l34 36l64 -42q6 -9 4 -12q0 -3 -38 -26q-9 -112 -32 -165q-21 -54 -54 -78
q-33 -22 -90 -32q-4 39 -34 54q-29 14 -88 34l6 18q63 -15 108 -22q45 -6 66 6q22 10 38 47q17 35 28 158h-384q-18 -63 -54 -116t-102 -103q-66 -47 -180 -80l-8 16q100 38 164 90q63 49 102 127q38 76 50 194h-226q-21 0 -68 -8l-16 34h842v0v0zM206 974l56 -44h500l38 40
l58 -44q6 -7 6 -10q1 -6 -28 -24v-210l4 -84q-1 -12 -14 -24q-13 -9 -44 -12v52h-522v-20q0 -12 -18 -26q-19 -13 -40 -16l4 94v328v0v0zM260 640h522v118h-522v-118v0v0zM260 784h522v120h-522v-120v0v0z" />
  </g>

</svg>
