<?xml version="1.0" standalone="no"?>
<!DOCTYPE svg PUBLIC "-//W3C//DTD SVG 1.1//EN" "http://www.w3.org/Graphics/SVG/1.1/DTD/svg11.dtd" >
<svg xmlns="http://www.w3.org/2000/svg" xmlns:xlink="http://www.w3.org/1999/xlink" version="1.1" viewBox="0 -205 1024 1024">
  <g transform="matrix(1 0 0 -1 0 819)">
   <path fill="currentColor"
d="M472 966l62 -42h284l30 40l60 -46q6 -4 6 -8q0 -5 -30 -28v-194l4 -60q0 -12 -14 -24q-12 -9 -42 -18v52h-308v-34q0 -7 -8 -16q-15 -13 -48 -14l4 114v278v0v0zM524 662h308v108h-308v-108v0v0zM524 794h308v106h-308v-106v0v0zM572 512h320l30 36q65 -48 62 -54l-6 -6
q-1 -4 -28 -22v-160q4 -165 -28 -213q-30 -47 -98 -68q-12 26 -36 40q-22 13 -92 34l4 16q83 -15 118 -18q32 -1 62 22q27 21 24 191v176h-354q-31 -30 -70 -66l-78 -70l-10 12q45 53 100 122q53 66 92 132q70 -34 68 -40q0 -7 -6 -8q-4 -1 -20 -4q-15 -4 -54 -52v0v0z
M700 476q63 -27 66 -32q4 -5 0 -10q-4 -3 -20 -6q-15 -3 -36 -38q36 -15 76 -30q37 -13 56 -34q18 -19 12 -40q-4 -21 -22 -24q-19 -1 -28 20q-9 20 -36 44q-26 24 -70 48q-54 -66 -126 -138l-14 10q59 75 88 124q30 48 54 106v0v0zM474 398q68 -24 74 -30q6 -3 4 -8
q0 -6 -30 -20v-148h256l34 44q54 -45 58 -54q4 -7 2 -10q-3 -4 -14 -4h-328l-24 -33l-64 47l32 24v192v0v0zM200 974l78 -34q17 -6 -4 -18l-26 -14v-632l84 18v468l78 -30q3 -2 4 -10q0 -4 -36 -20v-404l4 -76q0 -12 -14 -24q-15 -13 -36 -14v88q-139 -38 -182 -58
q-42 -21 -62 -42l-44 50q26 15 28 34v514l74 -32q7 -3 8 -8q-3 -5 -36 -22v-464l82 22v708v0v0z" />
  </g>

</svg>
