<?xml version="1.0" standalone="no"?>
<!DOCTYPE svg PUBLIC "-//W3C//DTD SVG 1.1//EN" "http://www.w3.org/Graphics/SVG/1.1/DTD/svg11.dtd" >
<svg xmlns="http://www.w3.org/2000/svg" xmlns:xlink="http://www.w3.org/1999/xlink" version="1.1" viewBox="0 -205 1024 1024">
  <g transform="matrix(1 0 0 -1 0 819)">
   <path fill="currentColor"
d="M28 75q80 86 148 193l50 -36q9 -7 -2 -16q-12 -6 -24 -8q-10 -3 -46 -42q-36 -38 -116 -103l-10 12v0v0zM368 252l8 12q65 -30 104 -56q38 -24 46 -48q6 -22 -2 -39q-7 -15 -26 -16q-19 0 -26 24q-7 20 -26 49q-18 26 -78 74v0v0zM698 970q81 -23 84 -28q2 -5 2 -10
q0 -4 -36 -22v-60h128l34 44l60 -56q2 -3 2 -8q0 -4 -8 -4h-216v-118h98l34 36l48 -40q7 -9 6 -14q0 -2 -24 -22v-170l4 -100q0 -13 -18 -22q-16 -9 -34 -12v34h-108v-120h142l30 46l62 -52q3 -4 4 -8q0 -12 -14 -12h-224v-98l4 -97q-1 -11 -22 -26q-22 -12 -38 -12l4 125
v108h-154q-21 0 -54 -8l-20 34h228v120h-104v-16q0 -12 -18 -20q-15 -8 -36 -10l4 120v270l54 -34h96v262v0v0zM598 424h264v120h-264v-120v0v0zM598 570h264v112h-264v-112v0v0zM74 870h196v102l86 -30q3 -4 4 -8q1 0 -4 -6l-34 -16v-42h94l40 50l56 -56q3 -3 4 -8
q0 -12 -12 -12h-182v-82h76l30 38l48 -46q3 -1 10 -10q0 -7 -8 -8h-156v-78h112l32 38l52 -46l4 -8q0 -12 -12 -12h-360q-21 0 -56 -8l-28 36h204v78h-76q-21 0 -68 -8l-16 34h160v82h-112q-21 0 -68 -8l-16 34v0v0zM288 574q-3 -1 -14 -4q-10 0 -34 -18q-24 -17 -74 -58
l138 4q41 30 82 82q62 -39 62 -48q1 -6 -4 -6t-16 -2q-12 0 -26 -8q-15 -7 -72 -52q-55 -46 -184 -124l272 28q-22 27 -62 66l8 10q65 -30 92 -54q26 -24 32 -50q3 -23 -6 -34q-10 -10 -22 -10q-12 2 -18 14q-4 12 -16 36l-100 -12v-219q4 -39 -10 -60q-13 -18 -50 -30
q-11 30 -40 44q-27 12 -72 24l4 18q69 -15 96 -18q26 -1 26 22v213q-89 -13 -118 -20q-27 -7 -54 -22l-24 62q27 3 48 10q87 60 156 120q-60 -6 -98 -12q-39 -6 -68 -20l-24 58q29 -2 50 12q45 39 90 100l58 -28q6 -4 0 -8q-3 -3 -8 -6v0v0z" />
  </g>

</svg>
