<?xml version="1.0" standalone="no"?>
<!DOCTYPE svg PUBLIC "-//W3C//DTD SVG 1.1//EN" "http://www.w3.org/Graphics/SVG/1.1/DTD/svg11.dtd" >
<svg xmlns="http://www.w3.org/2000/svg" xmlns:xlink="http://www.w3.org/1999/xlink" version="1.1" viewBox="0 0 2048 2048">
  <g transform="matrix(1 0 0 -1 0 2048)">
   <path fill="currentColor"
d="M1863 1750v-1515q0 -29 -11 -53q-12 -25 -40 -51q-29 -26 -60 -39t-51 -15l-30 -4q-1 23 -5 37q-4 15 -16 30q-13 14 -36 26q-24 11 -50 18q-26 6 -77 17l-57 12l1 46q44 -9 81 -15q36 -6 70 -9l87 -7q40 -5 60 0q20 6 29 20q10 15 10 33l-1 1433h1v2q0 48 -3 94.5
t-3 52.5l-2 13l109 -24q30 -7 61 -20q32 -12 32 -29q-1 -15 -20 -28q-18 -13 -41 -17zM1441 1527q-2 18 -2 24l-2 14l109 -24q50 -12 66 -21q17 -9 18 -23q2 -14 -12 -27q-15 -13 -36 -17l-40 -9l-2 -674q-1 -37 0 -50q0 -13 4 -54q3 -42 4 -62v-35q-1 -13 -4 -19t-14 -14
t-42 -5q-14 1 -24 5q-11 4 -16 10q-4 5 -3 23l2 809zM204 1875l54 -23q35 -16 66 -34q31 -19 74 -50t65 -52t39 -51t14 -57q-4 -27 -22 -38t-39 -6q-19 4 -32 16q-13 13 -31.5 47t-37.5 60t-42 50q-22 24 -44 43q-23 18 -68 48l-20 13zM95 1387l56 -23q36 -14 76 -36
q40 -23 77 -48q38 -26 70 -55t45 -63t2 -58q-11 -25 -35 -30q-24 -6 -45 11q-12 8 -29 38q-16 30 -42 65q-26 34 -50 57q-25 23 -52 43q-28 21 -74 52l-20 13zM467 846l33 -25l-27 -65q-17 -42 -44 -104q-27 -61 -81 -173q-55 -112 -83 -163l-56 -103q0 -27 2 -48t-2 -37
q-4 -17 -17 -22t-37 27l-81 105l80 96q37 46 83 110q46 65 75 115l106 195zM881 1174q-15 -4 -41 -10q-25 -5 -75 -14l-70 -13l-4 -29q-3 -19 -11 -28q-9 -10 -20 -8q-9 1 -15 8t-19 32l-55 103q14 12 24 22t29 39q18 30 44 76q25 47 48 94q22 46 50 112q28 65 37 88l19 50
h-34q-119 0 -181 -7l-13 -1l-38 88q13 -5 27 -8q14 -4 66 -10t139 -6l387 -1l72 99l115 -86q31 -24 34 -35q2 -11 -5 -22q-4 -6 -9 -9q-5 -2 -12 -2h-421l-32 -58l-53 -93l-76 -125q-47 -76 -84 -128l-46 -65q182 16 266 25q83 9 214 25l66 8l-32 65q-13 24 -31 52l-35 52
q-16 24 -30 42l-12 15l34 26l66 -67l50 -53q28 -29 50 -59q23 -29 44 -62.5t30 -54.5t12 -41q4 -20 2 -46q-3 -26 -21 -42q-18 -17 -41 -10q-22 6 -33 22q-11 17 -17 50q-7 32 -9 38l-13 39q-37 -11 -62 -17q-25 -7 -118 -28q-93 -20 -107 -22l-22 -4l136 -36q31 -9 37 -24
t-2 -25q-7 -10 -31 -16l-69 -17v-245h168l75 106l119 -94q28 -23 30 -35q3 -13 -3 -22q-3 -5 -7.5 -7.5t-10.5 -2.5h-371v-387q14 1 37 5q23 3 85 17l223 50l45 10l8 -38l-58 -21q-32 -12 -110 -34l-88 -24q-95 -27 -128 -35l-124 -27l-114 -27q-23 -5 -90 -16l-30 -5
q-3 -11 -8 -31q-4 -20 -12 -30q-9 -10 -24 -11q-14 -1 -22 20l-60 142q25 1 68 4q44 4 87 8q43 5 111 14q67 9 78 11l34 3v402h-131q-121 0 -146 -3t-30 -3l-14 -2l-42 89q14 -5 29 -9q15 -3 64 -10t139 -7h131v205q0 90 -3 114q-3 23 -3 24z" />
  </g>

</svg>
