<?xml version="1.0" standalone="no"?>
<!DOCTYPE svg PUBLIC "-//W3C//DTD SVG 1.1//EN" "http://www.w3.org/Graphics/SVG/1.1/DTD/svg11.dtd" >
<svg xmlns="http://www.w3.org/2000/svg" xmlns:xlink="http://www.w3.org/1999/xlink" version="1.1" viewBox="0 -144 1024 1024">
  <g transform="matrix(1 0 0 -1 0 880)">
   <path fill="currentColor"
d="M530 509l64 -32h267l32 27l60 -49l-27 -21v-340l-65 -32v64h-267v-64l-64 -33v480zM344 950l65 -11l16 -11l-16 -9v-174h28l25 33l32 -33v-21h-85v-644l-65 -32v53h-163v-37l-65 -32v692h-85v21h85v205l65 -11l16 -11l-16 -9v-174h163v205zM344 427h-163v-304h163v304z
M861 295h-267v-147h267v147zM861 455h-267v-138h267v138zM344 724h-163v-276h163v276zM520 952l64 -11l16 -11l-16 -9v-138l120 43l71 29l60 29l25 14l22 15l18 14l32 -43l7 -9l1 -19l-20 8l-33 -17l-30 -12l-31 -12l-35 -11l-37 -11l-40 -9l-43 -9l-45 -7l-42 -5v-110l1 -5
v-4l1 -2l1 -1l1 -1l2 -2l3 -1l6 -1l7 -1h300l28 113h10l-10 -114l17 -11l12 -18l-12 -18l-17 -11h-328h-14l-13 2l-13 5l-12 6l-11 8l-9 10l-6 12l-5 13l-3 14v13v285z" />
  </g>

</svg>
