<?xml version="1.0" standalone="no"?>
<!DOCTYPE svg PUBLIC "-//W3C//DTD SVG 1.1//EN" "http://www.w3.org/Graphics/SVG/1.1/DTD/svg11.dtd" >
<svg xmlns="http://www.w3.org/2000/svg" xmlns:xlink="http://www.w3.org/1999/xlink" version="1.1" viewBox="0 -52 256 256">
  <g transform="matrix(1 0 0 -1 0 204)">
   <path fill="currentColor"
d="M99 40h-64l-8 -11l-12 10q6 5 7 10v79q0 5 -6 10l1 3l21 -10q4 -1 2 -3q-5 -1 -8 -4v-81h67v78q1 5 -7 12l2 3l21 -9q3 -1 2 -3q-6 -2 -7 -5v-66v-17q0 -8 -11 -11v15zM60 250l19 -8q3 -1 2 -3q-4 -1 -7 -4v-27h19l6 10l14 -12l2 -2q0 -1 -3 -1h-38v-38h27l7 9l14 -12
q4 -2 -2 -2h-93q-6 0 -10 -3l-8 8h21v42q0 4 -6 10l2 3l19 -9q3 0 1 -2q-4 -2 -7 -5v-39h25v72q0 4 -6 11zM171 111l21 -6q3 -1 2 -3q-5 -2 -8 -5v-9h39l8 10l17 -13q5 -2 -1 -2h-63v-49l1 -14q1 -9 -13 -11q1 4 1 18q1 11 1 17v39h-42q-7 0 -12 -4l-8 9h62v11q0 5 -7 9z
M200 199l18 -10q2 -1 2 -2t-1 -1t-3 -1q-4 0 -5 -2q-1 -5 -4 -14q-2 -6 -3 -10q12 -6 20 -11q25 -21 10 -32q-4 0 -6 8q-1 8 -7 15q-2 3 -14 12q-3 3 -5 4q-14 -31 -41 -45l-2 1q27 27 34 50q6 18 7 27q0 2 -1 4q-1 3 -2 4zM81 147q2 -2 -1 -2q-4 -1 -7 -5q-3 -15 -6 -28
q13 -9 19 -18q7 -10 7 -19q-2 -9 -5 -9q-5 -1 -5 7v2q-1 6 -4 14t-14 18q0 -2 -2 -6q-1 -5 -2 -7q-9 -20 -22 -38l-2 2q18 36 24 71q3 17 2 18q0 3 -3 7l3 1zM150 200l18 -9q4 -3 1 -4q-5 0 -8 -2q-3 -13 -9 -25l9 -3q2 -1 3 -1q16 -8 14 -17q-1 -6 -6 -6q-3 0 -5 6t-7 10
q-1 1 -3 2q-4 4 -7 5q-12 -25 -33 -42l-2 1q23 33 29 52q8 18 6 23q0 4 -3 7zM115 210h108l8 10l17 -12l2 -2q0 -1 -3 -1h-112q-6 0 -11 -3zM151 250l2 3q1 -1 4 -2q23 -10 26 -18q7 -15 -4 -17q-5 1 -5 7q-1 6 -5 12q-2 3 -12 10q-4 3 -6 5z" />
  </g>

</svg>
