<?xml version="1.0" standalone="no"?>
<!DOCTYPE svg PUBLIC "-//W3C//DTD SVG 1.1//EN" "http://www.w3.org/Graphics/SVG/1.1/DTD/svg11.dtd" >
<svg xmlns="http://www.w3.org/2000/svg" xmlns:xlink="http://www.w3.org/1999/xlink" version="1.1" viewBox="0 -205 1024 1024">
  <g transform="matrix(1 0 0 -1 0 819)">
   <path fill="currentColor"
d="M346 662h136v164q-44 -14 -118 -34l-4 16q165 72 226 114q52 -46 48 -52q-5 -4 -10 -4q-3 1 -18 0q-15 -2 -74 -22v-182h138v308l78 -32q7 -6 6 -12q0 -4 -36 -16v-248h140l38 46l56 -58q2 -3 2 -6q1 -9 -4 -8h-230q4 -72 8 -122q2 -48 20 -144q51 68 120 212
q68 -37 70 -46q0 -6 -8 -8q-7 -2 -22 -10q-16 -6 -46 -50q-29 -44 -100 -142q26 -76 56 -122q29 -44 50 -64q17 -19 26 -17q8 3 14 43q6 42 22 126l16 -2q-3 -76 -8 -124q-4 -44 4 -73q8 -26 14 -38q7 -9 2 -18q-3 -7 -14 -8q-11 0 -40 18q-30 19 -62 52q-30 30 -60 75
t-56 114q-66 -69 -158 -138l-12 14q90 81 156 160q-22 92 -28 164q-6 71 -12 148h-140v-158l98 46l10 -14l-110 -66v-290q1 -44 -16 -69q-15 -21 -62 -40q-15 34 -38 46q-21 10 -72 28l4 18q71 -18 104 -18q32 1 32 41v260q-61 -39 -68 -48q-7 -6 -32 -30l-40 52l140 64v178
h-72q-21 -1 -42 -10l-22 36v0v0zM786 898q50 -20 82 -46q32 -25 38 -46q7 -22 -4 -38q-9 -16 -26 -14q-16 0 -22 22q-5 20 -16 44q-12 21 -60 66l8 12v0v0zM110 866l58 -40h88l28 36l38 -34q14 -10 14 -20q0 -4 -24 -22v-390l4 -70q0 -17 -18 -28q-17 -10 -34 -10v62h-106
v-88q0 -15 -18 -24q-17 -10 -34 -10l4 118v520v0v0zM158 378h106v422h-106v-422v0v0z" />
  </g>

</svg>
