<?xml version="1.0" standalone="no"?>
<!DOCTYPE svg PUBLIC "-//W3C//DTD SVG 1.1//EN" "http://www.w3.org/Graphics/SVG/1.1/DTD/svg11.dtd" >
<svg xmlns="http://www.w3.org/2000/svg" xmlns:xlink="http://www.w3.org/1999/xlink" version="1.1" viewBox="0 -36 256 256">
  <g transform="matrix(1 0 0 -1 0 220)">
   <path fill="currentColor"
d="M29 118h23l7 11l15 -14l-7 -6q-3 -44 -6.5 -61t-10 -25t-17.5 -13q-1 15 -19 20l1 6q12 -3 17.5 -4t9 3t6.5 18.5t5 57.5h-26l-5 -6l-11 12l5 5q5 35 6 61l11 -10h22v49h-2q-15 0 -27 -4l-11 11h40l7 10l14 -10l-8 -7v-58l-13 -5v7h-20zM94 119h27l6 10l14 -14l-8 -7
q-3 -43 -5 -59.5t-6 -24t-16 -14.5q-1 13 -22 19l1 6q17 -5 21 -3.5t7 10t7 70.5h-25l-8 -7l-11 13l5 3q4 32 5 60l13 -8h22v50h-2q-15 0 -27 -4l-11 11h40l7 9l14 -12l-8 -6v-57l-13 -5v7h-22zM161 115q12 13 17 26.5t6 34.5h-23v-61zM194 152q21 -12 25 -18.5t-1 -15
t-8.5 4t-16.5 24.5q-11 -24 -32 -38v-72h61v139h-25q-1 -12 -3 -24zM149 191l13 -8h22l1 39h-4q-15 0 -27 -4l-11 11h77l10 11l15 -18h-46l-2 -39h24l6 11l15 -12l-7 -6v-129q0 -12 1 -28l-14 -7v18h-61v-13l-12 -8v182zM185 122l19 -7l-6 -5l-3 -14q18 -10 23.5 -18
t-1 -15.5t-9.5 4.5t-14 24q-9 -23 -30 -43l-3 3q13 17 18 33.5t6 37.5z" />
  </g>

</svg>
