<?xml version="1.0" standalone="no"?>
<!DOCTYPE svg PUBLIC "-//W3C//DTD SVG 1.1//EN" "http://www.w3.org/Graphics/SVG/1.1/DTD/svg11.dtd" >
<svg xmlns="http://www.w3.org/2000/svg" xmlns:xlink="http://www.w3.org/1999/xlink" version="1.1" viewBox="0 -52 256 256">
  <g transform="matrix(1 0 0 -1 0 204)">
   <path fill="currentColor"
d="M161 246l10 -11h47l6 7l10 -8q2 -2 1 -2q0 -1 -2 -2l-4 -3v-50l1 -14q0 -6 -2 -7q-2 -2 -8 -2v10h-48v-5q0 -5 -3 -8q-2 -1 -8 -3q1 3 1 14q1 8 1 13v58q0 5 -5 9zM239 105q-2 -38 -6 -60q-3 -13 -10 -21q-9 -8 -19 -10q-2 5 -5 8q-4 2 -13 6q-2 1 -3 1v3q10 -3 22 -5
q13 2 16 13q7 13 9 69h-13q-7 -37 -24 -59q-18 -19 -52 -33l-2 3q30 15 47 36q16 21 21 53h-15q-9 -27 -20 -42q-13 -16 -34 -27l-2 3q16 10 29 28q12 18 17 38h-13l-2 -4q-12 -16 -30 -31l-2 3q15 14 24 30q9 15 14 30h-8q-8 0 -11 -3l-8 8h85l6 8l12 -10q2 -2 1 -2
q0 -1 -3 -1h-64q-4 -12 -11 -23h55l6 6l9 -6q5 -4 0 -6zM19 22l-11 13l41 9v77h-19q-6 0 -11 -3l-9 8h39v35h-7q-6 0 -11 -3l-9 8h44l6 8l14 -10q2 -2 1 -2q0 -1 -3 -1h-26v-35h16l6 7l14 -10q4 -2 -2 -2h-34v-51l7 11q8 13 9 19q0 1 -1 5q1 -2 -1 2l1 1l18 -8q3 -3 -1 -4
q-2 0 -4 -1t-4 -1q-10 -18 -24 -31v-17l39 9l1 -4q-39 -10 -52 -14q-13 -3 -18 -6q-4 -2 -9 -9zM220 230h-48v-29h48v29zM172 197v-28h48v28h-48zM5 153l-2 3q12 13 23 31q12 17 19 32q6 15 5 17q0 1 -1 4q-2 2 -2 3l1 2l21 -8l1 -1q0 -1 -2 -2q-4 -1 -9 -4v-1q-1 -1 -1 -2
q9 -3 17 -8q9 -5 14 -11t4 -11q-2 -6 -5 -6q-4 1 -6 7q-3 8 -9 14q-5 6 -17 11q-8 -18 -19 -34q-12 -18 -32 -36zM16 101l2 2q11 -6 17 -15q6 -8 5 -17q0 -9 -4 -9q-4 -1 -4 5t-3 15q-2 7 -13 19zM112 248l19 -8q4 -1 2 -3q-5 -2 -7 -5v-52h9l7 9l13 -11q2 -2 1 -2
q0 -1 -3 -1h-27v-29q4 -2 12 -8l2 -2q6 -6 9 -13t1 -11t-5 -4t-4 8q-2 8 -5 14q-1 1 -4 5l-6 6v-98v-22q0 -5 -3 -7q-2 -3 -8 -4q1 4 1 21q1 13 1 21v90q-11 -45 -33 -79l-3 1q23 51 35 111h-11q-6 0 -10 -3l-9 8h31v54q0 5 -8 11z" />
  </g>

</svg>
