<?xml version="1.0" standalone="no"?>
<!DOCTYPE svg PUBLIC "-//W3C//DTD SVG 1.1//EN" "http://www.w3.org/Graphics/SVG/1.1/DTD/svg11.dtd" >
<svg xmlns="http://www.w3.org/2000/svg" xmlns:xlink="http://www.w3.org/1999/xlink" version="1.1" viewBox="0 -120 1000 1000">
  <g transform="matrix(1 0 0 -1 0 880)">
   <path fill="currentColor"
d="M621 485q45 56 81 114h-212l-4 26h131v149h-113l-9 27h122v153l67 -11q26 -4 26 -14q0 -8 -18 -15l-11 -4v-109h25l35 50l62 -59v-17q28 55 56 124l74 -65q6 -6 6 -12q0 -12 -13 -11q-4 0 -9 2l-12 3q-14 -24 -29 -50q-33 -58 -86 -141h64l44 60l67 -71v-15h-193
q-38 -53 -103 -128l12 -5q15 -5 14 -10q-1 -8 -14 -13l-10 -3v-117q96 57 193 158l53 -54q11 -11 11 -15t-7 -7t-12 -2l-18 3q-126 -80 -220 -113v-122q0 -14 2 -19q3 -5 13 -5h141q20 0 29 16q9 17 14 44l14 73h25l-2 -80q1 -50 34 -59q-2 -18 -16 -35q-11 -16 -52 -17
h-212q-25 0 -38 14q-14 13 -14 31v272q-77 -63 -144 -105l-12 17q72 53 156 151v20zM274 412q-35 -228 -209 -328l-15 14q143 99 164 314h-165l-10 28h179q4 48 7 133h-77v-37l-59 -13v414l64 -40h236l35 48l46 -47q14 -14 14 -19q0 -6 -14 -13l-7 -4v-309l-61 -8v28h-159
l43 -10q28 -7 28 -18q0 -13 -28 -21l-7 -84h116l21 38l52 -41q16 -13 16 -20q0 -8 -14 -17l-12 -7q-2 -13 -6 -68q-6 -92 -34 -167q-16 -41 -48 -60q-23 -13 -45 -13q-6 0 -10 2q-6 2 -9 23q-2 25 -13 26l-53 14v16h109q41 58 48 246h-123zM148 601h96v126h-96v-126z
M148 755h96v115h-96v-115zM302 601h100v126h-100v-126zM302 870v-115h100v115h-100zM803 774h-122v-149h37q59 98 85 149z" />
  </g>

</svg>
