<?xml version="1.0" standalone="no"?>
<!DOCTYPE svg PUBLIC "-//W3C//DTD SVG 1.1//EN" "http://www.w3.org/Graphics/SVG/1.1/DTD/svg11.dtd" >
<svg xmlns="http://www.w3.org/2000/svg" xmlns:xlink="http://www.w3.org/1999/xlink" version="1.1" viewBox="0 -36 256 256">
  <g transform="matrix(1 0 0 -1 0 220)">
   <path fill="currentColor"
d="M61 216l15 -10h71q-1 7 -4.5 16t-12.5 21l2 2q19 -11 25.5 -20.5t-3.5 -18.5h55l13 12l18 -19h-164q0 -45 -1 -76t-13 -59.5t-44 -54.5l-2 3q40 38 46 108q-28 -20 -37 -34l-13 15q17 5 50 24q0 67 -1 91zM44.5 167.5q5.5 -8.5 -2 -17t-10 6.5t-11.5 29l2 3
q16 -13 21.5 -21.5zM103 162.5q0 13.5 -1 28.5l16 -7h74l9 8l15 -13l-8 -4q0 -22 1 -33l-16 -5v6h-75v-3l-16 -4q1 13 1 26.5zM118 150h75v27h-75v-27zM204 121h-94v-16h94v16zM204 98h-94v-17h94v17zM204 74h-94v-16h94v16zM227.5 31q7.5 -6 5.5 -17t-12 1t-48 32l2 3
q45 -13 52.5 -19zM145 39l-11 -2q-29 -17 -60 -28l-2 3q22 11 35.5 20.5t21.5 18.5zM96 134l15 -6h93l8 8l12 -13l-7 -5v-38q0 -15 1 -30l-14 -4v5h-94v-4l-14 -4q1 21 1 27v37q0 11 -1 27z" />
  </g>

</svg>
