<?xml version="1.0" standalone="no"?>
<!DOCTYPE svg PUBLIC "-//W3C//DTD SVG 1.1//EN" "http://www.w3.org/Graphics/SVG/1.1/DTD/svg11.dtd" >
<svg xmlns="http://www.w3.org/2000/svg" xmlns:xlink="http://www.w3.org/1999/xlink" version="1.1" viewBox="0 -36 256 256">
  <g transform="matrix(1 0 0 -1 0 220)">
   <path fill="currentColor"
d="M112 144l-3 2q10 18 20.5 47.5t14.5 53.5l20 -12l-7 -5q-6 -13 -13 -29h71l11 12l17 -19h-49v-44h16l12 12l16 -19h-44v-44h16l13 13l16 -20h-45v-51h23l12 13l17 -20h-101v-19l-13 -7v166q-11 -18 -20 -30zM145 194v-44h36v44h-36zM145 99h36v44h-36v-44zM145 41h36v51
h-36v-51zM176 247q18 -10 24 -17t-0.5 -18t-10 2.5t-15.5 30.5zM65 226q-9 -6 -20.5 -20t-29.5 -31l-3 4q9 10 20.5 28t16.5 32zM110.5 217.5q9.5 -8.5 4.5 -20t-10.5 2t-23.5 32.5l1 3q19 -9 28.5 -17.5zM110 150.5q7 -8.5 3.5 -18.5t-12 3.5t-32.5 30.5
q-14 -21 -27.5 -35.5t-30.5 -28.5l-2 3q21 22 35 44.5t23 47.5l16 -11q-5 -4 -11 -16q31 -11 38 -19.5zM48 46h40v57h-40v-57zM48 110h39l7 9l14 -12l-7 -8q0 -59 1 -69l-14 -6v15h-40v-16l-15 -7q1 16 1 49.5t-1 52.5z" />
  </g>

</svg>
