<?xml version="1.0" standalone="no"?>
<!DOCTYPE svg PUBLIC "-//W3C//DTD SVG 1.1//EN" "http://www.w3.org/Graphics/SVG/1.1/DTD/svg11.dtd" >
<svg xmlns="http://www.w3.org/2000/svg" xmlns:xlink="http://www.w3.org/1999/xlink" version="1.1" viewBox="0 -36 256 256">
  <g transform="matrix(1 0 0 -1 0 220)">
   <path fill="currentColor"
d="M54 212q1 -9 -5 -14.5t-9 6t-18 31.5l3 3q28 -17 29 -26zM68 191q17 38 18 52l20 -11q-7 -5 -15 -16t-17 -25h21l11 11l14 -18h-49v-38h20l10 11l16 -18h-46v-39h24l11 13l17 -20h-52q-2 -25 -14.5 -46t-45.5 -38l-2 3q23 16 34.5 36t14.5 45h-19q-10 0 -19 -2l-10 9h48
v39h-12q-10 0 -19 -2l-9 9h40v38h-18q-10 0 -19 -2l-10 9h57zM157 246q29 -18 32.5 -27t-3 -17.5t-11 5.5t-21.5 36zM209 141l20 -14l-11 -5q-45 -61 -79 -86q42 2 81 6q-10 18 -19 30l3 3q17 -13 30 -28t5.5 -25.5t-9.5 -3t-8 18.5q-31 -5 -57.5 -10t-32.5 -12l-12 21
q8 0 30 20.5t42 50.5q-19 -1 -33 -3t-25 -9l-10 20q9 1 23.5 22t22.5 42h-23q-10 0 -19 -2l-9 9h101l12 13l16 -20h-74l18 -12l-11 -5q-19 -24 -45 -50q29 1 60 2q8 14 13 27z" />
  </g>

</svg>
