<?xml version="1.0" standalone="no"?>
<!DOCTYPE svg PUBLIC "-//W3C//DTD SVG 1.1//EN" "http://www.w3.org/Graphics/SVG/1.1/DTD/svg11.dtd" >
<svg xmlns="http://www.w3.org/2000/svg" xmlns:xlink="http://www.w3.org/1999/xlink" version="1.1" viewBox="0 -36 256 256">
  <g transform="matrix(1 0 0 -1 0 220)">
   <path fill="currentColor"
d="M217 57l13 -15h-96v-18h81l12 10l16 -17h-198q-12 0 -22 -2l-9 9h108v18h-57q-11 -1 -22 -3l-10 10h89v14h-57v-4l-13 -3v65l13 -6h122l8 8l14 -11l-7 -4v-44l-14 -5v4h-54v-14h73zM65 108v-16h57v16h-57zM134 108v-16h54v16h-54zM65 85v-15h57v15h-57zM134 85v-15h54v15
h-54zM52 143q0 12 -3 16l20 -3h118l4 7l17 -8l-6 -6q0 -15 1 -24l-13 -2v4h-127v-1l-14 -1q3 6 3 18zM65 134h125v15h-125v-15zM112 198q11 -2 21 -9.5t1 -13.5h79l11 11l17 -18h-195q-13 0 -23 -2l-9 9h109q-2 10 -12 20zM69 231l-10 -12h51l11 11l17 -18h-55q19 -9 20 -16
t-5 -12.5t-9 6t-15 22.5h-19q-17 -21 -39 -35l-3 2q16 16 26.5 31t18.5 36l22 -12zM172 232l-11 -13h52l12 10l16 -17h-59q14 -6 18.5 -11t2 -11t-6 -7t-8 9t-14.5 20h-17q-12 -13 -29 -27l-3 2q20 24 26.5 37t9.5 22l21 -12z" />
  </g>

</svg>
