<?xml version="1.0" standalone="no"?>
<!DOCTYPE svg PUBLIC "-//W3C//DTD SVG 1.1//EN" "http://www.w3.org/Graphics/SVG/1.1/DTD/svg11.dtd" >
<svg xmlns="http://www.w3.org/2000/svg" xmlns:xlink="http://www.w3.org/1999/xlink" version="1.1" viewBox="0 -205 1024 1024">
  <g transform="matrix(1 0 0 -1 0 819)">
   <path fill="currentColor"
d="M522 940l54 -34h266l28 36l58 -40q6 -4 6 -8q0 -6 -32 -32v-170l4 -72q1 -12 -16 -24q-15 -12 -38 -14v32h-280v-10q-30 -25 -54 -22l4 100v258v0v0zM572 640h280v104h-280v-104v0v0zM592 496h300l32 38q61 -42 62 -48q0 -6 -2 -8q-2 -3 -28 -20v-210q-2 -82 -10 -119
q-6 -38 -30 -68q-22 -25 -70 -50q-15 30 -38 42q-25 12 -82 30l6 18q65 -15 100 -16q32 1 50 22q17 20 22 123v240h-334q-24 -23 -50 -46t-70 -58l-12 10q48 58 84 104q33 44 76 106l62 -30q6 -9 0 -14q-6 -3 -18 -6q-12 -1 -50 -40v0v0zM572 770h280v110h-280v-110v0v0z
M702 450q63 -23 64 -28q0 -3 -2 -8q-3 -3 -14 -6q-10 -3 -32 -32q51 -24 76 -36q23 -11 34 -34q10 -21 2 -38q-9 -16 -26 -14q-15 -1 -24 20q-6 20 -18 40q-12 18 -54 48q-54 -81 -108 -140l-12 8q39 66 66 118l48 102v0v0zM504 378q61 -17 68 -22q6 -3 6 -8q0 -4 -26 -16
v-148h226l34 38q50 -43 56 -50q3 -6 -2 -12h-312l-26 -35l-54 47l30 22v184v0v0zM144 972l76 -30q4 -1 2 -10q0 -2 -30 -16v-86h118v146l76 -34q5 -1 2 -10q0 -2 -30 -16v-86h50l28 42l50 -50q3 0 4 -6q-1 -10 -10 -10h-122v-76l4 -56q-1 -13 -20 -22q-19 -6 -32 -6v30h-36
v-104h80l30 36l42 -34q9 -6 10 -14q0 -4 -24 -22v-96l4 -64q-4 -15 -22 -26q-15 -10 -30 -8v34h-90v-116h94l36 42l54 -52q3 -3 4 -6q0 -7 -14 -8h-174v-92l4 -91q-1 -12 -22 -24q-21 -9 -36 -10l4 119v98h-120q-17 0 -58 -8l-18 32h196v116h-90v-14q1 -9 -16 -18
q-18 -10 -36 -10l4 104v166l48 -34h90v104h-32v-8q-1 -13 -14 -22q-13 -7 -38 -8l4 86v82h-38q-31 -1 -64 -10l-18 34h120v142v0v0zM134 402h90v146h-90v-146v0v0zM274 402h90v146h-90v-146v0v0zM192 700h118v106h-118v-106v0v0z" />
  </g>

</svg>
