<?xml version="1.0" standalone="no"?>
<!DOCTYPE svg PUBLIC "-//W3C//DTD SVG 1.1//EN" "http://www.w3.org/Graphics/SVG/1.1/DTD/svg11.dtd" >
<svg xmlns="http://www.w3.org/2000/svg" xmlns:xlink="http://www.w3.org/1999/xlink" version="1.1" viewBox="0 -205 1024 1024">
  <g transform="matrix(1 0 0 -1 0 819)">
   <path fill="currentColor"
d="M668 912l52 -48q2 -4 2 -10q0 -7 -8 -8h-134v-118h48l22 30l52 -30q12 -6 12 -14q0 -3 -30 -24v-68l4 -42q0 -18 -20 -26q-20 -9 -34 -8v24h-52v-132h90l36 40l54 -48q6 -11 -6 -16h-300l-26 -30l-54 54q27 12 30 28v444l52 -38l4 -2h166l40 42v0v0zM534 438v132h-80
v-132h80v0v0zM454 594h180v110h-180v-110v0v0zM454 728h78v118h-78v-118v0v0zM430 362l54 -36h356l34 38l44 -36q12 -6 12 -14q0 -5 -30 -28v-215h16l30 38l54 -48q3 -3 4 -10q4 -6 -10 -6h-590q-25 -1 -40 -8l-18 34h84v291v0v0zM480 71h92v229h-92v-229v0v0zM618 71h94
v229h-94v-229v0v0zM756 71h94v229h-94v-229v0v0zM876 900q8 -4 8 -8q3 -6 -8 -12q-21 -5 -26 -16q-4 -10 -14 -40q-9 -28 -26 -76h88l36 44l58 -56l2 -6q0 -7 -8 -8h-188q-42 -115 -92 -196l-16 6q39 101 70 200q27 99 48 198l68 -30v0v0zM806 628l12 10q62 -57 86 -86
q21 -30 24 -56q4 -26 -10 -40q-13 -12 -28 -6q-15 5 -18 34q-3 27 -18 66q-15 36 -48 78v0v0zM270 950q6 -3 6 -8q5 -7 -10 -10q-13 -3 -22 -14q-6 -10 -38 -86h80l30 36l44 -38q8 -7 8 -14t-30 -22v-652q0 -32 -12 -57q-13 -23 -58 -38q-7 24 -34 42q-24 16 -84 28l2 18
q72 -15 102 -18q38 0 38 31v378h-142v-48q-7 -193 -40 -296q-31 -101 -86 -159l-12 10q48 75 66 173q20 96 26 286v34h-20q-25 -1 -52 -4l-20 30h92v318l44 -38h34q20 99 26 144l62 -26v0v0zM150 552h142v254h-142v-254v0v0zM188 762q44 -47 58 -76q12 -29 12 -46
q0 -18 -12 -30q-9 -12 -26 -8q-16 2 -14 26q3 24 -2 54q-4 27 -28 72l12 8v0v0zM194 480q39 -42 54 -84q15 -39 6 -60q-6 -21 -18 -26q-11 -6 -22 0q-12 6 -8 28q3 21 0 54q-3 31 -24 80l12 8v0v0z" />
  </g>

</svg>
