<?xml version="1.0" standalone="no"?>
<!DOCTYPE svg PUBLIC "-//W3C//DTD SVG 1.1//EN" "http://www.w3.org/Graphics/SVG/1.1/DTD/svg11.dtd" >
<svg xmlns="http://www.w3.org/2000/svg" xmlns:xlink="http://www.w3.org/1999/xlink" version="1.1" viewBox="0 -36 256 256">
  <g transform="matrix(1 0 0 -1 0 220)">
   <path fill="currentColor"
d="M82.5 219q-5.5 -2 -20.5 -6v-53l13 2l10 13l15 -14l-38 -8v-46l24 5l9 12l15 -13l-48 -11v-59q0 -15 14 -15h141q10 0 12 11t2 20h5q-1 -4 0.5 -15.5t10.5 -11.5q-6 -12 -11.5 -14t-16.5 -2h-148q-22 0 -22 23v60l-22 -4l-10 -5l-9 7l41 10v46l-18 -3l-11 -5l-8 7l37 8
v52q-19 -5 -33 -7v6q19 4 40 13t29 17l14 -17q-11 -1 -16.5 -3zM113 104q0 41 -1 65l13 -5h20v25h-9l-11 -3l-10 10h62h6h9l10 11l18 -18h-33v-25h21l8 9l14 -14l-9 -7q0 -61 1 -106l-14 -6v13h-83v-10l-13 -6q1 26 1 67zM157 164h18v25h-18v-25zM130 106l-2 3q17 22 17 48
h-20v-97h83v55h-18q-15 2 -15 19v23h-18q0 -28 -27 -51zM187 139q0 -11 8 -11h13v29h-21v-18zM95 186l-3 2q35 24 47 57l15 -9l-7 -3q-10 -16 -22.5 -27t-29.5 -20zM189 236h-2l-11 -3l-10 10h21l6 3l9 -7l-6 -3q4 -11 19.5 -22t30.5 -14v-3q-9 -2 -13 -10q-17 10 -28 22.5
t-16 26.5zM208 91v-7h-83v7h83z" />
  </g>

</svg>
