<?xml version="1.0" standalone="no"?>
<!DOCTYPE svg PUBLIC "-//W3C//DTD SVG 1.1//EN" "http://www.w3.org/Graphics/SVG/1.1/DTD/svg11.dtd" >
<svg xmlns="http://www.w3.org/2000/svg" xmlns:xlink="http://www.w3.org/1999/xlink" version="1.1" viewBox="0 -205 1024 1024">
  <g transform="matrix(1 0 0 -1 0 819)">
   <path fill="currentColor"
d="M578 974l84 -32q6 -1 6 -8q1 -3 -40 -24v-366q-4 -145 -32 -244q-27 -97 -96 -167q-69 -71 -152 -110l-8 18q92 63 140 127q48 62 66 118q20 57 32 204q-90 -69 -108 -92l-38 -48l-50 54l196 112v458v0v0zM406 782l12 10q72 -66 94 -102q21 -37 22 -64q0 -27 -12 -38
q-12 -12 -30 -6q-15 6 -18 40q-1 34 -14 68q-12 32 -54 92v0v0zM720 972l84 -32q6 -6 6 -8q-1 -3 -4 -6l-38 -18v-292q75 81 132 190q68 -39 68 -44q0 -6 -2 -6q-1 -1 -22 -8q-19 -5 -52 -40q-31 -36 -124 -122v-70q84 -30 120 -54q36 -25 48 -50q9 -24 4 -42
q-7 -19 -26 -20q-18 0 -26 22q-9 21 -32 54t-88 66v-361q3 -34 12 -38q11 -3 26 -4h78q44 6 52 32q5 23 8 49q2 27 4 102h18q5 -76 10 -106q3 -29 34 -49q-14 -38 -34 -52q-18 -13 -68 -18h-104q-27 -1 -48 6q-18 7 -30 28q-6 15 -6 50v841v0v0zM210 980l68 -30
q20 -6 20 -12q1 -6 -40 -30v-294q63 77 102 140q63 -45 60 -54q-3 -7 -8 -8q-6 1 -24 -4q-16 -6 -46 -30q-28 -24 -86 -74q0 -114 -8 -198q54 -28 102 -70q47 -43 58 -70q10 -25 8 -46q-3 -19 -12 -28t-26 -6q-16 2 -26 44q-10 39 -34 78q-22 36 -74 78q-12 -102 -60 -186
q-44 -82 -148 -161l-10 10q80 83 116 151q33 68 48 140q16 72 20 252v408v0v0zM118 724h16q12 -81 4 -144q-9 -61 -30 -82q-20 -22 -40 -20q-21 3 -26 18q-5 16 12 32q17 15 38 58q20 42 26 138v0v0v0z" />
  </g>

</svg>
