<?xml version="1.0" standalone="no"?>
<!DOCTYPE svg PUBLIC "-//W3C//DTD SVG 1.1//EN" "http://www.w3.org/Graphics/SVG/1.1/DTD/svg11.dtd" >
<svg xmlns="http://www.w3.org/2000/svg" xmlns:xlink="http://www.w3.org/1999/xlink" version="1.1" viewBox="0 -205 1024 1024">
  <g transform="matrix(1 0 0 -1 0 819)">
   <path fill="currentColor"
d="M764 856q-97 -16 -292 -46v-154h400l42 50l66 -58q3 -4 4 -10q0 -7 -8 -8h-504q1 -159 -16 -264q-17 -102 -64 -186q-46 -80 -142 -153l-8 12q75 79 114 155q36 74 52 178q15 101 12 266v244l70 -44q167 34 248 56q81 21 156 48q60 -58 60 -64q-1 -7 -8 -10q-7 -2 -22 0
q-13 2 -38 2q-24 0 -122 -14v0v0zM530 470l58 -38h264l32 44l62 -46q6 -4 6 -8q1 -6 -28 -26v-210l4 -97q0 -9 -18 -22q-18 -12 -38 -16v76h-290v-42q0 -12 -20 -24q-18 -13 -36 -14l4 119v304v0v0zM582 152h290v254h-290v-254v0v0zM192 416q-19 -49 -40 -52q-20 -3 -106 -2
l-2 -20q66 -6 90 -14q25 -7 32 -22q8 -13 8 -44q1 -31 -6 -88q-9 -56 -6 -85q0 -28 16 -38q16 -6 32 0q16 9 20 36q3 25 -6 87q-10 62 -10 104q-1 42 4 64q4 21 14 54l138 418l-22 6l-156 -404v0v0zM130 958l6 14q48 -18 82 -36q33 -15 52 -36q17 -19 20 -40q3 -19 -8 -34
q-9 -13 -26 -14q-16 0 -22 16q-6 14 -14 34q-6 20 -24 38q-15 18 -66 58v0v0zM44 698l6 14q42 -16 78 -34q35 -16 50 -34t18 -38q1 -18 -10 -32q-9 -12 -24 -12t-20 16q-6 13 -14 32q-10 17 -28 40q-18 21 -56 48v0v0z" />
  </g>

</svg>
