<?xml version="1.0" standalone="no"?>
<!DOCTYPE svg PUBLIC "-//W3C//DTD SVG 1.1//EN" "http://www.w3.org/Graphics/SVG/1.1/DTD/svg11.dtd" >
<svg xmlns="http://www.w3.org/2000/svg" xmlns:xlink="http://www.w3.org/1999/xlink" version="1.1" viewBox="0 -205 1024 1024">
  <g transform="matrix(1 0 0 -1 0 819)">
   <path fill="currentColor"
d="M298 900l18 -2q-5 -89 -22 -124q-18 -33 -38 -50q-21 -18 -42 -20q-18 -1 -30 10q-10 11 -4 26q6 11 34 26q27 14 48 40q18 24 36 94v0v0zM498 966q92 -23 94 -28q3 -5 -2 -10q-3 -3 -14 -6q-10 -4 -28 -22q23 -87 74 -156q92 58 188 134q68 -46 70 -52q3 -6 -2 -8
q-3 -4 -18 -2q-15 1 -68 -16q-51 -18 -158 -72q57 -60 114 -90q56 -30 116 -48q60 -16 120 -16v-20q-30 3 -54 -6t-48 -38q-71 27 -130 64q-60 33 -120 96t-96 174q-21 -121 -96 -188q-76 -66 -160 -96q-85 -31 -208 -50l-2 18q116 27 200 66q81 39 138 96q54 56 70 128
q14 69 20 148v0v0zM190 466q3 -91 -8 -130q-12 -39 -36 -54q-24 -13 -42 -4q-18 10 -14 26q3 14 22 26q18 12 36 36t22 100h20v0v0zM280 542q72 -18 76 -24t0 -8q-3 -4 -30 -16q3 -90 -8 -138q81 56 138 118l42 -40q12 -7 6 -14q-13 -1 -28 -4q-16 -1 -52 -22
q-36 -22 -108 -58l-4 -24q88 -36 116 -60q27 -24 36 -42q6 -18 0 -36q-7 -18 -26 -18q-18 0 -32 34q-15 34 -36 56q-19 21 -64 48q-24 -84 -72 -134q-49 -49 -190 -113l-6 14q136 76 182 145q45 69 54 154q9 83 6 182v0v0zM930 422q9 -10 -2 -16q-29 0 -58 -18
q-30 -17 -128 -88q38 -87 70 -126q32 -38 76 -61q44 -20 98 -32v-18q-36 3 -60 -6t-36 -24q-45 25 -86 76q-42 46 -68 107q-27 58 -50 188q-13 -163 -64 -230q-48 -64 -114 -95q-64 -30 -154 -58l-6 16q92 36 148 72q54 32 90 89q33 54 48 150q12 95 10 206l80 -28
q6 -7 6 -10q0 -1 -30 -16v-34q18 -78 34 -144q90 77 138 146l58 -46v0v0zM564 470q2 -72 -4 -108q-5 -35 -22 -52q-18 -18 -36 -18q-17 -2 -28 12q-10 14 2 26q9 12 30 30q18 16 24 32q4 15 14 78h20v0v0z" />
  </g>

</svg>
