<?xml version="1.0" standalone="no"?>
<!DOCTYPE svg PUBLIC "-//W3C//DTD SVG 1.1//EN" "http://www.w3.org/Graphics/SVG/1.1/DTD/svg11.dtd" >
<svg xmlns="http://www.w3.org/2000/svg" xmlns:xlink="http://www.w3.org/1999/xlink" version="1.1" viewBox="0 -154 1024 1024">
  <g transform="matrix(1 0 0 -1 0 870)">
   <path fill="currentColor"
d="M713 932l38 -47h138l34 42l50 -50q13 -12 -5 -17l-18 -9v-250l4 -48q1 -24 -11 -32q-11 -9 -35 -12v52h-150v-23q4 -22 -11 -31q-13 -11 -38 -15q4 39 7 160v225q-5 24 -17 43zM624 496l79 -19q14 -5 6 -11q-21 -8 -30 -21v-37h200l34 44l68 -51q22 -15 -11 -13h-255
q50 -75 72 -103q47 -56 117 -91q36 -21 104 -37v-14q-46 2 -61 -5q-15 -8 -27 -21q-110 69 -164 151q-27 39 -66 120h-11v-251l3 -71q0 -39 -52 -46q5 39 7 159v209h-24q-31 -81 -121 -165q-97 -90 -221 -134l-6 16q98 52 186 132q81 75 114 151h-135q-27 1 -47 -13l-32 33
h286v47q2 16 -21 29zM152 997l84 -34q14 -5 6 -11q-17 -5 -29 -18v-250h54l36 40l58 -47q19 -13 -11 -13h-137v-346l137 64l6 -16l-244 -142q-42 -27 -60 -61l-40 61l159 74v366h-71q-27 1 -47 -13l-32 33h150v260q2 16 -27 42zM346 901h249l32 40l65 -47q15 -14 -7 -13
h-195q-1 -57 -5 -103h104l27 40l51 -37q18 -13 0 -19l-15 -15q0 -175 -61 -232q-25 -18 -67 -30q-4 20 -21 34q-14 12 -62 27l6 15q15 -5 75 -16q47 -1 66 46q18 47 24 167h-129q-11 -111 -49 -178q-38 -66 -108 -120l-12 13q74 78 102 168t30 240h-21q-27 1 -45 -13z
M908 865h-150v-284h150v284z" />
  </g>

</svg>
