<?xml version="1.0" standalone="no"?>
<!DOCTYPE svg PUBLIC "-//W3C//DTD SVG 1.1//EN" "http://www.w3.org/Graphics/SVG/1.1/DTD/svg11.dtd" >
<svg xmlns="http://www.w3.org/2000/svg" xmlns:xlink="http://www.w3.org/1999/xlink" version="1.1" viewBox="0 -205 1024 1024">
  <g transform="matrix(1 0 0 -1 0 819)">
   <path fill="currentColor"
d="M402 902h456l40 46q62 -54 62 -60q0 -12 -12 -12h-252v-112h124l38 46l62 -56q2 -3 2 -8q0 -9 -8 -8h-218v-108h206l32 44l58 -50q3 -4 4 -10q-1 -10 -16 -10h-500q-22 0 -70 -8l-20 34h90v204l80 -34q6 -5 0 -10q7 4 -4 -4l-28 -14v-142h116v246h-158q-21 0 -68 -8
l-16 34v0v0zM572 560q12 -9 -2 -14q-30 -7 -32 -22l-10 -32h338l36 46l58 -54q3 -6 4 -12q-1 -6 -8 -6h-434l-24 -86h388l24 36l62 -40l6 -8q1 -6 -30 -30l-10 -134q-7 -74 -28 -119q-21 -43 -102 -72q-10 29 -34 46q-24 15 -90 36l4 18q48 -12 94 -22q44 -10 74 10
q27 18 34 111l12 140h-396l-32 -30l-56 50l32 18q26 80 50 200l72 -30v0v0zM430 296h20q3 -118 -2 -148q-4 -28 -22 -43q-18 -16 -36 -14q-17 2 -22 16q-3 12 6 24q8 9 20 23q11 14 20 38q6 22 16 104v0v0zM506 290l14 6q39 -52 54 -82q13 -31 8 -50q-4 -19 -16 -29
q-13 -9 -28 -4q-15 6 -12 33q3 28 0 56q-3 26 -20 70v0v0zM610 304l12 8q51 -43 70 -70q18 -25 16 -46q0 -18 -12 -30q-9 -10 -26 -4q-16 3 -16 34q-1 28 -10 50q-10 21 -34 58v0v0zM712 316l12 8q60 -39 78 -66q18 -24 18 -42q1 -17 -10 -28q-9 -9 -24 -6q-15 4 -20 32
q-6 27 -14 48q-10 21 -40 54v0v0zM272 936q15 -6 4 -18q-36 -10 -44 -58q-6 -48 -20 -140h86l28 40l54 -38q15 -7 12 -10q1 -7 -34 -34q-6 -132 -24 -218q-15 -85 -56 -178q38 -28 62 -52q24 -25 28 -46q4 -20 -4 -34q-7 -14 -22 -13q-13 1 -26 25q-12 25 -26 44
q-13 19 -34 38q-43 -66 -92 -109q-48 -41 -126 -92l-8 14q66 52 118 105q50 54 80 112q-42 31 -126 86q39 155 60 334h-54q-24 0 -50 -6l-18 32h126q18 135 28 246l78 -30v0v0zM244 304q35 81 50 178q14 97 20 212h-106q-25 -154 -68 -332q44 -26 104 -58v0v0z" />
  </g>

</svg>
