<?xml version="1.0" standalone="no"?>
<!DOCTYPE svg PUBLIC "-//W3C//DTD SVG 1.1//EN" "http://www.w3.org/Graphics/SVG/1.1/DTD/svg11.dtd" >
<svg xmlns="http://www.w3.org/2000/svg" xmlns:xlink="http://www.w3.org/1999/xlink" version="1.1" viewBox="0 -144 1024 1024">
  <g transform="matrix(1 0 0 -1 0 880)">
   <path fill="currentColor"
d="M882 443l-36 31l-32 35l-29 38l-18 27l-42 -49l-41 -39l-43 -37l-20 -14l60 -30h156l32 27l59 -49l-27 -21v-255l-64 -32v64h-156v-64l-65 -32v389l-21 -15l-48 -27l-6 8l42 35l39 38l37 39l35 42l32 44l16 24l-7 12l-20 47l-17 50l-13 53l-1 7l-17 -43l-16 -35l-17 -33
l-18 -31l-20 -28l-21 -25l-8 5l24 61l22 66l11 35l19 75l8 39l8 42l7 43l2 10l61 -22l14 -14l-19 -7l-5 -23l-12 -43l-1 -5h143l32 27l59 -49l-27 -16l-10 -4l-16 -39l-27 -57l-30 -53l-31 -48l29 -36l30 -31l31 -28l33 -25l58 -35l-59 -47zM279 497l-5 19l29 5l80 141h-23
l-18 17l-8 26l-11 26l-7 13l-15 25l-17 25l-12 10l6 8l14 -7l15 -7l14 -9l12 -7l23 83l11 38l10 35l6 24l-2 1l5 13l58 -30l12 -15l-22 -5l-43 -76l-50 -75l18 -16l22 -26l11 -14l9 -14v-8l46 91l31 72l11 30l5 11l57 -32l11 -16l-20 -2l-27 -53l-43 -72l-49 -75l-57 -77
l-31 -38l-10 -12l46 8l93 21l28 6l-6 22l-6 20l-14 39l-8 19l8 6l29 -32l13 -18l12 -18l11 -20l10 -19l9 -21l7 -21l7 -22l5 -22l-6 -24l-22 -12l-24 6l-12 21l-1 20l-2 20l-3 20l-4 19l-1 -1l-20 -13l-22 -12l-9 -5v-436l-65 -32v440l-69 -24l-8 -19l-13 13l-2 7v2v1l-2 8
v1l-1 3v1l-4 19v2zM373 381l-18 -10l-4 -33l-4 -28l-5 -28l-13 -58l-8 -29l-22 -59l-13 -30l-9 3l2 32l7 61l5 58l2 28l1 53l-1 26l-1 25v13l65 -13zM837 383h-156v-222h156v222zM492 246l1 20l-1 20l-1 18l-7 37l-5 18l-12 36l-9 17l8 6l28 -29l13 -16l12 -18l9 -19l8 -20
l7 -21l6 -22l4 -23l3 -25l-10 -22l-23 -10l-22 10l-10 22zM22 867l64 -33h99l32 27l59 -48l-27 -22v-486l-64 -32v64h-99v-64l-64 -33v627zM185 813h-99v-454h99v454zM274 516l14 -63l-24 61zM843 834h-144l-4 -13l-1 -2l34 -79l22 -45l18 -30l15 26l25 53l22 54z" />
  </g>

</svg>
