<?xml version="1.0" standalone="no"?>
<!DOCTYPE svg PUBLIC "-//W3C//DTD SVG 1.1//EN" "http://www.w3.org/Graphics/SVG/1.1/DTD/svg11.dtd" >
<svg xmlns="http://www.w3.org/2000/svg" xmlns:xlink="http://www.w3.org/1999/xlink" version="1.1" viewBox="0 -36 256 256">
  <g transform="matrix(1 0 0 -1 0 220)">
   <path fill="currentColor"
d="M59.5 177.5q4.5 -5.5 1 -11t-6.5 -6.5t-5.5 8t-15.5 21l3 3q19 -9 23.5 -14.5zM112 82q-3 13 -16 15v4q13 -1 15.5 0t2.5 5v41h-29q0 -43 1 -53l-14 -4v57h-27v-62l-15 -7q1 28 1 45t-1 38l15 -7h27v40l21 -7l-8 -6v-27h29l7 8l13 -12l-7 -5v-45q0 -14 -15 -18zM130 180
l-7 -3q-13 -12 -26 -20l-2 2q6 7 12 16.5t9 16.5zM74 132l-7 -3q-15 -20 -21 -25l-3 2q12 22 14 35zM110 125.5q4 -5.5 -1.5 -11.5t-9 4t-13.5 17l3 2q17 -6 21 -11.5zM246 54h-160q-8 -36 -73 -46l-2 4q56 17 60 42h-29q-10 0 -20 -2l-10 9h60v27l22 -7l-8 -7v-13h127
l14 12zM162 61q0 13 -1 31l25 -7l-9 -9v-22q0 -23 1 -39l-17 -7q1 23 1 53zM129 214h-37q0 -7 1 -17l-17 -4q1 11 1 21h-28q-11 0 -21 -2l-9 9h58q0 18 -1 25l24 -6l-8 -5v-14h12l11 7zM132 221h33q0 14 -1 24l24 -6l-8 -5v-13h34l14 8l16 -15h-64q0 -3 2 -13l-18 -6
q1 16 1 19h-11q-7 0 -14 -1zM186 123q11 16 15 34h-33l-1 -2q11 -24 19 -32zM139 122q23 36 29 77l19 -12l-7 -5q-3 -7 -8 -18h44l12 10l13 -18h-25q-8 -26 -20 -41q19 -16 51 -23v-4q-13 2 -20 -11q-24 12 -40 27q-21 -17 -59 -26l-1 4q36 16 52 33q-7 11 -15 31
q-8 -14 -22 -26z" />
  </g>

</svg>
