<?xml version="1.0" standalone="no"?>
<!DOCTYPE svg PUBLIC "-//W3C//DTD SVG 1.1//EN" "http://www.w3.org/Graphics/SVG/1.1/DTD/svg11.dtd" >
<svg xmlns="http://www.w3.org/2000/svg" xmlns:xlink="http://www.w3.org/1999/xlink" version="1.1" viewBox="0 -36 256 256">
  <g transform="matrix(1 0 0 -1 0 220)">
   <path fill="currentColor"
d="M20 85l-12 16q10 3 36 19v55h-20l-6 -4l-7 11h33q0 37 -1 62l21 -10l-7 -7v-45h13l8 9l11 -16h-32v-49l27 15l2 -5l-29 -21v-73q2 -25 -14 -32q-2 12 -25 20v4q17 -3 22 -1.5t4 13.5v59q-18 -13 -24 -20zM137 86l1 -4q-54 -33 -60 -41l-12 17q11 3 30 12v87h-13l-5 -2
l-8 10h26v46q0 15 -1 34l21 -11l-7 -7v-62h7l9 10l11 -18h-27v-83zM181 64q13 19 25 45h-48q11 -30 23 -45zM210 235l5 9l14 -11l-6 -6v-41q0 -11 1 -20l-14 -6v8h-31q-15 0 -27 -4l-11 11h69v53h-34q-15 0 -27 -4l-11 11h72zM142 142q-1 -17 -8 -22.5t-12 0t4 12t12 29.5
l4 1v-13h84l6 11l15 -14q-9 -2 -26 -27l-3 3l8 20h-84zM145 107l-7 9h68l5 9l16 -14l-8 -5q-14 -32 -29 -50q11 -13 26 -21.5t30 -9.5v-4q-12 -2 -15 -13q-17 7 -29.5 18t-19.5 20q-32 -30 -72 -36l-1 5q41 14 64 41q-14 23 -21 53zM224 204l11 10l11 -17h-77q-11 1 -20 -2
l-8 9h83z" />
  </g>

</svg>
