<?xml version="1.0" standalone="no"?>
<!DOCTYPE svg PUBLIC "-//W3C//DTD SVG 1.1//EN" "http://www.w3.org/Graphics/SVG/1.1/DTD/svg11.dtd" >
<svg xmlns="http://www.w3.org/2000/svg" xmlns:xlink="http://www.w3.org/1999/xlink" version="1.1" viewBox="0 -205 1024 1024">
  <g transform="matrix(1 0 0 -1 0 819)">
   <path fill="currentColor"
d="M562 974l78 -28q6 -6 4 -8q-1 -3 -4 -6l-30 -14v-722l4 -125q0 -14 -20 -26q-18 -13 -36 -12l4 163v258h-70q-3 -166 -30 -248q-26 -81 -88 -145l-10 10q43 68 62 145t20 238h-14q-22 0 -34 -8l-24 36h188v158h-78l-26 -32l-56 42l26 26v242l78 -32q6 -6 -2 -12l-28 -12
v-194h86v306v0v0zM628 468h216v136l70 -28q16 -7 2 -16l-24 -10v-82h34l28 36l38 -44q8 -9 8 -12q1 -3 -4 -6h-104v-325q-1 -30 -16 -52q-15 -19 -50 -32q-15 36 -32 48q-18 13 -80 32l4 18q78 -15 102 -18q25 0 24 24v305h-138q-21 -1 -54 -10l-24 36v0v0zM662 382l10 10
q42 -30 66 -56q24 -24 30 -50q4 -24 -10 -38q-12 -16 -30 -10q-15 3 -18 30q0 27 -12 54q-9 24 -36 60v0v0zM756 858h142l30 28l58 -52q4 -9 -4 -12q-24 -8 -32 -16q-9 -8 -24 -46q-16 -36 -46 -86q-30 -48 -80 -98q-51 -48 -128 -92l-10 14q45 36 88 76q41 39 80 102
q39 61 70 158h-154l-18 -36q26 -9 56 -24q29 -14 40 -34q9 -19 0 -34t-24 -14q-15 0 -20 18q-4 14 -16 32q-9 18 -42 42q-28 -52 -52 -88q47 -30 64 -48q18 -15 18 -36q0 -18 -12 -26q-12 -10 -24 -4q-10 2 -14 20q-2 18 -10 36q-6 18 -32 42l-32 -40l-12 10q15 30 48 102
q33 71 90 230l68 -36q7 -6 2 -12q-16 -4 -26 -10q-9 -6 -42 -66v0v0zM282 954q6 -3 6 -8q6 -7 -8 -10q-12 -4 -24 -16q-10 -10 -38 -86h80l30 36l44 -38q8 -7 8 -14t-30 -22v-651q0 -33 -12 -58q-13 -24 -58 -36q-7 22 -34 40q-24 16 -84 28l2 18q72 -15 102 -18q38 0 38 31
v378h-142v-48q-7 -193 -44 -296q-35 -101 -94 -159l-12 10q50 76 74 173q24 96 30 286v34h-28q-13 -1 -40 -4l-20 30h88v318l44 -38h34q16 99 26 144l62 -24v0v0zM162 554h142v254h-142v-254v0v0zM200 764q44 -47 58 -76q12 -29 12 -46q0 -18 -12 -30q-9 -12 -26 -8
q-16 2 -14 26q3 24 -2 54q-4 27 -28 72l12 8v0v0zM206 482q39 -42 54 -84q15 -39 6 -60q-6 -21 -18 -26q-11 -6 -22 0q-12 6 -8 28q3 21 0 54q-3 31 -24 80l12 8v0v0z" />
  </g>

</svg>
