<?xml version="1.0" standalone="no"?>
<!DOCTYPE svg PUBLIC "-//W3C//DTD SVG 1.1//EN" "http://www.w3.org/Graphics/SVG/1.1/DTD/svg11.dtd" >
<svg xmlns="http://www.w3.org/2000/svg" xmlns:xlink="http://www.w3.org/1999/xlink" version="1.1" viewBox="0 -339 2048 2048">
  <g transform="matrix(1 0 0 -1 0 1709)">
   <path fill="currentColor"
d="M887 548q25 64 41 134q13 57 25 143h-128q-143 -4 -192 -9l-38 88q94 -22 230 -22h415l98 102l121 -107q13 -11 15 -16q2 -4 2 -10q0 -9 -7 -17q-8 -9 -20 -9h-395q-13 -51 -16 -67l-23 -120q-6 -31 -27 -90h627l98 102l121 -107q13 -12 15 -17q2 -4 2 -9q0 -10 -6 -17
q-8 -10 -21 -10h-861q-33 -68 -61 -105q-55 -76 -157 -142q-128 -84 -344 -141q-65 -18 -156 -35q-28 -5 -93 -17l-11 42q147 35 202 51q108 32 210 78q64 29 139 83q54 39 85 69q44 45 84 117h-423q-11 0 -132 -4q-34 -1 -60 -4l-38 88q52 -10 82 -14q62 -8 148 -8h449z
M1094 410q210 -36 340 -69q124 -31 238 -73q73 -27 109 -49q79 -47 79 -101q0 -27 -23 -45q-16 -13 -36 -13q-14 0 -35 10q-13 6 -79 51q-74 51 -165 98q-86 45 -173 74q-166 56 -268 80zM1410 1737l-15 -103q-3 -20 -7 -29.5t-13 -15.5q-14 -9 -37 -9q-26 0 -40 12
q-4 4 -7 10q-2 5 -1 9l1 5l18 121h-39q-38 0 -98 -5q-18 -1 -51 -6l-39 86q123 -18 188 -18h48l24 163l139 -30q23 -5 32 -17q5 -6 5 -13q0 -8 -8 -16q-11 -11 -29 -16l-55 -16l-8 -55h323l94 98l121 -103q13 -12 15 -16q2 -5 2 -10q0 -9 -6 -16q-9 -10 -22 -10h-535z
M578 1794l-19 163l98 -13q58 -8 73 -19q10 -7 12 -15q1 -6 -4 -14q-8 -14 -30 -22l-44 -15l7 -65h78l83 87l121 -92q17 -14 17 -27q0 -7 -6 -14q-8 -11 -22 -11h-265l12 -103q1 -6 -1 -16q0 -7 -2 -9.5t-8 -6.5q-19 -14 -45 -14q-18 0 -27 7q-6 6 -9 27l-13 115h-318
q-37 0 -97 -5q-18 -1 -51 -6l-39 86q123 -18 187 -18h312zM1242 1393l-39 86q125 -18 188 -18l245 1l84 68l69 -63q43 -39 58 -68q2 -4 1 -10q-1 -12 -19 -18q-11 -4 -44 -7q-24 -2 -51 -2q-71 -86 -115 -131q-56 -57 -129 -114q-18 -14 -54 -41q59 -46 101 -72
q107 -65 262 -111q77 -22 183 -40v-43q-35 -1 -56 -6t-41 -18q-19 -12 -29 -40q-97 32 -164 63q-173 82 -313 218q-87 84 -143 178q-32 52 -63 122l44 11q25 -45 45 -74q59 -85 139 -158q71 70 123 137q53 68 108 161h-241q-38 0 -98 -5q-18 -1 -51 -6zM472 1100l15 -29
q-45 -41 -78 -64q-36 -26 -81 -49q-13 -7 -44 -22q-33 -17 -59 -31q0 -43 -9 -56q-6 -10 -15 -10q-21 0 -45 46l-49 96q113 24 183 47q67 22 182 72zM384 1271q-46 -38 -94 -69q-46 -30 -80 -48q-16 -8 -50 -24l-24 41q81 54 114 80q90 71 165 173q37 49 61 93q12 23 34 70
l102 -36q32 -11 45 -24q9 -9 9 -17q0 -22 -46 -28l-34 -4l-32 -38h305l74 73l72 -53q27 -20 45 -43q8 -10 8 -20t-10 -17q-21 -16 -90 -19q-16 -24 -91 -146q-61 -97 -154 -188q-87 -84 -214 -168q-98 -65 -171 -98q-87 -38 -252 -90l-9 39q199 76 331 166q78 54 158 125
q23 21 46 44q-15 5 -20 8q-15 10 -35 41q-30 48 -78 100q-26 28 -44 45q-13 11 -41 32zM646 1089q60 66 104 129q57 81 102 165h-342l-91 -87q41 -21 65 -35q58 -36 71 -44.5t29 -21.5q50 -40 59 -68q3 -11 3 -38z" />
  </g>

</svg>
