<?xml version="1.0" standalone="no"?>
<!DOCTYPE svg PUBLIC "-//W3C//DTD SVG 1.1//EN" "http://www.w3.org/Graphics/SVG/1.1/DTD/svg11.dtd" >
<svg xmlns="http://www.w3.org/2000/svg" xmlns:xlink="http://www.w3.org/1999/xlink" version="1.1" viewBox="0 -36 256 256">
  <g transform="matrix(1 0 0 -1 0 220)">
   <path fill="currentColor"
d="M36 213h85v16h-45q-20 -1 -26 -3l-11 10h157l11 9l18 -16h-90v-16h88l7 7l16 -10q-6 -2 -12.5 -6.5t-17.5 -13.5l-3 1l10 15h-88q0 -30 1 -40l-16 -4q1 12 1 44h-85q0 -13 -8 -18t-13.5 -2t-1 6.5t9.5 9.5t8 18h5v-7zM50 199l1 3q30 -3 39.5 -5.5t8.5 -11t-12 -1.5
t-37 15zM43 159l-9 12q22 2 71 11l1 -3q-57 -17 -63 -20zM147 180l2 3q48 -6 56.5 -10t6.5 -11.5t-14.5 0.5t-50.5 18zM154 184l-1 4q28 9 45 20l11 -13h-6q-32 -7 -49 -11zM115 157l3 2q35 -10 29.5 -22.5t-12 -1t-20.5 21.5zM204 151l-9 -2q-6 -5 -22 -22h30l12 10l16 -17
h-67q-8 -4 -20 -13q14 -11 26 -25q21 19 30 34l17 -16l-10 -1l-20 -13q23 -34 51 -39v-4q-13 -1 -20 -9q-21 14 -36 49l-10 -6q9 -21 5 -40t-33 -29q-1 13 -25 21l1 3q25 -5 32.5 -3t10 11t-0.5 27q-28 -27 -70 -41l-2 3q39 19 67 51l-6 8q-23 -20 -56 -34l-2 4q29 15 50 41
l-4 5q-20 -12 -46 -20l-2 4q31 13 51 32h-18q-11 0 -21 -2l-10 9h71q12 14 21 35zM50 50v66q0 20 -1 42l22 -7l-8 -7v-19q27 -10 28.5 -17.5t-3.5 -12.5t-10 5.5t-15 20.5v-78q0 -16 1 -31l-15 -5q1 21 1 43zM37 121q1 -24 -5 -31.5t-14 -4.5t2 13t12 23h5z" />
  </g>

</svg>
