<?xml version="1.0" standalone="no"?>
<!DOCTYPE svg PUBLIC "-//W3C//DTD SVG 1.1//EN" "http://www.w3.org/Graphics/SVG/1.1/DTD/svg11.dtd" >
<svg xmlns="http://www.w3.org/2000/svg" xmlns:xlink="http://www.w3.org/1999/xlink" version="1.1" viewBox="0 -36 256 256">
  <g transform="matrix(1 0 0 -1 0 220)">
   <path fill="currentColor"
d="M68 14l-15 -7q1 46 1 118q-12 -36 -42 -68l-3 3q35 51 43 115h-10q-10 0 -19 -2l-9 9h40q0 29 -1 64l24 -10l-10 -7v-47h8l11 12l13 -19h-32v-27q16 -10 24.5 -18t2.5 -20.5t-11 2t-16 30.5q0 -108 1 -128zM177 92l-9 -7q-1 -12 6 -22q28 10 46 27l16 -17l-12 1
q-13 -7 -48 -17q24 -31 70 -33v-4q-17 -2 -19 -11q-49 17 -62 53q-13 -44 -85 -54v4q44 11 60.5 31.5t13.5 55.5zM94 87l1 3q22 -10 29.5 -18t2.5 -18.5t-11 3.5t-22 30zM150 132h33v75h-33v-75zM164 169q-5 11 -12 22l2 3q8 -9 14 -16q5 16 6 24l9 -12q-3 -2 -4.5 -5.5
t-6.5 -12.5q9 -11 10 -18t-1 -10t-4.5 2.5l-7.5 16.5q-8 -16 -18 -26l-1 3q9 14 14 29zM140 170q0 27 -1 53l10 -9h7q4 21 3 33l16 -10l-5 -2q-3 -9 -8 -21h19l5 9l11 -9l-4 -6v-63q0 -13 1 -23l-11 -3v6h-33v-4l-11 -4q1 26 1 53zM105 113q0 41 -2 84q0 7 -2 30l13 -8
q12 14 15 24l12 -15q-8 -3 -27 -15l1 -34h6l8 9l10 -16h-24q1 -11 1 -38h6l8 7l10 -14h-23v-12zM222 108l11 11l14 -18h-128q-10 0 -19 -3l-9 10h131zM150 132h33v75h-33v-75zM140 170q0 27 -1 53l10 -9h7q4 21 3 33l16 -10l-5 -2q-3 -9 -8 -21h19l5 9l11 -9l-4 -6v-63
q0 -13 1 -23l-11 -3v6h-33v-4l-11 -4q1 26 1 53zM222 116l-12 -2l1 17h-3l-4 -4l-8 11h15l1 37h-4l-5 -2l-7 9h16l1 36h-4l-9 -2l-8 9h19l9 9l13 -13l-8 -5q-2 -53 -3 -100z" />
  </g>

</svg>
