<?xml version="1.0" standalone="no"?>
<!DOCTYPE svg PUBLIC "-//W3C//DTD SVG 1.1//EN" "http://www.w3.org/Graphics/SVG/1.1/DTD/svg11.dtd" >
<svg xmlns="http://www.w3.org/2000/svg" xmlns:xlink="http://www.w3.org/1999/xlink" version="1.1" viewBox="0 0 2048 2048">
  <g transform="matrix(1 0 0 -1 0 2048)">
   <path fill="currentColor"
d="M1515 1110v-290h214l97 99l121 -107q8 -8 13 -16q5 -7 2 -18q-4 -10 -12 -13t-15 -3h-420v-238q0 -27 4 -88t8 -94t3 -48q-2 -11 -6 -20q-3 -8 -14 -14q-10 -7 -29 -8q-22 -2 -35 3t-20 15t-7 24v468h-146q-44 0 -110 -4q-66 -3 -68 -3l-14 -1l-34 87q45 -10 84 -15
q39 -6 142 -6h146v290h-180v-38q0 -11 -11 -20q-12 -9 -37 -11t-41 10q-10 6 -14 15q-3 8 -2 26q0 6 3 36q3 29 5 74q3 46 3 127v521l114 -60h455l61 71l72 -49q16 -12 27 -24q12 -11 14 -22q2 -12 -7 -23q-3 -4 -31 -19l-27 -14v-470q0 -19 1 -53q2 -34 5 -59t3 -36
q-2 -19 -12 -32q-9 -14 -44 -17q-21 -3 -34 5q-13 7 -13 20v42h-214zM1239 1479h490v253h-490v-253zM1239 1164h490v261h-490v-261zM175 1375q-39 -33 -47 -38l-49 -33l-22 36l57 55q33 32 62 63q30 31 71 88q41 56 72 106t53 91q21 41 40 88t27 74l14 47l123 -46
q38 -15 42 -31t-3 -24t-32 -14l-41 -11q-27 -43 -31 -49l-45 -73h300l64 72l114 -79q15 -12 18 -27q4 -16 -5 -27t-34 -15q-25 -5 -26 -5l-23 -7l-73 -93q-36 -45 -66 -77l-88 -94h247l54 73l91 -59q21 -14 19 -31t-7 -24t-40 -31l-12 -8v-376l23 -27q15 -18 10 -29t-18 -11
h-238v-541q0 -40 17 -58t44 -25t87 -13q59 -5 94 -5h455q106 0 167 4t98 9q38 6 60 18q23 13 34 28q10 16 25 76l47 190l34 -8l-13 -142q-5 -44 -5 -67q1 -23 12 -39q10 -17 30 -34q21 -18 26 -34q6 -16 -33 -41q-18 -12 -61 -20q-42 -8 -66 -11q-25 -4 -70 -8t-124 -7
q-78 -3 -152 -3h-401q-98 0 -181 6t-112 16q-30 9 -50 22q-21 13 -32 28q-10 14 -18 40q-7 25 -7 60v559h-63q-6 -31 -12 -57q-5 -25 -12 -52q-6 -26 -22 -78q-17 -52 -40 -107q-24 -55 -66 -119q-42 -63 -84 -112q-42 -48 -86 -90q-45 -43 -93 -84q-48 -40 -78 -61l-46 -33
l-22 33l67 58q30 27 64 63q35 35 77 86q42 50 73 94q30 44 56 88q25 44 41 78t32 80q16 45 25 76q10 31 14 52l10 45l8 40h-255v-31q0 -13 -5 -22q-6 -9 -20 -15t-42 -3q-13 1 -22 5t-14 17q-5 12 -3 31l5 51q1 14 2 30l1 36l4 79v368zM643 1300q-4 -58 -4 -87l-3 -125
q-2 -41 -5 -94q-3 -54 -5 -86l-2 -23h281v415h-262zM269 885h263q2 31 3 53l5 108q4 86 5 112l2 142h-278v-415zM203 1402l90 -50h296q75 119 89 144l88 155h-335l-83 -107q-38 -47 -81 -86l-32 -28z" />
  </g>

</svg>
