<?xml version="1.0" standalone="no"?>
<!DOCTYPE svg PUBLIC "-//W3C//DTD SVG 1.1//EN" "http://www.w3.org/Graphics/SVG/1.1/DTD/svg11.dtd" >
<svg xmlns="http://www.w3.org/2000/svg" xmlns:xlink="http://www.w3.org/1999/xlink" version="1.1" viewBox="0 -36 256 256">
  <g transform="matrix(1 0 0 -1 0 220)">
   <path fill="currentColor"
d="M25 171q0 32 -1 65l13 -7h59l9 9l14 -16h-42v-28h14l8 9l13 -16h-35v-28h12l9 9l13 -16h-34v-30l22 1l8 9l13 -13l-7 -6q-4 -59 -8 -73.5t-10 -21.5t-17 -9q0 12 -25 18l1 4q23 -3 29 -2t10 15t7 72l-62 -2v-6l-14 -4q1 35 1 67zM38 194h26v28h-26v-28zM38 159h26v28h-26
v-28zM38 121l26 1v30h-26v-31zM24 91q4 -21 2 -29.5t-6 -12.5t-8.5 -0.5t2 12.5t6.5 30h4zM36 94q9 -10 12 -18.5t1.5 -14.5t-7 -7t-4.5 10.5t-6 28.5zM52 99q19 -15 22 -22t0 -11t-7 -4.5t-5 8t-12 27.5zM73 104q13 -9 17 -16.5t3 -12t-5.5 -7t-6.5 7t-11 26.5zM220 227
l20 -9l-6 -6q0 -28 1 -43l-14 -6v9h-81l-7 -6l-13 11l6 6q0 29 -1 46l21 -9l-7 -7v-34h34v39q0 12 -1 28l20 -9l-6 -7v-51h35q0 27 -1 48zM205 154l8 7l13 -14l-8 -5q-6 -11 -18 -36h18l9 8l12 -14l-8 -4q-12 -25 -31 -47q6 -7 19 -14.5t29 -9.5v-4q-12 0 -19 -11
q-24 13 -39 30q-10 -10 -26.5 -19t-38.5 -13l-1 3q11 4 28.5 14.5t29.5 23.5q-22 32 -29 72q-4 -42 -10 -58t-18 -31t-31 -25l-1 3q17 13 29 35t15.5 49.5t4.5 52.5h-3q-8 0 -14 -2l-7 9h87zM154 126q9 -23 17.5 -39t19.5 -28q14 15 27 40h-20l-6 -5l-10 11l7 4l16 38h-50
q-1 -14 -1 -21z" />
  </g>

</svg>
