<?xml version="1.0" standalone="no"?>
<!DOCTYPE svg PUBLIC "-//W3C//DTD SVG 1.1//EN" "http://www.w3.org/Graphics/SVG/1.1/DTD/svg11.dtd" >
<svg xmlns="http://www.w3.org/2000/svg" xmlns:xlink="http://www.w3.org/1999/xlink" version="1.1" viewBox="0 -52 256 256">
  <g transform="matrix(1 0 0 -1 0 204)">
   <path fill="currentColor"
d="M89 197l16 -8l2 -2q0 -1 -1 -1q-8 -1 -16 -18q-1 -4 -2 -5h45l8 10l17 -12l1 -1q1 0 1 -1l-3 -1h-31v-36h11l6 8l16 -10q1 -1 1 -2h-3h-31v-38h9l5 8l17 -11q2 0 2 -1h-3h-30v-38h13l5 7l16 -9q1 -1 1 -2h-3h-69v-14q0 -9 -12 -12q2 10 2 35v103q-12 -21 -21 -27l-3 2
q23 37 34 67q0 4 -3 7zM251 23v-4h-12q-4 0 -9 -5q-16 15 -27 27q-4 6 -7 11l-6 -6q-21 -23 -59 -39l-1 4q29 16 50 39q1 1 3 4q2 2 7 9q-3 6 -6 13q-9 21 -13 52q-4 0 -7 -3l-9 9h59l7 9l14 -11q2 0 1 -2l-1 -1q-4 -1 -6 -3l-1 -3q-2 -7 -3 -12q-1 -4 -5 -13q-5 -12 -8 -19
q-4 -9 -10 -17q1 -1 1 -2q2 -2 4 -5q18 -23 44 -32zM71 110l1 -1v-1l-2 -1q-5 0 -8 -6q-5 -67 -52 -86l-2 3q38 23 43 75q-3 -1 -8 -1q-20 -3 -27 -9l-8 13q13 2 29 31q1 2 2 3l6 11h-3q-24 0 -27 -9l-8 14q1 0 3 1q5 0 6 2q14 22 23 45q1 3 -2 6l2 2l17 -10l2 -2
q-8 -2 -10 -4q-1 -2 -4 -6q-11 -17 -24 -34h28q4 8 6 15q0 3 -2 5l2 2l16 -8l2 -2q0 -2 -2 -2q-7 0 -11 -9q-2 -3 -3 -5q-2 -2 -9 -13t-11 -18l-10 -14l26 2q0 4 1 7q-1 5 -3 8l2 2zM166 240l10 -8h28l6 7l13 -10q1 -1 -2 -3l-4 -2v-46q0 -9 3 -11q4 -1 11 -1q5 1 8 3l1 1
q5 -3 9 -6q3 -3 -1 -5q-5 0 -8 -2q-11 -2 -23 0q-11 2 -10 19v51h-27q2 -30 -4 -53q-4 -25 -24 -37l-2 3q14 15 18 37q3 26 2 51q-1 5 -6 10zM193 77q2 -2 2 -5q4 7 7 14q11 22 15 43h-41q1 -6 4 -16l3 -12q4 -12 10 -24zM116 76h-27v-38h27v38zM116 118h-27v-38h27v38z
M116 158h-27v-36h27v36zM9 214h119l10 13l19 -14q2 -1 2 -3l-3 -1h-129q-5 0 -10 -3zM59 248l1 3q32 -9 31 -24q0 -7 -5 -8h-1q-3 0 -5 6q0 11 -21 23zM110 203q24 -15 23 -27q0 -7 -6 -8q-4 0 -5 9q-1 5 -2 8q-3 6 -12 16z" />
  </g>

</svg>
