<?xml version="1.0" standalone="no"?>
<!DOCTYPE svg PUBLIC "-//W3C//DTD SVG 1.1//EN" "http://www.w3.org/Graphics/SVG/1.1/DTD/svg11.dtd" >
<svg xmlns="http://www.w3.org/2000/svg" xmlns:xlink="http://www.w3.org/1999/xlink" version="1.1" viewBox="0 0 2048 2048">
  <g transform="matrix(1 0 0 -1 0 2048)">
   <path fill="currentColor"
d="M261 826q-2 -24 -2 -35l-3 -75q-2 -20 -6 -68q-3 -48 -8 -94q-6 -45 -16 -99t-23 -104t-30 -100t-39 -100l-27 -59l-16 -36l-36 13q10 34 23 74t20 64q6 24 18 83q13 59 18 92q4 34 12 99q7 65 8 83l6 106l4 74q4 75 4 133v837q0 27 -4 76q-3 48 -4 57l-5 41l110 -79h316
l68 76l81 -54q27 -19 34 -27q8 -8 8 -22q1 -14 -10 -26t-31 -19l-35 -13v-1498q0 -39 -10 -66t-28 -46q-19 -18 -46 -34q-28 -15 -39 -17l-35 -8q-1 17 -4 35t-16 36q-14 18 -44 32t-78 23l-61 11l8 42q49 -9 74 -12l53 -7q49 -8 75 -9t41 13t15 45v691l-47 -35
q-36 -27 -90 -61t-60 -40l-25 -22l5 -42q1 -15 -6 -23q-6 -8 -18 -7q-11 0 -22 8q-12 8 -21 21zM264 1751v-360q30 -6 58 -11q29 -5 49 -10q20 -4 63 -14.5t74 -19.5q32 -10 56 -28q24 -17 28 -27l9 -21v490zM263 1344v-342l-1 -120v-23q22 7 33 11l66 28q55 22 70 29t69 34
l75 37l26 13v210q-6 -17 -13 -25q-6 -7 -18 -12q-11 -4 -24 -2q-13 3 -21 8q-8 6 -26 24q-18 19 -42 36.5t-51 32.5t-54 27t-57 23zM1186 1452l32 56q18 32 34 64q16 31 38 85t36 95q15 42 21 64l16 57l109 -45q32 -14 42 -24q11 -11 7 -26q-4 -14 -16 -18t-42 -7l-28 -3
l-41 -76q-21 -37 -44 -74q-24 -38 -71 -102l-32 -44q13 -12 20 -17l34 -28l57 -50q30 -26 50 -49q21 -22 40 -50q20 -28 34 -62q15 -34 16 -74q1 -41 -12 -59q-12 -18 -36 -19q-24 -2 -37.5 16t-19.5 42l-13 52q-12 43 -25 70q-13 26 -35 62q-21 37 -33 53t-35 43
q-22 26 -26 30zM798 1459l29 49q15 27 36 68t41 88q19 48 35 94q16 47 21 65l15 57l100 -40q37 -16 49 -30t6 -28q-5 -12 -24 -18q-18 -5 -31 -5l-28 -2l-25 -48q-13 -25 -58 -97q-45 -73 -72 -108l-33 -43l56 -47q28 -22 56 -48q28 -25 49 -48t40 -52q20 -28 34 -60
q14 -33 16 -74q2 -42 -10 -60t-36 -20q-25 -2 -39 16q-14 19 -20 43l-12 52q-10 36 -27 72t-34 65q-18 29 -38 54q-19 26 -36 44zM1568 1462l28 48q15 26 36 68q22 42 40 86q19 45 36 92q16 47 21 64l15 56l101 -39q36 -15 49 -29q13 -13 9 -27q-5 -13 -19 -17
q-15 -4 -39 -6l-28 -3l-41 -75q-21 -37 -50 -82q-30 -46 -65 -91l-33 -42q13 -12 20 -17l34 -28l54 -48q33 -29 54 -52q22 -22 40 -46q18 -25 34 -62t16 -78q-1 -27 -14 -48q-13 -20 -40 -19q-21 0 -34 15q-12 15 -18 39l-13 55q-8 26 -25 65q-18 39 -31 61t-31 45l-41 48
q-22 25 -26 30zM1392 819v-641h354l98 102l121 -107l15 -15q4 -6 1 -18q-3 -11 -11 -15q-9 -4 -15 -4h-984q-120 0 -178 -7l-14 -1l-38 88q13 -4 29 -7q15 -4 63 -10t138 -6h321v641h-245q-42 0 -109 -3q-67 -4 -70 -4l-13 -1l-38 88q13 -4 28.5 -7.5t62.5 -9.5
q46 -6 139 -6h607l99 102l120 -107q8 -8 13 -15q6 -8 3 -19q-3 -10 -12 -14t-14 -4h-471z" />
  </g>

</svg>
