<?xml version="1.0" standalone="no"?>
<!DOCTYPE svg PUBLIC "-//W3C//DTD SVG 1.1//EN" "http://www.w3.org/Graphics/SVG/1.1/DTD/svg11.dtd" >
<svg xmlns="http://www.w3.org/2000/svg" xmlns:xlink="http://www.w3.org/1999/xlink" version="1.1" viewBox="0 -205 1024 1024">
  <g transform="matrix(1 0 0 -1 0 819)">
   <path fill="currentColor"
d="M484 938l58 -42h286l34 42l52 -36q12 -6 12 -14q0 -6 -32 -30v-218l6 -84q-1 -13 -20 -22q-18 -8 -36 -10v38h-308v-4q0 -7 -12 -14q-13 -12 -44 -12l4 108v298v0v0zM536 588h308v122h-308v-122v0v0zM536 736h308v134h-308v-134v0v0zM718 532l74 -30q21 -10 0 -20
l-26 -12v-178q74 66 160 166q70 -42 66 -48q-3 -8 -8 -6q-4 1 -22 -4q-19 -5 -56 -34q-37 -27 -140 -104v-125q0 -33 12 -36t24 -4h102q23 5 28 22q5 15 10 147h20q3 -66 6 -96t34 -41q-6 -33 -24 -54q-19 -18 -62 -22h-124q-30 0 -44 6q-13 6 -22 24q-9 15 -8 50v399v0v0z
M480 522l76 -26q8 0 8 -6q6 -3 -6 -12l-28 -12v-92h82l36 46l52 -56q2 -3 2 -8q1 -7 -4 -8h-168v-227l162 85l12 -14q-129 -85 -158 -113q-27 -24 -44 -48l-58 60q30 15 36 30v401v0v0zM148 680h190l34 46l56 -56q6 -15 -2 -18h-152v-126h78l36 44l52 -52q15 -12 0 -20h-166
v-296l162 34l6 -18q-249 -76 -284 -91t-58 -36l-44 65l168 36v306h-88q-21 0 -56 -8l-16 36h160v126h-36l-20 -6l-20 34v0v0zM74 416l10 10q54 -42 78 -66q21 -25 28 -52q6 -27 -8 -42q-13 -16 -28 -10q-14 5 -16 26q0 21 -14 52q-15 30 -50 82v0v0zM288 260q56 96 86 184
l66 -36q4 -9 -4 -12q-9 -3 -20 -6q-9 -3 -36 -38q-24 -33 -78 -102l-14 10v0v0zM28 568q65 91 118 182q53 89 110 220l70 -30q3 -9 -2 -12q-4 -4 -14 -8q-10 -3 -26 -24q67 -33 104 -56q35 -25 46 -46t2 -38q-10 -19 -26 -16q-15 1 -30 26q-12 23 -36 52q-21 26 -72 62
q-39 -75 -102 -168q-64 -92 -130 -154l-12 10v0v0z" />
  </g>

</svg>
