<?xml version="1.0" standalone="no"?>
<!DOCTYPE svg PUBLIC "-//W3C//DTD SVG 1.1//EN" "http://www.w3.org/Graphics/SVG/1.1/DTD/svg11.dtd" >
<svg xmlns="http://www.w3.org/2000/svg" xmlns:xlink="http://www.w3.org/1999/xlink" version="1.1" viewBox="0 -205 1024 1024">
  <g transform="matrix(1 0 0 -1 0 819)">
   <path fill="currentColor"
d="M356 970l84 -36q6 -1 6 -10q0 -3 -36 -20v-74h212v134l84 -34q6 -1 6 -10q0 -3 -36 -18v-72h204l38 52l70 -64q3 -1 4 -8q0 -6 -14 -6h-302v-36l2 -42q-1 -15 -22 -26q-21 -12 -38 -12l4 88v28h-212v-16l4 -38q-3 -16 -20 -28q-15 -12 -42 -12l4 76v18h-236
q-21 -1 -62 -10l-24 36h322v140v0v0zM562 680q87 -28 94 -34q3 -9 -8 -14l-32 -16v-220q114 93 210 208q69 -44 70 -52q-1 -6 -4 -8q-3 -3 -24 -2q-21 0 -86 -60q-64 -58 -166 -136v-211q0 -33 12 -36q12 -2 24 -2h190q43 1 56 22q15 18 24 173h18l4 -88q0 -70 36 -81
q-16 -33 -38 -52q-19 -19 -70 -20h-224q-30 -1 -50 4q-18 6 -26 20t-10 58v179q-64 -38 -104 -58q-39 -18 -114 -54l-6 14q59 35 106 64q45 27 118 84v318v0v0zM412 654q7 -4 6 -10q-1 -4 -16 -8q-15 -2 -26 -16t-76 -100v-360l4 -87q3 -15 -20 -30q-21 -13 -36 -14l4 135
v296q-76 -100 -200 -208l-12 12q137 147 206 252q66 102 102 178l64 -40v0v0z" />
  </g>

</svg>
