<?xml version="1.0" standalone="no"?>
<!DOCTYPE svg PUBLIC "-//W3C//DTD SVG 1.1//EN" "http://www.w3.org/Graphics/SVG/1.1/DTD/svg11.dtd" >
<svg xmlns="http://www.w3.org/2000/svg" xmlns:xlink="http://www.w3.org/1999/xlink" version="1.1" viewBox="0 -36 256 256">
  <g transform="matrix(1 0 0 -1 0 220)">
   <path fill="currentColor"
d="M67 18l-16 -7q1 46 1 116q-12 -34 -41 -66l-3 3q32 48 42 113h-10q-11 0 -20 -2l-9 9h41q0 29 -1 62l25 -10l-10 -7v-45h10l11 12l18 -19h-39v-27q20 -11 29.5 -19.5t3.5 -20t-12.5 3t-20.5 30.5q0 -106 1 -126zM129 135h82v30h-82v-30zM129 172h81l7 7l16 -11l-8 -5v-21
q0 -9 1 -19l-15 -4v9h-82v-6l-14 -3q1 14 1 31t-1 26zM112 178l-10 20q12 1 29.5 18t24.5 31l19 -12q-10 -4 -23 -13.5t-33 -26.5l96 4q-6 8 -21 20l3 3q35 -16 40.5 -24t0.5 -15.5t-8.5 -1.5t-11.5 13q-84 -5 -106 -16zM160 126l25 -10l-10 -6v-14h42l14 11l16 -18h-72v-56
q2 -19 -20 -25q-1 14 -29 19v5q35 -6 35 4v53h-44q-10 0 -20 -3l-9 10h73q0 12 -1 30zM78 30q35 21 52 50l17 -18l-12 -2q-30 -25 -55 -34zM189 75q32 -14 44 -22t9 -21t-14.5 2.5t-40.5 37.5z" />
  </g>

</svg>
