<?xml version="1.0" standalone="no"?>
<!DOCTYPE svg PUBLIC "-//W3C//DTD SVG 1.1//EN" "http://www.w3.org/Graphics/SVG/1.1/DTD/svg11.dtd" >
<svg xmlns="http://www.w3.org/2000/svg" xmlns:xlink="http://www.w3.org/1999/xlink" version="1.1" viewBox="0 -144 1024 1024">
  <g transform="matrix(1 0 0 -1 0 880)">
   <path fill="currentColor"
d="M220 133l56 -31l-7 -11l-8 -11l-9 -10l-10 -8l-11 -7l-11 -6l-13 -5l-13 -3l-12 -2l-14 -1v32l-75 16v16h75l8 1l6 1l11 3l5 3l5 3l4 4l5 4zM549 430l-4 -56l-8 -52l-12 -50l-17 -45l-21 -41l-25 -37l-29 -32l-33 -27l-38 -23l-41 -17l-4 9l34 25l30 28l26 29l22 32
l18 34l15 38l10 41l8 45l4 48v51h65zM712 667h-163v-237h-65v291l65 -33h163l32 27l59 -48l-27 -22v-479l1 -5l1 -3l1 -2l1 -1l1 -1l5 -2l5 -1h7h119l32 134h10l-10 -134l19 -13l13 -19l-13 -20l-19 -13h-151l-14 1l-14 3l-13 4l-12 7l-11 8l-8 11l-7 13l-4 12l-3 14v13v495
zM272 104l-3 2l-3 1l-3 2l-5 3l-2 1l-10 6l-3 1l-2 1l-21 12l14 35l14 57l9 74l3 86l-5 94l-4 21l-21 -38l-24 -37l-26 -35l-27 -34l-30 -33l-31 -30l-34 -28l-36 -26l-6 7l55 67l50 67l43 71l19 36l17 38l29 78l4 -2l-20 77l-13 30l-25 -27l-36 -34l-37 -31l-39 -26
l-41 -24l-6 8l67 64l31 34l30 36l36 49l-7 19l-55 92l-69 88l6 7l86 -77l64 -93l22 36l25 45l24 47l25 57l56 -33l10 -17l-20 -2l-45 -81l-29 -45l-31 -43l-13 -15l23 -50l34 -110l4 -1l-3 -5l18 -91l9 -99v-91l-8 -79l-12 -65l-18 -49l-2 1zM315 742l46 -45l-23 -9l-23 9
l-9 22zM361 697l-46 45l7 6l8 10l8 13l7 17l7 20l7 23l5 27l6 29l5 33l4 36h9l5 -36l3 -26h505l32 27l59 -48l-27 -16l-14 -6l-29 -49l-34 -49l-26 -37l-9 5l8 21l12 41l16 54l8 31l1 5h-501l1 -18v-29l-2 -26l-3 -25l-5 -22l-6 -20l-10 -19z" />
  </g>

</svg>
