<?xml version="1.0" standalone="no"?>
<!DOCTYPE svg PUBLIC "-//W3C//DTD SVG 1.1//EN" "http://www.w3.org/Graphics/SVG/1.1/DTD/svg11.dtd" >
<svg xmlns="http://www.w3.org/2000/svg" xmlns:xlink="http://www.w3.org/1999/xlink" version="1.1" viewBox="0 -36 256 256">
  <g transform="matrix(1 0 0 -1 0 220)">
   <path fill="currentColor"
d="M212 229l8 10l17 -15l-8 -5q-6 -60 -13 -75.5t-26 -22.5q-4 17 -27 22l1 4q14 -2 23 -4t15.5 9.5t11.5 69.5h-46q-1 -28 -11.5 -54.5t-44.5 -47.5l-2 5q23 17 32.5 42t10.5 55h-11q-10 0 -19 -2l-9 9h98zM209 118l11 9l15 -14l-8 -6q-2 -65 -12.5 -80.5t-30.5 -20.5
q2 15 -26 21v5q15 -3 25.5 -4t17.5 9t11 74h-53q-6 -30 -20.5 -57t-59.5 -46l-2 4q33 18 47 43.5t16 55.5h-15q-10 0 -20 -2l-11 9h115zM111 87l1 -4q-89 -36 -91 -44l-13 18q31 7 45 12v71h-8q-11 0 -21 -2l-10 9h39v65h-11q-11 0 -21 -2l-10 9h74l16 12l15 -19h-48v-65h13
l13 12l17 -19h-43v-67z" />
  </g>

</svg>
