<?xml version="1.0" standalone="no"?>
<!DOCTYPE svg PUBLIC "-//W3C//DTD SVG 1.1//EN" "http://www.w3.org/Graphics/SVG/1.1/DTD/svg11.dtd" >
<svg xmlns="http://www.w3.org/2000/svg" xmlns:xlink="http://www.w3.org/1999/xlink" version="1.1" viewBox="0 -339 2048 2048">
  <g transform="matrix(1 0 0 -1 0 1709)">
   <path fill="currentColor"
d="M618 1455q-60 -56 -97 -85q-34 -26 -96 -62q0 -65 -2 -121q-1 -20 -10 -187q-6 -105 -11 -149q-3 -28 -13 -84q61 -41 77 -53q47 -35 90 -85q63 -71 63 -129q0 -32 -19 -55q-12 -15 -29 -15q-16 0 -26 10q-13 13 -23 39l-18 47q-13 35 -36 75q-16 28 -42 59
q-14 18 -48 58q-18 -88 -31 -137q-45 -159 -121 -297q-35 -63 -71 -111q-19 -27 -58 -70l-32 30q54 83 71 115q34 61 69 151q67 170 99 408q13 101 18 230q8 197 8 271v406q-4 113 -11 167q-2 14 -6 36l106 -17q75 -12 87 -24q7 -7 7 -17q0 -8 -4 -13q-7 -11 -20 -17
l-64 -26v-437q47 52 68 79q30 40 84 136l77 -49q43 -26 59 -47q4 -4 4 -11q0 -8 -9 -14q-5 -4 -12 -5h-28h-50zM106 1532q40 -47 65 -83q31 -47 61 -104q30 -55 44 -108q12 -43 12 -77q0 -23 -11 -42q-6 -10 -18 -17q-13 -7 -27 -7q-17 0 -25 8q-14 12 -17 30q-4 21 -10 82
q-6 69 -41 166q-18 51 -34 83q-9 17 -28 47zM735 1863l25 25q70 -56 111 -101q42 -45 67 -87q31 -53 31 -99q0 -20 -10 -39q-8 -15 -22 -22q-10 -6 -21 -6q-24 0 -34 20q-6 12 -8 26l-7 34q-10 49 -29 90q-31 70 -103 159zM683 1297l-41 87q62 -9 88 -12q56 -6 100 -6h54
l60 65l92 -82q12 -11 18 -26q3 -6 3 -13q0 -8 -6 -15q-8 -11 -21 -16l-65 -22q-20 -50 -73 -171q-42 -100 -55 -129h113l55 72l97 -68q15 -11 20 -20q2 -3 2 -6q-1 -9 -9 -18q-10 -10 -24 -16l-40 -17q-20 -104 -32 -157q-29 -119 -87 -218q-27 -45 -78 -114q44 -45 80 -70
q63 -41 155 -61q110 -24 259 -30q83 -4 181 -4q223 0 453 19v-33q-28 -7 -43 -15q-27 -15 -39 -37q-7 -12 -9 -40q-182 0 -300 2q-209 5 -306 12q-165 12 -265 58q-48 22 -100 59q-43 31 -68 60q-23 27 -35 27q-11 0 -34 -19q-11 -10 -41 -41l-59 -61v-36q0 -22 -8 -31
q-4 -4 -9 -4t-12 4q-10 8 -17 18l-79 110q36 17 70 35q12 6 92 49q65 37 89 51q24 41 36 65.5t25 58.5q36 94 59 207q12 57 25 153h-141q-7 -6 -10.5 -8t-11.5 -4q-11 -2 -21 -2q-24 0 -37 11q-9 7 -10 15q-1 7 6 20q4 10 13 32l142 343h-54q-21 0 -81 -4q-18 -1 -66 -7z
M1451 1938l108 -24q58 -13 71 -23q14 -10 14 -23q0 -12 -10 -21q-7 -7 -38 -19l-40 -16v-140h213l80 81l114 -86q17 -13 17 -26q0 -9 -6 -16q-9 -10 -21 -10h-397v-183h180l68 76l80 -54q28 -19 34 -29q6 -9 6 -19q0 -16 -12 -27q-11 -10 -31 -19q-15 -7 -36 -16v-336
q0 -44 2 -73l5 -80v-16q0 -25 -11 -36q-20 -19 -52 -19q-20 0 -34 10q-5 4 -5 13v37h-194v-201h200l81 79l115 -85q15 -11 15 -26q0 -9 -6 -15q-9 -10 -21 -10h-384l1 -174q0 -17 3 -63q2 -17 2 -32q0 -21 -7 -31q-9 -13 -33 -20q-15 -4 -28 -4q-37 0 -37 28v296h-172
q-116 0 -192 -8l-38 88q30 -7 52 -11q72 -12 178 -12h172v201h-189v-41q0 -17 -14 -27q-15 -10 -41 -10t-39 9q-9 7 -9 33l8 158v530l119 -64h165v183h-168q-116 0 -192 -8l-38 88q30 -7 52 -11q72 -12 178 -12h168v128q0 95 -6 138zM1556 1378v-204h194v204h-194z
M1268 1174h189v204h-189v-204zM1457 900v217h-189v-217h189zM1556 1117v-217h194v217h-194z" />
  </g>

</svg>
