<?xml version="1.0" standalone="no"?>
<!DOCTYPE svg PUBLIC "-//W3C//DTD SVG 1.1//EN" "http://www.w3.org/Graphics/SVG/1.1/DTD/svg11.dtd" >
<svg xmlns="http://www.w3.org/2000/svg" xmlns:xlink="http://www.w3.org/1999/xlink" version="1.1" viewBox="0 -36 256 256">
  <g transform="matrix(1 0 0 -1 0 220)">
   <path fill="currentColor"
d="M96 138l-10 10h41q3 16 4 42l21 -9l-7 -5q-1 -16 -4 -28h62l13 13l16 -20h-92q-3 -12 -11 -32q-16 -34 -50 -56l-3 3q39 41 49 85h-16zM172 181l2 4q27 -7 29.5 -15t-3.5 -14.5t-9.5 5t-18.5 20.5zM126 208h-39q0 -7 1 -20l-16 -6q1 16 1 26h-26q-11 0 -20 -2l-10 9h56
q0 20 -1 31l23 -8l-8 -7v-16h13l13 11zM159 210q-10 0 -20 -2l-9 9h34q0 15 -1 28l24 -9l-8 -7v-12h30l13 11l15 -18h-58q-1 -3 1 -20l-17 -5q1 21 1 25h-5zM42 192q16 -10 23.5 -19t0.5 -18.5t-10.5 3.5t-16.5 31zM227 11q-102 -2 -129 6.5t-43 18.5q-11 -15 -18 -28l-15 8
q11 12 20 22q8 6 15 23t7 22h-17l-8 -7l-10 14l9 4q10 15 19 36h-18l-11 -3l-10 10h42l7 6l11 -12l-7 -4l-22 -37h16l8 7l11 -13l-7 -5q-1 -4 -6.5 -16t-10.5 -21q18 -7 42 -11.5t47.5 -4.5t97.5 4v-5q-19 -2 -20 -14zM195.5 105q-7.5 -17 -18.5 -32q24 -20 61 -24v-5
q-15 1 -20 -11q-25 8 -50 30q-26 -23 -62 -35l-2 4q35 17 56 42q-14 23 -23 51l4 2q13 -26 27 -42q19 28 22 51l19 -12q-6 -2 -13.5 -19z" />
  </g>

</svg>
