<?xml version="1.0" standalone="no"?>
<!DOCTYPE svg PUBLIC "-//W3C//DTD SVG 1.1//EN" "http://www.w3.org/Graphics/SVG/1.1/DTD/svg11.dtd" >
<svg xmlns="http://www.w3.org/2000/svg" xmlns:xlink="http://www.w3.org/1999/xlink" version="1.1" viewBox="0 -144 1024 1024">
  <g transform="matrix(1 0 0 -1 0 880)">
   <path fill="currentColor"
d="M860 599h-123v22h123v248l64 -11l17 -10l-17 -10v-202l13 17l33 -32v-22h-46v-485l-1 -14l-2 -14l-4 -13l-7 -12l-9 -11l-10 -8l-13 -7l-13 -5l-13 -2h-14v32l-107 16v16h114l5 1l3 1l2 1l1 1l1 1l1 5l1 5l1 7v485zM551 116v95l-7 -2l-8 -18l-17 -36l-21 -35l-18 -26h49
l7 1h5l3 2l1 1l2 1h1v2l1 4l1 4zM386 933l49 -24h403l54 54l65 -54v-22h-522v-328l-2 -75l-4 -70l-6 -66l-7 -61l-8 -55l-10 -50l-13 -46l-14 -41l-17 -34l-18 -30l-7 4l11 31l10 36l9 40l9 45l6 50l5 55l4 59l3 65l1 69l-1 74v374zM257 127l58 -26l-6 -12l-7 -11l-8 -10
l-10 -10l-11 -8l-11 -6l-12 -5l-13 -4l-13 -1l-14 -1v32l-86 16v16h86l8 1l6 1l5 1l5 2l4 3l4 2l4 4l4 4l4 6zM666 107l-3 16l-3 16l-4 16l-8 29l-17 43l-8 13l7 6l25 -20l12 -12l11 -13l10 -13l11 -15l17 -32l7 -17l7 -18l-3 -24l-20 -16l-24 5l-15 20zM257 127l56 -25
l2 -1l9 24l9 25l6 29l5 32l5 34l3 36l2 41l1 42v46v21l26 16l-59 48l-32 -27h-46v124h105v21l-43 38l-34 -38h-28v124h105v21l-43 38l-34 -38h-28v129h108v22l-53 48l-44 -48h-134l-59 29v-521l59 30h169v-43h1v-39l-1 -41l-1 -7l-2 4l-6 14l-7 13l-8 11l-18 22l-10 9l-10 9
l-12 7l-10 8l-7 -7l8 -9l9 -24l4 -11l3 -11l3 -11l1 -12l2 -22v-12l14 -20l24 -5l20 14l-2 -33l-5 -31l-4 -28l-6 -25l-6 -22zM33 157l51 -40l-21 -12l-24 7l-12 21zM84 117l-31 24l-12 9l-1 1l-2 2l-1 1l-1 1l-3 2l6 6l7 10l6 14l6 18l6 21l5 24l4 27l4 30l3 33l3 37h9
l7 -36l5 -34l2 -31l2 -29v-27l-1 -24l-3 -23l-5 -20l-6 -19zM115 187l64 -8l-13 -21l-23 -7l-21 13zM131 362l-9 -3l3 -20l1 -20v-20l1 -18l-1 -18l-1 -17l-2 -16l-2 -15l-6 -28l64 -8l-1 18l-1 17l-2 17l-7 37l-6 18l-13 37l-9 20zM179 244v14v14v14l-1 14l-2 15l-2 14
l-3 16l-3 16l-5 14l8 5l9 -14l11 -12l18 -28l7 -14l7 -15l6 -16l5 -16l4 -16l4 -16l-9 -23l-22 -10l-23 8l-11 22zM789 343l-4 36l-8 36l-5 18l-11 35l-6 17l-8 17l7 6l27 -28l25 -32l10 -17l10 -18l8 -19l8 -19l12 -41l-6 -23l-21 -13l-24 6l-13 21zM631 483l54 -49v-21
h-204v21h106zM185 592v-124h-64v124h64zM493 523v-16l-43 -21v242l43 -22h31v97h-85v21h190l44 49l54 -49v-21h-85v-97h25l27 27l54 -48l-27 -16v-146l-54 -26v26h-174zM524 685h-31v-140h31v140zM599 685h-32v-140h32v140zM667 685h-25v-140h25v140zM185 737v-124h-64v124
h64zM599 803h-32v-97h32v97zM185 887v-129h-64v129h64zM615 116l-1 -14l-2 -13l-4 -13l-7 -12l-9 -11l-11 -9l-12 -7l-13 -4l-13 -2l-14 -1v32l-68 10l-14 -16l-9 5l6 14l-22 3v16h29l13 41l6 19l4 18l9 37l3 18l2 14l4 14l59 -25v70h-109v22h163l54 54l64 -54v-22h-108
v-184z" />
  </g>

</svg>
