<?xml version="1.0" standalone="no"?>
<!DOCTYPE svg PUBLIC "-//W3C//DTD SVG 1.1//EN" "http://www.w3.org/Graphics/SVG/1.1/DTD/svg11.dtd" >
<svg xmlns="http://www.w3.org/2000/svg" xmlns:xlink="http://www.w3.org/1999/xlink" version="1.1" viewBox="0 0 2048 2048">
  <g transform="matrix(1 0 0 -1 0 2048)">
   <path fill="currentColor"
d="M914 978h219v160q-22 -1 -58 -2t-59 -4q-24 -2 -28 -2l-13 -2l-38 89q13 -4 27 -7t66 -9t143 -6h68l80 82l114 -86q8 -7 13 -14t2 -20q-3 -11 -10.5 -15t-13.5 -4h-202v-160h82l80 82l114 -86q8 -7 13 -14t2 -19q-3 -10 -11 -15q-9 -5 -14 -5h-97l4 -624q0 -26 1 -73
q2 -47 6 -84q5 -37 3 -51q-2 -11 -7 -19t-17 -16q-12 -7 -32 -7q-15 -1 -26 3t-17 10q-6 7 -6 18v265q-42 -22 -63 -31l-99 -43l-84 -47l-8 -36q-3 -14 -8 -24q-6 -9 -16 -11q-11 -2 -23 13q-12 14 -26 46l-45 99l77 17v595h-93q-2 -71 -4 -115q-2 -45 -8 -134
q-6 -90 -13 -151t-19 -110q-11 -49 -28 -99q-18 -49 -37 -88q-19 -38 -39 -70q-19 -32 -32 -49l-36 -46l-32 22q25 42 38 69q14 28 30 74q17 46 28 89q10 43 19 96t15 104t10 129q3 77 6 168q4 90 4 141v221v141q-1 29 -2 49l-6 94l114 -74h822l93 94l108 -83q17 -14 25 -24
q9 -10 7 -22q-3 -13 -12 -17q-9 -5 -15 -5h-1036v-347zM1302 921h-203v-132h203v132zM1099 341q39 10 81 19q43 10 48 12l74 22v136h-203v-189zM1099 588h203v146h-203v-146zM1636 1003h143l81 84l114 -89q8 -7 13 -14t2 -19q-4 -11 -11 -15q-8 -4 -15 -4h-93q-5 -47 -8 -70
l-13 -90q-12 -81 -19 -116q-6 -34 -22 -94q-17 -60 -32 -102q-16 -41 -38 -90l-9 -20q21 -30 35 -47q15 -17 49 -49t69 -58q34 -27 74 -47l42 -22l-5 -34q-26 3 -41 3q-15 1 -34 -5q-20 -6 -26 -15l-17 -21l-45 34q-18 14 -42 35q-23 22 -40 43t-40 54l-30 42l-49 -61
q-23 -29 -46 -54t-51 -48q-29 -24 -52 -41l-43 -32l-26 28q26 23 47 44q22 21 42 46l58 75q37 51 42 59l36 61q-13 22 -21 40t-17 44q-8 26 -18 61q-9 35 -12 47q-2 13 -11 71t-9 61l-3 35l43 8q6 -36 12 -67q6 -30 16 -64q10 -33 23 -68q13 -34 22 -48l17 -29l20 59
q9 27 18 58q10 32 20 80q9 49 18 116q10 66 13 95l10 93h-159l-30 -72q-11 -28 -34 -74q-22 -46 -36 -71l-28 -50l-32 16l31 97l27 82q10 32 26 92q16 61 24 95t26 120l17 82l124 -46q22 -9 31 -17q10 -7 7 -20q-3 -10 -13 -15q-9 -5 -35 -10l-38 -8l-25 -75
q-12 -36 -12 -37zM291 1203l61 -33h223l63 73l70 -49q22 -16 30 -27q9 -11 10 -23q0 -11 -10 -22q-9 -10 -31 -21l-28 -14v-680l24 -20l21 -15q11 -12 8 -27q-3 -14 -7.5 -15t-16.5 -1h-386v-46q0 -10 -12 -19q-13 -10 -33 -11q-27 -3 -41 6t-18 17q-3 9 -1 28l4 41l3 55
q3 43 3 49v606q-15 -34 -23 -49q-8 -14 -40 -69q-33 -55 -36 -58l-51 -69l-29 21l34 64q18 34 30 57q11 24 36 84q26 61 46 116t42 129q23 74 40 143q18 69 32 139t17 93l7 54h-25q-104 0 -138.5 -4t-39.5 -4l-14 -2l-38 89q14 -4 31 -7q16 -4 56 -10q41 -5 150 -5h243
l96 102l117 -93q20 -17 26 -24q7 -8 5 -21q-3 -12 -11 -17q-9 -4 -15 -4h-335l-26 -113q-14 -60 -32 -125q-17 -66 -36 -119q-18 -53 -44 -121zM322 387h263v727h-263v-727zM1670 1781q-32 -8 -73 -17t-105 -18t-220 -27q-155 -18 -210 -23q-56 -4 -130 -7l-46 -2l-5 43
q42 4 91 10q48 6 162 24q115 19 194 37q80 18 162 45q81 26 108 44l47 30l76 -65q28 -25 43 -45t10 -30q-5 -9 -22 -12t-45 4zM862 1633q37 -14 62 -25q25 -12 64 -34q38 -23 58 -42t29 -41t1 -41q-8 -20 -24 -28q-15 -9 -26 -8q-22 1 -40 31l-20 38q-12 20 -40 51
q-28 30 -41 40l-37 29zM1233 1678l58 -28q30 -15 61 -37q32 -22 56 -49q24 -28 24 -53q1 -25 -14 -43q-16 -19 -35 -18q-19 0 -31 13q-11 13 -22 41q-12 27 -20 42q-9 14 -30 38q-20 25 -28 32l-39 32zM1780 1710l87 -50q37 -22 45 -30t8 -19q-1 -15 -12 -21t-33 -6h-51
l-67 -54q-37 -30 -62 -42l-93 -50l-20 29q29 25 52 47q22 22 58 66q36 43 55 75z" />
  </g>

</svg>
