<?xml version="1.0" standalone="no"?>
<!DOCTYPE svg PUBLIC "-//W3C//DTD SVG 1.1//EN" "http://www.w3.org/Graphics/SVG/1.1/DTD/svg11.dtd" >
<svg xmlns="http://www.w3.org/2000/svg" xmlns:xlink="http://www.w3.org/1999/xlink" version="1.1" viewBox="0 -205 1024 1024">
  <g transform="matrix(1 0 0 -1 0 819)">
   <path fill="currentColor"
d="M314 568h146v276l76 -34l12 -6q7 -3 2 -12l-40 -14v-210h132v412l92 -36q8 -3 8 -8q2 -7 -4 -10l-46 -14v-126h124l42 48l64 -62q1 -1 2 -4q0 -9 -8 -8h-224v-192h178l36 48l62 -54q3 -4 4 -10q-1 -10 -16 -10h-568q-21 1 -54 -10l-20 36v0v0zM690 478v-108h138l40 52
l66 -64q2 0 2 -6q0 -7 -8 -8h-238v-213q105 -22 232 -14l84 8v-20q-54 -12 -62 -24q-9 -12 -20 -30q-162 9 -252 36q-87 27 -132 81q-45 57 -74 132q-21 -99 -62 -163q-39 -64 -114 -122l-10 14q69 66 112 169q39 105 48 270l78 -30q12 -7 4 -16l-32 -14q-9 -46 -14 -76
q35 -72 74 -120q36 -46 90 -64v386l80 -30q9 -9 -2 -14l-28 -12v0v0zM48 670q114 99 262 286l58 -46q8 -12 -4 -18q-24 -1 -36 -8q-13 -7 -86 -76q-71 -69 -184 -152l-10 14v0v0zM356 698q6 -6 4 -8q3 -3 -6 -8q-27 -3 -44 -20q-16 -19 -70 -94v-412l4 -95q0 -12 -20 -28
q-21 -16 -36 -14l4 131v360q-76 -96 -154 -156l-8 12q78 81 154 196q75 114 106 180l66 -44v0v0z" />
  </g>

</svg>
