<?xml version="1.0" standalone="no"?>
<!DOCTYPE svg PUBLIC "-//W3C//DTD SVG 1.1//EN" "http://www.w3.org/Graphics/SVG/1.1/DTD/svg11.dtd" >
<svg xmlns="http://www.w3.org/2000/svg" xmlns:xlink="http://www.w3.org/1999/xlink" version="1.1" viewBox="0 -36 256 256">
  <g transform="matrix(1 0 0 -1 0 220)">
   <path fill="currentColor"
d="M31 152h46v65h-46v-65zM31 77h46v68h-46v-68zM17 138q0 60 -1 95l16 -9h44l7 10l16 -14l-8 -7q0 -125 1 -151l-15 -10v18h-46v-16l-15 -8q1 32 1 92zM125 91h90v43h-90v-43zM125 141h90v39h-90v-39zM125 187h90v42h-90v-42zM230 75l-15 -5v14h-90v-7l-14 -8q1 26 1 45v94
q0 13 -1 37l14 -9h88l8 8l16 -12l-8 -6v-115q0 -9 1 -36zM127.5 34.5q-21.5 -17.5 -40.5 -26.5l-2 4q16 12 32 28t23 35l18 -18q-9 -5 -30.5 -22.5zM240.5 33q2.5 -11 -2 -20t-13 7.5t-44.5 48.5l3 3q54 -28 56.5 -39z" />
  </g>

</svg>
