<?xml version="1.0" standalone="no"?>
<!DOCTYPE svg PUBLIC "-//W3C//DTD SVG 1.1//EN" "http://www.w3.org/Graphics/SVG/1.1/DTD/svg11.dtd" >
<svg xmlns="http://www.w3.org/2000/svg" xmlns:xlink="http://www.w3.org/1999/xlink" version="1.1" viewBox="0 -36 256 256">
  <g transform="matrix(1 0 0 -1 0 220)">
   <path fill="currentColor"
d="M39 216h8q7 19 9 31l18 -8l-6 -4q-6 -8 -14 -19h36l8 10l13 -14l-7 -5v-29q0 -11 1 -22l-14 -6v7h-51v-22h52l11 11l14 -18h-77v-20h61l9 11l13 -15l-7 -4q-2 -65 -12.5 -77t-24.5 -15q-1 15 -25 20v5q27 -4 32.5 -3.5t10 8t6.5 63.5h-63v-8l-14 -4q1 20 1 37v66
q0 16 -1 31zM40 183v-19h51v19h-51zM40 209v-19h51v19h-51zM218 204h6l9 10l15 -17h-30v-15q0 -8 1 -15l-14 -5v6h-44q-10 0 -19 -2l-9 9h72v22h-61q-8 0 -17 -2l-9 9h87v21h-46q-10 -1 -19 -3l-9 10h72l9 10l14 -14l-8 -6v-18zM228 141h-44v-31h25l7 8l13 -12l-7 -6v-48
q1 -9 -2.5 -15.5t-12.5 -9.5q-2 13 -17 14v5q11 -1 15 -1t4 8v50h-25v-70l1 -19l-15 -7l1 23v73h-23v-71l-14 -7q1 17 1 45t-1 46l14 -6h23v31h-34q-1 -18 -9 -21.5t-10.5 1t4.5 11.5t11 24h4v-8h90l7 8l14 -15q-13 -4 -25 -21l-4 2zM71.5 51q-4.5 -3 -6.5 9t-9 25l3 2
q18 -15 17.5 -24t-5 -12zM79 93q14 -11 17 -17.5t1.5 -11.5t-5.5 -7.5t-5.5 9t-10.5 25.5zM23 41.5q-7 -6.5 -12 -2t3 13.5t10 27h3q3 -32 -4 -38.5zM35 81l3 2q17 -18 16 -28t-7 -12t-6.5 11.5t-5.5 26.5z" />
  </g>

</svg>
