<?xml version="1.0" standalone="no"?>
<!DOCTYPE svg PUBLIC "-//W3C//DTD SVG 1.1//EN" "http://www.w3.org/Graphics/SVG/1.1/DTD/svg11.dtd" >
<svg xmlns="http://www.w3.org/2000/svg" xmlns:xlink="http://www.w3.org/1999/xlink" version="1.1" viewBox="0 -36 256 256">
  <g transform="matrix(1 0 0 -1 0 220)">
   <path fill="currentColor"
d="M51 64v98q-21 -27 -38 -42l-2 3q13 16 22.5 31t24.5 43t22 48l18 -15q-4 -2 -14 -16t-23 -37l12 -8l-8 -7v-146l-15 -7q1 27 1 55zM210 168l-3 1l10 23h-106q-2 -16 -8 -21t-13 -1.5t3 14t13 28.5h4l1 -13h44v43l25 -9l-10 -6v-28h47l7 9l18 -15q-13 -1 -32 -25zM203 152
l14 11l18 -18h-69v-46h32l14 12l18 -19h-64v-55q32 -6 81 -4v-4q-19 -3 -21 -15q-59 4 -79 16.5t-38 37.5q-16 -35 -45 -56l-2 3q17 18 28.5 41.5t15.5 68.5l22 -12l-8 -7q-6 -20 -9 -31q16 -21 41 -32v102h-29q-11 0 -20 -2l-10 9h110z" />
  </g>

</svg>
