<?xml version="1.0" standalone="no"?>
<!DOCTYPE svg PUBLIC "-//W3C//DTD SVG 1.1//EN" "http://www.w3.org/Graphics/SVG/1.1/DTD/svg11.dtd" >
<svg xmlns="http://www.w3.org/2000/svg" xmlns:xlink="http://www.w3.org/1999/xlink" version="1.1" viewBox="0 -205 1024 1024">
  <g transform="matrix(1 0 0 -1 0 819)">
   <path fill="currentColor"
d="M268 638l58 -40h426l28 38l70 -42q6 -6 6 -8q-1 -6 -34 -30v-268l4 -58q0 -15 -18 -26q-18 -12 -38 -12v36h-450v-14q0 -12 -18 -24q-18 -10 -38 -10l4 102v356v0v0zM320 254h450v90h-450v-90v0v0zM320 370h450v88h-450v-88v0v0zM320 484h450v88h-450v-88v0v0zM628 928
l62 -36h174l32 42l52 -38q12 -6 12 -14q0 -6 -26 -24v-146l4 -46q0 -13 -20 -26q-18 -9 -36 -12v54h-202v-18q0 -12 -20 -24q-18 -10 -36 -10l4 98v200v0v0zM680 708h202v158h-202v-158v0v0zM254 852h-114q-18 0 -54 -6l-16 32h188v104q77 -22 80 -28t-8 -12q-12 -5 -24 -16
v-48h150l30 38q64 -43 68 -50q3 -6 0 -6t-36 -24q3 -72 -6 -102q-9 -29 -30 -58q-21 -27 -74 -44q-1 27 -20 40q-19 12 -70 34l6 18q32 -10 70 -16q35 -7 50 4q14 11 20 44q3 33 4 96h-164q-9 -109 -60 -172q-48 -61 -174 -112l-8 16q90 51 138 108q45 56 54 160v0v0zM74 33
q189 61 364 153l46 -46q9 -11 -8 -15q-27 3 -108 -28q-79 -30 -290 -84l-4 20v0v0zM606 154l4 18q146 -24 220 -43q74 -21 100 -42q26 -18 26 -42q0 -21 -18 -28q-18 -4 -50 18q-31 21 -80 48q-49 28 -202 71v0v0z" />
  </g>

</svg>
