<?xml version="1.0" standalone="no"?>
<!DOCTYPE svg PUBLIC "-//W3C//DTD SVG 1.1//EN" "http://www.w3.org/Graphics/SVG/1.1/DTD/svg11.dtd" >
<svg xmlns="http://www.w3.org/2000/svg" xmlns:xlink="http://www.w3.org/1999/xlink" version="1.1" viewBox="0 -36 256 256">
  <g transform="matrix(1 0 0 -1 0 220)">
   <path fill="currentColor"
d="M106 234l9 9l16 -16q-12 1 -43 -21q6 -9 -3 -16h34l8 10l16 -18q-11 2 -34 -22l-3 2l13 21h-29v-37q0 -15 -20 -19q-1 11 -20 16v3q16 -2 21 -1.5t5 5.5v29q-28 -28 -68 -42l-1 3q38 22 56 43h-19q-11 0 -21 -2l-10 9h63q-2 9 -6 15t-13 12l2 3q18 -6 25 -10l17 17h-39
q-11 0 -21 -2l-9 9h74zM84 16l-15 -7q1 38 1 70q-24 -33 -60 -57l-2 3q35 34 55 69h-22q-10 0 -19 -2l-9 9h57q0 11 -1 24l21 -8l-7 -6v-10h24l11 11l15 -18h-50q19 -40 54 -52v-3q-13 -2 -16 -13q-22 19 -38 53q0 -44 1 -63zM138 69q0 36 -1 60l13 -10h24q0 108 -1 126
l23 -11l-9 -7v-39h31l13 13l15 -21h-59v-61h31l7 10l15 -13l-8 -7q0 -74 1 -91l-14 -8v24h-68v-21l-14 -6q1 26 1 62zM151 41h68v70h-68v-70z" />
  </g>

</svg>
