<?xml version="1.0" standalone="no"?>
<!DOCTYPE svg PUBLIC "-//W3C//DTD SVG 1.1//EN" "http://www.w3.org/Graphics/SVG/1.1/DTD/svg11.dtd" >
<svg xmlns="http://www.w3.org/2000/svg" xmlns:xlink="http://www.w3.org/1999/xlink" version="1.1" viewBox="0 -200 1000 1000">
  <g transform="matrix(1 0 0 -1 0 800)">
   <path fill="currentColor"
d="M783 648l34 27l38 -27q24 -19 16 -28q-6 -7 -28 -7v-153v-12q1 -14 -2 -19q-5 -7 -23 -14q-16 -3 -20 4q-3 5 -2 20l1 2h-255q0 -20 -3 -24q-3 -7 -17 -12q-22 -6 -27 0q-3 4 -2 20l2 12v177l-5 63l53 -29h240zM540 556h257v67h-257v-67zM540 467h257v64h-257v-64z
M470 369h353l39 41l52 -41q7 -5 5 -20q-4 -6 -19 -6h-199q14 -14 11 -19q-3 -4 -24 -4v-70h89l44 37l49 -37q10 -16 7 -20q-4 -5 -19 -5h-170l-2 -104h147l45 43l63 -42q11 -7 9 -12q-3 -15 -15 -15h-472l-48 -5l-13 34l58 -3h178l2 104h-116l-72 -4l-11 32l77 -3h122v93
h-157l-71 -3l-8 35zM386 469q1 -21 -4 -37q-4 -16 -11 -22q-8 -5 -15 3t-9 29q-6 34 -19 73q-20 50 -43 76l9 8q39 -27 64 -63q24 -35 28 -67zM255 683q26 -5 26 -13q0 -7 -27 -20l-2 -499l1 -29q1 -19 -1 -24q-4 -6 -20 -14q-21 -9 -24 -5q-4 4 -1 27q1 14 2 22q1 15 1 29
l2 535zM137 588q17 -72 5 -165t-40 -105q-20 -4 -28 33q-8 36 5 49l5 9q23 35 30 61q14 43 11 116zM933 890q28 -21 22 -29q-5 -7 -39 -10q-18 -20 -37 -36q-12 -10 -33 -30v-1l-10 7q11 25 17 39q9 20 17 39h-231q11 -7 6 -13q-4 -5 -19 -10v-58q0 -16 9 -23q10 -9 34 -9
h14q28 0 40 1q20 1 37 4q25 5 40 24q13 17 18 43l11 -3l-2 -8q-5 -25 -5 -35q-1 -15 9 -21q19 -6 10 -17q-10 -12 -49 -16q-40 -3 -77 -4q-43 0 -72 2q-37 0 -52 16q-13 13 -13 39v89h-135q19 -15 12 -21q-5 -6 -32 -6q-53 -65 -124 -99q-69 -34 -179 -50l-5 10
q97 24 157 58q71 42 106 107h-176q-8 -28 -16 -46t-18 -30q-32 -34 -47 -20q-16 14 10 50l14 16q17 18 25 33q14 36 19 79h8q3 -17 4 -33q2 -13 2 -22h288v45l-2 36l49 -9q36 -7 35 -16q0 -8 -31 -14v-42h314l28 29z" />
  </g>

</svg>
