<?xml version="1.0" standalone="no"?>
<!DOCTYPE svg PUBLIC "-//W3C//DTD SVG 1.1//EN" "http://www.w3.org/Graphics/SVG/1.1/DTD/svg11.dtd" >
<svg xmlns="http://www.w3.org/2000/svg" xmlns:xlink="http://www.w3.org/1999/xlink" version="1.1" viewBox="0 -36 256 256">
  <g transform="matrix(1 0 0 -1 0 220)">
   <path fill="currentColor"
d="M213 180h-136q-11 0 -20 -2l-10 9h75v23h-79q-10 0 -20 -2l-9 9h108q0 11 -1 26l22 -8l-7 -7v-11h76l14 11l18 -18h-108v-23h44l14 12zM47 163h165l7 10l15 -12l-7 -6v-117q0 -10 1 -25l-15 -5v10h-166v-6l-15 -4q1 17 1 29v104q0 11 -1 28zM47 25h166v131h-166v-131z
M181 83q0 -8 1 -10l-14 -4v6h-19v-26h34l11 8l14 -15h-124q-11 0 -20 -2l-10 9h52v26h-20l-5 -5l-13 8l6 6q0 21 -1 35l14 -6h21v20h-18q-11 0 -20 -1l-9 8h109l12 9l14 -16h-46v-20h17l7 6l13 -8l-6 -6v-22zM121 105l-13 -3v4h-21v-24h18l7 6l13 -10l-6 -4v-25h17
q0 26 -1 36l14 -3h19v24h-18l-5 -2l-12 9l6 3v17h-18v-28z" />
  </g>

</svg>
