<?xml version="1.0" standalone="no"?>
<!DOCTYPE svg PUBLIC "-//W3C//DTD SVG 1.1//EN" "http://www.w3.org/Graphics/SVG/1.1/DTD/svg11.dtd" >
<svg xmlns="http://www.w3.org/2000/svg" xmlns:xlink="http://www.w3.org/1999/xlink" version="1.1" viewBox="0 -52 256 256">
  <g transform="matrix(1 0 0 -1 0 204)">
   <path fill="currentColor"
d="M174 249l22 -8q2 -1 2 -2l-1 -1q-5 -1 -8 -4v-24h26l8 11l17 -13q2 -1 2 -3q-1 -1 -3 -1h-50v-43h33l7 11l18 -14q4 -2 -2 -2h-115q-6 0 -11 -4l-8 9h31v57q0 4 -7 10l2 3l21 -9q3 0 2 -2q-5 -2 -8 -5v-54h27v75q0 4 -7 11zM146 147l17 -7q2 -2 0 -3q-3 0 -7 -2l-1 -1
q0 -1 -1 -2q-3 -8 -6 -10h51l8 10l18 -13q5 -3 -1 -2h-42v-42h36l8 10l18 -12q2 -1 2 -2q-1 -1 -4 -1h-60v-27v-22q1 -9 -13 -12q2 10 2 46v15h-24q-7 0 -12 -3l-9 8h45v42h-26q-11 -15 -26 -25l-2 3q13 13 21 28q7 15 8 18q0 2 -2 4zM41 146l19 -9q1 -1 1 -2t-2 -1
q-4 0 -7 -3q-3 -6 -6 -10h47l9 11l17 -13l2 -2q0 -1 -3 -1h-37v-41h14l9 10l18 -13q4 -2 -2 -2h-39v-27v-22q1 -9 -13 -12q1 4 1 24q1 13 1 22v15h-33q-7 0 -12 -3l-9 8h54v41h-27q-13 -20 -30 -32l-2 3q17 19 22 31q6 10 9 19v1q0 1 -1 2q0 2 -2 3zM26 142l-12 16l26 5v54
q0 4 -7 11l2 2l20 -8q4 -1 2 -3q-5 -1 -8 -4v-50l28 5v66q1 3 -6 10l2 3l20 -8q4 -1 2 -3q-4 -2 -7 -5v-22h17l7 9l14 -11q2 -2 1 -3t-4 0h-35v-34l39 7l1 -3l-67 -16q-18 -6 -26 -9q-7 -3 -9 -9z" />
  </g>

</svg>
