<?xml version="1.0" standalone="no"?>
<!DOCTYPE svg PUBLIC "-//W3C//DTD SVG 1.1//EN" "http://www.w3.org/Graphics/SVG/1.1/DTD/svg11.dtd" >
<svg xmlns="http://www.w3.org/2000/svg" xmlns:xlink="http://www.w3.org/1999/xlink" version="1.1" viewBox="0 -36 256 256">
  <g transform="matrix(1 0 0 -1 0 220)">
   <path fill="currentColor"
d="M174 12l-16 -4q1 17 1 69h-44q-13 0 -22 -3l-10 10h76v46h-39q-14 -26 -32 -39l-3 2q13 18 21.5 36t14.5 45l21 -10l-9 -4q-3 -11 -10 -23h36q0 36 -1 48l24 -11l-9 -7v-30h29l12 12l16 -19h-57v-46h44l13 12l16 -19h-73q0 -51 1 -65zM221 192h-108q1 -13 -1 -18t-8 -7.5
t-10.5 -0.5t3.5 13.5t11 32.5h4l1 -13h108l7 10l17 -17q-8 -3 -15.5 -8.5t-17.5 -17.5l-2 1zM169.5 225.5q4.5 -8.5 -1 -17.5t-10.5 3.5t-23 29.5l2 3q28 -10 32.5 -18.5zM32.5 136.5q-5.5 -12.5 -13 -14t-10 4.5t9 18.5t14.5 40.5h4q1 -37 -4.5 -49.5zM49 245l23 -13l-9 -8
v-171q0 -22 1 -36l-15 -10q1 36 1 58v127q0 29 -1 53zM88 171.5q6 -9.5 4 -17.5t-8 -8.5t-8 13t-11 34.5l3 2q14 -14 20 -23.5z" />
  </g>

</svg>
