<?xml version="1.0" standalone="no"?>
<!DOCTYPE svg PUBLIC "-//W3C//DTD SVG 1.1//EN" "http://www.w3.org/Graphics/SVG/1.1/DTD/svg11.dtd" >
<svg xmlns="http://www.w3.org/2000/svg" xmlns:xlink="http://www.w3.org/1999/xlink" version="1.1" viewBox="0 -339 2048 2048">
  <g transform="matrix(1 0 0 -1 0 1709)">
   <path fill="currentColor"
d="M545 864q-30 -1 -178 -9q-44 -3 -154 -3l-2 38q38 5 159 20q162 20 331 71q59 18 100 36q19 9 52 26l91 -94q8 -9 14 -20q3 -6 3 -11q0 -9 -9 -15q-9 -7 -21 -6q-5 0 -13 2l-65 17q-51 -13 -66 -16q-132 -23 -144 -26v-181h219l92 91l114 -91q20 -16 20 -35q0 -10 -7 -16
q-5 -6 -14 -6l-424 -1v-86q75 -28 108 -43q69 -29 113 -61q89 -64 89 -125q0 -26 -19 -42q-14 -13 -31 -13q-14 0 -27 10q-12 9 -18 18l-34 52q-58 90 -181 161v-159v-57q0 -36 3 -96q5 -79 5 -95q0 -30 -8 -41q-4 -6 -12 -9q-14 -7 -32 -7q-30 0 -46 18q-9 9 -9 24v442
q-64 -84 -84 -105q-37 -43 -123 -120q-45 -40 -73 -60q-4 -2 -138 -91l-18 30q96 80 157 146q38 41 87 106q57 75 78 107q16 24 52 96h-188q-38 0 -98 -5q-18 -1 -51 -6l-39 86q62 -9 87 -11q57 -6 101 -6h251v171zM642 1665v-194h180l80 81l114 -86q17 -13 17 -26
q0 -9 -6 -16q-9 -10 -21 -10h-627q-38 0 -98 -5q-18 -2 -51 -6l-39 86q64 -9 87 -12q8 0 51 -4q36 -2 50 -2h167v194h-259q-38 0 -98 -5q-18 -1 -51 -6l-39 86q123 -18 188 -18h259v69q0 10 -4 122q-1 21 -5 38l110 -24q58 -13 72 -24q13 -10 13 -22q0 -11 -10 -21
q-13 -13 -39 -21l-41 -11v-106h221l80 80l114 -85q12 -10 15 -16q2 -5 2 -10q0 -9 -6 -16q-8 -10 -21 -10h-405zM215 1181q-1 -63 -5 -97q-9 -71 -32 -98q-25 -28 -59 -28q-24 0 -38 13q-12 12 -12 29q0 21 12 38q3 3 27 34q43 55 57 133q6 32 10 105h40v-74l713 -1l60 71
l89 -60q35 -25 35 -46q0 -10 -7 -17q-4 -6 -12 -8t-28 -5l-37 -6q-46 -64 -108 -143l-30 17q25 73 49 143h-724zM1575 1858l22 26q72 -61 122 -109q59 -57 114 -124q109 -136 109 -218q0 -27 -15 -48q-15 -20 -42 -20q-17 0 -30 9q-10 7 -14 17q-7 12 -13 32
q-37 122 -106 235q-32 54 -56 87q-6 7 -70 87q-7 8 -21 26zM1456 1560l145 -33q30 -6 38 -16q6 -8 6 -16q0 -12 -11 -21q-10 -9 -31 -13l-40 -7q45 -107 73 -160q92 -176 217 -290q50 -46 96 -74q19 -11 49 -25l-6 -33q-36 -2 -54 -14q-24 -16 -36 -48q-3 -8 -6 -19
q-36 29 -60 56q-42 46 -102 132q-70 101 -133 250q-28 66 -74 193q-42 -115 -78 -193q-85 -183 -197 -312q-47 -55 -107 -107q-23 -21 -70 -59l-22 29q31 30 47 47.5t36 43.5q63 78 108 153q33 56 72 132q33 65 53 118q34 92 60 182q10 37 27 104zM1340 1879l130 -41
q19 -6 26 -13q11 -9 11 -21q0 -13 -12 -21q-5 -3 -33 -9l-38 -8q-47 -98 -75 -149q-62 -114 -126 -189q-23 -26 -99 -104l-28 29q39 50 71 101q52 83 84 153q34 77 60 162q14 43 29 110zM1698 771l68 77l84 -58q29 -19 34 -28q6 -9 6 -18q0 -16 -12 -27q-11 -10 -30 -18
q-16 -7 -36 -16v-444l30 -22q24 -18 28 -26q3 -6 3 -12q0 -9 -6 -15q-7 -8 -14 -8h-544v-31q0 -31 -16 -43q-14 -11 -42 -11q-26 0 -37 8q-16 12 -16 38q0 14 5 49q2 23 7 104q3 66 3 83l1 483l110 -65h374zM1309 213h408v505h-408v-505z" />
  </g>

</svg>
