<?xml version="1.0" standalone="no"?>
<!DOCTYPE svg PUBLIC "-//W3C//DTD SVG 1.1//EN" "http://www.w3.org/Graphics/SVG/1.1/DTD/svg11.dtd" >
<svg xmlns="http://www.w3.org/2000/svg" xmlns:xlink="http://www.w3.org/1999/xlink" version="1.1" viewBox="0 -36 256 256">
  <g transform="matrix(1 0 0 -1 0 220)">
   <path fill="currentColor"
d="M87 222h-41q-10 0 -19 -2l-9 9h70l10 9l13 -18q-10 -1 -19 -8.5t-21 -18.5q7 -6 8 -12t-4.5 -12.5t-11 8.5t-23.5 27l2 2q6 -3 12 -5.5t13 -6.5zM95 156h-22v-122q0 -10 -4.5 -15.5t-16.5 -10.5q-3 11 -7.5 14.5t-15.5 6.5v4q28 -4 29.5 -1.5t1.5 7.5v94
q-14 -31 -25.5 -49.5t-25.5 -33.5l-2 3q14 21 25 46t22 57h-16q-10 0 -19 -2l-9 9h82l9 8l14 -15q-9 -1 -27 -26l-3 1zM147 207h48l6 10l16 -15q-15 -2 -33 -32h38l11 12l14 -19h-113v-58q-2 -60 -45 -98l-3 3q35 42 35 97v63l-11 -12l-3 3q29 40 42 85l20 -14l-7 -3
q-9 -14 -15 -22zM124 173l9 -3h46l12 30h-47q-8 -10 -20 -27zM150 35q0 96 -1 111l14 -8h40l7 10l15 -11l-7 -7v-46q0 -19 -18 -25q0 11 -23 17v4q18 -2 23 -1.5t5 7.5v45h-42v-87q-1 -17 16 -16h34q11 -1 12 11t2 36h4q1 -21 2.5 -30.5t10.5 -12.5q-8 -16 -25 -16h-46
q-21 0 -23 19z" />
  </g>

</svg>
