<?xml version="1.0" standalone="no"?>
<!DOCTYPE svg PUBLIC "-//W3C//DTD SVG 1.1//EN" "http://www.w3.org/Graphics/SVG/1.1/DTD/svg11.dtd" >
<svg xmlns="http://www.w3.org/2000/svg" xmlns:xlink="http://www.w3.org/1999/xlink" version="1.1" viewBox="0 -36 256 256">
  <g transform="matrix(1 0 0 -1 0 220)">
   <path fill="currentColor"
d="M121 183h38v26h-38v-26zM173 183h39v27h-39v-27zM111 120h48v26h-48v-26zM173 120h48v26h-48v-26zM98 129.5q0 10.5 -1 29.5l15 -6h47v23h-38v-2l-15 -4q1 13 1 25.5t-1 26.5l15 -6h38q0 14 -1 31l23 -8l-8 -7v-15h38l7 9l15 -11l-7 -6q0 -25 1 -33l-15 -4v4h-39v-23h47
l7 10l15 -11l-8 -7q0 -17 1 -32l-14 -6v6h-109v-5l-15 -3q1 14 1 24.5zM91 98l1 3q29 -4 39 -8.5t7 -15.5t-12 -1t-35 22zM88 29l-13 16q20 5 74 25l2 -3q-54 -29 -63 -38zM244.5 29.5q-2.5 -10.5 -9 -4t-12.5 14t-22.5 20t-27.5 19.5v-46q1 -17 -22 -26q-2 14 -31 20v4
q19 -1 27.5 -1.5t11.5 7.5v83h14v-34q9 -5 24 -12q7 5 16.5 14.5t14.5 19.5l17 -13q-12 -4 -25.5 -12.5t-19.5 -11.5q25 -11 36 -21t8.5 -20.5zM33.5 138.5q-3.5 -11.5 -12 -14t-10.5 2.5t7 16t14 43h4q1 -36 -2.5 -47.5zM46 245l22 -13l-8 -9v-170q0 -22 1 -36l-15 -10
q1 36 1 58v126q0 29 -1 54zM83.5 177.5q5.5 -7.5 3.5 -14.5t-7.5 -9.5t-7 10.5t-9.5 32l3 2q12 -13 17.5 -20.5z" />
  </g>

</svg>
