<?xml version="1.0" standalone="no"?>
<!DOCTYPE svg PUBLIC "-//W3C//DTD SVG 1.1//EN" "http://www.w3.org/Graphics/SVG/1.1/DTD/svg11.dtd" >
<svg xmlns="http://www.w3.org/2000/svg" xmlns:xlink="http://www.w3.org/1999/xlink" version="1.1" viewBox="0 -36 256 256">
  <g transform="matrix(1 0 0 -1 0 220)">
   <path fill="currentColor"
d="M32 207v-121h29v121h-29zM19 81v96q0 24 -1 46l15 -9h27l7 9l14 -12l-7 -8v-106q0 -17 1 -34l-14 -8v24h-29v-22l-14 -7q1 15 1 31zM95 175q0 39 -1 51l16 -8h26q11 19 13 28l18 -10l-5 -2q-12 -8 -20 -16h74l7 9l15 -11l-7 -8v-53q0 -19 1 -27l-14 -6v89h-110v-84
l-14 -8q1 17 1 56zM171 126l-13 -6v31q-18 -18 -43 -28l-2 3q21 15 37 34h-5q-12 0 -22 -2l-9 9h23q-2 11 -6 18l2 2q12 -4 14.5 -9.5t-3.5 -10.5h14v22q-7 0 -37 -3v5q15 1 36.5 5.5t35.5 12.5l12 -15h-7q-12 -2 -27 -4v-23h6q7 12 9 24l13 -9q-7 -4 -17 -15h11l9 8l14 -15
h-45v-1q18 -6 25.5 -10.5t9.5 -8.5t-1 -10.5t-10.5 3.5t-23.5 22v-29zM199 113l12 9l17 -16h-97q-11 0 -21 -2l-10 9h99v0zM171.5 18q-3.5 4 -20.5 9l1 4q23 -5 31 -4.5t13 10.5t6 19h-74l-8 -8l-11 12q5 3 9 11t4 11h-13q-13 0 -22 -3l-10 10h142l13 10l16 -17h-112
q-3 -8 -8 -19h75l7 9l15 -11l-7 -5q-5 -18 -11.5 -30.5t-29.5 -17.5q-2 6 -5.5 10z" />
  </g>

</svg>
