<?xml version="1.0" standalone="no"?>
<!DOCTYPE svg PUBLIC "-//W3C//DTD SVG 1.1//EN" "http://www.w3.org/Graphics/SVG/1.1/DTD/svg11.dtd" >
<svg xmlns="http://www.w3.org/2000/svg" xmlns:xlink="http://www.w3.org/1999/xlink" version="1.1" viewBox="0 -52 256 256">
  <g transform="matrix(1 0 0 -1 0 204)">
   <path fill="currentColor"
d="M117 243l9 -11h82l8 10l13 -12q2 -1 2 -3q-1 -1 -3 -1l-5 -3v-70l1 -19q2 -10 -12 -11v17h-83v-7q0 -10 -13 -11q1 4 1 20q1 12 1 19v68q-2 6 -5 11zM27 223q1 5 -5 10l2 3l20 -10q4 -1 2 -3q-5 -1 -8 -4v-46h36v65q2 4 -6 11l2 3l22 -9q4 0 1 -2q-1 0 -2 -1q-4 -3 -5 -5
v-192l1 -23q1 -8 -15 -11q2 10 2 45v62h-33v-24q1 -52 -34 -80l-2 2q27 34 25 80v22h-7q-7 0 -12 -4l-8 9h71v47h-33l-9 -11l-12 10q6 6 7 11v45zM129 227v-39h83v39h-83zM212 183h-83v-38h83v38zM161 131l22 -9q3 -1 1 -3q-4 0 -7 -4v-25h34l8 11l17 -13q3 -1 2 -2
q0 -1 -5 -1h-56v-56h47l9 11l17 -13l2 -2q-1 -1 -5 -1h-131q-6 0 -11 -3l-8 8h68v56h-37q-7 0 -11 -3l-9 8h57v27q1 4 -6 11z" />
  </g>

</svg>
