<?xml version="1.0" standalone="no"?>
<!DOCTYPE svg PUBLIC "-//W3C//DTD SVG 1.1//EN" "http://www.w3.org/Graphics/SVG/1.1/DTD/svg11.dtd" >
<svg xmlns="http://www.w3.org/2000/svg" xmlns:xlink="http://www.w3.org/1999/xlink" version="1.1" viewBox="0 -143 1024 1024">
  <g transform="matrix(1 0 0 -1 0 881)">
   <path fill="currentColor"
d="M108 714q11 -97 6 -142.5t-24 -67.5t-38 -20t-24 17t13 35t30 50.5t20 127.5h17zM349 805h155l28 37l56 -44q7 -4 5 -12q0 -6 -15 -11q-18 -7 -21 -35t-21 -119t-42 -165q36 -58 53 -102t20 -77t-9 -49t-28 -11t-17 38t-13 77t-28 78q-20 -58 -69 -142t-113 -138l-8 10
q50 64 92 144t72 170q-40 84 -92 178l10 8q50 -60 100 -142q18 78 30 150t17 132h-90q-23 0 -51 -6zM162 976l88 -32q12 -8 -6 -16l-34 -14v-250q36 46 83 126q56 -42 57 -50t-4 -9t-18 -2t-42 -28t-78 -70q2 -163 -7 -241q36 -32 66 -61t41 -58t7 -47t-13 -27t-25 -5
t-21 41t-17 65t-40 70q-9 -101 -47.5 -180.5t-125.5 -157.5l-10 10q57 70 89 140t45.5 144.5t11.5 297.5v354zM743 922q5 -5 5 -8q2 -8 -9 -11q-23 -9 -34.5 -40t-43.5 -117h244l30 46l56 -59q3 -3 3 -5q0 -8 -8 -8h-163v-170h65l26 43l61 -55q2 -2 2 -6q0 -8 -8 -8h-146
v-157h69l28 45l59 -54q3 -2 3 -6q0 -8 -9 -8h-150v-192h87l34 48l60 -59q3 -4 3 -7q0 -9 -8 -9h-336v-55q0 -16 -19.5 -28t-31.5 -12l4 124v492q-24 -56 -73 -126l-12 8q25 52 76 195t67 233zM776 367v157h-113v-157h113zM776 550v170h-113v-170h113zM776 151v191h-113v-191
h113zM778 944q60 -40 78 -69t17 -48t-12 -33t-27 -9t-16 28t-4.5 46t-44.5 75z" />
  </g>

</svg>
