<?xml version="1.0" standalone="no"?>
<!DOCTYPE svg PUBLIC "-//W3C//DTD SVG 1.1//EN" "http://www.w3.org/Graphics/SVG/1.1/DTD/svg11.dtd" >
<svg xmlns="http://www.w3.org/2000/svg" xmlns:xlink="http://www.w3.org/1999/xlink" version="1.1" viewBox="0 -205 1024 1024">
  <g transform="matrix(1 0 0 -1 0 819)">
   <path fill="currentColor"
d="M887 906q-1 1 -7 0h-169v-639q-1 -115 0 -196q-1 -10 -8 -13q-37 -17 -44 -17q-4 1 -3 20q4 100 7 206v612q-1 32 -7 78q-2 10 1 11q4 2 14 -8t26 -23h185q8 1 17 11l19 21q6 8 13 1q30 -22 49 -44q9 -8 -3 -12q-20 -7 -33 -26q-87 -129 -144 -268q-4 -10 3 -16
q99 -66 150 -148q29 -43 30 -101q0 -57 -25 -94q-28 -37 -85 -62q-21 -11 -24 -2q-4 12 -23 28q-22 19 -62 32q-19 7 -16 17q5 13 24 7q63 -14 100 -5q29 5 44 39q15 31 11 79q-4 47 -35 87q-54 70 -112 121q-9 8 -2 24q62 144 111 274q-1 5 -2 6zM208 478h-61
q-42 -1 -73 -7q-8 -3 -11 6q-4 18 -19 30q-7 7 -4 11q4 3 11 -1q38 -8 84 -8h363q6 0 12 7l36 41q7 7 14 0q26 -26 44 -48q11 -14 4 -24q-5 -6 -18 -7h-170v-282q43 41 101 102q7 8 14 1q7 -8 0 -18q-43 -52 -76 -98q-35 -50 -62 -102q-5 -12 -11 -3q-16 19 -38 37
q-7 6 -1 10q10 9 17 30q8 21 8 46v277h-116q-2 -93 -12 -164q-14 -91 -49 -150q-36 -68 -116 -110q-15 -9 -22 3q-6 14 7 21q60 30 91 96q30 59 41 139q10 68 12 165zM446 676l36 41q5 6 12 2q6 12 42 87h-400q-1 -58 -31 -97q-15 -15 -30 -14q-14 2 -21 9q-23 25 8 49
q45 40 51 124q1 10 8 10q8 1 9 -9q4 -22 5 -41h183l-1 2q0 64 -51 142q-4 7 0 13q6 5 16 -4q85 -55 88 -94q1 -29 -27 -59h197q10 0 14 6l28 30q3 4 7 4q11 0 56 -60q8 -12 -7 -13q-4 0 -7 -1q-50 -6 -116 -93q-3 -4 -6 -7q18 -18 31 -34q11 -14 4 -24q-5 -6 -18 -7h-293
q-42 -1 -73 -7q-8 -3 -11 6q-4 18 -19 30q-7 7 -4 11q4 3 11 -1q38 -8 84 -8h213q6 0 12 7z" />
  </g>

</svg>
