<?xml version="1.0" standalone="no"?>
<!DOCTYPE svg PUBLIC "-//W3C//DTD SVG 1.1//EN" "http://www.w3.org/Graphics/SVG/1.1/DTD/svg11.dtd" >
<svg xmlns="http://www.w3.org/2000/svg" xmlns:xlink="http://www.w3.org/1999/xlink" version="1.1" viewBox="0 -36 256 256">
  <g transform="matrix(1 0 0 -1 0 220)">
   <path fill="currentColor"
d="M192 34q2 2 2 6v173q0 11 -1 31l19 -6l-6 -7v-30q0 -15 6 -50q9 17 17 40l14 -12q-7 -3 -30 -34q5 -26 13.5 -49.5t18.5 -32.5v-3q-8 1 -16 -5q-7 13 -13.5 40t-9.5 62v-121q0 -10 -4 -15t-11 -9q-1 4 -5 9.5t-17 9.5v4q21 -3 23 -1zM176 177l6 9l12 -11l-6 -6
q-3 -43 -12.5 -73.5t-21.5 -47.5l-3 2q9 20 16 51t9 70v-1q-7 1 -10 -2l-7 9h17zM45 165q-7 -71 -31 -116l-3 1q19 57 23 118q-1 0 -10 -2l-9 9h19l6 8l11 -10zM102 217l19 -7l-6 -7v-49h12v57v34l19 -8l-7 -7v-35h3l8 8l13 -15h-24v-34h8l8 10l15 -17h-56q-10 0 -18 -2
l-9 9h16q0 52 -1 63zM107 97.5q-8 -21.5 -11 -24.5l-3 2q11 39 11 59l15 -9q-4 -6 -12 -27.5zM125 109.5q0 27.5 -1 39.5l17 -8l-5 -6q0 -55 1 -59l-13 -7q1 13 1 40.5zM139.5 63q-21.5 -34 -60.5 -54l-1 4q27 18 45 45t28 56l15 -11q-5 -6 -26.5 -40zM50 34q2 2 2 6v173
q0 11 -1 31l19 -6l-6 -7v-63l6 -17q9 17 17 40l14 -12q-7 -3 -28 -35q11 -24 14 -37t3 -25.5t-5 -16t-6.5 18.5t-14.5 68v-116q0 -10 -4 -15t-12 -9q0 4 -4 9.5t-17 9.5v4q21 -3 23 -1z" />
  </g>

</svg>
