<?xml version="1.0" standalone="no"?>
<!DOCTYPE svg PUBLIC "-//W3C//DTD SVG 1.1//EN" "http://www.w3.org/Graphics/SVG/1.1/DTD/svg11.dtd" >
<svg xmlns="http://www.w3.org/2000/svg" xmlns:xlink="http://www.w3.org/1999/xlink" version="1.1" viewBox="0 -36 256 256">
  <g transform="matrix(1 0 0 -1 0 220)">
   <path fill="currentColor"
d="M43 225v-7h78q0 11 -16 24l2 3q21 -6 26 -12t-3 -15h86l8 9l14 -15q-17 -5 -27 -20l-5 1l9 18h-172q-2 -24 -18 -24t-3 8.5t17 29.5h4zM161 81q36 -20 85 -18v-4q-17 -3 -20 -12q-66 10 -99 52q-15 -21 -43.5 -35.5t-69.5 -18.5l-1 3q50 12 76 31t32 40l16 -11
q-5 -3 -6 -5q15 -13 25 -19q17 14 33 32l14 -14l-8 -1q-17 -11 -34 -20zM118 82l22 -10l-8 -7v-9h23l11 10l17 -17h-51v-27h72l14 11l16 -18h-173q-10 0 -20 -2l-9 9h87v27h-20q-10 0 -19 -2l-10 9h49q0 8 -1 26zM91 194l10 9l15 -16h-31v-12h18l11 7l13 -14h-65
q-10 0 -20 -2l-9 9h39v12h-2q-10 0 -19 -2l-10 9h50zM184 197l10 9l13 -16h-31v-15h20l9 9l15 -16h-66q-11 0 -20 -2l-9 9h38v15h-1q-10 0 -20 -2l-9 9h51zM92 152l9 8l13 -15h-30v-17h16l9 9l14 -16h-68q-11 0 -20 -2l-9 9h45v17h-3q-10 0 -19 -2l-10 9h53zM187 151l10 9
l15 -16h-33v-17h24l11 9l13 -16h-71q-10 0 -20 -2l-9 9h39v17h-2q-10 0 -19 -2l-10 9h52zM70 95.5q10 -13.5 14 -21.5l-4 -3q-9 10 -18 18.5t-21 11.5l15 13q4 -5 14 -18.5z" />
  </g>

</svg>
