<?xml version="1.0" standalone="no"?>
<!DOCTYPE svg PUBLIC "-//W3C//DTD SVG 1.1//EN" "http://www.w3.org/Graphics/SVG/1.1/DTD/svg11.dtd" >
<svg xmlns="http://www.w3.org/2000/svg" xmlns:xlink="http://www.w3.org/1999/xlink" version="1.1" viewBox="0 -200 1000 1000">
  <g transform="matrix(1 0 0 -1 0 800)">
   <path fill="currentColor"
d="M850 666l37 46l72 -53q10 -7 8 -10q-1 -3 -14 -3h-355q-11 -63 -25 -118h217l36 40l58 -53q5 -4 4 -7t-7 -5q-14 -2 -23 -11q-53 -197 -138 -289q94 -87 255 -121v-14q-62 4 -75 -29q-137 53 -209 135q-98 -97 -317 -156l-10 15q187 59 298 174q-67 83 -112 240
q-86 -242 -281 -395l-12 8q230 235 298 586h-109l-28 -38l-51 39q25 18 30 40l26 155q2 14 -14 35l6 11l73 -38q9 -4 11 -7q1 -4 -4 -6q-18 -5 -31 -19l-26 -152h119q21 116 36 259q-7 17 -25 33l8 12l94 -38q5 -2 5 -4q0 -3 -5 -6q-19 -6 -32 -25q-17 -127 -37 -231h249z
M61 847l38 -34h159l36 38l49 -46q6 -6 4 -10q-1 -5 -10 -7l-18 -8v-341l5 -135q3 -26 -48 -35v71h-165v-96q3 -36 -49 -43q6 50 6 144v452q-2 24 -19 39zM111 793v-433h165v433h-165zM805 508h-237q-2 -4 -4 -12q-1 -5 -2 -7q54 -168 126 -253q84 103 117 272zM727 897l4 13
q101 -38 129 -87q28 -55 -13 -68q-17 0 -25 27q-7 28 -27 55q-19 26 -68 60z" />
  </g>

</svg>
