<?xml version="1.0" standalone="no"?>
<!DOCTYPE svg PUBLIC "-//W3C//DTD SVG 1.1//EN" "http://www.w3.org/Graphics/SVG/1.1/DTD/svg11.dtd" >
<svg xmlns="http://www.w3.org/2000/svg" xmlns:xlink="http://www.w3.org/1999/xlink" version="1.1" viewBox="0 -205 1048 1024">
  <g transform="matrix(1 0 0 -1 0 819)">
   <path fill="currentColor"
d="M977 245l-5 -14h-404v-99q3 -23 3 -28q0 -15 -24 -28q-12 -7 -18 -7t-7 14q1 -16 1 45v103h-436v20h436v121h-260q-51 -62 -123 -105l-8 12q43 28 89 91q34 47 52 113l42 -19q26 -11 26 -18q0 -10 -34 -17q-13 -23 -27 -36h243v73l-3 36l50 -13q28 -7 28 -17t-30 -25v-54
h220l25 31q14 17 17 17q4 0 17 -12l43 -40l-7 -17h-315v-121h309l21 32q13 18 17 18t19 -15zM984 812l-6 -15h-89q-47 -79 -132 -149q95 -59 225 -74l-5 -12q-40 0 -42 -19q-6 -23 -12 -23q-4 0 -35 14q-96 45 -158 95q-120 -68 -278 -86l-5 14q164 26 264 93
q-47 41 -100 111q-50 -65 -110 -111l-9 9q109 104 149 270l46 -7q26 -7 26 -16q0 -11 -35 -19q-9 -23 -31 -69h248l25 24q15 16 17 16q3 0 18 -16zM843 797h-210l-10 -18q41 -59 112 -112q64 56 108 130zM503 757l-7 -14h-122v-116l108 49l7 -14l-115 -65v-60q0 -55 1 -53
q-2 -6 -23 -19q-11 -5 -16 -5t-6.5 6.5t-0.5 23.5q1 27 1 40v42l-128 -71q-4 -38 -20 -38q-10 0 -20 25l-19 40l187 80v135h-135q-30 -112 -52 -138l-14 5q36 79 46 282l42 -14q28 -9 28 -20q0 -12 -22 -20q-9 -29 -22 -75l129 1v123l-4 45l47 -10q28 -6 28 -18t-27 -19
v-121h32l24 27q20 21 22 21t19 -21z" />
  </g>

</svg>
