<?xml version="1.0" standalone="no"?>
<!DOCTYPE svg PUBLIC "-//W3C//DTD SVG 1.1//EN" "http://www.w3.org/Graphics/SVG/1.1/DTD/svg11.dtd" >
<svg xmlns="http://www.w3.org/2000/svg" xmlns:xlink="http://www.w3.org/1999/xlink" version="1.1" viewBox="0 -36 256 256">
  <g transform="matrix(1 0 0 -1 0 220)">
   <path fill="currentColor"
d="M43 188q19 -10 23.5 -15.5t3.5 -13t-6.5 -9.5t-7.5 6.5t-5.5 14.5t-10.5 14zM131 161l-5 -5q-3 -10 -5 -19q12 -8 18.5 -14t5.5 -11.5t-5 -9t-7.5 6.5t-13.5 23q-8 -23 -30 -41l-3 2q14 19 20 37t7 40zM149 150q0 25 -1 35l20 -9l-6 -7v-76h28l12 12l16 -19h-56v-34h43
l13 11l16 -18h-119q-13 0 -22 -2l-9 9h65v34h-21q-10 0 -19 -2l-9 9h49v57zM210 160l-5 -5q-4 -9 -7 -15q23 -10 27.5 -15.5t4.5 -10.5t-4 -9t-8.5 6.5t-20.5 24.5q-9 -23 -30 -39l-2 4q13 16 19.5 36.5t6.5 34.5zM227 13q-110 0 -134 7.5t-37 16.5q-18 -12 -30 -29l-13 11
q19 16 35 23q5 10 13 41h-12l-7 -7l-11 14q7 4 12 12t14 31h-17q-6 0 -12 -2l-7 9h39l8 8l11 -14l-9 -4q-10 -22 -19 -40h12l10 8l10 -15l-9 -4q-9 -27 -12 -35q13 -8 36 -12t50 -4.5t99 4.5v-4q-19 -2 -20 -15zM100 211l10 11l18 -18h-37v-27l-13 -5v32h-22q-13 0 -22 -3
l-10 10h54v19q0 8 -1 16l21 -7l-7 -7v-21h9zM156 204l-11 -3l-10 10h36v15q0 10 -1 18l23 -8l-8 -6v-19h26l10 11l18 -18h-54v-23l-14 -6v29h-15z" />
  </g>

</svg>
