<?xml version="1.0" standalone="no"?>
<!DOCTYPE svg PUBLIC "-//W3C//DTD SVG 1.1//EN" "http://www.w3.org/Graphics/SVG/1.1/DTD/svg11.dtd" >
<svg xmlns="http://www.w3.org/2000/svg" xmlns:xlink="http://www.w3.org/1999/xlink" version="1.1" viewBox="0 -150 1000 1000">
  <g transform="matrix(1 0 0 -1 0 850)">
   <path fill="currentColor"
d="M140 791l6 10q65 -18 91 -54q28 -46 -6 -65q-15 -4 -20 21q-5 28 -21 48q-18 24 -50 40zM70 678l6 10q64 -14 91 -51q29 -49 -5 -69q-16 -3 -20 22.5t-21 47.5t-51 40zM334 701l14 -9l-86 -148q-63 -94 -71 -113q-7 -17 1.5 -68.5t-21.5 -53.5t-19.5 52t-2.5 61
q-11 9 -63 9l2 20q46 -3 64 6q20 11 56 60q22 30 126 184zM453 178q26 -11 50 -19q91 36 186 100h-402q71 -45 166 -81zM983 76v-13q-85 -3 -85 -29q-130 6 -245 36q-80 20 -150 50q-88 -37 -186 -60q-111 -27 -278 -42v11q155 27 263 59q57 16 149 51q-107 42 -189 120h-73
q-19 1 -31 -12l-31 30h567l33 32l49 -43q7 -3 7.5 -5.5t-6.5 -3.5q-14 1 -24 -6q-2 -1 -10 -6q-29 -18 -55 -35q-57 -35 -130 -67l-2 -1q57 -18 119 -32q79 -17 161 -26t147 -8zM452 754q-17 1 -37 -18l-32 32h398l23 28l42 -28q6 -6 5.5 -10t-9.5 -6l-16 -10v-97l5 -25
q-1 -29 -42 -36v29h-308q-26 1 -43 -16l-32 30h383v59h-300q-26 1 -44 -13l-31 25h375v56h-337zM23 882h309v49q2 15 -29 45l9 11l84 -35q14 -5 6 -11q-20 -7 -29 -20v-39h238v49q2 15 -29 45l9 11l85 -35q13 -5 6 -11q-21 -7 -30 -20v-39h211l33 39l65 -47q8 -5 6.5 -7.5
t-12.5 -2.5h-303v-14l3 -25q3 -35 -51 -43q5 36 7 74v8h-238v-14l3 -25q3 -35 -51 -43q5 36 7 74v8h-231q-27 1 -44 -12zM836 453v-59q0 -17 -8.5 -35.5t-56.5 -25.5q0 37 -93 48l4 14q95 -15 109 -9q9 5 8 35v43h-153v-97l2 -28q2 -36 -47 -43q5 47 6 80v88h-138v-56l5 -24
q1 -34 -49 -45q5 38 7 80v59q-3 10 -13 22l12 12l37 -34h139v71h-211l-1 -10q-8 -60 -44 -77q-22 -11 -32 9q-8 19 10 28q20 10 33 29.5t20 65.5h14v-31h487l20 32l50 -39q2 -5 -0.5 -7t-9.5 0q-26 -6 -53 -42q-8 -9 -12 -15l-15 6l22 51h-239v-71h143l22 28l37 -21
q8 -6 8 -10.5t-8 -8.5z" />
  </g>

</svg>
