<?xml version="1.0" standalone="no"?>
<!DOCTYPE svg PUBLIC "-//W3C//DTD SVG 1.1//EN" "http://www.w3.org/Graphics/SVG/1.1/DTD/svg11.dtd" >
<svg xmlns="http://www.w3.org/2000/svg" xmlns:xlink="http://www.w3.org/1999/xlink" version="1.1" viewBox="0 -36 256 256">
  <g transform="matrix(1 0 0 -1 0 220)">
   <path fill="currentColor"
d="M65 186h-34q-1 -9 -7.5 -13t-11.5 0.5t3.5 10.5t10.5 21h5v-12h34v23h-8q-10 0 -19 -2l-10 9h68l9 10l14 -17h-42v-23h34l8 9l13 -15q-10 -2 -25 -19l-3 1l8 17h-35q0 -42 1 -50l-14 -7q1 35 1 57zM55 168v-7h-25v7h25zM55 144v-7h-25v7h25zM111 168v-7h-26v7h26z
M111 144v-7h-26v7h26zM90 115l12 10l13 -17h-61q-11 1 -18 -3l-10 10h64zM85 65l3 2q16 -12 25 -25t2.5 -22t-8.5 -2.5t-6 16.5q-64 -8 -74 -12l-9 16q11 1 24.5 17t18.5 25h-19q-11 0 -20 -2l-9 9h88l11 11l14 -18h-45q-22 -23 -46 -43l65 2q-7 13 -15 26zM137 219l12 -6
h14q6 24 6 33l21 -10l-9 -4l-11 -19h38l5 9l15 -10l-7 -7v-35q0 -8 1 -16l-14 -6v7h-57v-19h75l9 11l12 -18h-96v-19h77l5 9l15 -11l-7 -6q-2 -46 -4 -59t-9 -21t-17 -12q-2 13 -25 15v6q18 -2 25 -1.5t10 7.5t5 26t2 40h-77v-5l-14 -5q1 20 1 34v65q0 13 -1 27zM208 206
h-57v-20h57v20zM208 179h-57v-17h57v17zM195.5 67.5q2.5 -8.5 -0.5 -13.5t-6.5 -5t-4 7.5t-3.5 16t-7 16.5l2 2q17 -15 19.5 -23.5zM215.5 75.5q4.5 -7.5 2 -14.5t-7 -7.5t-4.5 6.5t-4 17t-7 15l3 2q13 -11 17.5 -18.5zM171 66q4 -9 1 -15.5t-8 -6.5t-5 9.5t-2 17t-4 14.5
l2 2q12 -12 16 -21zM143 53q-2 -9 -8.5 -12.5t-10 1t3 12.5t8.5 15t3 16h4q2 -23 0 -32z" />
  </g>

</svg>
