<?xml version="1.0" standalone="no"?>
<!DOCTYPE svg PUBLIC "-//W3C//DTD SVG 1.1//EN" "http://www.w3.org/Graphics/SVG/1.1/DTD/svg11.dtd" >
<svg xmlns="http://www.w3.org/2000/svg" xmlns:xlink="http://www.w3.org/1999/xlink" version="1.1" viewBox="0 -36 256 256">
  <g transform="matrix(1 0 0 -1 0 220)">
   <path fill="currentColor"
d="M77.5 191.5q4.5 -7.5 -3.5 -16t-11.5 4t-18.5 30.5l3 2q26 -13 30.5 -20.5zM133.5 193.5q4.5 -7.5 -4.5 -15.5t-10 5.5t-12 30.5l3 2q19 -15 23.5 -22.5zM157 172l-2 3q24 27 35 48l21 -15l-12 -3q-22 -20 -42 -33zM138.5 233q49.5 7 59.5 12l18 -17q-30 -1 -72 -5
t-111 -8v7q56 4 105.5 11zM196 170l12 12l17 -19h-162q-13 0 -22 -3l-10 10h165zM206 65l-15 -6v10h-59v-38q0 -21 -25 -26q-4 15 -40 22l1 5q24 -4 37.5 -4.5t12.5 8.5v33h-47q-10 0 -19 -2l-10 9h76v23h-80q-10 0 -20 -2l-9 9h109v25h-44q-11 0 -20 -2l-10 9h74v30h14v-30
h58l8 10l16 -14l-9 -7v-21h13l12 12l16 -19h-41q0 -27 1 -34zM132 76h59v23h-59v-23zM132 106h59v25h-59v-25z" />
  </g>

</svg>
