<?xml version="1.0" standalone="no"?>
<!DOCTYPE svg PUBLIC "-//W3C//DTD SVG 1.1//EN" "http://www.w3.org/Graphics/SVG/1.1/DTD/svg11.dtd" >
<svg xmlns="http://www.w3.org/2000/svg" xmlns:xlink="http://www.w3.org/1999/xlink" version="1.1" viewBox="0 -52 256 256">
  <g transform="matrix(1 0 0 -1 0 204)">
   <path fill="currentColor"
d="M19 177l10 -9h27l9 10l12 -12q2 -2 1 -3q0 -1 -3 -1l-4 -2v-42l1 -28q1 -9 -12 -11v16h-29v-14q1 -10 -12 -11q2 9 2 30v64q-1 7 -5 10zM9 221h93l7 8l15 -11q5 -2 -1 -2h-20v-182q0 -9 -4 -14t-20 -8q-1 8 -7 11q-4 3 -21 6l1 4l10 -2q32 -9 30 10v175h-63q-7 0 -11 -3z
M31 99h29v65h-29v-65zM169 254l18 -9q5 -2 2 -3q-6 0 -9 -2q-6 -10 -16 -24h43l8 9l12 -9q2 -1 2 -3q0 -1 -2 -2l-5 -4v-32q5 -40 -30 -48q-1 9 -19 14q-4 1 -7 2v4q4 0 11 -1q4 -1 8 -1q3 -1 7 0h5q14 0 14 34v32h-63v-95h74l8 9l14 -12q2 -2 1 -2q0 -1 -2 -2l-6 -3v-44
q0 -21 -5 -29q-6 -11 -13 -14q-13 -8 -27 -9q2 10 -20 16l-9 3l1 4q8 -2 22 -4q8 -1 12 -2q11 1 15 4q2 1 6 5l2 2q4 4 5 26v47h-73l-9 -9l-14 12q3 0 7 6v90q-2 9 -5 12l4 3l9 -9h13l4 7q8 20 7 23q0 1 -1 5q1 -2 -1 2zM114 76h75l8 10l17 -13q5 -2 -1 -2h-79q-6 0 -11 -4z
M160 188l1 4q25 -7 29 -16q4 -12 -4 -13q-3 0 -6 6q-3 5 -5 8q-4 6 -15 11z" />
  </g>

</svg>
