<?xml version="1.0" standalone="no"?>
<!DOCTYPE svg PUBLIC "-//W3C//DTD SVG 1.1//EN" "http://www.w3.org/Graphics/SVG/1.1/DTD/svg11.dtd" >
<svg xmlns="http://www.w3.org/2000/svg" xmlns:xlink="http://www.w3.org/1999/xlink" version="1.1" viewBox="0 -205 1024 1024">
  <g transform="matrix(1 0 0 -1 0 819)">
   <path fill="currentColor"
d="M386 546h164v276q-75 -25 -162 -44l-6 16q75 26 156 62q80 33 158 90l60 -58q1 -8 -6 -10h-20t-32 -6q-19 -5 -94 -34v-292h178v434l92 -32q7 -6 0 -14l-36 -14v-374h70l28 36l62 -50q7 -9 2 -14h-162v-374l4 -81q2 -11 -22 -32q-24 -18 -42 -18l4 112v393h-178
q3 -163 -30 -260t-96 -149q-61 -56 -140 -92l-8 14q66 43 118 104q54 56 78 147q27 88 24 236h-88q-30 0 -56 -8l-20 36v0v0zM344 958l70 -52q8 -6 8 -12t-18 -12q-24 -6 -42 -30q-48 -82 -110 -202q48 -37 90 -80q38 -43 50 -86q9 -42 6 -68q-3 -27 -12 -44t-30 -40
t-84 -46q-9 30 -32 46q-22 16 -62 32l4 16q54 -12 78 -18q21 -4 40 2q18 6 34 28q15 21 12 66q-4 44 -32 88q-28 41 -88 104l94 236h-162v-738l4 -87q0 -20 -24 -32t-38 -12l4 129v814l58 -46h152l30 44v0v0z" />
  </g>

</svg>
