<?xml version="1.0" standalone="no"?>
<!DOCTYPE svg PUBLIC "-//W3C//DTD SVG 1.1//EN" "http://www.w3.org/Graphics/SVG/1.1/DTD/svg11.dtd" >
<svg xmlns="http://www.w3.org/2000/svg" xmlns:xlink="http://www.w3.org/1999/xlink" version="1.1" viewBox="0 0 2048 2048">
  <g transform="matrix(1 0 0 -1 0 2048)">
   <path fill="currentColor"
d="M1399 1549h341l99 102l120 -107q10 -10 15 -16q4 -6 1 -18q-3 -10 -11 -14t-15 -4h-225q-3 -16 -3 -23l-14 -110q-10 -68 -25 -146q-14 -78 -35.5 -163.5t-55.5 -181.5q-34 -95 -70 -164q-36 -70 -80 -134l-30 -44q16 -18 37 -39q20 -21 83 -73q63 -51 126 -92t141 -80
q77 -38 121 -51l68 -22l-4 -34q-12 0 -35 -1q-22 -1 -42 -18q-21 -17 -31 -37l-12 -22l-79 44q-37 21 -92 55q-55 35 -114 78q-58 43 -91 75t-106 113l-28 31l-43 -45q-22 -23 -72 -68t-112 -94t-142 -98q-79 -50 -147 -80l-75 -34l-23 34l98 59q54 33 105 69q50 36 122 96
q72 61 112 101q41 40 89 95l33 38q-9 11 -26 36q-18 24 -58 92t-73 138t-61 158q-29 88 -49 172q-20 83 -27 139l-9 64l42 9q6 -45 15 -89q8 -44 29.5 -121.5t50.5 -155.5q30 -79 64 -146q34 -68 70 -122q36 -55 70 -92l14 -16l36 56q21 33 56 108q36 75 62 154
q27 78 50 176q24 98 35 168q11 71 19 134q7 63 8 69l4 35h-548q-42 0 -109 -4q-67 -3 -70 -3l-13 -1l-38 88q13 -4 28 -8q16 -3 62 -9q47 -6 140 -6h279q-11 10 -15 17q-5 7 -12 46q-8 38 -12 58q-5 21 -18 55t-32 70q-18 36 -27 51l-31 47l31 20l43 -45q16 -16 50 -57
q33 -41 46 -59q12 -17 26 -42q13 -26 18 -46q6 -19 6 -46q-1 -26 -6 -38q-4 -12 -6 -14zM513 978q101 45 116 53l184 98l21 -29l-78 -62q-49 -39 -110 -74l-133 -79v-661q0 -38 -11 -66q-10 -29 -28 -46q-17 -17 -46 -34q-28 -17 -38 -18l-32 -7q-3 17 -8 36q-4 19 -17 37
q-13 17 -39 29q-27 12 -81 23l-61 12l8 45q49 -8 74 -11l53 -8q39 -6 69 -8q31 -1 46 12q16 14 16 46v572q-89 -42 -106 -49l-107 -46q-4 -19 -7 -35q-3 -17 -12 -28q-9 -12 -20 -14q-11 -1 -22 10t-29 46l-50 93q143 43 170 54l182 66v368q0 100 -3 124l-3 23l-1 15l79 -17
l86 100q40 48 66 92l57 93h-405l-71 -4l-27 -1l-26 -3l-25 -3l-39 82q27 -5 49 -8q21 -3 39 -5t49 -3q32 -2 51 -2l414 -1l80 78l71 -56q20 -17 35 -33t11 -32q-5 -15 -34 -26l-34 -11l-38 -12l-95 -101q-33 -33 -93 -89l-71 -66q28 -8 43 -12q16 -4 28 -13q13 -10 11 -23
q-2 -9 -14 -18t-35 -16l-59 -19v-358z" />
  </g>

</svg>
