<?xml version="1.0" standalone="no"?>
<!DOCTYPE svg PUBLIC "-//W3C//DTD SVG 1.1//EN" "http://www.w3.org/Graphics/SVG/1.1/DTD/svg11.dtd" >
<svg xmlns="http://www.w3.org/2000/svg" xmlns:xlink="http://www.w3.org/1999/xlink" version="1.1" viewBox="0 -205 1024 1024">
  <g transform="matrix(1 0 0 -1 0 819)">
   <path fill="currentColor"
d="M898 770l42 50l60 -56q12 -7 10 -14q0 -6 -14 -6h-556q-16 0 -64 -8l-20 34h542v0v0zM560 964l10 12q74 -36 110 -68q33 -33 40 -56q3 -24 -8 -38q-12 -16 -32 -14q-19 2 -26 28q-6 24 -26 60q-19 33 -68 76v0v0zM448 460q108 158 150 268q80 -36 82 -42q1 -7 -4 -10
q-3 -4 -20 -4q-16 0 -58 -60q-42 -57 -126 -162l246 12q45 69 84 150q77 -40 80 -46q0 -7 -2 -10q-1 -4 -20 -4t-64 -66q-43 -63 -128 -162q-83 -100 -190 -201q138 10 412 23q-27 63 -102 148l12 14q93 -72 132 -126q40 -50 50 -83q9 -30 -2 -52q-12 -22 -32 -20
q-18 2 -24 24q-5 24 -22 74q-258 -18 -336 -34q-78 -13 -132 -44l-36 76q44 10 62 21q99 110 142 158q39 48 102 136q-133 -15 -176 -24q-42 -9 -84 -30l-44 60l48 16v0v0zM90 864l58 -40h116l32 40l60 -38q12 -6 12 -14q-1 -3 -34 -30v-386l4 -100q1 -12 -16 -24
q-16 -13 -40 -16v88h-140v-108q0 -12 -20 -24q-21 -12 -36 -12l4 150v514v0v0zM142 374h140v420h-140v-420v0v0z" />
  </g>

</svg>
