<?xml version="1.0" standalone="no"?>
<!DOCTYPE svg PUBLIC "-//W3C//DTD SVG 1.1//EN" "http://www.w3.org/Graphics/SVG/1.1/DTD/svg11.dtd" >
<svg xmlns="http://www.w3.org/2000/svg" xmlns:xlink="http://www.w3.org/1999/xlink" version="1.1" viewBox="0 -36 256 256">
  <g transform="matrix(1 0 0 -1 0 220)">
   <path fill="currentColor"
d="M156 177l1 -3q-24 -11 -35 -16t-16 -9l-10 13q12 2 25 6v55q-9 0 -18 -2l-9 9h39l10 9l14 -16h-24v-52q10 2 23 6zM220 158h7q6 1 6 25h3q0 -3 1.5 -13t7.5 -15q-5 -6 -8 -7t-8 -1h-18q-9 1 -9 16v65h-25q0 -39 -7 -59t-31 -37l-2 3q19 22 23 38.5t4.5 34.5t-0.5 36
l13 -9h24l6 9l14 -11l-7 -7v-56q0 -13 6 -12zM217 15l-15 -6q1 21 1 36l-76 -7q-14 -2 -20 -6l-10 11l23 2v77q-5 0 -14 -2l-9 9h119l10 10l15 -17h-25v-69l8 1l9 12l15 -17l-32 -3q0 -23 1 -31zM132 103h71v19h-71v-19zM132 76h71v20h-71v-20zM132 46l71 6v17h-71v-23z
M47 243l23 -11l-9 -7q-3 -18 -6 -43h22l8 10l15 -13l-8 -6q-4 -64 -17 -94q15 -12 20.5 -18t2.5 -17.5t-12.5 3.5t-15.5 20q-22 -32 -63 -55l-2 4q36 28 55 59q-8 6 -36 20q10 39 16 80h-8q-6 0 -12 -2l-9 9h30q4 34 6 61zM54 175q-6 -39 -16 -77q15 -7 26 -13q11 27 14 90
h-24z" />
  </g>

</svg>
