<?xml version="1.0" standalone="no"?>
<!DOCTYPE svg PUBLIC "-//W3C//DTD SVG 1.1//EN" "http://www.w3.org/Graphics/SVG/1.1/DTD/svg11.dtd" >
<svg xmlns="http://www.w3.org/2000/svg" xmlns:xlink="http://www.w3.org/1999/xlink" version="1.1" viewBox="0 -120 1000 1000">
  <g transform="matrix(1 0 0 -1 0 880)">
   <path fill="currentColor"
d="M764 409v-89h92l21 30l41 -27q21 -14 21 -23q0 -7 -13 -12l-9 -2v-117q0 -37 -12 -51q-23 -26 -54 -26q-7 0 -8 15q-3 25 -21 33l-24 9v15h62v128h-96v-235l-57 -11v246h-76v-179l-55 -16v248l57 -25h74v89h-20v-41l-56 -13v152h-75v-98q0 -100 -20 -179
q-18 -69 -80 -160l-19 12q36 71 47 143q14 85 14 196v278l65 -35h130v97l57 -8q23 -4 23 -15q0 -8 -14 -14l-9 -4v-56h115l28 41l68 -50v-20h-405v-101h75v85l54 -7q23 -3 23 -12t-11 -12l-10 -3v-51h90v85l56 -7q24 -3 24 -14q0 -9 -13 -13l-9 -3v-48h27l31 40l65 -48v-19
h-123v-121l-58 -12v35h-13zM687 507v-71h90v71h-90zM798 803h-156v-83l-58 -14v97h-65l-10 28h75v116l71 -9q15 -1 15 -11q0 -9 -12 -13l-16 -7v-76h19l26 35l55 -35h56v116l71 -9q15 -1 15 -11q0 -9 -12 -13l-16 -7v-76h19l25 38l61 -47v-19h-105v-83l-58 -14v97zM294 831
h32v118l74 -8q15 -2 15 -12q0 -9 -12 -13l-16 -7v-78h16l27 44l59 -50v-22h-102v-61l-61 -18v79h-26h-102v-61l-61 -18v79h-88l-10 28h98v118l74 -8q15 -2 15 -12q0 -9 -12 -13l-16 -7v-78h16l26 44zM184 677h170l23 37l62 -37q9 -5 9 -15q0 -8 -13 -14l-12 -7v-277l-56 -8
v37h-65v-120h50l37 49l74 -53v-23h-161v-192l-62 -9v201h-184l-13 27h197v120h-60v-44l-57 -9v366zM180 530v-109h187v109h-187zM180 649v-92h187v92h-187z" />
  </g>

</svg>
