<?xml version="1.0" standalone="no"?>
<!DOCTYPE svg PUBLIC "-//W3C//DTD SVG 1.1//EN" "http://www.w3.org/Graphics/SVG/1.1/DTD/svg11.dtd" >
<svg xmlns="http://www.w3.org/2000/svg" xmlns:xlink="http://www.w3.org/1999/xlink" version="1.1" viewBox="0 -200 999 1000">
  <g transform="matrix(1 0 0 -1 0 800)">
   <path fill="currentColor"
d="M42 293q43 59 86.5 128t80.5 139t65.5 137.5t41.5 124.5h-160l-54 -14l-20 40h124v50l-9 104l74 -29l-16 -76v-49h67l35 55l60 -64l-45 -41q-11 -22 -24.5 -53t-27.5 -64t-28.5 -65t-27.5 -54l-5 -31q13 -11 25 -21t23 -19q9 16 19.5 36.5t20 42.5t18.5 44t15 41l60 -54
l-30 -23l-89 -98q29 -24 49.5 -46t32.5 -45q1 -5 1.5 -9t0.5 -6q0 -11 -3 -22t-7.5 -20t-10 -15t-11.5 -6q-12 0 -19 31q-16 42 -42.5 87.5t-55.5 83.5v-484l-11.5 -11.5t-9.5 -8t-12 -6t-19 -5.5v473q-7 -14 -23.5 -38.5t-37.5 -51.5t-44.5 -53.5t-45.5 -45.5zM388 -1
q39 38 80.5 125t68.5 227h323q0 -75 -5 -136.5t-19 -109.5q-9 -18 -27 -25.5t-41 -7.5q-19 0 -38 4t-35 10l-1 -15q23 -6 39.5 -11.5t27 -13.5t16.5 -19t8 -28q45 10 70 42t37.5 77t15 99t2.5 109l37 32l-48 54l-39 -37h-32l18 97l36 26l-45 51l-36 -29h-16l17 103l27 29
l-52 47l-36 -34h-165l-59 34q-4 -96 -12 -190t-24 -182.5t-42 -170.5t-66 -153zM797 498l-20 -124h-237q8 32 12.5 67.5t4.5 55.5zM578 641h173l-18 -121h-174l10 85zM554 881q45 6 78 12t60.5 12t53 12t55.5 12l47 3l-47 69q-9 -6 -31.5 -17.5t-55.5 -25.5t-76 -30t-92 -32
zM550 256q-2 -17 -3.5 -31.5t-4.5 -29t-7.5 -31t-12.5 -37.5q-2 -6 -4 -13t-2 -14q0 -9 4 -15.5t15 -6.5q17 0 30.5 21.5t13.5 66.5q0 49 -18 97zM779 863q32 -34 47.5 -64.5t24 -54t15 -37t20.5 -13.5q18 0 25 11t7 25q0 11 -3 21.5t-7 18.5q-17 29 -51.5 55.5t-66.5 46.5z
M612 278q3 -18 6.5 -44.5t3.5 -50.5q0 -11 -3.5 -26.5t-3.5 -29.5q0 -10 3 -16t13 -6q11 0 25.5 16.5t14.5 49.5q-3 26 -16 54.5t-32 57.5zM759 294q9 -25 14.5 -49t5.5 -47v-14.5t1 -16t4.5 -12.5t9.5 -5q8 0 19.5 13.5t11.5 32.5q0 25 -16.5 52t-42.5 54zM682 286
q6 -18 12.5 -39.5t6.5 -46.5q0 -6 -2 -18t-2 -23t3 -18t12 -7q14 0 25 15t11 34q0 27 -16.5 54.5t-40.5 53.5zM655 846q9 -31 12 -56.5t4.5 -44.5t4.5 -30t11 -12q5 0 12 2t13.5 6.5t11.5 11t6 15.5v6q0 12 -6 26.5t-15 28.5t-20 27.5t-21 23.5zM432 647q22 15 44 42
t42.5 55t37 52.5t28.5 35.5h-5l-71 34q-5 -35 -15 -66t-22 -57.5t-25.5 -48.5t-25.5 -38z" />
  </g>

</svg>
