<?xml version="1.0" standalone="no"?>
<!DOCTYPE svg PUBLIC "-//W3C//DTD SVG 1.1//EN" "http://www.w3.org/Graphics/SVG/1.1/DTD/svg11.dtd" >
<svg xmlns="http://www.w3.org/2000/svg" xmlns:xlink="http://www.w3.org/1999/xlink" version="1.1" viewBox="0 -205 1024 1024">
  <g transform="matrix(1 0 0 -1 0 819)">
   <path fill="currentColor"
d="M124 734h312l22 20q44 -42 46 -48q0 -6 -2 -8q-4 -4 -16 -4t-36 -14q-24 -15 -74 -44q59 -18 80 -32q20 -15 22 -30q0 -16 -8 -22q-10 -6 -22 -2q-11 2 -28 16q-15 14 -36 26q-22 12 -46 22q-60 -31 -114 -50q-54 -18 -138 -30l-2 14q87 24 132 42q42 16 84 38
q-53 17 -142 38l4 16q102 -13 168 -34q48 27 94 64h-234q-22 1 -46 -4l-20 26v0v0zM466 320q81 20 120 34t94 40q-76 50 -112 98h-22l-14 -4l-20 30h284l28 28q56 -40 56 -46q-1 -6 -8 -8q-5 0 -16 -6q-12 -6 -42 -36q-28 -27 -70 -54q20 -12 52 -20q32 -7 62 -10h98v-18
q-40 -3 -56 -12t-28 -30q-39 12 -72 24q-30 11 -90 44q-57 -30 -104 -42q-47 -13 -136 -28l-4 16v0v0zM592 494q44 -40 112 -80q57 35 90 80h-202v0v0zM316 188q84 -16 216 -34q68 41 106 98h-268l-54 -64v0v0zM450 330l8 -8l-2 -8q-3 0 -18 -2q-12 -2 -44 -34h488l34 36
l56 -42q5 -4 8 -10q2 -10 -10 -10h-264q-54 -73 -114 -111q105 -15 156 -30q48 -13 72 -32q24 -16 22 -36q0 -21 -18 -24q-16 -3 -46 18q-30 18 -78 36t-146 42q-117 -65 -240 -80t-242 -18l-2 18q118 9 218 26q99 16 208 68q-175 32 -244 43q39 46 66 80h-184
q-45 0 -62 -12l-22 38h286q30 36 54 76l60 -24v0v0zM108 758q153 48 270 106l48 -38q9 -13 -8 -16q-27 3 -80 -12q-51 -15 -224 -56l-6 16v0v0zM578 846l4 16q102 -6 162 -18q60 -11 88 -28q26 -18 26 -38q1 -19 -16 -26q-15 -7 -48 20q-34 24 -76 40q-42 14 -140 34v0v0z
M408 998l8 12q66 -16 88 -26q20 -9 28 -24t2 -30t-20 -18q-13 -4 -22 2q-9 2 -14 20q-5 15 -16 28q-9 12 -54 36v0v0zM106 944h20v-42h772l36 38q59 -55 62 -62q1 -6 -4 -8q-3 -4 -20 -4q-18 -1 -36 -16q-18 -16 -44 -46l-16 10q21 33 30 64h-780q-3 -42 -18 -72
q-13 -28 -32 -34q-19 -7 -32 -2t-16 20q-1 12 10 22q11 9 26 22q11 9 26 34q12 24 16 76v0v0zM522 730h312l22 20q44 -42 46 -48q0 -6 -2 -8q-4 -4 -16 -4t-36 -14q-24 -15 -74 -44q81 -21 102 -36q20 -15 22 -30q0 -16 -8 -22q-10 -6 -22 -2q-11 2 -28 16q-15 14 -42 28
q-27 15 -62 24q-60 -30 -114 -48q-54 -17 -126 -28l-2 14q75 22 120 38q42 16 84 38q-53 17 -142 38l4 16q102 -13 168 -34q48 27 94 64h-234q-22 1 -46 -4l-20 26v0v0zM124 526h312l22 20q44 -42 46 -48q0 -6 -2 -8q-4 -4 -16 -4t-36 -14q-24 -15 -74 -44q59 -18 80 -32
q20 -15 22 -30q0 -16 -8 -22q-10 -6 -22 -2q-11 2 -28 16q-15 14 -36 26q-22 12 -46 22q-60 -31 -114 -50q-54 -18 -138 -30l-2 14q87 24 132 42q42 16 84 38q-53 17 -142 38l4 16q102 -13 168 -34q48 27 94 64h-234q-22 1 -46 -4l-20 26v0v0z" />
  </g>

</svg>
