<?xml version="1.0" standalone="no"?>
<!DOCTYPE svg PUBLIC "-//W3C//DTD SVG 1.1//EN" "http://www.w3.org/Graphics/SVG/1.1/DTD/svg11.dtd" >
<svg xmlns="http://www.w3.org/2000/svg" xmlns:xlink="http://www.w3.org/1999/xlink" version="1.1" viewBox="0 -205 1024 1024">
  <g transform="matrix(1 0 0 -1 0 819)">
   <path fill="currentColor"
d="M588 724l144 8l32 38q68 -43 70 -50q1 -5 -4 -10q-6 -6 -32 -24v-514q0 -46 6 -53q5 -6 14 -6h104q14 3 20 18q3 15 6 53v102h20q2 -72 8 -108q3 -33 34 -55q-17 -31 -34 -44q-15 -11 -48 -14h-106q-36 0 -56 18q-22 15 -22 66v557l-158 -10q3 -103 -14 -224
q-17 -120 -76 -224q-60 -105 -218 -217l-10 14q135 114 186 217q51 102 66 208q15 105 12 220l-86 -6q-28 -4 -46 -16l-26 38l158 12v266q87 -28 90 -34t-2 -12q-6 -4 -32 -16v-198v0v0zM82 894l58 -40h128l32 40l60 -38q12 -6 12 -14q-1 -3 -34 -30v-410l4 -100
q1 -12 -16 -24q-16 -13 -40 -16v96h-152v-96q0 -12 -20 -24q-21 -12 -36 -12l4 130v538v0v0zM134 388h152v436h-152v-436v0v0z" />
  </g>

</svg>
