<?xml version="1.0" standalone="no"?>
<!DOCTYPE svg PUBLIC "-//W3C//DTD SVG 1.1//EN" "http://www.w3.org/Graphics/SVG/1.1/DTD/svg11.dtd" >
<svg xmlns="http://www.w3.org/2000/svg" xmlns:xlink="http://www.w3.org/1999/xlink" version="1.1" viewBox="0 -36 256 256">
  <g transform="matrix(1 0 0 -1 0 220)">
   <path fill="currentColor"
d="M53 245l24 -11l-10 -5q-4 -21 -7 -46h25l8 10l17 -13l-9 -7q-4 -66 -20 -97q16 -12 23.5 -20t2.5 -18.5t-12.5 3.5t-20.5 24q-21 -31 -62 -56l-3 3q37 28 56 61q-8 7 -37 23q12 37 17 80h-1q-15 0 -26 -3l-9 10h37q5 34 7 62zM59 176q-6 -41 -16 -80q15 -8 26 -14
q14 28 17 94h-27zM239 80l5 -1q-4 -21 -4 -38.5t2 -24.5t-18 4.5t-35 41.5t-17 79h-40v-101l45 21l2 -4q-48 -33 -55 -45l-13 15q9 7 8 20v140q0 17 -1 37l14 -10q23 5 48 12.5t39 15.5l16 -19q-16 0 -50 -6q0 -33 1 -69h27l15 14l17 -21h-59q2 -75 43 -106zM170 214l-38 -6
v-60h39q-1 32 -1 66z" />
  </g>

</svg>
