<?xml version="1.0" standalone="no"?>
<!DOCTYPE svg PUBLIC "-//W3C//DTD SVG 1.1//EN" "http://www.w3.org/Graphics/SVG/1.1/DTD/svg11.dtd" >
<svg xmlns="http://www.w3.org/2000/svg" xmlns:xlink="http://www.w3.org/1999/xlink" version="1.1" viewBox="0 -205 1024 1024">
  <g transform="matrix(1 0 0 -1 0 819)">
   <path fill="currentColor"
d="M318 386q4 -6 2 -8q-1 -4 -14 -8q-10 -1 -22 -16t-26 -36h158l22 26q54 -36 58 -44q0 -6 -8 -12q-24 -7 -54 -52t-72 -84q63 -27 82 -51q17 -20 14 -44q-3 -22 -20 -26q-16 -3 -26 12q-9 12 -30 38q-21 24 -56 42q-64 -41 -130 -64q-64 -21 -134 -42l-4 16q75 30 124 50
q48 22 106 59q-60 32 -138 64l48 86h-98q-18 0 -42 -8l-18 34h168q24 42 46 94l64 -26v0v0zM196 216q65 -21 122 -48q50 42 98 124h-172l-48 -76v0v0zM118 922l56 -30h104v96l72 -26q13 -6 8 -6q10 -4 0 -10l-30 -18v-36h106l26 28l46 -28q8 -6 8 -14q0 -6 -24 -24v-74h28
l26 34l38 -36q15 -16 0 -22h-92v-48l4 -48q-1 -15 -16 -26q-15 -9 -38 -12l2 22h-114v-72h104l28 32l38 -32q12 -7 12 -14q1 -7 -22 -22v-70l4 -32q1 -15 -16 -26q-15 -12 -36 -14v30h-288v-10q-1 -10 -10 -16q-12 -12 -42 -12l4 62v148l54 -24h120v72h-114v-10
q-1 -1 -10 -8q-18 -9 -42 -12l4 68l2 74h-38q-13 0 -34 -8l-18 32h90v142v0v0zM164 668h114v88h-114v-88v0v0zM328 756v-88h114v88h-114v0v0zM152 448h126v102h-126v-102v0v0zM328 550v-102h112v102h-112v0v0zM164 780h114v88h-114v-88v0v0zM328 868v-88h114v88h-114v0v0z
M870 894q-73 -25 -122 -44v-206l84 18l26 56l68 -46q7 -4 8 -10q0 -3 -8 -8l-178 -38v-226l138 30l22 54l72 -42q10 -3 8 -12q1 -4 -10 -10l-230 -48v-239q0 -27 6 -36q6 -12 24 -10h110q35 0 44 38q6 36 10 141h22q3 -67 6 -104q3 -34 34 -47q-6 -24 -24 -46
q-17 -17 -64 -26h-144q-25 1 -38 4q-12 1 -26 16q-12 16 -12 56v245l-120 -24q-18 -5 -30 -16l-32 34l182 32v226l-94 -18q-18 -6 -32 -14l-28 32l154 28v200q-63 -22 -122 -40l-8 16q81 36 168 76q87 38 136 74l58 -40q6 -9 4 -14q-4 -4 -22 -4q-16 0 -40 -8v0v0z" />
  </g>

</svg>
