<?xml version="1.0" standalone="no"?>
<!DOCTYPE svg PUBLIC "-//W3C//DTD SVG 1.1//EN" "http://www.w3.org/Graphics/SVG/1.1/DTD/svg11.dtd" >
<svg xmlns="http://www.w3.org/2000/svg" xmlns:xlink="http://www.w3.org/1999/xlink" version="1.1" viewBox="0 -36 256 256">
  <g transform="matrix(1 0 0 -1 0 220)">
   <path fill="currentColor"
d="M68 189q-21 -33 -58 -52l-1 4q37 31 52 62h-16q-10 0 -19 -2l-9 9h50q0 28 -1 36l23 -11l-8 -7v-18h23l12 11l14 -18h-49v-8q34 -15 38 -22t1.5 -17.5t-11 3.5t-28.5 30v-23q0 -19 1 -25l-15 -5q1 14 1 53zM91 130l11 11l17 -18h-61q-14 0 -22 -2l-9 9h64zM80 34
q0 -11 -4.5 -17.5t-13.5 -8.5q-3 10 -8.5 12.5t-13.5 4.5v4q13 -1 20 -1t7 11v52h-27q-13 0 -22 -2l-9 9h97l13 12l17 -19h-56v-57zM57 68l-8 -5q-17 -28 -39 -40l-2 3q23 24 32 53zM124.5 49.5q6.5 -9.5 1.5 -20t-10.5 4t-24.5 38.5l2 3q25 -16 31.5 -25.5zM180 160
q-27 -23 -61 -32l-2 3q41 21 53 38q-19 30 -24 56h-4q-2 1 -9 -2l-7 9h80l8 9l15 -15l-10 -5q-10 -30 -30 -52q24 -22 56 -25v-4q-13 -2 -17 -11q-27 14 -48 31zM151 225q6 -22 29 -48q17 21 25 48h-54zM148 126h62l6 8l16 -11l-7 -6v-106l-14 -4v18h-63v-13l-13 -5v125z
M148 119v-23h63v23h-63zM148 89v-23h63v23h-63zM148 59v-27h63v27h-63z" />
  </g>

</svg>
