<?xml version="1.0" standalone="no"?>
<!DOCTYPE svg PUBLIC "-//W3C//DTD SVG 1.1//EN" "http://www.w3.org/Graphics/SVG/1.1/DTD/svg11.dtd" >
<svg xmlns="http://www.w3.org/2000/svg" xmlns:xlink="http://www.w3.org/1999/xlink" version="1.1" viewBox="0 -144 1024 1024">
  <g transform="matrix(1 0 0 -1 0 880)">
   <path fill="currentColor"
d="M448 595l2 -8l53 -44l1 -16l-23 10l-16 -4l-27 -6l-28 -6l-61 -9l-31 -5l-32 -3l-34 -4l-34 -2l-36 -2h-5v-87h172l54 54l64 -54v-22h-290v-96h645v96h-280v22h280v97h-274v21h274l32 27l59 -48l-27 -22v-209l-64 -33v27h-215v-145h-65v145h-106l-9 -32l-19 -39l-26 -35
l-33 -31l-37 -27l-44 -22l-49 -19l-55 -14l-60 -10l-66 -6l-2 9l63 16l57 19l50 19l43 22l37 24l30 26l24 28l17 29l12 31l2 12h-205l-54 -27v301l59 -29l42 12l33 9l32 9l61 17l83 25l20 7zM628 38l-14 1l-13 2l-13 4l-12 7l-11 9l-9 11l-7 12l-4 13l-2 14l-1 13h65v-6
l1 -5l2 -5l2 -2l5 -2l4 -1l7 -1h260l31 135h10l-10 -135l19 -12l13 -20l-13 -19l-19 -13h-291zM455 995l54 -37l8 -17h-29l-17 -13l-8 -5l-5 -3h240l33 27l59 -49l-27 -21v-264l-65 -32v27h-430l-54 -27v371l65 -32h150l6 15l4 8l6 17l4 16l2 8v1l-2 1l3 4v1zM698 715h-419
v-86h419v86zM698 801h-419v-64h419v64zM698 898h-419v-75h419v75z" />
  </g>

</svg>
