<?xml version="1.0" standalone="no"?>
<!DOCTYPE svg PUBLIC "-//W3C//DTD SVG 1.1//EN" "http://www.w3.org/Graphics/SVG/1.1/DTD/svg11.dtd" >
<svg xmlns="http://www.w3.org/2000/svg" xmlns:xlink="http://www.w3.org/1999/xlink" version="1.1" viewBox="0 -36 256 256">
  <g transform="matrix(1 0 0 -1 0 220)">
   <path fill="currentColor"
d="M34 137l-11 -3l-10 10h42v10q0 21 -1 37l24 -11l-10 -7v-29h6l12 11l15 -18h-33v-31l29 14l2 -4l-31 -20v-60q2 -20 -19 -26q-4 14 -26 17v4q19 -2 25.5 -2t6.5 8v51q-28 -16 -30 -21l-15 13q19 8 45 21v36h-21zM143 168l8 7l16 -12l-11 -5q-27 -57 -73 -79l-2 3
q44 31 62 79h-18q-13 0 -22 -3l-10 10h50zM185 150q19 19 27 32l16 -14l-9 -1q-16 -12 -32 -22q7 -13 12 -18q15 11 21 18.5t11 12.5l13 -16l-7 2l-35 -21q7 -8 19 -16t26 -12v-5q-15 3 -22 -6q-18 11 -34 33.5t-23 63.5h4q5 -14 13 -31zM120 141.5q6 -5.5 5 -10t-5 -9.5
t-9 6.5t-17 21.5l1 3q19 -6 25 -11.5zM167 88h26l10 9l15 -16h-51v-23h46l11 11l17 -18h-74v-11q0 -14 1 -29l-16 -4q1 13 1 26v18h-32q-14 1 -23 -2l-12 9h67v23h-8q-19 1 -24 -2l-11 9h43v17q0 6 -1 15l24 -8l-9 -6v-18zM70 231l-10 -13h53l9 11l16 -18h-55q20 -10 21 -17
t-5.5 -13t-9.5 6t-14 24h-19q-17 -22 -39 -37l-3 2q15 17 26 33t19 38l21 -13zM173 232l-11 -14h55l12 10l15 -17h-61q14 -7 18.5 -12t3 -11t-6 -7t-8 8.5t-15.5 21.5h-18q-12 -14 -29 -28l-3 2q19 24 26 38t11 24l21 -13z" />
  </g>

</svg>
