<?xml version="1.0" standalone="no"?>
<!DOCTYPE svg PUBLIC "-//W3C//DTD SVG 1.1//EN" "http://www.w3.org/Graphics/SVG/1.1/DTD/svg11.dtd" >
<svg xmlns="http://www.w3.org/2000/svg" xmlns:xlink="http://www.w3.org/1999/xlink" version="1.1" viewBox="0 -36 256 256">
  <g transform="matrix(1 0 0 -1 0 220)">
   <path fill="currentColor"
d="M44 246l22 -9l-9 -8v-42h9l9 12l11 -19h-29v-48l27 14l1 -5l-28 -21v-82q2 -23 -17 -31q1 11 -21 19v5q11 -1 18.5 -1t6.5 12v69q-24 -16 -23 -18l-12 16q10 3 35 16v55h-18l-7 -4l-8 11h33v59zM134 53l-12 -9v19h-25v-11l-13 -10q1 35 1 96t-1 83l12 -11h26l6 13l12 -13
l-6 -6v-151zM97 139h25v64h-25v-64zM97 70h25v62h-25v-62zM186 209q1 18 -11 33l3 3q20 -12 21.5 -20t-6.5 -16h25l11 11l13 -18h-73q-14 0 -19 -3l-7 10h43zM179.5 166q1.5 -9 -5 -14.5t-8.5 8.5t-12 33l4 3q20 -21 21.5 -30zM221 184q-11 -19 -23 -37h25l10 10l13 -17h-84
q-16 -1 -20 -3l-8 10h58q16 37 17 52l19 -14zM151 63.5q0 33.5 -1 59.5l14 -8h47l6 10l15 -11l-7 -8v-62q0 -12 1 -26l-15 -8v16h-46v-11l-15 -6q1 21 1 54.5zM165 75h46v33h-46v-33zM165 33h46v35h-46v-35z" />
  </g>

</svg>
