<?xml version="1.0" standalone="no"?>
<!DOCTYPE svg PUBLIC "-//W3C//DTD SVG 1.1//EN" "http://www.w3.org/Graphics/SVG/1.1/DTD/svg11.dtd" >
<svg xmlns="http://www.w3.org/2000/svg" xmlns:xlink="http://www.w3.org/1999/xlink" version="1.1" viewBox="0 -205 1024 1024">
  <g transform="matrix(1 0 0 -1 0 819)">
   <path fill="currentColor"
d="M790 914l68 -50q7 -3 8 -12q0 -3 -36 -26v-208l4 -88q-3 -16 -18 -28q-13 -10 -40 -14v58h-548v-354q0 -52 48 -53h244h282q48 4 66 19q15 14 22 70l6 110h18q2 -91 10 -122q6 -28 34 -38q-25 -50 -46 -67q-22 -15 -100 -22h-292h-258q-87 4 -86 83v736l64 -42h514l36 48
v0v0zM228 838v-264h244v264h-244v0v0zM526 574h250v264h-250v-264v0v0z" />
  </g>

</svg>
