<?xml version="1.0" standalone="no"?>
<!DOCTYPE svg PUBLIC "-//W3C//DTD SVG 1.1//EN" "http://www.w3.org/Graphics/SVG/1.1/DTD/svg11.dtd" >
<svg xmlns="http://www.w3.org/2000/svg" xmlns:xlink="http://www.w3.org/1999/xlink" version="1.1" viewBox="0 -36 256 256">
  <g transform="matrix(1 0 0 -1 0 220)">
   <path fill="currentColor"
d="M132 203h-46q0 -8 1 -18l-17 -10q1 18 1 28h-26q-12 0 -21 -2l-10 9h57q0 22 -1 36l26 -10l-10 -7v-19h17l12 11zM121 116l25 -11l-9 -6v-9h41l14 11l18 -18h-73v-28h76l14 11l19 -18h-109v-18.5t1 -17.5l-17 -6q1 14 1 42h-81q-10 0 -20 -2l-10 9h111v28h-47
q-11 0 -21 -2l-9 9h77q0 9 -1 26zM131 136q19 10 36 25h-73q17 -15 37 -25zM94 168h77l12 7l12 -17l-9 -2q-22 -16 -43 -27q20 -9 45.5 -12.5t58.5 -2.5v-4q-18 -4 -18 -13q-26 2 -52.5 7.5t-45.5 16.5q-49 -21 -123 -29v6q68 12 109 31q-16 12 -33 30q-20 -15 -44 -26l-3 3
q19 13 34 27t28 33l16 -15l-9 -4q-6 -4 -12 -9zM132 211h36q0 15 -1 36l24 -11l-9 -6v-19h31l13 12l17 -19h-61q0 -11 2 -21l-17 -7q1 19 1 28h-13q-7 1 -15 -3z" />
  </g>

</svg>
