<?xml version="1.0" standalone="no"?>
<!DOCTYPE svg PUBLIC "-//W3C//DTD SVG 1.1//EN" "http://www.w3.org/Graphics/SVG/1.1/DTD/svg11.dtd" >
<svg xmlns="http://www.w3.org/2000/svg" xmlns:xlink="http://www.w3.org/1999/xlink" version="1.1" viewBox="0 -36 256 256">
  <g transform="matrix(1 0 0 -1 0 220)">
   <path fill="currentColor"
d="M49 244l23 -9l-9 -8v-42l10 11l14 -17h-24v-48l28 11l2 -4l-30 -19v-80q2 -23 -20 -30q2 10 -22 18v5q13 -1 21 -1t8 12v68q-27 -16 -26 -18l-13 16q11 3 39 16v53h-20l-8 -3l-9 10h37q0 35 -1 59zM154 245l21 -8l-7 -7v-13h42l10 11l16 -18h-68v-19h57l7 9l15 -17
q-6 0 -10 -3.5t-14 -14.5l-4 1l8 18h-124q-1 -10 -7 -17t-12 -1t2 11t13 25h4v-11h52v19h-24q-15 0 -27 -4l-11 11h62q0 14 -1 28zM167 125h34v15h-34v-15zM120 170h79l6 7l13 -10l-5 -5v-23q0 -10 1 -24l-13 -5v8h-81v-4l-13 -5q1 22 1 38t-1 30zM120 147h35v16h-35v-16z
M167 147h34v16h-34v-16zM120 125h35v15h-35v-15zM152 30v52l13 1v-24h30l10 10l15 -17h-55v-24q20 -2 39.5 -2t39.5 3v-4q-13 -5 -13 -13q-57 -1 -78 5.5t-38 22.5q-16 -24 -43 -33l-1 5q17 10 27.5 25.5t11.5 32.5l20 -10l-7 -2l-5 -10q15 -14 34 -18zM181 105l3 3
q22 -10 29.5 -17.5t2.5 -16.5t-8 -4t-8 14q-74 -7 -93 -9l-7 12q12 1 27.5 10t25.5 21l18 -11l-10 -1q-16 -10 -33 -18l69 2q-6 6 -16 15z" />
  </g>

</svg>
