<?xml version="1.0" standalone="no"?>
<!DOCTYPE svg PUBLIC "-//W3C//DTD SVG 1.1//EN" "http://www.w3.org/Graphics/SVG/1.1/DTD/svg11.dtd" >
<svg xmlns="http://www.w3.org/2000/svg" xmlns:xlink="http://www.w3.org/1999/xlink" version="1.1" viewBox="0 -205 1024 1024">
  <g transform="matrix(1 0 0 -1 0 819)">
   <path fill="currentColor"
d="M470 436l54 -24h272l30 32l50 -44q6 -7 6 -10q1 -7 -28 -22v-194l4 -85q1 -12 -16 -24q-18 -11 -38 -14v74h-284v-40q1 -14 -18 -28q-18 -12 -36 -12l4 117v274v0v0zM520 150h284v236h-284v-236v0v0zM718 738q7 -3 6 -12q3 -6 -24 -12l-10 -6q33 -61 78 -110
q45 -48 106 -86q59 -39 134 -48v-18q-28 0 -50 -8q-21 -6 -36 -30q-79 54 -124 100q-43 45 -76 100q-34 51 -50 90q-100 -147 -184 -224q-84 -78 -162 -120l-10 14q77 58 164 152q85 92 164 254l74 -36v0v0zM622 928q5 -3 8 -8q7 -10 -10 -14q-21 0 -50 -30
q-106 -144 -190 -228l-12 12q66 96 114 174q47 76 70 128l70 -34v0v0zM738 952q91 -54 146 -104q55 -49 68 -80q12 -29 4 -52q-9 -22 -26 -20q-19 2 -28 20t-18 40q-10 20 -46 70q-36 48 -108 112l8 14v0v0zM190 976l88 -34q7 -9 -4 -14l-36 -20v-266q50 52 104 152
q69 -39 66 -48q-3 -7 -8 -8q-7 1 -22 -4t-50 -40q-34 -33 -92 -84q0 -141 -8 -224q54 -27 102 -68q45 -41 58 -70q12 -27 10 -48q-3 -19 -12 -28q-10 -9 -28 -6q-16 2 -26 44q-10 39 -34 76q-22 35 -74 80q-13 -102 -56 -186q-43 -82 -130 -157l-10 10q66 79 96 147t46 140
t20 252v404v0v0zM120 744q7 -94 2 -158q-7 -61 -28 -82t-42 -18t-26 18q-5 16 12 32q17 15 38 58q19 42 26 150h18v0v0z" />
  </g>

</svg>
