<?xml version="1.0" standalone="no"?>
<!DOCTYPE svg PUBLIC "-//W3C//DTD SVG 1.1//EN" "http://www.w3.org/Graphics/SVG/1.1/DTD/svg11.dtd" >
<svg xmlns="http://www.w3.org/2000/svg" xmlns:xlink="http://www.w3.org/1999/xlink" version="1.1" viewBox="0 -205 1024 1024">
  <g transform="matrix(1 0 0 -1 0 819)">
   <path fill="currentColor"
d="M738 868q-52 -3 -170 -20v-258h256l44 54l76 -64q3 -4 4 -10q0 -9 -8 -8h-368q12 -111 42 -186t88 -138q56 -64 118 -99q60 -35 66 -20t12 57q3 42 16 138l20 -2q-2 -90 0 -150q0 -57 12 -75q9 -17 18 -28q6 -10 4 -18q-4 -6 -22 -6q-18 1 -62 14q-43 15 -110 54
q-66 39 -122 105q-57 66 -90 156q-33 87 -44 198h-298v-390l288 150l10 -18q-264 -164 -284 -181q-19 -16 -52 -62l-58 64q44 21 44 51v710l58 -44q159 17 304 44q141 26 256 58q58 -64 56 -70q-1 -7 -8 -8q-6 0 -24 4q-18 3 -72 -2v0v0zM514 590v254q-102 -13 -294 -28
v-226h294v0v0zM424 206l10 12q69 -33 102 -62q32 -28 34 -53q3 -24 -8 -40q-12 -16 -30 -14q-19 3 -26 32q-7 31 -22 59q-15 27 -60 66v0v0z" />
  </g>

</svg>
