<?xml version="1.0" standalone="no"?>
<!DOCTYPE svg PUBLIC "-//W3C//DTD SVG 1.1//EN" "http://www.w3.org/Graphics/SVG/1.1/DTD/svg11.dtd" >
<svg xmlns="http://www.w3.org/2000/svg" xmlns:xlink="http://www.w3.org/1999/xlink" version="1.1" viewBox="0 -52 256 256">
  <g transform="matrix(1 0 0 -1 0 204)">
   <path fill="currentColor"
d="M116 228l9 -9h24l5 8q9 13 10 16t-2 7l2 2l17 -9q4 -2 2 -3q-6 0 -12 -5q-2 -2 -7 -8l-8 -8h51l9 10l12 -12q2 -2 1 -2q0 -1 -2 -2l-5 -2v-46l1 -21q0 -4 -3 -6l-9 -3v10h-83v-6q0 -5 -3 -8l-9 -3q1 4 1 19q1 11 1 18v50q-1 7 -5 10zM159 137l2 3l21 -8q2 -1 3 -2l-1 -1
q-5 -1 -8 -4v-1q7 -21 19 -39q18 20 24 30q2 5 -1 7l2 2l18 -13q3 -3 0 -4q-7 1 -11 -2q-5 -3 -11 -8q-5 -5 -19 -16q25 -32 56 -39v-2h-13q-3 0 -9 -4q-35 19 -55 75v-79q0 -9 -4 -13q-4 -5 -17 -8q0 7 -6 9q-3 1 -14 5q-5 1 -8 2l1 4l10 -2q16 -4 22 -2q5 3 5 13v88
q0 6 -6 9zM128 181v-31h83v31h-83zM211 214h-83v-29h83v29zM80 28l-1 3q5 4 15 9q5 3 7 4l5 5q7 6 10 10q8 8 14 19q9 13 13 27h-27q-5 0 -8 -3l-8 8h39l7 8l14 -10q2 -1 1 -2l-2 -1q-3 0 -4 -2q-1 -1 -4 -7q-1 -5 -9 -17q-6 -12 -15 -22q-9 -9 -19 -17q-3 0 -10 -4
q-11 -5 -18 -8zM24 164h49l7 9l15 -12q4 -2 -2 -2h-30v-39h12l6 9l15 -12q5 -2 -1 -2h-32v-60q3 2 10 7q19 11 29 18l3 -3l-25 -20q-15 -11 -17 -14l-4 -8q3 5 -2 -2l-14 10q6 4 9 10v62h-22q-6 0 -11 -3l-9 8h42v39h-8q-7 0 -12 -4zM66 243q2 -2 -1 -2q-5 0 -8 -6
q-6 -15 -13 -29h34l7 9l15 -11q2 -2 1 -2q0 -1 -3 -1h-56q-1 -3 -5 -10q-1 -3 -2 -4q-12 -21 -27 -38l-2 2q1 1 2 4q10 17 18 33t15 34q6 18 5 21t-4 5l2 3z" />
  </g>

</svg>
