<?xml version="1.0" standalone="no"?>
<!DOCTYPE svg PUBLIC "-//W3C//DTD SVG 1.1//EN" "http://www.w3.org/Graphics/SVG/1.1/DTD/svg11.dtd" >
<svg xmlns="http://www.w3.org/2000/svg" xmlns:xlink="http://www.w3.org/1999/xlink" version="1.1" viewBox="0 -36 256 256">
  <g transform="matrix(1 0 0 -1 0 220)">
   <path fill="currentColor"
d="M53 236h146l9 9l14 -14l-8 -6v-38v-19l1 -18l-15 -6v85h-149v-81l-15 -6q1 36 1 59.5t-1 41.5zM104 224l16 -12q-13 -7 -20 -15q10 -5 14 -10t3.5 -12t-3.5 -10t-8 5.5t-14 17.5q-17 -13 -35 -23l-3 4q19 13 29 27q-9 8 -22 19l5 2q14 -7 24 -13q5 4 14 20zM180 226
l15 -15q-9 -3 -22 -15q8 -5 12 -9t5 -10.5t-3 -11t-8 3t-15 18.5q-13 -12 -36 -24l-3 4q19 14 31 27q-12 10 -26 17l4 5q19 -8 30 -13q11 13 16 23zM61 27h128v27h-128v-27zM135 150q6 -8 -4 -17h83l14 12l19 -19h-208q-11 0 -21 -2l-9 9h114q-5 17 -20 30l3 3q23 -8 29 -16
zM179 109l15 12l19 -19h-140q-13 1 -22 -2l-9 9h137zM182 86l16 11l17 -18h-143q-11 1 -22 -2l-9 9h141zM46 36q0 11 -1 32l16 -7h127l9 10l14 -14l-7 -6v-28l1 -6l-16 -7v10h-128v-6l-16 -5q1 16 1 27z" />
  </g>

</svg>
