<?xml version="1.0" standalone="no"?>
<!DOCTYPE svg PUBLIC "-//W3C//DTD SVG 1.1//EN" "http://www.w3.org/Graphics/SVG/1.1/DTD/svg11.dtd" >
<svg xmlns="http://www.w3.org/2000/svg" xmlns:xlink="http://www.w3.org/1999/xlink" version="1.1" viewBox="0 -36 256 256">
  <g transform="matrix(1 0 0 -1 0 220)">
   <path fill="currentColor"
d="M174 209q-5 21 -24 34l2 3q24 -8 32 -16t-3 -21h37l12 14l18 -21h-112q-10 0 -20 -2l-9 9h67zM146 185h60l10 9l14 -13l-7 -4v-15.5t1 -19.5l-15 -8v8h-64v-3l-13 -6q1 13 1 30.5t-1 29.5zM145 149h64v29h-64v-29zM188 41q0 -16 -5.5 -22t-17.5 -10q0 14 -27 21v4
q25 -3 30.5 -3t5.5 9v61l13 -7q12 11 22 19h-61q-10 0 -19 -2l-10 9h91l12 9l13 -19q-10 0 -20.5 -5.5t-26.5 -16.5v-47zM32 60.5q-4 15.5 -16 36.5l2 3q16 -13 24.5 -23t1 -21t-11.5 4.5zM90 167l16 -17h-37v-29h13l13 10l14 -17h-40v-53q10 13 25 47l15 -15l-9 -6
q-13 -14 -31 -33v-11l44 9l1 -4q-60 -18 -89 -31l-11 17q17 1 42 8v72h-13q-12 0 -21 -2l-9 9h43v29h-8q-4 0 -10 -2l-6 5q-11 -14 -22 -24l-3 2q34 53 53 116l19 -10l-7 -5q-4 -9 -6 -13q26 -9 36 -15t6 -18.5t-12 0t-31 29.5q-17 -37 -30 -58h43z" />
  </g>

</svg>
