<?xml version="1.0" standalone="no"?>
<!DOCTYPE svg PUBLIC "-//W3C//DTD SVG 1.1//EN" "http://www.w3.org/Graphics/SVG/1.1/DTD/svg11.dtd" >
<svg xmlns="http://www.w3.org/2000/svg" xmlns:xlink="http://www.w3.org/1999/xlink" version="1.1" viewBox="0 0 2048 2048">
  <g transform="matrix(1 0 0 -1 0 2048)">
   <path fill="currentColor"
d="M1059 552v-138q0 -29 6 -72t4 -63q-3 -21 -11 -29q-8 -9 -24 -14q-15 -4 -33 -2q-25 2 -33 12q-7 9 -7 34v272h-382q-116 0 -178 -7l-14 -1l-38 88q14 -4 30 -7.5t61 -9.5q46 -6 139 -6h382v156h-318v-24q0 -13 -7 -22q-6 -9 -22 -15q-16 -5 -40 -3q-13 0 -22 5
q-10 5 -14 16q-5 12 -3 32q0 7 3 51q2 44 6 87q3 42 3 59v389l122 -63h292v171h-310q-117 0 -179 -7l-13 -1l-39 88q14 -4 30 -8q16 -3 62 -9q45 -6 139 -6h310v49q0 8 -3 74q-2 67 -3 73l-3 13l110 -24q49 -11 66 -20q17 -10 18 -24t-12 -25t-36 -18l-39 -12v-86h363l83 87
l120 -92q9 -8 22 -30t-32 -22h-556v-171h315l68 76l84 -54q20 -13 30 -25q10 -11 10 -24q-1 -14 -12 -26q-10 -11 -30 -19l-36 -16l1 -247q0 -23 3 -72q2 -50 6 -85q3 -35 1 -51q-2 -11 -6 -18q-4 -8 -17 -16q-13 -7 -32 -7q-17 -1 -28.5 3t-17.5 10q-7 7 -7 19l-2 40h-330
v-156h436l98 102l121 -107q10 -10 14 -16q4 -5 1 -17q-4 -11 -11 -15q-8 -4 -14 -4h-645zM643 821h318v179h-318v-179zM1059 1000v-179h330v179h-330zM643 1055h318v163h-318v-163zM1059 1218v-163h330v163h-330zM1744 1799l68 77l83 -55q23 -16 31 -25q8 -10 8 -24
q1 -14 -10 -26q-9 -10 -30 -19l-36 -16l1 -1330l3 -164q-1 -13 0 -17q0 -6 2 -27q1 -21 2 -45q1 -23 1 -34q-1 -16 -5 -26q-4 -11 -12 -19q-9 -8 -26 -10t-30 -1q-20 0 -26 4q-7 4 -10 8q-2 5 -2 12v72h-1483v-72q0 -7 -3 -11t-14 -11q-11 -8 -46 -1q-22 4 -28 11
q-7 7 -12 19t-6 22q0 10 2 33l3 50q1 22 1 26q1 4 1 17l3 164v1327q0 12 -4 80t-7 85l-3 15l117 -89h1467zM273 190h1483v1551h-1483v-1551z" />
  </g>

</svg>
