<?xml version="1.0" standalone="no"?>
<!DOCTYPE svg PUBLIC "-//W3C//DTD SVG 1.1//EN" "http://www.w3.org/Graphics/SVG/1.1/DTD/svg11.dtd" >
<svg xmlns="http://www.w3.org/2000/svg" xmlns:xlink="http://www.w3.org/1999/xlink" version="1.1" viewBox="0 -339 2048 2048">
  <g transform="matrix(1 0 0 -1 0 1709)">
   <path fill="currentColor"
d="M387 909v-698q0 -61 -26 -97q-23 -30 -72 -55q-18 -9 -32 -13q-9 -2 -25 -5q-4 35 -10 52q-9 25 -38 42q-25 16 -64 26q-18 4 -47 10l8 46q126 -21 155 -21q28 0 40 12q6 6 10 16q5 13 5 27v599q-54 -27 -99 -50l-14 -46q-5 -17 -15 -23q-5 -3 -10 -3q-4 0 -11 5
q-6 3 -19 29l-63 126q65 13 114 27q16 5 118 36l-1 464h-42q-33 0 -122 -6q-8 -1 -20 -2l-39 88q29 -7 52 -11q77 -12 129 -12h42v324q0 39 -4 122q-1 21 -4 38l109 -24q59 -13 73 -24q13 -10 13 -22q0 -10 -10 -21q-13 -13 -40 -21l-41 -11v-361h31l91 94l114 -99
q13 -11 15 -16q2 -4 2 -10q0 -9 -7 -16q-8 -10 -20 -10h-226v-418q88 42 160 82l21 -33l-75 -57zM848 1184q42 -59 68 -110q39 -79 65 -171q26 -89 32 -187q3 -42 5 -118q1 -47 1 -70q0 -96 -9 -196q-9 -89 -26 -134q-14 -41 -38 -68q-46 -54 -120 -74q-23 -7 -66 -14
q-7 37 -12 48q-7 18 -20.5 29t-38.5 20q-44 16 -123 36l9 43q115 -25 131 -28q49 -8 89 -8q38 0 57 13q14 9 23.5 25t17.5 43q24 85 24 301q0 83 -1 147q-2 40 -7 84q-26 -49 -43 -74q-52 -79 -133 -156q-59 -57 -114 -93q-12 -8 -36 -23l-20 37q84 75 133 135q30 36 70 95
q44 64 84 159q9 21 27 71q-15 48 -29 81q-18 47 -48 102q-69 -71 -122 -108q-21 -16 -80 -52q-14 -8 -31 -18l-17 36q16 14 82 68q38 31 93 93q15 17 38 45q-21 31 -35 51q-33 48 -60 80q-13 16 -40 46l33 30q51 -49 87 -91q21 -23 52 -62q44 68 73 127q21 44 50 121l91 -51
q30 -17 38 -26q7 -6 7 -17q0 -9 -6 -15q-10 -10 -30 -10l-41 -2q-65 -108 -134 -190zM1271 1113h264q-7 6 -10 12q-1 2 -4 19q-4 23 -24 48q-10 13 -35 35l20 25q55 -15 95 -43q23 -16 31 -36q4 -9 4 -17q0 -21 -24 -43h132l80 80l114 -86q12 -9 15 -16q2 -4 2 -9
q0 -8 -6 -16q-9 -10 -21 -10h-320v-104h85l80 80l114 -85q13 -10 16 -17q1 -4 1 -10q0 -9 -6 -16q-8 -10 -21 -10h-269v-110h81l80 81l115 -87q11 -8 14 -16q2 -6 2 -9q0 -10 -6 -17q-8 -10 -21 -10h-265v-97h150l79 81l114 -86q12 -9 15 -17q2 -4 2 -10q0 -10 -6 -16
q-8 -9 -21 -9h-654v-26q0 -14 -11 -23q-6 -5 -19.5 -8.5t-26.5 -3.5q-39 0 -39 30v422q-21 -24 -33 -37q-23 -24 -70 -67l-31 25q43 59 66 97q49 79 81 170q14 38 34 106l101 -38q32 -12 45 -19q9 -5 14 -15q3 -4 3 -9q0 -10 -17 -19q-18 -11 -42 -13l-30 -4l-12 -19z
M1490 952v104h-227v-104h227zM1490 784v110h-227v-110h227zM1490 629v97h-227v-97h227zM1230 428q-33 -2 -67 -7l-39 86q123 -18 188 -18h42l367 1l70 71l68 -46q54 -37 54 -63q0 -9 -7 -17q-10 -12 -51 -26l-34 -11q-39 -46 -66 -72q-66 -65 -141 -117q133 -45 387 -69
l-1 -36q-36 -3 -53 -9q-28 -10 -44 -31q-7 -9 -15 -28q-100 17 -224 55q-66 20 -114 44q-14 7 -36 19q-47 -21 -83 -33q-89 -30 -232 -56q-80 -14 -180 -24l-4 42q113 20 228 51q90 24 142 42q22 8 58 24q-50 39 -95 83q-33 34 -58 66q-4 6 -45 60q-10 12 -15 19zM1289 431
q26 -29 33 -36q25 -25 77 -65q65 -49 128 -82q54 37 99 81q44 43 92 103h-406zM1092 1758h398v20q0 116 -8 160l107 -24q58 -13 71 -21q17 -10 17 -23q0 -12 -10 -22q-13 -13 -40 -21l-41 -11v-58h165l94 95l111 -100q14 -13 16 -16q2 -4 2 -9q0 -10 -7 -17q-8 -10 -21 -10
h-359q0 -39 2 -54q3 -36 3 -44q0 -11 -5 -20q-6 -10 -22 -15q-17 -6 -33 -6q-42 0 -42 26v113h-397q1 -15 2 -22q1 -28 1 -32q4 -39 4 -44q0 -11 -6 -20t-22 -15q-15 -6 -32 -6q-42 0 -42 26v113h-174q-38 0 -98 -5q-18 -1 -51 -6l-39 86q43 -7 66 -9q69 -9 122 -9h174v28
q0 115 -8 160l107 -24q57 -13 70 -21q17 -11 17 -23t-10 -23q-13 -14 -39 -20l-43 -12v-65zM1589 1537l100 -24q43 -10 57 -20q17 -12 17 -26q0 -13 -12 -23q-9 -8 -39 -17l-23 -7v-22l83 1l80 81l114 -86q16 -13 16 -26q0 -9 -5 -17q-8 -9 -21 -9l-267 -1v-57q0 -23 -5 -29
q-14 -13 -48 -13q-40 0 -40 30v143q0 10 -3 84q-1 22 -4 38zM1111 1334l-39 86q119 -17 180 -17h80v27q0 3 -4 73q-1 22 -4 38l101 -24q43 -11 57 -21q16 -11 16 -26q0 -12 -11 -23q-10 -8 -39 -16l-23 -7v-137q0 -23 -16 -34q-11 -7 -35 -7q-42 0 -42 29v70h-73
q-37 0 -98 -5q-17 -2 -50 -6z" />
  </g>

</svg>
