<?xml version="1.0" standalone="no"?>
<!DOCTYPE svg PUBLIC "-//W3C//DTD SVG 1.1//EN" "http://www.w3.org/Graphics/SVG/1.1/DTD/svg11.dtd" >
<svg xmlns="http://www.w3.org/2000/svg" xmlns:xlink="http://www.w3.org/1999/xlink" version="1.1" viewBox="0 -205 1024 1024">
  <g transform="matrix(1 0 0 -1 0 819)">
   <path fill="currentColor"
d="M382 886q6 -4 6 -10q4 -7 -12 -10q-23 0 -46 -26q-21 -24 -78 -90q44 -99 56 -186q11 -85 14 -148q0 -63 -2 -140q-1 -76 -14 -118q-11 -40 -34 -71q-24 -29 -74 -50q-6 30 -32 48t-70 30l4 18q72 -19 112 -14q39 5 48 55q9 48 12 100q2 50 2 124q1 71 -10 164
q-73 -162 -206 -288l-12 10q104 124 202 338q-6 39 -26 96q-42 -42 -158 -138l-12 14q105 99 150 162q-50 78 -106 142l10 12q78 -63 120 -126q69 88 96 146l60 -44v0v0zM408 938q92 -63 112 -90t22 -48q0 -21 -6 -32q-6 -12 -18 -14q-9 -4 -20 2q-11 3 -16 30q-6 27 -20 54
q-12 26 -66 86l12 12v0v0zM442 692l56 -40q6 -4 6 -10q1 -6 -16 -14l-10 -10v-334l98 118l16 -16q-65 -89 -94 -136q-27 -46 -48 -94l-58 46l38 48v374h-66q-18 1 -32 -10l-24 38h108l26 40v0v0zM670 668v314l76 -28q12 -7 6 -14q-6 -6 -36 -14v-258h154l38 48l54 -54
q3 -3 4 -8q0 -12 -12 -12h-192q18 -216 48 -300q28 -85 74 -148q44 -62 118 -85v-18q-34 1 -58 -2q-23 -2 -46 -20q-35 49 -70 113q-34 66 -58 154t-32 302h-22q-4 -185 -22 -280q-18 -96 -74 -180q-54 -83 -168 -159l-10 14q93 84 144 165t66 172q16 89 20 272h-64
q-21 0 -68 -8l-16 34h146v0v0zM768 888l8 12q48 -19 82 -46q34 -28 44 -52q9 -25 0 -44q-7 -19 -26 -20q-19 0 -26 24q-6 21 -18 52q-11 28 -64 74v0v0z" />
  </g>

</svg>
