<?xml version="1.0" standalone="no"?>
<!DOCTYPE svg PUBLIC "-//W3C//DTD SVG 1.1//EN" "http://www.w3.org/Graphics/SVG/1.1/DTD/svg11.dtd" >
<svg xmlns="http://www.w3.org/2000/svg" xmlns:xlink="http://www.w3.org/1999/xlink" version="1.1" viewBox="0 -143 1024 1024">
  <g transform="matrix(1 0 0 -1 0 881)">
   <path fill="currentColor"
d="M121 874l58 -33h108l27 43l62 -39q8 -11 -1 -22l-21 -18v-419l4 -100q0 -13 -16 -25t-40 -16v97h-129v-100q0 -13 -20 -25t-36 -11l4 133v535zM173 371h129v441h-129v-441zM480 610h251l30 35l56 -43q4 -3 6 -7q0 -12 -12 -12h-253q-20 0 -61 -8zM908 495q7 -3 7 -8.5
t-10 -8.5q-24 -11 -39 -48t-50 -124t-76 -181h141l30 42l60 -54q12 -8 2 -16h-540q-38 -4 -58 -10l-18 38h356q44 128 70 212t51 196zM449 483q72 -94 95 -146t19 -83t-19 -41t-29 -3t-13 41t-13 86t-54 140zM613 515q62 -96 80 -145t15 -79t-16 -43t-31 -8t-15 38t-6 87
t-43 144zM717 952q2 -7 2 -9q0 -6 -32 -14q44 -76 82 -130t91 -103t134 -61v-16q-51 0 -69 -9t-32 -27q-42 32 -78 78t-69 99t-77 157q-62 -110 -134 -202t-158 -160l-10 12q74 80 141 182t129 240z" />
  </g>

</svg>
