<?xml version="1.0" standalone="no"?>
<!DOCTYPE svg PUBLIC "-//W3C//DTD SVG 1.1//EN" "http://www.w3.org/Graphics/SVG/1.1/DTD/svg11.dtd" >
<svg xmlns="http://www.w3.org/2000/svg" xmlns:xlink="http://www.w3.org/1999/xlink" version="1.1" viewBox="0 -52 256 256">
  <g transform="matrix(1 0 0 -1 0 204)">
   <path fill="currentColor"
d="M248 22v-4q-16 1 -20 -8q-17 9 -37 24q-10 6 -18 16q-33 -28 -81 -39l-2 4q46 16 76 43q-1 4 -6 10q-1 3 -2 4q-12 24 -19 60h-4q-6 0 -9 -4l-7 9h81l8 8l15 -11q3 -3 0 -4q-8 -1 -11 -14q-7 -19 -15 -34q-6 -13 -16 -25q6 -8 14 -13q3 -2 9 -5q6 -4 13 -7q8 -5 14 -6
q1 0 3 -1q3 -1 14 -3zM31 226q-6 0 -11 -3l-8 8h90l9 10l16 -12q3 -1 2 -2q0 -1 -4 -1h-56l15 -5q2 -1 0 -2q-6 -1 -9 -6v-30v-16q1 -4 2 -11l3 -12l9 10q18 22 18 25q2 3 -1 7l3 2l13 -11q4 -3 2 -4q-7 0 -9 -4q-6 -5 -19 -17q-10 -9 -15 -13q21 -85 47 -100v-3q-7 1 -12 1
l-1 -1q-2 0 -7 -4q-24 42 -34 106q-10 -85 -65 -123l-2 2q59 60 58 162v40q-1 3 -7 7h-27zM145 245l12 -8h35l8 10l14 -12q2 -2 1 -2q0 -1 -2 -2l-7 -3v-41q0 -15 5 -17t15 -2q9 2 14 5h2l3 -3q3 -2 5 -4q5 -3 2 -4l-11 -2l-12 -1q-6 -1 -15 0h-4q-6 0 -10 5q-5 3 -5 17v51
h-35q0 -26 -2 -41q-2 -32 -32 -47l-2 3q24 21 24 51q0 6 1 19v15q-1 5 -7 10zM173 66q9 12 15 23q12 24 15 43h-57q11 -39 27 -66zM37 187h4q2 -23 0 -35q-1 -11 -4 -17q-3 -5 -9 -9q-6 -1 -8 3q-3 3 2 8q5 4 10 14t5 36z" />
  </g>

</svg>
