<?xml version="1.0" standalone="no"?>
<!DOCTYPE svg PUBLIC "-//W3C//DTD SVG 1.1//EN" "http://www.w3.org/Graphics/SVG/1.1/DTD/svg11.dtd" >
<svg xmlns="http://www.w3.org/2000/svg" xmlns:xlink="http://www.w3.org/1999/xlink" version="1.1" viewBox="0 -205 1024 1024">
  <g transform="matrix(1 0 0 -1 0 819)">
   <path fill="currentColor"
d="M548 988l74 -28l6 -4q6 -3 6 -8q0 -4 -36 -22v-62h102v120l70 -28q9 -1 12 -10q0 -1 -6 -8l-28 -12v-60v-2h96l28 34l52 -40q3 -7 4 -10q0 -6 -26 -24v-178l4 -36q0 -15 -18 -24q-18 -6 -36 -6v24h-398q-8 -12 -22 -18q-15 -4 -32 -4l4 90v230l54 -38h90v124v0v0z
M456 630h92v90h-92v-90v0v0zM598 720v-90h102v90h-102v0v0zM748 720v-90h104v90h-104v0v0zM456 746h92v90h-92v-90v0v0zM598 836v-90h102v90h-102v0v0zM748 836v-90h104v90h-104v0v0zM466 436h348l38 40q50 -46 50 -52q9 -13 -8 -14h-344q-22 0 -70 -8l-14 34v0v0zM916 572
l50 -46q6 -5 6 -10q0 -7 -6 -8h-534v-124l2 -42h472l30 42l54 -46q15 -13 -2 -22h-328q35 -63 80 -102q67 44 128 94q61 -31 60 -38t-10 -8q-9 1 -30 -4q-18 -4 -134 -58q47 -37 80 -52q32 -12 74 -25q41 -11 100 -14v-20q-39 0 -60 -10q-21 -9 -36 -30q-79 44 -118 70
q-38 26 -82 71q-42 45 -78 126h-76v-203l128 71l10 -16q-106 -70 -128 -95q-21 -24 -38 -46l-52 44q13 10 32 28v217h-78q-14 -136 -64 -197q-51 -60 -126 -108l-12 14q97 80 128 163q29 84 26 208v178l54 -38h446l32 36v0v0zM86 868l56 -42h98l34 40l56 -40q9 -7 10 -14
q0 -6 -32 -30v-362l4 -68q3 -15 -18 -26q-21 -9 -38 -8v70h-120v-76q0 -12 -14 -24q-13 -8 -40 -10l4 104v486v0v0zM136 414h120v386h-120v-386v0v0z" />
  </g>

</svg>
