<?xml version="1.0" standalone="no"?>
<!DOCTYPE svg PUBLIC "-//W3C//DTD SVG 1.1//EN" "http://www.w3.org/Graphics/SVG/1.1/DTD/svg11.dtd" >
<svg xmlns="http://www.w3.org/2000/svg" xmlns:xlink="http://www.w3.org/1999/xlink" version="1.1" viewBox="0 -36 256 256">
  <g transform="matrix(1 0 0 -1 0 220)">
   <path fill="currentColor"
d="M103 190q0 18 -1 55l19 -11l-7 -6v-86h49l9 10l12 -17h-70v-104h44l9 10l12 -17h-65l-8 -7l-9 14l6 3v156zM146 101q-10 -22 -20 -42l14 2l-3 14l3 1q12 -16 12 -24t-4.5 -11.5t-5 3t-1.5 13.5q-18 -7 -20 -13l-6 14q5 2 9 11.5t9 21.5q-10 -2 -13 -7l-6 10q5 4 9.5 17
t5.5 24l14 -8q-6 -5 -8 -9t-11 -23h10q4 9 5 18l12 -8zM157 43l-5 14q5 3 10 15t6 19q-9 -5 -12 -9l-6 11q5 3 9.5 17.5t6.5 24.5l12 -8q-8 -7 -17 -32l9 2q2 6 3 16l13 -8q-5 -4 -11.5 -20.5t-12.5 -27.5l12 2l-3 14l3 1q10 -12 10.5 -20t-4 -12.5t-5 1t-1.5 11.5
q-14 -6 -17 -11zM152 163.5q1 -7.5 -4 -12t-5 1.5t-1 12q-15 -6 -20 -11l-6 10q5 3 9 11t10 25q-11 -3 -15 -8l-4 9q5 6 9 18.5t6 23.5l12 -7q-6 -5 -17 -32l10 1q2 6 4 13l11 -8q-4 -2 -10 -16t-14 -28l14 3l-3 13l3 2q10 -13 11 -20.5zM187 162q-1 -6 -4.5 -10t-4.5 1
t-1 12q-14 -4 -19 -10l-5 12q4 2 9 13t8 20q-10 -3 -14 -8l-5 13q5 1 10 15.5t7 24.5l11 -8q-4 -2 -7.5 -11t-9.5 -22l10 2q3 7 4 16l11 -10q-5 -6 -8.5 -13.5t-15.5 -31.5l13 2l-3 14l2 2q13 -17 12 -23zM233.5 225q-5.5 -1 -30.5 -8v-58h26l8 11l11 -18h-17v-100
q0 -18 1 -35l-13 -7q1 18 1 35v107h-17q0 -42 -4 -77.5t-22 -67.5l-4 3q12 27 15 64t3 85.5t-1 71.5l11 -8q7 2 19 9t17 13l10 -17q-8 -2 -13.5 -3zM24 166h7q0 52 -1 75l12 -8h30l8 10l12 -15l-8 -7v-55h5l8 7l10 -14q-10 -4 -23 -19l-2 2l8 17h-66q1 -15 -4 -21.5
t-10 -2.5t0 11.5t7 14.5t3 16h4v-11zM42 206h9l8 6l8 -12l-5 -3v-31h11v60h-31v-20zM42 166h10v33h-10v-33zM42 138h31l6 8l12 -12l-6 -6v-94q0 -16 -16 -23q-1 14 -21 19l1 4q13 -2 18.5 -2t5.5 8v28h-32v-49l-13 -8q1 19 1 68t-1 67zM41 107h32v24h-32v-24zM41 75h32v25
h-32v-25z" />
  </g>

</svg>
