<?xml version="1.0" standalone="no"?>
<!DOCTYPE svg PUBLIC "-//W3C//DTD SVG 1.1//EN" "http://www.w3.org/Graphics/SVG/1.1/DTD/svg11.dtd" >
<svg xmlns="http://www.w3.org/2000/svg" xmlns:xlink="http://www.w3.org/1999/xlink" version="1.1" viewBox="0 -144 1024 1024">
  <g transform="matrix(1 0 0 -1 0 880)">
   <path fill="currentColor"
d="M87 402v21h277l-12 6l-4 8l-13 16l-8 8l-23 19l-45 29l-18 9l2 9l21 -5l19 -3l36 -8l16 -5l15 -5l14 -7l13 -6l12 -8l11 -8l8 -24l-10 -22l-10 -3h173l8 7l39 41l31 37l18 23l7 11h1l1 2l46 -46l4 -19l-23 5l-19 -14l-45 -27l-33 -17l-6 -3h209l53 54l65 -54v-21h-383
v-161l-2 -12h218v138l64 -11l16 -11l-16 -9v-150l-64 -32v54h-221v-4l-13 -35l-20 -31l-26 -27l-32 -23l-37 -19l-43 -15l-48 -11l-53 -8l-59 -4l-2 10l57 14l50 16l43 17l37 19l30 19l23 21l16 22l11 23l4 16h-213v-38l-65 -32v229l65 -11l16 -11l-16 -9v-107h215l1 12v161
h-383zM602 738h173l33 27l59 -48l-27 -22v-144l-65 -33v54h-173v-16l-64 -32v246zM219 738h173l32 27l59 -48l-27 -22v-134l-64 -32v43h-173l-65 -32v230zM602 717v-123h173v123h-173zM219 717v-123h173v123h-173zM680 995l16 -11l-16 -9v-69h166l54 54l65 -54v-22h-285v-74
l-65 -33v107h-236v-74l-65 -33v107h-285v22h285v100l65 -11l16 -11l-16 -9v-69h236v100z" />
  </g>

</svg>
