<?xml version="1.0" standalone="no"?>
<!DOCTYPE svg PUBLIC "-//W3C//DTD SVG 1.1//EN" "http://www.w3.org/Graphics/SVG/1.1/DTD/svg11.dtd" >
<svg xmlns="http://www.w3.org/2000/svg" xmlns:xlink="http://www.w3.org/1999/xlink" version="1.1" viewBox="0 -36 256 256">
  <g transform="matrix(1 0 0 -1 0 220)">
   <path fill="currentColor"
d="M49 64v98q-21 -27 -38 -42l-2 3q13 16 22.5 31t24.5 43t22 48l18 -16q-4 0 -13 -13.5t-24 -38.5l12 -8l-8 -6v-147l-15 -7q1 27 1 55zM155 196q-14 -17 -30.5 -28t-42.5 -24l-2 3q29 19 47.5 36.5t28.5 36.5h-30q-10 0 -19 -2l-9 9h116l13 12l15 -19h-69q-5 -7 -15 -20
l16 -7l-6 -4v-21q0 -10 1 -20l-15 -8q1 28 1 56zM226.5 183q10.5 -7 12 -15t-2 -13t-14.5 10.5t-40 33.5l2 4q32 -13 42.5 -20zM118 108h38v26h-38v-26zM170 108h43v26h-43v-26zM170 101v-26h43v26h-43zM117 75h39v26h-38zM156 68h-40q-6 -36 -45 -56l-3 3q21 15 30 36.5
t5 95.5l16 -6h92l9 9l16 -14l-9 -7v-89q1 -23 -23 -32q0 11 -24 17l1 4q15 -1 23 -1t9 9v31h-43v-45l-14 -7v52z" />
  </g>

</svg>
