<?xml version="1.0" standalone="no"?>
<!DOCTYPE svg PUBLIC "-//W3C//DTD SVG 1.1//EN" "http://www.w3.org/Graphics/SVG/1.1/DTD/svg11.dtd" >
<svg xmlns="http://www.w3.org/2000/svg" xmlns:xlink="http://www.w3.org/1999/xlink" version="1.1" viewBox="0 -205 1024 1024">
  <g transform="matrix(1 0 0 -1 0 819)">
   <path fill="currentColor"
d="M462 804h22v-44h142q7 86 8 206l86 -42q7 -3 8 -6q3 -10 -12 -16l-28 -10q-3 -81 -8 -132h192l44 38l54 -54q12 -9 12 -12q0 -12 -14 -14q-21 -1 -38 -14q-18 -11 -92 -100l-16 8l62 120h-208q-12 -159 -48 -284q-34 -126 -106 -228q-69 -102 -216 -189l-8 16
q129 102 192 207q62 103 92 212q27 109 40 266h-136q0 -62 -8 -94q-10 -31 -28 -46q-16 -16 -32 -10q-16 3 -22 16q-7 12 4 30l22 30t20 34q8 18 20 112v0v0v0zM210 978l80 -44q6 -3 6 -6q0 -4 -6 -10l-30 -16v-140q56 -24 86 -50q30 -24 36 -48q5 -22 -4 -38t-24 -16
t-24 28q-6 26 -18 50q-13 21 -52 54v-578l2 -111q1 -9 -22 -22q-20 -9 -34 -10l4 131v826v0v0zM136 718h18q0 -82 -2 -130q-4 -46 -28 -76q-22 -28 -46 -28q-22 -1 -28 16q-7 17 8 34q14 15 32 34q14 18 26 48q11 30 20 102v0v0zM676 580l80 -38q8 -3 8 -6t-8 -12l-26 -12
v-381q0 -33 12 -36q12 -2 24 -2h98l16 2q18 7 24 40l10 151h20l6 -106q7 -52 38 -63q-18 -56 -68 -68l-26 -2h-122q-30 0 -50 6q-19 6 -28 24q-7 21 -8 56v447v0v0z" />
  </g>

</svg>
