<?xml version="1.0" standalone="no"?>
<!DOCTYPE svg PUBLIC "-//W3C//DTD SVG 1.1//EN" "http://www.w3.org/Graphics/SVG/1.1/DTD/svg11.dtd" >
<svg xmlns="http://www.w3.org/2000/svg" xmlns:xlink="http://www.w3.org/1999/xlink" version="1.1" viewBox="0 -205 1024 1024">
  <g transform="matrix(1 0 0 -1 0 819)">
   <path fill="currentColor"
d="M410 928l50 -32h88l26 30l40 -30q12 -6 12 -14q-1 -3 -28 -24v-166l4 -52q0 -13 -12 -22t-36 -12v40h-100v-20q-1 -13 -16 -22q-16 -10 -32 -10l4 70v264v0v0zM454 672h100v198h-100v-198v0v0zM812 570l24 28l54 -34q12 -12 0 -18l-22 -10v-46l4 -34q2 -15 -16 -24
q-19 -10 -34 -10v22h-226v-58h222l26 30l54 -34q7 -10 0 -16l-24 -14v-94l4 -70q-3 -12 -14 -18q-10 -9 -38 -14v30h-228v-87h288q24 3 36 14q11 13 16 34q3 19 4 107h20q3 -66 6 -92q4 -26 32 -39q-13 -35 -28 -50q-16 -15 -56 -16h-474q-31 0 -46 18q-13 16 -14 56v55
h-228v-20q-1 -13 -14 -21q-12 -9 -36 -16l4 85v196l52 -22h222v58h-216v-4q0 -8 -18 -16q-18 -6 -32 -6l4 62v104l50 -16h642v0v0zM430 546v-399q-1 -30 8 -40t30 -8h82v447h-120v0v0zM596 210h230v68h-230v-68v0v0zM596 468h226v78h-226v-78v0v0zM166 470h216v76h-216v-76
v0v0zM596 302h230v60h-230v-60v0v0zM154 210h230v70h-230v-70v0v0zM154 304h228v60h-228v-60v0v0zM646 936h228l28 36l50 -42q2 -3 2 -6q0 -12 -12 -12h-112v-122h76l34 38l52 -48q6 -15 -6 -14h-156v-88q3 -43 -18 -62q-18 -19 -54 -28q-3 27 -26 40q-22 9 -74 28l4 16
q60 -15 90 -18q28 -3 32 30v82h-110q-19 0 -44 -8l-16 32h170v122h-78q-16 0 -40 -8l-20 32v0v0zM172 922h126l28 30l46 -40q5 -12 -4 -14h-106q0 -51 -8 -108h60l28 32l48 -42q3 -13 -8 -14h-132l-10 -38q48 -13 82 -34q33 -18 46 -42q10 -21 2 -36q-9 -16 -24 -14
q-13 2 -22 26q-9 21 -36 46q-25 24 -58 36q-22 -45 -70 -84t-122 -66l-4 14q70 36 116 88q45 52 54 104h-98q-21 1 -42 -10l-18 34h164q7 51 6 108h-60q-40 -54 -76 -92l-12 10q59 92 88 182l60 -20q7 -6 2 -12q-3 -3 -12 -6q-10 -3 -16 -12q-6 -7 -18 -26v0v0z" />
  </g>

</svg>
