<?xml version="1.0" standalone="no"?>
<!DOCTYPE svg PUBLIC "-//W3C//DTD SVG 1.1//EN" "http://www.w3.org/Graphics/SVG/1.1/DTD/svg11.dtd" >
<svg xmlns="http://www.w3.org/2000/svg" xmlns:xlink="http://www.w3.org/1999/xlink" version="1.1" viewBox="0 -36 256 256">
  <g transform="matrix(1 0 0 -1 0 220)">
   <path fill="currentColor"
d="M62 245l21 -10l-7 -7v-26h23l7 10l15 -15q-7 -2 -27 -24l-2 2l8 20h-24v-56h15l8 9l14 -15l-9 -4q-7 -29 -16 -49q19 -16 22.5 -25.5t-1.5 -17t-8.5 3.5t-16.5 28q-24 -41 -52 -61l-3 2q31 35 45 69l-27 25l3 4l28 -20q8 20 13 44h-48q-1 -35 -7 -62.5t-23 -53.5l-3 2
q14 30 17.5 64t3 70.5t-1.5 58.5l13 -9h21q0 19 -1 43zM43 139h20v56h-20v-56zM141 176h28v30h-28v-30zM183 206v-30h27v30h-27zM223 147l11 10l15 -17h-114q-11 1 -18 -2l-9 9h61v22h-28v-6l-14 -4q2 30 0 62l13 -8h29q0 16 -1 33l21 -9l-6 -7v-17h27l7 7l13 -12l-6 -5
q0 -22 1 -36l-15 -6v8h-27v-22h40zM228 57q0 -13 1 -37l-14 -7v11h-79v-8l-14 -6q1 35 1 63.5t-1 57.5l14 -9h78l8 9l13 -13l-7 -6v-55zM136 31h79v84h-79v-84zM186 87h-21v-30h21v30zM193 103l12 -12l-7 -5v-17q0 -10 1 -19l-13 -5v5h-21v-3l-13 -5q1 16 1 30t-1 28l12 -6
h22z" />
  </g>

</svg>
