<?xml version="1.0" standalone="no"?>
<!DOCTYPE svg PUBLIC "-//W3C//DTD SVG 1.1//EN" "http://www.w3.org/Graphics/SVG/1.1/DTD/svg11.dtd" >
<svg xmlns="http://www.w3.org/2000/svg" xmlns:xlink="http://www.w3.org/1999/xlink" version="1.1" viewBox="0 -205 1024 1024">
  <g transform="matrix(1 0 0 -1 0 819)">
   <path fill="currentColor"
d="M128 950l58 -38h184l30 38l52 -38q12 -6 12 -14q-1 -6 -34 -30v-164l4 -54q0 -13 -18 -26t-38 -14v32h-66v-198h66l34 46l60 -56q2 -4 2 -8q1 -7 -4 -8h-158v-194l148 44l6 -16q-312 -118 -342 -135q-30 -15 -62 -42l-42 62l86 29v386l76 -26q7 -4 6 -10q-1 -4 -10 -8
l-24 -12v-320l110 34v432h-84v-6q0 -15 -20 -26q-21 -10 -36 -10l4 118v232v0v0zM180 668h198v218h-198v-218v0v0zM854 874q-42 -6 -144 -26q0 -141 -2 -176q-1 -34 -8 -86h166l44 52l64 -60l6 -6q4 -13 -6 -14h-240q6 -62 40 -166q32 -105 86 -176q54 -68 144 -97v-16
q-33 1 -56 -2q-21 -5 -42 -26q-59 56 -100 133q-40 77 -64 166q-25 90 -34 186h-14q-17 -152 -58 -244q-38 -91 -112 -160q-72 -67 -192 -131l-8 16q123 81 186 153t96 174q30 99 40 190h-126q-21 0 -68 -8l-16 36h214q5 46 8 104q3 60 4 150q-86 -12 -178 -20l-2 18
q138 27 228 52q90 23 186 58q44 -54 50 -60q4 -6 2 -12q-4 -6 -28 0q-24 3 -66 -2v0v0z" />
  </g>

</svg>
