<?xml version="1.0" standalone="no"?>
<!DOCTYPE svg PUBLIC "-//W3C//DTD SVG 1.1//EN" "http://www.w3.org/Graphics/SVG/1.1/DTD/svg11.dtd" >
<svg xmlns="http://www.w3.org/2000/svg" xmlns:xlink="http://www.w3.org/1999/xlink" version="1.1" viewBox="0 -36 256 256">
  <g transform="matrix(1 0 0 -1 0 220)">
   <path fill="currentColor"
d="M65.5 223.5q6.5 -8.5 1.5 -17.5t-10.5 2.5t-25.5 29.5l1 3q27 -9 33.5 -17.5zM13 183q32 -12 34 -22t-4 -15t-9.5 6t-21.5 28zM40 85q7 4 38 111l6 -1q-24 -90 -28 -103t-5 -24.5t0.5 -36.5t-9.5 -20t-8 23t3 28.5t-23 16.5v4q19 -2 26 2zM226 104l-16 -6v10h-104v-7
l-16 -6q1 27 1 58t-1 60l16 -8h20q15 23 19 41l20 -10q-13 -8 -33 -31h77l6 11l17 -12l-7 -8q0 -65 1 -92zM106 160h104v38h-104v-38zM210 115v38h-104v-38h104zM144 79l-10 -4q-35 -47 -70 -64l-2 4q39 30 61 80zM173 94q28 -18 46 -34.5t22.5 -24.5t-0.5 -19.5t-17 11
t-55 64.5z" />
  </g>

</svg>
