<?xml version="1.0" standalone="no"?>
<!DOCTYPE svg PUBLIC "-//W3C//DTD SVG 1.1//EN" "http://www.w3.org/Graphics/SVG/1.1/DTD/svg11.dtd" >
<svg xmlns="http://www.w3.org/2000/svg" xmlns:xlink="http://www.w3.org/1999/xlink" version="1.1" viewBox="0 -36 256 256">
  <g transform="matrix(1 0 0 -1 0 220)">
   <path fill="currentColor"
d="M78.5 201.5q2.5 -6.5 -4 -13.5t-10 4t-18.5 27l2 2q28 -13 30.5 -19.5zM138 205q3 -6 -3.5 -13t-9 4.5t-13.5 25.5l3 2q20 -13 23 -19zM166 186l-2 3q10 7 20 18t16 21l20 -12l-10 -3q-23 -16 -44 -27zM147.5 236.5q54.5 5.5 68.5 10.5l18 -16q-34 0 -81 -3.5t-121 -4.5
v6q61 2 115.5 7.5zM224 191l16 -18h-51q-6 -4 -11 -11l10 -5l-6 -4v-17q0 -8 1 -17l-14 -4q1 10 1 17v20q-22 -23 -46 -36l-2 4q33 27 48 53h-10q-11 0 -20 -2l-9 9h81zM196 156q19 -6 30 -13t7 -17.5t-11.5 1t-27.5 25.5zM114 190l15 -18h-44l-11 -11l11 -5l-5 -4v-17v-16
l-15 -4q2 9 2 18v20q-24 -24 -53 -36l-2 4q39 27 55 51h-17q-11 0 -21 -2l-9 9h83zM87 157q18 -6 29 -13t6 -17t-11 1.5t-25 25.5zM87 108q-4 -2 -12 -8q30 -12 38 -18.5t4 -17t-12.5 3t-31.5 27.5q-22 -28 -59 -45l-2 4q20 14 36 32.5t21 29.5zM67 24v32q0 10 -1 27l23 -10
l-9 -6v-31q0 -12 1 -24l-15 -7q1 28 1 19zM190 106l-9 -6q27 -26 64 -31l-1 -4q-11 0 -15 -11q-30 10 -51 42q-21 -29 -57 -46l-2 5q18 12 33 29.5t18 30.5zM170 29v29q0 2 -1 22l24 -10l-9 -6v-34q0 11 1 -18l-16 -6q1 24 1 23z" />
  </g>

</svg>
