<?xml version="1.0" standalone="no"?>
<!DOCTYPE svg PUBLIC "-//W3C//DTD SVG 1.1//EN" "http://www.w3.org/Graphics/SVG/1.1/DTD/svg11.dtd" >
<svg xmlns="http://www.w3.org/2000/svg" xmlns:xlink="http://www.w3.org/1999/xlink" version="1.1" viewBox="0 -36 256 256">
  <g transform="matrix(1 0 0 -1 0 220)">
   <path fill="currentColor"
d="M75.5 29.5q8.5 -0.5 8.5 12.5v67h-42q-1 -29 -7.5 -52.5t-23.5 -48.5l-4 1q12 27 17 56.5t4.5 95t-2.5 79.5l16 -9h40l8 11l15 -13l-7 -6v-182q0 -16 -6 -22.5t-18 -11.5q0 14 -29 22v4q22 -3 30.5 -3.5zM42 173h42v51h-42v-51zM42 116h42v50h-42v-50zM209 226l14 14
l20 -21h-106q-12 -1 -20 -3l-9 10h101zM227 61l-15 -7v15h-78v-13l-16 -5q1 25 1 73t-1 70l16 -9h76l7 9l16 -12l-7 -6q0 -90 1 -115zM134 134h78v44h-78v-44zM134 76h78v51h-78v-51zM213 31l14 14l21 -21h-114q-16 0 -25 -1l-8 8h112z" />
  </g>

</svg>
