<?xml version="1.0" standalone="no"?>
<!DOCTYPE svg PUBLIC "-//W3C//DTD SVG 1.1//EN" "http://www.w3.org/Graphics/SVG/1.1/DTD/svg11.dtd" >
<svg xmlns="http://www.w3.org/2000/svg" xmlns:xlink="http://www.w3.org/1999/xlink" version="1.1" viewBox="0 -143 1024 1024">
  <g transform="matrix(1 0 0 -1 0 881)">
   <path fill="currentColor"
d="M37 871h277l32 42l57 -47q13 -17 -6 -21h-150v-288h55l32 42l56 -51q10 -15 -4 -17h-139v-284l154 47l8 -15q-259 -110 -288.5 -127.5t-48.5 -38.5l-46 69l172 49v300h-83q-20 0 -43 -8l-23 34h149v288h-83q-28 2 -56 -8zM453 836h202v152l78 -31q8 -2 8 -7q4 -4 0 -9
l-34 -13v-92h118l40 50l63 -56q4 -3 4 -8q0 -12 -13 -12h-212v-122h189l37 38l50 -51q16 -11 16 -19q0 -5 -13 -8q-30 -4 -57.5 -25.5t-62.5 -61.5l-16 11l52 88h-414q-25 0 -49 -8l-23 36h239v122h-118q-20 0 -67 -8zM711 238q108 -31 180.5 -63.5t87.5 -61.5t4 -47
t-28 -14t-31 26t-55 52.5t-163 91.5zM518 602q62 -22 94 -38t43 -38t2 -39t-26 -16t-25 22t-30 43t-66 52zM442 506q62 -18 94 -34t44 -37t3 -40t-27 -19t-26 22t-30 45t-66 49zM379 346h300q24 78 30 270l78 -30q15 -4 13 -16q0 -2 -38 -18q-14 -151 -30 -206h154l34 48
l61 -56q4 -3 4 -8q0 -12 -12 -12h-250q-19 -59 -59.5 -111t-117 -99t-189.5 -74l-4 16q107 42 172.5 88t98 92t47.5 88h-220q-20 0 -45 -12z" />
  </g>

</svg>
