<?xml version="1.0" standalone="no"?>
<!DOCTYPE svg PUBLIC "-//W3C//DTD SVG 1.1//EN" "http://www.w3.org/Graphics/SVG/1.1/DTD/svg11.dtd" >
<svg xmlns="http://www.w3.org/2000/svg" xmlns:xlink="http://www.w3.org/1999/xlink" version="1.1" viewBox="0 -36 256 256">
  <g transform="matrix(1 0 0 -1 0 220)">
   <path fill="currentColor"
d="M165 215q20 16 27 29l14 -15q-7 -1 -28 -14l18 -6t7 -12t-7 -3.5t-22 18.5l-8 -4q16 -29 48 -33l6 32h3q1 -37 7 -49q-25 0 -52 17.5t-28 53.5h-84q-11 0 -19 -2l-10 9h115l7 8l12 -13l-7 -2zM171 146q15 -2 22 -4.5t5.5 -12t-10 -1.5t-20.5 16l-10 -5q10 -17 27 -23.5
t38 -4.5l5 37h3q3 -37 10 -52q-10 0 -37 2t-45 18.5t-19 50.5h-19q0 -23 1 -49l-15 -9q1 27 1 58h-29q-1 -28 -13 -46t-36 -30l-3 3q21 17 29.5 34t8.5 39h-18q-13 1 -21 -2l-9 9h48v24q-21 -5 -29 -7v5q36 11 54 28l12 -17q-9 -1 -23 -6v-27h29v14q0 20 -1 32l21 -10l-7 -6
v-30h19l7 11l15 -14l-9 -6q0 -8 4 -19q15 11 21 23l13 -13q-9 -2 -20 -10zM41 52.5q-4 -9.5 -14.5 -11.5t-13 3.5t9 11.5t20.5 30l5 -1q-3 -23 -7 -32.5zM101 108q20 -9 27.5 -16.5t1.5 -17.5t-11.5 3.5t-19.5 27.5zM201 83q29 -12 38 -20t3 -19.5t-12.5 3t-30.5 33.5z
M97 89l-8 -6v-37q40 20 55.5 32.5t25.5 22.5l17 -17l-13 -2q-39 -28 -84 -47q0 -7 10 -7h71q12 0 14.5 10.5t3.5 26.5h5q0 -22 3.5 -28t9.5 -8q-8 -14 -30 -14h-89q-13 3 -14 14q-37 -12 -63 -14l-1 5q33 7 64 21q0 38 -1 58z" />
  </g>

</svg>
