<?xml version="1.0" standalone="no"?>
<!DOCTYPE svg PUBLIC "-//W3C//DTD SVG 1.1//EN" "http://www.w3.org/Graphics/SVG/1.1/DTD/svg11.dtd" >
<svg xmlns="http://www.w3.org/2000/svg" xmlns:xlink="http://www.w3.org/1999/xlink" version="1.1" viewBox="0 -36 256 256">
  <g transform="matrix(1 0 0 -1 0 220)">
   <path fill="currentColor"
d="M105 240l13 -18h-53l-6 -35h30l9 12l12 -13l-7 -7v-44h4l11 11l13 -18h-93q-10 0 -19 -2l-9 9h28l7 45q-4 0 -13 -2l-8 9h22l5 35h-7q-10 -1 -19 -3l-9 10h75zM30 113l14 -10h48l8 13l15 -16l-8 -6v-37q0 -9 1 -30l-14 -7v13h-50v-10l-14 -8q1 28 1 53t-1 45zM51 135h39
v45h-32zM44 40h50v56h-50v-56zM150 155h66v31h-66v-31zM150 118h66v30h-66v-30zM150 81h66v30h-66v-30zM169 226h-23q-10 -1 -19 -3l-9 10h100l14 11l14 -18h-61q-5 -8 -20 -33h50l8 10l14 -15l-8 -7v-65q0 -29 2 -49l-15 -6v13h-66v-11l-14 -5q1 23 1 74.5t-1 68.5l14 -8
h10q7 22 9 33zM175 51l-9 -3q-35 -30 -52 -40l-2 4q39 36 46 54zM229.5 37.5q10.5 -10.5 5 -23t-12 4.5t-29.5 42l3 3q23 -16 33.5 -26.5z" />
  </g>

</svg>
