<?xml version="1.0" standalone="no"?>
<!DOCTYPE svg PUBLIC "-//W3C//DTD SVG 1.1//EN" "http://www.w3.org/Graphics/SVG/1.1/DTD/svg11.dtd" >
<svg xmlns="http://www.w3.org/2000/svg" xmlns:xlink="http://www.w3.org/1999/xlink" version="1.1" viewBox="0 -205 1024 1024">
  <g transform="matrix(1 0 0 -1 0 819)">
   <path fill="currentColor"
d="M156 898h20v-46h716l36 38q65 -55 68 -62q1 -6 -4 -8q-3 -4 -20 -4q-18 -1 -38 -16q-21 -15 -68 -74l-16 10q32 62 46 92h-720q-3 -40 -20 -70q-15 -30 -36 -36q-19 -7 -32 -4q-12 3 -18 18q-4 14 10 28q12 11 30 26q15 12 30 34q12 22 16 74v0v0zM420 992l8 12
q57 -24 90 -48q32 -23 34 -46q3 -22 -8 -34q-12 -13 -30 -10q-18 2 -24 26q-3 24 -20 48q-15 24 -50 52v0v0zM208 736q3 -51 -2 -84q-3 -32 -18 -58q-12 -25 -30 -34q-18 -10 -36 -10q-19 1 -26 20q-6 17 18 32q22 14 44 38t32 96h18v0v0zM816 724q76 -39 104 -60
q28 -22 38 -40q9 -18 6 -36q-1 -16 -10 -26q-6 -10 -24 -10q-18 -1 -26 32q-6 31 -24 56q-18 24 -74 72l10 12v0v0zM412 796l6 12q63 -24 90 -36q24 -13 34 -32q9 -17 0 -34q-8 -19 -28 -16q-18 2 -26 26q-6 22 -24 38q-16 15 -52 42v0v0zM228 454l54 -26h460l32 34l52 -42
q6 -6 6 -8q0 -6 -26 -24v-232l4 -93q0 -12 -18 -24q-19 -9 -38 -12v64h-474v-40q-1 -14 -22 -26q-22 -12 -34 -12l4 124v317v0v0zM280 117h474v75h-474v-75v0v0zM280 218h474v74h-474v-74v0v0zM280 318h474v84h-474v-84v0v0zM318 786l76 -30q10 -8 0 -16l-28 -14v-162
q47 24 110 60q63 33 132 84t96 90q66 -50 64 -58q-3 -6 -8 -6q-3 0 -20 -2q-15 -1 -36 -16t-84 -56q-60 -40 -120 -70q-60 -27 -126 -60h274q39 2 48 22q8 18 14 106h20q0 -34 4 -68t32 -46q-12 -27 -36 -42q-21 -12 -66 -12h-282q-36 0 -48 16q-73 -33 -136 -50
q-63 -19 -158 -40l-4 16q108 31 160 50q50 19 122 56v248v0v0z" />
  </g>

</svg>
