<?xml version="1.0" standalone="no"?>
<!DOCTYPE svg PUBLIC "-//W3C//DTD SVG 1.1//EN" "http://www.w3.org/Graphics/SVG/1.1/DTD/svg11.dtd" >
<svg xmlns="http://www.w3.org/2000/svg" xmlns:xlink="http://www.w3.org/1999/xlink" version="1.1" viewBox="0 -36 256 256">
  <g transform="matrix(1 0 0 -1 0 220)">
   <path fill="currentColor"
d="M59 23v84q-19 -44 -48 -70l-3 2q17 24 28.5 49.5t16.5 47.5h-8q-11 0 -20 -2l-10 9h44v18q0 14 -1 31l22 -10l-7 -6v-33h11l12 11l15 -18h-38v-16q21 -9 26.5 -15.5t-1 -15t-10.5 2t-15 23.5v-86q0 -5 1 -16l-16 -6q1 12 1 16zM112 80q-7 -5 -24 -12l-1 4q38 26 56 52
h-15v-5l-15 -5q1 12 1 27v13q0 15 -1 32l14 -8h72l8 10l15 -12l-8 -7v-22q0 -11 1 -23l-15 -7v7h-47l9 -7l-8 -3l-11 -10h76l8 9l15 -11l-8 -7q-2 -55 -7.5 -68t-26.5 -20q-1 13 -27 15v6q30 -3 35.5 0t7.5 15.5t4 53.5h-49l13 -8l-6 -2l-7 -7q17 -3 28 -8.5t7.5 -16
t-11.5 0t-27 20.5q-13 -19 -33 -31l-3 4q21 21 34 48h-30l-21 -15l17 -4l-6 -8v-28h47l12 10l15 -17h-74l-9 -8l-11 12l6 5v36zM128 156h72v15h-72v-15zM128 131h72v18h-72v-18zM128 209h-40q0 -7 2 -18l-17 -6q1 14 1 24h-26q-11 0 -20 -2l-10 9h56q0 20 -1 31l23 -8l-8 -7
v-16h13l13 11zM161 211q-11 0 -20 -2l-10 9h35q0 15 -1 28l23 -9l-7 -7v-12h30l12 11l16 -18h-58q-1 -3 1 -21l-17 -5q1 22 1 26h-5z" />
  </g>

</svg>
