<?xml version="1.0" standalone="no"?>
<!DOCTYPE svg PUBLIC "-//W3C//DTD SVG 1.1//EN" "http://www.w3.org/Graphics/SVG/1.1/DTD/svg11.dtd" >
<svg xmlns="http://www.w3.org/2000/svg" xmlns:xlink="http://www.w3.org/1999/xlink" version="1.1" viewBox="0 -205 1024 1024">
  <g transform="matrix(1 0 0 -1 0 819)">
   <path fill="currentColor"
d="M396 806h270v180q74 -39 80 -42q8 -3 8 -8q0 -6 -6 -8l-30 -14v-108h160l40 52l64 -58q3 -3 4 -8q1 -12 -10 -12h-258v-150h142l30 40l54 -38q8 -6 8 -12q0 -5 -30 -28v-312q0 -36 -14 -56q-15 -21 -50 -30q-10 33 -34 48q-24 16 -78 26l4 18q72 -12 88 -12q14 0 26 4
q10 2 8 26v298h-154v-422l4 -97q0 -14 -20 -28q-17 -14 -40 -14l4 137v424h-156v-270l4 -98q1 -15 -22 -30q-21 -14 -36 -12l4 142v336l56 -40h150v150h-186q-22 0 -70 -8l-14 34v0v0zM152 792q-7 -16 -22 -68h104v266l74 -32q13 -7 0 -16l-24 -14v-204h50l36 48l58 -58
q3 -4 4 -8q0 -10 -8 -10h-140v-208l146 80l12 -16l-158 -100v-280l4 -91q0 -14 -18 -28q-19 -13 -40 -14l4 135v250q-61 -34 -98 -56q-35 -21 -58 -54l-46 58l202 94v230h-114q-31 -94 -80 -182l-16 6q34 105 56 186q20 81 34 162l66 -30q13 -9 8 -14q-4 -4 -16 -10
q-12 -4 -20 -22v0v0z" />
  </g>

</svg>
