<?xml version="1.0" standalone="no"?>
<!DOCTYPE svg PUBLIC "-//W3C//DTD SVG 1.1//EN" "http://www.w3.org/Graphics/SVG/1.1/DTD/svg11.dtd" >
<svg xmlns="http://www.w3.org/2000/svg" xmlns:xlink="http://www.w3.org/1999/xlink" version="1.1" viewBox="0 -36 256 256">
  <g transform="matrix(1 0 0 -1 0 220)">
   <path fill="currentColor"
d="M72 198q0 30 -1 49l22 -11l-8 -5v-33h15l11 11l15 -18h-41v-40h29l10 11l15 -18h-59l17 -9l-8 -7v-28h18l10 10l15 -17h-43v-49q27 -13 68 -16t91 4v-4q-15 -5 -16 -15q-20 -2 -61.5 0t-71 15t-52.5 38q-9 -32 -37 -57l-3 2q20 22 27 52.5t6 58.5l21 -9l-6 -7
q-2 -17 -6 -34q13 -12 27 -20v92h-33q-10 -1 -19 -3l-10 10h58v40h-15q-10 0 -19 -2l-9 9h43zM153 213l21 -7l-7 -8v-88q0 -8 1 -27l-15 -6l1 26q0 84 -1 110zM202 35v168q0 19 -1 39l22 -10l-7 -8v-182z" />
  </g>

</svg>
