<?xml version="1.0" standalone="no"?>
<!DOCTYPE svg PUBLIC "-//W3C//DTD SVG 1.1//EN" "http://www.w3.org/Graphics/SVG/1.1/DTD/svg11.dtd" >
<svg xmlns="http://www.w3.org/2000/svg" xmlns:xlink="http://www.w3.org/1999/xlink" version="1.1" viewBox="0 -36 256 256">
  <g transform="matrix(1 0 0 -1 0 220)">
   <path fill="currentColor"
d="M56 244l23 -6l-8 -9v-35h13l11 11l17 -18h-41v-38h18l11 11l17 -18h-46v-14q29 -25 32 -36t-2 -18.5t-9.5 7t-20.5 40.5v-60q0 -24 1 -45l-16 -8q1 19 1 41v64q-14 -36 -47 -70l-1 3q30 43 45 96h-14q-10 -1 -19 -3l-9 10h45v38h-11q-10 -1 -19 -3l-9 10h39q0 28 -1 50z
M193 132q0 -27 1 -58l-16 -6q1 28 1 54v57q0 16 -1 32l22 -7l-7 -7v-65zM221 190q0 25 -1 51l22 -8l-7 -8v-195q0 -14 -23 -20q0 14 -24 21v4q33 -8 33 2v153zM176 91l-8 -4q-23 -26 -44.5 -42t-41.5 -23l-1 3q12 8 23.5 16t24 21.5t19.5 23t12 20.5zM168 224l-7 -4
q-30 -41 -55 -59l-3 3q16 16 29 36.5t18 36.5zM173 160l-7 -3q-32 -42 -62 -60l-2 4q18 16 32.5 36.5t20.5 35.5z" />
  </g>

</svg>
