<?xml version="1.0" standalone="no"?>
<!DOCTYPE svg PUBLIC "-//W3C//DTD SVG 1.1//EN" "http://www.w3.org/Graphics/SVG/1.1/DTD/svg11.dtd" >
<svg xmlns="http://www.w3.org/2000/svg" xmlns:xlink="http://www.w3.org/1999/xlink" version="1.1" viewBox="0 -205 1024 1024">
  <g transform="matrix(1 0 0 -1 0 819)">
   <path fill="currentColor"
d="M656 972q76 -30 92 -38q4 -9 -6 -14l-36 -14v-328q124 106 176 176q63 -54 64 -62q1 -10 -4 -10h-14q-12 -1 -32 -8q-19 -6 -190 -126v-374q0 -32 12 -34t28 -3h98q27 3 40 5q14 2 20 32q6 26 10 160h22q3 -119 12 -142q9 -21 30 -36q-6 -21 -26 -39q-19 -17 -34 -20
q-15 0 -42 -6h-134q-28 0 -50 6q-18 7 -30 22q-6 14 -6 49v804v0v0zM396 952l90 -36q3 -3 4 -8q3 -4 -8 -10l-34 -14v-254h88l30 40l54 -48q2 -3 2 -8q1 -7 -4 -8h-170v-416l170 102l14 -16q-141 -106 -162 -124q-19 -17 -50 -65l-62 53q23 16 38 38v774v0v0zM342 936
q12 -8 -2 -16q-39 -12 -54 -44q-32 -82 -70 -172l38 -16q13 -4 14 -10q9 -10 -26 -22v-476l4 -99q0 -13 -24 -26q-21 -13 -36 -12l4 131v476q-67 -139 -140 -220l-10 10q94 156 146 306t74 232l82 -42v0v0z" />
  </g>

</svg>
