<?xml version="1.0" standalone="no"?>
<!DOCTYPE svg PUBLIC "-//W3C//DTD SVG 1.1//EN" "http://www.w3.org/Graphics/SVG/1.1/DTD/svg11.dtd" >
<svg xmlns="http://www.w3.org/2000/svg" xmlns:xlink="http://www.w3.org/1999/xlink" version="1.1" viewBox="0 -36 256 256">
  <g transform="matrix(1 0 0 -1 0 220)">
   <path fill="currentColor"
d="M30 76q4 -32 1 -41t-8.5 -12t-10 0t2 12t11.5 41h4zM45 81q20 -25 19.5 -33.5t-7 -15.5t-7.5 5t-8 42zM66 87q25 -22 26 -30.5t-5.5 -16.5t-8.5 5.5t-15 39.5zM52.5 211.5q-11.5 -19.5 -24.5 -40.5l34 2q7 12 10 25l15 -16q-4 0 -22 -27t-37 -47l42 5q-4 14 -11 27l3 2
q26 -22 25.5 -32.5t-6 -15.5t-6.5 1t-4 13q-20 -5 -31.5 -9t-16.5 -9l-10 19q5 0 18.5 16t28.5 42q-14 -3 -22 -5.5t-16 -8.5l-9 18q7 1 19 24.5t18 49.5l18 -13q-4 -1 -15.5 -20.5zM121.5 194.5q6.5 -7.5 2.5 -20t-10.5 1t-25.5 33.5l3 3q24 -10 30.5 -17.5zM119.5 104
q-3.5 -10 -2 -38.5t-5.5 -26.5t-10.5 9t1 19t2 21.5t-14.5 12.5l1 2q11 0 15.5 1.5t30.5 85.5l4 -2q-18 -74 -21.5 -84zM179 245l23 -12l-9 -6v-32q0 -16 4 -31q23 26 30 43l14 -18q-10 -4 -19.5 -13t-22.5 -20q19 -80 47 -101v-6q-9 2 -18 -7q-26 48 -35 116v-122
q0 -11 -5 -17t-15 -10q-4 16 -27 21v5q22 -5 28 -3.5t6 10.5v169q0 10 -1 34zM159 166l-13 -3l-7 10h19l8 10l12 -16l-6 -4q-10 -92 -52 -132l-3 2q36 49 42 133z" />
  </g>

</svg>
