<?xml version="1.0" standalone="no"?>
<!DOCTYPE svg PUBLIC "-//W3C//DTD SVG 1.1//EN" "http://www.w3.org/Graphics/SVG/1.1/DTD/svg11.dtd" >
<svg xmlns="http://www.w3.org/2000/svg" xmlns:xlink="http://www.w3.org/1999/xlink" version="1.1" viewBox="0 -205 1024 1024">
  <g transform="matrix(1 0 0 -1 0 819)">
   <path fill="currentColor"
d="M424 970l68 -32q4 0 2 -8q1 -3 -28 -18v-70h92v126l70 -30q4 -3 2 -8q0 -4 -30 -16v-72h14l26 30l38 -38q2 -3 2 -8q1 -10 -10 -10h-70v-70l4 -56q-3 -14 -18 -22q-16 -7 -28 -4v26h-26v-116h52l22 30l40 -34q12 -7 12 -14q0 -5 -24 -16v-80l4 -64q3 -15 -14 -26
q-18 -10 -30 -8v36h-62v-122h54l26 34l48 -42q3 -2 6 -10q-1 -6 -16 -6h-118v-98l4 -89q0 -15 -18 -24q-19 -12 -34 -12l4 119v104h-62q-22 -1 -46 -10l-18 34h126v122h-62v-24q3 -6 -12 -18q-13 -9 -32 -8l4 74v186l40 -34h62v116h-22v-8q-3 -10 -12 -16q-8 -6 -34 -8l4 70
v88h-20q-6 1 -38 -4l-18 30h76v128v0v0zM426 422h62v128h-62v-128v0v0zM532 422h62v128h-62v-128v0v0zM466 716h92v100h-92v-100v0v0zM802 958q10 -7 0 -14q-16 0 -28 -18q-9 -18 -18 -38q-7 -22 -26 -70h192l24 38l48 -34q8 -6 8 -12q1 -5 -28 -28v-504q0 -106 -24 -185
q-25 -65 -82 -80q-7 28 -32 40q-24 12 -78 30l4 18q100 -30 122 -16q20 15 32 54q10 37 14 137v516h-212q-39 -90 -90 -168l-16 10q35 68 74 176q35 105 50 172l66 -24v0v0zM800 524h56l22 32l36 -36q2 -3 2 -8q1 -12 -10 -12h-106v-44q59 -39 80 -62q21 -24 24 -44
q3 -21 -6 -30q-10 -10 -22 -8q-12 1 -18 20q-6 18 -12 42q-7 24 -46 60v-180l4 -86q0 -13 -18 -22q-16 -8 -28 -11l4 77v228q-28 -86 -82 -166l-12 8q41 103 68 218h-28q-21 0 -44 -8l-16 32h114v236l66 -26l2 -4q3 -4 -6 -10l-24 -12v-184v0v0zM818 548q23 60 44 154
l54 -30q6 -7 4 -10q0 -2 -18 -10q-18 -6 -68 -110l-16 6v0v0zM668 670l8 10q39 -31 54 -50t18 -38q2 -19 -4 -32q-7 -13 -22 -10q-15 2 -18 26q0 24 -12 48q-9 24 -24 46v0v0zM116 898h170l34 44l54 -54q3 -3 4 -8q0 -9 -8 -8h-138v-126h48l30 34l46 -44q3 -3 4 -8
q-1 -7 -10 -8h-118v-114h50l34 40l48 -50q3 -3 4 -8q-1 -7 -10 -8h-126v-118h68l22 34l52 -34q12 -9 -2 -20l-18 -18q-5 -130 -10 -196q-6 -66 -18 -93q-12 -29 -30 -46q-17 -17 -58 -38q-6 32 -30 46q-23 15 -70 26l4 17q44 -5 62 -9q16 -1 38 -2q21 0 36 13q14 12 22 88
q8 74 10 206h-202v-6q3 -15 -18 -24q-18 -6 -30 -6l4 102v436l52 -40v0v0zM108 462h80v118h-80v-118v0v0zM108 606h80v114h-80v-114v0v0zM188 746v126h-80v-126h80v0v0zM62 380h18q11 -114 8 -144q-3 -29 -18 -46q-13 -16 -28 -16q-15 -2 -24 12q-10 12 4 30t26 40
q10 20 14 124v0v0zM100 370l12 8q34 -48 44 -84q9 -34 4 -52q-3 -19 -14 -28q-11 -7 -22 -2q-10 4 -8 26q-1 21 2 54q0 33 -18 78v0v0zM150 386l12 8q44 -48 58 -78q12 -29 10 -46q0 -15 -12 -24q-11 -7 -22 -2q-10 3 -10 24q0 18 -6 46q-6 27 -30 72v0v0zM210 402l10 10
q41 -41 56 -70q15 -30 12 -50q-1 -19 -14 -28q-12 -8 -18 0q-7 6 -8 28q-1 21 -8 48q-6 23 -30 62v0v0z" />
  </g>

</svg>
