<?xml version="1.0" standalone="no"?>
<!DOCTYPE svg PUBLIC "-//W3C//DTD SVG 1.1//EN" "http://www.w3.org/Graphics/SVG/1.1/DTD/svg11.dtd" >
<svg xmlns="http://www.w3.org/2000/svg" xmlns:xlink="http://www.w3.org/1999/xlink" version="1.1" viewBox="0 -205 1024 1024">
  <g transform="matrix(1 0 0 -1 0 819)">
   <path fill="currentColor"
d="M466 188q44 84 58 192q13 108 12 228v286l62 -34q178 38 272 92q67 -67 54 -76q-4 -4 -22 2q-15 6 -80 -6q-63 -10 -234 -40v-230h292l38 52l68 -66q1 -12 -6 -12h-170v-388l2 -113q1 -15 -22 -28q-21 -13 -36 -14l4 149v394h-170q0 -81 -14 -192q-12 -110 -66 -202
q-54 -88 -162 -163l-10 12q86 75 130 157v0v0zM50 892h334l36 52l60 -58q3 -3 4 -8q0 -12 -12 -12h-190q-39 -153 -74 -246h122l32 40l60 -44q6 -6 6 -8q0 -6 -32 -26v-256l4 -112q1 -16 -18 -28q-18 -9 -36 -12v86h-134v-90q0 -18 -20 -30q-19 -11 -34 -13l4 141v254
q-58 -117 -118 -186l-12 12q66 106 114 230q47 123 80 288h-90q-21 0 -72 -8l-14 34v0v0zM212 286h134v308h-134v-308v0v0z" />
  </g>

</svg>
