<?xml version="1.0" standalone="no"?>
<!DOCTYPE svg PUBLIC "-//W3C//DTD SVG 1.1//EN" "http://www.w3.org/Graphics/SVG/1.1/DTD/svg11.dtd" >
<svg xmlns="http://www.w3.org/2000/svg" xmlns:xlink="http://www.w3.org/1999/xlink" version="1.1" viewBox="0 -36 256 256">
  <g transform="matrix(1 0 0 -1 0 220)">
   <path fill="currentColor"
d="M204 207l14 15l21 -22h-103q-11 1 -20 -2l-8 9h96zM157 179.5q7 -7.5 4.5 -14t-7 -8t-7 9t-15.5 27.5l3 3q15 -10 22 -17.5zM139 100h-11q-10 0 -19 -2l-9 9h41q12 27 14 41h-26q-10 0 -19 -3l-9 10h81q11 32 12 43l20 -10l-9 -6l-17 -27h27l15 12l17 -19h-90l21 -9
l-9 -6l-15 -26h63l14 13l17 -20h-36q-9 -25 -25 -44q33 -14 42 -21.5t9 -16t-4 -10.5t-17.5 12t-36.5 27q-38 -30 -97 -40l-1 4q49 13 86 42q-28 9 -46 13zM135 69q17 -2 40 -9q15 17 21 40h-44zM179 227.5q5 -7.5 0.5 -14t-8 -2.5t-7 11.5t-18.5 21.5l3 3q25 -12 30 -19.5z
M43 244q17 -12 25 -22.5t-3 -23.5h19l13 12l16 -19h-74q-11 0 -20 -2l-9 9h49q-5 22 -19 44zM38 40h39v44h-39v-44zM70 162l12 10l17 -17h-48q-11 1 -20 -2l-9 9h48zM69 125l12 10l17 -17h-45q-11 1 -20 -2l-9 9h45zM90 49q0 -12 1 -27l-14 -7v18h-39v-16l-15 -8q1 25 1 47
t-1 44l17 -9h36l8 9l15 -12l-9 -6v-33z" />
  </g>

</svg>
