<?xml version="1.0" standalone="no"?>
<!DOCTYPE svg PUBLIC "-//W3C//DTD SVG 1.1//EN" "http://www.w3.org/Graphics/SVG/1.1/DTD/svg11.dtd" >
<svg xmlns="http://www.w3.org/2000/svg" xmlns:xlink="http://www.w3.org/1999/xlink" version="1.1" viewBox="0 -154 1024 1024">
  <g transform="matrix(1 0 0 -1 0 870)">
   <path fill="currentColor"
d="M368 294q37 -23 55 -39q17 -18 27 -37t7 -42q-5 -23 -20 -23t-17 27q-1 27 -16 49q-15 23 -42 53zM192 264q26 -44 33 -89q6 -46 -6 -67q-13 -20 -25 -15t-8 29t7 37q3 14 0 41t-15 58zM281 280q27 -29 42 -53q15 -25 19 -52q3 -27 -4 -45q-8 -18 -20 -16t-11 26
q0 24 -3 48q-4 24 -31 81zM116 241q-4 -99 -16 -129t-26 -43q-15 -12 -30 -14q-16 -1 -15 17t13 26t30 35t27 108h17zM571 488q3 -68 -5 -110q-9 -43 -23 -67q-15 -24 -36 -32q-23 -9 -32 10q-11 18 13 34q23 15 42 55q18 38 25 110h16zM147 498v-144h102v144h-102zM285 498
v-144h103v144h-103zM147 668v-154h102v154h-102zM388 668h-103v-154h103v154zM328 830h-137q-23 -51 -48 -98q-10 -18 -20 -33l16 -13h111q50 80 78 144zM509 769h344v129h-285q-17 1 -35 -14l-33 34h338l35 39l45 -47q14 -13 -3 -16l-19 -8v-164l6 -133q-1 -19 -15 -25
q-15 -8 -34 -8v48h-278q-25 0 -42 -13l-32 33h352v129h-270q-25 0 -42 -13zM887 485l52 -55q12 -12 0 -14q-26 6 -52 -15q-28 -22 -138 -92q33 -77 85 -129q39 -42 81 -70q42 -27 94 -39l1 -14q-27 0 -45 -2q-19 -2 -28 -26q-58 36 -108 89q-93 98 -128 256
q-21 -131 -81 -204q-92 -108 -244 -151l-4 16q133 57 205 143q71 86 81 215q11 129 6 139q-5 9 -17 24l6 8l83 -26q7 -9 -2 -9q-11 -9 -23 -17q0 -45 -4 -85q18 -58 35 -101q73 59 103 89t35 42q6 12 -1 22zM266 957q4 -9 -5 -8q-14 0 -29 -21q-16 -42 -33 -80h120l33 33
l48 -44q4 -12 -8 -11q-18 1 -28 -9q-11 -11 -35 -50q-23 -36 -56 -81h108l29 31l40 -39q14 -11 -6 -15l-18 -9v-249l5 -78q-1 -10 -12 -16q-10 -6 -31 -12v37h-241v-15q0 -21 -10 -30q-9 -9 -35 -14q4 36 7 140v257v2q-37 -52 -81 -88l-8 10q44 51 87 132q43 79 67 151
t19 79q-5 6 -14 22l8 6z" />
  </g>

</svg>
