<?xml version="1.0" standalone="no"?>
<!DOCTYPE svg PUBLIC "-//W3C//DTD SVG 1.1//EN" "http://www.w3.org/Graphics/SVG/1.1/DTD/svg11.dtd" >
<svg xmlns="http://www.w3.org/2000/svg" xmlns:xlink="http://www.w3.org/1999/xlink" version="1.1" viewBox="0 -200 999 1000">
  <g transform="matrix(1 0 0 -1 0 800)">
   <path fill="currentColor"
d="M719 695h123v236l64 -34l-14 -62v-202q-8 -18 -21.5 -24t-20.5 -6h-7v70h-292l-17 -44l-63 37l22 33v231l65 -30l-15 -64v-141h126v305l65 -35l-15 -63v-207zM790 537l37 44l56 -62l-53 -32q-18 -20 -45 -48t-58 -60t-63.5 -66t-61.5 -66t-51 -60.5t-32 -48.5
q-1 -5 -2.5 -9t-1.5 -8q0 -8 2.5 -14.5t10 -11t21.5 -7.5t37 -3h239q21 0 31.5 6.5t15 25.5t5.5 51.5t3 85.5l13 -1q1 -53 2.5 -80.5t4 -41t6 -18.5t8.5 -14q20 -14 26.5 -17.5t7.5 -8.5v-2q0 -15 -23.5 -22.5t-86.5 -7.5h-292q-42 6 -63.5 17.5t-24.5 40.5q-1 4 -1 7.5v6.5
q0 20 11 43.5t41 61.5q13 17 41 47.5t64.5 69.5t78.5 85t83 93h-186l-67 -13l-23 37h290zM80 0q48 89 74.5 185t38.5 195.5t14.5 199.5t2.5 197v95t0.5 62.5t1 39.5t1.5 27v-4l77 -38l-23 -71l-3 -239q42 48 69.5 88.5t37.5 85.5l61 -72l-39 -22q-10 -9 -25.5 -23t-33 -28.5
t-36 -28.5t-34.5 -23q-4 -102 -8.5 -157.5t-7.5 -80.5q26 -17 52 -36t46.5 -38t33 -37.5t12.5 -35.5q-3 -22 -16 -40t-26 -18t-20 19q-5 23 -12 43t-17.5 40t-23.5 41t-30 46q-10 -65 -27 -123.5t-37.5 -107.5t-43.5 -87t-45 -62zM110 677q-17 -132 -57 -193q-5 -13 -5 -23
q0 -14 7 -23.5t23 -9.5q16 4 27 15.5t17 27t8.5 35t2.5 40.5q0 38 -4.5 74.5t-5.5 58.5z" />
  </g>

</svg>
