<?xml version="1.0" standalone="no"?>
<!DOCTYPE svg PUBLIC "-//W3C//DTD SVG 1.1//EN" "http://www.w3.org/Graphics/SVG/1.1/DTD/svg11.dtd" >
<svg xmlns="http://www.w3.org/2000/svg" xmlns:xlink="http://www.w3.org/1999/xlink" version="1.1" viewBox="0 -205 1024 1024">
  <g transform="matrix(1 0 0 -1 0 819)">
   <path fill="currentColor"
d="M502 698l32 40l58 -46q8 -4 8 -14q0 -6 -36 -24q-48 -228 -122 -338q-76 -108 -196 -174l-10 12q125 101 182 212q56 111 92 304h-114q-25 0 -44 -12l-28 40h178v0v0zM608 974l86 -34q9 -5 6 -10q0 -6 -38 -24v-82q33 -121 66 -224q83 84 164 184l66 -52q8 -13 -10 -16
q-27 -2 -54 -16q-77 -60 -160 -120q47 -124 82 -172q32 -48 74 -92q41 -45 118 -66v-18q-52 1 -68 -6q-15 -6 -36 -26q-56 60 -100 132q-45 69 -78 154q-31 84 -64 240v-619q0 -29 -24 -50q-24 -18 -60 -34q-13 42 -46 56q-31 13 -82 26l4 20q82 -15 110 -16q27 -1 34 10
q6 10 10 23v832v0v0zM316 958l70 -52q8 -6 8 -12t-18 -12q-24 -6 -42 -30q-48 -82 -110 -202q48 -37 90 -80q38 -43 50 -86q11 -42 8 -68q-3 -27 -12 -44t-32 -40q-21 -23 -84 -46q-9 30 -32 46q-22 16 -62 32l4 16q54 -12 78 -18q21 -4 40 2q18 6 34 28q15 21 12 66
q-4 44 -32 88q-28 41 -88 104l94 236h-166v-734l4 -87q0 -20 -24 -32q-21 -12 -36 -12l4 129v810l56 -46h156l30 44v0v0z" />
  </g>

</svg>
