<?xml version="1.0" standalone="no"?>
<!DOCTYPE svg PUBLIC "-//W3C//DTD SVG 1.1//EN" "http://www.w3.org/Graphics/SVG/1.1/DTD/svg11.dtd" >
<svg xmlns="http://www.w3.org/2000/svg" xmlns:xlink="http://www.w3.org/1999/xlink" version="1.1" viewBox="0 -205 1024 1024">
  <g transform="matrix(1 0 0 -1 0 819)">
   <path fill="currentColor"
d="M856 950l58 -42q9 -3 10 -12q0 -3 -32 -26v-116l4 -62q0 -7 -14 -16q-12 -9 -42 -12v44h-396v-98v-32h434l28 36l56 -40q8 -6 8 -14q1 -3 -34 -30v-262q0 -110 -14 -145q-12 -39 -42 -66q-27 -25 -60 -38q-12 29 -42 42q-30 14 -102 34l4 20q69 -13 100 -14q30 0 52 2
q22 3 38 36q14 28 14 97v316h-440q-3 -159 -24 -248q-19 -90 -64 -162q-43 -72 -98 -125l-10 14q59 82 92 161q33 80 42 190q10 107 8 236v340l62 -46h372l32 38v0v0zM444 886v-152h396v152h-396v0v0zM494 486l54 -40h160l36 36l46 -36q12 -6 12 -14q0 -6 -30 -26v-120
l4 -52q0 -16 -20 -28q-19 -10 -34 -10v44h-178v-32q-1 -15 -16 -26q-16 -10 -38 -10l4 102v212v0v0zM544 264h178v158h-178v-158v0v0zM342 934q12 -8 -2 -16q-27 -2 -42 -34q-52 -99 -106 -204l50 -20q15 -9 -2 -18l-18 -10v-486l4 -93q0 -17 -24 -32q-21 -13 -36 -12l4 131
v500q-75 -127 -146 -196l-12 8q66 96 150 270q81 174 102 252l78 -40v0v0z" />
  </g>

</svg>
