<?xml version="1.0" standalone="no"?>
<!DOCTYPE svg PUBLIC "-//W3C//DTD SVG 1.1//EN" "http://www.w3.org/Graphics/SVG/1.1/DTD/svg11.dtd" >
<svg xmlns="http://www.w3.org/2000/svg" xmlns:xlink="http://www.w3.org/1999/xlink" version="1.1" viewBox="0 0 2048 2048">
  <g transform="matrix(1 0 0 -1 0 2048)">
   <path fill="currentColor"
d="M1556 341q12 -9 21 -15t39 -24q30 -19 88 -46q57 -28 122 -48t114 -27l45 -7v-38q-30 1 -52 -1t-35 -11q-12 -9 -30 -30l-25 -30q-41 16 -83 34q-42 19 -104 56t-101 66q-39 30 -52 41l-17 14l-25 -21q-13 -10 -63 -46q-49 -36 -114 -68q-66 -32 -141 -59t-103 -32
l-51 -11l-8 36q30 11 74 29t87 39q43 20 108 58q66 39 106 69q39 30 55 45l16 15q-11 11 -27 29q-15 17 -44 58q-30 41 -52 78q-23 37 -44 80q-20 43 -31 68q-11 26 -24 60q-13 33 -15 41l-4 11q-21 -1 -23 -1l-36 -4l-40 83q27 -4 55 -8q27 -3 38 -4t44 -3q34 -2 51 -2h407
l68 76l84 -54q20 -13 30 -25q9 -11 10 -25q0 -14 -13 -27q-11 -11 -33 -20l-40 -17l-34 -87q-19 -45 -48 -96t-67 -102q-38 -50 -57 -70zM1236 757q3 -8 10 -23l22 -48q16 -33 44 -78q28 -46 64 -94t63 -75t35 -33l16 -14q16 17 28 31t40 55q29 40 54 86q25 47 42 88t28 77
l9 29h-449zM534 723l48 -24q31 -15 80 -43q49 -27 82 -50t62 -55t32 -61q3 -30 -6 -50q-10 -19 -28 -26q-17 -7 -33 1q-15 6 -35 38q-19 32 -46 67q-28 35 -68 74q-40 38 -76 63l-12 8v-318q0 -38 2 -79q1 -42 4 -92q3 -51 4 -70v-30q-2 -21 -11 -36t-36 -18q-17 -3 -34 3
t-22.5 13.5t-4.5 51.5l2 668l-44 -104q-20 -44 -48 -96q-29 -53 -80 -126q-52 -72 -95 -120t-82 -81l-33 -28l-24 31l45 52q25 30 57 73q31 43 82 132q50 89 62 125l77 212h-93q-24 0 -57 -2q-33 -3 -39 -4q-6 0 -28 -2l-25 -3l-39 86q27 -5 45 -7t43 -4l51 -4q36 -4 49 -3
l176 1v234h-180l-2 -46q-1 -15 -6 -22.5t-24 -13.5q-19 -7 -39 -4q-11 1 -21 6q-11 5 -15 16t-2 31q0 10 2 51t5 85q4 44 5 61l1 569l121 -62h419l68 76l83 -54q22 -15 31 -25q8 -10 8 -24q1 -14 -10 -26q-6 -7 -30 -19l-41 -21l2 -449q0 -11 3 -55q3 -43 5 -63t2 -30
q-2 -20 -12 -33q-10 -12 -45 -16q-21 -3 -34 4q-14 7 -14 20l-1 44h-183v-234h140l99 101l120 -107l12 -10q7 -10 4 -23q-4 -11 -11 -15q-8 -4 -15 -4h-349v-105zM258 1176h180v253h-180v-253zM534 1429v-253h183v253h-183zM258 1486h180v247h-180v-247zM534 1733v-247h183
v247h-183zM1060 1078v-27l-3 -58l-9 -174q-7 -93 -20 -179q-13 -87 -33 -156q-20 -68 -53 -132q-33 -65 -85 -134q-52 -68 -86 -97l-65 -59l-27 28l59 72q28 35 66 94q39 60 71 144q32 85 48 174q16 88 27 208q12 121 12 208v594q0 96 -3 125l-4 42l114 -70h402q-7 4 -13 9
q-7 6 -12 19q-4 13 -10 39q-5 27 -12 49q-8 22 -24 47q-17 26 -40 51l-23 24l21 22l42 -29l36 -24q18 -14 40 -35q23 -21 40 -47q17 -25 18 -51q2 -26 -5 -44t-14 -22l-12 -8h246l98 101l121 -106q8 -8 13 -16q5 -7 2 -18q-4 -10 -11 -14q-8 -4 -14 -4l-897 -1v-253
q16 -3 33 -6q16 -2 37 -4t53 -4q31 -2 49 -2h35v56q0 48 -3 94.5t-3 52.5l-2 13l109 -24q50 -12 67 -21t18 -23q0 -14 -14 -26q-13 -12 -35 -17l-42 -11v-94h240v63q0 46 -2 71q-2 27 -4 57l-3 32l100 -24q34 -9 54 -19t20 -24q1 -13 -8.5 -20.5t-31.5 -16.5l-34 -14v-105
h49l95 99l114 -104l11 -10q8 -11 4 -24q-4 -11 -11 -15q-8 -3 -15 -3h-247l-1 -232h50l98 101l121 -107q10 -10 14 -15q5 -6 2 -18q-3 -11 -12 -15q-8 -4 -14 -4h-666q-27 0 -101.5 -3t-76.5 -3l-14 -2zM1364 1065h238l1 232h-240zM1269 1065l-1 232h-35q-24 0 -57 -3
q-33 -2 -39 -2q-6 -1 -28 -3l-25 -3l-23 51v-200l-1 -50q11 -3 25 -6t63 -10q48 -7 99 -6h22z" />
  </g>

</svg>
