<?xml version="1.0" standalone="no"?>
<!DOCTYPE svg PUBLIC "-//W3C//DTD SVG 1.1//EN" "http://www.w3.org/Graphics/SVG/1.1/DTD/svg11.dtd" >
<svg xmlns="http://www.w3.org/2000/svg" xmlns:xlink="http://www.w3.org/1999/xlink" version="1.1" viewBox="0 0 2048 2048">
  <g transform="matrix(1 0 0 -1 0 2048)">
   <path fill="currentColor"
d="M1233 899q-18 12 -21 19q-4 8 -5 22l-3 24q-6 46 -8 57t-10 36t-17 47t-19 40q-9 18 -28 48l-21 36l-25 34l25 24h-110v-1176q0 -22 -7.5 -33.5t-21.5 -17.5q-13 -6 -40 -3q-13 1 -22 5q-10 4 -16 16q-5 12 -4 29q0 11 4 41q3 30 8 107t5 106v935q-3 54 -5 80
q-3 26 -6 43l-3 15l124 -88h304v249h-280q-115 0 -177 -7l-13 -1l-38 88q13 -4 29 -8q16 -3 59 -8q43 -6 140 -6h280v102q0 48 -3 94.5t-3 52.5l-2 13l108 -24q48 -11 65 -20q17 -10 18 -24q2 -13 -12 -25t-36 -18l-39 -11v-140h352l96 102l119 -108l12 -10q7 -10 4 -23
q-4 -11 -12 -15q-7 -4 -14 -4h-557v-249h355l67 76l83 -54q21 -14 30 -25t9 -24q-1 -14 -11 -25q-9 -11 -30 -20l-35 -16v-1044q0 -21 -3 -44q-4 -23 -20 -46q-15 -23 -37 -40t-49 -26l-42 -15l-6 34q-4 16 -18 35t-48 33q-35 13 -71 21l-63 13l8 46q48 -8 79 -12l61 -10
q30 -4 58 -4q29 -1 42 12q14 12 14 45v1031h-237l111 -52q47 -23 44 -38t-14 -22q-10 -7 -35 -9l-35 -3l-30 -64q-16 -33 -49 -89t-52 -79l-25 -31h66l80 81l112 -86q8 -7 14 -14q5 -8 1 -20q-4 -10 -11 -14q-8 -4 -14 -4h-284v-250h99l79 80l112 -86q8 -7 14 -14
q5 -8 2 -19t-12 -15q-8 -4 -14 -4h-280v-113q0 -34 4 -105q3 -71 6 -106q4 -36 4 -51q-1 -11 -4 -19q-4 -9 -14 -16q-11 -6 -31 -7q-21 -2 -33 3q-13 5 -20 15q-8 10 -8 24v375h-100q-30 0 -64 -2l-44 -4q-12 -1 -14 -1l-24 -4l-39 86q26 -4 53 -7q26 -4 38 -5t44 -3
q33 -2 50 -2h100v250h-111q-23 0 -56 -2q-33 -3 -41 -4q-9 0 -26 -2l-24 -3l-39 86q26 -5 47 -8t39 -5q18 -1 50 -3t50 -2h18zM1403 899q17 32 28 55q11 24 34 84q23 61 37 108q15 46 28 96l11 44h-436l20 -20l15 -15l43 -47q19 -23 53 -68q35 -46 46 -69q12 -23 20 -51
q7 -27 4 -55q-2 -28 -11 -40t-12 -13l-15 -9h135zM236 512h137v1189l-4 122q0 19 -1 24l-3 13l110 -24q49 -11 66 -20q17 -10 19 -24q1 -13 -13 -26q-14 -12 -36 -17l-42 -11v-1226h145v893l-4 122q0 19 -1 24l-3 14l109 -24q49 -11 67 -21q17 -9 18 -23q2 -14 -12 -26
t-37 -18l-41 -11v-765q0 -24 2 -71q2 -48 2 -76q1 -27 3 -62q2 -34 2 -42q-3 -23 -15 -38q-12 -14 -41 -15q-17 -1 -27 3q-11 5 -16 11q-6 6 -6 37v32h-378l-18 -10q-9 -4 -23 -4q-16 -1 -29 3t-19 9q-6 6 -6 38v913q0 71 -3 105q-2 34 -2 41l-2 14l109 -24q50 -12 67 -21
q16 -9 18 -23q1 -14 -13 -27q-14 -12 -36 -17l-43 -11v-930z" />
  </g>

</svg>
