<?xml version="1.0" standalone="no"?>
<!DOCTYPE svg PUBLIC "-//W3C//DTD SVG 1.1//EN" "http://www.w3.org/Graphics/SVG/1.1/DTD/svg11.dtd" >
<svg xmlns="http://www.w3.org/2000/svg" xmlns:xlink="http://www.w3.org/1999/xlink" version="1.1" viewBox="0 -36 256 256">
  <g transform="matrix(1 0 0 -1 0 220)">
   <path fill="currentColor"
d="M49 64v98q-21 -27 -38 -42l-2 3q13 16 22.5 31t24.5 43t22 48l18 -16q-4 0 -13 -13.5t-24 -38.5l10 -8l-7 -6v-147l-14 -7q1 27 1 55zM243 77l3 -1q-5 -51 -2 -67q-20 14 -28.5 34.5t-11 51.5t-1.5 125h-94q1 -111 -7.5 -147.5t-31.5 -60.5l-2 3q16 30 22 60t6 74.5
t-1 85.5l14 -8h92l8 10l16 -14l-9 -5q-1 -103 2.5 -133t14.5 -43zM131 194l-9 -1l-8 8h56l11 10l17 -17h-67zM132 167h7q6 14 8 25l16 -7l-6 -3q-5 -7 -11 -15h28l5 8l15 -9l-6 -5v-14q0 -12 1 -23l-14 -4v3h-43v-13h44l12 9l14 -16h-70v-13h50l7 9l13 -11l-7 -6
q-1 -50 -10 -57.5t-19 -10.5q-2 10 -23 20l1 4q19 -6 24.5 -5.5t8.5 5t6 45.5h-51v-2l-13 -3q1 12 1 25v47q0 11 -1 22zM132 142v-12h43v12h-43zM132 160v-11h43v11h-43zM175 59.5q3 -5.5 -3 -12t-7 4.5t-6 24l3 2q10 -13 13 -18.5zM112 68h4q2 -20 0.5 -27t-11 -7t-3 8.5
t9.5 25.5zM125 68l3 1q10 -12 11.5 -19t-5 -11.5t-6 5t-3.5 24.5zM140 71l3 2q10 -10 14.5 -17t-2 -13t-7.5 6t-8 22z" />
  </g>

</svg>
