<?xml version="1.0" standalone="no"?>
<!DOCTYPE svg PUBLIC "-//W3C//DTD SVG 1.1//EN" "http://www.w3.org/Graphics/SVG/1.1/DTD/svg11.dtd" >
<svg xmlns="http://www.w3.org/2000/svg" xmlns:xlink="http://www.w3.org/1999/xlink" version="1.1" viewBox="0 -36 256 256">
  <g transform="matrix(1 0 0 -1 0 220)">
   <path fill="currentColor"
d="M128 228l20 -9l-7 -8v-37h30v47q-1 18 -1 24l21 -8l-7 -6v-19h27l12 10l14 -17h-53v-31h34l11 8l15 -15h-116q-10 0 -19 -2l-9 9h29v27q0 17 -1 27zM135 111v-31h73v31h-73zM122 124l14 -6h70l5 9l15 -10l-5 -5v-39l-13 -4v4h-73v-3l-13 -5v59zM194 71l20 -12l-7 -3
q-10 -18 -20 -33h33l12 12l16 -19h-124q-10 0 -19 -2l-9 9h83q13 27 15 48zM137 68q23 -17 24.5 -25.5t-4.5 -14.5t-8 5.5t-15 31.5zM113 138l-9 9h111l13 11l14 -18h-118q0 1 -11 -2zM62.5 153.5q-0.5 15.5 -11.5 35.5l4 2q28 -25 18 -39t-10.5 1.5zM82 234l-9 -3
q-7 -11 -15 -21h26l7 11l13 -12l-7 -8v-154q1 -29 -19 -35q0 11 -22 18v4q16 -2 21.5 -2t6.5 11v160h-38v-48q1 -48 -5.5 -84t-26.5 -64l-4 2q14 33 18.5 59.5t4.5 65.5v58q0 15 -1 27l14 -9h7q6 15 10 36zM72 92.5q4 -8.5 2 -16t-7 -7.5t-5 11t-11 31l3 3q14 -13 18 -21.5z
M20 103l-11 17q16 0 99 30l1 -5q-79 -35 -89 -42z" />
  </g>

</svg>
