<?xml version="1.0" standalone="no"?>
<!DOCTYPE svg PUBLIC "-//W3C//DTD SVG 1.1//EN" "http://www.w3.org/Graphics/SVG/1.1/DTD/svg11.dtd" >
<svg xmlns="http://www.w3.org/2000/svg" xmlns:xlink="http://www.w3.org/1999/xlink" version="1.1" viewBox="0 -205 1024 1024">
  <g transform="matrix(1 0 0 -1 0 819)">
   <path fill="currentColor"
d="M442 918l18 28q7 8 14 1q29 -19 57 -41q9 -8 8 -12q-2 -5 -9 -9q-26 -12 -27 -19q-2 -6 -2 -13v-284q0 -36 6 -97q1 -11 -5 -12q-43 -15 -47 -14q-2 1 -2 11v50h-313q0 -19 1 -35q-1 -10 -8 -13q-37 -17 -44 -17q-4 1 -3 20q4 100 7 206v188q-1 32 -7 78q-2 10 1 11
q4 2 14 -8t26 -23h306q6 0 9 4zM273 691h-132v-23q-1 -72 -1 -130h133v153zM321 538h132v153h-132v-153zM273 883h-132v-161h132v161zM321 722h132v161h-132v-161zM116 328q8 1 9 -9q13 -68 6 -123q-11 -59 -35 -87q-14 -16 -29 -16q-15 1 -22 8q-8 8 -8 23q-1 14 14 27
q26 25 42 65q15 41 16 102q0 10 7 10zM245 71q-20 0 -36 16q-16 15 -16 58v168q-1 39 -4 70q-1 16 9 13q54 -17 76 -29q9 -5 0 -11q-22 -16 -26 -20q-7 -7 -7 -23v-157q1 -21 8 -28q8 -9 21 -9h86q17 1 26 5q10 5 17 24q15 39 33 121q2 12 12 11q9 -1 8 -13q-7 -71 0 -104
q5 -19 15 -25q5 -3 2 -7q-10 -30 -28 -43q-22 -17 -56 -17h-140zM283 455q6 5 16 -2q57 -35 85 -66q19 -19 20 -37q2 -20 -14 -48q-14 -23 -24 -22q-11 1 -12 20q-6 44 -24 77q-17 31 -47 65q-4 7 0 13zM451 347q6 5 16 -4q60 -49 88 -89q18 -25 18 -46q0 -19 -19 -46
q-15 -21 -27 -20q-9 3 -9 22q-3 51 -21 90q-16 37 -47 80q-5 7 1 13zM873 748l25 26q5 7 14 1q31 -23 53 -42q7 -8 -2 -9q-17 -3 -26 -12q-8 -9 -8 -19v-216q1 -68 8 -167q0 -13 -10 -19q-45 -26 -49 -25q-4 2 -3 18q5 58 6 164v262h-256v-231q-1 -189 -5 -195
q-35 -27 -41 -28q-8 1 -7 20q4 61 5 203v204q-1 36 -5 82q-2 12 2 13q3 1 10 -6q12 -13 36 -31h99q0 1 1 2q28 86 35 147h-103q-42 -1 -73 -7q-8 -3 -11 6q-4 18 -19 30q-7 7 -4 11q4 3 11 -1q38 -8 84 -8h233q6 0 12 7l36 41q7 7 14 0q26 -26 44 -48q11 -14 4 -24
q-5 -6 -18 -7h-154q-24 -64 -67 -149h110q12 0 19 7zM690 174q-70 -60 -214 -126q-19 -7 -23 3q-4 13 9 17q101 54 174 109q24 20 43 42q78 115 51 416q-2 16 10 13q54 -17 72 -27q14 -8 1 -14q-4 -1 -7 -4q-23 -13 -23 -95q0 -133 -27 -227q101 -39 149 -76q47 -35 65 -60
q21 -28 18 -53q-3 -24 -9 -36q-6 -10 -13 -11q-7 0 -14 13q-46 94 -205 203q-14 -50 -57 -87z" />
  </g>

</svg>
