<?xml version="1.0" standalone="no"?>
<!DOCTYPE svg PUBLIC "-//W3C//DTD SVG 1.1//EN" "http://www.w3.org/Graphics/SVG/1.1/DTD/svg11.dtd" >
<svg xmlns="http://www.w3.org/2000/svg" xmlns:xlink="http://www.w3.org/1999/xlink" version="1.1" viewBox="0 -144 1024 1024">
  <g transform="matrix(1 0 0 -1 0 880)">
   <path fill="currentColor"
d="M188 479l61 -21l15 -13l-19 -8l-4 -15l-2 -8h146l33 27l59 -48l-27 -16l-11 -5l-15 -35l-28 -53l-33 -47l-36 -43l12 -8l63 -29l75 -23l89 -16l103 -9l116 -2l131 4l3 -70l-134 -1l-121 5l-106 14l-95 22l-81 30l-67 37l-20 17l-9 -8l-45 -32l-48 -27l-52 -22l-56 -17
l-59 -9l-2 9l55 20l51 23l46 26l42 30l38 33l4 5l-35 51l-22 59l-1 22l-21 -31l-21 -27l-24 -26l-26 -22l-29 -20l-32 -17l-5 8l24 25l22 25l20 25l17 26l15 26l13 28l12 28l8 30l7 30zM919 45l-1 14v17l-1 3v2l-1 17v4v5v4l60 3l-57 -73v4zM471 149v22h226v209h-159v22h159
v190h-96l-18 -48l-13 -29l-15 -27l-16 -26l-19 -25l-8 5l17 57l16 58l7 30l6 30l4 32l5 31l3 33l2 34l1 11l63 -18l15 -12l-18 -9l-2 -14l-7 -34l-9 -34l-7 -24h89v202l64 -11l16 -11l-16 -9v-171h76l53 54l65 -54v-21h-194v-190h40l54 54l64 -54v-22h-158v-209h93l54 54
l65 -54v-22h-502zM380 393h-148l-16 -37l-3 -5l11 -38l28 -50l35 -38l32 44l27 44l22 49zM150 541l-1 8l-2 7l-2 8l-4 8l-4 9l-11 16l-15 -43l-24 -54l-14 -26l-15 -26l-18 -25l-9 4l30 113l7 28l11 54l4 28l6 49h-1l3 16l62 -20l14 -13l-19 -8l-9 -36l-7 -23l15 -5l12 -5
l10 -6l20 -15l8 -10l8 -10l7 -11l-2 -25l-19 -16l-24 2l-16 19zM230 834l64 -11l16 -11l-16 -10v-54h81l53 53l65 -53v-22h-199v-253h-64v253h-194v22h194v86zM433 537l-6 18l-3 9l-4 8l-4 9l-11 19l-7 -12l-13 -21l-14 -19l-15 -18l-17 -15l-18 -13l-19 -11l-6 8l13 16
l21 35l9 19l8 18l7 21l7 21l5 22l4 24l4 20l2 15l62 -22l13 -14l-19 -7l-12 -32l-8 -20l6 -2l10 -4l11 -4l9 -6l10 -7l9 -8l9 -8l9 -10l8 -10l1 -24l-16 -19l-24 -1l-19 15zM310 886h-285v22h285v71l65 -11l16 -11l-16 -9v-40h236v71l65 -11l16 -11l-16 -9v-40h166l54 54
l65 -54v-22h-285v-46l-65 -32v78h-236v-46l-65 -32v78z" />
  </g>

</svg>
