<?xml version="1.0" standalone="no"?>
<!DOCTYPE svg PUBLIC "-//W3C//DTD SVG 1.1//EN" "http://www.w3.org/Graphics/SVG/1.1/DTD/svg11.dtd" >
<svg xmlns="http://www.w3.org/2000/svg" xmlns:xlink="http://www.w3.org/1999/xlink" version="1.1" viewBox="0 -36 256 256">
  <g transform="matrix(1 0 0 -1 0 220)">
   <path fill="currentColor"
d="M99 179q-35 -28 -76 -44l-1 4q33 20 55 38.5t40 43.5h-76q-11 0 -20 -3l-9 10h197l18 13l18 -20h-109q-12 -15 -34 -37q23 -13 39 -37q17 15 32.5 29.5t24.5 28.5l19 -21l-14 -1q-17 -13 -42 -29q15 -42 40 -68.5t47 -30.5v-4q-18 0 -24 -14q-19 14 -37.5 41t-31.5 71
q-4 -3 -11 -8q9 -23 8.5 -61.5t-13 -54t-30.5 -17.5q0 17 -29 24v5q30 -6 38 -5t13 16.5t5 39t-5 41.5q-43 -52 -121 -84l-1 4q73 38 116 96q-10 22 -26 34z" />
  </g>

</svg>
