<?xml version="1.0" standalone="no"?>
<!DOCTYPE svg PUBLIC "-//W3C//DTD SVG 1.1//EN" "http://www.w3.org/Graphics/SVG/1.1/DTD/svg11.dtd" >
<svg xmlns="http://www.w3.org/2000/svg" xmlns:xlink="http://www.w3.org/1999/xlink" version="1.1" viewBox="0 -200 999 1000">
  <g transform="matrix(1 0 0 -1 0 800)">
   <path fill="currentColor"
d="M171 858l-13 -53v-9h218v109h-267l-50 -11l-17 32h324l29 36l52 -49l-24 -29v-109h-267q-2 -104 -4 -189.5t-6 -155.5t-10.5 -125t-16.5 -97q-20 -81 -35.5 -132t-34.5 -77l-9 2q26 88 40 182t21 203t7 237.5t1 274.5zM278 735l55 -30l-18 -61v-68h12q21 60 31.5 94
t15.5 51l39 -42l-23 -27l-54 -76h23l34 32l46 -52h-124v-15q18 -11 34.5 -24.5t28.5 -27.5t19.5 -27.5t7.5 -23.5q0 -13 -6.5 -24t-14.5 -11q-7 0 -10.5 9t-9 26t-16.5 41.5t-33 55.5v-96l-24 -21l33 -30l-17 -20l-12 -36h54l29 38l37 -48q-26 -24 -40 -57.5t-32 -65.5
q35 -22 50 -45.5t15 -40.5v-3q-1 -17 -4.5 -24t-8.5 -7t-15 11.5t-21 27.5t-21 31.5t-16 23.5q-42 -57 -88.5 -86t-91.5 -34l-5 2q40 20 82 55.5t73 83.5l-43 35h-29l31 84h-51l-26 -8l-13 27h96q13 40 21 83v90q-6 -15 -20 -30.5t-32 -30t-38 -27.5t-38 -24l-4 9
q15 13 31.5 29t32.5 35.5t29 42t20 47.5h-59l-29 -9l-12 29h119v159zM206 727q12 -13 21.5 -27.5t17 -28t11.5 -25.5t4 -19v-1q-1 -18 -10 -26.5t-14 -8.5q-6 0 -10 15.5t-7.5 37.5t-8 45t-10.5 38h6zM282 313h2q-7 -19 -14.5 -41t-16.5 -35l55 -21q18 30 28.5 55.5
t13.5 41.5h-68zM695 981l55 -27l-14 -79v-327h7l31 47l36 -73h-74v-372l64 55l3 -13q-17 -22 -33.5 -41t-33 -38.5t-32 -40.5t-30.5 -46l-52 50l73 49v856zM921 266q0 -66 5 -95.5t11 -40.5t11 -12.5t5 -11.5v-2q0 -11 -7 -18.5t-16 -12.5t-18 -7.5t-13 -3.5h-48
q-43 7 -43 64v851l55 -32l-17 -73v-390q13 21 22 35t17 29t16.5 34.5t20.5 50.5l29 -70q-2 -2 -28 -27t-77 -73v-289q0 -24 5 -38t15 -14h11q1 -1 6 -1q19 0 23.5 37t4.5 106zM536 764v237l64 -37l-23 -70v-130h14l40 41l39 -64h-93v-222l83 70l4 -9l-87 -104v-384
q-2 -10 -6 -23t-11.5 -26t-19 -24.5t-28.5 -19.5q-2 37 -14.5 60.5t-51.5 39.5v9q25 -10 41 -13.5t27 -3.5q14 0 18.5 6t4.5 13q0 3 -0.5 6t-0.5 5v315l-73 -90l-49 56l122 89v251h-44l-32 -12l-16 34h92z" />
  </g>

</svg>
