<?xml version="1.0" standalone="no"?>
<!DOCTYPE svg PUBLIC "-//W3C//DTD SVG 1.1//EN" "http://www.w3.org/Graphics/SVG/1.1/DTD/svg11.dtd" >
<svg xmlns="http://www.w3.org/2000/svg" xmlns:xlink="http://www.w3.org/1999/xlink" version="1.1" viewBox="0 -36 256 256">
  <g transform="matrix(1 0 0 -1 0 220)">
   <path fill="currentColor"
d="M110 172q0 -12 1 -23l-13 -7v9h-67v-4l-13 -5q1 45 0 88l12 -5q16 11 21 19l13 -13q-6 0 -33 -11v-27h12l9 10l12 -17h-33v-28h67v28h-2q-10 0 -19 -2l-9 9h30v27h-3q-10 0 -19 -2l-9 9h30l6 10l14 -14l-7 -5v-46zM16 137l19 -9l-6 -5v-84l23 15l1 -5q-22 -22 -29 -34
l-11 14q4 4 4 13q0 74 -1 95zM113 130l-7 -5q-1 -59 7 -71l10 15l3 -1q-8 -23 -11 -45q-14 13 -18 43.5t-3 72.5zM55 137l18 -8l-5 -6v-82l22 15l2 -3q-21 -22 -28 -35l-10 12q2 4 2 13q0 72 -1 94zM50.5 110q4.5 -6 -0.5 -12t-8 3t-11 21l2 2q13 -8 17.5 -14zM51 76.5
q4 -6.5 -1.5 -13t-8 2.5t-11.5 23l2 2q15 -8 19 -14.5zM90 109.5q4 -6.5 -1 -13t-8 4.5t-10 21l1 2q14 -8 18 -14.5zM88.5 74.5q4.5 -6.5 -0.5 -13.5t-7.5 2.5t-10.5 21.5l2 2q12 -6 16.5 -12.5zM183 110h23l11 12l13 -19h-47q0 -8 -2 -23h40l11 11l14 -18h-58
q11 -25 25 -35.5t34 -14.5v-5q-10 0 -16 -10q-16 7 -28 20.5t-20 44.5h-4q-16 -50 -75 -66l-1 4q48 21 63 62h-20q-10 -1 -20 -3l-9 10h50q3 15 3 23h-11q-10 0 -19 -2l-9 9h39v24h-19q-10 0 -19 -2l-10 9h63q11 23 13 37h-48q-10 -1 -19 -3l-10 10h35q0 49 -1 61l18 -9
l-5 -6v-46h20q0 45 -1 61l19 -9l-6 -7v-45h20l10 11l14 -18h-44l15 -10l-9 -4q-8 -11 -16 -23h23l11 11l14 -18h-55v-24zM148 176q16 -9 19 -14t1.5 -11.5t-5.5 -8.5t-6 8t-10 24zM143 219.5q6 -7.5 4.5 -14.5t-5.5 -10t-6.5 8t-13.5 29l2 2q13 -7 19 -14.5zM240 227l-9 -4
q-8 -15 -21 -28l-4 2q5 9 9.5 19.5t7.5 23.5z" />
  </g>

</svg>
