<?xml version="1.0" standalone="no"?>
<!DOCTYPE svg PUBLIC "-//W3C//DTD SVG 1.1//EN" "http://www.w3.org/Graphics/SVG/1.1/DTD/svg11.dtd" >
<svg xmlns="http://www.w3.org/2000/svg" xmlns:xlink="http://www.w3.org/1999/xlink" version="1.1" viewBox="0 -205 1024 1024">
  <g transform="matrix(1 0 0 -1 0 819)">
   <path fill="currentColor"
d="M36 882h316l40 44l52 -50q3 -4 4 -10q1 -12 -16 -12h-148v-664q3 -41 -18 -71q-18 -30 -78 -42q-9 32 -24 46q-14 13 -106 41l4 20q90 -19 120 -20q29 0 40 6q10 5 8 44v640h-114q-19 0 -62 -8l-18 36v0v0zM436 920h422l36 48l58 -54q6 -3 6 -8q1 -12 -10 -12h-344
l-16 -192h176l32 40l50 -40q12 -8 12 -16q3 -10 -32 -26l-22 -521q2 -24 14 -28q11 -3 80 -4q33 3 42 26q6 20 10 47q2 24 8 108h18v-116q-1 -34 26 -47q-8 -24 -16 -34q-6 -9 -18 -16q-10 -5 -34 -10h-94q-54 0 -66 12q-13 12 -16 26q-4 13 -2 40l20 533h-192l-52 -504
l174 72l8 -16q-159 -80 -180 -101q-20 -18 -40 -46l-56 60q38 19 44 37l70 716h-46q-18 0 -54 -8l-16 34v0v0zM614 576l12 6q43 -39 68 -78q24 -36 22 -62q-2 -25 -16 -34q-13 -10 -28 -4q-15 3 -14 34q-1 30 -10 60q-8 27 -34 78v0v0z" />
  </g>

</svg>
