<?xml version="1.0" standalone="no"?>
<!DOCTYPE svg PUBLIC "-//W3C//DTD SVG 1.1//EN" "http://www.w3.org/Graphics/SVG/1.1/DTD/svg11.dtd" >
<svg xmlns="http://www.w3.org/2000/svg" xmlns:xlink="http://www.w3.org/1999/xlink" version="1.1" viewBox="0 -200 999 1000">
  <g transform="matrix(1 0 0 -1 0 800)">
   <path fill="currentColor"
d="M552 966l-25 -58v-82h294l47 43l64 -63h-405v-165h320l46 34l52 -59l-53 -25l-281 -142q49 -56 67 -112t18 -127q0 -38 -7.5 -73t-24 -64t-44 -48.5t-66.5 -25.5v7q0 12 -10 22t-28 19t-42 16.5t-51 14.5l1 16q45 -9 86 -14.5t63 -5.5h5q29 8 44.5 46t15.5 95
q0 35 -6.5 73.5t-19.5 74.5t-33.5 67.5t-48.5 52.5l5 12l57 -35l243 155h-642l-72 -10l-32 36h382v359z" />
  </g>

</svg>
