<?xml version="1.0" standalone="no"?>
<!DOCTYPE svg PUBLIC "-//W3C//DTD SVG 1.1//EN" "http://www.w3.org/Graphics/SVG/1.1/DTD/svg11.dtd" >
<svg xmlns="http://www.w3.org/2000/svg" xmlns:xlink="http://www.w3.org/1999/xlink" version="1.1" viewBox="0 -36 256 256">
  <g transform="matrix(1 0 0 -1 0 220)">
   <path fill="currentColor"
d="M59 160q-17 -30 -44 -53l-3 3q34 47 42 78h-6q-10 0 -19 -2l-9 9h39q0 23 -1 48l21 -9l-7 -8v-31h9l10 10l14 -17h-33v-19q21 -8 26 -15t0.5 -15t-9.5 2t-17 23q0 -48 2 -64l-16 -7q1 22 1 67zM130 215q13 14 19 28l15 -15l-8 -3l-17 -16q6 -5 13 -11.5t1.5 -15t-9.5 0
t-13 16.5q-24 -18 -38 -28l-3 3q8 7 33 33q-3 3 -30 23l1 4q27 -13 36 -19zM97 167l1 3q19 -6 31 -14q12 14 15 22l16 -15q-10 -2 -22 -14q10 -7 15.5 -14t0.5 -15.5t-10.5 1.5t-14.5 19q-29 -24 -44 -30l-2 3q25 20 39 35q-11 10 -25 19zM121 114l23 -10l-8 -6v-22h48
l16 13l18 -20h-82v-42h69l16 13l19 -20h-196q-10 0 -19 -2l-9 9h106v42h-54q-11 -1 -20 -3l-9 10h83q0 14 -1 38zM186 244l22 -9l-7 -7v-31h11l10 11l14 -18h-29q5 -22 17 -40t22 -23v-3q-14 -2 -18 -7q-19 28 -26 73h-1v-61q0 -14 1 -31l-16 -5q1 18 1 32v38
q-9 -29 -30 -52l-3 2q20 39 28 77q-5 0 -14 -2l-9 9h28v16q0 16 -1 31z" />
  </g>

</svg>
