<?xml version="1.0" standalone="no"?>
<!DOCTYPE svg PUBLIC "-//W3C//DTD SVG 1.1//EN" "http://www.w3.org/Graphics/SVG/1.1/DTD/svg11.dtd" >
<svg xmlns="http://www.w3.org/2000/svg" xmlns:xlink="http://www.w3.org/1999/xlink" version="1.1" viewBox="0 -205 1024 1024">
  <g transform="matrix(1 0 0 -1 0 819)">
   <path fill="currentColor"
d="M280 882h548l40 54q57 -54 64 -60q6 -5 6 -10q0 -3 -6 -6h-670q-51 -81 -96 -138q-42 -57 -116 -134l-12 10q90 117 150 222q57 104 82 166l56 -26q19 -9 20 -14q-1 -6 -4 -8q-3 -3 -18 -6q-15 -1 -44 -50v0v0zM744 794l38 46l52 -50q6 -3 6 -6q0 -12 -18 -12h-468
q-18 1 -66 -10l-18 32h474v0v0zM736 714l32 36l60 -42q6 -3 4 -8q0 -9 -38 -26v-160q-1 -67 4 -148q2 -81 20 -126q17 -42 40 -72q21 -26 36 -37q13 -9 20 -4q5 3 10 39t16 126h16q1 -83 0 -136q-1 -49 14 -73t16 -30t-6 -10q-6 -3 -30 2q-22 3 -80 48q-57 42 -86 107
q-28 66 -34 156q-4 89 -4 176v160h-490q-5 0 -52 -8l-18 30h550v0v0zM138 606h248v80l72 -24q8 -3 8 -6t-6 -6l-24 -12v-32h142l36 42l54 -46q2 -3 8 -6q3 -12 -14 -12h-226v-62h110l30 36l50 -44q3 0 4 -6q1 -7 -6 -8h-188v-66h190l32 42l56 -46q3 -3 4 -6q3 -12 -8 -12
h-526q-12 0 -60 -8l-16 30h278v66h-112q-22 0 -64 -8l-16 30h192v62h-172q-19 0 -58 -8l-18 30v0v0zM206 392l48 -34h294l26 32l50 -32q9 -3 10 -12q0 -6 -24 -24v-231q1 -25 -10 -44q-11 -21 -52 -34q-3 27 -30 36q-24 12 -78 24l4 16q48 -9 70 -10q21 -1 36 4q13 6 12 48
v39h-308v-39l2 -74q1 -11 -16 -22q-16 -12 -38 -12l4 104v265v0v0zM254 192h308v60h-308v-60v0v0zM254 274h308v62h-308v-62v0v0z" />
  </g>

</svg>
