<?xml version="1.0" standalone="no"?>
<!DOCTYPE svg PUBLIC "-//W3C//DTD SVG 1.1//EN" "http://www.w3.org/Graphics/SVG/1.1/DTD/svg11.dtd" >
<svg xmlns="http://www.w3.org/2000/svg" xmlns:xlink="http://www.w3.org/1999/xlink" version="1.1" viewBox="0 -200 1000 1000">
  <g transform="matrix(1 0 0 -1 0 800)">
   <path fill="currentColor"
d="M380 159q26 51 45 93t33 82.5t25.5 82t22.5 91.5l80 -32q2 -1 6.5 -4t4.5 -10q0 -8 -4.5 -10t-24.5 -7q-26 -53 -47.5 -94t-42 -75t-41.5 -64t-45 -61zM635 163v440h-207l-12 28h403l47 55l84 -64v-21h-253v-420q0 -31 -5 -48.5t-20 -25.5q-6 -3 -15.5 -7t-19.5 -7
t-19.5 -5.5t-15.5 -2.5q-8 0 -9 2.5t-1 11.5q0 18 -7.5 25t-22.5 11l-43 11v15zM900 869h-425l-12 27h309l44 55l84 -66v-16zM749 495q30 -26 62 -58t58.5 -67.5t43.5 -72t17 -71.5q0 -5 -1 -13t-5 -16t-10.5 -14t-16.5 -6q-16 0 -24 11t-12 25l-14 54q-10 30 -19.5 53.5
t-21.5 47t-29 50.5t-42 64zM310 579h-99v-298h99v298zM152 505q-19 -28 -30 -44.5t-19.5 -27.5t-15.5 -19.5t-17 -19.5l-13 9q2 4 4 7.5t3 6.5l31 55q4 7 12 25.5t17.5 42t19 50t17.5 51.5q23 72 31 124.5t12 87.5h-144l-10 27h284l45 56l80 -63v-19h-186
q-10 -51 -17.5 -84.5t-15 -58.5t-15.5 -47t-19 -51l8 -7h93l27 41l50 -46q6 -5 11.5 -10.5t5.5 -10.5q0 -8 -10.5 -10.5t-20.5 -4.5v-351l-61 -11v52h-99v-97l-58 -7v354z" />
  </g>

</svg>
