<?xml version="1.0" standalone="no"?>
<!DOCTYPE svg PUBLIC "-//W3C//DTD SVG 1.1//EN" "http://www.w3.org/Graphics/SVG/1.1/DTD/svg11.dtd" >
<svg xmlns="http://www.w3.org/2000/svg" xmlns:xlink="http://www.w3.org/1999/xlink" version="1.1" viewBox="0 -36 256 256">
  <g transform="matrix(1 0 0 -1 0 220)">
   <path fill="currentColor"
d="M169 143v34q-15 -33 -59 -63l-2 2q36 37 56 80h-26q-10 -1 -19 -3l-9 10h59v26l-1 18l21 -10l-7 -8v-26h30l13 11l16 -18h-58q32 -51 65 -63v-3q-14 -1 -18 -11q-29 28 -48 68v-45q0 -15 1 -31l-15 -6q1 22 1 38zM120 59q0 25 -1 51l15 -10h81l8 11l15 -13l-8 -7v-47
q0 -9 1 -28l-15 -6v20h-83v-16l-14 -5q1 25 1 50zM133 37h83v56h-83v-56zM32 62.5q-4 15.5 -16 36.5l2 2q16 -12 24 -22t1 -21t-11 4.5zM90 168l15 -17h-38v-29h13l11 10l14 -17h-38v-51q10 14 24 45l15 -14l-9 -6q-12 -13 -30 -32v-11l43 11l1 -4q-60 -21 -86 -34l-11 17
q16 2 40 8v71h-12q-11 0 -20 -3l-9 10h41v29h-23q-10 -13 -21 -22l-2 2q34 57 50 116l18 -11l-6 -5l-5 -11q21 -6 33 -11.5t8.5 -18.5t-12.5 -0.5t-30 26.5q-14 -33 -28 -58h42z" />
  </g>

</svg>
