<?xml version="1.0" standalone="no"?>
<!DOCTYPE svg PUBLIC "-//W3C//DTD SVG 1.1//EN" "http://www.w3.org/Graphics/SVG/1.1/DTD/svg11.dtd" >
<svg xmlns="http://www.w3.org/2000/svg" xmlns:xlink="http://www.w3.org/1999/xlink" version="1.1" viewBox="0 -144 1024 1024">
  <g transform="matrix(1 0 0 -1 0 880)">
   <path fill="currentColor"
d="M487 967l57 -48l-27 -19v-771h-59v338h-128v-53l-3 -59l-4 -53l-7 -49l-8 -45l-9 -42l-12 -36l-13 -33l-16 -28l-17 -23l-20 -17l-5 6l11 21l10 24l9 28l9 31l7 36l5 39l5 44l2 47l2 53l1 56v553l53 -27h128zM517 129l-1 -13l-2 -13l-3 -12l-5 -11l-8 -11l-10 -9l-11 -7
l-12 -4l-12 -3l-12 -1v30l-84 15v14h84l4 1h4l3 2l3 2l1 3l1 4v6l1 7h59zM743 478l64 -11l16 -10l-16 -10v-152h35l54 54l64 -54v-21h-153v-194l-64 -32v226h-215v21h69l5 13l12 42l7 18l24 83l3 8h-2l6 12l56 -32l11 -16l-22 -3l-33 -52l-35 -49l-18 -24h132v183zM32 867
l65 -33h90l27 27l53 -48l-26 -16v-492l-54 -27v59h-90v-64l-65 -33v627zM187 813h-90v-454h90v454zM632 500v-17l-59 -29v425l59 -30h25l6 12l5 16l15 44l18 60l-1 1l6 11l55 -33l11 -16l-24 -3l-20 -28l-20 -24l-21 -23l-13 -12l-4 -5h188l33 27l59 -49l-27 -21v-339
l-65 -32v65h-226zM458 698h-128v-209h128v209zM714 655h-82v-134h82v134zM858 655h-79v-134h79v134zM714 827h-82v-150h82v150zM858 827h-79v-150h79v150zM458 919h-128v-199h128v199z" />
  </g>

</svg>
