<?xml version="1.0" standalone="no"?>
<!DOCTYPE svg PUBLIC "-//W3C//DTD SVG 1.1//EN" "http://www.w3.org/Graphics/SVG/1.1/DTD/svg11.dtd" >
<svg xmlns="http://www.w3.org/2000/svg" xmlns:xlink="http://www.w3.org/1999/xlink" version="1.1" viewBox="0 -120 1000 1000">
  <g transform="matrix(1 0 0 -1 0 880)">
   <path fill="currentColor"
d="M482 767l53 -9q23 -4 23 -17q0 -9 -20 -17l-16 -5v-233q0 -32 -4 -75h282v278l88 -14q14 -2 14 -13q0 -12 -18 -16l-21 -4v-313l-63 -8v63h-279q31 -73 72 -117q112 -119 356 -157v-15q-54 -14 -70 -51q-91 33 -134 55q-119 61 -184 144q-28 35 -59 104q-37 -96 -97 -153
q-73 -68 -191 -109q-76 -27 -156 -45l-6 17q155 45 231 94q123 79 165 233h-249v-66l-63 -8v379l85 -12q13 -2 13 -12t-13 -13l-22 -6v-235h254q5 37 5 75v281h-396l-12 27h408v153l87 -13q16 -3 16 -14q0 -10 -16 -15l-23 -7v-104h286l51 63l90 -71v-19h-467z" />
  </g>

</svg>
