<?xml version="1.0" standalone="no"?>
<!DOCTYPE svg PUBLIC "-//W3C//DTD SVG 1.1//EN" "http://www.w3.org/Graphics/SVG/1.1/DTD/svg11.dtd" >
<svg xmlns="http://www.w3.org/2000/svg" xmlns:xlink="http://www.w3.org/1999/xlink" version="1.1" viewBox="0 -205 1024 1024">
  <g transform="matrix(1 0 0 -1 0 819)">
   <path fill="currentColor"
d="M472 978l74 -28q9 -3 10 -8q4 -5 -4 -10l-34 -12v-96h80l34 38l54 -50q2 -3 2 -8q0 -6 -12 -6h-158v-128h76l30 32q56 -37 56 -44q0 -9 -24 -24v-464q3 -32 -12 -55q-15 -21 -50 -28q-7 25 -20 34q-12 9 -60 25l4 16q24 -7 46 -10q18 -4 34 2q13 3 12 36v452h-226v-472
l4 -79q0 -15 -18 -30q-18 -14 -36 -14l4 121v536l48 -34h86v128h-90q-21 1 -48 -10l-26 36h164v154v0v0zM398 614l8 10q35 -28 52 -46q18 -15 24 -36t-2 -36q-9 -15 -24 -14q-14 0 -16 22q-3 19 -12 44q-9 23 -30 56v0v0zM592 598q6 -7 -2 -10q-7 -4 -16 -10q-6 -7 -20 -32
q-15 -24 -42 -84h26l22 24l38 -32q3 -3 4 -8q2 -10 -10 -10h-76v-90h22l20 26l38 -34q3 -3 4 -8q0 -9 -14 -8h-70v-80l4 -44q3 -13 -14 -28q-18 -16 -38 -16l4 88v80h-14q-22 -1 -46 -10l-18 34h78v90h-26q-21 0 -36 -8l-18 34h102q27 90 42 154l56 -18v0v0zM760 968l72 -28
q7 -4 6 -10q-1 -4 -34 -20v-246h82l30 38l50 -44q3 -3 4 -8q0 -12 -12 -12h-132q15 -240 42 -332q24 -91 52 -146q27 -53 90 -81v-16h-44q-22 0 -40 -16q-33 47 -56 103q-22 56 -40 152q-17 94 -28 332q-9 -199 -24 -292q-12 -94 -54 -178q-39 -84 -120 -149l-12 12
q63 67 96 143q30 75 46 178q16 100 26 290h-14q-27 0 -38 -8l-22 34h74v304v0v0zM828 868l8 10q33 -18 64 -42q27 -23 36 -46q9 -22 0 -40q-6 -20 -24 -18q-18 0 -20 18q-4 15 -10 40q-6 24 -54 78v0v0zM20 742h146v244l82 -32q9 -5 4 -10q-3 -5 -38 -22v-180h46l30 34
l44 -46q8 -14 -10 -16h-110v-202l104 58l10 -16l-114 -80v-355q3 -36 -14 -60q-18 -23 -62 -38q-4 36 -34 50q-30 15 -74 30l4 18q88 -24 110 -18q21 6 22 32v307q-43 -30 -62 -48q-18 -18 -30 -44l-52 54l144 88v224h-70q-34 -1 -52 -10l-24 38v0v0z" />
  </g>

</svg>
