<?xml version="1.0" standalone="no"?>
<!DOCTYPE svg PUBLIC "-//W3C//DTD SVG 1.1//EN" "http://www.w3.org/Graphics/SVG/1.1/DTD/svg11.dtd" >
<svg xmlns="http://www.w3.org/2000/svg" xmlns:xlink="http://www.w3.org/1999/xlink" version="1.1" viewBox="0 -36 256 256">
  <g transform="matrix(1 0 0 -1 0 220)">
   <path fill="currentColor"
d="M127 215h84l7 6l12 -9l-6 -4v-20l-12 -4v4h-84v-3l-12 -3v36zM128 195h20v13h-20v-13zM159 195h21v13h-21v-13zM191 195h21v13h-21v-13zM103.5 144q5.5 7 6.5 15.5t0 19.5l12 -3h47q-1 3 -3 13l20 -4l-5 -3q0 -5 1 -6h35l8 7l13 -14h-55q4 -11 9 -16q15 7 21 16l14 -11
q-8 -1 -15 -4.5t-13 -5.5q9 -5 30 -9l6 15l3 -1q-1 -9 0.5 -14t4 -8t-8.5 -3q-28 3 -46 14q-18 -6 -50 -12l-1 4q25 6 44 15q-6 8 -10 20h-48q0 -13 -6.5 -24t-29.5 -19l-1 3q12 8 17.5 15zM207.5 184q3.5 -3 -0.5 -7t-7 0t-12 10l1 2q15 -2 18.5 -5zM151 155l6 4l9 -11h-20
h-10l-6 -1l-4 8h25zM80 90l-13 -6v5h-31q-2 -8 -7 -23h38l6 7l12 -10l-7 -5q-8 -30 -13 -38t-15 -12q-2 3 -6.5 8t-15.5 8l1 4q15 -2 20.5 -2.5t8.5 7.5t8 26h-38l-4 -3l-11 9q4 2 7 11t6 27l10 -7h31v19h-20q-11 0 -21 -2l-10 9h51l6 8l12 -9l-6 -6q0 -13 1 -25zM239 89
l-13 -6v6h-30l-8 -23h38l7 8l12 -11l-7 -5q-7 -27 -12 -36.5t-18 -14.5q-1 5 -4.5 9.5t-14.5 7.5v4q14 -2 19.5 -2.5t9 7.5t7.5 26h-38l-6 -4l-10 11q5 2 8.5 11.5t6.5 25.5l10 -7h30v19h-20q-11 0 -21 -2l-10 9h50l6 8l13 -9l-6 -6q0 -13 1 -26zM87 124h60l11 9l15 -16h-61
q-15 0 -17 -2zM101 112l13 -5h29l6 7l11 -9l-5 -4v-18l-11 -5v5h-32v-2l-11 -4v35zM112 90h32v10h-32v-10zM89 79l12 -5h55l5 7l12 -9l-5 -5v-41q0 -14 -14 -19q-2 9 -15 13v3q11 -1 14.5 -1t3.5 3v42h-11l7 -5l-5 -2q-7 -6 -11 -13h5l6 6l9 -13h-23v-25l-10 -5v30h-6
q-7 0 -9 -2l-7 9h29q8 17 8 20h-39v-56l-11 -4v72zM109 66l1 3q12 -5 14.5 -10t-1.5 -9.5t-6 2.5t-8 14zM70 178q17 -10 22 -16t0 -15t-9 3t-15 26zM49 170l-7 -5q-11 -15 -28 -31l-3 2q18 24 22 42zM43 187h-5q-10 0 -14 -2l-9 9h37v24q0 14 -1 27l21 -8l-8 -6v-37h14l9 7
l11 -14h-34v-57l-12 -5v62h-9zM155 225v-7l-12 -3v10h-16q-11 0 -21 -2l-10 9h47q0 9 -1 15l20 -5l-7 -5v-5v-7zM186 231q0 6 -1 16l20 -5l-7 -5v-5h26l9 7l13 -14h-24h-24v-7l-12 -3v9v7zM19 232q17 -9 21.5 -14.5t-0.5 -14t-9 2.5t-14 24zM96 229l-7 -5q-6 -10 -19 -25
l-3 2q13 23 13 36z" />
  </g>

</svg>
