<?xml version="1.0" standalone="no"?>
<!DOCTYPE svg PUBLIC "-//W3C//DTD SVG 1.1//EN" "http://www.w3.org/Graphics/SVG/1.1/DTD/svg11.dtd" >
<svg xmlns="http://www.w3.org/2000/svg" xmlns:xlink="http://www.w3.org/1999/xlink" version="1.1" viewBox="0 -120 1000 1000">
  <g transform="matrix(1 0 0 -1 0 880)">
   <path fill="currentColor"
d="M802 480h-389v-47l-59 -8v338l71 -31h146v79h-260l-15 28h275v115l83 -10q20 -3 20 -13t-17 -16l-27 -9v-67h167l48 58l92 -65v-21h-307v-79h167l21 35l69 -41q11 -6 11 -14q0 -7 -16 -13l-17 -6v-232l-63 -8v27zM413 597v-90h158v90h-158zM413 705v-81h158v81h-158z
M630 507h172v90h-172v-90zM630 705v-81h172v81h-172zM47 429q43 65 65 112q88 183 115 401l78 -22q19 -6 19 -16q0 -8 -18 -14l-18 -7q-32 -108 -67 -204l27 -7q18 -4 18 -14q0 -9 -15 -15l-20 -8v-574l-63 -14v518q-53 -96 -108 -148zM282 332l-15 27h431v91l73 -9
q21 -3 21 -14q0 -10 -18 -16l-16 -6v-46h62l42 52l85 -58v-21h-189v-213q0 -31 -11 -41q-11 -9 -31 -17q-23 -9 -40 -9q-13 0 -16 21q-1 15 -4 18q-4 4 -27 10l-58 15v15h127v201h-416zM391 295q64 -22 92 -47q42 -37 42 -75q0 -16 -11 -26q-7 -7 -16 -7q-8 0 -15 6t-24 46
q-21 54 -75 90z" />
  </g>

</svg>
