<?xml version="1.0" standalone="no"?>
<!DOCTYPE svg PUBLIC "-//W3C//DTD SVG 1.1//EN" "http://www.w3.org/Graphics/SVG/1.1/DTD/svg11.dtd" >
<svg xmlns="http://www.w3.org/2000/svg" xmlns:xlink="http://www.w3.org/1999/xlink" version="1.1" viewBox="0 -144 1024 1024">
  <g transform="matrix(1 0 0 -1 0 880)">
   <path fill="currentColor"
d="M887 107l-66 48l-59 54l-27 29l-50 63l-21 33l-4 9v-279l-65 -33v275l-16 -21l-29 -35l-32 -33l-33 -30l-36 -29l-37 -26l-40 -23l-42 -21l-44 -17l-4 9l38 26l36 27l35 28l32 28l31 30l28 32l27 33l24 35l22 36l6 11h-265v21h299v77l65 -11l16 -10l-16 -10v-46h180
l54 54l64 -54v-21h-295l75 -71l58 -48l61 -44l32 -20l33 -18l60 -32l-60 -48zM227 991l59 -27l12 -15l-19 -5l-58 -156l-48 -110l-6 -12l29 -5l16 -11l-16 -10v-565l-65 -32v551l-39 -71l-30 -49l-32 -46l-9 4l89 209l41 110l38 114zM853 531l5 1l3 1l2 1h1v2l1 1l2 3l1 5v7
h64v-14l-3 -13l-4 -13l-7 -12l-8 -11l-12 -9l-12 -6l-12 -5l-14 -2l-14 -1v32l-54 17v16h61zM496 650l-4 17l-7 29l-4 13l-5 13l-7 13l-10 -28l-12 -25l-15 -23l-18 -20l-19 -16l-21 -13l-3 -1v-106l-65 -32v403l65 -33h50v74h-121v22h195l54 53l64 -53v-22h-127v-74h57
l27 27l54 -48l-27 -16v-252h-54v63l-5 -5l-25 4l-15 19zM534 525l2 1h2l1 2l1 2l1 3l1 5l1 6v8h54v-12l-1 -12l-4 -12l-4 -11l-6 -9l-8 -9l-10 -7l-11 -5l-11 -3h-12v26l-54 14v13h58zM824 650l-3 16l-4 16l-8 27l-5 13l-8 14l-10 -29l-13 -25l-15 -23l-17 -20l-20 -16
l-22 -13l-9 -3v-107l-54 -27v395l54 -27h58v74h-124v22h202l53 53l65 -53v-22h-131v-74h55l32 27l59 -48l-27 -22v-246h-64v59l-1 -1l-25 4l-15 18zM748 820h-58v-191l12 14l12 18l10 19l9 21l6 22l5 25l3 26l2 29zM421 820h-50v-183l5 6l12 18l10 19l8 21l6 22l5 24l3 27
l2 29zM543 820h-58l-2 -22l-6 -32l-1 -5l16 -9l12 -10l11 -12l10 -13l10 -15l8 -15v133zM868 820h-56l-2 -22l-6 -32l-1 -5l4 -1l12 -8l12 -10l11 -12l11 -13l10 -15l5 -7v125z" />
  </g>

</svg>
