<?xml version="1.0" standalone="no"?>
<!DOCTYPE svg PUBLIC "-//W3C//DTD SVG 1.1//EN" "http://www.w3.org/Graphics/SVG/1.1/DTD/svg11.dtd" >
<svg xmlns="http://www.w3.org/2000/svg" xmlns:xlink="http://www.w3.org/1999/xlink" version="1.1" viewBox="0 -52 256 256">
  <g transform="matrix(1 0 0 -1 0 204)">
   <path fill="currentColor"
d="M54 73l10 -10h129l5 8l12 -9q2 -2 2 -3t-2 -1l-4 -3v-26l1 -9q1 -3 -3 -7q-3 -2 -9 -3v14h-129v-3q0 -6 -4 -8l-1 -1q-2 -1 -8 -3v9q1 7 1 11v32q-1 5 -4 9zM195 59h-129v-31h129v31zM141 252l9 -9h53l9 8l12 -10q1 -1 1 -2t-3 -2l-4 -2v-29v-20q0 -4 -3 -7q-4 -3 -9 -3
l1 18v12v32h-55v-34l2 -22q0 -5 -4 -7q-3 -3 -10 -4q1 4 1 17q1 11 1 18v35q-2 5 -5 8zM37 252l10 -9h54l9 8l12 -10q1 -1 1 -2t-3 -2l-4 -2v-29v-19q0 -5 -3 -7q-4 -3 -9 -4l1 18v12v32h-56v-35l1 -22q0 -4 -4 -7q-3 -3 -10 -4q2 14 2 36v35q-2 5 -5 8zM82 179l2 2
q16 -6 23 -12q9 -7 8 -12v-5q8 -1 12 -6q5 -1 6 -6q18 11 29 25q12 16 12 43v9q-1 4 -6 8l2 2l19 -6q5 -2 2 -4q-4 0 -7 -3v-4q0 -32 -14 -49q-13 -14 -36 -24q1 0 1 -1q0 -6 -3 -7q-4 -1 -6 4q-1 1 -2 3q-2 4 -3 5q-3 5 -10 8q-4 0 -6 5q-1 6 -6 11q-6 8 -17 14zM11 126
h211l8 10l16 -12q2 -2 1 -2q0 -1 -3 -1h-213q-6 0 -11 -3zM68 228l18 -7q3 -1 4 -2l-2 -1q-3 -1 -6 -3v-8q-2 -35 -15 -50q-15 -16 -38 -24l-1 3q22 12 31 25q12 14 12 49v7q0 5 -5 8zM49 105h140l6 9l16 -10q2 -2 1 -2q0 -1 -3 -1h-142q-6 0 -10 -4zM49 84h139l6 8l16 -10
q4 -2 -2 -2h-141q-4 0 -9 -4zM189 174l2 2q17 -7 24 -14q9 -8 10 -14q1 -9 -3 -9q-5 -1 -7 5q-1 1 -2 4l-5 10q-6 7 -19 16z" />
  </g>

</svg>
