<?xml version="1.0" standalone="no"?>
<!DOCTYPE svg PUBLIC "-//W3C//DTD SVG 1.1//EN" "http://www.w3.org/Graphics/SVG/1.1/DTD/svg11.dtd" >
<svg xmlns="http://www.w3.org/2000/svg" xmlns:xlink="http://www.w3.org/1999/xlink" version="1.1" viewBox="0 -36 256 256">
  <g transform="matrix(1 0 0 -1 0 220)">
   <path fill="currentColor"
d="M97 161l-14 -9v12h-13v-46h13l10 11l15 -18h-38v-60l33 11l1 -4q-35 -14 -73 -32l-10 -9l-12 17l15 4q0 79 -1 101l22 -14l-8 -7v-75l20 5v116h-24v-6l-14 -8q1 15 1 45t-1 48l16 -9h45l10 10l13 -16l-7 -6q0 -40 1 -61zM33 171h50v56h-50v-56zM161 195h20v33h-20v-33z
M128 143h21v45h-21v-45zM161 143h20v45h-20v-45zM193 143h22v45h-22v-45zM114 165.5q0 21.5 -1 35.5l15 -6h21v33h-13q-11 -1 -20 -3l-9 10h101l15 12l16 -19h-46v-33h20l9 9l12 -12l-6 -5q0 -34 1 -54l-14 -7v10h-87v-6l-15 -5q1 19 1 40.5zM178 13l-15 -6q1 15 1 26v56
q-31 -49 -79 -69l-1 3q45 30 70 77h-23q-11 0 -20 -3l-9 10h62q0 12 -1 27l22 -11l-8 -6v-10h40l11 11l16 -18h-63q26 -50 67 -63v-4q-15 -1 -19 -11q-39 31 -52 74v-57q0 -10 1 -26z" />
  </g>

</svg>
