<?xml version="1.0" standalone="no"?>
<!DOCTYPE svg PUBLIC "-//W3C//DTD SVG 1.1//EN" "http://www.w3.org/Graphics/SVG/1.1/DTD/svg11.dtd" >
<svg xmlns="http://www.w3.org/2000/svg" xmlns:xlink="http://www.w3.org/1999/xlink" version="1.1" viewBox="0 -205 1024 1024">
  <g transform="matrix(1 0 0 -1 0 819)">
   <path fill="currentColor"
d="M472 868q86 -75 106 -114q19 -37 14 -58q-6 -19 -14 -28q-9 -8 -24 -6t-20 22q-3 20 -8 44q-5 22 -22 56q-15 32 -44 76l12 8v0v0zM756 650q69 116 124 218q66 -43 64 -50q-1 -7 -8 -8q-6 0 -24 -8q-18 -6 -140 -162l-16 10v0v0zM394 610h270v370l78 -34q9 -6 10 -8
q0 -9 -8 -12l-30 -14v-302h172l36 52l62 -60q2 -3 2 -8q0 -12 -12 -12h-218q29 -114 68 -186q35 -71 80 -112q41 -41 104 -58v-16q-45 1 -60 -4q-13 -6 -40 -26q-46 53 -76 104q-30 47 -54 116q-23 65 -46 182h-18v-410l4 -103q0 -14 -20 -26q-21 -12 -38 -12l4 139v372
q-43 -130 -110 -232q-66 -103 -162 -185l-12 10q92 104 148 213q57 105 96 234h-142q-21 0 -68 -8l-20 36v0v0zM324 934q9 -3 -2 -12q-16 -6 -28 -14q-10 -9 -58 -84q-46 -75 -112 -162h152q39 57 76 136l68 -40q5 -14 -10 -16q-18 -10 -30 -20q-9 -7 -72 -94
q-62 -85 -166 -202l218 20q-18 36 -56 96l8 8q66 -54 90 -84q24 -31 30 -58q5 -26 -4 -40q-8 -12 -22 -14q-14 -1 -22 8t-10 18q0 8 -8 44q-100 -13 -166 -28q-66 -14 -104 -34l-32 76q29 -2 56 6q59 61 148 200q-98 -12 -124 -20q-24 -6 -54 -24l-36 68q30 0 48 16
q18 15 72 114q53 99 82 178l68 -42v0v0zM102 318h22q6 -87 4 -138q-2 -49 -22 -77q-21 -24 -36 -28q-15 -2 -30 4q-12 7 -12 22q-1 16 20 34q18 17 28 37q9 18 16 46q5 27 10 100v0v0zM198 328l16 6q42 -68 58 -106q15 -36 12 -66q-4 -26 -22 -33t-32 4q-12 8 -6 37t-2 74
q-9 42 -24 84v0v0zM304 350l12 10q69 -60 84 -86q15 -25 16 -46q-1 -21 -16 -36q-15 -13 -30 -4t-14 34q0 25 -12 56q-10 30 -40 72v0v0z" />
  </g>

</svg>
