<?xml version="1.0" standalone="no"?>
<!DOCTYPE svg PUBLIC "-//W3C//DTD SVG 1.1//EN" "http://www.w3.org/Graphics/SVG/1.1/DTD/svg11.dtd" >
<svg xmlns="http://www.w3.org/2000/svg" xmlns:xlink="http://www.w3.org/1999/xlink" version="1.1" viewBox="0 -36 256 256">
  <g transform="matrix(1 0 0 -1 0 220)">
   <path fill="currentColor"
d="M34 76q4 -32 1.5 -41t-9 -12t-10.5 0t2.5 12t12.5 41h3zM54 81q21 -26 21 -34t-7 -15t-8 5t-8 42zM77 88q27 -19 29.5 -27.5t-4 -17t-9.5 4.5t-19 38zM59.5 208q-13.5 -20 -28.5 -40l41 3q6 10 10 23l16 -16q-4 0 -25 -26.5t-42 -45.5l55 5q-5 13 -13 27l3 2
q30 -23 30 -33t-5.5 -15.5t-7 0.5t-5.5 14q-30 -5 -43.5 -9.5t-19.5 -9.5l-11 20q5 0 21 16t34 42q-17 -4 -26.5 -6.5t-18.5 -8.5l-9 18q7 2 21 24.5t22 49.5l20 -13q-5 -1 -18.5 -21zM133 39h76v58h-76v-58zM136 207q-3 -5 -8 -16h34q0 33 -1 56l22 -11l-7 -7v-38h30l12 13
l17 -20h-59v-46h40l14 13l18 -20h-128q-10 -1 -19 -3l-9 10h70v46h-36q-8 -17 -24 -37l-4 1q23 50 25 79l20 -11q-4 -4 -7 -9zM119 66.5q0 27.5 -1 47.5l17 -10h72l10 10l14 -15l-8 -6q0 -56 1 -76l-15 -8v23h-76v-17l-15 -6q1 30 1 57.5z" />
  </g>

</svg>
