<?xml version="1.0" standalone="no"?>
<!DOCTYPE svg PUBLIC "-//W3C//DTD SVG 1.1//EN" "http://www.w3.org/Graphics/SVG/1.1/DTD/svg11.dtd" >
<svg xmlns="http://www.w3.org/2000/svg" xmlns:xlink="http://www.w3.org/1999/xlink" version="1.1" viewBox="0 -205 1024 1024">
  <g transform="matrix(1 0 0 -1 0 819)">
   <path fill="currentColor"
d="M32 360q36 107 52 196q15 87 24 166l74 -20q9 -13 -2 -16q-21 -9 -26 -30q-6 -21 -20 -72q41 -24 68 -54q27 -28 24 -52q0 -21 -12 -30q-11 -7 -22 -2q-11 3 -16 22q-3 19 -12 44q-6 25 -36 50q-29 -126 -82 -210l-14 8v0v0zM306 400q35 95 56 164q20 69 34 156l74 -28
q9 -13 -2 -16q-28 -8 -34 -28l-26 -78q65 -33 92 -66q26 -31 26 -52q-1 -22 -14 -32q-12 -10 -26 -4q-12 6 -18 24q-4 18 -16 52q-11 33 -52 58q-27 -75 -80 -158l-14 8v0v0zM30 810h216v178l88 -40q7 -4 0 -10l-38 -18v-110h136l36 46l56 -52q16 -12 2 -20h-230v-166
q0 -182 -20 -262q96 -38 144 -76q48 -39 64 -66q15 -27 6 -50q-10 -21 -28 -21q-19 0 -32 29q-12 30 -44 72q-30 42 -114 90q-24 -86 -72 -160q-49 -73 -160 -143l-10 12q93 82 130 137q34 56 62 140q27 81 24 270v194h-136q-20 0 -64 -8l-16 34v0v0zM738 942q7 -3 8 -6
q3 -10 -8 -16q-24 -3 -42 -36q-32 -81 -58 -138h234l32 38l56 -48q18 -12 18 -20q1 -8 -16 -10q-31 -9 -52 -36t-72 -90l-16 10l60 130h-256q-46 -92 -106 -178l-20 10q69 132 106 244q35 110 50 182l82 -36v0v0zM762 636q6 -2 6 -10q0 -6 -14 -12l-18 -6q24 -165 52 -240
q27 -72 76 -162q45 -88 126 -113v-16h-54q-24 1 -42 -20q-55 72 -86 147q-31 74 -52 140q-19 66 -38 244q-21 -181 -54 -280q-31 -97 -94 -165q-61 -66 -166 -118l-8 14q93 64 144 129q50 63 80 160q29 95 50 338l92 -30v0v0z" />
  </g>

</svg>
