<?xml version="1.0" standalone="no"?>
<!DOCTYPE svg PUBLIC "-//W3C//DTD SVG 1.1//EN" "http://www.w3.org/Graphics/SVG/1.1/DTD/svg11.dtd" >
<svg xmlns="http://www.w3.org/2000/svg" xmlns:xlink="http://www.w3.org/1999/xlink" version="1.1" viewBox="0 -36 256 256">
  <g transform="matrix(1 0 0 -1 0 220)">
   <path fill="currentColor"
d="M41 222l1 -8h82q0 11 -17 27l2 3q21 -6 28.5 -13t-4.5 -17h77l8 10l21 -16q-19 -5 -34 -28l-4 1l10 26h-169q3 -27 -15 -27t-6.5 10t16.5 32h4zM163 178h-47q-11 -24 -40 -34.5t-58 -13.5v4q25 5 48 14.5t35 29.5h-30q-11 0 -21 -2l-9 9h62q3 11 4 21l22 -7l-8 -5l-3 -9
h44l7 9l16 -11l-8 -6v-22q-1 -12 10 -11h31q9 1 10.5 8.5t2.5 18.5h4q1 -14 3.5 -19t8.5 -8q-5 -10 -25 -11h-37q-22 0 -22 16v29zM118 48l-15 -5v6h-50v-4l-15 -4q1 15 1 46.5t-1 43.5l16 -4h47l8 8l16 -11l-8 -5v-46q0 -10 1 -25zM103 95h-50v-15h50v15zM103 73h-50v-17
h50v17zM64 34q-19 -19 -38 -27l-1 3q25 22 31 37l19 -10zM111 35q11 -5 8 -17.5t-10.5 -0.5t-26.5 25l2 3q16 -5 27 -10zM103 120h-50v-18h50v18zM175 63q12 15 20 40h-41l-4 -8q14 -24 25 -32zM125 64q19 35 25 76l21 -10l-8 -5q-2 -5 -7 -15h45l12 11l16 -18h-19
q-11 -29 -26 -49q25 -21 58 -30v-4q-19 -1 -20 -9q-23 12 -46 33q-25 -23 -55 -35l-1 4q27 16 47 40q-13 18 -20 37q-2 -8 -19 -28z" />
  </g>

</svg>
