<?xml version="1.0" standalone="no"?>
<!DOCTYPE svg PUBLIC "-//W3C//DTD SVG 1.1//EN" "http://www.w3.org/Graphics/SVG/1.1/DTD/svg11.dtd" >
<svg xmlns="http://www.w3.org/2000/svg" xmlns:xlink="http://www.w3.org/1999/xlink" version="1.1" viewBox="0 0 2048 2048">
  <g transform="matrix(1 0 0 -1 0 2048)">
   <path fill="currentColor"
d="M1458 1070l38 -14q13 -4 34 -13q22 -9 48 -24q25 -15 52 -52q26 -37 -4 -57q-31 -21 -60 -2q-10 6 -23 25t-29 37q-17 19 -43 36l-19 12q-6 -29 -10 -46q-5 -17 -16 -42t-32 -56t-57 -65t-58 -49l-29 -20l-23 23l31 33q18 19 39 51t35 65q13 33 19 62q6 28 9 70
q4 41 4 95v128l106 -72h191l61 72l72 -50q16 -12 28 -23q11 -12 13 -22q2 -11 -7 -23q-3 -4 -30 -19l-26 -14v-175q0 -26 12 -42t39 -17q16 -2 27 5q12 7 20 19q9 13 12 27l27 126l30 -8l-7 -125q-1 -17 15 -34l23 -23q11 -14 11 -26q-1 -16 -17 -28q-17 -12 -54 -17t-65 -5
q-44 -2 -81 7q-38 8 -56 25q-19 17 -24 41q-6 24 -6 54v219h-216q-2 -33 -2 -40zM1702 1894l72 -49q16 -12 28 -23q11 -12 13 -24q2 -11 -7 -22q-2 -2 -31 -19l-26 -14v-127h31l80 77l99 -80q16 -14 19 -24q2 -10 -4 -21q-3 -6 -6 -8q-4 -1 -12 -1h-207v-137l39 -33
q17 -15 19 -21q2 -5 0 -13q-3 -9 -8 -12t-11 -3h-719q-30 0 -71 -3l-27 -2q-24 -2 -26 -2l-25 -3l-39 86q27 -5 48 -8t40 -4q19 -2 51 -4q31 -2 49 -2l583 -1l-2 162h-704l-71 -4l-27 -1q-4 -1 -26 -3l-24 -3l-40 86q27 -5 48 -8t40 -4q18 -2 50 -4t50 -2h704v149h-576
q-28 0 -58 -3q-32 -2 -42 -3t-25 -2l-24 -3l-39 86q26 -5 46 -8q21 -3 40 -4l52 -4q32 -3 50 -2l569 1zM770 1112l-39 86q27 -5 49 -8q21 -3 39 -5t49 -3q31 -2 51 -2l145 -1l79 80l116 -84q10 -8 15 -15q4 -6 0 -18q-4 -11 -12 -15q-7 -4 -12 -4h-201v-246q88 20 127 31
q39 10 86 24l27 8l7 -36q-38 -20 -70 -34q-31 -14 -103 -38q-72 -25 -132 -42.5t-113 -31.5l-57 -15q-6 -25 -15 -43q-8 -17 -18 -18q-9 -2 -24 27l-29 75l-15 37l66 9q51 6 61 8l106 19v266h-34q-24 0 -57 -3q-33 -2 -39 -2q-6 -1 -28 -3zM81 1495l35 -44q13 -16 58 -85
q45 -70 64 -103q18 -33 31 -81t-1 -80q-13 -33 -36 -40q-23 -6 -40 8q-17 12 -21 34t-7 45t-8 47t-16 64q-12 40 -27 80q-15 39 -30 70l-30 61zM657 1418q-24 -31 -31 -39t-39 -39l-69 -69l-47 -37q0 -56 1 -106q0 -50 -4 -110t-11 -134l-15 -148q32 -29 49 -42l52 -41
q33 -28 57 -54t44 -54q21 -28 31 -51t11 -50q0 -27 -14 -44q-13 -16 -34 -18q-20 -1 -30 9q-11 10 -20 41q-10 30 -24 64q-15 33 -44 76q-30 44 -51 65l-39 38l-26 -95q-12 -40 -34 -99q-23 -59 -56 -123q-34 -64 -80 -136t-92 -119l-43 -45l-30 29l47 69q25 35 58 96
q34 60 66 136q33 77 60 163q26 86 38 149q11 62 20 141q8 79 12 164q5 85 5 203l-1 519q-1 9 -6 70q-4 61 -4 63l-4 29l106 -19q56 -11 71 -18q15 -8 19 -18q5 -10 -2 -23q-6 -13 -29 -21l-54 -20v-472l51 80q20 31 35 58t33 71l18 44l88 -57q45 -30 52 -38q6 -8 5 -20
t-13 -18q-11 -6 -33 -4zM734 583q14 -4 28 -7q15 -3 67 -9t135 -6h342v22q0 37 -3 78.5t-3 47.5l-2 12l101 -19q52 -10 63 -20q12 -11 13 -22q1 -10 -9 -18t-29 -13l-38 -11v-57h361l93 96l120 -96q8 -7 17 -21q8 -15 2 -27q-3 -5 -8 -7q-5 -3 -11 -3h-574v-265l2 -55
q0 -29 1 -30l3 -37l1 -34q1 -30 0 -38q-2 -13 -7 -20t-16 -14q-11 -8 -38 -6q-17 0 -25 4q-7 5 -10 12q-4 6 -4 18v465h-342q-114 0 -176 -7l-12 -1zM1530 479l83 -45l87 -50q48 -29 94 -60t77 -62t45 -55t20 -46t3 -48q-4 -28 -17 -39q-12 -12 -28 -14q-15 -1 -33 14
q-13 10 -35 46q-21 37 -48 74q-26 37 -62 76q-37 38 -84 76q-46 38 -65 52l-66 45zM1068 367q-57 -65 -98 -108q-42 -43 -108 -95q-65 -51 -104 -74l-60 -37l-29 38l63 45q28 22 66 58q39 36 98 108q58 73 85 129l30 60l95 -48q28 -15 38 -25q11 -9 12 -18q0 -10 -10 -22
q-11 -11 -36 -11h-42z" />
  </g>

</svg>
