<?xml version="1.0" standalone="no"?>
<!DOCTYPE svg PUBLIC "-//W3C//DTD SVG 1.1//EN" "http://www.w3.org/Graphics/SVG/1.1/DTD/svg11.dtd" >
<svg xmlns="http://www.w3.org/2000/svg" xmlns:xlink="http://www.w3.org/1999/xlink" version="1.1" viewBox="0 -36 256 256">
  <g transform="matrix(1 0 0 -1 0 220)">
   <path fill="currentColor"
d="M212 229l15 14l16 -21h-149v-115q-3 -64 -44 -101l-4 4q18 21 25.5 45.5t7.5 61.5h-32q0 -23 -5.5 -44.5t-26.5 -43.5l-4 3q10 14 15.5 35t5.5 49l-12 -3l-9 11h28h40v32h-38l-10 -7l-11 11l6 6v32t-1 26l23 -11l-8 -6v-44h39v76l14 -10h119z" />
  </g>

</svg>
