<?xml version="1.0" standalone="no"?>
<!DOCTYPE svg PUBLIC "-//W3C//DTD SVG 1.1//EN" "http://www.w3.org/Graphics/SVG/1.1/DTD/svg11.dtd" >
<svg xmlns="http://www.w3.org/2000/svg" xmlns:xlink="http://www.w3.org/1999/xlink" version="1.1" viewBox="0 -144 1024 1024">
  <g transform="matrix(1 0 0 -1 0 880)">
   <path fill="currentColor"
d="M875 386l-19 -28l-53 -66l-27 -29l-27 -25l-27 -20l-26 -18l-27 -13l-6 8l40 43l42 52l44 62l44 75l42 79v132l-28 -47l-37 -50l-20 -25l-44 -46l-24 -22l-25 -21l-28 -20l-7 7l75 104l17 25l29 51l14 26l12 25v1h-142l-27 -22v-494h-65v256l-46 -63l-26 -31l-27 -29
l-27 -25l-26 -20l-27 -18l-27 -13l-6 8l41 43l42 52l43 62l44 75l42 79v127l-28 -43l-18 -25l-40 -49l-46 -47l-24 -22l-53 -40l-7 7l76 104l34 51l29 51l14 26h-153v21h216l32 27l52 -42v15h216l32 27l60 -48l-27 -22v-494l-1 -14l-3 -13l-4 -13l-7 -12l-8 -11l-11 -9
l-13 -7l-12 -4l-14 -3h-13v32l-65 16v16h65l6 1h5l3 2l2 1l1 1h1v2l2 4l1 4v7v256zM640 130l-1 -14l-3 -13l-4 -13l-6 -12l-9 -11l-11 -9l-12 -7l-13 -4l-13 -3h-14v32l-108 16v16h108l6 1h5l3 2l2 1l1 1h1l1 2l1 4l1 4v7h65zM55 90l-1 2l-1 6l-3 5l-1 5l-1 1v2l-1 2v2l-1 1
v3l-5 14l-2 4l-1 4l27 7v358l59 -11l15 -11l-15 -9v-309l51 18v435h-48v-17l-65 -32v360l65 -32h149l27 27l53 -48l-26 -17v-274l-54 -27v60h-42v-199h36l34 37l43 -37v-22h-113v-193l85 31l33 11l4 -9l-28 -20l-57 -37l-30 -17l-59 -31l-62 -28l-41 -18l-5 -19l-15 11z
M38 141l21 -62l-31 58zM276 877h-149v-237h149v237zM426 727l-54 -27v263l54 -27h445l33 27l59 -49l-27 -21v-166l-65 -32v32h-445zM535 914h-109v-165h109v165zM703 914h-104v-165h104v165zM871 914h-103v-165h103v165z" />
  </g>

</svg>
