<?xml version="1.0" standalone="no"?>
<!DOCTYPE svg PUBLIC "-//W3C//DTD SVG 1.1//EN" "http://www.w3.org/Graphics/SVG/1.1/DTD/svg11.dtd" >
<svg xmlns="http://www.w3.org/2000/svg" xmlns:xlink="http://www.w3.org/1999/xlink" version="1.1" viewBox="0 -120 1000 1000">
  <g transform="matrix(1 0 0 -1 0 880)">
   <path fill="currentColor"
d="M666 194q111 -42 290 -65l-4 -13q-29 -3 -48 -20q-15 -14 -20 -35q-75 18 -184 62q-138 64 -203 166q-23 -57 -52 -88q-54 -59 -161 -97q-106 -36 -223 -45l-4 21q235 30 335 147q47 63 54 153l79 -15q24 -5 24 -17q0 -11 -19 -17l-23 -8q37 -64 129 -115q37 47 79 111
l76 -43q10 -6 10 -14q0 -10 -16 -10h-34q-57 -40 -77 -53q-4 -3 -8 -5zM146 879h634l33 43l73 -48v-19h-733zM269 749l-12 24h423l23 27l49 -32v-19h-483zM269 802l-9 24h418l27 28l47 -31v-21h-483zM266 616v125l57 -19h363l22 22l51 -34q12 -8 12 -13q0 -7 -12 -10l-16 -5
v-41l-54 -10v14h-369v-20zM320 697v-28h369v28h-369zM278 904l-9 23h391l35 37l56 -39v-21h-473zM274 313q0 -55 -4 -76q-6 -36 -31 -67q-27 -33 -63 -33t-36 29q0 17 31 31q72 32 85 116h18zM52 555h340l30 32l54 -37v-19h-416zM127 432l-11 24h229l20 22l44 -27v-19h-282z
M127 480l-9 24h225l24 23l42 -26v-21h-282zM125 298v127l57 -22h162l21 22l52 -32q12 -8 12 -13q0 -8 -12 -10l-16 -2v-55l-54 -10v24h-168v-20zM179 378v-27h168v27h-168zM129 580l-9 23h197l32 32l51 -34v-21h-271zM522 555h343l30 32l53 -37v-19h-419zM597 432l-11 24
h231l20 22l45 -27v-19h-285zM597 480l-9 24h227l24 23l43 -26v-21h-285zM595 298v127l57 -22h164l22 22l51 -32q12 -7 12 -13q0 -8 -12 -10l-16 -2v-55l-54 -10v24h-171v-20zM648 378v-27h171v27h-171zM599 580l-10 23h200l32 32l51 -34v-21h-273z" />
  </g>

</svg>
