<?xml version="1.0" standalone="no"?>
<!DOCTYPE svg PUBLIC "-//W3C//DTD SVG 1.1//EN" "http://www.w3.org/Graphics/SVG/1.1/DTD/svg11.dtd" >
<svg xmlns="http://www.w3.org/2000/svg" xmlns:xlink="http://www.w3.org/1999/xlink" version="1.1" viewBox="0 -36 256 256">
  <g transform="matrix(1 0 0 -1 0 220)">
   <path fill="currentColor"
d="M115.5 68q5.5 29 5.5 78.5t-1 76.5l15 -9h45q-2 14 -15 30l1 3q16 -8 23.5 -15.5t-4.5 -17.5h33l12 11l15 -18h-60l13 -7l-6 -7v-11h25l7 10l14 -13l-8 -5v-19l9 9l10 -16h-19q0 -15 1 -32l-13 -6v6h-25q11 -23 17 -31q20 17 26 30l11 -16q-11 -3 -35 -19q21 -31 36 -36
v-4q-8 0 -16 -10q-7 6 -19.5 28t-20.5 50v-76q0 -15 -17 -24q-5 17 -23 19v4q17 -3 22 -1.5t5 7.5v79h-2q-14 1 -22 -4l-11 11h35v24h-13q-10 0 -19 -2l-9 9h41v21h-2q-15 1 -24 -4l-9 11h35v12l-1 13h-44q1 -113 -9.5 -147.5t-27.5 -51.5l-3 1q16 30 21.5 59zM165 93
q3 -8 -2 -14t-9 5.5t-13 22.5l2 3q19 -9 22 -17zM192 154h26v21h-26v-21zM192 123h26v24h-26v-24zM152 50.5q-9 -9.5 -13 -14.5l-12 14q6 0 52 32v-6q-18 -16 -27 -25.5zM55 217q0 14 -1 30l20 -9l-7 -8v-23h24l9 9l14 -16h-47v-23h22l7 11l14 -13l-7 -5v-30q0 -19 1 -37
l-13 -6v6h-24v-27h26l10 11l13 -18h-49v-15q0 -19 1 -39l-14 -8q1 22 1 43v19h-22q-10 0 -19 -2l-9 9h50v27h-23v-4l-13 -7q1 16 1 31v32q-1 15 -1 32l14 -10h22v23h-14q-11 0 -20 -2l-9 9h43v10zM32 170v-26h23v26h-23zM67 170v-26h24v26h-24zM67 137v-27h24v27h-24z
M32 137v-27h23v27h-23z" />
  </g>

</svg>
