<?xml version="1.0" standalone="no"?>
<!DOCTYPE svg PUBLIC "-//W3C//DTD SVG 1.1//EN" "http://www.w3.org/Graphics/SVG/1.1/DTD/svg11.dtd" >
<svg xmlns="http://www.w3.org/2000/svg" xmlns:xlink="http://www.w3.org/1999/xlink" version="1.1" viewBox="0 -205 1024 1024">
  <g transform="matrix(1 0 0 -1 0 819)">
   <path fill="currentColor"
d="M642 980q80 -30 86 -36q4 -6 0 -8q-3 -3 -36 -20v-182h162v166q81 -30 84 -36q3 -5 -2 -10q-4 -6 -32 -14v-92l4 -64q0 -9 -14 -18q-13 -7 -40 -14v56h-366l-30 -30l-52 42q30 20 30 32v162l80 -28q7 -4 8 -10q0 -5 -38 -22v-120h156v246v0v0zM386 600h478l32 40l58 -46
q3 -3 4 -8q0 -12 -12 -12h-482q-21 0 -62 -8l-16 34v0v0zM454 526l62 -38h304l28 36l58 -42q6 -6 6 -8q0 -7 -30 -28v-84l4 -56q1 -15 -18 -26q-18 -13 -38 -10v32h-320v-10q-1 -14 -22 -22q-19 -8 -38 -6l4 74v188v0v0zM510 328h320v132h-320v-132v0v0zM514 270
q60 -39 78 -60q17 -21 20 -42q3 -18 -6 -33q-8 -14 -28 -14q-19 0 -22 26q-4 23 -10 45q-6 19 -42 68l10 10v0v0zM832 240q27 -14 -2 -22q-22 -9 -46 -42q-22 -32 -58 -77h156l42 50l56 -60q3 -3 4 -10q4 -8 -10 -8h-544q-22 1 -70 -8l-20 36h356q30 53 78 167l58 -26v0v0z
M42 744h160v228l80 -34q7 -6 -6 -14l-26 -10v-170h54l38 46l52 -54q2 -4 2 -8q1 -10 -10 -10h-136v-194l116 48l10 -16l-126 -72v-359q2 -37 -16 -62q-18 -24 -62 -36q-6 36 -36 50q-27 14 -74 34l4 16q93 -27 114 -22q21 6 22 32v317l-56 -36q-37 -34 -52 -56l-48 60
l156 76v220h-76q-18 0 -66 -8l-18 34v0v0z" />
  </g>

</svg>
