<?xml version="1.0" standalone="no"?>
<!DOCTYPE svg PUBLIC "-//W3C//DTD SVG 1.1//EN" "http://www.w3.org/Graphics/SVG/1.1/DTD/svg11.dtd" >
<svg xmlns="http://www.w3.org/2000/svg" xmlns:xlink="http://www.w3.org/1999/xlink" version="1.1" viewBox="0 -339 2048 2048">
  <g transform="matrix(1 0 0 -1 0 1709)">
   <path fill="currentColor"
d="M1466 420q59 -50 101 -78q141 -94 264 -141q56 -22 107 -35q15 -4 45 -10v-36q-38 -6 -61 -17q-17 -9 -26 -24q-9 -13 -17 -36q-77 33 -138 68q-155 85 -239 152q-49 38 -100 90q-27 -26 -51 -44q-97 -78 -239 -146q-96 -46 -232 -91q-17 -6 -90 -29l-10 36
q129 52 210 93q221 111 354 250q-58 66 -109 152q-64 106 -112 234q-19 51 -49 145h-39q-10 -1 -38 -6l-39 86q122 -19 187 -19h487l68 74l87 -65q26 -18 31 -22.5t8 -9.5q5 -9 5 -16q0 -15 -20 -30q-18 -13 -78 -36q-41 -104 -70 -168q-59 -127 -127 -229q-29 -43 -70 -92z
M1124 957q45 -114 78 -180q62 -126 127 -211q31 -40 72 -80q43 55 72 101q72 111 125 247q15 38 47 123h-521zM272 575v-224q0 -103 8 -199q3 -31 3 -48q0 -23 -11 -34q-13 -13 -40 -13q-24 0 -37 11q-15 12 -15 31v1588q0 12 -7 103q-2 32 -5 51q-3 20 -6 41l130 -84h419
l69 76l83 -54q27 -17 34 -29q6 -10 6 -20q0 -16 -12 -26q-12 -11 -30 -19q-16 -7 -36 -16v-308l32 -24q24 -18 24 -35q0 -12 -11 -19q-8 -5 -39 -5h-559v-305h358l81 81l114 -86q16 -12 16 -27q0 -8 -6 -15q-9 -10 -21 -10h-542v-324h378l80 80l114 -85q17 -13 17 -27
q0 -9 -6 -16q-8 -10 -21 -10h-562zM731 1740h-459v-362h459v362zM1100 1923l113 -86h312l68 76l84 -54q27 -18 34 -29q6 -10 6 -20q0 -15 -12 -26q-11 -11 -30 -19q-16 -8 -36 -16l-1 -421q0 -40 16 -55q8 -8 17 -11q22 -7 84 -7q23 0 51 4q21 4 34 8q5 2 29 11q14 6 20 6
q16 0 38 -15t29 -35q4 -9 4 -16q0 -17 -13 -28q-18 -15 -82 -22q-60 -7 -110 -7q-112 0 -158 23q-29 14 -44 46q-12 25 -12 83v466h-336l-1 -118q0 -92 -11 -180q-20 -156 -91 -259q-35 -49 -90 -98q-27 -24 -80 -66l-25 30q54 51 92 106q37 56 66 132q23 60 34 142
q11 87 11 185v118q0 53 -10 152z" />
  </g>

</svg>
