<?xml version="1.0" standalone="no"?>
<!DOCTYPE svg PUBLIC "-//W3C//DTD SVG 1.1//EN" "http://www.w3.org/Graphics/SVG/1.1/DTD/svg11.dtd" >
<svg xmlns="http://www.w3.org/2000/svg" xmlns:xlink="http://www.w3.org/1999/xlink" version="1.1" viewBox="0 -36 256 256">
  <g transform="matrix(1 0 0 -1 0 220)">
   <path fill="currentColor"
d="M60 219l15 -10h69q0 7 -4.5 16t-13.5 19l1 3q22 -10 28.5 -18.5t-2.5 -19.5h57l13 14l18 -21h-166q0 -45 -1 -78t-14 -61.5t-45 -53.5l-3 3q42 39 49 112q-28 -21 -37 -37l-15 17q19 7 52 28q0 63 -1 87zM44.5 170.5q4.5 -8.5 -3 -17t-10 6.5t-12.5 28l3 3
q18 -12 22.5 -20.5zM226.5 119.5q-1.5 -9.5 -7 -16t-14.5 -7.5q-1 8 -6.5 12t-13.5 6v4q17 -3 21 -3t5.5 2.5t3 10t3.5 45.5h-18q-6 -59 -45 -76l-2 4q30 21 33 72q-6 0 -15 -3l-6 10h53l7 8l13 -13l-7 -6q-3 -40 -4.5 -49.5zM228 84l17 -18h-53v-23q0 -13 1 -29l-16 -4
q1 16 1 31v25h-46q0 -39 -54 -60l-1 4q42 22 41 56h-21q-7 0 -16 -2l-9 9h47v23l21 -6l-7 -6v-11h45v27l22 -6l-8 -6v-15h24zM118 197l20 -5l-6 -7v-10h12l10 8l12 -15h-34v-17h8l10 9l12 -16h-30v-16l33 2v-5l-33 -5q0 -12 1 -19l-15 -4q1 17 1 21q-20 -4 -28 -9l-10 16
l38 3v16q-10 0 -19 -2l-8 9h27v17h-9q-10 0 -18 -2l-9 9h36q0 13 -1 22z" />
  </g>

</svg>
