<?xml version="1.0" standalone="no"?>
<!DOCTYPE svg PUBLIC "-//W3C//DTD SVG 1.1//EN" "http://www.w3.org/Graphics/SVG/1.1/DTD/svg11.dtd" >
<svg xmlns="http://www.w3.org/2000/svg" xmlns:xlink="http://www.w3.org/1999/xlink" version="1.1" viewBox="0 -205 1024 1024">
  <g transform="matrix(1 0 0 -1 0 819)">
   <path fill="currentColor"
d="M140 404h226v110l76 -30q8 -4 2 -10l-6 -6l-20 -10v-54h228v106l82 -34q9 -3 4 -12q0 -1 -6 -4l-28 -10v-46h110l36 44l58 -52q3 -3 4 -6q0 -12 -12 -12h-196v-138h162l40 46l58 -54q3 0 4 -6q6 -12 -6 -12h-780q-21 0 -68 -8l-16 34h274v138h-142q-21 0 -68 -8l-16 34v0
v0zM418 240h228v138h-228v-138v0v0zM298 75q-66 -28 -194 -66l-6 14q111 43 178 80q63 36 124 83q54 -51 52 -57q-3 -7 -14 -8q-12 1 -24 -2q-12 -1 -30 -8q-18 -6 -86 -36v0v0zM622 182q102 -24 166 -43q63 -18 96 -42q30 -24 30 -48q-1 -21 -20 -28q-17 -6 -40 18
q-22 22 -76 56q-53 33 -160 71l4 16v0v0zM502 978l54 -52q7 -9 -4 -12h-352v-62h230l32 34l50 -46q4 -9 -4 -12h-308v-62h234l32 36l48 -46q6 -9 -6 -12h-308v-62h304l32 38l50 -48q6 -9 0 -14h-286q-85 -67 -118 -94l248 22q-21 26 -54 46l6 14q36 -12 66 -30
q29 -16 50 -38q18 -19 16 -38q-3 -18 -20 -24t-28 12q-10 18 -22 40q-159 -22 -216 -32q-55 -9 -82 -30l-44 58q38 7 56 20q51 37 78 74h-136q-16 0 -40 -8l-18 32h108v290l46 -32h274l32 38v0v0zM564 826q75 29 150 70q76 39 140 84l50 -48q8 -10 2 -14t-20 -2
q-13 3 -56 -14q-41 -16 -112 -46q-71 -28 -148 -46l-6 16v0v0zM610 700q105 42 168 78q60 35 108 70l50 -42q10 -9 8 -12q-3 -4 -18 -4q-12 0 -36 -6q-22 -7 -94 -40t-176 -60l-10 16v0v0zM556 558q110 36 206 78q93 42 154 90l56 -44q8 -10 2 -14t-20 -2q-13 3 -52 -14
q-36 -16 -132 -52q-95 -33 -208 -60l-6 18v0v0z" />
  </g>

</svg>
