<?xml version="1.0" standalone="no"?>
<!DOCTYPE svg PUBLIC "-//W3C//DTD SVG 1.1//EN" "http://www.w3.org/Graphics/SVG/1.1/DTD/svg11.dtd" >
<svg xmlns="http://www.w3.org/2000/svg" xmlns:xlink="http://www.w3.org/1999/xlink" version="1.1" viewBox="0 -36 256 256">
  <g transform="matrix(1 0 0 -1 0 220)">
   <path fill="currentColor"
d="M128 206h-40q0 -7 1 -17l-16 -9q1 16 1 26h-27q-12 0 -22 -2l-10 9h59q0 21 -1 34l22 -10l-7 -7v-17h12l12 13zM160 208q-11 0 -21 -2l-10 9h36q0 21 -1 32l23 -9l-8 -7v-16h32l13 13l16 -20h-61q0 -5 1 -21l-16 -5q1 22 1 26h-5zM56 175q-5 -31 -10 -38.5t-12.5 -9.5
t-13.5 3.5t7 13t24 32.5zM78 140q0 29 -1 41l23 -8l-7 -5v-20q0 -13 14 -13h56q10 0 10 9v22h5q1 -11 3 -19t13 -9q-8 -18 -32 -16h-63q-21 0 -21 18zM109 195q25 -7 33.5 -14t1 -17.5t-11.5 -1t-10 16t-15 12.5zM189 182q15 -5 26 -10.5t13 -12.5t-4.5 -15t-11.5 4.5
t-25 29.5zM115 108l-9 -12h62q7 10 7 20l21 -13l-9 -7h27l15 14l18 -21h-64q-13 -23 -27 -37q30 -7 52 -13t24.5 -20t-9.5 -7.5t-28 13.5t-51 16q-15 -12 -47 -22t-88 -11l-1 5q42 4 72 13t46 20q-19 4 -62 12q11 14 21 31h-43q-10 0 -20 -2l-10 9h77q9 14 14 29l20 -13z
M83 64q28 -4 55 -9q12 13 26 34h-62z" />
  </g>

</svg>
