<?xml version="1.0" standalone="no"?>
<!DOCTYPE svg PUBLIC "-//W3C//DTD SVG 1.1//EN" "http://www.w3.org/Graphics/SVG/1.1/DTD/svg11.dtd" >
<svg xmlns="http://www.w3.org/2000/svg" xmlns:xlink="http://www.w3.org/1999/xlink" version="1.1" viewBox="0 -205 1024 1024">
  <g transform="matrix(1 0 0 -1 0 819)">
   <path fill="currentColor"
d="M388 790l36 10q32 32 92 152l50 -26q9 -9 -2 -14q-23 -4 -52 -46q-29 -41 -58 -76h82q18 21 48 84l54 -40q3 -11 -8 -16q-21 1 -54 -40q-31 -39 -110 -126l116 22l-22 48l12 8q24 -21 42 -38q15 -14 24 -40q7 -24 -6 -38q-12 -13 -26 -10q-13 3 -16 16q-3 11 0 32
q-59 -12 -94 -24q-36 -12 -66 -30l-28 52l36 8q50 57 86 114q-48 -6 -66 -12q-17 -6 -40 -18l-30 48v0v0zM634 792l32 10q32 34 86 152l56 -30q9 -9 -2 -14q-21 -1 -54 -44q-33 -42 -56 -74h78q24 29 48 80l54 -36q3 -11 -8 -16q-22 -3 -52 -42q-30 -37 -104 -124l112 22
q-12 24 -26 48l12 8q30 -24 48 -42q15 -15 22 -36q6 -22 -6 -34q-12 -13 -26 -10q-12 0 -14 12q-1 11 -4 34q-57 -16 -92 -28q-33 -12 -56 -30l-30 54l32 8q41 56 80 112q-43 -3 -62 -8q-17 -6 -40 -18l-28 46v0v0zM396 350l32 8q34 38 86 154l54 -26q9 -9 -2 -14
q-19 -5 -50 -46q-30 -41 -60 -76l84 2q16 21 44 84l54 -34q3 -12 -8 -14q-21 -6 -50 -48q-30 -42 -110 -126l118 20q-13 26 -28 46l12 10q27 -21 46 -38q15 -16 24 -38q9 -20 -2 -34q-9 -14 -24 -12q-13 0 -16 12q-2 11 -4 32q-60 -12 -96 -24t-62 -30l-32 54l36 6
q47 58 86 116q-45 -7 -66 -14q-19 -7 -40 -22l-26 52v0v0zM638 352l32 10q34 35 86 152l50 -26q9 -9 -2 -14q-21 -6 -50 -48q-30 -39 -54 -74l82 2q18 22 46 80l52 -36q3 -11 -8 -16q-19 -3 -50 -44q-31 -40 -110 -124l118 20q-12 26 -26 50l10 8q33 -24 48 -42
q14 -15 22 -36q7 -20 -6 -34q-12 -14 -26 -12q-12 1 -14 14q-3 11 -2 32q-64 -15 -94 -24q-30 -10 -60 -28l-28 50l28 8q48 57 90 114q-47 -6 -64 -12t-40 -18l-30 48v0v0zM976 926q6 -6 6 -8q0 -7 -32 -26v-753l4 -78q0 -13 -18 -24q-15 -10 -36 -14v62h-454q-25 0 -50 -10
l-30 36h534v419h-452q-22 0 -46 -12l-26 38h524v404l76 -34v0v0zM90 946l52 -42h156l22 34l54 -38q8 -4 2 -14l-26 -18v-150l4 -64q1 -19 -16 -28q-15 -10 -32 -8v32h-52v-198h36l32 44l52 -56q9 -9 -2 -14h-118v-228l116 32l8 -18q-223 -79 -254 -93q-30 -14 -54 -44
l-50 54l68 21v396l70 -32q10 -6 2 -14l-26 -14v-324l74 22v466h-70v-12q-1 -15 -16 -24q-12 -8 -36 -10l4 88v254v0v0zM138 676h168v202h-168v-202v0v0z" />
  </g>

</svg>
