<?xml version="1.0" standalone="no"?>
<!DOCTYPE svg PUBLIC "-//W3C//DTD SVG 1.1//EN" "http://www.w3.org/Graphics/SVG/1.1/DTD/svg11.dtd" >
<svg xmlns="http://www.w3.org/2000/svg" xmlns:xlink="http://www.w3.org/1999/xlink" version="1.1" viewBox="0 -36 256 256">
  <g transform="matrix(1 0 0 -1 0 220)">
   <path fill="currentColor"
d="M70.5 34.5q7.5 -0.5 7.5 12.5v59h-37q-1 -27 -7 -51t-21 -47l-3 1q11 26 15 55.5t4 93.5t-2 77l14 -8h35l7 10l14 -11l-6 -6v-174q0 -16 -6 -22.5t-16 -11.5q0 14 -26 22v4q20 -3 27.5 -3.5zM41 170h37v50h-37v-50zM41 113h37v49h-37v-49zM109 58l42 8q-6 12 -14 24l2 3
q27 -21 29.5 -29.5t-2 -15.5t-6.5 -2.5t-7 15.5q-14 -3 -29.5 -9.5t-18.5 -12.5l-12 17q5 -1 15.5 17.5t18.5 52.5h-2q-13 1 -24 -2l-9 9h35v52v-1q-8 0 -19 -3l-9 10h28q0 36 -1 52l20 -11l-7 -6v-35h12l9 11l12 -18h-33v-51h18l9 11l14 -18h-48l14 -10l-8 -1
q-12 -29 -29 -57zM189 244l21 -9l-8 -7v-50h25l5 12l15 -13l-8 -7q-2 -100 -5.5 -125t-20.5 -31q-1 12 -24 19l1 5q17 -3 24 -2t8.5 27.5t3.5 107.5h-24q0 -37 -6 -71.5t-18 -54t-32 -37.5l-2 4q15 17 26 40t15 55t5 65v-1q-9 0 -20 -3l-9 9h29q0 43 -1 67z" />
  </g>

</svg>
