<?xml version="1.0" standalone="no"?>
<!DOCTYPE svg PUBLIC "-//W3C//DTD SVG 1.1//EN" "http://www.w3.org/Graphics/SVG/1.1/DTD/svg11.dtd" >
<svg xmlns="http://www.w3.org/2000/svg" xmlns:xlink="http://www.w3.org/1999/xlink" version="1.1" viewBox="0 -205 1024 1024">
  <g transform="matrix(1 0 0 -1 0 819)">
   <path fill="currentColor"
d="M416 798h90v140l78 -34q3 -4 4 -8q0 -6 -32 -18v-80h90v186l76 -34q6 -4 6 -8q-1 -3 -34 -18v-126h106v180l76 -34q3 -2 4 -10q0 -4 -32 -16v-120h52l36 42l54 -50q3 -3 4 -8q0 -12 -12 -12h-134v-96l4 -68q-2 -15 -22 -24q-21 -10 -30 -10v46h-106v-16q-1 -15 -20 -24
q-19 -7 -34 -8l6 96v104h-90v-262h298l38 42q50 -45 58 -56q1 -10 -6 -10h-204v-110h160l40 44l48 -46q11 -9 14 -18q1 -9 -10 -8h-220q36 -70 64 -106q27 -33 70 -66q42 -32 108 -43v-20q-49 1 -64 -10q-16 -11 -26 -22q-31 25 -58 58q-27 32 -60 85q-32 51 -58 124h-8
v-200l4 -87q2 -17 -22 -32q-24 -13 -38 -12l6 129v202q-57 -108 -128 -180q-72 -68 -164 -127l-8 14q77 63 142 137q63 75 100 156h-136q-19 0 -44 -12l-24 40h262v110h-124l-38 -32l-50 54l28 18v246h-38q-7 0 -32 -8l-20 36v0v0zM800 642v128h-106v-128h106v0v0zM310 956
q6 -3 6 -6q2 -9 -10 -12q-13 0 -22 -12q-9 -8 -42 -100h84l26 36l52 -38q6 -3 6 -12q0 -4 -24 -26v-649q0 -33 -14 -54q-12 -21 -60 -36q-9 33 -30 44q-22 10 -76 26l2 16q78 -13 90 -14q9 0 24 2q15 1 16 16v375h-168q0 -213 -32 -320q-31 -106 -104 -181l-12 8
q48 79 76 173q27 95 22 320h-32q-25 0 -52 -6l-20 32h104v330l48 -42h48q21 108 24 154l70 -24v0v0zM170 538h168v262h-168v-262v0v0zM222 752q45 -42 60 -72q12 -30 12 -54t-12 -32q-12 -10 -24 -2q-14 6 -12 30q1 23 -4 46q-6 21 -30 78l10 6v0v0zM218 460q45 -42 60 -72
q12 -30 12 -54t-12 -32q-12 -10 -24 -2q-14 6 -12 30q1 23 -4 46q-6 21 -30 78l10 6v0v0z" />
  </g>

</svg>
