<?xml version="1.0" standalone="no"?>
<!DOCTYPE svg PUBLIC "-//W3C//DTD SVG 1.1//EN" "http://www.w3.org/Graphics/SVG/1.1/DTD/svg11.dtd" >
<svg xmlns="http://www.w3.org/2000/svg" xmlns:xlink="http://www.w3.org/1999/xlink" version="1.1" viewBox="0 -36 256 256">
  <g transform="matrix(1 0 0 -1 0 220)">
   <path fill="currentColor"
d="M156 104q12 -26 25 -41q17 20 29 46h-50zM169 247l23 -9l-8 -7v-18h32l12 13l15 -20h-59v-26h22l13 13l14 -20h-49v-27h36l13 11l15 -18h-73q-5 -8 -12 -23h49l8 8l14 -15l-8 -3q-19 -33 -37 -54q27 -23 59 -25v-4q-9 -2 -14 -14q-24 7 -53 34q-34 -28 -83 -35l-1 4
q53 17 76 41q-15 24 -20 44q-17 -25 -35 -35l-2 3q10 9 23.5 31.5t18.5 42.5h-17q-10 -1 -20 -3l-9 10h58v27h-15q-10 0 -19 -2l-10 9h44v26h-23q-10 0 -19 -2l-10 9h52q0 15 -1 34zM58 217q0 14 -1 30l22 -8l-8 -9v-25h21l12 11l15 -18h-48v-21h22l8 12l14 -13l-8 -6v-30
q0 -19 1 -37l-14 -6v6h-23v-27h22l12 11l14 -18h-48v-15q0 -17 1 -40l-15 -7q1 24 1 43v19h-21q-10 0 -19 -2l-9 9h49v27h-23v-4l-14 -7q1 16 1 31v32q0 15 -1 32l16 -10h21v21h-19q-10 0 -19 -2l-9 9h47v12zM35 170v-26h23v26h-23zM71 170v-26h23v26h-23zM71 137v-27h23v27
h-23zM35 137v-27h23v27h-23z" />
  </g>

</svg>
