<?xml version="1.0" standalone="no"?>
<!DOCTYPE svg PUBLIC "-//W3C//DTD SVG 1.1//EN" "http://www.w3.org/Graphics/SVG/1.1/DTD/svg11.dtd" >
<svg xmlns="http://www.w3.org/2000/svg" xmlns:xlink="http://www.w3.org/1999/xlink" version="1.1" viewBox="0 -36 256 256">
  <g transform="matrix(1 0 0 -1 0 220)">
   <path fill="currentColor"
d="M146 202l2 3q18 -13 24.5 -20.5t4 -15t-5.5 -9t-5 5.5t-5 12q-60 -6 -70 -14l-8 19q11 3 23.5 23t15.5 34l19 -12q-8 -3 -18.5 -16.5t-24.5 -28.5l60 1q-6 10 -12 18zM102 94h22v39h-22v-39zM135 94h23v39h-23v-39zM153 71l2 3q9 -7 15 -14t9.5 -13.5t0.5 -13t-6 -7
t-4 6.5t-4 13q-35 -6 -50 -9.5t-18 -5l-9 -4.5l-8 16q23 2 43 4v40h-22v-5l-12 -4q1 13 1 32.5t-1 35.5l12 -6h22q0 17 -1 31l19 -8l-7 -6v-17h22l7 8l12 -12l-7 -6q0 -27 1 -45l-12 -6v8h-23v-39l29 3q-4 11 -11 20zM58 204q14 20 23 40l14 -15l-6 -2q-17 -21 -25 -33
q14 -36 13.5 -92t-8 -73t-23.5 -22q-3 14 -28 24v3q21 -4 32 -1.5t13.5 26t1.5 77.5q-21 -45 -58 -68l-1 3q22 23 32.5 39.5t22.5 45.5q-3 18 -6 29q-18 -21 -44 -36l-2 3q23 18 41 42q-11 19 -34 39l2 3q26 -13 40 -32zM242 233l-9 -8v-182q2 -23 -21 -31q-2 14 -29 21v4
q18 -2 28 -2t9 12v159q0 19 -1 37zM185 140q0 41 -1 66l21 -11l-8 -8v-85q0 -16 1 -29l-14 -5q1 31 1 72z" />
  </g>

</svg>
