<?xml version="1.0" standalone="no"?>
<!DOCTYPE svg PUBLIC "-//W3C//DTD SVG 1.1//EN" "http://www.w3.org/Graphics/SVG/1.1/DTD/svg11.dtd" >
<svg xmlns="http://www.w3.org/2000/svg" xmlns:xlink="http://www.w3.org/1999/xlink" version="1.1" viewBox="0 -205 1024 1024">
  <g transform="matrix(1 0 0 -1 0 819)">
   <path fill="currentColor"
d="M460 970l50 -24h328l24 28l54 -38q6 -3 6 -6q0 -6 -24 -24v-84l4 -38q-1 -12 -16 -24q-15 -8 -36 -10v22h-342v-20q0 3 -14 -6q-15 -9 -38 -8l4 58v174v0v0zM508 796h150v50h-150v-50v0v0zM704 796h146v50h-146v-50v0v0zM508 868h150v54h-150v-54v0v0zM704 922v-54h146
v54h-146v0v0zM380 740l48 -26h160l24 30l56 -32q6 -6 6 -8q0 -7 -24 -26v-100l4 -50q0 -10 -14 -22q-12 -10 -38 -14v16h-176v-6q1 -13 -16 -22q-16 -10 -34 -10l4 98v172v0v0zM426 532h66v76h-66v-76v0v0zM536 532h66v76h-66v-76v0v0zM426 632h66v60h-66v-60v0v0zM536 692
v-60h66v60h-66v0v0zM700 744l48 -26h164l22 30l54 -38q6 -6 6 -8q0 -7 -24 -22v-106l4 -46q0 -10 -14 -22q-12 -9 -38 -18v24h-176v-6q1 -8 -16 -16q-16 -9 -34 -8l4 86v176v0v0zM746 536h70v72h-70v-72v0v0zM860 536h62v72h-62v-72v0v0zM746 632h70v64h-70v-64v0v0z
M860 696v-64h62v64h-62v0v0zM658 446q-9 0 -24 -2q-16 -3 -46 -14q-31 -9 -118 -42l180 2q57 29 148 92q60 -37 60 -44q1 -6 -4 -8q-6 0 -20 -2q-13 -1 -34 -10q-21 -7 -98 -46q-76 -37 -208 -88l378 2q-34 32 -76 62l8 12q66 -26 106 -52q39 -27 48 -50q7 -24 -4 -36
q-10 -12 -26 -12q-15 3 -20 18q-6 17 -20 38l-198 -10v-153q4 -39 -12 -60q-18 -24 -48 -30q-11 30 -40 44q-27 12 -72 24l4 18q69 -15 96 -18q26 -1 26 22v151q-107 0 -160 -6q-51 -3 -84 -20l-18 62q26 0 52 4q57 14 192 80q-52 -5 -106 -10q-54 -3 -84 -18l-24 54
q26 2 46 10q51 18 150 76l62 -26q6 -4 0 -8q-3 -3 -12 -6v0v0zM288 47q104 68 212 171l54 -34q9 -7 -2 -16q-16 0 -28 -2q-12 -4 -74 -45q-61 -41 -154 -86l-8 12v0v0zM780 200l8 14q62 -24 110 -48t70 -47q20 -24 14 -48q-6 -21 -24 -24q-19 -1 -34 28q-15 28 -48 56
q-33 26 -96 69v0v0zM36 744h158v238l84 -34q11 -5 2 -16l-38 -18v-170h36l32 40l44 -48q2 -3 2 -8q3 -12 -8 -12h-106v-118q44 -21 70 -42q26 -19 32 -40q7 -21 -4 -36q-9 -15 -24 -12q-15 2 -20 26q-6 24 -18 46t-36 38v-422l4 -89q0 -14 -20 -28q-18 -14 -36 -14l4 131
v404q-37 -101 -70 -166q-33 -63 -78 -128l-14 8q34 69 56 120q21 50 48 124q27 75 60 198h-88q-21 0 -50 -8l-22 36v0v0z" />
  </g>

</svg>
