<?xml version="1.0" standalone="no"?>
<!DOCTYPE svg PUBLIC "-//W3C//DTD SVG 1.1//EN" "http://www.w3.org/Graphics/SVG/1.1/DTD/svg11.dtd" >
<svg xmlns="http://www.w3.org/2000/svg" xmlns:xlink="http://www.w3.org/1999/xlink" version="1.1" viewBox="0 -205 1048 1024">
  <g transform="matrix(1 0 0 -1 0 819)">
   <path fill="currentColor"
d="M76 492q85 88 157 204q68 111 127 252l53 -27q26 -12 20 -20q-5 -7 -39 -9l-30 -55l-41 -69q-28 -44 -29 -47q30 -11 31 -20t-25 -17v-538l1 -29q2 -18 -1 -24q-4 -8 -24 -20q-20 -7 -24 1q-4 5 -2 30l2 32v528q-49 -60 -85 -100q-37 -40 -81 -81zM630 595q-1 20 -1 32
q-1 22 -4 34l66 -19q34 -8 26 -16q-6 -6 -37 -11v-439q0 -40 -23 -60q-18 -16 -68 -33q-4 27 -26 41q-23 15 -87 30v16l45 -3q35 -3 48 -3q21 -1 39 1q12 0 17 5q5 4 5 15v410zM681 907q20 -6 17 -12q-3 -4 -24 -9q5 -66 94 -152q87 -82 194 -129l-1 -15q-28 5 -51 0
q-25 -6 -36 -21q-67 53 -121 121q-66 81 -94 162q-34 -84 -108 -161q-86 -91 -198 -142l-10 10q116 72 187 172q64 89 88 196zM710 485q63 -62 102 -132q37 -65 37 -104q0 -31 -18 -41q-16 -8 -22 24q-11 52 -32 107q-28 82 -72 138zM816 497q78 -64 116 -126q33 -53 35 -96
q1 -30 -16 -39q-17 -10 -23 20l-3 7q-12 54 -29 94q-30 69 -87 133zM553 498q0 -90 -30 -159q-25 -56 -64 -87q-14 -10 -26 -11q-11 -1 -17 5q-6 7 -3 20q4 12 18 24q30 27 62 83q35 63 50 125h10z" />
  </g>

</svg>
