<?xml version="1.0" standalone="no"?>
<!DOCTYPE svg PUBLIC "-//W3C//DTD SVG 1.1//EN" "http://www.w3.org/Graphics/SVG/1.1/DTD/svg11.dtd" >
<svg xmlns="http://www.w3.org/2000/svg" xmlns:xlink="http://www.w3.org/1999/xlink" version="1.1" viewBox="0 -150 1000 1000">
  <g transform="matrix(1 0 0 -1 0 850)">
   <path fill="currentColor"
d="M590 959l99 -35q7 -2 8 -4.5t-3 -6.5q-15 -5 -33 -20q0 -141 -9 -254h193l34 42l62 -49q7 -8 6.5 -11.5t-9.5 -1.5h-260q15 -92 44 -181.5t64 -153t69 -102.5q31 -36 62 -56q37 -23 69 -36l-2 -13q-33 4 -50.5 1t-34.5 -19q-63 49 -116 144q-54 91 -82 188
q-27 85 -41 228h-9q-3 -52 -8 -96q-19 -155 -91 -283q-74 -128 -230 -207l-4 13q161 110 230 281q41 104 55 292h-116q-27 0 -44 -14l-35 34h196q8 115 5 269q-2 16 -28 36zM135 961l4 13q84 -24 108 -42q22 -16 36 -36q12 -21 7 -39q-6 -21 -20 -24q-16 -5 -22 18.5
t-26 51.5q-25 30 -87 58zM25 346l-9 10q119 98 174 163l15 17v41q-5 28 -19 40l14 11l41 -45q20 24 32 46q31 47 60 108h-247q-26 1 -35 -13l-30 33h304l27 36l60 -49q6 -5 6 -8.5t-6 -4.5q-21 -5 -29.5 -10.5t-30.5 -42.5q-32 -53 -53.5 -83.5t-48.5 -62.5v-78q10 -5 21 -8
l42 50q39 53 39 67.5t-8 29.5l8 7l73 -54q9 -9 -1 -12q-18 0 -40 -8q-38 -41 -94 -87q38 -18 58 -33q30 -26 45 -50q13 -25 8 -41q-5 -20 -20 -23q-18 -4 -25.5 19.5t-32.5 62.5q-20 30 -73 61v-269l4 -96q0 -20 -16 -30q-14 -9 -40 -14q4 37 7 186v272q-43 -46 -180 -138z
" />
  </g>

</svg>
