<?xml version="1.0" standalone="no"?>
<!DOCTYPE svg PUBLIC "-//W3C//DTD SVG 1.1//EN" "http://www.w3.org/Graphics/SVG/1.1/DTD/svg11.dtd" >
<svg xmlns="http://www.w3.org/2000/svg" xmlns:xlink="http://www.w3.org/1999/xlink" version="1.1" viewBox="0 -36 256 256">
  <g transform="matrix(1 0 0 -1 0 220)">
   <path fill="currentColor"
d="M233.5 168q2.5 2 7 -0.5t5.5 -8.5t-14 -5h-21q-14 0 -14 15v58h-34q0 -37 -8 -55.5t-26 -33.5l-2 3q20 29 21.5 56t0.5 44l14 -8h33l6 9l15 -11l-7 -6v-48q0 -11 7 -11h9q5 0 7.5 2zM209 134l7 10l16 -13q-6 -5 -15 -23.5t-28 -48.5q13 -15 28 -22.5t27 -9.5v-3
q-13 -3 -19 -13q-15 8 -25.5 17.5t-19.5 20.5q-15 -16 -31 -25.5t-37 -15.5l-1 4q22 10 36 21t26 27q-17 32 -25 68l-2 -5l-12 11h75zM180 72q14 19 30 56h-56q12 -37 26 -56zM74 110h22l9 9l15 -15h-46q-1 -8 -3 -22h42l9 9l15 -15h-67l-1 -5q38 -25 42 -35.5t-1.5 -17
t-12 8.5t-30.5 38q-15 -38 -57 -57l-1 3q36 25 48 65h-22q-11 0 -18 -2l-9 8h50q2 12 3 22h-21l-9 -2l-9 8h39v26h-21q-11 0 -18 -2l-9 8h63q11 23 13 37h-52q-11 0 -18 -2l-9 8h36q0 48 -1 61l21 -7l-7 -9v-45h22q0 44 -1 61l21 -7l-7 -8v-46h18l9 9l15 -15h-45l15 -11
l-7 -4q-8 -11 -18 -22h24l9 9l15 -15h-55v-26zM39 176q15 -9 18.5 -13.5t1.5 -11t-5.5 -8.5t-5.5 8t-11 23zM33.5 220q6.5 -7 4.5 -14.5t-6 -10.5t-6.5 8.5t-12.5 27.5l2 2q12 -6 18.5 -13zM130 226l-7 -5q-10 -15 -22 -29l-2 2l8 20t7 22z" />
  </g>

</svg>
