<?xml version="1.0" standalone="no"?>
<!DOCTYPE svg PUBLIC "-//W3C//DTD SVG 1.1//EN" "http://www.w3.org/Graphics/SVG/1.1/DTD/svg11.dtd" >
<svg xmlns="http://www.w3.org/2000/svg" xmlns:xlink="http://www.w3.org/1999/xlink" version="1.1" viewBox="0 -36 256 256">
  <g transform="matrix(1 0 0 -1 0 220)">
   <path fill="currentColor"
d="M41 158v37q0 12 -1 29l21 -9l-7 -7v-48l25 5v50q0 9 -2 29l22 -6l-7 -7v-28h16l10 11l18 -18h-44v-28l42 8l1 -4q-79 -22 -90.5 -27t-16.5 -8l-9 16q2 0 22 5zM142 244l23 -7l-8 -8v-26q40 10 62 24l11 -17q-38 -6 -73 -12v-26q0 -11 11 -11h37q11 0 12.5 10.5t2.5 28.5
h4q1 -18 3 -25.5t9 -12.5q-6 -8 -12 -10t-12 -2h-52q-17 0 -17 19q0 62 -1 75zM169 133q-14 -1 -44 -6v-25l57 5l10 11l21 -15l-88 -7v-23l86 7l13 13l23 -17l-122 -11v-29q0 -10 16 -10h59q13 0 15.5 7t3.5 27h5q0 -12 1.5 -21.5t12.5 -11.5q-7 -12 -31 -12h-73
q-24 0 -23 17v32l-77 -6l-13 -3l-10 8l100 9v23l-64 -4l-9 -3l-11 8l84 5v24q-28 -1 -64 -3v5q30 2 69.5 8.5t55.5 14.5l20 -16q-9 0 -23 -1z" />
  </g>

</svg>
