<?xml version="1.0" standalone="no"?>
<!DOCTYPE svg PUBLIC "-//W3C//DTD SVG 1.1//EN" "http://www.w3.org/Graphics/SVG/1.1/DTD/svg11.dtd" >
<svg xmlns="http://www.w3.org/2000/svg" xmlns:xlink="http://www.w3.org/1999/xlink" version="1.1" viewBox="0 -205 1024 1024">
  <g transform="matrix(1 0 0 -1 0 819)">
   <path fill="currentColor"
d="M388 954l58 -42q9 -3 10 -12q1 -6 -34 -30v-220l4 -100q1 -16 -16 -28q-15 -13 -38 -16v38h-204v-322l196 96q-44 63 -100 114l12 12q97 -66 128 -102q29 -36 40 -62q9 -24 4 -48q-7 -21 -28 -24q-22 -1 -28 26t-18 66q-136 -75 -170 -98q-32 -25 -70 -65l-54 53
q27 9 40 36v730l58 -44h178l32 42v0v0zM168 708v-138h204v138h-204v0v0zM168 884v-150h204v150h-204v0v0zM504 914h342l44 48l56 -58q3 -3 4 -8q0 -9 -14 -8h-186q-10 -176 -28 -304h132l40 52l70 -64l2 -6q-1 -9 -4 -8h-244q-15 -93 -44 -174q-27 -81 -102 -168
q-73 -86 -224 -179l-8 16q126 95 192 181q65 84 94 162q27 75 40 162h-108l-32 -30l-58 46l34 22l44 238q73 -39 74 -42q-1 -4 -4 -8q-4 -3 -32 -14l-36 -186h124q17 137 28 304h-112q-18 0 -66 -8l-18 34v0v0zM716 508l78 -26q6 -3 6 -6q0 -4 -6 -10l-26 -14v-286
q0 -35 12 -37q14 -2 26 -2h62q41 8 44 31q3 21 4 48q-1 24 2 114h18q6 -93 12 -122q6 -28 36 -46q-12 -31 -32 -49q-19 -15 -68 -22h-88q-29 0 -46 6q-16 6 -26 24q-7 16 -8 51v346v0v0z" />
  </g>

</svg>
