<?xml version="1.0" standalone="no"?>
<!DOCTYPE svg PUBLIC "-//W3C//DTD SVG 1.1//EN" "http://www.w3.org/Graphics/SVG/1.1/DTD/svg11.dtd" >
<svg xmlns="http://www.w3.org/2000/svg" xmlns:xlink="http://www.w3.org/1999/xlink" version="1.1" viewBox="0 -144 1024 1024">
  <g transform="matrix(1 0 0 -1 0 880)">
   <path fill="currentColor"
d="M40 952l64 -32h245l32 27l59 -49l-27 -21v-172l-64 -33v43h-245v-650l-64 -32v919zM853 715h-244v-16l-65 -32v285l65 -32h244l32 27l60 -49l-27 -21v-753l-1 -13l-2 -14l-5 -13l-6 -12l-9 -11l-11 -9l-12 -7l-13 -4l-14 -2l-13 -1v32l-108 16v16h108l6 1l5 1l5 2l2 2
l1 1l1 4l1 5v6v591zM191 105l-1 2v1l-1 1l-2 4l-1 4l-3 5l-1 1l169 65l60 20l31 10l32 8l4 -10l-55 -34l-188 -103l-5 -3l-4 -21l-16 10l-2 5l-1 2l-4 7l-7 14v1l-5 10v1zM665 65l-84 70l-86 69l4 8l43 -14l41 -17l61 -30l59 -34l12 -22l-5 -23l-22 -13zM182 123l28 -58
l-37 54zM673 368l38 -52l2 -19l-22 8l-57 -27l-47 -22l-92 -39l-5 8l139 104l37 31l3 3l-1 1zM371 244l-39 30l-127 85l4 9l56 -18l70 -26l68 -29l13 -6l14 -20l-5 -25l-21 -13l-24 4zM259 662l65 -33h299l32 27l60 -48l-27 -22v-184l-65 -32v32h-299l-65 -32v292zM623 508
h-299v-85h299v85zM623 608h-299v-79h299v79zM853 807h-244v-70h244v70zM349 807h-245v-70h245v70zM853 898h-244v-70h244v70zM349 898h-245v-70h245v70z" />
  </g>

</svg>
