<?xml version="1.0" standalone="no"?>
<!DOCTYPE svg PUBLIC "-//W3C//DTD SVG 1.1//EN" "http://www.w3.org/Graphics/SVG/1.1/DTD/svg11.dtd" >
<svg xmlns="http://www.w3.org/2000/svg" xmlns:xlink="http://www.w3.org/1999/xlink" version="1.1" viewBox="0 -36 256 256">
  <g transform="matrix(1 0 0 -1 0 220)">
   <path fill="currentColor"
d="M42 242l16 -6h56l11 9l15 -16h-83v-12h52l9 9l14 -16h-75v-10h51l9 9l14 -16h-74v-9h66l10 9l17 -16h-79l10 -7q-8 0 -17 -6t-21 -11l71 2q-8 6 -18 14l2 2q27 -7 33 -14t0.5 -12.5t-8.5 -1t-6 8.5q-20 -4 -48.5 -7.5t-36.5 -6.5l-10 16q13 2 20.5 7.5t17.5 15.5h-20
q-11 -1 -21 -3l-10 10h34q0 39 -1 58zM229 232q-8 1 -33 -10t-57 -21l-2 6q27 8 49.5 21t26.5 19zM239 198q-3 4 -32 -7t-59 -16v4q29 9 50 19t28 16zM247 167q-10 1 -37.5 -9t-70.5 -17l-1 4q41 10 65.5 20.5t28.5 17.5zM136 84h52v13h-52v-13zM136 104h52v14h-52v-14z
M121 142l22 -7l-7 -5v-5h51l7 9l15 -11l-7 -6v-13h17l9 9l16 -16h-42q0 -12 1 -20l-15 -5v5h-52v-16h56l9 9l16 -16h-81v-14h79l11 11l17 -18h-107q0 -11 1 -22l-16 -4q1 18 1 25h-78q-11 0 -21 -2l-9 9h108v15h-45q-10 0 -20 -2l-10 9h75v16h-40q-11 0 -21 -2l-10 9h71v13
h-69q-11 -1 -21 -3l-10 10h100v14h-38q-11 -1 -21 -3l-9 10h68q0 10 -1 17z" />
  </g>

</svg>
