<?xml version="1.0" standalone="no"?>
<!DOCTYPE svg PUBLIC "-//W3C//DTD SVG 1.1//EN" "http://www.w3.org/Graphics/SVG/1.1/DTD/svg11.dtd" >
<svg xmlns="http://www.w3.org/2000/svg" xmlns:xlink="http://www.w3.org/1999/xlink" version="1.1" viewBox="0 -52 256 256">
  <g transform="matrix(1 0 0 -1 0 204)">
   <path fill="currentColor"
d="M61 151l20 -8q2 -1 3 -2l-1 -1l-2 -1q-1 0 -5 -3q0 -27 -3 -48q17 -9 29 -19q14 -11 18 -23q4 -8 -1 -13q-6 -3 -9 7q-5 9 -14 21q-9 11 -24 23q-3 -12 -7 -22q-11 -24 -59 -51l-1 4q47 30 54 61q8 31 6 64q-1 5 -6 8zM65 251l19 -7q2 -1 3 -2l-1 -1q-3 -1 -6 -4
q1 -24 -5 -46q21 -7 31 -15q12 -8 17 -17q6 -8 1 -14q-6 -4 -10 5t-13 18q-7 8 -27 19q-1 -4 -3 -9q-9 -27 -60 -50v4q45 27 52 54q8 27 6 54q-1 5 -6 8zM40 227q3 -9 2 -19q0 -11 -4 -17q-9 -14 -16 -6q-3 5 2 8q6 5 8 11q4 6 4 23h4zM112 125l14 -11q3 -3 0 -4
q-6 0 -11 -5q-2 -3 -16 -14q-6 -5 -9 -8l-3 2q33 37 23 39zM37 122q1 -7 1 -18t-3 -17q-9 -14 -16 -7q-3 3 2 8l3 3q2 3 5 8q3 6 4 23h4zM116 229l13 -12q3 -3 0 -4q-6 2 -12 -3q-1 -1 -3 -2q-3 -3 -27 -20l-2 3q36 33 29 36zM170 254l18 -9q5 -2 2 -3q-5 0 -8 -2
q-3 -5 -10 -15l-6 -9h42l8 9l12 -9q3 -3 0 -5l-5 -4v-32q4 -40 -30 -48q-1 9 -19 14q-4 1 -7 2l1 4q3 0 8 -1t11 -1q2 -1 6 0h5q14 0 14 34v32h-62v-95h72l9 9l13 -12q2 -2 1 -3q0 -1 -2 -1l-6 -3v-44q1 -21 -5 -30q-4 -9 -12 -14q-13 -7 -27 -8q2 10 -21 17q-5 1 -8 2l2 4
q16 -4 33 -6q11 1 15 3t8 8q3 4 5 26v47h-72l-9 -9l-14 12q5 0 7 6v90q-1 9 -5 12l4 3l9 -9h12l5 7q7 20 7 23q0 1 -1 2q-1 3 -2 5zM117 75h74l7 10l17 -12q2 -1 2 -2q-1 -1 -3 -1h-78q-5 1 -11 -3zM162 188l1 4q24 -7 28 -16q4 -12 -3 -13q-3 0 -7 7q-2 5 -4 7q-4 6 -15 11
z" />
  </g>

</svg>
