<?xml version="1.0" standalone="no"?>
<!DOCTYPE svg PUBLIC "-//W3C//DTD SVG 1.1//EN" "http://www.w3.org/Graphics/SVG/1.1/DTD/svg11.dtd" >
<svg xmlns="http://www.w3.org/2000/svg" xmlns:xlink="http://www.w3.org/1999/xlink" version="1.1" viewBox="0 -36 256 256">
  <g transform="matrix(1 0 0 -1 0 220)">
   <path fill="currentColor"
d="M123 155v23q0 13 -1 29l23 -9l-8 -6v-31q0 -16 1 -27l-16 -6q1 15 1 27zM160 145l-6 -2l-10 9h32l6 7l13 -10l-7 -6q12 -13 27 -23.5t32 -14.5v-3q-11 -2 -16 -10q-13 7 -24.5 18.5t-21.5 26.5q-11 -16 -26 -28.5t-40 -21.5l-2 4q18 10 32 23t25 31h-14zM174 41v36
q0 15 -1 33l22 -8l-7 -7v-46q0 -13 1 -28l-16 -7q1 15 1 27zM68 40v36q0 15 -1 33l22 -9l-7 -6v-46q0 -13 1 -28l-16 -7q1 15 1 27zM59 145l-11 -3l-10 10h34l6 9l14 -10l-7 -6q24 -32 47 -37v-5q-11 0 -17 -8q-22 20 -34 45q-10 -14 -28.5 -29t-40.5 -25l-1 4q20 13 35 28
t23 27h-10zM106 232q-13 0 -22 -2l-10 8h47l7 8l14 -9l-7 -6q16 -16 45.5 -31.5t63.5 -18.5v-3q-16 -3 -21 -12q-30 9 -53 25.5t-38 34.5q-22 -26 -52.5 -40.5t-60.5 -20.5l-1 4q30 9 56 24t45 39h-13z" />
  </g>

</svg>
