<?xml version="1.0" standalone="no"?>
<!DOCTYPE svg PUBLIC "-//W3C//DTD SVG 1.1//EN" "http://www.w3.org/Graphics/SVG/1.1/DTD/svg11.dtd" >
<svg xmlns="http://www.w3.org/2000/svg" xmlns:xlink="http://www.w3.org/1999/xlink" version="1.1" viewBox="0 -36 256 256">
  <g transform="matrix(1 0 0 -1 0 220)">
   <path fill="currentColor"
d="M45 133q20 -14 25.5 -24t-1.5 -20t-11 7t-15 32q-11 -19 -32 -37l-2 3q23 30 33.5 63t13.5 57h-9q-13 0 -22 -3l-10 10h97l10 11l18 -18h-67q-7 -30 -13 -46h47l9 11l14 -14l-8 -10q-7 -26 -18 -52t-32 -50.5t-58 -45.5l-1 4q31 23 49.5 47.5t29.5 52t15 50.5h-49
q-7 -19 -13 -28zM180 182h41l8 13l15 -13l-7 -8q0 -72 -3.5 -104t-12 -43.5t-23.5 -19.5q-2 15 -32 27l1 4q22 -5 33 -5.5t16 25t6 117.5h-42q-2 -34 -6.5 -61t-22 -56.5t-48.5 -50.5l-2 4q26 24 39 49.5t19 53t7 61.5h-14l-11 -3l-10 10h35q0 48 -1 64l23 -7l-8 -7v-50z
" />
  </g>

</svg>
