<?xml version="1.0" standalone="no"?>
<!DOCTYPE svg PUBLIC "-//W3C//DTD SVG 1.1//EN" "http://www.w3.org/Graphics/SVG/1.1/DTD/svg11.dtd" >
<svg xmlns="http://www.w3.org/2000/svg" xmlns:xlink="http://www.w3.org/1999/xlink" version="1.1" viewBox="0 -205 1024 1024">
  <g transform="matrix(1 0 0 -1 0 819)">
   <path fill="currentColor"
d="M452 914h374l40 50l58 -56q3 -3 4 -8q-1 -12 -16 -12h-198v-194h172l38 52l58 -58q3 -4 4 -8q1 -12 -16 -12h-482q-21 0 -68 -8l-16 34h258v194h-126q-20 -1 -58 -10l-26 36v0v0zM664 636q72 -30 78 -36q4 -5 0 -10q-6 -3 -26 -12v-58q35 -84 62 -128q88 102 128 162
l60 -50q3 -7 -2 -10q-24 -3 -32 -6q-10 -1 -34 -22q-24 -18 -110 -96q30 -54 60 -90t60 -54q29 -19 80 -32v-16q-36 -1 -54 -8q-18 -8 -38 -25q-36 40 -66 79q-27 35 -56 92q-30 57 -60 150v-331q1 -35 -16 -56q-18 -18 -60 -30q-6 30 -30 42q-21 10 -62 20l4 18
q81 -15 100 -10q16 7 14 53v464v0v0zM380 504h176l28 32l48 -42q4 -13 -6 -16q-16 -6 -22 -30q-27 -64 -80 -160q-51 -94 -168 -185l-8 14q98 106 146 203t66 158h-108q-24 0 -50 -8l-22 34v0v0zM206 978l68 -30q20 -6 20 -12q1 -6 -40 -30v-282q64 75 116 174
q72 -39 70 -48q-3 -7 -8 -8q-6 1 -24 -4q-16 -6 -58 -50q-40 -43 -98 -94q0 -114 -8 -198q54 -31 96 -70q41 -40 50 -64q7 -24 6 -44q-3 -19 -12 -26t-26 -4q-15 2 -24 40q-9 36 -26 70q-16 33 -68 78q-12 -102 -60 -186q-44 -82 -148 -161l-10 10q80 83 116 151
q33 68 48 140q16 72 20 252v396v0v0zM114 746h16q12 -93 4 -156q-9 -61 -30 -82q-20 -22 -40 -20q-21 3 -26 18q-5 16 12 32q17 15 38 58q20 42 26 150v0v0v0z" />
  </g>

</svg>
