<?xml version="1.0" standalone="no"?>
<!DOCTYPE svg PUBLIC "-//W3C//DTD SVG 1.1//EN" "http://www.w3.org/Graphics/SVG/1.1/DTD/svg11.dtd" >
<svg xmlns="http://www.w3.org/2000/svg" xmlns:xlink="http://www.w3.org/1999/xlink" version="1.1" viewBox="0 -205 1024 1024">
  <g transform="matrix(1 0 0 -1 0 819)">
   <path fill="currentColor"
d="M660 406l22 18l40 -22q12 -8 12 -16q-1 -3 -22 -18v-130q1 -12 -10 -18q-24 -18 -42 -18v16h-348v-133l164 44l6 -16q-105 -42 -146 -60q-40 -16 -64 -44l-48 52l38 26v309q-78 -51 -224 -102l-6 14q149 74 224 124q75 51 130 96q53 44 98 98l70 -26q9 -9 0 -12
q-7 -4 -22 -10q57 -50 126 -88q69 -36 150 -56q81 -19 192 -16v-20q-25 2 -46 -10t-32 -32q-89 15 -154 42q-66 26 -134 70q-70 41 -124 104q-55 -42 -94 -72q-37 -29 -118 -82l18 -12h344v0v0zM312 380v-54h348v54h-348v0v0zM312 300v-56h348v56h-348v0v0zM814 196
q12 -9 -6 -14q-19 8 -100 -34l-32 -15q92 -29 124 -44q30 -12 42 -28q10 -14 8 -28q0 -14 -12 -20q-9 -4 -24 4q-15 7 -38 22q-22 15 -70 36q-49 22 -110 44q-59 21 -184 53l4 16q117 -18 228 -48q51 34 120 92l50 -36v0v0zM452 504l8 10q45 -18 64 -30q15 -13 22 -26
q4 -13 0 -26q-3 -11 -12 -16q-9 -6 -20 -2q-12 2 -14 14q-1 12 -10 30q-7 18 -38 46v0v0zM280 870q-21 -47 -36 -70h130l24 30l54 -38q12 -12 -6 -18q-24 -9 -32 -26q-31 -57 -76 -116q-46 -58 -122 -106q-75 -49 -162 -74l-6 16q84 38 144 80q56 39 104 94q44 53 80 134
h-144l-26 -38q39 -18 58 -38q19 -19 18 -38q-1 -18 -10 -24q-9 -7 -20 -4q-10 3 -14 18q-2 15 -10 34q-6 15 -32 34q-52 -69 -118 -120l-10 12q51 56 96 130q42 74 64 128h-92q-25 -3 -46 -8l-24 34h384l34 44q61 -51 62 -60q0 -10 -14 -10h-252v0v0zM682 968q53 -27 56 -32
q3 -6 0 -8q-1 -4 -10 -4t-20 -14q50 -60 94 -86q42 -27 88 -42q46 -13 104 -14v-18q-33 0 -44 -8q-10 -7 -28 -26q-41 14 -82 40q-42 24 -72 52q-30 26 -78 86q-66 -84 -132 -146q-66 -63 -138 -110l-8 12q75 65 142 140q64 72 128 178v0v0zM520 652q88 53 182 146l38 -28
q10 -6 6 -12q-3 -3 -18 -6q-15 0 -54 -30t-146 -86l-8 16v0v0zM580 590q96 47 192 134l40 -26q10 -6 6 -12q-3 -4 -18 -4q-13 0 -56 -30q-41 -29 -154 -76l-10 14v0v0zM646 520q132 57 228 142l40 -34q10 -6 6 -12q-3 -4 -18 -2q-13 1 -58 -28q-46 -29 -190 -82l-8 16v0v0z
" />
  </g>

</svg>
