<?xml version="1.0" standalone="no"?>
<!DOCTYPE svg PUBLIC "-//W3C//DTD SVG 1.1//EN" "http://www.w3.org/Graphics/SVG/1.1/DTD/svg11.dtd" >
<svg xmlns="http://www.w3.org/2000/svg" xmlns:xlink="http://www.w3.org/1999/xlink" version="1.1" viewBox="0 -205 1024 1024">
  <g transform="matrix(1 0 0 -1 0 819)">
   <path fill="currentColor"
d="M512 938l60 -44h230l34 36l54 -46q9 -6 6 -12t-32 -26v-352h40l32 48l60 -56q3 -3 4 -6q3 -12 -8 -12h-128v-361q3 -27 -14 -48q-16 -21 -70 -42q-6 31 -32 46q-28 15 -88 30l6 18q57 -9 84 -12t46 0q15 4 16 28v341h-250q-1 -120 -20 -198t-62 -139q-41 -64 -112 -116
l-12 12q58 64 92 123q32 57 46 124q12 64 18 194h-50q-21 0 -44 -8l-20 34h114v444v0v0zM564 494h248v374h-248v-374v0v0zM620 782l12 10q51 -43 78 -76q26 -33 32 -60q6 -24 0 -42q-5 -18 -22 -24q-16 -8 -28 0q-14 9 -12 30q1 22 -10 62q-12 39 -50 100v0v0zM62 786
l50 -34h82v226l76 -28q12 -6 4 -18l-26 -16v-164h66l26 36l56 -38q16 -9 8 -14l-28 -22v-238l4 -48q3 -15 -14 -26q-15 -12 -42 -14v46h-76v-218l110 24q-20 45 -52 84l12 16q71 -64 92 -92q18 -27 24 -48q4 -21 -4 -36q-7 -14 -22 -16q-16 -3 -22 6q-7 7 -8 20q0 13 -12 44
q-168 -51 -222 -72q-54 -20 -84 -43l-38 59l172 40v232h-80v-40q0 -12 -18 -24q-19 -12 -38 -12l4 72v356v0v0zM114 458h80v270h-80v-270v0v0zM248 728v-270h76v270h-76v0v0z" />
  </g>

</svg>
