<?xml version="1.0" standalone="no"?>
<!DOCTYPE svg PUBLIC "-//W3C//DTD SVG 1.1//EN" "http://www.w3.org/Graphics/SVG/1.1/DTD/svg11.dtd" >
<svg xmlns="http://www.w3.org/2000/svg" xmlns:xlink="http://www.w3.org/1999/xlink" version="1.1" viewBox="0 -36 256 256">
  <g transform="matrix(1 0 0 -1 0 220)">
   <path fill="currentColor"
d="M148 143l23 -10l-9 -5v-12h43l8 10l16 -13l-9 -8v-51q-1 -20 -20 -28q-4 9 -9.5 12t-18.5 5v5q22 -1 27 -0.5t6 7.5v54h-43v-62q0 -16 1 -30l-15 -8v40v60h-39v-39q0 -19 1 -36l-17 -8q1 13 1 26v46q-17 -19 -40 -32l-3 5q38 33 66 80h-21q-10 0 -19 -2l-10 9h54
q8 22 10 34l22 -13l-9 -3l-8 -18h79l11 13l18 -20h-110q-9 -18 -24 -35h38v27zM124 245q47 -19 21 -39h68l13 14l20 -21h-186v-76q0 -59 -50 -103l-4 4q38 40 38 101v46q0 23 -1 46l22 -11h71q2 17 -14 37z" />
  </g>

</svg>
