<?xml version="1.0" standalone="no"?>
<!DOCTYPE svg PUBLIC "-//W3C//DTD SVG 1.1//EN" "http://www.w3.org/Graphics/SVG/1.1/DTD/svg11.dtd" >
<svg xmlns="http://www.w3.org/2000/svg" xmlns:xlink="http://www.w3.org/1999/xlink" version="1.1" viewBox="0 -205 1024 1024">
  <g transform="matrix(1 0 0 -1 0 819)">
   <path fill="currentColor"
d="M296 25q89 23 182 60q93 39 144 79q-60 51 -116 166h-28h-36l-20 -4l-20 28h380l34 34l52 -42q10 -5 6 -16q0 -3 -48 -24q-63 -80 -138 -142q45 -29 96 -43t100 -20q46 -5 122 -8v-18q-39 -2 -60 -14q-19 -8 -32 -28q-88 19 -142 40q-55 21 -118 66q-54 -41 -150 -76
q-93 -33 -204 -54l-4 16v0v0zM532 330q48 -84 120 -144q78 63 126 144h-246v0v0zM496 906q7 -3 8 -8q6 -4 -6 -10q-18 0 -32 -24q-13 -20 -32 -52h158l24 30l46 -38q3 -3 4 -8q0 -9 -8 -8h-100v-90h22l26 26l36 -36q3 -3 4 -8q-1 -7 -10 -8h-78v-86h16l30 34l42 -44
q3 -3 4 -8q-1 -7 -10 -8h-82v-94h34l28 30l42 -38q3 -4 4 -10q-1 -7 -10 -8h-216v-16q3 -21 -12 -32q-18 -13 -36 -14l4 136v224q-24 -35 -54 -70l-12 10q25 44 56 110q29 65 58 146l52 -28v0v0zM440 466h72v94h-72v-94v0v0zM440 586h72v86h-72v-86v0v0zM512 698v90h-72v-90
h72v0v0zM478 964l8 8q54 -30 72 -48q15 -19 18 -38q3 -18 -8 -26q-12 -9 -26 -6q-13 3 -16 24q-3 18 -14 40q-11 21 -34 46v0v0zM784 898q7 -3 8 -8q6 -4 -6 -10q-19 0 -28 -18q-10 -14 -28 -46h182l24 30l46 -38q3 -3 4 -8q0 -9 -8 -8h-124v-90h42l26 26l40 -36q3 -3 4 -8
q-1 -7 -10 -8h-102v-86h40l30 34l42 -44q3 -3 4 -8q-1 -7 -10 -8h-106v-94h58l28 30l42 -38q3 -4 4 -10q-1 -7 -10 -8h-240v-16q3 -21 -12 -32q-18 -13 -36 -14l4 136v226q-16 -27 -40 -54l-12 10q17 38 40 92q23 53 52 134l52 -28v0v0zM736 470h72v94h-72v-94v0v0zM736 590
h72v86h-72v-86v0v0zM808 702v90h-72v-90h72v0v0zM774 964l8 8q54 -30 72 -48q15 -19 18 -38q3 -17 -8 -28q-12 -10 -26 -4q-13 3 -16 24q-3 18 -14 40q-11 21 -34 46v0v0zM170 976l66 -38q9 -3 10 -8q4 -10 -16 -16q-18 -5 -26 -52q-7 -45 -26 -138h74l32 42l38 -36
q15 -7 12 -10q0 -7 -18 -22q-12 -156 -24 -234q-12 -76 -48 -164q29 -24 58 -56q27 -30 36 -54q6 -24 -2 -42q-7 -14 -26 -15q-18 -1 -26 27q-9 29 -24 52q-13 23 -34 52q-48 -76 -90 -124q-43 -44 -104 -93l-10 16q51 49 96 107q44 60 76 120q-35 30 -124 88q30 137 60 320
h-36q-24 0 -50 -6l-22 32h112q21 129 36 252v0v0v0zM210 322q32 87 44 172q9 84 18 204h-98q-30 -159 -68 -314q52 -33 104 -62v0v0z" />
  </g>

</svg>
