<?xml version="1.0" standalone="no"?>
<!DOCTYPE svg PUBLIC "-//W3C//DTD SVG 1.1//EN" "http://www.w3.org/Graphics/SVG/1.1/DTD/svg11.dtd" >
<svg xmlns="http://www.w3.org/2000/svg" xmlns:xlink="http://www.w3.org/1999/xlink" version="1.1" viewBox="0 -205 1024 1024">
  <g transform="matrix(1 0 0 -1 0 819)">
   <path fill="currentColor"
d="M276 924q15 -12 0 -18q-18 -6 -30 -14q-10 -7 -46 -70t-120 -174l176 12q35 59 62 122l62 -34q16 -9 -4 -20q-18 -6 -30 -18q-9 -13 -66 -94q-58 -82 -166 -190l262 56l4 -20q-197 -61 -226 -70q-29 -8 -64 -34l-42 66q28 7 44 20q24 21 60 66q36 42 94 126
q-81 -10 -120 -22q-39 -13 -60 -28l-44 64q27 6 42 24q60 92 90 152q27 59 52 128l70 -30v0v0zM344 268l6 -20l-212 -80q-33 -20 -68 -43l-40 63l314 80v0v0zM612 378q-63 -47 -194 -106l-10 16q138 75 258 198q50 -38 52 -46q0 -8 -2 -10q-4 0 -22 -2q-17 -3 -82 -50v0v0z
M638 105q-114 -48 -294 -78l-2 18q183 46 306 105q122 61 208 146q56 -45 58 -54q0 -6 -6 -8q-7 -3 -20 -2q-12 0 -74 -38q-61 -39 -176 -89v0v0zM358 910h206l34 32l48 -40q8 -6 8 -12q1 -6 -28 -24v-110l4 -74q0 -15 -18 -26q-16 -10 -34 -10v100q-91 -72 -124 -98
q-31 -26 -58 -64l-48 42l230 148v110h-150q-33 -3 -48 -8l-22 34v0v0zM386 850l8 10q40 -19 62 -34q20 -16 28 -34q9 -16 0 -32q-7 -16 -22 -16q-13 -1 -20 16q-6 18 -14 36q-9 18 -42 54v0v0zM680 270q-102 -63 -288 -128l-6 18q231 96 382 232q53 -42 56 -50q2 -6 -4 -8
q-7 -3 -22 -2q-16 0 -118 -62v0v0zM686 616q4 -6 0 -8q0 -6 -20 -8q57 -55 102 -82q44 -27 94 -48q51 -22 138 -28v-18q-34 -3 -52 -14q-18 -10 -30 -26q-36 14 -84 44q-48 27 -90 60q-42 32 -96 98q-69 -68 -140 -124q-72 -54 -210 -126l-8 14q117 72 186 136
q69 60 150 162l60 -32v0v0zM670 912h174l34 32l48 -36q8 -6 8 -12q1 -6 -28 -24v-172l4 -50q0 -15 -18 -26q-16 -10 -34 -10v134q-75 -57 -92 -72q-16 -15 -46 -54l-44 44l182 108v112h-118q-33 -3 -48 -8l-22 34v0v0zM676 852l8 10q39 -18 60 -36q20 -16 28 -34
q6 -16 -2 -32q-7 -15 -22 -14q-15 0 -20 22q-6 18 -14 36q-7 18 -38 48v0v0z" />
  </g>

</svg>
