<?xml version="1.0" standalone="no"?>
<!DOCTYPE svg PUBLIC "-//W3C//DTD SVG 1.1//EN" "http://www.w3.org/Graphics/SVG/1.1/DTD/svg11.dtd" >
<svg xmlns="http://www.w3.org/2000/svg" xmlns:xlink="http://www.w3.org/1999/xlink" version="1.1" viewBox="0 -205 1024 1024">
  <g transform="matrix(1 0 0 -1 0 819)">
   <path fill="currentColor"
d="M358 892h216l30 36l58 -40q8 -4 8 -10q0 -5 -30 -28v-114l4 -98q1 -12 -18 -24q-21 -10 -36 -10v52h-136l-20 -188h118l24 38l60 -40q7 -3 8 -12q0 -6 -30 -24q-12 -188 -18 -256q-5 -65 -34 -99q-27 -33 -80 -54q-9 36 -30 50q-21 12 -98 36l6 20q72 -18 108 -24
q36 -4 54 10q17 13 26 79q5 68 14 250h-124l-30 -32l-52 42q26 14 32 38l22 232l50 -40h130v182h-178q-20 0 -34 -8l-20 36v0v0zM608 160l38 12q47 176 86 350q35 172 74 410q87 -36 90 -42q3 -3 0 -8q-1 -6 -16 -8q-15 -1 -24 -16q-6 -12 -24 -90q-18 -75 -60 -254
q-42 -178 -98 -346q146 18 242 34q-9 53 -24 98q-16 45 -64 162l14 6q75 -114 102 -174t36 -102q10 -42 6 -69q-6 -27 -18 -42q-12 -12 -30 -10q-18 3 -18 30q-1 27 -2 75q-184 -33 -214 -45q-30 -11 -54 -32l-42 61v0v0zM274 914q9 -7 -6 -14q-18 -6 -26 -12
q-10 -7 -52 -76q-43 -70 -106 -166h142q60 93 76 142l68 -38q2 -12 -10 -14q-12 -1 -24 -10q-11 -9 -64 -86q-54 -78 -168 -222l190 20q-13 51 -40 96l12 10q44 -45 62 -72q18 -28 22 -52q3 -24 -2 -38q-7 -15 -16 -18t-20 0q-9 2 -12 14q-1 11 -4 38q-103 -16 -148 -28
t-80 -38l-42 70q27 1 58 20q45 56 130 184q-81 -7 -104 -14q-24 -6 -54 -26l-36 62q30 5 42 20q9 14 66 118q57 102 78 172l68 -42v0v0zM84 312h22q5 -71 8 -112q0 -40 -12 -71q-13 -31 -32 -38q-18 -7 -32 0q-13 9 -14 24q0 16 18 35q18 22 30 50q9 26 12 112v0v0zM174 328
l16 6q42 -67 54 -104q13 -36 8 -66q-5 -29 -22 -35q-15 -6 -30 2q-13 8 -4 45q9 39 4 66q-3 26 -26 86v0v0zM274 342l16 6q54 -58 76 -94q21 -35 18 -64q-3 -27 -18 -36q-16 -8 -28 0q-14 8 -12 40q3 30 -8 64q-12 33 -44 84v0v0z" />
  </g>

</svg>
