<?xml version="1.0" standalone="no"?>
<!DOCTYPE svg PUBLIC "-//W3C//DTD SVG 1.1//EN" "http://www.w3.org/Graphics/SVG/1.1/DTD/svg11.dtd" >
<svg xmlns="http://www.w3.org/2000/svg" xmlns:xlink="http://www.w3.org/1999/xlink" version="1.1" viewBox="0 -36 256 256">
  <g transform="matrix(1 0 0 -1 0 220)">
   <path fill="currentColor"
d="M18 209l-1 4q19 4 40 12.5t31 18.5l13 -19q-8 0 -31 -7v-47h13l11 12l15 -19h-39v-23q21 -8 25.5 -16.5t0 -18t-9.5 4t-16 25.5q0 -95 1 -120l-15 -8q1 50 1 124q-18 -39 -46 -70l-2 4q33 52 46 98h-15q-10 0 -19 -2l-9 9h45v44q-10 -2 -39 -6zM115 167.5q0 25.5 -1 46.5
l16 -7h82l10 9l14 -13l-8 -4q0 -44 1 -64l-14 -5v5h-87v-3l-14 -5q1 15 1 40.5zM128 176h38v24h-38v-24zM179 176h36v24h-36v-24zM128 142h38v27h-38v-27zM179 142h36v27h-36v-27zM137 103q0 12 -1 30l20 -9l-6 -5v-16h40q0 7 -1 30l21 -9l-7 -5v-16h14l10 10l15 -17h-39
v-30h19l10 9l16 -16h-132q-6 -1 -15 -3l-9 10h45v30q-16 0 -25 -3l-9 10h34zM150 66h40v30h-40v-30zM159 45q-9 -5 -27.5 -18t-37.5 -20l-1 4q31 19 48 44zM227 34.5q11 -6.5 11.5 -13.5t-3 -11t-12.5 8.5t-39 31.5l2 3q30 -12 41 -18.5zM183 205l-3 2q18 26 23 42l18 -15
q-17 -7 -38 -29zM120 243l2 3q37 -15 29 -29.5t-13 0t-18 26.5z" />
  </g>

</svg>
