<?xml version="1.0" standalone="no"?>
<!DOCTYPE svg PUBLIC "-//W3C//DTD SVG 1.1//EN" "http://www.w3.org/Graphics/SVG/1.1/DTD/svg11.dtd" >
<svg xmlns="http://www.w3.org/2000/svg" xmlns:xlink="http://www.w3.org/1999/xlink" version="1.1" viewBox="0 -143 1024 1024">
  <g transform="matrix(1 0 0 -1 0 881)">
   <path fill="currentColor"
d="M34 252h167v100l76 -25q13 -4 9 -13q0 -2 -36 -16v-46h158v98l79 -25q4 -3 4 -5q0 -5 -2 -8l-32 -14v-46h88l29 39l50 -46q9 -8 8 -13.5t-8 -5.5h-167v-109l4 -42q2 -15 -14.5 -30t-42.5 -16l4 93v104h-158q-12 -63 -57 -115.5t-145 -92.5l-4 14q82 54 114.5 96t42.5 98
h-95q-20 0 -53 -8zM901 942l61 -44q9 -6 9 -14q2 -2 -10 -9q-22 -7 -45 -52q-38 -85 -92 -217q66 -70 100 -114t44 -91t2 -81t-31 -62t-85 -60q-12 32 -31 44t-75 30l4 16q52 -10 79 -12t50 8t34 41t4 72t-32 84t-91 123l88 272h-169v-685l4 -113q0 -15 -20 -29.5t-36 -16.5
l4 150v766l62 -44h142zM108 619l50 -16h360l22 22l42 -33q16 -12 1 -19q0 -3 -18 -12v-130l4 -62q0 -13 -15 -24.5t-37 -13.5v38h-361v-20q0 -5 -15 -17.5t-37 -12.5l4 110v190zM156 393h161v84h-161v-84zM364 393h153v84h-153v-84zM156 500h161v79h-161v-79zM364 579v-79
h153v79h-153zM47 938h476l32 44l61 -50q4 -3 4 -8q0 -12 -12 -12h-173v-84h95l24 24l51 -36q6 -6 6 -8q0 -7 -27 -22v-64l4 -48q0 -11 -19 -21.5t-32 -10.5v25h-398v-9q0 -8 -18.5 -17.5t-32.5 -9.5l4 93v128l41 -24h112v84h-114q-21 0 -65 -8zM139 694h106v108h-106v-108z
M291 694h98v108h-98v-108zM435 694h102v108h-102v-108zM389 828v84h-98v-84h98z" />
  </g>

</svg>
