<?xml version="1.0" standalone="no"?>
<!DOCTYPE svg PUBLIC "-//W3C//DTD SVG 1.1//EN" "http://www.w3.org/Graphics/SVG/1.1/DTD/svg11.dtd" >
<svg xmlns="http://www.w3.org/2000/svg" xmlns:xlink="http://www.w3.org/1999/xlink" version="1.1" viewBox="0 -36 256 256">
  <g transform="matrix(1 0 0 -1 0 220)">
   <path fill="currentColor"
d="M76.5 34.5q8.5 -0.5 8.5 12.5v59h-43q-1 -27 -6.5 -51t-24.5 -47l-4 1q13 26 18 55.5t4.5 94t-2.5 77.5l15 -8h41l8 10l14 -12l-7 -6v-174q0 -16 -5.5 -22.5t-17.5 -11.5q0 14 -30 22v4q23 -3 31.5 -3.5zM42 171h43v50h-43v-50zM42 113h43v51h-43v-51zM138 207h35l8 10
l13 -14l-8 -5q-13 -31 -22 -47q16 -13 36 -21.5t48 -9.5v-4q-18 -5 -17 -13q-22 5 -40.5 15t-34.5 23q-13 -15 -28.5 -25.5t-28.5 -15.5l-1 3q16 11 30.5 24.5t18.5 22.5q-12 22 -16 40q-8 -20 -26 -38l-2 2q12 20 20.5 44t11.5 45l19 -11l-8 -4q-6 -14 -8 -21zM155 160
q10 18 18 40h-37l-2 -3q9 -21 21 -37zM199 188.5q0 31.5 -1 55.5l21 -9l-7 -7v-29q27 -12 31.5 -19.5t0 -15.5t-10.5 3.5t-21 25.5v-28v-14l1 -13l-15 -7q1 26 1 57.5zM120 57.5q0 24.5 -1 48.5l16 -8h75l7 9l15 -13l-8 -6v-36.5t1 -35.5l-14 -6v20h-77v-16l-15 -5
q1 24 1 48.5zM134 37h77v54h-77v-54z" />
  </g>

</svg>
