<?xml version="1.0" standalone="no"?>
<!DOCTYPE svg PUBLIC "-//W3C//DTD SVG 1.1//EN" "http://www.w3.org/Graphics/SVG/1.1/DTD/svg11.dtd" >
<svg xmlns="http://www.w3.org/2000/svg" xmlns:xlink="http://www.w3.org/1999/xlink" version="1.1" viewBox="0 -205 1024 1024">
  <g transform="matrix(1 0 0 -1 0 819)">
   <path fill="currentColor"
d="M50 892h378l32 44l60 -52q3 -3 4 -8q0 -9 -14 -8h-168v-156h54l30 36l52 -42q3 -4 4 -8q1 -6 -28 -24v-506l4 -65q3 -14 -12 -26q-13 -12 -38 -16v70h-266v-50q1 -12 -16 -24q-16 -12 -34 -12l4 109v596l48 -38h62v156h-70q-21 -1 -68 -10l-18 34v0v0zM142 306v-150h266
v150h-266v0v0zM142 372v-40h266v90h-30q-16 -1 -34 4q-18 3 -30 16q-10 12 -10 34v212h-58q4 -110 -22 -184q-25 -72 -82 -132v0v0v0zM408 688h-66v-198q-1 -23 8 -28q9 -6 22 -6h36v232v0v0zM246 712h58v156h-58v-156v0v0zM206 688h-64v-288q32 49 50 116q17 65 14 172v0v0
zM584 420l54 -36h172l34 36l48 -36q9 -6 10 -14q0 -4 -26 -22v-196l4 -79q-1 -16 -16 -26q-16 -9 -38 -12v74h-196v-44q1 -12 -16 -24q-15 -12 -36 -12l4 117v272l2 2v0v0zM630 133h196v227h-196v-227v0v0zM720 936q3 -1 6 -8q3 -3 -8 -8q-18 -3 -32 -20q-12 -15 -44 -74
h186l26 36l58 -48q9 -7 6 -8q3 -9 -12 -12t-26 -12q-12 -6 -38 -54q-25 -48 -88 -126q23 -27 70 -60q48 -33 84 -48q35 -14 98 -22v-18q-40 -3 -56 -8q-16 -6 -34 -30q-63 37 -98 68q-36 30 -90 88q-48 -51 -96 -90q-46 -40 -154 -100l-10 14q63 45 118 90q54 42 118 118
q-62 87 -88 174q-51 -105 -104 -168l-14 8q47 83 88 176q39 92 64 176l70 -34v0v0zM628 804q26 -78 98 -170q54 73 102 170h-200v0v0z" />
  </g>

</svg>
