<?xml version="1.0" standalone="no"?>
<!DOCTYPE svg PUBLIC "-//W3C//DTD SVG 1.1//EN" "http://www.w3.org/Graphics/SVG/1.1/DTD/svg11.dtd" >
<svg xmlns="http://www.w3.org/2000/svg" xmlns:xlink="http://www.w3.org/1999/xlink" version="1.1" viewBox="0 -154 1024 1024">
  <g transform="matrix(1 0 0 -1 0 870)">
   <path fill="currentColor"
d="M657 991q97 -54 103 -104q11 -59 -24 -60q-16 4 -17 31q0 27 -13 57q-14 29 -54 64zM772 703l6 14q115 -66 154 -131q34 -74 -3 -84q-17 -1 -31 40q-10 41 -42 79q-31 38 -84 82zM631 745l59 -46q14 -8 6 -15q-25 -1 -30 -8q-42 -60 -81 -102q-33 -36 -91 -80l-8 9
q91 98 123 161q21 34 20 46q1 12 -5 27zM550 851q2 -23 3 -42h363l29 35l53 -58q3 -11 -9 -7q-32 -1 -46 -26q-8 -12 -48 -68l-11 8l40 96h-371l1 -16q4 -77 -31 -104q-17 -9 -27 6q-12 15 6 36q15 22 23 48t12 92h13zM545 452l-27 31h277l23 34l54 -51q6 -10 -7 -10
q-25 -4 -45 -22q-109 -98 -149 -138q-41 -41 -74 -83q-34 -41 -32 -71q2 -54 75 -57q37 -5 221 1q60 6 69 82l6 125h12q-5 -158 24 -165q-21 -71 -56 -73q-16 -5 -64 -9l-155 -1q-110 2 -129 17q-28 12 -40 57q-9 34 16 80q14 28 57 82t187 182h-217q-17 1 -26 -11zM383 978
l50 -54q15 -18 0 -20q-26 6 -37 5t-92 -29q-12 -4 -26 -6v-192h82l29 44l55 -50q20 -16 -9 -13h-157v-183h124l31 44l55 -50q21 -16 -8 -14h-202v-309q-3 -34 -15 -56q-14 -23 -69 -36q-5 31 -23 41t-73 27l4 16l35 -8q106 -36 102 46v279h-146q-21 1 -36 -12l-28 32h210
v183h-109q-21 1 -37 -14l-28 33h174v183q-111 -24 -178 -27l2 17q169 31 253 69q46 19 51 27t7 25z" />
  </g>

</svg>
