<?xml version="1.0" standalone="no"?>
<!DOCTYPE svg PUBLIC "-//W3C//DTD SVG 1.1//EN" "http://www.w3.org/Graphics/SVG/1.1/DTD/svg11.dtd" >
<svg xmlns="http://www.w3.org/2000/svg" xmlns:xlink="http://www.w3.org/1999/xlink" version="1.1" viewBox="0 -36 256 256">
  <g transform="matrix(1 0 0 -1 0 220)">
   <path fill="currentColor"
d="M52 186h34v22h-34v-22zM39 246l20 -9l-7 -6v-16h34q0 10 -1 31l19 -9l-6 -7v-15h10l10 8l13 -15h-33v-16l1 -18l-13 -4v9h-34v-7l-13 -4q1 24 1 40h-10l-11 -3l-9 10h30q0 23 -1 31zM34 109h28v22h-28v-22zM75 109h30v22h-30v-22zM75 78h30v24h-30v-24zM34 78h28v24h-28
v-24zM105 138l6 9l12 -13l-6 -7q0 -43 1 -58l-13 -6v8h-71v-4l-13 -5q1 17 1 45t-1 40l13 -9h30h41zM24 153l-9 -2l-8 9h101l12 12l14 -19h-110zM67 50l-11 -2q-24 -27 -45 -39l-2 3q28 28 38 52zM117 37.5q9 -8.5 3.5 -19t-9.5 -2t-12.5 19.5t-18.5 20l3 4q25 -14 34 -22.5
zM216 217l7 11l16 -14l-8 -6q-11 -69 -40 -125q14 -24 27.5 -37.5t29.5 -19.5v-4q-14 0 -20 -10q-29 29 -45 59q-23 -37 -64 -64l-2 4q38 33 59 72q-22 57 -27 127h-4l-8 -3l-8 10h87zM184 97q24 50 33 113h-61q8 -69 28 -113z" />
  </g>

</svg>
