<?xml version="1.0" standalone="no"?>
<!DOCTYPE svg PUBLIC "-//W3C//DTD SVG 1.1//EN" "http://www.w3.org/Graphics/SVG/1.1/DTD/svg11.dtd" >
<svg xmlns="http://www.w3.org/2000/svg" xmlns:xlink="http://www.w3.org/1999/xlink" version="1.1" viewBox="0 -205 1024 1024">
  <g transform="matrix(1 0 0 -1 0 819)">
   <path fill="currentColor"
d="M592 990q98 -51 124 -84q24 -31 24 -52q1 -21 -10 -30q-10 -10 -28 -10t-24 24q-7 20 -20 50q-10 29 -74 92l8 10v0v0zM412 784h472l38 48l70 -54q3 -3 4 -12q0 -10 -12 -10h-352q1 -135 -4 -186h226l34 44l58 -44q12 -6 12 -12t-36 -32q-19 -294 -28 -348
q-7 -52 -28 -79q-19 -26 -40 -38q-19 -8 -56 -20q-9 39 -36 54t-90 44l6 17q99 -31 130 -35q28 -1 44 16q14 17 22 71q5 54 26 336h-248q-11 -124 -40 -220q-27 -94 -92 -170q-64 -73 -172 -127l-6 16q74 45 140 127q65 83 92 206q25 122 32 268v112h-94q-21 -1 -50 -10
l-22 38v0v0zM358 910q-31 -6 -70 -18v-214h70l40 46l56 -52q2 -3 2 -8q3 -12 -8 -12h-160v-92q61 -27 92 -48q31 -19 44 -40q11 -21 8 -38q-3 -18 -18 -24q-12 -7 -24 -2t-18 26q-7 20 -22 46q-16 24 -62 58v-366l4 -97q0 -14 -20 -28q-21 -13 -38 -14l4 129v354
q-33 -79 -84 -160q-51 -78 -102 -138l-12 8q50 83 86 152q33 66 58 132t44 142h-112q-21 0 -56 -8l-14 34h192v204q-99 -18 -162 -24l-2 16q204 49 310 110q49 -60 50 -66q0 -7 -6 -8q-4 -1 -22 2t-48 -2v0v0z" />
  </g>

</svg>
