<?xml version="1.0" standalone="no"?>
<!DOCTYPE svg PUBLIC "-//W3C//DTD SVG 1.1//EN" "http://www.w3.org/Graphics/SVG/1.1/DTD/svg11.dtd" >
<svg xmlns="http://www.w3.org/2000/svg" xmlns:xlink="http://www.w3.org/1999/xlink" version="1.1" viewBox="0 -36 256 256">
  <g transform="matrix(1 0 0 -1 0 220)">
   <path fill="currentColor"
d="M72 180h21l6 9l16 -12l-8 -6q0 -65 1 -77l-14 -7v8h-56v-8l-14 -6q1 22 1 93q-4 -8 -15 -19l-2 2q19 32 29 55.5t11 34.5l22 -12q-8 -1 -18 -19h31l7 10l16 -14q-10 0 -34 -32zM34 184l7 -4h25l17 29h-33q-7 -11 -16 -25zM38 140h22v33h-22v-33zM73 140h21v33h-21v-33z
M38 102h22v31h-22v-31zM73 102h21v31h-21v-31zM32.5 42q-1.5 -8 -5.5 -11.5t-12 -3.5t1 12t13 34h4q1 -23 -0.5 -31zM48 76q17 -18 17.5 -28t-6.5 -15.5t-7.5 9t-6.5 33.5zM69 79q24 -16 24.5 -25.5t-5 -14t-7.5 6t-14 31.5zM94 86q19 -10 25 -17.5t0 -17.5t-9 1.5t-19 31.5
zM170 66q17 20 29 44h-56q10 -22 27 -44zM216 244l14 -20l-14 1q-54 -10 -101 -12v4q70 8 101 27zM140.5 187.5q7.5 -5.5 8.5 -12t-4 -14.5t-9 6t-17 31l2 3q12 -8 19.5 -13.5zM176.5 191q6.5 -6 6.5 -12t-5 -14t-8.5 7t-15.5 33l2 2q14 -10 20.5 -16zM223 147h-95v-13
t-6 -9t-11 -3.5t2 12t9 29.5h4l1 -9h66q18 42 22 64l19 -13l-7 -5q-16 -25 -27 -46h23l6 9l16 -14q-12 -3 -30 -27l-2 2zM198 117l8 9l16 -16l-9 -4q-13 -26 -34 -49q17 -15 33.5 -22.5t35.5 -9.5v-4q-16 -1 -20 -12q-30 9 -59 38q-31 -29 -82 -40l-1 3q49 20 75 47
q-15 21 -25 53l-11 -3l-7 10h80z" />
  </g>

</svg>
