<?xml version="1.0" standalone="no"?>
<!DOCTYPE svg PUBLIC "-//W3C//DTD SVG 1.1//EN" "http://www.w3.org/Graphics/SVG/1.1/DTD/svg11.dtd" >
<svg xmlns="http://www.w3.org/2000/svg" xmlns:xlink="http://www.w3.org/1999/xlink" version="1.1" viewBox="0 -36 256 256">
  <g transform="matrix(1 0 0 -1 0 220)">
   <path fill="currentColor"
d="M31 211v-123h24v123h-24zM18 83v97q0 25 -1 47l14 -9h24l7 8l12 -13l-7 -7v-110q0 -17 1 -35l-13 -8v28h-24v-23l-14 -7q1 15 1 32zM99 149h40v25h-40v-25zM99 116h40v26h-40v-26zM87 150q0 23 -1 38l13 -7h15v27h-6q-13 1 -24 -2l-9 9h39q0 22 -1 32l20 -9l-7 -7v-16h19
l10 10l13 -17h-42v-27h12l7 9l13 -12l-7 -6v-35t1 -30l-13 -6v8h-13v-30h19l10 10l13 -17h-42v-38.5t1 -17.5l-15 -6q1 15 1 62h-7q-13 1 -24 -2l-9 9h40v30h-14v-9l-13 -6q1 33 1 56zM190 245l19 -11l-6 -5l-2 -5q9 -17 20.5 -30.5t26.5 -20.5v-3q-10 -1 -15 -9
q-23 22 -34 57q-5 -19 -16.5 -38t-28.5 -30l-2 2q15 18 24.5 40t13.5 53zM219 160l14 -17h-29v-47h11l11 11l15 -18h-37v-32q0 -27 1 -40l-15 -7q1 19 1 35v44h-10q-9 0 -15 -3l-8 10h33v47h-7q-7 0 -12 -2l-7 9h44z" />
  </g>

</svg>
