<?xml version="1.0" standalone="no"?>
<!DOCTYPE svg PUBLIC "-//W3C//DTD SVG 1.1//EN" "http://www.w3.org/Graphics/SVG/1.1/DTD/svg11.dtd" >
<svg xmlns="http://www.w3.org/2000/svg" xmlns:xlink="http://www.w3.org/1999/xlink" version="1.1" viewBox="0 0 2048 2048">
  <g transform="matrix(1 0 0 -1 0 2048)">
   <path fill="currentColor"
d="M429 995q-43 -43 -71 -67q-27 -24 -102 -80q-75 -55 -104 -71l-41 -24l-19 31l40 32q24 19 94.5 85t109.5 107q38 42 100 127q61 85 101 155t76 151l21 47h-292q-117 0 -179 -7l-13 -1l-38 88q13 -4 27 -7t67.5 -9t135.5 -6h279l68 76l84 -54q22 -15 31 -26q9 -10 9 -23
q-1 -14 -12 -25t-31 -19l-36 -15l-39 -76q-22 -42 -51 -91q-28 -49 -71 -113l-48 -72v-79q28 -18 34 -23l26 -23l34 51q21 30 33 50t37 69l25 49l91 -61q25 -17 33 -27q9 -9 8 -19q-2 -14 -13 -18t-45 -4h-31l-69 -59q-30 -26 -49 -39l-21 -15l42 -36q24 -20 63 -62
t52.5 -79.5t11.5 -60.5q-3 -25 -18 -42t-38 -18q-23 0 -41 33q-6 9 -13.5 36t-20.5 57q-14 31 -38 68q-23 36 -40 55l-54 57l1 -616q0 -33 5 -113q4 -80 7 -112.5t3 -47.5q-1 -11 -4 -20q-4 -9 -14 -15q-11 -7 -31 -7q-22 -1 -34 3q-12 5 -20 14q-8 10 -8 25v916zM356 1903
l48 -37q19 -15 42 -36q24 -20 42 -39t32 -39q14 -19 25 -47t6 -54q-5 -24 -21 -39t-36 -16q-21 0 -36 26q-6 9 -12 41q-7 32 -15 56t-28 61q-20 36 -38 55l-38 41zM1290 1115h404l68 76l84 -55q22 -15 31 -25t9 -23q-1 -14 -11 -24q-10 -11 -31 -21l-36 -17l-22 -321
q-3 -34 -16 -128q-14 -94 -27 -166t-36 -143t-57 -120q-34 -48 -74 -70q-40 -21 -83 -30l-48 -11q-1 23 -5 38q-5 15 -24 33q-18 19 -46 33q-29 14 -67 29l-87 34l13 45l97 -33q54 -19 90 -28q36 -10 65 -10q36 -2 57 10q22 12 40 42q19 31 36 76q16 45 36 156
q19 112 28 184q8 72 12 131l15 281h-418l-17 -151q-9 -72 -23 -151t-44 -170q-30 -92 -75 -171q-46 -79 -106 -147q-60 -69 -111 -114q-51 -46 -84 -70l-38 -28l-26 34l57 54q35 32 62 60q27 27 84 106q56 79 89 148q33 70 59 156q25 86 38 161q14 75 23 175.5t12 157.5
q3 58 7 162q3 103 3 127v88h-76q-116 0 -178 -7l-14 -1l-38 88q13 -4 29 -7q16 -4 56 -9t111 -5l331 -1q-8 8 -12 15q-5 7 -7 19l-4 29q-3 14 -12 39t-20 49q-11 25 -21 41q-9 16 -33 53q-24 38 -26 42l-42 53l25 31l51 -39q20 -16 48 -43t65 -68q38 -42 56 -79
q19 -37 18 -71q-2 -33 -16 -48q-15 -14 -24 -17l-13 -5h262l104 96l119 -104q10 -10 14 -17q5 -7 2 -17q-3 -8 -12 -12q-8 -4 -18 -4h-625q1 -78 1 -132q-1 -54 -5 -130.5t-3 -84.5v-24z" />
  </g>

</svg>
