<?xml version="1.0" standalone="no"?>
<!DOCTYPE svg PUBLIC "-//W3C//DTD SVG 1.1//EN" "http://www.w3.org/Graphics/SVG/1.1/DTD/svg11.dtd" >
<svg xmlns="http://www.w3.org/2000/svg" xmlns:xlink="http://www.w3.org/1999/xlink" version="1.1" viewBox="0 -36 256 256">
  <g transform="matrix(1 0 0 -1 0 220)">
   <path fill="currentColor"
d="M197 173q-84 -2 -154 -15l-8 17q13 3 22 9.5t29.5 26.5t27.5 36l20 -14q-8 -3 -24.5 -17.5t-52.5 -40.5q51 2 136 5q-9 11 -38 33l2 3q39 -18 53.5 -30.5t6 -23t-12 -3.5t-7.5 14zM116 125h-57v-40h57v40zM186 125h-55v-40h55v40zM131 132h54l10 10l17 -15l-11 -6v-23
q0 -12 1 -23l-16 -7v10h-55v-42q27 1 71 2q-16 16 -33 28l3 3q7 -2 27 -13t31 -19.5t6 -20t-10.5 -5t-19.5 22.5q-15 -2 -92.5 -9.5t-94.5 -13.5l-11 18q25 1 108 7v42h-57v-11l-16 -6q1 20 1 39t-1 42l17 -10h56q0 19 -1 39l24 -9l-8 -7v-23z" />
  </g>

</svg>
