<?xml version="1.0" standalone="no"?>
<!DOCTYPE svg PUBLIC "-//W3C//DTD SVG 1.1//EN" "http://www.w3.org/Graphics/SVG/1.1/DTD/svg11.dtd" >
<svg xmlns="http://www.w3.org/2000/svg" xmlns:xlink="http://www.w3.org/1999/xlink" version="1.1" viewBox="0 -36 256 256">
  <g transform="matrix(1 0 0 -1 0 220)">
   <path fill="currentColor"
d="M166 204h-26q1 -35 -6 -56t-28 -37l-2 2q18 24 20.5 42t3 33t-0.5 31l13 -8h20q0 21 -1 35l21 -6l-7 -5v-6h25l9 9l13 -16h-47v-11h42l7 7l14 -12q-11 -2 -24 -14l-2 2l5 10h-48l15 -4l-5 -5v-7l15 2l5 8l12 -12l-32 -4v-3q0 -4 4 -5h21q7 0 11 1.5t7 0t1 -7.5t-12 -4
h-29q-13 1 -14 10v7l-18 -2l-2 -3l-8 8l28 2v18zM185 162l17 -8l-6 -5v-13q-1 -10 7 -9h10q8 -1 9 6t1 13h3q0 -18 10 -19q-8 -11 -17 -11h-22q-13 1 -12 17v29zM167 153q-1 -31 -36 -45l-1 4q17 12 21.5 25t3.5 26l17 -6zM37 161q14 -7 18 -12t-0.5 -13t-7 0.5t-12.5 22.5z
M87 235l-8 -4q24 -8 31 -14t5.5 -18t-10 0.5t-30.5 26.5q-25 -33 -55 -47l-1 4q35 26 51 62zM94 136l24 4v-5q-35 -8 -60 -14.5t-26 -8.5l-11 16q10 0 46 5v32h-6q-13 0 -18 -3l-9 10h33v19v-1q-8 0 -16 -2l-7 8h40l10 10l11 -17h-26v-17h15l9 8l12 -15h-36v-31l7 1
q8 15 10 30l17 -10l-9 -4zM45 97v5q68 5 96.5 10t48.5 10l15 -18l-14 3q-26 -4 -56 -7v-18h63l12 10l18 -17h-93v-16h83l13 10l16 -17h-112v-18q1 -19 -24 -27q-2 14 -30 18v4q28 -2 33.5 -1.5t5.5 9.5v15h-75q-6 1 -19 -2l-11 9h105v16h-59q-7 1 -19 -2l-11 9h89v18
q-20 -2 -75 -3z" />
  </g>

</svg>
