<?xml version="1.0" standalone="no"?>
<!DOCTYPE svg PUBLIC "-//W3C//DTD SVG 1.1//EN" "http://www.w3.org/Graphics/SVG/1.1/DTD/svg11.dtd" >
<svg xmlns="http://www.w3.org/2000/svg" xmlns:xlink="http://www.w3.org/1999/xlink" version="1.1" viewBox="0 -205 1024 1024">
  <g transform="matrix(1 0 0 -1 0 819)">
   <path fill="currentColor"
d="M590 634l54 -38h256l32 30l52 -44q6 -3 6 -12q0 -5 -30 -22v-380l4 -75q0 -15 -20 -28q-18 -12 -36 -12v62h-268v-44q0 -13 -18 -24q-15 -13 -36 -14l4 143v458v0v0zM640 140h268v130h-268v-130v0v0zM640 296h268v122h-268v-122v0v0zM640 442h268v128h-268v-128v0v0z
M934 952l58 -38q7 -4 8 -10q0 -3 -32 -24v-110l4 -62q2 -15 -10 -26q-12 -10 -42 -16v40h-386q3 -169 -6 -296q-8 -125 -46 -220q-36 -91 -122 -167l-12 12q66 78 96 165q27 87 34 216q7 126 6 294v250l62 -42h362l26 34v0v0zM534 890v-156h170v156h-170v0v0zM754 890v-156
h164v156h-164v0v0zM74 788l54 -28h72v228l76 -34q10 -6 2 -18l-26 -16v-160h58l26 34l56 -40q12 -9 4 -14l-24 -22v-232l4 -58q3 -15 -12 -26q-15 -12 -44 -14v46h-68v-220l94 22q-21 44 -54 92l14 10q65 -60 86 -86q20 -24 26 -42q3 -18 -2 -36q-6 -16 -24 -20
q-15 -4 -24 4q-7 6 -8 24q-1 15 -4 30q-216 -67 -240 -75q-24 -10 -54 -32l-38 59l176 40v230h-74v-36q0 -12 -20 -24q-21 -12 -36 -12l4 72v354v0v0zM126 460h74v274h-74v-274v0v0zM252 734v-274h68v274h-68v0v0z" />
  </g>

</svg>
