<?xml version="1.0" standalone="no"?>
<!DOCTYPE svg PUBLIC "-//W3C//DTD SVG 1.1//EN" "http://www.w3.org/Graphics/SVG/1.1/DTD/svg11.dtd" >
<svg xmlns="http://www.w3.org/2000/svg" xmlns:xlink="http://www.w3.org/1999/xlink" version="1.1" viewBox="0 -205 1024 1024">
  <g transform="matrix(1 0 0 -1 0 819)">
   <path fill="currentColor"
d="M416 970l58 -44q6 -4 6 -8q0 -6 -32 -30v-124l4 -84q0 -12 -18 -24q-15 -9 -36 -12v52h-100q0 -124 4 -196h78l36 42l60 -52q2 -6 2 -12q-1 -4 -10 -4h-164q3 -73 18 -142q12 -69 28 -104q14 -35 28 -52q15 -17 24 -22q9 -6 16 18q6 24 22 114l18 -2q-7 -88 -10 -118
q-4 -29 2 -45q4 -15 8 -22t2 -14q-1 -6 -14 -10q-12 -1 -30 6q-19 9 -46 30q-27 22 -50 65q-22 44 -40 122q-16 77 -22 176h-122v-327l130 99l12 -14q-71 -72 -106 -105q-33 -31 -60 -74l-62 50q36 25 36 46v823l60 -44h238l32 42v0v0zM256 500q-3 60 -6 196h-114v-196h120
v0v0zM136 902v-180h262v180h-262v0v0zM540 968l58 -40h262l34 38l54 -46l4 -8q0 -6 -32 -30v-312l4 -72q1 -15 -16 -26q-18 -10 -38 -14v50h-278v-36q0 -12 -20 -24q-18 -9 -36 -8l4 106v422v0v0zM592 532h116v174h-116v-174v0v0zM758 532h112v174h-112v-174v0v0zM592 732
h116v172h-116v-172v0v0zM758 904v-172h112v172h-112v0v0zM550 338q1 -63 0 -96q-3 -33 -12 -60q-9 -25 -24 -33q-15 -9 -30 -10q-15 1 -24 17q-6 14 12 32q17 14 34 38q14 21 26 112h18v0v0zM894 350q45 -36 76 -68q29 -33 38 -54q7 -21 6 -38q-1 -16 -10 -28q-8 -10 -28 -8
q-19 2 -22 32q-3 27 -18 64q-14 36 -52 90l10 10v0v0zM640 334v-189q0 -16 6 -26q5 -9 34 -10h128q27 1 36 10t12 24q3 12 6 33q4 18 2 84h22l6 -72q5 -48 34 -63q-17 -42 -40 -52q-21 -8 -42 -10h-186q-37 0 -52 18q-16 15 -16 48v265l72 -28q8 -3 10 -8q0 -6 -6 -8
q-6 -4 -26 -16v0v0zM682 462q57 -45 82 -78t24 -56q0 -22 -14 -32q-13 -11 -28 -6q-15 3 -18 30q-3 26 -14 56q-9 29 -42 76l10 10v0v0z" />
  </g>

</svg>
