<?xml version="1.0" standalone="no"?>
<!DOCTYPE svg PUBLIC "-//W3C//DTD SVG 1.1//EN" "http://www.w3.org/Graphics/SVG/1.1/DTD/svg11.dtd" >
<svg xmlns="http://www.w3.org/2000/svg" xmlns:xlink="http://www.w3.org/1999/xlink" version="1.1" viewBox="0 -36 256 256">
  <g transform="matrix(1 0 0 -1 0 220)">
   <path fill="currentColor"
d="M78 15l-14 -7q1 16 1 33v47q-19 -31 -55 -58l-2 3q44 44 57 88v42h-25v-62l-14 -7q1 21 1 42t-1 41l13 -7h26v28h-18q-13 1 -24 -2l-9 9h51q0 20 -1 39l20 -9l-7 -7v-23h20l13 11l14 -18h-47v-28h23l7 8l12 -11l-6 -6v-46q0 -6 -2.5 -10.5t-11.5 -9.5q-3 10 -17 14v4
q8 -1 13.5 -1t5.5 5v46h-24v-66q26 -12 30.5 -19.5t0.5 -16.5t-10.5 4.5t-20.5 26.5v-41q0 -18 1 -36zM141 205q1 -98 -7.5 -134t-33.5 -62l-3 2q13 19 22 47.5t9.5 72.5t-1.5 88l13 -7q61 15 74 30l14 -16q-7 -1 -28 -7q5 -98 18 -138.5t27 -49.5v-4q-14 1 -18 -7
q-11 18 -19.5 51t-11 71t-3.5 75q-9 -3 -20 -6v-165l13 10q-3 8 -8 20l3 2q20 -22 23.5 -31.5t-2.5 -17t-7.5 1t-6.5 19.5q-13 -14 -21 -27l-10 14q4 5 4 13v159z" />
  </g>

</svg>
