<?xml version="1.0" standalone="no"?>
<!DOCTYPE svg PUBLIC "-//W3C//DTD SVG 1.1//EN" "http://www.w3.org/Graphics/SVG/1.1/DTD/svg11.dtd" >
<svg xmlns="http://www.w3.org/2000/svg" xmlns:xlink="http://www.w3.org/1999/xlink" version="1.1" viewBox="0 -205 1024 1024">
  <g transform="matrix(1 0 0 -1 0 819)">
   <path fill="currentColor"
d="M488 620q6 29 18 80l70 -26q6 -2 4 -10q0 -3 -14 -8q-15 -3 -18 -12q-2 -7 -10 -26q-6 -18 -18 -50h78q35 64 64 122q54 -29 60 -34q5 -5 2 -10q-3 -3 -18 -6q-13 -1 -34 -20q-20 -19 -46 -52h78l34 36l40 -42q6 -3 6 -6q5 -9 -10 -12h-264q-21 -36 -42 -66h270l32 36
l44 -40q3 -3 4 -8q0 -12 -12 -12h-152q30 -30 54 -48q23 -18 46 -26q20 -10 80 -16v-18q-25 0 -40 -6q-15 -7 -30 -28q-36 27 -60 48q-22 21 -40 42q-15 20 -36 52h-174q-102 -96 -222 -162l-8 14q87 62 178 148h-112q-16 0 -68 -8l-14 32h212q11 15 38 66h-134
q-18 0 -66 -8l-18 32h228q11 21 20 52v0v0zM370 380l52 -8h190l20 22q54 -29 54 -34q0 -6 -6 -8q-4 -3 -14 -14q-6 -45 -14 -62q-9 -16 -24 -28q-14 -13 -46 -22q-6 28 -26 38q-21 9 -44 18l4 16q50 -13 68 -10q15 0 24 12q9 9 12 48h-202v-136q0 -28 18 -32q20 -4 52 -4
h136q34 0 44 16q9 15 12 34q3 20 6 68h16q2 -36 4 -60q0 -22 36 -40q-6 -21 -30 -38q-22 -17 -70 -19h-156q-61 0 -80 7q-19 6 -28 28q-7 14 -8 50v158v0v0zM298 680l6 12q53 -13 80 -26q27 -12 36 -30q6 -17 -2 -34q-10 -16 -26 -16t-22 18q-6 16 -18 32q-9 14 -54 44v0v0z
M132 784l60 -40h646l32 40l62 -46q6 -6 6 -8q0 -7 -32 -28v-558l4 -85q1 -12 -16 -24q-16 -11 -38 -14v54h-674v-34q0 -9 -18 -22q-18 -12 -36 -12l4 116v661v0v0zM182 101h674v617h-674v-617v0v0zM350 988l84 -28q6 -3 6 -8q-1 -3 -40 -26v-36h232v92l82 -34q3 -5 4 -10
q1 -2 -34 -22v-26h190l40 48l60 -62q3 -1 4 -8q-1 -6 -16 -6h-278v-62q0 -12 -12 -20q-9 -6 -18 -8q-10 -3 -22 -2v92h-232v-62q0 -12 -8 -18l-18 -10q-9 -3 -24 -2v92h-218q-22 -1 -70 -10l-18 38h306v98v0v0z" />
  </g>

</svg>
