<?xml version="1.0" standalone="no"?>
<!DOCTYPE svg PUBLIC "-//W3C//DTD SVG 1.1//EN" "http://www.w3.org/Graphics/SVG/1.1/DTD/svg11.dtd" >
<svg xmlns="http://www.w3.org/2000/svg" xmlns:xlink="http://www.w3.org/1999/xlink" version="1.1" viewBox="0 -200 999 1000">
  <g transform="matrix(1 0 0 -1 0 800)">
   <path fill="currentColor"
d="M309 199q18 42 30 80.5t19 80t11 88.5t6.5 106t5.5 133.5t8 170.5l-54 -13l-31 29h315v33l-9 89l75 -31l-13 -56v-35h134l44 42l71 -59h-193l-6 -7v-96h85l32 32l53 -36l-28 -29v-123h-373l-53 -11l-16 24q-3 -65 -6.5 -121.5t-13.5 -107t-28.5 -97t-52.5 -92.5zM814 617
v118h-92v-118h92zM674 617v118h-83v-118h83zM542 735h-48l-42 -9l-23 24l-9 -133h122v118zM542 754v103h-153l55 -26l-15 -48l-2 -29h115zM674 754v103h-72l-11 -7v-96h83zM446 218q27 21 53 49t49.5 60.5t42 68t30.5 71.5h-135l-36 -9l-21 30h213v96l65 -20l-17 -45v-31
h104l40 36l60 -57h-204q27 -45 51.5 -78.5t48.5 -58t49.5 -41.5t54.5 -29l-4 -14q-16 -7 -28 -17.5t-19 -15.5q-26 18 -46 40t-38 50t-34.5 61t-34.5 73v-267q-6 -5 -20 -11.5t-28 -8.5v245q-21 -44 -45.5 -73.5t-49.5 -50.5t-49 -36t-43 -28zM131 776q16 -8 28.5 -15.5
t24 -17t22 -23t23.5 -34.5v-8q0 -33 -11 -47.5t-23 -14.5q-11 0 -20 11.5t-9 32.5q0 4 0.5 6t0.5 5q-4 18 -7.5 30.5t-8.5 22t-11.5 19t-16.5 21.5zM947 108q-19 -18 -38 -32t-34 -34q-25 -1 -56.5 -2t-63.5 -1.5t-62 -1t-52 -0.5q-154 0 -247.5 36t-135.5 126h-21
q-18 -17 -36 -36.5l-36 -39t-34 -38t-29 -33.5l-55 39q23 14 48 30.5t50 33.5t47.5 33t40.5 28v275h-93l-62 -14l-26 36h170l41 37l53 -65l-34 -18v-265q26 -40 62.5 -62t78.5 -32.5t87.5 -12.5t90.5 -2h25q28 0 65.5 0.5t79.5 3t86.5 8t85.5 15.5zM120 1002q39 -19 67 -40
t45 -54v-11q0 -29 -9 -43t-20 -14q-13 0 -23.5 14t-12.5 39q-5 18 -9.5 31.5t-10 25t-13 21.5t-18.5 22z" />
  </g>

</svg>
