<?xml version="1.0" standalone="no"?>
<!DOCTYPE svg PUBLIC "-//W3C//DTD SVG 1.1//EN" "http://www.w3.org/Graphics/SVG/1.1/DTD/svg11.dtd" >
<svg xmlns="http://www.w3.org/2000/svg" xmlns:xlink="http://www.w3.org/1999/xlink" version="1.1" viewBox="0 -205 1024 1024">
  <g transform="matrix(1 0 0 -1 0 819)">
   <path fill="currentColor"
d="M360 642v-154h114l36 48l52 -58q3 -3 4 -6q0 -10 -12 -10h-194v-72q84 -25 130 -50q44 -24 56 -44q12 -21 6 -42t-26 -24q-22 -1 -34 26t-48 60q-36 32 -84 52v-216l4 -95q-1 -10 -22 -24q-21 -13 -38 -14l4 131v238q-51 -67 -114 -136q-63 -70 -134 -125l-12 12
q56 59 118 135q59 76 134 188h-158q-21 0 -68 -8l-16 34h250v148q-108 -16 -212 -26l-2 20q140 24 230 48t150 48q52 -60 48 -66q-3 -8 -14 -6t-28 4q-18 1 -120 -16v0v0zM606 640l58 -38h202l32 32q60 -46 58 -52q-1 -6 -28 -20v-340l4 -103q0 -11 -14 -22q-15 -10 -42 -14
v95h-216v-89q-1 -12 -22 -24t-36 -12l4 103v484v0v0zM660 206h216v370h-216v-370v0v0zM352 988l82 -32q6 -3 6 -8q0 -2 -36 -22v-72h224v120l84 -34q3 -5 4 -10q1 -2 -34 -22v-54h190l40 48l60 -62q3 -1 4 -8q-1 -6 -16 -6h-278v-66q-3 -18 -12 -24q-9 -4 -20 -8
q-13 -3 -22 -2v100h-224v-62q-1 -15 -16 -24q-15 -6 -36 -6v92h-220q-21 -1 -66 -10l-18 38h304v134v0v0z" />
  </g>

</svg>
