<?xml version="1.0" standalone="no"?>
<!DOCTYPE svg PUBLIC "-//W3C//DTD SVG 1.1//EN" "http://www.w3.org/Graphics/SVG/1.1/DTD/svg11.dtd" >
<svg xmlns="http://www.w3.org/2000/svg" xmlns:xlink="http://www.w3.org/1999/xlink" version="1.1" viewBox="0 -36 256 256">
  <g transform="matrix(1 0 0 -1 0 220)">
   <path fill="currentColor"
d="M215 201h-174q2 -18 -3 -25t-16.5 -7t-5 8t11.5 16.5t8 25.5h4l1 -11h85q0 16 -18 35l2 2q30 -10 32.5 -19t-7.5 -18h79l9 13l22 -19q-20 -3 -35 -27l-5 2zM173 172l16 13l19 -20h-134q-16 0 -23 -2l-10 9h132zM77 134h119l11 11l14 -15l-9 -6q-3 -56 -8.5 -82t-32.5 -34
q-1 18 -29 19v6q40 -6 44 2.5t7 32.5t4 59h-36q-6 -25 -16 -47q24 -8 28.5 -12.5t3.5 -16t-11 -0.5q-15 12 -28 17q-32 -43 -84 -57l-1 3q50 23 72 60q-16 7 -29 11q-23 -28 -65 -47l-1 4q38 24 53 47l-23 7l-1 4l29 -4q9 16 12 31h-27q-25 -28 -50 -41l-3 3q44 39 60 78h17
q-15 -26 -20 -33zM115 127q-4 -15 -14 -34q16 -3 31 -8q10 22 14 42h-31v0z" />
  </g>

</svg>
