<?xml version="1.0" standalone="no"?>
<!DOCTYPE svg PUBLIC "-//W3C//DTD SVG 1.1//EN" "http://www.w3.org/Graphics/SVG/1.1/DTD/svg11.dtd" >
<svg xmlns="http://www.w3.org/2000/svg" xmlns:xlink="http://www.w3.org/1999/xlink" version="1.1" viewBox="0 -52 256 256">
  <g transform="matrix(1 0 0 -1 0 204)">
   <path fill="currentColor"
d="M221 73v-14q0 -19 -5 -27q-6 -10 -13 -14q-8 -5 -14 -6q-5 -2 -14 -3q2 6 -3 9q-7 4 -26 8l2 4q7 -2 22 -4q8 -1 12 -2q11 1 15 4q3 2 8 7q5 8 5 26v17h-135l-10 -12l-13 12q6 3 7 9v52q0 7 -4 10l4 4l8 -8h12l3 6q1 4 4 8q1 1 1 2t-1 5q1 -2 -1 2l2 2l17 -7q4 -3 1 -4
q-4 0 -9 -2l-5 -5q-3 -4 -6 -7h92l6 8l14 -8q2 -1 2 -3q0 -1 -2 -2l-5 -3v-8q1 -13 -1 -19t-8 -10q-5 -4 -20 -9q0 5 -3 8q-3 2 -24 6v4q4 0 10 -1q5 -1 10 -1h11q7 0 11 3q3 3 3 21v9h-111v-57h136l8 9l14 -12q2 -2 1 -2q0 -1 -2 -2zM117 208q8 -1 21 -4q-2 0 3 -1
q2 12 2 29h-8q-7 0 -13 -3l-7 8h72l9 10l14 -13q1 -3 -3 -3l-4 -4q1 -39 11 -54q4 -5 7 -4q4 1 6 8l8 26l4 -1l-5 -30q-2 -9 1 -13t2 -7q-2 -3 -10 -1q-12 3 -19 12q-16 20 -16 69h-38q-1 -19 -3 -32q32 -12 33 -26q0 -4 -5 -4q-3 -2 -7 4q-7 9 -24 18q-7 -32 -45 -40l-2 3
q31 13 38 41q-12 6 -23 8zM69 173q-21 -6 -28 -7q-7 -3 -15 -10l-10 14l49 9v50h-25q-7 0 -12 -3l-8 8h71l8 10l17 -13q4 -2 -2 -2h-38v-48l38 7l1 -3zM10 52h155l8 10l17 -12q2 -2 1 -2q0 -1 -3 -1h-158q-6 0 -12 -3zM84 125l1 4q9 -2 23 -6q3 -1 4 -1t2 -1q9 -3 13 -7
q5 -4 4 -10q0 -5 -4 -5q-4 -1 -6 4q-3 6 -12 11q-9 6 -25 11z" />
  </g>

</svg>
