<?xml version="1.0" standalone="no"?>
<!DOCTYPE svg PUBLIC "-//W3C//DTD SVG 1.1//EN" "http://www.w3.org/Graphics/SVG/1.1/DTD/svg11.dtd" >
<svg xmlns="http://www.w3.org/2000/svg" xmlns:xlink="http://www.w3.org/1999/xlink" version="1.1" viewBox="0 -205 1024 1024">
  <g transform="matrix(1 0 0 -1 0 819)">
   <path fill="currentColor"
d="M443 679q-13 -45 -34 -67q-18 -14 -31 -11q-14 2 -21 11q-6 8 -5 23q2 15 18 25q23 16 39 44q16 29 23 74q1 10 8 9q8 0 8 -10q1 -15 1 -28h180v109h-134q-27 0 -61 -7q-5 -1 -6 2q-13 19 -23 35q-6 10 7 7q61 -5 68 -6h149v23q-1 39 -4 70q-1 16 9 13q54 -17 76 -29
q9 -5 0 -11q-22 -16 -26 -20q-7 -7 -7 -23v-23h140q6 0 12 7l36 41q7 7 14 0q26 -26 44 -48q11 -14 4 -24q-5 -6 -18 -7h-232v-109h187q9 0 15 6l26 28q4 5 8 5q5 -1 9 -5q32 -26 54 -50q8 -9 -7 -13q-38 -11 -53 -24q-26 -23 -57 -69q-8 -14 -18 -8q-9 5 -2 18q22 42 41 81
h-431q-2 -20 -6 -39zM509 258q30 -17 51 -35q5 -5 2 -9t-10 -4q-11 1 -30 -9q-26 -13 -75 -47q-71 -49 -162 -89q-11 -5 -15 5t8 16q62 32 117 75q55 45 100 94q7 7 14 3zM758 254q5 8 18 1q85 -41 133 -83q33 -28 36 -47q3 -24 -10 -39q-13 -16 -19 -17q-6 0 -16 19
q-28 49 -59 83q-38 43 -78 68q-9 6 -5 15zM514 358q1 -2 11 -1q60 6 172 18q93 9 135 12q-2 4 -3 5q-31 48 -68 78q-7 8 -3 15q6 9 19 0q78 -54 120 -102q29 -33 29 -52q0 -25 -15 -38q-15 -14 -22 -13q-6 0 -13 21q-14 35 -30 63h-1q-65 -10 -168 -28v-207q-2 -33 -21 -55
q-20 -22 -45 -29q-10 -3 -14 4q-7 13 -35 29q-23 13 -75 26q-12 2 -11 12q1 9 14 8q35 -1 81 -4q45 -3 55 3q3 4 3 17v188q-67 -10 -139 -20q-43 -7 -59 -17q-11 -6 -14 4q-10 23 -23 47q-7 12 5 13q55 10 91 26q39 18 135 102q8 9 17 16q-41 -6 -90 -16q-64 -13 -97 -26
q-9 -2 -10 7q-4 24 -19 48q-7 11 8 14q19 5 35 15q24 17 63 59q40 42 67 82q4 8 10 4q28 -20 53 -44q7 -6 4 -10q-3 -5 -7 -4q-6 1 -16 -3q-15 -5 -34 -18q-49 -32 -106 -80q0 -3 10 -2q88 5 157 1q56 53 78 80q5 7 9 4q20 -7 53 -26q7 -5 6 -9q-1 -5 -11 -5q-15 -1 -28 -11
q-27 -19 -82 -68q-70 -55 -161 -112q-23 -14 -20 -21zM141 415q69 33 169 55q14 4 17 -5q3 -10 -10 -14q-121 -43 -209 -106q-7 -5 -11 1q-15 21 -34 37q-9 8 0 12q9 7 16 11q62 45 164 252q-80 -21 -155 -64q-6 -4 -10 0q-12 17 -30 30q-7 6 0 10q75 59 135 314q1 10 8 9
q39 -12 64 -25q8 -3 7 -7q0 -5 -7 -8q-26 -16 -74 -127q-29 -64 -62 -121q-9 -13 -6 -16q1 -5 8 -2q56 20 132 30q32 67 57 136q2 12 9 9q40 -18 65 -34q8 -5 7 -9q-1 -6 -8 -7q-33 -9 -124 -166q-56 -92 -117 -171q-15 -17 -11 -23q3 -5 10 -1zM350 305q13 7 16 -3
q4 -10 -11 -17q-109 -63 -181 -97q-39 -16 -51 -37q-5 -9 -9 -10q-4 0 -8 7q-15 24 -37 40q-14 9 -13 12q1 5 11 6q75 20 283 99z" />
  </g>

</svg>
