<?xml version="1.0" standalone="no"?>
<!DOCTYPE svg PUBLIC "-//W3C//DTD SVG 1.1//EN" "http://www.w3.org/Graphics/SVG/1.1/DTD/svg11.dtd" >
<svg xmlns="http://www.w3.org/2000/svg" xmlns:xlink="http://www.w3.org/1999/xlink" version="1.1" viewBox="0 -36 256 256">
  <g transform="matrix(1 0 0 -1 0 220)">
   <path fill="currentColor"
d="M209 148.5q5 17.5 5 28.5l18 -11q-4 0 -10 -19t-17 -43q11 -25 17 -31l10 29l3 -1q-2 -18 -2.5 -29.5t0 -17t-6 -2t-13.5 12t-16 26.5q-20 -29 -51 -46l-1 4q30 22 46 54q-8 32 -9 88h-44q1 -64 -4.5 -87t-15.5 -35l-4 2q7 13 9.5 30.5t3 48t-0.5 55.5l13 -7h43
q0 31 -1 47l18 -8l-5 -6v-33h19l10 9l14 -16h-43q0 -38 6 -71q4 11 9 28.5zM165 169l8 6l8 -13h-16q-11 0 -20 -2l-9 9h29zM177 90l-11 -7v7h-13v-7l-11 -5v70l10 -6h13l6 8l11 -11l-5 -4v-45zM153 97h13v38h-13v-38zM219.5 221q3.5 -5 -1 -11.5t-8.5 3t-11 17.5l1 3
q16 -7 19.5 -12zM117 100q-6 -3 -13 -18t-12 -24l21 3l-6 12l2 2q11 -8 15 -13t0 -11.5t-5 -3t-4 9.5q-22 -8 -24 -13l-9 14q5 1 11.5 21t7.5 31zM32 170h24v28h-24v-28zM68 170h28v28h-28v-28zM32 130h22l2 33h-24v-33zM66 130h30v33h-28zM82 126v-23v-61q0 -17 12 -17h123
q9 0 12.5 5t4.5 29h3q0 -10 2 -20t9 -12q-5 -14 -28 -14h-131q-20 0 -20 25v88h13zM9 8l-2 2q35 40 46 113h-21v-4l-14 -6q1 17 1 51t-1 45l14 -4h14q11 23 13 41l17 -10l-7 -4q-9 -15 -17 -27h42l7 7l13 -11l-6 -6v-56l1 -18l-13 -5v7h-31q-11 -80 -56 -115z" />
  </g>

</svg>
