<?xml version="1.0" standalone="no"?>
<!DOCTYPE svg PUBLIC "-//W3C//DTD SVG 1.1//EN" "http://www.w3.org/Graphics/SVG/1.1/DTD/svg11.dtd" >
<svg xmlns="http://www.w3.org/2000/svg" xmlns:xlink="http://www.w3.org/1999/xlink" version="1.1" viewBox="0 -36 256 256">
  <g transform="matrix(1 0 0 -1 0 220)">
   <path fill="currentColor"
d="M110 227l22 -12l-8 -6v-31l-13 -4v7h-31v-24h34l9 10l13 -17h-99q-10 0 -19 -2l-9 9h59v24h-33l-5 -5l-12 9l6 5q0 18 -1 40l21 -10l-8 -5v-27h32v38t-1 16l21 -9l-8 -8v-37h31q0 23 -1 39zM66 149l19 -8l-6 -4v-16h29l6 9l12 -12l-6 -4v-41l-12 -5v6h-29v-30l32 5
q-4 8 -9 15l3 2q16 -10 23.5 -18.5t0.5 -17t-8.5 -0.5t-5.5 14q-89 -19 -95 -24l-9 17q12 1 56 6v31h-30v-7l-12 -5v66l11 -7h31q0 12 -1 28zM37 81h30v33h-30v-33zM79 81h29v33h-29v-33zM172 213q0 15 -1 33l22 -11l-8 -8v-28h30l12 10l14 -17h-56v-41h21l6 10l16 -12
l-8 -6q-9 -47 -29 -81q25 -29 56 -36v-4q-11 -2 -14 -12q-28 12 -51 42q-27 -29 -74 -44l-2 4q49 25 68 52q-18 33 -24 80l-7 -3l-8 10h37v62zM182 73q16 31 24 71h-50q9 -38 26 -71z" />
  </g>

</svg>
