<?xml version="1.0" standalone="no"?>
<!DOCTYPE svg PUBLIC "-//W3C//DTD SVG 1.1//EN" "http://www.w3.org/Graphics/SVG/1.1/DTD/svg11.dtd" >
<svg xmlns="http://www.w3.org/2000/svg" xmlns:xlink="http://www.w3.org/1999/xlink" version="1.1" viewBox="0 -205 1024 1024">
  <g transform="matrix(1 0 0 -1 0 819)">
   <path fill="currentColor"
d="M762 625h104q6 0 12 7l36 41q7 7 14 0q26 -26 44 -48q11 -14 4 -24q-5 -6 -18 -7h-557q-42 -1 -73 -7q-8 -3 -11 6q-4 18 -19 30q-7 7 -4 11q4 3 11 -1q38 -8 84 -8h105v185h-57q-42 -1 -73 -7q-8 -3 -11 6q-4 18 -19 30q-7 7 -4 11q4 3 11 -1q38 -8 84 -8h69v63
q-1 39 -4 70q-1 16 9 13q53 -17 71 -26q14 -9 -2 -16q-15 -8 -19 -18q-7 -13 -7 -23v-63h172v63q-1 39 -4 70q-1 16 9 13q53 -17 71 -26q14 -9 -2 -16q-15 -8 -19 -18q-7 -13 -7 -23v-63h72q6 0 12 7l36 41q7 7 14 0q26 -26 44 -48q11 -14 4 -24q-5 -6 -18 -7h-164v-185z
M714 625v185h-172v-185h172zM470 134q-1 -56 -5 -62q-35 -27 -41 -28q-8 1 -7 20q4 61 5 203v152q-1 36 -5 82q-2 12 2 13q3 1 10 -6q12 -13 36 -31h310q12 0 19 7l25 26q5 7 14 1q31 -23 53 -42q7 -8 -2 -9q-17 -3 -26 -12q-8 -9 -8 -19v-176q1 -68 8 -167q0 -13 -10 -19
q-45 -26 -49 -25q-4 2 -3 18q3 31 4 74h-330zM470 165h330q1 28 2 59v74h-332v-133zM470 329h332v117h-332v-117zM101 267q-1 -107 0 -182q-1 -15 -38 -40q-8 -4 -12 -4q-6 1 -5 20q4 100 7 206v616q-1 32 -7 78q-2 10 1 11q1 0 40 -31h152q9 0 16 9l17 22q6 10 13 3
q31 -22 53 -41q8 -8 -2 -12q-20 -8 -32 -29q-23 -38 -41 -78q-79 -159 -61 -174q137 -120 128 -238q-5 -50 -30 -78q-28 -30 -73 -54q-23 -11 -24 -2q-12 44 -69 56q-16 3 -15 16q4 14 23 8q52 -8 83 -1q25 2 40 27q56 105 -88 264q-9 7 -3 23q78 237 74 247q-2 2 -9 1h-138
v-643z" />
  </g>

</svg>
