<?xml version="1.0" standalone="no"?>
<!DOCTYPE svg PUBLIC "-//W3C//DTD SVG 1.1//EN" "http://www.w3.org/Graphics/SVG/1.1/DTD/svg11.dtd" >
<svg xmlns="http://www.w3.org/2000/svg" xmlns:xlink="http://www.w3.org/1999/xlink" version="1.1" viewBox="0 -140 1000 1000">
  <g transform="matrix(1 0 0 -1 0 860)">
   <path fill="currentColor"
d="M311 326h390q3 2 9.5 12.5t6.5 14.5h-234l-20 20v78h-12q-11 -6 -63 -31q-202 -103 -311 -133v8l382 203q13 6 47 31q3 2 8 12h-406l-8 15h328v86h-242l-8 16h254v87q76 0 144 166q2 3 3 9q4 19 13 23q48 -22 70 -39q-36 -11 -70 -55h195l47 55q28 -27 54 -55
q6 -11 8 -20h-211l21 -12q51 -23 51 -57q0 -24 -25 -44q5 -2 22.5 -16t17.5 -19q0 -8 -16 -15q-10 -5 -65.5 -49.5t-66.5 -55.5q-1 -1 43 -1h167l31 31q54 -20 65 -50h-338q-5 -4 -29 -19q-51 -26 -51 -57q0 -16 2 -22l41 9q139 29 193 61q32 -37 32 -45q-1 -1 -1 -2
l-265 -39v-46h288q38 0 54 93q1 4 1 8l8 -8q-1 -3 -1 -46q0 -16 14 -34q10 -11 10 -13q1 -1 1 -8q0 -20 -16 -20h-141q44 -30 47 -35l-19 -15v-248q-1 -1 -10 -3t-20.5 -4t-16.5 -2v32h-394q-7 -29 -47 -31l8 287q6 0 31 -8zM319 186v-84h390v84h-390zM319 303v-94h390v94
h-390zM475 638v-78h78l93 78h-171zM475 716v-54h93q8 5 24 39l78 -39l47 46v8l-6 12q-6 11 -14.5 26.5t-17.5 31.5t-18.5 27t-14.5 12h-62q-46 -39 -77 -81q-13 -22 -32 -28zM225 849h187l39 39q1 0 2 1q14 0 53 -60h-203q5 -19 44 -35q42 -17 42 -41q0 -9 -8 -15.5
t-22 -6.5q-32 0 -57 46q-28 51 -65 51l-28 -3q-82 -90 -140 -124q106 121 148 242q30 -13 70 -39q-4 -5 -31 -28t-31 -27z" />
  </g>

</svg>
