<?xml version="1.0" standalone="no"?>
<!DOCTYPE svg PUBLIC "-//W3C//DTD SVG 1.1//EN" "http://www.w3.org/Graphics/SVG/1.1/DTD/svg11.dtd" >
<svg xmlns="http://www.w3.org/2000/svg" xmlns:xlink="http://www.w3.org/1999/xlink" version="1.1" viewBox="0 -205 1024 1024">
  <g transform="matrix(1 0 0 -1 0 819)">
   <path fill="currentColor"
d="M770 694q-60 -18 -162 -44v-212l244 26l40 52l68 -48q11 -7 8 -16q0 -4 -8 -4l-352 -38v-260q0 -25 10 -35q12 -9 48 -10h208q30 3 36 20q9 17 12 43q3 27 6 126h20q6 -93 12 -122q6 -27 30 -37q-12 -48 -60 -70l-42 -6h-238q-34 0 -52 6q-18 4 -30 22q-13 18 -14 60v255
l-258 -24q-18 -4 -32 -14l-30 34l320 32v208q-125 -25 -238 -46l-4 18q189 50 306 86q114 36 198 82l56 -56q10 -15 -4 -18q-36 10 -98 -10v0v0zM846 838l42 50l74 -66l2 -4q0 -9 -8 -8h-726v-176q4 -231 -34 -366q-37 -131 -142 -239l-12 10q75 111 108 233q30 122 28 338
v274l68 -46h600v0v0zM478 980l8 12q54 -25 82 -40q27 -14 40 -34q10 -20 2 -40q-7 -18 -28 -20q-19 0 -28 24t-20 42q-12 17 -56 56v0v0z" />
  </g>

</svg>
