<?xml version="1.0" standalone="no"?>
<!DOCTYPE svg PUBLIC "-//W3C//DTD SVG 1.1//EN" "http://www.w3.org/Graphics/SVG/1.1/DTD/svg11.dtd" >
<svg xmlns="http://www.w3.org/2000/svg" xmlns:xlink="http://www.w3.org/1999/xlink" version="1.1" viewBox="0 -36 256 256">
  <g transform="matrix(1 0 0 -1 0 220)">
   <path fill="currentColor"
d="M79 216l12 11l17 -18h-42q-8 -36 -16 -59h30l8 9l14 -12l-8 -7q0 -80 1 -99l-14 -7v17h-31v-24l-14 -6q1 35 1 97q-11 -25 -29 -45l-3 2q33 56 46 134h-9q-10 0 -19 -2l-9 9h65zM50 58h31v85h-31v-85zM122 214h52q-3 15 -20 31l2 3q24 -10 29 -17.5t-3 -16.5h43l10 9
l14 -17q-12 -2 -30 -22l-2 2l11 21h-105q1 -13 -6.5 -20.5t-13.5 -3t3 13.5t10 29h5zM153 181q-25 -19 -43 -30l-3 4q11 9 22 20.5t17 23.5l17 -16zM226.5 176.5q10.5 -7.5 10 -15t-4 -10.5t-11 8.5t-34.5 30.5l2 5q27 -11 37.5 -18.5zM185 166l-7 -5q17 -21 38 -32.5
t34 -12.5v-3q-14 -2 -16 -13q-12 5 -29.5 19t-30.5 40q-21 -27 -40.5 -40.5t-35.5 -20.5l-2 4q18 9 38.5 30t33.5 46zM168 42q-26 -20 -74 -34l-1 6q40 13 66 36q-20 28 -28 54q-2 0 -8 -3l-9 11h79l10 8l16 -16l-8 -6q-12 -24 -33 -48q25 -18 68 -20v-5q-17 1 -22 -14
q-36 12 -56 31zM138 105q7 -22 31 -45q15 15 29 45h-60z" />
  </g>

</svg>
