<?xml version="1.0" standalone="no"?>
<!DOCTYPE svg PUBLIC "-//W3C//DTD SVG 1.1//EN" "http://www.w3.org/Graphics/SVG/1.1/DTD/svg11.dtd" >
<svg xmlns="http://www.w3.org/2000/svg" xmlns:xlink="http://www.w3.org/1999/xlink" version="1.1" viewBox="0 -36 256 256">
  <g transform="matrix(1 0 0 -1 0 220)">
   <path fill="currentColor"
d="M51 211q1 -9 -4.5 -15t-8.5 6t-19 32l3 3q28 -17 29 -26zM65 189q17 39 18 53l20 -11q-7 -5 -15 -16t-17 -26h21l11 12l13 -19h-48v-36h20l10 11l15 -18h-45v-40h21l11 12l15 -19h-47q-3 -23 -15 -44.5t-44 -42.5l-2 3q22 19 33 39t15 45h-18q-10 0 -20 -2l-9 9h47v40
h-11q-10 0 -20 -2l-9 9h40v36h-17q-10 0 -20 -2l-9 9h56zM187 176l4 3q27 -19 34.5 -28.5t2 -20t-9.5 -2.5l-8 16q-58 -5 -70.5 -7.5t-16.5 -5.5l-10 15q11 6 24 20.5t24 32.5h-26q-10 0 -19 -2l-9 9h59q-2 10 -6.5 18t-12.5 16l2 3q21 -10 28.5 -18t-4.5 -19h40l12 13
l18 -20h-79l15 -12q-11 -3 -26.5 -18t-23.5 -23l78 4q-10 16 -20 26zM147 117l-8 -7q0 -44 -11.5 -65.5t-42.5 -37.5l-2 4q20 14 28.5 27t11.5 31.5t2 55.5zM162 68.5q0 27.5 -1 54.5l21 -6l-7 -5v-63q0 -8 1 -26l-15 -6q1 24 1 51.5zM197 124l22 -8l-8 -7v-77q0 -8 6 -8h5
q8 0 9 7.5t3 24.5h4q0 -17 1.5 -22.5t8.5 -8.5q-6 -12 -19 -12h-20q-11 0 -11 14v71q0 8 -1 26z" />
  </g>

</svg>
