<?xml version="1.0" standalone="no"?>
<!DOCTYPE svg PUBLIC "-//W3C//DTD SVG 1.1//EN" "http://www.w3.org/Graphics/SVG/1.1/DTD/svg11.dtd" >
<svg xmlns="http://www.w3.org/2000/svg" xmlns:xlink="http://www.w3.org/1999/xlink" version="1.1" viewBox="0 -36 256 256">
  <g transform="matrix(1 0 0 -1 0 220)">
   <path fill="currentColor"
d="M167 247l21 -9l-7 -7v-17h19l12 11l14 -18h-45v-26h37l12 11l14 -18h-106q-10 0 -19 -2l-9 9h58v26h-17q-10 0 -19 -2l-9 9h45q0 16 -1 33zM220 164l-7 -8v-13h9l9 9l13 -16h-31v-31h13l9 11l13 -18h-54q-10 0 -19 -2l-9 9h35v31q-7 0 -18 -3l-9 9h27q0 13 -1 32zM114 91
l-9 16q11 1 30 4v23q-7 0 -18 -4l-9 11h27q0 15 -1 31l20 -9l-7 -7v-14h7l8 5l14 -12h-29v-22l28 5l1 -4q-57 -15 -62 -23zM188 33v45h-26q-3 -26 -17 -44t-51 -27l-1 3q32 12 42 30t12 38q-15 0 -26 -3l-9 10h105l12 9l15 -16h-44v-40q-1 -14 10 -13h17q4 1 5 6t1 24h4
q-2 -23 11 -27q-3 -11 -16 -14h-27q-18 -2 -17 19zM53 217q0 13 -1 30l20 -9l-7 -8v-23h21l10 9l12 -16h-43v-23h22l7 10l13 -12l-7 -7v-27q0 -20 1 -38l-13 -5v5h-23v-26h26l10 11l13 -18h-49v-15q0 -20 1 -41l-14 -7q1 22 1 44v19h-20q-10 0 -19 -2l-9 9h48v26h-22v-4
l-13 -5q1 14 1 29v32q0 15 -1 31l14 -9h21v23h-10q-10 0 -19 -2l-9 9h38v10zM31 170v-26h22v26h-22zM65 170v-26h23v26h-23zM65 137v-27h23v27h-23zM31 137v-27h22v27h-22z" />
  </g>

</svg>
