<?xml version="1.0" standalone="no"?>
<!DOCTYPE svg PUBLIC "-//W3C//DTD SVG 1.1//EN" "http://www.w3.org/Graphics/SVG/1.1/DTD/svg11.dtd" >
<svg xmlns="http://www.w3.org/2000/svg" xmlns:xlink="http://www.w3.org/1999/xlink" version="1.1" viewBox="0 -205 1024 1024">
  <g transform="matrix(1 0 0 -1 0 819)">
   <path fill="currentColor"
d="M56 850h280v126l80 -26q21 -10 0 -22l-30 -16v-62h240v124l80 -28q23 -10 2 -22l-32 -16v-58h182l42 58l64 -60q3 -4 4 -10q0 -12 -14 -12h-278v-30l4 -60q0 -14 -20 -28q-21 -13 -38 -10l4 92v36h-240v-28l4 -60q1 -16 -22 -28q-24 -13 -36 -10l4 88v38h-196
q-19 -1 -68 -10l-16 34v0v0zM108 654h366v120l84 -28q16 -9 0 -20l-34 -16v-56h270l42 56l70 -60q6 -3 6 -8q0 -12 -12 -12h-376v-116h200l44 54l62 -58q3 -3 4 -8q0 -12 -12 -12h-298v-116h282l32 40l60 -44q7 -4 8 -10q-1 -3 -34 -30l-8 -62q-3 -52 -14 -80
q-12 -27 -36 -42q-22 -14 -64 -27q-6 32 -38 51q-31 17 -94 32l4 20q53 -12 92 -18q37 -7 68 -2q29 3 34 70l4 78h-296v-206l4 -83q0 -14 -20 -26q-21 -12 -38 -12l4 116v211h-334q-31 0 -50 -8l-22 32h406v116h-224q-21 0 -68 -8l-16 32h308v116h-282q-18 0 -66 -8l-18 32
v0v0z" />
  </g>

</svg>
