<?xml version="1.0" standalone="no"?>
<!DOCTYPE svg PUBLIC "-//W3C//DTD SVG 1.1//EN" "http://www.w3.org/Graphics/SVG/1.1/DTD/svg11.dtd" >
<svg xmlns="http://www.w3.org/2000/svg" xmlns:xlink="http://www.w3.org/1999/xlink" version="1.1" viewBox="0 -36 256 256">
  <g transform="matrix(1 0 0 -1 0 220)">
   <path fill="currentColor"
d="M63 209.5q-4 14.5 -18 33.5l2 2q21 -12 26.5 -20t-0.5 -19t-10 3.5zM84 197l12 -15l-7 -5q-8 -20 -20 -41v-17l5 -2q10 12 19 35l13 -13q-10 -3 -28 -24q13 -5 19 -12.5t2 -17.5t-10 3.5t-20 26.5v-101l-12 -7v111q-18 -26 -46 -45l-2 3q18 17 36 43t31 62h-28
q-10 -1 -19 -3l-9 10h55zM164 58l-13 -7v10h-31v-20l-13 -7q1 25 1 52t-1 48l14 -7h10v47h-1q-10 0 -19 -2l-9 9h29q0 48 -1 64l21 -10l-8 -10v-44h7l13 12l12 -19h-32v-47h7l7 8l12 -11l-6 -6q0 -43 1 -60zM120 68h31v52h-31v-52zM172 66q10 29 10 85t-2 82l14 -9h29l8 10
l11 -12l-5 -5v-184q0 -20 -17 -25q-5 14 -28 20v4q26 -3 29.5 -1.5t3.5 5.5v71h-32q-4 -35 -16.5 -57.5t-47.5 -42.5l-2 2q35 28 45 57zM194 169h31v48h-31v-48zM193 114h32v48h-31q0 -25 -1 -48z" />
  </g>

</svg>
