<?xml version="1.0" standalone="no"?>
<!DOCTYPE svg PUBLIC "-//W3C//DTD SVG 1.1//EN" "http://www.w3.org/Graphics/SVG/1.1/DTD/svg11.dtd" >
<svg xmlns="http://www.w3.org/2000/svg" xmlns:xlink="http://www.w3.org/1999/xlink" version="1.1" viewBox="0 -36 256 256">
  <g transform="matrix(1 0 0 -1 0 220)">
   <path fill="currentColor"
d="M201 166v-7h-53v7h53zM118 200h-80q0 -12 -4 -16t-10 -6.5t-10.5 1t5 11.5t13.5 26h6v-9h80v19h-50q-10 -1 -21 -3l-9 10h150l14 10l17 -17h-86v-19h85l8 9l17 -13q-13 -2 -34 -24l-3 3l13 18h-86q0 -35 1 -44l-17 -5q1 11 1 49zM102 188v-7h-51v7h51zM199 188v-7h-51v7
h51zM102 166v-7h-53v7h53zM36 155q25 -9 31 -14.5t0 -14t-12.5 3.5t-21.5 22zM45 100q-10 0 -20 -3l-10 10h35l11 9l14 -12l-9 -4v-54q11 -12 37.5 -15.5t144.5 2.5v-4q-20 -3 -21 -13q-69 -1 -104.5 1t-49.5 13.5t-20 8.5t-27 -24l-11 12l36 20v53h-6zM107 147
q15 -7 22.5 -14t2 -17t-10 2t-17.5 26zM154 86q-18 -19 -33.5 -28t-35.5 -16l-1 4q18 9 34 22t28 29h-24q-10 -1 -20 -3l-9 10h61q0 39 -1 50l24 -9l-8 -7v-34h7q26 30 30 43l17 -14q-7 -1 -41 -29h28l11 11l17 -18h-69v-10q37 -10 48 -16.5t8.5 -17t-13 2t-43.5 26.5
q0 -27 1 -46l-17 -6q1 20 1 56z" />
  </g>

</svg>
