<?xml version="1.0" standalone="no"?>
<!DOCTYPE svg PUBLIC "-//W3C//DTD SVG 1.1//EN" "http://www.w3.org/Graphics/SVG/1.1/DTD/svg11.dtd" >
<svg xmlns="http://www.w3.org/2000/svg" xmlns:xlink="http://www.w3.org/1999/xlink" version="1.1" viewBox="0 -200 999 1000">
  <g transform="matrix(1 0 0 -1 0 800)">
   <path fill="currentColor"
d="M334 976l-5 3h19q184 0 198 -105q-3 -22 -18 -22t-34 24q-45 48 -88 72.5t-72 27.5zM857 617q-4 37 -7.5 68t-12.5 61.5t-26.5 62.5t-49.5 71q75 -57 119 -116.5t44 -110.5q0 -30 -9.5 -48.5t-28.5 -18.5q-25 0 -29 31zM305 643v269q30 -13 49 -21.5t32 -18.5l-24 -61
v-136q0 -24 10 -43.5t33 -19.5h210q18 0 30 11.5t12 30.5q0 2 -0.5 6t-1.5 9q-5 20 -12 49t-15 61t-17 63.5t-18 57.5l9 2q17 -56 31.5 -106t30 -90t33 -66.5t40.5 -34.5q11 -11 11 -21q0 -13 -17.5 -22t-57.5 -9q-7 0 -15.5 0.5t-17.5 1.5h-289q-47 14 -47 71v8q0 8 1 9z
M204 880h4v-20q0 -144 -21 -212t-72 -72q-30 6 -39 15.5t-9 22.5q0 4 5.5 9t13 10t15 10.5t11.5 11.5q22 20 37.5 43.5t26 51.5t17 60t11.5 70zM403 431l-62 -20l-28 43h502l36 46l65 -48l-29 -36l-1 -327q-3 -13 -11 -27.5t-20.5 -27.5t-30.5 -22.5t-40 -12.5
q-4 19 -10 32.5t-18 23t-31 16.5t-49 14v7q34 -8 60.5 -12t45.5 -4q30 0 39.5 9.5t9.5 25.5l1 321zM155 531q35 -13 60 -24t41 -23.5t23.5 -28t7.5 -37.5v-11q-15 -24 -27 -24q-6 0 -11.5 13.5t-16 34.5t-28.5 47.5t-49 52.5zM107 426l76 -41l-24 -62v-278q-27 -29 -52 -29
v410z" />
  </g>

</svg>
