<?xml version="1.0" standalone="no"?>
<!DOCTYPE svg PUBLIC "-//W3C//DTD SVG 1.1//EN" "http://www.w3.org/Graphics/SVG/1.1/DTD/svg11.dtd" >
<svg xmlns="http://www.w3.org/2000/svg" xmlns:xlink="http://www.w3.org/1999/xlink" version="1.1" viewBox="0 -36 256 256">
  <g transform="matrix(1 0 0 -1 0 220)">
   <path fill="currentColor"
d="M59 188l7 -2q13 9 30 27h-41q-10 0 -19 -2l-9 9h73q12 14 16 23l18 -9q-8 -4 -16 -14h81l14 12l18 -19h-117q-19 -20 -39 -35v-64l-15 -7q1 12 1 21v43q-23 -13 -41 -19l-2 3q20 10 42 26zM143 211l22 -9l-7 -6v-17h35l13 12l17 -19h-65v-44h47l14 13l17 -20h-131
q-10 0 -19 -2l-9 9h67v44h-26q-10 0 -19 -2l-9 9h54q0 13 -1 32zM135 108.5q7 -7.5 0.5 -16t-9.5 2.5t-13 25l2 2q13 -6 20 -13.5zM184 88l15 13l16 -20h-149q-11 0 -20 -4l-8 11h146zM102.5 55q7.5 -10 4 -18t-7.5 -7.5t-7.5 13.5t-17.5 32l2 2q19 -12 26.5 -22zM144 26
q19 38 22 57l21 -14l-9 -4q-18 -24 -27 -39h57l16 13l18 -20h-196q-10 0 -19 -2l-9 9h126z" />
  </g>

</svg>
