<?xml version="1.0" standalone="no"?>
<!DOCTYPE svg PUBLIC "-//W3C//DTD SVG 1.1//EN" "http://www.w3.org/Graphics/SVG/1.1/DTD/svg11.dtd" >
<svg xmlns="http://www.w3.org/2000/svg" xmlns:xlink="http://www.w3.org/1999/xlink" version="1.1" viewBox="0 -52 256 256">
  <g transform="matrix(1 0 0 -1 0 204)">
   <path fill="currentColor"
d="M23 244l10 -9h65l8 9l11 -11q2 -2 1 -2q0 -1 -2 -2l-6 -3v-16q0 -49 1 -69q1 -21 5 -40q3 -20 11 -34q7 -15 22 -25q15 -8 45 -13q28 -5 34 -2t7 13l4 19h3v-18q-1 -7 1 -10t5 -5q3 -3 -1 -6q-3 -3 -16 -4q-12 -2 -38 2q-25 3 -43 13q-18 9 -28 24q-10 16 -15 40
q-4 23 -6 46q-1 24 -1 70v19h-65v-52q1 -73 -5 -106q-5 -33 -25 -55l-2 3q16 24 20 64q2 39 2 96v52q-1 6 -4 10zM222 174q1 4 -2 8l1 2l15 -8q4 -2 2 -3q-1 0 -3 -1t-3 -1q-10 -33 -23 -55q5 -14 12 -25q10 -13 11 -6l10 27l4 -1l-6 -29q-2 -6 1 -11q3 -4 0 -6
q-13 -1 -28 20q-6 7 -11 21q-18 -26 -54 -42l-2 4q33 19 52 49q-6 19 -9 37q0 3 -1 11q-1 7 -3 39h-49q-5 0 -8 -2l-7 7h64v13v21q0 6 -5 8l1 2l19 -5q1 -1 1 -2q-4 0 -6 -5v-20v-12h26l10 10l16 -12q2 -2 1 -2q0 -1 -3 -1h-50q1 -30 4 -46q2 -15 6 -30q11 21 17 46z
M131 182l8 -7h24l6 8l10 -9q2 -1 -2 -3l-3 -1v-19l1 -23q0 -3 -7 -6q-2 -1 -3 -1v12h-25v-8q0 -7 -10 -8q1 7 1 19v37q0 3 -3 7zM35 63l-2 2q21 33 30 59q2 6 3 10q-6 17 -26 48l2 1q17 -19 27 -39q1 2 2 6q3 6 5 14q4 13 4 16q-1 3 -3 6l1 2l19 -9q1 -2 -1 -2q-5 0 -8 -5
q-1 -4 -4 -12l-9 -27q8 -15 12 -27q5 -16 6 -24q1 -10 -3 -12q-6 -3 -7 11q-3 15 -6 26q-3 7 -6 16q0 -1 -1 -1q-1 -1 -1 -4q-12 -30 -34 -55zM140 138h25v33h-25v-33zM163 103q-23 -6 -26 -8q-4 -3 -8 -7l-9 12l65 15l2 -4zM203 240l2 3q22 -7 23 -18q0 -6 -5 -7q-3 0 -5 4
q-3 12 -15 18z" />
  </g>

</svg>
