<?xml version="1.0" standalone="no"?>
<!DOCTYPE svg PUBLIC "-//W3C//DTD SVG 1.1//EN" "http://www.w3.org/Graphics/SVG/1.1/DTD/svg11.dtd" >
<svg xmlns="http://www.w3.org/2000/svg" xmlns:xlink="http://www.w3.org/1999/xlink" version="1.1" viewBox="0 -144 1024 1024">
  <g transform="matrix(1 0 0 -1 0 880)">
   <path fill="currentColor"
d="M647 680l-1 7v3v4v4l-1 2v5v2v5l-1 2v2h28l27 1l21 1l125 136l45 53l2 1l45 -46l4 -19l-21 5l-81 -68l-83 -61l53 2l54 1h27h7l-6 11l-17 23l-12 10l5 8l15 -8l14 -6l14 -8l13 -8l11 -9l11 -11l10 -10l8 -12l8 -13l6 -13l-4 -25l-20 -14l-25 5l-14 20v9l-1 9l-2 10l-3 10
l-3 7l-13 -5l-25 -8l-26 -7l-9 -2v-217l-56 -29l52 -42l-27 -22v-98l-64 -32v43h-221v-82h242l54 53l64 -53v-22h-360v-79l58 -3h102l114 4l127 7l4 -71l-129 -4l-116 1l-104 4l-91 8l-79 12l-66 16l-54 20l-40 26l-23 26l-18 -22l-23 -21l-24 -20l-27 -18l-29 -16l-31 -14
l-33 -12l-4 9l52 41l23 20l22 21l19 21l16 22l15 22l13 23l11 24l7 20l4 12l58 -30l11 -16l-21 -4l-20 -35l-7 -9l27 -18l37 -16l50 -13l63 -10l42 -4v180h-199l-65 -32v194l65 -32h484l31 26v227l-63 -11l-34 -5l-10 -19l-12 15v3v2v4l-1 2v3v4v2l-1 4v5zM920 57l-1 13v1v7
v1l-1 9v10v1v9l-1 4v1l60 3l-56 -74l-1 9v6zM737 397h-484v-88h484v88zM39 678l-1 8v1v1v2l-1 4v2v1v3l-1 1v4v2v3l-1 2v3l-1 1v3v1v2l28 2l29 2l28 2h3l155 187l12 16l6 6l46 -44l5 -19l-20 4l-87 -81l-73 -60l-8 -7l72 6l28 2l26 1h2l-8 13l-18 25l-13 10l6 8l14 -8l16 -7
l14 -8l13 -9l12 -9l11 -10l11 -11l9 -12l8 -13l6 -13l-3 -24l-19 -15l-25 3l-15 19l-1 9l-1 10l-3 10l-4 10l-1 4l-33 -12l-26 -8l-13 -3v-230l-65 -33v246l-59 -12l-29 -6l-7 -1l-9 -19l-13 15v2v2v1l-1 2v4v1v1l-1 4v3zM375 670l65 -32h111l32 27l59 -49l-27 -21v-85
l-64 -32v32h-111v-16l-65 -32v208zM667 642l63 -19l15 -12l-22 -10l-4 -11l-7 -17l-8 -16l-20 -30l-11 -15l-41 -42l-7 6l9 16l13 35l6 16l4 15l4 16l2 14l2 15l1 14v8h-1zM140 625l-21 -12l-2 -10l-6 -16l-6 -16l-8 -16l-9 -17l-11 -15l-11 -16l-13 -15l-13 -16l-8 5l8 18
l6 19l5 18l7 32l2 15l1 15l1 13l-1 13l-1 6h-1v19l65 -13zM905 532v10l-2 10l-2 10l-3 11l-4 11l-6 12l-13 24l-11 11l6 7l13 -8l14 -8l12 -8l11 -9l11 -11l10 -10l8 -12l8 -12l6 -13l6 -14l-6 -24l-21 -14l-24 6l-13 21v10zM290 559l1 8v8l-1 9l-2 9l-4 11l-5 10l-7 11
l-9 12l-11 9l4 8l14 -7l14 -6l13 -8l12 -8l11 -10l10 -10l8 -12l7 -13l4 -14l4 -14l-10 -23l-23 -9l-22 9l-10 23zM551 616h-111v-85h111v85zM644 716l5 -65l-16 64zM34 722l7 -64l-18 63zM553 756l53 -48v-22h-222v22h125zM553 829l53 -48v-22h-222v22h125zM722 792l-12 18
l-7 9l-9 9l-30 28l-12 9l-14 7l4 9l15 -4l16 -3l15 -3l14 -5l6 -2l7 8l23 28l28 37l14 21l6 9l2 5l-1 1l6 6l47 -44l6 -19l-25 5l-24 -18l-41 -25l-16 -8l-16 -8l-4 -3l9 -4l13 -6l24 -16l10 -9l7 -23l-11 -22l-24 -7l-21 11zM116 798l-5 7l-13 16l-8 8l-20 16l-24 18l-14 7
l3 9l16 -4l16 -2l15 -3l14 -3l6 -2l6 7l33 53l12 22l5 10l4 11l-1 1l3 4h1l2 5l51 -40l8 -18l-27 1l-29 -23l-24 -18l-29 -17l-2 -1l8 -3l23 -11l12 -6l10 -8l8 -23l-10 -23l-24 -8l-22 11zM598 897l43 -38v-21h-272v21h196zM553 980l53 -48v-22h-222v22h125z" />
  </g>

</svg>
