<?xml version="1.0" standalone="no"?>
<!DOCTYPE svg PUBLIC "-//W3C//DTD SVG 1.1//EN" "http://www.w3.org/Graphics/SVG/1.1/DTD/svg11.dtd" >
<svg xmlns="http://www.w3.org/2000/svg" xmlns:xlink="http://www.w3.org/1999/xlink" version="1.1" viewBox="0 -36 256 256">
  <g transform="matrix(1 0 0 -1 0 220)">
   <path fill="currentColor"
d="M85 205q-8 -8 -24.5 -18.5t-42.5 -26.5l-3 2q21 16 38.5 32.5t26.5 29.5l16 -15zM134 174.5q0 -1.5 1 -12.5l-17 -6q1 29 1 55t-1 37l23 -8l-7 -6v-59.5zM159 220q45 -16 57.5 -26.5t7 -23.5t-17.5 5.5t-49 42.5zM120 111h-56v-35h56v35zM189 111h-54v-35h54v35zM135 118
h53l9 11l16 -15l-10 -5v-21q0 -11 1 -22l-15 -6v9h-54v-37q26 1 68 3q-14 12 -32 22l2 2q17 -5 33 -12t27 -14.5t4.5 -18.5t-10.5 -4t-19 20q-14 -2 -90 -8.5t-93 -11.5l-10 17q24 0 105 5v37h-56v-10l-15 -5q1 19 1 36t-1 38l15 -10h56q0 18 -1 35l23 -9l-7 -7v-19z" />
  </g>

</svg>
