<?xml version="1.0" standalone="no"?>
<!DOCTYPE svg PUBLIC "-//W3C//DTD SVG 1.1//EN" "http://www.w3.org/Graphics/SVG/1.1/DTD/svg11.dtd" >
<svg xmlns="http://www.w3.org/2000/svg" xmlns:xlink="http://www.w3.org/1999/xlink" version="1.1" viewBox="0 -36 256 256">
  <g transform="matrix(1 0 0 -1 0 220)">
   <path fill="currentColor"
d="M54 81q21 -26 21 -34.5t-8 -15t-8.5 5.5t-7.5 42zM78 89q28 -21 30 -29.5t-5 -17t-10 5t-18 39.5zM58.5 209.5q-13.5 -20.5 -28.5 -40.5l40 2q6 11 11 25l16 -17q-4 0 -25 -27t-42 -47l55 6q-5 13 -13 27l3 2q30 -23 30 -33.5t-5.5 -16t-7 0.5t-5.5 14q-30 -5 -43.5 -9.5
t-19.5 -9.5l-11 21q5 0 21 16t33 40q-16 -2 -25.5 -4.5t-19.5 -8.5l-9 19q8 2 22 24.5t22 50.5l20 -13q-5 -1 -18.5 -21.5zM180 236q-3 -3 -6 -9t-5 -13h46l12 11l15 -18h-62q14 -21 33 -34.5t34 -16.5v-4q-13 0 -17 -12q-17 10 -31 27t-23 40h-9q-13 -29 -33.5 -47.5
t-41.5 -26.5l-1 4q21 13 36 28.5t26 41.5h-25q-10 0 -19 -2l-9 9h55q6 23 6 32zM188 118h19l13 11l14 -18h-98q-10 0 -19 -2l-9 9h43q-4 22 -17 37l3 2q22 -13 26 -20.5t-5 -18.5h23q10 16 18 40l19 -13l-10 -4q-8 -9 -20 -23zM176 114v-40h39l13 15l16 -22h-68q0 -36 1 -52
l-15 -8q1 27 1 60h-33q-10 0 -19 -2l-9 9h61v40h13zM23 71q18 -26 19.5 -34t-3 -13.5t-10 -5t-3.5 10t-6 42.5h3z" />
  </g>

</svg>
