<?xml version="1.0" standalone="no"?>
<!DOCTYPE svg PUBLIC "-//W3C//DTD SVG 1.1//EN" "http://www.w3.org/Graphics/SVG/1.1/DTD/svg11.dtd" >
<svg xmlns="http://www.w3.org/2000/svg" xmlns:xlink="http://www.w3.org/1999/xlink" version="1.1" viewBox="0 -205 1024 1024">
  <g transform="matrix(1 0 0 -1 0 819)">
   <path fill="currentColor"
d="M508 678l90 -36q3 -4 4 -8q0 -3 -6 -6l-36 -18v-178h232v202l84 -30q6 -1 4 -10q0 -3 -36 -20v-92l4 -78q0 -13 -20 -26q-18 -12 -36 -12v38h-232v-281h262v221l84 -30q3 0 4 -6q9 -7 -36 -28v-132l4 -73q1 -12 -18 -28q-21 -12 -38 -12v60h-574l-34 -36l-62 48l32 24
v219l86 -30q6 -6 4 -12q-1 -3 -38 -18v-167h272v281h-228l-36 -32l-54 52l26 16v202l80 -28q9 -4 6 -10q3 -5 -32 -22v-150h238v246v0v0zM334 936q10 -9 0 -18q-24 -6 -32 -12l-16 -16t-36 -56h200l42 52l60 -62q9 -16 -8 -16h-212q42 -32 60 -52q19 -19 26 -40
q7 -22 -4 -40q-12 -19 -32 -14q-21 6 -24 36q-3 29 -14 52q-10 21 -40 58h-68q-75 -112 -150 -184l-14 12q66 89 114 176t72 162l76 -38v0v0zM726 946q10 -9 0 -18q-24 -6 -30 -14q-7 -6 -16 -18q-7 -12 -40 -62h244l42 52l60 -62q9 -16 -8 -16h-234q42 -32 60 -52
q18 -21 28 -42q7 -22 -4 -40q-12 -19 -32 -14q-21 6 -24 36q-3 29 -14 52q-12 24 -42 60h-88q-39 -60 -84 -116l-18 10q42 74 72 140q27 65 48 134l80 -30v0v0z" />
  </g>

</svg>
