<?xml version="1.0" standalone="no"?>
<!DOCTYPE svg PUBLIC "-//W3C//DTD SVG 1.1//EN" "http://www.w3.org/Graphics/SVG/1.1/DTD/svg11.dtd" >
<svg xmlns="http://www.w3.org/2000/svg" xmlns:xlink="http://www.w3.org/1999/xlink" version="1.1" viewBox="0 -52 256 256">
  <g transform="matrix(1 0 0 -1 0 204)">
   <path fill="currentColor"
d="M159 122v-82q1 -11 -1 -19q-3 -7 -19 -10q0 7 -15 12l-15 4v3q28 -4 34 -4t6 14v30l-14 -8q-6 -4 -15 -9q-5 -3 -6 -4q-5 -4 -7 -9l-11 11l53 25v50h-31q-6 0 -11 -3l-8 8h46l8 10l13 -11l2 -2q0 -1 -2 -2zM180 41l-11 12l53 24v49h-31q-7 0 -12 -3l-8 8h47l8 10l11 -11
l3 -2q0 -1 -3 -2l-5 -4v-79q1 -13 -2 -21q-1 -7 -18 -10q0 7 -15 12l-16 4l1 3q28 -4 34 -4t6 13v31l-13 -7q-9 -5 -21 -13q-5 -4 -8 -10zM179 182l1 3q11 -4 21 -12q11 -8 12 -17q0 -9 -4 -11q-6 -1 -7 7q0 2 -1 4q-1 3 -2 4q-8 -1 -26 -3q-22 -1 -32 -3q-9 -3 -15 -7
l-8 14q9 0 14 5q17 19 26 36q1 3 -2 6l2 2l17 -8q2 -1 2 -2l-1 -1q-4 0 -6 -2q-11 -11 -30 -33q-2 -1 -2 -2q11 0 31 2q20 1 28 1q-2 2 -2 3q-6 8 -16 14zM254 185v-4q-6 2 -10 0q-4 -1 -8 -6q-9 5 -18 12q-9 6 -16 16q-9 11 -13 20q-1 3 -4 11q-3 9 -5 14l1 1l15 -3
q2 -1 3 -2q0 -1 -2 -2q-5 -1 -5 -7q6 -14 14 -23q9 -9 15 -14q6 -4 12 -7q1 -1 4 -2l6 -3h5q4 -1 6 -1zM94 166l-2 4q26 24 44 54q1 4 4 8q1 1 1 2q1 3 -2 7l3 1l16 -9l2 -2q0 -1 -2 -2q-3 0 -8 -2q-2 -5 -10 -15q-3 -3 -4 -5q-18 -23 -42 -41zM178 112v2q13 -4 20 -12
q7 -9 6 -15q0 -7 -5 -7q-4 0 -6 6q0 6 -3 12q-1 6 -12 14zM107 112l1 2q11 -4 19 -12q7 -7 7 -15q-1 -8 -6 -7q-5 0 -5 5q0 3 -2 8q-1 3 -1 4q-2 6 -13 15zM21 160h51l6 8l13 -10q2 -1 2 -2q-1 -1 -4 -1h-28v-38h19l6 7l13 -10q4 -2 -2 -2h-36v-69l34 27l2 -2l-35 -35
q-3 -5 -6 -12l-14 12q3 1 6 6q2 1 3 2v71h-22q-7 0 -12 -4l-8 9h42v38h-10q-7 0 -12 -3zM65 238q2 -1 -1 -3q-5 2 -8 -4q-15 -48 -49 -84l-2 3q25 36 35 68q6 20 5 21q-1 5 -4 7l2 2zM38 200h41l6 8l13 -10q2 -1 2 -2q-1 -1 -4 -1h-59z" />
  </g>

</svg>
