<?xml version="1.0" standalone="no"?>
<!DOCTYPE svg PUBLIC "-//W3C//DTD SVG 1.1//EN" "http://www.w3.org/Graphics/SVG/1.1/DTD/svg11.dtd" >
<svg xmlns="http://www.w3.org/2000/svg" xmlns:xlink="http://www.w3.org/1999/xlink" version="1.1" viewBox="0 -36 256 256">
  <g transform="matrix(1 0 0 -1 0 220)">
   <path fill="currentColor"
d="M132 132h22v29h-22v-29zM136 209q0 15 -1 33l13 -8h59l7 9l14 -13l-7 -6q0 -29 1 -39l-13 -6v7h-61v-4l-13 -4q1 16 1 31zM148 212h61v14h-61v-14zM148 193h61v12h-61v-12zM240 122l-13 -4v7h-95v-6l-13 -4q1 11 1 30t-1 31l14 -8h91l9 9l13 -13l-7 -5q0 -25 1 -37z
M167 132h23v29h-23v-29zM202 132h25v29h-25v-29zM170 126q14 -8 19 -14.5t-1.5 -14t-8.5 3t-11 22.5zM165 70h47l8 8l13 -13l-7 -5q-5 -30 -11 -39.5t-19 -13.5q-3 8 -7 12.5t-16 8.5l1 4q22 -7 27.5 -4.5t10.5 35.5h-49q-13 -37 -66 -54l-1 3q54 26 58 75h-14q-10 0 -19 -2
l-9 9h108l14 12l14 -19h-79q-2 -10 -4 -17zM65 245l20 -9l-7 -7v-27h23l8 8l14 -15q-7 0 -28 -27l-2 2l10 25h-25v-56h17l6 8l14 -14l-8 -5q-8 -28 -21 -50q19 -17 20.5 -25.5t-3.5 -16.5t-8 4t-14 26q-24 -38 -54 -58l-3 3q29 25 49 65q-13 15 -28 29l2 3q17 -11 30 -22
q10 19 16 46h-53q1 -32 -5.5 -61t-25.5 -54l-3 1q12 28 17 52t5 53v47t-1 41l14 -9h25q0 19 -1 43zM41 139h25v56h-25v-56z" />
  </g>

</svg>
