<?xml version="1.0" standalone="no"?>
<!DOCTYPE svg PUBLIC "-//W3C//DTD SVG 1.1//EN" "http://www.w3.org/Graphics/SVG/1.1/DTD/svg11.dtd" >
<svg xmlns="http://www.w3.org/2000/svg" xmlns:xlink="http://www.w3.org/1999/xlink" version="1.1" viewBox="0 -36 256 256">
  <g transform="matrix(1 0 0 -1 0 220)">
   <path fill="currentColor"
d="M37 130.5q-6 -13.5 -14.5 -15.5t-11 5t10 20.5t16.5 44.5h4q1 -41 -5 -54.5zM53 242l23 -13l-8 -7v-167q0 -22 1 -36l-16 -9q1 35 1 56v124q0 29 -1 52zM98 173.5q6 -9.5 4 -17.5t-8 -8.5t-8 13t-11 33.5l3 2q14 -13 20 -22.5zM143 190q2 14 3 27t1 26l22 -11l-7 -6
q-3 -21 -5 -36h58l15 12l16 -19h-90q-10 -52 -33 -92t-47 -61l-4 3q17 18 38 58t32 92h-16q-10 0 -19 -2l-9 9h45zM190 141q-25 -67 -50 -96q25 1 79 3q-16 25 -29 38l3 3q32 -22 41 -33t3 -23t-9.5 -3.5t-6.5 13.5q-53 -6 -66 -9.5t-21 -8.5l-10 19q4 1 11 8.5t21.5 39.5
t20.5 68l22 -14z" />
  </g>

</svg>
