<?xml version="1.0" standalone="no"?>
<!DOCTYPE svg PUBLIC "-//W3C//DTD SVG 1.1//EN" "http://www.w3.org/Graphics/SVG/1.1/DTD/svg11.dtd" >
<svg xmlns="http://www.w3.org/2000/svg" xmlns:xlink="http://www.w3.org/1999/xlink" version="1.1" viewBox="0 -36 256 256">
  <g transform="matrix(1 0 0 -1 0 220)">
   <path fill="currentColor"
d="M61 216l15 -10h71q-1 7 -4.5 16t-12.5 21l2 2q19 -11 25.5 -20.5t-3.5 -18.5h55l13 12l18 -19h-164q0 -45 -1 -76t-13 -59.5t-44 -54.5l-2 3q40 38 46 108q-28 -20 -37 -34l-13 15q17 5 50 24q0 67 -1 91zM44.5 167.5q5.5 -8.5 -2 -17t-10 6.5t-11.5 29l2 3
q16 -13 21.5 -21.5zM113 97h89v76h-89v-76zM216 118q0 -21 1 -31l-15 -5v8h-89v-5l-15 -6q1 18 1 55.5t-1 53.5l15 -8h89l9 9l13 -13l-8 -8v-50zM103 68q-3 -20 -7 -30t-11.5 -12t-12 1t5.5 11t21 30h4zM145 87q24 -11 29.5 -18t-1 -15.5t-12 5t-18.5 24.5zM204 73
q25 -11 30 -19t-0.5 -15.5t-11.5 4t-20 27.5zM116 50q0 12 -1 28l20 -10l-6 -7v-26q1 -10 11 -9h42q12 -1 13.5 6t1.5 23h5q0 -14 1.5 -20t9.5 -9q-3 -12 -23 -12h-54q-22 -1 -20 19v17zM165 147h11l9 9l13 -16h-34q0 -1 -2 -7q20 -8 26 -12.5t3.5 -14t-9 -0.5t-22.5 23
q-9 -19 -42 -30l-1 3q30 18 34 38h-6q-8 1 -18 -2l-7 9h32q1 14 0 25l18 -8l-5 -6v-11z" />
  </g>

</svg>
