<?xml version="1.0" standalone="no"?>
<!DOCTYPE svg PUBLIC "-//W3C//DTD SVG 1.1//EN" "http://www.w3.org/Graphics/SVG/1.1/DTD/svg11.dtd" >
<svg xmlns="http://www.w3.org/2000/svg" xmlns:xlink="http://www.w3.org/1999/xlink" version="1.1" viewBox="0 -36 256 256">
  <g transform="matrix(1 0 0 -1 0 220)">
   <path fill="currentColor"
d="M200 213l13 12l16 -19h-74q-10 0 -19 -2l-10 9h74zM231 38.5q1 10.5 2 29.5h5q0 -7 1 -22t9 -18q-6 -14 -21 -13h-22q-21 -1 -20 21v109h-25q0 -55 -13.5 -86.5t-45.5 -51.5l-1 3q31 31 38.5 63t7.5 72h-7q-6 0 -16 -2l-9 9h102l14 12l16 -19h-47v-107q0 -10 11 -10h12
q8 0 9 10.5zM45 177h45v29h-45v-29zM45 142h45v28h-45v-28zM90 117v18h-45v-28l40 3zM52 213h37l8 10l13 -13l-7 -7v-67q7 11 8 16l13 -15q-5 -1 -9 -7l-12 -18v-76q0 -10 -3 -16t-12 -12q-4 10 -9.5 13.5t-13.5 5.5v4q14 -2 19.5 -1.5t5.5 14.5v51q-33 -43 -81 -69l-1 4
q36 26 72 73q-52 -10 -57 -14l-9 16l18 1v81t-1 33l12 -7h3q10 25 11 33l16 -11q-11 -7 -21 -22z" />
  </g>

</svg>
