<?xml version="1.0" standalone="no"?>
<!DOCTYPE svg PUBLIC "-//W3C//DTD SVG 1.1//EN" "http://www.w3.org/Graphics/SVG/1.1/DTD/svg11.dtd" >
<svg xmlns="http://www.w3.org/2000/svg" xmlns:xlink="http://www.w3.org/1999/xlink" version="1.1" viewBox="0 -205 1024 1024">
  <g transform="matrix(1 0 0 -1 0 819)">
   <path fill="currentColor"
d="M626 942q6 -3 6 -6q6 -9 -8 -14q-20 -2 -28 -10q-6 -6 -20 -32q-15 -24 -50 -92h326l42 52l62 -60q6 -4 6 -8q0 -9 -8 -8h-444q-70 -109 -118 -160l-12 10q98 156 176 366l70 -38v0v0zM858 618l62 -38q12 -6 10 -14q-1 -6 -34 -26v-218q0 -15 -2 -36q-3 -19 -18 -38
q-13 -19 -50 -32q-9 21 -26 34q-15 11 -60 20l4 18q53 -10 74 -8q20 1 26 20q4 18 2 42v210l-132 -52v-220l2 -80q0 -15 -18 -30q-16 -14 -38 -16l4 118v210l-134 -40v-303q0 -41 12 -50q13 -9 38 -10h272q54 2 66 22q9 22 12 53q3 30 6 118h20q2 -60 8 -102q5 -44 32 -49
q-16 -41 -38 -62q-21 -18 -74 -24h-320q-35 3 -52 12q-15 9 -24 24q-7 16 -8 62v289l-26 -12q-31 -9 -44 -20l-28 24l98 36v186l76 -28q8 -1 8 -8q0 -5 -6 -10l-28 -16v-106l134 42v218l82 -24l6 -6q1 -5 -4 -10l-34 -20v-142l120 50l24 42v0v0zM404 894q7 -3 2 -12
q-1 -3 -16 -2q-15 -9 -42 -32q-27 -22 -90 -88q60 -93 78 -182q18 -90 18 -152q3 -61 -2 -136q-3 -76 -18 -124q-15 -46 -42 -73t-78 -52q-10 28 -32 44q-19 12 -88 36l4 16q93 -24 132 -16q39 9 54 51q14 41 20 104q6 60 4 136q0 74 -18 176q-99 -180 -252 -324l-12 10
q123 136 246 374q-4 22 -38 86q-104 -91 -196 -152l-10 12q77 64 184 170q-51 72 -132 138l12 12q93 -66 142 -126q78 87 108 154l62 -48v0v0z" />
  </g>

</svg>
