<?xml version="1.0" standalone="no"?>
<!DOCTYPE svg PUBLIC "-//W3C//DTD SVG 1.1//EN" "http://www.w3.org/Graphics/SVG/1.1/DTD/svg11.dtd" >
<svg xmlns="http://www.w3.org/2000/svg" xmlns:xlink="http://www.w3.org/1999/xlink" version="1.1" viewBox="0 -205 1024 1024">
  <g transform="matrix(1 0 0 -1 0 819)">
   <path fill="currentColor"
d="M506 458l48 -18h274l24 32l56 -40q6 -6 6 -8q0 -7 -26 -28v-263l4 -78q0 4 -18 -10t-38 -16v60h-278v-28q0 -13 -20 -26q-21 -12 -36 -12l4 92v343v0v0zM558 115h278v143h-278v-143v0v0zM558 284h278v130h-278v-130v0v0zM708 858h84v126l68 -26q10 -6 6 -14q1 -2 -28 -16
v-70h48l30 38l52 -48q2 -3 2 -6q0 -10 -8 -10h-122l-8 -118h74l24 38q60 -48 60 -50q4 -12 -4 -12h-124q15 -54 36 -92q17 -37 44 -64q23 -28 62 -38v-16q-36 -1 -50 -4q-15 -3 -30 -18q-18 29 -32 58q-13 29 -26 68q-12 36 -26 106h-10q-12 -82 -56 -140q-42 -57 -108 -96
l-8 12q48 41 84 98q33 57 42 126q-22 0 -28 -2q-6 0 -24 -6l-16 32h70l6 120q-33 0 -42 -2q-7 -3 -26 -6l-16 32v0v0zM436 848h100v142l72 -24q11 -6 8 -14q0 -3 -32 -18v-86h22l28 36l54 -46q2 -3 2 -8q0 -7 -8 -8h-100l-4 -116h40l24 34q49 -43 50 -46q0 -12 -8 -12h-108
l-4 -34q57 -31 82 -52q21 -20 30 -40q6 -19 -2 -34q-10 -15 -28 -14q-17 0 -22 24q-6 24 -20 46q-13 21 -46 54q-18 -55 -50 -106q-33 -52 -84 -104l-12 10q47 72 74 132q27 59 36 118q-72 0 -78 -2q-3 0 -20 -6l-16 32h116l2 118h-2q-36 0 -50 -2q-12 -3 -30 -6l-16 32v0v0
zM262 954q6 -6 4 -12q0 -4 -18 -8q-13 -6 -22 -20q-8 -13 -34 -64h100l28 30l52 -46q7 -7 2 -10q-1 -6 -28 -18q-21 -16 -38 -38q-16 -22 -52 -80h84l28 30l42 -42q6 -4 6 -8q0 -7 -20 -16v-238l4 -68q0 -10 -18 -22q-16 -10 -34 -10v28h-214v-8q0 -12 -18 -26
q-19 -13 -34 -14l4 98v268q-31 -59 -56 -88l-12 12q36 63 82 162q43 96 92 238l70 -30v0v0zM134 368h84v138h-84v-138v0v0zM266 368h82v138h-82v-138v0v0zM134 532h84v130h-84v-130v0v0zM266 662v-130h82v130h-82v0v0zM132 688h98l64 136h-112q-33 -66 -66 -116l16 -20v0v0z
M96 264h22q1 -70 0 -112q-3 -41 -18 -67q-16 -23 -40 -28q-22 -1 -32 4q-9 8 -6 22q3 12 18 26q14 12 32 43q18 32 24 112v0v0zM154 276l14 8q45 -63 54 -92q9 -27 10 -49q1 -21 -10 -34q-12 -13 -30 -8q-19 6 -16 32q3 25 0 59q-4 33 -22 84v0v0zM244 284l12 10
q50 -55 68 -86q15 -31 16 -50q1 -17 -10 -31q-12 -13 -30 -8q-16 4 -16 33t-8 56q-9 26 -32 76v0v0zM330 294l12 10q63 -48 82 -74q17 -27 20 -48q0 -19 -8 -32q-9 -12 -26 -11q-18 3 -24 35q-3 33 -12 54t-44 66v0v0z" />
  </g>

</svg>
