<?xml version="1.0" standalone="no"?>
<!DOCTYPE svg PUBLIC "-//W3C//DTD SVG 1.1//EN" "http://www.w3.org/Graphics/SVG/1.1/DTD/svg11.dtd" >
<svg xmlns="http://www.w3.org/2000/svg" xmlns:xlink="http://www.w3.org/1999/xlink" version="1.1" viewBox="0 -52 256 256">
  <g transform="matrix(1 0 0 -1 0 204)">
   <path fill="currentColor"
d="M3 200h63l8 10l17 -13q4 -3 -2 -2h-48q0 -9 -1 -25v-20h28l8 10l11 -10q2 -1 2 -3q0 -1 -2 -2l-6 -4l-2 -52q-1 -32 -5 -45q-4 -7 -10 -13q-3 -3 -13 -8q-2 -1 -3 -1q0 4 -6 9q-2 1 -5 1q-5 1 -11 4v3h3q7 -2 16 -2q11 -2 17 5q5 9 7 43l2 60h-31q-3 -49 -8 -69
q-7 -35 -28 -62l-2 2q14 26 21 64q9 39 7 115h-8q-6 0 -11 -4zM218 177h-7q-5 0 -10 -3l-8 7h20l8 9l12 -10q2 -2 1 -2q0 -1 -2 -2l-5 -2l-2 -101h6l6 9l14 -11q2 -1 2 -2q-1 -1 -3 -1h-146q-6 0 -11 -3l-8 8h21l-2 99q0 6 -5 10l3 4l10 -9q3 2 9 5q11 6 7 9l2 2l12 -11
q2 -2 -2 -2q-5 2 -16 -3q-3 -1 -4 -1q-1 -1 -4 -1q-2 -1 -3 -1v-29h4l5 6l12 -8q2 -2 -2 -2h-18v-30h4l7 6l11 -8q3 -2 -2 -2h-20l1 -34h101v35q-6 0 -10 -3l-9 7h19l1 30h-2q-6 0 -11 -3l-9 7h22zM159 196l14 -6q3 -1 1 -2t-5 -4v-9h12l5 6l11 -8q2 -2 -2 -2h-26v-16h14
l5 6l8 -6q2 -1 0 -3l-4 -2v-28l1 -8q0 -6 -8 -6v5h-16v-16h20l4 6l11 -8q2 -1 -2 -1h-33l1 -15q-4 -3 -8 -4v19h-18q-6 0 -9 -3l-6 6h33v16h-16v-1q1 -5 -8 -7q1 6 1 27v23q0 2 -1 4l2 1l5 -5h17v16h-15q-5 0 -8 -3l-7 7h30v11q1 3 -5 8zM122 252l17 -9q5 -3 2 -4
q-5 0 -8 -2q-2 -3 -4 -8q-5 -8 -7 -12h97l9 10l15 -12q3 -1 2 -2q0 -1 -5 -1h-121q-13 -20 -29 -35l-2 3q17 22 25 41q9 18 9 21q0 1 -1 2q0 4 -2 6zM129 61l18 -11q1 -1 1 -2q-1 -1 -3 -1q-4 0 -9 -2q-25 -21 -62 -35l-1 3q45 27 56 41q0 3 -2 4zM185 55l1 3q64 -21 57 -44
q-5 -5 -10 4q-5 8 -17 17q-11 8 -31 20zM22 247l1 3q21 -5 30 -18q9 -16 -2 -22q-3 0 -5 7q-1 8 -6 15q-4 8 -18 15zM162 133h-16v-17h16v17zM185 133h-16v-17h16v17zM162 152h-16v-16h16v16zM169 136h16v16h-16v-16z" />
  </g>

</svg>
