<?xml version="1.0" standalone="no"?>
<!DOCTYPE svg PUBLIC "-//W3C//DTD SVG 1.1//EN" "http://www.w3.org/Graphics/SVG/1.1/DTD/svg11.dtd" >
<svg xmlns="http://www.w3.org/2000/svg" xmlns:xlink="http://www.w3.org/1999/xlink" version="1.1" viewBox="0 -205 1024 1024">
  <g transform="matrix(1 0 0 -1 0 819)">
   <path fill="currentColor"
d="M596 906q3 -4 4 -8q0 -4 -12 -8q-21 -5 -30 -10q-7 -5 -62 -76q-55 -68 -172 -178l-12 12q137 153 212 304l72 -36v0v0zM748 946q9 0 10 -6q6 -6 -12 -14q-16 -12 -16 -18q6 -27 34 -66q25 -40 80 -82q56 -42 146 -56v-18q-42 0 -56 -8q-12 -7 -32 -28q-57 36 -96 78
q-39 39 -72 94q-33 51 -56 142l70 -18v0v0zM660 766q12 -11 -12 -16q-24 -3 -42 -24q-19 -18 -40 -42q-21 -22 -78 -76l276 10q-21 45 -62 84l10 12q57 -36 84 -62q24 -24 34 -48q6 -25 -2 -40q-10 -15 -26 -14q-15 0 -18 12q-4 12 -10 34q-153 -8 -210 -16q-54 -9 -110 -36
l-32 68q41 0 68 36q50 59 104 154l66 -36v0v0zM328 486h212l38 36l46 -38q12 -6 12 -12q0 -1 -32 -28v-341q3 -24 -12 -48q-15 -23 -60 -38q-9 36 -32 48q-21 10 -74 22l4 20q37 -10 74 -14q35 -3 44 2q9 7 6 34v155q-111 -76 -150 -106q-36 -29 -50 -49l-46 47l246 130v156
h-160q-22 -1 -44 -10l-22 34v0v0zM360 412l10 10q63 -34 84 -58t18 -44q-3 -18 -14 -24q-12 -7 -24 -2q-12 6 -14 18q-3 11 -12 38q-9 25 -48 62v0v0zM640 486h214l36 36l46 -38q12 -6 12 -12q0 -1 -32 -28v-347q3 -24 -12 -46q-15 -18 -60 -34q-3 35 -30 46q-25 9 -76 24
l4 18q37 -9 74 -12q35 -3 44 2q9 7 6 34v155q-100 -70 -136 -100q-36 -28 -48 -47l-50 45l234 124v156h-160q-22 -1 -44 -10l-22 34v0v0zM672 412l10 10q63 -34 84 -58t18 -44q-2 -21 -16 -26q-12 -5 -24 0q-9 6 -12 18q-3 11 -12 38q-9 25 -48 62v0v0zM368 934
q12 -8 -2 -16q-27 -2 -42 -34q-52 -96 -110 -200l52 -22q12 -6 -2 -18l-18 -8v-490l4 -93q0 -17 -24 -32q-21 -13 -36 -12l4 131v504q-75 -123 -134 -180l-12 8q56 81 140 252q83 171 104 250l76 -40v0v0z" />
  </g>

</svg>
