<?xml version="1.0" standalone="no"?>
<!DOCTYPE svg PUBLIC "-//W3C//DTD SVG 1.1//EN" "http://www.w3.org/Graphics/SVG/1.1/DTD/svg11.dtd" >
<svg xmlns="http://www.w3.org/2000/svg" xmlns:xlink="http://www.w3.org/1999/xlink" version="1.1" viewBox="0 -205 1024 1024">
  <g transform="matrix(1 0 0 -1 0 819)">
   <path fill="currentColor"
d="M324 958q6 -6 4 -8q3 -3 -6 -8q-27 -3 -42 -18q-15 -16 -68 -98v-182l4 -96q0 -12 -20 -30q-21 -16 -36 -14l4 138v136q-45 -61 -126 -122l-10 10q78 84 138 174q59 90 92 156l66 -38v0v0zM382 962l56 -32h360l30 34l42 -34q12 -6 12 -14q-1 -3 -28 -24v-58l4 -52
q0 -13 -18 -22t-36 -12v24h-372v-10q0 -6 -20 -14q-19 -9 -34 -8l4 70v152v0v0zM432 798h372v106h-372v-106v0v0zM480 722q15 -7 0 -16l-22 -14q-4 -46 -16 -70q-12 -25 -50 -52q-40 -27 -148 -54l-6 16q75 27 114 54q36 26 48 52q11 26 14 100l66 -16v0v0zM580 742l72 -20
q6 -3 6 -6q0 -4 -6 -10l-22 -14v-68l4 -62q1 -12 -22 -24q-21 -10 -36 -10l4 90v124v0v0zM758 744l70 -22q6 -6 6 -8q0 -3 -6 -6l-22 -12v-72q0 -37 10 -40q10 -1 26 -2h58q24 7 28 38q4 32 2 82h20l2 -54q5 -49 32 -58q-9 -22 -26 -34q-16 -12 -40 -14h-84q-28 0 -46 6
q-15 5 -24 20q-6 12 -6 52v124v0v0zM882 474l40 44l60 -50q3 -3 4 -8q0 -12 -12 -12h-866q-18 1 -42 -10l-28 36h844v0v0zM190 394h538l36 42l62 -48q2 -3 2 -8q0 -12 -12 -12h-536q-37 0 -68 -8l-22 34v0v0zM222 250l62 -32h470l28 34l60 -44q6 -6 6 -8q0 -6 -32 -30v-41
l4 -82q1 -9 -16 -24q-16 -12 -38 -16v62h-492v-30q0 -11 -20 -26q-18 -13 -36 -14l4 104v147v0v0zM274 95h492v97h-492v-97v0v0zM190 310h540l36 40l60 -46q2 -3 2 -8q0 -12 -12 -12h-550q-34 0 -58 -8l-18 34v0v0zM422 566l6 12q57 -13 78 -22t34 -24q10 -13 2 -32
q-7 -19 -26 -16q-19 0 -26 16q-6 15 -20 30q-12 15 -48 36v0v0z" />
  </g>

</svg>
