<?xml version="1.0" standalone="no"?>
<!DOCTYPE svg PUBLIC "-//W3C//DTD SVG 1.1//EN" "http://www.w3.org/Graphics/SVG/1.1/DTD/svg11.dtd" >
<svg xmlns="http://www.w3.org/2000/svg" xmlns:xlink="http://www.w3.org/1999/xlink" version="1.1" viewBox="0 -36 256 256">
  <g transform="matrix(1 0 0 -1 0 220)">
   <path fill="currentColor"
d="M38.5 102.5q-5.5 -9.5 -13 -11t-10 4t9 14.5t15.5 35h4q0 -33 -5.5 -42.5zM56 192l24 -10l-9 -6v-133q0 -17 1 -28l-16 -8q1 28 1 45v99q0 23 -1 41zM101 135q6 -8 4 -15t-8 -8.5t-7.5 11t-11.5 26.5l3 3q14 -9 20 -17zM222 42q0 -7 1 -27l-16 -6v19h-80v-16l-16 -4
q1 25 1 45t-1 40l15 -6h33v35h-30q-11 0 -18 -2l-11 9h59v40h-28l-13 -2l-10 9h97l12 12l15 -19h-58v-40h45l13 11l16 -18h-74v-35h32l8 10l15 -12l-7 -6v-37zM127 35h80v45h-80v-45zM127 208h-39q0 -7 1 -17l-17 -6q1 13 1 23h-25q-10 0 -20 -2l-9 9h54q0 20 -1 31l23 -8
l-7 -7v-16h13l12 11zM159 210q-10 0 -20 -2l-9 9h35q0 15 -1 30l22 -9l-7 -7v-14h29l13 11l16 -18h-58q0 -9 1 -23l-16 -5q1 24 1 28h-6z" />
  </g>

</svg>
