<?xml version="1.0" standalone="no"?>
<!DOCTYPE svg PUBLIC "-//W3C//DTD SVG 1.1//EN" "http://www.w3.org/Graphics/SVG/1.1/DTD/svg11.dtd" >
<svg xmlns="http://www.w3.org/2000/svg" xmlns:xlink="http://www.w3.org/1999/xlink" version="1.1" viewBox="0 -36 256 256">
  <g transform="matrix(1 0 0 -1 0 220)">
   <path fill="currentColor"
d="M52 151h44v19h-44v-19zM110 151h41v19h-41v-19zM52 125h44v19h-44v-19zM110 125h41v19h-41v-19zM165 125h41v19h-41v-19zM9 14l-2 4q13 22 22 46.5t8.5 60.5t-0.5 59l17 -7h77q-2 11 -16 22l2 3q20 -5 28 -11.5t-3 -13.5h66l11 11l18 -18h-72v-19h38l9 9l17 -12l-8 -4
q0 -21 1 -25l-16 -7v6h-154q0 -57 -43 -104zM72 72v22t-1 26l25 -8l-10 -6v-10h23l15 7l16 -14h-54v-21l50 8l1 -4q-47 -13 -58 -24l-11 14q4 4 4 10zM204 93l8 10l15 -17h-64v-16q3 -4 15 -5h36q5 0 7.5 4t2.5 15h5q0 -12 3 -15.5t12 -4.5q-11 -11 -30 -10h-46
q-14 0 -16.5 11t-2 9.5t0.5 15.5t-2 29l26 -9l-11 -4v-13h41zM64.5 18q-9.5 -8 -19.5 -5t2 10.5t21 24.5h5q1 -22 -8.5 -30zM127.5 31q4.5 -8 -3.5 -16t-10.5 5t-12.5 27l3 2q19 -10 23.5 -18zM176.5 34q5.5 -5 5 -10t-7.5 -10t-8.5 6t-17.5 29l4 1q19 -11 24.5 -16z
M228.5 34.5q8.5 -6.5 4.5 -14t-9 -8t-7.5 8.5t-19.5 27l3 2q20 -9 28.5 -15.5zM69 233l-10 -12h52l9 9l16 -16h-54q19 -8 20 -14.5t-5 -11.5t-9 6t-14 20h-19q-17 -19 -38 -32l-3 2q15 14 25.5 28.5t18.5 34.5l21 -12zM170 232l-11 -11h55l11 8l15 -15h-60q14 -5 18.5 -10
t3 -10.5t-6 -6.5t-8 8.5t-15.5 18.5h-17q-12 -12 -29 -25l-3 3q17 20 25 33t12 22l19 -12z" />
  </g>

</svg>
