<?xml version="1.0" standalone="no"?>
<!DOCTYPE svg PUBLIC "-//W3C//DTD SVG 1.1//EN" "http://www.w3.org/Graphics/SVG/1.1/DTD/svg11.dtd" >
<svg xmlns="http://www.w3.org/2000/svg" xmlns:xlink="http://www.w3.org/1999/xlink" version="1.1" viewBox="0 -205 1024 1024">
  <g transform="matrix(1 0 0 -1 0 819)">
   <path fill="currentColor"
d="M318 878h300l12 98q71 -29 74 -34q0 -6 -2 -8q-1 -3 -28 -18l-4 -38h222l32 42l58 -48q3 -4 4 -10q0 -12 -12 -12h-310l-14 -84h200l26 34l62 -40q6 -6 6 -8q1 -6 -28 -32v-88l4 -66q0 -15 -18 -24t-38 -8v34h-434v-14q0 -12 -20 -24q-18 -13 -36 -10l4 102v180l56 -36
h168l12 84h-212q-21 0 -68 -8l-16 36v0v0zM430 596h118v142h-118v-142v0v0zM596 596h114v142h-114v-142v0v0zM758 596h106v142h-106v-142v0v0zM672 404q36 -81 84 -152q87 69 120 108q54 -42 54 -48t-2 -8q0 -1 -12 -2q-12 0 -42 -12q-31 -12 -104 -54q46 -51 86 -74
q39 -23 70 -31q29 -9 68 -16l-2 -18q-30 3 -50 -6q-19 -6 -38 -30q-53 28 -100 74q-45 43 -84 107q-37 63 -74 160h-8q-69 -82 -108 -118v-183l160 77l8 -16q-115 -65 -146 -87q-29 -17 -58 -50l-46 50q24 12 36 24v143q-122 -96 -226 -149l-8 16q78 55 156 121
q78 63 168 174h-180q-30 -3 -42 -8l-26 34h554l36 42q53 -42 62 -50q6 -9 4 -14q-3 -4 -18 -4h-292v0v0zM580 540l8 12q57 -19 78 -34t24 -32q3 -16 -8 -28q-10 -14 -28 -12t-20 20q-1 15 -16 36q-15 20 -38 38v0v0zM28 652h136v316l78 -36q9 -4 10 -8q3 -1 -2 -10l-36 -16
v-246h48l34 42l48 -48q4 -3 8 -14q2 -7 -10 -8h-128v-338l158 60l8 -18q-187 -89 -236 -112q-48 -23 -72 -58l-50 62l142 50v354h-72l-48 -8l-16 36v0v0z" />
  </g>

</svg>
