<?xml version="1.0" standalone="no"?>
<!DOCTYPE svg PUBLIC "-//W3C//DTD SVG 1.1//EN" "http://www.w3.org/Graphics/SVG/1.1/DTD/svg11.dtd" >
<svg xmlns="http://www.w3.org/2000/svg" xmlns:xlink="http://www.w3.org/1999/xlink" version="1.1" viewBox="0 -36 256 256">
  <g transform="matrix(1 0 0 -1 0 220)">
   <path fill="currentColor"
d="M164 226l-12 -5q-17 -43 -49 -74l-3 3q18 25 28.5 49t11.5 38zM174 242l15 -3l-7 -6q24 -56 66 -70v-5q-14 1 -16 -10q-41 28 -58 94zM201 126l-16 20l2 4q27 -16 33.5 -25t0.5 -17.5t-9 -1t-8 14.5q-72 -8 -84 -14l-7 17q12 0 25.5 24.5t19.5 41.5l20 -14l-11 -3
q-18 -30 -36 -49zM113 39.5q-7 -8.5 -14.5 -4t1.5 13t15 31.5h5q0 -32 -7 -40.5zM133 33v40v16l21 -10l-8 -6v-33q-1 -13 13 -12h34q8 0 9 9t1 23h5q2 -14 3.5 -21.5t10.5 -10.5q-7 -12 -28 -12h-42q-17 -2 -19 17zM182 83.5q5 -7.5 -2 -16.5t-10.5 4.5t-19.5 30.5l3 3
q24 -14 29 -21.5zM241 61.5q5 -8.5 -1 -17.5t-10.5 5t-23.5 34l3 4q27 -17 32 -25.5zM68 243l23 -10l-9 -7v-61h4l8 11l14 -18h-69v-43h35l10 9l13 -13l-9 -6q0 -56 1 -84l-14 -7v94h-36q1 -60 -28 -100l-3 3q14 32 16.5 63t2 84.5t-1.5 74.5l22 -11l-8 -6v-51h30
q0 57 -1 78z" />
  </g>

</svg>
