<?xml version="1.0" standalone="no"?>
<!DOCTYPE svg PUBLIC "-//W3C//DTD SVG 1.1//EN" "http://www.w3.org/Graphics/SVG/1.1/DTD/svg11.dtd" >
<svg xmlns="http://www.w3.org/2000/svg" xmlns:xlink="http://www.w3.org/1999/xlink" version="1.1" viewBox="0 -36 256 256">
  <g transform="matrix(1 0 0 -1 0 220)">
   <path fill="currentColor"
d="M157 155h62v30h-62v-30zM157 118h62v30h-62v-30zM157 80h62v31h-62v-31zM172 224h-18q-10 0 -19 -2l-9 9h93l13 11l16 -18h-57q-6 -11 -19 -32h48l6 8l13 -13l-7 -6v-65q0 -30 1 -48l-14 -6v11h-62v-9l-14 -6q1 22 1 73.5t-1 67.5l15 -7h9q5 22 5 32zM121 8l-1 3
q36 33 44 58l17 -15l-7 -2q-32 -34 -53 -44zM233 38.5q9 -10.5 3.5 -22.5t-12 5.5t-27.5 43.5l2 3q25 -19 34 -29.5zM85 235.5q5 -5.5 -1 -13.5t-9 2t-12 20l2 2q15 -5 20 -10.5zM66 192q1 -6 -4 -11t-7 4.5t-9 22.5l2 1q17 -11 18 -17zM99 219l13 10l14 -17h-75
q-16 0 -24 -4l-6 11h78zM100 190q-5 -7 -13 -15h30l11 10l14 -17h-104q-10 0 -19 -2l-9 9h72q14 24 14 35l16 -10q-7 -3 -12 -10zM132 143h-49v-22h-13v22h-18q-10 0 -19 -2l-9 9h46v21h13v-21h23l11 10zM122 107l12 -14q-9 -2 -17.5 -6t-19.5 -9q2 -5 3 -8q28 -7 32.5 -15
t0.5 -16.5t-9.5 3.5t-22.5 23q1 -21 -1.5 -30t-8.5 -15.5t-19 -9.5q-2 11 -26 15v4q17 -2 24 -2.5t10.5 1.5t6 8.5t1.5 27.5q-25 -23 -70 -35l-1 3q45 18 67 43q-3 7 -7 10q-20 -18 -61 -30v3q39 19 55 36q-5 6 -8 8q-18 -12 -43 -19l-1 3q20 9 30 16t18 15h-22
q-10 0 -19 -2l-9 9h93l12 10l14 -17h-52q-6 -6 -15 -12q15 -9 26 -23q21 15 27 25z" />
  </g>

</svg>
