<?xml version="1.0" standalone="no"?>
<!DOCTYPE svg PUBLIC "-//W3C//DTD SVG 1.1//EN" "http://www.w3.org/Graphics/SVG/1.1/DTD/svg11.dtd" >
<svg xmlns="http://www.w3.org/2000/svg" xmlns:xlink="http://www.w3.org/1999/xlink" version="1.1" viewBox="0 -36 256 256">
  <g transform="matrix(1 0 0 -1 0 220)">
   <path fill="currentColor"
d="M95 66h-31q-3 -42 -55 -58l-1 3q39 17 43 55h-13q-10 0 -19 -2l-10 9h115l11 11l16 -18h-43q0 -40 1 -53l-15 -5q1 14 1 58zM38 142h78l7 8l14 -12l-7 -5q0 -30 1 -45l-14 -5v5h-79v-3l-13 -5q1 31 0 68zM49 202h59v12h-59v-12zM49 182h59v13h-59v-13zM49 163h59v12h-59
v-12zM38 120h34v15h-34v-15zM84 120h33v15h-33v-15zM38 95h34v18h-34v-18zM84 95h33v18h-33v-18zM49 221h10q6 18 7 26l17 -8q-4 0 -19 -18h43l7 9l13 -13l-7 -5q0 -41 1 -56l-13 -6v6h-59v-3l-14 -5q1 43 0 80zM154 157q43 -30 46 -38t-1.5 -16.5t-12 7t-35.5 44.5z
M178.5 112q-5.5 -30 -18 -54.5t-41.5 -46.5l-2 4q20 21 30.5 40.5t17.5 52.5t8 99h-12q-9 1 -20 -2l-9 9h92l8 10l13 -13l-7 -5q-1 -132 -5 -159t-28 -38q-1 9 -8.5 12t-20.5 4v6q19 -3 31 -1t14.5 34.5t3.5 142.5h-39q-2 -65 -7.5 -95z" />
  </g>

</svg>
