<?xml version="1.0" standalone="no"?>
<!DOCTYPE svg PUBLIC "-//W3C//DTD SVG 1.1//EN" "http://www.w3.org/Graphics/SVG/1.1/DTD/svg11.dtd" >
<svg xmlns="http://www.w3.org/2000/svg" xmlns:xlink="http://www.w3.org/1999/xlink" version="1.1" viewBox="0 -205 1024 1024">
  <g transform="matrix(1 0 0 -1 0 819)">
   <path fill="currentColor"
d="M436 948l56 -42h396l34 42l56 -38q9 -3 10 -12q0 -6 -30 -30v-729q0 -48 -18 -72q-17 -23 -58 -32q-9 28 -36 46q-24 14 -90 34l6 20q50 -15 92 -22q42 -6 48 6q7 10 6 33v728h-422v-700l4 -103q0 -15 -24 -30q-22 -15 -34 -16l4 145v772v0v0zM570 710l50 -36h132l36 36
l42 -36q9 -6 10 -14q0 -6 -24 -20v-214l4 -76q0 -13 -18 -26q-17 -9 -34 -12v76h-150v-68q0 -10 -18 -22q-16 -10 -34 -10l4 148v274v0v0zM618 414h150v234h-150v-234v0v0zM40 668h156v300l84 -36q8 -4 8 -8q3 -1 -2 -10l-38 -16v-230h66l34 42l48 -48q4 -3 8 -14
q2 -7 -10 -8h-146v-322l156 54l8 -18q-179 -82 -244 -112q-65 -29 -94 -70l-48 64l170 66v338h-72q-21 0 -68 -8l-16 36v0v0z" />
  </g>

</svg>
