<?xml version="1.0" standalone="no"?>
<!DOCTYPE svg PUBLIC "-//W3C//DTD SVG 1.1//EN" "http://www.w3.org/Graphics/SVG/1.1/DTD/svg11.dtd" >
<svg xmlns="http://www.w3.org/2000/svg" xmlns:xlink="http://www.w3.org/1999/xlink" version="1.1" viewBox="0 -205 1024 1024">
  <g transform="matrix(1 0 0 -1 0 819)">
   <path fill="currentColor"
d="M972 95h-526v-38q0 -11 -18 -22q-18 -12 -36 -12l4 125v272q-42 -61 -140 -152l-10 12q88 108 134 180q45 71 72 128l62 -34q6 -4 6 -8q3 -4 -8 -8l-24 -6q-18 -16 -42 -50h402l36 42q57 -54 58 -60q0 -7 -8 -8h-246v-88h134l32 44l56 -54q2 -4 2 -10q-3 -6 -8 -6h-216
v-94h128l40 40l52 -48q8 -15 -4 -18h-216v-101h186l38 45l62 -53q9 -9 -2 -18v0v0zM446 121h194v101h-194v-101v0v0zM640 248v94h-194v-94h194v0v0zM640 368v88h-194v-88h194v0v0zM418 724h154v-26h-154v26v0v0zM716 724h154v-26h-154v26v0v0zM596 594l10 10q44 -19 68 -34
q21 -16 28 -34q4 -18 -6 -30q-9 -12 -26 -12q-18 0 -24 22q-4 19 -16 38q-10 17 -34 40v0v0zM386 924h422l40 48l56 -56l2 -4q0 -12 -12 -12h-230v-82h232l22 30q60 -45 64 -54t-10 -12q-13 -3 -34 -12t-54 -50l-14 10l30 64h-236v-90l4 -42q0 -16 -20 -28q-18 -12 -38 -12
l4 84v88h-222q-3 -52 -18 -80q-12 -27 -36 -36q-25 -7 -34 14q-10 19 14 38q24 18 36 48q8 30 14 84h20l2 -44h224v82h-144q-19 0 -68 -8l-16 32v0v0zM418 636h158v-26h-158v26v0v0zM716 638h154v-26h-154v26v0v0zM110 918l6 16q44 -15 76 -30q30 -12 46 -30t20 -38
q3 -22 -8 -34q-12 -14 -26 -12q-13 3 -20 18l-14 32q-6 15 -24 36q-19 18 -56 42v0v0zM166 420q-15 -54 -48 -56q-33 0 -72 6l-2 -20q39 -7 64 -16q23 -6 32 -18t12 -42q5 -30 -4 -92q-10 -63 -8 -91q0 -27 16 -36t32 0t20 36q3 25 -6 93q-10 66 -10 102q-1 37 2 62
q2 25 10 68l100 370l-20 8l-118 -374v0v0zM38 702l10 12q54 -24 78 -38q24 -13 40 -32q14 -18 16 -42q3 -22 -8 -34q-9 -13 -24 -10q-16 3 -22 18l-12 32q-5 15 -16 36q-12 18 -62 58v0v0z" />
  </g>

</svg>
