<?xml version="1.0" standalone="no"?>
<!DOCTYPE svg PUBLIC "-//W3C//DTD SVG 1.1//EN" "http://www.w3.org/Graphics/SVG/1.1/DTD/svg11.dtd" >
<svg xmlns="http://www.w3.org/2000/svg" xmlns:xlink="http://www.w3.org/1999/xlink" version="1.1" viewBox="0 -205 1024 1024">
  <g transform="matrix(1 0 0 -1 0 819)">
   <path fill="currentColor"
d="M904 962l80 -36q6 -6 6 -8q0 -7 -6 -8l-26 -14v-734l4 -99q-1 -14 -22 -26q-22 -12 -40 -12l4 143v794v0v0zM710 930l78 -36q6 -6 6 -8q0 -7 -6 -8l-26 -14v-630l4 -111q-1 -14 -22 -26q-19 -13 -38 -14l4 157v690v0v0zM536 958l74 -36q12 -6 10 -12q1 -6 -34 -18v-326
q3 -240 -42 -350q-45 -111 -168 -201l-10 12q96 92 132 199q35 107 38 340v392v0v0zM472 628h24q1 -61 0 -106q-2 -45 -16 -62q-12 -18 -30 -24q-18 -7 -32 2q-12 8 -12 22t16 28q15 11 24 26q7 15 14 42q6 27 12 72v0v0zM616 630l14 4q41 -61 52 -94q9 -31 4 -52
q-7 -19 -22 -26t-30 2q-12 8 -6 32q5 24 2 58q-3 33 -14 76v0v0zM782 624l14 8q51 -55 66 -80q13 -25 12 -52q-3 -27 -20 -36q-15 -8 -30 0q-13 9 -10 36q3 26 -6 56q-9 29 -26 68v0v0zM302 914q10 -10 -4 -16q-21 0 -32 -12q-9 -10 -66 -94q-56 -85 -106 -140l158 -6
q57 86 84 142l70 -46q0 -9 -8 -14q-20 -3 -34 -14q-15 -9 -78 -98q-63 -88 -156 -190l204 8q-28 70 -64 116l12 10q66 -54 90 -84q23 -30 28 -56q3 -28 -6 -40q-9 -13 -24 -14q-12 -1 -20 8q-6 9 -6 16q0 5 -6 20q-96 -10 -152 -22q-54 -12 -92 -32l-38 74q25 0 56 18
q42 50 132 178q-91 -7 -118 -16q-28 -6 -58 -24l-38 68l38 12q18 6 72 102q53 96 92 186l70 -40v0v0zM188 324l16 6q47 -75 62 -114q12 -37 10 -64q-4 -26 -22 -33q-15 -7 -30 4q-16 10 -10 43t-2 72q-9 38 -24 86v0v0zM104 320h22q6 -84 4 -132q-4 -45 -20 -75
q-15 -30 -36 -36q-18 -6 -32 2q-12 9 -12 26q1 16 20 34q17 14 26 33q9 15 18 46q9 30 10 102v0v0zM300 336l12 8q54 -43 78 -80q25 -37 26 -64q0 -28 -14 -40q-13 -12 -28 -6q-14 3 -16 36q0 33 -12 66q-10 32 -46 80v0v0z" />
  </g>

</svg>
