<?xml version="1.0" standalone="no"?>
<!DOCTYPE svg PUBLIC "-//W3C//DTD SVG 1.1//EN" "http://www.w3.org/Graphics/SVG/1.1/DTD/svg11.dtd" >
<svg xmlns="http://www.w3.org/2000/svg" xmlns:xlink="http://www.w3.org/1999/xlink" version="1.1" viewBox="0 -36 256 256">
  <g transform="matrix(1 0 0 -1 0 220)">
   <path fill="currentColor"
d="M67 15l-17 -7q1 46 1 118q-12 -36 -42 -68l-3 3q35 51 43 115h-17l-11 -3l-10 10h40q0 29 -1 64l26 -10l-10 -7v-47h10l10 11l18 -18h-38v-27q16 -10 24.5 -18t2.5 -20t-11 2t-16 29q0 -107 1 -127zM174 154v-4q-24 -7 -46.5 -14.5t-27.5 -11.5l-9 15q8 1 15 2v39
q0 13 -1 35l19 -9l-6 -6v-57l15 3v64q0 9 -1 36l21 -10l-8 -10v-32h2l10 11l18 -18h-30v-38zM199 238l-10 -10v-42q33 22 38 32l14 -16q-9 -2 -21.5 -7.5t-30.5 -14.5v-25q-1 -16 14 -15h18q7 -1 9 8t3 25h4q0 -14 1.5 -20.5t8.5 -12.5q-6 -13 -24 -12h-28q-18 0 -19 18v63
q0 14 -1 38zM158 101q0 17 -1 35l23 -9l-8 -7v-19h45l10 11l18 -18h-65q12 -21 28 -35.5t39 -22.5v-3q-15 1 -21 -11q-20 15 -32.5 34t-19.5 38h-2q0 -59 1 -80l-16 -7q1 27 1 80q-17 -27 -37 -42.5t-45 -25.5l-2 3q31 19 46 36t24 36h-27q-13 0 -22 -3l-10 10h73z" />
  </g>

</svg>
