<?xml version="1.0" standalone="no"?>
<!DOCTYPE svg PUBLIC "-//W3C//DTD SVG 1.1//EN" "http://www.w3.org/Graphics/SVG/1.1/DTD/svg11.dtd" >
<svg xmlns="http://www.w3.org/2000/svg" xmlns:xlink="http://www.w3.org/1999/xlink" version="1.1" viewBox="0 -36 256 256">
  <g transform="matrix(1 0 0 -1 0 220)">
   <path fill="currentColor"
d="M25 85l-15 16q12 3 42 20v52h-21l-7 -4l-9 11h37q0 37 -1 63l23 -10l-8 -7v-46h8l10 11l13 -18h-31v-45l28 15l2 -4l-30 -22v-78q2 -25 -19 -31q1 11 -26 18v5q20 -3 25.5 -1.5t5.5 13.5v63q-22 -14 -27 -21zM147 244l2 3q24 -9 28 -16.5t-3 -15.5t-9 2.5t-18 26.5z
M220 210l8 11l17 -15q-10 -3 -29 -24l-3 2l8 19h-103q0 -12 -8.5 -17t-13 -0.5t5 12t12.5 28.5l5 -1l-1 -15h102zM148 174q20 -5 26.5 -12.5t0 -16.5t-11 2t-9.5 16t-9 7zM216 137l12 13l16 -20h-125q-9 0 -17 -3l-11 10h125zM92 75l-3 5q34 28 44 50l20 -16h-11
q-20 -23 -50 -39zM223 111q13 -8 8 -20.5t-14.5 2.5t-34.5 28l1 5q27 -7 40 -15zM173 53q29 -22 73 -24v-5q-19 -1 -22 -14q-38 12 -61 33q-34 -28 -89 -35v4q52 15 79 40q-16 22 -22 47l4 2q10 -23 28 -39q15 17 24 48l22 -15l-10 -4q-11 -20 -26 -38zM138 207l14 -2
l-2 -16q-2 -12 -12.5 -23t-35.5 -20l-2 4q22 14 30 25.5t7 31.5h1zM198 171q1 -7 7 -6h14q7 2 9 3t6.5 -3.5t1 -8.5t-14.5 -3h-25q-11 2 -11 13v41h13v-36z" />
  </g>

</svg>
