<?xml version="1.0" standalone="no"?>
<!DOCTYPE svg PUBLIC "-//W3C//DTD SVG 1.1//EN" "http://www.w3.org/Graphics/SVG/1.1/DTD/svg11.dtd" >
<svg xmlns="http://www.w3.org/2000/svg" xmlns:xlink="http://www.w3.org/1999/xlink" version="1.1" viewBox="0 -205 1024 1024">
  <g transform="matrix(1 0 0 -1 0 819)">
   <path fill="currentColor"
d="M766 578l60 -46q3 -3 4 -12q-2 -4 -10 -8l-30 -12l-54 -112q-10 -16 -28 -16q-19 3 -28 6l64 136h-284q-21 0 -36 -8l-30 36h342l30 36v0v0zM570 718l10 10q68 -37 88 -62q18 -24 18 -44q0 -18 -14 -30q-13 -10 -28 -4q-12 6 -18 28q-3 21 -12 42t-44 60v0v0zM692 940
l4 -8q0 -5 -32 -22q35 -73 86 -130q48 -57 114 -98q64 -42 134 -50v-20q-36 0 -54 -2q-18 -3 -42 -32q-55 39 -94 76q-40 36 -82 94q-42 57 -84 154q-61 -108 -146 -210t-184 -170l-10 14q90 84 168 190q75 105 142 250l80 -36v0v0zM418 308q3 -126 -12 -162
q-15 -34 -36 -47q-19 -12 -34 -10q-15 4 -20 20q-7 16 14 33q18 15 36 42q17 24 32 124h20v0v0zM828 334q75 -42 108 -72q33 -31 42 -56q9 -24 6 -42t-12 -25q-9 -10 -24 -8q-13 0 -22 33q-10 32 -28 68q-18 33 -80 90l10 12v0v0zM532 298v-152q-1 -30 8 -39q8 -6 32 -6h156
q28 2 38 10q9 8 12 22q5 12 8 45q2 29 2 70h20l6 -68q5 -50 34 -55q-13 -30 -34 -48q-21 -17 -66 -22h-204q-24 -1 -42 16q-18 18 -18 68v219l74 -26q12 -5 12 -10q1 -3 -4 -6q-4 -3 -34 -18v0v0zM600 380q74 -51 94 -80q20 -27 20 -48t-12 -32q-12 -9 -26 -6q-15 2 -20 32
q-6 27 -18 54t-50 72l12 8v0v0zM186 980l84 -30q12 -7 0 -16l-32 -12v-138q55 -24 86 -44q30 -19 40 -40q7 -22 2 -40q-6 -19 -26 -20q-18 0 -26 22q-6 20 -20 46q-15 24 -56 54v-594l4 -111q0 -11 -18 -26q-18 -14 -42 -16l4 161v804v0v0zM110 730h18q1 -81 0 -120
q0 -39 -18 -66q-16 -25 -38 -26q-22 0 -28 16q-6 14 6 28l22 30t20 46q9 28 18 92v0v0z" />
  </g>

</svg>
