<?xml version="1.0" standalone="no"?>
<!DOCTYPE svg PUBLIC "-//W3C//DTD SVG 1.1//EN" "http://www.w3.org/Graphics/SVG/1.1/DTD/svg11.dtd" >
<svg xmlns="http://www.w3.org/2000/svg" xmlns:xlink="http://www.w3.org/1999/xlink" version="1.1" viewBox="0 -36 256 256">
  <g transform="matrix(1 0 0 -1 0 220)">
   <path fill="currentColor"
d="M41 64l37 10v39h-37v-49zM92 16l-15 -9q1 28 1 60q-48 -18 -58 -29l-11 17q10 3 19 6v150q-4 0 -13 -3l-8 10h80l10 10l16 -17h-22v-129q0 -48 1 -66zM41 169h37v42h-37v-42zM41 162v-42h37v42h-37zM162 204h53l12 12l18 -19h-60q11 -22 25.5 -37t36.5 -20v-5
q-14 -1 -17 -10q-23 19 -35 37.5t-17 34.5h-18q-22 -49 -67 -76l-1 3q37 32 54 73h-23q-10 0 -19 -2l-9 9h53q9 23 11 41l21 -9l-8 -6q-5 -15 -10 -26zM180 150l11 10l15 -17h-43q-13 0 -22 -3l-10 10h49zM179.5 29q8.5 0 12 5t8.5 42h-55l-8 -8l-13 13l8 5l8 25h-11
q-10 0 -19 -2l-9 9h102l13 11l17 -18h-78l-10 -28h54l7 11l15 -12l-7 -7q-6 -40 -10 -48t-10 -11.5t-22 -6.5q-1 12 -29 21l1 4q27 -5 35.5 -5zM205 158l-2 3q22 22 28 32l14 -13q-17 -4 -40 -22zM98 188l3 2q31 -11 25 -26t-11.5 -1t-16.5 25z" />
  </g>

</svg>
