<?xml version="1.0" standalone="no"?>
<!DOCTYPE svg PUBLIC "-//W3C//DTD SVG 1.1//EN" "http://www.w3.org/Graphics/SVG/1.1/DTD/svg11.dtd" >
<svg xmlns="http://www.w3.org/2000/svg" xmlns:xlink="http://www.w3.org/1999/xlink" version="1.1" viewBox="0 -36 256 256">
  <g transform="matrix(1 0 0 -1 0 220)">
   <path fill="currentColor"
d="M59 137q-16 -16 -41 -30l-3 4q28 20 44 45h-21q-10 0 -19 -2l-9 9h83v26h-32q-10 0 -19 -2l-9 9h60v25h-40q-10 0 -19 -2l-9 9h68l8 10l14 -12l-8 -8v-55l11 11l12 -18h-55q-5 -6 -11 -13q12 -17 19 -32q13 15 24 31l15 -16l-9 -2q-11 -8 -27 -19q7 -22 5.5 -43.5
t-8.5 -35t-21 -18.5q-1 11 -22 16v5q19 -2 24.5 -1t9.5 12.5t4 32.5q-11 -12 -28 -23t-40 -21l-2 4q21 13 37 26t30 33q0 9 -4 19q-18 -23 -57 -39l-1 4q35 21 52 48q-2 4 -6 13zM85 94q37 -21 38 -31.5t-5 -14t-8 7.5t-26 35zM163 224q0 11 -1 22l22 -10l-7 -7v-29h12
l10 10l11 -12q6 11 10 23l19 -13q-8 -3 -13 -11.5t-29 -43.5h25l11 12l14 -19h-54q-17 -21 -31 -33h48l7 10l15 -13l-8 -7v-55q0 -13 1 -30l-15 -6v18h-56v-16l-15 -5q1 17 1 34v48q-15 -11 -21 -14l-2 4q13 11 23 23l-1 16l11 -5q19 20 27 31h-36q-10 0 -19 -2l-9 9h50v40
q-11 0 -23 -4l-11 11h34v24zM208 193h-31v-40h5q14 20 26 40zM154 76h56v30h-56v-30zM154 37h56v32h-56v-32zM192 140q17 -10 20 -15.5t-2.5 -9.5t-7 -1t-13.5 24z" />
  </g>

</svg>
