<?xml version="1.0" standalone="no"?>
<!DOCTYPE svg PUBLIC "-//W3C//DTD SVG 1.1//EN" "http://www.w3.org/Graphics/SVG/1.1/DTD/svg11.dtd" >
<svg xmlns="http://www.w3.org/2000/svg" xmlns:xlink="http://www.w3.org/1999/xlink" version="1.1" viewBox="0 -205 1024 1024">
  <g transform="matrix(1 0 0 -1 0 819)">
   <path fill="currentColor"
d="M825 558q1 -9 -6 -13q-44 -21 -48 -20q-3 3 0 13q2 18 3 40h-67v-125h152q6 0 12 7l36 41q7 7 14 0q26 -26 44 -48q11 -14 4 -24q-5 -6 -18 -7h-214q30 -51 57 -93q36 -52 74 -92q43 -36 95 -52q9 -2 19 -5q5 -1 4 -7q-1 -7 -13 -8q-15 -1 -31 -7q-21 -9 -34 -22
q-6 -4 -16 3q-86 72 -113 141q-35 60 -62 141l-1 1h-9v-2q-1 0 0 -3v-140q0 -125 4 -210q0 -9 -7 -10l-44 -18q-9 -2 -8 14q6 133 7 224v102q3 20 7 33q1 5 -3 6q-6 2 -7 -2q-5 -19 -11 -40q-39 -68 -88 -123q-59 -62 -150 -131q-13 -9 -20 -2q-8 11 2 20q84 70 127 125
q61 79 94 157h-83q-27 0 -61 -7q-5 -1 -6 2q-13 19 -23 35q-6 10 7 7q61 -5 68 -6h147v125h-82l2 -20q1 -9 -6 -13q-44 -21 -48 -20q-3 3 0 13q3 25 4 65v239h-24q-27 0 -61 -7q-5 -1 -6 2q-13 19 -23 35q-6 10 7 7q61 -5 68 -6h39v46q-1 30 -4 55q-3 15 0 18q4 4 13 0
q39 -17 63 -30q6 -3 6 -6q-1 -5 -4 -6q-18 -9 -22 -15t-4 -16v-46h198v46q-1 30 -4 55q-3 15 0 18q4 4 13 0q39 -17 63 -30q6 -3 6 -6q-1 -5 -4 -6q-18 -9 -22 -15t-4 -16v-46h32q6 0 12 7l36 41q7 7 14 0q26 -26 44 -48q11 -14 4 -24q-5 -6 -18 -7h-124v-239q1 -18 2 -45z
M577 714v-105h198v105h-198zM577 842v-97h198v97h-198zM109 550q-1 16 9 13q54 -17 76 -29q9 -5 0 -11q-22 -16 -26 -20q-7 -7 -7 -23v-294q18 7 40 14q14 5 30 8v458h-78v-27q-1 -8 -5 -9q-10 -4 -32 -13q-15 -6 -14 4q2 26 3 51v246q-1 26 -2 45q0 9 4 10q4 3 13 -6
q13 -13 31 -26h164q6 0 9 4l18 28q7 8 14 1q29 -19 57 -41q9 -8 8 -12q-2 -5 -9 -9q-26 -12 -27 -19q-2 -6 -2 -13v-136q0 -36 6 -97q1 -11 -5 -12q-43 -15 -47 -14q-2 1 -2 11v34h-56v-205h16q13 0 23 12l35 41q9 8 16 1q26 -28 45 -53q11 -15 8 -24q-3 -7 -18 -8h-125
v-208q81 24 150 45q14 5 17 -4q2 -11 -13 -17q-175 -73 -280 -112q-20 -8 -54 -36q-5 -4 -9 -5t-8 8q-12 25 -34 44q-12 10 -11 13q1 4 11 5q29 6 65 12v305q-1 39 -4 70zM153 697h182v213h-182v-213z" />
  </g>

</svg>
