<?xml version="1.0" standalone="no"?>
<!DOCTYPE svg PUBLIC "-//W3C//DTD SVG 1.1//EN" "http://www.w3.org/Graphics/SVG/1.1/DTD/svg11.dtd" >
<svg xmlns="http://www.w3.org/2000/svg" xmlns:xlink="http://www.w3.org/1999/xlink" version="1.1" viewBox="0 -205 1024 1024">
  <g transform="matrix(1 0 0 -1 0 819)">
   <path fill="currentColor"
d="M252 338h106l-20 562l48 -36q41 21 92 66l40 -42q10 -10 -12 -10q-33 0 -120 -36l6 -124h36l30 34l46 -46q6 -9 -6 -14h-106l4 -162h36l28 32l40 -38q9 -9 0 -18h-102l6 -168h136v272l60 -30q16 -7 6 -22l-20 -8v-212h76v314h-72l-30 -24l-48 40l22 20v290l70 -20
q18 -9 10 -18l-32 -14v-84h74l26 32l50 -40q10 -11 -4 -16h-148v-140h76l24 32l52 -40q9 -10 -2 -16l-20 -14v-302h122l6 166h-34q-28 -1 -40 -10l-20 34h94l4 166h-46q-22 -4 -28 -10l-24 36h98l4 138h-48q-24 1 -42 -10l-24 36h102l30 34l56 -38q8 -9 2 -18l-30 -18
l-14 -506h26l32 40q54 -42 58 -54q4 -9 -12 -12h-626q-31 2 -82 -10l-22 36v0v0zM242 55q141 92 262 215l60 -40q9 -7 -2 -16q-28 -1 -40 -8q-11 -6 -70 -48q-60 -41 -200 -117l-10 14v0v0zM678 236l6 16q99 -34 168 -70q69 -35 84 -61q15 -25 6 -44q-6 -19 -24 -20
q-18 0 -38 30q-21 31 -66 65q-43 33 -136 84v0v0zM162 980l80 -30q12 -7 0 -16l-32 -12v-138q44 -24 74 -44q27 -19 36 -40q7 -22 2 -40q-6 -19 -26 -20q-18 0 -24 22q-4 20 -16 46q-13 24 -46 54v-594l4 -111q1 -11 -16 -26q-17 -14 -40 -16l4 161v804v0v0zM86 730h18
q1 -81 0 -120q0 -39 -18 -66q-16 -25 -38 -26q-22 0 -28 16q-6 14 6 28l22 30t20 46q9 28 18 92v0v0z" />
  </g>

</svg>
