<?xml version="1.0" standalone="no"?>
<!DOCTYPE svg PUBLIC "-//W3C//DTD SVG 1.1//EN" "http://www.w3.org/Graphics/SVG/1.1/DTD/svg11.dtd" >
<svg xmlns="http://www.w3.org/2000/svg" xmlns:xlink="http://www.w3.org/1999/xlink" version="1.1" viewBox="0 -205 1024 1024">
  <g transform="matrix(1 0 0 -1 0 819)">
   <path fill="currentColor"
d="M393 875q1 -18 2 -45q1 -9 -6 -13q-44 -21 -48 -20q-3 3 0 13q3 25 4 65v19h-210q-27 0 -61 -7q-5 -1 -6 2q-13 20 -23 36q-6 10 7 7q61 -6 68 -7h225v2q-1 30 -4 55q-3 15 0 18q4 4 13 0q39 -17 63 -30q6 -3 6 -6q-1 -5 -4 -6q-18 -9 -22 -15t-4 -16v-2h243q-2 29 -3 53
q-3 15 0 18q4 4 13 0q39 -17 63 -30q6 -3 6 -6q-1 -5 -4 -6q-18 -9 -22 -15q-4 -5 -4 -14h156q12 0 16 4q5 5 14 15l26 37q7 9 16 0q31 -28 61 -59q10 -10 9 -19q-2 -8 -15 -9h-283v-15q1 -18 2 -45q1 -9 -6 -13q-44 -21 -48 -20q-3 3 0 13q3 25 4 65v15h-244v-19zM269 278
q7 20 14 38q2 5 -2 6q-6 2 -7 -2q-4 -5 -5 -11q-30 -40 -60 -74q-66 -72 -150 -142q-12 -8 -16 -1q-6 8 6 17q50 49 102 112q62 75 104 145h-98v-31q-1 -8 -5 -9q-10 -4 -32 -13q-15 -6 -14 4q2 26 3 51v158q-1 26 -2 45q0 9 4 10q4 3 13 -6q13 -13 31 -26h114v93h-122
q-27 0 -61 -7q-5 -1 -6 2q-13 19 -23 35q-6 10 7 7q61 -5 68 -6h136q-1 69 -4 111q-1 18 9 14q56 -18 77 -30q11 -8 1 -12q-31 -17 -32 -21q-2 -4 -2 -62h92q6 0 12 7l36 41q7 7 14 0q26 -26 44 -48q11 -14 4 -24q-5 -6 -18 -7h-184v-93h88q6 0 9 4l18 28q7 8 14 1
q29 -19 57 -41q9 -8 8 -12q-2 -5 -9 -9q-26 -12 -27 -19q-2 -6 -2 -13v-48q0 -36 6 -97q1 -11 -5 -12q-43 -15 -47 -14q-2 1 -2 11v38h-108v-55h2q76 -22 122 -47q33 -18 37 -34q7 -24 -3 -40q-10 -19 -16 -20q-6 0 -19 16q-29 36 -59 61q-33 28 -64 41v-15q0 -125 4 -210
q0 -9 -7 -10l-44 -18q-9 -2 -8 14q6 133 7 224v5zM269 518h-112v-121h112v121zM317 397h108v121h-108v-121zM871 555l18 28q7 8 14 1q29 -19 57 -41q6 -6 5 -12q-3 -6 -13 -7q-12 -2 -18 -12q-4 -9 -4 -22v-166q0 -32 6 -87q2 -12 -7 -16q-35 -20 -42 -20q-5 1 -5 11v308
h-272v-305q-1 -8 -5 -9q-10 -4 -32 -13q-15 -6 -14 4q2 26 3 51v280q0 12 -1 22q-11 -11 -23 -21q-11 -9 -18 -2q-6 8 30 47q100 138 112 208q3 17 19 4q34 -27 47 -40q10 -9 9 -15t-10 -3q-8 2 -20 -5q-7 -6 -28 -36h121q10 0 14 6l28 30q3 4 7 4q11 0 56 -60q8 -12 -7 -13
q-4 0 -7 -1q-53 -8 -131 -102h102q6 0 9 4zM608 551h126q2 4 5 8q30 51 57 97h-140q-24 -30 -73 -85q12 -10 25 -20zM803 202q5 9 18 2q146 -61 155 -107q4 -24 -8 -39q-12 -17 -19 -18q-6 0 -16 19q-59 92 -125 128q-9 5 -5 15zM723 470q54 -17 72 -27q14 -8 1 -14
q-19 -11 -23 -20q-7 -18 -7 -79q0 -95 -16 -132q-18 -45 -67 -76q-58 -36 -206 -75q-19 -6 -22 4q-4 12 9 16q202 58 235 130q29 80 14 260q-2 16 10 13z" />
  </g>

</svg>
