<?xml version="1.0" standalone="no"?>
<!DOCTYPE svg PUBLIC "-//W3C//DTD SVG 1.1//EN" "http://www.w3.org/Graphics/SVG/1.1/DTD/svg11.dtd" >
<svg xmlns="http://www.w3.org/2000/svg" xmlns:xlink="http://www.w3.org/1999/xlink" version="1.1" viewBox="0 -205 1024 1024">
  <g transform="matrix(1 0 0 -1 0 819)">
   <path fill="currentColor"
d="M388 484h464v242h-464v-242v0v0zM480 692l42 -28h184l28 30l40 -28q8 -6 8 -12q0 -4 -20 -20v-100q0 -6 -8 -12q-15 -9 -38 -8v28h-190q-1 -14 -10 -22q-15 -9 -36 -8v180v0v0zM526 564h190v78h-190v-78v0v0zM384 420l50 -30h362l28 32l50 -32q12 -6 12 -14q0 -7 -30 -28
v-132l4 -66q1 -11 -18 -23q-19 -9 -34 -10v31h-376v-17q0 -12 -18 -22q-19 -8 -34 -8l4 85v234v0v0zM432 172h376v82h-376v-82v0v0zM432 278h376v88h-376v-88v0v0zM258 71h634l36 48l64 -56q6 -3 6 -6q0 -12 -12 -12h-648q-15 1 -62 -8l-18 34v0v0zM868 838l38 48l64 -52
q3 -4 4 -10q1 -10 -10 -10h-616q-21 -1 -54 -10l-18 34h592v0v0zM516 970l6 12q54 -16 84 -34q31 -15 38 -36q7 -18 0 -36q-8 -16 -28 -16q-21 -1 -26 20q-6 21 -20 42q-12 21 -54 48v0v0zM338 784l42 -34h460l30 32l48 -34q9 -4 10 -14q0 -4 -26 -26v-180l4 -62
q0 -15 -20 -26q-17 -9 -34 -12v32h-464q0 -15 -12 -26q-18 -12 -42 -12l4 110v252v0v0zM326 938q12 -8 -2 -16q-27 -2 -42 -34q-51 -94 -108 -200l50 -22q12 -6 -2 -18l-18 -8v-490l4 -93q1 -17 -22 -32q-21 -13 -36 -12l4 131v504q-72 -112 -122 -160l-12 8q48 68 130 236
q81 168 102 246l74 -40v0v0z" />
  </g>

</svg>
