<?xml version="1.0" standalone="no"?>
<!DOCTYPE svg PUBLIC "-//W3C//DTD SVG 1.1//EN" "http://www.w3.org/Graphics/SVG/1.1/DTD/svg11.dtd" >
<svg xmlns="http://www.w3.org/2000/svg" xmlns:xlink="http://www.w3.org/1999/xlink" version="1.1" viewBox="0 -36 256 256">
  <g transform="matrix(1 0 0 -1 0 220)">
   <path fill="currentColor"
d="M95 90l1 -5q-65 -27 -75 -38l-12 19q12 2 37 10v81h-7q-11 0 -20 -2l-9 9h36v48q0 12 -1 31l21 -8l-7 -8v-63h9l11 10l14 -17h-34v-78zM120 87l-13 13l10 6l9 32h15l-12 -37h77l7 10l15 -13l-7 -7q-10 -54 -19 -66t-26 -16q-2 14 -30 22l1 4q36 -9 42.5 -0.5t10 24.5
t6.5 35h-78zM122 225q-10 0 -20 -2l-10 9h110l12 11l18 -18h-65v-82h48l14 12l17 -19h-134q-11 0 -21 -2l-9 9h71v82h-31zM199 218l17 -9q-5 -4 -10 -16q16 -10 21.5 -16t1 -14t-9 1.5t-15.5 23.5q-8 -17 -30 -34l-2 3q22 26 27 61zM121 215l16 -9q-4 -4 -11 -17
q13 -6 19 -12.5t1.5 -15.5t-8.5 2.5t-13 22.5q-11 -20 -34 -36l-2 2q25 26 32 63z" />
  </g>

</svg>
