<?xml version="1.0" standalone="no"?>
<!DOCTYPE svg PUBLIC "-//W3C//DTD SVG 1.1//EN" "http://www.w3.org/Graphics/SVG/1.1/DTD/svg11.dtd" >
<svg xmlns="http://www.w3.org/2000/svg" xmlns:xlink="http://www.w3.org/1999/xlink" version="1.1" viewBox="0 -120 1000 1000">
  <g transform="matrix(1 0 0 -1 0 880)">
   <path fill="currentColor"
d="M322 493v159l62 -8q21 -3 21 -13q0 -8 -10 -12l-17 -8v-44h74l33 39l64 -46v-19h-171v-44l167 13l4 -14l-264 -53l-3 -11q-3 -9 -9 -9q-7 0 -15 11l-34 52zM575 652l63 -10q22 -4 22 -13q0 -7 -9 -11l-19 -9v-61q115 31 182 63l43 -36q7 -7 7 -13q0 -7 -12 -7h-7l-17 5
q-139 -26 -196 -33v-20q1 -12 14 -12h199q24 0 32 23l26 67h19l-4 -55q0 -19 7 -24q4 -4 23 -7q-5 -23 -16 -32q-18 -16 -65 -17h-210q-48 0 -64 9q-17 8 -18 40v153zM128 128l-4 -16q-4 -14 -11 -14q-9 0 -19 19l-33 62l216 7l-1 198h-98l-20 27h569l34 35l87 -45v-17h-127
l2 -185l199 6l3 -21l-202 -16v-104l-61 -8v108zM335 187l327 10v44h-327v-54zM333 310l2 -41h327l-2 41h-327zM333 384v-48h327v48h-327zM796 665h-593v-58q0 -75 -38 -131q-29 -43 -87 -93l-16 9q30 32 56 87q23 41 24 119v298l77 -33h276v102l61 -6q26 -2 26 -14
q0 -8 -15 -15l-12 -6v-61h246l48 53l83 -60v-20h-291v-68h144l22 30l60 -32q12 -7 12 -14q0 -6 -10 -11l-16 -8v-79l-57 -5v16zM203 741v-49h158v49h-158zM203 836v-68h158v68h-158zM417 692h166v49h-166v-49zM417 836v-68h166v68h-166zM641 741v-49h155v49h-155z" />
  </g>

</svg>
