<?xml version="1.0" standalone="no"?>
<!DOCTYPE svg PUBLIC "-//W3C//DTD SVG 1.1//EN" "http://www.w3.org/Graphics/SVG/1.1/DTD/svg11.dtd" >
<svg xmlns="http://www.w3.org/2000/svg" xmlns:xlink="http://www.w3.org/1999/xlink" version="1.1" viewBox="0 -205 1024 1024">
  <g transform="matrix(1 0 0 -1 0 819)">
   <path fill="currentColor"
d="M430 686h206v102l76 -26q9 -3 10 -8q3 -5 -2 -10l-34 -16v-42h122l32 40l56 -46q3 -4 4 -10q0 -10 -12 -10h-202v-92h192l28 36l58 -44q3 0 4 -6q3 -12 -8 -12h-510q-27 0 -60 -8l-18 34h264v92h-134q-18 0 -54 -8l-18 34v0v0zM556 334l-12 -10q53 -81 118 -138
q24 19 58 62q30 43 58 86h-222v0v0zM632 408q3 -1 4 -4q2 -7 -4 -10q-10 -4 -22 -10q-13 -4 -34 -26h202l26 32l58 -48q6 -7 4 -8q2 -7 -10 -10q-10 -3 -20 -8q-10 -4 -26 -26q-14 -22 -46 -62q-32 -39 -64 -68q48 -30 94 -45l80 -20q33 -6 114 -12v-18q-33 -3 -50 -10
q-15 -9 -30 -34q-57 15 -120 42q-62 29 -124 70q-75 -48 -174 -76q-96 -24 -180 -36l-4 16q75 17 162 46q84 30 166 79q-72 77 -104 148q-78 -76 -156 -130l-8 12q72 71 120 128q47 57 92 124l54 -36v0v0zM108 748l42 -28h144l26 32l60 -42q6 -7 6 -10q0 -7 -8 -10
q-10 -3 -16 -8q-6 -3 -18 -12l-76 -166q45 -48 64 -78q17 -28 26 -58q6 -29 0 -58q-6 -30 -24 -54q-19 -25 -70 -46q-5 23 -22 38q-15 12 -60 28l6 16q42 -10 66 -10q21 0 36 10q14 8 20 38q3 30 -14 76q-15 45 -54 96l58 194h-146v-530l4 -109q0 -15 -20 -28
q-18 -13 -36 -12l6 141v590v0v0zM376 358q74 69 160 166l60 -28q9 -7 -2 -16q-18 -1 -30 -8q-12 -6 -60 -42t-120 -86l-8 14v0v0zM738 504l6 14q72 -24 126 -48q51 -24 66 -44q12 -21 4 -38q-9 -16 -26 -16q-18 0 -30 22q-13 20 -44 44q-30 24 -102 66v0v0zM326 994l84 -28
q6 -3 6 -8q-1 -3 -40 -26v-40h260v98l80 -30q3 -5 4 -10q0 -3 -32 -20v-38h194l40 48l60 -62q3 -1 4 -8q-1 -6 -16 -6h-282v-38q0 -3 -12 -12q-9 -6 -18 -8q-10 -3 -22 -2v60h-260v-54q0 -12 -8 -18l-18 -10q-9 -3 -24 -2v84h-198q-22 -1 -70 -10l-18 38h286v102v0v0z" />
  </g>

</svg>
