<?xml version="1.0" standalone="no"?>
<!DOCTYPE svg PUBLIC "-//W3C//DTD SVG 1.1//EN" "http://www.w3.org/Graphics/SVG/1.1/DTD/svg11.dtd" >
<svg xmlns="http://www.w3.org/2000/svg" xmlns:xlink="http://www.w3.org/1999/xlink" version="1.1" viewBox="0 -36 256 256">
  <g transform="matrix(1 0 0 -1 0 220)">
   <path fill="currentColor"
d="M153.5 164.5q4.5 -6.5 2.5 -14.5t-6.5 -10t-6.5 9t-13 33l3 2q16 -13 20.5 -19.5zM209 167q5 -7 3 -14.5t-6 -9.5t-6.5 9t-13.5 32l2 2q16 -12 21 -19zM191 72l-14 11q14 9 47 45v92h-14q-10 0 -19 -2l-9 9h40l8 9l13 -13l-6 -5v-186q0 -16 -20 -25q2 11 -27 20v4
q20 -3 27 -2.5t7 12.5v78q-27 -37 -33 -47zM161 28q6 0 6 13v79q-24 -31 -29 -42l-15 13q12 4 44 41v88h-12q-10 0 -19 -2l-9 9h38l8 9l14 -15l-8 -4v-186q0 -20 -21 -24q0 11 -22 20v4q19 -3 25 -3zM88 28.5q2 1.5 2 5.5v40h-51q-10 0 -19 -2l-9 9h79q0 12 -1 22l20 -9
l-6 -6v-7h7l9 10l14 -17h-30v-41q0 -11 -3.5 -16t-14.5 -10q-2 13 -26 20v4q27 -4 29 -2.5zM59 52.5q3 -9.5 -3 -15t-8.5 4.5t-16.5 28l2 2q23 -10 26 -19.5zM98 113q7 0 6 11v10h-30q0 -19 1 -26l-14 -4q1 12 1 30h-30v-30l-13 -5q1 23 1 30v43q0 8 -1 23l11 -4h33v15h-23
q-13 0 -22 -3l-10 10h55v6q0 12 -1 28l18 -9l-6 -6v-19h35l9 8l14 -15h-58v-15h31l5 8l13 -11l-7 -6v-63q1 -17 -14 -23q0 10 -21 15v3q10 -1 17 -1zM74 165h30v19h-30v-19zM32 165h30v19h-30v-19zM32 141h30v17h-30v-17zM74 141h30v17h-30v-17zM85 242q15 -2 20.5 -6t3 -12
t-8 -0.5t-16.5 15.5z" />
  </g>

</svg>
