<?xml version="1.0" standalone="no"?>
<!DOCTYPE svg PUBLIC "-//W3C//DTD SVG 1.1//EN" "http://www.w3.org/Graphics/SVG/1.1/DTD/svg11.dtd" >
<svg xmlns="http://www.w3.org/2000/svg" xmlns:xlink="http://www.w3.org/1999/xlink" version="1.1" viewBox="0 -143 1024 1024">
  <g transform="matrix(1 0 0 -1 0 881)">
   <path fill="currentColor"
d="M74 921q66 -42 89 -64t34 -42t10 -42t-13 -32t-27 -7t-18 31t-18.5 58.5t-66.5 87.5zM860 698h-124l-8 -28q12 -54 34 -130t44 -134q20 46 36 134t18 158zM813 918q11 -8 -4 -16q-15 -4 -20 -15t-16 -56.5t-29 -106.5h171l26 36l50 -47q2 0 2 -5q0 -8 -7 -8h-79
q-5 -88 -24 -177t-53 -161q28 -56 52 -87t49 -53t64 -36l-2 -14q-43 4 -58 -2t-25 -24q-36 48 -59 87t-47 89q-34 -62 -83 -120t-109 -98l-8 12q56 52 95 107t83 141q-30 86 -42 138t-30 126q-18 -54 -41 -88l-12 4q19 52 46 172t39 230zM283 875l53 -28h95v122l73 -27
q9 -1 11 -10q0 -1 -6 -8l-31 -15v-62h95l21 27l44 -31q8 -7 8 -10q0 -6 -23 -26v-44l4 -51q0 -11 -19.5 -20.5t-30.5 -8.5v28h-99v-80h107l20 30l43 -37q-1 -4 -1 -7q12 -8 -1 -10h-345q-21 0 -51 -9l-15 33h196v80h-102v-18q0 -11 -16 -19t-34 -5l4 67v139zM329 737h102v84
h-102v-84zM478 821v-84h99v84h-99zM564 540l17 27l46 -32q13 -5 13 -10t-23 -23v-40l4 -42q0 -14 -16 -23t-33 -9v20h-223v-70h216l23 32l46 -31q7 -5 7 -14q0 -5 -19 -23v-90l4 -30q0 -18 -16 -26t-33 -8v42h-228v-34q0 -3 -18 -12.5t-33 -9.5l4 97v337l47 -28h215z
M349 216h228v96h-228v-96zM349 434h223v80h-223v-80zM24 535h111l34 44l52 -42q13 -8 13 -14q0 -3 -36 -28v-287q42 -55 90 -87t120 -40l94 -3h308q95 6 163 13v-20q-33 -6 -56 -12t-35 -32h-366q-90 4 -144 16t-91 39t-62 61t-41 36t-37 -27t-77 -109l-46 42q60 52 133 117
v307h-50q-27 0 -52 -10z" />
  </g>

</svg>
