<?xml version="1.0" standalone="no"?>
<!DOCTYPE svg PUBLIC "-//W3C//DTD SVG 1.1//EN" "http://www.w3.org/Graphics/SVG/1.1/DTD/svg11.dtd" >
<svg xmlns="http://www.w3.org/2000/svg" xmlns:xlink="http://www.w3.org/1999/xlink" version="1.1" viewBox="0 -36 256 256">
  <g transform="matrix(1 0 0 -1 0 220)">
   <path fill="currentColor"
d="M132.5 206.5q-16.5 -4.5 -40.5 -10.5l-1 4q16 5 31 12t21 12h-18q-9 0 -18 -2l-8 9h123l10 10l14 -17h-69v-31h45l7 8l12 -11l-6 -5v-76q0 -16 2 -13l-16 -5q2 12 2 22v73h-46v-61q0 -5 1 -29l-14 -4q1 22 1 27v67h-47v-96l-13 -7q1 24 1 32v61q0 9 -1 22l14 -5h46v31
h-20l13 -11q-9 -2 -25.5 -6.5zM226.5 218q17.5 -4 18.5 -17t-11.5 -1t-41.5 20l1 4q16 -2 33.5 -6zM198 171q8 9 11 15l10 -10q-4 -1 -12 -8q12 -6 13 -12t0 -10t-6.5 2.5t-13.5 12.5q-7 -8 -21 -16l-3 3q11 9 19 18q-10 8 -16 11l1 4q10 -4 18 -10zM143 169q6 8 9 16
l10 -12q-4 -1 -12 -8q12 -6 13 -11.5t0 -9.5t-6.5 2t-12.5 12q-8 -8 -22 -15l-2 3q13 10 18 17q-10 8 -15 11l1 4q9 -4 19 -9zM143 124q6 8 9 16l10 -12q-4 -1 -12 -8q12 -6 13 -11.5t0 -9.5t-6.5 2t-12.5 13q-9 -9 -23 -16l-1 3q12 9 18 17q-10 8 -15 11l1 4q9 -4 19 -9z
M200 130q7 8 10 17l10 -12q-4 -1 -13 -9q11 -3 12 -8.5t-0.5 -10t-6 1t-11.5 11.5q-8 -8 -23 -16l-1 3q13 10 19 18q-10 8 -16 11l1 2q9 -3 19 -8zM162 92l22 -10l-9 -8v-10h36l11 11l14 -18h-61v-28h46l11 12l16 -19h-132q-10 0 -17 -2l-9 9h73v28h-29q-10 0 -18 -2l-9 9
h56q0 9 -1 28zM45 135q-6 -4 -14.5 -36t-23.5 -57l-3 2q17 42 22 103zM78 177l11 10l14 -17h-40v-78q0 -38 1 -77l-14 -6q1 39 1 80v81h-13q-10 -1 -19 -3l-9 10h68zM67 230l12 11l16 -18h-51q-10 1 -18 -2l-7 9h48zM99.5 93q5.5 -16 -1.5 -26t-8.5 1t-5 29t-13.5 43l3 2
q20 -33 25.5 -49z" />
  </g>

</svg>
