<?xml version="1.0" standalone="no"?>
<!DOCTYPE svg PUBLIC "-//W3C//DTD SVG 1.1//EN" "http://www.w3.org/Graphics/SVG/1.1/DTD/svg11.dtd" >
<svg xmlns="http://www.w3.org/2000/svg" xmlns:xlink="http://www.w3.org/1999/xlink" version="1.1" viewBox="0 -205 1024 1024">
  <g transform="matrix(1 0 0 -1 0 819)">
   <path fill="currentColor"
d="M34 668h162v300l80 -36q8 -4 8 -8q3 -1 -2 -10l-36 -16v-230h72l38 46l50 -52q4 -3 8 -14q2 -7 -10 -8h-158v-328l150 58l8 -18q-174 -87 -228 -116q-55 -30 -88 -72l-52 66l160 64v346h-78q-21 0 -68 -8l-16 36v0v0zM824 936l52 -44q12 -6 12 -14q0 -5 -36 -34v-234
l4 -84q0 -15 -18 -30q-18 -14 -36 -16v26h-196q35 -126 76 -186q129 88 186 146q62 -46 62 -52q-1 -7 -4 -8t-20 -4q-15 -1 -38 -8q-21 -6 -174 -92q39 -53 84 -88q41 -33 92 -56t126 -29v-18q-34 1 -58 -8q-22 -9 -46 -34q-58 34 -124 87t-114 134t-78 216h-84v-373l160 79
l10 -18q-135 -81 -158 -99q-24 -17 -60 -62l-50 52q30 15 48 42v809l60 -44h284l38 44v0v0zM492 862v-158h310v158h-310v0v0zM492 676v-142h310v142h-310v0v0z" />
  </g>

</svg>
