<?xml version="1.0" standalone="no"?>
<!DOCTYPE svg PUBLIC "-//W3C//DTD SVG 1.1//EN" "http://www.w3.org/Graphics/SVG/1.1/DTD/svg11.dtd" >
<svg xmlns="http://www.w3.org/2000/svg" xmlns:xlink="http://www.w3.org/1999/xlink" version="1.1" viewBox="0 -36 256 256">
  <g transform="matrix(1 0 0 -1 0 220)">
   <path fill="currentColor"
d="M72 82h108v23h-108v-23zM57 94.5q0 13.5 -1 22.5l17 -5h105l10 8l14 -12l-8 -5q0 -19 1 -32l-15 -3v7h-47v-19h58l16 9l15 -16h-89v-21q50 -3 115 2v-4q-16 -2 -21 -13q-34 0 -67.5 1.5t-56.5 7t-44 19.5q-18 -21 -49 -34l-2 3q21 16 32 28.5t16 26.5l17 -11
q-8 -4 -11 -8q28 -14 56 -18v47h-46v-5l-16 -4q1 15 1 28.5zM57 217h141v14h-141v-14zM114 169h44v16h-44v-16zM34 144.5q7 16.5 8 35t1 34.5t-1 29l15 -5h140l6 6l16 -9l-7 -5q0 -14 1 -21l-15 -3v4h-141q0 -23 -2 -37.5t-10 -30t-32 -31.5l-2 2q16 15 23 31.5zM86 162
q-11 0 -23 -4l-9 11h47v16h-16q-10 0 -20 -2l-9 9h45q0 15 -1 19l20 -6l-6 -7v-6h44q0 12 -1 18l21 -6l-7 -7v-5h19l14 8l15 -15h-48v-16h35l14 9l16 -16h-103q9 -11 25 -21q23 12 34 23l16 -13q-9 0 -45 -13q17 -6 36 -9t41 -3v-3q-18 -2 -21 -11q-30 4 -53.5 15t-37.5 35
h-28v-37l41 10l2 -3q-37 -12 -53 -22l-9 11q5 4 5 7v34v0z" />
  </g>

</svg>
