<?xml version="1.0" standalone="no"?>
<!DOCTYPE svg PUBLIC "-//W3C//DTD SVG 1.1//EN" "http://www.w3.org/Graphics/SVG/1.1/DTD/svg11.dtd" >
<svg xmlns="http://www.w3.org/2000/svg" xmlns:xlink="http://www.w3.org/1999/xlink" version="1.1" viewBox="0 -205 1024 1024">
  <g transform="matrix(1 0 0 -1 0 819)">
   <path fill="currentColor"
d="M908 620l36 40l56 -54q9 -8 0 -16q-23 -3 -46 -26q-24 -21 -74 -86l-14 8l50 104h-150v-459q1 -33 -16 -54q-15 -18 -62 -34q-4 25 -22 40q-18 12 -96 38l4 16q86 -19 116 -18t28 22v389q-36 -99 -120 -210q-81 -112 -204 -197l-8 12q99 88 174 203q78 111 126 252h-180
q-24 0 -50 -8l-22 38h474v0v0zM892 962q63 -56 66 -64q1 -8 -4 -10q-4 -1 -16 -2q-12 0 -56 -36q-43 -33 -124 -120q28 -34 20 -62q-6 -26 -30 -24q-24 -1 -32 26q-6 26 -32 62q-23 36 -88 78l12 14q45 -21 82 -42q36 -21 54 -38l114 150h-300q-15 0 -36 -8l-26 38h362
l34 38v0v0zM128 956l56 -40h168l30 38l52 -38q9 -6 10 -14q0 -6 -32 -30v-126l4 -86q0 -21 -18 -32q-16 -10 -38 -10v36h-66v-214h70l36 44l54 -54l2 -8q-1 -7 -4 -8h-158v-198l156 48l8 -18q-296 -105 -328 -123q-31 -21 -56 -42l-42 64l76 21v370l72 -32q3 -3 4 -8
q0 -1 -2 -4l-24 -16v-298l86 26v450h-66v-22q0 -13 -18 -26q-18 -12 -36 -12l4 136v226v0v0zM178 680h182v210h-182v-210v0v0z" />
  </g>

</svg>
