<?xml version="1.0" standalone="no"?>
<!DOCTYPE svg PUBLIC "-//W3C//DTD SVG 1.1//EN" "http://www.w3.org/Graphics/SVG/1.1/DTD/svg11.dtd" >
<svg xmlns="http://www.w3.org/2000/svg" xmlns:xlink="http://www.w3.org/1999/xlink" version="1.1" viewBox="0 -205 1024 1024">
  <g transform="matrix(1 0 0 -1 0 819)">
   <path fill="currentColor"
d="M550 888h334l42 46l56 -56q3 -3 4 -8q0 -9 -8 -8h-228v-120h106l34 46l56 -56q3 -3 4 -8q-1 -7 -10 -8h-190v-116h108l38 48l58 -58q3 -3 4 -8q-1 -7 -10 -8h-198v-126h168l32 40l60 -42q15 -13 -6 -22l-24 -16q-6 -120 -12 -204q-6 -80 -18 -109q-12 -26 -30 -44
q-18 -15 -60 -36q-6 27 -26 44q-22 19 -100 40l4 20q50 -11 80 -16q28 -4 50 -2q20 0 34 20q12 20 18 97q6 78 10 202h-384v-10q2 -15 -16 -26q-19 -13 -38 -14l4 142v424l54 -48v0v0zM546 448h154v126h-154v-126v0v0zM546 600h154v116h-154v-116v0v0zM700 742v120h-154
v-120h154v0v0zM492 340h20q11 -115 2 -154q-7 -37 -26 -53q-18 -16 -36 -14q-18 1 -26 16q-9 13 6 29q14 14 34 38q17 24 26 138v0v0zM574 344l12 8q51 -66 60 -102q9 -34 4 -52q-4 -19 -16 -28q-13 -7 -28 -2q-13 5 -14 26q-1 18 2 54q0 33 -20 96v0v0zM664 358l12 8
q69 -64 84 -94t12 -48q-1 -15 -14 -24q-12 -10 -26 -4q-13 3 -16 24q-1 18 -8 46q-6 28 -44 92v0v0zM778 376l10 10q52 -39 74 -68q22 -30 20 -50q-1 -21 -14 -30q-12 -7 -24 -2q-13 5 -16 26q-4 20 -10 46q-7 23 -40 68v0v0zM160 680h164l36 42l56 -52q7 -12 -4 -18h-128
v-146h70l30 44l58 -52q12 -12 -2 -20h-156v-286l162 34l4 -18q-241 -70 -286 -87q-44 -17 -64 -38l-44 67l182 34v294h-94q-18 0 -54 -8l-18 36h166v146h-36l-20 -6l-22 34v0v0zM86 420l10 10q54 -42 78 -66q21 -23 28 -52q6 -27 -8 -42q-13 -13 -28 -8q-14 4 -16 26
q0 20 -14 52q-15 29 -50 80v0v0zM298 254q61 105 92 192l64 -38q4 -9 -4 -12q-6 -4 -18 -4q-10 0 -38 -42q-28 -40 -82 -106l-14 10v0v0zM36 580q56 84 110 174q53 90 110 220l70 -30q3 -6 -2 -12q-4 -3 -14 -6t-26 -26q67 -31 104 -56q35 -24 46 -44q11 -22 2 -40
q-10 -19 -26 -16q-15 2 -30 26q-12 24 -36 52q-21 28 -72 62q-39 -73 -102 -166q-64 -94 -122 -148l-12 10v0v0z" />
  </g>

</svg>
