<?xml version="1.0" standalone="no"?>
<!DOCTYPE svg PUBLIC "-//W3C//DTD SVG 1.1//EN" "http://www.w3.org/Graphics/SVG/1.1/DTD/svg11.dtd" >
<svg xmlns="http://www.w3.org/2000/svg" xmlns:xlink="http://www.w3.org/1999/xlink" version="1.1" viewBox="0 -200 999 1000">
  <g transform="matrix(1 0 0 -1 0 800)">
   <path fill="currentColor"
d="M859 897l31 39l50 -59l-30 -32v-580q-1 -10 -14.5 -21.5t-30.5 -15.5v63h-121v-32q-5 -12 -19.5 -19.5t-25.5 -11.5v716l57 -47h103zM597 77q-5 4 -8.5 15.5t-8.5 28t-12.5 37.5t-20.5 44q-48 -147 -148 -201l-5 8q52 51 83 108.5t49 120.5q-14 21 -33.5 43t-40.5 45
l8 14q23 -19 40.5 -35t33.5 -32q14 63 23 123.5t12 118.5h-139v-32q0 -125 -8 -210t-20 -140t-27.5 -85.5t-30.5 -47.5h-9q34 81 43.5 199.5t9.5 283.5q0 78 -1 167t-1 192l55 -38h36v196l61 -31l-19 -61v-104h45l18 40q10 -5 23.5 -9.5t25.5 -10t20.5 -12.5t8.5 -16
q0 -4 -3 -10q0 -14 -9 -15.5t-22 -7.5t-27 -24t-24 -65l-17 1q1 5 4 16.5t6 25t5.5 26t2.5 19.5q0 6 -5 19h-52v-243h44l24 49l54 -51l-28 -38q-4 -75 -17.5 -137.5t-27.5 -116.5q31 -34 43 -63.5t22 -61.5q0 -27 -9 -37t-17 -10q-7 0 -10 5zM744 314h121v171h-121v-171z
M744 679v-171h121v171h-121zM744 827v-124h121v172h-113zM431 538h46v243h-36l-9 -29zM808 189l-33 -30q-6 -9 -23 -34t-40 -52t-49.5 -50t-51.5 -29l-2 11q28 30 51.5 57.5t43.5 57t37 63t31 74.5zM952 67q-2 -29 -9.5 -42.5t-17.5 -13.5q-9 0 -17.5 11.5t-13.5 34.5
q-8 42 -24 76.5t-49 72.5l6 11q22 -15 44.5 -32.5t40.5 -36.5t29 -39.5t11 -41.5zM131 367v-44q-15 -9 -26 -17t-22 -9v329l61 -31h107l31 44l56 -53l-32 -35v-184h-175zM101 262q13 -12 25.5 -28.5t22.5 -34.5t17 -36.5t9 -34.5q0 -21 -4 -28.5t-10 -14.5l70 19l31 217
l58 -31l-21 -30q-6 -12 -11.5 -29.5t-11 -37.5t-11.5 -41t-13 -39l93 23l1 -17q-66 -26 -131.5 -54.5t-131.5 -63.5q-9 15 -18 29.5t-18 29.5l95 21l-12 10t-6 22q0 2 0.5 4.5t0.5 5.5q-5 25 -7.5 43.5t-5.5 34t-7 29t-12 27.5zM131 392h128v178h-117l-11 -39v-139z
M171 1001l57 -29l-12 -58v-53h35l41 42l52 -65h-128v-109h22l41 43l46 -66h-203l-41 -10l-14 33h104v109h-66l-43 -12l-14 34h123v141z" />
  </g>

</svg>
