<?xml version="1.0" standalone="no"?>
<!DOCTYPE svg PUBLIC "-//W3C//DTD SVG 1.1//EN" "http://www.w3.org/Graphics/SVG/1.1/DTD/svg11.dtd" >
<svg xmlns="http://www.w3.org/2000/svg" xmlns:xlink="http://www.w3.org/1999/xlink" version="1.1" viewBox="0 -205 1024 1024">
  <g transform="matrix(1 0 0 -1 0 819)">
   <path fill="currentColor"
d="M202 975l39 -38h534l35 37l52 -43q7 -6 5 -10q-1 -5 -11 -7l-18 -11v-296l4 -124q7 -40 -50 -44v84h-539v-355l4 -95q2 -36 -57 -46q5 39 7 187v709q-4 28 -20 41zM792 723h-539v-180h539v180zM253 741h539v176h-539v-176z" />
  </g>

</svg>
