<?xml version="1.0" standalone="no"?>
<!DOCTYPE svg PUBLIC "-//W3C//DTD SVG 1.1//EN" "http://www.w3.org/Graphics/SVG/1.1/DTD/svg11.dtd" >
<svg xmlns="http://www.w3.org/2000/svg" xmlns:xlink="http://www.w3.org/1999/xlink" version="1.1" viewBox="0 -36 256 256">
  <g transform="matrix(1 0 0 -1 0 220)">
   <path fill="currentColor"
d="M223 241l19 -9l-6 -5q0 -21 1 -28l-13 -7v8h-95l-8 -8l-12 12l6 4q0 25 -1 34l19 -9l-5 -6v-20h41q0 31 -1 40l19 -9l-6 -6v-25h43q0 25 -1 34zM130 200l16 -11q-4 -1 -13 -10h43q-2 8 -14 19l3 2q14 -4 19.5 -8.5t-1.5 -12.5h33l11 10l16 -17h-58v-12h21l12 10l15 -17
h-48v-12h20l12 9l15 -16h-47v-13h33l13 9l15 -16h-112v-3l-14 -4q1 16 1 60q-6 -9 -26 -24l-2 3q26 28 37 54zM134 160h39v12h-39v-12zM134 141h39v12h-39v-12zM134 121h39v13h-39v-13zM162 41h28v19h-28v-19zM218 25.5q7 0.5 7 6.5v61h-97v-32q21 17 29 34l13 -11
q-6 -3 -17 -12l8 -5h27l8 8l12 -12l-6 -4q0 -13 1 -25l-13 -5v5h-28v-5l-13 -4q1 22 1 45q-9 -7 -22 -14v-40l-14 -7q1 28 1 58t-1 40l15 -7h93l10 9l13 -13l-7 -5v-63q0 -16 -20 -21q0 11 -20 16v4q13 -2 20 -1.5zM185 95h11v-6q0 -9 13 -8q2 0 6 1t8 -5t-5 -6h-10
q-22 -2 -23 13v11zM83 113q4 -62 -6.5 -80.5t-26.5 -22.5q0 12 -22 20v4q14 -3 23.5 -3t15 15.5t3.5 65.5q-17 -29 -59 -58l-1 4q46 46 57 76q-1 13 -4 24q-14 -24 -53 -53v5q30 30 47 64q-4 8 -9 14q-12 -15 -34 -32l-2 3q31 34 39 62q-22 1 -31 -3l-9 10h72l12 12l16 -19
h-45q-3 -10 -14 -26q18 -18 24 -40q11 16 22 42l13 -16l-7 -4l-26 -28q3 -12 4 -25q26 -28 28.5 -38t-3 -19.5t-8.5 5t-16 41.5z" />
  </g>

</svg>
