<?xml version="1.0" standalone="no"?>
<!DOCTYPE svg PUBLIC "-//W3C//DTD SVG 1.1//EN" "http://www.w3.org/Graphics/SVG/1.1/DTD/svg11.dtd" >
<svg xmlns="http://www.w3.org/2000/svg" xmlns:xlink="http://www.w3.org/1999/xlink" version="1.1" viewBox="0 -36 256 256">
  <g transform="matrix(1 0 0 -1 0 220)">
   <path fill="currentColor"
d="M141 218h-13q-10 0 -19 -2l-9 9h106l8 10l14 -12l-8 -8v-31h3l11 11l13 -18h-27q0 -16 1 -42l-15 -7v9h-58q-5 -16 -13 -33l9 -3h68l8 10l14 -14l-8 -7q0 -41 1 -71l-15 -7v23h-67v-18l-15 -6q1 38 1 83q-21 -36 -56 -64l-2 5q14 14 33 42.5t28 59.5h-7q-10 0 -19 -2
l-9 9h37q3 12 5 32h-20q-10 0 -19 -2l-9 9h48v35zM155 183h51v35h-51v-35zM150 144h56v32h-51q-2 -18 -5 -32zM145 42h67v52h-67v-52zM47 245l22 -10l-8 -8v-35h15l7 11l15 -13l-8 -7v-90q2 -21 -14 -27q-1 12 -13 15v4q6 -1 10.5 -0.5t3.5 11.5v89h-16v-139q0 -14 2 -30
l-16 -8q1 24 1 44v133h-15v-111l-15 -7q1 33 1 70t-1 62l15 -7h15q0 29 -1 53z" />
  </g>

</svg>
