<?xml version="1.0" standalone="no"?>
<!DOCTYPE svg PUBLIC "-//W3C//DTD SVG 1.1//EN" "http://www.w3.org/Graphics/SVG/1.1/DTD/svg11.dtd" >
<svg xmlns="http://www.w3.org/2000/svg" xmlns:xlink="http://www.w3.org/1999/xlink" version="1.1" viewBox="0 -205 1024 1024">
  <g transform="matrix(1 0 0 -1 0 819)">
   <path fill="currentColor"
d="M756 870q-43 -9 -206 -42v-184q-6 -324 -48 -432q-42 -104 -162 -197l-10 14q86 84 128 195t40 420v260l58 -50q135 33 192 52t136 56q53 -56 56 -64q1 -6 -4 -8q-4 -4 -28 2q-24 5 -66 -4t-86 -18v0v0zM916 724q-17 0 -58 -8q-40 -9 -124 -36q16 -118 32 -202
q84 53 150 110q56 -46 56 -56q1 -8 -4 -10q-6 -1 -20 2q-13 0 -56 -14q-42 -15 -120 -54q15 -87 42 -146q26 -61 56 -106q28 -45 62 -69q32 -23 76 -38v-16q-42 2 -62 0q-18 -2 -42 -20q-52 53 -94 145t-66 196q-24 102 -36 270l-44 -10v-539l112 65l12 -16
q-97 -65 -118 -87q-21 -21 -50 -66l-58 54l52 34v627l54 -46q158 55 220 98q57 -45 58 -54q0 -7 -6 -10q-6 -1 -24 2v0v0zM208 794h162l34 38l50 -38q12 -6 12 -14q-1 -2 -34 -28v-466l30 6l4 -16q-307 -77 -350 -94q-42 -17 -62 -40l-42 76l74 12v602l54 -38h44
q45 128 52 184q75 -27 78 -32t-2 -10q-4 -3 -16 -8q-12 -6 -30 -36q-19 -30 -58 -98v0v0zM134 236l52 10v522h-52v-532v0v0zM230 252l58 10v506h-58v-516v0v0zM332 272l52 10v486h-52v-496v0v0z" />
  </g>

</svg>
