<?xml version="1.0" standalone="no"?>
<!DOCTYPE svg PUBLIC "-//W3C//DTD SVG 1.1//EN" "http://www.w3.org/Graphics/SVG/1.1/DTD/svg11.dtd" >
<svg xmlns="http://www.w3.org/2000/svg" xmlns:xlink="http://www.w3.org/1999/xlink" version="1.1" viewBox="0 -36 256 256">
  <g transform="matrix(1 0 0 -1 0 220)">
   <path fill="currentColor"
d="M176 247l22 -9l-8 -6q1 -31 1 -62h26l12 10l15 -17h-53q0 -15 3.5 -35.5t7.5 -33.5q6 14 10 25.5t6 25.5l17 -13q-5 -2 -12 -19.5t-16 -30.5q11 -16 20 -21q8 20 11 26l4 -1q-4 -13 -4 -24.5t3 -18t-4.5 -4t-18 11t-19.5 21.5q-21 -22 -54 -37l-1 4q30 18 48 42
q-6 18 -9 35t-5 47h-52q-10 0 -19 -2l-10 9h81q-1 57 -2 77zM222.5 209.5q6.5 -9.5 1 -18t-10 4.5t-16.5 29l2 2q17 -8 23.5 -17.5zM127 151h25l7 7l12 -9l-6 -4q0 -18 1 -26l-13 -3v4h-27v-4l-13 -3q1 8 1 21.5t-1 22.5zM126 127h27v17h-27v-17zM160 82l8 6l10 -13h-33v-14
l28 4l1 -4q-54 -13 -68 -20l-10 14q21 2 37 5v15h-12q-7 0 -12 -2l-6 9h30v15q-8 -1 -21 -2l-2 5q24 3 53 13l9 -12q-12 -1 -27 -3v-16h15zM146 216h10l9 9l11 -16h-31l-2 -7q19 -4 24 -8.5t2 -14t-8 0t-19 19.5q-4 -11 -15.5 -19t-22.5 -9l-1 4q10 2 19 11.5t11 22.5h-2
q-10 0 -19 -2l-10 9h32q0 14 -1 29l21 -8l-7 -5q-1 -5 -1 -16zM57 198q0 29 -1 48l19 -10l-5 -8v-30h9l11 10l12 -17h-32v-40h14l10 10l14 -17h-44l15 -8l-5 -6v-28h12l10 11l13 -18h-35v-49q18 -13 51.5 -17.5t122.5 3.5v-4q-12 -3 -14 -15q-69 -1 -100 0.5t-55 15.5
t-39 36q-6 -29 -28 -57l-3 2q13 27 18.5 56.5t5.5 57.5l20 -10l-6 -7q-2 -16 -5 -35q8 -11 19 -19v58v18v15h-26q-8 0 -15 -2l-7 9h44v40h-9q-9 0 -17 -2l-7 9h33z" />
  </g>

</svg>
