<?xml version="1.0" standalone="no"?>
<!DOCTYPE svg PUBLIC "-//W3C//DTD SVG 1.1//EN" "http://www.w3.org/Graphics/SVG/1.1/DTD/svg11.dtd" >
<svg xmlns="http://www.w3.org/2000/svg" xmlns:xlink="http://www.w3.org/1999/xlink" version="1.1" viewBox="0 -36 256 256">
  <g transform="matrix(1 0 0 -1 0 220)">
   <path fill="currentColor"
d="M76.5 35.5q8.5 -0.5 8.5 12.5v60h-42q-1 -28 -6.5 -52t-24.5 -48l-4 1q13 27 18 57t4.5 95.5t-2.5 78.5l15 -8h40l8 10l14 -12l-7 -6v-177q0 -16 -5.5 -23t-17.5 -12q0 15 -29 23v4q22 -3 30.5 -3.5zM43 173h42v52h-42v-52zM43 115h42v51h-42v-51zM195 146h21v75h-21v-75
zM117 140l-8 -3l-8 9h16q0 55 -1 91l14 -9h85l7 10l14 -12l-7 -7v-72l9 11l11 -19h-20v-100q0 -23 -19 -28q-1 12 -24 20v4q15 -3 22.5 -3.5t7.5 10.5v97h-21v-91l-12 -6v97h-21v-96l-12 -5v101h-21v-123l-13 -8q1 41 1 132zM129 146h21v75h-21v-75zM162 146h21v75h-21v-75z
" />
  </g>

</svg>
