<?xml version="1.0" standalone="no"?>
<!DOCTYPE svg PUBLIC "-//W3C//DTD SVG 1.1//EN" "http://www.w3.org/Graphics/SVG/1.1/DTD/svg11.dtd" >
<svg xmlns="http://www.w3.org/2000/svg" xmlns:xlink="http://www.w3.org/1999/xlink" version="1.1" viewBox="0 -205 1024 1024">
  <g transform="matrix(1 0 0 -1 0 819)">
   <path fill="currentColor"
d="M438 940l54 -40h398l30 40l62 -40q6 -6 6 -8q0 -7 -30 -28v-688l4 -97q0 -13 -18 -26q-15 -9 -38 -12v92h-416v-68q0 -14 -20 -26q-18 -12 -36 -12l4 127v786v0v0zM490 158h416v716h-416v-716v0v0zM740 812q9 -3 10 -8q1 0 -6 -8l-26 -12v-96h70l34 44l56 -50q3 -3 4 -8
q0 -12 -14 -12h-150v-148h46l24 32l48 -28q12 -7 12 -14q0 -6 -24 -24v-132l4 -78q1 -12 -16 -24q-15 -10 -36 -10v60h-160v-38q1 -12 -16 -24q-15 -9 -36 -12l4 96v232l48 -36h52v148h-88q-22 0 -46 -8l-14 34h148v150l72 -26v0v0zM616 322h160v168h-160v-168v0v0zM262 934
q5 -3 8 -6q1 -10 -16 -16q-18 -7 -26 -50q-9 -43 -24 -136h106l30 42l56 -36q13 -9 12 -12q0 -7 -32 -28q-24 -180 -48 -272q-22 -93 -52 -152q66 -39 94 -66q24 -28 30 -52q6 -19 -6 -35q-10 -15 -26 -12t-28 26q-10 20 -28 45q-16 24 -58 60q-42 -65 -98 -115
q-57 -50 -126 -94l-10 14q60 50 114 109q55 59 86 110q-33 27 -120 76q25 150 50 366h-56q-21 0 -48 -6l-16 32h124q15 111 28 240l80 -32v0v0zM238 290q27 66 48 162q21 95 34 248h-120q-28 -190 -58 -358q42 -22 96 -52v0v0z" />
  </g>

</svg>
