<?xml version="1.0" standalone="no"?>
<!DOCTYPE svg PUBLIC "-//W3C//DTD SVG 1.1//EN" "http://www.w3.org/Graphics/SVG/1.1/DTD/svg11.dtd" >
<svg xmlns="http://www.w3.org/2000/svg" xmlns:xlink="http://www.w3.org/1999/xlink" version="1.1" viewBox="0 -36 256 256">
  <g transform="matrix(1 0 0 -1 0 220)">
   <path fill="currentColor"
d="M81 236l7 8l13 -13l-8 -4q-2 -58 19 -73q1 5 5 26h4q-1 -22 0.5 -32.5t3.5 -17.5t-12.5 2t-23.5 28t-10 69h-40q-10 0 -19 -2l-9 9h70zM123 95h-52v-47q0 -20 1 -32l-15 -8q1 24 1 44v43h-22q-10 0 -19 -2l-9 9h50v20q0 19 -1 31l21 -12l-7 -8v-31h24l13 11zM140 117h70
v35h-70v-35zM127 171q0 43 -1 69l15 -9h67l8 9l13 -12l-6 -7v-84q0 -15 1 -32l-14 -5v10h-15v-70q0 -11 15 -11h11q9 0 10 10t2 31h5q0 -20 1.5 -29.5t8.5 -10.5q-4 -15 -24 -15h-18q-24 -1 -24 20v75h-16q-2 -46 -18.5 -68.5t-51.5 -35.5l-2 3q26 14 41.5 35t17.5 66h-13
v-7l-14 -5q1 30 1 73zM140 196h70v28h-70v-28zM140 159h70v30h-70v-30z" />
  </g>

</svg>
