<?xml version="1.0" standalone="no"?>
<!DOCTYPE svg PUBLIC "-//W3C//DTD SVG 1.1//EN" "http://www.w3.org/Graphics/SVG/1.1/DTD/svg11.dtd" >
<svg xmlns="http://www.w3.org/2000/svg" xmlns:xlink="http://www.w3.org/1999/xlink" version="1.1" viewBox="0 -36 256 256">
  <g transform="matrix(1 0 0 -1 0 220)">
   <path fill="currentColor"
d="M76 233l-7 -8v-63q19 23 23 39l17 -13q-9 -4 -17 -12t-23 -21q0 -25 -3 -61q23 -11 32.5 -22t6.5 -21t-6.5 -8.5t-9 15t-24.5 31.5q-10 -53 -52 -80l-1 4q28 32 36 63.5t7.5 73t-1.5 95.5zM30.5 139.5q-4.5 -9.5 -10.5 -11.5t-9.5 3t5 13.5t15.5 34.5h4q0 -30 -4.5 -39.5
zM156 75h33v44h-33v-44zM124 163h96l7 9l15 -12l-7 -6v-94q0 -18 1 -44l-14 -6v15h-98v-9l-14 -6q1 42 1 90.5t-1 67.5zM124 32h98v124h-98v-124zM156 126h31l7 8l15 -12l-7 -5q0 -44 1 -49l-14 -7v7h-33v-5l-13 -5q1 13 1 36t-1 39zM116 200l-11 -3l-10 10h35v19
q0 12 -1 20l22 -10l-8 -6v-23h3l10 11l18 -18h-31v-12l1 -11l-15 -5q1 11 1 19v9h-14zM202 200v0l-12 -3l-12 11h24v19q0 11 -1 19l22 -10l-7 -7v-21h3l10 11l18 -18h-31v-13q0 -4 1 -12l-16 -6q1 9 1 14v16v0z" />
  </g>

</svg>
