<?xml version="1.0" standalone="no"?>
<!DOCTYPE svg PUBLIC "-//W3C//DTD SVG 1.1//EN" "http://www.w3.org/Graphics/SVG/1.1/DTD/svg11.dtd" >
<svg xmlns="http://www.w3.org/2000/svg" xmlns:xlink="http://www.w3.org/1999/xlink" version="1.1" viewBox="0 -205 1024 1024">
  <g transform="matrix(1 0 0 -1 0 819)">
   <path fill="currentColor"
d="M592 898q-15 -21 -38 -54h174l30 32l54 -48q8 -6 8 -12q-1 -5 -14 -10q-9 -2 -24 -10q-13 -5 -34 -28q-19 -21 -68 -80h142l30 38l56 -42q6 -4 6 -8q1 -7 -28 -28v-140h24l26 46l60 -54q3 0 4 -6q0 -12 -8 -12h-106v-90l4 -90q-1 -11 -16 -22q-15 -10 -38 -16v48h-170
v-179q3 -53 -18 -80q-18 -21 -62 -28q0 20 -24 36q-24 17 -92 40l4 18q53 -13 86 -20q31 -7 44 0q15 6 12 30v183h-110q-18 0 -44 -6l-22 32h176v144h-170q-21 0 -68 -8l-16 34h254v152h-90q-21 0 -44 -8l-22 34h194l76 132h-192q-87 -123 -180 -224l-14 10q86 120 136 204
t88 168q72 -34 76 -40q3 -5 -2 -10q-6 -4 -20 -4q-15 0 -30 -24v0v0zM666 662v-154h170v154h-170v0v0zM666 482v-144h170v144h-170v0v0zM32 684h146v288l86 -36q8 -4 8 -8q3 -1 -2 -10l-38 -16v-218h46l34 42l48 -48q4 -3 8 -14q2 -7 -10 -8h-126v-330l156 62l8 -18
q-187 -91 -250 -122q-64 -31 -76 -68l-48 64l156 66v346h-62q-21 0 -68 -8l-16 36v0v0z" />
  </g>

</svg>
