<?xml version="1.0" standalone="no"?>
<!DOCTYPE svg PUBLIC "-//W3C//DTD SVG 1.1//EN" "http://www.w3.org/Graphics/SVG/1.1/DTD/svg11.dtd" >
<svg xmlns="http://www.w3.org/2000/svg" xmlns:xlink="http://www.w3.org/1999/xlink" version="1.1" viewBox="0 -36 256 256">
  <g transform="matrix(1 0 0 -1 0 220)">
   <path fill="currentColor"
d="M63 228l-16 -32h31l11 10l16 -18h-34v-57h15l12 10l16 -18h-43q0 -17 -3 -31q27 -16 32 -28.5t-2 -20t-11.5 9.5t-19.5 33q-13 -44 -55 -77l-2 3q22 23 35 51t13 60h-21q-10 0 -20 -2l-9 10h50v57h-13q-13 -21 -28 -35l-2 3q14 21 23 45t13 44l23 -14zM136.5 166
q4.5 -7 2 -14.5t-7.5 -9t-7 9.5t-13 32l3 2q18 -13 22.5 -20zM201.5 166q4.5 -7 3 -14.5t-6.5 -9.5t-8.5 11t-14.5 30l3 2q19 -12 23.5 -19zM200.5 94.5q-8.5 -12.5 -15.5 -24.5l-16 14q12 8 24.5 19t25.5 25v90h-19q-10 0 -19 -2l-9 9h45l9 10l14 -16l-8 -5v-173
q0 -25 -20 -34q1 10 -30 19v4q22 -3 29 -2.5t8 13.5v78q-10 -12 -18.5 -24.5zM143 29q7 0 7 13v77q-10 -13 -20.5 -27t-15.5 -24l-17 12q9 5 23.5 18t29.5 32v87h-18q-10 0 -19 -2l-9 9h44l9 9l13 -14l-7 -5v-178q1 -22 -23 -29q3 13 -23 21v4q19 -3 26 -3z" />
  </g>

</svg>
