<?xml version="1.0" standalone="no"?>
<!DOCTYPE svg PUBLIC "-//W3C//DTD SVG 1.1//EN" "http://www.w3.org/Graphics/SVG/1.1/DTD/svg11.dtd" >
<svg xmlns="http://www.w3.org/2000/svg" xmlns:xlink="http://www.w3.org/1999/xlink" version="1.1" viewBox="0 -36 256 256">
  <g transform="matrix(1 0 0 -1 0 220)">
   <path fill="currentColor"
d="M204 173q7 -6 1.5 -15t-10 2t-15.5 22l2 2q15 -5 22 -11zM160 145v-33h31v33h-31zM160 74h31v31h-31v-31zM160 32h31v35h-31v-35zM147 132q-12 -16 -27 -27l-2 3q18 21 31.5 45t21.5 50h-22q2 -12 -4.5 -18.5t-12 -3.5t1.5 11.5t11 27.5h3l1 -10h24q6 19 7 35l23 -9
l-9 -5l-7 -21h39l6 9l15 -12q-7 -3 -12 -9t-13 -17h-4l8 22h-41q-12 -32 -23 -51h53l10 11l18 -18h-39v-32h10l10 11l18 -18h-38v-31h9l10 11l18 -18h-37v-36h12l10 11l18 -18h-84v-10l-14 -6q1 42 1 123zM66 233l-7 -8v-65q17 23 21 39l16 -14q-9 -3 -16 -11t-21 -21
q0 -25 -3 -61q19 -11 28 -22.5t7 -21t-6 -9t-9 15t-21 32.5q-10 -53 -45 -78l-2 3q24 29 31.5 61.5t7 73.5t-1.5 96zM30 138.5q-4 -9.5 -9.5 -11.5t-9 3.5t5 13.5t13.5 37h4q0 -33 -4 -42.5zM114 13l-15 -6q1 34 1 46v108q-18 -32 -31 -45l-3 2q17 28 28 56.5t19 67.5
l20 -12l-9 -4q-4 -14 -18 -50l16 -7l-9 -8v-115q0 -13 1 -33z" />
  </g>

</svg>
