<?xml version="1.0" standalone="no"?>
<!DOCTYPE svg PUBLIC "-//W3C//DTD SVG 1.1//EN" "http://www.w3.org/Graphics/SVG/1.1/DTD/svg11.dtd" >
<svg xmlns="http://www.w3.org/2000/svg" xmlns:xlink="http://www.w3.org/1999/xlink" version="1.1" viewBox="0 -36 256 256">
  <g transform="matrix(1 0 0 -1 0 220)">
   <path fill="currentColor"
d="M117 246l22 -7l-7 -7v-6h47l11 10l17 -17h-75v-15h78l13 11l17 -18h-81l18 -9l-10 -1l-18 -13h40l11 10l18 -17h-86v-17h72l14 11l16 -18h-102v-10l-14 -4v14h-70q-11 0 -20 -2l-9 9h99v17h-52q-10 0 -19 -2l-10 9h57q-4 11 -18 22l3 2q25 -7 27 -13t-4 -11h37
q15 12 17 23h-109q-11 0 -20 -2l-9 9h100v15h-45q-10 0 -19 -2l-9 9h73q0 10 -1 20zM102 102l15 -18h-44v-35l42 10l1 -5q-81 -25 -96 -34l-11 16q20 3 50 10v38h-19q-10 0 -19 -2l-9 9h47v42l22 -9l-8 -7v-26h18zM223 66l-15 -4v5h-30v-17h30l12 10l16 -17h-58v-19h37
l12 10l19 -17h-114q-10 0 -19 -2l-10 9h61v19h-25q-10 0 -19 -2l-9 9h53v17h-30v-3l-14 -4q1 22 1 38t-1 34l14 -6h72l8 7l15 -10l-7 -5q0 -36 1 -52zM134 101h30v18h-30v-18zM178 101h30v18h-30v-18zM134 74h30v20h-30v-20zM178 74h30v20h-30v-20z" />
  </g>

</svg>
