<?xml version="1.0" standalone="no"?>
<!DOCTYPE svg PUBLIC "-//W3C//DTD SVG 1.1//EN" "http://www.w3.org/Graphics/SVG/1.1/DTD/svg11.dtd" >
<svg xmlns="http://www.w3.org/2000/svg" xmlns:xlink="http://www.w3.org/1999/xlink" version="1.1" viewBox="0 -36 256 256">
  <g transform="matrix(1 0 0 -1 0 220)">
   <path fill="currentColor"
d="M93 220h-45q-10 0 -19 -2l-9 9h71l9 10l21 -19q-18 -4 -47 -37l11 -9l-9 -5v-28h17l14 15l15 -22h-46v-92q1 -21 -22 -27q1 14 -25 24v4q23 -4 27.5 -4t5.5 8v87h-24q-10 0 -19 -2l-9 9h52q0 34 -1 52l9 -6zM137 195h77v28h-77v-28zM137 159h77v29h-77v-29zM124 192
q0 18 -1 47l14 -9h76l7 11l15 -14l-8 -6q0 -47 1 -72l-14 -7v10h-77v-4l-14 -6q1 32 1 50zM131 12l-11 16q4 6 4 13v54q0 16 -1 38l20 -10l-6 -8v-24h21l8 10l14 -17h-43v-49l35 22l3 -3q-41 -33 -44 -42zM198 74v-36q0 -10 9 -10h18q6 0 7.5 8.5t2.5 30.5h4q1 -23 2.5 -29
t7.5 -9q-7 -13 -18 -13h-28q-18 0 -18 18v65q0 20 -1 35l21 -9l-7 -8v-36q29 26 37 42l11 -21q-12 0 -48 -28z" />
  </g>

</svg>
