<?xml version="1.0" standalone="no"?>
<!DOCTYPE svg PUBLIC "-//W3C//DTD SVG 1.1//EN" "http://www.w3.org/Graphics/SVG/1.1/DTD/svg11.dtd" >
<svg xmlns="http://www.w3.org/2000/svg" xmlns:xlink="http://www.w3.org/1999/xlink" version="1.1" viewBox="0 -205 1024 1024">
  <g transform="matrix(1 0 0 -1 0 819)">
   <path fill="currentColor"
d="M172 532l38 -24h222l28 28l40 -32q12 -6 12 -12q0 -4 -26 -20v-36l4 -30q0 -12 -18 -20q-18 -7 -32 -10v14h-222v-4l-12 -8t-38 -10l4 56v108v0v0zM218 414h222v70h-222v-70v0v0zM862 624l54 -44q8 -6 8 -12t-18 -12l-20 -10q-49 -64 -94 -130q54 -36 84 -60
q29 -24 50 -54q19 -30 20 -62q-1 -33 -16 -62t-36 -43q-22 -15 -70 -34q-7 25 -28 41q-22 15 -74 30l6 16q39 -9 72 -12q33 -5 60 6q24 11 28 44q4 32 -10 62q-14 29 -46 62q-30 33 -68 64l72 150h-158v-404l4 -109q-1 -14 -22 -26q-18 -13 -36 -14l4 147v472l50 -42h150
l34 36v0v0zM498 576l34 40l46 -46q6 -3 6 -6q3 -12 -6 -12h-432q-18 0 -60 -8l-18 32h430v0v0zM232 656l6 10q45 -3 76 -12q30 -6 36 -24q6 -15 -2 -30q-9 -12 -24 -12q-16 0 -22 16q-6 14 -24 26q-19 11 -46 26v0v0zM470 370l40 -38q9 -9 10 -14q1 -9 -16 -12q-21 0 -42 -8
q-18 -9 -98 -50v-40l200 38l6 -20l-208 -48v-79q0 -37 -14 -56q-15 -20 -54 -38q-10 38 -34 48q-22 12 -64 26l6 18q74 -18 94 -18q19 1 18 32v57q-81 -21 -126 -33q-46 -14 -74 -38l-42 61l242 42v90l42 -26l76 62h-268q-7 0 -28 -8l-24 32h328l30 20v0v0zM172 956h624
l30 32l68 -40q3 -4 4 -10q0 -7 -12 -8h-346v-62h340l26 34l58 -42q14 -12 14 -20q-3 -6 -18 -6q-27 -3 -50 -26q-21 -24 -48 -54l-14 10l34 78h-342v-86l4 -78q0 -12 -20 -24q-19 -12 -38 -14l4 110v92h-338q-7 -39 -20 -68q-12 -27 -30 -42q-19 -16 -38 -14t-22 20
q-4 17 22 38q24 17 42 44q17 24 28 88h16l2 -40h338v62h-234q-20 0 -64 -8l-20 34v0v0zM214 784h202v-24h-202v24v0v0zM216 706h202v-24h-202v24v0v0zM590 784h220v-24h-220v24v0v0zM592 706h220v-24h-220v24v0v0z" />
  </g>

</svg>
