<?xml version="1.0" standalone="no"?>
<!DOCTYPE svg PUBLIC "-//W3C//DTD SVG 1.1//EN" "http://www.w3.org/Graphics/SVG/1.1/DTD/svg11.dtd" >
<svg xmlns="http://www.w3.org/2000/svg" xmlns:xlink="http://www.w3.org/1999/xlink" version="1.1" viewBox="0 -36 256 256">
  <g transform="matrix(1 0 0 -1 0 220)">
   <path fill="currentColor"
d="M55 170h152l13 13l17 -20h-43l13 -6q-10 -4 -18 -9t-24 -19q14 -10 37 -16t40 -7v-4q-16 -4 -19 -13q-23 6 -50.5 21t-47.5 53h-25v-58q22 9 44 19l3 -4l-33 -21t-21 -16l-12 17q5 2 5 14v49h-31q-1 -25 -10 -48.5t-33 -40.5l-3 3q21 23 26.5 47t5.5 52.5t-1 64.5l16 -9
h142l15 13l17 -20h-175v-55zM160 134q18 19 26 29h-55q14 -18 29 -29zM175 202l13 11l17 -18h-100q-17 -1 -26 -4l-8 11h104zM47 76q0 -25 -3.5 -34t-9.5 -14t-14.5 -1t4.5 15t19 34h4zM116 92q23 -11 30.5 -18t5 -15.5t-6 -10.5t-10 12t-20.5 29zM201 75q27 -12 34.5 -20
t6 -15.5t-5.5 -11.5t-9.5 9t-27.5 34zM72 79l24 -9l-8 -6v-24q-2 -13 15 -12h55q17 -1 19.5 11t2.5 27h4q1 -18 4 -25t12 -11q-10 -15 -33 -15h-68q-26 -1 -26 18q0 25 -1 46z" />
  </g>

</svg>
