<?xml version="1.0" standalone="no"?>
<!DOCTYPE svg PUBLIC "-//W3C//DTD SVG 1.1//EN" "http://www.w3.org/Graphics/SVG/1.1/DTD/svg11.dtd" >
<svg xmlns="http://www.w3.org/2000/svg" xmlns:xlink="http://www.w3.org/1999/xlink" version="1.1" viewBox="0 -36 256 256">
  <g transform="matrix(1 0 0 -1 0 220)">
   <path fill="currentColor"
d="M64 179h18l6 9l15 -11l-7 -7q0 -64 1 -76l-13 -6v7h-50v-7l-13 -6q1 21 1 88q-3 -7 -11 -15l-2 3q17 30 25 53t10 33l18 -10q-7 -1 -15 -19h26l8 9l12 -13q-8 0 -29 -32zM30 183l7 -4h21l15 29h-28q-7 -10 -15 -25zM34 140h19v32h-19v-32zM65 140h19v32h-19v-32zM34 102
h19v31h-19v-31zM65 102h19v31h-19v-31zM29 43q-1 -8 -4.5 -11.5t-10.5 -3.5t1 12t11 34h4q0 -23 -1 -31zM43 77q14 -19 14.5 -28.5t-5 -15t-6 8.5t-6.5 34zM61 80q21 -17 21.5 -26t-4.5 -13.5t-7 5.5t-12 32zM81 86q18 -11 22.5 -18.5t0 -16.5t-8 2t-17.5 31zM131 246
l20 -10l-7 -7v-19h12l10 11l12 -18h-34v-29h8l7 9l13 -12l-7 -6q0 -44 1 -63l-13 -5v8h-8v-33h13l9 9l12 -16h-34v-36l1 -14l-14 -6l1 14v42h-2q-9 0 -20 -3l-9 10h31v33h-10v-7l-13 -5q1 10 1 41t-1 46l13 -6h9v29h-13l-11 -3l-9 10h33q0 21 -1 36zM123 145h30v22h-30v-22z
M123 112h30v26h-30v-26zM207 230q3 -15 14.5 -38t26.5 -32v-4q-10 1 -14 -6q-21 22 -30 71q-4 -26 -12.5 -45.5t-23.5 -35.5l-2 4q16 25 22.5 55.5t6.5 47.5l18 -10zM198 88h-13q-7 0 -11 -2l-9 9h33v43h-5l-10 -3l-9 10h41l10 11l12 -18h-27v-43h16l10 10l11 -17h-37
q0 -61 1 -74l-14 -6q1 22 1 80z" />
  </g>

</svg>
