<?xml version="1.0" standalone="no"?>
<!DOCTYPE svg PUBLIC "-//W3C//DTD SVG 1.1//EN" "http://www.w3.org/Graphics/SVG/1.1/DTD/svg11.dtd" >
<svg xmlns="http://www.w3.org/2000/svg" xmlns:xlink="http://www.w3.org/1999/xlink" version="1.1" viewBox="0 -36 256 256">
  <g transform="matrix(1 0 0 -1 0 220)">
   <path fill="currentColor"
d="M126 212h-37q0 -6 1 -15l-16 -4q1 10 1 19h-21q-14 1 -24 -3l-10 10h55q0 18 -1 28l23 -8l-8 -4v-16h12l12 10zM129 221h33q0 15 -1 26l23 -9l-8 -4v-13h36l10 8l16 -15h-62q0 -4 1 -12l-16 -6q1 14 1 18h-11q-6 0 -15 -3zM106 170h40v10h-40v-10zM106 152h40v11h-40v-11
zM158 152h37v11h-37v-11zM57 152h36v11h-36v-11zM106 133h40v12h-40v-12zM57 133h36v12h-36v-12zM158 133h37v12h-37v-12zM92 205l21 -5l-7 -5v-8h40v15l20 -6l-8 -5v-4h51l12 10l15 -17h-78v-10h37l8 8l13 -12l-7 -5q0 -25 1 -34l-15 -3v2h-138l-15 -4q1 13 1 25.5t-1 27.5
l14 -5h37v10h-42q-12 -1 -21 -3l-11 10h74q0 8 -1 18zM68 79h113v13h-113v-13zM54.5 92.5q0.5 14.5 -0.5 28.5l12 -4h115l8 7l14 -12l-8 -4q0 -30 1 -38l-15 -4v6h-113v-3l-15 -5q1 14 1.5 28.5zM68 99h113v11h-113v-11zM83 72l20 -6l-6 -6v-9h60q0 7 -1 20l22 -7l-7 -5v-8
h45l13 12l18 -19h-76q0 -16 1 -31l-16 -6q1 21 1 37h-60q-11 -27 -74 -36l-1 4q52 14 60 32h-41q-10 0 -20 -2l-10 9h72q1 10 0 21z" />
  </g>

</svg>
