<?xml version="1.0" standalone="no"?>
<!DOCTYPE svg PUBLIC "-//W3C//DTD SVG 1.1//EN" "http://www.w3.org/Graphics/SVG/1.1/DTD/svg11.dtd" >
<svg xmlns="http://www.w3.org/2000/svg" xmlns:xlink="http://www.w3.org/1999/xlink" version="1.1" viewBox="0 -144 1024 1024">
  <g transform="matrix(1 0 0 -1 0 880)">
   <path fill="currentColor"
d="M916 129l-1 -14l-3 -13l-4 -13l-7 -13l-8 -10l-11 -9l-13 -7l-13 -4l-13 -2l-13 -1v32l-65 16v16h65l6 1l5 1l5 1l2 2l1 5l2 5v7h65zM905 532l65 -54v-21h-302l-12 -21l-27 -43l-25 -33h247l32 27l59 -49l-26 -21v-188h-65v209h-93v-242l-65 -32v274h-86v-247l-64 -32
v279h-90v-263l-65 -32v349l65 -32h138l2 5l4 40l3 13l1 13l2 12l2 14h-271v21h518zM168 434l-72 -40l-12 -7l-3 -20l-16 9l-3 6l-2 5l-3 6v1l-6 11l-7 13l-3 8l-2 3v1l-2 4l131 59v259h-126v22h126v209l65 -10l16 -11l-16 -10v-178h11l54 53l64 -53v-22h-129v-231l62 27
l65 26l5 -8l-28 -22l-87 -60l-17 -10v-335l-1 -13l-2 -14l-5 -12l-7 -13l-8 -11l-11 -8l-12 -7l-13 -4l-14 -3l-13 -1v33l-75 16v16h75h6l5 1l5 2l2 2l2 5l1 5v6v295zM37 434l28 -58l-38 54zM840 596v183h-90v-204h68h7l5 1l4 2l3 2l1 5l1 5zM904 596l-1 -13l-2 -14l-4 -12
l-7 -13l-9 -11l-11 -8l-12 -7l-13 -4l-13 -3l-14 -1v33l-81 15l-51 -26v247h-86v-215l-65 -32v247h-75v-226l-64 -32v312l64 -32h103l19 49l11 29l10 34h-262v22h507l54 54l64 -54v-22h-297l-17 -28l-19 -27l-21 -26l-11 -13l-12 -12l-7 -6h258l32 26l59 -48l-27 -21v-162z
" />
  </g>

</svg>
