<?xml version="1.0" standalone="no"?>
<!DOCTYPE svg PUBLIC "-//W3C//DTD SVG 1.1//EN" "http://www.w3.org/Graphics/SVG/1.1/DTD/svg11.dtd" >
<svg xmlns="http://www.w3.org/2000/svg" xmlns:xlink="http://www.w3.org/1999/xlink" version="1.1" viewBox="0 -52 256 256">
  <g transform="matrix(1 0 0 -1 0 204)">
   <path fill="currentColor"
d="M105 194h119l7 10l17 -12q2 -1 2 -2q-1 -1 -4 -1h-121q-7 0 -12 -3zM147 245l1 3q35 -16 36 -37q1 -7 -5 -9q-6 0 -6 8q-2 20 -26 35zM17 117h38v37h-8q-7 0 -12 -3l-7 7q-8 -12 -20 -23l-2 2q12 17 24 38q11 22 19 40l3 9q4 13 3 13q-1 3 -4 7l2 2l22 -8q2 -1 1 -2
l-2 -1q-5 0 -8 -4q-1 -2 -2 -6q-2 -5 -3 -7q31 -14 39 -27q6 -13 -3 -16q-4 -1 -8 8q-9 19 -30 31q-9 -21 -18 -37l-12 -18h48l6 8l13 -10l2 -2q0 -1 -3 -1h-29v-37h17l7 9l14 -10q2 -2 2 -3t-3 -1h-37v-46l8 9q12 13 11 16t-3 7l1 2l19 -12q4 -1 2 -3q-5 1 -11 -2
q-4 -4 -16 -14q-7 -7 -11 -10v-14l41 12l1 -5q-42 -14 -55 -18q-14 -5 -20 -8q-6 -2 -10 -10l-12 16l44 10v70h-18q-7 0 -12 -3zM17 95l2 2q24 -15 24 -33q0 -9 -5 -10q-6 -1 -6 6q1 6 -2 15q-2 8 -13 20zM117 170l8 -9h95l9 10l13 -10q3 -2 -1 -5l-5 -3v-104l1 -26
q2 -10 -11 -11v22h-99v-11q0 -10 -12 -11v9q1 17 1 29v108q0 3 -2 8l-1 1zM127 39h99v117h-99v-117zM147 137l7 -8h37l8 9l12 -11q1 -1 1 -2t-3 -2l-4 -2v-24l1 -26q2 -9 -11 -10v16h-39v-5q1 -8 -11 -11v12q1 17 1 25v28q0 6 -3 8zM156 82h39v42h-39v-42z" />
  </g>

</svg>
