<?xml version="1.0" standalone="no"?>
<!DOCTYPE svg PUBLIC "-//W3C//DTD SVG 1.1//EN" "http://www.w3.org/Graphics/SVG/1.1/DTD/svg11.dtd" >
<svg xmlns="http://www.w3.org/2000/svg" xmlns:xlink="http://www.w3.org/1999/xlink" version="1.1" viewBox="0 -144 1024 1024">
  <g transform="matrix(1 0 0 -1 0 880)">
   <path fill="currentColor"
d="M788 90l-52 31l-47 35l-2 2l-19 -14l-53 -31l-55 -27l-60 -21l-64 -17l-3 10l59 25l55 29l50 31l46 35l12 10l-7 7l-34 42l-29 46l-23 49l-15 52l-7 45h-121v-360l-65 -32v126l-73 -17l-103 -22l-66 -13l-43 -9l-9 -18l-13 14l-20 62l10 2l66 6l20 2v310h-91v21h445
l44 49l54 -49v-21h-156v-30h414l32 27l59 -48l-27 -17l-12 -5l-17 -37l-32 -54l-36 -49l-40 -46l-29 -27l36 -23l49 -25l54 -21l101 -31l-63 -55l-62 23zM188 259v-84l18 1l35 3l71 3l37 1h5v76h-166zM553 429l15 -38l23 -46l27 -42l31 -38l35 -35l9 -7l30 32l34 44l30 47
l26 51l13 32h-273zM188 375v-94h166v94h-166zM188 480v-83h166v83h-166zM791 638l-49 28l-44 29l-41 32l-35 34l-31 36l-27 39l-21 40l-12 36l-51 -26l-30 -13l-21 -8l21 -11l5 -3l3 1l2 -4l29 -18l33 -26l27 -25l22 -27l15 -28l10 -29l1 -30l-8 -29l-15 -28l-9 -11l-9 -9
l-10 -8l-11 -7l-11 -6l-12 -6l-12 -3l-12 -3l-13 -2h-13v32l-108 16v16h115l8 1l7 2l12 4l6 3l5 4l11 10l15 20l7 14l2 15l-2 18l-4 10l-61 -27l-45 -16l-47 -16l-51 -14l-53 -13l-54 -11l-58 -10l-61 -7l-63 -6l-2 10l175 47l103 34l47 18l86 37l39 20l13 8l-6 7l-14 14
l-32 -13l-36 -13l-39 -12l-41 -11l-43 -11l-45 -10l-48 -9l-50 -8l-52 -6l-55 -5l-2 9l151 44l89 28l78 30l69 31l7 3l-23 19l-74 -21l-46 -11l-50 -10l-55 -9l-59 -9l-64 -8l-1 10l218 66l44 15l72 29l9 5h-353v21h784l44 49l54 -49v-21h-392l20 -28l27 -34l30 -31l33 -29
l6 -5l133 77l47 31l9 -16l34 -34v-18l-20 8l-27 -11l-62 -22l-47 -14l-26 -7l-26 -6l15 -11l39 -25l43 -24l48 -21l50 -20l95 -31l-62 -55l-57 23z" />
  </g>

</svg>
