<?xml version="1.0" standalone="no"?>
<!DOCTYPE svg PUBLIC "-//W3C//DTD SVG 1.1//EN" "http://www.w3.org/Graphics/SVG/1.1/DTD/svg11.dtd" >
<svg xmlns="http://www.w3.org/2000/svg" xmlns:xlink="http://www.w3.org/1999/xlink" version="1.1" viewBox="0 -205 1024 1024">
  <g transform="matrix(1 0 0 -1 0 819)">
   <path fill="currentColor"
d="M660 964q81 -27 84 -32q4 -7 0 -10t-34 -18v-180h160v176q78 -30 82 -36q3 -4 -2 -10q-3 -4 -30 -14v-78l4 -62q3 -24 -18 -36q-18 -10 -36 -10v44h-358l-26 -32l-64 38q27 20 28 32v162l74 -32q7 -3 8 -8q0 -6 -32 -20v-114h160v240v0v0zM412 602h468l42 44l52 -50
q3 -4 4 -10q0 -12 -12 -12h-476q-21 0 -62 -8l-16 36v0v0zM482 516l54 -34h304l28 36l62 -44q6 -4 6 -8q-1 -6 -34 -26v-94l4 -56q1 -7 -18 -20q-18 -12 -38 -12v36h-312v-26q-1 -9 -22 -18q-19 -6 -38 -6l4 86v186v0v0zM538 320h312v134h-312v-134v0v0zM542 232
q50 -27 74 -44q21 -18 28 -36q6 -17 -2 -35t-28 -18q-19 0 -22 24q-2 21 -16 43q-12 22 -44 56l10 10v0v0zM870 222q12 -6 12 -12q0 -7 -14 -10q-24 -5 -42 -34t-60 -83h140l36 50l54 -60q3 -3 4 -10q4 -7 -10 -8h-550q-22 1 -46 -8l-20 36h364q26 47 80 169l52 -30v0v0z
M196 966l78 -34q17 -6 -4 -18l-26 -14v-628l80 18v464l78 -30q3 -2 4 -10q0 -4 -36 -20v-400l4 -76q0 -12 -14 -24q-15 -13 -36 -14v88q-135 -38 -176 -58q-39 -21 -60 -42l-44 50q26 15 28 34v510l74 -32q7 -3 8 -8q-3 -5 -36 -22v-460l78 22v704v0v0z" />
  </g>

</svg>
