<?xml version="1.0" standalone="no"?>
<!DOCTYPE svg PUBLIC "-//W3C//DTD SVG 1.1//EN" "http://www.w3.org/Graphics/SVG/1.1/DTD/svg11.dtd" >
<svg xmlns="http://www.w3.org/2000/svg" xmlns:xlink="http://www.w3.org/1999/xlink" version="1.1" viewBox="0 -154 1024 1024">
  <g transform="matrix(1 0 0 -1 0 870)">
   <path fill="currentColor"
d="M504 464l39 -39h154v142h-234q-5 -217 -47 -324q-52 -126 -171 -214l-8 12q108 102 147 223q39 122 34 370v209q-2 22 -23 48l10 8l42 -30q150 21 246 37q89 17 115 25q26 9 41 17q16 9 13 35l13 -3l61 -58q18 -14 0 -16q-34 10 -80 -2q-84 -15 -166 -28
q-84 -13 -226 -24v-117h396l32 40l68 -50q17 -12 -6 -10h-490v-65q0 -33 -1 -63h405l32 40l68 -50q17 -12 -6 -10h-221v-142h127l30 43l52 -42q18 -12 0 -19l-20 -13v-176q0 -62 -85 -76q2 40 -75 53l2 12q62 -8 81 -9q20 0 27 7q7 6 7 72v128h-146v-258l3 -97
q-1 -39 -54 -46q5 39 7 189v212h-145v-133l4 -97q-1 -38 -54 -45q5 37 7 189v93q-4 28 -20 41zM176 944q-1 22 -26 48l6 9l90 -38q19 -8 7 -14q-18 -5 -31 -16v-193h59l31 34l54 -40q22 -12 -11 -14h-133v-224l117 57l7 -14l-124 -73v-358q5 -69 -90 -89q-14 58 -101 72
l2 16l47 -8q98 -31 96 46v293q-81 -49 -90 -58q-12 -12 -28 -44l-46 58l164 79v247h-86q-27 1 -45 -13l-34 33h165v204z" />
  </g>

</svg>
