<?xml version="1.0" standalone="no"?>
<!DOCTYPE svg PUBLIC "-//W3C//DTD SVG 1.1//EN" "http://www.w3.org/Graphics/SVG/1.1/DTD/svg11.dtd" >
<svg xmlns="http://www.w3.org/2000/svg" xmlns:xlink="http://www.w3.org/1999/xlink" version="1.1" viewBox="0 -36 256 256">
  <g transform="matrix(1 0 0 -1 0 220)">
   <path fill="currentColor"
d="M42 46v83q-11 -33 -32 -61l-3 3q24 51 31 98q-5 0 -14 -2l-9 9h27v38q0 15 -1 26l21 -11l-7 -6v-47h6l9 11l12 -18h-27v-21q22 -16 24.5 -26.5t-3 -17t-8 7.5t-13.5 32v-90q0 -18 1 -33l-15 -7q1 16 1 32zM96 161h27v45h-27v-45zM96 107h27v47h-27v-47zM96 50h27v50h-27
v-50zM84 132.5q0 74.5 -1 90.5l15 -10h24l6 10l13 -12l-6 -6v-135q0 -24 1 -41l-13 -8v22h-27v-18l-13 -8q1 41 1 115.5zM201.5 70q3.5 -8 1 -13.5t-5 -5t-4.5 7.5t-5 14t-8 17l3 2q15 -14 18.5 -22zM220 78.5q4 -7.5 1.5 -14t-5.5 -6t-3.5 5.5t-4 13.5t-8.5 16.5l2 2
q14 -10 18 -17.5zM148 220l13 -7h7q7 25 7 34l20 -8l-9 -5l-10 -21h32l6 10l14 -11l-6 -7v-35q0 -8 1 -15l-14 -6v5h-47v-19h60l9 11l13 -18h-82v-19h64l8 10l13 -12l-7 -6q-2 -46 -4 -59.5t-7.5 -21.5t-12.5 -12q-1 12 -24 16v5q15 -1 21.5 -0.5t8.5 7.5t3.5 24.5t1.5 41.5
h-65v-5l-14 -5q1 20 1 34v66q0 13 -1 28zM209 206h-47v-19h47v19zM209 180h-47v-19h47v19zM179.5 63.5q2.5 -8.5 0 -12.5t-6.5 -5.5t-4.5 7t-2.5 16.5t-5 16l2 2q14 -15 16.5 -23.5zM154 55q-1 -10 -5.5 -12.5t-9 0t-0.5 8.5t6 12.5t3 21.5h4q3 -20 2 -30z" />
  </g>

</svg>
