<?xml version="1.0" standalone="no"?>
<!DOCTYPE svg PUBLIC "-//W3C//DTD SVG 1.1//EN" "http://www.w3.org/Graphics/SVG/1.1/DTD/svg11.dtd" >
<svg xmlns="http://www.w3.org/2000/svg" xmlns:xlink="http://www.w3.org/1999/xlink" version="1.1" viewBox="0 -205 1024 1024">
  <g transform="matrix(1 0 0 -1 0 819)">
   <path fill="currentColor"
d="M396 656h232v152h-232v-152v0v0zM296 450h190v152l80 -28q5 -4 8 -10q0 -3 -2 -6l-30 -18v-90h166l24 26l60 -44q3 -4 4 -8t-22 -14v-108l4 -50q0 -13 -18 -22q-16 -7 -40 -10v32h-178v-131l190 16q-33 28 -80 61l10 14q60 -25 112 -56q51 -28 70 -53q17 -24 20 -42
q0 -17 -8 -26q-10 -9 -22 -10q-12 0 -24 8q-10 9 -16 26q-7 15 -40 54q-473 -54 -502 -66q-27 -11 -54 -26l-40 70l328 26v135h-182v-36q0 -9 -18 -18q-16 -9 -38 -12l4 84v194l44 -14v0v0zM304 278h182v146h-182v-146v0v0zM542 424v-146h178v146h-178v0v0zM126 834h218v152
l84 -28q8 -2 8 -10q0 -3 -6 -8l-34 -18v-88h232v146l78 -28q15 -9 -2 -18l-24 -18v-82h146l34 42l58 -48q3 -3 4 -8l-4 -12h-238v-152h208l44 46l56 -54q3 -3 4 -8q1 -10 -10 -10h-308q42 -57 90 -90q45 -33 90 -54q45 -18 144 -32l2 -18q-39 -4 -56 -14q-18 -8 -38 -28
q-51 23 -92 52q-40 26 -82 68q-43 38 -88 116h-230q-82 -93 -182 -168q-100 -72 -194 -114l-8 14q87 59 162 116q72 56 154 152h-214q-18 0 -66 -8l-18 34h296v152h-134q-33 1 -66 -10l-18 36v0v0z" />
  </g>

</svg>
