<?xml version="1.0" standalone="no"?>
<!DOCTYPE svg PUBLIC "-//W3C//DTD SVG 1.1//EN" "http://www.w3.org/Graphics/SVG/1.1/DTD/svg11.dtd" >
<svg xmlns="http://www.w3.org/2000/svg" xmlns:xlink="http://www.w3.org/1999/xlink" version="1.1" viewBox="0 -36 256 256">
  <g transform="matrix(1 0 0 -1 0 220)">
   <path fill="currentColor"
d="M165 228q-11 0 -22 -2l-9 9h66l11 11l15 -18h-39v-30h19l14 10l15 -17h-74q-12 -1 -22 -3l-9 10h44v30h-9zM164 169q-11 0 -22 -3l-9 10h67l11 9l16 -16h-41v-30h24l12 11l17 -18h-78q-12 0 -22 -2l-9 9h42v30h-8zM62 228q-11 0 -21 -2l-11 9h67l11 11l14 -18h-37v-30h15
l13 10l13 -17h-72q-11 -1 -21 -3l-10 10h48v30h-9zM58 169q-10 0 -21 -3l-10 10h64l13 10l16 -17h-39v-31l42 4l1 -5q-80 -12 -96 -17l-8 14l21 1l27 2v32h-10zM99 82v-54l45 17l2 -4q-47 -26 -56 -35l-11 13q6 6 5 18v35q-28 -24 -75 -39l-1 4q28 13 51.5 29.5t38.5 33.5
h-55q-10 0 -20 -2l-9 9h196l16 13l18 -20h-108q11 -20 26 -34q27 16 39 32l16 -19h-11q-20 -8 -41 -17q17 -14 38.5 -20.5t44.5 -6.5v-5q-20 -4 -21 -15q-31 9 -56 28t-40 57h-13q-8 -8 -19 -18zM139 123.5q5 -5.5 -1 -13.5t-10 1.5t-14 20.5l2 3q18 -6 23 -11.5z" />
  </g>

</svg>
