<?xml version="1.0" standalone="no"?>
<!DOCTYPE svg PUBLIC "-//W3C//DTD SVG 1.1//EN" "http://www.w3.org/Graphics/SVG/1.1/DTD/svg11.dtd" >
<svg xmlns="http://www.w3.org/2000/svg" xmlns:xlink="http://www.w3.org/1999/xlink" version="1.1" viewBox="0 -339 2048 2048">
  <g transform="matrix(1 0 0 -1 0 1709)">
   <path fill="currentColor"
d="M378 412h400l98 101l121 -106q10 -9 11 -11q6 -7 6 -16q0 -8 -7 -16q-7 -9 -21 -9h-619q-12 -46 -27 -80q-41 -91 -120 -164q-32 -30 -99 -83l-25 31q42 42 64 70q57 74 85 152q34 96 41 225q3 53 3 121q0 66 -9 149l120 -67h736q-26 99 -40 203l130 -18q41 -6 59 -21
q7 -5 7 -12q0 -22 -47 -43l-34 -15q12 -50 23 -94h470l98 102l121 -107q10 -9 12 -11.5t3 -5.5q2 -4 2 -9q0 -10 -6 -17q-9 -10 -21 -10h-662q21 -60 37 -95q30 -64 76 -123q15 -18 41 -47q73 52 129 108q38 38 70 78q16 20 42 58l110 -67q26 -15 33 -27q4 -7 4 -13
q0 -8 -9 -15q-15 -13 -42 -13h-8l-37 4q-85 -77 -128 -111q-36 -28 -94 -67q48 -39 93 -66q70 -43 135 -64q48 -15 87 -15q35 0 48 16q9 10 23 54q9 25 30 99q9 33 19 67l42 -13q-18 -106 -20 -122q-4 -27 -4 -51q0 -40 15 -64q4 -7 36 -39q5 -5 6 -15q2 -11 -6 -21
q-7 -9 -13 -12q-28 -16 -72 -16q-76 0 -154 17q-124 28 -267 126q-43 30 -84 66q-66 -36 -119 -59q-116 -51 -280 -92q-41 -11 -155 -37l-10 47q170 48 297 99q80 31 165 83q13 8 37 23q-63 72 -103 150q-35 68 -69 169h-762v-74l-2 -50q-1 -61 -10 -115zM391 1710
q-69 -77 -108 -115q-33 -31 -102 -88q-38 -31 -93 -70l-24 28q61 54 96 92q88 93 166 225q32 52 55 101q13 28 38 85l122 -55q25 -11 33 -22q7 -8 7 -17q0 -12 -10 -19t-36 -8l-51 -4q-27 -42 -50 -76h382l98 101l121 -106q10 -9 11 -11q6 -6 6 -15t-7 -17q-7 -9 -20 -9
h-634zM1391 1672q73 -34 81 -38q63 -32 90 -55q26 -22 32 -57q1 -5 1 -10q0 -20 -12 -35q-13 -16 -34 -16q-18 0 -31 12q-7 7 -22 36q-34 68 -125 131zM1212 1710q-39 -40 -101 -87q-30 -23 -130 -88l-24 30q63 55 84 76q48 48 102 125q33 45 61 96q22 40 51 102l116 -53
q43 -20 43 -41q0 -11 -10 -19q-9 -7 -29 -8l-55 -4q-29 -38 -57 -72h479l99 101l121 -106q11 -11 14 -17q2 -5 2 -9q0 -9 -7 -17q-7 -9 -20 -9h-739zM562 1677q22 -10 78 -35q33 -14 63 -34q31 -19 44 -39q14 -21 14 -43q0 -20 -12 -34q-14 -17 -35 -17q-17 0 -29 11
q-2 2 -22 40q-15 29 -55 68q-24 24 -65 54zM1448 908q58 -21 78 -29q60 -25 86 -45q25 -18 33 -50q2 -7 2 -15q0 -17 -9 -31q-12 -18 -35 -18q-16 0 -27 10q-8 6 -23 31q-22 36 -57 66q-26 24 -66 48zM1637 1274l68 76l83 -54q27 -17 34 -29q6 -10 6 -20q0 -15 -12 -26
q-11 -10 -30 -19q-15 -7 -36 -16l-1 -104q0 -8 2 -33q2 -47 5 -71q3 -30 3 -44t-6 -24q-7 -11 -24 -17q-18 -7 -35 -7q-22 0 -32 8q-9 7 -9 16l-2 21h-1215v-15q0 -8 -8 -15q-6 -6 -19 -11q-13 -4 -25 -4q-21 0 -37 10q-10 5 -14 15q-4 9 -3 19q0 3 1 7q2 17 7 97l3 48
l-1 146q0 62 -8 105q-3 11 -8 29l118 -88h348q4 58 5 111h-319q-115 0 -194 -8l-38 88q94 -22 232 -22h1165l98 102l121 -107q13 -12 15 -16t2 -10q0 -9 -6 -16q-8 -10 -21 -10h-571v-112h358zM436 985h1215v235h-372v-34l-1 -29q0 -10 7 -20q9 -15 44 -19q11 -1 39 -1
q105 0 163 17q30 9 37 9q16 0 32 -10q23 -13 28 -37q2 -6 2 -11q0 -27 -32 -38q-35 -12 -201 -12q-94 0 -140 15q-49 16 -62 43q-10 18 -10 63v64h-309q-13 -40 -27 -62.5t-37 -40.5q-57 -43 -169 -72q-29 -8 -109 -24l-9 37q88 20 155 53q59 30 85 68q11 15 20 41h-349
v-235zM1185 1274v112h-299q-1 -53 -5 -112h304z" />
  </g>

</svg>
