<?xml version="1.0" standalone="no"?>
<!DOCTYPE svg PUBLIC "-//W3C//DTD SVG 1.1//EN" "http://www.w3.org/Graphics/SVG/1.1/DTD/svg11.dtd" >
<svg xmlns="http://www.w3.org/2000/svg" xmlns:xlink="http://www.w3.org/1999/xlink" version="1.1" viewBox="0 -120 1000 1000">
  <g transform="matrix(1 0 0 -1 0 880)">
   <path fill="currentColor"
d="M401 463h-144v-57q114 -32 114 -91q0 -28 -24 -28q-21 0 -38 33q-24 44 -52 66v-328l-58 -8v269q-73 -109 -152 -188l-15 14q119 166 164 318h-136l-13 27h152v126h-126l-14 27h140v126q-64 -12 -140 -21l-5 19q9 2 68 15q22 5 77 19v147l69 -11q32 -5 32 -15
q0 -8 -20 -18l-23 -10v-71q37 14 83 37l36 -40q10 -10 10 -17q0 -8 -12 -8q-5 0 -11 2l-19 6q-50 -14 -87 -22v-138h43l30 41l52 -47v-21h-125v-126h51l39 49l58 -54v-20q28 17 43 29q67 57 88 133h-66l-7 -45h-59l31 205l61 -32h61v70h-157l-18 28h175v95l71 -7
q17 -2 17 -14q0 -10 -16 -16l-11 -4v-54h80v97l72 -11q12 -1 12 -11q0 -9 -14 -13l-11 -4v-58h58l21 34l54 -34q15 -10 15 -18t-13 -13l-12 -4v-113l-62 -12v35h-61v-73h123l16 28l49 -43q11 -9 11 -16q0 -8 -11 -14l-10 -5q-10 -57 -14 -72q-10 -34 -35 -47q-14 -7 -21 -7
q-10 0 -10 16q1 29 -21 36l-29 7v17h59q8 20 16 72h-123v-77l-59 -12v89h-98q-19 -49 -40 -74q-10 -11 -33 -35h226l22 32l64 -56q9 -8 9 -12q0 -9 -11 -14l-11 -5v-265l-62 -13v29h-228v-32l-61 -11v308q-32 -22 -86 -46l-11 17l14 7zM475 655h70q6 25 10 73h-70zM536 242
h228v70h-228v-70zM536 397v-57h228v57h-228zM536 490v-65h228v65h-228zM618 728q-3 -37 -11 -73h91v73h-80zM618 825v-70h80v70h-80zM757 825v-70h61v70h-61zM373 69q61 25 98 47q42 26 95 77l48 -34q12 -8 12 -17q0 -12 -22 -12h-15q-84 -54 -210 -80zM713 192
q196 -42 196 -115q0 -16 -13 -24q-8 -4 -17 -4q-14 0 -24 8q-7 6 -20 22q-28 32 -75 63q-28 19 -54 30z" />
  </g>

</svg>
