<?xml version="1.0" standalone="no"?>
<!DOCTYPE svg PUBLIC "-//W3C//DTD SVG 1.1//EN" "http://www.w3.org/Graphics/SVG/1.1/DTD/svg11.dtd" >
<svg xmlns="http://www.w3.org/2000/svg" xmlns:xlink="http://www.w3.org/1999/xlink" version="1.1" viewBox="0 -36 256 256">
  <g transform="matrix(1 0 0 -1 0 220)">
   <path fill="currentColor"
d="M47 191.5q9 -7.5 0.5 -18.5t-11.5 4t-15 29q17 27 21 40l18 -11q-12 -6 -32 -29q10 -7 19 -14.5zM70 205q17 -10 23 -16.5t-0.5 -14.5t-11 4.5t-17.5 26.5q21 28 25 40l16 -12q-9 -3 -35 -28zM113 207q17 -11 22.5 -17.5t-1 -14.5t-10 4t-19.5 28q22 27 26 37l18 -13
q-13 -2 -36 -24zM40 155v-20h82v20h-82zM40 128v-21h82v21h-82zM40 100v-23h82v23h-82zM127.5 21.5q-6.5 16.5 -36.5 39.5l2 4q54 -22 47.5 -41t-13 -2.5zM77 52l-11 -4q-25 -22 -56 -37l-2 4q35 23 51 51zM26 89v47q0 18 -1 37l16 -11h80l9 11l14 -13l-9 -7v-39
q0 -25 1 -48l-14 -5v9h-82v-6l-15 -6q1 15 1 31zM156 65v114q0 29 -1 54l16 -10h48l12 11l13 -16l-10 -5q-14 -24 -34 -63q49 -42 43 -71.5t-38 -36.5q-5 17 -29 22v5q45 -15 52 10t-36 69q17 37 26 68h-48v-150q0 -26 1 -52l-16 -7q1 24 1 58z" />
  </g>

</svg>
