<?xml version="1.0" standalone="no"?>
<!DOCTYPE svg PUBLIC "-//W3C//DTD SVG 1.1//EN" "http://www.w3.org/Graphics/SVG/1.1/DTD/svg11.dtd" >
<svg xmlns="http://www.w3.org/2000/svg" xmlns:xlink="http://www.w3.org/1999/xlink" version="1.1" viewBox="0 -205 1024 1024">
  <g transform="matrix(1 0 0 -1 0 819)">
   <path fill="currentColor"
d="M420 928h456l28 40l58 -46q3 -3 4 -8q0 -13 -12 -14h-126v-248l70 4l32 44l58 -50q16 -12 0 -18l-160 -6v-40q0 -15 -14 -24q-14 -7 -34 -10v72l-302 -8q-55 -6 -68 -14l-24 36l132 4v258h-40q-9 0 -38 -6l-20 34v0v0zM566 644l214 6v66h-214v-72v0v0zM566 740h214v60
h-214v-60v0v0zM566 826h214v74h-214v-74v0v0zM658 540h250l26 38l60 -44q3 -3 4 -8q0 -13 -12 -14h-80v-294l28 6l26 38l44 -40q16 -12 0 -18l-98 -10v-65l4 -54q-1 -13 -16 -26q-16 -15 -38 -18l4 100v57l-130 -12q-48 -6 -72 -18l-24 32l72 10v312h-12l-16 -6l-20 34v0v0z
M752 204l108 10v96h-108v-106v0v0zM752 334h108v74h-108v-74v0v0zM752 434h108v78h-108v-78v0v0zM360 542h220l28 38l44 -44q6 -5 6 -10q1 -10 -10 -10h-38v-280l60 14l4 -16l-64 -24v-89l4 -58q0 -12 -18 -24q-15 -9 -36 -10l4 102v69q-101 -33 -136 -48q-34 -13 -46 -31
l-36 53l78 20v322h-30l-18 -8l-16 34v0v0zM468 206l96 20v82h-96v-102v0v0zM468 334h96v76h-96v-76v0v0zM468 436h96v80h-96v-80v0v0zM116 920h170l34 44l54 -54q3 -3 4 -8q0 -9 -8 -8h-138v-126h48l30 34l46 -44q3 -3 4 -8q-1 -7 -10 -8h-118v-114h50l34 40l48 -50
q3 -3 4 -8q-1 -7 -10 -8h-126v-118h68l22 34l52 -34q12 -9 -2 -20l-18 -18q-5 -130 -10 -196q-6 -65 -18 -94q-12 -27 -30 -45q-17 -17 -58 -38q-6 32 -30 46q-23 15 -70 26l4 17q44 -7 62 -10q16 -1 38 -2q21 0 36 14q14 12 22 88q8 74 10 206h-202v-6q3 -15 -18 -24
q-18 -6 -30 -6l4 102v436l52 -40v0v0zM108 484h80v118h-80v-118v0v0zM108 628h80v114h-80v-114v0v0zM188 768v126h-80v-126h80v0v0zM62 402h18q11 -114 8 -144q-3 -29 -18 -46q-13 -16 -28 -16q-15 -2 -24 12q-10 12 4 30t26 40q10 20 14 124v0v0zM100 392l12 8
q34 -48 44 -84q9 -34 4 -52q-3 -19 -14 -28q-11 -7 -22 -2q-10 4 -8 26q-1 21 2 54q0 33 -18 78v0v0zM150 408l12 8q44 -48 58 -78q12 -29 10 -46q0 -15 -12 -24q-11 -7 -22 -2q-10 3 -10 24q0 18 -6 46q-6 27 -30 72v0v0zM210 424l10 10q41 -41 56 -70q15 -30 12 -50
q-1 -19 -14 -28q-12 -8 -18 0q-7 6 -8 28q-1 21 -8 48q-6 23 -30 62v0v0z" />
  </g>

</svg>
