<?xml version="1.0" standalone="no"?>
<!DOCTYPE svg PUBLIC "-//W3C//DTD SVG 1.1//EN" "http://www.w3.org/Graphics/SVG/1.1/DTD/svg11.dtd" >
<svg xmlns="http://www.w3.org/2000/svg" xmlns:xlink="http://www.w3.org/1999/xlink" version="1.1" viewBox="0 -36 256 256">
  <g transform="matrix(1 0 0 -1 0 220)">
   <path fill="currentColor"
d="M55 209.5q-4 14.5 -19 32.5l2 2q22 -12 27.5 -19.5t-0.5 -18.5t-10 3.5zM76 197l12 -14l-7 -5q-8 -21 -20 -41v-17l5 -2q12 15 17 32l13 -12q-10 -3 -26 -22q11 -5 17 -11t2 -16.5t-10 3t-18 24.5v-100l-12 -6v109q-18 -26 -40 -44l-2 3q13 15 30.5 41t30.5 62h-25
q-12 1 -22 -2l-7 9h53zM216 197q-16 -24 -33 -41l-3 3q31 43 41 79l19 -14q-8 -3 -24 -27zM217.5 136q-20.5 -25 -38.5 -37l-2 4q45 46 54 79l17 -14q-10 -7 -30.5 -32zM216.5 77q-21.5 -25 -43.5 -40l-2 4q48 49 60 83l17 -16q-10 -6 -31.5 -31zM106.5 68
q-4.5 -31 -28.5 -60l-3 3q18 31 21 63t3.5 66.5t-0.5 56.5l15 -7h20q0 44 -1 57l20 -8l-7 -7v-15h14l10 9l13 -16h-37v-20h24l8 8l12 -13q-6 -2 -11 -7t-13 -18l4 -5l-24 -7v-18q0 -7 5 -7h10q6 0 7 5.5t1 17.5h4q1 -12 2.5 -16.5t6.5 -7.5q-4 -9 -17 -9h-21q-9 1 -9 14v20
l-9 -2l-7 -4l-8 7l24 6q0 21 -1 31l18 -9l-6 -7v-13l8 3l4 9l5 -5l8 20h-60q0 -84 -4.5 -115zM136 86q1 -25 -8 -46t-33 -32l-1 3q21 19 25.5 43t1.5 51l23 -13zM153 105l19 -12l-6 -6v-49q0 -12 10 -10h45q9 -1 10 8.5t2 28.5h3q1 -19 3.5 -25.5t8.5 -9.5q-5 -14 -25 -14
h-51q-18 -2 -18 17q0 49 -1 72z" />
  </g>

</svg>
