<?xml version="1.0" standalone="no"?>
<!DOCTYPE svg PUBLIC "-//W3C//DTD SVG 1.1//EN" "http://www.w3.org/Graphics/SVG/1.1/DTD/svg11.dtd" >
<svg xmlns="http://www.w3.org/2000/svg" xmlns:xlink="http://www.w3.org/1999/xlink" version="1.1" viewBox="0 -36 256 256">
  <g transform="matrix(1 0 0 -1 0 220)">
   <path fill="currentColor"
d="M115 161q7 0 7 10v42l12 -7q12 6 38 20h-97q-10 0 -20 -2l-9 9h129l12 10l16 -18q-12 0 -24 -4.5t-30 -13.5q9 -10 22 -19q24 14 39 30l16 -14q-11 0 -23 -6t-28 -13q17 -11 37 -17t35 -5v-4q-17 -2 -20 -15q-28 11 -49 27t-34 34l-8 -4v-32q0 -11 -4 -17.5t-16 -11.5
q-1 14 -30 19v5q22 -3 29 -3zM87 205l10 7l11 -16l-11 -4q-15 -16 -32 -28.5t-55 -24.5l-2 4q29 11 47 26t28 29h-29q-10 0 -19 -2l-9 9h61zM199 140l16 10l19 -17h-178q-12 1 -21 -3l-11 10h175zM75 110h112l8 9l18 -13l-8 -5q0 -20 1 -39l-17 -6v10h-114v-7l-18 -4
q1 18 1 33t-1 30zM81 63q15 -8 22 -16.5t-2 -17t-11 4t-11 27.5zM184 51q-11 -3 -28 -26h58l17 12l17 -19h-210q-9 0 -19 -2l-11 9h140q12 19 18 40zM75 73h114v30h-114v-30z" />
  </g>

</svg>
