<?xml version="1.0" standalone="no"?>
<!DOCTYPE svg PUBLIC "-//W3C//DTD SVG 1.1//EN" "http://www.w3.org/Graphics/SVG/1.1/DTD/svg11.dtd" >
<svg xmlns="http://www.w3.org/2000/svg" xmlns:xlink="http://www.w3.org/1999/xlink" version="1.1" viewBox="0 -36 256 256">
  <g transform="matrix(1 0 0 -1 0 220)">
   <path fill="currentColor"
d="M125 219l16 -18h-101q-10 0 -19 -2l-9 9h61q-5 26 -13 34l2 3q25 -15 25.5 -24t-6.5 -13h31zM111 135l15 -10l-7 -6v-19q0 -9 1 -17l-14 -5v5h-25v-52q0 -16 -17 -21q-3 15 -28 18v5q16 -2 24 -2t8 5v47h-26v-4l-14 -3q1 14 1 28.5t-1 27.5l15 -7h62zM42 118v-28h64v28
h-64zM113 36q-5 11 -22 31l2 3q25 -12 30 -20t0 -16.5t-10 2.5zM42 73l16 -12l-7 -4q-18 -21 -41 -37l-2 4q22 22 34 49zM109 194l15 -10l-6 -7v-16q0 -8 1 -17l-15 -5v6h-58v-3l-15 -3q1 13 1 26.5t-1 26.5l16 -7h56zM46 178v-26h58v26h-58zM222 20h-19q-20 0 -20 18v121
h-13q0 -54 -11.5 -88.5t-50.5 -63.5l-3 3q29 27 41 61.5t11 87.5h-1q-13 1 -24 -2l-9 9h34q0 65 -1 75l21 -10l-7 -7v-58h46l12 12l17 -19h-49v-116q0 -12 12 -12h6q11 0 12 10.5t1 31.5h5q1 -12 2.5 -24t10.5 -17q-7 -12 -23 -12zM187 227q32 -13 36.5 -21t-1 -16t-11.5 5
t-26 30z" />
  </g>

</svg>
