<?xml version="1.0" standalone="no"?>
<!DOCTYPE svg PUBLIC "-//W3C//DTD SVG 1.1//EN" "http://www.w3.org/Graphics/SVG/1.1/DTD/svg11.dtd" >
<svg xmlns="http://www.w3.org/2000/svg" xmlns:xlink="http://www.w3.org/1999/xlink" version="1.1" viewBox="0 -205 1024 1024">
  <g transform="matrix(1 0 0 -1 0 819)">
   <path fill="currentColor"
d="M902 806l34 38l46 -46q15 -13 16 -22q1 -4 -16 -8q-31 -6 -58 -36q-28 -30 -52 -56l-14 10l46 94h-506q-6 -60 -20 -86q-15 -26 -38 -34q-22 -7 -34 4q-13 9 -10 22q-1 12 20 28q17 13 38 44q18 31 22 98h20v-50h506v0v0zM548 968l8 12q57 -25 90 -46q32 -21 40 -44
q9 -24 -2 -42q-9 -16 -30 -16q-18 -1 -24 22q-3 23 -18 50q-13 24 -64 64v0v0zM516 524v-302q53 61 86 110q30 47 72 128q39 78 96 222q69 -42 72 -48t-6 -12q-18 0 -26 -6q-7 -7 -34 -62q-27 -53 -66 -124q-36 -71 -84 -136q-45 -63 -108 -120q-3 -64 12 -71t42 -6h138
q27 0 40 6q11 7 16 28q6 17 6 49q-1 27 4 100h18l6 -76q9 -57 40 -73q-18 -44 -42 -62q-25 -18 -70 -18h-194q-27 0 -48 18q-18 15 -20 66q-85 -74 -184 -116l-4 20q39 24 76 50t110 91v416l80 -40q7 -4 6 -8t-4 -8q-3 -2 -30 -16v0v0zM370 478q-4 -99 -8 -146
q-3 -45 -18 -72q-14 -25 -34 -34q-21 -10 -36 -4t-18 24q-1 18 16 30q17 11 32 34q12 21 22 52q8 29 26 116h18v0v0zM534 706q68 -38 98 -70q29 -30 26 -56q-3 -24 -18 -32q-14 -7 -28 -2q-13 6 -16 30q-2 24 -16 48q-12 24 -54 72l8 10v0v0zM798 502q65 -43 110 -88
q42 -45 60 -78q15 -32 12 -58q-2 -24 -16 -32q-15 -10 -30 -4q-16 5 -20 44q-4 37 -34 92q-30 53 -92 112l10 12v0v0zM140 400q-19 -49 -40 -52t-66 -2l-2 -20q66 -6 70 -14q6 -7 12 -22q8 -13 8 -44q1 -31 -6 -82q-9 -50 -6 -79q0 -28 16 -38q16 -6 32 0q16 9 20 36
q3 25 -6 81q-10 56 -10 98q-1 42 4 64q4 21 14 54l118 386l-22 6l-136 -372v0v0zM90 934l6 14q48 -18 82 -36q33 -15 52 -36q17 -19 20 -40q3 -19 -8 -34q-9 -13 -26 -14q-16 0 -22 16q-6 14 -14 34q-6 20 -24 38q-15 18 -66 58v0v0zM24 698l6 14q42 -16 78 -34
q35 -16 50 -34t18 -38q1 -18 -10 -32q-9 -12 -24 -12t-20 16q-6 13 -14 32q-10 17 -28 40q-18 21 -56 48v0v0z" />
  </g>

</svg>
