<?xml version="1.0" standalone="no"?>
<!DOCTYPE svg PUBLIC "-//W3C//DTD SVG 1.1//EN" "http://www.w3.org/Graphics/SVG/1.1/DTD/svg11.dtd" >
<svg xmlns="http://www.w3.org/2000/svg" xmlns:xlink="http://www.w3.org/1999/xlink" version="1.1" viewBox="0 -36 256 256">
  <g transform="matrix(1 0 0 -1 0 220)">
   <path fill="currentColor"
d="M143 89h36v50h-36v-50zM195 77l-16 -8v13h-36v-8l-15 -7q1 21 1 41.5t-1 45.5l15 -8h34l7 11l16 -12l-7 -6v-33q0 -16 2 -29zM160 225q-6 -13 -13 -27h74l5 11l17 -11l-7 -8q-2 -136 -10.5 -155t-32.5 -27q-2 14 -41 19v6q28 -3 40.5 -2.5t16.5 8.5t6.5 22t5.5 130h-77
q-21 -36 -42 -53l-3 3q23 33 34 59.5t15 44.5l24 -16zM50 245l22 -10l-7 -8v-35h17l7 11l17 -13l-9 -7v-90q2 -22 -15 -28q-1 13 -15 16v4q8 -1 13 -0.5t4 11.5v89h-19v-139q0 -14 1 -30l-16 -8q1 24 1 44v133h-18v-111l-15 -7q1 33 1 70t-1 62l17 -7h16q0 29 -1 53z" />
  </g>

</svg>
