<?xml version="1.0" standalone="no"?>
<!DOCTYPE svg PUBLIC "-//W3C//DTD SVG 1.1//EN" "http://www.w3.org/Graphics/SVG/1.1/DTD/svg11.dtd" >
<svg xmlns="http://www.w3.org/2000/svg" xmlns:xlink="http://www.w3.org/1999/xlink" version="1.1" viewBox="0 -205 1024 1024">
  <g transform="matrix(1 0 0 -1 0 819)">
   <path fill="currentColor"
d="M700 682l12 12l30 42q7 9 16 0q71 -63 70 -78q-2 -8 -15 -9h-474q-18 -18 -31 -37q-4 -7 -7 -7q-3 1 -9 8q-14 18 -27 31q-29 25 -14 28q20 14 23 38v141h-105q-42 -1 -73 -7q-9 -3 -10 6q-5 18 -20 31q-8 7 -4 11q4 3 11 -1q38 -9 84 -9h350q-1 6 0 10q-9 57 -46 98
q-5 7 1 13q6 5 22 -6q53 -24 66 -62q2 -20 -7 -45q-5 -4 -6 -8h285q14 1 30 19l26 37q7 9 16 0q71 -63 70 -78q-2 -8 -15 -9h-627v-171h364zM751 547l18 28q7 8 14 1q29 -19 57 -41q9 -8 8 -12q-2 -5 -9 -9q-26 -12 -27 -19q-2 -6 -2 -13v-194q0 -36 6 -97q1 -11 -5 -12
q-43 -15 -47 -14q-2 1 -2 11v26h-464v-23q0 -8 -6 -9q-20 -8 -39 -17q-9 -3 -8 12q4 63 5 140v180q-1 36 -5 82q-2 12 2 13q3 1 10 -6q12 -13 36 -31h449q6 0 9 4zM298 304v-71h464v71h-464zM298 406v-71h464v71h-464zM298 512v-75h464v75h-464zM444 198q36 -30 52 -46
q7 -7 4 -11t-13 -1q-15 2 -37 1q-21 -2 -94 -30q-108 -40 -241 -68q-13 -2 -16 8q-2 11 11 14q157 47 320 131q10 6 14 2zM594 165q1 10 16 9q74 -5 137 -14q56 -8 99 -23q48 -17 61 -33q13 -15 17 -36q3 -18 -3 -22q-5 -3 -33 16q-41 26 -90 42q-82 30 -193 49
q-11 2 -11 12z" />
  </g>

</svg>
