<?xml version="1.0" standalone="no"?>
<!DOCTYPE svg PUBLIC "-//W3C//DTD SVG 1.1//EN" "http://www.w3.org/Graphics/SVG/1.1/DTD/svg11.dtd" >
<svg xmlns="http://www.w3.org/2000/svg" xmlns:xlink="http://www.w3.org/1999/xlink" version="1.1" viewBox="0 -36 256 256">
  <g transform="matrix(1 0 0 -1 0 220)">
   <path fill="currentColor"
d="M32 143l-12 17q20 4 48 11v51h-22l-11 -3l-10 10h73l12 12l15 -19h-44v-49l41 9v-4q-88 -29 -90 -35zM199 158h14q10 0 11 10.5t1 20.5h3q0 -26 12 -30q-7 -14 -20 -13h-27q-15 -1 -13 18v62h-36q1 -18 -5.5 -45t-51.5 -45l-2 3q38 21 42.5 51.5t2.5 52.5l15 -10h33
l10 11l14 -13l-8 -5v-60q-1 -9 5 -8zM134 105v-13h54v13h-54zM120 92v13h-54v-13h54zM120 85h-54v-16h54v16zM134 69h54v16h-54v-16zM217 45l13 12l18 -20h-114q0 -11 1 -26l-16 -5q1 16 1 31h-83q-11 0 -20 -2l-10 9h113v18h-54v-4l-15 -4q2 34 0 67l15 -9h54v13h-61
q-10 0 -20 -2l-10 9h91q0 12 -1 23l22 -7l-7 -7v-9h62l12 12l17 -19h-91v-13h52l7 11l17 -12l-7 -7v-14q0 -16 1 -31l-16 -5v8h-54v-18h83v1z" />
  </g>

</svg>
