<?xml version="1.0" standalone="no"?>
<!DOCTYPE svg PUBLIC "-//W3C//DTD SVG 1.1//EN" "http://www.w3.org/Graphics/SVG/1.1/DTD/svg11.dtd" >
<svg xmlns="http://www.w3.org/2000/svg" xmlns:xlink="http://www.w3.org/1999/xlink" version="1.1" viewBox="0 -205 1024 1024">
  <g transform="matrix(1 0 0 -1 0 819)">
   <path fill="currentColor"
d="M588 696l42 -26h104l20 28l48 -28q8 -6 8 -12q0 -4 -20 -20v-92q0 -6 -8 -12q-15 -9 -38 -8v26h-110q-1 -12 -10 -20q-15 -10 -36 -10v174v0v0zM634 576h110v70h-110v-70v0v0zM510 430l50 -30h254l20 28l50 -30q12 -3 12 -12q-1 -6 -28 -26v-132l4 -76q1 -14 -18 -25
q-19 -9 -34 -10v31h-262v-17q0 -12 -18 -22q-19 -8 -34 -8l4 87v242v0v0zM558 174h262v92h-262v-92v0v0zM558 292h262v82h-262v-82v0v0zM392 73h504l36 50l60 -58q6 -3 6 -6q0 -12 -12 -12h-514q-15 1 -62 -8l-18 34v0v0zM876 834l38 48l64 -52q3 -4 4 -10q1 -10 -10 -10
h-476q-22 0 -70 -8l-14 32h464v0v0zM462 786l42 -34h364l26 28l50 -32q9 -4 10 -14q0 -3 -26 -24v-170l4 -62q0 -18 -20 -30q-17 -9 -34 -12v32h-366q0 -13 -12 -22q-18 -12 -42 -12l4 110v242v0v0zM512 494h366v232h-366v-232v0v0zM612 966l6 12q49 -18 80 -36
q30 -18 36 -38q6 -21 -2 -36q-8 -16 -28 -16q-18 0 -24 24q-3 21 -18 40q-12 19 -50 50v0v0zM248 938q6 -1 4 -10q0 -6 -12 -8q-15 -4 -30 -28q-13 -22 -34 -62h116l24 34l58 -48q7 -7 2 -10q0 -7 -26 -16q-18 -7 -36 -32q-17 -25 -58 -92h88l24 30l52 -36q6 -6 6 -8
q0 -6 -32 -30v-248l4 -76q1 -12 -16 -24q-18 -9 -36 -12v50h-208v-32q0 -16 -18 -28q-19 -13 -34 -10l4 102v314q-31 -56 -56 -88l-12 10q49 102 92 210q42 107 60 176l74 -28v0v0zM138 338h82v138h-82v-138v0v0zM268 338h78v138h-78v-138v0v0zM138 502h82v138h-82v-138v0v0
zM268 640v-138h78v138h-78v0v0zM134 666h100l56 138h-124q-30 -64 -60 -116l28 -22v0v0zM398 222l6 -18q-249 -80 -282 -97q-34 -15 -52 -36l-40 66l368 85v0v0z" />
  </g>

</svg>
