<?xml version="1.0" standalone="no"?>
<!DOCTYPE svg PUBLIC "-//W3C//DTD SVG 1.1//EN" "http://www.w3.org/Graphics/SVG/1.1/DTD/svg11.dtd" >
<svg xmlns="http://www.w3.org/2000/svg" xmlns:xlink="http://www.w3.org/1999/xlink" version="1.1" viewBox="0 -36 256 256">
  <g transform="matrix(1 0 0 -1 0 220)">
   <path fill="currentColor"
d="M47 90v-47h50v47h-50zM48 97h48l10 11l15 -16l-9 -6v-36q0 -14 1 -30l-16 -7v23h-50v-21l-16 -7q1 24 1 50q0 23 -1 48zM67 210q-3 14 -19 34l2 3q43 -19 31.5 -35t-14.5 -2zM94 199l17 14l21 -21h-93q-11 1 -21 -2l-9 9h85zM93 167l13 10l17 -17h-70q-11 1 -22 -2l-9 9
h71zM92 132l13 11l17 -18h-68q-11 1 -22 -2l-8 9h68zM229.5 60.5q-4.5 -42.5 -41.5 -52.5q-5 17 -35 26v4q36 -7 44 -5.5t13 13.5t7.5 49.5t4.5 110.5h-69q-10 0 -19 -2l-10 9h95l10 11l15 -15l-8 -5q-2 -101 -6.5 -143.5z" />
  </g>

</svg>
