<?xml version="1.0" standalone="no"?>
<!DOCTYPE svg PUBLIC "-//W3C//DTD SVG 1.1//EN" "http://www.w3.org/Graphics/SVG/1.1/DTD/svg11.dtd" >
<svg xmlns="http://www.w3.org/2000/svg" xmlns:xlink="http://www.w3.org/1999/xlink" version="1.1" viewBox="0 -205 1024 1024">
  <g transform="matrix(1 0 0 -1 0 819)">
   <path fill="currentColor"
d="M534 754h120v218l78 -32q6 -3 6 -8q1 0 0 -6l-34 -16v-156h136l38 50l60 -60q2 -3 2 -8q0 -7 -8 -8h-228v-208h186l38 50l64 -58q3 -4 4 -10q1 -9 -10 -8h-184v-355q-1 -21 2 -34q3 -11 24 -14h82q29 0 34 44q3 44 6 129h18q2 -84 8 -108q5 -22 32 -33q-10 -35 -26 -52
q-15 -17 -42 -22h-112q-40 0 -58 20q-18 19 -18 62v363h-138q0 -156 -24 -234q-21 -78 -90 -135q-66 -60 -192 -108l-8 16q133 71 182 127q51 57 66 118q14 63 14 216h-110q-22 0 -64 -8l-20 34h286v208h-130q-45 -93 -86 -150l-14 8q74 172 104 308q75 -36 78 -42
q1 -6 -4 -8q-3 -3 -18 -8t-24 -22q-9 -18 -26 -60v0v0zM38 866h304l30 50l58 -56q3 -3 4 -8q0 -12 -12 -12h-174v-248h58l36 44l52 -54q3 -2 4 -4q0 -12 -8 -12h-142v-282l182 62l6 -16q-270 -115 -306 -136q-33 -21 -54 -42l-46 62l168 56v296h-64q-21 0 -68 -8l-16 34h148
v248h-88q-21 0 -56 -8l-16 34v0v0z" />
  </g>

</svg>
