<?xml version="1.0" standalone="no"?>
<!DOCTYPE svg PUBLIC "-//W3C//DTD SVG 1.1//EN" "http://www.w3.org/Graphics/SVG/1.1/DTD/svg11.dtd" >
<svg xmlns="http://www.w3.org/2000/svg" xmlns:xlink="http://www.w3.org/1999/xlink" version="1.1" viewBox="0 -36 256 256">
  <g transform="matrix(1 0 0 -1 0 220)">
   <path fill="currentColor"
d="M105 203q-51 -8 -58 -12l-9 18q6 -1 17.5 11.5t17.5 25.5l13 -14l-6 -1q-15 -14 -30 -26l53 3q-5 10 -13 19l2 3q22 -12 25.5 -21t-3 -15.5t-9.5 9.5zM118 181q-3 -1 -9 -10t-16 -19l32 4l-6 12l2 2q20 -16 20 -24.5t-5 -11.5t-5.5 2.5t-2.5 13.5q-30 -4 -38 -11l-9 14
q7 4 14 16t10 22zM55 153q-2 9 -5 19l3 1q9 -11 13 -19t-3 -14t-7 8q-30 -4 -37 -9l-7 14q5 0 13 10.5t14 26.5l16 -11l-7 -2q-11 -15 -23 -26zM135 107.5q5 -9.5 2 -17.5t-12.5 6.5t-46.5 36.5q-28 -31 -68 -51l-2 5q26 17 43 35.5t22 30.5l14 -10l-6 -6q49 -20 54 -29.5z
M96 100l-8 -1q-31 -20 -58 -27l-1 5q37 17 54 37zM109 73l-9 -1q-32 -19 -71 -30l-1 5q22 8 40 19t31 22zM124 48l-8 -1q-8 -5 -37.5 -18t-59.5 -18v5q18 4 46.5 18.5t45.5 29.5zM174 213q0 15 -1 33l21 -11l-7 -8v-26h29l9 12l13 -19h-51v-44h20l6 10l16 -12l-8 -6
q-9 -47 -29 -81q25 -29 55 -36v-4q-11 -2 -14 -12q-27 12 -49 42q-26 -29 -73 -44l-2 4q49 25 67 52q-17 33 -23 81l-7 -3l-9 9h37v63zM184 72q16 31 24 71h-49q9 -38 25 -71z" />
  </g>

</svg>
