<?xml version="1.0" standalone="no"?>
<!DOCTYPE svg PUBLIC "-//W3C//DTD SVG 1.1//EN" "http://www.w3.org/Graphics/SVG/1.1/DTD/svg11.dtd" >
<svg xmlns="http://www.w3.org/2000/svg" xmlns:xlink="http://www.w3.org/1999/xlink" version="1.1" viewBox="0 -205 1024 1024">
  <g transform="matrix(1 0 0 -1 0 819)">
   <path fill="currentColor"
d="M752 874q2 -121 14 -184h102l38 50l62 -62q3 -6 4 -6q0 -7 -8 -8h-196q12 -63 40 -110q27 -45 58 -74q30 -30 48 -36q17 -7 22 -4t10 28q6 22 18 86l18 -2q-4 -73 -4 -104q-1 -31 8 -44q7 -13 8 -22q1 -7 -6 -10q-9 -2 -24 0t-48 16q-33 12 -72 46q-39 32 -72 88
q-32 54 -52 142h-162v-176l124 68l10 -14q-93 -71 -114 -88q-19 -15 -40 -50l-58 50q21 14 28 34v420l58 -40q98 21 164 40q65 18 164 54q51 -46 54 -52q3 -7 -2 -10q-6 -2 -20 0q-16 0 -58 -6q-40 -6 -116 -20v0v0zM536 390l56 -26h238l26 32l60 -42q6 -4 6 -8
q-1 -7 -22 -22v-176l4 -79q-1 -17 -16 -26q-15 -11 -38 -14v66h-264v-44q0 -10 -12 -20t-42 -20l4 108v271v0v0zM716 690q-9 60 -12 174q-58 -7 -146 -22v-152h158v0v0zM586 121h264v217h-264v-217v0v0zM24 526q63 84 124 214q60 128 88 220l72 -30q4 -6 0 -12q-5 -3 -16 -6
q-9 -4 -20 -22q71 -33 116 -56q42 -21 64 -48q21 -27 12 -50q-7 -22 -26 -22t-34 28q-13 26 -52 62q-37 34 -92 68q-39 -84 -90 -180q-49 -93 -134 -176l-12 10v0v0zM162 670h176l32 44l58 -54q6 -12 -2 -18h-148v-134h74l36 44l52 -52q15 -12 0 -20h-162v-296l192 48l6 -16
q-144 -51 -210 -72q-64 -17 -112 -37q-48 -19 -72 -44l-42 66l190 45v306h-92q-21 0 -56 -8l-16 36h164v134h-36l-20 -6l-12 34v0v0zM86 404l12 10q50 -48 70 -78q20 -29 22 -58q0 -29 -14 -40q-16 -10 -28 -4t-14 28q-1 22 -8 56q-7 32 -40 86v0v0zM290 248q59 96 104 178
l58 -40q3 -9 -2 -12q-7 -3 -20 -6q-13 -4 -46 -40q-31 -37 -82 -88l-12 8v0v0z" />
  </g>

</svg>
