<?xml version="1.0" standalone="no"?>
<!DOCTYPE svg PUBLIC "-//W3C//DTD SVG 1.1//EN" "http://www.w3.org/Graphics/SVG/1.1/DTD/svg11.dtd" >
<svg xmlns="http://www.w3.org/2000/svg" xmlns:xlink="http://www.w3.org/1999/xlink" version="1.1" viewBox="0 -36 256 256">
  <g transform="matrix(1 0 0 -1 0 220)">
   <path fill="currentColor"
d="M20 192q0 15 -1 28l22 -7l-7 -7v-34h32v53q0 10 -1 20l20 -6l-5 -7v-60h30v21q0 16 -1 30l23 -7l-8 -6v-18q0 -13 1 -28l-15 -5v6h-76l-9 -9l-11 12l6 5v19zM156 187h65l7 11l17 -15q-14 -5 -33 -33l-3 1l12 29h-66q-12 -34 -28 -58l-4 2q13 27 21.5 65t9.5 58l22 -9
l-7 -6q-4 -14 -13 -45zM189 154l-6 -7q7 -54 24.5 -83t37.5 -36v-4q-14 -1 -21 -11q-25 28 -33.5 56.5t-11.5 64.5q-6 -50 -24.5 -80t-53.5 -46l-1 3q32 21 48 57t19 98zM93 91l10 11l18 -18h-41v-41l46 9l2 -4q-96 -26 -105 -33l-8 19q13 1 51 7v43h-11q-13 0 -22 -3
l-10 10h43v36h-16q-13 0 -22 -3l-10 10h48v33h14v-33h17l10 11l18 -18h-45v-36h13z" />
  </g>

</svg>
