<?xml version="1.0" standalone="no"?>
<!DOCTYPE svg PUBLIC "-//W3C//DTD SVG 1.1//EN" "http://www.w3.org/Graphics/SVG/1.1/DTD/svg11.dtd" >
<svg xmlns="http://www.w3.org/2000/svg" xmlns:xlink="http://www.w3.org/1999/xlink" version="1.1" viewBox="0 -52 256 256">
  <g transform="matrix(1 0 0 -1 0 204)">
   <path fill="currentColor"
d="M252 30v-4q-14 3 -20 -5q-31 27 -46 86q-6 27 -8 74q-4 -2 -18 -5q-4 -1 -6 -2v-136q8 2 25 12q12 7 18 10l3 -3l-20 -15q-3 -2 -9 -5q-8 -5 -10 -6q-6 -5 -14 -14l-10 12q5 3 6 7v139q0 3 -6 11l4 2l10 -10q4 2 12 5l15 6t14 5q5 2 7 2l8 4q3 2 4 6l1 1l15 -11
q2 -2 2 -4q0 -1 -2 -1q-7 2 -19 -2q-3 -1 -8 -2q-8 -2 -17 -5q4 -42 11 -69q14 11 21 19q15 14 10 18l2 2l15 -12q2 -1 2 -2t-2 -1q-5 0 -8 -2q-4 -3 -13 -9q-16 -13 -26 -18q21 -66 57 -78zM68 245q2 -3 -2 -4q-3 -1 -5 -3v-53q-1 -5 -1 -11h20l7 10l16 -13q4 -2 -2 -2h-41
q0 -16 -2 -30q12 -9 21 -20q14 -17 17 -29q4 -13 -2 -18q-5 -4 -8 8t-12 29q-6 12 -16 24q-7 -80 -51 -116l-3 3q42 47 44 149h-25q-6 0 -11 -3l-8 8h45v15v52q-1 4 -7 7l2 3zM108 229l12 -9q15 3 36 8q6 1 9 2q14 3 27 6q5 2 11 3q4 2 5 2q0 1 1 2q2 3 3 5h2l14 -13
q2 -2 2 -4q0 -1 -2 -1q-9 3 -19 0q-5 -1 -14 -2q-11 -2 -30 -6q-6 -1 -22 -4q-13 -2 -21 -3v-41q0 -76 -8 -108q-7 -32 -31 -59l-4 3q20 28 26 58q7 30 7 95v53q-1 5 -7 11zM69 228q21 -9 27 -23q4 -9 -2 -13q-4 -4 -7 4q-4 16 -19 30z" />
  </g>

</svg>
