<?xml version="1.0" standalone="no"?>
<!DOCTYPE svg PUBLIC "-//W3C//DTD SVG 1.1//EN" "http://www.w3.org/Graphics/SVG/1.1/DTD/svg11.dtd" >
<svg xmlns="http://www.w3.org/2000/svg" xmlns:xlink="http://www.w3.org/1999/xlink" version="1.1" viewBox="0 -205 1024 1024">
  <g transform="matrix(1 0 0 -1 0 819)">
   <path fill="currentColor"
d="M912 942l66 -56q13 -9 2 -14q-1 -3 -10 -2h-454v-781h392l32 32l58 -48q3 -5 0 -8q0 -2 -6 -4h-466l-42 -36l-56 46l38 28v831l60 -34h346l40 46v0v0zM594 812l48 -36h222l26 36l50 -36q12 -7 12 -16q1 -3 -28 -30v-122l4 -74q0 -15 -18 -24t-36 -8v40h-230v-12
q0 -15 -14 -26q-16 -9 -40 -8l4 88v228v0v0zM644 568h230v78h-230v-78v0v0zM644 672h230v78h-230v-78v0v0zM776 496q7 -3 6 -6q3 -7 -12 -10q-16 -4 -28 -22q-13 -18 -28 -44h176l36 46q58 -55 62 -62q3 -5 0 -10q-3 -4 -26 -4h-80q-36 -77 -78 -130q76 -23 104 -46t26 -46
q0 -22 -18 -27q-15 -3 -32 13q-15 17 -42 38q-24 18 -66 40q-67 -61 -236 -117l-6 16q147 67 202 119q-54 23 -132 50l50 94h-68q15 0 -32 -8l-16 34h130q20 36 46 106l62 -24v0v0zM654 304q39 -13 108 -34q38 42 68 118h-128l-48 -84v0v0zM246 970q75 -25 78 -34
q0 -9 -6 -12q-5 0 -22 -6q-15 -6 -54 -74h94l28 38l54 -40q8 -3 8 -12q0 -6 -30 -30v-663q1 -44 -16 -68q-15 -21 -60 -42q-13 34 -38 46q-24 13 -78 28l4 18q70 -13 92 -14q20 0 32 8q12 10 12 35v248h-8q-58 -96 -134 -174t-172 -129l-8 12q77 58 140 131q61 69 122 160
h-178q-30 1 -54 -10l-24 34h98v464l56 -40h40q12 60 24 126v0v0zM176 420h168v116h-168v-116v0v0zM176 560h168v118h-168v-118v0v0zM176 702h168v116h-168v-116v0v0z" />
  </g>

</svg>
