<?xml version="1.0" standalone="no"?>
<!DOCTYPE svg PUBLIC "-//W3C//DTD SVG 1.1//EN" "http://www.w3.org/Graphics/SVG/1.1/DTD/svg11.dtd" >
<svg xmlns="http://www.w3.org/2000/svg" xmlns:xlink="http://www.w3.org/1999/xlink" version="1.1" viewBox="0 -200 999 1000">
  <g transform="matrix(1 0 0 -1 0 800)">
   <path fill="currentColor"
d="M241 968l-14 -58v-76h35l34 35l41 -57h-111v-125h63l34 36l44 -57h-106l48 -36l-25 -29l-56 -130h73l36 40l45 -63h-154v-133h53l31 38l44 -60h-128v-249q-8 -15 -20 -22.5t-19 -7.5l-2 2v278h-91l-30 -10l-10 31h131v133h-88l-36 -8l-15 31h167q18 66 28 116t13 79h-131
q21 -27 33.5 -48.5t19.5 -40t9 -34.5t2 -32q0 -14 -3 -25.5t-14 -11.5q-7 0 -13 4.5t-8 23.5q0 27 -1 46.5t-4.5 37.5t-10 36.5t-16.5 44.5h-21l-36 -11l-14 31h139v125h-61l-31 -8l-10 30h102v166zM762 992l57 -47l-19 -43q-4 -27 -7.5 -49t-6.5 -42.5t-6.5 -41.5t-7.5 -46
h87l32 37l48 -58h-63q-2 -73 -5.5 -134t-9.5 -113.5t-15 -97.5t-22 -87q9 -25 23 -52t32 -51t39 -42.5t44 -25.5q-14 -5 -21.5 -8.5t-14 -8t-14 -11t-20.5 -16.5q-17 23 -29.5 43t-22.5 40.5t-18 42t-16 47.5q-23 -57 -53 -113t-82 -107l-11 -5q16 25 34.5 58.5t35.5 70.5
t32.5 75t25.5 71q-22 78 -31.5 164t-10.5 189q-11 -37 -20.5 -69.5t-20.5 -56.5l-10 -5q30 153 49 277t21 215h-3zM756 668q4 -56 8 -100t8.5 -83.5t11 -78.5t15.5 -85q17 63 24.5 152t7.5 210v19h-66zM499 689l-11 -15l-14 -191h131v206h-106zM471 459q-4 -54 -9 -108
t-8 -106l132 -14q0 2 5 59t12 169h-132zM455 749l34 -37h116l23 46l44 -53l-22 -40v-180h-2l26 42l47 -69h-79l-18 -233l12 -3l34 31l43 -67l-93 11q-11 -89 -32 -130t-50 -52q0 40 -18 59t-50 30l4 12q31 -21 50 -21q15 0 24 5.5t15 18.5t10 34t9 51l-169 22l19 231
l-39 -11l-15 37h58zM614 856l35 44l46 -70h-211q-11 -35 -22 -61.5t-21.5 -46.5t-20.5 -34.5t-19 -26.5l-10 6q15 42 28 81t24 78.5t19 81.5t13 91l48 -56l-17 -29l-15 -58h123zM519 681l3 -7q17 -31 27.5 -52t16 -36t7.5 -26t2 -21q0 -17 -7 -30t-18 -17q-8 0 -10.5 16.5
t-4 43.5t-4.5 60.5t-12 68.5zM499 425v2q39 -38 55 -64t16 -55q0 -5 -2 -13t-5.5 -15.5t-8 -13t-9.5 -5.5t-6.5 15t-4.5 38.5t-10.5 52.5t-24.5 58z" />
  </g>

</svg>
