<?xml version="1.0" standalone="no"?>
<!DOCTYPE svg PUBLIC "-//W3C//DTD SVG 1.1//EN" "http://www.w3.org/Graphics/SVG/1.1/DTD/svg11.dtd" >
<svg xmlns="http://www.w3.org/2000/svg" xmlns:xlink="http://www.w3.org/1999/xlink" version="1.1" viewBox="0 -36 256 256">
  <g transform="matrix(1 0 0 -1 0 220)">
   <path fill="currentColor"
d="M32 110h18v69h-18v-69zM63 110h18v69h-18v-69zM32 186h18q0 41 -1 58l20 -7l-6 -8v-43h17l7 10l12 -12l-6 -7q0 -58 1 -73l-13 -10v9h-18v-45l21 5q-2 9 -10 24l3 2q23 -21 24.5 -31t-4.5 -16.5t-8 1t-3 14.5q-24 -8 -43.5 -15.5t-24.5 -10.5l-9 18q8 -1 41 6v48h-18v-7
l-14 -7q1 22 1 52.5t-1 53.5zM217 193l-3 2l10 17h-105q1 -11 -4 -16t-14 -4t0.5 9.5t13.5 28.5h4v-11h50q-1 13 -13 25l2 2q22 -8 24 -14.5t-5 -12.5h47l8 9l15 -15q-11 -1 -30 -20zM115.5 158q-7.5 -4 -14 -1t3 9.5t15.5 25.5h3q0 -30 -7.5 -34zM240.5 168
q-0.5 -7 -5.5 -11.5t-8 6t-16 24.5l4 4q26 -16 25.5 -23zM136 198l22 -7l-8 -7v-15q0 -11 11 -11h25q11 0 12 6.5t2 20.5h4q0 -8 1.5 -16t10.5 -10q-8 -11 -24 -11h-34q-21 0 -21 17q0 16 -1 33zM184.5 195.5q5.5 -4.5 0.5 -14t-9.5 0.5t-19.5 23l1 4q22 -9 27.5 -13.5z
M176 96h32v23h-32v-23zM221 119v-91q1 -15 -16 -20q-5 13 -29 18v4q18 -2 25 -1.5t7 4.5v24h-76v-45l-14 -5q1 18 1 28v61q0 18 -1 36l14 -6h31q0 6 -1 21l20 -6l-6 -5v-10h31l8 10l15 -12zM208 64v25h-32v-25h32zM132 64h31v25h-31v-25zM132 119v-23h31v23h-31z" />
  </g>

</svg>
