<?xml version="1.0" standalone="no"?>
<!DOCTYPE svg PUBLIC "-//W3C//DTD SVG 1.1//EN" "http://www.w3.org/Graphics/SVG/1.1/DTD/svg11.dtd" >
<svg xmlns="http://www.w3.org/2000/svg" xmlns:xlink="http://www.w3.org/1999/xlink" version="1.1" viewBox="0 -36 256 256">
  <g transform="matrix(1 0 0 -1 0 220)">
   <path fill="currentColor"
d="M33 106h17v72h-17v-72zM62 106h19v72h-19v-72zM50 51v48h-17v-7l-14 -7q2 22 2 53.5t-2 55.5l14 -9h17q0 46 -1 62l22 -10l-9 -9v-43h18l7 10l12 -12l-6 -7v-54q0 -19 1 -25l-13 -7v9h-19v-46l22 6q-2 9 -8 29l3 2q20 -26 20.5 -36t-4.5 -15t-7 -0.5t-3 13.5
q-24 -7 -41 -14.5t-25 -12.5l-10 17q7 1 41 9zM225 203h-100q1 -12 0 -17t-6.5 -8t-11 -1t2 12.5t10.5 29.5h4l1 -9h45q-1 18 -13 35l2 2q19 -11 24 -19t-4 -18h45l10 7l13 -15q-13 -1 -29 -21l-2 2zM133 89h35v20h-35v-20zM180 89h35v20h-35v-20zM132 64h36v18h-35
q0 -9 -1 -18zM180 64h35v18h-35v-18zM213.5 27.5q1.5 2.5 1.5 6.5v23h-35v-42l-12 -4v46h-36q-2 -20 -12 -31.5t-25 -17.5l-1 3q17 14 21.5 27.5t4.5 35t-1 47.5l13 -5h82l8 8l12 -12l-6 -5v-80q0 -6 -3 -11t-12 -8q-4 13 -23 16v4q22 -3 23.5 -0.5zM186 148q22 -12 62 -13
v-5q-12 0 -18 -9q-30 5 -54 18q-21 -14 -77 -21l-1 4q49 12 67 25q-17 14 -28 34l3 1q17 -19 35 -28q18 13 32 35l15 -15l-8 -3q-16 -14 -28 -23zM155 199l2 2q14 -3 21.5 -7.5t2.5 -16t-10.5 1t-15.5 20.5zM207 163l2 2q14 -2 20.5 -5.5t3 -12.5t-8.5 -1t-17 17zM114 168
l2 2q16 -7 22 -10.5t1.5 -14t-10 1t-15.5 21.5z" />
  </g>

</svg>
