<?xml version="1.0" standalone="no"?>
<!DOCTYPE svg PUBLIC "-//W3C//DTD SVG 1.1//EN" "http://www.w3.org/Graphics/SVG/1.1/DTD/svg11.dtd" >
<svg xmlns="http://www.w3.org/2000/svg" xmlns:xlink="http://www.w3.org/1999/xlink" version="1.1" viewBox="0 -36 256 256">
  <g transform="matrix(1 0 0 -1 0 220)">
   <path fill="currentColor"
d="M209 115v-81q1 -20 -16 -26q-2 14 -21 18v4q12 -1 19 -0.5t7 8.5v75q-17 -4 -24 -12l-11 19q10 4 19.5 18t21.5 35q-11 -1 -19 -3t-13 -8l-9 16q9 3 17 21t15 46l14 -11q-8 -10 -17 -27t-15 -29l28 1q10 18 15 32l16 -14q-8 -5 -23 -28t-36 -51l50 6q-2 9 -9 24l2 2
q20 -21 23 -31t-2.5 -17t-7 -1l-4.5 18zM193 78q-8 -9 -34 -55l-4 2q5 11 12.5 28.5t9.5 37.5zM243.5 56.5q5.5 -12.5 -1.5 -23.5t-9.5 7.5t-17.5 49.5l3 2q20 -23 25.5 -35.5zM55 202q13 21 24 43l14 -15l-5 -2q-19 -24 -28 -35q14 -36 15.5 -90.5t-7 -72.5t-23.5 -22
q-3 14 -27 23v3q20 -3 30.5 -0.5t13.5 25.5t0 77q-20 -42 -54 -69l-2 3q22 26 31 41.5t21 43.5q-3 19 -7 30q-18 -22 -41 -38l-1 3q21 20 37 43q-10 19 -33 37l2 3q24 -11 40 -31zM130 116v-81q1 -19 -16 -25q-1 13 -19 17v4q11 -1 17.5 -0.5t6.5 8.5v75q-14 -4 -22 -12
l-10 18q10 4 18.5 17.5t19.5 34.5q-10 -1 -17.5 -3t-12.5 -8l-8 16q8 2 15.5 19.5t13.5 44.5l14 -10q-6 -10 -14 -26.5t-14 -27.5h26q7 18 12 32l14 -14q-7 -5 -19.5 -27t-31.5 -50l43 6q-1 9 -8 23l3 2q17 -20 20 -29.5t-3 -16.5t-7.5 -1t-2.5 17q-8 -2 -18 -3zM115 80
q-9 -12 -34 -57l-4 2q7 14 14 31t10 36zM158.5 67q5.5 -12 -1.5 -23t-8 7t-10 40l2 2q12 -14 17.5 -26z" />
  </g>

</svg>
