<?xml version="1.0" standalone="no"?>
<!DOCTYPE svg PUBLIC "-//W3C//DTD SVG 1.1//EN" "http://www.w3.org/Graphics/SVG/1.1/DTD/svg11.dtd" >
<svg xmlns="http://www.w3.org/2000/svg" xmlns:xlink="http://www.w3.org/1999/xlink" version="1.1" viewBox="0 -205 1024 1024">
  <g transform="matrix(1 0 0 -1 0 819)">
   <path fill="currentColor"
d="M810 370l62 -54q3 -4 4 -10q-2 -4 -10 -8l-36 -10l-110 -239q-10 -13 -34 -12q-12 0 -20 2l110 265h-274q-21 0 -36 -8l-30 36h340l34 38v0v0zM596 512l10 10q74 -42 92 -66q16 -25 14 -46q-1 -21 -16 -32q-15 -10 -30 -4q-16 5 -16 26q0 18 -6 42q-6 21 -48 70v0v0z
M694 680q9 -6 10 -8q0 -6 -24 -18q45 -57 88 -96q40 -36 86 -66q44 -27 134 -48v-16q-37 0 -56 -6t-40 -30q-52 36 -88 72q-37 34 -70 74q-31 38 -74 106q-67 -82 -154 -160q-85 -79 -182 -134l-8 12q94 75 176 162t140 178l62 -22v0v0zM634 980l80 -30q10 -3 8 -12
q-4 -6 -10 -8l-26 -12v-178h162v176l74 -32q6 -3 6 -8q6 -9 -30 -20v-86l4 -74q0 -14 -18 -28q-15 -12 -36 -12v58h-370l-32 -30l-52 40q28 21 26 40v152l80 -28q3 -4 4 -8q0 -4 -32 -20v-120h162v240v0v0zM26 748h172v228l66 -30q22 -8 12 -22l-28 -14v-162h44l30 40
l50 -48q3 -3 4 -8q0 -12 -14 -12h-114v-96q71 -37 98 -62q27 -23 34 -46q7 -22 0 -40q-8 -19 -28 -20q-18 0 -24 24q-4 24 -22 54q-16 30 -58 66v-426l4 -107q0 -14 -20 -26q-18 -12 -38 -12l4 147v360q-31 -84 -76 -164q-44 -79 -94 -136l-10 10q38 63 68 126q30 62 60 152
q31 90 50 196h-102q-6 0 -48 -8l-20 36v0v0z" />
  </g>

</svg>
