<?xml version="1.0" standalone="no"?>
<!DOCTYPE svg PUBLIC "-//W3C//DTD SVG 1.1//EN" "http://www.w3.org/Graphics/SVG/1.1/DTD/svg11.dtd" >
<svg xmlns="http://www.w3.org/2000/svg" xmlns:xlink="http://www.w3.org/1999/xlink" version="1.1" viewBox="0 -36 256 256">
  <g transform="matrix(1 0 0 -1 0 220)">
   <path fill="currentColor"
d="M205 230l16 13l19 -20h-95l-15 -15l12 -8l-7 -7q0 -33 1 -47l-16 -8q1 25 1 61q-19 -17 -44.5 -30.5t-65.5 -23.5l-1 5q43 15 73 36t42 37h-72q-10 0 -19 -2l-9 9h180zM223.5 186.5q16.5 -7.5 15 -23t-15 0.5t-65.5 41l2 3q47 -14 63.5 -21.5zM50 118l14 -6h37
q14 21 14 30l16 -13q-7 -4 -11.5 -6.5t-11.5 -10.5h89l8 10l14 -15l-7 -6v-76h7l14 14l16 -21h-204q-12 -1 -23 -3l-12 10h41v69q0 6 -1 24zM66 25h36v80h-36v-80zM115 25h34v80h-34v-80zM162 25h36v80h-36v-80z" />
  </g>

</svg>
