<?xml version="1.0" standalone="no"?>
<!DOCTYPE svg PUBLIC "-//W3C//DTD SVG 1.1//EN" "http://www.w3.org/Graphics/SVG/1.1/DTD/svg11.dtd" >
<svg xmlns="http://www.w3.org/2000/svg" xmlns:xlink="http://www.w3.org/1999/xlink" version="1.1" viewBox="0 -36 256 256">
  <g transform="matrix(1 0 0 -1 0 220)">
   <path fill="currentColor"
d="M81 234l-9 -1q-21 -19 -48 -30l-2 4q29 19 44 39zM71 215l11 -14h-5l-12 -11v-41q0 -6 1 -13l-14 -5q1 7 1 14v36q-19 -14 -33 -19v4q33 25 51 49zM130 239l-5 -2l-2 -6h20l7 5l10 -8l-5 -4v-11h7l8 7l10 -14h-81q-7 0 -15 -1l-6 8h29l3 11h-9l-7 -1l-7 8h25l3 15z
M121 224l-3 -11h25v11h-22zM94 205l9 -3h48l4 3l9 -7l-4 -4v-12l-10 -3v1h-22l10 -3l-4 -2v-2h20l7 6l10 -13h-37v-10h22l8 7l12 -14h-42v-11l-11 -5v16h-29l-5 -3l-8 10l5 3l6 7h-3l-6 -1l-6 8h46v7h-18v-1l-11 -2v28zM105 187h45v8h-45v-8zM98 166l8 -5l-5 -1l-6 -4h28v10
h-25zM173 233h33l9 9l10 -16h-38l-7 -1zM172 203h38l9 8l13 -15h-23v-42q1 -15 -14 -20q-3 10 -18 13v4q10 -1 15.5 -1t4.5 10v36h-13l-5 -3zM220 133l12 11l15 -18h-200q-22 0 -28 -2l-11 9h212zM98 126l12 -10l-9 -2q-11 -5 -29.5 -11t-46.5 -11v4q20 5 40 13t33 17z
M22 105l-1 3q23 8 44 21l10 -9l-8 -2q-27 -9 -45 -13zM208 117l5 5l11 -9l-6 -4q-8 -8 -20 -19q25 -12 46 -16v-3q-17 -3 -17 -9q-23 12 -37 22q-20 -11 -51 -17l-1 4q29 10 44 20q-10 7 -21 17l3 2l24 -14q10 8 15 14h-40l-6 -2l-10 9h61zM60 40.5q0 14.5 -1 23.5l13 -1h48
v65h12v-65h49l5 8l14 -9l-5 -7v-23q1 -12 -14 -17q-5 11 -24 15v3q16 -2 21 -1.5t5 6.5v18h-51v-35v-10l-13 -3q1 14 1 18v30h-47v-35l-14 -4q1 9 1 23.5zM58 86q12 -3 11 -8t-4.5 -6t-5.5 3.5t-6 8.5zM50 83q-14 -5 -27 -7l-1 3q11 4 26 10.5t27 15.5l10 -7l-10 -4h25l7 3
l11 -11l-8 -4q-8 -5 -30 -12.5t-65 -13.5v5q26 5 49.5 12.5t34.5 13.5h-33l-11 -2zM38 80q11 -3 10 -8t-4.5 -6t-5 3.5t-5.5 8.5z" />
  </g>

</svg>
