<?xml version="1.0" standalone="no"?>
<!DOCTYPE svg PUBLIC "-//W3C//DTD SVG 1.1//EN" "http://www.w3.org/Graphics/SVG/1.1/DTD/svg11.dtd" >
<svg xmlns="http://www.w3.org/2000/svg" xmlns:xlink="http://www.w3.org/1999/xlink" version="1.1" viewBox="0 -200 999 1000">
  <g transform="matrix(1 0 0 -1 0 800)">
   <path fill="currentColor"
d="M547 272q52 -69 72.5 -114.5t20.5 -75.5q0 -18 -5.5 -31t-13 -22t-14 -13.5t-8.5 -4.5q-5 0 -9 13.5t-7 32.5t-5.5 40.5t-5.5 38.5q-32 -6 -67.5 -15.5t-68 -21t-58.5 -23t-39 -21.5l-21 -14l-22 79l52 8q35 103 62.5 190.5t33.5 159.5h-84l-38 -13l-22 36h143v226h-45
l-45 -13l-15 35h105v252l66 -32l-19 -69v-151h38l35 43l53 -66h-126v-225h56l39 42l60 -65h-182l45 -44l-25 -42q-8 -15 -21 -46.5t-29 -69.5t-33.5 -77.5t-33.5 -70.5q46 5 101 11.5t100 14.5q-4 28 -10.5 53.5t-18.5 58.5zM812 629l-16 -71v-529q-13 -18 -26 -22t-22 -4
v663zM606 577q21 46 36.5 97.5t27 106t19.5 110.5t14 110h-2l69 -40l-21 -40l-34 -130h120l31 47q45 -26 65 -45.5t20 -30.5q-2 -13 -11.5 -14.5t-25 -5.5t-36 -17t-44.5 -49l-10 5q8 17 18 38.5t10 35.5q0 7 -6 13h-138q-28 -83 -51.5 -128.5t-40.5 -69.5zM103 948
q28 -6 51.5 -17t40 -24.5t26 -28t10.5 -27.5q0 -21 -6.5 -38t-18.5 -17q-14 0 -27 21q-13 38 -31.5 67.5t-50.5 52.5zM56 721q23 -9 43.5 -23.5t36 -31t24.5 -34.5t9 -34q0 -33 -13 -48t-23 -15q-11 0 -15.5 16t-11 41.5t-19 57t-38.5 63.5zM91 283q24 1 37.5 7t21.5 17
q9 7 17.5 27t18.5 54.5t23 85t31 118.5l91 401l10 2l-123 -703q-1 -12 -4 -32t-6 -49t-5 -68.5t-2 -90.5v-34q-9 -11 -19 -15t-18 -4q-17 0 -23.5 8.5t-6.5 18.5q0 12 1.5 30t3.5 36.5t3.5 35t1.5 24.5q0 15 -2.5 28t-8.5 25.5t-17 27t-29 33.5z" />
  </g>

</svg>
