<?xml version="1.0" standalone="no"?>
<!DOCTYPE svg PUBLIC "-//W3C//DTD SVG 1.1//EN" "http://www.w3.org/Graphics/SVG/1.1/DTD/svg11.dtd" >
<svg xmlns="http://www.w3.org/2000/svg" xmlns:xlink="http://www.w3.org/1999/xlink" version="1.1" viewBox="0 -36 256 256">
  <g transform="matrix(1 0 0 -1 0 220)">
   <path fill="currentColor"
d="M208 219l16 13l18 -20h-187q-15 0 -24 -3l-10 10h187zM136 140h60l7 12l16 -13l-7 -8q-1 -77 -8.5 -95t-28.5 -24q-4 16 -44 22l1 5q42 -6 48.5 -4.5t11 14.5t5.5 84h-62q-7 -39 -21.5 -61t-38.5 -35.5t-45 -20.5l-1 5q47 22 66 48t25 64h-59l-8 -9l-13 12l8 7
q4 23 6 33.5t6 38.5h15l-13 -75h59q4 33 5 75h16q-1 -27 -6 -75z" />
  </g>

</svg>
