<?xml version="1.0" standalone="no"?>
<!DOCTYPE svg PUBLIC "-//W3C//DTD SVG 1.1//EN" "http://www.w3.org/Graphics/SVG/1.1/DTD/svg11.dtd" >
<svg xmlns="http://www.w3.org/2000/svg" xmlns:xlink="http://www.w3.org/1999/xlink" version="1.1" viewBox="0 -200 1000 1000">
  <g transform="matrix(1 0 0 -1 0 800)">
   <path fill="currentColor"
d="M173 907q-18 2 -37 -14l-35 30h279l37 36l39 -39q7 -7 0 -12q-3 -2 -4 -3l-15 -10v-62h16l24 26l48 -35q10 -7 8 -8q0 -1 -18 -1h-78v-33l4 -41q-1 -42 -45 -46v29h-152q-12 -42 -31 -75h180l33 33l44 -38q8 -6 -2 -13q-3 -2 -4 -3l-12 -9v-41l5 -75q2 -30 -44 -35v59
h-201v-33q3 -36 -46 -43q1 9 3 24q2 13 4 35v85q-50 -51 -141 -103l-6 11q152 112 179 221h-35q-26 1 -44 -13l-33 29h117q8 38 11 75h-120q-21 1 -46 -14l-31 32h198q2 34 1 74h-50zM838 250l38 46l76 -51q10 -8 7 -11q-4 -4 -20 -4h-820q-26 1 -46 -13l-31 33h270v114
h-120q-27 1 -46 -13l-32 33h198v63q2 15 -25 41l8 10l80 -33q14 -5 6 -11q-17 -3 -26 -17v-53h254v59q2 16 -24 41l8 11l80 -34q12 -5 6 -10q-16 -4 -27 -18v-49h103l36 43l72 -49q10 -7 7 -10q-4 -4 -20 -4h-198v-114h186zM828 984l63 -37q6 -4 6 -10q0 -5 -6 -5
q-31 0 -48 -17q-30 -31 -72 -69h68l29 37l64 -43q11 -6 8 -8q-2 -3 -19 -2h-180v-94h75l32 37l61 -43q10 -6 8 -8q-3 -3 -19 -2h-157v-100h119l35 39l61 -45q11 -6 9 -8q-3 -3 -19 -2h-205v-39l2 -57q2 -37 -54 -45q5 38 7 113v28h-133q-27 1 -44 -13l-34 29h211v100h-81
q-26 1 -44 -13l-33 29h158v94h-98q-24 1 -44 -12l-33 28h220q47 49 85 110q3 6 -5 22zM355 364v-114h254v114h-254zM212 631v-86h201v86h-201zM327 221l71 -35q16 -8 14 -13q-3 -4 -24 -6q-19 -2 -44 -20q-35 -24 -83 -51q-64 -38 -186 -78l-5 12q210 107 258 162
q3 10 -6 19zM595 194l5 15q99 -29 145 -53q52 -27 81 -52q30 -25 37 -52q6 -28 -16 -34q-19 -4 -39 26q-19 30 -66 69q-42 37 -147 81zM396 740v75h-137q-2 -40 -11 -75h148zM396 907h-133q0 -40 -2 -74h135v74zM613 952q66 -38 64 -76q-3 -21 -21 -24q-16 -1 -23 21
q-8 28 -21 42q-19 23 -63 48l5 12q33 -8 59 -23z" />
  </g>

</svg>
