<?xml version="1.0" standalone="no"?>
<!DOCTYPE svg PUBLIC "-//W3C//DTD SVG 1.1//EN" "http://www.w3.org/Graphics/SVG/1.1/DTD/svg11.dtd" >
<svg xmlns="http://www.w3.org/2000/svg" xmlns:xlink="http://www.w3.org/1999/xlink" version="1.1" viewBox="0 -205 1024 1024">
  <g transform="matrix(1 0 0 -1 0 819)">
   <path fill="currentColor"
d="M828 582l34 42l54 -50q3 -3 4 -8q0 -10 -12 -10h-172v-166h138l32 42l56 -50q3 -3 4 -8q0 -12 -12 -12h-218v-206l2 -95q0 -16 -24 -30q-21 -13 -36 -14l6 141v204h-102q-21 -1 -44 -10l-16 38h162v166h-60q-25 0 -52 -8l-24 34h280v0v0zM398 578l30 34l54 -42q3 -3 4 -8
q0 -10 -12 -10h-128v-170h66l36 40l58 -48q3 -3 4 -8q0 -12 -12 -12h-152q-14 -123 -88 -210q-73 -83 -214 -129l-6 14q105 46 174 125q66 77 82 200h-176q-21 -1 -44 -10l-16 38h236v170h-104q-27 0 -54 -8l-24 34h286v0v0zM340 946q10 -9 0 -18q-24 -6 -32 -12
q-7 -7 -20 -26q-12 -17 -42 -64h186l42 52l60 -62q9 -16 -8 -16h-200q33 -39 52 -60q17 -22 22 -44q3 -22 -8 -40q-9 -18 -30 -12q-20 6 -22 36q-1 26 -10 56q-10 27 -32 64h-70q-72 -112 -144 -184l-14 12q65 90 118 186q51 95 76 170l76 -38v0v0zM726 942q12 -7 0 -16
q-24 -7 -32 -14q-6 -6 -18 -24q-9 -15 -36 -54h218l42 54l64 -64q9 -16 -8 -16h-256q41 -39 58 -60q17 -22 22 -44q6 -22 -6 -38q-12 -17 -32 -12t-22 34q-3 26 -12 56q-9 27 -36 64h-50q-69 -114 -140 -186l-14 12q65 89 112 182q45 92 70 164l76 -38v0v0z" />
  </g>

</svg>
