<?xml version="1.0" standalone="no"?>
<!DOCTYPE svg PUBLIC "-//W3C//DTD SVG 1.1//EN" "http://www.w3.org/Graphics/SVG/1.1/DTD/svg11.dtd" >
<svg xmlns="http://www.w3.org/2000/svg" xmlns:xlink="http://www.w3.org/1999/xlink" version="1.1" viewBox="0 -246 2048 2048">
  <g transform="matrix(1 0 0 -1 0 1802)">
   <path fill="currentColor"
d="M672 648q-219 -296 -555 -486l-31 43q439 303 643 754h-608l-27 51h658q48 113 82 252q184 -34 184 -69q0 -24 -86 -35q-20 -63 -53 -148h819l106 127q82 -67 148 -139l-27 -39h-1069q-38 -89 -111 -205h660l76 96q143 -106 143 -143q0 -18 -27 -27l-61 -22
q-128 -168 -307 -289q280 -112 708 -119q-61 -52 -90 -125q-410 33 -719 181q-160 -88 -407 -146q-206 -48 -416 -61l-24 49q432 37 741 213q-192 116 -350 287zM704 695q168 -153 410 -275q183 123 291 283h-694zM602 1379q142 240 244 543q194 -59 194 -105
q0 -31 -100 -34q-96 -183 -264 -400q453 24 831 66q-111 109 -284 217l26 41q264 -105 432 -254q113 -101 113 -172q0 -70 -68 -70q-38 0 -65 45q-43 71 -109 144q-558 -91 -1175 -146q-22 -78 -47 -78q-44 0 -84 191z" />
  </g>

</svg>
