<?xml version="1.0" standalone="no"?>
<!DOCTYPE svg PUBLIC "-//W3C//DTD SVG 1.1//EN" "http://www.w3.org/Graphics/SVG/1.1/DTD/svg11.dtd" >
<svg xmlns="http://www.w3.org/2000/svg" xmlns:xlink="http://www.w3.org/1999/xlink" version="1.1" viewBox="0 -36 256 256">
  <g transform="matrix(1 0 0 -1 0 220)">
   <path fill="currentColor"
d="M196 199h-35v-23l-13 -5v28h-2q-11 0 -19 -2l-9 9h30q0 19 -1 36l22 -8l-8 -6v-22h35q0 20 -1 37l21 -8l-7 -7v-22h10l12 11l16 -18h-38v-20l-13 -5v25zM65 246l20 -9l-6 -8v-26h23l8 8l12 -14q-7 -3 -13 -9.5t-13 -15.5l-2 1l8 23h-23v-57h13l9 8l12 -14l-8 -6
q-4 -27 -20 -60q17 -27 40 -42v-3q-12 -1 -18 -8q-15 18 -29 42q-20 -28 -57 -48l-1 3q35 30 49 58q-10 17 -27 65h5q22 -43 29 -55q12 22 16 53h-48q0 -36 -6 -64t-27 -54l-2 2q15 30 18.5 64.5t3.5 71t-1 60.5l15 -9h21q0 19 -1 43zM44 139h22v57h-22v-57zM149 34h64v49
h-64v-49zM219 124q-10 17 -19 28l3 2q23 -17 33 -29t2 -20t-10 -0.5t-9 15.5q-71 -7 -84 -15l-8 17q10 1 26 24.5t18 36.5l21 -12q-10 -5 -21.5 -18.5t-28.5 -30.5zM136 54.5q0 21.5 -1 43.5l16 -8h61l8 9l15 -13l-8 -6v-33q0 -12 1 -30l-15 -6v16h-64v-12l-14 -7
q1 25 1 46.5z" />
  </g>

</svg>
