<?xml version="1.0" standalone="no"?>
<!DOCTYPE svg PUBLIC "-//W3C//DTD SVG 1.1//EN" "http://www.w3.org/Graphics/SVG/1.1/DTD/svg11.dtd" >
<svg xmlns="http://www.w3.org/2000/svg" xmlns:xlink="http://www.w3.org/1999/xlink" version="1.1" viewBox="0 -36 256 256">
  <g transform="matrix(1 0 0 -1 0 220)">
   <path fill="currentColor"
d="M165.5 231.5q30.5 6.5 47.5 15.5l17 -18q-13 0 -58 -7v-139h45l13 13l18 -20h-76v-62l-14 -6v68h-46q-10 0 -19 -2l-10 9h75v138q-19 -2 -56 -4v5q33 3 63.5 9.5zM201 217l18 -10q-4 -2 -11 -16q19 -7 26 -13t3 -15t-11 2.5t-19 22.5q-11 -19 -29 -33l-3 2q21 27 26 60z
M124 215l18 -10q-5 -3 -14 -17q17 -7 22.5 -12.5t1.5 -15t-9.5 2t-16.5 21.5q-11 -19 -32 -35l-2 2q26 33 32 64zM203 162l18 -11q-6 -4 -12 -15q19 -7 25 -12.5t2 -15t-10.5 1.5t-18.5 22q-12 -19 -30 -33l-3 2q22 28 29 61zM124 162l18 -10q-6 -4 -14 -18q17 -7 22 -13.5
t0.5 -15t-9 2.5t-15.5 22q-11 -17 -32 -34l-2 3q26 32 32 63zM22 9q1 42 1 119t-1 107l16 -9h38l7 9l15 -13l-6 -5q-13 -23 -28 -52q16 -13 23 -26t5.5 -25.5t-8.5 -19.5t-22 -11q-1 13 -21 18v4q12 -2 23 -2.5t13 8t-0.5 21.5t-19.5 33l20 54h-40v-202z" />
  </g>

</svg>
