<?xml version="1.0" standalone="no"?>
<!DOCTYPE svg PUBLIC "-//W3C//DTD SVG 1.1//EN" "http://www.w3.org/Graphics/SVG/1.1/DTD/svg11.dtd" >
<svg xmlns="http://www.w3.org/2000/svg" xmlns:xlink="http://www.w3.org/1999/xlink" version="1.1" viewBox="0 -36 256 256">
  <g transform="matrix(1 0 0 -1 0 220)">
   <path fill="currentColor"
d="M132 135h41l13 26h-38q-10 -18 -16 -26zM219 110h4l10 10l15 -17h-29q0 -17 1 -27l-15 -5v7h-57q-10 0 -19 -3l-10 10h86v18h-79q-11 0 -20 -2l-9 9h108v18h-79q-8 -8 -20 -15l-4 2q16 16 28 38.5t15 40.5l18 -12q-6 -4 -12 -14h36l9 8l12 -15q-11 -2 -30 -27h27l9 9
l13 -13l-8 -5v-15zM113 33q-3 -8 -8 -9.5t-11 1t3 10t15 25.5h4q0 -19 -3 -27zM155 25h29q11 0 11 8v18h4q0 -6 2 -14.5t10 -11.5q-6 -9 -12 -10t-13 -1h-37q-19 0 -18 16q0 26 -1 38l21 -9l-6 -7v-18q-1 -8 10 -9zM180.5 61q0.5 -7 -4.5 -12t-8.5 5t-14.5 22l1 3
q26 -11 26.5 -18zM236 46q4 -7 -2.5 -15t-10.5 5t-16 27l2 4q23 -14 27 -21zM86.5 94q-6.5 12 -23.5 26l17 47h-32v-153l-15 -7q1 29 1 52v85q0 20 -1 39l15 -9h33l8 9l14 -14l-8 -5l-24 -42q37 -23 35 -47t-25 -32q-2 12 -26 17v5q32 -6 35 5.5t-3.5 23.5zM126 208h-38
q0 -7 1 -17l-16 -6q1 13 1 23h-25q-12 0 -21 -2l-9 9h55q0 20 -1 31l22 -8l-7 -7v-16h12l12 11zM159 210q-10 0 -20 -2l-10 9h35q0 15 -1 28l23 -9l-8 -7v-12h29l14 11l15 -18h-58q-1 -3 1 -20l-16 -5q1 21 1 25h-5z" />
  </g>

</svg>
