<?xml version="1.0" standalone="no"?>
<!DOCTYPE svg PUBLIC "-//W3C//DTD SVG 1.1//EN" "http://www.w3.org/Graphics/SVG/1.1/DTD/svg11.dtd" >
<svg xmlns="http://www.w3.org/2000/svg" xmlns:xlink="http://www.w3.org/1999/xlink" version="1.1" viewBox="0 -200 999 1000">
  <g transform="matrix(1 0 0 -1 0 800)">
   <path fill="currentColor"
d="M64 732l67 -41h100v307l69 -31l-23 -67v-209h89l41 42l59 -56l-36 -35v-262h-153v-354q-5 -9 -13 -14t-32 -13v381h-119v-57q-10 -12 -24 -18.5t-25 -6.5v434zM277 406h106v259h-106v-259zM114 647v-241h117v259h-105zM841 977l63 -72h-178v-401h113l43 47l58 -69h-214
v-459q-11 -14 -26 -18t-23 -6v483h-134l-57 -15l-21 37h212v401h-95l-60 -15l-22 38h296zM764 596q36 75 53 140.5t25 110.5l71 -58l-29 -27q-25 -41 -48 -80.5t-58 -90.5zM500 829q45 -45 79.5 -91.5t46.5 -83.5q0 -4 0.5 -7t0.5 -6q0 -29 -12.5 -44t-22.5 -17h-1
q-5 0 -12 9t-13 29q-9 32 -16.5 58.5t-15.5 50.5t-18.5 46.5t-25.5 45.5z" />
  </g>

</svg>
