<?xml version="1.0" standalone="no"?>
<!DOCTYPE svg PUBLIC "-//W3C//DTD SVG 1.1//EN" "http://www.w3.org/Graphics/SVG/1.1/DTD/svg11.dtd" >
<svg xmlns="http://www.w3.org/2000/svg" xmlns:xlink="http://www.w3.org/1999/xlink" version="1.1" viewBox="0 -200 1000 1000">
  <g transform="matrix(1 0 0 -1 0 800)">
   <path fill="currentColor"
d="M591 900q18 0 36.5 -10t41.5 -28l-31 -20v-83h50l31 40q18 -8 32 -19.5t22 -21.5q6 11 12 22.5t11 23.5q20 -5 39 -13.5t27 -18.5l-26 -17q-19 -35 -45.5 -67.5t-58.5 -61.5h66l30 41q26 -11 41.5 -27.5t22.5 -24.5h-172q-35 -30 -74.5 -56t-84.5 -48h151l31 41
q32 -28 40 -45t8 -30q-8 -1 -22.5 -6t-31.5 -12.5t-35 -16.5t-33 -17l17 -12l-31 -20v-37h91l30 40q26 -11 41.5 -27t22.5 -25h-185v-149q0 -18 -15 -32.5t-33 -14.5q0 9 -17.5 29t-49.5 40l6 6q14 -9 24.5 -12.5t18.5 -3.5q11 0 15.5 4t4.5 7v126h-144l-17 -4l-12 16h173
v95q21 0 47 -17l61 65h-180q-78 -38 -162 -60l-3 3q33 11 65 26t64 32l-7 11h27q38 22 72.5 48t66.5 56h-247l-17 -5l-12 16h207v121h-91l-18 -4l-12 16h121v141zM148 672l-17 -4l-12 16h70q7 48 12.5 104.5t9.5 120.5q17 -5 33.5 -13t22.5 -16l-14 -9q-5 -54 -11 -99.5
t-14 -87.5h52l30 40q25 -11 41 -27t22 -25h-26q-13 -81 -32 -151t-43 -133q51 -61 69.5 -96.5t18.5 -54.5q0 -17 -10.5 -25t-16.5 -8q-9 0 -14.5 8.5t-13 25.5t-19.5 43t-33 61q-65 -147 -143 -220l-3 3q33 42 65 105t59 148q-19 29 -40 59.5t-43 61.5q11 28 21 71.5
t18 101.5h-39zM171 499q42 -44 72 -78q32 115 50 251h-67q-25 -118 -55 -173zM767 747h-129v-121h34q29 29 52.5 59t42.5 62z" />
  </g>

</svg>
