<?xml version="1.0" standalone="no"?>
<!DOCTYPE svg PUBLIC "-//W3C//DTD SVG 1.1//EN" "http://www.w3.org/Graphics/SVG/1.1/DTD/svg11.dtd" >
<svg xmlns="http://www.w3.org/2000/svg" xmlns:xlink="http://www.w3.org/1999/xlink" version="1.1" viewBox="0 -205 1024 1024">
  <g transform="matrix(1 0 0 -1 0 819)">
   <path fill="currentColor"
d="M624 532h258l36 46l66 -60q1 -3 2 -8q0 -4 -8 -4h-302v-112h156l38 48l62 -62q2 -3 2 -8q0 -4 -8 -4h-250v-118h184l36 48l62 -60q2 -4 2 -8q-1 -6 -10 -6h-274v-78l4 -91q0 -12 -20 -28q-18 -14 -36 -14l4 129v364h-24q-85 -114 -152 -174l-14 12q51 62 106 148
q54 84 94 156q63 -29 64 -34v-8q0 -3 -14 -8q-13 -4 -28 -22t-36 -44v0v0zM778 772q62 -29 98 -52q33 -21 46 -42q12 -19 6 -40q-6 -19 -24 -22q-18 -2 -30 24t-32 50q-18 24 -72 70l8 12v0v0zM924 844l30 32q56 -45 58 -50q2 -6 -4 -8q-6 -3 -20 -8q-15 -3 -48 -30l-46 -40
l-14 12l48 68h-396q-4 -54 -22 -78q-19 -24 -44 -20q-24 2 -24 22q0 18 28 40q26 22 38 110h20q5 -18 2 -50h394v0v0zM638 966l8 12q65 -24 86 -36q20 -13 28 -28q7 -15 2 -30q-4 -12 -16 -18t-24 0q-11 6 -16 24q-4 16 -16 32q-13 16 -52 44v0v0zM616 772q60 -30 60 -38
q0 -7 -6 -8q-6 0 -18 -6q-11 -3 -52 -36q-40 -31 -130 -94l-12 12q104 92 158 170v0v0zM14 886h342l38 50l62 -58q3 -3 4 -8q0 -7 -14 -8h-142v-152h54l28 36l54 -40q3 -3 4 -6q0 -7 -26 -26v-502l4 -75q-1 -12 -16 -22q-12 -10 -36 -14v64h-262v-54q0 -12 -18 -24
q-16 -14 -34 -16l4 115v604l52 -40h54v152h-64q-22 0 -70 -8l-18 32v0v0zM108 304v-154h262v154h-262v0v0zM108 368v-38h262v98h-34t-30 4q-18 3 -30 18q-12 12 -12 34v202h-56q2 -162 -22 -222q-24 -57 -78 -96v0v0v0zM370 686h-66v-188q0 -18 10 -24q9 -6 24 -6h32v218v0
v0zM208 710h56v152h-56v-152v0v0zM166 686h-58v-290q36 32 48 94t10 196v0v0z" />
  </g>

</svg>
