<?xml version="1.0" standalone="no"?>
<!DOCTYPE svg PUBLIC "-//W3C//DTD SVG 1.1//EN" "http://www.w3.org/Graphics/SVG/1.1/DTD/svg11.dtd" >
<svg xmlns="http://www.w3.org/2000/svg" xmlns:xlink="http://www.w3.org/1999/xlink" version="1.1" viewBox="0 -36 256 256">
  <g transform="matrix(1 0 0 -1 0 220)">
   <path fill="currentColor"
d="M222 143l-14 -7v12h-79v-9l-14 -5q1 18 1 30.5t-1 28.5l14 -8h32v24h-36q-10 -1 -20 -3l-9 10h65q0 15 -1 30l20 -8l-6 -7v-15h41l12 10l16 -17h-69v-24h33l7 8l13 -12l-6 -5q0 -21 1 -33zM129 155h79v23h-79v-23zM165 119q-1 12 -12 25l2 3q15 -7 20.5 -13.5t-2.5 -14.5
h36l12 10l15 -17h-99q-10 -1 -19 -3l-9 10h56zM154.5 97q5.5 -6 0 -14t-9 2t-13.5 23l2 2q15 -7 20.5 -13zM177 13l-15 -7q1 20 1 38h-29q-10 -1 -19 -3l-9 10h57v22h-40q-10 -1 -19 -3l-10 10h87q10 20 14 32l16 -11q-10 -4 -25 -21h35l12 10l15 -17h-72v-22h34l11 11
l16 -18h-61q0 -17 1 -31zM41 245q17 -12 25.5 -22.5t-2.5 -22.5h19l12 11l17 -18h-75q-10 -1 -20 -3l-9 10h49q-5 20 -19 43zM36 43h40v43h-40v-43zM69 164l12 9l16 -16h-48q-11 0 -20 -3l-8 10h48zM68 127l12 9l16 -16h-45q-11 0 -20 -3l-8 10h45zM89 48q0 -11 1 -22
l-14 -6v16h-40v-14l-14 -7q1 21 1 43t-1 44l16 -9h37l8 9l13 -13l-7 -6v-35z" />
  </g>

</svg>
