<?xml version="1.0" standalone="no"?>
<!DOCTYPE svg PUBLIC "-//W3C//DTD SVG 1.1//EN" "http://www.w3.org/Graphics/SVG/1.1/DTD/svg11.dtd" >
<svg xmlns="http://www.w3.org/2000/svg" xmlns:xlink="http://www.w3.org/1999/xlink" version="1.1" viewBox="0 -36 256 256">
  <g transform="matrix(1 0 0 -1 0 220)">
   <path fill="currentColor"
d="M36 130h18v31h-18v-31zM66 130h18v31h-18v-31zM83.5 54.5q5.5 -6.5 5 -12t-4.5 -9.5t-9.5 8t-20.5 28l2 3q22 -11 27.5 -17.5zM144 183h-23q-9 -32 -19 -51l-4 1q4 13 8.5 32t7.5 41.5t4 37.5l18 -9l-6 -6l-8 -39h22l4 10l15 -15q-9 -2 -24 -34l-3 1zM141 48.5
q-1 9.5 -3.5 19t-9.5 29.5q-3 -29 -17.5 -51t-35.5 -33l-2 3q23 18 33 42t12 46.5t2 49.5l17 -8l-5 -5q-1 -13 -3 -38q18 -24 21 -35t-2.5 -20t-6.5 0.5zM210.5 64q2.5 -8 0 -13.5t-5.5 -4.5t-3.5 8t-3 14.5t-7.5 17.5l2 2q15 -16 17.5 -24zM224.5 77.5q3.5 -7.5 2.5 -13.5
t-3.5 -7.5t-3.5 4t-4 15t-7 17.5l2 3q10 -11 13.5 -18.5zM162 226l13 -8h10q4 21 4 29l18 -9l-6 -4l-9 -16h25l5 9l12 -11l-5 -6v-32q0 -13 1 -19l-13 -6v7h-42v-20h50l9 10l12 -17h-71v-20h54l7 9l12 -12l-6 -5q-1 -49 -2 -62.5t-5.5 -22.5t-17.5 -12q1 13 -19 15v4
q18 -2 22 -1.5t6 8.5t3 29t1 43h-55v-8l-13 -5q1 18 1 32v73q0 13 -1 28zM217 211h-42v-20h42v20zM217 184h-42v-17h42v17zM190.5 59q2.5 -7 0.5 -13t-6 -7.5t-4.5 7.5t-3 17.5t-5.5 17.5l2 2q14 -17 16.5 -24zM165.5 48.5q-0.5 -10.5 -5 -15t-8 -0.5t-0.5 9.5t5 13t4 25.5
h3q2 -22 1.5 -32.5zM46 207v-15h31v-7h-31v-4l-12 -2l1 16v12h-6l-7 -2l-9 9h22q0 16 -1 32l19 -9l-7 -6v-17h28v33l17 -7l-6 -6v-20h8l8 7l10 -14h-26v-9l1 -13l-12 -4v26h-28zM66 188v-20h16l7 8l12 -11l-6 -5q0 -26 1 -38l-12 -4v5h-18q0 -6 -1 -18h16l9 10l14 -17h-40
q-1 -7 -3 -16h22l10 9l14 -16h-47q-13 -37 -50 -63l-2 4q28 25 39 59h-11q-10 -1 -19 -3l-9 10h41q2 8 3 16h-6h-7q-7 1 -12 -2l-9 9h35q1 11 1 18h-18v-3l-13 -4q1 13 1 25.5t-1 32.5l12 -6h19v20h12z" />
  </g>

</svg>
