<?xml version="1.0" standalone="no"?>
<!DOCTYPE svg PUBLIC "-//W3C//DTD SVG 1.1//EN" "http://www.w3.org/Graphics/SVG/1.1/DTD/svg11.dtd" >
<svg xmlns="http://www.w3.org/2000/svg" xmlns:xlink="http://www.w3.org/1999/xlink" version="1.1" viewBox="0 -36 256 256">
  <g transform="matrix(1 0 0 -1 0 220)">
   <path fill="currentColor"
d="M116 124.5q7 0.5 7 10.5v37l12 -6q11 5 33 19h-92q-10 -1 -20 -3l-9 10h129l13 8l12 -13q-10 -3 -21.5 -7.5t-30.5 -13.5q10 -9 23 -18q24 14 41 31l14 -15q-11 0 -23.5 -6t-27.5 -13q16 -12 36 -18t36 -5v-4q-17 -1 -20 -13q-28 11 -49 26.5t-34 33.5l-8 -4v-28
q0 -11 -4 -17t-16 -11q-1 13 -30 18v3q22 -2 29 -1.5zM84 165l7 8l13 -14q-7 -3 -15 -13.5t-25.5 -23.5t-54.5 -25l-1 3q28 14 46 28.5t28 29.5h-30q-10 0 -19 -2l-9 9h60zM182 101l16 11l17 -18h-150q-12 0 -22 -4l-7 11h146zM48 80l16 -5h32q12 11 16 19l15 -7
q-10 -4 -13.5 -6.5t-11.5 -5.5h83l7 5l15 -10l-8 -4v-46h17l15 12l16 -19h-212q-9 0 -17 -2l-9 9h40v43q0 3 -1 17zM63 20h34v48h-34v-48zM110 20h31v48h-31v-48zM154 20h31v48h-31v-48zM115 229l13 -17h-34v-15l-14 -5v20h-32q-11 0 -21 -2l-9 9h62v13q0 7 -1 13l23 -5
l-8 -6v-15h9zM131 219h33v13q0 6 -1 12l23 -7l-8 -6v-12h35l12 11l16 -18h-63v-13l-14 -5v18h-16l-8 -3z" />
  </g>

</svg>
