<?xml version="1.0" standalone="no"?>
<!DOCTYPE svg PUBLIC "-//W3C//DTD SVG 1.1//EN" "http://www.w3.org/Graphics/SVG/1.1/DTD/svg11.dtd" >
<svg xmlns="http://www.w3.org/2000/svg" xmlns:xlink="http://www.w3.org/1999/xlink" version="1.1" viewBox="0 -205 1024 1024">
  <g transform="matrix(1 0 0 -1 0 819)">
   <path fill="currentColor"
d="M562 856q-5 -178 -16 -250h298l42 60l72 -70q3 -3 4 -8q0 -10 -12 -10h-374q27 -141 82 -224q54 -82 148 -148q93 -66 190 -77v-20q-27 1 -50 -2q-21 -3 -48 -36q-82 42 -154 109q-73 69 -122 150q-49 83 -70 248h-10q-25 -240 -164 -360q-138 -117 -324 -165l-4 18
q158 58 286 169q129 112 156 338h-322q-28 0 -76 -8l-16 36h418q11 95 14 242q-149 -12 -358 -24v20q285 29 448 62q160 29 224 50q58 -67 56 -74q-3 -6 -8 -6t-28 6q-21 4 -56 0q-34 -3 -226 -26v0v0z" />
  </g>

</svg>
