<?xml version="1.0" standalone="no"?>
<!DOCTYPE svg PUBLIC "-//W3C//DTD SVG 1.1//EN" "http://www.w3.org/Graphics/SVG/1.1/DTD/svg11.dtd" >
<svg xmlns="http://www.w3.org/2000/svg" xmlns:xlink="http://www.w3.org/1999/xlink" version="1.1" viewBox="0 -36 256 256">
  <g transform="matrix(1 0 0 -1 0 220)">
   <path fill="currentColor"
d="M67.5 213.5q3.5 -9.5 -4 -19.5t-10 7t-14.5 38l3 2q22 -18 25.5 -27.5zM80 183l13 14l15 -21h-71q-10 0 -19 -3l-8 10h70zM49 104.5q2 -17.5 -4.5 -26t-7.5 -4.5t-2.5 30t-8.5 52l3 2q18 -36 20 -53.5zM38 38q-17 -6 -20 -13l-12 19q12 0 52 12q17 82 18 110l21 -11
l-7 -7q-12 -47 -25 -91l36 12l1 -4q-47 -21 -64 -27zM115 232l22 -11l-7 -6v-35h36q0 51 -1 66l23 -9l-9 -7v-50h35q0 38 -1 50l22 -9l-8 -7q0 -33 2 -42l-15 -7v8h-84l-7 -6l-13 11l6 6q0 32 -1 48zM131 85h80v31h-80v-31zM222 151l10 9l14 -16h-116q-10 1 -20 -2l-9 9h121
zM226 76l-15 -6v8h-80v-5l-15 -6q2 16 2 32.5t-2 33.5l15 -10h80l7 11l15 -15l-8 -6q0 -30 1 -37zM128 70q18 -13 23 -21.5t-2.5 -17t-9.5 2t-14 34.5zM209 51q-10 -12 -20 -25h33l11 11l15 -18h-130q-13 0 -22 -3l-10 10h96q15 32 17 47l20 -16z" />
  </g>

</svg>
