<?xml version="1.0" standalone="no"?>
<!DOCTYPE svg PUBLIC "-//W3C//DTD SVG 1.1//EN" "http://www.w3.org/Graphics/SVG/1.1/DTD/svg11.dtd" >
<svg xmlns="http://www.w3.org/2000/svg" xmlns:xlink="http://www.w3.org/1999/xlink" version="1.1" viewBox="0 -36 256 256">
  <g transform="matrix(1 0 0 -1 0 220)">
   <path fill="currentColor"
d="M118 142l-8 -3l-15 -20l10 -7l-7 -5v-51q0 -18 1 -34l-15 -8q1 19 1 37v57q-17 -22 -41 -37l-2 3q39 39 56 81zM150 64v47q0 27 -1 41l22 -9l-7 -6v-33q54 -13 50.5 -32.5t-15 -3t-35.5 28.5v-31q0 -20 1 -40l-16 -8q1 22 1 46zM141 240l15 -8h62l8 11l15 -11l-8 -9v-190
q0 -20 -22 -26q-3 15 -29 20v4q24 -2 30.5 -1.5t6.5 10.5v125h-64v-4l-14 -4v83zM155 202h64v23h-64v-23zM155 195v-23h64v23h-64zM38 232h61l7 11l16 -13l-7 -8v-26q0 -15 1 -33l-15 -6v8h-64v-150l-15 -8q1 20 1 43v145q0 23 -1 45zM37 195v-23h64v23h-64zM37 225v-23h64
v23h-64z" />
  </g>

</svg>
