<?xml version="1.0" standalone="no"?>
<!DOCTYPE svg PUBLIC "-//W3C//DTD SVG 1.1//EN" "http://www.w3.org/Graphics/SVG/1.1/DTD/svg11.dtd" >
<svg xmlns="http://www.w3.org/2000/svg" xmlns:xlink="http://www.w3.org/1999/xlink" version="1.1" viewBox="0 -144 1024 1024">
  <g transform="matrix(1 0 0 -1 0 880)">
   <path fill="currentColor"
d="M464 201h-436v22h436v61l54 -9l35 17l80 35h-438v21h488l44 20v-2l11 9l59 -48l-27 -16l-64 -27v11h-1l-69 -16l-50 -9l-25 -5l-18 -2l1 -1l-16 -10v-29h323l54 54l64 -54v-22h-441v-79l-1 -14l-2 -13l-4 -13l-7 -12l-9 -11l-11 -9l-12 -6l-13 -4l-13 -3l-14 -1v33
l-107 16v16h107h7l5 1l3 1l1 1l1 1l2 1v2l1 3l1 5l1 6v79zM824 674l-31 -30l-23 -20l-26 -18l-7 -6h127l44 48l54 -48v-22h-237v-77h83l44 48l54 -48v-22h-181v-84l-64 -32v116h-146v22h146v77h-217v22h284l-3 2l10 13l21 41l16 36l8 20h-215l8 -6l11 -4l10 -5l11 -7l9 -6
l8 -7l9 -8l7 -8l7 -9l7 -10l-2 -24l-17 -17l-25 1l-17 19v7l-1 7l-2 8l-2 8l-2 9l-8 18l-11 20l-8 8l5 6h-67v21h166v64l64 -11l16 -10l-16 -10v-33h89l53 54l65 -54v-21h-120l29 -20l8 -17zM102 785l64 -32h196l32 27l59 -49l-27 -21v-86l-64 -32v32h-196l-2 -29l-1 -16
l63 -32h142l32 27l59 -48l-27 -22v-108l-64 -32v32h-142l-64 -32v207l-2 -14l-6 -34l-9 -32l-10 -29l-13 -26l-15 -23l-17 -19l-20 -14l-21 -10l-5 8l13 17l11 18l9 18l8 22l7 23l5 26l3 29l2 32l1 35l-1 37v150zM368 526h-142v-108h142v108zM362 731h-196v-85h196v85z
M614 999l65 -11l16 -10l-16 -10v-62h166l54 53l65 -53v-22h-285v-69l-65 -32v101h-236v-69l-65 -32v101h-285v22h285v93l65 -11l16 -10l-16 -10v-62h236v93z" />
  </g>

</svg>
