<?xml version="1.0" standalone="no"?>
<!DOCTYPE svg PUBLIC "-//W3C//DTD SVG 1.1//EN" "http://www.w3.org/Graphics/SVG/1.1/DTD/svg11.dtd" >
<svg xmlns="http://www.w3.org/2000/svg" xmlns:xlink="http://www.w3.org/1999/xlink" version="1.1" viewBox="0 -36 256 256">
  <g transform="matrix(1 0 0 -1 0 220)">
   <path fill="currentColor"
d="M17 67l-9 19q13 1 45 8v28h-11q-10 -1 -19 -3l-9 10h39v25h-25v-6l-13 -4q1 26 1 52.5t-1 39.5l13 -8h61l8 10l13 -13l-6 -5v-48q0 -11 1 -22l-13 -5v9h-27v-25h20l11 10l12 -17h-43v-25l44 7l1 -5q-90 -23 -93 -32zM49 189q2 -6 -4 -12t-6.5 6t-5.5 24l2 2
q12 -14 14 -20zM65 180q10 19 12 32l13 -11q-8 -6 -25 -26v-14h27v60h-27v-41zM28 161h25v60h-25v-60zM24 25q-7 -5 -13 -3t2 10.5t14 29.5h3q1 -32 -6 -37zM60 44.5q3 -7.5 -3 -15.5t-7.5 6t-8.5 30l2 2q14 -15 17 -22.5zM84.5 54.5q4.5 -7.5 -2 -16.5t-8.5 5t-12 30l3 2
q15 -13 19.5 -20.5zM107 66q5 -8 -1.5 -16t-9 6t-11.5 27l3 2q14 -11 19 -19zM232 145h-52v-14q0 -15 1 -21l-14 -6q1 11 1 41h-44q-1 -10 -4 -15t-6.5 -5.5t-5.5 4.5t3.5 10.5t8.5 21.5h3l1 -9h44v15h-24q-10 0 -19 -3l-9 10h95l11 9l14 -16h-56v-15h49l8 9l11 -13
q-7 -3 -10 -8t-9 -16l-3 1zM158 133v-7h-33v7h33zM158 116v-7h-33v7h33zM224 133v-7h-34v7h34zM224 116v-7h-34v7h34zM199 95l13 9l16 -16h-72q-11 -1 -19 -3l-9 10h71zM156 46q-12 -8 -29 -18l88 2q-6 10 -18 22l3 4q16 -12 26 -20t9 -15.5t-4 -11t-6 2.5t-7 13
q-34 -3 -62 -5.5t-36 -8.5l-8 20q9 1 22 10t25 23h-22q-10 0 -19 -2l-9 9h108l11 12l16 -19h-81l14 -9q-9 -1 -21 -9zM137 218h76v12h-76v-12zM137 196h76v15h-76v-15zM125 216.5q0 17.5 -1 29.5l14 -9h74l6 10l14 -13l-7 -5v-15q0 -15 1 -24l-13 -8v7h-76v-2l-13 -7
q1 19 1 36.5z" />
  </g>

</svg>
