<?xml version="1.0" standalone="no"?>
<!DOCTYPE svg PUBLIC "-//W3C//DTD SVG 1.1//EN" "http://www.w3.org/Graphics/SVG/1.1/DTD/svg11.dtd" >
<svg xmlns="http://www.w3.org/2000/svg" xmlns:xlink="http://www.w3.org/1999/xlink" version="1.1" viewBox="0 -144 1024 1024">
  <g transform="matrix(1 0 0 -1 0 880)">
   <path fill="currentColor"
d="M873 62l-45 17l-42 22l-41 28l-38 32l-6 5l-12 -11l-44 -33l-47 -28l-51 -22l-53 -17l-57 -11l-2 9l52 21l48 24l45 27l41 30l38 34l10 11l-32 40l-31 47l-28 52l-21 46l-10 -31l-25 -63l-30 -59l-33 -56l-36 -50l-41 -46l-45 -41l-7 7l36 47l33 50l30 52l27 55l23 58
l21 62l17 66l14 68v1h-192v21h195l8 51l6 62h-117v22h339l53 54l65 -54v-22h-276l-10 -71l-8 -42h260l45 49l53 -49v-21h-363l-20 -83l-3 -8h230l33 26l59 -48l-27 -16l-12 -5l-18 -36l-30 -52l-34 -47l-30 -35l39 -27l38 -20l38 -16l39 -10l93 -15l-64 -62zM120 774h-97v21
h130v178l64 -11l17 -11l-17 -10v-146h40l54 54l64 -54v-21h-191v-145v-22h74l32 27l59 -48l-26 -16l3 -106v-60l-1 -54l-2 -49l-2 -44l-5 -39l-4 -34l-7 -29l-8 -25l-41 16l-19 7l6 18l5 25l4 30l4 36l3 42l2 48l1 52v58l-2 64l-1 17h-1v43h-76l-1 -32l-5 -71l-9 -67
l-11 -64l-14 -60l-16 -56l-20 -53l-23 -48l-26 -45l-29 -39l-8 5l19 44l18 46l15 49l14 52l12 55l9 58l7 62l4 66l2 69v72v145zM237 153l60 -23l-6 -13l-6 -12l-8 -10l-10 -10l-10 -8l-12 -6l-12 -6l-13 -3l-13 -2l-14 -1v32l-75 16v16h75l8 1l6 1l5 1l4 2l5 2l3 3l4 4l3 4z
M789 392h-222l29 -41l36 -46l35 -40l32 -31l25 33l28 45l25 50zM799 867l59 -27l13 -14l-21 -6l-10 -22l-10 -20l-10 -19l-12 -19l-12 -17l-12 -16l-14 -16l-29 -27l-8 5l9 18l22 54l6 18l12 38l10 41l3 15zM441 712l-3 14l-3 13l-8 28l-25 56l-9 14l7 6l13 -11l13 -10
l24 -22l21 -26l10 -13l8 -14l16 -29l-3 -24l-18 -16l-25 3l-16 18zM599 749l-5 35l-3 11l-2 12l-5 23l-4 13l-5 10l8 5l8 -9l10 -8l9 -9l25 -30l21 -35l5 -12l-3 -24l-19 -15l-24 2l-15 20zM872 991l3 -9l49 -42l1 -16l-22 9l-61 -18l-53 -13l-53 -11l-54 -9l-54 -7l-56 -6
l-56 -3l-56 -1l-58 2l-57 4v10l168 20l54 9l54 10l52 11l51 13l100 30l43 15z" />
  </g>

</svg>
