<?xml version="1.0" standalone="no"?>
<!DOCTYPE svg PUBLIC "-//W3C//DTD SVG 1.1//EN" "http://www.w3.org/Graphics/SVG/1.1/DTD/svg11.dtd" >
<svg xmlns="http://www.w3.org/2000/svg" xmlns:xlink="http://www.w3.org/1999/xlink" version="1.1" viewBox="0 -144 1024 1024">
  <g transform="matrix(1 0 0 -1 0 880)">
   <path fill="currentColor"
d="M487 449l52 -38l8 -18l-20 1l-17 -24l-28 -31h339l54 54l64 -54v-21h-478l-23 -23l-42 -34l-33 -24l12 -6h371l32 27l59 -48l-27 -22v-134l-64 -32v32h-371l-65 -32v183l-66 -36l-59 -26l-63 -23l-68 -21l-4 9l63 30l60 31l54 31l50 33l33 23v8l7 -3l47 38l19 19h-336v21
h358l28 31l28 37l23 37zM746 210h-371v-134h371v134zM611 578l65 -11l16 -10l-16 -10v-47h187l44 49l54 -49v-21h-285v-53l-65 -33v86h-236v-53l-65 -33v86h-285v21h285v78l65 -11l16 -10l-16 -10v-47h236v78zM38 720l-1 2l10 5l10 8l9 9l9 12l9 14l7 17l7 19l6 22l5 24
l3 27h10l3 -27l1 -15h335v80h-323v21h613l54 54l64 -54v-21h-344v-80h360l3 2l1 3l2 -1l27 23l59 -49l-27 -16l-20 -8l-31 -33l-21 -18l-22 -18l-10 -10l-8 6l8 12l5 13l29 72h-355v-224l-64 -33v257h-333l1 -14l-2 -23l-3 -22l-6 -20l-8 -20l-10 -17l-12 -17l-15 -14
l-21 31l-2 2zM805 682l54 -48v-22h-280v22h182zM353 682l54 -48v-22h-280v22h182zM37 722l36 -54l-25 -4l-21 13l-4 24zM767 779l54 -49v-21h-242v21h144zM353 779l54 -49v-21h-253v21h155z" />
  </g>

</svg>
