<?xml version="1.0" standalone="no"?>
<!DOCTYPE svg PUBLIC "-//W3C//DTD SVG 1.1//EN" "http://www.w3.org/Graphics/SVG/1.1/DTD/svg11.dtd" >
<svg xmlns="http://www.w3.org/2000/svg" xmlns:xlink="http://www.w3.org/1999/xlink" version="1.1" viewBox="0 -205 1024 1024">
  <g transform="matrix(1 0 0 -1 0 819)">
   <path fill="currentColor"
d="M520 646l54 -30h120v72h-144q-34 -3 -52 -12l-28 38h224v72l70 -26q6 -1 4 -8q0 -4 -6 -8l-20 -6v-24h130l28 42l64 -52q6 -14 -8 -16h-214v-72h110l26 32l62 -42l4 -8q0 -7 -30 -26v-142l4 -52q-1 -12 -16 -24q-14 -12 -34 -12v44h-126v-92h156l30 36l42 -40
q15 -16 0 -22h-228v-72l4 -46q-1 -15 -22 -27q-19 -12 -34 -12l4 79v78h-142q-24 -4 -54 -10l-24 36h220v92h-126v-20q1 -15 -16 -24q-15 -9 -36 -12l4 66v250v0v0zM568 412h126v70h-126v-70v0v0zM742 482v-70h126v70h-126v0v0zM568 510h126v80h-126v-80v0v0zM742 590v-80
h126v80h-126v0v0zM294 876h210v112l74 -28q6 -3 6 -6q7 -4 -30 -22v-56h192v108l74 -26q6 -3 4 -12q-1 -3 -28 -18v-52h106l34 44l56 -50q2 -3 2 -8q0 -12 -12 -12h-186v-20l4 -22q-11 -13 -28 -20q-15 -7 -30 -8l4 38v32h-192v-28l4 -40q-1 -13 -22 -22q-18 -8 -36 -10
l4 68v32h-126q-19 0 -58 -12l-26 38v0v0zM36 742h142v234l82 -34q13 -5 2 -16l-36 -18v-166h34l32 40l44 -48q3 -3 4 -8q4 -12 -10 -12h-104v-32q39 -21 66 -42q25 -19 32 -40q5 -21 -4 -36q-10 -15 -26 -12q-15 2 -20 26q-4 24 -16 46t-32 38v-512l2 -89q0 -14 -18 -28
t-36 -14l4 131v416q-34 -103 -68 -172q-34 -70 -74 -124l-16 8q30 57 54 114q21 54 48 130q24 75 52 192h-66q-22 0 -52 -8l-20 36v0v0zM366 768q45 -39 60 -56q14 -18 22 -36q6 -17 4 -34q-4 -18 -16 -26q-13 -10 -26 -4q-12 5 -12 32q-1 23 -10 50q-9 24 -32 64l10 10v0v0
zM300 446h98l26 34l46 -30q12 -7 12 -14q1 -3 -28 -30v-234q22 -33 68 -57q44 -24 118 -30q93 -5 246 4l112 16v-20q-27 -2 -48 -20q-19 -14 -28 -32h-162q-97 3 -158 14q-60 7 -96 34q-33 27 -48 50q-12 20 -30 25q-15 2 -38 -29q-24 -34 -56 -98l-54 42q66 54 126 105v244
h-40q-27 1 -36 -10l-30 36v0v0z" />
  </g>

</svg>
