<?xml version="1.0" standalone="no"?>
<!DOCTYPE svg PUBLIC "-//W3C//DTD SVG 1.1//EN" "http://www.w3.org/Graphics/SVG/1.1/DTD/svg11.dtd" >
<svg xmlns="http://www.w3.org/2000/svg" xmlns:xlink="http://www.w3.org/1999/xlink" version="1.1" viewBox="0 -205 1024 1024">
  <g transform="matrix(1 0 0 -1 0 819)">
   <path fill="currentColor"
d="M322 758q6 -4 6 -10q0 -4 -12 -8q-20 -2 -52 -46q-30 -43 -96 -124l170 12q23 39 56 120l66 -38q6 -4 6 -8q0 -7 -14 -10q-13 -1 -22 -10q-9 -6 -32 -48q-22 -39 -64 -98t-102 -124q-57 -66 -170 -150l-8 16q80 75 142 148q62 69 134 180q-66 -6 -114 -18t-80 -32l-36 60
q27 3 42 12q12 10 42 56q29 47 70 140l68 -20v0v0zM496 480q6 -4 6 -8q1 -7 -16 -10q-16 -3 -32 -18q-60 -93 -96 -140q53 -30 86 -56q33 -25 42 -50q10 -25 6 -44q-6 -18 -26 -21q-19 -3 -28 25q-6 30 -30 66q-21 33 -62 66q-49 -63 -112 -122q-63 -58 -176 -121l-6 16
q96 69 156 131q60 60 100 114q38 54 62 94q22 39 62 118l64 -40v0v0zM208 976l8 12q68 -30 98 -54q29 -25 32 -50t-8 -40q-11 -14 -28 -12t-22 32q-6 28 -26 56q-18 26 -54 56v0v0zM52 810h378l40 42l56 -48q3 -3 4 -12q-1 -7 -16 -8h-386q-21 0 -54 -8l-22 34v0v0zM692 620
q87 -30 90 -36q0 -6 -2 -8q-3 -1 -36 -16v-110q-6 -151 -54 -224q-46 -72 -128 -125q-81 -53 -158 -76l-6 16q103 46 164 99q59 51 94 118q33 64 36 170v192v0v0v0zM546 752l52 -34h78l24 156h-116q-21 0 -60 -8l-20 36h380l38 46l54 -52q2 -3 8 -8q4 -13 -6 -14h-218
l-62 -156h144l24 40l66 -40l4 -8q1 -6 -28 -32v-262l4 -90q0 -15 -18 -24q-15 -9 -42 -12l4 122v280h-260v-292l4 -86q3 -15 -20 -30q-21 -12 -38 -12l4 124v356v0v0zM728 252l8 14q71 -27 130 -62q57 -37 78 -65q21 -30 16 -54q-4 -23 -22 -26q-18 0 -32 20q-15 22 -30 46
q-15 23 -42 51q-26 27 -106 76v0v0z" />
  </g>

</svg>
