<?xml version="1.0" standalone="no"?>
<!DOCTYPE svg PUBLIC "-//W3C//DTD SVG 1.1//EN" "http://www.w3.org/Graphics/SVG/1.1/DTD/svg11.dtd" >
<svg xmlns="http://www.w3.org/2000/svg" xmlns:xlink="http://www.w3.org/1999/xlink" version="1.1" viewBox="0 -154 1024 1024">
  <g transform="matrix(1 0 0 -1 0 870)">
   <path fill="currentColor"
d="M501 485l34 -26h314l28 29l46 -39q11 -12 -6 -17l-15 -9v-254l5 -87q1 -42 -46 -44v75h-313v-40q0 -39 -46 -46q5 38 6 158v255q-6 24 -16 37zM449 646l-11 8q42 57 86 134q45 77 60 122q18 53 5 71l7 8l73 -33q9 -6 -1 -13q-14 0 -29 -11q-12 -29 -28 -59h207l33 36
l51 -51q8 -9 -3 -12q-10 -2 -21 -6q-12 -5 -37 -45q-49 -84 -107 -145q120 -108 276 -127l-3 -16q-32 0 -44 -5q-10 -5 -21 -27q-134 51 -234 148q-105 -100 -283 -163l-7 12q163 82 262 180q-62 69 -107 154q-54 -88 -124 -160zM36 822h204v115q1 15 -24 40l8 11l78 -34
q16 -8 -3 -16q-11 -7 -17 -13v-103h95l26 34l62 -44q14 -10 -6 -10h-177v-106h60l29 34l56 -40q6 -5 6 -7q0 -3 -12 -3h-139v-116h115l28 34l62 -44q6 -5 6 -7q0 -3 -12 -3h-374q-30 0 -46 -13l-34 33h213v116h-82q-30 0 -46 -13l-35 29h163v106h-124q-30 0 -46 -13zM46 257
l-8 10q40 43 83 110q43 68 62 110q12 23 -5 43l6 6l73 -32q1 -1 1 -4q0 -7 -10 -8q-22 -2 -33 -22t-22 -38h156l29 30l49 -39q7 -4 7 -8q0 -3 -6 -4q-18 -1 -39 -41q-20 -39 -74 -122q71 -64 66 -100q-3 -26 -22 -27q-18 3 -33 46q-10 24 -33 50q-72 -103 -253 -198l-8 11
q86 57 138 105t96 107q-39 38 -115 83l6 12q82 -35 129 -67q37 56 75 142h-181q-69 -109 -134 -155zM826 853h-225q-5 -14 -17 -29q53 -81 120 -146q68 74 122 175zM861 279h-137v-146h137v146zM685 279h-137v-146h137v146zM724 297h137v142h-137v-142zM685 439h-137v-142
h137v142z" />
  </g>

</svg>
