<?xml version="1.0" standalone="no"?>
<!DOCTYPE svg PUBLIC "-//W3C//DTD SVG 1.1//EN" "http://www.w3.org/Graphics/SVG/1.1/DTD/svg11.dtd" >
<svg xmlns="http://www.w3.org/2000/svg" xmlns:xlink="http://www.w3.org/1999/xlink" version="1.1" viewBox="0 -140 1000 1000">
  <g transform="matrix(1 0 0 -1 0 860)">
   <path fill="currentColor"
d="M829 773l22 29h-1q1 0 6 5l-2 -1q10 10 24 10l12 -11h-1l52 -41l-6 -14h-109v-202h15l21 32v-2l4 4h-1q5 8 16 8q9 0 22 -12l43 -39l-6 -13h-114v-190h18q15 22 17 24h-1q2 2 3 7q4 10 17 10q9 0 10 -1h-1l57 -48l-6 -14h-644v22h100v190h-95v22h95v156q-36 -47 -97 -105
l-17 14q122 149 189 341l47 -28q26 -15 26 -21q0 -10 -37 -10q-18 -46 -57 -113l8 -9h371zM242 738l45 -31h-2q29 -14 29 -18q0 -6 -32 -14l2 1q-27 -62 -70 -135q16 -3 16 -6q0 -5 -22 -11l7 1v-366q0 -5 1 -32.5t1 -31.5q0 -16 -15.5 -25t-30.5 -9q-9 0 -14 3.5t-5.5 7
t-0.5 10.5q0 6 1 39t1 38v301q-30 -37 -78 -82l-15 16q105 118 182 344zM242 945l44 -19q28 -11 28 -20q0 -10 -42 -14h7q-69 -102 -215 -230l-14 18q113 122 192 265zM582 750v-202h62v202h-62zM459 750v-202h60v202h-60zM582 526v-190h62v190h-62zM706 750v-202h58v202
h-58zM459 526v-190h60v190h-60zM706 526v-190h58v190h-58zM356 282l32 -5q-6 -113 -61 -179q-25 -31 -41 -31q-24 0 -24 31q0 22 40 59q28 27 38 49.5t16 75.5zM458 265l22 17q19 -33 43 -72q38 -56 38 -82q0 -47 -32 -47q-23 0 -29 31q-9 51 -42 153zM776 252l13 22
q27 -24 53 -50q48 -48 60 -65.5t12 -38.5q0 -14 -9.5 -26.5t-20.5 -12.5q-19 0 -27 23q-21 59 -34 82.5t-47 65.5zM615 256l15 21l34 -39q45 -50 57.5 -70t12.5 -44q0 -14 -9.5 -26.5t-23.5 -12.5q-21 0 -31 42q-8 31 -12 45.5t-15 37t-28 46.5zM507 895h-3q-1 -1 -4 -1z
M848 800h1h-1zM850 802q-1 -1 -2 -1zM854 806q-1 -1 -1 0h1zM858 357l-2 -1q1 0 2 1zM278 675h4h-4z" />
  </g>

</svg>
