<?xml version="1.0" standalone="no"?>
<!DOCTYPE svg PUBLIC "-//W3C//DTD SVG 1.1//EN" "http://www.w3.org/Graphics/SVG/1.1/DTD/svg11.dtd" >
<svg xmlns="http://www.w3.org/2000/svg" xmlns:xlink="http://www.w3.org/1999/xlink" version="1.1" viewBox="0 -205 1024 1024">
  <g transform="matrix(1 0 0 -1 0 819)">
   <path fill="currentColor"
d="M888 942l64 -48q7 -4 8 -10q0 -4 -36 -34v-160l4 -90q3 -34 -18 -46q-19 -12 -38 -14v70h-374q0 -117 -12 -186q-13 -70 -40 -134q-27 -62 -102 -130l-14 12q56 68 80 134q21 65 30 130q7 63 6 172v340l66 -46h346l30 40v0v0zM498 876v-240h374v240h-374v0v0zM98 944
q71 -36 104 -60q32 -21 46 -42t14 -42q-1 -22 -14 -34q-13 -13 -32 -10q-17 2 -22 34q-4 30 -28 60q-21 30 -78 82l10 12v0v0zM34 570h148l34 42l54 -42q12 -7 12 -14q0 -3 -36 -32v-298q41 -54 92 -87q51 -32 120 -38l94 -2h282q71 4 164 16v-24q-33 -6 -56 -12
q-24 -5 -36 -32h-340q-90 2 -140 12q-51 9 -96 38q-45 30 -72 69q-27 38 -42 38q-13 1 -46 -40t-78 -117l-62 42q57 55 166 141v312h-84q-28 1 -52 -10l-26 38v0v0z" />
  </g>

</svg>
