<?xml version="1.0" standalone="no"?>
<!DOCTYPE svg PUBLIC "-//W3C//DTD SVG 1.1//EN" "http://www.w3.org/Graphics/SVG/1.1/DTD/svg11.dtd" >
<svg xmlns="http://www.w3.org/2000/svg" xmlns:xlink="http://www.w3.org/1999/xlink" version="1.1" viewBox="0 -52 256 256">
  <g transform="matrix(1 0 0 -1 0 204)">
   <path fill="currentColor"
d="M132 114l7 -6h71l7 9l12 -11q2 -1 2 -2t-3 -2l-4 -3v-60l1 -15q2 -10 -12 -11v20h-71v-13q1 -9 -13 -12q2 10 2 26v72q0 1 -1 3t-1 3zM218 250l15 -13q2 -1 2 -3q-1 -1 -3 -1q-6 2 -15 0q-16 -4 -33 -7q1 -21 4 -38h32l8 10l15 -12l2 -2q0 -1 -3 -1h-53q12 -41 37 -55
q9 -6 14 11l5 20l3 -1q-1 -8 -2 -17q-1 -6 -1 -9q-1 -9 3 -13q3 -4 2 -6q-1 -4 -16 0q-41 12 -56 70h-41v-47q18 6 46 18l2 -3q-15 -9 -33 -18q-5 -2 -12 -6q-1 -1 -2 -1q-5 -2 -8 -8l-11 11q4 3 7 7v84q0 5 -6 11l3 2l10 -8q54 8 80 18q3 2 3 6zM142 38h71v65h-71v-65z
M22 114l7 -6h62l8 9l12 -11q2 -2 1 -2q0 -1 -2 -2l-5 -3v-59l1 -16q2 -10 -12 -11v21h-62v-14q1 -9 -13 -11q2 9 2 26v71q0 1 -1 3t-1 3zM94 244l14 -12l2 -2q0 -1 -2 -2q-6 2 -15 0q-13 -1 -22 -3q0 -8 3 -37h20l8 10l15 -12q2 -1 2 -2q-1 -1 -3 -1h-41q3 -30 18 -46
q7 -7 12 12l4 17l3 -1l-3 -25q-1 -9 2 -13q3 -3 2 -5q-2 -5 -14 -1q-26 8 -35 62h-37v-47l37 12l2 -2l-24 -12q-3 -2 -7 -4t-7 -4q-4 -2 -8 -8l-11 12q4 2 7 6v84q0 5 -6 11l2 2l11 -8q40 4 65 12q3 3 4 7h2zM32 39h62v64h-62v-64zM61 224q-19 -2 -34 -3v-33h36q-2 17 -2 36
zM177 188v3q-4 29 -4 34q-18 -3 -36 -4v-33h40z" />
  </g>

</svg>
