<?xml version="1.0" standalone="no"?>
<!DOCTYPE svg PUBLIC "-//W3C//DTD SVG 1.1//EN" "http://www.w3.org/Graphics/SVG/1.1/DTD/svg11.dtd" >
<svg xmlns="http://www.w3.org/2000/svg" xmlns:xlink="http://www.w3.org/1999/xlink" version="1.1" viewBox="0 0 2048 2048">
  <g transform="matrix(1 0 0 -1 0 2048)">
   <path fill="currentColor"
d="M543 992l1155 -1l68 76l84 -54q20 -13 30 -25q10 -11 10 -24q-1 -14 -8 -22q-6 -7 -38 -26l-27 -16l-8 -117q-3 -43 -11 -140q-7 -97 -13 -155q-6 -59 -17 -128q-12 -69 -25 -114q-13 -44 -33 -78q-19 -35 -52 -65q-32 -30 -60 -44q-27 -14 -62 -25q-35 -12 -56 -14
l-37 -5q-2 18 -6 33q-4 14 -22 32q-18 17 -47 29q-30 12 -84 27l-67 20l-53 12l11 43l85 -15l90 -17q52 -10 84 -14t62 -3t56 12t48 38q23 27 38 60q14 32 27 93t19 115q5 54 17 204l13 164l4 86h-1221l-51 -50q-21 -20 -38 -36q-18 -15 -57 -43l-61 -43q-23 -15 -56 -34
q-33 -18 -57 -30l-38 -20l-20 35l53 37l57 44q31 24 63 56q33 31 66.5 68.5t58.5 70.5t54 81q29 49 51 99l4 9h-47l1 -28q0 -13 -17 -24q-17 -10 -41 -12q-25 -1 -32 6t-7 16v407l-40 -19q-18 -9 -99 -36l-88 -29l-13 40q30 11 65 25q35 15 81 38q46 24 103 64q56 39 100 76
t79 76q35 38 64 78t42 67l10 21l100 -33q43 -15 51 -23q9 -7 11 -20q2 -14 -11 -22q-13 -9 -44 -11l-45 -3q-20 -24 -23 -27l-39 -40h511l66 61l88 -65q14 -11 28 -27q15 -15 14 -27q-2 -12 -14 -19q-12 -6 -28 -6h-53l-107 -72l-102 -70l-18 -12h542l68 76l84 -54
q19 -13 29 -24q10 -12 11 -25q0 -13 -12 -26q-10 -11 -30 -19l-36 -16v-277q0 -15 -8 -25q-9 -10 -24 -16q-16 -5 -36 -6q-19 0 -26 6t-7 12v44h-1057l75 -32q30 -14 41 -22t12 -24q0 -15 -12 -22q-13 -6 -35 -7l-44 -2q-29 -36 -35 -43zM1001 1528l33 30q24 22 67 66l84 84
l-546 1l-62 -45q-37 -28 -56 -40l-61 -36l-34 -20l74 -40h501zM479 1232h313v238h-313v-238zM888 1232h324v238h-324v-238zM1304 1232h323v238h-323v-238zM322 731q13 -5 47 -15l51 -14q18 -5 64 -20q45 -16 76 -28q31 -13 66 -32q34 -19 45 -37t13 -39q1 -20 -11 -36
q-12 -17 -33 -20q-22 -2 -43 14q-8 5 -34 34t-59 54q-34 26 -72 46q-37 21 -87 46l-35 17zM1401 658l-93 -28q-46 -14 -76 -20q-29 -7 -125 -23l-128 -23l-75 -12l-18 -60q40 -10 61 -14l131 -32l161 -37q29 -8 117 -35q88 -28 116 -52q29 -24 32 -54q2 -29 -14 -44
q-17 -15 -36 -14q-20 1 -48 17l-97 54q-68 36 -121 57q-53 22 -118 42l-140 44l-59 18q-33 -39 -73 -80t-127 -86q-87 -46 -156 -62q-69 -17 -257 -53l-57 -11l-4 47q26 4 83 15q58 11 150 40q91 30 173 74t132 100q50 55 68 115t19 141q0 82 -2 131l-3 59l136 -18
q28 -4 38 -12t11 -19q2 -11 -6 -21t-31 -18l-38 -14q-5 -72 -6 -85l-9 -90q37 8 71 17q34 8 111 34q77 27 139 54q62 28 96 52l50 34l93 -81q9 -9 16 -19q7 -9 2 -25t-35 -11z" />
  </g>

</svg>
