<?xml version="1.0" standalone="no"?>
<!DOCTYPE svg PUBLIC "-//W3C//DTD SVG 1.1//EN" "http://www.w3.org/Graphics/SVG/1.1/DTD/svg11.dtd" >
<svg xmlns="http://www.w3.org/2000/svg" xmlns:xlink="http://www.w3.org/1999/xlink" version="1.1" viewBox="0 -36 256 256">
  <g transform="matrix(1 0 0 -1 0 220)">
   <path fill="currentColor"
d="M180 46.5q0 -14.5 1 -29.5l-15 -9q1 19 1 105h-35q-11 0 -20 -2l-9 9h64v103h-27q-10 0 -20 -3l-9 10h97l15 11l15 -18h-58v-103h39l13 12l16 -19h-68v-66.5zM122 198q24 -23 28 -33t-3 -20t-10.5 9t-17.5 42zM238 188l-8 -4q-19 -27 -36 -46l-3 2q20 35 28 64zM99 231
q-8 0 -35 -18q14 -8 18.5 -16t-1.5 -14.5t-8.5 3.5t-13.5 24q-9 -5 -19 -10q17 -15 18.5 -22.5t-5 -14t-7.5 4.5t-11 30q-17 -8 -27 -10v3q20 11 40.5 25.5t34.5 30.5zM118 183q-4 1 -16 -6.5t-26 -18.5q16 -19 23 -35.5t9 -44t-8 -46.5t-33 -25q3 13 -24 23l2 4
q27 -9 35 -3.5t12 21.5t0 43q-33 -36 -79 -54l-1 4q50 28 77 67q-3 11 -6 18q-29 -28 -70 -43l-1 3q38 21 65 53q-4 6 -7 12q-27 -16 -59 -24l-1 4q35 14 61.5 35t32.5 32z" />
  </g>

</svg>
