<?xml version="1.0" standalone="no"?>
<!DOCTYPE svg PUBLIC "-//W3C//DTD SVG 1.1//EN" "http://www.w3.org/Graphics/SVG/1.1/DTD/svg11.dtd" >
<svg xmlns="http://www.w3.org/2000/svg" xmlns:xlink="http://www.w3.org/1999/xlink" version="1.1" viewBox="0 -205 1024 1024">
  <g transform="matrix(1 0 0 -1 0 819)">
   <path fill="currentColor"
d="M88 724h18l2 -38h362l26 28q53 -43 56 -50q0 -6 -2 -8q-4 -3 -16 -6q-13 -3 -34 -20q-21 -18 -48 -42l-14 8q21 39 36 66h-366q0 -42 -8 -66q-10 -24 -26 -32q-16 -10 -32 -4q-15 6 -12 24q1 18 20 34q18 15 24 42q7 26 14 64v0v0zM122 590h240l30 36l44 -46q6 -3 6 -8
q-1 -7 -16 -8h-236q-18 0 -48 -8l-20 34v0v0zM50 880h214v112l74 -28q7 -3 8 -8q0 -4 -8 -10l-24 -8v-58h110l34 38l44 -44q3 -1 6 -8q0 -10 -12 -10h-182v-84h82l30 36q47 -41 52 -46q3 -13 -12 -14h-298q-21 0 -54 -6l-20 30h170v84h-132q-40 0 -58 -8l-24 32v0v0z
M824 950l48 -36q9 -7 10 -10q-1 -3 -28 -26v-202q-1 -30 38 -30h42q6 -1 12 8q0 6 4 6q5 0 20 -18q19 -15 20 -20q-3 -13 -32 -16h-90q-30 -1 -42 8q-18 14 -18 44v232h-152v-86q-4 -79 -34 -140q-30 -59 -126 -124l-8 14q75 73 96 128q24 55 22 134v134l54 -36h136l28 36v0
v0zM866 566l56 -42q6 -3 6 -12q0 -6 -12 -12q-19 -12 -28 -32q-62 -148 -124 -226q60 -67 114 -101q54 -35 124 -46v-18q-50 0 -64 -4q-14 -6 -34 -28q-48 34 -90 74q-40 38 -80 89q-39 -43 -128 -103q-87 -58 -164 -84l-4 12q65 38 134 88q67 47 134 123q-45 74 -66 130
q-20 53 -40 128h-22q-16 -4 -20 -8l-30 38h306l32 34v0v0zM624 504q38 -115 110 -224q53 73 106 224h-216v0v0v0zM224 522q6 -4 6 -8q0 -6 -8 -8q-15 -6 -26 -18q-9 -9 -20 -24h220l36 42l50 -52q6 -4 4 -8q-2 -9 -10 -8h-156v-104h142l36 38q51 -49 52 -52q3 -10 -6 -14
h-224v-161l110 15v106l68 -26q15 -9 -2 -18l-20 -10v-56l6 -43q1 -12 -16 -22q-15 -11 -36 -14v64q-174 -39 -224 -54q-51 -15 -84 -42l-44 56q35 9 38 30v127l68 -26q15 -4 10 -10q0 -4 -30 -20v-79l106 16v167h-154q-20 -1 -52 -10l-20 38h226v104h-110q-36 -49 -68 -82
l-14 8q21 36 48 90q26 53 40 88l58 -20v0v0z" />
  </g>

</svg>
