<?xml version="1.0" standalone="no"?>
<!DOCTYPE svg PUBLIC "-//W3C//DTD SVG 1.1//EN" "http://www.w3.org/Graphics/SVG/1.1/DTD/svg11.dtd" >
<svg xmlns="http://www.w3.org/2000/svg" xmlns:xlink="http://www.w3.org/1999/xlink" version="1.1" viewBox="0 -339 2048 2048">
  <g transform="matrix(1 0 0 -1 0 1709)">
   <path fill="currentColor"
d="M1590 977q54 -21 81 -33q89 -41 148 -76q40 -25 77 -59q27 -26 45 -53q21 -33 21 -72q0 -36 -18 -54q-11 -11 -30 -11q-24 0 -46 18q-15 13 -38 55q-31 59 -69 102q-46 53 -107 94q-2 2 -63 41v-562q7 -171 8 -174q5 -31 5 -33q-4 -46 -5 -53q-2 -11 -8 -16
q-7 -6 -19 -10q-17 -6 -35 -6q-17 0 -29 8q-12 6 -12 21v1140q0 39 -3 122q-1 21 -4 38l109 -24q52 -12 70 -21q19 -11 19 -22q0 -12 -12 -23q-14 -13 -41 -22l-44 -13v-302zM1232 323q-55 -19 -86 -28t-76 -19q-28 -7 -269 -57l-60 -13q-8 -38 -13 -50q-8 -19 -19 -19
q-8 0 -16 7q-7 6 -19 32l-53 110q28 16 58 45q61 58 131 143q78 95 143 198q32 49 55 95q17 32 45 90q-117 -30 -154 -38q-152 -33 -187 -41l-7 -38q-4 -20 -15 -28q-5 -4 -9 -4q-8 0 -15 6q-10 7 -14 19l-57 131q17 9 26.5 16.5t22.5 20.5q46 47 97 127q51 82 92 165
q49 101 74 164q10 26 25 72l121 -45q22 -9 33 -16q9 -5 14 -17q1 -3 1 -7q0 -11 -12 -18q-11 -7 -30 -10q-17 -3 -54 -4q-75 -144 -151 -254q-40 -59 -94 -118q-22 -24 -67 -69q136 12 190 19q166 22 195 25q21 47 37 91q22 56 38 121l144 -57q11 -5 15 -14q2 -4 2 -8
q-1 -12 -10 -20q-9 -9 -22 -11l-48 -8q-30 -69 -63 -134q-86 -164 -157 -263q-77 -108 -194 -221q-40 -39 -100 -93q130 10 227 22q118 14 271 40q-14 42 -37 86q-22 41 -61 104l34 21q58 -64 94 -112q61 -81 91 -147q24 -54 24 -104q0 -39 -18 -63q-6 -7 -16 -12
q-10 -4 -22 -4q-23 0 -36 15q-10 12 -14 29q-4 22 -6 55t-6 54q-3 9 -8 28zM1030 1526q-10 6 -14.5 10t-9.5 12q-9 15 -21 51q-18 53 -32 80q-32 64 -82 116q-8 8 -60 56l-20 20l23 29q84 -53 129 -86q80 -60 122 -116q39 -51 39 -100q0 -36 -19 -55q-7 -7 -26 -17h281
q35 46 58 82q51 78 98 174q29 58 64 145l119 -49q38 -15 48 -29q6 -8 6 -15q0 -10 -10 -18q-7 -6 -16 -8q-15 -4 -37 -6l-47 -4q-37 -57 -64 -92q-80 -106 -167 -180h330l106 110l126 -108q23 -20 27 -30q2 -5 2 -8q0 -20 -50 -20l-1144 -2q-135 -2 -190 -8l-42 91
q31 -8 53 -12q67 -13 179 -13h241zM195 1889q129 -49 201 -95q63 -41 93 -88q24 -37 24 -70q0 -20 -11 -33q-14 -15 -38 -15q-18 0 -35 11q-14 9 -37 51q-46 84 -134 149q-29 21 -84 54zM104 1391q81 -33 108 -46q91 -44 160 -109q56 -53 56 -102q0 -27 -14 -43
q-13 -14 -33 -14t-40 16q-8 6 -23 30q-9 16 -19 32q-26 46 -83 102q-27 26 -52 45q-16 12 -81 55zM494 879l35 -18q-14 -42 -20.5 -59.5t-31.5 -75.5q-94 -216 -144 -319q-47 -96 -104 -199q4 -27 4 -39q0 -36 -10 -55q-3 -6 -10 -6t-16 6t-26 31l-73 107q86 107 116 150
q85 118 175 282q52 93 105 195z" />
  </g>

</svg>
