<?xml version="1.0" standalone="no"?>
<!DOCTYPE svg PUBLIC "-//W3C//DTD SVG 1.1//EN" "http://www.w3.org/Graphics/SVG/1.1/DTD/svg11.dtd" >
<svg xmlns="http://www.w3.org/2000/svg" xmlns:xlink="http://www.w3.org/1999/xlink" version="1.1" viewBox="0 -205 1024 1024">
  <g transform="matrix(1 0 0 -1 0 819)">
   <path fill="currentColor"
d="M594 842q5 58 10 128l84 -32q6 -2 4 -10q0 -3 -32 -14q-8 -37 -16 -86q-7 -49 -16 -98h54q57 86 114 200q56 -41 62 -46q3 -3 4 -8q-1 -6 -16 -8q-14 -1 -46 -34q-30 -33 -84 -104h104l42 50l60 -60q7 -16 -6 -16h-292q-10 -54 -34 -122h272l38 52l60 -58q3 -3 4 -8
q0 -12 -12 -12h-236q30 -49 72 -82q42 -30 90 -48q49 -16 116 -22v-18q-33 -1 -48 -8q-16 -6 -38 -30q-70 36 -100 58q-28 21 -62 60q-33 36 -56 90h-110q-41 -81 -82 -128l22 -8h190l24 26q54 -35 58 -40q2 -3 2 -6q-1 0 -26 -18v-112t-18 -66q-17 -25 -58 -38
q-6 33 -26 42q-21 9 -74 30l4 16l72 -12t36 6q16 8 14 76v70h-198v-265q3 -31 12 -38q9 -6 42 -6h230q29 3 40 18q10 15 14 51q4 35 8 110h22q-2 -99 6 -120q8 -20 34 -33l-24 -40q-7 -6 -20 -18q-13 -9 -56 -12h-270q-39 0 -54 6t-24 26q-10 19 -10 69v250
q-74 -79 -166 -134l-8 14q77 69 128 126q50 58 104 158h-128q-16 0 -50 -8l-20 34h208q21 59 34 122h-108q-23 0 -70 -8l-26 34h208q12 51 18 112v0v0zM396 906l8 12q47 -29 80 -58q33 -27 40 -50q6 -24 -2 -42q-10 -20 -28 -18q-18 -1 -24 26t-24 60q-16 32 -50 70v0v0z
M16 680h154v288l86 -36q8 -4 8 -8q3 -1 -2 -10l-38 -16v-218h46l34 42l48 -48q4 -3 8 -14q2 -7 -10 -8h-126v-306l148 62l8 -18q-180 -90 -228 -120q-49 -30 -74 -66l-48 64l140 62v322h-70q-21 0 -68 -8l-16 36v0v0z" />
  </g>

</svg>
