<?xml version="1.0" standalone="no"?>
<!DOCTYPE svg PUBLIC "-//W3C//DTD SVG 1.1//EN" "http://www.w3.org/Graphics/SVG/1.1/DTD/svg11.dtd" >
<svg xmlns="http://www.w3.org/2000/svg" xmlns:xlink="http://www.w3.org/1999/xlink" version="1.1" viewBox="0 -205 1024 1024">
  <g transform="matrix(1 0 0 -1 0 819)">
   <path fill="currentColor"
d="M372 468l58 -42h422l28 36l56 -36q9 -3 10 -12q0 -6 -30 -26v-265q0 -48 -18 -72q-19 -23 -58 -32q-12 29 -36 46q-24 15 -86 30l6 20q44 -12 86 -18q41 -6 50 6q6 10 4 34v263h-440v-240l4 -95q0 -13 -24 -30q-24 -15 -36 -16l4 137v312v0v0zM514 366l48 -36h150l26 34
l48 -34q9 -6 10 -14q0 -6 -26 -20v-90l4 -32q1 -13 -16 -22q-19 -9 -34 -12v40h-164v-18q-1 -10 -16 -20q-16 -10 -34 -11l4 97v138v0v0zM560 206h164v98h-164v-98v0v0zM652 880q-21 -48 -50 -98h272l36 44l62 -50q3 -3 4 -8q0 -12 -12 -12h-210q38 -58 74 -92
q34 -34 68 -52q34 -19 116 -34v-18q-36 0 -50 -8q-14 -7 -34 -28q-60 39 -84 64q-23 23 -52 58q-28 35 -62 110h-144q-30 -52 -60 -88l32 -24h170l18 24l50 -38q3 -6 -2 -12l-16 -10v-48l4 -52q1 -12 -16 -24q-15 -12 -36 -12v32h-176v-14q1 -11 -16 -22q-15 -10 -36 -10
l4 82v102q-39 -41 -80 -76q-39 -32 -126 -82l-8 12q69 55 130 116q57 60 112 144h-134q-20 0 -40 -8l-24 34h210q24 41 46 92q-109 -10 -224 -16l-2 18q162 18 280 46q117 24 180 48q57 -56 54 -64q-1 -7 -10 -4q-9 0 -20 4q-9 0 -48 -2q-39 -3 -150 -24v0v0zM550 530h178
v88h-178v-88v0v0zM174 980l80 -30q12 -7 0 -16l-32 -12v-142q55 -24 86 -42q30 -18 40 -38q7 -22 2 -40q-6 -19 -26 -22q-18 -1 -26 20q-6 20 -20 46q-15 24 -56 54v-590l4 -111q1 -11 -16 -26q-17 -14 -40 -16l4 161v804v0v0zM98 726h18q1 -81 0 -120q0 -39 -18 -66
q-16 -26 -38 -24q-22 3 -28 18q-6 14 6 28l22 28t20 44q9 28 18 92v0v0z" />
  </g>

</svg>
