<?xml version="1.0" standalone="no"?>
<!DOCTYPE svg PUBLIC "-//W3C//DTD SVG 1.1//EN" "http://www.w3.org/Graphics/SVG/1.1/DTD/svg11.dtd" >
<svg xmlns="http://www.w3.org/2000/svg" xmlns:xlink="http://www.w3.org/1999/xlink" version="1.1" viewBox="0 -144 1024 1024">
  <g transform="matrix(1 0 0 -1 0 880)">
   <path fill="currentColor"
d="M565 288l-6 15l-7 14l-16 27l-18 26l-3 4v-299l-65 -32v267l-16 -32l-19 -35l-21 -34l-22 -30l-25 -28l-25 -25l-8 6l33 62l32 67l14 36l13 38l13 38l12 42l10 42l6 26h-115v22h118v156l65 -11l16 -11l-16 -9v-125h26l34 38l13 -12l24 43l12 24l10 25l8 25l6 25l5 25
l3 27l1 27l-1 27h65l-3 -32l-5 -30l-7 -30l-10 -28l-11 -28l-14 -26l-17 -24l-18 -23l-21 -21l-18 -14l21 -18v-22h-103v-80l22 -11l15 -10l14 -10l27 -25l12 -14l23 -30l2 -24l-16 -19l-24 -2l-20 15zM196 990l59 -25l13 -15l-19 -5l-32 -99l-42 -113l-27 -68l24 -4l16 -11
l-16 -10v-565l-64 -32v530l-24 -50l-53 -95l-9 4l72 208l35 110l33 114l31 118zM874 88l-40 26l-36 30l-31 35l-28 -32l-41 -36l-44 -29l-47 -23l-50 -15l-3 9l44 25l40 27l37 33l33 37l31 41l1 2l-24 47l-19 49l-15 54l-9 58l-4 57h-39v22h212l32 27l59 -49l-27 -16l-6 -2
l-13 -48l-23 -65l-25 -60l-30 -54l-9 -13l8 -10l29 -27l32 -22l35 -18l77 -25l-63 -55zM237 784l64 -10l16 -11l-16 -10v-512l-64 -32v575zM839 483h-159l15 -53l18 -54l20 -48l23 -43l12 -18l21 47l21 57l18 62zM532 687l-31 46l-2 1l-46 -62l-31 -34l-33 -31l-33 -28
l-35 -24l-6 7l53 64l27 34l50 76l23 39l-45 50l-71 71l6 8l31 -16l29 -18l54 -38l18 -15l24 51l42 101l3 7l57 -31l11 -16l-19 -3l-42 -84l-27 -47l-9 -15l32 -35l38 -48l4 -24l-14 -20l-25 -4l-20 14zM806 897h-85v-118h-65v172l65 -32h85l32 27l59 -49l-27 -21v-216l1 -5
v-4l2 -4l1 -2l2 -1l4 -2l5 -2l7 -1h25l25 92h11l-10 -92l16 -10l10 -17l-10 -16l-17 -10h-50h-13l-13 2l-13 3l-12 6l-10 8l-9 10l-7 12l-5 12l-2 14l-2 13v231z" />
  </g>

</svg>
