<?xml version="1.0" standalone="no"?>
<!DOCTYPE svg PUBLIC "-//W3C//DTD SVG 1.1//EN" "http://www.w3.org/Graphics/SVG/1.1/DTD/svg11.dtd" >
<svg xmlns="http://www.w3.org/2000/svg" xmlns:xlink="http://www.w3.org/1999/xlink" version="1.1" viewBox="0 -205 1024 1024">
  <g transform="matrix(1 0 0 -1 0 819)">
   <path fill="currentColor"
d="M280 916q9 -10 -8 -16q-18 -4 -36 -16q-90 -69 -168 -122l-12 12q86 76 170 176l54 -34v0v0zM168 656l56 -14h170l24 32l64 -42q6 -6 6 -8q-1 -7 -28 -22v-68l4 -60q1 -13 -16 -26q-18 -10 -38 -10v34h-192v-26q0 -3 -18 -18q-18 -13 -36 -14l4 86v156v0v0zM218 496h192
v122h-192v-122v0v0zM358 844q12 -9 -8 -18q-12 -2 -14 -4l-14 -10q62 -22 106 -40q44 -19 68 -40q22 -22 20 -46q-1 -22 -20 -28q-18 -6 -32 18q-13 24 -46 54t-108 66q-31 -34 -104 -94q-69 -61 -168 -112l-10 12q107 80 172 146q65 65 98 124l60 -28v0v0zM338 954
q51 -18 94 -42q44 -20 56 -46q12 -25 4 -40q-10 -15 -28 -18q-18 0 -24 18q-6 17 -30 46q-23 29 -82 68l10 14v0v0zM724 938q7 -3 8 -6q3 -6 -6 -12q-24 -3 -32 -18q-10 -6 -44 -72h228l30 36q62 -51 62 -60q0 -7 -18 -10q-24 -6 -50 -36q-27 -27 -62 -60l-14 8l60 98h-246
q-45 -84 -102 -156l-14 8q53 99 80 172q26 73 46 140l74 -32v0v0zM762 734q13 -7 2 -14q-15 -3 -32 -20q28 -46 62 -92q34 -45 86 -80q50 -37 106 -46v-16q-28 1 -52 -4q-25 -6 -40 -24q-49 42 -82 82q-33 39 -54 78q-18 38 -36 80q-24 -72 -86 -138q-61 -64 -152 -104
l-6 14q69 47 126 112q54 65 90 206l68 -34v0v0zM266 348h226v82l80 -30q3 -3 4 -6q0 -3 -6 -6l-28 -14v-26h224l24 36l62 -44q6 -4 6 -8q0 -3 -32 -24v-70l4 -44q0 -13 -14 -22q-13 -7 -38 -10v28h-236v-101l270 4q-52 25 -118 53l6 14q71 -17 122 -33q51 -18 78 -36
q24 -17 30 -38q5 -18 -4 -30t-24 -10q-15 1 -30 20q-15 18 -38 38q-612 -26 -642 -34q-28 -8 -52 -20l-36 64l388 6v103h-228v-28q0 -10 -18 -20q-18 -7 -36 -7l4 91v160l52 -38v0v0zM264 216h228v106h-228v-106v0v0zM542 322v-106h236v106h-236v0v0z" />
  </g>

</svg>
