<?xml version="1.0" standalone="no"?>
<!DOCTYPE svg PUBLIC "-//W3C//DTD SVG 1.1//EN" "http://www.w3.org/Graphics/SVG/1.1/DTD/svg11.dtd" >
<svg xmlns="http://www.w3.org/2000/svg" xmlns:xlink="http://www.w3.org/1999/xlink" version="1.1" viewBox="0 -205 1024 1024">
  <g transform="matrix(1 0 0 -1 0 819)">
   <path fill="currentColor"
d="M678 474q6 -3 6 -6q0 -8 -32 -22l-12 -76h172l26 34l60 -38q7 -4 8 -10q-1 -3 -34 -24q-6 -102 -12 -156q-4 -54 -22 -93q-15 -38 -72 -56q-7 31 -32 46q-24 15 -84 32l6 18q84 -17 108 -20q23 -1 32 16q8 15 14 65q5 48 14 160h-188q-9 -63 -36 -134q-27 -70 -92 -117
q-64 -46 -190 -72l-4 14q117 42 168 84q50 41 74 105q23 63 32 120h-112q-19 0 -40 -8l-20 34h174l12 128l76 -24v0v0zM424 582h22v-34h464l32 30q54 -46 58 -52q0 -6 -2 -8q-4 -3 -22 -8q-18 -3 -48 -30q-31 -24 -52 -60l-16 12l50 92h-464q3 -39 -6 -66q-10 -25 -26 -34
q-14 -7 -28 -4t-16 18q-3 15 18 34q19 18 26 48q6 29 10 62v0v0zM454 570q32 27 50 76q15 46 24 158v170l70 -22q10 -7 2 -14l-26 -16v-116q60 59 88 92l48 -36q5 -7 -4 -10q-22 -3 -38 -12q-15 -9 -96 -62q-4 -42 -10 -72q60 -23 78 -40t24 -34q4 -18 -4 -30
q-9 -13 -24 -10q-16 2 -22 20q-4 15 -14 36q-9 20 -44 40q-10 -39 -28 -72q-16 -30 -64 -60l-10 14v0v0zM468 866q7 -55 6 -92q-3 -37 -14 -62q-12 -24 -30 -30t-30 4q-13 10 -8 26q5 15 22 30q15 11 24 38q9 23 10 86h20v0v0zM674 568q45 33 70 78q24 42 30 136v182l70 -22
q10 -7 2 -14l-26 -16v-136q69 69 94 102l56 -42q5 -6 -4 -12q-21 0 -38 -6q-16 -6 -110 -72l-4 -26q63 -31 90 -52q25 -22 32 -46q6 -24 -6 -36t-26 -8q-15 2 -20 20q-4 18 -20 46q-15 26 -54 56q-14 -48 -40 -80q-24 -33 -86 -66l-10 14v0v0zM738 838q1 -43 -4 -74
q-4 -31 -20 -46q-15 -16 -32 -14q-16 0 -22 16q-4 15 14 30q17 15 28 34q11 18 14 54h22v0v0zM56 784l54 -28h70v228l76 -34q10 -6 2 -18l-26 -16v-160h56l24 34l54 -40q12 -9 4 -14l-24 -22v-232l4 -58q3 -15 -12 -26q-13 -12 -40 -14v46h-66v-222l98 24q-24 44 -50 92
l10 10q64 -60 86 -86q20 -25 28 -46q6 -22 0 -40q-5 -16 -22 -20q-18 -4 -26 4q-7 6 -8 24q-1 14 -8 38q-216 -66 -234 -75q-18 -10 -48 -32l-38 59l160 38v232h-72v-36q0 -12 -20 -24q-18 -12 -36 -12l4 72v354v0v0zM108 456h72v274h-72v-274v0v0zM232 730v-274h66v274h-66
v0v0z" />
  </g>

</svg>
