<?xml version="1.0" standalone="no"?>
<!DOCTYPE svg PUBLIC "-//W3C//DTD SVG 1.1//EN" "http://www.w3.org/Graphics/SVG/1.1/DTD/svg11.dtd" >
<svg xmlns="http://www.w3.org/2000/svg" xmlns:xlink="http://www.w3.org/1999/xlink" version="1.1" viewBox="0 -36 256 256">
  <g transform="matrix(1 0 0 -1 0 220)">
   <path fill="currentColor"
d="M124 219l-8 -7v-25h40q0 48 -1 59l23 -9l-8 -6v-44h42q0 30 -1 40l22 -8l-7 -6q0 -24 1 -35l-15 -5v7h-42v-54h49q0 32 -1 44l23 -8l-7 -5q0 -34 1 -44l-16 -4v9h-110l-7 -5l-12 10l6 6q0 36 -1 42l22 -8l-7 -6v-31h46v54h-40l-7 -6l-12 10l5 5q0 28 -1 38zM122 88l-8 -7
v-54h103v71l22 -9l-8 -6v-48q0 -6 1 -21l-15 -5v11h-103l-7 -8l-14 12l7 5v49q0 6 -1 20zM199 97q-12 -12 -23 -24q25 -18 25.5 -27t-2.5 -13.5t-10 6t-22 24.5q-23 -21 -45 -33l-2 4q24 19 37 37q-17 18 -31 28l3 4q21 -13 37 -23q17 20 23 32l18 -13zM33.5 138.5
q-3.5 -11.5 -12.5 -14t-11 2.5t7.5 16t14.5 43h4q1 -36 -2.5 -47.5zM47 245l22 -13l-8 -9v-170q0 -22 1 -36l-15 -10q1 36 1 58v126q0 29 -1 54zM85 171q6 -9 4 -17t-8 -8.5t-8 12.5t-10 34l3 2q13 -14 19 -23z" />
  </g>

</svg>
