<?xml version="1.0" standalone="no"?>
<!DOCTYPE svg PUBLIC "-//W3C//DTD SVG 1.1//EN" "http://www.w3.org/Graphics/SVG/1.1/DTD/svg11.dtd" >
<svg xmlns="http://www.w3.org/2000/svg" xmlns:xlink="http://www.w3.org/1999/xlink" version="1.1" viewBox="0 -36 256 256">
  <g transform="matrix(1 0 0 -1 0 220)">
   <path fill="currentColor"
d="M169.5 232.5q4.5 -6.5 -4.5 -14.5h46l11 11l15 -18h-114q-15 0 -27 -4l-11 11h72q0 6 -4.5 12.5t-13.5 12.5l2 3q24 -7 28.5 -13.5zM202 77l-24 -14q38 -31 68 -31v-5q-14 0 -17 -12q-22 9 -43 28t-33 42l-18 -19v-39l32 16l2 -2q-30 -23 -39 -35l-12 14q4 2 4 9v27
q-21 -17 -53 -29l-2 3q29 17 47.5 34t33.5 37l17 -13h-7l-3 -2q8 -10 19 -19q19 20 21 24l14 -15zM210 206l17 -16h-59v-13h27l10 9l16 -16h-53v-11h29l10 7l16 -14h-55v-13h53l5 9l15 -12l-7 -5q-3 -18 -7 -30t-18 -16q0 9 -17 12l1 7q15 -4 19.5 1t7.5 27h-104v-7l-14 -4
q1 19 1 30v29q0 11 -1 23l15 -6h83zM116 190v-13h39v13h-39zM116 159h39v11h-39v-11zM116 152v-13h39v13h-39zM197.5 104.5q-8.5 -10.5 -12 0.5t-14.5 19l2 3q33 -12 24.5 -22.5zM143 124q30 -13 22 -22.5t-11 -0.5t-14 20zM124 95q-1 10 -8 23l2 2q27 -18 17 -26.5t-11 1.5
zM81 87.5q-2 6.5 6 11t13 20.5h4q1 -29 -10 -33.5t-13 2zM50 242l23 -11l-9 -6v-42h9l10 12l14 -19h-33v-43l28 15l2 -5l-30 -21v-84q2 -23 -20 -30q2 10 -22 18v5q13 -1 21 -1t8 12v71q-28 -20 -27 -24l-13 17q12 5 40 21v49h-20l-8 -3l-9 10h37q0 35 -1 59z" />
  </g>

</svg>
