<?xml version="1.0" standalone="no"?>
<!DOCTYPE svg PUBLIC "-//W3C//DTD SVG 1.1//EN" "http://www.w3.org/Graphics/SVG/1.1/DTD/svg11.dtd" >
<svg xmlns="http://www.w3.org/2000/svg" xmlns:xlink="http://www.w3.org/1999/xlink" version="1.1" viewBox="0 -246 2048 2048">
  <g transform="matrix(1 0 0 -1 0 1802)">
   <path fill="currentColor"
d="M369 1370h363l71 94q117 -97 117 -121q0 -26 -57 -53v-438h-111v93h-141v-670q0 -173 -195 -170q0 61 -49 86q-37 20 -121 33v53q102 -12 185 -12q65 0 65 59v621h-151v-103h-113v596q77 -35 137 -68zM345 1319v-323h407v323h-407zM1491 615v-471h-115v471h-239v-522
h-113v1268q81 -36 133 -68h219v242h-372l-21 51h393v344q185 -6 185 -47q0 -23 -70 -47v-250h293l80 113q66 -61 115 -125l-21 -39h-467v-242h242l74 92q122 -98 122 -125q0 -11 -14 -20l-49 -33v-938q0 -154 -172 -154q0 91 -158 113v53q85 -10 160 -10q55 0 55 63v281
h-260zM1491 992h260v250h-260v-250zM1491 941v-275h260v275h-260zM1376 666v275h-239v-275h239zM1376 992v250h-239v-250h239zM488 1622v309q201 -3 201 -47q0 -24 -84 -55v-207h176l82 127q76 -73 125 -139l-23 -39h-852l-16 51h391zM1743 1653q-54 0 -63 66t-97 135l21 35
q211 -58 211 -164q0 -72 -72 -72zM664 744l28 33q122 -79 185 -181q51 -83 51 -161q0 -82 -76 -82q-57 0 -63 78q-17 184 -125 313zM115 252l-37 31q140 200 205 494q172 -62 172 -105q0 -27 -80 -33q-87 -213 -260 -387z" />
  </g>

</svg>
