<?xml version="1.0" standalone="no"?>
<!DOCTYPE svg PUBLIC "-//W3C//DTD SVG 1.1//EN" "http://www.w3.org/Graphics/SVG/1.1/DTD/svg11.dtd" >
<svg xmlns="http://www.w3.org/2000/svg" xmlns:xlink="http://www.w3.org/1999/xlink" version="1.1" viewBox="0 -205 1024 1024">
  <g transform="matrix(1 0 0 -1 0 819)">
   <path fill="currentColor"
d="M650 722l42 -42h160l36 38l54 -44q9 -3 10 -12q0 -7 -32 -28v-322q3 -42 -20 -68q-22 -26 -70 -40q-8 42 -34 54q-23 11 -70 26l4 20q52 -11 74 -16q20 -6 44 -2t22 32v334h-170v-500l4 -79q1 -14 -22 -28q-21 -13 -36 -14l4 131v560v0v0zM500 680q-24 -6 -158 -32v-296
l166 50v228l80 -26q9 -6 0 -14l-28 -20v-138q-5 -144 -52 -212q-48 -69 -116 -111q-66 -41 -186 -76l-4 16q108 42 168 86q59 43 92 97q32 53 44 146q-69 -25 -116 -46q-47 -22 -82 -64l-56 62l38 20v366l60 -46q150 48 202 84q50 -47 50 -58q0 -9 -18 -6t-38 0
q-22 -1 -46 -10v0v0zM882 838l42 50l74 -66l2 -4q0 -9 -8 -8h-790v-176q4 -231 -34 -366q-37 -131 -142 -239l-12 10q75 111 108 233q30 122 28 338v274l68 -46h664v0v0zM478 988l8 12q54 -25 82 -40q27 -14 40 -34q10 -20 2 -40q-7 -18 -28 -20q-19 0 -28 24t-20 42
q-12 17 -56 56v0v0z" />
  </g>

</svg>
