<?xml version="1.0" standalone="no"?>
<!DOCTYPE svg PUBLIC "-//W3C//DTD SVG 1.1//EN" "http://www.w3.org/Graphics/SVG/1.1/DTD/svg11.dtd" >
<svg xmlns="http://www.w3.org/2000/svg" xmlns:xlink="http://www.w3.org/1999/xlink" version="1.1" viewBox="0 -205 1024 1024">
  <g transform="matrix(1 0 0 -1 0 819)">
   <path fill="currentColor"
d="M318 940q6 -3 6 -8q-1 -6 -10 -8q-27 -9 -50 -42l-18 -32h126l28 38l60 -46q8 -5 8 -10q0 -6 -20 -14q-18 -6 -30 -14q-12 -7 -80 -104h84l28 36l54 -44q8 -3 8 -12q0 -5 -30 -22v-551q2 -35 -16 -56q-18 -20 -48 -26q-9 30 -26 38q-15 6 -42 18l2 14q42 -6 54 -6
q11 -1 20 4q9 6 6 26v223h-96v-152l4 -63q-1 -14 -22 -28q-18 -12 -36 -12l6 111v144h-96q-10 -108 -46 -186q-37 -74 -92 -129l-12 10q60 85 84 175q24 89 22 248v240q-48 -66 -92 -108l-12 8q70 96 128 204q56 107 74 172l72 -36v0v0zM194 372h94v138h-90l-4 -138v0v0v0z
M336 372h96v138h-96v-138v0v0zM198 540h90v132h-90v-132v0v0zM336 672v-132h96v132h-96v0v0zM194 700h118l60 124h-144q-30 -57 -60 -98l26 -26v0v0zM576 762l58 -36h106v244l84 -34q8 -4 8 -8q1 -4 -40 -28v-174h98l30 38l56 -42q3 -4 4 -10q1 -4 -28 -22v-226l4 -78
q0 -15 -14 -24q-16 -9 -40 -12v56h-110v-260l130 8q-22 45 -76 112l12 12q93 -81 120 -126q26 -40 26 -67q0 -24 -12 -36q-9 -10 -20 -8q-11 4 -16 10q-6 9 -8 26q-4 15 -16 56q-189 -24 -278 -40q-88 -16 -106 -38l-34 72l226 15v264h-112v-26q-1 -13 -22 -26
q-19 -10 -34 -10l4 122v296v0v0zM628 434h112v264h-112v-264v0v0zM792 698v-264h110v264h-110v0v0z" />
  </g>

</svg>
