<?xml version="1.0" standalone="no"?>
<!DOCTYPE svg PUBLIC "-//W3C//DTD SVG 1.1//EN" "http://www.w3.org/Graphics/SVG/1.1/DTD/svg11.dtd" >
<svg xmlns="http://www.w3.org/2000/svg" xmlns:xlink="http://www.w3.org/1999/xlink" version="1.1" viewBox="0 -205 1024 1024">
  <g transform="matrix(1 0 0 -1 0 819)">
   <path fill="currentColor"
d="M384 898h434l42 54l66 -60q3 -3 4 -8q0 -12 -12 -12h-240v-294h202l38 54l66 -62q3 -4 4 -10q0 -10 -12 -10h-298v-413q1 -48 -24 -72q-24 -21 -66 -34q-9 33 -36 48q-28 15 -100 36l4 18q94 -21 116 -24q22 -1 38 4q15 6 12 43v394h-230q-20 1 -58 -10l-26 38h314v294
h-154q-21 0 -68 -8l-16 34v0v0zM350 944q12 -8 -2 -16q-27 -2 -42 -34q-52 -99 -106 -204l50 -20q15 -9 -2 -18l-18 -10v-470l4 -93q0 -17 -24 -32q-21 -13 -36 -12l4 131v484q-75 -127 -146 -196l-12 8q66 96 150 270q81 174 102 252l78 -40v0v0z" />
  </g>

</svg>
