<?xml version="1.0" standalone="no"?>
<!DOCTYPE svg PUBLIC "-//W3C//DTD SVG 1.1//EN" "http://www.w3.org/Graphics/SVG/1.1/DTD/svg11.dtd" >
<svg xmlns="http://www.w3.org/2000/svg" xmlns:xlink="http://www.w3.org/1999/xlink" version="1.1" viewBox="0 0 2048 2048">
  <g transform="matrix(1 0 0 -1 0 2048)">
   <path fill="currentColor"
d="M1226 1116l10 -43q6 -26 13 -73t13 -110q5 -64 5 -107q-1 -52 -11 -122q-11 -70 -47 -127q-36 -58 -79 -82q-42 -23 -80 -36q-38 -14 -51 -16l-36 -7q-1 14 -3 30q-1 16 -10 31q-10 16 -32 27q-23 11 -72 27t-77 22l-47 9l5 48q35 -9 51 -13q16 -3 97 -18t108 -18
q40 -5 74 3t61 45q28 37 39 86q11 50 13 110q1 60 -4 126q-6 64 -13 100l-16 83l-83 -78q-45 -42 -128 -109q-84 -66 -186 -122q-101 -57 -221 -104q-120 -46 -197 -66l-93 -25l-10 44l131 47q82 30 166 67q85 37 182 98t198 145q101 85 148 145l62 77l-15 43q-10 29 -34 79
l-15 31l-85 -80q-43 -40 -113 -93q-69 -53 -152 -100q-83 -46 -174 -80t-161 -53l-70 -20l-13 45l100 36q55 20 130 53t150 79.5t147 107.5q72 60 122 114l73 78l-45 79l-45 72l-118 -77q-54 -35 -118 -65q-65 -30 -160 -63q-95 -34 -141 -44l-56 -13l-13 41q36 11 78 26
q42 14 114 46q72 31 126 60q54 30 128 80q75 49 100 76l42 43h-477q-30 0 -71 -3l-27 -2q-24 -2 -26 -2l-24 -3l-40 85q27 -4 55 -8q27 -3 39 -4t44 -3t50 -2h1203l99 101l120 -107l12 -10q7 -10 4 -23q-4 -11 -11 -15q-8 -4 -15 -4h-787q-30 -30 -35 -34l-56 -46l71 -97
q25 -36 76 -118q52 -83 68 -118q15 -34 24 -56l12 -32q18 10 28 15l50 26q65 34 124 75t122 96q64 55 88 84l65 76l99 -61q31 -20 41 -33q10 -14 1 -24q-8 -10 -26 -12q-17 -1 -43 1l-44 2l-113 -83q-58 -43 -112 -76q-53 -32 -102 -56l-78 -37l-64 -28l-21 -9q18 -8 27 -11
q8 -3 54 -23q46 -19 115 -54t130 -71l101 -62q63 -39 92 -59q30 -21 66 -54q36 -34 60 -66q24 -31 24 -67q1 -36 -20 -56q-22 -20 -50 -10q-27 10 -42 29q-16 18 -48 62q-33 43 -65 79t-69 68q-38 32 -92 71q-53 39 -97 68t-161 100zM1950 207h-1622l-161 -5q-15 -1 -18 -1
l-13 -2l-38 89q13 -4 29 -8q16 -3 59 -8q43 -6 142 -6h1387l108 112l131 -112q13 -12 18 -21q6 -9 3 -19q-3 -9 -11 -14q-9 -5 -14 -5z" />
  </g>

</svg>
