<?xml version="1.0" standalone="no"?>
<!DOCTYPE svg PUBLIC "-//W3C//DTD SVG 1.1//EN" "http://www.w3.org/Graphics/SVG/1.1/DTD/svg11.dtd" >
<svg xmlns="http://www.w3.org/2000/svg" xmlns:xlink="http://www.w3.org/1999/xlink" version="1.1" viewBox="0 -36 256 256">
  <g transform="matrix(1 0 0 -1 0 220)">
   <path fill="currentColor"
d="M103 134q-17 -13 -38 -25l113 2q-11 15 -26 28l3 3q35 -18 43 -29.5t2.5 -22.5t-9.5 -2t-10 17q-68 -5 -91 -8t-33 -8l-10 21q11 2 31.5 17.5t35.5 38.5l21 -16q-15 -3 -32 -16zM46 78q-4 -38 -14.5 -47t-19.5 -2.5t5.5 14.5t23.5 35h5zM67 84l26 -10l-10 -7v-29
q0 -8 14 -8h74q11 0 12.5 12t1.5 24h5q0 -10 2 -20t13 -15q-7 -8 -13 -11t-13 -3h-87q-24 0 -24 16q0 32 -1 51zM108 92q21 -9 32 -19.5t3.5 -21.5t-12.5 3t-26 35zM204 79q22 -12 33 -22t4.5 -22.5t-13 3t-27.5 37.5zM89.5 211q-4.5 13 -23.5 29l2 3q23 -8 31.5 -16
t1.5 -18.5t-11.5 2.5zM174 245l22 -13l-11 -3q-12 -9 -36 -29h61l15 13l19 -20h-194q-14 1 -26 -2l-9 9h127q24 24 32 45zM210 138.5q-17 19.5 -65 45.5l2 4q44 -16 64.5 -25.5t18 -26.5t-19.5 2.5zM90 192l21 -15l-12 -2q-21 -16 -39.5 -26t-41.5 -17l-2 4q57 28 74 56z
" />
  </g>

</svg>
