<?xml version="1.0" standalone="no"?>
<!DOCTYPE svg PUBLIC "-//W3C//DTD SVG 1.1//EN" "http://www.w3.org/Graphics/SVG/1.1/DTD/svg11.dtd" >
<svg xmlns="http://www.w3.org/2000/svg" xmlns:xlink="http://www.w3.org/1999/xlink" version="1.1" viewBox="0 -205 1024 1024">
  <g transform="matrix(1 0 0 -1 0 819)">
   <path fill="currentColor"
d="M186 452h144v182h-144v-182v0v0v0zM186 660h144v202h-144v-202v0v0zM874 796l38 50l60 -56q6 -3 6 -8q6 -12 -12 -12h-470q-19 0 -68 -8l-16 34h462v0v0zM580 636q-25 -28 -64 -76q-39 -49 -102 -110l-12 10q60 81 100 144q38 63 74 132q73 -42 72 -50q0 -7 -8 -8
q-8 0 -22 -6q-15 -6 -38 -36v0v0zM750 714q90 -53 126 -82q36 -30 52 -54q13 -25 8 -50q-3 -23 -24 -28q-19 -4 -28 22q-10 24 -32 64q-22 39 -110 114l8 14v0v0zM586 976l10 12q69 -42 100 -66q30 -24 36 -48q5 -21 -4 -38q-9 -19 -30 -16q-18 0 -26 30q-6 29 -24 56
q-16 26 -62 70v0v0zM846 552q11 -6 8 -12q0 -3 -6 -6q-30 -6 -38 -26q-6 -21 -38 -104q-30 -84 -62 -128q25 -42 80 -80q53 -39 92 -56q38 -17 122 -33v-18q-45 1 -66 -4q-21 -6 -38 -30q-57 33 -108 72q-48 36 -108 111q-68 -84 -148 -137q-78 -52 -174 -90l-10 14
q74 36 158 98q80 58 146 155q-46 72 -70 138q-24 63 -44 142l20 6q38 -102 62 -152q23 -51 58 -98q23 42 50 118q24 76 46 152l68 -32v0v0zM138 934l56 -46h122l34 42l48 -44q9 -3 10 -12q0 -6 -32 -26v-692q2 -40 -10 -67q-10 -25 -64 -42q-3 25 -24 40t-78 36l6 16
q60 -15 82 -18q20 -3 32 2q12 8 10 31v272h-146q-10 -102 -20 -156q-9 -55 -38 -118q-30 -62 -84 -117l-12 8q49 76 68 131q18 56 30 148t10 206v406v0v0z" />
  </g>

</svg>
