<?xml version="1.0" standalone="no"?>
<!DOCTYPE svg PUBLIC "-//W3C//DTD SVG 1.1//EN" "http://www.w3.org/Graphics/SVG/1.1/DTD/svg11.dtd" >
<svg xmlns="http://www.w3.org/2000/svg" xmlns:xlink="http://www.w3.org/1999/xlink" version="1.1" viewBox="0 -36 256 256">
  <g transform="matrix(1 0 0 -1 0 220)">
   <path fill="currentColor"
d="M108 188l15 -20h-44v-51l38 14l2 -3l-40 -23v-47q0 -23 1 -46l-17 -5q1 22 1 45v45q-36 -19 -43 -27l-13 20q24 6 56 20v58h-25q-14 -33 -27 -50l-4 1q21 43 24 98l22 -13q-7 -6 -14 -29h24q0 35 -1 69l24 -9l-8 -9v-51h16zM130 177q40 -12 52 -20.5t12.5 -15.5t-3.5 -13
t-13 8t-50 37zM218 224l9 11l17 -15l-9 -7q-4 -119 -6 -147.5t-10.5 -41t-23.5 -17.5q2 14 -31 21v7q33 -9 41 -1.5t10 37.5t6 146h-51q1 -82 -16.5 -130.5t-63.5 -79.5l-3 3q41 34 55 83t14 124h-13q-10 0 -19 -2l-9 9h103zM123 135q40 -14 52 -22.5t12 -16.5t-4 -13.5
t-12.5 8.5t-48.5 40z" />
  </g>

</svg>
