<?xml version="1.0" standalone="no"?>
<!DOCTYPE svg PUBLIC "-//W3C//DTD SVG 1.1//EN" "http://www.w3.org/Graphics/SVG/1.1/DTD/svg11.dtd" >
<svg xmlns="http://www.w3.org/2000/svg" xmlns:xlink="http://www.w3.org/1999/xlink" version="1.1" viewBox="0 -52 256 256">
  <g transform="matrix(1 0 0 -1 0 204)">
   <path fill="currentColor"
d="M206 252l17 -9q5 -3 2 -4q-6 0 -9 -4q-9 -16 -21 -32h30l8 10l16 -11q2 -2 2 -3t-3 -1h-56l-18 -35h49l9 10l12 -12q2 -1 2 -2t-3 -2l-4 -2v-107l1 -23q0 -7 -11 -9v24h-78v-15q1 -10 -11 -12v10q1 20 1 36v101q0 8 -4 11l4 3l9 -11h18l10 35h-26q-6 0 -11 -3l-8 8h56
q5 8 11 20q1 4 2 5q4 11 4 15t-2 7zM61 249l22 -9q3 0 1 -2q-1 0 -2 -1q-4 -3 -5 -5v-33h29l8 10l16 -12q2 -1 2 -2q-1 -1 -3 -1h-52v-30h28l7 10l11 -11l2 -2q0 -1 -2 -2l-5 -4v-108q1 -13 -2 -19q-3 -7 -17 -10q1 8 -7 11t-14 4v4q14 -3 25 -3q6 0 6 10v39h-32v-32v-22
q0 -9 -12 -12v11q1 19 1 35v20h-32v-38l1 -22q1 -10 -12 -12q2 11 2 46v105q-1 7 -4 10l3 2l10 -10h32v30h-38q-5 1 -11 -3l-8 8h57v36q1 4 -7 11zM229 120h-78v-37h78v37zM229 79h-78v-35h78v35zM151 124h78v34h-78v-34zM77 159v-35h32v35h-32zM34 159v-35h32v35h-32z
M66 120h-32v-33h32v33zM77 120v-33h32v33h-32zM146 248l2 2q23 -12 30 -27q3 -14 -7 -15q-3 1 -5 8q0 7 -5 14q-4 8 -15 18zM89 240l1 2q23 -8 26 -18q2 -12 -5 -12q-4 0 -4 6q-1 5 -4 9q-3 6 -14 13z" />
  </g>

</svg>
