<?xml version="1.0" standalone="no"?>
<!DOCTYPE svg PUBLIC "-//W3C//DTD SVG 1.1//EN" "http://www.w3.org/Graphics/SVG/1.1/DTD/svg11.dtd" >
<svg xmlns="http://www.w3.org/2000/svg" xmlns:xlink="http://www.w3.org/1999/xlink" version="1.1" viewBox="0 -246 2048 2048">
  <g transform="matrix(1 0 0 -1 0 1802)">
   <path fill="currentColor"
d="M475 447q-127 -226 -354 -371l-37 41q195 166 315 418q-111 152 -190 367l53 20q66 -160 174 -299q85 214 113 490h-211q-50 -82 -66 -104l-102 36q218 354 334 666h-385l-19 51h398l75 92q125 -100 125 -137q0 -13 -18 -22l-64 -33q-100 -245 -247 -498h168l77 96
q123 -104 123 -131q0 -15 -18 -24l-49 -29q-50 -335 -152 -547q110 -107 273 -173q254 -96 696 -96q202 0 473 21q-46 -61 -70 -137h-360q-422 4 -682 88q-234 73 -373 215zM805 1702l-27 51h830l102 139q82 -76 143 -149l-24 -41h-1024zM1773 1094q-43 0 -67 64
q-25 65 -110 148q-67 66 -144 116l25 41q171 -62 275 -149q91 -78 91 -144q0 -76 -70 -76zM1327 416q-331 0 -385 33q-49 31 -49 143v854q203 -9 203 -53q0 -25 -84 -59v-721q0 -59 43 -72q49 -14 258 -14q254 0 297 14q47 16 66 80q21 88 36 254l54 -23q0 -189 12 -241
q15 -56 63 -56q-3 -97 -94 -119q-90 -20 -420 -20zM1443 854q-42 0 -67 62q-53 132 -217 246l27 41q325 -134 325 -273q0 -76 -68 -76z" />
  </g>

</svg>
