<?xml version="1.0" standalone="no"?>
<!DOCTYPE svg PUBLIC "-//W3C//DTD SVG 1.1//EN" "http://www.w3.org/Graphics/SVG/1.1/DTD/svg11.dtd" >
<svg xmlns="http://www.w3.org/2000/svg" xmlns:xlink="http://www.w3.org/1999/xlink" version="1.1" viewBox="0 -154 1024 1024">
  <g transform="matrix(1 0 0 -1 0 870)">
   <path fill="currentColor"
d="M316 1005l91 -36q14 -6 6 -11q-21 -9 -30 -21v-63h254v73q2 15 -30 46l9 12l91 -36q14 -6 6 -11q-21 -9 -30 -21v-63h208l31 44l72 -50q22 -17 -11 -14h-300v-12l3 -43q0 -22 -15 -31q-15 -11 -41 -15q4 39 7 91v10h-254l3 -55q0 -22 -15 -31q-15 -11 -41 -15q4 37 7 101
h-219q-27 0 -45 -13l-34 33h298v73q2 15 -30 46zM121 684q-5 24 -23 58l13 12l45 -52h639l33 44l67 -50q19 -12 -11 -14h-718v-565h705l28 39l61 -43q24 -19 0 -17h-778l-36 -44l-55 43q26 22 30 44v545zM363 658l65 -28q16 -12 7 -15q-18 -3 -32 -16q-11 -18 -23 -36h302
l33 43l67 -49q19 -14 -11 -15h-211q-1 -71 -17 -153h246l34 44l68 -50q22 -17 -11 -14h-342q-4 -20 -8 -33q0 -1 -1 -2q73 -20 115 -37q39 -16 74 -40q33 -20 53 -42q24 -25 29 -42q4 -23 -12 -34q-21 -7 -40 26q-19 35 -67 72q-49 36 -159 80q-28 -66 -99 -105
q-82 -47 -208 -60l-2 17q111 25 173 63q63 35 90 89q8 16 15 48h-189q-28 0 -47 -13l-32 33h273q14 74 18 153h-149q-39 -51 -90 -99l-15 7q49 66 77 112q26 44 27 61q0 15 -9 28z" />
  </g>

</svg>
