<?xml version="1.0" standalone="no"?>
<!DOCTYPE svg PUBLIC "-//W3C//DTD SVG 1.1//EN" "http://www.w3.org/Graphics/SVG/1.1/DTD/svg11.dtd" >
<svg xmlns="http://www.w3.org/2000/svg" xmlns:xlink="http://www.w3.org/1999/xlink" version="1.1" viewBox="0 -36 256 256">
  <g transform="matrix(1 0 0 -1 0 220)">
   <path fill="currentColor"
d="M118 173v53h-61q-10 0 -19 -2l-9 9h172l14 13l18 -20h-100v-55l1 -9l-17 -6q1 11 1 17zM186.5 198.5q18.5 -6.5 20.5 -14.5t0 -14.5t-9.5 2.5t-23 17.5t-37.5 14.5l1 6q30 -5 48.5 -11.5zM34 153h186l9 10l16 -15q-15 -4 -32 -27l-2 1l10 24h-186q0 -11 -4.5 -18.5
t-10 -9t-9 4t2.5 10t9.5 11.5t5.5 22h5v-13zM147 23l1 6q22 -4 27 -2t8 11t8 33h-86q-16 -43 -81 -63l-1 5q65 24 75 86h-47q-10 0 -19 -2l-9 9h102q1 6 -2.5 14t-14.5 19l2 3q18 -7 27 -16t-5 -20h73l12 11l17 -18h-121q-3 -10 -6 -21h83l9 10l15 -14l-8 -4q-7 -34 -13 -47
t-24 -15q-2 13 -22 15z" />
  </g>

</svg>
