<?xml version="1.0" standalone="no"?>
<!DOCTYPE svg PUBLIC "-//W3C//DTD SVG 1.1//EN" "http://www.w3.org/Graphics/SVG/1.1/DTD/svg11.dtd" >
<svg xmlns="http://www.w3.org/2000/svg" xmlns:xlink="http://www.w3.org/1999/xlink" version="1.1" viewBox="0 -205 1024 1024">
  <g transform="matrix(1 0 0 -1 0 819)">
   <path fill="currentColor"
d="M503 702q-3 -8 -9 -4q-24 21 -39 28q-9 5 0 14q10 10 14 19q4 8 4 27v68q-1 51 -5 82q-1 16 8 12q54 -18 70 -28q13 -8 6 -12q-30 -18 -31 -21q-4 -5 -3 -33v-93h137v147q-1 39 -4 70q-1 16 9 13q54 -17 76 -29q9 -5 0 -11q-22 -16 -26 -20q-7 -7 -7 -23v-147h139
q0 3 1 6v108q-1 30 -4 55q-3 15 0 18q4 4 13 0q39 -17 63 -30q6 -3 6 -6q-1 -5 -4 -6q-18 -9 -22 -15t-4 -16v-108q1 -18 2 -45q1 -9 -6 -13q-44 -21 -48 -20q-3 3 0 13q1 13 2 28h-316q-16 -13 -22 -28zM859 641q5 5 14 15l26 37q7 9 16 0q31 -28 61 -59q10 -10 9 -19
q-2 -8 -15 -9h-278q-23 -48 -60 -109h205q8 0 12 4l26 35q8 8 15 1q33 -27 49 -52q6 -12 0 -13q-21 -11 -22 -14q-2 -4 -2 -16v-309q0 -35 -19 -57q-20 -24 -45 -33q-10 -4 -14 6q-7 13 -35 29q-22 14 -77 30q-12 3 -11 12t14 8q32 -2 77 -5q44 -3 53 3q9 3 9 21v319h-96
v-81q0 -125 4 -210q0 -9 -7 -10l-44 -18q-9 -2 -8 14q6 133 7 224v81h-92v-117q0 -125 4 -210q0 -9 -7 -10l-44 -18q-9 -2 -8 14q6 133 7 224v117h-84v-395q0 -8 -6 -9q-20 -8 -39 -17q-9 -3 -8 12q4 63 5 210v172q-1 36 -5 82q-2 12 2 13q3 1 10 -6q12 -13 36 -31h112
q0 1 1 2q23 62 30 107h-152q-27 0 -61 -7q-5 -1 -6 2q-13 20 -23 36q-6 10 7 7q61 -6 68 -7h373q12 0 16 4zM374 297q14 10 18 0q6 -11 -7 -18q-93 -75 -177 -198q-8 -11 -14 1q-13 24 -35 42q-9 7 -2 13q30 26 30 48v265h-37q-42 -1 -73 -7q-8 -3 -11 6q-4 18 -19 30
q-7 7 -4 11q4 3 11 -1q38 -8 84 -8h49v161h-93q-15 -28 -33 -59q-9 -10 -16 -6q-9 5 -2 17q49 90 79 216q29 123 25 162q-1 17 17 10q42 -17 58 -26q13 -5 13 -11q0 -7 -9 -6q-9 -1 -18 -11q-5 -3 -27 -75h90q13 0 23 12l35 41q9 8 16 1q26 -28 45 -53q11 -15 8 -24
q-3 -7 -18 -8h-209q-22 -56 -61 -149h149q13 0 23 12l35 41q9 8 16 1q26 -28 45 -53q11 -15 8 -24q-3 -7 -18 -8h-133v-161h56q6 0 12 7l36 41q7 7 14 0q26 -26 44 -48q11 -14 4 -24q-5 -6 -18 -7h-148v-258q70 62 139 105z" />
  </g>

</svg>
