<?xml version="1.0" standalone="no"?>
<!DOCTYPE svg PUBLIC "-//W3C//DTD SVG 1.1//EN" "http://www.w3.org/Graphics/SVG/1.1/DTD/svg11.dtd" >
<svg xmlns="http://www.w3.org/2000/svg" xmlns:xlink="http://www.w3.org/1999/xlink" version="1.1" viewBox="0 -36 256 256">
  <g transform="matrix(1 0 0 -1 0 220)">
   <path fill="currentColor"
d="M31 236q24 -11 29.5 -18t0.5 -15t-10.5 3.5t-20.5 26.5zM12 181q30 -11 32 -20t-3.5 -15t-9.5 5.5t-20 26.5zM36 87.5q6 3.5 29 91.5l5 -2q-16 -71 -19.5 -83t-5.5 -33q3 -47 -7.5 -41.5t-7.5 21.5t3.5 26t-22.5 16v4q19 -3 25 0.5zM111 16l-15 -8q1 26 1 125
q-14 -38 -37 -63l-3 3q13 20 23 48.5t15 61.5h-11l-9 -4l-11 11h33q0 43 -1 56l22 -8l-8 -9v-39h9l10 11l18 -18h-37v-30q21 -12 26.5 -19t0.5 -18t-10 3t-17 28q0 -110 1 -131zM183 130l12 -6l20 31h-37q-13 0 -22 -3l-10 10h69l8 9l15 -17q-7 0 -18 -10t-20 -22l6 -4
l-8 -3v-11h23l10 11l18 -18h-51v-58q0 -11 -4.5 -18t-12.5 -12q-6 16 -27 21v4q16 -3 23 -3t7 9v57h-21q-13 0 -22 -3l-10 10h53q0 12 -1 26zM186 231q-9 -18 -16 -30h46l10 11l18 -18h-77q-11 -20 -29 -35l-2 3q15 20 24 44t12 40l20 -10z" />
  </g>

</svg>
