<?xml version="1.0" standalone="no"?>
<!DOCTYPE svg PUBLIC "-//W3C//DTD SVG 1.1//EN" "http://www.w3.org/Graphics/SVG/1.1/DTD/svg11.dtd" >
<svg xmlns="http://www.w3.org/2000/svg" xmlns:xlink="http://www.w3.org/1999/xlink" version="1.1" viewBox="0 -36 256 256">
  <g transform="matrix(1 0 0 -1 0 220)">
   <path fill="currentColor"
d="M121 245q45 -18 23 -33h66l14 13l19 -20h-186v-81q0 -66 -47 -113l-3 2q34 46 34 116v46q0 25 -1 48l18 -11h78q-2 14 -18 31zM168 184l-10 -7v-31h37l13 11l18 -18h-68v-50h54l13 12l20 -19h-162q-10 0 -20 -2l-9 9h34v62q0 8 -1 17l24 -11l-8 -8v-60h40v71q0 18 -1 37z
M71 24q-10 -11 -18.5 -5t4 15t21.5 37l4 -1q-1 -35 -11 -46zM136 40q5 -11 -4.5 -19t-11 8.5t-13.5 35.5l3 3q21 -17 26 -28zM185.5 41q4.5 -11 -4 -19t-11 10t-15.5 35l4 2q22 -17 26.5 -28zM239.5 42q5.5 -11 -2 -21t-13 8.5t-22.5 39.5l3 2q29 -18 34.5 -29z" />
  </g>

</svg>
