<?xml version="1.0" standalone="no"?>
<!DOCTYPE svg PUBLIC "-//W3C//DTD SVG 1.1//EN" "http://www.w3.org/Graphics/SVG/1.1/DTD/svg11.dtd" >
<svg xmlns="http://www.w3.org/2000/svg" xmlns:xlink="http://www.w3.org/1999/xlink" version="1.1" viewBox="0 -205 1024 1024">
  <g transform="matrix(1 0 0 -1 0 819)">
   <path fill="currentColor"
d="M32 666h462l36 34l58 -44q3 -4 4 -10q2 -7 -10 -8h-156v-470q0 -26 4 -41q2 -15 28 -18h420q33 1 42 16q9 13 12 45q3 33 6 132h20q5 -93 10 -126q6 -29 30 -37q-11 -36 -34 -54q-21 -18 -60 -22h-458q-43 1 -56 22q-12 22 -12 64v489h-134v-114q1 -213 -40 -318
q-40 -103 -160 -175l-8 10q99 84 132 183q30 96 28 300v114h-96q-20 0 -46 -8l-22 36v0v0zM96 912h330l36 40l60 -48q10 -12 -4 -20h-340q-33 0 -56 -8l-26 36v0v0zM514 754h284v238l80 -32q9 -3 4 -14l-34 -16v-176h38l38 40l62 -48q3 -4 4 -10q0 -10 -12 -10h-130v-440
q0 -38 -20 -64q-21 -24 -60 -30q-4 33 -40 48q-36 14 -90 32l4 18q66 -12 96 -18q27 -4 46 2t14 52v400h-212q-20 0 -52 -8l-20 36v0v0zM592 592l10 10q53 -42 80 -72q24 -27 30 -56q4 -30 -10 -42q-12 -13 -30 -8q-15 3 -18 34q-3 28 -14 56q-12 27 -48 78v0v0z" />
  </g>

</svg>
