<?xml version="1.0" standalone="no"?>
<!DOCTYPE svg PUBLIC "-//W3C//DTD SVG 1.1//EN" "http://www.w3.org/Graphics/SVG/1.1/DTD/svg11.dtd" >
<svg xmlns="http://www.w3.org/2000/svg" xmlns:xlink="http://www.w3.org/1999/xlink" version="1.1" viewBox="0 -205 1024 1024">
  <g transform="matrix(1 0 0 -1 0 819)">
   <path fill="currentColor"
d="M330 728l48 -34h348l26 34l54 -40q6 -6 6 -8q1 -6 -28 -26v-260l4 -86q0 -15 -18 -26q-18 -9 -36 -12v50h-354v-20q0 -12 -20 -24q-19 -10 -34 -10l4 76v386v0v0zM380 346h354v86h-354v-86v0v0zM380 458h354v90h-354v-90v0v0zM380 574h354v94h-354v-94v0v0zM144 586
l78 -26q6 -7 6 -10t-32 -18v-298h650l32 42l64 -52q2 -6 2 -8q0 -7 -6 -8h-742l-30 -30l-56 50q24 12 34 30v328v0v0zM64 21q171 79 298 171l58 -44q9 -6 -2 -15q-46 -3 -58 -10q-12 -5 -66 -32q-54 -24 -222 -88l-8 18v0v0zM586 176l6 16q120 -25 198 -53q78 -29 96 -56
q15 -25 10 -44q-7 -17 -26 -20q-18 -1 -36 22q-17 22 -76 56t-172 79v0v0zM232 994q70 -18 86 -26q4 -7 -6 -14l-28 -8v-46q170 21 272 36q100 15 188 42q40 -58 36 -64q-3 -7 -8 -4q-5 0 -22 4q-15 3 -54 -2q-37 -3 -130 -12q-90 -6 -282 -24v-42q0 -33 12 -36l24 -2h436
q27 3 42 6q15 2 24 26q9 22 12 104h20q3 -39 4 -68q3 -27 36 -42q-6 -22 -26 -40q-18 -19 -36 -22t-56 -8h-464q-28 0 -50 6q-19 5 -26 26q-4 20 -4 56v154v0v0z" />
  </g>

</svg>
