<?xml version="1.0" standalone="no"?>
<!DOCTYPE svg PUBLIC "-//W3C//DTD SVG 1.1//EN" "http://www.w3.org/Graphics/SVG/1.1/DTD/svg11.dtd" >
<svg xmlns="http://www.w3.org/2000/svg" xmlns:xlink="http://www.w3.org/1999/xlink" version="1.1" viewBox="0 -205 1024 1024">
  <g transform="matrix(1 0 0 -1 0 819)">
   <path fill="currentColor"
d="M690 772l42 -30h110l24 30l40 -34q9 -3 10 -12q0 -3 -24 -18v-64l4 -48q0 -10 -12 -22q-12 -10 -36 -10v34h-114v-4q3 -12 -14 -20q-16 -9 -34 -8l4 68v138v0v0zM734 620h114v100h-114v-100v0v0zM344 860h178v108l76 -24q3 -1 4 -8q0 -4 -30 -16v-60h146v108l72 -26
q6 -1 6 -8q0 -4 -30 -16v-58h124l34 40l46 -48q3 -4 4 -4q7 -12 0 -12h-208v-32q-1 -13 -16 -22q-13 -7 -32 -8v62h-146v-36q-2 -12 -22 -18q-22 -6 -28 -6v60h-94q-21 0 -68 -8l-16 32v0v0zM390 778l48 -30h112l30 28l34 -30q9 -6 10 -14q0 -3 -24 -20v-52l4 -52
q-3 -14 -18 -22q-15 -7 -30 -8v26h-124v-14q1 -12 -10 -20q-12 -9 -38 -8l6 84v132v0v0zM432 626h124v100h-124v-100v0v0zM944 109h-496v-36q1 -18 -16 -28q-18 -11 -36 -14l4 117v262q-63 -75 -138 -140l-10 12q77 86 134 164q56 78 80 132l62 -30l2 -6v-6q0 -1 -12 -4
q-13 -6 -26 -14q-12 -9 -36 -42h380l34 38l48 -48q3 0 4 -6q0 -7 -8 -8h-238v-80h140l28 32l48 -42q2 -1 2 -8q0 -6 -6 -6h-212v-94h142l28 34l44 -42q13 -11 -4 -16h-210v-97h182l34 37l50 -45q10 -8 2 -16v0v0zM448 133h180v97h-180v-97v0v0zM628 254v94h-180v-94h180v0v0
zM628 372v80h-180v-80h180v0v0zM596 566l4 10q45 -13 66 -26q20 -12 26 -24q4 -13 0 -26q-5 -13 -22 -14q-16 -1 -22 16q-6 15 -14 30q-7 14 -38 34v0v0zM336 804l14 -6l-132 -402q-12 -37 -24 -86q-1 -55 4 -88q3 -31 12 -80q6 -46 -2 -67q-7 -19 -28 -20q-19 0 -26 20
q-6 22 0 65q5 45 8 82q1 36 -10 72q-7 30 -62 36l-46 2v18q72 -1 96 4q21 6 42 48l154 402v0v0zM116 924l6 12q54 -13 84 -26q30 -12 48 -30q15 -19 16 -38q0 -18 -8 -30q-7 -10 -20 -10t-20 18q-6 18 -24 46q-19 27 -82 58v0v0zM52 702l6 12q50 -16 80 -28t48 -30
q17 -19 20 -40q0 -21 -8 -32q-7 -10 -22 -10q-16 0 -22 24q-7 21 -26 48q-17 23 -76 56v0v0z" />
  </g>

</svg>
