<?xml version="1.0" standalone="no"?>
<!DOCTYPE svg PUBLIC "-//W3C//DTD SVG 1.1//EN" "http://www.w3.org/Graphics/SVG/1.1/DTD/svg11.dtd" >
<svg xmlns="http://www.w3.org/2000/svg" xmlns:xlink="http://www.w3.org/1999/xlink" version="1.1" viewBox="0 -36 256 256">
  <g transform="matrix(1 0 0 -1 0 220)">
   <path fill="currentColor"
d="M126 243q47 -19 21 -39h66l14 13l19 -20h-186v-79q-1 -62 -49 -108l-3 3q36 46 36 110v46q0 23 -1 45l18 -10h81q-1 17 -18 37zM81 91.5q0 47.5 -1 76.5l17 -9h114l7 12l16 -13l-7 -8v-88q0 -17 1 -30l-16 -9v15h-116v-8l-16 -10q1 24 1 71.5zM96 103h51v49h-51v-49z
M162 103h50v49h-50v-49zM96 45h51v51h-51v-51zM162 45h50v51h-50v-51z" />
  </g>

</svg>
