<?xml version="1.0" standalone="no"?>
<!DOCTYPE svg PUBLIC "-//W3C//DTD SVG 1.1//EN" "http://www.w3.org/Graphics/SVG/1.1/DTD/svg11.dtd" >
<svg xmlns="http://www.w3.org/2000/svg" xmlns:xlink="http://www.w3.org/1999/xlink" version="1.1" viewBox="0 -36 256 256">
  <g transform="matrix(1 0 0 -1 0 220)">
   <path fill="currentColor"
d="M207 229q-18 0 -70 -5v-28h72l15 12l18 -19h-94q26 -21 52 -29t46 -9v-4q-17 -3 -19 -13q-56 19 -85 55h-5q0 -27 1 -47l-16 -6q1 18 1 52q-38 -44 -109 -66l-1 3q61 27 93 64h-60q-10 0 -19 -2l-9 9h105v26q-41 -2 -75 -3v4q37 3 78.5 9t64.5 14zM173 43q0 -14 1 -28
l-16 -6q1 17 1 71h-56q-3 -26 -23.5 -44.5t-61.5 -26.5l-1 2q37 13 53 30.5t19 38.5h-48q-10 0 -19 -2l-9 9h76v38h-18q-10 0 -19 -2l-9 9h150l13 10l18 -17h-51v-38h37l16 12l18 -19h-71v-37zM103 87h56v38h-56v-38z" />
  </g>

</svg>
