<?xml version="1.0" standalone="no"?>
<!DOCTYPE svg PUBLIC "-//W3C//DTD SVG 1.1//EN" "http://www.w3.org/Graphics/SVG/1.1/DTD/svg11.dtd" >
<svg xmlns="http://www.w3.org/2000/svg" xmlns:xlink="http://www.w3.org/1999/xlink" version="1.1" viewBox="0 -36 256 256">
  <g transform="matrix(1 0 0 -1 0 220)">
   <path fill="currentColor"
d="M209 214l13 12l14 -19h-66v-169h48l14 12l16 -19h-135q-10 0 -19 -2l-9 9h71v169h-29q-10 0 -19 -2l-9 9h110zM142 177l-7 -4q-5 -19 -9 -39q13 -12 19.5 -22t6 -17.5t-6 -13.5t-6.5 2.5t-4 19t-10 26.5q-9 -39 -35 -67l-3 4q13 22 19 42t9.5 38.5t4.5 41.5zM224 177
l-9 -6q-4 -18 -9 -38q14 -13 22 -23t7 -17.5t-6.5 -13t-9 11.5t-15.5 36q-9 -34 -32 -60l-2 3q13 23 22 58.5t9 59.5zM47 245l22 -10l-8 -8v-35h15l7 11l15 -13l-8 -7v-90q2 -21 -14 -27q-1 12 -13 15v4q6 -1 10.5 -0.5t3.5 11.5v89h-16v-139q0 -14 2 -30l-16 -8q1 24 1 44
v133h-15v-111l-15 -7q1 33 1 70t-1 62l15 -7h15q0 29 -1 53z" />
  </g>

</svg>
