<?xml version="1.0" standalone="no"?>
<!DOCTYPE svg PUBLIC "-//W3C//DTD SVG 1.1//EN" "http://www.w3.org/Graphics/SVG/1.1/DTD/svg11.dtd" >
<svg xmlns="http://www.w3.org/2000/svg" xmlns:xlink="http://www.w3.org/1999/xlink" version="1.1" viewBox="0 -36 256 256">
  <g transform="matrix(1 0 0 -1 0 220)">
   <path fill="currentColor"
d="M64 146q8 0 8 6v19q-19 -5 -27.5 -7.5t-14.5 -7.5l-11 17q37 4 53 8v22h-20q-10 0 -19 -2l-9 9h48q0 18 -1 36l23 -9l-8 -6v-21h15l11 12l15 -19h-41v-20l35 7l1 -5l-36 -11v-25q-1 -15 -20 -22q-1 11 -26 16v4q16 -1 24 -1zM146 227q15 2 37 7t32 11l12 -19l-11 1
q-57 -7 -70 -7v-27h66l14 12l16 -19h-42v-25q0 -12 1 -24l-17 -6q1 13 1 27v28h-39q-3 -24 -16 -37t-30 -20l-2 3q17 11 25.5 25.5t8.5 36.5t-1 42zM209 106l1 -17l-17 -5v6h-141l-4 -20h158l11 10l18 -14l-10 -4q-4 -15 -11 -26t-18 -18.5t-33 -8.5q2 13 -36 21l1 5
q29 -5 44 -6t23 8.5t13 25.5h-160l-7 -8l-15 13l7 5l6 31l14 -7h140v22h-126q-11 0 -21 -2l-10 9h155l9 9l17 -11l-8 -8v-10z" />
  </g>

</svg>
