<?xml version="1.0" standalone="no"?>
<!DOCTYPE svg PUBLIC "-//W3C//DTD SVG 1.1//EN" "http://www.w3.org/Graphics/SVG/1.1/DTD/svg11.dtd" >
<svg xmlns="http://www.w3.org/2000/svg" xmlns:xlink="http://www.w3.org/1999/xlink" version="1.1" viewBox="0 -36 256 256">
  <g transform="matrix(1 0 0 -1 0 220)">
   <path fill="currentColor"
d="M48 170h71v13h-71v-13zM49 190h67l7 8l13 -10l-6 -4q0 -16 1 -21l-12 -3v3h-71q1 -20 -3 -40h27v14h-6l-8 -3l-9 10h23q0 11 -1 17l20 -4l-8 -3v-10h20q0 12 -1 17l18 -5l-5 -3v-9h5l9 7l11 -14h-25v-14h14l8 8l13 -15h-108q-8 -19 -27 -37l-3 2q19 29 22 46.5t3 36
t-1 33.5zM83 123h20v14h-20v-14zM89 106q-7 0 -20.5 -9.5t-35.5 -17.5l-1 5q30 15 42 32zM118.5 107q5.5 -1 9 -6.5t-0.5 -12.5t-8.5 1.5t-19.5 21.5l1 3q13 -6 18.5 -7zM227.5 166.5q1.5 1.5 3.5 1.5t5 -2t3.5 -6.5t-4.5 -4.5h-11.5h-11.5q-17 0 -16 10v17h-30
q1 -10 -3.5 -20t-22.5 -20l-3 2q14 13 16.5 23.5t0.5 28.5l14 -7h27l5 7l15 -10l-7 -4v-8q-1 -10 10 -9q8 0 9.5 1.5zM183 118q14 12 19 23h-41q9 -15 22 -23zM202 147l7 7l15 -14l-8 -3q-10 -12 -23 -26q22 -12 47 -14v-5q-12 0 -15 -9q-25 10 -43 22q-19 -15 -45 -21v4
q24 12 38 23q-14 15 -19 27l-4 -1l-6 10h56zM44 48.5q0 21.5 -1 33.5l15 -4h61q2 6 1 13l23 -5l-7 -4q-1 0 -2 -4h68l8 6l16 -7l-8 -5v-50q-1 -15 -22 -18q4 7 -30 12l-1 4q27 -1 33 -0.5t8 6.5v45h-73q-2 -1 -4 -3q19 -3 31.5 -4.5t19 -4.5t3 -10t-16 1t-39.5 13
q-8 -5 -22 -11.5t-40 -10.5l-2 3q23 6 37 13.5t18 13.5h-62v-59l-13 -6q1 21 1 42.5zM144 50q-6 -3 -14 -9q24 -3 33 -3.5t14 -5.5t2.5 -9.5t-15 2t-37.5 12.5l-22.5 -9t-35.5 -9l-2 3q29 8 41 16t17 19zM70 237l-12 -12h54l10 10l15 -17h-58q17 -6 20 -11.5t-3.5 -11t-10 4
t-14.5 18.5h-17q-17 -18 -39 -31l-3 2q16 15 27 28.5t19 29.5l21 -9zM172 237l-11 -12h56l12 7l15 -14h-62q12 -4 16.5 -7.5t3 -9.5t-6 -6.5t-6 5t-15.5 18.5h-18q-12 -11 -29 -24l-3 2q18 19 26 32.5t11 19.5l21 -10z" />
  </g>

</svg>
