<?xml version="1.0" standalone="no"?>
<!DOCTYPE svg PUBLIC "-//W3C//DTD SVG 1.1//EN" "http://www.w3.org/Graphics/SVG/1.1/DTD/svg11.dtd" >
<svg xmlns="http://www.w3.org/2000/svg" xmlns:xlink="http://www.w3.org/1999/xlink" version="1.1" viewBox="0 -205 1024 1024">
  <g transform="matrix(1 0 0 -1 0 819)">
   <path fill="currentColor"
d="M352 930l58 -36h416l28 32q66 -47 64 -52q-3 -4 -30 -22v-514l4 -88q0 -11 -14 -22q-15 -10 -42 -14v80h-430v-66q-1 -13 -22 -26q-21 -10 -36 -10l4 136v602v0v0zM406 322h430v546h-430v-546v0v0zM496 764l56 -36h120l32 40l58 -42q6 -4 6 -8q0 -6 -32 -26v-164l4 -78
q0 -12 -14 -24q-15 -12 -38 -14v56h-144v-34q3 -16 -14 -28q-18 -13 -38 -14l4 126v246v0v0zM544 494h144v208h-144v-208v0v0zM114 956q72 -36 100 -54q27 -15 42 -36q14 -21 14 -42q-1 -22 -14 -34q-13 -13 -32 -10q-17 2 -22 34q-3 30 -24 54q-18 24 -74 76l10 12v0v0z
M26 570h136l34 42l54 -42q12 -7 12 -14q0 -3 -36 -32v-298q41 -54 92 -86q50 -29 116 -39l94 -2h298q71 4 164 16v-24q-33 -6 -56 -12q-24 -5 -36 -32h-356q-90 1 -138 14q-49 10 -94 40q-45 29 -72 67q-27 36 -42 36q-12 0 -36 -38q-24 -39 -68 -117l-62 44q58 56 146 137
v312h-72q-28 1 -52 -10l-26 38v0v0z" />
  </g>

</svg>
