<?xml version="1.0" standalone="no"?>
<!DOCTYPE svg PUBLIC "-//W3C//DTD SVG 1.1//EN" "http://www.w3.org/Graphics/SVG/1.1/DTD/svg11.dtd" >
<svg xmlns="http://www.w3.org/2000/svg" xmlns:xlink="http://www.w3.org/1999/xlink" version="1.1" viewBox="0 -36 256 256">
  <g transform="matrix(1 0 0 -1 0 220)">
   <path fill="currentColor"
d="M18 210l-1 4q19 4 40 12.5t31 18.5l13 -19q-8 0 -31 -7v-47h14l11 11l14 -18h-39v-23q21 -9 25.5 -17t0 -17.5t-9.5 4.5t-16 24q0 -96 1 -120l-15 -9q1 50 1 125q-18 -38 -46 -68l-2 3q33 52 46 98h-15q-10 0 -19 -2l-9 9h45v44q-10 -2 -39 -6zM157 247q20 -9 22.5 -15
t-5.5 -12h44l14 12l18 -19h-122q-10 -1 -21 -3l-9 10h67q0 12 -10 24zM221 210l15 -15h-58v-14h26l11 8l15 -15h-52v-11h28l11 7l15 -14h-54v-13h45l8 7l13 -14l-10 -4q-3 -23 -8.5 -33.5t-24.5 -15.5q-1 10 -17 14v4q27 -5 31 2.5t8 32.5h-94v-5l-12 -4q1 16 1 26v31
q0 12 -1 23l16 -5h77zM129 195v-14h37v14h-37zM129 163h37v11h-37v-11zM129 156v-13h37v13h-37zM209 111q-5 -12 -9 -4t-16 20l2 2q28 -6 23 -18zM158 129q27 -9 20.5 -19.5t-10 -1t-12.5 18.5zM139 103q-1 10 -8 21l2 2q25 -15 16 -24t-10 1zM101.5 102q10.5 7 14.5 23
l4 -1q0 -33 -14.5 -31t-4 9zM176 93l-8 -3q4 -10 20 -26q21 12 32 26l11 -15q-16 -3 -40 -15q20 -22 59 -27v-4q-10 -1 -18 -12q-53 23 -67 71q-9 -10 -21 -21v-40l36 13l1 -4q-38 -21 -46 -29l-9 13q5 4 5 25v14q-28 -21 -53 -32l-1 4q44 26 85 73z" />
  </g>

</svg>
