<?xml version="1.0" standalone="no"?>
<!DOCTYPE svg PUBLIC "-//W3C//DTD SVG 1.1//EN" "http://www.w3.org/Graphics/SVG/1.1/DTD/svg11.dtd" >
<svg xmlns="http://www.w3.org/2000/svg" xmlns:xlink="http://www.w3.org/1999/xlink" version="1.1" viewBox="0 -205 1024 1024">
  <g transform="matrix(1 0 0 -1 0 819)">
   <path fill="currentColor"
d="M838 434q57 -51 60 -56q0 -4 -2 -10q-1 -4 -14 -8q-10 -1 -28 -16l-116 -301q-9 -15 -26 -16h-30l126 347h-246q-21 0 -48 -8l-20 34h312l32 34v0v0zM620 646l12 10q66 -55 84 -76q16 -22 20 -44q3 -22 -8 -40q-11 -19 -34 -16q-22 3 -20 30q3 24 -6 52q-6 27 -48 84v0v0
zM734 940q3 -2 4 -4q4 -8 -22 -16q24 -75 54 -140q29 -67 86 -118q54 -50 136 -70v-18q-47 1 -64 -4q-18 -4 -36 -22q-42 35 -80 82q-39 47 -66 110q-25 61 -46 164q-54 -133 -108 -226q-54 -94 -132 -172l-14 10q65 87 116 192q50 102 100 264l72 -32v0v0zM160 646h212
l36 46l56 -56q7 -12 -4 -18h-164v-132h72l34 44l54 -52q12 -12 -2 -20h-158v-268l222 40l6 -20q-177 -48 -240 -62t-120 -33q-57 -17 -80 -40l-42 71l204 36v276h-100q-18 0 -54 -8l-18 36h172v132h-44l-20 -6l-22 34v0v0zM82 402l10 10q57 -42 78 -66q21 -23 28 -52
q6 -27 -6 -42q-13 -13 -28 -8q-16 4 -16 26q-1 20 -16 52q-13 29 -50 80v0v0zM314 256q57 82 96 158l62 -38q3 -9 -2 -12q-6 -4 -18 -4q-12 -1 -42 -34q-31 -31 -82 -80l-14 10v0v0zM34 532q81 118 132 212q51 93 102 228l74 -36q4 -6 0 -12q-6 -3 -18 -6t-26 -32
q69 -27 120 -56q51 -30 66 -54q12 -24 4 -42q-7 -18 -26 -18q-18 -1 -36 26q-16 26 -52 62q-37 33 -88 66q-41 -85 -100 -178q-60 -91 -138 -170l-14 10v0v0z" />
  </g>

</svg>
