<?xml version="1.0" standalone="no"?>
<!DOCTYPE svg PUBLIC "-//W3C//DTD SVG 1.1//EN" "http://www.w3.org/Graphics/SVG/1.1/DTD/svg11.dtd" >
<svg xmlns="http://www.w3.org/2000/svg" xmlns:xlink="http://www.w3.org/1999/xlink" version="1.1" viewBox="0 -36 256 256">
  <g transform="matrix(1 0 0 -1 0 220)">
   <path fill="currentColor"
d="M70 219q25 -15 35.5 -25t7 -21t-12.5 4t-33 37q-23 -42 -56 -71l-3 2q18 23 35 53.5t20 47.5l18 -13q-5 -3 -11 -14zM103 116q0 -23 1 -36l-14 -8v7h-49v-44q18 6 39 17q-3 8 -12 21l2 3q21 -18 28 -27.5t0 -18.5t-10 0t-6 17q-45 -29 -48 -37l-11 15q5 6 5 13v77
q0 24 -1 43l13 -10h50l8 7l12 -12l-7 -6v-21zM41 118h49v23h-49v-23zM41 86h49v24h-49v-24zM159 202q7 21 9 44l20 -12l-6 -6q-5 -14 -9 -26h41l14 11l14 -18h-54q16 -25 32 -39.5t28 -17.5v-4q-11 -1 -15 -11q-32 25 -50 72h-12q-21 -53 -63 -82l-2 3q33 32 51 79h-8
q-10 0 -19 -2l-9 9h38zM185 141l14 10l14 -17h-41q-16 1 -24 -3l-9 10h46zM213 104l13 14l15 -22h-58v-63q0 -19 -18 -25q-1 15 -25 19v4q19 -2 25 -2t5 13v54h-29q-10 0 -19 -2l-9 10h100zM155 67l-7 -3q-26 -33 -46 -45l-2 2q15 15 25.5 32t15.5 30zM231.5 54.5
q9.5 -8.5 10 -17t-3 -14.5t-9 4.5t-13 22t-21.5 24.5l2 3q25 -14 34.5 -22.5zM76 175.5q6 -7.5 2 -15t-7 -7.5t-6.5 11t-13.5 26l2 2q17 -9 23 -16.5z" />
  </g>

</svg>
