<?xml version="1.0" standalone="no"?>
<!DOCTYPE svg PUBLIC "-//W3C//DTD SVG 1.1//EN" "http://www.w3.org/Graphics/SVG/1.1/DTD/svg11.dtd" >
<svg xmlns="http://www.w3.org/2000/svg" xmlns:xlink="http://www.w3.org/1999/xlink" version="1.1" viewBox="0 -120 1000 1000">
  <g transform="matrix(1 0 0 -1 0 880)">
   <path fill="currentColor"
d="M373 360q67 65 94 123q34 71 36 181v271l67 -36h240l42 48l79 -52v-24h-365v-112h245l27 36l57 -45q15 -11 15 -18q0 -12 -13 -14l-22 -3q-39 -113 -113 -205q83 -67 187 -110l12 -5l-9 -14q-15 1 -21 1q-33 0 -63 -27q-79 48 -144 116q-84 -57 -165 -92q-27 -11 -69 -27
l-14 17q143 67 215 141q-62 85 -86 221h-39v-58q-1 -119 -56 -204q-32 -49 -72 -84q-15 -12 -49 -39zM630 731q11 -48 38 -99q29 -53 55 -83q65 89 89 182h-182zM31 698q148 123 199 263l75 -19q20 -5 20 -14q0 -7 -17 -13l-20 -8q88 -9 127 -27q54 -23 54 -57
q0 -26 -28 -26q-19 0 -34 16q-49 50 -133 81q0 -1 -32 -40q-31 -36 -48 -52h104l31 31l63 -38v-20h-229l-21 -18l51 -23h168l24 26l54 -31q10 -6 10 -13q0 -8 -14 -12l-11 -3v-136l-59 -6v11h-179v-44h137l29 29l63 -36v-20h-229v-49h126l41 39l74 -45v-20h-241v-52l-62 -4
v373q-49 -37 -78 -55zM186 641v-44h179v44h-179zM186 707v-40h179v40h-179zM69 77l-11 28h151v257l72 -38h435l23 34l60 -37q24 -15 24 -22q0 -9 -20 -17l-19 -7v-170h52l45 57l71 -65v-20h-883zM269 296v-191h116v191h-116zM443 105h106v191h-106v-191zM610 105h113v191
h-113v-191z" />
  </g>

</svg>
