<?xml version="1.0" standalone="no"?>
<!DOCTYPE svg PUBLIC "-//W3C//DTD SVG 1.1//EN" "http://www.w3.org/Graphics/SVG/1.1/DTD/svg11.dtd" >
<svg xmlns="http://www.w3.org/2000/svg" xmlns:xlink="http://www.w3.org/1999/xlink" version="1.1" viewBox="0 -143 1024 1024">
  <g transform="matrix(1 0 0 -1 0 881)">
   <path fill="currentColor"
d="M251 917q6 -3 6 -7q0 -7 -13 -12t-19.5 -19t-34.5 -197h61l27 36l44 -35q14 -7 12 -11q0 -7 -28 -24q-8 -101 -24 -196.5t-42 -157.5q43 -42 55.5 -67t10.5 -42t-11 -23t-20 -4t-17 20t-11 35t-23 45q-30 -64 -76 -124t-106 -100l-10 12q58 54 98 116t66 126
q-22 22 -100 84q30 136 47 284h-46q-11 0 -30 -8l-19 34h99q21 145 34 258zM208 318q14 40 29 132t24 206h-76q-19 -124 -57 -276q52 -38 80 -62zM584 834l28 34l48 -40q4 -3 4 -7q0 -12 -12 -12h-279q-20 0 -37 -8l-17 33h265zM381 771l51 -28h116l23 30l40 -33
q11 -5 11 -13q0 -4 -27 -22v-84l4 -57q0 -13 -16.5 -22t-32.5 -9v38h-124v-19q-3 -14 -19 -20t-30 -6l4 88v157zM426 597h124v120h-124v-120zM576 513l50 -41q8 -12 -1 -16.5t-23 -10t-80 -82.5q16 -8 14 -12t-22 -14v-34l112 34l6 -18l-120 -48v-164q2 -30 -12 -50t-52 -34
q-6 35 -41 49t-61 22l4 17q77 -18 97.5 -17.5t18.5 21.5v136q-58 -22 -75 -34t-37 -34l-36 58l148 46v96l39 -14l49 92h-145q-15 0 -36 -10l-24 36h206zM400 958l8 12q60 -22 80 -35t27 -29t0 -33t-25 -16t-23 17t-16 36t-51 48zM755 713h69l24 39l57 -41q7 -11 -3 -17
l-25 -20v-516q0 -44 4.5 -51.5t19.5 -8.5h30q15 2 20.5 16.5t7 61t1.5 94.5h16q3 -60 5.5 -105.5t30.5 -47.5q-14 -39 -26.5 -49t-38.5 -12h-64q-23 0 -36 15.5t-13 58.5v558h-79q-1 -132 -7 -222q42 -50 58 -82t10 -57t-24 -26t-24 28t-26 72q-5 -83 -41.5 -178
t-136.5 -187l-12 10q88 114 117.5 212t30.5 198q-44 52 -76 84l10 14q30 -20 70 -54q4 76 4 188h-36q-14 -4 -26 -10l-24 35h86v251l81 -30q8 -8 3 -14t-37 -18v-189z" />
  </g>

</svg>
