<?xml version="1.0" standalone="no"?>
<!DOCTYPE svg PUBLIC "-//W3C//DTD SVG 1.1//EN" "http://www.w3.org/Graphics/SVG/1.1/DTD/svg11.dtd" >
<svg xmlns="http://www.w3.org/2000/svg" xmlns:xlink="http://www.w3.org/1999/xlink" version="1.1" viewBox="0 -36 256 256">
  <g transform="matrix(1 0 0 -1 0 220)">
   <path fill="currentColor"
d="M158 222h38l8 7l13 -15q-9 -2 -17.5 -8.5t-14.5 -12.5h34l9 8l13 -12l-8 -6q0 -25 1 -40l-14 -6v8h-45q-7 -9 -13 -15q14 -14 25 -31q25 19 32 30l14 -16q-10 -1 -32 -14q25 -53 47 -58v-4q-9 1 -16 -9q-18 13 -35 68l-7 -3q9 -22 8 -42.5t-8 -29.5t-20 -14q-3 8 -9.5 12
t-17.5 6v4q27 -4 33.5 -1t7.5 16t-1 30q-39 -38 -88 -56l-1 3q53 30 85 66q-3 8 -7 15q-32 -28 -72 -42l-1 3q45 25 67 50q-3 6 -9 13q-22 -18 -52 -30l-1 3q13 7 28.5 19t26.5 27h-25v-6l-14 -4q1 17 1 27v22q-9 -8 -16 -13l-3 3q14 13 32 36t23 38l18 -12l-8 -4
q-5 -6 -9 -10zM129 193h50l16 22h-41q-13 -11 -25 -22zM134 152h35v34h-35v-34zM182 152h38v34h-38v-34zM42 243q17 -12 25.5 -22.5t-2.5 -22.5h19l12 11l17 -18h-75q-10 -1 -20 -3l-9 10h49q-5 20 -19 43zM37 41h40v43h-40v-43zM70 162l12 9l16 -16h-48q-11 0 -20 -3l-8 10
h48zM69 125l12 9l16 -16h-45q-11 0 -20 -3l-8 10h45zM90 46q0 -11 1 -22l-14 -6v16h-40v-14l-14 -7q1 21 1 43t-1 44l16 -9h37l8 9l13 -13l-7 -6v-35z" />
  </g>

</svg>
