<?xml version="1.0" standalone="no"?>
<!DOCTYPE svg PUBLIC "-//W3C//DTD SVG 1.1//EN" "http://www.w3.org/Graphics/SVG/1.1/DTD/svg11.dtd" >
<svg xmlns="http://www.w3.org/2000/svg" xmlns:xlink="http://www.w3.org/1999/xlink" version="1.1" viewBox="0 -36 256 256">
  <g transform="matrix(1 0 0 -1 0 220)">
   <path fill="currentColor"
d="M59 207h17v23h-17v-23zM88 207h19v23h-19v-23zM59 179h17v21h-17v-21zM88 179h19v21h-19v-21zM120 172l-13 -4v4h-37l17 -6l-6 -4l-2 -8h28l6 8l15 -12l-6 -4q-5 -37 -11 -44.5t-22 -10.5q1 7 -19 13v3q11 0 18 -1t11.5 2t9.5 39h-31q-7 -24 -20.5 -37t-34.5 -21l-2 3
q15 9 27 23t16 32h-11q-10 -1 -19 -3l-9 10h41q1 8 1 18h-8v-3l-14 -5q1 13 1 34.5t-1 43.5l14 -5h47l7 8l13 -11l-6 -5v-57zM153 208h22v23h-22v-23zM188 208h20v23h-20v-23zM153 180h22v21h-22v-21zM188 180h20v21h-20v-21zM141 203.5q0 19.5 -1 38.5l13 -4h54l8 7l13 -11
l-7 -4v-57l-13 -5v5h-40l17 -6q-5 0 -8 -11h34l7 9l14 -13l-7 -5q-4 -25 -7 -36.5t-10 -16.5t-17 -7q0 11 -21 15v3q19 -1 24.5 -1t9 7t7.5 38h-35q-9 -42 -53 -58l-2 3q36 24 42 55h-6q-10 -1 -18 -3l-9 10h34q2 11 2 17h-13v-4l-13 -4q1 19 1 38.5zM91 75h-48
q-10 -1 -19 -3l-9 10h80q6 7 9 16l18 -8q-7 -4 -7.5 -4.5t-4.5 -3.5h108l14 11l14 -18h-57q-15 -19 -34 -34q41 -5 57.5 -9.5t18.5 -16.5t-15 -2t-72 19q-40 -21 -127 -23v5q74 6 113 23q-25 3 -61 10q15 17 22 28zM86 52q31 -4 55 -8q19 15 30 31h-65q-10 -12 -20 -23z" />
  </g>

</svg>
