<?xml version="1.0" standalone="no"?>
<!DOCTYPE svg PUBLIC "-//W3C//DTD SVG 1.1//EN" "http://www.w3.org/Graphics/SVG/1.1/DTD/svg11.dtd" >
<svg xmlns="http://www.w3.org/2000/svg" xmlns:xlink="http://www.w3.org/1999/xlink" version="1.1" viewBox="0 -154 1024 1024">
  <g transform="matrix(1 0 0 -1 0 870)">
   <path fill="currentColor"
d="M190 702h232v-16h-232v16zM602 780h232v-16h-232v16zM602 702h232v-16h-232v16zM190 780h232v-16h-232v16zM118 628l85 -36q14 -6 6 -11q-21 -9 -30 -21v-139l2 -33q0 -21 -12 -30t-37 -14q4 36 7 106v120q2 15 -30 46zM294 660l89 -28q14 -6 6 -11q-21 -9 -30 -21v-213
l2 -45q0 -21 -14 -30q-13 -9 -37 -14q4 36 7 112v200q1 15 -32 38zM508 583q59 -79 116 -125q85 58 133 125h-249zM130 215h356v81q2 15 -27 42l8 11l86 -34q14 -6 6 -11q-17 -6 -29 -18v-71h236l36 46l72 -53q19 -16 -11 -13h-333v-142h336l32 48l76 -55q16 -15 -11 -13
h-830q-27 2 -47 -13l-32 33h432v142h-277q-27 0 -47 -13zM155 961h648l32 40l68 -50q15 -10 -6 -10h-363v-77h356l43 41l55 -64q3 -12 -10 -7q-18 0 -28 -6q-12 -7 -21 -19q-10 -14 -48 -69l-15 4l38 100h-370v-74l2 -73q0 -21 -14 -30q-13 -9 -39 -14q4 36 7 150v41h-361
v-14q-1 -41 -12 -68q-12 -29 -33 -38q-22 -11 -31 7q-9 17 11 35q19 17 31 44q10 25 19 94h17q-1 -19 -2 -40h361v77h-256q-27 0 -45 -13zM841 599q12 -13 0 -16q-22 -5 -33 -11q-66 -84 -151 -137q92 -60 258 -65v-17q-23 1 -47 -2q-26 -6 -41 -29q-135 39 -207 91
q-97 -51 -225 -75l-8 14q126 41 202 86q-60 54 -112 145h-7q-24 1 -34 -13l-30 34h342l33 35z" />
  </g>

</svg>
