<?xml version="1.0" standalone="no"?>
<!DOCTYPE svg PUBLIC "-//W3C//DTD SVG 1.1//EN" "http://www.w3.org/Graphics/SVG/1.1/DTD/svg11.dtd" >
<svg xmlns="http://www.w3.org/2000/svg" xmlns:xlink="http://www.w3.org/1999/xlink" version="1.1" viewBox="0 0 2048 2048">
  <g transform="matrix(1 0 0 -1 0 2048)">
   <path fill="currentColor"
d="M499 1914l148 -58q29 -12 35 -28q5 -15 -4 -25q-10 -10 -35 -13l-59 -9l-31 -90q-12 -35 -37 -102t-36 -88l-61 -122l93 -34q25 -10 24 -30q0 -20 -20 -27l-49 -19v-1033q0 -37 1 -54q0 -16 2 -47t4 -49q2 -19 2 -27q-2 -16 -8 -22q-5 -6 -20.5 -13.5t-36.5 -7.5
q-15 -1 -23 4t-13 14t-5 28v1233l-36 -61q-15 -25 -50 -78q-36 -53 -62 -88q-27 -34 -67 -78l-47 -52l-26 26l50 72q29 41 45 66q16 26 57 102l64 120q23 44 52 113l54 136q25 67 40 114q14 47 29 102t19 79zM874 1689l-39 85q27 -4 55 -8q27 -3 39 -4t44 -3t50 -2h602
l68 76l84 -54q20 -13 30 -25q10 -11 10 -24q-1 -14 -11 -24q-10 -11 -28 -20q-17 -8 -18 -8l-21 -9l-36 -679h23l99 91l105 -95q14 -14 18 -19t4 -17q1 -11 -4 -16q-6 -4 -29 -4h-220l-42 -748h70l99 102l121 -107q10 -10 14 -15q4 -6 1 -18q-4 -11 -12 -15q-7 -4 -14 -4
l-1066 -1q-31 -1 -71 -3l-27 -2q-24 -2 -26 -2l-25 -4l-39 86q27 -4 54 -7q28 -4 39 -5t45 -3q33 -2 50 -2h102l69 748l-95 1q-30 0 -64 -3l-46 -3q-14 -1 -15 -1l-24 -3l-39 85q26 -4 53 -8l45 -5q17 -2 28 -2h70h92l64 708h-87q-30 0 -71 -3l-27 -2q-24 -2 -26 -2z
M1066 182h493l40 749h-463zM1142 991h461l42 708h-439z" />
  </g>

</svg>
