<?xml version="1.0" standalone="no"?>
<!DOCTYPE svg PUBLIC "-//W3C//DTD SVG 1.1//EN" "http://www.w3.org/Graphics/SVG/1.1/DTD/svg11.dtd" >
<svg xmlns="http://www.w3.org/2000/svg" xmlns:xlink="http://www.w3.org/1999/xlink" version="1.1" viewBox="0 -144 1024 1024">
  <g transform="matrix(1 0 0 -1 0 880)">
   <path fill="currentColor"
d="M326 677l-3 10l-4 11l-7 13l-10 14l-25 29l-29 29v-703l-64 -32v941l64 -11l16 -11l-16 -9v-155l27 -13l21 -11l19 -12l17 -13l15 -12l14 -13l11 -14l10 -14l8 -16l-4 -24l-20 -15l-24 3l-15 19zM635 532l64 -10l16 -11l-16 -10v-77h160l32 27l59 -49l-27 -21v-179h-64
v200h-160v-320l-64 -32v352h-152v-270l-65 -32v356l65 -32h152v108zM923 202v-14l-2 -14l-5 -13l-7 -11l-8 -11l-11 -9l-12 -7l-13 -4l-14 -3h-14v32l-53 16v16h53l7 1h5l3 1l2 1l1 1l2 3l1 3l1 5v7h64zM410 561l-1 1zM36 583l41 -50l-24 -7l-21 12l-7 24zM77 533l-12 14
l-4 6l-3 3l-1 1l-1 2l-1 1l-3 4l-4 4v1l-1 1l-10 12l-1 1l7 4l7 7l8 11l9 14l9 19l8 21l8 24l15 58l8 33h9l1 -35v-32l-2 -30l-2 -27l-3 -25l-6 -22l-6 -21l-7 -18l-10 -17zM647 899l-38 -4l-41 -2l-41 -2h-42h-11v-117h184l-2 14l-7 63zM419 538v-1v1zM431 504l-32 56l10 4
l1 1v375l62 -31l132 27l77 17l77 19l69 19l5 1l2 -6l54 -46l2 -16l-23 10l-19 -4l-78 -15l-40 -6l-18 -3l1 -51l6 -57l5 -24h127l54 53l64 -53v-22h-240l16 -49l20 -37l24 -32l30 -26l36 -21l42 -17l16 -4l29 127h11l-10 -133l4 -1l21 -14l6 -23l-14 -21l-23 -6l-59 14
l-52 20l-46 27l-38 34l-31 41l-25 46l-19 53l-4 22h-189v-171l47 10l94 17l35 5l38 4l3 -9l-129 -51l-76 -29l-34 -14l-5 -21z" />
  </g>

</svg>
