<?xml version="1.0" standalone="no"?>
<!DOCTYPE svg PUBLIC "-//W3C//DTD SVG 1.1//EN" "http://www.w3.org/Graphics/SVG/1.1/DTD/svg11.dtd" >
<svg xmlns="http://www.w3.org/2000/svg" xmlns:xlink="http://www.w3.org/1999/xlink" version="1.1" viewBox="0 -36 256 256">
  <g transform="matrix(1 0 0 -1 0 220)">
   <path fill="currentColor"
d="M67 16l-16 -7q1 46 1 117q-12 -35 -42 -67l-3 3q35 50 43 114h-17l-11 -3l-10 10h40q0 29 -1 63l25 -10l-10 -7v-46h10l10 11l18 -18h-38v-27q16 -10 24.5 -18t2.5 -20t-11 2t-16 30q0 -107 1 -127zM78 18q27 51 25 117v42q0 21 -1 42l17 -8h48q-1 12 -16 33l2 2
q17 -8 25.5 -17.5t-4.5 -17.5h42l10 11l18 -18h-127v-69q-2 -79 -36 -119zM140 109h32v28h-32v-28zM185 109h34v28h-34v-28zM140 73h32v29h-32v-29zM185 73h34v29h-34v-29zM212.5 27.5q5.5 -0.5 6.5 7.5v31h-34v-38l-13 -5v43h-32v-49l-14 -6q1 29 1 74.5t-1 67.5l14 -9h36
q-2 15 -20 28l3 3q13 -3 26 -14l21 22h-46q-13 0 -22 -3l-10 10h81l7 7l17 -16q-15 0 -44 -24q3 -7 -3 -13h31l7 9l15 -11l-7 -6v-102q1 -19 -19 -25q-1 12 -19 16v4q13 -1 18.5 -1.5z" />
  </g>

</svg>
