<?xml version="1.0" standalone="no"?>
<!DOCTYPE svg PUBLIC "-//W3C//DTD SVG 1.1//EN" "http://www.w3.org/Graphics/SVG/1.1/DTD/svg11.dtd" >
<svg xmlns="http://www.w3.org/2000/svg" xmlns:xlink="http://www.w3.org/1999/xlink" version="1.1" viewBox="0 -205 1024 1024">
  <g transform="matrix(1 0 0 -1 0 819)">
   <path fill="currentColor"
d="M351 719h295q0 27 1 55v50h-296v-105zM351 688q-1 -20 -5 -26q-35 -17 -41 -18q-8 1 -7 20q4 41 5 73v60q-1 36 -5 82q-2 12 2 13q3 1 10 -6q12 -13 36 -31h274q12 0 19 7l25 26q5 7 14 1q31 -23 53 -42q7 -8 -2 -9q-17 -3 -26 -12q-8 -9 -8 -19v-44q1 -28 8 -87
q0 -13 -10 -19q-45 -16 -49 -15q-4 2 -3 18q3 12 4 28h-294zM464 367v27h-101q-42 -1 -73 -7q-8 -3 -11 6q-4 18 -19 30q-7 7 -4 11q4 3 11 -1q38 -8 84 -8h53q-17 44 -38 69q-7 8 -1 15q6 8 19 1q58 -25 58 -55q-2 -19 -13 -30h90q2 4 6 8q17 19 38 88q2 6 6 7h2q2 0 9 -4
q28 -19 46 -33q11 -10 8 -14q-3 -5 -9 -4q-21 -4 -39 -14q-16 -16 -30 -34h68q6 0 12 7l36 31q7 7 14 0q26 -21 44 -38q11 -14 4 -24q-5 -6 -18 -7h-204v-75h176q6 0 12 7l36 31q7 7 14 0q26 -22 44 -38q11 -14 4 -24q-5 -6 -18 -7h-268q1 -46 4 -78q-1 -9 -46 -29
q-14 -9 -13 12q4 51 5 95h-159q-42 -1 -73 -7q-8 -3 -11 6q-4 18 -19 30q-7 7 -4 11q4 3 11 -1q38 -8 84 -8h172q1 26 1 48zM151 138q0 -30 1 -57q-1 -15 -38 -40q-8 -4 -12 -4q-6 1 -5 20q4 100 7 206v624q-1 32 -7 78q-2 10 1 11q1 0 40 -31h675q12 0 19 7l25 26q5 7 14 1
q31 -23 53 -42q7 -8 -2 -9q-17 -3 -26 -12q-8 -9 -8 -19v-644q1 -68 8 -167q0 -13 -10 -19q-45 -26 -49 -25q-4 2 -3 18q3 32 4 78h-687zM151 169h688q0 27 1 55v690h-688v-651q-1 -51 -1 -94zM673 595q10 5 19 15l21 17q7 9 16 0q31 -18 61 -39q10 -10 9 -19q-2 -8 -15 -9
h-210q77 -31 131 -51q58 -18 97 -23q5 -2 12 -3q6 -1 5 -8q-2 -9 -15 -10q-18 -4 -31 -14q-8 -4 -14 -14q-5 -5 -12 2q-88 52 -178 106q-11 9 -17 15h-110q-132 -86 -235 -122q-22 -9 -29 1q-7 12 3 21q98 35 210 100h-124q-27 0 -61 -7q-5 -1 -6 2q-13 20 -23 36q-6 10 7 7
q61 -6 68 -7h160q27 27 33 75q0 11 3 12q4 2 8 -1q29 -12 69 -31q8 -3 7 -9q0 -5 -6 -6q-33 -13 -36 -17q-3 -3 -27 -23h194q12 0 16 4z" />
  </g>

</svg>
