<?xml version="1.0" standalone="no"?>
<!DOCTYPE svg PUBLIC "-//W3C//DTD SVG 1.1//EN" "http://www.w3.org/Graphics/SVG/1.1/DTD/svg11.dtd" >
<svg xmlns="http://www.w3.org/2000/svg" xmlns:xlink="http://www.w3.org/1999/xlink" version="1.1" viewBox="0 -36 256 256">
  <g transform="matrix(1 0 0 -1 0 220)">
   <path fill="currentColor"
d="M45 39h57v33h-57v-33zM81.5 230q7.5 -9 -1 -19t-10 2.5t-15.5 30.5l3 3q16 -8 23.5 -17zM64 171q7 -11 -2.5 -19.5t-10.5 5.5t-14 33l4 3q16 -11 23 -22zM107 204l10 12l16 -19h-88q-11 1 -20 -3l-9 10h91zM87 145h23l10 11l15 -18h-98q-10 0 -19 -2l-9 9h72q12 31 16 52
l22 -13l-11 -4q-14 -26 -21 -35zM116 30l-14 -9v11h-57v-13l-14 -7q1 26 1 62t-1 54l14 -9h56l7 10l15 -12l-8 -7q0 -59 1 -80zM45 79h57v33h-57v-33zM158 167q9 -49 21 -78q16 37 22 90h-39zM181 236l-7 -4q-5 -26 -10 -46h52l10 14l14 -21h-25q-5 -57 -29 -104
q31 -38 58 -47v-4q-14 0 -19 -9q-27 20 -46 49q-25 -37 -74 -57l-3 5q50 27 70 65q-15 43 -18 77q-6 -19 -25 -43l-4 3q27 55 36 132z" />
  </g>

</svg>
