<?xml version="1.0" standalone="no"?>
<!DOCTYPE svg PUBLIC "-//W3C//DTD SVG 1.1//EN" "http://www.w3.org/Graphics/SVG/1.1/DTD/svg11.dtd" >
<svg xmlns="http://www.w3.org/2000/svg" xmlns:xlink="http://www.w3.org/1999/xlink" version="1.1" viewBox="0 -205 1024 1024">
  <g transform="matrix(1 0 0 -1 0 819)">
   <path fill="currentColor"
d="M466 930l62 -42h270l30 40l50 -40q11 -6 16 -14q0 -3 -36 -30v-733h52l34 41l56 -49q6 -2 6 -8q0 -12 -14 -12h-586q-30 1 -54 -8l-18 36h132v819v0v0zM518 111h288v243h-288v-243v0v0zM518 380h288v222h-288v-222v0v0zM518 626h288v234h-288v-234v0v0zM30 748h180v228
l66 -30q22 -8 12 -22l-28 -14v-162h80l30 40l50 -48q3 -3 4 -8q0 -12 -14 -12h-150v-96q71 -37 98 -62q27 -23 34 -46q7 -22 0 -40q-8 -19 -28 -20q-18 0 -24 24q-4 24 -22 54q-16 30 -58 66v-426l4 -107q0 -14 -20 -26q-18 -12 -38 -12l4 147v360q-31 -84 -76 -164
q-44 -79 -94 -136l-10 10q38 63 68 126q30 62 60 152q31 90 50 196h-110q-6 0 -48 -8l-20 36v0v0z" />
  </g>

</svg>
