<?xml version="1.0" standalone="no"?>
<!DOCTYPE svg PUBLIC "-//W3C//DTD SVG 1.1//EN" "http://www.w3.org/Graphics/SVG/1.1/DTD/svg11.dtd" >
<svg xmlns="http://www.w3.org/2000/svg" xmlns:xlink="http://www.w3.org/1999/xlink" version="1.1" viewBox="0 -120 1000 1000">
  <g transform="matrix(1 0 0 -1 0 880)">
   <path fill="currentColor"
d="M438 267q76 55 118 92v36l26 -12q41 36 105 102h-232l-17 28h188v110h-113l-17 27h130v106l69 -13q15 -3 15 -12q0 -10 -13 -14l-14 -5v-62h24l31 34l54 -36v-25h-109v-110h32q50 53 162 204l52 -40q8 -7 8 -16q0 -10 -10 -9q-3 0 -9 1l-13 3q-47 -61 -123 -143h61l37 43
l75 -49v-22h-202l-15 -14q74 -18 74 -56q0 -13 -10 -21q-9 -7 -21 -7q-15 0 -23 8q-3 3 -14 34q-5 14 -21 27q-49 -48 -97 -85h190l24 33l60 -39q11 -8 11 -13q0 -7 -9 -11l-22 -9v-264l-57 -9v37h-213v-35l-55 -10v265q-59 -43 -102 -66zM610 224v-100h213v100h-213z
M610 343v-91h213v91h-213zM737 860h81l44 50l94 -56v-21h-219v-46l-59 -12v58h-145l-12 27h157v100l75 -6q20 -2 20 -12t-12 -15l-24 -11v-56zM49 860h204v102l79 -7q18 -1 18 -13q0 -6 -15 -14l-20 -11v-57h60l44 49l75 -56v-20h-179v-57l-62 -8v65h-192zM125 380l-3 -14
q-3 -10 -12 -10q-8 0 -14 12l-31 61l117 5q83 81 201 246l54 -46q7 -6 7 -14q0 -10 -10 -9h-2l-13 3q-28 -24 -102 -94q-14 -14 -95 -84l154 7q-11 24 -39 56l5 11q44 -24 71 -43q41 -30 41 -71q0 -32 -27 -32q-23 0 -38 52l-78 -13v-330l-61 -10v333zM76 110q44 100 59 227
l71 -20q13 -4 13 -13q0 -7 -10 -12l-15 -7q-44 -100 -103 -184zM192 580q31 -25 31 -57q0 -31 -24 -31q-10 0 -18 7q-4 4 -31 54q-20 37 -51 61l7 11q22 -8 69 -32l93 151l54 -42q10 -7 10 -14q0 -8 -14 -8h-20zM341 335q97 -73 97 -130q0 -17 -11 -28q-7 -7 -19 -7t-18 6
q-4 4 -17 57q-9 38 -43 90z" />
  </g>

</svg>
