<?xml version="1.0" standalone="no"?>
<!DOCTYPE svg PUBLIC "-//W3C//DTD SVG 1.1//EN" "http://www.w3.org/Graphics/SVG/1.1/DTD/svg11.dtd" >
<svg xmlns="http://www.w3.org/2000/svg" xmlns:xlink="http://www.w3.org/1999/xlink" version="1.1" viewBox="0 -205 1048 1024">
  <g transform="matrix(1 0 0 -1 0 819)">
   <path fill="currentColor"
d="M419 386h82q3 32 6 54q4 34 4 60h-58q-14 -26 -32 -53q-18 -25 -39 -51l-7 9l2 5q31 60 45 95q24 58 40 120l34 -14q24 -10 23 -18q-1 -9 -27 -9q-6 -14 -14 -33q-6 -13 -16 -34h125l33 32l37 -29q13 -8 8 -14q-3 -6 -17 -6h-81q12 -4 8 -10q-3 -6 -23 -10q-2 -14 -5 -34
q-1 -11 -4 -34l-4 -26h48l34 32l42 -31q10 -8 6 -14q-4 -5 -17 -5h-114l-15 -61l16 -7q36 -18 52 -28q23 -17 34 -39q9 -16 -5 -32q-14 -15 -25 7q-14 25 -30 42q-16 19 -45 42q-23 -67 -62 -119q-44 -58 -114 -108l-5 6q65 62 101 125q39 71 57 172h-65l-60 -4l-12 22h59z
M467 805h108l32 36l36 -30q10 -11 10 -16q-1 -6 -15 -6h-171v-78q0 -12 5 -17q8 -5 29 -8q12 -1 49 0q37 0 55 2q8 2 19 4q5 1 15 4q14 5 21 5q10 -1 16 -10q12 -20 3 -27t-54 -11q-45 -3 -84 -3q-53 0 -87 6q-16 3 -21 16q-3 12 -3 37v196v45l42 -14q26 -8 26 -13
q-1 -6 -31 -15v-103zM715 611h189l25 27l41 -33q18 -15 17 -22q-3 -9 -39 -9l-66 -64l-10 2l38 84h-75q14 -3 14 -11q0 -7 -16 -11v-188h77l32 37l35 -32q10 -10 10 -15q0 -6 -15 -6h-143v-188q40 -23 85 -37q40 -13 83 -18l7 -14q-24 -4 -38 -18q-14 -11 -15 -24
q-75 33 -142 88q-68 58 -114 131q-23 -71 -64 -125q-47 -62 -120 -110l-6 6q88 73 131 167q53 115 60 292l43 -10l7 -4q18 -11 18 -14q0 -6 -27 -12l-1 -5q-9 -55 -14 -83q-9 -46 -21 -82q23 -33 43 -55q23 -27 48 -44v385h-58h-81l-9 20zM767 900h110l28 24l33 -30
q21 -18 19 -25q-2 -9 -37 -7l-101 -111q17 -18 25 -37q9 -20 10 -40q2 -23 -16 -30q-17 -6 -23 19q-8 28 -23 55q-24 39 -68 81l9 12q23 -13 40 -24q19 -12 32 -24l77 121h-107l-70 -1l-14 22zM327 475h-36q-28 0 -38 11q-9 9 -8 32v176h-46q-1 -111 -33 -183
q-24 -53 -58 -92v-234h219v290zM327 694h-47v-171v-2q0 -9 1 -10q2 -3 11 -4h35v187zM108 694v-255q25 44 40 97q18 62 18 158h-58zM396 916q15 -13 10 -19q-5 -5 -22 -6h-88q12 -14 4 -18q-3 -3 -20 -3v-160h36l29 30l32 -28q18 -17 12 -24q-5 -4 -21 -4v-510v-23
q1 -23 -2 -28q-4 -6 -21 -13q-14 -8 -18 4q-2 9 -2 51l1 4h-218v-37v-8q0 -16 -4 -22q-5 -9 -19 -14q-10 -5 -13 4q-2 5 -2 20l1 13v552l-3 69l45 -36h53v181h-58l-55 -2l-6 23l52 -5h222l36 39zM246 891h-28q9 -11 1 -17q-5 -5 -20 -7v-157h47v181zM233 340l34 42l42 -38
q10 -9 5 -15q-4 -5 -17 -5h-128l-50 -2l-2 22l52 -4h64z" />
  </g>

</svg>
