<?xml version="1.0" standalone="no"?>
<!DOCTYPE svg PUBLIC "-//W3C//DTD SVG 1.1//EN" "http://www.w3.org/Graphics/SVG/1.1/DTD/svg11.dtd" >
<svg xmlns="http://www.w3.org/2000/svg" xmlns:xlink="http://www.w3.org/1999/xlink" version="1.1" viewBox="0 -36 256 256">
  <g transform="matrix(1 0 0 -1 0 220)">
   <path fill="currentColor"
d="M231 19l-16 -9v21h-171l-9 -12l-14 15l7 6v107q0 33 -1 60l27 -9l-10 -8v-152h171v100q0 32 -1 67l25 -9l-9 -8v-140q0 -14 1 -29zM133 159q13 18 25.5 40t18.5 37l19 -19l-10 -5q-25 -42 -42 -63q42 -44 47.5 -57.5t-1.5 -22t-13 6t-18.5 32.5t-23.5 30q-18 -22 -37 -38
t-48 -32l-2 4q29 22 45.5 38t32.5 38q-27 32 -53 61l3 2q26 -21 57 -52zM110 242q27 -14 29.5 -22.5t-3.5 -15t-10 6t-18 28.5zM112 100q29 -12 31.5 -22t-4.5 -17t-11 7t-18 30zM58 170q27 -12 29.5 -21t-3 -15.5t-10.5 6t-18 28.5zM173 162q27 -13 29 -22t-3 -15t-10 7
t-19 27z" />
  </g>

</svg>
