<?xml version="1.0" standalone="no"?>
<!DOCTYPE svg PUBLIC "-//W3C//DTD SVG 1.1//EN" "http://www.w3.org/Graphics/SVG/1.1/DTD/svg11.dtd" >
<svg xmlns="http://www.w3.org/2000/svg" xmlns:xlink="http://www.w3.org/1999/xlink" version="1.1" viewBox="0 -205 1024 1024">
  <g transform="matrix(1 0 0 -1 0 819)">
   <path fill="currentColor"
d="M654 984l78 -32l4 -8q0 -3 -6 -6l-28 -14v-148h176v144l76 -32q7 -1 6 -10q0 -3 -32 -18v-64l4 -58q0 -15 -24 -26q-21 -9 -30 -8v46h-378l-32 -40l-54 42q19 14 20 32v142l76 -28q6 -6 4 -8q0 -7 -32 -22v-92h172v208v0v0zM984 113h-480v-46q1 -18 -16 -30
q-18 -12 -36 -12l4 110v369q-27 -40 -68 -80l-14 10q36 56 82 140q43 83 68 148l66 -32q6 -6 4 -8q1 -6 -10 -8q-12 -3 -24 -14q-13 -11 -52 -76h360l36 50q60 -57 64 -66q4 -7 -10 -10h-226v-120h118l32 46l58 -56q9 -13 -6 -16h-202v-116h108l36 42l52 -50q15 -12 -2 -18
h-194v-130h156l38 46l58 -55q10 -12 0 -18v0v0zM504 140h178v130h-178v-130v0v0zM682 296v116h-178v-116h178v0v0zM682 438v120h-178v-120h178v0v0zM634 716l8 12q56 -28 80 -44q21 -14 28 -34q6 -20 -2 -34q-8 -15 -22 -18q-13 -3 -22 4q-9 6 -12 22q-1 12 -10 34
q-9 18 -48 58v0v0zM294 910q10 -10 -4 -16q-21 -7 -30 -14q-9 -6 -60 -90t-96 -146h146q47 72 76 142l70 -52q0 -9 -14 -12q-15 -6 -30 -20t-74 -100q-60 -84 -144 -192l172 12q-26 56 -46 82l10 12q48 -33 76 -66q24 -30 28 -60q3 -28 -8 -40q-10 -12 -22 -12q-9 -1 -18 8
q-6 8 -6 20q0 10 -8 32q-67 -9 -130 -24t-96 -42l-36 78q23 1 58 14q51 60 132 196q-86 -9 -106 -14q-21 -3 -72 -30l-34 72q32 3 50 10q15 6 66 114q50 108 80 180l70 -42v0v0zM100 298h20q6 -85 4 -140q-3 -52 -20 -79q-18 -24 -36 -28q-16 -4 -28 4q-10 9 -10 24t18 38
q17 22 28 37q8 16 14 44q5 27 10 100v0v0zM176 316l16 6q54 -70 66 -112q13 -44 8 -73q-4 -30 -22 -36q-15 -7 -30 4q-15 10 -8 45t0 80q-6 44 -30 86v0v0zM276 332l16 6q56 -58 80 -94q23 -36 20 -66q-4 -30 -20 -38q-14 -5 -28 2q-15 8 -14 46q1 36 -18 76q-18 38 -36 68
v0v0z" />
  </g>

</svg>
