<?xml version="1.0" standalone="no"?>
<!DOCTYPE svg PUBLIC "-//W3C//DTD SVG 1.1//EN" "http://www.w3.org/Graphics/SVG/1.1/DTD/svg11.dtd" >
<svg xmlns="http://www.w3.org/2000/svg" xmlns:xlink="http://www.w3.org/1999/xlink" version="1.1" viewBox="0 -36 256 256">
  <g transform="matrix(1 0 0 -1 0 220)">
   <path fill="currentColor"
d="M33 104h18v74h-18v-74zM64 104h17v74h-17v-74zM51 45v52h-18v-7l-14 -7q1 22 1 54.5t-1 56.5l13 -9h19q0 44 -1 61l20 -10l-6 -9v-42h17l6 9l13 -13l-6 -6v-54q0 -20 1 -26l-14 -7v9h-17v-48l21 5q-5 10 -10 26l2 4q24 -25 25.5 -35t-6 -16.5t-10.5 14.5
q-26 -8 -44.5 -15.5t-25.5 -12.5l-8 17q9 0 43 9zM175 172h39v25h-39v-25zM139 161l20 -11q-8 -4 -20.5 -15t-35.5 -23l-1 4q30 22 37 45zM185 160q26 -10 35 -17t11 -13t-2 -13t-13.5 8.5t-31.5 31.5zM146 110h56l8 8l13 -14l-9 -6q-20 -31 -33 -44q14 -11 32 -19t35 -10
v-4q-14 1 -21 -12q-13 7 -29.5 17t-25.5 19q-37 -28 -91 -37l-1 3q54 18 82 44q-11 16 -24 46q-16 -19 -42 -30l-1 3q33 24 50 61l19 -11q-11 -7 -18 -14zM172 65q14 14 29 38h-59q16 -26 30 -38zM228 163l-14 -6v8h-89v-4l-14 -7q1 16 1 38.5t-1 50.5l15 -9h86l9 9l13 -15
l-7 -5q0 -45 1 -60zM125 204h37v23h-37v-23zM175 204h39v23h-39v-23zM125 172h37v25h-37v-25z" />
  </g>

</svg>
