<?xml version="1.0" standalone="no"?>
<!DOCTYPE svg PUBLIC "-//W3C//DTD SVG 1.1//EN" "http://www.w3.org/Graphics/SVG/1.1/DTD/svg11.dtd" >
<svg xmlns="http://www.w3.org/2000/svg" xmlns:xlink="http://www.w3.org/1999/xlink" version="1.1" viewBox="0 -36 256 256">
  <g transform="matrix(1 0 0 -1 0 220)">
   <path fill="currentColor"
d="M42 242l16 -7h56l11 10l15 -17h-83v-12h52l9 9l14 -16h-75v-10h52l8 8l14 -15h-74v-10h66l10 9l15 -16h-77l10 -7q-8 0 -17 -6t-21 -13l71 2q-7 6 -18 14l2 3q27 -8 33 -14.5t2 -14t-8 -2t-8 10.5q-20 -3 -48 -7t-35 -7l-11 15q11 2 21 10.5t16 15.5h-20q-10 0 -20 -2
l-10 9h33q0 40 -1 60zM229 231q-9 1 -33.5 -10t-56.5 -21l-2 5q26 9 48.5 22.5t27.5 19.5zM238 199q-4 2 -32 -10t-59 -19l-1 4q29 11 49.5 22t27.5 19zM246 165q-10 1 -37 -8.5t-70 -18.5l-1 6q40 9 65 19.5t28 17.5zM85 129q-9 -12 -15 -19l12 -5l-8 -6v-84l-15 -7
q1 20 1 38v52q-18 -19 -45 -36l-2 4q22 17 38.5 40.5t21.5 38.5l21 -12zM185 143l22 -9l-7 -7v-21h19l12 12l16 -19h-47v-61q0 -20 -21 -29q0 9 -7.5 13t-25.5 9v4q24 -3 32 -3t8 5v62h-64q-11 0 -21 -3l-9 10h94v10q0 11 -1 27zM144.5 70q3.5 -7 -1.5 -15t-10 4.5t-20 26.5
l2 3q26 -12 29.5 -19z" />
  </g>

</svg>
