<?xml version="1.0" standalone="no"?>
<!DOCTYPE svg PUBLIC "-//W3C//DTD SVG 1.1//EN" "http://www.w3.org/Graphics/SVG/1.1/DTD/svg11.dtd" >
<svg xmlns="http://www.w3.org/2000/svg" xmlns:xlink="http://www.w3.org/1999/xlink" version="1.1" viewBox="0 -205 1024 1024">
  <g transform="matrix(1 0 0 -1 0 819)">
   <path fill="currentColor"
d="M900 952l66 -60q3 -2 4 -10q0 -6 -14 -6h-156v-292h84l40 50l66 -60q12 -12 -2 -20h-188v-441q4 -41 -24 -62q-27 -18 -62 -28q-9 36 -42 50q-31 15 -82 30l4 18q78 -15 100 -18q21 -3 40 2q17 5 14 43v406h-6q-63 -160 -176 -284t-232 -181l-10 16q121 80 212 195
q92 112 146 254h-170l-34 -32l-54 58q25 10 44 26q27 81 54 190l72 -36q6 0 6 -12q-3 -6 -14 -6q-22 -9 -28 -20q-21 -66 -44 -138h234v292h-242q-26 1 -58 -10l-18 38h430l40 48v0v0zM34 742h190v244l80 -34q21 -7 -2 -20l-28 -12v-178h68l34 50l58 -58q3 -4 4 -8
q0 -12 -14 -12h-150v-108q65 -34 94 -56t38 -46q9 -21 0 -42q-9 -19 -26 -16q-15 1 -24 26q-6 25 -24 50q-19 25 -58 62v-394l4 -107q-1 -15 -22 -30q-18 -11 -36 -14l4 147v380q-28 -76 -82 -164q-54 -86 -110 -142l-12 10q51 72 90 148q36 75 66 150q29 73 46 146h-116
q-22 0 -52 -8l-20 36v0v0z" />
  </g>

</svg>
