<?xml version="1.0" standalone="no"?>
<!DOCTYPE svg PUBLIC "-//W3C//DTD SVG 1.1//EN" "http://www.w3.org/Graphics/SVG/1.1/DTD/svg11.dtd" >
<svg xmlns="http://www.w3.org/2000/svg" xmlns:xlink="http://www.w3.org/1999/xlink" version="1.1" viewBox="0 -36 256 256">
  <g transform="matrix(1 0 0 -1 0 220)">
   <path fill="currentColor"
d="M120 178h40v28h-40v-28zM172 178h45v28h-45v-28zM117 114h43v27h-43v-27zM172 114h48v27h-48v-27zM230 169l-13 -5v7h-45v-23h47l8 9l13 -14l-8 -4v-37l-12 -6v11h-48q0 -5 1 -14l-14 -5q1 14 1 19h-43v-11l-13 -5q1 16 1 34t-1 31l14 -8h42v23h-40v-3l-13 -5
q1 15 1 29.5t-1 27.5l15 -7h38q0 17 -1 33l21 -11l-8 -6v-16h43l9 8l13 -13l-8 -5q0 -24 1 -34zM107 31.5q-8 -8.5 -15.5 -3.5t4 15.5t14.5 30.5h4q1 -34 -7 -42.5zM128 80l23 -10l-8 -7v-23q-1 -12 6 -12h49q10 -1 12 8.5t2 22.5h3q2 -25 13 -28q-11 -16 -30 -15h-46
q-22 0 -23 19q0 27 -1 45zM215 78q23 -9 29 -18.5t0 -18t-11.5 7t-18.5 25.5zM183 66.5q4 -9.5 -2.5 -16.5t-9.5 5t-16 27l2 3q22 -9 26 -18.5zM64 203q17 20 25 41l18 -15l-10 -5q-15 -19 -27 -32q16 -35 16.5 -88t-9 -72t-27.5 -25q-2 14 -29 21v5q25 -4 35.5 -1.5
t14.5 27t1 75.5q-24 -42 -65 -69l-2 5q38 35 62 85q-3 18 -7 29q-20 -21 -49 -36l-2 6q26 18 45 40q-11 19 -36 38l2 3q28 -13 44 -32z" />
  </g>

</svg>
