<?xml version="1.0" standalone="no"?>
<!DOCTYPE svg PUBLIC "-//W3C//DTD SVG 1.1//EN" "http://www.w3.org/Graphics/SVG/1.1/DTD/svg11.dtd" >
<svg xmlns="http://www.w3.org/2000/svg" xmlns:xlink="http://www.w3.org/1999/xlink" version="1.1" viewBox="0 -36 256 256">
  <g transform="matrix(1 0 0 -1 0 220)">
   <path fill="currentColor"
d="M152 190l1 9v10h-53v-8l1 -7l-16 -6l1 10v11h-46q-13 0 -22 -3l-10 10h78v12q0 8 -1 18l24 -10l-9 -7v-13h53v14q0 6 -1 18l24 -11l-9 -7v-14h49l13 15l19 -22h-81v-7l1 -6zM218 177l8 11l22 -17q-17 -1 -39 -23l-4 1l14 21h-179q-1 -15 -10 -21t-15 -0.5t1 11t11.5 12
t6.5 19.5h6v-14h84q0 13 -17 27l2 2q28 -9 31.5 -15.5t-5.5 -13.5h83zM135 54h63v21h-63v-21zM223 89q-32 3 -56.5 10t-38.5 15q-20 -6 -40.5 -11.5t-78.5 -12.5v5q58 8 107 26q-12 7 -24.5 15.5t-16.5 11.5h-9l-8 -2l-10 9h127l10 7l14 -14l-10 -3q-29 -18 -46 -25
q25 -8 53.5 -12t49.5 -4v-5q-23 -2 -23 -10zM131 127q13 6 23.5 12.5t15.5 8.5h-85q32 -18 46 -21zM214 48l-16 -4v3h-63v-17l65 2l-22 11l3 3q35 -9 45 -16.5t7.5 -13t-7.5 -6.5t-8.5 4.5t-12.5 12.5q-97 -9 -119 -10.5t-46 -5.5l-13 16q21 0 93 3v17h-57v-1l-17 -4
q1 12 1 22.5t-1 22.5l23 -5h51q0 12 -1 24l27 -7l-11 -5v-12h61l7 7l19 -10l-9 -4q0 -17 1 -27zM63 54h57v21h-57v-21zM210 124q-14 -10 -30 -18l-4 2q18 19 24 30l20 -13zM36 135l3 3q41 -12 31.5 -24t-15 0t-19.5 21z" />
  </g>

</svg>
