<?xml version="1.0" standalone="no"?>
<!DOCTYPE svg PUBLIC "-//W3C//DTD SVG 1.1//EN" "http://www.w3.org/Graphics/SVG/1.1/DTD/svg11.dtd" >
<svg xmlns="http://www.w3.org/2000/svg" xmlns:xlink="http://www.w3.org/1999/xlink" version="1.1" viewBox="0 -36 256 256">
  <g transform="matrix(1 0 0 -1 0 220)">
   <path fill="currentColor"
d="M36 199q0 27 -1 43l15 -10h46l7 11l15 -12l-8 -8v-23q0 -24 1 -42l-14 -8v9h-48v-5l-14 -6q1 24 1 51zM132 30.5q28 -1.5 57 -0.5t58 5v-5q-18 -6 -16 -15q-62 -2 -94.5 0.5t-55 13t-41.5 38.5q-7 -34 -28 -56l-3 3q11 19 17 46t6 54l21 -10q-9 -2 -10 -28q12 -17 27 -28
v78h-26q-10 0 -19 -2l-9 9h93l11 11l13 -18h-50v-37h19l11 12l15 -19h-45v-40q21 -10 49 -11.5zM49 198h48v26h-48v-26zM49 166h48v25h-48v-25zM165 246l21 -11l-7 -4v-35h32l11 12l16 -19h-59v-37h19l7 10l16 -14l-9 -5q-10 -33 -31 -59q28 -26 60 -30l-1 -3
q-20 -1 -23 -12q-23 12 -45 35q-35 -27 -70 -35l-2 5q38 15 63 40q-18 32 -22 63l-8 -2l-6 7h39v37h-21q-10 0 -19 -2l-9 9h49q0 23 -1 50zM172 94q18 24 26 51h-50q4 -26 24 -51z" />
  </g>

</svg>
