<?xml version="1.0" standalone="no"?>
<!DOCTYPE svg PUBLIC "-//W3C//DTD SVG 1.1//EN" "http://www.w3.org/Graphics/SVG/1.1/DTD/svg11.dtd" >
<svg xmlns="http://www.w3.org/2000/svg" xmlns:xlink="http://www.w3.org/1999/xlink" version="1.1" viewBox="0 -120 1000 1000">
  <g transform="matrix(1 0 0 -1 0 880)">
   <path fill="currentColor"
d="M352 93q39 98 39 267q0 6 -1 43v11l60 -22q18 -6 18 -13q0 -6 -10 -12l-8 -6q-4 -37 -5 -49q-8 -139 -76 -228zM423 463l-10 -19q-4 -9 -13 -9q-10 0 -13 17l-16 72h61q64 120 123 277q5 15 14 36l61 -52q16 -13 16 -23t-21 -10h-15q-49 -76 -85 -134q-39 -65 -59 -94
l108 4q-8 47 -27 87l15 10q80 -72 80 -155q0 -41 -35 -41q-14 0 -21 15q-2 4 -5 38q-1 15 -2 24l-42 -13v-429l-61 -15v428zM382 804q6 -4 20 -13q15 -10 32 -23q18 58 38 147l7 31l4 17l62 -47q20 -15 20 -25t-20 -10h-13l-78 -133q34 -38 34 -79q0 -24 -14 -34
q-7 -4 -13 -4q-10 0 -16 7q-9 8 -22 51q-22 68 -52 103zM569 416l4 -6q30 -49 44 -81q23 -54 23 -111q0 -55 -36 -55q-26 0 -26 43q0 108 -29 200zM657 49v849l63 -37h145l23 35l36 -24q33 -22 33 -31t-15 -15l-13 -4v-743l-59 -20v67h-155v-62zM715 498v-344h46v344h-46z
M715 834v-308h46v308h-46zM818 498v-344h52v344h-52zM818 526h52v308h-52v-308zM39 568q79 156 131 385l79 -28q11 -4 11 -15q0 -9 -14 -12l-23 -6l-24 -65h69l19 26l62 -36q13 -8 13 -14q0 -8 -14 -13l-26 -10l-72 -104h43l22 32l50 -38q10 -7 10 -15q0 -7 -12 -11l-14 -5
v-327l-56 -12v31h-149v-42l-56 -11v328l-39 -49zM186 799q-13 -34 -52 -116l13 -7h73q22 59 43 123h-77zM144 487v-129h49v129h-49zM144 650v-136h49v136h-49zM245 487v-129h48v129h-48zM245 650v-136h48v136h-48zM107 249q17 -60 17 -117q0 -75 -45 -75q-14 0 -22 8
q-7 7 -7 16q0 6 20 54q16 52 22 113zM165 256q45 -68 45 -132q0 -22 -9 -37q-11 -18 -28 -18q-11 0 -18 11q-4 7 -4 15q0 10 7 45q4 18 4 40q0 30 -9 74zM227 274q67 -74 67 -126q0 -22 -13 -35q-9 -8 -19 -8q-13 0 -18 9q-4 8 -4 31q0 26 -2 42q-3 25 -23 83zM283 290
q29 -15 49 -36q31 -32 31 -65q0 -15 -10 -23q-6 -6 -15 -6q-13 0 -18 11q-1 3 -9 33q-9 35 -37 79z" />
  </g>

</svg>
