<?xml version="1.0" standalone="no"?>
<!DOCTYPE svg PUBLIC "-//W3C//DTD SVG 1.1//EN" "http://www.w3.org/Graphics/SVG/1.1/DTD/svg11.dtd" >
<svg xmlns="http://www.w3.org/2000/svg" xmlns:xlink="http://www.w3.org/1999/xlink" version="1.1" viewBox="0 -36 256 256">
  <g transform="matrix(1 0 0 -1 0 220)">
   <path fill="currentColor"
d="M160 190h36l10 11l18 -18h-65q-3 -11 -6 -21h63l10 11l18 -18h-70q33 -32 74 -36v-2q-12 -6 -16 -15q-23 9 -40.5 25.5t-24.5 27.5h-16q-13 -21 -28 -32t-27.5 -18t-27.5 -12l-1 3q27 15 43.5 29.5t25.5 29.5h-20q-13 0 -22 -3l-10 10h55q4 10 6 21h-13q-13 0 -22 -3
l-10 10h46q2 10 3 19h-28q-17 0 -26 -3l-10 10h65q1 18 1 31l21 -10l-6 -4l-2 -17h44l10 11l18 -18h-73q-1 -8 -3 -19zM219 17l-14 -6v11h-90v-9l-14 -5q1 24 1 55t-1 45l14 -6q21 10 32 23l12 -16q-17 -4 -44 -12v-29h15l10 11l15 -18h-40v-32h90v32h-9q-13 0 -22 -3
l-10 10h41v27h-14q-13 0 -22 -3l-10 10h44l9 9l12 -13l-6 -5q0 -57 1 -76zM33.5 138.5q-3.5 -11.5 -12 -14t-10.5 2.5t7 16t14 43h4q1 -36 -2.5 -47.5zM46 245l22 -13l-8 -9v-170q0 -22 1 -36l-15 -10q1 36 1 58v126q0 29 -1 54zM83.5 177.5q5.5 -7.5 3.5 -14.5t-7.5 -9.5
t-7 10.5t-9.5 32l3 2q12 -13 17.5 -20.5z" />
  </g>

</svg>
