<?xml version="1.0" standalone="no"?>
<!DOCTYPE svg PUBLIC "-//W3C//DTD SVG 1.1//EN" "http://www.w3.org/Graphics/SVG/1.1/DTD/svg11.dtd" >
<svg xmlns="http://www.w3.org/2000/svg" xmlns:xlink="http://www.w3.org/1999/xlink" version="1.1" viewBox="0 -205 1024 1024">
  <g transform="matrix(1 0 0 -1 0 819)">
   <path fill="currentColor"
d="M68 834h288v138l80 -26q15 -6 0 -18l-28 -16v-78h232v134l84 -28q11 -5 2 -16l-34 -16v-74h186l44 50l62 -60q3 -3 4 -6q1 -10 -12 -10h-284v-30l4 -50q3 -15 -18 -26q-21 -12 -42 -12l4 84v34h-232v-34l4 -50q3 -15 -20 -26q-22 -12 -40 -12l4 90v32h-204q-24 0 -60 -8
l-24 34v0v0zM380 658q4 -7 -10 -14q-18 -3 -24 -8q-6 -6 -42 -50h520l32 36l54 -36q12 -6 10 -14q0 -5 -36 -28q-6 -201 -18 -306t-26 -135q-15 -30 -42 -52q-27 -20 -80 -38q-10 36 -46 54q-35 15 -94 36l6 18q107 -27 140 -28q32 0 58 24q24 21 34 125q10 102 20 318h-140
q-36 -142 -74 -214q84 -30 108 -56q24 -28 22 -46q-3 -18 -20 -24q-15 -4 -36 16t-44 38q-22 15 -52 30q-72 -114 -192 -187q-119 -72 -226 -100l-6 14q88 36 200 109q112 72 182 184q-78 26 -144 44q-39 -66 -138 -140q-97 -76 -196 -111l-6 14q93 52 172 119
q78 63 124 132q-81 21 -144 36l4 16q90 -13 154 -28q39 66 60 154h-156q-48 -64 -96 -112q-47 -47 -106 -88l-10 10q62 60 122 142q59 81 110 186l72 -40v0v0zM576 362q29 51 68 198h-146q-31 -105 -68 -164q71 -13 146 -34v0v0z" />
  </g>

</svg>
