<?xml version="1.0" standalone="no"?>
<!DOCTYPE svg PUBLIC "-//W3C//DTD SVG 1.1//EN" "http://www.w3.org/Graphics/SVG/1.1/DTD/svg11.dtd" >
<svg xmlns="http://www.w3.org/2000/svg" xmlns:xlink="http://www.w3.org/1999/xlink" version="1.1" viewBox="0 -205 1024 1024">
  <g transform="matrix(1 0 0 -1 0 819)">
   <path fill="currentColor"
d="M928 95h-426v-28q0 -17 -18 -26q-17 -9 -34 -10l4 129v358q-32 -51 -82 -116l-12 10q37 66 80 160q42 93 76 174l66 -32l6 -6q1 -7 -10 -10q-16 -9 -26 -18q-9 -6 -48 -78h316l42 52l62 -58q3 -6 4 -12q-1 -7 -10 -8h-196v-128h86l38 46l60 -58q3 -1 4 -8q-4 -6 -8 -6
h-180v-130h96l34 48l56 -54q0 -4 4 -8q-3 -12 -6 -12h-184v-145h110l34 45l62 -55q3 -4 4 -8l-4 -8v0v0zM502 121h170v145h-170v-145v0v0zM672 292v130h-170v-130h170v0v0zM672 448v128h-170v-128h170v0v0zM638 748l8 12q54 -28 76 -46q19 -17 26 -34q6 -18 0 -32
q-6 -15 -18 -20q-12 -6 -26 -2q-12 3 -14 24q-3 20 -8 40q-6 18 -44 58v0v0zM96 684l56 -38h120l32 38q60 -53 58 -58q-3 -4 -30 -22v-306l4 -76q0 -11 -14 -22q-13 -10 -40 -14v68h-134v-78q0 -12 -20 -24q-21 -12 -36 -12l4 100v444v0v0zM148 282h134v338h-134v-338v0v0z
M330 984l80 -32q6 -3 6 -8q0 -3 -36 -18v-54h236v110l82 -34q3 -5 4 -10q1 -2 -34 -22v-44h202l40 50l60 -62q3 -1 4 -8q-1 -6 -16 -6h-290v-36q-1 -16 -20 -22q-22 -6 -32 -6v64h-236v-64q-1 -16 -20 -22q-9 -6 -30 -6v92h-198q-22 -1 -70 -10l-18 36h286v112v0v0z" />
  </g>

</svg>
