<?xml version="1.0" standalone="no"?>
<!DOCTYPE svg PUBLIC "-//W3C//DTD SVG 1.1//EN" "http://www.w3.org/Graphics/SVG/1.1/DTD/svg11.dtd" >
<svg xmlns="http://www.w3.org/2000/svg" xmlns:xlink="http://www.w3.org/1999/xlink" version="1.1" viewBox="0 -52 256 256">
  <g transform="matrix(1 0 0 -1 0 204)">
   <path fill="currentColor"
d="M136 193l11 -10h50l8 11l12 -11l2 -2q0 -1 -2 -3l-5 -3v-145q0 -6 -3 -12q-3 -4 -18 -7q-1 8 -11 11t-21 5l1 4q6 -1 15 -2q14 -3 18 -3t7 2q1 2 1 16v42h-52q-5 -50 -38 -76l-3 2q19 23 25 52q7 29 7 89v27q-1 5 -7 10zM39 193l13 -11h43l8 11l12 -10q2 -1 2 -3
q0 -1 -2 -2l-5 -3v-137q0 -6 -3 -11t-18 -7q-1 7 -11 11q-10 3 -21 4l1 4q29 -4 33 -4t7 1q1 1 1 17v33h-47q-5 -52 -39 -76l-2 3q20 23 26 49t6 91v27q-1 6 -7 11zM151 134q0 -18 -2 -44h52v44h-50zM151 138h50v40h-50v-21v-19zM54 137h45v40h-45v-19v-21zM54 133
q0 -17 -2 -43h47v43h-45zM40 232v-14h186l7 8l13 -13q1 -2 -2 -1q-9 -1 -27 -23l-3 1l13 24h-187q0 -2 -1 -4q0 -4 -1 -5q-8 -27 -23 -18q-1 3 3 7q5 3 10 12q6 8 8 26h4zM105 251l1 3q27 -8 33 -19q4 -13 -5 -14q-4 0 -5 6q0 6 -7 13q-6 6 -17 11z" />
  </g>

</svg>
