<?xml version="1.0" standalone="no"?>
<!DOCTYPE svg PUBLIC "-//W3C//DTD SVG 1.1//EN" "http://www.w3.org/Graphics/SVG/1.1/DTD/svg11.dtd" >
<svg xmlns="http://www.w3.org/2000/svg" xmlns:xlink="http://www.w3.org/1999/xlink" version="1.1" viewBox="0 0 2048 2048">
  <g transform="matrix(1 0 0 -1 0 2048)">
   <path fill="currentColor"
d="M862 1914l112 -35q46 -15 63 -29q17 -13 13 -28q-3 -11 -18 -18q-16 -8 -43 -12l-46 -7l-25 -74q-11 -33 -50 -121q-38 -87 -58 -125l-33 -62l78 -33q40 -18 38 -30q-2 -13 -13 -21q-10 -8 -33 -17l-30 -12l1 -1017v-49l4 -53l2 -53q0 -9 1 -26q1 -18 -5 -30
q-5 -12 -23 -21t-46 -8q-13 0 -18 3q-5 4 -9 10q-3 7 -3 19v1235l-59 -87q-28 -42 -55 -75q-27 -34 -78 -87l-40 -42l-32 25l35 45q21 26 70 101t78 125q30 50 70 141t68 170q29 78 48 144q19 65 26 101zM250 1876l45 -21q26 -12 71 -38t82 -51q36 -24 60 -48q24 -23 41 -52
q17 -30 13 -56q-3 -27 -22 -40q-19 -14 -37 -10q-18 3 -31 18t-34 50q-20 35 -49 72q-29 36 -55 59t-71 56l-36 26zM104 1387l40 -17q21 -8 78 -37q58 -29 92 -51q34 -23 68 -54q33 -32 46 -65q12 -33 1 -58.5t-35 -30.5q-23 -6 -44 12q-12 9 -29 39t-42 63t-51 57
q-25 24 -52 44q-26 20 -73 51l-20 13zM544 880l34 -20l-30 -80q-15 -38 -76 -154l-96 -180q-35 -62 -86 -146l-46 -76l8 -44q4 -19 4 -38q-1 -19 -12 -28q-11 -10 -25 -2q-14 7 -39 40l-74 94l88 102q42 48 100 132q59 85 118 180l91 152zM1336 1898l102 -39q32 -13 50 -25
q17 -12 15 -27q-3 -18 -31 -25l-26 -3l-40 -6q-15 -16 -48 -55q-34 -40 -54 -60q-20 -21 -91 -82q-71 -60 -93 -74l-47 -31l105 6q50 3 248 21q199 17 264 24l87 9l-71 75q-31 30 -61 55l-44 36l21 31l63 -35q24 -14 81 -50t82 -56q24 -20 48 -45q23 -24 36 -46
q12 -23 12 -50q-1 -27 -20 -44q-18 -18 -43 -11t-41 36l-17 36l-17 28q-77 -12 -91 -15l-95 -19v-255q0 -30 12 -42q11 -12 33 -20q22 -7 52 -7q11 -1 32 1l65 4q26 1 38 4l27 6q18 2 31 -3t30 -21q16 -15 14 -32q-3 -17 -16 -24q-13 -8 -33 -10q-20 -3 -39 -4
q-19 -2 -58 -4q-40 -1 -69 0q-25 0 -55 2q-30 3 -56 6q-27 4 -48 16q-22 11 -34 30q-12 18 -16 40q-5 23 -5 43v255l-160 -24l-12 -61q-7 -35 -31 -91q-25 -55 -58 -93q-32 -38 -80 -73q-49 -35 -96 -58q-48 -24 -73 -32l-47 -17l-15 38l41 21q18 10 64 38q46 29 74 53
q29 24 58 67q30 43 45 86q15 44 22 84l4 24l-162 -23l-7 -46q-5 -29 -22 -29q-18 -1 -35 33l-67 126q19 10 36 20t58 45q40 34 84 80q44 45 90 108q47 63 62 97zM1303 842l349 1l72 71l76 -64q12 -11 26 -28t12 -29q-3 -10 -14 -19q-11 -8 -35 -15l-40 -13l-55 -123
q-25 -54 -72 -130q-46 -76 -93 -122l-23 -22q17 -15 35 -28t59 -36q40 -23 99 -49q59 -25 115 -44q56 -18 110 -28l65 -13l-1 -37q-18 -1 -44 -2q-27 -1 -54 -12q-27 -12 -36 -41l-6 -16l-92 39q-56 23 -115 58t-109 71q-49 36 -77 62l-16 14l-99 -74q-46 -33 -93 -60
t-122 -57t-113 -41l-84 -25l-8 40l80 32q41 16 95 42q54 27 131 78q77 50 134 108l14 14q-15 13 -39 36t-72 84q-48 62 -71 100l-21 33l-55 -71q-31 -37 -68 -69l-57 -51l-30 28l67 78q32 39 56 78l47 75q-8 12 -21 34q-12 22 -44 105l-8 20l38 19l38 -65l27 -51
q11 21 19 40t30 85q21 65 28 91q6 26 19 86l9 42l113 -34q27 -9 43 -17q15 -7 16 -22q0 -14 -11 -22q-11 -7 -35 -9l-44 -5q-21 -63 -28 -79zM1278 785q-29 -61 -36 -73l-35 -60q7 -12 25 -40q19 -28 72 -89q54 -61 100 -98l30 -25l22 22q18 18 52 66q35 49 70 114t49 103
l31 80h-380z" />
  </g>

</svg>
