<?xml version="1.0" standalone="no"?>
<!DOCTYPE svg PUBLIC "-//W3C//DTD SVG 1.1//EN" "http://www.w3.org/Graphics/SVG/1.1/DTD/svg11.dtd" >
<svg xmlns="http://www.w3.org/2000/svg" xmlns:xlink="http://www.w3.org/1999/xlink" version="1.1" viewBox="0 -154 1024 1024">
  <g transform="matrix(1 0 0 -1 0 870)">
   <path fill="currentColor"
d="M477 1008l84 -34q14 -6 6 -11q-20 -6 -29 -18v-119h272v68q2 15 -30 46l9 12l87 -36q14 -6 6 -11q-21 -9 -30 -21v-37l4 -49q0 -22 -15 -31q-15 -11 -31 -15v54h-582l-31 -44l-54 42q26 23 30 44v59q-2 15 -23 37l7 9l83 -36q16 -6 7 -12q-20 -5 -32 -18v-61h281v129
q2 15 -27 42zM912 320q-5 -99 -45 -194q-39 -97 -205 -113q9 45 -124 82l3 14q62 -12 117 -26q72 -14 108 6t55 55t29 88q11 54 12 100h-649l-33 -42l-53 45q20 11 37 34l38 156q0 22 -12 42l11 9l32 -42h579v142h-616q-18 2 -37 -14l-36 34h673l37 39l49 -47q14 -12 -4 -16
l-20 -8v-130l6 -37q-5 -34 -52 -33v50h-567l-41 -162h644l33 40l57 -55q5 -9 -6 -11z" />
  </g>

</svg>
