<?xml version="1.0" standalone="no"?>
<!DOCTYPE svg PUBLIC "-//W3C//DTD SVG 1.1//EN" "http://www.w3.org/Graphics/SVG/1.1/DTD/svg11.dtd" >
<svg xmlns="http://www.w3.org/2000/svg" xmlns:xlink="http://www.w3.org/1999/xlink" version="1.1" viewBox="0 -36 256 256">
  <g transform="matrix(1 0 0 -1 0 220)">
   <path fill="currentColor"
d="M77 247l23 -11l-9 -6v-13h19l9 9l14 -16h-42v-21h25l9 9l14 -16h-48v-2q24 -6 31 -11t4 -16t-11 1t-24 21v-20l1 -15l-15 -5q1 13 1 41q-18 -23 -56 -41l-3 3q35 23 50 44h-19q-10 0 -19 -2l-9 9h56v21h-17q-10 0 -19 -2l-9 9h45q0 18 -1 30zM162 211q12 -20 21 -30
q13 15 18 29h-38zM163 217h44l12 12l15 -19h-17q-11 -21 -26 -37q25 -16 53 -18v-4q-13 0 -17 -10q-26 8 -44 24q-27 -21 -63 -28l-1 3q38 15 56 34q-13 17 -17 34q-11 -14 -19 -21l-3 2q11 17 17 30.5t8 26.5l18 -9q-5 -1 -16 -20zM57 132h161l12 10l16 -17h-190
q0 -22 -3.5 -44.5t-14 -39.5t-28.5 -31l-2 3q18 23 24 38.5t8 35.5t1 52zM119 124l19 -10q-10 -2 -18 -7h47l11 7l15 -12q-14 -1 -33 -15h51l9 9l14 -13l-8 -5v-17l1 -18l-15 -3v3h-114v-3l-15 -4q1 15 1 31v16q-5 -4 -23 -13l-3 3q31 19 61 51zM114 100l-17 -10l2 -3h54
l14 13h-53zM98 80v-11h48v11h-48zM98 62v-12h48v12h-48zM160 69h52v11h-52v-11zM160 62v-12h52v12h-52zM204 38l2 3q44 -11 40 -24.5t-12 -3t-30 24.5zM162 42q32 -13 25.5 -26.5t-11.5 0t-17 25.5zM111 42q31 -15 23 -28t-10.5 -1.5t-14.5 27.5zM74 41h4q-3 -33 -19.5 -32
t-4 8.5t19.5 23.5z" />
  </g>

</svg>
