<?xml version="1.0" standalone="no"?>
<!DOCTYPE svg PUBLIC "-//W3C//DTD SVG 1.1//EN" "http://www.w3.org/Graphics/SVG/1.1/DTD/svg11.dtd" >
<svg xmlns="http://www.w3.org/2000/svg" xmlns:xlink="http://www.w3.org/1999/xlink" version="1.1" viewBox="0 -36 256 256">
  <g transform="matrix(1 0 0 -1 0 220)">
   <path fill="currentColor"
d="M71.5 220.5q5.5 -7.5 -3 -17.5t-10.5 4.5t-12 30.5l2 2q18 -12 23.5 -19.5zM86 191l12 11l16 -18h-72q-13 0 -22 -2l-9 9h75zM76 47v100h-31q1 -56 -4.5 -81.5t-30.5 -47.5l-3 2q15 18 20 38.5t5 49.5t-1 55l15 -9h29l7 10l15 -12l-8 -7v-95l29 19l2 -3q-34 -32 -39 -41
l-12 12q7 5 7 10zM214 191q-9 13 -24 25l2 3q28 -15 38 -24.5t4.5 -19.5t-9 -3t-8.5 14q-12 -1 -45 -4t-47 -9l-9 17q10 2 24 19.5t22 35.5l17 -13q-7 -4 -23 -20t-26 -23zM165 183q-9 -23 -22 -38t-39 -27l-2 3q17 12 30 28t18 35zM171 140q-7 -5 -17 -20h48l9 9l13 -12
l-8 -6q-13 -33 -28 -53q11 -11 27 -18t32 -10v-4q-11 0 -17 -11q-14 6 -26.5 14t-24.5 19q-17 -15 -37.5 -24.5t-39.5 -14.5l-1 4q47 20 70 45q-16 23 -26 48q-18 -20 -38 -32l-2 3l15.5 15.5t19.5 25.5l-5 15l3 2q3 -6 6 -10q6 9 12 26zM150 113q12 -27 29 -46q11 15 22 46
h-48h-3zM199 156q1 -9 8.5 -10l7.5 -1q11 1 19 2.5t12 -7.5q1 -7 -20 -6h-9q-30 -2 -31 20v32h13v-30z" />
  </g>

</svg>
