<?xml version="1.0" standalone="no"?>
<!DOCTYPE svg PUBLIC "-//W3C//DTD SVG 1.1//EN" "http://www.w3.org/Graphics/SVG/1.1/DTD/svg11.dtd" >
<svg xmlns="http://www.w3.org/2000/svg" xmlns:xlink="http://www.w3.org/1999/xlink" version="1.1" viewBox="0 -36 256 256">
  <g transform="matrix(1 0 0 -1 0 220)">
   <path fill="currentColor"
d="M221 224l17 -19h-179q-13 1 -25 -2l-9 9h97q-2 21 -20 32l2 3q23 -7 31 -15.5t-4 -19.5h73zM108 167q10 -4 12 -8t0 -12t-11.5 2t-30.5 22q-21 -20 -55 -30l-1 3q28 15 37.5 25.5t9.5 16.5l13 -4v-7q16 -4 26 -8zM104.5 120.5q6.5 -2.5 8.5 -6.5t0 -10t-10 1t-24 17
q-20 -20 -55 -31l-2 3q29 17 38.5 27t13.5 19l16 -9q-7 -3 -8 -4q16 -4 22.5 -6.5zM141 47l2 -3q-48 -24 -57 -37l-11 15q5 5 4 12v23q-28 -17 -70 -29l-1 3q34 13 64.5 34.5t47.5 45.5l18 -13q-5 0 -12 -5q11 -18 30 -35q27 19 41 37l14 -17l-8 -1q-10 -7 -41 -23
q10 -8 36.5 -15.5t49.5 -7.5v-4q-17 -4 -21 -14q-22 4 -53 20.5t-52 56.5q-17 -17 -29 -25v-35zM82 124v-32l-15 -6q1 16 1 42zM82 143l-14 -5v26q0 17 -1 31l15 -6h92l9 8l13 -13l-7 -4v-16q0 -16 1 -22l-15 -4v44h-93v-39zM221 168q9 -3 10.5 -9.5t-0.5 -11t-12 4
t-35 20.5q-19 -19 -50 -28l-1 4q24 13 34 23.5t10 16.5l13 -4v-7q22 -6 31 -9zM221.5 114.5q9.5 -4.5 10.5 -9t-1 -11.5t-12 4t-34 25q-20 -19 -47 -27l-2 3q21 12 30.5 22t13.5 20l15 -10q-5 -3 -6 -4q23 -8 32.5 -12.5zM189 126v-33l-15 -6q1 16 1 42z" />
  </g>

</svg>
