<?xml version="1.0" standalone="no"?>
<!DOCTYPE svg PUBLIC "-//W3C//DTD SVG 1.1//EN" "http://www.w3.org/Graphics/SVG/1.1/DTD/svg11.dtd" >
<svg xmlns="http://www.w3.org/2000/svg" xmlns:xlink="http://www.w3.org/1999/xlink" version="1.1" viewBox="0 -205 1024 1024">
  <g transform="matrix(1 0 0 -1 0 819)">
   <path fill="currentColor"
d="M582 934l54 -48h204l26 34l48 -36q12 -6 12 -14q0 -5 -30 -22v-156l4 -72q0 -15 -24 -26q-24 -13 -30 -10v56h-214v-38q1 -12 -22 -24q-20 -10 -34 -8l6 86v278v0v0zM632 668h214v190h-214v-190v0v0zM512 502h356l36 48l60 -54q3 -4 6 -10q0 -12 -12 -12h-194v-158h94
l38 48l54 -56q3 -3 4 -8q0 -12 -14 -12h-176v-191h118l44 55l64 -63q3 -3 4 -10q1 -9 -16 -10h-394q-21 1 -60 -10l-24 38h212v191h-98q-18 0 -60 -8l-18 36h176v158h-122q-18 0 -60 -8l-18 36v0v0zM46 888h398l38 48l62 -58q3 -3 4 -8q0 -7 -14 -8h-162v-144h50l24 36
l62 -42q3 -3 4 -6q-1 -7 -28 -28v-504l4 -91q-1 -14 -16 -26q-16 -9 -38 -12v92h-278v-74q0 -12 -18 -24q-18 -11 -36 -14l4 115v616l52 -38h70v144h-98q-18 0 -66 -8l-18 34v0v0zM156 296v-132h278v132h-278v0v0zM156 370v-46h278v116h-36q-7 0 -28 4q-18 3 -30 18
q-10 12 -10 34v194h-60q3 -88 -18 -172q-21 -85 -96 -148v0v0v0zM434 690h-62v-182q0 -18 10 -24q8 -6 16 -6h36v212v0v0zM270 718h60v144h-60v-144v0v0zM228 690h-72v-290q42 50 58 122t14 168v0v0z" />
  </g>

</svg>
