<?xml version="1.0" standalone="no"?>
<!DOCTYPE svg PUBLIC "-//W3C//DTD SVG 1.1//EN" "http://www.w3.org/Graphics/SVG/1.1/DTD/svg11.dtd" >
<svg xmlns="http://www.w3.org/2000/svg" xmlns:xlink="http://www.w3.org/1999/xlink" version="1.1" viewBox="0 -36 256 256">
  <g transform="matrix(1 0 0 -1 0 220)">
   <path fill="currentColor"
d="M66 205h42l13 12l18 -19h-59q18 -9 23.5 -14t7 -11.5t-5 -13t-9.5 1t-7.5 17t-16.5 20.5h-8q-16 -26 -46 -50l-3 3q12 14 21.5 28.5t16.5 30.5t9 33l23 -10q-9 -5 -19 -28zM163 205h46l13 13l19 -20h-66q23 -9 30 -15t7 -14t-5 -13t-9 4t-12.5 19.5t-16.5 18.5h-9
q-15 -26 -36 -39l-3 2q20 22 28.5 45t10.5 37l22 -10q-9 -5 -19 -28zM182 144q-27 -51 -45 -69q42 -34 107 -38v-4q-17 -3 -19 -15q-63 17 -97 49q-41 -39 -116 -53l-1 3q72 24 106 58q-24 29 -44 78l4 2q31 -53 51 -72q11 14 24 37t16 42l23 -13z" />
  </g>

</svg>
