<?xml version="1.0" standalone="no"?>
<!DOCTYPE svg PUBLIC "-//W3C//DTD SVG 1.1//EN" "http://www.w3.org/Graphics/SVG/1.1/DTD/svg11.dtd" >
<svg xmlns="http://www.w3.org/2000/svg" xmlns:xlink="http://www.w3.org/1999/xlink" version="1.1" viewBox="0 -36 256 256">
  <g transform="matrix(1 0 0 -1 0 220)">
   <path fill="currentColor"
d="M64.5 210.5q-2.5 15.5 -13.5 34.5l2 2q19 -14 24 -22.5t-2.5 -19t-10 5zM84 197l12 -15l-7 -5q-8 -20 -20 -40v-16l6 -3q9 11 18 34l13 -12q-10 -3 -26 -22q11 -6 15.5 -10.5t1.5 -13.5t-8.5 -0.5t-19.5 21.5v-100l-12 -6v109q-19 -25 -47 -44l-2 3q18 17 36.5 42.5
t31.5 60.5h-28q-11 0 -20 -2l-9 9h56zM153 204v13q0 16 -1 29l23 -10l-9 -8v-24h7l11 11l15 -18h-33v-36h7q18 22 28 39t13 25l18 -13l-8 -5q-24 -32 -36 -46h31l13 13l16 -20h-65q-16 -18 -30 -31h48l12 13l16 -20h-67l-7 -27h54l8 9l14 -13l-8 -5q-5 -34 -9.5 -45t-11 -17
t-18.5 -9q-3 8 -8.5 13t-22.5 13l1 4q37 -13 43.5 -5.5t11.5 48.5h-54l-6 -8l-13 12q6 4 8.5 11t4.5 19h-3q-23 -19 -59 -38l-1 4q35 25 50.5 40t30.5 32h-45q-10 0 -19 -2l-9 9h59v36h-15q-11 0 -20 -3l-9 10h44z" />
  </g>

</svg>
