<?xml version="1.0" standalone="no"?>
<!DOCTYPE svg PUBLIC "-//W3C//DTD SVG 1.1//EN" "http://www.w3.org/Graphics/SVG/1.1/DTD/svg11.dtd" >
<svg xmlns="http://www.w3.org/2000/svg" xmlns:xlink="http://www.w3.org/1999/xlink" version="1.1" viewBox="0 -36 256 256">
  <g transform="matrix(1 0 0 -1 0 220)">
   <path fill="currentColor"
d="M66 15l-15 -7q1 20 1 37v78q-20 -24 -40 -39l-3 4q19 21 41 54t26 46l18 -16l-8 -2q-6 -8 -20 -29v-126zM86 231l-9 -3q-36 -48 -61 -64l-3 4q19 20 34.5 43.5t19.5 34.5zM145 223q0 12 -1 23l23 -10l-8 -7v-30h16l11 11l13 -15q11 16 15 27l19 -16l-10 -5
q-17 -24 -39 -49h35l12 12l16 -19h-68q-16 -16 -39 -33h61l7 9l17 -11l-8 -7v-56q0 -13 1 -29l-16 -6v17h-74v-16l-15 -5q1 17 1 34v51q-20 -14 -44 -25l-1 5q35 23 45 33v11l10 -3q25 21 35 31h-51q-10 0 -19 -2l-9 9h65v40h-15q-10 0 -19 -2l-9 9h43v24zM198 192h-39v-40
h7q17 19 32 40zM128 75h74v30h-74v-30zM128 36h74v32h-74v-32z" />
  </g>

</svg>
