<?xml version="1.0" standalone="no"?>
<!DOCTYPE svg PUBLIC "-//W3C//DTD SVG 1.1//EN" "http://www.w3.org/Graphics/SVG/1.1/DTD/svg11.dtd" >
<svg xmlns="http://www.w3.org/2000/svg" xmlns:xlink="http://www.w3.org/1999/xlink" version="1.1" viewBox="0 -36 256 256">
  <g transform="matrix(1 0 0 -1 0 220)">
   <path fill="currentColor"
d="M162 223q-3 14 -15 24l2 2q21 -6 24.5 -12t-4.5 -14h51l13 11l16 -18h-134q-10 0 -19 -2l-9 9h75zM161 176l-13 -3v3h-28v-2l-13 -3q1 11 1 19t-1 20l13 -5h26l6 6l14 -7l-6 -4q0 -13 1 -24zM178 192q0 9 -1 17l13 -4h28l6 6l14 -7l-6 -3q0 -13 1 -24l-13 -3v2h-30v-2
l-13 -2q1 11 1 20zM120 183h28v15h-28v-15zM190 183h30v15h-30v-15zM169 112l-13 -6v52h-30q-10 -1 -19 -3l-9 10h56l8 8l12 -13l-6 -4q0 -30 1 -44zM133 151l8 5l10 -12h-22v-14h13l6 7l10 -14h-44q-10 0 -19 -2l-8 9h30v14h-4q-4 1 -12 -1l-4 8h36zM114 109v-19h33l10 7
l12 -14h-55v-3l-13 -3q1 11 1 20.5t-1 22.5l13 -4h42v-7h-42zM222.5 158.5q-5.5 -4.5 -8.5 -6.5q7 -4 12 -8t2 -10.5t-8.5 -0.5t-12.5 12q-13 -11 -33 -21l-1 3q16 13 27 23q-7 6 -25 15l1 3q18 -5 29 -12q8 9 14 17l12 -9q-3 -1 -8.5 -5.5zM221 115q-5 -4 -8 -7
q14 -8 18 -12t1 -11t-8 -1t-18 17q-14 -11 -32 -20l-3 2q16 13 27 23q-8 6 -24 15l1 3q16 -5 28 -11q11 11 14 17l12 -10q-3 -1 -8 -5zM165 75l-6 -3q6 -8 17 -17q23 12 38 25l11 -15q-18 -3 -45 -13q25 -20 68 -24v-4q-11 1 -17 -11q-56 18 -77 57q-10 -8 -23 -16v-29
l44 11l2 -3q-48 -18 -56 -26l-9 12q6 4 6 16v12q-15 -8 -32 -13l-1 3q25 14 40.5 25.5t25.5 23.5zM37 244q17 -12 24.5 -22.5t-2.5 -23.5h17l12 12l14 -19h-66q-10 -1 -19 -3l-9 10h45q-4 21 -18 44zM34 39h36v44h-36v-44zM61 161l12 11l16 -18h-43q-11 1 -20 -2l-7 9h42z
M61 124l11 11l16 -18h-40q-12 1 -20 -2l-7 9h40zM83 50q0 -12 1 -27l-14 -6v15h-36v-13l-14 -8q1 22 1 44.5t-1 43.5l15 -9h34l7 9l13 -12l-6 -6v-31z" />
  </g>

</svg>
