<?xml version="1.0" standalone="no"?>
<!DOCTYPE svg PUBLIC "-//W3C//DTD SVG 1.1//EN" "http://www.w3.org/Graphics/SVG/1.1/DTD/svg11.dtd" >
<svg xmlns="http://www.w3.org/2000/svg" xmlns:xlink="http://www.w3.org/1999/xlink" version="1.1" viewBox="0 -205 1024 1024">
  <g transform="matrix(1 0 0 -1 0 819)">
   <path fill="currentColor"
d="M494 370h330v218h-330v-218v0v0zM494 616h330v210h-330v-210v0v0zM438 908l74 -54h304l28 44l64 -50q3 -7 4 -10q-10 -12 -34 -30v-434l4 -80q0 -12 -18 -24q-19 -8 -40 -10v82h-330v-62q0 -12 -18 -26q-15 -13 -42 -14l4 112v556v0v0zM310 137h574l36 55l70 -63
q2 -2 2 -8q1 -12 -10 -12h-588q-22 1 -70 -8l-14 36v0v0zM374 910q9 -8 4 -10q3 -7 -18 -10q-19 -10 -38 -38q-51 -105 -86 -170l36 -12q14 -4 14 -10q0 -3 -30 -24v-466l4 -89q1 -15 -22 -28q-24 -10 -38 -8l4 129v448q-70 -132 -160 -228l-12 10q107 168 176 322
q66 153 84 228l82 -44v0v0z" />
  </g>

</svg>
