<?xml version="1.0" standalone="no"?>
<!DOCTYPE svg PUBLIC "-//W3C//DTD SVG 1.1//EN" "http://www.w3.org/Graphics/SVG/1.1/DTD/svg11.dtd" >
<svg xmlns="http://www.w3.org/2000/svg" xmlns:xlink="http://www.w3.org/1999/xlink" version="1.1" viewBox="0 -205 1024 1024">
  <g transform="matrix(1 0 0 -1 0 819)">
   <path fill="currentColor"
d="M478 630h306l38 44l64 -50l4 -8q0 -12 -12 -12h-316q-21 0 -68 -8l-16 34v0v0zM416 456h470l36 48l64 -54q3 -4 4 -8q0 -12 -12 -12h-268v-313q0 -47 -20 -68q-21 -18 -60 -28q-6 33 -36 48q-28 16 -76 34l6 16q82 -21 110 -22t26 42v291h-172q-21 0 -56 -8l-16 34v0v0z
M516 380q74 -30 76 -36q0 -3 -2 -8q-1 -6 -20 -8q-18 -3 -62 -60q-46 -55 -184 -197l-10 12q140 174 202 297v0v0zM776 358l10 12q107 -72 152 -126q42 -53 46 -88q3 -34 -8 -47q-12 -13 -30 -8q-15 5 -26 43q-12 39 -36 82q-24 39 -108 132v0v0zM598 960l6 12
q52 -17 86 -40q33 -21 42 -42q6 -21 -2 -38q-7 -18 -28 -18q-22 0 -28 28q-7 28 -26 50q-18 21 -50 48v0v0zM466 852h22v-38h416l34 42q63 -58 64 -64q0 -6 -2 -8q0 -3 -18 -6t-36 -14q-18 -9 -68 -72l-16 10q33 62 46 88h-420q3 -59 -14 -88q-15 -27 -36 -32q-22 -6 -34 10
q-12 15 6 34q17 15 32 40q15 22 24 98v0v0zM384 930l48 -44q12 -11 12 -16q0 -6 -18 -14q-18 -7 -30 -16q-12 -7 -132 -142q27 -12 28 -18t-22 -14v-150l164 62l10 -16l-174 -82v-340q3 -49 -14 -77q-18 -26 -72 -40q-6 33 -38 50q-31 18 -74 30l4 16q64 -12 86 -18
q20 -3 40 2q21 5 18 49v302q-54 -23 -80 -40q-27 -15 -62 -44l-44 54l184 72v220l28 -12l104 166h-226q-15 0 -36 -8l-24 32h282l38 36v0v0z" />
  </g>

</svg>
