<?xml version="1.0" standalone="no"?>
<!DOCTYPE svg PUBLIC "-//W3C//DTD SVG 1.1//EN" "http://www.w3.org/Graphics/SVG/1.1/DTD/svg11.dtd" >
<svg xmlns="http://www.w3.org/2000/svg" xmlns:xlink="http://www.w3.org/1999/xlink" version="1.1" viewBox="0 -36 256 256">
  <g transform="matrix(1 0 0 -1 0 220)">
   <path fill="currentColor"
d="M153 244l23 -11l-8 -9q1 -53 2 -72h43l16 13l18 -20h-76q2 -36 9 -59q19 30 25 57l19 -14l-10 -6q-11 -26 -27 -52q16 -29 39 -40l13 48l3 -1q-3 -22 -3.5 -39t5 -26t-20 2t-46.5 44q-25 -27 -57 -45l-2 3q25 20 53 55q-11 31 -13 73h-118q-11 0 -20 -2l-9 9h145
q-3 69 -3 92zM215 208q9 -7 8.5 -16.5t-7.5 -11.5t-11.5 12t-16.5 27l2 3q16 -7 25 -14zM69 145q41 -9 26 -29h36l12 12l16 -19h-63q-9 -12 -17 -21q13 -4 25 -10q15 10 27 28l13 -16l-8 -1q-14 -7 -25 -14q30 -13 28.5 -29t-14.5 1t-50 37v-49l33 17l3 -4q-26 -16 -44 -38
l-12 14q6 6 6 12v35q-19 -18 -48 -31l-3 3q41 28 67 66h-30q-11 -1 -21 -3l-10 10h72q-4 11 -21 27zM90 182h17l12 10l15 -17h-44v-25h-13v25h-11q-10 0 -19 -2l-10 9h40v22h-24q-10 0 -20 -2l-9 9h53v13q0 13 -1 20l20 -8l-6 -7v-18h27l12 10l13 -17h-52v-22z" />
  </g>

</svg>
