<?xml version="1.0" standalone="no"?>
<!DOCTYPE svg PUBLIC "-//W3C//DTD SVG 1.1//EN" "http://www.w3.org/Graphics/SVG/1.1/DTD/svg11.dtd" >
<svg xmlns="http://www.w3.org/2000/svg" xmlns:xlink="http://www.w3.org/1999/xlink" version="1.1" viewBox="0 -36 256 256">
  <g transform="matrix(1 0 0 -1 0 220)">
   <path fill="currentColor"
d="M216 181l19 -14l-11 -7q0 -93 -3 -116.5t-34 -35.5q0 14 -34 18v5q36 -3 44 2t10 21t2 110h-142q-19 -25 -57 -44l-2 4q45 33 62 74l19 -13l-7 -3l-10 -11h136zM68 77h41v22h-41v-22zM122 77h43v22h-43v-22zM68 49h41v21h-41v-21zM122 49h43v21h-43v-21zM179 56
q0 -8 1 -16l-15 -5v7h-97v-5l-15 -4q1 20 1 39.5t-1 37.5l13 -4h99l7 9l15 -12l-8 -5v-42zM127 209h-40q0 -6 1 -15l-16 -5q1 11 1 20h-27q-10 0 -20 -2l-10 9h57q0 20 -1 30l23 -8l-8 -6v-16h13l13 11zM160 212q-11 -1 -20 -3l-10 10h35q0 14 -1 26l24 -9l-8 -6v-11h30
l13 10l16 -17h-59q-1 -4 1 -24l-17 -4q1 23 1 28h-5zM126 131h-31v-19l-14 -5v24h-15q-11 0 -17 -2l-8 9h40q0 14 -1 24l21 -9l-6 -6v-9h8l10 8zM145 131l-9 -3l-9 10h23q0 11 -1 24l21 -9l-6 -6v-8h18l12 7l12 -14h-42v-17l-14 -7v23h-5z" />
  </g>

</svg>
