<?xml version="1.0" standalone="no"?>
<!DOCTYPE svg PUBLIC "-//W3C//DTD SVG 1.1//EN" "http://www.w3.org/Graphics/SVG/1.1/DTD/svg11.dtd" >
<svg xmlns="http://www.w3.org/2000/svg" xmlns:xlink="http://www.w3.org/1999/xlink" version="1.1" viewBox="0 -36 256 256">
  <g transform="matrix(1 0 0 -1 0 220)">
   <path fill="currentColor"
d="M49 235h156l9 11l18 -14l-11 -6v-67q-1 -16 -19 -23q-3 8 -9.5 12t-19.5 7v4q21 -3 28.5 -2t6.5 10v61h-162v-80l-15 -9q1 26 1 54.5t-1 50.5zM105 225l16 -14q-15 -9 -21 -17q9 -5 15 -10.5t5 -12t-4.5 -10.5t-8 5t-17.5 19q-18 -13 -38 -22l-2 3q20 13 31 26
q-11 10 -28 22l3 4q20 -11 32 -17q7 5 17 24zM184 224l15 -15q-8 -4 -23 -16q8 -5 12.5 -7.5t6 -8t-2 -11t-10 2.5t-16.5 16q-14 -13 -40 -25l-2 3q21 15 34 28q-15 11 -30 20l3 4q23 -10 34 -16q12 13 19 25zM47 56.5q0 22.5 -2 39.5l16 -9h59v31h-83q-11 0 -20 -2l-11 9
h114q0 15 -2 31l29 -11l-13 -7v-13h78l16 14l21 -21h-115v-31h58l8 11l19 -14l-10 -7v-30q0 -9 2 -33l-17 -7v18h-133v-13l-16 -5q2 27 2 49.5zM61 32h133v48h-133v-48z" />
  </g>

</svg>
