<?xml version="1.0" standalone="no"?>
<!DOCTYPE svg PUBLIC "-//W3C//DTD SVG 1.1//EN" "http://www.w3.org/Graphics/SVG/1.1/DTD/svg11.dtd" >
<svg xmlns="http://www.w3.org/2000/svg" xmlns:xlink="http://www.w3.org/1999/xlink" version="1.1" viewBox="0 -36 256 256">
  <g transform="matrix(1 0 0 -1 0 220)">
   <path fill="currentColor"
d="M104 155q0 -8 -3.5 -12.5t-12.5 -7.5q-4 11 -24 16v4q15 -2 21 -2t6 4v35q-23 -34 -73 -51l-1 4q43 23 59 49h-26l-6 -5l-12 11q8 5 11.5 10.5t5.5 14.5l16 -8q-4 -3 -13 -16h39v26h-35q-11 0 -20 -2l-8 9h75l11 10l19 -17h-29v-26h3l10 9l18 -16h-31v-39zM176 177
q12 12 19 30h-39l-2 -2q9 -17 22 -28zM123 176q25 33 35 69l19 -9l-8 -6q-1 -2 -11 -16h52l11 9l16 -16h-27q-12 -25 -24 -37q21 -13 55 -15v-4q-15 0 -19 -10q-28 9 -44 21q-25 -18 -68 -25l-1 4q41 11 60 29q-11 12 -18 30q-11 -14 -26 -26zM45 57.5q-9 -25.5 -32 -46.5
l-3 2q20 25 24.5 53.5t3.5 73.5l14 -8h142l12 11l19 -18h-171q0 -42 -9 -67.5zM201 108q-16 -1 -27 -2.5t-38 -4.5v-16l43 4l8 10l17 -14l-68 -6v-16l68 5l12 13l19 -17l-99 -7v-16q0 -10 13 -10h60q13 0 14 26h5q-2 -19 10 -26q-7 -11 -21 -11h-76q-20 0 -20 17v19l-61 -5
l-7 -3l-7 8l75 6v16l-47 -3l-6 -2l-7 7l60 4v16q-30 -2 -54 -3v4q77 6 121 22z" />
  </g>

</svg>
