<?xml version="1.0" standalone="no"?>
<!DOCTYPE svg PUBLIC "-//W3C//DTD SVG 1.1//EN" "http://www.w3.org/Graphics/SVG/1.1/DTD/svg11.dtd" >
<svg xmlns="http://www.w3.org/2000/svg" xmlns:xlink="http://www.w3.org/1999/xlink" version="1.1" viewBox="0 -36 256 256">
  <g transform="matrix(1 0 0 -1 0 220)">
   <path fill="currentColor"
d="M77 233l-7 -8v-63q18 25 22 36l14 -13q-5 -1 -13 -8.5t-23 -21.5q0 -24 -3 -60q20 -12 28 -21.5t5.5 -17.5t-5 -9t-7 10t-22.5 33q-10 -54 -55 -84l-1 2q32 35 39.5 68t7.5 74t-1 95zM33.5 141.5q-4.5 -9.5 -10.5 -11.5t-9.5 3t5 13.5t15.5 35.5h4q0 -31 -4.5 -40.5z
M108 220q80 9 117 26l11 -19l-12 1q-67 -10 -116 -12v4zM199 167l-4 2q15 24 22 52l19 -10l-8 -5q-16 -25 -29 -39zM127.5 178q-3.5 13 -17.5 30l2 2q19 -8 25.5 -17.5t0 -18.5t-10 4zM154 215l2 2q20 -11 25 -20.5t-2 -17.5t-9 4.5t-16 31.5zM180 114h34v31h-34v-31z
M180 74h34v33h-34v-33zM133 15l-14 -7q1 26 1 59h1l-11 -3l-10 10h20q0 70 -1 86l15 -8h33q0 18 -1 25l21 -7l-7 -7v-11h32l8 10l14 -13l-7 -6v-69l8 10l12 -17h-20v-32q0 -18 -18 -25q-1 13 -22 17v4q11 -1 18.5 -2t8.5 13v25h-81v-52zM133 114h34v31h-34v-31zM133 74h34
v33h-34v-33z" />
  </g>

</svg>
