<?xml version="1.0" standalone="no"?>
<!DOCTYPE svg PUBLIC "-//W3C//DTD SVG 1.1//EN" "http://www.w3.org/Graphics/SVG/1.1/DTD/svg11.dtd" >
<svg xmlns="http://www.w3.org/2000/svg" xmlns:xlink="http://www.w3.org/1999/xlink" version="1.1" viewBox="0 -205 1024 1024">
  <g transform="matrix(1 0 0 -1 0 819)">
   <path fill="currentColor"
d="M136 674h264l28 32l54 -28q8 -6 8 -12q0 -4 -32 -28v-112l4 -62q0 -11 -20 -22q-20 -12 -34 -12v50h-204l-24 -136h222l28 34l56 -42q3 0 6 -8q-1 -3 -34 -24q-13 -115 -22 -173q-7 -60 -32 -84t-76 -34q-9 31 -32 46q-21 15 -80 32l8 18q54 -15 94 -22q38 -6 52 2
q12 9 18 63t18 166h-216l-28 -26l-56 40q20 12 28 30l28 182l48 -40h198v146h-218q-20 0 -34 -8l-20 32v0v0zM470 129l48 11q18 39 48 126q29 86 68 226q38 140 50 208q84 -35 88 -40q3 -3 0 -8q-3 -3 -14 -8q-12 -4 -20 -16q-10 -13 -52 -140q-42 -125 -80 -220
q-37 -96 -58 -139q224 16 310 29q-9 33 -30 76q-19 40 -56 110l14 8q63 -76 100 -130q36 -53 48 -82q9 -27 10 -51q-1 -23 -14 -38t-32 -12t-22 32q-1 30 -10 62q-246 -35 -282 -44q-36 -6 -78 -30l-36 70v0v0zM894 816l28 34l56 -44q17 -12 14 -20q0 -5 -12 -10
q-33 -3 -62 -36q-30 -34 -48 -56l-14 10l44 96h-732q-9 -60 -30 -90t-48 -36q-24 -6 -36 4q-13 9 -10 24q2 15 32 30q27 15 48 48q18 30 30 90h18v-44h722v0v0zM434 964l8 12q60 -24 84 -42q25 -18 32 -38q7 -18 2 -36q-7 -17 -22 -22q-16 -4 -26 4q-9 8 -12 28
q-3 18 -18 40q-12 21 -48 54v0v0z" />
  </g>

</svg>
