<?xml version="1.0" standalone="no"?>
<!DOCTYPE svg PUBLIC "-//W3C//DTD SVG 1.1//EN" "http://www.w3.org/Graphics/SVG/1.1/DTD/svg11.dtd" >
<svg xmlns="http://www.w3.org/2000/svg" xmlns:xlink="http://www.w3.org/1999/xlink" version="1.1" viewBox="0 -205 1024 1024">
  <g transform="matrix(1 0 0 -1 0 819)">
   <path fill="currentColor"
d="M56 584h144q17 57 38 150q72 -25 76 -32q3 -6 0 -8q-1 -1 -8 -4q-5 -3 -28 -20q-13 -48 -28 -86h106l36 50l66 -58q3 -3 4 -8q0 -12 -14 -12h-206q-27 -81 -56 -140q-28 -57 -64 -110q-35 -53 -94 -112l-12 12q42 60 76 118q32 57 52 102q18 45 48 130h-60q-20 0 -46 -12
l-30 40v0v0zM88 152l46 10q21 34 52 92q28 56 50 112q21 53 42 116q70 -30 74 -36q3 -3 0 -8q-3 -3 -14 -8q-12 -4 -20 -16q-9 -12 -32 -56q-23 -43 -58 -100q-36 -58 -66 -106q118 11 218 26q-18 38 -32 58q-13 20 -40 56l12 12q59 -53 86 -82q27 -30 36 -50q9 -22 12 -45
q0 -24 -12 -36t-30 -10q-18 3 -18 24q0 22 -6 47q-160 -25 -190 -37q-31 -8 -70 -32l-40 69v0v0zM398 802l30 32l46 -38q15 -13 16 -22q1 -3 -16 -6q-31 -10 -52 -34t-42 -56l-16 4l36 94h-278q4 -44 -10 -70q-12 -26 -36 -34q-22 -7 -34 4q-12 9 -8 24q2 15 16 22
q12 5 30 34q16 30 20 96h20v-50h278v0v0zM186 954l8 12q63 -27 90 -42q24 -16 30 -38q7 -22 -4 -40q-10 -18 -28 -18q-19 0 -22 22q0 20 -12 44q-12 21 -62 60v0v0zM716 884h148l28 42l56 -36q12 -7 12 -14l-30 -32v-733q1 -23 -18 -46q-18 -22 -62 -36q-12 37 -42 52
q-28 13 -74 22l4 18q51 -8 90 -14q35 -4 44 4q10 9 8 31v382q-85 -106 -98 -130q-11 -24 -16 -48l-66 38l180 176v300h-92q-24 0 -50 -8l-22 32v0v0zM720 744q50 -39 74 -72q24 -31 28 -56q3 -24 -8 -36q-12 -13 -30 -10q-18 2 -18 22q1 20 -10 56q-9 36 -48 88l12 8v0v0z
M460 882h160l24 38l52 -36q12 -7 12 -14l-24 -24v-735q0 -23 -14 -46q-15 -20 -62 -38q-12 33 -42 48q-30 12 -84 26l4 18q60 -9 96 -12q35 -4 44 4q10 9 8 31v330q-99 -99 -114 -120q-15 -22 -26 -52l-60 46l200 156v356h-102q-24 0 -48 -6l-24 30v0v0zM502 740
q39 -42 64 -78q21 -36 22 -60t-10 -38q-11 -13 -28 -10q-16 2 -16 26q0 23 -6 62q-7 36 -38 90l12 8v0v0z" />
  </g>

</svg>
