<?xml version="1.0" standalone="no"?>
<!DOCTYPE svg PUBLIC "-//W3C//DTD SVG 1.1//EN" "http://www.w3.org/Graphics/SVG/1.1/DTD/svg11.dtd" >
<svg xmlns="http://www.w3.org/2000/svg" xmlns:xlink="http://www.w3.org/1999/xlink" version="1.1" viewBox="0 -246 2048 2048">
  <g transform="matrix(1 0 0 -1 0 1802)">
   <path fill="currentColor"
d="M576 1420h960l78 92q129 -101 129 -127q0 -12 -23 -28l-49 -31v-726h-119v62h-1003v-66h-119v883q68 -24 146 -59zM1106 1027v-314h446v314h-446zM991 1027h-442v-314h442v314zM549 1078h442v291h-442v-291zM1106 1078h446v291h-446v-291zM535 1663h1046l111 149
q90 -84 151 -159l-24 -41h-1311q-139 -250 -350 -432l-37 33q242 272 373 726q200 -40 200 -86q0 -28 -90 -41q-36 -84 -69 -149zM815 119q-57 0 -57 58v14q4 37 4 51q0 139 -57 281l41 20q157 -179 157 -320q0 -104 -88 -104zM1301 123q-53 0 -62 76q-15 152 -147 322
l37 28q256 -176 256 -336q0 -90 -84 -90zM211 88q-78 0 -78 80q0 38 66 70q165 76 221 293l49 -21q-15 -241 -149 -367q-59 -55 -109 -55zM1843 127q-44 0 -71 64q-70 171 -275 317l31 39q183 -68 307 -180q86 -77 86 -156q0 -84 -78 -84z" />
  </g>

</svg>
