<?xml version="1.0" standalone="no"?>
<!DOCTYPE svg PUBLIC "-//W3C//DTD SVG 1.1//EN" "http://www.w3.org/Graphics/SVG/1.1/DTD/svg11.dtd" >
<svg xmlns="http://www.w3.org/2000/svg" xmlns:xlink="http://www.w3.org/1999/xlink" version="1.1" viewBox="0 -36 256 256">
  <g transform="matrix(1 0 0 -1 0 220)">
   <path fill="currentColor"
d="M65 181h19l8 9l13 -12l-7 -6v-55l1 -22l-13 -7v8h-51v-8l-13 -6q1 22 1 91q-4 -6 -13 -17l-2 3q18 31 26.5 54.5t9.5 33.5l20 -11q-8 -1 -17 -19h28l8 9l13 -13q-9 0 -31 -32zM31 185l6 -4h22l16 29h-30q-6 -11 -14 -25zM35 141h18v33h-18v-33zM66 141h20v33h-20v-33z
M35 103h18v31h-18v-31zM66 103h20v31h-20v-31zM29.5 43q-1.5 -8 -5 -11.5t-11 -3.5t1 12t11.5 34h4q1 -23 -0.5 -31zM44 77q14 -18 14.5 -28t-5.5 -15.5t-6.5 9t-5.5 33.5zM62 80q22 -16 22.5 -25.5t-4.5 -14t-6.5 6t-13.5 31.5zM84 86q18 -11 23 -18t0 -16.5t-8.5 2
t-17.5 30.5zM108 245l19 -11l-6 -7v-30q22 17 32 34l11 -14q-7 -2 -17 -9t-26 -16v-13q0 -10 5 -10h22q6 1 7 10t2 21h3q1 -18 3 -23.5t6 -6.5q-6 -13 -21 -12h-29q-11 -1 -10 22q0 50 -1 65zM141 73q13 -10 21 -17.5t6 -14.5t-5 -10.5t-7 8.5t-16 28q-6 -17 -15 -30.5
t-27 -26.5l-2 3q16 18 24 33.5t11 41.5h-11q-5 0 -14 -2l-9 9h34v28h-15q-6 -11 -15 -24l-3 2q13 29 17 55l16 -8q-5 -3 -13 -18h29l9 8l14 -15h-27v-28h11l9 9l14 -16h-34q0 -4 -2 -15zM205 235l-6 -5q-8 -24 -14 -48h38l8 10l15 -15q-11 0 -27 -29l-3 1l9 26h-41
q-8 -25 -18 -42l-3 1q12 43 16.5 68.5t4.5 42.5zM213 153l-7 -6q2 -39 8.5 -62t16 -39.5t17.5 -21.5l-1 -3q-12 -1 -17 -9q-15 31 -21.5 58t-7.5 64q0 -54 -13.5 -83.5t-33.5 -43.5l-3 2q24 28 31.5 64t6.5 90z" />
  </g>

</svg>
