<?xml version="1.0" standalone="no"?>
<!DOCTYPE svg PUBLIC "-//W3C//DTD SVG 1.1//EN" "http://www.w3.org/Graphics/SVG/1.1/DTD/svg11.dtd" >
<svg xmlns="http://www.w3.org/2000/svg" xmlns:xlink="http://www.w3.org/1999/xlink" version="1.1" viewBox="0 -36 256 256">
  <g transform="matrix(1 0 0 -1 0 220)">
   <path fill="currentColor"
d="M178 134h42v20h-42v-20zM108 148q0 30 -1 46l16 -7h43q-5 13 -20 22l2 4q13 -4 26 -9l28 17h-57q-15 0 -26 -4l-12 11h98l12 8l16 -16q-7 0 -19.5 -5t-34.5 -14q5 -9 -3 -14h42l8 10l15 -11l-7 -7v-54q2 -21 -17 -27q-3 12 -19 14v4q17 -1 19.5 0t2.5 6v5h-42v-14l-14 -3
v17h-42v-22l-15 -5q1 18 1 48zM122 161h42v19h-42v-19zM178 161h42v19h-42v-19zM122 134h42v20h-42v-20zM164 90h53l10 7l13 -12l-8 -5q-7 -49 -16 -58t-24 -10q-4 13 -29 15v5q21 -2 31 -2t14 7.5t10 45.5h-55q-15 -53 -82 -73l-1 5q61 29 69 68h-36l-13 -2l-9 9h59
q2 7 2 23l21 -9l-7 -4zM22 9q1 42 1 119t-1 107l16 -9h38l7 9l15 -13l-6 -5q-13 -23 -28 -52q16 -13 23 -26t5.5 -25.5t-8.5 -19.5t-22 -11q-1 13 -21 18v4q12 -2 23 -2.5t13 8t-0.5 21.5t-19.5 33l20 54h-40v-202z" />
  </g>

</svg>
