<?xml version="1.0" standalone="no"?>
<!DOCTYPE svg PUBLIC "-//W3C//DTD SVG 1.1//EN" "http://www.w3.org/Graphics/SVG/1.1/DTD/svg11.dtd" >
<svg xmlns="http://www.w3.org/2000/svg" xmlns:xlink="http://www.w3.org/1999/xlink" version="1.1" viewBox="0 -143 1024 1024">
  <g transform="matrix(1 0 0 -1 0 881)">
   <path fill="currentColor"
d="M486 290h285l30 44l51 -48q4 -4 4 -8q0 -12 -12 -12h-298q-21 0 -45 -8zM759 953q3 -4 3 -6q-4 -7 -22.5 -10.5t-68.5 -88.5h181l28 36l47 -40q10 -5 10 -14q0 -4 -13 -12l-19 -11q-8 -127 -12 -174.5t-23.5 -76.5t-59.5 -44q-8 22 -26 38t-86 33l4 17q78 -18 101 -16
t31.5 18.5t11 47t8.5 173.5h-260v-373h303l32 40l54 -42q8 -6 6 -12q0 -7 -36 -24q-7 -178 -12 -240t-23 -96t-82 -62q-10 28 -28 43t-100 37l4 18q100 -22 127.5 -19t37.5 23.5t15 77.5t10 230h-302l-24 -33l-58 35l25 26v428l48 -32h55q34 90 44 138zM673 776
q57 -29 76 -46.5t22 -37.5t-9 -29t-25 -7t-17 21t-15 39t-39 48zM64 466h184v138h-46q-19 0 -55 -8l-15 36h214l34 42l53 -52q3 -2 3 -6q0 -12 -8 -12h-131v-138h104l28 36l52 -49q3 -3 3 -7q0 -9 -8 -9h-179v-287q4 -62 -20.5 -84t-54.5 -26q-7 38 -43 52t-69 26l4 18
q88 -22 111 -20t23 34v287h-102q-30 3 -62 -7zM203 352q6 -4 6 -6q2 -7 -8 -10q-7 -2 -23 -10q-68 -107 -144 -193l-10 11q86 141 127 240zM345 376q61 -42 91 -75t38 -59t-1 -46t-27 -18t-22 21t-12 43t-23 50t-53 72zM268 984q70 -34 71 -42t-4 -10t-15 -4t-28 -34
q85 -51 126.5 -84.5t49.5 -55.5t0 -39t-26 -17t-29 26t-52 72t-81 80q-34 -64 -93 -149t-147 -169l-11 10q97 126 148 218t91 198z" />
  </g>

</svg>
