<?xml version="1.0" standalone="no"?>
<!DOCTYPE svg PUBLIC "-//W3C//DTD SVG 1.1//EN" "http://www.w3.org/Graphics/SVG/1.1/DTD/svg11.dtd" >
<svg xmlns="http://www.w3.org/2000/svg" xmlns:xlink="http://www.w3.org/1999/xlink" version="1.1" viewBox="0 -36 256 256">
  <g transform="matrix(1 0 0 -1 0 220)">
   <path fill="currentColor"
d="M224 108l-2 -5v-39.5t1 -46.5l-14 -7v13h-82v-7l-14 -6q1 17 1 29v73q-9 -4 -18 -7l-1 4q43 23 65 46q-15 17 -27 42q-7 -14 -28 -35l-3 2q13 19 23 40t15 42l21 -11l-7 -4q-6 -8 -11 -17h57l7 9l16 -14l-10 -6q-19 -29 -37 -49q11 -10 29.5 -20t42.5 -14v-3
q-13 -4 -16 -12zM137 202q13 -24 30 -39q17 19 32 44h-58zM116 113l9 -4h83l4 5q-25 14 -44 32q-22 -18 -52 -33zM127 70h34v32h-34v-32zM174 70h35v32h-35v-32zM127 30h34v33h-34v-33zM174 30h35v33h-35v-33zM53 239l21 -10l-7 -6q-4 -28 -6 -44h24l6 10l14 -12l-6 -7
q-5 -63 -17 -94q14 -10 21.5 -18t4.5 -19.5t-12 2.5t-20 24q-21 -32 -63 -54l-2 4q38 27 55 58q-8 6 -35 20q9 36 15 79q-12 1 -21 -3l-10 10h32q4 33 6 60zM60 172q-6 -39 -15 -76q14 -7 25 -13q12 27 15 89h-25z" />
  </g>

</svg>
