<?xml version="1.0" standalone="no"?>
<!DOCTYPE svg PUBLIC "-//W3C//DTD SVG 1.1//EN" "http://www.w3.org/Graphics/SVG/1.1/DTD/svg11.dtd" >
<svg xmlns="http://www.w3.org/2000/svg" xmlns:xlink="http://www.w3.org/1999/xlink" version="1.1" viewBox="0 -36 256 256">
  <g transform="matrix(1 0 0 -1 0 220)">
   <path fill="currentColor"
d="M88 191h12v-25h27v22h-86v-22h22v24h12v-149q0 -12 9 -15h140q7 0 8 7t2 24h5q0 -12 2.5 -20.5t6.5 -8.5q-6 -11 -13.5 -12.5t-13.5 -1.5h-136q-22 0 -22 21v124h-22v-3l-13 -4q1 16 1 25.5t-1 22.5l13 -5h22h62l7 8l12 -11l-5 -4v-14l1 -15l-13 -6v6h-27v-33h29l5 8
l12 -11l-5 -6q0 -57 1 -67l-13 -5v7h-58v7h17v132zM100 59h29v60h-29v-60zM129 106q-3 -2 -8 -13q6 -9 7.5 -14t-1.5 -10.5t-4.5 2t-5.5 14.5q-7 -9 -16 -20v2q6 14 11 24q-3 5 -11 19l1 2q9 -8 14 -13q3 8 6 17zM53 98l-12 -4v6h-7l-9 -3l-9 10h25v12h-3q-10 0 -19 -2l-9 9
h31v14h-8l-9 -3l-9 10h25l7 6l10 -8l-5 -5v-14h48v-7h-48q0 -13 1 -21zM53 30l-12 -4v7h-8l-9 -2l-9 9h26v12h-8q-4 0 -13 -2l-9 9h30v15h-8l-9 -2l-9 9h26l6 6l11 -10l-6 -4v-14h14v-7h-14q0 -10 1 -22zM61 235l-5 -6h36l7 7l12 -14l-7 -4q-12 -12 -22 -26h-7q8 14 17 30
h-39q-13 -16 -23 -27.5t-20 -18.5l-2 2q8 9 20.5 27t22.5 41l15 -8zM187.5 219.5q-1.5 -3.5 -5.5 -9.5h33l6 8l13 -13l-8 -6q-13 -33 -26 -49q23 -22 46 -28l-1 -3q-10 2 -18 -8q-16 11 -34 30q-22 -21 -50 -31l-1 3q27 15 43 38q-11 19 -16 37q-11 -14 -27 -25l-2 1
q15 17 25 38t12 35l18 -9q-6 -5 -7.5 -8.5zM205.5 105q7.5 -6 3.5 -15t-11.5 3t-21.5 25l1 3q21 -10 28.5 -16zM202.5 64q12.5 -7 14.5 -12.5t-1 -12.5t-11 4.5t-43 35.5l2 3q26 -11 38.5 -18zM173 193q9 -18 19 -33q15 20 21 43h-34z" />
  </g>

</svg>
