<?xml version="1.0" standalone="no"?>
<!DOCTYPE svg PUBLIC "-//W3C//DTD SVG 1.1//EN" "http://www.w3.org/Graphics/SVG/1.1/DTD/svg11.dtd" >
<svg xmlns="http://www.w3.org/2000/svg" xmlns:xlink="http://www.w3.org/1999/xlink" version="1.1" viewBox="0 -36 256 256">
  <g transform="matrix(1 0 0 -1 0 220)">
   <path fill="currentColor"
d="M120 244q47 -20 21 -33h70l13 13l17 -20h-185v-79q0 -66 -45 -113l-3 2q35 46 34 116v46q0 23 -1 46l19 -11h73q1 15 -15 30zM113 128h72v23h-72v-23zM99 157q0 20 -1 38l15 -8h72l8 10l14 -13l-8 -7v-32q0 -15 1 -27l-15 -5v8h-72v-5l-15 -5q1 26 1 46zM110 75l-8 -18
q10 -9 20.5 -15t16.5 -7v62h-51q-10 0 -19 -2l-9 9h151l13 13l16 -20h-87v-26h41l12 11l16 -18h-69v-33q29 -3 51.5 -2t42.5 4v-5q-5 -1 -11.5 -5t-7.5 -10q-28 0 -56.5 2t-45 13t-26.5 24q-17 -29 -50 -44l-2 3q22 15 34 37t16 43l20 -11zM113 158h72v22h-72v-22z" />
  </g>

</svg>
