<?xml version="1.0" standalone="no"?>
<!DOCTYPE svg PUBLIC "-//W3C//DTD SVG 1.1//EN" "http://www.w3.org/Graphics/SVG/1.1/DTD/svg11.dtd" >
<svg xmlns="http://www.w3.org/2000/svg" xmlns:xlink="http://www.w3.org/1999/xlink" version="1.1" viewBox="0 -205 1024 1024">
  <g transform="matrix(1 0 0 -1 0 819)">
   <path fill="currentColor"
d="M244 506h466l30 40l58 -48q3 1 4 -4q3 -12 -8 -12h-472q-18 0 -54 -8l-24 32v0v0zM264 260l46 -32h414l38 32l44 -40q12 -6 12 -14q0 -5 -32 -22v-61l4 -66q0 -15 -18 -24t-36 -10v48h-420v-26q0 -12 -18 -22q-18 -9 -36 -12l2 98v151v0v0zM316 97h420v105h-420v-105v0v0
zM250 414h454l30 40l54 -44q3 -3 4 -8q0 -12 -12 -12h-452q-19 0 -56 -8l-22 32v0v0zM252 322h462l36 42l54 -46q3 -3 4 -8q0 -12 -12 -12h-466q-19 0 -58 -8l-20 32v0v0zM452 632l8 12q69 -30 90 -50q18 -21 18 -42q-1 -19 -14 -28q-13 -10 -26 -4q-11 6 -16 28
q-6 21 -20 42q-13 21 -40 42v0v0zM466 882q12 36 24 100l78 -32q3 -3 4 -8q3 -7 -14 -8q-17 -10 -22 -22q-6 -12 -18 -42q-13 -30 -32 -78h120q70 87 116 162q63 -36 66 -42q4 -3 2 -8q-1 -6 -14 -6q-12 -1 -36 -14q-24 -12 -102 -92h166l46 54l64 -64q3 -3 4 -6
q0 -10 -12 -10h-432q-11 -31 -46 -82h446l42 50l64 -56q3 -3 4 -8q0 -12 -12 -12h-286q35 -36 80 -66q41 -30 92 -48q50 -19 146 -20v-16q-24 -1 -44 -10q-21 -10 -36 -34q-69 24 -116 54q-45 29 -80 62q-33 30 -68 78h-248q-81 -93 -162 -146q-79 -54 -212 -108l-8 14
q118 63 188 114q69 51 138 126h-232q-15 0 -66 -8l-16 34h332q31 42 50 82h-218q-20 0 -64 -8l-20 34h314q18 51 30 90v0v0zM226 932l6 14q58 -23 92 -46q32 -24 38 -44q6 -18 -2 -36q-9 -19 -26 -16q-16 0 -22 24t-24 48q-15 23 -62 56v0v0z" />
  </g>

</svg>
