<?xml version="1.0" standalone="no"?>
<!DOCTYPE svg PUBLIC "-//W3C//DTD SVG 1.1//EN" "http://www.w3.org/Graphics/SVG/1.1/DTD/svg11.dtd" >
<svg xmlns="http://www.w3.org/2000/svg" xmlns:xlink="http://www.w3.org/1999/xlink" version="1.1" viewBox="0 -36 256 256">
  <g transform="matrix(1 0 0 -1 0 220)">
   <path fill="currentColor"
d="M216 199h-174q1 -17 -4.5 -25.5t-15.5 -6.5t-3 9.5t11 15.5t7 25h4l1 -11h85q0 16 -17 35l2 3q27 -11 30 -19.5t-6 -18.5h80l9 12l18 -17q-15 -4 -37 -30l-3 2zM117 69v59q0 29 -1 52l26 -11l-10 -8v-91q0 -21 1 -50l-17 -9q1 26 1 58zM82 154l-8 -9q0 -44 -13.5 -78
t-46.5 -55l-3 3q30 29 39.5 60.5t8.5 87.5zM173 163l17 -7l-8 -7q0 -40 16 -73t45 -48v-4q-18 3 -24 -8q-17 18 -30.5 51.5t-15.5 95.5z" />
  </g>

</svg>
