<?xml version="1.0" standalone="no"?>
<!DOCTYPE svg PUBLIC "-//W3C//DTD SVG 1.1//EN" "http://www.w3.org/Graphics/SVG/1.1/DTD/svg11.dtd" >
<svg xmlns="http://www.w3.org/2000/svg" xmlns:xlink="http://www.w3.org/1999/xlink" version="1.1" viewBox="0 -205 1024 1024">
  <g transform="matrix(1 0 0 -1 0 819)">
   <path fill="currentColor"
d="M724 422q3 -3 4 -6q0 -4 -8 -10l-28 -8v-40h186l38 44l60 -50q3 -3 4 -8q0 -12 -12 -12h-240q26 -51 64 -90q36 -37 84 -70q48 -31 132 -45v-18q-33 -1 -56 -8q-22 -5 -40 -28q-51 34 -92 77q-42 44 -72 94t-44 88h-12v-201l4 -72q-1 -11 -22 -26q-21 -12 -36 -12l4 112
v173q-63 -78 -144 -144q-78 -62 -176 -109l-8 12q87 60 156 121q67 59 128 146h-158q-22 0 -52 -12l-28 38h282v90l82 -26v0v0zM506 980q73 -30 74 -36q6 -9 -8 -12q-22 -1 -38 -28q-15 -27 -38 -66h354l34 46l58 -54q3 -3 4 -8q0 -9 -8 -8h-236v-96h120l32 38l56 -48
q3 -3 4 -8q-1 -7 -10 -8h-202v-80h114l34 36l48 -46q3 -3 4 -8q-1 -7 -10 -8h-190v-90h150l36 40l54 -48q3 -4 4 -10q-1 -7 -10 -8h-448v-32q2 -21 -16 -32q-18 -13 -36 -14l4 148v202q-51 -69 -86 -110l-14 12q43 69 86 150t80 186v0v0zM488 496h164v90h-164v-90v0v0z
M488 612h164v80h-164v-80v0v0zM652 718v96h-164v-96h164v0v0zM614 990l8 10q74 -42 92 -62q15 -22 18 -40q0 -18 -12 -30q-11 -12 -28 -8q-15 3 -18 22q-3 15 -12 40q-6 23 -48 68v0v0zM24 700h144v290l78 -34q8 -4 8 -8q3 -1 -2 -10l-32 -16v-222h46l30 40l48 -48
q12 -15 -6 -20h-118v-322l134 60l10 -16q-159 -90 -216 -126q-55 -35 -82 -70l-54 58l156 72v344h-62q-21 0 -66 -8l-16 36v0v0z" />
  </g>

</svg>
