<?xml version="1.0" standalone="no"?>
<!DOCTYPE svg PUBLIC "-//W3C//DTD SVG 1.1//EN" "http://www.w3.org/Graphics/SVG/1.1/DTD/svg11.dtd" >
<svg xmlns="http://www.w3.org/2000/svg" xmlns:xlink="http://www.w3.org/1999/xlink" version="1.1" viewBox="0 -205 1024 1024">
  <g transform="matrix(1 0 0 -1 0 819)">
   <path fill="currentColor"
d="M68 892h774l44 50l62 -56q3 -3 4 -8q0 -12 -12 -12h-418l-86 -148h332l34 40l58 -40q8 -6 8 -12q1 -6 -28 -24v-214q1 -36 -12 -56q-11 -22 -52 -40q-12 32 -30 44q-17 9 -64 24l6 16q52 -12 80 -12q27 -1 22 32v214h-146v-142l4 -72q3 -12 -18 -26q-19 -13 -40 -14
l4 110v146h-146v-168l4 -62q-1 -13 -22 -26t-36 -14l4 92v178h-148v-218l4 -56q0 -12 -20 -30q-22 -15 -38 -14l4 92v294l56 -42h154l48 148h-306q-21 0 -68 -8l-16 34v0v0zM370 270v-128q0 -40 24 -47q25 -6 68 -6h160q30 0 40 8q8 6 14 20q6 15 10 41q3 24 10 102h22
q0 -69 6 -102q5 -28 34 -43q-16 -35 -38 -52q-21 -15 -74 -18h-210q-51 -1 -84 12q-30 15 -32 72v207l70 -32q16 -7 8 -14q-7 -7 -28 -20v0v0zM206 306q-3 -81 -14 -122q-12 -41 -32 -63q-19 -24 -40 -30q-20 -6 -34 -4q-12 4 -18 20q-7 14 10 28q15 13 36 25q19 11 38 38
q21 27 36 108h18v0v0zM446 388q90 -42 114 -68q24 -24 28 -48q1 -24 -10 -36q-10 -12 -28 -8q-16 3 -22 30t-20 48q-12 20 -68 70l6 12v0v0zM770 324q78 -45 114 -74q36 -30 52 -54q16 -25 14 -44q-1 -17 -10 -31q-9 -12 -26 -10q-18 4 -24 29q-6 28 -32 68q-25 40 -94 104
l6 12v0v0z" />
  </g>

</svg>
