<?xml version="1.0" standalone="no"?>
<!DOCTYPE svg PUBLIC "-//W3C//DTD SVG 1.1//EN" "http://www.w3.org/Graphics/SVG/1.1/DTD/svg11.dtd" >
<svg xmlns="http://www.w3.org/2000/svg" xmlns:xlink="http://www.w3.org/1999/xlink" version="1.1" viewBox="0 -36 256 256">
  <g transform="matrix(1 0 0 -1 0 220)">
   <path fill="currentColor"
d="M76 221q25 -10 36 -16.5t8 -19.5t-12.5 1t-34.5 31q-22 -42 -62 -74l-3 3q24 25 42 58t18 42l21 -12q-6 -1 -13 -13zM109 118q0 -21 1 -34l-14 -9v8h-50v-47l45 18q-4 8 -13 22l3 2q22 -17 28.5 -27t0 -19t-10 0t-6.5 17q-50 -28 -53 -37l-11 16q4 6 4 13v76q0 25 -1 44
l15 -10h49l6 10l15 -15l-8 -6v-22zM46 120h50v24h-50v-24zM46 90h50v23h-50v-23zM235 123q0 -12 1 -29l-14 -7v12h-34q0 -62 1 -85l-15 -7q1 24 1 92h-33v-13l-14 -9q1 20 1 71t-1 76l14 -10h79l7 10l14 -14l-7 -7v-80zM142 159h33v48h-33v-48zM188 159h34v48h-34v-48z
M142 106h33v46h-33v-46zM188 106h34v46h-34v-46zM81 178l12 11l13 -18h-43q-11 0 -13 -2l-4 9h35z" />
  </g>

</svg>
