<?xml version="1.0" standalone="no"?>
<!DOCTYPE svg PUBLIC "-//W3C//DTD SVG 1.1//EN" "http://www.w3.org/Graphics/SVG/1.1/DTD/svg11.dtd" >
<svg xmlns="http://www.w3.org/2000/svg" xmlns:xlink="http://www.w3.org/1999/xlink" version="1.1" viewBox="0 -154 1024 1024">
  <g transform="matrix(1 0 0 -1 0 870)">
   <path fill="currentColor"
d="M478 759l37 -33h143v214q2 16 -25 42l8 11l82 -34q14 -5 6 -11q-16 -3 -27 -15v-82h165l26 34l62 -42q17 -12 -6 -12h-247v-105h116l37 39l50 -47q14 -12 -6 -17l-18 -9v-78l5 -86q0 -30 -49 -36v31h-307v-14q1 -38 -51 -44q5 37 7 148v95q-3 24 -20 40zM530 543h307v163
h-307v-163zM392 332h275v118q2 17 -30 36l7 12l90 -25q15 -5 8 -11q-21 -9 -30 -22v-108h53l27 42q38 55 38 63t-6 20l10 8l54 -33q17 -11 7 -16q-25 1 -39 -11q-22 -30 -66 -73h105l30 41l72 -48q17 -13 -6 -13h-246q48 -78 120 -129q71 -50 142 -62l-3 -14q-36 4 -67 -28
q-63 29 -123 92t-93 141h-9v-150l3 -101q-9 -41 -55 -48q5 41 7 196v103h-13q-54 -97 -127 -154t-178 -96l-7 12q150 75 261 238h-132q-27 1 -45 -14zM491 446l5 9q81 -28 91 -66q11 -38 -12 -46q-15 -3 -19 18t-16 40t-49 45zM46 274l-12 10q49 65 85 140q38 72 57 129
q17 51 34 123h-104q-27 0 -45 -13l-34 33h202v179q-77 -17 -160 -29l-2 13q120 35 172 52q53 15 74 25q21 9 32 15q9 6 14 26l10 1l53 -52q15 -16 3 -19q-25 9 -71 1q-40 -12 -81 -23v-189h78l32 40l69 -50q15 -13 -6 -10h-173v-95q51 -20 80 -42q34 -27 47 -54t7 -43
q-6 -18 -22 -19q-15 -3 -26 32q-11 33 -32 61q-16 21 -54 45v-390l2 -98q0 -21 -15 -31q-14 -9 -38 -15q4 39 7 191v358q-18 -54 -39 -95q-40 -77 -71 -120q-30 -42 -73 -87z" />
  </g>

</svg>
