<?xml version="1.0" standalone="no"?>
<!DOCTYPE svg PUBLIC "-//W3C//DTD SVG 1.1//EN" "http://www.w3.org/Graphics/SVG/1.1/DTD/svg11.dtd" >
<svg xmlns="http://www.w3.org/2000/svg" xmlns:xlink="http://www.w3.org/1999/xlink" version="1.1" viewBox="0 -205 1024 1024">
  <g transform="matrix(1 0 0 -1 0 819)">
   <path fill="currentColor"
d="M457 658q-5 5 -5 8h-53q-42 -1 -73 -7q-9 -3 -10 6q-5 18 -20 31q-8 7 -4 11q4 3 11 -1q38 -9 84 -9h230q-1 56 -55 120q-4 7 0 13q4 5 16 -2q85 -41 88 -74q3 -21 -13 -49q-4 -4 -5 -8h186q14 1 30 19l26 37q7 9 16 0q71 -63 70 -78q-2 -8 -15 -9h-149
q-31 -57 -109 -118q-19 -13 -35 -26q61 -33 112 -46q65 -15 194 -19q8 1 8 -8q-1 -9 -11 -10q-39 -4 -51 -46q-2 -5 -14 -4q-35 5 -77 18q-73 14 -198 91q-61 -37 -125 -59q-98 -33 -210 -46q-25 0 -24 16q0 16 18 16q145 8 304 93q-77 55 -137 140zM477 666
q45 -71 149 -128q91 64 126 128h-275zM730 412q5 3 15 -1q38 -16 62 -28q5 -3 5 -7q-2 -5 -6 -6q-15 -3 -19 -10q-4 -8 -5 -21v-212q1 -18 2 -45q1 -9 -6 -13q-44 -21 -47 -20q-4 3 -1 13q3 25 4 65v212q-1 30 -4 55q-4 14 0 18zM467 412q54 -17 72 -27q14 -8 1 -14
q-19 -11 -23 -20q-7 -18 -7 -79q-1 -70 -14 -101q-15 -37 -55 -62q-48 -31 -172 -62q-19 -6 -22 4q-4 12 9 16q162 47 190 105q26 58 11 227q-2 16 10 13zM80 793q10 5 17 -8q78 -104 66 -143q-9 -23 -28 -30q-19 -6 -25 -5q-5 3 -4 25q-2 94 -29 145q-4 10 3 16zM574 893
q-12 59 -33 89q-8 8 -1 15q8 7 18 -3q70 -54 70 -78q-5 -25 -32 -43h258q13 0 23 12l35 41q9 8 16 1q26 -28 45 -53q11 -15 8 -24q-3 -7 -18 -8h-692v-65q-1 -329 -32 -461q-47 -146 -168 -245q-13 -9 -20 1t3 17q36 37 63 71q87 116 100 356q-103 -78 -121 -109
q-8 -12 -15 1q-17 26 -33 39q-13 13 3 14q62 17 165 74q1 1 2 1q5 87 5 196v89q-1 38 -10 78q-1 8 3 11q5 1 12 -6q15 -15 43 -31h309q-5 7 -6 20z" />
  </g>

</svg>
