<?xml version="1.0" standalone="no"?>
<!DOCTYPE svg PUBLIC "-//W3C//DTD SVG 1.1//EN" "http://www.w3.org/Graphics/SVG/1.1/DTD/svg11.dtd" >
<svg xmlns="http://www.w3.org/2000/svg" xmlns:xlink="http://www.w3.org/1999/xlink" version="1.1" viewBox="0 -36 256 256">
  <g transform="matrix(1 0 0 -1 0 220)">
   <path fill="currentColor"
d="M133 171h86v30h-86v-30zM159 248q19 -7 24.5 -15t-1 -18t-9.5 2.5t-16 27.5zM109.5 65.5q6.5 25.5 9 53.5t0.5 99l14 -10h85l9 9l12 -12l-7 -6v-12q0 -18 1 -24l-14 -5v6h-86q1 -53 -10 -92.5t-36 -63.5l-3 1q19 31 25.5 56.5zM133 45v76q0 11 -1 26l13 -8h80l7 10
l13 -12l-6 -6v-95q1 -20 -18 -27q-1 13 -24 18v4q16 -2 23 -2t6 13v90h-81v-118l-13 -7q1 21 1 38zM170 62h28v43h-28v-43zM158 80q0 20 -1 38l12 -6h28l9 10l12 -13l-7 -5v-32q0 -8 1 -22l-14 -6v11h-28v-8l-13 -4q1 17 1 37zM32 60.5q-4 15.5 -15 36.5l2 3
q15 -13 23.5 -23t1 -21t-11.5 4.5zM89 167l16 -17h-37v-29h13l13 10l13 -17h-39v-53q10 13 25 47l14 -15l-8 -6q-13 -14 -31 -33v-11l33 8l1 -4q-48 -17 -77 -30l-10 17q16 1 41 8v72h-13q-12 0 -21 -2l-8 9h42v29h-8q-4 0 -10 -2l-6 5q-10 -14 -21 -24l-3 2q33 53 52 116
l18 -10l-7 -5q-4 -9 -6 -13q23 -8 32.5 -14t6 -18.5t-11.5 0t-28 28.5q-16 -37 -29 -58h42z" />
  </g>

</svg>
