<?xml version="1.0" standalone="no"?>
<!DOCTYPE svg PUBLIC "-//W3C//DTD SVG 1.1//EN" "http://www.w3.org/Graphics/SVG/1.1/DTD/svg11.dtd" >
<svg xmlns="http://www.w3.org/2000/svg" xmlns:xlink="http://www.w3.org/1999/xlink" version="1.1" viewBox="0 -205 1048 1024">
  <g transform="matrix(1 0 0 -1 0 819)">
   <path fill="currentColor"
d="M990 121q-31 3 -48 -12t-20 -15q-9 0 -27 15q-74 74 -125 167q-56 102 -91 263h-11q-30 -44 -98 -119v-228l181 43l5 -10q-151 -59 -333 -115q-4 -32 -21 -32q-12 0 -21 23l-21 47q60 11 166 35v204q-87 -65 -200 -111l-5 10q86 47 164 116t120 137h-203v21h251v120h-195
v22h195v112h-228v21h228v98l-5 45l48 -9q32 -6 32 -17q0 -10 -30 -20v-97h163l20 30q9 15 13 15q6 0 20 -12l48 -38l-13 -16h-251v-112h125l18 28q7 13 14 13q5 0 16 -11l41 -37l-10 -15h-204v-120h187l21 32q8 14 13 14t21 -13l44 -37l-10 -17h-278q32 -126 83 -213
q88 58 145 145l28 -32q13 -15 13 -23q0 -14 -34 -4q-51 -49 -143 -101q32 -56 86 -103q53 -55 121 -75zM403 409q-125 -61 -276 -113q-9 -35 -22 -35q-9 0 -18 22l-18 46q92 21 129 32v319h-114v22h114v207l-4 67l44 -7q41 -7 41 -17q0 -9 -36 -27v-223h46l17 28
q10 17 15 17q4 0 18 -12l44 -36l-7 -19h-133v-308q36 10 155 51z" />
  </g>

</svg>
