<?xml version="1.0" standalone="no"?>
<!DOCTYPE svg PUBLIC "-//W3C//DTD SVG 1.1//EN" "http://www.w3.org/Graphics/SVG/1.1/DTD/svg11.dtd" >
<svg xmlns="http://www.w3.org/2000/svg" xmlns:xlink="http://www.w3.org/1999/xlink" version="1.1" viewBox="0 -205 1024 1024">
  <g transform="matrix(1 0 0 -1 0 819)">
   <path fill="currentColor"
d="M406 734l56 -48h314l32 44l54 -42q12 -4 12 -14q1 -4 -34 -34v-545h54l32 51l60 -57q3 -2 4 -8q0 -12 -14 -12h-638q-18 1 -66 -8l-18 34h152v639v0v0zM456 95h334v179h-334v-179v0v0zM456 298h334v168h-334v-168v0v0zM456 490h334v170h-334v-170v0v0zM866 826l40 56
l64 -64q3 -6 4 -6q-1 -10 -10 -10h-684v-240q1 -235 -64 -350q-63 -112 -168 -193l-8 12q71 73 128 173q54 99 64 274q-134 -99 -148 -138l-48 50l194 108v384l56 -56h580v0v0zM492 968l8 12q65 -27 94 -44q27 -15 40 -32t6 -40q-7 -24 -28 -24q-22 -1 -32 26q-8 26 -22 44
q-15 18 -66 58v0v0zM78 756l14 10q39 -45 60 -80q20 -33 26 -62q3 -30 -6 -44q-10 -16 -22 -16q-13 -1 -22 8q-9 8 -6 34q1 27 -6 66q-9 39 -38 84v0v0z" />
  </g>

</svg>
