<?xml version="1.0" standalone="no"?>
<!DOCTYPE svg PUBLIC "-//W3C//DTD SVG 1.1//EN" "http://www.w3.org/Graphics/SVG/1.1/DTD/svg11.dtd" >
<svg xmlns="http://www.w3.org/2000/svg" xmlns:xlink="http://www.w3.org/1999/xlink" version="1.1" viewBox="0 -154 1024 1024">
  <g transform="matrix(1 0 0 -1 0 870)">
   <path fill="currentColor"
d="M888 412l57 -53q12 -12 0 -14q-27 9 -52 -8t-118 -72l5 -8q25 -45 64 -83q36 -37 71 -61q34 -23 82 -35v-15q-36 1 -49 1t-27 -20q-47 32 -98 92q-54 59 -88 137q-33 72 -44 178h-61v-347q75 42 123 74l9 -16q-46 -32 -99 -72q-34 -25 -42 -37q-9 -11 -21 -33l-38 44
q15 9 22 25v362h-17q-24 0 -39 -13l-30 33h105v398q3 21 -17 43l9 14l40 -33h245l22 36l55 -44q12 -13 -6 -13h-305v-127h185l22 36l55 -40q12 -12 -6 -12h-256v-124h174l23 36l54 -44q13 -9 -5 -8h-246v-118h255l26 40l58 -50q12 -10 -6 -10h-270q7 -52 25 -97
q14 -39 32 -73q58 43 85 66q28 24 31 37q3 12 -1 22zM315 937q15 -6 2 -11q-21 -8 -31 -23l-20 -116h176l33 41l46 -64q1 -12 -8 -7q-13 -1 -24 -7q-11 -7 -20 -19l-55 -70l-9 6l48 100h-191l-11 -58l-19 -77q-18 -66 -40 -126v-389q77 38 144 86l15 -14l-51 -39
q-58 -46 -88 -70t-48 -54l-48 55q18 9 32 25v301q-47 -90 -116 -184l-10 10q146 265 195 534h-95q0 -9 -1 -18q-3 -39 -16 -68q-13 -30 -34 -39q-21 -11 -29 7q-9 16 12 36l33 48q13 29 19 89h15q1 -18 1 -35h99l6 35q15 89 11 104q-3 14 -22 23l8 10zM228 518
q56 -32 110 -75l46 66q54 80 53 92q-3 10 -10 27l11 8l66 -42q16 -12 7 -15q-22 -1 -36 -16q-59 -68 -121 -133l43 -41q66 -71 83 -120q18 -49 -7 -64q-22 -14 -39 33q-11 51 -68 127q-64 82 -144 142z" />
  </g>

</svg>
