<?xml version="1.0" standalone="no"?>
<!DOCTYPE svg PUBLIC "-//W3C//DTD SVG 1.1//EN" "http://www.w3.org/Graphics/SVG/1.1/DTD/svg11.dtd" >
<svg xmlns="http://www.w3.org/2000/svg" xmlns:xlink="http://www.w3.org/1999/xlink" version="1.1" viewBox="0 -36 256 256">
  <g transform="matrix(1 0 0 -1 0 220)">
   <path fill="currentColor"
d="M74 218l11 11l14 -18h-39q-8 -41 -14 -59h25l8 9l13 -11l-7 -8q0 -79 1 -98l-14 -7v17h-26v-24l-14 -6q1 35 1 95q-8 -23 -27 -46l-2 2q31 58 42 136h-5q-10 -1 -19 -3l-9 10h61zM46 61h26v84h-26v-84zM147.5 122.5q3.5 -38.5 2 -61.5t-9.5 -35.5t-20 -16.5q1 12 -23 21
v4q20 -4 27 -2t10.5 20.5t0.5 62.5q-24 -34 -41 -46l-2 3q25 29 41 69q-4 23 -10 41q-12 -15 -25 -28l-3 3q16 21 24 36q-14 23 -25 37l2 3q13 -11 29 -32q16 29 19 40l17 -14l-9 -4l-21 -30q13 -32 16.5 -70.5zM198 231q-5 -2 -9 -13t-7 -24h43l8 11l12 -13l-8 -7
q-1 -81 -2.5 -108t-6.5 -45.5t-27 -23.5q-2 16 -26 21v5q26 -4 34.5 -3t11.5 35t3 121h-45q-8 -32 -27 -60l-3 2q14 33 21.5 67t7.5 48zM177 140q18 -16 25.5 -29.5t0 -25.5t-10.5 5.5t-17 47.5z" />
  </g>

</svg>
