<?xml version="1.0" standalone="no"?>
<!DOCTYPE svg PUBLIC "-//W3C//DTD SVG 1.1//EN" "http://www.w3.org/Graphics/SVG/1.1/DTD/svg11.dtd" >
<svg xmlns="http://www.w3.org/2000/svg" xmlns:xlink="http://www.w3.org/1999/xlink" version="1.1" viewBox="0 -205 1024 1024">
  <g transform="matrix(1 0 0 -1 0 819)">
   <path fill="currentColor"
d="M472 866h200v122l74 -30q3 -3 4 -6v-8l-30 -16v-62h130l28 36l52 -40q6 -6 6 -14q1 -5 -28 -22v-64h24l26 36l42 -40q3 -1 6 -4q2 -4 4 -10q0 -6 -8 -6h-94v-52l4 -42q0 -18 -14 -30q-15 -9 -36 -8v30h-142v-260h176v70h-78l-28 -32l-52 42l26 22v136l60 -22q12 -6 4 -14
l-20 -14v-94h86v120l74 -26q9 -12 -2 -18l-24 -14v-415l4 -64q-6 -18 -24 -24q-18 -7 -32 -8l4 90v125h-78v-107l4 -58q-3 -15 -18 -24q-15 -7 -36 -8l4 88v169l48 -36h78v92h-176v-227l4 -72q-1 -15 -20 -28q-18 -13 -36 -14l4 120v221h-162q-1 -48 -4 -92h62l24 32l46 -38
q12 -9 0 -18l-20 -16v-105l4 -54q-3 -11 -18 -20q-14 -7 -34 -8l4 80v123h-72q-15 -76 -48 -123q-34 -48 -106 -100l-10 12q53 55 80 98q26 40 38 113q10 71 8 214v160l62 -24q18 -9 12 -18l-26 -12v-82h74v148l58 -26q13 -4 8 -16l-24 -14v-82l4 -50q-9 -16 -20 -20
q-10 -3 -26 -12v48h-74q0 -42 -2 -74h162v260h-130q-24 0 -48 -6l-24 30h202v78h-164q-21 -1 -54 -10l-20 34h238v78h-134q-27 0 -38 -8l-28 34v0v0zM720 840v-78h142v78h-142v0v0zM720 738v-78h142v78h-142v0v0zM108 908h224l38 44l62 -56q2 0 2 -6q0 -10 -8 -10h-168v-116
h56l36 40l54 -50q3 -4 4 -8q0 -9 -8 -8h-142v-108h62l34 40l50 -50q2 -4 2 -8q0 -9 -8 -8h-140v-124h78l20 28l54 -36q12 -10 -6 -22l-14 -10q1 -120 -4 -206q-3 -85 -12 -111q-10 -26 -28 -44t-56 -34q-6 27 -26 42q-20 13 -94 34l4 19q44 -8 74 -15q30 -4 48 -2
q19 4 32 33q12 30 12 102q2 71 2 194h-232v-12q1 -9 -16 -18q-18 -15 -38 -14l4 136v404l48 -40v0v0zM110 480h100v124h-100v-124v0v0zM110 630h100v108h-100v-108v0v0zM210 764v116h-100v-116h100v0v0zM74 380h18q7 -102 2 -140q-4 -39 -20 -56q-14 -15 -34 -18
q-21 -4 -26 14q-7 17 10 34q17 18 28 42t22 124v0v0zM170 396l12 8q55 -60 68 -90q11 -28 8 -44q-3 -15 -14 -24q-12 -10 -24 -4t-12 24t-6 48q-4 27 -32 82v0v0zM242 414l10 10q42 -44 60 -76q17 -31 14 -52q-3 -20 -14 -28q-12 -10 -24 -4q-12 5 -12 28q1 21 -4 46
q-6 24 -30 76v0v0zM114 376l14 6q38 -57 50 -90q9 -33 6 -50q-3 -19 -18 -28t-26 -2q-13 6 -10 30q1 21 2 48q0 25 -18 86v0v0z" />
  </g>

</svg>
