<?xml version="1.0" standalone="no"?>
<!DOCTYPE svg PUBLIC "-//W3C//DTD SVG 1.1//EN" "http://www.w3.org/Graphics/SVG/1.1/DTD/svg11.dtd" >
<svg xmlns="http://www.w3.org/2000/svg" xmlns:xlink="http://www.w3.org/1999/xlink" version="1.1" viewBox="0 -36 256 256">
  <g transform="matrix(1 0 0 -1 0 220)">
   <path fill="currentColor"
d="M150 104h25v53h-25v-53zM187 104h26v53h-26v-53zM198 203h-40q-6 -13 -16 -33l9 -6h30zM120 138l-4 3q11 20 24 50.5t18 55.5l20 -13l-8 -4l-9 -20h38l5 9l17 -13q-8 -4 -15 -12.5t-20 -29.5h26l8 9l13 -11l-7 -6v-38q0 -11 1 -21l-14 -9v9h-63v-56q0 -17 19 -15h47
q11 0 12 15.5t1 32.5h5q1 -22 2 -32.5t11 -13.5q-6 -13 -22 -14h-67q-20 -1 -21 22v128q-8 -13 -17 -26zM115 246l11 -20l-11 2q-47 -10 -96 -13v5q70 9 96 26zM27 204l2 3q14 -7 20 -12t1 -15t-9.5 2t-13.5 22zM65 215q17 -9 22 -15t-1.5 -14.5t-9 3t-14.5 23.5zM116 219
l16 -14l-9 -2q-9 -12 -27 -28l-3 4q17 23 23 40zM84 174l-10 -1q-14 -12 -28 -22l38 1q16 14 21 23l17 -16l-8 1q-31 -25 -68 -46l59 2q-6 8 -15 19l2 2q20 -11 27 -19.5t1 -16.5t-8 -2t-6 13l-39 -5l20 -7l-8 -4l-1 -14h31l11 10l15 -17h-58l-2 -11q28 -10 39 -19t5 -22
t-12.5 2.5t-32.5 33.5q-14 -35 -64 -51l-1 4q30 16 41 29.5t14 33.5h-26q-10 0 -19 -2l-9 9h55q1 12 1 25q-13 -2 -34 -9l-10 17q9 -1 22.5 7t31.5 24q-31 -5 -44 -11l-8 18q7 -3 21 8.5t22 25.5z" />
  </g>

</svg>
