<?xml version="1.0" standalone="no"?>
<!DOCTYPE svg PUBLIC "-//W3C//DTD SVG 1.1//EN" "http://www.w3.org/Graphics/SVG/1.1/DTD/svg11.dtd" >
<svg xmlns="http://www.w3.org/2000/svg" xmlns:xlink="http://www.w3.org/1999/xlink" version="1.1" viewBox="0 -339 2048 2048">
  <g transform="matrix(1 0 0 -1 0 1709)">
   <path fill="currentColor"
d="M1475 1180v-274h202l99 102l120 -108q10 -9 12 -11t3 -5q2 -4 2 -9q0 -10 -6 -16q-8 -10 -21 -10h-411v-277h187l99 101l120 -106q13 -12 15 -17q2 -4 2 -9q0 -9 -6 -16q-8 -10 -21 -10h-396v-280h255l98 104l121 -107q10 -9 12 -11t3 -5q2 -4 2 -9q0 -10 -6 -17
q-8 -10 -22 -10h-878v-93q0 -10 -7 -16q-6 -7 -19 -11q-12 -4 -26 -4q-20 0 -37 10t-17 34q0 4 5 41l3 63l3 49v849q-41 -36 -61 -51.5t-59 -43.5q-18 -12 -63 -44l-21 31q87 74 148 141q73 78 135 174q76 117 113 205q18 41 44 113h-223q0 -47 -3 -72q-13 -83 -58 -129
q-33 -34 -75 -43q-5 -1 -9 -1q-15 0 -28 9q-23 14 -23 43q0 19 13 38q9 12 39 34q32 24 53 49q29 33 44 125q6 35 7 92h35q5 -45 5 -88h242q26 82 38 136q2 12 13 68q4 17 11 50l118 -35q61 -18 61 -41q0 -12 -13 -22q-12 -10 -33 -14l-47 -9q-19 -69 -41 -133h483l53 64
l64 -45q51 -36 57 -51q2 -5 2 -8q0 -18 -18 -29q-6 -3 -37 -11q-18 -4 -35 -9q-23 -30 -47 -57q-44 -51 -62 -70q-15 -17 -53 -50l-31 24q40 58 62 96q17 33 42 89h-501q-48 -120 -92 -201q-37 -68 -77 -124q-15 -22 -48 -65h349q-8 9 -11 17q-1 2 -9 35q-11 47 -29 80
q-19 34 -53 72q-13 14 -30 31l21 26q56 -32 83 -51q64 -45 95 -95q21 -35 21 -62q0 -15 -7 -27q-6 -10 -25 -26h214l99 102l120 -107q12 -11 15 -16q2 -6 2 -10q0 -9 -7 -16q-8 -10 -20 -10h-442zM1060 1180v-274h320v274h-320zM1060 849v-277h320v277h-320zM1060 235h320
v280h-320v-280zM365 514v552h-29q-115 0 -191 -8l-39 88q30 -7 52 -11q73 -12 178 -12h29v490h-59q-115 0 -192 -8l-38 88q30 -8 52 -11q73 -12 178 -12h261l98 101l121 -106q12 -11 14 -16q2 -4 2 -10q0 -9 -6 -16q-8 -10 -21 -10h-314v-490h84l99 102l120 -107
q12 -11 15 -16q2 -5 2 -10q0 -8 -6 -16q-8 -10 -21 -10h-293v-524q127 37 303 109l19 -36q-83 -49 -144 -78q-47 -23 -196 -84q-100 -41 -169 -65q-22 -7 -63 -20l-11 -42q-8 -32 -26 -32q-6 0 -10 4q-6 5 -17 26l-70 131q49 8 142 26q92 17 146 33z" />
  </g>

</svg>
