<?xml version="1.0" standalone="no"?>
<!DOCTYPE svg PUBLIC "-//W3C//DTD SVG 1.1//EN" "http://www.w3.org/Graphics/SVG/1.1/DTD/svg11.dtd" >
<svg xmlns="http://www.w3.org/2000/svg" xmlns:xlink="http://www.w3.org/1999/xlink" version="1.1" viewBox="0 -36 256 256">
  <g transform="matrix(1 0 0 -1 0 220)">
   <path fill="currentColor"
d="M62 206.5q-4 14.5 -17 32.5l1 2q21 -12 26.5 -19.5t-0.5 -18.5t-10 3.5zM83 194l13 -14l-8 -5q-8 -20 -20 -40v-17l5 -2q10 12 19 34l14 -12q-10 -3 -29 -24q13 -5 19.5 -12t2 -17t-10.5 3t-20 26v-99l-12 -6v108q-18 -25 -47 -44l-2 3q18 17 36.5 42t31.5 60h-28
q-10 0 -20 -2l-9 9h56zM207 202l15 12l18 -19h-101q-11 0 -22 -2l-10 9h100zM158 172q4 -7 -1.5 -15t-9 3.5t-14.5 28.5l3 2q18 -12 22 -19zM138 100h-14q-10 0 -19 -2l-9 9h45q10 23 12 36h-23q-11 0 -20 -2l-9 9h80q11 30 14 43l18 -10q-9 -4 -27 -33h28l15 12l15 -19h-85
l15 -8l-8 -5q-5 -10 -12 -23h42l5 18l19 -9l-6 -4l-3 -5h9l13 12l15 -19h-39q-10 -28 -23 -45q30 -11 39 -17.5t8 -17.5t-14.5 0.5t-39.5 25.5q-20 -17 -42.5 -25.5t-38.5 -11.5l-1 4q22 7 40 17t30 21q-30 10 -47 13q7 10 18 36zM134 67q23 -4 40 -8q10 13 20 41h-43
q-9 -18 -17 -33zM182.5 226.5q8.5 -7.5 1.5 -17.5t-11.5 2t-19.5 29l3 3q18 -9 26.5 -16.5z" />
  </g>

</svg>
