<?xml version="1.0" standalone="no"?>
<!DOCTYPE svg PUBLIC "-//W3C//DTD SVG 1.1//EN" "http://www.w3.org/Graphics/SVG/1.1/DTD/svg11.dtd" >
<svg xmlns="http://www.w3.org/2000/svg" xmlns:xlink="http://www.w3.org/1999/xlink" version="1.1" viewBox="0 -36 256 256">
  <g transform="matrix(1 0 0 -1 0 220)">
   <path fill="currentColor"
d="M140 195q0 15 -1 32l17 -10h40l8 11l15 -14l-8 -6v-51q0 -21 -20 -25q0 15 -24 17v4q32 -4 30 7v50h-43v-106q1 -12 14 -12h48q8 0 9 50h4q0 -44 14 -48q-8 -15 -27 -15h-54q-20 -1 -22 19v97zM118 216l18 -15l-9 -7q-20 -97 -113 -134l-1 4q82 46 98 134h-39
q-6 -14 -16 -28q15 -7 21.5 -16t1 -19.5t-10 2.5t-14.5 28q-18 -22 -34 -35l-2 3q41 52 54 113l24 -10l-10 -6l-10 -25h34zM45.5 21q-4.5 -9 -13 -10t-14.5 2t7.5 13.5t22.5 37.5h4q-2 -34 -6.5 -43zM109 32.5q3 -11.5 -5.5 -19.5t-9.5 8t-10 45l3 1q19 -23 22 -34.5z
M168.5 36.5q5.5 -11.5 -3.5 -21.5t-11 8t-14 41l3 2q20 -18 25.5 -29.5zM229 39q9 -11 1.5 -23.5t-12.5 6t-23 43.5l3 2q22 -17 31 -28z" />
  </g>

</svg>
