<?xml version="1.0" standalone="no"?>
<!DOCTYPE svg PUBLIC "-//W3C//DTD SVG 1.1//EN" "http://www.w3.org/Graphics/SVG/1.1/DTD/svg11.dtd" >
<svg xmlns="http://www.w3.org/2000/svg" xmlns:xlink="http://www.w3.org/1999/xlink" version="1.1" viewBox="0 -205 1024 1024">
  <g transform="matrix(1 0 0 -1 0 819)">
   <path fill="currentColor"
d="M942 560q0 -12 -18 -24q-16 -8 -34 -10v28h-146v-84h134l30 34l48 -42q10 -13 -4 -16h-208v-86h124l34 34l48 -40q9 -12 -2 -18h-204v-96h124l30 40l46 -46q6 -12 -6 -18h-194v-91q0 -24 10 -34q9 -9 48 -10h84q27 0 42 6q12 7 18 40q3 29 4 79h18q4 -58 8 -77
q3 -18 28 -28q-9 -29 -26 -44q-18 -15 -62 -18h-138q-39 0 -60 14q-20 13 -22 56v511l54 -40h140v114h-134l-30 -32l-52 44l26 20v248l68 -26q15 -10 4 -16l-24 -10v-78h124l34 44l60 -52q6 -19 -18 -16h-200v-100h132l24 32l56 -40q9 -11 -2 -16l-20 -12v-82l4 -42v0v0z
M372 558l50 -36h122l30 34l52 -30q9 -3 10 -12q1 -7 -28 -26v-387q1 -29 -12 -50q-13 -18 -52 -28q-1 28 -22 40q-22 9 -70 24l4 16q39 -6 60 -10q20 -4 32 -2q13 4 12 28v131h-142v-113l4 -80q0 -11 -20 -26q-17 -12 -34 -12l4 114v425v0v0zM418 274h142v102h-142v-102v0v0
zM418 400h142v98h-142v-98v0v0zM600 632l30 36l42 -42q3 -3 6 -8q0 -12 -12 -12h-286q-20 0 -40 -8l-16 34h182q27 69 58 168l62 -30q10 -7 2 -14q-13 -3 -22 -8q-6 -6 -24 -30q-18 -25 -50 -86h68v0v0zM320 842h262l34 38l46 -46q3 -4 4 -10q1 -7 -16 -8h-254q-21 0 -56 -8
l-20 34v0v0zM370 776l10 10q39 -30 64 -54q21 -24 24 -44q1 -21 -10 -32q-9 -12 -26 -8q-16 3 -16 28q-1 21 -14 48q-12 24 -32 52v0v0zM428 972l10 10q56 -33 74 -54q18 -19 18 -38q1 -19 -10 -28q-9 -9 -24 -6t-18 22q-4 15 -10 36q-5 20 -40 58v0v0zM174 966l88 -32
q12 -7 -6 -16l-34 -14v-250q44 53 86 122q55 -42 56 -50q1 -7 -4 -8q-3 -1 -18 -2q-12 -1 -38 -22q-27 -21 -84 -72q2 -187 -10 -292q48 -35 78 -64q29 -29 40 -58q11 -30 8 -48t-12 -27t-24 -6t-24 45q-6 39 -18 66q-10 24 -52 66q-22 -88 -64 -152q-42 -65 -114 -129
l-10 10q56 68 92 137q35 69 50 144q16 75 14 262v390v0v0zM114 704q9 -97 6 -142q-2 -45 -22 -68q-20 -22 -40 -20q-18 3 -24 18q-4 14 14 34t30 50q11 31 20 128h16v0v0z" />
  </g>

</svg>
