<?xml version="1.0" standalone="no"?>
<!DOCTYPE svg PUBLIC "-//W3C//DTD SVG 1.1//EN" "http://www.w3.org/Graphics/SVG/1.1/DTD/svg11.dtd" >
<svg xmlns="http://www.w3.org/2000/svg" xmlns:xlink="http://www.w3.org/1999/xlink" version="1.1" viewBox="0 -36 256 256">
  <g transform="matrix(1 0 0 -1 0 220)">
   <path fill="currentColor"
d="M198 87q-18 12 -28.5 29t-14.5 30h-14l-7 -3l-9 10h26h1l6 5l9 -8l-7 -3q27 -43 57 -47v-4q-12 0 -19 -9zM101 158l19 -11l-7 -3q-19 -25 -33 -37h75l8 8l13 -13l-8 -5q-4 -49 -10 -58.5t-20 -14.5q-4 14 -25 20l1 5q26 -8 31.5 -3.5t9.5 54.5h-39q-4 -34 -18 -49.5
t-40 -26.5l-1 3q21 13 32 29.5t14 43.5h-7l-10 -3l-7 9q-12 -10 -31 -21l-3 3q38 29 56 70zM22 8q1 25 1 48v155q0 26 -1 33l22 -9l-7 -6v-214zM218 245l22 -8l-7 -7v-193q0 -22 -20 -28q0 14 -27 19v4q14 -1 24 -1t9 15v160q0 27 -1 39zM60 166q-4 0 -15 -2l-9 9h35v22h-15
l-9 -2l-8 9h32v22h-15l-10 -2l-9 9h58l10 8l13 -15h-34v-22h12l10 7l12 -14h-34v-22h14l9 8l14 -15h-61zM159 166q-4 0 -15 -2l-9 9h35v22h-15l-9 -2l-8 9h32v22h-15l-10 -2l-9 9h61l10 8l13 -15h-37v-22h12l10 7l12 -14h-34v-22h14l9 8l14 -15h-61z" />
  </g>

</svg>
