<?xml version="1.0" standalone="no"?>
<!DOCTYPE svg PUBLIC "-//W3C//DTD SVG 1.1//EN" "http://www.w3.org/Graphics/SVG/1.1/DTD/svg11.dtd" >
<svg xmlns="http://www.w3.org/2000/svg" xmlns:xlink="http://www.w3.org/1999/xlink" version="1.1" viewBox="0 -36 256 256">
  <g transform="matrix(1 0 0 -1 0 220)">
   <path fill="currentColor"
d="M149 158q-4 11 -11 25l3 2q12 -13 19 -24t1.5 -19.5t-7 -2.5l-3.5 14q-23 -4 -35.5 -6.5t-20.5 -6.5l-6 16q6 1 14.5 15.5t13.5 32.5h-11l-11 -3l-10 10h39q0 13 -12 29l2 3q15 -7 18.5 -15t-3.5 -17h15l10 11l18 -18h-51l11 -8q-3 -2 -11 -14t-20 -26q15 0 48 2z
M114 127l-5 -5q-2 -43 -5 -59t-11.5 -29t-21.5 -23l-1 3q14 16 19.5 33.5t7 40t0.5 47.5zM119 74q0 24 -1 57l15 -7l-4 -5q0 -78 1 -95l-12 -9q1 35 1 59zM142 134l16 -8l-5 -8v-81q0 -9 4 -9h5q2 0 3.5 3.5t2.5 23.5h3q2 -24 8 -27q-6 -10 -16 -10h-8q-12 0 -12 17v62
q0 20 -1 37zM47 164q-7 -65 -32 -114l-3 1q19 56 23 116h1l-11 -3l-10 10h21l5 8l12 -10zM53 241l20 -9l-7 -7v-70q17 33 18 42l12 -12q-4 -5 -10.5 -13l-19.5 -24v-11q22 -26 25 -37t-1.5 -19t-9 10t-14.5 40v-93q0 -15 -16 -22q0 10 -17 18v4q12 -2 16.5 -2t4.5 6v169
q0 20 -1 30zM197 50v99q-11 -58 -39 -96l-2 3q23 49 33 115h-5l-11 -3l-10 10h34q0 48 -1 63l20 -7l-7 -7v-49h5l10 11l18 -18h-28q11 -86 34 -109v-3q-12 0 -16 -7q-18 34 -23 119v-118q0 -15 1 -39l-14 -5q1 23 1 41z" />
  </g>

</svg>
