<?xml version="1.0" standalone="no"?>
<!DOCTYPE svg PUBLIC "-//W3C//DTD SVG 1.1//EN" "http://www.w3.org/Graphics/SVG/1.1/DTD/svg11.dtd" >
<svg xmlns="http://www.w3.org/2000/svg" xmlns:xlink="http://www.w3.org/1999/xlink" version="1.1" viewBox="0 -36 256 256">
  <g transform="matrix(1 0 0 -1 0 220)">
   <path fill="currentColor"
d="M66 156.5q4 -5.5 -2 -11.5t-7 3t-7 17l2 2q10 -5 14 -10.5zM101 160q-7 -3 -17 -15l36 3v-5q-82 -9 -95 -17l-5 15q17 -1 58 4q5 8 10 23zM49 173h52v11h-52v-11zM114 167l-13 -4v3h-52v-3l-13 -3q1 20 0 36l14 -5h50l7 7l11 -11l-5 -4q0 -7 1 -16zM68 244l20 -6l-8 -6
v-8h26l10 9l15 -16h-51v-11h19l9 8l13 -15h-65q-9 0 -18 -2l-8 9h39v11h-25q-9 0 -18 -2l-9 9h52q0 11 -1 20zM173 246l19 -9l-6 -6v-10h36l5 6l13 -12q-12 -2 -25 -15l-3 2l7 12h-33v-20h14l7 7l12 -13l-7 -4q-9 -14 -22 -25q20 -14 48 -15l1 -5q-13 0 -17 -10
q-24 9 -41 23q-16 -10 -43 -18l-2 3q24 12 38 22q-8 10 -21 26l3 2q9 -9 25 -22q12 11 18 22h-19q-13 0 -22 -3l-12 10h28v20h-28v-22q-1 -38 -32 -62l-2 3q19 21 20.5 52t-0.5 43l14 -7h28q0 12 -1 25zM82 120h-34v-111l-13 -5q1 13 1 29v70q0 17 -1 29l13 -5h36l7 6
l11 -13l-7 -3l-25 -26q24 -16 22 -31.5t-17 -22.5q-3 12 -22 16v4q12 -1 19.5 -2t8 8.5t-16.5 27.5zM124 115q-12 -9 -28 -19l-3 2q15 12 24 23.5t11 19.5l17 -8q-6 -4 -12 -9h57l10 7l12 -14q-10 -3 -18 -7.5t-20 -10.5q35 -9 68 -8v-4q-15 -3 -21 -12q-29 6 -58 19
q-28 -11 -74 -20l-1 5q42 10 62 20q-8 5 -26 16zM128 117q13 -7 32 -12q13 6 23 12h-55zM177 81l9 5l13 -12h-31v-14h25l11 8l15 -15h-51v-12h21l9 7l14 -14h-44v-14h36l12 8l14 -15h-116q-10 0 -19 -2l-9 9h69v14h-12q-10 0 -19 -2l-9 9h40v12h-40q-8 -8 -22 -18l-2 3
q17 18 24 37l16 -7q-7 -3 -11 -8h35v14h-6q-10 0 -19 -2l-9 9h56z" />
  </g>

</svg>
