<?xml version="1.0" standalone="no"?>
<!DOCTYPE svg PUBLIC "-//W3C//DTD SVG 1.1//EN" "http://www.w3.org/Graphics/SVG/1.1/DTD/svg11.dtd" >
<svg xmlns="http://www.w3.org/2000/svg" xmlns:xlink="http://www.w3.org/1999/xlink" version="1.1" viewBox="0 -205 1024 1024">
  <g transform="matrix(1 0 0 -1 0 819)">
   <path fill="currentColor"
d="M38 888h832l36 50l64 -54q3 -4 4 -10q1 -12 -16 -12h-300v-208h164l36 42l58 -44q6 -6 6 -8q0 -7 -36 -32v-306l4 -72q1 -12 -16 -24q-15 -9 -38 -12v88h-660v-56q0 -15 -18 -24q-18 -10 -36 -8l4 120v368l52 -32h192v208h-248q-20 -1 -64 -10l-20 36v0v0zM176 310h194
v318h-194v-318v0v0zM422 310h184v318h-184v-318v0v0zM658 310h178v318h-178v-318v0v0zM606 654v208h-184v-208h184v0v0z" />
  </g>

</svg>
