<?xml version="1.0" standalone="no"?>
<!DOCTYPE svg PUBLIC "-//W3C//DTD SVG 1.1//EN" "http://www.w3.org/Graphics/SVG/1.1/DTD/svg11.dtd" >
<svg xmlns="http://www.w3.org/2000/svg" xmlns:xlink="http://www.w3.org/1999/xlink" version="1.1" viewBox="0 -205 1024 1024">
  <g transform="matrix(1 0 0 -1 0 819)">
   <path fill="currentColor"
d="M356 776l56 -24h170v76l70 -24q8 -1 10 -10l-6 -8l-24 -12v-22h158l34 32l50 -38q7 -7 8 -10q-1 -6 -28 -24v-56l4 -28q0 -15 -18 -24q-19 -8 -34 -6v30h-174v-60h252l30 46l56 -56q3 -3 4 -6q0 -10 -12 -10h-640q-8 -1 -40 -10l-18 36h318v60h-178v-2q1 -15 -16 -26
q-18 -10 -36 -8l4 68v116v0v0zM404 654h178v72h-178v-72v0v0zM632 726v-72h174v72h-174v0v0zM366 514l56 -24h376l24 36l58 -42q6 -4 6 -8q0 -6 -30 -26v-208l4 -44q0 -15 -20 -24q-19 -9 -34 -12v34h-390v-10q0 -16 -18 -28q-15 -11 -36 -11l4 95v272v0v0zM416 220h390v64
h-390v-64v0v0zM416 308h390v68h-390v-68v0v0zM416 400h390v66h-390v-66v0v0zM278 29q130 67 224 149l58 -35q9 -8 -2 -16q-28 -2 -40 -8q-12 -3 -66 -30q-55 -26 -164 -76l-10 16v0v0zM674 154l6 16q93 -21 148 -43q54 -21 70 -42q14 -20 8 -38t-24 -18q-17 0 -34 20
q-16 19 -52 44q-36 24 -122 61v0v0zM874 866l44 54l66 -62l2 -4q0 -12 -8 -12h-738v-246q-6 -249 -44 -360q-37 -110 -148 -215l-12 12q80 102 112 201q32 96 38 276q-100 -85 -118 -124l-50 54l170 98v380l60 -52h626v0v0zM484 980l6 14q65 -16 92 -28q26 -9 40 -30
q12 -21 4 -38q-9 -18 -30 -20q-22 -1 -28 20q-7 20 -22 38q-13 14 -62 44v0v0zM48 764l12 8q45 -39 70 -74q21 -34 24 -64q3 -28 -8 -44q-10 -14 -22 -16q-11 -1 -22 8q-13 9 -10 36q0 27 -8 66q-6 37 -36 80v0v0z" />
  </g>

</svg>
