<?xml version="1.0" standalone="no"?>
<!DOCTYPE svg PUBLIC "-//W3C//DTD SVG 1.1//EN" "http://www.w3.org/Graphics/SVG/1.1/DTD/svg11.dtd" >
<svg xmlns="http://www.w3.org/2000/svg" xmlns:xlink="http://www.w3.org/1999/xlink" version="1.1" viewBox="0 -36 256 256">
  <g transform="matrix(1 0 0 -1 0 220)">
   <path fill="currentColor"
d="M34 212v-123h25v123h-25zM21 84v97q0 25 -1 47l14 -9h25l8 8l13 -14l-8 -6v-110q0 -17 1 -35l-14 -8v28h-25v-23l-14 -7q1 15 1 32zM182 183h22v43h-22v-43zM218 195q0 -14 1 -22l-15 -6v9h-91v-5l-15 -5q1 17 1 36.5t-1 37.5l15 -7h91l7 8l14 -11l-7 -7v-28zM113 183h21
v43h-21v-43zM147 183h22v43h-22v-43zM176 84q6 -17 3 -42.5t-26 -33.5q-3 13 -26 19l1 4q25 -4 30.5 -1t7 17t-0.5 27q-33 -35 -87 -51l-1 4q55 24 83 63q-4 9 -8 15q-28 -26 -68 -43l-1 4q37 23 61 51q-3 4 -9 10q-24 -18 -50 -28l-1 4q30 17 51 43h-28q-10 0 -20 -2l-9 9
h134l14 11l17 -18h-85q-10 -7 -18 -14q13 -10 26 -26q28 21 37 37l15 -15l-8 -2q-15 -9 -42 -24l6 -9q13 -13 33 -24.5t39 -12.5v-4q-16 -5 -18 -12q-18 9 -31 21t-21 23z" />
  </g>

</svg>
