<?xml version="1.0" standalone="no"?>
<!DOCTYPE svg PUBLIC "-//W3C//DTD SVG 1.1//EN" "http://www.w3.org/Graphics/SVG/1.1/DTD/svg11.dtd" >
<svg xmlns="http://www.w3.org/2000/svg" xmlns:xlink="http://www.w3.org/1999/xlink" version="1.1" viewBox="0 -36 256 256">
  <g transform="matrix(1 0 0 -1 0 220)">
   <path fill="currentColor"
d="M202 174v-7h-53v7h53zM120 203h-81q0 -10 -5.5 -14.5t-9.5 -5t-8 2.5t4.5 9.5t14.5 21.5h4v-7h81v16h-51q-11 -2 -20 -4l-10 11h149l14 9l19 -16h-88v-16h88l8 8l15 -12q-9 -2 -29 -20l-3 2l9 15h-88q0 -26 2 -34l-16 -4q1 9 1 38zM104 193v-7h-51v7h51zM200 193v-7h-51
v7h51zM104 174v-7h-53v7h53zM110 165l20 -7l-6 -5v-10h14l9 9l17 -16h-40v-15h9l10 8l15 -15h-47q-10 0 -21 -2l-10 9h31v15h-9q-12 0 -22 -2l-9 9h40q0 10 -1 22zM152 64l-14 -4v3h-41v-1l-14 -4q1 15 1 23.5t-1 23.5l10 -5h45l5 7l13 -11l-6 -6q0 -15 2 -26zM97 70h41v23
h-41v-23zM91 58q17 -8 19 -14t-3 -12.5t-7.5 4t-10.5 20.5zM163 33l1 -4q-31 -6 -53.5 -10t-32.5 -8l-7 14q23 1 52 4q7 20 8 31l16 -9q-5 -4 -10 -9.5t-10 -12.5zM202 128q0 21 -1 34l21 -7l-7 -6v-21h6l11 9l16 -16h-33v-92q0 -11 -16 -18q-6 13 -25 16v4q11 -1 19.5 -1.5
t8.5 6.5v85h-11q-10 0 -20 -2l-9 9h40zM166 107q19 -13 24 -21t-0.5 -15.5t-10.5 5.5t-15 29zM36 160q17 -8 21.5 -13t3.5 -10t-5 -8t-7.5 6.5t-14.5 22.5zM23 121q12 -5 20 -11t6 -13.5t-6 -9.5t-6.5 7.5t-15.5 24.5zM39.5 60.5q4.5 4.5 13 18t21.5 42.5l4 -2
q-10 -27 -19.5 -47t-10.5 -36.5t-2 -22.5t-9.5 -1.5t-3.5 19t2 17.5t-17 7l1 5q16 -4 20.5 0.5z" />
  </g>

</svg>
