<?xml version="1.0" standalone="no"?>
<!DOCTYPE svg PUBLIC "-//W3C//DTD SVG 1.1//EN" "http://www.w3.org/Graphics/SVG/1.1/DTD/svg11.dtd" >
<svg xmlns="http://www.w3.org/2000/svg" xmlns:xlink="http://www.w3.org/1999/xlink" version="1.1" viewBox="0 -36 256 256">
  <g transform="matrix(1 0 0 -1 0 220)">
   <path fill="currentColor"
d="M95 238l-7 -7v-10h27l14 9l14 -16h-55v-14h20l12 8l13 -15h-72q-11 0 -20 -2l-10 9h44v14h-28q-10 0 -19 -2l-10 9h57q0 11 -1 26zM46.5 128q4.5 17 2.5 35l15 -7h26l10 9l11 -13l-7 -4v-26l34 15l2 -3q-34 -20 -44 -33l-9 14q4 3 4 10v24h-27q0 -13 -7 -29t-47 -31l-2 4
q34 18 38.5 35zM112 156l-3 2l8 14h-81q0 -8 -3 -13t-7.5 -7t-9 2.5t4.5 12t11 21.5h4v-9h81l9 7l11 -14q-10 -1 -25 -16zM146 168l-8 9h69l8 7l14 -14l-8 -4q-19 -20 -31 -31q7 -6 20.5 -12t35.5 -8v-4q-15 -1 -20 -12q-27 10 -47 27q-27 -16 -50 -22l-1 4q23 11 44 28
q-15 18 -21 34zM180 143q15 13 26 27h-50q9 -13 24 -27zM217 199q10 -1 14.5 2t10 -2t4 -7.5t-11.5 -2.5h-22q-15 0 -15 14v23h-29q-3 -22 -10.5 -32t-22.5 -19l-3 2q17 15 20.5 32t1.5 31l15 -7h27l7 8l13 -10l-7 -6v-19q0 -6 8 -7zM134 84v-25h56v25h-56zM68 59h51v25h-51
v-25zM119 52h-51v-7l-15 -4v56l15 -6h51q0 11 -1 22l24 -8l-8 -6v-8h54l8 9l16 -11l-8 -7v-30l-14 -3v3h-56v-23l63 3q-13 7 -26 13l2 3q54 -14 59.5 -22t2 -14.5t-10.5 0.5t-21 15q-167 -12 -176 -18l-11 16q36 0 103 4v23z" />
  </g>

</svg>
