<?xml version="1.0" standalone="no"?>
<!DOCTYPE svg PUBLIC "-//W3C//DTD SVG 1.1//EN" "http://www.w3.org/Graphics/SVG/1.1/DTD/svg11.dtd" >
<svg xmlns="http://www.w3.org/2000/svg" xmlns:xlink="http://www.w3.org/1999/xlink" version="1.1" viewBox="0 -36 256 256">
  <g transform="matrix(1 0 0 -1 0 220)">
   <path fill="currentColor"
d="M188 31q11 -2 16.5 6.5t9.5 36t9 102.5h-42q-3 -36 -8.5 -63.5t-19.5 -54t-44 -52.5l-2 3q22 26 33 48.5t17.5 49t9.5 69.5h-4q-11 -1 -20 -3l-9 10h33q2 32 1 63l22 -9l-7 -7q-1 -29 -2 -47h41l8 9l16 -12l-8 -7q-6 -111 -16.5 -135.5t-31.5 -28.5q-2 13 -27 24l1 4
q13 -4 24 -6zM68 244l23 -7l-8 -8v-29h23l11 12l17 -19h-51v-63h7q14 26 20 53l17 -13q-6 -2 -30 -40h21l12 12l16 -19h-63v-12q23 -12 34.5 -23.5t6.5 -22t-13 5.5t-28 34v-45q0 -23 1 -46l-16 -6q1 24 1 49v51q-21 -44 -59 -71l-2 3q38 40 51 83h-21q-11 0 -20 -2l-9 9h60
v63h-23q-10 0 -20 -2l-9 9h52q0 23 -1 44zM33 178q18 -12 22.5 -19t-2 -16t-9.5 3.5t-15 29.5z" />
  </g>

</svg>
