<?xml version="1.0" standalone="no"?>
<!DOCTYPE svg PUBLIC "-//W3C//DTD SVG 1.1//EN" "http://www.w3.org/Graphics/SVG/1.1/DTD/svg11.dtd" >
<svg xmlns="http://www.w3.org/2000/svg" xmlns:xlink="http://www.w3.org/1999/xlink" version="1.1" viewBox="0 -154 1024 1024">
  <g transform="matrix(1 0 0 -1 0 870)">
   <path fill="currentColor"
d="M893 501v-350q2 -62 -11 -89t-69 -39q-2 32 -34 44q-31 10 -90 25l2 16q110 -23 134 -21t24 50v119h-300v-87l4 -97q0 -39 -55 -46q5 39 7 189v315q-4 21 -21 35l16 15l41 -45h292l32 39l48 -41q18 -12 0 -19zM139 639l13 -17q37 102 48 238h-85q-27 1 -45 -13l-34 33
h285l30 40l64 -46q22 -16 -11 -14h-160q-16 -148 -64 -267h124l29 35l48 -43q14 -12 -6 -17l-18 -9v-304l4 -77q6 -42 -46 -44v79h-131v-98q2 -39 -49 -46q5 39 7 132v310q-46 -85 -95 -133l-10 8q52 77 104 203q-6 22 -17 38zM184 573v-340h131v340h-131zM665 997l81 -34
q15 -6 7 -11q-16 -5 -27 -18v-107h90l32 40l68 -48q17 -12 -6 -12h-184v-136h168l32 40l68 -50q16 -10 -6 -10h-511q-27 1 -45 -13l-34 33h124v161q2 16 -25 42l8 11l78 -34q14 -5 6 -11q-16 -5 -27 -18v-151h120v273q2 16 -25 42zM549 515v-115h300v115h-300zM549 384v-112
h300v112h-300z" />
  </g>

</svg>
