<?xml version="1.0" standalone="no"?>
<!DOCTYPE svg PUBLIC "-//W3C//DTD SVG 1.1//EN" "http://www.w3.org/Graphics/SVG/1.1/DTD/svg11.dtd" >
<svg xmlns="http://www.w3.org/2000/svg" xmlns:xlink="http://www.w3.org/1999/xlink" version="1.1" viewBox="0 -205 1024 1024">
  <g transform="matrix(1 0 0 -1 0 819)">
   <path fill="currentColor"
d="M604 860h156l42 44l58 -48q6 -6 6 -12q0 -5 -38 -28v-664q0 -41 6 -49q7 -6 38 -6h22q31 4 38 20q6 15 10 51q3 33 6 112h20q0 -89 4 -112q3 -21 34 -45q-12 -31 -26 -44q-12 -12 -26 -18q-13 -5 -40 -10h-58q-34 0 -56 14q-22 12 -22 62v707h-186v-234q60 -31 94 -58
q30 -27 40 -54q7 -25 -4 -44q-10 -20 -32 -18t-22 28t-14 56q-12 29 -62 68q-1 -199 -22 -284q-21 -84 -72 -150q-50 -64 -154 -119l-8 14q84 58 130 125q42 68 60 148q18 78 16 358v238l62 -48v0v0zM58 818h176v164q77 -31 80 -34t4 -8q0 -3 -30 -18v-104h90l40 50l56 -56
q3 -3 4 -6q0 -13 -12 -14h-178v-102h90l34 38l56 -42l4 -8q1 -6 -28 -26v-178l4 -84q0 -10 -18 -22q-18 -10 -38 -10v34h-104v-116h114l32 42l48 -52q7 -10 0 -16h-194v-133l4 -66q1 -9 -22 -24q-20 -15 -40 -12l4 106v129h-150q-18 -1 -36 -8l-18 34h204v116h-100v-16
q3 -10 -18 -22q-21 -10 -38 -10l4 104v274l52 -32h100v102h-116q-9 0 -44 -8l-16 34v0v0zM134 418h100v114h-100v-114v0v0zM288 532v-114h104v114h-104v0v0zM134 558h100v106h-100v-106v0v0zM288 664v-106h104v106h-104v0v0z" />
  </g>

</svg>
