<?xml version="1.0" standalone="no"?>
<!DOCTYPE svg PUBLIC "-//W3C//DTD SVG 1.1//EN" "http://www.w3.org/Graphics/SVG/1.1/DTD/svg11.dtd" >
<svg xmlns="http://www.w3.org/2000/svg" xmlns:xlink="http://www.w3.org/1999/xlink" version="1.1" viewBox="0 -36 256 256">
  <g transform="matrix(1 0 0 -1 0 220)">
   <path fill="currentColor"
d="M73 221q24 -12 35 -19t8.5 -19t-12 1.5t-34.5 32.5q-22 -41 -60 -74l-2 2q22 25 40.5 58t17.5 43l18 -13q-5 -2 -11 -12zM31 40v76q0 25 -1 44l13 -10h51l7 9l13 -13l-7 -7v-22q0 -21 1 -35l-14 -8v8h-51v-48q21 9 42 20q-4 8 -13 22l2 2q21 -17 27.5 -27t0 -19t-9.5 0
t-6 17q-45 -29 -48 -38l-11 16q4 6 4 13zM43 119h51v24h-51v-24zM43 89h51v23h-51v-23zM240 122l4 -1q-3 -15 -3 -27.5t5.5 -20.5t-16.5 3.5t-34.5 33t-13.5 55.5h-41v-66l38 11l1 -4q-42 -20 -50 -32l-8 14q6 6 6 17v92q0 13 -1 29l14 -9q19 3 40 9t34 14l14 -18
q-14 0 -36 -5q0 -23 1 -45h20l14 11l15 -18h-48q1 -53 36 -72zM180 215q-25 -4 -39 -4v-39h40q-1 21 -1 43zM135 66q0 -20 -4 -33t-11 -16.5t-13 0.5t7 15.5t17 33.5h4zM149 67q24 -22 25.5 -33.5t-5.5 -18.5t-9 7t-14 43zM183 67q21 -16 25.5 -27.5t-3 -21.5t-9.5 4.5
t-16 41.5zM222 65q20 -17 23.5 -27.5t-3 -20t-9.5 6t-13 37.5zM77 175.5q6 -7.5 2 -15t-7 -7.5t-5.5 11t-12.5 26l2 2q15 -9 21 -16.5z" />
  </g>

</svg>
