<?xml version="1.0" standalone="no"?>
<!DOCTYPE svg PUBLIC "-//W3C//DTD SVG 1.1//EN" "http://www.w3.org/Graphics/SVG/1.1/DTD/svg11.dtd" >
<svg xmlns="http://www.w3.org/2000/svg" xmlns:xlink="http://www.w3.org/1999/xlink" version="1.1" viewBox="0 -36 256 256">
  <g transform="matrix(1 0 0 -1 0 220)">
   <path fill="currentColor"
d="M70 100v-69q-2 -15 -18 -23q-3 11 -8.5 14.5t-21.5 5.5v5q20 -1 28 -1t7 10v51q-16 -8 -29 -15l-7 -6l-11 17q14 3 47 18v37h-9q-11 0 -21 -3l-9 10h39q0 34 -1 44l22 -12l-8 -6v-26h8l10 11l13 -18h-31v-33l26 11l3 -5zM162.5 140.5q3.5 -7.5 0.5 -13.5t-6 -5.5t-4.5 5
t-5.5 9.5q-33 -21 -38 -29l-10 13q3 7 3 20q0 29 -1 43l13 -6q26 11 35 20l12 -19l-9 1q-19 -5 -37 -8v-42l30 12q-6 9 -12 17l3 3q23 -13 26.5 -20.5zM219 179l9 10l14 -13l-8 -6q-3 -30 -5.5 -44t-21.5 -22q-2 11 -21 16l1 5q17 -3 22 -1.5t7 11t4 37.5h-21
q-8 -51 -51 -71l-2 4q34 26 38 67h-5l-9 -3l-8 10h57zM119 97h95l7 9l15 -13l-9 -6v-50q0 -12 1 -24l-14 -7v14h-95v-6l-14 -7q1 24 1 50t-1 48zM119 65h39v25h-39v-25zM171 65h43v25h-43v-25zM119 27h39v31h-39v-31zM171 27h43v31h-43v-31zM128 208h-40q0 -7 1 -17l-16 -7
q1 14 1 24h-26q-11 0 -21 -2l-9 9h56q0 21 -1 32l22 -8l-7 -7v-17h13l12 11zM160 210q-10 0 -20 -2l-9 9h35q0 16 -2 29l23 -9l-7 -7v-13h29l14 11l16 -18h-59q-1 -3 1 -20l-17 -6q2 22 2 26h-6z" />
  </g>

</svg>
