<?xml version="1.0" standalone="no"?>
<!DOCTYPE svg PUBLIC "-//W3C//DTD SVG 1.1//EN" "http://www.w3.org/Graphics/SVG/1.1/DTD/svg11.dtd" >
<svg xmlns="http://www.w3.org/2000/svg" xmlns:xlink="http://www.w3.org/1999/xlink" version="1.1" viewBox="0 -205 1024 1024">
  <g transform="matrix(1 0 0 -1 0 819)">
   <path fill="currentColor"
d="M240 982l78 -30q10 -3 8 -12q-4 -6 -10 -8l-26 -12v-220h110v192l72 -30q6 -3 6 -8q6 -8 -30 -22v-102l4 -62q-1 -14 -16 -28q-15 -12 -36 -12v46h-274l-32 -30l-52 40q28 21 26 40v166l78 -28q3 -4 4 -8q0 -4 -32 -20v-134h122v282v0v0zM26 576h386l32 38l52 -44
q8 -4 8 -10q3 -10 -8 -10h-238l-62 -108h200l26 30l46 -36q9 -6 10 -12q0 -6 -20 -18v-263q1 -43 -16 -68q-15 -24 -54 -34q-7 25 -28 38q-21 12 -56 26l8 16q33 -11 66 -16q30 -3 30 26v283h-68v-144l4 -88q1 -16 -18 -28q-21 -10 -38 -11l4 115v158h-64v-174l4 -80
q0 -15 -20 -27q-18 -12 -36 -18l4 121v178h-66v-262l4 -71q0 -12 -20 -28q-19 -16 -38 -14l4 108v329l48 -36h62l28 108h-96q-20 0 -64 -8l-16 34v0v0zM558 904l58 -44h38q17 66 28 130l74 -26q9 -8 0 -16q-27 -10 -36 -22t-38 -66h140l32 42l60 -44q6 -4 6 -8q1 -6 -34 -30
v-132l4 -68q0 -16 -14 -28q-13 -10 -40 -14v38h-226v-90h286l38 42l58 -54q1 -15 -12 -14h-370v-86h286l34 38l62 -44q3 -8 -2 -16l-30 -18q-4 -75 -8 -140q-2 -66 -10 -103q-6 -38 -32 -64q-26 -22 -70 -38q-19 39 -46 50q-28 12 -82 30l6 18q69 -15 100 -18q30 -2 52 4
q18 6 24 32q2 25 8 83q6 55 6 158h-298q1 -13 -16 -22q-17 -10 -40 -10l4 114v436v0v0zM610 644h226v78h-226v-78v0v0zM610 752h226v80h-226v-80v0v0zM538 316h20q5 -52 8 -100q0 -49 -14 -69q-14 -21 -34 -24q-18 -3 -26 8q-10 10 -4 21t18 28q13 18 20 42q6 24 12 94v0v0z
M604 312l12 8q36 -51 48 -74q12 -21 12 -42q0 -18 -12 -32q-13 -13 -28 -8q-16 5 -14 32q3 24 0 48q-3 23 -18 68v0v0zM762 354l12 8q50 -39 68 -60q17 -20 20 -40q1 -18 -10 -32q-10 -13 -26 -8q-16 3 -16 28q0 23 -12 46q-9 21 -36 58v0v0zM682 332l12 8q53 -45 68 -68
q13 -21 14 -42q0 -18 -12 -32q-13 -13 -28 -8q-16 6 -16 36q1 30 -4 48q-7 18 -34 58v0v0z" />
  </g>

</svg>
