<?xml version="1.0" standalone="no"?>
<!DOCTYPE svg PUBLIC "-//W3C//DTD SVG 1.1//EN" "http://www.w3.org/Graphics/SVG/1.1/DTD/svg11.dtd" >
<svg xmlns="http://www.w3.org/2000/svg" xmlns:xlink="http://www.w3.org/1999/xlink" version="1.1" viewBox="0 -205 1024 1024">
  <g transform="matrix(1 0 0 -1 0 819)">
   <path fill="currentColor"
d="M398 944l56 -38h326l44 46l64 -52q6 -6 6 -8q0 -7 -42 -32v-672l4 -91q1 -12 -16 -24q-17 -11 -40 -14v76h-350v-50q0 -14 -18 -26q-16 -12 -38 -12l4 133v764v0v0zM450 160h350v246h-350v-246v0v0zM450 434h350v218h-350v-218v0v0zM450 680h350v198h-350v-198v0v0z
M354 868l18 -6l-154 -464q-10 -37 -14 -82q-4 -57 -2 -90q3 -32 10 -82q6 -46 -2 -67q-10 -20 -32 -20q-20 0 -28 18q-7 19 2 65q6 49 12 86q3 35 -6 64q-13 28 -52 38l-64 10v18q75 -3 96 4q20 6 38 46l178 462v0v0zM114 930l6 12q48 -18 84 -36q36 -15 54 -36
q19 -21 20 -42q0 -21 -8 -32q-9 -13 -24 -10q-15 1 -18 14q-4 11 -14 32q-9 21 -26 40q-16 17 -74 58v0v0zM36 710l6 14q65 -27 98 -44q30 -15 46 -36q12 -18 10 -38q-3 -20 -12 -28q-9 -9 -24 -6q-12 1 -20 26q-6 24 -14 36q-9 12 -26 30q-16 17 -64 46v0v0z" />
  </g>

</svg>
