<?xml version="1.0" standalone="no"?>
<!DOCTYPE svg PUBLIC "-//W3C//DTD SVG 1.1//EN" "http://www.w3.org/Graphics/SVG/1.1/DTD/svg11.dtd" >
<svg xmlns="http://www.w3.org/2000/svg" xmlns:xlink="http://www.w3.org/1999/xlink" version="1.1" viewBox="0 -205 1048 1024">
  <g transform="matrix(1 0 0 -1 0 819)">
   <path fill="currentColor"
d="M950 905q19 -14 13 -19q-7 -5 -47 4q-61 -17 -188 -52v-150h174l37 41l48 -38q10 -10 7 -14q-4 -3 -17 -3h-112q21 -9 18 -16q-3 -6 -18 -8v-395v-13q1 -11 -1 -16q-4 -8 -17 -14q-18 -5 -22 1q-4 5 -3 21l1 4v436h-95v-48q-5 -155 -51 -228.5t-156 -155.5l-6 8
q88 75 130.5 155t44.5 227q2 33 -0.5 114.5t-9.5 137.5l49 -30l1 -1q115 55 182 84zM382 772h88v129l-1 41l47 -15q25 -9 16 -16q-3 -3 -22 -9h-1v-130h60l38 40l45 -38q11 -9 5 -13q-5 -4 -24 -4h-124v-123q55 -29 80 -52q31 -27 35 -64q-2 -26 -15 -27q-13 -2 -19 18l-1 4
q-12 23 -23 39q-19 27 -57 63v-358v-7q1 -17 -2 -23q-4 -9 -20 -13q-14 -3 -17 2q-2 3 -1 18l1 9v343q-27 -57 -58 -109q-31 -48 -71 -98l-6 7q45 76 76 155q33 86 59 196v20h-95l-41 -2l-6 20zM138 947q55 -7 94 -23q43 -16 63 -42q11 -13 12 -25q1 -11 -6 -18
q-7 -6 -18 -3q-14 3 -24 17q-20 24 -53 48q-37 25 -72 38zM86 733q44 0 82 -12q44 -15 70 -42q9 -11 10 -23q1 -10 -6 -16q-8 -6 -18 -4q-12 2 -24 15q-21 21 -55 42q-31 20 -62 32zM263 507l37 -34q25 -22 22 -30q-4 -8 -32 -8v-174q0 -8 17 -26q20 -19 49 -39
q35 -22 74 -38q46 -18 92 -25q120 -10 229 -2q88 7 239 35v-10q-35 -12 -50 -28q-13 -14 -13 -33q-121 -9 -219 -6q-97 3 -216 18q-88 14 -151 62q-47 37 -79 91l-48 -39l-96 -79q2 -38 -5 -46q-10 -9 -27 25l-29 45q35 19 84 48q30 17 99 57h2v183h-119l-45 -1l-4 20l45 -2
h107z" />
  </g>

</svg>
