<?xml version="1.0" standalone="no"?>
<!DOCTYPE svg PUBLIC "-//W3C//DTD SVG 1.1//EN" "http://www.w3.org/Graphics/SVG/1.1/DTD/svg11.dtd" >
<svg xmlns="http://www.w3.org/2000/svg" xmlns:xlink="http://www.w3.org/1999/xlink" version="1.1" viewBox="0 -36 256 256">
  <g transform="matrix(1 0 0 -1 0 220)">
   <path fill="currentColor"
d="M40 243l16 -7h58l11 10l15 -17h-85v-12h53l10 9l14 -16h-77v-11h52l10 10l14 -17h-76v-9h67l12 9l16 -16h-80l10 -8q-8 0 -17.5 -6t-21.5 -12l73 3q-8 6 -19 14l2 2q28 -8 33.5 -13.5t1 -12t-8 -2t-6.5 7.5q-21 -3 -49.5 -6.5t-36.5 -6.5l-11 14q11 3 21 9.5t19 16.5h-22
q-11 -1 -21 -3l-10 10h34q0 40 -1 60zM230 233q-7 0 -32 -11t-60 -21l-1 5q27 9 50.5 22t27.5 19zM240 199q-2 2 -31.5 -9t-58.5 -17l-1 5q26 8 48 18.5t30 17.5zM247 166q-8 0 -36 -10t-72 -18l-1 5q40 10 65.5 21.5t30.5 17.5zM74 123v-19h47v19h-47zM136 123v-19h50v19
h-50zM74 97v-19h47v19h-47zM136 97v-19h50v19h-50zM200 60l18 -18h-82v-22h64l14 12l20 -19h-180q-11 -1 -21 -3l-10 10h98v22h-49q-11 -1 -21 -3l-10 10h80v22h-47v-4l-14 -4v73l14 -6h111l7 9l14 -9l-5 -8v-53l-15 -4v6h-50v-22h51z" />
  </g>

</svg>
