<?xml version="1.0" standalone="no"?>
<!DOCTYPE svg PUBLIC "-//W3C//DTD SVG 1.1//EN" "http://www.w3.org/Graphics/SVG/1.1/DTD/svg11.dtd" >
<svg xmlns="http://www.w3.org/2000/svg" xmlns:xlink="http://www.w3.org/1999/xlink" version="1.1" viewBox="0 -36 256 256">
  <g transform="matrix(1 0 0 -1 0 220)">
   <path fill="currentColor"
d="M67 15l-15 -7q1 46 1 118q-12 -35 -42 -68l-3 3q35 51 43 116h-10q-10 0 -19 -2l-9 9h40q0 29 -1 63l24 -10l-10 -7v-46h8l11 12l13 -19h-32v-28q16 -10 23.5 -16.5t1.5 -18.5t-10.5 1t-14.5 28q0 -108 1 -128zM180 219q0 13 -1 26l22 -9l-8 -6v-28q25 14 39 31l12 -15
q-11 -2 -51 -21v-14q0 -15 13 -14h17q6 1 7.5 10.5t2.5 21.5h3q1 -14 2 -19.5t9 -10.5q-6 -12 -21 -13h-27q-20 0 -19 21v40zM98 150l-7 17l16 2q0 37 -1 56l20 -9l-7 -6v-39l15 2q0 53 -1 72l21 -8l-8 -6v-25h9l9 9l13 -16h-31v-24l24 4l1 -4q-67 -17 -73 -25zM110 45v71
q-12 -14 -28 -26l-2 3q13 14 25.5 33t15.5 33l21 -10l-8 -1q-7 -9 -13 -16h89l12 12l17 -19h-58v-24h26l13 12l16 -19h-55v-27h29l13 11l16 -18h-58v-29h35l13 12l18 -19h-124v-11l-14 -6q1 26 1 38zM123 125v-24h45v24h-45zM123 67h45v27h-45v-27zM123 31h45v29h-45v-29z
M157 168q32 -15 30 -22.5t-6 -11.5t-8 6t-18 26z" />
  </g>

</svg>
