<?xml version="1.0" standalone="no"?>
<!DOCTYPE svg PUBLIC "-//W3C//DTD SVG 1.1//EN" "http://www.w3.org/Graphics/SVG/1.1/DTD/svg11.dtd" >
<svg xmlns="http://www.w3.org/2000/svg" xmlns:xlink="http://www.w3.org/1999/xlink" version="1.1" viewBox="0 -200 1000 1000">
  <g transform="matrix(1 0 0 -1 0 800)">
   <path fill="currentColor"
d="M766 817q0 9 -2 22q-2 9 -4 25l56 -15q34 -8 28 -15q-4 -4 -32 -11l-3 -2v-458l1 -24q2 -17 -1 -23q-4 -9 -21 -16q-18 -3 -22 3q-3 3 -2 19l2 20v475zM952 901q18 -6 15 -13q-3 -6 -29 -12v-714q-2 -33 -22 -52q-19 -19 -60 -32l-7 30q-5 10 -31 19q-23 7 -79 19v13
q23 -4 56 -6q20 -2 58 -4l13 -1q15 0 22 5q7 4 7 13v691v29q-2 18 -4 32zM401 699q-12 -22 -25 -40q-15 -23 -29 -40l-8 6q24 37 50 106q31 82 39 147l43 -18q19 -10 15 -18q-4 -7 -25 -11q-7 -20 -16 -41q-11 -28 -25 -46h89v128q-1 13 -3 27q-2 12 -3 19l60 -15
q32 -7 18 -18q-8 -5 -29 -11l-1 -1v-129h52l42 37l54 -32q13 -9 8 -14q-5 -16 -20 -16h-136v-141h69l43 45l58 -41q12 -19 7 -24q-3 -6 -18 -6h-159v-125h90l31 28l36 -28q18 -14 15 -22q-4 -9 -30 -10v-146q0 -33 -16 -53q-21 -24 -68 -33q-5 25 -13 37q-7 11 -28 24l1 10
l14 -3q12 -3 20 -4q12 -3 26 -4q9 0 15 5q6 7 7 20v151h-100v-258v-23q2 -19 -1 -24q-5 -8 -23 -13q-14 -3 -17 1q-3 2 -2 14l1 14v289h-87v-204l1 -13q2 -15 -2 -22q-5 -11 -26 -15q-13 -3 -17 2q-2 3 0 17l1 11v219l-5 61l47 -28h88v125h-82h-40q-14 -1 -25 -3l-13 32
q12 -1 30 -2q17 -1 34 -1h96v141h-97zM339 852q27 -14 19 -22q-6 -6 -35 -5l-24 -40q-46 -78 -71 -119q-43 -73 -68 -111l132 10q-5 15 -16 35q-7 15 -24 46l10 6q36 -38 58 -70q21 -30 29 -57q5 -18 3 -32q-2 -12 -10 -16q-7 -3 -16 4q-9 8 -14 26l-16 41l-57 -13
q5 -10 0 -16q-5 -7 -23 -11v-398l1 -14q2 -9 -1 -12q-3 -6 -17 -12q-19 -6 -23 -2q-3 3 -1 19l2 20v414l-87 -13q-5 -30 -15 -29q-11 -3 -19 21l-13 43l95 9q37 68 82 163q45 93 71 159zM271 450q43 -54 61 -93q16 -35 20 -75q2 -18 -5 -32q-5 -13 -15 -16q-10 -2 -17 8
q-8 11 -8 34q-1 37 -11 76q-12 52 -35 90zM133 447q20 -6 19 -14t-24 -14q-4 -79 -24 -149q-20 -73 -58 -141l-9 4q27 69 41 160q12 84 10 169zM224 944q25 -13 19 -21q-6 -6 -29 -7l-50 -76l-36 -56q20 -15 32 -26q13 -12 20 -24q8 -13 8 -26t-7 -19q-8 -7 -19 -1
q-12 6 -24 25q-16 27 -40 55q-21 25 -48 50l6 8q13 -5 30 -15q10 -5 31 -18q15 32 34 79q17 44 34 91z" />
  </g>

</svg>
