<?xml version="1.0" standalone="no"?>
<!DOCTYPE svg PUBLIC "-//W3C//DTD SVG 1.1//EN" "http://www.w3.org/Graphics/SVG/1.1/DTD/svg11.dtd" >
<svg xmlns="http://www.w3.org/2000/svg" xmlns:xlink="http://www.w3.org/1999/xlink" version="1.1" viewBox="0 -144 1024 1024">
  <g transform="matrix(1 0 0 -1 0 880)">
   <path fill="currentColor"
d="M880 55l-18 41l-18 37l-19 34l-30 45l-2 2l-18 -34l-18 -31l-20 -28l-22 -26l-24 -24l-25 -20l-27 -17l-6 8l19 24l35 50l16 27l14 29l13 30l12 32l11 34l9 36l10 47l60 -24v58h-81v-64l-60 -30v317l60 -30h81l32 27l59 -48l-27 -22v-182l-60 -30l10 -10l-19 -7l-6 -19
l-13 -38l-10 -21l24 -13l16 -11l16 -13l15 -15l14 -15l28 -36l27 -42l1 -25l-16 -18l-25 -2zM596 118l-10 26l-11 25l-7 11l-21 35l-2 2l-13 -26l-18 -31l-20 -28l-22 -28l-25 -25l-26 -23l-28 -21l-7 7l39 55l18 28l16 29l28 58l11 31l10 32l9 32l6 34l2 10l61 -24l2 -1v59
h-81v-64l-65 -33v323l65 -33h81l29 27l57 -48l-27 -19v-185l-58 -29l11 -11l-20 -7l-5 -15l-12 -35l-12 -28l18 -9l13 -7l12 -9l12 -10l22 -22l21 -26l9 -14l1 -25l-16 -18l-25 -1l-18 17zM344 124v-13l-3 -14l-4 -13l-7 -12l-8 -11l-12 -9l-12 -7l-12 -4l-14 -2l-14 -1v32
l-86 16v16h86l7 1l5 1l3 1l2 1l1 1v1l1 1l2 4v5l1 6h64zM38 321l-2 6v2l56 12v509l65 -33h1l5 11l6 18l7 18l23 63l11 33l-1 1l5 11l56 -33l10 -16l-23 -3l-23 -30l-32 -41l-27 -29l-2 -3h107l32 27l59 -48l-27 -22v-276l19 35l54 -36l9 -18h-20l-55 -88l-7 -10v-257h-64
v170l-37 -45l-39 -43l-39 -41l-41 -37l-42 -35l-44 -31l-6 7l72 79l69 85l34 44l47 69l-178 -70l-7 -21l-15 12l-2 7v1l-10 32v1l-2 5l-2 6v2zM36 329l18 -61l-29 58zM280 500h-123v-146l49 10l68 12l6 9v115zM832 557h-81v-150h81v150zM588 557h-81v-150h81v150zM280 656
h-123v-134h123v134zM883 628l-29 24l-29 27l-28 30l-26 33l-25 34l-23 37l-23 40l-20 42l-27 -48l-28 -45l-30 -42l-32 -39l-33 -36l-36 -33l-36 -29l-39 -26l-41 -22l-5 8l34 30l32 32l30 33l30 35l28 37l27 39l25 41l24 44l22 47l23 56l57 -32l11 -17l-21 -2l-4 -8l36 -48
l54 -66l56 -56l28 -25l28 -21l29 -19l53 -31l-60 -46zM726 738l54 -48v-22h-228v22h130zM280 796h-123v-118h123v118z" />
  </g>

</svg>
