<?xml version="1.0" standalone="no"?>
<!DOCTYPE svg PUBLIC "-//W3C//DTD SVG 1.1//EN" "http://www.w3.org/Graphics/SVG/1.1/DTD/svg11.dtd" >
<svg xmlns="http://www.w3.org/2000/svg" xmlns:xlink="http://www.w3.org/1999/xlink" version="1.1" viewBox="0 -205 1024 1024">
  <g transform="matrix(1 0 0 -1 0 819)">
   <path fill="currentColor"
d="M874 874q-88 -21 -136 -44v-192l114 24l28 50l72 -42q6 -6 6 -12q0 -3 -6 -6l-214 -42v-184l150 34l26 52l72 -40q12 -4 10 -14q-1 -3 -10 -8l-248 -52v-297q0 -17 34 -20h102q45 0 54 38q8 34 16 149h20l2 -76q5 -68 38 -83q-9 -26 -26 -46q-16 -17 -64 -28h-150
q-26 1 -40 4q-13 3 -26 18q-9 15 -12 56v275l-142 -32q-19 -6 -34 -14l-28 32l204 44v180l-124 -28q-18 -6 -30 -14l-30 32l184 40v186q-79 -21 -178 -48l-6 20q131 45 218 82q86 36 158 78l52 -48q12 -12 6 -18q-5 -7 -22 -4q-14 3 -40 -2v0v0zM58 814h188v168
q77 -31 80 -34t4 -8q0 -3 -30 -18v-108h90l40 50l56 -56q3 -3 4 -6q0 -13 -12 -14h-178v-102h90l34 38l56 -42l4 -8q1 -6 -28 -26v-174l4 -84q0 -10 -18 -22q-18 -10 -38 -10v34h-104v-116h138l32 42l48 -52q7 -10 0 -16h-218v-133l4 -66q1 -9 -22 -24q-20 -15 -40 -12
l4 106v129h-174q-18 -1 -36 -8l-18 34h228v116h-100v-16q3 -10 -18 -22q-21 -10 -38 -10l4 104v270l52 -32h100v102h-116q-21 0 -56 -8l-16 34v0v0zM146 418h100v114h-100v-114v0v0zM300 532v-114h104v114h-104v0v0zM146 558h100v102h-100v-102v0v0zM300 660v-102h104v102
h-104v0v0z" />
  </g>

</svg>
