<?xml version="1.0" standalone="no"?>
<!DOCTYPE svg PUBLIC "-//W3C//DTD SVG 1.1//EN" "http://www.w3.org/Graphics/SVG/1.1/DTD/svg11.dtd" >
<svg xmlns="http://www.w3.org/2000/svg" xmlns:xlink="http://www.w3.org/1999/xlink" version="1.1" viewBox="0 -339 2048 2048">
  <g transform="matrix(1 0 0 -1 0 1709)">
   <path fill="currentColor"
d="M576 489h-257q-7 -53 -14 -87q-18 -86 -74 -196q-25 -50 -51 -86q-14 -20 -41 -54l-27 22q38 81 57 132q62 170 62 382l-1 95v216q0 48 -9 146l114 -70h225l61 70l72 -50q43 -29 43 -50q0 -11 -9 -18q-10 -10 -30 -20q-8 -4 -26 -14v-657q0 -71 -43 -103q-25 -18 -57 -28
q-18 -6 -42 -12q0 20 -2 33q-5 39 -53 61q-27 11 -81 22l4 41q102 -16 125 -16q22 0 36 8q18 10 18 51v182zM576 546v159h-247v-19q0 -92 -1 -108q-1 -14 -3 -32h251zM576 762v170h-247v-170h247zM1669 591h-152q-3 -31 -8 -60q-10 -57 -24 -100t-36 -84q-54 -103 -144 -187
q-30 -28 -92 -75l-30 31q40 38 61.5 61.5t45.5 56.5q88 121 116 245q10 44 15 111l-36 -3q-39 -2 -78 -8l-39 91q31 -5 83 -11q36 -5 46 -6q10 0 29 -1l2 277q-49 -3 -85 -8l-34 83q91 -15 179 -15h174l56 70l72 -50q43 -30 43 -52q0 -14 -12 -21q-7 -5 -28 -15
q-9 -4 -26 -14v-643q0 -28 3 -33q2 -5 11 -9q11 -5 23 -5t24.5 4.5t19.5 11.5q10 11 15 30q3 15 6 35l21 143l42 -8l-10 -147v-10q0 -17 4 -28q7 -18 25 -34q16 -14 22 -22q4 -6 4 -14q0 -10 -9 -22q-9 -10 -24 -16q-22 -10 -69 -13q-61 -5 -97 -5q-46 0 -67 11
q-23 11 -34 36q-8 18 -8 38v384zM1521 652h148v280h-147zM371 1433l115 -57h1057l61 72l72 -50q43 -29 43 -50q0 -10 -9 -18q-9 -9 -29 -19q-10 -5 -27 -15v-95l35 -23q19 -12 24 -21q3 -7 3 -13t-4 -12q-7 -11 -23 -11h-1218q0 -17 -1 -21t-5 -10q-7 -10 -21 -17
q-17 -8 -37 -8q-22 0 -30 12q-6 9 -6 21v335zM761 1178l1 140h-291v-140h290zM851 1318v-140h323l1 140h-324zM1264 1318v-140h297v140h-297zM1119 830q2 26 2 56q0 22 -2 85l91 -13q51 -8 66 -15q20 -10 20 -23q0 -22 -42 -34l-37 -12l-5 -34q17 0 30 2q3 0 7 1q26 4 78 11
l5 -36q-62 -19 -123 -35q-13 -88 -23 -137q-21 -103 -57 -184q-14 -30 -42 -82q47 -27 66 -41q30 -21 45 -38q26 -28 26 -56q0 -20 -12 -34q-12 -13 -33 -13q-17 0 -30 9q-4 3 -66 68q-3 4 -27 24q-6 6 -18 17q-55 -54 -93 -83q-74 -57 -170 -100q-30 -14 -88 -36l-16 32
q65 32 104 58q78 50 143 114q20 19 52 55q-60 33 -90 48q-34 16 -102 47q33 99 49 150q12 40 34 121l-54 -11l-11 -46q-2 -6 -7 -10.5t-11 -4.5q-11 0 -20 10q-4 4 -15 32l-46 110l88 4l91 4q17 82 24 143q5 40 12 126l93 -30q50 -16 62 -25q20 -14 20 -30q0 -15 -15 -23
q-4 -2 -30 -6l-43 -7q-19 -72 -42 -143zM1113 768l-85 -19l-87 -19q-52 -132 -103 -258q90 -29 175 -57q17 33 25.5 51.5t16.5 42.5q26 80 43 160q7 35 15 99zM1094 1772h624l80 82l114 -86q17 -12 17 -27q0 -9 -6 -16q-8 -10 -21 -10h-1464q1 -28 3 -42.5t8 -27.5
q9 -21 26 -33q13 -9 34.5 -17t43.5 -12q50 -8 264 -17q225 -8 335 -8q171 0 350 12q70 5 109 11q21 3 63 11q42 9 61 9q31 0 46 -17q16 -18 16 -45q0 -21 -13 -30q-16 -11 -46 -14q-4 -1 -80 -5l-147 -9l-210 -2l-261 -4q-101 0 -275 6q-137 4 -210 15q-89 12 -130 31
q-27 13 -43 32q-34 41 -34 114v42h-52q-38 0 -98 -5q-18 -1 -51 -5l-39 85q123 -18 188 -18h735q-5 5 -7 8q-7 6 -8 7q-4 6 -11 30q-10 33 -38 57q-18 15 -72 53l15 30q69 -23 91 -32q29 -11 45 -21t30 -24q30 -30 30 -66q0 -17 -12 -42z" />
  </g>

</svg>
