<?xml version="1.0" standalone="no"?>
<!DOCTYPE svg PUBLIC "-//W3C//DTD SVG 1.1//EN" "http://www.w3.org/Graphics/SVG/1.1/DTD/svg11.dtd" >
<svg xmlns="http://www.w3.org/2000/svg" xmlns:xlink="http://www.w3.org/1999/xlink" version="1.1" viewBox="0 -36 256 256">
  <g transform="matrix(1 0 0 -1 0 220)">
   <path fill="currentColor"
d="M42 129q16 -13 20.5 -23t-1.5 -20t-9.5 7.5t-12.5 31.5q-11 -22 -28 -37l-2 3q18 28 27.5 60t12.5 58h-17l-11 -3l-10 10h77l10 11l18 -18h-52q-5 -28 -10 -48h37l6 12l15 -13l-8 -8q-8 -34 -16 -56t-26 -45.5t-51 -42.5l-1 4q29 24 44 46.5t23 46.5t13 49h-38
q-5 -12 -10 -25zM155.5 221q4.5 -9 -2 -17t-10 7t-14.5 31l3 2q19 -14 23.5 -23zM159 73l-11 -3l-10 10h69l10 11l18 -18h-48v-51h31l10 11l18 -18h-108q-13 0 -22 -3l-10 10h67v51h-14zM153 115q-4 -16 -13 -32.5t-24.5 -32.5t-40.5 -29l-1 3q47 36 64 91h15zM147 113h-17
q-13 0 -22 -3l-10 10h62v29h-15q-13 0 -22 -3l-10 10h47v32h-27q-13 0 -22 -3l-10 10h80q5 13 9.5 25t6.5 24l20 -10q-10 -6 -31 -39h25l10 11l18 -18h-66v-32h31l10 11l18 -18h-59v-29h43l10 11l18 -18h-83h-14z" />
  </g>

</svg>
