<?xml version="1.0" standalone="no"?>
<!DOCTYPE svg PUBLIC "-//W3C//DTD SVG 1.1//EN" "http://www.w3.org/Graphics/SVG/1.1/DTD/svg11.dtd" >
<svg xmlns="http://www.w3.org/2000/svg" xmlns:xlink="http://www.w3.org/1999/xlink" version="1.1" viewBox="0 -205 1024 1024">
  <g transform="matrix(1 0 0 -1 0 819)">
   <path fill="currentColor"
d="M390 818h412l44 56l72 -62q3 -4 4 -10q1 -12 -10 -12h-438q-18 0 -66 -8l-18 36v0v0zM382 500h408l42 54l72 -62q3 -3 4 -8q0 -12 -12 -12h-422q-22 0 -70 -8l-22 36v0v0zM310 172h568l44 56l72 -62q3 -4 4 -10q1 -12 -10 -12h-594q-22 0 -70 -7l-14 35v0v0zM404 934
q6 -6 4 -8q3 -5 -6 -10q-34 -6 -52 -32q-51 -102 -102 -192l40 -20q13 -4 8 -14q-1 -4 -34 -14v-492l4 -101q0 -10 -24 -24q-24 -13 -36 -12l4 133v482q-70 -123 -172 -216l-10 10q123 164 198 322q74 159 94 240l84 -52v0v0z" />
  </g>

</svg>
