<?xml version="1.0" standalone="no"?>
<!DOCTYPE svg PUBLIC "-//W3C//DTD SVG 1.1//EN" "http://www.w3.org/Graphics/SVG/1.1/DTD/svg11.dtd" >
<svg xmlns="http://www.w3.org/2000/svg" xmlns:xlink="http://www.w3.org/1999/xlink" version="1.1" viewBox="0 -205 1024 1024">
  <g transform="matrix(1 0 0 -1 0 819)">
   <path fill="currentColor"
d="M672 988q81 -27 84 -32q4 -7 0 -10t-34 -18v-184h156v172q78 -30 82 -36q3 -4 -2 -10q-3 -4 -30 -14v-74l4 -62q3 -24 -18 -36q-18 -10 -36 -10v44h-354l-26 -32l-64 38q27 20 28 32v162l74 -32q7 -3 8 -8q0 -6 -32 -20v-114h160v244v0v0zM876 618l36 40l58 -50l2 -6
q0 -10 -8 -10h-482v-152q-2 -165 -52 -266q-48 -100 -126 -151l-10 12q51 49 94 141q42 93 46 264v206l54 -28h388v0v0zM528 486h302l36 46l60 -54q2 -3 2 -6q1 -12 -10 -12h-176v-148h140l36 48l60 -58q2 -3 2 -6q1 -10 -10 -10h-228v-161l4 -58q1 -15 -24 -30
q-24 -16 -36 -14l4 100v163h-130q-21 0 -48 -8l-24 34h202v148h-82q-15 0 -62 -8l-18 34v0v0zM254 934q5 -3 8 -6q1 -10 -16 -16q-18 -7 -26 -50q-9 -43 -24 -136h106l30 42l56 -36q13 -9 12 -12q0 -7 -32 -28q-27 -180 -50 -254q-22 -75 -50 -134q42 -21 66 -48
q23 -24 28 -48t-4 -38q-10 -15 -26 -12q-16 2 -26 26q-9 21 -20 40q-12 17 -38 44q-44 -73 -100 -135q-57 -63 -114 -108l-10 14q49 50 104 121q53 72 86 132q-36 30 -122 78q25 114 50 330h-56q-21 0 -48 -6l-16 32h124q15 111 28 240l80 -32v0v0zM230 326q24 60 46 142
q21 78 36 232h-120q-28 -190 -58 -322q42 -20 96 -52v0v0z" />
  </g>

</svg>
