<?xml version="1.0" standalone="no"?>
<!DOCTYPE svg PUBLIC "-//W3C//DTD SVG 1.1//EN" "http://www.w3.org/Graphics/SVG/1.1/DTD/svg11.dtd" >
<svg xmlns="http://www.w3.org/2000/svg" xmlns:xlink="http://www.w3.org/1999/xlink" version="1.1" viewBox="0 -36 256 256">
  <g transform="matrix(1 0 0 -1 0 220)">
   <path fill="currentColor"
d="M66.5 210.5q-2.5 15.5 -14.5 34.5l3 2q19 -14 24 -24.5t-2.5 -19t-10 7zM88 197l14 -14l-9 -5q-8 -21 -20 -41v-18l4 -2q11 12 21 34l14 -12q-11 -3 -31 -24q14 -6 20.5 -13t2.5 -17t-10.5 3t-20.5 27v-101l-13 -6v109q-21 -25 -48 -43l-3 3q18 16 37 41.5t33 61.5h-32
q-10 0 -19 -2l-9 9h61zM132 87h43v49h-43v-49zM119 104.5q0 21.5 -1 46.5l14 -8h42l7 9l14 -12l-7 -6v-41q0 -12 1 -24l-14 -7v18h-43v-15l-14 -8q1 26 1 47.5zM178 187l14 12l15 -19h-70q-11 0 -20 -2l-9 9h70zM222 229l5 9l16 -11l-7 -7v-180q0 -20 -23 -31q-2 18 -31 23
v5q23 -1 31.5 -1t9.5 12v174h-82q-10 0 -20 -2l-9 9h110z" />
  </g>

</svg>
