<?xml version="1.0" standalone="no"?>
<!DOCTYPE svg PUBLIC "-//W3C//DTD SVG 1.1//EN" "http://www.w3.org/Graphics/SVG/1.1/DTD/svg11.dtd" >
<svg xmlns="http://www.w3.org/2000/svg" xmlns:xlink="http://www.w3.org/1999/xlink" version="1.1" viewBox="0 -36 256 256">
  <g transform="matrix(1 0 0 -1 0 220)">
   <path fill="currentColor"
d="M198.5 71.5q6.5 0.5 9 8t4.5 51.5h-144v-4l-14 -5q1 35 1 57.5t-1 48.5l14 -7h32q9 19 10 26l17 -11l-8 -1q-5 -7 -13 -14h74l7 8l14 -11l-7 -7v-19q0 -11 1 -20l-14 -5v5h-113v-13h147l10 11l18 -18h-175v-14h143l7 8l15 -12l-7 -6q-2 -36 -5 -53t-23 -22q-1 8 -7 10.5
t-15 4.5v4q16 -1 22.5 -0.5zM181 214h-113v-15h113v15zM181 192h-113v-13h113v13zM126.5 116.5q2.5 -5.5 -1 -13t-9.5 2.5t-20 21l2 3q26 -8 28.5 -13.5zM115 53q13 10 27 38h-66q19 -23 39 -38zM171 98l10 11l18 -18h-42q-10 -24 -31 -45q16 -10 44.5 -15t58.5 -5v-4
q-16 -3 -18 -12q-58 5 -95 28q-37 -24 -106 -28v4q67 10 95 32q-21 20 -35 45h-14q-13 0 -22 -3l-10 10h147z" />
  </g>

</svg>
