<?xml version="1.0" standalone="no"?>
<!DOCTYPE svg PUBLIC "-//W3C//DTD SVG 1.1//EN" "http://www.w3.org/Graphics/SVG/1.1/DTD/svg11.dtd" >
<svg xmlns="http://www.w3.org/2000/svg" xmlns:xlink="http://www.w3.org/1999/xlink" version="1.1" viewBox="0 -36 256 256">
  <g transform="matrix(1 0 0 -1 0 220)">
   <path fill="currentColor"
d="M77 165h-37v-149l-16 -9q3 17 3 30v113q0 13 -2 32l15 -10h37l8 9l14 -16l-7 -3l-32 -43q32 -23 30 -50t-26 -34q-1 13 -18 19v5q12 -3 19.5 -3t10.5 13t-2 23.5t-20 26.5zM102 174h114l12 10l15 -17h-107q-22 0 -23 -3zM122 158l16 -6h56l7 9l16 -10l-8 -7v-30l-14 -4v8
h-60v-6l-13 -2v48zM135 125h60v20h-60v-20zM102 109l13 -6h102l8 10l17 -13l-9 -7v-60q-1 -21 -22 -25q-1 14 -26 16v5q17 -1 26 -1t9 9v59h-25l9 -8l-6 -3l-21 -21h14l11 8l13 -15h-43v-37l-13 -6v43h-9q-16 -1 -21 -3l-10 10h53q12 21 18 32h-75v-82l-13 -7v102zM133 93
l1 3q17 -10 23.5 -15.5t-0.5 -13t-9.5 2.5t-14.5 23zM68 232l-10 -12h55l9 10l17 -17h-57q20 -9 21 -16t-5.5 -12.5t-9.5 6t-15 22.5h-20q-18 -21 -40 -35l-3 2q16 16 27 31t20 36l22 -12zM175 232l-12 -13h59l11 9l14 -16h-61q14 -6 19 -11t3.5 -11t-6.5 -7t-8.5 8.5
t-16.5 20.5h-18q-13 -13 -30 -27l-4 2q20 24 27.5 37t10.5 22l23 -12z" />
  </g>

</svg>
