<?xml version="1.0" standalone="no"?>
<!DOCTYPE svg PUBLIC "-//W3C//DTD SVG 1.1//EN" "http://www.w3.org/Graphics/SVG/1.1/DTD/svg11.dtd" >
<svg xmlns="http://www.w3.org/2000/svg" xmlns:xlink="http://www.w3.org/1999/xlink" version="1.1" viewBox="0 -36 256 256">
  <g transform="matrix(1 0 0 -1 0 220)">
   <path fill="currentColor"
d="M138 142l-18 -6q1 21 1 73h-67v-52l-17 -6q1 13 1 37.5t-1 33.5l18 -6h66q0 16 -1 27l23 -7l-6 -7v-13h65l8 11l18 -10l-8 -8v-36q0 -14 -23 -21q-7 14 -32 17v5q20 -2 29.5 -2t9.5 6v31h-67q0 -52 1 -67zM159 133h25l11 10l17 -15l-13 -5q-18 -26 -60 -61
q46 -29 105 -32v-4q-20 -3 -25 -15q-55 15 -91 43q-48 -29 -114 -43l-1 5q63 17 104 46q-25 23 -51 64h-6q-7 0 -13 -2l-10 9h122zM128 71q26 21 55 55h-111q30 -34 56 -55z" />
  </g>

</svg>
