<?xml version="1.0" standalone="no"?>
<!DOCTYPE svg PUBLIC "-//W3C//DTD SVG 1.1//EN" "http://www.w3.org/Graphics/SVG/1.1/DTD/svg11.dtd" >
<svg xmlns="http://www.w3.org/2000/svg" xmlns:xlink="http://www.w3.org/1999/xlink" version="1.1" viewBox="0 -205 1024 1024">
  <g transform="matrix(1 0 0 -1 0 819)">
   <path fill="currentColor"
d="M296 970l6 12q62 -18 88 -30q24 -13 34 -32q8 -17 2 -34q-7 -18 -26 -18q-19 -1 -26 20q-6 20 -20 38q-16 17 -58 44v0v0zM488 570q10 -11 -4 -16q-18 -3 -32 -12q-12 -6 -38 -32h180l30 30l54 -36q15 -9 4 -18q-24 -3 -48 -18l-64 -46h176l24 30l58 -40q10 -9 -4 -18
l-18 -12v-114l4 -74q0 -13 -20 -22q-18 -9 -32 -8v18h-464v-8q0 -6 -18 -14q-17 -10 -34 -10l2 98v126q-42 -31 -96 -62l-8 14q57 45 150 126q89 81 134 144l64 -26v0v0zM294 208h202v80h-202v-80v0v0zM546 288v-80h212v80h-212v0v0zM294 314h202v82h-202v-82v0v0zM546 396
v-82h212v82h-212v0v0zM312 422h230l50 64h-200l-52 -42l-28 -22v0v0zM222 135h18q-3 -38 -14 -68q-12 -29 -30 -44t-38 -18q-18 -3 -30 6q-13 6 -10 24q0 15 18 18q16 4 32 10q14 6 26 18t28 54v0v0zM344 148l10 10q50 -27 74 -51q23 -24 26 -46q3 -20 -8 -32
q-9 -12 -26 -10q-18 4 -20 28q-4 22 -16 46q-11 24 -40 55v0v0zM732 140l8 14q80 -22 110 -41q30 -14 40 -38q10 -23 2 -40q-9 -16 -26 -14q-18 0 -30 24q-12 19 -32 44q-21 22 -72 51v0v0zM556 142l10 10q60 -27 84 -51q21 -21 24 -42q3 -20 -8 -32q-9 -10 -26 -8
q-17 4 -22 28q-6 21 -18 42q-13 22 -44 53v0v0zM570 848q47 71 82 134q68 -33 70 -42q0 -7 -6 -10q-6 -1 -18 -4q-13 -1 -34 -16q-19 -15 -62 -62h224l38 48l62 -54q3 -4 4 -8q0 -12 -12 -12h-400q-12 -36 -30 -78h268l30 42l54 -44q9 -9 12 -14q0 -10 -12 -10h-362
q-27 -41 -50 -70h420l42 50l62 -56q3 -3 4 -8q0 -12 -12 -12h-296q57 -54 106 -84q46 -29 110 -46q63 -16 130 -14l4 -18l-42 -8l-28 -18l-18 -26q-54 21 -96 46q-42 23 -90 62q-48 36 -104 106h-212q-63 -69 -162 -134q-100 -66 -208 -110l-6 16q105 57 184 114
q77 54 134 114h-216q-21 0 -68 -8l-16 34h322q14 14 52 70h-204q-21 0 -68 -8l-16 34h300q18 42 28 78h-292q-21 0 -68 -8l-16 34h482v0v0z" />
  </g>

</svg>
