<?xml version="1.0" standalone="no"?>
<!DOCTYPE svg PUBLIC "-//W3C//DTD SVG 1.1//EN" "http://www.w3.org/Graphics/SVG/1.1/DTD/svg11.dtd" >
<svg xmlns="http://www.w3.org/2000/svg" xmlns:xlink="http://www.w3.org/1999/xlink" version="1.1" viewBox="0 -52 256 256">
  <g transform="matrix(1 0 0 -1 0 204)">
   <path fill="currentColor"
d="M16 234l10 -12h32l9 10l13 -12q2 -2 1 -3q0 -1 -3 -1l-4 -3v-97l1 -25q0 -6 -3 -8q-3 -3 -10 -3v21h-34v-19q0 -6 -3 -8q-3 -3 -10 -4q1 4 1 17q1 10 1 16v117q-2 6 -5 11zM62 217h-34v-111h34v111zM146 253l23 -11q2 -1 2 -2l-1 -1q-5 -2 -7 -5v-30h41l10 13l20 -14
q2 -2 2 -3q-1 -1 -5 -1h-68v-69h55l10 13l19 -15q2 -1 2 -2q-1 -1 -5 -1h-74q8 -21 15 -32q4 -7 13 -17q1 -1 1 -2q5 -7 12 -14q6 -6 15 -12q8 -4 17 -7v-2q-9 1 -13 0q-5 0 -8 -5q-16 11 -25 24q-10 13 -19 28q-8 15 -14 39h-1v-81v-23q0 -6 -3 -8q-1 0 -4 -2q-4 -1 -6 -2
q1 4 1 23q1 14 1 23v65q-12 -21 -21 -33q-10 -14 -24 -29q-15 -14 -40 -31l-2 4q24 20 37 35q12 15 21 29q8 12 17 30h-38q-6 0 -11 -3l-8 8h69v69h-45q-7 0 -12 -3l-8 8h65v34q0 5 -8 12zM202 192l19 -12q4 -3 1 -4q-4 0 -9 -2q-14 -21 -28 -40l-5 1q6 11 15 27q1 3 2 5
q6 12 6 15t-3 8zM95 186l1 3q13 -9 22 -18q8 -9 11 -19q3 -11 -3 -14t-8 7q-2 12 -8 21q-2 4 -7 10q-5 7 -8 10z" />
  </g>

</svg>
