<?xml version="1.0" standalone="no"?>
<!DOCTYPE svg PUBLIC "-//W3C//DTD SVG 1.1//EN" "http://www.w3.org/Graphics/SVG/1.1/DTD/svg11.dtd" >
<svg xmlns="http://www.w3.org/2000/svg" xmlns:xlink="http://www.w3.org/1999/xlink" version="1.1" viewBox="0 -36 256 256">
  <g transform="matrix(1 0 0 -1 0 220)">
   <path fill="currentColor"
d="M118 196q0 -12 2 -17t7 -7q-7 -10 -18 -10h-55q-16 0 -15 18v38q0 12 -1 24l16 -8h43l6 9l13 -11l-6 -6v-31l-13 -4v5h-45v-14q0 -10 10 -9h39q13 -1 13 23h4zM151 234h41l6 9l15 -12l-6 -5v-31l-13 -5v6h-44v-12q0 -11 12 -11h44q4 0 6.5 2t2.5 25h5q0 -11 2 -17.5
t8 -9.5q-7 -11 -21 -11h-57q-15 2 -15 18q0 50 -1 62zM52 203h45v24h-45v-24zM194 203v24h-44v-24h44zM112 122l15 -18h-47v-33h-14v33h-18q-10 0 -19 -2l-9 9h46v30h-16l-10 -2l-9 9h63l11 10l14 -17h-39v-30h20zM218 122l16 -18h-51v-33h-14v33h-11q-10 0 -19 -2l-9 9h39
v31q-18 0 -27 -2l-8 9h61l11 10l15 -17h-38v-31h24zM213 73l15 13l18 -20h-200q-17 0 -24 -3l-10 10h201zM108 47l-10 -1q-44 -27 -79 -36l-1 4q15 6 38 20t37 30zM198 44.5q22 -8.5 25.5 -17t0 -14t-11.5 2t-23 18t-43 22.5l1 5q29 -8 51 -16.5z" />
  </g>

</svg>
