<?xml version="1.0" standalone="no"?>
<!DOCTYPE svg PUBLIC "-//W3C//DTD SVG 1.1//EN" "http://www.w3.org/Graphics/SVG/1.1/DTD/svg11.dtd" >
<svg xmlns="http://www.w3.org/2000/svg" xmlns:xlink="http://www.w3.org/1999/xlink" version="1.1" viewBox="0 -36 256 256">
  <g transform="matrix(1 0 0 -1 0 220)">
   <path fill="currentColor"
d="M76 233l-14 -21h50l10 11l18 -18h-62q19 -5 24.5 -8.5t6.5 -6.5t-4 -9.5t-9 -0.5t-9.5 13t-16.5 12h-13q-15 -19 -40 -34l-2 3q19 19 31 36.5t21 36.5l19 -12zM178 232q-8 -9 -15 -19h48l10 11l18 -18h-62q22 -5 29.5 -8.5t8 -8.5t-3.5 -10.5t-11 3.5t-30 24h-10
q-12 -14 -31 -28l-3 3q17 20 27 37t14 29l21 -13zM88 85q21 -24 39 -33q20 11 42 32h-78zM180 151q-11 6 -30 18l2 3q36 -13 46.5 -18t12 -13t-2.5 -10.5t-7.5 1.5t-14.5 12q-113 -3 -126 -13l-8 21q10 -3 30 8t35 27l14 -16l-10 -1q-25 -13 -51 -22zM92 138l18 -15l-14 -1
q-31 -19 -65 -31l-1 4q38 18 62 43zM211 116q9 -6 8.5 -16t-14 1t-60.5 30l3 3q54 -12 63 -18zM138 46q30 -12 58 -16t52 -4v-4q-18 -2 -25 -11q-56 8 -95 28q-46 -25 -116 -29v4q66 9 104 31q-16 12 -33 37q-24 -21 -52 -33l-1 3q25 18 42 34.5t26 28.5l20 -12
q-15 -4 -24 -12h77l10 8l16 -15l-10 -2q-22 -20 -49 -36z" />
  </g>

</svg>
