<?xml version="1.0" standalone="no"?>
<!DOCTYPE svg PUBLIC "-//W3C//DTD SVG 1.1//EN" "http://www.w3.org/Graphics/SVG/1.1/DTD/svg11.dtd" >
<svg xmlns="http://www.w3.org/2000/svg" xmlns:xlink="http://www.w3.org/1999/xlink" version="1.1" viewBox="0 -205 1024 1024">
  <g transform="matrix(1 0 0 -1 0 819)">
   <path fill="currentColor"
d="M892 838l36 52l62 -58q3 -4 4 -10q1 -10 -10 -10h-452q-22 0 -70 -8l-14 34h444v0v0zM512 752l58 -28q9 -3 10 -6q4 -9 -22 -26v-160h318v220l72 -32q6 -4 6 -8t-32 -22v-106l4 -76q3 -12 -14 -24q-15 -10 -36 -10v34h-308l-22 -32l-62 42q27 16 28 38v196v0v0zM626 970
l4 12q53 -15 88 -36q33 -19 42 -40t0 -36q-9 -16 -26 -16q-18 -1 -24 20q-6 20 -26 44q-19 23 -58 52v0v0zM476 452l60 -38h114q13 30 26 82q69 -18 72 -24q0 -6 -2 -12q-3 -3 -12 -6q-9 -2 -14 -10q-7 -6 -22 -30h192l24 34l54 -40q10 -6 8 -14q0 -7 -32 -28v-261
q3 -32 -12 -56t-54 -36q-9 35 -32 48q-21 13 -72 32l6 16q60 -15 78 -18t30 2q12 4 10 40v255h-212q-36 -68 -86 -142q102 12 172 24q-30 43 -60 80l10 10q60 -45 90 -74q30 -30 36 -56q7 -25 -4 -40q-10 -15 -28 -12q-16 1 -20 20q-3 18 -14 52q-94 -20 -128 -28
q-33 -9 -78 -30l-30 56q23 6 28 12q5 5 20 32q15 24 48 96h-120v-244l4 -91q0 -14 -18 -26t-36 -12l4 127v310v0v0zM724 698q35 32 74 86q52 -36 50 -44q0 -9 -8 -8q-7 0 -22 -6t-26 -18q-9 -10 -36 -32q55 -39 68 -62q12 -24 10 -38q-3 -12 -12 -18q-9 -4 -20 -2
q-10 1 -20 20q-10 17 -22 34t-38 40q-66 -56 -146 -94l-10 12q84 59 130 106q-39 30 -108 78l8 14q59 -27 128 -68v0v0zM22 886h322l38 50l62 -58q3 -3 4 -8q0 -7 -14 -8h-142v-152h54l28 36l54 -40q3 -3 4 -6q-1 -7 -28 -26v-502l4 -75q0 -12 -14 -22q-12 -10 -36 -14v64
h-254v-62q1 -12 -16 -24q-16 -14 -34 -16l4 123v604l50 -40h54v152h-52q-22 0 -70 -8l-18 32v0v0zM104 304v-154h254v154h-254v0v0zM104 376v-46h254v106h-34t-30 4q-16 3 -28 18q-12 12 -12 34v194h-52q2 -154 -22 -214q-25 -57 -76 -96v0v0v0zM358 686h-66v-180
q0 -18 10 -24q8 -6 22 -6h34v210v0v0zM202 710h52v152h-52v-152v0v0zM162 686h-58v-282q32 32 46 94q13 62 12 188v0v0z" />
  </g>

</svg>
