<?xml version="1.0" standalone="no"?>
<!DOCTYPE svg PUBLIC "-//W3C//DTD SVG 1.1//EN" "http://www.w3.org/Graphics/SVG/1.1/DTD/svg11.dtd" >
<svg xmlns="http://www.w3.org/2000/svg" xmlns:xlink="http://www.w3.org/1999/xlink" version="1.1" viewBox="0 -144 1024 1024">
  <g transform="matrix(1 0 0 -1 0 880)">
   <path fill="currentColor"
d="M223 532h-75l-15 -31l-13 -25l-16 -24l-16 -22l-19 -19l-20 -16l-7 6l32 68l17 49l8 27l7 28l5 29l5 31l4 26h-1l3 16l62 -20l14 -13l-19 -8l-3 -13l-8 -33l-10 -30l-2 -4h180l54 53l64 -53v-22h-166v-156l-1 -15h65l54 53l64 -53v-22h-186l-1 -15l-8 -46l47 -28l19 -13
l35 -29l17 -14l15 -16l27 -31l4 -24l-14 -21l-24 -4l-20 14l-8 16l-20 31l-12 17l-40 50l-31 35l-9 -31l-18 -41l-24 -37l-28 -33l-32 -30l-37 -24l-41 -20l-44 -15l-4 9l39 24l34 25l30 27l24 30l21 32l16 34l13 36l8 40l5 43v9h-199v22h199v171zM775 699l54 -48v-22h-95
v-118h80l54 54l64 -54v-21h-198v-135h80l32 26l59 -48l-26 -21v-230l-65 -32v54h-225v-38l-65 -32v353l65 -32h80v135h-189v21h189v118h-97v22h159zM814 333h-225v-208h225v208zM888 652l-28 23l-26 24l-25 27l-22 28l-21 30l-20 32l-17 34l-14 34l-12 -24l-23 -41l-26 -40
l-28 -37l-29 -36l-31 -34l-34 -31l-35 -29l-38 -26l-6 7l59 68l53 70l24 37l43 77l19 41l17 41l16 44l3 7l58 -30l11 -15l-20 -4l-10 -22l30 -41l45 -55l23 -24l24 -23l25 -20l26 -19l26 -17l52 -29l-60 -47zM55 728l-1 1zM59 684v2v-2zM59 679l-16 63l10 1h12l85 131l30 52
l31 59l53 -37l9 -18h-20l-24 -35l-39 -50l-40 -46l-21 -22l-22 -21l-13 -11l27 1l36 2l37 2l79 4l85 3l44 1h9l-20 41l-35 59l-25 39l7 6l19 -12l19 -15l18 -16l17 -18l16 -19l31 -41l15 -23l26 -48v-25l-17 -17h-25l-17 17l-22 55l-57 -12l-84 -16l-115 -19l-81 -12l-9 -18
z" />
  </g>

</svg>
