<?xml version="1.0" standalone="no"?>
<!DOCTYPE svg PUBLIC "-//W3C//DTD SVG 1.1//EN" "http://www.w3.org/Graphics/SVG/1.1/DTD/svg11.dtd" >
<svg xmlns="http://www.w3.org/2000/svg" xmlns:xlink="http://www.w3.org/1999/xlink" version="1.1" viewBox="0 -205 1024 1024">
  <g transform="matrix(1 0 0 -1 0 819)">
   <path fill="currentColor"
d="M816 896q-62 -6 -136 -20q0 -198 6 -308h164l44 56l66 -64q3 -4 4 -10q0 -9 -8 -8h-268q4 -75 20 -132q14 -58 40 -118q27 -60 60 -98q32 -38 58 -55q27 -18 36 -16q9 3 22 47q9 42 30 120l18 -6q-10 -61 -16 -118q-7 -53 -4 -69q3 -14 12 -26q9 -11 10 -20q1 -5 -16 -8
q-15 -2 -62 16q-48 18 -90 60q-42 38 -78 97q-34 57 -58 142q-25 81 -32 184h-214v-405l196 101l10 -18q-168 -104 -186 -119q-19 -15 -52 -58l-58 60q38 18 38 49v748l58 -44q135 27 222 54q88 24 170 58l52 -62q4 -12 -16 -14q-9 3 -42 4v0v0zM634 568l-4 298
q-133 -21 -206 -36v-262h210v0v0zM170 392q-27 -52 -44 -56q-19 -3 -88 4l-2 -22q50 -12 70 -20q20 -6 32 -18q9 -11 12 -40q3 -30 -6 -84q-10 -55 -8 -83q1 -27 20 -36q18 -9 36 0q16 8 20 34q3 25 -8 89q-13 63 -10 94q0 30 4 52q2 21 16 66l128 390l-22 6l-150 -376v0v0z
M102 942l6 14q48 -17 84 -34q33 -18 52 -38q17 -19 20 -40q3 -19 -8 -34q-9 -13 -26 -14q-18 0 -24 16q-6 14 -14 34q-9 20 -24 38q-15 17 -66 58v0v0zM36 686l6 14q42 -15 78 -32q35 -15 52 -36q15 -18 18 -38q1 -20 -10 -34q-12 -15 -26 -14q-15 0 -20 16q-6 15 -14 34
q-10 18 -28 40q-18 20 -56 50v0v0z" />
  </g>

</svg>
