<?xml version="1.0" standalone="no"?>
<!DOCTYPE svg PUBLIC "-//W3C//DTD SVG 1.1//EN" "http://www.w3.org/Graphics/SVG/1.1/DTD/svg11.dtd" >
<svg xmlns="http://www.w3.org/2000/svg" xmlns:xlink="http://www.w3.org/1999/xlink" version="1.1" viewBox="0 -339 2048 2048">
  <g transform="matrix(1 0 0 -1 0 1709)">
   <path fill="currentColor"
d="M340 1964l150 -59q21 -8 26 -23q2 -5 2 -8q0 -7 -7 -16q-12 -12 -32 -15l-47 -8q-39 -92 -80 -171h348l96 98l130 -100q16 -12 16 -26q0 -9 -5 -16q-7 -10 -19 -10h-313v-414h179l96 100l126 -98q16 -12 16 -29q0 -8 -4 -15q-7 -10 -20 -10h-393v-317h99l96 96l115 -86
q34 -25 31 -42q-1 -9 -9 -16q-5 -6 -15 -6h-317l-1 -381q119 25 188 41q66 17 176 48l11 -40q-73 -30 -111.5 -44t-104.5 -35q-172 -55 -299 -87q-68 -17 -171 -38l-15 -49q-6 -18 -16 -24q-5 -3 -9 -3q-9 0 -18 8t-14 21l-51 127l12 2v550q-2 82 -4 108q-1 10 -4 25l87 -13
q30 -5 63 -17q22 -8 32 -18q6 -6 6 -17q0 -25 -40 -35l-44 -11v-558q100 16 223 38v773h-168q-115 0 -194 -8l-38 84q30 -8 53 -11q74 -13 179 -13h168v414h-176q-30 -51 -48 -80q-33 -50 -101 -131q-24 -29 -57 -64l-30 28q50 73 66 97q63 103 122 266q40 112 63 238z
M1226 1752q-150 0 -222 -8l-38 88q30 -7 52 -11q73 -12 178 -12h490l99 102l120 -107q13 -11 15 -16t2 -10q0 -9 -6 -16q-8 -10 -21 -10h-574l-53 -405h341l69 76l83 -54q28 -18 34 -29q6 -10 6 -20q0 -15 -12 -26q-11 -11 -30 -20q-15 -7 -36 -16l-57 -968q-1 -22 4 -48
q3 -17 13 -23q15 -8 44 -9l40 -1q54 0 79 21q17 15 23 39q14 46 36 229h38l-9 -191q-1 -23 6 -42q5 -15 18 -27l28 -25q13 -12 13 -29q0 -18 -23 -33q-11 -8 -30.5 -15t-39.5 -10q-22 -5 -86 -9q-56 -4 -80 -4q-40 0 -82 9q-69 14 -87 54q-9 21 -9 55v13l64 1046h-365
l-27 -218q48 -36 75 -58q73 -61 132 -123q35 -37 57 -80q17 -32 17 -65q0 -34 -18 -49q-14 -13 -32 -13t-30 11q-18 15 -26 39l-13 40q-19 58 -59 120q-24 39 -57 76q-17 20 -55 59l-89 -709q126 22 202 40q45 11 123 32l10 -39q-142 -61 -197 -77l-128 -39q-23 -7 -86 -29
q-6 -33 -10 -45q-12 -33 -30 -34q-7 -1 -18 9q-18 17 -31 52l-38 99q51 9 107 17z" />
  </g>

</svg>
