<?xml version="1.0" standalone="no"?>
<!DOCTYPE svg PUBLIC "-//W3C//DTD SVG 1.1//EN" "http://www.w3.org/Graphics/SVG/1.1/DTD/svg11.dtd" >
<svg xmlns="http://www.w3.org/2000/svg" xmlns:xlink="http://www.w3.org/1999/xlink" version="1.1" viewBox="0 -204 1024 1024">
  <g transform="matrix(1 0 0 -1 0 820)">
   <path fill="currentColor"
d="M259 174l-1 314l52 -37h394l24 30l65 -39q2 -2 0 -9t-7 -11l-13 -7l-12 -8v-238q0 -7 1 -35.5t1 -31.5l2 -21q1 -25 1.5 -31t0.5 -10q-2 -6 -8.5 -13.5t-20.5 -7.5q-15 0 -20 4.5t-5 20.5v4h-407l1 -4q0 -7 -4 -16t-27 -9q-11 0 -15 3.5t-6 10t-2 12t2 24.5q0 9 0.5 29.5
t2 43.5t1.5 32zM306 76h407v97h-407v-97zM306 200h407v97h-407v-97zM306 326h407v96h-407v-96zM960 565h-792q-48 0 -97 -4l-19 44q47 -11 116 -11h687l50 50l60 -53q5 -5 7 -8t1 -9q-3 -9 -13 -9zM685 579h25q41 -48 50.5 -59t50.5 -45.5t88.5 -57t95.5 -36.5v-18
q-34 -1 -45 -7.5t-20 -26.5q-58 35 -105.5 76.5t-75.5 79t-64 94.5zM47 329l-11 19q110 63 182.5 124.5t119 137t70 141t32.5 104t23 113.5l70 -17q20 -5 19 -15.5t-11 -13.5l-32 -9q-24 -79 -41.5 -131t-42 -103t-56 -95t-54 -69.5t-63.5 -59.5t-86 -64t-119 -62zM170 689
l-19 44q45 -11 116 -11l475 1l49 51l61 -54q5 -5 7 -7.5t1 -8.5q-3 -10 -13 -10l-580 -1q-31 0 -97 -4zM118 820l-19 44q33 -6 49.5 -8.5t65.5 -2.5h577l50 51l60 -53q5 -5 7.5 -8t0.5 -9q-3 -9 -13 -9h-682q-70 0 -96 -5z" />
  </g>

</svg>
