<?xml version="1.0" standalone="no"?>
<!DOCTYPE svg PUBLIC "-//W3C//DTD SVG 1.1//EN" "http://www.w3.org/Graphics/SVG/1.1/DTD/svg11.dtd" >
<svg xmlns="http://www.w3.org/2000/svg" xmlns:xlink="http://www.w3.org/1999/xlink" version="1.1" viewBox="0 -36 256 256">
  <g transform="matrix(1 0 0 -1 0 220)">
   <path fill="currentColor"
d="M39 90h57v20h-57v-20zM39 117h57v15h-57v-15zM55 245q14 -8 20.5 -16.5t-1 -17.5t-10.5 5t-12 26zM97 205l11 11l14 -18h-32l13 -8l-8 -4q-9 -14 -18 -27h25l11 11l15 -18h-90q-10 0 -20 -2l-9 9h63q6 14 13 39h-37q-10 0 -19 -2l-10 9h78zM39 196q14 -9 18.5 -16t-3 -15
t-9 5t-9.5 23zM120 63l3 -3q-32 -30 -41 -42l-10 13q5 6 4 14v38h-13q-3 -29 -14 -46t-39 -29l-2 4q23 14 31.5 32t9.5 39h-10v-4l-14 -6q1 28 1 42t-1 31l14 -7h56l8 9l14 -13l-8 -5q0 -36 1 -47l-13 -6v6h-9v-41zM136 218l11 -6h12q7 25 8 34l19 -8l-8 -5q-5 -11 -11 -21
h40l7 9l14 -11l-7 -6q0 -36 1 -51l-14 -6v7h-58v-19h75l10 11l11 -18h-96v-19h76l5 9l16 -11l-7 -6q-2 -47 -4 -60t-9 -21t-17 -12q-1 12 -25 16v6q18 -2 25 -2t10 8t4 25t2 41h-76v-8l-14 -6q1 24 1 38v65q0 13 -1 27zM208 205h-58v-20h58v20zM208 178h-58v-17h58v17z
M195.5 65.5q2.5 -8.5 -0.5 -13.5t-6.5 -5t-4 7.5t-4 16t-7.5 16.5l2 2q18 -15 20.5 -23.5zM215.5 73.5q4.5 -7.5 2 -14.5t-7 -7.5t-4.5 6.5t-4 17t-7 15l3 2q13 -11 17.5 -18.5zM170 64q4 -9 1 -15.5t-7.5 -6.5t-4.5 9.5t-2 17t-4 14.5l2 2q11 -12 15 -21zM143 51
q-2 -9 -8.5 -12.5t-10.5 1t3 12.5t9 15t3 16h4q2 -23 0 -32z" />
  </g>

</svg>
