<?xml version="1.0" standalone="no"?>
<!DOCTYPE svg PUBLIC "-//W3C//DTD SVG 1.1//EN" "http://www.w3.org/Graphics/SVG/1.1/DTD/svg11.dtd" >
<svg xmlns="http://www.w3.org/2000/svg" xmlns:xlink="http://www.w3.org/1999/xlink" version="1.1" viewBox="0 -36 256 256">
  <g transform="matrix(1 0 0 -1 0 220)">
   <path fill="currentColor"
d="M132 244l10 -18l-10 1q-17 -4 -35 -7v-27h44l11 11l17 -18h-72v-21h34l6 10l16 -10l-7 -9v-29q0 -19 1 -32l-15 -6v7h-35v-24h29l12 12l17 -19h-58v-21l59 8l1 -4q-102 -20 -133 -31l-9 18q18 1 68 7v23h-32q-11 0 -20 -2l-9 9h61v24h-35v-6l-16 -6q1 45 0 90l17 -9h34
v21h-44q-10 0 -19 -2l-9 9h72v25q-31 -4 -54 -4v4q67 9 103 26zM48 158v-25h35v25h-35zM97 158v-25h35v25h-35zM97 126v-23h35v23h-35zM48 103h35v23h-35v-23zM188 133q0 -28 1 -59l-16 -7q1 29 1 55v59q0 15 -1 32l21 -8l-6 -7v-65zM220 191q0 26 -1 52l22 -8l-7 -8v-198
q0 -15 -25 -20q0 14 -26 21v4q37 -8 37 2v155z" />
  </g>

</svg>
