<?xml version="1.0" standalone="no"?>
<!DOCTYPE svg PUBLIC "-//W3C//DTD SVG 1.1//EN" "http://www.w3.org/Graphics/SVG/1.1/DTD/svg11.dtd" >
<svg xmlns="http://www.w3.org/2000/svg" xmlns:xlink="http://www.w3.org/1999/xlink" version="1.1" viewBox="0 -36 256 256">
  <g transform="matrix(1 0 0 -1 0 220)">
   <path fill="currentColor"
d="M53 246q24 -12 28.5 -20.5t-3.5 -17.5t-11.5 5.5t-17.5 29.5zM61 119q-22 -26 -47 -41l-2 3q22 20 41 48t32 53h-42q-10 0 -20 -2l-9 9h72l8 14l19 -19l-10 -4q-14 -20 -27 -40q29 -13 34 -21t0 -18t-12 4t-22 29q0 -103 1 -122l-17 -6q1 41 1 113zM222 32l12 40l4 -1
q-3 -17 -3 -32t5 -25.5t-24.5 6.5t-47.5 49q-17 31 -24 87l-25 -2l-6 -4l-11 10l41 3q-4 62 -5 82l24 -12l-9 -7q0 -25 3 -61l53 4l11 13l20 -18l-83 -6q4 -46 22 -81q16 -29 43 -45zM206 217q10 -6 11 -12.5t-4 -15.5t-12 6t-27 32l2 3q20 -7 30 -13z" />
  </g>

</svg>
