<?xml version="1.0" standalone="no"?>
<!DOCTYPE svg PUBLIC "-//W3C//DTD SVG 1.1//EN" "http://www.w3.org/Graphics/SVG/1.1/DTD/svg11.dtd" >
<svg xmlns="http://www.w3.org/2000/svg" xmlns:xlink="http://www.w3.org/1999/xlink" version="1.1" viewBox="0 -36 256 256">
  <g transform="matrix(1 0 0 -1 0 220)">
   <path fill="currentColor"
d="M17 208l-1 5q17 4 35.5 12t26.5 17l12 -18q-7 0 -27 -6v-47h10l11 11l13 -18h-34v-23q19 -8 23.5 -15t-0.5 -17.5t-9.5 3t-13.5 24.5q0 -95 1 -122l-15 -8q1 52 1 126q-15 -38 -42 -67l-3 2q31 52 42 97h-7q-10 0 -19 -2l-9 9h38v44q-8 -2 -33 -7zM129 241l18 -14l-6 -2
q-5 -7 -14 -19h36l7 9l13 -15l-7 -4q-40 -57 -84 -73l-1 3q46 30 69 73h-35l-7 -6q13 -7 16.5 -13.5t-2 -14t-8.5 4.5t-10 20q-10 -11 -21 -19l-3 2q32 38 39 68zM136 147l20 -13l-8 -2q-7 -8 -15 -17h31l8 8l12 -17l-7 -6q-22 -38 -45.5 -58.5t-58.5 -30.5l-2 4
q63 27 93 93h-34l-7 -8q24 -16 15.5 -30t-10.5 2t-8 25q-16 -18 -38 -32l-3 2q42 42 57 80zM243 228l-9 -8v-178q2 -23 -21 -30q-2 13 -29 20v4q18 -2 28 -2t9 12v154q0 20 -1 37zM188 137.5q0 40.5 -1 64.5l21 -8l-7 -7v-87q0 -16 1 -25l-15 -8q1 30 1 70.5z" />
  </g>

</svg>
