<?xml version="1.0" standalone="no"?>
<!DOCTYPE svg PUBLIC "-//W3C//DTD SVG 1.1//EN" "http://www.w3.org/Graphics/SVG/1.1/DTD/svg11.dtd" >
<svg xmlns="http://www.w3.org/2000/svg" xmlns:xlink="http://www.w3.org/1999/xlink" version="1.1" viewBox="0 -36 256 256">
  <g transform="matrix(1 0 0 -1 0 220)">
   <path fill="currentColor"
d="M61 216l15 -10h66q-1 7 -4.5 16t-12.5 21l2 2q19 -11 25.5 -20.5t-3.5 -18.5h61l14 12l16 -19h-164q0 -45 -1 -76t-13 -59.5t-44 -54.5l-2 3q40 38 46 108q-28 -20 -37 -34l-13 15q17 5 50 24q0 67 -1 91zM44.5 167.5q5.5 -8.5 -2 -17t-10 6.5t-11.5 29l2 3
q16 -13 21.5 -21.5zM210 140q0 -11 1 -24l-14 -5v8h-77v-6l-14 -4q1 17 1 37.5t-1 38.5l14 -8h77l7 8l14 -13l-8 -7v-25zM120 126h77v44h-77v-44zM156 93h53l7 9l14 -12l-7 -6q-2 -26 -7 -47.5t-27 -27.5q0 13 -29 22l1 4q33 -10 38.5 -0.5t9.5 51.5h-54q-10 -35 -33 -53
t-62 -26l-1 4q67 21 82 75h-27q-13 1 -23 -2l-9 9h60q3 13 3 26l17 -10l-3 -4q-2 -5 -3 -12z" />
  </g>

</svg>
