<?xml version="1.0" standalone="no"?>
<!DOCTYPE svg PUBLIC "-//W3C//DTD SVG 1.1//EN" "http://www.w3.org/Graphics/SVG/1.1/DTD/svg11.dtd" >
<svg xmlns="http://www.w3.org/2000/svg" xmlns:xlink="http://www.w3.org/1999/xlink" version="1.1" viewBox="0 -36 256 256">
  <g transform="matrix(1 0 0 -1 0 220)">
   <path fill="currentColor"
d="M111 230l-15 -19h-8q5 11 7.5 18.5t2.5 16.5l23 -11zM194 116v88h-130v-88h130zM211 101l-17 -5v13h-130v-11l-16 -5q1 29 1 63.5t-1 62.5l19 -8h124l9 11l19 -15l-9 -7v-57q0 -21 1 -42zM121 199l21 -9l-8 -6l-6 -16q32 -12 42 -19t6.5 -20t-15 4t-36.5 30
q-11 -25 -51 -40l-2 3q41 24 49 73zM44 81q-1 -26 -5.5 -35.5t-11 -13t-15 0t4.5 13t21 35.5h6zM107 97q25 -10 34 -17.5t6.5 -16.5t-6.5 -10t-10 11t-25 29zM198 82q31 -14 38.5 -22t7 -16.5t-5 -13.5t-10.5 9t-32 39zM69 90l26 -12l-10 -8v-26q-2 -15 16 -14h61
q16 -1 18.5 11t2.5 24h5q0 -20 2.5 -25.5t11.5 -7.5q-9 -16 -31 -16h-78q-23 -1 -23 20q0 35 -1 54z" />
  </g>

</svg>
