<?xml version="1.0" standalone="no"?>
<!DOCTYPE svg PUBLIC "-//W3C//DTD SVG 1.1//EN" "http://www.w3.org/Graphics/SVG/1.1/DTD/svg11.dtd" >
<svg xmlns="http://www.w3.org/2000/svg" xmlns:xlink="http://www.w3.org/1999/xlink" version="1.1" viewBox="0 -205 1024 1024">
  <g transform="matrix(1 0 0 -1 0 819)">
   <path fill="currentColor"
d="M910 870l62 -42q2 -3 2 -8q0 -7 -8 -8l-230 -32q10 -30 38 -68q27 -37 64 -64q34 -25 56 -34q21 -9 28 0q3 8 12 40q8 33 26 90l18 -2q-13 -87 -16 -110q-1 -24 8 -38q8 -12 14 -24q4 -10 -4 -16q-9 -7 -44 -4q-34 2 -94 38t-92 78q-34 39 -64 106l-68 -10
q-18 -6 -42 -18l-30 34l130 20q-18 59 -32 176l72 -18q9 -6 10 -12q1 1 -4 -4l-22 -14q6 -69 24 -120l166 22l20 42v0v0zM756 946l6 12q40 -11 74 -28q33 -15 42 -32q9 -18 0 -32q-7 -13 -26 -14q-18 -1 -24 20q-7 20 -26 38q-19 15 -46 36v0v0zM604 938l2 -6q0 -6 -20 -12
q-17 -13 -34 -46l-22 -40v-148l4 -68q2 -4 -16 -16q-17 -11 -40 -16l4 94v88q-32 -48 -76 -96l-14 10q78 116 148 292l64 -36v0v0zM472 568l56 -32h274l34 28l54 -34q6 -6 6 -8q0 -6 -26 -20v-250l4 -52q0 -12 -18 -24t-36 -14v40h-298v-14q0 -12 -18 -24q-18 -13 -36 -16
l4 110v310v0v0zM522 228h298v88h-298v-88v0v0zM522 342h298v70h-298v-70v0v0zM522 438h298v72h-298v-72v0v0zM370 19q90 59 214 163l52 -34q9 -6 0 -15q-24 -3 -32 -6q-7 0 -64 -36q-58 -35 -160 -86l-10 14v0v0zM738 160l8 14q87 -32 126 -55q38 -21 50 -46q13 -23 2 -40
q-10 -15 -28 -16q-17 1 -28 26q-11 22 -40 50q-27 27 -90 67v0v0zM70 780l52 -28h74v228l76 -34q10 -6 2 -18l-26 -16v-160h60l24 34l54 -40q12 -9 4 -14l-22 -22v-232l4 -58q3 -15 -12 -26q-15 -12 -42 -14v46h-70v-220l94 22q-24 44 -54 92l14 10q64 -60 86 -86
q20 -25 28 -46q6 -22 0 -40q-5 -18 -22 -21q-18 -2 -26 5q-7 6 -8 24q-1 14 -8 38q-211 -66 -236 -75q-24 -10 -54 -32l-38 59l172 40v230h-76v-36q0 -12 -18 -24t-36 -12l4 72v354v0v0zM120 452h76v274h-76v-274v0v0zM248 726v-274h70v274h-70v0v0z" />
  </g>

</svg>
