<?xml version="1.0" standalone="no"?>
<!DOCTYPE svg PUBLIC "-//W3C//DTD SVG 1.1//EN" "http://www.w3.org/Graphics/SVG/1.1/DTD/svg11.dtd" >
<svg xmlns="http://www.w3.org/2000/svg" xmlns:xlink="http://www.w3.org/1999/xlink" version="1.1" viewBox="0 -200 999 1000">
  <g transform="matrix(1 0 0 -1 0 800)">
   <path fill="currentColor"
d="M36 4q34 87 51.5 196t25 224t8.5 228.5t3 209.5l63 -27l-13 -47q-1 -19 -2.5 -23t-1.5 -8h104v107h-147l-51 -11l-21 34h268v40l-5 75l72 -22l-17 -56v-37h101l41 42l59 -65h-185l56 -27l-15 -45v-35h30l32 36l49 -57h-111v-101q0 -6 -5.5 -10t-12.5 -6.5t-15 -4.5
l-12 -3v125h-66v-62h69v-20h-64v-27q-12 -5 -25.5 -9t-24.5 -5v123h-53l-28 -16l-19 37q-2 -8 -2 -86q1 -42 1 -63v-24h276l39 42l60 -65h-168v-78h60l27 40l51 -43l-24 -34v-216q-4 -12 -18 -17t-28 -5v32h-183v-24q-3 -6 -9 -9.5t-13.5 -6t-14.5 -3.5t-12 -1v315l55 -28
h64v78h-165q-5 -69 -12 -149t-20 -156.5t-34 -143.5t-54 -110zM134 13l-7 7q51 38 99.5 83t77.5 98l47 -59l-32 -16q-18 -12 -38 -27.5t-43 -31t-49.5 -30.5t-57.5 -26zM318 757h67v107h-107l59 -25l-18 -49zM335 462h-70v-88h70v88zM265 261h70v90h-70v-90zM448 462h-68
v-88h68v88zM448 351h-68v-90h68v90zM386 178q10 -17 17 -30.5t13 -27t12 -30l14 -38.5q5 -14 11 -20.5t10 -6.5h1q8 2 18.5 14.5t10.5 32.5q0 2 -0.5 4.5t-0.5 4.5q-5 12 -12 23.5t-18 24t-27.5 26.5t-40.5 32zM576 818l-19 36h159v51l-13 96l72 -26l-13 -68v-53h73l36 40
l57 -65h-230l53 -59l-31 -36l-90 -175q45 8 98 14t104 13q-4 19 -14.5 40t-31.5 60l6 8q30 -27 53 -55t39 -52t24.5 -41.5t9.5 -24.5v-10q0 -14 -4.5 -24t-10.5 -16t-12.5 -8.5t-10.5 -2.5q-3 0 -8.5 4t-6.5 12l-27 96q-34 -9 -69.5 -20.5t-69 -23.5t-63.5 -24t-52 -22
l-37 72l63 4q31 71 49.5 136.5t35.5 134.5h-74zM828 454l-14 -70v-242q0 -30 3 -46.5t16 -16.5h3l43 -1q8 0 13 14.5t7.5 38t3.5 53t1 59.5q0 11 -0.5 21t-0.5 21l9 3q0 -67 3.5 -105.5t9.5 -59t12 -27.5t12 -10t9.5 -6.5t3.5 -17.5q0 -12 -7.5 -18.5t-17.5 -10t-21 -4.5
t-17 -1h-93q-17 5 -26.5 22t-9.5 53v376zM682 379v-12q0 -38 -4 -71t-9 -63q-10 -49 -26.5 -87.5t-36 -67.5t-41.5 -49t-43 -32l-5 9q13 16 23.5 31.5t20 32t19.5 36.5t22 45q13 37 19 71.5t9 72t4 83t4 105.5l62 -33z" />
  </g>

</svg>
