<?xml version="1.0" standalone="no"?>
<!DOCTYPE svg PUBLIC "-//W3C//DTD SVG 1.1//EN" "http://www.w3.org/Graphics/SVG/1.1/DTD/svg11.dtd" >
<svg xmlns="http://www.w3.org/2000/svg" xmlns:xlink="http://www.w3.org/1999/xlink" version="1.1" viewBox="0 -36 256 256">
  <g transform="matrix(1 0 0 -1 0 220)">
   <path fill="currentColor"
d="M220 119l17 -19h-83v-68h47l13 12l16 -19h-132q-12 0 -21 -2l-9 9h71v68h-43q-12 0 -21 -2l-9 9h73v51q-36 -4 -61 -5v6q80 9 118 27l15 -21l-13 2q-16 -3 -44 -7v-53h52zM123 244q48 -19 21 -39h68l14 14l20 -21h-186v-79q0 -60 -46 -111l-4 2q34 46 34 114v46
q0 23 -1 46l22 -11h71q2 17 -15 37z" />
  </g>

</svg>
