<?xml version="1.0" standalone="no"?>
<!DOCTYPE svg PUBLIC "-//W3C//DTD SVG 1.1//EN" "http://www.w3.org/Graphics/SVG/1.1/DTD/svg11.dtd" >
<svg xmlns="http://www.w3.org/2000/svg" xmlns:xlink="http://www.w3.org/1999/xlink" version="1.1" viewBox="0 -36 256 256">
  <g transform="matrix(1 0 0 -1 0 220)">
   <path fill="currentColor"
d="M89.5 85.5q-6.5 13.5 -27.5 29.5l22 43h-40v-100v-43l-16 -8q1 21 1 44v85q0 20 -1 40l17 -11h40l11 11l14 -13l-9 -5l-31 -43q37 -23 37 -48.5t-27 -33.5q-2 13 -27 17v5q33 -5 38 6t-1.5 24.5zM159 11l-16 -4q1 13 1 27v104h-10q-12 -19 -36 -41l-3 3q22 29 31 49.5
t15 37.5l20 -14l-9 -5q-7 -11 -14 -23h66l14 13l17 -20h-77v-32h45l11 12l16 -19h-72v-36h50l12 12l16 -19h-78v-17q0 -17 1 -28zM125 202h-35q0 -8 1 -23l-16 -5q1 16 1 28h-28q-10 0 -21 -2l-9 9h58q0 25 -1 39l23 -10l-8 -8v-21h9l13 11zM156 203q-11 0 -20 -2l-10 9h34
q0 25 -1 37l22 -9l-7 -8v-20h33l14 12l15 -19h-62q0 -6 1 -21l-16 -5q1 21 1 26h-4z" />
  </g>

</svg>
