<?xml version="1.0" standalone="no"?>
<!DOCTYPE svg PUBLIC "-//W3C//DTD SVG 1.1//EN" "http://www.w3.org/Graphics/SVG/1.1/DTD/svg11.dtd" >
<svg xmlns="http://www.w3.org/2000/svg" xmlns:xlink="http://www.w3.org/1999/xlink" version="1.1" viewBox="0 -36 256 256">
  <g transform="matrix(1 0 0 -1 0 220)">
   <path fill="currentColor"
d="M75 203h138l7 11l19 -12l-9 -7q-3 -104 -7.5 -134t-16 -39t-28.5 -14q-3 14 -38 21v4q36 -4 44.5 -3t14.5 8.5t10 46t5 111.5h-141q-26 -38 -60 -59l-2 3q29 28 44 56.5t20 48.5l20 -11q-4 -4 -8 -10.5t-12 -20.5zM116 178q-4 -2 -18.5 -19.5t-33.5 -36.5l58 1
q6 5 13.5 15.5t13.5 22.5l19 -14q-3 -1 -18 -15t-29.5 -30t-46.5 -41q39 1 81 3q-7 11 -23 26l3 2q25 -12 33.5 -20.5t8.5 -14.5t-6 -11t-8.5 1.5t-4.5 10.5q-40 -4 -65.5 -7t-37.5 -9l-10 18q10 1 28 14.5t45 43.5q-20 -2 -38 -5t-25 -8l-11 18q9 1 19 10.5t19.5 25.5
t13.5 30z" />
  </g>

</svg>
