<?xml version="1.0" standalone="no"?>
<!DOCTYPE svg PUBLIC "-//W3C//DTD SVG 1.1//EN" "http://www.w3.org/Graphics/SVG/1.1/DTD/svg11.dtd" >
<svg xmlns="http://www.w3.org/2000/svg" xmlns:xlink="http://www.w3.org/1999/xlink" version="1.1" viewBox="0 -36 256 256">
  <g transform="matrix(1 0 0 -1 0 220)">
   <path fill="currentColor"
d="M94 88.5q5 21.5 5 45.5t-1 36l14 -6h95l12 12l16 -19h-123v-33h26q0 21 -1 29l21 -8l-7 -5v-16h30q0 21 -1 28l23 -7l-8 -6v-15h8l10 11l17 -18h-35v-24l4 -7h-18h-30v-8l-14 -6q1 12 1 45h-26q0 -49 -41 -78l-2 3q20 25 25 46.5zM166 186q8 -5 1 -15t-9.5 -1t-19.5 21
l3 4q17 -4 25 -9zM151 93h30v24h-30v-24zM128 70q0 -21 -6.5 -30t-13.5 -7.5t-7 5.5t8.5 9t15.5 23h3zM142 68q11 -8 18 -16.5t-2 -15.5t-9.5 4.5t-10.5 25.5zM170 70q17 -11 20 -20t-5 -13t-8.5 5.5t-8.5 26.5zM197 71q14 -8 22.5 -16t0.5 -18t-10.5 2.5t-15.5 29.5z
M97 217l14 11l15 -18h-39q0 -7 2 -17l-15 -5q0 13 -1 22h-26q-15 1 -24 -2l-10 9h59q-2 21 -5 31l23 -7l-5 -8l1 -16h11zM152 212l-11 -2l-10 9h36q3 17 3 28l22 -7l-7 -7l-3 -14h31l13 11l17 -18h-62q-1 -7 -4 -24l-15 -1q5 21 5 25h-15zM37 192q16 -10 21.5 -15.5t5.5 -11
t-5 -12.5t-9 6.5t-15 28.5zM231 10q-107 -1 -135 7t-47 21q-16 -18 -21 -29l-12 12q6 7 22 21q6 6 12 20.5t9 22.5h-20l-7 -7l-9 15q8 4 13 10.5t15 24.5h-18l-11 -3l-10 10h41l9 7l11 -14l-9 -4l-22 -32h18l9 6l11 -13l-9 -6q-13 -28 -15 -35q16 -10 42 -14.5t70.5 -4.5
t78.5 6v-5q-15 -3 -16 -16z" />
  </g>

</svg>
