<?xml version="1.0" standalone="no"?>
<!DOCTYPE svg PUBLIC "-//W3C//DTD SVG 1.1//EN" "http://www.w3.org/Graphics/SVG/1.1/DTD/svg11.dtd" >
<svg xmlns="http://www.w3.org/2000/svg" xmlns:xlink="http://www.w3.org/1999/xlink" version="1.1" viewBox="0 0 2048 2048">
  <g transform="matrix(1 0 0 -1 0 2048)">
   <path fill="currentColor"
d="M149 1608l-39 86q26 -5 44 -7q17 -2 43 -4l51 -4q36 -3 50 -3h171v88q0 71 -3 105q-2 34 -2 41l-2 14l107 -22q45 -10 65 -20q21 -9 22 -24q0 -16 -14 -29t-35 -17l-42 -9v-127h140l99 102l120 -107l12 -10q8 -11 4 -24q-4 -11 -12 -15q-7 -3 -14 -3h-349v-169h89l99 101
l120 -107q10 -10 15 -16q4 -5 1 -18q-4 -13 -11 -15q-6 -2 -22 -2h-291v-179h192l99 101l120 -106q8 -8 13 -15t2 -19q-4 -11 -11 -15q-8 -4 -15 -4h-715q-24 0 -56 -2q-33 -3 -42 -4q-9 0 -26 -2l-24 -3l-39 86q26 -5 43 -7q16 -2 43 -4.5t54 -3.5q27 -2 47 -2h219v179
h-103q-30 0 -71 -3l-27 -2q-24 -2 -26 -2l-25 -3l-39 85q27 -5 48 -8t40 -4q18 -2 50 -4t50 -2h103v169h-171q-28 0 -58 -3q-32 -2 -42 -3t-25 -2zM187 1047l113 -72h426l60 76l84 -54q22 -15 30 -25q9 -10 9.5 -24t-10.5 -26q-9 -10 -31 -19l-35 -15v-665q0 -33 -11 -63
q-11 -29 -26 -48q-14 -20 -37 -34t-40 -18l-33 -9l-6 35q-4 20 -14 36q-10 15 -34 28q-24 14 -62 22l-43 9l4 46q26 -6 40 -8l53 -7q51 -8 69 -9t31 9q13 11 13 45v200h-446q-2 -39 -5 -66q-4 -27 -17 -79.5t-33 -91.5q-19 -39 -51 -84t-48 -61l-26 -27l-27 24l26 42
q13 22 32 70q20 49 30 102q10 52 16 116q6 63 6 82q1 18 1 75v356q0 44 -2 64zM291 513h446v178h-446v-178zM291 748h446v170h-446v-170zM1685 1643l81 -31q18 -7 36 -18q17 -10 17 -24q-1 -14 -17 -23t-48 -9h-29l-47 -80q-22 -40 -35 -57l-44 -62h177l80 81l114 -86
q7 -6 13 -15t3 -19t-12 -14t-14 -4h-816l-71 -3q-24 -1 -26 -1q-2 -1 -27 -3l-25 -3l-39 86q27 -5 48 -8q22 -3 40 -5t50 -3q31 -2 50 -2l100 -1q-6 19 -8 30l-12 50q-8 30 -18 57q-11 28 -28 62t-27 48l-32 42l20 15q-18 -3 -26 -3l-27 -2q-3 -1 -26 -3l-25 -3l-39 86
q27 -5 48 -8q22 -3 40 -4q17 -2 50 -4q32 -2 50 -2l227 -1q-6 11 -8 16t-9 33t-18 51q-10 23 -24 45q-15 22 -27 34l-27 26l23 27l51 -31q21 -12 49 -32q28 -19 49 -42t24 -48q3 -26 -6 -43t-16 -22l-17 -14h243l80 80l114 -86q8 -7 14 -14q5 -7 2 -19q-3 -11 -11 -16
q-8 -4 -15 -3zM1636 1643h-474l24 -24l30 -30q16 -16 42 -46q27 -30 42 -51q14 -21 23 -44q9 -22 9 -48q1 -25 -9 -41l-12 -20h238q20 52 29 79q10 27 20 62q11 35 21 76q10 40 12 54zM1376 580l-11 -72q-5 -33 -15 -76q-11 -42 -28 -82q-18 -41 -42 -74q-23 -32 -58 -64
q-34 -31 -68 -53q-33 -22 -83 -45t-92 -39t-69 -23l-63 -18l-8 42q36 13 64 24q28 12 70 33t84 49t76 61t56 67q22 35 39 72q16 38 24 76q7 38 11 79l4 43h-89v-16q0 -14 -8 -24q-7 -11 -21 -18q-14 -6 -36 -4q-21 1 -29 8q-9 8 -11 24q-2 17 2 59q0 5 3.5 74.5t3.5 70.5
v301q0 8 -4.5 56.5t-4.5 51.5l-6 31l119 -89h508l68 76l84 -54q19 -13 29 -25q10 -11 11 -24q0 -13 -12 -26q-10 -11 -30 -19l-36 -16v-267q0 -5 4 -73q3 -68 5 -85q2 -18 1 -28q-3 -20 -12 -29t-28 -14t-38 -1q-15 2 -22 9q-6 7 -6 20v31h-112v-345q0 -24 5 -37
q5 -14 23 -25t64 -10q56 0 92 3q35 3 51 16t24 36q8 24 16 77l24 162l34 -8l-4 -183q-1 -31 5 -42q5 -12 17 -22l35 -31q12 -15 14 -29q1 -13 -13 -28q-12 -13 -37 -22q-24 -8 -58 -13q-33 -5 -72 -8q-38 -3 -65 -4t-77 1q-50 1 -80 6t-52 20q-23 14 -33 37t-10 47v402h-127
zM1178 868h534v179h-534v-179zM1178 811v-173h534v173h-534z" />
  </g>

</svg>
