<?xml version="1.0" standalone="no"?>
<!DOCTYPE svg PUBLIC "-//W3C//DTD SVG 1.1//EN" "http://www.w3.org/Graphics/SVG/1.1/DTD/svg11.dtd" >
<svg xmlns="http://www.w3.org/2000/svg" xmlns:xlink="http://www.w3.org/1999/xlink" version="1.1" viewBox="0 -205 1024 1024">
  <g transform="matrix(1 0 0 -1 0 819)">
   <path fill="currentColor"
d="M392 706l60 -34h336l32 36l54 -38q12 -6 12 -14q0 -6 -30 -24v-206l2 -90q3 -12 -18 -24q-18 -12 -38 -14v64h-356v-38q-1 -13 -22 -26q-21 -12 -36 -12l4 136v284v0v0zM446 390h356v254h-356v-254v0v0zM414 127q-78 -56 -188 -112l-8 16q71 52 154 119q81 69 112 112
q66 -45 64 -54q-3 -8 -12 -10q-9 0 -26 -8q-18 -9 -96 -63v0v0zM716 240q86 -34 152 -68q66 -33 84 -61q19 -27 14 -52q-6 -21 -30 -24q-21 -3 -36 24q-12 30 -50 66q-38 34 -142 101l8 14v0v0zM862 820l44 58l70 -66l2 -4q0 -12 -8 -12h-690v-238q0 -246 -54 -356
q-55 -107 -164 -195l-12 12q78 79 126 179q47 101 50 274q-127 -87 -146 -126l-46 50l194 104v372l60 -52h574v0v0zM504 976l8 12q60 -21 84 -36q24 -13 40 -34q15 -21 6 -44q-6 -21 -30 -24q-22 -1 -28 26q-7 27 -22 48q-13 18 -58 52v0v0zM76 758l12 8q42 -40 64 -74
t26 -64q4 -31 -6 -46q-10 -14 -22 -16q-12 -1 -20 8q-10 9 -8 36q1 27 -10 66q-9 36 -36 82v0v0z" />
  </g>

</svg>
