<?xml version="1.0" standalone="no"?>
<!DOCTYPE svg PUBLIC "-//W3C//DTD SVG 1.1//EN" "http://www.w3.org/Graphics/SVG/1.1/DTD/svg11.dtd" >
<svg xmlns="http://www.w3.org/2000/svg" xmlns:xlink="http://www.w3.org/1999/xlink" version="1.1" viewBox="0 -205 1024 1024">
  <g transform="matrix(1 0 0 -1 0 819)">
   <path fill="currentColor"
d="M246 920q-2 -1 -3 1q-6 10 -11 18q-3 5 3 3q31 -3 34 -3h75q-3 17 -9 29q-7 11 -18 25q-2 3 0 6t8 0q23 -10 34 -21q8 -6 9 -13q2 -9 -6 -24q0 -2 -1 -2h53q6 0 8 1q3 2 6 7l12 17q4 5 8 0q14 -13 28 -27q6 -6 5 -9q-1 -4 -7 -5h-197q-14 0 -31 -3zM234 828q-2 -1 -3 1
q-6 10 -11 18q-3 5 3 3q31 -3 34 -3h43v2q-1 18 -7 32q-5 12 -16 28q-2 3 0 6q3 2 8 -1q23 -14 34 -27q7 -8 7 -14q1 -10 -8 -24l-1 -2h52q0 1 2 3q9 17 14 31q6 17 9 34q1 3 3 3q1 1 4 -1q13 -6 28 -17q2 -1 1 -2q0 -2 -2 -2q-19 -12 -22 -18q-1 -1 -5 -7q-6 -10 -17 -24
h56q6 0 8 1q3 2 6 7l12 17q4 5 8 0q14 -13 28 -27q6 -6 5 -9q-1 -4 -7 -5h-235q-14 0 -31 -3zM416 799l9 14q4 4 7 0q15 -9 29 -20q4 -4 4 -6q-1 -3 -5 -5q-13 -6 -13 -9q-1 -3 -1 -7v-54q0 -18 3 -48q0 -6 -3 -6q-21 -8 -23 -7q-1 0 -1 5v17h-30v-99q0 -11 4 -14
q4 -5 10 -5h47q9 1 13 3q5 2 9 13q8 19 16 63q1 6 6 6q5 -1 5 -6q-5 -39 -1 -56q3 -10 8 -13q2 -2 1 -4q-5 -15 -14 -21q-11 -9 -28 -9h-74q-10 0 -18 8t-8 29v105h-34q-12 -54 -31 -82q-21 -27 -53 -43q-36 -17 -83 -24q-9 -1 -9 7q0 6 8 7q40 8 66 22q32 17 50 42
q17 24 29 71h-31v-11q-1 -4 -3 -5q-5 -2 -16 -6q-7 -3 -7 2q1 13 2 25v107q-1 13 -1 23q0 4 2 5t6 -3q7 -7 16 -13h133q3 0 4 2zM280 727v-38h142v38h-142zM280 781v-38h142v38h-142zM123 993q1 8 9 3q18 -13 26 -19q5 -5 5 -7q-1 -2 -7 -2q-6 -1 -8 -3q-1 0 -1 -1
q39 -21 62 -42q17 -16 17 -26q1 -12 -5 -19q-7 -8 -10 -8t-8 10q-14 26 -29 44q-17 20 -34 33q-3 -6 -8 -15q-18 -31 -42 -64q-18 -26 -47 -55q-5 -5 -8 -1q-4 3 1 8q32 37 59 92q26 54 28 72zM53 707q4 3 9 -3q25 -28 36 -50q9 -16 7 -23q-4 -12 -13 -16q-9 -5 -12 -4
t-3 12q-3 21 -8 39q-6 22 -17 37q-3 4 1 8zM190 711h5q13 -6 32 -15q1 -1 1 -3t-2 -2q-18 -15 -21 -22q-1 -1 -5 -9q-7 -16 -22 -39q-4 -7 -9 -4q-6 4 -1 12q9 20 13 37q5 20 7 41q1 3 2 4zM83 745q-14 0 -31 -3q-2 -1 -3 1q-6 9 -11 17q-3 5 3 4q31 -3 34 -3h47v70h-7
q-14 0 -31 -3q-2 -1 -3 1q-6 9 -11 17q-3 5 3 4q31 -3 34 -3h47q3 0 6 3l18 21q3 3 7 0q13 -13 22 -24q5 -7 2 -12q-3 -3 -9 -4h-54v-70h24q3 0 6 3l18 21q3 3 7 0q13 -13 22 -24q5 -7 2 -12q-3 -3 -9 -4h-70v-149q45 13 81 22q8 2 8 -2q1 -6 -7 -8q-80 -31 -132 -48
q-11 -3 -28 -17q-2 -2 -4 -3q-2 0 -4 4q-5 13 -16 23q-6 5 -6 7q1 2 6 2q35 5 76 14q0 1 2 0v155h-39zM726 920q-2 -1 -3 1q-6 10 -11 18q-3 5 3 3q31 -3 34 -3h75q-3 17 -9 29q-7 11 -18 25q-2 3 0 6t8 0q23 -10 34 -21q8 -6 9 -13q2 -9 -6 -24q0 -2 -1 -2h53q6 0 8 1
q3 2 6 7l12 17q4 5 8 0q14 -13 28 -27q6 -6 5 -9q-1 -4 -7 -5h-197q-14 0 -31 -3zM714 828q-2 -1 -3 1q-6 10 -11 18q-3 5 3 3q31 -3 34 -3h43v2q-1 18 -7 32q-5 12 -16 28q-2 3 0 6q3 2 8 -1q23 -14 34 -27q7 -8 7 -14q1 -10 -8 -24l-1 -2h52q0 1 2 3q9 17 14 31q6 17 9 34
q1 3 3 3q1 1 4 -1q13 -6 28 -17q2 -1 1 -2q0 -2 -2 -2q-19 -12 -22 -18q-1 -1 -5 -7q-6 -10 -17 -24h56q6 0 8 1q3 2 6 7l12 17q4 5 8 0q14 -13 28 -27q6 -6 5 -9q-1 -4 -7 -5h-235q-14 0 -31 -3zM896 799l9 14q4 4 7 0q15 -9 29 -20q4 -4 4 -6q-1 -3 -5 -5q-13 -6 -13 -9
q-1 -3 -1 -7v-54q0 -18 3 -48q0 -6 -3 -6q-21 -8 -23 -7q-1 0 -1 5v17h-30v-99q0 -11 4 -14q4 -5 10 -5h47q9 1 13 3q5 2 9 13q8 19 16 63q1 6 6 6q5 -1 5 -6q-5 -39 -1 -56q3 -10 8 -13q2 -2 1 -4q-5 -15 -14 -21q-11 -9 -28 -9h-74q-10 0 -18 8t-8 29v105h-34
q-12 -54 -31 -82q-21 -27 -53 -43q-36 -17 -83 -24q-9 -1 -9 7q0 6 8 7q40 8 66 22q32 17 50 42q17 24 29 71h-31v-11q-1 -4 -3 -5q-5 -2 -16 -6q-7 -3 -7 2q1 13 2 25v107q-1 13 -1 23q0 4 2 5t6 -3q7 -7 16 -13h133q3 0 4 2zM760 727v-38h142v38h-142zM760 781v-38h142v38
h-142zM603 993q1 8 9 3q18 -13 26 -19q5 -5 5 -7q-1 -2 -7 -2q-6 -1 -8 -3q-1 0 -1 -1q39 -21 62 -42q17 -16 17 -26q1 -12 -5 -19q-7 -8 -10 -8t-8 10q-14 26 -29 44q-17 20 -34 33q-3 -6 -8 -15q-18 -31 -42 -64q-18 -26 -47 -55q-5 -5 -8 -1q-4 3 1 8q32 37 59 92
q26 54 28 72zM533 707q4 3 9 -3q25 -28 36 -50q9 -16 7 -23q-4 -12 -13 -16q-9 -5 -12 -4t-3 12q-3 21 -8 39q-6 22 -17 37q-3 4 1 8zM670 711h5q13 -6 32 -15q1 -1 1 -3t-2 -2q-18 -15 -21 -22q-1 -1 -5 -9q-7 -16 -22 -39q-4 -7 -9 -4q-6 4 -1 12q9 20 13 37q5 20 7 41
q1 3 2 4zM563 745q-14 0 -31 -3q-2 -1 -3 1q-6 9 -11 17q-3 5 3 4q31 -3 34 -3h47v70h-7q-14 0 -31 -3q-2 -1 -3 1q-6 9 -11 17q-3 5 3 4q31 -3 34 -3h47q3 0 6 3l18 21q3 3 7 0q13 -13 22 -24q5 -7 2 -12q-3 -3 -9 -4h-54v-70h24q3 0 6 3l18 21q3 3 7 0q13 -13 22 -24
q5 -7 2 -12q-3 -3 -9 -4h-70v-149q45 13 81 22q8 2 8 -2q1 -6 -7 -8q-80 -31 -132 -48q-11 -3 -28 -17q-2 -2 -4 -3q-2 0 -4 4q-5 13 -16 23q-6 5 -6 7q1 2 6 2q35 5 76 14q0 1 2 0v155h-39zM246 450q-2 -1 -3 1q-6 10 -11 18q-3 5 3 3q31 -3 34 -3h75q-3 17 -9 29
q-7 11 -18 25q-2 3 0 6t8 0q23 -10 34 -21q8 -6 9 -13q2 -9 -6 -24q0 -2 -1 -2h53q6 0 8 1q3 2 6 7l12 17q4 5 8 0q14 -13 28 -27q6 -6 5 -9q-1 -4 -7 -5h-197q-14 0 -31 -3zM234 358q-2 -1 -3 1q-6 10 -11 18q-3 5 3 3q31 -3 34 -3h43v2q-1 18 -7 32q-5 12 -16 28q-2 3 0 6
q3 2 8 -1q23 -14 34 -27q7 -8 7 -14q1 -10 -8 -24l-1 -2h52q0 1 2 3q9 17 14 31q6 17 9 34q1 3 3 3q1 1 4 -1q13 -6 28 -17q2 -1 1 -2q0 -2 -2 -2q-19 -12 -22 -18q-1 -1 -5 -7q-6 -10 -17 -24h56q6 0 8 1q3 2 6 7l12 17q4 5 8 0q14 -13 28 -27q6 -6 5 -9q-1 -4 -7 -5h-235
q-14 0 -31 -3zM416 329l9 14q4 4 7 0q15 -9 29 -20q4 -4 4 -6q-1 -3 -5 -5q-13 -6 -13 -9q-1 -3 -1 -7v-54q0 -18 3 -48q0 -6 -3 -6q-21 -8 -23 -7q-1 0 -1 5v17h-30v-99q0 -11 4 -14q4 -5 10 -5h47q9 1 13 3q5 2 9 13q8 19 16 63q1 6 6 6q5 -1 5 -6q-5 -39 -1 -56
q3 -10 8 -13q2 -2 1 -4q-5 -15 -14 -21q-11 -9 -28 -9h-74q-10 0 -18 8t-8 29v105h-34q-12 -54 -31 -82q-21 -27 -53 -43q-36 -17 -83 -24q-9 -1 -9 7q0 6 8 7q40 8 66 22q32 17 50 42q17 24 29 71h-31v-11q-1 -4 -3 -5q-5 -2 -16 -6q-7 -3 -7 2q1 13 2 25v107q-1 13 -1 23
q0 4 2 5t6 -3q7 -7 16 -13h133q3 0 4 2zM280 257v-38h142v38h-142zM280 311v-38h142v38h-142zM123 523q1 8 9 3q18 -13 26 -19q5 -5 5 -7q-1 -2 -7 -2q-6 -1 -8 -3q-1 0 -1 -1q39 -21 62 -42q17 -16 17 -26q1 -12 -5 -19q-7 -8 -10 -8t-8 10q-14 26 -29 44q-17 20 -34 33
q-3 -6 -8 -15q-18 -31 -42 -64q-18 -26 -47 -55q-5 -5 -8 -1q-4 3 1 8q32 37 59 92q26 54 28 72zM53 237q4 3 9 -3q25 -28 36 -50q9 -16 7 -23q-4 -12 -13 -16q-9 -5 -12 -4t-3 12q-3 21 -8 39q-6 22 -17 37q-3 4 1 8zM190 241h5q13 -6 32 -15q1 -1 1 -3t-2 -2
q-18 -15 -21 -22q-1 -1 -5 -9q-7 -16 -22 -39q-4 -7 -9 -4q-6 4 -1 12q9 20 13 37q5 20 7 41q1 3 2 4zM83 275q-14 0 -31 -3q-2 -1 -3 1q-6 9 -11 17q-3 5 3 4q31 -3 34 -3h47v70h-7q-14 0 -31 -3q-2 -1 -3 1q-6 9 -11 17q-3 5 3 4q31 -3 34 -3h47q3 0 6 3l18 21q3 3 7 0
q13 -13 22 -24q5 -7 2 -12q-3 -3 -9 -4h-54v-70h24q3 0 6 3l18 21q3 3 7 0q13 -13 22 -24q5 -7 2 -12q-3 -3 -9 -4h-70v-149q45 13 81 22q8 2 8 -2q1 -6 -7 -8q-80 -31 -132 -48q-11 -3 -28 -17q-2 -2 -4 -3q-2 0 -4 4q-5 13 -16 23q-6 5 -6 7q1 2 6 2q35 5 76 14q0 1 2 0
v155h-39zM726 450q-2 -1 -3 1q-6 10 -11 18q-3 5 3 3q31 -3 34 -3h75q-3 17 -9 29q-7 11 -18 25q-2 3 0 6t8 0q23 -10 34 -21q8 -6 9 -13q2 -9 -6 -24q0 -2 -1 -2h53q6 0 8 1q3 2 6 7l12 17q4 5 8 0q14 -13 28 -27q6 -6 5 -9q-1 -4 -7 -5h-197q-14 0 -31 -3zM714 358
q-2 -1 -3 1q-6 10 -11 18q-3 5 3 3q31 -3 34 -3h43v2q-1 18 -7 32q-5 12 -16 28q-2 3 0 6q3 2 8 -1q23 -14 34 -27q7 -8 7 -14q1 -10 -8 -24l-1 -2h52q0 1 2 3q9 17 14 31q6 17 9 34q1 3 3 3q1 1 4 -1q13 -6 28 -17q2 -1 1 -2q0 -2 -2 -2q-19 -12 -22 -18q-1 -1 -5 -7
q-6 -10 -17 -24h56q6 0 8 1q3 2 6 7l12 17q4 5 8 0q14 -13 28 -27q6 -6 5 -9q-1 -4 -7 -5h-235q-14 0 -31 -3zM896 329l9 14q4 4 7 0q15 -9 29 -20q4 -4 4 -6q-1 -3 -5 -5q-13 -6 -13 -9q-1 -3 -1 -7v-54q0 -18 3 -48q0 -6 -3 -6q-21 -8 -23 -7q-1 0 -1 5v17h-30v-99
q0 -11 4 -14q4 -5 10 -5h47q9 1 13 3q5 2 9 13q8 19 16 63q1 6 6 6q5 -1 5 -6q-5 -39 -1 -56q3 -10 8 -13q2 -2 1 -4q-5 -15 -14 -21q-11 -9 -28 -9h-74q-10 0 -18 8t-8 29v105h-34q-12 -54 -31 -82q-21 -27 -53 -43q-36 -17 -83 -24q-9 -1 -9 7q0 6 8 7q40 8 66 22
q32 17 50 42q17 24 29 71h-31v-11q-1 -4 -3 -5q-5 -2 -16 -6q-7 -3 -7 2q1 13 2 25v107q-1 13 -1 23q0 4 2 5t6 -3q7 -7 16 -13h133q3 0 4 2zM760 257v-38h142v38h-142zM760 311v-38h142v38h-142zM603 523q1 8 9 3q18 -13 26 -19q5 -5 5 -7q-1 -2 -7 -2q-6 -1 -8 -3
q-1 0 -1 -1q39 -21 62 -42q17 -16 17 -26q1 -12 -5 -19q-7 -8 -10 -8t-8 10q-14 26 -29 44q-17 20 -34 33q-3 -6 -8 -15q-18 -31 -42 -64q-18 -26 -47 -55q-5 -5 -8 -1q-4 3 1 8q32 37 59 92q26 54 28 72zM533 237q4 3 9 -3q25 -28 36 -50q9 -16 7 -23q-4 -12 -13 -16
q-9 -5 -12 -4t-3 12q-3 21 -8 39q-6 22 -17 37q-3 4 1 8zM670 241h5q13 -6 32 -15q1 -1 1 -3t-2 -2q-18 -15 -21 -22q-1 -1 -5 -9q-7 -16 -22 -39q-4 -7 -9 -4q-6 4 -1 12q9 20 13 37q5 20 7 41q1 3 2 4zM563 275q-14 0 -31 -3q-2 -1 -3 1q-6 9 -11 17q-3 5 3 4q31 -3 34 -3
h47v70h-7q-14 0 -31 -3q-2 -1 -3 1q-6 9 -11 17q-3 5 3 4q31 -3 34 -3h47q3 0 6 3l18 21q3 3 7 0q13 -13 22 -24q5 -7 2 -12q-3 -3 -9 -4h-54v-70h24q3 0 6 3l18 21q3 3 7 0q13 -13 22 -24q5 -7 2 -12q-3 -3 -9 -4h-70v-149q45 13 81 22q8 2 8 -2q1 -6 -7 -8
q-80 -31 -132 -48q-11 -3 -28 -17q-2 -2 -4 -3q-2 0 -4 4q-5 13 -16 23q-6 5 -6 7q1 2 6 2q35 5 76 14q0 1 2 0v155h-39z" />
  </g>

</svg>
