<?xml version="1.0" standalone="no"?>
<!DOCTYPE svg PUBLIC "-//W3C//DTD SVG 1.1//EN" "http://www.w3.org/Graphics/SVG/1.1/DTD/svg11.dtd" >
<svg xmlns="http://www.w3.org/2000/svg" xmlns:xlink="http://www.w3.org/1999/xlink" version="1.1" viewBox="0 -36 256 256">
  <g transform="matrix(1 0 0 -1 0 220)">
   <path fill="currentColor"
d="M95 62v154h-7l-8 -1l-7 8h80l10 13l13 -20h-26v-141l26 6l1 -4l-27 -10q0 -34 1 -50l-14 -8q1 27 1 54q-51 -16 -54 -24l-11 18q11 2 22 5zM108 172h29v44h-29v-44zM108 123h29v42h-29v-42zM108 65l29 7v44h-29v-51zM23 81l-13 16q10 4 38 21v56h-21l-6 -3l-8 10h35
q0 38 -1 65l23 -12l-9 -9v-44h8l11 11l13 -18h-32v-50l27 17l3 -4l-30 -24v-73q2 -25 -18 -33q1 12 -23 20v5q18 -3 23.5 -1.5t4.5 13.5v59q-20 -15 -25 -22zM237 78l4 -1q-1 -23 -1 -37.5t3 -32.5q-27 18 -42 50q-20 -27 -46 -40l-2 3q23 18 42 52q-11 35 -13 91h-7l-11 -3
l-10 10h28q-1 51 -1 76l20 -10l-7 -8v-57h27l8 10l13 -17h-48q2 -51 9 -75q7 13 17 65l18 -14l-8 -5q-8 -32 -21 -64q7 -19 21 -32zM228 213q5 -6 3.5 -12t-5 -10.5t-7.5 8t-17 25.5l2 5q19 -10 24 -16z" />
  </g>

</svg>
