<?xml version="1.0" standalone="no"?>
<!DOCTYPE svg PUBLIC "-//W3C//DTD SVG 1.1//EN" "http://www.w3.org/Graphics/SVG/1.1/DTD/svg11.dtd" >
<svg xmlns="http://www.w3.org/2000/svg" xmlns:xlink="http://www.w3.org/1999/xlink" version="1.1" viewBox="0 -36 256 256">
  <g transform="matrix(1 0 0 -1 0 220)">
   <path fill="currentColor"
d="M105 223h-63v-33h63v33zM105 183h-63v-29h63v29zM105 147h-63v-33h63v33zM108 29h112q10 1 10.5 5t1.5 25h4q0 -14 2.5 -20t9.5 -9q-5 -13 -22 -13h-129q-18 0 -18 15v75h-12q-1 -21 -4 -35t-14 -32t-40 -33l-2 3q23 19 31.5 35t11 28.5t3.5 33.5h-11v-6l-14 -9
q1 21 1 75.5t-1 70.5l16 -8h58l10 10l15 -14l-8 -6q0 -101 1 -117l-15 -10v14h-13v-67q0 -11 16 -11zM179 208q1 12 -15 34l4 2q20 -11 25 -20t-6 -16h27l13 11l16 -18h-89q-11 0 -22 -2l-7 9h54zM150 170q12 18 13 25l16 -14l-7 -4q-19 -24 -47 -43l-2 2q15 16 27 34z
M233.5 165q4.5 -8 -1.5 -16.5t-9.5 0.5t-9.5 19.5t-17 24.5l3 2q30 -22 34.5 -30zM212 78.5q11 -8.5 23 -13.5v-3q-14 -4 -16 -12q-19 15 -37 37q-26 -28 -63 -40l-1 3q33 19 56 49q-9 18 -19 52l3 2q14 -30 25 -44q16 25 20 50l17 -12l-6 -5q-7 -22 -22 -45q9 -10 20 -18.5
z" />
  </g>

</svg>
