<?xml version="1.0" standalone="no"?>
<!DOCTYPE svg PUBLIC "-//W3C//DTD SVG 1.1//EN" "http://www.w3.org/Graphics/SVG/1.1/DTD/svg11.dtd" >
<svg xmlns="http://www.w3.org/2000/svg" xmlns:xlink="http://www.w3.org/1999/xlink" version="1.1" viewBox="0 -339 2048 2048">
  <g transform="matrix(1 0 0 -1 0 1709)">
   <path fill="currentColor"
d="M576 381q45 -30 80 -47q78 -38 194 -65q124 -29 303 -39q142 -9 276 -9q66 0 114 3l169 9l107 6q22 1 34 2t59 6q64 7 78 9v-38q-35 -5 -51 -14q-30 -15 -43 -48q-4 -9 -8 -25q-80 -5 -145 -6q-67 -2 -227 -2q-300 0 -479 21q-193 23 -322 71q-136 50 -221 134
q-55 53 -113 145q-37 59 -99 175q-36 -177 -55 -242q-15 -50 -43 -124q-23 -59 -50 -114q-13 -27 -42 -81l-36 23q64 154 102 363q19 110 27 170q7 61 18 195q4 53 5 125l114 -27q47 -11 59 -24q6 -6 6 -14q0 -11 -9 -19q-8 -7 -32 -13l-34 -8q-7 -40 -10 -60q-2 -20 -5 -60
q45 -92 92 -166q38 -60 90 -128v736h-189q-116 0 -192 -8l-35 87q46 -10 69 -14q59 -9 158 -9h208v302h-148q-116 0 -192 -8l-35 89q46 -11 69 -15q62 -10 158 -10h148v157q0 115 -8 160l109 -24q59 -13 72 -24q12 -9 13 -22q0 -11 -9 -21q-14 -14 -40 -21l-40 -11v-194h95
l95 104l120 -107q12 -11 14 -16q3 -6 3 -10q0 -10 -6 -17q-8 -10 -21 -10h-300v-302h134l98 101l121 -107q12 -11 15 -16q2 -5 2 -10q0 -10 -8 -18q-4 -4 -7 -5t-14 -1h-360v-353h80l95 99l113 -104l11 -11t4 -6q2 -6 2 -10q0 -9 -6 -17q-8 -10 -20 -10h-279v-408zM1445 812
l289 1l95 95l106 -99q15 -14 15 -30q0 -8 -5 -14q-8 -10 -21 -10h-494q-18 -55 -36 -90q-38 -75 -105 -143q-85 -87 -221 -154q-55 -27 -149 -65l-19 38q114 60 174 102q127 87 199 197q25 39 41 77q6 12 15 38h-227q-71 0 -149 -10l-39 85q75 -11 87 -12q16 -2 51 -4
q34 -2 50 -2h242q7 30 10 54q6 40 13 159q3 45 5 92h-207q-30 -46 -79 -104q-41 -49 -74 -81q-18 -16 -51 -43l-26 25q65 78 119 173q42 72 72 151q20 53 47 147l131 -53q18 -7 25 -23q2 -4 2 -9q0 -7 -4 -13q-8 -10 -21 -12l-55 -8q-12 -25 -32 -58q-11 -19 -19 -35l472 1
l87 87l114 -94q12 -9 14 -16q3 -6 3 -9q0 -9 -6 -16q-9 -10 -21 -10h-391q-2 -73 -12 -187q-5 -64 -15 -118zM1747 1514q-75 -15 -249 -43q-97 -16 -242 -34q-23 -2 -142 -16l-5 -25q-5 -21 -8 -27q-7 -11 -16 -11t-19 10q-5 6 -19 32l-53 105q47 22 72 41q62 46 155 169
q51 67 94 137q17 29 50 88l119 -53q30 -14 37 -20q8 -9 8 -17q0 -7 -6 -14q-11 -12 -41 -14l-57 -6q-54 -61 -88 -97q-77 -78 -131 -125q-37 -32 -111 -85q70 3 294 17l215 14q39 4 117 13q-56 70 -94 107q-18 17 -49 43l22 29q124 -77 191 -133q58 -50 90 -95
q41 -56 41 -101q0 -33 -20 -50q-14 -11 -32 -11q-24 0 -40 17q-11 13 -19 32l-27 60q-7 15 -37 63zM1538 693q89 -45 141 -81q37 -25 95 -71q48 -39 69 -62q31 -37 46 -67q13 -25 13 -48q0 -21 -11 -38q-8 -12 -21 -19q-8 -4 -16 -4q-20 0 -38 21q-9 10 -37 61
q-48 85 -138 174q-44 43 -71 65q-17 14 -52 38z" />
  </g>

</svg>
