<?xml version="1.0" standalone="no"?>
<!DOCTYPE svg PUBLIC "-//W3C//DTD SVG 1.1//EN" "http://www.w3.org/Graphics/SVG/1.1/DTD/svg11.dtd" >
<svg xmlns="http://www.w3.org/2000/svg" xmlns:xlink="http://www.w3.org/1999/xlink" version="1.1" viewBox="0 -200 999 1000">
  <g transform="matrix(1 0 0 -1 0 800)">
   <path fill="currentColor"
d="M634 201q36 66 66 143.5t44 156.5h-43v-35q-5 -10 -19.5 -19t-26.5 -12v288l53 -30h46v118h-64l-45 -11l-17 33h126v156l56 -26l-12 -54v-76h56l34 41l55 -63h-145v-118h47l26 40l47 -48l-23 -32v-170q-3 -10 -17.5 -16t-26.5 -13v48h-52q22 -65 39.5 -110.5t33.5 -75.5
t32.5 -48t37.5 -29q-11 -6 -27.5 -16t-31.5 -31q-18 33 -29.5 60.5t-20 57t-16.5 65t-19 84.5v-291q-5 -11 -19 -19.5t-25 -10.5v245q-26 -67 -54.5 -118t-57.5 -75zM50 3q34 75 50.5 232t16.5 415q0 66 -0.5 108.5t-1 69t-1 40.5t-0.5 22l-44 -14l-19 34h310l41 41l58 -62
h-337l55 -29l-14 -65q0 -87 -0.5 -143.5t-1.5 -95t-2 -65t-2 -52.5q-5 -70 -11.5 -137.5t-17 -125.5t-26 -104t-38.5 -73zM951 97q-13 -16 -24.5 -29t-16.5 -30q-14 -1 -38.5 -3t-54.5 -2q-33 0 -69 4.5t-69 19t-59.5 40.5t-39.5 68h-13q-19 -20 -39.5 -47.5t-40.5 -59.5
l-34 45q22 13 49.5 31t46.5 40v284h-35l-44 -13l-16 36h88l30 45l53 -46l-29 -39v-270q10 -26 30.5 -43t47.5 -27.5t58 -15t63 -4.5q45 0 84.5 7t67.5 18zM312 98v706l57 -30l-14 -60v-267h7l37 42l52 -65h-96v-326h28l34 42l46 -61h-262l-40 -19l-19 38h77v596l57 -32
l-12 -59v-505h48zM711 672l-10 -13v-137h53v150h-43zM798 672v-149h53v149h-53zM496 751q32 -25 54.5 -51.5t23.5 -64.5q0 -10 -5.5 -17.5t-12 -13t-13 -8t-9.5 -2.5q-9 0 -10.5 13.5t-2.5 38.5q-6 19 -9 32t-6 23.5t-7 19.5t-12 21zM496 1000q32 -25 54.5 -51.5t23.5 -64.5
q0 -10 -4.5 -17.5t-10.5 -13t-11.5 -8t-8.5 -2.5q-9 0 -11.5 13.5t-3.5 38.5q-6 19 -9.5 32t-7 23.5t-8 19.5t-12.5 21z" />
  </g>

</svg>
