<?xml version="1.0" standalone="no"?>
<!DOCTYPE svg PUBLIC "-//W3C//DTD SVG 1.1//EN" "http://www.w3.org/Graphics/SVG/1.1/DTD/svg11.dtd" >
<svg xmlns="http://www.w3.org/2000/svg" xmlns:xlink="http://www.w3.org/1999/xlink" version="1.1" viewBox="0 -144 1024 1024">
  <g transform="matrix(1 0 0 -1 0 880)">
   <path fill="currentColor"
d="M695 826l-41 -43l-38 -41l-14 -14l-2 -3h93l54 54l64 -54v-21h-258v-118h97l54 53l64 -53v-22h-215v-124h183l54 54l64 -54v-21h-220v-204l20 -62l-20 40v-43h-64v269h-82l-12 -53l-16 -50l-18 -47l-23 -44l-25 -40l-29 -37l-33 -33l-35 -30l-38 -25l-42 -21l-5 8l34 29
l32 31l29 32l25 34l23 37l20 38l17 42l14 43l10 47l7 39h-208v21h274v124h-183v22h183v118h-247v21h182l-14 16l-2 12l-3 13l-3 12l-9 25l-13 26l-15 28l-10 12l6 7l13 -10l15 -9l25 -20l22 -23l10 -12l10 -13l8 -13l7 -14l-2 -25l-13 -12h129l5 11l7 18l15 35l16 33l23 45
l5 9l5 8l-495 3v-318v-1l-3 -68l-6 -67l-7 -62l-9 -59l-12 -54l-13 -51l-15 -47l-17 -43l-20 -38l-23 -33l-8 5l12 37l12 40l10 42l10 46l8 50l6 53l5 57l4 61l1 65l1 68v370l64 -32l334 -3v89l64 -11l16 -10l-16 -10v-58l264 -2l53 54l65 -54l-1 -21l-284 1l49 -42l7 -18z
M656 64l-14 1l-14 2l-13 5l-12 7l-11 8l-9 11l-6 12l-5 13l-2 14v13h64v-6l1 -5l2 -5l2 -2l5 -2l5 -1h7h237l31 134h11l-10 -134l19 -13l13 -20l-13 -19l-20 -13h-268zM652 161l-8 22v2l-1 2l-1 5l-3 7l-1 5l-1 3v2l-1 1v2l-1 3l16 3l11 2l9 31l7 21l19 64l16 57l4 12
l58 -29l12 -15l-20 -4l-16 -33l3 4l28 -18l13 -11l13 -13l12 -13l11 -16l10 -17l9 -17l8 -19l8 -19l-5 -25l-19 -15l-25 5l-14 19l-6 35l-4 17l-1 5l-27 -17l-64 -34l-15 -7l-11 -4l-6 -22l-15 11l-2 7v1zM749 319l-36 -62l-20 -31l62 11l32 5l-3 10l-19 43l-7 14z" />
  </g>

</svg>
