<?xml version="1.0" standalone="no"?>
<!DOCTYPE svg PUBLIC "-//W3C//DTD SVG 1.1//EN" "http://www.w3.org/Graphics/SVG/1.1/DTD/svg11.dtd" >
<svg xmlns="http://www.w3.org/2000/svg" xmlns:xlink="http://www.w3.org/1999/xlink" version="1.1" viewBox="0 -36 256 256">
  <g transform="matrix(1 0 0 -1 0 220)">
   <path fill="currentColor"
d="M22 85l-13 16q11 2 41 19v55h-16l-11 -3l-10 10h37q0 37 -1 63l23 -11l-8 -6v-46h5l10 11l18 -18h-33v-49l29 14l2 -5l-31 -20v-74q2 -26 -17 -33q-2 12 -27 20v5q19 -3 25 -1.5t5 13.5v61q-21 -14 -28 -21zM152 245l22 -10l-8 -8v-14h36l10 11l18 -18h-64v-22l-14 -3v25
h-26q-13 0 -22 -3l-10 10h58v32zM141 125q7 16 11 29l19 -13l-8 -3l-7 -13h60l10 11l18 -18h-65q32 -36 68 -42v-5q-13 -2 -15 -11q-33 15 -60 58h-19q-27 -40 -80 -60l-2 4q46 26 66 56h-17q-13 0 -22 -3l-10 10h53zM151 103l23 -11l-8 -5v-20h20l10 11l18 -18h-48
q0 -32 1 -47l-16 -6q1 37 1 53h-17q-13 0 -22 -3l-10 10h49q0 21 -1 36zM138 179l18 -18h-27v-20l-14 -5v25h-11l-11 -3l-10 10h32q0 13 -1 31l21 -9l-6 -7v-15zM184 162l-11 -3l-10 10h28q0 12 -1 29l22 -8l-7 -7v-14h8l10 11l18 -18h-36v-21l-14 -4v25h-7z" />
  </g>

</svg>
