<?xml version="1.0" standalone="no"?>
<!DOCTYPE svg PUBLIC "-//W3C//DTD SVG 1.1//EN" "http://www.w3.org/Graphics/SVG/1.1/DTD/svg11.dtd" >
<svg xmlns="http://www.w3.org/2000/svg" xmlns:xlink="http://www.w3.org/1999/xlink" version="1.1" viewBox="0 -205 1024 1024">
  <g transform="matrix(1 0 0 -1 0 819)">
   <path fill="currentColor"
d="M696 552l4 -8q1 -3 -4 -6q-27 -11 -38 -28q-12 -15 -32 -48h182l22 30l60 -38q7 -6 6 -6q1 -8 -16 -16q-15 -7 -26 -28t-46 -84q-33 -63 -84 -114q40 -36 68 -54q26 -15 64 -33q39 -15 132 -28v-18q-37 1 -58 -10q-18 -8 -36 -32q-40 15 -88 50q-47 34 -112 95
q-57 -47 -126 -85q-66 -38 -186 -74l-6 18q116 48 176 86q59 38 116 87q-58 83 -88 182q-61 -92 -116 -142l-12 8q54 75 100 162q44 84 74 162l70 -28v0v0zM610 438l-16 -24q39 -102 102 -176q60 68 114 200h-200v0v0zM582 576q-40 -33 -124 -108l-14 14q93 99 160 192
q66 -38 64 -46q-4 -6 -10 -6q-7 0 -22 -6q-12 -4 -54 -40v0v0zM770 664q74 -28 122 -50q46 -20 68 -46q21 -26 12 -46q-6 -20 -24 -22q-18 0 -30 24q-13 23 -40 50q-27 24 -116 76l8 14v0v0zM680 982q57 -30 66 -36q6 -4 4 -10q-3 -7 -20 -10q-18 -3 -50 -36
q-34 -33 -136 -138l334 10q-48 67 -110 116l10 12q95 -57 134 -90q35 -34 44 -58q6 -22 -2 -38q-6 -14 -24 -16q-15 -1 -24 14q-7 15 -20 40q-235 -18 -286 -26q-51 -6 -86 -26l-36 68q45 0 60 22q74 89 142 202v0v0zM268 944q6 -6 4 -12q-3 -4 -18 -8q-12 -6 -24 -24
q-12 -16 -32 -58h112l26 30l58 -42q6 -6 4 -12q0 -6 -24 -14q-22 -9 -46 -38q-24 -30 -48 -68h82l28 34l56 -38q8 -4 8 -8q1 -6 -28 -24v-248l4 -68q0 -13 -18 -26q-17 -10 -34 -10v32h-234v-12q1 -9 -18 -18q-17 -10 -34 -10l4 90v282q-24 -36 -62 -84l-12 10
q51 90 100 190q45 99 78 186l68 -32v0v0zM144 368h92v142h-92v-142v0v0zM284 368h94v142h-94v-142v0v0zM144 536h92v136h-92v-136v0v0zM284 672v-136h94v136h-94v0v0zM142 698h108l62 118h-128q-31 -48 -62 -102l20 -16v0v0zM98 272h22q3 -70 0 -112q0 -39 -18 -63
q-17 -23 -40 -28q-21 -3 -32 6q-9 9 -6 24t18 26q15 9 34 39q15 27 22 108v0v0zM152 284l14 8q46 -63 56 -92q8 -27 10 -50q0 -20 -12 -33t-30 -8q-18 6 -14 31q3 27 -2 60q-4 33 -22 84v0v0zM242 296l12 10q52 -55 68 -86q15 -31 18 -50q0 -20 -12 -31q-11 -13 -28 -8
q-18 3 -18 33q0 29 -8 56q-7 26 -32 76v0v0zM324 308l12 10q66 -51 84 -78q17 -27 20 -48q3 -19 -8 -32q-10 -13 -28 -10t-24 36q-6 32 -12 52t-44 70v0v0z" />
  </g>

</svg>
