<?xml version="1.0" standalone="no"?>
<!DOCTYPE svg PUBLIC "-//W3C//DTD SVG 1.1//EN" "http://www.w3.org/Graphics/SVG/1.1/DTD/svg11.dtd" >
<svg xmlns="http://www.w3.org/2000/svg" xmlns:xlink="http://www.w3.org/1999/xlink" version="1.1" viewBox="0 -205 1024 1024">
  <g transform="matrix(1 0 0 -1 0 819)">
   <path fill="currentColor"
d="M486 648l68 -30q6 -3 6 -6q3 -6 -8 -12q-22 -3 -38 -18l-22 -30q67 -27 92 -48q27 -19 30 -40q2 -19 -4 -32q-7 -12 -22 -12q-15 -1 -24 16q-7 15 -20 40q-9 24 -60 60q-82 -123 -154 -188l-12 10q65 89 110 170q42 78 58 120v0v0v0zM680 368l12 -6q5 -7 -4 -14l-32 -14
v-36h220l42 54l60 -60q3 -4 4 -8q0 -12 -12 -12h-314v-114l6 -91q0 -14 -26 -26q-25 -12 -40 -10l6 121v120h-242q-21 0 -68 -8l-16 34h326v92l78 -22v0v0zM748 644l60 -26q12 -4 12 -14q-1 -3 -8 -6q-12 -3 -30 -12l-28 -38q68 -27 110 -56t48 -52q4 -22 -4 -34
q-9 -12 -24 -12t-26 22q-9 21 -36 52q-24 30 -78 64q-50 -72 -118 -138l-12 10q63 90 90 144q28 54 44 96v0v0v0zM842 682l40 54l58 -60q3 -3 4 -6q3 -12 -6 -12h-514q-21 0 -68 -8l-16 32h502v0v0zM572 798l8 12q42 -15 66 -32q24 -18 30 -36q7 -19 -4 -34q-12 -16 -30 -14
t-20 26q-3 21 -12 40q-9 16 -38 38v0v0zM306 882h178v108l76 -28q6 -3 6 -6q7 -4 -30 -20v-54h188v104l80 -28q6 -3 4 -12q0 -2 -32 -16v-48h90l38 50l56 -56q2 -3 2 -8q0 -12 -12 -12h-174v-34l4 -32q-10 -18 -28 -24t-32 -6l4 62v34h-188v-36l4 -34q-9 -15 -26 -24
q-16 -8 -34 -10l4 64v40h-94q-18 0 -66 -8l-18 34v0v0zM182 406q-22 -49 -44 -52t-88 -2l-2 -20q45 -6 70 -14q25 -7 32 -22q8 -13 10 -44q1 -31 -6 -82q-9 -50 -6 -79q0 -28 16 -36q15 -9 30 0q15 7 18 34q3 25 -6 81q-10 56 -10 98t4 64q3 21 18 54l132 414l-22 6
l-146 -400v0v0zM118 972l6 14q48 -18 82 -36q33 -15 52 -36q17 -19 20 -40q3 -19 -8 -32q-12 -13 -26 -14q-16 1 -22 14q-6 14 -14 34q-6 20 -24 38q-15 18 -66 58v0v0zM48 716l6 14q42 -16 78 -34q35 -16 50 -34q15 -15 18 -36q1 -18 -10 -30q-9 -12 -24 -12t-20 12
q-6 13 -14 32q-10 17 -28 40q-18 21 -56 48v0v0z" />
  </g>

</svg>
