<?xml version="1.0" standalone="no"?>
<!DOCTYPE svg PUBLIC "-//W3C//DTD SVG 1.1//EN" "http://www.w3.org/Graphics/SVG/1.1/DTD/svg11.dtd" >
<svg xmlns="http://www.w3.org/2000/svg" xmlns:xlink="http://www.w3.org/1999/xlink" version="1.1" viewBox="0 -36 256 256">
  <g transform="matrix(1 0 0 -1 0 220)">
   <path fill="currentColor"
d="M45 246q19 -12 23 -21t-2.5 -18t-9.5 5.5t-14 30.5zM51 122q-18 -27 -40 -45l-2 3q18 21 35 49.5t27 54.5h-30q-10 -1 -19 -3l-9 10h59l7 11l15 -17l-8 -4q-11 -20 -23 -41q25 -10 29 -18t0 -18.5t-10 4t-18 26.5q0 -99 1 -118l-15 -7q1 42 1 113zM103 238l24 -12l-10 -7
v-175q0 -16 18 -15h77q12 0 14 14.5t3 33.5h5q0 -23 2 -33.5t10 -13.5q-8 -12 -29 -12h-87q-26 -2 -26 22v160q0 14 -1 38zM191 114l-15 -8q1 15 1 68t-1 71l22 -9l-8 -9v-86q0 -10 1 -27zM171 194q-6 -5 -12.5 -21.5t-23.5 -41.5l-2 2q8 21 14 40t7 33zM233.5 177.5
q6.5 -10.5 0 -22.5t-10.5 4.5t-23 43.5l3 2q24 -17 30.5 -27.5zM211 105q-13 -14 -32 -28t-56 -30l-1 4q32 17 57 39.5t40 53.5l14 -23q-9 -2 -22 -16z" />
  </g>

</svg>
