<?xml version="1.0" standalone="no"?>
<!DOCTYPE svg PUBLIC "-//W3C//DTD SVG 1.1//EN" "http://www.w3.org/Graphics/SVG/1.1/DTD/svg11.dtd" >
<svg xmlns="http://www.w3.org/2000/svg" xmlns:xlink="http://www.w3.org/1999/xlink" version="1.1" viewBox="0 -140 1000 1000">
  <g transform="matrix(1 0 0 -1 0 860)">
   <path fill="currentColor"
d="M473 506l16 -5q56 -13 70 -35q-19 -17 -24 -23q0 -6 8 -34.5t26.5 -67.5t39.5 -54q40 3 129 140l70 -70q-136 -46 -179 -101q81 -99 296 -154l-125 -39q-2 -1 -4 -1t-3 1q-193 89 -273 333l-7 7q-1 0 -19 -103q-6 -34 -28 -64t-59 -54t-65.5 -38.5t-71.5 -33.5
q-104 -48 -157 -48l-15 1q381 123 375 443zM206 265l1 14q89 71 110 141q0 -30 -0.5 -45.5t-2.5 -39.5t-7 -36.5t-14 -26.5t-23 -19.5t-34 -5.5q-30 0 -30 18zM137 693l-62 -24q18 20 56 56q110 93 105 182h-115v16h320q13 19 32 27q9 0 47 -39q-29 -18 -45 -94
q-1 -102 -105 -117q-6 0 -7 1t-4 11.5t-3 11.5q-27 28 -55 55h101q30 0 30 111v14h-131q-37 -129 -148 -203q-1 -1 -1 -4q0 -4 1 -4q23 -17 28 -19q12 -5 221 -5l24 24l47 -47q-24 -10 -24 -16v-164l-54 -7v47h-203q1 -5 1 -13q0 -38 -45 -36q-2 178 -11 236zM590 943
l47 -32h156q9 3 23 32q51 -35 63 -47l-125 -102v-8q1 -1 3 -1q3 -1 4 -1q50 -15 76 -46.5t26 -68.5q0 -38 -26.5 -72t-75.5 -52q1 3 1 8q0 34 -78 67q-7 2 -8 3h109q23 5 32 66q0 39 -63 81q-20 12 -24 16q7 18 32 51q23 30 31 51h-160v-406l-59 -8q17 129 17 345
q0 81 -1 124zM192 638v-109h203v109h-203z" />
  </g>

</svg>
