<?xml version="1.0" standalone="no"?>
<!DOCTYPE svg PUBLIC "-//W3C//DTD SVG 1.1//EN" "http://www.w3.org/Graphics/SVG/1.1/DTD/svg11.dtd" >
<svg xmlns="http://www.w3.org/2000/svg" xmlns:xlink="http://www.w3.org/1999/xlink" version="1.1" viewBox="0 -205 1024 1024">
  <g transform="matrix(1 0 0 -1 0 819)">
   <path fill="currentColor"
d="M842 946l8 10q38 -15 56 -30q17 -12 26 -30q6 -16 -2 -32q-7 -15 -22 -14t-18 14q-3 12 -12 36q-9 21 -36 46v0v0zM554 608l48 -32h66l32 30l40 -34q8 -6 8 -14q0 -1 -24 -22v-78l4 -50q1 -15 -10 -24q-12 -12 -38 -12v30h-84v-16q-6 -12 -20 -18q-15 -7 -26 -8l4 98v150
v0v0zM596 424h84v130h-84v-130v0v0zM528 700h126l32 36l46 -48q3 -3 4 -8q-1 -4 -16 -4h-132q-21 0 -44 -8l-16 32v0v0zM946 848l44 -48q3 -3 0 -6q3 -6 -6 -6h-192q2 -93 14 -152q11 -58 26 -106q39 68 78 170q63 -27 66 -36q0 -7 -8 -10q-6 -3 -18 -6q-9 -3 -32 -48
q-24 -42 -66 -108q21 -40 36 -62q14 -22 32 -40q18 -17 24 -12q4 3 14 40q8 36 20 88l18 -2q-7 -60 -10 -84q-1 -24 -2 -50t8 -40q8 -15 8 -18q1 -4 -4 -8t-28 2q-22 6 -46 24q-25 18 -50 48t-46 66q-45 -63 -104 -120l-12 10q51 72 94 150q-21 51 -38 126q-18 75 -20 178
h-236v-100q3 -168 -18 -264q-19 -97 -64 -160l-16 6q36 92 46 182q9 89 6 218v178l50 -34h230v172l66 -26q11 -5 14 -10l-6 -8l-28 -12v-116h124l32 34v0v0zM868 248q53 -33 86 -60q30 -25 40 -46q10 -20 8 -37q0 -15 -12 -24q-9 -9 -24 -6t-20 30t-22 53q-16 27 -64 78
l8 12v0v0zM488 254q0 -66 -2 -90q0 -21 -12 -47t-30 -40q-18 -15 -36 -12q-17 1 -22 20q-4 18 16 30q18 12 30 27q11 15 20 34q9 18 18 78h18v0v0zM588 216v-103q-1 -33 20 -40q19 -6 56 -6h106q30 3 40 12q9 7 12 20q6 13 6 45q-1 33 2 66h20l2 -62q2 -47 32 -61
q-6 -24 -30 -40q-23 -14 -76 -20h-116q-54 0 -86 12q-32 8 -34 70v169l62 -32q14 -7 14 -10q0 -4 -6 -8l-24 -12v0v0zM654 322q62 -34 86 -58q23 -22 26 -44q0 -21 -12 -32t-24 -6q-13 3 -16 18q-1 12 -10 34q-6 18 -18 34q-10 13 -40 44l8 10v0v0zM256 934q6 -1 4 -10
q1 -6 -10 -8q-15 -3 -30 -26q-12 -21 -32 -60h116l24 34l58 -48q7 -7 2 -10q0 -7 -26 -16q-18 -7 -36 -32q-15 -25 -60 -92h92l22 30l52 -36q6 -6 6 -8q0 -6 -32 -30v-240l4 -68q1 -12 -16 -24q-17 -9 -34 -12v42h-212v-32q0 -16 -18 -28q-16 -13 -32 -10l4 102v304
q-34 -51 -64 -86l-12 10q57 99 100 208q43 108 62 178l68 -32v0v0zM148 346h86v138h-86v-138v0v0zM280 346h80v138h-80v-138v0v0zM148 510h86v130h-86v-130v0v0zM280 640v-130h80v130h-80v0v0zM146 666h96l60 138h-124q-27 -62 -60 -118l28 -20v0v0zM418 230l6 -18
q-265 -83 -298 -101q-34 -15 -52 -36l-40 65l384 90v0v0z" />
  </g>

</svg>
