<?xml version="1.0" standalone="no"?>
<!DOCTYPE svg PUBLIC "-//W3C//DTD SVG 1.1//EN" "http://www.w3.org/Graphics/SVG/1.1/DTD/svg11.dtd" >
<svg xmlns="http://www.w3.org/2000/svg" xmlns:xlink="http://www.w3.org/1999/xlink" version="1.1" viewBox="0 -205 1024 1024">
  <g transform="matrix(1 0 0 -1 0 819)">
   <path fill="currentColor"
d="M490 798l58 -34h234l30 30l54 -36q12 -12 -2 -20l-18 -12v-144l4 -56q0 -15 -20 -26q-18 -10 -36 -10v44h-252v-16q0 -9 -14 -18q-15 -10 -42 -10l4 88v220v0v0zM542 560h252v74h-252v-74v0v0zM542 660h252v76h-252v-76v0v0zM560 438q-27 -39 -54 -72h348l30 34l60 -44
q12 -9 -2 -14l-28 -16q-14 -145 -22 -189q-9 -44 -38 -76q-31 -28 -70 -38q-4 33 -34 50q-28 18 -74 32l6 18q62 -15 92 -18q27 -3 46 8q18 9 24 49q6 41 22 178h-64q-57 -117 -146 -198q-91 -79 -226 -119l-6 18q107 42 190 121q83 77 128 178h-102q-45 -70 -114 -136
q-69 -65 -186 -115l-8 14q94 55 152 115q59 59 94 122h-92q-98 -105 -196 -162l-10 14q78 69 130 126q51 57 88 120h-98q-21 -2 -36 -10l-26 36h546l36 44l56 -52q7 -12 0 -18h-416v0v0zM522 908l-24 -38h360l40 48l60 -60q16 -14 -4 -16h-472q-65 -103 -118 -152l-14 8
q36 59 78 140q41 80 68 146q73 -33 74 -38q-1 -4 -4 -8q-3 -3 -18 -6q-12 -3 -26 -24v0v0zM20 672h150v300l80 -36q9 -4 10 -8q3 -1 -2 -10l-36 -16v-230h52l34 42l48 -48q4 -3 8 -14q2 -7 -10 -8h-132v-346l158 64l8 -18q-187 -93 -238 -120t-74 -62l-50 62l144 58v362h-70
q-16 0 -64 -8l-16 36v0v0z" />
  </g>

</svg>
