<?xml version="1.0" standalone="no"?>
<!DOCTYPE svg PUBLIC "-//W3C//DTD SVG 1.1//EN" "http://www.w3.org/Graphics/SVG/1.1/DTD/svg11.dtd" >
<svg xmlns="http://www.w3.org/2000/svg" xmlns:xlink="http://www.w3.org/1999/xlink" version="1.1" viewBox="0 -205 1024 1024">
  <g transform="matrix(1 0 0 -1 0 819)">
   <path fill="currentColor"
d="M476 782h216v190l84 -34q3 -4 4 -8q0 -3 -8 -12l-28 -10v-126h128l42 54l62 -62q3 0 4 -6q0 -12 -12 -12h-224v-344h114v258l74 -34q6 -3 6 -6q6 -9 -30 -20v-188l6 -70q-2 -16 -22 -28q-19 -10 -34 -10v70h-114v-236q-1 -32 10 -39q8 -6 32 -6h104q29 4 38 28
q8 20 16 153h20q3 -62 4 -94q0 -31 36 -57q-19 -48 -40 -60t-72 -16h-108q-42 -1 -56 4q-12 6 -24 26q-12 18 -12 55v242h-100l-32 -36l-64 46q32 20 34 38v236l78 -32q9 -3 4 -8q0 -6 -30 -20v-196h110v344h-128q-21 0 -68 -8l-20 34v0v0zM74 912l46 -34h280l28 36l46 -34
q12 -6 12 -14q1 -7 -28 -28v-170l4 -86q0 -15 -14 -24q-16 -9 -40 -12v24h-118v-108h100l34 42l50 -48q2 0 2 -6q0 -13 -12 -14h-174v-100l192 14l2 -18q-348 -41 -354 -46q-7 -4 -52 -22l-32 56l198 12v104h-108q-21 0 -68 -6l-16 32h192v108h-122v-12q0 -15 -18 -24
q-19 -10 -34 -8l4 122v264v0v0zM122 596h122v254h-122v-254v0v0zM290 596h120v254h-120v-254v0v0zM132 790l10 8q36 -31 58 -58q21 -28 24 -52q1 -25 -10 -34q-10 -10 -22 -10q-13 0 -16 28q-1 25 -8 50q-6 25 -36 68v0v0zM298 642q33 83 54 152q51 -27 48 -32q-1 -6 -8 -8
q-6 -3 -18 -18t-62 -98l-14 4v0v0zM386 266l8 12q54 -33 78 -60q24 -26 28 -46q4 -22 -4 -35q-7 -15 -26 -16q-18 1 -20 23q-3 24 -12 48q-10 25 -52 74v0v0zM282 246l12 8q42 -42 60 -66q16 -22 20 -46q4 -20 -4 -37q-6 -15 -24 -16q-18 0 -20 24q-3 24 -8 47q-3 25 -36 86
v0v0zM178 234l12 8q41 -52 56 -76q11 -21 14 -45q3 -22 -6 -38q-7 -15 -26 -16q-18 0 -18 24q-1 25 -4 53q-1 30 -28 90v0v0zM116 232h16q2 -70 -4 -107q-5 -39 -16 -60q-12 -19 -26 -30q-15 -12 -32 -6q-15 5 -18 18q-2 15 12 30q14 12 34 42q20 26 34 113v0v0z" />
  </g>

</svg>
