<?xml version="1.0" standalone="no"?>
<!DOCTYPE svg PUBLIC "-//W3C//DTD SVG 1.1//EN" "http://www.w3.org/Graphics/SVG/1.1/DTD/svg11.dtd" >
<svg xmlns="http://www.w3.org/2000/svg" xmlns:xlink="http://www.w3.org/1999/xlink" version="1.1" viewBox="0 -205 1024 1024">
  <g transform="matrix(1 0 0 -1 0 819)">
   <path fill="currentColor"
d="M856 942l36 42l60 -54l2 -6q0 -10 -8 -10h-778v-198q3 -312 -32 -444q-34 -129 -100 -219l-16 8q47 110 74 233q27 122 24 436v238l54 -26h684v0v0zM248 894l44 -22h204l22 22l46 -36q6 -7 4 -10q-1 -4 -22 -16v-64l4 -48q0 -13 -18 -22q-16 -9 -34 -12v14h-202v-2
q-10 -6 -22 -12q-9 -3 -30 -2l4 70v140v0v0zM296 724h202v48h-202v-48v0v0zM296 796h202v48h-202v-48v0v0zM224 668l48 -18h232l18 28l50 -26q9 -6 10 -14q-3 -6 -24 -20v-174q0 -25 -18 -40q-16 -13 -44 -20q-6 22 -24 32q-15 9 -42 16l4 16q26 -6 38 -8q11 -1 26 -2
q15 1 12 26v14h-238v-46l2 -28q1 -14 -18 -28q-18 -12 -36 -12l4 66v238v0v0zM272 502h238v50h-238v-50v0v0zM272 576h238v50h-238v-50v0v0zM816 850l4 10q45 -12 66 -24t24 -30q4 -16 -4 -28q-9 -10 -24 -10q-15 3 -18 18t-12 30q-6 12 -36 34v0v0zM762 828v-112h122l36 36
l44 -46q12 -16 -8 -16h-196q-1 -45 -10 -72q39 -16 90 -46t78 -62t22 -58q-3 -25 -26 -28q-22 -5 -40 36t-54 80q-37 36 -74 58q-18 -56 -60 -112q-41 -55 -100 -94l-10 12q45 42 88 118q42 72 48 168h-84q-21 0 -44 -8l-16 34h146v164l66 -24q10 -3 2 -12l-20 -16v0v0z
M172 302h364v78l72 -26q18 -5 6 -16l-26 -12v-24h290l40 48l56 -58q3 -3 4 -6q-1 -10 -16 -10h-332q38 -46 92 -80q54 -33 114 -54q60 -20 142 -25v-18q-33 -2 -56 -14q-21 -11 -38 -32q-91 45 -134 78q-41 29 -76 61q-36 30 -72 84h-14v-136l4 -81q0 -14 -18 -28
q-18 -13 -42 -14l4 106v151h-12q-61 -69 -152 -126q-91 -56 -242 -109l-8 14q126 57 210 115q83 60 128 108h-206q-21 0 -66 -8l-16 34v0v0z" />
  </g>

</svg>
