<?xml version="1.0" standalone="no"?>
<!DOCTYPE svg PUBLIC "-//W3C//DTD SVG 1.1//EN" "http://www.w3.org/Graphics/SVG/1.1/DTD/svg11.dtd" >
<svg xmlns="http://www.w3.org/2000/svg" xmlns:xlink="http://www.w3.org/1999/xlink" version="1.1" viewBox="0 -36 256 256">
  <g transform="matrix(1 0 0 -1 0 220)">
   <path fill="currentColor"
d="M224 162l-14 -5v6h-55v-4l-14 -5q1 28 1 52t-1 38l14 -8h54l9 9l13 -12l-8 -5v-27q0 -23 1 -39zM210 229h-55v-14h55v14zM210 208h-55v-16h55v16zM210 185h-55v-15h55v15zM36 206.5q0 28.5 -1 36.5l16 -7h50l9 9l14 -11l-8 -6v-32q0 -20 2 -34l-15 -5v6h-54v-4l-14 -5
q1 24 1 52.5zM103 229h-54v-14h54v14zM103 208h-54v-16h54v16zM103 185h-54v-15h54v15zM47 137q-14 -9 -31 -18l-2 3q12 9 21.5 18t17.5 20l16 -11q-8 -3 -22 -12zM155.5 136.5q-10.5 -7.5 -17.5 -9.5l-3 2q8 6 15.5 14t13.5 18l15 -11q-13 -6 -23.5 -13.5zM225.5 146
q7.5 -6 7 -10.5t-4.5 -9t-8.5 4t-24.5 23.5l1 3q22 -5 29.5 -11zM111 147.5q4 -3.5 4.5 -9t-3.5 -10.5t-9 5.5t-19 21.5l1 3q22 -7 26 -10.5zM138 130q4 -5 -1 -13t-8.5 0t-14.5 20l2 3q18 -5 22 -10zM178 62l12 10l17 -17h-72v-33h81l13 11l18 -18h-207q-11 -1 -20 -3
l-10 10h111v33h-34q-20 0 -30 -2l-9 9h130zM39 124v-12h182l9 9l15 -17q-17 -3 -29 -20l-3 2l9 19h-183q-1 -13 -9.5 -18.5t-14 -1t4.5 11t15 27.5h4zM96 107h15q-2 -22 -24 -31.5t-54 -11.5v5q28 4 45.5 13.5t17.5 24.5zM162 107v-12q-3 -12 18 -11h15.5t13 2t7.5 -2t4 -8
t-25 -3h-22q-25 -1 -25 18v16h14z" />
  </g>

</svg>
