<?xml version="1.0" standalone="no"?>
<!DOCTYPE svg PUBLIC "-//W3C//DTD SVG 1.1//EN" "http://www.w3.org/Graphics/SVG/1.1/DTD/svg11.dtd" >
<svg xmlns="http://www.w3.org/2000/svg" xmlns:xlink="http://www.w3.org/1999/xlink" version="1.1" viewBox="0 -36 256 256">
  <g transform="matrix(1 0 0 -1 0 220)">
   <path fill="currentColor"
d="M40 238l16 -8h157l13 12l19 -19h-189v-92q0 -29 -8.5 -60t-35.5 -63l-3 2q17 27 24.5 59t7.5 61v75q0 14 -1 33zM102 215l23 -8l-8 -8v-19h5l9 9l16 -16h-30v-6q19 -7 24.5 -13.5t0.5 -16t-9 1t-16 23.5v-31q0 -15 1 -31l-16 -5q1 15 1 34v29q-13 -28 -42 -51l-2 5
q25 30 36 60q-15 0 -21 -2l-10 10h39q0 16 -1 35zM187 102l-16 -6q2 17 2 33v24q-13 -24 -40 -47l-2 4q23 28 35 62l-10 -2l-9 10h26q0 17 -2 37l22 -8l-7 -6v-23h15l10 9l16 -16h-36q7 -17 18 -31.5t26 -20.5v-3q-13 0 -19 -10q-12 15 -18.5 29.5t-11.5 33.5v-32
q0 -21 1 -37zM108 69q-11 0 -20 -2l-10 9h59q0 9 -1 31l24 -8l-8 -7v-16h32l13 13l19 -20h-64v-42h55l13 13l21 -20h-159q-10 0 -20 -3l-10 10h85v42h-29z" />
  </g>

</svg>
