<?xml version="1.0" standalone="no"?>
<!DOCTYPE svg PUBLIC "-//W3C//DTD SVG 1.1//EN" "http://www.w3.org/Graphics/SVG/1.1/DTD/svg11.dtd" >
<svg xmlns="http://www.w3.org/2000/svg" xmlns:xlink="http://www.w3.org/1999/xlink" version="1.1" viewBox="0 -36 256 256">
  <g transform="matrix(1 0 0 -1 0 220)">
   <path fill="currentColor"
d="M175 186l21 -8l-7 -6v-12h21l10 10l15 -17h-46v-11q-1 -12 13 -12h9q9 1 9.5 7t0.5 9h4q0 -14 10 -17q-5 -9 -18 -10h-22q-19 0 -19 15v18h-24q0 -19 2 -32l-15 -5v9h-25l1 -5l-15 -4q1 11 1 37h-25q-4 -26 -38 -39l-2 2q25 17 27 37h-13q-9 0 -20 -2l-9 9h42q0 17 -1 28
l21 -8l-7 -4v-16h25q0 20 -1 27l21 -9l-7 -6v-12h25q0 17 -1 28l22 -10l-8 -8v-10h24q0 15 -1 27zM139 152h-25v-21h25v21zM33 108h190l8 9l17 -17q-15 -4 -32 -23l-4 2l12 22h-190q-1 -11 -6 -17t-10 -7t-7.5 4t7 13t10.5 27h4zM121 100l21 -9l-7 -7v-8h53l6 11l16 -12
l-8 -6v-27q1 -15 -18 -23q-4 12 -22 13v5q13 -1 20.5 -0.5t6.5 12.5v20h-54q0 -26 2 -53l-16 -8q1 33 1 61h-53v-38l-14 -6q1 22 1 33.5t-1 25.5l14 -8h53q0 11 -1 24zM68 232l-10 -13h52l9 11l16 -18h-54q19 -9 20 -16t-5 -12.5t-9 6t-14 22.5h-19q-17 -21 -38 -35l-3 2
q15 16 25.5 31.5t18.5 36.5l21 -12zM169 233l-11 -14h55l11 10l15 -17h-60q14 -6 18.5 -11t3 -11t-6 -7t-8 8.5t-15.5 20.5h-17q-12 -14 -27 -28l-4 3q17 23 24 37t11 23l21 -12z" />
  </g>

</svg>
