<?xml version="1.0" standalone="no"?>
<!DOCTYPE svg PUBLIC "-//W3C//DTD SVG 1.1//EN" "http://www.w3.org/Graphics/SVG/1.1/DTD/svg11.dtd" >
<svg xmlns="http://www.w3.org/2000/svg" xmlns:xlink="http://www.w3.org/1999/xlink" version="1.1" viewBox="0 -200 999 1000">
  <g transform="matrix(1 0 0 -1 0 800)">
   <path fill="currentColor"
d="M717 347v219l58 -33l-15 -65v-121h104l37 50l47 -75h-188v-290q-3 -8 -15 -19t-22 -11l-6 2v318h-114l-46 -15l-21 40h181zM835 844l36 47l48 -72h-297l-42 -16l-14 41h153v47l-8 110l64 -36l-15 -90v-31h75zM549 415h1q26 72 49 167.5t36 210.5l55 -45l-26 -57l-26 -89
q61 -64 61 -134q0 -25 -8.5 -42t-17.5 -17q-7 0 -12 13t-5 44q1 5 1.5 11t0.5 11q0 28 -7.5 55.5t-15.5 49.5q-8 -23 -16 -48.5t-17.5 -49.5t-20.5 -44.5t-24 -33.5zM766 431h5q15 48 25 90t17.5 84t14 87.5l14.5 101.5l60 -45l-27 -42l-18 -97q33 -38 52 -69.5t19 -56.5
q0 -10 -1 -11q-3 -23 -10 -37.5t-15 -14.5q-7 0 -13 13t-10 43q-6 35 -11 65.5t-15 58.5q-9 -27 -16.5 -49t-16 -41.5t-19 -39.5t-24.5 -43zM372 734q16 -36 27.5 -82t16.5 -100q4 -10 13 -10q11 0 21 15t10 34v4q0 17 -9 39t-21.5 43.5t-25.5 39.5t-22 28zM58 884
q25 -41 35 -79t14.5 -67t8.5 -46t16 -17q8 0 16.5 11t16.5 48q-2 38 -26 76t-72 86zM50 398q6 -12 12.5 -24.5t6.5 -19.5v-1q1 -6 2 -20.5t2 -30.5t1.5 -31.5t0.5 -23.5q0 -32 -3 -62.5t-6 -45.5q-1 -3 -1.5 -5.5t-0.5 -5.5q0 -14 8.5 -25.5t19.5 -11.5h3q7 0 17 7t12 26
q3 27 4.5 68t4 84t6 82.5t10.5 62.5q13 37 26 73t29 79.5t37 99t50 131.5l-13 9q-28 -59 -46 -102t-34 -82.5t-33.5 -82t-44.5 -100.5q-10 -17 -18 -24.5t-25 -7.5q-5 0 -9.5 0.5t-12.5 2.5zM320 257q13 -21 26.5 -51t25 -62t20.5 -61.5t14 -49.5q5 -18 10 -25.5t11 -7.5
q5 0 10.5 5.5t9.5 14t6.5 18.5t2.5 19q0 35 -16.5 62.5t-34.5 50.5l102 249l37 40l-43 66l-34 -53h-195l24 -39l40 14h131q-17 -66 -36 -132.5t-37 -123.5q-6 9 -14.5 20t-17.5 21.5t-18 20t-15 15.5zM248 461q32 42 56 96.5t43 112.5t33 114.5t26 102.5q38 -50 59 -92
t33 -72.5t18 -47.5t13 -17h2q1 -1 4 -1q8 0 18.5 9t10.5 29q0 16 -4 24q-2 9 -11 27t-27 42t-45 53t-66 61l6 12l17 47l-56 40q-11 -80 -24.5 -149.5t-30.5 -133.5t-38 -125t-46 -122z" />
  </g>

</svg>
