<?xml version="1.0" standalone="no"?>
<!DOCTYPE svg PUBLIC "-//W3C//DTD SVG 1.1//EN" "http://www.w3.org/Graphics/SVG/1.1/DTD/svg11.dtd" >
<svg xmlns="http://www.w3.org/2000/svg" xmlns:xlink="http://www.w3.org/1999/xlink" version="1.1" viewBox="0 -200 999 1000">
  <g transform="matrix(1 0 0 -1 0 800)">
   <path fill="currentColor"
d="M44 395q86 66 129.5 145t58.5 169h-114l-62 -10l-13 33h191q2 15 4 34.5t3.5 41.5t2.5 44t1 41l60 -35l-13 -56l-7 -70h123l46 46l60 -69h-202q24 -62 47 -106t49.5 -74t59 -48.5t74.5 -30.5q-10 -4 -18 -7.5t-16.5 -9t-18.5 -14t-23 -21.5q-32 31 -58.5 61.5t-47.5 66.5
t-36 80t-24 103l-16 2q-24 -93 -52.5 -151t-59 -93t-62.5 -53t-63 -30zM464 896h-317l-49 -12l-19 33h274l49 43zM191 116h211l-35 273l-3 1h-164l-9 -41v-233zM417 357v-266h-226v-53q-6 -14 -22 -23.5t-29 -13.5v460l66 -43h152l42 45l53 -69zM709 859v39l-12 102l77 -32
l-15 -71v-38h96l40 47l58 -69h-132l52 -32l-21 -27l-67 -142h71l41 48l59 -72h-339v-50q0 -126 -7 -208t-15 -134q-8 -34 -23 -68t-34 -63.5t-40 -53t-40 -35.5l-8 4q54 64 80.5 140.5t31.5 164.5l5 303l-41 -9l-16 33h261q18 76 27.5 126.5t12.5 74.5h-221l-49 -12l-22 34
h190zM951 201l-34 -17q-22 -19 -55 -44.5t-73.5 -50.5t-88 -46t-97.5 -30v16q57 20 108 51.5t93 67.5q42 42 66.5 71.5t34.5 55.5zM916 369l-30 -12q-14 -13 -39 -31.5t-55.5 -38t-65.5 -36.5t-69 -27l-3 12q38 24 72 48t61 50q60 57 82 101zM885 517l-29 -11
q-12 -11 -34 -26.5t-50 -32.5t-59 -32.5t-59 -25.5l-3 14q34 21 62.5 42.5t55.5 47.5q51 49 66 87zM626 815q37 -36 53 -62.5t17 -41.5v-5q0 -9 -3 -19t-7.5 -18.5t-10.5 -14.5t-12 -6q-5 0 -9.5 7t-6.5 24q-3 24 -9 60t-20 73z" />
  </g>

</svg>
