<?xml version="1.0" standalone="no"?>
<!DOCTYPE svg PUBLIC "-//W3C//DTD SVG 1.1//EN" "http://www.w3.org/Graphics/SVG/1.1/DTD/svg11.dtd" >
<svg xmlns="http://www.w3.org/2000/svg" xmlns:xlink="http://www.w3.org/1999/xlink" version="1.1" viewBox="0 -205 1024 1024">
  <g transform="matrix(1 0 0 -1 0 819)">
   <path fill="currentColor"
d="M318 884h154l30 36l56 -42q6 -6 6 -12q0 -7 -36 -28v-124l4 -78q0 -17 -20 -28q-19 -12 -32 -12v48h-92l-12 -188h96l26 34l52 -40q12 -6 12 -12t-32 -26q-10 -211 -20 -250q-8 -37 -34 -67q-24 -29 -68 -46q-13 36 -40 50q-27 15 -72 32l4 17q90 -26 120 -19q27 6 40 39
q12 32 22 262h-104l-24 -30l-52 44l30 28l16 240l44 -42h88v188h-102q-22 0 -38 -8l-22 34v0v0zM630 718q30 72 84 256l74 -34q6 -4 6 -10q0 -4 -12 -8q-27 -11 -38 -34q-24 -57 -42 -102h206l30 34l48 -44q18 -12 18 -24q-3 -6 -18 -8q-33 -9 -60 -48q-26 -39 -58 -80
l-14 8l62 134h-224q-57 -115 -120 -208l-16 8q44 87 74 160v0v0zM742 668l74 -28q9 -3 6 -12q0 -4 -32 -16v-499q2 -32 -16 -56q-16 -22 -56 -32q-5 30 -34 44q-30 16 -84 34l4 18q110 -27 124 -16q16 10 14 26v537v0v0zM712 506q7 -2 6 -10q-1 -6 -22 -12q-18 -3 -44 -92
q-27 -90 -80 -194l-18 4q41 134 56 200q15 64 30 134l72 -30v0v0zM824 536q84 -96 114 -150q30 -52 36 -88t-6 -54t-30 -12q-18 4 -20 32q-2 27 -10 60q-7 30 -22 66q-15 33 -74 136l12 10v0v0zM332 922q6 -4 6 -10q1 -3 -16 -6q-15 -4 -32 -22q-16 -18 -80 -96
q33 -90 48 -168q14 -78 16 -140q4 -61 2 -136q-1 -76 -10 -136q-10 -60 -34 -95t-90 -62q-3 28 -26 46q-22 17 -74 28l4 19q41 -11 80 -15q38 -4 58 10q20 10 32 79q12 68 12 128v126q1 64 -10 116q-67 -149 -184 -274l-12 10q86 116 184 340q-10 57 -28 96
q-60 -59 -126 -106l-10 10q51 48 118 130q-30 57 -102 142l10 8q72 -55 120 -122q57 80 84 136l60 -36v0v0z" />
  </g>

</svg>
