<?xml version="1.0" standalone="no"?>
<!DOCTYPE svg PUBLIC "-//W3C//DTD SVG 1.1//EN" "http://www.w3.org/Graphics/SVG/1.1/DTD/svg11.dtd" >
<svg xmlns="http://www.w3.org/2000/svg" xmlns:xlink="http://www.w3.org/1999/xlink" version="1.1" viewBox="0 -205 1024 1024">
  <g transform="matrix(1 0 0 -1 0 819)">
   <path fill="currentColor"
d="M522 490q-12 77 -18 130h-190v-130h208v0v0zM314 776v-130h382v130h-382v0v0zM710 836l60 -38q6 -6 6 -8q0 -7 -32 -28v-74l4 -74q0 -19 -18 -32q-19 -9 -34 -12v50h-142q3 -53 18 -130h150l32 38l58 -50q2 -5 2 -10q-1 -4 -10 -4h-224q20 -91 64 -142q45 -49 90 -70
q45 -19 54 8q8 29 14 106h18v-100q-1 -34 8 -46q8 -12 14 -20q4 -6 0 -12q-5 -6 -28 -6q-22 0 -76 16q-54 15 -116 78q-64 61 -94 188h-214v-184l190 92l10 -16q-141 -80 -176 -106q-33 -26 -54 -58l-52 60l34 18v570l58 -38h360l26 34v0v0zM114 972l58 -40h672l28 40
l60 -38q12 -6 12 -14q-1 -3 -34 -30v-670l4 -143q1 -12 -16 -24q-16 -11 -40 -16v64h-692v-48q0 -10 -20 -24q-21 -12 -36 -10l4 191v762v0v0zM166 131h692v771h-692v-771v0v0z" />
  </g>

</svg>
