<?xml version="1.0" standalone="no"?>
<!DOCTYPE svg PUBLIC "-//W3C//DTD SVG 1.1//EN" "http://www.w3.org/Graphics/SVG/1.1/DTD/svg11.dtd" >
<svg xmlns="http://www.w3.org/2000/svg" xmlns:xlink="http://www.w3.org/1999/xlink" version="1.1" viewBox="0 -36 256 256">
  <g transform="matrix(1 0 0 -1 0 220)">
   <path fill="currentColor"
d="M45 198l17 -9h57v30q0 17 -1 27l24 -9l-9 -8v-9h68l14 12l17 -19h-99v-24h59l7 11l17 -12l-7 -8v-47q0 -23 1 -33l-16 -6v10h-133v-7l-16 -7l1 23q0 72 -1 85zM61 111h133v71h-133v-71zM122 180l17 -9q-6 -8 -11 -15q39 -14 45 -20.5t3 -16.5t-14 4.5t-36 28.5
q-18 -26 -50 -39l-1 4q35 23 47 63zM120 103l23 -8l-7 -7v-17h50l15 13l19 -20h-84v-41h74l15 13l18 -20h-203q-10 -1 -20 -3l-9 10h110v41h-57q-10 0 -20 -2l-9 9h86q0 9 -1 32z" />
  </g>

</svg>
