<?xml version="1.0" standalone="no"?>
<!DOCTYPE svg PUBLIC "-//W3C//DTD SVG 1.1//EN" "http://www.w3.org/Graphics/SVG/1.1/DTD/svg11.dtd" >
<svg xmlns="http://www.w3.org/2000/svg" xmlns:xlink="http://www.w3.org/1999/xlink" version="1.1" viewBox="0 -36 256 256">
  <g transform="matrix(1 0 0 -1 0 220)">
   <path fill="currentColor"
d="M85 232l-1 -13h33l6 10l15 -12l-8 -5q-3 -42 -10 -51.5t-21 -12.5q-1 6 -7 9t-13 4v5q18 -2 24 0t8 8.5t3 14.5t2 23h-33q-2 -21 -15.5 -41.5t-46.5 -35.5l-2 4q12 6 29.5 26.5t20.5 46.5h-11q-10 0 -19 -2l-9 9h40q1 13 1 28l20 -9zM148 190q0 22 -1 41l15 -8h45l9 11
l15 -13l-9 -8v-34q0 -9 1 -24l-14 -6v11h-47v-6l-15 -5q1 19 1 41zM162 167h47v49h-47v-49zM70 116.5q0 10.5 -1 24.5l15 -9h28q7 18 9 29l19 -10l-9 -5l-11 -14h63l8 12l16 -14l-8 -6v-37h18l14 13l16 -20h-48v-46q-1 -20 -21 -27q-1 10 -10.5 13.5t-18.5 4.5v5
q20 -1 28 -1t8 9v42h-101q-1 -21 -19 -41.5t-50 -31.5l-1 4q27 15 40.5 32.5t15.5 36.5h-33q-10 0 -19 -2l-9 9h61v29.5zM84 87h101v38h-101v-38zM145 108.5q3 -6.5 -3 -15t-9.5 2.5t-21.5 22l1 4q30 -7 33 -13.5zM143 59.5q7 -7.5 0.5 -17t-11.5 3t-23 22.5l2 4
q25 -5 32 -12.5z" />
  </g>

</svg>
