<?xml version="1.0" standalone="no"?>
<!DOCTYPE svg PUBLIC "-//W3C//DTD SVG 1.1//EN" "http://www.w3.org/Graphics/SVG/1.1/DTD/svg11.dtd" >
<svg xmlns="http://www.w3.org/2000/svg" xmlns:xlink="http://www.w3.org/1999/xlink" version="1.1" viewBox="0 -205 1024 1024">
  <g transform="matrix(1 0 0 -1 0 819)">
   <path fill="currentColor"
d="M832 704l68 -32q6 -4 6 -10q0 -5 -20 -10l-218 -50q2 -51 14 -120l180 44l30 48l70 -36q6 -3 6 -8q0 -9 -18 -12l-264 -60q8 -50 20 -88q9 -35 36 -94q57 52 144 158q63 -36 66 -42q3 -3 0 -8q-4 -3 -22 -6q-18 -1 -36 -20q-67 -61 -130 -118q26 -33 56 -66
q28 -30 62 -55q34 -24 44 -22q9 0 18 32q5 30 20 129h20q-6 -61 -6 -104q-1 -41 4 -67q6 -24 16 -34q10 -11 8 -20q0 -5 -12 -8t-36 2q-24 3 -66 26q-41 19 -82 62q-41 39 -82 97q-66 -56 -150 -103q-84 -46 -164 -72l-8 16q80 31 160 88q81 52 138 103q-27 53 -44 104
q-15 51 -24 96l-90 -22q-36 -9 -50 -24l-30 34l164 38q-6 70 -12 122l-88 -20q-21 -9 -32 -18l-28 30l146 34q0 54 -2 108l-90 -20q-12 -6 -24 -18l-34 34l148 30v240l88 -34q10 -10 -4 -16l-32 -14v-166l146 30l24 38l68 -38q6 -7 -2 -10l-236 -46q3 -51 0 -108l144 34
l22 42v0v0zM726 948l4 14q66 -15 94 -32q26 -16 32 -34q4 -18 -6 -30q-9 -14 -24 -12q-12 2 -18 14q-5 12 -22 36q-18 22 -60 44v0v0zM394 698l52 -34q18 -7 4 -22l-24 -20v-186l4 -88q0 -13 -18 -26q-18 -12 -36 -14v36h-178v-213l174 87q-27 38 -66 70l8 12
q65 -30 100 -56q32 -28 44 -52q12 -25 4 -45q-9 -19 -26 -20q-18 -1 -26 18q-6 19 -12 29q-3 9 -12 24q-146 -88 -166 -107q-21 -18 -54 -54l-56 64q33 20 40 34v537q-57 -71 -102 -112l-10 10q72 101 132 212q57 108 96 208l66 -36q12 -5 4 -16q-28 0 -40 -24
q66 -24 108 -48q39 -24 54 -48q16 -25 8 -44q-6 -19 -24 -20q-18 -2 -32 24q-12 23 -42 56q-27 29 -84 62q-21 -42 -54 -96q-31 -54 -64 -104l38 -32h160l30 34v0v0zM198 636v-120h178v120h-178v0v0zM198 490v-120h178v120h-178v0v0zM246 810l10 10q53 -30 70 -54
q15 -21 12 -44q-4 -21 -16 -26q-13 -6 -22 0q-10 4 -14 26q-3 22 -12 44q-8 20 -28 44v0v0z" />
  </g>

</svg>
