<?xml version="1.0" standalone="no"?>
<!DOCTYPE svg PUBLIC "-//W3C//DTD SVG 1.1//EN" "http://www.w3.org/Graphics/SVG/1.1/DTD/svg11.dtd" >
<svg xmlns="http://www.w3.org/2000/svg" xmlns:xlink="http://www.w3.org/1999/xlink" version="1.1" viewBox="0 -36 256 256">
  <g transform="matrix(1 0 0 -1 0 220)">
   <path fill="currentColor"
d="M67 15l-15 -7q1 46 1 117q-12 -35 -42 -67l-3 3q35 50 43 114h-10q-10 0 -19 -2l-9 9h40q0 29 -1 63l24 -10l-10 -7v-46h6l11 12l13 -19h-30v-27q14 -8 23.5 -17t3.5 -21t-10 1t-17 31q0 -107 1 -127zM166 219h39l11 7l17 -14h-67q-1 -7 -3 -14h34l12 7l15 -14h-63
q-3 -8 -6 -15h60l12 8l15 -15h-57q6 -5 23.5 -12.5t37.5 -7.5v-5q-11 0 -16 -9q-34 13 -53 34h-25q-21 -27 -64 -36l-2 3q36 14 51 33h-13q-10 0 -19 -2l-9 9h45q4 8 7 15h-11q-10 0 -19 -2l-9 9h41q2 6 3 14h-26q-10 0 -19 -2l-9 9h54q1 14 0 27l23 -9l-9 -4zM110 103
q0 20 -1 34l14 -2q22 14 25 19l14 -13q-11 0 -39 -12v-19h13l11 8l12 -15h-36v-18h82v18h-2q-13 1 -24 -2l-9 9h35v18h-13q-10 0 -19 -2l-9 9h40l9 6l13 -11l-8 -3q0 -40 1 -53l-14 -5v9h-82v-4l-14 -4q1 13 1 33zM104 62q-1 -23 -2.5 -29.5t-6 -9.5t-12 -1.5t2 12
t14.5 28.5h4zM118 30q0 24 -1 34l20 -7l-6 -6v-18q0 -9 12 -9h48q8 0 8.5 8t0.5 18h5q1 -9 2 -15t10 -9q-6 -13 -27 -14h-52q-20 3 -20 18zM145 75q22 -8 29 -15t3 -16t-8.5 -1t-10 14.5t-14.5 14.5zM211 62q11 -4 20 -9t13.5 -10.5t0.5 -15t-11 3.5t-25 28z" />
  </g>

</svg>
