<?xml version="1.0" standalone="no"?>
<!DOCTYPE svg PUBLIC "-//W3C//DTD SVG 1.1//EN" "http://www.w3.org/Graphics/SVG/1.1/DTD/svg11.dtd" >
<svg xmlns="http://www.w3.org/2000/svg" xmlns:xlink="http://www.w3.org/1999/xlink" version="1.1" viewBox="0 -36 256 256">
  <g transform="matrix(1 0 0 -1 0 220)">
   <path fill="currentColor"
d="M129 173q0 -22 1 -32l-14 -6v10h-27q28 -33 63 -39v-5q-10 -2 -15 -11q-34 18 -56 56q-13 -24 -27 -37l16 -8l-6 -6q0 -31 -10.5 -51.5t-40.5 -36.5l-1 5q39 27 38 94q-17 -15 -41 -22l-2 4q39 21 57 57h-21v-9l-14 -5q1 21 1 50.5t-1 51.5l14 -8h73l9 9l12 -15l-8 -5
v-41zM108 13l-15 -6q1 33 1 56t-1 47l19 -9l-5 -5q0 -61 1 -83zM43 188h30v30h-30v-30zM86 188h30v30h-30v-30zM43 152h30v29h-30v-29zM86 152h30v29h-30v-29zM174 53v154h-11q-9 1 -20 -2l-9 9h85l14 13l15 -20h-61v-52q34 -15 48 -26.5t10 -26.5t-13.5 2.5t-44.5 46.5v-87
q0 -17 1 -48l-15 -7q1 29 1 44z" />
  </g>

</svg>
