<?xml version="1.0" standalone="no"?>
<!DOCTYPE svg PUBLIC "-//W3C//DTD SVG 1.1//EN" "http://www.w3.org/Graphics/SVG/1.1/DTD/svg11.dtd" >
<svg xmlns="http://www.w3.org/2000/svg" xmlns:xlink="http://www.w3.org/1999/xlink" version="1.1" viewBox="0 0 2048 2048">
  <g transform="matrix(1 0 0 -1 0 2048)">
   <path fill="currentColor"
d="M1384 1683h-122q-24 0 -57 -3q-33 -2 -39 -2q-5 -1 -28 -3l-25 -3l-39 86q27 -5 48 -8q22 -3 40 -4q17 -2 50 -4q32 -2 50 -2h122v35q-1 21 0 59q0 37 -1 50l-4 49l140 -23q15 -3 25 -10q9 -8 10 -18q2 -9 -7 -18q-9 -8 -20 -11l-43 -15q-6 -54 -6 -70l-1 -28h205l80 81
l114 -86q8 -7 14 -15q5 -7 1 -19q-4 -10 -11 -14q-8 -4 -14 -4h-390v-28q-1 -17 -6 -61t-6 -55l-5 -30h293l98 101l121 -107q10 -10 14 -15q4 -6 1 -18q-4 -11 -12 -15q-7 -4 -14 -4h-474q18 -6 30 -11l66 -24l98 -38q46 -19 90 -42q45 -22 74 -40q28 -18 52 -37.5t38 -40.5
q13 -21 12 -47q-1 -15 -8 -28q-8 -13 -25 -21t-55 22q-12 8 -44 41q-31 33 -70 63q-38 31 -76 54q-37 23 -94 55t-72 39l-69 31q-10 -14 -25 -37q-14 -22 -31 -42q-17 -21 -66 -59t-101 -71q-51 -33 -78 -44l-47 -20l-19 34l50 32q26 16 74 53q49 37 76 69q28 31 46 56
q19 24 25 35l10 18h-55q-27 0 -102 -3q-74 -3 -76 -3l-14 -2l-38 88q13 -4 27 -7t69 -9t134 -6h74q2 9 7 29q5 19 8 64l2 56zM507 1683h-168q-24 0 -57 -3q-32 -2 -41 -2q-9 -1 -26 -3l-24 -3l-40 86q27 -5 48 -8t39 -4q19 -2 51 -4t50 -2h173q0 19 2 67q1 48 -1 80l-4 50
l140 -24q16 -3 25 -10t10 -17q2 -11 -6 -18q-9 -8 -21 -12l-47 -15l-3 -46l-3 -33l-1 -22h156l80 81l114 -86q8 -7 13 -15q6 -7 3 -19q-3 -10 -11 -14t-15 -4h-346q-4 -27 -9 -74q-6 -47 -11 -66l-7 -27h229l98 102l121 -107q10 -10 14 -15q5 -6 1 -19q-4 -10 -11 -14
q-8 -4 -14 -4h-434l78 -37q34 -17 70 -38q37 -22 72 -46q34 -23 54 -42q19 -20 30 -44q10 -25 10 -50q-1 -19 -10 -35q-10 -16 -29 -17q-19 -2 -40 22q-7 6 -27 33q-19 27 -38 49q-18 23 -56 58q-39 35 -68 58q-30 23 -46 34l-32 21q-11 -25 -20 -43q-10 -19 -33 -54
q-23 -34 -57 -66t-78 -62q-45 -31 -89 -55t-74 -36l-43 -18l-17 36l53 28q25 13 65 39q40 27 75 58q34 30 58 59q25 29 44 61q19 31 29 59l10 28h-126q-44 0 -110 -3.5t-68 -3.5l-14 -1l-38 88q14 -4 30 -7q16 -4 61 -10q46 -6 139 -6h142l7 32q2 9 9 58q7 50 8 54zM858 477
q-10 -37 -28 -95q-17 -57 -70 -127t-144 -117q-92 -46 -219 -74q-127 -29 -203 -35l-101 -10l-2 38l125 23q65 13 164 41t180 73q80 45 124 103.5t60 131.5l11 48h-233v-63q0 -11 -6 -18t-17 -12t-33 -5q-16 -1 -28 3q-11 4 -16 13q-4 9 -3 25q0 5 3 45t4 95q2 56 3 100
l1 406q-2 53 -6 80q-3 26 -6 40l-4 14l120 -88h951l61 72l72 -49q18 -13 29 -24t13 -22t-8 -23q-4 -5 -30 -19l-27 -14v-362q0 -27 3 -90q2 -63 5 -93q3 -31 3 -43q1 -12 -2 -19q-6 -13 -26 -21t-37 -8q-18 -1 -27 4q-8 5 -10 11q-3 5 -3 12v53h-230v-208q0 -27 5 -50
q6 -23 24 -37q19 -14 75 -15l117 -4h73q56 0 113 3q57 4 81 10q24 5 38 17t24 30t17 42t15 80l19 132l39 -6v-188q0 -32 4 -45q4 -12 23 -26l29 -22q15 -17 15 -34q-1 -18 -16 -30q-16 -13 -67 -24t-89 -16q-39 -4 -109 -7t-114 -3h-95q-28 0 -112 4q-85 3 -126 17t-60 43
t-19 63v274h-317zM1501 674h-979v-139h979v139zM1501 876h-979v-146h979v146zM522 932h979v124h-979v-124z" />
  </g>

</svg>
