<?xml version="1.0" standalone="no"?>
<!DOCTYPE svg PUBLIC "-//W3C//DTD SVG 1.1//EN" "http://www.w3.org/Graphics/SVG/1.1/DTD/svg11.dtd" >
<svg xmlns="http://www.w3.org/2000/svg" xmlns:xlink="http://www.w3.org/1999/xlink" version="1.1" viewBox="0 -36 256 256">
  <g transform="matrix(1 0 0 -1 0 220)">
   <path fill="currentColor"
d="M71 173l-10 -14h44l12 10l12 -18q-12 0 -47 -36l-4 2l25 35h-45q-20 -24 -47 -41l-3 3q24 23 35 41t15 35l21 -13zM120 47q0 -11 1 -25l-15 -5v9h-66v-6l-18 -6q2 24 2 46t-1 47l14 -5q16 10 22 20l17 -13h-8l-28 -14v-26h11l10 9l13 -16h-34v-29h66v29q-10 0 -20 -2
l-9 9h29v27h-1q-11 -1 -21 -3l-10 10h32l6 10l16 -11l-8 -7v-48zM165 146h48l8 8l16 -14q-10 0 -36 -33l-3 2l14 30h-49q-12 -22 -31 -43l-4 3q16 26 25 50.5t11 37.5l20 -12l-7 -4zM188 114l-6 -6q4 -35 22.5 -57.5t42.5 -29.5v-4q-14 1 -20 -9q-20 12 -32 32t-17 47
q-3 -23 -18 -45t-53 -35l-2 3q33 19 44.5 38t14 37.5t2.5 36.5zM124 207h-41q0 -7 1 -17l-17 -6q1 13 1 23h-26q-12 0 -22 -2l-10 9h58q0 21 -1 32l24 -8l-8 -7v-17h13l13 11zM159 209q-11 0 -21 -2l-10 9h36q0 16 -1 29l24 -9l-8 -7v-13h31l14 11l16 -18h-61q-1 -3 1 -20
l-17 -5q1 21 1 25h-5z" />
  </g>

</svg>
