<?xml version="1.0" standalone="no"?>
<!DOCTYPE svg PUBLIC "-//W3C//DTD SVG 1.1//EN" "http://www.w3.org/Graphics/SVG/1.1/DTD/svg11.dtd" >
<svg xmlns="http://www.w3.org/2000/svg" xmlns:xlink="http://www.w3.org/1999/xlink" version="1.1" viewBox="0 -205 1024 1024">
  <g transform="matrix(1 0 0 -1 0 819)">
   <path fill="currentColor"
d="M862 812l42 58l68 -64q3 -3 4 -8q0 -12 -14 -12h-564q-21 -1 -60 -10l-24 36h548v0v0zM414 716l56 -42h324l28 36l64 -44l4 -8q1 -7 -34 -32v-110l4 -80q3 -13 -14 -26q-15 -13 -42 -16v48h-136v-311q1 -41 -18 -70q-18 -25 -68 -36q-9 36 -38 50q-29 12 -82 30l4 18
q50 -12 80 -18q29 -4 50 -2q21 3 18 32v307h-148v-18q0 -13 -20 -26q-18 -12 -36 -12l4 106v224v0v0zM466 468h338v180h-338v-180v0v0zM532 968l10 10q75 -31 102 -52q24 -22 30 -46q5 -22 -4 -38q-10 -15 -28 -14t-24 20q-4 17 -16 44q-13 27 -70 76v0v0zM530 314
q10 -7 2 -10q-1 -3 -10 -6q-18 -4 -30 -10q-10 -6 -64 -66q-55 -60 -190 -167l-12 12q139 128 236 285l68 -38v0v0zM756 338q78 -51 120 -86q42 -34 58 -62q13 -27 14 -42q0 -13 -6 -25q-4 -9 -14 -16q-9 -6 -24 0q-12 6 -20 30q-7 19 -28 59q-19 38 -110 128l10 14v0v0z
M164 404q-19 -49 -28 -52q-8 -3 -94 -2l-2 -20q66 -6 78 -14q13 -7 20 -22q8 -13 8 -44t-8 -82q-10 -50 -8 -79q0 -28 16 -38q16 -6 32 0q16 9 20 36q2 25 -4 81q-7 56 -8 98t4 64q4 21 14 54l118 362l-22 6l-136 -348v0v0zM110 930l6 14q48 -18 82 -36q33 -15 52 -36
q17 -19 20 -40q3 -19 -8 -34q-9 -13 -26 -14q-16 0 -22 16q-6 14 -14 34q-6 20 -24 38q-15 18 -66 58v0v0zM32 674l6 14q42 -16 78 -34q35 -16 50 -34t18 -38q1 -18 -10 -32q-9 -12 -24 -12t-20 16q-6 13 -14 32q-10 17 -28 40q-18 21 -56 48v0v0z" />
  </g>

</svg>
