<?xml version="1.0" standalone="no"?>
<!DOCTYPE svg PUBLIC "-//W3C//DTD SVG 1.1//EN" "http://www.w3.org/Graphics/SVG/1.1/DTD/svg11.dtd" >
<svg xmlns="http://www.w3.org/2000/svg" xmlns:xlink="http://www.w3.org/1999/xlink" version="1.1" viewBox="0 -36 256 256">
  <g transform="matrix(1 0 0 -1 0 220)">
   <path fill="currentColor"
d="M73 112q5 -9 -3 -16.5t-9.5 6t-14.5 34.5l2 2q20 -17 25 -26zM71 59v-3q-38 -23 -45 -34l-10 15q4 5 6 16l19 160q-11 0 -20 -3l-8 10h86l12 11l16 -18h-72l-6 -43h39l9 9l13 -14l-9 -6l-8 -106q0 -13 8 -12q11 -2 12 6.5t2 32.5h4q0 -17 2 -24t10 -11q-5 -10 -9.5 -13
t-8.5 -3h-15q-19 0 -18 18l9 116h-41l-14 -118zM153 195h69l8 8l14 -13l-7 -7q-4 -114 -7.5 -134t-10 -28t-20.5 -13q-2 16 -26 23l1 5q21 -6 27.5 -6.5t11.5 16t10 142.5h-13q-9 -81 -30.5 -115.5t-54.5 -56.5l-1 5q25 24 45 60t28 107h-16q-8 -49 -22 -75t-34 -44l-3 3
q14 18 26.5 47.5t18.5 68.5h-16q-13 -32 -32 -55l-3 2q14 24 22 51t12 57l22 -11l-7 -6q-6 -21 -12 -31z" />
  </g>

</svg>
