<?xml version="1.0" standalone="no"?>
<!DOCTYPE svg PUBLIC "-//W3C//DTD SVG 1.1//EN" "http://www.w3.org/Graphics/SVG/1.1/DTD/svg11.dtd" >
<svg xmlns="http://www.w3.org/2000/svg" xmlns:xlink="http://www.w3.org/1999/xlink" version="1.1" viewBox="0 -205 1024 1024">
  <g transform="matrix(1 0 0 -1 0 819)">
   <path fill="currentColor"
d="M674 788l72 -24q8 -2 8 -4q3 -4 -2 -10l-28 -16v-52h100l26 32l56 -36q7 -6 8 -12q0 -6 -26 -20v-86h22l30 36l50 -48q1 -1 2 -4q3 -4 -2 -10h-102v-68l4 -56q0 -15 -20 -26q-18 -10 -32 -10v28h-116v-54q-1 -12 -16 -20q-16 -7 -34 -8v82h-70q-24 0 -48 -6l-24 32h142
v106h-86q-18 0 -36 -6l-24 32h146v94h-74q-13 0 -40 -6l-22 32h136v108v0v0zM724 534v-106h116v106h-116v0v0zM724 656v-96h116v96h-116v0v0zM550 334l52 -34h222l32 32l44 -36q12 -6 12 -14q0 -5 -30 -28v-127l4 -64q1 -17 -18 -32q-19 -13 -34 -14v64h-236v-26
q0 -12 -18 -24q-16 -12 -34 -12l4 104v211v0v0zM598 107h236v167h-236v-167v0v0zM872 820l34 48l62 -60l2 -6q0 -7 -8 -8h-446v-230q5 -222 -46 -338q-48 -116 -186 -215l-12 12q114 103 156 209q41 106 38 308v322l60 -42h346v0v0zM618 966l8 12q64 -27 92 -48
q28 -18 32 -42q3 -24 -8 -36q-11 -13 -28 -10q-15 2 -20 26q-6 24 -24 48q-19 23 -52 50v0v0zM94 800l46 -38h70v210l74 -34q12 -6 4 -18l-28 -16v-142h60l22 34l54 -38q12 -9 4 -14l-22 -18v-222l4 -34q3 -15 -12 -26q-13 -12 -40 -14v28h-70v-212l90 18q-15 51 -38 96
l14 8q51 -66 66 -96q14 -31 14 -46q0 -16 -8 -28q-6 -10 -18 -10q-11 0 -16 6q-6 6 -6 18q0 11 -6 34q-136 -42 -196 -66q-60 -22 -90 -47l-38 63l182 40v222h-68v-48q0 -12 -18 -20q-17 -9 -34 -8l4 74v344v0v0zM142 482h68v256h-68v-256v0v0zM260 738v-256h70v256h-70v0v0
z" />
  </g>

</svg>
