<?xml version="1.0" standalone="no"?>
<!DOCTYPE svg PUBLIC "-//W3C//DTD SVG 1.1//EN" "http://www.w3.org/Graphics/SVG/1.1/DTD/svg11.dtd" >
<svg xmlns="http://www.w3.org/2000/svg" xmlns:xlink="http://www.w3.org/1999/xlink" version="1.1" viewBox="0 -205 1024 1024">
  <g transform="matrix(1 0 0 -1 0 819)">
   <path fill="currentColor"
d="M450 810h106v150l80 -32q6 -3 6 -6t-8 -6l-26 -16v-90h188v156l74 -30q7 -3 8 -6q-1 -3 -4 -8l-26 -14v-98h28l36 46l58 -54q3 -4 4 -10q0 -9 -14 -8h-112v-474h48l36 48q61 -53 62 -64q0 -10 -12 -10h-438q-28 0 -74 -8l-18 34h104v474h-42q-22 0 -44 -8l-20 34v0v0z
M608 454v-144h188v144h-188v0v0zM608 610v-130h188v130h-188v0v0zM608 784v-148h188v148h-188v0v0zM562 121q-51 -45 -138 -108l-12 14q54 48 112 110q55 58 80 103l64 -34q3 -6 -2 -12q-4 -3 -16 -8q-12 -3 -26 -12q-12 -10 -62 -53v0v0zM752 236q72 -36 124 -66
q49 -30 68 -53q18 -25 16 -50q-3 -24 -24 -28q-20 -4 -34 22q-12 26 -44 64q-30 35 -114 99l8 12v0v0zM266 946q6 -6 4 -12q0 -4 -18 -8q-12 -7 -24 -22q-10 -13 -38 -64h118l26 28l60 -48q7 -6 2 -12q0 -6 -30 -12q-22 -10 -50 -40q-25 -30 -50 -62h94l28 34l54 -38
q6 -4 6 -8q0 -6 -24 -24v-260l4 -68q0 -13 -20 -26q-18 -10 -36 -10v44h-218v-16q0 -12 -20 -26q-21 -12 -36 -12l4 104v294q-39 -52 -72 -88l-14 8q41 69 98 180q54 111 84 198l68 -34v0v0zM154 364h82v142h-82v-142v0v0zM288 364h84v142h-84v-142v0v0zM154 532h82v136h-82
v-136v0v0zM288 668v-136h84v136h-84v0v0zM148 694h92l68 120h-130q-28 -52 -52 -88l22 -32v0v0zM98 252h22q1 -70 0 -112q-3 -39 -20 -63q-16 -23 -38 -28q-22 -3 -32 6t-8 24t20 26q14 10 32 39q18 27 24 108v0v0zM148 258l14 8q45 -63 54 -92q9 -27 10 -49q1 -21 -10 -34
q-12 -13 -30 -8q-19 6 -16 32t0 59q-4 33 -22 84v0v0zM252 268l12 10q50 -55 68 -86q15 -31 16 -50q1 -17 -10 -31q-12 -13 -30 -8q-16 4 -16 34q0 28 -8 55q-9 26 -32 76v0v0zM354 274l12 10q66 -51 84 -78q17 -27 20 -48q0 -18 -8 -31q-9 -12 -30 -10q-18 4 -24 35
q-4 32 -10 52t-44 70v0v0z" />
  </g>

</svg>
