<?xml version="1.0" standalone="no"?>
<!DOCTYPE svg PUBLIC "-//W3C//DTD SVG 1.1//EN" "http://www.w3.org/Graphics/SVG/1.1/DTD/svg11.dtd" >
<svg xmlns="http://www.w3.org/2000/svg" xmlns:xlink="http://www.w3.org/1999/xlink" version="1.1" viewBox="0 -200 1000 1000">
  <g transform="matrix(1 0 0 -1 0 800)">
   <path fill="currentColor"
d="M544 837l41 -32h203l30 30l53 -38q6 -4 -6 -13l-22 -9v-178l3 -70q1 -32 -40 -32v31h-209v-244q18 8 53 22q55 22 94 40l8 -13l-84 -51q-49 -28 -65 -41q-14 -11 -27 -34l-45 41q15 10 27 24v515q-2 19 -23 44zM93 953l48 -36h288l34 40l45 -48q7 -6 5 -10q-1 -4 -11 -6
l-18 -9v-99l4 -43q2 -22 -9 -31q-12 -9 -34 -12v35h-292v-72q5 -193 -15 -355q-23 -166 -110 -275l-9 10q64 120 80 273q14 154 11 374v205q-5 23 -26 49zM412 691l50 -35q8 -8 8 -12t-8 -7q-20 14 -98 -21q-15 -6 -27 -10v-136l47 7l22 32l66 -29q12 -5 11 -8q-2 -4 -17 -5
l-129 -18v-131l93 14l20 38l66 -34q12 -6 10 -9q-3 -4 -20 -5l-169 -23v-100q0 -48 16 -64q17 -18 58 -22q39 -5 225 -6q196 2 233 7q51 9 56 48q6 39 12 150h14q3 -102 3 -130q0 -32 31 -45q-16 -28 -35 -40q-16 -9 -44 -17q-36 -6 -259 -8q-204 0 -266 10q-96 12 -87 115
v96l-78 -11q-28 -8 -34 -21l-42 31l154 20v131l-64 -9q-22 -7 -30 -20l-34 31l128 19v128q-69 -21 -123 -25l-4 14q62 18 109 35q23 10 60 24q12 5 17 7q32 13 39 19t13 23zM445 897h-292v-143h292v143zM597 660v-118h209v118h-209zM597 789v-115h209v115h-209zM625 458
l9 13q88 -34 142 -73l62 64q34 34 42 50q3 11 -3 20l7 6l60 -52q7 -5 7 -8q0 -4 -7 -5q-29 7 -65 -20q-8 -6 -30 -25q-34 -28 -52 -42l2 -1q57 -42 77 -70q50 -69 7 -89q-17 -4 -38 40q-39 86 -220 192zM606 950l5 11q94 -37 111 -70q21 -45 -11 -52q-15 -1 -22 20
q-7 23 -25 41q-16 20 -58 50z" />
  </g>

</svg>
