<?xml version="1.0" standalone="no"?>
<!DOCTYPE svg PUBLIC "-//W3C//DTD SVG 1.1//EN" "http://www.w3.org/Graphics/SVG/1.1/DTD/svg11.dtd" >
<svg xmlns="http://www.w3.org/2000/svg" xmlns:xlink="http://www.w3.org/1999/xlink" version="1.1" viewBox="0 -205 1024 1024">
  <g transform="matrix(1 0 0 -1 0 819)">
   <path fill="currentColor"
d="M574 966l6 12q52 -17 86 -40q33 -21 42 -42t0 -38q-9 -18 -30 -18q-22 0 -28 28q-7 28 -26 50q-18 21 -50 48v0v0zM438 860h22v-46h450l26 34q65 -52 68 -58t-2 -8q-3 -3 -24 -6q-19 -4 -40 -22q-19 -18 -50 -56l-16 8l42 84h-450q1 -31 -10 -58q-11 -25 -28 -34
q-15 -7 -30 -4q-15 4 -18 20q-1 14 20 34q21 17 30 44q8 23 10 68v0v0zM666 598q9 -5 6 -10q-2 -3 -10 -6q-9 0 -24 -6t-134 -116l316 14q-38 56 -88 100l8 12q69 -39 106 -72q35 -30 50 -56q12 -26 6 -46q-7 -20 -26 -22q-19 0 -26 18q-6 18 -18 46q-270 -24 -308 -32
q-39 -9 -66 -26l-40 70q33 3 64 16q35 24 122 150l62 -34v0v0zM410 292h226v126l78 -26q16 -5 2 -16l-30 -16v-68h144l36 42l58 -48q3 -4 4 -8q0 -12 -12 -12h-230v-171h220l40 46l60 -54q3 -2 4 -10t-10 -8h-606q-21 1 -42 -8l-16 34h300v171h-166q-21 0 -44 -8l-16 34v0v0
zM414 664h404l34 34l54 -42q3 -4 4 -10q1 -7 -16 -8h-392q-21 0 -68 -8l-20 34v0v0zM106 866l56 -40h110l32 40l54 -38q12 -6 12 -14q-1 -3 -34 -30v-414l4 -100q0 -12 -14 -24q-16 -13 -40 -16v88h-130v-108q0 -12 -20 -24q-19 -12 -34 -12l4 150v542v0v0zM156 348h130v448
h-130v-448v0v0z" />
  </g>

</svg>
