<?xml version="1.0" standalone="no"?>
<!DOCTYPE svg PUBLIC "-//W3C//DTD SVG 1.1//EN" "http://www.w3.org/Graphics/SVG/1.1/DTD/svg11.dtd" >
<svg xmlns="http://www.w3.org/2000/svg" xmlns:xlink="http://www.w3.org/1999/xlink" version="1.1" viewBox="0 -205 1024 1024">
  <g transform="matrix(1 0 0 -1 0 819)">
   <path fill="currentColor"
d="M400 930h378l30 34l50 -38q8 -6 8 -12t-26 -26v-140l4 -80q1 -13 -22 -26q-21 -13 -36 -10v48h-308q-25 0 -52 -8l-20 34h380v86h-270q-24 0 -50 -8l-22 34h342v86h-326q-21 0 -38 -6l-22 32v0v0zM404 610h466l36 32q53 -53 56 -58q3 -3 -2 -8q-4 -4 -16 -4
q-10 -1 -28 -10q-19 -6 -58 -54l-16 10l30 66h-220v-118h130l30 34l54 -38q7 -6 8 -12q0 -6 -32 -24v-136q3 -37 -12 -58q-14 -20 -52 -34q-11 30 -34 42q-22 10 -56 20l4 16q47 -3 64 -6q14 -1 26 2q9 2 10 26v140h-140v-196l2 -78q0 -12 -18 -23q-18 -10 -42 -14l4 107
v204h-128v-128l4 -70q0 -12 -18 -24q-15 -12 -42 -14l4 108v176l58 -20h122v118h-192q-8 -55 -28 -80q-21 -24 -44 -24q-22 -2 -28 18q-6 18 18 36q24 16 36 38q12 21 22 84h22v-46v0v0zM102 954q71 -36 104 -60q32 -21 46 -42t14 -42q-1 -22 -14 -34q-13 -13 -32 -10
q-17 2 -22 34q-4 30 -28 60q-21 30 -78 82l10 12v0v0zM38 572h148l34 42l54 -42q12 -7 12 -14q0 -3 -36 -32v-298q41 -54 92 -81q50 -27 116 -36l94 -2h278q71 4 164 16v-24q-33 -6 -56 -12q-24 -5 -36 -32h-336q-90 1 -138 14q-49 10 -94 40t-72 63q-27 32 -42 32
q-13 1 -46 -40t-78 -117l-62 42q57 56 166 141v312h-84q-28 1 -52 -10l-26 38v0v0z" />
  </g>

</svg>
