<?xml version="1.0" standalone="no"?>
<!DOCTYPE svg PUBLIC "-//W3C//DTD SVG 1.1//EN" "http://www.w3.org/Graphics/SVG/1.1/DTD/svg11.dtd" >
<svg xmlns="http://www.w3.org/2000/svg" xmlns:xlink="http://www.w3.org/1999/xlink" version="1.1" viewBox="0 -205 1024 1024">
  <g transform="matrix(1 0 0 -1 0 819)">
   <path fill="currentColor"
d="M384 962l52 -38h426l30 34l52 -42q15 -10 -2 -22l-18 -12v-86l4 -60q0 -12 -14 -20q-12 -6 -38 -8v36h-442v-14q-4 -9 -22 -14q-18 -6 -32 -6l4 76v176v0v0zM432 768h120v132h-120v-132v0v0zM600 768h112v132h-112v-132v0v0zM760 768h116v132h-116v-132v0v0zM742 700
q14 -9 2 -20q-20 -3 -34 -20q-12 -15 -36 -62h222l34 38l50 -48q3 0 4 -6q0 -10 -8 -10h-142v-120h52l28 36l48 -46q3 -4 4 -8q-1 -9 -10 -8h-122v-114h52l34 40l48 -50q3 -4 4 -8q-1 -9 -10 -8h-128v-128h62l32 42l50 -50q3 -5 4 -10q-1 -7 -10 -7h-298v-52q3 -21 -14 -30
q-18 -13 -36 -14l4 141v340q-21 -37 -62 -82l-12 10q41 73 76 152q36 77 54 134l58 -32v0v0zM674 158h112v128h-112v-128v0v0zM674 312h112v114h-112v-114v0v0zM786 452v120h-112v-120h112v0v0zM764 724l8 10q59 -33 74 -54q14 -21 14 -36q0 -12 -8 -24q-10 -10 -26 -8
q-15 2 -18 20q-1 15 -8 36q-6 19 -36 56v0v0zM316 556l34 16q57 75 102 160l56 -30q9 -10 -2 -14q-18 -3 -42 -24q-22 -20 -94 -106l94 4q27 39 60 102l58 -38q5 -13 -10 -16q-12 0 -24 -8q-12 -9 -62 -80q-49 -70 -98 -130l136 12q-13 29 -38 64l10 10q50 -36 70 -60
q21 -21 24 -44q5 -21 -4 -36q-6 -14 -24 -12q-16 0 -20 16q-3 14 -8 44q-66 -12 -108 -24q-41 -13 -70 -28l-28 52q23 6 38 18q36 42 88 136q-48 -8 -66 -16q-16 -9 -34 -20l-38 52v0v0zM344 308h20q3 -78 0 -116q-4 -36 -16 -55q-12 -20 -30 -28q-18 -9 -32 0q-14 6 -12 24
q3 13 24 35q20 18 32 52q10 30 14 88v0v0zM494 322l14 6q51 -45 72 -74q20 -30 20 -50q1 -20 -10 -34q-12 -13 -30 -8q-18 6 -18 30t-8 52q-7 24 -40 78v0v0zM412 300l14 4q39 -55 52 -82q9 -26 10 -46t-10 -34q-10 -11 -28 -9q-19 3 -16 27q2 25 2 50q0 24 -24 90v0v0z
M98 882l56 -42h82l32 40l54 -40q12 -6 12 -14q-1 -5 -34 -28v-346l4 -90q4 -16 -16 -26q-18 -10 -36 -10v76h-104v-82q0 -15 -14 -24t-40 -12l4 124v474v0v0zM148 428h104v386h-104v-386v0v0z" />
  </g>

</svg>
