<?xml version="1.0" standalone="no"?>
<!DOCTYPE svg PUBLIC "-//W3C//DTD SVG 1.1//EN" "http://www.w3.org/Graphics/SVG/1.1/DTD/svg11.dtd" >
<svg xmlns="http://www.w3.org/2000/svg" xmlns:xlink="http://www.w3.org/1999/xlink" version="1.1" viewBox="0 -36 256 256">
  <g transform="matrix(1 0 0 -1 0 220)">
   <path fill="currentColor"
d="M178 225l-6 -19h45l12 11l16 -18h-54q10 -19 27 -33.5t30 -19.5v-3q-13 -2 -17 -11q-17 15 -29 33t-18 34h-14q-11 -27 -26 -43t-38 -27l-2 3q20 15 32 31.5t19 35.5h-9q-12 0 -21 -2l-9 9h41q5 16 6 35l22 -10zM186 150l12 10l16 -17h-45q-11 0 -19 -3l-6 10h42zM156 83
h53l8 10l14 -13l-8 -7q-7 -34 -10.5 -43t-9.5 -14t-18 -8q0 12 -26 21l1 4q25 -6 30 -6t9 8.5t10 40.5h-56l-6 -5l-11 10q8 2 16 29h-7q-10 0 -19 -2l-9 9h99l12 10l15 -17h-76zM58 214h34l8 10l14 -16l-8 -4q-13 -25 -31.5 -46t-54.5 -35l-2 5q24 12 43.5 32.5t29.5 46.5
h-37l-9 -9q11 -9 14 -14t2.5 -10.5t-5.5 -8t-6.5 7t-8.5 21.5q-10 -10 -23 -20l-3 4q16 16 27 31.5t18 35.5l18 -11q-8 -2 -20 -20zM15 75l-3 4q16 13 29 30t23 40l17 -11q-7 -2 -20 -20h33l7 9l16 -12l-8 -8q-10 -37 -32.5 -61t-66.5 -37l-1 4q35 15 56 37.5t30 60.5h-39
l-11 -12q17 -12 20 -18t1.5 -11t-6 -7.5t-7.5 9t-12 23.5q-15 -13 -26 -20z" />
  </g>

</svg>
