<?xml version="1.0" standalone="no"?>
<!DOCTYPE svg PUBLIC "-//W3C//DTD SVG 1.1//EN" "http://www.w3.org/Graphics/SVG/1.1/DTD/svg11.dtd" >
<svg xmlns="http://www.w3.org/2000/svg" xmlns:xlink="http://www.w3.org/1999/xlink" version="1.1" viewBox="0 -200 1000 1000">
  <g transform="matrix(1 0 0 -1 0 800)">
   <path fill="currentColor"
d="M440 435l82 -27h262l33 46l67 -37l-29 -36v-304q-2 -9 -9 -22.5t-18 -25.5t-25 -20.5t-31 -8.5h-6q-6 26 -31 51t-84 35v5q33 -5 57.5 -7t40.5 -2q21 0 33 3.5t20 11.5v97h-307v-178q-20 -19 -47 -19q-2 0 -4 0.5t-4 0.5v437zM495 294v-81h307v81h-307zM514 389l-19 -7
v-69h307v76h-288zM681 526v-96q-12 -9 -24.5 -15t-26.5 -6q-1 0 -3.5 0.5t-4.5 0.5v215l76 -33zM957 484q-4 -16 -6 -33t-15 -17q-9 0 -27.5 15.5t-44 36.5t-59 44.5t-71.5 38.5l-2 3q99 -24 152.5 -45.5t72.5 -42.5zM513 609l48 -66q-16 -8 -44 -27t-63 -40.5t-71 -43
t-67 -33.5l-42 -15q11 6 32.5 22.5t48 38t53 46t50 47.5t38.5 41.5t17 29.5zM113 603l-2 2q73 -15 109 -34t36 -50q0 -11 -8.5 -20.5t-17.5 -9.5q-5 0 -16 13.5t-27 32.5t-34.5 37t-39.5 29zM52 435l-7 7q63 -11 101.5 -33.5t38.5 -47.5q0 -21 -10 -30.5t-21 -9.5
q-12 0 -17 10.5t-13.5 29t-26 39.5t-52.5 42zM340 624l-29 -113q-27 -93 -57.5 -167t-57.5 -148q-3 -16 -10.5 -56.5t-7.5 -103.5v-24q-5 -9 -13 -11.5t-16 -2.5q-24 0 -27.5 13t-3.5 33q2 17 3 29t1 21q0 22 -13.5 43.5t-50.5 54.5q5 0 9 -0.5t8 -0.5q45 0 62 14q6 4 14 14
t19.5 29t26.5 48.5t37 73.5l98 253zM459 1000l68 -39l-20 -68v-41h228l44 46l72 -71h-344v-144h311l50 46l71 -68h-805l-59 -16l-28 38h412v317z" />
  </g>

</svg>
