<?xml version="1.0" standalone="no"?>
<!DOCTYPE svg PUBLIC "-//W3C//DTD SVG 1.1//EN" "http://www.w3.org/Graphics/SVG/1.1/DTD/svg11.dtd" >
<svg xmlns="http://www.w3.org/2000/svg" xmlns:xlink="http://www.w3.org/1999/xlink" version="1.1" viewBox="0 -205 1024 1024">
  <g transform="matrix(1 0 0 -1 0 819)">
   <path fill="currentColor"
d="M138 990l54 -40h184l34 38l52 -36q12 -6 12 -14q0 -4 -32 -26v-106l4 -36q1 -13 -16 -22q-15 -9 -36 -12v40h-208v-20q0 -13 -18 -22q-19 -10 -34 -10l4 86v180v0v0zM186 802h208v122h-208v-122v0v0zM880 728l56 -38q12 -15 -6 -18h-368v-80h218l32 32l44 -34
q9 -6 10 -12q0 -6 -24 -20v-62l4 -38q0 -16 -20 -28q-22 -13 -34 -10v40h-230v-88h276l36 38l58 -48q2 -3 2 -8q0 -9 -6 -8h-696l-22 -28l-62 48l30 26v338l60 -32h606l36 30v0v0zM510 372v88h-280v-88h280v0v0zM230 486h562v80h-562v-80v0v0zM230 592h280v80h-280v-80v0v0z
M602 990l54 -40h180l34 38l52 -36q12 -6 12 -14q0 -4 -32 -26v-106l4 -36q1 -13 -16 -22q-15 -9 -36 -12v40h-204v-20q0 -13 -18 -22q-19 -10 -34 -10l4 86v180v0v0zM650 802h204v122h-204v-122v0v0zM138 314l54 -40h184l34 38l52 -36q12 -6 12 -14q0 -4 -32 -26v-125l4 -36
q1 -12 -16 -22q-15 -9 -36 -12v40h-208v-20q0 -11 -18 -22q-19 -10 -34 -8l4 84v199v0v0zM186 107h208v141h-208v-141v0v0zM602 314l54 -40h188l34 38l52 -36q12 -6 12 -14q0 -4 -32 -26v-125l4 -36q1 -12 -16 -22q-15 -9 -36 -12v40h-212v-20q0 -11 -18 -22q-19 -10 -34 -8
l4 84v199v0v0zM650 107h212v141h-212v-141v0v0z" />
  </g>

</svg>
