<?xml version="1.0" standalone="no"?>
<!DOCTYPE svg PUBLIC "-//W3C//DTD SVG 1.1//EN" "http://www.w3.org/Graphics/SVG/1.1/DTD/svg11.dtd" >
<svg xmlns="http://www.w3.org/2000/svg" xmlns:xlink="http://www.w3.org/1999/xlink" version="1.1" viewBox="0 -205 1024 1024">
  <g transform="matrix(1 0 0 -1 0 819)">
   <path fill="currentColor"
d="M714 984l84 -28q6 -3 6 -6q0 -5 -6 -10l-34 -14v-274h138l30 36l50 -42q7 -3 8 -8q0 -6 -30 -24v-503q0 -27 -12 -46q-13 -18 -58 -30q-3 27 -24 42q-22 15 -82 30l4 20q74 -17 88 -20q12 0 24 2q13 4 12 28v487h-148v-436l4 -91q0 -18 -20 -34q-21 -12 -38 -16l4 143
v434h-144v-446l4 -95q0 -15 -20 -30q-21 -18 -38 -16l4 141v510l56 -36h138v332v0v0zM580 274q36 132 54 258l66 -24q9 -5 0 -16q-16 -4 -22 -10q-7 -5 -20 -52q-13 -45 -62 -162l-16 6v0v0zM774 518l10 10q57 -57 82 -104q21 -45 22 -72q1 -25 -10 -38q-9 -13 -24 -10
q-15 2 -18 28q0 24 -12 72q-12 45 -50 114v0v0zM530 884l10 10q54 -42 90 -80q33 -36 36 -66q2 -29 -10 -40q-11 -12 -28 -8q-17 3 -22 36q-3 30 -18 60q-13 30 -58 88v0v0zM906 900q57 -36 64 -42q4 -5 2 -10q-3 -3 -18 -6q-16 -1 -34 -22t-108 -138l-14 10q69 114 108 208
v0v0zM144 494l44 -32h182l24 28l52 -32q6 -4 6 -8q-1 -6 -22 -26v-214l4 -103q1 -21 -12 -34q-13 -11 -40 -16v64h-190v-46q1 -21 -16 -30q-18 -8 -36 -8l4 129v328v0v0zM192 147h190v135h-190v-135v0v0zM192 308h190v128h-190v-128v0v0zM316 876v-128h92l36 36l48 -46
q3 -3 4 -8q0 -7 -12 -8h-168v-56q60 -19 96 -38t58 -40q21 -21 18 -44q-4 -21 -22 -26q-19 -4 -38 26q-18 30 -42 54q-23 21 -70 48v-60l4 -58q1 -15 -18 -30q-19 -12 -38 -12l4 102v90q-81 -108 -192 -192l-8 10q102 105 178 226h-108q-21 1 -48 -10l-26 36h204v120
q-100 -15 -176 -24l-2 16q120 26 202 50q82 21 140 46q45 -48 46 -54t-4 -6q-5 -2 -16 0q-9 2 -32 2q-21 -1 -110 -22v0v0z" />
  </g>

</svg>
