<?xml version="1.0" standalone="no"?>
<!DOCTYPE svg PUBLIC "-//W3C//DTD SVG 1.1//EN" "http://www.w3.org/Graphics/SVG/1.1/DTD/svg11.dtd" >
<svg xmlns="http://www.w3.org/2000/svg" xmlns:xlink="http://www.w3.org/1999/xlink" version="1.1" viewBox="0 -205 1024 1024">
  <g transform="matrix(1 0 0 -1 0 819)">
   <path fill="currentColor"
d="M110 694h132v-24h-132v24v0v0zM110 606h132v-24h-132v24v0v0zM350 694h122v-24h-122v24v0v0zM348 606h130v-24h-130v24v0v0zM86 914h344l34 42l56 -48q6 -3 6 -8q1 -12 -12 -12h-194v-80h160l28 32q58 -43 56 -50q0 -7 -6 -8q-4 1 -14 -4q-9 -4 -24 -16q-13 -12 -44 -54
l-14 8l24 66h-166v-122l4 -48q0 -13 -24 -26q-25 -14 -32 -12l4 82v126h-156q-4 -63 -28 -80q-25 -19 -40 -10q-15 8 -12 22t18 28q14 12 26 36q12 23 12 68h20l2 -38h158v80h-94q-27 0 -74 -8l-18 34v0v0zM410 330l52 -44q16 -15 -4 -18q-21 -4 -42 -16q-18 -12 -108 -102
q41 -21 56 -45q15 -21 10 -42q-5 -20 -22 -22q-17 0 -28 20q-11 21 -28 42q-18 20 -54 46q-36 24 -84 45l4 14q60 -16 126 -46q50 60 88 112h-214q-16 0 -52 -8l-24 34h294l30 30v0v0zM232 432l8 10q52 -22 74 -40q21 -17 24 -34q4 -18 -4 -30q-6 -13 -24 -14q-16 0 -22 28
q-6 27 -18 42q-12 14 -38 38v0v0zM16 316q74 53 140 116q66 62 108 134l60 -16q6 -5 4 -10q-4 -3 -14 -6q-8 0 -22 -18q90 -27 138 -48t72 -44q25 -24 20 -44q-3 -22 -24 -22q-18 -1 -36 22q-18 24 -68 60q-48 33 -114 64q-45 -54 -108 -104q-62 -51 -148 -96l-8 12v0v0z
M574 906l56 -38h36q23 55 40 116l62 -28q9 -8 0 -16q-27 -6 -38 -20l-36 -52h128l30 38l54 -42q6 -4 6 -8q0 -7 -32 -28v-158l4 -54q0 -16 -14 -26q-12 -10 -38 -14v38h-208v-80h280l30 38l54 -50q6 -15 -8 -14h-356v-74h274l32 32l54 -44q3 -8 -2 -16l-26 -12
q-3 -72 -6 -146q-2 -76 -10 -113q-6 -39 -32 -64q-24 -21 -60 -36q-9 36 -32 48q-22 10 -86 28l6 18q60 -12 90 -16q30 -3 48 6q17 7 22 33q5 24 10 90q3 62 4 164h-286q3 -18 -12 -30q-15 -9 -42 -12l4 114v428v0v0zM624 642h208v86h-208v-86v0v0zM624 758h208v82h-208v-82
v0v0zM566 310h18q5 -51 8 -90q1 -37 -10 -58q-12 -20 -30 -25q-16 -3 -28 2q-10 6 -8 21q0 15 16 28q15 12 22 34q6 18 12 88v0v0zM626 318l12 8q32 -43 44 -64q12 -20 12 -40q0 -18 -12 -32q-13 -13 -28 -8q-16 5 -10 32q3 24 -2 48q-4 23 -16 56v0v0zM782 358l12 8
q50 -38 68 -58q15 -21 16 -42q1 -20 -10 -34q-9 -13 -24 -8q-14 6 -16 30q-1 25 -10 50q-9 24 -36 54v0v0zM700 342l12 8q42 -39 58 -62q13 -21 14 -42q1 -18 -10 -32q-12 -13 -26 -8q-15 6 -14 36t-6 48q-8 18 -28 52v0v0z" />
  </g>

</svg>
