<?xml version="1.0" standalone="no"?>
<!DOCTYPE svg PUBLIC "-//W3C//DTD SVG 1.1//EN" "http://www.w3.org/Graphics/SVG/1.1/DTD/svg11.dtd" >
<svg xmlns="http://www.w3.org/2000/svg" xmlns:xlink="http://www.w3.org/1999/xlink" version="1.1" viewBox="0 -205 1048 1024">
  <g transform="matrix(1 0 0 -1 0 819)">
   <path fill="currentColor"
d="M968 269q10 -11 10 -18q0 -9 -32 -13q1 -138 -69 -165l-24 -7q-10 -2 -14 -2q-6 0 -6 5q0 1 1 4v6q0 17 -19 24l-75 22l4 12l100 -20q11 -2 21 -2q22 0 37 40q8 24 8 98h-440q0 -9 -2 -11t-21 -8q-12 -4 -16 -4t-5 3.5t-1 12.5q1 17 1 24v236l-4 35l48 -24h335l20 27
q11 15 14 15t16 -12l43 -40l-10 -11h-210v-59h127l23 26q11 13 12 13q4 0 18 -14l34 -34l-8 -13h-206v-59h125l21 25q10 13 12 13q4 0 17 -13l38 -35l-7 -12h-206v-59h213l18 25q7 11 11 11q5 0 15 -11zM864 704q22 -20 22 -29q0 -8 -29 -10v-44q0 -49 1 -46q-2 -7 -23 -14
q-14 -4 -18 -4t-5 5t0 19q1 0 1 5h-329q0 -29 1 -26q-3 -9 -22 -15q-12 -4 -17 -4t-7 6q-1 5 0 24q1 20 1 35v68l-4 58l52 -31h312l13 22q12 16 13 16q3 0 17 -17zM339 959q28 -18 28 -27q0 -8 -36 -13q-40 -113 -78 -181q25 -10 25 -20q0 -8 -25 -15v-565q0 -49 1 -46
q-2 -11 -27 -19q-10 -3 -14 -3q-5 0 -6 6q-1 4 0 23q1 24 1 42v516q-26 -50 -68 -105q-37 -49 -60 -69l-8 7q63 84 130 223q70 153 92 267zM951 873l-3 -16h-277v-71h147l22 28q15 17 17 17t15 -15l41 -36l-6 -16h-486v22h205v71h-257v21h257v45l-2 57l50 -12q28 -7 28 -17
t-31 -23v-50h191l20 28q10 14 11 14q4 0 18 -15zM813 607v72h-329v-72h329zM632 356v59h-162v-59h162zM632 275v59h-162v-59h162zM632 437v59h-162v-59h162zM395 231q-5 -77 -53 -135q-12 -17 -24 -17q-14 0 -15 30q-1 35 29 54q37 26 52 68h11zM528 113q-7 -21 -18 -21
t-13 21q-8 68 -44 107l10 6q67 -70 67 -93q0 -9 -2 -20zM686 120q-6 -23 -16 -23q-11 0 -15 17q-12 49 -62 105l6 7q57 -50 70 -64q18 -17 17 -42zM837 157q1 -23 -12 -23q-9 0 -15 17q-15 42 -60 78l5 6q51 -30 64 -41q17 -14 18 -37z" />
  </g>

</svg>
