<?xml version="1.0" standalone="no"?>
<!DOCTYPE svg PUBLIC "-//W3C//DTD SVG 1.1//EN" "http://www.w3.org/Graphics/SVG/1.1/DTD/svg11.dtd" >
<svg xmlns="http://www.w3.org/2000/svg" xmlns:xlink="http://www.w3.org/1999/xlink" version="1.1" viewBox="0 -205 1024 1024">
  <g transform="matrix(1 0 0 -1 0 819)">
   <path fill="currentColor"
d="M244 950l54 -38h426l34 42l68 -44q6 -6 6 -8q1 -9 -34 -30v-108l4 -70q0 -16 -20 -28q-19 -12 -38 -14v42h-198v-136h238l32 40l64 -44q6 -6 6 -8q0 -7 -32 -28v-102l4 -78q0 -12 -18 -24t-38 -12v28h-256v-172l296 18q-49 53 -118 98l8 14q95 -43 154 -86q60 -40 76 -71
q14 -30 8 -54q-7 -21 -28 -22q-19 0 -34 36q-16 36 -46 63q-210 -15 -656 -57q-78 -9 -110 -36l-44 78l442 17v174h-246v-32q-1 -13 -22 -26q-19 -12 -34 -12l4 112v224l50 -38h248v136h-198v-30q1 -12 -16 -24t-40 -12l4 110v212v0v0zM296 722h448v164h-448v-164v0v0z
M248 356h246v176h-246v-176v0v0zM546 532v-176h256v176h-256v0v0z" />
  </g>

</svg>
