<?xml version="1.0" standalone="no"?>
<!DOCTYPE svg PUBLIC "-//W3C//DTD SVG 1.1//EN" "http://www.w3.org/Graphics/SVG/1.1/DTD/svg11.dtd" >
<svg xmlns="http://www.w3.org/2000/svg" xmlns:xlink="http://www.w3.org/1999/xlink" version="1.1" viewBox="0 -200 1000 1000">
  <g transform="matrix(1 0 0 -1 0 800)">
   <path fill="currentColor"
d="M338 946l35 -39h108l31 35l43 -38q9 -6 9 -10q0 -5 -9 -8l-24 -13v-690q2 -61 -7 -85t-63 -36q-2 33 -33 41q-31 9 -70 22l4 15q87 -21 111 -20q21 1 21 49v292h-110q3 -246 -121 -420l-14 7q64 129 80 232q20 100 19 322v286q0 23 -22 46zM596 479l40 -39h198l34 34
l45 -42q7 -6 5 -10q-1 -5 -11 -7l-17 -9v-239l4 -81q-1 -28 -43 -30v60h-206v-34q3 -36 -46 -43q5 37 7 115v274q-2 18 -21 42zM784 965l76 -35q14 -5 6 -11q-16 -4 -27 -18v-129h31l27 35l55 -45q7 -5 6 -8q-1 -2 -12 -2h-107v-183h55l27 38l59 -48q8 -5 7 -8q-2 -2 -13 -2
h-362q-26 1 -44 -13l-33 33h118v183h-24q-26 1 -44 -13l-33 33h101v139q2 17 -24 41l8 11l75 -34q8 -4 9 -7t-5 -5q-2 -1 -5 -2q-20 -6 -19 -14v-129h108v139q-3 24 -24 43zM33 288l-13 10q104 180 130 414h-46q-26 0 -44 -13l-33 33h140v180q0 21 -26 48l6 9l81 -35
q9 -4 9 -7q0 -1 -13 -10q-17 -12 -20 -15v-170h30l27 33l49 -43q1 -1 2 -1q4 -3 4 -5q0 -3 -12 -4h-100v-98q105 -57 101 -119q-2 -34 -24 -39q-14 0 -17 32q-5 57 -60 105l2 -533q2 -35 -46 -45q0 6 1 24q6 83 6 162v373q-5 -18 -14 -50l-3 -9q-53 -151 -117 -227zM645 272
v-136h206v136h-206zM645 420v-132h206v132h-206zM385 887v-195h109v195h-109zM385 570v-31q1 -42 0 -60h109v195h-109v-104zM692 752v-183h108v183h-108z" />
  </g>

</svg>
