<?xml version="1.0" standalone="no"?>
<!DOCTYPE svg PUBLIC "-//W3C//DTD SVG 1.1//EN" "http://www.w3.org/Graphics/SVG/1.1/DTD/svg11.dtd" >
<svg xmlns="http://www.w3.org/2000/svg" xmlns:xlink="http://www.w3.org/1999/xlink" version="1.1" viewBox="0 -205 1024 1024">
  <g transform="matrix(1 0 0 -1 0 819)">
   <path fill="currentColor"
d="M904 902l60 -58q9 -6 10 -14q0 -4 -14 -10q-27 -6 -44 -38q-30 -59 -96 -196q60 -67 90 -112q27 -42 40 -78q12 -34 12 -64t-12 -60q-12 -27 -38 -50q-27 -23 -74 -46q-13 33 -38 48q-24 12 -78 28l6 18q63 -13 94 -14q30 -1 46 8q15 6 30 22q12 14 16 40q2 24 -10 64
q-12 38 -36 80t-78 114l94 250h-178v-664l4 -109q0 -10 -20 -24q-21 -14 -38 -14l4 135v748l56 -44h162l30 40v0v0zM42 808h214q34 78 56 172q83 -31 86 -38v-8q0 -3 -18 -6q-16 -4 -28 -28q-13 -24 -44 -92h192l34 48l58 -54l6 -8q1 -13 -10 -14h-290q-28 -55 -70 -122h228
l38 36l52 -46q6 -4 6 -10t-30 -24v-456q1 -34 -10 -65q-12 -27 -62 -40q-12 36 -42 50q-27 12 -72 24l4 17q34 -5 68 -11q34 -3 50 0q15 3 12 29v176h-232v-160l4 -81q1 -15 -22 -30q-21 -12 -36 -16l4 127v422q-54 -88 -138 -166l-12 12q78 102 130 190q51 87 78 144h-120
q-21 0 -68 -8l-16 36v0v0zM238 364h232v122h-232v-122v0v0zM238 512h232v120h-232v-120v0v0z" />
  </g>

</svg>
