<?xml version="1.0" standalone="no"?>
<!DOCTYPE svg PUBLIC "-//W3C//DTD SVG 1.1//EN" "http://www.w3.org/Graphics/SVG/1.1/DTD/svg11.dtd" >
<svg xmlns="http://www.w3.org/2000/svg" xmlns:xlink="http://www.w3.org/1999/xlink" version="1.1" viewBox="0 -36 256 256">
  <g transform="matrix(1 0 0 -1 0 220)">
   <path fill="currentColor"
d="M90 220l-21 -7v-50l20 4l9 11l16 -13l-45 -9v-48l29 7l8 12l17 -15l-54 -11v-59q0 -12 14 -12h135q9 0 11.5 10.5t2.5 19.5h5q0 -7 2 -17t9 -11q-5 -10 -12 -12t-16 -2h-144q-21 0 -21 17v64l-27 -6l-12 -4l-9 7l48 10v48l-24 -4l-11 -6l-8 9l43 8v49q-20 -4 -39 -7v5
q23 5 45 14.5t30 17.5l15 -17q-10 -1 -16 -3zM179 192q7 -9 -0.5 -17t-10.5 5.5t-15 26.5l3 2q16 -8 23 -17zM123 82.5q8 4.5 35.5 30.5t43.5 46h-52q-13 0 -22 -3l-10 10h87l10 8l14 -14l-9 -4q-46 -45 -76 -70q19 -11 48.5 -13t48.5 1v-3q-15 -5 -18 -15q-27 2 -46.5 5.5
t-36.5 20.5q-17 -13 -24 -24l-13 9q12 11 20 15.5zM185 220q-27 -5 -68 -9l1 5q30 4 58 12t40 16l14 -16q-18 -3 -45 -8z" />
  </g>

</svg>
