<?xml version="1.0" standalone="no"?>
<!DOCTYPE svg PUBLIC "-//W3C//DTD SVG 1.1//EN" "http://www.w3.org/Graphics/SVG/1.1/DTD/svg11.dtd" >
<svg xmlns="http://www.w3.org/2000/svg" xmlns:xlink="http://www.w3.org/1999/xlink" version="1.1" viewBox="0 -36 256 256">
  <g transform="matrix(1 0 0 -1 0 220)">
   <path fill="currentColor"
d="M209 227l12 12l17 -19h-78q-12 0 -20 -3l-9 10h78zM232 43q2 11 2 31h5q0 -6 1 -21.5t9 -18.5q-7 -15 -22 -14h-15q-19 -1 -18 22v112h-26q0 -56 -13 -90t-47 -57l-3 3q33 32 41.5 66.5t8.5 77.5h-6q-10 0 -19 -2l-10 9h101l11 14l16 -21h-41v-111q0 -11 10 -11h5
q8 0 10 11zM19 64l-10 18q18 2 52 9v29h-16q-10 0 -19 -3l-10 10h45v28h-27v-8l-14 -4q1 27 1 56.5t-1 44.5l15 -9h66l8 10l15 -15l-8 -6q0 -49 1 -73l-14 -6v10h-30v-28h25l11 12l15 -19h-51v-27l50 8v-5q-91 -22 -104 -32zM55.5 194q2.5 -7 -4 -13.5t-7 6.5t-5.5 25l2 2
q12 -13 14.5 -20zM73 184q13 20 16 33l12 -11q-6 -5 -28 -28v-16h30v66h-30v-44zM34 162h27v66h-27v-66zM26.5 21q-7.5 -5 -13 -3t2 11t13.5 31h4q1 -34 -6.5 -39zM68 42q4 -9 -3 -16.5t-9 8.5t-8 30l2 2q14 -15 18 -24zM99.5 49q4.5 -10 -3.5 -17t-9 7t-9 32l3 1
q14 -13 18.5 -23zM131 60.5q5 -8.5 -2 -17t-10 6t-15 31.5l3 2q19 -14 24 -22.5z" />
  </g>

</svg>
