<?xml version="1.0" standalone="no"?>
<!DOCTYPE svg PUBLIC "-//W3C//DTD SVG 1.1//EN" "http://www.w3.org/Graphics/SVG/1.1/DTD/svg11.dtd" >
<svg xmlns="http://www.w3.org/2000/svg" xmlns:xlink="http://www.w3.org/1999/xlink" version="1.1" viewBox="0 -144 1024 1024">
  <g transform="matrix(1 0 0 -1 0 880)">
   <path fill="currentColor"
d="M879 630l4 6l2 -1l26 22l59 -48l-27 -16l-17 -7v-2l-48 -55l-58 -58l-22 -19l-37 -29l49 -8l46 -20l37 -24l28 -27l20 -28l12 -30l6 -28v-27l-4 -24l-9 -21l-6 4l-8 5l-7 5l-3 1l-5 4l-25 16l4 7l4 11l2 16l-1 18l-6 21l-11 22l-20 24l-28 24l-38 24l-48 27l-1 -1l-7 7
l83 117l27 41l17 30h-204v-543l-65 -32v628l65 -32h214zM42 222l-3 17v1l-1 2l201 35l4 42l1 46v38h-172v21h172v100l-50 -5l-50 -4l-51 -3l-53 -1l-1 10l52 12l153 33v95l64 -11l17 -11l-17 -9v-48l86 23l62 19v1v-1l5 2l2 -7l52 -44l2 -17l-23 10l-15 -4l-72 -15l-38 -7
l-41 -6l-20 -3v-109h76l53 54l65 -54v-21h-194v-38l-4 -51l-5 -27l113 19l54 8l56 8l3 -10l-55 -18l-153 -45l-30 -8l-6 -19l-19 -41l-24 -36l-28 -31l-34 -27l-37 -21l-42 -17l-46 -11l-2 9l40 21l35 22l30 25l26 27l21 30l17 32l7 20l-153 -39l-7 -19l-14 13l-1 7l-1 3v1
v1v1l-1 1v2v2v1l-1 3v1l-1 2v1l-4 16v1zM892 221l54 -35l-8 -11l-9 -10l-9 -9l-10 -8l-11 -6l-12 -6l-12 -5l-13 -2l-13 -3h-13v32l-65 16v16h65l7 1l14 2l6 2l5 3l5 3l5 4l5 4zM38 242l13 -63l-24 61zM198 995l65 -33h472l33 27l59 -48l-27 -22v-214l-65 -32v32h-472
l-65 -32v322zM735 826h-472v-99h472v99zM735 941h-472v-93h472v93z" />
  </g>

</svg>
