<?xml version="1.0" standalone="no"?>
<!DOCTYPE svg PUBLIC "-//W3C//DTD SVG 1.1//EN" "http://www.w3.org/Graphics/SVG/1.1/DTD/svg11.dtd" >
<svg xmlns="http://www.w3.org/2000/svg" xmlns:xlink="http://www.w3.org/1999/xlink" version="1.1" viewBox="0 -36 256 256">
  <g transform="matrix(1 0 0 -1 0 220)">
   <path fill="currentColor"
d="M102 128q-4 -13 -17 -13.5t-4 11.5t12 23.5t5 21.5h4q4 -30 0 -43zM124 187.5q0 12.5 -1 25.5l22 -11l-7 -8v-90q41 56 56 116l20 -15l-9 -6q-28 -71 -67 -113q0 -16 13 -17h44q9 0 10 7t2 27h5q-1 -15 2.5 -23.5t10.5 -10.5q-7 -11 -24 -12h-57q-16 1 -19 13v5
q-18 -15 -45 -26l-3 3q27 16 47 39v96.5zM165.5 222q5.5 -8 -1 -19.5t-9 0.5t-24.5 40l2 3q27 -16 32.5 -24zM234 132.5q3 -9.5 -2 -19t-10 6.5t-23 41l3 4q29 -23 32 -32.5zM35 239q26 -17 30 -26t-3.5 -20t-10.5 5.5t-18 36.5zM48 153l8 10l15 -13l-8 -7v-83
q15 -16 32 -22.5t62.5 -7.5t90.5 5v-5q-18 -4 -19 -16q-81 0 -107 4.5t-39.5 14t-20.5 17t-18.5 -4t-19.5 -24.5l-15 13q13 11 40 26v86h-10q-10 -1 -20 -3l-10 10h39z" />
  </g>

</svg>
