<?xml version="1.0" standalone="no"?>
<!DOCTYPE svg PUBLIC "-//W3C//DTD SVG 1.1//EN" "http://www.w3.org/Graphics/SVG/1.1/DTD/svg11.dtd" >
<svg xmlns="http://www.w3.org/2000/svg" xmlns:xlink="http://www.w3.org/1999/xlink" version="1.1" viewBox="0 -52 256 256">
  <g transform="matrix(1 0 0 -1 0 204)">
   <path fill="currentColor"
d="M49 162l7 -4v1q1 2 1 3q8 14 15 32h-47q-6 0 -9 -3l-6 8h60l7 10l14 -12q3 -3 0 -4q-5 0 -7 -2q-1 -1 -7 -13q-2 -5 -9 -16q-3 -5 -4 -8t-3 -5v-7q14 -4 18 -9q13 -9 10 -19q-1 -6 -5 -7q-3 0 -5 5q-1 7 -6 13q-3 6 -12 11v-89l1 -23q1 -8 -13 -11v9q1 20 1 36v75
q-3 -3 -6 -8q-12 -14 -34 -32l-2 2q17 18 29 35q7 10 13 19q-1 6 -4 11zM29 248l1 3q20 -6 26 -11q5 -4 8 -9q5 -11 -3 -16q-5 -1 -5 5q-1 3 -5 10q-1 2 -2 3q-4 6 -20 15zM136 98l1 3q14 -9 21 -19q8 -9 9 -21q0 -10 -4 -12q-6 -1 -6 8q-1 6 -3 14q-16 -12 -28 -19
q-10 -6 -13 -9q-4 -2 -7 -7l-13 12q5 3 8 6v149q0 5 -6 11l2 2l12 -8h39l8 9l10 -11q2 -1 2 -2t-3 -2l-4 -2v-55v-20q0 -4 -3 -6t-7 -2v9h-39v-71q17 8 40 20q-4 10 -16 23zM178 224l8 -8h34l8 9l12 -11q3 -3 0 -4q-4 0 -6 -4l-6 -15q-2 -6 -7 -18q-7 -17 -11 -26q2 -2 6 -7
q31 -33 27 -57q-3 -26 -33 -31q-1 7 -18 13v4q12 -4 19 -3q20 1 21 26q-3 19 -26 50q-2 3 -3 4q11 32 19 65h-32v-168l1 -23q0 -5 -4 -8q-3 -2 -10 -3q2 9 2 46v157q-1 3 -4 7q-1 1 -1 2zM112 166v-35h39v35h-39zM151 203h-39v-33h39v33zM104 246l1 2q16 -4 25 -12
q9 -7 9 -15q0 -7 -5 -8q-6 0 -6 6q-1 6 -7 13q-5 7 -17 14z" />
  </g>

</svg>
