<?xml version="1.0" standalone="no"?>
<!DOCTYPE svg PUBLIC "-//W3C//DTD SVG 1.1//EN" "http://www.w3.org/Graphics/SVG/1.1/DTD/svg11.dtd" >
<svg xmlns="http://www.w3.org/2000/svg" xmlns:xlink="http://www.w3.org/1999/xlink" version="1.1" viewBox="0 -200 999 1000">
  <g transform="matrix(1 0 0 -1 0 800)">
   <path fill="currentColor"
d="M278 778v120q-23 -3 -48.5 -6.5t-49.5 -6t-44 -4.5t-33 -2l-4 14q42 9 93 20.5t100.5 25t91.5 29.5t67 34l45 -66l-44 -7q-11 -2 -28 -4t-35 -4.5t-35 -5t-27 -5.5l18 -22l-18 -49v-61h122l47 48l65 -70h-234v-112h95l40 40l54 -58l-37 -35v-267q-11 -12 -23 -18t-26 -11
v47h-103v-124h91l44 44l65 -68h-200v-126h121l45 42l65 -68h-413l-71 -13l-24 34h228v131h-124l-61 -9l-18 33h203v124h-99v-33q-19 -22 -51 -28v406l60 -43h90v112h-142l-62 -15l-20 37h224zM327 619v-116h103v116h-103zM327 480v-114h103v114h-103zM188 619l-9 -28v-88h99
v116h-90zM179 480v-114h99v114h-99zM699 667v-659q20 0 52 35v516l20 73zM551 548q20 24 48.5 79t61.5 140h163q5 -5 5 -12q0 -8 -4 -18.5t-10 -21.5t-12.5 -22.5t-10.5 -21.5v-1q1 0 1.5 0.5t1.5 0.5t9 -8q27 42 52 58t44.5 20.5t32 5.5t14.5 15v2q0 14 -25 34.5t-70 40.5
l-32 -48h-152l47 129l25 32l-80 48h2q-6 -53 -17 -110.5t-27 -115.5t-36 -114.5t-44 -107.5z" />
  </g>

</svg>
