<?xml version="1.0" standalone="no"?>
<!DOCTYPE svg PUBLIC "-//W3C//DTD SVG 1.1//EN" "http://www.w3.org/Graphics/SVG/1.1/DTD/svg11.dtd" >
<svg xmlns="http://www.w3.org/2000/svg" xmlns:xlink="http://www.w3.org/1999/xlink" version="1.1" viewBox="0 -205 1024 1024">
  <g transform="matrix(1 0 0 -1 0 819)">
   <path fill="currentColor"
d="M500 129l50 11q26 74 58 182q30 105 52 196q20 90 32 154q81 -35 84 -40q3 -3 0 -8q-3 -3 -14 -8q-12 -4 -20 -16q-6 -12 -30 -90q-23 -77 -64 -190q-40 -115 -70 -191q198 25 300 35q-16 48 -34 82q-18 33 -60 102l14 10q72 -75 108 -126t46 -84q10 -28 8 -53
q-4 -23 -16 -38q-12 -12 -30 -10q-18 3 -20 32q-1 29 -10 61q-234 -34 -270 -47q-35 -11 -76 -34l-38 70v0v0zM866 778l44 54l68 -66q3 -6 4 -6q-1 -7 -10 -8h-470v-162q3 -228 -38 -356q-39 -129 -150 -219l-10 12q81 91 114 209q33 117 30 330v250l64 -38h354v0v0z
M600 972l8 12q63 -36 90 -56q24 -18 36 -42q11 -22 2 -46t-32 -24q-24 0 -26 28q-3 27 -18 54q-15 28 -60 74v0v0zM294 922q10 -10 -4 -16q-21 0 -32 -12q-10 -10 -68 -94q-57 -85 -96 -140l150 -6q57 86 84 142l70 -46q0 -9 -8 -14q-20 -3 -34 -14q-15 -9 -78 -98
q-63 -88 -156 -190l210 16q-22 58 -58 104l12 10q61 -42 86 -72q23 -30 28 -56q3 -28 -6 -40q-9 -13 -24 -14q-12 -1 -20 8q-6 9 -6 16q0 5 -8 20q-102 -18 -158 -30q-54 -12 -92 -32l-38 74q25 0 56 18q42 50 132 178q-94 -7 -116 -16q-22 -6 -52 -24l-38 68l38 12t68 102
q48 96 88 186l70 -40v0v0zM184 332l16 6q47 -76 62 -106q12 -30 10 -56q-4 -28 -22 -34q-15 -5 -30 4q-16 10 -10 44q6 32 -2 64q-9 30 -24 78v0v0zM100 316h22q6 -84 4 -126q-3 -39 -18 -67q-14 -30 -34 -36q-18 -7 -32 0q-12 9 -12 26q1 16 20 33q18 15 24 34l16 40
q9 24 10 96v0v0zM288 356l12 8q53 -43 74 -70t22 -54q0 -28 -14 -40q-13 -12 -28 -6q-14 3 -16 36q0 32 -8 56q-6 21 -42 70v0v0z" />
  </g>

</svg>
