<?xml version="1.0" standalone="no"?>
<!DOCTYPE svg PUBLIC "-//W3C//DTD SVG 1.1//EN" "http://www.w3.org/Graphics/SVG/1.1/DTD/svg11.dtd" >
<svg xmlns="http://www.w3.org/2000/svg" xmlns:xlink="http://www.w3.org/1999/xlink" version="1.1" viewBox="0 -205 1024 1024">
  <g transform="matrix(1 0 0 -1 0 819)">
   <path fill="currentColor"
d="M376 854h250v126l72 -26q8 -3 8 -6l2 -8l-30 -20v-66h188l34 44l56 -50q2 -4 2 -10q0 -10 -12 -10h-266v-90h112l28 42l56 -36q9 -6 10 -14q1 -10 -28 -34v-412h42l32 44q62 -49 64 -56q2 -6 -4 -12l-4 -2h-582q-21 0 -56 -8l-16 34h116v492l60 -38h116v90h-166
q-21 0 -68 -8l-16 34v0v0zM502 284h304v96h-304v-96v0v0zM502 404h304v86h-304v-86v0v0zM502 514h304v86h-304v-86v0v0zM502 624h304v90h-304v-90v0v0zM510 131q-61 -40 -208 -116l-8 16q133 80 260 199q60 -43 60 -52q0 -7 -8 -8q-7 -1 -22 -2q-13 0 -74 -37v0v0zM718 224
q87 -36 144 -66q54 -28 76 -53q23 -20 20 -50q-3 -24 -26 -28q-21 -3 -32 20q-11 22 -46 58q-34 33 -142 105l6 14v0v0zM28 748h172v228l64 -30q22 -8 12 -22l-28 -14v-162h64l30 40l50 -48q3 -3 4 -8q0 -12 -14 -12h-134v-96q69 -37 96 -62q27 -23 34 -46q7 -22 0 -40
q-9 -19 -26 -20q-18 0 -24 24q-4 24 -22 54q-16 30 -58 66v-426l4 -107q0 -14 -18 -26t-38 -12l4 147v360q-30 -84 -74 -164q-44 -79 -94 -136l-10 10q38 63 68 126q27 62 58 152t50 196h-102q-6 0 -48 -8l-20 36v0v0z" />
  </g>

</svg>
