<?xml version="1.0" standalone="no"?>
<!DOCTYPE svg PUBLIC "-//W3C//DTD SVG 1.1//EN" "http://www.w3.org/Graphics/SVG/1.1/DTD/svg11.dtd" >
<svg xmlns="http://www.w3.org/2000/svg" xmlns:xlink="http://www.w3.org/1999/xlink" version="1.1" viewBox="0 -36 256 256">
  <g transform="matrix(1 0 0 -1 0 220)">
   <path fill="currentColor"
d="M191 29q7 0 14 6t10 37.5t3 89.5h-75h-91q-13 0 -22 -3l-10 10h196l10 11l16 -15l-8 -6q0 -59 -3.5 -91.5t-14.5 -45.5t-28 -15q0 13 -30 22v4q26 -4 33 -4zM197 226v-58h-16v59h-110v-60h-15v55q0 11 -1 20l16 -8h108l10 11l16 -13zM58 129q-3 -29 -9.5 -39.5
t-18.5 -8.5t1 12.5t23 36.5zM119 88q26 19 44 45l18 -14l-10 -2q-23 -18 -46 -31q42 -19 50.5 -27.5t5 -20t-14 3t-63.5 45.5q-7 -21 -26 -40t-64 -30l-1 4q32 13 48.5 27.5t24.5 34.5t8 76l25 -10l-8 -6q-2 -28 -6 -50q11 -4 15 -5z" />
  </g>

</svg>
