<?xml version="1.0" standalone="no"?>
<!DOCTYPE svg PUBLIC "-//W3C//DTD SVG 1.1//EN" "http://www.w3.org/Graphics/SVG/1.1/DTD/svg11.dtd" >
<svg xmlns="http://www.w3.org/2000/svg" xmlns:xlink="http://www.w3.org/1999/xlink" version="1.1" viewBox="0 -205 1048 1024">
  <g transform="matrix(1 0 0 -1 0 819)">
   <path fill="currentColor"
d="M622 322q51 39 94 82q45 45 80 92l32 -18q33 -20 25 -26q-7 -5 -33 -4q-28 -33 -65 -65q-33 -31 -71 -61h157l43 42l49 -39q13 -12 11 -17t-20 -5h-260q-50 -36 -99 -61q-52 -29 -103 -56v-17q91 16 159 32q97 23 156 49l36 -31q14 -13 8 -14q-6 -3 -44 0h-1
q-78 -19 -160 -32q-87 -14 -154 -19v-27q0 -11 7 -16q12 -7 50 -11q73 -2 164 0q124 4 172 13q18 8 33 33q17 30 27 90l12 -2l-2 -24l-4 -93q38 -11 28 -24q-8 -10 -55 -19q-70 -7 -195 -9q-133 -2 -224 5q-33 3 -46 16q-13 12 -13 41v42q-78 -33 -160 -56q-82 -24 -165 -38
l-4 10q80 19 164 47q83 30 165 66v59l-2 28l49 -8q31 -7 30 -13q0 -6 -31 -15v-29q39 23 69 42q37 20 68 41h-431l-76 -5l-15 28l74 -4h271v76h-167l-69 -4l-10 27l68 -3h178v60l-4 47l59 -15q38 -9 29 -19q-8 -7 -36 -14v-59h125l37 37l58 -39q10 -5 6 -14q-4 -4 -23 -4
h-203v-76h152zM544 519q-12 -5 -33 7q-10 7 -23 24q-5 10 -14 19l-293 -55l-2 -4q-6 -25 -11 -26q-7 -2 -27 30l-20 35l49 6l81 117h-106l-68 -5l-16 24l69 -2h57v220l-4 54l42 -21h216l37 36l42 -33q14 -9 8 -15q-4 -10 -19 -10h-278v-65h182l37 36l43 -33q13 -9 7 -19
q-5 -5 -19 -5h-250v-62h176l36 36l42 -32q12 -8 9 -16q-6 -8 -20 -8h-244v-63h252l43 41l52 -38q14 -8 9 -14t-20 -6h-258q17 -8 14 -12q-4 -6 -28 -6l-101 -98l270 28q-13 18 -29 37q-13 17 -26 29l12 7l9 -5q63 -47 83 -66q36 -31 35 -61q0 -3 -3 -6zM575 577
q103 30 196 71q112 50 176 102l44 -33q18 -17 13 -21q-7 -4 -39 5q-70 -43 -178 -80q-101 -35 -205 -56zM555 698q104 36 182 76q88 44 139 98l40 -33q20 -16 13 -22q-6 -6 -32 5q-62 -42 -149 -77q-82 -30 -187 -56zM528 807q78 32 148 75q79 46 140 107l44 -32
q18 -13 13 -20q-3 -10 -42 -1q-76 -50 -138 -77q-71 -34 -157 -63z" />
  </g>

</svg>
