<?xml version="1.0" standalone="no"?>
<!DOCTYPE svg PUBLIC "-//W3C//DTD SVG 1.1//EN" "http://www.w3.org/Graphics/SVG/1.1/DTD/svg11.dtd" >
<svg xmlns="http://www.w3.org/2000/svg" xmlns:xlink="http://www.w3.org/1999/xlink" version="1.1" viewBox="0 -200 999 1000">
  <g transform="matrix(1 0 0 -1 0 800)">
   <path fill="currentColor"
d="M683 495l39 45l63 -45l-44 -38l-34 -96h130l40 40l68 -44l-39 -36q-10 -71 -17 -122t-23.5 -84.5t-48 -50.5t-89.5 -20v7q0 11 -8.5 22t-23.5 21t-34.5 18t-41.5 13l1 6q7 -3 21 -6t30.5 -5.5t33.5 -4t31 -1.5q4 0 6.5 0.5t6.5 0.5q21 1 37 7.5t28 29t20 66.5t13 120
h-136l-34 -24l-51 40l33 23l31 96h-318l58 -45l-39 -40q-12 -60 -32 -119t-57.5 -110.5t-97.5 -93t-151 -65.5l-7 12q78 34 137.5 88t101.5 143q21 46 35 102.5t27 128.5h-117l-63 -11l-25 32h540zM147 964l71 -42h471l38 43l70 -41l-34 -42v-159q-5 -10 -18 -18.5
t-43 -10.5v43h-495v-84q0 -18 5 -27.5t14.5 -14t23.5 -5.5t32 -1h519q8 0 20 2.5t22.5 14.5t18 36.5t7.5 68.5h8q0 -41 3 -64t10 -35t17 -16t25 -6q11 -9 11 -16t-10 -11.5t-25 -7.5t-33 -5t-34 -4h-618q-22 3 -45 15.5t-31 37.5v349zM488 899v-139h214v139h-214zM207 878
v-118h220v139h-209z" />
  </g>

</svg>
