<?xml version="1.0" standalone="no"?>
<!DOCTYPE svg PUBLIC "-//W3C//DTD SVG 1.1//EN" "http://www.w3.org/Graphics/SVG/1.1/DTD/svg11.dtd" >
<svg xmlns="http://www.w3.org/2000/svg" xmlns:xlink="http://www.w3.org/1999/xlink" version="1.1" viewBox="0 -36 256 256">
  <g transform="matrix(1 0 0 -1 0 220)">
   <path fill="currentColor"
d="M40 241l15 -6h54l10 7l13 -14h-78v-9h51l8 6l13 -13h-72v-8h49l9 6l13 -13h-71v-9h65l10 6l13 -13h-75l10 -3q-8 -2 -16.5 -6.5t-17.5 -9.5l66 3q-8 6 -18 12l2 3q25 -7 30.5 -12t1.5 -11t-7.5 -1.5t-4.5 6.5q-22 -3 -46.5 -6t-33.5 -7l-10 15q9 1 19 6.5t14 10.5h-18
q-10 0 -20 -2l-8 9h31q0 39 -1 53zM226 233q-6 0 -30.5 -8.5t-58.5 -13.5v4q24 5 46.5 14.5t29.5 16.5zM235 206q-8 -1 -35 -9t-54 -11v4q25 5 47 14t30 15zM246 182q-13 -1 -39.5 -8.5t-69.5 -11.5v3q38 8 62 16t32 16zM96 109h17l8 7l13 -14h-38v-19h16l9 7l13 -14h-38
v-18h16l11 7l12 -14h-39v-17h21l11 7l12 -14h-86v-13l-15 -4q1 17 1 34v48q-21 -10 -31 -12l-1 4q11 5 29 16t32 23v18q0 9 -1 17l20 -7l-6 -5v-15q13 12 20 23l15 -13l-8 -3l-21 -15q17 -5 8 -14zM54 98v-15h29v19h-22q-6 -3 -7 -4zM83 76h-29v-18h29v18zM83 51h-29v-17h29
v17zM83 119q-7 -5 -15 -10h22q-2 6 -7 10zM142 138.5q3 -4.5 0.5 -8.5t-6 -5.5t-5.5 4t-6 10t-11 11.5l1 3q24 -10 27 -14.5zM61 137l-10 -5q-14 -9 -31 -20l-3 3q21 15 29 31zM244.5 29q-0.5 -10 2.5 -14t-8 -1.5t-26 11t-28 23.5q-26 -20 -56 -31l-2 3q14 7 26.5 16
t25.5 23q-9 22 -13 46l-20 -2l-4 -3l-9 9l32 3q-4 26 -6 47l21 -7l-6 -5q0 -5 4 -33l34 3l9 9l15 -14l-57 -5q2 -16 10 -38q14 15 23 37l19 -12l-9 -4q-16 -22 -27 -32q11 -16 38 -28q7 14 11 27l3 -1q-2 -17 -2.5 -27zM215.5 144.5q4.5 -4.5 3.5 -9.5t-4.5 -7.5t-9 6.5
t-19.5 20l1 3q24 -8 28.5 -12.5z" />
  </g>

</svg>
