<?xml version="1.0" standalone="no"?>
<!DOCTYPE svg PUBLIC "-//W3C//DTD SVG 1.1//EN" "http://www.w3.org/Graphics/SVG/1.1/DTD/svg11.dtd" >
<svg xmlns="http://www.w3.org/2000/svg" xmlns:xlink="http://www.w3.org/1999/xlink" version="1.1" viewBox="0 -205 1024 1024">
  <g transform="matrix(1 0 0 -1 0 819)">
   <path fill="currentColor"
d="M504 916l62 -54h226l36 42l52 -44q12 -9 12 -18q-1 -4 -34 -28v-719h44l38 47l56 -55q3 -4 4 -8q0 -9 -12 -10h-528q-21 1 -56 -8l-16 34h116v821v0v0zM554 95h254v247h-254v-247v0v0zM554 368h254v234h-254v-234v0v0zM554 628h254v208h-254v-208v0v0zM308 932
q6 -4 4 -10q-1 -6 -16 -12q-16 -3 -26 -44q-7 -39 -26 -138h90l32 42l52 -38q10 -9 8 -12q0 -7 -30 -26q-12 -139 -26 -226q-15 -86 -62 -190q42 -28 64 -50q21 -22 28 -46q7 -22 -4 -38q-9 -13 -24 -11q-12 1 -24 25q-11 24 -22 40q-12 15 -38 42q-31 -51 -80 -98
q-47 -44 -148 -109l-10 14q89 67 140 125q50 57 70 94q-45 35 -132 76q41 180 68 360h-70q-24 0 -38 -6l-18 32h130q21 117 36 238l72 -34v0v0zM272 296q38 81 56 186q15 105 24 220h-112q-30 -154 -74 -352q48 -24 106 -54v0v0z" />
  </g>

</svg>
