<?xml version="1.0" standalone="no"?>
<!DOCTYPE svg PUBLIC "-//W3C//DTD SVG 1.1//EN" "http://www.w3.org/Graphics/SVG/1.1/DTD/svg11.dtd" >
<svg xmlns="http://www.w3.org/2000/svg" xmlns:xlink="http://www.w3.org/1999/xlink" version="1.1" viewBox="0 -36 256 256">
  <g transform="matrix(1 0 0 -1 0 220)">
   <path fill="currentColor"
d="M93 61q0 -14 1 -28l-15 -8v11h-37v-9l-16 -4q2 16 2 75.5t-1 79.5l15 -7h38l8 10l15 -16l-10 -8v-96zM42 128h37v36h-37v-36zM42 87h37v34h-37v-34zM42 43h37v37h-37v-37zM163 141q49 -13 59.5 -19.5t7 -15.5t-16.5 3.5t-52 27.5zM138 122.5q13 11.5 15.5 29t1.5 36.5
l24 -8l-9 -6q0 -12 -2 -25q38 20 43 28l18 -17h-12q-22 -9 -50 -17q-6 -17 -23 -28.5t-47 -16.5v4q28 9 41 20.5zM120 58.5q-8 -6.5 -15.5 -2t5.5 13t16 23.5l4 -1q-2 -27 -10 -33.5zM124 34.5q18 14.5 23.5 36.5t3.5 43l24 -8l-8 -6v-10q0 -6 8 -23q28 22 35 36l18 -17h-11
q-15 -12 -40 -25q13 -16 31 -25t39 -12v-4q-16 0 -19 -12q-20 7 -39.5 23.5t-24.5 46.5q-9 -36 -32 -50.5t-50 -19.5l-1 5q25 7 43 21.5zM129 144.5q-3 -8.5 -10 -10t-10.5 3.5t3 9t9.5 8t8 23l3 -1q0 -24 -3 -32.5zM155 189v21h-56v-20l-13 -5v25h-42q-12 1 -21 -2l-8 9h71
v14q0 8 -1 16l22 -7l-8 -7v-16h56v14q0 7 -1 15l24 -8l-9 -6v-15h37l14 12l18 -19h-69v-16z" />
  </g>

</svg>
