<?xml version="1.0" standalone="no"?>
<!DOCTYPE svg PUBLIC "-//W3C//DTD SVG 1.1//EN" "http://www.w3.org/Graphics/SVG/1.1/DTD/svg11.dtd" >
<svg xmlns="http://www.w3.org/2000/svg" xmlns:xlink="http://www.w3.org/1999/xlink" version="1.1" viewBox="0 -36 256 256">
  <g transform="matrix(1 0 0 -1 0 220)">
   <path fill="currentColor"
d="M71.5 31.5q8.5 -0.5 8.5 12.5v63h-39q-1 -27 -6.5 -50.5t-23.5 -46.5l-4 1q13 26 17.5 55t4 92.5t-2.5 76.5l15 -8h38l7 10l14 -12l-7 -6v-176q0 -16 -5 -22.5t-17 -11.5q0 14 -27 22v4q19 -3 27.5 -3.5zM41 170h39v50h-39v-50zM41 114h39v49h-39v-49zM131 70h78v31h-78
v-31zM131 30h78v33h-78v-33zM118 65q0 31 -1 51l14 -8h77l8 10l15 -14l-8 -6v-51q0 -14 1 -32l-15 -6v14h-78v-9l-14 -6q1 26 1 57zM127 244l21 -9l-8 -8v-20h6l8 9l11 -16h-25q-1 -10 -2 -27h5l9 9l12 -16h-27l-1 -4q14 -6 21.5 -12t3.5 -17t-9 0.5t-18 23.5
q-1 -9 -9.5 -22t-27.5 -26l-2 3q26 27 30 54h-5q-10 0 -18 -2l-6 9h30q1 13 2 27h-1q-10 0 -19 -2l-7 9h27q0 20 -1 37zM189 207q0 21 -1 37l20 -8l-7 -7v-22h16l10 11l13 -18h-39q-1 -13 -3 -27h23l10 10l14 -17h-41q4 -10 16.5 -24t27.5 -18v-3q-10 -2 -16 -9
q-11 9 -20 22.5t-13 31.5h-2q-3 -13 -13 -28t-32 -27l-2 3q14 12 22.5 24t12.5 28q-5 0 -14 -3l-7 10h22q2 14 3 27q-7 0 -15 -4l-8 11h23z" />
  </g>

</svg>
