<?xml version="1.0" standalone="no"?>
<!DOCTYPE svg PUBLIC "-//W3C//DTD SVG 1.1//EN" "http://www.w3.org/Graphics/SVG/1.1/DTD/svg11.dtd" >
<svg xmlns="http://www.w3.org/2000/svg" xmlns:xlink="http://www.w3.org/1999/xlink" version="1.1" viewBox="0 -205 1024 1024">
  <g transform="matrix(1 0 0 -1 0 819)">
   <path fill="currentColor"
d="M464 554h288l38 44l56 -52q3 -3 4 -8q0 -10 -14 -10h-154v-192h86l36 48l58 -54q3 -3 4 -8q0 -12 -14 -12h-170v-229h162l38 50l60 -56q3 -2 4 -8q0 -12 -14 -12h-476q-20 1 -70 -8l-14 34h258v229h-106q-9 0 -38 -8l-20 34h164v192h-94q-21 0 -54 -8l-18 34v0v0z
M704 912q9 -3 10 -6q7 -9 -28 -20q37 -72 74 -122q37 -51 98 -102q59 -51 130 -66v-16q-36 -3 -54 -8q-16 -4 -38 -26q-49 38 -88 86q-39 47 -72 100q-33 50 -68 140q-39 -78 -114 -180q-73 -99 -172 -186l-10 14q87 99 154 208q67 108 116 222l62 -38v0v0zM156 630h170
l36 44l56 -54q7 -15 -4 -18h-132v-148h82l34 44l54 -52q12 -12 -2 -20h-168v-272l176 32l6 -18q-130 -32 -194 -49q-63 -18 -114 -36q-51 -16 -74 -38l-42 66l192 35v280h-94q-18 0 -54 -8l-18 36h166v148h-34l-20 -6l-22 34v0v0zM66 556q51 78 100 168q48 91 106 230
l68 -34q3 -9 -2 -12q-4 -4 -14 -8q-10 -3 -26 -24q66 -36 102 -62q32 -27 44 -48q9 -22 -2 -40q-10 -16 -26 -14q-15 3 -26 28q-10 23 -32 50q-20 24 -70 72q-40 -82 -88 -160t-122 -156l-12 10v0v0zM112 360l12 8q43 -46 62 -74q17 -27 20 -50q1 -21 -12 -36
q-15 -13 -30 -8q-15 2 -14 26q1 20 -6 50q-6 30 -32 84v0v0zM294 210q44 87 86 168l54 -38q4 -10 -4 -14q-6 -3 -18 -6q-9 -3 -30 -26q-18 -25 -74 -94l-14 10v0v0z" />
  </g>

</svg>
