<?xml version="1.0" standalone="no"?>
<!DOCTYPE svg PUBLIC "-//W3C//DTD SVG 1.1//EN" "http://www.w3.org/Graphics/SVG/1.1/DTD/svg11.dtd" >
<svg xmlns="http://www.w3.org/2000/svg" xmlns:xlink="http://www.w3.org/1999/xlink" version="1.1" viewBox="0 -144 1024 1024">
  <g transform="matrix(1 0 0 -1 0 880)">
   <path fill="currentColor"
d="M782 125l45 -48l-20 -16l-11 -7l-11 -6l-11 -5l-12 -4l-12 -3l-13 -2l-13 -2h-12v32l-108 16v16h108l8 1l16 2l14 4l14 7l13 9zM827 77l-12 13l-7 7v1l-7 7l-13 14l-2 2l-4 4l4 4l5 7l5 11l6 14l5 17l6 20l9 48l6 44h-165l-14 -45l-72 -10l73 213h-184l-15 -57l-23 -59
l-28 -54l-34 -49l-39 -45l-45 -40l-50 -35l-54 -29l-60 -24l-64 -19l-3 9l59 29l54 30l49 33l43 37l37 40l32 43l27 46l23 50l17 54l8 40h-282v22h538l32 27l59 -49l-27 -16l-13 -5l-37 -115h159l32 26l60 -48l-27 -16l-4 -2l-5 -36l-5 -28l-5 -25l-5 -22l-7 -21l-7 -19
l-9 -16l-9 -15zM858 576l-1 -14l-3 -13l-4 -13l-6 -13l-9 -10l-11 -9l-12 -7l-13 -4l-13 -2l-14 -1v32l-108 16v16h108l6 1l5 1l3 1h2l1 1l1 1l1 2l1 3l1 5v7h65zM730 990l59 -49l-27 -16l-65 -27v7l-22 -7l-47 -13l-27 -7l-28 -6l-31 -5l8 -12l-3 -16h246l32 27l60 -49
l-27 -21v-220h-65v64h-277v-91l-64 -33v124h-278v-107l-64 -33v371l64 -32h305l-27 18l-51 28l-41 20l-22 9l3 9l24 -3l23 -3l44 -7l39 -10l35 -12l16 -6l4 -2l88 41l39 20h-535v22h571l24 16l1 -2zM452 731h-278v-69h278v69zM793 731h-277v-69h277v69zM452 817h-278v-64
h278v64zM793 817h-268h-1h-3h-5v-64h277v64z" />
  </g>

</svg>
