<?xml version="1.0" standalone="no"?>
<!DOCTYPE svg PUBLIC "-//W3C//DTD SVG 1.1//EN" "http://www.w3.org/Graphics/SVG/1.1/DTD/svg11.dtd" >
<svg xmlns="http://www.w3.org/2000/svg" xmlns:xlink="http://www.w3.org/1999/xlink" version="1.1" viewBox="0 -36 256 256">
  <g transform="matrix(1 0 0 -1 0 220)">
   <path fill="currentColor"
d="M22 91l-11 12q13 6 33 23v36h-8q-10 0 -19 -2l-9 9h36v40q-11 -5 -27 -8v3q17 8 29.5 18t19.5 17l13 -15q-10 -1 -23 -9v-46h27q0 60 -1 76l19 -8l-6 -7v-61h11l11 10l14 -17h-36q0 -22 2 -54q19 28 22 45l14 -13l-7 -5q-15 -27 -27 -42q1 -25 15 -47q4 15 8 28l3 -1
q-3 -24 -3 -33t0.5 -13.5t-8 1t-15.5 18.5t-11 36q-8 -10 -30 -24l-1 3q17 15 29 33q-2 20 -3 68h-27v-28q9 6 17 14l3 -3l-20 -20v-83q0 -6 -2.5 -11t-14.5 -10q-4 12 -20 17v4q12 -2 19 -2.5t6 6.5v68q-14 -12 -22 -23zM125.5 201.5q0.5 -7.5 -5 -13t-9 8t-11.5 25.5l2 2
q23 -15 23.5 -22.5zM150 153h69v30h-69v-30zM150 116h69v30h-69v-30zM150 79h69v30h-69v-30zM172 221h-25q-10 0 -19 -2l-9 9h102l13 12l14 -19h-62q-5 -7 -20 -31h51l8 9l14 -15l-7 -7v-63q0 -29 1 -47l-14 -6v11h-69v-9l-13 -5q1 21 1 71.5t-1 66.5l14 -6h10q8 21 11 31z
M174 50l-10 -3q-32 -30 -49 -39l-2 2q39 37 46 56zM231.5 37.5q10.5 -10.5 5 -23t-12 4.5t-29.5 42l3 3q23 -16 33.5 -26.5z" />
  </g>

</svg>
