<?xml version="1.0" standalone="no"?>
<!DOCTYPE svg PUBLIC "-//W3C//DTD SVG 1.1//EN" "http://www.w3.org/Graphics/SVG/1.1/DTD/svg11.dtd" >
<svg xmlns="http://www.w3.org/2000/svg" xmlns:xlink="http://www.w3.org/1999/xlink" version="1.1" viewBox="0 -205 1024 1024">
  <g transform="matrix(1 0 0 -1 0 819)">
   <path fill="currentColor"
d="M802 926q13 -8 0 -16q-19 1 -40 -28q-18 -29 -72 -118q-54 -87 -102 -152q106 1 314 8q-36 95 -92 172l14 10q87 -88 114 -130q27 -40 36 -76q8 -33 -4 -54q-13 -19 -32 -16t-22 24q-1 21 -8 46q-178 -14 -250 -22q-72 -9 -108 -30l-36 74q23 3 50 12q81 129 166 336
l72 -40v0v0zM570 478l62 -46h214l30 40l60 -42q6 -6 6 -8q0 -7 -32 -26v-240l4 -87q0 -15 -20 -24q-21 -11 -36 -14v82h-236v-58q0 -12 -18 -24q-18 -11 -38 -14l4 139v322v0v0zM622 140h236v264h-236v-264v0v0zM320 944q6 -6 4 -12q-3 -4 -18 -8q-13 -6 -22 -20
q-10 -12 -34 -60h114l26 30l60 -46q6 -6 4 -12q0 -6 -24 -14q-25 -10 -46 -38q-18 -27 -54 -84h82l28 34l58 -38q3 -4 4 -8q0 -6 -24 -24v-256l4 -68q0 -13 -18 -22t-36 -8v26h-238v-12q1 -13 -18 -22q-18 -10 -36 -10l4 94v300q-39 -60 -90 -114l-12 12q57 86 120 206
q63 119 96 212l66 -38v0v0zM190 342h90v150h-90v-150v0v0zM330 342h98v150h-98v-150v0v0zM190 518h90v136h-90v-136v0v0zM330 654v-136h98v136h-98v0v0zM188 680h118l58 138h-128q-39 -70 -72 -118l24 -20v0v0zM138 260h22q3 -70 0 -112q0 -39 -18 -63q-17 -23 -40 -28
q-21 -3 -32 6q-9 9 -6 24t18 26q15 10 34 39q15 27 22 108v0v0zM204 270l14 8q48 -63 58 -92q8 -27 10 -49q0 -21 -12 -34t-30 -8q-19 6 -16 32q3 25 -2 59q-4 33 -22 84v0v0zM312 284l12 10q51 -55 66 -88q14 -34 16 -52q0 -18 -12 -31q-11 -13 -28 -8q-18 4 -18 33
q0 30 -6 58q-6 27 -30 78v0v0zM424 274l12 10q51 -49 66 -76t18 -48q3 -19 -6 -31q-7 -12 -26 -10q-18 4 -24 35q-4 32 -10 52t-30 68v0v0z" />
  </g>

</svg>
