<?xml version="1.0" standalone="no"?>
<!DOCTYPE svg PUBLIC "-//W3C//DTD SVG 1.1//EN" "http://www.w3.org/Graphics/SVG/1.1/DTD/svg11.dtd" >
<svg xmlns="http://www.w3.org/2000/svg" xmlns:xlink="http://www.w3.org/1999/xlink" version="1.1" viewBox="0 -205 1024 1024">
  <g transform="matrix(1 0 0 -1 0 819)">
   <path fill="currentColor"
d="M418 780q6 -3 4 -8q0 -4 -14 -8q-18 -9 -32 -24l-20 -20h252l30 30q59 -46 62 -52q3 -7 -2 -10q-6 -3 -24 -8q-16 -4 -28 -14q-12 -8 -36 -28q-24 -18 -60 -50h214l32 38l58 -40q6 -6 6 -8q0 -6 -30 -30v-126l4 -70q1 -13 -18 -26q-18 -12 -42 -12l4 96v152h-520v-132
l4 -80q0 -13 -20 -26t-40 -14l4 116v146q-24 -27 -110 -86l-10 12q113 108 170 174q57 67 94 134l68 -26v0v0zM226 588h296l82 108h-268q-64 -69 -110 -108v0v0zM404 444q-42 -36 -114 -90l-10 12q71 74 148 176q64 -36 62 -44q-4 -6 -10 -6q-7 0 -20 -6t-56 -42v0v0z
M592 534q56 -30 92 -56q33 -24 46 -48q12 -24 4 -44q-9 -18 -30 -18q-18 0 -24 24q-6 23 -30 56q-25 32 -68 74l10 12v0v0zM56 290h394q11 39 20 108l74 -22q9 -4 10 -8q0 -6 -14 -12q-12 -3 -24 -36l-10 -30h368l36 50l66 -56q3 -4 4 -10q-1 -10 -16 -10h-398
q45 -51 94 -90q48 -37 94 -57q46 -18 92 -28q44 -8 104 -10v-20q-43 -3 -64 -12q-19 -8 -28 -32q-65 18 -130 56q-64 38 -106 85q-41 48 -82 108h-42q-33 -70 -92 -118q-57 -44 -138 -81q-79 -33 -196 -58l-4 16q117 42 180 72q64 30 116 75q51 45 76 94h-300q-21 0 -68 -8
l-16 34v0v0zM396 974l8 12q54 -18 84 -36q30 -17 36 -40q4 -24 -6 -36q-12 -14 -30 -12t-24 26q-3 23 -20 44q-18 18 -48 42v0v0zM142 896h20v-48h712l30 38q74 -58 76 -64q3 -6 -2 -8q-3 -3 -26 -6q-21 -3 -44 -24q-22 -18 -70 -72l-16 10q34 56 56 100h-716
q-6 -45 -18 -68q-13 -21 -32 -32q-18 -10 -38 -10q-22 0 -28 16q-8 15 12 30q20 12 38 28q18 15 30 36q9 22 16 74v0v0z" />
  </g>

</svg>
