<?xml version="1.0" standalone="no"?>
<!DOCTYPE svg PUBLIC "-//W3C//DTD SVG 1.1//EN" "http://www.w3.org/Graphics/SVG/1.1/DTD/svg11.dtd" >
<svg xmlns="http://www.w3.org/2000/svg" xmlns:xlink="http://www.w3.org/1999/xlink" version="1.1" viewBox="0 -36 256 256">
  <g transform="matrix(1 0 0 -1 0 220)">
   <path fill="currentColor"
d="M31 239q26 -10 31.5 -17.5t1 -16t-11 3.5t-22.5 27zM12 184q31 -12 33 -21.5t-3.5 -15t-10.5 6t-20 27.5zM39 89q6 4 34 107l5 -1q-19 -88 -23 -100t-5 -23t1 -35.5t-9.5 -18.5t-8 22.5t3.5 27t-24 15.5v4q20 -2 26 2zM226 100q-32 26 -48 69h-10l-12 -4l-13 11h33l7 7
l11 -10l-8 -5q25 -45 60 -51v-5q-13 -3 -20 -12zM120 176l20 -14l-8 -3q-22 -30 -34 -43h86l8 9l15 -14l-8 -5q-3 -65 -9.5 -78.5t-25.5 -17.5q-1 14 -27 21l1 5q29 -8 36.5 -2.5t10.5 75.5h-48q-3 -42 -17 -64t-52 -38l-2 4q30 18 42 40t15 58h-9l-10 -4l-8 9
q-14 -15 -31 -24l-2 3q41 39 57 83zM126 211l10 11l18 -18h-13h-17v-17l-14 -6v23h-17l-11 -3l-10 10h38v20q0 5 -1 14l24 -9l-9 -6v-19h2zM187 204h-10l-11 -3l-10 10h31v18q0 7 -1 16l24 -9l-9 -5v-21h16l10 11l18 -18h-44v-15l-14 -5v20v1z" />
  </g>

</svg>
