<?xml version="1.0" standalone="no"?>
<!DOCTYPE svg PUBLIC "-//W3C//DTD SVG 1.1//EN" "http://www.w3.org/Graphics/SVG/1.1/DTD/svg11.dtd" >
<svg xmlns="http://www.w3.org/2000/svg" xmlns:xlink="http://www.w3.org/1999/xlink" version="1.1" viewBox="0 -205 1024 1024">
  <g transform="matrix(1 0 0 -1 0 819)">
   <path fill="currentColor"
d="M658 940q3 -3 4 -6q3 -4 -6 -8q-25 -6 -46 -44q-18 -39 -54 -98h302l34 48l60 -60q3 -3 4 -8q0 -6 -8 -6h-404q-61 -103 -130 -178l-10 8q55 87 104 192q47 102 76 196l74 -36v0v0zM782 592q-24 -3 -120 -26q13 -129 56 -216q114 87 184 154q53 -48 56 -56q1 -8 -6 -10
q-6 -3 -12 -2q-6 0 -24 -2q-16 -3 -52 -24q-33 -18 -138 -78q21 -48 58 -96q36 -46 88 -86q50 -40 116 -59v-16q-39 0 -56 -6q-17 -5 -40 -26q-72 63 -126 133q-54 69 -84 154q-30 83 -44 230q-53 -11 -94 -16v-431l152 73l12 -16q-151 -88 -190 -143l-60 54q24 15 36 38
v485l52 -38q198 54 294 102q51 -56 52 -64q0 -8 -2 -10q-4 -1 -22 2q-16 4 -38 2q-21 0 -48 -6v0v0zM164 976q93 -51 114 -80q21 -28 22 -52q-1 -25 -14 -34q-12 -10 -26 -8q-13 2 -20 32q-5 27 -16 52q-10 24 -70 78l10 12v0v0zM42 750h270l30 44l66 -54q3 -3 4 -8
q-1 -2 -16 -10q-33 -10 -54 -46q-21 -33 -66 -98v-30q94 -34 122 -58q27 -21 34 -42q6 -21 -2 -36q-6 -16 -24 -16q-15 -1 -26 26q-9 27 -36 58q-27 29 -68 46v-378l4 -85q3 -14 -18 -26q-19 -14 -38 -16l4 129v370q-71 -94 -190 -188l-10 10q100 107 146 170q46 60 74 106
q27 45 64 108h-198q-24 0 -48 -12l-24 36v0v0z" />
  </g>

</svg>
