<?xml version="1.0" standalone="no"?>
<!DOCTYPE svg PUBLIC "-//W3C//DTD SVG 1.1//EN" "http://www.w3.org/Graphics/SVG/1.1/DTD/svg11.dtd" >
<svg xmlns="http://www.w3.org/2000/svg" xmlns:xlink="http://www.w3.org/1999/xlink" version="1.1" viewBox="0 -205 1024 1024">
  <g transform="matrix(1 0 0 -1 0 819)">
   <path fill="currentColor"
d="M242 378l58 -32h438l22 34l68 -36q6 -6 6 -8q0 -7 -26 -20v-168l4 -75q0 -11 -20 -22q-18 -11 -38 -14v50h-458v-10q-1 -32 -22 -44t-36 -10l4 108v247v0v0zM296 111h458v91h-458v-91v0v0zM296 226h458v96h-458v-96v0v0zM672 570l54 -32q12 -6 10 -12q0 -6 -12 -8
q-13 0 -34 -14q-42 -34 -72 -64h266l42 54l58 -60q3 -6 4 -12q0 -6 -14 -6h-840q-22 -1 -70 -10l-18 34h544l82 130v0v0zM812 608l38 52l66 -58q3 -6 4 -12q0 -6 -14 -6h-712q-22 -1 -70 -10l-18 34h706v0v0zM320 564q53 -13 82 -28q27 -14 34 -34q5 -21 -4 -36
q-9 -16 -30 -16q-19 0 -22 22q-3 21 -18 40q-15 17 -50 40l8 12v0v0zM438 722q53 -10 80 -22t36 -32q9 -19 0 -34q-10 -16 -28 -16q-16 0 -22 18q-3 17 -18 34q-12 17 -54 40l6 12v0v0zM142 976l58 -32h620l28 36l68 -38q12 -7 -6 -20l-18 -12v-128l4 -58q1 -11 -16 -22
q-15 -13 -42 -10v42h-640v-20q0 -16 -20 -28q-22 -13 -40 -14l4 106v198v0v0zM196 760h182v158h-182v-158v0v0zM430 760h184v158h-184v-158v0v0zM666 760h172v158h-172v-158v0v0z" />
  </g>

</svg>
