<?xml version="1.0" standalone="no"?>
<!DOCTYPE svg PUBLIC "-//W3C//DTD SVG 1.1//EN" "http://www.w3.org/Graphics/SVG/1.1/DTD/svg11.dtd" >
<svg xmlns="http://www.w3.org/2000/svg" xmlns:xlink="http://www.w3.org/1999/xlink" version="1.1" viewBox="0 -205 1024 1024">
  <g transform="matrix(1 0 0 -1 0 819)">
   <path fill="currentColor"
d="M850 922l64 -46q6 -4 6 -8q1 -6 -34 -30v-96l4 -98q0 -16 -14 -26q-13 -10 -40 -16v54h-128q2 -91 8 -172h160l40 52l66 -62q2 -6 2 -12q-1 -4 -10 -4h-254q6 -90 28 -152q21 -63 54 -108q33 -43 66 -69q33 -24 46 -28q10 -1 14 30q4 29 14 123h18v-104q-1 -38 8 -63
q6 -23 16 -32q9 -8 6 -14q-1 -5 -14 -8q-12 -1 -36 4q-25 5 -74 34q-48 28 -90 81q-42 52 -68 122q-25 69 -38 184h-180v-327l158 119l12 -14q-112 -98 -142 -127q-30 -27 -54 -66l-58 46q33 30 34 50v787l62 -44h320l28 40v0v0zM670 484q-7 81 -10 172h-170v-172h180v0v0z
M490 856v-174h346v174h-346v0v0zM58 746h158v222l74 -32q9 -7 10 -10q0 -7 -36 -22v-158h52l32 46l54 -54q3 -3 4 -8q0 -10 -12 -10h-130v-196l124 72l10 -16l-134 -90v-363q1 -33 -16 -58q-17 -23 -70 -38q-6 34 -36 46q-27 13 -78 28l4 18q95 -24 122 -18q26 3 26 30v327
l-78 -52q-42 -39 -60 -62l-46 52l184 100v220h-74q-21 0 -68 -8l-16 34v0v0z" />
  </g>

</svg>
