<?xml version="1.0" standalone="no"?>
<!DOCTYPE svg PUBLIC "-//W3C//DTD SVG 1.1//EN" "http://www.w3.org/Graphics/SVG/1.1/DTD/svg11.dtd" >
<svg xmlns="http://www.w3.org/2000/svg" xmlns:xlink="http://www.w3.org/1999/xlink" version="1.1" viewBox="0 -205 1024 1024">
  <g transform="matrix(1 0 0 -1 0 819)">
   <path fill="currentColor"
d="M506 420h320l30 36l48 -42q12 -3 12 -12q0 -3 -24 -20v-291h28l28 38l44 -42q3 -3 4 -10q0 -12 -12 -12h-586q-19 1 -58 -8l-18 34h124v345l60 -16v0v0zM496 91h78v303h-78v-303v0v0zM624 91h88v303h-88v-303v0v0zM762 91h80v303h-80v-303v0v0zM746 736h120l40 50l60 -56
q3 -4 4 -10q1 -10 -10 -10h-486q-10 0 -58 -8l-22 34h320q56 100 98 224q78 -39 76 -48q-1 -10 -8 -10q-7 -1 -22 -10q-16 -7 -40 -44t-72 -112v0v0zM484 936l10 12q77 -54 104 -84t30 -54q3 -25 -8 -40q-12 -14 -32 -12q-21 2 -24 32q-4 28 -22 62q-17 33 -58 84v0v0z
M566 660q69 -34 70 -40q0 -6 -2 -8q-3 -2 -20 -4q-18 -1 -68 -56q-52 -54 -172 -152l-12 16q126 117 204 244v0v0zM728 626l8 16q72 -33 126 -60q54 -24 78 -54q22 -28 18 -52q-6 -25 -26 -28q-21 -4 -38 28q-15 32 -48 64q-31 29 -118 86v0v0zM46 748l54 -28h72v248l76 -34
q10 -6 2 -18l-26 -16v-180h58l26 34l54 -40q12 -9 4 -14l-22 -22v-220l4 -58q3 -15 -12 -26q-15 -12 -44 -14v46h-68v-212l94 22q-24 44 -54 92l14 10q64 -60 86 -86q20 -25 28 -46q6 -22 0 -40q-5 -17 -22 -21q-18 -3 -26 6q-7 6 -8 23q-1 14 -8 38q-216 -66 -228 -75
q-12 -10 -42 -32l-38 59l152 40v222h-74v-36q0 -12 -20 -20q-18 -9 -36 -8l4 64v342v0v0zM98 432h74v262h-74v-262v0v0zM224 694v-262h68v262h-68v0v0z" />
  </g>

</svg>
