<?xml version="1.0" standalone="no"?>
<!DOCTYPE svg PUBLIC "-//W3C//DTD SVG 1.1//EN" "http://www.w3.org/Graphics/SVG/1.1/DTD/svg11.dtd" >
<svg xmlns="http://www.w3.org/2000/svg" xmlns:xlink="http://www.w3.org/1999/xlink" version="1.1" viewBox="0 -205 1024 1024">
  <g transform="matrix(1 0 0 -1 0 819)">
   <path fill="currentColor"
d="M910 340h-268v-190q-1 -40 14 -47q13 -7 44 -8h172q26 4 38 16q9 11 16 28q5 16 14 119h18q3 -75 6 -102q3 -24 30 -39q-19 -42 -50 -54q-27 -9 -66 -12h-208q-46 3 -64 18q-16 15 -16 66v205h-174q-13 -112 -56 -166q-42 -50 -116 -87q-75 -32 -200 -62l-6 16
q118 41 182 76q63 33 100 83q33 50 42 140h-234q-23 0 -46 -6l-20 34h414v230q86 -27 86 -36q1 -9 -4 -8q-4 0 -28 -14v-172h308l40 46q66 -56 66 -64t-6 -10h-28v0v0zM774 578q66 -49 64 -56q-1 -7 -8 -8q-7 0 -22 -6q-15 -3 -60 -36q-43 -33 -116 -84l-16 12
q95 90 158 178v0v0zM180 550l8 12q64 -25 104 -46q39 -20 58 -46q16 -25 8 -46q-6 -21 -30 -24q-21 -3 -30 22q-7 25 -32 56q-25 30 -86 72v0v0zM134 956h654l34 40l58 -46q3 -1 4 -8q0 -12 -14 -12h-340v-92h336l34 36l52 -50q9 -9 10 -14q-1 -6 -16 -8q-24 -7 -42 -22
q-19 -13 -58 -64l-14 8l42 90h-344v-84l4 -64q0 -19 -20 -34q-21 -15 -42 -14l4 114v82h-332q-4 -66 -20 -86q-15 -22 -36 -28q-20 -7 -34 -2q-15 6 -14 22q-1 14 22 28t40 38q15 23 22 86h16l2 -34h334v92h-258q-21 0 -68 -8l-16 34v0v0zM196 742h190v-24h-190v24v0v0z
M194 650h192v-24h-192v24v0v0zM618 742h184v-24h-184v24v0v0zM620 648h182v-24h-182v24v0v0z" />
  </g>

</svg>
