<?xml version="1.0" standalone="no"?>
<!DOCTYPE svg PUBLIC "-//W3C//DTD SVG 1.1//EN" "http://www.w3.org/Graphics/SVG/1.1/DTD/svg11.dtd" >
<svg xmlns="http://www.w3.org/2000/svg" xmlns:xlink="http://www.w3.org/1999/xlink" version="1.1" viewBox="0 -205 1048 1024">
  <g transform="matrix(1 0 0 -1 0 819)">
   <path fill="currentColor"
d="M312 864q19 -17 19 -26q0 -10 -27 -14v-456q0 -51 1 -50q-3 -8 -23 -11q-13 -5 -17 -5t-5 5t-1 19q1 24 1 35v12h-135v-46q0 -40 1 -39q-2 -6 -26 -11q-11 -4 -15 -4t-5 5t-1 19q1 25 1 38v568l49 -31h119l12 15q10 14 11 14q2 0 17 -13zM981 88q-26 12 -34 -1
q-11 -11 -15 -11q-9 0 -29 30q-49 77 -88 176q-106 -163 -259 -223l-6 9q64 31 131 95q73 75 117 163q-22 58 -38 159q-17 102 -18 199q-32 -108 -71 -148l-14 8q42 66 75 210q28 123 32 224l42 -13q28 -10 28 -16t-29 -17q-25 -136 -42 -184h141l24 31q10 12 12.5 12
t16.5 -16l33 -34l-6 -14h-62q-8 -245 -83 -404q27 -65 68 -128q44 -65 83 -97zM260 395v455h-135v-455h135zM600 576q26 -10 26 -22q0 -11 -34 -17q-29 -100 -68 -181q73 -105 68 -146q-5 -43 -22 -43q-13 0 -23 48q-8 27 -43 104q-35 -72 -100 -152t-108 -108l-6 7
q40 33 98 118q64 92 94 169q-47 86 -120 150l9 12q75 -57 128 -123q37 76 61 201zM758 727q2 -219 61 -359q27 63 43.5 162t14.5 197h-119zM696 798l-8 -15h-351v21h146v130l-2 44l41 -9q32 -12 32 -19q0 -5 -29 -19v-127h71l20 33q10 13 13 13q6 0 26 -17zM458 744
q18 -15 18 -26q0 -10 -27 -12q-17 -44 -41.5 -90t-90.5 -119l-9 8q38 47 68 122t43 143zM662 610q-2 -42 -21 -42q-16 0 -25 39q-14 71 -80 151l12 9q58 -56 76 -79q33 -40 38 -78z" />
  </g>

</svg>
