<?xml version="1.0" standalone="no"?>
<!DOCTYPE svg PUBLIC "-//W3C//DTD SVG 1.1//EN" "http://www.w3.org/Graphics/SVG/1.1/DTD/svg11.dtd" >
<svg xmlns="http://www.w3.org/2000/svg" xmlns:xlink="http://www.w3.org/1999/xlink" version="1.1" viewBox="0 -205 1024 1024">
  <g transform="matrix(1 0 0 -1 0 819)">
   <path fill="currentColor"
d="M350 558h190v284q-73 -25 -154 -46l-6 16q71 28 146 62q71 32 164 86l50 -58q3 -7 -2 -10q-3 -1 -18 2q-15 2 -38 -4q-24 -6 -90 -32v-300h192v402l90 -32q7 -6 0 -14l-36 -14v-342h76l38 44l58 -60q3 -6 -2 -12h-170v-334l4 -129q3 -13 -18 -26q-21 -14 -44 -14l4 149
v354h-192q3 -127 -32 -232q-33 -106 -86 -159q-51 -55 -138 -108l-8 14q78 61 120 117q40 57 68 156q27 100 24 212h-114q-30 0 -56 -8l-20 36v0v0zM110 888l58 -40h100l32 40l60 -38q12 -6 12 -14q-1 -3 -34 -30v-390l4 -96q1 -12 -16 -24q-16 -13 -40 -16v84h-124v-84
q0 -12 -20 -24q-21 -12 -36 -12l4 126v518v0v0zM162 394h124v424h-124v-424v0v0z" />
  </g>

</svg>
