<?xml version="1.0" standalone="no"?>
<!DOCTYPE svg PUBLIC "-//W3C//DTD SVG 1.1//EN" "http://www.w3.org/Graphics/SVG/1.1/DTD/svg11.dtd" >
<svg xmlns="http://www.w3.org/2000/svg" xmlns:xlink="http://www.w3.org/1999/xlink" version="1.1" viewBox="0 -36 256 256">
  <g transform="matrix(1 0 0 -1 0 220)">
   <path fill="currentColor"
d="M137 191h78l9 12l19 -19h-192q-11 0 -21 -2l-9 9h101v22h-57q-11 0 -21 -2l-9 9h87q0 14 -1 27l22 -7l-6 -4v-16h55l14 10l18 -17h-87v-22zM67 184l22 -10l-7 -6v-16h24l10 13l14 -20h-48v-18h19l9 10l14 -17h-68h-5q-5 1 -16 -2l-10 9h43v18h-21q-10 0 -20 -2l-9 9h50
q0 17 -1 32zM94 72h-45v-2l-15 -3q1 22 0 44l15 -6h52l8 9l13 -13l-7 -4v-25h-14l8 -6q-6 -4 -20 -19l48 9l1 -4q-87 -23 -118 -35l-12 16q10 1 43 6q-4 16 -12 28l3 3q13 -8 18 -14.5t-5 -15.5l27 5q9 15 12 27zM49 79h52v19h-52v-19zM185 55q12 -11 28.5 -18.5t34.5 -10.5
v-5q-15 3 -21 -10q-33 16 -51 36q-17 -15 -33.5 -23t-40.5 -15l-1 5q41 16 67 43q-13 19 -21 45l-7 -3l-9 10h39v30h-12q-10 0 -20 -2l-9 9h41q0 21 -1 37l23 -11l-8 -7v-19h31l11 11l13 -18h-55v-30h16l6 8l15 -13l-8 -5q-14 -29 -28 -44zM175 65q14 17 23 37h-45
q10 -22 22 -37z" />
  </g>

</svg>
