<?xml version="1.0" standalone="no"?>
<!DOCTYPE svg PUBLIC "-//W3C//DTD SVG 1.1//EN" "http://www.w3.org/Graphics/SVG/1.1/DTD/svg11.dtd" >
<svg xmlns="http://www.w3.org/2000/svg" xmlns:xlink="http://www.w3.org/1999/xlink" version="1.1" viewBox="0 -36 256 256">
  <g transform="matrix(1 0 0 -1 0 220)">
   <path fill="currentColor"
d="M159 210q4 -5 -1.5 -10.5t-8.5 1t-14 15.5q-11 -22 -38 -38l-2 3q15 14 23.5 30t8.5 34l21 -7l-8 -4q-2 -6 -3 -12q18 -7 22 -12zM85 234q-6 -3 -24.5 -18t-34.5 -22l-2 2q37 30 44 48zM72 128l-15 -4q1 11 1 52q-16 -12 -38 -22l-2 3q20 13 36 29t24 30l17 -11
q-8 -4 -11.5 -7l-17.5 -15l13 -6l-7 -4v-45zM190 220q24 -10 31 -17t0.5 -16.5t-10.5 2t-23 26.5q-12 -20 -40 -32l-1 3q18 14 26 28t9 31l21 -8l-8 -5q-3 -4 -5 -12zM86 125l-1 5q49 15 67 56l19 -10l-9 -3l-2 -3q28 -24 74 -24v-5q-13 -1 -16 -12q-39 10 -61 36
q-20 -29 -71 -40zM208 119l12 11l19 -18h-51v-68l29 1l13 14l16 -19l-58 -3v-24l-14 -5v28l-140 -6l-9 -4l-10 10l53 2v74h-15q-13 0 -22 -3l-10 10h187zM82 93h92v19h-92v-19zM82 68h92v18h-92v-18zM82 39l92 4v18h-92v-22z" />
  </g>

</svg>
