<?xml version="1.0" standalone="no"?>
<!DOCTYPE svg PUBLIC "-//W3C//DTD SVG 1.1//EN" "http://www.w3.org/Graphics/SVG/1.1/DTD/svg11.dtd" >
<svg xmlns="http://www.w3.org/2000/svg" xmlns:xlink="http://www.w3.org/1999/xlink" version="1.1" viewBox="0 -205 1024 1024">
  <g transform="matrix(1 0 0 -1 0 819)">
   <path fill="currentColor"
d="M208 722h298v82l78 -28q2 -4 2 -8q-1 -3 -8 -6l-24 -12v-28h192l36 46l58 -54q3 -4 4 -8q0 -10 -12 -10h-278v-78h306l30 42l64 -50q3 -3 4 -8q0 -10 -8 -10h-764q-36 3 -66 -8l-20 34h406v78h-228q-21 0 -54 -8l-16 34v0v0zM578 492h144v80l72 -22q2 -4 2 -8
q-1 -3 -8 -6l-20 -10v-34h74l32 42l54 -50q3 -4 4 -8q0 -10 -12 -10h-152v-80h122l30 46l62 -54q3 -3 4 -8q0 -10 -8 -10h-350q-36 3 -66 -8l-20 34h180v80h-62q-21 0 -66 -8l-16 34v0v0zM132 494h174v80l72 -22q2 -4 2 -8q-1 -3 -8 -6l-20 -10v-34h70l36 40l48 -48
q3 -4 4 -8q2 -10 -10 -10h-148v-74l172 16v-18q-286 -42 -316 -54q-30 -9 -60 -26l-30 60l188 18v78h-92q-21 0 -66 -8l-16 34v0v0zM666 264v-139q-1 -44 14 -50q14 -7 44 -8h146q26 0 38 8q12 5 16 40q3 32 6 79h20q2 -45 8 -75q3 -32 30 -44q-22 -39 -50 -46
q-25 -6 -64 -6h-178q-45 3 -62 20q-15 15 -18 62v159h-152q-8 -63 -40 -116q-33 -52 -122 -91q-88 -34 -218 -48l-4 18q126 24 204 62q77 37 100 79q21 42 28 96h-188q-12 0 -30 -6l-20 34h640l30 44l68 -56q0 -15 -8 -14q-8 0 -238 -2v0v0zM506 986l74 -32q8 -3 8 -12
q0 -3 -6 -6l-28 -12v-84h296v116l78 -28q12 -9 4 -14q0 -3 -32 -20v-38l4 -54q-3 -16 -24 -26q-21 -7 -30 -8v44h-636l-30 -36l-58 48q31 15 32 36v98l76 -28q5 -9 2 -12q-3 -6 -30 -18v-60h300v146v0v0z" />
  </g>

</svg>
