<?xml version="1.0" standalone="no"?>
<!DOCTYPE svg PUBLIC "-//W3C//DTD SVG 1.1//EN" "http://www.w3.org/Graphics/SVG/1.1/DTD/svg11.dtd" >
<svg xmlns="http://www.w3.org/2000/svg" xmlns:xlink="http://www.w3.org/1999/xlink" version="1.1" viewBox="0 -205 1024 1024">
  <g transform="matrix(1 0 0 -1 0 819)">
   <path fill="currentColor"
d="M70 796l48 -34h96v214l76 -28q12 -6 4 -18l-26 -16v-152h88l26 36l54 -38q12 -9 4 -14l-24 -22v-238l4 -60q3 -15 -12 -26q-15 -12 -42 -14v50h-98v-208l122 28q-20 45 -52 90l12 12q71 -64 92 -92q18 -27 24 -48q4 -21 -4 -36q-7 -14 -22 -16q-16 -3 -22 6q-7 7 -8 20
q0 13 -12 44q-193 -62 -248 -82q-55 -19 -82 -49l-42 65l188 48v218h-94v-44q0 -12 -18 -24t-36 -12l4 76v364v0v0zM120 460h94v278h-94v-278v0v0zM268 738v-278h98v278h-98v0v0zM518 898l58 -34h50q9 41 36 122l70 -32q10 -8 0 -16q-30 -3 -48 -30q-18 -24 -32 -44h174
l30 38l58 -44q6 -4 6 -8q0 -7 -36 -28v-170l4 -62q-3 -16 -18 -28q-15 -9 -38 -12v42h-264v-80h316l34 44l60 -56q6 -15 -8 -14h-402v-78h328l28 32l58 -44q12 -7 -2 -16l-28 -20q-1 -82 -8 -136q-6 -53 -12 -91q-6 -39 -30 -66q-24 -24 -62 -42q-12 45 -48 60
q-36 12 -92 30l6 18q72 -15 102 -18q29 -2 50 4q18 6 24 31q3 25 10 68q4 42 8 162h-332q0 -25 -14 -34q-13 -9 -40 -14l4 108v458v0v0zM568 620h264v92h-264v-92v0v0zM568 742h264v94h-264v-94v0v0zM670 344l12 8q65 -55 80 -82q12 -26 10 -46q-3 -18 -14 -26
q-12 -10 -26 -4q-15 3 -18 28q0 23 -6 44t-38 78v0v0zM756 352l10 10q66 -40 88 -70q22 -28 20 -50q-4 -20 -16 -28q-12 -9 -24 -2q-11 6 -16 24q-3 19 -12 44q-7 24 -50 72v0v0zM528 298h22q6 -105 -6 -138q-9 -30 -26 -45q-15 -14 -36 -14q-22 1 -28 22q-7 19 14 35
q18 15 34 36q14 20 26 104v0v0zM582 314l14 8q59 -63 68 -92q9 -27 4 -48q-3 -18 -18 -26q-13 -8 -26 -2q-13 7 -14 26v50q-1 30 -28 84v0v0z" />
  </g>

</svg>
