<?xml version="1.0" standalone="no"?>
<!DOCTYPE svg PUBLIC "-//W3C//DTD SVG 1.1//EN" "http://www.w3.org/Graphics/SVG/1.1/DTD/svg11.dtd" >
<svg xmlns="http://www.w3.org/2000/svg" xmlns:xlink="http://www.w3.org/1999/xlink" version="1.1" viewBox="0 -36 256 256">
  <g transform="matrix(1 0 0 -1 0 220)">
   <path fill="currentColor"
d="M48 104q-2 -30 -6.5 -41t-12.5 -15t-14.5 1t7 14.5t22.5 40.5h4zM100 112l-10 -7v-57q-1 -16 18 -16h68q7 1 9.5 10.5t3.5 31.5h4q0 -17 2.5 -28t10.5 -14q-8 -13 -26 -13h-82q-22 3 -22 23v53q0 10 -1 28zM110 141q22 -10 34 -21.5t4.5 -23t-13 4t-26.5 37.5zM196 114
q32 -20 39 -30.5t0 -22t-11.5 4t-30.5 45.5zM225 201h-186q0 -20 -9.5 -25.5t-15 0.5t5.5 13.5t14 32.5h5v-14h88q-3 11 -6 17.5t-13 17.5l2 3q21 -9 28.5 -17t-3.5 -21h87l9 11l17 -18q-12 -2 -32 -23l-3 2zM90 204h16q5 -68 -82 -77l-3 4q74 14 69 73zM170 205v-46
q0 -13 18 -11h4q25 0 29.5 2t17.5 -8q-4 -7 -31 -7h-28q-25 -2 -25 24v46h15z" />
  </g>

</svg>
