<?xml version="1.0" standalone="no"?>
<!DOCTYPE svg PUBLIC "-//W3C//DTD SVG 1.1//EN" "http://www.w3.org/Graphics/SVG/1.1/DTD/svg11.dtd" >
<svg xmlns="http://www.w3.org/2000/svg" xmlns:xlink="http://www.w3.org/1999/xlink" version="1.1" viewBox="0 -36 256 256">
  <g transform="matrix(1 0 0 -1 0 220)">
   <path fill="currentColor"
d="M117 245l25 -10l-10 -7v-15h62l15 12l18 -19h-95q-1 -74 -2.5 -89t-5.5 -29h7q13 -20 44.5 -39t67.5 -21l-1 -5q-21 -3 -22 -14q-19 6 -47.5 25.5t-48.5 54.5q-3 -10 -15.5 -25.5t-35 -29.5t-61.5 -25l-1 4q37 14 65.5 36.5t35.5 48.5t6 108h-64q-10 0 -19 -2l-9 9h92
q0 13 -1 32zM207 95l15 14l20 -21h-191q-19 1 -27 -2l-10 9h193zM76 185q27 -11 32.5 -18.5t-0.5 -15t-11.5 3.5t-22.5 26q-19 -25 -45 -39l-3 2q16 12 29 30t16 32l21 -6l-7 -4q-4 -5 -9 -11zM71 136q26 -11 31.5 -18t-1 -15t-11 3.5t-21.5 26.5q-18 -25 -43 -37l-3 2
q13 9 26 26t17 35l20 -8l-6 -5q-4 -4 -9 -10zM181 182q27 -12 32.5 -19t-1.5 -14.5t-11.5 4t-21.5 25.5q-17 -22 -43 -36l-3 2q13 9 26 26t17 34l20 -7l-5 -4q-6 -5 -10 -11zM178 138q27 -13 32.5 -20t-0.5 -15t-11.5 3t-22.5 28q-17 -23 -42 -37l-4 2q13 9 26 26t17 35
l20 -8l-7 -4z" />
  </g>

</svg>
