<?xml version="1.0" standalone="no"?>
<!DOCTYPE svg PUBLIC "-//W3C//DTD SVG 1.1//EN" "http://www.w3.org/Graphics/SVG/1.1/DTD/svg11.dtd" >
<svg xmlns="http://www.w3.org/2000/svg" xmlns:xlink="http://www.w3.org/1999/xlink" version="1.1" viewBox="0 -205 1024 1024">
  <g transform="matrix(1 0 0 -1 0 819)">
   <path fill="currentColor"
d="M106 876l78 -28q16 -7 8 -16l-34 -16v-634l4 -107q0 -15 -24 -28q-21 -13 -36 -14l4 143v700v0v0zM364 584h132v80h-132v-80v0v0zM542 664v-80h136v80h-136v0v0zM364 688h132v84h-132v-84v0v0zM542 772v-84h136v84h-136v0v0zM318 826l50 -30h300l26 30l50 -34
q9 -6 10 -12q0 -5 -32 -28v-158l4 -40q0 -13 -14 -22q-13 -9 -34 -12v40h-136v-84h178l30 30l42 -32q9 -6 10 -14q0 -2 -24 -22v-216q0 -33 -18 -48q-19 -16 -52 -27q-6 29 -32 39q-25 10 -82 26l4 16q72 -14 90 -16q17 -1 32 4q13 6 14 42v194h-192v-100l84 10
q-16 30 -38 54l10 10q54 -34 76 -62q20 -26 20 -46t-12 -28q-9 -7 -20 -4q-11 1 -16 14q-3 12 -12 42q-134 -21 -190 -36q-54 -13 -84 -34l-30 60l166 16v104h-180v-238l4 -38q-3 -18 -20 -31t-34 -12l4 81v294l46 -32h180v84h-132v-4q1 -19 -16 -32q-19 -10 -34 -10l4 98
v214v0v0zM886 958l62 -44q8 -3 8 -12q1 -6 -34 -32v-739q3 -39 -12 -66q-15 -25 -66 -38q-5 28 -28 40q-22 12 -94 36l4 20q69 -15 94 -18q23 -3 38 6q13 7 14 28v751h-376q-18 0 -56 -8l-22 36h436l32 40v0v0zM170 1000q98 -39 128 -68q27 -27 28 -50q0 -23 -12 -34
q-12 -10 -26 -8q-15 2 -24 26q-8 21 -22 48q-15 23 -80 74l8 12v0v0z" />
  </g>

</svg>
