<?xml version="1.0" standalone="no"?>
<!DOCTYPE svg PUBLIC "-//W3C//DTD SVG 1.1//EN" "http://www.w3.org/Graphics/SVG/1.1/DTD/svg11.dtd" >
<svg xmlns="http://www.w3.org/2000/svg" xmlns:xlink="http://www.w3.org/1999/xlink" version="1.1" viewBox="0 -36 256 256">
  <g transform="matrix(1 0 0 -1 0 220)">
   <path fill="currentColor"
d="M94 237q-4 -5 -6.5 -9t-7.5 -14h38l7 9l14 -13q-5 -3 -9.5 -9l-19.5 -26q18 -6 25.5 -11.5t5.5 -14t-12 0t-27 16.5q-14 -11 -34 -19t-47 -13v4q20 5 39 14t30 19q-17 5 -41 11q4 5 15 25h-13q-10 0 -19 -2l-9 9h43q9 20 12 31zM166 217h45l6 10l16 -10l-7 -8v-34
q0 -9 1 -19l-14 -6v13h-48v-10l-14 -6q1 26 1 45.5t-1 33.5zM97 178q9 10 20 29h-39q-10 -16 -14 -23q19 -3 33 -6zM165 170h48v40h-48v-40zM57 101q-18 -16 -41 -29l-1 3q20 16 36 34.5t26 36.5l18 -13l-9 -3l-12 -12h120l11 9l18 -16h-82v-24h47l11 9l17 -16h-75v-23h50
l11 8l17 -15h-78v-24h59l12 9l19 -16h-160v-5l-15 -4q1 12 1 91zM71 87h56v24h-56v-24zM71 80v-23h56v23h-56zM71 26h56v24h-56v-24zM121 148q16 -6 21 -9.5t5 -8t-5 -8.5t-9 5t-14 19z" />
  </g>

</svg>
