<?xml version="1.0" standalone="no"?>
<!DOCTYPE svg PUBLIC "-//W3C//DTD SVG 1.1//EN" "http://www.w3.org/Graphics/SVG/1.1/DTD/svg11.dtd" >
<svg xmlns="http://www.w3.org/2000/svg" xmlns:xlink="http://www.w3.org/1999/xlink" version="1.1" viewBox="0 -205 1024 1024">
  <g transform="matrix(1 0 0 -1 0 819)">
   <path fill="currentColor"
d="M102 784h462q66 98 106 188q80 -40 80 -44q0 -3 -2 -6q-1 -4 -20 -10q-18 -6 -48 -36t-86 -92h188l36 40l56 -44q8 -6 8 -12q1 -6 -34 -26v-96l4 -74q3 -18 -18 -30q-20 -10 -40 -10v44h-278v-162h358l36 40l58 -46q9 -7 10 -16q0 -3 -38 -24q-5 -58 -16 -116
q-10 -56 -34 -82q-24 -27 -90 -37q-10 31 -32 49q-19 15 -98 42l4 18q117 -30 138 -32q21 -3 36 6q18 9 24 46q8 36 16 126h-372v-242l4 -69q1 -17 -22 -32q-23 -18 -40 -16l4 117v240h-294l-30 -26l-54 56l36 22l42 216l52 -52h248v154h-300q-20 0 -34 -8l-26 36v0v0z
M516 756v-154h278v154h-278v0v0zM462 414v162h-260l-36 -162h296v0v0zM250 958l8 12q88 -33 122 -60q32 -27 38 -50q7 -22 -4 -38q-12 -16 -32 -16q-19 1 -28 32q-6 30 -30 54q-21 24 -74 66v0v0z" />
  </g>

</svg>
