<?xml version="1.0" standalone="no"?>
<!DOCTYPE svg PUBLIC "-//W3C//DTD SVG 1.1//EN" "http://www.w3.org/Graphics/SVG/1.1/DTD/svg11.dtd" >
<svg xmlns="http://www.w3.org/2000/svg" xmlns:xlink="http://www.w3.org/1999/xlink" version="1.1" viewBox="0 -36 256 256">
  <g transform="matrix(1 0 0 -1 0 220)">
   <path fill="currentColor"
d="M130 196h-40q0 -8 1 -19l-16 -10q1 19 1 29h-31q-11 0 -20 -2l-9 9h60q0 27 -1 41l23 -10l-8 -7v-24h14l11 12zM158 197q-10 0 -19 -2l-9 9h31q0 20 -1 41l23 -11l-8 -6v-24h36l15 13l15 -20h-66q0 -11 1 -22l-16 -7q1 20 1 29h-3zM30 25.5q-2 6.5 2.5 14t2 17
t-23.5 16.5l1 6q26 -13 33 -5.5t49 74.5l4 -5q-35 -60 -42.5 -75.5t-7.5 -37.5t-8 -16.5t-10 12zM11 141q44 -15 37 -31.5t-13.5 -1.5t-25.5 29zM42 176q41 -16 32.5 -32t-13 -0.5t-21.5 28.5zM229 10q-17 10 -34 30t-25 50q-11 -21 -40 -46.5t-75 -36.5l-1 4q52 22 79.5 53
t38.5 72h-44q-21 -33 -49 -51l-3 3q44 46 56 98l20 -14l-9 -5q-5 -11 -11 -24h41l11 12l14 -17l-10 -6q-8 -21 -15 -35q14 -30 35.5 -48t39.5 -20v-4q-15 -3 -19 -15z" />
  </g>

</svg>
