<?xml version="1.0" standalone="no"?>
<!DOCTYPE svg PUBLIC "-//W3C//DTD SVG 1.1//EN" "http://www.w3.org/Graphics/SVG/1.1/DTD/svg11.dtd" >
<svg xmlns="http://www.w3.org/2000/svg" xmlns:xlink="http://www.w3.org/1999/xlink" version="1.1" viewBox="0 -36 256 256">
  <g transform="matrix(1 0 0 -1 0 220)">
   <path fill="currentColor"
d="M65 15l-15 -8q1 22 1 39v79q-20 -25 -39 -40l-3 4q20 22 41 55.5t23 44.5l19 -14l-8 -3q-5 -9 -19 -30v-127zM84 233l-10 -4q-35 -47 -59 -64l-3 4q18 20 33.5 43.5t19.5 34.5zM95 134v18.5t-1 22.5l16 -6h35l8 11l15 -11l-7 -6v-28q0 -6 1 -17l-15 -5v6h-38v-5l-15 -3
q1 14 1 23zM109 126h38v36h-38v-36zM175 247l22 -12l-7 -8v-30h29l12 12l15 -19h-56q0 -52 8 -95q5 13 11.5 37t6.5 35l21 -14l-8 -3q-15 -49 -26 -73q9 -23 28 -40l9 45l4 -1q-1 -24 -1.5 -39.5t2.5 -33.5q-33 17 -51 54q-17 -28 -47 -53l-4 3q32 37 44 66q-10 45 -11 112
h-57q-13 0 -22 -3l-10 10h89v26q0 9 -1 24zM197 243q20 -8 26.5 -14t1 -17t-10.5 1.5t-19 25.5zM99 42l-7 -7l-11 13l5 3v22q0 9 -1 22l20 -8l-6 -6v-32h19v39q0 11 -1 22l21 -9l-7 -5v-47h20v22l-1 23l20 -9l-6 -6v-20q0 -10 1 -18l-14 -5v6h-52z" />
  </g>

</svg>
