<?xml version="1.0" standalone="no"?>
<!DOCTYPE svg PUBLIC "-//W3C//DTD SVG 1.1//EN" "http://www.w3.org/Graphics/SVG/1.1/DTD/svg11.dtd" >
<svg xmlns="http://www.w3.org/2000/svg" xmlns:xlink="http://www.w3.org/1999/xlink" version="1.1" viewBox="0 -36 256 256">
  <g transform="matrix(1 0 0 -1 0 220)">
   <path fill="currentColor"
d="M68.5 224.5q7.5 -8.5 2 -17.5t-12 2.5t-27.5 29.5l1 3q29 -9 36.5 -17.5zM12 184q34 -12 36 -22.5t-4 -15.5t-10.5 6t-22.5 28zM41 89q8 4 48 117l6 -1q-32 -97 -36.5 -109.5t-6 -24t0.5 -37.5t-10 -20.5t-8.5 23.5t3.5 29t-25 17v4q20 -2 28 2zM217 161q0 -26 1 -43
l-16 -7v19h-83v-83q0 -17 17 -17h76q10 0 11.5 12t2.5 42h7q0 -23 1.5 -35t11.5 -18q-10 -15 -27 -15h-91q-24 0 -24 27v154q0 21 -1 42l16 -10h81l10 11l16 -14l-9 -8v-57zM119 137h35v85h-35v-85zM169 137h33v85h-33v-85z" />
  </g>

</svg>
