<?xml version="1.0" standalone="no"?>
<!DOCTYPE svg PUBLIC "-//W3C//DTD SVG 1.1//EN" "http://www.w3.org/Graphics/SVG/1.1/DTD/svg11.dtd" >
<svg xmlns="http://www.w3.org/2000/svg" xmlns:xlink="http://www.w3.org/1999/xlink" version="1.1" viewBox="0 -36 256 256">
  <g transform="matrix(1 0 0 -1 0 220)">
   <path fill="currentColor"
d="M48 182l-11 -5v25v19l11 -3h17l5 11h-19q-10 0 -19 -2l-8 9h85l10 7l13 -14h-49l-10 -11h38l7 6l11 -8l-6 -4v-22q1 -11 -13 -14q1 7 -12 9v2h13.5t1.5 3v21h-17v-24l-10 -4v28h-12v-24l-10 -4v28h-16v-29zM221 242l15 -16h-70l-4 -19h43l6 8l14 -12l-9 -5l-7 -43
q0 -4 9 -3q8 -2 9 19h3q0 -16 9 -17q-4 -13 -14 -14h-15q-15 1 -13 12l7 47h-43l-7 -43l35 10l2 -3q-35 -15 -53 -26l-9 13l12 3q7 35 12 74q-9 0 -17 -2l-8 8h83zM165 194q19 -6 24 -11.5t0.5 -11.5t-9 3t-16.5 18zM120 142l21 -7l-7 -5v-6h50l11 10l17 -17h-78v-13h65
l13 9l17 -16h-178q-11 0 -20 -2l-9 9h99v13h-50q-10 0 -19 -2l-10 9h79q0 11 -1 18zM73 86h105l8 8l16 -11l-7 -5q0 -15 1 -30l-12 -5v7h-115v-4l-14 -3q1 13 1 24.5t-1 23.5zM84 50q14 -6 21 -12t-1.5 -12.5t-10.5 3t-11 19.5zM175 42q-11 -3 -28 -19h65l14 11l17 -18h-197
q-10 0 -19 -2l-10 9h123q11 13 18 28zM69 57h113v22h-113v-22zM119 177l12 -13h-51q-2 -3 -3 -6q32 -10 38 -15t3 -12.5t-10.5 1.5t-32.5 23q-14 -22 -52 -28l-1 4q33 9 44 33h-16q-13 0 -21 -3l-10 10h50q2 4 4 15l16 -8l-5 -2q-1 -4 -2 -5h29z" />
  </g>

</svg>
