<?xml version="1.0" standalone="no"?>
<!DOCTYPE svg PUBLIC "-//W3C//DTD SVG 1.1//EN" "http://www.w3.org/Graphics/SVG/1.1/DTD/svg11.dtd" >
<svg xmlns="http://www.w3.org/2000/svg" xmlns:xlink="http://www.w3.org/1999/xlink" version="1.1" viewBox="0 -36 256 256">
  <g transform="matrix(1 0 0 -1 0 220)">
   <path fill="currentColor"
d="M24 174q0 33 -1 68l15 -9h56l12 12l13 -19h-42v-29h11l11 10l13 -17h-35v-30h10l11 11l13 -18h-34v-29l21 1l8 8l14 -13l-8 -5q-5 -66 -8.5 -77t-8.5 -18t-17 -11q0 13 -26 19l1 4q24 -3 29 -2t9.5 17t7.5 71l-61 -2v-7l-15 -3q1 35 1 68zM38 197h25v29h-25v-29zM38 160
h25v30h-25v-30zM38 123l25 1v29h-25v-30zM23 91q5 -22 2.5 -31t-6.5 -13t-8.5 -0.5t2 13t6.5 31.5h4zM36 94q8 -11 11 -19.5t1.5 -15t-6.5 -7.5t-4 11t-6 30zM51 99q19 -16 22.5 -23t0 -11.5t-7.5 -5t-5 8.5t-12 29zM72 104q14 -9 18 -16.5t3 -12.5t-5.5 -7.5t-6.5 7
t-12 27.5zM158 135l19 -8l-5 -8v-39q-1 -28 -15.5 -45.5t-47.5 -27.5l-1 3q27 13 38 27.5t13 38.5q-22 -12 -33 -21l-9 11q4 7 4 12q0 52 -1 71l14 -8q24 11 33 21l12 -13q-13 -1 -45 -14v-62q13 4 25 8q0 39 -1 54zM201 14l-14 -6q1 46 1 92t-1 57l13 -8h25l9 9l12 -14
l-6 -5v-76q0 -12 -3 -17t-13 -7q-1 12 -19 17v4q13 -2 17.5 -2t3.5 5v79h-25v-128zM145 230v-21h69v21h-69zM145 202v-23h69v23h-69zM145 167l-14 -5q1 22 1 43.5t-1 40.5l14 -9h68l7 10l15 -14l-8 -7v-24q0 -16 1 -30l-14 -6v6h-69v-5z" />
  </g>

</svg>
