<?xml version="1.0" standalone="no"?>
<!DOCTYPE svg PUBLIC "-//W3C//DTD SVG 1.1//EN" "http://www.w3.org/Graphics/SVG/1.1/DTD/svg11.dtd" >
<svg xmlns="http://www.w3.org/2000/svg" xmlns:xlink="http://www.w3.org/1999/xlink" version="1.1" viewBox="0 -205 1024 1024">
  <g transform="matrix(1 0 0 -1 0 819)">
   <path fill="currentColor"
d="M620 458q3 -4 4 -4q4 -10 -10 -14q-12 -3 -20 -12q-10 -7 -34 -44h228l34 40l52 -44q9 -6 10 -12q0 -6 -30 -26v-190l4 -73q0 -14 -18 -26q-15 -12 -36 -12v58h-390v-40q0 -9 -18 -22q-18 -12 -36 -12l4 118v281l58 -40h110q15 50 28 98l60 -24v0v0zM414 123h390v101
h-390v-101v0v0zM414 250h390v108h-390v-108v0v0zM270 770h248l24 32l54 -38q6 -9 0 -14t-24 -16v-160l4 -48q-1 -17 -20 -28q-17 -9 -34 -8v82q-137 -66 -160 -86q-24 -20 -32 -34l-46 50l238 94v148h-204q-13 -3 -28 -8l-20 34v0v0zM340 720q48 -24 70 -42q21 -15 24 -36
q4 -18 -4 -30q-9 -14 -24 -12q-16 0 -20 22q-4 20 -14 38q-10 19 -40 50l8 10v0v0zM610 774h216l36 40l54 -44q8 -6 8 -12q0 -7 -32 -22v-182l4 -56q-1 -17 -20 -28q-17 -9 -34 -8v116q-124 -51 -148 -72q-24 -20 -32 -34l-48 44l228 90v142h-174q-21 -3 -36 -8l-22 34v0v0z
M658 718q51 -21 72 -36t28 -36t-4 -32q-10 -10 -26 -10q-16 1 -20 20q-3 18 -18 40q-11 20 -40 44l8 10v0v0zM866 866l44 54l66 -62l2 -4q0 -12 -8 -12h-730v-246q-5 -249 -46 -360q-39 -110 -150 -215l-12 12q81 102 114 201q33 96 40 276q-91 -88 -110 -128l-50 54
l162 102v380l56 -52h622v0v0zM480 980l6 14q65 -16 92 -28q26 -9 40 -30q12 -21 4 -38q-9 -18 -30 -20q-22 -1 -28 20q-7 20 -22 38q-13 14 -62 44v0v0zM48 764l12 8q45 -39 70 -74q21 -34 24 -64q3 -28 -8 -44q-10 -14 -22 -16q-11 -1 -22 8q-13 9 -10 36q0 27 -8 66
q-6 37 -36 80v0v0z" />
  </g>

</svg>
