<?xml version="1.0" standalone="no"?>
<!DOCTYPE svg PUBLIC "-//W3C//DTD SVG 1.1//EN" "http://www.w3.org/Graphics/SVG/1.1/DTD/svg11.dtd" >
<svg xmlns="http://www.w3.org/2000/svg" xmlns:xlink="http://www.w3.org/1999/xlink" version="1.1" viewBox="0 -36 256 256">
  <g transform="matrix(1 0 0 -1 0 220)">
   <path fill="currentColor"
d="M87 143h23v24h-23v-24zM74 246l22 -10l-8 -6v-11h25l10 11l13 -18h-48v-18h16l10 10l15 -17h-63q-10 0 -19 -2l-9 9h37v18h-22q-10 0 -19 -2l-9 9h50q0 18 -1 27zM123 134l-13 -5v7h-60q-2 -25 -35 -55l-3 3q18 21 22 37.5t4 32.5t-1 29l14 -9h59l6 8l13 -10l-6 -6v-32z
M51 143h23v24h-23v-24zM225.5 205q2.5 2 7.5 -5t-5 -9h-25q-17 -2 -17 12v23h-26q1 -14 -4 -26t-24 -25l-2 3q13 14 15.5 28.5t1.5 36.5l12 -10h27l7 10l13 -11l-7 -8v-15q-1 -6 8 -6h11q5 0 7.5 2zM185 144q8 -5 21 -10t35 -8v-4q-11 0 -16 -10q-28 9 -49 25
q-26 -19 -59 -23l-1 4q32 8 51 26q-13 14 -17 25l-7 -2l-7 10h57l6 9l16 -14l-9 -3q-9 -14 -21 -25zM175 151q9 8 16 19h-36q6 -9 20 -19zM207 81l-14 -6v6h-131l-4 -19h143l9 8l19 -13l-9 -3q-6 -12 -12 -22t-16.5 -16.5t-28.5 -7.5q2 11 -33 18l1 5q27 -5 40 -5.5t20 8.5
t12 21h-144l-9 -8l-12 12l6 5l5 29l13 -5h131v16h-117q-10 0 -19 -2l-9 9h144l6 8l15 -10l-6 -6v-22z" />
  </g>

</svg>
