<?xml version="1.0" standalone="no"?>
<!DOCTYPE svg PUBLIC "-//W3C//DTD SVG 1.1//EN" "http://www.w3.org/Graphics/SVG/1.1/DTD/svg11.dtd" >
<svg xmlns="http://www.w3.org/2000/svg" xmlns:xlink="http://www.w3.org/1999/xlink" version="1.1" viewBox="0 -205 1024 1024">
  <g transform="matrix(1 0 0 -1 0 819)">
   <path fill="currentColor"
d="M90 914h212v84l72 -26q8 -3 8 -8q0 -4 -8 -10l-26 -10v-30h122l28 38l46 -44q3 -1 6 -8q0 -10 -12 -10h-190v-72h94l30 34q46 -39 50 -44q4 -13 -12 -14h-288q-21 0 -56 -6l-18 30h154v72h-130q-42 0 -66 -8l-16 32v0v0zM812 984l50 -34q8 -6 8 -12q0 -1 -30 -26v-44
q0 -28 18 -28h52q21 3 30 10q6 6 10 4q3 -1 16 -14q9 -10 16 -16l4 -8q-1 -3 -14 -8q-12 -6 -32 -8h-86q-31 -1 -46 14q-12 15 -12 46v66h-136v-40q-7 -48 -34 -78q-26 -26 -88 -52l-8 12q57 36 72 66q15 27 12 64v76l50 -24h122l26 34v0v0zM414 504q-9 -1 -50 -32h336
l44 34q57 -46 58 -52t-4 -8q-4 0 -22 -6t-68 -36q-49 -31 -142 -76q68 -23 154 -46q84 -24 172 -26h94v-18q-36 -5 -56 -16q-21 -9 -32 -38q-75 15 -128 30q-54 16 -110 38q-54 20 -138 58q-102 -43 -230 -76q-129 -33 -234 -50l-4 16q103 30 194 54q92 24 236 82
q-71 51 -142 114q-45 -45 -92 -84q-48 -39 -102 -74l-8 12q66 62 112 110q45 47 114 140q68 -33 68 -38q0 -6 -6 -8q-6 -1 -14 -4v0v0zM374 448q74 -51 148 -96q76 36 170 96h-318v0v0zM426 234l6 12q74 -3 146 -18q69 -12 78 -42q9 -27 -12 -37q-21 -9 -38 13
q-16 24 -70 40t-110 32v0v0zM350 139l4 15q123 -6 202 -21q78 -14 108 -32t30 -42t-18 -30q-19 -6 -50 24q-30 30 -102 48t-174 38v0v0zM136 768l52 -30h248l24 28l50 -30q12 -6 12 -14q0 -4 -26 -26v-88q1 -15 -16 -24q-18 -7 -30 -8v26h-270q-7 -76 -46 -124
q-36 -48 -90 -80l-8 12q58 57 80 114q22 53 20 140v104v0v0zM184 630h112v80h-112v-80v0v0v0zM340 630h110v80h-110v-80v0v0zM546 744h308l22 20q50 -40 52 -46q0 -6 -2 -8q-4 -4 -16 -4q-11 0 -40 -24q-27 -24 -80 -66q40 -18 68 -36q27 -16 42 -34t12 -36q-3 -16 -14 -22
q-12 -4 -26 2q-11 5 -22 22q-10 17 -34 38q-24 18 -62 42q-43 -28 -94 -50q-49 -21 -98 -38l-6 12q48 26 90 50q42 23 72 46q-55 27 -142 60l6 14q93 -24 166 -50q42 32 96 86h-238q-22 -1 -40 -10l-20 32v0v0z" />
  </g>

</svg>
