<?xml version="1.0" standalone="no"?>
<!DOCTYPE svg PUBLIC "-//W3C//DTD SVG 1.1//EN" "http://www.w3.org/Graphics/SVG/1.1/DTD/svg11.dtd" >
<svg xmlns="http://www.w3.org/2000/svg" xmlns:xlink="http://www.w3.org/1999/xlink" version="1.1" viewBox="0 -36 256 256">
  <g transform="matrix(1 0 0 -1 0 220)">
   <path fill="currentColor"
d="M151 216h54l7 9l16 -12l-7 -6q0 -31 1 -66l-15 -6v9h-34v-34h44l7 10l16 -12l-8 -7v-54q2 -19 -20 -27q-1 14 -24 19v4q17 -1 24.5 -1t6.5 13v48h-46q0 -45 1 -89l-16 -7q1 47 1 96h-43v-74l-14 -7q1 28 1 50.5t-1 45.5l14 -8h43v34h-30v-7l-15 -5q1 22 1 44.5t-1 47.5
l15 -8h17q9 20 10 31l19 -10q-10 -3 -24 -21zM129 183h78v26h-78v-26zM129 151h78v25h-78v-25zM100 87l1 -4q-79 -35 -79 -43l-14 18q28 6 41 12v68h-7q-10 0 -19 -2l-9 9h35v64h-10q-10 0 -19 -2l-9 9h65l13 12l15 -19h-42v-64h12l13 12l14 -19h-39v-64z" />
  </g>

</svg>
