<?xml version="1.0" standalone="no"?>
<!DOCTYPE svg PUBLIC "-//W3C//DTD SVG 1.1//EN" "http://www.w3.org/Graphics/SVG/1.1/DTD/svg11.dtd" >
<svg xmlns="http://www.w3.org/2000/svg" xmlns:xlink="http://www.w3.org/1999/xlink" version="1.1" viewBox="0 -140 1000 1000">
  <g transform="matrix(1 0 0 -1 0 860)">
   <path fill="currentColor"
d="M496 660l332 31q-46 68 -95 113l12 12q59 -41 82 -58.5t53.5 -44t40.5 -46.5t10 -43q0 -44 -27 -44q-18 0 -31 28q-14 31 -35 66q-116 -26 -366 -69q-2 -11 -7 -24l61 -38h284q20 27 35 27q13 0 40 -21.5t27 -33.5q0 -15 -33 -23v-354q0 -34 -9 -47.5t-41 -24.5
q-29 -11 -49 -11q-11 0 -11 14q0 4 1 7q0 23 -10 26l-70 19l3 15q107 -12 116 -12q6 0 6 13v132h-292v-184q0 -28 -46 -28q-13 0 -15.5 2.5t-2.5 15.5v460q0 3 -2 19l-2 16q-4 -4 -11 -4q-20 0 -55 87l71 4q89 130 176 286q5 -3 43 -26q40 -25 40 -30q0 -9 -37 -10
q-91 -113 -186 -217zM523 394v-103h292v103h-292zM523 521v-105h292v105h-292zM447 855l-6 -16h-167v-267h51q1 3 4.5 12t5 13t4.5 9.5t6 8t6 2.5q17 0 64 -50l-4 -17h-137v-298l158 44v-19l-294 -118q-5 -29 -28 -29q-16 0 -42 69l142 39v312h-117v22h117v267h-136v22h254
q32 50 47 50q4 0 8.5 -2t10.5 -6t10.5 -7.5t11.5 -10t10.5 -10l11 -11z" />
  </g>

</svg>
