<?xml version="1.0" standalone="no"?>
<!DOCTYPE svg PUBLIC "-//W3C//DTD SVG 1.1//EN" "http://www.w3.org/Graphics/SVG/1.1/DTD/svg11.dtd" >
<svg xmlns="http://www.w3.org/2000/svg" xmlns:xlink="http://www.w3.org/1999/xlink" version="1.1" viewBox="0 -36 256 256">
  <g transform="matrix(1 0 0 -1 0 220)">
   <path fill="currentColor"
d="M145 114l-9 -8q14 -31 30.5 -47.5t36.5 -25.5t43 -10v-4q-18 -2 -23 -12q-64 21 -90 91q-10 -41 -41.5 -61.5t-79.5 -26.5v4q32 8 55.5 20.5t38 33.5t16.5 58zM48.5 91.5q8.5 14.5 14.5 34.5l17 -12q-7 -5 -14.5 -15t-21.5 -26q10 1 39 7q-6 14 -10 20l3 2q12 -9 18 -16
t6.5 -13t-5 -11t-7 -0.5t-3.5 12.5q-33 -8 -46 -18l-8 18q9 3 17.5 17.5zM174 89q6 12 13 38l17 -12q-9 -8 -28 -38l36 6q-7 12 -12 19l2 3q16 -11 23.5 -19.5t8 -14.5t-5 -11t-7 -1t-7.5 19q-36 -11 -42 -20l-12 17q8 2 14 14zM102.5 226q7.5 -6 -4.5 -20h51q13 24 17 41
l20 -13q-8 -3 -15 -11t-15 -17h48l15 15l20 -22h-104v-26h60l13 12l18 -19h-91v-30h77l12 14l18 -21h-197q-10 0 -19 -3l-9 10h104v30h-60q-6 -2 -15 -4l-9 11h84v26h-67q-10 -1 -19 -2l-9 9h66q-5 18 -23 36l3 2q23 -12 30.5 -18z" />
  </g>

</svg>
