<?xml version="1.0" standalone="no"?>
<!DOCTYPE svg PUBLIC "-//W3C//DTD SVG 1.1//EN" "http://www.w3.org/Graphics/SVG/1.1/DTD/svg11.dtd" >
<svg xmlns="http://www.w3.org/2000/svg" xmlns:xlink="http://www.w3.org/1999/xlink" version="1.1" viewBox="0 -36 256 256">
  <g transform="matrix(1 0 0 -1 0 220)">
   <path fill="currentColor"
d="M209 207l14 13l18 -20h-197q-10 0 -19 -2l-9 9h113q-2 23 -20 35l2 3q23 -7 30.5 -16.5t-4.5 -21.5h72zM41 184l23 -8l-7 -7v-47h140q0 46 -1 66l24 -9l-8 -7q0 -39 1 -59l-16 -8v10h-139l-9 -9l-14 14l7 5q0 45 -1 59zM143 29q10 16 21 38t15 38l23 -19
q-11 -2 -27.5 -24.5t-23.5 -32.5h60l15 13l19 -20h-205q-10 0 -19 -2l-9 9h131zM102 60.5q2 -11.5 -5 -20.5t-10.5 8t-24.5 45l3 2q35 -23 37 -34.5z" />
  </g>

</svg>
