<?xml version="1.0" standalone="no"?>
<!DOCTYPE svg PUBLIC "-//W3C//DTD SVG 1.1//EN" "http://www.w3.org/Graphics/SVG/1.1/DTD/svg11.dtd" >
<svg xmlns="http://www.w3.org/2000/svg" xmlns:xlink="http://www.w3.org/1999/xlink" version="1.1" viewBox="0 -205 1024 1024">
  <g transform="matrix(1 0 0 -1 0 819)">
   <path fill="currentColor"
d="M166 569q-15 -11 -18 10q-8 13 -21 29q-7 8 2 12q15 6 28 30q23 42 39 72h-50q-29 -1 -63 -11q-5 -1 -6 2q-13 21 -23 37q-6 9 7 6q65 -11 74 -11h27v152q0 50 -7 96q-1 12 3 13q5 2 12 -7q11 -14 39 -36h184q6 1 13 5l28 25q4 5 10 1q45 -21 67 -37q6 -4 6 -10
q-1 -6 -13 -7h-294v-52h155q6 0 12 4l26 24q5 4 9 1q42 -21 63 -36q6 -3 6 -9q-2 -6 -12 -7h-259v-52h155q6 0 12 4l26 24q5 4 9 1q42 -21 63 -36q6 -3 6 -9q-2 -6 -12 -7h-259v-45h236q12 0 18 6l25 26q5 5 12 1q33 -18 63 -36q9 -5 8 -12t-13 -8h-308q-34 -45 -83 -97
q57 3 102 13q35 9 92 17q-3 6 -6 10q-12 18 -33 30q-8 7 -4 14q4 8 17 1q49 -20 77 -42q20 -17 21 -27q1 -23 -9 -36l-9 -9q-8 -6 -11 -6q-5 -1 -14 18q-5 9 -8 16q-152 -23 -217 -55zM913 765q22 -31 52 -53q9 -9 6 -13t-16 -3q-22 2 -46 -2q-39 -7 -117 -32
q-124 -41 -238 -62q-17 -3 -18 7q-2 10 10 13q144 43 231 80q72 33 121 64q11 8 15 1zM827 993q20 -28 48 -49q8 -8 7 -12q-3 -4 -15 -3q-21 2 -43 -2q-27 -6 -81 -22q-87 -29 -166 -42q-16 -4 -17 6q-2 9 10 12q101 34 159 62q50 26 83 48q11 9 15 2zM866 882
q22 -27 50 -48q9 -8 6 -12q-2 -4 -15 -3q-21 1 -42 -3q-30 -6 -90 -27q-95 -34 -182 -52q-16 -4 -17 6q-1 9 9 12q111 40 175 71q55 28 92 55q10 8 14 1zM488 69q-14 -10 -24 1q-6 11 8 25q15 12 36 31q69 46 84 178h-196q-1 -27 -10 -42q109 -66 102 -94q-3 -25 -19 -35
q-17 -12 -23 -11q-7 1 -11 22q-16 57 -58 91q-10 -14 -21 -26q-29 -45 -167 -109q0 -30 -10 -36q-27 -14 -39 -15q-6 1 -5 20q4 30 7 96v112q-1 32 -7 78q-2 10 1 11q1 0 40 -31h173q3 36 1 63h-185q-42 -1 -73 -7q-9 -3 -10 6q-5 18 -20 31q-8 7 -4 11q4 3 11 -1
q38 -9 84 -9h673q14 1 30 19l26 27q7 9 16 0q71 -53 70 -68q-2 -8 -15 -9h-311q3 -33 -1 -63h160q9 0 10 1l25 33q2 4 6 4t8 -4q31 -25 55 -50q7 -8 -9 -14q-24 -10 -27 -14q-3 -6 -3 -13v-164q0 -34 -18 -49t-45 -25q-9 -4 -13 5q-9 11 -31 17q-22 16 -71 20q-12 2 -11 12
q1 9 14 8q114 -5 120 -2q7 4 7 25v179h-178q-4 -29 -10 -46q73 -25 128 -62q21 -24 17 -46q-3 -25 -19 -35q-17 -12 -23 -11q-7 1 -11 23q-34 67 -97 105q-36 -102 -137 -163zM593 335q3 31 1 63h-196q3 -28 -1 -63h196zM190 141q35 15 79 45q58 33 78 118h-157v-163z
M676 469q1 -9 -6 -13q-44 -21 -47 -20q-4 3 -1 13q3 25 4 44h-212q1 -16 2 -28q1 -9 -6 -13q-44 -21 -47 -20q-4 3 -1 13q3 25 4 48h-205q-42 -1 -73 -7q-9 -3 -10 6q-5 18 -20 31q-8 7 -4 11q4 3 11 -1q38 -9 84 -9h217q-1 30 -4 55q-4 14 0 18q5 3 15 -1q38 -16 62 -28
q5 -3 5 -7q-2 -5 -6 -6q-15 -3 -19 -10q-4 -8 -5 -21h212q-1 30 -4 55q-4 14 0 18q5 3 15 -1q38 -16 62 -28q5 -3 5 -7q-2 -5 -6 -6q-15 -3 -19 -10q-4 -8 -5 -21h156q14 1 30 19l26 27q7 9 16 0q71 -53 70 -68q-2 -8 -15 -9h-283q1 -17 2 -24z" />
  </g>

</svg>
