<?xml version="1.0" standalone="no"?>
<!DOCTYPE svg PUBLIC "-//W3C//DTD SVG 1.1//EN" "http://www.w3.org/Graphics/SVG/1.1/DTD/svg11.dtd" >
<svg xmlns="http://www.w3.org/2000/svg" xmlns:xlink="http://www.w3.org/1999/xlink" version="1.1" viewBox="0 -205 1024 1024">
  <g transform="matrix(1 0 0 -1 0 819)">
   <path fill="currentColor"
d="M488 850l54 -32h50q26 75 50 138l60 -26q9 -8 0 -16q-22 -9 -44 -36q-21 -27 -38 -60h214l30 36l60 -36q6 -4 6 -8q1 -6 -34 -32v-98l4 -54q0 -16 -14 -26q-14 -9 -40 -12v28h-306v-90h336l38 44l58 -56q6 -15 -8 -14h-424v-88h366l32 34l58 -46q3 -8 -2 -16l-28 -18
q-6 -81 -12 -144q-6 -64 -18 -101q-10 -39 -40 -64q-28 -23 -70 -38q-7 35 -34 52q-28 15 -80 32l6 18q66 -17 96 -20q30 -2 48 4q18 7 28 34q9 23 16 87q5 61 10 158h-376v-24q-3 -9 -20 -18q-18 -8 -36 -10l4 140v378v0v0zM540 646h306v144h-306v-144v0v0zM496 294h20
q1 -56 2 -100q-1 -45 -16 -69t-36 -28t-30 6q-9 9 -6 24q3 12 18 27q15 12 28 40q13 27 20 100v0v0zM564 288l12 8q37 -42 50 -68q11 -27 14 -48q1 -21 -10 -36q-13 -11 -28 -7q-16 3 -16 33q1 29 -4 56q-3 25 -18 62v0v0zM758 326l12 10q51 -33 76 -60q23 -24 26 -44
q1 -20 -10 -34q-10 -13 -28 -8q-15 6 -18 30q-1 24 -16 52q-15 24 -42 54v0v0zM656 306l12 8q47 -36 68 -60q18 -24 22 -44t-10 -34q-13 -16 -28 -10t-18 36q0 30 -12 48q-10 19 -34 56v0v0zM72 772l48 -28h88v228l76 -34q10 -6 2 -18l-26 -16v-160h70l26 34l54 -40
q12 -9 4 -14l-24 -22v-232l4 -58q3 -15 -12 -26q-12 -12 -42 -14v46h-80v-196l102 22q-24 44 -54 92l14 10q64 -60 86 -86q20 -25 28 -46q6 -22 0 -40q-5 -19 -22 -22q-18 -3 -26 6q-7 6 -8 24q-1 14 -8 38q-231 -67 -254 -76q-23 -8 -52 -31l-38 59l180 40v206h-86v-36
q0 -12 -18 -24t-36 -12l4 72v354v0v0zM122 444h86v274h-86v-274v0v0zM260 718v-274h80v274h-80v0v0z" />
  </g>

</svg>
