<?xml version="1.0" standalone="no"?>
<!DOCTYPE svg PUBLIC "-//W3C//DTD SVG 1.1//EN" "http://www.w3.org/Graphics/SVG/1.1/DTD/svg11.dtd" >
<svg xmlns="http://www.w3.org/2000/svg" xmlns:xlink="http://www.w3.org/1999/xlink" version="1.1" viewBox="0 -205 1024 1024">
  <g transform="matrix(1 0 0 -1 0 819)">
   <path fill="currentColor"
d="M468 472h194v118l82 -30q10 -4 8 -10q0 -4 -8 -8l-30 -16v-54h92l34 44l56 -52q2 -3 2 -8q1 -10 -10 -10h-174v-100h86l34 44l58 -52q3 -3 4 -8q4 -10 -10 -10h-172v-104h166l36 52l60 -60q3 -3 6 -8q0 -12 -12 -12h-256v-48l4 -77q-1 -12 -22 -24q-20 -12 -40 -12l6 113
v48h-144q-18 0 -60 -8l-24 36h228v104h-98q-21 1 -56 -10l-26 36h180v100h-110q-21 0 -60 -8l-24 34v0v0zM668 944q3 -3 4 -6q2 -3 -4 -8q-24 -3 -36 -18q-10 -12 -32 -42h202l38 38l60 -54q9 -6 6 -8q3 -6 -18 -12t-36 -24q-16 -18 -44 -48q-27 -30 -78 -78q35 -30 86 -50
q50 -19 92 -28q41 -10 94 -10v-18q-36 -3 -50 -14q-15 -10 -26 -34q-72 26 -126 56q-55 30 -100 70q-40 -33 -104 -72q-63 -36 -174 -78l-8 14q99 48 150 84q51 33 108 82q-62 62 -100 134q-52 -84 -128 -174l-14 8q54 94 94 176q39 81 70 154l74 -40v0v0zM582 844
q39 -67 114 -134q66 62 114 134h-228v0v0zM154 624h164l32 40l56 -54q2 0 2 -6q1 -7 -4 -8h-134v-148h74l30 42l58 -52q3 0 4 -6q0 -13 -14 -10h-152v-258l146 136l14 -18q-168 -163 -192 -225l-64 46q27 21 48 51v268h-88q-19 0 -58 -8l-18 34h164v148h-32l-18 -8l-18 36v0
v0zM298 930q10 -3 8 -12q-4 -3 -16 -8q-29 -9 -40 -36q-26 -55 -40 -88h134l38 42l58 -54q2 -3 2 -6q0 -7 -6 -8h-236q-28 -72 -68 -146q-37 -74 -80 -130l-12 8q67 141 110 264q42 123 70 210l78 -36v0v0z" />
  </g>

</svg>
