<?xml version="1.0" standalone="no"?>
<!DOCTYPE svg PUBLIC "-//W3C//DTD SVG 1.1//EN" "http://www.w3.org/Graphics/SVG/1.1/DTD/svg11.dtd" >
<svg xmlns="http://www.w3.org/2000/svg" xmlns:xlink="http://www.w3.org/1999/xlink" version="1.1" viewBox="0 -205 1048 1024">
  <g transform="matrix(1 0 0 -1 0 819)">
   <path fill="currentColor"
d="M249 735h-97v-268h97v268zM394 735h-100v-268h100v268zM382 753l29 30l36 -30q17 -12 13 -14q-3 -13 -22 -20v-308q2 -12 0 -16q-3 -5 -18 -13q-21 -4 -26 2q-3 4 -2 21l2 23v20h-100v-250l104 31q-12 23 -31 50t-34 45l9 9q64 -48 95.5 -87t35.5 -72q3 -19 -1 -39
q-3 -11 -10 -15q-8 -5 -16 1q-6 5 -13 16l-12 36q-8 18 -15 43l-275 -108q2 -29 -4 -38q-7 -9 -28 24l-27 47l177 46v261h-97v-70q3 -14 0 -18q-4 -5 -20 -11q-19 -6 -26 -2q-3 2 -1 20l3 34v326l-4 52l57 -26h88v215l55 -14q21 -6 18 -14q-4 -7 -28 -16v-171h88zM870 906
l32 32l50 -37q20 -16 15 -28q-4 -10 -30 -13v-246q3 -16 0 -22q-4 -8 -19 -13q-25 -3 -31 7q-3 8 -2 30l1 14h-305v-73q1 -175 -30 -299.5t-98 -198.5l-10 10q53 76 73 203t19 280q0 47 -4 182l-7 204l58 -32h288zM886 646v245h-305v-245h305z" />
  </g>

</svg>
