<?xml version="1.0" standalone="no"?>
<!DOCTYPE svg PUBLIC "-//W3C//DTD SVG 1.1//EN" "http://www.w3.org/Graphics/SVG/1.1/DTD/svg11.dtd" >
<svg xmlns="http://www.w3.org/2000/svg" xmlns:xlink="http://www.w3.org/1999/xlink" version="1.1" viewBox="0 -150 1000 1000">
  <g transform="matrix(1 0 0 -1 0 850)">
   <path fill="currentColor"
d="M197 366l8 9q26 -24 44.5 -54.5t16.5 -54.5q-1 -27 -15.5 -29.5t-15.5 24t-9 50.5q-6 23 -29 55zM131 352l9 5q24 -40 36 -72q10 -32 5 -55q-7 -23 -22.5 -20.5t-9.5 24.5q5 24 2 43.5t-7 33.5q-3 12 -13 41zM273 384l8 8q34 -35 52 -61t16.5 -52t-15.5 -25
q-15 -1 -16.5 21.5t-9.5 42.5q-3 14 -35 66zM86 347h12v-77q-2 -30 -9 -53q-7 -25 -24 -34t-23.5 5.5t8.5 30.5q14 14 23 44q7 28 13 84zM132 586v-130h121v130h-121zM132 879v-130h121v130h-121zM132 733v-131h121v131h-121zM862 419l60 -47q6 -6 6 -9.5t-6 -4.5
q-28 3 -59 -16q-25 -18 -104 -66q10 -20 34 -51q32 -44 66 -69.5t99 -49.5l-1 -15q-26 0 -42 2t-35 -19q-46 34 -92 92q-44 55 -70 124q-30 67 -46 178h-85v-347l148 69l10 -15l-113 -71q-48 -25 -67 -65l-51 47q25 12 32 29v353h-33q-20 -3 -33 -13l-30 33h108v388
q3 20 -19 42l11 14l43 -34h197l31 39l67 -49q8 -6 6.5 -8.5t-11.5 -1.5h-282v-124h165l32 39l66 -49q8 -5 6.5 -6.5t-12.5 0.5h-257v-118h169l32 40l67 -50q8 -5 6.5 -6t-13.5 0h-261v-116h264l32 38l67 -48q8 -6 6 -8.5t-12 -1.5h-264q31 -118 46 -149q5 -13 11 -25
q6 5 17 13q20 16 49.5 41t37.5 42q5 11 -2 21zM93 931l31 -32h251l29 36l53 -44q8 -6 6.5 -9t-12.5 -3h-163v-130h60l28 34l52 -38q7 -6 5.5 -9t-11.5 -3h-134v-131h62l33 41l47 -45q7 -6 5.5 -9t-11.5 -3h-136v-130h89l25 28l43 -28q9 -6 9 -11t-9 -8l-15 -12v-153
q-2 -93 -20 -134q-17 -43 -51 -67q-29 -21 -85 -34q0 16 -15 31q-27 17 -78 32l2 15q76 -24 117 -24q26 0 56 29q33 30 38 131v185h-262v-12q0 -21 -9.5 -29.5t-33.5 -13.5q2 13 4 35q2 17 3 23v448q2 14 -15 32z" />
  </g>

</svg>
