<?xml version="1.0" standalone="no"?>
<!DOCTYPE svg PUBLIC "-//W3C//DTD SVG 1.1//EN" "http://www.w3.org/Graphics/SVG/1.1/DTD/svg11.dtd" >
<svg xmlns="http://www.w3.org/2000/svg" xmlns:xlink="http://www.w3.org/1999/xlink" version="1.1" viewBox="0 -205 1024 1024">
  <g transform="matrix(1 0 0 -1 0 819)">
   <path fill="currentColor"
d="M442 582l64 -28h304l30 32l62 -44q6 -7 6 -10q0 -7 -30 -28v-120l4 -84q-1 -12 -16 -24q-12 -12 -42 -14v38h-136v-94h158l30 38l58 -46q3 -3 4 -6q0 -12 -12 -12h-238v-101h206l34 40l62 -48q3 -4 4 -8q0 -8 -12 -8h-550q-21 1 -68 -8l-16 32h286v101h-142q-21 0 -68 -8
l-16 34h226v94h-138v-14q0 -13 -18 -22q-16 -10 -40 -10l4 112v216v0v0zM496 326h138v88h-138v-88v0v0zM688 414v-88h136v88h-136v0v0zM496 440h138v88h-138v-88v0v0zM688 528v-88h136v88h-136v0v0zM36 414h154v184l86 -36q8 -4 8 -8q3 -1 -2 -10l-38 -16v-114h70l34 42
l48 -48q4 -3 8 -14q2 -7 -10 -8h-150v-194l156 46l8 -18q-187 -75 -250 -99q-64 -25 -88 -62l-48 64l168 53v210h-70q-21 0 -68 -8l-16 36v0v0zM166 938h632l30 38l66 -44q3 -3 4 -8q-1 -12 -16 -12h-344v-72h346l34 36l54 -48q12 -9 12 -14q-3 -6 -18 -8q-25 -9 -44 -24
q-18 -15 -66 -72l-16 8l52 96h-354v-124l4 -54q0 -15 -18 -30t-42 -14l4 92v130h-336q-6 -65 -20 -88q-15 -23 -32 -34q-18 -10 -32 -4q-13 5 -16 20q-4 14 16 34q18 17 36 44q16 26 26 100h18l2 -46h338v72h-236q-21 0 -68 -8l-16 34v0v0zM204 750h210v-26h-210v26v0v0z
M202 652h204v-26h-204v26v0v0zM610 750h202v-26h-202v26v0v0zM614 654h198v-26h-198v26v0v0z" />
  </g>

</svg>
