<?xml version="1.0" standalone="no"?>
<!DOCTYPE svg PUBLIC "-//W3C//DTD SVG 1.1//EN" "http://www.w3.org/Graphics/SVG/1.1/DTD/svg11.dtd" >
<svg xmlns="http://www.w3.org/2000/svg" xmlns:xlink="http://www.w3.org/1999/xlink" version="1.1" viewBox="0 -205 1024 1024">
  <g transform="matrix(1 0 0 -1 0 819)">
   <path fill="currentColor"
d="M398 690h240v120h-140q-20 0 -34 -6l-26 32h200v148l82 -36q6 -4 6 -8q2 -6 -4 -8l-34 -14v-82h124l32 36l52 -40q8 -6 8 -12q1 -6 -28 -26v-104h44l28 40l56 -46q3 -3 4 -8q0 -12 -12 -12h-120v-54l4 -72q0 -15 -20 -26q-19 -10 -34 -10v30h-138v-122h132l36 44l56 -54
q3 -3 4 -8q0 -7 -12 -8h-216v-116h196l38 48l54 -52q3 -3 4 -8q0 -12 -12 -12h-280v-90l4 -85q0 -13 -20 -26q-21 -14 -38 -14l4 123v92h-176q-21 0 -68 -8l-24 32h268v116h-138q-21 0 -66 -8l-20 34h224v122h-126q-23 -1 -46 -10l-26 36h198v106h-164q-21 0 -54 -8l-22 34
v0v0zM688 664v-106h138v106h-138v0v0zM688 810v-120h138v120h-138v0v0zM32 850h286l36 48l62 -54q3 -4 4 -8q0 -12 -12 -12h-168q-24 -93 -48 -168h120l26 40l56 -44q9 -6 10 -12q-1 -6 -34 -24q-43 -203 -88 -292t-108 -166q-61 -76 -142 -125l-8 12q83 76 140 157
q54 81 90 162q34 80 68 268h-138q-18 -60 -38 -102q42 -18 66 -36q22 -19 26 -40q4 -22 0 -34q-5 -11 -16 -16q-9 -7 -18 2t-14 30q-6 20 -18 40q-11 20 -34 38q-36 -91 -102 -170l-10 8q55 108 92 210q36 101 70 262h-72q-21 0 -68 -8l-16 34v0v0z" />
  </g>

</svg>
