<?xml version="1.0" standalone="no"?>
<!DOCTYPE svg PUBLIC "-//W3C//DTD SVG 1.1//EN" "http://www.w3.org/Graphics/SVG/1.1/DTD/svg11.dtd" >
<svg xmlns="http://www.w3.org/2000/svg" xmlns:xlink="http://www.w3.org/1999/xlink" version="1.1" viewBox="0 -205 1024 1024">
  <g transform="matrix(1 0 0 -1 0 819)">
   <path fill="currentColor"
d="M452 822h212v154l82 -32q6 -3 6 -6t-6 -8l-30 -16v-92h118l40 50l60 -58q2 -3 2 -8q0 -10 -12 -10h-208v-132h178l38 50l60 -58q3 0 4 -6q0 -12 -12 -12h-496q-21 0 -68 -8l-16 34h260v132h-128q-18 0 -66 -8l-18 34v0v0zM532 516q-40 -39 -100 -84l-12 14q60 66 142 178
q61 -38 62 -46q0 -6 -12 -8q-12 -3 -26 -8q-12 -7 -54 -46v0v0zM742 612q66 -30 114 -54t72 -50q21 -25 16 -46q-4 -22 -22 -26q-18 -3 -36 22q-16 24 -44 54q-27 26 -108 86l8 14v0v0zM664 494q6 -3 6 -6t-6 -6q-15 -5 -26 -16q-12 -9 -32 -42h172l26 30l60 -46q9 -7 6 -10
q1 -6 -22 -12q-21 -16 -48 -68t-80 -116q24 -22 70 -44q42 -20 90 -35q48 -12 108 -16v-20q-33 1 -54 -8q-21 -6 -42 -36q-48 24 -102 54t-102 77q-58 -50 -140 -89q-81 -38 -198 -62l-4 18q115 39 188 80q72 37 124 83q-57 79 -84 176q-69 -97 -126 -154l-14 10
q47 69 88 138q41 66 76 154l66 -34v0v0zM596 400q17 -76 92 -166q42 45 94 166h-186v0v0zM306 928q9 -9 -6 -14q-19 -8 -28 -16q-9 -7 -56 -82t-106 -150l154 -2q57 87 84 142l68 -52q2 -9 -10 -12l-30 -18q-13 -7 -80 -94q-65 -84 -166 -194l210 14q-23 57 -52 106l12 10
q53 -51 80 -90q26 -38 28 -64q1 -24 -10 -36q-10 -9 -22 -12t-18 6q-7 7 -8 20t-4 38q-93 -10 -156 -22q-64 -13 -100 -34l-36 68q27 3 58 18q52 59 140 184q-71 -8 -106 -16q-36 -5 -66 -22l-38 64q30 3 48 22q17 17 68 116q48 99 76 168l72 -46v0v0zM110 314h22
q9 -80 6 -136q-4 -55 -22 -81t-36 -28t-30 4q-13 7 -14 22q-1 16 20 34q21 16 30 37q8 19 14 50t10 98v0v0zM194 336l16 6q48 -81 60 -120q13 -36 8 -66q-6 -26 -24 -33t-30 4q-13 8 -8 37q7 29 2 74q-6 43 -24 98v0v0zM304 352l12 10q72 -78 88 -114q15 -37 12 -58
q-1 -22 -16 -34q-12 -10 -30 -4q-16 6 -16 34q0 25 -8 62q-6 37 -42 104v0v0z" />
  </g>

</svg>
