<?xml version="1.0" standalone="no"?>
<!DOCTYPE svg PUBLIC "-//W3C//DTD SVG 1.1//EN" "http://www.w3.org/Graphics/SVG/1.1/DTD/svg11.dtd" >
<svg xmlns="http://www.w3.org/2000/svg" xmlns:xlink="http://www.w3.org/1999/xlink" version="1.1" viewBox="0 -205 1024 1024">
  <g transform="matrix(1 0 0 -1 0 819)">
   <path fill="currentColor"
d="M412 860h242v126l82 -30q7 -2 6 -10q0 -3 -6 -6l-32 -18v-62h150l36 50l62 -58l6 -6q4 -12 -12 -12h-242v-96h116l34 44l56 -52q2 0 2 -6q0 -12 -8 -12h-200v-96h182l38 46l62 -52q3 -3 4 -8q0 -12 -12 -12h-502q-21 0 -68 -8l-28 34h274v96h-102q-21 0 -68 -8l-16 34
h186v96h-166q-21 0 -60 -8l-16 34v0v0zM482 538l58 -40h290l26 36l54 -38q8 -3 8 -12q0 -7 -26 -26v-359q0 -32 -18 -52q-16 -18 -58 -34q-12 32 -44 46q-34 12 -94 30l4 16q72 -12 102 -16q30 -3 42 0q13 3 14 30v119h-306v-90l4 -83q-1 -14 -22 -28q-19 -15 -38 -16l4 125
v392v0v0zM534 262h306v92h-306v-92v0v0zM534 378h306v96h-306v-96v0v0zM294 914q13 -7 8 -14q0 -6 -12 -8q-14 -3 -28 -14q-12 -12 -68 -134h108l30 38l58 -44q6 -6 6 -8q1 -7 -34 -34v-450l4 -82q0 -13 -18 -27t-36 -16v75h-172v-79q0 -15 -20 -30q-19 -14 -34 -14l4 123
v590l58 -42h16q39 107 60 202l70 -32v0v0zM140 224h172v236h-172v-236v0v0zM140 488h172v228h-172v-228v0v0z" />
  </g>

</svg>
