<?xml version="1.0" standalone="no"?>
<!DOCTYPE svg PUBLIC "-//W3C//DTD SVG 1.1//EN" "http://www.w3.org/Graphics/SVG/1.1/DTD/svg11.dtd" >
<svg xmlns="http://www.w3.org/2000/svg" xmlns:xlink="http://www.w3.org/1999/xlink" version="1.1" viewBox="0 -36 256 256">
  <g transform="matrix(1 0 0 -1 0 220)">
   <path fill="currentColor"
d="M87 161l-7 -14q32 -12 44 -20t14 -16.5t-3 -15.5t-14.5 10.5t-42.5 36.5q-7 -13 -24 -28.5t-37 -25.5l-2 5q27 20 40.5 41.5t14.5 40.5l24 -10zM88 93l-6 -15q31 -14 45.5 -25.5t9.5 -26.5t-12 -2.5t-16 23.5t-29 25q-8 -16 -21.5 -30.5t-44.5 -29.5l-2 5
q21 12 35.5 30.5t19.5 36t5 25.5l22 -12zM213 220q6 -6 5 -12.5t-4.5 -10t-10 8.5t-26.5 29l2 3q28 -12 34 -18zM187 76q19 -34 35 -39l15 48l4 -1q-9 -57 -4 -75q-44 19 -64 59t-24 112h-108q-13 0 -22 -2l-9 9h139q-1 44 -1 58l24 -12l-8 -7v-39h50l14 14l17 -21h-81
q4 -70 23 -104z" />
  </g>

</svg>
