<?xml version="1.0" standalone="no"?>
<!DOCTYPE svg PUBLIC "-//W3C//DTD SVG 1.1//EN" "http://www.w3.org/Graphics/SVG/1.1/DTD/svg11.dtd" >
<svg xmlns="http://www.w3.org/2000/svg" xmlns:xlink="http://www.w3.org/1999/xlink" version="1.1" viewBox="0 -154 1024 1024">
  <g transform="matrix(1 0 0 -1 0 870)">
   <path fill="currentColor"
d="M775 821h-194v-111h194v111zM652 566h-153v-164h153v164zM696 402h158v164h-158v-164zM754 997l85 -36q14 -5 6 -11q-21 -8 -30 -21v-88h82l32 40l68 -50q17 -10 -6 -10h-176v-33l4 -86q-3 -39 -44 -44v32h-79v-108h139l33 39l50 -43q14 -12 -6 -17l-18 -9v-39l5 -138
q2 -30 -45 -36v47h-158v-126h193l23 40l80 -46q22 -16 -11 -14h-285v-151l2 -37q0 -38 -53 -44q5 37 7 116v116h-188q-27 1 -45 -13l-34 33h267v126h-153v-11q3 -38 -47 -44q5 37 7 148v95q-3 19 -20 36l12 15l45 -43h156v108h-71v-3q-2 -38 -47 -44q5 37 7 128v50h-89
q-27 1 -45 -13l-34 33h168v98q2 16 -30 46l9 12l85 -36q6 -5 6 -11q-21 -8 -30 -21v-88h194v98q2 16 -30 46zM126 661h147v198h-147v-198zM273 421h-147v-204h147v204zM273 645h-147v-208h147v208zM79 923l39 -44h136l39 39l44 -48q14 -11 -6 -16l-18 -9v-582l3 -106
q-1 -34 -43 -33v73h-147v-70q3 -39 -47 -44q5 37 7 139v647q2 17 -19 38z" />
  </g>

</svg>
