<?xml version="1.0" standalone="no"?>
<!DOCTYPE svg PUBLIC "-//W3C//DTD SVG 1.1//EN" "http://www.w3.org/Graphics/SVG/1.1/DTD/svg11.dtd" >
<svg xmlns="http://www.w3.org/2000/svg" xmlns:xlink="http://www.w3.org/1999/xlink" version="1.1" viewBox="0 -205 1024 1024">
  <g transform="matrix(1 0 0 -1 0 819)">
   <path fill="currentColor"
d="M152 796q61 -37 80 -64q19 -28 14 -52q-5 -25 -28 -28q-21 -2 -24 24q-3 27 -12 48q-7 21 -40 64l10 8v0v0zM50 840h366l40 50l62 -56q3 -3 4 -12q0 -7 -12 -8h-394q-15 0 -50 -6l-16 32v0v0zM204 990q63 -27 90 -54q26 -27 20 -54q-6 -25 -26 -28q-21 -1 -26 20
q-6 21 -14 42q-7 20 -52 64l8 10v0v0zM430 772q6 -3 6 -8q1 -7 -10 -10q-18 -6 -32 -24q-15 -16 -60 -94h126l24 36l50 -44q11 -9 14 -18q0 -3 -12 -6q-33 -9 -50 -24q-16 -15 -46 -50l-14 10l38 70h-358q0 -42 -18 -66q-18 -25 -36 -26q-17 -1 -28 16q-10 15 14 34
q22 17 32 44q10 23 14 74h18q2 -36 2 -50h204q33 81 60 162l62 -26v0v0zM330 564q8 -3 8 -6q3 -5 -2 -10l-34 -16v-62h92l24 36l60 -38q8 -6 8 -12t-26 -26v-196q0 -22 -14 -40q-15 -19 -54 -34q-9 35 -18 44q-6 8 -48 22l4 16q42 -7 54 -10q11 -1 20 8q9 8 6 32v172h-108
v-272l4 -95q-1 -12 -22 -24q-21 -13 -36 -12l4 137v266h-98v-144l4 -92q0 -12 -20 -24q-18 -13 -36 -14l4 128v198l52 -26h94v118l78 -24v0v0zM558 798l58 -34h60l30 126h-122q-32 -3 -46 -12l-34 38h384l42 48l58 -56q12 -12 -8 -18h-214l-64 -126h162l24 40l66 -44l4 -8
q0 -6 -32 -30v-374l4 -80q0 -13 -18 -22q-15 -9 -36 -12v46h-266v-12q-1 -15 -16 -24q-16 -10 -40 -10l4 112v452v0v0zM610 306h266v128h-266v-128v0v0zM610 460h266v130h-266v-130v0v0zM610 616h266v122h-266v-122v0v0zM426 37q141 105 234 213l66 -38q9 -7 -2 -16
q-28 -1 -40 -8t-56 -41q-45 -37 -192 -126l-10 16v0v0zM774 218l8 16q87 -36 136 -62q48 -23 66 -53q17 -27 8 -48q-9 -18 -26 -18q-15 -1 -30 22q-15 24 -48 60q-33 31 -114 83v0v0z" />
  </g>

</svg>
