<?xml version="1.0" standalone="no"?>
<!DOCTYPE svg PUBLIC "-//W3C//DTD SVG 1.1//EN" "http://www.w3.org/Graphics/SVG/1.1/DTD/svg11.dtd" >
<svg xmlns="http://www.w3.org/2000/svg" xmlns:xlink="http://www.w3.org/1999/xlink" version="1.1" viewBox="0 -36 256 256">
  <g transform="matrix(1 0 0 -1 0 220)">
   <path fill="currentColor"
d="M56 165q-10 -70 -45 -118l-3 2q27 54 35 120h-4q-10 -1 -19 -3l-9 10h32l6 9l14 -12zM65 246l21 -9l-7 -8v-76q26 35 28 46l15 -14q-9 -5 -17.5 -14t-25.5 -23v-10q29 -26 34.5 -36.5t0 -20.5t-10.5 6.5t-24 44.5v-99q0 -18 -20 -26q-2 13 -24 21v4q15 -2 23 -2.5t8 9.5
v176q0 21 -1 31zM118.5 81q7.5 33 7.5 62.5v54.5t-1 38l15 -7h72l7 10l14 -10l-6 -7q0 -42 1 -46l-15 -5v9h-73q1 -61 -10 -101t-39 -70l-2 2q22 37 29.5 70zM140 187h73v35h-73v-35zM237 78q0 -24 2.5 -33.5t8.5 -12.5q-8 -12 -18 -12h-13q-19 0 -19 21l2 91l-23 -2
q-1 -40 -13.5 -71t-39.5 -51l-2 3q19 21 30 52t12 66l-12 -2q-1 -1 -3 -2l-7 8l22 2q0 20 -1 41l22 -9l-8 -7v-24l23 2l7 9l13 -11l-7 -7l-2 -82q-1 -16 9 -15h6q7 0 7 46h4z" />
  </g>

</svg>
