<?xml version="1.0" standalone="no"?>
<!DOCTYPE svg PUBLIC "-//W3C//DTD SVG 1.1//EN" "http://www.w3.org/Graphics/SVG/1.1/DTD/svg11.dtd" >
<svg xmlns="http://www.w3.org/2000/svg" xmlns:xlink="http://www.w3.org/1999/xlink" version="1.1" viewBox="0 -36 256 256">
  <g transform="matrix(1 0 0 -1 0 220)">
   <path fill="currentColor"
d="M118 246l23 -7l-7 -7v-21h60l12 12l19 -19h-91v-37h81l13 11l17 -18h-203q-11 0 -20 -2l-9 9h106v41q0 16 -1 38zM196 139l7 9l17 -11l-7 -7v-13q0 -13 1 -34l-17 -5v10h-130v-3q-2 -47 -49 -78l-2 3q36 32 36 83v23q0 13 -1 30l16 -7h129zM67 95h130v37h-130v-37z" />
  </g>

</svg>
