<?xml version="1.0" standalone="no"?>
<!DOCTYPE svg PUBLIC "-//W3C//DTD SVG 1.1//EN" "http://www.w3.org/Graphics/SVG/1.1/DTD/svg11.dtd" >
<svg xmlns="http://www.w3.org/2000/svg" xmlns:xlink="http://www.w3.org/1999/xlink" version="1.1" viewBox="0 -205 1024 1024">
  <g transform="matrix(1 0 0 -1 0 819)">
   <path fill="currentColor"
d="M512 710h208l12 136l68 -24q19 -9 2 -20l-24 -10l-8 -82h138l30 40l62 -52q3 -3 4 -6q0 -7 -8 -8h-228l-10 -126h112l30 42l56 -44q6 -5 6 -10t-32 -28v-362l4 -95q0 -12 -18 -24q-19 -12 -34 -12v68h-274v-36q0 -14 -20 -26q-18 -13 -32 -14l4 133v454l62 -46h86l12 126
h-138q-24 -6 -42 -12l-28 38v0v0zM608 119h274v123h-274v-123v0v0zM608 268h274v116h-274v-116v0v0zM608 410h274v122h-274v-122v0v0zM918 902q-258 -33 -432 -50v-248q2 -127 -10 -236q-11 -105 -46 -192q-33 -83 -108 -157l-10 8q60 96 82 165q21 69 34 178q12 108 10 222
v332l52 -52q246 35 420 92l52 -54q7 -12 -10 -12q-20 3 -34 4v0v0v0zM100 940l58 -44h132l30 40l62 -42q9 -10 -2 -22l-24 -18v-544l4 -130q0 -12 -18 -26q-15 -14 -36 -17v75h-158v-72q0 -11 -20 -27q-19 -13 -32 -14l4 189v652v0v0zM148 238h158v190h-158v-190v0v0z
M148 454h158v200h-158v-200v0v0zM148 680h158v190h-158v-190v0v0z" />
  </g>

</svg>
