<?xml version="1.0" standalone="no"?>
<!DOCTYPE svg PUBLIC "-//W3C//DTD SVG 1.1//EN" "http://www.w3.org/Graphics/SVG/1.1/DTD/svg11.dtd" >
<svg xmlns="http://www.w3.org/2000/svg" xmlns:xlink="http://www.w3.org/1999/xlink" version="1.1" viewBox="0 -36 256 256">
  <g transform="matrix(1 0 0 -1 0 220)">
   <path fill="currentColor"
d="M82.5 184.5q5.5 -7.5 1.5 -17.5t-9.5 2.5t-19.5 27.5l3 3q19 -8 24.5 -15.5zM167 172l-3 2q19 16 28 32l13 -14l-10 -3q-12 -9 -28 -17zM57 166q6 -7 2 -17t-10 3t-19 27l2 2q19 -8 25 -15zM192 157l-2 2q21 15 30 31l15 -15l-9 -2q-11 -7 -34 -16zM120 140h52l13 12
l17 -19h-58q19 -30 46.5 -47t55.5 -18v-4q-17 -2 -18 -12q-32 11 -54.5 32t-36.5 49h-18q-18 -39 -47 -57.5t-57 -23.5l-1 5q31 8 54.5 28.5t35.5 47.5h-23q-10 0 -19 -2l-9 9h53q6 22 6 31l20 -7l-7 -5q-3 -9 -5 -19zM77.5 113.5q7.5 -5.5 4.5 -15.5t-10 1t-24 21l2 4
q20 -5 27.5 -10.5zM162 96l-2 4q21 14 31 28l15 -13l-9 -2q-12 -7 -35 -17zM57 93q7 -7 2 -15.5t-9 2t-22 24.5l3 4q19 -8 26 -15zM180 81l-2 3q21 15 31 29l16 -13l-10 -3q-12 -7 -35 -16zM127 71q0 7 -3.5 12.5t-10.5 12.5l2 4q20 -10 23 -15.5t-3 -13.5h28l12 8l14 -15
h-97v-28q1 -7 8 -7h66q7 1 11 2.5t9.5 -3.5t5.5 -7t-18 -3h-75q-19 -2 -19 18v28h-3q-3 0 -10 -2l-7 9h67zM124 211q-18 -67 -111 -88l-2 3q80 24 98 85h-59q-11 1 -20 -2l-9 9h89q3 18 2 29l20 -7q-5 -7 -5 -11t-2 -11h74l15 12l18 -19h-97q31 -54 107 -61v-4
q-19 0 -24 -13q-64 20 -89 78h-5z" />
  </g>

</svg>
