<?xml version="1.0" standalone="no"?>
<!DOCTYPE svg PUBLIC "-//W3C//DTD SVG 1.1//EN" "http://www.w3.org/Graphics/SVG/1.1/DTD/svg11.dtd" >
<svg xmlns="http://www.w3.org/2000/svg" xmlns:xlink="http://www.w3.org/1999/xlink" version="1.1" viewBox="0 -36 256 256">
  <g transform="matrix(1 0 0 -1 0 220)">
   <path fill="currentColor"
d="M102 160l-14 -9v12h-18v-45h13l10 11l13 -18h-36v-58l35 10l1 -4q-35 -13 -75 -32l-10 -9l-12 18l15 4q0 77 -1 99l22 -14l-8 -7v-73l20 5v113h-19v-6l-14 -8q1 15 1 44.5t-1 46.5l16 -9h45l10 10l13 -15l-7 -6q0 -39 1 -60zM38 170h50v54h-50v-54zM140 171h28v53h-28
v-53zM181 171h30v53h-30v-53zM140 115h28v49h-28v-49zM181 115h30v49h-30v-49zM206.5 29q5.5 0 4.5 10v69h-71v-92l-14 -8v99q-7 0 -12 -2l-8 10h20q0 100 -1 124l15 -8h70l9 8l13 -13l-7 -6v-105h1l11 10l12 -17h-24v-78q0 -17 -16 -23q-4 15 -24 19v4q16 -1 21.5 -1z" />
  </g>

</svg>
