<?xml version="1.0" standalone="no"?>
<!DOCTYPE svg PUBLIC "-//W3C//DTD SVG 1.1//EN" "http://www.w3.org/Graphics/SVG/1.1/DTD/svg11.dtd" >
<svg xmlns="http://www.w3.org/2000/svg" xmlns:xlink="http://www.w3.org/1999/xlink" version="1.1" viewBox="0 -205 1024 1024">
  <g transform="matrix(1 0 0 -1 0 819)">
   <path fill="currentColor"
d="M474 820q-124 -11 -374 -28l-2 18q315 38 474 68q159 27 216 54q50 -65 50 -76q0 -10 -8 -10q-7 0 -26 6q-19 3 -112 -8q-93 -12 -218 -24v0v0zM96 588h612l48 46q75 -60 78 -66q3 -5 0 -10q1 -3 -16 -6q-45 -8 -66 -22q-18 -12 -66 -42q-48 -29 -170 -100
q-120 -69 -270 -152q69 -52 114 -70q45 -19 94 -27q48 -7 102 -8q57 0 288 8l150 15v-23q-64 -6 -94 -34l-16 -22h-136h-160q-161 10 -214 38q-54 26 -84 51q-30 26 -54 40q-25 15 -68 -20q-42 -33 -78 -93l-58 61q65 34 146 80q153 88 246 146q93 56 268 182h-532
q-21 1 -36 -10l-28 38v0v0zM396 766l8 12q42 -18 82 -38q40 -19 56 -40q15 -19 18 -40t-8 -36q-11 -14 -28 -12q-15 2 -20 14t-16 36q-12 22 -26 44q-12 21 -66 60v0v0z" />
  </g>

</svg>
