<?xml version="1.0" standalone="no"?>
<!DOCTYPE svg PUBLIC "-//W3C//DTD SVG 1.1//EN" "http://www.w3.org/Graphics/SVG/1.1/DTD/svg11.dtd" >
<svg xmlns="http://www.w3.org/2000/svg" xmlns:xlink="http://www.w3.org/1999/xlink" version="1.1" viewBox="0 -205 1048 1024">
  <g transform="matrix(1 0 0 -1 0 819)">
   <path fill="currentColor"
d="M484 852h75v81l-3 42l50 -10q28 -4 27 -11q-1 -8 -29 -15v-87h159v78l-3 41l52 -12q28 -7 27 -14t-33 -14v-79h60l44 42l56 -39q13 -9 11 -15q-2 -5 -24 -5h-147v-116q-1 -5 0 -9q0 -2 1 -6q2 -8 0 -10q-4 -4 -22 -8q-17 -4 -21 0q-2 3 -2 16l1 20h-159v-15q2 -13 -1 -17
q-4 -6 -20 -10q-20 -3 -24 2q-3 3 -1 18l1 15v120h-62l-75 -4l-9 24zM513 640h366l43 42l52 -38q12 -10 9 -15t-19 -6h-239q8 -10 6 -14q-3 -5 -26 -8v-80h135l29 27l41 -32q16 -12 14 -20q-3 -8 -33 -8v-224v-10q1 -10 -1 -14q-4 -7 -18 -13q-20 -6 -25 -1q-4 3 -2 17l1 13
h-334l-1 -12q-1 -10 -3 -13q-4 -6 -16 -10q-22 -5 -26 -1q-3 3 -1 19l2 16v238l-5 58l48 -30h148v102h-127l-110 -4l-8 25zM512 401h146v104h-146v-104zM512 274h146v111h-146v-111zM705 274h141v111h-141v-111zM705 401h141v104h-141v-104zM754 209q86 -21 143 -54
q53 -30 65 -59q4 -26 -8 -34q-12 -10 -29 15q-23 24 -61 52q-52 38 -115 67zM604 739h159v96h-159v-96zM602 207q21 -18 20 -24q-2 -6 -35 0q-57 -39 -120 -71q-61 -31 -131 -56l-6 11q68 36 124 74q57 41 112 92zM224 988l64 -19q33 -9 25 -15q-4 -5 -31 -11l-8 -2v-88h74
l38 40l49 -36q14 -10 7 -16q-4 -5 -19 -5h-259l-66 -4l-12 23l62 -2h82v89zM118 625h143l42 120l26 72l55 -26q18 -8 14 -15q-5 -8 -36 -6l-72 -125l-10 -20h73l50 51l53 -44q15 -12 11 -18q-4 -5 -28 -5h-307l-64 -4l-13 22zM127 533l49 -31h142l29 27l40 -29
q27 -20 15 -29q-6 -5 -25 -5v-287v-17q1 -21 -2 -27q-4 -8 -22 -15q-16 -4 -19 5q-3 5 -2 25l1 20h-158v-20q1 -20 -2 -26q-3 -10 -17 -16q-20 -6 -25 1q-3 5 -2 23l1 11v337zM175 351h158v135h-158v-135zM175 186h158v149h-158v-149zM130 812q55 -52 75 -86q19 -34 14 -69
q-6 -23 -19 -29q-17 -5 -23 25q-4 32 -18 70q-16 43 -37 82z" />
  </g>

</svg>
