<?xml version="1.0" standalone="no"?>
<!DOCTYPE svg PUBLIC "-//W3C//DTD SVG 1.1//EN" "http://www.w3.org/Graphics/SVG/1.1/DTD/svg11.dtd" >
<svg xmlns="http://www.w3.org/2000/svg" xmlns:xlink="http://www.w3.org/1999/xlink" version="1.1" viewBox="0 -36 256 256">
  <g transform="matrix(1 0 0 -1 0 220)">
   <path fill="currentColor"
d="M101 85l1 -5q-66 -29 -80 -41l-12 18q17 2 40 11v81h-8q-10 0 -19 -2l-10 9h37v42q0 17 -1 37l22 -10l-7 -7v-62h10l11 10l14 -17h-35v-77zM152 224q-5 -4 -19 -24t-41 -37l-2 3q19 17 29.5 34t16.5 34zM164 231l-7 -2l-8 9h24l6 7l11 -8l-7 -7q9 -21 26 -36t36 -18v-3
q-15 -3 -19 -11q-14 7 -28.5 24.5t-21.5 44.5h-12zM200 153q-6 11 -14 20l4 3q17 -14 24.5 -23t1 -16.5t-8.5 -1.5t-5 12q-57 -6 -67 -8t-16 -6l-9 18q13 1 28 21.5t19 33.5l15 -13q-7 -4 -16.5 -15.5t-26.5 -27.5zM113 111q-10 0 -17 -2l-8 9h122l13 10l15 -17h-99l-5 -25
h48l7 9l14 -11l-7 -7q-3 -35 -3 -44t11 -9h10q7 0 9 9.5t2 27.5h4q0 -35 10 -38q-5 -7 -11.5 -8.5t-7.5 -1.5h-18q-23 0 -22.5 15.5t3.5 50.5h-51l-12 -49q23 3 47 8l1 -5q-35 -9 -62 -21l-10 15l11 1q11 49 18 83h-12zM141 74q21 -9 25 -14q6 -3 1 -15q-5 -4 -9 6
q-6 10 -19 20z" />
  </g>

</svg>
