<?xml version="1.0" standalone="no"?>
<!DOCTYPE svg PUBLIC "-//W3C//DTD SVG 1.1//EN" "http://www.w3.org/Graphics/SVG/1.1/DTD/svg11.dtd" >
<svg xmlns="http://www.w3.org/2000/svg" xmlns:xlink="http://www.w3.org/1999/xlink" version="1.1" viewBox="0 -246 2048 2048">
  <g transform="matrix(1 0 0 -1 0 1802)">
   <path fill="currentColor"
d="M512 502q77 -120 244 -172q197 -59 600 -59q266 0 600 30q-47 -63 -59 -141h-484q-459 0 -667 72q-171 58 -261 207q-102 -123 -244 -246q0 -86 -26 -86q-38 0 -121 166q157 63 307 170v438h-278l-21 51h283l76 96q119 -97 119 -125q0 -11 -21 -26l-47 -31v-344zM839 490
v711q189 -6 189 -47q0 -26 -76 -53v-611h264v996q191 -7 191 -48q0 -25 -76 -53v-352h291l88 121q87 -83 127 -135l-23 -37h-483v-492h383l92 123q71 -65 123 -133l-27 -41h-1262l-24 51h223zM1445 1649h-376v-203h-111v203h-303l-23 51h326v217q193 0 193 -45
q0 -26 -82 -53v-119h376v217q187 -3 187 -47q0 -24 -76 -51v-119h145l88 121q87 -83 127 -135l-22 -37h-338v-166h-111v166zM514 1559q-42 0 -67 65q-47 119 -197 226l28 37q308 -108 308 -252q0 -76 -72 -76zM423 1174q-45 0 -63 55q-45 128 -190 242l28 37
q151 -56 230 -138q65 -65 65 -122q0 -74 -70 -74z" />
  </g>

</svg>
