<?xml version="1.0" standalone="no"?>
<!DOCTYPE svg PUBLIC "-//W3C//DTD SVG 1.1//EN" "http://www.w3.org/Graphics/SVG/1.1/DTD/svg11.dtd" >
<svg xmlns="http://www.w3.org/2000/svg" xmlns:xlink="http://www.w3.org/1999/xlink" version="1.1" viewBox="0 -154 1024 1024">
  <g transform="matrix(1 0 0 -1 0 870)">
   <path fill="currentColor"
d="M634 635l73 -34q13 -5 6 -11q-16 -5 -26 -18v-55h104l30 40l64 -51q16 -6 -6 -6h-192v-126h155l30 36l64 -42q15 -10 -6 -10h-411q-25 1 -42 -13l-30 29h203v126h-110q-25 1 -43 -13l-32 30h185v65q2 16 -24 42zM636 350l73 -34q12 -5 6 -11q-16 -5 -26 -18v-51h115
l30 40l64 -50q10 -7 -5 -6h-204v-138h189l30 36l64 -46q15 -6 -6 -6h-513q-25 1 -42 -13l-32 29h273v138h-120q-25 1 -42 -13l-32 29h194v61q2 16 -24 42zM417 893q3 22 -19 39l6 7l74 -32q16 -5 7 -12q-19 -5 -30 -18v-94h182v154q1 16 -24 42l8 11l73 -35q12 -4 6 -10
q-16 -5 -26 -18v-144h175v97q3 16 -28 46l9 12l90 -41q3 0 -5 -6q-19 -8 -28 -21v-62l4 -39q-3 -39 -42 -46v40h-382l-33 -40l-45 38q24 20 28 40v92zM390 694l35 -25h447l22 32l57 -40q16 -13 -6 -13h-497v-210q-4 -109 -44 -221q-38 -112 -119 -193l-9 12q134 187 130 418
v188q-3 22 -25 41zM296 566h-128v-321h128v321zM26 886h262l29 37l64 -42q23 -19 -12 -16h-142q-10 -86 -31 -171q-15 -52 -34 -107h122l31 36l47 -44q14 -14 -6 -18l-20 -9v-246l5 -78q3 -55 -8 -64q-9 -8 -37 -11v71h-128v-83q1 -20 -9 -30q-10 -9 -39 -17q6 41 8 134v277
q-41 -89 -99 -148l-13 7q38 52 75 135q16 41 33 89q-7 21 -15 36l16 11l9 -12q10 29 17 59q23 94 33 183h-74q-28 0 -48 -13z" />
  </g>

</svg>
