<?xml version="1.0" standalone="no"?>
<!DOCTYPE svg PUBLIC "-//W3C//DTD SVG 1.1//EN" "http://www.w3.org/Graphics/SVG/1.1/DTD/svg11.dtd" >
<svg xmlns="http://www.w3.org/2000/svg" xmlns:xlink="http://www.w3.org/1999/xlink" version="1.1" viewBox="0 -36 256 256">
  <g transform="matrix(1 0 0 -1 0 220)">
   <path fill="currentColor"
d="M118 153l-9 -6l-9 -21h64l3 19l16 -5l-4 -14h39l11 11l16 -18h-67q-10 -35 -30 -58q60 -15 76 -22t17.5 -21t-16.5 0.5t-84 33.5q-20 -19 -54.5 -30t-68.5 -13v5q76 13 109 42q-40 12 -66 18q11 18 22 45h-43q-11 0 -20 -3l-10 10h75q10 22 12 38zM75 77q40 -6 61 -11
q19 21 26 53h-65q-9 -21 -22 -42zM72 231l-12 -24h49l11 12l16 -19h-61q15 -7 21.5 -12.5t7.5 -11.5t-4.5 -12t-8.5 1.5t-7.5 15.5t-13.5 19h-13q-15 -26 -43 -46l-3 2q18 20 31 44t18 46l21 -11zM172 229l-9 -22h53l11 12l15 -19h-62q18 -10 26 -16.5t7 -14t-6.5 -10.5
t-9 8.5t-24.5 32.5h-14q-21 -31 -38 -43l-2 3q17 21 28.5 45.5t12.5 39.5l22 -11z" />
  </g>

</svg>
