<?xml version="1.0" standalone="no"?>
<!DOCTYPE svg PUBLIC "-//W3C//DTD SVG 1.1//EN" "http://www.w3.org/Graphics/SVG/1.1/DTD/svg11.dtd" >
<svg xmlns="http://www.w3.org/2000/svg" xmlns:xlink="http://www.w3.org/1999/xlink" version="1.1" viewBox="0 -36 256 256">
  <g transform="matrix(1 0 0 -1 0 220)">
   <path fill="currentColor"
d="M101 156l-14 -8v12h-15v-46h16l12 11l14 -18h-42v-59l37 11l1 -4q-38 -15 -77 -32l-11 -8l-13 16l16 4q0 78 -1 100l22 -14l-7 -7v-75l20 6v115h-24v-7l-15 -7q1 14 1 43.5t-1 48.5l16 -10h50l11 9l11 -14l-8 -6q0 -40 1 -61zM35 167h52v54h-52v-54zM131.5 217
q10.5 17 11.5 31l20 -10q-7 -4 -16 -18h76l10 10l15 -15l-8 -5q-3 -51 -4.5 -61t-5.5 -16t-19 -11q2 11 -25 20v4q25 -4 29.5 -3.5t6 9t4.5 61.5h-83q-15 -18 -35 -33l-3 2q16 18 26.5 35zM147 136.5q-14 -9.5 -39 -15.5l-2 3q22 7 33 16.5t16 17.5h-17l-5 -4l-14 8l7 5
q0 21 -1 29l20 -8l-6 -6v-17h17q3 19 1 40l20 -7q-4 -4 -5 -12t-3 -21h22q0 23 -1 31l20 -9l-6 -6q0 -12 1 -24l-14 -6v7h-23q-7 -12 -21 -21.5zM152 138l17 -11q-9 -3 -21 -14h75l10 10l14 -13l-8 -5q-2 -39 -3.5 -56.5t-7.5 -27t-23 -13.5q2 11 -26 19l1 4q27 -4 33 -3.5
t8 14t4 64.5h-82q-21 -16 -41 -27l-2 3q32 23 52 56zM155 98l22 -9l-7 -6l-2 -26h24q0 19 -1 31l20 -8l-6 -5q0 -12 1 -27l-14 -6v8h-25q-5 -15 -24 -25.5t-50 -15.5l-1 4q22 6 39 15.5t23 21.5h-17l-8 -5l-11 10l6 4q0 17 -1 28l21 -9l-7 -5v-16h18q2 20 0 41z" />
  </g>

</svg>
