<?xml version="1.0" standalone="no"?>
<!DOCTYPE svg PUBLIC "-//W3C//DTD SVG 1.1//EN" "http://www.w3.org/Graphics/SVG/1.1/DTD/svg11.dtd" >
<svg xmlns="http://www.w3.org/2000/svg" xmlns:xlink="http://www.w3.org/1999/xlink" version="1.1" viewBox="0 0 2048 2048">
  <g transform="matrix(1 0 0 -1 0 2048)">
   <path fill="currentColor"
d="M437 546l41 17q15 6 98 37t115 48l46 24l17 -38l-85 -57q-47 -31 -95 -57q-47 -26 -171 -81t-141 -61l-45 -18q-7 -29 -9 -42q-3 -13 -8 -25q-6 -12 -24 -14q-19 -2 -33 30l-69 147q17 1 36 4q20 3 97 20t92 22l44 12v576h-30q-116 0 -178 -7l-14 -1l-38 88q13 -4 31 -8
q17 -4 42 -6l157 -8l30 -3v489h-41l-161 -5q-15 -1 -18 -1l-13 -2l-38 88q13 -4 27 -7t67 -9q52 -6 136 -6l247 -1l91 91l114 -94q7 -7 13 -15t3 -19q-4 -11 -12 -14q-9 -4 -27 -4l-294 -2v-489h110l89 92l106 -95q19 -18 13.5 -36t-20.5 -17l-298 1v-544zM1187 1055h-132
q-109 0 -143 -4q-35 -4 -36 -4l-13 -1l-38 88q13 -4 28.5 -7.5t62.5 -9.5q46 -6 139 -6h149l14 42q7 23 20 83q13 61 18 89l12 73l125 -36q35 -11 46 -19t11 -19q-1 -16 -13 -22q-12 -5 -29 -10l-50 -15q-13 -40 -24 -81q-12 -40 -14 -46l-13 -39h451l98 100l121 -107
q10 -10 14 -15t1 -18q-4 -13 -13 -16h-20l-672 -1l-21 -53q-11 -28 -26 -57q-16 -30 -42 -76q-27 -47 -35 -58l-21 -31l20 -13h516l68 77l85 -55q20 -14 29 -24q9 -11 10 -25q0 -14 -11 -26q-8 -9 -31 -19l-35 -16v-430l34 -27q17 -15 20 -19q3 -5 2 -16q-3 -13 -9 -16
q-6 -4 -9 -4h-677v-54q0 -14 -6 -22q-6 -9 -22 -14q-17 -6 -41 -4q-12 0 -21 5q-10 5 -14 17q-5 11 -3 31q0 7 3 51q2 44 6 86q3 43 3 60v351l-33 -33q-17 -16 -58 -52q-41 -35 -74 -60q-33 -24 -74 -50l-40 -26l-24 33l41 34q23 19 58 51q35 31 70.5 68.5t68.5 79.5
q34 43 69 94q35 52 57 95l39 81q17 34 19 41zM1154 221h543v486h-543v-486zM1714 1583l-22 -201q-5 -39 -10 -51t-14 -19q-10 -6 -23 -7q-12 -2 -29 2q-16 4 -21 12t-3 24l24 240h-13q-48 0 -82 -4t-35 -4l-13 -1l-38 88q13 -4 25 -6q11 -3 62 -10q50 -6 81 -6h19l13 123
l5 71l4 59l137 -34q17 -5 25 -11q9 -5 10 -20q2 -15 -8 -24q-11 -8 -31 -13l-42 -12l-15 -139h80l80 82l114 -86q8 -7 14 -14q5 -8 2 -20q-4 -11 -12 -15t-14 -4h-270zM1155 1587l18 -203q1 -20 -1 -29t-11 -17q-9 -7 -33 -13q-23 -6 -36 2q-12 6 -16 15q-3 9 -3 23l-16 222
h-50q-79 0 -111 -4q-33 -4 -34 -4l-14 -1l-38 88q14 -4 28 -7q13 -3 64 -9q50 -6 105 -6h45l-8 106q-6 73 -6 76l-9 60l132 -18q20 -3 31 -10q12 -8 15 -25t-27 -29l-40 -17l10 -143h46l80 82l114 -86q8 -7 14 -14q5 -8 2 -20q-4 -11 -12 -15t-14 -4h-225z" />
  </g>

</svg>
