<?xml version="1.0" standalone="no"?>
<!DOCTYPE svg PUBLIC "-//W3C//DTD SVG 1.1//EN" "http://www.w3.org/Graphics/SVG/1.1/DTD/svg11.dtd" >
<svg xmlns="http://www.w3.org/2000/svg" xmlns:xlink="http://www.w3.org/1999/xlink" version="1.1" viewBox="0 -36 256 256">
  <g transform="matrix(1 0 0 -1 0 220)">
   <path fill="currentColor"
d="M105 134q0 19 -1 38l14 -6h19v30h-14q-10 0 -19 -2l-9 9h42q0 27 -1 43l22 -10l-9 -8v-25h17l11 10l15 -17h-43v-30h17l8 9l14 -13l-8 -6q0 -33 1 -52l-13 -7v7h-19v-11q25 -13 32.5 -22t6.5 -17t-5 -10.5t-9.5 11.5t-24.5 33q0 -52 1 -72l-14 -8q1 33 1 81
q-8 -18 -25.5 -38t-29.5 -28l-2 3q14 14 28.5 36.5t22.5 41.5h-14v-4l-13 -6q1 21 1 40zM117 111h20v48h-20v-48zM149 111h19v48h-19v-48zM209 105q0 -16 1 -32l-14 -9q1 29 1 70.5t-1 58.5l18 -11l-5 -7v-70zM226 208q0 17 -1 39l21 -11l-8 -9v-187q0 -24 -18 -33
q-1 17 -25 22v4q23 -3 27.5 -1t3.5 13v163zM38 244q15 -12 22 -22.5t-2 -23.5h14l12 12l16 -19h-62q-10 0 -19 -2l-9 9h42q-4 21 -17 44zM35 41h31v43h-31v-43zM58 162l13 10l15 -17h-40q-11 1 -19 -2l-7 9h38zM57 125l12 10l16 -17h-38q-10 1 -18 -2l-7 9h35zM79 50
q0 -11 1 -22l-14 -6v12h-31v-13l-14 -7q1 21 1 43t-1 42l14 -8h31l8 10l12 -14l-7 -5v-32z" />
  </g>

</svg>
