<?xml version="1.0" standalone="no"?>
<!DOCTYPE svg PUBLIC "-//W3C//DTD SVG 1.1//EN" "http://www.w3.org/Graphics/SVG/1.1/DTD/svg11.dtd" >
<svg xmlns="http://www.w3.org/2000/svg" xmlns:xlink="http://www.w3.org/1999/xlink" version="1.1" viewBox="0 -36 256 256">
  <g transform="matrix(1 0 0 -1 0 220)">
   <path fill="currentColor"
d="M37 166h21v35h-21v-35zM70 166h24v35h-24v-35zM64 104q-14 -59 -54 -96l-2 3q35 44 46 108h-17v-6l-14 -7q1 29 1 60t-1 50l11 -8h10q10 23 14 40l18 -11l-6 -3q-14 -17 -20 -26h43l6 9l13 -9l-6 -8q0 -66 1 -85l-13 -4v8h-27zM37 126h19q2 15 2 33h-21v-33zM68 126h26
v33h-24q0 -18 -2 -33zM106 102q-5 -3 -10.5 -14t-8.5 -18l16 4q-4 7 -6 10l2 2q15 -9 16 -15t-3 -11t-7 9q-15 -5 -20 -11l-7 14q3 -2 9 14.5t6 22.5zM63 121h13v-81q0 -13 9 -13h14q6 0 7 6t2 20h4q0 -10 2 -16.5t6 -8.5q-5 -12 -15 -12h-25q-17 0 -17 22v83zM159 244l3 3
q22 -10 24 -16t-5 -14h38l10 10l15 -16h-25q-17 -24 -35 -39q28 -15 63 -17v-3q-12 -4 -15 -12q-33 9 -56 24q-30 -21 -64 -30l-1 4q34 14 56 33q-16 21 -26 39h-2q-9 0 -17 -2l-8 9h63q-1 4 -4.5 11t-13.5 16zM203 210h-56q17 -22 29 -31q15 15 27 31zM134 104q0 19 -1 38
l19 -8l-6 -5v-10h67v12l-1 12l20 -10l-6 -5v-76q0 -19 1 -38l-14 -6v72h-67q1 -43 -33 -73l-3 3q23 28 24 65v29zM146 87h67v25h-67v-25zM185 83v-22v-47l-12 -6v75h12zM155 74l15 -9l-6 -5q-11 -21 -25 -36l-3 2q13 21 19 48zM189 72q27 -25 20.5 -37t-9.5 2t-13 32z" />
  </g>

</svg>
