<?xml version="1.0" standalone="no"?>
<!DOCTYPE svg PUBLIC "-//W3C//DTD SVG 1.1//EN" "http://www.w3.org/Graphics/SVG/1.1/DTD/svg11.dtd" >
<svg xmlns="http://www.w3.org/2000/svg" xmlns:xlink="http://www.w3.org/1999/xlink" version="1.1" viewBox="0 -36 256 256">
  <g transform="matrix(1 0 0 -1 0 220)">
   <path fill="currentColor"
d="M171 246l21 -9l-8 -6v-31h7q16 25 18 38l19 -13q-9 -3 -17 -11.5t-14 -13.5h21l12 10l15 -17h-135q-10 0 -20 -2l-9 9h51q0 36 -1 47l21 -10l-8 -4v-33h28q0 35 -1 46zM95 240q22 -9 26 -18t-2 -16t-8 -0.5t-6 15t-12 16.5zM95 44v78q1 0 -10 -3l-9 10h76v14h-23
q-10 0 -19 -2l-9 9h51v16h-30q-10 0 -19 -2l-10 9h78q9 14 11 21l15 -8q-7 -2 -12 -5.5t-9 -7.5h24l10 9l15 -16h-60v-16h31l10 9l13 -16h-54v-14h54l12 10l15 -17h-96q0 -101 1 -111l-14 -4q1 9 1 39q-15 -4 -31 -9.5t-22 -10.5l-10 14zM215 102h-39q9 -29 20 -41
q13 21 19 41zM223 118l15 -15l-9 -3q-14 -29 -26 -47q26 -25 44 -27v-4q-13 -4 -15 -10q-20 12 -35 32q-20 -24 -43 -34l-1 3q24 19 35 38q-11 20 -18 51l-9 -2l-6 9h59zM138 122h-30v-20h30v20zM138 75v19h-30v-19h30zM138 68h-30v-22l30 6v16zM128 195q11 -5 15.5 -10.5
t-1 -10.5t-7.5 2.5t-9 15.5zM47 246l22 -10l-8 -8v-49h6l9 10l13 -17h-28v-37l22 15l2 -5l-24 -21v-87q1 -23 -22 -30q4 10 -20 16v5q14 -1 21.5 -1t7.5 12v73q-24 -19 -25 -25l-15 16q14 6 40 24v45h-21l-6 -3l-9 10h36q0 37 -1 67z" />
  </g>

</svg>
