<?xml version="1.0" standalone="no"?>
<!DOCTYPE svg PUBLIC "-//W3C//DTD SVG 1.1//EN" "http://www.w3.org/Graphics/SVG/1.1/DTD/svg11.dtd" >
<svg xmlns="http://www.w3.org/2000/svg" xmlns:xlink="http://www.w3.org/1999/xlink" version="1.1" viewBox="0 -36 256 256">
  <g transform="matrix(1 0 0 -1 0 220)">
   <path fill="currentColor"
d="M204 185v-7h-52v7h52zM122 210h-81q0 -7 -4 -11t-10 -5t-10 2t6 8.5t14 18.5h4v-6h81v12h-51q-10 -1 -20 -3l-10 10h153l13 8l15 -15h-87v-12h87l8 7l15 -12q-12 -1 -28 -15l-3 2l8 11h-87q0 -26 2 -33l-16 -2q1 7 1 35zM106 203v-7h-51v7h51zM202 203v-7h-50v7h50z
M106 185v-7h-53v7h53zM103 161l11 9l16 -16h-85q-12 0 -15 -2l-10 9h83zM48 134q0 6 -1 17l11 -4h35l5 5l11 -8l-6 -5q0 -10 1 -14l-10 -3v3h-36v-1l-11 -3q1 7 1 13zM58 132h36v8h-36v-8zM24 98.5q0 15.5 -1 24.5l12 -4h80l6 6l11 -9l-5 -4v-38l-11 -2v1h-81v7h81v32h-81
v-38l-12 -4q1 13 1 28.5zM103 86l-10 -3v3h-36v-2l-10 -2q1 6 1 14.5t-1 14.5l10 -4h36l5 7l11 -9l-7 -4q0 -11 1 -15zM57 93h36v7h-36v-7zM80.5 168.5q3.5 -4.5 -0.5 -9t-8 2.5t-10 12l1 3q14 -4 17.5 -8.5zM211 169l13 -10l-5 -6q0 -14 1 -25l-13 -7v7h-46v-5l-12 -2
q1 20 0 48l12 -7h47zM161 155v-20h46v20h-46zM219 117l13 -10l-6 -7q0 -18 2 -33l-13 -4v4h-62v-33q0 -9 11 -9h56q12 0 12 33h5q0 -28 8 -32q-8 -11 -21 -11h-65q-18 0 -18 14v86l13 -8h61zM153 100v-26h24v26h-24zM189 74h26v26h-26v-26zM80 30v-20l-12 -4v24h-38l-7 -3
l-11 5l7 4v13q0 7 -1 17l18 -4l-5 -6v-19h87v10q0 7 -1 20l18 -4l-5 -7v-14q0 -6 1 -12l-13 -3v3h-38zM103 44l-10 -3v3h-36v-2l-10 -2q1 6 1 14.5t-1 14.5l10 -4h36l5 7l11 -9l-7 -4q0 -11 1 -15zM57 51h36v7h-36v-7z" />
  </g>

</svg>
