<?xml version="1.0" standalone="no"?>
<!DOCTYPE svg PUBLIC "-//W3C//DTD SVG 1.1//EN" "http://www.w3.org/Graphics/SVG/1.1/DTD/svg11.dtd" >
<svg xmlns="http://www.w3.org/2000/svg" xmlns:xlink="http://www.w3.org/1999/xlink" version="1.1" viewBox="0 -36 256 256">
  <g transform="matrix(1 0 0 -1 0 220)">
   <path fill="currentColor"
d="M100 245q20 -12 26 -20.5t-6 -19.5h12l12 9l16 -16h-61q-10 -1 -18 -3l-10 10h45q-5 18 -18 38zM97 64h38v37h-38v-37zM130 171l10 9l15 -16h-46q-12 0 -20 -3l-8 10h49zM129 137l10 10l15 -17h-44q-11 0 -19 -2l-8 9h46zM148 71q0 -11 1 -24l-14 -5v15h-38v-10l-14 -7
q1 20 1 39.5t-1 39.5l15 -11h36l7 11l14 -12l-7 -6v-30zM184 247q17 -10 25 -19t-3 -23h14l11 13l16 -20h-61q-10 0 -18 -2l-9 9h41q-5 20 -18 40zM183 66h37v37h-37v-37zM219 174l9 6l12 -13h-46q-10 0 -19 -2l-8 9h52zM218 141l8 6l13 -13h-44q-10 -2 -18 -3l-8 10h49z
M233 71q0 -10 1 -23l-14 -5v16h-37v-11l-14 -6q1 18 1 38t-1 39l15 -9h35l6 9l15 -11l-7 -5v-32zM34 238q26 -16 30 -26.5t-3.5 -20.5t-10.5 6.5t-19 37.5zM48 153l8 10l15 -13l-8 -7v-83q15 -16 32 -22.5t62.5 -7.5t90.5 5v-5q-18 -4 -19 -16q-81 0 -107 4.5t-39.5 14
t-20.5 17t-18.5 -4t-19.5 -24.5l-15 13q13 11 40 26v86h-10q-9 0 -20 -3l-10 10h39z" />
  </g>

</svg>
