<?xml version="1.0" standalone="no"?>
<!DOCTYPE svg PUBLIC "-//W3C//DTD SVG 1.1//EN" "http://www.w3.org/Graphics/SVG/1.1/DTD/svg11.dtd" >
<svg xmlns="http://www.w3.org/2000/svg" xmlns:xlink="http://www.w3.org/1999/xlink" version="1.1" viewBox="0 -200 1000 1000">
  <g transform="matrix(1 0 0 -1 0 800)">
   <path fill="currentColor"
d="M850 933l49 -50q11 -10 6 -14t-20 -4h-739v-706h683l46 45l54 -50q11 -10 6 -15q-6 -5 -25 -5h-764v-10v-15q2 -9 0 -13q-4 -5 -23 -12q-20 -8 -25 -3q-3 2 -1 16l2 17v753l-4 55l51 -34h659v0zM251 364h127v80h-73v-5q1 -12 -2 -17q-4 -6 -19 -11q-18 -6 -23 1
q-3 5 -2 20l1 10v174l-3 59l46 -21h75v64h-67l-66 -3l-13 30l63 -3h83v74l-5 40l64 -14q30 -6 19 -14q-6 -4 -29 -9l-5 -2v-75h91l35 37l48 -43q12 -9 7 -13q-3 -5 -18 -5h-163v-64h59l37 26l39 -26q24 -18 20 -25t-38 -8v-145v-12q2 -19 0 -26q-4 -8 -21 -14q-16 -4 -20 2
q-3 4 -2 17l1 1h-73v-80h59l46 40l50 -46q13 -8 8 -13t-20 -5h-143v-114v-16q1 -13 -1 -18q-5 -7 -21 -11q-18 -3 -22 1q-3 2 -3 16l1 11v131h-112l-65 -3l-12 30zM305 560h73v69h-73v-69zM378 468v68h-73v-68h73zM496 546h-74v-78h74v78zM422 629v-69h74v69h-74zM826 653
l49 -28q13 -10 8 -24q-4 -4 -20 -4h-83q20 -7 16 -13q-3 -7 -19 -8v-352v-13q1 -11 -2 -15q-4 -8 -20 -13q-16 -6 -20 1q-3 5 -1 21l1 3v390h-70q0 -31 -1 -59q-1 -44 1 -62q-7 -81 -47 -156q-34 -69 -125 -132l-8 7q79 86 108 147q29 59 32 181q1 25 0 92q-1 75 -6 169
l40 -26l155 83l23 -31q18 -19 12 -23q-5 -6 -34 4l-150 -50v-120h127z" />
  </g>

</svg>
