<?xml version="1.0" standalone="no"?>
<!DOCTYPE svg PUBLIC "-//W3C//DTD SVG 1.1//EN" "http://www.w3.org/Graphics/SVG/1.1/DTD/svg11.dtd" >
<svg xmlns="http://www.w3.org/2000/svg" xmlns:xlink="http://www.w3.org/1999/xlink" version="1.1" viewBox="0 -36 256 256">
  <g transform="matrix(1 0 0 -1 0 220)">
   <path fill="currentColor"
d="M83 152q31 -27 36 -40t-1 -22.5t-12 11.5t-25 48zM79 16l-15 -6q1 28 1 46v104q-18 -55 -53 -93l-3 2q19 30 33.5 65.5t22.5 79.5h-25q-9 0 -18 -2l-9 9h82l13 12l17 -19h-45q-5 -24 -12 -46l19 -9l-9 -8v-102q0 -15 1 -33zM158 244q24 -15 26 -23.5t-4 -15.5t-9.5 5.5
t-14.5 30.5zM223 193h-95q1 -24 -12.5 -24t-5 10.5t12.5 32.5h4l1 -12h94l8 11l16 -16q-8 -3 -15 -9.5t-15 -16.5l-3 2zM144 115h58v34h-58v-34zM144 73h58v35h-58v-35zM144 29h58v37h-58v-37zM130 164l14 -8h57l7 10l15 -12l-8 -8v-117h3l13 13l16 -20h-118q-10 0 -19 -2
l-9 9h30q0 101 -1 135z" />
  </g>

</svg>
