<?xml version="1.0" standalone="no"?>
<!DOCTYPE svg PUBLIC "-//W3C//DTD SVG 1.1//EN" "http://www.w3.org/Graphics/SVG/1.1/DTD/svg11.dtd" >
<svg xmlns="http://www.w3.org/2000/svg" xmlns:xlink="http://www.w3.org/1999/xlink" version="1.1" viewBox="0 -205 1024 1024">
  <g transform="matrix(1 0 0 -1 0 819)">
   <path fill="currentColor"
d="M632 856h194l32 40l54 -36q9 -6 10 -14q0 -6 -26 -32v-36l4 -74q0 -13 -20 -26q-18 -13 -36 -14v24h-326v-84h340l30 40l56 -38q12 -6 12 -14q0 -6 -32 -30v-72l4 -72q0 -12 -18 -24q-18 -13 -36 -14v52h-356v-40q0 -9 -20 -24q-18 -13 -36 -14l4 122v412l52 -32h86
q17 57 32 130q81 -28 84 -34q4 -5 0 -10q-5 -4 -22 -10q-17 -5 -28 -22q-12 -18 -38 -54v0v0zM518 460h356v116h-356v-116v0v0zM518 716h326v112h-326v-112v0v0zM738 382q9 -3 10 -6q4 -7 -4 -10l-30 -20v-56h170l38 52l68 -60q3 0 4 -6q0 -12 -12 -12h-268v-112l4 -75
q0 -18 -20 -30q-22 -13 -40 -14l4 125v106h-170q-21 -1 -56 -10l-28 36h254v118l76 -26v0v0zM210 978l68 -30q20 -6 20 -12q1 -6 -40 -30v-286q64 75 116 174q72 -39 70 -48q-3 -7 -8 -8q-6 1 -24 -4q-16 -6 -58 -50q-40 -43 -98 -94q0 -115 -8 -214q54 -28 102 -70
q47 -43 56 -70q7 -25 6 -46q-3 -19 -12 -28t-26 -6q-16 2 -26 44q-10 39 -32 78q-21 36 -72 78q-21 -99 -62 -176q-38 -76 -142 -155l-10 10q80 82 116 153q33 70 46 140q15 69 18 250v400v0v0zM122 742h16q12 -93 4 -156q-9 -61 -30 -82q-20 -22 -40 -20q-21 3 -26 18
q-5 16 12 32q17 15 38 58q20 42 26 150v0v0v0z" />
  </g>

</svg>
