<?xml version="1.0" standalone="no"?>
<!DOCTYPE svg PUBLIC "-//W3C//DTD SVG 1.1//EN" "http://www.w3.org/Graphics/SVG/1.1/DTD/svg11.dtd" >
<svg xmlns="http://www.w3.org/2000/svg" xmlns:xlink="http://www.w3.org/1999/xlink" version="1.1" viewBox="0 -36 256 256">
  <g transform="matrix(1 0 0 -1 0 220)">
   <path fill="currentColor"
d="M41 246l20 -10l-6 -5v-18h37q0 18 -1 32l19 -8l-5 -6v-18h4l11 10l15 -17h-30q0 -16 1 -32l-14 -5v7h-12v-26h27l7 8l14 -13l-8 -6q0 -20 1 -37l-14 -6v8h-27v-29h27l12 10l16 -17h-55q0 -39 1 -52l-15 -8q1 28 1 60h-28q-11 0 -20 -2l-9 9h57v29h-26v-8l-15 -4
q1 10 1 30.5t-1 34.5l16 -7h25v26h-12v-5l-14 -5q1 22 1 40q-11 0 -20 -4l-8 11h28q0 17 -1 33zM55 183h37v23h-37v-23zM41 111h26v32h-26v-32zM80 111h27v32h-27v-32zM225 222l7 9l15 -13l-8 -6q-7 -153 -15.5 -173.5t-24.5 -26.5q-1 13 -27 24l1 4q19 -4 27.5 -5t13 19
t12.5 161h-48q-4 -89 -17 -131.5t-53 -75.5l-3 3q34 36 45.5 81t13.5 123h-5q-10 0 -18 -2l-9 9h93z" />
  </g>

</svg>
