<?xml version="1.0" standalone="no"?>
<!DOCTYPE svg PUBLIC "-//W3C//DTD SVG 1.1//EN" "http://www.w3.org/Graphics/SVG/1.1/DTD/svg11.dtd" >
<svg xmlns="http://www.w3.org/2000/svg" xmlns:xlink="http://www.w3.org/1999/xlink" version="1.1" viewBox="0 -339 2048 2048">
  <g transform="matrix(1 0 0 -1 0 1709)">
   <path fill="currentColor"
d="M1405 1700v-771h306l106 114l142 -114q13 -10 16 -24q1 -2 1 -4q0 -7 -5 -14q-8 -12 -26 -12h-540v-650q0 -61 -26 -97q-23 -31 -72 -56q-18 -8 -32 -12q-9 -2 -25 -5q-6 36 -14 54q-12 28 -42 44q-31 16 -89 27q-23 4 -61 11l8 46q54 -10 126 -20q56 -8 73 -8
q29 0 42 12q15 14 15 46v608h-310q-94 0 -170 -8l-35 82q35 -6 64 -9q24 -2 76.5 -6.5t57.5 -4.5h317v756q-87 -10 -190 -18q-99 -7 -130 -9q-24 -1 -72 -2l-3 39q136 19 167.5 23.5t83.5 14.5q149 27 215 45q85 22 185 62q77 30 121 58q15 9 39 26l106 -92q18 -16 18 -30
q0 -10 -11 -17q-8 -5 -17 -5q-3 0 -5 1l-64 11q-134 -45 -231 -68q-66 -16 -115 -24zM153 1750l104 -65h373l68 76l82 -56l24 -17q10 -7 14 -15q3 -6 3 -15q0 -16 -12 -26q-10 -9 -29 -19l-33 -18v-940q0 -40 5 -116q3 -67 7 -103q3 -31 3 -49q0 -22 -11 -33
q-12 -13 -43 -13q-28 0 -41 11q-16 12 -16 30v70h-406v-64q0 -19 -18 -33q-15 -10 -40 -10q-49 0 -49 46q0 14 4 48q3 25 8 104q3 59 3 81v1126zM245 509h153v543h-153v-543zM494 1052v-543h157v543h-157zM494 1627v-519h157v519h-157zM245 1108h153v519h-153v-519z
M1700 1587l91 -30q52 -18 71 -27q9 -4 16 -13t7 -19q0 -11 -12 -21q-13 -9 -31 -12l-70 -8q-28 -69 -53 -118q-32 -63 -60 -107q-23 -37 -70 -97q-46 -58 -95 -102l-32 26q48 64 76 110q42 70 85 169q34 77 54 148q12 44 23 101zM921 1547q25 -25 76 -83q60 -68 88 -107
q45 -64 70 -126q19 -48 19 -90t-18 -67q-16 -23 -39 -24q-15 -1 -28 12q-7 7 -10 14q-6 15 -10 40q-12 81 -34 140q-31 83 -60 137q-19 34 -82 128z" />
  </g>

</svg>
