<?xml version="1.0" standalone="no"?>
<!DOCTYPE svg PUBLIC "-//W3C//DTD SVG 1.1//EN" "http://www.w3.org/Graphics/SVG/1.1/DTD/svg11.dtd" >
<svg xmlns="http://www.w3.org/2000/svg" xmlns:xlink="http://www.w3.org/1999/xlink" version="1.1" viewBox="0 0 2048 2048">
  <g transform="matrix(1 0 0 -1 0 2048)">
   <path fill="currentColor"
d="M1212 1360l104 -13q42 -6 62 -17t20 -25q1 -14 -18 -26l-31 -11l-33 -12q-5 -46 -8 -94q-4 -48 -5 -54l-15 -91l84 -83q37 -36 78 -81t74 -89q34 -44 71 -102q37 -57 53 -92q15 -34 14 -70q-2 -36 -20 -54t-38 -14q-20 3 -32 23q-13 20 -24 57q-12 36 -35 88
q-23 53 -47 96q-23 42 -71 112q-48 69 -64 89l-55 67l-22 -88q-13 -49 -42 -120q-28 -70 -72 -140q-44 -71 -98 -130t-102 -95l-34 -26l-26 30l48 47q28 28 70 86q43 59 80 131q36 72 61 147q25 74 41 146q15 72 24 146t10 111t0 83v53zM917 1552l49 64q22 29 54 77t57 93
q25 44 38 75l24 57l129 -77q24 -15 22 -31q-3 -15 -14 -22q-10 -8 -26 -8h-54l-29 -40q-15 -19 -41 -46q-25 -27 -68 -70q-44 -42 -64 -57l-18 -14h784l68 76l83 -54q22 -15 31 -25t9 -24q-1 -15 -9 -24q-9 -10 -48 -29l-20 -8v-1071q0 -36 4 -87l3 -38q1 -23 3 -51
q1 -28 2 -47q2 -19 2 -27q-2 -22 -10 -32q-9 -10 -21 -15t-25 -6q-14 -2 -27 1q-13 4 -21 13q-7 9 -7 36v21h-1000l1 -33q0 -17 -12 -27q-11 -11 -35 -12q-25 -2 -39 6q-15 8 -20 20q-5 13 -6 22q0 8 7 75q0 5 2 30l4 64l1 40l2 41l-1 1116q-3 54 -6 82t-6 42l-4 14l123 -89
zM777 218h1000v1278h-1000v-1278zM545 857l37 -20l-36 -83q-17 -41 -52 -114l-72 -145q-38 -73 -75 -136l-57 -95l-46 -73l10 -44q8 -38 0 -45q-9 -6 -19 -5q-15 1 -31 17l-29 33l-74 80l60 61q31 32 73 86q43 55 103 142l103 154q42 67 70 121zM99 1347l64 -31l77 -38
q40 -20 80 -46q40 -25 68 -50q27 -24 40 -47q12 -23 12 -45q1 -23 -14 -38q-14 -15 -33 -16q-19 -2 -42 19q-15 12 -40.5 48t-48.5 64q-24 28 -62 59q-38 32 -83 61l-39 25zM227 1859l59 -25q23 -9 73 -35t82 -47t57 -45q24 -24 40 -49q16 -26 16 -49q-1 -23 -16 -39
q-16 -15 -37 -14q-26 0 -41 18q-14 19 -33 50t-45 62q-27 30 -57 56q-30 25 -60 46l-54 36z" />
  </g>

</svg>
