<?xml version="1.0" standalone="no"?>
<!DOCTYPE svg PUBLIC "-//W3C//DTD SVG 1.1//EN" "http://www.w3.org/Graphics/SVG/1.1/DTD/svg11.dtd" >
<svg xmlns="http://www.w3.org/2000/svg" xmlns:xlink="http://www.w3.org/1999/xlink" version="1.1" viewBox="0 -36 256 256">
  <g transform="matrix(1 0 0 -1 0 220)">
   <path fill="currentColor"
d="M74 95h107v30h-107v-30zM59 110q0 17 -1 27l15 -5h107l9 9l15 -14l-9 -6q0 -23 1 -36l-15 -4v7h-46v-22h58l14 12l17 -19h-89v-29q49 -5 113 1v-4q-18 -3 -22 -15q-32 -1 -65 1.5t-57.5 11t-42.5 25.5q-25 -31 -51 -42l-2 3q14 11 29.5 29.5t21.5 37.5l17 -13
q-6 -2 -12 -11q27 -19 56 -23v57h-46v-4l-16 -5q1 14 1 31zM205 230q-21 0 -70 -5v-36h18q8 11 14 19.5t9 17.5l18 -13q-8 -2 -17 -9.5t-18 -14.5h44l16 12l18 -18h-92q46 -34 103 -37v-3q-16 -2 -21 -13q-54 15 -89 53h-3q0 -32 1 -45l-17 -5q1 19 1 46q-43 -38 -111 -56
l-1 4q65 24 96 56h-55q-10 0 -21 -2l-10 8h63q-2 15 -15 29l3 1q22 -7 24.5 -14t-3.5 -16h30v34q-34 -2 -80 -3v5q22 1 53.5 4.5t59 8.5t38.5 9z" />
  </g>

</svg>
