<?xml version="1.0" standalone="no"?>
<!DOCTYPE svg PUBLIC "-//W3C//DTD SVG 1.1//EN" "http://www.w3.org/Graphics/SVG/1.1/DTD/svg11.dtd" >
<svg xmlns="http://www.w3.org/2000/svg" xmlns:xlink="http://www.w3.org/1999/xlink" version="1.1" viewBox="0 -144 1024 1024">
  <g transform="matrix(1 0 0 -1 0 880)">
   <path fill="currentColor"
d="M166 94l-2 18v2l9 1v70l-80 -20l-64 -13l-2 9l171 68l143 64l40 21l38 21l5 4h-369v22h419v69l54 -10l14 -11l-14 -9v-39h312l54 53l64 -53v-22h-410l21 -25l30 -30l32 -29l34 -26l10 -6l92 66l47 36l10 8l4 3l20 -29l19 -22l2 -19l-20 9l-39 -19l-60 -26l-21 -8l-23 -7
l-12 -4l48 -26l43 -18l46 -16l49 -14l102 -21l-63 -59l-56 16l-53 18l-48 21l-46 25l-41 27l-38 30l-33 33l-29 36l-24 38l-15 32l-52 -29l-38 -20l-85 -37l-47 -18l-76 -25v-83l74 8l50 5l50 5l50 5l49 5l50 5l50 4l51 3l1 -9l-48 -14l-98 -24l-148 -30l-148 -26l-27 -4
l-9 -19l-13 15l-1 7l-1 9l-1 4v3l-3 18v3zM164 114l8 -64l-19 63zM808 674l64 -10l16 -11l-16 -10v-193l-1 -14l-2 -14l-4 -13l-7 -11l-9 -11l-11 -9l-12 -7l-13 -4l-13 -3h-14v32l-75 16v16h75l7 1h5l3 1l1 1l2 1l1 1v2l1 3l1 5l1 7v224zM136 702l64 -32h194l27 27l53 -48
l-26 -16v-176h-54v40h-194v-90l-64 -32v327zM448 457l-1 -13l-2 -11l-3 -12l-4 -10l-6 -11l-8 -8l-10 -7l-11 -5l-11 -3l-12 -1v27l-62 13v14h62h4l2 1h1l1 1l1 1l1 2l1 3l1 5l1 6l1 8h54zM593 667l64 -10l16 -11l-16 -10v-166l-64 -32v229zM394 579h-194v-61h194v61z
M394 649h-194v-49h194v49zM665 816l42 -49l2 -18l-23 7l-23 -12l-40 -17l-1 -1h228l44 48l54 -48v-21h-887v21h285l-3 7l-5 7l-6 7l-16 15l-30 25l-13 7l4 8l14 -4l14 -1l14 -3l12 -3l13 -3l32 -11l10 -5l9 -6l9 -23l-8 -17h189l59 64l14 17l3 4l-2 1zM324 822l-4 6l-6 8
l-18 16l-12 8l-45 28l-8 3h-27l-21 -18l-21 -16l-24 -15l-25 -14l-27 -13l-30 -11l-31 -11l-4 9l51 37l42 35l19 17l16 17l25 34l9 17l7 17l3 5l55 -34l10 -17l-22 -2l-12 -15h186l54 53l64 -53v-22h-228l14 -3l14 -5l14 -5l13 -6l11 -7l11 -8l6 -24l-12 -22l-23 -6l-22 11z
M749 822l-4 6l-6 8l-18 16l-12 8l-45 28l-8 3h-30l-19 -16l-22 -15l-23 -13l-25 -13l-28 -11l-29 -9l-31 -9l-4 9l52 34l43 32l18 16l16 16l13 16l12 16l9 16l5 11l5 10l54 -35l10 -17l-22 -1l-12 -15h192l54 53l64 -53v-22h-233l13 -3l15 -5l13 -5l13 -6l12 -7l10 -8l7 -24
l-12 -22l-24 -6l-21 11z" />
  </g>

</svg>
