<?xml version="1.0" standalone="no"?>
<!DOCTYPE svg PUBLIC "-//W3C//DTD SVG 1.1//EN" "http://www.w3.org/Graphics/SVG/1.1/DTD/svg11.dtd" >
<svg xmlns="http://www.w3.org/2000/svg" xmlns:xlink="http://www.w3.org/1999/xlink" version="1.1" viewBox="0 -52 256 256">
  <g transform="matrix(1 0 0 -1 0 204)">
   <path fill="currentColor"
d="M7 143l-2 4q41 23 66 62h-39q-7 0 -12 -3l-8 8h63v24q0 5 -8 12l2 3l22 -9q4 -1 2 -3q-5 -2 -8 -5v-22h29l8 10l17 -12l2 -2q0 -1 -3 -1h-53v-13q49 -15 56 -34q1 -6 -4 -8t-10 7q-11 16 -42 30v-29l1 -18q0 -6 -3 -8q-4 -3 -10 -4q1 3 1 30q1 25 1 34q-25 -37 -68 -53z
M134 120v-58q1 -3 1 -16q1 -11 1 -15q-1 -8 -13 -10v101h-87v-73l1 -23q1 -8 -14 -11v9q1 20 1 36v67q-2 6 -5 9l5 3l11 -12h85l7 9l12 -8q2 -1 2 -3q0 -1 -2 -2zM57 108l8 -10h25l8 8l11 -9q2 -2 1 -2q0 -1 -3 -2l-3 -3v-20v-13q1 -7 -10 -8v44h-27v-38q1 -9 -11 -10
q0 3 1 9v9v33q0 5 -4 9zM153 232l13 -9q10 2 24 5q9 2 12 2q4 2 11 4q18 4 17 12l2 1l12 -13q2 -2 2 -4q0 -1 -2 -1q-6 1 -20 -2q-22 -6 -55 -9v-43v-13h60l7 8l15 -11q5 -3 -1 -2h-32v-111l1 -22q0 -9 -14 -12q2 10 2 46v99h-38q0 -68 -7 -98q-6 -30 -26 -51l-4 4
q26 28 25 142v65q-1 5 -6 10z" />
  </g>

</svg>
