<?xml version="1.0" standalone="no"?>
<!DOCTYPE svg PUBLIC "-//W3C//DTD SVG 1.1//EN" "http://www.w3.org/Graphics/SVG/1.1/DTD/svg11.dtd" >
<svg xmlns="http://www.w3.org/2000/svg" xmlns:xlink="http://www.w3.org/1999/xlink" version="1.1" viewBox="0 -143 1024 1024">
  <g transform="matrix(1 0 0 -1 0 881)">
   <path fill="currentColor"
d="M921 972l63 -52q9 -6 9 -14q2 -4 -12 -11q-26 -5 -51 -40q-40 -69 -116 -197q84 -80 118 -128t43 -82t9 -65t-10 -59t-36 -56t-90 -46q2 30 -24 46t-92 40l4 18q74 -20 95 -24t44 2t36 27t16 49t-4 61t-30 74t-109 139l108 244h-215v-724l4 -96q0 -15 -20 -30t-40 -16
l4 148v790l66 -44h188zM68 794h182l36 186l68 -26q12 -5 12 -11.5t-14 -10.5q-16 -1 -25 -25l-26 -113h149l24 40l60 -44q3 -5 7 -9q4 -13 -11 -13h-235l-35 -162h246l28 42l56 -48q3 -3 3 -8q4 -12 1 -12h-340l-40 -139h242l36 41l55 -54q11 -6 11 -16q-2 -7 -17 -8
q-29 -9 -50 -37.5t-135 -168.5q68 -38 95 -72t23 -59t-25 -28t-42 34t-74 84t-157 107l6 14q85 -30 152 -68q58 84 130 206h-238l-40 -36l-53 52l35 22l33 126h-107q-20 0 -51 -13l-19 39h184l35 162h-103q-9 0 -51 -8z" />
  </g>

</svg>
