<?xml version="1.0" standalone="no"?>
<!DOCTYPE svg PUBLIC "-//W3C//DTD SVG 1.1//EN" "http://www.w3.org/Graphics/SVG/1.1/DTD/svg11.dtd" >
<svg xmlns="http://www.w3.org/2000/svg" xmlns:xlink="http://www.w3.org/1999/xlink" version="1.1" viewBox="0 -36 256 256">
  <g transform="matrix(1 0 0 -1 0 220)">
   <path fill="currentColor"
d="M121 247q46 -20 21 -33h75l13 14l16 -21h-189v-79q0 -66 -46 -111l-3 4q33 45 35 112v46q0 23 -2 46l19 -11h74q2 14 -16 31zM55 80l-2 4q21 37 34 70.5t15 47.5l21 -13l-8 -3q-10 -25 -21 -46l9 -8l-6 -5v-82q0 -10 1 -27l-16 -8q1 19 1 37v72q-8 -16 -28 -39zM145 136
h55v39h-55v-39zM158 71l-8 -3q-20 -27 -47 -44l-1 4q26 27 38 58zM132 93q-11 0 -20 -2l-9 9h62v29h-20v-6l-14 -8v39.5v38.5l14 -11h54l7 11l15 -12l-7 -6q0 -36 1 -48l-15 -7v9h-21v-29h39l12 12l16 -19h-67v-43q0 -16 1 -32l-16 -7q1 22 1 36v46h-33zM193 78
q34 -19 41 -27t1 -18.5t-12.5 2.5t-32.5 40z" />
  </g>

</svg>
