<?xml version="1.0" standalone="no"?>
<!DOCTYPE svg PUBLIC "-//W3C//DTD SVG 1.1//EN" "http://www.w3.org/Graphics/SVG/1.1/DTD/svg11.dtd" >
<svg xmlns="http://www.w3.org/2000/svg" xmlns:xlink="http://www.w3.org/1999/xlink" version="1.1" viewBox="0 -205 1024 1024">
  <g transform="matrix(1 0 0 -1 0 819)">
   <path fill="currentColor"
d="M398 828h242v154l86 -30q3 -4 4 -8q1 0 -4 -6l-32 -16v-94h148l38 46l62 -54q12 -18 -6 -18h-242v-104h102l34 40l56 -48q12 -12 -2 -18h-190v-122h184l38 46l60 -52l4 -8q0 -12 -12 -12h-296q6 -39 18 -84q9 -43 42 -118q70 50 134 116l56 -40q8 -9 -4 -14q-18 0 -38 -6
q-19 -7 -136 -74q30 -55 76 -98q45 -44 84 -61q40 -17 92 -22v-20q-36 1 -60 -8q-21 -7 -38 -32q-85 67 -128 119q-42 53 -74 128q-31 72 -52 196q-36 -54 -92 -114v-253l128 81l12 -16q-87 -71 -122 -101t-58 -66l-54 50l44 32v229q-78 -67 -198 -140l-12 14q98 72 146 118
q45 45 88 90q39 44 72 94h-144q-21 0 -56 -8l-16 34h258v122h-124q-21 0 -62 -8l-16 34h202v104h-170q-21 0 -56 -8l-16 34v0v0zM34 756h164v238l82 -32q12 -6 4 -14l-34 -16v-176h60l40 44l50 -54q12 -15 -8 -18h-142v-204l114 70l10 -16l-124 -98v-339q2 -36 -16 -64
q-19 -26 -64 -40q-6 36 -36 50q-28 15 -76 32l4 16q94 -26 116 -20q20 6 20 32v303q-69 -53 -84 -70q-12 -16 -30 -38l-54 56l168 100v230h-92q-21 -1 -50 -10l-22 38v0v0z" />
  </g>

</svg>
