<?xml version="1.0" standalone="no"?>
<!DOCTYPE svg PUBLIC "-//W3C//DTD SVG 1.1//EN" "http://www.w3.org/Graphics/SVG/1.1/DTD/svg11.dtd" >
<svg xmlns="http://www.w3.org/2000/svg" xmlns:xlink="http://www.w3.org/1999/xlink" version="1.1" viewBox="0 -36 256 256">
  <g transform="matrix(1 0 0 -1 0 220)">
   <path fill="currentColor"
d="M29 74q4 -32 1.5 -40.5t-8.5 -12t-9.5 -0.5t2.5 12t11 41h3zM47 79q20 -25 20 -33.5t-6.5 -15.5t-7.5 5t-8 42zM69 87q24 -20 26 -28t-3.5 -17t-8.5 4.5t-17 38.5zM50.5 209q-11.5 -20 -24.5 -41l36 3q5 11 9 23l15 -16q-10 -10 -20 -24.5t-40 -48.5l48 5q-4 14 -12 27
l3 2q27 -22 26.5 -32.5t-5.5 -16t-6.5 0.5l-3.5 14q-27 -5 -38.5 -9.5t-17.5 -9.5l-9 20q4 0 18.5 16t30.5 42q-15 -3 -23.5 -5.5t-17.5 -7.5l-8 17q7 2 19.5 25t18.5 50l18 -13q-5 -1 -16.5 -21zM129 55q0 -19 1 -41l-15 -6l1 22v97q-3 -21 -27 -52l-3 3q21 34 29 100h-6
l-12 -3l-12 10h31q0 30 -1 59l23 -9l-9 -7v-43h7l11 11l15 -18h-33v-26q15 -11 24 -19.5t4.5 -22t-10.5 1.5t-18 33v-90zM167 153q24 -26 27.5 -37t-4 -20t-10.5 10.5t-16 43.5zM207 244l21 -10l-7 -5v-47h5l10 10l14 -17h-29v-134q1 -22 -22 -31q-1 16 -31 22v4
q24 -1 32 -1t8 8v132h-14q-13 0 -22 -3l-10 10h46v33q0 8 -1 29z" />
  </g>

</svg>
