<?xml version="1.0" standalone="no"?>
<!DOCTYPE svg PUBLIC "-//W3C//DTD SVG 1.1//EN" "http://www.w3.org/Graphics/SVG/1.1/DTD/svg11.dtd" >
<svg xmlns="http://www.w3.org/2000/svg" xmlns:xlink="http://www.w3.org/1999/xlink" version="1.1" viewBox="0 -52 256 256">
  <g transform="matrix(1 0 0 -1 0 204)">
   <path fill="currentColor"
d="M73 252l22 -9q2 -1 2 -2l-1 -1q-5 -2 -7 -5v-22h36l8 10l17 -12l2 -2q0 -1 -3 -1h-60v-69h8l14 28q11 20 9 23q-1 4 -3 7l2 2l19 -8q5 -3 2 -4q-6 0 -9 -3q-6 -11 -23 -38q-3 -4 -5 -7h29l8 10l17 -13q4 -2 -2 -2h-66v-17q37 -24 49 -47q3 -8 1 -13q-6 -6 -11 7
q-15 28 -39 48v-69v-23q0 -10 -13 -11q2 9 2 42v83h-4q-21 -71 -66 -107l-4 2q38 41 59 105h-34q-6 0 -11 -3l-9 8h69v69h-43q-6 1 -12 -3l-8 8h63v25q1 3 -8 11zM233 219l-12 -27q-1 -3 -4 -9q-5 -10 -12 -27q17 -16 24 -26q8 -11 11 -20q3 -10 3 -22q-2 -21 -17 -32
q-6 -3 -20 -7q-2 11 -25 18l1 4q48 -17 49 20q2 12 -5 26q-1 3 -5 10q-1 2 -2 3q-4 6 -21 27q5 14 19 51l6 18h-49v-182v-22q0 -9 -13 -12q1 4 1 22q1 13 1 22v173q-1 7 -7 13l5 4l10 -13h51l9 9l12 -13q3 -2 1 -3q-3 -1 -8 -3q-2 -1 -3 -2zM29 195l2 2q27 -21 29 -38
q3 -13 -6 -14q-5 0 -5 9q-3 20 -20 41z" />
  </g>

</svg>
