<?xml version="1.0" standalone="no"?>
<!DOCTYPE svg PUBLIC "-//W3C//DTD SVG 1.1//EN" "http://www.w3.org/Graphics/SVG/1.1/DTD/svg11.dtd" >
<svg xmlns="http://www.w3.org/2000/svg" xmlns:xlink="http://www.w3.org/1999/xlink" version="1.1" viewBox="0 -36 256 256">
  <g transform="matrix(1 0 0 -1 0 220)">
   <path fill="currentColor"
d="M65 33.5q8 -0.5 8 12.5v62h-37q0 -26 -4 -49.5t-20 -46.5l-3 2q10 25 13 53.5t2.5 91t-2.5 75.5l14 -8h36l8 10l13 -12l-7 -7v-172q0 -16 -5.5 -22t-16.5 -11q0 13 -25 21v4q18 -3 26 -3.5zM36 170h37v49h-37v-49zM36 115h37v48h-37v-48zM79 14q27 50 26 125v42
q0 21 -1 41l14 -8h54q-1 13 -15 29l2 3q17 -8 24 -14.5t-3 -17.5h38l11 11l16 -18h-127v-68q2 -81 -36 -127zM176 183q1 13 -9 21l1 3q17 -6 21 -12t-3 -12h31l11 9l14 -16h-93q-10 0 -19 -2l-9 9h55zM147 163h67l7 9l13 -11l-7 -6v-29q0 -11 1 -22l-13 -5v5h-69v-4l-13 -4
q1 18 1 34t-1 39zM146 111h69v45h-69v-45zM167 145h25l5 6l12 -8l-5 -4v-18l-11 -3v5h-26v-2l-12 -3q1 10 1 16.5t-1 15.5zM167 130h26v8h-26v-8zM137 81v5q22 3 41 7.5t31 9.5l10 -14q-12 -1 -33 -4v-15h31l13 9l14 -16h-52q31 -30 56 -33v-4q-12 0 -18 -10q-27 18 -44 47
v-26q0 -8 1 -24l-15 -5q1 26 1 51q-27 -33 -69 -44l-1 3q42 23 56 45h-16q-10 0 -19 -2l-9 9h58v14q-17 -2 -36 -3z" />
  </g>

</svg>
