<?xml version="1.0" standalone="no"?>
<!DOCTYPE svg PUBLIC "-//W3C//DTD SVG 1.1//EN" "http://www.w3.org/Graphics/SVG/1.1/DTD/svg11.dtd" >
<svg xmlns="http://www.w3.org/2000/svg" xmlns:xlink="http://www.w3.org/1999/xlink" version="1.1" viewBox="0 -36 256 256">
  <g transform="matrix(1 0 0 -1 0 220)">
   <path fill="currentColor"
d="M62.5 222q5.5 -8 0.5 -16.5t-10 2.5t-23 28l1 3q26 -9 31.5 -17zM12 184q31 -12 33 -22t-3.5 -14.5t-9.5 6t-21 27.5zM38 89q6 4 30 107l6 -1q-17 -86 -20 -99t-4.5 -23.5t0 -35.5t-9 -20t-7.5 23t3 28t-23 15v4q19 -2 25 2zM92 92h29v105h-29v-105zM134 195v-95
q0 -16 1 -30l-14 -9v24h-29v-30l-14 -7q1 15 1 33v101q0 17 -1 32l14 -10h28l7 10l15 -11zM195 229l-4 -11q26 -54 56 -65v-4q-11 -2 -15 -12q-32 34 -44 74q-12 -29 -23 -48.5t-28 -33.5l-2 3q20 30 31.5 59.5t14.5 54.5l22 -12zM204.5 141q1.5 -8 -3.5 -15.5t-9.5 7
t-18.5 32.5l2 3q28 -19 29.5 -27zM181 13q23 54 33 86h-43q-10 0 -20 -2l-9 9h72l8 11l15 -15l-7 -6q-17 -41 -35 -90z" />
  </g>

</svg>
