<?xml version="1.0" standalone="no"?>
<!DOCTYPE svg PUBLIC "-//W3C//DTD SVG 1.1//EN" "http://www.w3.org/Graphics/SVG/1.1/DTD/svg11.dtd" >
<svg xmlns="http://www.w3.org/2000/svg" xmlns:xlink="http://www.w3.org/1999/xlink" version="1.1" viewBox="0 -36 256 256">
  <g transform="matrix(1 0 0 -1 0 220)">
   <path fill="currentColor"
d="M93 124q0 -9 9 -9h8v38h-17v-29zM67 160h14v27h-14v-27zM36 91q19 24 19 62h-19v-62zM36 86v-47h74v64h-16q-16 1 -14 20v30h-14q0 -45 -30 -67zM59.5 218.5q6.5 -7.5 -1.5 -17.5t-10.5 3.5t-13.5 29.5l3 2q16 -10 22.5 -17.5zM86 194h28l12 11l15 -18h-48v-27h16l7 9
l15 -13l-8 -6v-82q0 -27 1 -39l-14 -6v9h-74v-16l-14 -6q1 22 1 83.5t-1 73.5l14 -7h19v27h-16q-10 0 -19 -2l-9 9h69q13 28 17 45l21 -12l-10 -5q-5 -5 -22 -28zM82 73l11 8l12 -15h-46q-12 0 -14 -2l-4 9h41zM181 222q-6 -27 -10 -47h37q1 15 0 27l18 -8l-3 -5l-1 -14h5
l11 10l12 -17h-29q-3 -50 -23 -98q37 -23 42.5 -30.5t3 -18t-13.5 3.5t-38 35q-23 -32 -76 -53l-1 4q44 23 66 56q-23 15 -46 26q13 38 22 75h-4q-10 1 -19 -3l-7 10h31q7 31 11 66l21 -12zM187 76q15 35 21 92h-38q-13 -49 -22 -73q16 -7 39 -19z" />
  </g>

</svg>
