<?xml version="1.0" standalone="no"?>
<!DOCTYPE svg PUBLIC "-//W3C//DTD SVG 1.1//EN" "http://www.w3.org/Graphics/SVG/1.1/DTD/svg11.dtd" >
<svg xmlns="http://www.w3.org/2000/svg" xmlns:xlink="http://www.w3.org/1999/xlink" version="1.1" viewBox="0 -36 256 256">
  <g transform="matrix(1 0 0 -1 0 220)">
   <path fill="currentColor"
d="M47 138h60v45h-60v-45zM26.5 63.5q7.5 27.5 7.5 76.5t-1 80l14 -9v-21h59l6 8l15 -11l-7 -6q0 -39 1 -54l-14 -8v12h-60q0 -71 -35 -117l-3 3q10 19 17.5 46.5zM126 45q4 -13 -0.5 -20.5t-7 -3t-6.5 18.5q-56 -13 -63 -21l-10 18q13 0 21 22.5t10 32.5t4 26l22 -9l-8 -5
q-17 -50 -32 -66l53 8q-4 16 -13 31l3 3q23 -22 27 -35zM152 37h66v74h-66v-74zM139 67.5q0 30.5 -1 60.5l15 -10h23v60h-24q-10 0 -19 -3l-9 10h52v28q0 12 -1 30l23 -10l-8 -8v-40h30l13 12l15 -19h-58v-60h27l7 11l15 -14l-8 -7v-56q0 -14 1 -33l-14 -9v20h-66v-16
l-14 -7q1 30 1 60.5zM118 220q-60 -13 -72 -13l-1 5q14 3 34.5 9.5t35.5 17.5l13 -22z" />
  </g>

</svg>
