<?xml version="1.0" standalone="no"?>
<!DOCTYPE svg PUBLIC "-//W3C//DTD SVG 1.1//EN" "http://www.w3.org/Graphics/SVG/1.1/DTD/svg11.dtd" >
<svg xmlns="http://www.w3.org/2000/svg" xmlns:xlink="http://www.w3.org/1999/xlink" version="1.1" viewBox="0 -205 1024 1024">
  <g transform="matrix(1 0 0 -1 0 819)">
   <path fill="currentColor"
d="M720 942q6 -2 6 -4q7 -9 -6 -14q-25 -3 -46 -24q-22 -18 -56 -56h214l34 40l60 -48q8 -6 8 -12q1 -3 -16 -12q-27 -10 -48 -34q-73 -102 -134 -156q-61 -51 -124 -90q-63 -37 -180 -76l-4 16q93 45 162 90q69 43 126 104q57 60 112 150h-232l-34 -34q72 -34 94 -58
q20 -22 20 -46q-1 -22 -16 -32q-16 -10 -28 -4q-13 5 -14 26q-1 19 -14 44q-12 24 -54 54q-51 -46 -120 -98l-14 12q72 69 130 144q57 75 102 154l72 -36v0v0zM704 486q-15 -15 -42 -48h218l36 40l66 -44q8 -5 8 -16q0 -3 -26 -12q-22 -12 -40 -42q-90 -124 -168 -182
q-78 -56 -156 -89q-79 -33 -250 -72l-4 16q156 53 234 88q75 33 154 99q77 63 152 186h-248l-36 -42q62 -27 86 -54t22 -48q-1 -20 -14 -28q-13 -10 -26 -4q-13 3 -16 22q-4 17 -16 44q-13 24 -50 54q-84 -96 -186 -156l-10 14q92 81 170 180q76 97 110 164q75 -31 78 -38
t-2 -10q-5 -1 -16 -2q-10 -1 -28 -20v0v0zM38 742h186v244l80 -34q21 -7 -2 -20l-28 -12v-178h64l34 46l54 -54q3 -4 4 -8q0 -12 -14 -12h-142v-108q60 -39 88 -60q27 -22 36 -46q9 -21 0 -42q-9 -19 -26 -16q-15 1 -24 26q-7 25 -22 50q-16 24 -52 66v-394l4 -107
q-1 -15 -22 -30q-18 -11 -36 -14l4 147v380q-28 -76 -82 -164q-54 -86 -110 -142l-12 10q51 72 90 148q36 75 66 150q29 73 46 146h-112q-22 0 -52 -8l-20 36v0v0z" />
  </g>

</svg>
