<?xml version="1.0" standalone="no"?>
<!DOCTYPE svg PUBLIC "-//W3C//DTD SVG 1.1//EN" "http://www.w3.org/Graphics/SVG/1.1/DTD/svg11.dtd" >
<svg xmlns="http://www.w3.org/2000/svg" xmlns:xlink="http://www.w3.org/1999/xlink" version="1.1" viewBox="0 -36 256 256">
  <g transform="matrix(1 0 0 -1 0 220)">
   <path fill="currentColor"
d="M60.5 210q-3.5 14 -17.5 33l2 2q19 -11 25 -19.5t0 -19t-9.5 3.5zM73 197l12 -12l-7 -7q-8 -20 -19 -43v-17l4 -1q10 15 17 33l13 -12q-8 -4 -26 -23q12 -6 16 -11.5t0.5 -14t-9 3t-15.5 20.5v-66q0 -17 1 -33l-14 -7q1 20 1 39v72q-16 -26 -37 -43l-3 3q12 13 29 40
t29 63h-23q-12 -1 -21 -3l-8 10h53zM164 118q22 21 34 46q-10 26 -15 55l-5 -2l-7 9h53l8 10l13 -13l-8 -6q-13 -34 -24 -54q10 -14 19.5 -23t15.5 -11v-4q-11 -1 -15 -10q-15 16 -28 35q-17 -22 -38 -35zM205 176q13 25 18 43h-35q8 -27 17 -43zM109 192h22v27h-22v-27z
M109 160h48v25h-48v-25zM109 127h22v26h-22v-26zM96 234l13 -8h38l11 10l14 -17h-29v-27h13l6 9l13 -9l-6 -8q0 -25 1 -34l-13 -3v6h-14v-26h5l9 8l13 -15h-62l-6 -7l-11 10l6 6q0 91 -1 105zM170.5 106q3.5 -6 -2.5 -14.5t-9 3t-13 22.5l2 3q19 -8 22.5 -14zM151 47.5
q2 -7.5 -5.5 -14t-9 7t-8.5 29.5l3 2q18 -17 20 -24.5zM199 88l13 13l17 -20h-92q-26 0 -34 -2l-8 9h104zM192.5 50.5q-6.5 -12.5 -16.5 -27.5h39l14 11l15 -18h-134q-10 0 -19 -2l-9 9h89q17 37 17 54l19 -9q-8 -5 -14.5 -17.5z" />
  </g>

</svg>
