<?xml version="1.0" standalone="no"?>
<!DOCTYPE svg PUBLIC "-//W3C//DTD SVG 1.1//EN" "http://www.w3.org/Graphics/SVG/1.1/DTD/svg11.dtd" >
<svg xmlns="http://www.w3.org/2000/svg" xmlns:xlink="http://www.w3.org/1999/xlink" version="1.1" viewBox="0 -36 256 256">
  <g transform="matrix(1 0 0 -1 0 220)">
   <path fill="currentColor"
d="M24 92l-16 16q14 3 46 18v51h-23l-9 -1l-9 8h41q0 38 -1 60l23 -10l-8 -8v-42h9l12 13l14 -20h-35v-45l34 16l2 -5l-36 -22v-79q1 -25 -22 -33q2 14 -29 21v5q22 -3 29.5 -2t7.5 14v65q-22 -13 -30 -20zM24 90l-16 18q13 3 46 18v51h-24l-9 -1l-9 8h42q0 38 -1 61l23 -12
l-8 -6v-43h9l13 13l14 -20h-36v-45l34 15l2 -5l-36 -20v-80q1 -25 -22 -33q2 14 -29 21v5q22 -3 29.5 -2t7.5 14v64q-22 -12 -30 -21zM24 90l-16 18q13 3 46 18v51h-24l-9 -1l-9 8h42q0 38 -1 61l23 -12l-8 -6v-43h9l13 13l14 -20h-36v-45l34 15l2 -5l-36 -20v-80
q1 -25 -22 -33q2 14 -29 21v5q22 -3 29.5 -2t7.5 14v64q-22 -12 -30 -21zM227 149q-35 30 -51 80h-5l-8 -3l-8 10h19l9 5l11 -12l-6 -4q14 -31 28.5 -43.5t30.5 -17.5v-5q-17 -1 -20 -10zM139 238l19 -15l-8 -2q-9 -17 -30 -40h67l6 9l15 -12l-6 -5q-3 -46 -8 -58.5
t-21 -17.5q0 14 -23 17v5q22 -3 29 0t9 55h-36q-4 -35 -18.5 -53t-39.5 -30l-3 5q20 14 32 31t15 47h-5l-10 -1l-4 5q-11 -12 -27 -24l-1 5q37 41 48 79zM172.5 84.5q7.5 -7.5 1.5 -18.5t-11.5 3t-22.5 30l2 3q23 -10 30.5 -17.5zM106 82q-1 -31 -7 -41t-12.5 -10t-9.5 5.5
t7.5 13t17.5 32.5h4zM121 59q0 19 -1 31l22 -9l-7 -8v-30q-1 -16 16 -16h31q9 0 11 9.5t3 24.5h5q0 -19 2 -25t8 -10q-4 -12 -25 -12h-44q-21 1 -21 21v24zM206 85q22 -15 28.5 -24t0 -19t-10 3t-22.5 36z" />
  </g>

</svg>
