<?xml version="1.0" standalone="no"?>
<!DOCTYPE svg PUBLIC "-//W3C//DTD SVG 1.1//EN" "http://www.w3.org/Graphics/SVG/1.1/DTD/svg11.dtd" >
<svg xmlns="http://www.w3.org/2000/svg" xmlns:xlink="http://www.w3.org/1999/xlink" version="1.1" viewBox="0 -36 256 256">
  <g transform="matrix(1 0 0 -1 0 220)">
   <path fill="currentColor"
d="M82 165l-2 3q11 15 19.5 35.5t12.5 38.5l18 -13q-6 -4 -18 -24h27l9 11l13 -16q-7 -1 -15 -12t-14 -19h17l7 10l12 -13l-6 -5q0 -50 1 -75l-13 -6v9h-48v-7l-13 -5q1 22 1 96zM139 198h-30l-17 -22l10 -7h25zM102 134h17v28h-17v-28zM131 134h19v28h-19v-28zM102 96h17
v31h-17v-31zM131 96h19v31h-19v-31zM193.5 211.5q3.5 -8.5 -3 -16.5t-10 7t-17.5 34l3 3q24 -19 27.5 -27.5zM210 17l-14 -8q1 47 1 77h-4q-9 1 -20 -2l-9 9h33v40q-9 0 -20 -4l-9 10h29v41q-14 0 -25 -3l-9 9h41q6 17 16 58l19 -15q-10 -1 -29 -43h9l11 12l14 -19h-35v-40
h10l10 12l14 -19h-34v-39h13l12 14l13 -21h-38q0 -43 1 -69zM91 61q1 -25 -3 -34t-12 -9.5t-9 2.5t5.5 9.5t14.5 32.5zM107 66q9 -11 14 -22t0 -16.5t-8 -6.5t-4 12.5t-6 30.5zM129 71q8 -8 14.5 -15t7.5 -15t-5 -13.5t-8 8t-11 32.5zM155 76q15 -14 21 -22t4 -13.5
t-6.5 -10t-7 8.5t-13.5 34zM47 247l22 -9l-8 -8v-44h6l10 13l13 -20h-29v-47l25 13l2 -4l-27 -21v-83q1 -23 -22 -30q3 10 -18 18v5q12 -1 19.5 -1t7.5 12v70q-26 -17 -25 -19l-13 17q12 3 38 16v54h-20l-6 -1l-10 8h36q0 36 -1 61z" />
  </g>

</svg>
