<?xml version="1.0" standalone="no"?>
<!DOCTYPE svg PUBLIC "-//W3C//DTD SVG 1.1//EN" "http://www.w3.org/Graphics/SVG/1.1/DTD/svg11.dtd" >
<svg xmlns="http://www.w3.org/2000/svg" xmlns:xlink="http://www.w3.org/1999/xlink" version="1.1" viewBox="0 -205 1024 1024">
  <g transform="matrix(1 0 0 -1 0 819)">
   <path fill="currentColor"
d="M728 590q6 -3 6 -8q0 -10 -12 -10q-30 -2 -54 -28q-22 -25 -74 -88h178l42 50l58 -58q3 -4 4 -8q0 -12 -12 -12h-338v-148h340l40 56q69 -67 70 -74q-1 -6 -2 -8q-1 -1 -20 -2h-428v-104l4 -85q2 -13 -22 -30q-24 -16 -38 -14l4 135v98h-372q-24 0 -44 -6l-30 34h446v148
h-256q-33 3 -68 -8l-22 36h434q48 75 100 172l66 -38v0v0zM278 614l8 14q60 -31 94 -56q32 -25 40 -46q8 -19 2 -38q-7 -19 -26 -20q-18 -2 -26 18q-9 20 -24 52q-15 30 -68 76v0v0zM160 828h320v152l88 -32q9 -3 6 -14q-2 -1 -10 -4l-32 -14v-88h208l46 50l66 -60
q3 -4 4 -10q1 -7 -16 -8h-308v-132h320l42 58l70 -66q3 -4 4 -10q1 -7 -16 -8h-818q-22 1 -70 -10l-18 36h434v132h-232q-21 0 -68 -8l-20 36v0v0z" />
  </g>

</svg>
