<?xml version="1.0" standalone="no"?>
<!DOCTYPE svg PUBLIC "-//W3C//DTD SVG 1.1//EN" "http://www.w3.org/Graphics/SVG/1.1/DTD/svg11.dtd" >
<svg xmlns="http://www.w3.org/2000/svg" xmlns:xlink="http://www.w3.org/1999/xlink" version="1.1" viewBox="0 -36 256 256">
  <g transform="matrix(1 0 0 -1 0 220)">
   <path fill="currentColor"
d="M118 192l14 -9h18l5 26h-33q-10 0 -19 -2l-9 9h62q3 16 4 30l22 -7l-9 -5l-4 -18h41l14 11l15 -18h-71l-6 -26h38l8 10l15 -14l-9 -7v-98h3l13 12l15 -19h-125q-9 0 -18 -2l-9 9h26v89q0 12 -1 29zM132 158h69v18h-69v-18zM132 130h69v21h-69v-21zM132 103h69v20h-69v-20
zM132 74h69v21h-69v-21zM154 45q-9 -1 -23.5 -11t-43.5 -24l-2 4q40 24 52 47zM182 61q27 -11 42.5 -19t14 -23t-12.5 -1t-46 40zM71 231l-5 -8v-63q17 23 20 39l16 -14q-8 -3 -15.5 -11t-20.5 -21q0 -25 -3 -61q21 -11 29.5 -22t6 -21t-6 -8.5t-8.5 15t-22 31.5
q-10 -53 -47 -80l-1 3q26 33 32.5 64.5t6 73t-1.5 95.5zM38.5 146.5q3.5 -9.5 0.5 -15.5t-7.5 -6t-6 12t-14.5 39l3 2q21 -22 24.5 -31.5z" />
  </g>

</svg>
