<?xml version="1.0" standalone="no"?>
<!DOCTYPE svg PUBLIC "-//W3C//DTD SVG 1.1//EN" "http://www.w3.org/Graphics/SVG/1.1/DTD/svg11.dtd" >
<svg xmlns="http://www.w3.org/2000/svg" xmlns:xlink="http://www.w3.org/1999/xlink" version="1.1" viewBox="0 -205 1024 1024">
  <g transform="matrix(1 0 0 -1 0 819)">
   <path fill="currentColor"
d="M836 918l58 -52q7 -3 8 -12q0 -10 -42 -28l-36 -705h52l40 51l58 -57q3 -3 4 -12t-10 -10h-562q-32 1 -82 -8l-14 36h192l30 373h-50q-36 1 -66 -10l-18 38h136l26 328h-106q-22 0 -40 -8l-16 34h404l34 42v0v0zM552 121h222l18 373h-210l-30 -373v0v0zM584 522h210
l16 328h-198l-28 -328v0v0zM34 730h172v236l80 -34l2 -8q-1 -4 -34 -22v-172h92l32 46l58 -54q2 -3 2 -8q1 -10 -10 -10h-174v-178l154 78l10 -16l-164 -98v-371q3 -33 -14 -54q-15 -23 -60 -32q1 33 -34 48q-34 13 -82 28l4 18q95 -21 116 -16q21 4 22 29v318l-52 -32
q-43 -35 -58 -58l-44 56l154 78v202h-88q-18 0 -66 -8l-18 34v0v0z" />
  </g>

</svg>
