<?xml version="1.0" standalone="no"?>
<!DOCTYPE svg PUBLIC "-//W3C//DTD SVG 1.1//EN" "http://www.w3.org/Graphics/SVG/1.1/DTD/svg11.dtd" >
<svg xmlns="http://www.w3.org/2000/svg" xmlns:xlink="http://www.w3.org/1999/xlink" version="1.1" viewBox="0 -205 1024 1024">
  <g transform="matrix(1 0 0 -1 0 819)">
   <path fill="currentColor"
d="M396 830h268v144l78 -34q6 -3 4 -8q0 -3 -32 -18v-84h176l40 46l54 -54l4 -4q10 -12 -4 -14h-270v-88h134l26 32l52 -34q12 -6 12 -14q-1 -5 -28 -28v-154l4 -82q0 -11 -20 -22q-19 -10 -34 -10v56h-146v-26l4 -28q0 -13 -20 -26q-21 -13 -38 -10l4 54v36h-146v-64
q0 -13 -18 -26q-19 -10 -34 -10l4 92v300l58 -36h136v88h-188q-21 0 -56 -8l-24 34v0v0zM518 486h146v88h-146v-88v0v0zM714 574v-88h146v88h-146v0v0zM518 600h146v90h-146v-90v0v0zM714 690v-90h146v90h-146v0v0zM766 960q42 -12 64 -20q19 -10 32 -22q12 -12 18 -24
q4 -13 -4 -28q-6 -13 -24 -14q-15 0 -24 16q-6 14 -18 34q-10 18 -50 46l6 12v0v0zM410 334h386v86l70 -28q12 -3 10 -14q-4 -6 -32 -18v-26h62l38 44l50 -52q3 -4 4 -10q0 -7 -12 -8h-142v-209q-3 -27 -24 -46q-21 -18 -48 -28q-8 37 -40 52q-32 14 -76 28l4 18
q87 -19 112 -18q24 0 24 20v183h-314q-10 0 -58 -8l-14 34v0v0zM536 294q41 -19 62 -34q18 -12 30 -30q11 -15 14 -32q0 -16 -8 -28q-9 -13 -26 -10q-19 0 -22 22q-4 20 -14 44q-9 21 -44 58l8 10v0v0zM98 938l56 -44h142l28 40l54 -48q6 -6 6 -8q0 -6 -30 -24v-482l4 -68
q0 -10 -18 -22q-15 -10 -36 -14v50h-156v-24q0 -6 -18 -18q-18 -9 -36 -12l4 102v572v0v0zM148 344h156v162h-156v-162v0v0zM148 532h156v154h-156v-154v0v0zM148 712h156v156h-156v-156v0v0zM18 47q80 108 146 225l60 -34q8 -6 2 -14q-24 -6 -30 -12t-60 -68
q-55 -59 -106 -109l-12 12v0v0zM266 250l10 12q62 -39 92 -66q28 -28 38 -57q9 -29 -2 -46q-10 -18 -28 -16q-18 3 -24 32q-6 28 -26 61q-18 34 -60 80v0v0z" />
  </g>

</svg>
