<?xml version="1.0" standalone="no"?>
<!DOCTYPE svg PUBLIC "-//W3C//DTD SVG 1.1//EN" "http://www.w3.org/Graphics/SVG/1.1/DTD/svg11.dtd" >
<svg xmlns="http://www.w3.org/2000/svg" xmlns:xlink="http://www.w3.org/1999/xlink" version="1.1" viewBox="0 -205 1024 1024">
  <g transform="matrix(1 0 0 -1 0 819)">
   <path fill="currentColor"
d="M350 992l88 -28q9 -7 -2 -16l-34 -10v-62h236v118l86 -28q7 -6 2 -14l-36 -12v-64h190l40 50l64 -60q3 -3 4 -8q-1 -7 -16 -8h-282v-66q-3 -14 -20 -22q-16 -8 -32 -10v98h-236v-62q0 -15 -18 -24q-16 -7 -34 -8v94h-214q-21 0 -68 -8l-20 34h302v116v0v0zM80 732h758
l38 54l60 -60q3 -4 4 -10q0 -10 -12 -10h-388v-112h212l28 38l62 -44q6 -4 6 -8q0 -6 -32 -32v-138l6 -80q0 -13 -20 -26q-18 -12 -38 -12v42h-226q-14 -107 -64 -172q51 -22 132 -39q80 -15 172 -16t212 0v-18q-40 -3 -58 -12q-19 -7 -32 -30q-53 0 -136 6q-81 6 -164 26
q-82 20 -154 58q-63 -44 -170 -74q-108 -28 -198 -38l-2 16q99 19 186 52q86 31 146 69q-70 45 -142 126l10 8q81 -61 156 -110q45 66 54 148h-234v-12q-6 -18 -24 -26q-18 -7 -32 -8l4 114v230l56 -38h232v112h-324q-21 0 -68 -8l-16 34v0v0zM252 362h236v92h-236v-92v0v0z
M540 454v-92h224v92h-224v0v0zM252 480h236v86h-236v-86v0v0zM540 566v-86h224v86h-224v0v0z" />
  </g>

</svg>
