<?xml version="1.0" standalone="no"?>
<!DOCTYPE svg PUBLIC "-//W3C//DTD SVG 1.1//EN" "http://www.w3.org/Graphics/SVG/1.1/DTD/svg11.dtd" >
<svg xmlns="http://www.w3.org/2000/svg" xmlns:xlink="http://www.w3.org/1999/xlink" version="1.1" viewBox="0 -205 1024 1024">
  <g transform="matrix(1 0 0 -1 0 819)">
   <path fill="currentColor"
d="M848 474l8 -16q-255 -126 -294 -150q-37 -24 -62 -54l-54 64l402 156v0v0zM642 934q7 -3 8 -6q6 -6 0 -12q-36 -9 -50 -36q-23 -51 -46 -104h326l42 46l58 -50q8 -4 8 -10q1 -6 -40 -32v-384q-7 -138 -22 -192q-15 -50 -44 -81q-27 -26 -80 -44q-6 36 -38 54
q-31 15 -116 42l6 19q83 -19 110 -25q26 -4 50 -2q21 1 36 14q14 10 28 57q15 44 18 182v378h-356q-69 -143 -132 -226l-14 10q63 135 106 246q39 108 64 190l78 -34v0v0zM554 658q86 -42 118 -72q32 -31 40 -52q9 -21 0 -42t-32 -24q-23 -1 -28 26q-3 24 -18 54
q-12 29 -90 100l10 10v0v0zM104 936l58 -44h140l30 40l62 -42q9 -10 -2 -22l-22 -18v-576l4 -130q0 -10 -18 -25q-15 -15 -36 -18v71h-168v-67q0 -12 -20 -28q-19 -13 -32 -14l4 189v684v0v0zM152 198h168v202h-168v-202v0v0zM152 426h168v208h-168v-208v0v0zM152 660h168
v206h-168v-206v0v0z" />
  </g>

</svg>
