<?xml version="1.0" standalone="no"?>
<!DOCTYPE svg PUBLIC "-//W3C//DTD SVG 1.1//EN" "http://www.w3.org/Graphics/SVG/1.1/DTD/svg11.dtd" >
<svg xmlns="http://www.w3.org/2000/svg" xmlns:xlink="http://www.w3.org/1999/xlink" version="1.1" viewBox="0 -205 1048 1024">
  <g transform="matrix(1 0 0 -1 0 819)">
   <path fill="currentColor"
d="M587 720h173l36 37l54 -37q12 -7 6 -14q-5 -6 -19 -6h-119q15 -3 8 -9t-24 -7v-67h146l37 41l53 -37q13 -9 7 -15q-5 -5 -22 -5h-367l-89 -6l-16 26l89 -4h118v83h-55h-84l-12 20h80zM603 532h183l37 32l42 -32q19 -14 15 -23t-30 -9v-51h24l33 36l50 -32q13 -7 8 -13
q-6 -7 -21 -7h-95v-59l1 -17q1 -13 -2 -18q-3 -6 -20 -12q-17 -5 -21 -3q-3 2 -1 12l1 13h-204h-68l-11 20h105h178v64h-283h-68l-16 20l79 -4h288v68h-209l-69 -6l-10 26zM540 303l57 -12q31 -5 29 -13t-34 -13v-110q0 -15 6 -21q7 -8 31 -11l95 4l30 1q14 0 27 37
q12 32 21 84h11v-115q31 -14 30 -25q-1 -13 -47 -17q-47 -3 -105 -4q-32 -1 -73 -1q-37 1 -57 18q-16 15 -16 44v111zM477 290q0 -73 -13 -120q-14 -51 -46 -77q-19 -11 -31 0q-14 11 0 46q1 6 6 12q3 3 13 11q24 23 36 42q20 35 23 86h12zM645 333q46 -27 69 -52
q30 -32 30 -68q0 -27 -16 -27q-15 -1 -26 26l-5 14q-10 32 -19 49q-15 31 -40 57zM860 270q56 -45 76 -72q18 -25 18 -54q0 -19 -13 -25q-13 -7 -23 21l-3 4q-10 32 -19 51q-16 34 -43 70zM403 653q44 48 83 120q33 59 69 147l37 -21q48 13 89 27q63 23 103 46l34 -31
q23 -20 17 -23q-8 -4 -51 7q-48 -13 -99 -24l-77 -14q16 -10 10 -14q-5 -3 -32 0q-34 -67 -77 -125q-46 -64 -95 -106zM668 865q46 -35 61 -50q25 -26 26 -53q0 -22 -18 -27q-17 -5 -24 17q-12 34 -23 56q-17 32 -45 60l10 5zM776 873q60 -21 98 -43q52 -31 59 -63
q5 -25 -6 -34q-13 -10 -31 19t-56 62t-69 49zM386 889q18 -11 13 -20q-4 -7 -24 -16v-490l2 -31q2 -15 -1 -20q-3 -7 -18 -15q-20 -7 -24 -3q-3 4 -2 24l1 26h-137v-37l1 -24q2 -15 -1 -20q-3 -8 -19 -15q-19 -9 -24 -2q-3 5 -3 33l1 17v573l-1 51l53 -34h121l21 32z
M332 869h-136v-243h136v243zM332 610h-136v-251h136v251z" />
  </g>

</svg>
