<?xml version="1.0" standalone="no"?>
<!DOCTYPE svg PUBLIC "-//W3C//DTD SVG 1.1//EN" "http://www.w3.org/Graphics/SVG/1.1/DTD/svg11.dtd" >
<svg xmlns="http://www.w3.org/2000/svg" xmlns:xlink="http://www.w3.org/1999/xlink" version="1.1" viewBox="0 -36 256 256">
  <g transform="matrix(1 0 0 -1 0 220)">
   <path fill="currentColor"
d="M12 132l-4 4q28 47 41 107l23 -12l-11 -5q-7 -20 -14 -36h56l7 11l14 -13l-8 -8q-5 -117 -7 -128t-4 -17t-6.5 -11t-17.5 -11q-1 14 -25 22v4q24 -4 28.5 -4t7 5t4 16t6.5 127h-57q-16 -31 -33 -51zM75 94q-4 12 -10 23l3 2q21 -21 22.5 -30.5t-4 -16.5t-7.5 -1.5
t-3 17.5q-12 -3 -26.5 -7.5t-25.5 -11.5l-9 20q11 1 22 29t14 44l19 -13l-8 -4q-18 -41 -32 -57zM149 171q11 -56 27 -87q18 39 24 94h-48zM177 234l-9 -4q-7 -25 -14 -45h63l11 14l17 -21h-31q-6 -59 -30 -110q26 -34 62 -43v-4q-13 0 -20 -11q-32 20 -50 49
q-33 -39 -81 -52l-1 4q50 25 75 60q-19 45 -25 87q-10 -23 -29 -47l-2 4q28 53 42 130z" />
  </g>

</svg>
