<?xml version="1.0" standalone="no"?>
<!DOCTYPE svg PUBLIC "-//W3C//DTD SVG 1.1//EN" "http://www.w3.org/Graphics/SVG/1.1/DTD/svg11.dtd" >
<svg xmlns="http://www.w3.org/2000/svg" xmlns:xlink="http://www.w3.org/1999/xlink" version="1.1" viewBox="0 -36 256 256">
  <g transform="matrix(1 0 0 -1 0 220)">
   <path fill="currentColor"
d="M104 179q0 -11 1 -24l-15 -8v13h-16v-46h13l12 11l14 -18h-39v-57l36 11l1 -4q-38 -16 -77 -33l-13 -8l-11 16l17 5q0 76 -1 98l20 -12l-6 -8v-74l21 6v113h-22v-8l-15 -7q1 14 1 44t-1 47l16 -9h49l11 10l12 -15l-8 -5v-38zM39 167h51v53h-51v-53zM170 219h53l6 8
l15 -16l-8 -6q-22 -29 -51.5 -48.5t-80.5 -26.5v5q79 14 117 77h-55l-6 -7q16 -5 21.5 -11t0.5 -15t-8.5 -0.5t-17.5 23.5q-6 -8 -19 -16t-25 -14l-1 3q21 14 36.5 34t23.5 38l17 -13q-6 -3 -18 -15zM132.5 73.5q-7.5 -6.5 -16 -3.5t3 14.5t18.5 37.5l4 -1
q-2 -41 -9.5 -47.5zM226 118l13 -18q-11 -1 -45 -26q8 -18 22.5 -32.5t31.5 -18.5v-5q-13 1 -19 -11q-16 11 -31 34t-22 64q-9 -71 -88 -97l-1 4q28 14 47 34t26 45.5t5 55.5l22 -9l-7 -8q1 -21 12 -51q25 24 34 39zM155.5 158.5q-5.5 -9.5 -8 0.5t-14.5 26l3 2
q15 -8 20 -13.5t-0.5 -15z" />
  </g>

</svg>
