<?xml version="1.0" standalone="no"?>
<!DOCTYPE svg PUBLIC "-//W3C//DTD SVG 1.1//EN" "http://www.w3.org/Graphics/SVG/1.1/DTD/svg11.dtd" >
<svg xmlns="http://www.w3.org/2000/svg" xmlns:xlink="http://www.w3.org/1999/xlink" version="1.1" viewBox="0 0 2048 2048">
  <g transform="matrix(1 0 0 -1 0 2048)">
   <path fill="currentColor"
d="M76 757l-13 42q34 11 75 26t126 52t168 79q84 42 165.5 96t152.5 115q72 61 117 111t64 79l32 49l140 -56q32 -14 31 -27t-14 -21q-12 -8 -26 -10l-39 -6q11 -11 27 -24q15 -14 50 -38q34 -25 94 -64q59 -38 116 -70q58 -31 118 -58q61 -27 126.5 -49.5t151.5 -48.5
q86 -25 140 -34l70 -11l37 -6v-40q-16 -2 -41 -4q-24 -2 -52 -13q-29 -10 -39 -36l-11 -23q-36 12 -53 19l-87 29q-40 14 -110 47t-112 55t-88 50q-45 28 -104 71q-58 42 -95 72l-87 72q-51 43 -73 67l-22 23q-29 -33 -55 -60q-26 -26 -81 -71t-119 -89q-65 -43 -130 -78
q-65 -34 -166 -78q-101 -43 -174 -71t-123 -42zM1282 424q34 -15 52 -22l100 -40q63 -25 108 -46q45 -22 108 -56q62 -35 92 -56q29 -20 49 -46q20 -27 19 -55q-2 -28 -22 -43q-19 -15 -41 -12q-14 1 -24 8t-23 21t-48 49q-36 36 -60 58q-25 21 -64 48q-39 26 -110 68
q-70 43 -95 57l-62 31zM703 332l-57 -44q-29 -21 -74 -50q-44 -29 -98 -58q-54 -28 -131 -62q-77 -35 -114 -46l-47 -15l-14 34q21 10 38 19t86 49q68 40 102 63q33 22 85 62.5t85 72.5t66 73l24 30l134 -76q20 -12 18 -32t-39 -20h-64zM959 783q-33 -6 -43.5 -7.5
t-94.5 -9.5l-116 -13l-103 -8l-44 -4l-5 40q23 3 53 7q31 5 64 11q32 6 117 24t103 23q17 4 91 26q74 21 99 30q26 8 76 30q51 21 69 33l47 28l108 -91q18 -16 18 -28q-1 -12 -12 -20t-28 -5l-76 11q-30 -11 -38 -14q-9 -2 -76 -18l-69 -17l-47 -8v-209l464 1l102 98
l133 -98q19 -15 17 -37q-2 -21 -31 -21h-685v-256q0 -9 4 -77q4 -67 8 -96q4 -30 2 -44q-4 -17 -16 -32q-12 -14 -44 -14q-16 -1 -27 3t-17 9q-5 6 -5 38v469h-500q-30 0 -71 -3l-27 -2q-24 -2 -26 -2l-25 -3l-39 85q27 -5 49 -8q21 -3 38 -4q18 -2 51 -4t50 -2h500z
M342 1624q-3 -23 -6 -43.5t-12 -50.5q-9 -31 -30 -67q-22 -36 -46 -53q-25 -18 -48 -22q-25 -5 -42 3q-16 8 -23 23q-7 16 -1 36q4 14 11 21t28 21t46 40q25 27 42 58q17 32 23 61q5 29 15 102l4 31h39v-102h670q-6 16 -10 30q-5 14 -15 36q-10 21 -24 44t-37 50
q-24 27 -44 45l-30 25l23 32l58 -32q30 -16 59 -34q30 -19 53 -39t37 -43q14 -22 16 -56t-21 -46l-19 -12h630l74 86l110 -86q22 -18 18 -36q-3 -18 -29 -24l-66 -17l-68 -73q-34 -36 -51 -52l-41 -38l-29 22l34 60q19 34 28 52l23 48h-1349zM756 1441q-29 -21 -52 -37
q-24 -15 -78 -44t-106 -52q-52 -24 -130 -53q-77 -29 -116 -39l-47 -13l-10 34l42 19q21 9 80 39t105 57q46 26 92 57t88 66q41 35 66 63l24 27l127 -71q21 -12 18 -32q-3 -21 -39 -21h-64zM1168 1532q34 -11 78 -24l86 -24q40 -13 94 -33t107 -43q53 -22 85 -40
q31 -19 52 -42t23 -51t-16 -45t-40 -16q-13 0 -23 6q-11 5 -28 20l-46 40q-28 25 -59 48q-31 22 -68 43t-105 54q-69 33 -96 45l-60 25z" />
  </g>

</svg>
