<?xml version="1.0" standalone="no"?>
<!DOCTYPE svg PUBLIC "-//W3C//DTD SVG 1.1//EN" "http://www.w3.org/Graphics/SVG/1.1/DTD/svg11.dtd" >
<svg xmlns="http://www.w3.org/2000/svg" xmlns:xlink="http://www.w3.org/1999/xlink" version="1.1" viewBox="0 -200 999 1000">
  <g transform="matrix(1 0 0 -1 0 800)">
   <path fill="currentColor"
d="M279 419q14 -42 29 -88t42 -77q24 30 46.5 76.5t35.5 94.5l-158 1zM46 12q33 21 72.5 46.5t78 53.5t71.5 57t52 56q-20 39 -34.5 84.5t-25.5 91.5q-36 -43 -78 -84t-90 -64l-9 9q28 24 56.5 56t55.5 70.5t50.5 81t40.5 86.5l63 -50l-41 -30l-14 -26h139l49 41l47 -58
l-48 -32q-17 -48 -44.5 -97t-58.5 -88q23 -26 45.5 -45.5t47 -34.5t52 -27t60.5 -23l-2 -16q-22 -4 -44.5 -12t-51.5 -16q-16 6 -31 16t-31 26.5t-35 40t-43 56.5q-19 -23 -53 -48.5t-74.5 -50.5t-84.5 -46.5t-84 -36.5zM447 630q66 -34 104 -69.5t38 -65.5q0 -5 -3.5 -12
t-8.5 -14t-11.5 -11.5t-13.5 -4.5q-6 0 -11 11.5t-15.5 33t-31 52t-58.5 68.5zM52 416q27 24 53.5 51.5t48.5 56.5t37.5 58.5t21.5 58.5l67 -56l-40 -28q-17 -18 -36.5 -39.5t-42 -42t-47 -39t-51.5 -30.5zM386 970l-17 -56v-68h100l44 42l64 -63h-208v-125h151l47 39
l68 -62h-494l-57 -13l-24 37h257v124h-107l-51 -14l-25 35h183v155zM672 745v209l65 -42h126l35 42l53 -55l-32 -34l-1 -745q-3 -12 -6 -24.5t-10.5 -25.5t-21 -25t-37.5 -23q-3 21 -9.5 34t-18.5 22t-30 16t-44 15l2 13q23 -4 41.5 -6t29.5 -2q26 0 37.5 8t16.5 26v273
h-154q-5 -66 -15 -129.5t-26 -118.5t-38 -99.5t-50 -73.5l-13 2q21 50 35.5 95.5t25 94t17.5 102.5t13 122q6 91 7.5 169.5t1.5 159.5zM718 444h150v209h-143zM724 844v-169h144v213h-132z" />
  </g>

</svg>
