<?xml version="1.0" standalone="no"?>
<!DOCTYPE svg PUBLIC "-//W3C//DTD SVG 1.1//EN" "http://www.w3.org/Graphics/SVG/1.1/DTD/svg11.dtd" >
<svg xmlns="http://www.w3.org/2000/svg" xmlns:xlink="http://www.w3.org/1999/xlink" version="1.1" viewBox="0 0 2048 2048">
  <g transform="matrix(1 0 0 -1 0 2048)">
   <path fill="currentColor"
d="M1259 734l-15 -59q-10 -39 -41 -113q-31 -73 -69 -134q-39 -62 -94 -117q-54 -55 -118 -98q-63 -43 -142 -84t-126 -59l-65 -26l-15 38l81 42q41 21 101 58q61 38 114 83q52 45 100 103q49 57 80 108q30 51 58 120q27 70 36 111l6 27h-223q-42 0 -109 -4q-67 -3 -70 -3
l-13 -1l-38 88q13 -4 27 -7t72 -9q57 -7 149 -7h216l8 52q4 25 9 85q6 61 7 82l1 38l117 -24q35 -8 56 -18q21 -11 23 -26q3 -15 -12 -26q-15 -12 -36 -18l-42 -13l-10 -67q-4 -23 -8 -44l-4 -21h484l68 75l79 -48q30 -19 41 -32q10 -14 10 -25q-1 -14 -14 -25t-29 -17
l-41 -18q-4 -65 -5 -97l-4 -109q-5 -104 -16 -173t-27 -105q-15 -36 -30 -58t-39 -43q-24 -20 -53 -34q-30 -15 -50 -21t-35 -7l-25 -3q-3 25 -8 39q-6 14 -20 26q-15 12 -40 22q-24 10 -50 19l-46 13l-67 19l10 38l53 -12l66 -17q11 -3 42 -8q31 -6 52 -8q22 -3 48 0
q26 2 48 20q23 17 37 38q14 22 23 48q10 25 16 76q6 50 12 134q6 83 8 121l4 115h-513zM808 1860l118 -59h772l69 76l83 -54q22 -15 31 -25q9 -11 9 -24q-1 -15 -10 -25t-32 -20l-36 -16v-360q0 -33 4 -113q5 -81 8 -113t3 -47q-1 -12 -5 -20q-3 -8 -14 -14q-12 -7 -30 -8
q-20 -2 -34 3q-13 5 -20 15q-8 9 -8 24v5h-816v-14q0 -12 -8 -23q-9 -10 -23 -16q-14 -7 -35 -5q-11 0 -22 5q-10 5 -16 16q-5 11 -4 28q0 11 3 40q3 28 8 98q5 69 5 92v554zM1353 1743v-268h363v268h-363zM1353 1419v-277h363v277h-363zM900 1475h358v268h-358v-268z
M900 1142h358v277h-358v-277zM239 1860l49 -18q29 -10 75 -32q46 -23 92 -54t67 -54q22 -24 32 -49q11 -25 8 -49.5t-20 -35.5q-16 -12 -34 -10q-21 1 -34 14q-14 13 -38 53q-23 40 -62 80t-66 61q-28 21 -54 37l-36 22zM111 1362l52 -20q31 -12 68 -29t81 -45
q45 -29 72 -52q27 -24 45 -49t21 -53q2 -28 -10 -45q-13 -17 -37 -23q-24 -5 -54 28q-8 7 -31 46q-23 40 -62 80q-39 41 -62 58q-24 17 -69 47l-36 23zM564 866l35 -22l-34 -80q-16 -37 -59 -124l-70 -135l-82 -145q-56 -98 -68 -117l-43 -67q3 -23 3 -39q1 -16 -4 -36
q-4 -20 -13 -25q-9 -4 -23 6q-14 11 -28 31l-81 108l45 49l59 66q31 36 83 102q51 67 76 104l98 153l86 136z" />
  </g>

</svg>
