<?xml version="1.0" standalone="no"?>
<!DOCTYPE svg PUBLIC "-//W3C//DTD SVG 1.1//EN" "http://www.w3.org/Graphics/SVG/1.1/DTD/svg11.dtd" >
<svg xmlns="http://www.w3.org/2000/svg" xmlns:xlink="http://www.w3.org/1999/xlink" version="1.1" viewBox="0 -200 1000 1000">
  <g transform="matrix(1 0 0 -1 0 800)">
   <path fill="currentColor"
d="M443 417l-44 -6l-15 23h156q4 16 6 26t5 34h-124l-48 -8l-13 28h187v84l2 28l73 -21l-13 -58l-5 -33h138l45 41l54 -61h-241q-3 -19 -4.5 -33.5t-5.5 -26.5h116l47 40l53 -57h-223q-4 -18 -8.5 -29t-11.5 -25h222l47 38l51 -59h-218q37 -46 105.5 -78t162.5 -43
q-18 -4 -30.5 -7t-23.5 -6t-21.5 -8t-22.5 -17q-61 22 -108.5 62t-76.5 97h-97q-21 -31 -51.5 -61t-65 -55t-72 -45t-72.5 -28l-21 -4q73 46 133 93.5t90 98.5h-123l-44 -6l-16 28h194q11 15 14 26.5t9 27.5h-91zM619 225v-14h55l38 37l59 -61h-152v-67h129l46 40l65 -59
h-240v-78q-13 -7 -24.5 -12.5t-28.5 -6.5v96h-148l-49 -12l-24 32h221v71h-54l-49 -15l-17 35h120v100l73 -31zM293 618l69 -66l-39 -31q-18 -25 -29 -41t-19 -26.5t-15 -17.5t-15 -14l33 -26l-22 -43v-325q-5 -8 -19.5 -16.5t-34.5 -12.5v370q-14 -13 -32 -29.5t-38 -32.5
t-41 -29.5t-41 -21.5h-7q40 35 80 81.5t73.5 96.5t59.5 98.5t37 85.5zM465 1000l70 -40l-20 -68v-42h231l46 46l71 -69h-348v-146h315l52 47l71 -70h-816l-59 -15l-30 38h417v319z" />
  </g>

</svg>
