<?xml version="1.0" standalone="no"?>
<!DOCTYPE svg PUBLIC "-//W3C//DTD SVG 1.1//EN" "http://www.w3.org/Graphics/SVG/1.1/DTD/svg11.dtd" >
<svg xmlns="http://www.w3.org/2000/svg" xmlns:xlink="http://www.w3.org/1999/xlink" version="1.1" viewBox="0 -52 256 256">
  <g transform="matrix(1 0 0 -1 0 204)">
   <path fill="currentColor"
d="M146 248l11 -12h63l6 11l14 -11q4 -3 1 -5l-6 -3v-136q0 -6 -4 -12q-4 -4 -21 -7q0 8 -9 12l-15 6q-3 1 -4 1l1 3q8 -1 20 -3q7 -1 11 -2q6 0 8 1t2 17v123h-65v-183l1 -22q0 -9 -14 -12v11q1 19 1 35v175q0 7 -5 10zM59 252l22 -8q2 -1 2 -2l-1 -1l-2 -1q-1 0 -5 -3v-64
h23l9 12l18 -12q2 -2 2 -3q-1 -1 -5 -2h-47v-85l53 25l2 -4l-64 -36q-20 -10 -26 -15q-5 -4 -10 -13l-13 15l47 22v91h-35q-6 1 -12 -3l-8 8h55v66q0 4 -7 11z" />
  </g>

</svg>
